# SSTK version 0.8.0
# 8
mtllib original_8.mtl
o #ID51
v -0.00490231 -0.07089978 0.33104621
v -0.14359853 -0.70686651 0.30554565
v -0.00497125 -0.70701944 0.33106450
v -0.14368768 0.22476379 0.30564238
v -0.00494421 -0.06417067 0.33120285
v -0.00486970 0.22467974 0.33095401
v -0.00501458 -0.70683359 0.33100511
v -0.13869863 -0.74312681 0.28863563
v -0.00484233 -0.74312914 0.31292633
v -0.14378633 -0.70687811 0.30585023
v 0.13370161 -0.08487895 0.30568973
v -0.00491505 -0.70685885 0.33122620
v 0.13366656 -0.70683985 0.30580524
v -0.00492976 -0.07071912 0.33095977
v 0.13378424 0.22468772 0.30570299
v -0.00514039 -0.06431631 0.33105836
v -0.00501977 0.22484837 0.33108607
v -0.00498812 0.38020323 0.30696957
v -0.14355312 0.22482086 0.30572887
v -0.00508168 0.22475955 0.33116156
v -0.13690922 0.38008255 0.28283365
v -0.14356647 0.22485118 0.30574621
v -0.26119513 -0.70693313 0.23341915
v -0.14379367 -0.70683994 0.30561704
v -0.26105050 0.22472737 0.23343223
v -0.14371684 -0.70707852 0.30563978
v -0.25124168 -0.74302426 0.21927233
v -0.13858006 -0.74309446 0.28848403
v -0.26110871 -0.70699173 0.23341153
v -0.00510847 -0.74316050 0.31313623
v -0.13860737 -0.74315012 0.28837862
v -0.00497539 -0.75860801 0.27079854
v 0.13350323 -0.70692779 0.30567051
v -0.00483948 -0.74324478 0.31307911
v 0.12869318 -0.74320352 0.28855142
v -0.00497532 -0.70700973 0.33099280
v 0.25130268 0.22483006 0.23342440
v 0.13371224 -0.70693373 0.30552859
v 0.25113145 -0.70689294 0.23336637
v 0.13355548 -0.08497045 0.30553405
v 0.13370804 0.22487727 0.30566162
v 0.12696743 0.38004401 0.28290387
v -0.00505529 0.22479747 0.33104598
v 0.13363778 0.22483432 0.30568100
v -0.00500455 0.38004247 0.30694045
v -0.10531167 0.48352730 0.20292917
v -0.13694481 0.38012058 0.28293309
v -0.00505664 0.38005202 0.30689283
v -0.13689060 0.38000930 0.28270131
v -0.26116265 0.22475338 0.23345273
v -0.14363017 0.22483286 0.30573310
v -0.24786714 0.38008823 0.21462266
v -0.33977681 0.22485794 0.12535994
v -0.26117757 -0.70691877 0.23334796
v -0.26117140 0.22481803 0.23339216
v -0.33970690 -0.70683302 0.12514736
v -0.33982639 -0.70688025 0.12515865
v -0.25129604 -0.74313423 0.21931482
v -0.26119590 -0.70688067 0.23338729
v -0.32557172 -0.74318879 0.11699082
v -0.11551426 -0.75867544 0.23728355
v -0.13849799 -0.74318324 0.28847844
v -0.25128230 -0.74324302 0.21939441
v -0.00499183 -0.75874057 0.27085496
v -0.13866968 -0.74302279 0.28855280
v -0.11539158 -0.75872462 0.23734036
v 0.10605012 -0.75868739 0.23745224
v -0.00490651 -0.74318685 0.31300148
v -0.00486263 -0.75856181 0.27080343
v 0.12852813 -0.74302407 0.28856211
v -0.00500941 -0.74326223 0.31283152
v 0.10604157 -0.75856240 0.23745907
v 0.25134242 -0.70695997 0.23342981
v 0.12860595 -0.74301473 0.28856146
v 0.24125578 -0.74326267 0.21935628
v 0.13366043 -0.70678382 0.30566041
v 0.32969071 -0.70691999 0.12531584
v 0.25124395 0.22489630 0.23332660
v 0.25112641 -0.70696080 0.23343433
v 0.32976870 0.22472081 0.12538305
v 0.23800496 0.38011624 0.21452724
v 0.13381562 0.22497245 0.30573546
v 0.25121731 0.22490605 0.23350279
v 0.12683852 0.38025601 0.28286702
v -0.00496063 0.48366527 0.23467451
v -0.00491943 0.38021963 0.30691932
v 0.12697774 0.38021309 0.28292436
v -0.10545655 0.48358781 0.20279994
v -0.00499600 0.38014513 0.30696623
v -0.00502186 0.48373929 0.23450281
v -0.18675427 0.48352852 0.15092570
v -0.13706864 0.38000759 0.28278777
v -0.10542016 0.48362146 0.20298990
v -0.18668146 0.48354185 0.15088906
v -0.24788820 0.38016664 0.21457206
v -0.13705294 0.38011936 0.28266036
v -0.24789028 0.38008765 0.21460136
v -0.33980162 0.22466469 0.12534177
v -0.26139130 0.22462770 0.23337139
v -0.32081957 0.38009726 0.11424510
v -0.36736970 0.22479290 -0.00221629
v -0.33992971 -0.70694884 0.12533618
v -0.33957521 0.22477456 0.12541105
v -0.36747707 -0.70686857 -0.00226967
v -0.36735965 -0.70694602 -0.00240766
v -0.32557786 -0.74311758 0.11702277
v -0.33957979 -0.70696080 0.12527584
v -0.35142002 -0.74319081 -0.00237525
v -0.21082509 -0.75863902 0.17915628
v -0.25117060 -0.74315867 0.21935415
v -0.32567231 -0.74327672 0.11691776
v -0.11547068 -0.75871612 0.23719590
v -0.25111582 -0.74299508 0.21929094
v -0.21086341 -0.75862569 0.17919739
v -0.26863062 -0.75868549 -0.10126401
v -0.26872854 -0.75863003 0.09657135
v -0.28941281 -0.75860043 -0.00245957
v -0.21085012 -0.75867022 -0.18379716
v -0.21089311 -0.75857713 0.17905260
v -0.11544816 -0.75862991 -0.24375744
v -0.11556491 -0.75867652 0.23736963
v -0.00509247 -0.75851417 -0.27541415
v -0.00514869 -0.75856533 0.27075893
v 0.10509800 -0.75870962 -0.24343220
v 0.10592359 -0.75872704 0.23752362
v 0.19638575 -0.75877638 -0.18221908
v 0.19828124 -0.75854481 0.17708835
v 0.25550014 -0.75882151 -0.10104165
v 0.25576304 -0.75861349 0.09657998
v 0.27661210 -0.75874975 -0.00247464
v 0.19814553 -0.75884729 0.17712935
v 0.12864198 -0.74313428 0.28845143
v 0.10608415 -0.75873609 0.23751401
v 0.24115050 -0.74320527 0.21941859
v 0.12870254 -0.74328608 0.28844744
v 0.19804583 -0.75873330 0.17700268
v 0.24129914 -0.74320103 0.21924568
v 0.32984604 -0.70681446 0.12524778
v 0.25136634 -0.70695822 0.23335107
v 0.31558491 -0.74328076 0.11692985
v 0.35746363 -0.70700446 -0.00227180
v 0.32977486 0.22480820 0.12532110
v 0.32986684 -0.70709287 0.12522747
v 0.35734525 0.22482617 -0.00233690
v 0.32969281 0.22487385 0.12535443
v 0.23802192 0.38016830 0.21448720
v 0.25125194 0.22494720 0.23345739
v 0.31077570 0.38007186 0.11413575
v 0.09596166 0.48358415 0.20333652
v 0.12699179 0.38005482 0.28262610
v 0.23778227 0.38018406 0.21457948
v -0.00490740 0.48370541 0.23473168
v 0.12692830 0.37994746 0.28291461
v 0.09581900 0.48365576 0.20314739
v -0.09862562 0.53533685 0.18007668
v -0.10552770 0.48370679 0.20296795
v -0.00500769 0.48348396 0.23473333
v -0.16927833 0.53522997 0.13196640
v -0.18668890 0.48358733 0.15091139
v -0.10540788 0.48377229 0.20296406
v -0.22518339 0.48362815 0.07993346
v -0.24785849 0.38015990 0.21460137
v -0.18669925 0.48359173 0.15096410
v -0.22517695 0.48376521 0.07999870
v -0.32079702 0.38023294 0.11423024
v -0.24799648 0.37995330 0.21443764
v -0.32088006 0.38003570 0.11425501
v -0.36741391 0.22480990 -0.00239719
v -0.33987437 0.22471877 0.12524625
v -0.34595426 0.38008374 -0.00239215
v -0.33983500 0.22488320 -0.12982922
v -0.36732938 -0.70701484 -0.00247848
v -0.36743616 0.22483699 -0.00230131
v -0.33992895 -0.70685640 -0.12984751
v -0.33958716 -0.70699593 -0.12995602
v -0.35131827 -0.74309538 -0.00236431
v -0.36734312 -0.70699444 -0.00243147
v -0.32541654 -0.74303380 -0.12138570
v -0.26864878 -0.75874466 0.09654866
v -0.32558980 -0.74316642 0.11708304
v -0.35129901 -0.74319454 -0.00219819
v -0.21084111 -0.75852815 0.17923634
v -0.32543373 -0.74306297 0.11684372
v -0.26875924 -0.75879411 0.09663007
v 0.31553820 -0.74315660 0.11687802
v 0.25584540 -0.75856695 0.09661915
v 0.27659297 -0.75873019 -0.00226849
v 0.25574580 -0.75872736 0.09646824
v 0.24141566 -0.74325287 0.21922031
v 0.19837039 -0.75862925 0.17710967
v -0.26881044 -0.75869971 0.09668720
v -0.35123878 -0.74331430 -0.00246689
v -0.28956743 -0.75861035 -0.00211615
v -0.26864613 -0.75870870 -0.10123916
v -0.28968602 -0.75857866 -0.00223116
v -0.32550454 -0.74332511 -0.12170136
v -0.21088998 -0.75868584 -0.18374286
v -0.26860918 -0.75877048 -0.10125904
v -0.25130156 -0.74321457 -0.22384076
v -0.11538115 -0.75861671 -0.24390451
v -0.21086239 -0.75870324 -0.18380679
v -0.13847058 -0.74321607 -0.29309099
v -0.00507700 -0.75861453 -0.27535886
v -0.11548517 -0.75852684 -0.24399800
v -0.00499901 -0.74319948 -0.31743210
v 0.12861453 -0.74320710 -0.29322400
v 0.10505512 -0.75873983 -0.24355777
v -0.00498560 -0.75886261 -0.27541112
v 0.24135672 -0.74322001 -0.22390984
v 0.19654237 -0.75870784 -0.18210365
v 0.10521965 -0.75854573 -0.24350678
v 0.24120328 -0.74316645 -0.22387064
v 0.25545941 -0.75876574 -0.10078653
v 0.19647381 -0.75867970 -0.18210577
v 0.31554063 -0.74327819 -0.12149403
v 0.34140295 -0.74305985 -0.00229090
v 0.27668994 -0.75870020 -0.00215481
v 0.25540620 -0.75867444 -0.10101034
v 0.31559147 -0.74307252 0.11705918
v 0.24139907 -0.74322842 0.21926607
v 0.25581354 -0.75876156 0.09649970
v 0.31552182 -0.74320432 0.11697265
v 0.35739749 -0.70686543 -0.00220750
v 0.32973154 -0.70695956 0.12526514
v 0.34134723 -0.74317954 -0.00237272
v 0.32978409 -0.70704536 -0.12973694
v 0.35736371 0.22466708 -0.00219187
v 0.35729835 -0.70690334 -0.00235154
v 0.32967975 0.22467918 -0.12975946
v 0.35738283 0.22482688 -0.00234778
v 0.31065009 0.38000300 0.11416913
v 0.32978200 0.22484638 0.12526915
v 0.33602474 0.38000736 -0.00233082
v 0.31096989 0.38013425 0.11404472
v 0.17397142 0.48371913 0.14871517
v 0.23804386 0.37993011 0.21458566
v 0.23808953 0.38006483 0.21455320
v 0.17411801 0.48369440 0.14870520
v 0.09589418 0.48359024 0.20323930
v -0.00490326 0.53540482 0.21048149
v -0.00491969 0.48373339 0.23453327
v 0.09597310 0.48357532 0.20311669
v -0.09875185 0.53542416 0.18008095
v -0.00502092 0.48357486 0.23456144
v -0.00500198 0.53545746 0.21057636
v -0.16915810 0.53547157 0.13200689
v -0.10550255 0.48371470 0.20294049
v -0.09882909 0.53533541 0.18005263
v -0.19606733 0.53536255 0.06894936
v -0.18670065 0.48362742 0.15090412
v -0.16916321 0.53551904 0.13211968
v -0.19630450 0.53532479 0.06888899
v -0.22540197 0.48377057 0.08000186
v -0.18659695 0.48351405 0.15081131
v -0.24270329 0.48375292 -0.00242160
v -0.32069284 0.38000815 0.11430632
v -0.22522725 0.48348712 0.08006931
v -0.34589147 0.37997252 -0.00238180
v -0.32083669 0.38005803 0.11406806
v -0.24242730 0.48363653 -0.00224997
v -0.32088452 0.38009337 -0.11886026
v -0.36717449 0.22475182 -0.00231458
v -0.34595805 0.38006872 -0.00236411
v -0.33984188 0.22484765 -0.12984142
v -0.26127584 0.22476370 -0.23798164
v -0.33978764 -0.70688038 -0.12986315
v -0.33965178 0.22492227 -0.12970410
v -0.26111640 -0.70687823 -0.23813786
v -0.33985574 -0.70695066 -0.12978534
v -0.25129363 -0.74330022 -0.22397584
v -0.32563230 -0.74329021 -0.12156328
v -0.26133061 -0.70696038 -0.23811193
v -0.28943856 -0.75877809 -0.00230433
v -0.35114873 -0.74309371 -0.00229956
v -0.32543522 -0.74307297 -0.12158308
v 0.34123918 -0.74317916 -0.00233544
v 0.31542613 -0.74325229 0.11714187
v 0.27664965 -0.75880886 -0.00228690
v -0.25116810 -0.74305835 -0.22400427
v -0.26870090 -0.75876042 -0.10104103
v -0.32558050 -0.74307738 -0.12164741
v -0.13878319 -0.74302689 -0.29306667
v -0.21071902 -0.75885245 -0.18369178
v -0.25128926 -0.74326727 -0.22399172
v -0.00507913 -0.74308966 -0.31747785
v -0.11547674 -0.75865101 -0.24394978
v -0.13864345 -0.74315251 -0.29323695
v 0.12867030 -0.74321507 -0.29322051
v -0.00499129 -0.75882607 -0.27538368
v -0.00515560 -0.74323443 -0.31760886
v 0.24122885 -0.74317290 -0.22396024
v 0.10506203 -0.75868158 -0.24360230
v 0.12865914 -0.74315130 -0.29314183
v 0.24113089 -0.74306428 -0.22391766
v 0.32967910 -0.70685795 -0.12984787
v 0.31561110 -0.74314508 -0.12162498
v 0.25111556 -0.70691596 -0.23801537
v 0.34142442 -0.74306271 -0.00222267
v 0.25540819 -0.75854679 -0.10104390
v 0.31567214 -0.74305699 -0.12150719
v 0.31561070 -0.74298403 -0.12160338
v 0.35728932 -0.70703795 -0.00217466
v 0.34126986 -0.74332164 -0.00223719
v 0.32971997 -0.70690306 -0.12998472
v 0.25121563 -0.70690602 -0.23802374
v 0.32979901 0.22486447 -0.12977105
v 0.32966817 -0.70688049 -0.12974777
v 0.25120755 0.22482807 -0.23803293
v 0.32990784 0.22497156 -0.12986297
v 0.33589548 0.38016551 -0.00236007
v 0.35738275 0.22481785 -0.00218031
v 0.31085058 0.38014192 -0.11864220
v 0.33602485 0.38016682 -0.00238419
v 0.21244313 0.48362538 0.08006389
v 0.31083893 0.37999883 0.11428104
v 0.31098177 0.38021139 0.11430275
v 0.21221962 0.48365816 0.07998571
v 0.17406531 0.48360557 0.14872817
v 0.08911488 0.53536898 0.18040380
v 0.09585482 0.48352393 0.20316776
v 0.17392267 0.48360844 0.14893379
v -0.00509210 0.53552725 0.21058065
v 0.09600296 0.48355426 0.20312834
v 0.08914085 0.53554460 0.18030826
v -0.19611038 0.53548432 0.06908759
v -0.19613941 0.53535368 -0.07362896
v -0.21108186 0.53544100 -0.00236048
v -0.16922684 0.53541021 0.13204306
v -0.16914170 0.53529725 -0.13667711
v -0.09878220 0.53551288 0.18007914
v -0.09877000 0.53536071 -0.18672220
v -0.00480052 0.53539413 0.21048575
v -0.00501173 0.53545803 -0.21498812
v 0.08933092 0.53522182 0.18026082
v 0.08842968 0.53528593 -0.18652083
v 0.16169213 0.53541678 -0.13516426
v 0.16363062 0.53554868 0.12994403
v 0.18611389 0.53532717 -0.07319263
v 0.18636430 0.53522645 0.06893386
v 0.20136418 0.53537729 -0.00236276
v -0.21113955 0.53536435 -0.00221304
v -0.22541813 0.48369448 0.08000046
v -0.19614381 0.53529884 0.06898826
v -0.24244153 0.48369666 -0.00218294
v -0.22529113 0.48364015 0.07999889
v -0.21114845 0.53546033 -0.00220033
v -0.22530619 0.48366093 -0.08465542
v -0.34603314 0.38019352 -0.00235555
v -0.24248962 0.48373745 -0.00231820
v -0.32081721 0.38006314 -0.11868292
v -0.34611868 0.38001886 -0.00239736
v -0.22536605 0.48346257 -0.08469433
v -0.24803990 0.38005132 -0.21915696
v -0.33981142 0.22483713 -0.12983593
v -0.32084815 0.37991131 -0.11882411
v -0.26116196 0.22466752 -0.23807114
v -0.26128097 0.22494599 -0.23816428
v -0.14351859 -0.70697244 -0.31037256
v -0.26121057 -0.70700867 -0.23803790
v -0.14368977 0.22478219 -0.31038727
v -0.26131926 -0.70686337 -0.23797001
v -0.13865130 -0.74315949 -0.29303049
v -0.25129819 -0.74309753 -0.22396693
v -0.14378498 -0.70676822 -0.31036785
v -0.14369232 -0.70686090 -0.31030272
v -0.00512262 -0.74304849 -0.31759669
v -0.13867782 -0.74303837 -0.29307641
v -0.00495794 -0.70679602 -0.33556165
v -0.00504445 -0.70702682 -0.33570055
v 0.12869705 -0.74320598 -0.29316762
v -0.00494309 -0.74319470 -0.31762881
v 0.13351168 -0.70693174 -0.31031882
v 0.13366776 -0.70700283 -0.31032253
v 0.24112789 -0.74326786 -0.22390839
v 0.12848452 -0.74315874 -0.29315226
v 0.25116433 -0.70685886 -0.23801155
v 0.13347922 0.22465987 -0.31022011
v 0.25116959 -0.70692534 -0.23801827
v 0.13367317 -0.70674838 -0.31026629
v 0.25120761 0.22478280 -0.23808158
v 0.32987065 0.22467817 -0.12984457
v 0.23781598 0.37998915 -0.21916784
v 0.31071284 0.38026555 -0.11887330
v 0.25117644 0.22471552 -0.23812550
v 0.33591429 0.38004647 -0.00238580
v 0.31080038 0.38007677 -0.11880250
v 0.22943256 0.48364949 -0.00233604
v 0.33603047 0.38014619 -0.00235961
v 0.22953712 0.48351062 -0.00229184
v 0.21223834 0.48356455 0.08001440
v 0.21241141 0.48349066 0.08008624
v 0.16363419 0.53544729 0.12989609
v 0.17394107 0.48374833 0.14860916
v 0.08926497 0.53551712 0.18029408
v 0.17400460 0.48345026 0.14882688
v 0.16353889 0.53554150 0.12993856
v 0.18629602 0.53547983 0.06897942
v 0.16366563 0.53544552 0.12988299
v 0.21234044 0.48348738 0.07986684
v 0.20122929 0.53520938 -0.00234240
v 0.18646537 0.53535447 0.06890480
v 0.22965246 0.48358067 -0.00231047
v 0.21196631 0.48365265 -0.08425566
v 0.18596119 0.53532211 -0.07337504
v 0.20125244 0.53543235 -0.00220976
v 0.17212676 0.48361939 -0.15393945
v 0.16173430 0.53537436 -0.13536259
v 0.18591297 0.53534001 -0.07344973
v 0.16165865 0.53535657 -0.13509514
v 0.09507820 0.48352170 -0.20916419
v 0.08839768 0.53550137 -0.18638032
v 0.08840678 0.53534527 -0.18622863
v -0.00499825 0.48372846 -0.23916166
v -0.00503901 0.53548068 -0.21500380
v -0.00503618 0.53540204 -0.21522848
v -0.10537508 0.48362991 -0.20960407
v -0.09882610 0.53538342 -0.18667475
v -0.09872508 0.53529765 -0.18677999
v -0.18680746 0.48354875 -0.15557552
v -0.16911674 0.53536806 -0.13670272
v -0.16932836 0.53543022 -0.13687428
v -0.22532173 0.48371061 -0.08462470
v -0.19624864 0.53541693 -0.07349348
v -0.19620778 0.53543014 -0.07370165
v -0.24258355 0.48363933 -0.00211933
v -0.21109317 0.53537523 -0.00224017
v -0.22532047 0.48371233 -0.08456714
v -0.24234071 0.48356504 -0.00227903
v -0.19639693 0.53545594 -0.07364229
v -0.18671055 0.48361178 -0.15543346
v -0.32077023 0.38012688 -0.11884910
v -0.22512381 0.48348502 -0.08459119
v -0.18658209 0.48354644 -0.15549109
v -0.24794928 0.38012193 -0.21926369
v -0.32068032 0.38018508 -0.11895708
v -0.24798345 0.38019198 -0.21912872
v -0.14363213 0.22491618 -0.31040668
v -0.26131252 0.22490369 -0.23796639
v -0.13707652 0.38000590 -0.28745476
v -0.14367426 0.22484333 -0.31024723
v -0.00499814 -0.70687656 -0.33551955
v -0.14361578 -0.70694272 -0.31019287
v -0.00483994 0.22480102 -0.33561248
v -0.00489981 0.22463618 -0.33555443
v 0.13366001 -0.70679455 -0.31033551
v -0.00510884 -0.70684852 -0.33562773
v 0.13359530 0.22484540 -0.31038400
v 0.12692568 0.38021044 -0.28741360
v 0.25133411 0.22485247 -0.23796482
v 0.13352582 0.22482713 -0.31032767
v 0.23789182 0.38005587 -0.21906062
v 0.31082651 0.38011835 -0.11880751
v 0.23775309 0.38016791 -0.21917993
v 0.21201058 0.48364964 -0.08428692
v 0.31081030 0.38007673 -0.11877479
v 0.21200387 0.48354495 -0.08437546
v 0.22975022 0.48362116 -0.00216527
v 0.22957056 0.48351456 -0.00235533
v 0.18629798 0.53540186 0.06889778
v 0.21243061 0.48361542 0.08002770
v 0.21198294 0.48365414 -0.08419629
v 0.20109886 0.53545899 -0.00243301
v 0.22958964 0.48373823 -0.00220116
v 0.17214905 0.48361425 -0.15409773
v 0.18597911 0.53543924 -0.07316236
v 0.21185191 0.48351386 -0.08436819
v 0.16166187 0.53549737 -0.13520106
v 0.17233525 0.48364807 -0.15422767
v 0.09503525 0.48359673 -0.20926249
v 0.08845663 0.53543266 -0.18635597
v 0.09508156 0.48368935 -0.20919069
v -0.00499531 0.48352937 -0.23928644
v -0.00484701 0.53542182 -0.21503373
v -0.00514443 0.48350060 -0.23924715
v -0.10547539 0.48358916 -0.20958935
v -0.09878107 0.53537267 -0.18652174
v -0.10536437 0.48372640 -0.20968628
v -0.18663846 0.48360253 -0.15561286
v -0.18669877 0.48360713 -0.15558975
v -0.22510930 0.48351849 -0.08449520
v -0.16910321 0.53544198 -0.13657931
v -0.10544039 0.48357562 -0.20942833
v -0.24788549 0.38009206 -0.21918968
v -0.18680873 0.48367197 -0.15554017
v -0.10548323 0.48369157 -0.20965027
v -0.13696257 0.38017818 -0.28747990
v -0.24776585 0.38008242 -0.21928071
v -0.13686796 0.37995371 -0.28751071
v -0.00505235 0.22470946 -0.33550650
v -0.14377207 0.22482204 -0.31041954
v -0.00507603 0.38007750 -0.31155873
v -0.00509391 0.38016587 -0.31146983
v 0.13369929 0.22488200 -0.31019913
v -0.00508003 0.22472457 -0.33567482
v 0.12690717 0.37995056 -0.28748123
v 0.23784150 0.37999571 -0.21918820
v 0.12688217 0.38009989 -0.28743477
v 0.17210216 0.48367336 -0.15402407
v 0.23788843 0.38006327 -0.21913855
v 0.17224483 0.48368045 -0.15395351
v 0.21208222 0.48347888 -0.08417076
v 0.17231428 0.48364219 -0.15392464
v 0.12700966 0.38007910 -0.28731944
v 0.09517005 0.48372991 -0.20913597
v 0.09506268 0.48353131 -0.20931300
v -0.00516997 0.38009756 -0.31151647
v -0.00487943 0.48371677 -0.23916323
v -0.00502442 0.48362155 -0.23921788
v -0.13695641 0.38005820 -0.28739043
v -0.10546153 0.48362105 -0.20966921
v -0.00515694 0.48362304 -0.23917435
v -0.00487615 0.38011542 -0.31139228
v -0.13686610 0.38002790 -0.28728159
v 0.09519956 0.48357985 -0.20915400
v 0.12691388 0.38002952 -0.28737272
v -0.00507021 0.38018012 -0.31147666
vn -0.1800125040277132 0 0.9836643220091256
vn -0.16158920635954935 -0.4406691173430955 0.8830060347518289
vn 0.1800125040277132 0 0.9836643220091256
vn -0.17794700634157054 0.15097630538040438 0.972389334653438
vn -0.523687591615259 0 0.8519103863600969
vn -0.47283841357835904 -0.429854812344012 0.7691870220885131
vn -0.06307975063211958 -0.936588909385519 0.3447059034542835
vn 0.16158920635954935 -0.4406691173430955 0.8830060347518289
vn 0.523687591615259 0 0.8519103863600969
vn 0.17794700634157054 0.15097630538040438 0.972389334653438
vn -0.13964229891556446 0.6310327950995189 0.7630842940740326
vn -0.5180356965458053 0.1465164990230468 0.8427169943808727
vn -0.8091169913122035 0 0.5876475936902046
vn -0.7373533180201964 -0.41172591006218 0.5355295130878192
vn -0.14045539862117676 -0.9633625905428573 0.2284836977570199
vn -0.0778558372954204 -0.9633284665356048 0.2567814910798467
vn 0.10296759803742421 -0.9334696822079466 0.3435578934517417
vn 0.04954716806591794 -0.9613721624726757 0.27075568943100575
vn 0.47283841357835904 -0.429854812344012 0.7691870220885131
vn 0.8091169913122035 0 0.5876475936902046
vn 0.5180356965458053 0.1465164990230468 0.8427169943808727
vn 0.14835009882934938 0.5663998955304618 0.8106684936029057
vn -0.25017151210848787 0.5545251268394297 0.7936725384143432
vn -0.41829960654583254 0.6311585098767911 0.6531955102216412
vn -0.4022391215050997 0.6403404342348223 0.6543453349835732
vn -0.8012416063658004 0.1391914011058644 0.581925804623354
vn -0.9774157196353778 0 0.21132560424533595
vn -0.897385838140586 -0.39630161684356413 0.19401980824620668
vn -0.2152929098358097 -0.963949644038725 0.1563651071436509
vn -0.14069759376899194 -0.962768857362309 0.23082528977754888
vn 0 -1 0
vn 0.14878449612496514 -0.9624966749321452 0.22685529409164112
vn 0.1342198049093378 -0.9665985353551305 0.21833990798618605
vn 0.7373533180201964 -0.41172591006218 0.5355295130878192
vn 0.9774157196353778 0 0.21132560424533595
vn 0.8012416063658004 0.1391914011058644 0.581925804623354
vn 0.406500807469237 0.6304509115842014 0.6612781121506351
vn 0.2294815100140857 0.6355962277360693 0.7371266321666406
vn -0.2730607882351475 0.4183073819771827 0.8662890626758457
vn -0.4845525145723235 0.43895941320116666 0.7566528227554072
vn -0.6813646107640449 0.630966009967859 0.3709773058606162
vn -0.5893935996356958 0.6851109995765328 0.4280631997354143
vn -0.9687200103226613 0.13309520141825978 0.20944500223184181
vn -0.9774157196353778 0 -0.21132560424533595
vn -0.8973858381405863 -0.39630161684356413 -0.1940198082462069
vn -0.2456352021124198 -0.9679065083238269 0.0531068604567095
vn -0.21109819133848307 -0.966185060356703 0.14806749392467955
vn 0.23537549724749435 -0.9706408886492242 0.04954432942062322
vn 0.20496170125663046 -0.9676970059329988 0.14681010090009985
vn -0.24354599993973458 -0.9685335997603365 0.05126413998731448
vn -0.24609159961504873 -0.967861398486013 -0.051799979918971575
vn -0.21839050869735305 -0.9637638383816788 -0.15318240610045522
vn -0.1472658965495851 -0.9610933774817457 -0.23369269452462016
vn -0.09809483563181944 -0.9339317536188778 -0.3437279197341031
vn 0.07652867148134182 -0.9612236186061082 -0.26493870512833684
vn 0.14064520539392233 -0.967672137111456 -0.20935510802903462
vn 0.20032889771576778 -0.9688664889525871 -0.1454855983411138
vn 0.23302761138325603 -0.9711814474416186 -0.05004726244477832
vn 0.20173519367409581 -0.9684189696328365 0.1465182954055575
vn 0.897385838140586 -0.39630161684356413 0.19401980824620668
vn 0.9774157196353778 0 -0.21132560424533595
vn 0.9687200103226613 0.13309520141825978 0.20944500223184181
vn 0.6096179805471575 0.6575232790185046 0.44275168587184277
vn 0.43020268215427676 0.65818487269709 0.617833574370948
vn 0.27160029780684664 0.40634889671876095 0.8724183929552827
vn -0.2823205002622715 0.40504430037628 0.8696173008078617
vn -0.5155307053175188 0.4013561041398475 0.7570610078088194
vn -0.8371850649879753 0.41336748271250506 0.3581179850231016
vn -0.7544598249774 0.5119125169475474 0.4107748135992489
vn -0.702349702419212 0.6964826023990031 0.1470268005064274
vn -0.6991971084792962 0.6987636084740391 0.15117150183328568
vn -0.9687200103226613 0.1330952014182599 -0.20944500223184176
vn -0.8091169913122035 0 -0.5876475936902046
vn -0.7373533180201964 -0.4117259100621798 -0.5355295130878194
vn -0.2435284008652081 -0.968463603440759 -0.05265137018706009
vn 0.2330236931217014 -0.9711651713335414 0.0503802385128964
vn -0.209538599672202 -0.9658845984889894 -0.1521857997619238
vn -0.14144729832285796 -0.962833288583676 -0.23009719727173544
vn -0.05094067952734787 -0.9591218911008056 -0.278370697417143
vn 0.06307975063211958 -0.9365889093855188 -0.3447059034542839
vn 0.14343479838912035 -0.961760589198712 -0.23333029737952715
vn 0.7373533180201964 -0.4117259100621798 -0.5355295130878194
vn 0.2335044013073399 -0.9710443054366639 -0.05048417028265001
vn 0.8973858381405863 -0.39630161684356413 -0.1940198082462069
vn 0.8091169913122035 0 -0.5876475936902046
vn 0.9687200103226613 0.1330952014182599 -0.20944500223184176
vn 0.6913230991114218 0.7069167990913787 0.14946909980788306
vn 0.6203293941407222 0.7041444933490524 0.3455024967365805
vn 0.5236715884284997 0.4002010911568104 0.7520685833816423
vn 0.27718020522626885 0.41826910788651833 0.864998316309656
vn 0 1 0
vn -0.8417204579451976 0.5106578744860472 0.17531459124077317
vn -0.8409827039790508 0.5116203024206958 0.17604760083295704
vn -0.6996974127840737 0.6992636127761478 -0.14647160267616202
vn -0.7010658814571653 0.6968008815699723 -0.1515755959909027
vn -0.8012416063658004 0.13919140110586467 -0.581925804623354
vn -0.523687591615259 0 -0.8519103863600969
vn -0.47283841357835904 -0.4298548123440117 -0.7691870220885133
vn -0.16158920635954935 -0.44066911734309505 -0.8830060347518291
vn 0.16158920635954935 -0.44066911734309505 -0.8830060347518291
vn 0.47283841357835904 -0.4298548123440117 -0.7691870220885133
vn 0.523687591615259 0 -0.8519103863600969
vn 0.8012416063658004 0.13919140110586467 -0.581925804623354
vn 0.6894795953709649 0.7087988952412589 -0.14907049899916883
vn 0.6899593977916608 0.7092919977297834 0.14443299953771638
vn 0.8234812259815865 0.33394271053619806 0.45865121447086565
vn 0.5180051030407781 0.38318380224935394 0.7647489044892062
vn 0.8223684237643673 0.47862371383101454 0.3076191088894142
vn 0.8625915386292221 0.4729244211788566 0.17966170804574566
vn 0.8619307259726711 0.47221061422918403 -0.18464170556383247
vn 0.8862020925463936 0.30632119742361524 -0.3475818970765825
vn 0.5242943877914699 0.4001333906826382 -0.7516705824968696
vn 0.2687709031059085 0.4066842046996306 -0.8731381100899578
vn -0.26390639947890493 0.41836429917392104 -0.8690941982839343
vn -0.5188795914054835 0.44159319268562497 -0.7319558878761717
vn -0.7880737259458068 0.5150696169576734 -0.33710991109869326
vn -0.8411137212772588 0.5116999129442324 -0.17518820443165362
vn -0.8415077176446919 0.5107184107087183 -0.17615750369366165
vn -0.6309932318847796 0.6955714351479871 -0.3435519173600548
vn -0.6196123797489239 0.6430949789814314 -0.45001038529210363
vn -0.5180356965458053 0.1465164990230472 -0.8427169943808727
vn -0.1800125040277132 0 -0.9836643220091256
vn 0.1800125040277132 0 -0.9836643220091256
vn 0.5180356965458053 0.1465164990230472 -0.8427169943808727
vn 0.5813264212222633 0.6955596253925316 -0.42220421541324904
vn 0.6902590100250284 0.7082552102863977 -0.14804410215012948
vn 0.8629605052409188 0.4718743028657799 0.1806483010971107
vn 0.861752328933391 0.47246431586302046 -0.18482530620552168
vn 0.7636060228244708 0.4764935142425702 -0.43572901302410366
vn 0.5377925970690627 0.3823555979161852 -0.7513875959049827
vn 0.2605534968345421 0.41839629491691405 -0.8700898894292995
vn -0.25883949070747997 0.4078309853585806 -0.8756003685653299
vn -0.5066786016371647 0.40256270130074867 -0.7623779024633726
vn -0.7945701589749771 0.42603277800319556 -0.43261337766342767
vn -0.42391441330824636 0.6429999201861534 -0.6378461200243563
vn -0.4088678105395696 0.6248449161069088 -0.6651285171453171
vn -0.17794700634157054 0.15097630538040482 -0.972389334653438
vn 0.17794700634157054 0.15097630538040482 -0.972389334653438
vn 0.3953760035691304 0.6557410059194922 -0.6431808058061088
vn 0.6575111807798668 0.6533851809004767 -0.3751890890326057
vn 0.4559961782731871 0.6214223703911389 -0.6371041696439492
vn 0.23839799369074713 0.5562238852794185 -0.7961038789309438
vn -0.2205361027617229 0.628335807868505 -0.7460281093423383
vn -0.14835009882934938 0.5663998955304622 -0.8106684936029055
vn 0.14069920542309902 0.6237456240416022 -0.7688596296348645
usemtl material_0_0
f 1//1 2//1 3//1
f 2//1 1//1 4//1
f 4//1 1//1 5//1
f 4//1 5//1 6//1
f 7//2 8//2 9//2
f 8//2 7//2 10//2
f 11//3 12//3 13//3
f 12//3 11//3 14//3
f 14//3 11//3 15//3
f 14//3 15//3 16//3
f 16//3 15//3 17//3
f 18//4 19//4 20//4
f 19//4 18//4 21//4
f 22//5 23//5 24//5
f 23//5 22//5 25//5
f 26//6 27//6 28//6
f 27//6 26//6 29//6
f 30//7 31//7 32//7
f 33//8 34//8 35//8
f 34//8 33//8 36//8
f 37//9 38//9 39//9
f 38//9 37//9 40//9
f 40//9 37//9 41//9
f 42//10 43//10 44//10
f 43//10 42//10 45//10
f 46//11 47//11 48//11
f 49//12 50//12 51//12
f 50//12 49//12 52//12
f 53//13 54//13 55//13
f 54//13 53//13 56//13
f 57//14 58//14 59//14
f 58//14 57//14 60//14
f 61//15 62//15 63//15
f 64//16 65//16 66//16
f 67//17 68//17 69//17
f 70//18 71//18 72//18
f 73//19 74//19 75//19
f 74//19 73//19 76//19
f 77//20 78//20 79//20
f 78//20 77//20 80//20
f 81//21 82//21 83//21
f 82//21 81//21 84//21
f 85//22 86//22 87//22
f 88//23 89//23 90//23
f 91//24 92//24 93//24
f 94//25 95//25 96//25
f 97//26 98//26 99//26
f 98//26 97//26 100//26
f 101//27 102//27 103//27
f 102//27 101//27 104//27
f 105//28 106//28 107//28
f 106//28 105//28 108//28
f 109//29 110//29 111//29
f 112//30 113//30 114//30
f 115//31 116//31 117//31
f 116//31 115//31 118//31
f 116//31 118//31 119//31
f 119//31 118//31 120//31
f 119//31 120//31 121//31
f 121//31 120//31 122//31
f 121//31 122//31 123//31
f 123//31 122//31 124//31
f 123//31 124//31 125//31
f 125//31 124//31 126//31
f 125//31 126//31 127//31
f 127//31 126//31 128//31
f 127//31 128//31 129//31
f 129//31 128//31 130//31
f 131//32 132//32 133//32
f 134//33 135//33 136//33
f 137//34 138//34 139//34
f 138//34 137//34 140//34
f 141//35 142//35 143//35
f 142//35 141//35 144//35
f 145//36 146//36 147//36
f 146//36 145//36 148//36
f 149//37 150//37 151//37
f 152//38 153//38 154//38
f 155//39 156//39 157//39
f 158//40 159//40 160//40
f 161//41 162//41 163//41
f 164//42 165//42 166//42
f 167//43 168//43 169//43
f 168//43 167//43 170//43
f 171//44 172//44 173//44
f 172//44 171//44 174//44
f 175//45 176//45 177//45
f 176//45 175//45 178//45
f 179//46 180//46 181//46
f 182//47 183//47 184//47
f 185//48 186//48 187//48
f 188//49 189//49 190//49
f 191//50 192//50 193//50
f 194//51 195//51 196//51
f 197//52 198//52 199//52
f 200//53 201//53 202//53
f 203//54 204//54 205//54
f 206//55 207//55 208//55
f 209//56 210//56 211//56
f 212//57 213//57 214//57
f 213//57 212//57 215//57
f 216//58 217//58 218//58
f 219//59 220//59 221//59
f 222//60 223//60 224//60
f 223//60 222//60 225//60
f 226//61 227//61 228//61
f 227//61 226//61 229//61
f 230//62 231//62 232//62
f 231//62 230//62 233//62
f 234//63 235//63 236//63
f 237//64 238//64 239//64
f 240//65 241//65 242//65
f 243//66 244//66 245//66
f 246//67 247//67 248//67
f 249//68 250//68 251//68
f 252//69 253//69 254//69
f 255//70 256//70 257//70
f 258//71 259//71 260//71
f 261//72 262//72 263//72
f 262//72 261//72 264//72
f 265//73 266//73 267//73
f 266//73 265//73 268//73
f 269//74 270//74 271//74
f 270//74 269//74 272//74
f 273//75 274//75 275//75
f 276//76 277//76 278//76
f 279//77 280//77 281//77
f 282//78 283//78 284//78
f 285//79 286//79 287//79
f 288//80 289//80 290//80
f 291//81 292//81 293//81
f 294//82 295//82 296//82
f 295//82 294//82 297//82
f 298//83 299//83 300//83
f 301//84 302//84 303//84
f 302//84 301//84 304//84
f 305//85 306//85 307//85
f 306//85 305//85 308//85
f 309//86 310//86 311//86
f 310//86 309//86 312//86
f 313//87 314//87 315//87
f 316//88 317//88 318//88
f 319//89 320//89 321//89
f 322//90 323//90 324//90
f 325//91 326//91 327//91
f 326//91 325//91 328//91
f 326//91 328//91 329//91
f 329//91 328//91 330//91
f 329//91 330//91 331//91
f 331//91 330//91 332//91
f 331//91 332//91 333//91
f 333//91 332//91 334//91
f 333//91 334//91 335//91
f 335//91 334//91 336//91
f 336//91 334//91 337//91
f 336//91 337//91 338//91
f 338//91 337//91 339//91
f 338//91 339//91 340//91
f 341//92 342//92 343//92
f 344//93 345//93 346//93
f 347//94 348//94 349//94
f 350//95 351//95 352//95
f 353//96 354//96 355//96
f 354//96 353//96 356//96
f 357//97 358//97 359//97
f 358//97 357//97 360//97
f 361//98 362//98 363//98
f 362//98 361//98 364//98
f 365//99 366//99 367//99
f 366//99 365//99 368//99
f 369//100 370//100 371//100
f 370//100 369//100 372//100
f 373//101 374//101 375//101
f 374//101 373//101 376//101
f 377//102 378//102 379//102
f 378//102 377//102 380//102
f 381//103 382//103 383//103
f 382//103 381//103 384//103
f 385//104 386//104 387//104
f 388//105 389//105 390//105
f 391//106 392//106 393//106
f 394//107 395//107 396//107
f 397//108 398//108 399//108
f 400//109 401//109 402//109
f 403//110 404//110 405//110
f 406//111 407//111 408//111
f 409//112 410//112 411//112
f 412//113 413//113 414//113
f 415//114 416//114 417//114
f 418//115 419//115 420//115
f 421//116 422//116 423//116
f 424//117 425//117 426//117
f 427//118 428//118 429//118
f 430//119 431//119 432//119
f 433//120 434//120 435//120
f 436//121 437//121 438//121
f 437//121 436//121 439//121
f 440//122 441//122 442//122
f 441//122 440//122 443//122
f 444//123 445//123 446//123
f 445//123 444//123 447//123
f 448//124 449//124 450//124
f 449//124 448//124 451//124
f 452//125 453//125 454//125
f 455//126 456//126 457//126
f 458//127 459//127 460//127
f 461//128 462//128 463//128
f 464//129 465//129 466//129
f 467//130 468//130 469//130
f 470//131 471//131 472//131
f 473//132 474//132 475//132
f 476//133 477//133 478//133
f 479//134 480//134 481//134
f 482//135 483//135 484//135
f 485//136 486//136 487//136
f 488//137 489//137 490//137
f 489//137 488//137 491//137
f 492//138 493//138 494//138
f 493//138 492//138 495//138
f 496//139 497//139 498//139
f 499//140 500//140 501//140
f 502//141 503//141 504//141
f 505//142 506//142 507//142
f 508//143 509//143 510//143
f 511//144 512//144 513//144
f 514//145 515//145 516//145
