# SSTK version 0.8.0
# 3
mtllib original_3.mtl
o #ID19
v -0.07045111 -0.08205984 0.25393661
v -0.06458173 -0.10463145 0.25403665
v -0.07064313 -0.10473637 0.25392770
v -0.06460471 -0.07891000 0.25387266
v -0.07080115 -0.07705945 0.25378525
v -0.06484296 -0.07561492 0.25384868
v -0.07180469 -0.07335967 0.25391435
v -0.06541682 -0.07249019 0.25388425
v -0.07245244 -0.07197808 0.25395333
v -0.06626260 -0.06999969 0.25397397
v -0.07361076 -0.07116806 0.25383255
v -0.07517836 -0.07073640 0.25393940
v -0.07714864 -0.07037898 0.25396489
v -0.09239417 -0.04964550 0.25390695
v -0.08662157 -0.10443993 0.25396245
v -0.09263595 -0.10457765 0.25400215
v -0.08641497 -0.07515729 0.25381050
v -0.08653180 -0.06956631 0.25389857
v -0.08201942 -0.07182943 0.25382353
v -0.07948648 -0.07072483 0.25393574
v -0.08653560 -0.04968070 0.25387719
v -0.06763753 -0.06783612 0.25381653
v -0.08381137 -0.06718385 0.25380279
v -0.06912477 -0.06629970 0.25381656
v -0.08135244 -0.06561028 0.25385672
v -0.07113407 -0.06509222 0.25386359
v -0.07859414 -0.06437714 0.25383821
v -0.07329113 -0.06422315 0.25393705
v -0.07563253 -0.06389546 0.25394712
v -0.07589472 -0.06414161 0.25381944
v -0.07866368 -0.06440722 0.25390780
v -0.07317122 -0.06439106 0.25378462
v -0.07097116 -0.06504202 0.25392130
v -0.08125587 -0.06551904 0.25396676
v -0.06900138 -0.06621232 0.25386735
v -0.08391826 -0.06713219 0.25396000
v -0.06758966 -0.06799108 0.25389553
v -0.08664416 -0.06946714 0.25377273
v -0.06640176 -0.07005137 0.25392206
v -0.08653556 -0.04967540 0.25377949
v -0.09261262 -0.04974776 0.25399380
v -0.07726129 -0.07047318 0.25389420
v -0.07973177 -0.07078744 0.25391180
v -0.08201679 -0.07170705 0.25407997
v -0.08655642 -0.07514815 0.25374349
v -0.08653432 -0.10459255 0.25392207
v -0.09268016 -0.10471276 0.25389621
v -0.07530381 -0.07053572 0.25376895
v -0.07386450 -0.07116604 0.25387487
v -0.07260871 -0.07189048 0.25396311
v -0.06527091 -0.07257358 0.25387305
v -0.07173780 -0.07326851 0.25396476
v -0.06462681 -0.07548415 0.25383931
v -0.07071870 -0.07699890 0.25392845
v -0.06439261 -0.07893373 0.25391697
v -0.07071464 -0.08197002 0.25384400
v -0.06455957 -0.10448166 0.25376441
v -0.07058041 -0.10455241 0.25382964
v -0.06459300 -0.10461960 0.25403637
v -0.07051834 -0.10442531 0.33108528
v -0.07051499 -0.10462256 0.25402248
v -0.06459060 -0.10464532 0.33092284
v -0.06457162 -0.10455157 0.33098943
v -0.06464694 -0.10467136 0.25384789
v -0.07046430 -0.10457808 0.33110438
v -0.07054891 -0.10475916 0.25390255
v -0.07057779 -0.08212279 0.25396467
v -0.07062912 -0.10453873 0.33102822
v -0.07062605 -0.08217500 0.33100522
v -0.07066385 -0.10454979 0.25382446
v -0.07057846 -0.10447160 0.25393513
v -0.07040556 -0.08206081 0.25389025
v -0.07050920 -0.10458829 0.33110937
v -0.07065585 -0.08204006 0.33101065
v -0.07096675 -0.07717057 0.25387446
v -0.07070205 -0.07714523 0.33102049
v -0.07079645 -0.07722456 0.25376082
v -0.07086956 -0.07691378 0.33105759
v -0.07175734 -0.07326836 0.25385173
v -0.07177706 -0.07330119 0.33120015
v -0.07169779 -0.07335010 0.25383948
v -0.07178464 -0.07324877 0.33107447
v -0.07254222 -0.07214560 0.25380133
v -0.07268388 -0.07208046 0.33097526
v -0.07256737 -0.07194713 0.25375201
v -0.07270162 -0.07201551 0.33107176
v -0.07366192 -0.07113598 0.33101908
v -0.07380684 -0.07096051 0.25388821
v -0.07372846 -0.07113819 0.33098047
v -0.07362076 -0.07129455 0.25395119
v -0.07528703 -0.07063114 0.33107258
v -0.07535420 -0.07050527 0.25404622
v -0.07524094 -0.07053462 0.33104237
v -0.07533744 -0.07049264 0.25371536
v -0.07727360 -0.07031470 0.33109847
v -0.07730627 -0.07032347 0.25399710
v -0.07730723 -0.07025051 0.33091947
v -0.07736493 -0.07037948 0.25380350
v -0.07949730 -0.07065510 0.33098563
v -0.07948642 -0.07074696 0.25384422
v -0.07965016 -0.07078559 0.33089018
v -0.07963094 -0.07070000 0.25398048
v -0.08193276 -0.07175465 0.33118572
v -0.08203565 -0.07157578 0.25374914
v -0.08184865 -0.07182604 0.33101207
v -0.08193705 -0.07181503 0.25387727
v -0.08661414 -0.07505192 0.33100976
v -0.08661375 -0.07516277 0.25392508
v -0.08650692 -0.07526200 0.33103920
v -0.08667503 -0.07500701 0.25378472
v -0.08653568 -0.10475213 0.33115227
v -0.08664653 -0.07516416 0.25384538
v -0.08652082 -0.07510824 0.33106973
v -0.08651175 -0.10454578 0.25394905
v -0.08651614 -0.10462726 0.25370791
v -0.08659471 -0.10458424 0.33096985
v -0.08657345 -0.07508568 0.25390850
v -0.08649826 -0.07527179 0.33097530
v -0.08649736 -0.10467309 0.25390230
v -0.09258651 -0.10448257 0.33114223
v -0.09249375 -0.10446926 0.25388415
v -0.08650702 -0.10465933 0.33115353
v -0.08657824 -0.10470446 0.33102640
v -0.08653354 -0.10467310 0.25385502
v -0.09263200 -0.10458900 0.33099157
v -0.09253947 -0.10461571 0.25394729
v -0.09256560 -0.04967152 0.25394634
v -0.09243369 -0.10461569 0.33092131
v -0.09260297 -0.04964341 0.33114540
v -0.09247814 -0.10454476 0.25390639
v -0.09262440 -0.10477443 0.25404578
v -0.09248385 -0.04957028 0.25381546
v -0.09252163 -0.10459639 0.33097329
v -0.09257446 -0.04964282 0.33108349
v -0.08649099 -0.04977547 0.33107793
v -0.09247984 -0.04964612 0.25385055
v -0.09254315 -0.04981805 0.33118780
v -0.08646703 -0.04972060 0.25384915
v -0.08640720 -0.04965938 0.25385661
v -0.08651790 -0.04968741 0.33122824
v -0.09254543 -0.04952247 0.25382373
v -0.09256259 -0.04966308 0.33102229
v -0.08665454 -0.06956126 0.33109073
v -0.08642886 -0.04967061 0.25398591
v -0.08652490 -0.04974585 0.33107645
v -0.08662643 -0.06961899 0.25374067
v -0.08655010 -0.06950027 0.25386335
v -0.08657293 -0.06961331 0.33103103
v -0.08660805 -0.04959172 0.25376507
v -0.08657805 -0.04949821 0.33103746
v -0.08382019 -0.06725941 0.33104308
v -0.08652150 -0.06946212 0.25386890
v -0.08657676 -0.06964327 0.33107035
v -0.08398147 -0.06707675 0.25387255
v -0.08388413 -0.06722803 0.25381695
v -0.08380107 -0.06730125 0.33098378
v -0.08655203 -0.06950194 0.25384013
v -0.08648588 -0.06962994 0.33115342
v -0.08122306 -0.06538579 0.33110488
v -0.08125639 -0.06548643 0.25375276
v -0.08110611 -0.06544881 0.25390410
v -0.08138056 -0.06552681 0.33105364
v -0.07846610 -0.06446364 0.33097701
v -0.07867444 -0.06431988 0.25395055
v -0.07871357 -0.06447974 0.25387479
v -0.07856651 -0.06444028 0.33106076
v -0.07587921 -0.06405246 0.33092249
v -0.07565786 -0.06409656 0.25384695
v -0.07559222 -0.06414530 0.25385327
v -0.07581079 -0.06410922 0.33105790
v -0.07314678 -0.06422904 0.33114264
v -0.07315145 -0.06424685 0.25401091
v -0.07325358 -0.06434760 0.25393971
v -0.07308813 -0.06437453 0.33113336
v -0.07099412 -0.06491503 0.33109142
v -0.07097418 -0.06504644 0.25382894
v -0.07105183 -0.06499885 0.25393692
v -0.07105338 -0.06497615 0.33109458
v -0.06903815 -0.06620959 0.33104314
v -0.06914986 -0.06628504 0.25403180
v -0.06913893 -0.06624740 0.25397404
v -0.06900774 -0.06609668 0.33105786
v -0.06747191 -0.06791126 0.25376351
v -0.06749809 -0.06784418 0.33091098
v -0.06768475 -0.06804050 0.25393934
v -0.06762824 -0.06790900 0.33101555
v -0.06621005 -0.07017210 0.25396167
v -0.06627356 -0.07020924 0.33095266
v -0.06618331 -0.06995173 0.25393606
v -0.06631851 -0.06996830 0.33093965
v -0.06511656 -0.07259013 0.25388297
v -0.06522548 -0.07243543 0.33090292
v -0.06520656 -0.07253145 0.25392491
v -0.06530253 -0.07266112 0.33102852
v -0.06475858 -0.07576922 0.25400445
v -0.06488534 -0.07549132 0.33099875
v -0.06464606 -0.07554198 0.25398892
v -0.06485152 -0.07573477 0.33096871
v -0.06459911 -0.07908955 0.25379760
v -0.06451136 -0.07912068 0.33090544
v -0.06470193 -0.07898429 0.25389882
v -0.06470726 -0.07899375 0.33094378
v -0.06472378 -0.10459688 0.33106797
v -0.06465778 -0.10460725 0.25385983
v -0.06454812 -0.10459553 0.25395342
v -0.06454937 -0.10447166 0.33104840
v -0.06464632 -0.07890209 0.33102939
v -0.07042931 -0.10454099 0.33087950
v -0.06458425 -0.10461681 0.33101366
v -0.07048361 -0.08217681 0.33097863
v -0.07082669 -0.07703752 0.33095823
v -0.06478416 -0.07557871 0.33115932
v -0.07161291 -0.07333081 0.33108430
v -0.06531654 -0.07248283 0.33107052
v -0.07258348 -0.07205836 0.33116248
v -0.06628965 -0.07018435 0.33104316
v -0.07383220 -0.07107591 0.33091306
v -0.07530839 -0.07066700 0.33095454
v -0.07737943 -0.07044970 0.33106926
v -0.06770687 -0.06795030 0.33100575
v -0.08662185 -0.06951498 0.33113841
v -0.08396436 -0.06730963 0.33095905
v -0.06914909 -0.06625648 0.33092867
v -0.08128982 -0.06557981 0.33115153
v -0.07109401 -0.06502053 0.33099652
v -0.07862150 -0.06437433 0.33099434
v -0.07334854 -0.06447227 0.33116230
v -0.07560406 -0.06393139 0.33111969
v -0.08643927 -0.07518089 0.33104043
v -0.09253977 -0.10445682 0.33109979
v -0.08640950 -0.10461038 0.33106842
v -0.09242353 -0.04961100 0.33107487
v -0.08199269 -0.07165704 0.33108495
v -0.07962353 -0.07060873 0.33115660
v -0.08638744 -0.04967963 0.33119571
v -0.08665645 -0.04974376 0.33090204
v -0.08638280 -0.06953640 0.33101235
v -0.09240510 -0.04960776 0.33097684
v -0.06612372 -0.07000689 0.33102614
v -0.07738998 -0.07041842 0.33101818
v -0.07951233 -0.07063465 0.33104982
v -0.08187066 -0.07172092 0.33108414
v -0.08642026 -0.07504117 0.33113625
v -0.09261787 -0.10462092 0.33104685
v -0.08658089 -0.10462390 0.33107941
v -0.07578830 -0.06409181 0.33114792
v -0.07319267 -0.06441736 0.33106569
v -0.07869576 -0.06442088 0.33111780
v -0.07102672 -0.06503791 0.33117117
v -0.08112643 -0.06557697 0.33096925
v -0.06911318 -0.06619575 0.33117398
v -0.08383978 -0.06719535 0.33102420
v -0.06757211 -0.06786448 0.33109133
v -0.07520654 -0.07062386 0.33105031
v -0.07377747 -0.07110768 0.33107810
v -0.07259650 -0.07203638 0.33103350
v -0.06529637 -0.07250407 0.33115602
v -0.07185101 -0.07331842 0.33113724
v -0.06464752 -0.07569455 0.33106737
v -0.07076927 -0.07721679 0.33103262
v -0.06441545 -0.07898454 0.33114405
v -0.07055542 -0.08212231 0.33102493
v -0.07054322 -0.10465510 0.33118349
v -0.06474311 -0.10464243 0.33087248
vn 0 0 -1
vn 0 0 1
vn 0 -1 0
vn 0 1 0
vn -0.9997222604148628 -0.02356696906683912 0
vn -1 0 0
vn 1 0 0
vn 0.9997222604148628 0.02356696906683912 0
vn -0.9899253732803456 -0.14159009617825896 0
vn 0.9899253732803456 0.14159009617825896 0
vn -0.9145907461598625 -0.4043807204093017 0
vn 0.9145907461598625 0.4043807204093017 0
vn -0.7314786955496179 -0.6818642958514762 0
vn 0.7314786955496179 0.6818642958514762 0
vn -0.4809837922963977 -0.8767294859579982 0
vn 0.4809837922963977 0.8767294859579982 0
vn -0.21185699505637107 -0.9773006771949382 0
vn 0.21185699505637107 0.9773006771949382 0
vn 0.027910970362361138 -0.9996104129776917 0
vn -0.027910970362361138 0.9996104129776917 0
vn 0.26991440559885477 -0.9628843199731817 0
vn -0.26991440559885477 0.9628843199731817 0
vn 0.4969819781594291 -0.8677608618650304 0
vn -0.4969819781594291 0.8677608618650304 0
vn 0.5961026980404525 -0.802908197360628 0
vn -0.5961026980404525 0.802908197360628 0
vn -0.6054976784189429 0.7958470716345385 0
vn -0.6602251984490222 0.7510676982356181 0
vn 0.6054976784189429 -0.7958470716345385 0
vn 0.6602251984490222 -0.7510676982356181 0
vn -0.4597528152390935 0.8880469294354482 0
vn 0.4597528152390935 -0.8880469294354482 0
vn -0.24738710633492828 0.9689167248113899 0
vn 0.24738710633492828 -0.9689167248113899 0
vn -0.014083820254731014 0.9999008180849901 0
vn 0.014083820254731014 -0.9999008180849901 0
vn 0.20442800061302235 0.9788816029353921 0
vn -0.20442800061302235 -0.9788816029353921 0
vn 0.4237307885321756 0.9057881754858037 0
vn -0.4237307885321756 -0.9057881754858037 0
vn 0.6288532863234191 0.7775239830900627 0
vn -0.6288532863234191 -0.7775239830900627 0
vn 0.7909932194955112 0.6118249150795724 0
vn -0.7909932194955112 -0.6118249150795724 0
vn 0.9018081105004282 0.43213670503169177 0
vn -0.9018081105004282 -0.43213670503169177 0
vn 0.9650004597577977 0.2622481890637931 0
vn -0.9650004597577977 -0.2622481890637931 0
vn 0.9929416597991044 0.11860379519812797 0
vn -0.9929416597991044 -0.11860379519812797 0
vn 0.9996343788747667 0.027039019428585484 0
vn -0.9996343788747667 -0.027039019428585484 0
usemtl material_0_0
f 1//1 2//1 3//1
f 2//1 1//1 4//1
f 4//1 1//1 5//1
f 4//1 5//1 6//1
f 6//1 5//1 7//1
f 6//1 7//1 8//1
f 8//1 7//1 9//1
f 8//1 9//1 10//1
f 10//1 9//1 11//1
f 10//1 11//1 12//1
f 10//1 12//1 13//1
f 14//1 15//1 16//1
f 15//1 14//1 17//1
f 17//1 14//1 18//1
f 17//1 18//1 19//1
f 19//1 18//1 20//1
f 20//1 18//1 13//1
f 13//1 18//1 10//1
f 18//1 14//1 21//1
f 18//1 22//1 10//1
f 22//1 18//1 23//1
f 22//1 23//1 24//1
f 24//1 23//1 25//1
f 24//1 25//1 26//1
f 26//1 25//1 27//1
f 26//1 27//1 28//1
f 28//1 27//1 29//1
f 30//2 31//2 32//2
f 32//2 31//2 33//2
f 31//2 34//2 33//2
f 33//2 34//2 35//2
f 34//2 36//2 35//2
f 35//2 36//2 37//2
f 36//2 38//2 37//2
f 39//2 37//2 38//2
f 40//2 41//2 38//2
f 39//2 38//2 42//2
f 42//2 38//2 43//2
f 43//2 38//2 44//2
f 44//2 38//2 45//2
f 38//2 41//2 45//2
f 45//2 41//2 46//2
f 47//2 46//2 41//2
f 42//2 48//2 39//2
f 48//2 49//2 39//2
f 49//2 50//2 39//2
f 39//2 50//2 51//2
f 50//2 52//2 51//2
f 51//2 52//2 53//2
f 52//2 54//2 53//2
f 53//2 54//2 55//2
f 54//2 56//2 55//2
f 55//2 56//2 57//2
f 58//2 57//2 56//2
f 59//3 60//3 61//3
f 60//3 59//3 62//3
f 63//4 64//4 65//4
f 66//4 65//4 64//4
f 67//5 68//6 69//5
f 68//6 67//5 70//6
f 71//7 72//8 73//7
f 74//8 73//7 72//8
f 75//9 69//5 76//9
f 69//5 75//9 67//5
f 72//8 77//10 74//8
f 78//10 74//8 77//10
f 79//11 76//9 80//11
f 76//9 79//11 75//9
f 77//10 81//12 78//10
f 82//12 78//10 81//12
f 83//13 80//11 84//13
f 80//11 83//13 79//11
f 81//12 85//14 82//12
f 86//14 82//12 85//14
f 83//13 87//15 88//15
f 87//15 83//13 84//13
f 86//14 85//14 89//16
f 90//16 89//16 85//14
f 88//15 91//17 92//17
f 91//17 88//15 87//15
f 89//16 90//16 93//18
f 94//18 93//18 90//16
f 92//17 95//19 96//19
f 95//19 92//17 91//17
f 93//18 94//18 97//20
f 98//20 97//20 94//18
f 96//19 99//21 100//21
f 99//21 96//19 95//19
f 97//20 98//20 101//22
f 102//22 101//22 98//20
f 100//21 103//23 104//23
f 103//23 100//21 99//21
f 101//22 102//22 105//24
f 106//24 105//24 102//22
f 104//23 107//25 108//25
f 107//25 104//23 103//23
f 105//24 106//24 109//26
f 110//26 109//26 106//24
f 111//7 112//7 113//7
f 112//7 111//7 114//7
f 115//6 116//6 117//6
f 118//6 117//6 116//6
f 119//3 120//3 121//3
f 120//3 119//3 122//3
f 123//4 124//4 125//4
f 126//4 125//4 124//4
f 127//6 128//6 129//6
f 128//6 127//6 130//6
f 131//7 132//7 133//7
f 134//7 133//7 132//7
f 135//4 136//4 137//4
f 136//4 135//4 138//4
f 139//3 140//3 141//3
f 142//3 141//3 140//3
f 143//7 144//7 145//7
f 144//7 143//7 146//7
f 147//6 148//6 149//6
f 150//6 149//6 148//6
f 151//27 152//28 153//28
f 152//28 151//27 154//27
f 155//29 156//29 157//30
f 158//30 157//30 156//29
f 159//31 154//27 151//27
f 154//27 159//31 160//31
f 161//32 162//32 155//29
f 156//29 155//29 162//32
f 163//33 160//31 159//31
f 160//31 163//33 164//33
f 165//34 166//34 161//32
f 162//32 161//32 166//34
f 167//35 164//33 163//33
f 164//33 167//35 168//35
f 169//36 170//36 165//34
f 166//34 165//34 170//36
f 171//37 168//35 167//35
f 168//35 171//37 172//37
f 173//38 174//38 169//36
f 170//36 169//36 174//38
f 175//39 172//37 171//37
f 172//37 175//39 176//39
f 177//40 178//40 173//38
f 174//38 173//38 178//40
f 179//41 176//39 175//39
f 176//39 179//41 180//41
f 181//42 182//42 177//40
f 178//40 177//40 182//42
f 183//43 179//41 184//43
f 179//41 183//43 180//41
f 181//42 185//44 182//42
f 186//44 182//42 185//44
f 187//45 184//43 188//45
f 184//43 187//45 183//43
f 185//44 189//46 186//44
f 190//46 186//44 189//46
f 191//47 188//45 192//47
f 188//45 191//47 187//45
f 189//46 193//48 190//46
f 194//48 190//46 193//48
f 195//49 192//47 196//49
f 192//47 195//49 191//47
f 193//48 197//50 194//48
f 198//50 194//48 197//50
f 199//51 196//49 200//51
f 196//49 199//51 195//49
f 197//50 201//52 198//50
f 202//52 198//50 201//52
f 203//7 199//51 200//51
f 199//51 203//7 204//7
f 205//6 206//6 201//52
f 202//52 201//52 206//6
f 207//2 208//2 209//2
f 208//2 207//2 210//2
f 210//2 207//2 211//2
f 211//2 207//2 212//2
f 211//2 212//2 213//2
f 213//2 212//2 214//2
f 213//2 214//2 215//2
f 215//2 214//2 216//2
f 215//2 216//2 217//2
f 217//2 216//2 218//2
f 218//2 216//2 219//2
f 220//2 221//2 216//2
f 221//2 220//2 222//2
f 222//2 220//2 223//2
f 222//2 223//2 224//2
f 224//2 223//2 225//2
f 224//2 225//2 226//2
f 226//2 225//2 227//2
f 226//2 227//2 228//2
f 229//2 230//2 231//2
f 230//2 229//2 232//2
f 232//2 229//2 221//2
f 221//2 229//2 233//2
f 221//2 233//2 234//2
f 221//2 234//2 219//2
f 221//2 219//2 216//2
f 232//2 221//2 235//2
f 236//1 237//1 238//1
f 239//1 240//1 237//1
f 240//1 241//1 237//1
f 241//1 242//1 237//1
f 242//1 243//1 237//1
f 237//1 243//1 238//1
f 238//1 243//1 244//1
f 245//1 244//1 243//1
f 246//1 247//1 248//1
f 247//1 249//1 248//1
f 248//1 249//1 250//1
f 249//1 251//1 250//1
f 250//1 251//1 252//1
f 251//1 253//1 252//1
f 252//1 253//1 237//1
f 239//1 237//1 253//1
f 240//1 239//1 254//1
f 254//1 239//1 255//1
f 255//1 239//1 256//1
f 239//1 257//1 256//1
f 256//1 257//1 258//1
f 257//1 259//1 258//1
f 258//1 259//1 260//1
f 259//1 261//1 260//1
f 260//1 261//1 262//1
f 262//1 261//1 263//1
f 264//1 263//1 261//1
