# SSTK version 0.8.0
# 11
mtllib original_11.mtl
o #ID69
v 0.03786897 0.93286447 0.29200549
v -0.04036574 0.91717754 0.33735240
v -0.04803244 0.93286176 0.29210441
v 0.02977163 0.91703711 0.33717309
v -0.04685363 0.96274760 0.29797566
v -0.03783323 0.94029444 0.35194128
v 0.03789614 0.94261834 0.23155293
v -0.04781751 0.94257511 0.23164617
v 0.03678575 0.96279921 0.29801000
v 0.02697088 0.94054080 0.35185242
v -0.00502942 0.92001702 0.33905847
v 0.00322385 0.92272351 0.34087574
v 0.00651610 0.92923285 0.34503453
v 0.00316540 0.93568785 0.34901785
v -0.00500767 0.93841804 0.35068814
v -0.01319408 0.92276906 0.34079199
v -0.01660010 0.92920337 0.34499469
v -0.01336596 0.93586406 0.34893076
v 0.04842203 0.93048809 0.17200703
v -0.05821845 0.93045091 0.17198973
v 0.03797521 0.97048733 0.23155445
v -0.04785147 0.97048003 0.23166796
v 0.05880041 0.92529060 0.11234944
v -0.06880095 0.92533840 0.11254775
v 0.04840773 0.96180322 0.16829692
v -0.05825923 0.96181009 0.16841978
v -0.00486058 0.92515990 -0.11367953
v -0.08763063 0.92518326 -0.00643268
v -0.08931223 0.92528202 -0.11357771
v -0.07964737 0.92516681 0.05297399
v 0.07933183 0.92528021 -0.11374812
v 0.06981082 0.92518623 0.05298301
v 0.07710645 0.92531108 -0.00658709
v 0.05850200 0.95633824 0.11263359
v -0.06866040 0.95635945 0.11246237
v -0.08353468 0.93172327 -0.14113405
v 0.07315735 0.93155154 -0.14111376
v 0.07699249 0.95614049 -0.00639768
v 0.07928087 0.95631023 -0.11363371
v 0.06988516 0.95644730 0.05303603
v -0.07963138 0.95644712 0.05291330
v -0.08741260 0.95626552 -0.00647349
v -0.08942808 0.95618886 -0.11367958
v -0.00494320 0.95634836 -0.11367592
v -0.08366172 0.95789716 -0.14096797
v -0.06700629 0.93806281 -0.16559210
v 0.07321691 0.95771227 -0.14101289
v 0.05702917 0.93801630 -0.16539329
v -0.06713596 0.95986807 -0.16566573
v -0.04096497 0.94132378 -0.17881601
v 0.05712755 0.95987120 -0.16551533
v 0.03202717 0.94157183 -0.17936522
v -0.04115935 0.96104994 -0.17874212
v -0.00505452 0.94299026 -0.18501583
v 0.03207593 0.96111598 -0.17942936
v -0.00500157 0.96131021 -0.18501366
vn 0.7541802013261353 -0.6507709011443025 -0.08780352015439208
vn -0.5637364873600417 -0.7656254828333373 0.3098689930521949
vn -0.7537703826006582 -0.6497029850028543 -0.09857099772467795
vn 0.5608827328600757 -0.7660344448791673 0.31400921839665585
vn -0.6801185877857572 0.6959928875006708 0.23028809586425858
vn -0.49637078458511363 0.2560797920473946 0.8294812742403059
vn 0.7284544170022157 -0.6803099158785172 0.08082438188645087
vn -0.7282505045445528 -0.6795905042408963 0.08836260055141519
vn 0.6782505994712087 0.6951443994580375 0.23822339981427165
vn 0.4891824021498882 0.2567534011283951 0.8335336036632636
vn 0.00000132991997481141 0.21837029586408183 0.9758659815171674
vn -0.4847483867147109 -0.00916040574894492 0.874605676030061
vn -0.5778024833489633 -0.4691549864799529 0.6678606807536778
vn -0.33953379780847576 -0.7842546949380205 0.5192892966482419
vn 0.0000010627189925634062 -0.8825517938241633 0.4702151967095727
vn 0.4847503831647273 -0.009160393681861764 0.8746045696251783
vn 0.5778040862363197 -0.46915428882443083 0.6678597840911326
vn 0.33953570906483793 -0.784254120937817 0.5192889138638431
vn 0.6816964755541433 -0.6982993749587578 0.21832979217062265
vn -0.6827511860152862 -0.6986406856898234 0.21389719561876824
vn 0.6586344914871658 0.7512979902894924 0.04185613945901062
vn -0.6587898878199568 0.7508693861175442 0.04680863913457819
vn 0.6827348910627716 -0.7149284906413466 0.15083209802555714
vn -0.6833416014951924 -0.7138094015618578 0.15336360033556856
vn 0.699198913211111 0.7137314134856975 0.0413321807809568
vn -0.7002904555440386 0.7129245547419985 0.03649461768324244
vn 0.000004188891089231661 -0.9927415211473569 -0.12026750256193577
vn -0.7174769143763955 -0.6945534139170674 0.05312657106451995
vn -0.700907593017415 -0.7001603930248588 -0.13602929864484842
vn -0.7041661020959821 -0.7012241020872251 0.11151170033191944
vn 0.7025329884817538 -0.6979740885564985 -0.13885089772349665
vn 0.7055595337225362 -0.7002711334697748 0.10865580519325306
vn 0.716170090100323 -0.6960091903790087 0.05168760928551785
vn 0.708031309608957 0.6993346094909308 0.09809571133129363
vn -0.7087219538001147 0.6981688544880459 0.10135799339271553
vn -0.6651718251718018 -0.6223077235497145 -0.4126494156157086
vn 0.6616296923153102 -0.6249156927417354 -0.4143989951868429
vn 0.716170090100323 0.6960091903790087 0.05168760928551815
vn 0.7356955903331217 0.6747852911334697 -0.05845347923193399
vn 0.7055595337225362 0.7002711334697748 0.10865580519325337
vn -0.7041802894392885 0.7012094894838422 0.11151399832760577
vn -0.7174769143763953 0.6945534139170673 0.05312657106452024
vn -0.7341379990255693 0.6768425991016181 -0.05408783992820837
vn -0.000005024904971122027 0.9993861942565586 0.035031909798672926
vn -0.6956707750639841 0.6712806759382367 -0.2557819908316058
vn -0.47804899847385485 -0.5759974981611596 -0.6630957978831032
vn 0.6932546941797074 0.6740345943410719 -0.25509859785829275
vn 0.48960278603914076 -0.5797806834677481 -0.6512629814294546
vn -0.51025039879897 0.6742586984129266 -0.5338723987433684
vn -0.21556909671748306 -0.5842548911034251 -0.78241688808597
vn 0.5232989329987555 0.6758531426186856 -0.5190190327288688
vn 0.22390890943086209 -0.5778404243381708 -0.7848345330565956
vn -0.24096730995824298 0.7007282289583762 -0.6715018277505623
vn -0.007103741095520295 -0.5761541077472431 -0.8173102109899435
vn 0.248069986404748 0.6951881619008395 -0.674666363025518
vn -0.007911334936296617 0.6986593943742787 -0.7154106942393942
usemtl material_0_0
f 1//1 2//2 3//3
f 2//2 1//1 4//4
f 5//5 2//2 6//6
f 2//2 5//5 3//3
f 7//7 3//3 8//8
f 3//3 7//7 1//1
f 4//4 9//9 10//10
f 9//9 4//4 1//1
f 4//4 11//11 2//2
f 11//11 4//4 12//12
f 12//12 4//4 10//10
f 12//12 10//10 13//13
f 13//13 10//10 14//14
f 14//14 10//10 15//15
f 2//2 16//16 6//6
f 16//16 2//2 11//11
f 6//6 16//16 17//17
f 6//6 17//17 18//18
f 6//6 18//18 15//15
f 6//6 15//15 10//10
f 8//8 3//3 5//5
f 6//6 9//9 5//5
f 9//9 6//6 10//10
f 19//19 8//8 20//20
f 8//8 19//19 7//7
f 21//21 1//1 7//7
f 21//21 9//9 1//1
f 8//8 5//5 22//22
f 5//5 21//21 22//22
f 21//21 5//5 9//9
f 23//23 20//20 24//24
f 20//20 23//23 19//19
f 25//25 7//7 19//19
f 20//20 8//8 22//22
f 25//25 21//21 7//7
f 22//22 25//25 26//26
f 25//25 22//22 21//21
f 27//27 28//28 29//29
f 28//28 27//27 30//30
f 30//30 27//27 24//24
f 24//24 27//27 23//23
f 23//23 27//27 31//31
f 23//23 31//31 32//32
f 32//32 31//31 33//33
f 34//34 19//19 23//23
f 24//24 20//20 26//26
f 34//34 25//25 19//19
f 26//26 20//20 22//22
f 26//26 34//34 35//35
f 34//34 26//26 25//25
f 27//27 29//29 36//36
f 31//31 27//27 37//37
f 31//31 38//38 33//33
f 38//38 31//31 39//39
f 33//33 40//40 32//32
f 40//40 33//33 38//38
f 32//32 34//34 23//23
f 34//34 32//32 40//40
f 35//35 24//24 26//26
f 24//24 35//35 41//41
f 24//24 41//41 30//30
f 42//42 30//30 41//41
f 30//30 42//42 28//28
f 43//43 28//28 42//42
f 28//28 43//43 29//29
f 42//42 44//44 43//43
f 44//44 42//42 41//41
f 44//44 41//41 35//35
f 44//44 35//35 34//34
f 44//44 34//34 39//39
f 39//39 34//34 40//40
f 39//39 40//40 38//38
f 45//45 29//29 43//43
f 29//29 45//45 36//36
f 27//27 36//36 46//46
f 37//37 39//39 31//31
f 39//39 37//37 47//47
f 37//37 27//27 48//48
f 39//39 47//47 44//44
f 44//44 45//45 43//43
f 49//49 36//36 45//45
f 36//36 49//49 46//46
f 27//27 46//46 50//50
f 48//48 47//47 37//37
f 47//47 48//48 51//51
f 48//48 27//27 52//52
f 47//47 51//51 44//44
f 44//44 49//49 45//45
f 49//49 50//50 46//46
f 50//50 49//49 53//53
f 27//27 50//50 54//54
f 52//52 51//51 48//48
f 51//51 52//52 55//55
f 52//52 27//27 54//54
f 51//51 55//55 44//44
f 44//44 53//53 49//49
f 53//53 54//54 50//50
f 54//54 53//53 56//56
f 54//54 55//55 52//52
f 55//55 54//54 56//56
f 55//55 56//56 44//44
f 56//56 53//53 44//44
