# SSTK version 0.8.0
# 6
mtllib original_6.mtl
o #ID37
v 0.07065924 -0.10009166 0.25387985
v 0.08019633 -0.09967422 0.25389549
v 0.08242745 -0.09985672 0.25400042
v 0.06883661 -0.09712763 0.25391384
v 0.07813298 -0.09910340 0.25376231
v 0.07660022 -0.09787430 0.25394478
v 0.07520463 -0.09607344 0.25380823
v 0.06744631 -0.09349196 0.25394712
v 0.07419776 -0.09406498 0.25374560
v 0.07311152 -0.09142969 0.25381259
v 0.06662288 -0.08951378 0.25399318
v 0.07264912 -0.08496202 0.25401418
v 0.06646812 -0.08490177 0.25403463
v 0.06667604 -0.08016863 0.25387958
v 0.07321859 -0.07831057 0.25386174
v 0.06766016 -0.07609938 0.25381868
v 0.07402546 -0.07570794 0.25405604
v 0.06880646 -0.07255982 0.25396030
v 0.07522493 -0.07364527 0.25397993
v 0.07654335 -0.07186562 0.25386291
v 0.07083403 -0.06952459 0.25395774
v 0.07830245 -0.07071025 0.25376701
v 0.08027477 -0.07004702 0.25386111
v 0.08232794 -0.06969048 0.25406472
v 0.07881514 -0.10540263 0.25391726
v 0.08586401 -0.10536899 0.25389179
v 0.08253907 -0.10578324 0.25381983
v 0.08884259 -0.10445798 0.25384039
v 0.07589298 -0.10438784 0.25399893
v 0.09155420 -0.10267222 0.25389399
v 0.07299909 -0.10269776 0.25385629
v 0.09383831 -0.10015714 0.25381707
v 0.08470512 -0.09972459 0.25403161
v 0.09571459 -0.09722056 0.25396278
v 0.08639527 -0.09898971 0.25393516
v 0.08810750 -0.09776361 0.25384136
v 0.08954952 -0.09608768 0.25404426
v 0.09701158 -0.09382053 0.25384658
v 0.09056434 -0.09415933 0.25397204
v 0.09141033 -0.09158920 0.25396566
v 0.09800767 -0.08959086 0.25392324
v 0.09203548 -0.08486222 0.25392842
v 0.09836643 -0.08470437 0.25391462
v 0.09141057 -0.07815973 0.25388986
v 0.09788596 -0.08022461 0.25387301
v 0.09727466 -0.07614854 0.25390136
v 0.09072962 -0.07565152 0.25385592
v 0.09592751 -0.07240138 0.25376039
v 0.08972372 -0.07350330 0.25387222
v 0.08822354 -0.07185017 0.25392100
v 0.09372431 -0.06942975 0.25389404
v 0.08663883 -0.07069425 0.25385475
v 0.08458233 -0.06994326 0.25393228
v 0.07311877 -0.06719604 0.25381414
v 0.09148993 -0.06717736 0.25387950
v 0.07598432 -0.06540196 0.25382149
v 0.08887325 -0.06549855 0.25405768
v 0.07901664 -0.06439949 0.25392625
v 0.08578227 -0.06427223 0.25372024
v 0.08232370 -0.06402249 0.25394123
v 0.08241963 -0.06415740 0.25378382
v 0.07885198 -0.06441223 0.25389810
v 0.08592750 -0.06446185 0.25383331
v 0.08882410 -0.06545055 0.25385056
v 0.07590155 -0.06536007 0.25378285
v 0.09156356 -0.06718131 0.25396514
v 0.07316709 -0.06726792 0.25384813
v 0.09392224 -0.06959244 0.25385209
v 0.07084301 -0.06953842 0.25400400
v 0.08243387 -0.06972353 0.25385359
v 0.08451102 -0.07009580 0.25397782
v 0.08652044 -0.07078574 0.25390858
v 0.08819649 -0.07174856 0.25382376
v 0.09565143 -0.07248171 0.25376303
v 0.08958706 -0.07351747 0.25381916
v 0.09075195 -0.07559703 0.25380529
v 0.09705261 -0.07606604 0.25383008
v 0.09154461 -0.07821872 0.25372886
v 0.09806173 -0.08026615 0.25379998
v 0.09837453 -0.08485306 0.25394378
v 0.09195206 -0.08490073 0.25396132
v 0.09785306 -0.08953156 0.25377286
v 0.09148888 -0.09163965 0.25398761
v 0.09709038 -0.09372159 0.25373055
v 0.09069215 -0.09419789 0.25401606
v 0.08949274 -0.09636906 0.25390625
v 0.09583982 -0.09724317 0.25373422
v 0.08814964 -0.09767068 0.25390636
v 0.08644975 -0.09887987 0.25392124
v 0.08464196 -0.09963199 0.25389466
v 0.09388107 -0.10019362 0.25387572
v 0.08244275 -0.10005788 0.25390335
v 0.07081199 -0.10009683 0.25391205
v 0.07288379 -0.10256380 0.25378578
v 0.09173090 -0.10249371 0.25395314
v 0.07571436 -0.10434773 0.25393733
v 0.08882748 -0.10433301 0.25404875
v 0.07879999 -0.10524447 0.25376987
v 0.08577423 -0.10520627 0.25384408
v 0.08240325 -0.10578651 0.25372798
v 0.08026531 -0.07005134 0.25378865
v 0.07825312 -0.07066933 0.25391686
v 0.07659931 -0.07173066 0.25374485
v 0.06894223 -0.07259135 0.25387919
v 0.07527460 -0.07341701 0.25397690
v 0.07411557 -0.07563102 0.25388575
v 0.06749654 -0.07599501 0.25383050
v 0.07310029 -0.07808149 0.25388860
v 0.06665986 -0.08031440 0.25389512
v 0.07263998 -0.08488548 0.25383521
v 0.06633763 -0.08481275 0.25376330
v 0.06673973 -0.08941398 0.25377179
v 0.07334023 -0.09136288 0.25383902
v 0.06747479 -0.09347356 0.25373275
v 0.07423297 -0.09390516 0.25402121
v 0.07499021 -0.09615465 0.25385784
v 0.06879513 -0.09707737 0.25402607
v 0.07661776 -0.09791711 0.25393403
v 0.07837861 -0.09909041 0.25383802
v 0.08014376 -0.09989925 0.25388488
v 0.09806538 -0.08957266 0.25387758
v 0.09841374 -0.08480018 0.33087804
v 0.09795362 -0.08967283 0.33096110
v 0.09810021 -0.08481586 0.25405447
v 0.09823897 -0.08479410 0.25385727
v 0.09795222 -0.08960252 0.25391664
v 0.09813879 -0.08480082 0.33105435
v 0.09805836 -0.08956988 0.33098736
v 0.09724220 -0.09379082 0.25403986
v 0.09713056 -0.09361598 0.33112877
v 0.09716815 -0.09380954 0.25379245
v 0.09701579 -0.09384166 0.33097347
v 0.09585515 -0.09710434 0.25389461
v 0.09578595 -0.09715986 0.33100580
v 0.09570333 -0.09719383 0.25393768
v 0.09571800 -0.09716609 0.33100967
v 0.09381618 -0.10026502 0.25386323
v 0.09390472 -0.10025106 0.33115092
v 0.09385757 -0.10033955 0.25390347
v 0.09380058 -0.10024259 0.33111411
v 0.09156339 -0.10261277 0.25387249
v 0.09156340 -0.10251736 0.33097776
v 0.09162088 -0.10269557 0.25394959
v 0.09158476 -0.10254708 0.33102150
v 0.08891341 -0.10436981 0.33114883
v 0.08883371 -0.10431308 0.25397348
v 0.08882412 -0.10419210 0.33100208
v 0.08877465 -0.10425684 0.25401074
v 0.08589934 -0.10522582 0.33103275
v 0.08590566 -0.10539725 0.25387797
v 0.08589502 -0.10535054 0.33096210
v 0.08586834 -0.10531361 0.25393796
v 0.08236355 -0.10549159 0.33104412
v 0.08221540 -0.10576492 0.25389847
v 0.08244723 -0.10576526 0.33113020
v 0.08230548 -0.10554043 0.25379402
v 0.07880063 -0.10541499 0.33109846
v 0.07871280 -0.10520401 0.25379826
v 0.07890747 -0.10536811 0.33106737
v 0.07891657 -0.10531489 0.25394864
v 0.07574635 -0.10432022 0.33100020
v 0.07589037 -0.10425142 0.25384056
v 0.07571301 -0.10422616 0.33099216
v 0.07560265 -0.10427582 0.25385198
v 0.07303723 -0.10261248 0.33101610
v 0.07302561 -0.10246020 0.25397875
v 0.07300802 -0.10249538 0.33110622
v 0.07302754 -0.10254493 0.25383210
v 0.07066236 -0.10021709 0.25396606
v 0.07064658 -0.10015453 0.33102877
v 0.07060738 -0.10006348 0.25392736
v 0.07086055 -0.10018125 0.33111418
v 0.06894165 -0.09689956 0.25383745
v 0.06881036 -0.09707762 0.33108012
v 0.06881856 -0.09716384 0.25378091
v 0.06871908 -0.09705964 0.33096167
v 0.06755566 -0.09340198 0.25395107
v 0.06746686 -0.09353267 0.33097267
v 0.06741022 -0.09336252 0.25405283
v 0.06750287 -0.09347483 0.33108338
v 0.06680471 -0.08941029 0.25400012
v 0.06668759 -0.08929793 0.33097953
v 0.06675241 -0.08941482 0.25387328
v 0.06667345 -0.08939758 0.33112862
v 0.06642840 -0.08494991 0.25387253
v 0.06633619 -0.08499347 0.33095512
v 0.06641516 -0.08483923 0.25376467
v 0.06643895 -0.08489729 0.33103354
v 0.06674575 -0.08021983 0.25387756
v 0.06673304 -0.08011980 0.33092533
v 0.06657459 -0.08012604 0.25401575
v 0.06672588 -0.08035651 0.33096915
v 0.06744891 -0.07610728 0.25393063
v 0.06747514 -0.07608787 0.33102295
v 0.06743922 -0.07615046 0.25391145
v 0.06763273 -0.07607660 0.33107206
v 0.06890741 -0.07259918 0.25387005
v 0.06895704 -0.07251905 0.33105565
v 0.06887985 -0.07246592 0.25382223
v 0.06896320 -0.07253219 0.33099697
v 0.07076116 -0.06959806 0.25370324
v 0.07071364 -0.06954888 0.33102923
v 0.07088880 -0.06962788 0.25377837
v 0.07072199 -0.06959592 0.33107503
v 0.07321803 -0.06726264 0.25388615
v 0.07318966 -0.06704511 0.33104987
v 0.07334599 -0.06706646 0.25393134
v 0.07332767 -0.06704929 0.33104992
v 0.07596947 -0.06543958 0.33091333
v 0.07584173 -0.06545269 0.25377924
v 0.07591942 -0.06549411 0.25391925
v 0.07589657 -0.06554250 0.33100733
v 0.07903103 -0.06443251 0.33103943
v 0.07912922 -0.06424905 0.25382988
v 0.07891911 -0.06439794 0.25397115
v 0.07890886 -0.06457345 0.33110985
v 0.08253581 -0.06407722 0.33099546
v 0.08238346 -0.06407359 0.25407030
v 0.08246268 -0.06392280 0.25388674
v 0.08222551 -0.06403487 0.33119582
v 0.08574967 -0.06440155 0.33114034
v 0.08563394 -0.06452188 0.25379694
v 0.08572890 -0.06438855 0.25381321
v 0.08588907 -0.06432357 0.33104380
v 0.08876529 -0.06546779 0.33098346
v 0.08882665 -0.06530360 0.25402158
v 0.08884905 -0.06538650 0.25398414
v 0.08885534 -0.06538107 0.33106460
v 0.09148495 -0.06719011 0.33096299
v 0.09146676 -0.06714067 0.25376714
v 0.09165444 -0.06720150 0.25386565
v 0.09160660 -0.06724787 0.33119651
v 0.09400003 -0.06932640 0.25376274
v 0.09389041 -0.06966265 0.33094564
v 0.09396469 -0.06945360 0.25390240
v 0.09397677 -0.06962361 0.33108581
v 0.09572844 -0.07260561 0.25398662
v 0.09592231 -0.07249152 0.33099445
v 0.09567594 -0.07254605 0.25373640
v 0.09580065 -0.07252162 0.33100133
v 0.09717246 -0.07617183 0.25396592
v 0.09719113 -0.07620822 0.33100943
v 0.09713028 -0.07600833 0.25389148
v 0.09714698 -0.07601211 0.33101011
v 0.09797626 -0.08033105 0.25384061
v 0.09798914 -0.08028263 0.33109765
v 0.09807884 -0.08020328 0.25383903
v 0.09793508 -0.08023713 0.33111653
v 0.08582734 -0.10534712 0.33099848
v 0.07893422 -0.10536324 0.33118047
v 0.08240807 -0.10561606 0.33109770
v 0.08880857 -0.10419194 0.33100121
v 0.07564657 -0.10424198 0.33117162
v 0.09158987 -0.10266666 0.33120307
v 0.07300988 -0.10247771 0.33106265
v 0.09403769 -0.10029567 0.33104180
v 0.07073739 -0.10011106 0.33111546
v 0.08243289 -0.09999073 0.33107765
v 0.08444299 -0.09969247 0.33111532
v 0.09577777 -0.09731892 0.33121095
v 0.08652223 -0.09907070 0.33118078
v 0.08822827 -0.09783290 0.33097647
v 0.08947788 -0.09623155 0.33108296
v 0.09696345 -0.09371643 0.33097725
v 0.09049166 -0.09412289 0.33098442
v 0.09145392 -0.09149225 0.33094246
v 0.09799352 -0.08965362 0.33100869
v 0.09195956 -0.08487470 0.33108326
v 0.09839254 -0.08499881 0.33104699
v 0.09795100 -0.08010357 0.33098415
v 0.09145334 -0.07834902 0.33103963
v 0.09709098 -0.07600200 0.33108848
v 0.09065070 -0.07564247 0.33097047
v 0.09574459 -0.07246548 0.33119983
v 0.08971441 -0.07349924 0.33099639
v 0.08808826 -0.07194507 0.33103241
v 0.09385529 -0.06952483 0.33108830
v 0.08642242 -0.07083024 0.33091257
v 0.08449018 -0.07006271 0.33104499
v 0.08243538 -0.06988075 0.33114602
v 0.07079837 -0.06961816 0.33103543
v 0.07321116 -0.06723796 0.33106532
v 0.09150973 -0.06724538 0.33096109
v 0.07592493 -0.06555062 0.33103535
v 0.08884289 -0.06547971 0.33097410
v 0.07901746 -0.06442997 0.33119192
v 0.08571017 -0.06445463 0.33108709
v 0.08233436 -0.06415945 0.33103111
v 0.08016915 -0.09968693 0.33103139
v 0.06885513 -0.09708615 0.33090265
v 0.07827867 -0.09907195 0.33089740
v 0.07644372 -0.09797033 0.33106686
v 0.07502274 -0.09601057 0.33117607
v 0.06747945 -0.09332590 0.33114356
v 0.07401996 -0.09399077 0.33091295
v 0.07323085 -0.09133841 0.33093124
v 0.06673482 -0.08954687 0.33113679
v 0.07273547 -0.08474326 0.33106719
v 0.06643483 -0.08475302 0.33085911
v 0.07329567 -0.07810564 0.33105268
v 0.06678184 -0.08012315 0.33115128
v 0.06760297 -0.07618551 0.33113042
v 0.07403309 -0.07545639 0.33101999
v 0.06889041 -0.07248697 0.33101933
v 0.07522486 -0.07345514 0.33103937
v 0.07649771 -0.07196813 0.33114555
v 0.07808729 -0.07074169 0.33118952
v 0.08017268 -0.06998893 0.33101670
v 0.08228366 -0.06994817 0.33107300
v 0.08014498 -0.07000874 0.33115411
v 0.07088579 -0.06958374 0.33120311
v 0.07824778 -0.07076501 0.33105836
v 0.07656897 -0.07202485 0.33103288
v 0.06899573 -0.07253780 0.33103851
v 0.07514977 -0.07348858 0.33105339
v 0.07396456 -0.07576569 0.33105176
v 0.06741649 -0.07614764 0.33101744
v 0.07319742 -0.07822518 0.33095105
v 0.06686266 -0.08017662 0.33092160
v 0.06655694 -0.08484439 0.33087623
v 0.07267229 -0.08492657 0.33098308
v 0.06681035 -0.08948002 0.33095487
v 0.07318360 -0.09140253 0.33110337
v 0.06735128 -0.09348420 0.33113790
v 0.07401472 -0.09400095 0.33094845
v 0.07518110 -0.09608948 0.33100343
v 0.06876846 -0.09712547 0.33111818
v 0.07641579 -0.09785572 0.33100648
v 0.07820873 -0.09902765 0.33103420
v 0.08009558 -0.09965485 0.33109554
v 0.08233159 -0.09981358 0.33088164
v 0.07083495 -0.10010011 0.33103886
v 0.08244882 -0.06401926 0.33105049
v 0.08578141 -0.06436113 0.33117235
v 0.07896783 -0.06457782 0.33105402
v 0.08883538 -0.06550231 0.33107704
v 0.07584799 -0.06544946 0.33108043
v 0.09151570 -0.06705323 0.33112847
v 0.07311127 -0.06700672 0.33120337
v 0.09386153 -0.06946827 0.33100591
v 0.08452117 -0.07006910 0.33107798
v 0.08653408 -0.07069700 0.33090642
v 0.08828383 -0.07187509 0.33099927
v 0.09593947 -0.07256164 0.33106525
v 0.08951869 -0.07352343 0.33089315
v 0.09053491 -0.07555249 0.33095070
v 0.09713553 -0.07610705 0.33103108
v 0.09128463 -0.07824070 0.33096322
v 0.09801531 -0.08010832 0.33103159
v 0.09199083 -0.08491901 0.33111291
v 0.09822759 -0.08478282 0.33108843
v 0.09802268 -0.08971050 0.33100831
v 0.09128836 -0.09146610 0.33091606
v 0.09723307 -0.09372792 0.33099756
v 0.09076265 -0.09393666 0.33121655
v 0.08944342 -0.09621635 0.33106444
v 0.09583337 -0.09725607 0.33123085
v 0.08800673 -0.09794986 0.33112305
v 0.08637729 -0.09902770 0.33094785
v 0.08457319 -0.09979771 0.33110541
v 0.09392852 -0.10025082 0.33109004
v 0.07313969 -0.10254796 0.33116550
v 0.09149804 -0.10252330 0.33102845
v 0.07571384 -0.10420602 0.33093104
v 0.08887034 -0.10434871 0.33099966
v 0.07889545 -0.10537907 0.33107545
v 0.08589710 -0.10534616 0.33108711
v 0.08233003 -0.10555540 0.33098107
vn 0 0 -1
vn 0 0 1
vn 0.9920711364105145 -0.12567760461255859 0
vn 0.9999999966936932 0.0000813179797311378 0
vn -0.9999999966936932 -0.0000813179797311378 0
vn -0.9920711364105145 0.12567760461255859 0
vn 0.9613486617955723 -0.2753338890581076 0
vn -0.9613486617955723 0.2753338890581076 0
vn 0.8942406332341811 -0.4475865166344167 0
vn -0.8942406332341811 0.4475865166344167 0
vn 0.7823368128750736 -0.6228556102504594 0
vn -0.7823368128750736 0.6228556102504594 0
vn 0.6249383221172863 -0.7806741276289558 0
vn -0.6249383221172863 0.7806741276289558 0
vn 0.42582570495500804 -0.9048052105285261 0
vn -0.42582570495500804 0.9048052105285261 0
vn 0.20796038901766933 -0.9781372483448424 0
vn -0.20796038901766933 0.9781372483448424 0
vn -0.00026279819092519835 -0.9999999654685549 0
vn 0.00026279819092519835 0.9999999654685549 0
vn -0.21032350935692606 -0.9776318434931356 0
vn 0.21032350935692606 0.9776318434931356 0
vn -0.43304302478581586 -0.9013732515913434 0
vn 0.43304302478581586 0.9013732515913434 0
vn -0.6374135100832891 -0.7705219121889403 0
vn 0.6374135100832891 0.7705219121889403 0
vn -0.7937256402354738 -0.6082759308346726 0
vn 0.7937256402354738 0.6082759308346726 0
vn -0.8990252955448891 -0.4378966978300073 0
vn 0.8990252955448891 0.4378966978300073 0
vn -0.9620395711060271 -0.2729099918033996 0
vn 0.9620395711060271 0.2729099918033996 0
vn -0.9920217038754667 -0.12606720049249853 0
vn 0.9920217038754667 0.12606720049249853 0
vn -0.9999999918111998 0.0001279749989520383 0
vn 0.9999999918111998 -0.0001279749989520383 0
vn -0.9918412703307105 0.12747899618667688 0
vn 0.9918412703307105 -0.12747899618667688 0
vn -0.9605179519907202 0.2782180150593281 0
vn 0.9605179519907202 -0.2782180150593281 0
vn -0.8930095655684763 0.45003768264802113 0
vn 0.8930095655684763 -0.45003768264802113 0
vn -0.7819346752313397 0.6233603802543589 0
vn 0.7819346752313397 -0.6233603802543589 0
vn -0.626395612394036 0.7795053154235065 0
vn 0.626395612394036 -0.7795053154235065 0
vn -0.4284955058387955 0.9035439123119334 0
vn 0.4284955058387955 -0.9035439123119334 0
vn -0.21005850387897293 0.9776888180541534 0
vn 0.21005850387897293 -0.9776888180541534 0
vn -0.0003185595156922158 0.9999999492599162 0
vn 0.0003185595156922158 -0.9999999492599162 0
vn 0.2092240082769762 0.9778677386847957 0
vn -0.2092240082769762 -0.9778677386847957 0
vn 0.42802790809643476 0.9037655170953305 0
vn -0.42802790809643476 -0.9037655170953305 0
vn 0.6273441988751561 0.7787420986036959 0
vn -0.6273441988751561 -0.7787420986036959 0
vn 0.7839658942699853 0.620803895462538 0
vn -0.7839658942699853 -0.620803895462538 0
vn 0.894778135182404 0.4465110175566773 0
vn -0.894778135182404 -0.4465110175566773 0
vn 0.9613773808687248 0.27523359452289003 0
vn -0.9613773808687248 -0.27523359452289003 0
vn 0.9920481534568467 0.12585889409517592 0
vn -0.9920481534568467 -0.12585889409517592 0
usemtl material_0_0
f 1//1 2//1 3//1
f 2//1 1//1 4//1
f 2//1 4//1 5//1
f 5//1 4//1 6//1
f 6//1 4//1 7//1
f 7//1 4//1 8//1
f 7//1 8//1 9//1
f 9//1 8//1 10//1
f 10//1 8//1 11//1
f 10//1 11//1 12//1
f 12//1 11//1 13//1
f 12//1 13//1 14//1
f 12//1 14//1 15//1
f 15//1 14//1 16//1
f 15//1 16//1 17//1
f 17//1 16//1 18//1
f 17//1 18//1 19//1
f 19//1 18//1 20//1
f 20//1 18//1 21//1
f 20//1 21//1 22//1
f 22//1 21//1 23//1
f 23//1 21//1 24//1
f 25//1 26//1 27//1
f 26//1 25//1 28//1
f 28//1 25//1 29//1
f 28//1 29//1 30//1
f 30//1 29//1 31//1
f 30//1 31//1 32//1
f 32//1 31//1 1//1
f 32//1 1//1 3//1
f 32//1 3//1 33//1
f 32//1 33//1 34//1
f 34//1 33//1 35//1
f 34//1 35//1 36//1
f 34//1 36//1 37//1
f 34//1 37//1 38//1
f 38//1 37//1 39//1
f 38//1 39//1 40//1
f 38//1 40//1 41//1
f 41//1 40//1 42//1
f 41//1 42//1 43//1
f 43//1 42//1 44//1
f 43//1 44//1 45//1
f 45//1 44//1 46//1
f 46//1 44//1 47//1
f 46//1 47//1 48//1
f 48//1 47//1 49//1
f 48//1 49//1 50//1
f 48//1 50//1 51//1
f 51//1 50//1 52//1
f 51//1 52//1 53//1
f 51//1 53//1 24//1
f 51//1 24//1 21//1
f 51//1 21//1 54//1
f 51//1 54//1 55//1
f 55//1 54//1 56//1
f 55//1 56//1 57//1
f 57//1 56//1 58//1
f 57//1 58//1 59//1
f 59//1 58//1 60//1
f 61//2 62//2 63//2
f 63//2 62//2 64//2
f 62//2 65//2 64//2
f 64//2 65//2 66//2
f 65//2 67//2 66//2
f 66//2 67//2 68//2
f 67//2 69//2 68//2
f 69//2 70//2 68//2
f 70//2 71//2 68//2
f 71//2 72//2 68//2
f 72//2 73//2 68//2
f 68//2 73//2 74//2
f 73//2 75//2 74//2
f 75//2 76//2 74//2
f 74//2 76//2 77//2
f 76//2 78//2 77//2
f 77//2 78//2 79//2
f 79//2 78//2 80//2
f 78//2 81//2 80//2
f 80//2 81//2 82//2
f 81//2 83//2 82//2
f 82//2 83//2 84//2
f 83//2 85//2 84//2
f 85//2 86//2 84//2
f 84//2 86//2 87//2
f 86//2 88//2 87//2
f 88//2 89//2 87//2
f 89//2 90//2 87//2
f 87//2 90//2 91//2
f 90//2 92//2 91//2
f 92//2 93//2 91//2
f 93//2 94//2 91//2
f 91//2 94//2 95//2
f 94//2 96//2 95//2
f 95//2 96//2 97//2
f 96//2 98//2 97//2
f 97//2 98//2 99//2
f 100//2 99//2 98//2
f 70//2 69//2 101//2
f 101//2 69//2 102//2
f 102//2 69//2 103//2
f 69//2 104//2 103//2
f 103//2 104//2 105//2
f 105//2 104//2 106//2
f 104//2 107//2 106//2
f 106//2 107//2 108//2
f 107//2 109//2 108//2
f 108//2 109//2 110//2
f 109//2 111//2 110//2
f 111//2 112//2 110//2
f 110//2 112//2 113//2
f 112//2 114//2 113//2
f 113//2 114//2 115//2
f 115//2 114//2 116//2
f 114//2 117//2 116//2
f 116//2 117//2 118//2
f 118//2 117//2 119//2
f 119//2 117//2 120//2
f 117//2 93//2 120//2
f 92//2 120//2 93//2
f 121//3 122//4 123//3
f 122//4 121//3 124//4
f 125//5 126//6 127//5
f 128//6 127//5 126//6
f 129//7 123//3 130//7
f 123//3 129//7 121//3
f 126//6 131//8 128//6
f 132//8 128//6 131//8
f 133//9 130//7 134//9
f 130//7 133//9 129//7
f 131//8 135//10 132//8
f 136//10 132//8 135//10
f 137//11 134//9 138//11
f 134//9 137//11 133//9
f 135//10 139//12 136//10
f 140//12 136//10 139//12
f 141//13 138//11 142//13
f 138//11 141//13 137//11
f 139//12 143//14 140//12
f 144//14 140//12 143//14
f 141//13 145//15 146//15
f 145//15 141//13 142//13
f 144//14 143//14 147//16
f 148//16 147//16 143//14
f 146//15 149//17 150//17
f 149//17 146//15 145//15
f 147//16 148//16 151//18
f 152//18 151//18 148//16
f 150//17 153//19 154//19
f 153//19 150//17 149//17
f 151//18 152//18 155//20
f 156//20 155//20 152//18
f 154//19 157//21 158//21
f 157//21 154//19 153//19
f 155//20 156//20 159//22
f 160//22 159//22 156//20
f 158//21 161//23 162//23
f 161//23 158//21 157//21
f 159//22 160//22 163//24
f 164//24 163//24 160//22
f 162//23 165//25 166//25
f 165//25 162//23 161//23
f 163//24 164//24 167//26
f 168//26 167//26 164//24
f 169//27 165//25 170//27
f 165//25 169//27 166//25
f 168//26 171//28 167//26
f 172//28 167//26 171//28
f 173//29 170//27 174//29
f 170//27 173//29 169//27
f 171//28 175//30 172//28
f 176//30 172//28 175//30
f 177//31 174//29 178//31
f 174//29 177//31 173//29
f 175//30 179//32 176//30
f 180//32 176//30 179//32
f 181//33 178//31 182//33
f 178//31 181//33 177//31
f 179//32 183//34 180//32
f 184//34 180//32 183//34
f 185//35 182//33 186//35
f 182//33 185//35 181//33
f 183//34 187//36 184//34
f 188//36 184//34 187//36
f 189//37 186//35 190//37
f 186//35 189//37 185//35
f 187//36 191//38 188//36
f 192//38 188//36 191//38
f 193//39 190//37 194//39
f 190//37 193//39 189//37
f 191//38 195//40 192//38
f 196//40 192//38 195//40
f 197//41 194//39 198//41
f 194//39 197//41 193//39
f 195//40 199//42 196//40
f 200//42 196//40 199//42
f 201//43 198//41 202//43
f 198//41 201//43 197//41
f 199//42 203//44 200//42
f 204//44 200//42 203//44
f 205//45 202//43 206//45
f 202//43 205//45 201//43
f 203//44 207//46 204//44
f 208//46 204//44 207//46
f 209//47 205//45 206//45
f 205//45 209//47 210//47
f 211//48 212//48 207//46
f 208//46 207//46 212//48
f 213//49 210//47 209//47
f 210//47 213//49 214//49
f 215//50 216//50 211//48
f 212//48 211//48 216//50
f 217//51 214//49 213//49
f 214//49 217//51 218//51
f 219//52 220//52 215//50
f 216//50 215//50 220//52
f 221//53 218//51 217//51
f 218//51 221//53 222//53
f 223//54 224//54 219//52
f 220//52 219//52 224//54
f 225//55 222//53 221//53
f 222//53 225//55 226//55
f 227//56 228//56 223//54
f 224//54 223//54 228//56
f 229//57 226//55 225//55
f 226//55 229//57 230//57
f 231//58 232//58 227//56
f 228//56 227//56 232//58
f 233//59 229//57 234//59
f 229//57 233//59 230//57
f 231//58 235//60 232//58
f 236//60 232//58 235//60
f 237//61 234//59 238//61
f 234//59 237//61 233//59
f 235//60 239//62 236//60
f 240//62 236//60 239//62
f 241//63 238//61 242//63
f 238//61 241//63 237//61
f 239//62 243//64 240//62
f 244//64 240//62 243//64
f 245//65 242//63 246//65
f 242//63 245//65 241//63
f 243//64 247//66 244//64
f 248//66 244//64 247//66
f 122//4 245//65 246//65
f 245//65 122//4 124//4
f 125//5 127//5 247//66
f 248//66 247//66 127//5
f 249//2 250//2 251//2
f 250//2 249//2 252//2
f 250//2 252//2 253//2
f 253//2 252//2 254//2
f 253//2 254//2 255//2
f 255//2 254//2 256//2
f 255//2 256//2 257//2
f 257//2 256//2 258//2
f 258//2 256//2 259//2
f 259//2 256//2 260//2
f 259//2 260//2 261//2
f 261//2 260//2 262//2
f 262//2 260//2 263//2
f 263//2 260//2 264//2
f 263//2 264//2 265//2
f 265//2 264//2 266//2
f 266//2 264//2 267//2
f 266//2 267//2 268//2
f 268//2 267//2 269//2
f 268//2 269//2 270//2
f 268//2 270//2 271//2
f 271//2 270//2 272//2
f 271//2 272//2 273//2
f 273//2 272//2 274//2
f 273//2 274//2 275//2
f 275//2 274//2 276//2
f 276//2 274//2 277//2
f 276//2 277//2 278//2
f 278//2 277//2 279//2
f 279//2 277//2 280//2
f 280//2 277//2 281//2
f 281//2 277//2 282//2
f 282//2 277//2 283//2
f 282//2 283//2 284//2
f 284//2 283//2 285//2
f 284//2 285//2 286//2
f 286//2 285//2 287//2
f 286//2 287//2 288//2
f 257//2 289//2 290//2
f 289//2 257//2 258//2
f 290//2 289//2 291//2
f 290//2 291//2 292//2
f 290//2 292//2 293//2
f 290//2 293//2 294//2
f 294//2 293//2 295//2
f 294//2 295//2 296//2
f 294//2 296//2 297//2
f 297//2 296//2 298//2
f 297//2 298//2 299//2
f 299//2 298//2 300//2
f 299//2 300//2 301//2
f 301//2 300//2 302//2
f 302//2 300//2 303//2
f 302//2 303//2 304//2
f 304//2 303//2 305//2
f 304//2 305//2 306//2
f 304//2 306//2 281//2
f 281//2 306//2 307//2
f 281//2 307//2 308//2
f 281//2 308//2 280//2
f 309//1 310//1 311//1
f 310//1 312//1 311//1
f 312//1 313//1 311//1
f 311//1 313//1 314//1
f 313//1 315//1 314//1
f 315//1 316//1 314//1
f 314//1 316//1 317//1
f 316//1 318//1 317//1
f 317//1 318//1 319//1
f 319//1 318//1 320//1
f 318//1 321//1 320//1
f 320//1 321//1 322//1
f 321//1 323//1 322//1
f 322//1 323//1 324//1
f 323//1 325//1 324//1
f 325//1 326//1 324//1
f 324//1 326//1 327//1
f 326//1 328//1 327//1
f 328//1 329//1 327//1
f 329//1 330//1 327//1
f 331//1 332//1 330//1
f 327//1 330//1 332//1
f 333//1 334//1 335//1
f 334//1 336//1 335//1
f 335//1 336//1 337//1
f 336//1 338//1 337//1
f 337//1 338//1 339//1
f 338//1 340//1 339//1
f 339//1 340//1 311//1
f 311//1 340//1 309//1
f 309//1 340//1 341//1
f 341//1 340//1 342//1
f 342//1 340//1 343//1
f 340//1 344//1 343//1
f 343//1 344//1 345//1
f 345//1 344//1 346//1
f 344//1 347//1 346//1
f 346//1 347//1 348//1
f 347//1 349//1 348//1
f 348//1 349//1 350//1
f 349//1 351//1 350//1
f 351//1 352//1 350//1
f 350//1 352//1 353//1
f 352//1 354//1 353//1
f 353//1 354//1 355//1
f 355//1 354//1 356//1
f 354//1 357//1 356//1
f 356//1 357//1 358//1
f 358//1 357//1 359//1
f 359//1 357//1 360//1
f 357//1 361//1 360//1
f 360//1 361//1 331//1
f 331//1 361//1 332//1
f 332//1 361//1 362//1
f 361//1 363//1 362//1
f 362//1 363//1 364//1
f 363//1 365//1 364//1
f 364//1 365//1 366//1
f 365//1 367//1 366//1
f 368//1 366//1 367//1
