# SSTK version 0.8.0
# 5
mtllib original_5.mtl
o #ID31
v -0.02197035 -0.06506675 0.25387498
v -0.01582550 -0.10442377 0.25386151
v -0.02184840 -0.10447356 0.25394821
v -0.01589198 -0.07522907 0.25394923
v -0.01601382 -0.06967150 0.25390242
v -0.01182754 -0.07168196 0.25399932
v -0.00975682 -0.07068953 0.25386690
v -0.00756667 -0.07043694 0.25376545
v -0.01596337 -0.06523610 0.25380221
v -0.00580698 -0.07059146 0.25395826
v 0.00309422 -0.07083224 0.25396664
v -0.00441617 -0.07108771 0.25388302
v 0.00146141 -0.06775086 0.25391864
v -0.01351822 -0.06719907 0.25391753
v -0.00070347 -0.06573309 0.25382510
v -0.01124598 -0.06535406 0.25375064
v -0.00324404 -0.06433376 0.25394103
v -0.00893944 -0.06456133 0.25397025
v -0.00612671 -0.06393087 0.25399697
v -0.00164644 -0.08183381 0.25384237
v 0.00415555 -0.10455937 0.25383088
v -0.00181125 -0.10458479 0.25383643
v 0.00432426 -0.07875299 0.25392178
v -0.00185570 -0.07673608 0.25390894
v 0.00423038 -0.07670539 0.25399056
v -0.00268973 -0.07309278 0.25391075
v 0.00412180 -0.07520361 0.25389453
v 0.00853913 -0.07171253 0.25389305
v -0.00353088 -0.07178645 0.25395102
v 0.01072928 -0.07084665 0.25385866
v 0.00577347 -0.06801605 0.25397163
v 0.01255522 -0.07039602 0.25395693
v 0.02263500 -0.06942209 0.25377710
v 0.02150837 -0.06749292 0.25400865
v 0.00846231 -0.06575514 0.25372028
v 0.01989382 -0.06584166 0.25383023
v 0.01807947 -0.06475586 0.25395010
v 0.01097697 -0.06439781 0.25402382
v 0.01636587 -0.06420460 0.25388670
v 0.01408184 -0.06406727 0.25388035
v 0.01851459 -0.08183659 0.25388293
v 0.02445792 -0.10453213 0.25386715
v 0.01842002 -0.10456696 0.25398959
v 0.02455924 -0.07862418 0.25396314
v 0.01813824 -0.07689701 0.25387839
v 0.02444692 -0.07503792 0.25386165
v 0.01743246 -0.07321363 0.25380489
v 0.02363813 -0.07198504 0.25403158
v 0.01671398 -0.07202910 0.25390869
v 0.01564309 -0.07102301 0.25373295
v 0.01427187 -0.07067045 0.25388584
v 0.01243750 -0.07035883 0.25377339
v 0.01433028 -0.07051450 0.25383261
v 0.02273558 -0.06946572 0.25399511
v 0.01586114 -0.07102552 0.25389644
v 0.02370516 -0.07205449 0.25399792
v 0.01670909 -0.07184877 0.25373536
v 0.01741820 -0.07309022 0.25396295
v 0.02436016 -0.07502511 0.25395950
v 0.01819712 -0.07675948 0.25381072
v 0.02446487 -0.07845771 0.25396350
v 0.01855577 -0.08190284 0.25381742
v 0.02451933 -0.10459087 0.25385037
v 0.01861092 -0.10459698 0.25385820
v 0.01388973 -0.06416472 0.25388388
v 0.01119101 -0.06441381 0.25407154
v 0.01623292 -0.06425965 0.25378909
v 0.01824133 -0.06477963 0.25392471
v 0.00826478 -0.06583350 0.25378876
v 0.02008363 -0.06580422 0.25395481
v 0.02162741 -0.06742910 0.25402559
v 0.00579168 -0.06791121 0.25401179
v 0.01074296 -0.07065055 0.25391462
v 0.00312732 -0.07079397 0.25397722
v 0.00866063 -0.07163377 0.25395896
v -0.00433489 -0.07110281 0.25389247
v -0.00339577 -0.07184677 0.25391107
v -0.00258727 -0.07322926 0.25384071
v 0.00412729 -0.07513845 0.25380313
v 0.00410389 -0.07664657 0.25378513
v -0.00195251 -0.07680537 0.25382964
v 0.00412792 -0.07863070 0.25380436
v -0.00166364 -0.08182732 0.25401507
v 0.00426555 -0.10446755 0.25387522
v -0.00178958 -0.10451755 0.25385369
v -0.00615685 -0.06419019 0.25384532
v -0.00879466 -0.06445365 0.25404741
v -0.00327124 -0.06453072 0.25401739
v -0.01115975 -0.06555538 0.25389538
v -0.00052523 -0.06562415 0.25390254
v -0.01354307 -0.06716496 0.25385098
v 0.00164772 -0.06792192 0.25391383
v -0.01587442 -0.06950669 0.25377873
v -0.00764081 -0.07046439 0.25380345
v -0.00577187 -0.07055307 0.25393644
v -0.01599176 -0.06513971 0.25394680
v -0.02173472 -0.06514096 0.25389370
v -0.00956601 -0.07067801 0.25391379
v -0.01170716 -0.07162220 0.25393906
v -0.01604206 -0.07525274 0.25384557
v -0.01598790 -0.10474147 0.25395933
v -0.02183040 -0.10452522 0.25393764
v 0.01853341 -0.08170846 0.25383902
v 0.01858871 -0.10474590 0.33114603
v 0.01849966 -0.08191116 0.33087496
v 0.01847536 -0.10458479 0.25390726
v 0.01849633 -0.10465811 0.25375258
v 0.01853110 -0.08176275 0.25383717
v 0.01847075 -0.10448589 0.33109399
v 0.01854373 -0.08185698 0.33118767
v 0.01839341 -0.07668525 0.25378529
v 0.01826342 -0.07681399 0.33100336
v 0.01826412 -0.07684778 0.25382039
v 0.01823558 -0.07677278 0.33111839
v 0.01740441 -0.07315562 0.25388967
v 0.01756212 -0.07305904 0.33120651
v 0.01742530 -0.07309614 0.25385797
v 0.01748531 -0.07313073 0.33110645
v 0.01666509 -0.07203905 0.25399195
v 0.01661421 -0.07205056 0.33098230
v 0.01675500 -0.07182717 0.25387388
v 0.01664133 -0.07197810 0.33103105
v 0.01665197 -0.07198319 0.25388039
v 0.01571295 -0.07110638 0.33110988
v 0.01565229 -0.07099865 0.25380946
v 0.01667971 -0.07192032 0.33110109
v 0.01659943 -0.07184735 0.33103010
v 0.01668568 -0.07203032 0.25385208
v 0.01571442 -0.07091138 0.33105549
v 0.01576353 -0.07105988 0.25385404
v 0.01423509 -0.07070074 0.33114541
v 0.01437529 -0.07054232 0.25388579
v 0.01431480 -0.07050174 0.33119422
v 0.01428600 -0.07059441 0.25387084
v 0.01261276 -0.07035777 0.33101229
v 0.01259680 -0.07034221 0.25400491
v 0.01246731 -0.07039998 0.33106865
v 0.01250911 -0.07038562 0.25396867
v 0.01046381 -0.07070039 0.33115954
v 0.01047097 -0.07082077 0.25381217
v 0.01065152 -0.07051074 0.33106723
v 0.01067454 -0.07075190 0.25386942
v 0.00853019 -0.07165719 0.33107311
v 0.00844715 -0.07160061 0.25389736
v 0.00856332 -0.07159869 0.33106840
v 0.00857342 -0.07157791 0.25385502
v 0.00410373 -0.07530743 0.33100755
v 0.00424314 -0.07531504 0.25386298
v 0.00419915 -0.07539323 0.33103641
v 0.00422154 -0.07522664 0.25398541
v 0.00428957 -0.07663044 0.25382648
v 0.00433863 -0.07518518 0.33111773
v 0.00416662 -0.07667173 0.33100533
v 0.00402822 -0.07525955 0.25393133
v 0.00399740 -0.07525440 0.25387335
v 0.00419438 -0.07665691 0.25397939
v 0.00407581 -0.07524853 0.33107061
v 0.00415986 -0.07669979 0.33106325
v 0.00438839 -0.07853944 0.25394071
v 0.00415390 -0.07867035 0.33092196
v 0.00433646 -0.07860058 0.25386153
v 0.00426693 -0.07862940 0.33087568
v 0.00435997 -0.10452663 0.33103506
v 0.00423662 -0.10444735 0.25399101
v 0.00435742 -0.10456499 0.25379231
v 0.00431694 -0.10469951 0.33098776
v 0.00416316 -0.10461466 0.25384354
v -0.00172479 -0.10455178 0.33114617
v -0.00168369 -0.10458739 0.25401571
v 0.00434734 -0.10442675 0.33108813
v 0.00434486 -0.10450200 0.33105873
v 0.00431925 -0.10460112 0.25400624
v -0.00178827 -0.10464671 0.33101819
v -0.00162318 -0.10444230 0.25384456
v -0.00168416 -0.08163315 0.25391693
v -0.00158688 -0.10472616 0.33102099
v -0.00183708 -0.08172560 0.33104038
v -0.00154344 -0.10447240 0.25377813
v -0.00178680 -0.10462094 0.25386132
v -0.00174522 -0.08169314 0.25404364
v -0.00160192 -0.10462069 0.33114907
v -0.00177834 -0.08183272 0.33116511
v -0.00194083 -0.07668469 0.25381099
v -0.00193113 -0.07668658 0.33096638
v -0.00199023 -0.07690294 0.25378350
v -0.00184293 -0.07691634 0.33105874
v -0.00274230 -0.07309853 0.25391297
v -0.00274955 -0.07319525 0.33098444
v -0.00269068 -0.07307405 0.25392574
v -0.00266570 -0.07306326 0.33086523
v -0.00342685 -0.07195831 0.25390003
v -0.00341567 -0.07184400 0.33101726
v -0.00343687 -0.07192606 0.25375870
v -0.00342097 -0.07184426 0.33112605
v -0.00337164 -0.07196408 0.25403984
v -0.00454476 -0.07121962 0.33114800
v -0.00454000 -0.07099697 0.25388309
v -0.00326569 -0.07207093 0.33111079
v -0.00354487 -0.07197639 0.33105714
v -0.00353985 -0.07188114 0.25389361
v -0.00456993 -0.07095920 0.33091182
v -0.00448153 -0.07109817 0.25383297
v -0.00581867 -0.07049465 0.33100164
v -0.00597537 -0.07060815 0.25391273
v -0.00516606 -0.07085066 0.33116401
v -0.00483261 -0.07099197 0.33115385
v -0.00592367 -0.07036753 0.33104333
v -0.00576743 -0.07057775 0.25386210
v -0.00766837 -0.07035587 0.33110480
v -0.00772570 -0.07032998 0.25387408
v -0.00771919 -0.07034001 0.33107037
v -0.00760483 -0.07035296 0.25390021
v -0.00957637 -0.07073093 0.33101654
v -0.00985709 -0.07073108 0.25397251
v -0.00957675 -0.07077758 0.33090677
v -0.00967820 -0.07063955 0.25376705
v -0.01181181 -0.07182694 0.33104494
v -0.01190612 -0.07174003 0.25386500
v -0.01173018 -0.07181367 0.33095750
v -0.01179456 -0.07183698 0.25395065
v -0.01580331 -0.07520412 0.33092653
v -0.01596627 -0.07517921 0.25401197
v -0.01586650 -0.07513389 0.33114066
v -0.01598709 -0.07523598 0.25405996
v -0.01582711 -0.10459180 0.33113173
v -0.01594443 -0.07505357 0.25403676
v -0.01585371 -0.07525362 0.33101701
v -0.01607122 -0.10462886 0.25398809
v -0.01601686 -0.10445386 0.25386252
v -0.01578994 -0.10463062 0.33100218
v -0.01597803 -0.07520167 0.25398867
v -0.01595579 -0.07525099 0.33122918
v -0.01573509 -0.10447338 0.25388971
v -0.02201047 -0.10456825 0.33090871
v -0.02191128 -0.10440823 0.25388712
v -0.01586746 -0.10462443 0.33105891
v -0.01600561 -0.10452352 0.33097404
v -0.01588076 -0.10459813 0.25400764
v -0.02188244 -0.10447291 0.33100246
v -0.02184276 -0.10451551 0.25381437
v -0.02191920 -0.06507799 0.25389984
v -0.02186193 -0.10475880 0.33094579
v -0.02176409 -0.06500074 0.33115940
v -0.02200440 -0.10462991 0.25396936
v -0.02188866 -0.10455132 0.25384312
v -0.02191642 -0.06506544 0.25398194
v -0.02198573 -0.10457147 0.33114284
v -0.02188002 -0.06523934 0.33104671
v -0.01592743 -0.06518005 0.33109316
v -0.02196937 -0.06508774 0.25387952
v -0.02204953 -0.06518630 0.33095803
v -0.01590998 -0.06510482 0.25383171
v -0.01590847 -0.06520346 0.25378334
v -0.01588731 -0.06517542 0.33087587
v -0.02193193 -0.06518081 0.25389477
v -0.02190624 -0.06515794 0.33097432
v -0.01588196 -0.06947821 0.25392421
v -0.01584844 -0.06516238 0.33116958
v -0.01596655 -0.06942609 0.33097629
v -0.01600283 -0.06517961 0.25382155
v -0.01592005 -0.06515527 0.25381504
v -0.01577407 -0.06947282 0.25385593
v -0.01604848 -0.06520425 0.33104271
v -0.01584666 -0.06957413 0.33087711
v -0.01357760 -0.06724254 0.33101091
v -0.01590780 -0.06953073 0.25396066
v -0.01594191 -0.06947356 0.33101190
v -0.01337014 -0.06718480 0.25379855
v -0.01366579 -0.06733162 0.25381593
v -0.01357646 -0.06723662 0.33104995
v -0.01585809 -0.06953379 0.25386131
v -0.01599828 -0.06955405 0.33094772
v -0.01110722 -0.06557487 0.33093867
v -0.01132154 -0.06546833 0.25389657
v -0.01110073 -0.06544600 0.25387634
v -0.01111091 -0.06536055 0.33106422
v -0.00886801 -0.06439468 0.33110971
v -0.00877113 -0.06452956 0.25380727
v -0.00892356 -0.06440910 0.25377530
v -0.00894784 -0.06444491 0.33120162
v -0.00610534 -0.06411186 0.33086718
v -0.00606352 -0.06422114 0.25390266
v -0.00630509 -0.06399464 0.25397675
v -0.00632170 -0.06408257 0.33116204
v -0.00505960 -0.06437655 0.33098973
v -0.00317349 -0.06446190 0.25394837
v -0.00317034 -0.06431557 0.33107550
v -0.00310559 -0.06433332 0.33102513
v -0.00502496 -0.06414692 0.33107894
v -0.00317977 -0.06439865 0.25387283
v -0.00052215 -0.06575601 0.33113887
v -0.00062891 -0.06556950 0.25378738
v -0.00055286 -0.06556685 0.25372079
v -0.00053349 -0.06566061 0.33099790
v 0.00174545 -0.06777578 0.33103775
v 0.00162956 -0.06770225 0.25388187
v 0.00168252 -0.06786328 0.25384084
v 0.00161960 -0.06794146 0.33092245
v 0.00322677 -0.07087661 0.25384487
v 0.00323242 -0.07072238 0.33090928
v 0.00323386 -0.07081741 0.25377572
v 0.00314463 -0.07106839 0.33104280
v 0.00582237 -0.06801743 0.25382647
v 0.00321532 -0.07087911 0.33106452
v 0.00591190 -0.06791912 0.33115371
v 0.00297266 -0.07092057 0.25399259
v 0.00314199 -0.07077545 0.25404856
v 0.00574614 -0.06781682 0.25388921
v 0.00320411 -0.07105579 0.33115548
v 0.00585733 -0.06794092 0.33109664
v 0.00846354 -0.06578517 0.33105643
v 0.00831180 -0.06571815 0.25392866
v 0.00839207 -0.06589050 0.25379359
v 0.00827060 -0.06594683 0.33114269
v 0.01106193 -0.06444582 0.33103515
v 0.01104721 -0.06445771 0.25388763
v 0.01097660 -0.06445425 0.25389942
v 0.01112088 -0.06449274 0.33109942
v 0.01412383 -0.06397642 0.33095321
v 0.01385699 -0.06397418 0.25381636
v 0.01405479 -0.06412116 0.25394452
v 0.01393819 -0.06399607 0.33112087
v 0.01622879 -0.06423362 0.33097185
v 0.01624850 -0.06427175 0.25399211
v 0.01609078 -0.06433477 0.25389456
v 0.01613969 -0.06409188 0.33111421
v 0.01825671 -0.06486864 0.33101378
v 0.01817103 -0.06479882 0.25397637
v 0.01823449 -0.06482992 0.25405102
v 0.01819865 -0.06491880 0.33105484
v 0.02003238 -0.06604813 0.33105610
v 0.02009529 -0.06585734 0.25404867
v 0.01994365 -0.06600303 0.25382699
v 0.01992126 -0.06575250 0.33086254
v 0.02146135 -0.06731319 0.25407245
v 0.02150518 -0.06735284 0.33118252
v 0.02149690 -0.06724989 0.25382350
v 0.02168359 -0.06739014 0.33107000
v 0.02282009 -0.06931454 0.25373891
v 0.02266269 -0.06949817 0.33106538
v 0.02292550 -0.06940675 0.25392342
v 0.02283515 -0.06958745 0.33104842
v 0.02353782 -0.07202259 0.25380643
v 0.02368218 -0.07192926 0.33100704
v 0.02380185 -0.07198083 0.25400384
v 0.02382281 -0.07192751 0.33099833
v 0.02437083 -0.07496902 0.25390773
v 0.02411328 -0.07490424 0.33098586
v 0.02437067 -0.07493910 0.25376184
v 0.02423499 -0.07480132 0.33115839
v 0.02436919 -0.07871842 0.25392523
v 0.02449803 -0.07862304 0.33108916
v 0.02445242 -0.07861281 0.25382545
v 0.02445414 -0.07874080 0.33107264
v 0.02447980 -0.10458618 0.33089259
v 0.02446075 -0.10462194 0.25387837
v 0.02446810 -0.10441724 0.25374725
v 0.02457759 -0.10462634 0.33107635
v 0.02457777 -0.10453968 0.25377359
v 0.01836899 -0.10449694 0.33105176
v 0.01859107 -0.10467595 0.25397148
v 0.02445844 -0.10452345 0.33105707
v 0.02444367 -0.10449747 0.33104700
v 0.02450221 -0.10471182 0.25402800
v 0.01844073 -0.10457921 0.33105216
v 0.01864087 -0.10458772 0.25381059
v 0.02450768 -0.07870427 0.33116977
v 0.01848239 -0.10466473 0.33104571
v 0.02451430 -0.10467309 0.33107861
v 0.01836419 -0.08174192 0.33110727
v 0.01822709 -0.07688425 0.33102361
v 0.02431241 -0.07480872 0.33108446
v 0.01751673 -0.07322061 0.33090995
v 0.02370958 -0.07189778 0.33099990
v 0.01678812 -0.07201119 0.33089860
v 0.01571508 -0.07102310 0.33094923
v 0.02273595 -0.06944699 0.33102445
v 0.01441010 -0.07041352 0.33099884
v 0.01254862 -0.07041818 0.33091399
v 0.00418603 -0.07857918 0.33104104
v -0.00176140 -0.10456140 0.33115982
v 0.00439536 -0.10460825 0.33110547
v -0.00170052 -0.08186483 0.33115151
v -0.00186364 -0.07668723 0.33112685
v 0.00413148 -0.07676955 0.33109681
v -0.00282997 -0.07306330 0.33093074
v 0.00415331 -0.07523261 0.33117001
v 0.00850009 -0.07175810 0.33116311
v -0.00350280 -0.07198839 0.33115156
v -0.00465682 -0.07118758 0.33104649
v 0.00316124 -0.07079843 0.33115385
v 0.01061745 -0.07062307 0.33110535
v 0.00565180 -0.06791734 0.33108801
v 0.02145225 -0.06741338 0.33116691
v 0.00845304 -0.06570847 0.33098445
v 0.02012575 -0.06589260 0.33094857
v 0.01827559 -0.06502453 0.33100939
v 0.01113615 -0.06450015 0.33112315
v 0.01618992 -0.06438459 0.33117791
v 0.01420071 -0.06399865 0.33107853
v -0.00496031 -0.07092372 0.33100688
v 0.00169669 -0.06768617 0.33097833
v -0.00512610 -0.06427869 0.33116409
v -0.00062629 -0.06548712 0.33104792
v -0.00322282 -0.06448223 0.33103414
v -0.00326905 -0.06437461 0.33119887
v -0.00052847 -0.06567637 0.33117617
v -0.00493574 -0.06430529 0.33089934
v 0.00146888 -0.06766704 0.33097278
v -0.00495910 -0.07105204 0.33106501
v 0.00308698 -0.07091519 0.33105012
v -0.00449396 -0.07102027 0.33104358
v 0.01415695 -0.06420992 0.33102160
v 0.01631727 -0.06433365 0.33105169
v 0.01110076 -0.06435263 0.33114425
v 0.01823020 -0.06489938 0.33097741
v 0.00851142 -0.06588490 0.33091693
v 0.01998919 -0.06600486 0.33095087
v 0.02147436 -0.06747981 0.33099890
v 0.00574988 -0.06803153 0.33093229
v 0.02265441 -0.06949859 0.33103805
v 0.01242180 -0.07050892 0.33092111
v 0.01039727 -0.07074057 0.33095670
v 0.00843737 -0.07158798 0.33102212
v -0.00354604 -0.07198176 0.33107057
v -0.00272254 -0.07315372 0.33100295
v 0.00417211 -0.07537013 0.33101005
v 0.00421511 -0.07662143 0.33106843
v -0.00181676 -0.07662427 0.33104421
v 0.00428211 -0.07855409 0.33120416
v -0.00172300 -0.08175755 0.33097868
v -0.00183884 -0.10458286 0.33091860
v 0.00434555 -0.10474661 0.33118936
v 0.01435124 -0.07050371 0.33115796
v 0.01556654 -0.07103446 0.33109468
v 0.02383107 -0.07191892 0.33105467
v 0.01672540 -0.07184779 0.33087840
v 0.01757276 -0.07317297 0.33102393
v 0.02427099 -0.07481527 0.33099090
v 0.01835548 -0.07681207 0.33098223
v 0.02447336 -0.07862957 0.33095059
v 0.01848328 -0.08196053 0.33091576
v 0.01841096 -0.10457589 0.33106656
v 0.02442619 -0.10451132 0.33105900
v -0.01592015 -0.07515394 0.33094654
v -0.02199300 -0.10447630 0.33110775
v -0.01590520 -0.10464502 0.33101955
v -0.02198113 -0.06517177 0.33109052
v -0.01597391 -0.06951872 0.33098999
v -0.01181141 -0.07179424 0.33104854
v -0.00961050 -0.07070585 0.33097334
v -0.00766127 -0.07035194 0.33116160
v -0.01579061 -0.06514808 0.33093029
v -0.00494482 -0.06407493 0.33115031
v -0.00580327 -0.07057884 0.33119225
v -0.00486477 -0.07088861 0.33100526
v -0.01363047 -0.06728719 0.33108906
v -0.01114648 -0.06548665 0.33100149
v -0.00882932 -0.06443974 0.33116882
v -0.00614807 -0.06407270 0.33106200
v -0.00620406 -0.06402326 0.33106264
v -0.00493402 -0.06428832 0.33105636
v -0.00884096 -0.06444213 0.33102739
v -0.01128802 -0.06543764 0.33112894
v -0.01356884 -0.06712737 0.33104695
v -0.01590484 -0.06935395 0.33101092
v -0.00774525 -0.07038753 0.33105311
v -0.00601841 -0.07062668 0.33121647
v -0.00506204 -0.07086133 0.33113679
v -0.01584307 -0.06505259 0.33093605
v -0.02185415 -0.06517348 0.33104027
v -0.00962892 -0.07065761 0.33115097
v -0.01172296 -0.07178564 0.33116802
v -0.01589598 -0.07526144 0.33116022
v -0.02185260 -0.10470073 0.33119877
v -0.01597156 -0.10465396 0.33099799
vn 0 0 -1
vn 0 0 1
vn -0.9998196463229282 -0.018991440879897844 0
vn -1 0 0
vn 1 0 0
vn 0.9998196463229282 0.018991440879897844 0
vn -0.9919038051942581 -0.1269915006650107 0
vn 0.9919038051942581 0.1269915006650107 0
vn -0.9251424201099137 -0.37962020825184256 0
vn 0.9251424201099137 0.37962020825184256 0
vn -0.8461452903592829 -0.5329522939277068 0
vn 0.8461452903592829 0.5329522939277068 0
vn -0.6342542969654928 -0.7731244963010864 0
vn -0.494797114042179 -0.8690085246621755 0
vn 0.6342542969654928 0.7731244963010864 0
vn 0.494797114042179 0.8690085246621755 0
vn -0.21873499996155843 -0.9757842998285109 0
vn 0.21873499996155843 0.9757842998285109 0
vn 0.034607679129340325 -0.9994009748570792 0
vn -0.034607679129340325 0.9994009748570792 0
vn 0.2915936916066244 -0.9565422724664188 0
vn -0.2915936916066244 0.9565422724664188 0
vn 0.5311957241297522 -0.8472491384865894 0
vn -0.5311957241297522 0.8472491384865894 0
vn 0.636802096207939 -0.7710272954086481 0
vn -0.636802096207939 0.7710272954086481 0
vn 0.9991991741006794 0.040012628962869536 0
vn 0.9984515282359603 0.05562864157316411 0
vn -0.9984515282359603 -0.05562864157316411 0
vn -0.9991991741006794 -0.040012628962869536 0
vn 0.9999256463867973 0.012194330565698002 0
vn -0.9999256463867973 -0.012194330565698002 0
vn 0 -1 0
vn 0 1 0
vn -0.341167891812624 -0.9400023774417432 0
vn 0.341167891812624 0.9400023774417432 0
vn 0.036973328251587195 -0.999316252743845 0
vn -0.036973328251587195 0.999316252743845 0
vn 0.30317608491875314 -0.9529345525970485 0
vn -0.30317608491875314 0.9529345525970485 0
vn 0.539636813507474 -0.8418979210732735 0
vn -0.539636813507474 0.8418979210732735 0
vn 0.637157018667108 -0.7707340225805804 0
vn -0.637157018667108 0.7707340225805804 0
vn -0.6511414195684538 0.7589564228085686 0
vn -0.7026624010113701 0.7115234010241241 0
vn 0.6511414195684538 -0.7589564228085686 0
vn 0.7026624010113701 -0.7115234010241241 0
vn -0.5035009005214004 0.8639947008947098 0
vn 0.5035009005214004 -0.8639947008947098 0
vn -0.27154361022875334 0.9624261362535489 0
vn 0.27154361022875334 -0.9624261362535489 0
vn -0.0005209841813944708 0.9999998642877321 0
vn 0.0005209841813944708 -0.9999998642877321 0
vn 0.13231229720576937 0.9912080790672219 0
vn 0.27633958751771764 0.9610600565888365 0
vn -0.27633958751771764 -0.9610600565888365 0
vn -0.13231229720576937 -0.9912080790672219 0
vn 0.56536989286722 0.824837489593743 0
vn -0.56536989286722 -0.824837489593743 0
vn 0.8078057255371911 0.5894488186342665 0
vn -0.8078057255371911 -0.5894488186342665 0
vn 0.8940659797305902 0.447935289844839 0
vn -0.8940659797305902 -0.447935289844839 0
vn -0.6885119742603246 0.7252249728878276 0
vn -0.7403470012626582 0.6722249011464763 0
vn 0.7403470012626582 -0.6722249011464763 0
vn 0.6885119742603246 -0.7252249728878276 0
vn -0.5372340889692279 0.8434331826821873 0
vn 0.5372340889692279 -0.8434331826821873 0
vn -0.29374310074009014 0.9558844024083651 0
vn 0.29374310074009014 -0.9558844024083651 0
vn -0.02842324936962119 0.9995959778306795 0
vn 0.02842324936962119 -0.9995959778306795 0
vn 0.18992609793894383 0.9817983893456368 0
vn -0.18992609793894383 -0.9817983893456368 0
vn 0.40049218822935856 0.9163001730695352 0
vn -0.40049218822935856 -0.9163001730695352 0
vn 0.612344082070942 0.790591376851971 0
vn -0.612344082070942 -0.790591376851971 0
vn 0.7818583352203341 0.6234561280847977 0
vn -0.7818583352203341 -0.6234561280847977 0
vn 0.894426690999362 0.4472145954996684 0
vn -0.894426690999362 -0.4472145954996684 0
vn 0.9614515180260144 0.2749745051554283 0
vn -0.9614515180260144 -0.2749745051554283 0
vn 0.9925958746319794 0.12146369689572196 0
vn -0.9925958746319794 -0.12146369689572196 0
vn 0.9996557863647704 0.02623563964214785 0
vn -0.9996557863647704 -0.02623563964214785 0
usemtl material_0_0
f 1//1 2//1 3//1
f 2//1 1//1 4//1
f 4//1 1//1 5//1
f 4//1 5//1 6//1
f 6//1 5//1 7//1
f 7//1 5//1 8//1
f 5//1 1//1 9//1
f 10//1 11//1 12//1
f 11//1 10//1 13//1
f 13//1 10//1 8//1
f 13//1 8//1 5//1
f 13//1 5//1 14//1
f 13//1 14//1 15//1
f 15//1 14//1 16//1
f 15//1 16//1 17//1
f 17//1 16//1 18//1
f 17//1 18//1 19//1
f 20//1 21//1 22//1
f 21//1 20//1 23//1
f 23//1 20//1 24//1
f 23//1 24//1 25//1
f 25//1 24//1 26//1
f 25//1 26//1 27//1
f 27//1 26//1 28//1
f 28//1 26//1 29//1
f 28//1 29//1 12//1
f 28//1 12//1 11//1
f 28//1 11//1 30//1
f 30//1 11//1 31//1
f 30//1 31//1 32//1
f 32//1 31//1 33//1
f 33//1 31//1 34//1
f 34//1 31//1 35//1
f 34//1 35//1 36//1
f 36//1 35//1 37//1
f 37//1 35//1 38//1
f 37//1 38//1 39//1
f 39//1 38//1 40//1
f 41//1 42//1 43//1
f 42//1 41//1 44//1
f 44//1 41//1 45//1
f 44//1 45//1 46//1
f 46//1 45//1 47//1
f 46//1 47//1 48//1
f 48//1 47//1 49//1
f 48//1 49//1 50//1
f 48//1 50//1 33//1
f 33//1 50//1 51//1
f 33//1 51//1 32//1
f 52//2 53//2 54//2
f 53//2 55//2 54//2
f 54//2 55//2 56//2
f 55//2 57//2 56//2
f 57//2 58//2 56//2
f 56//2 58//2 59//2
f 58//2 60//2 59//2
f 59//2 60//2 61//2
f 60//2 62//2 61//2
f 61//2 62//2 63//2
f 64//2 63//2 62//2
f 65//2 66//2 67//2
f 67//2 66//2 68//2
f 66//2 69//2 68//2
f 68//2 69//2 70//2
f 70//2 69//2 71//2
f 69//2 72//2 71//2
f 71//2 72//2 54//2
f 54//2 72//2 52//2
f 52//2 72//2 73//2
f 72//2 74//2 73//2
f 73//2 74//2 75//2
f 74//2 76//2 75//2
f 76//2 77//2 75//2
f 77//2 78//2 75//2
f 75//2 78//2 79//2
f 79//2 78//2 80//2
f 78//2 81//2 80//2
f 80//2 81//2 82//2
f 81//2 83//2 82//2
f 82//2 83//2 84//2
f 85//2 84//2 83//2
f 86//2 87//2 88//2
f 87//2 89//2 88//2
f 88//2 89//2 90//2
f 89//2 91//2 90//2
f 90//2 91//2 92//2
f 91//2 93//2 92//2
f 93//2 94//2 92//2
f 94//2 95//2 92//2
f 92//2 95//2 74//2
f 76//2 74//2 95//2
f 96//2 97//2 93//2
f 94//2 93//2 98//2
f 98//2 93//2 99//2
f 99//2 93//2 100//2
f 93//2 97//2 100//2
f 100//2 97//2 101//2
f 102//2 101//2 97//2
f 103//3 104//4 105//3
f 104//4 103//3 106//4
f 107//5 108//6 109//5
f 110//6 109//5 108//6
f 111//7 105//3 112//7
f 105//3 111//7 103//3
f 108//6 113//8 110//6
f 114//8 110//6 113//8
f 115//9 112//7 116//9
f 112//7 115//9 111//7
f 113//8 117//10 114//8
f 118//10 114//8 117//10
f 119//11 116//9 120//11
f 116//9 119//11 115//9
f 117//10 121//12 118//10
f 122//12 118//10 121//12
f 123//13 124//14 125//14
f 124//14 123//13 126//13
f 127//15 128//15 129//16
f 130//16 129//16 128//15
f 125//14 131//17 132//17
f 131//17 125//14 124//14
f 129//16 130//16 133//18
f 134//18 133//18 130//16
f 132//17 135//19 136//19
f 135//19 132//17 131//17
f 133//18 134//18 137//20
f 138//20 137//20 134//18
f 136//19 139//21 140//21
f 139//21 136//19 135//19
f 137//20 138//20 141//22
f 142//22 141//22 138//20
f 140//21 143//23 144//23
f 143//23 140//21 139//21
f 141//22 142//22 145//24
f 146//24 145//24 142//22
f 144//23 147//25 148//25
f 147//25 144//23 143//23
f 145//24 146//24 149//26
f 150//26 149//26 146//24
f 151//27 152//28 153//27
f 152//28 151//27 154//28
f 155//29 156//30 157//29
f 158//30 157//29 156//30
f 159//31 153//27 160//31
f 153//27 159//31 151//27
f 156//30 161//32 158//30
f 162//32 158//30 161//32
f 163//5 159//31 160//31
f 159//31 163//5 164//5
f 165//4 166//4 161//32
f 162//32 161//32 166//4
f 167//33 168//33 169//33
f 168//33 167//33 170//33
f 171//34 172//34 173//34
f 174//34 173//34 172//34
f 175//3 176//4 177//3
f 176//4 175//3 178//4
f 179//5 180//6 181//5
f 182//6 181//5 180//6
f 183//7 177//3 184//7
f 177//3 183//7 175//3
f 180//6 185//8 182//6
f 186//8 182//6 185//8
f 187//9 184//7 188//9
f 184//7 187//9 183//7
f 185//8 189//10 186//8
f 190//10 186//8 189//10
f 191//11 188//9 192//11
f 188//9 191//11 187//9
f 189//10 193//12 190//10
f 194//12 190//10 193//12
f 195//13 196//14 197//14
f 196//14 195//13 198//13
f 199//15 200//15 201//16
f 202//16 201//16 200//15
f 197//14 203//17 204//17
f 203//17 197//14 205//35
f 205//35 197//14 196//14
f 201//16 202//16 206//36
f 206//36 202//16 207//18
f 208//18 207//18 202//16
f 204//17 209//37 210//37
f 209//37 204//17 203//17
f 207//18 208//18 211//38
f 212//38 211//38 208//18
f 210//37 213//39 214//39
f 213//39 210//37 209//37
f 211//38 212//38 215//40
f 216//40 215//40 212//38
f 214//39 217//41 218//41
f 217//41 214//39 213//39
f 215//40 216//40 219//42
f 220//42 219//42 216//40
f 218//41 221//43 222//43
f 221//43 218//41 217//41
f 219//42 220//42 223//44
f 224//44 223//44 220//42
f 225//5 226//5 227//5
f 226//5 225//5 228//5
f 229//4 230//4 231//4
f 232//4 231//4 230//4
f 233//33 234//33 235//33
f 234//33 233//33 236//33
f 237//34 238//34 239//34
f 240//34 239//34 238//34
f 241//4 242//4 243//4
f 242//4 241//4 244//4
f 245//5 246//5 247//5
f 248//5 247//5 246//5
f 249//34 250//34 251//34
f 250//34 249//34 252//34
f 253//33 254//33 255//33
f 256//33 255//33 254//33
f 257//5 258//5 259//5
f 258//5 257//5 260//5
f 261//4 262//4 263//4
f 264//4 263//4 262//4
f 265//45 266//46 267//46
f 266//46 265//45 268//45
f 269//47 270//47 271//48
f 272//48 271//48 270//47
f 273//49 268//45 265//45
f 268//45 273//49 274//49
f 275//50 276//50 269//47
f 270//47 269//47 276//50
f 277//51 274//49 273//49
f 274//49 277//51 278//51
f 279//52 280//52 275//50
f 276//50 275//50 280//52
f 281//53 278//51 277//51
f 278//51 281//53 282//53
f 283//54 284//54 279//52
f 280//52 279//52 284//54
f 285//55 282//53 281//53
f 282//53 285//55 286//56
f 286//56 285//55 287//56
f 288//57 289//58 290//57
f 290//57 289//58 283//54
f 284//54 283//54 289//58
f 291//59 286//56 287//56
f 286//56 291//59 292//59
f 293//60 294//60 290//57
f 288//57 290//57 294//60
f 295//61 292//59 291//59
f 292//59 295//61 296//61
f 297//62 298//62 293//60
f 294//60 293//60 298//62
f 299//63 295//61 300//63
f 295//61 299//63 296//61
f 297//62 301//64 298//62
f 302//64 298//62 301//64
f 303//65 304//66 305//65
f 304//66 303//65 306//66
f 307//67 308//68 309//67
f 310//68 309//67 308//68
f 311//69 303//65 305//65
f 303//65 311//69 312//69
f 313//70 314//70 308//68
f 310//68 308//68 314//70
f 315//71 312//69 311//69
f 312//69 315//71 316//71
f 317//72 318//72 313//70
f 314//70 313//70 318//72
f 319//73 316//71 315//71
f 316//71 319//73 320//73
f 321//74 322//74 317//72
f 318//72 317//72 322//74
f 323//75 320//73 319//73
f 320//73 323//75 324//75
f 325//76 326//76 321//74
f 322//74 321//74 326//76
f 327//77 324//75 323//75
f 324//75 327//77 328//77
f 329//78 330//78 325//76
f 326//76 325//76 330//78
f 331//79 328//77 327//77
f 328//77 331//79 332//79
f 333//80 334//80 329//78
f 330//78 329//78 334//80
f 335//81 331//79 336//81
f 331//79 335//81 332//79
f 333//80 337//82 334//80
f 338//82 334//80 337//82
f 339//83 336//81 340//83
f 336//81 339//83 335//81
f 337//82 341//84 338//82
f 342//84 338//82 341//84
f 343//85 340//83 344//85
f 340//83 343//85 339//83
f 341//84 345//86 342//84
f 346//86 342//84 345//86
f 347//87 344//85 348//87
f 344//85 347//87 343//85
f 345//86 349//88 346//86
f 350//88 346//86 349//88
f 351//89 348//87 352//89
f 348//87 351//89 347//87
f 349//88 353//90 350//88
f 354//90 350//88 353//90
f 355//5 351//89 352//89
f 351//89 355//5 356//5
f 357//4 358//4 353//90
f 354//90 353//90 358//4
f 359//33 360//33 361//33
f 360//33 359//33 362//33
f 363//34 364//34 365//34
f 366//34 365//34 364//34
f 367//2 368//2 369//2
f 368//2 367//2 370//2
f 370//2 367//2 371//2
f 371//2 367//2 372//2
f 371//2 372//2 373//2
f 373//2 372//2 374//2
f 373//2 374//2 375//2
f 375//2 374//2 376//2
f 376//2 374//2 377//2
f 376//2 377//2 378//2
f 378//2 377//2 379//2
f 380//2 381//2 382//2
f 381//2 380//2 383//2
f 383//2 380//2 384//2
f 384//2 380//2 385//2
f 384//2 385//2 386//2
f 386//2 385//2 387//2
f 386//2 387//2 388//2
f 386//2 388//2 389//2
f 389//2 388//2 390//2
f 390//2 388//2 391//2
f 391//2 388//2 392//2
f 391//2 392//2 393//2
f 393//2 392//2 379//2
f 393//2 379//2 377//2
f 393//2 377//2 394//2
f 393//2 394//2 395//2
f 395//2 394//2 396//2
f 395//2 396//2 397//2
f 395//2 397//2 398//2
f 398//2 397//2 399//2
f 398//2 399//2 400//2
f 391//2 401//2 390//2
f 401//2 391//2 402//2
f 401//2 402//2 403//2
f 403//2 402//2 404//2
f 403//2 404//2 405//2
f 406//1 407//1 408//1
f 407//1 409//1 408//1
f 408//1 409//1 410//1
f 409//1 411//1 410//1
f 412//1 410//1 411//1
f 413//1 414//1 415//1
f 414//1 416//1 415//1
f 415//1 416//1 417//1
f 416//1 418//1 417//1
f 418//1 419//1 417//1
f 417//1 419//1 420//1
f 419//1 421//1 420//1
f 421//1 422//1 420//1
f 422//1 423//1 420//1
f 420//1 423//1 411//1
f 423//1 424//1 411//1
f 411//1 424//1 412//1
f 412//1 424//1 425//1
f 425//1 424//1 426//1
f 424//1 427//1 426//1
f 427//1 428//1 426//1
f 426//1 428//1 429//1
f 428//1 430//1 429//1
f 429//1 430//1 431//1
f 431//1 430//1 432//1
f 433//1 432//1 430//1
f 422//1 421//1 434//1
f 434//1 421//1 435//1
f 421//1 436//1 435//1
f 435//1 436//1 437//1
f 437//1 436//1 438//1
f 436//1 439//1 438//1
f 438//1 439//1 440//1
f 439//1 441//1 440//1
f 440//1 441//1 442//1
f 442//1 441//1 443//1
f 444//1 443//1 441//1
f 445//2 446//2 447//2
f 446//2 445//2 448//2
f 448//2 445//2 449//2
f 449//2 445//2 450//2
f 449//2 450//2 451//2
f 449//2 451//2 452//2
f 448//2 449//2 453//2
f 454//2 455//2 456//2
f 455//2 454//2 452//2
f 452//2 454//2 449//2
f 449//2 454//2 457//2
f 457//2 454//2 458//2
f 458//2 454//2 459//2
f 459//2 454//2 460//2
f 461//1 462//1 463//1
f 463//1 462//1 464//1
f 464//1 462//1 465//1
f 465//1 462//1 466//1
f 466//1 462//1 467//1
f 467//1 462//1 468//1
f 469//1 468//1 462//1
f 470//1 466//1 471//1
f 467//1 472//1 466//1
f 472//1 473//1 466//1
f 473//1 474//1 466//1
f 466//1 474//1 471//1
f 471//1 474//1 475//1
f 476//1 475//1 474//1
