# SSTK version 0.8.0
# 9
mtllib original_9.mtl
o #ID57
v -0.08790003 0.79324179 0.03817862
v -0.08783362 0.79315815 -0.04271513
v -0.09494571 0.79308978 -0.00239776
v -0.08725123 0.79317978 -0.00238520
v -0.08232795 0.79326949 0.03577010
v -0.06796411 0.79341860 0.07115617
v -0.06416191 0.79321430 0.06712644
v -0.04034269 0.79323519 0.09310739
v -0.03802088 0.79331239 0.08732978
v -0.00499703 0.79304009 0.10120810
v -0.00494593 0.79338616 0.09487053
v 0.03025483 0.79325240 0.09287184
v 0.02827473 0.79336694 0.08743097
v 0.05428910 0.79320458 0.06690412
v 0.05805172 0.79321560 0.07114816
v 0.07251559 0.79321225 0.03578365
v 0.07787106 0.79320934 0.03808731
v 0.07565836 0.79320235 -0.00233204
v -0.08310869 0.79329338 -0.04040358
v -0.06791282 0.79332669 -0.07570824
v -0.06429670 0.79324768 -0.07164291
v -0.04025430 0.79324583 -0.09752092
v -0.03816169 0.79319570 -0.09197647
v -0.00508773 0.79325269 -0.10563991
v -0.00498412 0.79312087 -0.09956345
v 0.02808492 0.79318517 -0.09215358
v 0.03013820 0.79312068 -0.09752248
v 0.05418867 0.79326679 -0.07157536
v 0.05788699 0.79330956 -0.07573096
v 0.07267575 0.79322575 -0.04043574
v 0.07798203 0.79334319 -0.04272482
v 0.08476182 0.79324354 -0.00235371
v 0.08482891 0.79316028 -0.00231716
v 0.07793409 0.79328212 0.03821207
v 0.07786915 0.79333865 -0.04274574
v 0.07563401 0.79325611 -0.00227235
v 0.07259299 0.79314225 -0.04050708
v 0.05795103 0.79322101 -0.07598524
v 0.05423027 0.79329254 -0.07158416
v 0.03016498 0.79337266 -0.09744433
v 0.02809010 0.79317392 -0.09205090
v -0.00507745 0.79311666 -0.10557247
v -0.00503768 0.79320301 -0.09949644
v -0.03809068 0.79306836 -0.09190518
v -0.04027301 0.79315997 -0.09763800
v -0.06422272 0.79319521 -0.07158910
v -0.06794775 0.79334835 -0.07592500
v -0.08297981 0.79308836 -0.04053497
v -0.08733085 0.79330436 -0.00246986
v -0.08790909 0.79334548 -0.04262310
v 0.07244073 0.79326492 0.03593256
v 0.05799016 0.79320758 0.07120285
v 0.05418502 0.79325096 0.06689956
v 0.03013095 0.79328095 0.09311576
v 0.02824999 0.79311624 0.08737318
v -0.00498738 0.79332474 0.09496443
v -0.00511828 0.79330234 0.10117584
v -0.03813929 0.79342469 0.08742068
v -0.04025332 0.79316264 0.09295583
v -0.06412214 0.79315726 0.06693418
v -0.06800045 0.79322997 0.07138403
v -0.08226828 0.79318885 0.03581124
v -0.08777069 0.79305405 0.03825146
v -0.09495822 0.79309992 -0.00226376
v 0.07793773 0.79316002 0.03813373
v 0.05793042 0.79320983 0.07131664
v 0.08769249 0.75190189 0.04286254
v 0.08762941 0.75180598 0.04281590
v 0.05793954 0.79326493 0.07125459
v 0.07801115 0.79313449 0.03803597
v 0.09543147 0.75184301 -0.00228308
v 0.07799252 0.79316914 0.03816278
v 0.08768360 0.75177040 0.04276759
v 0.08492260 0.79326399 -0.00237453
v 0.08495906 0.79327279 -0.00231512
v 0.09529827 0.75172708 -0.00243205
v 0.07785038 0.79313066 0.03815837
v 0.08771837 0.75175925 0.04279745
v 0.08764497 0.75189304 -0.04750663
v 0.08508126 0.79320903 -0.00223528
v 0.09557615 0.75177766 -0.00224270
v 0.07801382 0.79321758 -0.04291537
v 0.07787721 0.79327347 -0.04283716
v 0.08750845 0.75177111 -0.04739010
v 0.08503356 0.79331127 -0.00234260
v 0.09560021 0.75185801 -0.00230520
v 0.06542438 0.75180780 -0.08464536
v 0.05807553 0.79339724 -0.07583531
v 0.07776574 0.79322593 -0.04266415
v 0.07789962 0.79334040 -0.04272841
v 0.05802456 0.79338344 -0.07597957
v 0.06535365 0.75174103 -0.08461150
v 0.03010927 0.79324636 -0.09777376
v 0.06541952 0.75185242 -0.08452160
v 0.03423975 0.75192314 -0.10874283
v 0.05806971 0.79327352 -0.07597515
v 0.05793775 0.79321480 -0.07592088
v 0.03015398 0.79322392 -0.09770090
v 0.06525724 0.75180174 -0.08442622
v 0.03435005 0.75190126 -0.10884044
v -0.00515033 0.79323354 -0.10571237
v 0.03433622 0.75172017 -0.10880380
v -0.00494842 0.75194980 -0.11792141
v 0.03021764 0.79312255 -0.09758107
v 0.03011967 0.79310609 -0.09754774
v -0.00485841 0.79314623 -0.10565465
v 0.03415805 0.75188950 -0.10888251
v -0.00501231 0.75172690 -0.11797136
v -0.04017419 0.79310866 -0.09770610
v -0.00489532 0.75176591 -0.11777149
v -0.04432025 0.75189843 -0.10892523
v -0.00489457 0.79324061 -0.10580861
v -0.00484451 0.79325879 -0.10581534
v -0.04014623 0.79324420 -0.09757487
v -0.00506230 0.75182963 -0.11775796
v -0.04435147 0.75174258 -0.10881429
v -0.06801629 0.79317416 -0.07586144
v -0.04434520 0.75177233 -0.10883915
v -0.07536929 0.75190821 -0.08445622
v -0.04016669 0.79333845 -0.09758429
v -0.04022501 0.79334554 -0.09765550
v -0.06798370 0.79315172 -0.07579047
v -0.04413358 0.75183034 -0.10884696
v -0.07537165 0.75183054 -0.08441241
v -0.06791011 0.79337215 -0.07590203
v -0.09747159 0.75194248 -0.04732791
v -0.08784196 0.79327755 -0.04274227
v -0.08776413 0.79324764 -0.04278698
v -0.09765372 0.75184479 -0.04744318
v -0.06783355 0.79320112 -0.07591943
v -0.08771466 0.79319148 -0.04279149
v -0.10546016 0.75166343 -0.00211845
v -0.09495564 0.79317250 -0.00234713
v -0.09753356 0.75182877 -0.04747106
v -0.09756739 0.75192582 -0.04746818
v -0.08783283 0.79333879 -0.04283548
v -0.10536806 0.75168850 -0.00221681
v -0.09504130 0.79326318 -0.00224658
v -0.08788693 0.79307123 0.03829181
v -0.10542152 0.75178921 -0.00237531
v -0.09744902 0.75187039 0.04279686
v -0.09495657 0.79320155 -0.00231246
v -0.09478000 0.79335990 -0.00221926
v -0.08779422 0.79333540 0.03818858
v -0.10540124 0.75184399 -0.00242472
v -0.09758163 0.75189789 0.04287345
v -0.08789608 0.79315816 0.03804997
v -0.07524898 0.75174075 0.07990425
v -0.06793146 0.79319465 0.07126312
v -0.06780094 0.79331975 0.07135452
v -0.07536222 0.75181666 0.07980333
v -0.08788053 0.79338582 0.03817252
v -0.04027526 0.79329221 0.09287300
v -0.07537820 0.75184002 0.07985262
v -0.04411516 0.75177567 0.10418101
v -0.06791992 0.79331743 0.07122424
v -0.06795432 0.79308629 0.07124990
v -0.04017680 0.79315769 0.09313232
v -0.07538177 0.75183861 0.07988919
v -0.04404026 0.75177901 0.10421763
v -0.00507964 0.79313345 0.10105844
v -0.04426103 0.75184741 0.10421491
v -0.00499780 0.75190393 0.11330614
v -0.04032529 0.79328587 0.09301151
v -0.04011857 0.79305764 0.09289156
v -0.00502903 0.79311711 0.10110331
v -0.04430128 0.75191283 0.10427493
v -0.00482593 0.75193922 0.11326418
v 0.03014584 0.79305423 0.09302982
v -0.00503017 0.75185534 0.11316756
v 0.03416088 0.75199263 0.10423534
v -0.00502930 0.79306007 0.10114491
v -0.00496999 0.79320202 0.10112918
v 0.03019052 0.79330608 0.09312364
v -0.00494869 0.75191276 0.11323638
v 0.03423866 0.75180795 0.10423437
v 0.05790943 0.79326494 0.07116304
v 0.03417987 0.75168016 0.10428139
v 0.06536967 0.75180135 0.07982579
v 0.03022784 0.79328978 0.09297681
v 0.03013688 0.79317060 0.09295952
v 0.05793960 0.79316698 0.07138879
v 0.03432898 0.75180830 0.10427958
v 0.06546763 0.75179059 0.07998036
v 0.08754877 0.75185963 0.04289913
v 0.05791184 0.79319054 0.07122554
v 0.06551425 0.75175113 0.07984292
v 0.06555695 0.75196351 0.07986407
v 0.05799087 0.79338874 0.07124965
v 0.08781921 0.75194555 0.04266813
v 0.06532594 0.75186293 -0.08440458
v 0.07787818 0.79307395 -0.04277686
v 0.08764065 0.75181502 -0.04743905
v 0.08757587 0.75172418 -0.04736757
v 0.07791585 0.79322873 -0.04281273
v 0.06542647 0.75200001 -0.08439897
v -0.07536645 0.75165715 -0.08441951
v -0.09758285 0.75177436 -0.04739675
v -0.06806365 0.79321860 -0.07591832
v -0.06794445 0.79323873 -0.07593219
v -0.09759353 0.75194261 -0.04755859
v -0.07540010 0.75174116 -0.08459311
v -0.08782396 0.79309722 0.03833853
v -0.09760114 0.75173919 0.04292353
v -0.07528970 0.75179947 0.07991312
v -0.07547046 0.75190229 0.07995004
v -0.09749494 0.75166157 0.04285689
v -0.08790289 0.79322971 0.03815321
vn 0 1 0
vn 0 -1 0
vn 0.8292709945834341 0.2512769983587289 0.4991687967395693
vn -0.8292709945834341 -0.2512769983587289 -0.4991687967395693
vn 0.9556868731407745 0.24359219315393163 0.16530409535418972
vn -0.9556868731407745 -0.24359219315393163 -0.16530409535418972
vn 0.9556868731407745 0.24359219315393169 -0.1653040953541896
vn -0.9556868731407745 -0.24359219315393169 0.1653040953541896
vn 0.8289219321395793 0.2528411098033442 -0.4989587193459995
vn -0.8289219321395793 -0.2528411098033442 0.4989587193459995
vn 0.5941112023885974 0.2641439010619788 -0.759776203054646
vn -0.5941112023885974 -0.2641439010619788 0.759776203054646
vn 0.21441020541987196 0.2747435069449804 -0.9373069236932916
vn -0.21441020541987196 -0.2747435069449804 0.9373069236932916
vn -0.21441020541987196 0.2747435069449804 -0.9373069236932916
vn 0.21441020541987196 -0.2747435069449804 0.9373069236932916
vn -0.5941112023885974 0.2641439010619788 -0.759776203054646
vn 0.5941112023885974 -0.2641439010619788 0.759776203054646
vn -0.8292709945834341 0.25127699835872913 -0.4991687967395692
vn 0.8292709945834341 -0.25127699835872913 0.4991687967395692
vn -0.9556868731407745 0.24359219315393169 -0.1653040953541896
vn 0.9556868731407745 -0.24359219315393169 0.1653040953541896
vn -0.9556868731407745 0.24359219315393163 0.16530409535418972
vn 0.9556868731407745 -0.24359219315393163 -0.16530409535418972
vn -0.8289219321395793 0.25284110980334396 0.4989587193459996
vn 0.8289219321395793 -0.25284110980334396 -0.4989587193459996
vn -0.5941112023885974 0.2641439010619785 0.7597762030546462
vn 0.5941112023885974 -0.2641439010619785 -0.7597762030546462
vn -0.2144102054198719 0.2747435069449799 0.9373069236932916
vn 0.2144102054198719 -0.2747435069449799 -0.9373069236932916
vn 0.2144102054198719 0.2747435069449799 0.9373069236932916
vn -0.2144102054198719 -0.2747435069449799 -0.9373069236932916
vn 0.5941112023885974 0.2641439010619785 0.7597762030546462
vn -0.5941112023885974 -0.2641439010619785 -0.7597762030546462
vn 0.8297746027311368 0.2527140008317878 0.4976040016378238
vn -0.8297746027311368 -0.2527140008317878 -0.4976040016378238
vn 0.8300871207785501 0.2513147062908521 -0.4977914124606002
vn -0.8300871207785501 -0.2513147062908521 0.4977914124606002
vn -0.8297746027311368 0.252714000831788 -0.4976040016378237
vn 0.8297746027311368 -0.252714000831788 0.4976040016378237
vn -0.8300871207785501 0.2513147062908519 0.4977914124606003
vn 0.8300871207785501 -0.2513147062908519 -0.4977914124606003
usemtl material_0_0
f 1//1 2//1 3//1
f 2//1 1//1 4//1
f 4//1 1//1 5//1
f 5//1 1//1 6//1
f 5//1 6//1 7//1
f 7//1 6//1 8//1
f 7//1 8//1 9//1
f 9//1 8//1 10//1
f 9//1 10//1 11//1
f 11//1 10//1 12//1
f 11//1 12//1 13//1
f 13//1 12//1 14//1
f 14//1 12//1 15//1
f 14//1 15//1 16//1
f 16//1 15//1 17//1
f 16//1 17//1 18//1
f 2//1 19//1 20//1
f 19//1 2//1 4//1
f 20//1 19//1 21//1
f 20//1 21//1 22//1
f 22//1 21//1 23//1
f 22//1 23//1 24//1
f 24//1 23//1 25//1
f 24//1 25//1 26//1
f 24//1 26//1 27//1
f 27//1 26//1 28//1
f 27//1 28//1 29//1
f 29//1 28//1 30//1
f 29//1 30//1 31//1
f 31//1 30//1 18//1
f 31//1 18//1 17//1
f 31//1 17//1 32//1
f 33//2 34//2 35//2
f 34//2 36//2 35//2
f 36//2 37//2 35//2
f 35//2 37//2 38//2
f 37//2 39//2 38//2
f 38//2 39//2 40//2
f 39//2 41//2 40//2
f 40//2 41//2 42//2
f 41//2 43//2 42//2
f 43//2 44//2 42//2
f 42//2 44//2 45//2
f 44//2 46//2 45//2
f 45//2 46//2 47//2
f 46//2 48//2 47//2
f 49//2 50//2 48//2
f 47//2 48//2 50//2
f 36//2 34//2 51//2
f 34//2 52//2 51//2
f 51//2 52//2 53//2
f 52//2 54//2 53//2
f 53//2 54//2 55//2
f 55//2 54//2 56//2
f 54//2 57//2 56//2
f 56//2 57//2 58//2
f 57//2 59//2 58//2
f 58//2 59//2 60//2
f 59//2 61//2 60//2
f 60//2 61//2 62//2
f 61//2 63//2 62//2
f 62//2 63//2 49//2
f 49//2 63//2 50//2
f 64//2 50//2 63//2
f 65//3 66//3 67//3
f 68//4 69//4 70//4
f 71//5 72//5 73//5
f 72//5 71//5 74//5
f 75//6 76//6 77//6
f 78//6 77//6 76//6
f 79//7 80//7 81//7
f 80//7 79//7 82//7
f 83//8 84//8 85//8
f 86//8 85//8 84//8
f 87//9 88//9 89//9
f 90//10 91//10 92//10
f 93//11 94//11 95//11
f 94//11 93//11 96//11
f 97//12 98//12 99//12
f 100//12 99//12 98//12
f 101//13 102//13 103//13
f 102//13 101//13 104//13
f 105//14 106//14 107//14
f 108//14 107//14 106//14
f 109//15 110//15 111//15
f 110//15 109//15 112//15
f 113//16 114//16 115//16
f 116//16 115//16 114//16
f 117//17 118//17 119//17
f 118//17 117//17 120//17
f 121//18 122//18 123//18
f 124//18 123//18 122//18
f 125//19 126//19 127//19
f 128//20 129//20 130//20
f 131//21 132//21 133//21
f 132//21 131//21 134//21
f 135//22 136//22 137//22
f 138//22 137//22 136//22
f 139//23 140//23 141//23
f 140//23 139//23 142//23
f 143//24 144//24 145//24
f 146//24 145//24 144//24
f 147//25 148//25 149//25
f 150//26 151//26 152//26
f 153//27 154//27 155//27
f 154//27 153//27 156//27
f 157//28 158//28 159//28
f 160//28 159//28 158//28
f 161//29 162//29 163//29
f 162//29 161//29 164//29
f 165//30 166//30 167//30
f 168//30 167//30 166//30
f 169//31 170//31 171//31
f 170//31 169//31 172//31
f 173//32 174//32 175//32
f 176//32 175//32 174//32
f 177//33 178//33 179//33
f 178//33 177//33 180//33
f 181//34 182//34 183//34
f 184//34 183//34 182//34
f 185//35 186//35 187//35
f 188//36 189//36 190//36
f 191//37 192//37 193//37
f 194//38 195//38 196//38
f 197//39 198//39 199//39
f 200//40 201//40 202//40
f 203//41 204//41 205//41
f 206//42 207//42 208//42
