# SSTK version 0.8.0
# 50
mtllib original-50.mtl
o #ID335
v 0.33762681 0.58233058 0.11991499
v 0.33763026 0.58223361 0.00486916
v 0.34267526 0.58222540 0.06244581
v 0.32267745 0.58217714 0.17561556
v 0.32261308 0.58221055 -0.05080882
v 0.29819192 0.58222519 -0.10312956
v 0.29834329 0.58217629 0.22789416
v 0.29286435 0.58218797 0.06241432
v 0.28855062 0.58231576 0.11125622
v 0.26518360 0.58225724 0.27515441
v 0.27586469 0.58219454 0.15850301
v 0.25508147 0.58226814 0.20311883
v 0.22426230 0.58234335 0.31602815
v 0.22701248 0.58218531 0.24325310
v 0.19227508 0.58224451 0.27780586
v 0.17707746 0.58221266 0.34916929
v 0.15221497 0.58235190 0.30591350
v 0.12480715 0.58227240 0.37361204
v 0.10770063 0.58219773 0.32671196
v 0.06888633 0.58226907 0.38840738
v 0.06025728 0.58231616 0.33944688
v 0.01147616 0.58234319 0.39345193
v 0.01148491 0.58233992 0.34368813
v -0.03737201 0.58225835 0.33947284
v -0.04612587 0.58223778 0.38846028
v -0.08475991 0.58224332 0.32678883
v -0.10180260 0.58233396 0.37345837
v -0.12923350 0.58234735 0.30590880
v -0.15415341 0.58230942 0.34925659
v -0.16941380 0.58223879 0.27786297
v -0.20139513 0.58228775 0.31601663
v -0.20414193 0.58228396 0.24314917
v -0.24227436 0.58221585 0.27523478
v -0.23212114 0.58217422 0.20302107
v -0.25286864 0.58222019 0.15859841
v -0.27530029 0.58231936 0.22804493
v -0.26551500 0.58228666 0.11120161
v -0.26987668 0.58223305 0.06247170
v -0.27547478 0.58228443 -0.10313175
v -0.29984670 0.58223901 -0.05091363
v -0.29974370 0.58235299 0.17572023
v -0.31473344 0.58218015 0.11990685
v -0.31480438 0.58228150 0.00488120
v -0.31980368 0.58232998 0.06249150
v 0.28853490 0.58219072 0.01355589
v 0.26512231 0.58227822 -0.15038646
v 0.27589249 0.58229799 -0.03387020
v 0.25517334 0.58225849 -0.07817138
v 0.22429796 0.58235877 -0.19128833
v 0.22701210 0.58217464 -0.11834564
v 0.19224431 0.58228965 -0.15311343
v 0.17705947 0.58230025 -0.22433875
v 0.15220603 0.58219770 -0.18121663
v 0.12468112 0.58233221 -0.24868304
v 0.10776315 0.58234208 -0.20200422
v 0.06893107 0.58236327 -0.26379792
v 0.06034736 0.58221321 -0.21461221
v 0.01152487 0.58217321 -0.26878336
v 0.01152237 0.58232326 -0.21884273
v -0.04602557 0.58218784 -0.26370851
v -0.03731698 0.58219847 -0.21467493
v -0.08482627 0.58222613 -0.20192176
v -0.10184167 0.58232588 -0.24885047
v -0.12926274 0.58236207 -0.18109415
v -0.15412349 0.58224169 -0.22427347
v -0.16930578 0.58227303 -0.15298603
v -0.20135250 0.58227521 -0.19119267
v -0.20405431 0.58224643 -0.11839945
v -0.24235859 0.58224037 -0.15043809
v -0.23217809 0.58217557 -0.07820372
v -0.25284391 0.58223411 -0.03384427
v -0.26551501 0.58222267 0.01362632
v -0.26980161 0.58235282 0.06236666
v -0.26555938 0.58221663 0.01347972
v -0.27540220 0.58234915 -0.10309248
v -0.25293286 0.58231664 -0.03381868
v -0.24220714 0.58236529 -0.15036492
v -0.23211329 0.58235123 -0.07819263
v -0.20400177 0.58230020 -0.11845198
v -0.20135312 0.58227201 -0.19125752
v -0.16945437 0.58234082 -0.15301937
v -0.15424913 0.58235522 -0.22436274
v -0.12913506 0.58225992 -0.18129190
v -0.10173681 0.58227910 -0.24879541
v -0.08480815 0.58227356 -0.20191235
v -0.04613121 0.58224161 -0.26369159
v -0.03741420 0.58218534 -0.21464772
v 0.01148918 0.58230047 -0.21897204
v 0.01138768 0.58219681 -0.26871025
v 0.06021919 0.58226588 -0.21458968
v 0.06886722 0.58236284 -0.26371533
v 0.10764464 0.58221923 -0.20181844
v 0.12464016 0.58228724 -0.24886050
v 0.15221600 0.58235756 -0.18116093
v 0.17712273 0.58226786 -0.22446081
v 0.19236788 0.58230716 -0.15300033
v 0.22437369 0.58223250 -0.19128659
v 0.22694477 0.58223755 -0.11830714
v 0.25501857 0.58232546 -0.07832113
v 0.26508251 0.58232034 -0.15047496
v 0.27577444 0.58223350 -0.03380122
v 0.28842811 0.58223664 0.01358917
v 0.29284332 0.58230269 0.06231567
v 0.29835310 0.58221297 -0.10321855
v -0.31974555 0.58224002 0.06230145
v -0.31467944 0.58223764 0.11989117
v -0.31478411 0.58234223 0.00480839
v -0.29970485 0.58228715 -0.05095038
v -0.29984397 0.58218984 0.17571876
v -0.27545296 0.58229219 0.22791371
v -0.26558468 0.58218066 0.11121611
v -0.25286446 0.58223932 0.15856370
v -0.24226475 0.58232993 0.27527589
v -0.23216904 0.58229580 0.20294893
v -0.20397956 0.58225929 0.24315599
v -0.20149613 0.58232724 0.31610853
v -0.16929595 0.58229272 0.27795337
v -0.15415815 0.58222621 0.34911203
v -0.12923130 0.58221361 0.30599795
v -0.10190509 0.58232459 0.37360075
v -0.08474023 0.58226485 0.32666695
v -0.04606425 0.58223037 0.38848610
v -0.03745428 0.58225122 0.33936165
v 0.01148067 0.58232577 0.39355804
v 0.01139456 0.58229450 0.34358489
v 0.06023677 0.58235036 0.33930062
v 0.06897239 0.58233694 0.38846545
v 0.10763085 0.58219056 0.32675844
v 0.12468345 0.58230523 0.37362190
v 0.15212532 0.58219737 0.30606188
v 0.17701767 0.58228495 0.34926190
v 0.19231718 0.58233987 0.27781103
v 0.22426246 0.58221422 0.31603417
v 0.22697877 0.58220633 0.24313522
v 0.25519110 0.58226092 0.20299174
v 0.26526125 0.58218988 0.27525107
v 0.27572992 0.58233820 0.15849507
v 0.28853247 0.58226640 0.11121824
v 0.29832537 0.58235589 0.22790135
v 0.32278242 0.58226246 0.17558279
v 0.32270997 0.58221695 -0.05095133
v 0.33758211 0.58226359 0.00482942
v 0.33761407 0.58223671 0.11980532
v 0.34268246 0.58228325 0.06238832
v -0.15414450 0.58217244 -0.22433277
v -0.20144285 0.62396767 -0.19130961
v -0.15414462 0.62393341 -0.22434890
v -0.20146517 0.58225137 -0.19132508
v -0.20149535 0.58228750 -0.19116629
v -0.15414234 0.58236158 -0.22445606
v -0.20152759 0.62407406 -0.19124367
v -0.15424789 0.62405179 -0.22441179
v -0.10184914 0.58229940 -0.24871995
v -0.10176694 0.62403256 -0.24878981
v -0.10189970 0.58236945 -0.24879854
v -0.10178600 0.62396855 -0.24882201
v -0.04604049 0.58235993 -0.26363100
v -0.04603008 0.62393095 -0.26372369
v -0.04603229 0.58224874 -0.26363784
v -0.04607666 0.62400578 -0.26374209
v 0.01140505 0.62401516 -0.26880939
v 0.01147304 0.58235001 -0.26878783
v 0.01144167 0.58230239 -0.26882180
v 0.01143756 0.62389434 -0.26864297
v 0.06897694 0.62403425 -0.26373605
v 0.06889386 0.58224106 -0.26366586
v 0.06897379 0.58219147 -0.26367849
v 0.06892751 0.62396246 -0.26377918
v 0.12466730 0.62391854 -0.24880033
v 0.12467182 0.58236731 -0.24868259
v 0.12469208 0.58231581 -0.24882976
v 0.12464227 0.62391295 -0.24879529
v 0.17710560 0.62404129 -0.22434060
v 0.17707260 0.58234753 -0.22433030
v 0.17709524 0.58230744 -0.22435641
v 0.17698175 0.62394107 -0.22436983
v 0.22431994 0.58219434 -0.19119614
v 0.22442617 0.62404055 -0.19116613
v 0.22430290 0.58222885 -0.19131929
v 0.22425471 0.62402545 -0.19127772
v 0.26514053 0.58218671 -0.15044118
v 0.26512164 0.62398218 -0.15045545
v 0.26522993 0.58218121 -0.15053664
v 0.26508891 0.62391478 -0.15040611
v 0.29828997 0.62391684 -0.10325269
v 0.29835250 0.58229828 -0.10310850
v 0.29828742 0.62405981 -0.10308103
v 0.29830781 0.58220738 -0.10315895
v 0.32274560 0.62401339 -0.05086175
v 0.32276110 0.58232830 -0.05087215
v 0.32274210 0.62401819 -0.05088273
v 0.32260341 0.58235391 -0.05090057
v 0.33761603 0.62407621 0.00489525
v 0.33765980 0.58223712 0.00485619
v 0.33766798 0.62389485 0.00489218
v 0.33771536 0.58230659 0.00487237
v 0.34273780 0.58231739 0.06235377
v 0.34257631 0.62405753 0.06240553
v 0.34265961 0.58225846 0.06243992
v 0.34256376 0.62407573 0.06239251
v 0.33758775 0.62403193 0.11990969
v 0.33753482 0.58234135 0.11996772
v 0.33753951 0.62405545 0.11985191
v 0.33754405 0.58224302 0.11993194
v 0.32267795 0.58224333 0.17557568
v 0.32269833 0.62390765 0.17569035
v 0.32277223 0.58231345 0.17560604
v 0.32260648 0.62398484 0.17571859
v 0.29837853 0.62395017 0.22786631
v 0.29825250 0.58228175 0.22801075
v 0.29833135 0.62395553 0.22795362
v 0.29829607 0.58231040 0.22796309
v 0.26523325 0.62393947 0.27518041
v 0.26519437 0.58222324 0.27515838
v 0.26519843 0.62395917 0.27528833
v 0.26524636 0.58221246 0.27525030
v 0.22444683 0.62400054 0.31599355
v 0.22429776 0.58231040 0.31607540
v 0.22429483 0.62398493 0.31601872
v 0.22428067 0.58231715 0.31607764
v 0.17703122 0.62401967 0.34919911
v 0.17713314 0.58227679 0.34914196
v 0.17700927 0.58235107 0.34910565
v 0.17700924 0.62400707 0.34912051
v 0.12466173 0.58228686 0.37353430
v 0.12481306 0.62396800 0.37360311
v 0.12481423 0.58222666 0.37345615
v 0.12468726 0.62396193 0.37357133
v 0.06889921 0.58220568 0.38856594
v 0.06892660 0.62392000 0.38840612
v 0.06902415 0.58219798 0.38847164
v 0.06892170 0.62401946 0.38839574
v 0.01154455 0.62394196 0.39357021
v 0.01139005 0.58221341 0.39355932
v 0.01152861 0.58233099 0.39343563
v 0.01141814 0.62392564 0.39361699
v -0.04603928 0.58227127 0.38847279
v -0.04601561 0.62402482 0.38846955
v -0.04613777 0.58234679 0.38843189
v -0.04611244 0.62389891 0.38851952
v -0.10188617 0.62402558 0.37354361
v -0.10181230 0.58236470 0.37349286
v -0.10179758 0.58221113 0.37351925
v -0.10174036 0.62395828 0.37359786
v -0.15417216 0.62390049 0.34925476
v -0.15416135 0.58228719 0.34910771
v -0.15424306 0.58220479 0.34910460
v -0.15418256 0.62399865 0.34922976
v -0.20141667 0.58224275 0.31605798
v -0.20138950 0.62397005 0.31596869
v -0.20137225 0.58234334 0.31602327
v -0.20141053 0.62393249 0.31596747
v -0.24227323 0.62408106 0.27515746
v -0.24217119 0.58231863 0.27516273
v -0.24219056 0.58233533 0.27522135
v -0.24236352 0.62407845 0.27529184
v -0.27540293 0.58219160 0.22790705
v -0.27541453 0.62400141 0.22805892
v -0.27535550 0.62405897 0.22796147
v -0.27532298 0.58220508 0.22803800
v -0.29979617 0.62402209 0.17564169
v -0.29986397 0.58218336 0.17562603
v -0.29981583 0.58225541 0.17564099
v -0.29968692 0.62397848 0.17559205
v -0.31463414 0.58233231 0.11981002
v -0.31464412 0.62395687 0.11980539
v -0.31465468 0.62396781 0.11998561
v -0.31465147 0.58232619 0.11995347
v -0.31970239 0.62389288 0.06235268
v -0.31978390 0.58224722 0.06248595
v -0.31974300 0.58236525 0.06229589
v -0.31980791 0.62404272 0.06247734
v -0.31470746 0.62394335 0.00489556
v -0.31469832 0.58236681 0.00494503
v -0.31477519 0.58236094 0.00490539
v -0.31470523 0.62390428 0.00488500
v -0.29972753 0.58220918 -0.05080684
v -0.29973367 0.62397217 -0.05091251
v -0.29975696 0.62403858 -0.05086220
v -0.29982988 0.58227415 -0.05076971
v -0.27538433 0.58232631 -0.10317972
v -0.27534836 0.62389320 -0.10308152
v -0.27537593 0.62389361 -0.10322276
v -0.27528750 0.58223898 -0.10317855
v -0.24219059 0.58231865 -0.15049909
v -0.24220051 0.62400631 -0.15036440
v -0.24219451 0.62396430 -0.15053066
v -0.24234655 0.58227638 -0.15042759
v 0.33767610 0.62400385 0.00482794
v 0.33769101 0.62400704 0.11988337
v 0.34257326 0.62407972 0.06246949
v 0.32265034 0.62405966 -0.05082023
v 0.32272370 0.62402805 0.17562013
v 0.29818477 0.62402558 -0.10311197
v 0.30950403 0.62391445 0.06232425
v 0.30497277 0.62398504 0.01066993
v 0.29143052 0.62394391 -0.03942513
v 0.26526361 0.62393332 -0.15051817
v 0.26943259 0.62393049 -0.08654961
v 0.23972704 0.62406899 -0.12903702
v 0.22429816 0.62397862 -0.19127799
v 0.20298275 0.62393904 -0.16585934
v 0.17714022 0.62398106 -0.22443261
v 0.16041263 0.62404161 -0.19562236
v 0.12467358 0.62392694 -0.24884361
v 0.11326652 0.62392716 -0.21750887
v 0.06904389 0.62406891 -0.26365970
v 0.06325079 0.62400767 -0.23100124
v 0.01135801 0.62393355 -0.26865915
v 0.01136024 0.62393857 -0.23557265
v -0.04613428 0.62405394 -0.26379211
v -0.04029104 0.62390879 -0.23105002
v -0.09050213 0.62405940 -0.21752819
v -0.10183680 0.62399341 -0.24879892
v -0.13748263 0.62391294 -0.19563276
v -0.15412778 0.62394947 -0.22444817
v -0.18015547 0.62396437 -0.16583768
v -0.20141660 0.62393922 -0.19128240
v -0.21680376 0.62405897 -0.12918489
v -0.24223860 0.62388930 -0.15039960
v -0.24658578 0.62400185 -0.08659254
v -0.27536848 0.62390477 -0.10311538
v -0.26845221 0.62399499 -0.03943998
v -0.28199275 0.62390958 0.01059227
v -0.29987709 0.62392446 -0.05082533
v -0.28648665 0.62389086 0.06230917
v 0.29833726 0.62406098 0.22803016
v 0.30485191 0.62400946 0.11404021
v 0.29139955 0.62403980 0.16429434
v 0.26520589 0.62390801 0.27520966
v 0.26952609 0.62407478 0.21143710
v 0.23968142 0.62403367 0.25378191
v 0.22436259 0.62390004 0.31596235
v 0.20288864 0.62391810 0.29053689
v 0.17700381 0.62402550 0.34919668
v 0.16051374 0.62396016 0.32039843
v 0.12476959 0.62397572 0.37349775
v 0.11335200 0.62407466 0.34238292
v 0.06893628 0.62391560 0.38842362
v 0.06328466 0.62403856 0.35583022
v 0.01136252 0.62402007 0.39346518
v 0.01137317 0.62398773 0.36028416
v -0.04609545 0.62390018 0.38852208
v -0.04026081 0.62393247 0.35583326
v -0.09038786 0.62401810 0.34227719
v -0.10183910 0.62404482 0.37361621
v -0.13755442 0.62401855 0.32042904
v -0.15418232 0.62393976 0.34908689
v -0.18003306 0.62400121 0.29065467
v -0.20140116 0.62389100 0.31608197
v -0.21672889 0.62388943 0.25388391
v -0.24236032 0.62403201 0.27515195
v -0.24662047 0.62398286 0.21141858
v -0.27530899 0.62405883 0.22794974
v -0.26852954 0.62398870 0.16421114
v -0.28205046 0.62405898 0.11419262
v -0.29979297 0.62398804 0.17564753
v -0.31463029 0.62405108 0.00498338
v -0.31474850 0.62405527 0.11998956
v -0.31966226 0.62399645 0.06239720
v -0.31965613 0.62389172 0.06249349
v -0.31472391 0.62395969 0.00479519
v -0.31472868 0.62400980 0.11988544
v -0.29969875 0.62402879 0.17557685
v -0.29976167 0.62389786 -0.05076223
v -0.28650553 0.62390000 0.06237604
v -0.28196978 0.62408357 0.11403964
v -0.27535945 0.62391363 0.22798604
v -0.26846614 0.62396298 0.16437176
v -0.24660131 0.62400953 0.21128797
v -0.24232450 0.62396947 0.27527583
v -0.21682405 0.62401452 0.25393835
v -0.20148762 0.62396872 0.31596770
v -0.18005766 0.62406710 0.29049743
v -0.15419103 0.62392699 0.34921381
v -0.13751013 0.62396736 0.32042362
v -0.10172831 0.62400540 0.37349970
v -0.09041009 0.62392803 0.34240101
v -0.04597237 0.62405997 0.38842814
v -0.04032514 0.62389634 0.35569168
v 0.01137303 0.62393722 0.36023959
v 0.01138078 0.62399343 0.39359038
v 0.06315723 0.62397592 0.35574091
v 0.06895083 0.62408577 0.38850931
v 0.11331013 0.62398632 0.34229756
v 0.12474094 0.62392035 0.37351988
v 0.16045080 0.62394521 0.32043375
v 0.17699408 0.62393809 0.34906311
v 0.20300275 0.62389931 0.29059920
v 0.22430118 0.62388849 0.31607350
v 0.23975095 0.62406191 0.25385355
v 0.26511147 0.62393371 0.27534027
v 0.26955977 0.62397577 0.21133951
v 0.29142758 0.62388808 0.16423973
v 0.29821923 0.62393163 0.22786381
v 0.30482099 0.62404278 0.11405577
v 0.30940274 0.62397195 0.06237439
v 0.32262737 0.62401903 0.17560891
v -0.28193200 0.62398004 0.01072386
v -0.27528777 0.62399827 -0.10320105
v -0.26857622 0.62402358 -0.03941009
v -0.24655578 0.62395100 -0.08657182
v -0.24223675 0.62392677 -0.15055043
v -0.21677377 0.62395634 -0.12898887
v -0.20140639 0.62406215 -0.19118708
v -0.18012352 0.62389887 -0.16574184
v -0.15420713 0.62400009 -0.22427753
v -0.13746366 0.62399337 -0.19566154
v -0.10180896 0.62398583 -0.24866825
v -0.09049300 0.62394437 -0.21758751
v -0.04602339 0.62407631 -0.26371495
v -0.04038291 0.62398158 -0.23087713
v 0.01152761 0.62391149 -0.23556677
v 0.01150449 0.62393062 -0.26878381
v 0.06319642 0.62394420 -0.23100025
v 0.06893843 0.62394659 -0.26371125
v 0.11345441 0.62395149 -0.21752598
v 0.12474083 0.62408439 -0.24886362
v 0.16048022 0.62391774 -0.19559762
v 0.17699231 0.62407288 -0.22429001
v 0.20303457 0.62389021 -0.16580222
v 0.22440660 0.62405836 -0.19136132
v 0.23962939 0.62400773 -0.12916505
v 0.26511964 0.62407794 -0.15045794
v 0.26942174 0.62389703 -0.08645913
v 0.29145645 0.62403270 -0.03942990
v 0.29832150 0.62403716 -0.10326507
v 0.30488206 0.62403962 0.01064726
v 0.32259624 0.62393324 -0.05079027
v 0.33753429 0.62405538 0.11991276
v 0.33766081 0.62403084 0.00489145
v 0.34268216 0.62399891 0.06233108
vt -1.402375 0.02372643
vt -1.992641 0.02372643
vt -1.697508 -0.002094345
vt -1.11621 0.1004042
vt -2.278806 0.1004042
vt -2.547309 0.2256092
vt -0.8477068 0.2256092
vt -1.697508 0.2538198
vt -1.446814 0.2757527
vt -0.6050246 0.395537
vt -1.203738 0.3408849
vt -0.9756639 0.4472374
vt -0.395537 0.6050246
vt -0.7695231 0.5915787
vt -0.5915787 0.7695231
vt -0.2256092 0.8477068
vt -0.4472374 0.9756639
vt -0.1004042 1.11621
vt -0.3408849 1.203738
vt -0.02372643 1.402375
vt -0.2757527 1.446814
vt 0.002094345 1.697508
vt -0.2538198 1.697508
vt -0.2757527 1.948202
vt -0.02372643 1.992641
vt -0.3408849 2.191278
vt -0.1004042 2.278806
vt -0.4472374 2.419352
vt -0.2256092 2.547309
vt -0.5915787 2.625493
vt -0.395537 2.789991
vt -0.7695231 2.803437
vt -0.6050246 2.999479
vt -0.9756639 2.947778
vt -1.203738 3.054131
vt -0.8477068 3.169407
vt -1.446814 3.119263
vt -1.697508 3.141196
vt -2.547309 3.169407
vt -2.278806 3.294612
vt -1.11621 3.294612
vt -1.402375 3.371289
vt -1.992641 3.371289
vt -1.697508 3.39711
vt -1.948202 0.2757527
vt -2.789991 0.395537
vt -2.191278 0.3408849
vt -2.419352 0.4472374
vt -2.999479 0.6050246
vt -2.625493 0.5915787
vt -2.803437 0.7695231
vt -3.169407 0.8477068
vt -2.947778 0.9756639
vt -3.294612 1.11621
vt -3.054131 1.203738
vt -3.371289 1.402375
vt -3.119263 1.446814
vt -3.39711 1.697508
vt -3.141196 1.697508
vt -3.371289 1.992641
vt -3.119263 1.948202
vt -3.054131 2.191278
vt -3.294612 2.278806
vt -2.947778 2.419352
vt -3.169407 2.547309
vt -2.803437 2.625493
vt -2.999479 2.789991
vt -2.625493 2.803437
vt -2.789991 2.999479
vt -2.419352 2.947778
vt -2.191278 3.054131
vt -1.948202 3.119263
vt -0.1228785 0.2687364
vt -0.4249006 0.5649966
vt -0.4249006 0.2687364
vt -0.1228785 0.5649966
vt -0.1228785 0.6729367
vt -0.4249006 0.9691969
vt -0.4249006 0.6729367
vt -0.1228785 0.9691969
vt -0.1228785 1.052189
vt -0.4249006 1.348449
vt -0.4249006 1.052189
vt -0.1228785 1.348449
vt -0.4249006 1.394971
vt -0.1228785 1.691231
vt -0.4249006 1.691231
vt -0.1228785 1.394971
vt -0.4249006 1.690866
vt -0.1228785 1.987126
vt -0.4249006 1.987126
vt -0.1228785 1.690866
vt -0.4249006 1.930884
vt -0.1228785 2.227144
vt -0.4249006 2.227144
vt -0.1228785 1.930884
vt -0.4249006 2.107732
vt -0.1228785 2.403993
vt -0.4249006 2.403993
vt -0.1228785 2.107732
vt -0.1228785 2.216038
vt -0.4249006 2.512298
vt -0.4249006 2.216038
vt -0.1228785 2.512298
vt -0.1228785 2.252509
vt -0.4249006 2.548769
vt -0.4249006 2.252509
vt -0.1228785 2.548769
vt 0.1228785 -1.691231
vt 0.4249006 -1.394971
vt 0.1228785 -1.394971
vt 0.4249006 -1.691231
vt 0.1228785 -1.052189
vt 0.4249006 -1.348449
vt 0.4249006 -1.052189
vt 0.1228785 -1.348449
vt 0.1228785 -0.9691969
vt 0.4249006 -0.6729367
vt 0.1228785 -0.6729367
vt 0.4249006 -0.9691969
vt 0.1228785 -0.5649966
vt 0.4249006 -0.2687364
vt 0.1228785 -0.2687364
vt 0.4249006 -0.5649966
vt 0.1228785 -0.1481301
vt 0.4249006 0.1481301
vt 0.1228785 0.1481301
vt 0.4249006 -0.1481301
vt 0.4249006 0.5649966
vt 0.1228785 0.2687364
vt 0.4249006 0.2687364
vt 0.1228785 0.5649966
vt 0.1228785 0.9691969
vt 0.4249006 0.6729367
vt 0.4249006 0.9691969
vt 0.1228785 0.6729367
vt 0.1228785 1.348449
vt 0.4249006 1.052189
vt 0.4249006 1.348449
vt 0.1228785 1.052189
vt 0.4249006 1.691231
vt 0.1228785 1.394971
vt 0.4249006 1.394971
vt 0.1228785 1.691231
vt 0.1228785 1.987126
vt 0.4249006 1.690866
vt 0.4249006 1.987126
vt 0.1228785 1.690866
vt 0.4249006 2.227144
vt 0.1228785 1.930884
vt 0.4249006 1.930884
vt 0.1228785 2.227144
vt 0.4249006 2.403993
vt 0.1228785 2.107732
vt 0.4249006 2.107732
vt 0.1228785 2.403993
vt 0.1228785 2.512298
vt 0.4249006 2.216038
vt 0.4249006 2.512298
vt 0.1228785 2.216038
vt 0.4249006 2.548769
vt 0.1228785 2.252509
vt 0.4249006 2.252509
vt 0.1228785 2.548769
vt -0.4249006 -1.691231
vt -0.1228785 -1.394971
vt -0.4249006 -1.394971
vt -0.1228785 -1.691231
vt -0.4249006 -1.052189
vt -0.1228785 -1.348449
vt -0.1228785 -1.052189
vt -0.4249006 -1.348449
vt -0.4249006 -0.6729367
vt -0.1228785 -0.9691969
vt -0.1228785 -0.6729367
vt -0.4249006 -0.9691969
vt -0.4249006 -0.2687364
vt -0.1228785 -0.5649966
vt -0.1228785 -0.2687364
vt -0.4249006 -0.5649966
vt -0.4249006 0.1481301
vt -0.1228785 -0.1481301
vt -0.1228785 0.1481301
vt -0.4249006 -0.1481301
vt 1.992641 0.02372643
vt 1.402375 0.02372643
vt 1.697508 -0.002094345
vt 2.278806 0.1004042
vt 1.11621 0.1004042
vt 2.547309 0.2256092
vt 1.697508 0.1685151
vt 1.963015 0.1917439
vt 2.220454 0.2607246
vt 2.789991 0.395537
vt 2.462004 0.3733613
vt 2.680326 0.5262315
vt 2.999479 0.6050246
vt 2.868784 0.7146903
vt 3.169407 0.8477068
vt 3.021655 0.9330115
vt 3.294612 1.11621
vt 3.134291 1.174562
vt 3.371289 1.402375
vt 3.203272 1.432001
vt 3.39711 1.697508
vt 3.226501 1.697508
vt 3.371289 1.992641
vt 3.203272 1.963015
vt 3.134291 2.220454
vt 3.294612 2.278806
vt 3.021655 2.462004
vt 3.169407 2.547309
vt 2.868784 2.680326
vt 2.999479 2.789991
vt 2.680326 2.868784
vt 2.789991 2.999479
vt 2.462004 3.021655
vt 2.547309 3.169407
vt 2.220454 3.134291
vt 1.963015 3.203272
vt 2.278806 3.294612
vt 1.697508 3.226501
vt 0.8477068 0.2256092
vt 1.432001 0.1917439
vt 1.174562 0.2607246
vt 0.6050246 0.395537
vt 0.9330115 0.3733613
vt 0.7146903 0.5262315
vt 0.395537 0.6050246
vt 0.5262315 0.7146903
vt 0.2256092 0.8477068
vt 0.3733613 0.9330115
vt 0.1004042 1.11621
vt 0.2607246 1.174562
vt 0.02372643 1.402375
vt 0.1917439 1.432001
vt -0.002094345 1.697508
vt 0.1685151 1.697508
vt 0.02372643 1.992641
vt 0.1917439 1.963015
vt 0.2607246 2.220454
vt 0.1004042 2.278806
vt 0.3733613 2.462004
vt 0.2256092 2.547309
vt 0.5262315 2.680326
vt 0.395537 2.789991
vt 0.7146903 2.868784
vt 0.6050246 2.999479
vt 0.9330115 3.021655
vt 0.8477068 3.169407
vt 1.174562 3.134291
vt 1.432001 3.203272
vt 1.11621 3.294612
vt 1.992641 3.371289
vt 1.402375 3.371289
vt 1.697508 3.39711
vn 0 -1 3.597457247587585e-8
vn 0 1 -3.597457247587585e-8
vn -0.49991459647473363 -3.115666057415697e-8 -0.8660747059183193
vn -0.6427017134977455 -2.7560708409432146e-8 -0.7661165103736254
vn 0.6427017134977455 2.7560708409432146e-8 0.7661165103736254
vn 0.49991459647473363 3.115666057415697e-8 0.8660747059183193
vn -0.3419513326599937 -3.38059334880928e-8 -0.939717662966943
vn 0.3419513326599937 3.38059334880928e-8 0.939717662966943
vn -0.17360983881326192 -3.54282726187958e-8 -0.98481451241705
vn 0.17360983881326192 3.54282726187958e-8 0.98481451241705
vn 0 -3.597456355031162e-8 -1
vn 0 3.597456355031162e-8 1
vn 0.17360983881326442 -3.5428271905636856e-8 -0.9848145124170496
vn -0.17360983881326442 3.5428271905636856e-8 0.9848145124170496
vn 0.3419513326599958 -3.380593208341643e-8 -0.9397176629669423
vn -0.3419513326599958 3.380593208341643e-8 0.9397176629669423
vn 0.499914596474735 -3.1156658520595094e-8 -0.8660747059183184
vn -0.499914596474735 3.1156658520595094e-8 0.8660747059183184
vn 0.6427017134977463 -2.756070576932578e-8 -0.7661165103736246
vn -0.6427017134977463 2.756070576932578e-8 0.7661165103736246
vn 0.7659723372868533 -2.3127093168724055e-8 -0.6428735322840057
vn -0.7659723372868533 2.3127093168724055e-8 0.6428735322840057
vn 0.8659760857201486 -1.799035264391075e-8 -0.500085411665657
vn -0.8659760857201486 1.799035264391075e-8 0.500085411665657
vn 0.9396675921882843 -1.2306496979079395e-8 -0.3420889010053851
vn -0.9396675921882843 1.2306496979079395e-8 0.3420889010053851
vn 0.9848009858613376 -6.248295869799216e-9 -0.1736865517146833
vn -0.9848009858613376 6.248295869799216e-9 0.1736865517146833
vn 1 0 0
vn -1 0 0
vn 0.984800985861338 6.24829991518947e-9 0.1736865517146821
vn -0.984800985861338 -6.24829991518947e-9 -0.1736865517146821
vn 0.9396675921882846 1.2306500839069575e-8 0.3420889010053843
vn -0.9396675921882846 -1.2306500839069575e-8 -0.3420889010053843
vn 0.8659760857201488 1.799035620118912e-8 0.5000854116656567
vn -0.8659760857201488 -1.799035620118912e-8 -0.5000854116656567
vn 0.765972337286853 2.312709631520452e-8 0.6428735322840059
vn -0.765972337286853 -2.312709631520452e-8 -0.6428735322840059
vn 0.6427017134977455 2.756070840943213e-8 0.7661165103736254
vn -0.6427017134977455 -2.756070840943213e-8 -0.7661165103736254
vn 0.49991459647473363 3.115666057415695e-8 0.8660747059183193
vn -0.49991459647473363 -3.115666057415695e-8 -0.8660747059183193
vn 0.3419513326599937 3.380593348809279e-8 0.939717662966943
vn -0.3419513326599937 -3.380593348809279e-8 -0.939717662966943
vn 0 3.597456355031161e-8 1
vn 0 -3.597456355031161e-8 -1
vn -0.17360983881326442 3.542827190563686e-8 0.9848145124170496
vn 0.17360983881326442 -3.542827190563686e-8 -0.9848145124170496
vn -0.3419513326599958 3.380593208341644e-8 0.9397176629669423
vn 0.3419513326599958 -3.380593208341644e-8 -0.9397176629669423
vn -0.499914596474735 3.115665852059509e-8 0.8660747059183184
vn 0.499914596474735 -3.115665852059509e-8 -0.8660747059183184
vn -0.984800985861338 -6.248299915189466e-9 -0.1736865517146821
vn 0.984800985861338 6.248299915189466e-9 0.1736865517146821
vn -0.9396675921882846 -1.2306500839069564e-8 -0.3420889010053843
vn 0.9396675921882846 1.2306500839069564e-8 0.3420889010053843
vn -0.8659760857201488 -1.7990356201189107e-8 -0.5000854116656567
vn 0.8659760857201488 1.7990356201189107e-8 0.5000854116656567
vn -0.765972337286853 -2.3127096315204518e-8 -0.6428735322840059
vn 0.765972337286853 2.3127096315204518e-8 0.6428735322840059
vn 0 1 -3.597456166309494e-8
vn 0 -1 3.597456166309494e-8
usemtl material_0_0
f 1/1/1 2/2/1 3/3/1
f 2/2/1 1/1/1 4/4/1
f 2/2/1 4/4/1 5/5/1
f 5/5/1 4/4/1 6/6/1
f 6/6/1 4/4/1 7/7/1
f 6/6/1 7/7/1 8/8/1
f 8/8/1 7/7/1 9/9/1
f 9/9/1 7/7/1 10/10/1
f 9/9/1 10/10/1 11/11/1
f 11/11/1 10/10/1 12/12/1
f 12/12/1 10/10/1 13/13/1
f 12/12/1 13/13/1 14/14/1
f 14/14/1 13/13/1 15/15/1
f 15/15/1 13/13/1 16/16/1
f 15/15/1 16/16/1 17/17/1
f 17/17/1 16/16/1 18/18/1
f 17/17/1 18/18/1 19/19/1
f 19/19/1 18/18/1 20/20/1
f 19/19/1 20/20/1 21/21/1
f 21/21/1 20/20/1 22/22/1
f 21/21/1 22/22/1 23/23/1
f 23/23/1 22/22/1 24/24/1
f 24/24/1 22/22/1 25/25/1
f 24/24/1 25/25/1 26/26/1
f 26/26/1 25/25/1 27/27/1
f 26/26/1 27/27/1 28/28/1
f 28/28/1 27/27/1 29/29/1
f 28/28/1 29/29/1 30/30/1
f 30/30/1 29/29/1 31/31/1
f 30/30/1 31/31/1 32/32/1
f 32/32/1 31/31/1 33/33/1
f 32/32/1 33/33/1 34/34/1
f 34/34/1 33/33/1 35/35/1
f 35/35/1 33/33/1 36/36/1
f 35/35/1 36/36/1 37/37/1
f 37/37/1 36/36/1 38/38/1
f 38/38/1 36/36/1 39/39/1
f 39/39/1 36/36/1 40/40/1
f 40/40/1 36/36/1 41/41/1
f 40/40/1 41/41/1 42/42/1
f 40/40/1 42/42/1 43/43/1
f 43/43/1 42/42/1 44/44/1
f 6/6/1 45/45/1 46/46/1
f 45/45/1 6/6/1 8/8/1
f 46/46/1 45/45/1 47/47/1
f 46/46/1 47/47/1 48/48/1
f 46/46/1 48/48/1 49/49/1
f 49/49/1 48/48/1 50/50/1
f 49/49/1 50/50/1 51/51/1
f 49/49/1 51/51/1 52/52/1
f 52/52/1 51/51/1 53/53/1
f 52/52/1 53/53/1 54/54/1
f 54/54/1 53/53/1 55/55/1
f 54/54/1 55/55/1 56/56/1
f 56/56/1 55/55/1 57/57/1
f 56/56/1 57/57/1 58/58/1
f 58/58/1 57/57/1 59/59/1
f 58/58/1 59/59/1 60/60/1
f 60/60/1 59/59/1 61/61/1
f 60/60/1 61/61/1 62/62/1
f 60/60/1 62/62/1 63/63/1
f 63/63/1 62/62/1 64/64/1
f 63/63/1 64/64/1 65/65/1
f 65/65/1 64/64/1 66/66/1
f 65/65/1 66/66/1 67/67/1
f 67/67/1 66/66/1 68/68/1
f 67/67/1 68/68/1 69/69/1
f 69/69/1 68/68/1 70/70/1
f 69/69/1 70/70/1 71/71/1
f 69/69/1 71/71/1 39/39/1
f 39/39/1 71/71/1 72/72/1
f 39/39/1 72/72/1 38/38/1
f 73/38/2 74/72/2 75/39/2
f 74/72/2 76/71/2 75/39/2
f 75/39/2 76/71/2 77/69/2
f 76/71/2 78/70/2 77/69/2
f 78/70/2 79/68/2 77/69/2
f 77/69/2 79/68/2 80/67/2
f 79/68/2 81/66/2 80/67/2
f 80/67/2 81/66/2 82/65/2
f 81/66/2 83/64/2 82/65/2
f 82/65/2 83/64/2 84/63/2
f 83/64/2 85/62/2 84/63/2
f 84/63/2 85/62/2 86/60/2
f 85/62/2 87/61/2 86/60/2
f 87/61/2 88/59/2 86/60/2
f 86/60/2 88/59/2 89/58/2
f 88/59/2 90/57/2 89/58/2
f 89/58/2 90/57/2 91/56/2
f 90/57/2 92/55/2 91/56/2
f 91/56/2 92/55/2 93/54/2
f 92/55/2 94/53/2 93/54/2
f 93/54/2 94/53/2 95/52/2
f 94/53/2 96/51/2 95/52/2
f 95/52/2 96/51/2 97/49/2
f 96/51/2 98/50/2 97/49/2
f 98/50/2 99/48/2 97/49/2
f 97/49/2 99/48/2 100/46/2
f 99/48/2 101/47/2 100/46/2
f 101/47/2 102/45/2 100/46/2
f 103/8/2 104/6/2 102/45/2
f 100/46/2 102/45/2 104/6/2
f 105/44/2 106/42/2 107/43/2
f 107/43/2 106/42/2 108/40/2
f 106/42/2 109/41/2 108/40/2
f 109/41/2 110/36/2 108/40/2
f 108/40/2 110/36/2 75/39/2
f 75/39/2 110/36/2 73/38/2
f 73/38/2 110/36/2 111/37/2
f 111/37/2 110/36/2 112/35/2
f 110/36/2 113/33/2 112/35/2
f 112/35/2 113/33/2 114/34/2
f 114/34/2 113/33/2 115/32/2
f 113/33/2 116/31/2 115/32/2
f 115/32/2 116/31/2 117/30/2
f 116/31/2 118/29/2 117/30/2
f 117/30/2 118/29/2 119/28/2
f 118/29/2 120/27/2 119/28/2
f 119/28/2 120/27/2 121/26/2
f 120/27/2 122/25/2 121/26/2
f 121/26/2 122/25/2 123/24/2
f 122/25/2 124/22/2 123/24/2
f 123/24/2 124/22/2 125/23/2
f 125/23/2 124/22/2 126/21/2
f 124/22/2 127/20/2 126/21/2
f 126/21/2 127/20/2 128/19/2
f 127/20/2 129/18/2 128/19/2
f 128/19/2 129/18/2 130/17/2
f 129/18/2 131/16/2 130/17/2
f 130/17/2 131/16/2 132/15/2
f 131/16/2 133/13/2 132/15/2
f 132/15/2 133/13/2 134/14/2
f 134/14/2 133/13/2 135/12/2
f 133/13/2 136/10/2 135/12/2
f 135/12/2 136/10/2 137/11/2
f 137/11/2 136/10/2 138/9/2
f 136/10/2 139/7/2 138/9/2
f 138/9/2 139/7/2 103/8/2
f 103/8/2 139/7/2 104/6/2
f 139/7/2 140/4/2 104/6/2
f 104/6/2 140/4/2 141/5/2
f 141/5/2 140/4/2 142/2/2
f 140/4/2 143/1/2 142/2/2
f 144/3/2 142/2/2 143/1/2
f 145/73/3 146/74/4 147/75/3
f 146/74/4 145/73/3 148/76/4
f 149/76/5 150/73/6 151/74/5
f 152/75/6 151/74/5 150/73/6
f 153/77/7 147/78/3 154/79/7
f 147/78/3 153/77/7 145/80/3
f 150/80/6 155/77/8 152/78/6
f 156/79/8 152/78/6 155/77/8
f 157/81/9 154/82/7 158/83/9
f 154/82/7 157/81/9 153/84/7
f 155/84/8 159/81/10 156/82/8
f 160/83/10 156/82/8 159/81/10
f 161/85/11 157/86/9 158/87/9
f 157/86/9 161/85/11 162/88/11
f 163/88/12 164/85/12 159/86/10
f 160/87/10 159/86/10 164/85/12
f 165/89/13 162/90/11 161/91/11
f 162/90/11 165/89/13 166/92/13
f 167/92/14 168/89/14 163/90/12
f 164/91/12 163/90/12 168/89/14
f 169/93/15 166/94/13 165/95/13
f 166/94/13 169/93/15 170/96/15
f 171/96/16 172/93/16 167/94/14
f 168/95/14 167/94/14 172/93/16
f 173/97/17 170/98/15 169/99/15
f 170/98/15 173/97/17 174/100/17
f 175/100/18 176/97/18 171/98/16
f 172/99/16 171/98/16 176/97/18
f 177/101/19 173/102/17 178/103/19
f 173/102/17 177/101/19 174/104/17
f 175/104/18 179/101/20 176/102/18
f 180/103/20 176/102/18 179/101/20
f 181/105/21 178/106/19 182/107/21
f 178/106/19 181/105/21 177/108/19
f 179/108/20 183/105/22 180/106/20
f 184/107/22 180/106/20 183/105/22
f 181/104/21 185/103/23 186/101/23
f 185/103/23 181/104/21 182/102/21
f 184/102/22 183/104/22 187/103/24
f 188/101/24 187/103/24 183/104/22
f 186/98/23 189/97/25 190/100/25
f 189/97/25 186/98/23 185/99/23
f 187/99/24 188/98/24 191/97/26
f 192/100/26 191/97/26 188/98/24
f 190/94/25 193/93/27 194/96/27
f 193/93/27 190/94/25 189/95/25
f 191/95/26 192/94/26 195/93/28
f 196/96/28 195/93/28 192/94/26
f 197/92/29 193/91/27 198/89/29
f 193/91/27 197/92/29 194/90/27
f 196/90/28 199/92/30 195/91/28
f 200/89/30 195/91/28 199/92/30
f 197/109/29 201/110/31 202/111/31
f 201/110/31 197/109/29 198/112/29
f 200/112/30 199/109/30 203/110/32
f 204/111/32 203/110/32 199/109/30
f 205/113/33 201/114/31 206/115/33
f 201/114/31 205/113/33 202/116/31
f 204/116/32 207/113/34 203/114/32
f 208/115/34 203/114/32 207/113/34
f 205/117/33 209/118/35 210/119/35
f 209/118/35 205/117/33 206/120/33
f 208/120/34 207/117/34 211/118/36
f 212/119/36 211/118/36 207/117/34
f 210/121/35 213/122/37 214/123/37
f 213/122/37 210/121/35 209/124/35
f 211/124/36 212/121/36 215/122/38
f 216/123/38 215/122/38 212/121/36
f 214/125/37 217/126/39 218/127/39
f 217/126/39 214/125/37 213/128/37
f 215/128/38 216/125/38 219/126/40
f 220/127/40 219/126/40 216/125/38
f 221/129/41 218/130/39 217/131/39
f 218/130/39 221/129/41 222/132/41
f 223/132/42 224/129/42 220/130/40
f 219/131/40 220/130/40 224/129/42
f 225/133/43 221/134/41 226/135/43
f 221/134/41 225/133/43 222/136/41
f 223/136/42 227/133/44 224/134/42
f 228/135/44 224/134/42 227/133/44
f 229/137/10 226/138/43 230/139/10
f 226/138/43 229/137/10 225/140/43
f 227/140/44 231/137/9 228/138/44
f 232/139/9 228/138/44 231/137/9
f 233/141/45 229/142/10 230/143/10
f 229/142/10 233/141/45 234/144/45
f 235/144/46 236/141/46 231/142/9
f 232/143/9 231/142/9 236/141/46
f 237/145/47 233/146/45 238/147/47
f 233/146/45 237/145/47 234/148/45
f 235/148/46 239/145/48 236/146/46
f 240/147/48 236/146/46 239/145/48
f 241/149/49 237/150/47 238/151/47
f 237/150/47 241/149/49 242/152/49
f 243/152/50 244/149/50 239/150/48
f 240/151/48 239/150/48 244/149/50
f 245/153/51 242/154/49 241/155/49
f 242/154/49 245/153/51 246/156/51
f 247/156/52 248/153/52 243/154/50
f 244/155/50 243/154/50 248/153/52
f 249/157/20 245/158/51 250/159/20
f 245/158/51 249/157/20 246/160/51
f 247/160/52 251/157/19 248/158/52
f 252/159/19 248/158/52 251/157/19
f 253/161/22 249/162/20 250/163/20
f 249/162/20 253/161/22 254/164/22
f 255/164/21 256/161/21 251/162/19
f 252/163/19 251/162/19 256/161/21
f 253/158/22 257/157/24 254/160/22
f 257/157/24 253/158/22 258/159/24
f 259/159/23 256/158/21 260/157/23
f 255/160/21 260/157/23 256/158/21
f 261/153/26 257/154/24 258/155/24
f 257/154/24 261/153/26 262/156/26
f 263/156/25 264/153/25 260/154/23
f 259/155/23 260/154/23 264/153/25
f 261/151/26 265/152/28 262/150/26
f 265/152/28 261/151/26 266/149/28
f 267/149/27 264/151/25 268/152/27
f 263/150/25 268/152/27 264/151/25
f 269/147/30 265/148/28 266/146/28
f 265/148/28 269/147/30 270/145/30
f 271/145/29 272/147/29 268/148/27
f 267/146/27 268/148/27 272/147/29
f 273/165/53 270/166/30 269/167/30
f 270/166/30 273/165/53 274/168/53
f 275/168/54 276/165/54 271/166/29
f 272/167/29 271/166/29 276/165/54
f 273/169/53 277/170/55 274/171/53
f 277/170/55 273/169/53 278/172/55
f 279/172/56 276/169/54 280/170/56
f 275/171/54 280/170/56 276/169/54
f 278/173/55 281/174/57 277/175/55
f 281/174/57 278/173/55 282/176/57
f 283/176/58 279/173/56 284/174/58
f 280/175/56 284/174/58 279/173/56
f 282/177/57 285/178/59 281/179/57
f 285/178/59 282/177/57 286/180/59
f 287/180/60 283/177/58 288/178/60
f 284/179/58 288/178/60 283/177/58
f 286/181/59 148/182/4 285/183/59
f 148/182/4 286/181/59 146/184/4
f 151/184/5 287/181/60 149/182/5
f 288/183/60 149/182/5 287/181/60
f 289/185/61 290/186/61 291/187/61
f 290/186/61 289/185/61 292/188/61
f 290/186/61 292/188/61 293/189/61
f 293/189/61 292/188/61 294/190/61
f 293/189/61 294/190/61 295/191/61
f 295/191/61 294/190/61 296/192/61
f 296/192/61 294/190/61 297/193/61
f 297/193/61 294/190/61 298/194/61
f 297/193/61 298/194/61 299/195/61
f 299/195/61 298/194/61 300/196/61
f 300/196/61 298/194/61 301/197/61
f 300/196/61 301/197/61 302/198/61
f 302/198/61 301/197/61 303/199/61
f 302/198/61 303/199/61 304/200/61
f 304/200/61 303/199/61 305/201/61
f 304/200/61 305/201/61 306/202/61
f 306/202/61 305/201/61 307/203/61
f 306/202/61 307/203/61 308/204/61
f 308/204/61 307/203/61 309/205/61
f 308/204/61 309/205/61 310/206/61
f 310/206/61 309/205/61 311/207/61
f 310/206/61 311/207/61 312/208/61
f 312/208/61 311/207/61 313/209/61
f 313/209/61 311/207/61 314/210/61
f 313/209/61 314/210/61 315/211/61
f 315/211/61 314/210/61 316/212/61
f 315/211/61 316/212/61 317/213/61
f 317/213/61 316/212/61 318/214/61
f 317/213/61 318/214/61 319/215/61
f 319/215/61 318/214/61 320/216/61
f 319/215/61 320/216/61 321/217/61
f 321/217/61 320/216/61 322/218/61
f 321/217/61 322/218/61 323/219/61
f 323/219/61 322/218/61 324/220/61
f 324/220/61 322/218/61 325/221/61
f 324/220/61 325/221/61 326/222/61
f 295/191/61 327/223/61 293/189/61
f 327/223/61 295/191/61 328/224/61
f 327/223/61 328/224/61 329/225/61
f 327/223/61 329/225/61 330/226/61
f 330/226/61 329/225/61 331/227/61
f 330/226/61 331/227/61 332/228/61
f 330/226/61 332/228/61 333/229/61
f 333/229/61 332/228/61 334/230/61
f 333/229/61 334/230/61 335/231/61
f 335/231/61 334/230/61 336/232/61
f 335/231/61 336/232/61 337/233/61
f 337/233/61 336/232/61 338/234/61
f 337/233/61 338/234/61 339/235/61
f 339/235/61 338/234/61 340/236/61
f 339/235/61 340/236/61 341/237/61
f 341/237/61 340/236/61 342/238/61
f 341/237/61 342/238/61 343/239/61
f 343/239/61 342/238/61 344/240/61
f 343/239/61 344/240/61 345/241/61
f 343/239/61 345/241/61 346/242/61
f 346/242/61 345/241/61 347/243/61
f 346/242/61 347/243/61 348/244/61
f 348/244/61 347/243/61 349/245/61
f 348/244/61 349/245/61 350/246/61
f 350/246/61 349/245/61 351/247/61
f 350/246/61 351/247/61 352/248/61
f 352/248/61 351/247/61 353/249/61
f 352/248/61 353/249/61 354/250/61
f 354/250/61 353/249/61 355/251/61
f 354/250/61 355/251/61 356/252/61
f 354/250/61 356/252/61 357/253/61
f 357/253/61 356/252/61 326/222/61
f 357/253/61 326/222/61 325/221/61
f 357/253/61 325/221/61 358/254/61
f 357/253/61 358/254/61 359/255/61
f 359/255/61 358/254/61 360/256/61
f 361/256/62 362/254/62 363/255/62
f 363/255/62 362/254/62 364/253/62
f 362/254/62 365/221/62 364/253/62
f 365/221/62 366/222/62 364/253/62
f 366/222/62 367/252/62 364/253/62
f 364/253/62 367/252/62 368/250/62
f 367/252/62 369/251/62 368/250/62
f 369/251/62 370/249/62 368/250/62
f 368/250/62 370/249/62 371/248/62
f 370/249/62 372/247/62 371/248/62
f 371/248/62 372/247/62 373/246/62
f 372/247/62 374/245/62 373/246/62
f 373/246/62 374/245/62 375/244/62
f 374/245/62 376/243/62 375/244/62
f 375/244/62 376/243/62 377/242/62
f 376/243/62 378/241/62 377/242/62
f 377/242/62 378/241/62 379/239/62
f 378/241/62 380/240/62 379/239/62
f 380/240/62 381/238/62 379/239/62
f 379/239/62 381/238/62 382/237/62
f 381/238/62 383/236/62 382/237/62
f 382/237/62 383/236/62 384/235/62
f 383/236/62 385/234/62 384/235/62
f 384/235/62 385/234/62 386/233/62
f 385/234/62 387/232/62 386/233/62
f 386/233/62 387/232/62 388/231/62
f 387/232/62 389/230/62 388/231/62
f 388/231/62 389/230/62 390/229/62
f 389/230/62 391/228/62 390/229/62
f 390/229/62 391/228/62 392/226/62
f 391/228/62 393/227/62 392/226/62
f 393/227/62 394/225/62 392/226/62
f 392/226/62 394/225/62 395/223/62
f 394/225/62 396/224/62 395/223/62
f 396/224/62 397/191/62 395/223/62
f 398/189/62 395/223/62 397/191/62
f 366/222/62 365/221/62 399/220/62
f 365/221/62 400/218/62 399/220/62
f 399/220/62 400/218/62 401/219/62
f 401/219/62 400/218/62 402/217/62
f 400/218/62 403/216/62 402/217/62
f 402/217/62 403/216/62 404/215/62
f 403/216/62 405/214/62 404/215/62
f 404/215/62 405/214/62 406/213/62
f 405/214/62 407/212/62 406/213/62
f 406/213/62 407/212/62 408/211/62
f 407/212/62 409/210/62 408/211/62
f 408/211/62 409/210/62 410/209/62
f 409/210/62 411/207/62 410/209/62
f 410/209/62 411/207/62 412/208/62
f 412/208/62 411/207/62 413/206/62
f 411/207/62 414/205/62 413/206/62
f 413/206/62 414/205/62 415/204/62
f 414/205/62 416/203/62 415/204/62
f 415/204/62 416/203/62 417/202/62
f 416/203/62 418/201/62 417/202/62
f 417/202/62 418/201/62 419/200/62
f 418/201/62 420/199/62 419/200/62
f 419/200/62 420/199/62 421/198/62
f 420/199/62 422/197/62 421/198/62
f 421/198/62 422/197/62 423/196/62
f 422/197/62 424/194/62 423/196/62
f 423/196/62 424/194/62 425/195/62
f 425/195/62 424/194/62 426/193/62
f 424/194/62 427/190/62 426/193/62
f 426/193/62 427/190/62 428/192/62
f 428/192/62 427/190/62 397/191/62
f 397/191/62 427/190/62 398/189/62
f 427/190/62 429/188/62 398/189/62
f 398/189/62 429/188/62 430/186/62
f 429/188/62 431/185/62 430/186/62
f 432/187/62 430/186/62 431/185/62
