# SSTK version 0.8.0
# 46
mtllib original-46.mtl
o instance_4/Group_51/ID316#ID316
v -0.04608098 0.43753403 -0.55614673
v -0.04433761 0.44668371 -0.55613679
v -0.04108885 0.43913966 -0.55611671
v -0.04923466 0.44497849 -0.55627283
v -0.05075018 0.43549323 -0.55610395
v -0.05405426 0.44304328 -0.55617093
v -0.05568478 0.43363496 -0.55612490
v -0.05887180 0.44111431 -0.55625938
v -0.06043096 0.43145786 -0.55611259
v -0.06357247 0.43905173 -0.55614632
v -0.06496014 0.42937191 -0.55621672
v -0.06816145 0.43677876 -0.55620231
v -0.06953764 0.42692504 -0.55616831
v -0.07290314 0.43443573 -0.55623791
v -0.07413451 0.42459788 -0.55619263
v -0.07749136 0.43212174 -0.55619102
v -0.07864448 0.42197150 -0.55628353
v -0.08192832 0.42945535 -0.55611502
v -0.08310697 0.41953474 -0.55609469
v -0.08636624 0.42695404 -0.55616011
v -0.08747079 0.41664040 -0.55624690
v -0.09084950 0.42424164 -0.55622391
v -0.09187756 0.41399774 -0.55612926
v -0.09508437 0.42135412 -0.55624304
v -0.09625030 0.41098066 -0.55624425
v -0.09938218 0.41850785 -0.55623024
v -0.09946415 0.41847658 -0.55621825
v -0.09618436 0.41107165 -0.55610584
v -0.09510628 0.42131040 -0.55618252
v -0.09193834 0.41382105 -0.55618858
v -0.09072779 0.42415141 -0.55619137
v -0.08748854 0.41682162 -0.55620604
v -0.08631326 0.42697552 -0.55628473
v -0.08309221 0.41934968 -0.55628304
v -0.08192418 0.42947847 -0.55626791
v -0.07875048 0.42205871 -0.55611774
v -0.07741307 0.43212122 -0.55617714
v -0.07415417 0.42458736 -0.55628697
v -0.07281151 0.43436653 -0.55626977
v -0.06964062 0.42697853 -0.55616287
v -0.06816154 0.43679562 -0.55611448
v -0.06508415 0.42933973 -0.55613080
v -0.06360505 0.43898076 -0.55623485
v -0.06038408 0.43145228 -0.55622275
v -0.05879590 0.44107802 -0.55626971
v -0.05555102 0.43348934 -0.55621055
v -0.05412316 0.44294751 -0.55616170
v -0.05074195 0.43564595 -0.55616194
v -0.04914416 0.44492338 -0.55615153
v -0.04601629 0.43745362 -0.55617989
v -0.04428949 0.44666112 -0.55609815
v -0.04115305 0.43927481 -0.55616266
v -0.04434324 0.44670474 -0.55616053
v -0.04113822 0.43924039 -0.55028330
v -0.04121748 0.43919180 -0.55613359
v -0.04437165 0.44667503 -0.55042145
v -0.04432366 0.44669439 -0.55022899
v -0.04433266 0.44670483 -0.55609627
v -0.04109343 0.43912700 -0.55031810
v -0.04107493 0.43923971 -0.55620115
v -0.04609505 0.43740536 -0.55615126
v -0.04107530 0.43919674 -0.55030262
v -0.04595258 0.43747566 -0.55041788
v -0.04124029 0.43917927 -0.55629235
v -0.04122176 0.43911779 -0.55617064
v -0.04607888 0.43741546 -0.55611537
v -0.04110375 0.43913415 -0.55027594
v -0.04602868 0.43750398 -0.55040799
v -0.05075676 0.43556637 -0.55624322
v -0.05082788 0.43553683 -0.55036393
v -0.05079250 0.43547860 -0.55625833
v -0.05091674 0.43554501 -0.55022850
v -0.05570225 0.43352980 -0.55624916
v -0.05565293 0.43358004 -0.55035498
v -0.05563604 0.43348661 -0.55617225
v -0.05561903 0.43354413 -0.55032616
v -0.06032487 0.43157577 -0.55613239
v -0.06031957 0.43148775 -0.55040975
v -0.06037997 0.43149769 -0.55609423
v -0.06041655 0.43147855 -0.55038564
v -0.06504018 0.42935267 -0.55622039
v -0.06503152 0.42933946 -0.55038770
v -0.06509862 0.42925820 -0.55613120
v -0.06507429 0.42927884 -0.55030109
v -0.06958095 0.42693331 -0.55627725
v -0.06962068 0.42695345 -0.55042124
v -0.06968681 0.42708437 -0.55612833
v -0.06967981 0.42691372 -0.55029342
v -0.07415710 0.42464953 -0.55627193
v -0.07427768 0.42455846 -0.55025522
v -0.07419186 0.42455199 -0.55628887
v -0.07419618 0.42459858 -0.55028395
v -0.07873858 0.42197211 -0.55629124
v -0.07876955 0.42201303 -0.55027767
v -0.07876351 0.42211596 -0.55614067
v -0.07870026 0.42216315 -0.55041817
v -0.08326515 0.41948653 -0.55617920
v -0.08308956 0.41935672 -0.55034926
v -0.08320564 0.41947601 -0.55616673
v -0.08322010 0.41944219 -0.55042116
v -0.08749414 0.41664412 -0.55609972
v -0.08751968 0.41670756 -0.55033979
v -0.08759618 0.41664773 -0.55623054
v -0.08761515 0.41665063 -0.55039322
v -0.09187613 0.41383053 -0.55615780
v -0.09187173 0.41383570 -0.55030980
v -0.09195419 0.41382780 -0.55621452
v -0.09194520 0.41391037 -0.55023081
v -0.09618063 0.41101009 -0.55616700
v -0.09623404 0.41088869 -0.55041997
v -0.09624475 0.41104198 -0.55627857
v -0.09613630 0.41102429 -0.55036837
v -0.09931782 0.41840764 -0.55030601
v -0.09613331 0.41093459 -0.55625904
v -0.09613273 0.41089150 -0.55033949
v -0.09930411 0.41839317 -0.55618028
v -0.09931811 0.41839025 -0.55620832
v -0.09931171 0.41848288 -0.55024230
v -0.09622765 0.41101842 -0.55611707
v -0.09619082 0.41103032 -0.55026971
v -0.09506998 0.42136079 -0.55615574
v -0.09934355 0.41835819 -0.55034755
v -0.09505653 0.42134834 -0.55039443
v -0.09932957 0.41852031 -0.55626275
v -0.09936152 0.41844716 -0.55620105
v -0.09508774 0.42134440 -0.55625636
v -0.09936926 0.41840549 -0.55038329
v -0.09516597 0.42131063 -0.55025508
v -0.09079032 0.42426429 -0.55609796
v -0.09083478 0.42422207 -0.55031268
v -0.09086327 0.42423925 -0.55609700
v -0.09079114 0.42422452 -0.55038940
v -0.08636493 0.42693423 -0.55629112
v -0.08631346 0.42697921 -0.55041105
v -0.08648121 0.42697990 -0.55614637
v -0.08636880 0.42698808 -0.55023640
v -0.08196342 0.42960636 -0.55616776
v -0.08190553 0.42944564 -0.55042172
v -0.08193709 0.42949433 -0.55610845
v -0.08190755 0.42962382 -0.55025943
v -0.07751486 0.43207487 -0.55614281
v -0.07735282 0.43210165 -0.55037396
v -0.07751549 0.43209452 -0.55627177
v -0.07738739 0.43196429 -0.55027083
v -0.07280887 0.43444328 -0.55626461
v -0.07280156 0.43443928 -0.55039076
v -0.07284614 0.43447403 -0.55617745
v -0.07295211 0.43441598 -0.55039180
v -0.06831121 0.43676121 -0.55626939
v -0.06816877 0.43684172 -0.55023085
v -0.06831365 0.43670943 -0.55628564
v -0.06815158 0.43684340 -0.55039950
v -0.06356310 0.43898891 -0.55622923
v -0.06353501 0.43893739 -0.55026234
v -0.06351991 0.43892936 -0.55610915
v -0.06361351 0.43898639 -0.55036977
v -0.05878679 0.44100663 -0.55622999
v -0.05886625 0.44095055 -0.55038873
v -0.05875059 0.44104957 -0.55629156
v -0.05886365 0.44100725 -0.55029489
v -0.05404238 0.44296574 -0.55614443
v -0.05401220 0.44299831 -0.55025606
v -0.05403933 0.44297287 -0.55610962
v -0.05408088 0.44299375 -0.55023105
v -0.04915029 0.44487654 -0.55622459
v -0.04931069 0.44490424 -0.55034856
v -0.04919321 0.44481567 -0.55617148
v -0.04929006 0.44486681 -0.55026907
v -0.04441252 0.44668236 -0.55616200
v -0.04429123 0.44665771 -0.55033107
v -0.04440515 0.44657703 -0.55616727
v -0.04436523 0.44670454 -0.55025918
v -0.04439033 0.44672704 -0.55033201
v -0.04601179 0.43749122 -0.55042394
v -0.04123240 0.43914417 -0.55032503
v -0.04925583 0.44483278 -0.55042048
v -0.05079947 0.43565679 -0.55042116
v -0.05402911 0.44309270 -0.55041679
v -0.05569976 0.43366102 -0.55040263
v -0.05876111 0.44104316 -0.55029887
v -0.06037380 0.43153012 -0.55022770
v -0.06349879 0.43900906 -0.55035735
v -0.06495788 0.42921451 -0.55031667
v -0.06821267 0.43672987 -0.55031146
v -0.06970352 0.42705392 -0.55026755
v -0.07288940 0.43454564 -0.55025704
v -0.07411850 0.42456528 -0.55030936
v -0.07742821 0.43200726 -0.55033927
v -0.07863341 0.42203959 -0.55033857
v -0.08196129 0.42948220 -0.55038098
v -0.08310099 0.41945407 -0.55025679
v -0.08638182 0.42695942 -0.55028560
v -0.08753217 0.41681630 -0.55030863
v -0.09082688 0.42426399 -0.55037540
v -0.09199506 0.41385150 -0.55023989
v -0.09517490 0.42134374 -0.55039440
v -0.09610451 0.41103649 -0.55029497
v -0.09944111 0.41843649 -0.55034717
v -0.09946936 0.41842688 -0.55042120
v -0.09516611 0.42136021 -0.55027522
v -0.09625240 0.41102071 -0.55027790
v -0.09193577 0.41381987 -0.55040979
v -0.09078754 0.42414948 -0.55034898
v -0.08751072 0.41675530 -0.55038662
v -0.08647414 0.42696463 -0.55041982
v -0.08314263 0.41936220 -0.55028756
v -0.08197503 0.42957233 -0.55024271
v -0.07872758 0.42203233 -0.55034721
v -0.07742507 0.43200462 -0.55027464
v -0.07424832 0.42465271 -0.55031143
v -0.07294063 0.43449789 -0.55032470
v -0.06970595 0.42696238 -0.55034485
v -0.06830837 0.43677708 -0.55034256
v -0.06493167 0.42939281 -0.55037059
v -0.06346150 0.43888374 -0.55039740
v -0.06035890 0.43142613 -0.55041505
v -0.05888866 0.44105292 -0.55038409
v -0.05556919 0.43367227 -0.55028939
v -0.05407260 0.44297574 -0.55032639
v -0.05091273 0.43554918 -0.55033369
v -0.04915944 0.44489201 -0.55036530
v -0.04598198 0.43739160 -0.55027210
v -0.04438810 0.44659788 -0.55033547
v -0.04121306 0.43922039 -0.55036200
vt -0.1797078 0.03300974
vt -0.2423588 0.02190676
vt -0.1916515 0
vt -0.2304151 0.0549165
vt -0.1670065 0.06573542
vt -0.2177138 0.08764217
vt -0.1535542 0.09815964
vt -0.2042615 0.1200664
vt -0.1393582 0.1302652
vt -0.1900655 0.1521719
vt -0.1244259 0.162035
vt -0.1751332 0.1839418
vt -0.1087654 0.1934522
vt -0.1594726 0.215359
vt -0.09238479 0.2245001
vt -0.1430921 0.2464068
vt -0.07529295 0.2551621
vt -0.1260002 0.2770689
vt -0.05749891 0.2854221
vt -0.1082062 0.3073289
vt -0.03901213 0.3152639
vt -0.08971941 0.3371707
vt -0.01984243 0.3446717
vt -0.07054971 0.3665784
vt 0 0.3736298
vt -0.05070728 0.3955365
vt 0 0.2311719
vt -0.04249006 0.1759348
vt 0 0.1759348
vt -0.04249006 0.2311719
vt 0 -0.03010266
vt 0.04249006 -0.0652067
vt 0.04249006 -0.03010266
vt 0 -0.0652067
vt 0 0.0008554966
vt 0.04249006 -0.03424854
vt 0.04249006 0.0008554966
vt 0 -0.03424854
vt 0 0.03182252
vt 0.04249006 -0.003281516
vt 0.04249006 0.03182252
vt 0 -0.003281516
vt 0 0.06278197
vt 0.04249006 0.02767793
vt 0.04249006 0.06278197
vt 0 0.02767793
vt 0 0.09371738
vt 0.04249006 0.05861334
vt 0.04249006 0.09371738
vt 0 0.05861334
vt 0 0.1246123
vt 0.04249006 0.08950829
vt 0.04249006 0.1246123
vt 0 0.08950829
vt 0 0.1554504
vt 0.04249006 0.1203463
vt 0.04249006 0.1554504
vt 0 0.1203463
vt 0 0.1862152
vt 0.04249006 0.1511111
vt 0.04249006 0.1862152
vt 0 0.1511111
vt 0 0.2168903
vt 0.04249006 0.1817863
vt 0.04249006 0.2168903
vt 0 0.1817863
vt 0 0.2474596
vt 0.04249006 0.2123556
vt 0.04249006 0.2474596
vt 0 0.2123556
vt 0 0.2779067
vt 0.04249006 0.2428026
vt 0.04249006 0.2779067
vt 0 0.2428026
vt 0 0.3082154
vt 0.04249006 0.2731114
vt 0.04249006 0.3082154
vt 0 0.2731114
vt 0.04249006 0.2034169
vt 0 0.1481798
vt 0.04249006 0.1481798
vt 0 0.2034169
vt 0 0.2625207
vt -0.04249006 0.2976247
vt -0.04249006 0.2625207
vt 0 0.2976247
vt 0 0.2334643
vt -0.04249006 0.2685683
vt -0.04249006 0.2334643
vt 0 0.2685683
vt 0 0.2042745
vt -0.04249006 0.2393786
vt -0.04249006 0.2042745
vt 0 0.2393786
vt 0 0.1749669
vt -0.04249006 0.2100709
vt -0.04249006 0.1749669
vt 0 0.2100709
vt 0 0.145557
vt -0.04249006 0.180661
vt -0.04249006 0.145557
vt 0 0.180661
vt 0 0.1160604
vt -0.04249006 0.1511644
vt -0.04249006 0.1160604
vt 0 0.1511644
vt 0 0.08649278
vt -0.04249006 0.1215968
vt -0.04249006 0.08649278
vt 0 0.1215968
vt 0 0.05686991
vt -0.04249006 0.09197395
vt -0.04249006 0.05686991
vt 0 0.09197395
vt 0 0.0272075
vt -0.04249006 0.06231154
vt -0.04249006 0.0272075
vt 0 0.06231154
vt 0 -0.002478693
vt -0.04249006 0.03262535
vt -0.04249006 -0.002478693
vt 0 0.03262535
vt 0 -0.0321729
vt -0.04249006 0.002931146
vt -0.04249006 -0.0321729
vt 0 0.002931146
vt 0 -0.06185933
vt -0.04249006 -0.02675529
vt -0.04249006 -0.06185933
vt 0 -0.02675529
vt 0.2423588 0.02190676
vt 0.1797078 0.03300974
vt 0.1916515 0
vt 0.2304151 0.0549165
vt 0.1670065 0.06573542
vt 0.2177138 0.08764217
vt 0.1535542 0.09815964
vt 0.2042615 0.1200664
vt 0.1393582 0.1302652
vt 0.1900655 0.1521719
vt 0.1244259 0.162035
vt 0.1751332 0.1839418
vt 0.1087654 0.1934522
vt 0.1594726 0.215359
vt 0.09238479 0.2245001
vt 0.1430921 0.2464068
vt 0.07529295 0.2551621
vt 0.1260002 0.2770689
vt 0.05749891 0.2854221
vt 0.1082062 0.3073289
vt 0.03901213 0.3152639
vt 0.08971941 0.3371707
vt 0.01984243 0.3446717
vt 0.07054971 0.3665784
vt 0.05070728 0.3955365
vn 0 -3.597456311981438e-8 -1
vn 0 3.597456311981438e-8 1
vn 0.9179935989424712 0.3965951995431223 -1.4267341893020385e-8
vn -0.9179935989424712 -0.3965951995431223 1.4267341893020385e-8
vn 0.3510510131379638 -0.9363563350428126 3.368500898621858e-8
vn 0.34023581645556566 -0.940340145479716 3.3828324859862764e-8
vn -0.34023581645556566 0.940340145479716 -3.3828324859862764e-8
vn -0.3510510131379638 0.9363563350428126 -3.368500898621858e-8
vn 0.37254009851594605 -0.928016096303145 3.3384972474434544e-8
vn -0.37254009851594605 0.928016096303145 -3.3384972474434544e-8
vn 0.3938311933227344 -0.919182784415586 3.306719787218456e-8
vn -0.3938311933227344 0.919182784415586 -3.306719787218456e-8
vn 0.4149129960869125 -0.9098610914190036 3.2731853973552175e-8
vn -0.4149129960869125 0.9098610914190036 -3.2731853973552175e-8
vn 0.43577441071565637 -0.900055922132298 3.2379117227289005e-8
vn -0.43577441071565637 0.900055922132298 -3.2379117227289005e-8
vn 0.4564043030089053 -0.8897725058659401 3.200917575558929e-8
vn -0.4564043030089053 0.8897725058659401 -3.200917575558929e-8
vn 0.47679158538645305 -0.8790163730583587 3.1622228513593805e-8
vn -0.47679158538645305 0.8790163730583587 -3.1622228513593805e-8
vn 0.49692562078566177 -0.867793136298498 3.1218477411770885e-8
vn -0.49692562078566177 0.867793136298498 -3.1218477411770885e-8
vn 0.5167956078509528 -0.8561088130056618 3.0798138924184665e-8
vn -0.5167956078509528 0.8561088130056618 -3.0798138924184665e-8
vn 0.5363910025196543 -0.8439696039644787 3.0361436121385945e-8
vn -0.5363910025196543 0.8439696039644787 -3.0361436121385945e-8
vn 0.5557013097954338 -0.8313820146548988 2.990860303520644e-8
vn -0.5557013097954338 0.8313820146548988 -2.990860303520644e-8
vn 0.5652464102362259 -0.8249221149387734 2.9676210935445308e-8
vn -0.5652464102362259 0.8249221149387734 -2.9676210935445308e-8
usemtl material_0_0
f 1/1/1 2/2/1 3/3/1
f 2/2/1 1/1/1 4/4/1
f 4/4/1 1/1/1 5/5/1
f 4/4/1 5/5/1 6/6/1
f 6/6/1 5/5/1 7/7/1
f 6/6/1 7/7/1 8/8/1
f 8/8/1 7/7/1 9/9/1
f 8/8/1 9/9/1 10/10/1
f 10/10/1 9/9/1 11/11/1
f 10/10/1 11/11/1 12/12/1
f 12/12/1 11/11/1 13/13/1
f 12/12/1 13/13/1 14/14/1
f 14/14/1 13/13/1 15/15/1
f 14/14/1 15/15/1 16/16/1
f 16/16/1 15/15/1 17/17/1
f 16/16/1 17/17/1 18/18/1
f 18/18/1 17/17/1 19/19/1
f 18/18/1 19/19/1 20/20/1
f 20/20/1 19/19/1 21/21/1
f 20/20/1 21/21/1 22/22/1
f 22/22/1 21/21/1 23/23/1
f 22/22/1 23/23/1 24/24/1
f 24/24/1 23/23/1 25/25/1
f 24/24/1 25/25/1 26/26/1
f 27/26/2 28/25/2 29/24/2
f 28/25/2 30/23/2 29/24/2
f 29/24/2 30/23/2 31/22/2
f 30/23/2 32/21/2 31/22/2
f 31/22/2 32/21/2 33/20/2
f 32/21/2 34/19/2 33/20/2
f 33/20/2 34/19/2 35/18/2
f 34/19/2 36/17/2 35/18/2
f 35/18/2 36/17/2 37/16/2
f 36/17/2 38/15/2 37/16/2
f 37/16/2 38/15/2 39/14/2
f 38/15/2 40/13/2 39/14/2
f 39/14/2 40/13/2 41/12/2
f 40/13/2 42/11/2 41/12/2
f 41/12/2 42/11/2 43/10/2
f 42/11/2 44/9/2 43/10/2
f 43/10/2 44/9/2 45/8/2
f 44/9/2 46/7/2 45/8/2
f 45/8/2 46/7/2 47/6/2
f 46/7/2 48/5/2 47/6/2
f 47/6/2 48/5/2 49/4/2
f 48/5/2 50/1/2 49/4/2
f 49/4/2 50/1/2 51/2/2
f 52/3/2 51/2/2 50/1/2
f 53/27/3 54/28/3 55/29/3
f 54/28/3 53/27/3 56/30/3
f 57/30/4 58/27/4 59/28/4
f 60/29/4 59/28/4 58/27/4
f 61/31/5 62/32/6 63/33/5
f 62/32/6 61/31/5 64/34/6
f 65/34/7 66/31/8 67/32/7
f 68/33/8 67/32/7 66/31/8
f 69/35/9 63/36/5 70/37/9
f 63/36/5 69/35/9 61/38/5
f 66/38/8 71/35/10 68/36/8
f 72/37/10 68/36/8 71/35/10
f 73/39/11 70/40/9 74/41/11
f 70/40/9 73/39/11 69/42/9
f 71/42/10 75/39/12 72/40/10
f 76/41/12 72/40/10 75/39/12
f 77/43/13 74/44/11 78/45/13
f 74/44/11 77/43/13 73/46/11
f 75/46/12 79/43/14 76/44/12
f 80/45/14 76/44/12 79/43/14
f 81/47/15 78/48/13 82/49/15
f 78/48/13 81/47/15 77/50/13
f 79/50/14 83/47/16 80/48/14
f 84/49/16 80/48/14 83/47/16
f 85/51/17 82/52/15 86/53/17
f 82/52/15 85/51/17 81/54/15
f 83/54/16 87/51/18 84/52/16
f 88/53/18 84/52/16 87/51/18
f 89/55/19 86/56/17 90/57/19
f 86/56/17 89/55/19 85/58/17
f 87/58/18 91/55/20 88/56/18
f 92/57/20 88/56/18 91/55/20
f 93/59/21 90/60/19 94/61/21
f 90/60/19 93/59/21 89/62/19
f 91/62/20 95/59/22 92/60/20
f 96/61/22 92/60/20 95/59/22
f 97/63/23 94/64/21 98/65/23
f 94/64/21 97/63/23 93/66/21
f 95/66/22 99/63/24 96/64/22
f 100/65/24 96/64/22 99/63/24
f 101/67/25 98/68/23 102/69/25
f 98/68/23 101/67/25 97/70/23
f 99/70/24 103/67/26 100/68/24
f 104/69/26 100/68/24 103/67/26
f 105/71/27 102/72/25 106/73/27
f 102/72/25 105/71/27 101/74/25
f 103/74/26 107/71/28 104/72/26
f 108/73/28 104/72/26 107/71/28
f 109/75/29 106/76/27 110/77/29
f 106/76/27 109/75/29 105/78/27
f 107/78/28 111/75/30 108/76/28
f 112/77/30 108/76/28 111/75/30
f 113/79/4 114/80/4 115/81/4
f 114/80/4 113/79/4 116/82/4
f 117/82/3 118/79/3 119/80/3
f 120/81/3 119/80/3 118/79/3
f 121/83/28 122/84/30 123/85/28
f 122/84/30 121/83/28 124/86/30
f 125/86/29 126/83/27 127/84/29
f 128/85/27 127/84/29 126/83/27
f 129/87/26 123/88/28 130/89/26
f 123/88/28 129/87/26 121/90/28
f 126/90/27 131/87/25 128/88/27
f 132/89/25 128/88/27 131/87/25
f 133/91/24 130/92/26 134/93/24
f 130/92/26 133/91/24 129/94/26
f 131/94/25 135/91/23 132/92/25
f 136/93/23 132/92/25 135/91/23
f 137/95/22 134/96/24 138/97/22
f 134/96/24 137/95/22 133/98/24
f 135/98/23 139/95/21 136/96/23
f 140/97/21 136/96/23 139/95/21
f 141/99/20 138/100/22 142/101/20
f 138/100/22 141/99/20 137/102/22
f 139/102/21 143/99/19 140/100/21
f 144/101/19 140/100/21 143/99/19
f 145/103/18 142/104/20 146/105/18
f 142/104/20 145/103/18 141/106/20
f 143/106/19 147/103/17 144/104/19
f 148/105/17 144/104/19 147/103/17
f 149/107/16 146/108/18 150/109/16
f 146/108/18 149/107/16 145/110/18
f 147/110/17 151/107/15 148/108/17
f 152/109/15 148/108/17 151/107/15
f 153/111/14 150/112/16 154/113/14
f 150/112/16 153/111/14 149/114/16
f 151/114/15 155/111/13 152/112/15
f 156/113/13 152/112/15 155/111/13
f 157/115/12 154/116/14 158/117/12
f 154/116/14 157/115/12 153/118/14
f 155/118/13 159/115/11 156/116/13
f 160/117/11 156/116/13 159/115/11
f 161/119/10 158/120/12 162/121/10
f 158/120/12 161/119/10 157/122/12
f 159/122/11 163/119/9 160/120/11
f 164/121/9 160/120/11 163/119/9
f 165/123/8 162/124/10 166/125/8
f 162/124/10 165/123/8 161/126/10
f 163/126/9 167/123/5 164/124/9
f 168/125/5 164/124/9 167/123/5
f 169/127/7 166/128/8 170/129/7
f 166/128/8 169/127/7 165/130/8
f 167/130/5 171/127/6 168/128/5
f 172/129/6 168/128/5 171/127/6
f 173/131/2 174/132/2 175/133/2
f 174/132/2 173/131/2 176/134/2
f 174/132/2 176/134/2 177/135/2
f 177/135/2 176/134/2 178/136/2
f 177/135/2 178/136/2 179/137/2
f 179/137/2 178/136/2 180/138/2
f 179/137/2 180/138/2 181/139/2
f 181/139/2 180/138/2 182/140/2
f 181/139/2 182/140/2 183/141/2
f 183/141/2 182/140/2 184/142/2
f 183/141/2 184/142/2 185/143/2
f 185/143/2 184/142/2 186/144/2
f 185/143/2 186/144/2 187/145/2
f 187/145/2 186/144/2 188/146/2
f 187/145/2 188/146/2 189/147/2
f 189/147/2 188/146/2 190/148/2
f 189/147/2 190/148/2 191/149/2
f 191/149/2 190/148/2 192/150/2
f 191/149/2 192/150/2 193/151/2
f 193/151/2 192/150/2 194/152/2
f 193/151/2 194/152/2 195/153/2
f 195/153/2 194/152/2 196/154/2
f 195/153/2 196/154/2 197/25/2
f 197/25/2 196/154/2 198/155/2
f 199/155/1 200/154/1 201/25/1
f 201/25/1 200/154/1 202/153/1
f 200/154/1 203/152/1 202/153/1
f 202/153/1 203/152/1 204/151/1
f 203/152/1 205/150/1 204/151/1
f 204/151/1 205/150/1 206/149/1
f 205/150/1 207/148/1 206/149/1
f 206/149/1 207/148/1 208/147/1
f 207/148/1 209/146/1 208/147/1
f 208/147/1 209/146/1 210/145/1
f 209/146/1 211/144/1 210/145/1
f 210/145/1 211/144/1 212/143/1
f 211/144/1 213/142/1 212/143/1
f 212/143/1 213/142/1 214/141/1
f 213/142/1 215/140/1 214/141/1
f 214/141/1 215/140/1 216/139/1
f 215/140/1 217/138/1 216/139/1
f 216/139/1 217/138/1 218/137/1
f 217/138/1 219/136/1 218/137/1
f 218/137/1 219/136/1 220/135/1
f 219/136/1 221/134/1 220/135/1
f 220/135/1 221/134/1 222/132/1
f 221/134/1 223/131/1 222/132/1
f 224/133/1 222/132/1 223/131/1
