# SSTK version 0.8.0
# 86
mtllib original-86.mtl
o group_18/ID270#ID270
v -0.24995162 0.61806194 0.07757906
v -0.24116603 0.61806237 0.06857302
v -0.20254835 0.61820927 0.07761217
v -0.25001340 0.61814999 0.05160444
v -0.24122798 0.61819154 0.05159845
v -0.23258512 0.61805358 0.05163488
v -0.22391089 0.61814044 0.06860236
v -0.23258546 0.61808752 0.06867027
v -0.22383128 0.61816470 0.05166834
v -0.21143509 0.61813473 0.06867391
v -0.20243865 0.61817531 0.05163502
v -0.21132849 0.61815389 0.05154285
v -0.21131433 0.61804894 0.05173595
v -0.21145882 0.61806731 0.06855474
v -0.20239828 0.61812543 0.05157314
v -0.22391049 0.61804085 0.06867600
v -0.23263213 0.61812041 0.06857530
v -0.24127399 0.61806627 0.06868024
v -0.20255636 0.61819828 0.07768659
v -0.22394483 0.61805982 0.05154291
v -0.23262245 0.61804398 0.05173690
v -0.24118602 0.61812361 0.05172483
v -0.25006286 0.61811581 0.05154417
v -0.25001069 0.61818616 0.07763034
v -0.25002755 0.62401884 0.07768184
v -0.25000174 0.61821274 0.05172762
v -0.24994476 0.61819199 0.07754334
v -0.25007124 0.62395614 0.05157155
v -0.24997706 0.62401156 0.05161417
v -0.25005897 0.62395874 0.07764754
v -0.25005096 0.61804815 0.05165017
v -0.24999394 0.61820785 0.07751105
v -0.25005873 0.61820087 0.05164226
v -0.24123930 0.62389001 0.05155891
v -0.24109136 0.61804109 0.05163940
v -0.24996257 0.62391680 0.05157648
v -0.24999609 0.62400981 0.05154551
v -0.25011163 0.61809957 0.05167121
v -0.24124814 0.62391073 0.05161245
v -0.24110215 0.61820460 0.05163159
v -0.24125932 0.62406363 0.05158417
v -0.24123015 0.61815402 0.06853427
v -0.24111554 0.61821042 0.05158740
v -0.24122231 0.62408560 0.06857905
v -0.24114208 0.62395437 0.06855559
v -0.24110442 0.62389601 0.05157725
v -0.24113302 0.61814858 0.06857797
v -0.24121256 0.61803109 0.05173600
v -0.24125095 0.61807308 0.06855914
v -0.23255072 0.62403918 0.06863824
v -0.23254566 0.61805012 0.06856105
v -0.24108459 0.62401899 0.06863633
v -0.24124406 0.62394227 0.06861115
v -0.24117220 0.61820806 0.06869411
v -0.23250417 0.62397695 0.06858774
v -0.23264421 0.61815799 0.06866523
v -0.23254652 0.62406198 0.06852873
v -0.23263148 0.61820321 0.05166773
v -0.23250626 0.61819020 0.06869704
v -0.23253774 0.62403055 0.05162240
v -0.23259165 0.62398932 0.05156185
v -0.23263984 0.62404619 0.06868319
v -0.23249791 0.61817787 0.05161201
v -0.23264226 0.61803770 0.06863205
v -0.23251957 0.61819725 0.05171865
v -0.22388195 0.62406201 0.05166162
v -0.22389631 0.61811401 0.05172288
v -0.23250533 0.62400294 0.05170231
v -0.23250983 0.62401708 0.05172909
v -0.23250258 0.61821391 0.05164500
v -0.22393405 0.62395170 0.05170433
v -0.22387105 0.61817104 0.05154482
v -0.22393201 0.62403981 0.05162673
v -0.22384775 0.61802864 0.06871199
v -0.22389526 0.61811120 0.05163036
v -0.22396953 0.62395975 0.06852040
v -0.22386265 0.62405720 0.06858177
v -0.22387885 0.62406385 0.05163096
v -0.22395308 0.61819709 0.06868922
v -0.22386026 0.61811061 0.05157626
v -0.22389470 0.61802085 0.06855507
v -0.21133146 0.62388929 0.06853664
v -0.21133055 0.61820134 0.06858200
v -0.22390821 0.62389258 0.06854958
v -0.22384662 0.62402749 0.06859297
v -0.22378759 0.61807328 0.06858631
v -0.21131372 0.62404347 0.06864669
v -0.21129580 0.61804619 0.06868021
v -0.21129575 0.62388723 0.06861239
v -0.21138953 0.61807498 0.05163744
v -0.21141509 0.61804347 0.06856349
v -0.21129334 0.62394362 0.05170566
v -0.21131326 0.62400545 0.05165694
v -0.21135944 0.62401841 0.06853824
v -0.21129863 0.61803275 0.05155062
v -0.21137001 0.61802463 0.06854341
v -0.21137459 0.61818778 0.05155977
v -0.20243609 0.62397694 0.05156667
v -0.20243455 0.61805060 0.05155023
v -0.21130619 0.62404090 0.05165892
v -0.21143327 0.62389877 0.05166869
v -0.21129503 0.61821147 0.05172742
v -0.20254583 0.62394658 0.05161882
v -0.20246435 0.61817876 0.05161379
v -0.20254085 0.62393298 0.05158039
v -0.20238880 0.61812015 0.07763036
v -0.20252953 0.61810709 0.05162860
v -0.20248001 0.62401140 0.07758571
v -0.20244253 0.62403356 0.07765198
v -0.20253303 0.62402720 0.05173834
v -0.20237220 0.61803005 0.07751158
v -0.20242407 0.61810411 0.05173329
v -0.25013941 0.62402169 0.07760933
v -0.20244357 0.61819256 0.07763725
v -0.20245486 0.62390388 0.07751608
v -0.25013483 0.61806415 0.07766410
v -0.24999082 0.61808436 0.07762062
v -0.24998028 0.62399537 0.07769230
v -0.20254604 0.61820654 0.07759725
v -0.20238918 0.62403138 0.07764957
v -0.20250536 0.62402878 0.07766800
v -0.21144636 0.62398493 0.06865927
v -0.24995026 0.62404010 0.07760860
v -0.20255250 0.62405224 0.05164687
v -0.21137730 0.62391118 0.05154255
v -0.22395592 0.62390348 0.05168623
v -0.23255153 0.62406861 0.06867674
v -0.22387683 0.62397810 0.06866249
v -0.23252982 0.62406857 0.05163772
v -0.24110735 0.62406953 0.06855891
v -0.25003990 0.62408309 0.05155362
v -0.24123774 0.62397150 0.05154296
v -0.24122407 0.62400840 0.05172563
v -0.24126817 0.62406393 0.06857036
v -0.25000764 0.62400344 0.05171310
v -0.23266699 0.62393767 0.06866410
v -0.22384885 0.62405083 0.06858244
v -0.21138055 0.62400719 0.06864936
v -0.25008904 0.62398266 0.07755856
v -0.23259776 0.62399919 0.05170186
v -0.22395334 0.62394730 0.05160418
v -0.21129153 0.62406522 0.05163404
v -0.20238327 0.62407360 0.05160715
v -0.20250904 0.62392696 0.07755062
vt 0 0.2441518
vt -0.04614155 0.1986742
vt 0 0
vt -0.1332794 0.2441518
vt -0.1332794 0.1986742
vt -0.1332794 0.1545244
vt -0.04614155 0.1098766
vt -0.04614155 0.1545244
vt -0.1332794 0.1098766
vt -0.04614155 0.04564362
vt -0.1332794 0
vt -0.1332794 0.04564362
vt 0 0.04249006
vt -0.1332794 0.04249006
vt 0.2441518 0
vt 0.1986742 0.04249006
vt 0.1986742 0
vt 0.2441518 0.04249006
vt 0.1332794 0.04249006
vt 0.04614155 0
vt 0.1332794 0
vt 0.04614155 0.04249006
vt 0.1545244 0.04249006
vt 0.1545244 0
vt -0.04614155 0.04249006
vt -0.04614155 0
vt 0.1098766 0.04249006
vt 0.1098766 0
vt 0.04564362 0.04249006
vt 0.04564362 0
vt -0.2441518 0.04249006
vt -0.2441518 0
vt 0.04614155 0.04564362
vt 0.1332794 0.04564362
vt 0.1332794 0.1098766
vt 0.04614155 0.1545244
vt 0.04614155 0.1098766
vt 0.1332794 0.1545244
vt 0.04614155 0.1986742
vt 0.1332794 0.2441518
vt 0.1332794 0.1986742
vn 0 -1 3.597456166293249e-8
vn 0 1 -3.597456166293249e-8
vn -1 0 0
vn 1 0 0
vn 0 -3.597456355031163e-8 -1
vn 0 3.597456355031163e-8 1
usemtl material_0_0
f 1/1/1 2/2/1 3/3/1
f 2/2/1 1/1/1 4/4/1
f 2/2/1 4/4/1 5/5/1
f 6/6/1 7/7/1 8/8/1
f 7/7/1 6/6/1 9/9/1
f 3/3/1 10/10/1 11/11/1
f 10/10/1 3/3/1 2/2/1
f 10/10/1 2/2/1 8/8/1
f 10/10/1 8/8/1 7/7/1
f 11/11/1 10/10/1 12/12/1
f 13/12/2 14/10/2 15/11/2
f 16/7/2 17/8/2 14/10/2
f 17/8/2 18/2/2 14/10/2
f 18/2/2 19/3/2 14/10/2
f 15/11/2 14/10/2 19/3/2
f 20/9/2 21/6/2 16/7/2
f 17/8/2 16/7/2 21/6/2
f 22/5/2 23/4/2 18/2/2
f 23/4/2 24/1/2 18/2/2
f 19/3/2 18/2/2 24/1/2
f 25/13/3 26/11/3 27/3/3
f 26/11/3 25/13/3 28/14/3
f 29/14/4 30/13/4 31/11/4
f 32/3/4 31/11/4 30/13/4
f 33/15/5 34/16/5 35/17/5
f 34/16/5 33/15/5 36/18/5
f 37/18/6 38/15/6 39/16/6
f 40/17/6 39/16/6 38/15/6
f 41/19/4 42/20/4 43/21/4
f 42/20/4 41/19/4 44/22/4
f 45/22/3 46/19/3 47/20/3
f 48/21/3 47/20/3 46/19/3
f 49/17/5 50/23/5 51/24/5
f 50/23/5 49/17/5 52/16/5
f 53/16/6 54/17/6 55/23/6
f 56/24/6 55/23/6 54/17/6
f 57/25/3 58/11/3 59/26/3
f 58/11/3 57/25/3 60/14/3
f 61/14/4 62/25/4 63/11/4
f 64/26/4 63/11/4 62/25/4
f 65/24/5 66/27/5 67/28/5
f 66/27/5 65/24/5 68/23/5
f 69/23/6 70/24/6 71/27/6
f 72/28/6 71/27/6 70/24/6
f 73/19/4 74/20/4 75/21/4
f 74/20/4 73/19/4 76/22/4
f 77/22/3 78/19/3 79/20/3
f 80/21/3 79/20/3 78/19/3
f 81/28/5 82/29/5 83/30/5
f 82/29/5 81/28/5 84/27/5
f 85/27/6 86/28/6 87/29/6
f 88/30/6 87/29/6 86/28/6
f 89/25/3 90/11/3 91/26/3
f 90/11/3 89/25/3 92/14/3
f 93/14/4 94/25/4 95/11/4
f 96/26/4 95/11/4 94/25/4
f 97/30/5 98/13/5 99/3/5
f 98/13/5 97/30/5 100/29/5
f 101/29/6 102/30/6 103/13/6
f 104/3/6 103/13/6 102/30/6
f 105/19/4 106/3/4 107/21/4
f 106/3/4 105/19/4 108/13/4
f 109/13/3 110/19/3 111/3/3
f 112/21/3 111/3/3 110/19/3
f 113/31/6 114/3/6 115/13/6
f 114/3/6 113/31/6 116/32/6
f 117/32/5 118/31/5 119/3/5
f 120/13/5 119/3/5 118/31/5
f 121/3/2 122/33/2 123/1/2
f 122/33/2 121/3/2 124/21/2
f 122/33/2 124/21/2 125/34/2
f 126/35/2 127/36/2 128/37/2
f 127/36/2 126/35/2 129/38/2
f 123/1/2 130/39/2 131/40/2
f 130/39/2 123/1/2 122/33/2
f 130/39/2 122/33/2 128/37/2
f 130/39/2 128/37/2 127/36/2
f 131/40/2 130/39/2 132/41/2
f 133/41/1 134/39/1 135/40/1
f 136/36/1 137/37/1 134/39/1
f 137/37/1 138/33/1 134/39/1
f 138/33/1 139/1/1 134/39/1
f 135/40/1 134/39/1 139/1/1
f 140/38/1 141/35/1 136/36/1
f 137/37/1 136/36/1 141/35/1
f 142/34/1 143/21/1 138/33/1
f 143/21/1 144/3/1 138/33/1
f 139/1/1 138/33/1 144/3/1
