# SSTK version 0.8.0
# 39
mtllib original-39.mtl
o group_17/ID261#ID261
v -0.17217015 0.19518782 -0.55613180
v -0.16791588 0.20381290 -0.55609828
v -0.13808108 0.20639350 -0.55620292
v -0.17829601 0.21389008 -0.55611146
v -0.17183719 0.21604995 -0.55622383
v -0.16563525 0.21796844 -0.55623133
v -0.15543664 0.20788210 -0.55617449
v -0.16177698 0.20569861 -0.55609792
v -0.15952768 0.21992974 -0.55621976
v -0.14655816 0.21080278 -0.55614028
v -0.14414011 0.22505717 -0.55625586
v -0.15055410 0.22302263 -0.55612256
v -0.15039867 0.22287435 -0.55622253
v -0.14657956 0.21067119 -0.55626197
v -0.14411915 0.22511485 -0.55622394
v -0.15551770 0.20787889 -0.55613743
v -0.16172856 0.20581821 -0.55616590
v -0.16792754 0.20372076 -0.55624558
v -0.13801555 0.20640917 -0.55621587
v -0.15938761 0.22003948 -0.55611898
v -0.16569953 0.21793570 -0.55622797
v -0.17193239 0.21592222 -0.55619269
v -0.17817314 0.21381981 -0.55614811
v -0.17220205 0.19523872 -0.55617149
v -0.17210353 0.19522386 -0.55023407
v -0.17819906 0.21398051 -0.55611347
v -0.17217630 0.19515366 -0.55611703
v -0.17817952 0.21397887 -0.55023481
v -0.17822450 0.21391233 -0.55027021
v -0.17228246 0.19532199 -0.55032571
v -0.17829410 0.21396934 -0.55615876
v -0.17216821 0.19532275 -0.55614753
v -0.17829359 0.21400039 -0.55618534
v -0.17188112 0.21591068 -0.55026702
v -0.17185682 0.21593376 -0.55626782
v -0.17816249 0.21384783 -0.55040777
v -0.17819662 0.21388927 -0.55025786
v -0.17820071 0.21382586 -0.55614104
v -0.17193640 0.21602310 -0.55041706
v -0.17194268 0.21601713 -0.55611973
v -0.17195667 0.21601777 -0.55042234
v -0.16787284 0.20388058 -0.55619234
v -0.17186438 0.21604963 -0.55626981
v -0.16796651 0.20379749 -0.55035407
v -0.16800244 0.20385153 -0.55024209
v -0.17181472 0.21599103 -0.55039230
v -0.16783121 0.20376353 -0.55615650
v -0.17191654 0.21596434 -0.55616489
v -0.16799691 0.20374572 -0.55621837
v -0.16183987 0.20577134 -0.55031145
v -0.16184339 0.20582440 -0.55622917
v -0.16802410 0.20385785 -0.55035147
v -0.16799362 0.20382863 -0.55036968
v -0.16785819 0.20384876 -0.55621641
v -0.16171504 0.20570076 -0.55030773
v -0.16173546 0.20582466 -0.55617671
v -0.16176587 0.20575378 -0.55026707
v -0.16568300 0.21792746 -0.55623531
v -0.16168171 0.20587870 -0.55615869
v -0.16569880 0.21802182 -0.55023334
v -0.16573922 0.21803274 -0.55034830
v -0.16169911 0.20578301 -0.55036456
v -0.16576893 0.21791154 -0.55623271
v -0.16176414 0.20584405 -0.55626119
v -0.16575876 0.21806185 -0.55612742
v -0.15944258 0.22006944 -0.55037330
v -0.15937986 0.22001155 -0.55627981
v -0.16575466 0.21798661 -0.55033530
v -0.16577623 0.21789369 -0.55031393
v -0.16576670 0.21798856 -0.55609450
v -0.15941445 0.22010858 -0.55040392
v -0.15955874 0.21997703 -0.55618554
v -0.15941349 0.21996971 -0.55025720
v -0.15557084 0.20783943 -0.55620415
v -0.15944327 0.21993550 -0.55610059
v -0.15558247 0.20789693 -0.55029868
v -0.15552438 0.20776254 -0.55023757
v -0.15940491 0.22007942 -0.55028364
v -0.15553789 0.20789850 -0.55609627
v -0.15936398 0.21998228 -0.55622878
v -0.15545060 0.20782532 -0.55627771
v -0.14651811 0.21064797 -0.55026063
v -0.14641920 0.21081146 -0.55612261
v -0.15546570 0.20778246 -0.55027384
v -0.15550420 0.20791214 -0.55037397
v -0.15547758 0.20774007 -0.55614385
v -0.14640830 0.21083712 -0.55041205
v -0.14654216 0.21079225 -0.55622364
v -0.14640997 0.21077923 -0.55030940
v -0.15046762 0.22294171 -0.55621215
v -0.14652980 0.21077480 -0.55617160
v -0.15048594 0.22291517 -0.55030428
v -0.15043304 0.22291466 -0.55041932
v -0.14648916 0.21069106 -0.55030546
v -0.15046355 0.22292546 -0.55618722
v -0.14658915 0.21065624 -0.55611922
v -0.15046071 0.22290373 -0.55615593
v -0.14410943 0.22509633 -0.55034326
v -0.14412599 0.22505987 -0.55624523
v -0.15037440 0.22284623 -0.55025082
v -0.15044326 0.22300506 -0.55037068
v -0.15055235 0.22290751 -0.55626284
v -0.14404428 0.22500489 -0.55026656
v -0.14412927 0.22493327 -0.55622384
v -0.14410703 0.22511805 -0.55030655
v -0.13803077 0.20642607 -0.55614784
v -0.14413617 0.22501271 -0.55624791
v -0.13807641 0.20636138 -0.55037491
v -0.13793895 0.20643778 -0.55033547
v -0.14412777 0.22501639 -0.55023171
v -0.13793723 0.20641492 -0.55627871
v -0.14417800 0.22505470 -0.55615283
v -0.17211582 0.19530855 -0.55031605
v -0.13801071 0.20628144 -0.55617779
v -0.13809451 0.20639164 -0.55034204
v -0.17226502 0.19531241 -0.55627525
v -0.17221471 0.19527518 -0.55609691
v -0.17219797 0.19517915 -0.55023360
v -0.13794769 0.20637643 -0.55619841
v -0.13810505 0.20631949 -0.55036715
v -0.13805742 0.20632920 -0.55028390
v -0.14643350 0.21083850 -0.55038471
v -0.17213685 0.19518124 -0.55038392
v -0.14411875 0.22503872 -0.55031962
v -0.15038802 0.22287915 -0.55037888
v -0.15954731 0.21993682 -0.55036624
v -0.16178104 0.20574097 -0.55027033
v -0.15558913 0.20777816 -0.55040610
v -0.16576013 0.21806160 -0.55031316
v -0.16797996 0.20383693 -0.55040958
v -0.17818756 0.21390666 -0.55030746
v -0.17198898 0.21606615 -0.55041265
v -0.17198980 0.21595521 -0.55027976
v -0.16783982 0.20385048 -0.55022507
v -0.17818154 0.21394820 -0.55023701
v -0.16167116 0.20588386 -0.55029412
v -0.15553747 0.20778278 -0.55033874
v -0.14647048 0.21075868 -0.55034690
v -0.17211064 0.19533844 -0.55031415
v -0.16577340 0.21790268 -0.55024311
v -0.15940692 0.21998736 -0.55038470
v -0.15048360 0.22294358 -0.55038057
v -0.14409844 0.22494640 -0.55036223
v -0.13795685 0.20632147 -0.55033588
vt 0 0.2441518
vt -0.04614155 0.1986742
vt 0 0
vt -0.1332794 0.2441518
vt -0.1332794 0.1986742
vt -0.1332794 0.1545244
vt -0.04614155 0.1098766
vt -0.04614155 0.1545244
vt -0.1332794 0.1098766
vt -0.04614155 0.04564362
vt -0.1332794 0
vt -0.1332794 0.04564362
vt 0 0.04249006
vt -0.1332794 0.04249006
vt 0.2441518 0
vt 0.1986742 0.04249006
vt 0.1986742 0
vt 0.2441518 0.04249006
vt 0.1332794 0.04249006
vt 0.04614155 0
vt 0.1332794 0
vt 0.04614155 0.04249006
vt 0.1545244 0.04249006
vt 0.1545244 0
vt -0.04614155 0.04249006
vt -0.04614155 0
vt 0.1098766 0.04249006
vt 0.1098766 0
vt 0.04564362 0.04249006
vt 0.04564362 0
vt -0.2441518 0.04249006
vt -0.2441518 0
vt 0.04614155 0.04564362
vt 0.1332794 0.04564362
vt 0.1332794 0.1098766
vt 0.04614155 0.1545244
vt 0.04614155 0.1098766
vt 0.1332794 0.1545244
vt 0.04614155 0.1986742
vt 0.1332794 0.2441518
vt 0.1332794 0.1986742
vn 0 -3.5974563119814385e-8 -1
vn 0 3.5974563119814385e-8 1
vn -0.9510565130859431 -0.30901700425188106 1.1116754456320227e-8
vn 0.9510565130859431 0.30901700425188106 -1.1116754456320227e-8
vn -0.30901700425188144 0.9510565130859425 -3.421384167291654e-8
vn 0.30901700425188144 -0.9510565130859425 3.421384167291654e-8
usemtl material_0_0
f 1/1/1 2/2/1 3/3/1
f 2/2/1 1/1/1 4/4/1
f 2/2/1 4/4/1 5/5/1
f 6/6/1 7/7/1 8/8/1
f 7/7/1 6/6/1 9/9/1
f 3/3/1 10/10/1 11/11/1
f 10/10/1 3/3/1 2/2/1
f 10/10/1 2/2/1 8/8/1
f 10/10/1 8/8/1 7/7/1
f 11/11/1 10/10/1 12/12/1
f 13/12/2 14/10/2 15/11/2
f 16/7/2 17/8/2 14/10/2
f 17/8/2 18/2/2 14/10/2
f 18/2/2 19/3/2 14/10/2
f 15/11/2 14/10/2 19/3/2
f 20/9/2 21/6/2 16/7/2
f 17/8/2 16/7/2 21/6/2
f 22/5/2 23/4/2 18/2/2
f 23/4/2 24/1/2 18/2/2
f 19/3/2 18/2/2 24/1/2
f 25/13/3 26/11/3 27/3/3
f 26/11/3 25/13/3 28/14/3
f 29/14/4 30/13/4 31/11/4
f 32/3/4 31/11/4 30/13/4
f 33/15/5 34/16/5 35/17/5
f 34/16/5 33/15/5 36/18/5
f 37/18/6 38/15/6 39/16/6
f 40/17/6 39/16/6 38/15/6
f 41/19/4 42/20/4 43/21/4
f 42/20/4 41/19/4 44/22/4
f 45/22/3 46/19/3 47/20/3
f 48/21/3 47/20/3 46/19/3
f 49/17/5 50/23/5 51/24/5
f 50/23/5 49/17/5 52/16/5
f 53/16/6 54/17/6 55/23/6
f 56/24/6 55/23/6 54/17/6
f 57/25/3 58/11/3 59/26/3
f 58/11/3 57/25/3 60/14/3
f 61/14/4 62/25/4 63/11/4
f 64/26/4 63/11/4 62/25/4
f 65/24/5 66/27/5 67/28/5
f 66/27/5 65/24/5 68/23/5
f 69/23/6 70/24/6 71/27/6
f 72/28/6 71/27/6 70/24/6
f 73/19/4 74/20/4 75/21/4
f 74/20/4 73/19/4 76/22/4
f 77/22/3 78/19/3 79/20/3
f 80/21/3 79/20/3 78/19/3
f 81/28/5 82/29/5 83/30/5
f 82/29/5 81/28/5 84/27/5
f 85/27/6 86/28/6 87/29/6
f 88/30/6 87/29/6 86/28/6
f 89/25/3 90/11/3 91/26/3
f 90/11/3 89/25/3 92/14/3
f 93/14/4 94/25/4 95/11/4
f 96/26/4 95/11/4 94/25/4
f 97/30/5 98/13/5 99/3/5
f 98/13/5 97/30/5 100/29/5
f 101/29/6 102/30/6 103/13/6
f 104/3/6 103/13/6 102/30/6
f 105/19/4 106/3/4 107/21/4
f 106/3/4 105/19/4 108/13/4
f 109/13/3 110/19/3 111/3/3
f 112/21/3 111/3/3 110/19/3
f 113/31/6 114/3/6 115/13/6
f 114/3/6 113/31/6 116/32/6
f 117/32/5 118/31/5 119/3/5
f 120/13/5 119/3/5 118/31/5
f 121/3/2 122/33/2 123/1/2
f 122/33/2 121/3/2 124/21/2
f 122/33/2 124/21/2 125/34/2
f 126/35/2 127/36/2 128/37/2
f 127/36/2 126/35/2 129/38/2
f 123/1/2 130/39/2 131/40/2
f 130/39/2 123/1/2 122/33/2
f 130/39/2 122/33/2 128/37/2
f 130/39/2 128/37/2 127/36/2
f 131/40/2 130/39/2 132/41/2
f 133/41/1 134/39/1 135/40/1
f 136/36/1 137/37/1 134/39/1
f 137/37/1 138/33/1 134/39/1
f 138/33/1 139/1/1 134/39/1
f 135/40/1 134/39/1 139/1/1
f 140/38/1 141/35/1 136/36/1
f 137/37/1 136/36/1 141/35/1
f 142/34/1 143/21/1 138/33/1
f 143/21/1 144/3/1 138/33/1
f 139/1/1 138/33/1 144/3/1
