# SSTK version 0.8.0
# 89
mtllib original-89.mtl
o #ID288
v -0.19477829 0.61816039 -0.07047907
v -0.18298366 0.61810504 -0.06221994
v -0.18996989 0.61804721 -0.06674403
v -0.19838233 0.61805783 -0.07424646
v -0.17987816 0.61820468 -0.06082898
v -0.20130577 0.61820580 -0.07767130
v -0.17696722 0.61807013 -0.05989074
v -0.17206646 0.61811884 -0.05932165
v -0.20300595 0.61814036 -0.08120832
v -0.20373195 0.61812070 -0.08484368
v -0.16750700 0.61813127 -0.06001951
v -0.20365034 0.61804211 -0.08840813
v -0.18447837 0.61820489 -0.07401494
v -0.18917790 0.61809668 -0.07775511
v -0.19244777 0.61820864 -0.08087583
v -0.20265519 0.61810066 -0.09168780
v -0.19420722 0.61812712 -0.08364259
v -0.19495689 0.61814679 -0.08599648
v -0.19460692 0.61813003 -0.08825774
v -0.20076099 0.61809605 -0.09516500
v -0.19379757 0.61813794 -0.09021773
v -0.19745978 0.61809035 -0.09853838
v -0.19250880 0.61820794 -0.09139280
v -0.19116439 0.61820883 -0.09221432
v -0.18958320 0.61803695 -0.09255102
v -0.18761391 0.61807455 -0.09255464
v -0.19351590 0.61807295 -0.10083650
v -0.18528041 0.61802635 -0.09204343
v -0.18263154 0.61817276 -0.09088921
v -0.17595527 0.61808392 -0.08662040
v -0.17801498 0.61806179 -0.06995717
v -0.16355889 0.61816950 -0.06225536
v -0.17534230 0.61804561 -0.06873002
v -0.17313604 0.61813330 -0.06839359
v -0.17126211 0.61801909 -0.06838441
v -0.16018561 0.61815675 -0.06596050
v -0.16954041 0.61809900 -0.06885719
v -0.16823232 0.61812255 -0.06958189
v -0.16713331 0.61815379 -0.07085666
v -0.16636174 0.61811499 -0.07225697
v -0.15783309 0.61804509 -0.07019662
v -0.16591850 0.61810041 -0.07364109
v -0.16606857 0.61804781 -0.07520704
v -0.16663343 0.61806453 -0.07691417
v -0.15727812 0.61810726 -0.07231998
v -0.16794942 0.61816541 -0.07919193
v -0.16989419 0.61809993 -0.08143688
v -0.15705794 0.61812369 -0.07458977
v -0.19132768 0.61810721 -0.10136091
v -0.15720611 0.61819171 -0.07673155
v -0.18895596 0.61817735 -0.10160688
v -0.15767759 0.61820703 -0.07898124
v -0.18380415 0.61815249 -0.10102045
v -0.15987670 0.61812213 -0.08367728
v -0.16167318 0.61821065 -0.08606545
v -0.17766910 0.61817888 -0.09842029
v -0.16407647 0.61804355 -0.08872370
v -0.17072208 0.61802869 -0.09394733
v -0.17073443 0.61813302 -0.09393846
v -0.17764015 0.61806358 -0.09847889
v -0.16410733 0.61820062 -0.08869652
v -0.16169003 0.61804582 -0.08608493
v -0.18373833 0.61813813 -0.10087092
v -0.16003296 0.61804723 -0.08364982
v -0.15761486 0.61821550 -0.07892380
v -0.18890792 0.61811400 -0.10165305
v -0.15718594 0.61807760 -0.07665745
v -0.19132169 0.61808530 -0.10149455
v -0.15701240 0.61809912 -0.07459104
v -0.19336134 0.61803302 -0.10074146
v -0.17583611 0.61810042 -0.08661076
v -0.15711372 0.61811071 -0.07231441
v -0.16975505 0.61805713 -0.08156862
v -0.16783215 0.61815574 -0.07920479
v -0.16657071 0.61815358 -0.07705272
v -0.15786520 0.61815048 -0.07027085
v -0.16606062 0.61812763 -0.07528891
v -0.16588653 0.61819692 -0.07361431
v -0.16629047 0.61819569 -0.07216737
v -0.16028928 0.61804784 -0.06581979
v -0.16705230 0.61816574 -0.07084048
v -0.16820251 0.61815266 -0.06958322
v -0.16962085 0.61811192 -0.06877281
v -0.17115681 0.61810506 -0.06842149
v -0.16354393 0.61821394 -0.06237528
v -0.17305110 0.61813189 -0.06839987
v -0.17532577 0.61819683 -0.06878770
v -0.17802254 0.61806425 -0.06985594
v -0.18449763 0.61801819 -0.07385561
v -0.16746096 0.61811315 -0.06005413
v -0.18259116 0.61817525 -0.09076831
v -0.18531909 0.61820943 -0.09202530
v -0.18771074 0.61806650 -0.09248288
v -0.19744071 0.61819867 -0.09860641
v -0.18948387 0.61803026 -0.09246121
v -0.19128312 0.61817738 -0.09209369
v -0.19253260 0.61821423 -0.09139738
v -0.19372853 0.61808446 -0.09014255
v -0.20071421 0.61810575 -0.09499070
v -0.19461620 0.61811754 -0.08812834
v -0.20267692 0.61807990 -0.09170814
v -0.19482788 0.61820465 -0.08601526
v -0.19414353 0.61810927 -0.08350345
v -0.19248436 0.61818944 -0.08093296
v -0.20367034 0.61805495 -0.08824928
v -0.18928780 0.61815651 -0.07763439
v -0.20384027 0.61803155 -0.08476148
v -0.17203977 0.61815183 -0.05935283
v -0.20294761 0.61805440 -0.08124072
v -0.20130137 0.61816971 -0.07765487
v -0.17697333 0.61808212 -0.05993811
v -0.17983088 0.61816950 -0.06090910
v -0.19854937 0.61803085 -0.07411338
v -0.18293045 0.61819851 -0.06231221
v -0.19468433 0.61814062 -0.07057889
v -0.18995781 0.61804309 -0.06662003
v -0.20083367 0.62407775 -0.09510790
v -0.19737256 0.61812075 -0.09859178
v -0.20086651 0.61809567 -0.09513789
v -0.19734955 0.62396871 -0.09856586
v -0.19738855 0.62388730 -0.09867230
v -0.20079869 0.62408020 -0.09501078
v -0.19738318 0.61819392 -0.09870220
v -0.20070477 0.61807856 -0.09510408
v -0.19745092 0.62400035 -0.09852559
v -0.19353567 0.61817961 -0.10087188
v -0.19738975 0.61818154 -0.09852488
v -0.19339621 0.62403426 -0.10086672
v -0.19336653 0.62395627 -0.10080413
v -0.19749702 0.62391529 -0.09865191
v -0.19340814 0.61811808 -0.10085160
v -0.19736150 0.61814990 -0.09865894
v -0.19336369 0.62399583 -0.10092138
v -0.19132796 0.61820772 -0.10142960
v -0.19352532 0.61814422 -0.10090096
v -0.19119739 0.62393705 -0.10150465
v -0.19122527 0.62406829 -0.10141518
v -0.19335391 0.62405808 -0.10092458
v -0.19130615 0.61810110 -0.10140416
v -0.19342807 0.61809706 -0.10084497
v -0.19117096 0.61805857 -0.10137948
v -0.18885344 0.62406057 -0.10155948
v -0.18883607 0.61806901 -0.10164451
v -0.19114964 0.62398987 -0.10132764
v -0.19122827 0.62397912 -0.10149885
v -0.19130827 0.61803312 -0.10138205
v -0.18888250 0.62389322 -0.10157477
v -0.18894695 0.61819584 -0.10154833
v -0.18897073 0.61821017 -0.10155129
v -0.18368574 0.62401337 -0.10096015
v -0.18368942 0.61812873 -0.10097325
v -0.18878608 0.62393818 -0.10168721
v -0.18895932 0.62392389 -0.10161600
v -0.18894079 0.61813812 -0.10169572
v -0.18376985 0.62402632 -0.10090875
v -0.18365847 0.61812374 -0.10092220
v -0.18363482 0.61804330 -0.10101736
v -0.17777145 0.62399432 -0.09847634
v -0.17777028 0.61813089 -0.09848542
v -0.18365680 0.62396140 -0.10098783
v -0.18373973 0.62393024 -0.10086111
v -0.18362090 0.61817707 -0.10090302
v -0.17773941 0.62396555 -0.09844024
v -0.17769826 0.61810143 -0.09840720
v -0.17058823 0.62401831 -0.09397202
v -0.17056109 0.61816934 -0.09400835
v -0.17070031 0.62405511 -0.09397802
v -0.17066163 0.61816633 -0.09404235
v -0.16415053 0.62398363 -0.08857228
v -0.16421487 0.61806777 -0.08864559
v -0.16415877 0.62393445 -0.08856524
v -0.16423372 0.61813831 -0.08855653
v -0.16406948 0.61809899 -0.08864278
v -0.16175993 0.62388881 -0.08607589
v -0.16166313 0.61813622 -0.08600761
v -0.16414098 0.62394997 -0.08861552
v -0.16413095 0.62405224 -0.08868022
v -0.16423557 0.61807753 -0.08870811
v -0.16175615 0.62388752 -0.08609541
v -0.16172463 0.61802508 -0.08602619
v -0.16177274 0.61810015 -0.08614782
v -0.16002892 0.62394370 -0.08367834
v -0.16003192 0.61819608 -0.08364943
v -0.16170589 0.62399497 -0.08613874
v -0.16176803 0.62399178 -0.08616176
v -0.16168541 0.61808812 -0.08599269
v -0.15994657 0.62396824 -0.08363281
v -0.15998823 0.61809421 -0.08368171
v -0.16002282 0.61804135 -0.08357553
v -0.15774458 0.62405569 -0.07901789
v -0.15775827 0.61803618 -0.07901086
v -0.15987582 0.62395156 -0.08355776
v -0.16000855 0.62408691 -0.08365332
v -0.16002697 0.61810220 -0.08362201
v -0.15759036 0.62408622 -0.07907210
v -0.15773476 0.61807479 -0.07896247
v -0.15774720 0.61805006 -0.07904104
v -0.15720014 0.62404319 -0.07682298
v -0.15723659 0.61810361 -0.07676584
v -0.15776101 0.62397113 -0.07896680
v -0.15778111 0.62407987 -0.07905132
v -0.15766910 0.61804081 -0.07898547
v -0.15720388 0.62406398 -0.07668350
v -0.15717426 0.61807055 -0.07677569
v -0.15723123 0.62402789 -0.07664784
v -0.15700140 0.61814501 -0.07459893
v -0.15704753 0.61815465 -0.07678544
v -0.15698117 0.62397096 -0.07461207
v -0.15694235 0.62394888 -0.07447841
v -0.15721732 0.62396004 -0.07679118
v -0.15691783 0.61803847 -0.07448795
v -0.15709110 0.61803581 -0.07676674
v -0.15689060 0.62396155 -0.07455614
v -0.15724717 0.61805349 -0.07243767
v -0.15696891 0.61806692 -0.07465751
v -0.15719511 0.62404775 -0.07239403
v -0.15711828 0.62398581 -0.07234915
v -0.15696308 0.62391814 -0.07461836
v -0.15721592 0.61815381 -0.07236269
v -0.15703888 0.61802746 -0.07447523
v -0.15722858 0.62393459 -0.07249428
v -0.15778989 0.61817512 -0.07027611
v -0.15723371 0.61812534 -0.07247838
v -0.15772783 0.62389101 -0.07016732
v -0.15781068 0.62400381 -0.07030463
v -0.15716794 0.62398775 -0.07242609
v -0.15789783 0.61809949 -0.07029049
v -0.15722385 0.61805732 -0.07243550
v -0.15779744 0.62405720 -0.07028552
v -0.16022660 0.61808742 -0.06595534
v -0.15790682 0.61806932 -0.07032993
v -0.16020989 0.62399865 -0.06582801
v -0.16025715 0.62393823 -0.06592353
v -0.15777620 0.62402495 -0.07025983
v -0.16026072 0.61804750 -0.06595666
v -0.15776022 0.61820982 -0.07015743
v -0.16028508 0.62395688 -0.06589168
v -0.16365530 0.61808341 -0.06232632
v -0.16018879 0.61819347 -0.06590134
v -0.16354056 0.62395179 -0.06230388
v -0.16359303 0.62398058 -0.06229871
v -0.16011223 0.62396618 -0.06591624
v -0.16352878 0.61816924 -0.06221988
v -0.16018741 0.61804746 -0.06582574
v -0.16361333 0.62394619 -0.06230734
v -0.16754609 0.61821441 -0.06005825
v -0.16370015 0.61803408 -0.06218614
v -0.16750680 0.62392274 -0.05997508
v -0.16757254 0.62393159 -0.06011272
v -0.16369367 0.62391133 -0.06231607
v -0.16746287 0.61806915 -0.06002858
v -0.16355096 0.61816977 -0.06220026
v -0.16759057 0.62390725 -0.05999099
v -0.17192123 0.61820941 -0.05920831
v -0.16757872 0.61815853 -0.06005401
v -0.17201179 0.62391346 -0.05932252
v -0.17192697 0.62406764 -0.05932179
v -0.16755499 0.62400068 -0.06004430
v -0.17201835 0.61811439 -0.05935020
v -0.16747096 0.61820440 -0.06016080
v -0.17703518 0.62390940 -0.05992905
v -0.17192850 0.61802860 -0.05925603
v -0.17200524 0.62406077 -0.05921531
v -0.17708060 0.61801994 -0.05992671
v -0.17705533 0.61806415 -0.05980388
v -0.17693612 0.62398483 -0.05994071
v -0.17206868 0.61810628 -0.05924039
v -0.17200865 0.62398440 -0.05922364
v -0.17986205 0.62407083 -0.06074396
v -0.17700358 0.61805133 -0.05984966
v -0.17697254 0.62393296 -0.05982670
v -0.17990895 0.61809664 -0.06088053
v -0.17988960 0.61803321 -0.06072719
v -0.17989686 0.62389111 -0.06084039
v -0.17710832 0.61820944 -0.05986846
v -0.17696161 0.62407834 -0.05987010
v -0.18286813 0.62393464 -0.06234633
v -0.17990884 0.61809390 -0.06077920
v -0.17985323 0.62393314 -0.06079258
v -0.18281729 0.61803452 -0.06224760
v -0.18299364 0.61802355 -0.06231790
v -0.18283695 0.62389429 -0.06226632
v -0.17989236 0.61814442 -0.06080818
v -0.17989773 0.62388759 -0.06084108
v -0.18994505 0.62405998 -0.06669968
v -0.18295499 0.61815069 -0.06235048
v -0.18282633 0.62392139 -0.06224433
v -0.18990396 0.61802854 -0.06668059
v -0.18997360 0.61810610 -0.06664692
v -0.19001120 0.62395560 -0.06680894
v -0.18296109 0.61816106 -0.06223191
v -0.18285399 0.62390552 -0.06231863
v -0.19468148 0.62394038 -0.07058894
v -0.19462047 0.61821403 -0.07049230
v -0.19469806 0.61807890 -0.07050988
v -0.19480553 0.62397548 -0.07060232
v -0.19847416 0.62399537 -0.07419512
v -0.19477325 0.61818877 -0.07054705
v -0.19480247 0.62406528 -0.07047286
v -0.19846915 0.61815742 -0.07422114
v -0.19856724 0.61806345 -0.07413332
v -0.19853133 0.62398488 -0.07417403
v -0.19468279 0.61815183 -0.07043693
v -0.19466387 0.62390493 -0.07044649
v -0.20111356 0.62404660 -0.07772999
v -0.19843180 0.61802834 -0.07423048
v -0.19839052 0.62400288 -0.07421763
v -0.20124583 0.61813604 -0.07776480
v -0.20115626 0.61812214 -0.07768646
v -0.20128466 0.62404380 -0.07772818
v -0.19839888 0.61810062 -0.07426793
v -0.19854356 0.62404770 -0.07414831
v -0.20287485 0.62391276 -0.08121453
v -0.20130698 0.61812781 -0.07778024
v -0.20127718 0.62395143 -0.07769752
v -0.20298509 0.61808832 -0.08117710
v -0.20294122 0.61816362 -0.08114123
v -0.20298453 0.62389876 -0.08105753
v -0.20123843 0.61813130 -0.07775636
v -0.20118206 0.62388990 -0.07776614
v -0.20382781 0.62403230 -0.08487106
v -0.20284330 0.61818435 -0.08121732
v -0.20295372 0.62399155 -0.08122758
v -0.20373518 0.61817715 -0.08486414
v -0.20383848 0.61808789 -0.08472196
v -0.20376985 0.62401194 -0.08477913
v -0.20283661 0.61804940 -0.08120240
v -0.20284889 0.62403921 -0.08121190
v -0.20383366 0.62401201 -0.08485169
v -0.20375040 0.61803704 -0.08841888
v -0.20373883 0.61809803 -0.08488097
v -0.20363829 0.62396677 -0.08843895
v -0.20374410 0.62394292 -0.08827820
v -0.20375323 0.62395584 -0.08489300
v -0.20357858 0.61808757 -0.08834934
v -0.20377658 0.61806801 -0.08471974
v -0.20362517 0.62404941 -0.08826689
v -0.20260001 0.61817588 -0.09180314
v -0.20376970 0.61807636 -0.08839800
v -0.20265606 0.62399493 -0.09174368
v -0.20278010 0.62401039 -0.09173023
v -0.20371958 0.62397652 -0.08826100
v -0.20271471 0.61806361 -0.09184756
v -0.20359097 0.61815633 -0.08830262
v -0.20278000 0.62392267 -0.09170264
v -0.20069764 0.61820298 -0.09510223
v -0.20267579 0.61820588 -0.09171747
v -0.20084845 0.62403529 -0.09497962
v -0.20088316 0.62401328 -0.09503524
v -0.20273806 0.62407319 -0.09172825
v -0.20081262 0.61816505 -0.09510606
v -0.20275791 0.61816900 -0.09169498
v -0.16762289 0.62398526 -0.06007592
v -0.17790924 0.62395346 -0.06991637
v -0.18441924 0.62403985 -0.07389455
v -0.16353646 0.62393043 -0.06237754
v -0.17538463 0.62404724 -0.06886780
v -0.17303450 0.62407237 -0.06830238
v -0.17113277 0.62403745 -0.06834782
v -0.16016963 0.62391093 -0.06595573
v -0.16954500 0.62399492 -0.06888167
v -0.16825689 0.62397045 -0.06959610
v -0.16695115 0.62406657 -0.07075552
v -0.16635232 0.62404814 -0.07214983
v -0.15776299 0.62406702 -0.07022634
v -0.16586756 0.62391607 -0.07369223
v -0.16607719 0.62399887 -0.07518573
v -0.16655100 0.62407311 -0.07693479
v -0.15715728 0.62399109 -0.07239563
v -0.16795788 0.62394098 -0.07914071
v -0.16978067 0.62389336 -0.08143465
v -0.17598217 0.62403639 -0.08658636
v -0.15706651 0.62390317 -0.07449374
v -0.19349850 0.62407096 -0.10083249
v -0.19123946 0.62396909 -0.10150660
v -0.15722380 0.62392535 -0.07668194
v -0.18881773 0.62395468 -0.10158352
v -0.15763637 0.62389214 -0.07900654
v -0.18371193 0.62396992 -0.10090048
v -0.15989870 0.62404677 -0.08366544
v -0.16177163 0.62393805 -0.08617131
v -0.17763971 0.62400339 -0.09858637
v -0.16421134 0.62395135 -0.08869261
v -0.17071983 0.62398964 -0.09402029
v -0.18294137 0.62405125 -0.06227262
v -0.19471137 0.62403591 -0.07041140
v -0.18997572 0.62391568 -0.06678097
v -0.19847107 0.62394543 -0.07408497
v -0.17982288 0.62393865 -0.06086218
v -0.20117851 0.62406826 -0.07772275
v -0.17707772 0.62400613 -0.05981370
v -0.17193540 0.62390666 -0.05921452
v -0.20281612 0.62403671 -0.08116269
v -0.20368818 0.62391370 -0.08473708
v -0.20363515 0.62388779 -0.08837357
v -0.18919420 0.62402270 -0.07765583
v -0.19249389 0.62402122 -0.08082706
v -0.20263747 0.62393772 -0.09167808
v -0.19411325 0.62396879 -0.08350298
v -0.19492430 0.62399333 -0.08598200
v -0.19471543 0.62392632 -0.08827863
v -0.20088743 0.62388973 -0.09510258
v -0.19379425 0.62405865 -0.09014632
v -0.19737305 0.62389288 -0.09865964
v -0.19254255 0.62397779 -0.09135121
v -0.19110644 0.62392349 -0.09220988
v -0.18954517 0.62405509 -0.09245993
v -0.18768335 0.62389478 -0.09250484
v -0.18531975 0.62405418 -0.09203044
v -0.18268402 0.62396333 -0.09089361
v -0.17590261 0.62390457 -0.08667242
v -0.18257414 0.62396411 -0.09076343
v -0.19344462 0.62389863 -0.10079164
v -0.18531427 0.62406078 -0.09194604
v -0.18770969 0.62405697 -0.09255319
v -0.19738541 0.62406388 -0.09870644
v -0.18950610 0.62407083 -0.09242320
v -0.19120196 0.62391622 -0.09218980
v -0.19259371 0.62394103 -0.09125857
v -0.19371949 0.62406737 -0.09016814
v -0.20086899 0.62394242 -0.09515635
v -0.19475222 0.62403908 -0.08821554
v -0.20272033 0.62398567 -0.09180384
v -0.19488171 0.62394409 -0.08600353
v -0.19428782 0.62393614 -0.08351268
v -0.19238940 0.62408142 -0.08085130
v -0.20361238 0.62393490 -0.08841074
v -0.18929085 0.62402210 -0.07767931
v -0.18454440 0.62404587 -0.07395554
v -0.16746241 0.62399822 -0.06013057
v -0.20365761 0.62407107 -0.08479989
v -0.17189298 0.62406548 -0.05922600
v -0.20290581 0.62392938 -0.08105704
v -0.20125857 0.62399737 -0.07767968
v -0.17698399 0.62395580 -0.05991707
v -0.17982890 0.62405893 -0.06077996
v -0.19843354 0.62405391 -0.07419074
v -0.18284904 0.62404161 -0.06216047
v -0.19472454 0.62393348 -0.07054772
v -0.18992574 0.62404364 -0.06667250
v -0.17060190 0.62397279 -0.09401437
v -0.16417399 0.62401460 -0.08866043
v -0.17766788 0.62398554 -0.09852053
v -0.16173647 0.62396052 -0.08605813
v -0.18361634 0.62397194 -0.10096138
v -0.15997096 0.62393077 -0.08362357
v -0.15776497 0.62401985 -0.07902847
v -0.18891232 0.62397960 -0.10170306
v -0.15706720 0.62401518 -0.07683605
v -0.19116905 0.62395355 -0.10143349
v -0.15688820 0.62398997 -0.07446639
v -0.15726740 0.62400647 -0.07243314
v -0.16978140 0.62399933 -0.08150716
v -0.16793359 0.62405521 -0.07921371
v -0.16666223 0.62402480 -0.07693134
v -0.15792370 0.62403777 -0.07030917
v -0.16601444 0.62404092 -0.07522337
v -0.16606054 0.62389888 -0.07365175
v -0.16623157 0.62406984 -0.07216357
v -0.16013332 0.62396386 -0.06600363
v -0.16701175 0.62400645 -0.07079380
v -0.16816353 0.62400696 -0.06970192
v -0.16955247 0.62391268 -0.06889869
v -0.17121915 0.62399438 -0.06836910
v -0.16355610 0.62407427 -0.06218736
v -0.17302038 0.62405303 -0.06830112
v -0.17538652 0.62407589 -0.06880927
v -0.17798531 0.62388740 -0.06977689
vt -0.001296694 0.1571074
vt -0.002655629 0.08319586
vt 0 0.1258104
vt -0.005186774 0.1837778
vt -0.005975164 0.06602764
vt -0.01167024 0.2058216
vt -0.01062251 0.05161878
vt -0.02327824 0.02887996
vt -0.0207471 0.2232388
vt -0.0334132 0.2377617
vt -0.0400004 0.01278021
vt -0.04834074 0.2481353
vt -0.0464735 0.1248145
vt -0.04767424 0.1560597
vt -0.05127645 0.178757
vt -0.06552971 0.2543594
vt -0.05715599 0.1944625
vt -0.06518868 0.2047324
vt -0.07496089 0.2103963
vt -0.08498011 0.2564341
vt -0.08605896 0.2122843
vt -0.1098559 0.2531561
vt -0.09427303 0.2111432
vt -0.10169 0.2077199
vt -0.1083097 0.2020145
vt -0.1141324 0.1940269
vt -0.1310387 0.243322
vt -0.1188784 0.1830309
vt -0.1222685 0.1683005
vt -0.1249805 0.1276361
vt -0.04922703 0.08566477
vt -0.06095497 0.003195053
vt -0.05266894 0.07145819
vt -0.05748761 0.06083049
vt -0.06340362 0.05309701
vt -0.08630793 0
vt -0.07013751 0.0475731
vt -0.07768929 0.04425875
vt -0.08605896 0.04315396
vt -0.09407091 0.04420169
vt -0.1114949 0.003174306
vt -0.1012134 0.04734488
vt -0.1074865 0.05258352
vt -0.1128901 0.05991762
vt -0.1223145 0.007142188
vt -0.1181797 0.07174346
vt -0.1219579 0.08697183
vt -0.1319515 0.01269722
vt -0.140157 0.2358997
vt -0.1405357 0.01994315
vt -0.1481758 0.226745
vt -0.1481965 0.0289837
vt -0.1609145 0.2032386
vt -0.1607485 0.05244866
vt -0.1654322 0.06732433
vt -0.1688191 0.1709768
vt -0.1687776 0.08489712
vt -0.171454 0.1281341
vt -0.05074939 0.04249006
vt -0.07584021 0
vt -0.05074939 0
vt -0.07584021 0.04249006
vt 0.006958681 0.04249006
vt -0.01639556 0
vt 0.006958681 0
vt -0.01639556 0.04249006
vt 0.05198006 0.04249006
vt 0.04022275 0
vt 0.05198006 0
vt 0.04022275 0.04249006
vt 0.08510261 0
vt 0.07293264 0.04249006
vt 0.07293264 0
vt 0.08510261 0.04249006
vt 0.128754 0
vt 0.1020178 0.04249006
vt 0.1020178 0
vt 0.128754 0.04249006
vt 0.1591057 0
vt 0.1258897 0.04249006
vt 0.1258897 0
vt 0.1591057 0.04249006
vt 0.1602914 0
vt 0.1173677 0.04249006
vt 0.1173677 0
vt 0.1602914 0.04249006
vt 0.1384821 0
vt 0.09516235 0.04249006
vt 0.09516235 0
vt 0.1384821 0.04249006
vt 0.1149638 0
vt 0.09707542 0.04249006
vt 0.09707542 0
vt 0.1149638 0.04249006
vt 0.1138991 0
vt 0.09830348 0.04249006
vt 0.09830348 0
vt 0.1138991 0.04249006
vt 0.1220696 0
vt 0.09545834 0.04249006
vt 0.09545834 0
vt 0.1220696 0.04249006
vt 0.1179201 0
vt 0.1060702 0.04249006
vt 0.1060702 0
vt 0.1179201 0.04249006
vt 0.1202552 0.04249006
vt 0.1090217 0
vt 0.1202552 0
vt 0.1090217 0.04249006
vt 0.1206601 0.04249006
vt 0.1095367 0
vt 0.1206601 0
vt 0.1095367 0.04249006
vt 0.1172949 0.04249006
vt 0.1057707 0
vt 0.1172949 0
vt 0.1057707 0.04249006
vt 0.1110168 0.04249006
vt 0.08563055 0
vt 0.1110168 0
vt 0.08563055 0.04249006
vt 0.08563062 0.04249006
vt 0.06007714 0
vt 0.08563062 0
vt 0.06007714 0.04249006
vt 0.05410201 0.04249006
vt 0.03105924 0
vt 0.05410201 0
vt 0.03105924 0.04249006
vt 0.01995174 0.04249006
vt -0.003261031 0
vt 0.01995174 0
vt -0.003261031 0.04249006
vt -0.03993757 0.04249006
vt -0.01391409 0
vt -0.01391409 0.04249006
vt -0.03993757 0
vt -0.06100577 0.04249006
vt -0.04586599 0
vt -0.04586599 0.04249006
vt -0.06100577 0
vt -0.08117885 0.04249006
vt -0.06369265 0
vt -0.06369265 0.04249006
vt -0.08117885 0
vt -0.1255668 0.04249006
vt -0.08286962 0
vt -0.08286962 0.04249006
vt -0.1255668 0
vt -0.1570264 0.04249006
vt -0.1257026 0
vt -0.1257026 0.04249006
vt -0.1570264 0
vt -0.1826022 0.04249006
vt -0.1556496 0
vt -0.1556496 0.04249006
vt -0.1826022 0
vt -0.2007511 0.04249006
vt -0.1777736 0
vt -0.1777736 0.04249006
vt -0.2007511 0
vt -0.2075567 0.04249006
vt -0.1879163 0
vt -0.1879163 0.04249006
vt -0.2075567 0
vt -0.2011494 0.04249006
vt -0.181879 0
vt -0.181879 0.04249006
vt -0.2011494 0
vt -0.1631203 0.04249006
vt -0.1812983 0
vt -0.1631203 0
vt -0.1812983 0.04249006
vt -0.1299346 0.04249006
vt -0.1482157 0
vt -0.1299346 0
vt -0.1482157 0.04249006
vt -0.0921387 0.04249006
vt -0.1116994 0
vt -0.0921387 0
vt -0.1116994 0.04249006
vt 0.0400004 0.01278021
vt 0.04922703 0.08566477
vt 0.0464735 0.1248145
vt 0.06095497 0.003195053
vt 0.05266894 0.07145819
vt 0.05748761 0.06083049
vt 0.06340362 0.05309701
vt 0.08630793 0
vt 0.07013751 0.0475731
vt 0.07768929 0.04425875
vt 0.08605896 0.04315396
vt 0.09407091 0.04420169
vt 0.1114949 0.003174306
vt 0.1012134 0.04734488
vt 0.1074865 0.05258352
vt 0.1128901 0.05991762
vt 0.1223145 0.007142188
vt 0.1181797 0.07174346
vt 0.1219579 0.08697183
vt 0.1249805 0.1276361
vt 0.1319515 0.01269722
vt 0.1310387 0.243322
vt 0.140157 0.2358997
vt 0.1405357 0.01994315
vt 0.1481758 0.226745
vt 0.1481965 0.0289837
vt 0.1609145 0.2032386
vt 0.1607485 0.05244866
vt 0.1654322 0.06732433
vt 0.1688191 0.1709768
vt 0.1687776 0.08489712
vt 0.171454 0.1281341
vt 0.002655629 0.08319586
vt 0.001296694 0.1571074
vt 0.005186774 0.1837778
vt 0.005975164 0.06602764
vt 0.01167024 0.2058216
vt 0.01062251 0.05161878
vt 0.02327824 0.02887996
vt 0.0207471 0.2232388
vt 0.0334132 0.2377617
vt 0.04834074 0.2481353
vt 0.04767424 0.1560597
vt 0.05127645 0.178757
vt 0.06552971 0.2543594
vt 0.05715599 0.1944625
vt 0.06518868 0.2047324
vt 0.07496089 0.2103963
vt 0.08498011 0.2564341
vt 0.08605896 0.2122843
vt 0.1098559 0.2531561
vt 0.09427303 0.2111432
vt 0.10169 0.2077199
vt 0.1083097 0.2020145
vt 0.1141324 0.1940269
vt 0.1188784 0.1830309
vt 0.1222685 0.1683005
vn 0 -1 3.5974561662932485e-8
vn 0 1 -3.5974561662932485e-8
vn -0.7252121636790273 -2.4769404857730303e-8 -0.6885254662334453
vn 0.7252121636790273 2.4769404857730303e-8 0.6885254662334453
vn -0.48620321717571996 -3.1436221375274915e-8 -0.8738457710648821
vn 0.48620321717571996 3.1436221375274915e-8 0.8738457710648821
vn -0.2563131573894093 -3.47727905274991e-8 -0.966593795422395
vn 0.2563131573894093 3.47727905274991e-8 0.966593795422395
vn -0.09088644010004385 -3.582567450573879e-8 -0.9958612629307054
vn 0.09088644010004385 3.582567450573879e-8 0.9958612629307054
vn 0.13128709163301508 -3.5663181447267107e-8 -0.9913443899929746
vn -0.13128709163301508 3.5663181447267107e-8 0.9913443899929746
vn 0.37829741060961625 -3.330108090095584e-8 -0.9256841087142298
vn 0.4594470150146046 -3.19527925779913e-8 -0.888205179220527
vn -0.37829741060961625 3.330108090095584e-8 0.9256841087142298
vn -0.4594470150146046 3.19527925779913e-8 0.888205179220527
vn 0.5878584302855663 -2.9102119047046923e-8 -0.8089638223939246
vn -0.5878584302855663 2.9102119047046923e-8 0.8089638223939246
vn 0.6365588243939287 -2.774459467419836e-8 -0.771228152420682
vn -0.6365588243939287 2.774459467419836e-8 0.771228152420682
vn 0.728638142535708 -2.463893607123694e-8 -0.6848988664336598
vn -0.728638142535708 2.463893607123694e-8 0.6848988664336598
vn 0.8035510588230371 -2.1413347368623116e-8 -0.5952358321408209
vn -0.8035510588230371 2.1413347368623116e-8 0.5952358321408209
vn 0.8998496409788569 -1.569211006277279e-8 -0.4362002104885119
vn -0.8998496409788569 1.569211006277279e-8 0.4362002104885119
vn 0.9714439873500073 -8.535646501350494e-9 -0.23726900227699085
vn -0.9714439873500073 8.535646501350494e-9 0.23726900227699085
vn 0.9973540178232876 -2.615267534882207e-9 -0.0726977519029663
vn -0.9973540178232876 2.615267534882207e-9 0.0726977519029663
vn 0.9944466807149349 3.786023809361759e-9 0.10524162301602977
vn -0.9944466807149349 -3.786023809361759e-9 -0.10524162301602977
vn 0.9619137138724443 9.833766652678816e-9 0.2733532642280337
vn -0.9619137138724443 -9.833766652678816e-9 -0.2733532642280337
vn 0.8761181141131363 1.734321380315272e-8 0.4820965153606085
vn -0.8761181141131363 -1.734321380315272e-8 -0.4820965153606085
vn 0.7290973277346218 2.462135377957989e-8 0.6844100281923352
vn -0.7290973277346218 -2.462135377957989e-8 -0.6844100281923352
vn 0.4911141968860975 3.133727075520626e-8 0.8710951989403468
vn -0.4911141968860975 -3.133727075520626e-8 -0.8710951989403468
vn 0.17509415857885846 3.541881785268751e-8 0.9845516927168224
vn -0.17509415857885846 -3.541881785268751e-8 -0.9845516927168224
vn -0.12012774572060878 3.571405138736282e-8 0.992758442274899
vn 0.12012774572060878 -3.571405138736282e-8 -0.992758442274899
vn -0.3110058815509145 3.4190511788716474e-8 0.9504079869407336
vn 0.3110058815509145 -3.4190511788716474e-8 -0.9504079869407336
vn -0.4234358867976185 3.259029408328386e-8 0.9059260730169506
vn 0.4234358867976185 -3.259029408328386e-8 -0.9059260730169506
vn -0.5792404967493507 2.9324905166691543e-8 0.815156700840743
vn -0.5362420093226593 3.03648427835922e-8 0.8440642792095849
vn 0.5792404967493507 -2.9324905166691543e-8 -0.815156700840743
vn 0.5362420093226593 -3.03648427835922e-8 -0.8440642792095849
vn -0.6206848975345131 2.8206218828301606e-8 0.7840601111984785
vn 0.6206848975345131 -2.8206218828301606e-8 -0.7840601111984785
vn -0.6983151721506942 2.5750246173817412e-8 0.7157904164936449
vn 0.6983151721506942 -2.5750246173817412e-8 -0.7157904164936449
vn -0.7921110471200653 2.1958044504456564e-8 0.610377005653353
vn 0.7921110471200653 -2.1958044504456564e-8 -0.610377005653353
vn -0.8950960917254158 1.604009471991643e-8 0.4458732853377582
vn 0.8950960917254158 -1.604009471991643e-8 -0.4458732853377582
vn -0.9747231456567426 8.037297244967862e-9 0.22341617963125354
vn 0.9747231456567426 -8.037297244967862e-9 -0.22341617963125354
vn -0.9997792930718039 0 -0.021008692125973928
vn 0.9997792930718039 0 0.021008692125973928
vn -0.9607881075142374 -9.975159907684524e-9 -0.27728363179100574
vn 0.9607881075142374 9.975159907684524e-9 0.27728363179100574
vn -0.8667478181511836 -1.7942195065984325e-8 -0.4987466488410351
vn 0.8667478181511836 1.7942195065984325e-8 0.4987466488410351
usemtl material_0_0
f 1/1/1 2/2/1 3/3/1
f 2/2/1 1/1/1 4/4/1
f 2/2/1 4/4/1 5/5/1
f 5/5/1 4/4/1 6/6/1
f 5/5/1 6/6/1 7/7/1
f 7/7/1 6/6/1 8/8/1
f 8/8/1 6/6/1 9/9/1
f 8/8/1 9/9/1 10/10/1
f 8/8/1 10/10/1 11/11/1
f 11/11/1 10/10/1 12/12/1
f 11/11/1 12/12/1 13/13/1
f 13/13/1 12/12/1 14/14/1
f 14/14/1 12/12/1 15/15/1
f 15/15/1 12/12/1 16/16/1
f 15/15/1 16/16/1 17/17/1
f 17/17/1 16/16/1 18/18/1
f 18/18/1 16/16/1 19/19/1
f 19/19/1 16/16/1 20/20/1
f 19/19/1 20/20/1 21/21/1
f 21/21/1 20/20/1 22/22/1
f 21/21/1 22/22/1 23/23/1
f 23/23/1 22/22/1 24/24/1
f 24/24/1 22/22/1 25/25/1
f 25/25/1 22/22/1 26/26/1
f 26/26/1 22/22/1 27/27/1
f 26/26/1 27/27/1 28/28/1
f 28/28/1 27/27/1 29/29/1
f 29/29/1 27/27/1 30/30/1
f 11/11/1 31/31/1 32/32/1
f 31/31/1 11/11/1 13/13/1
f 32/32/1 31/31/1 33/33/1
f 32/32/1 33/33/1 34/34/1
f 32/32/1 34/34/1 35/35/1
f 32/32/1 35/35/1 36/36/1
f 36/36/1 35/35/1 37/37/1
f 36/36/1 37/37/1 38/38/1
f 36/36/1 38/38/1 39/39/1
f 36/36/1 39/39/1 40/40/1
f 36/36/1 40/40/1 41/41/1
f 41/41/1 40/40/1 42/42/1
f 41/41/1 42/42/1 43/43/1
f 41/41/1 43/43/1 44/44/1
f 41/41/1 44/44/1 45/45/1
f 45/45/1 44/44/1 46/46/1
f 45/45/1 46/46/1 47/47/1
f 45/45/1 47/47/1 30/30/1
f 45/45/1 30/30/1 48/48/1
f 48/48/1 30/30/1 27/27/1
f 48/48/1 27/27/1 49/49/1
f 48/48/1 49/49/1 50/50/1
f 50/50/1 49/49/1 51/51/1
f 50/50/1 51/51/1 52/52/1
f 52/52/1 51/51/1 53/53/1
f 52/52/1 53/53/1 54/54/1
f 54/54/1 53/53/1 55/55/1
f 55/55/1 53/53/1 56/56/1
f 55/55/1 56/56/1 57/57/1
f 57/57/1 56/56/1 58/58/1
f 59/58/2 60/56/2 61/57/2
f 61/57/2 60/56/2 62/55/2
f 60/56/2 63/53/2 62/55/2
f 62/55/2 63/53/2 64/54/2
f 64/54/2 63/53/2 65/52/2
f 63/53/2 66/51/2 65/52/2
f 65/52/2 66/51/2 67/50/2
f 66/51/2 68/49/2 67/50/2
f 67/50/2 68/49/2 69/48/2
f 68/49/2 70/27/2 69/48/2
f 70/27/2 71/30/2 69/48/2
f 69/48/2 71/30/2 72/45/2
f 71/30/2 73/47/2 72/45/2
f 73/47/2 74/46/2 72/45/2
f 74/46/2 75/44/2 72/45/2
f 72/45/2 75/44/2 76/41/2
f 75/44/2 77/43/2 76/41/2
f 77/43/2 78/42/2 76/41/2
f 78/42/2 79/40/2 76/41/2
f 76/41/2 79/40/2 80/36/2
f 79/40/2 81/39/2 80/36/2
f 81/39/2 82/38/2 80/36/2
f 82/38/2 83/37/2 80/36/2
f 83/37/2 84/35/2 80/36/2
f 80/36/2 84/35/2 85/32/2
f 84/35/2 86/34/2 85/32/2
f 86/34/2 87/33/2 85/32/2
f 87/33/2 88/31/2 85/32/2
f 89/13/2 90/11/2 88/31/2
f 85/32/2 88/31/2 90/11/2
f 71/30/2 70/27/2 91/29/2
f 91/29/2 70/27/2 92/28/2
f 92/28/2 70/27/2 93/26/2
f 70/27/2 94/22/2 93/26/2
f 93/26/2 94/22/2 95/25/2
f 95/25/2 94/22/2 96/24/2
f 96/24/2 94/22/2 97/23/2
f 97/23/2 94/22/2 98/21/2
f 94/22/2 99/20/2 98/21/2
f 98/21/2 99/20/2 100/19/2
f 99/20/2 101/16/2 100/19/2
f 100/19/2 101/16/2 102/18/2
f 102/18/2 101/16/2 103/17/2
f 103/17/2 101/16/2 104/15/2
f 101/16/2 105/12/2 104/15/2
f 104/15/2 105/12/2 106/14/2
f 106/14/2 105/12/2 89/13/2
f 89/13/2 105/12/2 90/11/2
f 105/12/2 107/10/2 90/11/2
f 90/11/2 107/10/2 108/8/2
f 107/10/2 109/9/2 108/8/2
f 109/9/2 110/6/2 108/8/2
f 108/8/2 110/6/2 111/7/2
f 111/7/2 110/6/2 112/5/2
f 110/6/2 113/4/2 112/5/2
f 112/5/2 113/4/2 114/2/2
f 113/4/2 115/1/2 114/2/2
f 116/3/2 114/2/2 115/1/2
f 117/59/3 118/60/3 119/61/3
f 118/60/3 117/59/3 120/62/3
f 121/62/4 122/59/4 123/60/4
f 124/61/4 123/60/4 122/59/4
f 125/63/5 126/64/5 127/65/5
f 126/64/5 125/63/5 128/66/5
f 129/66/6 130/63/6 131/64/6
f 132/65/6 131/64/6 130/63/6
f 133/67/7 134/68/7 135/69/7
f 134/68/7 133/67/7 136/70/7
f 137/70/8 138/67/8 139/68/8
f 140/69/8 139/68/8 138/67/8
f 141/71/9 142/72/9 143/73/9
f 142/72/9 141/71/9 144/74/9
f 145/74/10 146/71/10 147/72/10
f 148/73/10 147/72/10 146/71/10
f 149/75/11 150/76/11 151/77/11
f 150/76/11 149/75/11 152/78/11
f 153/78/12 154/75/12 155/76/12
f 156/77/12 155/76/12 154/75/12
f 157/79/13 158/80/14 159/81/14
f 158/80/14 157/79/13 160/82/13
f 161/82/15 162/79/15 163/80/16
f 164/81/16 163/80/16 162/79/15
f 159/83/14 165/84/17 166/85/17
f 165/84/17 159/83/14 158/86/14
f 163/86/16 164/83/16 167/84/18
f 168/85/18 167/84/18 164/83/16
f 166/87/17 169/88/19 170/89/19
f 169/88/19 166/87/17 165/90/17
f 167/90/18 168/87/18 171/88/20
f 172/89/20 171/88/20 168/87/18
f 173/91/21 174/92/21 175/93/21
f 174/92/21 173/91/21 176/94/21
f 177/94/22 178/91/22 179/92/22
f 180/93/22 179/92/22 178/91/22
f 181/95/23 182/96/23 183/97/23
f 182/96/23 181/95/23 184/98/23
f 185/98/24 186/95/24 187/96/24
f 188/97/24 187/96/24 186/95/24
f 189/99/25 190/100/25 191/101/25
f 190/100/25 189/99/25 192/102/25
f 193/102/26 194/99/26 195/100/26
f 196/101/26 195/100/26 194/99/26
f 197/103/27 198/104/27 199/105/27
f 198/104/27 197/103/27 200/106/27
f 201/106/28 202/103/28 203/104/28
f 204/105/28 203/104/28 202/103/28
f 205/107/29 206/108/29 207/109/29
f 206/108/29 205/107/29 208/110/29
f 209/110/30 210/107/30 211/108/30
f 212/109/30 211/108/30 210/107/30
f 213/111/31 214/112/31 215/113/31
f 214/112/31 213/111/31 216/114/31
f 217/114/32 218/111/32 219/112/32
f 220/113/32 219/112/32 218/111/32
f 221/115/33 222/116/33 223/117/33
f 222/116/33 221/115/33 224/118/33
f 225/118/34 226/115/34 227/116/34
f 228/117/34 227/116/34 226/115/34
f 229/119/35 230/120/35 231/121/35
f 230/120/35 229/119/35 232/122/35
f 233/122/36 234/119/36 235/120/36
f 236/121/36 235/120/36 234/119/36
f 237/123/37 238/124/37 239/125/37
f 238/124/37 237/123/37 240/126/37
f 241/126/38 242/123/38 243/124/38
f 244/125/38 243/124/38 242/123/38
f 245/127/39 246/128/39 247/129/39
f 246/128/39 245/127/39 248/130/39
f 249/130/40 250/127/40 251/128/40
f 252/129/40 251/128/40 250/127/40
f 253/131/41 254/132/41 255/133/41
f 254/132/41 253/131/41 256/134/41
f 257/134/42 258/131/42 259/132/42
f 260/133/42 259/132/42 258/131/42
f 261/135/43 262/136/43 263/137/43
f 262/136/43 261/135/43 264/138/43
f 265/138/44 266/135/44 267/136/44
f 268/137/44 267/136/44 266/135/44
f 269/139/45 270/140/45 271/141/45
f 270/140/45 269/139/45 272/142/45
f 273/142/46 274/139/46 275/140/46
f 276/141/46 275/140/46 274/139/46
f 277/143/47 278/144/47 279/145/47
f 278/144/47 277/143/47 280/146/47
f 281/146/48 282/143/48 283/144/48
f 284/145/48 283/144/48 282/143/48
f 285/147/49 286/148/50 287/149/50
f 286/148/50 285/147/49 288/150/49
f 289/150/51 290/147/51 291/148/52
f 292/149/52 291/148/52 290/147/51
f 293/151/53 288/152/49 285/153/49
f 288/152/49 293/151/53 294/154/53
f 295/154/54 296/151/54 289/152/51
f 290/153/51 289/152/51 296/151/54
f 297/155/55 298/156/55 299/157/55
f 298/156/55 297/155/55 300/158/55
f 301/158/56 302/155/56 303/156/56
f 304/157/56 303/156/56 302/155/56
f 305/159/57 306/160/57 307/161/57
f 306/160/57 305/159/57 308/162/57
f 309/162/58 310/159/58 311/160/58
f 312/161/58 311/160/58 310/159/58
f 313/163/59 314/164/59 315/165/59
f 314/164/59 313/163/59 316/166/59
f 317/166/60 318/163/60 319/164/60
f 320/165/60 319/164/60 318/163/60
f 321/167/61 322/168/61 323/169/61
f 322/168/61 321/167/61 324/170/61
f 325/170/62 326/167/62 327/168/62
f 328/169/62 327/168/62 326/167/62
f 329/171/63 330/172/63 331/173/63
f 330/172/63 329/171/63 332/174/63
f 333/174/64 334/171/64 335/172/64
f 336/173/64 335/172/64 334/171/64
f 337/175/65 338/176/65 339/177/65
f 338/176/65 337/175/65 340/178/65
f 341/178/66 342/175/66 343/176/66
f 344/177/66 343/176/66 342/175/66
f 345/179/67 346/180/67 347/181/67
f 346/180/67 345/179/67 348/182/67
f 349/182/68 350/179/68 351/180/68
f 352/181/68 351/180/68 350/179/68
f 353/183/2 354/184/2 355/185/2
f 354/184/2 353/183/2 356/186/2
f 354/184/2 356/186/2 357/187/2
f 357/187/2 356/186/2 358/188/2
f 358/188/2 356/186/2 359/189/2
f 359/189/2 356/186/2 360/190/2
f 359/189/2 360/190/2 361/191/2
f 361/191/2 360/190/2 362/192/2
f 362/192/2 360/190/2 363/193/2
f 363/193/2 360/190/2 364/194/2
f 364/194/2 360/190/2 365/195/2
f 364/194/2 365/195/2 366/196/2
f 366/196/2 365/195/2 367/197/2
f 367/197/2 365/195/2 368/198/2
f 368/198/2 365/195/2 369/199/2
f 368/198/2 369/199/2 370/200/2
f 370/200/2 369/199/2 371/201/2
f 371/201/2 369/199/2 372/202/2
f 372/202/2 369/199/2 373/203/2
f 372/202/2 373/203/2 374/204/2
f 374/204/2 373/203/2 375/205/2
f 375/205/2 373/203/2 376/206/2
f 375/205/2 376/206/2 377/207/2
f 377/207/2 376/206/2 378/208/2
f 377/207/2 378/208/2 379/209/2
f 379/209/2 378/208/2 380/210/2
f 379/209/2 380/210/2 381/211/2
f 379/209/2 381/211/2 382/212/2
f 382/212/2 381/211/2 383/213/2
f 382/212/2 383/213/2 384/214/2
f 385/215/2 386/216/2 387/3/2
f 386/216/2 385/215/2 388/217/2
f 388/217/2 385/215/2 389/218/2
f 388/217/2 389/218/2 390/219/2
f 390/219/2 389/218/2 391/220/2
f 390/219/2 391/220/2 392/221/2
f 390/219/2 392/221/2 393/222/2
f 393/222/2 392/221/2 394/223/2
f 394/223/2 392/221/2 353/183/2
f 394/223/2 353/183/2 395/224/2
f 395/224/2 353/183/2 355/185/2
f 395/224/2 355/185/2 396/225/2
f 395/224/2 396/225/2 397/226/2
f 395/224/2 397/226/2 398/227/2
f 398/227/2 397/226/2 399/228/2
f 398/227/2 399/228/2 400/229/2
f 398/227/2 400/229/2 401/230/2
f 398/227/2 401/230/2 402/231/2
f 402/231/2 401/230/2 403/232/2
f 402/231/2 403/232/2 404/233/2
f 404/233/2 403/232/2 405/234/2
f 404/233/2 405/234/2 406/235/2
f 404/233/2 406/235/2 407/236/2
f 404/233/2 407/236/2 408/237/2
f 404/233/2 408/237/2 374/204/2
f 374/204/2 408/237/2 409/238/2
f 374/204/2 409/238/2 410/239/2
f 374/204/2 410/239/2 372/202/2
f 411/202/1 412/239/1 413/204/1
f 412/239/1 414/238/1 413/204/1
f 414/238/1 415/237/1 413/204/1
f 413/204/1 415/237/1 416/233/1
f 415/237/1 417/236/1 416/233/1
f 417/236/1 418/235/1 416/233/1
f 418/235/1 419/234/1 416/233/1
f 419/234/1 420/232/1 416/233/1
f 416/233/1 420/232/1 421/231/1
f 420/232/1 422/230/1 421/231/1
f 421/231/1 422/230/1 423/227/1
f 422/230/1 424/229/1 423/227/1
f 424/229/1 425/228/1 423/227/1
f 425/228/1 426/226/1 423/227/1
f 423/227/1 426/226/1 427/224/1
f 426/226/1 428/225/1 427/224/1
f 428/225/1 429/185/1 427/224/1
f 429/185/1 430/183/1 427/224/1
f 427/224/1 430/183/1 431/223/1
f 430/183/1 432/221/1 431/223/1
f 431/223/1 432/221/1 433/222/1
f 433/222/1 432/221/1 434/219/1
f 432/221/1 435/220/1 434/219/1
f 435/220/1 436/218/1 434/219/1
f 434/219/1 436/218/1 437/217/1
f 436/218/1 438/215/1 437/217/1
f 437/217/1 438/215/1 439/216/1
f 440/3/1 439/216/1 438/215/1
f 441/214/1 442/213/1 443/212/1
f 442/213/1 444/211/1 443/212/1
f 443/212/1 444/211/1 445/209/1
f 444/211/1 446/210/1 445/209/1
f 446/210/1 447/208/1 445/209/1
f 445/209/1 447/208/1 448/207/1
f 447/208/1 449/206/1 448/207/1
f 448/207/1 449/206/1 450/205/1
f 449/206/1 451/203/1 450/205/1
f 450/205/1 451/203/1 413/204/1
f 413/204/1 451/203/1 411/202/1
f 451/203/1 452/199/1 411/202/1
f 411/202/1 452/199/1 453/201/1
f 453/201/1 452/199/1 454/200/1
f 454/200/1 452/199/1 455/198/1
f 452/199/1 456/195/1 455/198/1
f 455/198/1 456/195/1 457/197/1
f 457/197/1 456/195/1 458/196/1
f 458/196/1 456/195/1 459/194/1
f 456/195/1 460/190/1 459/194/1
f 459/194/1 460/190/1 461/193/1
f 461/193/1 460/190/1 462/192/1
f 462/192/1 460/190/1 463/191/1
f 463/191/1 460/190/1 464/189/1
f 460/190/1 465/186/1 464/189/1
f 464/189/1 465/186/1 466/188/1
f 466/188/1 465/186/1 467/187/1
f 467/187/1 465/186/1 468/184/1
f 465/186/1 430/183/1 468/184/1
f 429/185/1 468/184/1 430/183/1
