# SSTK version 0.8.0
# 95
mtllib original-95.mtl
o #ID396
v -0.00905082 0.82977203 0.55993081
v -0.00897786 0.83748167 0.56760540
v -0.00981002 0.83352655 0.56369116
v -0.00686182 0.82614332 0.55630283
v -0.00699557 0.84113884 0.57122229
v -0.00363504 0.82297463 0.55315049
v -0.00349482 0.84423806 0.57438032
v 0.00097129 0.82057674 0.55062802
v 0.00086665 0.84660985 0.57670649
v 0.00599279 0.81912682 0.54914361
v 0.00601898 0.84818317 0.57837874
v 0.01144823 0.81861499 0.54869345
v 0.01158599 0.84861495 0.57889703
v 0.01705718 0.81893940 0.54920500
v 0.01710133 0.84819480 0.57833112
v 0.02209451 0.82054069 0.55067341
v 0.02226671 0.84656943 0.57682493
v 0.02664135 0.82296108 0.55314884
v 0.02664602 0.84427487 0.57445083
v 0.02998920 0.82602251 0.55614642
v 0.03004800 0.84109280 0.57122267
v 0.03208199 0.82960704 0.55979921
v 0.03205837 0.83754515 0.56764345
v 0.03279146 0.83360944 0.56367373
v 0.03288778 0.83362795 0.56370743
v 0.03213469 0.82965751 0.55988373
v 0.03220581 0.83740789 0.56763916
v 0.03010718 0.84104276 0.57124314
v 0.02997836 0.82611633 0.55620885
v 0.02661277 0.84417392 0.57447983
v 0.02665706 0.82287067 0.55312969
v 0.02232243 0.84668505 0.57677303
v 0.02221902 0.82062750 0.55066518
v 0.01711508 0.84811143 0.57824518
v 0.01701506 0.81892823 0.54911294
v 0.01158800 0.84859961 0.57882789
v 0.01159961 0.81846709 0.54861905
v 0.00601452 0.84823148 0.57829888
v 0.00594864 0.81894827 0.54919854
v 0.00089663 0.84671074 0.57671844
v 0.00087264 0.82061201 0.55064257
v -0.00358516 0.84417500 0.57447791
v -0.00360708 0.82287824 0.55303688
v -0.00699248 0.84113977 0.57124130
v -0.00698967 0.82605572 0.55616138
v -0.00902142 0.83749026 0.56756053
v -0.00909423 0.82961499 0.55994043
v -0.00973944 0.83355682 0.56379696
v 0.02662568 0.84426298 0.57441086
v 0.02996716 0.73053944 0.68196194
v 0.02655899 0.73354115 0.68498300
v 0.03005039 0.84107165 0.57117792
v 0.03005351 0.84109096 0.57128618
v 0.02660982 0.84424358 0.57435019
v 0.02998244 0.73045669 0.68197002
v 0.02660026 0.73355153 0.68495210
v 0.02219440 0.84666806 0.57686380
v 0.02214399 0.73593046 0.68733601
v 0.02217567 0.84670819 0.57682968
v 0.02224473 0.73597609 0.68747582
v 0.01700751 0.73752595 0.68894137
v 0.01714011 0.84824115 0.57824417
v 0.01713240 0.84807213 0.57828541
v 0.01709054 0.73748859 0.68893469
v 0.01150674 0.73803665 0.68950003
v 0.01153537 0.84861335 0.57880323
v 0.01151801 0.84862579 0.57884091
v 0.01151831 0.73809444 0.68933810
v 0.00597679 0.84808379 0.57830016
v 0.00614772 0.73745317 0.68885440
v 0.00609970 0.84819350 0.57823203
v 0.00600894 0.73754366 0.68890082
v 0.00100407 0.84671075 0.57682988
v 0.00086988 0.73595335 0.68732410
v 0.00083498 0.84656791 0.57686035
v 0.00085601 0.73595190 0.68732250
v -0.00342178 0.73361695 0.68497090
v -0.00360499 0.84419557 0.57434598
v -0.00360097 0.84418761 0.57432214
v -0.00341690 0.73361245 0.68504195
v -0.00691571 0.73051901 0.68193632
v -0.00697340 0.84105964 0.57121697
v -0.00697683 0.84119802 0.57127654
v -0.00694161 0.73059709 0.68195998
v -0.00902988 0.72693491 0.67823369
v -0.00906913 0.83742524 0.56759297
v -0.00911761 0.83748995 0.56773448
v -0.00896188 0.72692949 0.67836542
v -0.00967274 0.72298397 0.67445625
v -0.00971116 0.83369136 0.56367667
v -0.00972247 0.83352817 0.56378665
v -0.00974442 0.72293038 0.67444176
v -0.00903895 0.71910115 0.67053763
v -0.00914006 0.82966372 0.55974894
v -0.00899152 0.82961858 0.55978069
v -0.00908033 0.71904245 0.67046917
v -0.00689720 0.71551052 0.66683369
v -0.00700030 0.82602534 0.55623822
v -0.00684669 0.82598823 0.55621486
v -0.00699842 0.71535753 0.66685066
v -0.00353397 0.71232174 0.66379016
v -0.00351572 0.82287454 0.55310366
v -0.00347367 0.82284928 0.55310277
v -0.00347195 0.71231170 0.66376010
v 0.00084117 0.70983380 0.66126886
v 0.00084551 0.82057549 0.55060094
v 0.00087287 0.82053227 0.55063321
v 0.00089751 0.70988997 0.66139885
v 0.00599013 0.81908436 0.54925170
v 0.00595032 0.70837914 0.65974365
v 0.00598010 0.81903688 0.54919201
v 0.00603008 0.70837651 0.65974832
v 0.01143428 0.81846096 0.54863740
v 0.01159110 0.70783704 0.65930290
v 0.01150453 0.81855886 0.54866719
v 0.01152984 0.70780466 0.65934334
v 0.01697755 0.70841623 0.65969914
v 0.01695921 0.81908313 0.54925538
v 0.01707046 0.81904149 0.54923067
v 0.01714784 0.70847755 0.65974494
v 0.02214251 0.70982979 0.66127761
v 0.02209846 0.82062198 0.55064634
v 0.02209631 0.82055802 0.55072689
v 0.02217484 0.70984090 0.66123987
v 0.02657205 0.82292773 0.55314533
v 0.02662711 0.71221277 0.66359450
v 0.02668007 0.82290038 0.55314742
v 0.02664333 0.71237958 0.66370650
v 0.02992362 0.82601187 0.55612103
v 0.03001851 0.71538775 0.66677658
v 0.03002065 0.82597310 0.55616671
v 0.03003669 0.71549973 0.66677959
v 0.03220525 0.82975694 0.55983594
v 0.03217201 0.71911293 0.67049259
v 0.03210874 0.82973774 0.55979341
v 0.03214550 0.71905113 0.67041302
v 0.03278733 0.83353757 0.56373237
v 0.03284316 0.72290762 0.67429990
v 0.03281328 0.83357549 0.56378194
v 0.03291446 0.72291805 0.67435874
v 0.03218903 0.83754403 0.56770396
v 0.03222349 0.72683800 0.67823709
v 0.03220712 0.83754899 0.56757627
v 0.03204851 0.72696043 0.67818148
vt 0.1333208 -0.08961675
vt 0.1334788 0.09020644
vt 0.1215627 0.0003052441
vt 0.1679517 -0.1734315
vt 0.168257 0.1739602
vt 0.2230955 -0.2454272
vt 0.2235272 0.2458589
vt 0.2949942 -0.3006974
vt 0.2955229 0.3010027
vt 0.378748 -0.3354756
vt 0.3793377 0.3356336
vt 0.4686492 -0.3473917
vt 0.4692596 0.3473917
vt 0.5585712 -0.3356336
vt 0.5591608 0.3354756
vt 0.6423859 -0.3010027
vt 0.6429146 0.3006974
vt 0.7143816 -0.2458589
vt 0.7148133 0.2454272
vt 0.7696518 -0.1739602
vt 0.7699571 0.1734315
vt 0.80443 -0.09020644
vt 0.804588 0.08961675
vt 0.8163461 -0.0003052441
vt -2.063577 2.213641
vt -0.5494558 0.1605651
vt -0.4784295 0.216952
vt -2.134603 2.157254
vt -1.848766 2.406175
vt -0.5994394 0.1820205
vt -0.5220005 0.2292163
vt -1.926205 2.358979
vt -0.5294033 0.2975576
vt -1.526937 2.645452
vt -0.6140778 0.2650853
vt -1.442262 2.677924
vt -0.4768596 0.4087499
vt -0.8989041 2.924612
vt -0.5667742 0.3969354
vt -0.8089895 2.936426
vt -0.02827329 3.045711
vt -0.4460071 0.5291296
vt -0.3560724 0.5174691
vt -0.118208 3.057371
vt 0.7136894 2.956737
vt -0.280518 0.6074317
vt -0.1957976 0.5750794
vt 0.628969 2.989089
vt -0.03652737 0.5692259
vt 1.210536 2.79465
vt -0.1140142 0.6163429
vt 1.288023 2.747533
vt 0.1019403 0.5156405
vt 1.614713 2.56971
vt 0.03087702 0.5719808
vt 1.685776 2.51337
vt 0.2183014 0.4346125
vt 1.88136 2.369016
vt 0.1516794 0.4961408
vt 1.947982 2.307488
vt 0.3174943 0.3433891
vt 2.047924 2.217767
vt 0.25309 0.4072351
vt 2.112329 2.153921
vt 0.4044653 0.2571549
vt 2.135112 2.131333
vt 0.3400683 0.3210083
vt 2.199509 2.067479
vt 0.4820466 0.1909216
vt 2.145807 2.124722
vt 0.4154469 0.2524741
vt 2.212407 2.063169
vt 0.5494558 0.1605651
vt 2.063577 2.213641
vt 0.4784295 0.216952
vt 2.134603 2.157254
vt 0.5994394 0.1820205
vt 1.848766 2.406175
vt 0.5220005 0.2292163
vt 1.926205 2.358979
vt 1.526937 2.645452
vt 0.5294033 0.2975576
vt 0.6140778 0.2650853
vt 1.442262 2.677924
vt 0.8989041 2.924612
vt 0.4768596 0.4087499
vt 0.5667742 0.3969354
vt 0.8089895 2.936426
vt 0.4460071 0.5291296
vt 0.02827329 3.045711
vt 0.3560724 0.5174691
vt 0.118208 3.057371
vt 0.280518 0.6074317
vt -0.7136894 2.956737
vt 0.1957976 0.5750794
vt -0.628969 2.989089
vt -1.210536 2.79465
vt 0.03652737 0.5692259
vt 0.1140142 0.6163429
vt -1.288023 2.747533
vt -1.614713 2.56971
vt -0.1019403 0.5156405
vt -0.03087702 0.5719808
vt -1.685776 2.51337
vt -1.88136 2.369016
vt -0.2183014 0.4346125
vt -0.1516794 0.4961408
vt -1.947982 2.307488
vt -2.047924 2.217767
vt -0.3174943 0.3433891
vt -0.25309 0.4072351
vt -2.112329 2.153921
vt -2.135112 2.131333
vt -0.4044653 0.2571549
vt -0.3400683 0.3210083
vt -2.199509 2.067479
vt -2.145807 2.124722
vt -0.4820466 0.1909216
vt -0.4154469 0.2524741
vt -2.212407 2.063169
vn 0 -0.7071067811865477 0.7071067811865475
vn 0 0.7071067811865477 -0.7071067811865475
vn -0.7077277910779093 -0.4995604937022056 -0.49956049370220584
vn -0.8664643916258644 -0.3530151965882069 -0.353015196588207
vn 0.8664643916258644 0.3530151965882069 0.353015196588207
vn 0.7077277910779093 0.4995604937022056 0.49956049370220584
vn -0.5007608154281555 -0.6120615188572668 -0.612061518857267
vn 0.5007608154281555 0.6120615188572668 0.612061518857267
vn -0.2596677091314216 -0.6828516240130206 -0.6828516240130208
vn 0.2596677091314216 0.6828516240130206 0.6828516240130208
vn -0.0008786738102136401 -0.7071065082193542 -0.7071065082193544
vn 0.0008786738102136401 0.7071065082193542 0.7071065082193544
vn 0.25797021722150926 -0.6831732456071034 -0.6831732456071036
vn -0.25797021722150926 0.6831732456071034 0.6831732456071036
vn 0.49923886226302755 -0.6126828536879082 -0.6126828536879084
vn -0.49923886226302755 0.6126828536879082 0.6126828536879084
vn 0.7064852270454349 -0.5004391191576455 -0.5004391191576457
vn -0.7064852270454349 0.5004391191576455 0.5004391191576457
vn 0.8655857426232305 -0.35409131743618805 -0.35409131743618816
vn -0.8655857426232305 0.35409131743618805 0.35409131743618816
vn 0.9656980251797651 -0.18361280478754968 -0.18361280478754974
vn -0.9656980251797651 0.18361280478754968 0.18361280478754974
vn 0.9999996139660943 -0.0006213162086773639 -0.0006213162086773641
vn -0.9999996139660943 0.0006213162086773639 0.0006213162086773641
vn 0.9661528678798089 0.18241249393561373 0.1824124939356138
vn -0.9661528678798089 -0.18241249393561373 -0.1824124939356138
usemtl material_0_0
f 1/1/1 2/2/1 3/3/1
f 2/2/1 1/1/1 4/4/1
f 2/2/1 4/4/1 5/5/1
f 5/5/1 4/4/1 6/6/1
f 5/5/1 6/6/1 7/7/1
f 7/7/1 6/6/1 8/8/1
f 7/7/1 8/8/1 9/9/1
f 9/9/1 8/8/1 10/10/1
f 9/9/1 10/10/1 11/11/1
f 11/11/1 10/10/1 12/12/1
f 11/11/1 12/12/1 13/13/1
f 13/13/1 12/12/1 14/14/1
f 13/13/1 14/14/1 15/15/1
f 15/15/1 14/14/1 16/16/1
f 15/15/1 16/16/1 17/17/1
f 17/17/1 16/16/1 18/18/1
f 17/17/1 18/18/1 19/19/1
f 19/19/1 18/18/1 20/20/1
f 19/19/1 20/20/1 21/21/1
f 21/21/1 20/20/1 22/22/1
f 21/21/1 22/22/1 23/23/1
f 23/23/1 22/22/1 24/24/1
f 25/24/2 26/22/2 27/23/2
f 27/23/2 26/22/2 28/21/2
f 26/22/2 29/20/2 28/21/2
f 28/21/2 29/20/2 30/19/2
f 29/20/2 31/18/2 30/19/2
f 30/19/2 31/18/2 32/17/2
f 31/18/2 33/16/2 32/17/2
f 32/17/2 33/16/2 34/15/2
f 33/16/2 35/14/2 34/15/2
f 34/15/2 35/14/2 36/13/2
f 35/14/2 37/12/2 36/13/2
f 36/13/2 37/12/2 38/11/2
f 37/12/2 39/10/2 38/11/2
f 38/11/2 39/10/2 40/9/2
f 39/10/2 41/8/2 40/9/2
f 40/9/2 41/8/2 42/7/2
f 41/8/2 43/6/2 42/7/2
f 42/7/2 43/6/2 44/5/2
f 43/6/2 45/4/2 44/5/2
f 44/5/2 45/4/2 46/2/2
f 45/4/2 47/1/2 46/2/2
f 48/3/2 46/2/2 47/1/2
f 49/25/3 50/26/4 51/27/3
f 50/26/4 49/25/3 52/28/4
f 53/28/5 54/25/6 55/26/5
f 56/27/6 55/26/5 54/25/6
f 57/29/7 51/30/3 58/31/7
f 51/30/3 57/29/7 49/32/3
f 54/32/6 59/29/8 56/30/6
f 60/31/8 56/30/6 59/29/8
f 61/33/9 57/34/7 58/35/7
f 57/34/7 61/33/9 62/36/9
f 63/36/10 64/33/10 59/34/8
f 60/35/8 59/34/8 64/33/10
f 65/37/11 62/38/9 61/39/9
f 62/38/9 65/37/11 66/40/11
f 67/40/12 68/37/12 63/38/10
f 64/39/10 63/38/10 68/37/12
f 69/41/13 65/42/11 70/43/13
f 65/42/11 69/41/13 66/44/11
f 67/44/12 71/41/14 68/42/12
f 72/43/14 68/42/12 71/41/14
f 73/45/15 70/46/13 74/47/15
f 70/46/13 73/45/15 69/48/13
f 71/48/14 75/45/16 72/46/14
f 76/47/16 72/46/14 75/45/16
f 77/49/17 73/50/15 74/51/15
f 73/50/15 77/49/17 78/52/17
f 79/52/18 80/49/18 75/50/16
f 76/51/16 75/50/16 80/49/18
f 81/53/19 78/54/17 77/55/17
f 78/54/17 81/53/19 82/56/19
f 83/56/20 84/53/20 79/54/18
f 80/55/18 79/54/18 84/53/20
f 85/57/21 82/58/19 81/59/19
f 82/58/19 85/57/21 86/60/21
f 87/60/22 88/57/22 83/58/20
f 84/59/20 83/58/20 88/57/22
f 89/61/23 86/62/21 85/63/21
f 86/62/21 89/61/23 90/64/23
f 91/64/24 92/61/24 87/62/22
f 88/63/22 87/62/22 92/61/24
f 93/65/25 90/66/23 89/67/23
f 90/66/23 93/65/25 94/68/25
f 95/68/26 96/65/26 91/66/24
f 92/67/24 91/66/24 96/65/26
f 97/69/5 94/70/25 93/71/25
f 94/70/25 97/69/5 98/72/5
f 99/72/4 100/69/4 95/70/26
f 96/71/26 95/70/26 100/69/4
f 101/73/6 98/74/5 97/75/5
f 98/74/5 101/73/6 102/76/6
f 103/76/3 104/73/3 99/74/4
f 100/75/4 99/74/4 104/73/3
f 105/77/8 102/78/6 101/79/6
f 102/78/6 105/77/8 106/80/8
f 107/80/7 108/77/7 103/78/3
f 104/79/3 103/78/3 108/77/7
f 109/81/10 105/82/8 110/83/10
f 105/82/8 109/81/10 106/84/8
f 107/84/7 111/81/9 108/82/7
f 112/83/9 108/82/7 111/81/9
f 113/85/12 110/86/10 114/87/12
f 110/86/10 113/85/12 109/88/10
f 111/88/9 115/85/11 112/86/9
f 116/87/11 112/86/9 115/85/11
f 117/89/14 113/90/12 114/91/12
f 113/90/12 117/89/14 118/92/14
f 119/92/13 120/89/13 115/90/11
f 116/91/11 115/90/11 120/89/13
f 121/93/16 118/94/14 117/95/14
f 118/94/14 121/93/16 122/96/16
f 123/96/15 124/93/15 119/94/13
f 120/95/13 119/94/13 124/93/15
f 125/97/18 121/98/16 126/99/18
f 121/98/16 125/97/18 122/100/16
f 123/100/15 127/97/17 124/98/15
f 128/99/17 124/98/15 127/97/17
f 129/101/20 126/102/18 130/103/20
f 126/102/18 129/101/20 125/104/18
f 127/104/17 131/101/19 128/102/17
f 132/103/19 128/102/17 131/101/19
f 133/105/22 130/106/20 134/107/22
f 130/106/20 133/105/22 129/108/20
f 131/108/19 135/105/21 132/106/19
f 136/107/21 132/106/19 135/105/21
f 137/109/24 134/110/22 138/111/24
f 134/110/22 137/109/24 133/112/22
f 135/112/21 139/109/23 136/110/21
f 140/111/23 136/110/21 139/109/23
f 141/113/26 138/114/24 142/115/26
f 138/114/24 141/113/26 137/116/24
f 139/116/23 143/113/25 140/114/23
f 144/115/25 140/114/23 143/113/25
f 52/117/4 142/118/26 50/119/4
f 142/118/26 52/117/4 141/120/26
f 143/120/25 53/117/5 144/118/25
f 55/119/5 144/118/25 53/117/5
