# SSTK version 0.8.0
# 23
mtllib original-23.mtl
o #ID146
v 0.19798703 0.21436786 -0.55041169
v 0.19015091 0.21537176 -0.55025827
v 0.19720647 0.21301707 -0.55030727
v 0.19115694 0.21556695 -0.55026862
v 0.19206317 0.21590514 -0.55035662
v 0.19855494 0.21608861 -0.55039623
v 0.19285103 0.21678582 -0.55034613
v 0.19320813 0.21795927 -0.55039009
v 0.19886299 0.21834578 -0.55038484
v 0.19331687 0.22023458 -0.55023878
v 0.19896817 0.22075069 -0.55038380
v 0.19281598 0.22302475 -0.55022941
v 0.19853011 0.22331553 -0.55027093
v 0.17494872 0.22181598 -0.55027613
v 0.16785226 0.22376171 -0.55028710
v 0.16784359 0.22203643 -0.55037120
v 0.17424930 0.22218069 -0.55032871
v 0.17376334 0.22277580 -0.55037310
v 0.16804568 0.22542605 -0.55032834
v 0.17351097 0.22342977 -0.55025913
v 0.17351526 0.22431810 -0.55040714
v 0.16868502 0.22708960 -0.55029913
v 0.17378849 0.22497966 -0.55028208
v 0.17442874 0.22551340 -0.55032436
v 0.17505483 0.22571854 -0.55028855
v 0.16944955 0.22864499 -0.55028273
v 0.17586474 0.22578820 -0.55035975
v 0.18369368 0.22446923 -0.55027633
v 0.18164570 0.22788238 -0.55040615
v 0.17033289 0.22983231 -0.55038480
v 0.17166933 0.23066291 -0.55022923
v 0.17989116 0.22976831 -0.55032269
v 0.17415194 0.23164567 -0.55036435
v 0.17827246 0.23094290 -0.55032025
v 0.17659346 0.23148933 -0.55024228
v 0.17481737 0.21594240 -0.55024627
v 0.17212380 0.21657040 -0.55030433
v 0.17317917 0.21619826 -0.55025682
v 0.17103132 0.21715451 -0.55025305
v 0.17669620 0.21625794 -0.55030676
v 0.16901813 0.21933752 -0.55036966
v 0.17887863 0.21670349 -0.55038322
v 0.18110918 0.21746304 -0.55025330
v 0.16831951 0.22059002 -0.55027333
v 0.19072447 0.20945605 -0.55037630
v 0.18679011 0.21062051 -0.55028619
v 0.18905603 0.20968463 -0.55041260
v 0.19231996 0.20968261 -0.55025928
v 0.18477867 0.21218647 -0.55026592
v 0.19365921 0.20998149 -0.55029660
v 0.19512692 0.21075834 -0.55023176
v 0.18282431 0.21437084 -0.55027081
v 0.19632190 0.21172296 -0.55035333
v 0.18923970 0.21580661 -0.55026925
v 0.18825711 0.21676121 -0.55031821
v 0.18623582 0.21963781 -0.55023786
v 0.17677089 0.22178377 -0.55024585
v 0.17888265 0.22262508 -0.55036668
v 0.17731366 0.22471973 -0.55041348
v 0.17652974 0.22535197 -0.55030172
v 0.19059234 0.22812989 -0.55030923
v 0.19772778 0.22607135 -0.55034364
v 0.20032354 0.22761257 -0.55038840
v 0.18850025 0.23240437 -0.55033183
v 0.19552272 0.23105157 -0.55036087
v 0.20206388 0.23484961 -0.55034961
v 0.19330295 0.23497943 -0.55040599
v 0.19452554 0.23303020 -0.55039990
v 0.19448800 0.23300069 -0.55025249
v 0.19551409 0.23115779 -0.55028527
v 0.19330312 0.23507335 -0.55023357
v 0.18852283 0.23245470 -0.55031142
v 0.20203519 0.23484474 -0.55029536
v 0.20043213 0.22768305 -0.55028034
v 0.19061266 0.22817999 -0.55037543
v 0.19770930 0.22596861 -0.55036669
v 0.19843380 0.22324401 -0.55029919
v 0.19267045 0.22316024 -0.55031690
v 0.18374931 0.22454074 -0.55039558
v 0.17576241 0.22584063 -0.55028120
v 0.17666363 0.22550844 -0.55030956
v 0.17737761 0.22482207 -0.55026083
v 0.17897380 0.22259095 -0.55033552
v 0.18622918 0.21972088 -0.55038640
v 0.17673630 0.22183546 -0.55031157
v 0.17497257 0.22178109 -0.55025262
v 0.16796392 0.22208302 -0.55035851
v 0.18808740 0.21674622 -0.55031329
v 0.18910156 0.21598639 -0.55024630
v 0.16819429 0.22069392 -0.55032166
v 0.18101559 0.21758571 -0.55029408
v 0.19010186 0.21552684 -0.55042413
v 0.19723698 0.21292406 -0.55041184
v 0.19631573 0.21182246 -0.55039309
v 0.18275300 0.21443544 -0.55023871
v 0.19516503 0.21085328 -0.55037042
v 0.18463935 0.21221536 -0.55027512
v 0.19380636 0.21001511 -0.55039651
v 0.19222954 0.20958018 -0.55028492
v 0.18688375 0.21062289 -0.55025805
v 0.19073074 0.20947187 -0.55038033
v 0.18907291 0.20982955 -0.55040139
v 0.16911251 0.21923578 -0.55022830
v 0.17876019 0.21661013 -0.55025749
v 0.17666235 0.21611771 -0.55026096
v 0.17090694 0.21717576 -0.55026099
v 0.17491257 0.21593863 -0.55040149
v 0.17196011 0.21662824 -0.55023185
v 0.17319403 0.21625031 -0.55038999
v 0.17661038 0.23165710 -0.55028147
v 0.17839420 0.23097949 -0.55029241
v 0.17416434 0.23154735 -0.55031829
v 0.17993285 0.22985451 -0.55037371
v 0.17166318 0.23056882 -0.55038342
v 0.18163713 0.22782080 -0.55040115
v 0.17038100 0.22967400 -0.55023196
v 0.16933258 0.22857418 -0.55030550
v 0.17499058 0.22583246 -0.55037853
v 0.16853401 0.22724907 -0.55032790
v 0.17437210 0.22553436 -0.55037887
v 0.17375795 0.22490704 -0.55030176
v 0.17347798 0.22423867 -0.55042191
v 0.16806170 0.22549264 -0.55032542
v 0.17359251 0.22343521 -0.55023167
v 0.17374248 0.22278082 -0.55025723
v 0.16771558 0.22366310 -0.55031899
v 0.17433031 0.22221256 -0.55026883
v 0.19885127 0.22084372 -0.55029289
v 0.19332419 0.22017938 -0.55036457
v 0.19893298 0.21838926 -0.55034658
v 0.19328716 0.21799363 -0.55042209
v 0.19856554 0.21621059 -0.55028940
v 0.19284841 0.21678278 -0.55026541
v 0.19208173 0.21589259 -0.55029897
v 0.19801327 0.21434480 -0.55034528
v 0.19106669 0.21556794 -0.55040471
v 0.18844798 0.23230406 -0.55618480
v 0.19337379 0.23501755 -0.55025457
v 0.19331710 0.23506378 -0.55621194
v 0.18841423 0.23232680 -0.55023059
v 0.18843167 0.23231140 -0.55028986
v 0.18847309 0.23245397 -0.55619257
v 0.19330421 0.23505645 -0.55041298
v 0.19335773 0.23492047 -0.55621985
v 0.19057292 0.22822471 -0.55032856
v 0.18849295 0.23230685 -0.55609748
v 0.19056075 0.22813546 -0.55618296
v 0.18851186 0.23239156 -0.55035624
v 0.18854631 0.23237420 -0.55024292
v 0.19048122 0.22824986 -0.55028015
v 0.18847692 0.23236636 -0.55623018
v 0.19050909 0.22818035 -0.55624016
v 0.18378280 0.22460197 -0.55621078
v 0.19059978 0.22825512 -0.55028633
v 0.19060340 0.22809493 -0.55623813
v 0.18370129 0.22458200 -0.55024028
v 0.18378492 0.22462908 -0.55040733
v 0.18381421 0.22453271 -0.55619941
v 0.19052862 0.22825761 -0.55022596
v 0.19064341 0.22827171 -0.55612873
v 0.18162397 0.22787787 -0.55613939
v 0.18387304 0.22455434 -0.55023707
v 0.18381346 0.22452648 -0.55628885
v 0.18158871 0.22794762 -0.55033580
v 0.18158935 0.22779216 -0.55036649
v 0.18146883 0.22778190 -0.55626647
v 0.18387528 0.22455696 -0.55024200
v 0.18374394 0.22449459 -0.55613933
v 0.17981225 0.22980879 -0.55616343
v 0.18147214 0.22795330 -0.55037306
v 0.18155303 0.22787943 -0.55611338
v 0.17988894 0.22993686 -0.55039783
v 0.17980568 0.22980415 -0.55033890
v 0.17984033 0.22982562 -0.55626556
v 0.18154596 0.22789171 -0.55037101
v 0.18161149 0.22787375 -0.55612514
v 0.17828408 0.23090760 -0.55619087
v 0.17987273 0.22993055 -0.55022760
v 0.17990981 0.22990598 -0.55618523
v 0.17839786 0.23098876 -0.55034307
v 0.17831998 0.23096054 -0.55040670
v 0.17840762 0.23097257 -0.55611164
v 0.17992618 0.22982073 -0.55036861
v 0.17991657 0.22980217 -0.55613476
v 0.17667457 0.23155017 -0.55613733
v 0.17839492 0.23091359 -0.55037600
v 0.17839757 0.23097969 -0.55612412
v 0.17656026 0.23156051 -0.55041463
v 0.17672429 0.23155309 -0.55022951
v 0.17653599 0.23159852 -0.55622234
v 0.17831156 0.23084625 -0.55032744
v 0.17826004 0.23100693 -0.55614031
v 0.17423399 0.23164384 -0.55620805
v 0.17656663 0.23165952 -0.55037509
v 0.17665473 0.23151297 -0.55615429
v 0.17417259 0.23165458 -0.55033169
v 0.17415306 0.23164805 -0.55033336
v 0.17421561 0.23153461 -0.55621097
v 0.17660268 0.23163258 -0.55041856
v 0.17669448 0.23155376 -0.55611112
v 0.17161847 0.23072652 -0.55610025
v 0.17426623 0.23157774 -0.55032283
v 0.17429593 0.23150351 -0.55617945
v 0.17161576 0.23070139 -0.55030668
v 0.17161649 0.23064086 -0.55035990
v 0.17164283 0.23064985 -0.55610342
v 0.17415813 0.23155201 -0.55037759
v 0.17417450 0.23168659 -0.55628719
v 0.17045250 0.22977556 -0.55041540
v 0.17163862 0.23059274 -0.55609441
v 0.17037541 0.22976357 -0.55626093
v 0.17167744 0.23056637 -0.55034283
v 0.17170275 0.23071894 -0.55031683
v 0.17033187 0.22967836 -0.55038707
v 0.17155777 0.23066159 -0.55614268
v 0.17034312 0.22967744 -0.55620977
v 0.16928662 0.22858007 -0.55023973
v 0.17041015 0.22985128 -0.55612588
v 0.16933006 0.22866803 -0.55621128
v 0.17047378 0.22966997 -0.55025072
v 0.17046488 0.22983683 -0.55034439
v 0.16941638 0.22868689 -0.55036665
v 0.17043641 0.22978437 -0.55611582
v 0.16936154 0.22865348 -0.55623956
v 0.16852603 0.22716582 -0.55024569
v 0.16936042 0.22853696 -0.55619576
v 0.16869553 0.22714309 -0.55615586
v 0.16934362 0.22852472 -0.55025269
v 0.16937151 0.22857936 -0.55040042
v 0.16864018 0.22724937 -0.55038319
v 0.16929027 0.22865673 -0.55626602
v 0.16851588 0.22726945 -0.55625233
v 0.16808403 0.22555200 -0.55026605
v 0.16862199 0.22718956 -0.55623772
v 0.16797889 0.22543975 -0.55621773
v 0.16853116 0.22726959 -0.55040419
v 0.16862138 0.22725697 -0.55033057
v 0.16808750 0.22547173 -0.55028789
v 0.16870321 0.22724890 -0.55618896
v 0.16813059 0.22552466 -0.55613074
v 0.16778395 0.22375284 -0.55039316
v 0.16803190 0.22546922 -0.55627007
v 0.16785381 0.22362274 -0.55609613
v 0.16804476 0.22551002 -0.55023363
v 0.16804687 0.22536879 -0.55032955
v 0.16776779 0.22375975 -0.55033376
v 0.16808909 0.22549501 -0.55628923
v 0.16787262 0.22379020 -0.55626015
v 0.16785466 0.22204237 -0.55030435
v 0.16771346 0.22372582 -0.55618228
v 0.16781930 0.22216690 -0.55624402
v 0.16772648 0.22378636 -0.55034973
v 0.16779132 0.22364628 -0.55033955
v 0.16784889 0.22205281 -0.55029664
v 0.16777511 0.22379299 -0.55610079
v 0.16782570 0.22212561 -0.55618610
v 0.16821188 0.22059446 -0.55027305
v 0.16794701 0.22216098 -0.55613086
v 0.16825495 0.22058870 -0.55613243
v 0.16791600 0.22208279 -0.55037373
v 0.16780492 0.22201703 -0.55023513
v 0.16836217 0.22051756 -0.55037325
v 0.16795795 0.22203164 -0.55621977
v 0.16827325 0.22053225 -0.55627836
v 0.16911987 0.21917588 -0.55029341
v 0.16832516 0.22069471 -0.55614559
v 0.16900754 0.21927287 -0.55621881
v 0.16824273 0.22051317 -0.55030879
v 0.16831731 0.22052346 -0.55036174
v 0.16909321 0.21917160 -0.55028220
v 0.16833149 0.22051244 -0.55620513
v 0.16911267 0.21933798 -0.55613034
v 0.16896115 0.21919904 -0.55025585
v 0.17087213 0.21721440 -0.55627316
v 0.17091755 0.21725385 -0.55035384
v 0.16895898 0.21934090 -0.55625845
v 0.16898742 0.21933353 -0.55623480
v 0.16911665 0.21922203 -0.55026520
v 0.17093167 0.21728090 -0.55624132
v 0.17100539 0.21714247 -0.55042176
v 0.17091070 0.21714024 -0.55039627
v 0.17193250 0.21654031 -0.55618082
v 0.17193720 0.21661449 -0.55032844
v 0.17087112 0.21716269 -0.55617957
v 0.17087076 0.21714421 -0.55615560
v 0.17101102 0.21726123 -0.55024080
v 0.17199533 0.21660636 -0.55628299
v 0.17200503 0.21664152 -0.55037159
v 0.17209910 0.21654664 -0.55026225
v 0.17322874 0.21615960 -0.55610867
v 0.17325454 0.21625455 -0.55038748
v 0.17204795 0.21650337 -0.55618927
v 0.17195905 0.21650280 -0.55622542
v 0.17200044 0.21658593 -0.55024390
v 0.17323550 0.21608611 -0.55620777
v 0.17319085 0.21623178 -0.55024695
v 0.17324802 0.21610471 -0.55030475
v 0.17488978 0.21591252 -0.55624279
v 0.17488463 0.21609133 -0.55031206
v 0.17319542 0.21616842 -0.55625190
v 0.17318238 0.21617638 -0.55616251
v 0.17306556 0.21627835 -0.55029591
v 0.17493555 0.21599798 -0.55611031
v 0.17491973 0.21607111 -0.55041004
v 0.17482481 0.21600880 -0.55038502
v 0.17677659 0.21610787 -0.55622227
v 0.17669521 0.21615202 -0.55026839
v 0.17479718 0.21601966 -0.55613076
v 0.17481974 0.21592554 -0.55626087
v 0.17492928 0.21606144 -0.55029801
v 0.17678495 0.21616452 -0.55625673
v 0.17672570 0.21625165 -0.55042244
v 0.17665570 0.21606477 -0.55037395
v 0.17876666 0.21661295 -0.55617319
v 0.17878952 0.21667715 -0.55026366
v 0.17671362 0.21620025 -0.55625922
v 0.17678669 0.21622213 -0.55618264
v 0.17670219 0.21617870 -0.55038753
v 0.17876917 0.21674317 -0.55612921
v 0.17877482 0.21660028 -0.55040462
v 0.17888426 0.21659177 -0.55034436
v 0.18116225 0.21753695 -0.55621692
v 0.18102376 0.21749012 -0.55036629
v 0.17886391 0.21658421 -0.55615034
v 0.17887687 0.21672583 -0.55613245
v 0.17874839 0.21663981 -0.55028955
v 0.18111608 0.21762693 -0.55627949
v 0.18103006 0.21756910 -0.55037501
v 0.18284699 0.21447105 -0.55033917
v 0.18109753 0.21749511 -0.55611175
v 0.18280641 0.21431434 -0.55627644
v 0.18116513 0.21758666 -0.55026754
v 0.18110604 0.21760223 -0.55034301
v 0.18284571 0.21429844 -0.55023158
v 0.18101775 0.21756404 -0.55625777
v 0.18278627 0.21448303 -0.55611577
v 0.18280118 0.21436020 -0.55039789
v 0.18471658 0.21223098 -0.55624924
v 0.18463500 0.21215723 -0.55041041
v 0.18284426 0.21431702 -0.55623495
v 0.18291831 0.21436837 -0.55610970
v 0.18275585 0.21442913 -0.55030641
v 0.18464412 0.21224138 -0.55613532
v 0.18471810 0.21206634 -0.55039139
v 0.18475691 0.21204578 -0.55038455
v 0.18688288 0.21056295 -0.55618016
v 0.18669322 0.21057328 -0.55034645
v 0.18463308 0.21212691 -0.55622292
v 0.18469176 0.21211530 -0.55621392
v 0.18469983 0.21208714 -0.55023801
v 0.18683148 0.21058869 -0.55616101
v 0.18688903 0.21063158 -0.55033974
v 0.18675443 0.21059577 -0.55034848
v 0.18917923 0.20973180 -0.55612003
v 0.18921004 0.20971219 -0.55029889
v 0.18673253 0.21065567 -0.55623430
v 0.18688861 0.21057774 -0.55622929
v 0.18674770 0.21056802 -0.55027439
v 0.18917553 0.20980512 -0.55619888
v 0.18922595 0.20982847 -0.55040834
v 0.18907192 0.20985238 -0.55023874
v 0.19086781 0.20963173 -0.55617201
v 0.19075226 0.20961187 -0.55023485
v 0.18922610 0.20986662 -0.55629202
v 0.18913951 0.20986341 -0.55628659
v 0.18906845 0.20985366 -0.55033646
v 0.19069361 0.20963777 -0.55628369
v 0.19078709 0.20947319 -0.55026310
v 0.19073109 0.20951409 -0.55038928
v 0.19237876 0.20966604 -0.55615163
v 0.19237697 0.20965895 -0.55023615
v 0.19080834 0.20956075 -0.55626925
v 0.19078327 0.20945423 -0.55611272
v 0.19082188 0.20962344 -0.55037008
v 0.19239820 0.20957122 -0.55620835
v 0.19232398 0.20955621 -0.55028271
v 0.19237667 0.20960361 -0.55026717
v 0.19369187 0.20998512 -0.55623841
v 0.19380836 0.20994578 -0.55042472
v 0.19226013 0.20954774 -0.55620198
v 0.19238802 0.20956735 -0.55614010
v 0.19232063 0.20959521 -0.55023854
v 0.19368966 0.21001133 -0.55627908
v 0.19381574 0.20995843 -0.55023725
v 0.19382931 0.21003173 -0.55037408
v 0.19520748 0.21084156 -0.55623284
v 0.19518758 0.21070354 -0.55040915
v 0.19384980 0.21000247 -0.55623429
v 0.19378239 0.20994919 -0.55611650
v 0.19368001 0.20995060 -0.55036367
v 0.19511773 0.21083350 -0.55613610
v 0.19513858 0.21072566 -0.55037304
v 0.19634102 0.21177601 -0.55022863
v 0.19514183 0.21082710 -0.55619613
v 0.19622170 0.21174339 -0.55614099
v 0.19505219 0.21081273 -0.55023839
v 0.19503987 0.21068472 -0.55030956
v 0.19626352 0.21171230 -0.55025664
v 0.19505075 0.21078841 -0.55622510
v 0.19622346 0.21167517 -0.55613532
v 0.19739853 0.21298257 -0.55035626
v 0.19632777 0.21179230 -0.55621627
v 0.19724414 0.21303759 -0.55615096
v 0.19637553 0.21166137 -0.55024604
v 0.19636569 0.21182844 -0.55025286
v 0.19720821 0.21300697 -0.55041302
v 0.19623811 0.21172273 -0.55626563
v 0.19724670 0.21301823 -0.55617309
v 0.19809413 0.21438434 -0.55040367
v 0.19726427 0.21298039 -0.55615081
v 0.19799218 0.21450447 -0.55617579
v 0.19720572 0.21296135 -0.55038614
v 0.19724569 0.21296647 -0.55034175
v 0.19812325 0.21439770 -0.55037456
v 0.19735666 0.21288475 -0.55618543
v 0.19798238 0.21437700 -0.55619628
v 0.19868097 0.21609092 -0.55036943
v 0.19804415 0.21452714 -0.55624240
v 0.19853496 0.21608569 -0.55618746
v 0.19808555 0.21440407 -0.55030979
v 0.19811113 0.21442679 -0.55031593
v 0.19859612 0.21623211 -0.55033726
v 0.19806448 0.21442252 -0.55624996
v 0.19858914 0.21619067 -0.55618231
v 0.19898020 0.21830482 -0.55040536
v 0.19864912 0.21610810 -0.55613014
v 0.19884252 0.21836169 -0.55618124
v 0.19867489 0.21614408 -0.55035161
v 0.19852234 0.21610799 -0.55035052
v 0.19882852 0.21832174 -0.55024938
v 0.19863433 0.21604928 -0.55613786
v 0.19886711 0.21835847 -0.55617642
v 0.19885719 0.22076720 -0.55032025
v 0.19884058 0.21831956 -0.55616940
v 0.19895023 0.22082921 -0.55623588
v 0.19888522 0.21843099 -0.55038111
v 0.19895936 0.21841612 -0.55023807
v 0.19895009 0.22069096 -0.55033257
v 0.19900416 0.21839703 -0.55612405
v 0.19893863 0.22071406 -0.55610902
v 0.19850263 0.22329441 -0.55024544
v 0.19882259 0.22074543 -0.55611641
v 0.19859870 0.22332579 -0.55629117
v 0.19886268 0.22082671 -0.55039557
v 0.19896186 0.22081824 -0.55027451
v 0.19849941 0.22321099 -0.55034121
v 0.19889928 0.22075479 -0.55610509
v 0.19852899 0.22339708 -0.55610957
v 0.19774025 0.22612233 -0.55034645
v 0.19860048 0.22332813 -0.55627230
v 0.19784408 0.22609387 -0.55613344
v 0.19855995 0.22332519 -0.55027016
v 0.19840600 0.22336873 -0.55033082
v 0.19769163 0.22598711 -0.55032670
v 0.19848847 0.22321538 -0.55612107
v 0.19785164 0.22595178 -0.55610899
v 0.19786013 0.22600985 -0.55025566
v 0.20037383 0.22753332 -0.55623220
v 0.20033197 0.22755013 -0.55039015
v 0.19778101 0.22604367 -0.55619314
v 0.19771841 0.22597824 -0.55627478
v 0.19772557 0.22608621 -0.55028496
v 0.20046546 0.22769009 -0.55615837
v 0.20033062 0.22773082 -0.55042402
v 0.20206456 0.23498895 -0.55031076
v 0.20049369 0.22754612 -0.55624673
v 0.20207792 0.23484315 -0.55615609
v 0.20049134 0.22756808 -0.55024071
v 0.20041162 0.22765861 -0.55029469
v 0.20216904 0.23489634 -0.55033351
v 0.20049717 0.22770408 -0.55618274
v 0.20205996 0.23483491 -0.55612335
v 0.19550940 0.23112433 -0.55624296
v 0.20199454 0.23489027 -0.55026190
v 0.20214974 0.23496781 -0.55624900
v 0.19546923 0.23111419 -0.55025875
v 0.19561282 0.23099237 -0.55034049
v 0.19561062 0.23105138 -0.55609587
v 0.20209151 0.23495153 -0.55024468
v 0.20212874 0.23490222 -0.55618410
v 0.19451010 0.23299480 -0.55031916
v 0.19546455 0.23110284 -0.55622974
v 0.19452380 0.23306316 -0.55618141
v 0.19561566 0.23113631 -0.55031438
v 0.19563542 0.23109864 -0.55024293
v 0.19445073 0.23302337 -0.55029887
v 0.19554688 0.23117784 -0.55618075
v 0.19452240 0.23292705 -0.55616719
v 0.19327855 0.23491335 -0.55025700
v 0.19443934 0.23298300 -0.55621270
v 0.19344091 0.23494600 -0.55620110
v 0.19444096 0.23308810 -0.55027803
v 0.19444129 0.23300751 -0.55029903
v 0.19343231 0.23491636 -0.55032244
v 0.19442901 0.23311697 -0.55617132
v 0.19335991 0.23497904 -0.55626379
v 0.16786561 0.22371986 -0.55623218
v 0.17509782 0.22191277 -0.55624791
v 0.16780061 0.22216935 -0.55610976
v 0.17423748 0.22224799 -0.55620275
v 0.17381766 0.22264808 -0.55616498
v 0.16808881 0.22545037 -0.55618882
v 0.17351492 0.22354713 -0.55611388
v 0.17349877 0.22419700 -0.55615170
v 0.16856015 0.22721799 -0.55617213
v 0.17391143 0.22503953 -0.55611090
v 0.17442000 0.22558905 -0.55614460
v 0.17504470 0.22584172 -0.55622963
v 0.16930122 0.22862666 -0.55614268
v 0.17581820 0.22580523 -0.55622474
v 0.18387522 0.22450142 -0.55612550
v 0.18154352 0.22780773 -0.55612311
v 0.17033914 0.22969225 -0.55615825
v 0.17166197 0.23057758 -0.55617874
v 0.17989209 0.22978899 -0.55626875
v 0.17432545 0.23150696 -0.55610900
v 0.17833223 0.23102069 -0.55625606
v 0.17664936 0.23149909 -0.55615572
v 0.19340159 0.23506495 -0.55617808
v 0.19553134 0.23107725 -0.55621519
v 0.18849366 0.23236530 -0.55620793
v 0.19454689 0.23297970 -0.55618261
v 0.17206347 0.21662958 -0.55627164
v 0.17478000 0.21599272 -0.55616512
v 0.17319366 0.21618070 -0.55619753
v 0.17093264 0.21731771 -0.55628038
v 0.17668820 0.21611897 -0.55609473
v 0.16905404 0.21923077 -0.55619481
v 0.17890430 0.21659414 -0.55625940
v 0.18104738 0.21762404 -0.55622642
v 0.16824320 0.22062201 -0.55610775
v 0.19010084 0.21556096 -0.55628305
v 0.18917677 0.21599622 -0.55627779
v 0.18825271 0.21672965 -0.55613159
v 0.18620832 0.21973880 -0.55628184
v 0.17683927 0.22181693 -0.55615578
v 0.17893012 0.22255034 -0.55629285
v 0.19276492 0.22308186 -0.55621640
v 0.17741804 0.22474775 -0.55624488
v 0.17665854 0.22542380 -0.55617036
v 0.19058578 0.22826921 -0.55609408
v 0.19844366 0.22332881 -0.55612632
v 0.19773177 0.22598226 -0.55623444
v 0.20031943 0.22755334 -0.55621450
v 0.20218478 0.23491637 -0.55614127
v 0.18685530 0.21058920 -0.55611536
v 0.19071301 0.20965095 -0.55614533
v 0.18915163 0.20974926 -0.55620479
v 0.19234539 0.20968877 -0.55616728
v 0.18481214 0.21206093 -0.55612445
v 0.19378851 0.21004875 -0.55616515
v 0.19514039 0.21078734 -0.55620875
v 0.18283595 0.21446162 -0.55624324
v 0.19637122 0.21181245 -0.55628287
v 0.19731117 0.21290552 -0.55617497
v 0.19809921 0.21444572 -0.55612288
v 0.19111058 0.21545362 -0.55616023
v 0.19199195 0.21586747 -0.55624524
v 0.19851204 0.21623092 -0.55613111
v 0.19285487 0.21684773 -0.55615856
v 0.19324252 0.21799018 -0.55612163
v 0.19887531 0.21828895 -0.55618127
v 0.19340822 0.22012495 -0.55615563
v 0.19895768 0.22068815 -0.55617935
v 0.19854044 0.22321362 -0.55622059
v 0.19262119 0.22321882 -0.55627349
v 0.19896141 0.22073074 -0.55626958
v 0.19328940 0.22012185 -0.55613929
v 0.19896656 0.21831117 -0.55623570
v 0.19325688 0.21801327 -0.55611783
v 0.19854420 0.21620414 -0.55611507
v 0.19283019 0.21674820 -0.55626746
v 0.19203338 0.21584766 -0.55610556
v 0.19806635 0.21451464 -0.55628349
v 0.19110738 0.21551738 -0.55612543
v 0.19020431 0.21539172 -0.55629015
v 0.19736383 0.21288556 -0.55628629
v 0.18105557 0.21752665 -0.55617642
v 0.19623143 0.21168208 -0.55610374
v 0.18276556 0.21436426 -0.55626700
v 0.19511086 0.21077731 -0.55627984
v 0.18478659 0.21220299 -0.55611985
v 0.19381274 0.20997871 -0.55609678
v 0.19233578 0.20957572 -0.55610021
v 0.18686790 0.21068500 -0.55614737
v 0.19081730 0.20954793 -0.55616211
v 0.18907567 0.20971039 -0.55616299
v 0.20208498 0.23485129 -0.55624921
v 0.19558121 0.23100408 -0.55611865
v 0.20035490 0.22772346 -0.55616646
v 0.18851596 0.23242307 -0.55616912
v 0.19046473 0.22820727 -0.55609451
v 0.19768754 0.22600625 -0.55610762
v 0.18375530 0.22443959 -0.55613179
v 0.17581873 0.22569789 -0.55610693
v 0.17669027 0.22551929 -0.55613348
v 0.17739007 0.22481183 -0.55610306
v 0.17881247 0.22251863 -0.55621760
v 0.18620817 0.21965807 -0.55613592
v 0.17684814 0.22182627 -0.55619540
v 0.17509324 0.22179358 -0.55622044
v 0.16784338 0.22215924 -0.55611839
v 0.18822079 0.21666791 -0.55615392
v 0.18923387 0.21582975 -0.55613435
v 0.16818759 0.22052791 -0.55617665
v 0.16907394 0.21930474 -0.55627512
v 0.17882092 0.21664757 -0.55623197
v 0.17677813 0.21610627 -0.55624632
v 0.17098046 0.21731020 -0.55628955
v 0.17480381 0.21606030 -0.55628428
v 0.17204181 0.21654117 -0.55625819
v 0.17325200 0.21619579 -0.55620475
v 0.19446907 0.23309453 -0.55618234
v 0.19341219 0.23507129 -0.55622601
v 0.17669221 0.23157818 -0.55622515
v 0.17422297 0.23157394 -0.55621171
v 0.17836507 0.23085985 -0.55612625
v 0.17978037 0.22987428 -0.55616117
v 0.17160214 0.23067247 -0.55611755
v 0.18156202 0.22788638 -0.55611693
v 0.17044724 0.22979631 -0.55618940
v 0.16938927 0.22869963 -0.55618461
v 0.17497765 0.22580183 -0.55628076
v 0.16852529 0.22723919 -0.55617364
v 0.17434856 0.22548118 -0.55614812
v 0.17393454 0.22492823 -0.55627415
v 0.17346559 0.22420232 -0.55613964
v 0.16815528 0.22541120 -0.55623135
v 0.17353276 0.22344521 -0.55609872
v 0.17385502 0.22276632 -0.55615954
v 0.16776605 0.22363878 -0.55616799
v 0.17434040 0.22212955 -0.55613781
vt 0.04444853 0.0009242832
vt 0.03913733 0.05497151
vt 0.0336316 0.003697133
vt 0.04064833 0.04880962
vt 0.04518134 0.04317056
vt 0.05646997 0
vt 0.0520274 0.03913733
vt 0.06047753 0.03779291
vt 0.07164245 0.001279059
vt 0.07543761 0.0407274
vt 0.08743112 0.005116234
vt 0.09375639 0.04953084
vt 0.103836 0.01151153
vt 0.05825785 0.1647652
vt 0.05949956 0.2153113
vt 0.04888431 0.2123424
vt 0.05924749 0.1698067
vt 0.0622164 0.174176
vt 0.07155259 0.2163009
vt 0.06660441 0.177201
vt 0.07185135 0.1782093
vt 0.08372232 0.2153206
vt 0.07737838 0.177313
vt 0.08171037 0.1746242
vt 0.08451123 0.1705162
vt 0.09438892 0.2123797
vt 0.08544485 0.1653627
vt 0.08947808 0.1108393
vt 0.1082065 0.130632
vt 0.1035524 0.2074782
vt 0.1112127 0.2006161
vt 0.1186817 0.1448977
vt 0.1215759 0.1848566
vt 0.1234432 0.1566613
vt 0.1250303 0.1689478
vt 0.01925123 0.1569601
vt 0.01880309 0.1764634
vt 0.01792549 0.1683503
vt 0.0214359 0.1845205
vt 0.02322845 0.1447484
vt 0.03196713 0.2004668
vt 0.02985715 0.131715
vt 0.03913733 0.1178601
vt 0.03970683 0.2073942
vt 0.0009757052 0.04167677
vt 0.002211803 0.0697227
vt 0 0.05273082
vt 0.003902821 0.03166837
vt 0.008847211 0.08574361
vt 0.008781347 0.02270562
vt 0.01561128 0.01478853
vt 0.02084334 0.1015404
vt 0.02401918 0.008318549
vt 0.04051908 0.06213237
vt 0.04466435 0.06987208
vt 0.06124543 0.08708802
vt 0.06090933 0.153263
vt 0.06886377 0.140267
vt 0.08129958 0.1536364
vt 0.08440853 0.1597049
vt 0.124001 0.07155259
vt 0.120857 0.02046494
vt 0.1353491 0.005527027
vt 0.1483615 0.09186815
vt 0.1507772 0.04289281
vt 0.1860517 0.005527027
vt 0.1732798 0.06333674
vt 0.161955 0.05304125
vt -0.02839921 0
vt -0.06628012 0.04249006
vt -0.06628012 0
vt -0.02839921 0.04249006
vt -0.1410581 0.04249006
vt -0.172778 0
vt -0.1410581 0
vt -0.172778 0.04249006
vt 0.02419636 0
vt -0.02810351 0.04249006
vt -0.02810351 0
vt 0.02419636 0.04249006
vt 0.1692579 0
vt 0.1420089 0.04249006
vt 0.1420089 0
vt 0.1692579 0.04249006
vt 0.1870365 0
vt 0.1693379 0.04249006
vt 0.1693379 0
vt 0.1870365 0.04249006
vt 0.1915317 0
vt 0.178841 0.04249006
vt 0.178841 0
vt 0.1915317 0.04249006
vt 0.1835738 0
vt 0.1711852 0.04249006
vt 0.1711852 0
vt 0.1835738 0.04249006
vt 0.1548497 0
vt 0.1385701 0.04249006
vt 0.1385701 0
vt 0.1548497 0.04249006
vt 0.106518 0
vt 0.08765648 0.04249006
vt 0.08765648 0
vt 0.106518 0.04249006
vt 0.0613053 0.04249006
vt 0.05102087 0
vt 0.0613053 0
vt 0.05102087 0.04249006
vt 0.01694082 0.04249006
vt 0.006548801 0
vt 0.01694082 0
vt 0.006548801 0.04249006
vt -0.02347993 0.04249006
vt -0.03454452 0
vt -0.02347993 0
vt -0.03454452 0.04249006
vt -0.05395428 0.04249006
vt -0.06616342 0
vt -0.05395428 0
vt -0.06616342 0.04249006
vt -0.07691927 0.04249006
vt -0.08901285 0
vt -0.07691927 0
vt -0.08901285 0.04249006
vt -0.1042715 0.04249006
vt -0.1152941 0
vt -0.1042715 0
vt -0.1152941 0.04249006
vt -0.1333757 0.04249006
vt -0.1438021 0
vt -0.1333757 0
vt -0.1438021 0.04249006
vt -0.157516 0.04249006
vt -0.1679031 0
vt -0.157516 0
vt -0.1679031 0.04249006
vt -0.1848957 0.04249006
vt -0.1657858 0
vt -0.1657858 0.04249006
vt -0.1848957 0
vt -0.1820521 0.04249006
vt -0.1735757 0
vt -0.1735757 0.04249006
vt -0.1820521 0
vt -0.1774621 0.04249006
vt -0.1693017 0
vt -0.1693017 0.04249006
vt -0.1774621 0
vt -0.1651489 0.04249006
vt -0.1536819 0
vt -0.1536819 0.04249006
vt -0.1651489 0
vt -0.1432825 0.04249006
vt -0.1304394 0
vt -0.1304394 0.04249006
vt -0.1432825 0
vt -0.11849 0.04249006
vt -0.1038678 0
vt -0.1038678 0.04249006
vt -0.11849 0
vt -0.0928187 0.04249006
vt -0.07614296 0
vt -0.07614296 0.04249006
vt -0.0928187 0
vt -0.08314856 0.04249006
vt -0.1076639 0
vt -0.08314856 0
vt -0.1076639 0.04249006
vt -0.09347165 0.04249006
vt -0.07363614 0
vt -0.07363614 0.04249006
vt -0.09347165 0
vt -0.08260332 0.04249006
vt -0.06526267 0
vt -0.06526267 0.04249006
vt -0.08260332 0
vt -0.06942491 0.04249006
vt -0.05228969 0
vt -0.05228969 0.04249006
vt -0.06942491 0
vt -0.0525266 0.04249006
vt -0.04142957 0
vt -0.04142957 0.04249006
vt -0.0525266 0
vt -0.03972721 0.04249006
vt -0.02929955 0
vt -0.02929955 0.04249006
vt -0.03972721 0
vt -0.02594902 0.04249006
vt -0.01574457 0
vt -0.01574457 0.04249006
vt -0.02594902 0
vt -0.01145622 0.04249006
vt -0.001000198 0
vt -0.001000198 0.04249006
vt -0.01145622 0
vt 0.01396251 0.04249006
vt 0.003353394 0
vt 0.01396251 0
vt 0.003353394 0.04249006
vt 0.02870852 0.04249006
vt 0.01804287 0
vt 0.02870852 0
vt 0.01804287 0.04249006
vt 0.04282686 0.04249006
vt 0.03166018 0
vt 0.04282686 0
vt 0.03166018 0.04249006
vt 0.0563038 0.04249006
vt 0.04424687 0
vt 0.0563038 0
vt 0.04424687 0.04249006
vt 0.07149668 0.04249006
vt 0.05627038 0
vt 0.07149668 0
vt 0.05627038 0.04249006
vt 0.08616633 0.04249006
vt 0.06991806 0
vt 0.08616633 0
vt 0.06991806 0.04249006
vt 0.1009256 0.04249006
vt 0.08331828 0
vt 0.1009256 0
vt 0.08331828 0.04249006
vt 0.1164889 0.04249006
vt 0.09725665 0
vt 0.1164889 0
vt 0.09725665 0.04249006
vt 0.06946623 0.04249006
vt 0.09027879 0
vt 0.09027879 0.04249006
vt 0.06946623 0
vt 0.1860517 0.04249006
vt 0.1353491 0
vt 0.1860517 0
vt 0.1353491 0.04249006
vt -0.07231317 0
vt -0.1236989 0.04249006
vt -0.1236989 0
vt -0.07231317 0.04249006
vt 0.1555613 0.04249006
vt 0.1404638 0
vt 0.1555613 0
vt 0.1404638 0.04249006
vt 0.1708208 0.04249006
vt 0.1555157 0
vt 0.1708208 0
vt 0.1555157 0.04249006
vt -0.05949956 0.2153113
vt -0.05825785 0.1647652
vt -0.04888431 0.2123424
vt -0.05924749 0.1698067
vt -0.0622164 0.174176
vt -0.07155259 0.2163009
vt -0.06660441 0.177201
vt -0.07185135 0.1782093
vt -0.08372232 0.2153206
vt -0.07737838 0.177313
vt -0.08171037 0.1746242
vt -0.08451123 0.1705162
vt -0.09438892 0.2123797
vt -0.08544485 0.1653627
vt -0.08947808 0.1108393
vt -0.1082065 0.130632
vt -0.1035524 0.2074782
vt -0.1112127 0.2006161
vt -0.1186817 0.1448977
vt -0.1215759 0.1848566
vt -0.1234432 0.1566613
vt -0.1250303 0.1689478
vt -0.1732798 0.06333674
vt -0.1507772 0.04289281
vt -0.1483615 0.09186815
vt -0.161955 0.05304125
vt -0.01880309 0.1764634
vt -0.01925123 0.1569601
vt -0.01792549 0.1683503
vt -0.0214359 0.1845205
vt -0.02322845 0.1447484
vt -0.03196713 0.2004668
vt -0.02985715 0.131715
vt -0.03913733 0.1178601
vt -0.03970683 0.2073942
vt -0.03913733 0.05497151
vt -0.04051908 0.06213237
vt -0.04466435 0.06987208
vt -0.06124543 0.08708802
vt -0.06090933 0.153263
vt -0.06886377 0.140267
vt -0.09375639 0.04953084
vt -0.08129958 0.1536364
vt -0.08440853 0.1597049
vt -0.124001 0.07155259
vt -0.103836 0.01151153
vt -0.120857 0.02046494
vt -0.1353491 0.005527027
vt -0.1860517 0.005527027
vt -0.002211803 0.0697227
vt -0.0009757052 0.04167677
vt -0.003902821 0.03166837
vt -0.008847211 0.08574361
vt -0.008781347 0.02270562
vt -0.01561128 0.01478853
vt -0.02084334 0.1015404
vt -0.02401918 0.008318549
vt -0.0336316 0.003697133
vt -0.04444853 0.0009242832
vt -0.04064833 0.04880962
vt -0.04518134 0.04317056
vt -0.05646997 0
vt -0.0520274 0.03913733
vt -0.06047753 0.03779291
vt -0.07164245 0.001279059
vt -0.07543761 0.0407274
vt -0.08743112 0.005116234
vn 0 3.597456311981438e-8 1
vn 0 -3.597456311981438e-8 -1
vn -0.4715165841656836 0.8818571941401426 -3.17244259388974e-8
vn 0.4715165841656836 -0.8818571941401426 3.17244259388974e-8
vn -0.8923762390120094 -0.4512921980787847 1.6235042228479855e-8
vn 0.8923762390120094 0.4512921980787847 -1.6235042228479855e-8
vn -0.47419814380532266 0.8804181508871711 -3.1672656978858867e-8
vn 0.47419814380532266 -0.8804181508871711 3.1672656978858867e-8
vn 0.8330887123664864 0.5531394013515486 -1.989895070089807e-8
vn -0.8330887123664864 -0.5531394013515486 1.989895070089807e-8
vn 0.7580158204680724 0.6522361657560202 -2.3463913291300665e-8
vn -0.7580158204680724 -0.6522361657560202 2.3463913291300665e-8
vn 0.5740943206948007 0.8187891736863494 -2.9455584459598746e-8
vn -0.5740943206948007 -0.8187891736863494 2.9455584459598746e-8
vn 0.34792857590887066 0.9375210429990487 -3.372691093689535e-8
vn -0.34792857590887066 -0.9375210429990487 3.372691093689535e-8
vn 0.013075482440456431 0.9999145122253942 -3.5971487772028204e-8
vn -0.013075482440456431 -0.9999145122253942 3.5971487772028204e-8
vn -0.34739781676894466 0.937717845038778 -3.373398880707653e-8
vn 0.34739781676894466 -0.937717845038778 3.373398880707653e-8
vn -0.5756642596668903 0.8176861623765993 -2.9415900807107862e-8
vn 0.5756642596668903 -0.8176861623765993 2.9415900807107862e-8
vn -0.7530797882629275 0.6579292002258781 -2.3668713378787863e-8
vn 0.7530797882629275 -0.6579292002258781 2.3668713378787863e-8
vn -0.8795312665957088 0.47584109856184975 -1.711817310889548e-8
vn 0.8795312665957088 -0.47584109856184975 1.711817310889548e-8
vn -0.9531623341853855 0.3024591950830177 -1.0880834666868646e-8
vn 0.9531623341853855 -0.3024591950830177 1.0880834666868646e-8
vn -0.9895102813017413 0.14446246293812398 -5.196971149193816e-9
vn 0.9895102813017413 -0.14446246293812398 5.196971149193816e-9
vn -0.9989503426961752 -0.04580625314511288 1.6478628143837705e-9
vn 0.9989503426961752 0.04580625314511288 -1.6478628143837705e-9
vn -0.9644097773858374 -0.2644121428425694 9.512114092455591e-9
vn 0.9644097773858374 0.2644121428425694 -9.512114092455591e-9
vn -0.8760520800647164 -0.48221650014727147 1.7347530438290174e-8
vn 0.8760520800647164 0.48221650014727147 -1.7347530438290174e-8
vn -0.7246727619440074 -0.6890931635827213 2.4789827590251326e-8
vn 0.7246727619440074 0.6890931635827213 -2.4789827590251326e-8
vn -0.5164689245801267 -0.8563059324464861 3.0805233300145955e-8
vn 0.5164689245801267 0.8563059324464861 -3.0805233300145955e-8
vn -0.32843315375471327 -0.9445272169264007 3.3978954927075636e-8
vn 0.32843315375471327 0.9445272169264007 -3.3978954927075636e-8
vn -0.1107928925728175 -0.9938435163320968 3.575308662774301e-8
vn 0.1107928925728175 0.9938435163320968 -3.575308662774301e-8
vn 0.08784791732168093 -0.9961338983400986 3.5835481549292886e-8
vn -0.08784791732168093 0.9961338983400986 -3.5835481549292886e-8
vn 0.24120558566694125 -0.9704740416121734 3.4912378973292204e-8
vn -0.24120558566694125 0.9704740416121734 -3.4912378973292204e-8
vn 0.3553454989480934 -0.9347350300364962 3.362668331767371e-8
vn -0.3553454989480934 0.9347350300364962 -3.362668331767371e-8
vn -0.8768487338159052 -0.4807663653017373 1.729536247304553e-8
vn 0.8768487338159052 0.4807663653017373 -1.729536247304553e-8
vn -0.7684295377937915 -0.6399344071434346 2.3021362929519303e-8
vn 0.7684295377937915 0.6399344071434346 -2.3021362929519303e-8
vn -0.5806739571223256 -0.8141362020693458 2.9288195857367146e-8
vn 0.5806739571223256 0.8141362020693458 -2.9288195857367146e-8
vn -0.3488402126494383 -0.9371822160277549 3.3714721787248384e-8
vn 0.3488402126494383 0.9371822160277549 -3.3714721787248384e-8
vn -0.138408497846464 -0.9903752257219908 3.5628316467593515e-8
vn 0.138408497846464 0.9903752257219908 -3.5628316467593515e-8
vn 0.05760580617896129 -0.9983394067622847 3.5914823838103963e-8
vn -0.05760580617896129 0.9983394067622847 -3.5914823838103963e-8
vn 0.26824664279066396 -0.9633502678836688 3.4656104247973524e-8
vn -0.26824664279066396 0.9633502678836688 -3.4656104247973524e-8
vn 0.46613587132135836 -0.8847131453004847 3.182716754963752e-8
vn -0.46613587132135836 0.8847131453004847 -3.182716754963752e-8
vn 0.6350173065318205 -0.772497909644467 2.7790272986439056e-8
vn -0.6350173065318205 0.772497909644467 -2.7790272986439056e-8
vn 0.7806800072151671 -0.6249309772563097 2.248161664444999e-8
vn -0.7806800072151671 0.6249309772563097 -2.248161664444999e-8
vn 0.8879935525677258 -0.4598559019933845 1.654311262165396e-8
vn -0.8879935525677258 0.4598559019933845 -1.654311262165396e-8
vn 0.9542580349459667 -0.29898428510719777 1.0755826295460605e-8
vn -0.9542580349459667 0.29898428510719777 -1.0755826295460605e-8
vn 0.9898227476722438 -0.14230575599943068 5.11938455839934e-9
vn -0.9898227476722438 0.14230575599943068 -5.11938455839934e-9
vn 0.9999336639995703 0.011518142228439816 0
vn -0.9999336639995703 -0.011518142228439816 0
vn 0.9895310987358502 0.14431979987036042 -5.1918445921526305e-9
vn -0.9895310987358502 -0.14431979987036042 5.1918445921526305e-9
vn 0.9670670024804178 0.25452192973011123 -9.156318004205523e-9
vn -0.9670670024804178 -0.25452192973011123 9.156318004205523e-9
vn 0.517013776531123 -0.8559770761399075 3.079339986966595e-8
vn -0.517013776531123 0.8559770761399075 -3.079339986966595e-8
vn 0.9743700565600409 -0.22495108997109284 8.092514386306542e-9
vn -0.9743700565600409 0.22495108997109284 -8.092514386306542e-9
vn -0.505294649145633 0.8629468799090653 -3.104413554895364e-8
vn 0.505294649145633 -0.8629468799090653 3.104413554895364e-8
vn 0.8726090027886625 0.488419418381554 -1.7570677701946704e-8
vn -0.8726090027886625 -0.488419418381554 1.7570677701946704e-8
vn 0.8722889165092402 0.48899084463324627 -1.7591234510787126e-8
vn -0.8722889165092402 -0.48899084463324627 1.7591234510787126e-8
usemtl material_0_0
f 1/1/1 2/2/1 3/3/1
f 2/2/1 1/1/1 4/4/1
f 4/4/1 1/1/1 5/5/1
f 5/5/1 1/1/1 6/6/1
f 5/5/1 6/6/1 7/7/1
f 7/7/1 6/6/1 8/8/1
f 8/8/1 6/6/1 9/9/1
f 8/8/1 9/9/1 10/10/1
f 10/10/1 9/9/1 11/11/1
f 10/10/1 11/11/1 12/12/1
f 12/12/1 11/11/1 13/13/1
f 14/14/1 15/15/1 16/16/1
f 15/15/1 14/14/1 17/17/1
f 15/15/1 17/17/1 18/18/1
f 15/15/1 18/18/1 19/19/1
f 19/19/1 18/18/1 20/20/1
f 19/19/1 20/20/1 21/21/1
f 19/19/1 21/21/1 22/22/1
f 22/22/1 21/21/1 23/23/1
f 22/22/1 23/23/1 24/24/1
f 22/22/1 24/24/1 25/25/1
f 22/22/1 25/25/1 26/26/1
f 26/26/1 25/25/1 27/27/1
f 26/26/1 27/27/1 28/28/1
f 26/26/1 28/28/1 29/29/1
f 26/26/1 29/29/1 30/30/1
f 30/30/1 29/29/1 31/31/1
f 31/31/1 29/29/1 32/32/1
f 31/31/1 32/32/1 33/33/1
f 33/33/1 32/32/1 34/34/1
f 33/33/1 34/34/1 35/35/1
f 36/36/1 37/37/1 38/38/1
f 37/37/1 36/36/1 39/39/1
f 39/39/1 36/36/1 40/40/1
f 39/39/1 40/40/1 41/41/1
f 41/41/1 40/40/1 42/42/1
f 41/41/1 42/42/1 43/43/1
f 41/41/1 43/43/1 44/44/1
f 45/45/1 46/46/1 47/47/1
f 46/46/1 45/45/1 48/48/1
f 46/46/1 48/48/1 49/49/1
f 49/49/1 48/48/1 50/50/1
f 49/49/1 50/50/1 51/51/1
f 49/49/1 51/51/1 52/52/1
f 52/52/1 51/51/1 53/53/1
f 52/52/1 53/53/1 43/43/1
f 43/43/1 53/53/1 3/3/1
f 43/43/1 3/3/1 2/2/1
f 43/43/1 2/2/1 54/54/1
f 43/43/1 54/54/1 44/44/1
f 44/44/1 54/54/1 16/16/1
f 16/16/1 54/54/1 55/55/1
f 16/16/1 55/55/1 56/56/1
f 16/16/1 56/56/1 14/14/1
f 14/14/1 56/56/1 57/57/1
f 57/57/1 56/56/1 58/58/1
f 58/58/1 56/56/1 12/12/1
f 58/58/1 12/12/1 59/59/1
f 59/59/1 12/12/1 60/60/1
f 60/60/1 12/12/1 27/27/1
f 27/27/1 12/12/1 28/28/1
f 28/28/1 12/12/1 61/61/1
f 61/61/1 12/12/1 13/13/1
f 61/61/1 13/13/1 62/62/1
f 61/61/1 62/62/1 63/63/1
f 61/61/1 63/63/1 64/64/1
f 64/64/1 63/63/1 65/65/1
f 65/65/1 63/63/1 66/66/1
f 65/65/1 67/67/1 64/64/1
f 67/67/1 65/65/1 68/68/1
f 69/68/2 70/65/2 71/67/2
f 72/64/2 71/67/2 70/65/2
f 73/66/2 74/63/2 70/65/2
f 70/65/2 74/63/2 72/64/2
f 72/64/2 74/63/2 75/61/2
f 74/63/2 76/62/2 75/61/2
f 76/62/2 77/13/2 75/61/2
f 77/13/2 78/12/2 75/61/2
f 75/61/2 78/12/2 79/28/2
f 79/28/2 78/12/2 80/27/2
f 80/27/2 78/12/2 81/60/2
f 81/60/2 78/12/2 82/59/2
f 82/59/2 78/12/2 83/58/2
f 78/12/2 84/56/2 83/58/2
f 83/58/2 84/56/2 85/57/2
f 85/57/2 84/56/2 86/14/2
f 86/14/2 84/56/2 87/16/2
f 84/56/2 88/55/2 87/16/2
f 88/55/2 89/54/2 87/16/2
f 87/16/2 89/54/2 90/44/2
f 90/44/2 89/54/2 91/43/2
f 89/54/2 92/2/2 91/43/2
f 92/2/2 93/3/2 91/43/2
f 93/3/2 94/53/2 91/43/2
f 91/43/2 94/53/2 95/52/2
f 94/53/2 96/51/2 95/52/2
f 95/52/2 96/51/2 97/49/2
f 96/51/2 98/50/2 97/49/2
f 98/50/2 99/48/2 97/49/2
f 97/49/2 99/48/2 100/46/2
f 99/48/2 101/45/2 100/46/2
f 102/47/2 100/46/2 101/45/2
f 90/44/2 91/43/2 103/41/2
f 91/43/2 104/42/2 103/41/2
f 104/42/2 105/40/2 103/41/2
f 103/41/2 105/40/2 106/39/2
f 105/40/2 107/36/2 106/39/2
f 106/39/2 107/36/2 108/37/2
f 109/38/2 108/37/2 107/36/2
f 110/35/2 111/34/2 112/33/2
f 111/34/2 113/32/2 112/33/2
f 112/33/2 113/32/2 114/31/2
f 113/32/2 115/29/2 114/31/2
f 114/31/2 115/29/2 116/30/2
f 116/30/2 115/29/2 117/26/2
f 115/29/2 79/28/2 117/26/2
f 79/28/2 80/27/2 117/26/2
f 80/27/2 118/25/2 117/26/2
f 117/26/2 118/25/2 119/22/2
f 118/25/2 120/24/2 119/22/2
f 120/24/2 121/23/2 119/22/2
f 121/23/2 122/21/2 119/22/2
f 119/22/2 122/21/2 123/19/2
f 122/21/2 124/20/2 123/19/2
f 124/20/2 125/18/2 123/19/2
f 123/19/2 125/18/2 126/15/2
f 125/18/2 127/17/2 126/15/2
f 127/17/2 86/14/2 126/15/2
f 87/16/2 126/15/2 86/14/2
f 77/13/2 128/11/2 78/12/2
f 78/12/2 128/11/2 129/10/2
f 128/11/2 130/9/2 129/10/2
f 129/10/2 130/9/2 131/8/2
f 130/9/2 132/6/2 131/8/2
f 131/8/2 132/6/2 133/7/2
f 133/7/2 132/6/2 134/5/2
f 132/6/2 135/1/2 134/5/2
f 134/5/2 135/1/2 136/4/2
f 136/4/2 135/1/2 92/2/2
f 93/3/2 92/2/2 135/1/2
f 137/69/3 138/70/3 139/71/3
f 138/70/3 137/69/3 140/72/3
f 141/72/4 142/69/4 143/70/4
f 144/71/4 143/70/4 142/69/4
f 145/73/5 146/74/5 147/75/5
f 146/74/5 145/73/5 148/76/5
f 149/76/6 150/73/6 151/74/6
f 152/75/6 151/74/6 150/73/6
f 153/77/7 154/78/7 155/79/7
f 154/78/7 153/77/7 156/80/7
f 157/80/8 158/77/8 159/78/8
f 160/79/8 159/78/8 158/77/8
f 161/81/9 162/82/9 163/83/9
f 162/82/9 161/81/9 164/84/9
f 165/84/10 166/81/10 167/82/10
f 168/83/10 167/82/10 166/81/10
f 169/85/11 170/86/11 171/87/11
f 170/86/11 169/85/11 172/88/11
f 173/88/12 174/85/12 175/86/12
f 176/87/12 175/86/12 174/85/12
f 177/89/13 178/90/13 179/91/13
f 178/90/13 177/89/13 180/92/13
f 181/92/14 182/89/14 183/90/14
f 184/91/14 183/90/14 182/89/14
f 185/93/15 186/94/15 187/95/15
f 186/94/15 185/93/15 188/96/15
f 189/96/16 190/93/16 191/94/16
f 192/95/16 191/94/16 190/93/16
f 193/97/17 194/98/17 195/99/17
f 194/98/17 193/97/17 196/100/17
f 197/100/18 198/97/18 199/98/18
f 200/99/18 199/98/18 198/97/18
f 201/101/19 202/102/19 203/103/19
f 202/102/19 201/101/19 204/104/19
f 205/104/20 206/101/20 207/102/20
f 208/103/20 207/102/20 206/101/20
f 209/105/21 210/106/21 211/107/21
f 210/106/21 209/105/21 212/108/21
f 213/108/22 214/105/22 215/106/22
f 216/107/22 215/106/22 214/105/22
f 217/109/23 218/110/23 219/111/23
f 218/110/23 217/109/23 220/112/23
f 221/112/24 222/109/24 223/110/24
f 224/111/24 223/110/24 222/109/24
f 225/113/25 226/114/25 227/115/25
f 226/114/25 225/113/25 228/116/25
f 229/116/26 230/113/26 231/114/26
f 232/115/26 231/114/26 230/113/26
f 233/117/27 234/118/27 235/119/27
f 234/118/27 233/117/27 236/120/27
f 237/120/28 238/117/28 239/118/28
f 240/119/28 239/118/28 238/117/28
f 241/121/29 242/122/29 243/123/29
f 242/122/29 241/121/29 244/124/29
f 245/124/30 246/121/30 247/122/30
f 248/123/30 247/122/30 246/121/30
f 249/125/31 250/126/31 251/127/31
f 250/126/31 249/125/31 252/128/31
f 253/128/32 254/125/32 255/126/32
f 256/127/32 255/126/32 254/125/32
f 257/129/33 258/130/33 259/131/33
f 258/130/33 257/129/33 260/132/33
f 261/132/34 262/129/34 263/130/34
f 264/131/34 263/130/34 262/129/34
f 265/133/35 266/134/35 267/135/35
f 266/134/35 265/133/35 268/136/35
f 269/136/36 270/133/36 271/134/36
f 272/135/36 271/134/36 270/133/36
f 273/137/37 274/138/37 275/139/37
f 274/138/37 273/137/37 276/140/37
f 277/140/38 278/137/38 279/138/38
f 280/139/38 279/138/38 278/137/38
f 281/141/39 282/142/39 283/143/39
f 282/142/39 281/141/39 284/144/39
f 285/144/40 286/141/40 287/142/40
f 288/143/40 287/142/40 286/141/40
f 289/145/41 290/146/41 291/147/41
f 290/146/41 289/145/41 292/148/41
f 293/148/42 294/145/42 295/146/42
f 296/147/42 295/146/42 294/145/42
f 297/149/43 298/150/43 299/151/43
f 298/150/43 297/149/43 300/152/43
f 301/152/44 302/149/44 303/150/44
f 304/151/44 303/150/44 302/149/44
f 305/153/45 306/154/45 307/155/45
f 306/154/45 305/153/45 308/156/45
f 309/156/46 310/153/46 311/154/46
f 312/155/46 311/154/46 310/153/46
f 313/157/47 314/158/47 315/159/47
f 314/158/47 313/157/47 316/160/47
f 317/160/48 318/157/48 319/158/48
f 320/159/48 319/158/48 318/157/48
f 321/161/49 322/162/49 323/163/49
f 322/162/49 321/161/49 324/164/49
f 325/164/50 326/161/50 327/162/50
f 328/163/50 327/162/50 326/161/50
f 329/165/51 330/166/51 331/167/51
f 330/166/51 329/165/51 332/168/51
f 333/168/52 334/165/52 335/166/52
f 336/167/52 335/166/52 334/165/52
f 337/169/53 338/170/53 339/171/53
f 338/170/53 337/169/53 340/172/53
f 341/172/54 342/169/54 343/170/54
f 344/171/54 343/170/54 342/169/54
f 345/173/55 346/174/55 347/175/55
f 346/174/55 345/173/55 348/176/55
f 349/176/56 350/173/56 351/174/56
f 352/175/56 351/174/56 350/173/56
f 353/177/57 354/178/57 355/179/57
f 354/178/57 353/177/57 356/180/57
f 357/180/58 358/177/58 359/178/58
f 360/179/58 359/178/58 358/177/58
f 361/181/59 362/182/59 363/183/59
f 362/182/59 361/181/59 364/184/59
f 365/184/60 366/181/60 367/182/60
f 368/183/60 367/182/60 366/181/60
f 369/185/61 370/186/61 371/187/61
f 370/186/61 369/185/61 372/188/61
f 373/188/62 374/185/62 375/186/62
f 376/187/62 375/186/62 374/185/62
f 377/189/63 378/190/63 379/191/63
f 378/190/63 377/189/63 380/192/63
f 381/192/64 382/189/64 383/190/64
f 384/191/64 383/190/64 382/189/64
f 385/193/65 386/194/65 387/195/65
f 386/194/65 385/193/65 388/196/65
f 389/196/66 390/193/66 391/194/66
f 392/195/66 391/194/66 390/193/66
f 393/197/67 394/198/67 395/199/67
f 394/198/67 393/197/67 396/200/67
f 397/200/68 398/197/68 399/198/68
f 400/199/68 399/198/68 398/197/68
f 401/201/69 402/202/69 403/203/69
f 402/202/69 401/201/69 404/204/69
f 405/204/70 406/201/70 407/202/70
f 408/203/70 407/202/70 406/201/70
f 409/205/71 410/206/71 411/207/71
f 410/206/71 409/205/71 412/208/71
f 413/208/72 414/205/72 415/206/72
f 416/207/72 415/206/72 414/205/72
f 417/209/73 418/210/73 419/211/73
f 418/210/73 417/209/73 420/212/73
f 421/212/74 422/209/74 423/210/74
f 424/211/74 423/210/74 422/209/74
f 425/213/75 426/214/75 427/215/75
f 426/214/75 425/213/75 428/216/75
f 429/216/76 430/213/76 431/214/76
f 432/215/76 431/214/76 430/213/76
f 433/217/77 434/218/77 435/219/77
f 434/218/77 433/217/77 436/220/77
f 437/220/78 438/217/78 439/218/78
f 440/219/78 439/218/78 438/217/78
f 441/221/79 442/222/79 443/223/79
f 442/222/79 441/221/79 444/224/79
f 445/224/80 446/221/80 447/222/80
f 448/223/80 447/222/80 446/221/80
f 449/225/81 450/226/81 451/227/81
f 450/226/81 449/225/81 452/228/81
f 453/228/82 454/225/82 455/226/82
f 456/227/82 455/226/82 454/225/82
f 457/229/83 458/230/83 459/231/83
f 458/230/83 457/229/83 460/232/83
f 461/232/84 462/229/84 463/230/84
f 464/231/84 463/230/84 462/229/84
f 465/233/85 466/234/85 467/235/85
f 466/234/85 465/233/85 468/236/85
f 469/236/86 470/233/86 471/234/86
f 472/235/86 471/234/86 470/233/86
f 473/237/87 474/238/87 475/239/87
f 474/238/87 473/237/87 476/240/87
f 477/240/88 478/237/88 479/238/88
f 480/239/88 479/238/88 478/237/88
f 481/241/89 482/242/89 483/243/89
f 482/242/89 481/241/89 484/244/89
f 485/244/90 486/241/90 487/242/90
f 488/243/90 487/242/90 486/241/90
f 489/245/91 490/246/91 491/247/91
f 490/246/91 489/245/91 492/248/91
f 493/248/92 494/245/92 495/246/92
f 496/247/92 495/246/92 494/245/92
f 497/249/2 498/250/2 499/251/2
f 498/250/2 497/249/2 500/252/2
f 500/252/2 497/249/2 501/253/2
f 501/253/2 497/249/2 502/254/2
f 501/253/2 502/254/2 503/255/2
f 503/255/2 502/254/2 504/256/2
f 504/256/2 502/254/2 505/257/2
f 504/256/2 505/257/2 506/258/2
f 506/258/2 505/257/2 507/259/2
f 507/259/2 505/257/2 508/260/2
f 508/260/2 505/257/2 509/261/2
f 508/260/2 509/261/2 510/262/2
f 510/262/2 509/261/2 511/263/2
f 511/263/2 509/261/2 512/264/2
f 512/264/2 509/261/2 513/265/2
f 512/264/2 513/265/2 514/266/2
f 512/264/2 514/266/2 515/267/2
f 515/267/2 514/266/2 516/268/2
f 515/267/2 516/268/2 517/269/2
f 517/269/2 516/268/2 518/270/2
f 519/271/2 520/272/2 521/273/2
f 520/272/2 519/271/2 522/274/2
f 523/275/2 524/276/2 525/277/2
f 524/276/2 523/275/2 526/278/2
f 524/276/2 526/278/2 527/279/2
f 527/279/2 526/278/2 528/280/2
f 527/279/2 528/280/2 529/281/2
f 529/281/2 528/280/2 530/282/2
f 530/282/2 528/280/2 531/283/2
f 530/282/2 531/283/2 532/284/2
f 532/284/2 531/283/2 533/285/2
f 533/285/2 531/283/2 499/251/2
f 533/285/2 499/251/2 534/286/2
f 534/286/2 499/251/2 535/287/2
f 535/287/2 499/251/2 498/250/2
f 535/287/2 498/250/2 536/288/2
f 535/287/2 536/288/2 537/289/2
f 535/287/2 537/289/2 538/290/2
f 538/290/2 537/289/2 539/291/2
f 538/290/2 539/291/2 540/292/2
f 538/290/2 540/292/2 510/262/2
f 538/290/2 510/262/2 511/263/2
f 538/290/2 511/263/2 541/293/2
f 538/290/2 541/293/2 542/294/2
f 542/294/2 541/293/2 543/295/2
f 543/295/2 541/293/2 544/296/2
f 544/296/2 541/293/2 521/273/2
f 544/296/2 521/273/2 520/272/2
f 544/296/2 520/272/2 545/297/2
f 546/298/2 547/299/2 548/47/2
f 547/299/2 546/298/2 549/300/2
f 549/300/2 546/298/2 550/301/2
f 549/300/2 550/301/2 551/302/2
f 551/302/2 550/301/2 552/303/2
f 552/303/2 550/301/2 553/304/2
f 552/303/2 553/304/2 554/305/2
f 554/305/2 553/304/2 530/282/2
f 554/305/2 530/282/2 555/306/2
f 555/306/2 530/282/2 532/284/2
f 555/306/2 532/284/2 556/307/2
f 556/307/2 532/284/2 557/308/2
f 556/307/2 557/308/2 558/309/2
f 556/307/2 558/309/2 559/310/2
f 559/310/2 558/309/2 560/311/2
f 559/310/2 560/311/2 561/312/2
f 559/310/2 561/312/2 562/313/2
f 562/313/2 561/312/2 563/314/2
f 562/313/2 563/314/2 564/315/2
f 564/315/2 563/314/2 538/290/2
f 564/315/2 538/290/2 542/294/2
f 565/294/1 566/290/1 567/315/1
f 566/290/1 568/314/1 567/315/1
f 567/315/1 568/314/1 569/313/1
f 568/314/1 570/312/1 569/313/1
f 569/313/1 570/312/1 571/310/1
f 570/312/1 572/311/1 571/310/1
f 572/311/1 573/309/1 571/310/1
f 571/310/1 573/309/1 574/307/1
f 573/309/1 575/308/1 574/307/1
f 575/308/1 576/284/1 574/307/1
f 574/307/1 576/284/1 577/306/1
f 576/284/1 578/282/1 577/306/1
f 577/306/1 578/282/1 579/305/1
f 578/282/1 580/304/1 579/305/1
f 579/305/1 580/304/1 581/303/1
f 580/304/1 582/301/1 581/303/1
f 581/303/1 582/301/1 583/302/1
f 583/302/1 582/301/1 584/300/1
f 582/301/1 585/298/1 584/300/1
f 584/300/1 585/298/1 586/299/1
f 587/47/1 586/299/1 585/298/1
f 588/297/1 589/272/1 590/296/1
f 589/272/1 591/273/1 590/296/1
f 591/273/1 592/293/1 590/296/1
f 590/296/1 592/293/1 593/295/1
f 593/295/1 592/293/1 565/294/1
f 565/294/1 592/293/1 566/290/1
f 592/293/1 594/263/1 566/290/1
f 594/263/1 595/262/1 566/290/1
f 595/262/1 596/292/1 566/290/1
f 596/292/1 597/291/1 566/290/1
f 597/291/1 598/289/1 566/290/1
f 566/290/1 598/289/1 599/287/1
f 598/289/1 600/288/1 599/287/1
f 600/288/1 601/250/1 599/287/1
f 601/250/1 602/251/1 599/287/1
f 599/287/1 602/251/1 603/286/1
f 603/286/1 602/251/1 604/285/1
f 602/251/1 605/283/1 604/285/1
f 604/285/1 605/283/1 576/284/1
f 576/284/1 605/283/1 578/282/1
f 605/283/1 606/280/1 578/282/1
f 578/282/1 606/280/1 607/281/1
f 607/281/1 606/280/1 608/279/1
f 606/280/1 609/278/1 608/279/1
f 608/279/1 609/278/1 610/276/1
f 609/278/1 611/275/1 610/276/1
f 612/277/1 610/276/1 611/275/1
f 613/274/1 614/271/1 589/272/1
f 591/273/1 589/272/1 614/271/1
f 615/270/1 616/268/1 617/269/1
f 617/269/1 616/268/1 618/267/1
f 616/268/1 619/266/1 618/267/1
f 618/267/1 619/266/1 620/264/1
f 619/266/1 621/265/1 620/264/1
f 621/265/1 622/261/1 620/264/1
f 620/264/1 622/261/1 594/263/1
f 594/263/1 622/261/1 595/262/1
f 595/262/1 622/261/1 623/260/1
f 622/261/1 624/257/1 623/260/1
f 623/260/1 624/257/1 625/259/1
f 625/259/1 624/257/1 626/258/1
f 626/258/1 624/257/1 627/256/1
f 624/257/1 628/254/1 627/256/1
f 627/256/1 628/254/1 629/255/1
f 629/255/1 628/254/1 630/253/1
f 628/254/1 631/249/1 630/253/1
f 630/253/1 631/249/1 632/252/1
f 632/252/1 631/249/1 601/250/1
f 602/251/1 601/250/1 631/249/1
