# SSTK version 0.8.0
# 40
mtllib original-40.mtl
o group_18/ID270#ID270
v -0.18609660 0.25771582 -0.55617278
v -0.17951983 0.26434731 -0.55616682
v -0.15023064 0.25768372 -0.55626856
v -0.18613906 0.27722830 -0.55621924
v -0.17940789 0.27718415 -0.55615429
v -0.17297549 0.27728648 -0.55621575
v -0.16637442 0.26439869 -0.55622339
v -0.17306179 0.26451230 -0.55622780
v -0.16644187 0.27730138 -0.55626179
v -0.15688924 0.26437636 -0.55612451
v -0.15032382 0.27728283 -0.55615495
v -0.15702003 0.27725006 -0.55613304
v -0.15689259 0.27729937 -0.55610560
v -0.15687468 0.26448976 -0.55613052
v -0.15020937 0.27716595 -0.55616205
v -0.16650649 0.26435211 -0.55621507
v -0.17295691 0.26431866 -0.55609769
v -0.17942038 0.26445073 -0.55616968
v -0.15025575 0.25755940 -0.55624948
v -0.16647122 0.27727805 -0.55620525
v -0.17306346 0.27726768 -0.55618234
v -0.17955852 0.27721648 -0.55620405
v -0.18615456 0.27726259 -0.55627349
v -0.18616806 0.25771141 -0.55611749
v -0.18610223 0.25761004 -0.55033195
v -0.18612175 0.27715832 -0.55628460
v -0.18618092 0.25770863 -0.55626443
v -0.18617157 0.27726848 -0.55028956
v -0.18613724 0.27727136 -0.55034340
v -0.18629153 0.25758017 -0.55042254
v -0.18611112 0.27732401 -0.55615568
v -0.18623435 0.25769347 -0.55617013
v -0.18615239 0.27732110 -0.55616070
v -0.17953720 0.27718072 -0.55037625
v -0.17943701 0.27715855 -0.55610768
v -0.18621488 0.27732823 -0.55029430
v -0.18615998 0.27719962 -0.55036455
v -0.18626926 0.27729093 -0.55624131
v -0.17945725 0.27717053 -0.55024621
v -0.17940258 0.27721049 -0.55613669
v -0.17940473 0.27732229 -0.55022510
v -0.17949497 0.26431880 -0.55613698
v -0.17952416 0.27726541 -0.55623614
v -0.17942099 0.26434441 -0.55036011
v -0.17941981 0.26434128 -0.55036660
v -0.17943087 0.27732259 -0.55028678
v -0.17953736 0.26449693 -0.55622872
v -0.17955178 0.27715564 -0.55609806
v -0.17959216 0.26442810 -0.55624063
v -0.17297794 0.26439132 -0.55041468
v -0.17307099 0.26432542 -0.55616562
v -0.17951532 0.26445820 -0.55039590
v -0.17953864 0.26448114 -0.55026292
v -0.17955614 0.26438114 -0.55623077
v -0.17300943 0.26449996 -0.55034473
v -0.17290257 0.26436767 -0.55611608
v -0.17292051 0.26441844 -0.55023351
v -0.17295830 0.27726924 -0.55612517
v -0.17295149 0.26431603 -0.55611177
v -0.17294560 0.27724309 -0.55040499
v -0.17299673 0.27725193 -0.55041793
v -0.17294114 0.26449448 -0.55032068
v -0.17296995 0.27730973 -0.55621117
v -0.17298502 0.26450822 -0.55629293
v -0.17298963 0.27722566 -0.55618702
v -0.16650586 0.27722458 -0.55025885
v -0.16651810 0.27722313 -0.55616056
v -0.17305802 0.27726903 -0.55029954
v -0.17302397 0.27725353 -0.55036028
v -0.17308090 0.27725674 -0.55626751
v -0.16649416 0.27718780 -0.55035119
v -0.16648942 0.27721373 -0.55617372
v -0.16642188 0.27722249 -0.55025618
v -0.16641073 0.26450374 -0.55618361
v -0.16634384 0.27715078 -0.55619000
v -0.16643275 0.26440169 -0.55034500
v -0.16643775 0.26451440 -0.55033505
v -0.16642235 0.27716752 -0.55035398
v -0.16652312 0.26433476 -0.55610408
v -0.16642678 0.27727011 -0.55614403
v -0.16648753 0.26447257 -0.55616205
v -0.15691821 0.26433190 -0.55035687
v -0.15703561 0.26442150 -0.55620801
v -0.16640732 0.26442366 -0.55040933
v -0.16638546 0.26445308 -0.55032601
v -0.16639260 0.26441418 -0.55610648
v -0.15689943 0.26434847 -0.55037062
v -0.15696286 0.26436365 -0.55626472
v -0.15700062 0.26450178 -0.55037108
v -0.15695226 0.27732413 -0.55619967
v -0.15699046 0.26432284 -0.55622774
v -0.15694221 0.27718983 -0.55042379
v -0.15692365 0.27725281 -0.55023829
v -0.15689198 0.26444821 -0.55022888
v -0.15689950 0.27715383 -0.55616145
v -0.15706592 0.26438571 -0.55618602
v -0.15688251 0.27730143 -0.55620334
v -0.15019252 0.27726651 -0.55036180
v -0.15034382 0.27719257 -0.55620876
v -0.15700301 0.27717756 -0.55032294
v -0.15701914 0.27717032 -0.55027049
v -0.15696765 0.27720695 -0.55627961
v -0.15025329 0.27721277 -0.55041798
v -0.15024685 0.27729468 -0.55611364
v -0.15016967 0.27733016 -0.55026443
v -0.15028908 0.25767010 -0.55629132
v -0.15027282 0.27725690 -0.55618557
v -0.15022092 0.25761160 -0.55034288
v -0.15027532 0.25754962 -0.55034648
v -0.15032983 0.27730700 -0.55032606
v -0.15035170 0.25762774 -0.55614616
v -0.15026645 0.27733295 -0.55624947
v -0.18616485 0.25764317 -0.55035955
v -0.15034050 0.25769656 -0.55620955
v -0.15028699 0.25771172 -0.55030692
v -0.18627938 0.25763046 -0.55611609
v -0.18619533 0.25753929 -0.55624076
v -0.18617208 0.25755892 -0.55027438
v -0.15028801 0.25769506 -0.55614916
v -0.15028103 0.25756256 -0.55041159
v -0.15028245 0.25766554 -0.55032040
v -0.15707044 0.26434490 -0.55042417
v -0.18610921 0.25756332 -0.55032706
v -0.15022263 0.27718411 -0.55041233
v -0.15693693 0.27730220 -0.55033985
v -0.16644150 0.27720088 -0.55039447
v -0.17298710 0.26450413 -0.55022830
v -0.16637907 0.26434116 -0.55027679
v -0.17301530 0.27725212 -0.55028800
v -0.17949001 0.26442193 -0.55034029
v -0.18621861 0.27719685 -0.55030059
v -0.17945332 0.27720264 -0.55041962
v -0.17957187 0.27729318 -0.55024436
v -0.17949102 0.26439282 -0.55024806
v -0.18625292 0.27733445 -0.55026636
v -0.17296709 0.26437800 -0.55027590
v -0.16633736 0.26449548 -0.55036860
v -0.15687729 0.26448112 -0.55035304
v -0.18626941 0.25759009 -0.55038771
v -0.17297064 0.27720435 -0.55038232
v -0.16636314 0.27720922 -0.55031271
v -0.15689334 0.27730609 -0.55039418
v -0.15015851 0.27721081 -0.55038086
v -0.15034204 0.25770980 -0.55029061
vt 0 0.2441518
vt -0.04614155 0.1986742
vt 0 0
vt -0.1332794 0.2441518
vt -0.1332794 0.1986742
vt -0.1332794 0.1545244
vt -0.04614155 0.1098766
vt -0.04614155 0.1545244
vt -0.1332794 0.1098766
vt -0.04614155 0.04564362
vt -0.1332794 0
vt -0.1332794 0.04564362
vt 0 0.04249006
vt -0.1332794 0.04249006
vt 0.2441518 0
vt 0.1986742 0.04249006
vt 0.1986742 0
vt 0.2441518 0.04249006
vt 0.1332794 0.04249006
vt 0.04614155 0
vt 0.1332794 0
vt 0.04614155 0.04249006
vt 0.1545244 0.04249006
vt 0.1545244 0
vt -0.04614155 0.04249006
vt -0.04614155 0
vt 0.1098766 0.04249006
vt 0.1098766 0
vt 0.04564362 0.04249006
vt 0.04564362 0
vt -0.2441518 0.04249006
vt -0.2441518 0
vt 0.04614155 0.04564362
vt 0.1332794 0.04564362
vt 0.1332794 0.1098766
vt 0.04614155 0.1545244
vt 0.04614155 0.1098766
vt 0.1332794 0.1545244
vt 0.04614155 0.1986742
vt 0.1332794 0.2441518
vt 0.1332794 0.1986742
vn 0 -3.597456311981438e-8 -1
vn 0 3.597456311981438e-8 1
vn -1 0 0
vn 1 0 0
vn 0 1 -3.597456311981437e-8
vn 0 -1 3.597456311981437e-8
usemtl material_0_0
f 1/1/1 2/2/1 3/3/1
f 2/2/1 1/1/1 4/4/1
f 2/2/1 4/4/1 5/5/1
f 6/6/1 7/7/1 8/8/1
f 7/7/1 6/6/1 9/9/1
f 3/3/1 10/10/1 11/11/1
f 10/10/1 3/3/1 2/2/1
f 10/10/1 2/2/1 8/8/1
f 10/10/1 8/8/1 7/7/1
f 11/11/1 10/10/1 12/12/1
f 13/12/2 14/10/2 15/11/2
f 16/7/2 17/8/2 14/10/2
f 17/8/2 18/2/2 14/10/2
f 18/2/2 19/3/2 14/10/2
f 15/11/2 14/10/2 19/3/2
f 20/9/2 21/6/2 16/7/2
f 17/8/2 16/7/2 21/6/2
f 22/5/2 23/4/2 18/2/2
f 23/4/2 24/1/2 18/2/2
f 19/3/2 18/2/2 24/1/2
f 25/13/3 26/11/3 27/3/3
f 26/11/3 25/13/3 28/14/3
f 29/14/4 30/13/4 31/11/4
f 32/3/4 31/11/4 30/13/4
f 33/15/5 34/16/5 35/17/5
f 34/16/5 33/15/5 36/18/5
f 37/18/6 38/15/6 39/16/6
f 40/17/6 39/16/6 38/15/6
f 41/19/4 42/20/4 43/21/4
f 42/20/4 41/19/4 44/22/4
f 45/22/3 46/19/3 47/20/3
f 48/21/3 47/20/3 46/19/3
f 49/17/5 50/23/5 51/24/5
f 50/23/5 49/17/5 52/16/5
f 53/16/6 54/17/6 55/23/6
f 56/24/6 55/23/6 54/17/6
f 57/25/3 58/11/3 59/26/3
f 58/11/3 57/25/3 60/14/3
f 61/14/4 62/25/4 63/11/4
f 64/26/4 63/11/4 62/25/4
f 65/24/5 66/27/5 67/28/5
f 66/27/5 65/24/5 68/23/5
f 69/23/6 70/24/6 71/27/6
f 72/28/6 71/27/6 70/24/6
f 73/19/4 74/20/4 75/21/4
f 74/20/4 73/19/4 76/22/4
f 77/22/3 78/19/3 79/20/3
f 80/21/3 79/20/3 78/19/3
f 81/28/5 82/29/5 83/30/5
f 82/29/5 81/28/5 84/27/5
f 85/27/6 86/28/6 87/29/6
f 88/30/6 87/29/6 86/28/6
f 89/25/3 90/11/3 91/26/3
f 90/11/3 89/25/3 92/14/3
f 93/14/4 94/25/4 95/11/4
f 96/26/4 95/11/4 94/25/4
f 97/30/5 98/13/5 99/3/5
f 98/13/5 97/30/5 100/29/5
f 101/29/6 102/30/6 103/13/6
f 104/3/6 103/13/6 102/30/6
f 105/19/4 106/3/4 107/21/4
f 106/3/4 105/19/4 108/13/4
f 109/13/3 110/19/3 111/3/3
f 112/21/3 111/3/3 110/19/3
f 113/31/6 114/3/6 115/13/6
f 114/3/6 113/31/6 116/32/6
f 117/32/5 118/31/5 119/3/5
f 120/13/5 119/3/5 118/31/5
f 121/3/2 122/33/2 123/1/2
f 122/33/2 121/3/2 124/21/2
f 122/33/2 124/21/2 125/34/2
f 126/35/2 127/36/2 128/37/2
f 127/36/2 126/35/2 129/38/2
f 123/1/2 130/39/2 131/40/2
f 130/39/2 123/1/2 122/33/2
f 130/39/2 122/33/2 128/37/2
f 130/39/2 128/37/2 127/36/2
f 131/40/2 130/39/2 132/41/2
f 133/41/1 134/39/1 135/40/1
f 136/36/1 137/37/1 134/39/1
f 137/37/1 138/33/1 134/39/1
f 138/33/1 139/1/1 134/39/1
f 135/40/1 134/39/1 139/1/1
f 140/38/1 141/35/1 136/36/1
f 137/37/1 136/36/1 141/35/1
f 142/34/1 143/21/1 138/33/1
f 143/21/1 144/3/1 138/33/1
f 139/1/1 138/33/1 144/3/1
