# SSTK version 0.8.0
# 64
mtllib original-64.mtl
o group_6/ID120#ID120
v 0.18565009 0.62400018 0.25212399
v 0.14693799 0.62401108 0.23209901
v 0.18061809 0.62397950 0.25855691
v 0.15170293 0.62396882 0.22606089
v 0.16349084 0.62406149 0.23481569
v 0.18525620 0.62406636 0.22897640
v 0.19687104 0.62391947 0.23776786
v 0.16304133 0.62395124 0.21154075
v 0.16806278 0.62388935 0.20509010
v 0.20176627 0.62407571 0.23161507
v 0.20179223 0.62404331 0.23143796
v 0.19696580 0.62407345 0.23769506
v 0.16806018 0.62392623 0.20513211
v 0.16305442 0.62401327 0.21159056
v 0.18516818 0.62406104 0.22898359
v 0.16359989 0.62408464 0.23487942
v 0.15177559 0.62401299 0.22597106
v 0.18576887 0.62394232 0.25203741
v 0.14695670 0.62403394 0.23218650
v 0.18066472 0.62393518 0.25847373
v 0.14696492 0.62402703 0.23217477
v 0.15183565 0.61816106 0.22599910
v 0.14684756 0.61819444 0.23223845
v 0.15167580 0.62392585 0.22599200
v 0.15167902 0.62407917 0.22599693
v 0.14700434 0.62399186 0.23226944
v 0.15165788 0.61804426 0.22593279
v 0.14685390 0.61817818 0.23211066
v 0.14696374 0.62408572 0.23211588
v 0.18068695 0.61806592 0.25845140
v 0.18062814 0.62395672 0.25848397
v 0.14699799 0.61809213 0.23223898
v 0.14700306 0.61819414 0.23220697
v 0.14699585 0.62397499 0.23224177
v 0.18059861 0.61806279 0.25855356
v 0.18073418 0.62403395 0.25853150
v 0.18580137 0.62397555 0.25206929
v 0.18077672 0.61811516 0.25848523
v 0.18570232 0.61810476 0.25213924
v 0.18064442 0.62404607 0.25855867
v 0.18073758 0.62400907 0.25852289
v 0.18578922 0.62402812 0.25210948
v 0.18078115 0.61817125 0.25855060
v 0.18576970 0.61817649 0.25201844
v 0.16364836 0.61803160 0.23490117
v 0.18576694 0.62393663 0.25203770
v 0.18575000 0.61811891 0.25212317
v 0.16363638 0.62396021 0.23484598
v 0.16360149 0.62400020 0.23473588
v 0.16365372 0.61805082 0.23482254
v 0.18578866 0.62403736 0.25208005
v 0.18565450 0.61818848 0.25206385
v 0.16351658 0.62397358 0.23476910
v 0.19692193 0.61814905 0.23770952
v 0.19698009 0.62390929 0.23778646
v 0.16351377 0.61807444 0.23478579
v 0.16355543 0.61806262 0.23478123
v 0.16352416 0.62406472 0.23478383
v 0.19704651 0.61802007 0.23769274
v 0.19704283 0.62403709 0.23775565
v 0.20182849 0.62393260 0.23159866
v 0.19691692 0.61802768 0.23768338
v 0.20177057 0.61810934 0.23154425
v 0.19687697 0.62399118 0.23763905
v 0.19699540 0.62402964 0.23764821
v 0.20177431 0.62400436 0.23148093
v 0.19694171 0.61804759 0.23771980
v 0.20180410 0.61818070 0.23154564
v 0.16811984 0.61811826 0.20516974
v 0.20174142 0.62405957 0.23159885
v 0.20174420 0.61817528 0.23143280
v 0.16796497 0.62401975 0.20520571
v 0.16809378 0.62390315 0.20522491
v 0.16797269 0.61805975 0.20507936
v 0.20170790 0.62398982 0.23154986
v 0.20173671 0.61808212 0.23152809
v 0.16311192 0.62400215 0.21158535
v 0.16797752 0.61806873 0.20517147
v 0.16302324 0.61811935 0.21149287
v 0.16802229 0.62389538 0.20507263
v 0.16813905 0.62392075 0.20509125
v 0.16306107 0.62394009 0.21152762
v 0.16804714 0.61806670 0.20516994
v 0.16295238 0.61804262 0.21160381
v 0.16308024 0.62403949 0.21166027
v 0.18529317 0.61809360 0.22891236
v 0.18520345 0.62394409 0.22900509
v 0.16304886 0.61806959 0.21149248
v 0.16304865 0.61803450 0.21158471
v 0.16299650 0.62397929 0.21164022
v 0.18527400 0.61815983 0.22891707
v 0.18527199 0.62404262 0.22888588
v 0.15180224 0.61816803 0.22592986
v 0.18528950 0.62407007 0.22901820
v 0.18531570 0.61805053 0.22898074
v 0.15179340 0.62396971 0.22603671
v 0.15168882 0.62389337 0.22611636
v 0.15177887 0.61803687 0.22597390
v 0.18530358 0.62391255 0.22897763
v 0.18520987 0.61812716 0.22888412
v 0.16810538 0.61815288 0.20518684
v 0.18530948 0.61811677 0.22883521
v 0.16307723 0.61804947 0.21153543
v 0.19700237 0.61808846 0.23778910
v 0.20187573 0.61821144 0.23150207
v 0.16358828 0.61817305 0.23484584
v 0.15182843 0.61821664 0.22592257
v 0.18062356 0.61805715 0.25850054
v 0.14688370 0.61818950 0.23226038
v 0.18576431 0.61808449 0.25219850
v 0.16358597 0.61801806 0.23484470
v 0.15178922 0.61819575 0.22604438
v 0.18568953 0.61805294 0.25209734
v 0.18060625 0.61803190 0.25857119
v 0.14697650 0.61810946 0.23214867
v 0.19696249 0.61813925 0.23772287
v 0.18522109 0.61802731 0.22895036
v 0.20179901 0.61812633 0.23160021
v 0.16800118 0.61814707 0.20522573
v 0.16306594 0.61821079 0.21159847
vt 0.04182615 0
vt 0 0.2197367
vt 0 0
vt 0.04012229 0.2197367
vt 0.04182615 0.1441508
vt 0.1341424 0.07513769
vt 0.1357319 0
vt 0.1341424 0.2197367
vt 0.1759686 0.2197367
vt 0.1759686 0
vt 0 0.04249006
vt -0.04012229 0
vt -0.04012229 0.04249006
vt -0.2197367 0.04249006
vt -0.2197367 0
vt 0.04182615 0.04249006
vt 0.1441508 0
vt 0.1441508 0.04249006
vt -0.0979525 0.04249006
vt 0.07408749 0
vt 0.07408749 0.04249006
vt -0.0979525 0
vt 0.1759686 0.04249006
vt 0.1357319 0.04249006
vt 0.2197367 0
vt 0.2197367 0.04249006
vt -0.1341424 0.04249006
vt -0.1759686 0
vt -0.1341424 0
vt -0.1759686 0.04249006
vt -0.07513769 0
vt -0.07513769 0.04249006
vt 0.1623476 0
vt -0.01013033 0.04249006
vt -0.01013033 0
vt 0.1623476 0.04249006
vt -0.1759686 0.2197367
vt -0.1341424 0.07513769
vt -0.1341424 0.2197367
vt -0.1357319 0
vt -0.04182615 0.1441508
vt -0.04012229 0.2197367
vt -0.04182615 0
vn 0 1 -3.597456166293248e-8
vn 0 -1 3.597456166293248e-8
vn -0.7879427255357788 -2.2151286753887337e-8 -0.6157485373715863
vn 0.7879427255357788 2.2151286753887337e-8 0.6157485373715863
vn -0.6155743961890164 2.8350788679930842e-8 0.7880787795369998
vn 0.6155743961890164 -2.8350788679930842e-8 -0.7880787795369998
vn -0.0857127771818583 3.584217293529219e-8 0.9963198883028341
vn 0.0857127771818583 -3.584217293529219e-8 -0.9963198883028341
vn 0.08657198976181867 -3.583950035496315e-8 -0.9962455975253685
vn -0.08657198976181867 3.583950035496315e-8 0.9962455975253685
usemtl material_0_0
f 1/1/1 2/2/1 3/3/1
f 2/2/1 1/1/1 4/4/1
f 4/4/1 1/1/1 5/5/1
f 4/4/1 5/5/1 6/6/1
f 6/6/1 5/5/1 7/7/1
f 6/6/1 7/7/1 8/8/1
f 8/8/1 7/7/1 9/9/1
f 9/9/1 7/7/1 10/10/1
f 11/10/2 12/7/2 13/9/2
f 13/9/2 12/7/2 14/8/2
f 14/8/2 12/7/2 15/6/2
f 12/7/2 16/5/2 15/6/2
f 15/6/2 16/5/2 17/4/2
f 16/5/2 18/1/2 17/4/2
f 17/4/2 18/1/2 19/2/2
f 20/3/2 19/2/2 18/1/2
f 21/11/3 22/12/3 23/3/3
f 22/12/3 21/11/3 24/13/3
f 25/13/4 26/11/4 27/12/4
f 28/3/4 27/12/4 26/11/4
f 29/14/5 30/3/5 31/11/5
f 30/3/5 29/14/5 32/15/5
f 33/15/6 34/14/6 35/3/6
f 36/11/6 35/3/6 34/14/6
f 37/16/4 38/3/4 39/1/4
f 38/3/4 37/16/4 40/11/4
f 41/11/3 42/16/3 43/3/3
f 44/1/3 43/3/3 42/16/3
f 45/17/6 46/11/6 47/3/6
f 46/11/6 45/17/6 48/18/6
f 49/18/5 50/17/5 51/11/5
f 52/3/5 51/11/5 50/17/5
f 53/19/7 54/20/7 55/21/7
f 54/20/7 53/19/7 56/22/7
f 57/22/8 58/19/8 59/20/8
f 60/21/8 59/20/8 58/19/8
f 61/23/4 62/7/4 63/10/4
f 62/7/4 61/23/4 64/24/4
f 65/24/3 66/23/3 67/7/3
f 68/10/3 67/7/3 66/23/3
f 69/25/6 70/11/6 71/3/6
f 70/11/6 69/25/6 72/26/6
f 73/26/5 74/25/5 75/11/5
f 76/3/5 75/11/5 74/25/5
f 77/27/3 78/28/3 79/29/3
f 78/28/3 77/27/3 80/30/3
f 81/30/4 82/27/4 83/28/4
f 84/29/4 83/28/4 82/27/4
f 85/14/5 86/31/5 87/32/5
f 86/31/5 85/14/5 88/15/5
f 89/15/6 90/14/6 91/31/6
f 92/32/6 91/31/6 90/14/6
f 93/33/9 94/34/9 95/35/9
f 94/34/9 93/33/9 96/36/9
f 97/36/10 98/33/10 99/34/10
f 100/35/10 99/34/10 98/33/10
f 101/37/2 102/38/2 103/39/2
f 102/38/2 101/37/2 104/40/2
f 104/40/2 101/37/2 105/28/2
f 102/38/2 106/41/2 107/42/2
f 106/41/2 102/38/2 104/40/2
f 107/42/2 108/3/2 109/2/2
f 108/3/2 107/42/2 110/43/2
f 110/43/2 107/42/2 106/41/2
f 111/41/1 112/42/1 113/43/1
f 113/43/1 112/42/1 114/3/1
f 115/2/1 114/3/1 112/42/1
f 116/40/1 117/38/1 111/41/1
f 112/42/1 111/41/1 117/38/1
f 118/28/1 119/37/1 116/40/1
f 116/40/1 119/37/1 117/38/1
f 120/39/1 117/38/1 119/37/1
