# SSTK version 0.8.0
# 7
mtllib original-7.mtl
o #ID39
v 0.02879182 0.93708459 -0.02075057
v 0.02874070 0.93714907 -0.00458617
v 0.02971672 0.93703081 -0.01263987
v 0.02553549 0.93701635 -0.02836886
v 0.02560366 0.93708683 0.00289119
v 0.02060780 0.93706047 -0.03481614
v 0.02054678 0.93713600 0.00935390
v 0.01421010 0.93709822 -0.03982531
v 0.01419272 0.93715047 0.01448100
v 0.00652812 0.93716121 -0.04298784
v 0.00647491 0.93699815 0.01753252
v -0.00156929 0.93713966 -0.04414579
v -0.00155064 0.93703121 0.01860762
v -0.00964880 0.93697974 -0.04299895
v -0.00969295 0.93709991 0.01747163
v -0.01726882 0.93711312 -0.03979478
v -0.01719117 0.93697557 0.01434306
v -0.02365525 0.93711172 -0.03481971
v -0.02373261 0.93710215 0.00940944
v -0.02872363 0.93703841 -0.02837927
v -0.02864827 0.93709167 0.00298875
v -0.03186051 0.93711047 -0.02090885
v -0.03184977 0.93706341 -0.00467005
v -0.03281663 0.93700106 -0.01277769
v -0.03293613 0.93704596 -0.01274866
v -0.03179993 0.93700073 -0.02083915
v -0.03192566 0.93703346 -0.00470021
v -0.02876069 0.93713535 0.00285446
v -0.02879158 0.93706213 -0.02845874
v -0.02364976 0.93712615 0.00937259
v -0.02367196 0.93699514 -0.03480810
v -0.01719127 0.93706452 0.01442946
v -0.01724194 0.93714958 -0.03995532
v -0.00960255 0.93714052 0.01746550
v -0.00961633 0.93707152 -0.04297083
v -0.00164610 0.93716072 0.01859830
v -0.00157634 0.93716949 -0.04400057
v 0.00662967 0.93713492 0.01760867
v 0.00647867 0.93699976 -0.04294974
v 0.01412095 0.93701582 0.01435503
v 0.01410447 0.93698878 -0.03987153
v 0.02066096 0.93708143 0.00953000
v 0.02058537 0.93699253 -0.03480428
v 0.02554383 0.93709952 0.00289728
v 0.02564684 0.93703704 -0.02830568
v 0.02878287 0.93704916 -0.00464996
v 0.02875919 0.93711832 -0.02075481
v 0.02986868 0.93709907 -0.01270758
v 0.02564452 0.93712024 0.00294478
v 0.02879267 0.87538029 -0.00465427
v 0.02868818 0.93714308 -0.00469044
v 0.02567245 0.87539771 0.00290397
v 0.02568389 0.87544533 0.00296306
v 0.02567285 0.93714264 0.00290839
v 0.02879822 0.87539283 -0.00466916
v 0.02880536 0.93704395 -0.00468670
v 0.02879711 0.93713462 -0.00465444
v 0.02975957 0.87532578 -0.01281378
v 0.02987057 0.93715993 -0.01278691
v 0.02879846 0.87548344 -0.00457386
v 0.02879012 0.87541077 -0.00463556
v 0.02880841 0.93715895 -0.00451302
v 0.02986516 0.87549242 -0.01280744
v 0.02974323 0.93705584 -0.01280777
v 0.02971249 0.93715802 -0.01270601
v 0.02881018 0.87544339 -0.02077889
v 0.02863985 0.93698524 -0.02089648
v 0.02977733 0.87535449 -0.01273795
v 0.02979124 0.87544092 -0.01281557
v 0.02972685 0.93711504 -0.01264353
v 0.02879916 0.87536009 -0.02078334
v 0.02881490 0.93711888 -0.02078464
v 0.02876604 0.93705283 -0.02086283
v 0.02561540 0.87542259 -0.02839028
v 0.02566122 0.93705972 -0.02837893
v 0.02881867 0.87536672 -0.02090944
v 0.02869300 0.87533795 -0.02091640
v 0.02864463 0.93700318 -0.02084122
v 0.02563090 0.87536254 -0.02830977
v 0.02557957 0.93709433 -0.02840714
v 0.02553457 0.93715044 -0.02843507
v 0.02050975 0.87541013 -0.03487015
v 0.02051331 0.93704991 -0.03495377
v 0.02548945 0.87543543 -0.02830302
v 0.02552849 0.87538981 -0.02832122
v 0.02550136 0.93707998 -0.02840772
v 0.02065588 0.87530576 -0.03482863
v 0.02067500 0.93716647 -0.03489188
v 0.01414232 0.93702760 -0.03980758
v 0.02066004 0.87545214 -0.03495900
v 0.01412233 0.87544879 -0.03984550
v 0.02054355 0.93698012 -0.03481163
v 0.02068447 0.93710092 -0.03483762
v 0.01410910 0.93711134 -0.03993840
v 0.02057903 0.87529929 -0.03482839
v 0.01419471 0.87540620 -0.03978270
v 0.00651121 0.93701347 -0.04300763
v 0.01409127 0.87539345 -0.03982163
v 0.00658786 0.87543160 -0.04301591
v 0.01420770 0.93699156 -0.03984087
v 0.01416985 0.93705409 -0.03996915
v 0.00652005 0.93711261 -0.04300203
v 0.01403284 0.87534293 -0.03980439
v 0.00660045 0.87548957 -0.04310684
v -0.00160728 0.93705517 -0.04414514
v 0.00659981 0.87531323 -0.04291785
v -0.00147365 0.87537901 -0.04407989
v 0.00656829 0.93714660 -0.04293578
v 0.00659861 0.93711998 -0.04308587
v -0.00163518 0.93710828 -0.04407618
v 0.00648150 0.87542886 -0.04297926
v -0.00158355 0.87548819 -0.04401777
v -0.00967215 0.93716044 -0.04300447
v -0.00150014 0.87534420 -0.04411994
v -0.00958492 0.87539061 -0.04301580
v -0.00152924 0.93714638 -0.04410787
v -0.00161797 0.93700677 -0.04402907
v -0.00974991 0.93707206 -0.04307248
v -0.00150652 0.87531333 -0.04401481
v -0.00962654 0.87541714 -0.04307588
v -0.01714438 0.93700196 -0.03996691
v -0.00973030 0.87531220 -0.04300685
v -0.01729039 0.87534626 -0.03986947
v -0.00975948 0.93701906 -0.04298639
v -0.00974281 0.93706357 -0.04294519
v -0.01721118 0.93708481 -0.03981889
v -0.00969262 0.87529710 -0.04296140
v -0.01719683 0.87543294 -0.03989553
v -0.02376979 0.93708550 -0.03492463
v -0.01733411 0.87543435 -0.03989235
v -0.02363317 0.87533666 -0.03489920
v -0.01720544 0.93706235 -0.03985332
v -0.01722633 0.93705586 -0.03978967
v -0.02372030 0.93706018 -0.03484739
v -0.01728564 0.87532939 -0.03993216
v -0.02367867 0.87546890 -0.03494407
v -0.02864860 0.87544211 -0.02830315
v -0.02378461 0.93712403 -0.03488897
v -0.02365440 0.87530821 -0.03488104
v -0.02867740 0.93698483 -0.02837252
v -0.02875683 0.93714641 -0.02846006
v -0.02872282 0.87547297 -0.02841749
v -0.02381098 0.93704625 -0.03492030
v -0.02369895 0.87537086 -0.03483344
v -0.03180431 0.87534572 -0.02092119
v -0.02866516 0.93702139 -0.02846093
v -0.02880610 0.87531160 -0.02840242
v -0.03180680 0.93713461 -0.02087136
v -0.03183709 0.93716437 -0.02080951
v -0.03189106 0.87541947 -0.02082919
v -0.02864690 0.93698505 -0.02841910
v -0.02873864 0.87540760 -0.02848166
v -0.03289717 0.87530393 -0.01266047
v -0.03185331 0.93702522 -0.02090984
v -0.03184612 0.87534821 -0.02077860
v -0.03284836 0.93704406 -0.01282367
v -0.03295119 0.93705032 -0.01274892
v -0.03281907 0.87539165 -0.01272386
v -0.03192721 0.93711290 -0.02082496
v -0.03184297 0.87536529 -0.02079430
v -0.03177350 0.87530810 -0.00469153
v -0.03292476 0.93698533 -0.01278061
v -0.03286979 0.87536649 -0.01264306
v -0.03185364 0.93703974 -0.00467649
v -0.03186559 0.93712707 -0.00466186
v -0.03181692 0.87541022 -0.00462179
v -0.03287925 0.93699430 -0.01279053
v -0.03287716 0.87538755 -0.01267997
v -0.02862753 0.87533118 0.00300944
v -0.03186007 0.93708256 -0.00455912
v -0.03187944 0.87536184 -0.00457802
v -0.02872206 0.93705060 0.00299136
v -0.02863595 0.93714404 0.00293706
v -0.02870157 0.87538898 0.00297001
v -0.03186961 0.93703458 -0.00461514
v -0.03182797 0.87545188 -0.00457206
v -0.02371829 0.87535594 0.00936485
v -0.02873730 0.93709501 0.00295389
v -0.02869657 0.87530981 0.00297966
v -0.02376483 0.93699788 0.00948649
v -0.02367176 0.93714189 0.00934984
v -0.02376311 0.87548233 0.00942035
v -0.02870572 0.93712958 0.00301886
v -0.02862620 0.87547977 0.00295280
v -0.01719253 0.93715918 0.01435604
v -0.02374996 0.87534475 0.00953930
v -0.01718342 0.87533663 0.01449691
v -0.02375376 0.93697438 0.00945420
v -0.02364615 0.93704600 0.00951661
v -0.01724174 0.93707032 0.01435107
v -0.02366835 0.87534128 0.00936982
v -0.01726020 0.87542220 0.01442260
v -0.00975387 0.93712813 0.01764957
v -0.01728871 0.87545523 0.01441921
v -0.00969801 0.87547058 0.01765284
v -0.01720317 0.93716824 0.01439787
v -0.01717558 0.93706463 0.01439800
v -0.00974051 0.93708314 0.01756758
v -0.01726855 0.87544290 0.01433117
v -0.00961202 0.87548072 0.01754513
v -0.00155335 0.93707108 0.01853866
v -0.00969495 0.87546077 0.01753519
v -0.00161167 0.87538200 0.01868110
v -0.00960536 0.93698504 0.01750925
v -0.00958681 0.93712888 0.01752365
v -0.00148328 0.93707199 0.01870704
v -0.00976072 0.87543063 0.01763270
v -0.00159172 0.87531038 0.01858028
v 0.00656406 0.93705282 0.01746076
v -0.00148460 0.87544445 0.01872200
v 0.00655563 0.87546256 0.01764102
v -0.00161497 0.93714099 0.01853631
v -0.00149919 0.93700074 0.01869941
v 0.00650495 0.93705677 0.01749071
v -0.00158260 0.87549253 0.01862908
v 0.00662944 0.87535435 0.01759839
v 0.01413197 0.93698865 0.01441626
v 0.00656732 0.87544128 0.01752645
v 0.01402787 0.87544906 0.01435758
v 0.00662388 0.93710430 0.01757100
v 0.00646537 0.93703453 0.01759609
v 0.01404719 0.93715546 0.01443359
v 0.00658529 0.87545940 0.01747855
v 0.01410603 0.87533971 0.01451029
v 0.02062003 0.93701092 0.00948030
v 0.01405752 0.87536113 0.01432819
v 0.02067932 0.87544679 0.00939397
v 0.01403289 0.93715343 0.01436547
v 0.01403888 0.93699921 0.01434182
v 0.02054887 0.93699890 0.00939236
v 0.01415547 0.87530855 0.01438457
v 0.02052760 0.87530259 0.00946158
v 0.02058519 0.93702826 0.00942172
v 0.02561615 0.87547537 0.00303417
v 0.02552810 0.93705931 0.00302770
v 0.02062785 0.87543107 0.00951380
v 0.02065184 0.87543357 0.00938974
v 0.02054600 0.93712157 0.00939100
v 0.02559541 0.87534200 0.00294473
v 0.02551985 0.93705024 0.00288619
vn 0 1 0
vn 0 -1 0
vn 0.9238795391929066 0 0.38268341623423263
vn -0.9238795391929066 0 -0.38268341623423263
vn 0.9914448610250887 0 0.1305261948688555
vn -0.9914448610250887 0 -0.1305261948688555
vn 0.9914448610250887 0 -0.1305261948688555
vn -0.9914448610250887 0 0.1305261948688555
vn 0.9238795391929066 0 -0.38268341623423263
vn -0.9238795391929066 0 0.38268341623423263
vn 0.7933533393698233 0 -0.608761430209528
vn -0.7933533393698233 0 0.608761430209528
vn 0.608761430209528 0 -0.7933533393698233
vn -0.608761430209528 0 0.7933533393698233
vn 0.38268341623423263 0 -0.9238795391929066
vn -0.38268341623423263 0 0.9238795391929066
vn 0.1305261948688555 0 -0.9914448610250887
vn -0.1305261948688555 0 0.9914448610250887
vn -0.1305261948688555 0 -0.9914448610250887
vn 0.1305261948688555 0 0.9914448610250887
vn -0.38268341623423263 0 -0.9238795391929066
vn 0.38268341623423263 0 0.9238795391929066
vn -0.608761430209528 0 -0.7933533393698233
vn 0.608761430209528 0 0.7933533393698233
vn -0.7933533393698233 0 -0.608761430209528
vn 0.7933533393698233 0 0.608761430209528
usemtl material_0_0
f 1//1 2//1 3//1
f 2//1 1//1 4//1
f 2//1 4//1 5//1
f 5//1 4//1 6//1
f 5//1 6//1 7//1
f 7//1 6//1 8//1
f 7//1 8//1 9//1
f 9//1 8//1 10//1
f 9//1 10//1 11//1
f 11//1 10//1 12//1
f 11//1 12//1 13//1
f 13//1 12//1 14//1
f 13//1 14//1 15//1
f 15//1 14//1 16//1
f 15//1 16//1 17//1
f 17//1 16//1 18//1
f 17//1 18//1 19//1
f 19//1 18//1 20//1
f 19//1 20//1 21//1
f 21//1 20//1 22//1
f 21//1 22//1 23//1
f 23//1 22//1 24//1
f 25//2 26//2 27//2
f 27//2 26//2 28//2
f 26//2 29//2 28//2
f 28//2 29//2 30//2
f 29//2 31//2 30//2
f 30//2 31//2 32//2
f 31//2 33//2 32//2
f 32//2 33//2 34//2
f 33//2 35//2 34//2
f 34//2 35//2 36//2
f 35//2 37//2 36//2
f 36//2 37//2 38//2
f 37//2 39//2 38//2
f 38//2 39//2 40//2
f 39//2 41//2 40//2
f 40//2 41//2 42//2
f 41//2 43//2 42//2
f 42//2 43//2 44//2
f 43//2 45//2 44//2
f 44//2 45//2 46//2
f 45//2 47//2 46//2
f 48//2 46//2 47//2
f 49//3 50//3 51//3
f 50//3 49//3 52//3
f 53//4 54//4 55//4
f 56//4 55//4 54//4
f 57//5 58//5 59//5
f 58//5 57//5 60//5
f 61//6 62//6 63//6
f 64//6 63//6 62//6
f 65//7 66//7 67//7
f 66//7 65//7 68//7
f 69//8 70//8 71//8
f 72//8 71//8 70//8
f 73//9 74//9 75//9
f 74//9 73//9 76//9
f 77//10 78//10 79//10
f 80//10 79//10 78//10
f 81//11 82//11 83//11
f 82//11 81//11 84//11
f 85//12 86//12 87//12
f 88//12 87//12 86//12
f 89//13 90//13 91//13
f 90//13 89//13 92//13
f 93//14 94//14 95//14
f 96//14 95//14 94//14
f 97//15 98//15 99//15
f 98//15 97//15 100//15
f 101//16 102//16 103//16
f 104//16 103//16 102//16
f 105//17 106//17 107//17
f 106//17 105//17 108//17
f 109//18 110//18 111//18
f 112//18 111//18 110//18
f 113//19 114//19 115//19
f 114//19 113//19 116//19
f 117//20 118//20 119//20
f 120//20 119//20 118//20
f 121//21 122//21 123//21
f 122//21 121//21 124//21
f 125//22 126//22 127//22
f 128//22 127//22 126//22
f 129//23 130//23 131//23
f 130//23 129//23 132//23
f 133//24 134//24 135//24
f 136//24 135//24 134//24
f 137//25 138//25 139//25
f 138//25 137//25 140//25
f 141//26 142//26 143//26
f 144//26 143//26 142//26
f 145//4 146//4 147//4
f 146//4 145//4 148//4
f 149//3 150//3 151//3
f 152//3 151//3 150//3
f 153//6 154//6 155//6
f 154//6 153//6 156//6
f 157//5 158//5 159//5
f 160//5 159//5 158//5
f 161//8 162//8 163//8
f 162//8 161//8 164//8
f 165//7 166//7 167//7
f 168//7 167//7 166//7
f 169//10 170//10 171//10
f 170//10 169//10 172//10
f 173//9 174//9 175//9
f 176//9 175//9 174//9
f 177//12 178//12 179//12
f 178//12 177//12 180//12
f 181//11 182//11 183//11
f 184//11 183//11 182//11
f 185//14 186//14 187//14
f 186//14 185//14 188//14
f 189//13 190//13 191//13
f 192//13 191//13 190//13
f 193//16 194//16 195//16
f 194//16 193//16 196//16
f 197//15 198//15 199//15
f 200//15 199//15 198//15
f 201//18 202//18 203//18
f 202//18 201//18 204//18
f 205//17 206//17 207//17
f 208//17 207//17 206//17
f 209//20 210//20 211//20
f 210//20 209//20 212//20
f 213//19 214//19 215//19
f 216//19 215//19 214//19
f 217//22 218//22 219//22
f 218//22 217//22 220//22
f 221//21 222//21 223//21
f 224//21 223//21 222//21
f 225//24 226//24 227//24
f 226//24 225//24 228//24
f 229//23 230//23 231//23
f 232//23 231//23 230//23
f 233//26 234//26 235//26
f 234//26 233//26 236//26
f 237//25 238//25 239//25
f 240//25 239//25 238//25
