# SSTK version 0.8.0
# 6
mtllib original-6.mtl
o group_3/ID46#ID46
v 0.00821727 0.74391819 0.04330329
v -0.00971181 0.74395296 0.04507959
v -0.00068156 0.74390770 0.04498233
v -0.01862230 0.74402924 0.04309741
v 0.01671356 0.74397849 0.03959964
v -0.02694711 0.74400570 0.03934370
v 0.02402054 0.74387611 0.03417282
v -0.03409546 0.74384527 0.03398620
v 0.03008589 0.74400242 0.02755105
v -0.04012396 0.74389923 0.02726400
v 0.03474353 0.74388374 0.01977986
v -0.04479345 0.74383056 0.01935565
v 0.03757650 0.74390107 0.01109618
v -0.04747272 0.74395004 0.01055190
v 0.03860929 0.74389211 0.00211868
v -0.04842904 0.74393674 0.00148078
v 0.03773047 0.74393409 -0.00704830
v -0.04729881 0.74384920 -0.00754488
v 0.03491841 0.74385063 -0.01568160
v -0.04450324 0.74393651 -0.01602313
v 0.03036871 0.74385822 -0.02350794
v -0.03995616 0.74400887 -0.02385513
v 0.02430328 0.74387795 -0.03026711
v -0.03380571 0.74395633 -0.03062061
v 0.01710542 0.74399617 -0.03582489
v -0.02647064 0.74389674 -0.03598069
v 0.00869460 0.74387374 -0.03944833
v -0.01814960 0.74398877 -0.03959630
v -0.00023715 0.74395211 -0.04147098
v -0.00924869 0.74398483 -0.04150980
v -0.00920586 0.74384378 -0.04143360
v -0.00023464 0.74390482 -0.04145680
v -0.01818337 0.74389364 -0.03969622
v 0.00872423 0.74385807 -0.03952481
v -0.02652690 0.74396953 -0.03598203
v 0.01705703 0.74398335 -0.03567952
v -0.03387922 0.74395875 -0.03070039
v 0.02430353 0.74393675 -0.03032848
v -0.03989640 0.74393273 -0.02396140
v 0.03037792 0.74401577 -0.02349670
v -0.04445374 0.74385575 -0.01600873
v 0.03490391 0.74402859 -0.01571984
v -0.04744824 0.74387240 -0.00737719
v 0.03771038 0.74392853 -0.00711398
v -0.04830707 0.74393126 0.00147116
v 0.03853900 0.74396534 0.00209298
v -0.04756328 0.74402505 0.01053233
v 0.03754095 0.74383338 0.01096747
v -0.04477667 0.74385958 0.01925687
v 0.03461006 0.74385818 0.01959272
v -0.04017735 0.74383967 0.02715230
v 0.03012915 0.74385161 0.02746211
v -0.03412549 0.74396824 0.03385423
v 0.02396386 0.74401912 0.03429337
v -0.02690283 0.74393878 0.03930463
v 0.01671963 0.74388404 0.03947300
v -0.01857679 0.74397248 0.04300010
v 0.00830312 0.74387463 0.04323008
v -0.00966016 0.74402166 0.04494384
v -0.00054826 0.74383092 0.04499874
v -0.04832570 0.74397131 0.00163858
v -0.04744893 0.66966323 -0.00736737
v -0.04845347 0.66973325 0.00159155
v -0.04744042 0.74394976 -0.00737626
v -0.04732234 0.74402692 -0.00748103
v -0.04833739 0.74391400 0.00164056
v -0.04730436 0.66975086 -0.00744936
v -0.04845481 0.66961436 0.00159779
v -0.04749564 0.74398956 0.01053730
v -0.04739063 0.66972339 0.01062322
v -0.04750911 0.74401540 0.01058205
v -0.04740046 0.66968894 0.01053075
v -0.04462682 0.74389667 0.01926481
v -0.04479691 0.66975132 0.01929224
v -0.04472149 0.74399791 0.01919884
v -0.04480468 0.66961538 0.01934719
v -0.04013569 0.74399344 0.02722629
v -0.04027089 0.66974915 0.02720858
v -0.04029381 0.74400767 0.02712862
v -0.04026311 0.66959700 0.02716693
v -0.03416365 0.74385024 0.03397307
v -0.03410693 0.66976988 0.03386618
v -0.03413355 0.74390563 0.03399901
v -0.03418581 0.66973609 0.03394994
v -0.02689441 0.66966324 0.03942766
v -0.02675998 0.74391524 0.03941404
v -0.02683631 0.66970462 0.03934695
v -0.02680978 0.74401897 0.03941850
v -0.01860762 0.66966409 0.04299091
v -0.01860926 0.74400915 0.04304830
v -0.01852734 0.66970961 0.04308209
v -0.01849321 0.74402983 0.04301916
v -0.00976223 0.66965097 0.04495700
v -0.00972529 0.74395664 0.04493393
v -0.00978205 0.66971720 0.04495338
v -0.00973826 0.74385761 0.04503567
v -0.00060554 0.66974912 0.04510816
v -0.00053937 0.74388593 0.04501366
v -0.00056282 0.66958395 0.04511934
v -0.00054627 0.74401368 0.04511811
v 0.00833100 0.66968847 0.04322279
v 0.00837613 0.74383249 0.04315701
v 0.00829666 0.66972885 0.04313429
v 0.00827439 0.74385727 0.04318775
v 0.01655272 0.66971473 0.03964400
v 0.01655360 0.74398685 0.03950877
v 0.01661385 0.66972892 0.03964469
v 0.01670941 0.74399442 0.03952739
v 0.02393996 0.66970434 0.03416321
v 0.02401817 0.74398837 0.03422788
v 0.02394868 0.66963993 0.03435667
v 0.02392232 0.74383670 0.03434840
v 0.03010785 0.74395048 0.02746142
v 0.03018885 0.66972917 0.02755843
v 0.03005458 0.74389578 0.02747398
v 0.03016105 0.66970124 0.02752542
v 0.03476235 0.74390318 0.01976566
v 0.03464604 0.66973118 0.01977166
v 0.03466086 0.74386243 0.01960952
v 0.03477289 0.66957802 0.01974403
v 0.03748742 0.74400327 0.01107917
v 0.03746682 0.66961979 0.01106282
v 0.03765987 0.74400637 0.01099004
v 0.03758248 0.66968256 0.01110713
v 0.03857156 0.74394880 0.00204168
v 0.03855753 0.66960942 0.00204625
v 0.03849741 0.74383942 0.00204791
v 0.03857415 0.66962294 0.00196689
v 0.03764188 0.74399677 -0.00694561
v 0.03770862 0.66959223 -0.00698148
v 0.03763185 0.74389433 -0.00698988
v 0.03774836 0.66977499 -0.00698508
v 0.03485905 0.74398907 -0.01561248
v 0.03485971 0.66966667 -0.01565563
v 0.03491579 0.74384287 -0.01562470
v 0.03499259 0.66962102 -0.01576834
v 0.03042044 0.74394791 -0.02353664
v 0.03043278 0.66970092 -0.02359768
v 0.03035810 0.74396795 -0.02357585
v 0.03043488 0.66969814 -0.02356058
v 0.02432904 0.74397574 -0.03045655
v 0.02441621 0.66973386 -0.03034853
v 0.02438142 0.74391061 -0.03040801
v 0.02426716 0.66968639 -0.03038790
v 0.01706372 0.66962753 -0.03581660
v 0.01705057 0.74397483 -0.03577506
v 0.01704331 0.74390949 -0.03580207
v 0.01692135 0.66962636 -0.03579297
v 0.00867749 0.66962437 -0.03952467
v 0.00880866 0.74396979 -0.03955615
v 0.00869219 0.74388496 -0.03947558
v 0.00869562 0.66973406 -0.03949450
v -0.00020464 0.66969527 -0.04142838
v -0.00005504 0.74398409 -0.04144454
v -0.00011568 0.74393478 -0.04137525
v -0.00005824 0.66970643 -0.04146989
v -0.00913350 0.66971193 -0.04146895
v -0.00922593 0.74391582 -0.04151485
v -0.00917969 0.74397104 -0.04147331
v -0.00915995 0.66977377 -0.04140881
v -0.01807143 0.66973229 -0.03966334
v -0.01815763 0.74391313 -0.03961041
v -0.01808912 0.74399311 -0.03966804
v -0.01807703 0.66967056 -0.03952188
v -0.02651068 0.66962621 -0.03596707
v -0.02649902 0.74399103 -0.03604037
v -0.02651030 0.74388609 -0.03596708
v -0.02647695 0.66963743 -0.03595586
v -0.03380788 0.66970548 -0.03075063
v -0.03377724 0.74399993 -0.03067945
v -0.03375350 0.74391566 -0.03061136
v -0.03391278 0.66977677 -0.03065359
v -0.03993280 0.74387234 -0.02399578
v -0.03999533 0.66965983 -0.02393201
v -0.03989184 0.74387420 -0.02397352
v -0.03993621 0.66970833 -0.02388190
v -0.04463336 0.74383935 -0.01614339
v -0.04462413 0.66970842 -0.01613341
v -0.04450663 0.74397313 -0.01612088
v -0.04445279 0.66974329 -0.01610250
vn 0 1 0
vn 0 -1 0
vn -0.9999862920847643 0 -0.005235994897271958
vn -0.9770455658713494 0 -0.21303042555263024
vn 0.9770455658713494 0 0.21303042555263024
vn 0.9999862920847643 0 0.005235994897271958
vn -0.9792228150693219 0 0.20278727388007553
vn 0.9792228150693219 0 -0.20278727388007553
vn -0.9156626285687869 0 0.40194769640153416
vn 0.9156626285687869 0 -0.40194769640153416
vn -0.812083524427163 0 0.5835412147860316
vn 0.812083524427163 0 -0.5835412147860316
vn -0.6730125456012049 0 0.7396310657776526
vn 0.6730125456012049 0 -0.7396310657776526
vn -0.5045276522712392 0 0.8633955339782987
vn 0.5045276522712392 0 -0.8633955339782987
vn -0.3139924953225155 0 0.9494254646264444
vn 0.3139924953225155 0 -0.9494254646264444
vn -0.10973437779899876 0 0.9939609480905509
vn 0.10973437779899876 0 -0.9939609480905509
vn 0.09931975469970927 0 0.9950555694665447
vn -0.09931975469970927 0 -0.9950555694665447
vn 0.30403304122344493 0 0.9526614875413109
vn -0.30403304122344493 0 -0.9526614875413109
vn 0.49545864309090043 0 0.8686315288927313
vn -0.49545864309090043 0 -0.8686315288927313
vn 0.6652303406592803 0 0.7466381947545532
vn -0.6652303406592803 0 -0.7466381947545532
vn 0.8059282429647961 0 0.5920132322775196
vn -0.8059282429647961 0 -0.5920132322775196
vn 0.9114032871347105 0 0.41151433535181287
vn -0.9114032871347105 0 -0.41151433535181287
usemtl material_0_0
f 1//1 2//1 3//1
f 2//1 1//1 4//1
f 4//1 1//1 5//1
f 4//1 5//1 6//1
f 6//1 5//1 7//1
f 6//1 7//1 8//1
f 8//1 7//1 9//1
f 8//1 9//1 10//1
f 10//1 9//1 11//1
f 10//1 11//1 12//1
f 12//1 11//1 13//1
f 12//1 13//1 14//1
f 14//1 13//1 15//1
f 14//1 15//1 16//1
f 16//1 15//1 17//1
f 16//1 17//1 18//1
f 18//1 17//1 19//1
f 18//1 19//1 20//1
f 20//1 19//1 21//1
f 20//1 21//1 22//1
f 22//1 21//1 23//1
f 22//1 23//1 24//1
f 24//1 23//1 25//1
f 24//1 25//1 26//1
f 26//1 25//1 27//1
f 26//1 27//1 28//1
f 28//1 27//1 29//1
f 28//1 29//1 30//1
f 31//2 32//2 33//2
f 32//2 34//2 33//2
f 33//2 34//2 35//2
f 34//2 36//2 35//2
f 35//2 36//2 37//2
f 36//2 38//2 37//2
f 37//2 38//2 39//2
f 38//2 40//2 39//2
f 39//2 40//2 41//2
f 40//2 42//2 41//2
f 41//2 42//2 43//2
f 42//2 44//2 43//2
f 43//2 44//2 45//2
f 44//2 46//2 45//2
f 45//2 46//2 47//2
f 46//2 48//2 47//2
f 47//2 48//2 49//2
f 48//2 50//2 49//2
f 49//2 50//2 51//2
f 50//2 52//2 51//2
f 51//2 52//2 53//2
f 52//2 54//2 53//2
f 53//2 54//2 55//2
f 54//2 56//2 55//2
f 55//2 56//2 57//2
f 56//2 58//2 57//2
f 57//2 58//2 59//2
f 60//2 59//2 58//2
f 61//3 62//4 63//3
f 62//4 61//3 64//4
f 65//5 66//6 67//5
f 68//6 67//5 66//6
f 69//7 63//3 70//7
f 63//3 69//7 61//3
f 66//6 71//8 68//6
f 72//8 68//6 71//8
f 73//9 70//7 74//9
f 70//7 73//9 69//7
f 71//8 75//10 72//8
f 76//10 72//8 75//10
f 77//11 74//9 78//11
f 74//9 77//11 73//9
f 75//10 79//12 76//10
f 80//12 76//10 79//12
f 81//13 78//11 82//13
f 78//11 81//13 77//11
f 79//12 83//14 80//12
f 84//14 80//12 83//14
f 81//13 85//15 86//15
f 85//15 81//13 82//13
f 84//14 83//14 87//16
f 88//16 87//16 83//14
f 86//15 89//17 90//17
f 89//17 86//15 85//15
f 87//16 88//16 91//18
f 92//18 91//18 88//16
f 90//17 93//19 94//19
f 93//19 90//17 89//17
f 91//18 92//18 95//20
f 96//20 95//20 92//18
f 94//19 97//21 98//21
f 97//21 94//19 93//19
f 95//20 96//20 99//22
f 100//22 99//22 96//20
f 98//21 101//23 102//23
f 101//23 98//21 97//21
f 99//22 100//22 103//24
f 104//24 103//24 100//22
f 102//23 105//25 106//25
f 105//25 102//23 101//23
f 103//24 104//24 107//26
f 108//26 107//26 104//24
f 106//25 109//27 110//27
f 109//27 106//25 105//25
f 107//26 108//26 111//28
f 112//28 111//28 108//26
f 113//29 109//27 114//29
f 109//27 113//29 110//27
f 112//28 115//30 111//28
f 116//30 111//28 115//30
f 117//31 114//29 118//31
f 114//29 117//31 113//29
f 115//30 119//32 116//30
f 120//32 116//30 119//32
f 121//5 118//31 122//5
f 118//31 121//5 117//31
f 119//32 123//4 120//32
f 124//4 120//32 123//4
f 125//6 122//5 126//6
f 122//5 125//6 121//5
f 123//4 127//3 124//4
f 128//3 124//4 127//3
f 129//8 126//6 130//8
f 126//6 129//8 125//6
f 127//3 131//7 128//3
f 132//7 128//3 131//7
f 133//10 130//8 134//10
f 130//8 133//10 129//8
f 131//7 135//9 132//7
f 136//9 132//7 135//9
f 137//12 134//10 138//12
f 134//10 137//12 133//10
f 135//9 139//11 136//9
f 140//11 136//9 139//11
f 141//14 138//12 142//14
f 138//12 141//14 137//12
f 139//11 143//13 140//11
f 144//13 140//11 143//13
f 145//16 141//14 142//14
f 141//14 145//16 146//16
f 147//15 148//15 143//13
f 144//13 143//13 148//15
f 149//18 146//16 145//16
f 146//16 149//18 150//18
f 151//17 152//17 147//15
f 148//15 147//15 152//17
f 153//20 150//18 149//18
f 150//18 153//20 154//20
f 155//19 156//19 151//17
f 152//17 151//17 156//19
f 157//22 154//20 153//20
f 154//20 157//22 158//22
f 159//21 160//21 155//19
f 156//19 155//19 160//21
f 161//24 158//22 157//22
f 158//22 161//24 162//24
f 163//23 164//23 159//21
f 160//21 159//21 164//23
f 165//26 162//24 161//24
f 162//24 165//26 166//26
f 167//25 168//25 163//23
f 164//23 163//23 168//25
f 169//28 166//26 165//26
f 166//26 169//28 170//28
f 171//27 172//27 167//25
f 168//25 167//25 172//27
f 173//30 169//28 174//30
f 169//28 173//30 170//28
f 171//27 175//29 172//27
f 176//29 172//27 175//29
f 177//32 174//30 178//32
f 174//30 177//32 173//30
f 175//29 179//31 176//29
f 180//31 176//29 179//31
f 64//4 178//32 62//4
f 178//32 64//4 177//32
f 179//31 65//5 180//31
f 67//5 180//31 65//5
