# SSTK version 0.8.0
# 8
mtllib original-8.mtl
o #ID62
v 0.11100590 0.90682639 -0.00985277
v 0.07770475 0.90678877 -0.08970119
v -0.00213315 0.90721756 -0.00975954
v 0.07784827 0.90685603 0.07026050
v 0.12257552 0.86228647 -0.00985210
v 0.07789066 0.90687559 -0.08981818
v 0.11083290 0.90672469 -0.00983971
v 0.08599044 0.86231147 -0.09799768
v -0.00208720 0.90668748 -0.12286050
v -0.00221454 0.90678036 0.10340507
v 0.07775435 0.90684809 0.07013110
v 0.08608530 0.86238507 0.07840342
v 0.08601807 0.80386704 -0.09796499
v 0.12256752 0.80400384 -0.00986275
v -0.00225388 0.90677209 -0.12280490
v -0.00211051 0.86235728 -0.13465074
v -0.08223846 0.90675716 -0.08985058
v -0.08216375 0.90680919 0.07022288
v -0.00227755 0.86241806 0.11502950
v -0.00213241 0.90674227 0.10324050
v 0.08602312 0.80398531 0.07842155
v 0.08616053 0.74557816 -0.09803553
v 0.12267045 0.74551403 -0.00969349
v -0.00214586 0.80385027 -0.13463944
v -0.08226072 0.90683637 -0.08971357
v -0.09046243 0.86241416 -0.09810106
v -0.11531529 0.90676284 -0.00986445
v -0.09050621 0.86243013 0.07852211
v -0.08215562 0.90687719 0.07023093
v -0.00217307 0.80629744 0.11507247
v 0.08607581 0.74548576 0.07844123
v 0.12271896 0.68710870 -0.00982803
v 0.08604007 0.68705275 -0.09798582
v -0.00211167 0.74557278 -0.13465376
v -0.09046883 0.80392246 -0.09801361
v -0.11522191 0.90669891 -0.00985423
v -0.12706350 0.86238906 -0.00976238
v -0.09047496 0.80400538 0.07854643
v -0.00225037 0.74542398 0.11496557
v 0.08602093 0.68695308 0.07853614
v 0.12266597 0.62752343 -0.00986515
v 0.08598527 0.62757463 -0.09797836
v -0.00216119 0.68706503 -0.13461477
v -0.09047533 0.74549206 -0.09800717
v -0.12698513 0.80399575 -0.00970188
v -0.09036878 0.74558547 0.07849832
v -0.00213000 0.68710055 0.11497698
v 0.08612422 0.62757222 0.07840263
v 0.12266097 0.62766927 -0.00974039
v -0.09039229 0.62762256 -0.09810989
v 0.08608812 0.62764058 -0.09800339
v -0.00224073 0.62764480 -0.13449431
v -0.09034343 0.68712741 -0.09808320
v -0.12701849 0.74540744 -0.00974223
v -0.09037488 0.68696673 0.07855171
v -0.00226793 0.62747922 0.11493320
v 0.08608322 0.62748779 0.07841169
v -0.12690050 0.62761084 -0.00970556
v -0.00228572 0.62763843 -0.13450658
v -0.09043092 0.62766636 -0.09806155
v -0.12695667 0.68702641 -0.00970752
v -0.09047233 0.62760673 0.07845770
v -0.00223699 0.62756671 0.11505696
v -0.09049932 0.62760601 0.07851390
v -0.12696734 0.62748471 -0.00982245
vt 0.4259349 -0.7080493
vt 0.5112734 -0.7080493
vt 0.4686039 -0.6050356
vt 0.8058172 -0.1978458
vt 0.7631478 -0.0948323
vt 0.7204786 -0.1978458
vt 0.4215211 1.299137
vt 0.5112724 1.344193
vt 0.4259338 1.344193
vt 0.5156853 1.299137
vt -0.1431148 -0.8605454
vt -0.05777592 -0.8605454
vt -0.1004451 -0.7575319
vt 0.653321 0.3711964
vt 0.6106517 0.4742099
vt 0.5679824 0.3711964
vt 0.8102299 1.41977
vt 0.7204785 1.464826
vt 0.7160657 1.41977
vt 0.8058171 1.464826
vt 0.5156844 1.455691
vt 0.4215202 1.513305
vt 0.4215202 1.455691
vt 0.5156844 1.513305
vt -0.05777527 1.308135
vt -0.1475267 1.263078
vt -0.05336247 1.263078
vt -0.1431142 1.308135
vt -0.6533208 -0.5660021
vt -0.5679822 -0.5660021
vt -0.6106515 -0.4629886
vt 0.1004441 0.7687535
vt 0.05777478 0.6657401
vt 0.1431134 0.6657401
vt 0.653321 1.599375
vt 0.5635696 1.554318
vt 0.6577338 1.554318
vt 0.5679824 1.599375
vt 0.8102298 1.455691
vt 0.7160656 1.513305
vt 0.7160656 1.455691
vt 0.8102298 1.513305
vt 0.5156844 1.398077
vt 0.4215202 1.398077
vt -0.05336193 1.513305
vt -0.1475262 1.455691
vt -0.05336193 1.455691
vt -0.1475262 1.513305
vt -0.5679826 1.377778
vt -0.657734 1.332721
vt -0.5635701 1.332721
vt -0.6533212 1.377778
vt -0.7631475 0.1060564
vt -0.8058171 0.003043042
vt -0.7204786 0.003043042
vt -0.4686039 0.6162571
vt -0.5112729 0.5132438
vt -0.4259344 0.5132438
vt 0.1431131 1.669018
vt 0.05336192 1.623962
vt 0.1475259 1.623962
vt 0.05777446 1.669018
vt 0.6577339 1.513305
vt 0.5635696 1.457934
vt 0.6577339 1.455691
vt 0.5635696 1.513305
vt 0.8102298 1.398077
vt 0.7160656 1.398077
vt 0.4215202 1.340463
vt 0.5156845 1.398077
vt 0.5156845 1.340463
vt -0.05336201 1.455691
vt -0.1475263 1.398077
vt -0.05336201 1.398077
vt -0.1475263 1.455691
vt -0.56357 1.513304
vt -0.657734 1.45569
vt -0.5635698 1.45569
vt -0.657734 1.513304
vt -0.7204786 1.512325
vt -0.81023 1.467269
vt -0.7160656 1.467269
vt -0.8058171 1.512325
vt -0.4259328 1.632962
vt -0.5156842 1.587905
vt -0.4215199 1.587905
vt -0.5112713 1.632962
vt 0.1475256 1.457934
vt 0.05336167 1.513305
vt 0.05336167 1.455691
vt 0.1475256 1.513305
vt 0.5635696 1.398077
vt 0.6577339 1.398077
vt 0.8102298 1.340463
vt 0.7160656 1.340463
vt 0.4215202 1.28184
vt 0.5156844 1.340463
vt 0.5156844 1.28184
vt -0.05336217 1.398077
vt -0.1475264 1.340463
vt -0.05336217 1.340463
vt -0.1475264 1.398077
vt -0.5635695 1.455691
vt -0.6577337 1.398077
vt -0.5635694 1.398077
vt -0.6577337 1.455691
vt -0.81023 1.513305
vt -0.7160656 1.455691
vt -0.7160656 1.513305
vt -0.8102299 1.455691
vt -0.515683 1.513305
vt -0.4215186 1.455691
vt -0.4215186 1.513305
vt -0.515683 1.455691
vt 0.05336167 1.398077
vt 0.1475256 1.398077
vt 0.5635696 1.340463
vt 0.6577339 1.340463
vt 0.7160655 1.281839
vt 0.8102295 1.340462
vt 0.7160653 1.340462
vt 0.8102295 1.281839
vt -0.5078738 0.6666183
vt -0.2978459 0.7536147
vt -0.4718387 0.7536147
vt -0.05336225 1.340463
vt -0.1475265 1.28184
vt -0.05336225 1.28184
vt -0.1475265 1.340463
vt -0.5635696 1.398077
vt -0.6577338 1.340463
vt -0.5635695 1.340463
vt -0.6577338 1.398077
vt -0.7160656 1.398077
vt -0.8102299 1.398077
vt -0.4215186 1.398077
vt -0.515683 1.398077
vt 0.05336167 1.340463
vt 0.1475256 1.340463
vt 0.5635699 1.28184
vt 0.6577342 1.28184
vt 0.5635697 1.340463
vt -0.471839 0.5796219
vt -0.2618108 0.6666182
vt -0.3848423 0.7896498
vt -0.5635696 1.340463
vt -0.6577339 1.28184
vt -0.5635696 1.28184
vt -0.6577339 1.340463
vt -0.8102298 1.340463
vt -0.7160656 1.340463
vt -0.4215186 1.340463
vt -0.515683 1.340463
vt 0.147526 1.340462
vt 0.05336206 1.281839
vt 0.1475263 1.281839
vt 0.05336206 1.340462
vt -0.3848426 0.5435868
vt -0.2978462 0.5796218
vt -0.8102298 1.28184
vt -0.7160656 1.28184
vt -0.5156829 1.340463
vt -0.4215186 1.28184
vt -0.5156829 1.28184
vn 0.003328285870999058 0.9999944612412416 4.767939037242963e-9
vn 0.002353452908816926 0.9999944612558345 -0.002353447908816898
vn -3.364858e-9 1 1.1498502220446048e-9
vn 0.002353453908772577 0.9999944612370067 0.0023534549087727602
vn 0.9922066786011035 0.1246029973126903 2.4596839472287324e-7
vn 0.6837864030558551 0.25470580113828545 -0.6837844030558461
vn 0.9670184866254938 0.2547061964772446 7.969471890342486e-7
vn 0.701595937704086 0.12460280669621186 -0.7015962377041021
vn -1.2833239502554099e-9 0.9999944612379131 -0.0033282868709877188
vn 0 0.9999944612379131 0.003328286870988163
vn 0.6837848820205982 0.2547077933027272 0.6837851820205904
vn 0.7015960995066166 0.12460379991237473 0.7015958995066168
vn 0.7071068811865366 5.760148862444955e-8 -0.707106681186542
vn 1 1.6871079999999995e-8 9.536743000000004e-9
vn -4.5801857962649596e-7 0.25470668867018087 -0.9670183569852547
vn -2.6041100399784565e-7 0.12460350191292081 -0.9922066152324167
vn -0.002353456908772461 0.9999944612370067 -0.002353451908772432
vn -0.002353457908766883 0.9999944612346533 0.0023534519087673373
vn -3.391572009807349e-7 0.12460360036031382 0.9922066028691464
vn -2.6844191123645087e-7 0.2547075106615556 0.9670181404774791
vn 0.7071068811865378 0 0.7071066811865431
vn 0.7071068311865418 1.3207390598205322e-7 -0.7071067311865373
vn 1 3.3742109999999915e-8 5.876495999999987e-8
vn -1.4445329999999475e-8 2.699369002220348e-7 -1
vn -0.6837858930069184 0.25470719739510844 -0.6837843930069336
vn -0.7015950962767716 0.12460439933874891 -0.7015967962767626
vn -0.0033282948708990108 0.9999944612112871 0
vn -0.7015953590248188 0.12460369272278682 0.7015966590247429
vn -0.6837859875134219 0.25470749534880033 0.6837841875134548
vn -4.261630999999613e-7 0 1
vn 0.7071068811865378 -1.687103970813413e-8 0.7071066811865431
vn 1 6.241775999998383e-7 -3.595265999999066e-7
vn 0.7071067311865405 9.105302417285114e-8 -0.7071068311865449
vn 0 0 -1
vn -0.7071069311862742 8.640203382637991e-7 -0.707106631186261
vn -0.9670180354671173 0.25470790934186843 -1.075162038867927e-7
vn -0.992206502410173 0.12460440030267708 4.262944010631813e-7
vn -0.707106181186309 0 0.707107381186277
vn 0.707106831186177 0.000001024378045022069 0.7071067311861725
vn 1 0.000001214612999998701 -8.147764999991282e-7
vn 0.7071067311865432 3.3161271619568415e-8 -0.7071068311865476
vn -1.3814239999999867e-7 0 -1
vn -0.7071068311865418 -1.3207390566803474e-7 -0.7071067311865373
vn -1 6.348138999994909e-7 0.000001095600999999122
vn -0.7071061811863087 1.6871139394106964e-8 0.7071073811862769
vn -8.516598999996767e-7 1.8522989977788507e-7 1
vn 0.7071081811835911 0.0000020824979444269543 0.7071053811836656
vn 0 -1 0
vn -1.841897999999969e-7 0 -1
vn -0.7071068811865349 -9.105300742041136e-8 -0.7071066811865402
vn -1 -3.374201999996653e-8 0.0000014147519999985835
vn -0.7071060311860977 -2.318384103819757e-7 0.7071075311861639
vn 0.00000121937499999901 3.704682997776546e-7 1
vn -0.7071068811865374 -3.316125896069402e-8 -0.7071066811865427
vn -1 -1.6870799999981757e-8 0.0000014837369999983665
vn -0.7071059311859117 -4.974191220949796e-7 0.7071076311859867
vn -1 0 0.0000015896809999979914
usemtl material_0_0
f 1/1/1 2/2/2 3/3/3
f 1/4/1 3/5/3 4/6/4
f 5/7/5 6/8/6 7/9/7
f 6/8/6 5/7/5 8/10/8
f 2/11/2 9/12/9 3/13/3
f 4/14/4 3/15/3 10/16/10
f 5/17/5 11/18/11 12/19/12
f 11/18/11 5/17/5 7/20/7
f 13/21/13 5/22/5 14/23/14
f 5/22/5 13/21/13 8/24/8
f 15/25/15 8/26/8 16/27/16
f 8/26/8 15/25/15 6/28/6
f 9/29/9 17/30/17 3/31/3
f 3/32/3 18/33/18 10/34/10
f 11/35/11 19/36/19 12/37/12
f 19/36/19 11/35/11 20/38/20
f 14/39/14 12/40/12 21/41/21
f 12/40/12 14/39/14 5/42/5
f 22/43/22 14/23/14 23/44/23
f 14/23/14 22/43/22 13/21/13
f 16/45/16 13/46/13 24/47/24
f 13/46/13 16/45/16 8/48/8
f 25/49/25 16/50/16 26/51/26
f 16/50/16 25/49/25 15/52/15
f 3/53/3 17/54/17 27/55/27
f 3/56/3 27/57/27 18/58/18
f 20/59/20 28/60/28 19/61/19
f 28/60/28 20/59/20 29/62/29
f 12/63/12 30/64/30 21/65/21
f 30/64/30 12/63/12 19/66/19
f 23/67/23 21/41/21 31/68/31
f 21/41/21 23/67/23 14/39/14
f 32/69/32 22/70/22 23/44/23
f 22/70/22 32/69/32 33/71/33
f 24/72/24 22/73/22 34/74/34
f 22/73/22 24/72/24 13/75/13
f 26/76/26 24/77/24 35/78/35
f 24/77/24 26/76/26 16/79/16
f 36/80/36 26/81/26 37/82/37
f 26/81/26 36/80/36 25/83/25
f 29/84/29 37/85/37 28/86/28
f 37/85/37 29/84/29 36/87/36
f 30/88/30 28/89/28 38/90/38
f 28/89/28 30/88/30 19/91/19
f 21/65/21 39/92/30 31/93/31
f 39/92/30 21/65/21 30/64/30
f 32/94/32 31/68/31 40/95/39
f 31/68/31 32/94/32 23/67/23
f 41/96/40 33/97/33 32/69/32
f 33/97/33 41/96/40 42/98/41
f 34/99/34 33/100/33 43/101/42
f 33/100/33 34/99/34 22/102/22
f 35/103/35 34/104/34 44/105/43
f 34/104/34 35/103/35 24/106/24
f 26/107/26 45/108/44 37/109/37
f 45/108/44 26/107/26 35/110/35
f 37/111/37 38/112/38 28/113/28
f 38/112/38 37/111/37 45/114/44
f 30/88/30 46/115/45 39/116/30
f 46/115/45 30/88/30 38/90/38
f 31/93/31 47/117/46 40/118/39
f 47/117/46 31/93/31 39/92/30
f 48/119/47 32/120/32 40/121/39
f 32/120/32 48/119/47 41/122/40
f 49/123/48 50/124/48 51/125/48
f 43/126/42 42/127/41 52/128/49
f 42/127/41 43/126/42 33/129/33
f 44/130/43 43/131/42 53/132/50
f 43/131/42 44/130/43 34/133/34
f 35/110/35 54/134/51 45/108/44
f 54/134/51 35/110/35 44/135/43
f 45/114/44 46/136/45 38/112/38
f 46/136/45 45/114/44 54/137/51
f 39/116/30 55/138/52 47/139/46
f 55/138/52 39/116/30 46/115/45
f 40/118/39 56/140/53 48/141/47
f 56/140/53 40/118/39 47/142/46
f 49/123/48 57/143/48 58/144/48
f 49/123/48 58/144/48 50/124/48
f 51/125/48 50/124/48 59/145/48
f 53/146/50 52/147/49 60/148/54
f 52/147/49 53/146/50 43/149/42
f 54/134/51 53/150/50 61/151/55
f 53/150/50 54/134/51 44/135/43
f 54/137/51 55/152/52 46/136/45
f 55/152/52 54/137/51 61/153/55
f 47/154/46 62/155/56 56/156/53
f 62/155/56 47/154/46 55/157/52
f 57/143/48 63/158/48 64/159/48
f 57/143/48 64/159/48 58/144/48
f 61/151/55 60/160/54 65/161/57
f 60/160/54 61/151/55 53/150/50
f 61/162/55 62/163/56 55/152/52
f 62/163/56 61/162/55 65/164/57
