# SSTK version 0.8.0
# 14
mtllib original_14.mtl
o #ID57
v -0.29568640 -0.48319794 0.16732487
v -0.23968758 -0.48320672 0.10980815
v -0.29547537 -0.48315033 0.10985393
v -0.23962438 -0.48315420 0.16714410
v -0.23970053 -0.51544028 0.16730348
v -0.29542046 -0.48321883 0.16716637
v -0.29548818 -0.51554326 0.16722014
v -0.23958583 -0.48310003 0.16738033
v -0.23977399 -0.48330115 0.10989428
v -0.23979385 -0.51554835 0.16711842
v -0.23974751 -0.51567302 0.10990194
v -0.23978273 -0.48322365 0.16727538
v -0.23975852 -0.48306487 0.10997150
v -0.29547018 -0.51561130 0.10994069
v -0.29562493 -0.48316796 0.11003229
v -0.23988110 -0.51564036 0.10977110
v -0.29534613 -0.48327663 0.16743523
v -0.29562314 -0.51561866 0.10996498
v -0.29540321 -0.51552618 0.16709617
v -0.29543054 -0.48303471 0.10996977
v -0.23969856 -0.51558831 0.16733999
v -0.29559256 -0.51572489 0.10987632
v -0.23971616 -0.51574085 0.11003074
v -0.29538182 -0.51558230 0.16722277
vn 0 1 0
vn 0 0 1
vn 1 0 5.869735999998989e-7
vn 0 0 -1
vn -1 0 5.869735999998989e-7
vn 0 -1 0
usemtl material_0_0
f 1//1 2//1 3//1
f 2//1 1//1 4//1
f 5//2 6//2 7//2
f 6//2 5//2 8//2
f 9//3 10//3 11//3
f 10//3 9//3 12//3
f 13//4 14//4 15//4
f 14//4 13//4 16//4
f 17//5 18//5 19//5
f 18//5 17//5 20//5
f 21//6 22//6 23//6
f 22//6 21//6 24//6
