# SSTK version 0.8.0
# 12
mtllib original_12.mtl
o group_4/ID50#ID50
v 0.25433347 -0.44133643 -0.24618995
v 0.34410002 -0.53065424 -0.12421198
v 0.26694355 -0.53052317 -0.25807397
v 0.32748114 -0.44132144 -0.11952202
v 0.36027826 -0.53060883 0.02306918
v 0.34320197 -0.44141381 0.02094934
v 0.34401696 -0.53059388 -0.12418716
v 0.25472094 -0.53034903 -0.24677848
v 0.26690845 -0.53064023 -0.25815507
v 0.32844607 -0.53042751 -0.11928188
v 0.14735046 -0.53043520 -0.34564904
v 0.14068603 -0.44140279 -0.32971983
v 0.23631713 -0.44203522 -0.22937676
v 0.32748138 -0.44128897 -0.11938297
v 0.25438826 -0.44123301 -0.24597227
v 0.30426858 -0.44202945 -0.11204816
v 0.33282601 -0.53053682 0.13585837
v 0.31694295 -0.44129248 0.12870917
v 0.36040868 -0.53052544 0.02297516
v 0.34384837 -0.53025049 0.02122196
v 0.34314774 -0.44148279 0.02087549
v 0.31884156 -0.44201254 0.01849954
v 0.14073312 -0.53032529 -0.33040615
v 0.14753112 -0.53056269 -0.34558911
v 0.32120042 -0.48364355 -0.11691227
v 0.25473545 -0.53033387 -0.24671419
v 0.32838141 -0.53031570 -0.11932017
v 0.24915536 -0.48357335 -0.24169722
v 0.03594736 -0.53063435 -0.37811808
v 0.03425799 -0.44135537 -0.36085941
v 0.13069598 -0.44192348 -0.30736978
v 0.14077390 -0.44136811 -0.32980591
v 0.30412336 -0.44187774 -0.11198770
v 0.23619355 -0.47305129 -0.22946856
v 0.30395952 -0.47290983 -0.11201504
v 0.23646591 -0.44208626 -0.22940615
v 0.27663192 -0.53054411 0.22716615
v 0.26310728 -0.44125029 0.21627540
v 0.31744833 -0.53050016 0.12918617
v 0.33275957 -0.53042647 0.13598503
v 0.29450093 -0.44195355 0.11871293
v 0.31708666 -0.44145375 0.12877227
v 0.33629555 -0.48376313 0.02055926
v 0.34375042 -0.53048252 0.02141423
v 0.31879147 -0.44188385 0.01862568
v 0.31847770 -0.47283774 0.01864813
v 0.14073170 -0.53042993 -0.33056317
v 0.13772520 -0.48366974 -0.32348740
v 0.03409207 -0.53032709 -0.36165016
v 0.03590153 -0.53039238 -0.37813159
v 0.33631161 -0.48376583 0.02061952
v 0.24914084 -0.48378477 -0.24159176
v 0.32121274 -0.48372649 -0.11704858
v -0.06852265 -0.44143939 -0.35820351
v -0.07104652 -0.53049939 -0.37520932
v 0.03158099 -0.44211348 -0.33643439
v 0.03419584 -0.44117889 -0.36083829
v 0.13065289 -0.44209584 -0.30753034
v 0.13056103 -0.47302305 -0.30718702
v 0.30403576 -0.47292917 -0.11204495
v 0.23624494 -0.47280503 -0.22933274
v 0.13061205 -0.47286760 -0.30721526
v 0.19138714 -0.53067043 0.29920615
v 0.18170216 -0.44128600 0.28493105
v 0.26389470 -0.53035174 0.21664250
v 0.27665028 -0.53050071 0.22735229
v 0.24416935 -0.44200486 0.20047052
v 0.26317342 -0.44137647 0.21647908
v 0.31016748 -0.48373977 0.12591180
v 0.31754188 -0.53024019 0.12904269
v 0.29418842 -0.47282917 0.11871102
v 0.29442756 -0.44187437 0.11873256
v 0.31869061 -0.47287839 0.01840142
v 0.30409879 -0.47285590 -0.11188489
v 0.03156350 -0.47294909 -0.33622122
v 0.31016926 -0.48355274 0.12587803
v 0.13762369 -0.48346925 -0.32351497
v 0.03420575 -0.53042862 -0.36157615
v 0.03340136 -0.48367513 -0.35402120
v -0.07117364 -0.53049644 -0.37542390
v -0.06840948 -0.53022408 -0.35897965
v -0.06858487 -0.44129764 -0.35818620
v -0.06445624 -0.44193126 -0.33379551
v -0.16874765 -0.44129075 -0.32196097
v -0.17636722 -0.53058500 -0.33756926
v 0.03164219 -0.44207503 -0.33644757
v 0.03166711 -0.47294217 -0.33635469
v 0.30400472 -0.47295569 -0.11186072
v 0.13048368 -0.47280115 -0.30727934
v 0.03153201 -0.47296540 -0.33644131
v 0.05206833 -0.53058845 0.35210696
v 0.04899671 -0.44141418 0.33489093
v 0.18243475 -0.53029689 0.28540391
v 0.19148614 -0.53054522 0.29927033
v 0.16851600 -0.44200237 0.26437375
v 0.18186406 -0.44144840 0.28498869
v 0.25799121 -0.48369917 0.21155953
v 0.26375990 -0.53036385 0.21672448
v 0.24428878 -0.44191978 0.20047967
v 0.24384687 -0.47297127 0.20072436
v 0.29420258 -0.47293386 0.11869243
v 0.31867048 -0.47289235 0.01848487
v -0.06462588 -0.47291592 -0.33365301
v 0.31862095 -0.47282679 0.01839430
v 0.03143924 -0.47280401 -0.33640810
v -0.06444313 -0.47282863 -0.33363468
v 0.25802646 -0.48366433 0.21168539
v 0.03344478 -0.48353976 -0.35382865
v -0.06710449 -0.48366486 -0.35129825
v -0.06847695 -0.53032072 -0.35896041
v -0.17641765 -0.53054704 -0.33755634
v -0.16879480 -0.53049525 -0.32281642
v -0.06423997 -0.44200340 -0.33373362
v -0.06457470 -0.47293757 -0.33380588
v -0.16857033 -0.44152877 -0.32177871
v -0.15756152 -0.44190392 -0.30004593
v -0.28218106 -0.44144251 -0.22581131
v -0.29546882 -0.53057155 -0.23645970
v -0.09653203 -0.44131402 0.32772230
v -0.10133427 -0.53033799 0.34418195
v 0.04929934 -0.53049331 0.33560296
v 0.05195469 -0.53049194 0.35204895
v 0.04493238 -0.44196210 0.31075080
v 0.04889043 -0.44144850 0.33504577
v 0.18223956 -0.53042396 0.28533456
v 0.17813802 -0.48366290 0.27907261
v 0.16834663 -0.44185887 0.26431325
v 0.16828444 -0.47288856 0.26446696
v 0.24389330 -0.47293614 0.20075047
v 0.29439697 -0.47285689 0.11872667
v -0.15762743 -0.47292623 -0.29987222
v 0.29434069 -0.47289361 0.11861181
v -0.06450396 -0.47300664 -0.33368121
v -0.15765450 -0.47283968 -0.29986852
v 0.17822252 -0.48357751 0.27908778
v -0.06716462 -0.48371988 -0.35130467
v -0.16517619 -0.48356045 -0.31592748
v -0.16877994 -0.53023943 -0.32272840
v -0.29537816 -0.53034202 -0.23627262
v -0.28249314 -0.53028766 -0.22616530
v -0.15735439 -0.44192299 -0.29994193
v -0.15769835 -0.47279660 -0.30004816
v -0.28209096 -0.44142745 -0.22570596
v -0.26278857 -0.44187457 -0.21045641
v -0.34890158 -0.44143442 -0.08504257
v -0.36600509 -0.53049752 -0.08824396
v -0.22273716 -0.44141761 0.26439549
v -0.23369691 -0.53043237 0.27772128
v -0.10142159 -0.53037812 0.34429353
v -0.09701329 -0.53029981 0.32824331
v -0.09635011 -0.44145134 0.32775084
v -0.08995566 -0.44204873 0.30389047
v 0.04940598 -0.53038427 0.33576832
v 0.04804358 -0.48366429 0.32813136
v 0.04502859 -0.44191913 0.31077414
v 0.04483296 -0.47288991 0.31076493
v 0.16815315 -0.47286511 0.26458092
v 0.24399532 -0.47276452 0.20065144
v -0.26289395 -0.47281710 -0.21035597
v 0.24399795 -0.47292557 0.20064860
v -0.15763385 -0.47289754 -0.29986212
v -0.26293926 -0.47286413 -0.21041223
v 0.04809698 -0.48368700 0.32808108
v -0.16530907 -0.48371226 -0.31602063
v -0.27644275 -0.48345205 -0.22149031
v -0.28249488 -0.53039260 -0.22635084
v -0.36593612 -0.53038919 -0.08815482
v -0.34974782 -0.53032642 -0.08490435
v -0.26290187 -0.44195688 -0.21060321
v -0.26299785 -0.47285431 -0.21056448
v -0.34877072 -0.44144094 -0.08511477
v -0.32477486 -0.44191695 -0.08007565
v -0.36703390 -0.53060083 0.05989838
v -0.35014062 -0.44145471 0.05598845
v -0.31813746 -0.53050885 0.18489855
v -0.30327500 -0.44151007 0.17581294
v -0.23388908 -0.53060680 0.27790271
v -0.22336118 -0.53037914 0.26483430
v -0.22291961 -0.44141951 0.26446190
v -0.20740208 -0.44198780 0.24518188
v -0.09480110 -0.48363359 0.32076814
v -0.09698860 -0.53032292 0.32817531
v -0.08978690 -0.44180415 0.30378579
v -0.08993582 -0.47287870 0.30403042
v 0.04489043 -0.47279489 0.31088676
v 0.16829543 -0.47291357 0.26450227
v -0.32500176 -0.47305268 -0.08018592
v 0.16802553 -0.47294276 0.26444138
v -0.26290539 -0.47281495 -0.21053394
v -0.32482995 -0.47281645 -0.08004429
v -0.09483193 -0.48373647 0.32093624
v -0.27643693 -0.48365261 -0.22151724
v -0.34957378 -0.53029196 -0.08479647
v -0.34217531 -0.48370595 -0.08349077
v -0.36697632 -0.53047575 0.05979135
v -0.35067750 -0.53042346 0.05646544
v -0.32476548 -0.44191454 -0.08021146
v -0.32482576 -0.47292518 -0.08019761
v -0.35022187 -0.44129958 0.05622316
v -0.32614606 -0.44194634 0.05127938
v -0.31806635 -0.53054653 0.18497449
v -0.30385453 -0.53031339 0.17609823
v -0.30321262 -0.44134129 0.17584447
v -0.28248353 -0.44183551 0.16280593
v -0.21848959 -0.48355570 0.25898367
v -0.22350628 -0.53050405 0.26469539
v -0.20744181 -0.44188835 0.24535799
v -0.20746401 -0.47286985 0.24538272
v -0.32627362 -0.47288102 0.05132915
v -0.08998876 -0.47287768 0.30403996
v -0.21870301 -0.48366432 0.25878715
v -0.34219723 -0.48360892 -0.08345511
v -0.35083730 -0.53032685 0.05655718
v -0.34337637 -0.48375554 0.05494996
v -0.32630230 -0.47271267 0.05119508
v -0.32608095 -0.44191049 0.05110508
v -0.29689749 -0.48376875 0.17183488
v -0.30385299 -0.53039940 0.17627972
v -0.28254984 -0.47296569 0.16285559
v -0.28239934 -0.44196846 0.16283339
v -0.08999989 -0.47281724 0.30397926
v -0.28246196 -0.47275045 0.16287337
v -0.20742241 -0.47293928 0.24539910
v -0.08986908 -0.47290682 0.30414457
v -0.32617462 -0.47280197 0.05110618
v -0.28231669 -0.47290150 0.16294377
v -0.29686076 -0.48364112 0.17181774
v -0.34337974 -0.48373006 0.05489845
vn 0.7318969181122715 0.1900653047035509 -0.6543715161937486
vn 0.933146404832462 0.19007120098431698 -0.3051405015802235
vn 0.7308325003686539 0.19007080009587743 -0.6555585003306834
vn 0.9326506110427139 0.19006560225040336 -0.30665600363085
vn 0.9795365945994775 0.190636198948957 0.06454377964414793
vn 0.979690191139547 0.19062299827597937 0.06220933943737018
vn -0.007888398861105879 -0.9999655823932152 0.0025704459547411535
vn -0.006190202877507119 -0.9999655802124958 0.005524470890680747
vn -0.0061702608917374386 -0.9999655824547394 0.005546330902684829
vn -0.007879440843619545 -0.9999655801540395 0.0025986379484257585
vn 0.43387071997044924 0.19063540877467547 -0.8805761405316614
vn 0.4359692983583707 0.19062219928221782 -0.8795418966881114
vn -0.018515219426497278 0.9996923690348638 0.016503149488820475
vn -0.023575199737146422 0.9996923888538496 0.007703091914113759
vn -0.01845872974618189 0.9996923862536571 0.01656526977221805
vn -0.02354966932949315 0.9996923715367305 0.007783017778401698
vn 0.905665891432849 0.19175559818608698 0.3781521964228674
vn 0.9061782479321864 0.19174928898233737 0.3769259783423276
vn -0.00827016332604422 -0.9999656394228027 -0.0005695369224535132
vn -0.00827667218663801 -0.9999656225491103 -0.000500417311284353
vn -0.02472581936591617 0.9996928743632728 -0.001670569957158896
vn -0.02474496061092292 0.9996927246811951 -0.001463948036143093
vn -0.003704957083527421 -0.9999656225439992 0.00741802016723759
vn -0.0036418381435663403 -0.9999656394200405 0.007446945293568972
vn -0.9377410621952935 -0.1610878935057973 0.3077212875943227
vn -0.7349623227935742 -0.16108820499586965 0.6586964204283203
vn -0.937928874012308 -0.16108879553662744 0.3071478914896907
vn -0.7353648887190837 -0.16108729752882908 0.6582471899021132
vn 0.12534240387942516 0.1917550059349364 -0.9734060301275206
vn 0.12666070149106623 0.19174870225729065 -0.973236611457068
vn -0.011104900133797967 0.9996927120448497 0.022162190267022302
vn -0.010916359574850812 0.9996928610659024 0.022248969133490327
vn -0.9500253410077811 0.004605710198805176 0.3121388134734513
vn -0.7454855177218529 0.004605107109473663 0.6665059158443316
vn -0.9499535643597792 0.004605701827203944 0.3123571882810281
vn -0.7453327013297879 0.004605115008216232 0.6666768011894537
vn 0.7445757684610295 0.19191269187090287 0.6393562729179494
vn 0.7436455732692662 0.1919062931018267 0.6404398769790495
vn -0.007624095621372019 -0.9999659503396721 -0.0031577408431802145
vn -0.0076099586623280995 -0.9999659556291407 -0.0031900018584520573
vn -0.02279804053719547 0.9996956235560579 -0.00942918822218213
vn -0.02275661928983398 0.9996956688024883 -0.009523972702785299
vn -0.9844778466739357 -0.16341070774727526 -0.06403366303582562
vn -0.9843872754769285 -0.1634331959285496 -0.06535504837187399
vn -0.997988457262192 0.0042110758196651 -0.06325587729113347
vn -0.9979808105857179 0.0042108200446647395 -0.06337642067224229
vn -0.4361542978083574 -0.1621109991854044 0.8851493955521907
vn -0.43735707996046086 -0.16209819257272096 0.884558059469878
vn -0.001077367946352938 -0.9999659502071363 0.008181546592603495
vn -0.0010423449536148119 -0.9999659555007113 0.008185435635741537
vn 0 -1 0
vn -0.18281449632188662 0.19190629613896532 -0.964235880600177
vn -0.1814110078240347 0.19191270827696016 -0.9644996415976889
vn -0.0032331810078257603 0.9996956024197156 0.024459130059202156
vn -0.00313038314921205 0.9996956476512394 0.02447065116641186
vn -0.44421361050405656 0.004208368099512792 0.8959110211850781
vn -0.4441036237844735 0.004208107225369957 0.8959655479844515
vn 0 1 0
vn 0.49808322007127487 0.19034990767053608 0.845978734090431
vn 0.49588899574922723 0.19033209836846854 0.8472707927371738
vn -0.006239128239139097 -0.9999660383276262 -0.005384744206391473
vn -0.006258806261811128 -0.9999660418294204 -0.005361206224263764
vn -0.018640600663749486 0.9996964355969215 -0.01611101057367652
vn -0.018697899346743745 0.9996964650731904 -0.01604263943951166
vn -0.9103939958490314 -0.16633549924158833 -0.3788340982726946
vn -0.9100387186925505 -0.16633880341666396 -0.37968530779888443
vn -0.9231661178843202 0.003411626066092778 -0.38438610744663837
vn -0.9233163901633764 0.0034126489636430763 -0.3840249959087596
vn 6.810875999999985e-8 1 -7.633072999999983e-9
vn -0.12624840351191502 -0.16372800455450384 0.9783938272164707
vn -0.12703590312932245 -0.1637254040331085 0.9782923240986371
vn 0.0015135460633793868 -0.9999660418733437 0.008100881339222508
vn 0.001543754059241659 -0.9999660383737595 0.008095611310669593
vn 0.004544546219166354 0.999696448211596 0.024214841167790626
vn 0.004632373089106146 0.9996964192296891 0.02419939046548807
vn -0.49344702211082864 0.190112008518714 -0.8487446380313314
vn -0.4908114944582744 0.1901407978531307 -0.8502649903997047
vn -0.1290818972899399 0.0034082799284435414 0.9916280791808786
vn -0.12869349536530686 0.003407254877293093 0.9916785642862616
vn 2.3011959999998912e-7 1 -2.0440209999999034e-7
vn 0.15221620224364854 0.18987780279877603 0.9699364142967464
vn 0.15103539905302238 0.18987469880950367 0.9701215939174297
vn -0.004165120904501653 -0.9999655770726801 -0.007176101835465554
vn -0.004232490004239273 -0.9999656010015682 -0.007133221007144653
vn -0.012424169924558668 0.9996922939297258 -0.021469919869631586
vn -0.012625370079290574 0.9996925062783262 -0.021342280134035014
vn -0.7483897771455311 -0.16444649497810176 -0.642549680377696
vn -0.7487793029185845 -0.16445630064101613 -0.6420932025027446
vn -0.7581033020200073 0.0022206570059170607 -0.6521307017376375
vn -0.7573498654796025 0.002215061899036336 -0.6530055702356693
vn 1.262493999999978e-7 1 -1.3735059999999762e-7
vn -1.7026579999999461e-7 1 1.8523739999999413e-7
vn 0.18291000822136605 -0.16308680733036074 0.9695084435770787
vn 0.18230169788852524 -0.1630916981110214 0.9696221887695352
vn 0.004119171859254425 -0.9999655658327612 0.007204135753846097
vn 0.004208943112713325 -0.9999655267785609 0.007157517191674618
vn 0.18571079047898217 0.0022160538863873844 0.982601949623979
vn 0.1868456975207017 0.002210455970668954 0.982386786964485
vn 0.01234023976444156 0.9996921809172321 0.021523519589145203
vn 0.012606810455340503 0.9996918361074821 0.02138460077238211
vn -0.7788407805948044 0.1891372952875526 -0.5980251850999126
vn -0.7782369726118609 0.18913969334369296 -0.5988099789263532
vn -0.2492315926042956 0.19007349435975446 0.9496081718213037
vn -0.25076959910302465 0.19007889932010866 0.9492020966048085
vn -0.0012714910579519785 -0.9999655455763974 -0.008203107373880962
vn -0.0012934050605661724 -0.9999655468253044 -0.00819952838395864
vn -0.0037893771812055224 0.9996920478046157 -0.02452448117274455
vn -0.003851598836433503 0.999692057545909 -0.024514388958943315
vn -0.5004048860775229 -0.16111779551731228 -0.8506679763323544
vn -0.4990742819827974 -0.16110899418376481 -0.8514509692615604
vn -0.5057094796081526 0.0006933997720398709 -0.8627035652129925
vn -0.5046127991246117 0.0006878774988066891 -0.8633454985022921
vn -1.451565999999975e-7 1 1.1645199999999799e-7
vn -1.0486279999999995e-8 1 -2.8909499999999988e-8
vn 0.4954681981157122 -0.1610057993876877 0.85357389675382
vn 0.4937920732892049 -0.16101999128991284 0.8545419537750882
vn 0.00659696908406592 -0.9999653127426705 0.005084615064793822
vn 0.006611296073706511 -0.9999653111481854 0.005066287056481867
vn 0.5016281288230641 0.0006037108346886369 0.8650831497068358
vn 0.5027827889205889 0.0005975430868324341 0.8644125809516504
vn 0.019725530307352142 0.9996900155766085 0.015191320236702622
vn 0.019766770050672677 0.9996900025627338 0.015138480038807925
vn -0.9565311969419985 0.19002049939251017 -0.2212244992927519
vn -0.9570271841070516 0.19003259684420848 -0.2190583963621892
vn -0.5922492720202084 0.1908736909825029 0.7828205630169977
vn -0.5938732211671504 0.19088380680358383 0.7815868278577403
vn 0.0021273719781657054 -0.9999655897368473 -0.008018330917703815
vn 0.0020989929739527275 -0.9999655875910133 -0.008026073900401127
vn 0.006340292980069244 0.9996923968574597 -0.023977329924627092
vn 0.006259615874898962 0.9996923800207302 -0.023999219520365576
vn -0.15270219409575372 -0.16098909377533985 -0.9750715622987561
vn -0.15225449260202287 -0.16098859217763695 -0.975141652618307
vn -0.15457679562622245 -0.0009981502717571632 -0.987980272044925
vn -0.1532481052915328 -0.001004263034676388 -0.9881872341213038
vn 1.6913859999999997e-8 1 2.0112259999999995e-8
vn 9.51266599999993e-8 1 -7.631544999999944e-8
vn 0.7826914898834699 -0.1604570979260423 0.6013713922270884
vn 0.7824143978086373 -0.1604576995505949 0.601731698314688
vn 0.008091820818322843 -0.9999655775488226 0.0018347079588072281
vn 0.00808023974337063 -0.9999655682409753 0.0018899889399737275
vn 0.7926694147288567 -0.001153716021437585 0.6096506113281228
vn 0.7934361268206626 -0.0011591310391823129 0.6086524205743861
vn 0.02418581046837509 0.9996923193597391 0.005505741106622517
vn 0.024151920993084733 0.9996922411055957 0.0056663732329913525
vn -0.9651410421843953 0.1910393083499482 0.17890430781955147
vn -0.9654714701962777 0.19103139410293643 0.17712099453234498
vn -0.8339037893160703 0.1916215975449546 0.5175766933688358
vn -0.8338827299454756 0.19162160688130353 0.517610618587861
vn 0.0050269388876166944 -0.9999656776445565 -0.006585849852765352
vn 0.004984615841441577 -0.9999656681915348 -0.00661936878944081
vn 0.015008169917843468 0.9996931945275589 -0.01970460989213459
vn 0.014882780188317452 0.9996931126494955 -0.019803620250582705
vn 0.25110340277186893 -0.16108980177823087 -0.9544617105360691
vn 0.2516842909005044 -0.16109059417586552 -0.9543085654975422
vn 0.2537922062935244 -0.00238474105913667 -0.9672558239859536
vn 0.2541007999381257 -0.0023854079994191455 -0.9671747997644898
vn -6.776692999999953e-8 1 9.698672999999933e-8
vn 0.9619552120718982 -0.16106650202127748 0.22068020276938977
vn 0.9617096341640573 -0.16106300572164983 0.22175050787753056
vn 0.008141631973232068 -0.9999656967123283 -0.0015229009949930296
vn 0.008149994927898667 -0.9999656911535086 -0.0014812489868956942
vn 0.9743342979009916 -0.0025125099945872992 0.22509189951508451
vn 0.9744014299508481 -0.0025130940772467043 0.22480110690986652
vn 0.024343519550055252 0.9996933815225244 -0.004531665916240572
vn 0.024367800853322442 0.999693335007704 -0.00440978715442388
vn 0.007020819317394891 -0.9999658452061271 -0.004360793197141305
vn 0.007024959315336447 -0.9999658448864772 -0.004354194195451114
vn 0.02098968027238528 0.9996946129731418 -0.013042780169257525
vn 0.021002560206752705 0.9996946098411604 -0.0130222701281934
vn 0.5965700038601659 -0.16462060106519408 -0.7854962050826317
vn 0.5973785102882767 -0.16464200283552632 -0.7848770135174463
vn 0.6034155929253379 -0.0030111319646964024 -0.7974211906507462
vn 0.603391622066557 -0.0030111001101185532 -0.7974393291630506
vn 0.9696871479072005 -0.1647378911500756 -0.1804667903050996
vn 0.9698365590212786 -0.16472199303996474 -0.17967669240808046
vn 0.9835635507812223 -0.00305237684725516 -0.18053649096572313
vn 0.9835484764700219 -0.003052429926975018 -0.1806185956789607
vn 0.8375903991134065 -0.1682237998219343 -0.519752899449839
vn 0.8375714502961839 -0.16822381010184348 -0.5197834312130064
vn 0.8495242735625218 -0.003190588900707811 -0.5275398835827831
vn 0.8495601385930038 -0.0031905821449387077 -0.5274821239619524
vn -1.8640699999998378e-7 1 3.737326999999675e-7
vn 2.777273999999799e-7 1 -2.595701999999813e-7
usemtl material_0_0
f 1//1 2//2 3//3
f 2//2 1//1 4//4
f 4//4 5//5 2//2
f 5//5 4//4 6//6
f 7//7 8//8 9//9
f 8//8 7//7 10//10
f 1//1 11//11 12//12
f 11//11 1//1 3//3
f 13//13 14//14 15//15
f 14//14 13//13 16//16
f 6//6 17//17 5//5
f 17//17 6//6 18//18
f 19//19 10//10 7//7
f 10//10 19//19 20//20
f 16//16 21//21 14//14
f 21//21 16//16 22//22
f 9//9 23//23 24//24
f 23//23 9//9 8//8
f 25//25 26//26 27//27
f 26//26 25//25 28//28
f 12//12 29//29 30//30
f 29//29 12//12 11//11
f 31//31 15//15 32//32
f 15//15 31//31 13//13
f 33//33 34//34 35//35
f 34//34 33//33 36//36
f 18//18 37//37 17//17
f 37//37 18//18 38//38
f 19//19 39//39 20//20
f 39//39 19//19 40//40
f 41//41 21//21 22//22
f 21//21 41//41 42//42
f 43//43 27//27 44//44
f 27//27 43//43 25//25
f 45//45 35//35 46//46
f 35//35 45//45 33//33
f 47//47 28//28 48//48
f 28//28 47//47 26//26
f 24//24 49//49 50//50
f 49//49 24//24 23//23
f 51//51 52//51 53//51
f 54//52 29//29 55//53
f 29//29 54//52 30//30
f 56//54 32//32 57//55
f 32//32 56//54 31//31
f 34//34 58//56 59//57
f 58//56 34//34 36//36
f 60//58 61//58 62//58
f 63//59 38//38 64//60
f 38//38 63//59 37//37
f 40//40 65//61 39//39
f 65//61 40//40 66//62
f 67//63 42//42 41//41
f 42//42 67//63 68//64
f 69//65 44//44 70//66
f 44//44 69//65 43//43
f 71//67 45//45 46//46
f 45//45 71//67 72//68
f 73//69 74//69 75//69
f 76//51 77//51 52//51
f 78//70 48//48 79//71
f 48//48 78//70 47//47
f 49//49 80//72 50//50
f 80//72 49//49 81//73
f 76//51 52//51 51//51
f 82//74 56//54 57//55
f 56//54 82//74 83//75
f 84//76 55//53 85//77
f 55//53 84//76 54//52
f 59//57 86//78 87//79
f 86//78 59//57 58//56
f 88//80 89//80 90//80
f 91//81 64//60 92//82
f 64//60 91//81 63//59
f 66//62 93//83 65//61
f 93//83 66//62 94//84
f 95//85 68//64 67//63
f 68//64 95//85 96//86
f 97//87 70//66 98//88
f 70//66 97//87 69//65
f 99//89 71//67 100//90
f 71//67 99//89 72//68
f 101//91 102//91 103//91
f 104//92 105//92 106//92
f 107//51 77//51 76//51
f 107//51 108//51 77//51
f 78//70 109//93 110//94
f 109//93 78//70 79//71
f 81//73 111//95 80//72
f 111//95 81//73 112//96
f 87//79 113//97 114//98
f 113//97 87//79 86//78
f 115//99 83//75 82//74
f 83//75 115//99 116//100
f 117//101 85//77 118//102
f 85//77 117//101 84//76
f 91//81 119//103 120//104
f 119//103 91//81 92//82
f 94//84 121//105 93//83
f 121//105 94//84 122//106
f 123//107 96//86 95//85
f 96//86 123//107 124//108
f 97//87 125//109 126//110
f 125//109 97//87 98//88
f 127//111 100//90 128//112
f 100//90 127//111 99//89
f 129//113 130//113 131//113
f 132//114 133//114 134//114
f 135//51 108//51 107//51
f 135//51 136//51 108//51
f 110//94 137//115 138//116
f 137//115 110//94 109//93
f 112//96 139//117 111//95
f 139//117 112//96 140//118
f 114//98 141//119 142//120
f 141//119 114//98 113//97
f 143//121 116//100 115//99
f 116//100 143//121 144//122
f 145//123 118//102 146//124
f 118//102 145//123 117//101
f 120//104 147//125 148//126
f 147//125 120//104 119//103
f 121//105 149//127 150//128
f 149//127 121//105 122//106
f 151//129 123//107 152//130
f 123//107 151//129 124//108
f 126//110 153//131 154//132
f 153//131 126//110 125//109
f 155//133 128//112 156//134
f 128//112 155//133 127//111
f 157//135 158//135 159//135
f 160//136 161//136 162//136
f 163//51 136//51 135//51
f 163//51 164//51 136//51
f 138//116 165//137 166//138
f 165//137 138//116 137//115
f 140//118 167//139 139//117
f 167//139 140//118 168//140
f 142//120 169//141 170//142
f 169//141 142//120 141//119
f 171//143 144//122 143//121
f 144//122 171//143 172//144
f 173//145 145//123 146//124
f 145//123 173//145 174//146
f 147//125 175//147 148//126
f 175//147 147//125 176//148
f 150//128 177//149 178//150
f 177//149 150//128 149//127
f 179//151 152//130 180//152
f 152//130 179//151 151//129
f 181//153 153//131 182//154
f 153//131 181//153 154//132
f 183//155 156//134 184//156
f 156//134 183//155 155//133
f 185//58 186//58 187//58
f 188//157 189//157 190//157
f 163//51 191//51 164//51
f 191//51 192//51 164//51
f 165//137 193//158 166//138
f 193//158 165//137 194//159
f 168//140 195//160 167//139
f 195//160 168//140 196//161
f 170//142 197//162 198//163
f 197//162 170//142 169//141
f 199//164 172//144 171//143
f 172//144 199//164 200//165
f 176//148 173//145 175//147
f 173//145 176//148 174//146
f 178//150 201//166 202//167
f 201//166 178//150 177//149
f 203//168 180//152 204//169
f 180//152 203//168 179//151
f 205//170 182//154 206//171
f 182//154 205//170 181//153
f 207//172 184//156 208//173
f 184//156 207//172 183//155
f 185//58 209//58 210//58
f 185//58 187//58 209//58
f 191//51 211//51 192//51
f 211//51 212//51 192//51
f 194//159 213//174 193//158
f 213//174 194//159 214//175
f 202//167 195//160 196//161
f 195//160 202//167 201//166
f 197//162 215//176 198//163
f 215//176 197//162 216//177
f 199//164 204//169 200//165
f 204//169 199//164 203//168
f 217//178 206//171 218//179
f 206//171 217//178 205//170
f 219//180 207//172 208//173
f 207//172 219//180 220//181
f 221//182 222//182 223//182
f 224//183 225//183 226//183
f 211//51 227//51 212//51
f 227//51 228//51 212//51
f 214//175 218//179 213//174
f 218//179 214//175 217//178
f 216//177 219//180 215//176
f 219//180 216//177 220//181
