# SSTK version 0.8.0
# 2
mtllib original_2.mtl
o #ID103
v 0.05231707 0.51641417 -0.06923679
v -0.03866352 -0.02245023 -0.04394253
v -0.06427283 0.51643092 -0.06917334
v 0.02683766 -0.02247543 -0.04399855
v -0.06447655 0.51639097 0.04638693
v 0.05216251 0.51641822 -0.06898143
v -0.06419429 0.51627734 -0.06903453
v 0.05239247 0.51638344 0.04625752
v 0.05228683 0.51630890 -0.06908053
v 0.02655985 -0.02252211 0.02124878
v 0.02659461 -0.02243750 -0.04400067
v 0.05227873 0.51642234 0.04647056
v 0.02666680 -0.02218537 0.02125176
v -0.03872962 -0.02248898 -0.04398273
v 0.02657555 -0.02246744 -0.04404570
v -0.03863686 -0.02221160 0.02120249
v -0.06446404 0.51620498 0.04643707
v -0.03882601 -0.02256510 -0.04401809
v -0.03862469 -0.02239713 0.02135619
v -0.06437911 0.51638179 -0.06925078
v -0.03866634 -0.02241632 0.02123262
v 0.05224100 0.51632551 0.04632697
v -0.06439391 0.51641933 0.04647950
v 0.02656894 -0.02238695 0.02126741
vn 0 -0.04650125147541958 -0.9989182316942764
vn 0 1 0
vn 0.9988718303205093 -0.04748754144147267 0
vn 0 -1 0
vn -0.9988718360125785 -0.047487421712076004 0
vn 0 -0.04650125147541958 0.9989182316942764
usemtl material_0_0
f 1//1 2//1 3//1
f 2//1 1//1 4//1
f 5//2 6//2 7//2
f 6//2 5//2 8//2
f 9//3 10//3 11//3
f 10//3 9//3 12//3
f 13//4 14//4 15//4
f 14//4 13//4 16//4
f 17//5 18//5 19//5
f 18//5 17//5 20//5
f 21//6 22//6 23//6
f 22//6 21//6 24//6
