# SSTK version 0.8.0
# 11
mtllib original_11.mtl
o #ID43
v 0.01969581 0.80208186 0.44515406
v 0.01953283 0.79118548 0.51900257
v 0.01969184 0.75973038 0.47739222
v 0.01961349 0.83367107 0.48685862
v 0.01970753 0.79119605 0.51891203
v -0.03200437 0.75983560 0.47732171
v 0.01966171 0.75987622 0.47718381
v -0.03196628 0.79120457 0.51890658
v 0.01975395 0.80207645 0.44517698
v -0.03186609 0.75967287 0.47721991
v -0.03189205 0.80209769 0.44534012
v 0.01965231 0.75972311 0.47730855
v -0.03201862 0.83358518 0.48673822
v 0.01972446 0.80218100 0.44526705
v -0.03205935 0.80211350 0.44517172
v 0.01959207 0.83368941 0.48679686
v -0.03210919 0.79125160 0.51888417
v 0.01978459 0.83357065 0.48686504
v -0.03204640 0.83353856 0.48688267
v 0.01968254 0.79127212 0.51895377
v -0.03196182 0.79120079 0.51902581
v -0.03204777 0.80215437 0.44508291
v -0.03197949 0.75990229 0.47734158
v -0.03201192 0.83355451 0.48691853
vn 1 0 0
vn -3.9266259657258873e-7 -0.7979967930345716 0.6026616947395818
vn 5.185949750807163e-7 -0.6053705709110159 -0.7959437617536819
vn 3.926609991879448e-7 0.7979979983496746 -0.6026600987536495
vn -5.185937111219297e-7 0.6053718129830011 0.7959428170700489
vn -1 -8.96449099999632e-7 -1.3204599999994578e-7
usemtl material_0_0
f 1//1 2//1 3//1
f 2//1 1//1 4//1
f 5//2 6//2 7//2
f 6//2 5//2 8//2
f 9//3 10//3 11//3
f 10//3 9//3 12//3
f 13//4 14//4 15//4
f 14//4 13//4 16//4
f 17//5 18//5 19//5
f 18//5 17//5 20//5
f 21//6 22//6 23//6
f 22//6 21//6 24//6
