# SSTK version 0.8.0
# 7
mtllib original_7.mtl
o #ID23
v -0.11235732 0.40678301 0.09516127
v -0.18643758 0.39698664 -0.01129087
v -0.15636018 0.40691542 -0.01127742
v -0.13357683 0.39699934 0.11648622
v -0.11239737 0.40689739 -0.11753654
v -0.13355039 0.39701425 -0.13878687
v -0.15635417 0.51358070 -0.01113875
v -0.11246624 0.40699717 0.09513790
v -0.15650079 0.40677596 -0.01124394
v -0.11231587 0.51349566 0.09504864
v -0.00602153 0.40695039 0.13910705
v -0.00603717 0.39688489 0.16910744
v -0.13406071 0.51885777 0.11670624
v -0.18649167 0.39701156 -0.01121793
v -0.13377428 0.39686937 0.11633213
v -0.18714488 0.51887282 -0.01108055
v -0.00611901 0.40695935 -0.16166397
v -0.00604203 0.39691762 -0.19183337
v -0.11246907 0.51358657 -0.11756509
v -0.15641293 0.40693817 -0.01119488
v -0.11243674 0.40668664 -0.11767982
v -0.15644531 0.51355970 -0.01140826
v -0.18712959 0.51882345 -0.01139321
v -0.13354507 0.39709889 -0.13868081
v -0.18654914 0.39691213 -0.01112910
v -0.13395711 0.51894706 -0.13931255
v -0.11251295 0.51362302 0.09508643
v -0.15655100 0.51362517 -0.01121406
v 0.10022432 0.51358679 0.09511951
v -0.00586199 0.51366142 0.13919797
v -0.11242681 0.40692840 0.09518066
v -0.11230546 0.51362112 0.09494123
v -0.00598804 0.40681776 0.13931094
v 0.12163702 0.39698744 0.11635581
v 0.10026964 0.40692062 0.09513185
v -0.13368495 0.39687552 0.11642266
v -0.00602477 0.51874334 0.16980271
v -0.13401054 0.51883644 0.11687444
v -0.00606019 0.39686642 0.16925034
v -0.13392921 0.51895133 0.11692639
v -0.08937992 0.54010049 -0.01104959
v -0.18703148 0.51876614 -0.01104365
v -0.06488707 0.54002553 0.04750415
v -0.00603811 0.51879027 -0.19222215
v -0.13343965 0.39699840 -0.13881403
v -0.13408647 0.51869231 -0.13923082
v -0.00603381 0.39695487 -0.19157225
v 0.12160949 0.39697323 -0.13884691
v 0.10039202 0.40682040 -0.11753062
v -0.00603582 0.40675304 -0.16172157
v -0.11238757 0.51365155 -0.11762622
v -0.11242015 0.40689005 -0.11771799
v -0.00599528 0.51358333 -0.16154768
v 0.14445888 0.51352050 -0.01126437
v -0.11234320 0.51368466 -0.11751881
v -0.06480041 0.54018603 -0.06999117
v -0.13407206 0.51888269 -0.13917624
v -0.00591562 0.51357093 0.13932056
v 0.10032634 0.51349926 0.09509762
v -0.00590209 0.40687006 0.13929393
v -0.00612739 0.51349694 0.13920419
v 0.10038457 0.40681847 0.09508823
v 0.14450188 0.40698549 -0.01115707
v 0.17438733 0.39692212 -0.01115529
v 0.12151701 0.39713572 0.11651794
v -0.00595665 0.51894280 0.16972721
v -0.00606753 0.39701796 0.16922924
v 0.12190946 0.51879627 0.11680447
v -0.00605045 0.53999837 0.07203474
v -0.00596970 0.51862725 0.16977790
v -0.06450296 0.65661903 0.04754987
v -0.08939322 0.54020504 -0.01140434
v -0.06470492 0.54008020 0.04764832
v -0.08901913 0.65666140 -0.01123821
v -0.00595157 0.53999838 -0.09443482
v -0.00612901 0.51886109 -0.19234322
v 0.12209036 0.51882616 -0.13915597
v -0.00607828 0.39712375 -0.19177520
v -0.00602589 0.51886571 -0.19223135
v 0.12143192 0.39710268 -0.13881928
v 0.10024038 0.40684169 -0.11766211
v -0.00600098 0.51352039 -0.16169475
v -0.00591150 0.40692473 -0.16152128
v 0.10031877 0.51366198 -0.11766759
v -0.00609009 0.51343814 -0.16166757
v 0.10040083 0.51345213 -0.11760010
v -0.08912425 0.65672764 -0.01138661
v -0.06502014 0.54001862 -0.07010251
v -0.08916648 0.54006751 -0.01126819
v -0.06465870 0.65665215 -0.06985053
v 0.10045084 0.51340939 0.09518027
v 0.14448078 0.40684099 -0.01110954
v 0.10048262 0.40699580 0.09511268
v 0.14453869 0.51363843 -0.01118992
v 0.17507989 0.51887496 -0.01114509
v 0.12165043 0.39692356 0.11621540
v 0.17426114 0.39693295 -0.01119687
v 0.12189298 0.51893628 0.11693468
v 0.12209535 0.51878532 0.11675728
v 0.05265617 0.54004755 0.04755109
v -0.00604473 0.54020230 0.07213344
v -0.06467101 0.65660041 0.04731308
v -0.06501062 0.54001501 0.04770589
v -0.00613812 0.65669700 0.07183210
v -0.06480459 0.65668328 0.04732181
v -0.06466014 0.65673764 -0.06982358
v -0.08902141 0.65661828 -0.01134252
v -0.06459127 0.65646167 -0.06972271
v -0.00598988 0.54011497 -0.09450248
v -0.06478749 0.54009704 -0.07025059
v -0.00613959 0.65667242 -0.09408945
v 0.12196400 0.51892874 -0.13912660
v 0.05266551 0.54018777 -0.07011566
v 0.12205679 0.51873671 -0.13919100
v 0.17450417 0.39709543 -0.01128581
v 0.12157987 0.39711698 -0.13900742
v 0.17514593 0.51897432 -0.01106641
v 0.14447569 0.51349880 -0.01124685
v 0.10028245 0.40687072 -0.11775881
v 0.14432902 0.40694806 -0.01121345
v 0.10047354 0.51343143 -0.11760112
v 0.17512103 0.51882271 -0.01138853
v 0.07708120 0.54004809 -0.01120224
v 0.05276854 0.54019697 0.04760054
v -0.00613525 0.65657724 0.07164534
v -0.00613399 0.54017249 0.07189467
v 0.05261188 0.65654004 0.04730659
v -0.00615061 0.65662286 0.07180910
v 0.05251659 0.65654305 -0.06984963
v -0.00603208 0.54015789 -0.09446110
v -0.00609049 0.65659211 -0.09420426
v 0.05268437 0.54027058 -0.06998404
v -0.00605063 0.65666265 -0.09398925
v 0.07681522 0.65661732 -0.01130979
v 0.05280852 0.54021943 0.04767484
v 0.07731793 0.54007243 -0.01119411
v 0.05269278 0.65658900 0.04757209
v 0.05261880 0.65678297 0.04739135
v 0.05275217 0.65657801 -0.06997870
v 0.07720889 0.54013244 -0.01127652
v 0.05265539 0.53999731 -0.07015473
v 0.07698559 0.65669610 -0.01117616
v 0.05261870 0.65678544 -0.06983400
v 0.07679059 0.65663047 -0.01113307
vn 0.2217009894350336 -0.9495774547487184 -0.2217009894350336
vn 0.3135324910545224 -0.9495774729073565 -1.5652629553410729e-7
vn 0.31353249105452624 -0.949577472907368 1.2522629642713728e-8
vn 0.22170088943503616 -0.9495774547487089 -0.22170108943502664
vn 0.22170080418042368 -0.9495775179053764 0.22170090418042557
vn 0.22170090418042557 -0.9495775179053764 0.22170080418042368
vn 0.9238794684822172 0 -0.3826835869449008
vn -2.5819729263330852e-8 -0.9495774729073678 -0.31353249105452613
vn -1.2037549656553667e-8 -0.949577472907368 -0.31353249105452624
vn -0.9238697769333498 -0.004587249885468179 0.3826794904454782
vn -2.200747006210497e-8 -0.9495775026797028 0.3135324008847868
vn -1.7246760048670267e-8 -0.9495775026797028 0.3135324008847868
vn 0.9238793831268214 0 0.3826837930108929
vn -0.9238697787768017 -0.004586814894631382 -0.38267949120906114
vn 0 -1 0
vn 0.38268370765557813 0 -0.9238794184821849
vn -0.2217009992652951 -0.9495774968531524 -0.22170079926529576
vn -0.22170069926528946 -0.949577496853124 -0.22170109926528814
vn -0.3826132970234215 -0.00450587796494607 0.923897592812446
vn -0.14966299810568476 0.9772869876302783 0.15003709810094973
vn -0.2118244087997523 0.9773077405999767 -6.299982261718108e-8
vn -0.21182440879975264 0.9773077405999782 -3.02087212549511e-8
vn -0.14966229582092738 0.9772869727108742 0.1500378958104394
vn -0.38267940594644684 -0.004586762071273595 -0.9238698143559926
vn -0.22170089926529765 -0.949577496853162 0.22170089926529765
vn 0.38268370765557813 0 0.9238794184821849
vn -0.14978250261757656 0.9773077170792831 -0.14978260261757828
vn -0.3826839137215721 0 -0.9238793331267566
vn -0.3135323107150364 -0.9495775324520233 -1.2798770437400825e-7
vn -0.3135323107150379 -0.9495775324520277 8.582768293318054e-8
vn 0.3826137946552919 -0.004505802937058721 0.9238973870941353
vn 7.686069245905736e-8 0.9771994312642182 0.21232350679301298
vn 1.1131140356126247e-7 0.977199431264215 0.21232350679301232
vn -0.9238776233757777 0.0020200830511117613 0.3826827096825659
vn -1.569759031960655e-8 0.97730771989821 -0.21182450431279562
vn -1.0965530223260719e-8 0.9773077198982102 -0.21182450431279568
vn 0.38267940572352577 -0.004586889068603581 -0.9238698138178135
vn -0.38268370765557813 0 0.9238794184821849
vn -0.9238774678081675 0.0020198159296209955 -0.3826830866656886
vn -0.9238791770604823 0 -0.3826842904981157
vn 0.9238697798616019 -0.004586558900022761 0.38267949165840026
vn 0.14966309586578003 0.9772869730039039 0.15003709585544883
vn 0.1496623935810422 0.9772869580845689 0.15003789356493716
vn -0.38268270978537827 0.00201995005165108 0.9238776236239887
vn 0 1 0
vn -0.3826830867329338 0.0020197289299789347 -0.9238774679705115
vn 0.1497825048610572 0.9773077317176482 -0.1497825048610572
vn 0.9238698149916177 -0.004586612074426867 -0.3826794062097314
vn -0.9238794684822172 0 0.3826835869449008
vn 0.21182450431279562 0.97730771989821 1.5507620315738718e-8
vn 0.21182450431279562 0.97730771989821 2.219977045199243e-8
vn 0.38268288058195243 0.0020198388975095835 0.9238775531207191
vn 0.38268250382295727 0.002019816020177746 -0.9238777092294396
vn 0.9238778299399459 0.002019816065455823 0.38268221240151495
vn 0.9238778800427058 0.0020197609563698143 -0.38268209173343226
usemtl material_0_0
f 1//1 2//2 3//3
f 2//2 1//1 4//4
f 5//5 2//2 6//6
f 2//2 5//5 3//3
f 7//7 8//7 9//7
f 8//7 7//7 10//7
f 11//8 4//4 1//1
f 4//4 11//8 12//9
f 13//10 14//10 15//10
f 14//10 13//10 16//10
f 17//11 6//6 18//12
f 6//6 17//11 5//5
f 19//13 20//13 21//13
f 20//13 19//13 22//13
f 23//14 24//14 25//14
f 24//14 23//14 26//14
f 27//15 28//15 29//15
f 30//16 31//16 32//16
f 31//16 30//16 33//16
f 34//17 11//8 35//18
f 11//8 34//17 12//9
f 36//19 37//19 38//19
f 37//19 36//19 39//19
f 40//20 41//21 42//22
f 41//21 40//20 43//23
f 44//24 45//24 46//24
f 45//24 44//24 47//24
f 48//25 17//11 18//12
f 17//11 48//25 49//25
f 50//26 51//26 52//26
f 51//26 50//26 53//26
f 54//15 28//15 55//15
f 42//22 56//27 57//27
f 56//27 42//22 41//21
f 29//15 28//15 54//15
f 58//15 27//15 29//15
f 59//28 60//28 61//28
f 60//28 59//28 62//28
f 34//17 63//29 64//30
f 63//29 34//17 35//18
f 65//31 66//31 67//31
f 66//31 65//31 68//31
f 40//20 69//32 43//23
f 69//32 40//20 70//33
f 71//34 72//34 73//34
f 72//34 71//34 74//34
f 57//27 75//35 76//36
f 75//35 57//27 56//27
f 77//37 78//37 79//37
f 78//37 77//37 80//37
f 64//30 49//25 48//25
f 49//25 64//30 63//29
f 81//38 82//38 83//38
f 82//38 81//38 84//38
f 55//15 85//15 86//15
f 54//15 55//15 86//15
f 87//39 88//39 89//39
f 88//39 87//39 90//39
f 91//40 92//40 93//40
f 92//40 91//40 94//40
f 95//41 96//41 97//41
f 96//41 95//41 98//41
f 69//32 99//42 100//43
f 99//42 69//32 70//33
f 101//44 102//44 103//44
f 102//44 101//44 104//44
f 105//45 106//45 107//45
f 108//46 109//46 110//46
f 109//46 108//46 111//46
f 75//35 112//47 76//36
f 112//47 75//35 113//47
f 114//48 115//48 116//48
f 115//48 114//48 117//48
f 118//49 119//49 120//49
f 119//49 118//49 121//49
f 100//43 122//50 123//51
f 122//50 100//43 99//42
f 124//52 125//52 126//52
f 125//52 124//52 127//52
f 128//45 106//45 105//45
f 129//53 130//53 131//53
f 130//53 129//53 132//53
f 128//45 133//45 106//45
f 113//47 122//50 112//47
f 122//50 113//47 123//51
f 134//54 135//54 136//54
f 135//54 134//54 137//54
f 128//45 138//45 133//45
f 139//55 140//55 141//55
f 140//55 139//55 142//55
f 138//45 143//45 133//45
f 138//45 144//45 143//45
