# SSTK version 0.8.0
# 8
mtllib original_8.mtl
o group_2/ID30#ID30
v -0.06783815 1.03229608 0.05047711
v -0.06343197 0.76797532 -0.06868324
v -0.06425209 0.76808089 0.04697094
v -0.06725402 1.03208111 -0.07158927
v 0.04947881 0.76813450 -0.06747807
v -0.06434300 0.76793922 0.04690401
v -0.06324817 0.76807989 -0.06868944
v 0.05154568 0.76818274 0.04692359
v -0.06436620 0.76812655 0.04701696
v 0.05467302 1.03229706 0.05079325
v -0.06771286 1.03222926 0.05039194
v 0.05156171 0.76815343 0.04680570
v -0.06775106 1.03237518 0.05043930
v 0.05353321 1.03221633 -0.06983644
v -0.06721385 1.03224534 -0.07151956
v 0.05446571 1.03217637 0.05073278
v 0.05361781 1.03211757 -0.06992683
v -0.06338473 0.76808875 -0.06854455
v -0.06726686 1.03229744 -0.07152723
v 0.04942343 0.76802380 -0.06758891
v 0.05355562 1.03222150 -0.07004037
v 0.05155270 0.76814852 0.04698858
v 0.04954077 0.76816749 -0.06763922
v 0.05459923 1.03210372 0.05071218
vn -0.9998856874112563 -0.013833279825836476 -0.006103480923156058
vn 0 -1 0
vn -0.0005639578787604106 -0.013883369477129273 0.9999034623419766
vn 0 1 0
vn 0.011676999918117463 -0.010161069928747607 -0.9998801929885478
vn 0.9998644256292863 -0.012596430322881295 -0.010604730271828521
vn 0.9997711312607328 -0.014756520461405246 -0.015489680484329612
vn 0.9997037845086856 -0.01601201975187927 -0.018329169715972933
vn 0.9999040552146866 -0.01139181948976484 -0.007880787647022588
usemtl material_0_0
f 1//1 2//1 3//1
f 2//1 1//1 4//1
f 5//2 6//2 7//2
f 6//2 5//2 8//2
f 9//3 10//3 11//3
f 10//3 9//3 12//3
f 13//4 14//4 15//4
f 14//4 13//4 16//4
f 17//5 18//5 19//5
f 18//5 17//5 20//5
f 21//6 22//7 23//8
f 24//9 22//7 21//6
