# SSTK version 0.8.0
# 1
mtllib original_1.mtl
o #ID97
v 0.01612753 -0.38722849 0.01098132
v -0.02819877 0.06319675 0.01076440
v -0.02803082 -0.38712052 0.01080186
v 0.01610252 0.06331327 0.01088406
v -0.02805822 0.06329307 0.01074518
v -0.02815514 -0.38709746 -0.03339230
v -0.02793223 -0.38726325 0.01089834
v -0.02818217 0.06328668 -0.03349112
v 0.01602207 -0.38705384 0.01084425
v -0.02810564 -0.38705454 -0.03326593
v 0.01589114 -0.38721437 -0.03347038
v -0.02820795 -0.38698187 0.01073027
v 0.01605410 0.06317535 -0.03322688
v 0.01603163 -0.38706144 0.01076061
v 0.01612286 -0.38704325 -0.03316332
v 0.01607211 0.06334500 0.01086639
v -0.02800776 0.06315505 0.01097287
v 0.01618428 0.06316291 -0.03333941
v -0.02824508 0.06343263 -0.03315135
v 0.01607529 0.06344673 0.01085495
v 0.01596321 0.06336500 -0.03338553
v -0.02823273 -0.38715730 -0.03325928
v -0.02806630 0.06315635 -0.03345093
v 0.01597957 -0.38715094 -0.03324239
vn 0 0 1
vn -1 0 0
vn 0 -1 0
vn 1 0 0.0000015258789999982235
vn 0 1 0
vn 0 0 -1
usemtl material_0_0
f 1//1 2//1 3//1
f 2//1 1//1 4//1
f 5//2 6//2 7//2
f 6//2 5//2 8//2
f 9//3 10//3 11//3
f 10//3 9//3 12//3
f 13//4 14//4 15//4
f 14//4 13//4 16//4
f 17//5 18//5 19//5
f 18//5 17//5 20//5
f 21//6 22//6 23//6
f 22//6 21//6 24//6
