# SSTK version 0.8.0
# 18
mtllib original_18.mtl
o #ID78
v 0.00697669 -0.51512593 -0.34223811
v -0.03662789 -0.53295704 -0.34197366
v -0.03655318 -0.51517417 -0.34211236
v 0.00691446 -0.53273224 -0.34199637
v 0.00725278 -0.51525255 -0.34219992
v 0.00701184 -0.53273046 -0.29862462
v 0.00695926 -0.53285470 -0.34186273
v 0.00709930 -0.51513786 -0.29833982
v 0.00698094 -0.53286682 -0.29843644
v -0.03643582 -0.53282701 -0.34199584
v 0.00694507 -0.53282268 -0.34189986
v -0.03658932 -0.53284856 -0.29842045
v -0.03659671 -0.51514867 -0.29815500
v -0.03647665 -0.53276686 -0.34206519
v -0.03647284 -0.53283885 -0.29844099
v -0.03678547 -0.51523588 -0.34206946
v -0.03658037 -0.51513356 -0.29823030
v 0.00702376 -0.51525873 -0.34207775
v -0.03670537 -0.51514143 -0.34206483
v 0.00704877 -0.51508716 -0.29829540
v -0.03663344 -0.53277118 -0.29858295
v 0.00703552 -0.51510210 -0.29821095
v -0.03673870 -0.51531469 -0.29843897
v 0.00692276 -0.53297101 -0.29836220
vn 0 -0.009898654070517954 -0.9999510071236453
vn 0.9999510071236453 -0.009898654070517954 0
vn 0 -1 0
vn -0.9999510071236453 -0.009898654070517954 0
vn 0 1 0
vn 3.873102991014975e-7 -0.009899607977034377 0.9999509976802619
usemtl material_0_0
f 1//1 2//1 3//1
f 2//1 1//1 4//1
f 5//2 6//2 7//2
f 6//2 5//2 8//2
f 9//3 10//3 11//3
f 10//3 9//3 12//3
f 13//4 14//4 15//4
f 14//4 13//4 16//4
f 17//5 18//5 19//5
f 18//5 17//5 20//5
f 21//6 22//6 23//6
f 22//6 21//6 24//6
