# SSTK version 0.8.0
# 11
mtllib original_11.mtl
o #ID2205
v 0.00096825 0.78408577 -0.01351369
v 0.00256025 -0.31661475 -0.01133584
v 0.00265728 0.78427299 -0.01146034
v 0.00108999 -0.31652004 -0.01343582
v 0.00112766 -0.31669025 -0.01324459
v 0.00102331 0.78415786 -0.01338700
v 0.00262297 -0.31647962 -0.01147410
v 0.00271646 0.78410138 -0.01125483
v 0.00355242 -0.31668723 -0.00899362
v 0.00358123 0.78412746 -0.00895292
v 0.00348108 -0.31660508 -0.00899384
v 0.00372568 0.78417906 -0.00888733
v -0.00097981 -0.31662023 -0.01492617
v -0.00096494 0.78424444 -0.01504761
v -0.00103113 0.78423557 -0.01499859
v -0.00106961 -0.31653103 -0.01488398
v 0.00402071 -0.31646560 -0.00647170
v 0.00410999 0.78406882 -0.00656461
v 0.00400463 -0.31657733 -0.00639067
v 0.00411129 0.78407066 -0.00639996
v -0.00345402 -0.31655091 -0.01589489
v -0.00332847 0.78425520 -0.01597489
v -0.00330886 0.78414894 -0.01583113
v -0.00341293 -0.31655536 -0.01612979
v 0.00361740 -0.31677274 -0.00381513
v 0.00348494 0.78431115 -0.00378661
v 0.00362553 -0.31654632 -0.00388926
v 0.00369677 0.78420593 -0.00375820
v -0.00594726 -0.31675127 -0.01638513
v -0.00605241 0.78408677 -0.01626023
v -0.00603194 0.78439538 -0.01615805
v -0.00596599 -0.31648156 -0.01644371
v 0.00262516 -0.31658007 -0.00134914
v 0.00267420 0.78411003 -0.00147718
v 0.00275096 -0.31657859 -0.00150649
v 0.00265016 0.78415338 -0.00142052
v -0.00837152 -0.31654882 -0.01602888
v -0.00849708 0.78426955 -0.01599296
v -0.00857073 0.78437349 -0.01600447
v -0.00854817 -0.31673679 -0.01589630
v 0.00104040 -0.31645879 0.00049011
v 0.00095319 0.78414042 0.00072129
v 0.00109926 -0.31661242 0.00041819
v 0.00118396 0.78430921 0.00058851
v -0.01074769 -0.31653584 -0.01496287
v -0.01071663 0.78427643 -0.01504182
v -0.01088108 0.78413111 -0.01501011
v -0.01092963 -0.31671940 -0.01491933
v -0.00091842 0.78419014 0.00227398
v -0.00098165 -0.31658700 0.00213838
v -0.00107466 0.78415606 0.00234053
v -0.00105518 -0.31652085 0.00224817
v -0.01291097 -0.31654259 -0.01345038
v -0.01285264 0.78435964 -0.01337976
v -0.01291351 0.78405348 -0.01342675
v -0.01305353 -0.31652680 -0.01356718
v -0.00347149 0.78414606 0.00305874
v -0.00336650 -0.31656182 0.00307463
v -0.00340469 0.78423587 0.00307601
v -0.00351287 -0.31654810 0.00311718
v -0.01450540 0.78434005 -0.01138391
v -0.01457411 -0.31664088 -0.01136479
v -0.01446925 0.78428821 -0.01154003
v -0.01445974 -0.31651657 -0.01149562
v -0.00599557 0.78420284 0.00339252
v -0.00602952 -0.31642719 0.00350560
v -0.00600962 0.78408822 0.00342052
v -0.00604195 -0.31663104 0.00345446
v -0.01563974 0.78417216 -0.00901514
v -0.01546971 -0.31672489 -0.00888286
v -0.01556608 0.78423735 -0.00892618
v -0.01551112 -0.31674036 -0.00895589
v -0.00857142 0.78412821 0.00324802
v -0.00846508 -0.31672430 0.00319163
v -0.00838357 0.78432505 0.00316590
v -0.00845781 -0.31669634 0.00304584
v -0.01582311 0.78437245 -0.00651947
v -0.01582907 -0.31665581 -0.00624231
v -0.01587205 0.78419320 -0.00639002
v -0.01581346 -0.31674877 -0.00626443
v -0.01084798 0.78415067 0.00214713
v -0.01078255 -0.31652181 0.00200572
v -0.01089482 0.78428185 0.00210715
v -0.01103757 -0.31654675 0.00232218
v -0.01554090 0.78422663 -0.00374817
v -0.01547459 -0.31675662 -0.00386709
v -0.01549244 0.78431753 -0.00387658
v -0.01563162 -0.31654833 -0.00368941
v -0.01289010 0.78419343 0.00060366
v -0.01285696 -0.31657432 0.00044952
v -0.01298189 0.78422923 0.00063515
v -0.01289362 -0.31649764 0.00052377
v -0.01459475 0.78408784 -0.00134456
v -0.01458403 -0.31667223 -0.00138716
v -0.01455947 0.78420589 -0.00141382
v -0.01467341 -0.31664462 -0.00140371
vn -0.7071067811865476 0 0.7071067811865476
vn -0.866025402838329 0 0.5000000016387101
vn 0.7071067811865476 0 -0.7071067811865476
vn 0.866025402838329 0 -0.5000000016387101
vn -0.9659258358036645 0 0.25881900959356163
vn 0.9659258358036645 0 -0.25881900959356163
vn -0.5000000016387101 0 0.866025402838329
vn 0.5000000016387101 0 -0.866025402838329
vn -1 0 0
vn 1 0 0
vn -0.25881900959356163 0 0.9659258358036645
vn 0.25881900959356163 0 -0.9659258358036645
vn -0.9659258358036645 0 -0.25881900959356163
vn 0.9659258358036645 0 0.25881900959356163
vn 0 0 1
vn 0 0 -1
vn -0.866025402838329 0 -0.5000000016387101
vn 0.866025402838329 0 0.5000000016387101
vn 0.25881900959356163 0 0.9659258358036645
vn -0.25881900959356163 0 -0.9659258358036645
vn -0.7071067811865476 0 -0.7071067811865476
vn 0.7071067811865476 0 0.7071067811865476
vn 0.5000000016387101 0 0.866025402838329
vn -0.5000000016387101 0 -0.866025402838329
usemtl material_0_0
f 1//1 2//2 3//2
f 2//2 1//1 4//1
f 5//3 6//3 7//4
f 8//4 7//4 6//3
f 3//2 9//5 10//5
f 9//5 3//2 2//2
f 7//4 8//4 11//6
f 12//6 11//6 8//4
f 1//1 13//7 4//1
f 13//7 1//1 14//7
f 15//8 6//3 16//8
f 5//3 16//8 6//3
f 10//5 17//9 18//9
f 17//9 10//5 9//5
f 11//6 12//6 19//10
f 20//10 19//10 12//6
f 14//7 21//11 13//7
f 21//11 14//7 22//11
f 23//12 15//8 24//12
f 16//8 24//12 15//8
f 18//9 25//13 26//13
f 25//13 18//9 17//9
f 19//10 20//10 27//14
f 28//14 27//14 20//10
f 22//11 29//15 21//11
f 29//15 22//11 30//15
f 31//16 23//12 32//16
f 24//12 32//16 23//12
f 26//13 33//17 34//17
f 33//17 26//13 25//13
f 27//14 28//14 35//18
f 36//18 35//18 28//14
f 30//15 37//19 29//15
f 37//19 30//15 38//19
f 39//20 31//16 40//20
f 32//16 40//20 31//16
f 34//17 41//21 42//21
f 41//21 34//17 33//17
f 35//18 36//18 43//22
f 44//22 43//22 36//18
f 38//19 45//23 37//19
f 45//23 38//19 46//23
f 47//24 39//20 48//24
f 40//20 48//24 39//20
f 49//24 41//21 50//24
f 41//21 49//24 42//21
f 44//22 51//23 43//22
f 52//23 43//22 51//23
f 46//23 53//22 45//23
f 53//22 46//23 54//22
f 55//21 47//24 56//21
f 48//24 56//21 47//24
f 57//20 50//24 58//20
f 50//24 57//20 49//24
f 51//23 59//19 52//23
f 60//19 52//23 59//19
f 53//22 61//18 62//18
f 61//18 53//22 54//22
f 55//21 56//21 63//17
f 64//17 63//17 56//21
f 65//16 58//20 66//16
f 58//20 65//16 57//20
f 59//19 67//15 60//19
f 68//15 60//19 67//15
f 62//18 69//14 70//14
f 69//14 62//18 61//18
f 63//17 64//17 71//13
f 72//13 71//13 64//17
f 73//12 66//16 74//12
f 66//16 73//12 65//16
f 67//15 75//11 68//15
f 76//11 68//15 75//11
f 70//14 77//10 78//10
f 77//10 70//14 69//14
f 71//13 72//13 79//9
f 80//9 79//9 72//13
f 81//8 74//12 82//8
f 74//12 81//8 73//12
f 75//11 83//7 76//11
f 84//7 76//11 83//7
f 78//10 85//6 86//6
f 85//6 78//10 77//10
f 79//9 80//9 87//5
f 88//5 87//5 80//9
f 89//3 82//8 90//3
f 82//8 89//3 81//8
f 83//7 91//1 84//7
f 92//1 84//7 91//1
f 86//6 93//4 94//4
f 93//4 86//6 85//6
f 87//5 88//5 95//2
f 96//2 95//2 88//5
f 94//4 89//3 90//3
f 89//3 94//4 93//4
f 95//2 96//2 91//1
f 92//1 91//1 96//2
