# SSTK version 0.8.0
# 7
mtllib original_7.mtl
o #ID2185
v -0.01624415 0.82300725 -0.10230821
v 0.00411186 0.82284985 -0.10206995
v -0.00586456 0.82283826 -0.10268992
v 0.01423855 0.82295396 -0.10062563
v -0.02603239 0.82300475 -0.10056532
v 0.02393872 0.82306900 -0.09780590
v -0.03602547 0.82295670 -0.09793614
v 0.03349673 0.82292749 -0.09448620
v -0.04542645 0.82291225 -0.09417562
v 0.04242277 0.82277408 -0.08961352
v -0.05441632 0.82297681 -0.08958764
v 0.05105259 0.82298848 -0.08434282
v -0.06281660 0.82286790 -0.08402105
v 0.05886736 0.82296384 -0.07789557
v -0.07075170 0.82285777 -0.07784963
v 0.06596347 0.82284368 -0.07074364
v -0.07778906 0.82279633 -0.07070459
v 0.07252827 0.82284342 -0.06274514
v -0.08443343 0.82282114 -0.06260847
v 0.07804897 0.82304429 -0.05442355
v -0.08996764 0.82282303 -0.05396914
v 0.08269612 0.82286213 -0.04520780
v -0.09444148 0.82289054 -0.04515430
v 0.08622598 0.82307020 -0.03569980
v -0.09790125 0.82282818 -0.03543406
v 0.08882075 0.82298382 -0.02615699
v -0.10082154 0.82294428 -0.02577040
v 0.09045663 0.82287684 -0.01611254
v -0.10212051 0.82298687 -0.01583174
v 0.09112133 0.82290900 -0.00572699
v -0.10277596 0.82292240 -0.00584093
v 0.09046767 0.82294088 0.00420513
v -0.10218682 0.82306450 0.00437143
v 0.08897926 0.82295141 0.01424789
v -0.10059933 0.82292552 0.01452533
v 0.08628298 0.82281937 0.02405792
v -0.09790264 0.82290122 0.02430649
v 0.08269025 0.82292701 0.03363097
v -0.09439125 0.82294262 0.03380954
v 0.07809230 0.82296156 0.04262677
v -0.08975698 0.82294882 0.04270345
v 0.07249322 0.82291699 0.05091157
v -0.08403937 0.82305521 0.05108702
v 0.06623403 0.82296615 0.05894571
v -0.07789683 0.82295643 0.05915572
v 0.05911890 0.82280659 0.06620930
v -0.07053321 0.82293201 0.06616034
v 0.05135471 0.82295813 0.07249420
v -0.06266109 0.82287415 0.07267877
v 0.04259519 0.82306634 0.07816557
v -0.05421091 0.82279856 0.07817577
v 0.03361541 0.82283651 0.08276291
v -0.04521280 0.82298251 0.08271391
v 0.02412205 0.82304482 0.08628838
v -0.03567564 0.82294513 0.08650811
v 0.01446193 0.82302360 0.08897720
v -0.02591877 0.82306321 0.08896433
v 0.00435895 0.82301430 0.09063407
v -0.01594348 0.82298632 0.09057624
v -0.00569583 0.82289955 0.09122453
v -0.00562453 0.82292021 0.09100393
v -0.01575768 0.82308894 0.09070899
v 0.00422803 0.82278987 0.09041362
v -0.02585872 0.82302501 0.08895972
v 0.01429364 0.82295807 0.08903793
v -0.03575957 0.82287522 0.08648743
v 0.02403536 0.82302962 0.08648287
v -0.04502742 0.82284507 0.08266662
v 0.03374861 0.82302452 0.08265121
v -0.05420244 0.82281787 0.07830948
v 0.04280637 0.82296743 0.07803742
v -0.06264894 0.82281369 0.07257037
v 0.05112304 0.82292429 0.07258007
v -0.07060479 0.82308303 0.06624444
v 0.05920978 0.82298491 0.06609327
v -0.07796421 0.82309796 0.05915115
v 0.06619504 0.82285822 0.05895311
v -0.08422565 0.82280119 0.05118039
v 0.07253252 0.82294058 0.05115706
v -0.08976003 0.82286731 0.04284917
v 0.07805399 0.82291641 0.04248970
v -0.09421657 0.82298596 0.03381360
v 0.08271210 0.82303948 0.03354795
v -0.09803215 0.82300787 0.02420704
v 0.08635922 0.82289519 0.02403872
v -0.10065204 0.82289315 0.01443907
v 0.08893370 0.82286118 0.01434886
v -0.10227934 0.82309008 0.00451603
v 0.09039591 0.82288124 0.00415461
v -0.10268920 0.82275126 -0.00578954
v 0.09110755 0.82278370 -0.00579565
v -0.10231386 0.82284141 -0.01578181
v 0.09058367 0.82290004 -0.01610736
v -0.10071224 0.82292983 -0.02563244
v 0.08882646 0.82294054 -0.02601875
v -0.09804645 0.82300528 -0.03578679
v 0.08618247 0.82276282 -0.03583177
v -0.09434922 0.82302951 -0.04502589
v 0.08268865 0.82309426 -0.04537647
v -0.08974823 0.82287372 -0.05402376
v 0.07813760 0.82284687 -0.05443023
v -0.08438330 0.82291989 -0.06247844
v 0.07258964 0.82294955 -0.06284156
v -0.07780092 0.82307011 -0.07053074
v 0.06622180 0.82292180 -0.07072628
v -0.07069285 0.82300670 -0.07758800
v 0.05884047 0.82288042 -0.07772532
v -0.06285292 0.82293068 -0.08409063
v 0.05108985 0.82302828 -0.08429816
v -0.05454321 0.82302155 -0.08952246
v 0.04254063 0.82299152 -0.08968799
v -0.04531380 0.82286430 -0.09443772
v 0.03338045 0.82298288 -0.09437355
v -0.03588464 0.82292982 -0.09795683
v 0.02407661 0.82289009 -0.09797976
v -0.02607900 0.82281783 -0.10056462
v 0.01415006 0.82286319 -0.10069770
v -0.01593387 0.82288365 -0.10219483
v 0.00423280 0.82289536 -0.10224017
v -0.00602512 0.82287598 -0.10260734
v 0.01438099 0.82300774 0.08913681
v 0.00447256 0.65539500 0.09046908
v 0.00439895 0.82300345 0.09066369
v 0.01452145 0.65524683 0.08898142
v 0.01449776 0.65536585 0.08907846
v 0.01444339 0.82289934 0.08908823
v 0.00436913 0.65548712 0.09062129
v 0.00441314 0.82300884 0.09074467
v 0.02410948 0.82284129 0.08644200
v 0.02410926 0.65534289 0.08622754
v 0.02418442 0.65547913 0.08624227
v 0.02420023 0.82286914 0.08639851
v 0.03378595 0.82296678 0.08271854
v 0.03368571 0.65550382 0.08265213
v 0.03369519 0.65541027 0.08257816
v 0.03355032 0.82296018 0.08275768
v 0.04273900 0.82290263 0.07820651
v 0.04258794 0.65544061 0.07797303
v 0.04259017 0.65547025 0.07803134
v 0.04275697 0.82290927 0.07812296
v 0.05127389 0.82297244 0.07247843
v 0.05130232 0.65544189 0.07252181
v 0.05115559 0.65526369 0.07265384
v 0.05122399 0.82291862 0.07245449
v 0.05898774 0.82300918 0.06630167
v 0.05896937 0.65533477 0.06615153
v 0.05903785 0.65531194 0.06610632
v 0.05912692 0.82290355 0.06605572
v 0.06632104 0.65533896 0.05903618
v 0.06607089 0.82291185 0.05893545
v 0.06638519 0.82281164 0.05897902
v 0.06620914 0.65522341 0.05890408
v 0.07256684 0.65533210 0.05112008
v 0.07264719 0.82287436 0.05106857
v 0.07249152 0.82294158 0.05101348
v 0.07274421 0.65554018 0.05102273
v 0.07811729 0.65530651 0.04259319
v 0.07803047 0.82294574 0.04253413
v 0.07811984 0.82294460 0.04271691
v 0.07806302 0.65544949 0.04265015
v 0.08276601 0.65540273 0.03354281
v 0.08272309 0.82284712 0.03357633
v 0.08269818 0.82301671 0.03356175
v 0.08265571 0.65533114 0.03350706
v 0.08628307 0.65539975 0.02404171
v 0.08645246 0.82297626 0.02409096
v 0.08637572 0.82294835 0.02398406
v 0.08630000 0.65544682 0.02404367
v 0.08899962 0.65549594 0.01418038
v 0.08898961 0.82290053 0.01417937
v 0.08899755 0.82294015 0.01436231
v 0.08903204 0.65535830 0.01410733
v 0.09050489 0.65537047 0.00418102
v 0.09047745 0.82295810 0.00413700
v 0.09056267 0.82301770 0.00415901
v 0.09064008 0.65551650 0.00423664
v 0.09110188 0.65529765 -0.00601443
v 0.09115008 0.82301979 -0.00577938
v 0.09118038 0.82295624 -0.00597827
v 0.09114466 0.65530605 -0.00590074
v 0.09042803 0.65529022 -0.01603543
v 0.09047677 0.82277961 -0.01606162
v 0.09055211 0.82278451 -0.01600571
v 0.09057617 0.65549698 -0.01604853
v 0.08889845 0.65530038 -0.02599239
v 0.08885197 0.82282202 -0.02595064
v 0.08891813 0.82293996 -0.02615108
v 0.08880566 0.65543665 -0.02607377
v 0.08638068 0.65548842 -0.03580600
v 0.08622216 0.82277938 -0.03578128
v 0.08625556 0.82298401 -0.03580978
v 0.08635407 0.65554717 -0.03596959
v 0.08262658 0.65538770 -0.04528048
v 0.08258561 0.82275199 -0.04518585
v 0.08260990 0.82296717 -0.04519115
v 0.08251218 0.65530270 -0.04533494
v 0.07790969 0.65541097 -0.05428361
v 0.07810534 0.82296972 -0.05443650
v 0.07792723 0.82301009 -0.05443511
v 0.07815556 0.65537416 -0.05439832
v 0.07246192 0.65528009 -0.06278966
v 0.07244621 0.82300252 -0.06289965
v 0.07248412 0.82283501 -0.06285137
v 0.07241115 0.65541250 -0.06279439
v 0.06599891 0.65539140 -0.07070816
v 0.06593545 0.82295954 -0.07063620
v 0.06618146 0.82297723 -0.07074196
v 0.06614140 0.65537119 -0.07065441
v 0.05891318 0.82309438 -0.07800054
v 0.05898380 0.65528310 -0.07794550
v 0.05881301 0.82303738 -0.07790340
v 0.05888557 0.65526433 -0.07784891
v 0.05100233 0.82287540 -0.08422095
v 0.05103917 0.65532490 -0.08418294
v 0.05112346 0.82304340 -0.08412689
v 0.05111694 0.65531617 -0.08431043
v 0.04246973 0.82296905 -0.08971580
v 0.04265516 0.65523959 -0.08961293
v 0.04238988 0.82297447 -0.08979398
v 0.04245749 0.65542055 -0.08972737
v 0.03348598 0.82301073 -0.09439402
v 0.03365319 0.65534833 -0.09430770
v 0.03345174 0.82308984 -0.09441691
v 0.03348805 0.65526452 -0.09439231
v 0.02400478 0.82300315 -0.09806924
v 0.02402089 0.65552608 -0.09805443
v 0.02403770 0.82288589 -0.09787733
v 0.02404548 0.65531361 -0.09790935
v 0.01418656 0.82292967 -0.10046147
v 0.01415218 0.65537864 -0.10054386
v 0.01435900 0.82310188 -0.10066061
v 0.01405791 0.65535727 -0.10049565
v 0.00418618 0.82303221 -0.10218294
v 0.00415411 0.65519878 -0.10203520
v 0.00408742 0.82305838 -0.10209396
v 0.00418236 0.65547370 -0.10207720
v -0.00593702 0.82291280 -0.10277996
v -0.00581031 0.65553427 -0.10270684
v -0.00588896 0.82292703 -0.10253970
v -0.00587282 0.65525629 -0.10254841
v -0.01608334 0.82298368 -0.10229122
v -0.01597978 0.65536434 -0.10206910
v -0.01602109 0.82290887 -0.10209454
v -0.01619271 0.65532846 -0.10210730
v -0.02620287 0.82291302 -0.10040895
v -0.02602023 0.65549198 -0.10058614
v -0.02613179 0.82292161 -0.10064488
v -0.02626436 0.65546675 -0.10067090
v -0.03575276 0.82292786 -0.09798826
v -0.03584750 0.65545896 -0.09791580
v -0.03589833 0.82300958 -0.09791696
v -0.03579423 0.65541534 -0.09790659
v -0.04543380 0.82293163 -0.09430503
v -0.04549546 0.65541026 -0.09437931
v -0.04529819 0.82300727 -0.09420293
v -0.04541693 0.65527120 -0.09433737
v -0.05452521 0.82289452 -0.08967809
v -0.05419397 0.65539674 -0.08967639
v -0.05434628 0.82299993 -0.08949441
v -0.05422491 0.65531386 -0.08978036
v -0.06282658 0.82309129 -0.08421475
v -0.06285335 0.65537567 -0.08411673
v -0.06288400 0.82301913 -0.08405849
v -0.06293533 0.65544935 -0.08406870
v -0.07075241 0.82287725 -0.07781765
v -0.07086867 0.65549145 -0.07772446
v -0.07081064 0.82279406 -0.07784547
v -0.07065129 0.65529677 -0.07774014
v -0.07799033 0.65544524 -0.07052265
v -0.07793292 0.82293481 -0.07062990
v -0.07793220 0.82293961 -0.07045386
v -0.07784079 0.65532712 -0.07064017
v -0.08428531 0.65550148 -0.06263152
v -0.08436512 0.82276104 -0.06260735
v -0.08434119 0.82292560 -0.06254467
v -0.08425105 0.65546567 -0.06266432
v -0.08995738 0.65546935 -0.05429305
v -0.08987469 0.82283006 -0.05414776
v -0.08979934 0.82294575 -0.05405937
v -0.08975029 0.65548962 -0.05404208
v -0.09452425 0.65543490 -0.04510367
v -0.09429608 0.82287503 -0.04510068
v -0.09445718 0.82283902 -0.04518808
v -0.09451333 0.65537933 -0.04500284
v -0.09804688 0.65527301 -0.03565399
v -0.09806275 0.82302027 -0.03563393
v -0.09805410 0.82292807 -0.03566648
v -0.09802584 0.65534505 -0.03563379
v -0.10072947 0.65538025 -0.02571739
v -0.10067673 0.82303955 -0.02589531
v -0.10076940 0.82285965 -0.02595202
v -0.10074762 0.65525139 -0.02585678
v -0.10222699 0.65537572 -0.01572639
v -0.10233932 0.82301431 -0.01587232
v -0.10226947 0.82284857 -0.01591866
v -0.10238912 0.65543630 -0.01580538
v -0.10278010 0.65534215 -0.00570446
v -0.10261758 0.82305512 -0.00575828
v -0.10283925 0.82297771 -0.00555348
v -0.10278568 0.65536830 -0.00576127
v -0.10222699 0.65544128 0.00458676
v -0.10223676 0.82295478 0.00451864
v -0.10208776 0.82295984 0.00446228
v -0.10219226 0.65539895 0.00446071
v -0.10058678 0.65532982 0.01452911
v -0.10061761 0.82309880 0.01463984
v -0.10054085 0.82282886 0.01462847
v -0.10052844 0.65534229 0.01439484
v -0.09791339 0.65536365 0.02434068
v -0.09777633 0.82294576 0.02443314
v -0.09797922 0.82304452 0.02434473
v -0.09794517 0.65524264 0.02422680
v -0.09425414 0.65538266 0.03371429
v -0.09424502 0.82277862 0.03384803
v -0.09416083 0.82292135 0.03376197
v -0.09427932 0.65543881 0.03358066
v -0.08957905 0.65549125 0.04267914
v -0.08974393 0.82291983 0.04287380
v -0.08969522 0.82294415 0.04277904
v -0.08978658 0.65529128 0.04282261
v -0.08413406 0.65537632 0.05117300
v -0.08406319 0.82298743 0.05116615
v -0.08410919 0.82294201 0.05114342
v -0.08411921 0.65535357 0.05134461
v -0.07774487 0.65523209 0.05913136
v -0.07768047 0.82295202 0.05898078
v -0.07762249 0.82305029 0.05922727
v -0.07784603 0.65550703 0.05920922
v -0.07072086 0.82297009 0.06613303
v -0.07063105 0.65522530 0.06618220
v -0.07066371 0.65539067 0.06632211
v -0.07055825 0.82275367 0.06645162
v -0.06267730 0.82274929 0.07249195
v -0.06264147 0.65526586 0.07267041
v -0.06262951 0.65549340 0.07256401
v -0.06287302 0.82287645 0.07281978
v -0.05414199 0.82296468 0.07814136
v -0.05413040 0.65537045 0.07812910
v -0.05424517 0.65533085 0.07836594
v -0.05421664 0.82297876 0.07821837
v -0.04509562 0.82304290 0.08272274
v -0.04517452 0.65531765 0.08293670
v -0.04518411 0.65539773 0.08282964
v -0.04513738 0.82287556 0.08290526
v -0.03578719 0.82305906 0.08628811
v -0.03570708 0.65537155 0.08630379
v -0.03566401 0.65541944 0.08656398
v -0.03566070 0.82296648 0.08642704
v -0.02587976 0.82283130 0.08908472
v -0.02584855 0.65540302 0.08893781
v -0.02587202 0.65546283 0.08903453
v -0.02593426 0.82300495 0.08897984
v -0.01585856 0.82292836 0.09076436
v -0.01583256 0.65539464 0.09061054
v -0.01585639 0.65536477 0.09066410
v -0.01580491 0.82293773 0.09057606
v -0.00583133 0.82275421 0.09123210
v -0.00573340 0.65531401 0.09097212
v -0.00577778 0.65528620 0.09118118
v -0.00571072 0.82298221 0.09120890
v 0.01446166 0.65540712 0.08895987
v 0.00497504 0.66111786 0.09586211
v 0.00437765 0.65521682 0.09053886
v 0.01554646 0.66116191 0.09409915
v 0.01544936 0.66126728 0.09418253
v 0.01437531 0.65523273 0.08902888
v 0.00495665 0.66108788 0.09575183
v 0.00450527 0.65546580 0.09057152
v 0.02417011 0.65528912 0.08627707
v 0.02588118 0.66107675 0.09130989
v 0.02570587 0.66127147 0.09129974
v 0.02432772 0.65541891 0.08643205
v 0.03366979 0.65529058 0.08253123
v 0.03579305 0.66129001 0.08752046
v 0.03578109 0.66128004 0.08738926
v 0.03367181 0.65536230 0.08258305
v 0.04519319 0.66116148 0.08257463
v 0.04268986 0.65546925 0.07806818
v 0.04523495 0.66101444 0.08264738
v 0.04270699 0.65537305 0.07821268
v 0.05425310 0.66099071 0.07676003
v 0.05116603 0.65544946 0.07254716
v 0.05423406 0.66125365 0.07679193
v 0.05105073 0.65551702 0.07253837
v 0.06260371 0.66108294 0.07013412
v 0.05906216 0.65541114 0.06614102
v 0.06267207 0.66100190 0.06996036
v 0.05910740 0.65551689 0.06620771
v 0.07022707 0.66130289 0.06255020
v 0.06624785 0.65550469 0.05904278
v 0.07004840 0.66122784 0.06251554
v 0.06623030 0.65536738 0.05907381
v 0.07683459 0.66110747 0.05407201
v 0.07255915 0.65542163 0.05113210
v 0.07702285 0.66123019 0.05410810
v 0.07260327 0.65537220 0.05105091
v 0.08256393 0.66113003 0.04518778
v 0.07814102 0.65546322 0.04258686
v 0.08280656 0.66108024 0.04526670
v 0.07811547 0.65537415 0.04257023
v 0.08740126 0.66110516 0.03559364
v 0.08259885 0.65539601 0.03366208
v 0.08734912 0.66118793 0.03584490
v 0.08265056 0.65553094 0.03356784
v 0.09118241 0.66104682 0.02571207
v 0.08641463 0.65537304 0.02406334
v 0.09138289 0.66134226 0.02557745
v 0.08632526 0.65533852 0.02410752
v 0.09416290 0.66115051 0.01540028
v 0.08894402 0.65526503 0.01427513
v 0.09411546 0.66117611 0.01547513
v 0.08908402 0.65551063 0.01431303
v 0.09570525 0.66133119 0.00485457
v 0.09035364 0.65550505 0.00420981
v 0.09565621 0.66119609 0.00480128
v 0.09049774 0.65536086 0.00434568
v 0.09629304 0.66124164 -0.00585477
v 0.09097864 0.65542861 -0.00572916
v 0.09615054 0.66119251 -0.00593222
v 0.09112535 0.65533276 -0.00589513
v 0.09573441 0.66110545 -0.01658375
v 0.09051300 0.65544518 -0.01618664
v 0.09555544 0.66110822 -0.01649553
v 0.09043020 0.65536927 -0.01607594
v 0.09389101 0.66103785 -0.02712646
v 0.08889046 0.65523179 -0.02613545
v 0.09395835 0.66113585 -0.02717402
v 0.08888928 0.65528003 -0.02597730
v 0.09131918 0.66113759 -0.03739408
v 0.08637157 0.65549535 -0.03583209
v 0.09117989 0.66113426 -0.03749402
v 0.08629431 0.65539540 -0.03586045
v 0.08726856 0.66105776 -0.04736098
v 0.08263555 0.65545956 -0.04524558
v 0.08743477 0.66104259 -0.04750760
v 0.08262013 0.65542218 -0.04521476
v 0.07803697 0.65538921 -0.05437855
v 0.08249874 0.66117905 -0.05685526
v 0.07811634 0.65541553 -0.05425574
v 0.08254191 0.66111580 -0.05691046
v 0.07256743 0.65534054 -0.06294215
v 0.07673195 0.66111754 -0.06601094
v 0.07250785 0.65542191 -0.06280188
v 0.07663884 0.66117090 -0.06587933
v 0.06596119 0.65546917 -0.07084232
v 0.06992047 0.66123681 -0.07415874
v 0.06620435 0.65532881 -0.07055442
v 0.06994622 0.66126392 -0.07418270
v 0.05892721 0.65536279 -0.07795312
v 0.06242183 0.66120401 -0.08173565
v 0.05890067 0.65524452 -0.07785353
v 0.06241886 0.66123111 -0.08179469
v 0.05088862 0.65547854 -0.08425932
v 0.05411779 0.66117139 -0.08842824
v 0.05109224 0.65531393 -0.08407830
v 0.05410938 0.66104493 -0.08845768
v 0.04254602 0.65550629 -0.08975019
v 0.04515702 0.66122727 -0.09428340
v 0.04262339 0.65533352 -0.08973035
v 0.04519555 0.66129811 -0.09437825
v 0.03340553 0.65543712 -0.09429404
v 0.03555454 0.66114822 -0.09916596
v 0.03349841 0.65550375 -0.09440899
v 0.03569536 0.66131953 -0.09906166
v 0.02565703 0.66115460 -0.10287533
v 0.02407491 0.65545606 -0.09799799
v 0.02549788 0.66112467 -0.10287538
v 0.02384911 0.65533334 -0.09784431
v 0.01529265 0.66119171 -0.10561681
v 0.01426943 0.65520995 -0.10053447
v 0.01530310 0.66113738 -0.10574023
v 0.01424428 0.65527342 -0.10056686
v 0.00473050 0.66114463 -0.10745755
v 0.00424790 0.65537968 -0.10210625
v 0.00486810 0.66102269 -0.10725169
v 0.00422592 0.65542675 -0.10209816
v -0.00590457 0.65540929 -0.10273492
v -0.00597242 0.66121487 -0.10800318
v -0.00600763 0.65544369 -0.10268215
v -0.00583421 0.66110616 -0.10796161
v -0.01611175 0.65538417 -0.10213780
v -0.01665704 0.66119923 -0.10741146
v -0.01605395 0.65527012 -0.10217655
v -0.01668023 0.66125078 -0.10730441
v -0.02621732 0.65534904 -0.10064184
v -0.02717885 0.66130283 -0.10571362
v -0.02613363 0.65532027 -0.10059174
v -0.02721707 0.66122493 -0.10577798
v -0.03582137 0.65540056 -0.09781857
v -0.03752694 0.66109958 -0.10279431
v -0.03600014 0.65532553 -0.09788303
v -0.03753069 0.66111679 -0.10290428
v -0.04531634 0.65543720 -0.09413023
v -0.04742128 0.66123039 -0.09903387
v -0.04548233 0.65526891 -0.09425633
v -0.04742972 0.66123818 -0.09892797
v -0.05688051 0.66097670 -0.09417157
v -0.05441314 0.65523418 -0.08965794
v -0.05438345 0.65541277 -0.08958818
v -0.05707534 0.66119079 -0.09408833
v -0.06606736 0.66107504 -0.08825922
v -0.06295878 0.65548007 -0.08420000
v -0.06276545 0.65537541 -0.08414452
v -0.06589049 0.66121105 -0.08834458
v -0.07427955 0.66114347 -0.08164515
v -0.07082226 0.65542879 -0.07763000
v -0.07081057 0.65545067 -0.07769073
v -0.07409143 0.66114771 -0.08162087
v -0.08193579 0.66115407 -0.07400946
v -0.07782641 0.65523468 -0.07057037
v -0.07802904 0.65546185 -0.07051038
v -0.08183047 0.66118272 -0.07395724
v -0.08861268 0.66108723 -0.06563331
v -0.08433718 0.65526677 -0.06249220
v -0.08424063 0.65521434 -0.06271288
v -0.08842800 0.66127178 -0.06573518
v -0.09430039 0.66123240 -0.05664500
v -0.08990956 0.65547592 -0.05406184
v -0.08977539 0.65535384 -0.05405303
v -0.09420673 0.66133977 -0.05677187
v -0.09916309 0.66117888 -0.04728422
v -0.09431082 0.65534753 -0.04508249
v -0.09429581 0.65532744 -0.04504516
v -0.09908296 0.66112040 -0.04726330
v -0.10280702 0.66106350 -0.03716191
v -0.09800374 0.65538231 -0.03556251
v -0.10313056 0.66132962 -0.03722796
v -0.09794346 0.65540912 -0.03576465
v -0.10569118 0.66106128 -0.02683385
v -0.10076626 0.65532702 -0.02592211
v -0.10581288 0.66113928 -0.02698541
v -0.10047711 0.65541158 -0.02571534
v -0.10746779 0.66123354 -0.01638719
v -0.10218503 0.65531224 -0.01594788
v -0.10740506 0.66105637 -0.01646990
v -0.10218332 0.65525198 -0.01576054
v -0.10795023 0.66116744 -0.00553976
v -0.10273759 0.65536328 -0.00580252
v -0.10804370 0.66112134 -0.00567796
v -0.10269349 0.65535515 -0.00567283
v -0.10756151 0.66127217 0.00500814
v -0.10212365 0.65534019 0.00436453
v -0.10733391 0.66107795 0.00493502
v -0.10225313 0.65542679 0.00452908
v -0.10562783 0.66113835 0.01546709
v -0.10068872 0.65535356 0.01445842
v -0.10574639 0.66131724 0.01566463
v -0.10066762 0.65541955 0.01460677
v -0.10284954 0.66128639 0.02589668
v -0.09803045 0.65537156 0.02422350
v -0.10290798 0.66110600 0.02592669
v -0.09794137 0.65543519 0.02443211
v -0.09895821 0.66112965 0.03586645
v -0.09436758 0.65531069 0.03377428
v -0.09906971 0.66124545 0.03600858
v -0.09445662 0.65540092 0.03370762
v -0.08975532 0.65541102 0.04281504
v -0.09422482 0.66104237 0.04537295
v -0.09424632 0.66104563 0.04537850
v -0.08961394 0.65538283 0.04275257
v -0.08417678 0.65527056 0.05115164
v -0.08853890 0.66127076 0.05418093
v -0.08839546 0.66117830 0.05434785
v -0.08414387 0.65548240 0.05133493
v -0.07793549 0.65538800 0.05913381
v -0.08179655 0.66124012 0.06245845
v -0.08161554 0.66128120 0.06262623
v -0.07795158 0.65543521 0.05920503
v -0.07074313 0.65521857 0.06641933
v -0.07399008 0.66127973 0.07026092
v -0.07410250 0.66121011 0.07020367
v -0.07048063 0.65537800 0.06638403
v -0.06261424 0.65550521 0.07259162
v -0.06569063 0.66104935 0.07689493
v -0.06591915 0.66118745 0.07686006
v -0.06277142 0.65527030 0.07264928
v -0.05410982 0.65529301 0.07822103
v -0.05682588 0.66133896 0.08275763
v -0.05674000 0.66110496 0.08275399
v -0.05425209 0.65550532 0.07807976
v -0.04499127 0.65541950 0.08277998
v -0.04729305 0.66111879 0.08768726
v -0.04718452 0.66109717 0.08753800
v -0.04500542 0.65539330 0.08273884
v -0.03718282 0.66116974 0.09144716
v -0.03567534 0.65541902 0.08636600
v -0.03574081 0.65530023 0.08640398
v -0.03729782 0.66108242 0.09142471
v -0.02692977 0.66106138 0.09419122
v -0.02593941 0.65552983 0.08907918
v -0.02575091 0.65532465 0.08899355
v -0.02706474 0.66110917 0.09416152
v -0.01642628 0.66130785 0.09593104
v -0.01589636 0.65529537 0.09055350
v -0.01584604 0.65537617 0.09043642
v -0.01635246 0.66111757 0.09581253
v -0.00571492 0.66121501 0.09618417
v -0.00566997 0.65538277 0.09095371
v -0.00585189 0.65532934 0.09121008
v -0.00574055 0.66106925 0.09634824
vn 0 1 0
vn 0 -1 0
vn -0.20900280860748408 0 -0.9779150402740432
vn -0.10563789612845041 0 -0.9944046635558155
vn 0.20900280860748408 0 0.9779150402740432
vn 0.10563789612845041 0 0.9944046635558155
vn -0.31007788606605363 0 -0.950711157277965
vn 0.31007788606605363 0 0.950711157277965
vn -0.4077556028072811 0 -0.9130911062863721
vn 0.4077556028072811 0 0.9130911062863721
vn -0.5009659097558578 0 -0.865467016854187
vn 0.5009659097558578 0 0.865467016854187
vn -0.5886875017776184 0 -0.8083607024409503
vn 0.5886875017776184 0 0.8083607024409503
vn -0.669959314370182 0 -0.7423978159239396
vn 0.669959314370182 0 0.7423978159239396
vn -0.7438908883342957 0 -0.6683010895196957
vn 0.7438908883342957 0 0.6683010895196957
vn -0.8096722726976167 0 -0.5868822802101598
vn 0.8096722726976167 0 0.5868822802101598
vn -0.8665826956404218 0 -0.49903349748947723
vn 0.8665826956404218 0 0.49903349748947723
vn -0.9139986680203159 0 -0.405717185804457
vn 0.9139986680203159 0 0.405717185804457
vn -0.9514006975629967 0 -0.30795569921117455
vn 0.9514006975629967 0 0.30795569921117455
vn -0.9783789490591898 0 -0.2068202892315824
vn 0.9783789490591898 0 0.2068202892315824
vn -0.9946378998459058 0 -0.10341879998397785
vn 0.9946378998459058 0 0.10341879998397785
vn -0.9999993776478693 0 0.00111566297506254
vn 0.9999993776478693 0 -0.00111566297506254
vn -0.9944046635558155 0 0.10563789612845041
vn 0.9944046635558155 0 -0.10563789612845041
vn -0.9779150402740432 0 0.20900280860748408
vn 0.9779150402740432 0 -0.20900280860748408
vn -0.950711157277965 0 0.31007788606605363
vn 0.950711157277965 0 -0.31007788606605363
vn -0.9130911062863721 0 0.4077556028072811
vn 0.9130911062863721 0 -0.4077556028072811
vn -0.865467016854187 0 0.5009659097558578
vn 0.865467016854187 0 -0.5009659097558578
vn -0.8083607024409503 0 0.5886875017776184
vn 0.8083607024409503 0 -0.5886875017776184
vn -0.7423978159239396 0 0.669959314370182
vn 0.7423978159239396 0 -0.669959314370182
vn -0.6683010895196957 0 0.7438908883342957
vn 0.6683010895196957 0 -0.7438908883342957
vn -0.5868822802101598 0 0.8096722726976167
vn 0.5868822802101598 0 -0.8096722726976167
vn -0.49903349748947723 0 0.8665826956404218
vn 0.49903349748947723 0 -0.8665826956404218
vn -0.405717185804457 0 0.9139986680203159
vn 0.405717185804457 0 -0.9139986680203159
vn -0.30795569921117455 0 0.9514006975629967
vn 0.30795569921117455 0 -0.9514006975629967
vn -0.2068202892315824 0 0.9783789490591898
vn 0.2068202892315824 0 -0.9783789490591898
vn -0.10341879998397785 0 0.9946378998459058
vn 0.10341879998397785 0 -0.9946378998459058
vn 0.00111566297506254 0 0.9999993776478693
vn -0.00111566297506254 0 -0.9999993776478693
vn 0.15503620247436697 -0.6706321107032416 0.7254077115774563
vn 0.07836118729117973 -0.6706320768173272 0.7376395745009857
vn -0.15503620247436697 0.6706321107032416 -0.7254077115774563
vn -0.07836118729117973 0.6706320768173272 -0.7376395745009857
vn 0.23001269197405919 -0.6706320765993202 0.7052281753921423
vn -0.23001269197405919 0.6706320765993202 -0.7052281753921423
vn 0.302469090670459 -0.6706320793146153 0.6773219791082681
vn -0.302469090670459 0.6706320793146153 -0.6773219791082681
vn 0.3716115051823695 -0.6706321093524107 0.641994908953046
vn -0.3716115051823695 0.6706321093524107 -0.641994908953046
vn 0.4366825911246077 -0.6706320863696813 0.5996339878126883
vn -0.4366825911246077 0.6706320863696813 -0.5996339878126883
vn 0.49696919153397834 -0.6706320885755779 0.5507033906185999
vn -0.49696919153397834 0.6706320885755779 -0.5507033906185999
vn 0.5518108897015921 -0.6706320874840405 0.4957391907480543
vn -0.5518108897015921 0.6706320874840405 -0.4957391907480543
vn 0.6006068925313723 -0.6706320916605994 0.43534349458644495
vn -0.6006068925313723 0.6706320916605994 -0.43534349458644495
vn 0.6428224981434418 -0.670632098063124 0.3701780989308757
vn -0.6428224981434418 0.670632098063124 -0.3701780989308757
vn 0.677995193009039 -0.6706320930849615 0.30095699689676464
vn -0.677995193009039 0.6706320930849615 -0.30095699689676464
vn 0.7057396194640098 -0.6706321184957592 0.22843850630024046
vn -0.7057396194640098 0.6706321184957592 -0.22843850630024046
vn 0.7257518741777996 -0.670632076138958 0.15341719454142705
vn -0.7257518741777996 0.670632076138958 -0.15341719454142705
vn 0.7378125816400594 -0.6706320833117981 0.07671507809099992
vn -0.7378125816400594 0.6706320833117981 -0.07671507809099992
vn 0.7417896786818048 -0.6706320807267935 -0.0008275875762160703
vn -0.7417896786818048 0.6706320807267935 0.0008275875762160703
vn 0.7376395745009857 -0.6706320768173272 -0.07836118729117972
vn -0.7376395745009857 0.6706320768173272 0.07836118729117972
vn 0.7254077115774563 -0.6706321107032416 -0.15503620247436697
vn -0.7254077115774563 0.6706321107032416 0.15503620247436697
vn 0.7052281753921423 -0.6706320765993202 -0.23001269197405919
vn -0.7052281753921423 0.6706320765993202 0.23001269197405919
vn 0.6773219791082681 -0.6706320793146153 -0.302469090670459
vn -0.6773219791082681 0.6706320793146153 0.302469090670459
vn 0.641994908953046 -0.6706321093524107 -0.3716115051823695
vn -0.641994908953046 0.6706321093524107 0.3716115051823695
vn 0.5996339878126883 -0.6706320863696813 -0.4366825911246077
vn -0.5996339878126883 0.6706320863696813 0.4366825911246077
vn 0.5507033906185999 -0.6706320885755779 -0.49696919153397834
vn -0.5507033906185999 0.6706320885755779 0.49696919153397834
vn 0.4957391907480543 -0.6706320874840405 -0.5518108897015921
vn -0.4957391907480543 0.6706320874840405 0.5518108897015921
vn 0.43534349458644495 -0.6706320916605994 -0.6006068925313723
vn -0.43534349458644495 0.6706320916605994 0.6006068925313723
vn 0.3701780989308757 -0.670632098063124 -0.6428224981434418
vn -0.3701780989308757 0.670632098063124 0.6428224981434418
vn 0.30095699689676464 -0.6706320930849615 -0.677995193009039
vn -0.30095699689676464 0.6706320930849615 0.677995193009039
vn 0.22843850630024046 -0.6706321184957592 -0.7057396194640098
vn -0.22843850630024046 0.6706321184957592 0.7057396194640098
vn 0.15341719454142705 -0.670632076138958 -0.7257518741777996
vn -0.15341719454142705 0.670632076138958 0.7257518741777996
vn 0.07671507809099992 -0.6706320833117981 -0.7378125816400594
vn -0.07671507809099992 0.6706320833117981 0.7378125816400594
vn -0.0008275875762160703 -0.6706320807267935 -0.7417896786818048
vn 0.0008275875762160703 0.6706320807267935 0.7417896786818048
vn -0.07836118729117973 -0.6706320768173272 -0.7376395745009857
vn 0.07836118729117973 0.6706320768173272 0.7376395745009857
vn -0.15503620247436697 -0.6706321107032416 -0.7254077115774563
vn 0.15503620247436697 0.6706321107032416 0.7254077115774563
vn -0.23001269197405919 -0.6706320765993202 -0.7052281753921423
vn 0.23001269197405919 0.6706320765993202 0.7052281753921423
vn -0.302469090670459 -0.6706320793146153 -0.6773219791082681
vn 0.302469090670459 0.6706320793146153 0.6773219791082681
vn -0.3716115051823695 -0.6706321093524107 -0.641994908953046
vn 0.3716115051823695 0.6706321093524107 0.641994908953046
vn -0.4366825911246077 -0.6706320863696813 -0.5996339878126883
vn 0.4366825911246077 0.6706320863696813 0.5996339878126883
vn -0.49696919153397834 -0.6706320885755779 -0.5507033906185999
vn 0.49696919153397834 0.6706320885755779 0.5507033906185999
vn -0.5518108897015921 -0.6706320874840405 -0.4957391907480543
vn 0.5518108897015921 0.6706320874840405 0.4957391907480543
vn -0.6006068925313723 -0.6706320916605994 -0.43534349458644495
vn 0.6006068925313723 0.6706320916605994 0.43534349458644495
vn -0.6428224981434418 -0.670632098063124 -0.3701780989308757
vn 0.6428224981434418 0.670632098063124 0.3701780989308757
vn -0.677995193009039 -0.6706320930849615 -0.30095699689676464
vn 0.677995193009039 0.6706320930849615 0.30095699689676464
vn -0.7057396194640098 -0.6706321184957592 -0.22843850630024046
vn 0.7057396194640098 0.6706321184957592 0.22843850630024046
vn -0.7257518741777996 -0.670632076138958 -0.15341719454142705
vn 0.7257518741777996 0.670632076138958 0.15341719454142705
vn -0.7378125816400594 -0.6706320833117981 -0.07671507809099992
vn 0.7378125816400594 0.6706320833117981 0.07671507809099992
vn -0.7417896786818048 -0.6706320807267935 0.0008275875762160703
vn 0.7417896786818048 0.6706320807267935 -0.0008275875762160703
vn -0.7376395745009857 -0.6706320768173272 0.07836118729117972
vn 0.7376395745009857 0.6706320768173272 -0.07836118729117972
vn -0.7254077115774563 -0.6706321107032416 0.15503620247436697
vn 0.7254077115774563 0.6706321107032416 -0.15503620247436697
vn -0.7052281753921423 -0.6706320765993202 0.23001269197405919
vn 0.7052281753921423 0.6706320765993202 -0.23001269197405919
vn -0.6773219791082681 -0.6706320793146153 0.302469090670459
vn 0.6773219791082681 0.6706320793146153 -0.302469090670459
vn -0.641994908953046 -0.6706321093524107 0.3716115051823695
vn 0.641994908953046 0.6706321093524107 -0.3716115051823695
vn -0.5996339878126883 -0.6706320863696813 0.4366825911246077
vn 0.5996339878126883 0.6706320863696813 -0.4366825911246077
vn -0.5507033906185999 -0.6706320885755779 0.49696919153397834
vn 0.5507033906185999 0.6706320885755779 -0.49696919153397834
vn -0.4957391907480543 -0.6706320874840405 0.5518108897015921
vn 0.4957391907480543 0.6706320874840405 -0.5518108897015921
vn -0.43534349458644495 -0.6706320916605994 0.6006068925313723
vn 0.43534349458644495 0.6706320916605994 -0.6006068925313723
vn -0.3701780989308757 -0.670632098063124 0.6428224981434418
vn 0.3701780989308757 0.670632098063124 -0.6428224981434418
vn -0.30095699689676464 -0.6706320930849615 0.677995193009039
vn 0.30095699689676464 0.6706320930849615 -0.677995193009039
vn -0.22843850630024046 -0.6706321184957592 0.7057396194640098
vn 0.22843850630024046 0.6706321184957592 -0.7057396194640098
vn -0.15341719454142705 -0.670632076138958 0.7257518741777996
vn 0.15341719454142705 0.670632076138958 -0.7257518741777996
vn -0.07671507809099992 -0.6706320833117981 0.7378125816400594
vn 0.07671507809099992 0.6706320833117981 -0.7378125816400594
vn 0.0008275875762160703 -0.6706320807267935 0.7417896786818048
vn -0.0008275875762160703 0.6706320807267935 -0.7417896786818048
usemtl material_0_0
f 1//1 2//1 3//1
f 2//1 1//1 4//1
f 4//1 1//1 5//1
f 4//1 5//1 6//1
f 6//1 5//1 7//1
f 6//1 7//1 8//1
f 8//1 7//1 9//1
f 8//1 9//1 10//1
f 10//1 9//1 11//1
f 10//1 11//1 12//1
f 12//1 11//1 13//1
f 12//1 13//1 14//1
f 14//1 13//1 15//1
f 14//1 15//1 16//1
f 16//1 15//1 17//1
f 16//1 17//1 18//1
f 18//1 17//1 19//1
f 18//1 19//1 20//1
f 20//1 19//1 21//1
f 20//1 21//1 22//1
f 22//1 21//1 23//1
f 22//1 23//1 24//1
f 24//1 23//1 25//1
f 24//1 25//1 26//1
f 26//1 25//1 27//1
f 26//1 27//1 28//1
f 28//1 27//1 29//1
f 28//1 29//1 30//1
f 30//1 29//1 31//1
f 30//1 31//1 32//1
f 32//1 31//1 33//1
f 32//1 33//1 34//1
f 34//1 33//1 35//1
f 34//1 35//1 36//1
f 36//1 35//1 37//1
f 36//1 37//1 38//1
f 38//1 37//1 39//1
f 38//1 39//1 40//1
f 40//1 39//1 41//1
f 40//1 41//1 42//1
f 42//1 41//1 43//1
f 42//1 43//1 44//1
f 44//1 43//1 45//1
f 44//1 45//1 46//1
f 46//1 45//1 47//1
f 46//1 47//1 48//1
f 48//1 47//1 49//1
f 48//1 49//1 50//1
f 50//1 49//1 51//1
f 50//1 51//1 52//1
f 52//1 51//1 53//1
f 52//1 53//1 54//1
f 54//1 53//1 55//1
f 54//1 55//1 56//1
f 56//1 55//1 57//1
f 56//1 57//1 58//1
f 58//1 57//1 59//1
f 58//1 59//1 60//1
f 61//2 62//2 63//2
f 62//2 64//2 63//2
f 63//2 64//2 65//2
f 64//2 66//2 65//2
f 65//2 66//2 67//2
f 66//2 68//2 67//2
f 67//2 68//2 69//2
f 68//2 70//2 69//2
f 69//2 70//2 71//2
f 70//2 72//2 71//2
f 71//2 72//2 73//2
f 72//2 74//2 73//2
f 73//2 74//2 75//2
f 74//2 76//2 75//2
f 75//2 76//2 77//2
f 76//2 78//2 77//2
f 77//2 78//2 79//2
f 78//2 80//2 79//2
f 79//2 80//2 81//2
f 80//2 82//2 81//2
f 81//2 82//2 83//2
f 82//2 84//2 83//2
f 83//2 84//2 85//2
f 84//2 86//2 85//2
f 85//2 86//2 87//2
f 86//2 88//2 87//2
f 87//2 88//2 89//2
f 88//2 90//2 89//2
f 89//2 90//2 91//2
f 90//2 92//2 91//2
f 91//2 92//2 93//2
f 92//2 94//2 93//2
f 93//2 94//2 95//2
f 94//2 96//2 95//2
f 95//2 96//2 97//2
f 96//2 98//2 97//2
f 97//2 98//2 99//2
f 98//2 100//2 99//2
f 99//2 100//2 101//2
f 100//2 102//2 101//2
f 101//2 102//2 103//2
f 102//2 104//2 103//2
f 103//2 104//2 105//2
f 104//2 106//2 105//2
f 105//2 106//2 107//2
f 106//2 108//2 107//2
f 107//2 108//2 109//2
f 108//2 110//2 109//2
f 109//2 110//2 111//2
f 110//2 112//2 111//2
f 111//2 112//2 113//2
f 112//2 114//2 113//2
f 113//2 114//2 115//2
f 114//2 116//2 115//2
f 115//2 116//2 117//2
f 116//2 118//2 117//2
f 117//2 118//2 119//2
f 120//2 119//2 118//2
f 121//3 122//4 123//4
f 122//4 121//3 124//3
f 125//5 126//5 127//6
f 128//6 127//6 126//5
f 129//7 124//3 121//3
f 124//3 129//7 130//7
f 131//8 132//8 125//5
f 126//5 125//5 132//8
f 133//9 130//7 129//7
f 130//7 133//9 134//9
f 135//10 136//10 131//8
f 132//8 131//8 136//10
f 137//11 134//9 133//9
f 134//9 137//11 138//11
f 139//12 140//12 135//10
f 136//10 135//10 140//12
f 141//13 138//11 137//11
f 138//11 141//13 142//13
f 143//14 144//14 139//12
f 140//12 139//12 144//14
f 145//15 142//13 141//13
f 142//13 145//15 146//15
f 147//16 148//16 143//14
f 144//14 143//14 148//16
f 145//15 149//17 146//15
f 149//17 145//15 150//17
f 151//18 148//16 152//18
f 147//16 152//18 148//16
f 150//17 153//19 149//17
f 153//19 150//17 154//19
f 155//20 151//18 156//20
f 152//18 156//20 151//18
f 154//19 157//21 153//19
f 157//21 154//19 158//21
f 159//22 155//20 160//22
f 156//20 160//22 155//20
f 158//21 161//23 157//21
f 161//23 158//21 162//23
f 163//24 159//22 164//24
f 160//22 164//24 159//22
f 162//23 165//25 161//23
f 165//25 162//23 166//25
f 167//26 163//24 168//26
f 164//24 168//26 163//24
f 166//25 169//27 165//25
f 169//27 166//25 170//27
f 171//28 167//26 172//28
f 168//26 172//28 167//26
f 170//27 173//29 169//27
f 173//29 170//27 174//29
f 175//30 171//28 176//30
f 172//28 176//30 171//28
f 174//29 177//31 173//29
f 177//31 174//29 178//31
f 179//32 175//30 180//32
f 176//30 180//32 175//30
f 178//31 181//33 177//31
f 181//33 178//31 182//33
f 183//34 179//32 184//34
f 180//32 184//34 179//32
f 182//33 185//35 181//33
f 185//35 182//33 186//35
f 187//36 183//34 188//36
f 184//34 188//36 183//34
f 186//35 189//37 185//35
f 189//37 186//35 190//37
f 191//38 187//36 192//38
f 188//36 192//38 187//36
f 190//37 193//39 189//37
f 193//39 190//37 194//39
f 195//40 191//38 196//40
f 192//38 196//40 191//38
f 194//39 197//41 193//39
f 197//41 194//39 198//41
f 199//42 195//40 200//42
f 196//40 200//42 195//40
f 198//41 201//43 197//41
f 201//43 198//41 202//43
f 203//44 199//42 204//44
f 200//42 204//44 199//42
f 202//43 205//45 201//43
f 205//45 202//43 206//45
f 207//46 203//44 208//46
f 204//44 208//46 203//44
f 205//45 209//47 210//47
f 209//47 205//45 206//45
f 207//46 208//46 211//48
f 212//48 211//48 208//46
f 210//47 213//49 214//49
f 213//49 210//47 209//47
f 211//48 212//48 215//50
f 216//50 215//50 212//48
f 214//49 217//51 218//51
f 217//51 214//49 213//49
f 215//50 216//50 219//52
f 220//52 219//52 216//50
f 218//51 221//53 222//53
f 221//53 218//51 217//51
f 219//52 220//52 223//54
f 224//54 223//54 220//52
f 222//53 225//55 226//55
f 225//55 222//53 221//53
f 223//54 224//54 227//56
f 228//56 227//56 224//54
f 226//55 229//57 230//57
f 229//57 226//55 225//55
f 227//56 228//56 231//58
f 232//58 231//58 228//56
f 230//57 233//59 234//59
f 233//59 230//57 229//57
f 231//58 232//58 235//60
f 236//60 235//60 232//58
f 234//59 237//61 238//61
f 237//61 234//59 233//59
f 235//60 236//60 239//62
f 240//62 239//62 236//60
f 238//61 241//6 242//6
f 241//6 238//61 237//61
f 239//62 240//62 243//4
f 244//4 243//4 240//62
f 242//6 245//5 246//5
f 245//5 242//6 241//6
f 243//4 244//4 247//3
f 248//3 247//3 244//4
f 246//5 249//8 250//8
f 249//8 246//5 245//5
f 247//3 248//3 251//7
f 252//7 251//7 248//3
f 250//8 253//10 254//10
f 253//10 250//8 249//8
f 251//7 252//7 255//9
f 256//9 255//9 252//7
f 254//10 257//12 258//12
f 257//12 254//10 253//10
f 255//9 256//9 259//11
f 260//11 259//11 256//9
f 258//12 261//14 262//14
f 261//14 258//12 257//12
f 259//11 260//11 263//13
f 264//13 263//13 260//11
f 262//14 265//16 266//16
f 265//16 262//14 261//14
f 263//13 264//13 267//15
f 268//15 267//15 264//13
f 265//16 269//18 266//16
f 269//18 265//16 270//18
f 271//17 267//15 272//17
f 268//15 272//17 267//15
f 270//18 273//20 269//18
f 273//20 270//18 274//20
f 275//19 271//17 276//19
f 272//17 276//19 271//17
f 274//20 277//22 273//20
f 277//22 274//20 278//22
f 279//21 275//19 280//21
f 276//19 280//21 275//19
f 278//22 281//24 277//22
f 281//24 278//22 282//24
f 283//23 279//21 284//23
f 280//21 284//23 279//21
f 282//24 285//26 281//24
f 285//26 282//24 286//26
f 287//25 283//23 288//25
f 284//23 288//25 283//23
f 286//26 289//28 285//26
f 289//28 286//26 290//28
f 291//27 287//25 292//27
f 288//25 292//27 287//25
f 290//28 293//30 289//28
f 293//30 290//28 294//30
f 295//29 291//27 296//29
f 292//27 296//29 291//27
f 294//30 297//32 293//30
f 297//32 294//30 298//32
f 299//31 295//29 300//31
f 296//29 300//31 295//29
f 298//32 301//34 297//32
f 301//34 298//32 302//34
f 303//33 299//31 304//33
f 300//31 304//33 299//31
f 302//34 305//36 301//34
f 305//36 302//34 306//36
f 307//35 303//33 308//35
f 304//33 308//35 303//33
f 306//36 309//38 305//36
f 309//38 306//36 310//38
f 311//37 307//35 312//37
f 308//35 312//37 307//35
f 310//38 313//40 309//38
f 313//40 310//38 314//40
f 315//39 311//37 316//39
f 312//37 316//39 311//37
f 314//40 317//42 313//40
f 317//42 314//40 318//42
f 319//41 315//39 320//41
f 316//39 320//41 315//39
f 318//42 321//44 317//42
f 321//44 318//42 322//44
f 323//43 319//41 324//43
f 320//41 324//43 319//41
f 322//44 325//46 321//44
f 325//46 322//44 326//46
f 327//45 323//43 328//45
f 324//43 328//45 323//43
f 329//48 325//46 326//46
f 325//46 329//48 330//48
f 331//47 332//47 328//45
f 327//45 328//45 332//47
f 333//50 330//48 329//48
f 330//48 333//50 334//50
f 335//49 336//49 331//47
f 332//47 331//47 336//49
f 337//52 334//50 333//50
f 334//50 337//52 338//52
f 339//51 340//51 335//49
f 336//49 335//49 340//51
f 341//54 338//52 337//52
f 338//52 341//54 342//54
f 343//53 344//53 339//51
f 340//51 339//51 344//53
f 345//56 342//54 341//54
f 342//54 345//56 346//56
f 347//55 348//55 343//53
f 344//53 343//53 348//55
f 349//58 346//56 345//56
f 346//56 349//58 350//58
f 351//57 352//57 347//55
f 348//55 347//55 352//57
f 353//60 350//58 349//58
f 350//58 353//60 354//60
f 355//59 356//59 351//57
f 352//57 351//57 356//59
f 357//62 354//60 353//60
f 354//60 357//62 358//62
f 359//61 360//61 355//59
f 356//59 355//59 360//61
f 123//4 358//62 357//62
f 358//62 123//4 122//4
f 127//6 128//6 359//61
f 360//61 359//61 128//6
f 361//63 362//64 363//64
f 362//64 361//63 364//63
f 365//65 366//65 367//66
f 368//66 367//66 366//65
f 369//67 364//63 361//63
f 364//63 369//67 370//67
f 371//68 372//68 365//65
f 366//65 365//65 372//68
f 373//69 370//67 369//67
f 370//67 373//69 374//69
f 375//70 376//70 371//68
f 372//68 371//68 376//70
f 377//71 373//69 378//71
f 373//69 377//71 374//69
f 375//70 379//72 376//70
f 380//72 376//70 379//72
f 381//73 378//71 382//73
f 378//71 381//73 377//71
f 379//72 383//74 380//72
f 384//74 380//72 383//74
f 385//75 382//73 386//75
f 382//73 385//75 381//73
f 383//74 387//76 384//74
f 388//76 384//74 387//76
f 389//77 386//75 390//77
f 386//75 389//77 385//75
f 387//76 391//78 388//76
f 392//78 388//76 391//78
f 393//79 390//77 394//79
f 390//77 393//79 389//77
f 391//78 395//80 392//78
f 396//80 392//78 395//80
f 397//81 394//79 398//81
f 394//79 397//81 393//79
f 395//80 399//82 396//80
f 400//82 396//80 399//82
f 401//83 398//81 402//83
f 398//81 401//83 397//81
f 399//82 403//84 400//82
f 404//84 400//82 403//84
f 405//85 402//83 406//85
f 402//83 405//85 401//83
f 403//84 407//86 404//84
f 408//86 404//84 407//86
f 409//87 406//85 410//87
f 406//85 409//87 405//85
f 407//86 411//88 408//86
f 412//88 408//86 411//88
f 413//89 410//87 414//89
f 410//87 413//89 409//87
f 411//88 415//90 412//88
f 416//90 412//88 415//90
f 417//91 414//89 418//91
f 414//89 417//91 413//89
f 415//90 419//92 416//90
f 420//92 416//90 419//92
f 421//93 418//91 422//93
f 418//91 421//93 417//91
f 419//92 423//94 420//92
f 424//94 420//92 423//94
f 425//95 422//93 426//95
f 422//93 425//95 421//93
f 423//94 427//96 424//94
f 428//96 424//94 427//96
f 429//97 426//95 430//97
f 426//95 429//97 425//95
f 427//96 431//98 428//96
f 432//98 428//96 431//98
f 433//99 430//97 434//99
f 430//97 433//99 429//97
f 431//98 435//100 432//98
f 436//100 432//98 435//100
f 433//99 437//101 438//101
f 437//101 433//99 434//99
f 436//100 435//100 439//102
f 440//102 439//102 435//100
f 438//101 441//103 442//103
f 441//103 438//101 437//101
f 439//102 440//102 443//104
f 444//104 443//104 440//102
f 442//103 445//105 446//105
f 445//105 442//103 441//103
f 443//104 444//104 447//106
f 448//106 447//106 444//104
f 446//105 449//107 450//107
f 449//107 446//105 445//105
f 447//106 448//106 451//108
f 452//108 451//108 448//106
f 450//107 453//109 454//109
f 453//109 450//107 449//107
f 451//108 452//108 455//110
f 456//110 455//110 452//108
f 454//109 457//111 458//111
f 457//111 454//109 453//109
f 455//110 456//110 459//112
f 460//112 459//112 456//110
f 458//111 461//113 462//113
f 461//113 458//111 457//111
f 459//112 460//112 463//114
f 464//114 463//114 460//112
f 465//115 461//113 466//115
f 461//113 465//115 462//113
f 464//114 467//116 463//114
f 468//116 463//114 467//116
f 469//117 466//115 470//117
f 466//115 469//117 465//115
f 467//116 471//118 468//116
f 472//118 468//116 471//118
f 473//119 470//117 474//119
f 470//117 473//119 469//117
f 471//118 475//120 472//118
f 476//120 472//118 475//120
f 473//119 477//121 478//121
f 477//121 473//119 474//119
f 476//120 475//120 479//122
f 480//122 479//122 475//120
f 478//121 481//123 482//123
f 481//123 478//121 477//121
f 479//122 480//122 483//124
f 484//124 483//124 480//122
f 482//123 485//125 486//125
f 485//125 482//123 481//123
f 483//124 484//124 487//126
f 488//126 487//126 484//124
f 486//125 489//127 490//127
f 489//127 486//125 485//125
f 487//126 488//126 491//128
f 492//128 491//128 488//126
f 490//127 493//129 494//129
f 493//129 490//127 489//127
f 491//128 492//128 495//130
f 496//130 495//130 492//128
f 493//129 497//131 494//129
f 497//131 493//129 498//131
f 499//132 495//130 500//132
f 496//130 500//132 495//130
f 498//131 501//133 497//131
f 501//133 498//131 502//133
f 503//134 499//132 504//134
f 500//132 504//134 499//132
f 502//133 505//135 501//133
f 505//135 502//133 506//135
f 507//136 503//134 508//136
f 504//134 508//136 503//134
f 506//135 509//137 505//135
f 509//137 506//135 510//137
f 511//138 507//136 512//138
f 508//136 512//138 507//136
f 510//137 513//139 509//137
f 513//139 510//137 514//139
f 515//140 511//138 516//140
f 512//138 516//140 511//138
f 514//139 517//141 513//139
f 517//141 514//139 518//141
f 519//142 515//140 520//142
f 516//140 520//142 515//140
f 518//141 521//143 517//141
f 521//143 518//141 522//143
f 523//144 519//142 524//144
f 520//142 524//144 519//142
f 525//145 522//143 526//145
f 522//143 525//145 521//143
f 524//144 527//146 523//144
f 528//146 523//144 527//146
f 529//147 526//145 530//147
f 526//145 529//147 525//145
f 527//146 531//148 528//146
f 532//148 528//146 531//148
f 533//149 530//147 534//149
f 530//147 533//149 529//147
f 531//148 535//150 532//148
f 536//150 532//148 535//150
f 537//151 534//149 538//151
f 534//149 537//151 533//149
f 535//150 539//152 536//150
f 540//152 536//150 539//152
f 541//153 538//151 542//153
f 538//151 541//153 537//151
f 539//152 543//154 540//152
f 544//154 540//152 543//154
f 545//155 542//153 546//155
f 542//153 545//155 541//153
f 543//154 547//156 544//154
f 548//156 544//154 547//156
f 549//157 546//155 550//157
f 546//155 549//157 545//155
f 547//156 551//158 548//156
f 552//158 548//156 551//158
f 553//159 550//157 554//159
f 550//157 553//159 549//157
f 551//158 555//160 552//158
f 556//160 552//158 555//160
f 557//161 553//159 554//159
f 553//159 557//161 558//161
f 559//162 560//162 555//160
f 556//160 555//160 560//162
f 561//163 558//161 557//161
f 558//161 561//163 562//163
f 563//164 564//164 559//162
f 560//162 559//162 564//164
f 565//165 562//163 561//163
f 562//163 565//165 566//165
f 567//166 568//166 563//164
f 564//164 563//164 568//166
f 569//167 566//165 565//165
f 566//165 569//167 570//167
f 571//168 572//168 567//166
f 568//166 567//166 572//168
f 573//169 570//167 569//167
f 570//167 573//169 574//169
f 575//170 576//170 571//168
f 572//168 571//168 576//170
f 577//171 574//169 573//169
f 574//169 577//171 578//171
f 579//172 580//172 575//170
f 576//170 575//170 580//172
f 581//173 578//171 577//171
f 578//171 581//173 582//173
f 583//174 584//174 579//172
f 580//172 579//172 584//174
f 581//173 585//175 582//173
f 585//175 581//173 586//175
f 587//176 584//174 588//176
f 583//174 588//176 584//174
f 586//175 589//177 585//175
f 589//177 586//175 590//177
f 591//178 587//176 592//178
f 588//176 592//178 587//176
f 590//177 593//179 589//177
f 593//179 590//177 594//179
f 595//180 591//178 596//180
f 592//178 596//180 591//178
f 594//179 597//181 593//179
f 597//181 594//179 598//181
f 599//182 595//180 600//182
f 596//180 600//182 595//180
f 363//64 597//181 598//181
f 597//181 363//64 362//64
f 367//66 368//66 600//182
f 599//182 600//182 368//66
