# SSTK version 0.8.0
# 10
mtllib original_10.mtl
o #ID2199
v -0.01773516 0.78410855 -0.00332648
v -0.01770145 0.78414581 -0.00956201
v -0.01813313 0.78427581 -0.00631884
v -0.01642580 0.78428041 -0.00025727
v -0.01631870 0.78430875 -0.01248620
v -0.01599895 0.78408883 -0.00639134
v -0.01547474 0.78419192 -0.00398897
v -0.01440635 0.78427353 0.00224037
v -0.01464846 0.78414582 -0.00137867
v -0.01281085 0.78409866 0.00049865
v -0.01196049 0.78410953 0.00417819
v -0.01091725 0.78418472 0.00213067
v -0.00913313 0.78418445 0.00520450
v -0.00853459 0.78417445 0.00315408
v -0.00598705 0.78433401 0.00554193
v -0.00596909 0.78413764 0.00362368
v -0.00282247 0.78410530 0.00530867
v -0.00342045 0.78423272 0.00316929
v -0.00110879 0.78414179 0.00222723
v 0.00017505 0.78419695 0.00418151
v 0.00103979 0.78414051 0.00066523
v 0.00256824 0.78421342 0.00219245
v 0.00259768 0.78427592 -0.00136557
v 0.00460029 0.78408385 -0.00024558
v 0.00370627 0.78429601 -0.00377477
v 0.00405066 0.78424999 -0.00657035
v -0.01546898 0.78426109 -0.00883711
v -0.01457663 0.78422963 -0.01498910
v -0.01437148 0.78426717 -0.01135211
v -0.01294845 0.78424049 -0.01329212
v -0.01199242 0.78436201 -0.01695386
v -0.01100249 0.78408132 -0.01495625
v -0.00922285 0.78416900 -0.01812026
v -0.00837761 0.78426346 -0.01590689
v -0.00605695 0.78406340 -0.01863682
v -0.00597123 0.78423364 -0.01631487
v -0.00333529 0.78421911 -0.01606150
v -0.00287160 0.78423294 -0.01815773
v -0.00104536 0.78420224 -0.01483008
v 0.00008036 0.78414900 -0.01683318
v 0.00120878 0.78423110 -0.01350494
v 0.00275410 0.78416920 -0.01502960
v 0.00263247 0.78434072 -0.01147569
v 0.00464908 0.78415846 -0.01244470
v 0.00352263 0.78436431 -0.00893932
v 0.00583321 0.78413259 -0.00326190
v 0.00590077 0.78422696 -0.00956160
v 0.00615724 0.78426048 -0.00646909
v 0.00605107 0.78423107 -0.00640640
v 0.00593942 0.78424721 -0.00322260
v 0.00581968 0.78422123 -0.00951227
v 0.00450513 0.78436432 -0.01245613
v 0.00456672 0.78415737 -0.00030083
v 0.00410926 0.78432856 -0.00625880
v 0.00359529 0.78413367 -0.00889399
v 0.00261085 0.78427551 -0.01118529
v 0.00268482 0.78432723 -0.01512884
v 0.00107292 0.78413068 -0.01341978
v -0.00005841 0.78418181 -0.01694421
v -0.00100360 0.78421492 -0.01489011
v -0.00276640 0.78427647 -0.01824165
v -0.00339787 0.78415934 -0.01595287
v -0.00603042 0.78419469 -0.01849723
v -0.00588934 0.78416698 -0.01621086
v -0.00837837 0.78412213 -0.01600970
v -0.00916882 0.78426195 -0.01816949
v -0.01080042 0.78427482 -0.01491409
v -0.01209222 0.78430329 -0.01687339
v -0.01305633 0.78436156 -0.01330271
v -0.01456695 0.78441612 -0.01499715
v -0.01454728 0.78427464 -0.01142231
v -0.01557383 0.78412999 -0.00892617
v -0.01586769 0.78417666 -0.00632860
v -0.01638170 0.78415685 -0.01231663
v 0.00374223 0.78418266 -0.00385568
v 0.00253876 0.78414728 -0.00154922
v 0.00259018 0.78434135 0.00225839
v 0.00095657 0.78412668 0.00058720
v 0.00016426 0.78409880 0.00421088
v -0.00085103 0.78418250 0.00211671
v -0.00262882 0.78419003 0.00523761
v -0.00337491 0.78414620 0.00299898
v -0.00586386 0.78425764 0.00348367
v -0.00580342 0.78416767 0.00573522
v -0.00854807 0.78407053 0.00303640
v -0.00914966 0.78428830 0.00539001
v -0.01095094 0.78408075 0.00204583
v -0.01193044 0.78426337 0.00428240
v -0.01299253 0.78428438 0.00058182
v -0.01453847 0.78424345 0.00220186
v -0.01459137 0.78431372 -0.00140772
v -0.01548971 0.78439906 -0.00390190
v -0.01659008 0.78413060 -0.00017030
v -0.01760574 0.78433555 -0.00944678
v -0.01757745 0.78425642 -0.00339019
v -0.01806354 0.78412588 -0.00646699
v 0.00444264 -0.31668425 -0.01251228
v 0.00583258 0.78424060 -0.00973970
v 0.00586497 -0.31660838 -0.00962512
v 0.00450783 0.78422457 -0.01245596
v 0.00454567 0.78433730 -0.01254788
v 0.00461492 -0.31656662 -0.01252841
v 0.00577007 0.78419277 -0.00940723
v 0.00563760 -0.31665083 -0.00947927
v 0.00272942 -0.31660419 -0.01487806
v 0.00262881 0.78409878 -0.01502342
v 0.00264815 0.78417251 -0.01499854
v 0.00250475 -0.31661388 -0.01501564
v 0.00013267 0.78416195 -0.01710061
v 0.00026535 -0.31659884 -0.01692565
v 0.00022501 0.78416643 -0.01693883
v 0.00004036 -0.31652412 -0.01703093
v -0.00270284 0.78428942 -0.01824167
v -0.00294613 -0.31662753 -0.01808882
v -0.00281936 0.78419361 -0.01825754
v -0.00283865 -0.31661710 -0.01811185
v -0.00600415 0.78423658 -0.01858352
v -0.00608551 -0.31650546 -0.01862582
v -0.00582822 0.78408966 -0.01864081
v -0.00591787 -0.31658976 -0.01849209
v -0.00894510 0.78434474 -0.01809797
v -0.00913614 -0.31670738 -0.01822657
v -0.00903742 0.78432417 -0.01803898
v -0.00908918 -0.31651557 -0.01816401
v -0.01219165 0.78410941 -0.01678321
v -0.01218920 -0.31657093 -0.01676983
v -0.01200442 0.78422207 -0.01680025
v -0.01214751 -0.31650518 -0.01703957
v -0.01456182 0.78417349 -0.01511997
v -0.01452237 -0.31671774 -0.01491383
v -0.01449691 0.78417935 -0.01493215
v -0.01458744 -0.31663096 -0.01509142
v -0.01640673 -0.31658034 -0.01255283
v -0.01653039 0.78420631 -0.01250312
v -0.01633858 -0.31661478 -0.01248736
v -0.01628802 0.78426654 -0.01260415
v -0.01769423 -0.31658935 -0.00948796
v -0.01762340 0.78417532 -0.00954523
v -0.01780225 -0.31651520 -0.00964841
v -0.01780375 0.78408842 -0.00939031
v -0.01806703 -0.31655663 -0.00634468
v -0.01823631 0.78430795 -0.00654173
v -0.01812404 -0.31656288 -0.00637632
v -0.01810199 0.78441245 -0.00640482
v -0.01770986 -0.31641793 -0.00339426
v -0.01772293 0.78407802 -0.00321092
v -0.01766271 -0.31669770 -0.00319010
v -0.01763808 0.78415600 -0.00335972
v -0.01646686 -0.31654758 -0.00027435
v -0.01647501 0.78432910 -0.00037656
v -0.01662482 -0.31645797 -0.00031567
v -0.01651663 0.78425803 -0.00037443
v -0.01441116 -0.31674570 0.00216670
v -0.01447711 0.78418724 0.00216943
v -0.01450135 -0.31657833 0.00200401
v -0.01443944 0.78419621 0.00213683
v -0.01195290 0.78422840 0.00416113
v -0.01211482 -0.31664499 0.00414198
v -0.01198060 0.78411801 0.00410018
v -0.01196419 -0.31651355 0.00416454
v -0.00909050 0.78427769 0.00522112
v -0.00919680 -0.31661216 0.00517684
v -0.00906807 0.78432528 0.00528577
v -0.00898571 -0.31653925 0.00533990
v -0.00605761 0.78418718 0.00564620
v -0.00583038 -0.31667761 0.00578305
v -0.00605521 0.78435111 0.00569681
v -0.00600227 -0.31649163 0.00575310
v -0.00283922 0.78423848 0.00519336
v -0.00275909 -0.31671358 0.00531849
v -0.00280874 0.78424229 0.00527374
v -0.00273644 -0.31650779 0.00517047
v 0.00017244 0.78425690 0.00425997
v 0.00016004 -0.31650443 0.00413190
v 0.00004292 0.78414030 0.00425895
v 0.00002463 -0.31675344 0.00402047
v 0.00257015 0.78424734 0.00231461
v 0.00264083 -0.31651660 0.00229042
v 0.00272638 0.78416841 0.00217084
v 0.00266351 -0.31654107 0.00230497
v 0.00455800 -0.31654088 -0.00035956
v 0.00463077 0.78424757 -0.00043573
v 0.00452109 0.78435785 -0.00046055
v 0.00439434 -0.31662857 -0.00036548
v 0.00587172 -0.31647111 -0.00337285
v 0.00579292 0.78427223 -0.00323040
v 0.00577229 0.78423095 -0.00317897
v 0.00596518 -0.31652483 -0.00315989
v 0.00621051 -0.31661394 -0.00625961
v 0.00628142 0.78413360 -0.00635342
v 0.00605359 0.78434305 -0.00630680
v 0.00619696 -0.31669532 -0.00634523
v -0.01780744 -0.31648212 -0.00945809
v -0.01767182 -0.31657670 -0.00319697
v -0.01809775 -0.31659549 -0.00642164
v -0.01647949 -0.31649913 -0.01250639
v -0.01647628 -0.31651563 -0.00028779
v -0.01587473 -0.31667968 -0.00632182
v -0.01542908 -0.31667545 -0.00903238
v -0.01455965 -0.31651823 -0.01514600
v -0.01457907 -0.31652202 -0.01133617
v -0.01304270 -0.31665826 -0.01353694
v -0.01193396 -0.31660015 -0.01695208
v -0.01084840 -0.31657974 -0.01501203
v -0.00899999 -0.31659043 -0.01805789
v -0.00845090 -0.31662436 -0.01584284
v -0.00591215 -0.31659614 -0.01860527
v -0.00595481 -0.31674992 -0.01637398
v -0.00335967 -0.31658775 -0.01593436
v -0.00276075 -0.31663480 -0.01813136
v -0.00096273 -0.31645302 -0.01502966
v 0.00017547 -0.31665572 -0.01689451
v 0.00123172 -0.31657747 -0.01355603
v 0.00264567 -0.31653868 -0.01514518
v 0.00277269 -0.31658520 -0.01129399
v 0.00456602 -0.31662877 -0.01263747
v 0.00372373 -0.31667954 -0.00895810
v 0.00411032 -0.31653940 -0.00636123
v -0.01555060 -0.31655731 -0.00399030
v -0.01451653 -0.31662622 0.00216282
v -0.01455610 -0.31653543 -0.00140157
v -0.01304679 -0.31655107 0.00047304
v -0.01195748 -0.31657591 0.00408208
v -0.01104236 -0.31668862 0.00202659
v -0.00902274 -0.31668338 0.00538950
v -0.00850352 -0.31664844 0.00320998
v -0.00600925 -0.31671540 0.00575580
v -0.00581585 -0.31659554 0.00359563
v -0.00274625 -0.31669993 0.00523436
v -0.00334241 -0.31671559 0.00317743
v -0.00100495 -0.31667631 0.00216503
v -0.00006164 -0.31662329 0.00400591
v 0.00105426 -0.31648633 0.00056713
v 0.00271638 -0.31643906 0.00222174
v 0.00249166 -0.31654770 -0.00155401
v 0.00439109 -0.31650339 -0.00046925
v 0.00367765 -0.31664165 -0.00374433
v 0.00582581 -0.31658716 -0.00970976
v 0.00585772 -0.31663955 -0.00321108
v 0.00617251 -0.31658087 -0.00637081
v 0.00615865 -0.31670535 -0.00636874
v 0.00580884 -0.31661977 -0.00939749
v 0.00578084 -0.31678386 -0.00315097
v 0.00462518 -0.31657063 -0.00029478
v 0.00466051 -0.31658378 -0.01247449
v 0.00389214 -0.31670862 -0.00639389
v 0.00355898 -0.31657388 -0.00375615
v 0.00265743 -0.31674808 -0.00146052
v 0.00278244 -0.31671717 0.00208551
v 0.00104209 -0.31667959 0.00059154
v 0.00012945 -0.31652133 0.00409795
v -0.00106592 -0.31665349 0.00217069
v -0.00289565 -0.31655935 0.00516743
v -0.00337720 -0.31673640 0.00310655
v -0.00597845 -0.31651143 0.00356456
v -0.00602016 -0.31661149 0.00566024
v -0.00856568 -0.31655762 0.00314750
v -0.00895550 -0.31660454 0.00541701
v -0.01097770 -0.31658607 0.00228174
v -0.01206685 -0.31657237 0.00409950
v -0.01297091 -0.31658308 0.00060247
v -0.01452753 -0.31653808 0.00219830
v -0.01449944 -0.31676572 -0.00142335
v -0.01543540 -0.31670188 -0.00372422
v -0.01591134 -0.31657491 -0.00636041
v -0.01638443 -0.31648986 -0.00017842
v 0.00361202 -0.31659092 -0.00891886
v 0.00257461 -0.31646226 -0.01125356
v 0.00259228 -0.31663433 -0.01496393
v 0.00098617 -0.31663522 -0.01340175
v 0.00022790 -0.31654815 -0.01692455
v -0.00100237 -0.31664280 -0.01511218
v -0.00291623 -0.31651392 -0.01824740
v -0.00351047 -0.31645281 -0.01599690
v -0.00597868 -0.31649993 -0.01845471
v -0.00596069 -0.31666150 -0.01625028
v -0.00850171 -0.31647623 -0.01615583
v -0.00912354 -0.31659446 -0.01805777
v -0.01086595 -0.31658595 -0.01496690
v -0.01207979 -0.31664403 -0.01681161
v -0.01292290 -0.31652493 -0.01342293
v -0.01448292 -0.31665306 -0.01500641
v -0.01452132 -0.31673436 -0.01138707
v -0.01565739 -0.31659654 -0.00887544
v -0.01662960 -0.31663707 -0.01259479
v -0.01762060 -0.31646923 -0.00329718
v -0.01774742 -0.31656914 -0.00947722
v -0.01824503 -0.31666103 -0.00637704
vn 0 1 0
vn 0 -1 0
vn 0.866025402838329 0 -0.5000000016387101
vn 0.9659258358036645 0 -0.25881900959356163
vn -0.866025402838329 0 0.5000000016387101
vn -0.9659258358036645 0 0.25881900959356163
vn 0.7071067811865476 0 -0.7071067811865476
vn -0.7071067811865476 0 0.7071067811865476
vn 0.5000000016387101 0 -0.866025402838329
vn -0.5000000016387101 0 0.866025402838329
vn 0.25881900959356163 0 -0.9659258358036645
vn -0.25881900959356163 0 0.9659258358036645
vn 0 0 -1
vn 0 0 1
vn -0.25881900959356163 0 -0.9659258358036645
vn 0.25881900959356163 0 0.9659258358036645
vn -0.5000000016387101 0 -0.866025402838329
vn 0.5000000016387101 0 0.866025402838329
vn -0.7071067811865476 0 -0.7071067811865476
vn 0.7071067811865476 0 0.7071067811865476
vn -0.866025402838329 0 -0.5000000016387101
vn 0.866025402838329 0 0.5000000016387101
vn -0.9659258358036645 0 -0.25881900959356163
vn 0.9659258358036645 0 0.25881900959356163
vn -1 0 0
vn 1 0 0
usemtl material_0_0
f 1//1 2//1 3//1
f 2//1 1//1 4//1
f 2//1 4//1 5//1
f 5//1 4//1 6//1
f 6//1 4//1 7//1
f 7//1 4//1 8//1
f 7//1 8//1 9//1
f 9//1 8//1 10//1
f 10//1 8//1 11//1
f 10//1 11//1 12//1
f 12//1 11//1 13//1
f 12//1 13//1 14//1
f 14//1 13//1 15//1
f 14//1 15//1 16//1
f 16//1 15//1 17//1
f 16//1 17//1 18//1
f 18//1 17//1 19//1
f 19//1 17//1 20//1
f 19//1 20//1 21//1
f 21//1 20//1 22//1
f 21//1 22//1 23//1
f 23//1 22//1 24//1
f 23//1 24//1 25//1
f 25//1 24//1 26//1
f 5//1 27//1 28//1
f 27//1 5//1 6//1
f 28//1 27//1 29//1
f 28//1 29//1 30//1
f 28//1 30//1 31//1
f 31//1 30//1 32//1
f 31//1 32//1 33//1
f 33//1 32//1 34//1
f 33//1 34//1 35//1
f 35//1 34//1 36//1
f 35//1 36//1 37//1
f 35//1 37//1 38//1
f 38//1 37//1 39//1
f 38//1 39//1 40//1
f 40//1 39//1 41//1
f 40//1 41//1 42//1
f 42//1 41//1 43//1
f 42//1 43//1 44//1
f 44//1 43//1 45//1
f 44//1 45//1 26//1
f 44//1 26//1 24//1
f 44//1 24//1 46//1
f 44//1 46//1 47//1
f 47//1 46//1 48//1
f 49//2 50//2 51//2
f 51//2 50//2 52//2
f 50//2 53//2 52//2
f 53//2 54//2 52//2
f 54//2 55//2 52//2
f 55//2 56//2 52//2
f 52//2 56//2 57//2
f 56//2 58//2 57//2
f 57//2 58//2 59//2
f 58//2 60//2 59//2
f 59//2 60//2 61//2
f 60//2 62//2 61//2
f 61//2 62//2 63//2
f 62//2 64//2 63//2
f 64//2 65//2 63//2
f 63//2 65//2 66//2
f 65//2 67//2 66//2
f 66//2 67//2 68//2
f 67//2 69//2 68//2
f 68//2 69//2 70//2
f 69//2 71//2 70//2
f 71//2 72//2 70//2
f 73//2 74//2 72//2
f 70//2 72//2 74//2
f 54//2 53//2 75//2
f 75//2 53//2 76//2
f 53//2 77//2 76//2
f 76//2 77//2 78//2
f 77//2 79//2 78//2
f 78//2 79//2 80//2
f 79//2 81//2 80//2
f 80//2 81//2 82//2
f 82//2 81//2 83//2
f 81//2 84//2 83//2
f 83//2 84//2 85//2
f 84//2 86//2 85//2
f 85//2 86//2 87//2
f 86//2 88//2 87//2
f 87//2 88//2 89//2
f 88//2 90//2 89//2
f 89//2 90//2 91//2
f 91//2 90//2 92//2
f 90//2 93//2 92//2
f 92//2 93//2 73//2
f 73//2 93//2 74//2
f 74//2 93//2 94//2
f 93//2 95//2 94//2
f 96//2 94//2 95//2
f 97//3 98//4 99//4
f 98//4 97//3 100//3
f 101//5 102//5 103//6
f 104//6 103//6 102//5
f 105//7 100//3 97//3
f 100//3 105//7 106//7
f 107//8 108//8 101//5
f 102//5 101//5 108//8
f 109//9 105//7 110//9
f 105//7 109//9 106//7
f 107//8 111//10 108//8
f 112//10 108//8 111//10
f 113//11 110//9 114//11
f 110//9 113//11 109//9
f 111//10 115//12 112//10
f 116//12 112//10 115//12
f 117//13 114//11 118//13
f 114//11 117//13 113//11
f 115//12 119//14 116//12
f 120//14 116//12 119//14
f 121//15 118//13 122//15
f 118//13 121//15 117//13
f 119//14 123//16 120//14
f 124//16 120//14 123//16
f 125//17 122//15 126//17
f 122//15 125//17 121//15
f 123//16 127//18 124//16
f 128//18 124//16 127//18
f 129//19 126//17 130//19
f 126//17 129//19 125//17
f 127//18 131//20 128//18
f 132//20 128//18 131//20
f 129//19 133//21 134//21
f 133//21 129//19 130//19
f 132//20 131//20 135//22
f 136//22 135//22 131//20
f 134//21 137//23 138//23
f 137//23 134//21 133//21
f 135//22 136//22 139//24
f 140//24 139//24 136//22
f 138//23 141//25 142//25
f 141//25 138//23 137//23
f 139//24 140//24 143//26
f 144//26 143//26 140//24
f 142//25 145//6 146//6
f 145//6 142//25 141//25
f 143//26 144//26 147//4
f 148//4 147//4 144//26
f 146//6 149//5 150//5
f 149//5 146//6 145//6
f 147//4 148//4 151//3
f 152//3 151//3 148//4
f 150//5 153//8 154//8
f 153//8 150//5 149//5
f 151//3 152//3 155//7
f 156//7 155//7 152//3
f 157//10 153//8 158//10
f 153//8 157//10 154//8
f 156//7 159//9 155//7
f 160//9 155//7 159//9
f 161//12 158//10 162//12
f 158//10 161//12 157//10
f 159//9 163//11 160//9
f 164//11 160//9 163//11
f 165//14 162//12 166//14
f 162//12 165//14 161//12
f 163//11 167//13 164//11
f 168//13 164//11 167//13
f 169//16 166//14 170//16
f 166//14 169//16 165//14
f 167//13 171//15 168//13
f 172//15 168//13 171//15
f 173//18 170//16 174//18
f 170//16 173//18 169//16
f 171//15 175//17 172//15
f 176//17 172//15 175//17
f 177//20 174//18 178//20
f 174//18 177//20 173//18
f 175//17 179//19 176//17
f 180//19 176//17 179//19
f 181//22 177//20 178//20
f 177//20 181//22 182//22
f 183//21 184//21 179//19
f 180//19 179//19 184//21
f 185//24 182//22 181//22
f 182//22 185//24 186//24
f 187//23 188//23 183//21
f 184//21 183//21 188//23
f 189//26 186//24 185//24
f 186//24 189//26 190//26
f 191//25 192//25 187//23
f 188//23 187//23 192//25
f 99//4 190//26 189//26
f 190//26 99//4 98//4
f 103//6 104//6 191//25
f 192//25 191//25 104//6
f 193//2 194//2 195//2
f 194//2 193//2 196//2
f 194//2 196//2 197//2
f 197//2 196//2 198//2
f 198//2 196//2 199//2
f 199//2 196//2 200//2
f 199//2 200//2 201//2
f 201//2 200//2 202//2
f 202//2 200//2 203//2
f 202//2 203//2 204//2
f 204//2 203//2 205//2
f 204//2 205//2 206//2
f 206//2 205//2 207//2
f 206//2 207//2 208//2
f 208//2 207//2 209//2
f 209//2 207//2 210//2
f 209//2 210//2 211//2
f 211//2 210//2 212//2
f 211//2 212//2 213//2
f 213//2 212//2 214//2
f 213//2 214//2 215//2
f 215//2 214//2 216//2
f 215//2 216//2 217//2
f 217//2 216//2 218//2
f 197//2 219//2 220//2
f 219//2 197//2 198//2
f 220//2 219//2 221//2
f 220//2 221//2 222//2
f 220//2 222//2 223//2
f 223//2 222//2 224//2
f 223//2 224//2 225//2
f 225//2 224//2 226//2
f 225//2 226//2 227//2
f 227//2 226//2 228//2
f 227//2 228//2 229//2
f 229//2 228//2 230//2
f 229//2 230//2 231//2
f 229//2 231//2 232//2
f 232//2 231//2 233//2
f 232//2 233//2 234//2
f 234//2 233//2 235//2
f 234//2 235//2 236//2
f 236//2 235//2 237//2
f 236//2 237//2 218//2
f 236//2 218//2 216//2
f 236//2 216//2 238//2
f 236//2 238//2 239//2
f 239//2 238//2 240//2
f 241//1 242//1 243//1
f 243//1 242//1 244//1
f 242//1 245//1 244//1
f 245//1 246//1 244//1
f 246//1 247//1 244//1
f 247//1 248//1 244//1
f 244//1 248//1 249//1
f 248//1 250//1 249//1
f 249//1 250//1 251//1
f 250//1 252//1 251//1
f 251//1 252//1 253//1
f 252//1 254//1 253//1
f 254//1 255//1 253//1
f 253//1 255//1 256//1
f 255//1 257//1 256//1
f 256//1 257//1 258//1
f 257//1 259//1 258//1
f 258//1 259//1 260//1
f 259//1 261//1 260//1
f 260//1 261//1 262//1
f 261//1 263//1 262//1
f 263//1 264//1 262//1
f 265//1 266//1 264//1
f 262//1 264//1 266//1
f 246//1 245//1 267//1
f 267//1 245//1 268//1
f 245//1 269//1 268//1
f 268//1 269//1 270//1
f 269//1 271//1 270//1
f 270//1 271//1 272//1
f 271//1 273//1 272//1
f 272//1 273//1 274//1
f 273//1 275//1 274//1
f 274//1 275//1 276//1
f 276//1 275//1 277//1
f 275//1 278//1 277//1
f 277//1 278//1 279//1
f 278//1 280//1 279//1
f 279//1 280//1 281//1
f 280//1 282//1 281//1
f 281//1 282//1 283//1
f 283//1 282//1 284//1
f 282//1 285//1 284//1
f 284//1 285//1 265//1
f 265//1 285//1 266//1
f 266//1 285//1 286//1
f 285//1 287//1 286//1
f 288//1 286//1 287//1
