# SSTK version 0.8.0
# 3
mtllib original_3.mtl
o #ID2164
v 0.00412967 0.79212218 -0.10204072
v -0.01604484 0.79203150 -0.10210796
v -0.00593203 0.79193351 -0.10253516
v 0.01424572 0.79207549 -0.10050348
v -0.02602576 0.79195958 -0.10036446
v 0.02392563 0.79206840 -0.09802218
v -0.03569609 0.79207415 -0.09802795
v 0.03353268 0.79202980 -0.09440982
v -0.04515654 0.79193688 -0.09443643
v 0.04248587 0.79198976 -0.08987558
v -0.05429963 0.79213981 -0.08948945
v 0.05099962 0.79204747 -0.08434190
v -0.06302420 0.79212814 -0.08411327
v 0.05872593 0.79193529 -0.07778293
v -0.07071877 0.79207957 -0.07775313
v 0.06608107 0.79220134 -0.07065080
v -0.07787405 0.79213173 -0.07046894
v 0.07253197 0.79203334 -0.06286716
v -0.08420996 0.79203443 -0.06269877
v 0.07806439 0.79213147 -0.05437324
v -0.08980923 0.79208173 -0.05423914
v 0.08255463 0.79195887 -0.04532828
v -0.09449463 0.79225116 -0.04517527
v 0.08622392 0.79202005 -0.03568817
v -0.09798949 0.79198053 -0.03564987
v 0.08885392 0.79198379 -0.02599733
v -0.10067593 0.79221229 -0.02575659
v 0.09053549 0.79209774 -0.01608942
v -0.10232388 0.79225880 -0.01585285
v 0.09110253 0.79201378 -0.00586782
v -0.10264959 0.79216272 -0.00556527
v 0.09041942 0.79196618 0.00418734
v -0.10216895 0.79198822 0.00429106
v 0.08903792 0.79206805 0.01420360
v -0.10073947 0.79217073 0.01443051
v 0.08634081 0.79213769 0.02404978
v -0.09788078 0.79217125 0.02430154
v 0.08287563 0.79198678 0.03366429
v -0.09432818 0.79197702 0.03359995
v 0.07820824 0.79212138 0.04248145
v -0.08969533 0.79211218 0.04285996
v 0.07265231 0.79208397 0.05121749
v -0.08413231 0.79210355 0.05126725
v 0.06636128 0.79198512 0.05895011
v -0.07771605 0.79214255 0.05899889
v 0.05904725 0.79196430 0.06609337
v -0.07062645 0.79216076 0.06635565
v 0.05115887 0.79202484 0.07272929
v -0.06275386 0.79211354 0.07272261
v 0.04275473 0.79221674 0.07801648
v -0.05419882 0.79210883 0.07821860
v 0.03371832 0.79199524 0.08274596
v -0.04527715 0.79208542 0.08278984
v 0.02404061 0.79200282 0.08634568
v -0.03577666 0.79224527 0.08641107
v 0.01442155 0.79219519 0.08901945
v -0.02595634 0.79203775 0.08902988
v 0.00428273 0.79230652 0.09043889
v -0.01580849 0.79214927 0.09058314
v -0.00577645 0.79205892 0.09115726
v -0.00573158 0.79209971 0.09115901
v 0.00434855 0.79200174 0.09049699
v -0.01580750 0.79201470 0.09073227
v -0.02578117 0.79205848 0.08893329
v 0.01440685 0.79199491 0.08897502
v -0.03559088 0.79208726 0.08654566
v 0.02425227 0.79201734 0.08632278
v -0.04512455 0.79217039 0.08267438
v 0.03362280 0.79201159 0.08283413
v -0.05429794 0.79206503 0.07807994
v 0.04255821 0.79208797 0.07807695
v -0.06270799 0.79215424 0.07255154
v 0.05122982 0.79202086 0.07250504
v -0.07061035 0.79215098 0.06631660
v 0.05901568 0.79207368 0.06617369
v -0.07782163 0.79225487 0.05925577
v 0.06631067 0.79194586 0.05896412
v -0.08422617 0.79194283 0.05137556
v 0.07243881 0.79209096 0.05105707
v -0.08966961 0.79211854 0.04270198
v 0.07797043 0.79201700 0.04266338
v -0.09447928 0.79217547 0.03373758
v 0.08272473 0.79198890 0.03339629
v -0.09801775 0.79207153 0.02416736
v 0.08640038 0.79211197 0.02408409
v -0.10046852 0.79212706 0.01455236
v 0.08887692 0.79217740 0.01416233
v -0.10222143 0.79206189 0.00443415
v 0.09057437 0.79219483 0.00434572
v -0.10279548 0.79203317 -0.00570198
v 0.09111057 0.79209037 -0.00589280
v -0.10214608 0.79210418 -0.01572219
v 0.09046512 0.79220025 -0.01595998
v -0.10078602 0.79214700 -0.02570652
v 0.08888919 0.79206770 -0.02592496
v -0.09795844 0.79228581 -0.03565737
v 0.08620473 0.79213204 -0.03579682
v -0.09437060 0.79203286 -0.04510986
v 0.08265290 0.79205902 -0.04514316
v -0.08978798 0.79203009 -0.05429794
v 0.07800878 0.79215598 -0.05425876
v -0.08433189 0.79216368 -0.06257427
v 0.07259607 0.79211971 -0.06296715
v -0.07781127 0.79210933 -0.07068149
v 0.06599808 0.79203270 -0.07074605
v -0.07079565 0.79217568 -0.07787469
v 0.05874415 0.79218001 -0.07786118
v -0.06295112 0.79211522 -0.08406611
v 0.05113573 0.79212594 -0.08423443
v -0.05429272 0.79196638 -0.08963251
v 0.04247164 0.79222477 -0.08971216
v -0.04532187 0.79205359 -0.09433843
v 0.03330367 0.79217771 -0.09436276
v -0.03602120 0.79214149 -0.09795419
v 0.02388842 0.79211549 -0.09792940
v -0.02597377 0.79196758 -0.10051853
v 0.01411240 0.79219747 -0.10054951
v -0.01602658 0.79197495 -0.10211163
v 0.00429762 0.79203636 -0.10216699
v -0.00599939 0.79225554 -0.10250575
v -0.05440029 0.88245908 -0.08981772
v -0.06300740 0.79214273 -0.08405983
v -0.06284616 0.88263415 -0.08410239
v -0.05431930 0.79211081 -0.08966947
v -0.05441638 0.79216332 -0.08955855
v -0.05441864 0.88259466 -0.08952197
v -0.06291445 0.79203428 -0.08419499
v -0.06295618 0.88260789 -0.08402521
v -0.04541196 0.88253769 -0.09429050
v -0.04533683 0.79217021 -0.09440387
v -0.04546440 0.79203521 -0.09424798
v -0.04539701 0.88261008 -0.09413741
v -0.03583610 0.88262576 -0.09773179
v -0.03593908 0.79212333 -0.09786727
v -0.03571226 0.79205266 -0.09805269
v -0.03594535 0.88269047 -0.09792843
v -0.02597382 0.88266884 -0.10040558
v -0.02610446 0.79204175 -0.10047387
v -0.02613292 0.79198413 -0.10049264
v -0.02604308 0.88255477 -0.10046100
v -0.01602792 0.88264394 -0.10198344
v -0.01611724 0.79210158 -0.10205288
v -0.01612547 0.79209108 -0.10212533
v -0.01594238 0.88267995 -0.10201473
v -0.00602009 0.88263718 -0.10255329
v -0.00595741 0.79218966 -0.10267808
v -0.00601055 0.79212772 -0.10276445
v -0.00589241 0.88260140 -0.10258955
v 0.00412164 0.88265984 -0.10221386
v 0.00414088 0.79216053 -0.10212853
v 0.00422759 0.79209820 -0.10212004
v 0.00409436 0.88258984 -0.10212751
v 0.01409845 0.88258914 -0.10054640
v 0.01416984 0.79221603 -0.10070612
v 0.01409302 0.79230214 -0.10056653
v 0.01409208 0.88262222 -0.10054124
v 0.02412526 0.88276225 -0.09792465
v 0.02404185 0.79217322 -0.09789069
v 0.02401630 0.79207258 -0.09789701
v 0.02389652 0.88256676 -0.09790760
v 0.03336663 0.88261508 -0.09432958
v 0.03358412 0.79221795 -0.09440578
v 0.03348151 0.79202100 -0.09437889
v 0.03349516 0.88258098 -0.09419797
v 0.04242904 0.88249235 -0.08976065
v 0.04253581 0.79214817 -0.08985097
v 0.04257950 0.79200737 -0.08974919
v 0.04247865 0.88259198 -0.08971880
v 0.05107705 0.88260230 -0.08417780
v 0.05108627 0.79224232 -0.08440045
v 0.05099736 0.79220557 -0.08413741
v 0.05113611 0.88268665 -0.08409352
v 0.05891313 0.88273677 -0.07791383
v 0.05890370 0.79218249 -0.07797495
v 0.05878573 0.79219939 -0.07789806
v 0.05898509 0.88258241 -0.07778433
v 0.06591884 0.88267715 -0.07066804
v 0.06616924 0.79222650 -0.07078486
v 0.06615546 0.79216050 -0.07074873
v 0.06616733 0.88258530 -0.07086715
v 0.07247704 0.79214393 -0.06281391
v 0.07256778 0.88261955 -0.06289572
v 0.07249146 0.88271539 -0.06271404
v 0.07256194 0.79208124 -0.06284501
v 0.07804550 0.79211401 -0.05437265
v 0.07792264 0.88264899 -0.05433078
v 0.07804254 0.88267838 -0.05440718
v 0.07796696 0.79209396 -0.05448064
v 0.08257947 0.79213486 -0.04533616
v 0.08261204 0.88253707 -0.04522803
v 0.08257084 0.88279913 -0.04531579
v 0.08260227 0.79193902 -0.04532681
v 0.08631740 0.79217891 -0.03598195
v 0.08632364 0.88265574 -0.03584818
v 0.08618014 0.88263053 -0.03573963
v 0.08628521 0.79217183 -0.03574251
v 0.08889878 0.79201588 -0.02594650
v 0.08891760 0.88272720 -0.02593307
v 0.08880365 0.88248732 -0.02602686
v 0.08892159 0.79207080 -0.02600060
v 0.09064121 0.79202871 -0.01607115
v 0.09058786 0.88281552 -0.01604259
v 0.09036710 0.88266735 -0.01601809
v 0.09050486 0.79211979 -0.01612588
v 0.09095973 0.79204169 -0.00597080
v 0.09097520 0.88251408 -0.00587936
v 0.09106673 0.88278236 -0.00579198
v 0.09105956 0.79206792 -0.00587345
v 0.09038169 0.79200359 0.00436733
v 0.09049724 0.88260091 0.00427541
v 0.09042645 0.88257971 0.00416346
v 0.09051993 0.79206978 0.00421713
v 0.08907622 0.79219493 0.01418775
v 0.08913756 0.88247624 0.01426420
v 0.08899068 0.88258659 0.01422349
v 0.08884864 0.79214506 0.01423757
v 0.08640036 0.79208727 0.02399118
v 0.08623654 0.88278698 0.02389024
v 0.08633475 0.88247431 0.02409475
v 0.08634705 0.79202766 0.02409944
v 0.08268024 0.79206657 0.03350966
v 0.08265814 0.88262080 0.03349855
v 0.08277930 0.88262287 0.03344665
v 0.08283609 0.79219152 0.03356949
v 0.07802385 0.79202135 0.04263650
v 0.07812698 0.88277665 0.04260057
v 0.07815071 0.88268738 0.04254973
v 0.07806258 0.79217623 0.04268201
v 0.07261473 0.79211969 0.05115132
v 0.07249393 0.88256049 0.05115603
v 0.07260942 0.88256961 0.05107074
v 0.07251438 0.79205964 0.05096022
v 0.06633404 0.79208228 0.05915370
v 0.06624987 0.88274120 0.05888709
v 0.06606689 0.88263524 0.05886193
v 0.06609618 0.79220307 0.05892415
v 0.05912451 0.79223726 0.06612352
v 0.05894306 0.88261292 0.06622575
v 0.05910425 0.88259183 0.06618552
v 0.05923735 0.79211700 0.06605780
v 0.05119647 0.88262662 0.07262144
v 0.05127553 0.79210895 0.07258156
v 0.05121142 0.88270484 0.07262432
v 0.05123191 0.79204320 0.07241660
v 0.04278602 0.88259975 0.07819012
v 0.04275483 0.79209854 0.07806507
v 0.04268909 0.88258302 0.07822662
v 0.04277336 0.79211576 0.07815598
v 0.03376767 0.88265760 0.08270171
v 0.03367679 0.79226514 0.08279302
v 0.03365245 0.88270161 0.08267769
v 0.03367736 0.79219417 0.08272972
v 0.02427496 0.88247265 0.08632774
v 0.02434831 0.79209373 0.08623653
v 0.02412567 0.88267762 0.08646923
v 0.02430620 0.79212186 0.08634643
v 0.01445483 0.88269251 0.08903794
v 0.01427020 0.79216907 0.08906002
v 0.01449933 0.88252302 0.08902554
v 0.01446516 0.79198053 0.08901184
v 0.00434652 0.88262164 0.09050958
v 0.00435522 0.79201844 0.09058793
v 0.00437504 0.88250595 0.09061876
v 0.00436272 0.79217696 0.09058729
v -0.00588620 0.88270416 0.09119900
v -0.00574480 0.79217915 0.09102383
v -0.00568641 0.88257792 0.09128777
v -0.00566808 0.79197167 0.09094221
v -0.01590007 0.88269759 0.09055931
v -0.01593788 0.79200679 0.09067412
v -0.01591684 0.88256898 0.09074087
v -0.01596156 0.79214063 0.09075001
v -0.02576730 0.88262707 0.08911007
v -0.02602437 0.79226747 0.08903427
v -0.02582903 0.88269381 0.08898423
v -0.02584022 0.79206693 0.08907099
v -0.03562318 0.88252016 0.08644193
v -0.03566435 0.79211759 0.08630736
v -0.03570320 0.88264811 0.08637132
v -0.03571810 0.79194047 0.08637408
v -0.04524446 0.88266780 0.08275431
v -0.04526141 0.79210629 0.08277105
v -0.04503296 0.88265231 0.08285077
v -0.04501838 0.79212527 0.08284063
v -0.05432223 0.88270420 0.07830995
v -0.05420065 0.79206970 0.07831353
v -0.05414083 0.88264585 0.07822057
v -0.05412380 0.79222182 0.07819664
v -0.06287032 0.88254412 0.07258697
v -0.06279314 0.79215554 0.07279745
v -0.06253088 0.88253863 0.07264022
v -0.06260765 0.79212046 0.07267365
v -0.07072023 0.88255621 0.06626983
v -0.07062177 0.79214694 0.06631731
v -0.07066072 0.88274096 0.06637132
v -0.07066627 0.79204974 0.06631407
v -0.07787051 0.88267990 0.05912896
v -0.07779465 0.79200590 0.05917674
v -0.07776813 0.88250905 0.05897689
v -0.07769106 0.79204448 0.05914960
v -0.08415900 0.79229054 0.05125177
v -0.08413028 0.88255757 0.05138623
v -0.08425287 0.88252386 0.05121772
v -0.08429284 0.79226856 0.05126992
v -0.08960765 0.79201417 0.04273681
v -0.08971187 0.88270071 0.04293793
v -0.08975951 0.88256745 0.04277928
v -0.08973157 0.79221017 0.04270543
v -0.09422105 0.79223265 0.03355862
v -0.09433689 0.88267226 0.03371938
v -0.09442789 0.88247722 0.03372382
v -0.09431272 0.79205489 0.03363308
v -0.09802454 0.79201751 0.02421290
v -0.09805552 0.88274016 0.02422664
v -0.09787976 0.88267729 0.02445761
v -0.09789097 0.79204889 0.02415172
v -0.10043387 0.79208702 0.01439966
v -0.10055607 0.88251373 0.01448749
v -0.10061113 0.88264320 0.01453543
v -0.10060984 0.79227135 0.01445701
v -0.10219919 0.79202236 0.00431972
v -0.10211281 0.88254386 0.00431745
v -0.10208178 0.88254329 0.00444139
v -0.10228968 0.79219812 0.00433794
v -0.10287913 0.79213906 -0.00573256
v -0.10274784 0.88255601 -0.00557228
v -0.10275846 0.88268093 -0.00556170
v -0.10266440 0.79202619 -0.00562372
v -0.10222949 0.79201613 -0.01583792
v -0.10217861 0.88267151 -0.01577262
v -0.10229241 0.88278200 -0.01582390
v -0.10232156 0.79217094 -0.01581057
v -0.10057247 0.79205684 -0.02583778
v -0.10066136 0.88269696 -0.02565090
v -0.10056475 0.88259183 -0.02590448
v -0.10057015 0.79220032 -0.02579530
v -0.09816121 0.79204900 -0.03547771
v -0.09791406 0.88264101 -0.03576662
v -0.09819268 0.88266137 -0.03558432
v -0.09802929 0.79201815 -0.03553004
v -0.09425092 0.79197092 -0.04514011
v -0.09433291 0.88256263 -0.04509631
v -0.09440881 0.88264306 -0.04509192
v -0.09435056 0.79203103 -0.04505069
v -0.08987522 0.79222658 -0.05429047
v -0.08985381 0.88258483 -0.05422414
v -0.08988279 0.88258455 -0.05422042
v -0.08980896 0.79195337 -0.05411750
v -0.08431911 0.79205444 -0.06265610
v -0.08425618 0.88267183 -0.06260836
v -0.08423345 0.88254670 -0.06269202
v -0.08429373 0.79224822 -0.06249193
v -0.07789579 0.79206150 -0.07056976
v -0.07786844 0.88273572 -0.07061521
v -0.07793402 0.88256091 -0.07052480
v -0.07787833 0.79222199 -0.07051361
v -0.07083328 0.79209902 -0.07767537
v -0.07084192 0.88269353 -0.07779978
v -0.07073946 0.88266788 -0.07756756
v -0.07080253 0.79218223 -0.07763462
v -0.06002056 0.89038645 -0.08016763
v -0.05439393 0.88269864 -0.08963666
v -0.06279355 0.88244469 -0.08415333
v -0.05196448 0.89022451 -0.08565700
v -0.05195333 0.89052238 -0.08559399
v -0.06008533 0.89034934 -0.08026433
v -0.05439236 0.88259628 -0.08980295
v -0.06303520 0.88244263 -0.08420163
v -0.04545177 0.88261731 -0.09438984
v -0.04342001 0.89030053 -0.09006798
v -0.04350992 0.89038851 -0.08989045
v -0.04528724 0.88252856 -0.09432920
v -0.03581085 0.88260932 -0.09797327
v -0.03438910 0.89017161 -0.09348696
v -0.03440878 0.89024301 -0.09348616
v -0.03575283 0.88260226 -0.09781534
v -0.02610263 0.88265616 -0.10053188
v -0.02505732 0.89020869 -0.09612746
v -0.02509290 0.89020962 -0.09605514
v -0.02609449 0.88256578 -0.10043458
v -0.01606913 0.88262923 -0.10212176
v -0.01571228 0.89029658 -0.09744415
v -0.01554862 0.89026282 -0.09752489
v -0.01615339 0.88265078 -0.10205066
v -0.00592024 0.88268147 -0.10256638
v -0.00588326 0.89018282 -0.09791335
v -0.00586224 0.89031514 -0.09788963
v -0.00595498 0.88268406 -0.10263186
v 0.00419314 0.88261838 -0.10220449
v 0.00370670 0.89047995 -0.09746572
v 0.00369805 0.89017892 -0.09762090
v 0.00423429 0.88274513 -0.10205895
v 0.01335918 0.89033149 -0.09600794
v 0.01418868 0.88273287 -0.10070340
v 0.01427984 0.88255588 -0.10054792
v 0.01323823 0.89018900 -0.09608447
v 0.02246368 0.89044115 -0.09347210
v 0.02401373 0.88250690 -0.09784367
v 0.02408307 0.88263462 -0.09791539
v 0.02248033 0.89022684 -0.09359685
v 0.03157439 0.89042822 -0.08996936
v 0.03340087 0.88278869 -0.09429683
v 0.03342237 0.88252938 -0.09439530
v 0.03155030 0.89031157 -0.09007925
v 0.04017285 0.89032593 -0.08575416
v 0.04256501 0.88270699 -0.08965069
v 0.04241312 0.88251680 -0.08979096
v 0.04037122 0.89029036 -0.08579195
v 0.04820072 0.89022478 -0.08037193
v 0.05091966 0.88253305 -0.08424796
v 0.05097171 0.88263368 -0.08430841
v 0.04828504 0.89033190 -0.08034709
v 0.05571848 0.89030274 -0.07447452
v 0.05888380 0.88266139 -0.07786184
v 0.05905795 0.88264020 -0.07782598
v 0.05588269 0.89045528 -0.07434405
v 0.06260781 0.89032402 -0.06759018
v 0.06612103 0.88252811 -0.07069842
v 0.06616861 0.88271315 -0.07065347
v 0.06266656 0.89029715 -0.06745831
v 0.07245209 0.88253981 -0.06270993
v 0.06858754 0.89051173 -0.05994943
v 0.06867700 0.89018815 -0.06016053
v 0.07247764 0.88247921 -0.06286409
v 0.07808970 0.88270050 -0.05427023
v 0.07394916 0.89041412 -0.05181893
v 0.07392217 0.89036915 -0.05191877
v 0.07802365 0.88267882 -0.05436181
v 0.08262310 0.88248171 -0.04519549
v 0.07829537 0.89049880 -0.04333190
v 0.07836649 0.89019790 -0.04337020
v 0.08254530 0.88251744 -0.04534885
v 0.08637094 0.88268268 -0.03568200
v 0.08189939 0.89028574 -0.03442659
v 0.08177646 0.89022120 -0.03431172
v 0.08616105 0.88263383 -0.03584562
v 0.08885057 0.88273260 -0.02617745
v 0.08425589 0.89034201 -0.02522728
v 0.08428811 0.89022245 -0.02508989
v 0.08900552 0.88263229 -0.02619074
v 0.09051298 0.88262483 -0.01596321
v 0.08581912 0.89028165 -0.01549757
v 0.08581387 0.89035477 -0.01542940
v 0.09062640 0.88252118 -0.01600234
v 0.09110446 0.88268781 -0.00576902
v 0.08631381 0.89032605 -0.00583933
v 0.08626573 0.89024499 -0.00572901
v 0.09103964 0.88270346 -0.00595246
v 0.09056368 0.88252476 0.00423832
v 0.08587857 0.89031530 0.00394717
v 0.08583781 0.89034216 0.00391519
v 0.09062157 0.88253036 0.00431957
v 0.08888087 0.88248943 0.01430412
v 0.08439689 0.89026069 0.01330739
v 0.08442791 0.89028037 0.01334432
v 0.08895440 0.88264904 0.01430887
v 0.08626548 0.88263854 0.02397624
v 0.08195235 0.89040792 0.02268650
v 0.08180541 0.89025219 0.02276128
v 0.08647474 0.88258294 0.02398031
v 0.08261740 0.88265644 0.03359442
v 0.07848677 0.89029813 0.03148567
v 0.07840569 0.89036495 0.03164435
v 0.08277015 0.88273751 0.03360710
v 0.07813801 0.88280207 0.04262564
v 0.07408984 0.89038732 0.04038078
v 0.07400268 0.89030914 0.04038491
v 0.07816401 0.88259371 0.04262053
v 0.07261836 0.88266562 0.05109737
v 0.06870774 0.89023752 0.04838416
v 0.06885096 0.89030295 0.04840054
v 0.07255182 0.88264392 0.05110920
v 0.06634866 0.88271203 0.05903346
v 0.06280720 0.89033923 0.05575206
v 0.06290077 0.89040628 0.05567206
v 0.06618957 0.88268782 0.05904953
v 0.05895136 0.88253109 0.06615726
v 0.05577006 0.89036931 0.06277472
v 0.05597683 0.89033469 0.06259162
v 0.05913556 0.88263148 0.06597296
v 0.05122871 0.88264471 0.07259388
v 0.04854350 0.89032858 0.06863319
v 0.05130249 0.88258733 0.07268567
v 0.04854861 0.89026909 0.06869488
v 0.04273668 0.88271380 0.07807690
v 0.04052778 0.89032976 0.07392406
v 0.04277526 0.88256043 0.07795197
v 0.04042297 0.89033399 0.07398988
v 0.03368818 0.88259414 0.08282138
v 0.03172253 0.89030618 0.07830405
v 0.03349462 0.88267047 0.08270933
v 0.03167855 0.89039757 0.07833420
v 0.02424486 0.88258393 0.08639498
v 0.02286600 0.89022699 0.08182072
v 0.02433590 0.88255148 0.08640518
v 0.02265757 0.89024310 0.08197022
v 0.01444862 0.88268201 0.08905232
v 0.01344464 0.89027573 0.08439482
v 0.01454812 0.88265866 0.08900443
v 0.01337706 0.89031494 0.08437754
v 0.00445499 0.88263614 0.09061487
v 0.00380669 0.89024816 0.08590985
v 0.00441551 0.88270409 0.09055401
v 0.00392421 0.89031467 0.08596975
v -0.00563225 0.88269009 0.09113009
v -0.00578890 0.89016974 0.08637527
v -0.00570411 0.88256325 0.09104818
v -0.00572794 0.89024667 0.08648494
v -0.01531926 0.89034967 0.08581341
v -0.01589892 0.88260414 0.09061322
v -0.01534129 0.89032679 0.08601302
v -0.01599793 0.88251587 0.09045863
v -0.02489426 0.89048456 0.08431136
v -0.02596629 0.88257534 0.08903445
v -0.02481177 0.89024073 0.08446231
v -0.02593741 0.88277348 0.08908871
v -0.03422206 0.89042116 0.08195160
v -0.03575640 0.88265720 0.08646052
v -0.03410920 0.89043363 0.08189647
v -0.03555082 0.88242945 0.08642596
v -0.04339805 0.89048858 0.07843281
v -0.04506951 0.88274426 0.08290469
v -0.04325467 0.89042709 0.07863996
v -0.04529692 0.88258756 0.08265951
v -0.05193144 0.89025856 0.07402349
v -0.05427550 0.88253032 0.07816941
v -0.05182805 0.89040390 0.07406632
v -0.05426504 0.88252489 0.07832514
v -0.05979358 0.89029438 0.06879623
v -0.06285180 0.88257488 0.07251437
v -0.05999291 0.89029258 0.06893952
v -0.06272053 0.88261148 0.07250370
v -0.06743679 0.89020808 0.06280779
v -0.07065632 0.88255464 0.06633167
v -0.06750933 0.89036854 0.06282715
v -0.07065473 0.88269169 0.06619761
v -0.07435921 0.89022841 0.05608318
v -0.07761515 0.88260435 0.05908389
v -0.07415721 0.89030763 0.05598880
v -0.07767642 0.88259491 0.05914583
v -0.08410378 0.88252607 0.05108443
v -0.08043814 0.89030694 0.04855646
v -0.08032712 0.89023667 0.04843597
v -0.08411058 0.88252082 0.05125417
v -0.08975230 0.88257010 0.04283798
v -0.08569023 0.89020952 0.04041339
v -0.08556771 0.89021366 0.04043386
v -0.08975248 0.88254061 0.04290256
v -0.09428927 0.88251809 0.03370695
v -0.09006346 0.89029639 0.03190195
v -0.09009162 0.89028800 0.03194868
v -0.09418747 0.88266614 0.03369735
v -0.09790162 0.88259157 0.02421457
v -0.09348384 0.89020935 0.02283044
v -0.09339512 0.89044575 0.02287855
v -0.09799282 0.88276969 0.02424782
v -0.10051917 0.88260024 0.01447093
v -0.09612840 0.89028172 0.01358806
v -0.09602479 0.89025547 0.01341318
v -0.10064645 0.88263285 0.01453221
v -0.10200632 0.88260478 0.00428443
v -0.09740965 0.89040052 0.00386258
v -0.09747232 0.89042561 0.00396558
v -0.10229201 0.88267358 0.00457654
v -0.10273316 0.88266632 -0.00555995
v -0.09815505 0.89026418 -0.00568591
v -0.09820634 0.89030773 -0.00568784
v -0.10287681 0.88258896 -0.00567797
v -0.10216822 0.88252515 -0.01582335
v -0.09754818 0.89039916 -0.01524765
v -0.09760664 0.89039740 -0.01533806
v -0.10231993 0.88263891 -0.01578007
v -0.10068618 0.88261936 -0.02577692
v -0.09618019 0.89040140 -0.02485148
v -0.09607908 0.89044991 -0.02472135
v -0.10067438 0.88278368 -0.02579882
v -0.09811719 0.88263719 -0.03559114
v -0.09375178 0.89028357 -0.03407502
v -0.09350456 0.89042835 -0.03433680
v -0.09819130 0.88256434 -0.03552668
v -0.09444290 0.88261194 -0.04510511
v -0.09018355 0.89025086 -0.04313564
v -0.09008694 0.89027384 -0.04321722
v -0.09455574 0.88275622 -0.04507942
v -0.08978169 0.88268541 -0.05417360
v -0.08577564 0.89032857 -0.05177752
v -0.08561325 0.89027394 -0.05179453
v -0.08987763 0.88250724 -0.05399222
v -0.08432261 0.88278932 -0.06264931
v -0.08057968 0.89047455 -0.05984901
v -0.08049746 0.89027648 -0.05987383
v -0.08434862 0.88275645 -0.06262286
v -0.07792938 0.88262139 -0.07054832
v -0.07444233 0.89035593 -0.06739860
v -0.07436477 0.89019996 -0.06753443
v -0.07795933 0.88264647 -0.07063271
v -0.07060278 0.88267755 -0.07764981
v -0.06750881 0.89040036 -0.07434928
v -0.06778858 0.89032425 -0.07421435
v -0.07062950 0.88255092 -0.07781373
v -0.07445715 0.89048667 -0.06745995
v -0.00603240 0.89024877 -0.07006765
v -0.06766442 0.89033472 -0.07419403
v -0.01280194 0.89039572 -0.06966166
v -0.01918125 0.89044884 -0.06866621
v -0.02595596 0.89034927 -0.06689287
v -0.08039278 0.89037422 -0.05976269
v -0.03205107 0.89029435 -0.06451670
v -0.03795222 0.89023073 -0.06136347
v -0.04383034 0.89039698 -0.05790118
v -0.08572971 0.89018645 -0.05162486
v -0.04889019 0.89016845 -0.05335027
v -0.05365734 0.89036021 -0.04879599
v -0.09009001 0.89042410 -0.04317652
v -0.05792217 0.89034083 -0.04349751
v -0.06172326 0.89042826 -0.03789668
v -0.09358009 0.89029476 -0.03407551
v -0.06467240 0.89033743 -0.03191712
v -0.09610816 0.89039447 -0.02484547
v -0.06693003 0.89030257 -0.02568271
v -0.06877615 0.89040851 -0.01919252
v -0.09762386 0.89040854 -0.01535486
v -0.06981885 0.89029331 -0.01245259
v -0.09791993 0.89025947 -0.00559318
v -0.07006868 0.89016166 -0.00572793
v -0.06989087 0.89034584 0.00103826
v -0.09749310 0.89028899 0.00388664
v -0.06873505 0.89044922 0.00766354
v -0.09617035 0.89049933 0.01349456
v -0.06700095 0.89020831 0.01430427
v -0.09353899 0.89033316 0.02278019
v -0.06449981 0.89023352 0.02045713
v -0.06146031 0.89038800 0.02653028
v -0.09008813 0.89020885 0.03181946
v -0.05795516 0.89048212 0.03219610
v -0.08554571 0.89040186 0.04034754
v -0.05369287 0.89032401 0.03722622
v -0.04885174 0.89038458 0.04209457
v -0.08024610 0.89038355 0.04850305
v -0.04348797 0.89038306 0.04610275
v -0.03800752 0.89034215 0.05013309
v -0.07440723 0.89036531 0.05591683
v -0.03199601 0.89026022 0.05304641
v -0.02572522 0.89039334 0.05534308
v -0.01914495 0.89018561 0.05715909
v -0.06756373 0.89031104 0.06279946
v -0.01252844 0.89019098 0.05820482
v -0.00578057 0.89044993 0.05862015
v 0.05596066 0.89038097 0.06269299
v 0.04845924 0.89022463 0.06881781
v -0.06001262 0.89038180 0.06889766
v 0.04024202 0.89021305 0.07391182
v -0.05176789 0.89041074 0.07408400
v 0.03191083 0.89029221 0.07835589
v -0.04311485 0.89035047 0.07835584
v 0.02275458 0.89014754 0.08198200
v -0.03412019 0.89037147 0.08208498
v 0.01355938 0.89030737 0.08433427
v -0.02507793 0.89033717 0.08441787
v 0.00393924 0.89016936 0.08601122
v -0.01543562 0.89040130 0.08600701
v -0.00570892 0.89045721 0.08629189
v -0.01546994 0.89032924 -0.09742808
v 0.00366748 0.89016325 -0.09749744
v -0.00586535 0.89038078 -0.09797526
v 0.01317809 0.89031170 -0.09585603
v -0.02505334 0.89050754 -0.09593361
v 0.02256454 0.89025143 -0.09341316
v -0.03443949 0.89030145 -0.09346869
v 0.03156120 0.89025070 -0.09002616
v -0.04328916 0.89050443 -0.09002709
v 0.04002386 0.89022619 -0.08568202
v -0.05206468 0.89037083 -0.08560337
v 0.04833630 0.89031904 -0.08040817
v -0.06007937 0.89036506 -0.08034717
v 0.05576619 0.89041721 -0.07427428
v 0.06270619 0.89025119 -0.06755575
v 0.00071034 0.89028975 -0.06981155
v 0.00746662 0.89032026 -0.06863829
v 0.01395094 0.89031223 -0.06688117
v 0.06865661 0.89034330 -0.05998778
v 0.02010640 0.89047440 -0.06466426
v 0.02634915 0.89035832 -0.06142944
v 0.03203745 0.89032473 -0.05800222
v 0.07400448 0.89027217 -0.05190582
v 0.03706246 0.89032649 -0.05369767
v 0.04181480 0.89042389 -0.04901496
v 0.07842148 0.89019734 -0.04329514
v 0.04607609 0.89034882 -0.04365848
v 0.04997826 0.89022813 -0.03798060
v 0.08166426 0.89024488 -0.03446190
v 0.05300132 0.89035372 -0.03203335
v 0.08442505 0.89037484 -0.02502267
v 0.05534379 0.89032548 -0.02570155
v 0.05714962 0.89034483 -0.01925787
v 0.08573671 0.89026469 -0.01553835
v 0.05804705 0.89033671 -0.01264322
v 0.08635493 0.89020214 -0.00588515
v 0.05838242 0.89035744 -0.00594304
v 0.08598915 0.89027764 0.00366227
v 0.05822595 0.89015107 0.00089510
v 0.05699679 0.89037730 0.00755093
v 0.08444081 0.89029040 0.01337264
v 0.05537614 0.89029448 0.01412598
v 0.08186309 0.89039447 0.02249499
v 0.05279261 0.89029679 0.02032214
v 0.04990208 0.89032165 0.02636821
v 0.07844005 0.89025366 0.03149686
v 0.04617107 0.89026659 0.03202697
v 0.07418256 0.89034720 0.04031272
v 0.04193146 0.89030548 0.03721068
v 0.03732065 0.89025929 0.04195228
v 0.06880683 0.89045238 0.04819171
v 0.03189868 0.89030685 0.04621762
v 0.02641796 0.89032598 0.04987729
v 0.06277155 0.89034850 0.05579366
v 0.02025450 0.89023381 0.05284873
v 0.01397974 0.89044960 0.05540139
v 0.00749585 0.89038959 0.05714954
v 0.00097159 0.89029808 0.05825485
v -0.00579989 0.89037761 0.05857870
v 0.00109679 0.89037993 0.05811460
v 0.05586081 0.89029032 0.06269650
v 0.00769192 0.89029905 0.05695549
v 0.06271013 0.89030601 0.05586667
v 0.01409757 0.89029570 0.05530018
v 0.02021802 0.89046226 0.05302930
v 0.02636480 0.89025041 0.04979455
v 0.06884577 0.89036145 0.04820627
v 0.03208328 0.89016985 0.04621013
v 0.03732928 0.89038550 0.04201170
v 0.07419129 0.89026271 0.04020589
v 0.04198252 0.89033319 0.03722161
v 0.04611318 0.89039945 0.03185439
v 0.07833489 0.89028176 0.03167651
v 0.04992092 0.89026014 0.02624114
v 0.08175750 0.89017337 0.02264167
v 0.05306722 0.89039350 0.02021122
v 0.05543557 0.89026874 0.01388568
v 0.08419412 0.89035533 0.01341870
v 0.05722253 0.89044500 0.00763236
v 0.08581431 0.89025000 0.00371077
v 0.05805761 0.89017884 0.00095793
v 0.05846672 0.89017675 -0.00600018
v 0.08638251 0.89038407 -0.00572569
v 0.05795622 0.89026582 -0.01265094
v 0.08596667 0.89022783 -0.01558935
v 0.05719145 0.89022926 -0.01906213
v 0.08437230 0.89036584 -0.02503869
v 0.05541980 0.89040394 -0.02569814
v 0.05296860 0.89027491 -0.03198348
v 0.08171698 0.89019620 -0.03438390
v 0.04980739 0.89038111 -0.03810818
v 0.07822478 0.89028595 -0.04340942
v 0.04633685 0.89032357 -0.04363665
v 0.04180321 0.89025473 -0.04874860
v 0.07401523 0.89034058 -0.05203194
v 0.03721489 0.89034399 -0.05364500
v 0.03180097 0.89028276 -0.05780397
v 0.06867639 0.89032554 -0.05997968
v 0.02631645 0.89033156 -0.06151468
v 0.02032798 0.89039445 -0.06452808
v 0.01391058 0.89029768 -0.06690271
v 0.06264163 0.89033606 -0.06745024
v 0.00738743 0.89031609 -0.06867585
v 0.00071574 0.89025516 -0.06983267
v -0.00590069 0.89050542 -0.07003736
v -0.06766004 0.89028446 -0.07419333
v 0.05587051 0.89044298 -0.07438633
v -0.06014575 0.89039553 -0.08034605
v 0.04839138 0.89032564 -0.08044524
v -0.05195336 0.89022445 -0.08544506
v 0.04017774 0.89035086 -0.08565807
v -0.04343348 0.89022779 -0.08998808
v 0.03165914 0.89025165 -0.09015215
v -0.03456338 0.89015263 -0.09343198
v 0.02254735 0.89021426 -0.09345039
v -0.02503447 0.89035314 -0.09591495
v 0.01312067 0.89020164 -0.09606552
v -0.01545367 0.89038646 -0.09749467
v 0.00377378 0.89023399 -0.09754028
v -0.00598331 0.89019315 -0.09789323
v -0.00581786 0.89040555 0.08643533
v -0.01538471 0.89033797 0.08605307
v 0.00387852 0.89031881 0.08583385
v -0.02506923 0.89032050 0.08447962
v 0.01339298 0.89027548 0.08437615
v -0.03430632 0.89040193 0.08180694
v 0.02272172 0.89042893 0.08194972
v -0.04319596 0.89028904 0.07851041
v 0.03178111 0.89031740 0.07826593
v -0.05198226 0.89029293 0.07409966
v 0.04049406 0.89043198 0.07398369
v -0.06008265 0.89029386 0.06882601
v 0.04840571 0.89027246 0.06881749
v -0.06762412 0.89037802 0.06281868
v -0.01261235 0.89033492 0.05829815
v -0.01905278 0.89034714 0.05712783
v -0.07446500 0.89027904 0.05595807
v -0.02564837 0.89028346 0.05539042
v -0.03185485 0.89027969 0.05295778
v -0.03785988 0.89033990 0.04983053
v -0.08026584 0.89026036 0.04835046
v -0.04342096 0.89023768 0.04637306
v -0.04879479 0.89035073 0.04218436
v -0.08564442 0.89029990 0.04033774
v -0.05372652 0.89042627 0.03737778
v -0.05767620 0.89030479 0.03210354
v -0.09009299 0.89039659 0.03183159
v -0.06156444 0.89023616 0.02632866
v -0.09356199 0.89026322 0.02272103
v -0.06446038 0.89033205 0.02039381
v -0.06708031 0.89043939 0.01407034
v -0.09608701 0.89019520 0.01349695
v -0.06875212 0.89021117 0.00770048
v -0.09759089 0.89030946 0.00393851
v -0.06978107 0.89041848 0.00094055
v -0.09815989 0.89038662 -0.00556137
v -0.07003009 0.89031475 -0.00574980
v -0.06989275 0.89033908 -0.01248108
v -0.09769061 0.89020019 -0.01540420
v -0.06871828 0.89041341 -0.01912531
v -0.09594017 0.89047628 -0.02480875
v -0.06686428 0.89038142 -0.02543808
v -0.06470955 0.89032558 -0.03196094
v -0.09367828 0.89019242 -0.03419490
v -0.06171123 0.89038644 -0.03798997
v -0.09014551 0.89017605 -0.04312896
v -0.05803372 0.89028546 -0.04347862
v -0.05367971 0.89027023 -0.04880444
v -0.08577342 0.89026113 -0.05167680
v -0.04897317 0.89015331 -0.05366717
v -0.04369532 0.89047429 -0.05762453
v -0.08040782 0.89028296 -0.05993082
v -0.03797875 0.89039224 -0.06134079
v -0.03202701 0.89030370 -0.06455395
v -0.02584993 0.89039144 -0.06695161
v -0.07434249 0.89046073 -0.06747385
v -0.01921791 0.89041492 -0.06868543
v -0.01260714 0.89041577 -0.06978818
vn 0 -1 0
vn 0 1 0
vn -0.5009659097558578 0 -0.865467016854187
vn -0.5886875017776184 0 -0.8083607024409503
vn 0.5009659097558578 0 0.865467016854187
vn 0.5886875017776184 0 0.8083607024409503
vn -0.4077556028072811 0 -0.9130911062863721
vn 0.4077556028072811 0 0.9130911062863721
vn -0.31007788606605363 0 -0.950711157277965
vn 0.31007788606605363 0 0.950711157277965
vn -0.20900280860748408 0 -0.9779150402740432
vn 0.20900280860748408 0 0.9779150402740432
vn -0.10563789612845041 0 -0.9944046635558155
vn 0.10563789612845041 0 0.9944046635558155
vn -0.00111566297506254 0 -0.9999993776478693
vn 0.00111566297506254 0 0.9999993776478693
vn 0.10341879998397785 0 -0.9946378998459058
vn -0.10341879998397785 0 0.9946378998459058
vn 0.2068202892315824 0 -0.9783789490591898
vn -0.2068202892315824 0 0.9783789490591898
vn 0.30795569921117455 0 -0.9514006975629967
vn -0.30795569921117455 0 0.9514006975629967
vn 0.405717185804457 0 -0.9139986680203159
vn -0.405717185804457 0 0.9139986680203159
vn 0.49903349748947723 0 -0.8665826956404218
vn -0.49903349748947723 0 0.8665826956404218
vn 0.5868822802101598 0 -0.8096722726976167
vn -0.5868822802101598 0 0.8096722726976167
vn 0.6683010895196957 0 -0.7438908883342957
vn -0.6683010895196957 0 0.7438908883342957
vn 0.7423978159239396 0 -0.669959314370182
vn -0.7423978159239396 0 0.669959314370182
vn 0.8083607024409503 0 -0.5886875017776184
vn -0.8083607024409503 0 0.5886875017776184
vn 0.865467016854187 0 -0.5009659097558578
vn -0.865467016854187 0 0.5009659097558578
vn 0.9130911062863721 0 -0.4077556028072811
vn -0.9130911062863721 0 0.4077556028072811
vn 0.950711157277965 0 -0.31007788606605363
vn -0.950711157277965 0 0.31007788606605363
vn 0.9779150402740432 0 -0.20900280860748408
vn -0.9779150402740432 0 0.20900280860748408
vn 0.9944046635558155 0 -0.10563789612845041
vn -0.9944046635558155 0 0.10563789612845041
vn 0.9999993776478693 0 -0.00111566297506254
vn -0.9999993776478693 0 0.00111566297506254
vn 0.9946378998459058 0 0.10341879998397785
vn -0.9946378998459058 0 -0.10341879998397785
vn 0.9783789490591898 0 0.2068202892315824
vn -0.9783789490591898 0 -0.2068202892315824
vn 0.9514006975629967 0 0.30795569921117455
vn -0.9514006975629967 0 -0.30795569921117455
vn 0.9139986680203159 0 0.405717185804457
vn -0.9139986680203159 0 -0.405717185804457
vn 0.8665826956404218 0 0.49903349748947723
vn -0.8665826956404218 0 -0.49903349748947723
vn 0.8096722726976167 0 0.5868822802101598
vn -0.8096722726976167 0 -0.5868822802101598
vn 0.7438908883342957 0 0.6683010895196957
vn -0.7438908883342957 0 -0.6683010895196957
vn 0.669959314370182 0 0.7423978159239396
vn -0.669959314370182 0 -0.7423978159239396
vn -0.5030277208702332 0.5194673215522996 -0.6907364286581232
vn -0.42807050371527094 0.5194673045085137 -0.7395332064184901
vn 0.42807050371527094 -0.5194673045085137 0.7395332064184901
vn 0.5030277208702332 -0.5194673215522996 0.6907364286581232
vn -0.34842320804443344 0.5194673119935185 -0.7802275180139789
vn 0.34842320804443344 -0.5194673119935185 0.7802275180139789
vn -0.2649585018555322 0.5194673036378841 -0.812373505689137
vn 0.2649585018555322 -0.5194673036378841 0.812373505689137
vn -0.17859090612840864 0.5194673178257004 -0.8356189286745522
vn 0.17859090612840864 -0.5194673178257004 0.8356189286745522
vn -0.09026660498868969 0.5194673287089705 -0.8497091469601715
vn 0.09026660498868969 -0.5194673287089705 0.8497091469601715
vn -0.0009533228986186917 0.5194672992473226 -0.8544897987618949
vn 0.0009533228986186917 -0.5194672992473226 0.8544897987618949
vn 0.08837040478278274 0.5194673281146088 -0.8499084459987419
vn -0.08837040478278274 -0.5194673281146088 0.8499084459987419
vn 0.17672590871840269 0.5194673256268328 -0.8360153412430664
vn -0.17672590871840269 -0.5194673256268328 0.8360153412430664
vn 0.2631451968891475 0.5194672938589563 -0.8129626903893097
vn -0.2631451968891475 -0.5194672938589563 0.8129626903893097
vn 0.3466814078203959 0.5194673117180788 -0.7810030176177687
vn -0.3466814078203959 -0.5194673117180788 0.7810030176177687
vn 0.4264193102630537 0.5194673125025315 -0.7404865178220187
vn -0.4264193102630537 -0.5194673125025315 0.7404865178220187
vn 0.5014852179509797 0.5194673185946602 -0.691857124765462
vn -0.5014852179509797 -0.5194673185946602 0.691857124765462
vn 0.5710568317359761 0.5194673288689352 -0.6356475353255471
vn -0.5710568317359761 -0.5194673288689352 0.6356475353255471
vn 0.6343718020311887 0.519467301663277 -0.5724737018329978
vn -0.6343718020311887 -0.519467301663277 0.5724737018329978
vn 0.6907364286581232 0.5194673215522996 -0.5030277208702332
vn -0.6907364286581232 -0.5194673215522996 0.5030277208702332
vn 0.7395332064184901 0.5194673045085137 -0.42807050371527094
vn -0.7395332064184901 -0.5194673045085137 0.42807050371527094
vn 0.7802275180139789 0.5194673119935185 -0.34842320804443344
vn -0.7802275180139789 -0.5194673119935185 0.34842320804443344
vn 0.812373505689137 0.5194673036378841 -0.2649585018555322
vn -0.812373505689137 -0.5194673036378841 0.2649585018555322
vn 0.8356189286745522 0.5194673178257004 -0.17859090612840864
vn -0.8356189286745522 -0.5194673178257004 0.17859090612840864
vn 0.8497091469601715 0.5194673287089705 -0.09026660498868969
vn -0.8497091469601715 -0.5194673287089705 0.09026660498868969
vn 0.8544897987618948 0.5194672992473225 -0.0009533228986186914
vn -0.8544897987618948 -0.5194672992473225 0.0009533228986186914
vn 0.8499084459987419 0.5194673281146088 0.08837040478278274
vn -0.8499084459987419 -0.5194673281146088 -0.08837040478278274
vn 0.8360153412430664 0.5194673256268328 0.17672590871840269
vn -0.8360153412430664 -0.5194673256268328 -0.17672590871840269
vn 0.8129626903893097 0.5194672938589563 0.2631451968891475
vn -0.8129626903893097 -0.5194672938589563 -0.2631451968891475
vn 0.7810030176177687 0.5194673117180788 0.3466814078203959
vn -0.7810030176177687 -0.5194673117180788 -0.3466814078203959
vn 0.7404865178220187 0.5194673125025315 0.4264193102630537
vn -0.7404865178220187 -0.5194673125025315 -0.4264193102630537
vn 0.691857124765462 0.5194673185946602 0.5014852179509797
vn -0.691857124765462 -0.5194673185946602 -0.5014852179509797
vn 0.6356475353255471 0.5194673288689352 0.5710568317359761
vn -0.6356475353255471 -0.5194673288689352 -0.5710568317359761
vn 0.5724737018329978 0.5194673016632771 0.6343718020311888
vn -0.5724737018329978 -0.5194673016632771 -0.6343718020311888
vn 0.5030277208702332 0.5194673215522996 0.6907364286581232
vn -0.5030277208702332 -0.5194673215522996 -0.6907364286581232
vn 0.42807050371527094 0.5194673045085137 0.7395332064184901
vn -0.42807050371527094 -0.5194673045085137 -0.7395332064184901
vn 0.34842320804443344 0.5194673119935185 0.7802275180139789
vn -0.34842320804443344 -0.5194673119935185 -0.7802275180139789
vn 0.2649585018555322 0.5194673036378841 0.812373505689137
vn -0.2649585018555322 -0.5194673036378841 -0.812373505689137
vn 0.17859090612840864 0.5194673178257004 0.8356189286745522
vn -0.17859090612840864 -0.5194673178257004 -0.8356189286745522
vn 0.09026660498868969 0.5194673287089705 0.8497091469601715
vn -0.09026660498868969 -0.5194673287089705 -0.8497091469601715
vn 0.0009533228986186917 0.5194672992473226 0.8544897987618949
vn -0.0009533228986186917 -0.5194672992473226 -0.8544897987618949
vn -0.08837040478278274 0.5194673281146088 0.8499084459987419
vn 0.08837040478278274 -0.5194673281146088 -0.8499084459987419
vn -0.17672590871840269 0.5194673256268328 0.8360153412430664
vn 0.17672590871840269 -0.5194673256268328 -0.8360153412430664
vn -0.2631451968891475 0.5194672938589563 0.8129626903893097
vn 0.2631451968891475 -0.5194672938589563 -0.8129626903893097
vn -0.3466814078203959 0.5194673117180788 0.7810030176177687
vn 0.3466814078203959 -0.5194673117180788 -0.7810030176177687
vn -0.4264193102630537 0.5194673125025315 0.7404865178220187
vn 0.4264193102630537 -0.5194673125025315 -0.7404865178220187
vn -0.5014852179509797 0.5194673185946602 0.691857124765462
vn 0.5014852179509797 -0.5194673185946602 -0.691857124765462
vn -0.5710568317359761 0.5194673288689352 0.6356475353255471
vn 0.5710568317359761 -0.5194673288689352 -0.6356475353255471
vn -0.6343718020311887 0.519467301663277 0.5724737018329978
vn 0.6343718020311887 -0.519467301663277 -0.5724737018329978
vn -0.6907364286581232 0.5194673215522996 0.5030277208702332
vn 0.6907364286581232 -0.5194673215522996 -0.5030277208702332
vn -0.7395332064184901 0.5194673045085137 0.42807050371527094
vn 0.7395332064184901 -0.5194673045085137 -0.42807050371527094
vn -0.7802275180139789 0.5194673119935185 0.34842320804443344
vn 0.7802275180139789 -0.5194673119935185 -0.34842320804443344
vn -0.812373505689137 0.5194673036378841 0.2649585018555322
vn 0.812373505689137 -0.5194673036378841 -0.2649585018555322
vn -0.8356189286745522 0.5194673178257004 0.17859090612840864
vn 0.8356189286745522 -0.5194673178257004 -0.17859090612840864
vn -0.8497091469601715 0.5194673287089705 0.09026660498868969
vn 0.8497091469601715 -0.5194673287089705 -0.09026660498868969
vn -0.8544897987618948 0.5194672992473225 0.0009533228986186914
vn 0.8544897987618948 -0.5194672992473225 -0.0009533228986186914
vn -0.8499084459987419 0.5194673281146088 -0.08837040478278274
vn 0.8499084459987419 -0.5194673281146088 0.08837040478278274
vn -0.8360153412430664 0.5194673256268328 -0.17672590871840269
vn 0.8360153412430664 -0.5194673256268328 0.17672590871840269
vn -0.8129626903893097 0.5194672938589563 -0.2631451968891475
vn 0.8129626903893097 -0.5194672938589563 0.2631451968891475
vn -0.7810030176177687 0.5194673117180788 -0.3466814078203959
vn 0.7810030176177687 -0.5194673117180788 0.3466814078203959
vn -0.7404865178220187 0.5194673125025315 -0.4264193102630537
vn 0.7404865178220187 -0.5194673125025315 0.4264193102630537
vn -0.691857124765462 0.5194673185946602 -0.5014852179509797
vn 0.691857124765462 -0.5194673185946602 0.5014852179509797
vn -0.6356475353255471 0.5194673288689352 -0.5710568317359761
vn 0.6356475353255471 -0.5194673288689352 0.5710568317359761
vn -0.5724737018329978 0.5194673016632771 -0.6343718020311888
vn 0.5724737018329978 -0.5194673016632771 0.6343718020311888
usemtl material_0_0
f 1//1 2//1 3//1
f 2//1 1//1 4//1
f 2//1 4//1 5//1
f 5//1 4//1 6//1
f 5//1 6//1 7//1
f 7//1 6//1 8//1
f 7//1 8//1 9//1
f 9//1 8//1 10//1
f 9//1 10//1 11//1
f 11//1 10//1 12//1
f 11//1 12//1 13//1
f 13//1 12//1 14//1
f 13//1 14//1 15//1
f 15//1 14//1 16//1
f 15//1 16//1 17//1
f 17//1 16//1 18//1
f 17//1 18//1 19//1
f 19//1 18//1 20//1
f 19//1 20//1 21//1
f 21//1 20//1 22//1
f 21//1 22//1 23//1
f 23//1 22//1 24//1
f 23//1 24//1 25//1
f 25//1 24//1 26//1
f 25//1 26//1 27//1
f 27//1 26//1 28//1
f 27//1 28//1 29//1
f 29//1 28//1 30//1
f 29//1 30//1 31//1
f 31//1 30//1 32//1
f 31//1 32//1 33//1
f 33//1 32//1 34//1
f 33//1 34//1 35//1
f 35//1 34//1 36//1
f 35//1 36//1 37//1
f 37//1 36//1 38//1
f 37//1 38//1 39//1
f 39//1 38//1 40//1
f 39//1 40//1 41//1
f 41//1 40//1 42//1
f 41//1 42//1 43//1
f 43//1 42//1 44//1
f 43//1 44//1 45//1
f 45//1 44//1 46//1
f 45//1 46//1 47//1
f 47//1 46//1 48//1
f 47//1 48//1 49//1
f 49//1 48//1 50//1
f 49//1 50//1 51//1
f 51//1 50//1 52//1
f 51//1 52//1 53//1
f 53//1 52//1 54//1
f 53//1 54//1 55//1
f 55//1 54//1 56//1
f 55//1 56//1 57//1
f 57//1 56//1 58//1
f 57//1 58//1 59//1
f 59//1 58//1 60//1
f 61//2 62//2 63//2
f 63//2 62//2 64//2
f 62//2 65//2 64//2
f 64//2 65//2 66//2
f 65//2 67//2 66//2
f 66//2 67//2 68//2
f 67//2 69//2 68//2
f 68//2 69//2 70//2
f 69//2 71//2 70//2
f 70//2 71//2 72//2
f 71//2 73//2 72//2
f 72//2 73//2 74//2
f 73//2 75//2 74//2
f 74//2 75//2 76//2
f 75//2 77//2 76//2
f 76//2 77//2 78//2
f 77//2 79//2 78//2
f 78//2 79//2 80//2
f 79//2 81//2 80//2
f 80//2 81//2 82//2
f 81//2 83//2 82//2
f 82//2 83//2 84//2
f 83//2 85//2 84//2
f 84//2 85//2 86//2
f 85//2 87//2 86//2
f 86//2 87//2 88//2
f 87//2 89//2 88//2
f 88//2 89//2 90//2
f 89//2 91//2 90//2
f 90//2 91//2 92//2
f 91//2 93//2 92//2
f 92//2 93//2 94//2
f 93//2 95//2 94//2
f 94//2 95//2 96//2
f 95//2 97//2 96//2
f 96//2 97//2 98//2
f 97//2 99//2 98//2
f 98//2 99//2 100//2
f 99//2 101//2 100//2
f 100//2 101//2 102//2
f 101//2 103//2 102//2
f 102//2 103//2 104//2
f 103//2 105//2 104//2
f 104//2 105//2 106//2
f 105//2 107//2 106//2
f 106//2 107//2 108//2
f 107//2 109//2 108//2
f 108//2 109//2 110//2
f 109//2 111//2 110//2
f 110//2 111//2 112//2
f 111//2 113//2 112//2
f 112//2 113//2 114//2
f 113//2 115//2 114//2
f 114//2 115//2 116//2
f 115//2 117//2 116//2
f 116//2 117//2 118//2
f 117//2 119//2 118//2
f 120//2 118//2 119//2
f 121//3 122//4 123//4
f 122//4 121//3 124//3
f 125//5 126//5 127//6
f 128//6 127//6 126//5
f 129//7 124//3 121//3
f 124//3 129//7 130//7
f 131//8 132//8 125//5
f 126//5 125//5 132//8
f 133//9 130//7 129//7
f 130//7 133//9 134//9
f 135//10 136//10 131//8
f 132//8 131//8 136//10
f 137//11 134//9 133//9
f 134//9 137//11 138//11
f 139//12 140//12 135//10
f 136//10 135//10 140//12
f 141//13 138//11 137//11
f 138//11 141//13 142//13
f 143//14 144//14 139//12
f 140//12 139//12 144//14
f 145//15 142//13 141//13
f 142//13 145//15 146//15
f 147//16 148//16 143//14
f 144//14 143//14 148//16
f 149//17 146//15 145//15
f 146//15 149//17 150//17
f 151//18 152//18 147//16
f 148//16 147//16 152//18
f 153//19 150//17 149//17
f 150//17 153//19 154//19
f 155//20 156//20 151//18
f 152//18 151//18 156//20
f 157//21 154//19 153//19
f 154//19 157//21 158//21
f 159//22 160//22 155//20
f 156//20 155//20 160//22
f 161//23 158//21 157//21
f 158//21 161//23 162//23
f 163//24 164//24 159//22
f 160//22 159//22 164//24
f 165//25 162//23 161//23
f 162//23 165//25 166//25
f 167//26 168//26 163//24
f 164//24 163//24 168//26
f 169//27 166//25 165//25
f 166//25 169//27 170//27
f 171//28 172//28 167//26
f 168//26 167//26 172//28
f 173//29 170//27 169//27
f 170//27 173//29 174//29
f 175//30 176//30 171//28
f 172//28 171//28 176//30
f 177//31 174//29 173//29
f 174//29 177//31 178//31
f 179//32 180//32 175//30
f 176//30 175//30 180//32
f 177//31 181//33 178//31
f 181//33 177//31 182//33
f 183//34 180//32 184//34
f 179//32 184//34 180//32
f 182//33 185//35 181//33
f 185//35 182//33 186//35
f 187//36 183//34 188//36
f 184//34 188//36 183//34
f 186//35 189//37 185//35
f 189//37 186//35 190//37
f 191//38 187//36 192//38
f 188//36 192//38 187//36
f 190//37 193//39 189//37
f 193//39 190//37 194//39
f 195//40 191//38 196//40
f 192//38 196//40 191//38
f 194//39 197//41 193//39
f 197//41 194//39 198//41
f 199//42 195//40 200//42
f 196//40 200//42 195//40
f 198//41 201//43 197//41
f 201//43 198//41 202//43
f 203//44 199//42 204//44
f 200//42 204//44 199//42
f 202//43 205//45 201//43
f 205//45 202//43 206//45
f 207//46 203//44 208//46
f 204//44 208//46 203//44
f 206//45 209//47 205//45
f 209//47 206//45 210//47
f 211//48 207//46 212//48
f 208//46 212//48 207//46
f 210//47 213//49 209//47
f 213//49 210//47 214//49
f 215//50 211//48 216//50
f 212//48 216//50 211//48
f 214//49 217//51 213//49
f 217//51 214//49 218//51
f 219//52 215//50 220//52
f 216//50 220//52 215//50
f 218//51 221//53 217//51
f 221//53 218//51 222//53
f 223//54 219//52 224//54
f 220//52 224//54 219//52
f 222//53 225//55 221//53
f 225//55 222//53 226//55
f 227//56 223//54 228//56
f 224//54 228//56 223//54
f 226//55 229//57 225//55
f 229//57 226//55 230//57
f 231//58 227//56 232//58
f 228//56 232//58 227//56
f 230//57 233//59 229//57
f 233//59 230//57 234//59
f 235//60 231//58 236//60
f 232//58 236//60 231//58
f 234//59 237//61 233//59
f 237//61 234//59 238//61
f 239//62 235//60 240//62
f 236//60 240//62 235//60
f 237//61 241//6 242//6
f 241//6 237//61 238//61
f 239//62 240//62 243//4
f 244//4 243//4 240//62
f 242//6 245//5 246//5
f 245//5 242//6 241//6
f 243//4 244//4 247//3
f 248//3 247//3 244//4
f 246//5 249//8 250//8
f 249//8 246//5 245//5
f 247//3 248//3 251//7
f 252//7 251//7 248//3
f 250//8 253//10 254//10
f 253//10 250//8 249//8
f 251//7 252//7 255//9
f 256//9 255//9 252//7
f 254//10 257//12 258//12
f 257//12 254//10 253//10
f 255//9 256//9 259//11
f 260//11 259//11 256//9
f 258//12 261//14 262//14
f 261//14 258//12 257//12
f 259//11 260//11 263//13
f 264//13 263//13 260//11
f 262//14 265//16 266//16
f 265//16 262//14 261//14
f 263//13 264//13 267//15
f 268//15 267//15 264//13
f 266//16 269//18 270//18
f 269//18 266//16 265//16
f 267//15 268//15 271//17
f 272//17 271//17 268//15
f 270//18 273//20 274//20
f 273//20 270//18 269//18
f 271//17 272//17 275//19
f 276//19 275//19 272//17
f 274//20 277//22 278//22
f 277//22 274//20 273//20
f 275//19 276//19 279//21
f 280//21 279//21 276//19
f 278//22 281//24 282//24
f 281//24 278//22 277//22
f 279//21 280//21 283//23
f 284//23 283//23 280//21
f 282//24 285//26 286//26
f 285//26 282//24 281//24
f 283//23 284//23 287//25
f 288//25 287//25 284//23
f 286//26 289//28 290//28
f 289//28 286//26 285//26
f 287//25 288//25 291//27
f 292//27 291//27 288//25
f 290//28 293//30 294//30
f 293//30 290//28 289//28
f 291//27 292//27 295//29
f 296//29 295//29 292//27
f 294//30 297//32 298//32
f 297//32 294//30 293//30
f 295//29 296//29 299//31
f 300//31 299//31 296//29
f 297//32 301//34 298//32
f 301//34 297//32 302//34
f 303//33 299//31 304//33
f 300//31 304//33 299//31
f 302//34 305//36 301//34
f 305//36 302//34 306//36
f 307//35 303//33 308//35
f 304//33 308//35 303//33
f 306//36 309//38 305//36
f 309//38 306//36 310//38
f 311//37 307//35 312//37
f 308//35 312//37 307//35
f 310//38 313//40 309//38
f 313//40 310//38 314//40
f 315//39 311//37 316//39
f 312//37 316//39 311//37
f 314//40 317//42 313//40
f 317//42 314//40 318//42
f 319//41 315//39 320//41
f 316//39 320//41 315//39
f 318//42 321//44 317//42
f 321//44 318//42 322//44
f 323//43 319//41 324//43
f 320//41 324//43 319//41
f 322//44 325//46 321//44
f 325//46 322//44 326//46
f 327//45 323//43 328//45
f 324//43 328//45 323//43
f 326//46 329//48 325//46
f 329//48 326//46 330//48
f 331//47 327//45 332//47
f 328//45 332//47 327//45
f 330//48 333//50 329//48
f 333//50 330//48 334//50
f 335//49 331//47 336//49
f 332//47 336//49 331//47
f 334//50 337//52 333//50
f 337//52 334//50 338//52
f 339//51 335//49 340//51
f 336//49 340//51 335//49
f 338//52 341//54 337//52
f 341//54 338//52 342//54
f 343//53 339//51 344//53
f 340//51 344//53 339//51
f 342//54 345//56 341//54
f 345//56 342//54 346//56
f 347//55 343//53 348//55
f 344//53 348//55 343//53
f 346//56 349//58 345//56
f 349//58 346//56 350//58
f 351//57 347//55 352//57
f 348//55 352//57 347//55
f 350//58 353//60 349//58
f 353//60 350//58 354//60
f 355//59 351//57 356//59
f 352//57 356//59 351//57
f 354//60 357//62 353//60
f 357//62 354//60 358//62
f 359//61 355//59 360//61
f 356//59 360//61 355//59
f 123//4 357//62 358//62
f 357//62 123//4 122//4
f 127//6 128//6 360//61
f 359//61 360//61 128//6
f 361//63 362//64 363//63
f 362//64 361//63 364//64
f 365//65 366//66 367//65
f 368//66 367//65 366//66
f 364//64 369//67 362//64
f 369//67 364//64 370//67
f 371//68 365//65 372//68
f 367//65 372//68 365//65
f 370//67 373//69 369//67
f 373//69 370//67 374//69
f 375//70 371//68 376//70
f 372//68 376//70 371//68
f 374//69 377//71 373//69
f 377//71 374//69 378//71
f 379//72 375//70 380//72
f 376//70 380//72 375//70
f 378//71 381//73 377//71
f 381//73 378//71 382//73
f 383//74 379//72 384//74
f 380//72 384//74 379//72
f 382//73 385//75 381//73
f 385//75 382//73 386//75
f 387//76 383//74 388//76
f 384//74 388//76 383//74
f 386//75 389//77 385//75
f 389//77 386//75 390//77
f 391//78 387//76 392//78
f 388//76 392//78 387//76
f 393//79 389//77 390//77
f 389//77 393//79 394//79
f 395//80 396//80 392//78
f 391//78 392//78 396//80
f 397//81 394//79 393//79
f 394//79 397//81 398//81
f 399//82 400//82 395//80
f 396//80 395//80 400//82
f 401//83 398//81 397//81
f 398//81 401//83 402//83
f 403//84 404//84 399//82
f 400//82 399//82 404//84
f 405//85 402//83 401//83
f 402//83 405//85 406//85
f 407//86 408//86 403//84
f 404//84 403//84 408//86
f 409//87 406//85 405//85
f 406//85 409//87 410//87
f 411//88 412//88 407//86
f 408//86 407//86 412//88
f 413//89 410//87 409//87
f 410//87 413//89 414//89
f 415//90 416//90 411//88
f 412//88 411//88 416//90
f 417//91 414//89 413//89
f 414//89 417//91 418//91
f 419//92 420//92 415//90
f 416//90 415//90 420//92
f 417//91 421//93 418//91
f 421//93 417//91 422//93
f 423//94 420//92 424//94
f 419//92 424//94 420//92
f 422//93 425//95 421//93
f 425//95 422//93 426//95
f 427//96 423//94 428//96
f 424//94 428//96 423//94
f 426//95 429//97 425//95
f 429//97 426//95 430//97
f 431//98 427//96 432//98
f 428//96 432//98 427//96
f 430//97 433//99 429//97
f 433//99 430//97 434//99
f 435//100 431//98 436//100
f 432//98 436//100 431//98
f 434//99 437//101 433//99
f 437//101 434//99 438//101
f 439//102 435//100 440//102
f 436//100 440//102 435//100
f 438//101 441//103 437//101
f 441//103 438//101 442//103
f 443//104 439//102 444//104
f 440//102 444//104 439//102
f 442//103 445//105 441//103
f 445//105 442//103 446//105
f 447//106 443//104 448//106
f 444//104 448//106 443//104
f 446//105 449//107 445//105
f 449//107 446//105 450//107
f 451//108 447//106 452//108
f 448//106 452//108 447//106
f 450//107 453//109 449//107
f 453//109 450//107 454//109
f 455//110 451//108 456//110
f 452//108 456//110 451//108
f 454//109 457//111 453//109
f 457//111 454//109 458//111
f 459//112 455//110 460//112
f 456//110 460//112 455//110
f 458//111 461//113 457//111
f 461//113 458//111 462//113
f 463//114 459//112 464//114
f 460//112 464//114 459//112
f 462//113 465//115 461//113
f 465//115 462//113 466//115
f 467//116 463//114 468//116
f 464//114 468//116 463//114
f 466//115 469//117 465//115
f 469//117 466//115 470//117
f 471//118 467//116 472//118
f 468//116 472//118 467//116
f 470//117 473//119 469//117
f 473//119 470//117 474//119
f 475//120 471//118 476//120
f 472//118 476//120 471//118
f 474//119 477//121 473//119
f 477//121 474//119 478//121
f 479//122 475//120 480//122
f 476//120 480//122 475//120
f 481//123 478//121 482//123
f 478//121 481//123 477//121
f 480//122 483//124 479//122
f 484//124 479//122 483//124
f 485//125 482//123 486//125
f 482//123 485//125 481//123
f 483//124 487//126 484//124
f 488//126 484//124 487//126
f 489//127 486//125 490//127
f 486//125 489//127 485//125
f 487//126 491//128 488//126
f 492//128 488//126 491//128
f 493//129 490//127 494//129
f 490//127 493//129 489//127
f 491//128 495//130 492//128
f 496//130 492//128 495//130
f 497//131 494//129 498//131
f 494//129 497//131 493//129
f 495//130 499//132 496//130
f 500//132 496//130 499//132
f 501//133 498//131 502//133
f 498//131 501//133 497//131
f 499//132 503//134 500//132
f 504//134 500//132 503//134
f 505//135 502//133 506//135
f 502//133 505//135 501//133
f 503//134 507//136 504//134
f 508//136 504//134 507//136
f 505//135 509//137 510//137
f 509//137 505//135 506//135
f 508//136 507//136 511//138
f 512//138 511//138 507//136
f 510//137 513//139 514//139
f 513//139 510//137 509//137
f 511//138 512//138 515//140
f 516//140 515//140 512//138
f 514//139 517//141 518//141
f 517//141 514//139 513//139
f 515//140 516//140 519//142
f 520//142 519//142 516//140
f 518//141 521//143 522//143
f 521//143 518//141 517//141
f 519//142 520//142 523//144
f 524//144 523//144 520//142
f 522//143 525//145 526//145
f 525//145 522//143 521//143
f 523//144 524//144 527//146
f 528//146 527//146 524//144
f 526//145 529//147 530//147
f 529//147 526//145 525//145
f 527//146 528//146 531//148
f 532//148 531//148 528//146
f 530//147 533//149 534//149
f 533//149 530//147 529//147
f 531//148 532//148 535//150
f 536//150 535//150 532//148
f 534//149 537//151 538//151
f 537//151 534//149 533//149
f 535//150 536//150 539//152
f 540//152 539//152 536//150
f 537//151 541//153 538//151
f 541//153 537//151 542//153
f 543//154 539//152 544//154
f 540//152 544//154 539//152
f 542//153 545//155 541//153
f 545//155 542//153 546//155
f 547//156 543//154 548//156
f 544//154 548//156 543//154
f 546//155 549//157 545//155
f 549//157 546//155 550//157
f 551//158 547//156 552//158
f 548//156 552//158 547//156
f 550//157 553//159 549//157
f 553//159 550//157 554//159
f 555//160 551//158 556//160
f 552//158 556//160 551//158
f 554//159 557//161 553//159
f 557//161 554//159 558//161
f 559//162 555//160 560//162
f 556//160 560//162 555//160
f 558//161 561//163 557//161
f 561//163 558//161 562//163
f 563//164 559//162 564//164
f 560//162 564//164 559//162
f 562//163 565//165 561//163
f 565//165 562//163 566//165
f 567//166 563//164 568//166
f 564//164 568//166 563//164
f 566//165 569//167 565//165
f 569//167 566//165 570//167
f 571//168 567//166 572//168
f 568//166 572//168 567//166
f 570//167 573//169 569//167
f 573//169 570//167 574//169
f 575//170 571//168 576//170
f 572//168 576//170 571//168
f 574//169 577//171 573//169
f 577//171 574//169 578//171
f 579//172 575//170 580//172
f 576//170 580//172 575//170
f 578//171 581//173 577//171
f 581//173 578//171 582//173
f 583//174 579//172 584//174
f 580//172 584//174 579//172
f 582//173 585//175 581//173
f 585//175 582//173 586//175
f 587//176 583//174 588//176
f 584//174 588//176 583//174
f 586//175 589//177 585//175
f 589//177 586//175 590//177
f 591//178 587//176 592//178
f 588//176 592//178 587//176
f 590//177 593//179 589//177
f 593//179 590//177 594//179
f 595//180 591//178 596//180
f 592//178 596//180 591//178
f 594//179 597//181 593//179
f 597//181 594//179 598//181
f 599//182 595//180 600//182
f 596//180 600//182 595//180
f 598//181 363//63 597//181
f 363//63 598//181 361//63
f 366//66 599//182 368//66
f 600//182 368//66 599//182
f 601//2 602//2 603//2
f 602//2 601//2 604//2
f 604//2 601//2 605//2
f 605//2 601//2 606//2
f 606//2 601//2 607//2
f 606//2 607//2 608//2
f 608//2 607//2 609//2
f 609//2 607//2 610//2
f 610//2 607//2 611//2
f 610//2 611//2 612//2
f 612//2 611//2 613//2
f 613//2 611//2 614//2
f 613//2 614//2 615//2
f 615//2 614//2 616//2
f 616//2 614//2 617//2
f 616//2 617//2 618//2
f 618//2 617//2 619//2
f 618//2 619//2 620//2
f 620//2 619//2 621//2
f 621//2 619//2 622//2
f 621//2 622//2 623//2
f 623//2 622//2 624//2
f 623//2 624//2 625//2
f 625//2 624//2 626//2
f 626//2 624//2 627//2
f 626//2 627//2 628//2
f 628//2 627//2 629//2
f 628//2 629//2 630//2
f 630//2 629//2 631//2
f 630//2 631//2 632//2
f 632//2 631//2 633//2
f 633//2 631//2 634//2
f 633//2 634//2 635//2
f 635//2 634//2 636//2
f 635//2 636//2 637//2
f 637//2 636//2 638//2
f 638//2 636//2 639//2
f 638//2 639//2 640//2
f 640//2 639//2 641//2
f 641//2 639//2 642//2
f 641//2 642//2 643//2
f 643//2 642//2 644//2
f 644//2 642//2 645//2
f 645//2 642//2 646//2
f 645//2 646//2 647//2
f 647//2 646//2 648//2
f 648//2 646//2 649//2
f 649//2 646//2 650//2
f 650//2 646//2 651//2
f 650//2 651//2 652//2
f 652//2 651//2 653//2
f 652//2 653//2 654//2
f 654//2 653//2 655//2
f 654//2 655//2 656//2
f 656//2 655//2 657//2
f 656//2 657//2 658//2
f 658//2 657//2 659//2
f 658//2 659//2 660//2
f 660//2 659//2 661//2
f 660//2 661//2 662//2
f 663//2 664//2 665//2
f 664//2 663//2 666//2
f 666//2 663//2 667//2
f 666//2 667//2 668//2
f 668//2 667//2 669//2
f 668//2 669//2 670//2
f 670//2 669//2 671//2
f 670//2 671//2 672//2
f 672//2 671//2 673//2
f 672//2 673//2 674//2
f 674//2 673//2 675//2
f 674//2 675//2 676//2
f 676//2 675//2 603//2
f 676//2 603//2 677//2
f 677//2 603//2 602//2
f 677//2 602//2 678//2
f 677//2 678//2 679//2
f 677//2 679//2 680//2
f 677//2 680//2 681//2
f 681//2 680//2 682//2
f 681//2 682//2 683//2
f 681//2 683//2 684//2
f 681//2 684//2 685//2
f 685//2 684//2 686//2
f 685//2 686//2 687//2
f 685//2 687//2 688//2
f 688//2 687//2 689//2
f 688//2 689//2 690//2
f 688//2 690//2 691//2
f 691//2 690//2 692//2
f 691//2 692//2 693//2
f 693//2 692//2 694//2
f 693//2 694//2 695//2
f 693//2 695//2 696//2
f 696//2 695//2 697//2
f 696//2 697//2 698//2
f 698//2 697//2 699//2
f 698//2 699//2 700//2
f 700//2 699//2 701//2
f 700//2 701//2 702//2
f 700//2 702//2 703//2
f 703//2 702//2 704//2
f 703//2 704//2 705//2
f 705//2 704//2 706//2
f 705//2 706//2 707//2
f 705//2 707//2 708//2
f 708//2 707//2 709//2
f 708//2 709//2 710//2
f 710//2 709//2 711//2
f 710//2 711//2 712//2
f 710//2 712//2 713//2
f 713//2 712//2 714//2
f 713//2 714//2 715//2
f 713//2 715//2 716//2
f 716//2 715//2 717//2
f 716//2 717//2 718//2
f 716//2 718//2 719//2
f 716//2 719//2 649//2
f 649//2 719//2 720//2
f 649//2 720//2 648//2
f 721//1 722//1 723//1
f 722//1 724//1 723//1
f 723//1 724//1 725//1
f 724//1 726//1 725//1
f 726//1 727//1 725//1
f 727//1 728//1 725//1
f 725//1 728//1 729//1
f 728//1 730//1 729//1
f 730//1 731//1 729//1
f 729//1 731//1 732//1
f 731//1 733//1 732//1
f 733//1 734//1 732//1
f 732//1 734//1 735//1
f 734//1 736//1 735//1
f 735//1 736//1 737//1
f 736//1 738//1 737//1
f 738//1 739//1 737//1
f 737//1 739//1 740//1
f 739//1 741//1 740//1
f 740//1 741//1 742//1
f 741//1 743//1 742//1
f 743//1 744//1 742//1
f 742//1 744//1 745//1
f 744//1 746//1 745//1
f 745//1 746//1 747//1
f 746//1 748//1 747//1
f 747//1 748//1 749//1
f 748//1 750//1 749//1
f 750//1 751//1 749//1
f 749//1 751//1 752//1
f 751//1 753//1 752//1
f 752//1 753//1 754//1
f 753//1 755//1 754//1
f 755//1 756//1 754//1
f 754//1 756//1 757//1
f 756//1 758//1 757//1
f 758//1 759//1 757//1
f 757//1 759//1 760//1
f 759//1 761//1 760//1
f 761//1 762//1 760//1
f 762//1 763//1 760//1
f 760//1 763//1 764//1
f 763//1 765//1 764//1
f 765//1 766//1 764//1
f 766//1 767//1 764//1
f 767//1 768//1 764//1
f 764//1 768//1 769//1
f 768//1 770//1 769//1
f 769//1 770//1 771//1
f 770//1 772//1 771//1
f 771//1 772//1 773//1
f 772//1 774//1 773//1
f 773//1 774//1 775//1
f 774//1 776//1 775//1
f 775//1 776//1 777//1
f 776//1 778//1 777//1
f 777//1 778//1 779//1
f 778//1 780//1 779//1
f 779//1 780//1 781//1
f 782//1 781//1 780//1
f 783//1 784//1 785//1
f 784//1 786//1 785//1
f 785//1 786//1 787//1
f 786//1 788//1 787//1
f 787//1 788//1 789//1
f 788//1 790//1 789//1
f 789//1 790//1 791//1
f 790//1 792//1 791//1
f 791//1 792//1 793//1
f 792//1 794//1 793//1
f 793//1 794//1 795//1
f 794//1 796//1 795//1
f 795//1 796//1 723//1
f 723//1 796//1 721//1
f 721//1 796//1 797//1
f 797//1 796//1 798//1
f 796//1 799//1 798//1
f 798//1 799//1 800//1
f 800//1 799//1 801//1
f 801//1 799//1 802//1
f 799//1 803//1 802//1
f 802//1 803//1 804//1
f 804//1 803//1 805//1
f 803//1 806//1 805//1
f 805//1 806//1 807//1
f 807//1 806//1 808//1
f 806//1 809//1 808//1
f 808//1 809//1 810//1
f 809//1 811//1 810//1
f 810//1 811//1 812//1
f 812//1 811//1 813//1
f 811//1 814//1 813//1
f 813//1 814//1 815//1
f 814//1 816//1 815//1
f 815//1 816//1 817//1
f 816//1 818//1 817//1
f 817//1 818//1 819//1
f 819//1 818//1 820//1
f 818//1 821//1 820//1
f 820//1 821//1 822//1
f 821//1 823//1 822//1
f 822//1 823//1 824//1
f 824//1 823//1 825//1
f 823//1 826//1 825//1
f 825//1 826//1 827//1
f 826//1 828//1 827//1
f 827//1 828//1 829//1
f 829//1 828//1 830//1
f 828//1 831//1 830//1
f 830//1 831//1 832//1
f 832//1 831//1 833//1
f 831//1 834//1 833//1
f 833//1 834//1 835//1
f 835//1 834//1 836//1
f 836//1 834//1 837//1
f 834//1 838//1 837//1
f 837//1 838//1 839//1
f 839//1 838//1 840//1
f 840//1 838//1 767//1
f 768//1 767//1 838//1
