# SSTK version 0.8.0
# 7
mtllib original_7.mtl
o group_2/ID40#ID40
v 0.10682014 0.51824265 0.14146646
v 0.03972348 0.52797960 0.07471498
v 0.03416253 0.52814501 0.08336323
v 0.12330758 0.51824640 0.11474115
v 0.12328698 0.51827358 0.11490754
v 0.10654145 0.51825745 0.14131220
v 0.03963662 0.52813745 0.07463814
v 0.03401429 0.52801700 0.08362645
v 0.08461758 0.51825549 0.16339476
v 0.02662611 0.52804246 0.09083495
v 0.08441154 0.51837323 0.16334879
v 0.02668034 0.52796249 0.09083014
v 0.17793554 0.49859040 0.19822204
v 0.20559198 0.49879979 0.15442401
v 0.20545748 0.49867993 0.15452753
v 0.17798866 0.49868014 0.19835799
v 0.04321955 0.52801630 0.06485959
v 0.13364388 0.51825036 0.08551682
v 0.13349187 0.51836486 0.08544020
v 0.04317631 0.52811740 0.06477922
v -0.04436336 0.52802854 0.07469901
v -0.04446282 0.52810594 0.03417368
v -0.04783606 0.52804947 0.04405332
v -0.03874307 0.52812338 0.08349575
v -0.03872546 0.52801418 0.02528963
v -0.03148809 0.52818956 0.09087349
v -0.03156024 0.52809519 0.01777482
v -0.02258242 0.52810739 0.09644075
v -0.02267096 0.52814321 0.01234420
v -0.01268497 0.52809975 0.09993972
v -0.01285176 0.52825392 0.00884233
v -0.00230956 0.52806505 0.10101394
v -0.00233725 0.52796417 0.00780773
v 0.00802472 0.52813928 0.09993448
v 0.00802566 0.52805436 0.00895873
v 0.01791632 0.52817824 0.09628763
v 0.01783554 0.52808194 0.01232117
v 0.02676484 0.52792368 0.01795852
v 0.03411085 0.52812416 0.02530360
v 0.03966010 0.52805915 0.03419197
v 0.03976970 0.52818038 0.03414736
v 0.03414471 0.52811163 0.02537522
v 0.02683301 0.52790430 0.01784760
v 0.01778678 0.52818771 0.01225950
v 0.01794249 0.52790906 0.09650958
v 0.00813986 0.52798702 0.00892637
v 0.00804564 0.52803609 0.09988714
v -0.00244318 0.52800632 0.00779262
v -0.00232232 0.52806254 0.10122321
v -0.01274071 0.52813098 0.00887481
v -0.01275663 0.52792564 0.09996105
v -0.02252449 0.52809243 0.01240550
v -0.02269552 0.52804453 0.09659308
v -0.03159247 0.52815353 0.01792659
v -0.03152706 0.52795963 0.09100921
v -0.03886162 0.52811512 0.02548088
v -0.03889366 0.52794221 0.08337806
v -0.04449447 0.52793037 0.03407106
v -0.04438007 0.52822588 0.07461215
v -0.04798198 0.52800919 0.04403220
v 0.05802477 0.51818174 0.18013183
v 0.05818252 0.51842372 0.18019704
v 0.14140517 0.49877841 0.23485563
v 0.14133231 0.49867468 0.23466876
v 0.24725014 0.46966587 0.25354235
v 0.28524033 0.46978647 0.19297754
v 0.28527969 0.46964131 0.19286841
v 0.24731016 0.46981118 0.25343855
v 0.22247844 0.49870231 0.10580021
v 0.22251308 0.49874154 0.10570978
v 0.04425739 0.52821154 0.05445488
v 0.13695734 0.51828917 0.05434312
v 0.13714428 0.51811416 0.05446692
v 0.04418704 0.52815864 0.05433268
v 0.10667145 0.51814774 -0.03254265
v 0.12331805 0.51836200 -0.00625762
v 0.12316623 0.51827092 -0.00623946
v 0.10651234 0.51822310 -0.03255200
v 0.08469869 0.51829072 -0.05470425
v 0.08447875 0.51828485 -0.05468973
v 0.05806857 0.51823840 -0.07107458
v 0.05818011 0.51843894 -0.07117564
v 0.02872714 0.51831980 -0.08157141
v 0.02865145 0.51836685 -0.08155406
v -0.00230022 0.51835594 -0.08515033
v -0.00231710 0.51809876 -0.08497054
v -0.03338787 0.51826127 -0.08142141
v -0.03358122 0.51828254 -0.08162209
v -0.06287813 0.51836566 -0.07123521
v -0.06296078 0.51810697 -0.07129254
v -0.08935518 0.51829501 -0.05467134
v -0.08940994 0.51830618 -0.05456429
v -0.11144576 0.51819026 -0.03259024
v -0.11138377 0.51832444 -0.03253517
v -0.12790373 0.51840541 -0.00601103
v -0.12801236 0.51827168 -0.00604379
v -0.13824731 0.51816743 0.02332760
v -0.13832744 0.51826485 0.02349504
v -0.11129720 0.51826307 0.14144449
v -0.12818010 0.51833384 0.11486697
v -0.11138721 0.51827981 0.14128510
v -0.12807267 0.51822051 0.11490398
v -0.08920706 0.51825780 0.16323109
v -0.08940696 0.51811859 0.16331850
v -0.06299578 0.51832243 0.18013324
v -0.06282672 0.51825578 0.17999968
v -0.03344151 0.51833330 0.19029692
v -0.03337742 0.51827143 0.19037587
v -0.00244370 0.51830162 0.19388886
v -0.00232976 0.51820537 0.19380316
v 0.02862425 0.51829336 0.19030634
v 0.02856293 0.51820255 0.19038969
v 0.09760836 0.49871946 0.26229239
v 0.09762113 0.49875786 0.26226075
v 0.19669831 0.46986023 0.30397762
v 0.19664180 0.46968680 0.30405581
v 0.25407467 0.46115640 0.25880129
v 0.29319722 0.46117217 0.19663159
v 0.29304184 0.46115092 0.19663644
v 0.25408050 0.46125695 0.25884015
v 0.30889001 0.46961956 0.12557813
v 0.30910263 0.46983134 0.12550779
v 0.22843426 0.49876910 0.05453057
v 0.22832277 0.49871002 0.05428489
v 0.13345366 0.51826766 0.02342661
v 0.04307742 0.52805280 0.04399922
v 0.13353444 0.51836067 0.02350149
v 0.04298982 0.52808418 0.04398852
v 0.17798637 0.49861656 -0.08944076
v 0.20555922 0.49863311 -0.04565308
v 0.20550307 0.49875909 -0.04566425
v 0.17797783 0.49869500 -0.08935814
v 0.14154596 0.49863935 -0.12598657
v 0.14141984 0.49862387 -0.12594079
v 0.09766808 0.49885819 -0.15333895
v 0.09774635 0.49872605 -0.15352855
v 0.04885181 0.49879865 -0.17046892
v 0.04882202 0.49868260 -0.17055522
v -0.00243160 0.49877164 -0.17618559
v -0.00244968 0.49869620 -0.17625222
v -0.05369067 0.49883780 -0.17064495
v -0.05370346 0.49867138 -0.17043296
v -0.10247170 0.49861928 -0.15355699
v -0.10260399 0.49889798 -0.15335955
v -0.14617878 0.49879099 -0.12581283
v -0.14632573 0.49880174 -0.12585748
v -0.18276476 0.49881941 -0.08956431
v -0.18267429 0.49871436 -0.08935353
v -0.21014709 0.49867023 -0.04559866
v -0.21017003 0.49869270 -0.04559893
v -0.04892204 0.52802116 0.05435744
v -0.14173207 0.51838326 0.05455837
v -0.04919669 0.52822944 0.05453184
v -0.14173028 0.51838559 0.05442698
v -0.22728835 0.49868801 0.00307412
v -0.22717015 0.49865916 0.00317587
v -0.18289200 0.49868113 0.19823631
v -0.21025333 0.49880545 0.15430770
v -0.18277913 0.49870765 0.19809283
v -0.21020567 0.49862581 0.15454079
v -0.04790846 0.52819603 0.06476494
v -0.13833852 0.51836571 0.08541071
v -0.04790829 0.52801110 0.06474437
v -0.13844098 0.51836121 0.08528427
v -0.14608046 0.49874198 0.23473493
v -0.14626652 0.49873387 0.23488515
v -0.10250504 0.49872934 0.26215003
v -0.10254831 0.49881388 0.26225108
v -0.05369305 0.49857971 0.27931335
v -0.05366199 0.49872795 0.27919986
v -0.00240672 0.49872163 0.28490365
v -0.00237372 0.49870420 0.28503527
v 0.04891055 0.49883986 0.27945321
v 0.04888373 0.49873149 0.27918067
v 0.13629844 0.46971948 0.34217067
v 0.13621538 0.46959656 0.34208197
v 0.20210067 0.46126135 0.31069881
v 0.20212634 0.46129818 0.31077752
v 0.17738065 -0.41625422 0.19787030
v 0.29314492 0.46109809 0.19660694
v 0.25403116 0.46116099 0.25885527
v 0.20480481 -0.41612196 0.15415912
v 0.20490770 -0.41621349 0.15410963
v 0.17730511 -0.41601708 0.19785363
v 0.29309474 0.46113289 0.19686659
v 0.25407144 0.46122388 0.25895199
v 0.31717468 0.46120469 0.12733976
v 0.31724345 0.46102705 0.12730672
v 0.31699485 0.46953740 0.05446835
v 0.31706747 0.46955773 0.05452906
v 0.22265808 0.49872870 0.00310127
v 0.22239875 0.49869638 0.00304781
v 0.24733700 0.46969788 -0.14471090
v 0.28530389 0.46974477 -0.08426332
v 0.28530963 0.46956445 -0.08408606
v 0.24728337 0.46966001 -0.14477609
v 0.19673754 0.46960599 -0.19527785
v 0.19671882 0.46965583 -0.19533290
v 0.13610858 0.46963828 -0.23334511
v 0.13606616 0.46969972 -0.23348037
v 0.06875169 0.46972258 -0.25690506
v 0.06881894 0.46979332 -0.25675862
v -0.00237729 0.46966546 -0.26498867
v -0.00232087 0.46975868 -0.26491102
v -0.07335175 0.46962024 -0.25692087
v -0.07333251 0.46958294 -0.25682943
v -0.14097205 0.46972720 -0.23318952
v -0.14098820 0.46957341 -0.23328488
v -0.20147259 0.46970929 -0.19532908
v -0.20141633 0.46967607 -0.19522228
v -0.25209927 0.46979647 -0.14464298
v -0.25197625 0.46974522 -0.14478617
v -0.29008929 0.46960812 -0.08422573
v -0.29008998 0.46972310 -0.08417466
v -0.23313815 0.49873535 0.05440904
v -0.23297124 0.49857322 0.05449357
v -0.31374738 0.46956788 -0.01662739
v -0.31378020 0.46974270 -0.01664515
v -0.25197612 0.46969067 0.25344850
v -0.29016583 0.46960650 0.19295646
v -0.25219871 0.46972964 0.25343484
v -0.29007037 0.46964378 0.19295892
v -0.22741662 0.49859760 0.10561763
v -0.22720562 0.49874310 0.10583275
v -0.20133960 0.46974404 0.30411013
v -0.20155447 0.46970920 0.30402344
v -0.14102311 0.46975806 0.34220267
v -0.14098545 0.46963873 0.34217491
v -0.07350614 0.46971494 0.36573499
v -0.07345705 0.46976538 0.36584313
v -0.00246920 0.46968130 0.37380406
v -0.00229151 0.46984053 0.37373378
v 0.06878046 0.46959349 0.36565497
v 0.06881780 0.46980946 0.36582295
v 0.13990952 0.46128443 0.34987428
v 0.13974928 0.46111000 0.35000027
v 0.14105139 -0.41600221 0.23405712
v 0.20190492 0.46098329 0.31086411
v 0.20204611 0.46110471 0.31067202
v 0.14092461 -0.41617220 0.23428086
v -0.22654835 -0.41602750 0.00318578
v -0.22647158 -0.41607329 0.10564011
v -0.23244522 -0.41628158 0.05440701
v -0.20963704 -0.41605910 -0.04537112
v -0.20957578 -0.41604364 0.15413501
v -0.18209994 -0.41624710 -0.08897190
v -0.18213477 -0.41615857 0.19774193
v -0.14571049 -0.41627936 -0.12533419
v -0.14574674 -0.41617979 0.23416365
v -0.10213408 -0.41619190 -0.15270521
v -0.10227897 -0.41614975 0.26154802
v -0.05352570 -0.41613766 -0.16985086
v -0.05348582 -0.41628236 0.27873901
v -0.00246523 -0.41614352 -0.17563037
v -0.00234529 -0.41621757 0.28432908
v 0.04867402 -0.41608841 -0.16964707
v 0.04882089 -0.41603348 0.27859529
v 0.09744434 -0.41620600 -0.15281478
v 0.09739714 -0.41615603 0.26150213
v 0.14096562 -0.41604741 -0.12527537
v 0.14083321 -0.41620169 0.23418281
v 0.17743641 -0.41621463 -0.08902247
v 0.17740803 -0.41616699 0.19780211
v 0.20469968 -0.41607633 -0.04547779
v 0.20485774 -0.41616251 0.15419929
v 0.22180292 -0.41628814 0.00315499
v 0.22167518 -0.41604259 0.10567868
v 0.22762425 -0.41614134 0.05439688
v 0.22760097 -0.41608253 0.05431609
v 0.22191764 -0.41610167 0.00309765
v 0.22194692 -0.41605645 0.10569627
v 0.20475721 -0.41617917 0.15417106
v 0.20480117 -0.41619757 -0.04532670
v 0.17754779 -0.41620674 0.19787308
v 0.17740745 -0.41623878 -0.08904486
v 0.14108060 -0.41614082 0.23424117
v 0.14097955 -0.41614602 -0.12535973
v 0.09742134 -0.41612933 0.26151891
v 0.09739398 -0.41616748 -0.15281642
v 0.04869135 -0.41607840 0.27850659
v 0.04868707 -0.41617481 -0.16983363
v -0.00233635 -0.41606022 0.28442562
v -0.00233464 -0.41617397 -0.17565613
v -0.05355130 -0.41619343 0.27865751
v -0.05345463 -0.41616253 -0.16976673
v -0.10208929 -0.41625398 0.26173667
v -0.10223123 -0.41599764 -0.15268716
v -0.14578375 -0.41610804 0.23405562
v -0.14577763 -0.41600229 -0.12531149
v -0.18226587 -0.41607381 0.19764390
v -0.18224803 -0.41616707 -0.08900228
v -0.20958038 -0.41621113 0.15414466
v -0.20947778 -0.41605255 -0.04539184
v -0.22660914 -0.41611784 0.10549777
v -0.22652056 -0.41606773 0.00319594
v -0.23234741 -0.41610010 0.05426313
v 0.31745338 0.46118182 0.12726469
v 0.22182940 -0.41615763 0.10554404
v 0.22185516 -0.41595293 0.10573334
v 0.31741941 0.46105279 0.12742565
v 0.32559740 0.46119452 0.05444315
v 0.32552643 0.46127590 0.05450676
v 0.30900866 0.46969446 -0.01653781
v 0.30879083 0.46966339 -0.01667242
v 0.25386110 0.46115307 -0.15005895
v 0.29287797 0.46121775 -0.08787234
v 0.29297772 0.46125281 -0.08783769
v 0.25402205 0.46117120 -0.14991560
v 0.20218882 0.46118481 -0.20208746
v 0.20215430 0.46112420 -0.20205368
v 0.13974250 0.46130018 -0.24088105
v 0.14001662 0.46115292 -0.24120987
v 0.07070115 0.46119138 -0.26522956
v 0.07071696 0.46113114 -0.26535484
v -0.00229473 0.46116998 -0.27349313
v -0.00232763 0.46120322 -0.27337592
v -0.07521790 0.46117216 -0.26528574
v -0.07534834 0.46124977 -0.26529819
v -0.14455931 0.46116408 -0.24106593
v -0.14462019 0.46125222 -0.24107819
v -0.20697377 0.46113204 -0.20197915
v -0.20689057 0.46102437 -0.20188970
v -0.25888585 0.46130234 -0.15005480
v -0.25883173 0.46122645 -0.14995842
v -0.29775650 0.46125549 -0.08787989
v -0.29793605 0.46132601 -0.08800788
v -0.32174234 0.46975248 0.05430008
v -0.32183937 0.46968344 0.05440472
v -0.32205542 0.46120754 -0.01854402
v -0.32211841 0.46103941 -0.01863171
v -0.25878158 0.46108122 0.25890741
v -0.29778764 0.46116535 0.19671953
v -0.25890282 0.46114684 0.25874174
v -0.29792351 0.46113684 0.19672813
v -0.31376176 0.46978518 0.12541727
v -0.31366152 0.46956167 0.12533395
v -0.20685457 0.46123848 0.31073802
v -0.20677817 0.46120885 0.31060152
v -0.14462936 0.46116238 0.34992317
v -0.14461875 0.46120198 0.34979699
v -0.07535163 0.46134706 0.37423896
v -0.07525705 0.46117523 0.37412805
v -0.00239469 0.46127510 0.38240666
v -0.00236659 0.46120375 0.38229644
v 0.07067706 0.46121875 0.37408302
v 0.07059745 0.46114711 0.37416450
v 0.09729068 -0.41621832 0.26151717
v 0.13989482 0.46113227 0.34983922
v 0.13999065 0.46114448 0.34983646
v 0.09722460 -0.41618261 0.26163541
v -0.20690312 0.46123631 -0.20202893
v -0.10225999 -0.41610541 -0.15279943
v -0.14575015 -0.41610305 -0.12542769
v -0.14458790 0.46121423 -0.24116666
v -0.14478413 0.46118138 -0.24103079
v -0.20675887 0.46129711 -0.20199231
v -0.10213955 -0.41621113 -0.15281602
v -0.14579297 -0.41605139 -0.12527055
v -0.05348075 -0.41610115 -0.16968677
v -0.07530164 0.46118366 -0.26536368
v -0.07543344 0.46108154 -0.26526975
v -0.05357218 -0.41600628 -0.16981074
v -0.00247686 -0.41610847 -0.17552681
v -0.00239309 0.46111124 -0.27346343
v -0.00226684 0.46114937 -0.27342753
v -0.00227472 -0.41627936 -0.17544016
v 0.04870726 -0.41625612 -0.16989560
v 0.07045409 0.46121892 -0.26535908
v 0.07053277 0.46120903 -0.26537022
v 0.04880901 -0.41616028 -0.16984483
v 0.09744129 -0.41619695 -0.15290317
v 0.13977340 0.46112878 -0.24110815
v 0.13981967 0.46116846 -0.24102039
v 0.09748835 -0.41631884 -0.15279946
v 0.14094830 -0.41616588 -0.12535901
v 0.20215385 0.46117110 -0.20186385
v 0.20215448 0.46119486 -0.20197446
v 0.14106062 -0.41610693 -0.12539356
v 0.25389237 0.46134259 -0.15000432
v 0.17739659 -0.41607582 -0.08908028
v 0.25392050 0.46113825 -0.15017689
v 0.17740173 -0.41607749 -0.08898995
v 0.29293936 0.46115759 -0.08775504
v 0.20474410 -0.41614568 -0.04535203
v 0.29296981 0.46105994 -0.08788421
v 0.20486264 -0.41605099 -0.04540391
v 0.31737473 0.46121479 -0.01842514
v 0.22192719 -0.41625578 0.00327637
v 0.31728953 0.46122013 -0.01861843
v 0.22179756 -0.41611534 0.00334976
v 0.32564870 0.46104455 0.05439543
v 0.22748594 -0.41626885 0.05427629
v 0.32561936 0.46108498 0.05443720
v 0.22752489 -0.41626302 0.05434803
v 0.04877538 -0.41605774 0.27852162
v 0.07057728 0.46116896 0.37397491
v 0.07052012 0.46112401 0.37424658
v 0.04869079 -0.41607248 0.27870887
v -0.00241937 -0.41606717 0.28444445
v -0.00240760 0.46120840 0.38238267
v -0.00228976 0.46104587 0.38239835
v -0.00248157 -0.41628157 0.28422041
v -0.05345704 -0.41598492 0.27862891
v -0.07535700 0.46119301 0.37412673
v -0.07530264 0.46111774 0.37411094
v -0.05355744 -0.41620184 0.27843340
v -0.10208278 -0.41611332 0.26146088
v -0.14475930 0.46126422 0.34990191
v -0.14463903 0.46115239 0.34970373
v -0.10218963 -0.41632170 0.26151897
v -0.14566192 -0.41605576 0.23403934
v -0.20684680 0.46119668 0.31073158
v -0.20683282 0.46127939 0.31086329
v -0.14570192 -0.41613649 0.23419208
v -0.18224098 -0.41597058 0.19779898
v -0.25866150 0.46117750 0.25881880
v -0.25880855 0.46126139 0.25882002
v -0.18219278 -0.41616200 0.19783744
v -0.29786790 0.46121575 0.19656804
v -0.20951120 -0.41597877 0.15413044
v -0.20969213 -0.41630957 0.15406906
v -0.29791022 0.46099490 0.19668342
v -0.32204417 0.46123189 0.12722889
v -0.22659120 -0.41602289 0.10556819
v -0.22664360 -0.41613424 0.10566772
v -0.32204464 0.46108862 0.12740292
v -0.33045573 0.46124105 0.05435642
v -0.23249633 -0.41599999 0.05430384
v -0.23240719 -0.41624216 0.05444043
v -0.33041531 0.46118308 0.05452280
v -0.32226289 0.46130315 -0.01860744
v -0.22648987 -0.41605333 0.00321155
v -0.22667460 -0.41602182 0.00338760
v -0.32210841 0.46124563 -0.01858277
v -0.20964058 -0.41631219 -0.04535143
v -0.29765389 0.46131806 -0.08774970
v -0.29782380 0.46129420 -0.08807124
v -0.20958003 -0.41624221 -0.04542059
v -0.18218405 -0.41618823 -0.08895373
v -0.25890669 0.46116344 -0.15008732
v -0.25873729 0.46110502 -0.14996933
v -0.18215069 -0.41616638 -0.08891993
v 0.31735017 0.46126125 -0.01861715
v 0.31731440 0.46117494 -0.01866583
v -0.33024946 0.46127396 0.05451503
v -0.33037648 0.46121701 0.05442579
v -0.32207276 0.46108551 0.12743925
v -0.32205426 0.46112680 0.12724354
vn 0.12603130343901495 0.9869212269301099 0.10051170274266207
vn 0.05091563932681186 0.9984018867994919 0.02452080967579496
vn 0.04416419952875248 0.9984029893466895 0.03522774962410776
vn 0.1452492948370375 0.9869196649194218 0.06994438751379022
vn -0.1452492948370375 -0.9869196649194218 -0.06994438751379022
vn -0.12603130343901495 -0.9869212269301099 -0.10051170274266207
vn -0.05091563932681186 -0.9984018867994919 -0.02452080967579496
vn -0.04416419952875248 -0.9984029893466895 -0.03522774962410776
vn 0.10051170274266184 0.9869212269301099 0.12603130343901517
vn 0.03522774962410754 0.9984029893466895 0.0441641995287527
vn -0.10051170274266184 -0.9869212269301099 -0.12603130343901517
vn -0.03522774962410754 -0.9984029893466895 -0.0441641995287527
vn 0.20649980536343604 0.9644896250507665 0.16467420427709656
vn 0.23796339831740243 0.9644904931802565 0.11459279918973457
vn -0.23796339831740243 -0.9644904931802565 -0.11459279918973457
vn -0.20649980536343604 -0.9644896250507665 -0.16467420427709656
vn 0.05712616784558005 0.998281862351433 0.013035499508387687
vn 0.15716400234202418 0.9869209147068834 0.035868990534512216
vn -0.15716400234202418 -0.9869209147068834 -0.035868990534512216
vn -0.05712616784558005 -0.998281862351433 -0.013035499508387687
vn -0.05280038885904903 0.9982812784283787 0.025428489450522077
vn -0.05091564928840277 0.9984018860463328 -0.024520819657296744
vn -0.05712614791084875 0.9982818634919932 -0.013035499523280604
vn -0.04416418954825735 0.9984029897876262 0.035227749639665816
vn -0.04416422943912166 0.9984029873204489 -0.03522776955261299
vn -0.035227739620959535 0.9984029892574676 0.04416420952480588
vn -0.03522770970486372 0.9984029916354215 -0.04416417962999412
vn -0.024520799681807568 0.9984018870443081 0.050915639339297006
vn -0.024520799744232144 0.9984018895860203 -0.05091558946891713
vn -0.012570650156422551 0.9984023124235926 0.055089030685499106
vn -0.012570670097861846 0.9984023077724967 -0.0550891104288649
vn 0 0.9984030790727126 0.05649151881589506
vn 0 0.9984030847128382 -0.05649141913502503
vn 0.012570650156422551 0.9984023124235926 0.055089030685499106
vn 0.012570670097861846 0.9984023077724967 -0.0550891104288649
vn 0.024520799681807568 0.9984018870443081 0.050915639339297006
vn 0.024520789737760038 0.9984018893224941 -0.05091559945547796
vn 0.03522770972042175 0.998402992076358 -0.04416416964949896
vn 0.044164239419616745 0.998402986879512 -0.03522776953705492
vn 0.052800388818769986 0.9982812776668348 -0.02542851943112271
vn -0.052800388818769986 -0.9982812776668348 0.02542851943112271
vn -0.044164239419616745 -0.998402986879512 0.03522776953705492
vn -0.03522770972042175 -0.998402992076358 0.04416416964949896
vn -0.024520789737760038 -0.9984018893224941 0.05091559945547796
vn -0.024520799681807568 -0.9984018870443081 -0.050915639339297006
vn -0.012570670097861846 -0.9984023077724967 0.0550891104288649
vn -0.012570650156422551 -0.9984023124235926 -0.055089030685499106
vn 0 -0.9984030847128382 0.05649141913502503
vn 0 -0.9984030790727126 -0.05649151881589506
vn 0.012570670097861846 -0.9984023077724967 0.0550891104288649
vn 0.012570650156422551 -0.9984023124235926 -0.055089030685499106
vn 0.024520799744232144 -0.9984018895860203 0.05091558946891713
vn 0.024520799681807568 -0.9984018870443081 -0.050915639339297006
vn 0.03522770970486372 -0.9984029916354215 0.04416417962999412
vn 0.035227739620959535 -0.9984029892574676 -0.04416420952480588
vn 0.04416422943912166 -0.9984029873204489 0.03522776955261299
vn 0.04416418954825735 -0.9984029897876262 -0.035227749639665816
vn 0.05091564928840277 -0.9984018860463328 0.024520819657296744
vn 0.05280038885904903 -0.9982812784283787 -0.025428489450522077
vn 0.05712614791084875 -0.9982818634919932 0.013035499523280604
vn 0.06994436761163501 0.9869196663000115 0.14524929504022513
vn -0.06994436761163501 -0.9869196663000115 -0.14524929504022513
vn 0.16467420427709634 0.9644896250507665 0.20649980536343626
vn -0.16467420427709634 -0.9644896250507665 -0.20649980536343626
vn 0.41745798664092304 0.8455138729427025 0.33291908934625325
vn 0.48109362062796224 0.8455047362529017 0.23166930993333867
vn -0.48109362062796224 -0.8455047362529017 -0.23166930993333867
vn -0.41745798664092304 -0.8455138729427025 -0.33291908934625325
vn 0.25749590477043216 0.9644904178683856 0.05877153108881599
vn -0.25749590477043216 -0.9644904178683856 -0.05877153108881599
vn 0.10534400428446504 0.9944358404448798 1.1010710668627708e-8
vn 0.16121269767133256 0.9869196857442512 8.709079093340249e-9
vn -0.16121269767133256 -0.9869196857442512 -8.709079093340249e-9
vn -0.10534400428446504 -0.9944358404448798 -1.1010710668627708e-8
vn 0.12603130343901497 0.9869212269301101 -0.10051170274266163
vn 0.14524929473544373 0.9869196642291269 -0.06994439746486723
vn -0.14524929473544373 -0.9869196642291269 0.06994439746486723
vn -0.12603130343901497 -0.9869212269301101 0.10051170274266163
vn 0.10051170274266186 0.9869212269301101 -0.12603130343901475
vn -0.10051170274266186 -0.9869212269301101 0.12603130343901475
vn 0.06994438852972693 0.9869196792543553 -0.14524919694677438
vn -0.06994438852972693 -0.9869196792543553 0.14524919694677438
vn 0.03586900052164629 0.9869209143528848 -0.15716400228565083
vn -0.03586900052164629 -0.9869209143528848 0.15716400228565083
vn -2.9454149574543945e-9 0.9869196857442512 -0.16121269767133234
vn 2.9454149574543945e-9 -0.9869196857442512 0.16121269767133234
vn -0.03586900052164629 0.9869209143528848 -0.15716400228565083
vn 0.03586900052164629 -0.9869209143528848 0.15716400228565083
vn -0.06994438751379 0.9869196649194218 -0.14524929483703727
vn 0.06994438751379 -0.9869196649194218 0.14524929483703727
vn -0.10051170274266186 0.9869212269301101 -0.12603130343901475
vn 0.10051170274266186 -0.9869212269301101 0.12603130343901475
vn -0.12603130343901497 0.9869212269301101 -0.10051170274266163
vn 0.12603130343901497 -0.9869212269301101 0.10051170274266163
vn -0.14524929463385003 0.986919663538832 -0.06994440741594468
vn 0.14524929463385003 -0.986919663538832 0.06994440741594468
vn -0.15716400222927787 0.9869209139988859 -0.03586901050878035
vn 0.15716400222927787 -0.9869209139988859 0.03586901050878035
vn -0.12603130343901495 0.9869212269301099 0.10051170274266207
vn -0.14524929473544373 0.9869196642291269 0.06994439746486768
vn 0.12603130343901495 -0.9869212269301099 -0.10051170274266207
vn 0.14524929473544373 -0.9869196642291269 -0.06994439746486768
vn -0.10051170274266184 0.9869212269301099 0.12603130343901517
vn 0.10051170274266184 -0.9869212269301099 -0.12603130343901517
vn -0.06994436761163501 0.9869196663000115 0.14524929504022513
vn 0.06994436761163501 -0.9869196663000115 -0.14524929504022513
vn -0.03586900052164628 0.9869209143528845 0.15716400228565122
vn 0.03586900052164628 -0.9869209143528845 -0.15716400228565122
vn -2.945431957454149e-9 0.9869196857442512 0.16121269767133278
vn 2.945431957454149e-9 -0.9869196857442512 -0.16121269767133278
vn 0.03586900052164628 0.9869209143528845 0.15716400228565122
vn -0.03586900052164628 -0.9869209143528845 -0.15716400228565122
vn 0.11459279918973436 0.9644904931802565 0.23796339831740265
vn -0.11459279918973436 -0.9644904931802565 -0.23796339831740265
vn 0.332919000076931 0.8455140001953813 0.4174578000964663
vn -0.332919000076931 -0.8455140001953813 -0.4174578000964663
vn 0.551155493363917 0.7092693914601765 0.4395048947082249
vn 0.6351382913057603 0.7092446902913372 0.30589429581269423
vn -0.6351382913057603 -0.7092446902913372 -0.30589429581269423
vn -0.551155493363917 -0.7092693914601765 -0.4395048947082249
vn 0.520577010811903 0.8455071175604008 0.11881620246770283
vn -0.520577010811903 -0.8455071175604008 -0.11881620246770283
vn 0.2641157940718366 0.9644909783516917 2.7630361521427936e-9
vn -0.2641157940718366 -0.9644909783516917 -2.7630361521427936e-9
vn 0.1571640997028514 0.9869208981340385 -0.03586901993218258
vn 0.1027077044449633 0.9944354430369763 -0.023436661014286864
vn -0.1571640997028514 -0.9869208981340385 0.03586901993218258
vn -0.1027077044449633 -0.9944354430369763 0.023436661014286864
vn 0.20649970962764755 0.9644896449674548 -0.1646742076776146
vn 0.23796330670694474 0.9644905271839587 -0.11459270322977055
vn -0.23796330670694474 -0.9644905271839587 0.11459270322977055
vn -0.20649970962764755 -0.9644896449674548 0.1646742076776146
vn 0.16467420427709636 0.9644896250507666 -0.20649980536343587
vn -0.16467420427709636 -0.9644896250507666 0.20649980536343587
vn 0.11459279918973438 0.9644904931802567 -0.23796339831740226
vn -0.11459279918973438 -0.9644904931802567 0.23796339831740226
vn 0.05877156098519345 0.9644904161678476 -0.2574959043164289
vn -0.05877156098519345 -0.9644904161678476 0.2574959043164289
vn -4.467471899726165e-9 0.9644909783516916 -0.26411579407183633
vn 4.467471899726165e-9 -0.9644909783516916 0.26411579407183633
vn -0.05877155101973424 0.9644904167346937 -0.25749590446776327
vn 0.05877155101973424 -0.9644904167346937 0.25749590446776327
vn -0.11459279918973438 0.9644904931802567 -0.23796339831740226
vn 0.11459279918973438 -0.9644904931802567 0.23796339831740226
vn -0.16467420427709636 0.9644896250507666 -0.20649980536343587
vn 0.16467420427709636 -0.9644896250507666 0.20649980536343587
vn -0.20649970962764755 0.9644896449674548 -0.1646742076776146
vn 0.20649970962764755 -0.9644896449674548 0.1646742076776146
vn -0.23796330398005766 0.9644905161315961 -0.11459280191662287
vn 0.23796330398005766 -0.9644905161315961 0.11459280191662287
vn -0.10534400428446504 0.9944358404448798 1.1010710668627708e-8
vn -0.16121269767133256 0.9869196857442512 8.709064093340464e-9
vn 0.10534400428446504 -0.9944358404448798 -1.1010710668627708e-8
vn 0.16121269767133256 -0.9869196857442512 -8.709064093340464e-9
vn -0.2574959046190978 0.9644904173015395 -0.05877154105427479
vn 0.2574959046190978 -0.9644904173015395 0.05877154105427479
vn -0.20649980536343604 0.9644896250507665 0.16467420427709656
vn -0.2379633039800576 0.9644905161315959 0.11459280191662326
vn 0.20649980536343604 -0.9644896250507665 -0.16467420427709656
vn 0.2379633039800576 -0.9644905161315959 -0.11459280191662326
vn -0.1027077044449633 0.9944354430369763 0.02343666101428731
vn -0.15716400234202418 0.9869209147068834 0.035868990534512216
vn 0.1027077044449633 -0.9944354430369763 -0.02343666101428731
vn 0.15716400234202418 -0.9869209147068834 -0.035868990534512216
vn -0.16467420427709634 0.9644896250507665 0.20649980536343626
vn 0.16467420427709634 -0.9644896250507665 -0.20649980536343626
vn -0.11459279918973436 0.9644904931802565 0.23796339831740265
vn 0.11459279918973436 -0.9644904931802565 -0.23796339831740265
vn -0.05877155101973424 0.9644904167346935 0.2574959044677637
vn 0.05877155101973424 -0.9644904167346935 -0.2574959044677637
vn -4.467483899725896e-9 0.9644909783516916 0.26411579407183683
vn 4.467483899725896e-9 -0.9644909783516916 -0.26411579407183683
vn 0.058771570950652656 0.9644904156010015 0.25749590416509505
vn -0.058771570950652656 -0.9644904156010015 -0.25749590416509505
vn 0.23166910918917627 0.8455051335370379 0.48109301908259855
vn -0.23166910918917627 -0.8455051335370379 -0.48109301908259855
vn 0.43950471249353257 0.7092697201619779 0.5511552156673534
vn -0.43950471249353257 -0.7092697201619779 -0.5511552156673534
vn 0.7770005997430148 -0.11096559996329937 0.6196423997950594
vn 0.8953968841021523 -0.11096339802983554 0.4312209923436347
vn 0.7770013104478316 -0.11096560149208246 0.6196415083319166
vn 0.895396922713543 -0.11096340281480989 0.4312209109387853
vn -0.895396922713543 0.11096340281480989 -0.4312209109387853
vn -0.7770005997430148 0.11096559996329937 -0.6196423997950594
vn -0.8953968841021523 0.11096339802983554 -0.4312209923436347
vn -0.7770013104478316 0.11096560149208246 -0.6196415083319166
vn 0.6872848197155832 0.709246320345575 0.15687330450009765
vn -0.6872848197155832 -0.709246320345575 -0.15687330450009765
vn 0.5339548817379398 0.8455129710821845 0
vn -0.5339548817379398 -0.8455129710821845 0
vn 0.25749590492176644 0.9644904184352313 -0.05877152112335629
vn -0.25749590492176644 -0.9644904184352313 0.05877152112335629
vn 0.41745789017006485 0.845513880090575 -0.3329191921607084
vn 0.4810935799512699 0.8455047647650736 -0.23166929034558895
vn -0.4810935799512699 -0.8455047647650736 0.23166929034558895
vn -0.41745789017006485 -0.845513880090575 0.3329191921607084
vn 0.332919000076931 0.8455140001953815 -0.417457800096466
vn -0.332919000076931 -0.8455140001953815 0.417457800096466
vn 0.23166920111897615 0.8455050040838401 -0.4810932023237089
vn -0.23166920111897615 -0.8455050040838401 0.4810932023237089
vn 0.11881620479230202 0.8455072341024699 -0.5205768209968104
vn -0.11881620479230202 -0.8455072341024699 0.5205768209968104
vn -5.12696482465009e-9 0.8455129710821846 -0.5339548817379396
vn 5.12696482465009e-9 -0.8455129710821846 0.5339548817379396
vn -0.11881629719527362 0.8455071800413214 -0.5205768877114858
vn 0.11881629719527362 -0.8455071800413214 0.5205768877114858
vn -0.23166920111897615 0.8455050040838401 -0.4810932023237089
vn 0.23166920111897615 -0.8455050040838401 0.4810932023237089
vn -0.3329189108075834 0.8455141274480187 -0.4174576135519725
vn 0.3329189108075834 -0.8455141274480187 0.4174576135519725
vn -0.41745761355197264 0.8455141274480187 -0.33291891080758323
vn 0.41745761355197264 -0.8455141274480187 0.33291891080758323
vn -0.4810933198553135 0.8455049348950294 -0.23166920956127324
vn 0.4810933198553135 -0.8455049348950294 0.23166920956127324
vn -0.2641157940718366 0.9644909783516917 2.7630261521430183e-9
vn 0.2641157940718366 -0.9644909783516917 -2.7630261521430183e-9
vn -0.5205772006269624 0.845507001018295 -0.1188162001430973
vn 0.5205772006269624 -0.845507001018295 0.1188162001430973
vn -0.41745771002283827 0.8455141203001432 0.3329188079931245
vn -0.48109330870986 0.8455049153072789 0.23166930419421194
vn 0.41745771002283827 -0.8455141203001432 -0.3329188079931245
vn 0.48109330870986 -0.8455049153072789 -0.23166930419421194
vn -0.2574959044677635 0.9644904167346936 0.058771551019734455
vn 0.2574959044677635 -0.9644904167346936 -0.058771551019734455
vn -0.3329188969096288 0.8455140921513844 0.4174576961248844
vn 0.3329188969096288 -0.8455140921513844 -0.4174576961248844
vn -0.23166910918917627 0.8455051335370379 0.48109301908259855
vn 0.23166910918917627 -0.8455051335370379 -0.48109301908259855
vn -0.118816200931601 0.8455073066293606 0.5205767040816808
vn 0.118816200931601 -0.8455073066293606 -0.5205767040816808
vn -5.12696482465009e-9 0.8455129710821844 0.53395488173794
vn 5.12696482465009e-9 -0.8455129710821844 -0.53395488173794
vn 0.11881609848262753 0.8455073892022238 0.5205765933518388
vn -0.11881609848262753 -0.8455073892022238 -0.5205765933518388
vn 0.30589380276771944 0.7092456064172364 0.6351375057467084
vn -0.30589380276771944 -0.7092456064172364 -0.6351375057467084
vn 0.6196423997950594 -0.1109655999632994 0.7770005997430148
vn 0.6196415083319166 -0.11096560149208248 0.7770013104478316
vn -0.6196415083319166 0.11096560149208248 -0.7770013104478316
vn -0.6196423997950594 0.1109655999632994 -0.7770005997430148
vn 0 -1 0
vn 0 1 0
vn 0.9689059042549213 -0.11096280048728988 0.22115290097118634
vn 0.9689058613996343 -0.11096279557933891 0.2211530911894534
vn -0.9689058613996343 0.11096279557933891 -0.2211530911894534
vn -0.9689059042549213 0.11096280048728988 -0.22115290097118634
vn 0.7049474943264065 0.7092594942917024 0
vn -0.7049474943264065 -0.7092594942917024 0
vn 0.5205769000820795 0.8455072001333113 -0.11881610001873355
vn -0.5205769000820795 -0.8455072001333113 0.11881610001873355
vn 0.551155493363917 0.7092693914601768 -0.43950489470822457
vn 0.6351381671704585 0.7092447633399762 -0.30589438418868053
vn -0.6351381671704585 -0.7092447633399762 0.30589438418868053
vn -0.551155493363917 -0.7092693914601768 0.43950489470822457
vn 0.4395046075864341 0.7092697122429388 -0.5511553095136736
vn -0.4395046075864341 -0.7092697122429388 0.5511553095136736
vn 0.3058940102827221 0.7092453238415019 -0.6351377213503516
vn -0.3058940102827221 -0.7092453238415019 0.6351377213503516
vn 0.1568733034665314 0.7092466156726838 -0.6872845151873728
vn -0.1568733034665314 -0.7092466156726838 0.6872845151873728
vn -5.9911549517816886e-9 0.7092594942917025 -0.7049474943264064
vn 5.9911549517816886e-9 -0.7092594942917025 0.7049474943264064
vn -0.15687329268487227 0.7092465669272625 -0.687284567951368
vn 0.15687329268487227 -0.7092465669272625 0.687284567951368
vn -0.3058939885873326 0.7092453735386054 -0.6351376763035059
vn 0.3058939885873326 -0.7092453735386054 0.6351376763035059
vn -0.4395043941989003 0.7092700906382131 -0.5511549927252032
vn 0.4395043941989003 -0.7092700906382131 0.5511549927252032
vn -0.5511550075934692 0.709270009771879 -0.4395045060552183
vn 0.5511550075934692 -0.709270009771879 0.4395045060552183
vn -0.6351378066287141 0.7092452074021477 -0.30589410319251104
vn 0.6351378066287141 -0.7092452074021477 0.30589410319251104
vn -0.5339553031344831 0.8455127049634217 0
vn 0.5339553031344831 -0.8455127049634217 0
vn -0.6872850227343236 0.7092461234607628 -0.15687330518912568
vn 0.6872850227343236 -0.7092461234607628 0.15687330518912568
vn -0.5511550075934692 0.7092700097718788 0.4395045060552186
vn -0.6351379709955297 0.7092450676113247 0.3058940860309158
vn 0.5511550075934692 -0.7092700097718788 -0.4395045060552186
vn 0.6351379709955297 -0.7092450676113247 -0.3058940860309158
vn -0.5205772673415914 0.8455069469571317 0.11881629254606149
vn 0.5205772673415914 -0.8455069469571317 -0.11881629254606149
vn -0.4395044748824826 0.7092700594654796 0.5511549685016984
vn 0.4395044748824826 -0.7092700594654796 -0.5511549685016984
vn -0.30589380050079557 0.709245701161145 0.6351374010398185
vn 0.30589380050079557 -0.709245701161145 -0.6351374010398185
vn -0.15687309657312995 0.7092468845066047 0.6872842849863746
vn 0.15687309657312995 -0.7092468845066047 -0.6872842849863746
vn -5.991154951781687e-9 0.7092594942917022 0.7049474943264064
vn 5.991154951781687e-9 -0.7092594942917022 -0.7049474943264064
vn 0.15687310735477147 0.7092469332520289 0.6872842322223393
vn -0.15687310735477147 -0.7092469332520289 -0.6872842322223393
vn 0.4312209923436347 -0.11096339802983564 0.8953968841021523
vn 0.43122111235987315 -0.11096340318048822 0.8953968256643073
vn -0.43122111235987315 0.11096340318048822 -0.8953968256643073
vn -0.4312209923436347 0.11096339802983564 -0.8953968841021523
vn -0.6196415083319166 -0.11096560149208215 -0.7770013104478316
vn -0.431220987558658 -0.11096349679854428 -0.89539687416652
vn -0.6196423997950594 -0.11096559996329906 -0.7770005997430148
vn -0.4312211075748947 -0.11096350194920133 -0.8953968157286748
vn 0.4312211075748947 0.11096350194920133 0.8953968157286748
vn 0.6196415083319166 0.11096560149208215 0.7770013104478316
vn 0.431220987558658 0.11096349679854428 0.89539687416652
vn 0.6196423997950594 0.11096559996329906 0.7770005997430148
vn -0.2211533028353656 -0.11096280142263334 -0.9689058124221623
vn -0.22115309118945342 -0.11096279557933864 -0.9689058613996343
vn 0.22115309118945342 0.11096279557933864 0.9689058613996343
vn 0.2211533028353656 0.11096280142263334 0.9689058124221623
vn -8.063579041209245e-9 -0.11096240056707758 -0.9938246050789805
vn -7.96778404071968e-9 -0.11096240056707758 -0.9938246050789805
vn 7.96778404071968e-9 0.11096240056707758 0.9938246050789805
vn 8.063579041209245e-9 0.11096240056707758 0.9938246050789805
vn 0.2211533028353656 -0.11096280142263334 -0.9689058124221623
vn 0.22115309118945342 -0.11096279557933864 -0.9689058613996343
vn -0.22115309118945342 0.11096279557933864 0.9689058613996343
vn -0.2211533028353656 0.11096280142263334 0.9689058124221623
vn 0.43122090615380904 -0.11096350158352276 -0.8953969127779093
vn 0.4312211075748947 -0.11096350194920133 -0.8953968157286748
vn -0.4312211075748947 0.11096350194920133 0.8953968157286748
vn -0.43122090615380904 0.11096350158352276 0.8953969127779093
vn 0.6196423997950594 -0.11096559996329906 -0.7770005997430148
vn 0.6196415083319166 -0.11096560149208215 -0.7770013104478316
vn -0.6196415083319166 0.11096560149208215 0.7770013104478316
vn -0.6196423997950594 0.11096559996329906 0.7770005997430148
vn 0.7770012623016053 -0.11096559461619292 -0.6196415699363519
vn 0.7770005997430148 -0.11096559996329909 -0.6196423997950594
vn -0.7770012623016053 0.11096559461619292 0.6196415699363519
vn -0.7770005997430148 0.11096559996329909 0.6196423997950594
vn 0.8953968256643073 -0.11096340318048793 -0.43122111235987315
vn 0.8953968841021523 -0.11096339802983535 -0.4312209923436347
vn -0.8953968256643073 0.11096340318048793 0.43122111235987315
vn -0.8953968841021523 0.11096339802983535 0.4312209923436347
vn 0.9689059256825524 -0.11096280294126383 -0.22115280586204336
vn 0.9689058828272819 -0.11096279803331476 -0.22115299608032304
vn -0.9689059256825524 0.11096280294126383 0.22115280586204336
vn -0.9689058828272819 0.11096279803331476 0.22115299608032304
vn 0.9938246050789801 -0.11096240056707776 2.256921009070224e-8
vn 0.9938246050789801 -0.11096240056707776 2.3107220093451762e-8
vn -0.9938246050789801 0.11096240056707776 -2.256921009070224e-8
vn -0.9938246050789801 0.11096240056707776 -2.3107220093451762e-8
vn 0.22115309118945342 -0.11096279557933908 0.9689058613996343
vn 0.22115290097118637 -0.11096280048729004 0.9689059042549213
vn -0.22115290097118637 0.11096280048729004 -0.9689059042549213
vn -0.22115309118945342 0.11096279557933908 -0.9689058613996343
vn -8.063550041209095e-9 -0.11096240056707801 0.9938246050789803
vn -7.967755040719531e-9 -0.11096240056707801 0.9938246050789803
vn 7.967755040719531e-9 0.11096240056707801 -0.9938246050789803
vn 8.063550041209095e-9 0.11096240056707801 -0.9938246050789803
vn -0.22115299608032302 -0.11096279803331503 0.9689058828272819
vn -0.22115290097118637 -0.11096280048729004 0.9689059042549213
vn 0.22115290097118637 0.11096280048729004 -0.9689059042549213
vn 0.22115299608032302 0.11096279803331503 -0.9689058828272819
vn -0.4312209923436347 -0.11096339802983564 0.8953968841021523
vn -0.43122111235987315 -0.11096340318048822 0.8953968256643073
vn 0.43122111235987315 0.11096340318048822 -0.8953968256643073
vn 0.4312209923436347 0.11096339802983564 -0.8953968841021523
vn -0.6196423997950594 -0.1109655999632994 0.7770005997430148
vn -0.6196415083319166 -0.11096560149208248 0.7770013104478316
vn 0.6196415083319166 0.11096560149208248 -0.7770013104478316
vn 0.6196423997950594 0.1109655999632994 -0.7770005997430148
vn -0.7770005997430148 -0.11096559996329937 0.6196423997950594
vn -0.7770013104478316 -0.11096560149208246 0.6196415083319166
vn 0.7770013104478316 0.11096560149208246 -0.6196415083319166
vn 0.7770005997430148 0.11096559996329937 -0.6196423997950594
vn -0.895396922713543 -0.11096340281480989 0.4312209109387853
vn -0.8953969811513564 -0.11096339766415401 0.4312207909225437
vn 0.8953969811513564 0.11096339766415401 -0.4312207909225437
vn 0.895396922713543 0.11096340281480989 -0.4312209109387853
vn -0.9689059042549213 -0.11096280048728988 0.22115290097118634
vn -0.9689058613996343 -0.11096279557933891 0.2211530911894534
vn 0.9689058613996343 0.11096279557933891 -0.2211530911894534
vn 0.9689059042549213 0.11096280048728988 -0.22115290097118634
vn -0.9938246050789801 -0.11096240056707776 2.2569180090702088e-8
vn -0.9938246050789801 -0.11096240056707776 2.310720009345166e-8
vn 0.9938246050789801 0.11096240056707776 -2.310720009345166e-8
vn 0.9938246050789801 0.11096240056707776 -2.2569180090702088e-8
vn -0.9689059256825524 -0.11096280294126383 -0.22115280586204336
vn -0.9689058828272819 -0.11096279803331476 -0.22115299608032304
vn 0.9689058828272819 0.11096279803331476 0.22115299608032304
vn 0.9689059256825524 0.11096280294126383 0.22115280586204336
vn -0.895396922713543 -0.1109634028148097 -0.4312209109387853
vn -0.8953968841021523 -0.11096339802983535 -0.4312209923436347
vn 0.8953968841021523 0.11096339802983535 0.4312209923436347
vn 0.895396922713543 0.1109634028148097 0.4312209109387853
vn -0.777000551596764 -0.11096559308740013 -0.6196424613993834
vn -0.7770012623016053 -0.11096559461619292 -0.6196415699363519
vn 0.7770012623016053 0.11096559461619292 0.6196415699363519
vn 0.777000551596764 0.11096559308740013 0.6196424613993834
vn 0.6872847397695058 0.7092464410403125 -0.15687310907741078
vn -0.6872847397695058 -0.7092464410403125 0.15687310907741078
vn -0.7049480961499893 0.7092588961264464 0
vn 0.7049480961499893 -0.7092588961264464 0
vn -0.6872851134620014 0.7092460138921544 0.15687340307271327
vn 0.6872851134620014 -0.7092460138921544 -0.15687340307271327
usemtl material_0_0
f 1//1 2//2 3//3
f 2//2 1//1 4//4
f 5//5 6//6 7//7
f 8//8 7//7 6//6
f 9//9 3//3 10//10
f 3//3 9//9 1//1
f 6//6 11//11 8//8
f 12//12 8//8 11//11
f 13//13 4//4 1//1
f 4//4 13//13 14//14
f 15//15 16//16 5//5
f 6//6 5//5 16//16
f 4//4 17//17 2//2
f 17//17 4//4 18//18
f 19//19 5//5 20//20
f 7//7 20//20 5//5
f 21//21 22//22 23//23
f 22//22 21//21 24//24
f 22//22 24//24 25//25
f 25//25 24//24 26//26
f 25//25 26//26 27//27
f 27//27 26//26 28//28
f 27//27 28//28 29//29
f 29//29 28//28 30//30
f 29//29 30//30 31//31
f 31//31 30//30 32//32
f 31//31 32//32 33//33
f 33//33 32//32 34//34
f 33//33 34//34 35//35
f 35//35 34//34 36//36
f 35//35 36//36 37//37
f 37//37 36//36 10//10
f 37//37 10//10 38//38
f 38//38 10//10 3//3
f 38//38 3//3 39//39
f 39//39 3//3 2//2
f 39//39 2//2 40//40
f 40//40 2//2 17//17
f 20//20 7//7 41//41
f 41//41 7//7 42//42
f 7//7 8//8 42//42
f 42//42 8//8 43//43
f 8//8 12//12 43//43
f 43//43 12//12 44//44
f 12//12 45//45 44//44
f 44//44 45//45 46//46
f 45//45 47//47 46//46
f 46//46 47//47 48//48
f 47//47 49//49 48//48
f 48//48 49//49 50//50
f 49//49 51//51 50//50
f 50//50 51//51 52//52
f 51//51 53//53 52//52
f 52//52 53//53 54//54
f 53//53 55//55 54//54
f 54//54 55//55 56//56
f 55//55 57//57 56//56
f 56//56 57//57 58//58
f 57//57 59//59 58//58
f 60//60 58//58 59//59
f 61//61 10//10 36//36
f 10//10 61//61 9//9
f 11//11 62//62 12//12
f 45//45 12//12 62//62
f 63//63 1//1 9//9
f 1//1 63//63 13//13
f 16//16 64//64 6//6
f 11//11 6//6 64//64
f 65//65 14//14 13//13
f 14//14 65//65 66//66
f 67//67 68//68 15//15
f 16//16 15//15 68//68
f 14//14 18//18 4//4
f 18//18 14//14 69//69
f 70//70 15//15 19//19
f 5//5 19//19 15//15
f 18//18 71//71 17//17
f 71//71 18//18 72//72
f 73//73 19//19 74//74
f 20//20 74//74 19//19
f 40//40 75//75 39//39
f 75//75 40//40 76//76
f 77//77 41//41 78//78
f 42//42 78//78 41//41
f 39//39 79//79 38//38
f 79//79 39//39 75//75
f 78//78 42//42 80//80
f 43//43 80//80 42//42
f 38//38 81//81 37//37
f 81//81 38//38 79//79
f 80//80 43//43 82//82
f 44//44 82//82 43//43
f 37//37 83//83 35//35
f 83//83 37//37 81//81
f 82//82 44//44 84//84
f 46//46 84//84 44//44
f 35//35 85//85 33//33
f 85//85 35//35 83//83
f 84//84 46//46 86//86
f 48//48 86//86 46//46
f 31//31 85//85 87//87
f 85//85 31//31 33//33
f 48//48 50//50 86//86
f 88//88 86//86 50//50
f 29//29 87//87 89//89
f 87//87 29//29 31//31
f 50//50 52//52 88//88
f 90//90 88//88 52//52
f 27//27 89//89 91//91
f 89//89 27//27 29//29
f 52//52 54//54 90//90
f 92//92 90//90 54//54
f 25//25 91//91 93//93
f 91//91 25//25 27//27
f 54//54 56//56 92//92
f 94//94 92//92 56//56
f 22//22 93//93 95//95
f 93//93 22//22 25//25
f 56//56 58//58 94//94
f 96//96 94//94 58//58
f 23//23 95//95 97//97
f 95//95 23//23 22//22
f 58//58 60//60 96//96
f 98//98 96//96 60//60
f 99//99 21//21 100//100
f 21//21 99//99 24//24
f 57//57 101//101 59//59
f 102//102 59//59 101//101
f 103//103 24//24 99//99
f 24//24 103//103 26//26
f 55//55 104//104 57//57
f 101//101 57//57 104//104
f 105//105 26//26 103//103
f 26//26 105//105 28//28
f 53//53 106//106 55//55
f 104//104 55//55 106//106
f 107//107 28//28 105//105
f 28//28 107//107 30//30
f 51//51 108//108 53//53
f 106//106 53//53 108//108
f 109//109 30//30 107//107
f 30//30 109//109 32//32
f 49//49 110//110 51//51
f 108//108 51//51 110//110
f 111//111 32//32 109//109
f 32//32 111//111 34//34
f 47//47 112//112 49//49
f 110//110 49//49 112//112
f 111//111 36//36 34//34
f 36//36 111//111 61//61
f 62//62 112//112 45//45
f 47//47 45//45 112//112
f 113//113 9//9 61//61
f 9//9 113//113 63//63
f 64//64 114//114 11//11
f 62//62 11//11 114//114
f 115//115 13//13 63//63
f 13//13 115//115 65//65
f 68//68 116//116 16//16
f 64//64 16//16 116//116
f 117//117 66//66 65//65
f 66//66 117//117 118//118
f 119//119 120//120 67//67
f 68//68 67//67 120//120
f 66//66 69//69 14//14
f 69//69 66//66 121//121
f 122//122 67//67 70//70
f 15//15 70//70 67//67
f 69//69 72//72 18//18
f 72//72 69//69 123//123
f 124//124 70//70 73//73
f 19//19 73//73 70//70
f 71//71 125//125 126//126
f 125//125 71//71 72//72
f 73//73 74//74 127//127
f 128//128 127//127 74//74
f 126//126 76//76 40//40
f 76//76 126//126 125//125
f 127//127 128//128 77//77
f 41//41 77//77 128//128
f 76//76 129//129 75//75
f 129//129 76//76 130//130
f 131//131 77//77 132//132
f 78//78 132//132 77//77
f 75//75 133//133 79//79
f 133//133 75//75 129//129
f 132//132 78//78 134//134
f 80//80 134//134 78//78
f 79//79 135//135 81//81
f 135//135 79//79 133//133
f 134//134 80//80 136//136
f 82//82 136//136 80//80
f 81//81 137//137 83//83
f 137//137 81//81 135//135
f 136//136 82//82 138//138
f 84//84 138//138 82//82
f 83//83 139//139 85//85
f 139//139 83//83 137//137
f 138//138 84//84 140//140
f 86//86 140//140 84//84
f 87//87 139//139 141//141
f 139//139 87//87 85//85
f 86//86 88//88 140//140
f 142//142 140//140 88//88
f 89//89 141//141 143//143
f 141//141 89//89 87//87
f 88//88 90//90 142//142
f 144//144 142//142 90//90
f 91//91 143//143 145//145
f 143//143 91//91 89//89
f 90//90 92//92 144//144
f 146//146 144//144 92//92
f 93//93 145//145 147//147
f 145//145 93//93 91//91
f 92//92 94//94 146//146
f 148//148 146//146 94//94
f 95//95 147//147 149//149
f 147//147 95//95 93//93
f 94//94 96//96 148//148
f 150//150 148//148 96//96
f 151//151 97//97 152//152
f 97//97 151//151 23//23
f 60//60 153//153 98//98
f 154//154 98//98 153//153
f 97//97 149//149 155//155
f 149//149 97//97 95//95
f 96//96 98//98 150//150
f 156//156 150//150 98//98
f 157//157 100//100 158//158
f 100//100 157//157 99//99
f 101//101 159//159 102//102
f 160//160 102//102 159//159
f 100//100 161//161 162//162
f 161//161 100//100 21//21
f 59//59 102//102 163//163
f 164//164 163//163 102//102
f 165//165 99//99 157//157
f 99//99 165//165 103//103
f 104//104 166//166 101//101
f 159//159 101//101 166//166
f 167//167 103//103 165//165
f 103//103 167//167 105//105
f 106//106 168//168 104//104
f 166//166 104//104 168//168
f 169//169 105//105 167//167
f 105//105 169//169 107//107
f 108//108 170//170 106//106
f 168//168 106//106 170//170
f 171//171 107//107 169//169
f 107//107 171//171 109//109
f 110//110 172//172 108//108
f 170//170 108//108 172//172
f 173//173 109//109 171//171
f 109//109 173//173 111//111
f 112//112 174//174 110//110
f 172//172 110//110 174//174
f 173//173 61//61 111//111
f 61//61 173//173 113//113
f 114//114 174//174 62//62
f 112//112 62//62 174//174
f 175//175 63//63 113//113
f 63//63 175//175 115//115
f 116//116 176//176 64//64
f 114//114 64//64 176//176
f 177//177 65//65 115//115
f 65//65 177//177 117//117
f 120//120 178//178 68//68
f 116//116 68//68 178//178
f 179//179 180//180 181//181
f 180//180 179//179 182//182
f 183//183 184//184 185//185
f 186//186 185//185 184//184
f 118//118 121//121 66//66
f 121//121 118//118 187//187
f 188//188 119//119 122//122
f 67//67 122//122 119//119
f 121//121 123//123 69//69
f 123//123 121//121 189//189
f 190//190 122//122 124//124
f 70//70 124//124 122//122
f 72//72 191//191 125//125
f 191//191 72//72 123//123
f 124//124 73//73 192//192
f 127//127 192//192 73//73
f 125//125 130//130 76//76
f 130//130 125//125 191//191
f 192//192 127//127 131//131
f 77//77 131//131 127//127
f 130//130 193//193 129//129
f 193//193 130//130 194//194
f 195//195 131//131 196//196
f 132//132 196//196 131//131
f 129//129 197//197 133//133
f 197//197 129//129 193//193
f 196//196 132//132 198//198
f 134//134 198//198 132//132
f 133//133 199//199 135//135
f 199//199 133//133 197//197
f 198//198 134//134 200//200
f 136//136 200//200 134//134
f 135//135 201//201 137//137
f 201//201 135//135 199//199
f 200//200 136//136 202//202
f 138//138 202//202 136//136
f 137//137 203//203 139//139
f 203//203 137//137 201//201
f 202//202 138//138 204//204
f 140//140 204//204 138//138
f 141//141 203//203 205//205
f 203//203 141//141 139//139
f 140//140 142//142 204//204
f 206//206 204//204 142//142
f 143//143 205//205 207//207
f 205//205 143//143 141//141
f 142//142 144//144 206//206
f 208//208 206//206 144//144
f 145//145 207//207 209//209
f 207//207 145//145 143//143
f 144//144 146//146 208//208
f 210//210 208//208 146//146
f 147//147 209//209 211//211
f 209//209 147//147 145//145
f 146//146 148//148 210//210
f 212//212 210//210 148//148
f 149//149 211//211 213//213
f 211//211 149//149 147//147
f 148//148 150//150 212//212
f 214//214 212//212 150//150
f 162//162 151//151 152//152
f 151//151 162//162 161//161
f 163//163 164//164 153//153
f 154//154 153//153 164//164
f 152//152 155//155 215//215
f 155//155 152//152 97//97
f 98//98 154//154 156//156
f 216//216 156//156 154//154
f 155//155 213//213 217//217
f 213//213 155//155 149//149
f 150//150 156//156 214//214
f 218//218 214//214 156//156
f 219//219 158//158 220//220
f 158//158 219//219 157//157
f 159//159 221//221 160//160
f 222//222 160//160 221//221
f 158//158 162//162 223//223
f 162//162 158//158 100//100
f 102//102 160//160 164//164
f 224//224 164//164 160//160
f 225//225 157//157 219//219
f 157//157 225//225 165//165
f 166//166 226//226 159//159
f 221//221 159//159 226//226
f 227//227 165//165 225//225
f 165//165 227//227 167//167
f 168//168 228//228 166//166
f 226//226 166//166 228//228
f 229//229 167//167 227//227
f 167//167 229//229 169//169
f 170//170 230//230 168//168
f 228//228 168//168 230//230
f 231//231 169//169 229//229
f 169//169 231//231 171//171
f 172//172 232//232 170//170
f 230//230 170//170 232//232
f 233//233 171//171 231//231
f 171//171 233//233 173//173
f 174//174 234//234 172//172
f 232//232 172//172 234//234
f 233//233 113//113 173//173
f 113//113 233//233 175//175
f 176//176 234//234 114//114
f 174//174 114//114 234//234
f 235//235 115//115 175//175
f 115//115 235//235 177//177
f 178//178 236//236 116//116
f 176//176 116//116 236//236
f 181//181 237//237 179//179
f 237//237 181//181 238//238
f 239//239 186//186 240//240
f 184//184 240//240 186//186
f 241//241 242//241 243//241
f 242//241 241//241 244//241
f 242//241 244//241 245//241
f 245//241 244//241 246//241
f 245//241 246//241 247//241
f 247//241 246//241 248//241
f 247//241 248//241 249//241
f 249//241 248//241 250//241
f 249//241 250//241 251//241
f 251//241 250//241 252//241
f 251//241 252//241 253//241
f 253//241 252//241 254//241
f 253//241 254//241 255//241
f 255//241 254//241 256//241
f 255//241 256//241 257//241
f 257//241 256//241 258//241
f 257//241 258//241 259//241
f 259//241 258//241 260//241
f 259//241 260//241 261//241
f 261//241 260//241 262//241
f 261//241 262//241 263//241
f 263//241 262//241 264//241
f 263//241 264//241 265//241
f 265//241 264//241 266//241
f 265//241 266//241 267//241
f 267//241 266//241 268//241
f 269//242 270//242 271//242
f 271//242 270//242 272//242
f 270//242 273//242 272//242
f 272//242 273//242 274//242
f 273//242 275//242 274//242
f 274//242 275//242 276//242
f 275//242 277//242 276//242
f 276//242 277//242 278//242
f 277//242 279//242 278//242
f 278//242 279//242 280//242
f 279//242 281//242 280//242
f 280//242 281//242 282//242
f 281//242 283//242 282//242
f 282//242 283//242 284//242
f 283//242 285//242 284//242
f 284//242 285//242 286//242
f 285//242 287//242 286//242
f 286//242 287//242 288//242
f 287//242 289//242 288//242
f 288//242 289//242 290//242
f 289//242 291//242 290//242
f 290//242 291//242 292//242
f 291//242 293//242 292//242
f 292//242 293//242 294//242
f 293//242 295//242 294//242
f 296//242 294//242 295//242
f 182//182 297//243 180//180
f 297//243 182//182 298//244
f 299//245 183//183 300//246
f 185//185 300//246 183//183
f 187//187 189//189 121//121
f 189//189 187//187 301//247
f 302//248 188//188 190//190
f 122//122 190//190 188//188
f 123//123 303//249 191//191
f 303//249 123//123 189//189
f 190//190 124//124 304//250
f 192//192 304//250 124//124
f 191//191 194//194 130//130
f 194//194 191//191 303//249
f 304//250 192//192 195//195
f 131//131 195//195 192//192
f 194//194 305//251 193//193
f 305//251 194//194 306//252
f 307//253 195//195 308//254
f 196//196 308//254 195//195
f 193//193 309//255 197//197
f 309//255 193//193 305//251
f 308//254 196//196 310//256
f 198//198 310//256 196//196
f 197//197 311//257 199//199
f 311//257 197//197 309//255
f 310//256 198//198 312//258
f 200//200 312//258 198//198
f 199//199 313//259 201//201
f 313//259 199//199 311//257
f 312//258 200//200 314//260
f 202//202 314//260 200//200
f 201//201 315//261 203//203
f 315//261 201//201 313//259
f 314//260 202//202 316//262
f 204//204 316//262 202//202
f 205//205 315//261 317//263
f 315//261 205//205 203//203
f 204//204 206//206 316//262
f 318//264 316//262 206//206
f 207//207 317//263 319//265
f 317//263 207//207 205//205
f 206//206 208//208 318//264
f 320//266 318//264 208//208
f 209//209 319//265 321//267
f 319//265 209//209 207//207
f 208//208 210//210 320//266
f 322//268 320//266 210//210
f 211//211 321//267 323//269
f 321//267 211//211 209//209
f 210//210 212//212 322//268
f 324//270 322//268 212//212
f 213//213 323//269 325//271
f 323//269 213//213 211//211
f 212//212 214//214 324//270
f 326//272 324//270 214//214
f 223//223 152//152 215//215
f 152//152 223//223 162//162
f 164//164 224//224 154//154
f 216//216 154//154 224//224
f 215//215 217//217 327//273
f 217//217 215//215 155//155
f 156//156 216//216 218//218
f 328//274 218//218 216//216
f 217//217 325//271 329//275
f 325//271 217//217 213//213
f 214//214 218//218 326//272
f 330//276 326//272 218//218
f 331//277 220//220 332//278
f 220//220 331//277 219//219
f 221//221 333//279 222//222
f 334//280 222//222 333//279
f 220//220 223//223 335//281
f 223//223 220//220 158//158
f 160//160 222//222 224//224
f 336//282 224//224 222//222
f 337//283 219//219 331//277
f 219//219 337//283 225//225
f 226//226 338//284 221//221
f 333//279 221//221 338//284
f 339//285 225//225 337//283
f 225//225 339//285 227//227
f 228//228 340//286 226//226
f 338//284 226//226 340//286
f 341//287 227//227 339//285
f 227//227 341//287 229//229
f 230//230 342//288 228//228
f 340//286 228//228 342//288
f 343//289 229//229 341//287
f 229//229 343//289 231//231
f 232//232 344//290 230//230
f 342//288 230//230 344//290
f 345//291 231//231 343//289
f 231//231 345//291 233//233
f 234//234 346//292 232//232
f 344//290 232//232 346//292
f 345//291 175//175 233//233
f 175//175 345//291 235//235
f 236//236 346//292 176//176
f 234//234 176//176 346//292
f 238//238 347//293 237//237
f 347//293 238//238 348//294
f 349//295 239//239 350//296
f 240//240 350//296 239//239
f 351//297 352//298 353//299
f 352//298 351//297 354//300
f 355//301 356//302 357//303
f 358//304 357//303 356//302
f 354//300 359//305 352//298
f 359//305 354//300 360//306
f 361//307 355//301 362//308
f 357//303 362//308 355//301
f 360//306 363//309 359//305
f 363//309 360//306 364//310
f 365//311 361//307 366//312
f 362//308 366//312 361//307
f 364//310 367//313 363//309
f 367//313 364//310 368//314
f 369//315 365//311 370//316
f 366//312 370//316 365//311
f 368//314 371//317 367//313
f 371//317 368//314 372//318
f 373//319 369//315 374//320
f 370//316 374//320 369//315
f 372//318 375//321 371//317
f 375//321 372//318 376//322
f 377//323 373//319 378//324
f 374//320 378//324 373//319
f 375//321 379//325 380//326
f 379//325 375//321 376//322
f 377//323 378//324 381//327
f 382//328 381//327 378//324
f 380//326 383//329 384//330
f 383//329 380//326 379//325
f 381//327 382//328 385//331
f 386//332 385//331 382//328
f 384//330 387//333 388//334
f 387//333 384//330 383//329
f 385//331 386//332 389//335
f 390//336 389//335 386//332
f 388//334 391//337 392//338
f 391//337 388//334 387//333
f 389//335 390//336 393//339
f 394//340 393//339 390//336
f 298//244 391//337 297//243
f 391//337 298//244 392//338
f 394//340 299//245 393//339
f 300//246 393//339 299//245
f 348//294 395//341 347//293
f 395//341 348//294 396//342
f 397//343 349//295 398//344
f 350//296 398//344 349//295
f 396//342 399//345 395//341
f 399//345 396//342 400//346
f 401//347 397//343 402//348
f 398//344 402//348 397//343
f 400//346 403//349 399//345
f 403//349 400//346 404//350
f 405//351 401//347 406//352
f 402//348 406//352 401//347
f 404//350 407//353 403//349
f 407//353 404//350 408//354
f 409//355 405//351 410//356
f 406//352 410//356 405//351
f 408//354 411//357 407//353
f 411//357 408//354 412//358
f 413//359 409//355 414//360
f 410//356 414//360 409//355
f 412//358 415//361 411//357
f 415//361 412//358 416//362
f 417//363 413//359 418//364
f 414//360 418//364 413//359
f 419//365 415//361 416//362
f 415//361 419//365 420//366
f 421//367 422//368 418//364
f 417//363 418//364 422//368
f 423//369 420//366 419//365
f 420//366 423//369 424//370
f 425//371 426//372 421//367
f 422//368 421//367 426//372
f 427//373 424//370 423//369
f 424//370 427//373 428//374
f 429//375 430//376 425//371
f 426//372 425//371 430//376
f 431//377 428//374 427//373
f 428//374 431//377 432//378
f 433//379 434//380 429//375
f 430//376 429//375 434//380
f 431//377 435//381 432//378
f 435//381 431//377 436//382
f 437//383 434//380 438//384
f 433//379 438//384 434//380
f 436//382 439//385 435//381
f 439//385 436//382 440//386
f 441//387 437//383 442//388
f 438//384 442//388 437//383
f 440//386 353//299 439//385
f 353//299 440//386 351//297
f 356//302 441//387 358//304
f 442//388 358//304 441//387
f 189//189 443//389 303//249
f 443//389 189//189 301//247
f 302//248 190//190 444//390
f 304//250 444//390 190//190
f 303//249 306//252 194//194
f 306//252 303//249 443//389
f 444//390 304//250 307//253
f 195//195 307//253 304//250
f 335//281 215//215 327//273
f 215//215 335//281 223//223
f 224//224 336//282 216//216
f 328//274 216//216 336//282
f 327//273 329//275 445//391
f 329//275 327//273 217//217
f 218//218 328//274 330//276
f 446//392 330//276 328//274
f 332//278 335//281 447//393
f 335//281 332//278 220//220
f 222//222 334//280 336//282
f 448//394 336//282 334//280
f 447//393 327//273 445//391
f 327//273 447//393 335//281
f 336//282 448//394 328//274
f 446//392 328//274 448//394
