# SSTK version 0.8.0
# 3
mtllib original_3.mtl
o #ID15
v 0.11103319 0.71682626 0.09127298
v 0.09399140 0.95522251 0.12444716
v 0.09392163 0.71654541 0.12451927
v 0.11090873 0.95518554 0.09116409
v 0.11105217 0.95507847 0.09121124
v 0.11101734 0.71668256 0.09118630
v 0.09408029 0.95516835 0.12445676
v 0.09416459 0.71671641 0.12442014
v -0.11577479 0.71664579 0.01766669
v -0.11582293 0.71685865 0.09123430
v -0.12160561 0.71656135 0.05432385
v -0.09872988 0.71670047 -0.01564139
v -0.09887129 0.71671910 0.12433932
v -0.07258686 0.71665360 -0.04204882
v -0.07239730 0.71681348 0.15086588
v -0.03912337 0.71667055 -0.05888319
v -0.03930763 0.71677302 0.16762902
v -0.00237307 0.71671812 -0.06494849
v -0.00248589 0.71666127 0.17358607
v 0.03453147 0.71676443 -0.05888488
v 0.03455519 0.71662478 0.16771171
v 0.06774601 0.71659320 -0.04209834
v 0.06774736 0.71680583 0.15093328
v 0.09412898 0.71676617 -0.01557072
v 0.09392390 0.71655819 0.12464815
v 0.11101575 0.71666135 0.01772711
v 0.11102652 0.71670528 0.09119002
v 0.11692920 0.71677543 0.05434430
v 0.11680406 0.71674841 0.05433363
v 0.11096328 0.71674564 0.01764067
v 0.11113293 0.71679644 0.09117126
v 0.09417602 0.71672189 0.12447060
v 0.09392066 0.71655603 -0.01573378
v 0.06761315 0.71668035 0.15093345
v 0.06755773 0.71669499 -0.04192583
v 0.03435849 0.71665793 0.16793058
v 0.03454080 0.71659591 -0.05909267
v -0.00233146 0.71680468 0.17364421
v -0.00236781 0.71651010 -0.06492469
v -0.03930449 0.71667450 0.16774681
v -0.03921342 0.71663867 -0.05891046
v -0.07227946 0.71657778 0.15092262
v -0.07248284 0.71674125 -0.04216209
v -0.09892385 0.71676961 0.12447409
v -0.09889864 0.71668340 -0.01565971
v -0.11573153 0.71663414 0.09113267
v -0.11588581 0.71683014 0.01758312
v -0.12158221 0.71676004 0.05454503
v 0.11692649 0.71664550 0.05453152
v 0.11697221 0.95535308 0.05435290
v 0.11692076 0.95516809 0.05451638
v 0.11682939 0.71672887 0.05442201
v 0.09403900 0.95511596 0.12463367
v 0.04938659 0.97208303 0.07128232
v 0.04181026 0.97208266 0.08647162
v 0.11102295 0.95519643 0.09133759
v 0.11109068 0.95514850 0.09125875
v 0.09404642 0.95510301 0.12449806
v 0.04940287 0.97215952 0.07123388
v 0.04177050 0.97216457 0.08648814
v 0.06779373 0.71669672 0.15085837
v 0.06768637 0.95507387 0.15079686
v 0.06769320 0.95509725 0.15090455
v 0.06770056 0.71655963 0.15085767
v -0.11581242 0.95513442 0.01769177
v -0.12165299 0.71679564 0.05443999
v -0.12177005 0.95527410 0.05442762
v -0.11583988 0.71657308 0.01741736
v -0.11588904 0.71654463 0.01745566
v -0.11580216 0.95513737 0.01752389
v -0.12180260 0.71674547 0.05447364
v -0.12165695 0.95518019 0.05442943
v -0.09867830 0.95511089 -0.01572690
v -0.09877563 0.71670446 -0.01577229
v -0.09874648 0.71656619 -0.01570279
v -0.09872707 0.95513178 -0.01566843
v -0.07251199 0.71667442 -0.04202369
v -0.07239713 0.95511577 -0.04212698
v -0.07250206 0.95515272 -0.04214495
v -0.07257709 0.71655929 -0.04216148
v -0.03919459 0.71678174 -0.05898324
v -0.03908635 0.95514331 -0.05907706
v -0.03918399 0.95526256 -0.05907951
v -0.03923067 0.71661297 -0.05913640
v -0.00244189 0.71664599 -0.06490755
v -0.00242339 0.95510873 -0.06478502
v -0.00233940 0.95526940 -0.06493212
v -0.00230911 0.71669896 -0.06468901
v 0.03447160 0.71669939 -0.05913175
v 0.03437887 0.95504685 -0.05906948
v 0.03444009 0.95519944 -0.05890841
v 0.03437718 0.71664237 -0.05908040
v 0.06761758 0.71674321 -0.04205579
v 0.06766277 0.95508172 -0.04201232
v 0.06785111 0.95531106 -0.04195573
v 0.06765433 0.71681969 -0.04203687
v 0.09404659 0.71663479 -0.01580749
v 0.09417981 0.95517070 -0.01572757
v 0.09411182 0.95519366 -0.01569368
v 0.09414382 0.71661051 -0.01573689
v 0.11109307 0.95532228 0.01753047
v 0.11099232 0.71664408 0.01770209
v 0.11101702 0.95533930 0.01767653
v 0.11085341 0.71659740 0.01751303
v 0.03428369 0.71679688 0.16771369
v 0.03448009 0.95507047 0.16782668
v 0.03439445 0.95530262 0.16785572
v 0.03456457 0.71669697 0.16776276
v -0.00236447 0.71659789 0.17371484
v -0.00236831 0.95533752 0.17355608
v -0.00246150 0.95517837 0.17368967
v -0.00238670 0.71668667 0.17368848
v -0.03915302 0.71666355 0.16783626
v -0.03913574 0.95516678 0.16790941
v -0.03924231 0.95518004 0.16792739
v -0.03929274 0.71673088 0.16773087
v -0.07243054 0.71665244 0.15086075
v -0.07247944 0.95524908 0.15087536
v -0.07255432 0.95518523 0.15078564
v -0.07256324 0.71665484 0.15100740
v -0.09880790 0.71666078 0.12444946
v -0.09879655 0.95514623 0.12454157
v -0.09895631 0.95505331 0.12450796
v -0.09888048 0.71679460 0.12449433
v -0.11595003 0.95528245 0.09123391
v -0.11585228 0.71668108 0.09125535
v -0.11593537 0.71653363 0.09130191
v -0.11568848 0.95506962 0.09136698
v 0.05220748 0.97236633 0.05441896
v 0.11680391 0.95529739 0.05436651
v 0.11700501 0.95532074 0.05438346
v 0.05230337 0.97209570 0.05430596
v 0.06783144 0.95520339 0.15095573
v 0.02967321 0.97213359 0.09848454
v 0.06767771 0.95518536 0.15083563
v 0.02955947 0.97226751 0.09855821
v -0.04659482 0.97227169 0.08657079
v -0.05425503 0.97237031 0.03749660
v -0.05430083 0.97222516 0.07117238
v -0.04661603 0.97214821 0.02228730
v -0.03458138 0.97240243 0.09858199
v -0.03450801 0.97217678 0.01031667
v -0.01928578 0.97226090 0.10633813
v -0.01929991 0.97235484 0.00255465
v -0.00232985 0.97212916 0.10885211
v -0.00229573 0.97237114 -0.00016337
v 0.01463295 0.97210781 0.10634872
v 0.01449222 0.97232328 0.00256442
v 0.02981754 0.97222485 0.01022885
v 0.04174355 0.97238781 0.02226103
v 0.04961092 0.97221744 0.03758545
v 0.04951583 0.97224944 0.03762725
v 0.04178876 0.97219892 0.02220609
v 0.02976301 0.97207649 0.01035351
v 0.01431620 0.97219234 0.00264635
v 0.01462649 0.97226253 0.10631496
v -0.00229525 0.97226826 -0.00011050
v -0.00244457 0.97232115 0.10899244
v -0.01926471 0.97220149 0.00252071
v -0.01934652 0.97229804 0.10647936
v -0.03444458 0.97232262 0.01030908
v -0.03441545 0.97223704 0.09860831
v -0.04648709 0.97219772 0.02231205
v -0.04638939 0.97222485 0.08663335
v -0.05436612 0.97209270 0.03747718
v -0.05423118 0.97232829 0.07139373
v -0.05698500 0.97225998 0.05440159
v -0.11582433 0.95527231 0.01750550
v -0.12161674 0.95521719 0.05445611
v -0.05694060 0.97233324 0.05428287
v -0.11579804 0.95518560 0.01753329
v -0.12169365 0.95512725 0.05451572
v -0.09892729 0.95504363 -0.01566463
v -0.09896840 0.95515836 -0.01580335
v -0.07249558 0.95529097 -0.04214809
v -0.07260331 0.95527959 -0.04204999
v -0.03925067 0.95514834 -0.05892894
v -0.03929850 0.95522552 -0.05915400
v -0.00244369 0.95521185 -0.06493757
v -0.00229821 0.95521498 -0.06469937
v 0.03440220 0.95516574 -0.05894611
v 0.03456201 0.95515098 -0.05892517
v 0.06767685 0.95526371 -0.04192525
v 0.06780547 0.95521643 -0.04200048
v 0.09404383 0.95519650 -0.01569219
v 0.09401509 0.95514888 -0.01569815
v 0.11100576 0.95529848 0.01766808
v 0.11088493 0.95521642 0.01760838
v 0.03444492 0.95513817 0.16769901
v 0.03452594 0.95535885 0.16777554
v -0.00239284 0.95525350 0.17356911
v -0.00232873 0.95522823 0.17364123
v -0.03933466 0.95509557 0.16777604
v -0.03936542 0.95503821 0.16782499
v -0.07246630 0.95526264 0.15096555
v -0.07249460 0.95513993 0.15075624
v -0.09873687 0.95530330 0.12450242
v -0.09880572 0.95521678 0.12459285
v -0.11573394 0.95522750 0.09126768
v -0.11585899 0.95523945 0.09119736
vn 0.9510524184399937 0 0.30902960599178747
vn 0.8089976216053456 0 0.5878119156982904
vn -0.9510524184399937 0 -0.30902960599178747
vn -0.8089976216053456 0 -0.5878119156982904
vn 0 -1 0
vn 0 1 0
vn 1 0 6.651082999999985e-8
vn -1 0 -6.651082999999985e-8
vn 0.20605930203428544 0.9670181095467218 0.1497182014780677
vn 0.13753230481617407 0.9894884346503939 0.04469343156509684
vn 0.11407179951323797 0.9900090957754778 0.08288313964632503
vn 0.2422345928747867 0.9670195715555874 0.07871181768473019
vn -0.2422345928747867 -0.9670195715555874 -0.07871181768473019
vn -0.20605930203428544 -0.9670181095467218 -0.1497182014780677
vn -0.13753230481617407 -0.9894884346503939 -0.04469343156509684
vn -0.11407179951323797 -0.9900090957754778 -0.08288313964632503
vn 0.5878115766935742 0 0.8089978679236519
vn -0.5878115766935742 0 -0.8089978679236519
vn -0.951052359659308 0 -0.30902978689191474
vn -1 0 6.651100999999986e-8
vn 0.951052359659308 0 0.30902978689191474
vn 1 0 -6.651100999999986e-8
vn -0.8089977037114672 0 -0.5878118026967248
vn 0.8089977037114672 0 0.5878118026967248
vn -0.5878119156982904 0 -0.8089976216053456
vn 0.5878119156982904 0 0.8089976216053456
vn -0.3090299971823743 0 -0.951052291328643
vn 0.3090299971823743 0 0.951052291328643
vn 0 0 -1
vn 0 0 1
vn 0.3090300876324153 0 -0.9510522619382712
vn -0.3090300876324153 0 0.9510522619382712
vn 0.5878118681444477 0 -0.8089976561576271
vn -0.5878118681444477 0 0.8089976561576271
vn 0.8089976216053456 0 -0.5878119156982904
vn -0.8089976216053456 0 0.5878119156982904
vn 0.9510524184399937 0 -0.30902960599178747
vn -0.9510524184399937 0 0.30902960599178747
vn 0.3090296964418553 0 0.9510523890496542
vn -0.3090296964418553 0 -0.9510523890496542
vn -0.3090296964418553 0 0.9510523890496542
vn 0.3090296964418553 0 -0.9510523890496542
vn -0.5878116242474063 0 0.808997833371404
vn 0.5878116242474063 0 -0.808997833371404
vn -0.8089977037114672 0 0.5878118026967248
vn 0.8089977037114672 0 -0.5878118026967248
vn -0.9510523501093662 0 0.30902981628226694
vn 0.9510523501093662 0 -0.30902981628226694
vn 0.2547023966957444 0.9670194874548509 3.267596979081593e-8
vn 0.25470239669574446 0.9670194874548511 2.426383989994654e-8
vn -0.25470239669574446 -0.9670194874548511 -2.426383989994654e-8
vn -0.2547023966957444 -0.9670194874548509 -3.267596979081593e-8
vn 0.149718198392984 0.9670180896204099 0.20605939778824006
vn 0.08288322808259381 0.9900090770973021 0.11407189736108078
vn -0.149718198392984 -0.9670180896204099 -0.20605939778824006
vn -0.08288322808259381 -0.9900090770973021 -0.11407189736108078
vn -0.11407179960778425 0.9900090965960285 0.08288312971502122
vn -0.13753230450883436 0.989488432439211 -0.04469348146522285
vn -0.13753220652327844 0.9894884469323428 0.04469346211985204
vn -0.11407179932414538 0.9900090941343765 -0.08288315950893216
vn -0.08288321815129032 0.9900090779178535 0.11407189745562725
vn -0.0828831803170028 0.9900091037864818 -0.11407170043628911
vn -0.04357465093543288 0.9900107212529204 0.1340896028785505
vn -0.043574720802521553 0.990010718233162 -0.1340896024695462
vn 0 0.9900073027163324 0.14101610038691315
vn 0 0.9900073166770248 -0.1410160023754644
vn 0.043574660916445594 0.9900107208215266 0.13408960282012145
vn 0.043574740764546774 0.9900107173703729 -0.13408960235268785
vn 0.08288319024830659 0.9900091029659306 -0.11407170034174285
vn 0.11407179913505275 0.9900090924932748 -0.08288317937153965
vn 0.13753230469323824 0.9894884337659212 -0.044693451525147025
vn -0.13753230469323824 -0.9894884337659212 0.044693451525147025
vn -0.11407179913505275 -0.9900090924932748 0.08288317937153965
vn -0.08288319024830659 -0.9900091029659306 0.11407170034174285
vn -0.043574740764546774 -0.9900107173703729 0.13408960235268785
vn -0.043574660916445594 -0.9900107208215266 -0.13408960282012145
vn 0 -0.9900073166770248 0.1410160023754644
vn 0 -0.9900073027163324 -0.14101610038691315
vn 0.043574720802521553 -0.990010718233162 0.1340896024695462
vn 0.04357465093543288 -0.9900107212529204 -0.1340896028785505
vn 0.0828831803170028 -0.9900091037864818 0.11407170043628911
vn 0.08288321815129032 -0.9900090779178535 -0.11407189745562725
vn 0.11407179932414538 -0.9900090941343765 0.08288315950893216
vn 0.11407179960778425 -0.9900090965960285 -0.08288312971502122
vn 0.13753230450883436 -0.989488432439211 0.04469348146522285
vn 0.13753220652327844 -0.9894884469323428 -0.04469346211985204
vn -0.2547023966957444 0.9670194874548509 3.267605979081476e-8
vn -0.24223459230278488 0.9670195692721111 -0.07871184749886229
vn -0.25470239669574446 0.9670194874548511 2.4263909899945632e-8
vn 0.2547023966957444 -0.9670194874548509 -3.267605979081476e-8
vn 0.24223459230278488 -0.9670195692721111 0.07871184749886229
vn 0.25470239669574446 -0.9670194874548511 -2.4263909899945632e-8
vn -0.20605930203428544 0.9670181095467218 -0.14971820147806725
vn 0.20605930203428544 -0.9670181095467218 0.14971820147806725
vn -0.14971820147806747 0.9670181095467218 -0.2060593020342852
vn 0.14971820147806747 -0.9670181095467218 0.2060593020342852
vn -0.07871186928162408 0.9670195911743475 -0.24223449778920952
vn 0.07871186928162408 -0.9670195911743475 0.24223449778920952
vn 0 0.9670194874548514 -0.2547023966957443
vn 0 -0.9670194874548514 0.2547023966957443
vn 0.07871188915771267 0.9670195896520289 -0.24223449740787487
vn -0.07871188915771267 -0.9670195896520289 0.24223449740787487
vn 0.14971820147806747 0.9670181095467218 -0.2060593020342852
vn -0.14971820147806747 -0.9670181095467218 0.2060593020342852
vn 0.20605930203428544 0.9670181095467218 -0.14971820147806725
vn -0.20605930203428544 -0.9670181095467218 0.14971820147806725
vn 0.24223459306545397 0.9670195723167462 -0.07871180774668557
vn -0.24223459306545397 -0.9670195723167462 0.07871180774668557
vn 0.07871184326573376 0.9670195401213874 0.24223471005025485
vn -0.07871184326573376 -0.9670195401213874 -0.24223471005025485
vn 0 0.9670194628246297 0.2547024902084089
vn 0 -0.9670194628246297 -0.2547024902084089
vn -0.07871182338964396 0.967019541643705 0.24223471043158962
vn 0.07871182338964396 -0.967019541643705 -0.24223471043158962
vn -0.149718198392984 0.9670180896204099 0.20605939778824006
vn 0.149718198392984 -0.9670180896204099 -0.20605939778824006
vn -0.2060593051193673 0.9670181240247387 0.14971810371961852
vn 0.2060593051193673 -0.9670181240247387 -0.14971810371961852
vn -0.24223459211211754 0.967019568510952 0.07871185743690683
vn 0.24223459211211754 -0.967019568510952 -0.07871185743690683
usemtl material_0_0
f 1//1 2//2 3//2
f 2//2 1//1 4//1
f 5//3 6//3 7//4
f 8//4 7//4 6//3
f 9//5 10//5 11//5
f 10//5 9//5 12//5
f 10//5 12//5 13//5
f 13//5 12//5 14//5
f 13//5 14//5 15//5
f 15//5 14//5 16//5
f 15//5 16//5 17//5
f 17//5 16//5 18//5
f 17//5 18//5 19//5
f 19//5 18//5 20//5
f 19//5 20//5 21//5
f 21//5 20//5 22//5
f 21//5 22//5 23//5
f 23//5 22//5 24//5
f 23//5 24//5 25//5
f 25//5 24//5 26//5
f 25//5 26//5 27//5
f 27//5 26//5 28//5
f 29//6 30//6 31//6
f 31//6 30//6 32//6
f 30//6 33//6 32//6
f 32//6 33//6 34//6
f 33//6 35//6 34//6
f 34//6 35//6 36//6
f 35//6 37//6 36//6
f 36//6 37//6 38//6
f 37//6 39//6 38//6
f 38//6 39//6 40//6
f 39//6 41//6 40//6
f 40//6 41//6 42//6
f 41//6 43//6 42//6
f 42//6 43//6 44//6
f 43//6 45//6 44//6
f 44//6 45//6 46//6
f 45//6 47//6 46//6
f 48//6 46//6 47//6
f 49//7 4//1 1//1
f 4//1 49//7 50//7
f 51//8 52//8 5//3
f 6//3 5//3 52//8
f 53//9 54//10 55//11
f 54//10 53//9 56//12
f 57//13 58//14 59//15
f 60//16 59//15 58//14
f 2//2 61//17 3//2
f 61//17 2//2 62//17
f 63//18 7//4 64//18
f 8//4 64//18 7//4
f 65//19 66//20 67//20
f 66//20 65//19 68//19
f 69//21 70//21 71//22
f 72//22 71//22 70//21
f 73//23 68//19 65//19
f 68//19 73//23 74//23
f 75//24 76//24 69//21
f 70//21 69//21 76//24
f 73//23 77//25 74//23
f 77//25 73//23 78//25
f 79//26 76//24 80//26
f 75//24 80//26 76//24
f 78//25 81//27 77//25
f 81//27 78//25 82//27
f 83//28 79//26 84//28
f 80//26 84//28 79//26
f 82//27 85//29 81//27
f 85//29 82//27 86//29
f 87//30 83//28 88//30
f 84//28 88//30 83//28
f 86//29 89//31 85//29
f 89//31 86//29 90//31
f 91//32 87//30 92//32
f 88//30 92//32 87//30
f 90//31 93//33 89//31
f 93//33 90//31 94//33
f 95//34 91//32 96//34
f 92//32 96//34 91//32
f 94//33 97//35 93//33
f 97//35 94//33 98//35
f 99//36 95//34 100//36
f 96//34 100//36 95//34
f 97//35 101//37 102//37
f 101//37 97//35 98//35
f 99//36 100//36 103//38
f 104//38 103//38 100//36
f 102//37 50//7 49//7
f 50//7 102//37 101//37
f 103//38 104//38 51//8
f 52//8 51//8 104//38
f 62//17 105//39 61//17
f 105//39 62//17 106//39
f 107//40 63//18 108//40
f 64//18 108//40 63//18
f 106//39 109//30 105//39
f 109//30 106//39 110//30
f 111//29 107//40 112//29
f 108//40 112//29 107//40
f 110//30 113//41 109//30
f 113//41 110//30 114//41
f 115//42 111//29 116//42
f 112//29 116//42 111//29
f 114//41 117//43 113//41
f 117//43 114//41 118//43
f 119//44 115//42 120//44
f 116//42 120//44 115//42
f 118//43 121//45 117//43
f 121//45 118//43 122//45
f 123//46 119//44 124//46
f 120//44 124//46 119//44
f 125//47 121//45 122//45
f 121//45 125//47 126//47
f 127//48 128//48 124//46
f 123//46 124//46 128//48
f 67//20 126//47 125//47
f 126//47 67//20 66//20
f 71//22 72//22 127//48
f 128//48 127//48 72//22
f 56//12 129//49 54//10
f 129//49 56//12 130//50
f 131//51 57//13 132//52
f 59//15 132//52 57//13
f 133//53 55//11 134//54
f 55//11 133//53 53//9
f 58//14 135//55 60//16
f 136//56 60//16 135//55
f 137//57 138//58 139//59
f 138//58 137//57 140//60
f 140//60 137//57 141//61
f 140//60 141//61 142//62
f 142//62 141//61 143//63
f 142//62 143//63 144//64
f 144//64 143//63 145//65
f 144//64 145//65 146//66
f 146//66 145//65 147//67
f 146//66 147//67 148//68
f 148//68 147//67 134//54
f 148//68 134//54 149//69
f 149//69 134//54 55//11
f 149//69 55//11 150//70
f 150//70 55//11 54//10
f 150//70 54//10 151//71
f 152//72 59//15 153//73
f 59//15 60//16 153//73
f 153//73 60//16 154//74
f 60//16 136//56 154//74
f 154//74 136//56 155//75
f 136//56 156//76 155//75
f 155//75 156//76 157//77
f 156//76 158//78 157//77
f 157//77 158//78 159//79
f 158//78 160//80 159//79
f 159//79 160//80 161//81
f 160//80 162//82 161//81
f 161//81 162//82 163//83
f 162//82 164//84 163//83
f 163//83 164//84 165//85
f 166//86 165//85 164//84
f 167//87 168//88 169//89
f 168//88 167//87 138//58
f 165//85 170//90 171//91
f 172//92 171//91 170//90
f 138//58 173//93 168//88
f 173//93 138//58 140//60
f 163//83 165//85 174//94
f 171//91 174//94 165//85
f 140//60 175//95 173//93
f 175//95 140//60 142//62
f 161//81 163//83 176//96
f 174//94 176//96 163//83
f 142//62 177//97 175//95
f 177//97 142//62 144//64
f 159//79 161//81 178//98
f 176//96 178//98 161//81
f 144//64 179//99 177//97
f 179//99 144//64 146//66
f 157//77 159//79 180//100
f 178//98 180//100 159//79
f 148//68 179//99 146//66
f 179//99 148//68 181//101
f 182//102 155//75 180//100
f 157//77 180//100 155//75
f 149//69 181//101 148//68
f 181//101 149//69 183//103
f 184//104 154//74 182//102
f 155//75 182//102 154//74
f 150//70 183//103 149//69
f 183//103 150//70 185//105
f 186//106 153//73 184//104
f 154//74 184//104 153//73
f 151//71 185//105 150//70
f 185//105 151//71 187//107
f 188//108 152//72 186//106
f 153//73 186//106 152//72
f 129//49 187//107 151//71
f 187//107 129//49 130//50
f 131//51 132//52 188//108
f 152//72 188//108 132//52
f 189//109 134//54 147//67
f 134//54 189//109 133//53
f 135//55 190//110 136//56
f 156//76 136//56 190//110
f 189//109 145//65 191//111
f 145//65 189//109 147//67
f 156//76 190//110 158//78
f 192//112 158//78 190//110
f 191//111 143//63 193//113
f 143//63 191//111 145//65
f 158//78 192//112 160//80
f 194//114 160//80 192//112
f 193//113 141//61 195//115
f 141//61 193//113 143//63
f 160//80 194//114 162//82
f 196//116 162//82 194//114
f 195//115 137//57 197//117
f 137//57 195//115 141//61
f 162//82 196//116 164//84
f 198//118 164//84 196//116
f 197//117 139//59 199//119
f 139//59 197//117 137//57
f 164//84 198//118 166//86
f 200//120 166//86 198//118
f 199//119 167//87 169//89
f 167//87 199//119 139//59
f 166//86 200//120 170//90
f 172//92 170//90 200//120
