# SSTK version 0.8.0
# 1
mtllib original_1.mtl
o group_0/ID6#ID6
v -0.24941415 -0.19483054 -0.46938205
v -0.24942243 -0.50136001 -0.12502814
v -0.24929081 -0.19474289 -0.12523534
v -0.24937816 -0.50117754 -0.46952686
v -0.24935076 -0.50118233 -0.46930759
v -0.24945730 -0.19460907 -0.46958015
v -0.24925903 -0.50123774 -0.12531935
v -0.24952472 -0.19469636 -0.12513865
v -0.24204642 -0.19469833 -0.13677075
v -0.24927935 -0.19470555 -0.46944106
v -0.24934042 -0.19475067 -0.12513618
v -0.19360882 -0.19474750 -0.18546261
v 0.24457401 -0.19464687 -0.46943234
v -0.13545125 -0.19465277 -0.22183870
v -0.07056819 -0.19470646 -0.24441390
v -0.00244519 -0.19482111 -0.25226634
v 0.06570044 -0.19462439 -0.24455389
v 0.13053738 -0.19464506 -0.22193197
v 0.18875690 -0.19451059 -0.18522396
v 0.23734533 -0.19465260 -0.13689410
v 0.24451123 -0.19467698 -0.12518180
v 0.24465104 -0.19466426 -0.12514564
v 0.23742615 -0.19476082 -0.13678191
v 0.24464323 -0.19461912 -0.46942217
v 0.18875206 -0.19484497 -0.18531637
v 0.13065785 -0.19465855 -0.22174765
v 0.06579079 -0.19471488 -0.24469706
v -0.00238951 -0.19476537 -0.25223091
v -0.07067676 -0.19464528 -0.24452449
v -0.13549354 -0.19456026 -0.22172897
v -0.19357989 -0.19455554 -0.18517167
v -0.24928770 -0.19467761 -0.46949266
v -0.24212794 -0.19467289 -0.13694119
v -0.24925151 -0.19471967 -0.12521570
v -0.24938000 -0.19474473 -0.46937540
v 0.24461439 -0.50122935 -0.46945365
v -0.24930048 -0.50135110 -0.46926897
v 0.24459888 -0.19484772 -0.46945879
v 0.24465355 -0.19457812 -0.46948662
v -0.24945382 -0.19457755 -0.46929266
v 0.24458063 -0.50133334 -0.46945205
v -0.24936668 -0.50132067 -0.46936794
v -0.24932864 -0.50135056 -0.46953605
v -0.24223157 -0.50124304 -0.13685268
v -0.24948940 -0.50139110 -0.12503352
v -0.19353419 -0.50133106 -0.18524680
v 0.24470413 -0.50141397 -0.46934558
v -0.13559327 -0.50132575 -0.22179515
v -0.07071556 -0.50126841 -0.24446386
v -0.00241127 -0.50117146 -0.25235656
v 0.06578065 -0.50145054 -0.24463598
v 0.13063654 -0.50143214 -0.22189289
v 0.18879003 -0.50142735 -0.18530948
v 0.23725825 -0.50128910 -0.13670632
v 0.24451933 -0.50133758 -0.12538993
v 0.24460851 -0.50129300 -0.12515839
v 0.24470026 -0.50132578 -0.46934955
v 0.23727506 -0.50144683 -0.13681823
v 0.18888781 -0.50126610 -0.18545131
v 0.13073557 -0.50121833 -0.22186359
v 0.06592376 -0.50137851 -0.24452319
v -0.00234521 -0.50132560 -0.25228959
v -0.07055439 -0.50118037 -0.24444703
v -0.13545642 -0.50144962 -0.22184076
v -0.19356600 -0.50132202 -0.18526773
v -0.24928550 -0.50132462 -0.46950630
v -0.24221117 -0.50137226 -0.13677040
v -0.24939808 -0.50138390 -0.12510404
v -0.20230041 -0.18967847 -0.10502814
v -0.19353736 -0.19459223 -0.18517749
v -0.24212566 -0.19480467 -0.13690748
v -0.16170379 -0.18953101 -0.14541158
v -0.16170335 -0.18947447 -0.14544905
v -0.20206722 -0.18960183 -0.10497662
v -0.19364067 -0.19453208 -0.18535269
v -0.24211801 -0.19454686 -0.13685514
v -0.19351577 -0.19451294 -0.18538342
v -0.24195772 -0.50119138 -0.13666469
v -0.24220369 -0.19477088 -0.13661298
v -0.19349123 -0.50137853 -0.18534951
v -0.19366467 -0.50127748 -0.18536125
v -0.19351433 -0.19469525 -0.18530997
v -0.24227314 -0.50127317 -0.13660731
v -0.24218364 -0.19457067 -0.13676135
v -0.13556005 -0.19472786 -0.22184822
v -0.11325241 -0.18952299 -0.17567389
v -0.11312514 -0.18961386 -0.17570339
v -0.13539906 -0.19477139 -0.22185533
v -0.13557362 -0.50133348 -0.22177499
v -0.13543851 -0.19463996 -0.22187820
v -0.13531174 -0.19455925 -0.22193097
v -0.13555184 -0.50129052 -0.22180965
v -0.07063557 -0.19460808 -0.24449027
v -0.05922532 -0.18949581 -0.19483197
v -0.05928577 -0.18950698 -0.19470562
v -0.07051089 -0.19469142 -0.24455269
v -0.07072904 -0.50131677 -0.24438583
v -0.07072454 -0.19476478 -0.24468823
v -0.07055081 -0.19465141 -0.24442862
v -0.07059809 -0.50121367 -0.24444446
v -0.00236421 -0.19467342 -0.25211692
v -0.00227487 -0.18971047 -0.20108269
v -0.00238522 -0.18963888 -0.20111650
v -0.00241740 -0.19481571 -0.25205676
v -0.00240966 -0.50138038 -0.25234448
v -0.00231218 -0.19469132 -0.25237375
v -0.00241745 -0.19471953 -0.25221666
v -0.00246478 -0.50127040 -0.25221060
v 0.05450671 -0.18951059 -0.19462276
v 0.06585264 -0.19468515 -0.24464597
v 0.06570211 -0.19460828 -0.24445074
v 0.05431768 -0.18953381 -0.19467937
v 0.06587613 -0.50139026 -0.24460699
v 0.06589168 -0.19480476 -0.24452066
v 0.06579021 -0.19475021 -0.24462088
v 0.06590237 -0.50133137 -0.24454909
v 0.10829164 -0.18949145 -0.17579001
v 0.13070586 -0.19482027 -0.22175025
v 0.13071952 -0.19474055 -0.22179829
v 0.10848935 -0.18964077 -0.17580577
v 0.13073662 -0.50136767 -0.22175046
v 0.13059971 -0.19460193 -0.22181666
v 0.13076001 -0.19478269 -0.22185835
v 0.13074099 -0.50126041 -0.22177296
v 0.15677519 -0.18967063 -0.14538382
v 0.18888840 -0.19459103 -0.18537270
v 0.18876325 -0.19468686 -0.18526622
v 0.15696021 -0.18969970 -0.14534990
v 0.18881228 -0.50127716 -0.18538946
v 0.18884767 -0.19478055 -0.18531047
v 0.18892333 -0.19463099 -0.18535957
v 0.18883790 -0.50126382 -0.18519628
v 0.19739108 -0.18965912 -0.10496734
v 0.23733859 -0.19479332 -0.13680449
v 0.23719426 -0.19486435 -0.13666927
v 0.19737427 -0.18962664 -0.10500153
v 0.23730307 -0.50145907 -0.13691553
v 0.23730219 -0.19473357 -0.13679817
v 0.23720767 -0.19464448 -0.13679035
v 0.23734147 -0.50146512 -0.13686428
v 0.22787724 -0.18971841 -0.05645966
v 0.24470644 -0.19477683 -0.12516466
v 0.27379434 -0.19483794 -0.07881080
v 0.27387063 -0.19476451 -0.07867448
v 0.22774478 -0.18965220 -0.05628683
v 0.24468293 -0.19471966 -0.12536162
v 0.24459150 -0.50137843 -0.12525196
v 0.27401693 -0.19471862 -0.07846662
v 0.27396725 -0.50139066 -0.07861160
v 0.24473651 -0.19466202 -0.12524131
v 0.24459189 -0.19471286 -0.12508441
v 0.24455843 -0.50132016 -0.12533661
v 0.27397298 -0.19452989 -0.07870431
v 0.27400807 -0.50139177 -0.07872410
v 0.24456928 -0.50126666 -0.46939271
v 0.24453161 -0.19455838 -0.12520118
v 0.24463627 -0.50134320 -0.12520759
v 0.24454970 -0.19475185 -0.46943179
v 0.24467456 -0.19476185 -0.46937774
v 0.24462597 -0.50132027 -0.46945015
v 0.24461298 -0.19465783 -0.12525674
v 0.24467023 -0.50141524 -0.12519163
v -0.23275391 -0.18962123 -0.05641984
v -0.24929053 -0.19468467 -0.12533865
v -0.27868320 -0.19455905 -0.07859890
v -0.23264010 -0.18959599 -0.05649198
v -0.24948553 -0.19451200 -0.12521078
v -0.27855953 -0.19487559 -0.07876560
v -0.24928807 -0.19469637 -0.12528821
v -0.27861564 -0.50132570 -0.07878594
v -0.27866704 -0.19479175 -0.07865805
v -0.24937017 -0.50133087 -0.12520319
v -0.24955876 -0.50129964 -0.12513866
v -0.24941329 -0.19475166 -0.12514724
v -0.27867265 -0.50115008 -0.07863781
v -0.27856373 -0.19478858 -0.07860380
v -0.30124000 -0.50123238 -0.01387851
v -0.30150490 -0.50125339 0.12261994
v -0.30904876 -0.50130462 0.05438390
v -0.27857334 -0.50131642 -0.07864724
v -0.27867022 -0.50138843 0.18750623
v -0.24199020 -0.50135051 0.24572411
v -0.22739621 -0.50133238 0.05453064
v -0.22177115 -0.50120920 0.00442471
v -0.20499337 -0.50131527 -0.04324818
v -0.17825558 -0.50136101 -0.08588772
v -0.14264977 -0.50148501 -0.12138750
v -0.10001616 -0.50137105 -0.14834696
v -0.05244347 -0.50119708 -0.16491511
v -0.00244060 -0.50135434 -0.17051742
v 0.04760371 -0.50136561 -0.16485610
v 0.09523371 -0.50118247 -0.14814650
v 0.13788756 -0.50123299 -0.12150640
v 0.17350961 -0.50137348 -0.08601441
v 0.20031459 -0.50128244 -0.04324128
v 0.21698151 -0.50121491 0.00437319
v 0.22263448 -0.50128279 0.05460093
v -0.22175454 -0.50118509 0.10429066
v -0.19365216 -0.50127882 0.29410353
v -0.20522198 -0.50135210 0.15205905
v -0.17820514 -0.50114264 0.19467550
v -0.13551736 -0.50121226 0.33058982
v -0.14262606 -0.50122215 0.23038526
v -0.10012688 -0.50130796 0.25699669
v -0.07071764 -0.50126424 0.35331163
v -0.05236618 -0.50149173 0.27392576
v -0.00241121 -0.50141452 0.36119729
v -0.00227616 -0.50136381 0.27954819
v 0.04760796 -0.50112172 0.27382511
v 0.06602456 -0.50133372 0.35340684
v 0.09526874 -0.50134257 0.25708388
v 0.13072126 -0.50130379 0.33078419
v 0.13780580 -0.50127703 0.23026312
v 0.18876269 -0.50123472 0.29411438
v 0.17352788 -0.50122428 0.19466153
v 0.20030050 -0.50135249 0.15196819
v 0.23722900 -0.50129705 0.24556802
v 0.21699114 -0.50134623 0.10457890
v 0.27395829 -0.50122986 0.18754855
v 0.27390845 -0.50140894 -0.07862494
v 0.29647539 -0.50126627 -0.01384050
v 0.29657933 -0.50139672 0.12271702
v 0.30415584 -0.50130682 0.05458034
v 0.30413576 -0.50129066 0.05448307
v 0.29657442 -0.50140009 -0.01394687
v 0.29658423 -0.50123461 0.12267836
v 0.27392067 -0.50141873 0.18740094
v 0.27399792 -0.50147809 -0.07855581
v 0.23733938 -0.50141074 0.24563855
v 0.22248644 -0.50126401 0.05454876
v 0.21689986 -0.50126264 0.10448086
v 0.20019622 -0.50117550 0.15202819
v 0.18888375 -0.50142099 0.29428509
v 0.17346214 -0.50136405 0.19479993
v 0.13785443 -0.50127462 0.23023746
v 0.13060625 -0.50122441 0.33064918
v 0.09527005 -0.50144356 0.25706430
v 0.06589549 -0.50124162 0.35322768
v 0.04772833 -0.50143079 0.27357793
v -0.00229075 -0.50138016 0.36102522
v -0.00234421 -0.50134249 0.27943064
v -0.05248898 -0.50122511 0.27366514
v -0.07057996 -0.50130536 0.35342955
v -0.09995994 -0.50126730 0.25698633
v -0.13537897 -0.50129891 0.33074177
v -0.14257587 -0.50137405 0.23031161
v -0.17836777 -0.50146377 0.19464157
v -0.19355160 -0.50125800 0.29410249
v -0.20509014 -0.50142696 0.15200280
v -0.22169736 -0.50148304 0.10449352
v -0.22734804 -0.50118830 0.05450219
v -0.24213116 -0.50137186 0.24549677
v 0.21700027 -0.50135202 0.00436274
v 0.20034888 -0.50144129 -0.04322527
v 0.17354583 -0.50125441 -0.08594801
v 0.13784042 -0.50130027 -0.12154412
v 0.09530206 -0.50141529 -0.14826934
v 0.04773930 -0.50123674 -0.16495088
v -0.00252136 -0.50128122 -0.17052759
v -0.05249038 -0.50127903 -0.16501543
v -0.10003032 -0.50127180 -0.14826037
v -0.14274365 -0.50125271 -0.12138070
v -0.17828743 -0.50140311 -0.08588135
v -0.20505222 -0.50131700 -0.04324536
v -0.22173365 -0.50118433 0.00435614
v -0.27870893 -0.50131018 0.18746500
v -0.27874148 -0.50139054 -0.07849891
v -0.30126641 -0.50142107 0.12268403
v -0.30116871 -0.50142592 -0.01400371
v -0.30893371 -0.50125811 0.05432157
v -0.16182383 -0.18966458 -0.14537411
v -0.17526457 -0.49699587 -0.08336559
v -0.14029835 -0.49724225 -0.11859581
v -0.20229071 -0.18956806 -0.10490546
v -0.20211471 -0.18954454 -0.10490858
v -0.16167696 -0.18959121 -0.14523742
v -0.17515552 -0.49691581 -0.08336600
v -0.14039150 -0.49712157 -0.11859368
v -0.09825727 -0.49699591 -0.14506313
v -0.11340123 -0.18963643 -0.17580415
v -0.11326333 -0.18962382 -0.17588421
v -0.09828609 -0.49701962 -0.14492243
v -0.05941051 -0.18968276 -0.19460949
v -0.05171370 -0.49717608 -0.16120363
v -0.05909762 -0.18959084 -0.19464998
v -0.05175861 -0.49703427 -0.16121354
v -0.00251904 -0.18967947 -0.20105681
v -0.00233809 -0.49698635 -0.16677253
v -0.00240508 -0.18953070 -0.20106779
v -0.00239155 -0.49714046 -0.16680627
v 0.05435771 -0.18953489 -0.19461460
v 0.04680714 -0.49725632 -0.16137231
v 0.05448051 -0.18956505 -0.19484389
v 0.04694665 -0.49691852 -0.16112868
v 0.09364702 -0.49709851 -0.14490995
v 0.10847022 -0.18968109 -0.17585760
v 0.10862905 -0.18952593 -0.17567343
v 0.09356172 -0.49700983 -0.14491422
v 0.15699083 -0.18972972 -0.14544152
v 0.13549590 -0.49708984 -0.11854169
v 0.15695206 -0.18960534 -0.14528885
v 0.13558434 -0.49710710 -0.11852103
v 0.19738082 -0.18954196 -0.10485047
v 0.17050145 -0.49714413 -0.08354843
v 0.19733499 -0.18956926 -0.10493565
v 0.17070502 -0.49709064 -0.08351751
v 0.22769745 -0.18962873 -0.05640808
v 0.19689878 -0.49709603 -0.04158105
v 0.22782648 -0.18962596 -0.05658616
v 0.19688181 -0.49711718 -0.04164781
v 0.24668200 -0.18965065 -0.00261038
v 0.29655208 -0.19472632 -0.01389436
v 0.29645352 -0.19479732 -0.01383137
v 0.24677391 -0.18945194 -0.00241706
v 0.29663310 -0.19484551 -0.01394935
v 0.29645614 -0.50125887 -0.01386927
v 0.29648495 -0.19478993 -0.01387695
v 0.29654822 -0.50139930 -0.01392669
v -0.25152412 -0.18962157 -0.00237777
v -0.30145438 -0.19471546 -0.01388490
v -0.25136047 -0.18966492 -0.00257590
v -0.30132938 -0.19458429 -0.01368451
v -0.23255893 -0.18956326 -0.05644264
v -0.20164746 -0.49706834 -0.04159030
v -0.23261634 -0.18954794 -0.05645987
v -0.20178252 -0.49719545 -0.04167115
v -0.30119728 -0.50131622 -0.01384050
v -0.30116856 -0.19469772 -0.01383365
v -0.30126464 -0.50117853 -0.01388575
v -0.30116626 -0.19473053 -0.01385160
v 0.27391401 -0.50131603 0.18746269
v 0.23716746 -0.19480745 0.24557279
v 0.23732086 -0.50118284 0.24556851
v 0.27382909 -0.19474685 0.18759181
v 0.27382159 -0.19476047 0.18744998
v 0.27382361 -0.50131567 0.18732752
v 0.23740544 -0.19461354 0.24559719
v 0.23749176 -0.50122512 0.24541096
v 0.18871918 -0.50148697 0.29419997
v 0.18876853 -0.19481239 0.29397449
v 0.18888624 -0.19460274 0.29397514
v 0.18887712 -0.50129084 0.29419949
v 0.13053631 -0.50134503 0.33064688
v 0.13064457 -0.19477420 0.33054945
v 0.13062839 -0.19478456 0.33068840
v 0.13075091 -0.50137160 0.33084520
v 0.06592425 -0.50132928 0.35323027
v 0.06579271 -0.19469757 0.35349303
v 0.06597607 -0.19478300 0.35321017
v 0.06595487 -0.50130504 0.35334226
v -0.00234855 -0.50142284 0.36095723
v -0.00233807 -0.19470728 0.36105658
v -0.00248018 -0.19469596 0.36110045
v -0.00241271 -0.50135717 0.36106610
v -0.07060435 -0.50124135 0.35317780
v -0.07058196 -0.19463353 0.35331321
v -0.07051516 -0.19476105 0.35348122
v -0.07055634 -0.50144002 0.35344087
v -0.13539150 -0.50127210 0.33077063
v -0.13557029 -0.19470075 0.33056489
v -0.13552874 -0.19460915 0.33057801
v -0.13545399 -0.50130047 0.33059187
v -0.19356579 -0.50120008 0.29411587
v -0.19359532 -0.19464716 0.29414041
v -0.19358882 -0.19463401 0.29405031
v -0.19358331 -0.50124243 0.29408203
v -0.24216882 -0.50127153 0.24549609
v -0.24214597 -0.19460771 0.24547996
v -0.24201341 -0.19449320 0.24548322
v -0.24218934 -0.50135143 0.24540998
v -0.27874903 -0.19486676 0.18725766
v -0.27867387 -0.50131526 0.18743718
v -0.27856419 -0.50116292 0.18753778
v -0.27867809 -0.19468644 0.18755651
v -0.30136306 -0.19462467 0.12260066
v -0.30131545 -0.50136516 0.12259966
v -0.30145249 -0.50129876 0.12267447
v -0.30132373 -0.19473221 0.12263021
v -0.30888965 -0.19470482 0.05437092
v -0.30898383 -0.50141426 0.05443528
v -0.30894837 -0.50144727 0.05440605
v -0.30915499 -0.19457647 0.05429394
v 0.30413640 -0.19473699 0.05433356
v 0.30437136 -0.50126095 0.05430343
v 0.30420720 -0.19470517 0.05430887
v 0.30419480 -0.50125044 0.05441317
v 0.29642372 -0.19460946 0.12270422
v 0.29656736 -0.50147630 0.12269337
v 0.29648195 -0.19469100 0.12257900
v 0.29660273 -0.50133147 0.12261808
v 0.24672769 -0.18963587 -0.00252583
v 0.21325572 -0.49697389 0.00515243
v 0.24663791 -0.18968176 -0.00242894
v 0.21313508 -0.49721810 0.00521553
v 0.25319564 -0.18955028 0.05440185
v 0.30426463 -0.19452656 0.05436622
v 0.30428882 -0.19468579 0.05429822
v 0.25316431 -0.18953694 0.05437527
v -0.25783449 -0.18952004 0.05436886
v -0.30913849 -0.19465311 0.05447384
v -0.25791677 -0.18946537 0.05450183
v -0.30916875 -0.19479717 0.05443480
v -0.25146569 -0.18963459 -0.00245848
v -0.21810965 -0.49698309 0.00523318
v -0.25137741 -0.18957526 -0.00250203
v -0.21813011 -0.49721815 0.00512527
v 0.23734793 -0.19482729 0.24564695
v 0.22785860 -0.18953299 0.16533847
v 0.19727077 -0.18956621 0.21358263
v 0.27380891 -0.19470672 0.18743530
v 0.27373466 -0.19467530 0.18751508
v 0.23736472 -0.19459365 0.24550578
v 0.22766761 -0.18960282 0.16535021
v 0.19732224 -0.18969848 0.21378375
v 0.18890991 -0.19459725 0.29411645
v 0.15674794 -0.18953500 0.25406137
v 0.18880568 -0.19459180 0.29410260
v 0.15692415 -0.18955642 0.25424368
v 0.13066747 -0.19463819 0.33075175
v 0.10842526 -0.18956113 0.28471890
v 0.13062437 -0.19473618 0.33059242
v 0.10858514 -0.18967343 0.28444164
v 0.06590683 -0.19473582 0.35329433
v 0.05466484 -0.18951499 0.30356225
v 0.06576317 -0.19457706 0.35338593
v 0.05438646 -0.18960835 0.30347712
v -0.00257843 -0.18944971 0.30975229
v -0.00239594 -0.19460909 0.36114245
v -0.00225371 -0.18960922 0.30999133
v -0.00238028 -0.19476827 0.36092546
v -0.05923565 -0.18960382 0.30356116
v -0.07066235 -0.19472670 0.35330551
v -0.05916818 -0.18955139 0.30365337
v -0.07063475 -0.19460497 0.35325750
v -0.11317850 -0.18943437 0.28464968
v -0.13549537 -0.19469638 0.33056180
v -0.11331342 -0.18965826 0.28452020
v -0.13543176 -0.19470883 0.33062718
v -0.16165773 -0.18975258 0.25409978
v -0.19358810 -0.19460106 0.29428367
v -0.16155930 -0.18954093 0.25403646
v -0.19351147 -0.19453734 0.29417930
v -0.20216069 -0.18948060 0.21361063
v -0.24205307 -0.19456900 0.24568606
v -0.20224272 -0.18974031 0.21382460
v -0.24213945 -0.19452118 0.24565888
v -0.23276078 -0.18947116 0.16521092
v -0.27860375 -0.19467980 0.18743928
v -0.23260222 -0.18976289 0.16529861
v -0.27869247 -0.19474574 0.18743664
v -0.25146703 -0.18958266 0.11126207
v -0.30141780 -0.19465597 0.12267309
v -0.25155633 -0.18970514 0.11126259
v -0.30135819 -0.19468694 0.12266987
v 0.29643495 -0.19475458 0.12259501
v 0.24681105 -0.18964286 0.11122111
v 0.29657983 -0.19457884 0.12267044
v 0.24669917 -0.18975904 0.11136116
v 0.21885346 -0.49719110 0.05437404
v 0.25303720 -0.18964669 0.05444537
v 0.21872053 -0.49714211 0.05442546
v 0.25303264 -0.18961938 0.05445689
v -0.25779238 -0.18957567 0.05435646
v -0.22346865 -0.49693305 0.05445086
v -0.25784499 -0.18951186 0.05452974
v -0.22363877 -0.49720267 0.05446492
v 0.22798976 -0.18967622 0.16533744
v 0.17053217 -0.49711443 0.19213238
v 0.19735627 -0.18954253 0.21373214
v 0.19703467 -0.49720814 0.15038137
v 0.19677370 -0.49711933 0.15028402
v 0.22774483 -0.18946949 0.16524804
v 0.17045766 -0.49715052 0.19240592
v 0.19738075 -0.18947843 0.21367038
v 0.13545434 -0.49705182 0.22726418
v 0.15710747 -0.18956906 0.25424632
v 0.13554421 -0.49692835 0.22747151
v 0.15698674 -0.18959122 0.25423963
v 0.10848369 -0.18964978 0.28443543
v 0.09369856 -0.49702196 0.25366433
v 0.10850195 -0.18946579 0.28448730
v 0.09364534 -0.49710609 0.25373714
v 0.05462147 -0.18951764 0.30333782
v 0.04674777 -0.49716537 0.26994748
v 0.05441848 -0.18971326 0.30352064
v 0.04684929 -0.49698805 0.26991340
v -0.00234901 -0.49701370 0.27555409
v -0.00237076 -0.18973499 0.30990600
v -0.00235175 -0.18957835 0.30993522
v -0.00242570 -0.49719849 0.27559000
v -0.05926087 -0.18973579 0.30360069
v -0.05156794 -0.49707263 0.26988323
v -0.05924860 -0.18964613 0.30350022
v -0.05171000 -0.49695784 0.27010410
v -0.11331588 -0.18959645 0.28456159
v -0.09820177 -0.49707533 0.25366223
v -0.11337113 -0.18961264 0.28456857
v -0.09846683 -0.49708915 0.25356071
v -0.16170960 -0.18970419 0.25426731
v -0.14034248 -0.49711393 0.22742423
v -0.16169592 -0.18945252 0.25413625
v -0.14019190 -0.49712536 0.22721637
v -0.20206972 -0.18962778 0.21365778
v -0.17518995 -0.49711831 0.19233508
v -0.17525853 -0.49700412 0.19245099
v -0.20210747 -0.18962880 0.21366572
v -0.23254098 -0.18945058 0.16516389
v -0.20179035 -0.49707322 0.15033927
v -0.20167428 -0.49711914 0.15038028
v -0.23250683 -0.18949395 0.16514934
v -0.25147226 -0.18965645 0.11134573
v -0.21796549 -0.49701190 0.10348514
v -0.21809552 -0.49691362 0.10373700
v -0.25158148 -0.18971803 0.11127812
v 0.21331678 -0.49709697 0.10369162
v 0.24675308 -0.18958205 0.11122685
v 0.21334298 -0.49717110 0.10361865
v 0.24666447 -0.18973860 0.11118515
vn -1 0 0
vn 1 0 0
vn 0 1 0
vn 0 -1 0
vn 0 0 -1
vn 0 0 1
vn -0.0773820416941667 0.9950898217860371 -0.06171115135107523
vn -0.061709262646459866 0.9950899426753697 -0.07738199331859946
vn -0.0773819817191704 0.995089822107588 -0.06171122137101797
vn -0.0617100326271407 0.9950899423633107 -0.0773813832943066
vn 0.0617100326271407 -0.9950899423633107 0.0773813832943066
vn 0.0773820416941667 -0.9950898217860371 0.06171115135107523
vn 0.061709262646459866 -0.9950899426753697 0.07738199331859946
vn 0.0773819817191704 -0.995089822107588 0.06171122137101797
vn -0.6234873989667816 0 -0.781833398704377
vn -0.7818271862856255 0 -0.6234951890629967
vn 0.6234873989667816 0 0.781833398704377
vn 0.7818271862856255 0 0.6234951890629967
vn -0.0429440116106277 0.9950896373211275 -0.08917637334458571
vn -0.042944691582061885 0.995089636658626 -0.08917605328520291
vn 0.042944691582061885 -0.995089636658626 0.08917605328520291
vn 0.0429440116106277 -0.9950896373211275 0.08917637334458571
vn -0.4338541971054875 0 -0.9009830939889787
vn 0.4338541971054875 0 0.9009830939889787
vn -0.02202559952036385 0.9950891783306357 -0.0965007778985695
vn -0.022026719529609842 0.9950891787494386 -0.09650051793918933
vn 0.022026719529609842 -0.9950891787494386 0.09650051793918933
vn 0.02202559952036385 -0.9950891783306357 0.0965007778985695
vn -0.22251470759725528 0 -0.97492933328673
vn 0.22251470759725528 0 0.97492933328673
vn 2.8667079151718585e-7 0.9950891705545288 -0.09898253707102865
vn 3.416459898904205e-7 0.9950891705545116 -0.09898253707102694
vn -3.416459898904205e-7 -0.9950891705545116 0.09898253707102694
vn -2.8667079151718585e-7 -0.9950891705545288 0.09898253707102865
vn 1.293995e-8 0 -1
vn -1.293995e-8 0 1
vn 0.022025109771752198 0.9950894896878157 -0.09649767899998737
vn 0.022026189779156935 0.9950894900228494 -0.09649742903247938
vn -0.022026189779156935 -0.9950894900228494 0.09649742903247938
vn -0.022025109771752198 -0.9950894896878157 0.09649767899998737
vn 0.22251470759725528 0 -0.97492933328673
vn -0.22251470759725528 0 0.97492933328673
vn 0.04294056176381719 0.9950903408741147 -0.08917018366273488
vn 0.04294180173652145 0.9950903402404101 -0.08916959360592468
vn -0.04294180173652145 -0.9950903402404101 0.08916959360592468
vn -0.04294056176381719 -0.9950903408741147 0.08917018366273488
vn 0.4338541159284292 0 -0.9009831330785062
vn -0.4338541159284292 0 0.9009831330785062
vn 0.06170315264871703 0.9950906427160271 -0.07737786332158152
vn 0.061704102660385396 0.995090642903543 -0.0773771033361299
vn -0.061704102660385396 -0.995090642903543 0.0773771033361299
vn -0.06170315264871703 -0.9950906427160271 0.07737786332158152
vn 0.6234872890941039 0 -0.7818334863243486
vn -0.6234872890941039 0 0.7818334863243486
vn 0.07737704834833026 0.9950904787590652 -0.06170681868282256
vn 0.07737694837408918 0.9950904790903051 -0.06170693870336064
vn -0.07737694837408918 -0.9950904790903051 0.06170693870336064
vn -0.07737704834833026 -0.9950904787590652 0.06170681868282256
vn 0.7818270986644439 0 -0.6234952989349142
vn -0.7818270986644439 0 0.6234952989349142
vn 0.08916786927761099 0.9950905919383237 -0.04293954965212718
vn 0.0843275433778956 0.995028539857707 -0.05298179212228337
vn 0.08916857926071835 0.9950905917498718 -0.04293807964400741
vn -0.08916857926071835 -0.9950905917498718 0.04293807964400741
vn -0.08916786927761099 -0.9950905919383237 0.04293954965212718
vn -0.0843275433778956 -0.995028539857707 0.05298179212228337
vn 0.8467168968437357 0 -0.5320436980167274
vn 0.9009788055901006 0 -0.4338631026918928
vn -0.8467168968437357 0 0.5320436980167274
vn -0.9009788055901006 0 0.4338631026918928
vn -0.08917670266243237 0.9950895297090888 -0.042945821282177096
vn -0.08433040993656138 0.9950278992514776 -0.05298925996013794
vn -0.08917714268669158 0.9950895299796403 -0.04294490129382576
vn 0.08917670266243237 -0.9950895297090888 0.042945821282177096
vn 0.08433040993656138 -0.9950278992514776 0.05298925996013794
vn 0.08917714268669158 -0.9950895299796403 0.04294490129382576
vn -0.8467168968437357 0 -0.5320436980167274
vn -0.9009787085860659 0 -0.4338633041345915
vn 0.8467168968437357 0 0.5320436980167274
vn 0.9009787085860659 0 0.4338633041345915
vn 0.6196565949647759 0.11096829909829031 0.7769888936863204
vn 0.776990889924561 0.11096829856104565 0.6196540919647874
vn 0.6196540919647874 0.11096829856104562 0.776990889924561
vn 0.7769888936863204 0.11096829909829034 0.6196565949647759
vn -0.7769888936863204 -0.11096829909829034 -0.6196565949647759
vn -0.6196565949647759 -0.11096829909829031 -0.7769888936863204
vn -0.776990889924561 -0.11096829856104565 -0.6196540919647874
vn -0.6196540919647874 -0.11096829856104562 -0.776990889924561
vn 0.4312313886567345 0.11096259708119974 0.8953919764472874
vn 0.43123219433659316 0.11096259854271913 0.8953915882407507
vn -0.43123219433659316 -0.11096259854271913 -0.8953915882407507
vn -0.4312313886567345 -0.11096259708119974 -0.8953919764472874
vn 0.221142907323268 0.1109685036747823 0.9689075320859014
vn 0.221142790786987 0.11096849537694972 0.9689075596344158
vn -0.221142907323268 -0.1109685036747823 -0.9689075320859014
vn -0.221142790786987 -0.11096849537694972 -0.9689075596344158
vn -0.000008751028090189186 0.1109731011437024 0.993823410242468
vn -0.000008891885091629828 0.11097310114356451 0.9938234102412332
vn 0.000008751028090189186 -0.1109731011437024 -0.993823410242468
vn 0.000008891885091629828 -0.11097310114356451 -0.9938234102412332
vn -0.22115140119069243 0.11096840059746031 0.968905605216646
vn 0.22115140119069243 -0.11096840059746031 -0.968905605216646
vn -0.4312138116132478 0.11095870298828747 0.8954009241145171
vn -0.43121498153303556 0.11095869524814662 0.8954003616540999
vn 0.43121498153303556 -0.11095869524814662 -0.8954003616540999
vn 0.4312138116132478 -0.11095870298828747 -0.8954009241145171
vn -0.6196177188913422 0.11095970338301755 0.7770211236903682
vn -0.6196170603732007 0.1109596929037177 0.777021650306596
vn 0.6196177188913422 -0.11095970338301755 -0.7770211236903682
vn 0.6196170603732007 -0.1109596929037177 -0.777021650306596
vn -0.7770120797064612 0.11096459710189259 0.6196281838169201
vn -0.7770144750817483 0.11096459644145129 0.6196251801291008
vn 0.7770120797064612 -0.11096459710189259 -0.6196281838169201
vn 0.7770144750817483 -0.11096459644145129 -0.6196251801291008
vn -0.895420457269019 0.11096169470471988 0.43117247942371895
vn -0.8954213107902432 0.11096170133714002 0.4311707051958076
vn 0.895420457269019 -0.11096169470471988 -0.43117247942371895
vn 0.8954213107902432 -0.11096170133714002 -0.4311707051958076
vn 0.09648491646561828 0.9950907635483894 -0.02202346919324832
vn 0.09648528648465467 0.9950907637448589 -0.022021839197655997
vn -0.09648528648465467 -0.9950907637448589 0.022021839197655997
vn -0.09648491646561828 -0.9950907635483894 0.02202346919324832
vn 0.97492933328673 0 -0.22251470759725528
vn -0.97492933328673 0 0.22251470759725528
vn -0.096500498104181 0.9950891804507851 -0.02202672956726945
vn -0.09650075806356324 0.9950891800319986 -0.0220256095580219
vn 0.096500498104181 -0.9950891804507851 0.02202672956726945
vn 0.09650075806356324 -0.9950891800319986 0.0220256095580219
vn 0.895391598176244 0.11096249977398873 0.4312321991216555
vn 0.8953919863827848 0.11096249831247061 0.4312313934417878
vn -0.895391598176244 -0.11096249977398873 -0.4312321991216555
vn -0.8953919863827848 -0.11096249831247061 -0.4312313934417878
vn -0.97492933328673 0 -0.22251470759725528
vn 0.97492933328673 0 0.22251470759725528
vn 0.9009831330785062 0 0.4338541159284292
vn 0.7818332623380567 0 0.6234875699657784
vn -0.9009831330785062 0 -0.4338541159284292
vn -0.7818332623380567 0 -0.6234875699657784
vn 0.6234872890941039 0 0.7818334863243486
vn -0.6234872890941039 0 -0.7818334863243486
vn 0.43385451881569376 0 0.9009829390744325
vn -0.43385451881569376 0 -0.9009829390744325
vn 1.293984e-8 0 1
vn -1.293984e-8 0 -1
vn -0.43385459999271775 0 0.900982899984877
vn 0.43385459999271775 0 -0.900982899984877
vn -0.6234873989667816 0 0.781833398704377
vn 0.6234873989667816 0 -0.781833398704377
vn -0.781833398704377 0 0.6234873989667816
vn 0.781833398704377 0 -0.6234873989667816
vn -0.9009830360764922 0 0.43385431737207175
vn 0.9009830360764922 0 -0.43385431737207175
vn -1 0 5.1759599999999934e-8
vn 1 0 -5.1759599999999934e-8
vn 1 0 5.1759809999999934e-8
vn -1 0 -5.1759809999999934e-8
vn -0.968900269057158 0.11096119645633823 0.221178392936437
vn -0.9689001282306253 0.11096120323305159 0.22117900644444302
vn 0.968900269057158 -0.11096119645633823 -0.221178392936437
vn 0.9689001282306253 -0.11096120323305159 -0.22117900644444302
vn 0.09896620945734237 0.9950907945436569 3.454260983268928e-7
vn 0.09896620945734412 0.9950907945436743 2.8995959863103527e-7
vn -0.09896620945734412 -0.9950907945436743 -2.8995959863103527e-7
vn -0.09896620945734237 -0.9950907945436569 -3.454260983268928e-7
vn -0.09898253707102703 0.9950891705545103 3.4547238999814804e-7
vn -0.09898253707102879 0.995089170554528 2.8999689163971785e-7
vn 0.09898253707102703 -0.9950891705545103 -3.4547238999814804e-7
vn 0.09898253707102879 -0.995089170554528 -2.8999689163971785e-7
vn 0.9689075214110106 0.11096840245219025 0.2211430048868392
vn 0.9689075489595358 0.11096839415436652 0.22114288835055454
vn -0.9689075214110106 -0.11096840245219025 -0.2211430048868392
vn -0.9689075489595358 -0.11096839415436652 -0.22114288835055454
vn 0.07737193220936192 0.9950913284149151 0.06169953176183545
vn 0.08916118276978004 0.9950914309123801 0.042933991333738826
vn 0.07737273219400043 0.995091328217057 0.061698531749539126
vn 0.08916085279007979 0.9950914311390526 0.04293467134354007
vn -0.08916085279007979 -0.9950914311390526 -0.04293467134354007
vn -0.07737193220936192 -0.9950913284149151 -0.06169953176183545
vn -0.08916118276978004 -0.9950914309123801 -0.042933991333738826
vn -0.07737273219400043 -0.995091328217057 -0.061698531749539126
vn 0.06169957141861026 0.9950913228793609 0.07737197177895379
vn 0.06169855143471589 0.9950913231394952 0.07737278179919903
vn -0.06169957141861026 -0.9950913228793609 -0.07737197177895379
vn -0.06169855143471589 -0.9950913231394952 -0.07737278179919903
vn 0.04293473100325241 0.9950914232522212 0.08916091208341609
vn 0.04293404101189055 0.995091423452803 0.08916124210139614
vn -0.04293473100325241 -0.9950914232522212 -0.08916091208341609
vn -0.04293404101189055 -0.995091423452803 -0.08916124210139614
vn 0.022022409401249245 0.9950910729452159 0.09648196737682445
vn 0.02202183940148379 0.9950910729551139 0.0964820973777806
vn -0.022022409401249245 -0.9950910729452159 -0.09648196737682445
vn -0.02202183940148379 -0.9950910729551139 -0.0964820973777806
vn 3.415959977888755e-7 0.9950907935588543 0.09896621935939953
vn 2.8663039814466855e-7 0.9950907935588715 0.09896621935940124
vn -3.415959977888755e-7 -0.9950907935588543 -0.09896621935939953
vn -2.8663039814466855e-7 -0.9950907935588715 -0.09896621935940124
vn -0.02202344916045131 0.9950907620664711 0.09648493632192957
vn -0.022021819164860526 0.9950907622629008 0.09648530634096156
vn 0.02202344916045131 -0.9950907620664711 -0.09648493632192957
vn 0.022021819164860526 -0.9950907622629008 -0.09648530634096156
vn -0.04293817087181987 0.9950907202043974 0.08916710181045581
vn -0.04293694088057248 0.9950907204078233 0.0891676918286963
vn 0.04293817087181987 -0.9950907202043974 -0.08916710181045581
vn 0.04293694088057248 -0.9950907204078233 -0.0891676918286963
vn -0.0617054314160923 0.9950906228365662 0.07737630177572696
vn -0.0617047314076024 0.9950906226999117 0.07737686176511376
vn 0.0617054314160923 -0.9950906228365662 -0.07737630177572696
vn 0.0617047314076024 -0.9950906226999117 -0.07737686176511376
vn -0.07737790298660066 0.9950906384081017 0.06170317238159405
vn -0.07737714295340836 0.9950906379816171 0.061704132355185404
vn 0.07737790298660066 -0.9950906384081017 -0.06170317238159405
vn 0.07737714295340836 -0.9950906379816171 -0.061704132355185404
vn -0.08917018362444491 0.9950903404468172 0.04294057174537889
vn -0.08916959356763386 0.9950903398131004 0.042941811718082076
vn 0.08917018362444491 -0.9950903404468172 -0.04294057174537889
vn 0.08916959356763386 -0.9950903398131004 -0.042941811718082076
vn -0.09649766905059824 0.9950894902097148 0.022025129783303832
vn -0.09649741910434251 0.9950894907639047 0.02202619979556024
vn 0.09649766905059824 -0.9950894902097148 -0.022025129783303832
vn 0.09649741910434251 -0.9950894907639047 -0.02202619979556024
vn 0.09648195744866453 0.9950910736861562 0.022022419417646988
vn 0.09648207750021534 0.9950910742178707 0.02202186942942864
vn -0.09648195744866453 -0.9950910736861562 -0.022022419417646988
vn -0.09648207750021534 -0.9950910742178707 -0.02202186942942864
vn -0.9938256315031101 0.11095320351708678 0.00002822659089477455
vn -0.9938256315177502 0.11095320351872123 0.000027699790878483655
vn 0.9938256315031101 -0.11095320351708678 -0.00002822659089477455
vn 0.9938256315177502 -0.11095320351872123 -0.000027699790878483655
vn 0.9938234102420607 0.11097310114365715 -0.000008797744090642401
vn 0.9938234102407965 0.11097310114351597 -0.000008941164092109073
vn -0.9938234102420607 -0.11097310114365715 0.000008797744090642401
vn -0.9938234102407965 -0.11097310114351597 0.000008941164092109073
vn -0.8954148991730576 0.11095089989753362 -0.4311867996017861
vn -0.7770454180960009 0.11095600258396741 -0.6195879144290967
vn -0.77704444415704 0.11095600630528787 -0.6195891352093402
vn -0.8954156755030662 0.11095089696458665 -0.43118518820356255
vn 0.8954156755030662 -0.11095089696458665 0.43118518820356255
vn 0.8954148991730576 -0.11095089989753362 0.4311867996017861
vn 0.7770454180960009 -0.11095600258396741 0.6195879144290967
vn 0.77704444415704 -0.11095600630528787 0.6195891352093402
vn -0.619588188677184 0.1109560979723058 -0.7770451857996975
vn -0.6195893613122032 0.11095609307178764 -0.777044251480558
vn 0.619588188677184 -0.1109560979723058 0.7770451857996975
vn 0.6195893613122032 -0.11095609307178764 0.777044251480558
vn -0.43118651198520647 0.11095100308398043 -0.8954150248888443
vn -0.43118490058670256 0.11095100015096845 -0.8954158012183699
vn 0.43118651198520647 -0.11095100308398043 0.8954150248888443
vn 0.43118490058670256 -0.11095100015096845 0.8954158012183699
vn -0.22118570686602693 0.11094870344405994 -0.968900030076508
vn -0.22118549521996583 0.11094869760229072 -0.9689000790611249
vn 0.22118570686602693 -0.11094870344405994 0.968900030076508
vn 0.22118549521996583 -0.11094869760229072 0.9689000790611249
vn -0.00000889186741728274 0.11094590520653437 -0.9938264466388671
vn -0.000008751046410685082 0.1109459052066722 -0.9938264466401018
vn 0.000008751046410685082 -0.1109459052066722 0.9938264466401018
vn 0.00000889186741728274 -0.11094590520653437 0.9938264466388671
vn 0.2211771891827713 0.1109488945737645 -0.9689019526134045
vn 0.22117680875047907 0.11094890438950232 -0.9689020383329385
vn -0.2211771891827713 -0.1109488945737645 0.9689019526134045
vn -0.22117680875047907 -0.11094890438950232 0.9689020383329385
vn 0.43120380647519574 0.11095490166616058 -0.8954062134459168
vn 0.4312025165309034 0.1109549042536507 -0.8954068343269885
vn -0.43120380647519574 -0.11095490166616058 0.8954062134459168
vn -0.4312025165309034 -0.1109549042536507 0.8954068343269885
vn 0.6196282250870959 0.1109647044926654 -0.777012031459147
vn 0.6196252213992252 0.11096470383225004 -0.7770144268347803
vn -0.6196282250870959 -0.1109647044926654 0.777012031459147
vn -0.6196252213992252 -0.11096470383225004 0.7770144268347803
vn 0.7770212992291832 0.11095969988992643 -0.6196174993853301
vn 0.7770218343670664 0.11095970490766088 -0.6196168274051664
vn -0.7770218343670664 -0.11095970490766088 0.6196168274051664
vn -0.7770212992291832 -0.11095969988992643 0.6196174993853301
vn 0.8954003616540999 0.11095869524814692 -0.43121498153303556
vn 0.8954009241145171 0.11095870298828776 -0.4312138116132478
vn -0.8954009241145171 -0.11095870298828776 0.4312138116132478
vn -0.8954003616540999 -0.11095869524814692 0.43121498153303556
vn 0.9689055731134473 0.1109682969206959 -0.22115159386317493
vn -0.9689055731134473 -0.1109682969206959 0.22115159386317493
vn -0.968900030076508 0.11094870344405977 -0.2211857068660269
vn -0.9688999657844174 0.11094869608197508 -0.22118599218907228
vn 0.968900030076508 -0.11094870344405977 0.2211857068660269
vn 0.9688999657844174 -0.11094869608197508 0.22118599218907228
usemtl material_0_0
f 1//1 2//1 3//1
f 2//1 1//1 4//1
f 5//2 6//2 7//2
f 8//2 7//2 6//2
f 9//3 10//3 11//3
f 10//3 9//3 12//3
f 10//3 12//3 13//3
f 13//3 12//3 14//3
f 13//3 14//3 15//3
f 13//3 15//3 16//3
f 13//3 16//3 17//3
f 13//3 17//3 18//3
f 13//3 18//3 19//3
f 13//3 19//3 20//3
f 13//3 20//3 21//3
f 22//4 23//4 24//4
f 23//4 25//4 24//4
f 25//4 26//4 24//4
f 26//4 27//4 24//4
f 27//4 28//4 24//4
f 28//4 29//4 24//4
f 29//4 30//4 24//4
f 30//4 31//4 24//4
f 24//4 31//4 32//4
f 31//4 33//4 32//4
f 34//4 32//4 33//4
f 35//5 36//5 37//5
f 36//5 35//5 38//5
f 39//6 40//6 41//6
f 42//6 41//6 40//6
f 43//4 44//4 45//4
f 44//4 43//4 46//4
f 46//4 43//4 47//4
f 46//4 47//4 48//4
f 48//4 47//4 49//4
f 49//4 47//4 50//4
f 50//4 47//4 51//4
f 51//4 47//4 52//4
f 52//4 47//4 53//4
f 53//4 47//4 54//4
f 54//4 47//4 55//4
f 56//3 57//3 58//3
f 58//3 57//3 59//3
f 59//3 57//3 60//3
f 60//3 57//3 61//3
f 61//3 57//3 62//3
f 62//3 57//3 63//3
f 63//3 57//3 64//3
f 64//3 57//3 65//3
f 57//3 66//3 65//3
f 65//3 66//3 67//3
f 68//3 67//3 66//3
f 69//7 70//8 71//9
f 70//8 69//7 72//10
f 73//11 74//12 75//13
f 76//14 75//13 74//12
f 77//15 78//16 79//16
f 78//16 77//15 80//15
f 81//17 82//17 83//18
f 84//18 83//18 82//17
f 72//10 85//19 70//8
f 85//19 72//10 86//20
f 87//21 73//11 88//22
f 75//13 88//22 73//11
f 77//15 89//23 80//15
f 89//23 77//15 90//23
f 91//24 82//17 92//24
f 81//17 92//24 82//17
f 86//20 93//25 85//19
f 93//25 86//20 94//26
f 95//27 87//21 96//28
f 88//22 96//28 87//21
f 90//23 97//29 89//23
f 97//29 90//23 98//29
f 99//30 91//24 100//30
f 92//24 100//30 91//24
f 94//26 101//31 93//25
f 101//31 94//26 102//32
f 103//33 95//27 104//34
f 96//28 104//34 95//27
f 98//29 105//35 97//29
f 105//35 98//29 106//35
f 107//36 99//30 108//36
f 100//30 108//36 99//30
f 109//37 101//31 102//32
f 101//31 109//37 110//38
f 111//39 112//40 104//34
f 103//33 104//34 112//40
f 106//35 113//41 105//35
f 113//41 106//35 114//41
f 115//42 107//36 116//42
f 108//36 116//42 107//36
f 117//43 110//38 109//37
f 110//38 117//43 118//44
f 119//45 120//46 111//39
f 112//40 111//39 120//46
f 114//41 121//47 113//41
f 121//47 114//41 122//47
f 123//48 115//42 124//48
f 116//42 124//48 115//42
f 125//49 118//44 117//43
f 118//44 125//49 126//50
f 127//51 128//52 119//45
f 120//46 119//45 128//52
f 122//47 129//53 121//47
f 129//53 122//47 130//53
f 131//54 123//48 132//54
f 124//48 132//54 123//48
f 133//55 126//50 125//49
f 126//50 133//55 134//56
f 135//57 136//58 127//51
f 128//52 127//51 136//58
f 130//53 137//59 129//53
f 137//59 130//53 138//59
f 139//60 131//54 140//60
f 132//54 140//60 131//54
f 141//61 134//56 133//55
f 134//56 141//61 142//62
f 142//62 141//61 143//63
f 144//64 145//65 146//66
f 146//66 145//65 135//57
f 136//58 135//57 145//65
f 147//67 148//68 149//68
f 148//68 147//67 150//67
f 150//67 147//67 137//59
f 150//67 137//59 138//59
f 139//60 140//60 151//69
f 140//60 152//69 151//69
f 151//69 152//69 153//70
f 154//70 153//70 152//69
f 155//2 156//2 157//2
f 156//2 155//2 158//2
f 159//1 160//1 161//1
f 162//1 161//1 160//1
f 163//71 164//72 165//73
f 164//72 163//71 71//9
f 71//9 163//71 69//7
f 74//12 166//74 76//14
f 76//14 166//74 167//75
f 168//76 167//75 166//74
f 169//77 170//78 171//78
f 170//78 169//77 172//77
f 172//77 169//77 79//16
f 172//77 79//16 78//16
f 83//18 84//18 173//79
f 84//18 174//79 173//79
f 173//79 174//79 175//80
f 176//80 175//80 174//79
f 177//4 178//4 179//4
f 178//4 177//4 180//4
f 178//4 180//4 181//4
f 181//4 180//4 45//4
f 181//4 45//4 182//4
f 182//4 45//4 44//4
f 182//4 44//4 183//4
f 183//4 44//4 184//4
f 184//4 44//4 46//4
f 184//4 46//4 185//4
f 185//4 46//4 186//4
f 186//4 46//4 48//4
f 186//4 48//4 187//4
f 187//4 48//4 188//4
f 188//4 48//4 49//4
f 188//4 49//4 189//4
f 189//4 49//4 50//4
f 189//4 50//4 190//4
f 190//4 50//4 51//4
f 190//4 51//4 191//4
f 191//4 51//4 192//4
f 192//4 51//4 52//4
f 192//4 52//4 193//4
f 193//4 52//4 53//4
f 193//4 53//4 194//4
f 194//4 53//4 195//4
f 195//4 53//4 54//4
f 195//4 54//4 196//4
f 196//4 54//4 197//4
f 182//4 198//4 199//4
f 198//4 182//4 183//4
f 199//4 198//4 200//4
f 199//4 200//4 201//4
f 199//4 201//4 202//4
f 202//4 201//4 203//4
f 202//4 203//4 204//4
f 202//4 204//4 205//4
f 205//4 204//4 206//4
f 205//4 206//4 207//4
f 207//4 206//4 208//4
f 207//4 208//4 209//4
f 207//4 209//4 210//4
f 210//4 209//4 211//4
f 210//4 211//4 212//4
f 212//4 211//4 213//4
f 212//4 213//4 214//4
f 214//4 213//4 215//4
f 214//4 215//4 216//4
f 214//4 216//4 217//4
f 217//4 216//4 218//4
f 217//4 218//4 197//4
f 217//4 197//4 54//4
f 217//4 54//4 55//4
f 217//4 55//4 219//4
f 219//4 55//4 220//4
f 219//4 220//4 221//4
f 219//4 221//4 222//4
f 222//4 221//4 223//4
f 224//3 225//3 226//3
f 226//3 225//3 227//3
f 225//3 228//3 227//3
f 228//3 56//3 227//3
f 227//3 56//3 229//3
f 56//3 58//3 229//3
f 58//3 230//3 229//3
f 230//3 231//3 229//3
f 231//3 232//3 229//3
f 229//3 232//3 233//3
f 232//3 234//3 233//3
f 234//3 235//3 233//3
f 233//3 235//3 236//3
f 235//3 237//3 236//3
f 236//3 237//3 238//3
f 237//3 239//3 238//3
f 238//3 239//3 240//3
f 239//3 241//3 240//3
f 241//3 242//3 240//3
f 240//3 242//3 243//3
f 242//3 244//3 243//3
f 243//3 244//3 245//3
f 244//3 246//3 245//3
f 246//3 247//3 245//3
f 245//3 247//3 248//3
f 247//3 249//3 248//3
f 249//3 250//3 248//3
f 251//3 252//3 250//3
f 248//3 250//3 252//3
f 230//3 58//3 253//3
f 253//3 58//3 254//3
f 58//3 59//3 254//3
f 254//3 59//3 255//3
f 255//3 59//3 256//3
f 59//3 60//3 256//3
f 256//3 60//3 257//3
f 60//3 61//3 257//3
f 257//3 61//3 258//3
f 258//3 61//3 259//3
f 61//3 62//3 259//3
f 259//3 62//3 260//3
f 62//3 63//3 260//3
f 260//3 63//3 261//3
f 63//3 64//3 261//3
f 261//3 64//3 262//3
f 262//3 64//3 263//3
f 64//3 65//3 263//3
f 263//3 65//3 264//3
f 264//3 65//3 265//3
f 65//3 67//3 265//3
f 265//3 67//3 251//3
f 251//3 67//3 252//3
f 67//3 68//3 252//3
f 252//3 68//3 266//3
f 68//3 267//3 266//3
f 266//3 267//3 268//3
f 267//3 269//3 268//3
f 270//3 268//3 269//3
f 271//81 272//82 273//83
f 272//82 271//81 274//84
f 275//85 276//86 277//87
f 278//88 277//87 276//86
f 279//89 271//81 273//83
f 271//81 279//89 280//90
f 281//91 282//92 276//86
f 278//88 276//86 282//92
f 283//93 279//89 284//94
f 279//89 283//93 280//90
f 281//91 285//95 282//92
f 286//96 282//92 285//95
f 287//97 284//94 288//98
f 284//94 287//97 283//93
f 285//95 289//99 286//96
f 290//100 286//96 289//99
f 291//101 288//98 292//101
f 288//98 291//101 287//97
f 289//99 293//102 290//100
f 294//102 290//100 293//102
f 295//103 291//101 292//101
f 291//101 295//103 296//104
f 297//105 298//106 293//102
f 294//102 293//102 298//106
f 299//107 295//103 300//108
f 295//103 299//107 296//104
f 297//105 301//109 298//106
f 302//110 298//106 301//109
f 303//111 300//108 304//112
f 300//108 303//111 299//107
f 301//109 305//113 302//110
f 306//114 302//110 305//113
f 307//115 304//112 308//116
f 304//112 307//115 303//111
f 305//113 309//117 306//114
f 310//118 306//114 309//117
f 311//119 143//63 141//61
f 143//63 311//119 312//120
f 313//121 314//122 144//64
f 145//65 144//64 314//122
f 149//68 315//123 316//123
f 315//123 149//68 148//68
f 153//70 154//70 317//124
f 318//124 317//124 154//70
f 319//125 165//73 320//126
f 165//73 319//125 163//71
f 166//74 321//127 168//76
f 322//128 168//76 321//127
f 272//82 323//129 324//130
f 323//129 272//82 274//84
f 275//85 277//87 325//131
f 326//132 325//131 277//87
f 171//78 327//133 328//133
f 327//133 171//78 170//78
f 175//80 176//80 329//134
f 330//134 329//134 176//80
f 331//135 332//136 333//136
f 332//136 331//135 334//135
f 335//137 336//137 337//138
f 338//138 337//138 336//137
f 332//136 339//139 333//136
f 339//139 332//136 340//139
f 341//140 337//138 342//140
f 338//138 342//140 337//138
f 340//139 343//141 339//139
f 343//141 340//139 344//141
f 345//142 341//140 346//142
f 342//140 346//142 341//140
f 344//141 347//30 343//141
f 347//30 344//141 348//30
f 349//29 345//142 350//29
f 346//142 350//29 345//142
f 348//30 351//143 347//30
f 351//143 348//30 352//143
f 353//144 349//29 354//144
f 350//29 354//144 349//29
f 352//143 355//42 351//143
f 355//42 352//143 356//42
f 357//41 353//144 358//41
f 354//144 358//41 353//144
f 356//42 359//145 355//42
f 359//145 356//42 360//145
f 361//146 357//41 362//146
f 358//41 362//146 357//41
f 360//145 363//147 359//145
f 363//147 360//145 364//147
f 365//148 361//146 366//148
f 362//146 366//148 361//146
f 364//147 367//149 363//147
f 367//149 364//147 368//149
f 369//150 365//148 370//150
f 366//148 370//150 365//148
f 371//151 367//149 368//149
f 367//149 371//151 372//151
f 373//152 374//152 370//150
f 369//150 370//150 374//152
f 375//124 372//151 371//151
f 372//151 375//124 376//124
f 377//123 378//123 373//152
f 374//152 373//152 378//123
f 379//153 376//124 375//124
f 376//124 379//153 380//153
f 381//154 382//154 377//123
f 378//123 377//123 382//154
f 328//133 380//153 379//153
f 380//153 328//133 327//133
f 329//134 330//134 381//154
f 382//154 381//154 330//134
f 316//123 383//155 384//155
f 383//155 316//123 315//123
f 317//124 318//124 385//156
f 386//156 385//156 318//124
f 384//155 387//134 388//134
f 387//134 384//155 383//155
f 385//156 386//156 389//133
f 390//133 389//133 386//156
f 388//134 334//135 331//135
f 334//135 388//134 387//134
f 389//133 390//133 335//137
f 336//137 335//137 390//133
f 391//157 308//116 392//158
f 308//116 391//157 307//115
f 309//117 393//159 310//118
f 394//160 310//118 393//159
f 395//161 312//120 311//119
f 312//120 395//161 396//162
f 397//163 398//164 313//121
f 314//122 313//121 398//164
f 399//165 320//126 400//166
f 320//126 399//165 319//125
f 321//127 401//167 322//128
f 402//168 322//128 401//167
f 324//130 403//169 404//170
f 403//169 324//130 323//129
f 325//131 326//132 405//171
f 406//172 405//171 326//132
f 407//173 408//174 409//175
f 408//174 407//173 410//176
f 411//177 412//178 413//179
f 414//180 413//179 412//178
f 415//181 409//175 416//182
f 409//175 415//181 407//173
f 412//178 417//183 414//180
f 418//184 414//180 417//183
f 419//185 416//182 420//186
f 416//182 419//185 415//181
f 417//183 421//187 418//184
f 422//188 418//184 421//187
f 423//189 420//186 424//190
f 420//186 423//189 419//185
f 421//187 425//191 422//188
f 426//192 422//188 425//191
f 423//189 427//193 428//194
f 427//193 423//189 424//190
f 426//192 425//191 429//195
f 430//196 429//195 425//191
f 428//194 431//197 432//198
f 431//197 428//194 427//193
f 429//195 430//196 433//199
f 434//200 433//199 430//196
f 432//198 435//201 436//202
f 435//201 432//198 431//197
f 433//199 434//200 437//203
f 438//204 437//203 434//200
f 436//202 439//205 440//206
f 439//205 436//202 435//201
f 437//203 438//204 441//207
f 442//208 441//207 438//204
f 440//206 443//209 444//210
f 443//209 440//206 439//205
f 441//207 442//208 445//211
f 446//212 445//211 442//208
f 444//210 447//213 448//214
f 447//213 444//210 443//209
f 445//211 446//212 449//215
f 450//216 449//215 446//212
f 448//214 451//217 452//218
f 451//217 448//214 447//213
f 449//215 450//216 453//219
f 454//220 453//219 450//216
f 452//218 399//165 400//166
f 399//165 452//218 451//217
f 453//219 454//220 401//167
f 402//168 401//167 454//220
f 455//221 395//161 456//222
f 395//161 455//221 396//162
f 397//163 457//223 398//164
f 458//224 398//164 457//223
f 410//176 456//222 408//174
f 456//222 410//176 455//221
f 457//223 411//177 458//224
f 413//179 458//224 411//177
f 391//157 459//225 460//226
f 459//225 391//157 392//158
f 394//160 393//159 461//227
f 462//228 461//227 393//159
f 404//170 463//229 464//230
f 463//229 404//170 403//169
f 405//171 406//172 465//231
f 466//232 465//231 406//172
f 467//233 468//234 469//235
f 468//234 467//233 470//236
f 471//237 472//238 473//239
f 474//240 473//239 472//238
f 469//235 475//241 476//242
f 475//241 469//235 468//234
f 473//239 474//240 477//243
f 478//244 477//243 474//240
f 479//245 475//241 480//246
f 475//241 479//245 476//242
f 478//244 481//247 477//243
f 482//248 477//243 481//247
f 483//249 480//246 484//250
f 480//246 483//249 479//245
f 481//247 485//251 482//248
f 486//252 482//248 485//251
f 487//253 483//249 484//250
f 483//249 487//253 488//254
f 489//255 490//256 485//251
f 486//252 485//251 490//256
f 491//257 487//253 492//258
f 487//253 491//257 488//254
f 489//255 493//259 490//256
f 494//260 490//256 493//259
f 495//261 492//258 496//262
f 492//258 495//261 491//257
f 493//259 497//263 494//260
f 498//264 494//260 497//263
f 499//265 496//262 500//266
f 496//262 499//265 495//261
f 497//263 501//267 498//264
f 502//268 498//264 501//267
f 500//266 503//269 499//265
f 503//269 500//266 504//270
f 505//271 502//268 506//272
f 501//267 506//272 502//268
f 504//270 507//273 503//269
f 507//273 504//270 508//274
f 509//275 505//271 510//276
f 506//272 510//276 505//271
f 508//274 511//277 507//273
f 511//277 508//274 512//277
f 513//278 509//275 514//278
f 510//276 514//278 509//275
f 512//277 463//229 511//277
f 463//229 512//277 464//230
f 466//232 513//278 465//231
f 514//278 465//231 513//278
f 460//226 515//279 516//280
f 515//279 460//226 459//225
f 461//227 462//228 517//281
f 518//282 517//281 462//228
f 516//280 470//236 467//233
f 470//236 516//280 515//279
f 517//281 518//282 471//237
f 472//238 471//237 518//282
