# SSTK version 0.8.0
# 2
mtllib original-2.mtl
o #ID11
v 0.09349046 0.59991047 0.30970475
v 0.01011623 0.51934277 0.32072168
v 0.09345929 0.51932034 0.30976110
v 0.01019694 0.59977281 0.32066830
v 0.01010020 0.59991202 0.32062287
v 0.09355967 0.59981072 0.30975598
v 0.01019949 0.51929646 0.32067950
v 0.09358858 0.51933725 0.30967654
v 0.17129635 0.59989261 0.27744421
v 0.17125667 0.51930297 0.27740342
v 0.17127129 0.59984859 0.27752103
v 0.17129550 0.51926019 0.27736894
v -0.07322970 0.51927579 0.30972743
v -0.07330608 0.59991266 0.30967063
v -0.07330451 0.59986090 0.30960067
v -0.07324434 0.51928624 0.30963075
v 0.23809339 0.59983761 0.22617547
v 0.23808635 0.51920791 0.22619867
v 0.23813084 0.59983537 0.22630270
v 0.23797419 0.51932656 0.22623934
v -0.15113327 0.51920028 0.27741751
v -0.15111150 0.59974206 0.27741137
v -0.15110290 0.59981077 0.27745793
v -0.15114469 0.51926694 0.27738214
v 0.28926745 0.51933235 0.15952213
v 0.28922614 0.59984341 0.15943575
v 0.28921515 0.59980439 0.15937490
v 0.28922070 0.51932777 0.15952470
v -0.21783661 0.51932340 0.22615266
v -0.21782404 0.59988630 0.22624953
v -0.21777345 0.59979458 0.22620902
v -0.21783324 0.51914929 0.22623079
v 0.32143198 0.51915436 0.08173205
v 0.32155440 0.59989159 0.08171691
v 0.32144547 0.59980827 0.08180604
v 0.32141735 0.51914308 0.08170812
v -0.26898764 0.59982706 0.15949365
v -0.26898583 0.51920894 0.15943933
v -0.26898216 0.51916860 0.15941545
v -0.26901350 0.59977922 0.15953375
v 0.33254494 0.51930536 -0.00165570
v 0.33250111 0.59984675 -0.00165377
v 0.33245211 0.59973519 -0.00163035
v 0.33249441 0.51934102 -0.00178367
v -0.30130062 0.59973478 0.08170157
v -0.30120566 0.51925068 0.08164127
v -0.30129126 0.51916894 0.08180353
v -0.30119272 0.59989481 0.08176937
v 0.32158132 0.51914383 -0.08505125
v 0.32143425 0.59981990 -0.08520152
v 0.32156176 0.59981902 -0.08524586
v 0.32146886 0.51931445 -0.08519491
v -0.31231967 0.59978601 -0.00181189
v -0.31233912 0.51931120 -0.00163746
v -0.31233974 0.51924967 -0.00169138
v -0.31225561 0.59974416 -0.00163935
v 0.28928491 0.51926690 -0.16285598
v 0.28934997 0.59981413 -0.16281975
v 0.28919372 0.59986964 -0.16284808
v 0.28932668 0.51914549 -0.16294974
v -0.30121332 0.59980551 -0.08517580
v -0.30128073 0.51933303 -0.08506626
v -0.30122750 0.51921172 -0.08518762
v -0.30132081 0.59987337 -0.08506703
v 0.23804359 0.51914545 -0.22963623
v 0.23813579 0.59981455 -0.22974640
v 0.23805352 0.59985476 -0.22966895
v 0.23806697 0.51920341 -0.22959398
v -0.26897638 0.59981574 -0.16285807
v -0.26897563 0.51933038 -0.16286129
v -0.26902945 0.51926011 -0.16298829
v -0.26903073 0.59986701 -0.16290917
v 0.17125158 0.59973678 -0.28094779
v 0.17135329 0.51916821 -0.28083977
v 0.17137302 0.59991204 -0.28080920
v 0.17131173 0.51917375 -0.28091929
v -0.21782515 0.59990993 -0.22975147
v -0.21775484 0.51915452 -0.22967682
v -0.21781570 0.51919453 -0.22975079
v -0.21773438 0.59982110 -0.22966351
v 0.09351048 0.59985734 -0.31306395
v 0.09357996 0.51921094 -0.31306205
v 0.09362862 0.59986507 -0.31301893
v 0.09356278 0.51918804 -0.31318958
v -0.15112735 0.51920811 -0.28082186
v -0.15099726 0.59991296 -0.28088141
v -0.15106859 0.59977054 -0.28097096
v -0.15109427 0.51924783 -0.28090531
v 0.01005255 0.59975465 -0.32400284
v 0.01013027 0.51917328 -0.32406917
v 0.01008351 0.59990739 -0.32408663
v 0.01015867 0.51920204 -0.32417623
v -0.07334298 0.51919855 -0.31309852
v -0.07323586 0.59982457 -0.31312355
v -0.07335038 0.59980044 -0.31305970
v -0.07324776 0.51929082 -0.31307346
vn 0.25881900959356163 0 0.9659258358036645
vn 0 0 1
vn 0.5000000016387101 0 0.866025402838329
vn -0.25881900959356163 0 0.9659258358036645
vn 0.7071067811865476 0 0.7071067811865476
vn -0.5000000016387101 0 0.866025402838329
vn 0.866025402838329 0 0.5000000016387101
vn -0.7071067811865476 0 0.7071067811865476
vn 0.9659258358036645 0 0.25881900959356163
vn -0.866025402838329 0 0.5000000016387101
vn 1 0 0
vn -0.9659258358036645 0 0.25881900959356163
vn 0.9659258358036645 0 -0.25881900959356163
vn -1 0 0
vn 0.866025402838329 0 -0.5000000016387101
vn -0.9659258358036645 0 -0.25881900959356163
vn 0.7071067811865476 0 -0.7071067811865476
vn -0.866025402838329 0 -0.5000000016387101
vn 0.5000000016387101 0 -0.866025402838329
vn -0.7071067811865476 0 -0.7071067811865476
vn 0.25881900959356163 0 -0.9659258358036645
vn -0.5000000016387101 0 -0.866025402838329
vn 0 0 -1
vn -0.25881900959356163 0 -0.9659258358036645
usemtl material_0_0
f 1//1 2//2 3//1
f 2//2 1//1 4//2
f 9//3 3//1 10//3
f 3//1 9//3 1//1
f 4//2 13//4 2//2
f 13//4 4//2 14//4
f 17//5 10//3 18//5
f 10//3 17//5 9//3
f 14//4 21//6 13//4
f 21//6 14//4 22//6
f 25//7 17//5 18//5
f 17//5 25//7 26//7
f 22//6 29//8 21//6
f 29//8 22//6 30//8
f 33//9 26//7 25//7
f 26//7 33//9 34//9
f 37//10 29//8 30//8
f 29//8 37//10 38//10
f 41//11 34//9 33//9
f 34//9 41//11 42//11
f 45//12 38//10 37//10
f 38//10 45//12 46//12
f 49//13 42//11 41//11
f 42//11 49//13 50//13
f 53//14 46//12 45//12
f 46//12 53//14 54//14
f 57//15 50//13 49//13
f 50//13 57//15 58//15
f 61//16 54//14 53//14
f 54//14 61//16 62//16
f 65//17 58//15 57//15
f 58//15 65//17 66//17
f 69//18 62//16 61//16
f 62//16 69//18 70//18
f 73//19 65//17 74//19
f 65//17 73//19 66//17
f 77//20 70//18 69//18
f 70//18 77//20 78//20
f 81//21 74//19 82//21
f 74//19 81//21 73//19
f 77//20 85//22 78//20
f 85//22 77//20 86//22
f 89//23 82//21 90//23
f 82//21 89//23 81//21
f 86//22 93//24 85//22
f 93//24 86//22 94//24
f 94//24 90//23 93//24
f 90//23 94//24 89//23
usemtl material_1_0
f 5//23 6//24 7//23
f 8//24 7//23 6//24
f 6//24 11//22 8//24
f 12//22 8//24 11//22
f 15//21 5//23 16//21
f 7//23 16//21 5//23
f 11//22 19//20 12//22
f 20//20 12//22 19//20
f 23//19 15//21 24//19
f 16//21 24//19 15//21
f 27//18 28//18 19//20
f 20//20 19//20 28//18
f 31//17 23//19 32//17
f 24//19 32//17 23//19
f 35//16 36//16 27//18
f 28//18 27//18 36//16
f 39//15 40//15 32//17
f 31//17 32//17 40//15
f 43//14 44//14 35//16
f 36//16 35//16 44//14
f 47//13 48//13 39//15
f 40//15 39//15 48//13
f 51//12 52//12 43//14
f 44//14 43//14 52//12
f 55//11 56//11 47//13
f 48//13 47//13 56//11
f 59//10 60//10 51//12
f 52//12 51//12 60//10
f 63//9 64//9 55//11
f 56//11 55//11 64//9
f 67//8 68//8 59//10
f 60//10 59//10 68//8
f 71//7 72//7 63//9
f 64//9 63//9 72//7
f 67//8 75//6 68//8
f 76//6 68//8 75//6
f 79//5 80//5 71//7
f 72//7 71//7 80//5
f 75//6 83//4 76//6
f 84//4 76//6 83//4
f 87//3 80//5 88//3
f 79//5 88//3 80//5
f 83//4 91//2 84//4
f 92//2 84//4 91//2
f 95//1 87//3 96//1
f 88//3 96//1 87//3
f 91//2 95//1 92//2
f 96//1 92//2 95//1
