# SSTK version 0.8.0
# 6
mtllib original-6.mtl
o #ID46
v -0.27474662 -0.60897682 -0.28656075
v -0.31228222 -0.60909402 -0.00170715
v -0.33894411 -0.60908835 -0.20317935
v -0.30126017 -0.60896479 -0.08507380
v -0.26914759 -0.60898702 -0.16281018
v -0.19141266 -0.60905510 -0.35076193
v -0.21773301 -0.60904818 -0.22956221
v -0.15108376 -0.60894610 -0.28089358
v -0.09420222 -0.60906874 -0.39098015
v -0.07325277 -0.60893088 -0.31318326
v 0.01015012 -0.60901643 -0.40462655
v 0.01016846 -0.60911183 -0.32410259
v 0.11447552 -0.60902421 -0.39096430
v 0.09346841 -0.60897419 -0.31300743
v 0.17129500 -0.60905584 -0.28082690
v 0.21164646 -0.60894602 -0.35078061
v 0.23809713 -0.60893905 -0.22973154
v 0.29499973 -0.60910259 -0.28655905
v 0.28935206 -0.60911170 -0.16283218
v 0.32144091 -0.60899372 -0.08510374
v 0.35907060 -0.60910975 -0.20316991
v 0.33238648 -0.60910106 -0.00173269
v 0.35913674 -0.60905850 0.19981754
v 0.39923585 -0.60910489 0.10250860
v 0.39932576 -0.60894156 -0.10592803
v 0.41306048 -0.60905701 -0.00169063
v -0.37915273 -0.60900609 -0.10607434
v -0.37911728 -0.60892624 0.10257384
v -0.39275210 -0.60892104 -0.00169892
v -0.33892523 -0.60905674 0.19966299
v -0.27484151 -0.60893198 0.28330762
v -0.30118238 -0.60902470 0.08179323
v -0.26913252 -0.60908078 0.15946178
v -0.19138423 -0.60905698 0.34733950
v -0.21791337 -0.60908956 0.22626369
v -0.15104011 -0.60907231 0.27746231
v -0.09412754 -0.60896026 0.38747915
v -0.07331143 -0.60894806 0.30972116
v 0.01010463 -0.60899857 0.40117905
v 0.01008676 -0.60910331 0.32060040
v 0.09349604 -0.60905885 0.30958723
v 0.11445459 -0.60905095 0.38760286
v 0.17136181 -0.60902399 0.27753493
v 0.21168093 -0.60911376 0.34727009
v 0.23803563 -0.60910348 0.22631044
v 0.29504292 -0.60896133 0.28324423
v 0.28934448 -0.60908050 0.15944178
v 0.32140958 -0.60898420 0.08177510
v 0.33249267 -0.60895576 -0.00166337
v 0.32139704 -0.60905879 0.08169380
v 0.35913300 -0.60898287 0.19969964
v 0.29505217 -0.60898835 0.28312728
v 0.28937183 -0.60899288 0.15943918
v 0.23814703 -0.60901118 0.22615879
v 0.21150118 -0.60901902 0.34722548
v 0.17125971 -0.60899628 0.27737049
v 0.11437537 -0.60895713 0.38741052
v 0.09346536 -0.60897500 0.30957824
v 0.01009137 -0.60906855 0.40130639
v 0.01017702 -0.60899971 0.32055642
v -0.07333601 -0.60897136 0.30971163
v -0.09409738 -0.60899713 0.38743076
v -0.15106410 -0.60908494 0.27741307
v -0.19134679 -0.60903585 0.34730877
v -0.21785311 -0.60907276 0.22620124
v -0.26896591 -0.60893878 0.15955893
v -0.27479736 -0.60892584 0.28326420
v -0.30127856 -0.60901377 0.08172272
v -0.31222334 -0.60907125 -0.00177459
v -0.33891067 -0.60911409 -0.20327218
v -0.33889519 -0.60896960 0.19977802
v -0.37912758 -0.60907666 -0.10592999
v -0.37918350 -0.60904801 0.10260724
v -0.39277769 -0.60897101 -0.00164457
v 0.41297776 -0.60911834 -0.00178909
v 0.39924472 -0.60895980 -0.10597529
v 0.39926240 -0.60905061 0.10252234
v 0.35900969 -0.60910482 -0.20314846
v 0.32141537 -0.60898182 -0.08515167
v 0.29511233 -0.60901616 -0.28668595
v 0.28932160 -0.60901537 -0.16285135
v 0.23808964 -0.60907356 -0.22973964
v 0.21152651 -0.60909127 -0.35073909
v 0.17123603 -0.60900557 -0.28094573
v 0.11441109 -0.60895197 -0.39091343
v 0.09353706 -0.60893545 -0.31303480
v 0.01004753 -0.60900588 -0.32409725
v 0.01007061 -0.60898740 -0.40476129
v -0.07336155 -0.60900397 -0.31309438
v -0.09413044 -0.60899923 -0.39086771
v -0.15100195 -0.60892237 -0.28082246
v -0.19131170 -0.60893413 -0.35058726
v -0.21792292 -0.60894457 -0.22974765
v -0.26914553 -0.60899772 -0.16299044
v -0.27478324 -0.60907076 -0.28655427
v -0.30120064 -0.60908109 -0.08514580
vn 0 -1 0
vn 0 1 0
usemtl material_0_0
f 1//1 2//1 3//1
f 2//1 1//1 4//1
f 4//1 1//1 5//1
f 5//1 1//1 6//1
f 5//1 6//1 7//1
f 7//1 6//1 8//1
f 8//1 6//1 9//1
f 8//1 9//1 10//1
f 10//1 9//1 11//1
f 10//1 11//1 12//1
f 12//1 11//1 13//1
f 12//1 13//1 14//1
f 14//1 13//1 15//1
f 15//1 13//1 16//1
f 15//1 16//1 17//1
f 17//1 16//1 18//1
f 17//1 18//1 19//1
f 19//1 18//1 20//1
f 20//1 18//1 21//1
f 20//1 21//1 22//1
f 22//1 21//1 23//1
f 23//1 21//1 24//1
f 24//1 21//1 25//1
f 24//1 25//1 26//1
f 27//1 28//1 29//1
f 28//1 27//1 30//1
f 30//1 27//1 3//1
f 30//1 3//1 31//1
f 31//1 3//1 2//1
f 31//1 2//1 32//1
f 31//1 32//1 33//1
f 31//1 33//1 34//1
f 34//1 33//1 35//1
f 34//1 35//1 36//1
f 34//1 36//1 37//1
f 37//1 36//1 38//1
f 37//1 38//1 39//1
f 39//1 38//1 40//1
f 39//1 40//1 41//1
f 39//1 41//1 42//1
f 42//1 41//1 43//1
f 42//1 43//1 44//1
f 44//1 43//1 45//1
f 44//1 45//1 46//1
f 46//1 45//1 47//1
f 46//1 47//1 48//1
f 46//1 48//1 23//1
f 23//1 48//1 22//1
usemtl material_1_0
f 49//2 50//2 51//2
f 51//2 50//2 52//2
f 50//2 53//2 52//2
f 53//2 54//2 52//2
f 52//2 54//2 55//2
f 54//2 56//2 55//2
f 55//2 56//2 57//2
f 56//2 58//2 57//2
f 57//2 58//2 59//2
f 58//2 60//2 59//2
f 60//2 61//2 59//2
f 59//2 61//2 62//2
f 61//2 63//2 62//2
f 62//2 63//2 64//2
f 63//2 65//2 64//2
f 65//2 66//2 64//2
f 64//2 66//2 67//2
f 66//2 68//2 67//2
f 68//2 69//2 67//2
f 69//2 70//2 67//2
f 67//2 70//2 71//2
f 70//2 72//2 71//2
f 71//2 72//2 73//2
f 74//2 73//2 72//2
f 75//2 76//2 77//2
f 76//2 78//2 77//2
f 77//2 78//2 51//2
f 51//2 78//2 49//2
f 49//2 78//2 79//2
f 78//2 80//2 79//2
f 79//2 80//2 81//2
f 81//2 80//2 82//2
f 80//2 83//2 82//2
f 82//2 83//2 84//2
f 83//2 85//2 84//2
f 84//2 85//2 86//2
f 86//2 85//2 87//2
f 85//2 88//2 87//2
f 87//2 88//2 89//2
f 88//2 90//2 89//2
f 89//2 90//2 91//2
f 90//2 92//2 91//2
f 91//2 92//2 93//2
f 93//2 92//2 94//2
f 92//2 95//2 94//2
f 94//2 95//2 96//2
f 96//2 95//2 69//2
f 70//2 69//2 95//2
