# SSTK version 0.8.0
# 7
mtllib original-7.mtl
o #ID52
v 0.02556638 0.94454221 0.24820799
v -0.00427076 0.93517806 0.29190686
v -0.00532920 0.94451377 0.24818877
v 0.02456500 0.93512965 0.29173465
v 0.02450135 0.93521878 0.29177207
v 0.02571132 0.94437972 0.24821514
v -0.00443442 0.93520623 0.29174834
v -0.00548508 0.94442905 0.24816269
v 0.02679965 0.95202305 0.20427784
v -0.00656082 0.95206381 0.20436169
v 0.02673175 0.95210168 0.20428191
v -0.00656809 0.95208782 0.20426664
v 0.02041475 0.88189538 0.46164844
v 0.02037811 0.88703985 0.46177629
v 0.02028466 0.88188776 0.47173228
v 0.02119022 0.90268906 0.43066159
v 0.02154847 0.89753857 0.42010018
v 0.02223490 0.92151511 0.38877748
v 0.02245192 0.91177692 0.37784265
v 0.02331852 0.93804800 0.34573537
v 0.02356032 0.92428370 0.33493222
v 0.02437072 0.95235220 0.30202167
v 0.02452853 0.93511464 0.29181582
v 0.02527563 0.96243284 0.26437912
v 0.02567118 0.94451105 0.24829028
v 0.02544075 0.96442097 0.25771815
v 0.02651406 0.97396889 0.21273053
v 0.02678895 0.95203625 0.20444968
v 0.02752860 0.98129684 0.16729367
v 0.02777568 0.95795089 0.16016432
v 0.02873149 0.98639585 0.12143138
v 0.02792937 0.95839557 0.15626455
v 0.02888073 0.96235537 0.11576745
v 0.02898259 0.96241099 0.11196495
v 0.02894427 0.96252151 0.11208381
v 0.02890176 0.96232219 0.11580066
v 0.02867226 0.98635228 0.12150163
v 0.02788311 0.95836020 0.15618062
v 0.02786790 0.95804358 0.16025467
v 0.02760062 0.98129143 0.16725965
v 0.02665474 0.95201691 0.20433170
v 0.02654956 0.97406300 0.21277241
v 0.02562484 0.94445070 0.24834621
v 0.02550170 0.96443091 0.25764626
v 0.02515166 0.96249036 0.26447116
v 0.02452871 0.93517391 0.29187948
v 0.02423058 0.95226706 0.30196700
v 0.02351279 0.92420344 0.33508045
v 0.02316947 0.93812542 0.34587186
v 0.02252950 0.91172377 0.37775532
v 0.02226073 0.92141984 0.38880314
v 0.02138960 0.89762343 0.41990296
v 0.02120677 0.90280452 0.43084319
v 0.02052347 0.88186782 0.46168224
v 0.02042914 0.88695660 0.46163579
v 0.02010470 0.88190562 0.47171576
v -0.00320284 0.92425621 0.33496661
v 0.02346518 0.92433035 0.33495770
v 0.02353466 0.92423766 0.33502439
v -0.00328440 0.92436182 0.33496609
v -0.00022435 0.88694872 0.46168189
v -0.00014362 0.88197279 0.46166625
v 0.00004490 0.88186295 0.47182076
v -0.00097717 0.90275420 0.43075148
v -0.00130725 0.89764856 0.41991507
v -0.00207978 0.92159390 0.38863809
v -0.00221822 0.91168786 0.37783316
v -0.00299508 0.93804999 0.34584515
v -0.00335527 0.92427669 0.33509812
v -0.00417272 0.95240157 0.30204453
v -0.00435403 0.93518801 0.29182907
v -0.00510961 0.96245078 0.26439224
v -0.00533101 0.94443984 0.24833215
v -0.00518082 0.96443557 0.25761544
v -0.00637478 0.97408004 0.21261777
v -0.00641441 0.95211683 0.20428270
v -0.00735900 0.98129914 0.16720254
v -0.00755422 0.95797836 0.16030334
v -0.00855177 0.98636695 0.12142741
v -0.00775478 0.95836891 0.15625007
v -0.00862493 0.96218401 0.11579466
v -0.00865046 0.96241788 0.11210474
v -0.00871160 0.96242297 0.11197233
v -0.00851146 0.98643754 0.12157441
v -0.00870948 0.96233213 0.11582549
v -0.00767999 0.95830123 0.15618292
v -0.00750623 0.95796361 0.16014043
v -0.00742082 0.98129760 0.16720186
v -0.00650741 0.95200500 0.20441530
v -0.00636046 0.97403934 0.21262473
v -0.00550122 0.94454645 0.24815565
v -0.00522186 0.96439882 0.25768903
v -0.00493152 0.96245805 0.26454764
v -0.00426840 0.93528437 0.29191826
v -0.00404413 0.95237328 0.30198744
v -0.00337165 0.92423983 0.33492989
v -0.00300537 0.93796754 0.34576082
v -0.00221718 0.91180603 0.37771313
v -0.00205815 0.92149607 0.38870248
v -0.00129938 0.89769904 0.41997705
v -0.00087735 0.90281023 0.43072712
v -0.00023300 0.88180050 0.46176457
v -0.00015924 0.88712629 0.46174667
v 0.00006288 0.88181998 0.47170979
v -0.00629211 0.95792524 0.16018789
v -0.00746441 0.95794931 0.16016327
v 0.01007899 0.95793592 0.16014924
v 0.02658271 0.95799999 0.16026917
v 0.02780522 0.95797622 0.16012062
v 0.02775917 0.95803932 0.16023249
v 0.02664240 0.95802771 0.16014465
v 0.01013565 0.95795330 0.16014768
v -0.00637856 0.95808290 0.16014503
v -0.00751451 0.95791185 0.16017621
v 0.02875811 0.98647322 0.12151792
v 0.04273072 0.96254533 0.11205329
v 0.02895707 0.96256714 0.11207148
v 0.04177331 0.96879746 0.11464092
v 0.04190013 0.96873999 0.11451711
v 0.02864283 0.98630034 0.12147444
v 0.04268286 0.96256961 0.11199498
v 0.02895552 0.96251356 0.11207098
v -0.00856313 0.98648986 0.12153092
v 0.02901594 0.96245523 0.11208715
v -0.00882979 0.96256241 0.11209730
v 0.02872933 0.98642543 0.12150390
v 0.02882248 0.98648241 0.12149067
v -0.00846975 0.98642927 0.12155383
v 0.02893440 0.96241596 0.11198166
v -0.00868332 0.96241191 0.11209261
v -0.00737599 0.98138085 0.16720622
v 0.02867930 0.98631411 0.12144067
v -0.00852493 0.98643213 0.12156522
v 0.02768733 0.98133707 0.16733478
v 0.02759850 0.98137681 0.16729882
v -0.00728937 0.98144575 0.16724742
v 0.02871358 0.98631648 0.12162185
v -0.00857594 0.98638887 0.12142660
v -0.00621116 0.97395539 0.21270860
v 0.02654629 0.97397470 0.21273254
v 0.02642734 0.97409981 0.21265793
v -0.00619330 0.97396341 0.21261862
v -0.00525228 0.96430087 0.25764065
v 0.02538939 0.96443557 0.25755957
v 0.02535399 0.96432452 0.25771149
v -0.00523024 0.96430163 0.25769413
v -0.00509075 0.96246328 0.26441452
v 0.02524633 0.96255009 0.26439887
v 0.02527294 0.96240358 0.26441650
v -0.00497472 0.96243267 0.26446198
v -0.00417883 0.95223323 0.30208759
v 0.02526848 0.96255741 0.26440756
v -0.00494493 0.96252391 0.26446201
v 0.02423110 0.95228440 0.30203914
v 0.02423481 0.95232112 0.30213067
v -0.00409784 0.95237717 0.30198305
v 0.02516926 0.96258169 0.26449701
v -0.00498705 0.96251146 0.26446973
v -0.00306835 0.93798652 0.34571128
v 0.02326706 0.93798057 0.34573470
v 0.02322936 0.93813222 0.34572628
v -0.00304724 0.93794658 0.34578880
v -0.00192260 0.92157115 0.38879280
v 0.02222647 0.92154549 0.38878873
v 0.02222530 0.92157034 0.38864647
v -0.00206084 0.92145396 0.38864589
v -0.00102919 0.90270106 0.43070431
v 0.02114481 0.90278044 0.43067685
v 0.02128722 0.90284280 0.43069346
v -0.00098651 0.90271806 0.43065519
v -0.00029294 0.88702237 0.46165437
v 0.02044251 0.88698593 0.46164522
v 0.02049855 0.88702410 0.46177192
v -0.00030206 0.88704909 0.46162128
v 0.00002092 0.88193737 0.47179572
v 0.02047615 0.88707427 0.46174308
v -0.00024871 0.88712192 0.46172314
v 0.00515828 0.88181427 0.47173123
v 0.01003120 0.88186185 0.47184639
v 0.02011470 0.88187845 0.47179164
v 0.02019234 0.88195223 0.47178730
v 0.01020203 0.88193490 0.47174582
v 0.02051050 0.88707671 0.46161798
v 0.00516850 0.88181688 0.47178703
v 0.00006289 0.88194532 0.47171395
v -0.00028493 0.88708243 0.46168814
v -0.00011692 0.88192281 0.46166216
v 0.00255878 0.88186633 0.46416049
v 0.00006850 0.88191289 0.47183335
v 0.02035372 0.88193112 0.46175796
v 0.01759152 0.88195830 0.46413130
v 0.01770912 0.88191548 0.46919192
v 0.02023037 0.88194029 0.47168976
v 0.00259122 0.88190557 0.46919275
v 0.00503733 0.88197129 0.47174653
v 0.01005671 0.88196801 0.47169067
v 0.02018097 0.88193004 0.47180823
v 0.01773447 0.88191427 0.46932363
v 0.01007927 0.88186461 0.47180764
v 0.00500552 0.88194330 0.47175610
v 0.00254575 0.88186077 0.46925712
v 0.00252929 0.88183992 0.46420631
v 0.00001584 0.88190955 0.47174726
v 0.02037333 0.88194709 0.46158408
v 0.01766528 0.88190660 0.46413435
v -0.00017229 0.88196756 0.46177580
v 0.02154803 0.89764083 0.42006243
v -0.00119137 0.89763888 0.41997591
v 0.02145088 0.89772342 0.42003802
v -0.00131414 0.89771448 0.42001232
v 0.02251966 0.91184948 0.37782413
v -0.00220979 0.91173511 0.37782401
v 0.02245125 0.91170533 0.37769553
v -0.00220935 0.91172037 0.37767083
v -0.00775052 0.95830695 0.15615551
v 0.02888247 0.96229620 0.11583806
v -0.00869847 0.96223960 0.11582760
v -0.00638933 0.95800460 0.16013929
v 0.01011504 0.95800053 0.16012496
v 0.02648984 0.95795582 0.16028651
v 0.02781568 0.95844497 0.15628519
v 0.02795090 0.95844786 0.15628161
v 0.02654861 0.95807899 0.16028088
v 0.02881517 0.96220613 0.11587779
v 0.01003448 0.95805606 0.16030647
v -0.00634763 0.95791433 0.16024000
v -0.00770882 0.95838471 0.15611926
v -0.00868909 0.96235327 0.11577992
v 0.04138771 0.96221149 0.11587252
v 0.02881556 0.96222350 0.11577118
v 0.02784873 0.95833358 0.15615527
v 0.02797958 0.95834083 0.15621559
v 0.02891590 0.96222820 0.11596067
v 0.04141225 0.96230577 0.11577908
v 0.02886870 0.96253556 0.11199009
v -0.00871900 0.96250276 0.11213594
v 0.02901759 0.96246946 0.11205805
v -0.00875181 0.96251430 0.11197493
v 0.02901049 0.96255161 0.11203852
v 0.04265586 0.96258277 0.11204994
v 0.04261814 0.96255236 0.11208505
v 0.02900595 0.96258463 0.11213639
v -0.00967359 0.98895029 0.07559306
v -0.00873859 0.96245753 0.11208453
v -0.00852244 0.98641790 0.12149869
v -0.01004841 0.96252764 0.05872659
v -0.01003330 0.98895207 0.05878369
v -0.01011625 0.98908776 0.05879761
v -0.00952494 0.98897272 0.07552317
v -0.01002509 0.96243754 0.05880416
v -0.00876994 0.96250885 0.11210390
v -0.00846512 0.98637906 0.12150270
v -0.02160406 0.96888984 0.11455385
v -0.00876222 0.96247259 0.11212121
v -0.02249302 0.96251993 0.11202355
v -0.00855180 0.98642536 0.12155230
v -0.00845188 0.98638501 0.12146652
v -0.02154394 0.96874101 0.11445303
v -0.00880433 0.96246579 0.11199699
v -0.02246575 0.96255260 0.11201072
v -0.02120666 0.96235370 0.11593412
v -0.00882726 0.96247365 0.11199681
v -0.02245815 0.96239590 0.11214345
v -0.00870152 0.96225903 0.11584678
v -0.00856375 0.96230066 0.11578688
v -0.02121048 0.96230708 0.11590994
v -0.00869128 0.96239615 0.11211183
v -0.02233184 0.96248593 0.11213864
v -0.00765859 0.95846066 0.15626631
v -0.00756899 0.95838638 0.15623743
v -0.01000511 0.92211981 0.05874183
v -0.02745935 0.93483601 0.09456330
v -0.03008525 0.92222766 0.05869591
v -0.02607170 0.93686947 0.10047886
v -0.02337959 0.94001608 0.10954335
v -0.00624848 0.95808838 0.16025433
v 0.03019389 0.92210942 0.05863784
v 0.01001987 0.95803750 0.16011684
v 0.02647975 0.95798273 0.16010934
v 0.04351714 0.94008307 0.10943987
v 0.05045261 0.92219355 0.05871276
v 0.04761618 0.93520314 0.09555157
v 0.04773586 0.93526955 0.09561845
v 0.05034597 0.92210339 0.05866282
v 0.04352433 0.94001750 0.10949353
v 0.03020208 0.92209655 0.05863392
v 0.02656282 0.95799010 0.16016789
v 0.01009247 0.95798796 0.16012944
v -0.00625019 0.95806248 0.16021351
v -0.00995251 0.92211630 0.05866407
v -0.02323259 0.94011989 0.10948103
v -0.02588741 0.93698867 0.10048053
v -0.02757893 0.93480838 0.09474117
v -0.03026189 0.92221272 0.05869494
v 0.04182786 0.96877268 0.11445962
v 0.05351213 0.98838017 0.07247547
v 0.02882241 0.98644558 0.12145985
v 0.04342650 0.97055759 0.10942936
v 0.04899553 0.97813223 0.09147425
v 0.05124421 0.98276057 0.08237647
v 0.05337124 0.98798511 0.07315063
v 0.05347286 0.98812014 0.07312934
v 0.05126912 0.98288704 0.08234729
v 0.05343152 0.98835350 0.07249660
v 0.04896269 0.97826669 0.09142176
v 0.04345415 0.97059398 0.10949213
v 0.04174813 0.96879954 0.11459409
v 0.02869943 0.98642557 0.12158109
v 0.04272919 0.96242054 0.11211513
v 0.04354872 0.96820101 0.10950771
v 0.04341776 0.96374242 0.10944780
v 0.04348926 0.96377922 0.10946344
v 0.04274904 0.96239169 0.11204489
v 0.04353298 0.96821136 0.10946219
v 0.04265532 0.96240559 0.11195758
v 0.03020446 0.96243411 0.05871667
v 0.02903352 0.96241249 0.11207914
v 0.05037201 0.96256212 0.05876790
v 0.04352887 0.96246213 0.10949022
v 0.04780487 0.96239164 0.09557671
v 0.04761620 0.96254071 0.09553678
v 0.04348176 0.96258092 0.10948250
v 0.05040047 0.96247054 0.05875331
v 0.04260197 0.96255928 0.11211368
v 0.03027807 0.96252804 0.05866140
v 0.02899851 0.96245599 0.11204938
v -0.00877511 0.96254011 0.11211452
v -0.00998994 0.96240986 0.05882004
v -0.00864150 0.96241294 0.11202599
v -0.00998883 0.96248414 0.05874095
v -0.00858583 0.98635695 0.12158167
v 0.02989170 0.98907209 0.07567069
v -0.00969247 0.98903877 0.07552019
v 0.02864717 0.98648419 0.12144329
v 0.02872465 0.98629469 0.12159641
v -0.00840775 0.98642887 0.12149891
v 0.02975676 0.98896399 0.07556942
v -0.00968881 0.98897272 0.07565737
v 0.04353966 0.94002875 0.10941284
v 0.02784007 0.95833183 0.15619934
v 0.02658501 0.95799444 0.16010791
v 0.04135904 0.96219411 0.11583868
v 0.04271818 0.96250768 0.11197939
v 0.04348266 0.96251585 0.10937318
v 0.04354996 0.96251327 0.10943280
v 0.04342478 0.94006021 0.10948891
v 0.04268898 0.96247551 0.11196916
v 0.04131828 0.96229535 0.11595454
v 0.02789302 0.95844770 0.15626030
v 0.02646030 0.95800087 0.16016926
v -0.00758737 0.95846102 0.15612817
v -0.02329062 0.94016859 0.10938571
v -0.00642039 0.95799434 0.16020065
v -0.02111140 0.96226123 0.11594567
v -0.02244554 0.96239682 0.11205944
v -0.02337304 0.96244664 0.10937488
v -0.02335506 0.96247270 0.10954216
v -0.02251917 0.96247903 0.11213638
v -0.02321165 0.94003142 0.10946437
v -0.02115581 0.96224856 0.11594284
v -0.00773369 0.95830720 0.15614353
v -0.00623974 0.95809255 0.16018234
v -0.00849236 0.98636659 0.12152437
v -0.03240142 0.98846881 0.07428111
v -0.00968800 0.98900849 0.07568164
v -0.00958458 0.98898442 0.07558853
v -0.03234398 0.98838611 0.07415561
v -0.00842599 0.98637170 0.12149121
v -0.03470021 0.98900845 0.06171279
v -0.01008490 0.98902631 0.05865245
v -0.03528418 0.98896896 0.05880465
v -0.03464287 0.98892268 0.06183196
v -0.00998501 0.98893652 0.05865507
v -0.03516930 0.98909194 0.05879717
v 0.03025382 0.98905340 0.05878657
v -0.01009279 0.98892958 0.05881381
v 0.03028102 0.98895291 0.05864408
v -0.01004934 0.98894099 0.05869680
v -0.01012040 0.98895622 0.05882651
v 0.03032249 0.96246740 0.05878323
v -0.00994852 0.96257563 0.05882655
v 0.03030777 0.98892015 0.05867217
v 0.03016304 0.98903904 0.05865050
v -0.00996911 0.98907815 0.05863761
v 0.03026338 0.96257089 0.05878027
v -0.01011373 0.96254751 0.05873932
v -0.01000332 0.98894355 0.05866960
v -0.03014307 0.96254496 0.05878147
v -0.01001700 0.96243038 0.05866627
v -0.03531815 0.96258467 0.05879925
v -0.03516230 0.98897178 0.05867929
v -0.03524931 0.98906864 0.05866904
v -0.01011730 0.98905716 0.05882608
v -0.03518491 0.96252826 0.05882068
v -0.03021517 0.96240646 0.05868857
v -0.01006385 0.96240312 0.05877565
v -0.02759690 0.96252856 0.09473961
v -0.03010359 0.96249490 0.05878806
v -0.02599777 0.96244523 0.10037515
v -0.02329466 0.96248913 0.10951896
v -0.02241498 0.96242119 0.11205195
v -0.02236474 0.96241845 0.11206179
v -0.02321198 0.96244636 0.10950430
v -0.02597317 0.96239538 0.10053361
v -0.02764434 0.96251349 0.09463671
v -0.03025596 0.96240120 0.05863330
v -0.02157911 0.96883452 0.11451915
v -0.03242740 0.98838685 0.07417319
v -0.00856537 0.98642118 0.12152348
v -0.02338051 0.97065145 0.10946197
v -0.02588435 0.97460253 0.10039433
v -0.02845302 0.97882096 0.09138552
v -0.03060046 0.98365855 0.08218352
v -0.03074378 0.98371518 0.08223399
v -0.02854485 0.97880116 0.09146903
v -0.03246313 0.98828143 0.07413903
v -0.02593299 0.97458337 0.10038364
v -0.02331736 0.97070711 0.10947589
v -0.02157021 0.96877366 0.11451307
v -0.00857167 0.98635380 0.12151981
v -0.02239973 0.96239493 0.11196996
v -0.02334637 0.96371623 0.10937424
v -0.02325572 0.96373417 0.10953880
v -0.02233638 0.96248990 0.11200703
v -0.02590337 0.93696535 0.10043336
v -0.02600526 0.96249933 0.10036318
v -0.02606967 0.96239243 0.10047881
v -0.02589742 0.93685670 0.10053423
v -0.02758243 0.93496121 0.09473633
v -0.02748264 0.96249398 0.09466577
v -0.02756923 0.96253324 0.09475349
v -0.02752771 0.93490239 0.09464268
v -0.03010834 0.92226076 0.05875798
v -0.03009642 0.96245298 0.05869343
v -0.03013131 0.96239595 0.05865179
v -0.03014676 0.92216013 0.05870815
v -0.03018827 0.92217825 0.05882385
v 0.05039526 0.88192431 0.05882259
v -0.03016541 0.88192333 0.05874425
v 0.05050848 0.92213504 0.05877485
v -0.01011223 0.92227794 0.05877974
v 0.03024725 0.92228141 0.05866288
v 0.03020708 0.92229366 0.05874809
v -0.00997581 0.92228302 0.05872087
v 0.05050342 0.92215145 0.05877952
v -0.03027419 0.92224155 0.05866476
v 0.05046079 0.88197507 0.05878654
v -0.03008525 0.88193309 0.05875089
v -0.03019704 0.96247500 0.05871197
v -0.03009525 0.96258865 0.05873166
v 0.05041961 0.96248991 0.05865300
v 0.05042294 0.96252903 0.05864106
v 0.04779356 0.93516358 0.09564994
v 0.05045989 0.96253778 0.05868962
v 0.04763987 0.96241579 0.09566552
v 0.05049498 0.92223898 0.05879293
v 0.05047968 0.92219438 0.05875416
v 0.04764739 0.93522023 0.09559293
v 0.05041464 0.96240616 0.05878080
v 0.04761529 0.96244106 0.09553243
v 0.04601015 0.96767152 0.10157320
v 0.04896712 0.97279595 0.09148320
v 0.04898007 0.97272136 0.09145310
v 0.04596512 0.96776431 0.10155925
v 0.05122524 0.97737474 0.08233465
v 0.05129028 0.97732142 0.08236245
v 0.05332404 0.98178182 0.07317496
v 0.05336994 0.98183261 0.07308061
v 0.05353674 0.98214472 0.07239358
v 0.05523763 0.98644459 0.06383009
v 0.05523261 0.98884250 0.06393790
v 0.05526124 0.98873442 0.06392063
v 0.05516060 0.98637132 0.06386830
v 0.05352734 0.98219036 0.07252540
v 0.05350602 0.98851799 0.07244352
v 0.05343103 0.98851336 0.07253350
v 0.04273240 0.96247422 0.11199926
v 0.04348178 0.96258105 0.10951372
v 0.04355311 0.96252760 0.10952015
v 0.04262328 0.96246002 0.11211767
v 0.04774218 0.96240358 0.09555992
v 0.04591327 0.96781120 0.10159308
v 0.04906454 0.97271064 0.09153510
v 0.04902144 0.96250436 0.09143808
v 0.04902876 0.96256276 0.09147994
v 0.04767372 0.96255219 0.09563654
v 0.04899811 0.97280956 0.09140385
v 0.04587337 0.96767051 0.10147869
v 0.05049768 0.96253240 0.05869817
v 0.04896179 0.96257186 0.09147460
v 0.04773160 0.96244984 0.09563845
v 0.05131573 0.96255481 0.08240737
v 0.05595626 0.96242950 0.05871007
v 0.05347818 0.96248388 0.07307452
v 0.05523546 0.96253044 0.06383572
v 0.05512346 0.96257917 0.06393227
v 0.05604549 0.96241120 0.05869900
v 0.05341577 0.96257290 0.07316579
v 0.05129859 0.96246260 0.08241741
v 0.05046072 0.96241104 0.05875606
v 0.04907053 0.96256591 0.09141450
v 0.04771948 0.96250364 0.09563932
v 0.05603337 0.98910064 0.05875307
v 0.05041987 0.96248449 0.05878982
v 0.05594462 0.96242874 0.05863505
v 0.03022101 0.96245943 0.05882357
v 0.03019117 0.98902184 0.05881392
v 0.03018229 0.98904581 0.05864286
v 0.05593855 0.98905178 0.05877045
v 0.03021397 0.96249466 0.05863916
v 0.05038958 0.96240638 0.05863897
v 0.05596323 0.96244016 0.05867475
v -0.02330949 0.96256949 0.10937210
v -0.02246859 0.96245162 0.11200209
v -0.02244679 0.96253844 0.11214152
v -0.02323551 0.96241894 0.10937765
v -0.03272727 0.98835878 0.07301420
v -0.03276096 0.98840620 0.07312421
v -0.03977257 0.98908076 0.01710116
v -0.04034544 0.98903652 -0.06224141
v -0.04025869 0.98897010 -0.00167404
v 0.06053813 0.98898483 -0.06221341
v -0.03909967 0.98902572 0.02655198
v -0.03839625 0.98901852 0.03580596
v -0.03720997 0.98907361 0.04519290
v -0.03608618 0.98901302 0.05442966
v -0.03516272 0.98908058 0.05864023
v -0.01006199 0.98897377 0.05881348
v 0.03035444 0.98902169 0.05870243
v 0.05595372 0.98910791 0.05871442
v 0.05802135 0.98906772 0.04536419
v 0.05908872 0.98903831 0.03597978
v 0.05976105 0.98898530 0.02652455
v 0.06041058 0.98904080 0.01720861
v 0.06052267 0.98894446 -0.00175894
v 0.06044483 0.98897498 -0.00163440
v 0.06026441 0.98895469 0.01710264
v 0.06042250 0.98907512 -0.06215309
v 0.05990619 0.98902883 0.02655774
v 0.05899290 0.98899325 0.03601072
v 0.05811173 0.98907988 0.04527070
v 0.05599100 0.98897240 0.05862897
v 0.03033401 0.98897814 0.05864492
v -0.01001839 0.98896520 0.05882327
v -0.03530206 0.98893021 0.05876415
v -0.03608358 0.98905265 0.05455904
v -0.03721585 0.98899307 0.04527054
v -0.03843878 0.98893476 0.03579926
v -0.03918478 0.98898193 0.02646508
v -0.03969591 0.98898602 0.01717723
v -0.04025590 0.98904179 -0.06222187
v -0.04026261 0.98902694 -0.00164059
v -0.03471087 0.98904940 0.06180584
v -0.03274439 0.98190786 0.07300362
v -0.03264295 0.98850788 0.07312525
v -0.03528530 0.98902406 0.05864461
v -0.03527096 0.98896231 0.05865180
v -0.03473473 0.98908834 0.06174306
v -0.03261640 0.98189088 0.07303641
v -0.03277472 0.98833368 0.07305263
v 0.05563763 0.98910911 0.06151526
v 0.05601598 0.98902718 0.05875527
v 0.05603047 0.98908158 0.05865026
v 0.05549875 0.98895785 0.06133067
v -0.03513835 0.96249573 0.05872676
v -0.03261928 0.96244184 0.07310590
v -0.03529494 0.98907233 0.05869572
v -0.03530957 0.98891984 0.05870029
v -0.03529785 0.96252391 0.05867929
v -0.03259718 0.96258105 0.07300768
v -0.03605028 0.98904542 0.05449677
v -0.03521845 0.96258200 0.05868302
v -0.03529095 0.98905671 0.05873318
v -0.03594863 0.96240037 0.05443162
v -0.03591600 0.96251584 0.05448273
v -0.03593237 0.98893965 0.05443138
v -0.03517326 0.96255956 0.05873261
v -0.03532006 0.98910017 0.05871370
v -0.03008324 0.96248017 0.05872026
v -0.03259649 0.96254737 0.07295071
v -0.03529680 0.96256175 0.05870374
v -0.03068478 0.96244859 0.08220402
v -0.02840758 0.96247458 0.09139036
v -0.02754514 0.96246199 0.09472715
v -0.02763002 0.96250106 0.09467288
v -0.03017916 0.96255380 0.05870929
v -0.02844787 0.96252273 0.09136439
v -0.03075348 0.96245533 0.08228942
v -0.03272107 0.96249327 0.07313232
v -0.03521510 0.96242306 0.05880796
v -0.03008988 0.96254808 -0.06222408
v -0.04033884 0.96242901 -0.00178527
v -0.04021194 0.96242165 -0.06209783
v -0.03982317 0.96245971 0.01704276
v -0.03925184 0.96242311 0.02638637
v -0.03836290 0.96250124 0.03586667
v -0.03736988 0.96242166 0.04513069
v -0.03590452 0.96243625 0.05448702
v -0.03016574 0.96244552 -0.06212867
v -0.03602758 0.96255686 0.05442357
v -0.03738750 0.96258134 0.04517352
v -0.03834889 0.96239495 0.03585651
v -0.03919134 0.96252552 0.02641327
v -0.03984657 0.96244133 0.01706065
v -0.04033570 0.96245875 -0.00178507
v -0.04020676 0.96255955 -0.06220760
v -0.02592646 0.96832150 0.10046539
v -0.02764733 0.96246265 0.09466815
v -0.02599238 0.96254123 0.10049872
v -0.02837835 0.97281246 0.09142305
v -0.02839802 0.96242208 0.09143957
v -0.02844559 0.96241702 0.09145649
v -0.02839557 0.97273625 0.09129983
v -0.02752845 0.96250596 0.09466796
v -0.02594049 0.96819203 0.10053737
v -0.02599059 0.96252475 0.10037203
v -0.03061395 0.97726207 0.08213613
v -0.03066038 0.97733734 0.08230190
v -0.03016541 0.96256723 -0.06218753
v -0.03016365 0.92229334 0.05880140
v -0.03017111 0.96243501 0.05869779
v -0.03023832 0.88193240 0.05868215
v -0.03017323 0.88195140 -0.06206876
v -0.03010710 0.88187029 -0.06208930
v -0.03027827 0.96258189 -0.06217912
v -0.03026622 0.88194868 0.05867250
v -0.03008709 0.92218537 0.05869948
v -0.03009003 0.96250576 0.05881640
v 0.05045428 0.88197133 -0.06223833
v 0.05034607 0.92219177 0.05865242
v 0.05031764 0.88187367 0.05862918
v 0.05045064 0.96241765 0.05863522
v 0.05034130 0.96252584 -0.06213139
v 0.05036838 0.96254728 -0.06221138
v 0.05041363 0.88191295 -0.06207902
v 0.05035793 0.96254113 0.05875640
v 0.05043201 0.92212691 0.05873281
v 0.05032369 0.88181703 0.05865765
v 0.00016034 0.88181479 0.01312812
v 0.05046215 0.88186178 0.05877398
v -0.03026857 0.88188330 0.05865539
v 0.00107407 0.88197339 0.01382138
v 0.00546860 0.88185253 0.01572486
v 0.01009753 0.88193842 0.01638926
v 0.01470319 0.88199312 0.01565438
v 0.01907397 0.88191342 0.01396108
v 0.02001922 0.88197275 0.01324189
v 0.02006804 0.88188630 0.01310431
v 0.01903689 0.88188956 0.01379926
v 0.05043413 0.88194361 0.05879438
v 0.01476206 0.88191031 0.01565871
v 0.01001967 0.88191756 0.01627349
v 0.00549089 0.88181518 0.01570643
v 0.00100468 0.88196845 0.01381779
v 0.00017707 0.88189511 0.01315987
v -0.03015246 0.88180065 0.05878972
v 0.04591478 0.96765467 0.10155733
v 0.05351770 0.98213050 0.07251859
v 0.04514212 0.97405710 0.08892977
v 0.04898732 0.97267956 0.09141819
v 0.05132262 0.97719194 0.08227784
v 0.05346242 0.98180900 0.07312114
v 0.05342813 0.98181297 0.07322575
v 0.05125566 0.97723560 0.08236044
v 0.05356640 0.98222601 0.07258037
v 0.04902025 0.97284039 0.09143748
v 0.04597703 0.96769539 0.10152472
v 0.04511522 0.97398490 0.08903517
v 0.05126136 0.97731560 0.08229149
v 0.05140208 0.96247420 0.08223579
v 0.05123690 0.96240718 0.08231668
v 0.05133978 0.97723695 0.08237262
v 0.05334683 0.98187583 0.07322846
v 0.05337801 0.96254035 0.07306550
v 0.05335489 0.96257743 0.07306902
v 0.05347759 0.98181628 0.07314097
v 0.05601219 0.98902917 0.05877615
v 0.05550378 0.98892934 0.06149731
v 0.05567449 0.98903869 0.06148820
v 0.05603573 0.98901583 0.05876719
v 0.05514349 0.98874141 0.06387659
v 0.05514040 0.98886387 0.06389985
v 0.05361423 0.98222650 0.07247099
v 0.05531041 0.96239163 0.06393687
v 0.05524575 0.96252828 0.06397174
v 0.05358123 0.98226459 0.07243840
v 0.06043239 0.96240553 -0.06216863
v 0.05040744 0.96253678 0.05871283
v 0.05043909 0.96246510 -0.06219632
v 0.05592934 0.96242517 0.05877800
v 0.05797893 0.96255444 0.04536112
v 0.05905709 0.96257677 0.03599999
v 0.05985444 0.96249401 0.02657828
v 0.06033026 0.96246282 0.01718116
v 0.06039368 0.96240226 -0.00181170
v 0.06046380 0.96243865 -0.00176612
v 0.06051324 0.96257298 -0.06222812
v 0.06029138 0.96252446 0.01710353
v 0.05982485 0.96255852 0.02648909
v 0.05902439 0.96244801 0.03587738
v 0.05800952 0.96253222 0.04527407
v 0.05595224 0.96257114 0.05881794
v 0.05050541 0.96258365 0.05876443
v 0.05046995 0.96255649 -0.06221936
v 0.05590725 0.98894246 0.05874265
v 0.05591127 0.96243925 0.05862734
v 0.05610585 0.96245905 0.05869951
v 0.05599842 0.98898138 0.05878223
v 0.05814762 0.96240710 0.04522062
v 0.05599605 0.98900027 0.05879686
v 0.05595953 0.96258431 0.05874967
v 0.05804217 0.98892322 0.04521715
v 0.05802215 0.98896384 0.04525877
v 0.05810602 0.96255283 0.04530164
v 0.05595936 0.98905418 0.05880516
v 0.05599977 0.96240356 0.05867600
v 0.05899363 0.96250352 0.03591297
v 0.05913062 0.98896496 0.03581965
v 0.05913595 0.98907473 0.03592624
v 0.05912114 0.96239672 0.03581560
v 0.05987416 0.96252695 0.02661813
v 0.05973795 0.98896366 0.02653866
v 0.05976811 0.98894956 0.02644698
v 0.05974284 0.96241798 0.02653685
v 0.06034148 0.96248448 0.01710330
v 0.06025538 0.98907684 0.01712824
v 0.06030042 0.98899687 0.01718548
v 0.06028606 0.96258045 0.01712665
v 0.06046941 0.96253566 -0.00181249
v 0.06055922 0.98899191 -0.00163598
v 0.06042640 0.98902984 -0.00181067
v 0.06049490 0.96255260 -0.00176863
v 0.06041532 0.96252849 -0.06221809
v 0.06056701 0.98894119 -0.06218185
v 0.06040959 0.98901729 -0.06207731
v 0.06043628 0.96247006 -0.06218648
v -0.04018890 0.98908701 -0.06221221
v -0.03019758 0.96239414 -0.06207957
v -0.04022965 0.96253330 -0.06221100
v 0.05041126 0.96257435 -0.06208863
v 0.06045760 0.96257956 -0.06219737
v 0.06039922 0.98901649 -0.06209065
v 0.05047320 0.88181524 -0.06218173
v -0.03018581 0.88180250 -0.06211599
v 0.05040255 0.96248210 -0.06210878
v -0.03013711 0.96256779 -0.06223042
v 0.05039621 0.88188250 -0.06225350
v -0.03022838 0.88188802 -0.06208084
v 0.06054320 0.98903358 -0.06215110
v -0.04029698 0.98899006 -0.06207876
v 0.06050765 0.96257238 -0.06207631
v -0.04031432 0.96242423 -0.06216129
v -0.04023900 0.98909610 -0.06214980
v -0.04023312 0.96241163 -0.00172917
v -0.04018131 0.98911129 -0.00175702
v -0.04021699 0.96241437 -0.06218273
v -0.04028926 0.96250923 -0.06219275
v -0.04021273 0.98898921 -0.06223413
v -0.04025488 0.96257068 -0.00168205
v -0.04030808 0.98904217 -0.00173800
v -0.03972912 0.96252485 0.01707904
v -0.03977783 0.98903711 0.01715741
v -0.03975351 0.96250232 0.01703806
v -0.03985105 0.98894566 0.01710638
v -0.03918959 0.96258550 0.02639203
v -0.03928352 0.98892019 0.02652881
v -0.03909064 0.96244636 0.02657454
v -0.03913952 0.98897205 0.02651330
v -0.03843352 0.96258999 0.03582050
v -0.03827499 0.98897177 0.03575566
v -0.03828068 0.96256358 0.03591414
v -0.03833350 0.98900406 0.03581713
v -0.03728587 0.96240660 0.04529889
v -0.03731325 0.98904686 0.04527072
v -0.03725699 0.96249970 0.04511573
v -0.03719262 0.98898665 0.04512353
v -0.03064925 0.96248284 0.08217198
v -0.03060666 0.96239219 0.08230419
v -0.03027714 0.88190994 -0.06219667
v -0.00729579 0.88199080 -0.00631349
v -0.00552066 0.88184419 -0.01077117
v -0.00267532 0.88180360 -0.01455946
v 0.00024116 0.88192541 -0.01659613
v -0.00799672 0.88185103 -0.00179421
v -0.00262296 0.88198628 0.01105000
v -0.00547939 0.88180877 0.00726793
v -0.00732254 0.88186616 0.00287286
v -0.00792094 0.88189396 -0.00175312
v -0.00736191 0.88188324 0.00295647
v -0.00553567 0.88182257 0.00721444
v -0.00270182 0.88185139 0.01103085
v -0.00729606 0.88184298 -0.00632356
v 0.00027811 0.88181658 -0.01658597
v -0.03024793 0.88185073 -0.06212944
v -0.00267856 0.88193829 -0.01452978
v -0.00555270 0.88186919 -0.01064569
v 0.05039165 0.88187492 -0.06208360
v 0.02288641 0.88199457 -0.01451269
v 0.02001335 0.88180069 -0.01663793
v 0.02580831 0.88180973 -0.01063803
v 0.02742756 0.88184025 -0.00644594
v 0.02812426 0.88181689 -0.00172033
v 0.02287796 0.88197460 0.01093914
v 0.02573372 0.88199683 0.00721179
v 0.02744216 0.88184577 0.00303338
v 0.05040185 0.88196485 -0.06216851
v 0.02818288 0.88185448 -0.00162919
v 0.02746350 0.88194879 0.00297050
v 0.02574568 0.88184097 0.00727166
v 0.02294264 0.88193273 0.01107287
v 0.02760982 0.88191965 -0.00643427
v 0.02572838 0.88197535 -0.01070274
v 0.02285871 0.88183074 -0.01442809
v 0.01997253 0.88183602 -0.01656083
v 0.01012733 0.88189315 -0.00176581
v 0.01006320 0.88196906 -0.00166397
v 0.00119459 0.88189021 -0.01742032
v 0.00539331 0.88184604 -0.01911088
v 0.01014124 0.88188391 -0.01967570
v 0.01482779 0.88198955 -0.01916983
v 0.01904826 0.88183783 -0.01738655
v 0.01916207 0.88187461 -0.01732650
v 0.01474683 0.88196916 -0.01918113
v 0.01008435 0.88182478 -0.01965445
v 0.00540920 0.88191100 -0.01904473
v 0.00118882 0.88188239 -0.01724818
vn 0 -0.9819642455972506 -0.18906670877926296
vn 0 -0.9741057689233573 -0.22609279278702074
vn 0 0.9741057689233573 0.22609279278702074
vn 0 0.9819642455972506 0.18906670877926296
vn 0 -0.9884158062775869 -0.15177020096391705
vn 0 0.9884158062775869 0.15177020096391705
vn 0.9997026907084483 0 0.02438298977337681
vn -0.9997026907084483 0 -0.02438298977337681
vn 0 -0.964851609781352 -0.2627953026641336
vn 0 0.964851609781352 0.2627953026641336
vn -0.9997026907084483 0 0.02438298977337681
vn 0.9997026907084483 0 -0.02438298977337681
vn 0 -0.9910722639383843 -0.1333257951487459
vn 0 0.9910722639383843 0.1333257951487459
vn 0 0.3687073166575446 -0.9295455419952232
vn 0 -0.3687073166575446 0.9295455419952232
vn 0 0.9909870781127327 0.13395749704137078
vn 0 0.9940767543190279 0.1086802950057968
vn 0 -0.9909870781127327 -0.13395749704137078
vn 0 -0.9940767543190279 -0.1086802950057968
vn 0 0.9827347172017247 0.18502020323858184
vn 0 -0.9827347172017247 -0.18502020323858184
vn 0 0.9718528025894775 0.23558890062772098
vn 0 -0.9718528025894775 -0.23558890062772098
vn 0 0.9653334758616725 0.2610196934731585
vn 0 -0.9653334758616725 -0.2610196934731585
vn 0 0.9583703072273915 0.2855282021532641
vn 0 -0.9583703072273915 -0.2855282021532641
vn 0 0.9423231343411483 0.3347045121976604
vn 0 -0.9423231343411483 -0.3347045121976604
vn 0 0.9237540692125475 0.38298618723559746
vn 0 -0.9237540692125475 -0.38298618723559746
vn 0 0.9027126854534621 0.4302438930669426
vn 0 -0.9027126854534621 -0.4302438930669426
vn 0 0.8911199074647242 0.4537679038011187
vn 0 -0.8911199074647242 -0.4537679038011187
vn 0 -0.9832737572920558 -0.18213379208912112
vn 0 -1 0
vn 0 1 0
vn 0 0.9832737572920558 0.18213379208912112
vn 0 -0.942211014641488 -0.33502000520604364
vn 0 0.942211014641488 0.33502000520604364
vn 0 -0.9542149725014856 -0.29912169137992783
vn 0 0.9542149725014856 0.29912169137992783
vn 0 0.9954076864959676 0.0957263687013444
vn 0 0.997063453439591 0.07657982642391083
vn 0 -0.9954076864959676 -0.0957263687013444
vn 0 -0.997063453439591 -0.07657982642391083
vn 0 0.997331443477636 0.0730067931826561
vn 0 0.9970184189275949 0.07716393146489557
vn 0 -0.9970184189275949 -0.07716393146489557
vn 0 -0.997331443477636 -0.0730067931826561
vn 0 0.9983171722075193 0.057989858385601445
vn 0 -0.9983171722075193 -0.057989858385601445
vn 0 -0.9430120811073852 0.3327584933334064
vn 0 0.9430120811073852 -0.3327584933334064
vn 0.8922615525999533 0.23709641397713505 0.38425852265252863
vn 0.9680245737359354 0.07760763789437984 0.23854869352779007
vn 0.7995165859889277 0.42727929251217384 0.42214409260216557
vn 0.9033225777381664 0.21593109467850985 0.37065089086553504
vn 0.9112126462147521 0.21470031088913943 0.35156121783043137
vn 0.9166540723173636 0.21716949344155623 0.33553348986700454
vn 0.9215686989417168 0.2177494997499473 0.3213973996309234
vn -0.9215686989417168 -0.2177494997499473 -0.3213973996309234
vn -0.9166540723173636 -0.21716949344155623 -0.33553348986700454
vn -0.9680245737359354 -0.07760763789437984 -0.23854869352779007
vn -0.9112126462147521 -0.21470031088913943 -0.35156121783043137
vn -0.9033225777381664 -0.21593109467850985 -0.37065089086553504
vn -0.8922615525999533 -0.23709641397713505 -0.38425852265252863
vn -0.7995165859889277 -0.42727929251217384 -0.42214409260216557
vn 0.9483819384797586 0 0.31713041286728605
vn 0.9528113048584181 0 0.30356320154787936
vn -0.9528113048584181 0 -0.30356320154787936
vn -0.9483819384797586 0 -0.31713041286728605
vn 0 0.9983663701945112 0.057136598294229395
vn 0.010815769626965437 0.9993853655313217 0.033345318849924276
vn 0 0.9996040858192339 0.0281366596008428
vn 0.006936221922696688 0.9983326888737091 0.057303849361356116
vn -0.006936221922696688 -0.9983326888737091 -0.057303849361356116
vn 0 -0.9983663701945112 -0.057136598294229395
vn -0.010815769626965437 -0.9993853655313217 -0.033345318849924276
vn 0 -0.9996040858192339 -0.0281366596008428
vn 0.9537009667667405 0 0.30075648951965156
vn -0.9537009667667405 0 -0.30075648951965156
vn -0.9483819384797586 0 0.31713041286728605
vn -0.9544071008131453 0 0.29850810025432595
vn -0.9534021843689093 0 0.30170229505357127
vn 0.9534021843689093 0 -0.30170229505357127
vn 0.9483819384797586 0 -0.31713041286728605
vn 0.9544071008131453 0 -0.29850810025432595
vn 0.03187054881486203 -0.9978145628952757 -0.0578823478475877
vn 0.03152017052583482 -0.9981514166516475 -0.05196372086688429
vn 0.030004799749300287 -0.9982171916595756 -0.05159602956889887
vn -0.030004799749300287 0.9982171916595756 0.05159602956889887
vn -0.03152017052583482 0.9981514166516475 0.05196372086688429
vn -0.03187054881486203 0.9978145628952757 0.0578823478475877
vn -0.022902039573306932 0.9988720813897889 0.04159400922505285
vn 0.022902039573306932 -0.9988720813897889 -0.04159400922505285
vn 0 0 -1
vn 0 0 1
vn 0.9281474861972078 -0.1178568982473105 -0.35306089474951313
vn 0.8807274003799547 -0.30036710012958134 -0.3661951001579803
vn 0.7995165859889277 -0.42727929251217384 -0.42214409260216557
vn 0.9023039727970109 -0.22009079336462245 -0.37068528882444485
vn 0.9076996994825614 -0.22032489987440262 -0.35712489979641926
vn 0.9123502792226003 -0.22062669497556014 -0.3448779921459247
vn 0.9168260649067731 -0.22096359154220652 -0.33257338727013364
vn -0.9168260649067731 0.22096359154220652 0.33257338727013364
vn -0.9123502792226003 0.22062669497556014 0.3448779921459247
vn -0.8807274003799547 0.30036710012958134 0.3661951001579803
vn -0.9076996994825614 0.22032489987440262 0.35712489979641926
vn -0.9023039727970109 0.22009079336462245 0.37068528882444485
vn -0.9281474861972078 0.1178568982473105 0.35306089474951313
vn -0.7995165859889277 0.42727929251217384 0.42214409260216557
vn -0.9624233163343209 0 0.2715536046088282
vn -0.9617067568931833 0 0.2740804877148234
vn 0.9617067568931833 0 -0.2740804877148234
vn 0.9624233163343209 0 -0.2715536046088282
vn -0.9889696198948993 0 0.14811850297966958
vn -0.9857488803818922 0 0.16822349665206143
vn 0.9857488803818922 0 -0.16822349665206143
vn 0.9889696198948993 0 -0.14811850297966958
vn -0.9973337233430449 0 0.07297564170802776
vn 0.9973337233430449 0 -0.07297564170802776
vn 0.9871902540115753 0 0.15954749256745313
vn 0.9973337233430449 0 0.07297564170802776
vn 0.9831929520303856 0 0.18256949109250317
vn -0.9973337233430449 0 -0.07297564170802776
vn -0.9871902540115753 0 -0.15954749256745313
vn -0.9831929520303856 0 -0.18256949109250317
vn 0.9570466387950538 0 0.2899340117528291
vn 0.9613731388845783 0 0.2752484111329493
vn -0.9613731388845783 0 -0.2752484111329493
vn -0.9570466387950538 0 -0.2899340117528291
vn 0.9710602648508964 0 0.23883459135499402
vn -0.9710602648508964 0 -0.23883459135499402
vn 0.9774763444328058 0 0.2110450095934004
vn -0.9774763444328058 0 -0.2110450095934004
vn 0.981192167884065 0 0.19303349368171563
vn 0.9850995156057791 0 0.17198530272456194
vn 0.9852461459616845 0 0.17114330798382693
vn -0.9852461459616845 0 -0.17114330798382693
vn -0.9850995156057791 0 -0.17198530272456194
vn -0.981192167884065 0 -0.19303349368171563
vn 0.031005099144153152 0.9982056724461071 0.05122615858598293
vn -0.031005099144153152 -0.9982056724461071 -0.05122615858598293
vn 0.9646539302972674 0 0.2635200082764771
vn 0.9630338222833076 0 0.26938050623310267
vn -0.9630338222833076 0 -0.26938050623310267
vn -0.9646539302972674 0 -0.2635200082764771
vn 0.03199555850266463 -0.9979854532960515 -0.05478429743619231
vn -0.03199555850266463 0.9979854532960515 0.05478429743619231
vn -0.9844333858481943 0 0.17575809747337454
vn -0.9809301890331024 0 0.19436039782703132
vn -0.9810388677255779 0 0.19381109362396204
vn 0.9844333858481943 0 -0.17575809747337454
vn 0.9809301890331024 0 -0.19436039782703132
vn 0.9810388677255779 0 -0.19381109362396204
vn 0.015275860692928528 0.9994983453382582 0.027743571258476738
vn -0.015275860692928528 -0.9994983453382582 -0.027743571258476738
vn -0.9875838290088681 0 0.15709290461438027
vn 0.9875838290088681 0 -0.15709290461438027
vn -0.9650889092120343 0 0.261922502500121
vn -0.9683173386050217 0 0.2497229099559906
vn 0.9683173386050217 0 -0.2497229099559906
vn 0.9650889092120343 0 -0.261922502500121
vn -0.974311123333948 0 0.22520620539350292
vn 0.974311123333948 0 -0.22520620539350292
vn -1 0 0
vn 1 0 0
vn 0 0.895307272189921 0.4454490861634386
vn 0 -0.895307272189921 -0.4454490861634386
vn 0.9729826846468685 0 0.23087809635687068
vn 0.9720304376281884 0 0.23485490909144863
vn -0.9720304376281884 0 -0.23485490909144863
vn -0.9729826846468685 0 -0.23087809635687068
vn 0.9791804359303413 0 0.20299180744864243
vn 0.9783373233511024 0 0.20701710494111542
vn -0.9783373233511024 0 -0.20701710494111542
vn -0.9791804359303413 0 -0.20299180744864243
vn 0.9885553972577226 0 0.1508582995815153
vn -0.9885553972577226 0 -0.1508582995815153
vn 0.04561308935845531 0.9957111859953967 0.0804902488679109
vn -0.04561308935845531 -0.9957111859953967 -0.0804902488679109
vn 0.9915582375980794 0 0.12966210491655047
vn -0.9915582375980794 0 -0.12966210491655047
vn 0.9955525435818185 0 0.09420792412409439
vn -0.9955525435818185 0 -0.09420792412409439
vn 0.9978357281283841 0 0.06575606185362351
vn -0.9978357281283841 0 -0.06575606185362351
vn 0.9995463317295883 0 0.03011861095608487
vn -0.9995463317295883 0 -0.03011861095608487
vn 0.9999905062390624 0 0.004357457027186705
vn -0.9999905062390624 0 -0.004357457027186705
vn -0.9999203725845052 0 0.012619369654006184
vn 0.9999203725845052 0 -0.012619369654006184
vn -0.9990247100345788 0 0.04415460044350537
vn 0.9990247100345788 0 -0.04415460044350537
vn -0.9971347453172503 0 0.07564588343791392
vn 0.9971347453172503 0 -0.07564588343791392
vn -0.9949081071852014 0 0.10078620072787542
vn 0.9949081071852014 0 -0.10078620072787542
vn -0.9920477210132674 0 0.12586230266597886
vn 0.9920477210132674 0 -0.12586230266597886
usemtl material_0_0
f 1//1 2//2 3//1
f 2//2 1//1 4//2
f 5//3 6//4 7//3
f 8//4 7//3 6//4
f 9//5 3//1 10//5
f 3//1 9//5 1//1
f 6//4 11//6 8//4
f 12//6 8//4 11//6
f 13//7 14//7 15//7
f 14//7 13//7 16//7
f 16//7 13//7 17//7
f 16//7 17//7 18//7
f 18//7 17//7 19//7
f 18//7 19//7 20//7
f 20//7 19//7 21//7
f 20//7 21//7 22//7
f 22//7 21//7 23//7
f 22//7 23//7 24//7
f 24//7 23//7 25//7
f 24//7 25//7 26//7
f 26//7 25//7 27//7
f 27//7 25//7 28//7
f 27//7 28//7 29//7
f 29//7 28//7 30//7
f 29//7 30//7 31//7
f 31//7 30//7 32//7
f 31//7 32//7 33//7
f 31//7 33//7 34//7
f 35//8 36//8 37//8
f 36//8 38//8 37//8
f 38//8 39//8 37//8
f 37//8 39//8 40//8
f 39//8 41//8 40//8
f 40//8 41//8 42//8
f 41//8 43//8 42//8
f 42//8 43//8 44//8
f 44//8 43//8 45//8
f 43//8 46//8 45//8
f 45//8 46//8 47//8
f 46//8 48//8 47//8
f 47//8 48//8 49//8
f 48//8 50//8 49//8
f 49//8 50//8 51//8
f 50//8 52//8 51//8
f 51//8 52//8 53//8
f 52//8 54//8 53//8
f 53//8 54//8 55//8
f 56//8 55//8 54//8
f 4//2 57//9 2//2
f 57//9 4//2 58//9
f 59//10 5//3 60//10
f 7//3 60//10 5//3
f 61//11 62//11 63//11
f 62//11 61//11 64//11
f 62//11 64//11 65//11
f 65//11 64//11 66//11
f 65//11 66//11 67//11
f 67//11 66//11 68//11
f 67//11 68//11 69//11
f 69//11 68//11 70//11
f 69//11 70//11 71//11
f 71//11 70//11 72//11
f 71//11 72//11 73//11
f 73//11 72//11 74//11
f 73//11 74//11 75//11
f 73//11 75//11 76//11
f 76//11 75//11 77//11
f 76//11 77//11 78//11
f 78//11 77//11 79//11
f 78//11 79//11 80//11
f 80//11 79//11 81//11
f 81//11 79//11 82//11
f 83//12 84//12 85//12
f 85//12 84//12 86//12
f 86//12 84//12 87//12
f 84//12 88//12 87//12
f 87//12 88//12 89//12
f 88//12 90//12 89//12
f 89//12 90//12 91//12
f 90//12 92//12 91//12
f 92//12 93//12 91//12
f 91//12 93//12 94//12
f 93//12 95//12 94//12
f 94//12 95//12 96//12
f 95//12 97//12 96//12
f 96//12 97//12 98//12
f 97//12 99//12 98//12
f 98//12 99//12 100//12
f 99//12 101//12 100//12
f 100//12 101//12 102//12
f 101//12 103//12 102//12
f 104//12 102//12 103//12
f 105//13 10//5 106//13
f 10//5 105//13 9//5
f 9//5 105//13 107//13
f 9//5 107//13 108//13
f 9//5 108//13 109//13
f 110//14 111//14 11//6
f 111//14 112//14 11//6
f 112//14 113//14 11//6
f 11//6 113//14 12//6
f 114//14 12//6 113//14
f 115//15 116//15 117//15
f 116//15 115//15 118//15
f 119//16 120//16 121//16
f 122//16 121//16 120//16
f 123//15 124//15 125//15
f 124//15 123//15 126//15
f 127//16 128//16 129//16
f 130//16 129//16 128//16
f 131//17 132//18 133//18
f 132//18 131//17 134//17
f 135//19 136//19 137//20
f 138//20 137//20 136//19
f 139//21 134//17 131//17
f 134//17 139//21 140//21
f 141//22 142//22 135//19
f 136//19 135//19 142//22
f 143//23 140//21 139//21
f 140//21 143//23 144//23
f 145//24 146//24 141//22
f 142//22 141//22 146//24
f 147//25 144//23 143//23
f 144//23 147//25 148//25
f 149//26 150//26 145//24
f 146//24 145//24 150//26
f 151//27 152//25 153//25
f 152//25 151//27 154//27
f 155//28 156//28 157//26
f 158//26 157//26 156//28
f 159//29 154//27 151//27
f 154//27 159//29 160//29
f 161//30 162//30 155//28
f 156//28 155//28 162//30
f 163//31 160//29 159//29
f 160//29 163//31 164//31
f 165//32 166//32 161//30
f 162//30 161//30 166//32
f 167//33 164//31 163//31
f 164//31 167//33 168//33
f 169//34 170//34 165//32
f 166//32 165//32 170//34
f 171//35 168//33 167//33
f 168//33 171//35 172//35
f 173//36 174//36 169//34
f 170//34 169//34 174//36
f 175//35 176//35 177//35
f 176//35 175//35 178//35
f 176//35 178//35 179//35
f 176//35 179//35 180//35
f 181//36 182//36 183//36
f 182//36 184//36 183//36
f 184//36 185//36 183//36
f 186//36 183//36 185//36
f 187//37 188//38 189//38
f 188//38 187//37 190//37
f 188//38 190//37 191//38
f 191//38 190//37 192//38
f 192//38 190//37 193//38
f 189//38 194//38 195//38
f 194//38 189//38 188//38
f 195//38 194//38 192//38
f 195//38 192//38 196//38
f 196//38 192//38 193//38
f 197//39 198//39 199//39
f 199//39 198//39 200//39
f 198//39 201//39 200//39
f 202//39 203//39 201//39
f 200//39 201//39 203//39
f 197//39 204//40 198//39
f 198//39 204//40 205//39
f 205//39 204//40 202//39
f 204//40 206//40 202//39
f 203//39 202//39 206//40
f 207//41 187//37 208//41
f 187//37 207//41 190//37
f 204//40 209//42 206//40
f 210//42 206//40 209//42
f 211//43 208//41 212//43
f 208//41 211//43 207//41
f 209//42 213//44 210//42
f 214//44 210//42 213//44
f 58//9 212//43 57//9
f 212//43 58//9 211//43
f 213//44 59//10 214//44
f 60//10 214//44 59//10
f 215//45 216//46 217//46
f 216//46 215//45 218//45
f 216//46 218//45 219//45
f 216//46 219//45 220//45
f 216//46 220//45 221//45
f 222//47 223//47 224//48
f 223//47 225//47 224//48
f 225//47 226//47 224//48
f 226//47 227//47 224//48
f 228//48 224//48 227//47
f 229//49 230//50 231//45
f 232//47 233//51 234//52
f 217//46 235//53 236//53
f 235//53 217//46 216//46
f 224//48 228//48 237//54
f 238//54 237//54 228//48
f 229//49 239//53 230//50
f 239//53 229//49 240//53
f 241//54 234//52 242//54
f 233//51 242//54 234//52
f 243//11 244//11 245//11
f 244//11 243//11 246//11
f 246//11 243//11 247//11
f 248//12 249//12 250//12
f 250//12 249//12 251//12
f 252//12 251//12 249//12
f 253//15 254//15 255//15
f 254//15 253//15 256//15
f 257//16 258//16 259//16
f 260//16 259//16 258//16
f 261//49 262//53 263//53
f 262//53 261//49 264//50
f 265//51 266//52 267//54
f 268//54 267//54 266//52
f 269//45 264//50 261//49
f 266//52 265//51 270//47
f 271//55 272//55 273//55
f 272//55 271//55 274//55
f 274//55 271//55 275//55
f 275//55 271//55 276//55
f 276//55 271//55 277//55
f 276//55 277//55 278//55
f 278//55 277//55 279//55
f 279//55 277//55 280//55
f 280//55 277//55 281//55
f 280//55 281//55 282//55
f 283//56 284//56 285//56
f 284//56 286//56 285//56
f 285//56 286//56 287//56
f 287//56 286//56 288//56
f 288//56 286//56 289//56
f 286//56 290//56 289//56
f 289//56 290//56 291//56
f 291//56 290//56 292//56
f 292//56 290//56 293//56
f 294//56 293//56 290//56
f 295//57 296//58 297//59
f 296//58 295//57 298//60
f 296//58 298//60 299//61
f 296//58 299//61 300//62
f 296//58 300//62 301//63
f 302//64 303//65 304//66
f 303//65 305//67 304//66
f 305//67 306//68 304//66
f 306//68 307//69 304//66
f 308//70 304//66 307//69
f 309//71 310//72 295//57
f 310//72 309//71 311//72
f 312//73 313//74 314//73
f 307//69 314//73 313//74
f 315//39 316//39 317//39
f 316//39 315//39 318//39
f 318//39 315//39 319//39
f 318//39 319//39 320//39
f 321//38 322//38 323//38
f 322//38 324//38 323//38
f 323//38 324//38 325//38
f 326//38 325//38 324//38
f 327//39 316//39 328//39
f 316//39 327//39 317//39
f 326//38 329//38 325//38
f 330//38 325//38 329//38
f 331//75 332//76 333//77
f 332//76 331//75 334//78
f 335//79 336//80 337//81
f 338//82 337//81 336//80
f 339//83 340//71 341//71
f 340//71 339//83 342//71
f 342//71 339//83 343//71
f 343//71 339//83 344//72
f 345//73 346//84 347//74
f 347//74 346//84 348//74
f 348//74 346//84 349//74
f 350//74 349//74 346//84
f 351//85 352//86 353//85
f 352//86 351//85 354//85
f 352//86 354//85 355//85
f 352//86 355//85 356//87
f 357//88 358//89 359//90
f 358//89 360//89 359//90
f 360//89 361//89 359//90
f 362//89 359//90 361//89
f 363//91 364//92 365//93
f 366//94 367//95 368//96
f 369//97 370//39 371//39
f 370//39 369//97 366//94
f 365//93 372//98 373//38
f 374//38 373//38 372//98
f 333//77 375//39 376//39
f 375//39 333//77 332//76
f 337//81 338//82 377//38
f 378//38 377//38 338//82
f 379//99 380//99 381//99
f 380//99 379//99 382//99
f 383//100 384//100 385//100
f 386//100 385//100 384//100
f 387//100 388//100 389//100
f 388//100 387//100 390//100
f 390//100 387//100 391//100
f 392//99 393//99 394//99
f 394//99 393//99 395//99
f 396//99 395//99 393//99
f 397//39 328//39 398//39
f 328//39 397//39 399//39
f 328//39 399//39 400//39
f 328//39 400//39 401//39
f 328//39 401//39 327//39
f 329//38 402//38 330//38
f 402//38 403//38 330//38
f 403//38 404//38 330//38
f 404//38 405//38 330//38
f 406//38 330//38 405//38
f 407//101 408//102 409//103
f 408//102 407//101 410//104
f 408//102 410//104 411//105
f 408//102 411//105 412//106
f 408//102 412//106 413//107
f 414//108 415//109 416//110
f 415//109 417//111 416//110
f 417//111 418//112 416//110
f 418//112 419//113 416//110
f 420//114 416//110 419//113
f 418//112 421//85 419//113
f 421//85 418//112 422//87
f 423//88 410//104 424//89
f 407//101 424//89 410//104
f 356//87 425//115 352//86
f 425//115 356//87 426//116
f 427//117 357//88 428//118
f 359//90 428//118 357//88
f 426//116 429//119 425//115
f 429//119 426//116 430//120
f 431//121 427//117 432//122
f 428//118 432//122 427//117
f 430//120 433//123 429//119
f 433//123 430//120 434//123
f 435//124 431//121 436//124
f 432//122 436//124 431//121
f 437//99 438//99 439//99
f 438//99 437//99 440//99
f 440//99 437//99 441//99
f 440//99 441//99 442//99
f 443//100 444//100 445//100
f 444//100 446//100 445//100
f 445//100 446//100 447//100
f 448//100 447//100 446//100
f 449//99 441//99 437//99
f 441//99 449//99 381//99
f 386//100 450//100 444//100
f 446//100 444//100 450//100
f 381//99 442//99 441//99
f 442//99 381//99 380//99
f 385//100 386//100 443//100
f 444//100 443//100 386//100
f 380//99 440//99 442//99
f 440//99 380//99 451//99
f 452//100 385//100 445//100
f 443//100 445//100 385//100
f 453//125 454//126 455//127
f 454//126 453//125 456//126
f 457//128 458//129 459//128
f 460//130 459//128 458//129
f 339//83 455//127 344//72
f 455//127 339//83 453//125
f 458//129 346//84 460//130
f 345//73 460//130 346//84
f 310//72 298//60 295//57
f 307//69 306//68 314//73
f 461//131 310//72 311//72
f 310//72 299//61 298//60
f 299//61 310//72 461//131
f 299//61 461//131 462//132
f 463//133 464//134 305//67
f 464//134 314//73 305//67
f 306//68 305//67 314//73
f 312//73 314//73 464//134
f 465//135 299//61 462//132
f 299//61 465//135 300//62
f 303//65 466//136 305//67
f 463//133 305//67 466//136
f 467//137 300//62 465//135
f 300//62 467//137 301//63
f 302//64 468//138 303//65
f 466//136 303//65 468//138
f 469//139 301//63 467//137
f 301//63 469//139 296//58
f 296//58 469//139 470//140
f 296//58 470//140 471//141
f 472//142 473//143 304//66
f 473//143 474//144 304//66
f 304//66 474//144 302//64
f 468//138 302//64 474//144
f 475//145 332//76 334//78
f 335//79 337//81 476//146
f 311//72 477//71 478//72
f 479//73 480//74 312//73
f 481//131 311//72 478//72
f 311//72 481//131 482//131
f 482//131 481//131 483//147
f 483//147 481//131 484//148
f 485//149 486//134 487//150
f 487//150 486//134 488//134
f 488//134 486//134 312//73
f 479//73 312//73 486//134
f 489//38 490//38 491//38
f 490//38 489//38 492//38
f 492//38 489//38 493//38
f 492//38 493//38 494//38
f 494//38 493//38 495//38
f 496//39 497//39 498//39
f 498//39 497//39 499//39
f 497//39 500//39 499//39
f 499//39 500//39 501//39
f 502//39 501//39 500//39
f 503//100 504//100 505//100
f 504//100 503//100 506//100
f 506//100 503//100 507//100
f 508//99 509//99 510//99
f 510//99 509//99 511//99
f 512//99 511//99 509//99
f 513//87 514//85 422//87
f 423//88 515//89 516//88
f 365//93 364//92 517//151
f 518//152 367//95 366//94
f 519//39 520//39 521//39
f 520//39 519//39 522//39
f 522//39 519//39 523//39
f 522//39 523//39 524//39
f 522//39 524//39 525//39
f 522//39 525//39 526//39
f 522//39 526//39 527//39
f 522//39 527//39 528//39
f 522//39 528//39 529//39
f 522//39 529//39 530//39
f 522//39 530//39 531//39
f 522//39 531//39 532//39
f 522//39 532//39 533//39
f 522//39 533//39 534//39
f 522//39 534//39 535//39
f 536//38 537//38 538//38
f 537//38 539//38 538//38
f 539//38 540//38 538//38
f 540//38 541//38 538//38
f 541//38 542//38 538//38
f 542//38 543//38 538//38
f 543//38 544//38 538//38
f 544//38 545//38 538//38
f 545//38 546//38 538//38
f 546//38 547//38 538//38
f 547//38 548//38 538//38
f 548//38 549//38 538//38
f 549//38 550//38 538//38
f 538//38 550//38 551//38
f 552//38 551//38 550//38
f 553//153 554//154 555//155
f 554//154 553//153 556//153
f 557//156 558//156 559//157
f 560//158 559//157 558//156
f 365//93 517//151 372//98
f 369//97 518//152 366//94
f 561//159 375//39 332//76
f 375//39 561//159 562//39
f 563//38 564//160 377//38
f 337//81 377//38 564//160
f 554//154 565//153 566//154
f 565//153 554//154 567//153
f 568//156 559//157 569//156
f 570//157 569//156 559//157
f 571//161 572//153 573//153
f 572//153 571//161 574//161
f 575//162 576//162 577//156
f 578//156 577//156 576//162
f 579//38 580//38 581//38
f 580//38 579//38 582//38
f 582//38 579//38 583//38
f 583//38 579//38 584//38
f 585//39 586//39 587//39
f 587//39 586//39 588//39
f 588//39 586//39 589//39
f 590//39 589//39 586//39
f 591//38 592//38 593//38
f 592//38 591//38 594//38
f 594//38 591//38 595//38
f 595//38 591//38 596//38
f 596//38 591//38 597//38
f 597//38 591//38 598//38
f 598//38 591//38 581//38
f 581//38 591//38 579//38
f 586//39 599//39 590//39
f 590//39 599//39 600//39
f 600//39 599//39 601//39
f 601//39 599//39 602//39
f 602//39 599//39 603//39
f 603//39 599//39 604//39
f 604//39 599//39 605//39
f 606//39 605//39 599//39
f 607//116 608//163 609//116
f 608//163 607//116 610//164
f 608//163 610//164 611//164
f 612//165 613//165 614//166
f 613//165 615//117 614//166
f 616//117 614//166 615//117
f 607//116 513//87 422//87
f 513//87 607//116 609//116
f 616//117 615//117 516//88
f 423//88 516//88 615//117
f 418//112 607//116 422//87
f 607//116 418//112 417//111
f 411//105 410//104 615//117
f 423//88 615//117 410//104
f 417//111 610//164 607//116
f 610//164 417//111 415//109
f 412//106 411//105 613//165
f 615//117 613//165 411//105
f 414//108 610//164 415//109
f 610//164 414//108 617//167
f 618//168 413//107 613//165
f 412//106 613//165 413//107
f 416//110 617//167 414//108
f 617//167 416//110 554//154
f 554//154 416//110 555//155
f 560//158 408//102 559//157
f 559//157 408//102 618//168
f 413//107 618//168 408//102
f 619//169 620//169 621//169
f 620//169 619//169 622//169
f 622//169 619//169 623//169
f 624//170 625//170 626//170
f 626//170 625//170 627//170
f 628//170 627//170 625//170
f 629//170 630//170 631//170
f 630//170 629//170 632//170
f 632//170 629//170 633//170
f 634//169 635//169 636//169
f 636//169 635//169 637//169
f 638//169 637//169 635//169
f 639//38 640//38 641//38
f 640//38 639//38 642//38
f 640//38 642//38 643//38
f 640//38 643//38 644//38
f 640//38 644//38 645//38
f 640//38 645//38 646//38
f 640//38 646//38 647//38
f 648//39 649//39 650//39
f 649//39 651//39 650//39
f 651//39 652//39 650//39
f 652//39 653//39 650//39
f 653//39 654//39 650//39
f 654//39 655//39 650//39
f 656//39 650//39 655//39
f 657//171 658//171 659//171
f 658//171 657//171 660//171
f 658//171 660//171 661//171
f 658//171 661//171 662//171
f 663//172 664//172 665//172
f 664//172 666//172 665//172
f 666//172 667//172 665//172
f 668//172 665//172 667//172
f 484//148 669//173 483//147
f 669//173 484//148 670//174
f 671//175 485//149 672//176
f 487//150 672//176 485//149
f 670//174 673//177 669//173
f 673//177 670//174 674//178
f 675//179 671//175 676//180
f 672//176 676//180 671//175
f 677//181 471//141 470//140
f 471//141 677//181 678//181
f 679//182 680//182 472//142
f 473//143 472//142 680//182
f 681//183 332//76 475//145
f 476//146 337//81 682//184
f 674//178 683//139 673//177
f 683//139 674//178 684//140
f 683//139 684//140 470//140
f 473//143 685//143 686//144
f 685//143 675//179 686//144
f 676//180 686//144 675//179
f 687//38 688//38 689//38
f 688//38 687//38 690//38
f 690//38 687//38 691//38
f 691//38 687//38 692//38
f 692//38 687//38 693//38
f 693//38 687//38 694//38
f 694//38 687//38 695//38
f 696//39 697//39 698//39
f 698//39 697//39 699//39
f 699//39 697//39 700//39
f 700//39 697//39 701//39
f 701//39 697//39 702//39
f 702//39 697//39 703//39
f 704//39 703//39 697//39
f 684//140 705//181 470//140
f 705//181 684//140 706//181
f 707//182 685//143 708//182
f 473//143 708//182 685//143
f 709//185 710//181 711//181
f 710//181 709//185 712//185
f 713//186 714//186 715//182
f 716//182 715//182 714//186
f 717//187 712//185 709//185
f 712//185 717//187 718//187
f 719//188 720//188 713//186
f 714//186 713//186 720//188
f 721//189 718//187 717//187
f 718//187 721//189 722//189
f 723//190 724//190 719//188
f 720//188 719//188 724//190
f 725//191 722//189 721//189
f 722//189 725//191 726//191
f 727//192 728//192 723//190
f 724//190 723//190 728//192
f 729//193 726//191 725//191
f 726//191 729//193 730//193
f 731//194 732//194 727//192
f 728//192 727//192 732//194
f 733//170 730//193 729//193
f 730//193 733//170 734//170
f 735//169 736//169 731//194
f 732//194 731//194 736//169
f 737//99 738//99 739//99
f 738//99 737//99 740//99
f 740//99 737//99 741//99
f 741//99 737//99 742//99
f 738//99 743//99 744//99
f 743//99 738//99 740//99
f 745//100 746//100 747//100
f 748//100 747//100 746//100
f 749//100 750//100 751//100
f 751//100 750//100 745//100
f 745//100 750//100 746//100
f 752//100 746//100 750//100
f 753//169 754//195 755//195
f 754//195 753//169 756//169
f 757//170 758//170 759//196
f 760//196 759//196 758//170
f 755//195 761//197 762//197
f 761//197 755//195 754//195
f 759//196 760//196 763//198
f 764//198 763//198 760//196
f 762//197 765//199 766//199
f 765//199 762//197 761//197
f 763//198 764//198 767//200
f 768//200 767//200 764//198
f 766//199 769//201 770//201
f 769//201 766//199 765//199
f 767//200 768//200 771//202
f 772//202 771//202 768//200
f 770//201 773//203 774//203
f 773//203 770//201 769//201
f 771//202 772//202 775//204
f 776//204 775//204 772//202
f 774//203 574//161 571//161
f 574//161 774//203 773//203
f 775//204 776//204 575//162
f 576//162 575//162 776//204
f 561//159 332//76 681//183
f 682//184 337//81 564//160
f 554//154 777//167 617//167
f 777//167 554//154 566//154
f 570//157 559//157 778//168
f 618//168 778//168 559//157
f 617//167 611//164 610//164
f 611//164 617//167 777//167
f 778//168 618//168 612//165
f 613//165 612//165 618//168
f 779//38 780//38 641//38
f 780//38 779//38 781//38
f 781//38 779//38 782//38
f 782//38 779//38 783//38
f 641//38 780//38 784//38
f 641//38 785//38 639//38
f 785//38 641//38 786//38
f 786//38 641//38 787//38
f 787//38 641//38 784//38
f 788//39 656//39 789//39
f 789//39 656//39 790//39
f 790//39 656//39 791//39
f 655//39 791//39 656//39
f 788//39 792//39 656//39
f 793//39 794//39 795//39
f 795//39 794//39 796//39
f 796//39 794//39 792//39
f 656//39 792//39 794//39
f 797//38 798//38 799//38
f 798//38 797//38 800//38
f 800//38 797//38 801//38
f 801//38 797//38 802//38
f 803//38 640//38 647//38
f 640//38 803//38 804//38
f 640//38 804//38 805//38
f 640//38 805//38 802//38
f 640//38 802//38 797//38
f 806//39 807//39 650//39
f 807//39 808//39 650//39
f 808//39 809//39 650//39
f 809//39 810//39 650//39
f 648//39 650//39 810//39
f 807//39 806//39 811//39
f 811//39 806//39 812//39
f 812//39 806//39 813//39
f 814//39 813//39 806//39
f 815//38 642//38 639//38
f 642//38 815//38 643//38
f 643//38 815//38 644//38
f 652//39 816//39 653//39
f 653//39 816//39 654//39
f 655//39 654//39 816//39
f 647//38 644//38 815//38
f 644//38 647//38 645//38
f 645//38 647//38 646//38
f 649//39 648//39 651//39
f 651//39 648//39 652//39
f 816//39 652//39 648//39
f 797//38 783//38 779//38
f 783//38 797//38 817//38
f 817//38 797//38 818//38
f 818//38 797//38 819//38
f 819//38 797//38 820//38
f 820//38 797//38 821//38
f 821//38 797//38 799//38
f 814//39 806//39 822//39
f 822//39 806//39 823//39
f 823//39 806//39 824//39
f 824//39 806//39 825//39
f 825//39 806//39 826//39
f 826//39 806//39 793//39
f 794//39 793//39 806//39
f 780//38 815//38 784//38
f 815//38 780//38 781//38
f 815//38 781//38 782//38
f 815//38 782//38 783//38
f 793//39 795//39 816//39
f 795//39 796//39 816//39
f 796//39 792//39 816//39
f 788//39 816//39 792//39
f 815//38 787//38 784//38
f 787//38 815//38 786//38
f 786//38 815//38 785//38
f 785//38 815//38 639//38
f 655//39 816//39 791//39
f 791//39 816//39 790//39
f 790//39 816//39 789//39
f 788//39 789//39 816//39
f 802//38 647//38 815//38
f 647//38 802//38 803//38
f 803//38 802//38 804//38
f 804//38 802//38 805//38
f 808//39 807//39 809//39
f 809//39 807//39 810//39
f 810//39 807//39 648//39
f 816//39 648//39 807//39
f 799//38 802//38 815//38
f 802//38 799//38 798//38
f 802//38 798//38 800//38
f 802//38 800//38 801//38
f 811//39 812//39 807//39
f 812//39 813//39 807//39
f 813//39 814//39 807//39
f 816//39 807//39 814//39
f 820//38 815//38 819//38
f 815//38 820//38 799//38
f 799//38 820//38 821//38
f 822//39 823//39 814//39
f 814//39 823//39 816//39
f 824//39 816//39 823//39
f 817//38 815//38 783//38
f 815//38 817//38 818//38
f 815//38 818//38 819//38
f 824//39 825//39 816//39
f 825//39 826//39 816//39
f 793//39 816//39 826//39
