# SSTK version 0.8.0
# 8
mtllib original-8.mtl
o #ID60
v 0.01906142 0.88180129 -0.01728176
v 0.02293237 0.76101729 -0.01454107
v 0.01918138 0.76103577 -0.01735416
v 0.02292662 0.88192418 -0.01437135
v 0.01996424 0.88193294 -0.01654427
v 0.01474136 0.88181629 -0.01908515
v 0.01472433 0.76094494 -0.01904535
v 0.02565358 0.88182350 -0.01070619
v 0.02577394 0.76107773 -0.01065625
v 0.01016710 0.88195238 -0.01966210
v 0.01017598 0.76093327 -0.01978120
v 0.02752426 0.88182070 -0.00637679
v 0.02755097 0.76108905 -0.00633684
v 0.00554621 0.88193700 -0.01915066
v 0.00543643 0.76100602 -0.01917213
v 0.02820398 0.88188397 -0.00177579
v 0.02810806 0.76102234 -0.00167203
v 0.00114972 0.88194177 -0.01728096
v 0.00115035 0.76105121 -0.01738021
v 0.02759784 0.88194735 0.00295293
v 0.02749708 0.76103737 0.00297530
v -0.00269075 0.88189254 -0.01447891
v -0.00271227 0.76092031 -0.01443422
v 0.00012779 0.88199569 -0.01654108
v 0.02573821 0.88181516 0.00719967
v 0.02572610 0.76092956 0.00726487
v -0.00550862 0.76092592 -0.01070472
v -0.00540700 0.88195238 -0.01079340
v 0.02283533 0.88198644 0.01104254
v 0.02276166 0.76096609 0.01095028
v -0.00722784 0.76105620 -0.00628823
v -0.00727080 0.88191393 -0.00646499
v 0.01916913 0.76096597 0.01395280
v 0.01905239 0.88189645 0.01392990
v 0.02011971 0.88186392 0.01309160
v -0.00785844 0.76110114 -0.00174894
v -0.00787436 0.88180507 -0.00176397
v 0.01467975 0.76098692 0.01579418
v 0.01469050 0.88195357 0.01577834
v -0.00721192 0.76091716 0.00289437
v -0.00726727 0.88182400 0.00289426
v 0.01017075 0.76111281 0.01631383
v 0.01001426 0.88183160 0.01636670
v -0.00552271 0.76101855 0.00732618
v -0.00542358 0.88182371 0.00733645
v 0.00540524 0.76105645 0.01568119
v 0.00548340 0.88196775 0.01568008
v -0.00260037 0.76096562 0.01101902
v -0.00270961 0.88194222 0.01110645
v 0.00100332 0.76101000 0.01386963
v 0.00115242 0.88185609 0.01390929
v 0.00021044 0.88186037 0.01316531
vn 0.5000000016387101 0 -0.866025402838329
vn 0.7071067811865476 0 -0.7071067811865476
vn -0.5000000016387101 0 0.866025402838329
vn -0.7071067811865476 0 0.7071067811865476
vn 0.608761430209528 0 -0.7933533393698233
vn -0.608761430209528 0 0.7933533393698233
vn 0.25881900959356163 0 -0.9659258358036645
vn -0.25881900959356163 0 0.9659258358036645
vn 0.866025402838329 0 -0.5000000016387101
vn -0.866025402838329 0 0.5000000016387101
vn 0 0 -1
vn 0 0 1
vn 0.9659258358036645 0 -0.25881900959356163
vn -0.9659258358036645 0 0.25881900959356163
vn -0.25881900959356163 0 -0.9659258358036645
vn 0.25881900959356163 0 0.9659258358036645
vn 1 0 0
vn -1 0 0
vn -0.5000000016387101 0 -0.866025402838329
vn 0.5000000016387101 0 0.866025402838329
vn 0.9659258358036645 0 0.25881900959356163
vn -0.9659258358036645 0 -0.25881900959356163
vn -0.7071067811865476 0 -0.7071067811865476
vn 0.7071067811865476 0 0.7071067811865476
vn -0.608761430209528 0 -0.7933533393698233
vn 0.608761430209528 0 0.7933533393698233
vn 0.866025402838329 0 0.5000000016387101
vn -0.866025402838329 0 -0.5000000016387101
usemtl material_0_2
f 1//1 2//2 3//1
f 3//3 2//4 1//3
f 2//2 1//1 4//2
f 4//4 1//3 2//4
f 4//2 1//1 5//5
f 5//6 1//3 4//4
f 6//7 3//1 7//7
f 7//8 3//3 6//8
f 3//1 6//7 1//1
f 1//3 6//8 3//3
f 2//2 8//9 9//9
f 9//10 8//10 2//4
f 8//9 2//2 4//2
f 4//4 2//4 8//10
f 10//11 7//7 11//11
f 11//12 7//8 10//12
f 7//7 10//11 6//7
f 6//8 10//12 7//8
f 9//9 12//13 13//13
f 13//14 12//14 9//10
f 12//13 9//9 8//9
f 8//10 9//10 12//14
f 14//15 11//11 15//15
f 15//16 11//12 14//16
f 11//11 14//15 10//11
f 10//12 14//16 11//12
f 13//13 16//17 17//17
f 17//18 16//18 13//14
f 16//17 13//13 12//13
f 12//14 13//14 16//18
f 18//19 15//15 19//19
f 19//20 15//16 18//20
f 15//15 18//19 14//15
f 14//16 18//20 15//16
f 17//17 20//21 21//21
f 21//22 20//22 17//18
f 20//21 17//17 16//17
f 16//18 17//18 20//22
f 22//23 19//19 23//23
f 23//24 19//20 22//24
f 19//19 22//23 18//19
f 18//20 22//24 19//20
f 18//19 22//23 24//25
f 24//26 22//24 18//20
f 21//21 25//27 26//27
f 26//28 25//28 21//22
f 25//27 21//21 20//21
f 20//22 21//22 25//28
f 22//23 27//28 28//28
f 28//27 27//27 22//24
f 27//28 22//23 23//23
f 23//24 22//24 27//27
f 26//27 29//24 30//24
f 30//23 29//23 26//28
f 29//24 26//27 25//27
f 25//28 26//28 29//23
f 28//28 31//22 32//22
f 32//21 31//21 28//27
f 31//22 28//28 27//28
f 27//27 28//27 31//21
f 29//24 33//20 30//24
f 30//23 33//19 29//23
f 33//20 29//24 34//20
f 34//19 29//23 33//19
f 34//20 29//24 35//26
f 35//25 29//23 34//19
f 32//22 36//18 37//18
f 37//17 36//17 32//21
f 36//18 32//22 31//22
f 31//21 32//21 36//17
f 34//20 38//16 33//20
f 33//19 38//15 34//19
f 38//16 34//20 39//16
f 39//15 34//19 38//15
f 37//18 40//14 41//14
f 41//13 40//13 37//17
f 40//14 37//18 36//18
f 36//17 37//17 40//13
f 39//16 42//12 38//16
f 38//15 42//11 39//15
f 42//12 39//16 43//12
f 43//11 39//15 42//11
f 41//14 44//10 45//10
f 45//9 44//9 41//13
f 44//10 41//14 40//14
f 40//13 41//13 44//9
f 43//12 46//8 42//12
f 42//11 46//7 43//11
f 46//8 43//12 47//8
f 47//7 43//11 46//7
f 45//10 48//4 49//4
f 49//2 48//2 45//9
f 48//4 45//10 44//10
f 44//9 45//9 48//2
f 47//8 50//3 46//8
f 46//7 50//1 47//7
f 50//3 47//8 51//3
f 51//1 47//7 50//1
f 51//3 48//4 50//3
f 50//1 48//2 51//1
f 48//4 51//3 49//4
f 49//2 51//1 48//2
f 49//4 51//3 52//6
f 52//5 51//1 49//2
