# SSTK version 0.8.0
# 63
mtllib original_63.mtl
o #ID111
v 0.11817098 0.61811274 0.26097675
v 0.12164320 0.62403435 0.27655838
v 0.12188685 0.61816442 0.27662559
v 0.11822107 0.62389656 0.26105522
v 0.11824993 0.62392366 0.26117315
v 0.11843059 0.61824932 0.26110399
v 0.12189699 0.62400649 0.27653559
v 0.12170132 0.61818492 0.27656496
v 0.11837203 0.62402126 0.26117602
v 0.13119112 0.61823272 0.27011051
v 0.13140632 0.62389973 0.27010756
v 0.11830534 0.61802040 0.26116074
v 0.11834870 0.61820011 0.26119945
v 0.11840216 0.62392045 0.26117158
v 0.13121473 0.61808105 0.27008982
v 0.13125749 0.62405928 0.27005100
v 0.12181324 0.62407741 0.27650359
v 0.13145352 0.61823015 0.27016735
v 0.12179505 0.61818225 0.27643765
v 0.13129432 0.62406357 0.27011555
v 0.13115184 0.62398676 0.27010641
v 0.12178484 0.62405468 0.27653711
v 0.13126107 0.61822583 0.27028305
v 0.12184267 0.61818151 0.27640070
vt 0.1890611 0
vt 0.1080685 0.04249006
vt 0.1080685 0
vt 0.1890611 0.04249006
vt -0.1120587 0.04249006
vt -0.03112959 0
vt -0.03112959 0.04249006
vt -0.1120587 0
vt -0.07672718 0.04249006
vt -0.1355149 0
vt -0.07672718 0
vt -0.1355149 0.04249006
vn 0.9757003992036916 -7.882346456408214e-9 -0.21910894777200904
vn -0.9757003992036916 7.882346456408214e-9 0.21910894777200904
vn -0.5701865529268627 2.9553650975440275e-8 0.8215152432312994
vn 0.5701865529268627 -2.9553650975440275e-8 -0.8215152432312994
vn -0.5591053552757159 -2.982639029108208e-8 -0.8290966178329366
vn 0.5591053552757159 2.982639029108208e-8 0.8290966178329366
usemtl material_0_0
f 1/1/1 2/2/1 3/3/1
f 2/2/1 1/1/1 4/4/1
f 5/4/2 6/1/2 7/2/2
f 8/3/2 7/2/2 6/1/2
f 9/5/3 10/6/3 11/7/3
f 10/6/3 9/5/3 12/8/3
f 13/8/4 14/5/4 15/6/4
f 16/7/4 15/6/4 14/5/4
f 17/9/5 18/10/5 19/11/5
f 18/10/5 17/9/5 20/12/5
f 21/12/6 22/9/6 23/10/6
f 24/11/6 23/10/6 22/9/6
