# SSTK version 0.8.0
# 99
mtllib original_99.mtl
o #ID423
v -0.31698447 -0.50227990 0.01918013
v -0.31676575 -0.50246337 0.10565691
v -0.31972579 -0.50238521 0.06227677
v -0.30848212 -0.50249619 -0.02330578
v -0.30859092 -0.50246307 0.14823405
v -0.29461524 -0.50243016 -0.06432352
v -0.29461704 -0.50232172 0.18916491
v -0.27541973 -0.50232334 -0.10323087
v -0.27535670 -0.50242006 0.22796993
v -0.25136751 -0.50239604 -0.13925829
v -0.25146938 -0.50230846 0.26392664
v -0.22268990 -0.50242119 -0.17176870
v -0.22266905 -0.50237395 0.29652392
v -0.19024204 -0.50249791 -0.20031937
v -0.19015725 -0.50236299 0.32508264
v -0.15414730 -0.50234205 -0.22440003
v -0.15435789 -0.50233291 0.34929845
v -0.11543391 -0.50245004 -0.24343767
v -0.11525457 -0.50243740 0.36839998
v -0.07433942 -0.50229426 -0.25756583
v -0.07426428 -0.50249869 0.38212383
v -0.03174271 -0.50237260 -0.26585764
v -0.03199922 -0.50236395 0.39061338
v 0.01137583 -0.50244574 -0.26869980
v 0.01125509 -0.50241576 0.39366997
v 0.05458591 -0.50226322 -0.26588322
v 0.05462116 -0.50243923 0.39069084
v 0.09692620 -0.50226030 -0.25725869
v 0.09709457 -0.50238135 0.38227666
v 0.13804162 -0.50222803 -0.24347280
v 0.13811574 -0.50224223 0.36821729
v 0.17680591 -0.50233010 -0.22424276
v 0.17687877 -0.50243278 0.34929009
v 0.21299706 -0.50246490 -0.20022820
v 0.21292793 -0.50231738 0.32496421
v 0.24540429 -0.50247371 -0.17174005
v 0.24544924 -0.50237240 0.29646441
v 0.27404618 -0.50227521 -0.13905945
v 0.27411011 -0.50238579 0.26401282
v 0.29831727 -0.50227787 -0.10330793
v 0.29816329 -0.50240673 0.22803984
v 0.31731819 -0.50236016 -0.06419290
v 0.31729729 -0.50235353 0.18914832
v 0.33124398 -0.50228878 -0.02333026
v 0.33122014 -0.50247038 0.14816989
v 0.33983069 -0.50228549 0.01919982
v 0.33980173 -0.50225739 0.10562140
v 0.34251396 -0.50250186 0.06239666
v 0.34246475 -0.50235612 0.06239452
v 0.33972331 -0.50234744 0.01905166
v 0.33977706 -0.50240142 0.10559483
v 0.33120400 -0.50234769 0.14815576
v 0.33126242 -0.50252773 -0.02319378
v 0.31731181 -0.50237579 0.18896372
v 0.31736572 -0.50243017 -0.06432756
v 0.29809849 -0.50235767 0.22811191
v 0.29807000 -0.50236524 -0.10301968
v 0.27404890 -0.50239861 0.26383910
v 0.27410877 -0.50246442 -0.13923022
v 0.24547775 -0.50236810 0.29654123
v 0.24559502 -0.50229462 -0.17184571
v 0.21294587 -0.50246876 0.32525717
v 0.21305887 -0.50235624 -0.20035089
v 0.17691042 -0.50236058 0.34924390
v 0.17689350 -0.50230064 -0.22420909
v 0.13810360 -0.50239515 0.36836501
v 0.13805486 -0.50243950 -0.24349677
v 0.09712185 -0.50237359 0.38221390
v 0.09700117 -0.50234047 -0.25741529
v 0.05467533 -0.50243889 0.39068527
v 0.05451160 -0.50232398 -0.26599590
v 0.01143236 -0.50235519 0.39358078
v 0.01141417 -0.50240527 -0.26872456
v -0.03194409 -0.50248208 0.39078813
v -0.03199952 -0.50234923 -0.26597094
v -0.07423088 -0.50233642 0.38234768
v -0.07429736 -0.50238312 -0.25762210
v -0.11545182 -0.50244968 0.36824624
v -0.11531205 -0.50235603 -0.24338508
v -0.15423319 -0.50243423 0.34918495
v -0.15404958 -0.50238640 -0.22452768
v -0.19012670 -0.50244853 0.32514904
v -0.19023838 -0.50235985 -0.20023680
v -0.22285851 -0.50234036 0.29639712
v -0.22272597 -0.50238493 -0.17159027
v -0.25140849 -0.50247492 0.26391110
v -0.25125225 -0.50223360 -0.13916425
v -0.27539244 -0.50237923 0.22784803
v -0.27529245 -0.50243178 -0.10317812
v -0.29443875 -0.50242339 0.18914651
v -0.29450330 -0.50224306 -0.06425223
v -0.30840560 -0.50228562 0.14821451
v -0.30835603 -0.50248828 -0.02336089
v -0.31684583 -0.50229565 0.10574599
v -0.31696598 -0.50251394 0.01914176
v -0.31968236 -0.50242692 0.06242369
v 0.01137117 0.58013895 -0.26864835
v 0.05454559 -0.50252531 -0.26582673
v 0.01149294 -0.50232065 -0.26875397
v 0.05469066 0.58006363 -0.26599513
v 0.05460319 0.58009213 -0.26578820
v 0.01138067 0.58022693 -0.26878091
v 0.05456761 -0.50222313 -0.26591002
v 0.01132511 -0.50241216 -0.26872716
v 0.09701196 -0.50233952 -0.25748853
v 0.09702833 0.58018524 -0.25734355
v 0.09700397 0.58004360 -0.25743754
v 0.09703901 -0.50238308 -0.25732770
v 0.13807462 -0.50242261 -0.24342949
v 0.13807043 0.58017781 -0.24355927
v 0.13813866 0.58018391 -0.24339165
v 0.13808811 -0.50228698 -0.24358541
v 0.17691979 -0.50230413 -0.22433768
v 0.17700451 0.58034337 -0.22441504
v 0.17706076 0.58018699 -0.22432613
v 0.17683380 -0.50231712 -0.22440518
v 0.21283945 -0.50228170 -0.20039060
v 0.21296365 0.58011475 -0.20041538
v 0.21305114 0.58018787 -0.20037201
v 0.21296768 -0.50233847 -0.20023166
v 0.24562536 -0.50253955 -0.17173784
v 0.24535093 0.58006424 -0.17178764
v 0.24567556 0.58004826 -0.17172327
v 0.24549671 -0.50238547 -0.17166146
v 0.27417860 0.58024788 -0.13923123
v 0.27419185 -0.50252457 -0.13911387
v 0.27411213 0.58015695 -0.13915024
v 0.27397136 -0.50245790 -0.13931134
v 0.29822926 0.58009091 -0.10327259
v 0.29804778 -0.50244522 -0.10308349
v 0.29814513 0.58015892 -0.10309194
v 0.29822302 -0.50246878 -0.10317525
v 0.31719534 0.58020567 -0.06429299
v 0.31725200 -0.50219532 -0.06434957
v 0.31733946 0.58015677 -0.06438038
v 0.31744966 -0.50227089 -0.06443603
v 0.33129718 0.58001279 -0.02327217
v 0.33121736 -0.50226534 -0.02326607
v 0.33115726 0.58021680 -0.02319844
v 0.33117661 -0.50247968 -0.02334767
v 0.33958361 0.58032630 0.01915138
v 0.33969344 -0.50248752 0.01909894
v 0.33967412 0.58000149 0.01921290
v 0.33975736 -0.50234996 0.01901188
v 0.34247889 0.58027238 0.06233175
v 0.34242943 -0.50233872 0.06232566
v 0.34251263 0.58022250 0.06242488
v 0.34244270 -0.50238688 0.06250300
v 0.33960582 0.58015744 0.10563182
v 0.33980770 -0.50243624 0.10567455
v 0.33959877 0.58022954 0.10561141
v 0.33970557 -0.50241596 0.10570407
v 0.33124210 0.58020728 0.14811093
v 0.33125684 -0.50232023 0.14815644
v 0.33121868 0.58036382 0.14807512
v 0.33115210 -0.50237114 0.14828922
v 0.31722885 0.58019985 0.18907389
v 0.31729512 -0.50245579 0.18914675
v 0.31732051 0.58022838 0.18928841
v 0.31748406 -0.50226572 0.18909550
v 0.29812831 0.58019613 0.22800381
v 0.29800715 -0.50225654 0.22795144
v 0.29822968 0.58016944 0.22794233
v 0.29800160 -0.50237426 0.22800662
v 0.27404327 0.58037572 0.26410183
v 0.27415534 -0.50236286 0.26404362
v 0.27407773 0.58020494 0.26399599
v 0.27409205 -0.50238026 0.26410400
v 0.24548834 0.58020238 0.29655236
v 0.24541651 -0.50219564 0.29660511
v 0.24547193 0.58024974 0.29655143
v 0.24554450 -0.50235433 0.29651384
v 0.21290186 -0.50241548 0.32513596
v 0.21298827 0.58014719 0.32523601
v 0.21295374 0.58010817 0.32510703
v 0.21288533 -0.50246336 0.32514292
v 0.17700324 -0.50226867 0.34913687
v 0.17704058 0.58034640 0.34915950
v 0.17692477 0.58015214 0.34906859
v 0.17687605 -0.50242342 0.34929442
v 0.13804296 -0.50254576 0.36846996
v 0.13815392 0.58029244 0.36827567
v 0.13810244 0.58029830 0.36841590
v 0.13805506 -0.50234557 0.36839327
v 0.09706344 -0.50231846 0.38222231
v 0.09711659 0.58019809 0.38213094
v 0.09708349 0.58027748 0.38225698
v 0.09703751 -0.50237470 0.38217719
v 0.05463099 -0.50234777 0.39081354
v 0.05460584 0.58034433 0.39056610
v 0.05457277 0.58018899 0.39065384
v 0.05472274 -0.50227851 0.39081015
v 0.01151503 -0.50238609 0.39335163
v 0.01123380 0.58014623 0.39371356
v 0.01134203 0.58025143 0.39344857
v 0.01142492 -0.50243188 0.39349028
v -0.03176497 -0.50237096 0.39064678
v -0.03189715 0.58018885 0.39074936
v -0.03188793 0.58008972 0.39078869
v -0.03183434 -0.50245011 0.39057919
v -0.07432514 -0.50238528 0.38210211
v -0.07434829 0.58018828 0.38228519
v -0.07424658 0.58033856 0.38222812
v -0.07423120 -0.50237315 0.38227352
v -0.11541529 -0.50241942 0.36823043
v -0.11523245 0.58010340 0.36825737
v -0.11533166 0.58021065 0.36837787
v -0.11530199 -0.50237895 0.36817638
v -0.15425102 -0.50236247 0.34913313
v -0.15417619 0.58015785 0.34913339
v -0.15422801 0.58017938 0.34916345
v -0.15410800 -0.50224799 0.34911668
v -0.19035223 -0.50247326 0.32497124
v -0.19024563 0.58018490 0.32499732
v -0.19020295 0.58018398 0.32516008
v -0.19017318 -0.50245801 0.32497538
v -0.22281619 -0.50226325 0.29660947
v -0.22286166 0.58002876 0.29659745
v -0.22275679 0.58015685 0.29647483
v -0.22277708 -0.50254670 0.29657841
v -0.25121984 0.58026427 0.26386664
v -0.25128543 -0.50241437 0.26397962
v -0.25121523 -0.50227490 0.26403508
v -0.25123216 0.58013640 0.26399124
v -0.27542708 0.58005640 0.22812495
v -0.27533237 -0.50240264 0.22788978
v -0.27554356 -0.50224854 0.22791793
v -0.27529747 0.58017489 0.22800924
v -0.29456815 0.58009598 0.18906101
v -0.29442124 -0.50249871 0.18901984
v -0.29457829 -0.50234459 0.18922043
v -0.29452364 0.58020934 0.18903295
v -0.30839515 0.58033584 0.14815075
v -0.30831564 -0.50230553 0.14808835
v -0.30844837 -0.50235690 0.14809883
v -0.30846767 0.58010398 0.14809739
v -0.31692095 0.58017198 0.10560179
v -0.31700198 -0.50233415 0.10565534
v -0.31689079 -0.50243688 0.10556986
v -0.31705166 0.58002400 0.10559979
v -0.31971329 0.58006988 0.06220889
v -0.31982069 -0.50233363 0.06242060
v -0.31980322 -0.50230059 0.06238814
v -0.31979640 0.58012797 0.06235432
v -0.31702257 0.58034627 0.01928679
v -0.31692004 -0.50240374 0.01919230
v -0.31696284 -0.50236811 0.01922403
v -0.31703981 0.58018443 0.01922100
v -0.30838985 0.58025619 -0.02337352
v -0.30841791 -0.50249340 -0.02341838
v -0.30837030 -0.50238749 -0.02332246
v -0.30844959 0.58031787 -0.02327308
v -0.29452540 0.58014790 -0.06430334
v -0.29465805 -0.50237431 -0.06431368
v -0.29458011 -0.50229711 -0.06435127
v -0.29460282 0.58000072 -0.06451854
v -0.27537900 0.58015895 -0.10318670
v -0.27553458 -0.50251217 -0.10309778
v -0.27531403 -0.50238617 -0.10330595
v -0.27543741 0.58011344 -0.10316753
v -0.25142830 0.58016272 -0.13910664
v -0.25126203 -0.50230510 -0.13919847
v -0.25137047 -0.50245458 -0.13932571
v -0.25133753 0.58020582 -0.13911315
v -0.22281090 0.58025010 -0.17165130
v -0.22288997 -0.50243354 -0.17169624
v -0.22272245 -0.50237911 -0.17186255
v -0.22272160 0.58033594 -0.17169090
v -0.19036948 -0.50240645 -0.20038676
v -0.19013661 0.58026833 -0.20014321
v -0.19023771 0.58025824 -0.20046377
v -0.19018463 -0.50229401 -0.20033428
v -0.15410969 -0.50236702 -0.22447968
v -0.15414614 0.58014281 -0.22424027
v -0.15422414 0.58006602 -0.22433791
v -0.15414887 -0.50246006 -0.22436703
v -0.11520036 -0.50248051 -0.24357551
v -0.11531635 0.58010416 -0.24365420
v -0.11534202 0.58027724 -0.24346465
v -0.11527629 -0.50246574 -0.24337171
v -0.07442498 -0.50242259 -0.25750590
v -0.07438449 0.58004508 -0.25747044
v -0.07434849 0.58018442 -0.25738627
v -0.07435619 -0.50225402 -0.25762428
v -0.03186484 -0.50240571 -0.26593474
v -0.03202196 0.58030351 -0.26592494
v -0.03166103 0.58023534 -0.26580673
v -0.03174554 -0.50254108 -0.26592410
v -0.31690093 0.58006116 0.10569445
v -0.31695107 0.58026463 0.01923674
v -0.31983254 0.58015795 0.06252733
v -0.30851926 0.58008625 0.14814681
v -0.30929593 0.58017239 0.06239909
v -0.30661711 0.58011577 0.10438961
v -0.29462033 0.58014215 0.18916324
v -0.29836595 0.58010481 0.14557959
v -0.28498245 0.58009674 0.18523642
v -0.27528235 0.58015507 0.22807390
v -0.26636329 0.58009537 0.22286986
v -0.25133959 0.58008015 0.26388238
v -0.24300020 0.58027833 0.25768278
v -0.22274284 0.58013927 0.29646931
v -0.21536348 0.58016374 0.28924115
v -0.19027122 0.58019864 0.32525221
v -0.18373564 0.58015138 0.31682236
v -0.15415863 0.58018848 0.34926616
v -0.14894891 0.58017909 0.34003283
v -0.11537787 0.58010101 0.36820406
v -0.11127814 0.58030665 0.35871846
v -0.07435219 0.58006018 0.38220408
v -0.07158593 0.58025055 0.37215227
v -0.03170607 0.58017016 0.39065254
v -0.03034384 0.58017296 0.38041898
v 0.01128089 0.58033442 0.39339346
v 0.01141442 0.58006906 0.38322882
v 0.05466620 0.58023073 0.39086054
v 0.05312851 0.58029065 0.38046026
v 0.09448567 0.58031485 0.37224475
v 0.09694274 0.58015096 0.38233139
v 0.13406757 0.58029675 0.35871166
v 0.13811533 0.58007014 0.36837244
v 0.17176252 0.58023334 0.34007630
v 0.17697149 0.58022027 0.34914580
v 0.20661027 0.58020961 0.31695929
v 0.21285941 0.58005522 0.32503090
v 0.23805093 0.58006764 0.28919836
v 0.24553498 0.58023461 0.29652457
v 0.26568297 0.58015075 0.25762384
v 0.27399562 0.58026742 0.26393246
v 0.28915374 0.58030066 0.22270601
v 0.29816182 0.58026855 0.22813368
v 0.30766457 0.58016657 0.18502254
v 0.31734213 0.58028249 0.18897537
v 0.32111791 0.58022016 0.14541577
v 0.33117806 0.58013351 0.14821913
v 0.32928499 0.58012663 0.10423656
v 0.33195884 0.58027988 0.06234848
v 0.33963504 0.58011401 0.10565093
v -0.30832786 0.58019730 -0.02322545
v -0.30666285 0.58007508 0.02064347
v -0.29454874 0.58007794 -0.06433535
v -0.29833362 0.58011399 -0.02051023
v -0.28497458 0.58016459 -0.06027401
v -0.27536359 0.58021782 -0.10318538
v -0.26616462 0.58024109 -0.09777557
v -0.25143425 0.58021342 -0.13924127
v -0.24297749 0.58022428 -0.13293729
v -0.22278091 0.58029685 -0.17184621
v -0.21534648 0.58016328 -0.16452061
v -0.19034348 0.58035883 -0.20032929
v -0.18382465 0.58018126 -0.19214964
v -0.15418072 0.58007889 -0.22432550
v -0.14888563 0.58023099 -0.21534978
v -0.11527464 0.58035513 -0.24347925
v -0.11137214 0.58013434 -0.23392931
v -0.07445823 0.58001900 -0.25745956
v -0.07168115 0.58020410 -0.24723277
v -0.03172420 0.58017249 -0.26579904
v -0.03044533 0.58024448 -0.25557870
v 0.01149340 0.58019185 -0.26881694
v 0.01145721 0.58028120 -0.25826964
v 0.05326229 0.58021448 -0.25568004
v 0.05452618 0.58008189 -0.26576868
v 0.09454336 0.58034332 -0.24727404
v 0.09702636 0.58010383 -0.25758183
v 0.13415423 0.58018723 -0.23386474
v 0.13814033 0.58013329 -0.24347265
v 0.17167585 0.58034551 -0.21545834
v 0.17687748 0.58021596 -0.22424279
v 0.20650113 0.58012286 -0.19192976
v 0.21297937 0.58005941 -0.20034583
v 0.23815961 0.58025125 -0.16439134
v 0.24548884 0.58031348 -0.17173625
v 0.26572088 0.58017784 -0.13283751
v 0.27410493 0.58019568 -0.13919067
v 0.28913683 0.58033618 -0.09804165
v 0.29825529 0.58018122 -0.10330229
v 0.30761864 0.58008988 -0.06050116
v 0.31725244 0.58019988 -0.06440177
v 0.32115139 0.58027893 -0.02048358
v 0.33112828 0.58033543 -0.02320743
v 0.32928952 0.58017392 0.02047149
v 0.33964292 0.58008923 0.01908162
v 0.34253707 0.58019691 0.06232672
v 0.34246763 0.58015697 0.06255143
v 0.33956057 0.58018390 0.10557502
v 0.33964288 0.58004280 0.01916593
v 0.33212952 0.58028444 0.06239176
v 0.33121536 0.58020534 -0.02330597
v 0.32928570 0.58022368 0.02040968
v 0.32116365 0.58025630 -0.02066711
v 0.31715863 0.58022474 -0.06439469
v 0.30771553 0.58001083 -0.06043780
v 0.29812223 0.58016898 -0.10325807
v 0.28920451 0.58012642 -0.09812063
v 0.27411390 0.58030186 -0.13928909
v 0.26573466 0.58026343 -0.13283699
v 0.24560622 0.58018389 -0.17175341
v 0.23803780 0.58016802 -0.16443216
v 0.21304884 0.58013121 -0.20031319
v 0.20660556 0.58012331 -0.19202855
v 0.17705445 0.58022258 -0.22432229
v 0.17162733 0.58020709 -0.21537761
v 0.13815095 0.58018160 -0.24355979
v 0.13404116 0.58017582 -0.23376600
v 0.09705895 0.58013188 -0.25735652
v 0.09424927 0.58019498 -0.24743027
v 0.05450620 0.58021675 -0.26598403
v 0.05325312 0.58005023 -0.25548630
v 0.01137656 0.58013542 -0.26873371
v 0.01147134 0.58026259 -0.25829056
v -0.03045206 0.58019444 -0.25545575
v -0.03185002 0.58031011 -0.26584650
v -0.07160253 0.58029999 -0.24723701
v -0.07429911 0.58011659 -0.25751579
v -0.11146298 0.58009252 -0.23401039
v -0.11523041 0.58008977 -0.24354267
v -0.14902883 0.58012505 -0.21524297
v -0.15421502 0.58017219 -0.22437718
v -0.18377901 0.58031250 -0.19214622
v -0.19028728 0.58010784 -0.20018907
v -0.21533524 0.58031385 -0.16440298
v -0.22280664 0.58015919 -0.17179575
v -0.24306657 0.58030227 -0.13287289
v -0.25133944 0.58036595 -0.13908931
v -0.26643989 0.58024529 -0.09778373
v -0.27534182 0.58022439 -0.10322020
v -0.28496599 0.58017706 -0.06027826
v -0.29462300 0.58016057 -0.06425687
v -0.29852638 0.58012627 -0.02068179
v -0.30654040 0.58033459 0.02052808
v -0.30843327 0.58029565 -0.02321083
v -0.30933555 0.58016134 0.06238406
v -0.31693272 0.58027427 0.01913300
v 0.33111356 0.58020165 0.14812724
v 0.32929630 0.58013430 0.10413975
v 0.32118943 0.58032311 0.14524274
v 0.31719568 0.58020112 0.18920961
v 0.30769532 0.58026111 0.18522966
v 0.29821386 0.58019206 0.22785655
v 0.28907519 0.58009186 0.22261440
v 0.27396732 0.58014769 0.26401708
v 0.26576719 0.58025908 0.25766562
v 0.24555981 0.58031726 0.29649957
v 0.23797803 0.58013636 0.28914995
v 0.21303819 0.58017081 0.32511008
v 0.20664434 0.58012950 0.31670544
v 0.17697437 0.58019012 0.34927916
v 0.17158946 0.58027282 0.34018660
v 0.13801056 0.58028499 0.36816720
v 0.13393563 0.58011823 0.35851411
v 0.09707795 0.58018122 0.38230676
v 0.09437685 0.58011233 0.37211707
v 0.05456857 0.58026243 0.39058547
v 0.05322524 0.58014058 0.38039441
v 0.01151576 0.58026316 0.38318696
v 0.01127126 0.58022832 0.39339026
v -0.03052808 0.58009641 0.38044841
v -0.03187067 0.58006671 0.39070702
v -0.07159803 0.58023903 0.37224708
v -0.07419752 0.58008460 0.38230896
v -0.11126136 0.58031613 0.35860921
v -0.11523688 0.58020540 0.36816270
v -0.14909891 0.58023893 0.34009070
v -0.15419074 0.58023527 0.34912326
v -0.18387431 0.58014473 0.31674999
v -0.19012510 0.58014805 0.32515591
v -0.21551453 0.58011494 0.28929906
v -0.22275370 0.58003016 0.29636237
v -0.24304155 0.58011099 0.25757917
v -0.25144216 0.58014416 0.26399796
v -0.26633902 0.58014685 0.22269173
v -0.27531116 0.58010144 0.22793041
v -0.28494976 0.58026812 0.18522117
v -0.29441211 0.58031416 0.18900825
v -0.29849878 0.58029978 0.14533991
v -0.30657428 0.58012979 0.10431522
v -0.30848929 0.58032984 0.14799000
v -0.31673869 0.58017514 0.10558409
v -0.31986372 0.58001517 0.06250092
vt -0.01154139 1.525147
vt -0.01154139 1.172972
vt 0 1.349059
vt -0.04596808 1.698222
vt -0.04596808 0.9998971
vt -0.102691 1.865322
vt -0.102691 0.8327966
vt -0.1807397 2.023589
vt -0.1807397 0.6745296
vt -0.2787786 2.170315
vt -0.2787786 0.527804
vt -0.3951303 2.302988
vt -0.3951303 0.3951303
vt -0.527804 2.41934
vt -0.527804 0.2787786
vt -0.6745296 2.517379
vt -0.6745296 0.1807397
vt -0.8327966 2.595428
vt -0.8327966 0.102691
vt -0.9998971 2.65215
vt -0.9998971 0.04596808
vt -1.172972 2.686577
vt -1.172972 0.01154139
vt -1.349059 2.698119
vt -1.349059 0
vt -1.525147 2.686577
vt -1.525147 0.01154139
vt -1.698222 2.65215
vt -1.698222 0.04596808
vt -1.865322 2.595428
vt -1.865322 0.102691
vt -2.023589 2.517379
vt -2.023589 0.1807397
vt -2.170315 2.41934
vt -2.170315 0.2787786
vt -2.302988 2.302988
vt -2.302988 0.3951303
vt -2.41934 2.170315
vt -2.41934 0.527804
vt -2.517379 2.023589
vt -2.517379 0.6745296
vt -2.595428 1.865322
vt -2.595428 0.8327966
vt -2.65215 1.698222
vt -2.65215 0.9998971
vt -2.686577 1.525147
vt -2.686577 1.172972
vt -2.698119 1.349059
vt -1.169705 4.325488
vt -1.346171 -0.08498011
vt -1.169705 -0.08498011
vt -1.346171 4.325488
vt -0.9717164 4.325488
vt -1.148182 -0.08498011
vt -0.9717164 -0.08498011
vt -1.148182 4.325488
vt -0.7555913 4.325488
vt -0.9320567 -0.08498011
vt -0.7555913 -0.08498011
vt -0.9320567 4.325488
vt -0.5250281 4.325488
vt -0.7014935 -0.08498011
vt -0.5250281 -0.08498011
vt -0.7014935 4.325488
vt -0.2839719 4.325488
vt -0.4604373 -0.08498011
vt -0.2839719 -0.08498011
vt -0.4604373 4.325488
vt -0.03654718 4.325488
vt -0.2130126 -0.08498011
vt -0.03654718 -0.08498011
vt -0.2130126 4.325488
vt 0.2130126 -0.08498011
vt 0.03654718 4.325488
vt 0.03654718 -0.08498011
vt 0.2130126 4.325488
vt 0.4604373 -0.08498011
vt 0.2839719 4.325488
vt 0.2839719 -0.08498011
vt 0.4604373 4.325488
vt 0.7014935 -0.08498011
vt 0.5250281 4.325488
vt 0.5250281 -0.08498011
vt 0.7014935 4.325488
vt 0.9320567 -0.08498011
vt 0.7555913 4.325488
vt 0.7555913 -0.08498011
vt 0.9320567 4.325488
vt 1.148182 -0.08498011
vt 0.9717164 4.325488
vt 0.9717164 -0.08498011
vt 1.148182 4.325488
vt 1.346171 -0.08498011
vt 1.169705 4.325488
vt 1.169705 -0.08498011
vt 1.346171 4.325488
vt 1.522636 -0.08498011
vt 1.522636 4.325488
vt 1.674559 -0.08498011
vt 1.498093 4.325488
vt 1.498093 -0.08498011
vt 1.674559 4.325488
vt 1.799338 -0.08498011
vt 1.622873 4.325488
vt 1.622873 -0.08498011
vt 1.799338 4.325488
vt 1.894841 -0.08498011
vt 1.718375 4.325488
vt 1.718375 -0.08498011
vt 1.894841 4.325488
vt 1.959432 -0.08498011
vt 1.782966 4.325488
vt 1.782966 -0.08498011
vt 1.959432 4.325488
vt 1.992006 -0.08498011
vt 1.81554 4.325488
vt 1.81554 -0.08498011
vt 1.992006 4.325488
vt -1.522636 4.325488
vt -1.522636 -0.08498011
vt -1.674559 4.325488
vt -1.498093 -0.08498011
vt -1.498093 4.325488
vt -1.674559 -0.08498011
vt -1.799338 4.325488
vt -1.622873 -0.08498011
vt -1.622873 4.325488
vt -1.799338 -0.08498011
vt -1.894841 4.325488
vt -1.718375 -0.08498011
vt -1.718375 4.325488
vt -1.894841 -0.08498011
vt -1.959432 4.325488
vt -1.782966 -0.08498011
vt -1.782966 4.325488
vt -1.959432 -0.08498011
vt -1.992006 4.325488
vt -1.81554 -0.08498011
vt -1.81554 4.325488
vt -1.992006 -0.08498011
vt 0.01154139 1.172972
vt 0.01154139 1.525147
vt 0.04596808 0.9998971
vt 0.04249006 1.349059
vt 0.05366794 1.178518
vt 0.102691 0.8327966
vt 0.08701032 1.010894
vt 0.1419467 0.8490569
vt 0.1807397 0.6745296
vt 0.2175371 0.6957747
vt 0.2787786 0.527804
vt 0.3124882 0.5536703
vt 0.3951303 0.3951303
vt 0.4251753 0.4251753
vt 0.527804 0.2787786
vt 0.5536703 0.3124882
vt 0.6745296 0.1807397
vt 0.6957747 0.2175371
vt 0.8327966 0.102691
vt 0.8490569 0.1419467
vt 0.9998971 0.04596808
vt 1.010894 0.08701032
vt 1.172972 0.01154139
vt 1.178518 0.05366794
vt 1.349059 0
vt 1.349059 0.04249006
vt 1.525147 0.01154139
vt 1.519601 0.05366794
vt 1.687224 0.08701032
vt 1.698222 0.04596808
vt 1.849062 0.1419467
vt 1.865322 0.102691
vt 2.002344 0.2175371
vt 2.023589 0.1807397
vt 2.144448 0.3124882
vt 2.170315 0.2787786
vt 2.272943 0.4251753
vt 2.302988 0.3951303
vt 2.38563 0.5536703
vt 2.41934 0.527804
vt 2.480581 0.6957747
vt 2.517379 0.6745296
vt 2.556172 0.8490569
vt 2.595428 0.8327966
vt 2.611108 1.010894
vt 2.65215 0.9998971
vt 2.644451 1.178518
vt 2.655629 1.349059
vt 2.686577 1.172972
vt 0.04596808 1.698222
vt 0.05366794 1.519601
vt 0.102691 1.865322
vt 0.08701032 1.687224
vt 0.1419467 1.849062
vt 0.1807397 2.023589
vt 0.2175371 2.002344
vt 0.2787786 2.170315
vt 0.3124882 2.144448
vt 0.3951303 2.302988
vt 0.4251753 2.272943
vt 0.527804 2.41934
vt 0.5536703 2.38563
vt 0.6745296 2.517379
vt 0.6957747 2.480581
vt 0.8327966 2.595428
vt 0.8490569 2.556172
vt 0.9998971 2.65215
vt 1.010894 2.611108
vt 1.172972 2.686577
vt 1.178518 2.644451
vt 1.349059 2.698119
vt 1.349059 2.655629
vt 1.519601 2.644451
vt 1.525147 2.686577
vt 1.687224 2.611108
vt 1.698222 2.65215
vt 1.849062 2.556172
vt 1.865322 2.595428
vt 2.002344 2.480581
vt 2.023589 2.517379
vt 2.144448 2.38563
vt 2.170315 2.41934
vt 2.272943 2.272943
vt 2.302988 2.302988
vt 2.38563 2.144448
vt 2.41934 2.170315
vt 2.480581 2.002344
vt 2.517379 2.023589
vt 2.556172 1.849062
vt 2.595428 1.865322
vt 2.611108 1.687224
vt 2.65215 1.698222
vt 2.644451 1.519601
vt 2.686577 1.525147
vt 2.698119 1.349059
vn 0 -1 0
vn 0 1 0
vn 0 0 -1
vn 0.1305261948688555 0 -0.9914448610250887
vn -0.1305261948688555 0 0.9914448610250887
vn 0 0 1
vn 0.25881900959356163 0 -0.9659258358036645
vn -0.25881900959356163 0 0.9659258358036645
vn 0.38268341623423263 0 -0.9238795391929066
vn -0.38268341623423263 0 0.9238795391929066
vn 0.5000000016387101 0 -0.866025402838329
vn -0.5000000016387101 0 0.866025402838329
vn 0.608761430209528 0 -0.7933533393698233
vn -0.608761430209528 0 0.7933533393698233
vn 0.7071067811865476 0 -0.7071067811865476
vn -0.7071067811865476 0 0.7071067811865476
vn 0.7933533393698233 0 -0.608761430209528
vn -0.7933533393698233 0 0.608761430209528
vn 0.866025402838329 0 -0.5000000016387101
vn -0.866025402838329 0 0.5000000016387101
vn 0.9238795391929066 0 -0.38268341623423263
vn -0.9238795391929066 0 0.38268341623423263
vn 0.9659258358036645 0 -0.25881900959356163
vn -0.9659258358036645 0 0.25881900959356163
vn 0.9914448610250887 0 -0.1305261948688555
vn -0.9914448610250887 0 0.1305261948688555
vn 1 0 0
vn -1 0 0
vn 0.9914448610250887 0 0.1305261948688555
vn -0.9914448610250887 0 -0.1305261948688555
vn 0.9659258358036645 0 0.25881900959356163
vn -0.9659258358036645 0 -0.25881900959356163
vn 0.9238795391929066 0 0.38268341623423263
vn -0.9238795391929066 0 -0.38268341623423263
vn 0.866025402838329 0 0.5000000016387101
vn -0.866025402838329 0 -0.5000000016387101
vn 0.7933533393698233 0 0.608761430209528
vn -0.7933533393698233 0 -0.608761430209528
vn 0.7071067811865476 0 0.7071067811865476
vn -0.7071067811865476 0 -0.7071067811865476
vn 0.608761430209528 0 0.7933533393698233
vn -0.608761430209528 0 -0.7933533393698233
vn 0.5000000016387101 0 0.866025402838329
vn -0.5000000016387101 0 -0.866025402838329
vn 0.38268341623423263 0 0.9238795391929066
vn -0.38268341623423263 0 -0.9238795391929066
vn 0.25881900959356163 0 0.9659258358036645
vn -0.25881900959356163 0 -0.9659258358036645
vn 0.1305261948688555 0 0.9914448610250887
vn -0.1305261948688555 0 -0.9914448610250887
usemtl material_0_0
f 1/1/1 2/2/1 3/3/1
f 2/2/1 1/1/1 4/4/1
f 2/2/1 4/4/1 5/5/1
f 5/5/1 4/4/1 6/6/1
f 5/5/1 6/6/1 7/7/1
f 7/7/1 6/6/1 8/8/1
f 7/7/1 8/8/1 9/9/1
f 9/9/1 8/8/1 10/10/1
f 9/9/1 10/10/1 11/11/1
f 11/11/1 10/10/1 12/12/1
f 11/11/1 12/12/1 13/13/1
f 13/13/1 12/12/1 14/14/1
f 13/13/1 14/14/1 15/15/1
f 15/15/1 14/14/1 16/16/1
f 15/15/1 16/16/1 17/17/1
f 17/17/1 16/16/1 18/18/1
f 17/17/1 18/18/1 19/19/1
f 19/19/1 18/18/1 20/20/1
f 19/19/1 20/20/1 21/21/1
f 21/21/1 20/20/1 22/22/1
f 21/21/1 22/22/1 23/23/1
f 23/23/1 22/22/1 24/24/1
f 23/23/1 24/24/1 25/25/1
f 25/25/1 24/24/1 26/26/1
f 25/25/1 26/26/1 27/27/1
f 27/27/1 26/26/1 28/28/1
f 27/27/1 28/28/1 29/29/1
f 29/29/1 28/28/1 30/30/1
f 29/29/1 30/30/1 31/31/1
f 31/31/1 30/30/1 32/32/1
f 31/31/1 32/32/1 33/33/1
f 33/33/1 32/32/1 34/34/1
f 33/33/1 34/34/1 35/35/1
f 35/35/1 34/34/1 36/36/1
f 35/35/1 36/36/1 37/37/1
f 37/37/1 36/36/1 38/38/1
f 37/37/1 38/38/1 39/39/1
f 39/39/1 38/38/1 40/40/1
f 39/39/1 40/40/1 41/41/1
f 41/41/1 40/40/1 42/42/1
f 41/41/1 42/42/1 43/43/1
f 43/43/1 42/42/1 44/44/1
f 43/43/1 44/44/1 45/45/1
f 45/45/1 44/44/1 46/46/1
f 45/45/1 46/46/1 47/47/1
f 47/47/1 46/46/1 48/48/1
f 49/48/2 50/46/2 51/47/2
f 51/47/2 50/46/2 52/45/2
f 50/46/2 53/44/2 52/45/2
f 52/45/2 53/44/2 54/43/2
f 53/44/2 55/42/2 54/43/2
f 54/43/2 55/42/2 56/41/2
f 55/42/2 57/40/2 56/41/2
f 56/41/2 57/40/2 58/39/2
f 57/40/2 59/38/2 58/39/2
f 58/39/2 59/38/2 60/37/2
f 59/38/2 61/36/2 60/37/2
f 60/37/2 61/36/2 62/35/2
f 61/36/2 63/34/2 62/35/2
f 62/35/2 63/34/2 64/33/2
f 63/34/2 65/32/2 64/33/2
f 64/33/2 65/32/2 66/31/2
f 65/32/2 67/30/2 66/31/2
f 66/31/2 67/30/2 68/29/2
f 67/30/2 69/28/2 68/29/2
f 68/29/2 69/28/2 70/27/2
f 69/28/2 71/26/2 70/27/2
f 70/27/2 71/26/2 72/25/2
f 71/26/2 73/24/2 72/25/2
f 72/25/2 73/24/2 74/23/2
f 73/24/2 75/22/2 74/23/2
f 74/23/2 75/22/2 76/21/2
f 75/22/2 77/20/2 76/21/2
f 76/21/2 77/20/2 78/19/2
f 77/20/2 79/18/2 78/19/2
f 78/19/2 79/18/2 80/17/2
f 79/18/2 81/16/2 80/17/2
f 80/17/2 81/16/2 82/15/2
f 81/16/2 83/14/2 82/15/2
f 82/15/2 83/14/2 84/13/2
f 83/14/2 85/12/2 84/13/2
f 84/13/2 85/12/2 86/11/2
f 85/12/2 87/10/2 86/11/2
f 86/11/2 87/10/2 88/9/2
f 87/10/2 89/8/2 88/9/2
f 88/9/2 89/8/2 90/7/2
f 89/8/2 91/6/2 90/7/2
f 90/7/2 91/6/2 92/5/2
f 91/6/2 93/4/2 92/5/2
f 92/5/2 93/4/2 94/2/2
f 93/4/2 95/1/2 94/2/2
f 96/3/2 94/2/2 95/1/2
f 97/49/3 98/50/4 99/51/3
f 98/50/4 97/49/3 100/52/4
f 101/52/5 102/49/6 103/50/5
f 104/51/6 103/50/5 102/49/6
f 100/53/4 105/54/7 98/55/4
f 105/54/7 100/53/4 106/56/7
f 107/56/8 101/53/5 108/54/8
f 103/55/5 108/54/8 101/53/5
f 106/57/7 109/58/9 105/59/7
f 109/58/9 106/57/7 110/60/9
f 111/60/10 107/57/8 112/58/10
f 108/59/8 112/58/10 107/57/8
f 110/61/9 113/62/11 109/63/9
f 113/62/11 110/61/9 114/64/11
f 115/64/12 111/61/10 116/62/12
f 112/63/10 116/62/12 111/61/10
f 114/65/11 117/66/13 113/67/11
f 117/66/13 114/65/11 118/68/13
f 119/68/14 115/65/12 120/66/14
f 116/67/12 120/66/14 115/65/12
f 118/69/13 121/70/15 117/71/13
f 121/70/15 118/69/13 122/72/15
f 123/72/16 119/69/14 124/70/16
f 120/71/14 124/70/16 119/69/14
f 121/73/15 125/74/17 126/75/17
f 125/74/17 121/73/15 122/76/15
f 123/76/16 124/73/16 127/74/18
f 128/75/18 127/74/18 124/73/16
f 126/77/17 129/78/19 130/79/19
f 129/78/19 126/77/17 125/80/17
f 127/80/18 128/77/18 131/78/20
f 132/79/20 131/78/20 128/77/18
f 130/81/19 133/82/21 134/83/21
f 133/82/21 130/81/19 129/84/19
f 131/84/20 132/81/20 135/82/22
f 136/83/22 135/82/22 132/81/20
f 134/85/21 137/86/23 138/87/23
f 137/86/23 134/85/21 133/88/21
f 135/88/22 136/85/22 139/86/24
f 140/87/24 139/86/24 136/85/22
f 138/89/23 141/90/25 142/91/25
f 141/90/25 138/89/23 137/92/23
f 139/92/24 140/89/24 143/90/26
f 144/91/26 143/90/26 140/89/24
f 142/93/25 145/94/27 146/95/27
f 145/94/27 142/93/25 141/96/25
f 143/96/26 144/93/26 147/94/28
f 148/95/28 147/94/28 144/93/26
f 146/97/27 149/96/29 150/93/29
f 149/96/29 146/97/27 145/98/27
f 147/98/28 148/97/28 151/96/30
f 152/93/30 151/96/30 148/97/28
f 150/99/29 153/100/31 154/101/31
f 153/100/31 150/99/29 149/102/29
f 151/102/30 152/99/30 155/100/32
f 156/101/32 155/100/32 152/99/30
f 154/103/31 157/104/33 158/105/33
f 157/104/33 154/103/31 153/106/31
f 155/106/32 156/103/32 159/104/34
f 160/105/34 159/104/34 156/103/32
f 158/107/33 161/108/35 162/109/35
f 161/108/35 158/107/33 157/110/33
f 159/110/34 160/107/34 163/108/36
f 164/109/36 163/108/36 160/107/34
f 162/111/35 165/112/37 166/113/37
f 165/112/37 162/111/35 161/114/35
f 163/114/36 164/111/36 167/112/38
f 168/113/38 167/112/38 164/111/36
f 166/115/37 169/116/39 170/117/39
f 169/116/39 166/115/37 165/118/37
f 167/118/38 168/115/38 171/116/40
f 172/117/40 171/116/40 168/115/38
f 169/118/39 173/117/41 170/115/39
f 173/117/41 169/118/39 174/116/41
f 175/116/42 171/118/40 176/117/42
f 172/115/40 176/117/42 171/118/40
f 174/114/41 177/113/43 173/111/41
f 177/113/43 174/114/41 178/112/43
f 179/112/44 175/114/42 180/113/44
f 176/111/42 180/113/44 175/114/42
f 178/110/43 181/109/45 177/107/43
f 181/109/45 178/110/43 182/108/45
f 183/108/46 179/110/44 184/109/46
f 180/107/44 184/109/46 179/110/44
f 182/106/45 185/105/47 181/103/45
f 185/105/47 182/106/45 186/104/47
f 187/104/48 183/106/46 188/105/48
f 184/103/46 188/105/48 183/106/46
f 186/102/47 189/101/49 185/99/47
f 189/101/49 186/102/47 190/100/49
f 191/100/50 187/102/48 192/101/50
f 188/99/48 192/101/50 187/102/48
f 190/98/49 193/93/6 189/97/49
f 193/93/6 190/98/49 194/96/6
f 195/96/3 191/98/50 196/93/3
f 192/97/50 196/93/3 191/98/50
f 194/96/6 197/95/5 193/93/6
f 197/95/5 194/96/6 198/94/5
f 199/94/4 195/96/3 200/95/4
f 196/93/3 200/95/4 195/96/3
f 198/92/5 201/91/8 197/89/5
f 201/91/8 198/92/5 202/90/8
f 203/90/7 199/92/4 204/91/7
f 200/89/4 204/91/7 199/92/4
f 202/88/8 205/87/10 201/85/8
f 205/87/10 202/88/8 206/86/10
f 207/86/9 203/88/7 208/87/9
f 204/85/7 208/87/9 203/88/7
f 206/84/10 209/83/12 205/81/10
f 209/83/12 206/84/10 210/82/12
f 211/82/11 207/84/9 212/83/11
f 208/81/9 212/83/11 207/84/9
f 210/80/12 213/79/14 209/77/12
f 213/79/14 210/80/12 214/78/14
f 215/78/13 211/80/11 216/79/13
f 212/77/11 216/79/13 211/80/11
f 214/76/14 217/75/16 213/73/14
f 217/75/16 214/76/14 218/74/16
f 219/74/15 215/76/13 220/75/15
f 216/73/13 220/75/15 215/76/13
f 221/72/18 217/71/16 218/69/16
f 217/71/16 221/72/18 222/70/18
f 223/70/17 224/72/17 220/71/15
f 219/69/15 220/71/15 224/72/17
f 225/68/20 222/67/18 221/65/18
f 222/67/18 225/68/20 226/66/20
f 227/66/19 228/68/19 223/67/17
f 224/65/17 223/67/17 228/68/19
f 229/64/22 226/63/20 225/61/20
f 226/63/20 229/64/22 230/62/22
f 231/62/21 232/64/21 227/63/19
f 228/61/19 227/63/19 232/64/21
f 233/60/24 230/59/22 229/57/22
f 230/59/22 233/60/24 234/58/24
f 235/58/23 236/60/23 231/59/21
f 232/57/21 231/59/21 236/60/23
f 237/56/26 234/55/24 233/53/24
f 234/55/24 237/56/26 238/54/26
f 239/54/25 240/56/25 235/55/23
f 236/53/23 235/55/23 240/56/25
f 241/52/28 238/51/26 237/49/26
f 238/51/26 241/52/28 242/50/28
f 243/50/27 244/52/27 239/51/25
f 240/49/25 239/51/25 244/52/27
f 245/119/30 242/50/28 241/52/28
f 242/50/28 245/119/30 246/120/30
f 247/120/29 248/119/29 243/50/27
f 244/52/27 243/50/27 248/119/29
f 249/121/32 246/122/30 245/123/30
f 246/122/30 249/121/32 250/124/32
f 251/124/31 252/121/31 247/122/29
f 248/123/29 247/122/29 252/121/31
f 253/125/34 250/126/32 249/127/32
f 250/126/32 253/125/34 254/128/34
f 255/128/33 256/125/33 251/126/31
f 252/127/31 251/126/31 256/125/33
f 257/129/36 254/130/34 253/131/34
f 254/130/34 257/129/36 258/132/36
f 259/132/35 260/129/35 255/130/33
f 256/131/33 255/130/33 260/129/35
f 261/133/38 258/134/36 257/135/36
f 258/134/36 261/133/38 262/136/38
f 263/136/37 264/133/37 259/134/35
f 260/135/35 259/134/35 264/133/37
f 265/137/40 262/138/38 261/139/38
f 262/138/38 265/137/40 266/140/40
f 267/140/39 268/137/39 263/138/37
f 264/139/37 263/138/37 268/137/39
f 265/139/40 269/140/42 266/138/40
f 269/140/42 265/139/40 270/137/42
f 271/137/41 268/139/39 272/140/41
f 267/138/39 272/140/41 268/139/39
f 270/135/42 273/136/44 269/134/42
f 273/136/44 270/135/42 274/133/44
f 275/133/43 271/135/41 276/136/43
f 272/134/41 276/136/43 271/135/41
f 274/131/44 277/132/46 273/130/44
f 277/132/46 274/131/44 278/129/46
f 279/129/45 275/131/43 280/132/45
f 276/130/43 280/132/45 275/131/43
f 278/127/46 281/128/48 277/126/46
f 281/128/48 278/127/46 282/125/48
f 283/125/47 279/127/45 284/128/47
f 280/126/45 284/128/47 279/127/45
f 282/123/48 285/124/50 281/122/48
f 285/124/50 282/123/48 286/121/50
f 287/121/49 283/123/47 288/124/49
f 284/122/47 288/124/49 283/123/47
f 286/52/50 99/120/3 285/50/50
f 99/120/3 286/52/50 97/119/3
f 102/119/6 287/52/49 104/120/6
f 288/50/49 104/120/6 287/52/49
f 289/141/2 290/142/2 291/3/2
f 290/142/2 289/141/2 292/143/2
f 290/142/2 292/143/2 293/144/2
f 293/144/2 292/143/2 294/145/2
f 294/145/2 292/143/2 295/146/2
f 294/145/2 295/146/2 296/147/2
f 296/147/2 295/146/2 297/148/2
f 297/148/2 295/146/2 298/149/2
f 297/148/2 298/149/2 299/150/2
f 299/150/2 298/149/2 300/151/2
f 299/150/2 300/151/2 301/152/2
f 301/152/2 300/151/2 302/153/2
f 301/152/2 302/153/2 303/154/2
f 303/154/2 302/153/2 304/155/2
f 303/154/2 304/155/2 305/156/2
f 305/156/2 304/155/2 306/157/2
f 305/156/2 306/157/2 307/158/2
f 307/158/2 306/157/2 308/159/2
f 307/158/2 308/159/2 309/160/2
f 309/160/2 308/159/2 310/161/2
f 309/160/2 310/161/2 311/162/2
f 311/162/2 310/161/2 312/163/2
f 311/162/2 312/163/2 313/164/2
f 313/164/2 312/163/2 314/165/2
f 313/164/2 314/165/2 315/166/2
f 315/166/2 314/165/2 316/167/2
f 315/166/2 316/167/2 317/168/2
f 317/168/2 316/167/2 318/169/2
f 318/169/2 316/167/2 319/170/2
f 318/169/2 319/170/2 320/171/2
f 320/171/2 319/170/2 321/172/2
f 320/171/2 321/172/2 322/173/2
f 322/173/2 321/172/2 323/174/2
f 322/173/2 323/174/2 324/175/2
f 324/175/2 323/174/2 325/176/2
f 324/175/2 325/176/2 326/177/2
f 326/177/2 325/176/2 327/178/2
f 326/177/2 327/178/2 328/179/2
f 328/179/2 327/178/2 329/180/2
f 328/179/2 329/180/2 330/181/2
f 330/181/2 329/180/2 331/182/2
f 330/181/2 331/182/2 332/183/2
f 332/183/2 331/182/2 333/184/2
f 332/183/2 333/184/2 334/185/2
f 334/185/2 333/184/2 335/186/2
f 334/185/2 335/186/2 336/187/2
f 336/187/2 335/186/2 337/188/2
f 337/188/2 335/186/2 338/189/2
f 293/144/2 339/190/2 290/142/2
f 339/190/2 293/144/2 340/191/2
f 339/190/2 340/191/2 341/192/2
f 341/192/2 340/191/2 342/193/2
f 341/192/2 342/193/2 343/194/2
f 341/192/2 343/194/2 344/195/2
f 344/195/2 343/194/2 345/196/2
f 344/195/2 345/196/2 346/197/2
f 346/197/2 345/196/2 347/198/2
f 346/197/2 347/198/2 348/199/2
f 348/199/2 347/198/2 349/200/2
f 348/199/2 349/200/2 350/201/2
f 350/201/2 349/200/2 351/202/2
f 350/201/2 351/202/2 352/203/2
f 352/203/2 351/202/2 353/204/2
f 352/203/2 353/204/2 354/205/2
f 354/205/2 353/204/2 355/206/2
f 354/205/2 355/206/2 356/207/2
f 356/207/2 355/206/2 357/208/2
f 356/207/2 357/208/2 358/209/2
f 358/209/2 357/208/2 359/210/2
f 358/209/2 359/210/2 360/211/2
f 360/211/2 359/210/2 361/212/2
f 360/211/2 361/212/2 362/213/2
f 360/211/2 362/213/2 363/214/2
f 363/214/2 362/213/2 364/215/2
f 363/214/2 364/215/2 365/216/2
f 365/216/2 364/215/2 366/217/2
f 365/216/2 366/217/2 367/218/2
f 367/218/2 366/217/2 368/219/2
f 367/218/2 368/219/2 369/220/2
f 369/220/2 368/219/2 370/221/2
f 369/220/2 370/221/2 371/222/2
f 371/222/2 370/221/2 372/223/2
f 371/222/2 372/223/2 373/224/2
f 373/224/2 372/223/2 374/225/2
f 373/224/2 374/225/2 375/226/2
f 375/226/2 374/225/2 376/227/2
f 375/226/2 376/227/2 377/228/2
f 377/228/2 376/227/2 378/229/2
f 377/228/2 378/229/2 379/230/2
f 379/230/2 378/229/2 380/231/2
f 379/230/2 380/231/2 381/232/2
f 381/232/2 380/231/2 382/233/2
f 381/232/2 382/233/2 337/188/2
f 381/232/2 337/188/2 383/234/2
f 383/234/2 337/188/2 338/189/2
f 383/234/2 338/189/2 384/235/2
f 385/235/1 386/189/1 387/234/1
f 386/189/1 388/188/1 387/234/1
f 387/234/1 388/188/1 389/232/1
f 388/188/1 390/233/1 389/232/1
f 390/233/1 391/231/1 389/232/1
f 389/232/1 391/231/1 392/230/1
f 391/231/1 393/229/1 392/230/1
f 392/230/1 393/229/1 394/228/1
f 393/229/1 395/227/1 394/228/1
f 394/228/1 395/227/1 396/226/1
f 395/227/1 397/225/1 396/226/1
f 396/226/1 397/225/1 398/224/1
f 397/225/1 399/223/1 398/224/1
f 398/224/1 399/223/1 400/222/1
f 399/223/1 401/221/1 400/222/1
f 400/222/1 401/221/1 402/220/1
f 401/221/1 403/219/1 402/220/1
f 402/220/1 403/219/1 404/218/1
f 403/219/1 405/217/1 404/218/1
f 404/218/1 405/217/1 406/216/1
f 405/217/1 407/215/1 406/216/1
f 406/216/1 407/215/1 408/214/1
f 407/215/1 409/213/1 408/214/1
f 408/214/1 409/213/1 410/211/1
f 409/213/1 411/212/1 410/211/1
f 411/212/1 412/210/1 410/211/1
f 410/211/1 412/210/1 413/209/1
f 412/210/1 414/208/1 413/209/1
f 413/209/1 414/208/1 415/207/1
f 414/208/1 416/206/1 415/207/1
f 415/207/1 416/206/1 417/205/1
f 416/206/1 418/204/1 417/205/1
f 417/205/1 418/204/1 419/203/1
f 418/204/1 420/202/1 419/203/1
f 419/203/1 420/202/1 421/201/1
f 420/202/1 422/200/1 421/201/1
f 421/201/1 422/200/1 423/199/1
f 422/200/1 424/198/1 423/199/1
f 423/199/1 424/198/1 425/197/1
f 424/198/1 426/196/1 425/197/1
f 425/197/1 426/196/1 427/195/1
f 426/196/1 428/194/1 427/195/1
f 427/195/1 428/194/1 429/192/1
f 428/194/1 430/193/1 429/192/1
f 430/193/1 431/191/1 429/192/1
f 429/192/1 431/191/1 432/190/1
f 431/191/1 433/144/1 432/190/1
f 434/142/1 432/190/1 433/144/1
f 386/189/1 435/186/1 388/188/1
f 388/188/1 435/186/1 436/187/1
f 436/187/1 435/186/1 437/185/1
f 435/186/1 438/184/1 437/185/1
f 437/185/1 438/184/1 439/183/1
f 438/184/1 440/182/1 439/183/1
f 439/183/1 440/182/1 441/181/1
f 440/182/1 442/180/1 441/181/1
f 441/181/1 442/180/1 443/179/1
f 442/180/1 444/178/1 443/179/1
f 443/179/1 444/178/1 445/177/1
f 444/178/1 446/176/1 445/177/1
f 445/177/1 446/176/1 447/175/1
f 446/176/1 448/174/1 447/175/1
f 447/175/1 448/174/1 449/173/1
f 448/174/1 450/172/1 449/173/1
f 449/173/1 450/172/1 451/171/1
f 450/172/1 452/170/1 451/171/1
f 451/171/1 452/170/1 453/169/1
f 452/170/1 454/167/1 453/169/1
f 453/169/1 454/167/1 455/168/1
f 455/168/1 454/167/1 456/166/1
f 454/167/1 457/165/1 456/166/1
f 456/166/1 457/165/1 458/164/1
f 457/165/1 459/163/1 458/164/1
f 458/164/1 459/163/1 460/162/1
f 459/163/1 461/161/1 460/162/1
f 460/162/1 461/161/1 462/160/1
f 461/161/1 463/159/1 462/160/1
f 462/160/1 463/159/1 464/158/1
f 463/159/1 465/157/1 464/158/1
f 464/158/1 465/157/1 466/156/1
f 465/157/1 467/155/1 466/156/1
f 466/156/1 467/155/1 468/154/1
f 467/155/1 469/153/1 468/154/1
f 468/154/1 469/153/1 470/152/1
f 469/153/1 471/151/1 470/152/1
f 470/152/1 471/151/1 472/150/1
f 471/151/1 473/149/1 472/150/1
f 472/150/1 473/149/1 474/148/1
f 473/149/1 475/146/1 474/148/1
f 474/148/1 475/146/1 476/147/1
f 476/147/1 475/146/1 477/145/1
f 475/146/1 478/143/1 477/145/1
f 477/145/1 478/143/1 433/144/1
f 433/144/1 478/143/1 434/142/1
f 478/143/1 479/141/1 434/142/1
f 480/3/1 434/142/1 479/141/1
