# SSTK version 0.8.0
# 32
mtllib original_32.mtl
o group_13/ID215#ID215
v 0.09789904 0.40795679 -0.55035056
v 0.09934381 0.40864810 -0.55619717
v 0.09928704 0.40849962 -0.55028462
v 0.09807617 0.40789885 -0.55625971
v 0.09793214 0.40797440 -0.55625475
v 0.09792279 0.40798340 -0.55031001
v 0.09938220 0.40865613 -0.55620436
v 0.09944479 0.40868671 -0.55027203
v 0.09129643 0.40809184 -0.55621798
v 0.09646728 0.41422288 -0.55613297
v 0.09291767 0.40757176 -0.55620678
v 0.09611466 0.41350233 -0.55630503
v 0.09511755 0.41335396 -0.55620907
v 0.09411023 0.41361413 -0.55626233
v 0.08977095 0.40907401 -0.55616382
v 0.09315750 0.41400777 -0.55634611
v 0.09227370 0.41481608 -0.55611434
v 0.08796097 0.41059732 -0.55609539
v 0.09144665 0.41614893 -0.55621120
v 0.08644867 0.41259043 -0.55614967
v 0.09119713 0.41739907 -0.55622257
v 0.09073545 0.41948411 -0.55624468
v 0.08544429 0.41501830 -0.55602484
v 0.08491108 0.41858904 -0.55620201
v 0.10063172 0.40948823 -0.55611778
v 0.10266704 0.41313743 -0.55608370
v 0.10159216 0.41086921 -0.55634418
v 0.09936712 0.40855721 -0.55617395
v 0.10299864 0.41553211 -0.55622554
v 0.09791039 0.40787767 -0.55622024
v 0.09628560 0.40748770 -0.55616638
v 0.10245076 0.41920052 -0.55621750
v 0.09459342 0.40729201 -0.55614787
v 0.09689002 0.41476328 -0.55617670
v 0.10108935 0.42479278 -0.55609764
v 0.09688257 0.41563653 -0.55620496
v 0.09559951 0.42151967 -0.55622342
v 0.10008394 0.42981538 -0.55622774
v 0.09391116 0.42704125 -0.55611293
v 0.10010085 0.43097868 -0.55620915
v 0.10052449 0.43209321 -0.55628963
v 0.10505780 0.43881195 -0.55618337
v 0.10322549 0.43934203 -0.55617158
v 0.10133783 0.43921439 -0.55604442
v 0.09384084 0.42951924 -0.55607277
v 0.09955379 0.43862084 -0.55619731
v 0.09385645 0.43161193 -0.55625265
v 0.09792890 0.43780399 -0.55615940
v 0.09440216 0.43341568 -0.55617738
v 0.09651636 0.43665761 -0.55616137
v 0.09532403 0.43511699 -0.55621134
v 0.10744506 0.42601761 -0.55620293
v 0.11338682 0.42930438 -0.55618414
v 0.11346636 0.42548059 -0.55614998
v 0.11274473 0.43250090 -0.55620998
v 0.11101360 0.43507972 -0.55627267
v 0.10743972 0.42825003 -0.55609996
v 0.10691112 0.43010677 -0.55626428
v 0.10875614 0.43732499 -0.55618528
v 0.10649009 0.43138877 -0.55617659
v 0.10535572 0.43239920 -0.55607193
v 0.10682239 0.43825612 -0.55614933
v 0.10384176 0.43291924 -0.55600301
v 0.10263317 0.43319003 -0.55611898
v 0.10131896 0.43289617 -0.55615047
v 0.10049154 0.43208520 -0.55626008
v 0.10135235 0.43275397 -0.55628472
v 0.10502435 0.43900989 -0.55629446
v 0.10260279 0.43307524 -0.55604679
v 0.10678372 0.43827179 -0.55623171
v 0.10408901 0.43312806 -0.55615070
v 0.10534619 0.43241551 -0.55621655
v 0.10861525 0.43721154 -0.55632971
v 0.10650601 0.43126893 -0.55613058
v 0.10707083 0.43011725 -0.55615596
v 0.11124312 0.43506859 -0.55617485
v 0.10745566 0.42810170 -0.55614707
v 0.10746927 0.42598102 -0.55622940
v 0.11269952 0.43242116 -0.55613999
v 0.11349034 0.42940090 -0.55630422
v 0.11345974 0.42547369 -0.55635878
v 0.09522446 0.43513607 -0.55612066
v 0.09436275 0.43329965 -0.55621182
v 0.09659352 0.43672299 -0.55623516
v 0.09777468 0.43782069 -0.55636226
v 0.09397426 0.43170173 -0.55609945
v 0.09950589 0.43873871 -0.55621188
v 0.09367104 0.42956890 -0.55637656
v 0.10129590 0.43919108 -0.55615270
v 0.09415522 0.42699380 -0.55621087
v 0.10311917 0.43921968 -0.55626059
v 0.09994013 0.43112541 -0.55621735
v 0.10008456 0.42986332 -0.55613717
v 0.09555350 0.42156354 -0.55612437
v 0.10101713 0.42501156 -0.55627231
v 0.09688529 0.41571055 -0.55608987
v 0.09675506 0.41499752 -0.55618700
v 0.10248738 0.41934892 -0.55602536
v 0.09658385 0.41407713 -0.55624061
v 0.09287470 0.40754470 -0.55615060
v 0.09461145 0.40743286 -0.55619567
v 0.09629551 0.40762595 -0.55609173
v 0.10292937 0.41562733 -0.55622113
v 0.09780488 0.40779551 -0.55609365
v 0.09938095 0.40866735 -0.55615958
v 0.10253350 0.41304651 -0.55623611
v 0.10067743 0.40953227 -0.55608622
v 0.10174229 0.41093686 -0.55636593
v 0.08491301 0.41858823 -0.55618078
v 0.08549678 0.41509527 -0.55621215
v 0.09097914 0.41932453 -0.55635326
v 0.08658271 0.41258207 -0.55623300
v 0.09110187 0.41764259 -0.55632353
v 0.09153633 0.41590904 -0.55626488
v 0.08798862 0.41065389 -0.55606947
v 0.09230981 0.41485189 -0.55622336
v 0.08973373 0.40900004 -0.55635679
v 0.09316502 0.41390979 -0.55611393
v 0.09395042 0.41331402 -0.55620943
v 0.09131351 0.40807097 -0.55625353
v 0.09507833 0.41338853 -0.55625799
v 0.09588335 0.41360795 -0.55634232
v 0.09925975 0.40867972 -0.55044554
v 0.10077604 0.40961166 -0.55612236
v 0.10043904 0.40973400 -0.55026836
v 0.09924659 0.40866382 -0.55615174
v 0.09930454 0.40867464 -0.55622034
v 0.09947022 0.40872235 -0.55035681
v 0.10051582 0.40972483 -0.55626644
v 0.10049081 0.40953665 -0.55030915
v 0.11350465 0.42940607 -0.55046109
v 0.10732245 0.42605988 -0.55018184
v 0.11342486 0.42552299 -0.55041337
v 0.11281064 0.43239516 -0.55029829
v 0.11120705 0.43495332 -0.55036025
v 0.10742020 0.42799204 -0.55028566
v 0.10694944 0.43002628 -0.55032016
v 0.10875340 0.43721632 -0.55021800
v 0.10653387 0.43138517 -0.55016475
v 0.10523091 0.43244680 -0.55033809
v 0.10689815 0.43827725 -0.55029192
v 0.10396781 0.43308557 -0.55016449
v 0.10257916 0.43318585 -0.55034236
v 0.10507589 0.43894496 -0.55040805
v 0.10130964 0.43298398 -0.55033758
v 0.10046237 0.43205237 -0.55040547
v 0.10254492 0.41302467 -0.55032109
v 0.10054407 0.40961212 -0.55024988
v 0.10166487 0.41092005 -0.55043239
v 0.09928072 0.40871204 -0.55041016
v 0.10289635 0.41553192 -0.55036817
v 0.09792208 0.40790804 -0.55043741
v 0.09616583 0.40751718 -0.55030712
v 0.10258039 0.41929948 -0.55032597
v 0.09462656 0.40744799 -0.55027471
v 0.09287680 0.40778137 -0.55048302
v 0.09662327 0.41410647 -0.55029738
v 0.09678417 0.41482180 -0.55021636
v 0.10118342 0.42499414 -0.55044908
v 0.09695486 0.41552487 -0.55029062
v 0.09551067 0.42175805 -0.55028619
v 0.10003505 0.42978813 -0.55038866
v 0.09396782 0.42708978 -0.55029269
v 0.10022093 0.43097851 -0.55033405
v 0.10316829 0.43931660 -0.55040862
v 0.10149557 0.43904496 -0.55042674
v 0.09380685 0.42954139 -0.55037242
v 0.09951625 0.43851321 -0.55032657
v 0.09384186 0.43165552 -0.55031131
v 0.09797538 0.43771312 -0.55045477
v 0.09451977 0.43346805 -0.55034353
v 0.09654033 0.43664648 -0.55021704
v 0.09537904 0.43525097 -0.55047877
v 0.09136541 0.40812770 -0.55014281
v 0.09593634 0.41364870 -0.55017851
v 0.09522354 0.41323145 -0.55029905
v 0.09413590 0.41358713 -0.55029244
v 0.08958718 0.40912429 -0.55041003
v 0.09311982 0.41388504 -0.55023051
v 0.09204686 0.41481014 -0.55025873
v 0.08785166 0.41067926 -0.55018145
v 0.09164563 0.41609881 -0.55028813
v 0.08641053 0.41266531 -0.55040530
v 0.09117695 0.41753634 -0.55014141
v 0.09087565 0.41938840 -0.55038786
v 0.08547458 0.41526602 -0.55026411
v 0.08478464 0.41863881 -0.55046353
v 0.08484638 0.41848473 -0.55047702
v 0.09091370 0.41926225 -0.55032011
v 0.08538601 0.41518858 -0.55039350
v 0.08639962 0.41248375 -0.55019227
v 0.09109509 0.41753612 -0.55028096
v 0.09136412 0.41600724 -0.55030340
v 0.08772446 0.41052490 -0.55030715
v 0.09211166 0.41476423 -0.55040938
v 0.08967073 0.40907050 -0.55036678
v 0.09317238 0.41393581 -0.55045800
v 0.09397748 0.41334089 -0.55033007
v 0.09140011 0.40832827 -0.55042468
v 0.09521485 0.41343158 -0.55048608
v 0.09600109 0.41358751 -0.55030874
v 0.09651332 0.41398978 -0.55044757
v 0.09290177 0.40763721 -0.55025459
v 0.09533081 0.43527112 -0.55039656
v 0.09643285 0.43663928 -0.55023024
v 0.09442261 0.43353695 -0.55045112
v 0.09793710 0.43769955 -0.55026325
v 0.09381282 0.43174376 -0.55034189
v 0.09942121 0.43876256 -0.55027130
v 0.09386295 0.42954263 -0.55029354
v 0.10116280 0.43899151 -0.55024213
v 0.09413015 0.42712334 -0.55041645
v 0.10315523 0.43929086 -0.55015645
v 0.10503866 0.43884867 -0.55036516
v 0.10049791 0.43197832 -0.55035902
v 0.10005102 0.43105417 -0.55023967
v 0.10008320 0.42967690 -0.55047809
v 0.09553512 0.42151134 -0.55036315
v 0.10112517 0.42498454 -0.55028505
v 0.09694444 0.41573184 -0.55028813
v 0.09684996 0.41485599 -0.55025928
v 0.10242839 0.41940357 -0.55039533
v 0.09459673 0.40746402 -0.55024246
v 0.09638047 0.40761763 -0.55036725
v 0.10307638 0.41549605 -0.55049891
v 0.09785404 0.40777635 -0.55040092
v 0.09940565 0.40865961 -0.55033848
v 0.10263399 0.41317100 -0.55038029
v 0.10069975 0.40959931 -0.55036863
v 0.10167732 0.41085906 -0.55017741
v 0.10134692 0.43278990 -0.55040491
v 0.10268182 0.43309539 -0.55044080
v 0.10687536 0.43830229 -0.55015353
v 0.10402636 0.43308184 -0.55027878
v 0.10531306 0.43249783 -0.55030770
v 0.10854176 0.43726068 -0.55037688
v 0.10653382 0.43144222 -0.55047358
v 0.10720210 0.42999425 -0.55044254
v 0.11115437 0.43512948 -0.55032386
v 0.10742826 0.42825953 -0.55032990
v 0.10736192 0.42592131 -0.55034542
v 0.11278584 0.43257258 -0.55031935
v 0.11343508 0.42917870 -0.55021499
v 0.11328603 0.42544460 -0.55041698
v 0.09630926 0.40749829 -0.55039293
v 0.09807339 0.40792175 -0.55618237
v 0.09788305 0.40795520 -0.55041393
v 0.09623553 0.40752260 -0.55610269
v 0.09635047 0.40749537 -0.55635312
v 0.09633669 0.40742456 -0.55025194
v 0.09808245 0.40803285 -0.55616890
v 0.09803426 0.40777026 -0.55031054
v 0.08477163 0.41858382 -0.55039898
v 0.09091414 0.41932254 -0.55622544
v 0.08489490 0.41871204 -0.55619785
v 0.09075102 0.41949183 -0.55035677
v 0.09099213 0.41943380 -0.55031406
v 0.08477604 0.41869618 -0.55028597
v 0.09095582 0.41928964 -0.55623236
v 0.08484382 0.41865710 -0.55618255
v 0.09110876 0.41747637 -0.55023184
v 0.09078535 0.41952377 -0.55621849
v 0.09083347 0.41944380 -0.55028911
v 0.09118580 0.41749918 -0.55602516
v 0.09102849 0.41765394 -0.55613639
v 0.09101626 0.41765301 -0.55043867
v 0.09084400 0.41954464 -0.55613876
v 0.09100376 0.41941926 -0.55027205
v 0.09104995 0.41738794 -0.55023581
v 0.09150100 0.41586495 -0.55617772
v 0.09091524 0.41740513 -0.55615116
v 0.09138855 0.41607098 -0.55037347
v 0.09139431 0.41594684 -0.55036684
v 0.09105755 0.41759073 -0.55039345
v 0.09149316 0.41595412 -0.55610676
v 0.09116449 0.41755839 -0.55606970
v 0.09153490 0.41603871 -0.55034589
v 0.09215589 0.41477955 -0.55606199
v 0.09150414 0.41589928 -0.55615479
v 0.09232277 0.41473637 -0.55043941
v 0.09212286 0.41469417 -0.55025514
v 0.09146024 0.41600556 -0.55029685
v 0.09225667 0.41480259 -0.55614590
v 0.09156361 0.41595807 -0.55611337
v 0.09212829 0.41475734 -0.55047294
v 0.09305973 0.41377829 -0.55620247
v 0.09214564 0.41473798 -0.55615392
v 0.09307609 0.41377759 -0.55036232
v 0.09307125 0.41395979 -0.55026173
v 0.09216308 0.41467657 -0.55034622
v 0.09307129 0.41386502 -0.55615610
v 0.09202945 0.41472335 -0.55613165
v 0.09308581 0.41394846 -0.55035788
v 0.09413247 0.41323038 -0.55614500
v 0.09302573 0.41386137 -0.55623491
v 0.09399208 0.41328295 -0.55027790
v 0.09402815 0.41333380 -0.55035437
v 0.09298636 0.41401477 -0.55034321
v 0.09417422 0.41350673 -0.55617056
v 0.09300391 0.41391671 -0.55618754
v 0.09407416 0.41349428 -0.55036926
v 0.09515443 0.41346232 -0.55626305
v 0.09422823 0.41349157 -0.55620651
v 0.09513438 0.41339302 -0.55038935
v 0.09516446 0.41336859 -0.55024013
v 0.09426405 0.41361074 -0.55020185
v 0.09507856 0.41322182 -0.55626621
v 0.09403888 0.41339880 -0.55611055
v 0.09513058 0.41313434 -0.55604589
v 0.09591151 0.41343874 -0.55036323
v 0.09594377 0.41353747 -0.55618628
v 0.09506044 0.41331901 -0.55032955
v 0.09508503 0.41331711 -0.55019161
v 0.09506399 0.41327724 -0.55605688
v 0.09601495 0.41353861 -0.55031989
v 0.09590152 0.41361805 -0.55627392
v 0.09585536 0.41340847 -0.55617492
v 0.09650791 0.41403138 -0.55023633
v 0.09666079 0.41417160 -0.55611435
v 0.09579339 0.41363840 -0.55034016
v 0.09598984 0.41357634 -0.55045836
v 0.09597814 0.41350061 -0.55629318
v 0.09657395 0.41394939 -0.55041717
v 0.09653363 0.41418052 -0.55604456
v 0.09669237 0.41405730 -0.55610567
v 0.09689603 0.41471187 -0.55040276
v 0.09675689 0.41485263 -0.55628637
v 0.09646243 0.41407383 -0.55029716
v 0.09653093 0.41417664 -0.55033524
v 0.09655613 0.41412856 -0.55621679
v 0.09688295 0.41477637 -0.55020224
v 0.09694538 0.41485633 -0.55631317
v 0.09686653 0.41486815 -0.55604651
v 0.09692237 0.41574828 -0.55040987
v 0.09683816 0.41570088 -0.55612838
v 0.09687973 0.41482238 -0.55041896
v 0.09675152 0.41477372 -0.55021397
v 0.09682311 0.41473129 -0.55632916
v 0.09692154 0.41574812 -0.55032955
v 0.09689077 0.41573244 -0.55602025
v 0.09705917 0.41567177 -0.55037189
v 0.09554075 0.42171688 -0.55629557
v 0.09689439 0.41563129 -0.55618731
v 0.09561069 0.42176520 -0.55043148
v 0.09565063 0.42167605 -0.55022943
v 0.09693559 0.41565249 -0.55021756
v 0.09552896 0.42167760 -0.55624104
v 0.09698104 0.41585860 -0.55632325
v 0.09418522 0.42721385 -0.55622017
v 0.09415684 0.42700947 -0.55034266
v 0.09407544 0.42714137 -0.55023974
v 0.09414012 0.42701094 -0.55607652
v 0.09392017 0.42711787 -0.55604184
v 0.09364864 0.42954106 -0.55014515
v 0.09375579 0.42947137 -0.55626347
v 0.09395457 0.42706691 -0.55043777
v 0.09405024 0.42709153 -0.55037528
v 0.09422740 0.42725433 -0.55612121
v 0.09376431 0.42966857 -0.55028099
v 0.09390990 0.42961695 -0.55612042
v 0.09390463 0.42957233 -0.55613601
v 0.09398690 0.43175365 -0.55034209
v 0.09382123 0.43162182 -0.55624258
v 0.09385018 0.42964075 -0.55023785
v 0.09376183 0.42956670 -0.55032233
v 0.09377852 0.42956153 -0.55614108
v 0.09383125 0.43166325 -0.55034564
v 0.09394551 0.43161332 -0.55618596
v 0.09384080 0.43172475 -0.55620770
v 0.09445461 0.43339253 -0.55025726
v 0.09439559 0.43347113 -0.55614121
v 0.09381289 0.43158948 -0.55025541
v 0.09385284 0.43156697 -0.55025827
v 0.09400677 0.43153005 -0.55627016
v 0.09434179 0.43343301 -0.55032978
v 0.09427377 0.43345595 -0.55623420
v 0.09428382 0.43347329 -0.55625110
v 0.09521535 0.43519422 -0.55040711
v 0.09533982 0.43507875 -0.55627811
v 0.09443795 0.43336884 -0.55024700
v 0.09436908 0.43349492 -0.55046371
v 0.09442858 0.43343901 -0.55623504
v 0.09536664 0.43515670 -0.55043642
v 0.09533667 0.43524363 -0.55636701
v 0.09547721 0.43526744 -0.55620310
v 0.09639638 0.43669306 -0.55016554
v 0.09649126 0.43670182 -0.55618827
v 0.09537302 0.43530976 -0.55025730
v 0.09536350 0.43519705 -0.55039370
v 0.09525726 0.43522880 -0.55613462
v 0.09662341 0.43667109 -0.55029518
v 0.09644335 0.43653286 -0.55623893
v 0.09657303 0.43671388 -0.55622257
v 0.09798029 0.43780266 -0.55024848
v 0.09788025 0.43782403 -0.55604352
v 0.09650263 0.43669653 -0.55030337
v 0.09656129 0.43662530 -0.55039577
v 0.09647611 0.43672507 -0.55606500
v 0.09807080 0.43788718 -0.55042825
v 0.09805129 0.43773724 -0.55624552
v 0.09800943 0.43785321 -0.55619354
v 0.09954247 0.43863532 -0.55033665
v 0.09943433 0.43860672 -0.55621114
v 0.09795861 0.43788025 -0.55035907
v 0.09785291 0.43789527 -0.55042924
v 0.09797041 0.43787240 -0.55631000
v 0.09937871 0.43859446 -0.55029536
v 0.09969784 0.43862554 -0.55617953
v 0.09962569 0.43860830 -0.55619707
v 0.10112755 0.43902818 -0.55037055
v 0.10134609 0.43908312 -0.55617700
v 0.09954999 0.43860049 -0.55049917
v 0.09955105 0.43848877 -0.55048194
v 0.09938656 0.43853163 -0.55615440
v 0.10122424 0.43916344 -0.55014588
v 0.10134046 0.43902388 -0.55629381
v 0.10123073 0.43906408 -0.55038258
v 0.10323203 0.43923442 -0.55629174
v 0.10129519 0.43896544 -0.55619111
v 0.10303575 0.43914571 -0.55026757
v 0.10304097 0.43915182 -0.55034847
v 0.10137850 0.43904048 -0.55019204
v 0.10315887 0.43921271 -0.55604233
v 0.10134499 0.43919556 -0.55608663
v 0.10332605 0.43924099 -0.55016536
v 0.10492022 0.43889438 -0.55622691
v 0.10318821 0.43918246 -0.55624655
v 0.10508985 0.43888401 -0.55032235
v 0.10500487 0.43900565 -0.55038499
v 0.10319262 0.43932578 -0.55032111
v 0.10504321 0.43893356 -0.55603286
v 0.10311623 0.43911839 -0.55608034
v 0.10512390 0.43887767 -0.55021537
v 0.10690986 0.43820906 -0.55607124
v 0.10508900 0.43894788 -0.55625476
v 0.10683317 0.43825180 -0.55022356
v 0.10691441 0.43833584 -0.55019740
v 0.10505762 0.43883894 -0.55025371
v 0.10692435 0.43833386 -0.55633777
v 0.10500058 0.43886849 -0.55615893
v 0.10673428 0.43817666 -0.55034557
v 0.10869627 0.43713150 -0.55629153
v 0.10689570 0.43823166 -0.55625982
v 0.10867152 0.43704902 -0.55025995
v 0.10884139 0.43731718 -0.55019718
v 0.10687970 0.43829703 -0.55034831
v 0.10861861 0.43724267 -0.55623007
v 0.10702213 0.43834754 -0.55621991
v 0.10867024 0.43740872 -0.55044193
v 0.11122602 0.43505049 -0.55620967
v 0.10867723 0.43732585 -0.55611830
v 0.11109795 0.43497267 -0.55029263
v 0.11113781 0.43498302 -0.55021675
v 0.10868470 0.43716489 -0.55050306
v 0.11108165 0.43501173 -0.55616076
v 0.10869787 0.43737553 -0.55614211
v 0.11124085 0.43513203 -0.55018803
v 0.11275169 0.43247840 -0.55608294
v 0.11124633 0.43508845 -0.55603093
v 0.11273570 0.43254308 -0.55028806
v 0.11283634 0.43249345 -0.55031031
v 0.11120033 0.43509486 -0.55031167
v 0.11275692 0.43234920 -0.55615913
v 0.11119186 0.43502754 -0.55615862
v 0.11277191 0.43250579 -0.55028447
v 0.11353595 0.42933212 -0.55636245
v 0.11267889 0.43243349 -0.55610631
v 0.11350979 0.42929965 -0.55043968
v 0.11365734 0.42930191 -0.55047100
v 0.11261523 0.43236472 -0.55040241
v 0.11337582 0.42951142 -0.55627201
v 0.11276087 0.43244043 -0.55618280
v 0.11337160 0.42568933 -0.55044102
v 0.11349901 0.42940641 -0.55610433
v 0.11344365 0.42937674 -0.55034996
v 0.11346121 0.42573281 -0.55620480
v 0.11338096 0.42562351 -0.55627195
v 0.11321721 0.42557642 -0.55043300
v 0.11362682 0.42935740 -0.55623330
v 0.11362489 0.42924258 -0.55039123
v 0.11334704 0.42557587 -0.55023536
v 0.10736760 0.42591268 -0.55607634
v 0.11354731 0.42564914 -0.55629961
v 0.10734150 0.42586324 -0.55032256
v 0.10732947 0.42592645 -0.55034698
v 0.11345257 0.42558482 -0.55034138
v 0.10738593 0.42572617 -0.55621419
v 0.11338730 0.42558223 -0.55620117
v 0.10745317 0.42578810 -0.55625724
v 0.10733446 0.42812235 -0.55032450
v 0.10745820 0.42821336 -0.55613095
v 0.10736741 0.42592625 -0.55025339
v 0.10749800 0.42581047 -0.55033445
v 0.10751748 0.42576973 -0.55607023
v 0.10741072 0.42817286 -0.55027441
v 0.10740311 0.42801995 -0.55618691
v 0.10737442 0.42806392 -0.55620015
v 0.10702088 0.43005559 -0.55031317
v 0.10719160 0.42996926 -0.55608251
v 0.10733094 0.42807734 -0.55030949
v 0.10738543 0.42810384 -0.55031130
v 0.10750891 0.42807916 -0.55607471
v 0.10725952 0.42998844 -0.55037386
v 0.10703243 0.43012983 -0.55623234
v 0.10717046 0.42981063 -0.55041300
v 0.10632337 0.43125126 -0.55619172
v 0.10698532 0.42997999 -0.55630651
v 0.10637450 0.43122018 -0.55026481
v 0.10621996 0.43152505 -0.55041840
v 0.10707763 0.43008840 -0.55033659
v 0.10650372 0.43135028 -0.55621778
v 0.10716151 0.42995130 -0.55622653
v 0.10628046 0.43153262 -0.55020216
v 0.10521831 0.43254223 -0.55611404
v 0.10632309 0.43136951 -0.55622042
v 0.10531780 0.43243656 -0.55025033
v 0.10532873 0.43238208 -0.55024496
v 0.10640807 0.43137373 -0.55028893
v 0.10523967 0.43252529 -0.55622176
v 0.10650973 0.43138562 -0.55634902
v 0.10547407 0.43254977 -0.55048933
v 0.10402243 0.43303127 -0.55620137
v 0.10541769 0.43238874 -0.55618385
v 0.10397559 0.43305178 -0.55031076
v 0.10393269 0.43300307 -0.55024153
v 0.10523833 0.43250247 -0.55026640
v 0.10401438 0.43310622 -0.55624419
v 0.10541221 0.43261017 -0.55616258
v 0.10392695 0.43295684 -0.55026352
v 0.10256995 0.43305070 -0.55623952
v 0.10394497 0.43325087 -0.55624336
v 0.10253610 0.43325549 -0.55034944
v 0.10261697 0.43325263 -0.55023225
v 0.10379707 0.43292409 -0.55018137
v 0.10244460 0.43310597 -0.55616890
v 0.10408147 0.43303880 -0.55617681
v 0.10132714 0.43273085 -0.55043301
v 0.10250949 0.43305282 -0.55627152
v 0.10257225 0.43324015 -0.55041973
v 0.10144834 0.43275130 -0.55627819
v 0.10147752 0.43272601 -0.55616986
v 0.10148191 0.43278077 -0.55028105
v 0.10261713 0.43323417 -0.55614808
v 0.10248148 0.43310777 -0.55020813
v 0.10049795 0.43197837 -0.55036280
v 0.10142592 0.43281090 -0.55617151
v 0.10144106 0.43282092 -0.55026556
v 0.10045450 0.43191549 -0.55609816
v 0.10036009 0.43197107 -0.55612182
v 0.10036508 0.43189341 -0.55023568
v 0.10136012 0.43285525 -0.55635153
v 0.10137895 0.43284338 -0.55040286
v 0.10007610 0.43094551 -0.55023036
v 0.10048014 0.43194721 -0.55604791
v 0.10048288 0.43211488 -0.55026553
v 0.10005789 0.43107926 -0.55602374
v 0.10018387 0.43100486 -0.55627346
v 0.10005768 0.43102688 -0.55032373
v 0.10054684 0.43199929 -0.55608689
v 0.10050335 0.43203822 -0.55047888
v 0.09992613 0.42967671 -0.55017351
v 0.10011937 0.43098500 -0.55618024
v 0.10017501 0.43080770 -0.55037456
v 0.09987497 0.42956313 -0.55613690
v 0.10002001 0.42979020 -0.55623365
v 0.09999775 0.42972276 -0.55022704
v 0.10010181 0.43093182 -0.55613636
v 0.10012270 0.43097184 -0.55019951
v 0.09993773 0.42963937 -0.55026485
v 0.10105199 0.42494284 -0.55625921
v 0.10000610 0.42960225 -0.55620935
v 0.10103016 0.42489773 -0.55036481
v 0.10116371 0.42477625 -0.55038904
v 0.10003620 0.42979695 -0.55037507
v 0.10091716 0.42498362 -0.55617948
v 0.09996378 0.42975643 -0.55615308
v 0.10256894 0.41938129 -0.55619901
v 0.10256197 0.41947566 -0.55041556
v 0.10243709 0.41941979 -0.55039759
v 0.10257050 0.41919964 -0.55612835
v 0.10294194 0.41568770 -0.55026354
v 0.10247475 0.41922402 -0.55622160
v 0.10247747 0.41946112 -0.55029813
v 0.10298046 0.41566726 -0.55621568
v 0.10300484 0.41549165 -0.55611999
v 0.10292534 0.41579730 -0.55046750
v 0.10249885 0.41933886 -0.55619605
v 0.10243112 0.41932292 -0.55025490
v 0.10260325 0.41312822 -0.55037137
v 0.10302600 0.41566032 -0.55630841
v 0.10309402 0.41550544 -0.55038236
v 0.10268580 0.41304654 -0.55616341
v 0.10271281 0.41299239 -0.55621658
v 0.10278616 0.41319753 -0.55020253
v 0.10287813 0.41554351 -0.55615378
v 0.10307075 0.41557037 -0.55047333
v 0.10170928 0.41078585 -0.55029219
v 0.10271224 0.41299553 -0.55612551
v 0.10258535 0.41306680 -0.55043649
v 0.10159486 0.41076195 -0.55629807
v 0.10153222 0.41078066 -0.55618114
v 0.10151863 0.41073628 -0.55041753
v 0.10254178 0.41294274 -0.55618635
v 0.10254583 0.41295398 -0.55015966
v 0.10070101 0.40955932 -0.55035188
v 0.10162106 0.41084325 -0.55626684
v 0.10158344 0.41082104 -0.55049141
v 0.10065300 0.40961681 -0.55630051
v 0.10061074 0.40973673 -0.55627716
v 0.10044176 0.40962259 -0.55021507
v 0.10164410 0.41083419 -0.55628470
v 0.10176939 0.41081879 -0.55020829
v 0.09633828 0.40748840 -0.55026214
v 0.09457081 0.40743803 -0.55626737
v 0.09624431 0.40742811 -0.55621765
v 0.09449848 0.40746606 -0.55019234
v 0.09466594 0.40736440 -0.55033632
v 0.09623820 0.40755124 -0.55037476
v 0.09456512 0.40743042 -0.55604059
v 0.09625233 0.40737483 -0.55630243
v 0.09449913 0.40735300 -0.55016875
v 0.09290770 0.40770840 -0.55626450
v 0.09475597 0.40729991 -0.55611176
v 0.09294694 0.40760585 -0.55018836
v 0.09272196 0.40768666 -0.55018013
v 0.09449552 0.40739568 -0.55017385
v 0.09294870 0.40771711 -0.55624445
v 0.09465621 0.40742147 -0.55620528
v 0.09296241 0.40752228 -0.55036788
v 0.09131529 0.40813154 -0.55614645
v 0.09276630 0.40771644 -0.55631912
v 0.09125815 0.40820588 -0.55041723
v 0.09142490 0.40825705 -0.55049484
v 0.09300928 0.40752789 -0.55020333
v 0.09113243 0.40826895 -0.55617244
v 0.09281879 0.40766247 -0.55627384
v 0.09126466 0.40828352 -0.55033908
v 0.08961422 0.40908469 -0.55613492
v 0.09117884 0.40829668 -0.55609701
v 0.08968120 0.40894138 -0.55031622
v 0.08970211 0.40913701 -0.55034941
v 0.09137092 0.40819907 -0.55027322
v 0.08967770 0.40924526 -0.55620620
v 0.09129802 0.40826752 -0.55610408
v 0.08959650 0.40895502 -0.55032180
v 0.08803085 0.41062120 -0.55623266
v 0.08956371 0.40907668 -0.55607520
v 0.08795760 0.41059835 -0.55027519
v 0.08775064 0.41050338 -0.55032796
v 0.08956308 0.40907995 -0.55026503
v 0.08793889 0.41052879 -0.55613766
v 0.08969871 0.40895668 -0.55605821
v 0.08772000 0.41062304 -0.55037050
v 0.08647935 0.41261570 -0.55613363
v 0.08792849 0.41067524 -0.55615133
v 0.08652820 0.41243590 -0.55032258
v 0.08655052 0.41263101 -0.55026049
v 0.08789025 0.41058033 -0.55041020
v 0.08655874 0.41263967 -0.55617655
v 0.08797752 0.41071020 -0.55629952
v 0.08653807 0.41258612 -0.55048752
v 0.08554385 0.41516490 -0.55613541
v 0.08652708 0.41265491 -0.55634343
v 0.08557349 0.41518366 -0.55033166
v 0.08553707 0.41507524 -0.55046292
v 0.08653907 0.41254445 -0.55032558
v 0.08556804 0.41510545 -0.55632252
v 0.08650980 0.41268797 -0.55625532
v 0.08551608 0.41506935 -0.55623068
v 0.08488780 0.41872538 -0.55032327
v 0.08492786 0.41845692 -0.55628859
v 0.08552635 0.41511363 -0.55036891
v 0.08548237 0.41528010 -0.55027457
v 0.08564887 0.41516576 -0.55622165
v 0.08485957 0.41853660 -0.55034539
v 0.08487544 0.41867391 -0.55637344
vt -0.1881906 0.04249006
vt -0.1773302 0
vt -0.1773302 0.04249006
vt -0.1881906 0
vt -0.05845099 0.2297684
vt -0.05138641 0.1764167
vt -0.04719213 0.2267015
vt -0.05269581 0.1816637
vt -0.05662402 0.1863504
vt -0.06260968 0.1896554
vt -0.07072867 0.2307907
vt -0.07009148 0.1907571
vt -0.07850922 0.189338
vt -0.08678838 0.2288861
vt -0.08685228 0.1850807
vt -0.1020621 0.2231724
vt -0.09512065 0.1779852
vt -0.1033143 0.1680515
vt -0.1175599 0.2124171
vt -0.1342918 0.1953879
vt -0.01139614 0.1862431
vt -0.01292567 0.1593688
vt -0.01030716 0.1752217
vt -0.01466308 0.1964522
vt -0.0207812 0.1434786
vt -0.02010797 0.2058491
vt -0.02773083 0.2144337
vt -0.03761523 0.1242274
vt -0.03695207 0.2215899
vt -0.05232178 0.1710391
vt -0.06716925 0.09829145
vt -0.05512789 0.1659602
vt -0.08580196 0.1377275
vt -0.09156005 0.07543645
vt -0.1148329 0.1124825
vt -0.09571233 0.06796749
vt -0.09709642 0.06049854
vt -0.0979498 0.004406684
vt -0.109427 0.009915038
vt -0.1194834 0.01762673
vt -0.1256996 0.09991595
vt -0.1276613 0.02702828
vt -0.1328634 0.0879096
vt -0.1335026 0.03760619
vt -0.1368476 0.07564184
vt -0.1370074 0.04936046
vt -0.1381757 0.06229109
vt -0.03515777 0.06886377
vt -0.01366469 0.02629072
vt 0 0.04765193
vt -0.02983381 0.01150219
vt -0.04876936 0.002875548
vt -0.04338675 0.05611986
vt -0.05221383 0.04701707
vt -0.07073334 0
vt -0.06163901 0.0415554
vt -0.07166229 0.03973484
vt -0.08505193 0.001101671
vt -0.08157383 0.04130332
vt -0.08976517 0.04600876
vt -0.09526361 0.05276817
vt -0.1915747 0.04249006
vt -0.1808556 0
vt -0.1808556 0.04249006
vt -0.1915747 0
vt 0.01366469 0.02629072
vt 0.03515777 0.06886377
vt 0.02983381 0.01150219
vt 0.04876936 0.002875548
vt 0.04338675 0.05611986
vt 0.05221383 0.04701707
vt 0.07073334 0
vt 0.06163901 0.0415554
vt 0.07166229 0.03973484
vt 0.08505193 0.001101671
vt 0.08157383 0.04130332
vt 0.08976517 0.04600876
vt 0.0979498 0.004406684
vt 0.09526361 0.05276817
vt 0.09709642 0.06049854
vt 0.01292567 0.1593688
vt 0.01139614 0.1862431
vt 0.01030716 0.1752217
vt 0.01466308 0.1964522
vt 0.0207812 0.1434786
vt 0.02010797 0.2058491
vt 0.02773083 0.2144337
vt 0.03761523 0.1242274
vt 0.03695207 0.2215899
vt 0.04719213 0.2267015
vt 0.05138641 0.1764167
vt 0.05232178 0.1710391
vt 0.06716925 0.09829145
vt 0.05512789 0.1659602
vt 0.08580196 0.1377275
vt 0.09156005 0.07543645
vt 0.1148329 0.1124825
vt 0.09571233 0.06796749
vt 0.109427 0.009915038
vt 0.1194834 0.01762673
vt 0.1256996 0.09991595
vt 0.1276613 0.02702828
vt 0.1328634 0.0879096
vt 0.1335026 0.03760619
vt 0.1368476 0.07564184
vt 0.1370074 0.04936046
vt 0.1381757 0.06229109
vt 0.05845099 0.2297684
vt 0.05269581 0.1816637
vt 0.05662402 0.1863504
vt 0.06260968 0.1896554
vt 0.07072867 0.2307907
vt 0.07009148 0.1907571
vt 0.07850922 0.189338
vt 0.08678838 0.2288861
vt 0.08685228 0.1850807
vt 0.1020621 0.2231724
vt 0.09512065 0.1779852
vt 0.1033143 0.1680515
vt 0.1175599 0.2124171
vt 0.1342918 0.1953879
vt -0.1787559 0.04249006
vt -0.1672753 0
vt -0.1672753 0.04249006
vt -0.1787559 0
vt 0.2299734 0.04249006
vt 0.1886589 0
vt 0.2299734 0
vt 0.1886589 0.04249006
vt -0.07677814 0.04249006
vt -0.06390122 0
vt -0.06390122 0.04249006
vt -0.07677814 0
vt -0.04372471 0.04249006
vt -0.05462022 0
vt -0.04372471 0
vt -0.05462022 0.04249006
vt -0.006761491 0.04249006
vt -0.01612799 0
vt -0.006761491 0
vt -0.01612799 0.04249006
vt 0.0459415 0.04249006
vt 0.03740497 0
vt 0.0459415 0
vt 0.03740497 0.04249006
vt 0.09713252 0.04249006
vt 0.08957006 0
vt 0.09713252 0
vt 0.08957006 0.04249006
vt 0.1464827 0.04249006
vt 0.1396452 0
vt 0.1464827 0
vt 0.1396452 0.04249006
vt 0.1791926 0
vt 0.1730773 0.04249006
vt 0.1730773 0
vt 0.1791926 0.04249006
vt 0.1890173 0
vt 0.1836094 0.04249006
vt 0.1836094 0
vt 0.1890173 0.04249006
vt 0.1650014 0
vt 0.159543 0.04249006
vt 0.159543 0
vt 0.1650014 0.04249006
vt 0.1244057 0
vt 0.1186032 0.04249006
vt 0.1186032 0
vt 0.1244057 0.04249006
vt 0.07182932 0.04249006
vt 0.03014022 0
vt 0.07182932 0
vt 0.03014022 0.04249006
vt 0.0256298 0.04249006
vt -0.01284235 0
vt 0.0256298 0
vt -0.01284235 0.04249006
vt 0.009971097 0
vt -0.006642257 0.04249006
vt -0.006642257 0
vt 0.009971097 0.04249006
vt 0.02139607 0
vt 0.007414942 0.04249006
vt 0.007414942 0
vt 0.02139607 0.04249006
vt 0.04257051 0
vt 0.02967199 0.04249006
vt 0.02967199 0
vt 0.04257051 0.04249006
vt 0.06172422 0
vt 0.04830757 0.04249006
vt 0.04830757 0
vt 0.06172422 0.04249006
vt 0.07447173 0
vt 0.06148843 0.04249006
vt 0.06148843 0
vt 0.07447173 0.04249006
vt 0.08645101 0
vt 0.07418535 0.04249006
vt 0.07418535 0
vt 0.08645101 0.04249006
vt 0.09745666 0
vt 0.08537307 0.04249006
vt 0.08537307 0
vt 0.09745666 0.04249006
vt 0.1041766 0
vt 0.09171605 0.04249006
vt 0.09171605 0
vt 0.1041766 0.04249006
vt 0.1055411 0.04249006
vt 0.09286818 0
vt 0.1055411 0
vt 0.09286818 0.04249006
vt 0.1029434 0.04249006
vt 0.09021279 0
vt 0.1029434 0
vt 0.09021279 0.04249006
vt 0.09597806 0.04249006
vt 0.08266347 0
vt 0.09597806 0
vt 0.08266347 0.04249006
vt 0.08488581 0.04249006
vt 0.0705249 0
vt 0.08488581 0
vt 0.0705249 0.04249006
vt 0.07013483 0.04249006
vt 0.04798341 0
vt 0.07013483 0
vt 0.04798341 0.04249006
vt 0.04318854 0.04249006
vt 0.02238051 0
vt 0.04318854 0
vt 0.02238051 0.04249006
vt 0.01425174 0.04249006
vt -0.00766038 0
vt 0.01425174 0
vt -0.00766038 0.04249006
vt -0.0401414 0.04249006
vt -0.01478346 0
vt -0.01478346 0.04249006
vt -0.0401414 0
vt -0.02461663 0.04249006
vt -0.06567769 0
vt -0.02461663 0
vt -0.06567769 0.04249006
vt 0.03877969 0
vt 0.02360988 0.04249006
vt 0.02360988 0
vt 0.03877969 0.04249006
vt 0.01008444 0
vt -0.002595394 0.04249006
vt -0.002595394 0
vt 0.01008444 0.04249006
vt -0.02160346 0.04249006
vt -0.03249675 0
vt -0.02160346 0
vt -0.03249675 0.04249006
vt -0.05322042 0.04249006
vt -0.06340769 0
vt -0.05322042 0
vt -0.06340769 0.04249006
vt -0.07699218 0.04249006
vt -0.08702705 0
vt -0.07699218 0
vt -0.08702705 0.04249006
vt -0.09130741 0.04249006
vt -0.1007541 0
vt -0.09130741 0
vt -0.1007541 0.04249006
vt -0.1010499 0.04249006
vt -0.09233653 0
vt -0.09233653 0.04249006
vt -0.1010499 0
vt -0.08126648 0.04249006
vt -0.07332181 0
vt -0.07332181 0.04249006
vt -0.08126648 0
vt -0.04938992 0.04249006
vt -0.0417938 0
vt -0.0417938 0.04249006
vt -0.04938992 0
vt -0.02144378 0.04249006
vt -0.01289821 0
vt -0.01289821 0.04249006
vt -0.02144378 0
vt 0.0152316 0.04249006
vt -0.01819388 0
vt 0.0152316 0
vt -0.01819388 0.04249006
vt -0.0143477 0.04249006
vt -0.05366835 0
vt -0.0143477 0
vt -0.05366835 0.04249006
vt -0.09432913 0.04249006
vt -0.06875582 0
vt -0.06875582 0.04249006
vt -0.09432913 0
vt -0.1371363 0.04249006
vt -0.1194103 0
vt -0.1194103 0.04249006
vt -0.1371363 0
vt -0.1711995 0.04249006
vt -0.1551318 0
vt -0.1551318 0.04249006
vt -0.1711995 0
vt -0.1864611 0.04249006
vt -0.1753861 0
vt -0.1753861 0.04249006
vt -0.1864611 0
vt -0.1533753 0.04249006
vt -0.1650476 0
vt -0.1533753 0
vt -0.1650476 0.04249006
vt -0.1320288 0.04249006
vt -0.1434737 0
vt -0.1320288 0
vt -0.1434737 0.04249006
vt -0.1051159 0.04249006
vt -0.116785 0
vt -0.1051159 0
vt -0.116785 0.04249006
vt -0.07731533 0.04249006
vt -0.0896355 0
vt -0.07731533 0
vt -0.0896355 0.04249006
vt -0.04305658 0.04249006
vt -0.05922883 0
vt -0.04305658 0
vt -0.05922883 0.04249006
vt -0.001090501 0.04249006
vt -0.01739797 0
vt -0.001090501 0
vt -0.01739797 0.04249006
vt 0.04339161 0.04249006
vt 0.02452741 0
vt 0.04339161 0
vt 0.02452741 0.04249006
vt 0.06912617 0
vt 0.04525252 0.04249006
vt 0.04525252 0
vt 0.06912617 0.04249006
vn 0.43696538025917125 -0.8994783246165283 3.23583385087057e-8
vn -0.43696538025917125 0.8994783246165283 -3.23583385087057e-8
vn 0 -3.597456311981437e-8 -1
vn 0 3.597456311981437e-8 1
vn 0.6191657849942065 -0.7852602948656625 2.8249394264669427e-8
vn -0.6191657849942065 0.7852602948656625 -2.8249394264669427e-8
vn 0.24862268265728316 -0.9686004138282693 3.484497601101263e-8
vn -0.24862268265728316 0.9686004138282693 -3.484497601101263e-8
vn -0.12926451558184932 0.9916101476948431 -3.567274147720398e-8
vn 0.12926451558184932 -0.9916101476948431 3.567274147720398e-8
vn 0.995367674404619 0.09614152458922544 -3.4586522038123205e-9
vn -0.995367674404619 -0.09614152458922544 3.4586522038123205e-9
vn 0.9642554877650071 0.26497425217380627 -9.532335729629234e-9
vn -0.9642554877650071 -0.26497425217380627 9.532335729629234e-9
vn 0.8749103021939806 0.4842850019511624 -1.742194388371812e-8
vn -0.8749103021939806 -0.4842850019511624 1.742194388371812e-8
vn 0.6892301569451162 0.724542469947352 -2.606510079781589e-8
vn -0.6892301569451162 -0.724542469947352 2.606510079781589e-8
vn 0.43245664059404454 0.9016547310396104 -3.243663627622957e-8
vn -0.43245664059404454 -0.9016547310396104 3.243663627622957e-8
vn 0.08879902517138791 0.9960495635903918 -3.583244815090781e-8
vn -0.08879902517138791 -0.9960495635903918 3.583244815090781e-8
vn -0.2761747044830136 0.961107451122776 -3.457541987207046e-8
vn 0.2761747044830136 -0.961107451122776 3.457541987207046e-8
vn -0.6689716798543979 0.7432878927796313 -2.6739455293475418e-8
vn 0.6689716798543979 -0.7432878927796313 2.6739455293475418e-8
vn -0.9125996887523509 0.4088542626524908 -1.4708350857293594e-8
vn 0.9125996887523509 -0.4088542626524908 1.4708350857293594e-8
vn -0.9960733550271801 0.08853175365312349 -3.184888298833145e-9
vn 0.9960733550271801 -0.08853175365312349 3.184888298833145e-9
vn -0.9728837899467806 -0.2312944687163709 8.320720258561533e-9
vn -0.9695238770756752 -0.24499684034728136 8.813657082038036e-9
vn 0.9695238770756752 0.24499684034728136 -8.813657082038036e-9
vn 0.9728837899467806 0.2312944687163709 -8.320720258561533e-9
vn -0.9659709654010645 -0.25865052484411327 9.30484240658215e-9
vn 0.9659709654010645 0.25865052484411327 -9.30484240658215e-9
vn -0.9928592560382125 -0.11929164974652375 4.2914678353101065e-9
vn 0.9928592560382125 0.11929164974652375 -4.2914678353101065e-9
vn -0.9984631801949115 0.05541911037777236 -1.9936754163957205e-9
vn 0.9984631801949115 -0.05541911037777236 1.9936754163957205e-9
vn -0.9612247976287771 0.27576600302342613 -9.92055872109334e-9
vn 0.9612247976287771 -0.27576600302342613 9.92055872109334e-9
vn -0.8803187660568664 0.47438261996843417 -1.7065704976415784e-8
vn 0.8803187660568664 -0.47438261996843417 1.7065704976415784e-8
vn -0.7753571514708955 0.6315229906052022 -2.2718761460045474e-8
vn 0.7753571514708955 -0.6315229906052022 2.2718761460045474e-8
vn -0.6346886526534822 0.7727679562410094 -2.7799987795715678e-8
vn 0.6346886526534822 -0.7727679562410094 2.7799987795715678e-8
vn -0.45541575786745314 0.8902788818600677 -3.2027392521600386e-8
vn 0.45541575786745314 -0.8902788818600677 3.2027392521600386e-8
vn -0.2585143333554252 0.9660074220469523 -3.475169423609422e-8
vn 0.2585143333554252 -0.9660074220469523 3.475169423609422e-8
vn -0.06074223060358595 0.9981534859034955 -3.590813540742526e-8
vn 0.06074223060358595 -0.9981534859034955 3.590813540742526e-8
vn 0.14542323254776765 0.9893695383603422 -3.559213732427185e-8
vn -0.14542323254776765 -0.9893695383603422 3.559213732427185e-8
vn 0.33590382313945033 0.9418962902572129 -3.3884308511009696e-8
vn -0.33590382313945033 -0.9418962902572129 3.3884308511009696e-8
vn 0.49394693319079264 0.8694920512525744 -3.127959809874997e-8
vn -0.49394693319079264 -0.8694920512525744 3.127959809874997e-8
vn 0.6620813524370267 0.749431973400626 -2.6960489732835732e-8
vn -0.6620813524370267 -0.749431973400626 2.6960489732835732e-8
vn 0.8525764995009523 0.522602442109394 -1.8800396989129683e-8
vn -0.8525764995009523 -0.522602442109394 1.8800396989129683e-8
vn 0.9721516070766656 0.23435283838318718 -8.430743769081053e-9
vn -0.9721516070766656 -0.23435283838318718 8.430743769081053e-9
vn 0.9997044233491343 -0.024311847650364447 0
vn -0.9997044233491343 0.024311847650364447 0
vn -0.050523997180678654 -0.9987228472949268 3.592861825433458e-8
vn 0.050523997180678654 0.9987228472949268 -3.592861825433458e-8
vn -0.999798962234547 0.020050813318239658 0
vn 0.999798962234547 -0.020050813318239658 0
vn -0.9844448959044192 -0.17569361663912894 6.3205039292008444e-9
vn 0.9844448959044192 0.17569361663912894 -6.3205039292008444e-9
vn -0.8994914404295093 -0.4369383807747336 1.571866994230232e-8
vn 0.8994914404295093 0.4369383807747336 -1.571866994230232e-8
vn -0.6983474603635845 -0.7157589151409369 2.5749116277204236e-8
vn 0.6983474603635845 0.7157589151409369 -2.5749116277204236e-8
vn -0.4227388797579332 -0.90625153215926 3.2602004160344857e-8
vn 0.4227388797579332 0.90625153215926 -3.2602004160344857e-8
vn -0.0719358108048173 -0.9974092636043905 3.5881362716448404e-8
vn 0.0719358108048173 0.9974092636043905 -3.5881362716448404e-8
vn 0.29025776481929577 -0.9569484991169093 3.4425803350171686e-8
vn -0.29025776481929577 0.9569484991169093 -3.4425803350171686e-8
vn 0.6776706953372008 -0.735365506861176 2.6454450896205828e-8
vn -0.6776706953372008 0.735365506861176 -2.6454450896205828e-8
vn 0.9170498501604855 -0.3987725822077429 1.4345666794997803e-8
vn -0.9170498501604855 0.3987725822077429 -1.4345666794997803e-8
vn 0.9963024230769848 -0.08591555022770303 3.09077152291312e-9
vn -0.9963024230769848 0.08591555022770303 -3.09077152291312e-9
vn 0.9749096651436325 0.22260086435036586 -8.007971645377006e-9
vn 0.9711501485280922 0.23846884285764577 -8.578815228972367e-9
vn -0.9711501485280922 -0.23846884285764577 8.578815228972367e-9
vn -0.9749096651436325 -0.22260086435036586 8.007971645377006e-9
vn 0.9671324044078262 0.2542733024608299 -9.147373747001315e-9
vn -0.9671324044078262 -0.2542733024608299 9.147373747001315e-9
vn 0.9921851413488891 0.12477437752393238 -4.488706569870957e-9
vn -0.9921851413488891 -0.12477437752393238 4.488706569870957e-9
vn 0.9909974547028707 -0.13388071097970636 4.816297241175822e-9
vn -0.9909974547028707 0.13388071097970636 -4.816297241175822e-9
vn 0.9090849351171953 -0.41661082648313974 1.4987389862507738e-8
vn -0.9090849351171953 0.41661082648313974 -1.4987389862507738e-8
vn 0.7700362327760785 -0.6380001569059562 2.295177470325301e-8
vn -0.7700362327760785 0.6380001569059562 -2.295177470325301e-8
vn 0.06650785696009336 -0.9977859013649043 3.5894911697678956e-8
vn -0.06650785696009336 0.9977859013649043 -3.5894911697678956e-8
vn -0.13005606405410777 -0.9915066415323461 3.566901863308681e-8
vn 0.13005606405410777 0.9915066415323461 -3.566901863308681e-8
vn -0.32164143699593667 -0.9468615453207442 3.406293135173216e-8
vn 0.32164143699593667 0.9468615453207442 -3.406293135173216e-8
vn -0.48847181875760554 -0.8725796710212975 3.1390673855283456e-8
vn 0.48847181875760554 0.8725796710212975 -3.1390673855283456e-8
vn -0.652936093770224 -0.7574130032235256 2.7247603767692396e-8
vn 0.652936093770224 0.7574130032235256 -2.7247603767692396e-8
vn -0.8142202247961551 -0.5805561346957744 2.088525565093219e-8
vn 0.8142202247961551 0.5805561346957744 -2.088525565093219e-8
vn -0.9320725040115659 -0.36227178646095143 1.303257192580373e-8
vn 0.9320725040115659 0.36227178646095143 -1.303257192580373e-8
vn -0.9832693231389753 -0.18215772883361592 6.5530475379783255e-9
vn 0.9832693231389753 0.18215772883361592 -6.5530475379783255e-9
usemtl material_0_0
f 1/1/1 2/2/1 3/3/1
f 2/2/1 1/1/1 4/4/1
f 5/4/2 6/1/2 7/2/2
f 8/3/2 7/2/2 6/1/2
f 9/5/3 10/6/3 11/7/3
f 10/6/3 9/5/3 12/8/3
f 12/8/3 9/5/3 13/9/3
f 13/9/3 9/5/3 14/10/3
f 14/10/3 9/5/3 15/11/3
f 14/10/3 15/11/3 16/12/3
f 16/12/3 15/11/3 17/13/3
f 17/13/3 15/11/3 18/14/3
f 17/13/3 18/14/3 19/15/3
f 19/15/3 18/14/3 20/16/3
f 19/15/3 20/16/3 21/17/3
f 21/17/3 20/16/3 22/18/3
f 22/18/3 20/16/3 23/19/3
f 22/18/3 23/19/3 24/20/3
f 25/21/3 26/22/3 27/23/3
f 26/22/3 25/21/3 28/24/3
f 26/22/3 28/24/3 29/25/3
f 29/25/3 28/24/3 30/26/3
f 29/25/3 30/26/3 31/27/3
f 29/25/3 31/27/3 32/28/3
f 32/28/3 31/27/3 33/29/3
f 32/28/3 33/29/3 11/7/3
f 32/28/3 11/7/3 10/6/3
f 32/28/3 10/6/3 34/30/3
f 32/28/3 34/30/3 35/31/3
f 35/31/3 34/30/3 36/32/3
f 35/31/3 36/32/3 37/33/3
f 35/31/3 37/33/3 38/34/3
f 38/34/3 37/33/3 39/35/3
f 38/34/3 39/35/3 40/36/3
f 40/36/3 39/35/3 41/37/3
f 41/37/3 39/35/3 42/38/3
f 42/38/3 39/35/3 43/39/3
f 43/39/3 39/35/3 44/40/3
f 44/40/3 39/35/3 45/41/3
f 44/40/3 45/41/3 46/42/3
f 46/42/3 45/41/3 47/43/3
f 46/42/3 47/43/3 48/44/3
f 48/44/3 47/43/3 49/45/3
f 48/44/3 49/45/3 50/46/3
f 50/46/3 49/45/3 51/47/3
f 52/48/3 53/49/3 54/50/3
f 53/49/3 52/48/3 55/51/3
f 55/51/3 52/48/3 56/52/3
f 56/52/3 52/48/3 57/53/3
f 56/52/3 57/53/3 58/54/3
f 56/52/3 58/54/3 59/55/3
f 59/55/3 58/54/3 60/56/3
f 59/55/3 60/56/3 61/57/3
f 59/55/3 61/57/3 62/58/3
f 62/58/3 61/57/3 63/59/3
f 62/58/3 63/59/3 64/60/3
f 62/58/3 64/60/3 42/38/3
f 42/38/3 64/60/3 65/61/3
f 42/38/3 65/61/3 41/37/3
f 66/37/4 67/61/4 68/38/4
f 67/61/4 69/60/4 68/38/4
f 68/38/4 69/60/4 70/58/4
f 69/60/4 71/59/4 70/58/4
f 71/59/4 72/57/4 70/58/4
f 70/58/4 72/57/4 73/55/4
f 72/57/4 74/56/4 73/55/4
f 74/56/4 75/54/4 73/55/4
f 73/55/4 75/54/4 76/52/4
f 75/54/4 77/53/4 76/52/4
f 77/53/4 78/48/4 76/52/4
f 76/52/4 78/48/4 79/51/4
f 79/51/4 78/48/4 80/49/4
f 81/50/4 80/49/4 78/48/4
f 82/47/4 83/45/4 84/46/4
f 84/46/4 83/45/4 85/44/4
f 83/45/4 86/43/4 85/44/4
f 85/44/4 86/43/4 87/42/4
f 86/43/4 88/41/4 87/42/4
f 87/42/4 88/41/4 89/40/4
f 88/41/4 90/35/4 89/40/4
f 89/40/4 90/35/4 91/39/4
f 91/39/4 90/35/4 68/38/4
f 68/38/4 90/35/4 66/37/4
f 66/37/4 90/35/4 92/36/4
f 92/36/4 90/35/4 93/34/4
f 90/35/4 94/33/4 93/34/4
f 93/34/4 94/33/4 95/31/4
f 94/33/4 96/32/4 95/31/4
f 96/32/4 97/30/4 95/31/4
f 95/31/4 97/30/4 98/28/4
f 97/30/4 99/6/4 98/28/4
f 99/6/4 100/7/4 98/28/4
f 100/7/4 101/29/4 98/28/4
f 101/29/4 102/27/4 98/28/4
f 98/28/4 102/27/4 103/25/4
f 102/27/4 104/26/4 103/25/4
f 104/26/4 105/24/4 103/25/4
f 103/25/4 105/24/4 106/22/4
f 105/24/4 107/21/4 106/22/4
f 108/23/4 106/22/4 107/21/4
f 109/20/4 110/19/4 111/18/4
f 110/19/4 112/16/4 111/18/4
f 111/18/4 112/16/4 113/17/4
f 113/17/4 112/16/4 114/15/4
f 112/16/4 115/14/4 114/15/4
f 114/15/4 115/14/4 116/13/4
f 115/14/4 117/11/4 116/13/4
f 116/13/4 117/11/4 118/12/4
f 118/12/4 117/11/4 119/10/4
f 117/11/4 120/5/4 119/10/4
f 119/10/4 120/5/4 121/9/4
f 121/9/4 120/5/4 122/8/4
f 122/8/4 120/5/4 99/6/4
f 100/7/4 99/6/4 120/5/4
f 123/62/5 124/63/5 125/64/5
f 124/63/5 123/62/5 126/65/5
f 127/65/6 128/62/6 129/63/6
f 130/64/6 129/63/6 128/62/6
f 131/66/4 132/67/4 133/50/4
f 132/67/4 131/66/4 134/68/4
f 132/67/4 134/68/4 135/69/4
f 132/67/4 135/69/4 136/70/4
f 136/70/4 135/69/4 137/71/4
f 137/71/4 135/69/4 138/72/4
f 137/71/4 138/72/4 139/73/4
f 139/73/4 138/72/4 140/74/4
f 140/74/4 138/72/4 141/75/4
f 140/74/4 141/75/4 142/76/4
f 142/76/4 141/75/4 143/77/4
f 143/77/4 141/75/4 144/78/4
f 143/77/4 144/78/4 145/79/4
f 145/79/4 144/78/4 146/80/4
f 147/81/4 148/82/4 149/83/4
f 148/82/4 147/81/4 150/84/4
f 150/84/4 147/81/4 151/85/4
f 150/84/4 151/85/4 152/86/4
f 152/86/4 151/85/4 153/87/4
f 153/87/4 151/85/4 154/88/4
f 153/87/4 154/88/4 155/89/4
f 155/89/4 154/88/4 156/90/4
f 156/90/4 154/88/4 157/91/4
f 157/91/4 154/88/4 158/92/4
f 158/92/4 154/88/4 159/93/4
f 158/92/4 159/93/4 160/94/4
f 160/94/4 159/93/4 161/95/4
f 161/95/4 159/93/4 162/96/4
f 161/95/4 162/96/4 163/97/4
f 163/97/4 162/96/4 164/98/4
f 163/97/4 164/98/4 146/80/4
f 163/97/4 146/80/4 144/78/4
f 163/97/4 144/78/4 165/99/4
f 163/97/4 165/99/4 166/100/4
f 163/97/4 166/100/4 167/101/4
f 167/101/4 166/100/4 168/102/4
f 167/101/4 168/102/4 169/103/4
f 169/103/4 168/102/4 170/104/4
f 169/103/4 170/104/4 171/105/4
f 171/105/4 170/104/4 172/106/4
f 171/105/4 172/106/4 173/107/4
f 157/91/4 174/108/4 156/90/4
f 174/108/4 157/91/4 175/109/4
f 174/108/4 175/109/4 176/110/4
f 174/108/4 176/110/4 177/111/4
f 174/108/4 177/111/4 178/112/4
f 178/112/4 177/111/4 179/113/4
f 178/112/4 179/113/4 180/114/4
f 178/112/4 180/114/4 181/115/4
f 181/115/4 180/114/4 182/116/4
f 181/115/4 182/116/4 183/117/4
f 183/117/4 182/116/4 184/118/4
f 183/117/4 184/118/4 185/119/4
f 183/117/4 185/119/4 186/120/4
f 186/120/4 185/119/4 187/121/4
f 188/121/3 189/119/3 190/120/3
f 190/120/3 189/119/3 191/117/3
f 189/119/3 192/118/3 191/117/3
f 192/118/3 193/116/3 191/117/3
f 191/117/3 193/116/3 194/115/3
f 193/116/3 195/114/3 194/115/3
f 194/115/3 195/114/3 196/112/3
f 195/114/3 197/113/3 196/112/3
f 197/113/3 198/111/3 196/112/3
f 196/112/3 198/111/3 199/108/3
f 198/111/3 200/110/3 199/108/3
f 200/110/3 201/109/3 199/108/3
f 201/109/3 202/91/3 199/108/3
f 203/90/3 199/108/3 202/91/3
f 204/107/3 205/106/3 206/105/3
f 205/106/3 207/104/3 206/105/3
f 206/105/3 207/104/3 208/103/3
f 207/104/3 209/102/3 208/103/3
f 208/103/3 209/102/3 210/101/3
f 209/102/3 211/100/3 210/101/3
f 210/101/3 211/100/3 212/97/3
f 211/100/3 213/99/3 212/97/3
f 213/99/3 214/78/3 212/97/3
f 214/78/3 215/80/3 212/97/3
f 215/80/3 216/98/3 212/97/3
f 216/98/3 217/96/3 212/97/3
f 212/97/3 217/96/3 218/95/3
f 217/96/3 219/93/3 218/95/3
f 218/95/3 219/93/3 220/94/3
f 220/94/3 219/93/3 221/92/3
f 219/93/3 222/88/3 221/92/3
f 221/92/3 222/88/3 202/91/3
f 202/91/3 222/88/3 203/90/3
f 203/90/3 222/88/3 223/89/3
f 223/89/3 222/88/3 224/87/3
f 222/88/3 225/85/3 224/87/3
f 224/87/3 225/85/3 226/86/3
f 226/86/3 225/85/3 227/84/3
f 225/85/3 228/81/3 227/84/3
f 227/84/3 228/81/3 229/82/3
f 230/83/3 229/82/3 228/81/3
f 215/80/3 214/78/3 231/79/3
f 231/79/3 214/78/3 232/77/3
f 214/78/3 233/75/3 232/77/3
f 232/77/3 233/75/3 234/76/3
f 234/76/3 233/75/3 235/74/3
f 233/75/3 236/72/3 235/74/3
f 235/74/3 236/72/3 237/73/3
f 237/73/3 236/72/3 238/71/3
f 236/72/3 239/69/3 238/71/3
f 238/71/3 239/69/3 240/70/3
f 240/70/3 239/69/3 241/67/3
f 239/69/3 242/68/3 241/67/3
f 242/68/3 243/66/3 241/67/3
f 244/50/3 241/67/3 243/66/3
f 245/122/7 246/123/7 247/124/7
f 246/123/7 245/122/7 248/125/7
f 249/125/8 250/122/8 251/123/8
f 252/124/8 251/123/8 250/122/8
f 253/126/9 254/127/9 255/128/9
f 254/127/9 253/126/9 256/129/9
f 257/129/10 258/126/10 259/127/10
f 260/128/10 259/127/10 258/126/10
f 261/130/11 262/131/11 263/132/11
f 262/131/11 261/130/11 264/133/11
f 265/133/12 266/130/12 267/131/12
f 268/132/12 267/131/12 266/130/12
f 269/134/13 270/135/13 271/136/13
f 270/135/13 269/134/13 272/137/13
f 273/137/14 274/134/14 275/135/14
f 276/136/14 275/135/14 274/134/14
f 277/138/15 278/139/15 279/140/15
f 278/139/15 277/138/15 280/141/15
f 281/141/16 282/138/16 283/139/16
f 284/140/16 283/139/16 282/138/16
f 285/142/17 286/143/17 287/144/17
f 286/143/17 285/142/17 288/145/17
f 289/145/18 290/142/18 291/143/18
f 292/144/18 291/143/18 290/142/18
f 293/146/19 294/147/19 295/148/19
f 294/147/19 293/146/19 296/149/19
f 297/149/20 298/146/20 299/147/20
f 300/148/20 299/147/20 298/146/20
f 301/150/21 302/151/21 303/152/21
f 302/151/21 301/150/21 304/153/21
f 305/153/22 306/150/22 307/151/22
f 308/152/22 307/151/22 306/150/22
f 309/154/23 310/155/23 311/156/23
f 310/155/23 309/154/23 312/157/23
f 313/157/24 314/154/24 315/155/24
f 316/156/24 315/155/24 314/154/24
f 317/158/25 318/159/25 319/160/25
f 318/159/25 317/158/25 320/161/25
f 321/161/26 322/158/26 323/159/26
f 324/160/26 323/159/26 322/158/26
f 325/162/27 326/163/27 327/164/27
f 326/163/27 325/162/27 328/165/27
f 329/165/28 330/162/28 331/163/28
f 332/164/28 331/163/28 330/162/28
f 333/166/29 334/167/29 335/168/29
f 334/167/29 333/166/29 336/169/29
f 337/169/30 338/166/30 339/167/30
f 340/168/30 339/167/30 338/166/30
f 341/170/31 342/171/32 343/172/31
f 342/171/32 341/170/31 344/173/32
f 345/173/33 346/170/34 347/171/33
f 348/172/34 347/171/33 346/170/34
f 344/174/32 349/175/35 342/176/32
f 349/175/35 344/174/32 350/177/35
f 351/177/36 345/174/33 352/175/36
f 347/176/33 352/175/36 345/174/33
f 353/178/37 354/179/37 355/180/37
f 354/179/37 353/178/37 356/181/37
f 357/181/38 358/178/38 359/179/38
f 360/180/38 359/179/38 358/178/38
f 361/182/39 362/183/39 363/184/39
f 362/183/39 361/182/39 364/185/39
f 365/185/40 366/182/40 367/183/40
f 368/184/40 367/183/40 366/182/40
f 369/186/41 370/187/41 371/188/41
f 370/187/41 369/186/41 372/189/41
f 373/189/42 374/186/42 375/187/42
f 376/188/42 375/187/42 374/186/42
f 377/190/43 378/191/43 379/192/43
f 378/191/43 377/190/43 380/193/43
f 381/193/44 382/190/44 383/191/44
f 384/192/44 383/191/44 382/190/44
f 385/194/45 386/195/45 387/196/45
f 386/195/45 385/194/45 388/197/45
f 389/197/46 390/194/46 391/195/46
f 392/196/46 391/195/46 390/194/46
f 393/198/47 394/199/47 395/200/47
f 394/199/47 393/198/47 396/201/47
f 397/201/48 398/198/48 399/199/48
f 400/200/48 399/199/48 398/198/48
f 401/202/49 402/203/49 403/204/49
f 402/203/49 401/202/49 404/205/49
f 405/205/50 406/202/50 407/203/50
f 408/204/50 407/203/50 406/202/50
f 409/206/51 410/207/51 411/208/51
f 410/207/51 409/206/51 412/209/51
f 413/209/52 414/206/52 415/207/52
f 416/208/52 415/207/52 414/206/52
f 417/210/53 418/211/53 419/212/53
f 418/211/53 417/210/53 420/213/53
f 421/213/54 422/210/54 423/211/54
f 424/212/54 423/211/54 422/210/54
f 425/214/55 426/215/55 427/216/55
f 426/215/55 425/214/55 428/217/55
f 429/217/56 430/214/56 431/215/56
f 432/216/56 431/215/56 430/214/56
f 433/218/57 434/219/57 435/220/57
f 434/219/57 433/218/57 436/221/57
f 437/221/58 438/218/58 439/219/58
f 440/220/58 439/219/58 438/218/58
f 441/222/59 442/223/59 443/224/59
f 442/223/59 441/222/59 444/225/59
f 445/225/60 446/222/60 447/223/60
f 448/224/60 447/223/60 446/222/60
f 449/226/61 450/227/61 451/228/61
f 450/227/61 449/226/61 452/229/61
f 453/229/62 454/226/62 455/227/62
f 456/228/62 455/227/62 454/226/62
f 457/230/63 458/231/63 459/232/63
f 458/231/63 457/230/63 460/233/63
f 461/233/64 462/230/64 463/231/64
f 464/232/64 463/231/64 462/230/64
f 465/234/65 466/235/65 467/236/65
f 466/235/65 465/234/65 468/237/65
f 469/237/66 470/234/66 471/235/66
f 472/236/66 471/235/66 470/234/66
f 473/238/67 474/239/67 475/240/67
f 474/239/67 473/238/67 476/241/67
f 477/241/68 478/238/68 479/239/68
f 480/240/68 479/239/68 478/238/68
f 481/242/69 482/243/69 483/244/69
f 482/243/69 481/242/69 484/245/69
f 485/245/70 486/242/70 487/243/70
f 488/244/70 487/243/70 486/242/70
f 489/246/71 490/247/71 491/248/71
f 490/247/71 489/246/71 492/249/71
f 493/249/72 494/246/72 495/247/72
f 496/248/72 495/247/72 494/246/72
f 497/250/73 498/251/73 499/252/73
f 498/251/73 497/250/73 500/253/73
f 501/253/74 502/250/74 503/251/74
f 504/252/74 503/251/74 502/250/74
f 505/254/75 506/255/75 507/256/75
f 506/255/75 505/254/75 508/257/75
f 509/257/76 510/254/76 511/255/76
f 512/256/76 511/255/76 510/254/76
f 513/258/77 514/259/77 515/260/77
f 514/259/77 513/258/77 516/261/77
f 517/261/78 518/258/78 519/259/78
f 520/260/78 519/259/78 518/258/78
f 521/262/79 522/263/79 523/264/79
f 522/263/79 521/262/79 524/265/79
f 525/265/80 526/262/80 527/263/80
f 528/264/80 527/263/80 526/262/80
f 529/266/81 530/267/81 531/268/81
f 530/267/81 529/266/81 532/269/81
f 533/269/82 534/266/82 535/267/82
f 536/268/82 535/267/82 534/266/82
f 537/270/83 538/271/83 539/272/83
f 538/271/83 537/270/83 540/273/83
f 541/273/84 542/270/84 543/271/84
f 544/272/84 543/271/84 542/270/84
f 545/274/85 546/275/85 547/276/85
f 546/275/85 545/274/85 548/277/85
f 549/277/86 550/274/86 551/275/86
f 552/276/86 551/275/86 550/274/86
f 553/278/87 554/279/87 555/280/87
f 554/279/87 553/278/87 556/281/87
f 557/281/88 558/278/88 559/279/88
f 560/280/88 559/279/88 558/278/88
f 561/282/89 562/283/89 563/284/89
f 562/283/89 561/282/89 564/285/89
f 565/285/90 566/282/90 567/283/90
f 568/284/90 567/283/90 566/282/90
f 569/286/91 570/287/92 571/288/91
f 570/287/92 569/286/91 572/289/92
f 573/289/93 574/286/94 575/287/93
f 576/288/94 575/287/93 574/286/94
f 572/290/92 577/291/95 570/292/92
f 577/291/95 572/290/92 578/293/95
f 579/293/96 573/290/93 580/291/96
f 575/292/93 580/291/96 573/290/93
f 581/294/97 582/295/97 583/296/97
f 582/295/97 581/294/97 584/297/97
f 585/297/98 586/294/98 587/295/98
f 588/296/98 587/295/98 586/294/98
f 589/298/99 590/299/99 591/300/99
f 590/299/99 589/298/99 592/301/99
f 593/301/100 594/298/100 595/299/100
f 596/300/100 595/299/100 594/298/100
f 597/302/101 598/303/101 599/304/101
f 598/303/101 597/302/101 600/305/101
f 601/305/102 602/302/102 603/303/102
f 604/304/102 603/303/102 602/302/102
f 605/306/103 606/307/103 607/308/103
f 606/307/103 605/306/103 608/309/103
f 609/309/104 610/306/104 611/307/104
f 612/308/104 611/307/104 610/306/104
f 613/310/105 614/311/105 615/312/105
f 614/311/105 613/310/105 616/313/105
f 617/313/106 618/310/106 619/311/106
f 620/312/106 619/311/106 618/310/106
f 621/314/107 622/315/107 623/316/107
f 622/315/107 621/314/107 624/317/107
f 625/317/108 626/314/108 627/315/108
f 628/316/108 627/315/108 626/314/108
f 629/318/109 630/319/109 631/320/109
f 630/319/109 629/318/109 632/321/109
f 633/321/110 634/318/110 635/319/110
f 636/320/110 635/319/110 634/318/110
f 637/322/111 638/323/111 639/324/111
f 638/323/111 637/322/111 640/325/111
f 641/325/112 642/322/112 643/323/112
f 644/324/112 643/323/112 642/322/112
f 645/326/113 646/327/113 647/328/113
f 646/327/113 645/326/113 648/329/113
f 649/329/114 650/326/114 651/327/114
f 652/328/114 651/327/114 650/326/114
f 653/330/115 654/331/115 655/332/115
f 654/331/115 653/330/115 656/333/115
f 657/333/116 658/330/116 659/331/116
f 660/332/116 659/331/116 658/330/116
f 661/334/117 662/335/117 663/336/117
f 662/335/117 661/334/117 664/337/117
f 665/337/118 666/334/118 667/335/118
f 668/336/118 667/335/118 666/334/118
f 669/338/119 670/339/119 671/340/119
f 670/339/119 669/338/119 672/341/119
f 673/341/120 674/338/120 675/339/120
f 676/340/120 675/339/120 674/338/120
