# SSTK version 0.8.0
# 89
mtllib original_89.mtl
o #ID288
v -0.19479021 0.61808191 -0.07057581
v -0.18300733 0.61816969 -0.06230275
v -0.19002140 0.61801862 -0.06674780
v -0.19846061 0.61809180 -0.07420047
v -0.17992686 0.61817636 -0.06090944
v -0.20128144 0.61818736 -0.07764594
v -0.17689348 0.61798049 -0.05991690
v -0.17207623 0.61816476 -0.05933596
v -0.20291871 0.61816002 -0.08122610
v -0.20380849 0.61817627 -0.08491388
v -0.16758644 0.61804957 -0.06008265
v -0.20362773 0.61810361 -0.08842746
v -0.18439759 0.61828743 -0.07399950
v -0.18919984 0.61805231 -0.07765721
v -0.19238136 0.61821056 -0.08088562
v -0.20257889 0.61803187 -0.09167827
v -0.19411651 0.61813210 -0.08364335
v -0.19496593 0.61814030 -0.08593039
v -0.19461480 0.61813941 -0.08828688
v -0.20082146 0.61810340 -0.09514746
v -0.19373615 0.61814163 -0.09022408
v -0.19749273 0.61799993 -0.09857592
v -0.19258746 0.61813102 -0.09130345
v -0.19119625 0.61823792 -0.09220893
v -0.18966509 0.61810696 -0.09255326
v -0.18757763 0.61808074 -0.09264185
v -0.19342076 0.61807732 -0.10078988
v -0.18524523 0.61802897 -0.09213425
v -0.18255233 0.61820882 -0.09096720
v -0.17597657 0.61808885 -0.08669444
v -0.17797224 0.61797663 -0.06996940
v -0.16354123 0.61817547 -0.06230150
v -0.17526605 0.61803689 -0.06866258
v -0.17320275 0.61805512 -0.06836585
v -0.17124118 0.61801417 -0.06836371
v -0.16026800 0.61818627 -0.06590426
v -0.16962259 0.61811739 -0.06894377
v -0.16820776 0.61811811 -0.06964156
v -0.16712523 0.61807504 -0.07080065
v -0.16642687 0.61809042 -0.07229706
v -0.15779034 0.61804957 -0.07027513
v -0.16581997 0.61817770 -0.07369127
v -0.16605599 0.61795847 -0.07520851
v -0.16658503 0.61814586 -0.07695886
v -0.15730159 0.61817772 -0.07232021
v -0.16797866 0.61821006 -0.07926224
v -0.16980133 0.61811313 -0.08149141
v -0.15703377 0.61811470 -0.07457825
v -0.19132065 0.61802300 -0.10139712
v -0.15715160 0.61813834 -0.07666253
v -0.18900171 0.61817267 -0.10158195
v -0.15764636 0.61818545 -0.07892271
v -0.18382887 0.61820396 -0.10102529
v -0.15994251 0.61812529 -0.08363203
v -0.16161536 0.61825588 -0.08603105
v -0.17760264 0.61821401 -0.09843421
v -0.16406841 0.61805945 -0.08869317
v -0.17078229 0.61801857 -0.09400585
v -0.17067466 0.61822292 -0.09402330
v -0.17770869 0.61806510 -0.09838320
v -0.16406932 0.61820225 -0.08874279
v -0.16167955 0.61794817 -0.08600801
v -0.18371574 0.61818133 -0.10081965
v -0.16002459 0.61801931 -0.08368826
v -0.15759252 0.61825384 -0.07902036
v -0.18894184 0.61813063 -0.10156862
v -0.15724583 0.61799443 -0.07671135
v -0.19128056 0.61809073 -0.10151596
v -0.15697305 0.61801224 -0.07456564
v -0.19332076 0.61806240 -0.10069058
v -0.17591216 0.61804843 -0.08655073
v -0.15705425 0.61804085 -0.07226150
v -0.16965840 0.61796057 -0.08159733
v -0.16773674 0.61821330 -0.07914515
v -0.16659081 0.61807738 -0.07697507
v -0.15790172 0.61813133 -0.07022053
v -0.16613812 0.61809427 -0.07523221
v -0.16579329 0.61820399 -0.07358101
v -0.16632600 0.61828191 -0.07224854
v -0.16029179 0.61796095 -0.06583392
v -0.16699906 0.61820158 -0.07091496
v -0.16826812 0.61815804 -0.06950155
v -0.16962583 0.61809051 -0.06883593
v -0.17115434 0.61819758 -0.06832616
v -0.16353438 0.61819820 -0.06246635
v -0.17312998 0.61823085 -0.06846730
v -0.17540024 0.61811472 -0.06883962
v -0.17809133 0.61815385 -0.06984118
v -0.18451034 0.61808825 -0.07388356
v -0.16744055 0.61815372 -0.06013526
v -0.18257856 0.61818512 -0.09078326
v -0.18523400 0.61812407 -0.09200030
v -0.18765199 0.61815375 -0.09241023
v -0.19751832 0.61810148 -0.09852040
v -0.18950997 0.61800538 -0.09250574
v -0.19130530 0.61827321 -0.09208200
v -0.19244046 0.61812747 -0.09141418
v -0.19381242 0.61812994 -0.09011116
v -0.20067436 0.61803527 -0.09495569
v -0.19463428 0.61819625 -0.08811229
v -0.20271451 0.61800117 -0.09171541
v -0.19475761 0.61818872 -0.08608954
v -0.19415888 0.61805132 -0.08346058
v -0.19249957 0.61819467 -0.08089082
v -0.20367549 0.61800820 -0.08833841
v -0.18933880 0.61809896 -0.07755402
v -0.20385867 0.61799889 -0.08470429
v -0.17195568 0.61821156 -0.05931828
v -0.20292902 0.61803929 -0.08130604
v -0.20137181 0.61826282 -0.07758474
v -0.17701679 0.61810670 -0.06003042
v -0.17979193 0.61817590 -0.06082007
v -0.19855956 0.61802229 -0.07416316
v -0.18298906 0.61828100 -0.06239513
v -0.19460009 0.61821791 -0.07063638
v -0.19001452 0.61809226 -0.06671915
v -0.20089178 0.62409118 -0.09516440
v -0.19735348 0.61806736 -0.09858513
v -0.20095238 0.61808103 -0.09505045
v -0.19728402 0.62405147 -0.09848093
v -0.19745617 0.62391726 -0.09869740
v -0.20080971 0.62410092 -0.09508068
v -0.19741577 0.61819798 -0.09865611
v -0.20061085 0.61799117 -0.09519192
v -0.19746500 0.62398732 -0.09850885
v -0.19349372 0.61826253 -0.10093435
v -0.19748197 0.61813681 -0.09843874
v -0.19331549 0.62408926 -0.10090083
v -0.19333581 0.62398034 -0.10088343
v -0.19752554 0.62392675 -0.09869213
v -0.19349523 0.61812324 -0.10087574
v -0.19728299 0.61814858 -0.09859069
v -0.19334054 0.62408322 -0.10087993
v -0.19125277 0.61815259 -0.10142201
v -0.19353700 0.61812941 -0.10085033
v -0.19123837 0.62388488 -0.10154111
v -0.19117207 0.62399932 -0.10147358
v -0.19340461 0.62397572 -0.10088049
v -0.19132191 0.61801959 -0.10146023
v -0.19341252 0.61807168 -0.10092139
v -0.19126672 0.61805225 -0.10145171
v -0.18882870 0.62407901 -0.10155741
v -0.18888374 0.61806872 -0.10169300
v -0.19111448 0.62394546 -0.10130014
v -0.19120917 0.62389338 -0.10158496
v -0.19131732 0.61800930 -0.10133613
v -0.18891740 0.62397686 -0.10157004
v -0.18898536 0.61819266 -0.10159511
v -0.18889093 0.61811844 -0.10163532
v -0.18362612 0.62404151 -0.10095393
v -0.18362344 0.61808022 -0.10104210
v -0.18876781 0.62387989 -0.10160810
v -0.18891625 0.62398396 -0.10162120
v -0.18900566 0.61820795 -0.10170260
v -0.18383702 0.62407197 -0.10089286
v -0.18371038 0.61805477 -0.10101596
v -0.18363524 0.61804172 -0.10107458
v -0.17778731 0.62398629 -0.09844821
v -0.17773565 0.61813234 -0.09844630
v -0.18357929 0.62397464 -0.10102799
v -0.18376970 0.62393794 -0.10093789
v -0.18361167 0.61809433 -0.10090506
v -0.17764949 0.62403051 -0.09840023
v -0.17771713 0.61808494 -0.09830939
v -0.17050732 0.62401144 -0.09404296
v -0.17048605 0.61826480 -0.09402046
v -0.17065947 0.62395879 -0.09388870
v -0.17062405 0.61821449 -0.09410561
v -0.16408256 0.62388619 -0.08860895
v -0.16417888 0.61802465 -0.08862069
v -0.16408336 0.62403398 -0.08853817
v -0.16420593 0.61809927 -0.08865020
v -0.16406579 0.61809830 -0.08856227
v -0.16168693 0.62380907 -0.08605187
v -0.16157048 0.61816990 -0.08601716
v -0.16414252 0.62387913 -0.08861141
v -0.16422160 0.62406717 -0.08875479
v -0.16414943 0.61813183 -0.08873871
v -0.16179022 0.62395021 -0.08601262
v -0.16178934 0.61809126 -0.08600257
v -0.16175871 0.61813716 -0.08614344
v -0.16004290 0.62400261 -0.08360271
v -0.16004349 0.61815738 -0.08367452
v -0.16178869 0.62401368 -0.08608368
v -0.16170728 0.62401436 -0.08610466
v -0.16161524 0.61817578 -0.08596763
v -0.15999831 0.62399080 -0.08368343
v -0.15994932 0.61817716 -0.08369903
v -0.15994934 0.61801395 -0.08357961
v -0.15783282 0.62410883 -0.07906284
v -0.15779402 0.61801389 -0.07903953
v -0.15992185 0.62400476 -0.08364653
v -0.15998499 0.62414476 -0.08361221
v -0.16002610 0.61810426 -0.08365725
v -0.15764143 0.62411342 -0.07915290
v -0.15771357 0.61801635 -0.07887450
v -0.15767482 0.61800329 -0.07905489
v -0.15720002 0.62399876 -0.07678043
v -0.15723540 0.61814358 -0.07675940
v -0.15777111 0.62395298 -0.07901955
v -0.15781996 0.62405102 -0.07911692
v -0.15769533 0.61807971 -0.07894736
v -0.15712039 0.62403954 -0.07673655
v -0.15720519 0.61812852 -0.07685952
v -0.15724470 0.62396512 -0.07666519
v -0.15693207 0.61824403 -0.07456313
v -0.15708754 0.61815656 -0.07678307
v -0.15698247 0.62397902 -0.07454768
v -0.15687313 0.62388797 -0.07438449
v -0.15717410 0.62395051 -0.07671066
v -0.15685379 0.61807625 -0.07439718
v -0.15701532 0.61805893 -0.07674989
v -0.15698779 0.62400566 -0.07456223
v -0.15716507 0.61811137 -0.07235478
v -0.15696402 0.61806780 -0.07456288
v -0.15714513 0.62398778 -0.07232627
v -0.15702834 0.62391364 -0.07227608
v -0.15705514 0.62392106 -0.07457582
v -0.15720774 0.61812967 -0.07232168
v -0.15704577 0.61804085 -0.07445292
v -0.15725569 0.62384441 -0.07246567
v -0.15772751 0.61826382 -0.07032280
v -0.15725817 0.61808100 -0.07238186
v -0.15764427 0.62383977 -0.07017416
v -0.15776120 0.62400560 -0.07026720
v -0.15711908 0.62400885 -0.07234410
v -0.15791783 0.61817700 -0.07025558
v -0.15728704 0.61802063 -0.07241992
v -0.15784818 0.62397665 -0.07034060
v -0.16018128 0.61808256 -0.06600001
v -0.15788617 0.61814612 -0.07032773
v -0.16018832 0.62394226 -0.06574949
v -0.16032024 0.62385460 -0.06583292
v -0.15781494 0.62408873 -0.07029122
v -0.16028468 0.61796692 -0.06593762
v -0.15785525 0.61826503 -0.07009661
v -0.16037481 0.62400547 -0.06595530
v -0.16368642 0.61809908 -0.06226371
v -0.16011742 0.61824266 -0.06589599
v -0.16349385 0.62397227 -0.06225497
v -0.16352708 0.62395876 -0.06237295
v -0.16005482 0.62386959 -0.06583781
v -0.16344996 0.61819558 -0.06229326
v -0.16014938 0.61804407 -0.06582623
v -0.16368637 0.62399794 -0.06230103
v -0.16751872 0.61824236 -0.06000943
v -0.16370129 0.61807027 -0.06212019
v -0.16742107 0.62396831 -0.06000029
v -0.16750484 0.62402222 -0.06012872
v -0.16371164 0.62392006 -0.06227752
v -0.16743784 0.61812902 -0.05997329
v -0.16358956 0.61823936 -0.06210880
v -0.16765872 0.62390761 -0.05999002
v -0.17201465 0.61819178 -0.05917883
v -0.16750749 0.61819352 -0.06003122
v -0.17204867 0.62389022 -0.05941959
v -0.17188413 0.62413432 -0.05928635
v -0.16762635 0.62399378 -0.05997674
v -0.17205690 0.61812871 -0.05927218
v -0.16755451 0.61829074 -0.06014879
v -0.17711744 0.62390530 -0.05992645
v -0.17194196 0.61792943 -0.05924761
v -0.17200757 0.62408366 -0.05925770
v -0.17701711 0.61793527 -0.05997226
v -0.17708759 0.61808919 -0.05970799
v -0.17693303 0.62404060 -0.05986647
v -0.17211214 0.61803518 -0.05922057
v -0.17203459 0.62405014 -0.05925025
v -0.17990926 0.62398818 -0.06069260
v -0.17694226 0.61810561 -0.05993405
v -0.17695385 0.62391384 -0.05983520
v -0.17986894 0.61814403 -0.06094731
v -0.17984349 0.61806336 -0.06078160
v -0.17986464 0.62387675 -0.06075395
v -0.17716030 0.61823580 -0.05983215
v -0.17701965 0.62417474 -0.05995842
v -0.18287964 0.62385551 -0.06227401
v -0.17993654 0.61814841 -0.06080328
v -0.17989013 0.62385276 -0.06074822
v -0.18288782 0.61811746 -0.06231187
v -0.18303406 0.61807200 -0.06224534
v -0.18287631 0.62391673 -0.06232143
v -0.17986365 0.61809003 -0.06075136
v -0.17995897 0.62384054 -0.06092001
v -0.18987832 0.62398337 -0.06662569
v -0.18304001 0.61816664 -0.06240849
v -0.18291640 0.62398286 -0.06219514
v -0.18999846 0.61803719 -0.06664986
v -0.19005276 0.61800863 -0.06657697
v -0.19006658 0.62404294 -0.06680919
v -0.18305431 0.61807585 -0.06225926
v -0.18293017 0.62388979 -0.06228860
v -0.19465873 0.62387934 -0.07053216
v -0.19463903 0.61823811 -0.07040280
v -0.19471063 0.61813581 -0.07045118
v -0.19475243 0.62391627 -0.07053782
v -0.19854307 0.62409431 -0.07426156
v -0.19487242 0.61813254 -0.07045084
v -0.19477535 0.62398605 -0.07042271
v -0.19837077 0.61820770 -0.07420233
v -0.19853087 0.61803465 -0.07413186
v -0.19855314 0.62395462 -0.07410762
v -0.19461869 0.61820524 -0.07041900
v -0.19465449 0.62380636 -0.07044758
v -0.20106920 0.62396083 -0.07766777
v -0.19841192 0.61794193 -0.07415528
v -0.19844420 0.62396656 -0.07413145
v -0.20126886 0.61804713 -0.07774150
v -0.20105928 0.61820825 -0.07768741
v -0.20133716 0.62394636 -0.07782404
v -0.19835314 0.61802704 -0.07419289
v -0.19851540 0.62412679 -0.07411208
v -0.20290585 0.62396574 -0.08114237
v -0.20136607 0.61815677 -0.07782398
v -0.20119432 0.62391987 -0.07777701
v -0.20306946 0.61809966 -0.08125807
v -0.20288634 0.61813527 -0.08112526
v -0.20303111 0.62389638 -0.08110739
v -0.20129173 0.61823114 -0.07782720
v -0.20117521 0.62396711 -0.07773714
v -0.20391360 0.62400090 -0.08480770
v -0.20277404 0.61818110 -0.08120052
v -0.20294857 0.62393038 -0.08126640
v -0.20367153 0.61824685 -0.08491431
v -0.20374019 0.61817785 -0.08464594
v -0.20369100 0.62403432 -0.08469094
v -0.20285178 0.61798449 -0.08122937
v -0.20281264 0.62410632 -0.08128512
v -0.20373631 0.62408797 -0.08483556
v -0.20368965 0.61806791 -0.08843411
v -0.20379174 0.61815926 -0.08484960
v -0.20363980 0.62390222 -0.08838019
v -0.20373741 0.62402087 -0.08819466
v -0.20381448 0.62390416 -0.08491590
v -0.20353373 0.61812813 -0.08831603
v -0.20370759 0.61816712 -0.08473266
v -0.20366892 0.62413054 -0.08821950
v -0.20257579 0.61821686 -0.09181591
v -0.20379847 0.61798954 -0.08847984
v -0.20264523 0.62397411 -0.09169195
v -0.20286961 0.62393595 -0.09163073
v -0.20379068 0.62388146 -0.08818514
v -0.20263173 0.61809011 -0.09190707
v -0.20360320 0.61821231 -0.08824313
v -0.20281668 0.62388350 -0.09168377
v -0.20079144 0.61810503 -0.09503661
v -0.20267489 0.61828887 -0.09168762
v -0.20078296 0.62399774 -0.09499276
v -0.20097245 0.62394121 -0.09510495
v -0.20268835 0.62408286 -0.09165866
v -0.20085563 0.61824938 -0.09503047
v -0.20265857 0.61822081 -0.09159796
v -0.16769813 0.62405528 -0.06015893
v -0.17798637 0.62401395 -0.06997320
v -0.18449311 0.62394236 -0.07398893
v -0.16344454 0.62388408 -0.06245008
v -0.17535740 0.62405153 -0.06880823
v -0.17307314 0.62399218 -0.06838969
v -0.17115679 0.62413150 -0.06827602
v -0.16022519 0.62384919 -0.06598864
v -0.16949502 0.62406918 -0.06896451
v -0.16829646 0.62389054 -0.06967984
v -0.16693860 0.62414695 -0.07068836
v -0.16642510 0.62400271 -0.07205654
v -0.15770488 0.62405164 -0.07015686
v -0.16593079 0.62394973 -0.07370942
v -0.16616369 0.62390573 -0.07524279
v -0.16660760 0.62415755 -0.07684484
v -0.15724468 0.62394060 -0.07235885
v -0.16794135 0.62391039 -0.07920762
v -0.16969838 0.62390445 -0.08139401
v -0.17603620 0.62402769 -0.08652293
v -0.15699794 0.62398464 -0.07442052
v -0.19342529 0.62400011 -0.10082915
v -0.19128594 0.62400430 -0.10159250
v -0.15713071 0.62388136 -0.07669368
v -0.18878156 0.62403966 -0.10166554
v -0.15770886 0.62391360 -0.07908851
v -0.18372206 0.62390023 -0.10098918
v -0.15996223 0.62407287 -0.08366407
v -0.16169620 0.62393036 -0.08622348
v -0.17767753 0.62397052 -0.09850810
v -0.16411484 0.62391254 -0.08877053
v -0.17062853 0.62395587 -0.09403717
v -0.18296556 0.62407006 -0.06235187
v -0.19465025 0.62405833 -0.07043611
v -0.18990186 0.62387712 -0.06671925
v -0.19841246 0.62399886 -0.07416962
v -0.17990586 0.62397016 -0.06094703
v -0.20115808 0.62415726 -0.07762322
v -0.17703495 0.62392712 -0.05983409
v -0.17200964 0.62400587 -0.05919732
v -0.20272754 0.62396820 -0.08111693
v -0.20371125 0.62398394 -0.08472095
v -0.20357671 0.62388160 -0.08830839
v -0.18909586 0.62394897 -0.07757117
v -0.19259142 0.62403929 -0.08088473
v -0.20270814 0.62396903 -0.09173971
v -0.19402053 0.62406076 -0.08357121
v -0.19485090 0.62399673 -0.08599853
v -0.19478912 0.62398097 -0.08825666
v -0.20096225 0.62383143 -0.09506404
v -0.19382161 0.62401743 -0.09017206
v -0.19732151 0.62393389 -0.09863916
v -0.19252529 0.62400087 -0.09143745
v -0.19104914 0.62393817 -0.09225465
v -0.18963303 0.62400249 -0.09249442
v -0.18775490 0.62387124 -0.09242129
v -0.18524260 0.62414680 -0.09203915
v -0.18274643 0.62390210 -0.09084381
v -0.17594881 0.62396625 -0.08665730
v -0.18262380 0.62388664 -0.09078935
v -0.19342889 0.62399819 -0.10088898
v -0.18526799 0.62409249 -0.09186299
v -0.18767266 0.62398339 -0.09263566
v -0.19732135 0.62401379 -0.09867417
v -0.18952777 0.62412578 -0.09249691
v -0.19118590 0.62388640 -0.09211797
v -0.19261306 0.62384624 -0.09126785
v -0.19377272 0.62416029 -0.09015364
v -0.20094798 0.62394934 -0.09523560
v -0.19483185 0.62408289 -0.08822409
v -0.20268674 0.62401306 -0.09181853
v -0.19487146 0.62396841 -0.08603202
v -0.19437553 0.62388082 -0.08343460
v -0.19239804 0.62399035 -0.08089592
v -0.20354706 0.62399734 -0.08841133
v -0.18934481 0.62393600 -0.07769892
v -0.18461412 0.62397515 -0.07387578
v -0.16737460 0.62397067 -0.06020920
v -0.20369578 0.62412224 -0.08473843
v -0.17195917 0.62401307 -0.05917612
v -0.20296464 0.62390652 -0.08096451
v -0.20121238 0.62403037 -0.07777509
v -0.17691447 0.62389268 -0.05993518
v -0.17978359 0.62412474 -0.06083858
v -0.19847859 0.62402390 -0.07423093
v -0.18293588 0.62399265 -0.06219802
v -0.19476860 0.62398931 -0.07045062
v -0.18991715 0.62398181 -0.06662905
v -0.17068140 0.62391747 -0.09407727
v -0.16417985 0.62401551 -0.08862601
v -0.17763870 0.62408516 -0.09852143
v -0.16183118 0.62390168 -0.08603897
v -0.18357344 0.62393025 -0.10100968
v -0.16005786 0.62397219 -0.08352426
v -0.15783851 0.62399188 -0.07909513
v -0.18884964 0.62402615 -0.10170178
v -0.15710549 0.62392614 -0.07686565
v -0.19110254 0.62401538 -0.10150483
v -0.15682657 0.62390015 -0.07437374
v -0.15732626 0.62406918 -0.07243986
v -0.16985767 0.62398756 -0.08149465
v -0.16791693 0.62415510 -0.07930352
v -0.16670184 0.62397521 -0.07693623
v -0.15797128 0.62399579 -0.07036105
v -0.16596784 0.62403182 -0.07520354
v -0.16614164 0.62399834 -0.07360847
v -0.16616631 0.62404617 -0.07210652
v -0.16020313 0.62395362 -0.06604355
v -0.16705463 0.62398134 -0.07075493
v -0.16806866 0.62405738 -0.06971132
v -0.16954290 0.62401142 -0.06882321
v -0.17122992 0.62404723 -0.06832636
v -0.16347998 0.62403113 -0.06211637
v -0.17304555 0.62395981 -0.06825094
v -0.17542463 0.62416245 -0.06887390
v -0.17803424 0.62386090 -0.06973138
vt -0.001296694 0.1571074
vt -0.002655629 0.08319586
vt 0 0.1258104
vt -0.005186774 0.1837778
vt -0.005975164 0.06602764
vt -0.01167024 0.2058216
vt -0.01062251 0.05161878
vt -0.02327824 0.02887996
vt -0.0207471 0.2232388
vt -0.0334132 0.2377617
vt -0.0400004 0.01278021
vt -0.04834074 0.2481353
vt -0.0464735 0.1248145
vt -0.04767424 0.1560597
vt -0.05127645 0.178757
vt -0.06552971 0.2543594
vt -0.05715599 0.1944625
vt -0.06518868 0.2047324
vt -0.07496089 0.2103963
vt -0.08498011 0.2564341
vt -0.08605896 0.2122843
vt -0.1098559 0.2531561
vt -0.09427303 0.2111432
vt -0.10169 0.2077199
vt -0.1083097 0.2020145
vt -0.1141324 0.1940269
vt -0.1310387 0.243322
vt -0.1188784 0.1830309
vt -0.1222685 0.1683005
vt -0.1249805 0.1276361
vt -0.04922703 0.08566477
vt -0.06095497 0.003195053
vt -0.05266894 0.07145819
vt -0.05748761 0.06083049
vt -0.06340362 0.05309701
vt -0.08630793 0
vt -0.07013751 0.0475731
vt -0.07768929 0.04425875
vt -0.08605896 0.04315396
vt -0.09407091 0.04420169
vt -0.1114949 0.003174306
vt -0.1012134 0.04734488
vt -0.1074865 0.05258352
vt -0.1128901 0.05991762
vt -0.1223145 0.007142188
vt -0.1181797 0.07174346
vt -0.1219579 0.08697183
vt -0.1319515 0.01269722
vt -0.140157 0.2358997
vt -0.1405357 0.01994315
vt -0.1481758 0.226745
vt -0.1481965 0.0289837
vt -0.1609145 0.2032386
vt -0.1607485 0.05244866
vt -0.1654322 0.06732433
vt -0.1688191 0.1709768
vt -0.1687776 0.08489712
vt -0.171454 0.1281341
vt -0.05074939 0.04249006
vt -0.07584021 0
vt -0.05074939 0
vt -0.07584021 0.04249006
vt 0.006958681 0.04249006
vt -0.01639556 0
vt 0.006958681 0
vt -0.01639556 0.04249006
vt 0.05198006 0.04249006
vt 0.04022275 0
vt 0.05198006 0
vt 0.04022275 0.04249006
vt 0.08510261 0
vt 0.07293264 0.04249006
vt 0.07293264 0
vt 0.08510261 0.04249006
vt 0.128754 0
vt 0.1020178 0.04249006
vt 0.1020178 0
vt 0.128754 0.04249006
vt 0.1591057 0
vt 0.1258897 0.04249006
vt 0.1258897 0
vt 0.1591057 0.04249006
vt 0.1602914 0
vt 0.1173677 0.04249006
vt 0.1173677 0
vt 0.1602914 0.04249006
vt 0.1384821 0
vt 0.09516235 0.04249006
vt 0.09516235 0
vt 0.1384821 0.04249006
vt 0.1149638 0
vt 0.09707542 0.04249006
vt 0.09707542 0
vt 0.1149638 0.04249006
vt 0.1138991 0
vt 0.09830348 0.04249006
vt 0.09830348 0
vt 0.1138991 0.04249006
vt 0.1220696 0
vt 0.09545834 0.04249006
vt 0.09545834 0
vt 0.1220696 0.04249006
vt 0.1179201 0
vt 0.1060702 0.04249006
vt 0.1060702 0
vt 0.1179201 0.04249006
vt 0.1202552 0.04249006
vt 0.1090217 0
vt 0.1202552 0
vt 0.1090217 0.04249006
vt 0.1206601 0.04249006
vt 0.1095367 0
vt 0.1206601 0
vt 0.1095367 0.04249006
vt 0.1172949 0.04249006
vt 0.1057707 0
vt 0.1172949 0
vt 0.1057707 0.04249006
vt 0.1110168 0.04249006
vt 0.08563055 0
vt 0.1110168 0
vt 0.08563055 0.04249006
vt 0.08563062 0.04249006
vt 0.06007714 0
vt 0.08563062 0
vt 0.06007714 0.04249006
vt 0.05410201 0.04249006
vt 0.03105924 0
vt 0.05410201 0
vt 0.03105924 0.04249006
vt 0.01995174 0.04249006
vt -0.003261031 0
vt 0.01995174 0
vt -0.003261031 0.04249006
vt -0.03993757 0.04249006
vt -0.01391409 0
vt -0.01391409 0.04249006
vt -0.03993757 0
vt -0.06100577 0.04249006
vt -0.04586599 0
vt -0.04586599 0.04249006
vt -0.06100577 0
vt -0.08117885 0.04249006
vt -0.06369265 0
vt -0.06369265 0.04249006
vt -0.08117885 0
vt -0.1255668 0.04249006
vt -0.08286962 0
vt -0.08286962 0.04249006
vt -0.1255668 0
vt -0.1570264 0.04249006
vt -0.1257026 0
vt -0.1257026 0.04249006
vt -0.1570264 0
vt -0.1826022 0.04249006
vt -0.1556496 0
vt -0.1556496 0.04249006
vt -0.1826022 0
vt -0.2007511 0.04249006
vt -0.1777736 0
vt -0.1777736 0.04249006
vt -0.2007511 0
vt -0.2075567 0.04249006
vt -0.1879163 0
vt -0.1879163 0.04249006
vt -0.2075567 0
vt -0.2011494 0.04249006
vt -0.181879 0
vt -0.181879 0.04249006
vt -0.2011494 0
vt -0.1631203 0.04249006
vt -0.1812983 0
vt -0.1631203 0
vt -0.1812983 0.04249006
vt -0.1299346 0.04249006
vt -0.1482157 0
vt -0.1299346 0
vt -0.1482157 0.04249006
vt -0.0921387 0.04249006
vt -0.1116994 0
vt -0.0921387 0
vt -0.1116994 0.04249006
vt 0.0400004 0.01278021
vt 0.04922703 0.08566477
vt 0.0464735 0.1248145
vt 0.06095497 0.003195053
vt 0.05266894 0.07145819
vt 0.05748761 0.06083049
vt 0.06340362 0.05309701
vt 0.08630793 0
vt 0.07013751 0.0475731
vt 0.07768929 0.04425875
vt 0.08605896 0.04315396
vt 0.09407091 0.04420169
vt 0.1114949 0.003174306
vt 0.1012134 0.04734488
vt 0.1074865 0.05258352
vt 0.1128901 0.05991762
vt 0.1223145 0.007142188
vt 0.1181797 0.07174346
vt 0.1219579 0.08697183
vt 0.1249805 0.1276361
vt 0.1319515 0.01269722
vt 0.1310387 0.243322
vt 0.140157 0.2358997
vt 0.1405357 0.01994315
vt 0.1481758 0.226745
vt 0.1481965 0.0289837
vt 0.1609145 0.2032386
vt 0.1607485 0.05244866
vt 0.1654322 0.06732433
vt 0.1688191 0.1709768
vt 0.1687776 0.08489712
vt 0.171454 0.1281341
vt 0.002655629 0.08319586
vt 0.001296694 0.1571074
vt 0.005186774 0.1837778
vt 0.005975164 0.06602764
vt 0.01167024 0.2058216
vt 0.01062251 0.05161878
vt 0.02327824 0.02887996
vt 0.0207471 0.2232388
vt 0.0334132 0.2377617
vt 0.04834074 0.2481353
vt 0.04767424 0.1560597
vt 0.05127645 0.178757
vt 0.06552971 0.2543594
vt 0.05715599 0.1944625
vt 0.06518868 0.2047324
vt 0.07496089 0.2103963
vt 0.08498011 0.2564341
vt 0.08605896 0.2122843
vt 0.1098559 0.2531561
vt 0.09427303 0.2111432
vt 0.10169 0.2077199
vt 0.1083097 0.2020145
vt 0.1141324 0.1940269
vt 0.1188784 0.1830309
vt 0.1222685 0.1683005
vn 0 -1 3.5974561662932485e-8
vn 0 1 -3.5974561662932485e-8
vn -0.7252121636790273 -2.4769404857730303e-8 -0.6885254662334453
vn 0.7252121636790273 2.4769404857730303e-8 0.6885254662334453
vn -0.48620321717571996 -3.1436221375274915e-8 -0.8738457710648821
vn 0.48620321717571996 3.1436221375274915e-8 0.8738457710648821
vn -0.2563131573894093 -3.47727905274991e-8 -0.966593795422395
vn 0.2563131573894093 3.47727905274991e-8 0.966593795422395
vn -0.09088644010004385 -3.582567450573879e-8 -0.9958612629307054
vn 0.09088644010004385 3.582567450573879e-8 0.9958612629307054
vn 0.13128709163301508 -3.5663181447267107e-8 -0.9913443899929746
vn -0.13128709163301508 3.5663181447267107e-8 0.9913443899929746
vn 0.37829741060961625 -3.330108090095584e-8 -0.9256841087142298
vn 0.4594470150146046 -3.19527925779913e-8 -0.888205179220527
vn -0.37829741060961625 3.330108090095584e-8 0.9256841087142298
vn -0.4594470150146046 3.19527925779913e-8 0.888205179220527
vn 0.5878584302855663 -2.9102119047046923e-8 -0.8089638223939246
vn -0.5878584302855663 2.9102119047046923e-8 0.8089638223939246
vn 0.6365588243939287 -2.774459467419836e-8 -0.771228152420682
vn -0.6365588243939287 2.774459467419836e-8 0.771228152420682
vn 0.728638142535708 -2.463893607123694e-8 -0.6848988664336598
vn -0.728638142535708 2.463893607123694e-8 0.6848988664336598
vn 0.8035510588230371 -2.1413347368623116e-8 -0.5952358321408209
vn -0.8035510588230371 2.1413347368623116e-8 0.5952358321408209
vn 0.8998496409788569 -1.569211006277279e-8 -0.4362002104885119
vn -0.8998496409788569 1.569211006277279e-8 0.4362002104885119
vn 0.9714439873500073 -8.535646501350494e-9 -0.23726900227699085
vn -0.9714439873500073 8.535646501350494e-9 0.23726900227699085
vn 0.9973540178232876 -2.615267534882207e-9 -0.0726977519029663
vn -0.9973540178232876 2.615267534882207e-9 0.0726977519029663
vn 0.9944466807149349 3.786023809361759e-9 0.10524162301602977
vn -0.9944466807149349 -3.786023809361759e-9 -0.10524162301602977
vn 0.9619137138724443 9.833766652678816e-9 0.2733532642280337
vn -0.9619137138724443 -9.833766652678816e-9 -0.2733532642280337
vn 0.8761181141131363 1.734321380315272e-8 0.4820965153606085
vn -0.8761181141131363 -1.734321380315272e-8 -0.4820965153606085
vn 0.7290973277346218 2.462135377957989e-8 0.6844100281923352
vn -0.7290973277346218 -2.462135377957989e-8 -0.6844100281923352
vn 0.4911141968860975 3.133727075520626e-8 0.8710951989403468
vn -0.4911141968860975 -3.133727075520626e-8 -0.8710951989403468
vn 0.17509415857885846 3.541881785268751e-8 0.9845516927168224
vn -0.17509415857885846 -3.541881785268751e-8 -0.9845516927168224
vn -0.12012774572060878 3.571405138736282e-8 0.992758442274899
vn 0.12012774572060878 -3.571405138736282e-8 -0.992758442274899
vn -0.3110058815509145 3.4190511788716474e-8 0.9504079869407336
vn 0.3110058815509145 -3.4190511788716474e-8 -0.9504079869407336
vn -0.4234358867976185 3.259029408328386e-8 0.9059260730169506
vn 0.4234358867976185 -3.259029408328386e-8 -0.9059260730169506
vn -0.5792404967493507 2.9324905166691543e-8 0.815156700840743
vn -0.5362420093226593 3.03648427835922e-8 0.8440642792095849
vn 0.5792404967493507 -2.9324905166691543e-8 -0.815156700840743
vn 0.5362420093226593 -3.03648427835922e-8 -0.8440642792095849
vn -0.6206848975345131 2.8206218828301606e-8 0.7840601111984785
vn 0.6206848975345131 -2.8206218828301606e-8 -0.7840601111984785
vn -0.6983151721506942 2.5750246173817412e-8 0.7157904164936449
vn 0.6983151721506942 -2.5750246173817412e-8 -0.7157904164936449
vn -0.7921110471200653 2.1958044504456564e-8 0.610377005653353
vn 0.7921110471200653 -2.1958044504456564e-8 -0.610377005653353
vn -0.8950960917254158 1.604009471991643e-8 0.4458732853377582
vn 0.8950960917254158 -1.604009471991643e-8 -0.4458732853377582
vn -0.9747231456567426 8.037297244967862e-9 0.22341617963125354
vn 0.9747231456567426 -8.037297244967862e-9 -0.22341617963125354
vn -0.9997792930718039 0 -0.021008692125973928
vn 0.9997792930718039 0 0.021008692125973928
vn -0.9607881075142374 -9.975159907684524e-9 -0.27728363179100574
vn 0.9607881075142374 9.975159907684524e-9 0.27728363179100574
vn -0.8667478181511836 -1.7942195065984325e-8 -0.4987466488410351
vn 0.8667478181511836 1.7942195065984325e-8 0.4987466488410351
usemtl material_0_0
f 1/1/1 2/2/1 3/3/1
f 2/2/1 1/1/1 4/4/1
f 2/2/1 4/4/1 5/5/1
f 5/5/1 4/4/1 6/6/1
f 5/5/1 6/6/1 7/7/1
f 7/7/1 6/6/1 8/8/1
f 8/8/1 6/6/1 9/9/1
f 8/8/1 9/9/1 10/10/1
f 8/8/1 10/10/1 11/11/1
f 11/11/1 10/10/1 12/12/1
f 11/11/1 12/12/1 13/13/1
f 13/13/1 12/12/1 14/14/1
f 14/14/1 12/12/1 15/15/1
f 15/15/1 12/12/1 16/16/1
f 15/15/1 16/16/1 17/17/1
f 17/17/1 16/16/1 18/18/1
f 18/18/1 16/16/1 19/19/1
f 19/19/1 16/16/1 20/20/1
f 19/19/1 20/20/1 21/21/1
f 21/21/1 20/20/1 22/22/1
f 21/21/1 22/22/1 23/23/1
f 23/23/1 22/22/1 24/24/1
f 24/24/1 22/22/1 25/25/1
f 25/25/1 22/22/1 26/26/1
f 26/26/1 22/22/1 27/27/1
f 26/26/1 27/27/1 28/28/1
f 28/28/1 27/27/1 29/29/1
f 29/29/1 27/27/1 30/30/1
f 11/11/1 31/31/1 32/32/1
f 31/31/1 11/11/1 13/13/1
f 32/32/1 31/31/1 33/33/1
f 32/32/1 33/33/1 34/34/1
f 32/32/1 34/34/1 35/35/1
f 32/32/1 35/35/1 36/36/1
f 36/36/1 35/35/1 37/37/1
f 36/36/1 37/37/1 38/38/1
f 36/36/1 38/38/1 39/39/1
f 36/36/1 39/39/1 40/40/1
f 36/36/1 40/40/1 41/41/1
f 41/41/1 40/40/1 42/42/1
f 41/41/1 42/42/1 43/43/1
f 41/41/1 43/43/1 44/44/1
f 41/41/1 44/44/1 45/45/1
f 45/45/1 44/44/1 46/46/1
f 45/45/1 46/46/1 47/47/1
f 45/45/1 47/47/1 30/30/1
f 45/45/1 30/30/1 48/48/1
f 48/48/1 30/30/1 27/27/1
f 48/48/1 27/27/1 49/49/1
f 48/48/1 49/49/1 50/50/1
f 50/50/1 49/49/1 51/51/1
f 50/50/1 51/51/1 52/52/1
f 52/52/1 51/51/1 53/53/1
f 52/52/1 53/53/1 54/54/1
f 54/54/1 53/53/1 55/55/1
f 55/55/1 53/53/1 56/56/1
f 55/55/1 56/56/1 57/57/1
f 57/57/1 56/56/1 58/58/1
f 59/58/2 60/56/2 61/57/2
f 61/57/2 60/56/2 62/55/2
f 60/56/2 63/53/2 62/55/2
f 62/55/2 63/53/2 64/54/2
f 64/54/2 63/53/2 65/52/2
f 63/53/2 66/51/2 65/52/2
f 65/52/2 66/51/2 67/50/2
f 66/51/2 68/49/2 67/50/2
f 67/50/2 68/49/2 69/48/2
f 68/49/2 70/27/2 69/48/2
f 70/27/2 71/30/2 69/48/2
f 69/48/2 71/30/2 72/45/2
f 71/30/2 73/47/2 72/45/2
f 73/47/2 74/46/2 72/45/2
f 74/46/2 75/44/2 72/45/2
f 72/45/2 75/44/2 76/41/2
f 75/44/2 77/43/2 76/41/2
f 77/43/2 78/42/2 76/41/2
f 78/42/2 79/40/2 76/41/2
f 76/41/2 79/40/2 80/36/2
f 79/40/2 81/39/2 80/36/2
f 81/39/2 82/38/2 80/36/2
f 82/38/2 83/37/2 80/36/2
f 83/37/2 84/35/2 80/36/2
f 80/36/2 84/35/2 85/32/2
f 84/35/2 86/34/2 85/32/2
f 86/34/2 87/33/2 85/32/2
f 87/33/2 88/31/2 85/32/2
f 89/13/2 90/11/2 88/31/2
f 85/32/2 88/31/2 90/11/2
f 71/30/2 70/27/2 91/29/2
f 91/29/2 70/27/2 92/28/2
f 92/28/2 70/27/2 93/26/2
f 70/27/2 94/22/2 93/26/2
f 93/26/2 94/22/2 95/25/2
f 95/25/2 94/22/2 96/24/2
f 96/24/2 94/22/2 97/23/2
f 97/23/2 94/22/2 98/21/2
f 94/22/2 99/20/2 98/21/2
f 98/21/2 99/20/2 100/19/2
f 99/20/2 101/16/2 100/19/2
f 100/19/2 101/16/2 102/18/2
f 102/18/2 101/16/2 103/17/2
f 103/17/2 101/16/2 104/15/2
f 101/16/2 105/12/2 104/15/2
f 104/15/2 105/12/2 106/14/2
f 106/14/2 105/12/2 89/13/2
f 89/13/2 105/12/2 90/11/2
f 105/12/2 107/10/2 90/11/2
f 90/11/2 107/10/2 108/8/2
f 107/10/2 109/9/2 108/8/2
f 109/9/2 110/6/2 108/8/2
f 108/8/2 110/6/2 111/7/2
f 111/7/2 110/6/2 112/5/2
f 110/6/2 113/4/2 112/5/2
f 112/5/2 113/4/2 114/2/2
f 113/4/2 115/1/2 114/2/2
f 116/3/2 114/2/2 115/1/2
f 117/59/3 118/60/3 119/61/3
f 118/60/3 117/59/3 120/62/3
f 121/62/4 122/59/4 123/60/4
f 124/61/4 123/60/4 122/59/4
f 125/63/5 126/64/5 127/65/5
f 126/64/5 125/63/5 128/66/5
f 129/66/6 130/63/6 131/64/6
f 132/65/6 131/64/6 130/63/6
f 133/67/7 134/68/7 135/69/7
f 134/68/7 133/67/7 136/70/7
f 137/70/8 138/67/8 139/68/8
f 140/69/8 139/68/8 138/67/8
f 141/71/9 142/72/9 143/73/9
f 142/72/9 141/71/9 144/74/9
f 145/74/10 146/71/10 147/72/10
f 148/73/10 147/72/10 146/71/10
f 149/75/11 150/76/11 151/77/11
f 150/76/11 149/75/11 152/78/11
f 153/78/12 154/75/12 155/76/12
f 156/77/12 155/76/12 154/75/12
f 157/79/13 158/80/14 159/81/14
f 158/80/14 157/79/13 160/82/13
f 161/82/15 162/79/15 163/80/16
f 164/81/16 163/80/16 162/79/15
f 159/83/14 165/84/17 166/85/17
f 165/84/17 159/83/14 158/86/14
f 163/86/16 164/83/16 167/84/18
f 168/85/18 167/84/18 164/83/16
f 166/87/17 169/88/19 170/89/19
f 169/88/19 166/87/17 165/90/17
f 167/90/18 168/87/18 171/88/20
f 172/89/20 171/88/20 168/87/18
f 173/91/21 174/92/21 175/93/21
f 174/92/21 173/91/21 176/94/21
f 177/94/22 178/91/22 179/92/22
f 180/93/22 179/92/22 178/91/22
f 181/95/23 182/96/23 183/97/23
f 182/96/23 181/95/23 184/98/23
f 185/98/24 186/95/24 187/96/24
f 188/97/24 187/96/24 186/95/24
f 189/99/25 190/100/25 191/101/25
f 190/100/25 189/99/25 192/102/25
f 193/102/26 194/99/26 195/100/26
f 196/101/26 195/100/26 194/99/26
f 197/103/27 198/104/27 199/105/27
f 198/104/27 197/103/27 200/106/27
f 201/106/28 202/103/28 203/104/28
f 204/105/28 203/104/28 202/103/28
f 205/107/29 206/108/29 207/109/29
f 206/108/29 205/107/29 208/110/29
f 209/110/30 210/107/30 211/108/30
f 212/109/30 211/108/30 210/107/30
f 213/111/31 214/112/31 215/113/31
f 214/112/31 213/111/31 216/114/31
f 217/114/32 218/111/32 219/112/32
f 220/113/32 219/112/32 218/111/32
f 221/115/33 222/116/33 223/117/33
f 222/116/33 221/115/33 224/118/33
f 225/118/34 226/115/34 227/116/34
f 228/117/34 227/116/34 226/115/34
f 229/119/35 230/120/35 231/121/35
f 230/120/35 229/119/35 232/122/35
f 233/122/36 234/119/36 235/120/36
f 236/121/36 235/120/36 234/119/36
f 237/123/37 238/124/37 239/125/37
f 238/124/37 237/123/37 240/126/37
f 241/126/38 242/123/38 243/124/38
f 244/125/38 243/124/38 242/123/38
f 245/127/39 246/128/39 247/129/39
f 246/128/39 245/127/39 248/130/39
f 249/130/40 250/127/40 251/128/40
f 252/129/40 251/128/40 250/127/40
f 253/131/41 254/132/41 255/133/41
f 254/132/41 253/131/41 256/134/41
f 257/134/42 258/131/42 259/132/42
f 260/133/42 259/132/42 258/131/42
f 261/135/43 262/136/43 263/137/43
f 262/136/43 261/135/43 264/138/43
f 265/138/44 266/135/44 267/136/44
f 268/137/44 267/136/44 266/135/44
f 269/139/45 270/140/45 271/141/45
f 270/140/45 269/139/45 272/142/45
f 273/142/46 274/139/46 275/140/46
f 276/141/46 275/140/46 274/139/46
f 277/143/47 278/144/47 279/145/47
f 278/144/47 277/143/47 280/146/47
f 281/146/48 282/143/48 283/144/48
f 284/145/48 283/144/48 282/143/48
f 285/147/49 286/148/50 287/149/50
f 286/148/50 285/147/49 288/150/49
f 289/150/51 290/147/51 291/148/52
f 292/149/52 291/148/52 290/147/51
f 293/151/53 288/152/49 285/153/49
f 288/152/49 293/151/53 294/154/53
f 295/154/54 296/151/54 289/152/51
f 290/153/51 289/152/51 296/151/54
f 297/155/55 298/156/55 299/157/55
f 298/156/55 297/155/55 300/158/55
f 301/158/56 302/155/56 303/156/56
f 304/157/56 303/156/56 302/155/56
f 305/159/57 306/160/57 307/161/57
f 306/160/57 305/159/57 308/162/57
f 309/162/58 310/159/58 311/160/58
f 312/161/58 311/160/58 310/159/58
f 313/163/59 314/164/59 315/165/59
f 314/164/59 313/163/59 316/166/59
f 317/166/60 318/163/60 319/164/60
f 320/165/60 319/164/60 318/163/60
f 321/167/61 322/168/61 323/169/61
f 322/168/61 321/167/61 324/170/61
f 325/170/62 326/167/62 327/168/62
f 328/169/62 327/168/62 326/167/62
f 329/171/63 330/172/63 331/173/63
f 330/172/63 329/171/63 332/174/63
f 333/174/64 334/171/64 335/172/64
f 336/173/64 335/172/64 334/171/64
f 337/175/65 338/176/65 339/177/65
f 338/176/65 337/175/65 340/178/65
f 341/178/66 342/175/66 343/176/66
f 344/177/66 343/176/66 342/175/66
f 345/179/67 346/180/67 347/181/67
f 346/180/67 345/179/67 348/182/67
f 349/182/68 350/179/68 351/180/68
f 352/181/68 351/180/68 350/179/68
f 353/183/2 354/184/2 355/185/2
f 354/184/2 353/183/2 356/186/2
f 354/184/2 356/186/2 357/187/2
f 357/187/2 356/186/2 358/188/2
f 358/188/2 356/186/2 359/189/2
f 359/189/2 356/186/2 360/190/2
f 359/189/2 360/190/2 361/191/2
f 361/191/2 360/190/2 362/192/2
f 362/192/2 360/190/2 363/193/2
f 363/193/2 360/190/2 364/194/2
f 364/194/2 360/190/2 365/195/2
f 364/194/2 365/195/2 366/196/2
f 366/196/2 365/195/2 367/197/2
f 367/197/2 365/195/2 368/198/2
f 368/198/2 365/195/2 369/199/2
f 368/198/2 369/199/2 370/200/2
f 370/200/2 369/199/2 371/201/2
f 371/201/2 369/199/2 372/202/2
f 372/202/2 369/199/2 373/203/2
f 372/202/2 373/203/2 374/204/2
f 374/204/2 373/203/2 375/205/2
f 375/205/2 373/203/2 376/206/2
f 375/205/2 376/206/2 377/207/2
f 377/207/2 376/206/2 378/208/2
f 377/207/2 378/208/2 379/209/2
f 379/209/2 378/208/2 380/210/2
f 379/209/2 380/210/2 381/211/2
f 379/209/2 381/211/2 382/212/2
f 382/212/2 381/211/2 383/213/2
f 382/212/2 383/213/2 384/214/2
f 385/215/2 386/216/2 387/3/2
f 386/216/2 385/215/2 388/217/2
f 388/217/2 385/215/2 389/218/2
f 388/217/2 389/218/2 390/219/2
f 390/219/2 389/218/2 391/220/2
f 390/219/2 391/220/2 392/221/2
f 390/219/2 392/221/2 393/222/2
f 393/222/2 392/221/2 394/223/2
f 394/223/2 392/221/2 353/183/2
f 394/223/2 353/183/2 395/224/2
f 395/224/2 353/183/2 355/185/2
f 395/224/2 355/185/2 396/225/2
f 395/224/2 396/225/2 397/226/2
f 395/224/2 397/226/2 398/227/2
f 398/227/2 397/226/2 399/228/2
f 398/227/2 399/228/2 400/229/2
f 398/227/2 400/229/2 401/230/2
f 398/227/2 401/230/2 402/231/2
f 402/231/2 401/230/2 403/232/2
f 402/231/2 403/232/2 404/233/2
f 404/233/2 403/232/2 405/234/2
f 404/233/2 405/234/2 406/235/2
f 404/233/2 406/235/2 407/236/2
f 404/233/2 407/236/2 408/237/2
f 404/233/2 408/237/2 374/204/2
f 374/204/2 408/237/2 409/238/2
f 374/204/2 409/238/2 410/239/2
f 374/204/2 410/239/2 372/202/2
f 411/202/1 412/239/1 413/204/1
f 412/239/1 414/238/1 413/204/1
f 414/238/1 415/237/1 413/204/1
f 413/204/1 415/237/1 416/233/1
f 415/237/1 417/236/1 416/233/1
f 417/236/1 418/235/1 416/233/1
f 418/235/1 419/234/1 416/233/1
f 419/234/1 420/232/1 416/233/1
f 416/233/1 420/232/1 421/231/1
f 420/232/1 422/230/1 421/231/1
f 421/231/1 422/230/1 423/227/1
f 422/230/1 424/229/1 423/227/1
f 424/229/1 425/228/1 423/227/1
f 425/228/1 426/226/1 423/227/1
f 423/227/1 426/226/1 427/224/1
f 426/226/1 428/225/1 427/224/1
f 428/225/1 429/185/1 427/224/1
f 429/185/1 430/183/1 427/224/1
f 427/224/1 430/183/1 431/223/1
f 430/183/1 432/221/1 431/223/1
f 431/223/1 432/221/1 433/222/1
f 433/222/1 432/221/1 434/219/1
f 432/221/1 435/220/1 434/219/1
f 435/220/1 436/218/1 434/219/1
f 434/219/1 436/218/1 437/217/1
f 436/218/1 438/215/1 437/217/1
f 437/217/1 438/215/1 439/216/1
f 440/3/1 439/216/1 438/215/1
f 441/214/1 442/213/1 443/212/1
f 442/213/1 444/211/1 443/212/1
f 443/212/1 444/211/1 445/209/1
f 444/211/1 446/210/1 445/209/1
f 446/210/1 447/208/1 445/209/1
f 445/209/1 447/208/1 448/207/1
f 447/208/1 449/206/1 448/207/1
f 448/207/1 449/206/1 450/205/1
f 449/206/1 451/203/1 450/205/1
f 450/205/1 451/203/1 413/204/1
f 413/204/1 451/203/1 411/202/1
f 451/203/1 452/199/1 411/202/1
f 411/202/1 452/199/1 453/201/1
f 453/201/1 452/199/1 454/200/1
f 454/200/1 452/199/1 455/198/1
f 452/199/1 456/195/1 455/198/1
f 455/198/1 456/195/1 457/197/1
f 457/197/1 456/195/1 458/196/1
f 458/196/1 456/195/1 459/194/1
f 456/195/1 460/190/1 459/194/1
f 459/194/1 460/190/1 461/193/1
f 461/193/1 460/190/1 462/192/1
f 462/192/1 460/190/1 463/191/1
f 463/191/1 460/190/1 464/189/1
f 460/190/1 465/186/1 464/189/1
f 464/189/1 465/186/1 466/188/1
f 466/188/1 465/186/1 467/187/1
f 467/187/1 465/186/1 468/184/1
f 465/186/1 430/183/1 468/184/1
f 429/185/1 468/184/1 430/183/1
