# SSTK version 0.8.0
# 47
mtllib original_47.mtl
o group_21/ID325#ID325
v -0.11961811 0.68654666 0.09757867
v -0.11944737 0.68649702 0.02722373
v -0.12406122 0.68655563 0.06233344
v -0.10593985 0.68655180 0.13017841
v -0.10584082 0.68656271 -0.00534317
v -0.08436451 0.68659088 0.15840669
v -0.08427084 0.68657824 -0.03345652
v -0.05639860 0.68654655 0.17972782
v -0.05635863 0.68661825 -0.05498306
v -0.02375148 0.68641973 0.19341782
v -0.02364714 0.68649420 -0.06842942
v 0.01141917 0.68639283 0.19800218
v 0.01144420 0.68648509 -0.07324949
v 0.04657883 0.68657305 0.19335852
v 0.04647166 0.68663346 -0.06864934
v 0.07933695 0.68665534 0.17967371
v 0.07921541 0.68649430 -0.05500088
v 0.10736294 0.68656656 0.15838706
v 0.10735897 0.68661982 -0.03351226
v 0.12890764 0.68662645 0.13009042
v 0.12884569 0.68663791 -0.00539316
v 0.14233264 0.68660313 0.09764529
v 0.14235039 0.68657974 0.02730091
v 0.14688133 0.68664512 0.06243014
v 0.14699140 0.68665144 0.06240136
v 0.14228471 0.68661841 0.09734562
v 0.14252932 0.68646071 0.02729981
v 0.12880263 0.68650016 -0.00549391
v 0.12901573 0.68670899 0.13034286
v 0.10728157 0.68659498 -0.03352423
v 0.10727756 0.68665035 0.15815395
v 0.07918140 0.68648929 -0.05486807
v 0.07909032 0.68650228 0.17985481
v 0.04663425 0.68668121 -0.06850094
v 0.04650425 0.68659345 0.19343696
v 0.01144320 0.68655726 -0.07308333
v 0.01143539 0.68658207 0.19811191
v -0.02358048 0.68660855 -0.06855482
v -0.02355311 0.68643431 0.19341042
v -0.05628990 0.68655582 -0.05512229
v -0.05627658 0.68645604 0.17974885
v -0.08444723 0.68657638 -0.03343343
v -0.08427221 0.68661150 0.15824991
v -0.10592631 0.68662552 -0.00527985
v -0.10585329 0.68673695 0.13028329
v -0.11950067 0.68660632 0.02741811
v -0.11951478 0.68655077 0.09750929
v -0.12421526 0.68649146 0.06242257
v 0.14243403 0.62393649 0.09739429
v 0.12877251 0.68641790 0.13031283
v 0.12893058 0.62389428 0.13017234
v 0.14257935 0.68648262 0.09752246
v 0.14231090 0.68652527 0.09741288
v 0.14230710 0.62401108 0.09733790
v 0.12887717 0.68659671 0.13017445
v 0.12890550 0.62389978 0.13011387
v 0.14713709 0.62409274 0.06232535
v 0.14687673 0.68653913 0.06243951
v 0.14719103 0.68666979 0.06245102
v 0.14699013 0.62401060 0.06239178
v 0.14232587 0.62409942 0.02726987
v 0.14232502 0.68665794 0.02734097
v 0.14233063 0.68661240 0.02738040
v 0.14222669 0.62408674 0.02718025
v 0.12872399 0.62403108 -0.00554675
v 0.12876261 0.68639295 -0.00544031
v 0.12872470 0.68657642 -0.00522990
v 0.12891669 0.62380586 -0.00544928
v 0.10745123 0.62405303 -0.03335775
v 0.10731278 0.68641486 -0.03355973
v 0.10727102 0.68646892 -0.03347947
v 0.10718357 0.62396343 -0.03345136
v 0.07928175 0.68658402 -0.05504125
v 0.07936305 0.62387377 -0.05513628
v 0.07927535 0.68659851 -0.05505280
v 0.07934236 0.62416478 -0.05506212
v 0.04660787 0.68648774 -0.06857675
v 0.04654533 0.62401570 -0.06856678
v 0.04652148 0.68659713 -0.06856530
v 0.04649134 0.62392955 -0.06867162
v 0.01154018 0.68655288 -0.07323355
v 0.01149805 0.62397098 -0.07328009
v 0.01159554 0.68670047 -0.07321265
v 0.01161044 0.62402249 -0.07320672
v -0.02351578 0.68667589 -0.06844035
v -0.02371917 0.62403260 -0.06854716
v -0.02382701 0.68667176 -0.06861135
v -0.02365011 0.62396263 -0.06854200
v -0.05620764 0.68663285 -0.05509239
v -0.05639230 0.62399684 -0.05500372
v -0.05626108 0.68662359 -0.05498888
v -0.05630103 0.62399305 -0.05503705
v -0.08453539 0.68653302 -0.03342711
v -0.08447169 0.62399114 -0.03344694
v -0.08438566 0.68644008 -0.03333933
v -0.08449008 0.62386879 -0.03345590
v -0.10589091 0.62407023 -0.00537963
v -0.10601373 0.68652361 -0.00539437
v -0.10595041 0.62399497 -0.00532361
v -0.10595708 0.68663003 -0.00535329
v -0.11935828 0.62385697 0.02719508
v -0.11939598 0.68659071 0.02721784
v -0.11947868 0.62403759 0.02724455
v -0.11959210 0.68649977 0.02724190
v -0.12414166 0.62406754 0.06242624
v -0.12404667 0.68666593 0.06245949
v -0.12407574 0.62384653 0.06240471
v -0.12410386 0.68656691 0.06239208
v -0.11966657 0.62382617 0.09732866
v -0.11966582 0.68646598 0.09755561
v -0.11959184 0.62400314 0.09748835
v -0.11940995 0.68670866 0.09741683
v -0.10594672 0.62397441 0.13029797
v -0.10586717 0.68656154 0.13021933
v -0.10587535 0.62392823 0.13009140
v -0.10614153 0.68644758 0.13019364
v -0.08439572 0.62396368 0.15830903
v -0.08434976 0.68650440 0.15827813
v -0.08447229 0.62395534 0.15826116
v -0.08452825 0.68659651 0.15813135
v -0.05641031 0.68661930 0.17977287
v -0.05631485 0.62407560 0.17979539
v -0.05640577 0.68655357 0.17980256
v -0.05624683 0.62409065 0.17990073
v -0.02374068 0.68659033 0.19324756
v -0.02358228 0.62403800 0.19330284
v -0.02364131 0.68653895 0.19323471
v -0.02368473 0.62397938 0.19334095
v 0.01153777 0.68657795 0.19812147
v 0.01160176 0.62396196 0.19798481
v 0.01140888 0.68651823 0.19803576
v 0.01148706 0.62409881 0.19804389
v 0.04664160 0.68650472 0.19326863
v 0.04645465 0.62395419 0.19346596
v 0.04661259 0.68661426 0.19347236
v 0.04655866 0.62380837 0.19346955
v 0.07940965 0.68652159 0.17982348
v 0.07934511 0.62410528 0.17976540
v 0.07921310 0.68662400 0.17966627
v 0.07921929 0.62387432 0.17975606
v 0.10743548 0.68639490 0.15811675
v 0.10730288 0.62393214 0.15841906
v 0.10737274 0.68650562 0.15838276
v 0.10733447 0.62414395 0.15826515
v -0.11946024 0.62410949 0.02720789
v -0.11959348 0.62412180 0.09747875
v -0.12420735 0.62397328 0.06244069
v -0.10591342 0.62413720 0.13028792
v -0.10594752 0.62389536 -0.00544405
v -0.08434036 0.62399490 0.15823878
v -0.08438460 0.62394223 -0.03357328
v -0.05635862 0.62396244 0.17989863
v -0.05651844 0.62389020 -0.05500200
v -0.02375739 0.62398794 0.19337034
v -0.02370587 0.62386014 -0.06866551
v 0.01153292 0.62389110 0.19801452
v 0.01156045 0.62399126 -0.07321606
v 0.04639390 0.62401010 0.19348503
v 0.04660066 0.62397266 -0.06846690
v 0.07935404 0.62411016 0.17977035
v 0.07917460 0.62386764 -0.05504392
v 0.10729032 0.62404004 0.15826084
v 0.10746332 0.62389727 -0.03340912
v 0.12880481 0.62404986 0.13009795
v 0.12870393 0.62392447 -0.00548000
v 0.14224172 0.62408229 0.09747699
v 0.14245188 0.62383077 0.02723279
v 0.14708416 0.62388536 0.06248386
v 0.14703755 0.62400277 0.06244091
v 0.14245943 0.62400182 0.02725896
v 0.14245316 0.62400479 0.09755524
v 0.12904531 0.62401766 -0.00529715
v 0.12874550 0.62409549 0.13028390
v 0.10724220 0.62411782 -0.03337955
v 0.10720650 0.62395708 0.15826382
v 0.07925264 0.62395805 -0.05513886
v 0.07931962 0.62388054 0.17983715
v 0.04662500 0.62382911 -0.06865413
v 0.04652091 0.62406930 0.19343264
v 0.01131230 0.62396606 -0.07325087
v 0.01131220 0.62391959 0.19799981
v -0.02361297 0.62394711 -0.06868894
v -0.02358094 0.62398510 0.19323604
v -0.05628818 0.62402233 -0.05501503
v -0.05639297 0.62409468 0.17980004
v -0.08448352 0.62400558 -0.03360296
v -0.08438363 0.62398472 0.15815594
v -0.10583928 0.62403363 -0.00529552
v -0.10610785 0.62399138 0.13017417
v -0.11944642 0.62394533 0.02730499
v -0.11959586 0.62404691 0.09750116
v -0.12413035 0.62394669 0.06243752
vt -0.04491351 0.3456716
vt -0.04491351 0.6315997
vt -0.06373508 0.4886356
vt 0.01026856 0.2124503
vt 0.01026856 0.764821
vt 0.09805056 0.09805056
vt 0.09805056 0.8792207
vt 0.2124503 0.01026856
vt 0.2124503 0.9670027
vt 0.3456716 -0.04491351
vt 0.3456716 1.022185
vt 0.4886356 -0.06373508
vt 0.4886356 1.041006
vt 0.6315997 -0.04491351
vt 0.6315997 1.022185
vt 0.764821 0.01026856
vt 0.764821 0.9670027
vt 0.8792207 0.09805056
vt 0.8792207 0.8792207
vt 0.9670027 0.2124503
vt 0.9670027 0.764821
vt 1.022185 0.3456716
vt 1.022185 0.6315997
vt 1.041006 0.4886356
vt 0.7105321 9.585643e-16
vt 0.5663344 0.2549403
vt 0.5663344 9.585643e-16
vt 0.7105321 0.2549403
vt 0.6203339 9.585643e-16
vt 0.4761362 0.2549403
vt 0.4761362 9.585643e-16
vt 0.6203339 0.2549403
vt 0.4927744 9.585643e-16
vt 0.3485767 0.2549403
vt 0.3485767 9.585643e-16
vt 0.4927744 0.2549403
vt 0.3365466 9.585643e-16
vt 0.1923489 0.2549403
vt 0.1923489 9.585643e-16
vt 0.3365466 0.2549403
vt 0.162297 9.585643e-16
vt 0.01809934 0.2549403
vt 0.01809934 9.585643e-16
vt 0.162297 0.2549403
vt -0.01809934 0.2549403
vt -0.162297 9.585643e-16
vt -0.01809934 9.585643e-16
vt -0.162297 0.2549403
vt -0.1923489 0.2549403
vt -0.3365466 9.585643e-16
vt -0.1923489 9.585643e-16
vt -0.3365466 0.2549403
vt -0.3485767 0.2549403
vt -0.4927744 9.585643e-16
vt -0.3485767 9.585643e-16
vt -0.4927744 0.2549403
vt -0.4761362 0.2549403
vt -0.6203339 9.585643e-16
vt -0.4761362 9.585643e-16
vt -0.6203339 0.2549403
vt -0.5663344 0.2549403
vt -0.7105321 9.585643e-16
vt -0.5663344 9.585643e-16
vt -0.7105321 0.2549403
vt -0.6130244 0.2549403
vt -0.7572221 9.585643e-16
vt -0.6130244 9.585643e-16
vt -0.7572221 0.2549403
vt 0.7572221 0.2549403
vt 0.6130244 9.585643e-16
vt 0.7572221 9.585643e-16
vt 0.6130244 0.2549403
vt 0.04491351 0.6315997
vt 0.04491351 0.3456716
vt 0.06373508 0.4886356
vt -0.01026856 0.2124503
vt -0.01026856 0.764821
vt -0.09805056 0.09805056
vt -0.09805056 0.8792207
vt -0.2124503 0.01026856
vt -0.2124503 0.9670027
vt -0.3456716 -0.04491351
vt -0.3456716 1.022185
vt -0.4886356 -0.06373508
vt -0.4886356 1.041006
vt -0.6315997 -0.04491351
vt -0.6315997 1.022185
vt -0.764821 0.01026856
vt -0.764821 0.9670027
vt -0.8792207 0.09805056
vt -0.8792207 0.8792207
vt -0.9670027 0.2124503
vt -0.9670027 0.764821
vt -1.022185 0.3456716
vt -1.022185 0.6315997
vt -1.041006 0.4886356
vn 0 1 0
vn 0 -1 0
vn 0.9659258358036645 0 0.25881900959356163
vn 0.866025402838329 0 0.5000000016387101
vn -0.9659258358036645 0 -0.25881900959356163
vn -0.866025402838329 0 -0.5000000016387101
vn 1 0 0
vn -1 0 0
vn 0.9659258358036645 0 -0.25881900959356163
vn -0.9659258358036645 0 0.25881900959356163
vn 0.866025402838329 0 -0.5000000016387101
vn -0.866025402838329 0 0.5000000016387101
vn 0.7071067811865476 0 -0.7071067811865476
vn -0.7071067811865476 0 0.7071067811865476
vn 0.5000000016387101 0 -0.866025402838329
vn -0.5000000016387101 0 0.866025402838329
vn 0.25881900959356163 0 -0.9659258358036645
vn -0.25881900959356163 0 0.9659258358036645
vn 0 0 -1
vn 0 0 1
vn -0.25881900959356163 0 -0.9659258358036645
vn 0.25881900959356163 0 0.9659258358036645
vn -0.5000000016387101 0 -0.866025402838329
vn 0.5000000016387101 0 0.866025402838329
vn -0.7071067811865476 0 -0.7071067811865476
vn 0.7071067811865476 0 0.7071067811865476
usemtl material_0_0
f 1/1/1 2/2/1 3/3/1
f 2/2/1 1/1/1 4/4/1
f 2/2/1 4/4/1 5/5/1
f 5/5/1 4/4/1 6/6/1
f 5/5/1 6/6/1 7/7/1
f 7/7/1 6/6/1 8/8/1
f 7/7/1 8/8/1 9/9/1
f 9/9/1 8/8/1 10/10/1
f 9/9/1 10/10/1 11/11/1
f 11/11/1 10/10/1 12/12/1
f 11/11/1 12/12/1 13/13/1
f 13/13/1 12/12/1 14/14/1
f 13/13/1 14/14/1 15/15/1
f 15/15/1 14/14/1 16/16/1
f 15/15/1 16/16/1 17/17/1
f 17/17/1 16/16/1 18/18/1
f 17/17/1 18/18/1 19/19/1
f 19/19/1 18/18/1 20/20/1
f 19/19/1 20/20/1 21/21/1
f 21/21/1 20/20/1 22/22/1
f 21/21/1 22/22/1 23/23/1
f 23/23/1 22/22/1 24/24/1
f 25/24/2 26/22/2 27/23/2
f 27/23/2 26/22/2 28/21/2
f 26/22/2 29/20/2 28/21/2
f 28/21/2 29/20/2 30/19/2
f 29/20/2 31/18/2 30/19/2
f 30/19/2 31/18/2 32/17/2
f 31/18/2 33/16/2 32/17/2
f 32/17/2 33/16/2 34/15/2
f 33/16/2 35/14/2 34/15/2
f 34/15/2 35/14/2 36/13/2
f 35/14/2 37/12/2 36/13/2
f 36/13/2 37/12/2 38/11/2
f 37/12/2 39/10/2 38/11/2
f 38/11/2 39/10/2 40/9/2
f 39/10/2 41/8/2 40/9/2
f 40/9/2 41/8/2 42/7/2
f 41/8/2 43/6/2 42/7/2
f 42/7/2 43/6/2 44/5/2
f 43/6/2 45/4/2 44/5/2
f 44/5/2 45/4/2 46/2/2
f 45/4/2 47/1/2 46/2/2
f 48/3/2 46/2/2 47/1/2
f 49/25/3 50/26/4 51/27/4
f 50/26/4 49/25/3 52/28/3
f 53/28/5 54/25/5 55/26/6
f 56/27/6 55/26/6 54/25/5
f 57/29/7 52/30/3 49/31/3
f 52/30/3 57/29/7 58/32/7
f 59/32/8 60/29/8 53/30/5
f 54/31/5 53/30/5 60/29/8
f 61/33/9 58/34/7 57/35/7
f 58/34/7 61/33/9 62/36/9
f 63/36/10 64/33/10 59/34/8
f 60/35/8 59/34/8 64/33/10
f 65/37/11 62/38/9 61/39/9
f 62/38/9 65/37/11 66/40/11
f 67/40/12 68/37/12 63/38/10
f 64/39/10 63/38/10 68/37/12
f 69/41/13 66/42/11 65/43/11
f 66/42/11 69/41/13 70/44/13
f 71/44/14 72/41/14 67/42/12
f 68/43/12 67/42/12 72/41/14
f 73/45/15 69/46/13 74/47/15
f 69/46/13 73/45/15 70/48/13
f 71/48/14 75/45/16 72/46/14
f 76/47/16 72/46/14 75/45/16
f 77/49/17 74/50/15 78/51/17
f 74/50/15 77/49/17 73/52/15
f 75/52/16 79/49/18 76/50/16
f 80/51/18 76/50/16 79/49/18
f 81/53/19 78/54/17 82/55/19
f 78/54/17 81/53/19 77/56/17
f 79/56/18 83/53/20 80/54/18
f 84/55/20 80/54/18 83/53/20
f 85/57/21 82/58/19 86/59/21
f 82/58/19 85/57/21 81/60/19
f 83/60/20 87/57/22 84/58/20
f 88/59/22 84/58/20 87/57/22
f 89/61/23 86/62/21 90/63/23
f 86/62/21 89/61/23 85/64/21
f 87/64/22 91/61/24 88/62/22
f 92/63/24 88/62/22 91/61/24
f 93/65/25 90/66/23 94/67/25
f 90/66/23 93/65/25 89/68/23
f 91/68/24 95/65/26 92/66/24
f 96/67/26 92/66/24 95/65/26
f 93/68/25 97/67/6 98/65/6
f 97/67/6 93/68/25 94/66/25
f 96/66/26 95/68/26 99/67/4
f 100/65/4 99/67/4 95/68/26
f 98/64/6 101/63/5 102/61/5
f 101/63/5 98/64/6 97/62/6
f 99/62/4 100/64/4 103/63/3
f 104/61/3 103/63/3 100/64/4
f 102/60/5 105/59/8 106/57/8
f 105/59/8 102/60/5 101/58/5
f 103/58/3 104/60/3 107/59/7
f 108/57/7 107/59/7 104/60/3
f 106/56/8 109/55/10 110/53/10
f 109/55/10 106/56/8 105/54/8
f 107/54/7 108/56/7 111/55/9
f 112/53/9 111/55/9 108/56/7
f 110/52/10 113/51/12 114/49/12
f 113/51/12 110/52/10 109/50/10
f 111/50/9 112/52/9 115/51/11
f 116/49/11 115/51/11 112/52/9
f 114/48/12 117/47/14 118/45/14
f 117/47/14 114/48/12 113/46/12
f 115/46/11 116/48/11 119/47/13
f 120/45/13 119/47/13 116/48/11
f 121/44/16 117/43/14 122/41/16
f 117/43/14 121/44/16 118/42/14
f 120/42/13 123/44/15 119/43/13
f 124/41/15 119/43/13 123/44/15
f 125/40/18 122/39/16 126/37/18
f 122/39/16 125/40/18 121/38/16
f 123/38/15 127/40/17 124/39/15
f 128/37/17 124/39/15 127/40/17
f 129/36/20 126/35/18 130/33/20
f 126/35/18 129/36/20 125/34/18
f 127/34/17 131/36/19 128/35/17
f 132/33/19 128/35/17 131/36/19
f 133/32/22 130/31/20 134/29/22
f 130/31/20 133/32/22 129/30/20
f 131/30/19 135/32/21 132/31/19
f 136/29/21 132/31/19 135/32/21
f 137/28/24 134/27/22 138/25/24
f 134/27/22 137/28/24 133/26/22
f 135/26/21 139/28/23 136/27/21
f 140/25/23 136/27/21 139/28/23
f 141/69/26 138/70/24 142/71/26
f 138/70/24 141/69/26 137/72/24
f 139/72/23 143/69/25 140/70/23
f 144/71/25 140/70/23 143/69/25
f 51/71/4 141/72/26 142/70/26
f 141/72/26 51/71/4 50/69/4
f 55/69/6 56/71/6 143/72/25
f 144/70/25 143/72/25 56/71/6
f 145/73/2 146/74/2 147/75/2
f 146/74/2 145/73/2 148/76/2
f 148/76/2 145/73/2 149/77/2
f 148/76/2 149/77/2 150/78/2
f 150/78/2 149/77/2 151/79/2
f 150/78/2 151/79/2 152/80/2
f 152/80/2 151/79/2 153/81/2
f 152/80/2 153/81/2 154/82/2
f 154/82/2 153/81/2 155/83/2
f 154/82/2 155/83/2 156/84/2
f 156/84/2 155/83/2 157/85/2
f 156/84/2 157/85/2 158/86/2
f 158/86/2 157/85/2 159/87/2
f 158/86/2 159/87/2 160/88/2
f 160/88/2 159/87/2 161/89/2
f 160/88/2 161/89/2 162/90/2
f 162/90/2 161/89/2 163/91/2
f 162/90/2 163/91/2 164/92/2
f 164/92/2 163/91/2 165/93/2
f 164/92/2 165/93/2 166/94/2
f 166/94/2 165/93/2 167/95/2
f 166/94/2 167/95/2 168/96/2
f 169/96/1 170/95/1 171/94/1
f 170/95/1 172/93/1 171/94/1
f 171/94/1 172/93/1 173/92/1
f 172/93/1 174/91/1 173/92/1
f 173/92/1 174/91/1 175/90/1
f 174/91/1 176/89/1 175/90/1
f 175/90/1 176/89/1 177/88/1
f 176/89/1 178/87/1 177/88/1
f 177/88/1 178/87/1 179/86/1
f 178/87/1 180/85/1 179/86/1
f 179/86/1 180/85/1 181/84/1
f 180/85/1 182/83/1 181/84/1
f 181/84/1 182/83/1 183/82/1
f 182/83/1 184/81/1 183/82/1
f 183/82/1 184/81/1 185/80/1
f 184/81/1 186/79/1 185/80/1
f 185/80/1 186/79/1 187/78/1
f 186/79/1 188/77/1 187/78/1
f 187/78/1 188/77/1 189/76/1
f 188/77/1 190/73/1 189/76/1
f 189/76/1 190/73/1 191/74/1
f 192/75/1 191/74/1 190/73/1
