# SSTK version 0.8.0
# 50
mtllib original_50.mtl
o #ID335
v 0.33768366 0.58238279 0.11993772
v 0.33770110 0.58225101 0.00488448
v 0.34273265 0.58222335 0.06242466
v 0.32257945 0.58222526 0.17564311
v 0.32253478 0.58218192 -0.05087404
v 0.29816192 0.58215397 -0.10318864
v 0.29844130 0.58220413 0.22797848
v 0.29286453 0.58221888 0.06245517
v 0.28857242 0.58235966 0.11124414
v 0.26513850 0.58231407 0.27520826
v 0.27585390 0.58214355 0.15851201
v 0.25498250 0.58236688 0.20315579
v 0.22426601 0.58235576 0.31603806
v 0.22706731 0.58211497 0.24328590
v 0.19227141 0.58229615 0.27775872
v 0.17707972 0.58224055 0.34922016
v 0.15228435 0.58234082 0.30600074
v 0.12483821 0.58232997 0.37365749
v 0.10767586 0.58220341 0.32668160
v 0.06888029 0.58236219 0.38844206
v 0.06017441 0.58229700 0.33943564
v 0.01142356 0.58238794 0.39347135
v 0.01138675 0.58232062 0.34376183
v -0.03743928 0.58232692 0.33953640
v -0.04614773 0.58231317 0.38844154
v -0.08485047 0.58229240 0.32674284
v -0.10186142 0.58223701 0.37355034
v -0.12919009 0.58243495 0.30586864
v -0.15407646 0.58237215 0.34916461
v -0.16946969 0.58218852 0.27785517
v -0.20130830 0.58221672 0.31607964
v -0.20419096 0.58226765 0.24311034
v -0.24218581 0.58220162 0.27522308
v -0.23218761 0.58222499 0.20292618
v -0.25284445 0.58224120 0.15866584
v -0.27524762 0.58238532 0.22805003
v -0.26556333 0.58234639 0.11124193
v -0.26993164 0.58226234 0.06242820
v -0.27537711 0.58234874 -0.10316580
v -0.29974835 0.58217150 -0.05091839
v -0.29973059 0.58226543 0.17578918
v -0.31472201 0.58212760 0.11991487
v -0.31484084 0.58234201 0.00493751
v -0.31971943 0.58236152 0.06248020
v 0.28849114 0.58228255 0.01363719
v 0.26519550 0.58236797 -0.15045917
v 0.27582539 0.58236410 -0.03388691
v 0.25521328 0.58221149 -0.07819379
v 0.22421000 0.58238607 -0.19127389
v 0.22707787 0.58215080 -0.11840054
v 0.19227390 0.58237642 -0.15317342
v 0.17710432 0.58225996 -0.22443300
v 0.15227980 0.58227501 -0.18127135
v 0.12465572 0.58234038 -0.24870431
v 0.10778127 0.58226635 -0.20195961
v 0.06891833 0.58245628 -0.26379653
v 0.06041187 0.58219497 -0.21452716
v 0.01157686 0.58219228 -0.26873929
v 0.01149190 0.58240095 -0.21880054
v -0.04596373 0.58226956 -0.26375365
v -0.03726070 0.58219801 -0.21468177
v -0.08475201 0.58226455 -0.20187711
v -0.10192305 0.58231110 -0.24877107
v -0.12925006 0.58231688 -0.18102153
v -0.15403238 0.58230576 -0.22418456
v -0.16934955 0.58225681 -0.15297097
v -0.20136639 0.58222659 -0.19127589
v -0.20410371 0.58229793 -0.11832314
v -0.24244925 0.58232401 -0.15040982
v -0.23224049 0.58222396 -0.07825034
v -0.25275657 0.58233306 -0.03381883
v -0.26557776 0.58227997 0.01363686
v -0.26974533 0.58242013 0.06241058
v -0.26561211 0.58218262 0.01339845
v -0.27530531 0.58242704 -0.10299784
v -0.25293253 0.58226263 -0.03380667
v -0.24217001 0.58241316 -0.15040407
v -0.23213514 0.58242729 -0.07817622
v -0.20402754 0.58229333 -0.11851483
v -0.20125794 0.58224990 -0.19131455
v -0.16935647 0.58242666 -0.15311622
v -0.15424797 0.58245515 -0.22433846
v -0.12908226 0.58223049 -0.18133475
v -0.10175757 0.58237387 -0.24875057
v -0.08479025 0.58227251 -0.20189223
v -0.04605651 0.58216033 -0.26361118
v -0.03734065 0.58222100 -0.21467906
v 0.01156351 0.58226464 -0.21907076
v 0.01133671 0.58212156 -0.26863515
v 0.06030781 0.58221348 -0.21463876
v 0.06882500 0.58236983 -0.26365468
v 0.10755260 0.58213754 -0.20180125
v 0.12454059 0.58221723 -0.24885022
v 0.15214772 0.58243015 -0.18124523
v 0.17715994 0.58220204 -0.22454990
v 0.19245208 0.58234511 -0.15297148
v 0.22441620 0.58222136 -0.19132820
v 0.22686357 0.58231605 -0.11833387
v 0.25510281 0.58232279 -0.07836601
v 0.26516779 0.58222397 -0.15045340
v 0.27582828 0.58217777 -0.03384566
v 0.28844985 0.58226948 0.01356927
v 0.29276875 0.58226698 0.06231658
v 0.29827191 0.58228932 -0.10330334
v -0.31980348 0.58218824 0.06238702
v -0.31473552 0.58227961 0.11992129
v -0.31469260 0.58229441 0.00477096
v -0.29973989 0.58237043 -0.05093187
v -0.29987980 0.58223330 0.17574078
v -0.27551101 0.58225162 0.22789142
v -0.26552160 0.58208771 0.11126084
v -0.25280492 0.58228046 0.15851200
v -0.24222552 0.58242502 0.27521357
v -0.23223419 0.58238844 0.20289299
v -0.20389568 0.58234773 0.24309857
v -0.20143423 0.58238271 0.31617104
v -0.16921005 0.58234385 0.27787466
v -0.15418772 0.58218921 0.34920737
v -0.12930047 0.58221282 0.30600741
v -0.10185228 0.58225933 0.37360273
v -0.08482924 0.58219684 0.32666348
v -0.04615743 0.58226478 0.38851019
v -0.03750546 0.58227954 0.33938429
v 0.01139305 0.58239758 0.39365473
v 0.01138559 0.58228051 0.34362275
v 0.06024783 0.58238793 0.33926271
v 0.06902458 0.58226661 0.38850709
v 0.10772693 0.58213847 0.32681246
v 0.12469248 0.58224786 0.37352325
v 0.15211847 0.58209917 0.30609319
v 0.17695620 0.58232910 0.34919122
v 0.19234456 0.58237840 0.27771756
v 0.22421402 0.58221116 0.31604975
v 0.22688002 0.58221237 0.24305143
v 0.25513706 0.58234416 0.20301366
v 0.26527146 0.58222441 0.27530479
v 0.27574572 0.58231868 0.15844408
v 0.28849030 0.58222332 0.11118886
v 0.29835046 0.58230826 0.22793368
v 0.32271420 0.58231454 0.17560529
v 0.32261322 0.58213134 -0.05095298
v 0.33752679 0.58231076 0.00487993
v 0.33752589 0.58231074 0.11985817
v 0.34272218 0.58222783 0.06236615
v -0.15418873 0.58216786 -0.22442796
v -0.20140863 0.62405493 -0.19135356
v -0.15408843 0.62401606 -0.22442978
v -0.20143207 0.58232261 -0.19135443
v -0.20153865 0.58228545 -0.19110508
v -0.15414378 0.58242940 -0.22438576
v -0.20150527 0.62409247 -0.19127879
v -0.15428707 0.62401542 -0.22435347
v -0.10181591 0.58236170 -0.24864435
v -0.10171350 0.62395473 -0.24871497
v -0.10196287 0.58227613 -0.24881523
v -0.10187349 0.62405192 -0.24890719
v -0.04594584 0.58233928 -0.26363141
v -0.04597938 0.62387717 -0.26363681
v -0.04597655 0.58224740 -0.26368493
v -0.04615053 0.62408757 -0.26383804
v 0.01144067 0.62402461 -0.26890346
v 0.01139747 0.58237419 -0.26886167
v 0.01134421 0.58236617 -0.26891745
v 0.01136500 0.62386772 -0.26865270
v 0.06907366 0.62412718 -0.26363995
v 0.06887699 0.58227933 -0.26365236
v 0.06906883 0.58215085 -0.26363131
v 0.06892302 0.62399321 -0.26387097
v 0.12458768 0.62401211 -0.24888153
v 0.12477153 0.58239851 -0.24860687
v 0.12467156 0.58236997 -0.24884709
v 0.12458544 0.62390156 -0.24883230
v 0.17710337 0.62400917 -0.22432317
v 0.17701331 0.58241539 -0.22442712
v 0.17719514 0.58234641 -0.22434106
v 0.17692633 0.62386103 -0.22443214
v 0.22422962 0.58213172 -0.19118755
v 0.22443102 0.62413034 -0.19114447
v 0.22423322 0.58232131 -0.19137351
v 0.22417100 0.62400955 -0.19133038
v 0.26513935 0.58224167 -0.15049600
v 0.26504433 0.62401387 -0.15044540
v 0.26518815 0.58217338 -0.15054550
v 0.26505406 0.62399357 -0.15035165
v 0.29826224 0.62400211 -0.10321678
v 0.29834662 0.58234454 -0.10313910
v 0.29830300 0.62413268 -0.10309145
v 0.29830006 0.58211368 -0.10320020
v 0.32280327 0.62408270 -0.05095639
v 0.32280538 0.58235779 -0.05094144
v 0.32279337 0.62392145 -0.05093226
v 0.32264693 0.58228565 -0.05095194
v 0.33752419 0.62416244 0.00495898
v 0.33761913 0.58219133 0.00487751
v 0.33758438 0.62383113 0.00491509
v 0.33767962 0.58228237 0.00491979
v 0.34269183 0.58223014 0.06226390
v 0.34256285 0.62409803 0.06235635
v 0.34265611 0.58234685 0.06251413
v 0.34265095 0.62399863 0.06238527
v 0.33767977 0.62411680 0.11994053
v 0.33760223 0.58235952 0.12006612
v 0.33750097 0.62414685 0.11975365
v 0.33752199 0.58222917 0.11987027
v 0.32268112 0.58228604 0.17549287
v 0.32260365 0.62387115 0.17560443
v 0.32275108 0.58238116 0.17565894
v 0.32262765 0.62392084 0.17574302
v 0.29844633 0.62397603 0.22779054
v 0.29816703 0.58220278 0.22801234
v 0.29831317 0.62386487 0.22803305
v 0.29826265 0.58234047 0.22789209
v 0.26527616 0.62400280 0.27509039
v 0.26513468 0.58223840 0.27513875
v 0.26518699 0.62403635 0.27520324
v 0.26526511 0.58222016 0.27532994
v 0.22441351 0.62408206 0.31606403
v 0.22434121 0.58239080 0.31614706
v 0.22426424 0.62388946 0.31596416
v 0.22432896 0.58234731 0.31613570
v 0.17712349 0.62401360 0.34913205
v 0.17713766 0.58226918 0.34915639
v 0.17698963 0.58237226 0.34917603
v 0.17707280 0.62395069 0.34903715
v 0.12463565 0.58233279 0.37357477
v 0.12477235 0.62388841 0.37368895
v 0.12489307 0.58212979 0.37352549
v 0.12476452 0.62392041 0.37355534
v 0.06882428 0.58229059 0.38850887
v 0.06900132 0.62385805 0.38843085
v 0.06911025 0.58217539 0.38849121
v 0.06884858 0.62407661 0.38848049
v 0.01164275 0.62393603 0.39348941
v 0.01139144 0.58222493 0.39360849
v 0.01151707 0.58239299 0.39345475
v 0.01135301 0.62386747 0.39364235
v -0.04594667 0.58231033 0.38854239
v -0.04610158 0.62397503 0.38840559
v -0.04604391 0.58243808 0.38836845
v -0.04612654 0.62391428 0.38848244
v -0.10190967 0.62401310 0.37364066
v -0.10181571 0.58234588 0.37347608
v -0.10177566 0.58211385 0.37359236
v -0.10168757 0.62402735 0.37352573
v -0.15418260 0.62396540 0.34932158
v -0.15417574 0.58234839 0.34907472
v -0.15429399 0.58229882 0.34904894
v -0.15426292 0.62395240 0.34919901
v -0.20146873 0.58221664 0.31598539
v -0.20142211 0.62399728 0.31600541
v -0.20129188 0.58236284 0.31611719
v -0.20143748 0.62399903 0.31587933
v -0.24233971 0.62402146 0.27515133
v -0.24226894 0.58232127 0.27519507
v -0.24212339 0.58242662 0.27514038
v -0.24240452 0.62403126 0.27521544
v -0.27546938 0.58228620 0.22794028
v -0.27542730 0.62400530 0.22807012
v -0.27536758 0.62397814 0.22789991
v -0.27526870 0.58212483 0.22800792
v -0.29971073 0.62397264 0.17574127
v -0.29992254 0.58224826 0.17560483
v -0.29983448 0.58223440 0.17566002
v -0.29968741 0.62405387 0.17569038
v -0.31464914 0.58223284 0.11990519
v -0.31468785 0.62400465 0.11974144
v -0.31472174 0.62399800 0.12002443
v -0.31461372 0.58226431 0.12004138
v -0.31978468 0.62394446 0.06238450
v -0.31975147 0.58230406 0.06253283
v -0.31967972 0.58232013 0.06237394
v -0.31985739 0.62404812 0.06253555
v -0.31474078 0.62401340 0.00484592
v -0.31461545 0.58235400 0.00499080
v -0.31472835 0.58229181 0.00488830
v -0.31474831 0.62381024 0.00486305
v -0.29973852 0.58220179 -0.05073406
v -0.29973825 0.62391049 -0.05095867
v -0.29981987 0.62413215 -0.05077548
v -0.29991661 0.58225846 -0.05078122
v -0.27535529 0.58241796 -0.10312910
v -0.27533514 0.62394276 -0.10311486
v -0.27542659 0.62398486 -0.10316408
v -0.27524799 0.58214830 -0.10326422
v -0.24217267 0.58226171 -0.15042083
v -0.24224873 0.62402302 -0.15034528
v -0.24224170 0.62395849 -0.15045628
v -0.24228137 0.58217689 -0.15045840
v 0.33766694 0.62393205 0.00485320
v 0.33765642 0.62407781 0.11991681
v 0.34248486 0.62406993 0.06239376
v 0.32274655 0.62403922 -0.05092008
v 0.32272011 0.62403030 0.17566930
v 0.29810865 0.62394402 -0.10306745
v 0.30946275 0.62395386 0.06224627
v 0.30501492 0.62395008 0.01073335
v 0.29134609 0.62391410 -0.03946961
v 0.26530971 0.62398572 -0.15053650
v 0.26952538 0.62396455 -0.08648617
v 0.23964652 0.62411777 -0.12896979
v 0.22438038 0.62393284 -0.19117907
v 0.20293109 0.62384281 -0.16583531
v 0.17713507 0.62396006 -0.22441496
v 0.16041312 0.62401534 -0.19552591
v 0.12475425 0.62393821 -0.24887120
v 0.11331783 0.62388155 -0.21747750
v 0.06903336 0.62415933 -0.26372541
v 0.06333973 0.62407254 -0.23106038
v 0.01131124 0.62389419 -0.26874978
v 0.01138696 0.62400319 -0.23553733
v -0.04619048 0.62400204 -0.26382977
v -0.04027218 0.62393207 -0.23114730
v -0.09047420 0.62411297 -0.21750515
v -0.10188234 0.62391555 -0.24876254
v -0.13756537 0.62387602 -0.19564703
v -0.15410902 0.62390321 -0.22437876
v -0.18022203 0.62397964 -0.16588099
v -0.20140223 0.62391187 -0.19131562
v -0.21678823 0.62403261 -0.12917697
v -0.24219369 0.62388167 -0.15046664
v -0.24649662 0.62403715 -0.08650348
v -0.27539656 0.62387724 -0.10315299
v -0.26835588 0.62408839 -0.03949574
v -0.28190473 0.62397780 0.01051844
v -0.29980948 0.62397300 -0.05085503
v -0.28650031 0.62389844 0.06225646
v 0.29841904 0.62405713 0.22798999
v 0.30492145 0.62398657 0.11411898
v 0.29138489 0.62409629 0.16435972
v 0.26524093 0.62397778 0.27529912
v 0.26950181 0.62399083 0.21147597
v 0.23976909 0.62401247 0.25380313
v 0.22433695 0.62389603 0.31600547
v 0.20292299 0.62400009 0.29050845
v 0.17706240 0.62393630 0.34923468
v 0.16048461 0.62397614 0.32033948
v 0.12477600 0.62403398 0.37355194
v 0.11330479 0.62401756 0.34242533
v 0.06900361 0.62382845 0.38838036
v 0.06322093 0.62405287 0.35588118
v 0.01132755 0.62410338 0.39341190
v 0.01144260 0.62395091 0.36022773
v -0.04600003 0.62396983 0.38859022
v -0.04031044 0.62399889 0.35580616
v -0.09045102 0.62407817 0.34220607
v -0.10185029 0.62403503 0.37354397
v -0.13748657 0.62404607 0.32052634
v -0.15419776 0.62397790 0.34906952
v -0.18002742 0.62400001 0.29063866
v -0.20130898 0.62398109 0.31607600
v -0.21681304 0.62388386 0.25380108
v -0.24244926 0.62394045 0.27514347
v -0.24658852 0.62400825 0.21143048
v -0.27539658 0.62398560 0.22803370
v -0.26845910 0.62389158 0.16425187
v -0.28214074 0.62408366 0.11422571
v -0.29973590 0.62391318 0.17568844
v -0.31470795 0.62395475 0.00491768
v -0.31476018 0.62402347 0.11993233
v -0.31959114 0.62397466 0.06239836
v -0.31972338 0.62397310 0.06253260
v -0.31468138 0.62387748 0.00471461
v -0.31476035 0.62405013 0.11984547
v -0.29965885 0.62400710 0.17549766
v -0.29972528 0.62387042 -0.05078965
v -0.28657262 0.62389412 0.06236775
v -0.28192835 0.62408180 0.11396011
v -0.27537568 0.62393107 0.22803515
v -0.26837850 0.62392529 0.16442847
v -0.24665818 0.62396969 0.21135220
v -0.24227484 0.62399932 0.27529788
v -0.21687534 0.62395754 0.25391821
v -0.20143442 0.62400781 0.31606632
v -0.18004898 0.62399105 0.29051884
v -0.15428159 0.62401203 0.34919051
v -0.13749098 0.62389233 0.32049169
v -0.10162983 0.62407144 0.37342910
v -0.09046365 0.62396556 0.34246414
v -0.04600341 0.62403597 0.38846307
v -0.04022630 0.62385714 0.35570167
v 0.01132100 0.62397830 0.36032134
v 0.01139864 0.62401307 0.39350259
v 0.06323761 0.62407282 0.35580240
v 0.06889543 0.62406398 0.38844520
v 0.11332475 0.62397047 0.34226993
v 0.12470735 0.62391205 0.37353220
v 0.16039634 0.62397444 0.32038420
v 0.17698020 0.62402935 0.34903570
v 0.20300352 0.62391025 0.29060533
v 0.22428536 0.62379646 0.31615227
v 0.23971553 0.62413776 0.25386167
v 0.26516508 0.62383814 0.27525499
v 0.26955522 0.62404264 0.21133727
v 0.29150895 0.62398262 0.16430155
v 0.29818306 0.62396656 0.22795488
v 0.30474723 0.62410347 0.11410553
v 0.30946128 0.62392661 0.06245912
v 0.32260737 0.62411534 0.17567734
v -0.28189223 0.62393778 0.01067193
v -0.27533699 0.62391873 -0.10321709
v -0.26850891 0.62400498 -0.03947521
v -0.24655018 0.62398116 -0.08647617
v -0.24228294 0.62397196 -0.15064819
v -0.21683449 0.62402945 -0.12893521
v -0.20133237 0.62399673 -0.19123968
v -0.18016321 0.62388556 -0.16570331
v -0.15421469 0.62405182 -0.22422100
v -0.13737208 0.62394718 -0.19573791
v -0.10177824 0.62403285 -0.24865704
v -0.09058452 0.62390565 -0.21752418
v -0.04598656 0.62399805 -0.26378279
v -0.04029827 0.62405002 -0.23084442
v 0.01162551 0.62383058 -0.23562852
v 0.01148798 0.62393743 -0.26873906
v 0.06328109 0.62401298 -0.23106301
v 0.06886966 0.62389387 -0.26366140
v 0.11346945 0.62400194 -0.21755212
v 0.12468145 0.62404344 -0.24887091
v 0.16049847 0.62392405 -0.19551528
v 0.17697128 0.62416073 -0.22438433
v 0.20294290 0.62394635 -0.16572215
v 0.22447375 0.62396399 -0.19127074
v 0.23959917 0.62394436 -0.12924282
v 0.26519813 0.62406072 -0.15051359
v 0.26936095 0.62387735 -0.08654122
v 0.29140530 0.62412558 -0.03940656
v 0.29829886 0.62412663 -0.10321697
v 0.30486379 0.62402415 0.01065276
v 0.32268650 0.62393296 -0.05087505
v 0.33750549 0.62406249 0.11996207
v 0.33765810 0.62395053 0.00488215
v 0.34267530 0.62398072 0.06240664
vt -1.402375 0.02372643
vt -1.992641 0.02372643
vt -1.697508 -0.002094345
vt -1.11621 0.1004042
vt -2.278806 0.1004042
vt -2.547309 0.2256092
vt -0.8477068 0.2256092
vt -1.697508 0.2538198
vt -1.446814 0.2757527
vt -0.6050246 0.395537
vt -1.203738 0.3408849
vt -0.9756639 0.4472374
vt -0.395537 0.6050246
vt -0.7695231 0.5915787
vt -0.5915787 0.7695231
vt -0.2256092 0.8477068
vt -0.4472374 0.9756639
vt -0.1004042 1.11621
vt -0.3408849 1.203738
vt -0.02372643 1.402375
vt -0.2757527 1.446814
vt 0.002094345 1.697508
vt -0.2538198 1.697508
vt -0.2757527 1.948202
vt -0.02372643 1.992641
vt -0.3408849 2.191278
vt -0.1004042 2.278806
vt -0.4472374 2.419352
vt -0.2256092 2.547309
vt -0.5915787 2.625493
vt -0.395537 2.789991
vt -0.7695231 2.803437
vt -0.6050246 2.999479
vt -0.9756639 2.947778
vt -1.203738 3.054131
vt -0.8477068 3.169407
vt -1.446814 3.119263
vt -1.697508 3.141196
vt -2.547309 3.169407
vt -2.278806 3.294612
vt -1.11621 3.294612
vt -1.402375 3.371289
vt -1.992641 3.371289
vt -1.697508 3.39711
vt -1.948202 0.2757527
vt -2.789991 0.395537
vt -2.191278 0.3408849
vt -2.419352 0.4472374
vt -2.999479 0.6050246
vt -2.625493 0.5915787
vt -2.803437 0.7695231
vt -3.169407 0.8477068
vt -2.947778 0.9756639
vt -3.294612 1.11621
vt -3.054131 1.203738
vt -3.371289 1.402375
vt -3.119263 1.446814
vt -3.39711 1.697508
vt -3.141196 1.697508
vt -3.371289 1.992641
vt -3.119263 1.948202
vt -3.054131 2.191278
vt -3.294612 2.278806
vt -2.947778 2.419352
vt -3.169407 2.547309
vt -2.803437 2.625493
vt -2.999479 2.789991
vt -2.625493 2.803437
vt -2.789991 2.999479
vt -2.419352 2.947778
vt -2.191278 3.054131
vt -1.948202 3.119263
vt -0.1228785 0.2687364
vt -0.4249006 0.5649966
vt -0.4249006 0.2687364
vt -0.1228785 0.5649966
vt -0.1228785 0.6729367
vt -0.4249006 0.9691969
vt -0.4249006 0.6729367
vt -0.1228785 0.9691969
vt -0.1228785 1.052189
vt -0.4249006 1.348449
vt -0.4249006 1.052189
vt -0.1228785 1.348449
vt -0.4249006 1.394971
vt -0.1228785 1.691231
vt -0.4249006 1.691231
vt -0.1228785 1.394971
vt -0.4249006 1.690866
vt -0.1228785 1.987126
vt -0.4249006 1.987126
vt -0.1228785 1.690866
vt -0.4249006 1.930884
vt -0.1228785 2.227144
vt -0.4249006 2.227144
vt -0.1228785 1.930884
vt -0.4249006 2.107732
vt -0.1228785 2.403993
vt -0.4249006 2.403993
vt -0.1228785 2.107732
vt -0.1228785 2.216038
vt -0.4249006 2.512298
vt -0.4249006 2.216038
vt -0.1228785 2.512298
vt -0.1228785 2.252509
vt -0.4249006 2.548769
vt -0.4249006 2.252509
vt -0.1228785 2.548769
vt 0.1228785 -1.691231
vt 0.4249006 -1.394971
vt 0.1228785 -1.394971
vt 0.4249006 -1.691231
vt 0.1228785 -1.052189
vt 0.4249006 -1.348449
vt 0.4249006 -1.052189
vt 0.1228785 -1.348449
vt 0.1228785 -0.9691969
vt 0.4249006 -0.6729367
vt 0.1228785 -0.6729367
vt 0.4249006 -0.9691969
vt 0.1228785 -0.5649966
vt 0.4249006 -0.2687364
vt 0.1228785 -0.2687364
vt 0.4249006 -0.5649966
vt 0.1228785 -0.1481301
vt 0.4249006 0.1481301
vt 0.1228785 0.1481301
vt 0.4249006 -0.1481301
vt 0.4249006 0.5649966
vt 0.1228785 0.2687364
vt 0.4249006 0.2687364
vt 0.1228785 0.5649966
vt 0.1228785 0.9691969
vt 0.4249006 0.6729367
vt 0.4249006 0.9691969
vt 0.1228785 0.6729367
vt 0.1228785 1.348449
vt 0.4249006 1.052189
vt 0.4249006 1.348449
vt 0.1228785 1.052189
vt 0.4249006 1.691231
vt 0.1228785 1.394971
vt 0.4249006 1.394971
vt 0.1228785 1.691231
vt 0.1228785 1.987126
vt 0.4249006 1.690866
vt 0.4249006 1.987126
vt 0.1228785 1.690866
vt 0.4249006 2.227144
vt 0.1228785 1.930884
vt 0.4249006 1.930884
vt 0.1228785 2.227144
vt 0.4249006 2.403993
vt 0.1228785 2.107732
vt 0.4249006 2.107732
vt 0.1228785 2.403993
vt 0.1228785 2.512298
vt 0.4249006 2.216038
vt 0.4249006 2.512298
vt 0.1228785 2.216038
vt 0.4249006 2.548769
vt 0.1228785 2.252509
vt 0.4249006 2.252509
vt 0.1228785 2.548769
vt -0.4249006 -1.691231
vt -0.1228785 -1.394971
vt -0.4249006 -1.394971
vt -0.1228785 -1.691231
vt -0.4249006 -1.052189
vt -0.1228785 -1.348449
vt -0.1228785 -1.052189
vt -0.4249006 -1.348449
vt -0.4249006 -0.6729367
vt -0.1228785 -0.9691969
vt -0.1228785 -0.6729367
vt -0.4249006 -0.9691969
vt -0.4249006 -0.2687364
vt -0.1228785 -0.5649966
vt -0.1228785 -0.2687364
vt -0.4249006 -0.5649966
vt -0.4249006 0.1481301
vt -0.1228785 -0.1481301
vt -0.1228785 0.1481301
vt -0.4249006 -0.1481301
vt 1.992641 0.02372643
vt 1.402375 0.02372643
vt 1.697508 -0.002094345
vt 2.278806 0.1004042
vt 1.11621 0.1004042
vt 2.547309 0.2256092
vt 1.697508 0.1685151
vt 1.963015 0.1917439
vt 2.220454 0.2607246
vt 2.789991 0.395537
vt 2.462004 0.3733613
vt 2.680326 0.5262315
vt 2.999479 0.6050246
vt 2.868784 0.7146903
vt 3.169407 0.8477068
vt 3.021655 0.9330115
vt 3.294612 1.11621
vt 3.134291 1.174562
vt 3.371289 1.402375
vt 3.203272 1.432001
vt 3.39711 1.697508
vt 3.226501 1.697508
vt 3.371289 1.992641
vt 3.203272 1.963015
vt 3.134291 2.220454
vt 3.294612 2.278806
vt 3.021655 2.462004
vt 3.169407 2.547309
vt 2.868784 2.680326
vt 2.999479 2.789991
vt 2.680326 2.868784
vt 2.789991 2.999479
vt 2.462004 3.021655
vt 2.547309 3.169407
vt 2.220454 3.134291
vt 1.963015 3.203272
vt 2.278806 3.294612
vt 1.697508 3.226501
vt 0.8477068 0.2256092
vt 1.432001 0.1917439
vt 1.174562 0.2607246
vt 0.6050246 0.395537
vt 0.9330115 0.3733613
vt 0.7146903 0.5262315
vt 0.395537 0.6050246
vt 0.5262315 0.7146903
vt 0.2256092 0.8477068
vt 0.3733613 0.9330115
vt 0.1004042 1.11621
vt 0.2607246 1.174562
vt 0.02372643 1.402375
vt 0.1917439 1.432001
vt -0.002094345 1.697508
vt 0.1685151 1.697508
vt 0.02372643 1.992641
vt 0.1917439 1.963015
vt 0.2607246 2.220454
vt 0.1004042 2.278806
vt 0.3733613 2.462004
vt 0.2256092 2.547309
vt 0.5262315 2.680326
vt 0.395537 2.789991
vt 0.7146903 2.868784
vt 0.6050246 2.999479
vt 0.9330115 3.021655
vt 0.8477068 3.169407
vt 1.174562 3.134291
vt 1.432001 3.203272
vt 1.11621 3.294612
vt 1.992641 3.371289
vt 1.402375 3.371289
vt 1.697508 3.39711
vn 0 -1 3.597457247587585e-8
vn 0 1 -3.597457247587585e-8
vn -0.49991459647473363 -3.115666057415697e-8 -0.8660747059183193
vn -0.6427017134977455 -2.7560708409432146e-8 -0.7661165103736254
vn 0.6427017134977455 2.7560708409432146e-8 0.7661165103736254
vn 0.49991459647473363 3.115666057415697e-8 0.8660747059183193
vn -0.3419513326599937 -3.38059334880928e-8 -0.939717662966943
vn 0.3419513326599937 3.38059334880928e-8 0.939717662966943
vn -0.17360983881326192 -3.54282726187958e-8 -0.98481451241705
vn 0.17360983881326192 3.54282726187958e-8 0.98481451241705
vn 0 -3.597456355031162e-8 -1
vn 0 3.597456355031162e-8 1
vn 0.17360983881326442 -3.5428271905636856e-8 -0.9848145124170496
vn -0.17360983881326442 3.5428271905636856e-8 0.9848145124170496
vn 0.3419513326599958 -3.380593208341643e-8 -0.9397176629669423
vn -0.3419513326599958 3.380593208341643e-8 0.9397176629669423
vn 0.499914596474735 -3.1156658520595094e-8 -0.8660747059183184
vn -0.499914596474735 3.1156658520595094e-8 0.8660747059183184
vn 0.6427017134977463 -2.756070576932578e-8 -0.7661165103736246
vn -0.6427017134977463 2.756070576932578e-8 0.7661165103736246
vn 0.7659723372868533 -2.3127093168724055e-8 -0.6428735322840057
vn -0.7659723372868533 2.3127093168724055e-8 0.6428735322840057
vn 0.8659760857201486 -1.799035264391075e-8 -0.500085411665657
vn -0.8659760857201486 1.799035264391075e-8 0.500085411665657
vn 0.9396675921882843 -1.2306496979079395e-8 -0.3420889010053851
vn -0.9396675921882843 1.2306496979079395e-8 0.3420889010053851
vn 0.9848009858613376 -6.248295869799216e-9 -0.1736865517146833
vn -0.9848009858613376 6.248295869799216e-9 0.1736865517146833
vn 1 0 0
vn -1 0 0
vn 0.984800985861338 6.24829991518947e-9 0.1736865517146821
vn -0.984800985861338 -6.24829991518947e-9 -0.1736865517146821
vn 0.9396675921882846 1.2306500839069575e-8 0.3420889010053843
vn -0.9396675921882846 -1.2306500839069575e-8 -0.3420889010053843
vn 0.8659760857201488 1.799035620118912e-8 0.5000854116656567
vn -0.8659760857201488 -1.799035620118912e-8 -0.5000854116656567
vn 0.765972337286853 2.312709631520452e-8 0.6428735322840059
vn -0.765972337286853 -2.312709631520452e-8 -0.6428735322840059
vn 0.6427017134977455 2.756070840943213e-8 0.7661165103736254
vn -0.6427017134977455 -2.756070840943213e-8 -0.7661165103736254
vn 0.49991459647473363 3.115666057415695e-8 0.8660747059183193
vn -0.49991459647473363 -3.115666057415695e-8 -0.8660747059183193
vn 0.3419513326599937 3.380593348809279e-8 0.939717662966943
vn -0.3419513326599937 -3.380593348809279e-8 -0.939717662966943
vn 0 3.597456355031161e-8 1
vn 0 -3.597456355031161e-8 -1
vn -0.17360983881326442 3.542827190563686e-8 0.9848145124170496
vn 0.17360983881326442 -3.542827190563686e-8 -0.9848145124170496
vn -0.3419513326599958 3.380593208341644e-8 0.9397176629669423
vn 0.3419513326599958 -3.380593208341644e-8 -0.9397176629669423
vn -0.499914596474735 3.115665852059509e-8 0.8660747059183184
vn 0.499914596474735 -3.115665852059509e-8 -0.8660747059183184
vn -0.984800985861338 -6.248299915189466e-9 -0.1736865517146821
vn 0.984800985861338 6.248299915189466e-9 0.1736865517146821
vn -0.9396675921882846 -1.2306500839069564e-8 -0.3420889010053843
vn 0.9396675921882846 1.2306500839069564e-8 0.3420889010053843
vn -0.8659760857201488 -1.7990356201189107e-8 -0.5000854116656567
vn 0.8659760857201488 1.7990356201189107e-8 0.5000854116656567
vn -0.765972337286853 -2.3127096315204518e-8 -0.6428735322840059
vn 0.765972337286853 2.3127096315204518e-8 0.6428735322840059
vn 0 1 -3.597456166309494e-8
vn 0 -1 3.597456166309494e-8
usemtl material_0_0
f 1/1/1 2/2/1 3/3/1
f 2/2/1 1/1/1 4/4/1
f 2/2/1 4/4/1 5/5/1
f 5/5/1 4/4/1 6/6/1
f 6/6/1 4/4/1 7/7/1
f 6/6/1 7/7/1 8/8/1
f 8/8/1 7/7/1 9/9/1
f 9/9/1 7/7/1 10/10/1
f 9/9/1 10/10/1 11/11/1
f 11/11/1 10/10/1 12/12/1
f 12/12/1 10/10/1 13/13/1
f 12/12/1 13/13/1 14/14/1
f 14/14/1 13/13/1 15/15/1
f 15/15/1 13/13/1 16/16/1
f 15/15/1 16/16/1 17/17/1
f 17/17/1 16/16/1 18/18/1
f 17/17/1 18/18/1 19/19/1
f 19/19/1 18/18/1 20/20/1
f 19/19/1 20/20/1 21/21/1
f 21/21/1 20/20/1 22/22/1
f 21/21/1 22/22/1 23/23/1
f 23/23/1 22/22/1 24/24/1
f 24/24/1 22/22/1 25/25/1
f 24/24/1 25/25/1 26/26/1
f 26/26/1 25/25/1 27/27/1
f 26/26/1 27/27/1 28/28/1
f 28/28/1 27/27/1 29/29/1
f 28/28/1 29/29/1 30/30/1
f 30/30/1 29/29/1 31/31/1
f 30/30/1 31/31/1 32/32/1
f 32/32/1 31/31/1 33/33/1
f 32/32/1 33/33/1 34/34/1
f 34/34/1 33/33/1 35/35/1
f 35/35/1 33/33/1 36/36/1
f 35/35/1 36/36/1 37/37/1
f 37/37/1 36/36/1 38/38/1
f 38/38/1 36/36/1 39/39/1
f 39/39/1 36/36/1 40/40/1
f 40/40/1 36/36/1 41/41/1
f 40/40/1 41/41/1 42/42/1
f 40/40/1 42/42/1 43/43/1
f 43/43/1 42/42/1 44/44/1
f 6/6/1 45/45/1 46/46/1
f 45/45/1 6/6/1 8/8/1
f 46/46/1 45/45/1 47/47/1
f 46/46/1 47/47/1 48/48/1
f 46/46/1 48/48/1 49/49/1
f 49/49/1 48/48/1 50/50/1
f 49/49/1 50/50/1 51/51/1
f 49/49/1 51/51/1 52/52/1
f 52/52/1 51/51/1 53/53/1
f 52/52/1 53/53/1 54/54/1
f 54/54/1 53/53/1 55/55/1
f 54/54/1 55/55/1 56/56/1
f 56/56/1 55/55/1 57/57/1
f 56/56/1 57/57/1 58/58/1
f 58/58/1 57/57/1 59/59/1
f 58/58/1 59/59/1 60/60/1
f 60/60/1 59/59/1 61/61/1
f 60/60/1 61/61/1 62/62/1
f 60/60/1 62/62/1 63/63/1
f 63/63/1 62/62/1 64/64/1
f 63/63/1 64/64/1 65/65/1
f 65/65/1 64/64/1 66/66/1
f 65/65/1 66/66/1 67/67/1
f 67/67/1 66/66/1 68/68/1
f 67/67/1 68/68/1 69/69/1
f 69/69/1 68/68/1 70/70/1
f 69/69/1 70/70/1 71/71/1
f 69/69/1 71/71/1 39/39/1
f 39/39/1 71/71/1 72/72/1
f 39/39/1 72/72/1 38/38/1
f 73/38/2 74/72/2 75/39/2
f 74/72/2 76/71/2 75/39/2
f 75/39/2 76/71/2 77/69/2
f 76/71/2 78/70/2 77/69/2
f 78/70/2 79/68/2 77/69/2
f 77/69/2 79/68/2 80/67/2
f 79/68/2 81/66/2 80/67/2
f 80/67/2 81/66/2 82/65/2
f 81/66/2 83/64/2 82/65/2
f 82/65/2 83/64/2 84/63/2
f 83/64/2 85/62/2 84/63/2
f 84/63/2 85/62/2 86/60/2
f 85/62/2 87/61/2 86/60/2
f 87/61/2 88/59/2 86/60/2
f 86/60/2 88/59/2 89/58/2
f 88/59/2 90/57/2 89/58/2
f 89/58/2 90/57/2 91/56/2
f 90/57/2 92/55/2 91/56/2
f 91/56/2 92/55/2 93/54/2
f 92/55/2 94/53/2 93/54/2
f 93/54/2 94/53/2 95/52/2
f 94/53/2 96/51/2 95/52/2
f 95/52/2 96/51/2 97/49/2
f 96/51/2 98/50/2 97/49/2
f 98/50/2 99/48/2 97/49/2
f 97/49/2 99/48/2 100/46/2
f 99/48/2 101/47/2 100/46/2
f 101/47/2 102/45/2 100/46/2
f 103/8/2 104/6/2 102/45/2
f 100/46/2 102/45/2 104/6/2
f 105/44/2 106/42/2 107/43/2
f 107/43/2 106/42/2 108/40/2
f 106/42/2 109/41/2 108/40/2
f 109/41/2 110/36/2 108/40/2
f 108/40/2 110/36/2 75/39/2
f 75/39/2 110/36/2 73/38/2
f 73/38/2 110/36/2 111/37/2
f 111/37/2 110/36/2 112/35/2
f 110/36/2 113/33/2 112/35/2
f 112/35/2 113/33/2 114/34/2
f 114/34/2 113/33/2 115/32/2
f 113/33/2 116/31/2 115/32/2
f 115/32/2 116/31/2 117/30/2
f 116/31/2 118/29/2 117/30/2
f 117/30/2 118/29/2 119/28/2
f 118/29/2 120/27/2 119/28/2
f 119/28/2 120/27/2 121/26/2
f 120/27/2 122/25/2 121/26/2
f 121/26/2 122/25/2 123/24/2
f 122/25/2 124/22/2 123/24/2
f 123/24/2 124/22/2 125/23/2
f 125/23/2 124/22/2 126/21/2
f 124/22/2 127/20/2 126/21/2
f 126/21/2 127/20/2 128/19/2
f 127/20/2 129/18/2 128/19/2
f 128/19/2 129/18/2 130/17/2
f 129/18/2 131/16/2 130/17/2
f 130/17/2 131/16/2 132/15/2
f 131/16/2 133/13/2 132/15/2
f 132/15/2 133/13/2 134/14/2
f 134/14/2 133/13/2 135/12/2
f 133/13/2 136/10/2 135/12/2
f 135/12/2 136/10/2 137/11/2
f 137/11/2 136/10/2 138/9/2
f 136/10/2 139/7/2 138/9/2
f 138/9/2 139/7/2 103/8/2
f 103/8/2 139/7/2 104/6/2
f 139/7/2 140/4/2 104/6/2
f 104/6/2 140/4/2 141/5/2
f 141/5/2 140/4/2 142/2/2
f 140/4/2 143/1/2 142/2/2
f 144/3/2 142/2/2 143/1/2
f 145/73/3 146/74/4 147/75/3
f 146/74/4 145/73/3 148/76/4
f 149/76/5 150/73/6 151/74/5
f 152/75/6 151/74/5 150/73/6
f 153/77/7 147/78/3 154/79/7
f 147/78/3 153/77/7 145/80/3
f 150/80/6 155/77/8 152/78/6
f 156/79/8 152/78/6 155/77/8
f 157/81/9 154/82/7 158/83/9
f 154/82/7 157/81/9 153/84/7
f 155/84/8 159/81/10 156/82/8
f 160/83/10 156/82/8 159/81/10
f 161/85/11 157/86/9 158/87/9
f 157/86/9 161/85/11 162/88/11
f 163/88/12 164/85/12 159/86/10
f 160/87/10 159/86/10 164/85/12
f 165/89/13 162/90/11 161/91/11
f 162/90/11 165/89/13 166/92/13
f 167/92/14 168/89/14 163/90/12
f 164/91/12 163/90/12 168/89/14
f 169/93/15 166/94/13 165/95/13
f 166/94/13 169/93/15 170/96/15
f 171/96/16 172/93/16 167/94/14
f 168/95/14 167/94/14 172/93/16
f 173/97/17 170/98/15 169/99/15
f 170/98/15 173/97/17 174/100/17
f 175/100/18 176/97/18 171/98/16
f 172/99/16 171/98/16 176/97/18
f 177/101/19 173/102/17 178/103/19
f 173/102/17 177/101/19 174/104/17
f 175/104/18 179/101/20 176/102/18
f 180/103/20 176/102/18 179/101/20
f 181/105/21 178/106/19 182/107/21
f 178/106/19 181/105/21 177/108/19
f 179/108/20 183/105/22 180/106/20
f 184/107/22 180/106/20 183/105/22
f 181/104/21 185/103/23 186/101/23
f 185/103/23 181/104/21 182/102/21
f 184/102/22 183/104/22 187/103/24
f 188/101/24 187/103/24 183/104/22
f 186/98/23 189/97/25 190/100/25
f 189/97/25 186/98/23 185/99/23
f 187/99/24 188/98/24 191/97/26
f 192/100/26 191/97/26 188/98/24
f 190/94/25 193/93/27 194/96/27
f 193/93/27 190/94/25 189/95/25
f 191/95/26 192/94/26 195/93/28
f 196/96/28 195/93/28 192/94/26
f 197/92/29 193/91/27 198/89/29
f 193/91/27 197/92/29 194/90/27
f 196/90/28 199/92/30 195/91/28
f 200/89/30 195/91/28 199/92/30
f 197/109/29 201/110/31 202/111/31
f 201/110/31 197/109/29 198/112/29
f 200/112/30 199/109/30 203/110/32
f 204/111/32 203/110/32 199/109/30
f 205/113/33 201/114/31 206/115/33
f 201/114/31 205/113/33 202/116/31
f 204/116/32 207/113/34 203/114/32
f 208/115/34 203/114/32 207/113/34
f 205/117/33 209/118/35 210/119/35
f 209/118/35 205/117/33 206/120/33
f 208/120/34 207/117/34 211/118/36
f 212/119/36 211/118/36 207/117/34
f 210/121/35 213/122/37 214/123/37
f 213/122/37 210/121/35 209/124/35
f 211/124/36 212/121/36 215/122/38
f 216/123/38 215/122/38 212/121/36
f 214/125/37 217/126/39 218/127/39
f 217/126/39 214/125/37 213/128/37
f 215/128/38 216/125/38 219/126/40
f 220/127/40 219/126/40 216/125/38
f 221/129/41 218/130/39 217/131/39
f 218/130/39 221/129/41 222/132/41
f 223/132/42 224/129/42 220/130/40
f 219/131/40 220/130/40 224/129/42
f 225/133/43 221/134/41 226/135/43
f 221/134/41 225/133/43 222/136/41
f 223/136/42 227/133/44 224/134/42
f 228/135/44 224/134/42 227/133/44
f 229/137/10 226/138/43 230/139/10
f 226/138/43 229/137/10 225/140/43
f 227/140/44 231/137/9 228/138/44
f 232/139/9 228/138/44 231/137/9
f 233/141/45 229/142/10 230/143/10
f 229/142/10 233/141/45 234/144/45
f 235/144/46 236/141/46 231/142/9
f 232/143/9 231/142/9 236/141/46
f 237/145/47 233/146/45 238/147/47
f 233/146/45 237/145/47 234/148/45
f 235/148/46 239/145/48 236/146/46
f 240/147/48 236/146/46 239/145/48
f 241/149/49 237/150/47 238/151/47
f 237/150/47 241/149/49 242/152/49
f 243/152/50 244/149/50 239/150/48
f 240/151/48 239/150/48 244/149/50
f 245/153/51 242/154/49 241/155/49
f 242/154/49 245/153/51 246/156/51
f 247/156/52 248/153/52 243/154/50
f 244/155/50 243/154/50 248/153/52
f 249/157/20 245/158/51 250/159/20
f 245/158/51 249/157/20 246/160/51
f 247/160/52 251/157/19 248/158/52
f 252/159/19 248/158/52 251/157/19
f 253/161/22 249/162/20 250/163/20
f 249/162/20 253/161/22 254/164/22
f 255/164/21 256/161/21 251/162/19
f 252/163/19 251/162/19 256/161/21
f 253/158/22 257/157/24 254/160/22
f 257/157/24 253/158/22 258/159/24
f 259/159/23 256/158/21 260/157/23
f 255/160/21 260/157/23 256/158/21
f 261/153/26 257/154/24 258/155/24
f 257/154/24 261/153/26 262/156/26
f 263/156/25 264/153/25 260/154/23
f 259/155/23 260/154/23 264/153/25
f 261/151/26 265/152/28 262/150/26
f 265/152/28 261/151/26 266/149/28
f 267/149/27 264/151/25 268/152/27
f 263/150/25 268/152/27 264/151/25
f 269/147/30 265/148/28 266/146/28
f 265/148/28 269/147/30 270/145/30
f 271/145/29 272/147/29 268/148/27
f 267/146/27 268/148/27 272/147/29
f 273/165/53 270/166/30 269/167/30
f 270/166/30 273/165/53 274/168/53
f 275/168/54 276/165/54 271/166/29
f 272/167/29 271/166/29 276/165/54
f 273/169/53 277/170/55 274/171/53
f 277/170/55 273/169/53 278/172/55
f 279/172/56 276/169/54 280/170/56
f 275/171/54 280/170/56 276/169/54
f 278/173/55 281/174/57 277/175/55
f 281/174/57 278/173/55 282/176/57
f 283/176/58 279/173/56 284/174/58
f 280/175/56 284/174/58 279/173/56
f 282/177/57 285/178/59 281/179/57
f 285/178/59 282/177/57 286/180/59
f 287/180/60 283/177/58 288/178/60
f 284/179/58 288/178/60 283/177/58
f 286/181/59 148/182/4 285/183/59
f 148/182/4 286/181/59 146/184/4
f 151/184/5 287/181/60 149/182/5
f 288/183/60 149/182/5 287/181/60
f 289/185/61 290/186/61 291/187/61
f 290/186/61 289/185/61 292/188/61
f 290/186/61 292/188/61 293/189/61
f 293/189/61 292/188/61 294/190/61
f 293/189/61 294/190/61 295/191/61
f 295/191/61 294/190/61 296/192/61
f 296/192/61 294/190/61 297/193/61
f 297/193/61 294/190/61 298/194/61
f 297/193/61 298/194/61 299/195/61
f 299/195/61 298/194/61 300/196/61
f 300/196/61 298/194/61 301/197/61
f 300/196/61 301/197/61 302/198/61
f 302/198/61 301/197/61 303/199/61
f 302/198/61 303/199/61 304/200/61
f 304/200/61 303/199/61 305/201/61
f 304/200/61 305/201/61 306/202/61
f 306/202/61 305/201/61 307/203/61
f 306/202/61 307/203/61 308/204/61
f 308/204/61 307/203/61 309/205/61
f 308/204/61 309/205/61 310/206/61
f 310/206/61 309/205/61 311/207/61
f 310/206/61 311/207/61 312/208/61
f 312/208/61 311/207/61 313/209/61
f 313/209/61 311/207/61 314/210/61
f 313/209/61 314/210/61 315/211/61
f 315/211/61 314/210/61 316/212/61
f 315/211/61 316/212/61 317/213/61
f 317/213/61 316/212/61 318/214/61
f 317/213/61 318/214/61 319/215/61
f 319/215/61 318/214/61 320/216/61
f 319/215/61 320/216/61 321/217/61
f 321/217/61 320/216/61 322/218/61
f 321/217/61 322/218/61 323/219/61
f 323/219/61 322/218/61 324/220/61
f 324/220/61 322/218/61 325/221/61
f 324/220/61 325/221/61 326/222/61
f 295/191/61 327/223/61 293/189/61
f 327/223/61 295/191/61 328/224/61
f 327/223/61 328/224/61 329/225/61
f 327/223/61 329/225/61 330/226/61
f 330/226/61 329/225/61 331/227/61
f 330/226/61 331/227/61 332/228/61
f 330/226/61 332/228/61 333/229/61
f 333/229/61 332/228/61 334/230/61
f 333/229/61 334/230/61 335/231/61
f 335/231/61 334/230/61 336/232/61
f 335/231/61 336/232/61 337/233/61
f 337/233/61 336/232/61 338/234/61
f 337/233/61 338/234/61 339/235/61
f 339/235/61 338/234/61 340/236/61
f 339/235/61 340/236/61 341/237/61
f 341/237/61 340/236/61 342/238/61
f 341/237/61 342/238/61 343/239/61
f 343/239/61 342/238/61 344/240/61
f 343/239/61 344/240/61 345/241/61
f 343/239/61 345/241/61 346/242/61
f 346/242/61 345/241/61 347/243/61
f 346/242/61 347/243/61 348/244/61
f 348/244/61 347/243/61 349/245/61
f 348/244/61 349/245/61 350/246/61
f 350/246/61 349/245/61 351/247/61
f 350/246/61 351/247/61 352/248/61
f 352/248/61 351/247/61 353/249/61
f 352/248/61 353/249/61 354/250/61
f 354/250/61 353/249/61 355/251/61
f 354/250/61 355/251/61 356/252/61
f 354/250/61 356/252/61 357/253/61
f 357/253/61 356/252/61 326/222/61
f 357/253/61 326/222/61 325/221/61
f 357/253/61 325/221/61 358/254/61
f 357/253/61 358/254/61 359/255/61
f 359/255/61 358/254/61 360/256/61
f 361/256/62 362/254/62 363/255/62
f 363/255/62 362/254/62 364/253/62
f 362/254/62 365/221/62 364/253/62
f 365/221/62 366/222/62 364/253/62
f 366/222/62 367/252/62 364/253/62
f 364/253/62 367/252/62 368/250/62
f 367/252/62 369/251/62 368/250/62
f 369/251/62 370/249/62 368/250/62
f 368/250/62 370/249/62 371/248/62
f 370/249/62 372/247/62 371/248/62
f 371/248/62 372/247/62 373/246/62
f 372/247/62 374/245/62 373/246/62
f 373/246/62 374/245/62 375/244/62
f 374/245/62 376/243/62 375/244/62
f 375/244/62 376/243/62 377/242/62
f 376/243/62 378/241/62 377/242/62
f 377/242/62 378/241/62 379/239/62
f 378/241/62 380/240/62 379/239/62
f 380/240/62 381/238/62 379/239/62
f 379/239/62 381/238/62 382/237/62
f 381/238/62 383/236/62 382/237/62
f 382/237/62 383/236/62 384/235/62
f 383/236/62 385/234/62 384/235/62
f 384/235/62 385/234/62 386/233/62
f 385/234/62 387/232/62 386/233/62
f 386/233/62 387/232/62 388/231/62
f 387/232/62 389/230/62 388/231/62
f 388/231/62 389/230/62 390/229/62
f 389/230/62 391/228/62 390/229/62
f 390/229/62 391/228/62 392/226/62
f 391/228/62 393/227/62 392/226/62
f 393/227/62 394/225/62 392/226/62
f 392/226/62 394/225/62 395/223/62
f 394/225/62 396/224/62 395/223/62
f 396/224/62 397/191/62 395/223/62
f 398/189/62 395/223/62 397/191/62
f 366/222/62 365/221/62 399/220/62
f 365/221/62 400/218/62 399/220/62
f 399/220/62 400/218/62 401/219/62
f 401/219/62 400/218/62 402/217/62
f 400/218/62 403/216/62 402/217/62
f 402/217/62 403/216/62 404/215/62
f 403/216/62 405/214/62 404/215/62
f 404/215/62 405/214/62 406/213/62
f 405/214/62 407/212/62 406/213/62
f 406/213/62 407/212/62 408/211/62
f 407/212/62 409/210/62 408/211/62
f 408/211/62 409/210/62 410/209/62
f 409/210/62 411/207/62 410/209/62
f 410/209/62 411/207/62 412/208/62
f 412/208/62 411/207/62 413/206/62
f 411/207/62 414/205/62 413/206/62
f 413/206/62 414/205/62 415/204/62
f 414/205/62 416/203/62 415/204/62
f 415/204/62 416/203/62 417/202/62
f 416/203/62 418/201/62 417/202/62
f 417/202/62 418/201/62 419/200/62
f 418/201/62 420/199/62 419/200/62
f 419/200/62 420/199/62 421/198/62
f 420/199/62 422/197/62 421/198/62
f 421/198/62 422/197/62 423/196/62
f 422/197/62 424/194/62 423/196/62
f 423/196/62 424/194/62 425/195/62
f 425/195/62 424/194/62 426/193/62
f 424/194/62 427/190/62 426/193/62
f 426/193/62 427/190/62 428/192/62
f 428/192/62 427/190/62 397/191/62
f 397/191/62 427/190/62 398/189/62
f 427/190/62 429/188/62 398/189/62
f 398/189/62 429/188/62 430/186/62
f 429/188/62 431/185/62 430/186/62
f 432/187/62 430/186/62 431/185/62
