# SSTK version 0.8.0
# 72
mtllib original_72.mtl
o group_9/ID171#ID171
v 0.26705992 0.62389676 0.07098295
v 0.25889792 0.62397872 0.06773435
v 0.26430008 0.62393545 0.07373394
v 0.26904425 0.62398451 0.06821804
v 0.27014999 0.62404067 0.06491547
v 0.26064617 0.62385519 0.06592970
v 0.26166051 0.62398886 0.06428428
v 0.27047963 0.62380275 0.06160276
v 0.26234083 0.62395224 0.06310597
v 0.26246685 0.62380016 0.06177659
v 0.26233915 0.62403671 0.06079767
v 0.27025178 0.62402981 0.05843554
v 0.26137506 0.62404296 0.05972791
v 0.25986163 0.62414561 0.05945584
v 0.25656298 0.62407430 0.05930086
v 0.22662622 0.62395696 0.05914440
v 0.22654039 0.62407084 0.05115918
v 0.26892712 0.62405225 0.05570593
v 0.26687016 0.62396996 0.05348233
v 0.26458514 0.62400993 0.05201621
v 0.26091065 0.62389057 0.05129172
v 0.25496891 0.62397101 0.05104266
v 0.25503175 0.62397258 0.05101674
v 0.26074326 0.62398918 0.05134525
v 0.22664402 0.62402496 0.05102657
v 0.26462234 0.62411146 0.05219368
v 0.26701292 0.62413435 0.05352641
v 0.26894314 0.62388851 0.05570876
v 0.27015945 0.62386590 0.05827652
v 0.22664662 0.62387941 0.05934637
v 0.25657882 0.62398704 0.05915996
v 0.25973988 0.62390857 0.05922148
v 0.26138777 0.62400863 0.05973790
v 0.26231272 0.62407461 0.06069986
v 0.27069701 0.62396994 0.06160301
v 0.26270858 0.62407606 0.06189371
v 0.26244131 0.62401934 0.06313715
v 0.26186968 0.62400388 0.06443686
v 0.27009286 0.62412175 0.06516216
v 0.26081000 0.62404681 0.06597734
v 0.25904919 0.62394890 0.06782801
v 0.26890992 0.62390555 0.06810034
v 0.26714631 0.62405660 0.07103633
v 0.26449637 0.62393793 0.07365798
v 0.22677042 0.62393329 0.05915135
v 0.22658811 0.61796386 0.05086990
v 0.22664213 0.61810406 0.05937977
v 0.22666240 0.62400835 0.05095200
v 0.22660078 0.62402596 0.05084584
v 0.22665817 0.62396657 0.05914152
v 0.22658046 0.61822645 0.05100578
v 0.22662627 0.61797059 0.05913223
v 0.22672009 0.62404848 0.05925377
v 0.25676541 0.61812818 0.05912060
v 0.25661305 0.62395532 0.05928371
v 0.22668077 0.61812203 0.05905656
v 0.22675076 0.61822365 0.05931865
v 0.22654945 0.62392284 0.05919649
v 0.25658560 0.61816670 0.05923209
v 0.25662843 0.62413769 0.05921566
v 0.25978355 0.61812354 0.05925548
v 0.25960982 0.62395391 0.05938861
v 0.25968244 0.61818392 0.05935226
v 0.25958338 0.62380066 0.05929253
v 0.25965981 0.62409000 0.05940764
v 0.26146516 0.61808905 0.05991926
v 0.26147128 0.62407947 0.05989959
v 0.25961086 0.61817870 0.05952808
v 0.25981395 0.61826173 0.05938219
v 0.25973201 0.62412921 0.05942039
v 0.26137093 0.61804190 0.05978012
v 0.26161100 0.62399571 0.06001119
v 0.26145926 0.62409374 0.05992829
v 0.26221905 0.61803561 0.06075299
v 0.26241914 0.62393870 0.06056857
v 0.26160766 0.61817773 0.05980133
v 0.26149604 0.61814619 0.05973165
v 0.26161672 0.62402001 0.05991255
v 0.26240575 0.61815213 0.06084593
v 0.26237988 0.62395696 0.06057316
v 0.26262688 0.62393709 0.06192710
v 0.26228531 0.61798780 0.06068221
v 0.26269458 0.61795912 0.06165491
v 0.26233630 0.62383345 0.06077516
v 0.26222213 0.62403884 0.06074173
v 0.26250784 0.62401626 0.06171138
v 0.26226956 0.61811218 0.06072044
v 0.26260145 0.61808141 0.06168419
v 0.26252799 0.62391642 0.06301345
v 0.26272882 0.61814097 0.06191777
v 0.26247765 0.61820473 0.06300498
v 0.26250898 0.62408226 0.06171970
v 0.26251308 0.62398166 0.06173568
v 0.26222416 0.62397567 0.06301410
v 0.26252248 0.61814615 0.06184914
v 0.26236727 0.61813224 0.06312565
v 0.26197966 0.62391109 0.06436519
v 0.26252322 0.61800132 0.06302428
v 0.26180541 0.61830875 0.06441716
v 0.26247294 0.62387486 0.06310055
v 0.26241298 0.62397204 0.06312945
v 0.26175137 0.62401643 0.06447851
v 0.26239945 0.61822008 0.06305684
v 0.26170214 0.61812291 0.06455240
v 0.26082759 0.62394086 0.06582558
v 0.26176200 0.61806364 0.06450886
v 0.26071575 0.61806390 0.06605488
v 0.26184177 0.62395589 0.06433846
v 0.26199541 0.62391041 0.06442376
v 0.26073638 0.62400754 0.06598573
v 0.26182106 0.61804837 0.06431975
v 0.26068346 0.61816076 0.06593302
v 0.25878098 0.61817632 0.06766027
v 0.26074231 0.62397646 0.06594600
v 0.26062151 0.61808807 0.06587140
v 0.25877140 0.62407782 0.06778728
v 0.25881555 0.62403132 0.06776303
v 0.25903386 0.61810239 0.06771911
v 0.26077082 0.62391997 0.06593468
v 0.26071570 0.61805095 0.06601513
v 0.26442358 0.62411130 0.07373162
v 0.25893185 0.61812619 0.06764964
v 0.26443411 0.61820629 0.07362221
v 0.25888053 0.62403994 0.06776598
v 0.25878594 0.62398641 0.06773389
v 0.26436811 0.62411376 0.07370434
v 0.25886989 0.61805120 0.06782169
v 0.26450936 0.61801864 0.07378877
v 0.26440911 0.62391355 0.07365565
v 0.26701492 0.61803380 0.07099213
v 0.26707363 0.62398910 0.07108330
v 0.26427952 0.61799355 0.07366799
v 0.26437067 0.61816104 0.07361368
v 0.26448049 0.62390899 0.07349472
v 0.26709411 0.61800643 0.07103074
v 0.26712261 0.62392374 0.07110557
v 0.26893565 0.62392894 0.06818162
v 0.26707145 0.61808243 0.07105625
v 0.26900832 0.61828043 0.06821529
v 0.26709525 0.62395344 0.07097658
v 0.26712288 0.62397484 0.07111477
v 0.26915925 0.62414086 0.06807967
v 0.26718115 0.61819644 0.07096487
v 0.26904201 0.61797524 0.06806779
v 0.27007554 0.62404959 0.06508800
v 0.26910481 0.61819662 0.06804361
v 0.27016265 0.61812949 0.06488809
v 0.26913365 0.62398840 0.06812591
v 0.26907362 0.62396802 0.06814904
v 0.27009027 0.62404381 0.06500258
v 0.26900092 0.61808464 0.06797461
v 0.27017156 0.61802493 0.06502486
v 0.27053678 0.62407921 0.06159629
v 0.27009239 0.61818401 0.06494131
v 0.27064357 0.61827158 0.06147277
v 0.27024225 0.62407553 0.06482720
v 0.27011011 0.62404109 0.06495579
v 0.27054244 0.62393986 0.06153261
v 0.27025327 0.61803208 0.06494154
v 0.27073045 0.61805571 0.06160920
v 0.27010063 0.62400099 0.05845632
v 0.27061094 0.61813826 0.06161114
v 0.27006414 0.61809219 0.05844501
v 0.27044275 0.62381790 0.06171974
v 0.27046382 0.62399900 0.06168141
v 0.27007789 0.62400170 0.05831062
v 0.27059541 0.61807212 0.06162398
v 0.27012988 0.61795926 0.05843171
v 0.26884809 0.62402315 0.05557695
v 0.27009446 0.61805007 0.05846451
v 0.26900833 0.61799080 0.05579848
v 0.27014853 0.62399239 0.05846719
v 0.27011686 0.62403506 0.05843817
v 0.26891079 0.62397587 0.05558368
v 0.27005481 0.61803110 0.05834046
v 0.26905668 0.61823705 0.05567572
v 0.26688601 0.62398316 0.05345421
v 0.26892943 0.61821738 0.05573129
v 0.26709061 0.61805012 0.05359879
v 0.26901750 0.62400236 0.05565253
v 0.26881333 0.62400376 0.05578533
v 0.26693993 0.62410589 0.05355537
v 0.26894437 0.61824145 0.05571643
v 0.26706884 0.61817656 0.05355805
v 0.26462898 0.61819900 0.05210916
v 0.26695678 0.62383597 0.05347439
v 0.26700979 0.61811272 0.05350077
v 0.26454516 0.62412228 0.05219613
v 0.26452449 0.62405993 0.05195214
v 0.26448363 0.61797084 0.05208226
v 0.26717481 0.62397509 0.05343128
v 0.26717836 0.61810866 0.05360398
v 0.26085800 0.61816145 0.05138934
v 0.26460252 0.62388706 0.05217440
v 0.26464486 0.61807099 0.05200606
v 0.26075494 0.62406107 0.05124784
v 0.26080973 0.62395792 0.05131701
v 0.26097438 0.61810106 0.05113422
v 0.26461772 0.62388988 0.05209710
v 0.26463224 0.61794130 0.05218676
v 0.25497056 0.61822668 0.05111336
v 0.26086789 0.62395357 0.05130204
v 0.26077417 0.61819896 0.05128010
v 0.25508737 0.62393368 0.05098261
v 0.25509438 0.62413331 0.05113881
v 0.25503655 0.61795881 0.05091605
v 0.26080866 0.62385550 0.05112803
v 0.26083555 0.61799474 0.05129691
v 0.22660515 0.61813649 0.05118954
v 0.22666120 0.62389481 0.05094093
v 0.22663318 0.62403389 0.05090306
v 0.22666760 0.61806790 0.05102848
v 0.22665312 0.61814361 0.05112591
v 0.25658150 0.61799185 0.05917889
v 0.22661394 0.61819730 0.05929191
v 0.27012042 0.61809224 0.05830822
v 0.26883882 0.61803629 0.05583592
v 0.26714404 0.61816793 0.05344669
v 0.26459831 0.61793164 0.05224911
v 0.26092004 0.61825060 0.05135767
v 0.25507507 0.61795062 0.05103765
v 0.25891301 0.61816205 0.06778159
v 0.26704988 0.61809035 0.07104159
v 0.26432349 0.61797106 0.07360775
v 0.26911525 0.61819056 0.06820032
v 0.27030861 0.61812671 0.06500500
v 0.26070898 0.61798998 0.06586302
v 0.26173823 0.61822121 0.06431329
v 0.27059125 0.61797263 0.06160979
v 0.26230576 0.61814952 0.06318413
v 0.26267604 0.61820066 0.06178532
v 0.26223603 0.61818814 0.06051008
v 0.26151700 0.61827454 0.05974585
v 0.25974721 0.61802038 0.05932464
v 0.25659594 0.61817302 0.05918523
v 0.25980191 0.61817552 0.05941142
v 0.27016631 0.61812076 0.05830534
v 0.26151667 0.61808010 0.05976323
v 0.26244776 0.61800318 0.06057448
v 0.27059782 0.61810197 0.06156287
v 0.26256885 0.61816493 0.06183323
v 0.26235174 0.61801545 0.06305970
v 0.26181880 0.61805029 0.06435971
v 0.27014516 0.61802961 0.06491173
v 0.26072620 0.61815751 0.06590076
v 0.25880453 0.61810330 0.06785691
v 0.26899906 0.61802340 0.06813548
v 0.26695706 0.61819278 0.07100823
v 0.26447662 0.61815719 0.07360926
v 0.25527205 0.61807347 0.05089899
v 0.22655693 0.61807202 0.05091950
v 0.26084824 0.61814583 0.05135341
v 0.26456397 0.61796105 0.05209520
v 0.26707356 0.61817863 0.05362664
v 0.26895690 0.61796051 0.05575751
v 0.22672125 0.61812888 0.05928586
vt 0.01344412 0.01789748
vt 0.03017458 0.0600504
vt 0 0.03181775
vt 0.02823265 0.007954437
vt 0.04436559 0.001988609
vt 0.03943608 0.05056483
vt 0.0472038 0.04481373
vt 0.06184295 0
vt 0.05411258 0.04190084
vt 0.0607973 0.04092987
vt 0.06666043 0.04234898
vt 0.07834934 0.002072635
vt 0.0708057 0.04660628
vt 0.07327045 0.05568106
vt 0.07409204 0.07155259
vt 0.07409204 0.2252637
vt 0.1160676 0.2252637
vt 0.09231629 0.00829054
vt 0.103221 0.01801885
vt 0.1105405 0.03062272
vt 0.1146858 0.04985528
vt 0.1160676 0.07946968
vt -0.07409204 0.04249006
vt -0.1160676 0
vt -0.07409204 0
vt -0.1160676 0.04249006
vt -0.2252637 0.04249006
vt -0.07155259 0
vt -0.07155259 0.04249006
vt -0.2252637 0
vt -0.07528714 0.04249006
vt -0.05939436 0
vt -0.05939436 0.04249006
vt -0.07528714 0
vt -0.07293921 0.04249006
vt -0.06353566 0
vt -0.06353566 0.04249006
vt -0.07293921 0
vt -0.08278729 0.04249006
vt -0.07684525 0
vt -0.07684525 0.04249006
vt -0.08278729 0
vt -0.06871965 0.04249006
vt -0.07475208 0
vt -0.06871965 0
vt -0.07475208 0.04249006
vt -0.04752767 0.04249006
vt -0.05428254 0
vt -0.04752767 0
vt -0.05428254 0.04249006
vt -0.0260856 0.04249006
vt -0.03358334 0
vt -0.0260856 0
vt -0.03358334 0.04249006
vt -0.001606314 0.04249006
vt -0.01127133 0
vt -0.001606314 0
vt -0.01127133 0.04249006
vt 0.02188637 0
vt 0.008629234 0.04249006
vt 0.008629234 0
vt 0.02188637 0.04249006
vt -0.0217385 0.04249006
vt -0.06306147 0
vt -0.0217385 0
vt -0.06306147 0.04249006
vt -0.02288656 0.04249006
vt -0.00353409 0
vt -0.00353409 0.04249006
vt -0.02288656 0
vt 0.0189911 0.04249006
vt 0.001170755 0
vt 0.0189911 0
vt 0.001170755 0.04249006
vt 0.0409219 0.04249006
vt 0.02372123 0
vt 0.0409219 0
vt 0.02372123 0.04249006
vt 0.06144647 0.04249006
vt 0.04385635 0
vt 0.06144647 0
vt 0.04385635 0.04249006
vt 0.07799712 0.04249006
vt 0.06136111 0
vt 0.07799712 0
vt 0.06136111 0.04249006
vt 0.08770823 0.04249006
vt 0.07241974 0
vt 0.08770823 0
vt 0.07241974 0.04249006
vt 0.08901983 0.04249006
vt 0.07440641 0
vt 0.08901983 0
vt 0.07440641 0.04249006
vt 0.08199425 0
vt 0.06741915 0.04249006
vt 0.06741915 0
vt 0.08199425 0.04249006
vt 0.07289991 0
vt 0.0532257 0.04249006
vt 0.0532257 0
vt 0.07289991 0.04249006
vt 0.08479295 0
vt 0.05514632 0.04249006
vt 0.05514632 0
vt 0.08479295 0.04249006
vt 0.2252637 0
vt 0.07946968 0.04249006
vt 0.07946968 0
vt 0.2252637 0.04249006
vt -0.1160676 0.2252637
vt -0.07409204 0.07155259
vt -0.07409204 0.2252637
vt -0.07834934 0.002072635
vt -0.09231629 0.00829054
vt -0.103221 0.01801885
vt -0.1105405 0.03062272
vt -0.1146858 0.04985528
vt -0.1160676 0.07946968
vt -0.03017458 0.0600504
vt -0.01344412 0.01789748
vt -0.02823265 0.007954437
vt -0.04436559 0.001988609
vt -0.03943608 0.05056483
vt -0.0472038 0.04481373
vt -0.06184295 0
vt -0.05411258 0.04190084
vt -0.0607973 0.04092987
vt -0.06666043 0.04234898
vt -0.0708057 0.04660628
vt -0.07327045 0.05568106
vn 0 1 -3.597456166293249e-8
vn 0 -1 3.597456166293249e-8
vn -1 0 0
vn 1 0 0
vn 0 3.597456355031163e-8 1
vn -0.02585050488440598 3.5962541504450556e-8 0.9996658198604271
vn 0 -3.597456355031163e-8 -1
vn 0.02585050488440598 -3.5962541504450556e-8 -0.9996658198604271
vn -0.051683748659846415 3.592648349388601e-8 0.9986635019487118
vn 0.051683748659846415 -3.592648349388601e-8 -0.9986635019487118
vn -0.262053615142141 3.471737122682681e-8 0.9650533160354061
vn 0.262053615142141 -3.471737122682681e-8 -0.9650533160354061
vn -0.6975351211470273 2.5777593254895104e-8 0.7165505947010309
vn 0.6975351211470273 -2.5777593254895104e-8 -0.7165505947010309
vn -0.9719237025498171 8.464676922112423e-9 0.23529623121047755
vn 0.9719237025498171 -8.464676922112423e-9 -0.23529623121047755
vn -0.9896103943875244 -5.172247305716006e-9 -0.14377505806004146
vn 0.9896103943875244 5.172247305716006e-9 0.14377505806004146
vn -0.9214160796786482 -1.3978905121913591e-8 -0.38857741585124433
vn 0.9214160796786482 1.3978905121913591e-8 0.38857741585124433
vn -0.8036292730326404 -2.140955220833041e-8 -0.5951302307268801
vn 0.8036292730326404 2.140955220833041e-8 0.5951302307268801
vn -0.6985239189917631 -2.5742921104206128e-8 -0.7155867065537119
vn 0.6985239189917631 2.5742921104206128e-8 0.7155867065537119
vn -0.7301355894907722 2.458149996521579e-8 0.6833022910535
vn 0.7301355894907722 -2.458149996521579e-8 -0.6833022910535
vn 0.6946159444243027 2.5879410809151587e-8 0.7193807682663844
vn -0.6946159444243027 -2.5879410809151587e-8 -0.7193807682663844
vn 0.8298088119943368 2.0075527637287408e-8 0.5580477896529533
vn -0.8298088119943368 -2.0075527637287408e-8 -0.5580477896529533
vn 0.9378997165943626 1.2479812247401643e-8 0.3469065026951989
vn -0.9378997165943626 -1.2479812247401643e-8 -0.3469065026951989
vn 0.9935861114500513 4.067934852371501e-9 0.11307802232779908
vn -0.9935861114500513 -4.067934852371501e-9 -0.11307802232779908
vn 0.9922051421235256 -4.4829762193577926e-9 -0.12461523158761122
vn -0.9922051421235256 4.4829762193577926e-9 0.12461523158761122
vn 0.9135251324757895 -1.46338132190678e-8 -0.4067822910785213
vn -0.9135251324757895 1.46338132190678e-8 0.4067822910785213
vn 0.7461343571002045 -2.3951697338001315e-8 -0.665795404876501
vn -0.7461343571002045 2.3951697338001315e-8 0.665795404876501
vn 0.5021117582381814 -3.111090000507387e-8 -0.8648027418081891
vn -0.5021117582381814 3.111090000507387e-8 0.8648027418081891
vn 0.2106497521012988 -3.5167351407568454e-8 -0.9775616000742153
vn -0.2106497521012988 3.5167351407568454e-8 0.9775616000742153
vn 0.023304804118257416 -3.5964793025680174e-8 -0.9997284061709002
vn 0.046596968156186865 -3.593548683779591e-8 -0.9989137713329664
vn -0.023304804118257416 3.5964793025680174e-8 0.9997284061709002
vn -0.046596968156186865 3.593548683779591e-8 0.9989137713329664
usemtl material_0_0
f 1/1/1 2/2/1 3/3/1
f 2/2/1 1/1/1 4/4/1
f 2/2/1 4/4/1 5/5/1
f 2/2/1 5/5/1 6/6/1
f 6/6/1 5/5/1 7/7/1
f 7/7/1 5/5/1 8/8/1
f 7/7/1 8/8/1 9/9/1
f 9/9/1 8/8/1 10/10/1
f 10/10/1 8/8/1 11/11/1
f 11/11/1 8/8/1 12/12/1
f 11/11/1 12/12/1 13/13/1
f 13/13/1 12/12/1 14/14/1
f 14/14/1 12/12/1 15/15/1
f 15/15/1 12/12/1 16/16/1
f 16/16/1 12/12/1 17/17/1
f 17/17/1 12/12/1 18/18/1
f 17/17/1 18/18/1 19/19/1
f 17/17/1 19/19/1 20/20/1
f 17/17/1 20/20/1 21/21/1
f 17/17/1 21/21/1 22/22/1
f 23/22/2 24/21/2 25/17/2
f 24/21/2 26/20/2 25/17/2
f 26/20/2 27/19/2 25/17/2
f 27/19/2 28/18/2 25/17/2
f 28/18/2 29/12/2 25/17/2
f 25/17/2 29/12/2 30/16/2
f 30/16/2 29/12/2 31/15/2
f 31/15/2 29/12/2 32/14/2
f 32/14/2 29/12/2 33/13/2
f 33/13/2 29/12/2 34/11/2
f 29/12/2 35/8/2 34/11/2
f 34/11/2 35/8/2 36/10/2
f 36/10/2 35/8/2 37/9/2
f 37/9/2 35/8/2 38/7/2
f 35/8/2 39/5/2 38/7/2
f 38/7/2 39/5/2 40/6/2
f 40/6/2 39/5/2 41/2/2
f 39/5/2 42/4/2 41/2/2
f 42/4/2 43/1/2 41/2/2
f 44/3/2 41/2/2 43/1/2
f 45/23/3 46/24/3 47/25/3
f 46/24/3 45/23/3 48/26/3
f 49/26/4 50/23/4 51/24/4
f 52/25/4 51/24/4 50/23/4
f 53/27/5 54/28/6 55/29/6
f 54/28/6 53/27/5 56/30/5
f 57/30/7 58/27/7 59/28/8
f 60/29/8 59/28/8 58/27/7
f 55/31/6 61/32/9 62/33/9
f 61/32/9 55/31/6 54/34/6
f 59/34/8 60/31/8 63/32/10
f 64/33/10 63/32/10 60/31/8
f 65/35/11 66/36/11 67/37/11
f 66/36/11 65/35/11 68/38/11
f 69/38/12 70/35/12 71/36/12
f 72/37/12 71/36/12 70/35/12
f 73/39/13 74/40/13 75/41/13
f 74/40/13 73/39/13 76/42/13
f 77/42/14 78/39/14 79/40/14
f 80/41/14 79/40/14 78/39/14
f 81/43/15 82/44/15 83/45/15
f 82/44/15 81/43/15 84/46/15
f 85/46/16 86/43/16 87/44/16
f 88/45/16 87/44/16 86/43/16
f 89/47/17 90/48/17 91/49/17
f 90/48/17 89/47/17 92/50/17
f 93/50/18 94/47/18 95/48/18
f 96/49/18 95/48/18 94/47/18
f 97/51/19 98/52/19 99/53/19
f 98/52/19 97/51/19 100/54/19
f 101/54/20 102/51/20 103/52/20
f 104/53/20 103/52/20 102/51/20
f 105/55/21 106/56/21 107/57/21
f 106/56/21 105/55/21 108/58/21
f 109/58/22 110/55/22 111/56/22
f 112/57/22 111/56/22 110/55/22
f 113/59/23 114/60/23 115/61/23
f 114/60/23 113/59/23 116/62/23
f 117/62/24 118/59/24 119/60/24
f 120/61/24 119/60/24 118/59/24
f 121/63/25 122/64/25 123/65/25
f 122/64/25 121/63/25 124/66/25
f 125/66/26 126/63/26 127/64/26
f 128/65/26 127/64/26 126/63/26
f 129/67/27 130/68/27 131/69/27
f 130/68/27 129/67/27 132/70/27
f 133/70/28 134/67/28 135/68/28
f 136/69/28 135/68/28 134/67/28
f 137/71/29 138/72/29 139/73/29
f 138/72/29 137/71/29 140/74/29
f 141/74/30 142/71/30 143/72/30
f 144/73/30 143/72/30 142/71/30
f 145/75/31 146/76/31 147/77/31
f 146/76/31 145/75/31 148/78/31
f 149/78/32 150/75/32 151/76/32
f 152/77/32 151/76/32 150/75/32
f 153/79/33 154/80/33 155/81/33
f 154/80/33 153/79/33 156/82/33
f 157/82/34 158/79/34 159/80/34
f 160/81/34 159/80/34 158/79/34
f 161/83/35 162/84/35 163/85/35
f 162/84/35 161/83/35 164/86/35
f 165/86/36 166/83/36 167/84/36
f 168/85/36 167/84/36 166/83/36
f 169/87/37 170/88/37 171/89/37
f 170/88/37 169/87/37 172/90/37
f 173/90/38 174/87/38 175/88/38
f 176/89/38 175/88/38 174/87/38
f 177/91/39 178/92/39 179/93/39
f 178/92/39 177/91/39 180/94/39
f 181/94/40 182/91/40 183/92/40
f 184/93/40 183/92/40 182/91/40
f 185/95/41 186/96/41 187/97/41
f 186/96/41 185/95/41 188/98/41
f 189/98/42 190/95/42 191/96/42
f 192/97/42 191/96/42 190/95/42
f 193/99/43 194/100/43 195/101/43
f 194/100/43 193/99/43 196/102/43
f 197/102/44 198/99/44 199/100/44
f 200/101/44 199/100/44 198/99/44
f 201/103/45 202/104/46 203/105/46
f 202/104/46 201/103/45 204/106/45
f 205/106/47 206/103/47 207/104/48
f 208/105/48 207/104/48 206/103/47
f 209/107/7 204/108/45 201/109/45
f 204/108/45 209/107/7 210/110/7
f 211/110/5 212/107/5 205/108/47
f 206/109/47 205/108/47 212/107/5
f 213/111/2 214/112/2 215/113/2
f 214/112/2 213/111/2 216/114/2
f 216/114/2 213/111/2 217/115/2
f 217/115/2 213/111/2 218/116/2
f 218/116/2 213/111/2 219/117/2
f 219/117/2 213/111/2 220/118/2
f 220/118/2 213/111/2 221/119/2
f 222/120/2 223/121/2 224/3/2
f 223/121/2 222/120/2 225/122/2
f 225/122/2 222/120/2 226/123/2
f 226/123/2 222/120/2 227/124/2
f 226/123/2 227/124/2 228/125/2
f 226/123/2 228/125/2 229/126/2
f 229/126/2 228/125/2 230/127/2
f 229/126/2 230/127/2 231/128/2
f 229/126/2 231/128/2 232/129/2
f 229/126/2 232/129/2 216/114/2
f 216/114/2 232/129/2 233/130/2
f 216/114/2 233/130/2 234/131/2
f 216/114/2 234/131/2 214/112/2
f 235/112/1 236/131/1 237/114/1
f 236/131/1 238/130/1 237/114/1
f 238/130/1 239/129/1 237/114/1
f 237/114/1 239/129/1 240/126/1
f 239/129/1 241/128/1 240/126/1
f 241/128/1 242/127/1 240/126/1
f 242/127/1 243/125/1 240/126/1
f 240/126/1 243/125/1 244/123/1
f 243/125/1 245/124/1 244/123/1
f 245/124/1 246/120/1 244/123/1
f 244/123/1 246/120/1 247/122/1
f 247/122/1 246/120/1 248/121/1
f 249/3/1 248/121/1 246/120/1
f 250/119/1 251/111/1 252/118/1
f 252/118/1 251/111/1 253/117/1
f 253/117/1 251/111/1 254/116/1
f 254/116/1 251/111/1 255/115/1
f 255/115/1 251/111/1 237/114/1
f 237/114/1 251/111/1 235/112/1
f 256/113/1 235/112/1 251/111/1
