# SSTK version 0.8.0
# 40
mtllib original_40.mtl
o group_18/ID270#ID270
v -0.18603143 0.25763200 -0.55616056
v -0.17958894 0.26426814 -0.55612995
v -0.15016486 0.25759903 -0.55618488
v -0.18606981 0.27715683 -0.55621742
v -0.17935252 0.27723157 -0.55624686
v -0.17299925 0.27720424 -0.55618367
v -0.16636601 0.26445028 -0.55614176
v -0.17314764 0.26445778 -0.55626058
v -0.16652216 0.27728318 -0.55627967
v -0.15687387 0.26427650 -0.55614666
v -0.15031057 0.27723122 -0.55624836
v -0.15693599 0.27731206 -0.55621101
v -0.15688591 0.27738063 -0.55616418
v -0.15682709 0.26454970 -0.55617741
v -0.15026382 0.27723282 -0.55620527
v -0.16658908 0.26445145 -0.55614274
v -0.17288546 0.26423865 -0.55615359
v -0.17943714 0.26445540 -0.55613291
v -0.15018478 0.25750524 -0.55622863
v -0.16644327 0.27721306 -0.55618673
v -0.17299469 0.27721467 -0.55623801
v -0.17947835 0.27720298 -0.55614797
v -0.18614917 0.27728069 -0.55618956
v -0.18608580 0.25777436 -0.55608181
v -0.18613226 0.25759995 -0.55028783
v -0.18620678 0.27707277 -0.55623105
v -0.18618915 0.25763040 -0.55625833
v -0.18625851 0.27733822 -0.55028458
v -0.18612925 0.27721900 -0.55036384
v -0.18632477 0.25757374 -0.55041151
v -0.18612959 0.27741384 -0.55617180
v -0.18615045 0.25760983 -0.55610239
v -0.18607631 0.27728695 -0.55616714
v -0.17958244 0.27713357 -0.55045304
v -0.17952494 0.27719189 -0.55614280
v -0.18625787 0.27736835 -0.55033695
v -0.18622928 0.27723557 -0.55035107
v -0.18620511 0.27736964 -0.55616513
v -0.17947514 0.27711839 -0.55017407
v -0.17935473 0.27720192 -0.55618292
v -0.17936650 0.27725565 -0.55018667
v -0.17950807 0.26429783 -0.55614184
v -0.17949233 0.27734864 -0.55623029
v -0.17947987 0.26433913 -0.55039113
v -0.17935048 0.26435959 -0.55030694
v -0.17946989 0.27736537 -0.55020733
v -0.17956128 0.26454822 -0.55622039
v -0.17953855 0.27712107 -0.55609018
v -0.17956205 0.26444005 -0.55620360
v -0.17298405 0.26442446 -0.55041951
v -0.17304200 0.26428738 -0.55612157
v -0.17948835 0.26451212 -0.55034774
v -0.17956692 0.26444150 -0.55023754
v -0.17953119 0.26441255 -0.55614530
v -0.17294022 0.26457063 -0.55036078
v -0.17288919 0.26443753 -0.55610703
v -0.17292772 0.26450956 -0.55014018
v -0.17292243 0.27725638 -0.55621210
v -0.17291169 0.26435196 -0.55617359
v -0.17301413 0.27721508 -0.55047853
v -0.17297859 0.27728124 -0.55038754
v -0.17302384 0.26448984 -0.55027614
v -0.17303542 0.27739447 -0.55612338
v -0.17305246 0.26454329 -0.55628727
v -0.17293317 0.27725502 -0.55623494
v -0.16640879 0.27732002 -0.55025381
v -0.16654240 0.27724361 -0.55609231
v -0.17314334 0.27731975 -0.55025800
v -0.17300576 0.27717024 -0.55039640
v -0.17304462 0.27722994 -0.55618103
v -0.16644015 0.27713338 -0.55025709
v -0.16642567 0.27726197 -0.55616450
v -0.16642391 0.27723467 -0.55024484
v -0.16634669 0.26449660 -0.55611140
v -0.16631615 0.27715683 -0.55626356
v -0.16639132 0.26437915 -0.55035059
v -0.16650562 0.26448631 -0.55035867
v -0.16640960 0.27715923 -0.55030503
v -0.16656299 0.26436333 -0.55617149
v -0.16651194 0.27735188 -0.55605117
v -0.16643706 0.26446025 -0.55609384
v -0.15691132 0.26428107 -0.55026636
v -0.15709391 0.26442618 -0.55630209
v -0.16645415 0.26441493 -0.55046108
v -0.16643947 0.26448274 -0.55030501
v -0.16634626 0.26435793 -0.55609622
v -0.15699434 0.26444274 -0.55029967
v -0.15692337 0.26433623 -0.55636045
v -0.15696959 0.26449344 -0.55029141
v -0.15694121 0.27741897 -0.55614084
v -0.15707511 0.26441643 -0.55617591
v -0.15702559 0.27721497 -0.55051397
v -0.15702312 0.27718761 -0.55024873
v -0.15696990 0.26435265 -0.55020951
v -0.15681775 0.27717456 -0.55616979
v -0.15704368 0.26439590 -0.55614187
v -0.15684727 0.27720203 -0.55623078
v -0.15026406 0.27725679 -0.55040841
v -0.15041695 0.27709839 -0.55613995
v -0.15697951 0.27720692 -0.55035038
v -0.15709886 0.27713132 -0.55036945
v -0.15697685 0.27720684 -0.55622916
v -0.15032956 0.27718701 -0.55047477
v -0.15015807 0.27724518 -0.55605016
v -0.15016145 0.27736519 -0.55025011
v -0.15032109 0.25764984 -0.55634334
v -0.15036375 0.27721347 -0.55626511
v -0.15022561 0.25757133 -0.55031300
v -0.15018957 0.25763580 -0.55033565
v -0.15038816 0.27725191 -0.55040282
v -0.15031433 0.25770892 -0.55605384
v -0.15029593 0.27736920 -0.55631498
v -0.18608896 0.25757925 -0.55035931
v -0.15033181 0.25769217 -0.55613745
v -0.15037365 0.25762198 -0.55035783
v -0.18636405 0.25771668 -0.55608320
v -0.18610521 0.25757133 -0.55617058
v -0.18625418 0.25749574 -0.55025405
v -0.15026711 0.25778401 -0.55613125
v -0.15023031 0.25747956 -0.55036122
v -0.15027121 0.25768951 -0.55027287
v -0.15711141 0.26436246 -0.55044206
v -0.18601383 0.25765220 -0.55025662
v -0.15020972 0.27720515 -0.55037741
v -0.15686208 0.27722305 -0.55039216
v -0.16641618 0.27711348 -0.55048231
v -0.17293390 0.26453164 -0.55023988
v -0.16635986 0.26436473 -0.55036846
v -0.17307894 0.27717427 -0.55028424
v -0.17951769 0.26445247 -0.55027940
v -0.18622537 0.27718919 -0.55020101
v -0.17938699 0.27711252 -0.55045028
v -0.17956256 0.27725982 -0.55030034
v -0.17955313 0.26441512 -0.55032116
v -0.18633877 0.27728740 -0.55028547
v -0.17305625 0.26444534 -0.55017868
v -0.16632323 0.26442626 -0.55032124
v -0.15679187 0.26442546 -0.55042437
v -0.18624856 0.25767839 -0.55029289
v -0.17290732 0.27716896 -0.55046093
v -0.16628279 0.27712584 -0.55027461
v -0.15698215 0.27733345 -0.55044833
v -0.15021654 0.27722053 -0.55044227
v -0.15036397 0.25765279 -0.55023465
vt 0 0.2441518
vt -0.04614155 0.1986742
vt 0 0
vt -0.1332794 0.2441518
vt -0.1332794 0.1986742
vt -0.1332794 0.1545244
vt -0.04614155 0.1098766
vt -0.04614155 0.1545244
vt -0.1332794 0.1098766
vt -0.04614155 0.04564362
vt -0.1332794 0
vt -0.1332794 0.04564362
vt 0 0.04249006
vt -0.1332794 0.04249006
vt 0.2441518 0
vt 0.1986742 0.04249006
vt 0.1986742 0
vt 0.2441518 0.04249006
vt 0.1332794 0.04249006
vt 0.04614155 0
vt 0.1332794 0
vt 0.04614155 0.04249006
vt 0.1545244 0.04249006
vt 0.1545244 0
vt -0.04614155 0.04249006
vt -0.04614155 0
vt 0.1098766 0.04249006
vt 0.1098766 0
vt 0.04564362 0.04249006
vt 0.04564362 0
vt -0.2441518 0.04249006
vt -0.2441518 0
vt 0.04614155 0.04564362
vt 0.1332794 0.04564362
vt 0.1332794 0.1098766
vt 0.04614155 0.1545244
vt 0.04614155 0.1098766
vt 0.1332794 0.1545244
vt 0.04614155 0.1986742
vt 0.1332794 0.2441518
vt 0.1332794 0.1986742
vn 0 -3.597456311981438e-8 -1
vn 0 3.597456311981438e-8 1
vn -1 0 0
vn 1 0 0
vn 0 1 -3.597456311981437e-8
vn 0 -1 3.597456311981437e-8
usemtl material_0_0
f 1/1/1 2/2/1 3/3/1
f 2/2/1 1/1/1 4/4/1
f 2/2/1 4/4/1 5/5/1
f 6/6/1 7/7/1 8/8/1
f 7/7/1 6/6/1 9/9/1
f 3/3/1 10/10/1 11/11/1
f 10/10/1 3/3/1 2/2/1
f 10/10/1 2/2/1 8/8/1
f 10/10/1 8/8/1 7/7/1
f 11/11/1 10/10/1 12/12/1
f 13/12/2 14/10/2 15/11/2
f 16/7/2 17/8/2 14/10/2
f 17/8/2 18/2/2 14/10/2
f 18/2/2 19/3/2 14/10/2
f 15/11/2 14/10/2 19/3/2
f 20/9/2 21/6/2 16/7/2
f 17/8/2 16/7/2 21/6/2
f 22/5/2 23/4/2 18/2/2
f 23/4/2 24/1/2 18/2/2
f 19/3/2 18/2/2 24/1/2
f 25/13/3 26/11/3 27/3/3
f 26/11/3 25/13/3 28/14/3
f 29/14/4 30/13/4 31/11/4
f 32/3/4 31/11/4 30/13/4
f 33/15/5 34/16/5 35/17/5
f 34/16/5 33/15/5 36/18/5
f 37/18/6 38/15/6 39/16/6
f 40/17/6 39/16/6 38/15/6
f 41/19/4 42/20/4 43/21/4
f 42/20/4 41/19/4 44/22/4
f 45/22/3 46/19/3 47/20/3
f 48/21/3 47/20/3 46/19/3
f 49/17/5 50/23/5 51/24/5
f 50/23/5 49/17/5 52/16/5
f 53/16/6 54/17/6 55/23/6
f 56/24/6 55/23/6 54/17/6
f 57/25/3 58/11/3 59/26/3
f 58/11/3 57/25/3 60/14/3
f 61/14/4 62/25/4 63/11/4
f 64/26/4 63/11/4 62/25/4
f 65/24/5 66/27/5 67/28/5
f 66/27/5 65/24/5 68/23/5
f 69/23/6 70/24/6 71/27/6
f 72/28/6 71/27/6 70/24/6
f 73/19/4 74/20/4 75/21/4
f 74/20/4 73/19/4 76/22/4
f 77/22/3 78/19/3 79/20/3
f 80/21/3 79/20/3 78/19/3
f 81/28/5 82/29/5 83/30/5
f 82/29/5 81/28/5 84/27/5
f 85/27/6 86/28/6 87/29/6
f 88/30/6 87/29/6 86/28/6
f 89/25/3 90/11/3 91/26/3
f 90/11/3 89/25/3 92/14/3
f 93/14/4 94/25/4 95/11/4
f 96/26/4 95/11/4 94/25/4
f 97/30/5 98/13/5 99/3/5
f 98/13/5 97/30/5 100/29/5
f 101/29/6 102/30/6 103/13/6
f 104/3/6 103/13/6 102/30/6
f 105/19/4 106/3/4 107/21/4
f 106/3/4 105/19/4 108/13/4
f 109/13/3 110/19/3 111/3/3
f 112/21/3 111/3/3 110/19/3
f 113/31/6 114/3/6 115/13/6
f 114/3/6 113/31/6 116/32/6
f 117/32/5 118/31/5 119/3/5
f 120/13/5 119/3/5 118/31/5
f 121/3/2 122/33/2 123/1/2
f 122/33/2 121/3/2 124/21/2
f 122/33/2 124/21/2 125/34/2
f 126/35/2 127/36/2 128/37/2
f 127/36/2 126/35/2 129/38/2
f 123/1/2 130/39/2 131/40/2
f 130/39/2 123/1/2 122/33/2
f 130/39/2 122/33/2 128/37/2
f 130/39/2 128/37/2 127/36/2
f 131/40/2 130/39/2 132/41/2
f 133/41/1 134/39/1 135/40/1
f 136/36/1 137/37/1 134/39/1
f 137/37/1 138/33/1 134/39/1
f 138/33/1 139/1/1 134/39/1
f 135/40/1 134/39/1 139/1/1
f 140/38/1 141/35/1 136/36/1
f 137/37/1 136/36/1 141/35/1
f 142/34/1 143/21/1 138/33/1
f 143/21/1 144/3/1 138/33/1
f 139/1/1 138/33/1 144/3/1
