# SSTK version 0.8.0
# 78
mtllib original_78.mtl
o group_13/ID215#ID215
v 0.12591992 0.62393863 -0.12148401
v 0.12795208 0.61804519 -0.12225546
v 0.12799668 0.62406558 -0.12228770
v 0.12599993 0.61822776 -0.12115882
v 0.12612895 0.61819783 -0.12128235
v 0.12616568 0.62404801 -0.12115955
v 0.12800238 0.61799656 -0.12215894
v 0.12797154 0.62412873 -0.12221093
v 0.11727625 0.61806999 -0.12180904
v 0.12423970 0.61820705 -0.12941880
v 0.11943714 0.61806273 -0.12089060
v 0.12362433 0.61802312 -0.12883484
v 0.12234477 0.61810530 -0.12836913
v 0.12099615 0.61818632 -0.12865639
v 0.11518862 0.61822616 -0.12276327
v 0.11955064 0.61820628 -0.12914167
v 0.11829726 0.61805177 -0.13025960
v 0.11285563 0.61815208 -0.12500709
v 0.11755862 0.61812901 -0.13181540
v 0.11078455 0.61798853 -0.12763308
v 0.11701590 0.61803408 -0.13413682
v 0.11677139 0.61822723 -0.13635104
v 0.10947405 0.61803457 -0.13099836
v 0.10879065 0.61805159 -0.13530820
v 0.12946993 0.61808064 -0.12343213
v 0.13242664 0.61808648 -0.12808055
v 0.13103117 0.61799758 -0.12522655
v 0.12803765 0.61813487 -0.12223540
v 0.13293709 0.61806609 -0.13156049
v 0.12611310 0.61812128 -0.12131389
v 0.12376778 0.61802512 -0.12070393
v 0.13210973 0.61808612 -0.13647655
v 0.12173613 0.61805306 -0.12054377
v 0.12471680 0.61822086 -0.13060110
v 0.13015481 0.61818188 -0.14390870
v 0.12485071 0.61811219 -0.13160916
v 0.12278895 0.61803747 -0.13950748
v 0.12871223 0.61796013 -0.15017301
v 0.12095441 0.61828402 -0.14677551
v 0.12887517 0.61817611 -0.15185511
v 0.12946155 0.61815257 -0.15315559
v 0.13548973 0.61819462 -0.16245051
v 0.13309629 0.61818248 -0.16259791
v 0.13070238 0.61819593 -0.16251987
v 0.12044513 0.61803050 -0.15000918
v 0.12815485 0.61818967 -0.16195530
v 0.12063606 0.61806010 -0.15280721
v 0.12601872 0.61794549 -0.16085047
v 0.12129488 0.61807416 -0.15515816
v 0.12430239 0.61814528 -0.15946836
v 0.12268460 0.61808254 -0.15737475
v 0.13855277 0.61810265 -0.14512275
v 0.14651620 0.61819124 -0.14977746
v 0.14652403 0.61824734 -0.14478304
v 0.14579587 0.61818517 -0.15394743
v 0.14354036 0.61813980 -0.15725265
v 0.13867259 0.61817429 -0.14792572
v 0.13822876 0.61806165 -0.15047152
v 0.14033905 0.61808175 -0.16004466
v 0.13721796 0.61824376 -0.15238792
v 0.13574603 0.61806844 -0.15390781
v 0.13793194 0.61813291 -0.16148829
v 0.13412480 0.61805936 -0.15459060
v 0.13223087 0.61821628 -0.15479498
v 0.13069673 0.61820169 -0.15422511
v 0.12949081 0.61799448 -0.15310416
v 0.13063494 0.61805596 -0.15427742
v 0.13558471 0.61828738 -0.16235899
v 0.13211974 0.61809944 -0.15470969
v 0.13787011 0.61820214 -0.16146919
v 0.13409767 0.61819739 -0.15455790
v 0.13592566 0.61817418 -0.15388208
v 0.14036676 0.61813243 -0.16021612
v 0.13724023 0.61802208 -0.15234863
v 0.13820456 0.61822878 -0.15043879
v 0.14346853 0.61821316 -0.15725345
v 0.13861883 0.61806606 -0.14794836
v 0.13848944 0.61795940 -0.14507827
v 0.14574820 0.61811919 -0.15364709
v 0.14662897 0.61814695 -0.14970373
v 0.14641120 0.61825733 -0.14475235
v 0.12258209 0.61809680 -0.15736148
v 0.12147816 0.61809673 -0.15525532
v 0.12428393 0.61813039 -0.15942989
v 0.12606595 0.61813304 -0.16082844
v 0.12084728 0.61809843 -0.15263793
v 0.12827413 0.61808555 -0.16197494
v 0.12049186 0.61816384 -0.15009212
v 0.13062701 0.61801481 -0.16256411
v 0.12082346 0.61817235 -0.14671388
v 0.13288811 0.61807591 -0.16267916
v 0.12892391 0.61801640 -0.15196742
v 0.12887213 0.61807813 -0.15023047
v 0.12286853 0.61804622 -0.13953277
v 0.13017761 0.61811386 -0.14375793
v 0.12458468 0.61817917 -0.13166372
v 0.12464210 0.61815198 -0.13052745
v 0.13211633 0.61794998 -0.13658066
v 0.12411128 0.61810695 -0.12959023
v 0.11938748 0.61816562 -0.12086634
v 0.12165851 0.61806698 -0.12052708
v 0.12388261 0.61810336 -0.12080211
v 0.13271542 0.61801270 -0.13157511
v 0.12605617 0.61800876 -0.12135146
v 0.12806252 0.61800170 -0.12222484
v 0.13224671 0.61812622 -0.12817006
v 0.12947428 0.61800535 -0.12361238
v 0.13114953 0.61816105 -0.12529821
v 0.10877536 0.61825559 -0.13536456
v 0.10956963 0.61814398 -0.13070726
v 0.11667465 0.61811084 -0.13635055
v 0.11092864 0.61824975 -0.12752385
v 0.11696380 0.61817324 -0.13382360
v 0.11747522 0.61824263 -0.13202661
v 0.11278374 0.61822231 -0.12485187
v 0.11835262 0.61809497 -0.13048071
v 0.11507269 0.61808861 -0.12285859
v 0.11966786 0.61802737 -0.12916828
v 0.12085382 0.61818716 -0.12864178
v 0.11735028 0.61815499 -0.12147383
v 0.12236085 0.61816890 -0.12845145
v 0.12333207 0.61814661 -0.12867652
v 0.12791691 0.62413224 -0.12212758
v 0.12958205 0.61811052 -0.12340645
v 0.12968327 0.62387205 -0.12343524
v 0.12790803 0.61811745 -0.12219810
v 0.12798147 0.61828826 -0.12212813
v 0.12793289 0.62398845 -0.12230412
v 0.12966327 0.61810046 -0.12369588
v 0.12960849 0.62413986 -0.12339787
v 0.14658905 0.62390460 -0.14955293
v 0.13872916 0.62386899 -0.14490121
v 0.14656496 0.62407298 -0.14479446
v 0.14552478 0.62389019 -0.15370047
v 0.14369730 0.62398279 -0.15720898
v 0.13863243 0.62411006 -0.14795957
v 0.13823433 0.62390931 -0.15056518
v 0.14024510 0.62399473 -0.16010382
v 0.13721262 0.62394100 -0.15228984
v 0.13582438 0.62402558 -0.15377768
v 0.13772121 0.62399648 -0.16142834
v 0.13395742 0.62411925 -0.15453743
v 0.13227211 0.62390074 -0.15466978
v 0.13538804 0.62396887 -0.16229299
v 0.13051897 0.62402084 -0.15425279
v 0.12944545 0.62388909 -0.15324449
v 0.13218676 0.62387398 -0.12794766
v 0.12946190 0.62397910 -0.12362158
v 0.13103990 0.62403607 -0.12525173
v 0.12789976 0.62409357 -0.12230743
v 0.13265442 0.62398428 -0.13162089
v 0.12609991 0.62410795 -0.12136568
v 0.12397398 0.62393505 -0.12075780
v 0.13224155 0.62398587 -0.13631319
v 0.12164727 0.62405310 -0.12054498
v 0.11950623 0.62403926 -0.12104141
v 0.12420460 0.62404413 -0.12938468
v 0.12476831 0.62400281 -0.13061239
v 0.13021535 0.62394983 -0.14388586
v 0.12479779 0.62399445 -0.13165222
v 0.12288517 0.62393543 -0.13931561
v 0.12873433 0.62400185 -0.15013885
v 0.12088181 0.62403527 -0.14672780
v 0.12893341 0.62394091 -0.15176162
v 0.13295358 0.62396959 -0.16260964
v 0.13060003 0.62401771 -0.16259517
v 0.12040955 0.62408626 -0.14998271
v 0.12804105 0.62404028 -0.16187543
v 0.12070100 0.62396789 -0.15269418
v 0.12595815 0.62395449 -0.16090516
v 0.12125100 0.62418603 -0.15502461
v 0.12430494 0.62413963 -0.15934391
v 0.12260119 0.62406680 -0.15737288
v 0.11737743 0.62395030 -0.12150691
v 0.12343822 0.62387891 -0.12882333
v 0.12237174 0.62397032 -0.12832529
v 0.12093338 0.62388681 -0.12850179
v 0.11517577 0.62398211 -0.12287211
v 0.11950220 0.62413533 -0.12916525
v 0.11846455 0.62395650 -0.13029968
v 0.11277625 0.62388017 -0.12495390
v 0.11757016 0.62404263 -0.13201819
v 0.11082519 0.62382863 -0.12751872
v 0.11705324 0.62404409 -0.13408170
v 0.11679661 0.62404939 -0.13646637
v 0.10957208 0.62411927 -0.13082245
v 0.10874993 0.62400278 -0.13536116
v 0.10881984 0.62400297 -0.13533111
v 0.11671804 0.62397817 -0.13651444
v 0.10960040 0.62410554 -0.13088342
v 0.11098534 0.62398434 -0.12736380
v 0.11712493 0.62396970 -0.13401577
v 0.11761195 0.62404536 -0.13201422
v 0.11278878 0.62406721 -0.12491203
v 0.11836197 0.62384421 -0.13046407
v 0.11502096 0.62405806 -0.12295037
v 0.11965607 0.62391210 -0.12916564
v 0.12086588 0.62397878 -0.12856099
v 0.11738312 0.62406350 -0.12161065
v 0.12232232 0.62396465 -0.12838144
v 0.12336190 0.62393186 -0.12870923
v 0.12423052 0.62399362 -0.12949004
v 0.11940296 0.62398026 -0.12095092
v 0.12272000 0.62402466 -0.15737732
v 0.12423105 0.62390485 -0.15925162
v 0.12132488 0.62404788 -0.15501957
v 0.12606060 0.62406774 -0.16072002
v 0.12070834 0.62397354 -0.15275976
v 0.12828453 0.62388211 -0.16186708
v 0.12059497 0.62404745 -0.14989070
v 0.13043643 0.62389772 -0.16244507
v 0.12098840 0.62388725 -0.14673092
v 0.13294603 0.62404922 -0.16273997
v 0.13544977 0.62401394 -0.16247299
v 0.12952932 0.62402098 -0.15333802
v 0.12890723 0.62388518 -0.15174913
v 0.12872959 0.62398287 -0.15027060
v 0.12294340 0.62394979 -0.13958238
v 0.13014877 0.62406481 -0.14390363
v 0.12470674 0.62404411 -0.13177095
v 0.12465660 0.62404078 -0.13047275
v 0.13216144 0.62397874 -0.13635448
v 0.12179243 0.62393951 -0.12059550
v 0.12376733 0.62406167 -0.12064816
v 0.13294972 0.62408538 -0.13150276
v 0.12613217 0.62410010 -0.12125092
v 0.12794667 0.62412945 -0.12219120
v 0.13224400 0.62393333 -0.12790788
v 0.12960462 0.62394239 -0.12353104
v 0.13089896 0.62401308 -0.12535570
v 0.13055992 0.62388858 -0.15430319
v 0.13232658 0.62381108 -0.15483435
v 0.13783540 0.62386036 -0.16143681
v 0.13401345 0.62389920 -0.15477226
v 0.13585950 0.62389952 -0.15384665
v 0.14027173 0.62385100 -0.16014130
v 0.13729579 0.62404753 -0.15248068
v 0.13810052 0.62407348 -0.15035304
v 0.14345111 0.62402022 -0.15731562
v 0.13871236 0.62389922 -0.14802684
v 0.13868033 0.62409811 -0.14500203
v 0.14565492 0.62394463 -0.15382027
v 0.14659348 0.62406733 -0.14976914
v 0.14653695 0.62400855 -0.14467464
v 0.12385070 0.62394711 -0.12060472
v 0.12610720 0.61821352 -0.12118291
v 0.12608680 0.62411631 -0.12123171
v 0.12384053 0.61807553 -0.12079004
v 0.12384918 0.61811610 -0.12059830
v 0.12386141 0.62395034 -0.12089305
v 0.12604978 0.61806425 -0.12130725
v 0.12610983 0.62393902 -0.12140354
v 0.10882540 0.62407959 -0.13555729
v 0.11675946 0.61806865 -0.13652356
v 0.10873009 0.61820995 -0.13535322
v 0.11678531 0.62405661 -0.13662210
v 0.11662899 0.62388578 -0.13649497
v 0.10876135 0.62406024 -0.13537293
v 0.11660009 0.61798920 -0.13647925
v 0.10887545 0.61812459 -0.13544506
v 0.11701807 0.62382247 -0.13391122
v 0.11674740 0.61797963 -0.13663670
v 0.11678630 0.62399022 -0.13654034
v 0.11702949 0.61811938 -0.13388471
v 0.11696601 0.61815753 -0.13412191
v 0.11697996 0.62401521 -0.13408571
v 0.11666613 0.61805220 -0.13666600
v 0.11675613 0.62407546 -0.13642999
v 0.11693144 0.62410918 -0.13397319
v 0.11763886 0.61813759 -0.13203580
v 0.11690930 0.61815428 -0.13394924
v 0.11754804 0.62389426 -0.13181259
v 0.11750362 0.62408696 -0.13205617
v 0.11694210 0.62390938 -0.13404984
v 0.11768036 0.61814921 -0.13186187
v 0.11699849 0.61824623 -0.13406519
v 0.11751825 0.62394286 -0.13175977
v 0.11857464 0.61806736 -0.13031242
v 0.11751861 0.61816946 -0.13178587
v 0.11841184 0.62393256 -0.13043251
v 0.11826643 0.62397314 -0.13041865
v 0.11741735 0.62387476 -0.13186270
v 0.11848629 0.61814083 -0.13028828
v 0.11754020 0.61799485 -0.13203278
v 0.11844200 0.62402721 -0.13047079
v 0.11964323 0.61814432 -0.12920224
v 0.11843133 0.61824272 -0.13037191
v 0.11970138 0.62416353 -0.12910448
v 0.11962411 0.62400486 -0.12920207
v 0.11844878 0.62402894 -0.13042431
v 0.11956859 0.61810016 -0.12925489
v 0.11846500 0.61806116 -0.13028077
v 0.11954949 0.62404473 -0.12912029
v 0.12104304 0.61812522 -0.12862263
v 0.11960377 0.61812546 -0.12914739
v 0.12087903 0.62401496 -0.12849323
v 0.12100260 0.62393683 -0.12864670
v 0.11963996 0.62399654 -0.12923968
v 0.12098885 0.61825450 -0.12843333
v 0.11957040 0.61812956 -0.12917095
v 0.12094031 0.62391197 -0.12855473
v 0.12226078 0.61819411 -0.12847151
v 0.12106470 0.61797791 -0.12870171
v 0.12240603 0.62400112 -0.12841530
v 0.12244290 0.62396754 -0.12845679
v 0.12097556 0.62397903 -0.12847949
v 0.12232989 0.61812975 -0.12844053
v 0.12102196 0.61812975 -0.12851355
v 0.12235487 0.61813655 -0.12845778
v 0.12329059 0.62406367 -0.12879528
v 0.12348062 0.61816712 -0.12873902
v 0.12244396 0.62396164 -0.12848284
v 0.12241540 0.62402192 -0.12857568
v 0.12234155 0.61795223 -0.12833112
v 0.12359968 0.62397549 -0.12884570
v 0.12339693 0.61821593 -0.12882876
v 0.12328866 0.61816287 -0.12874559
v 0.12423297 0.62394866 -0.12946563
v 0.12436848 0.61809496 -0.12964742
v 0.12338418 0.62401805 -0.12878443
v 0.12354023 0.62400016 -0.12878098
v 0.12343853 0.61805627 -0.12878367
v 0.12418412 0.62398475 -0.12959669
v 0.12427598 0.61805630 -0.12943411
v 0.12431471 0.61822333 -0.12935364
v 0.12458518 0.62406674 -0.13054410
v 0.12452959 0.61816067 -0.13060181
v 0.12412612 0.62395302 -0.12954611
v 0.12427113 0.62392779 -0.12963666
v 0.12422096 0.61799195 -0.12952811
v 0.12475753 0.62399813 -0.13049665
v 0.12471829 0.61805516 -0.13036633
v 0.12457870 0.61811924 -0.13045752
v 0.12479039 0.62397124 -0.13165251
v 0.12479905 0.61808332 -0.13155325
v 0.12476504 0.62394625 -0.13046786
v 0.12459564 0.62393225 -0.13044657
v 0.12467451 0.61826497 -0.13055053
v 0.12463065 0.62401046 -0.13159009
v 0.12492595 0.61809573 -0.13166643
v 0.12474282 0.62411935 -0.13153033
v 0.12288573 0.61808559 -0.13948165
v 0.12482204 0.61810174 -0.13172074
v 0.12306430 0.62412334 -0.13949115
v 0.12283426 0.62409935 -0.13937374
v 0.12490460 0.62405903 -0.13169264
v 0.12297552 0.61823208 -0.13954815
v 0.12483888 0.61811765 -0.13159305
v 0.12097904 0.61806296 -0.14678018
v 0.12088352 0.62381327 -0.14686124
v 0.12083218 0.62399533 -0.14677508
v 0.12084067 0.61812999 -0.14684378
v 0.12096338 0.61804898 -0.14687225
v 0.12056704 0.62398285 -0.14994216
v 0.12057466 0.61809316 -0.14996988
v 0.12095665 0.62391585 -0.14677507
v 0.12094591 0.62390891 -0.14674904
v 0.12098959 0.61804156 -0.14681865
v 0.12062039 0.62392697 -0.14982022
v 0.12074482 0.61815403 -0.14993707
v 0.12055642 0.61804138 -0.14998847
v 0.12068605 0.62397897 -0.15252267
v 0.12070605 0.61818501 -0.15271417
v 0.12052012 0.62396906 -0.15003453
v 0.12058589 0.62403475 -0.14996898
v 0.12051884 0.61805421 -0.14989571
v 0.12072255 0.62410913 -0.15258067
v 0.12059307 0.61819314 -0.15254333
v 0.12051192 0.61815044 -0.15269767
v 0.12144720 0.62403004 -0.15510225
v 0.12152151 0.61824069 -0.15508672
v 0.12066955 0.62402357 -0.15280130
v 0.12071045 0.62393909 -0.15272829
v 0.12080910 0.61803025 -0.15282050
v 0.12143403 0.62399899 -0.15498013
v 0.12151785 0.61805162 -0.15520935
v 0.12130494 0.61803016 -0.15502702
v 0.12277009 0.62394436 -0.15732748
v 0.12255110 0.61805485 -0.15743735
v 0.12144215 0.62402972 -0.15514937
v 0.12151912 0.62399139 -0.15490524
v 0.12144027 0.61820568 -0.15517018
v 0.12271645 0.62386555 -0.15754106
v 0.12278072 0.61807442 -0.15734245
v 0.12278317 0.61815204 -0.15747057
v 0.12414184 0.62404331 -0.15943510
v 0.12416352 0.61822011 -0.15942014
v 0.12265466 0.62396640 -0.15737167
v 0.12265641 0.62398796 -0.15743848
v 0.12265862 0.61808948 -0.15737871
v 0.12425129 0.62412790 -0.15943232
v 0.12417393 0.61810111 -0.15945047
v 0.12432578 0.61814586 -0.15946891
v 0.12607569 0.62393481 -0.16072588
v 0.12601247 0.61805015 -0.16101608
v 0.12433094 0.62407560 -0.15936991
v 0.12425374 0.62396484 -0.15935212
v 0.12426954 0.61824289 -0.15938870
v 0.12610897 0.62393801 -0.16100372
v 0.12614783 0.61819939 -0.16098255
v 0.12612885 0.61814895 -0.16102455
v 0.12811753 0.62390483 -0.16193991
v 0.12814126 0.61824306 -0.16195540
v 0.12617783 0.62412516 -0.16086309
v 0.12607687 0.62400140 -0.16084977
v 0.12598434 0.61818103 -0.16090828
v 0.12830593 0.62400230 -0.16181367
v 0.12824574 0.61810024 -0.16181192
v 0.12832959 0.61794708 -0.16189917
v 0.13058592 0.62394530 -0.16249133
v 0.13055875 0.61807373 -0.16261574
v 0.12826214 0.62387566 -0.16194925
v 0.12819991 0.62396596 -0.16190569
v 0.12814468 0.61818272 -0.16194544
v 0.13055418 0.62410849 -0.16247690
v 0.13046357 0.61805811 -0.16257374
v 0.13054827 0.62394870 -0.16257025
v 0.13302493 0.61826896 -0.16273424
v 0.13058393 0.61809887 -0.16256910
v 0.13308786 0.62387286 -0.16266267
v 0.13296024 0.62406342 -0.16270343
v 0.13053102 0.62393882 -0.16256387
v 0.13280888 0.61820881 -0.16263349
v 0.13050084 0.61816324 -0.16244871
v 0.13287734 0.62398979 -0.16269556
v 0.13546971 0.61801271 -0.16249065
v 0.13299241 0.61811656 -0.16258237
v 0.13529662 0.62403346 -0.16236481
v 0.13535488 0.62397891 -0.16231626
v 0.13293902 0.62401923 -0.16260520
v 0.13549424 0.61804781 -0.16226832
v 0.13298050 0.61811975 -0.16269540
v 0.13546345 0.62395955 -0.16238489
v 0.13794445 0.61807896 -0.16152007
v 0.13554940 0.61805302 -0.16244349
v 0.13777146 0.62394312 -0.16136404
v 0.13788976 0.62397736 -0.16164812
v 0.13540429 0.62401871 -0.16248538
v 0.13779301 0.61812934 -0.16143808
v 0.13552421 0.61807800 -0.16238566
v 0.13778894 0.62405267 -0.16139994
v 0.14019664 0.61797080 -0.16014375
v 0.13794388 0.61821569 -0.16139894
v 0.14029755 0.62400813 -0.16011540
v 0.14045381 0.62409321 -0.16011030
v 0.13786827 0.62383678 -0.16164322
v 0.14033450 0.61817314 -0.16014907
v 0.13789778 0.61807762 -0.16148837
v 0.14036290 0.62397748 -0.15994368
v 0.14370492 0.61825014 -0.15716636
v 0.14027118 0.61807485 -0.16009118
v 0.14374838 0.62399241 -0.15736330
v 0.14343885 0.62397421 -0.15723848
v 0.14037304 0.62395558 -0.16010819
v 0.14373359 0.61831045 -0.15719069
v 0.14047895 0.61805161 -0.16008609
v 0.14362878 0.62397612 -0.15723460
v 0.14569776 0.61799438 -0.15369556
v 0.14366927 0.61805720 -0.15715185
v 0.14555542 0.62404444 -0.15377276
v 0.14576294 0.62398097 -0.15372129
v 0.14364708 0.62393809 -0.15711453
v 0.14557441 0.61797564 -0.15394898
v 0.14351681 0.61814650 -0.15733273
v 0.14568032 0.62381448 -0.15382353
v 0.14660169 0.61819356 -0.14973054
v 0.14565434 0.61807003 -0.15388005
v 0.14668248 0.62415658 -0.14954216
v 0.14669564 0.62414977 -0.14953118
v 0.14564669 0.62400410 -0.15379255
v 0.14659936 0.61800289 -0.14954231
v 0.14556058 0.61812023 -0.15380994
v 0.14656475 0.62388382 -0.14470146
v 0.14666113 0.61793381 -0.14968187
v 0.14657116 0.62404160 -0.14972737
v 0.14663924 0.61796722 -0.14459400
v 0.14650726 0.61810728 -0.14473373
v 0.14651027 0.62387944 -0.14469568
v 0.14671367 0.61808103 -0.14963485
v 0.14660007 0.62398739 -0.14968925
v 0.14659241 0.62391548 -0.14461357
v 0.13866445 0.61825185 -0.14495629
v 0.14653603 0.61810142 -0.14480514
v 0.13867433 0.62396139 -0.14498624
v 0.13851752 0.62406520 -0.14505015
v 0.14660417 0.62396817 -0.14476978
v 0.13860696 0.61800031 -0.14499645
v 0.14663289 0.61805053 -0.14473370
v 0.13861709 0.61797041 -0.14512841
v 0.13849955 0.62401318 -0.14811565
v 0.13865255 0.61810213 -0.14817027
v 0.13841355 0.62411239 -0.14507288
v 0.13858366 0.62401348 -0.14511865
v 0.13848641 0.61817258 -0.14516304
v 0.13866860 0.62389323 -0.14793260
v 0.13855149 0.61808781 -0.14801288
v 0.13858081 0.61805117 -0.14791420
v 0.13811897 0.62396747 -0.15063231
v 0.13819551 0.61820080 -0.15046539
v 0.13867221 0.62387013 -0.14799072
v 0.13860327 0.62400851 -0.14801895
v 0.13861308 0.61808774 -0.14812990
v 0.13808720 0.62405832 -0.15056326
v 0.13811489 0.61815897 -0.15038187
v 0.13822462 0.62403680 -0.15047523
v 0.13725928 0.61816675 -0.15238924
v 0.13812041 0.61807794 -0.15053365
v 0.13726972 0.62401750 -0.15235544
v 0.13722345 0.62403636 -0.15227036
v 0.13812992 0.62405548 -0.15046016
v 0.13728596 0.61806007 -0.15239163
v 0.13815947 0.61812468 -0.15041497
v 0.13725117 0.62395090 -0.15234419
v 0.13569406 0.61811982 -0.15374268
v 0.13725608 0.61821678 -0.15238262
v 0.13596554 0.62399475 -0.15379252
v 0.13573463 0.62401778 -0.15383681
v 0.13742796 0.62409816 -0.15236346
v 0.13591605 0.61815581 -0.15382338
v 0.13724967 0.61822967 -0.15233632
v 0.13581471 0.62412196 -0.15388774
v 0.13397350 0.61809490 -0.15448255
v 0.13590417 0.61813967 -0.15372941
v 0.13406228 0.62383563 -0.15457852
v 0.13394802 0.62402997 -0.15456328
v 0.13596622 0.62400101 -0.15380318
v 0.13392989 0.61820044 -0.15460066
v 0.13573343 0.61811830 -0.15372667
v 0.13407768 0.62405101 -0.15468469
v 0.13216204 0.61810245 -0.15466935
v 0.13407532 0.61805765 -0.15461527
v 0.13224934 0.62385601 -0.15472388
v 0.13222291 0.62413291 -0.15473523
v 0.13409546 0.62400416 -0.15445088
v 0.13234788 0.61807310 -0.15468427
v 0.13406388 0.61817491 -0.15462031
v 0.13053797 0.62388423 -0.15415652
v 0.13209789 0.61796105 -0.15479304
v 0.13227113 0.62394408 -0.15475153
v 0.13066675 0.61803671 -0.15423487
v 0.13060022 0.61803617 -0.15421326
v 0.13058681 0.62402111 -0.15425018
v 0.13214465 0.61813891 -0.15484686
v 0.13217228 0.62404439 -0.15474548
v 0.12950917 0.62398210 -0.15318278
v 0.13068630 0.61813072 -0.15440238
v 0.13074776 0.62383940 -0.15424284
v 0.12960302 0.61815208 -0.15319302
v 0.12937600 0.61822324 -0.15303369
v 0.12940472 0.62394432 -0.15308541
v 0.13061732 0.61810422 -0.15431337
v 0.13059222 0.62389438 -0.15430458
v 0.12888896 0.62398184 -0.15190701
v 0.12943138 0.61803267 -0.15317230
v 0.12944599 0.62403732 -0.15307445
v 0.12890907 0.61803057 -0.15172370
v 0.12899532 0.61825367 -0.15179320
v 0.12906165 0.62401638 -0.15191791
v 0.12940084 0.61809512 -0.15321777
v 0.12938440 0.62407424 -0.15324157
v 0.12867757 0.62391201 -0.15025075
v 0.12892631 0.61804875 -0.15194987
v 0.12885410 0.62401385 -0.15188363
v 0.12886908 0.61813837 -0.15024082
v 0.12876468 0.61808879 -0.15009031
v 0.12872614 0.62412739 -0.15014146
v 0.12886512 0.61826282 -0.15195199
v 0.12884039 0.62397660 -0.15182297
v 0.12868692 0.62403008 -0.15018595
v 0.13022330 0.61816637 -0.14371512
v 0.12886506 0.61801244 -0.15012815
v 0.13030385 0.62398035 -0.14381110
v 0.13018005 0.62397490 -0.14386420
v 0.12878420 0.62393243 -0.15015368
v 0.13028727 0.61813341 -0.14369372
v 0.12877182 0.61806721 -0.15012276
v 0.13220249 0.61814514 -0.13632651
v 0.13220668 0.62389321 -0.13636118
v 0.13230147 0.62413510 -0.13644770
v 0.13226472 0.61818025 -0.13640612
v 0.13286575 0.62404524 -0.13129525
v 0.13219383 0.61807940 -0.13627176
v 0.13212077 0.62379482 -0.13648583
v 0.13277432 0.61799651 -0.13165016
v 0.13273627 0.61805792 -0.13140710
v 0.13271565 0.62405892 -0.13163132
v 0.13215937 0.61802082 -0.13643276
v 0.13227925 0.62402006 -0.13646002
v 0.13231244 0.62386013 -0.12815805
v 0.13278016 0.61798677 -0.13163255
v 0.13284023 0.62407342 -0.13147019
v 0.13223167 0.61828761 -0.12802437
v 0.13229015 0.61822138 -0.12790494
v 0.13225713 0.62390687 -0.12789779
v 0.13271195 0.61811370 -0.13135013
v 0.13264180 0.62404202 -0.13140069
v 0.13109207 0.62396743 -0.12527615
v 0.13229369 0.61809039 -0.12812979
v 0.13218929 0.62408356 -0.12785928
v 0.13100685 0.61807525 -0.12514372
v 0.13094777 0.61816490 -0.12513880
v 0.13094941 0.62397468 -0.12509916
v 0.13222629 0.61810653 -0.12812276
v 0.13233232 0.62408948 -0.12807228
v 0.12971930 0.62385352 -0.12344038
v 0.13097878 0.61821501 -0.12532915
v 0.13104628 0.62400492 -0.12514376
v 0.12969863 0.61808197 -0.12343984
v 0.12965353 0.61807392 -0.12361457
v 0.12965021 0.62404794 -0.12364141
v 0.13097632 0.61805665 -0.12510248
v 0.13102026 0.62396459 -0.12506290
v 0.12390296 0.62396839 -0.12073490
v 0.12155712 0.61817888 -0.12048300
v 0.12375639 0.61811709 -0.12077923
v 0.12159315 0.62387740 -0.12070478
v 0.12150065 0.62385323 -0.12060334
v 0.12395670 0.62406095 -0.12086537
v 0.12168949 0.61806623 -0.12059055
v 0.12386141 0.61818578 -0.12092625
v 0.12161599 0.62407484 -0.12064733
v 0.11941981 0.61818991 -0.12095666
v 0.12180244 0.61825003 -0.12064953
v 0.11942236 0.62389148 -0.12104492
v 0.11928913 0.62410557 -0.12092191
v 0.12169962 0.62395628 -0.12060650
v 0.11947696 0.61825974 -0.12095716
v 0.12171957 0.61808923 -0.12047769
v 0.11951351 0.62398745 -0.12102501
v 0.11727204 0.61799480 -0.12151648
v 0.11957113 0.61802503 -0.12087648
v 0.11721134 0.62400445 -0.12163261
v 0.11740769 0.62389771 -0.12156684
v 0.11946308 0.62409558 -0.12097350
v 0.11736136 0.61827133 -0.12162352
v 0.11936034 0.61830495 -0.12088865
v 0.11732314 0.62414105 -0.12176851
v 0.11517033 0.61804636 -0.12285197
v 0.11725837 0.61811042 -0.12167321
v 0.11519767 0.62402008 -0.12276637
v 0.11524269 0.62385285 -0.12285021
v 0.11724145 0.62392343 -0.12163911
v 0.11524296 0.61795138 -0.12277938
v 0.11730361 0.61810690 -0.12170959
v 0.11504133 0.62396793 -0.12278150
v 0.11278445 0.61815657 -0.12488083
v 0.11518540 0.61816483 -0.12286298
v 0.11293845 0.62393847 -0.12489115
v 0.11276405 0.62389079 -0.12472189
v 0.11517192 0.62409925 -0.12271443
v 0.11265721 0.61799614 -0.12478183
v 0.11524357 0.61806847 -0.12280528
v 0.11277410 0.62417809 -0.12487461
v 0.11098318 0.61817877 -0.12751719
v 0.11272550 0.61816993 -0.12495600
v 0.11085570 0.62413808 -0.12747747
v 0.11090351 0.62396026 -0.12732819
v 0.11283084 0.62389987 -0.12480302
v 0.11096545 0.61828582 -0.12727173
v 0.11290493 0.61822365 -0.12484492
v 0.11097900 0.62389396 -0.12755488
v 0.10972627 0.61814797 -0.13094088
v 0.11097287 0.61816403 -0.12749482
v 0.10957305 0.62400264 -0.13086331
v 0.10959932 0.62405258 -0.13089357
v 0.11101755 0.62392115 -0.12751220
v 0.10959735 0.61819809 -0.13083587
v 0.11099365 0.61815635 -0.12750791
v 0.10969176 0.61806009 -0.13073480
v 0.10875297 0.62386275 -0.13537750
v 0.10880097 0.61815284 -0.13532412
v 0.10948230 0.62398171 -0.13077040
v 0.10971518 0.62406240 -0.13085299
v 0.10973631 0.61816908 -0.13088374
v 0.10892771 0.62403330 -0.13546655
v 0.10877917 0.61823765 -0.13549733
vt -0.1881906 0.04249006
vt -0.1773302 0
vt -0.1773302 0.04249006
vt -0.1881906 0
vt -0.05845099 0.2297684
vt -0.05138641 0.1764167
vt -0.04719213 0.2267015
vt -0.05269581 0.1816637
vt -0.05662402 0.1863504
vt -0.06260968 0.1896554
vt -0.07072867 0.2307907
vt -0.07009148 0.1907571
vt -0.07850922 0.189338
vt -0.08678838 0.2288861
vt -0.08685228 0.1850807
vt -0.1020621 0.2231724
vt -0.09512065 0.1779852
vt -0.1033143 0.1680515
vt -0.1175599 0.2124171
vt -0.1342918 0.1953879
vt -0.01139614 0.1862431
vt -0.01292567 0.1593688
vt -0.01030716 0.1752217
vt -0.01466308 0.1964522
vt -0.0207812 0.1434786
vt -0.02010797 0.2058491
vt -0.02773083 0.2144337
vt -0.03761523 0.1242274
vt -0.03695207 0.2215899
vt -0.05232178 0.1710391
vt -0.06716925 0.09829145
vt -0.05512789 0.1659602
vt -0.08580196 0.1377275
vt -0.09156005 0.07543645
vt -0.1148329 0.1124825
vt -0.09571233 0.06796749
vt -0.09709642 0.06049854
vt -0.0979498 0.004406684
vt -0.109427 0.009915038
vt -0.1194834 0.01762673
vt -0.1256996 0.09991595
vt -0.1276613 0.02702828
vt -0.1328634 0.0879096
vt -0.1335026 0.03760619
vt -0.1368476 0.07564184
vt -0.1370074 0.04936046
vt -0.1381757 0.06229109
vt -0.03515777 0.06886377
vt -0.01366469 0.02629072
vt 0 0.04765193
vt -0.02983381 0.01150219
vt -0.04876936 0.002875548
vt -0.04338675 0.05611986
vt -0.05221383 0.04701707
vt -0.07073334 0
vt -0.06163901 0.0415554
vt -0.07166229 0.03973484
vt -0.08505193 0.001101671
vt -0.08157383 0.04130332
vt -0.08976517 0.04600876
vt -0.09526361 0.05276817
vt -0.1915747 0.04249006
vt -0.1808556 0
vt -0.1808556 0.04249006
vt -0.1915747 0
vt 0.01366469 0.02629072
vt 0.03515777 0.06886377
vt 0.02983381 0.01150219
vt 0.04876936 0.002875548
vt 0.04338675 0.05611986
vt 0.05221383 0.04701707
vt 0.07073334 0
vt 0.06163901 0.0415554
vt 0.07166229 0.03973484
vt 0.08505193 0.001101671
vt 0.08157383 0.04130332
vt 0.08976517 0.04600876
vt 0.0979498 0.004406684
vt 0.09526361 0.05276817
vt 0.09709642 0.06049854
vt 0.01292567 0.1593688
vt 0.01139614 0.1862431
vt 0.01030716 0.1752217
vt 0.01466308 0.1964522
vt 0.0207812 0.1434786
vt 0.02010797 0.2058491
vt 0.02773083 0.2144337
vt 0.03761523 0.1242274
vt 0.03695207 0.2215899
vt 0.04719213 0.2267015
vt 0.05138641 0.1764167
vt 0.05232178 0.1710391
vt 0.06716925 0.09829145
vt 0.05512789 0.1659602
vt 0.08580196 0.1377275
vt 0.09156005 0.07543645
vt 0.1148329 0.1124825
vt 0.09571233 0.06796749
vt 0.109427 0.009915038
vt 0.1194834 0.01762673
vt 0.1256996 0.09991595
vt 0.1276613 0.02702828
vt 0.1328634 0.0879096
vt 0.1335026 0.03760619
vt 0.1368476 0.07564184
vt 0.1370074 0.04936046
vt 0.1381757 0.06229109
vt 0.05845099 0.2297684
vt 0.05269581 0.1816637
vt 0.05662402 0.1863504
vt 0.06260968 0.1896554
vt 0.07072867 0.2307907
vt 0.07009148 0.1907571
vt 0.07850922 0.189338
vt 0.08678838 0.2288861
vt 0.08685228 0.1850807
vt 0.1020621 0.2231724
vt 0.09512065 0.1779852
vt 0.1033143 0.1680515
vt 0.1175599 0.2124171
vt 0.1342918 0.1953879
vt -0.1787559 0.04249006
vt -0.1672753 0
vt -0.1672753 0.04249006
vt -0.1787559 0
vt 0.2299734 0.04249006
vt 0.1886589 0
vt 0.2299734 0
vt 0.1886589 0.04249006
vt -0.07677814 0.04249006
vt -0.06390122 0
vt -0.06390122 0.04249006
vt -0.07677814 0
vt -0.04372471 0.04249006
vt -0.05462022 0
vt -0.04372471 0
vt -0.05462022 0.04249006
vt -0.006761491 0.04249006
vt -0.01612799 0
vt -0.006761491 0
vt -0.01612799 0.04249006
vt 0.0459415 0.04249006
vt 0.03740497 0
vt 0.0459415 0
vt 0.03740497 0.04249006
vt 0.09713252 0.04249006
vt 0.08957006 0
vt 0.09713252 0
vt 0.08957006 0.04249006
vt 0.1464827 0.04249006
vt 0.1396452 0
vt 0.1464827 0
vt 0.1396452 0.04249006
vt 0.1791926 0
vt 0.1730773 0.04249006
vt 0.1730773 0
vt 0.1791926 0.04249006
vt 0.1890173 0
vt 0.1836094 0.04249006
vt 0.1836094 0
vt 0.1890173 0.04249006
vt 0.1650014 0
vt 0.159543 0.04249006
vt 0.159543 0
vt 0.1650014 0.04249006
vt 0.1244057 0
vt 0.1186032 0.04249006
vt 0.1186032 0
vt 0.1244057 0.04249006
vt 0.07182932 0.04249006
vt 0.03014022 0
vt 0.07182932 0
vt 0.03014022 0.04249006
vt 0.0256298 0.04249006
vt -0.01284235 0
vt 0.0256298 0
vt -0.01284235 0.04249006
vt 0.009971097 0
vt -0.006642257 0.04249006
vt -0.006642257 0
vt 0.009971097 0.04249006
vt 0.02139607 0
vt 0.007414942 0.04249006
vt 0.007414942 0
vt 0.02139607 0.04249006
vt 0.04257051 0
vt 0.02967199 0.04249006
vt 0.02967199 0
vt 0.04257051 0.04249006
vt 0.06172422 0
vt 0.04830757 0.04249006
vt 0.04830757 0
vt 0.06172422 0.04249006
vt 0.07447173 0
vt 0.06148843 0.04249006
vt 0.06148843 0
vt 0.07447173 0.04249006
vt 0.08645101 0
vt 0.07418535 0.04249006
vt 0.07418535 0
vt 0.08645101 0.04249006
vt 0.09745666 0
vt 0.08537307 0.04249006
vt 0.08537307 0
vt 0.09745666 0.04249006
vt 0.1041766 0
vt 0.09171605 0.04249006
vt 0.09171605 0
vt 0.1041766 0.04249006
vt 0.1055411 0.04249006
vt 0.09286818 0
vt 0.1055411 0
vt 0.09286818 0.04249006
vt 0.1029434 0.04249006
vt 0.09021279 0
vt 0.1029434 0
vt 0.09021279 0.04249006
vt 0.09597806 0.04249006
vt 0.08266347 0
vt 0.09597806 0
vt 0.08266347 0.04249006
vt 0.08488581 0.04249006
vt 0.0705249 0
vt 0.08488581 0
vt 0.0705249 0.04249006
vt 0.07013483 0.04249006
vt 0.04798341 0
vt 0.07013483 0
vt 0.04798341 0.04249006
vt 0.04318854 0.04249006
vt 0.02238051 0
vt 0.04318854 0
vt 0.02238051 0.04249006
vt 0.01425174 0.04249006
vt -0.00766038 0
vt 0.01425174 0
vt -0.00766038 0.04249006
vt -0.0401414 0.04249006
vt -0.01478346 0
vt -0.01478346 0.04249006
vt -0.0401414 0
vt -0.02461663 0.04249006
vt -0.06567769 0
vt -0.02461663 0
vt -0.06567769 0.04249006
vt 0.03877969 0
vt 0.02360988 0.04249006
vt 0.02360988 0
vt 0.03877969 0.04249006
vt 0.01008444 0
vt -0.002595394 0.04249006
vt -0.002595394 0
vt 0.01008444 0.04249006
vt -0.02160346 0.04249006
vt -0.03249675 0
vt -0.02160346 0
vt -0.03249675 0.04249006
vt -0.05322042 0.04249006
vt -0.06340769 0
vt -0.05322042 0
vt -0.06340769 0.04249006
vt -0.07699218 0.04249006
vt -0.08702705 0
vt -0.07699218 0
vt -0.08702705 0.04249006
vt -0.09130741 0.04249006
vt -0.1007541 0
vt -0.09130741 0
vt -0.1007541 0.04249006
vt -0.1010499 0.04249006
vt -0.09233653 0
vt -0.09233653 0.04249006
vt -0.1010499 0
vt -0.08126648 0.04249006
vt -0.07332181 0
vt -0.07332181 0.04249006
vt -0.08126648 0
vt -0.04938992 0.04249006
vt -0.0417938 0
vt -0.0417938 0.04249006
vt -0.04938992 0
vt -0.02144378 0.04249006
vt -0.01289821 0
vt -0.01289821 0.04249006
vt -0.02144378 0
vt 0.0152316 0.04249006
vt -0.01819388 0
vt 0.0152316 0
vt -0.01819388 0.04249006
vt -0.0143477 0.04249006
vt -0.05366835 0
vt -0.0143477 0
vt -0.05366835 0.04249006
vt -0.09432913 0.04249006
vt -0.06875582 0
vt -0.06875582 0.04249006
vt -0.09432913 0
vt -0.1371363 0.04249006
vt -0.1194103 0
vt -0.1194103 0.04249006
vt -0.1371363 0
vt -0.1711995 0.04249006
vt -0.1551318 0
vt -0.1551318 0.04249006
vt -0.1711995 0
vt -0.1864611 0.04249006
vt -0.1753861 0
vt -0.1753861 0.04249006
vt -0.1864611 0
vt -0.1533753 0.04249006
vt -0.1650476 0
vt -0.1533753 0
vt -0.1650476 0.04249006
vt -0.1320288 0.04249006
vt -0.1434737 0
vt -0.1320288 0
vt -0.1434737 0.04249006
vt -0.1051159 0.04249006
vt -0.116785 0
vt -0.1051159 0
vt -0.116785 0.04249006
vt -0.07731533 0.04249006
vt -0.0896355 0
vt -0.07731533 0
vt -0.0896355 0.04249006
vt -0.04305658 0.04249006
vt -0.05922883 0
vt -0.04305658 0
vt -0.05922883 0.04249006
vt -0.001090501 0.04249006
vt -0.01739797 0
vt -0.001090501 0
vt -0.01739797 0.04249006
vt 0.04339161 0.04249006
vt 0.02452741 0
vt 0.04339161 0
vt 0.02452741 0.04249006
vt 0.06912617 0
vt 0.04525252 0.04249006
vt 0.04525252 0
vt 0.06912617 0.04249006
vn 0.43688486604926674 3.2359748123175345e-8 0.8995174338594628
vn -0.43688486604926674 -3.2359748123175345e-8 -0.8995174338594628
vn 0 -1 3.5974561662932485e-8
vn 0 1 -3.5974561662932485e-8
vn 0.6190788275282002 2.825186414870509e-8 0.7853288516960957
vn -0.6190788275282002 -2.825186414870509e-8 -0.7853288516960957
vn 0.2485695630330779 3.484546818327974e-8 0.9686140471485758
vn -0.2485695630330779 -3.484546818327974e-8 -0.9686140471485758
vn -0.12923557018538903 -3.5672878307584965e-8 -0.9916139205350317
vn 0.12923557018538903 3.5672878307584965e-8 0.9916139205350317
vn 0.9953655785154318 -3.459427555132818e-9 -0.09616322117441496
vn -0.9953655785154318 3.459427555132818e-9 0.09616322117441496
vn 0.9642400653211893 -9.534349565555768e-9 -0.26503036888135784
vn -0.9642400653211893 9.534349565555768e-9 0.26503036888135784
vn 0.8748635615262226 -1.7424976918765188e-8 -0.4843694341240506
vn -0.8748635615262226 1.7424976918765188e-8 0.4843694341240506
vn 0.6891477472673591 -2.606791734031556e-8 -0.7246208542654038
vn -0.6891477472673591 2.606791734031556e-8 0.7246208542654038
vn 0.43237657118539174 -3.243801578456681e-8 -0.9016931300004248
vn -0.43237657118539174 3.243801578456681e-8 0.9016931300004248
vn 0.08877896257932755 -3.5832512451422646e-8 -0.9960513519911196
vn -0.08877896257932755 3.5832512451422646e-8 0.9960513519911196
vn -0.2761166073265582 -3.457602223257166e-8 -0.9611241434687144
vn 0.2761166073265582 3.457602223257166e-8 0.9611241434687144
vn -0.6688875008048645 -2.674218433334913e-8 -0.743363646721456
vn 0.6688875008048645 2.674218433334913e-8 0.743363646721456
vn -0.9125649385996957 -1.4711145881468384e-8 -0.408931819303088
vn 0.9125649385996957 1.4711145881468384e-8 0.408931819303088
vn -0.9960715765330332 -3.185613320972234e-9 -0.08855176126423252
vn 0.9960715765330332 3.185613320972234e-9 0.08855176126423252
vn -0.9728719336880244 8.322509124504063e-9 0.23134433349905978
vn -0.9695106203974388 8.81553913774359e-9 0.24504929491139704
vn 0.9695106203974388 -8.81553913774359e-9 -0.24504929491139704
vn 0.9728719336880244 -8.322509124504063e-9 -0.23134433349905978
vn -0.9659562441398267 9.306815071989928e-9 0.2587054974430951
vn 0.9659562441398267 -9.306815071989928e-9 -0.2587054974430951
vn -0.9928560374174147 4.292426277328622e-9 0.11931843513803402
vn 0.9928560374174147 -4.292426277328622e-9 -0.11931843513803402
vn -0.9984624816170071 -1.994133395628795e-9 -0.05543169493356487
vn 0.9984624816170071 1.994133395628795e-9 0.05543169493356487
vn -0.9612081459019939 -9.922651679499945e-9 -0.2758240385674366
vn 0.9612081459019939 9.922651679499945e-9 0.2758240385674366
vn -0.8802736399101883 -1.7068722004866085e-8 -0.47446635168288576
vn 0.8802736399101883 1.7068722004866085e-8 0.47446635168288576
vn -0.7752867170263474 -2.2721876391636268e-8 -0.6316094571826073
vn 0.7752867170263474 2.2721876391636268e-8 0.6316094571826073
vn -0.6346023280721396 -2.780254175903698e-8 -0.772838848147154
vn 0.6346023280721396 2.780254175903698e-8 0.772838848147154
vn -0.45533355125728064 -3.202890792811771e-8 -0.8903209292718175
vn 0.45533355125728064 3.202890792811771e-8 0.8903209292718175
vn -0.2584593955580299 -3.475222484290044e-8 -0.9660221223387053
vn 0.2584593955580299 3.475222484290044e-8 0.9660221223387053
vn -0.060728448937763156 -3.590816632298629e-8 -0.9981543244857541
vn 0.060728448937763156 3.590816632298629e-8 0.9981543244857541
vn 0.14539081577502 -3.559230838054526e-8 -0.9893743026217494
vn -0.14539081577502 3.559230838054526e-8 0.9893743026217494
vn 0.3358359569237418 -3.3885177742465455e-8 -0.941920490294756
vn -0.3358359569237418 3.3885177742465455e-8 0.941920490294756
vn 0.49386188531015185 -3.1281333783090944e-8 -0.8695403603271682
vn -0.49386188531015185 3.1281333783090944e-8 0.8695403603271682
vn 0.6619966576659972 -2.6963178008774462e-8 -0.7495067879873056
vn -0.6619966576659972 2.6963178008774462e-8 0.7495067879873056
vn 0.852523459949127 -1.8803505236276388e-8 -0.5226889612727331
vn -0.852523459949127 1.8803505236276388e-8 0.5226889612727331
vn 0.9721394443644595 -8.432553624505131e-9 -0.23440328647602193
vn -0.9721394443644595 8.432553624505131e-9 0.23440328647602193
vn 0.9997042887409074 0 0.024317382117248175
vn -0.9997042887409074 0 -0.024317382117248175
vn -0.05051252082956542 3.592863930305551e-8 0.9987234278014318
vn 0.05051252082956542 -3.592863930305551e-8 -0.9987234278014318
vn -0.9997988706671739 0 -0.02005537864623652
vn 0.9997988706671739 0 0.02005537864623652
vn -0.9844379734047585 6.321894072461521e-9 0.1757324003100519
vn 0.9844379734047585 -6.321894072461521e-9 -0.1757324003100519
vn -0.8994523227359263 1.57215620684762e-8 0.43701890019191014
vn 0.8994523227359263 -1.57215620684762e-8 -0.43701890019191014
vn -0.6982659724464515 2.575197278199824e-8 0.7158384117406741
vn 0.6982659724464515 -2.575197278199824e-8 -0.7158384117406741
vn -0.42265980971290473 3.260332906252494e-8 0.9062884117395797
vn 0.42265980971290473 -3.260332906252494e-8 -0.9062884117395797
vn -0.07191951377420767 3.588140504811512e-8 0.9974104388557804
vn 0.07191951377420767 -3.588140504811512e-8 -0.9974104388557804
vn 0.2901972322300011 3.4426465718613745e-8 0.9569668575274933
vn -0.2901972322300011 -3.4426465718613745e-8 -0.9569668575274933
vn 0.6775872294294112 2.6457221517913687e-8 0.7354424154984358
vn -0.6775872294294112 -2.6457221517913687e-8 -0.7354424154984358
vn 0.9170166313502258 1.4348419651752077e-8 0.39884896618530163
vn -0.9170166313502258 -1.4348419651752077e-8 -0.39884896618530163
vn 0.9963007477569218 3.09147559674913e-9 0.08593497552800147
vn -0.9963007477569218 -3.09147559674913e-9 -0.08593497552800147
vn 0.9748986605284111 -8.009700271361607e-9 -0.22264905501688018
vn 0.9711375678115532 -8.580653162046189e-9 -0.23852007124152194
vn -0.9711375678115532 8.580653162046189e-9 0.23852007124152194
vn -0.9748986605284111 8.009700271361607e-9 0.22264905501688018
vn 0.9671181600782338 -9.14931761605935e-9 -0.25432747481719575
vn -0.9671181600782338 9.14931761605935e-9 0.25432747481719575
vn 0.9921816224614173 -4.48970793655887e-9 -0.1248023559466319
vn -0.9921816224614173 4.48970793655887e-9 0.1248023559466319
vn 0.9909934082913746 4.817379875477402e-9 0.13391065948252567
vn -0.9909934082913746 -4.817379875477402e-9 -0.13391065948252567
vn 0.9090489929752648 1.4990215940407334e-8 0.41668924676628805
vn -0.9090489929752648 -1.4990215940407334e-8 -0.41668924676628805
vn 0.7699648396370707 2.2954878521566162e-8 0.6380863152604509
vn -0.7699648396370707 -2.2954878521566162e-8 -0.6380863152604509
vn 0.06649277825275203 3.589494862877715e-8 0.9977869063283147
vn -0.06649277825275203 -3.589494862877715e-8 -0.9977869063283147
vn -0.13002694748853583 3.566915575783491e-8 0.9915104603214292
vn 0.13002694748853583 -3.566915575783491e-8 -0.9915104603214292
vn -0.321575765626293 3.406373250520518e-8 0.9468838508295843
vn 0.321575765626293 -3.406373250520518e-8 -0.9468838508295843
vn -0.4883871153530195 3.1392377288185773e-8 0.8726270827548016
vn 0.4883871153530195 -3.1392377288185773e-8 -0.8726270827548016
vn -0.6528507807704701 2.725024612076934e-8 0.7574865398456837
vn 0.6528507807704701 -2.725024612076934e-8 -0.7574865398456837
vn -0.8141577155221423 2.0888405101213722e-8 0.5806437929193473
vn 0.8141577155221423 -2.0888405101213722e-8 -0.5806437929193473
vn -0.932044638732754 1.3035146039717994e-8 0.3623434715977784
vn 0.932044638732754 -1.3035146039717994e-8 -0.3623434715977784
vn -0.9832618907758828 6.554485569377774e-9 0.18219784342257145
vn 0.9832618907758828 -6.554485569377774e-9 -0.18219784342257145
usemtl material_0_0
f 1/1/1 2/2/1 3/3/1
f 2/2/1 1/1/1 4/4/1
f 5/4/2 6/1/2 7/2/2
f 8/3/2 7/2/2 6/1/2
f 9/5/3 10/6/3 11/7/3
f 10/6/3 9/5/3 12/8/3
f 12/8/3 9/5/3 13/9/3
f 13/9/3 9/5/3 14/10/3
f 14/10/3 9/5/3 15/11/3
f 14/10/3 15/11/3 16/12/3
f 16/12/3 15/11/3 17/13/3
f 17/13/3 15/11/3 18/14/3
f 17/13/3 18/14/3 19/15/3
f 19/15/3 18/14/3 20/16/3
f 19/15/3 20/16/3 21/17/3
f 21/17/3 20/16/3 22/18/3
f 22/18/3 20/16/3 23/19/3
f 22/18/3 23/19/3 24/20/3
f 25/21/3 26/22/3 27/23/3
f 26/22/3 25/21/3 28/24/3
f 26/22/3 28/24/3 29/25/3
f 29/25/3 28/24/3 30/26/3
f 29/25/3 30/26/3 31/27/3
f 29/25/3 31/27/3 32/28/3
f 32/28/3 31/27/3 33/29/3
f 32/28/3 33/29/3 11/7/3
f 32/28/3 11/7/3 10/6/3
f 32/28/3 10/6/3 34/30/3
f 32/28/3 34/30/3 35/31/3
f 35/31/3 34/30/3 36/32/3
f 35/31/3 36/32/3 37/33/3
f 35/31/3 37/33/3 38/34/3
f 38/34/3 37/33/3 39/35/3
f 38/34/3 39/35/3 40/36/3
f 40/36/3 39/35/3 41/37/3
f 41/37/3 39/35/3 42/38/3
f 42/38/3 39/35/3 43/39/3
f 43/39/3 39/35/3 44/40/3
f 44/40/3 39/35/3 45/41/3
f 44/40/3 45/41/3 46/42/3
f 46/42/3 45/41/3 47/43/3
f 46/42/3 47/43/3 48/44/3
f 48/44/3 47/43/3 49/45/3
f 48/44/3 49/45/3 50/46/3
f 50/46/3 49/45/3 51/47/3
f 52/48/3 53/49/3 54/50/3
f 53/49/3 52/48/3 55/51/3
f 55/51/3 52/48/3 56/52/3
f 56/52/3 52/48/3 57/53/3
f 56/52/3 57/53/3 58/54/3
f 56/52/3 58/54/3 59/55/3
f 59/55/3 58/54/3 60/56/3
f 59/55/3 60/56/3 61/57/3
f 59/55/3 61/57/3 62/58/3
f 62/58/3 61/57/3 63/59/3
f 62/58/3 63/59/3 64/60/3
f 62/58/3 64/60/3 42/38/3
f 42/38/3 64/60/3 65/61/3
f 42/38/3 65/61/3 41/37/3
f 66/37/4 67/61/4 68/38/4
f 67/61/4 69/60/4 68/38/4
f 68/38/4 69/60/4 70/58/4
f 69/60/4 71/59/4 70/58/4
f 71/59/4 72/57/4 70/58/4
f 70/58/4 72/57/4 73/55/4
f 72/57/4 74/56/4 73/55/4
f 74/56/4 75/54/4 73/55/4
f 73/55/4 75/54/4 76/52/4
f 75/54/4 77/53/4 76/52/4
f 77/53/4 78/48/4 76/52/4
f 76/52/4 78/48/4 79/51/4
f 79/51/4 78/48/4 80/49/4
f 81/50/4 80/49/4 78/48/4
f 82/47/4 83/45/4 84/46/4
f 84/46/4 83/45/4 85/44/4
f 83/45/4 86/43/4 85/44/4
f 85/44/4 86/43/4 87/42/4
f 86/43/4 88/41/4 87/42/4
f 87/42/4 88/41/4 89/40/4
f 88/41/4 90/35/4 89/40/4
f 89/40/4 90/35/4 91/39/4
f 91/39/4 90/35/4 68/38/4
f 68/38/4 90/35/4 66/37/4
f 66/37/4 90/35/4 92/36/4
f 92/36/4 90/35/4 93/34/4
f 90/35/4 94/33/4 93/34/4
f 93/34/4 94/33/4 95/31/4
f 94/33/4 96/32/4 95/31/4
f 96/32/4 97/30/4 95/31/4
f 95/31/4 97/30/4 98/28/4
f 97/30/4 99/6/4 98/28/4
f 99/6/4 100/7/4 98/28/4
f 100/7/4 101/29/4 98/28/4
f 101/29/4 102/27/4 98/28/4
f 98/28/4 102/27/4 103/25/4
f 102/27/4 104/26/4 103/25/4
f 104/26/4 105/24/4 103/25/4
f 103/25/4 105/24/4 106/22/4
f 105/24/4 107/21/4 106/22/4
f 108/23/4 106/22/4 107/21/4
f 109/20/4 110/19/4 111/18/4
f 110/19/4 112/16/4 111/18/4
f 111/18/4 112/16/4 113/17/4
f 113/17/4 112/16/4 114/15/4
f 112/16/4 115/14/4 114/15/4
f 114/15/4 115/14/4 116/13/4
f 115/14/4 117/11/4 116/13/4
f 116/13/4 117/11/4 118/12/4
f 118/12/4 117/11/4 119/10/4
f 117/11/4 120/5/4 119/10/4
f 119/10/4 120/5/4 121/9/4
f 121/9/4 120/5/4 122/8/4
f 122/8/4 120/5/4 99/6/4
f 100/7/4 99/6/4 120/5/4
f 123/62/5 124/63/5 125/64/5
f 124/63/5 123/62/5 126/65/5
f 127/65/6 128/62/6 129/63/6
f 130/64/6 129/63/6 128/62/6
f 131/66/4 132/67/4 133/50/4
f 132/67/4 131/66/4 134/68/4
f 132/67/4 134/68/4 135/69/4
f 132/67/4 135/69/4 136/70/4
f 136/70/4 135/69/4 137/71/4
f 137/71/4 135/69/4 138/72/4
f 137/71/4 138/72/4 139/73/4
f 139/73/4 138/72/4 140/74/4
f 140/74/4 138/72/4 141/75/4
f 140/74/4 141/75/4 142/76/4
f 142/76/4 141/75/4 143/77/4
f 143/77/4 141/75/4 144/78/4
f 143/77/4 144/78/4 145/79/4
f 145/79/4 144/78/4 146/80/4
f 147/81/4 148/82/4 149/83/4
f 148/82/4 147/81/4 150/84/4
f 150/84/4 147/81/4 151/85/4
f 150/84/4 151/85/4 152/86/4
f 152/86/4 151/85/4 153/87/4
f 153/87/4 151/85/4 154/88/4
f 153/87/4 154/88/4 155/89/4
f 155/89/4 154/88/4 156/90/4
f 156/90/4 154/88/4 157/91/4
f 157/91/4 154/88/4 158/92/4
f 158/92/4 154/88/4 159/93/4
f 158/92/4 159/93/4 160/94/4
f 160/94/4 159/93/4 161/95/4
f 161/95/4 159/93/4 162/96/4
f 161/95/4 162/96/4 163/97/4
f 163/97/4 162/96/4 164/98/4
f 163/97/4 164/98/4 146/80/4
f 163/97/4 146/80/4 144/78/4
f 163/97/4 144/78/4 165/99/4
f 163/97/4 165/99/4 166/100/4
f 163/97/4 166/100/4 167/101/4
f 167/101/4 166/100/4 168/102/4
f 167/101/4 168/102/4 169/103/4
f 169/103/4 168/102/4 170/104/4
f 169/103/4 170/104/4 171/105/4
f 171/105/4 170/104/4 172/106/4
f 171/105/4 172/106/4 173/107/4
f 157/91/4 174/108/4 156/90/4
f 174/108/4 157/91/4 175/109/4
f 174/108/4 175/109/4 176/110/4
f 174/108/4 176/110/4 177/111/4
f 174/108/4 177/111/4 178/112/4
f 178/112/4 177/111/4 179/113/4
f 178/112/4 179/113/4 180/114/4
f 178/112/4 180/114/4 181/115/4
f 181/115/4 180/114/4 182/116/4
f 181/115/4 182/116/4 183/117/4
f 183/117/4 182/116/4 184/118/4
f 183/117/4 184/118/4 185/119/4
f 183/117/4 185/119/4 186/120/4
f 186/120/4 185/119/4 187/121/4
f 188/121/3 189/119/3 190/120/3
f 190/120/3 189/119/3 191/117/3
f 189/119/3 192/118/3 191/117/3
f 192/118/3 193/116/3 191/117/3
f 191/117/3 193/116/3 194/115/3
f 193/116/3 195/114/3 194/115/3
f 194/115/3 195/114/3 196/112/3
f 195/114/3 197/113/3 196/112/3
f 197/113/3 198/111/3 196/112/3
f 196/112/3 198/111/3 199/108/3
f 198/111/3 200/110/3 199/108/3
f 200/110/3 201/109/3 199/108/3
f 201/109/3 202/91/3 199/108/3
f 203/90/3 199/108/3 202/91/3
f 204/107/3 205/106/3 206/105/3
f 205/106/3 207/104/3 206/105/3
f 206/105/3 207/104/3 208/103/3
f 207/104/3 209/102/3 208/103/3
f 208/103/3 209/102/3 210/101/3
f 209/102/3 211/100/3 210/101/3
f 210/101/3 211/100/3 212/97/3
f 211/100/3 213/99/3 212/97/3
f 213/99/3 214/78/3 212/97/3
f 214/78/3 215/80/3 212/97/3
f 215/80/3 216/98/3 212/97/3
f 216/98/3 217/96/3 212/97/3
f 212/97/3 217/96/3 218/95/3
f 217/96/3 219/93/3 218/95/3
f 218/95/3 219/93/3 220/94/3
f 220/94/3 219/93/3 221/92/3
f 219/93/3 222/88/3 221/92/3
f 221/92/3 222/88/3 202/91/3
f 202/91/3 222/88/3 203/90/3
f 203/90/3 222/88/3 223/89/3
f 223/89/3 222/88/3 224/87/3
f 222/88/3 225/85/3 224/87/3
f 224/87/3 225/85/3 226/86/3
f 226/86/3 225/85/3 227/84/3
f 225/85/3 228/81/3 227/84/3
f 227/84/3 228/81/3 229/82/3
f 230/83/3 229/82/3 228/81/3
f 215/80/3 214/78/3 231/79/3
f 231/79/3 214/78/3 232/77/3
f 214/78/3 233/75/3 232/77/3
f 232/77/3 233/75/3 234/76/3
f 234/76/3 233/75/3 235/74/3
f 233/75/3 236/72/3 235/74/3
f 235/74/3 236/72/3 237/73/3
f 237/73/3 236/72/3 238/71/3
f 236/72/3 239/69/3 238/71/3
f 238/71/3 239/69/3 240/70/3
f 240/70/3 239/69/3 241/67/3
f 239/69/3 242/68/3 241/67/3
f 242/68/3 243/66/3 241/67/3
f 244/50/3 241/67/3 243/66/3
f 245/122/7 246/123/7 247/124/7
f 246/123/7 245/122/7 248/125/7
f 249/125/8 250/122/8 251/123/8
f 252/124/8 251/123/8 250/122/8
f 253/126/9 254/127/9 255/128/9
f 254/127/9 253/126/9 256/129/9
f 257/129/10 258/126/10 259/127/10
f 260/128/10 259/127/10 258/126/10
f 261/130/11 262/131/11 263/132/11
f 262/131/11 261/130/11 264/133/11
f 265/133/12 266/130/12 267/131/12
f 268/132/12 267/131/12 266/130/12
f 269/134/13 270/135/13 271/136/13
f 270/135/13 269/134/13 272/137/13
f 273/137/14 274/134/14 275/135/14
f 276/136/14 275/135/14 274/134/14
f 277/138/15 278/139/15 279/140/15
f 278/139/15 277/138/15 280/141/15
f 281/141/16 282/138/16 283/139/16
f 284/140/16 283/139/16 282/138/16
f 285/142/17 286/143/17 287/144/17
f 286/143/17 285/142/17 288/145/17
f 289/145/18 290/142/18 291/143/18
f 292/144/18 291/143/18 290/142/18
f 293/146/19 294/147/19 295/148/19
f 294/147/19 293/146/19 296/149/19
f 297/149/20 298/146/20 299/147/20
f 300/148/20 299/147/20 298/146/20
f 301/150/21 302/151/21 303/152/21
f 302/151/21 301/150/21 304/153/21
f 305/153/22 306/150/22 307/151/22
f 308/152/22 307/151/22 306/150/22
f 309/154/23 310/155/23 311/156/23
f 310/155/23 309/154/23 312/157/23
f 313/157/24 314/154/24 315/155/24
f 316/156/24 315/155/24 314/154/24
f 317/158/25 318/159/25 319/160/25
f 318/159/25 317/158/25 320/161/25
f 321/161/26 322/158/26 323/159/26
f 324/160/26 323/159/26 322/158/26
f 325/162/27 326/163/27 327/164/27
f 326/163/27 325/162/27 328/165/27
f 329/165/28 330/162/28 331/163/28
f 332/164/28 331/163/28 330/162/28
f 333/166/29 334/167/29 335/168/29
f 334/167/29 333/166/29 336/169/29
f 337/169/30 338/166/30 339/167/30
f 340/168/30 339/167/30 338/166/30
f 341/170/31 342/171/32 343/172/31
f 342/171/32 341/170/31 344/173/32
f 345/173/33 346/170/34 347/171/33
f 348/172/34 347/171/33 346/170/34
f 344/174/32 349/175/35 342/176/32
f 349/175/35 344/174/32 350/177/35
f 351/177/36 345/174/33 352/175/36
f 347/176/33 352/175/36 345/174/33
f 353/178/37 354/179/37 355/180/37
f 354/179/37 353/178/37 356/181/37
f 357/181/38 358/178/38 359/179/38
f 360/180/38 359/179/38 358/178/38
f 361/182/39 362/183/39 363/184/39
f 362/183/39 361/182/39 364/185/39
f 365/185/40 366/182/40 367/183/40
f 368/184/40 367/183/40 366/182/40
f 369/186/41 370/187/41 371/188/41
f 370/187/41 369/186/41 372/189/41
f 373/189/42 374/186/42 375/187/42
f 376/188/42 375/187/42 374/186/42
f 377/190/43 378/191/43 379/192/43
f 378/191/43 377/190/43 380/193/43
f 381/193/44 382/190/44 383/191/44
f 384/192/44 383/191/44 382/190/44
f 385/194/45 386/195/45 387/196/45
f 386/195/45 385/194/45 388/197/45
f 389/197/46 390/194/46 391/195/46
f 392/196/46 391/195/46 390/194/46
f 393/198/47 394/199/47 395/200/47
f 394/199/47 393/198/47 396/201/47
f 397/201/48 398/198/48 399/199/48
f 400/200/48 399/199/48 398/198/48
f 401/202/49 402/203/49 403/204/49
f 402/203/49 401/202/49 404/205/49
f 405/205/50 406/202/50 407/203/50
f 408/204/50 407/203/50 406/202/50
f 409/206/51 410/207/51 411/208/51
f 410/207/51 409/206/51 412/209/51
f 413/209/52 414/206/52 415/207/52
f 416/208/52 415/207/52 414/206/52
f 417/210/53 418/211/53 419/212/53
f 418/211/53 417/210/53 420/213/53
f 421/213/54 422/210/54 423/211/54
f 424/212/54 423/211/54 422/210/54
f 425/214/55 426/215/55 427/216/55
f 426/215/55 425/214/55 428/217/55
f 429/217/56 430/214/56 431/215/56
f 432/216/56 431/215/56 430/214/56
f 433/218/57 434/219/57 435/220/57
f 434/219/57 433/218/57 436/221/57
f 437/221/58 438/218/58 439/219/58
f 440/220/58 439/219/58 438/218/58
f 441/222/59 442/223/59 443/224/59
f 442/223/59 441/222/59 444/225/59
f 445/225/60 446/222/60 447/223/60
f 448/224/60 447/223/60 446/222/60
f 449/226/61 450/227/61 451/228/61
f 450/227/61 449/226/61 452/229/61
f 453/229/62 454/226/62 455/227/62
f 456/228/62 455/227/62 454/226/62
f 457/230/63 458/231/63 459/232/63
f 458/231/63 457/230/63 460/233/63
f 461/233/64 462/230/64 463/231/64
f 464/232/64 463/231/64 462/230/64
f 465/234/65 466/235/65 467/236/65
f 466/235/65 465/234/65 468/237/65
f 469/237/66 470/234/66 471/235/66
f 472/236/66 471/235/66 470/234/66
f 473/238/67 474/239/67 475/240/67
f 474/239/67 473/238/67 476/241/67
f 477/241/68 478/238/68 479/239/68
f 480/240/68 479/239/68 478/238/68
f 481/242/69 482/243/69 483/244/69
f 482/243/69 481/242/69 484/245/69
f 485/245/70 486/242/70 487/243/70
f 488/244/70 487/243/70 486/242/70
f 489/246/71 490/247/71 491/248/71
f 490/247/71 489/246/71 492/249/71
f 493/249/72 494/246/72 495/247/72
f 496/248/72 495/247/72 494/246/72
f 497/250/73 498/251/73 499/252/73
f 498/251/73 497/250/73 500/253/73
f 501/253/74 502/250/74 503/251/74
f 504/252/74 503/251/74 502/250/74
f 505/254/75 506/255/75 507/256/75
f 506/255/75 505/254/75 508/257/75
f 509/257/76 510/254/76 511/255/76
f 512/256/76 511/255/76 510/254/76
f 513/258/77 514/259/77 515/260/77
f 514/259/77 513/258/77 516/261/77
f 517/261/78 518/258/78 519/259/78
f 520/260/78 519/259/78 518/258/78
f 521/262/79 522/263/79 523/264/79
f 522/263/79 521/262/79 524/265/79
f 525/265/80 526/262/80 527/263/80
f 528/264/80 527/263/80 526/262/80
f 529/266/81 530/267/81 531/268/81
f 530/267/81 529/266/81 532/269/81
f 533/269/82 534/266/82 535/267/82
f 536/268/82 535/267/82 534/266/82
f 537/270/83 538/271/83 539/272/83
f 538/271/83 537/270/83 540/273/83
f 541/273/84 542/270/84 543/271/84
f 544/272/84 543/271/84 542/270/84
f 545/274/85 546/275/85 547/276/85
f 546/275/85 545/274/85 548/277/85
f 549/277/86 550/274/86 551/275/86
f 552/276/86 551/275/86 550/274/86
f 553/278/87 554/279/87 555/280/87
f 554/279/87 553/278/87 556/281/87
f 557/281/88 558/278/88 559/279/88
f 560/280/88 559/279/88 558/278/88
f 561/282/89 562/283/89 563/284/89
f 562/283/89 561/282/89 564/285/89
f 565/285/90 566/282/90 567/283/90
f 568/284/90 567/283/90 566/282/90
f 569/286/91 570/287/92 571/288/91
f 570/287/92 569/286/91 572/289/92
f 573/289/93 574/286/94 575/287/93
f 576/288/94 575/287/93 574/286/94
f 572/290/92 577/291/95 570/292/92
f 577/291/95 572/290/92 578/293/95
f 579/293/96 573/290/93 580/291/96
f 575/292/93 580/291/96 573/290/93
f 581/294/97 582/295/97 583/296/97
f 582/295/97 581/294/97 584/297/97
f 585/297/98 586/294/98 587/295/98
f 588/296/98 587/295/98 586/294/98
f 589/298/99 590/299/99 591/300/99
f 590/299/99 589/298/99 592/301/99
f 593/301/100 594/298/100 595/299/100
f 596/300/100 595/299/100 594/298/100
f 597/302/101 598/303/101 599/304/101
f 598/303/101 597/302/101 600/305/101
f 601/305/102 602/302/102 603/303/102
f 604/304/102 603/303/102 602/302/102
f 605/306/103 606/307/103 607/308/103
f 606/307/103 605/306/103 608/309/103
f 609/309/104 610/306/104 611/307/104
f 612/308/104 611/307/104 610/306/104
f 613/310/105 614/311/105 615/312/105
f 614/311/105 613/310/105 616/313/105
f 617/313/106 618/310/106 619/311/106
f 620/312/106 619/311/106 618/310/106
f 621/314/107 622/315/107 623/316/107
f 622/315/107 621/314/107 624/317/107
f 625/317/108 626/314/108 627/315/108
f 628/316/108 627/315/108 626/314/108
f 629/318/109 630/319/109 631/320/109
f 630/319/109 629/318/109 632/321/109
f 633/321/110 634/318/110 635/319/110
f 636/320/110 635/319/110 634/318/110
f 637/322/111 638/323/111 639/324/111
f 638/323/111 637/322/111 640/325/111
f 641/325/112 642/322/112 643/323/112
f 644/324/112 643/323/112 642/322/112
f 645/326/113 646/327/113 647/328/113
f 646/327/113 645/326/113 648/329/113
f 649/329/114 650/326/114 651/327/114
f 652/328/114 651/327/114 650/326/114
f 653/330/115 654/331/115 655/332/115
f 654/331/115 653/330/115 656/333/115
f 657/333/116 658/330/116 659/331/116
f 660/332/116 659/331/116 658/330/116
f 661/334/117 662/335/117 663/336/117
f 662/335/117 661/334/117 664/337/117
f 665/337/118 666/334/118 667/335/118
f 668/336/118 667/335/118 666/334/118
f 669/338/119 670/339/119 671/340/119
f 670/339/119 669/338/119 672/341/119
f 673/341/120 674/338/120 675/339/120
f 676/340/120 675/339/120 674/338/120
