# SSTK version 0.8.0
# 67
mtllib original_67.mtl
o #ID137
v 0.19882589 0.61814237 0.18142080
v 0.22264295 0.62390600 0.19391613
v 0.22284861 0.61807337 0.19410499
v 0.19877272 0.62416891 0.18143651
v 0.19875751 0.62406697 0.18141115
v 0.19879876 0.61808188 0.18123538
v 0.22286855 0.62407287 0.19399991
v 0.22279320 0.61800957 0.19399434
v 0.20016094 0.62391676 0.17880992
v 0.19877445 0.61816934 0.18141274
v 0.20009868 0.61818957 0.17893229
v 0.19900651 0.62403424 0.18135765
v 0.19874776 0.62402123 0.18135349
v 0.20013331 0.62397122 0.17900003
v 0.19883661 0.61822417 0.18127378
v 0.20023814 0.61811729 0.17894094
v 0.22272593 0.62397309 0.19392344
v 0.22430049 0.61814375 0.19062094
v 0.22268787 0.61808723 0.19384106
v 0.22456683 0.62411409 0.19048617
v 0.22449472 0.62413136 0.19048556
v 0.22270824 0.62389951 0.19404996
v 0.22439235 0.61807329 0.19061413
v 0.22270546 0.61807967 0.19409385
v 0.20212890 0.62390447 0.17588432
v 0.20023345 0.61810707 0.17898538
v 0.20209500 0.61811780 0.17603161
v 0.19997226 0.62389980 0.17875383
v 0.20020443 0.62401952 0.17888354
v 0.20206157 0.62394225 0.17579011
v 0.20016050 0.61797162 0.17895749
v 0.20185953 0.61815365 0.17589268
v 0.22428807 0.62398320 0.19057862
v 0.22638563 0.61806737 0.18614160
v 0.22436814 0.61809145 0.19063503
v 0.22647504 0.62398569 0.18616951
v 0.22630869 0.62411022 0.18632982
v 0.22436359 0.62407726 0.19065045
v 0.22652879 0.61804019 0.18620741
v 0.22451900 0.61825405 0.19080411
v 0.20391006 0.62393360 0.17352384
v 0.20193328 0.61813965 0.17579159
v 0.20391193 0.61822514 0.17350841
v 0.20207025 0.62411488 0.17585358
v 0.20205435 0.62401415 0.17590709
v 0.20379056 0.62396635 0.17347513
v 0.20186013 0.61813542 0.17598108
v 0.20395379 0.61804733 0.17350034
v 0.22629537 0.62398786 0.18631074
v 0.22719840 0.61808075 0.18288494
v 0.22633030 0.61804064 0.18620149
v 0.22728515 0.62393457 0.18293652
v 0.22722093 0.62400666 0.18295165
v 0.22649770 0.62401633 0.18615690
v 0.22706904 0.61803242 0.18291215
v 0.22646803 0.61799909 0.18634668
v 0.20600557 0.62402476 0.17174185
v 0.20393288 0.61807145 0.17349246
v 0.20602461 0.61797355 0.17180409
v 0.20409410 0.62386296 0.17350881
v 0.20396267 0.62401826 0.17363543
v 0.20612561 0.62411097 0.17191641
v 0.20393396 0.61798258 0.17344516
v 0.20593320 0.61807161 0.17171712
v 0.22708950 0.62387725 0.18286958
v 0.22667341 0.61803264 0.18014450
v 0.22712943 0.61820291 0.18284907
v 0.22673009 0.62410773 0.18010445
v 0.22671443 0.62397793 0.18021840
v 0.22703976 0.62399343 0.18292741
v 0.22676016 0.61823716 0.17990537
v 0.22709943 0.61820525 0.18299516
v 0.20822616 0.62397652 0.17058799
v 0.20608527 0.61810127 0.17172651
v 0.20840722 0.61822948 0.17071009
v 0.20609317 0.62399720 0.17178387
v 0.20598354 0.62391517 0.17173200
v 0.20820202 0.62393546 0.17063703
v 0.20600665 0.61815362 0.17173213
v 0.20842807 0.61810976 0.17064068
v 0.22507331 0.62393290 0.17726355
v 0.22670723 0.61804803 0.18006211
v 0.22666301 0.62408293 0.17994957
v 0.22517610 0.61815075 0.17722279
v 0.22521340 0.61816086 0.17716549
v 0.22525622 0.62405574 0.17722851
v 0.22675468 0.61821631 0.18000122
v 0.22679849 0.62405008 0.18016242
v 0.20838680 0.62401615 0.17067697
v 0.21097625 0.61812448 0.17017287
v 0.21091769 0.62389675 0.17032006
v 0.20831666 0.61818551 0.17081727
v 0.20842175 0.61824291 0.17078955
v 0.20822648 0.62393529 0.17076606
v 0.21099046 0.61801080 0.17017107
v 0.21087451 0.62416602 0.17028350
v 0.22288419 0.62405524 0.17450562
v 0.22525190 0.61823321 0.17732694
v 0.22526804 0.62403764 0.17733387
v 0.22282243 0.61816133 0.17454822
v 0.22281526 0.61799815 0.17456880
v 0.22284163 0.62401363 0.17473156
v 0.22526710 0.61812010 0.17715786
v 0.22524130 0.62405202 0.17724688
v 0.21094111 0.62403760 0.17018252
v 0.21368538 0.61814256 0.17025049
v 0.21379813 0.62383333 0.17034235
v 0.21097301 0.61826674 0.17025890
v 0.21096183 0.61807763 0.17019891
v 0.21105965 0.62395346 0.17011803
v 0.21358237 0.61808267 0.17040571
v 0.21374192 0.62404571 0.17021614
v 0.21947672 0.62392399 0.17239849
v 0.22286113 0.61799295 0.17468623
v 0.22283860 0.62405487 0.17457234
v 0.21925531 0.61814068 0.17235113
v 0.21948940 0.61798550 0.17237822
v 0.21943009 0.62404947 0.17235080
v 0.22279053 0.61827064 0.17445840
v 0.22283368 0.62382842 0.17458388
v 0.21360465 0.62408599 0.17033062
v 0.21646849 0.61813658 0.17102587
v 0.21648174 0.62411049 0.17106031
v 0.21344841 0.61802691 0.17042523
v 0.21366616 0.61799364 0.17026766
v 0.21371232 0.62412742 0.17039411
v 0.21658937 0.61803313 0.17104945
v 0.21633877 0.62401210 0.17094273
v 0.21663408 0.62396802 0.17103521
v 0.21936544 0.61820326 0.17224860
v 0.21946819 0.62401749 0.17229828
v 0.21649221 0.61827186 0.17089884
v 0.21648694 0.61817810 0.17099324
v 0.21648140 0.62405558 0.17117252
v 0.21937790 0.61807854 0.17227061
v 0.21955907 0.62396722 0.17227230
vt 0.1794043 0
vt 0.0407805 0.04249006
vt 0.0407805 0
vt 0.1794043 0.04249006
vt 0.05571841 0.04249006
vt 0.04152739 0
vt 0.05571841 0
vt 0.04152739 0.04249006
vt -0.04152739 0.04249006
vt -0.06094667 0
vt -0.04152739 0
vt -0.06094667 0.04249006
vt 0.06311842 0.04249006
vt 0.04492718 0
vt 0.06311842 0
vt 0.04492718 0.04249006
vt -0.06351777 0.04249006
vt -0.08831331 0
vt -0.06351777 0
vt -0.08831331 0.04249006
vt 0.05148062 0.04249006
vt 0.03565406 0
vt 0.05148062 0
vt 0.03565406 0.04249006
vt -0.09415464 0.04249006
vt -0.1117231 0
vt -0.09415464 0
vt -0.1117231 0.04249006
vt 0.02803897 0.04249006
vt 0.01412129 0
vt 0.02803897 0
vt 0.01412129 0.04249006
vt -0.110437 0.04249006
vt -0.1251266 0
vt -0.110437 0
vt -0.1251266 0.04249006
vt -0.00709229 0.04249006
vt -0.01976455 0
vt -0.00709229 0
vt -0.01976455 0.04249006
vt -0.1280933 0.04249006
vt -0.1118041 0
vt -0.1118041 0.04249006
vt -0.1280933 0
vt -0.0557242 0.04249006
vt -0.04207781 0
vt -0.04207781 0.04249006
vt -0.0557242 0
vt -0.1252928 0.04249006
vt -0.1068843 0
vt -0.1068843 0.04249006
vt -0.1252928 0
vt -0.08339019 0.04249006
vt -0.06939415 0
vt -0.06939415 0.04249006
vt -0.08339019 0
vt -0.1201381 0.04249006
vt -0.0991012 0
vt -0.0991012 0.04249006
vt -0.1201381 0
vt -0.1035759 0.04249006
vt -0.08856844 0
vt -0.08856844 0.04249006
vt -0.1035759 0
vt -0.1142986 0.04249006
vt -0.09773869 0
vt -0.09773869 0.04249006
vt -0.1142986 0
vn 0.4693882346110066 -3.1765246900893733e-8 -0.8829918941919918
vn -0.4693882346110066 3.1765246900893733e-8 0.8829918941919918
vn 0.8829032503074187 1.689203646101307e-8 0.4695549494964306
vn -0.8829032503074187 -1.689203646101307e-8 -0.4695549494964306
vn 0.8533455911950477 1.875518476253539e-8 0.521345664591137
vn -0.8533455911950477 -1.875518476253539e-8 -0.521345664591137
vn -0.9121121029255014 -1.4747445810673991e-8 -0.4099408636581859
vn 0.9121121029255014 1.4747445810673991e-8 0.4099408636581859
vn 0.7675489422451228 2.3059349686700146e-8 0.6409903441225869
vn -0.7675489422451228 -2.3059349686700146e-8 -0.6409903441225869
vn -0.9792602951667914 -7.28867211601942e-9 -0.20260620501319535
vn 0.9792602951667914 7.28867211601942e-9 0.20260620501319535
vn 0.6302788658577131 2.7929531098116186e-8 0.7763688242408463
vn -0.6302788658577131 -2.7929531098116186e-8 -0.7763688242408463
vn -0.9879177275153255 5.575308043984764e-9 0.15497923622522758
vn 0.9879177275153255 -5.575308043984764e-9 -0.15497923622522758
vn 0.4258625732613646 3.2549349319398804e-8 0.9047878583928985
vn -0.4258625732613646 -3.2549349319398804e-8 -0.9047878583928985
vn -0.8926332822145997 1.621673993375414e-8 0.4507835661188091
vn 0.8926332822145997 -1.621673993375414e-8 -0.4507835661188091
vn 0.18830146509310675 3.533102495397314e-8 0.9821112758968753
vn -0.18830146509310675 -3.533102495397314e-8 -0.9821112758968753
vn -0.7378618127810805 2.4281095020058595e-8 0.6749518095682218
vn 0.7378618127810805 -2.4281095020058595e-8 -0.6749518095682218
vn -0.036499653052048185 3.595059237695161e-8 0.9993336656628149
vn 0.036499653052048185 -3.595059237695161e-8 -0.9993336656628149
vn -0.553348631832753 2.9965002527158966e-8 0.8329497533758079
vn 0.553348631832753 -2.9965002527158966e-8 -0.8329497533758079
vn -0.23930464370684473 3.492930526454173e-8 0.9709445336888916
vn 0.23930464370684473 -3.492930526454173e-8 -0.9709445336888916
vn -0.4029020736415918 3.292546985487221e-8 0.9152430928749499
vn 0.4029020736415918 -3.292546985487221e-8 -0.9152430928749499
usemtl material_0_0
f 1/1/1 2/2/1 3/3/1
f 2/2/1 1/1/1 4/4/1
f 5/4/2 6/1/2 7/2/2
f 8/3/2 7/2/2 6/1/2
f 9/5/3 10/6/3 11/7/3
f 10/6/3 9/5/3 12/8/3
f 13/8/4 14/5/4 15/6/4
f 16/7/4 15/6/4 14/5/4
f 17/9/4 18/10/4 19/11/4
f 18/10/4 17/9/4 20/12/4
f 21/12/3 22/9/3 23/10/3
f 24/11/3 23/10/3 22/9/3
f 25/13/5 26/14/5 27/15/5
f 26/14/5 25/13/5 28/16/5
f 29/16/6 30/13/6 31/14/6
f 32/15/6 31/14/6 30/13/6
f 33/17/7 34/18/7 35/19/7
f 34/18/7 33/17/7 36/20/7
f 37/20/8 38/17/8 39/18/8
f 40/19/8 39/18/8 38/17/8
f 41/21/9 42/22/9 43/23/9
f 42/22/9 41/21/9 44/24/9
f 45/24/10 46/21/10 47/22/10
f 48/23/10 47/22/10 46/21/10
f 49/25/11 50/26/11 51/27/11
f 50/26/11 49/25/11 52/28/11
f 53/28/12 54/25/12 55/26/12
f 56/27/12 55/26/12 54/25/12
f 57/29/13 58/30/13 59/31/13
f 58/30/13 57/29/13 60/32/13
f 61/32/14 62/29/14 63/30/14
f 64/31/14 63/30/14 62/29/14
f 65/33/15 66/34/15 67/35/15
f 66/34/15 65/33/15 68/36/15
f 69/36/16 70/33/16 71/34/16
f 72/35/16 71/34/16 70/33/16
f 73/37/17 74/38/17 75/39/17
f 74/38/17 73/37/17 76/40/17
f 77/40/18 78/37/18 79/38/18
f 80/39/18 79/38/18 78/37/18
f 81/41/19 82/42/19 83/43/19
f 82/42/19 81/41/19 84/44/19
f 85/44/20 86/41/20 87/42/20
f 88/43/20 87/42/20 86/41/20
f 89/45/21 90/46/21 91/47/21
f 90/46/21 89/45/21 92/48/21
f 93/48/22 94/45/22 95/46/22
f 96/47/22 95/46/22 94/45/22
f 97/49/23 98/50/23 99/51/23
f 98/50/23 97/49/23 100/52/23
f 101/52/24 102/49/24 103/50/24
f 104/51/24 103/50/24 102/49/24
f 105/53/25 106/54/25 107/55/25
f 106/54/25 105/53/25 108/56/25
f 109/56/26 110/53/26 111/54/26
f 112/55/26 111/54/26 110/53/26
f 113/57/27 114/58/27 115/59/27
f 114/58/27 113/57/27 116/60/27
f 117/60/28 118/57/28 119/58/28
f 120/59/28 119/58/28 118/57/28
f 121/61/29 122/62/29 123/63/29
f 122/62/29 121/61/29 124/64/29
f 125/64/30 126/61/30 127/62/30
f 128/63/30 127/62/30 126/61/30
f 129/65/31 130/66/31 131/67/31
f 130/66/31 129/65/31 132/68/31
f 133/68/32 134/65/32 135/66/32
f 136/67/32 135/66/32 134/65/32
