# SSTK version 0.8.0
# 35
mtllib original_35.mtl
o #ID232
v 0.05493923 0.43079949 -0.55026902
v 0.05726755 0.43021965 -0.55628552
v 0.05499657 0.43088736 -0.55614447
v 0.05718295 0.43017250 -0.55028061
v 0.05717901 0.43041878 -0.55044429
v 0.05513691 0.43093883 -0.55030045
v 0.05708654 0.43028072 -0.55625573
v 0.05504392 0.43081108 -0.55636947
v 0.05310870 0.43171252 -0.55035641
v 0.05509492 0.43075387 -0.55611174
v 0.05314811 0.43170453 -0.55620965
v 0.05498210 0.43077498 -0.55036205
v 0.05488152 0.43083993 -0.55027474
v 0.05306674 0.43182556 -0.55022505
v 0.05492715 0.43090736 -0.55623147
v 0.05307247 0.43175207 -0.55612702
v 0.05715564 0.43018605 -0.55031678
v 0.05925485 0.43022152 -0.55630798
v 0.05702392 0.43036656 -0.55616937
v 0.05907088 0.43025086 -0.55031712
v 0.05914558 0.43020134 -0.55040882
v 0.05715740 0.43017568 -0.55030756
v 0.05916942 0.42996889 -0.55619197
v 0.05714905 0.43017081 -0.55617294
v 0.05139221 0.43308891 -0.55028087
v 0.05306438 0.43177987 -0.55615444
v 0.05132922 0.43301796 -0.55612031
v 0.05295414 0.43168112 -0.55041615
v 0.05313722 0.43171974 -0.55030873
v 0.05144427 0.43297771 -0.55039271
v 0.05303771 0.43168825 -0.55635571
v 0.05138262 0.43290141 -0.55603570
v 0.05932686 0.43015026 -0.55034437
v 0.06113477 0.43044103 -0.55622052
v 0.05930217 0.43025183 -0.55625390
v 0.06127939 0.43052604 -0.55020946
v 0.06111686 0.43028299 -0.55040711
v 0.05927733 0.43003687 -0.55024189
v 0.06131283 0.43044248 -0.55612146
v 0.05913496 0.43002364 -0.55608209
v 0.05006850 0.43454364 -0.55018479
v 0.05135695 0.43292820 -0.55620342
v 0.05005570 0.43454660 -0.55616707
v 0.05139508 0.43302851 -0.55046770
v 0.05148021 0.43302001 -0.55035875
v 0.05004777 0.43467046 -0.55020743
v 0.05142268 0.43286351 -0.55617137
v 0.04988905 0.43464997 -0.55618978
v 0.06111812 0.43040088 -0.55035017
v 0.06301319 0.43110246 -0.55616244
v 0.06112873 0.43033703 -0.55600818
v 0.06315686 0.43124774 -0.55038590
v 0.06314052 0.43102855 -0.55024412
v 0.06127919 0.43056714 -0.55044232
v 0.06320466 0.43122324 -0.55620410
v 0.06107092 0.43055178 -0.55614487
v 0.04908968 0.43630645 -0.55032926
v 0.04999121 0.43454600 -0.55620500
v 0.04900425 0.43647374 -0.55619699
v 0.05008126 0.43455137 -0.55024561
v 0.05004969 0.43441789 -0.55028831
v 0.04894125 0.43638335 -0.55049154
v 0.05011299 0.43449596 -0.55616094
v 0.04895954 0.43635648 -0.55614189
v 0.06316394 0.43118563 -0.55616235
v 0.06503286 0.43236024 -0.55046541
v 0.06502060 0.43228208 -0.55630061
v 0.06319921 0.43106849 -0.55035871
v 0.06317644 0.43110761 -0.55041286
v 0.06320506 0.43124025 -0.55611219
v 0.06493114 0.43227805 -0.55033378
v 0.06481378 0.43232329 -0.55621895
v 0.04914676 0.43652342 -0.55043435
v 0.04821865 0.43850472 -0.55619868
v 0.04823353 0.43850585 -0.55038397
v 0.04908947 0.43638834 -0.55603527
v 0.04900667 0.43652777 -0.55610299
v 0.04914822 0.43642824 -0.55041564
v 0.04832776 0.43850401 -0.55626704
v 0.04827352 0.43852135 -0.55039632
v 0.06513288 0.43231132 -0.55625861
v 0.06643594 0.43370092 -0.55030004
v 0.06651327 0.43362536 -0.55617179
v 0.06506331 0.43213284 -0.55032706
v 0.06490533 0.43238824 -0.55036845
v 0.06509349 0.43219554 -0.55633658
v 0.06654061 0.43385818 -0.55045468
v 0.06638563 0.43381881 -0.55605264
v 0.04838647 0.43847324 -0.55016233
v 0.04801260 0.44055446 -0.55627160
v 0.04808340 0.44045757 -0.55047019
v 0.04836199 0.43858247 -0.55619802
v 0.04821230 0.43846770 -0.55626862
v 0.04819547 0.43834791 -0.55042893
v 0.04801292 0.44058612 -0.55602185
v 0.04801743 0.44067279 -0.55031065
v 0.06641734 0.43382828 -0.55602272
v 0.06776579 0.43542145 -0.55018658
v 0.06770871 0.43535880 -0.55614745
v 0.06653069 0.43382970 -0.55022328
v 0.06660343 0.43381971 -0.55040595
v 0.06645635 0.43367679 -0.55635585
v 0.06777862 0.43566352 -0.55036338
v 0.06786767 0.43545318 -0.55610047
v 0.04805770 0.44067710 -0.55029631
v 0.04822125 0.44275453 -0.55628753
v 0.04828098 0.44271403 -0.55020322
v 0.04792496 0.44061260 -0.55626894
v 0.04791228 0.44055853 -0.55624336
v 0.04804753 0.44050462 -0.55034173
v 0.04816578 0.44255773 -0.55610226
v 0.04807841 0.44281185 -0.55027114
v 0.06771001 0.43565279 -0.55613287
v 0.06868600 0.43768583 -0.55042621
v 0.06864489 0.43761475 -0.55634271
v 0.06775248 0.43536582 -0.55031723
v 0.06785554 0.43541292 -0.55025678
v 0.06772290 0.43547770 -0.55626618
v 0.06873457 0.43766950 -0.55025268
v 0.06885910 0.43761510 -0.55625168
v 0.04827833 0.44274733 -0.55034293
v 0.04876286 0.44474532 -0.55623091
v 0.04885774 0.44478008 -0.55026133
v 0.04810629 0.44266529 -0.55617754
v 0.04809187 0.44272938 -0.55614211
v 0.04818753 0.44256578 -0.55034821
v 0.04858966 0.44483499 -0.55623394
v 0.04878628 0.44470449 -0.55015643
v 0.06872592 0.43751883 -0.55611737
v 0.06926048 0.44001373 -0.55038029
v 0.06945594 0.43999751 -0.55627771
v 0.06862097 0.43762321 -0.55026345
v 0.06861005 0.43776153 -0.55030209
v 0.06874631 0.43758291 -0.55615259
v 0.06920730 0.44008808 -0.55043534
v 0.06922567 0.43996077 -0.55616952
v 0.04877164 0.44491476 -0.55040706
v 0.04960124 0.44695686 -0.55621412
v 0.04983450 0.44681789 -0.55027492
v 0.04871861 0.44489127 -0.55620729
v 0.04861257 0.44471897 -0.55625762
v 0.04886142 0.44474569 -0.55014061
v 0.04975518 0.44692347 -0.55616562
v 0.04973065 0.44689820 -0.55034308
v 0.06943405 0.43994977 -0.55610228
v 0.06961855 0.44238053 -0.55034311
v 0.06937144 0.44244782 -0.55604426
v 0.06938895 0.43994413 -0.55031696
v 0.06934796 0.44002286 -0.55032946
v 0.06949257 0.44002685 -0.55618897
v 0.06951111 0.44252471 -0.55033932
v 0.06942669 0.44237464 -0.55621681
v 0.04970074 0.44688413 -0.55018885
v 0.05103533 0.44849547 -0.55620820
v 0.05090495 0.44858306 -0.55039662
v 0.04970493 0.44686875 -0.55609971
v 0.04962287 0.44684393 -0.55616212
v 0.04962553 0.44693296 -0.55030254
v 0.05099243 0.44841944 -0.55614311
v 0.05100154 0.44850756 -0.55026645
v 0.06950903 0.44246466 -0.55628443
v 0.06910896 0.44477990 -0.55047227
v 0.06901640 0.44468943 -0.55627998
v 0.06935552 0.44245093 -0.55031648
v 0.06949884 0.44251490 -0.55043471
v 0.06956608 0.44232729 -0.55636152
v 0.06900469 0.44487673 -0.55046493
v 0.06900098 0.44463531 -0.55614947
v 0.05094836 0.44869145 -0.55023340
v 0.05261179 0.44994381 -0.55631796
v 0.05259921 0.45006402 -0.55042926
v 0.05108893 0.44858004 -0.55613984
v 0.05102629 0.44861810 -0.55609859
v 0.05097099 0.44857210 -0.55017392
v 0.05253656 0.45010495 -0.55630508
v 0.05244232 0.44983434 -0.55029737
v 0.06906554 0.44460456 -0.55618316
v 0.06794916 0.44686715 -0.55033384
v 0.06814184 0.44699767 -0.55608444
v 0.06896701 0.44453271 -0.55030587
v 0.06895384 0.44464979 -0.55017230
v 0.06916125 0.44478356 -0.55627569
v 0.06799144 0.44698915 -0.55030252
v 0.06802992 0.44696140 -0.55619098
v 0.05246907 0.45002385 -0.55049389
v 0.05425070 0.45098723 -0.55615706
v 0.05431811 0.45113087 -0.55043276
v 0.05254961 0.45010628 -0.55631064
v 0.05241776 0.44997988 -0.55614235
v 0.05242592 0.44994648 -0.55031694
v 0.05449505 0.45100631 -0.55612372
v 0.05433878 0.45112696 -0.55029984
v 0.06807805 0.44686399 -0.55043458
v 0.06683172 0.44832690 -0.55631335
v 0.06795053 0.44678414 -0.55631701
v 0.06689881 0.44846434 -0.55038787
v 0.06678624 0.44842943 -0.55040740
v 0.06817473 0.44686383 -0.55046177
v 0.06685143 0.44829087 -0.55634210
v 0.06795143 0.44680354 -0.55615364
v 0.05630460 0.45189198 -0.55021979
v 0.05449377 0.45108421 -0.55610644
v 0.05637371 0.45188108 -0.55620075
v 0.05441497 0.45101243 -0.55028027
v 0.05427896 0.45124270 -0.55025036
v 0.05632716 0.45180204 -0.55034831
v 0.05414661 0.45111728 -0.55620564
v 0.05639014 0.45185153 -0.55614901
v 0.06684104 0.44842772 -0.55019675
v 0.06551366 0.44969778 -0.55627351
v 0.06686646 0.44841372 -0.55609826
v 0.06553339 0.44958392 -0.55041648
v 0.06561616 0.44963989 -0.55043110
v 0.06698156 0.44837355 -0.55039612
v 0.06562526 0.44982769 -0.55630951
v 0.06690321 0.44841623 -0.55606965
v 0.05829199 0.45228498 -0.55036988
v 0.05632130 0.45188584 -0.55612616
v 0.05833564 0.45217516 -0.55610021
v 0.05634291 0.45195119 -0.55033553
v 0.05637858 0.45188234 -0.55038368
v 0.05825354 0.45219802 -0.55029327
v 0.05629097 0.45189723 -0.55614983
v 0.05833089 0.45216990 -0.55618086
v 0.06576559 0.44964127 -0.55025480
v 0.06425989 0.45071570 -0.55627687
v 0.06563253 0.44966569 -0.55632669
v 0.06416977 0.45068801 -0.55023808
v 0.06408831 0.45075962 -0.55029995
v 0.06570393 0.44983878 -0.55033866
v 0.06404640 0.45069144 -0.55623311
v 0.06567490 0.44974442 -0.55619726
v 0.06020821 0.45202347 -0.55028531
v 0.05846191 0.45205084 -0.55615539
v 0.06034329 0.45200102 -0.55615984
v 0.05841907 0.45213731 -0.55031049
v 0.05830768 0.45230359 -0.55042869
v 0.06047386 0.45205842 -0.55042332
v 0.05828794 0.45203115 -0.55603790
v 0.06026731 0.45199219 -0.55623761
v 0.06414197 0.45085828 -0.55035454
v 0.06251261 0.45159539 -0.55612504
v 0.06410655 0.45060049 -0.55620746
v 0.06231836 0.45153273 -0.55041071
v 0.06234916 0.45148507 -0.55028843
v 0.06408512 0.45087707 -0.55044658
v 0.06248152 0.45156418 -0.55613369
v 0.06403188 0.45074679 -0.55609817
v 0.06250046 0.45142486 -0.55039543
v 0.06041898 0.45225142 -0.55611112
v 0.06242179 0.45163269 -0.55605450
v 0.06045777 0.45201149 -0.55034541
v 0.06034041 0.45217059 -0.55040834
v 0.06235457 0.45152344 -0.55036397
v 0.06025129 0.45211295 -0.55607354
v 0.06238966 0.45168739 -0.55615703
vt 0.130852 0.04249006
vt 0.1161467 0
vt 0.130852 0
vt 0.1161467 0.04249006
vt 0.1106303 0.04249006
vt 0.09603449 0
vt 0.1106303 0
vt 0.09603449 0.04249006
vt 0.1489916 0.04249006
vt 0.1349848 0
vt 0.1489916 0
vt 0.1349848 0.04249006
vt 0.08227976 0.04249006
vt 0.06828104 0
vt 0.08227976 0
vt 0.06828104 0.04249006
vt 0.163724 0.04249006
vt 0.1498262 0
vt 0.163724 0
vt 0.1498262 0.04249006
vt 0.04889551 0.04249006
vt 0.03488648 0
vt 0.04889551 0
vt 0.03488648 0.04249006
vt 0.171225 0.04249006
vt 0.1568334 0
vt 0.171225 0
vt 0.1568334 0.04249006
vt 0.01642899 0.04249006
vt 0.001803551 0
vt 0.01642899 0
vt 0.001803551 0.04249006
vt 0.1708906 0
vt 0.1563669 0.04249006
vt 0.1563669 0
vt 0.1708906 0.04249006
vt -0.02729581 0.04249006
vt -0.01257706 0
vt -0.01257706 0.04249006
vt -0.02729581 0
vt 0.1646201 0
vt 0.1502998 0.04249006
vt 0.1502998 0
vt 0.1646201 0.04249006
vt -0.05840426 0.04249006
vt -0.04411995 0
vt -0.04411995 0.04249006
vt -0.05840426 0
vt 0.1519308 0
vt 0.1372054 0.04249006
vt 0.1372054 0
vt 0.1519308 0.04249006
vt -0.08880385 0.04249006
vt -0.0743735 0
vt -0.0743735 0.04249006
vt -0.08880385 0
vt 0.1335086 0
vt 0.1178166 0.04249006
vt 0.1178166 0
vt 0.1335086 0.04249006
vt -0.1134861 0.04249006
vt -0.09834598 0
vt -0.09834598 0.04249006
vt -0.1134861 0
vt 0.1102409 0
vt 0.09289169 0.04249006
vt 0.09289169 0
vt 0.1102409 0.04249006
vt -0.1306653 0.04249006
vt -0.1154749 0
vt -0.1154749 0.04249006
vt -0.1306653 0
vt 0.07952326 0
vt 0.06339154 0.04249006
vt 0.06339154 0
vt 0.07952326 0.04249006
vt -0.1465269 0.04249006
vt -0.1320997 0
vt -0.1320997 0.04249006
vt -0.1465269 0
vt 0.04488832 0
vt 0.02913633 0.04249006
vt 0.02913633 0
vt 0.04488832 0.04249006
vt -0.159768 0.04249006
vt -0.1455425 0
vt -0.1455425 0.04249006
vt -0.159768 0
vt 0.008747454 0
vt -0.007521347 0.04249006
vt -0.007521347 0
vt 0.008747454 0.04249006
vt -0.166754 0.04249006
vt -0.1521453 0
vt -0.1521453 0.04249006
vt -0.166754 0
vt -0.02391327 0.04249006
vt -0.03671006 0
vt -0.02391327 0
vt -0.03671006 0.04249006
vt -0.1517238 0.04249006
vt -0.1662145 0
vt -0.1517238 0
vt -0.1662145 0.04249006
vt -0.05087294 0.04249006
vt -0.06329476 0
vt -0.05087294 0
vt -0.06329476 0.04249006
vt -0.1468598 0.04249006
vt -0.1607206 0
vt -0.1468598 0
vt -0.1607206 0.04249006
vt -0.07610195 0.04249006
vt -0.08853394 0
vt -0.07610195 0
vt -0.08853394 0.04249006
vt -0.1358528 0.04249006
vt -0.1496786 0
vt -0.1358528 0
vt -0.1496786 0.04249006
vt -0.09847428 0.04249006
vt -0.1113007 0
vt -0.09847428 0
vt -0.1113007 0.04249006
vt -0.1182265 0.04249006
vt -0.1326165 0
vt -0.1182265 0
vt -0.1326165 0.04249006
vn 0.25591047929276256 0.9667004844253194 -3.4776628329977674e-8
vn -0.25591047929276256 -0.9667004844253194 3.4776628329977674e-8
vn 0.42799189697813445 0.9037825712642709 -3.2513184385876196e-8
vn -0.42799189697813445 -0.9037825712642709 3.2513184385876196e-8
vn 0.06111725913373744 0.9981305929766797 -3.590731219440735e-8
vn -0.06111725913373744 -0.9981305929766797 3.590731219440735e-8
vn 0.6007658539779641 0.799425036319308 -2.8758968154237268e-8
vn -0.6007658539779641 -0.799425036319308 2.8758968154237268e-8
vn -0.1475868765463968 0.9890490957840654 -3.5580608700958383e-8
vn 0.1475868765463968 -0.9890490957840654 3.5580608700958383e-8
vn 0.7547293405949367 0.6560362965912265 -2.360062132845543e-8
vn -0.7547293405949367 -0.6560362965912265 2.360062132845543e-8
vn -0.34452674561882196 0.938776502450558 -3.377207355320559e-8
vn 0.34452674561882196 -0.938776502450558 3.377207355320559e-8
vn 0.8708183164934772 0.4916049833549963 -1.76852770050126e-8
vn -0.8708183164934772 -0.4916049833549963 1.76852770050126e-8
vn -0.5185808557881812 0.8550285936797649 -3.075927862303431e-8
vn 0.5185808557881812 -0.8550285936797649 3.075927862303431e-8
vn 0.946601480980614 0.3224060114286149 -1.1598418127314887e-8
vn -0.946601480980614 -0.3224060114286149 1.1598418127314887e-8
vn -0.6823458876899826 0.7310294724240392 -2.6298463938228574e-8
vn 0.6823458876899826 -0.7310294724240392 2.6298463938228574e-8
vn 0.9915149100052165 0.129993012263534 -4.6764446727848706e-9
vn -0.9915149100052165 -0.129993012263534 4.6764446727848706e-9
vn -0.8156696784800075 0.5785179129537137 -2.0811926832609747e-8
vn 0.8156696784800075 -0.5785179129537137 2.0811926832609747e-8
vn 0.9974409924345871 -0.07149452154610204 2.571981313083846e-9
vn -0.9974409924345871 0.07149452154610204 -2.571981313083846e-9
vn -0.9081533984985222 0.41863755779383205 -1.5060300638646838e-8
vn 0.9081533984985222 -0.41863755779383205 1.5060300638646838e-8
vn 0.9658956988334959 -0.2589314561326072 9.314943237959645e-9
vn -0.9658956988334959 0.2589314561326072 -9.314943237959645e-9
vn -0.9677511664781477 0.25190807803677956 -9.062280274007426e-9
vn 0.9677511664781477 -0.25190807803677956 9.062280274007426e-9
vn 0.9067396262753687 -0.4216909414986343 1.5170144787525103e-8
vn -0.9067396262753687 0.4216909414986343 -1.5170144787525103e-8
vn -0.9992000710777948 0.039990223281819275 -1.4386279415772607e-9
vn 0.9992000710777948 -0.039990223281819275 1.4386279415772607e-9
vn 0.811185193794218 -0.5847893478587279 2.103753897633298e-8
vn -0.811185193794218 0.5847893478587279 -2.103753897633298e-8
vn -0.9806951730206899 -0.19554277694131036 7.034568788596473e-9
vn 0.9806951730206899 0.19554277694131036 -7.034568788596473e-9
vn 0.6771274792096643 -0.735865732929021 2.6472446312017997e-8
vn -0.6771274792096643 0.735865732929021 -2.6472446312017997e-8
vn -0.908301904792669 -0.41831525163446887 1.5048711032864122e-8
vn 0.908301904792669 0.41831525163446887 -1.5048711032864122e-8
vn 0.51762742575922 -0.8556061290698438 3.078005520911722e-8
vn -0.51762742575922 0.8556061290698438 -3.078005520911722e-8
vn -0.8144479148369959 -0.5802366706936655 2.087376307367781e-8
vn 0.8144479148369959 0.5802366706936655 -2.087376307367781e-8
vn 0.3501972586664295 -0.9366759738685073 3.369650793885795e-8
vn -0.3501972586664295 0.9366759738685073 -3.369650793885795e-8
vn -0.702822507582807 -0.7113652527605032 2.5591056205426045e-8
vn 0.702822507582807 0.7113652527605032 -2.5591056205426045e-8
vn 0.1566160535770233 -0.9876595626844088 3.5530620828822785e-8
vn -0.1566160535770233 0.9876595626844088 -3.5530620828822785e-8
vn -0.5661480133594076 -0.8243036012108615 2.9653963557824394e-8
vn 0.5661480133594076 0.8243036012108615 -2.9653963557824394e-8
vn -0.05301659084452255 -0.9985936316115895 3.592396978373789e-8
vn 0.05301659084452255 0.9985936316115895 -3.592396978373789e-8
vn -0.41682507149354914 -0.9089867214510872 3.270040138318181e-8
vn 0.41682507149354914 0.9089867214510872 -3.270040138318181e-8
vn -0.25273158129535245 -0.9675364322938693 3.4806701180208797e-8
vn 0.25273158129535245 0.9675364322938693 -3.4806701180208797e-8
usemtl material_0_0
f 1/1/1 2/2/1 3/3/1
f 2/2/1 1/1/1 4/4/1
f 5/4/2 6/1/2 7/2/2
f 8/3/2 7/2/2 6/1/2
f 9/5/3 10/6/3 11/7/3
f 10/6/3 9/5/3 12/8/3
f 13/8/4 14/5/4 15/6/4
f 16/7/4 15/6/4 14/5/4
f 17/9/5 18/10/5 19/11/5
f 18/10/5 17/9/5 20/12/5
f 21/12/6 22/9/6 23/10/6
f 24/11/6 23/10/6 22/9/6
f 25/13/7 26/14/7 27/15/7
f 26/14/7 25/13/7 28/16/7
f 29/16/8 30/13/8 31/14/8
f 32/15/8 31/14/8 30/13/8
f 33/17/9 34/18/9 35/19/9
f 34/18/9 33/17/9 36/20/9
f 37/20/10 38/17/10 39/18/10
f 40/19/10 39/18/10 38/17/10
f 41/21/11 42/22/11 43/23/11
f 42/22/11 41/21/11 44/24/11
f 45/24/12 46/21/12 47/22/12
f 48/23/12 47/22/12 46/21/12
f 49/25/13 50/26/13 51/27/13
f 50/26/13 49/25/13 52/28/13
f 53/28/14 54/25/14 55/26/14
f 56/27/14 55/26/14 54/25/14
f 57/29/15 58/30/15 59/31/15
f 58/30/15 57/29/15 60/32/15
f 61/32/16 62/29/16 63/30/16
f 64/31/16 63/30/16 62/29/16
f 65/33/17 66/34/17 67/35/17
f 66/34/17 65/33/17 68/36/17
f 69/36/18 70/33/18 71/34/18
f 72/35/18 71/34/18 70/33/18
f 73/37/19 74/38/19 75/39/19
f 74/38/19 73/37/19 76/40/19
f 77/40/20 78/37/20 79/38/20
f 80/39/20 79/38/20 78/37/20
f 81/41/21 82/42/21 83/43/21
f 82/42/21 81/41/21 84/44/21
f 85/44/22 86/41/22 87/42/22
f 88/43/22 87/42/22 86/41/22
f 89/45/23 90/46/23 91/47/23
f 90/46/23 89/45/23 92/48/23
f 93/48/24 94/45/24 95/46/24
f 96/47/24 95/46/24 94/45/24
f 97/49/25 98/50/25 99/51/25
f 98/50/25 97/49/25 100/52/25
f 101/52/26 102/49/26 103/50/26
f 104/51/26 103/50/26 102/49/26
f 105/53/27 106/54/27 107/55/27
f 106/54/27 105/53/27 108/56/27
f 109/56/28 110/53/28 111/54/28
f 112/55/28 111/54/28 110/53/28
f 113/57/29 114/58/29 115/59/29
f 114/58/29 113/57/29 116/60/29
f 117/60/30 118/57/30 119/58/30
f 120/59/30 119/58/30 118/57/30
f 121/61/31 122/62/31 123/63/31
f 122/62/31 121/61/31 124/64/31
f 125/64/32 126/61/32 127/62/32
f 128/63/32 127/62/32 126/61/32
f 129/65/33 130/66/33 131/67/33
f 130/66/33 129/65/33 132/68/33
f 133/68/34 134/65/34 135/66/34
f 136/67/34 135/66/34 134/65/34
f 137/69/35 138/70/35 139/71/35
f 138/70/35 137/69/35 140/72/35
f 141/72/36 142/69/36 143/70/36
f 144/71/36 143/70/36 142/69/36
f 145/73/37 146/74/37 147/75/37
f 146/74/37 145/73/37 148/76/37
f 149/76/38 150/73/38 151/74/38
f 152/75/38 151/74/38 150/73/38
f 153/77/39 154/78/39 155/79/39
f 154/78/39 153/77/39 156/80/39
f 157/80/40 158/77/40 159/78/40
f 160/79/40 159/78/40 158/77/40
f 161/81/41 162/82/41 163/83/41
f 162/82/41 161/81/41 164/84/41
f 165/84/42 166/81/42 167/82/42
f 168/83/42 167/82/42 166/81/42
f 169/85/43 170/86/43 171/87/43
f 170/86/43 169/85/43 172/88/43
f 173/88/44 174/85/44 175/86/44
f 176/87/44 175/86/44 174/85/44
f 177/89/45 178/90/45 179/91/45
f 178/90/45 177/89/45 180/92/45
f 181/92/46 182/89/46 183/90/46
f 184/91/46 183/90/46 182/89/46
f 185/93/47 186/94/47 187/95/47
f 186/94/47 185/93/47 188/96/47
f 189/96/48 190/93/48 191/94/48
f 192/95/48 191/94/48 190/93/48
f 193/97/49 194/98/49 195/99/49
f 194/98/49 193/97/49 196/100/49
f 197/100/50 198/97/50 199/98/50
f 200/99/50 199/98/50 198/97/50
f 201/101/51 202/102/51 203/103/51
f 202/102/51 201/101/51 204/104/51
f 205/104/52 206/101/52 207/102/52
f 208/103/52 207/102/52 206/101/52
f 209/105/53 210/106/53 211/107/53
f 210/106/53 209/105/53 212/108/53
f 213/108/54 214/105/54 215/106/54
f 216/107/54 215/106/54 214/105/54
f 217/109/55 218/110/55 219/111/55
f 218/110/55 217/109/55 220/112/55
f 221/112/56 222/109/56 223/110/56
f 224/111/56 223/110/56 222/109/56
f 225/113/57 226/114/57 227/115/57
f 226/114/57 225/113/57 228/116/57
f 229/116/58 230/113/58 231/114/58
f 232/115/58 231/114/58 230/113/58
f 233/117/59 234/118/59 235/119/59
f 234/118/59 233/117/59 236/120/59
f 237/120/60 238/117/60 239/118/60
f 240/119/60 239/118/60 238/117/60
f 241/121/61 242/122/61 243/123/61
f 242/122/61 241/121/61 244/124/61
f 245/124/62 246/121/62 247/122/62
f 248/123/62 247/122/62 246/121/62
f 249/125/63 250/126/63 251/127/63
f 250/126/63 249/125/63 252/128/63
f 253/128/64 254/125/64 255/126/64
f 256/127/64 255/126/64 254/125/64
