# SSTK version 0.8.0
# 9
mtllib original_9.mtl
o #ID61
v 0.12797676 0.28380356 -0.55614044
v 0.12596823 0.24280577 -0.55613072
v 0.12887088 0.26342246 -0.55608304
v 0.12382464 0.30377007 -0.55608128
v 0.11981728 0.22355169 -0.55612091
v 0.11598694 0.32287853 -0.55611322
v 0.11006633 0.20536100 -0.55616830
v 0.10518016 0.34016621 -0.55626213
v 0.09767990 0.18905369 -0.55618902
v 0.09127510 0.35530941 -0.55616327
v 0.08225369 0.17552681 -0.55622829
v 0.07927674 0.26556490 -0.55606049
v 0.07898774 0.27754746 -0.55629828
v 0.07507686 0.36809165 -0.55615673
v 0.07639227 0.28919298 -0.55623694
v 0.07189555 0.30021904 -0.55619467
v 0.05687372 0.37754638 -0.55605289
v 0.06554387 0.31023199 -0.55633125
v 0.05757212 0.31889732 -0.55619244
v 0.04829718 0.32624260 -0.55622440
v 0.03742686 0.38373437 -0.55618194
v 0.03774418 0.33174245 -0.55629826
v 0.02647935 0.33542035 -0.55615490
v 0.01714211 0.38654321 -0.55614869
v 0.01472393 0.33709116 -0.55626205
v -0.00328862 0.38576383 -0.55611501
v 0.00285732 0.33671420 -0.55620538
v -0.00863180 0.33421750 -0.55625797
v -0.02340827 0.38168639 -0.55618651
v -0.01979096 0.32960386 -0.55624786
v -0.02977450 0.32343430 -0.55614012
v -0.04230765 0.37383317 -0.55613465
v -0.03874541 0.31557820 -0.55618372
v -0.04595166 0.30605460 -0.55611727
v -0.05984937 0.36272963 -0.55627964
v -0.05150745 0.29553669 -0.55619326
v -0.05493818 0.28428043 -0.55611044
v -0.05666868 0.27252526 -0.55610581
v 0.07788228 0.25379640 -0.55630764
v 0.06498538 0.16439235 -0.55611149
v 0.07410271 0.24272652 -0.55619797
v 0.06861650 0.23224248 -0.55614569
v 0.06137038 0.22269015 -0.55615598
v 0.04605837 0.15684555 -0.55627678
v 0.05251346 0.21474410 -0.55628897
v 0.04251945 0.20857691 -0.55628425
v 0.02599843 0.15243858 -0.55616531
v 0.03146457 0.20405375 -0.55614573
v 0.01986879 0.20155048 -0.55619551
v 0.00558883 0.15161845 -0.55631310
v 0.00783141 0.20119645 -0.55620637
v -0.00364303 0.20270763 -0.55626977
v -0.01476004 0.15429080 -0.55618379
v -0.01504723 0.20631035 -0.55607223
v -0.03423638 0.16059842 -0.55628158
v -0.02558514 0.21193389 -0.55615301
v -0.03490245 0.21914832 -0.55607912
v -0.05235460 0.17028128 -0.55621360
v -0.04289177 0.22800532 -0.55614754
v -0.04925859 0.23810556 -0.55620761
v -0.05358451 0.24892333 -0.55630874
v -0.06862225 0.18300134 -0.55609822
v -0.05633810 0.26070002 -0.55617408
v -0.07495363 0.34917283 -0.55614010
v -0.08240035 0.19791908 -0.55605078
v -0.08749876 0.33285362 -0.55626554
v -0.09320900 0.21539425 -0.55634931
v -0.09709268 0.31472958 -0.55610876
v -0.10112449 0.23434068 -0.55626515
v -0.10338846 0.29526791 -0.55613264
v -0.10542058 0.25451672 -0.55613358
v -0.10618717 0.27502066 -0.55612828
v -0.10625179 0.27489559 -0.55613753
v -0.10341771 0.29536878 -0.55603717
v -0.10550601 0.25446748 -0.55626622
v -0.10089052 0.23432946 -0.55627889
v -0.09701592 0.31482815 -0.55628141
v -0.09340688 0.21538841 -0.55631028
v -0.08742904 0.33290050 -0.55611390
v -0.08255184 0.19803714 -0.55622076
v -0.07492993 0.34919294 -0.55629855
v -0.06856702 0.18292742 -0.55618571
v -0.05973964 0.36297270 -0.55613005
v -0.05655347 0.27243680 -0.55618602
v -0.05628652 0.26058882 -0.55633970
v -0.05355412 0.24893305 -0.55601918
v -0.05245607 0.17025250 -0.55605479
v -0.04930591 0.23818142 -0.55620960
v -0.04309272 0.22789069 -0.55623884
v -0.03494703 0.21916454 -0.55605058
v -0.03427286 0.16086860 -0.55618184
v -0.02562348 0.21187321 -0.55615788
v -0.01511517 0.20640097 -0.55626279
v -0.01486776 0.15440251 -0.55611201
v -0.00383850 0.20268930 -0.55616062
v 0.00550388 0.15177191 -0.55629389
v 0.00798424 0.20108563 -0.55621704
v 0.01964618 0.20159247 -0.55630048
v 0.02588347 0.15248052 -0.55623700
v 0.03148465 0.20394954 -0.55615432
v 0.04244458 0.20839741 -0.55622486
v 0.04604237 0.15674448 -0.55611388
v 0.05240368 0.21486564 -0.55625627
v 0.06109433 0.22288277 -0.55635951
v 0.06501897 0.16444038 -0.55615461
v 0.06849806 0.23213973 -0.55625363
v 0.07421047 0.24269035 -0.55631489
v 0.07768925 0.25380639 -0.55627014
v 0.07939034 0.26565459 -0.55604672
v 0.08245338 0.17528897 -0.55622726
v -0.05522608 0.28424082 -0.55612724
v -0.05150495 0.29547272 -0.55614895
v -0.04572199 0.30605888 -0.55615541
v -0.04228469 0.37379669 -0.55632449
v -0.03846436 0.31546237 -0.55625379
v -0.02978357 0.32347174 -0.55619475
v -0.02325402 0.38163375 -0.55623338
v -0.01983939 0.32967144 -0.55627397
v -0.00862460 0.33413973 -0.55612101
v -0.00335004 0.38578228 -0.55632433
v 0.00280084 0.33665018 -0.55617230
v 0.01488162 0.33721652 -0.55618601
v 0.01726520 0.38654839 -0.55618938
v 0.02635407 0.33545089 -0.55621436
v 0.03749089 0.38397147 -0.55617613
v 0.03788837 0.33186098 -0.55625531
v 0.04823821 0.32636314 -0.55618539
v 0.05715990 0.37763055 -0.55615407
v 0.05764949 0.31924898 -0.55632152
v 0.06551572 0.31037084 -0.55613519
v 0.07201486 0.30022517 -0.55614559
v 0.07517972 0.36787645 -0.55620928
v 0.07653051 0.28925381 -0.55618772
v 0.07891065 0.27749320 -0.55634154
v 0.09121783 0.35542704 -0.55623915
v 0.09754619 0.18903871 -0.55623689
v 0.10513648 0.34017972 -0.55608887
v 0.11020594 0.20542304 -0.55622421
v 0.11609883 0.32270270 -0.55635398
v 0.11973729 0.22340817 -0.55623864
v 0.12392063 0.30384147 -0.55610513
v 0.12606531 0.24311114 -0.55625008
v 0.12811794 0.28377142 -0.55619154
v 0.12888952 0.26330391 -0.55624280
v -0.08238196 0.19801970 -0.55632336
v -0.06876030 0.18291697 -0.56211639
v -0.06859680 0.18286457 -0.55619169
v -0.08236112 0.19799881 -0.56206915
v -0.08225540 0.19813985 -0.56221330
v -0.08244860 0.19821402 -0.55622686
v -0.06880023 0.18304678 -0.56218317
v -0.06862069 0.18279181 -0.55623795
v -0.05237302 0.17037011 -0.56224508
v -0.05257288 0.17016149 -0.55608052
v -0.05253678 0.17035434 -0.56199840
v -0.05240339 0.17013301 -0.55608959
v -0.03426705 0.16068937 -0.55604648
v -0.03439401 0.16071068 -0.56199224
v -0.03431225 0.16069314 -0.56213236
v -0.03430547 0.16077308 -0.55622004
v -0.01488603 0.15444414 -0.56211031
v -0.01480310 0.15444279 -0.55609669
v -0.01495251 0.15434898 -0.56199628
v -0.01482208 0.15439891 -0.55613484
v 0.00550212 0.15163373 -0.55631686
v 0.00544100 0.15169287 -0.56193151
v 0.00567076 0.15161144 -0.56202399
v 0.00547472 0.15157141 -0.55628220
v 0.02588686 0.15234191 -0.55622572
v 0.02600266 0.15239050 -0.56210509
v 0.02605287 0.15249806 -0.56209055
v 0.02587998 0.15227643 -0.55617773
v 0.04612462 0.15676349 -0.55617011
v 0.04588762 0.15664285 -0.56200915
v 0.04614793 0.15679122 -0.56198460
v 0.04611582 0.15665907 -0.55622744
v 0.06487010 0.16440497 -0.56201317
v 0.06516357 0.16448742 -0.55622759
v 0.06494277 0.16431232 -0.56216630
v 0.06487386 0.16433260 -0.55618704
v 0.08236100 0.17524048 -0.55602201
v 0.08226025 0.17530725 -0.56190684
v 0.08237306 0.17539800 -0.56209447
v 0.08231226 0.17537507 -0.55630490
v 0.09770218 0.18912563 -0.55632504
v 0.09759249 0.18912909 -0.56203956
v 0.09761416 0.18909976 -0.56205770
v 0.09757652 0.18910411 -0.55604845
v 0.11014699 0.20518023 -0.56212802
v 0.11026426 0.20532110 -0.55607656
v 0.11017583 0.20537377 -0.55614370
v 0.11026712 0.20534965 -0.56195560
v 0.11977248 0.22361332 -0.56197514
v 0.11983123 0.22343125 -0.55616663
v 0.11976497 0.22341664 -0.55615314
v 0.11969011 0.22335345 -0.56211322
v 0.12618904 0.24290465 -0.55631277
v 0.12600851 0.24301848 -0.56210589
v 0.12598953 0.24311358 -0.56209912
v 0.12605280 0.24295707 -0.55616051
v 0.12872446 0.26313416 -0.55612828
v 0.12893054 0.26315205 -0.56213070
v 0.12891536 0.26322991 -0.56214568
v 0.12891917 0.26325130 -0.55621839
v 0.12818928 0.28368058 -0.55606204
v 0.12800266 0.28365064 -0.56205056
v 0.12794474 0.28364827 -0.56207203
v 0.12812900 0.28372520 -0.55622149
v 0.12375483 0.30380375 -0.55619645
v 0.12387221 0.30382883 -0.56204647
v 0.12358120 0.30392867 -0.56195429
v 0.12373897 0.30380358 -0.55614260
v 0.11606188 0.32273433 -0.55632707
v 0.11615603 0.32284162 -0.56188786
v 0.11607222 0.32286169 -0.56206091
v 0.11608895 0.32278992 -0.55612856
v 0.10519801 0.34000260 -0.56203607
v 0.10506467 0.34010649 -0.55626180
v 0.10517191 0.34024346 -0.55615573
v 0.10511128 0.34014565 -0.56192502
v 0.09133283 0.35539370 -0.56196980
v 0.09148600 0.35529845 -0.55617934
v 0.09130815 0.35530061 -0.55615543
v 0.09148325 0.35529992 -0.56220775
v 0.07511614 0.36778457 -0.56215126
v 0.07502710 0.36798273 -0.55608940
v 0.07526653 0.36796766 -0.56203617
v 0.07530292 0.36795391 -0.55618239
v 0.05713025 0.37751195 -0.55614073
v 0.05687314 0.37737528 -0.56197229
v 0.05713479 0.37755401 -0.56199510
v 0.05709196 0.37748807 -0.55625966
v 0.03753639 0.38367361 -0.56212117
v 0.03750107 0.38381869 -0.55627007
v 0.03752029 0.38389197 -0.56207467
v 0.03746708 0.38376197 -0.55630046
v 0.01720240 0.38649381 -0.55633760
v 0.01707406 0.38661053 -0.56200484
v 0.01730630 0.38667763 -0.56211922
v 0.01726146 0.38659275 -0.55612589
v -0.00347490 0.38585629 -0.55633831
v -0.00327568 0.38590675 -0.56197532
v -0.00337120 0.38579698 -0.56199962
v -0.00338296 0.38596502 -0.55607182
v -0.02334649 0.38151630 -0.56203588
v -0.02334251 0.38165177 -0.55626430
v -0.02349898 0.38164791 -0.56216625
v -0.02322635 0.38150836 -0.55623343
v -0.04236021 0.37374046 -0.55622388
v -0.04227837 0.37374420 -0.56191914
v -0.04236551 0.37383027 -0.56212159
v -0.04237924 0.37383802 -0.55612486
v -0.05972575 0.36290301 -0.55619278
v -0.05968544 0.36288354 -0.56206836
v -0.05971371 0.36284000 -0.56197795
v -0.05975268 0.36288632 -0.55605667
v -0.07485234 0.34914725 -0.55616459
v -0.07489130 0.34900371 -0.56212446
v -0.07499004 0.34923001 -0.56189275
v -0.07485704 0.34916758 -0.55631258
v -0.08759568 0.33306369 -0.56205625
v -0.08762940 0.33280226 -0.55608203
v -0.08749242 0.33299026 -0.56198385
v -0.08755665 0.33283248 -0.55628037
v -0.09706758 0.31476317 -0.56212709
v -0.09702747 0.31476899 -0.55604023
v -0.09705271 0.31485789 -0.56202435
v -0.09701011 0.31475720 -0.55615526
v -0.10328438 0.29536146 -0.56213934
v -0.10334615 0.29524996 -0.55626556
v -0.10333738 0.29522869 -0.56209354
v -0.10336367 0.29527974 -0.55637061
v -0.10614137 0.27480532 -0.56205018
v -0.10621598 0.27480579 -0.55618391
v -0.10619755 0.27487132 -0.56207162
v -0.10610879 0.27499843 -0.55627815
v -0.10522819 0.25453429 -0.56198480
v -0.10530000 0.25453229 -0.55626605
v -0.10527190 0.25454344 -0.56198104
v -0.10543567 0.25458222 -0.55613109
v -0.10097990 0.23451794 -0.55626178
v -0.10101791 0.23431914 -0.56205493
v -0.10092455 0.23437413 -0.55620050
v -0.10105167 0.23434905 -0.56206878
v -0.09334176 0.21532917 -0.56196993
v -0.09335635 0.21528553 -0.55621907
v -0.09328445 0.21545364 -0.56211136
v -0.09335953 0.21546690 -0.55613676
vt 1.797049 0.9045843
vt 1.51985 0.9183582
vt 1.657847 0.8993454
vt 1.933227 0.9339158
vt 1.387252 0.9610452
vt 2.062242 0.9864486
vt 1.26408 1.026109
vt 2.180175 1.060587
vt 1.154077 1.111573
vt 2.283443 1.154077
vt 1.060587 1.214841
vt 1.674546 1.235394
vt 1.75514 1.238427
vt 2.368907 1.26408
vt 1.833983 1.25541
vt 1.908679 1.285825
vt 2.433971 1.387252
vt 1.976959 1.328748
vt 2.036748 1.382877
vt 2.086229 1.446565
vt 2.476658 1.51985
vt 2.123899 1.517878
vt 2.148614 1.594649
vt 2.49567 1.657847
vt 2.159622 1.674546
vt 2.490432 1.797049
vt 2.156588 1.75514
vt 2.139606 1.833983
vt 2.4611 1.933227
vt 2.109191 1.908679
vt 2.066267 1.976959
vt 2.408567 2.062242
vt 2.012139 2.036748
vt 1.948451 2.086229
vt 2.334429 2.180175
vt 1.877138 2.123899
vt 1.800367 2.148614
vt 1.72047 2.159622
vt 1.594649 1.246402
vt 0.9864486 1.332774
vt 1.517878 1.271117
vt 1.446565 1.308787
vt 1.382877 1.358268
vt 0.9339158 1.461789
vt 1.328748 1.418057
vt 1.285825 1.486337
vt 0.9045843 1.597966
vt 1.25541 1.561033
vt 1.238427 1.639876
vt 0.8993454 1.737168
vt 1.235394 1.72047
vt 1.246402 1.800367
vt 0.9183582 1.875165
vt 1.271117 1.877138
vt 0.9610452 2.007764
vt 1.308787 1.948451
vt 1.358268 2.012139
vt 1.026109 2.130936
vt 1.418057 2.066267
vt 1.486337 2.109191
vt 1.561033 2.139606
vt 1.111573 2.240939
vt 1.639876 2.156588
vt 2.240939 2.283443
vt 1.214841 2.334429
vt 2.130936 2.368907
vt 1.332774 2.408567
vt 2.007764 2.433971
vt 1.461789 2.4611
vt 1.875165 2.476658
vt 1.597966 2.490432
vt 1.737168 2.49567
vt 0.3824105 2.467331
vt 0.3399205 2.32803
vt 0.3824105 2.32803
vt 0.3399205 2.467331
vt 0.3824105 2.451593
vt 0.3399205 2.312293
vt 0.3824105 2.312293
vt 0.3399205 2.451593
vt 0.3399205 2.363481
vt 0.3824105 2.224181
vt 0.3824105 2.363481
vt 0.3399205 2.224181
vt 0.3824105 2.205673
vt 0.3399205 2.066372
vt 0.3824105 2.066372
vt 0.3399205 2.205673
vt 0.3399205 1.982962
vt 0.3824105 1.843661
vt 0.3824105 1.982962
vt 0.3399205 1.843661
vt 0.3399205 1.702116
vt 0.3824105 1.562816
vt 0.3824105 1.702116
vt 0.3399205 1.562816
vt 0.3399205 1.371669
vt 0.3824105 1.232368
vt 0.3824105 1.371669
vt 0.3399205 1.232368
vt 0.3824105 1.001661
vt 0.3399205 0.86236
vt 0.3824105 0.86236
vt 0.3399205 1.001661
vt 0.3399205 0.6033334
vt 0.3824105 0.4640328
vt 0.3824105 0.6033334
vt 0.3399205 0.4640328
vt 0.3399205 0.1887905
vt 0.3824105 0.04948997
vt 0.3824105 0.1887905
vt 0.3399205 0.04948997
vt 0.3399205 -0.3686729
vt 0.3824105 -0.2293723
vt 0.3399205 -0.2293723
vt 0.3824105 -0.3686729
vt 0.3399205 -0.7777501
vt 0.3824105 -0.6384496
vt 0.3399205 -0.6384496
vt 0.3824105 -0.7777501
vt 0.3399205 -1.026012
vt 0.3824105 -1.165312
vt 0.3824105 -1.026012
vt 0.3399205 -1.165312
vt 0.3399205 -1.380282
vt 0.3824105 -1.519583
vt 0.3824105 -1.380282
vt 0.3399205 -1.519583
vt -0.3399205 1.690498
vt -0.3824105 1.829798
vt -0.3824105 1.690498
vt -0.3399205 1.829798
vt -0.3399205 1.947232
vt -0.3824105 2.086532
vt -0.3824105 1.947232
vt -0.3399205 2.086532
vt -0.3399205 2.142684
vt -0.3824105 2.281985
vt -0.3824105 2.142684
vt -0.3399205 2.281985
vt -0.3399205 2.410216
vt -0.3824105 2.270916
vt -0.3399205 2.270916
vt -0.3824105 2.410216
vt -0.3399205 2.467331
vt -0.3824105 2.32803
vt -0.3399205 2.32803
vt -0.3824105 2.467331
vt -0.3824105 2.312293
vt -0.3399205 2.451593
vt -0.3824105 2.451593
vt -0.3399205 2.312293
vt -0.3399205 2.224181
vt -0.3824105 2.363481
vt -0.3824105 2.224181
vt -0.3399205 2.363481
vt -0.3824105 2.066372
vt -0.3399205 2.205673
vt -0.3824105 2.205673
vt -0.3399205 2.066372
vt -0.3399205 1.843661
vt -0.3824105 1.982962
vt -0.3824105 1.843661
vt -0.3399205 1.982962
vt -0.3399205 1.562816
vt -0.3824105 1.702116
vt -0.3824105 1.562816
vt -0.3399205 1.702116
vt -0.3824105 1.232368
vt -0.3399205 1.371669
vt -0.3824105 1.371669
vt -0.3399205 1.232368
vt -0.3399205 0.86236
vt -0.3824105 1.001661
vt -0.3824105 0.86236
vt -0.3399205 1.001661
vt -0.3399205 0.4640328
vt -0.3824105 0.6033334
vt -0.3824105 0.4640328
vt -0.3399205 0.6033334
vt -0.3399205 0.04948997
vt -0.3824105 0.1887905
vt -0.3824105 0.04948997
vt -0.3399205 0.1887905
vt -0.3824105 -0.3686729
vt -0.3399205 -0.2293723
vt -0.3824105 -0.2293723
vt -0.3399205 -0.3686729
vt -0.3824105 -0.7777501
vt -0.3399205 -0.6384496
vt -0.3824105 -0.6384496
vt -0.3399205 -0.7777501
vt -0.3824105 -1.165312
vt -0.3399205 -1.026012
vt -0.3824105 -1.026012
vt -0.3399205 -1.165312
vt -0.3824105 -1.519583
vt -0.3399205 -1.380282
vt -0.3824105 -1.380282
vt -0.3399205 -1.519583
vt 0.3824105 1.829798
vt 0.3399205 1.690498
vt 0.3824105 1.690498
vt 0.3399205 1.829798
vt 0.3824105 1.947232
vt 0.3399205 2.086532
vt 0.3399205 1.947232
vt 0.3824105 2.086532
vt 0.3824105 2.281985
vt 0.3399205 2.142684
vt 0.3824105 2.142684
vt 0.3399205 2.281985
vt 0.3824105 2.410216
vt 0.3399205 2.270916
vt 0.3824105 2.270916
vt 0.3399205 2.410216
vn 0 3.597452993163568e-8 1
vn 0 -3.597452993163568e-8 -1
vn -0.7970011253868572 -0.6039778192384906 2.172781904761949e-8
vn -0.6800131845180549 -0.7331998833071465 2.6376520942898526e-8
vn 0.7970011253868572 0.6039778192384906 -2.172781904761949e-8
vn 0.6800131845180549 0.7331998833071465 -2.6376520942898526e-8
vn -0.542363471019283 -0.8401439551076435 3.022378254472975e-8
vn 0.542363471019283 0.8401439551076435 -3.022378254472975e-8
vn -0.38823430087721905 -0.9215607020822751 3.3152710675505526e-8
vn 0.38823430087721905 0.9215607020822751 -3.3152710675505526e-8
vn -0.22230880132061062 -0.974976305791783 3.50743109122449e-8
vn 0.22230880132061062 0.974976305791783 -3.50743109122449e-8
vn -0.049628562170480894 -0.9987677436806265 3.593019581175859e-8
vn 0.049628562170480894 0.9987677436806265 -3.593019581175859e-8
vn 0.12455960340430355 -0.9922121271178665 3.569435982255227e-8
vn -0.12455960340430355 0.9922121271178665 -3.569435982255227e-8
vn 0.29496311253068713 -0.9555086405921235 3.4373968536216984e-8
vn -0.29496311253068713 0.9555086405921235 -3.4373968536216984e-8
vn 0.4564043030089053 -0.8897725058659401 3.200914155002155e-8
vn -0.4564043030089053 0.8897725058659401 -3.200914155002155e-8
vn 0.6039778192384913 -0.7970011253868564 2.8671734491459453e-8
vn -0.6039778192384913 0.7970011253868564 -2.8671734491459453e-8
vn 0.7331998833071471 -0.680013184518054 2.4463148249230693e-8
vn -0.7331998833071471 0.680013184518054 -2.4463148249230693e-8
vn 0.8401439551076445 -0.5423634710192823 1.9511264643892007e-8
vn -0.8401439551076445 0.5423634710192823 -1.9511264643892007e-8
vn 0.9215607020822759 -0.38823430087721855 1.3966540523033614e-8
vn -0.9215607020822759 0.38823430087721855 -1.3966540523033614e-8
vn 0.9749763057917834 -0.22230880132061026 7.997449177485331e-9
vn -0.9749763057917834 0.22230880132061026 -7.997449177485331e-9
vn 0.998767743680627 -0.04962856217048081 1.7853594158387778e-9
vn -0.998767743680627 0.04962856217048081 -1.7853594158387778e-9
vn 0.9922121271178672 0.12455960340430337 -4.480977144884483e-9
vn -0.9922121271178672 -0.12455960340430337 4.480977144884483e-9
vn 0.9555086405921243 0.29496311253068674 -1.0611162348482032e-8
vn -0.9555086405921243 -0.29496311253068674 1.0611162348482032e-8
vn 0.8897725058659407 0.45640430300890467 -1.6418932259609465e-8
vn -0.8897725058659407 -0.45640430300890467 1.6418932259609465e-8
usemtl material_0_0
f 1/1/1 2/2/1 3/3/1
f 2/2/1 1/1/1 4/4/1
f 2/2/1 4/4/1 5/5/1
f 5/5/1 4/4/1 6/6/1
f 5/5/1 6/6/1 7/7/1
f 7/7/1 6/6/1 8/8/1
f 7/7/1 8/8/1 9/9/1
f 9/9/1 8/8/1 10/10/1
f 9/9/1 10/10/1 11/11/1
f 11/11/1 10/10/1 12/12/1
f 12/12/1 10/10/1 13/13/1
f 13/13/1 10/10/1 14/14/1
f 13/13/1 14/14/1 15/15/1
f 15/15/1 14/14/1 16/16/1
f 16/16/1 14/14/1 17/17/1
f 16/16/1 17/17/1 18/18/1
f 18/18/1 17/17/1 19/19/1
f 19/19/1 17/17/1 20/20/1
f 20/20/1 17/17/1 21/21/1
f 20/20/1 21/21/1 22/22/1
f 22/22/1 21/21/1 23/23/1
f 23/23/1 21/21/1 24/24/1
f 23/23/1 24/24/1 25/25/1
f 25/25/1 24/24/1 26/26/1
f 25/25/1 26/26/1 27/27/1
f 27/27/1 26/26/1 28/28/1
f 28/28/1 26/26/1 29/29/1
f 28/28/1 29/29/1 30/30/1
f 30/30/1 29/29/1 31/31/1
f 31/31/1 29/29/1 32/32/1
f 31/31/1 32/32/1 33/33/1
f 33/33/1 32/32/1 34/34/1
f 34/34/1 32/32/1 35/35/1
f 34/34/1 35/35/1 36/36/1
f 36/36/1 35/35/1 37/37/1
f 37/37/1 35/35/1 38/38/1
f 11/11/1 39/39/1 40/40/1
f 39/39/1 11/11/1 12/12/1
f 40/40/1 39/39/1 41/41/1
f 40/40/1 41/41/1 42/42/1
f 40/40/1 42/42/1 43/43/1
f 40/40/1 43/43/1 44/44/1
f 44/44/1 43/43/1 45/45/1
f 44/44/1 45/45/1 46/46/1
f 44/44/1 46/46/1 47/47/1
f 47/47/1 46/46/1 48/48/1
f 47/47/1 48/48/1 49/49/1
f 47/47/1 49/49/1 50/50/1
f 50/50/1 49/49/1 51/51/1
f 50/50/1 51/51/1 52/52/1
f 50/50/1 52/52/1 53/53/1
f 53/53/1 52/52/1 54/54/1
f 53/53/1 54/54/1 55/55/1
f 55/55/1 54/54/1 56/56/1
f 55/55/1 56/56/1 57/57/1
f 55/55/1 57/57/1 58/58/1
f 58/58/1 57/57/1 59/59/1
f 58/58/1 59/59/1 60/60/1
f 58/58/1 60/60/1 61/61/1
f 58/58/1 61/61/1 62/62/1
f 62/62/1 61/61/1 63/63/1
f 62/62/1 63/63/1 38/38/1
f 62/62/1 38/38/1 35/35/1
f 62/62/1 35/35/1 64/64/1
f 62/62/1 64/64/1 65/65/1
f 65/65/1 64/64/1 66/66/1
f 65/65/1 66/66/1 67/67/1
f 67/67/1 66/66/1 68/68/1
f 67/67/1 68/68/1 69/69/1
f 69/69/1 68/68/1 70/70/1
f 69/69/1 70/70/1 71/71/1
f 71/71/1 70/70/1 72/72/1
f 73/72/2 74/70/2 75/71/2
f 75/71/2 74/70/2 76/69/2
f 74/70/2 77/68/2 76/69/2
f 76/69/2 77/68/2 78/67/2
f 77/68/2 79/66/2 78/67/2
f 78/67/2 79/66/2 80/65/2
f 79/66/2 81/64/2 80/65/2
f 80/65/2 81/64/2 82/62/2
f 81/64/2 83/35/2 82/62/2
f 83/35/2 84/38/2 82/62/2
f 84/38/2 85/63/2 82/62/2
f 85/63/2 86/61/2 82/62/2
f 82/62/2 86/61/2 87/58/2
f 86/61/2 88/60/2 87/58/2
f 88/60/2 89/59/2 87/58/2
f 89/59/2 90/57/2 87/58/2
f 87/58/2 90/57/2 91/55/2
f 90/57/2 92/56/2 91/55/2
f 92/56/2 93/54/2 91/55/2
f 91/55/2 93/54/2 94/53/2
f 93/54/2 95/52/2 94/53/2
f 94/53/2 95/52/2 96/50/2
f 95/52/2 97/51/2 96/50/2
f 97/51/2 98/49/2 96/50/2
f 96/50/2 98/49/2 99/47/2
f 98/49/2 100/48/2 99/47/2
f 100/48/2 101/46/2 99/47/2
f 99/47/2 101/46/2 102/44/2
f 101/46/2 103/45/2 102/44/2
f 103/45/2 104/43/2 102/44/2
f 102/44/2 104/43/2 105/40/2
f 104/43/2 106/42/2 105/40/2
f 106/42/2 107/41/2 105/40/2
f 107/41/2 108/39/2 105/40/2
f 109/12/2 110/11/2 108/39/2
f 105/40/2 108/39/2 110/11/2
f 84/38/2 83/35/2 111/37/2
f 111/37/2 83/35/2 112/36/2
f 112/36/2 83/35/2 113/34/2
f 83/35/2 114/32/2 113/34/2
f 113/34/2 114/32/2 115/33/2
f 115/33/2 114/32/2 116/31/2
f 114/32/2 117/29/2 116/31/2
f 116/31/2 117/29/2 118/30/2
f 118/30/2 117/29/2 119/28/2
f 117/29/2 120/26/2 119/28/2
f 119/28/2 120/26/2 121/27/2
f 121/27/2 120/26/2 122/25/2
f 120/26/2 123/24/2 122/25/2
f 122/25/2 123/24/2 124/23/2
f 123/24/2 125/21/2 124/23/2
f 124/23/2 125/21/2 126/22/2
f 126/22/2 125/21/2 127/20/2
f 125/21/2 128/17/2 127/20/2
f 127/20/2 128/17/2 129/19/2
f 129/19/2 128/17/2 130/18/2
f 130/18/2 128/17/2 131/16/2
f 128/17/2 132/14/2 131/16/2
f 131/16/2 132/14/2 133/15/2
f 133/15/2 132/14/2 134/13/2
f 132/14/2 135/10/2 134/13/2
f 134/13/2 135/10/2 109/12/2
f 109/12/2 135/10/2 110/11/2
f 110/11/2 135/10/2 136/9/2
f 135/10/2 137/8/2 136/9/2
f 136/9/2 137/8/2 138/7/2
f 137/8/2 139/6/2 138/7/2
f 138/7/2 139/6/2 140/5/2
f 139/6/2 141/4/2 140/5/2
f 140/5/2 141/4/2 142/2/2
f 141/4/2 143/1/2 142/2/2
f 144/3/2 142/2/2 143/1/2
f 145/73/3 146/74/4 147/75/4
f 146/74/4 145/73/3 148/76/3
f 149/76/5 150/73/5 151/74/6
f 152/75/6 151/74/6 150/73/5
f 147/77/4 153/78/7 154/79/7
f 153/78/7 147/77/4 146/80/4
f 151/80/6 152/77/6 155/78/8
f 156/79/8 155/78/8 152/77/6
f 153/81/7 157/82/9 154/83/7
f 157/82/9 153/81/7 158/84/9
f 159/84/10 155/81/8 160/82/10
f 156/83/8 160/82/10 155/81/8
f 157/85/9 161/86/11 162/87/11
f 161/86/11 157/85/9 158/88/9
f 159/88/10 160/85/10 163/86/12
f 164/87/12 163/86/12 160/85/10
f 161/89/11 165/90/13 162/91/11
f 165/90/13 161/89/11 166/92/13
f 167/92/14 163/89/12 168/90/14
f 164/91/12 168/90/14 163/89/12
f 166/93/13 169/94/15 165/95/13
f 169/94/15 166/93/13 170/96/15
f 171/96/16 167/93/14 172/94/16
f 168/95/14 172/94/16 167/93/14
f 170/97/15 173/98/17 169/99/15
f 173/98/17 170/97/15 174/100/17
f 175/100/18 171/97/16 176/98/18
f 172/99/16 176/98/18 171/97/16
f 173/101/17 177/102/19 178/103/19
f 177/102/19 173/101/17 174/104/17
f 175/104/18 176/101/18 179/102/20
f 180/103/20 179/102/20 176/101/18
f 177/105/19 181/106/21 178/107/19
f 181/106/21 177/105/19 182/108/21
f 183/108/22 179/105/20 184/106/22
f 180/107/20 184/106/22 179/105/20
f 182/109/21 185/110/23 181/111/21
f 185/110/23 182/109/21 186/112/23
f 187/112/24 183/109/22 188/110/24
f 184/111/22 188/110/24 183/109/22
f 189/113/25 185/114/23 186/115/23
f 185/114/23 189/113/25 190/116/25
f 191/116/26 192/113/26 188/114/24
f 187/115/24 188/114/24 192/113/26
f 193/117/27 190/118/25 189/119/25
f 190/118/25 193/117/27 194/120/27
f 195/120/28 196/117/28 191/118/26
f 192/119/26 191/118/26 196/117/28
f 193/121/27 197/122/29 194/123/27
f 197/122/29 193/121/27 198/124/29
f 199/124/30 196/121/28 200/122/30
f 195/123/28 200/122/30 196/121/28
f 198/125/29 201/126/31 197/127/29
f 201/126/31 198/125/29 202/128/31
f 203/128/32 199/125/30 204/126/32
f 200/127/30 204/126/32 199/125/30
f 202/129/31 205/130/33 201/131/31
f 205/130/33 202/129/31 206/132/33
f 207/132/34 203/129/32 208/130/34
f 204/131/32 208/130/34 203/129/32
f 206/133/33 209/134/35 205/135/33
f 209/134/35 206/133/33 210/136/35
f 211/136/36 207/133/34 212/134/36
f 208/135/34 212/134/36 207/133/34
f 210/137/35 213/138/37 209/139/35
f 213/138/37 210/137/35 214/140/37
f 215/140/38 211/137/36 216/138/38
f 212/139/36 216/138/38 211/137/36
f 217/141/5 213/142/37 214/143/37
f 213/142/37 217/141/5 218/144/5
f 219/144/3 220/141/3 216/142/38
f 215/143/38 216/142/38 220/141/3
f 221/145/6 218/146/5 217/147/5
f 218/146/5 221/145/6 222/148/6
f 223/148/4 224/145/4 219/146/3
f 220/147/3 219/146/3 224/145/4
f 222/149/6 225/150/8 226/151/8
f 225/150/8 222/149/6 221/152/6
f 224/152/4 223/149/4 227/150/7
f 228/151/7 227/150/7 223/149/4
f 225/153/8 229/154/10 226/155/8
f 229/154/10 225/153/8 230/156/10
f 231/156/9 227/153/7 232/154/9
f 228/155/7 232/154/9 227/153/7
f 229/157/10 233/158/12 234/159/12
f 233/158/12 229/157/10 230/160/10
f 231/160/9 232/157/9 235/158/11
f 236/159/11 235/158/11 232/157/9
f 233/161/12 237/162/14 234/163/12
f 237/162/14 233/161/12 238/164/14
f 239/164/13 235/161/11 240/162/13
f 236/163/11 240/162/13 235/161/11
f 238/165/14 241/166/16 237/167/14
f 241/166/16 238/165/14 242/168/16
f 243/168/15 239/165/13 244/166/15
f 240/167/13 244/166/15 239/165/13
f 241/169/16 245/170/18 246/171/18
f 245/170/18 241/169/16 242/172/16
f 243/172/15 244/169/15 247/170/17
f 248/171/17 247/170/17 244/169/15
f 245/173/18 249/174/20 246/175/18
f 249/174/20 245/173/18 250/176/20
f 251/176/19 247/173/17 252/174/19
f 248/175/17 252/174/19 247/173/17
f 250/177/20 253/178/22 249/179/20
f 253/178/22 250/177/20 254/180/22
f 255/180/21 251/177/19 256/178/21
f 252/179/19 256/178/21 251/177/19
f 254/181/22 257/182/24 253/183/22
f 257/182/24 254/181/22 258/184/24
f 259/184/23 255/181/21 260/182/23
f 256/183/21 260/182/23 255/181/21
f 257/185/24 261/186/26 262/187/26
f 261/186/26 257/185/24 258/188/24
f 259/188/23 260/185/23 263/186/25
f 264/187/25 263/186/25 260/185/23
f 262/189/26 265/190/28 266/191/28
f 265/190/28 262/189/26 261/192/26
f 263/192/25 264/189/25 267/190/27
f 268/191/27 267/190/27 264/189/25
f 266/193/28 269/194/30 270/195/30
f 269/194/30 266/193/28 265/196/28
f 267/196/27 268/193/27 271/194/29
f 272/195/29 271/194/29 268/193/27
f 270/197/30 273/198/32 274/199/32
f 273/198/32 270/197/30 269/200/30
f 271/200/29 272/197/29 275/198/31
f 276/199/31 275/198/31 272/197/29
f 274/201/32 277/202/34 278/203/34
f 277/202/34 274/201/32 273/204/32
f 275/204/31 276/201/31 279/202/33
f 280/203/33 279/202/33 276/201/31
f 281/205/36 277/206/34 282/207/36
f 277/206/34 281/205/36 278/208/34
f 280/208/33 283/205/35 279/206/33
f 284/207/35 279/206/33 283/205/35
f 281/209/36 285/210/38 286/211/38
f 285/210/38 281/209/36 282/212/36
f 284/212/35 283/209/35 287/210/37
f 288/211/37 287/210/37 283/209/35
f 286/213/38 148/214/3 145/215/3
f 148/214/3 286/213/38 285/216/38
f 287/216/37 288/213/37 149/214/5
f 150/215/5 149/214/5 288/213/37
