# SSTK version 0.8.0
# 76
mtllib original_76.mtl
o group_11/ID197#ID197
v 0.22750941 0.62401886 -0.08341369
v 0.21480284 0.62404690 -0.06731065
v 0.23124202 0.62382837 -0.07618285
v 0.20780672 0.62406839 -0.06380119
v 0.19364106 0.62408871 -0.05607520
v 0.18955331 0.62405439 -0.06330839
v 0.21461625 0.62416087 -0.05112036
v 0.22153805 0.62398635 -0.05467521
v 0.23808334 0.62411252 -0.06350827
v 0.20399831 0.62409566 -0.03619540
v 0.24194841 0.62395607 -0.05620755
v 0.20029038 0.62402020 -0.04337202
v 0.21444915 0.62389706 -0.05104028
v 0.22135535 0.62407985 -0.05460588
v 0.20033077 0.62383808 -0.04340890
v 0.23794859 0.62394515 -0.06352251
v 0.20399385 0.62403962 -0.03615391
v 0.24203112 0.62405646 -0.05610446
v 0.20795584 0.62415806 -0.06371451
v 0.21469230 0.62382396 -0.06736237
v 0.18957944 0.62388360 -0.06323638
v 0.22755472 0.62405713 -0.08345714
v 0.19352716 0.62404764 -0.05606627
v 0.23122493 0.62393873 -0.07613436
v 0.20424566 0.62393084 -0.03605279
v 0.20026055 0.61801948 -0.04336626
v 0.20416425 0.61818995 -0.03622318
v 0.20031086 0.62392635 -0.04348884
v 0.20030675 0.62404506 -0.04336284
v 0.20407869 0.62409386 -0.03621663
v 0.20034927 0.61806221 -0.04343536
v 0.20397466 0.61822398 -0.03600709
v 0.20408963 0.62392150 -0.03613488
v 0.24186867 0.61799803 -0.05623195
v 0.24198060 0.62399157 -0.05619086
v 0.20403951 0.61801172 -0.03612255
v 0.20398140 0.61804273 -0.03604029
v 0.20408189 0.62396965 -0.03618340
v 0.24196627 0.61823429 -0.05629589
v 0.24202491 0.62410702 -0.05628896
v 0.23805496 0.62382153 -0.06354038
v 0.24193186 0.61810539 -0.05619177
v 0.23788707 0.61830163 -0.06343139
v 0.24195597 0.62401185 -0.05618892
v 0.24203545 0.62390041 -0.05614432
v 0.23802397 0.62393369 -0.06356542
v 0.24196465 0.61805832 -0.05614363
v 0.23805305 0.61798507 -0.06369030
v 0.22144359 0.61805199 -0.05460940
v 0.23812015 0.62398070 -0.06352373
v 0.23812098 0.61816993 -0.06356562
v 0.22148802 0.62393154 -0.05462904
v 0.22144939 0.62401000 -0.05480909
v 0.22136983 0.61820178 -0.05464096
v 0.23787621 0.62398625 -0.06356952
v 0.23791603 0.61819142 -0.06365241
v 0.21470956 0.62404762 -0.06726648
v 0.22154923 0.61815330 -0.05476086
v 0.21464525 0.61818559 -0.06732189
v 0.22135014 0.62398208 -0.05465144
v 0.22154802 0.62401734 -0.05484415
v 0.21473233 0.62405354 -0.06740995
v 0.22152092 0.61811686 -0.05465982
v 0.21470867 0.61816301 -0.06727889
v 0.21473526 0.62414136 -0.06734060
v 0.23132637 0.61817225 -0.07622499
v 0.23124073 0.62414048 -0.07621421
v 0.21477787 0.61807772 -0.06727851
v 0.21474953 0.61796028 -0.06741426
v 0.21459084 0.62399734 -0.06718957
v 0.23116894 0.61804358 -0.07601240
v 0.23128972 0.62393812 -0.07608980
v 0.22753238 0.62393931 -0.08333760
v 0.23123034 0.61806322 -0.07615610
v 0.22739697 0.61807442 -0.08344133
v 0.23123901 0.62389217 -0.07605437
v 0.23133727 0.62398729 -0.07620447
v 0.22738156 0.62386872 -0.08331764
v 0.23133905 0.61806327 -0.07618845
v 0.22756354 0.61805684 -0.08344088
v 0.18980050 0.61803043 -0.06317321
v 0.22754377 0.62397683 -0.08333328
v 0.22741981 0.61808518 -0.08344389
v 0.18957657 0.62404551 -0.06330277
v 0.18952621 0.62402035 -0.06337248
v 0.18966840 0.61810211 -0.06322535
v 0.22743939 0.62416040 -0.08347173
v 0.22744379 0.61809882 -0.08340750
v 0.19365965 0.62400520 -0.05602482
v 0.18966755 0.61799025 -0.06326455
v 0.19335660 0.61821340 -0.05613736
v 0.18954703 0.62413489 -0.06336143
v 0.18957963 0.62400103 -0.06325324
v 0.19354804 0.62393965 -0.05608637
v 0.18958211 0.61819947 -0.06323382
v 0.19351928 0.61817469 -0.05590548
v 0.19350561 0.62403786 -0.05592605
v 0.20780236 0.61817363 -0.06361094
v 0.20783631 0.62395055 -0.06355165
v 0.19354306 0.61823263 -0.05616788
v 0.19358503 0.61815052 -0.05605917
v 0.19353709 0.62397956 -0.05587621
v 0.20784687 0.61813908 -0.06354380
v 0.20782321 0.62408288 -0.06366697
v 0.21458102 0.62397715 -0.05094583
v 0.20765201 0.61801324 -0.06356621
v 0.21442516 0.61793642 -0.05095102
v 0.20790157 0.62399035 -0.06357518
v 0.20775350 0.62386817 -0.06352377
v 0.21449769 0.62393016 -0.05102616
v 0.20782576 0.61807299 -0.06367242
v 0.21446032 0.61799143 -0.05100556
v 0.20021888 0.61815309 -0.04347834
v 0.21448190 0.62409634 -0.05107783
v 0.21448144 0.61814504 -0.05105550
v 0.20034595 0.62415399 -0.04349054
v 0.20022716 0.62389041 -0.04345860
v 0.20017284 0.61812088 -0.04341583
v 0.21464311 0.62408846 -0.05090718
v 0.21449021 0.61811508 -0.05106339
v 0.18964305 0.61809906 -0.06320220
v 0.20790368 0.61806349 -0.06366726
v 0.19351293 0.61816070 -0.05602244
v 0.21461718 0.61806759 -0.06730489
v 0.23124448 0.61810502 -0.07627167
v 0.22751944 0.61808136 -0.08356065
v 0.22146462 0.61823601 -0.05470060
v 0.21459001 0.61817590 -0.05093003
v 0.20041107 0.61799141 -0.04338121
v 0.24178850 0.61816103 -0.05610158
v 0.20403890 0.61817081 -0.03612074
v 0.23816232 0.61797750 -0.06345176
v 0.22135532 0.61803737 -0.05464410
v 0.21444403 0.61809913 -0.05100228
v 0.23803563 0.61818878 -0.06352364
v 0.20021557 0.61828503 -0.04339887
v 0.24177803 0.61805124 -0.05624824
v 0.20405517 0.61798348 -0.03609739
v 0.21481663 0.61810470 -0.06738305
v 0.20771375 0.61803620 -0.06369955
v 0.22735838 0.61811814 -0.08336343
v 0.18966850 0.61798771 -0.06330304
v 0.23143642 0.61812187 -0.07619487
v 0.19364627 0.61802425 -0.05614454
vt 0.1580431 0
vt 0.1157688 0.09634952
vt 0.1157688 0
vt 0.1157688 0.1368313
vt 0.1157688 0.2197367
vt 0.1580431 0.2197367
vt 0.04242367 0.1368313
vt 0.04242367 0.09634952
vt 0.04242367 0
vt 0 0.2197367
vt 0 0
vt 0.04242367 0.2197367
vt 0 0.04249006
vt -0.04242367 0
vt -0.04242367 0.04249006
vt -0.2197367 0.04249006
vt -0.2197367 0
vt 0.04242367 0.04249006
vt 0.09634952 0
vt 0.09634952 0.04249006
vt 0.1157688 0.04249006
vt -0.09634952 0.04249006
vt -0.09634952 0
vt 0.1580431 0.04249006
vt 0.2197367 0
vt 0.2197367 0.04249006
vt -0.1157688 0.04249006
vt -0.1580431 0
vt -0.1157688 0
vt -0.1580431 0.04249006
vt -0.1368313 0
vt -0.1368313 0.04249006
vt 0.1368313 0.04249006
vt 0.1368313 0
vt -0.1580431 0.2197367
vt -0.1157688 0.1368313
vt -0.1157688 0.2197367
vt -0.1157688 0.09634952
vt -0.04242367 0.09634952
vt -0.04242367 0.1368313
vt -0.04242367 0.2197367
vn 0 1 -3.597456166293249e-8
vn 0 -1 3.597456166293249e-8
vn -0.8829032503074183 1.6892032281032387e-8 0.46955494949643095
vn 0.8829032503074183 -1.6892032281032387e-8 -0.46955494949643095
vn 0.469388234611005 3.176524912314605e-8 0.8829918941919928
vn -0.469388234611005 -3.176524912314605e-8 -0.8829918941919928
usemtl material_0_0
f 1/1/1 2/2/1 3/3/1
f 2/2/1 1/1/1 4/4/1
f 4/4/1 1/1/1 5/5/1
f 5/5/1 1/1/1 6/6/1
f 2/2/1 7/7/1 8/8/1
f 7/7/1 2/2/1 4/4/1
f 9/9/1 10/10/1 11/11/1
f 10/10/1 9/9/1 12/12/1
f 12/12/1 9/9/1 8/8/1
f 12/12/1 8/8/1 7/7/1
f 13/7/2 14/8/2 15/12/2
f 14/8/2 16/9/2 15/12/2
f 15/12/2 16/9/2 17/10/2
f 18/11/2 17/10/2 16/9/2
f 19/4/2 20/2/2 13/7/2
f 14/8/2 13/7/2 20/2/2
f 21/6/2 22/1/2 23/5/2
f 23/5/2 22/1/2 19/4/2
f 19/4/2 22/1/2 20/2/2
f 24/3/2 20/2/2 22/1/2
f 25/13/3 26/14/3 27/11/3
f 26/14/3 25/13/3 28/15/3
f 29/15/4 30/13/4 31/14/4
f 32/11/4 31/14/4 30/13/4
f 33/16/5 34/11/5 35/13/5
f 34/11/5 33/16/5 36/17/5
f 37/17/6 38/16/6 39/11/6
f 40/13/6 39/11/6 38/16/6
f 41/18/4 42/11/4 43/9/4
f 42/11/4 41/18/4 44/13/4
f 45/13/3 46/18/3 47/11/3
f 48/9/3 47/11/3 46/18/3
f 49/19/6 50/13/6 51/11/6
f 50/13/6 49/19/6 52/20/6
f 53/20/5 54/19/5 55/13/5
f 56/11/5 55/13/5 54/19/5
f 57/21/4 58/9/4 59/3/4
f 58/9/4 57/21/4 60/18/4
f 61/18/3 62/21/3 63/9/3
f 64/3/3 63/9/3 62/21/3
f 65/22/5 66/11/5 67/13/5
f 66/11/5 65/22/5 68/23/5
f 69/23/6 70/22/6 71/11/6
f 72/13/6 71/11/6 70/22/6
f 73/24/4 74/3/4 75/1/4
f 74/3/4 73/24/4 76/21/4
f 77/21/3 78/24/3 79/3/3
f 80/1/3 79/3/3 78/24/3
f 81/25/6 82/13/6 83/11/6
f 82/13/6 81/25/6 84/26/6
f 85/26/5 86/25/5 87/13/5
f 88/11/5 87/13/5 86/25/5
f 89/27/3 90/28/3 91/29/3
f 90/28/3 89/27/3 92/30/3
f 93/30/4 94/27/4 95/28/4
f 96/29/4 95/28/4 94/27/4
f 97/16/5 98/31/5 99/32/5
f 98/31/5 97/16/5 100/17/5
f 101/17/6 102/16/6 103/31/6
f 104/32/6 103/31/6 102/16/6
f 105/15/3 106/29/3 107/14/3
f 106/29/3 105/15/3 108/27/3
f 109/27/4 110/15/4 111/29/4
f 112/14/4 111/29/4 110/15/4
f 113/25/6 114/33/6 115/34/6
f 114/33/6 113/25/6 116/26/6
f 117/26/5 118/25/5 119/33/5
f 120/34/5 119/33/5 118/25/5
f 121/35/2 122/36/2 123/37/2
f 122/36/2 121/35/2 124/38/2
f 124/38/2 121/35/2 125/29/2
f 125/29/2 121/35/2 126/28/2
f 122/36/2 127/39/2 128/40/2
f 127/39/2 122/36/2 124/38/2
f 129/41/2 130/11/2 131/10/2
f 130/11/2 129/41/2 132/14/2
f 132/14/2 129/41/2 128/40/2
f 132/14/2 128/40/2 127/39/2
f 133/39/1 134/40/1 135/14/1
f 134/40/1 136/41/1 135/14/1
f 135/14/1 136/41/1 137/11/1
f 138/10/1 137/11/1 136/41/1
f 139/38/1 140/36/1 133/39/1
f 134/40/1 133/39/1 140/36/1
f 141/28/1 142/35/1 143/29/1
f 143/29/1 142/35/1 139/38/1
f 139/38/1 142/35/1 140/36/1
f 144/37/1 140/36/1 142/35/1
