# SSTK version 0.8.0
# 5
mtllib original_5.mtl
o #ID29
v 0.01472095 0.33706691 -0.60892066
v 0.02659259 0.33554775 -0.55620019
v 0.01471479 0.33721668 -0.55615791
v 0.02661264 0.33561328 -0.60907387
v 0.02652410 0.33551322 -0.60886469
v 0.01455350 0.33712616 -0.60910595
v 0.02663506 0.33555580 -0.55611320
v 0.01474222 0.33716692 -0.55615418
v 0.03784539 0.33184901 -0.55633287
v 0.03765882 0.33198048 -0.60912513
v 0.03771316 0.33195661 -0.60895084
v 0.03771425 0.33173374 -0.55632082
v 0.00283716 0.33667473 -0.55610248
v 0.00293096 0.33670915 -0.60894487
v 0.00294308 0.33662190 -0.60914919
v 0.00286284 0.33660781 -0.55608095
v 0.04841766 0.32620805 -0.60895472
v 0.04815601 0.32629248 -0.55630159
v 0.04823162 0.32629961 -0.60902620
v 0.04815824 0.32625681 -0.55623012
v -0.00892257 0.33413017 -0.60901903
v -0.00872122 0.33416477 -0.55606932
v -0.00889008 0.33416796 -0.60903020
v -0.00873145 0.33417220 -0.55609787
v 0.05773465 0.31904405 -0.60915124
v 0.05761800 0.31901847 -0.55603299
v 0.05761189 0.31912912 -0.60912485
v 0.05760798 0.31903098 -0.55611024
v -0.01982536 0.32963080 -0.60898207
v -0.01961408 0.32959568 -0.55616345
v -0.01973114 0.32956339 -0.60895288
v -0.01968692 0.32969019 -0.55604593
v 0.06558555 0.31042770 -0.60905163
v 0.06551709 0.31041696 -0.55620122
v 0.06566774 0.31016738 -0.60901873
v 0.06560065 0.31027034 -0.55617591
v -0.02994668 0.32334332 -0.60902388
v -0.02974068 0.32348818 -0.55620780
v -0.02960129 0.32337112 -0.60895711
v -0.02977356 0.32342856 -0.55624215
v 0.07181589 0.30028629 -0.60886623
v 0.07185246 0.30019151 -0.55627327
v 0.07188973 0.30027844 -0.60896735
v 0.07181335 0.30012219 -0.55611424
v -0.03849263 0.31539121 -0.55626305
v -0.03853812 0.31552008 -0.60919617
v -0.03869255 0.31548573 -0.60896802
v -0.03861859 0.31545757 -0.55618160
v 0.07647199 0.28935766 -0.60903687
v 0.07628973 0.28924445 -0.55622252
v 0.07629274 0.28911642 -0.60903743
v 0.07645134 0.28922975 -0.55621183
v -0.04592710 0.30607308 -0.55622503
v -0.04587697 0.30599773 -0.60891050
v -0.04584068 0.30599038 -0.55635347
v -0.04585635 0.30602468 -0.60908643
v 0.07902501 0.27748217 -0.60918206
v 0.07876366 0.27756366 -0.55630205
v 0.07904384 0.27765954 -0.60900970
v 0.07887511 0.27761455 -0.55618034
v -0.05143604 0.29567268 -0.60897155
v -0.05156082 0.29539803 -0.55623912
v -0.05156126 0.29552832 -0.60902688
v -0.05136927 0.29551456 -0.55631105
v 0.07939314 0.26578601 -0.60898648
v 0.07931715 0.26568537 -0.55634226
v 0.07937640 0.26574463 -0.60907036
v 0.07926914 0.26572669 -0.55622016
v -0.05508734 0.28421216 -0.60904416
v -0.05507935 0.28424195 -0.55622436
v -0.05502183 0.28419072 -0.60916847
v -0.05495318 0.28419865 -0.55624208
v 0.07774886 0.25390941 -0.55604946
v 0.07776634 0.25388950 -0.60907698
v 0.07765649 0.25400001 -0.55618668
v 0.07777186 0.25406515 -0.60895557
v -0.05660996 0.27249563 -0.60892699
v -0.05664813 0.27242933 -0.55614475
v -0.05679914 0.27242330 -0.60910529
v -0.05666141 0.27245730 -0.55618740
v 0.07410604 0.24252499 -0.60911924
v 0.07411815 0.24283745 -0.55625984
v 0.07407978 0.24270963 -0.60905492
v 0.07425236 0.24262701 -0.55630563
v -0.05617492 0.26059456 -0.60900478
v -0.05614802 0.26052307 -0.55622373
v -0.05623344 0.26070734 -0.60895361
v -0.05621323 0.26063226 -0.55629617
v 0.06842541 0.23212372 -0.60887526
v 0.06859831 0.23235881 -0.55624222
v 0.06872647 0.23226480 -0.60892294
v 0.06860653 0.23216258 -0.55633614
v -0.05389234 0.24892863 -0.60894771
v -0.05372381 0.24911309 -0.55633041
v -0.05355433 0.24906892 -0.60900301
v -0.05387756 0.24899598 -0.55601583
v 0.06117735 0.22280855 -0.55613698
v 0.06129511 0.22270506 -0.60908789
v 0.06133240 0.22275802 -0.55614639
v 0.06116876 0.22281047 -0.60900073
v -0.04918861 0.23797034 -0.60898910
v -0.04917130 0.23794167 -0.55622441
v -0.04914966 0.23806083 -0.60899913
v -0.04910110 0.23788159 -0.55626169
v 0.05245993 0.21482712 -0.55621779
v 0.05251938 0.21489996 -0.60895495
v 0.05247710 0.21471990 -0.60896452
v 0.05253006 0.21497535 -0.55627392
v -0.04285868 0.22806941 -0.60909066
v -0.04291527 0.22797894 -0.55606866
v -0.04303014 0.22800448 -0.60904798
v -0.04290178 0.22794108 -0.55634124
v 0.04251024 0.20844378 -0.55615032
v 0.04255723 0.20845019 -0.60901802
v 0.04239095 0.20858807 -0.60898559
v 0.04244264 0.20850645 -0.55626796
v -0.03501458 0.21901525 -0.55621366
v -0.03497725 0.21914461 -0.60908964
v -0.03497630 0.21913831 -0.55613057
v -0.03486784 0.21912753 -0.60907482
v 0.03141581 0.20414746 -0.55619406
v 0.03139649 0.20408780 -0.60892395
v 0.03145059 0.20386854 -0.60895050
v 0.03151427 0.20393910 -0.55620336
v -0.02569529 0.21192393 -0.60899785
v -0.02563542 0.21194470 -0.55617232
v -0.02547028 0.21188054 -0.60908910
v -0.02563504 0.21192131 -0.55624837
v 0.01976049 0.20165664 -0.60915651
v 0.01987704 0.20147016 -0.55623266
v 0.01972495 0.20149226 -0.60916510
v 0.01994452 0.20140736 -0.55629268
v -0.01519708 0.20635406 -0.55618433
v -0.01503554 0.20638384 -0.60894166
v -0.01510134 0.20632128 -0.60908966
v -0.01499968 0.20637119 -0.55629222
v 0.00796343 0.20112969 -0.60908437
v 0.00793121 0.20110178 -0.55623418
v 0.00811298 0.20099188 -0.60903848
v 0.00789858 0.20099494 -0.55611016
v -0.00381020 0.20263358 -0.60894486
v -0.00383042 0.20263610 -0.55628813
v -0.00381255 0.20267596 -0.60893434
v -0.00363199 0.20256607 -0.55607381
vt 6.134811e-14 1.953637
vt 0.3824105 1.872986
vt 0.3824105 1.953637
vt 5.943099e-14 1.872986
vt 5.943099e-14 2.176348
vt 0.3824105 2.095697
vt 0.3824105 2.176348
vt 1.230921e-23 2.095697
vt 0.3824105 1.672792
vt 6.134811e-14 1.59214
vt 0.3824105 1.59214
vt -2.381158e-23 1.672792
vt 0.3824105 2.334157
vt 6.134811e-14 2.253505
vt 0.3824105 2.253505
vt -3.975391e-23 2.334157
vt 6.134811e-14 1.342344
vt 0.3824105 1.261693
vt 0.3824105 1.342344
vt -1.217022e-23 1.261693
vt 0.3824105 2.422268
vt 6.134811e-14 2.341617
vt 0.3824105 2.341617
vt 6.134811e-14 2.422268
vt 1.226962e-13 0.9723358
vt 0.3824105 0.8916847
vt 0.3824105 0.9723358
vt 6.134811e-14 0.8916847
vt 0.3824105 2.438006
vt 6.134811e-14 2.357355
vt 0.3824105 2.357355
vt 6.134811e-14 2.438006
vt 6.134811e-14 0.5740086
vt 0.3824105 0.4933575
vt 0.3824105 0.5740086
vt 1.226962e-13 0.4933575
vt 0.3824105 2.380891
vt 6.134811e-14 2.30024
vt 0.3824105 2.30024
vt 6.134811e-14 2.380891
vt 0.3824105 0.1594658
vt 6.134811e-14 0.07881469
vt 0.3824105 0.07881469
vt 6.134811e-14 0.1594658
vt 0.3824105 2.25266
vt 1.226962e-13 2.172009
vt 0.3824105 2.172009
vt 6.134811e-14 2.25266
vt 6.134811e-14 -0.3393482
vt 0.3824105 -0.2586971
vt 5.943099e-14 -0.2586971
vt 0.3824105 -0.3393482
vt 0.3824105 2.057208
vt 1.226962e-13 1.976557
vt 0.3824105 1.976557
vt 1.226962e-13 2.057208
vt 5.943099e-14 -0.6677743
vt 0.3824105 -0.7484254
vt 0.3824105 -0.6677743
vt 5.943099e-14 -0.7484254
vt 0.3824105 1.800474
vt 6.134811e-14 1.719822
vt 0.3824105 1.719822
vt 1.226962e-13 1.800474
vt 1.226962e-13 -1.055336
vt 0.3824105 -1.135987
vt 0.3824105 -1.055336
vt 5.943099e-14 -1.135987
vt -0.3824105 -1.409607
vt -6.134811e-14 -1.490258
vt -1.226962e-13 -1.409607
vt -0.3824105 -1.490258
vt 6.134811e-14 -1.409607
vt 0.3824105 -1.490258
vt 0.3824105 -1.409607
vt 1.226962e-13 -1.490258
vt -0.3824105 -1.135987
vt -6.134811e-14 -1.055336
vt -0.3824105 -1.055336
vt -1.226962e-13 -1.135987
vt -1.226962e-13 1.719822
vt -0.3824105 1.800474
vt -0.3824105 1.719822
vt -6.134811e-14 1.800474
vt -0.3824105 -0.7484254
vt -5.943099e-14 -0.6677743
vt -0.3824105 -0.6677743
vt -6.134811e-14 -0.7484254
vt -6.134811e-14 1.976557
vt -0.3824105 2.057208
vt -0.3824105 1.976557
vt -1.226962e-13 2.057208
vt -0.3824105 -0.2586971
vt -5.943099e-14 -0.3393482
vt -1.226962e-13 -0.2586971
vt -0.3824105 -0.3393482
vt -1.226962e-13 2.172009
vt -0.3824105 2.25266
vt -0.3824105 2.172009
vt -6.134811e-14 2.25266
vt -1.226962e-13 0.07881469
vt -0.3824105 0.1594658
vt -0.3824105 0.07881469
vt -6.134811e-14 0.1594658
vt -6.134811e-14 2.30024
vt -0.3824105 2.380891
vt -0.3824105 2.30024
vt -1.226962e-13 2.380891
vt -6.134811e-14 0.4933575
vt -0.3824105 0.5740086
vt -0.3824105 0.4933575
vt -5.943099e-14 0.5740086
vt -6.134811e-14 2.438006
vt -0.3824105 2.357355
vt -0.3824105 2.438006
vt -5.943099e-14 0.8916847
vt -0.3824105 0.9723358
vt -0.3824105 0.8916847
vt -6.134811e-14 0.9723358
vt -5.943099e-14 2.341617
vt -0.3824105 2.422268
vt -0.3824105 2.341617
vt -0.3824105 1.261693
vt 2.096635e-23 1.342344
vt -0.3824105 1.342344
vt -6.134811e-14 1.261693
vt -0.3824105 2.253505
vt -5.943099e-14 2.334157
vt -0.3824105 2.334157
vt 2.379202e-23 2.253505
vt -0.3824105 1.59214
vt 0 1.672792
vt -0.3824105 1.672792
vt 0 1.59214
vt 1.917129e-15 2.095697
vt -0.3824105 2.176348
vt -0.3824105 2.095697
vt -1.47337e-23 2.176348
vt 0 1.872986
vt -0.3824105 1.953637
vt -0.3824105 1.872986
vt 1.917129e-15 1.953637
vn -0.049628562170480894 -0.9987677436806265 3.593023339136844e-8
vn -0.22230880132061062 -0.974976305791783 3.507434734418774e-8
vn 0.22230880132061062 0.974976305791783 -3.507434734418774e-8
vn 0.049628562170480894 0.9987677436806265 -3.593023339136844e-8
vn -0.38823430087721905 -0.9215607020822751 3.315274485281923e-8
vn 0.38823430087721905 0.9215607020822751 -3.315274485281923e-8
vn 0.12455960340430355 -0.9922121271178665 3.569439740799133e-8
vn -0.12455960340430355 0.9922121271178665 -3.569439740799133e-8
vn -0.542363471019283 -0.8401439551076435 3.0223813428957777e-8
vn 0.542363471019283 0.8401439551076435 -3.0223813428957777e-8
vn 0.29496311253068713 -0.9555086405921235 3.437400498546944e-8
vn -0.29496311253068713 0.9555086405921235 -3.437400498546944e-8
vn -0.6800131845180549 -0.7331998833071465 2.6376547595633628e-8
vn 0.6800131845180549 0.7331998833071465 -2.6376547595633628e-8
vn 0.4564043030089053 -0.8897725058659401 3.200917575558928e-8
vn -0.4564043030089053 0.8897725058659401 -3.200917575558928e-8
vn -0.7970011253868572 -0.6039778192384906 2.172784065903842e-8
vn 0.7970011253868572 0.6039778192384906 -2.172784065903842e-8
vn 0.6039778192384913 -0.7970011253868564 2.8671765414026288e-8
vn -0.6039778192384913 0.7970011253868564 -2.8671765414026288e-8
vn -0.8897725058659407 -0.45640430300890467 1.6418948173050343e-8
vn 0.8897725058659407 0.45640430300890467 -1.6418948173050343e-8
vn 0.7331998833071471 -0.680013184518054 2.4463174949233208e-8
vn -0.7331998833071471 0.680013184518054 -2.4463174949233208e-8
vn -0.9555086405921243 -0.29496311253068674 1.0611172080427272e-8
vn 0.9555086405921243 0.29496311253068674 -1.0611172080427272e-8
vn 0.8401439551076445 -0.5423634710192823 1.95112863100583e-8
vn -0.8401439551076445 0.5423634710192823 -1.95112863100583e-8
vn -0.9922121271178672 -0.12455960340430337 4.480980399633418e-9
vn 0.9922121271178672 0.12455960340430337 -4.480980399633418e-9
vn 0.9215607020822759 -0.38823430087721855 1.3966556497053443e-8
vn -0.9215607020822759 0.38823430087721855 -1.3966556497053443e-8
vn -0.998767743680627 0.04962856217048081 -1.7853627371799324e-9
vn 0.998767743680627 -0.04962856217048081 1.7853627371799324e-9
vn 0.9749763057917834 -0.22230880132061026 7.997458973998462e-9
vn -0.9749763057917834 0.22230880132061026 -7.997458973998462e-9
vn -0.9749763057917834 0.22230880132061026 -7.99745897399846e-9
vn 0.9749763057917834 -0.22230880132061026 7.99745897399846e-9
vn 0.998767743680627 -0.04962856217048081 1.785362737179933e-9
vn -0.998767743680627 0.04962856217048081 -1.785362737179933e-9
vn 0.9922121271178672 0.12455960340430337 -4.480980399633416e-9
vn -0.9922121271178672 -0.12455960340430337 4.480980399633416e-9
vn -0.8401439551076445 0.5423634710192823 -1.9511286310058297e-8
vn 0.8401439551076445 -0.5423634710192823 1.9511286310058297e-8
vn 0.9555086405921243 0.29496311253068674 -1.061117208042727e-8
vn -0.9555086405921243 -0.29496311253068674 1.061117208042727e-8
vn 0.8897725058659407 0.45640430300890467 -1.641894817305034e-8
vn -0.8897725058659407 -0.45640430300890467 1.641894817305034e-8
vn 0.6800131845180549 0.7331998833071465 -2.637654759563363e-8
vn -0.6800131845180549 -0.7331998833071465 2.637654759563363e-8
vn -0.29496311253068713 0.9555086405921235 -3.437400498546943e-8
vn 0.29496311253068713 -0.9555086405921235 3.437400498546943e-8
vn 0.542363471019283 0.8401439551076435 -3.022381342895778e-8
vn -0.542363471019283 -0.8401439551076435 3.022381342895778e-8
vn 0.049628562170480894 0.9987677436806265 -3.5930233391368446e-8
vn -0.049628562170480894 -0.9987677436806265 3.5930233391368446e-8
vn 0.22230880132061062 0.974976305791783 -3.5074347344187744e-8
vn -0.22230880132061062 -0.974976305791783 3.5074347344187744e-8
usemtl material_0_0
f 1/1/1 2/2/2 3/3/1
f 2/2/2 1/1/1 4/4/2
f 5/4/3 6/1/4 7/2/3
f 8/3/4 7/2/3 6/1/4
f 4/5/2 9/6/5 2/7/2
f 9/6/5 4/5/2 10/8/5
f 11/8/6 5/5/3 12/6/6
f 7/7/3 12/6/6 5/5/3
f 13/9/7 1/10/1 3/11/1
f 1/10/1 13/9/7 14/12/7
f 15/12/8 16/9/8 6/10/4
f 8/11/4 6/10/4 16/9/8
f 9/13/5 17/14/9 18/15/9
f 17/14/9 9/13/5 10/16/5
f 11/16/6 12/13/6 19/14/10
f 20/15/10 19/14/10 12/13/6
f 21/17/11 13/18/7 22/19/11
f 13/18/7 21/17/11 14/20/7
f 15/20/8 23/17/12 16/18/8
f 24/19/12 16/18/8 23/17/12
f 18/21/9 25/22/13 26/23/13
f 25/22/13 18/21/9 17/24/9
f 19/24/10 20/21/10 27/22/14
f 28/23/14 27/22/14 20/21/10
f 29/25/15 22/26/11 30/27/15
f 22/26/11 29/25/15 21/28/11
f 23/28/12 31/25/16 24/26/12
f 32/27/16 24/26/12 31/25/16
f 26/29/13 33/30/17 34/31/17
f 33/30/17 26/29/13 25/32/13
f 27/32/14 28/29/14 35/30/18
f 36/31/18 35/30/18 28/29/14
f 37/33/19 30/34/15 38/35/19
f 30/34/15 37/33/19 29/36/15
f 31/36/16 39/33/20 32/34/16
f 40/35/20 32/34/16 39/33/20
f 34/37/17 41/38/21 42/39/21
f 41/38/21 34/37/17 33/40/17
f 35/40/18 36/37/18 43/38/22
f 44/39/22 43/38/22 36/37/18
f 45/41/23 37/42/19 38/43/19
f 37/42/19 45/41/23 46/44/23
f 47/44/24 48/41/24 39/42/20
f 40/43/20 39/42/20 48/41/24
f 42/45/21 49/46/25 50/47/25
f 49/46/25 42/45/21 41/48/21
f 43/48/22 44/45/22 51/46/26
f 52/47/26 51/46/26 44/45/22
f 46/49/23 53/50/27 54/51/27
f 53/50/27 46/49/23 45/52/23
f 48/52/24 47/49/24 55/50/28
f 56/51/28 55/50/28 47/49/24
f 50/53/25 57/54/29 58/55/29
f 57/54/29 50/53/25 49/56/25
f 51/56/26 52/53/26 59/54/30
f 60/55/30 59/54/30 52/53/26
f 61/57/31 53/58/27 62/59/31
f 53/58/27 61/57/31 54/60/27
f 56/60/28 63/57/32 55/58/28
f 64/59/32 55/58/28 63/57/32
f 58/61/29 65/62/33 66/63/33
f 65/62/33 58/61/29 57/64/29
f 59/64/30 60/61/30 67/62/34
f 68/63/34 67/62/34 60/61/30
f 69/65/35 62/66/31 70/67/35
f 62/66/31 69/65/35 61/68/31
f 63/68/32 71/65/36 64/66/32
f 72/67/36 64/66/32 71/65/36
f 73/69/37 65/70/33 74/71/37
f 65/70/33 73/69/37 66/72/33
f 68/72/34 75/69/38 67/70/34
f 76/71/38 67/70/34 75/69/38
f 77/73/39 70/74/35 78/75/39
f 70/74/35 77/73/39 69/76/35
f 71/76/36 79/73/40 72/74/36
f 80/75/40 72/74/36 79/73/40
f 73/77/37 81/78/32 82/79/32
f 81/78/32 73/77/37 74/80/37
f 76/80/38 75/77/38 83/78/31
f 84/79/31 83/78/31 75/77/38
f 85/81/41 78/82/39 86/83/41
f 78/82/39 85/81/41 77/84/39
f 79/84/40 87/81/42 80/82/40
f 88/83/42 80/82/40 87/81/42
f 82/85/32 89/86/43 90/87/43
f 89/86/43 82/85/32 81/88/32
f 83/88/31 84/85/31 91/86/44
f 92/87/44 91/86/44 84/85/31
f 93/89/45 86/90/41 94/91/45
f 86/90/41 93/89/45 85/92/41
f 87/92/42 95/89/46 88/90/42
f 96/91/46 88/90/42 95/89/46
f 97/93/24 89/94/43 98/95/24
f 89/94/43 97/93/24 90/96/43
f 92/96/44 99/93/23 91/94/44
f 100/95/23 91/94/44 99/93/23
f 101/97/47 94/98/45 102/99/47
f 94/98/45 101/97/47 93/100/45
f 95/100/46 103/97/48 96/98/46
f 104/99/48 96/98/46 103/97/48
f 98/101/24 105/102/20 97/103/24
f 105/102/20 98/101/24 106/104/20
f 107/104/19 100/101/23 108/102/19
f 99/103/23 108/102/19 100/101/23
f 109/105/18 102/106/47 110/107/18
f 102/106/47 109/105/18 101/108/47
f 103/108/48 111/105/17 104/106/48
f 112/107/17 104/106/48 111/105/17
f 106/109/20 113/110/16 105/111/20
f 113/110/16 106/109/20 114/112/16
f 115/112/15 107/109/19 116/110/15
f 108/111/19 116/110/15 107/109/19
f 109/113/18 117/114/49 118/30/49
f 117/114/49 109/113/18 110/115/18
f 112/115/17 111/113/17 119/114/50
f 120/30/50 119/114/50 111/113/17
f 114/116/16 121/117/51 113/118/16
f 121/117/51 114/116/16 122/119/51
f 123/119/52 115/116/15 124/117/52
f 116/118/15 124/117/52 115/116/15
f 125/120/53 117/121/49 126/122/53
f 117/121/49 125/120/53 118/24/49
f 120/24/50 127/120/54 119/121/50
f 128/122/54 119/121/50 127/120/54
f 121/123/51 129/124/8 130/125/8
f 129/124/8 121/123/51 122/126/51
f 123/126/52 124/123/52 131/124/7
f 132/125/7 131/124/7 124/123/52
f 133/127/6 125/128/53 126/129/53
f 125/128/53 133/127/6 134/130/6
f 135/130/5 136/127/5 127/128/54
f 128/129/54 127/128/54 136/127/5
f 130/131/8 137/132/55 138/133/55
f 137/132/55 130/131/8 129/134/8
f 131/134/7 132/131/7 139/132/56
f 140/133/56 139/132/56 132/131/7
f 141/135/57 133/136/6 142/137/57
f 133/136/6 141/135/57 134/138/6
f 135/138/5 143/135/58 136/136/5
f 144/137/58 136/136/5 143/135/58
f 137/139/55 142/140/57 138/141/55
f 142/140/57 137/139/55 141/142/57
f 143/142/58 139/139/56 144/140/58
f 140/141/56 144/140/58 139/139/56
