# SSTK version 0.8.0
# 84
mtllib original_84.mtl
o group_16/ID252#ID252
v -0.14720376 0.62387114 0.21404540
v -0.15657377 0.62402392 0.21663541
v -0.14790560 0.62399606 0.21805552
v -0.14737068 0.62391716 0.21012979
v -0.14833569 0.62389882 0.20674919
v -0.15611594 0.62397454 0.21357953
v -0.15602783 0.62403818 0.21156165
v -0.15028157 0.62387593 0.20330283
v -0.15660283 0.62387354 0.20999301
v -0.15719749 0.62402228 0.20873440
v -0.15826484 0.62408937 0.20794182
v -0.15250724 0.62404667 0.20064695
v -0.15956208 0.62414899 0.20765528
v -0.16159641 0.62385277 0.20838784
v -0.16425911 0.62387258 0.21022898
v -0.19115600 0.62396252 0.22977309
v -0.19664956 0.62406959 0.22259952
v -0.15545969 0.62386396 0.19898703
v -0.15868188 0.62392027 0.19852636
v -0.16172313 0.62390501 0.19867890
v -0.16571118 0.62397614 0.20024019
v -0.17090440 0.62403181 0.20396183
v -0.17111173 0.62401344 0.20380824
v -0.16563708 0.62398925 0.20038316
v -0.19663457 0.62400313 0.22253865
v -0.16176498 0.62398318 0.19867960
v -0.15847307 0.62391400 0.19840916
v -0.15556903 0.62388470 0.19904369
v -0.15275623 0.62385841 0.20057381
v -0.19129480 0.62401144 0.22982208
v -0.16437824 0.62397769 0.21036292
v -0.16127547 0.62395748 0.20827908
v -0.15948854 0.62395241 0.20767826
v -0.15827970 0.62404835 0.20776198
v -0.15021537 0.62394472 0.20331460
v -0.15728996 0.62408981 0.20853493
v -0.15673142 0.62398701 0.20997386
v -0.15609556 0.62407224 0.21146895
v -0.14843245 0.62397054 0.20663823
v -0.15614489 0.62390100 0.21360167
v -0.15672695 0.62387281 0.21660870
v -0.14723581 0.62411790 0.21018848
v -0.14709671 0.62391242 0.21409696
v -0.14775200 0.62388137 0.21807603
v -0.19119175 0.62395282 0.22984527
v -0.19651654 0.61817011 0.22258836
v -0.19117591 0.61821954 0.22966937
v -0.19643856 0.62382473 0.22241493
v -0.19658106 0.62399277 0.22242183
v -0.19112508 0.62406590 0.22975152
v -0.19640228 0.61816843 0.22247874
v -0.19107875 0.61806626 0.22990949
v -0.19120680 0.62402346 0.22972477
v -0.16430841 0.61822409 0.21010387
v -0.16438712 0.62396459 0.21040243
v -0.19117110 0.61813012 0.22996489
v -0.19117059 0.61824553 0.22994802
v -0.19124274 0.62401485 0.22971293
v -0.16428119 0.61813868 0.21015870
v -0.16432540 0.62402785 0.21027256
v -0.16157785 0.61817279 0.20827260
v -0.16138916 0.62398105 0.20829670
v -0.16138701 0.61823499 0.20834797
v -0.16137955 0.62410777 0.20830218
v -0.16150849 0.62398651 0.20839938
v -0.15933341 0.61801055 0.20752501
v -0.15934234 0.62399562 0.20767567
v -0.16153853 0.61815618 0.20845169
v -0.16127987 0.61811384 0.20838321
v -0.16153561 0.62405044 0.20850615
v -0.15960879 0.61801662 0.20759583
v -0.15959495 0.62400613 0.20755535
v -0.15947383 0.62395442 0.20771001
v -0.15822865 0.61809860 0.20792017
v -0.15822802 0.62412683 0.20793973
v -0.15937378 0.61810384 0.20767016
v -0.15939973 0.61803586 0.20763881
v -0.15947564 0.62398582 0.20774930
v -0.15811476 0.61806691 0.20779330
v -0.15810947 0.62402138 0.20785274
v -0.15729030 0.62405796 0.20861037
v -0.15814138 0.61797127 0.20774111
v -0.15730161 0.61802237 0.20862512
v -0.15811933 0.62398615 0.20787725
v -0.15810779 0.62397828 0.20777211
v -0.15716404 0.62401216 0.20869209
v -0.15839316 0.61808452 0.20790827
v -0.15732897 0.61809431 0.20867879
v -0.15651546 0.62403225 0.21000424
v -0.15733825 0.61811075 0.20864789
v -0.15665484 0.61815483 0.20999296
v -0.15720730 0.62398452 0.20878416
v -0.15737183 0.62399614 0.20866574
v -0.15664684 0.62404323 0.21002124
v -0.15709811 0.61806230 0.20870665
v -0.15659066 0.61824530 0.20983654
v -0.15618178 0.62403384 0.21143188
v -0.15640520 0.61805058 0.20999485
v -0.15629306 0.61806532 0.21169227
v -0.15659654 0.62408858 0.20983213
v -0.15652437 0.62397104 0.21002240
v -0.15628023 0.62381623 0.21150228
v -0.15655191 0.61810954 0.20995860
v -0.15633284 0.61800968 0.21167589
v -0.15609814 0.62392120 0.21377475
v -0.15630571 0.61816575 0.21138529
v -0.15630868 0.61806993 0.21373455
v -0.15612548 0.62390971 0.21159337
v -0.15610609 0.62385969 0.21162170
v -0.15616442 0.62412718 0.21352399
v -0.15612165 0.61811097 0.21158258
v -0.15630255 0.61804876 0.21374332
v -0.15668076 0.61815760 0.21646646
v -0.15623539 0.62403335 0.21368827
v -0.15619116 0.61809918 0.21360250
v -0.15678033 0.62395995 0.21642930
v -0.15672552 0.62392449 0.21652650
v -0.15662267 0.61811765 0.21645674
v -0.15623626 0.62403808 0.21372601
v -0.15611010 0.61825345 0.21371057
v -0.14786274 0.62392072 0.21819377
v -0.15672882 0.61797992 0.21631048
v -0.14784441 0.61807059 0.21812442
v -0.15655312 0.62380693 0.21648336
v -0.15670883 0.62399865 0.21642074
v -0.14792095 0.62390469 0.21825150
v -0.15668129 0.61824513 0.21640506
v -0.14794120 0.61807193 0.21816747
v -0.14778647 0.62400160 0.21808687
v -0.14720545 0.61817607 0.21412602
v -0.14708097 0.62402876 0.21407042
v -0.14786993 0.61827119 0.21830669
v -0.14773241 0.61820277 0.21823175
v -0.14791925 0.62398883 0.21822814
v -0.14731170 0.61810307 0.21404764
v -0.14707847 0.62399388 0.21406585
v -0.14715701 0.62397948 0.21018613
v -0.14714658 0.61805097 0.21405214
v -0.14723690 0.61805593 0.21027167
v -0.14715960 0.62391894 0.21409564
v -0.14709481 0.62401863 0.21420937
v -0.14726186 0.62383957 0.21011006
v -0.14719276 0.61809766 0.21398538
v -0.14729466 0.61814672 0.21007710
v -0.14818965 0.62415792 0.20663103
v -0.14738673 0.61808633 0.21030816
v -0.14844495 0.61795235 0.20658760
v -0.14719680 0.62409219 0.21018151
v -0.14716812 0.62393556 0.21024953
v -0.14824648 0.62400915 0.20656288
v -0.14726377 0.61812464 0.21006534
v -0.14828202 0.61809481 0.20646959
v -0.15029132 0.62403021 0.20330260
v -0.14839947 0.61819283 0.20658558
v -0.15018233 0.61807829 0.20325906
v -0.14835880 0.62405637 0.20663272
v -0.14843292 0.62404327 0.20665555
v -0.15015892 0.62402036 0.20330246
v -0.14844292 0.61813780 0.20648324
v -0.15030292 0.61800262 0.20329677
v -0.15263120 0.62385931 0.20065335
v -0.15011608 0.61797164 0.20331306
v -0.15268018 0.61811769 0.20052002
v -0.15026356 0.62391531 0.20331999
v -0.15000910 0.62406259 0.20324521
v -0.15264242 0.62405355 0.20055015
v -0.15025329 0.61830773 0.20328397
v -0.15259507 0.61804705 0.20059402
v -0.15535792 0.62401725 0.19910463
v -0.15264427 0.61821825 0.20065839
v -0.15548858 0.61811880 0.19909951
v -0.15262121 0.62387868 0.20071569
v -0.15263450 0.62386583 0.20059252
v -0.15562335 0.62394858 0.19908366
v -0.15260672 0.61813844 0.20050586
v -0.15547361 0.61815487 0.19904068
v -0.15866652 0.62383522 0.19824687
v -0.15569926 0.61805557 0.19900613
v -0.15866204 0.61796241 0.19831096
v -0.15550561 0.62397076 0.19897807
v -0.15535867 0.62384250 0.19906581
v -0.15872457 0.62398495 0.19840922
v -0.15559296 0.61818978 0.19892136
v -0.15857065 0.61814425 0.19815135
v -0.16163307 0.61793798 0.19867942
v -0.15871555 0.62405933 0.19833874
v -0.15854423 0.61809665 0.19850170
v -0.16183713 0.62401452 0.19872465
v -0.16184777 0.62386618 0.19855376
v -0.16175711 0.61818248 0.19861247
v -0.15872565 0.62387433 0.19822786
v -0.15871467 0.61803504 0.19825603
v -0.16569612 0.61818886 0.20030482
v -0.16182218 0.62404672 0.19868208
v -0.16171318 0.61818069 0.19882947
v -0.16555830 0.62391364 0.20026001
v -0.16552337 0.62393511 0.20052619
v -0.16560422 0.61801648 0.20040074
v -0.16175335 0.62404505 0.19863309
v -0.16162166 0.61804840 0.19857194
v -0.17088745 0.61807171 0.20394288
v -0.16564399 0.62410727 0.20025110
v -0.16565925 0.61801581 0.20049280
v -0.17100708 0.62415172 0.20401280
v -0.17087560 0.62385476 0.20400561
v -0.17097616 0.61796354 0.20386690
v -0.16577797 0.62393437 0.20030543
v -0.16571691 0.61823948 0.20036076
v -0.19650768 0.61825606 0.22247737
v -0.19655752 0.62404249 0.22249241
v -0.19647732 0.62392063 0.22247509
v -0.19659054 0.61805333 0.22237775
v -0.19655706 0.61810410 0.22249142
v -0.16423363 0.61803356 0.21040639
v -0.19134339 0.61802293 0.22983879
v -0.15269246 0.61804368 0.20068732
v -0.15540074 0.61810960 0.19894849
v -0.15858036 0.61808553 0.19842605
v -0.16174528 0.61823253 0.19866062
v -0.16548778 0.61808119 0.20037679
v -0.17082690 0.61812179 0.20392486
v -0.15665215 0.61808575 0.21654628
v -0.14715657 0.61799967 0.21416625
v -0.14787322 0.61809565 0.21814983
v -0.14732773 0.61814877 0.21005470
v -0.14840593 0.61821303 0.20659934
v -0.15631522 0.61814182 0.21349593
v -0.15608146 0.61803133 0.21156199
v -0.15033624 0.61823617 0.20326194
v -0.15659476 0.61818744 0.21005943
v -0.15731244 0.61809885 0.20864270
v -0.15821559 0.61823131 0.20792065
v -0.15957462 0.61809882 0.20777286
v -0.16148354 0.61811598 0.20852155
v -0.16420078 0.61800458 0.21023215
v -0.16135118 0.61827693 0.20853560
v -0.15285317 0.61808892 0.20064076
v -0.15955030 0.61822219 0.20766546
v -0.15808172 0.61803264 0.20784797
v -0.15028081 0.61800859 0.20327131
v -0.15727661 0.61802400 0.20877274
v -0.15648656 0.61828692 0.20999456
v -0.15634522 0.61802821 0.21158266
v -0.14843390 0.61802359 0.20664528
v -0.15613665 0.61807405 0.21364987
v -0.15677038 0.61818116 0.21643342
v -0.14733349 0.61805876 0.21008017
v -0.14730662 0.61824411 0.21409964
v -0.14778527 0.61816601 0.21806554
v -0.17105141 0.61795265 0.20388741
v -0.19646873 0.61828929 0.22257177
v -0.16555321 0.61800022 0.20028055
v -0.16173201 0.61811780 0.19873615
v -0.15855838 0.61812835 0.19814582
v -0.15550646 0.61818934 0.19905264
v -0.19116375 0.61804520 0.22981613
vt 0.01493791 0.01988609
vt 0.03352731 0.06672267
vt 0 0.03535305
vt 0.03136961 0.008838264
vt 0.0492951 0.002209566
vt 0.04381787 0.05618314
vt 0.05244866 0.04979303
vt 0.06871439 0
vt 0.06012509 0.04655649
vt 0.06755255 0.04547764
vt 0.07406714 0.04705442
vt 0.08705482 0.002302928
vt 0.07867299 0.05178476
vt 0.08141161 0.06186785
vt 0.08232448 0.07950288
vt 0.08232448 0.250293
vt 0.128964 0.250293
vt 0.1025737 0.009211711
vt 0.11469 0.02002095
vt 0.1228228 0.03402524
vt 0.1274287 0.05539475
vt 0.128964 0.08829965
vt -0.08232448 0.04249006
vt -0.128964 0
vt -0.08232448 0
vt -0.128964 0.04249006
vt -0.250293 0.04249006
vt -0.07950288 0
vt -0.07950288 0.04249006
vt -0.250293 0
vt -0.08365238 0.04249006
vt -0.06599374 0
vt -0.06599374 0.04249006
vt -0.08365238 0
vt -0.08104356 0.04249006
vt -0.07059518 0
vt -0.07059518 0.04249006
vt -0.08104356 0
vt -0.09198588 0.04249006
vt -0.08538361 0
vt -0.08538361 0.04249006
vt -0.09198588 0
vt -0.07635517 0.04249006
vt -0.08305786 0
vt -0.07635517 0
vt -0.08305786 0.04249006
vt -0.05280853 0.04249006
vt -0.06031393 0
vt -0.05280853 0
vt -0.06031393 0.04249006
vt -0.02898399 0.04249006
vt -0.03731483 0
vt -0.02898399 0
vt -0.03731483 0.04249006
vt -0.001784794 0.04249006
vt -0.0125237 0
vt -0.001784794 0
vt -0.0125237 0.04249006
vt 0.02431818 0
vt 0.009588038 0.04249006
vt 0.009588038 0
vt 0.02431818 0.04249006
vt -0.02415389 0.04249006
vt -0.0700683 0
vt -0.02415389 0
vt -0.0700683 0.04249006
vt -0.02542951 0.04249006
vt -0.003926767 0
vt -0.003926767 0.04249006
vt -0.02542951 0
vt 0.02110123 0.04249006
vt 0.001300839 0
vt 0.02110123 0
vt 0.001300839 0.04249006
vt 0.04546877 0.04249006
vt 0.02635692 0
vt 0.04546877 0
vt 0.02635692 0.04249006
vt 0.06827386 0.04249006
vt 0.04872928 0
vt 0.06827386 0
vt 0.04872928 0.04249006
vt 0.08666346 0.04249006
vt 0.06817901 0
vt 0.08666346 0
vt 0.06817901 0.04249006
vt 0.09745359 0.04249006
vt 0.08046638 0
vt 0.09745359 0
vt 0.08046638 0.04249006
vt 0.09891092 0.04249006
vt 0.08267379 0
vt 0.09891092 0
vt 0.08267379 0.04249006
vt 0.09110472 0
vt 0.07491017 0.04249006
vt 0.07491017 0
vt 0.09110472 0.04249006
vt 0.0809999 0
vt 0.05913966 0.04249006
vt 0.05913966 0
vt 0.0809999 0.04249006
vt 0.09421439 0
vt 0.06127369 0.04249006
vt 0.06127369 0
vt 0.09421439 0.04249006
vt 0.250293 0
vt 0.08829965 0.04249006
vt 0.08829965 0
vt 0.250293 0.04249006
vt -0.128964 0.250293
vt -0.08232448 0.07950288
vt -0.08232448 0.250293
vt -0.08705482 0.002302928
vt -0.1025737 0.009211711
vt -0.11469 0.02002095
vt -0.1228228 0.03402524
vt -0.1274287 0.05539475
vt -0.128964 0.08829965
vt -0.03352731 0.06672267
vt -0.01493791 0.01988609
vt -0.03136961 0.008838264
vt -0.0492951 0.002209566
vt -0.04381787 0.05618314
vt -0.05244866 0.04979303
vt -0.06871439 0
vt -0.06012509 0.04655649
vt -0.06755255 0.04547764
vt -0.07406714 0.04705442
vt -0.07867299 0.05178476
vt -0.08141161 0.06186785
vn 0 1 -3.5974561662932485e-8
vn 0 -1 3.5974561662932485e-8
vn -0.8089533075792892 2.114846907344433e-8 0.5878728996615914
vn 0.8089533075792892 -2.114846907344433e-8 -0.5878728996615914
vn 0.5876976612957 2.9106323778300138e-8 0.8090806257151162
vn 0.5665828902009283 2.9643212596947992e-8 0.8240047503088571
vn -0.5876976612957 -2.9106323778300138e-8 -0.8090806257151162
vn -0.5665828902009283 -2.9643212596947992e-8 -0.8240047503088571
vn 0.5450895605665496 3.01602774957094e-8 0.8383778211292119
vn -0.5450895605665496 -3.01602774957094e-8 -0.8383778211292119
vn 0.35511378053479287 3.362985337076461e-8 0.9348230864042061
vn -0.35511378053479287 -3.362985337076461e-8 -0.9348230864042061
vn -0.1432205696489132 3.560369403762467e-8 0.9896907943541959
vn 0.1432205696489132 -3.560369403762467e-8 -0.9896907943541959
vn -0.6479531629331117 2.7401110554779995e-8 0.7616801813392389
vn 0.6479531629331117 -2.7401110554779995e-8 -0.7616801813392389
vn -0.8850617224171398 1.6745210415624905e-8 0.46547368079409773
vn 0.8850617224171398 -1.6745210415624905e-8 -0.46547368079409773
vn -0.9738113403365689 8.179087741282075e-9 0.22735758934307693
vn 0.9738113403365689 -8.179087741282075e-9 -0.22735758934307693
vn -0.9999594799903333 0 -0.009002131828745721
vn 0.9999594799903333 0 0.009002131828745721
vn -0.9857418432384767 -6.0532524627488566e-9 -0.16826472740539122
vn 0.9857418432384767 6.0532524627488566e-9 0.16826472740539122
vn -0.18912709385816032 3.532531638211137e-8 0.9819526171708925
vn 0.18912709385816032 -3.532531638211137e-8 -0.9819526171708925
vn 0.9848105181765316 6.246355553782797e-9 0.17363249491057553
vn -0.9848105181765316 -6.246355553782797e-9 -0.17363249491057553
vn 0.9993375575165497 -1.3092177943917478e-9 -0.036392940755820384
vn -0.9993375575165497 1.3092177943917478e-9 0.036392940755820384
vn 0.9626472012756128 -9.740429909658817e-9 -0.27075887035557994
vn -0.9626472012756128 9.740429909658817e-9 0.27075887035557994
vn 0.8702329290555477 -1.77225244381245e-8 -0.49264048675215666
vn -0.8702329290555477 1.77225244381245e-8 0.49264048675215666
vn 0.7294053264738128 -2.460954142562885e-8 -0.6840817712171768
vn -0.7294053264738128 2.460954142562885e-8 0.6840817712171768
vn 0.4999445783619524 -3.1156035759318284e-8 -0.8660573991176848
vn -0.4999445783619524 3.1156035759318284e-8 0.8660573991176848
vn 0.21235499240774322 -3.515407641333515e-8 -0.9771925896155301
vn -0.21235499240774322 3.515407641333515e-8 0.9771925896155301
vn -0.10198001397596033 -3.578700852718928e-8 -0.9947864478115197
vn 0.10198001397596033 3.578700852718928e-8 0.9947864478115197
vn -0.40405718585933004 -3.2907147535187314e-8 -0.9147337265868345
vn 0.40405718585933004 3.2907147535187314e-8 0.9147337265868345
vn -0.5686796617814776 -2.959120529130742e-8 -0.8225590813285714
vn -0.5493528557999012 -3.006000390043018e-8 -0.8355904737516412
vn 0.5686796617814776 2.959120529130742e-8 0.8225590813285714
vn 0.5493528557999012 3.006000390043018e-8 0.8355904737516412
usemtl material_0_0
f 1/1/1 2/2/1 3/3/1
f 2/2/1 1/1/1 4/4/1
f 2/2/1 4/4/1 5/5/1
f 2/2/1 5/5/1 6/6/1
f 6/6/1 5/5/1 7/7/1
f 7/7/1 5/5/1 8/8/1
f 7/7/1 8/8/1 9/9/1
f 9/9/1 8/8/1 10/10/1
f 10/10/1 8/8/1 11/11/1
f 11/11/1 8/8/1 12/12/1
f 11/11/1 12/12/1 13/13/1
f 13/13/1 12/12/1 14/14/1
f 14/14/1 12/12/1 15/15/1
f 15/15/1 12/12/1 16/16/1
f 16/16/1 12/12/1 17/17/1
f 17/17/1 12/12/1 18/18/1
f 17/17/1 18/18/1 19/19/1
f 17/17/1 19/19/1 20/20/1
f 17/17/1 20/20/1 21/21/1
f 17/17/1 21/21/1 22/22/1
f 23/22/2 24/21/2 25/17/2
f 24/21/2 26/20/2 25/17/2
f 26/20/2 27/19/2 25/17/2
f 27/19/2 28/18/2 25/17/2
f 28/18/2 29/12/2 25/17/2
f 25/17/2 29/12/2 30/16/2
f 30/16/2 29/12/2 31/15/2
f 31/15/2 29/12/2 32/14/2
f 32/14/2 29/12/2 33/13/2
f 33/13/2 29/12/2 34/11/2
f 29/12/2 35/8/2 34/11/2
f 34/11/2 35/8/2 36/10/2
f 36/10/2 35/8/2 37/9/2
f 37/9/2 35/8/2 38/7/2
f 35/8/2 39/5/2 38/7/2
f 38/7/2 39/5/2 40/6/2
f 40/6/2 39/5/2 41/2/2
f 39/5/2 42/4/2 41/2/2
f 42/4/2 43/1/2 41/2/2
f 44/3/2 41/2/2 43/1/2
f 45/23/3 46/24/3 47/25/3
f 46/24/3 45/23/3 48/26/3
f 49/26/4 50/23/4 51/24/4
f 52/25/4 51/24/4 50/23/4
f 53/27/5 54/28/6 55/29/6
f 54/28/6 53/27/5 56/30/5
f 57/30/7 58/27/7 59/28/8
f 60/29/8 59/28/8 58/27/7
f 55/31/6 61/32/9 62/33/9
f 61/32/9 55/31/6 54/34/6
f 59/34/8 60/31/8 63/32/10
f 64/33/10 63/32/10 60/31/8
f 65/35/11 66/36/11 67/37/11
f 66/36/11 65/35/11 68/38/11
f 69/38/12 70/35/12 71/36/12
f 72/37/12 71/36/12 70/35/12
f 73/39/13 74/40/13 75/41/13
f 74/40/13 73/39/13 76/42/13
f 77/42/14 78/39/14 79/40/14
f 80/41/14 79/40/14 78/39/14
f 81/43/15 82/44/15 83/45/15
f 82/44/15 81/43/15 84/46/15
f 85/46/16 86/43/16 87/44/16
f 88/45/16 87/44/16 86/43/16
f 89/47/17 90/48/17 91/49/17
f 90/48/17 89/47/17 92/50/17
f 93/50/18 94/47/18 95/48/18
f 96/49/18 95/48/18 94/47/18
f 97/51/19 98/52/19 99/53/19
f 98/52/19 97/51/19 100/54/19
f 101/54/20 102/51/20 103/52/20
f 104/53/20 103/52/20 102/51/20
f 105/55/21 106/56/21 107/57/21
f 106/56/21 105/55/21 108/58/21
f 109/58/22 110/55/22 111/56/22
f 112/57/22 111/56/22 110/55/22
f 113/59/23 114/60/23 115/61/23
f 114/60/23 113/59/23 116/62/23
f 117/62/24 118/59/24 119/60/24
f 120/61/24 119/60/24 118/59/24
f 121/63/25 122/64/25 123/65/25
f 122/64/25 121/63/25 124/66/25
f 125/66/26 126/63/26 127/64/26
f 128/65/26 127/64/26 126/63/26
f 129/67/27 130/68/27 131/69/27
f 130/68/27 129/67/27 132/70/27
f 133/70/28 134/67/28 135/68/28
f 136/69/28 135/68/28 134/67/28
f 137/71/29 138/72/29 139/73/29
f 138/72/29 137/71/29 140/74/29
f 141/74/30 142/71/30 143/72/30
f 144/73/30 143/72/30 142/71/30
f 145/75/31 146/76/31 147/77/31
f 146/76/31 145/75/31 148/78/31
f 149/78/32 150/75/32 151/76/32
f 152/77/32 151/76/32 150/75/32
f 153/79/33 154/80/33 155/81/33
f 154/80/33 153/79/33 156/82/33
f 157/82/34 158/79/34 159/80/34
f 160/81/34 159/80/34 158/79/34
f 161/83/35 162/84/35 163/85/35
f 162/84/35 161/83/35 164/86/35
f 165/86/36 166/83/36 167/84/36
f 168/85/36 167/84/36 166/83/36
f 169/87/37 170/88/37 171/89/37
f 170/88/37 169/87/37 172/90/37
f 173/90/38 174/87/38 175/88/38
f 176/89/38 175/88/38 174/87/38
f 177/91/39 178/92/39 179/93/39
f 178/92/39 177/91/39 180/94/39
f 181/94/40 182/91/40 183/92/40
f 184/93/40 183/92/40 182/91/40
f 185/95/41 186/96/41 187/97/41
f 186/96/41 185/95/41 188/98/41
f 189/98/42 190/95/42 191/96/42
f 192/97/42 191/96/42 190/95/42
f 193/99/43 194/100/43 195/101/43
f 194/100/43 193/99/43 196/102/43
f 197/102/44 198/99/44 199/100/44
f 200/101/44 199/100/44 198/99/44
f 201/103/45 202/104/46 203/105/46
f 202/104/46 201/103/45 204/106/45
f 205/106/47 206/103/47 207/104/48
f 208/105/48 207/104/48 206/103/47
f 209/107/7 204/108/45 201/109/45
f 204/108/45 209/107/7 210/110/7
f 211/110/5 212/107/5 205/108/47
f 206/109/47 205/108/47 212/107/5
f 213/111/2 214/112/2 215/113/2
f 214/112/2 213/111/2 216/114/2
f 216/114/2 213/111/2 217/115/2
f 217/115/2 213/111/2 218/116/2
f 218/116/2 213/111/2 219/117/2
f 219/117/2 213/111/2 220/118/2
f 220/118/2 213/111/2 221/119/2
f 222/120/2 223/121/2 224/3/2
f 223/121/2 222/120/2 225/122/2
f 225/122/2 222/120/2 226/123/2
f 226/123/2 222/120/2 227/124/2
f 226/123/2 227/124/2 228/125/2
f 226/123/2 228/125/2 229/126/2
f 229/126/2 228/125/2 230/127/2
f 229/126/2 230/127/2 231/128/2
f 229/126/2 231/128/2 232/129/2
f 229/126/2 232/129/2 216/114/2
f 216/114/2 232/129/2 233/130/2
f 216/114/2 233/130/2 234/131/2
f 216/114/2 234/131/2 214/112/2
f 235/112/1 236/131/1 237/114/1
f 236/131/1 238/130/1 237/114/1
f 238/130/1 239/129/1 237/114/1
f 237/114/1 239/129/1 240/126/1
f 239/129/1 241/128/1 240/126/1
f 241/128/1 242/127/1 240/126/1
f 242/127/1 243/125/1 240/126/1
f 240/126/1 243/125/1 244/123/1
f 243/125/1 245/124/1 244/123/1
f 245/124/1 246/120/1 244/123/1
f 244/123/1 246/120/1 247/122/1
f 247/122/1 246/120/1 248/121/1
f 249/3/1 248/121/1 246/120/1
f 250/119/1 251/111/1 252/118/1
f 252/118/1 251/111/1 253/117/1
f 253/117/1 251/111/1 254/116/1
f 254/116/1 251/111/1 255/115/1
f 255/115/1 251/111/1 237/114/1
f 237/114/1 251/111/1 235/112/1
f 256/113/1 235/112/1 251/111/1
