# SSTK version 0.8.0
# 60
mtllib original_60.mtl
o #ID94
v 0.06736433 0.62398516 0.28867686
v 0.06970338 0.61807233 0.28773345
v 0.06736587 0.61814266 0.28873992
v 0.06978461 0.62387808 0.28790354
v 0.06988877 0.62406926 0.28788458
v 0.06748767 0.62388361 0.28864465
v 0.06980459 0.61824408 0.28791515
v 0.06740485 0.61804581 0.28884055
v 0.06459958 0.61820823 0.28026592
v 0.06756240 0.62408293 0.28857308
v 0.06757299 0.61803580 0.28862914
v 0.06454355 0.62394615 0.28023651
v 0.06458927 0.62392579 0.28039307
v 0.06446073 0.61811703 0.28024738
v 0.06747691 0.62406262 0.28864519
v 0.06739404 0.61813826 0.28867216
v 0.06994043 0.62387082 0.28783283
v 0.07292885 0.61807035 0.28654108
v 0.06978314 0.61826267 0.28779948
v 0.07281198 0.62399558 0.28667144
v 0.07274271 0.62403305 0.28649331
v 0.06980668 0.62414214 0.28785533
v 0.07270172 0.61822824 0.28656885
v 0.06982500 0.61795084 0.28789776
v 0.06666530 0.62404321 0.27979675
v 0.06449647 0.61819211 0.28049919
v 0.06665429 0.61806473 0.27971592
v 0.06454596 0.62414567 0.28032867
v 0.06453896 0.62391361 0.28019145
v 0.06664079 0.62396866 0.27970841
v 0.06442490 0.61813312 0.28043183
v 0.06659682 0.61817431 0.27947342
v 0.07281566 0.62408589 0.28657183
v 0.07460956 0.61798234 0.28508935
v 0.07288020 0.61818859 0.28652421
v 0.07456429 0.62383330 0.28507180
v 0.07453994 0.62403274 0.28516835
v 0.07273916 0.62389249 0.28641350
v 0.07445437 0.61805622 0.28509904
v 0.07289190 0.61821228 0.28642001
v 0.07115301 0.62395329 0.27853515
v 0.06664571 0.61826639 0.27976208
v 0.07102966 0.61803744 0.27873104
v 0.06657803 0.62396595 0.27959223
v 0.06683330 0.62403341 0.27950994
v 0.07114475 0.62401540 0.27855469
v 0.06675440 0.61808651 0.27967006
v 0.07106154 0.61807649 0.27846571
v 0.07518211 0.62413233 0.28360823
v 0.07457063 0.61819465 0.28521702
v 0.07465579 0.62396843 0.28513112
v 0.07503736 0.61819037 0.28356711
v 0.07515359 0.61828677 0.28346682
v 0.07517354 0.62411349 0.28361909
v 0.07454851 0.61803652 0.28503767
v 0.07456775 0.62400054 0.28499964
v 0.07221452 0.62404780 0.27887449
v 0.07118872 0.61803329 0.27854692
v 0.07233582 0.61800401 0.27877220
v 0.07110691 0.62383775 0.27846708
v 0.07099657 0.62388578 0.27844952
v 0.07226610 0.62404788 0.27871551
v 0.07092039 0.61811591 0.27866393
v 0.07216920 0.61804515 0.27875966
v 0.07487568 0.62382563 0.28150960
v 0.07507840 0.61806643 0.28354665
v 0.07520784 0.62399568 0.28339985
v 0.07490040 0.61820625 0.28141252
v 0.07483516 0.61805896 0.28161580
v 0.07489396 0.62392556 0.28142005
v 0.07503211 0.61813529 0.28351355
v 0.07500740 0.62400789 0.28339377
v 0.07224960 0.62405475 0.27880904
v 0.07330178 0.61816570 0.27937275
v 0.07341795 0.62407191 0.27924150
v 0.07222423 0.61827143 0.27891036
v 0.07231867 0.61822678 0.27874847
v 0.07234999 0.62401751 0.27899328
v 0.07351606 0.61812507 0.27942871
v 0.07327074 0.62397186 0.27949840
v 0.07433181 0.62398778 0.28031338
v 0.07485387 0.61811672 0.28147168
v 0.07483251 0.62402456 0.28141929
v 0.07430570 0.61808874 0.28032579
v 0.07427398 0.61818063 0.28026143
v 0.07413923 0.62397676 0.28031293
v 0.07493202 0.61807301 0.28148745
v 0.07496027 0.62399002 0.28139891
v 0.07330677 0.62401624 0.27937475
v 0.07432972 0.61824608 0.28023409
v 0.07430532 0.62393256 0.28025445
v 0.07340630 0.61815562 0.27949960
v 0.07334672 0.61814877 0.27948527
v 0.07336611 0.62401035 0.27929008
v 0.07432373 0.61806989 0.28031298
v 0.07425415 0.62393295 0.28027866
vt -0.04182615 0.04249006
vt -0.05493183 0
vt -0.04182615 0
vt -0.05493183 0.04249006
vt 0.1789562 0
vt 0.1338437 0.04249006
vt 0.1338437 0
vt 0.1789562 0.04249006
vt -0.06515464 0.04249006
vt -0.08205102 0
vt -0.06515464 0
vt -0.08205102 0.04249006
vt 0.05329333 0.04249006
vt 0.04182615 0
vt 0.05329333 0
vt 0.04182615 0.04249006
vt -0.1142317 0.04249006
vt -0.1255651 0
vt -0.1142317 0
vt -0.1255651 0.04249006
vt 0.05803335 0.04249006
vt 0.03498275 0
vt 0.05803335 0
vt 0.03498275 0.04249006
vt -0.1689248 0.04249006
vt -0.1599592 0
vt -0.1599592 0.04249006
vt -0.1689248 0
vt -0.01142975 0.04249006
vt -0.01783604 0
vt -0.01142975 0
vt -0.01783604 0.04249006
vt -0.1699598 0.04249006
vt -0.1593755 0
vt -0.1593755 0.04249006
vt -0.1699598 0
vt -0.06919203 0.04249006
vt -0.06287794 0
vt -0.06287794 0.04249006
vt -0.06919203 0
vt -0.1494595 0.04249006
vt -0.1426701 0
vt -0.1426701 0.04249006
vt -0.1494595 0
vt -0.1147581 0.04249006
vt -0.1083312 0
vt -0.1083312 0.04249006
vt -0.1147581 0
vn -0.32550190291769465 -3.40154394231996e-8 -0.9455413852375572
vn 0.32550190291769465 3.40154394231996e-8 0.9455413852375572
vn 0.9454957343506947 -1.1714556153980267e-8 -0.32563448270206374
vn -0.9454957343506947 1.1714556153980267e-8 0.32563448270206374
vn -0.39789789653363067 -3.3004134173591215e-8 -0.9174297051731599
vn 0.39789789653363067 3.3004134173591215e-8 0.9174297051731599
vn -0.6334651795354007 -2.7836082622866953e-8 -0.7737711976522398
vn 0.6334651795354007 2.7836082622866953e-8 0.7737711976522398
vn 0.22855050322143808 3.502239142100296e-8 0.9735320577552782
vn -0.22855050322143808 -3.502239142100296e-8 -0.9735320577552782
vn -0.9397654273940187 -1.2296829067344621e-8 -0.3418200425295992
vn 0.9397654273940187 1.2296829067344621e-8 0.3418200425295992
vn -0.1678073630679459 3.5464436844595814e-8 0.9858198054919475
vn 0.1678073630679459 -3.5464436844595814e-8 -0.9858198054919475
vn -0.988307566444943 5.48516361325147e-9 0.15247345378023971
vn 0.988307566444943 -5.48516361325147e-9 -0.15247345378023971
vn -0.45986268115782186 3.1945053105084475e-8 0.8879900418801656
vn 0.45986268115782186 -3.1945053105084475e-8 -0.8879900418801656
vn -0.8919213400971816 1.6267356742723828e-8 0.4521905826963309
vn 0.8919213400971816 -1.6267356742723828e-8 -0.4521905826963309
vn -0.7101098314282517 2.5329361959856042e-8 0.7040909226150692
vn 0.7101098314282517 -2.5329361959856042e-8 -0.7040909226150692
usemtl material_0_0
f 1/1/1 2/2/1 3/3/1
f 2/2/1 1/1/1 4/4/1
f 5/4/2 6/1/2 7/2/2
f 8/3/2 7/2/2 6/1/2
f 9/5/3 10/6/3 11/7/3
f 10/6/3 9/5/3 12/8/3
f 13/8/4 14/5/4 15/6/4
f 16/7/4 15/6/4 14/5/4
f 17/9/5 18/10/5 19/11/5
f 18/10/5 17/9/5 20/12/5
f 21/12/6 22/9/6 23/10/6
f 24/11/6 23/10/6 22/9/6
f 25/13/2 26/14/2 27/15/2
f 26/14/2 25/13/2 28/16/2
f 29/16/1 30/13/1 31/14/1
f 32/15/1 31/14/1 30/13/1
f 33/17/7 34/18/7 35/19/7
f 34/18/7 33/17/7 36/20/7
f 37/20/8 38/17/8 39/18/8
f 40/19/8 39/18/8 38/17/8
f 41/21/9 42/22/9 43/23/9
f 42/22/9 41/21/9 44/24/9
f 45/24/10 46/21/10 47/22/10
f 48/23/10 47/22/10 46/21/10
f 49/25/11 50/26/11 51/27/11
f 50/26/11 49/25/11 52/28/11
f 53/28/12 54/25/12 55/26/12
f 56/27/12 55/26/12 54/25/12
f 57/29/13 58/30/13 59/31/13
f 58/30/13 57/29/13 60/32/13
f 61/32/14 62/29/14 63/30/14
f 64/31/14 63/30/14 62/29/14
f 65/33/15 66/34/15 67/35/15
f 66/34/15 65/33/15 68/36/15
f 69/36/16 70/33/16 71/34/16
f 72/35/16 71/34/16 70/33/16
f 73/37/17 74/38/17 75/39/17
f 74/38/17 73/37/17 76/40/17
f 77/40/18 78/37/18 79/38/18
f 80/39/18 79/38/18 78/37/18
f 81/41/19 82/42/19 83/43/19
f 82/42/19 81/41/19 84/44/19
f 85/44/20 86/41/20 87/42/20
f 88/43/20 87/42/20 86/41/20
f 89/45/21 90/46/21 91/47/21
f 90/46/21 89/45/21 92/48/21
f 93/48/22 94/45/22 95/46/22
f 96/47/22 95/46/22 94/45/22
