# SSTK version 0.8.0
# 4
mtllib original_4.mtl
o #ID21
v 0.25526248 0.21344097 -0.65469936
v 0.25973523 0.30041675 -0.65461921
v 0.26116500 0.25674768 -0.65467483
v 0.25043843 0.34292327 -0.65458403
v 0.24203830 0.17191740 -0.65453842
v 0.23384682 0.38344608 -0.65469057
v 0.22164778 0.13337722 -0.65446531
v 0.22373087 0.25855490 -0.65463876
v 0.21856046 0.22188290 -0.65448219
v 0.19470622 0.09897004 -0.65446667
v 0.20730881 0.18672202 -0.65462312
v 0.18985001 0.15370254 -0.65462614
v 0.16257724 0.06968380 -0.65465471
v 0.16728435 0.12466193 -0.65459654
v 0.13955691 0.09972007 -0.65468785
v 0.12570211 0.04640439 -0.65463054
v 0.10828129 0.08009614 -0.65450010
v 0.08510545 0.03014764 -0.65454262
v 0.07413414 0.06603260 -0.65478279
v 0.04268408 0.02089270 -0.65470064
v 0.03788996 0.05811151 -0.65447148
v -0.00111540 0.01925062 -0.65467715
v 0.00088524 0.05672640 -0.65475346
v -0.03606093 0.06181847 -0.65455227
v -0.04430109 0.02513592 -0.65473797
v -0.07104535 0.07328782 -0.65478713
v -0.08576727 0.03859267 -0.65461021
v -0.10400135 0.09057100 -0.65475877
v -0.12441925 0.05888876 -0.65464894
v -0.13330787 0.11344373 -0.65457501
v -0.15875389 0.08567059 -0.65468662
v -0.15790499 0.14082745 -0.65468689
v -0.17775214 0.17216240 -0.65467921
v -0.18805683 0.11812932 -0.65455123
v -0.19178866 0.20638474 -0.65465301
v -0.21143191 0.15491767 -0.65463540
v -0.19953536 0.24265511 -0.65475210
v -0.20101996 0.27968980 -0.65460616
v 0.22219601 0.29569224 -0.65467031
v 0.21074752 0.42010458 -0.65457886
v 0.21446647 0.33175173 -0.65447727
v 0.20036397 0.36608091 -0.65465050
v 0.18145996 0.45267894 -0.65464607
v 0.18069788 0.39748482 -0.65456927
v 0.14703311 0.47939154 -0.65453215
v 0.15584121 0.42496087 -0.65455104
v 0.12663416 0.44767171 -0.65476088
v 0.10837659 0.49964135 -0.65466286
v 0.09401011 0.46500328 -0.65462381
v 0.06694589 0.51297707 -0.65465392
v 0.05856321 0.47621753 -0.65459574
v 0.02383982 0.51894991 -0.65457356
v 0.02192677 0.48129841 -0.65468797
v -0.01993412 0.51748327 -0.65471020
v -0.01509382 0.48007095 -0.65465253
v -0.05151366 0.47208975 -0.65469827
v -0.06238077 0.50824366 -0.65467604
v -0.08561394 0.45817989 -0.65457061
v -0.10280882 0.49185390 -0.65464952
v -0.11700758 0.43837335 -0.65447601
v -0.13973367 0.46850959 -0.65469555
v -0.14448321 0.41370907 -0.65469131
v -0.17214803 0.43918408 -0.65448381
v -0.16727347 0.38438185 -0.65468430
v -0.18463931 0.35152174 -0.65455077
v -0.19878390 0.40478383 -0.65477150
v -0.19580601 0.31631835 -0.65461615
v -0.21910732 0.36622791 -0.65453089
v -0.22772986 0.19526799 -0.65455180
v -0.23243153 0.32479895 -0.65465248
v -0.23687667 0.23799450 -0.65463325
v -0.23852137 0.28153168 -0.65467176
v -0.23867924 0.28149586 -0.65470652
v -0.23690386 0.23783022 -0.65471083
v -0.23250610 0.32465321 -0.65454951
v -0.22777385 0.19520101 -0.65462335
v -0.21924633 0.36624210 -0.65465452
v -0.21127159 0.15488926 -0.65455887
v -0.20091267 0.27957091 -0.65455658
v -0.19896358 0.40478169 -0.65461821
v -0.19600306 0.31634972 -0.65475567
v -0.18447593 0.35160778 -0.65451522
v -0.17194148 0.43927635 -0.65464298
v -0.16732924 0.38430209 -0.65474013
v -0.14444794 0.41357509 -0.65475089
v -0.13975946 0.46851343 -0.65468144
v -0.11690583 0.43864082 -0.65476280
v -0.10275475 0.49187951 -0.65454620
v -0.08557797 0.45821922 -0.65462873
v -0.06243528 0.50831002 -0.65469572
v -0.05123385 0.47220129 -0.65449130
v -0.01969062 0.51734204 -0.65474648
v -0.01514817 0.48008372 -0.65453099
v 0.02176499 0.48140310 -0.65467854
v 0.02389639 0.51899065 -0.65447868
v 0.05855312 0.47646048 -0.65453388
v 0.06689316 0.51292721 -0.65471571
v 0.09384631 0.46494819 -0.65474399
v 0.10858109 0.49972498 -0.65458294
v 0.12656949 0.44766450 -0.65463264
v 0.14703308 0.47916518 -0.65459640
v 0.15574603 0.42507651 -0.65473311
v 0.18069467 0.39744068 -0.65468694
v 0.18153008 0.45265927 -0.65473970
v 0.20045916 0.36606277 -0.65468338
v 0.21072974 0.42022543 -0.65470946
v 0.21449503 0.33192744 -0.65467519
v 0.22209829 0.29559472 -0.65456378
v 0.22360006 0.25851066 -0.65448314
v 0.23388330 0.38327907 -0.65457583
v -0.19959417 0.24254429 -0.65444919
v -0.19169684 0.20653722 -0.65478375
v -0.18809283 0.11805588 -0.65446889
v -0.17765998 0.17222557 -0.65476844
v -0.15892462 0.08578286 -0.65459200
v -0.15798734 0.14066840 -0.65468051
v -0.13324378 0.11334316 -0.65464376
v -0.12434225 0.05896907 -0.65455389
v -0.10392397 0.09053560 -0.65457782
v -0.08569389 0.03857819 -0.65471497
v -0.07134388 0.07332950 -0.65462538
v -0.04427135 0.02510211 -0.65467176
v -0.03583737 0.06194892 -0.65462796
v -0.00105010 0.01928082 -0.65447406
v 0.00087968 0.05683391 -0.65463663
v 0.03787699 0.05830404 -0.65469190
v 0.04262282 0.02083681 -0.65456881
v 0.07412108 0.06613872 -0.65442773
v 0.08516490 0.03008716 -0.65465669
v 0.10830302 0.08003614 -0.65466921
v 0.12561329 0.04656040 -0.65467552
v 0.13970215 0.09975727 -0.65466317
v 0.16241031 0.06964021 -0.65453357
v 0.16711715 0.12468876 -0.65442347
v 0.18989274 0.15394975 -0.65463889
v 0.19487427 0.09913507 -0.65444698
v 0.20713036 0.18673097 -0.65470333
v 0.21855126 0.22186748 -0.65466259
v 0.22172874 0.13349153 -0.65467688
v 0.24179694 0.17185696 -0.65444023
v 0.25057634 0.34285938 -0.65457940
v 0.25521916 0.21352641 -0.65451715
v 0.25966811 0.30018013 -0.65450937
v 0.26134063 0.25672029 -0.65477722
v -0.10288687 0.49178668 -0.65459391
v -0.13977098 0.46847829 -0.55015814
v -0.10270458 0.49174349 -0.55017536
v -0.13971524 0.46853183 -0.65469581
v -0.13988893 0.46860933 -0.65478463
v -0.10285629 0.49175865 -0.65469096
v -0.13974954 0.46865745 -0.55037478
v -0.10300114 0.49168422 -0.55026154
v -0.06235605 0.50825261 -0.65457686
v -0.06258464 0.50820920 -0.55031833
v -0.06240215 0.50830862 -0.65452085
v -0.06249278 0.50819624 -0.55031697
v -0.01987370 0.51726383 -0.55028919
v -0.01990379 0.51726068 -0.65467410
v -0.01976682 0.51731893 -0.65465030
v -0.01992651 0.51731601 -0.55024795
v 0.02363299 0.51895542 -0.65456790
v 0.02381764 0.51906819 -0.55048591
v 0.02368708 0.51906837 -0.65458983
v 0.02377290 0.51909428 -0.55048267
v 0.06708053 0.51304447 -0.55028683
v 0.06684043 0.51301260 -0.65459528
v 0.06701447 0.51301977 -0.65464728
v 0.06684530 0.51314278 -0.55045218
v 0.10858931 0.49971774 -0.55015998
v 0.10859816 0.49968605 -0.65454016
v 0.10854101 0.49970014 -0.65463311
v 0.10849288 0.49972355 -0.55033766
v 0.14696926 0.47928317 -0.55048270
v 0.14702722 0.47930115 -0.65456090
v 0.14697402 0.47931932 -0.65472474
v 0.14698216 0.47933617 -0.55034209
v 0.18131962 0.45255012 -0.65460811
v 0.18151926 0.45262123 -0.55023660
v 0.18149655 0.45259221 -0.65450664
v 0.18138724 0.45253250 -0.55038704
v 0.21072808 0.42024277 -0.65470029
v 0.21086491 0.42028425 -0.55041880
v 0.21080578 0.42016513 -0.65461095
v 0.21094545 0.42037014 -0.55047073
v 0.23403380 0.38329264 -0.65474247
v 0.23391632 0.38317783 -0.55016953
v 0.23393882 0.38319534 -0.65462559
v 0.23408861 0.38337236 -0.55016221
v 0.25041844 0.34290553 -0.65444883
v 0.25023753 0.34290199 -0.55038434
v 0.25038556 0.34304301 -0.65450184
v 0.25027713 0.34294839 -0.55027726
v 0.25944942 0.30017932 -0.55031749
v 0.25956419 0.30034934 -0.65460456
v 0.25968925 0.30033771 -0.55030395
v 0.25944014 0.30033948 -0.65445558
v 0.26131032 0.25670346 -0.55019803
v 0.26137861 0.25666485 -0.65475943
v 0.26129548 0.25681116 -0.55020709
v 0.26118129 0.25663014 -0.65460650
v 0.25534711 0.21351405 -0.55042488
v 0.25524028 0.21351431 -0.65453830
v 0.25537154 0.21363918 -0.55036355
v 0.25525272 0.21355714 -0.65463838
v 0.24198907 0.17193896 -0.55047497
v 0.24193042 0.17203506 -0.65461173
v 0.24199920 0.17198817 -0.55036706
v 0.24189738 0.17198259 -0.65463059
v 0.22168322 0.13327328 -0.55047331
v 0.22153917 0.13350864 -0.65478754
v 0.22161403 0.13357373 -0.55045692
v 0.22140473 0.13332057 -0.65461599
v 0.19471980 0.09890437 -0.55029016
v 0.19477415 0.09908031 -0.65444026
v 0.19471247 0.09882412 -0.55039903
v 0.19474179 0.09887074 -0.65460936
v 0.16235994 0.06979668 -0.55050452
v 0.16241960 0.06965421 -0.65469464
v 0.16244967 0.06970643 -0.65465944
v 0.16247788 0.06971769 -0.55036146
v 0.12548051 0.04641862 -0.55046487
v 0.12550677 0.04647864 -0.65478330
v 0.12557044 0.04652816 -0.65459248
v 0.12547470 0.04651095 -0.55032244
v 0.08519319 0.03006286 -0.65464197
v 0.08504805 0.03007666 -0.55028954
v 0.08510441 0.03007149 -0.65475189
v 0.08522565 0.03011181 -0.55037252
v 0.04264335 0.02095804 -0.65465671
v 0.04267168 0.02093538 -0.55030401
v 0.04256072 0.02091337 -0.65467274
v 0.04251123 0.02080626 -0.55038537
v -0.00101609 0.01919324 -0.55022622
v -0.00121964 0.01919222 -0.65450658
v -0.00113803 0.01925590 -0.65457540
v -0.00092737 0.01928479 -0.55039109
v -0.04433881 0.02521711 -0.65462328
v -0.04434709 0.02524223 -0.55048411
v -0.04420757 0.02518318 -0.65472105
v -0.04426462 0.02517932 -0.55041849
v -0.08584265 0.03864947 -0.55030685
v -0.08569456 0.03862194 -0.65450104
v -0.08592442 0.03864570 -0.65458397
v -0.08587263 0.03842104 -0.55038303
v -0.12425979 0.05905751 -0.55044817
v -0.12434664 0.05883690 -0.65473244
v -0.12429169 0.05894943 -0.65475135
v -0.12438606 0.05889217 -0.55019334
v -0.15872605 0.08584704 -0.65471644
v -0.15893710 0.08561515 -0.55038854
v -0.15888534 0.08560149 -0.65461922
v -0.15879062 0.08579403 -0.55041882
v -0.18791584 0.11803501 -0.55034595
v -0.18807647 0.11808982 -0.65471258
v -0.18808732 0.11801426 -0.65462423
v -0.18808895 0.11798464 -0.55034010
v -0.21140814 0.15503944 -0.65471366
v -0.21143054 0.15499937 -0.55025432
v -0.21129100 0.15493245 -0.55033987
v -0.21136638 0.15490541 -0.65445325
v -0.22771876 0.19519594 -0.55028279
v -0.22768831 0.19526956 -0.65471818
v -0.22763193 0.19523018 -0.65462021
v -0.22761416 0.19530432 -0.55026133
v -0.23692915 0.23779399 -0.65454927
v -0.23687638 0.23806230 -0.55027667
v -0.23691298 0.23781186 -0.55034980
v -0.23697341 0.23797709 -0.65455230
v -0.23856549 0.28153092 -0.55023658
v -0.23857361 0.28154892 -0.65475693
v -0.23855180 0.28149555 -0.65450143
v -0.23845625 0.28142477 -0.55029805
v -0.23252287 0.32467561 -0.55045430
v -0.23266619 0.32479103 -0.65466724
v -0.23259976 0.32481698 -0.65452060
v -0.23265199 0.32489675 -0.55041726
v -0.21911758 0.36626734 -0.65459288
v -0.21928896 0.36632412 -0.55014874
v -0.21929813 0.36636216 -0.55020469
v -0.21921406 0.36641588 -0.65468356
v -0.19888387 0.40483688 -0.65459112
v -0.19888313 0.40478865 -0.55031405
v -0.19880339 0.40475665 -0.55019909
v -0.19889267 0.40489793 -0.65476800
v -0.17208027 0.43929861 -0.65469883
v -0.17214242 0.43926506 -0.55036585
v -0.17215578 0.43922086 -0.55042571
v -0.17227053 0.43931686 -0.65460594
v 0.25957103 0.30018478 -0.55020284
v 0.25531949 0.21367948 -0.55014633
v 0.26127870 0.25660955 -0.55020900
v 0.25050259 0.34296899 -0.55038410
v 0.24196810 0.17201400 -0.55030916
v 0.23392994 0.38326245 -0.55035676
v 0.23609122 0.25811162 -0.55044121
v 0.23472455 0.29702988 -0.55034278
v 0.22646271 0.33558718 -0.55049389
v 0.21069846 0.42014352 -0.55034988
v 0.21169932 0.37191691 -0.55030789
v 0.19063519 0.40494398 -0.55037531
v 0.18151655 0.45247921 -0.55031711
v 0.16449327 0.43417568 -0.55041303
v 0.14704262 0.47922102 -0.55038631
v 0.13341182 0.45817264 -0.55020505
v 0.10833188 0.49978181 -0.55044511
v 0.09871693 0.47659063 -0.55033815
v 0.06693475 0.51307641 -0.55043840
v 0.06148911 0.48855022 -0.55041662
v 0.02388775 0.51891242 -0.55038551
v 0.02256873 0.49393452 -0.55035051
v -0.01970098 0.51734285 -0.55040119
v -0.01670017 0.49226020 -0.55038551
v -0.05489989 0.48425308 -0.55033027
v -0.06246988 0.50805507 -0.55028630
v -0.09143191 0.46947705 -0.55044002
v -0.10277965 0.49174186 -0.55031691
v -0.12474039 0.44835930 -0.55032294
v -0.13975121 0.46835980 -0.55019871
v -0.15362687 0.42210872 -0.55039685
v -0.17214960 0.43939220 -0.55047665
v -0.17776138 0.39114185 -0.55023154
v -0.19887953 0.40486180 -0.55024763
v -0.19619231 0.35652285 -0.55040597
v -0.20809465 0.31902075 -0.55032044
v -0.21920594 0.36619409 -0.55037388
v -0.21353612 0.28015796 -0.55036601
v 0.22147283 0.13336564 -0.55030921
v 0.23078685 0.21918816 -0.55025036
v 0.21887552 0.18172638 -0.55031844
v 0.19467443 0.09903953 -0.55033654
v 0.20054793 0.14719614 -0.55037340
v 0.17634095 0.11619601 -0.55033297
v 0.16237784 0.06969549 -0.55027791
v 0.14738866 0.08966066 -0.55034381
v 0.12543060 0.04650037 -0.55033769
v 0.11407025 0.06896752 -0.55044218
v 0.08513036 0.03013936 -0.55039959
v 0.07786567 0.05397839 -0.55040591
v 0.04253689 0.02081548 -0.55030166
v 0.03936933 0.04585772 -0.55035435
v -0.00111372 0.01922316 -0.55023756
v 0.00021152 0.04436688 -0.55039256
v -0.03867000 0.04960520 -0.55046222
v -0.04438442 0.02522666 -0.55027894
v -0.07606294 0.06171011 -0.55036796
v -0.08567101 0.03840034 -0.55022242
v -0.11068011 0.08006094 -0.55018475
v -0.12435950 0.05893578 -0.55025607
v -0.14170906 0.10399339 -0.55015732
v -0.15874919 0.08576528 -0.55030417
v -0.16787927 0.13305242 -0.55021609
v -0.18810017 0.11798960 -0.55022955
v -0.18892037 0.16650856 -0.55030363
v -0.21128615 0.15488915 -0.55047719
v -0.20372724 0.20289766 -0.55023216
v -0.21201965 0.24115132 -0.55026964
v -0.22775042 0.19530863 -0.55029509
v -0.23248926 0.32483326 -0.55033936
v -0.23677558 0.23800903 -0.55041797
v -0.23838982 0.28147640 -0.55030144
v -0.23847789 0.28150195 -0.55040116
v -0.23244304 0.32474885 -0.55042993
v -0.23687067 0.23789034 -0.55020155
v -0.22765382 0.19523575 -0.55038340
v -0.21915444 0.36625267 -0.55030054
v -0.21345215 0.28035562 -0.55042104
v -0.21188563 0.24104668 -0.55039945
v -0.21117395 0.15493577 -0.55021667
v -0.20368012 0.20283054 -0.55023116
v -0.18886422 0.16623768 -0.55032201
v -0.18806783 0.11790599 -0.55030294
v -0.16797254 0.13325601 -0.55036376
v -0.15867222 0.08569160 -0.55013755
v -0.14166153 0.10412949 -0.55044185
v -0.12439463 0.05895241 -0.55027828
v -0.11063711 0.08010974 -0.55040169
v -0.08588022 0.03839740 -0.55027170
v -0.07594932 0.06171698 -0.55019376
v -0.04433084 0.02509788 -0.55022319
v -0.03862312 0.04981812 -0.55030489
v -0.00095133 0.01922746 -0.55022269
v 0.00015175 0.04426701 -0.55028494
v 0.03934388 0.04572083 -0.55029896
v 0.04249053 0.02093230 -0.55026636
v 0.07776603 0.05422169 -0.55033291
v 0.08507681 0.03003079 -0.55019166
v 0.11392928 0.06885420 -0.55042510
v 0.12557741 0.04642586 -0.55040344
v 0.14737404 0.08986711 -0.55049770
v 0.16247989 0.06969727 -0.55035997
v 0.17633434 0.11595533 -0.55045657
v 0.19491513 0.09890896 -0.55035185
v 0.20036353 0.14704760 -0.55043568
v 0.21885531 0.18168943 -0.55029819
v 0.22155040 0.13328755 -0.55018194
v 0.23065020 0.21905819 -0.55041806
v 0.23602826 0.25792776 -0.55047536
v 0.24191762 0.17187429 -0.55038241
v -0.20818234 0.31905070 -0.55041448
v -0.19881133 0.40472638 -0.55027269
v -0.19617981 0.35653041 -0.55038218
v -0.17765702 0.39122492 -0.55034427
v -0.17219919 0.43929273 -0.55033197
v -0.15371605 0.42221793 -0.55021039
v -0.13975315 0.46839856 -0.55029387
v -0.12449972 0.44855833 -0.55035008
v -0.10271773 0.49192036 -0.55040644
v -0.09123290 0.46938210 -0.55029666
v -0.06260031 0.50825242 -0.55022441
v -0.05492718 0.48420990 -0.55027628
v -0.01986585 0.51747777 -0.55035316
v -0.01682889 0.49237835 -0.55033557
v 0.02244384 0.49394011 -0.55035456
v 0.02371780 0.51903563 -0.55020076
v 0.06127146 0.48850864 -0.55037078
v 0.06696662 0.51290317 -0.55041349
v 0.09872526 0.47649407 -0.55029991
v 0.10842875 0.49975116 -0.55034479
v 0.13331432 0.45810172 -0.55034678
v 0.14702277 0.47934222 -0.55046055
v 0.16436639 0.43401747 -0.55022712
v 0.18163360 0.45254825 -0.55017816
v 0.19086112 0.40491423 -0.55016306
v 0.21079009 0.42032202 -0.55045625
v 0.21164152 0.37188731 -0.55048868
v 0.22639244 0.33542968 -0.55038990
v 0.23383287 0.38337884 -0.55027887
v 0.23470795 0.29710601 -0.55038277
v 0.25043982 0.34286320 -0.55042156
v 0.25525659 0.21352414 -0.55025317
v 0.25971004 0.30023727 -0.55035333
v 0.26128814 0.25672246 -0.55041377
vt -1.319671 0.04043598
vt -1.90921 0.01114194
vt -1.613159 -1.4781e-15
vt -2.198828 0.07352326
vt -1.037664 0.1312212
vt -2.473214 0.1852485
vt -0.7757057 0.2695973
vt -1.62586 0.2555988
vt -1.376563 0.2899462
vt -0.5417559 0.4513598
vt -1.137019 0.3670617
vt -0.9145042 0.4846021
vt -0.342923 0.6709858
vt -0.7157809 0.638996
vt -0.5468869 0.8255523
vt -0.1852485 0.9218022
vt -0.4129539 1.038602
vt -0.07352326 1.196188
vt -0.3180515 1.271673
vt -0.01114194 1.485806
vt -0.2650631 1.517683
vt -4.944305e-15 1.781857
vt -0.2555988 1.769156
vt -0.2899462 2.018452
vt -0.04043598 2.075344
vt -0.3670617 2.257997
vt -0.1312212 2.357352
vt -0.4846021 2.480512
vt -0.2695973 2.61931
vt -0.638996 2.679235
vt -0.4513598 2.85326
vt -0.8255523 2.848129
vt -1.038602 2.982062
vt -0.6709858 3.052093
vt -1.271673 3.076964
vt -0.9218022 3.209767
vt -1.517683 3.129953
vt -1.769156 3.139417
vt -1.877333 0.2650631
vt -2.72403 0.342923
vt -2.123343 0.3180515
vt -2.356413 0.4129539
vt -2.943656 0.5417559
vt -2.569464 0.5468869
vt -3.125418 0.7757057
vt -2.75602 0.7157809
vt -2.910414 0.9145042
vt -3.263795 1.037664
vt -3.027954 1.137019
vt -3.35458 1.319671
vt -3.10507 1.376563
vt -3.395016 1.613159
vt -3.139417 1.62586
vt -3.383874 1.90921
vt -3.129953 1.877333
vt -3.076964 2.123343
vt -3.321493 2.198828
vt -2.982062 2.356413
vt -3.209767 2.473214
vt -2.848129 2.569464
vt -3.052093 2.72403
vt -2.679235 2.75602
vt -2.85326 2.943656
vt -2.480512 2.910414
vt -2.257997 3.027954
vt -2.61931 3.125418
vt -2.018452 3.10507
vt -2.357352 3.263795
vt -1.196188 3.321493
vt -2.075344 3.35458
vt -1.485806 3.383874
vt -1.781857 3.395016
vt 0.3301547 0.385553
vt -0.4249006 0.6818132
vt -0.4249006 0.385553
vt 0.3301547 0.6818132
vt 0.3301547 0.7838801
vt -0.4249006 1.08014
vt -0.4249006 0.7838801
vt 0.3301547 1.08014
vt -0.4249006 1.153889
vt 0.3301547 1.450149
vt -0.4249006 1.450149
vt 0.3301547 1.153889
vt 0.3301547 1.484336
vt -0.4249006 1.780596
vt -0.4249006 1.484336
vt 0.3301547 1.780596
vt -0.4249006 1.765182
vt 0.3301547 2.061442
vt -0.4249006 2.061442
vt 0.3301547 1.765182
vt -0.4249006 1.987892
vt 0.3301547 2.284152
vt -0.4249006 2.284152
vt 0.3301547 1.987892
vt -0.4249006 2.145701
vt 0.3301547 2.441961
vt -0.4249006 2.441961
vt 0.3301547 2.145701
vt 0.3301547 2.233813
vt -0.4249006 2.530073
vt -0.4249006 2.233813
vt 0.3301547 2.530073
vt 0.3301547 2.24955
vt -0.4249006 2.545811
vt -0.4249006 2.24955
vt 0.3301547 2.545811
vt 0.3301547 2.192436
vt -0.4249006 2.488696
vt -0.4249006 2.192436
vt 0.3301547 2.488696
vt 0.3301547 2.064204
vt -0.4249006 2.360464
vt -0.4249006 2.064204
vt 0.3301547 2.360464
vt 0.3301547 2.165012
vt -0.4249006 1.868752
vt 0.3301547 1.868752
vt -0.4249006 2.165012
vt 0.3301547 1.908278
vt -0.4249006 1.612018
vt 0.3301547 1.612018
vt -0.4249006 1.908278
vt -0.3301547 -1.598063
vt 0.4249006 -1.301803
vt -0.3301547 -1.301803
vt 0.4249006 -1.598063
vt -0.3301547 -1.243792
vt 0.4249006 -0.9475317
vt -0.3301547 -0.9475317
vt 0.4249006 -1.243792
vt -0.3301547 -0.8562299
vt 0.4249006 -0.5599697
vt -0.3301547 -0.5599697
vt 0.4249006 -0.8562299
vt -0.3301547 -0.4471527
vt 0.4249006 -0.1508925
vt -0.3301547 -0.1508925
vt 0.4249006 -0.4471527
vt 0.4249006 0.2672703
vt -0.3301547 -0.02898986
vt 0.4249006 -0.02898986
vt -0.3301547 0.2672703
vt 0.4249006 0.6818132
vt -0.3301547 0.385553
vt 0.4249006 0.385553
vt -0.3301547 0.6818132
vt -0.3301547 1.08014
vt 0.4249006 0.7838801
vt 0.4249006 1.08014
vt -0.3301547 0.7838801
vt -0.3301547 1.450149
vt 0.4249006 1.153889
vt 0.4249006 1.450149
vt -0.3301547 1.153889
vt 0.4249006 1.780596
vt -0.3301547 1.484336
vt 0.4249006 1.484336
vt -0.3301547 1.780596
vt -0.3301547 2.061442
vt 0.4249006 1.765182
vt 0.4249006 2.061442
vt -0.3301547 1.765182
vt 0.4249006 2.284152
vt -0.3301547 1.987892
vt 0.4249006 1.987892
vt -0.3301547 2.284152
vt 0.4249006 2.441961
vt -0.3301547 2.145701
vt 0.4249006 2.145701
vt -0.3301547 2.441961
vt -0.3301547 2.530073
vt 0.4249006 2.233813
vt 0.4249006 2.530073
vt -0.3301547 2.233813
vt 0.4249006 2.545811
vt -0.3301547 2.24955
vt 0.4249006 2.24955
vt -0.3301547 2.545811
vt 0.4249006 2.192436
vt -0.3301547 2.488696
vt -0.3301547 2.192436
vt 0.4249006 2.488696
vt 0.4249006 2.360464
vt -0.3301547 2.064204
vt 0.4249006 2.064204
vt -0.3301547 2.360464
vt 0.4249006 1.868752
vt -0.3301547 2.165012
vt -0.3301547 1.868752
vt 0.4249006 2.165012
vt 0.4249006 1.908278
vt -0.3301547 1.612018
vt 0.4249006 1.612018
vt -0.3301547 1.908278
vt -0.4249006 -1.598063
vt 0.3301547 -1.301803
vt -0.4249006 -1.301803
vt 0.3301547 -1.598063
vt -0.4249006 -0.9475317
vt 0.3301547 -1.243792
vt 0.3301547 -0.9475317
vt -0.4249006 -1.243792
vt -0.4249006 -0.5599697
vt 0.3301547 -0.8562299
vt 0.3301547 -0.5599697
vt -0.4249006 -0.8562299
vt -0.4249006 -0.1508925
vt 0.3301547 -0.4471527
vt 0.3301547 -0.1508925
vt -0.4249006 -0.4471527
vt -0.4249006 -0.02898986
vt 0.3301547 0.2672703
vt -0.4249006 0.2672703
vt 0.3301547 -0.02898986
vt 1.90921 0.01114194
vt 1.319671 0.04043598
vt 1.613159 4.792821e-16
vt 2.198828 0.07352326
vt 1.037664 0.1312212
vt 2.473214 0.1852485
vt 1.621626 0.1703992
vt 1.887959 0.1804227
vt 2.148504 0.2365421
vt 2.72403 0.342923
vt 2.395347 0.3370521
vt 2.620986 0.478899
vt 2.943656 0.5417559
vt 2.818565 0.6577726
vt 3.125418 0.7757057
vt 2.982082 0.8682381
vt 3.263795 1.037664
vt 3.106568 1.1039
vt 3.35458 1.319671
vt 3.18824 1.357599
vt 3.395016 1.613159
vt 3.224617 1.621626
vt 3.383874 1.90921
vt 3.214593 1.887959
vt 3.158474 2.148504
vt 3.321493 2.198828
vt 3.057964 2.395347
vt 3.209767 2.473214
vt 2.916117 2.620986
vt 3.052093 2.72403
vt 2.737243 2.818565
vt 2.85326 2.943656
vt 2.526778 2.982082
vt 2.61931 3.125418
vt 2.291115 3.106568
vt 2.037416 3.18824
vt 2.357352 3.263795
vt 1.77339 3.224617
vt 0.7757057 0.2695973
vt 1.357599 0.2067761
vt 1.1039 0.2884482
vt 0.5417559 0.4513598
vt 0.8682381 0.4129338
vt 0.6577726 0.5764506
vt 0.342923 0.6709858
vt 0.478899 0.7740301
vt 0.1852485 0.9218022
vt 0.3370521 0.999669
vt 0.07352326 1.196188
vt 0.2365421 1.246511
vt 0.01114194 1.485806
vt 0.1804227 1.507057
vt 0 1.781857
vt 0.1703992 1.77339
vt 0.2067761 2.037416
vt 0.04043598 2.075344
vt 0.2884482 2.291115
vt 0.1312212 2.357352
vt 0.4129338 2.526778
vt 0.2695973 2.61931
vt 0.5764506 2.737243
vt 0.4513598 2.85326
vt 0.7740301 2.916117
vt 0.6709858 3.052093
vt 0.999669 3.057964
vt 0.9218022 3.209767
vt 1.246511 3.158474
vt 1.507057 3.214593
vt 1.196188 3.321493
vt 2.075344 3.35458
vt 1.485806 3.383874
vt 1.781857 3.395016
vn 0 -3.5974577171211104e-8 -1
vn 0 3.5974577171211104e-8 1
vn -0.4564043030089053 0.8897725058659401 -3.200917575558929e-8
vn -0.6039778192384913 0.7970011253868564 -2.8671765414026288e-8
vn 0.6039778192384913 -0.7970011253868564 2.8671765414026288e-8
vn 0.4564043030089053 -0.8897725058659401 3.200917575558929e-8
vn -0.29496311253068713 0.9555086405921235 -3.4374004985469446e-8
vn 0.29496311253068713 -0.9555086405921235 3.4374004985469446e-8
vn -0.12455960340430355 0.9922121271178665 -3.569439740799134e-8
vn 0.12455960340430355 -0.9922121271178665 3.569439740799134e-8
vn 0.049628562170480894 0.9987677436806265 -3.5930233391368446e-8
vn -0.049628562170480894 -0.9987677436806265 3.5930233391368446e-8
vn 0.22230880132061062 0.974976305791783 -3.507434734418774e-8
vn -0.22230880132061062 -0.974976305791783 3.507434734418774e-8
vn 0.38823430087721905 0.9215607020822751 -3.315274485281923e-8
vn -0.38823430087721905 -0.9215607020822751 3.315274485281923e-8
vn 0.542363471019283 0.8401439551076435 -3.022381342895778e-8
vn -0.542363471019283 -0.8401439551076435 3.022381342895778e-8
vn 0.6800131845180549 0.7331998833071465 -2.6376547595633628e-8
vn -0.6800131845180549 -0.7331998833071465 2.6376547595633628e-8
vn 0.7970011253868572 0.6039778192384906 -2.172784065903842e-8
vn -0.7970011253868572 -0.6039778192384906 2.172784065903842e-8
vn 0.8897725058659407 0.45640430300890467 -1.641894817305034e-8
vn -0.8897725058659407 -0.45640430300890467 1.641894817305034e-8
vn 0.9555086405921243 0.29496311253068674 -1.0611172080427272e-8
vn -0.9555086405921243 -0.29496311253068674 1.0611172080427272e-8
vn 0.9922121271178672 0.12455960340430337 -4.480980399633418e-9
vn -0.9922121271178672 -0.12455960340430337 4.480980399633418e-9
vn 0.998767743680627 -0.04962856217048081 1.785362737179933e-9
vn -0.998767743680627 0.04962856217048081 -1.785362737179933e-9
vn 0.9749763057917834 -0.22230880132061026 7.997458973998459e-9
vn -0.9749763057917834 0.22230880132061026 -7.997458973998459e-9
vn 0.9215607020822759 -0.38823430087721855 1.3966556497053442e-8
vn -0.9215607020822759 0.38823430087721855 -1.3966556497053442e-8
vn 0.8401439551076445 -0.5423634710192823 1.95112863100583e-8
vn -0.8401439551076445 0.5423634710192823 -1.95112863100583e-8
vn 0.7331998833071471 -0.680013184518054 2.446317494923321e-8
vn -0.7331998833071471 0.680013184518054 -2.446317494923321e-8
vn 0.29496311253068713 -0.9555086405921235 3.437400498546944e-8
vn -0.29496311253068713 0.9555086405921235 -3.437400498546944e-8
vn -0.22230880132061062 -0.974976305791783 3.5074347344187744e-8
vn 0.22230880132061062 0.974976305791783 -3.5074347344187744e-8
vn -0.38823430087721905 -0.9215607020822751 3.315274485281924e-8
vn 0.38823430087721905 0.9215607020822751 -3.315274485281924e-8
vn -0.998767743680627 0.04962856217048081 -1.7853627371799336e-9
vn 0.998767743680627 -0.04962856217048081 1.7853627371799336e-9
vn -0.9749763057917834 0.22230880132061026 -7.99745897399846e-9
vn 0.9749763057917834 -0.22230880132061026 7.99745897399846e-9
vn -0.8401439551076445 0.5423634710192823 -1.9511286310058297e-8
vn 0.8401439551076445 -0.5423634710192823 1.9511286310058297e-8
vn -0.7331998833071471 0.680013184518054 -2.4463174949233208e-8
vn 0.7331998833071471 -0.680013184518054 2.4463174949233208e-8
vn 0 3.597456311981438e-8 1
vn 0 -3.597456311981438e-8 -1
usemtl material_0_0
f 1/1/1 2/2/1 3/3/1
f 2/2/1 1/1/1 4/4/1
f 4/4/1 1/1/1 5/5/1
f 4/4/1 5/5/1 6/6/1
f 6/6/1 5/5/1 7/7/1
f 6/6/1 7/7/1 8/8/1
f 8/8/1 7/7/1 9/9/1
f 9/9/1 7/7/1 10/10/1
f 9/9/1 10/10/1 11/11/1
f 11/11/1 10/10/1 12/12/1
f 12/12/1 10/10/1 13/13/1
f 12/12/1 13/13/1 14/14/1
f 14/14/1 13/13/1 15/15/1
f 15/15/1 13/13/1 16/16/1
f 15/15/1 16/16/1 17/17/1
f 17/17/1 16/16/1 18/18/1
f 17/17/1 18/18/1 19/19/1
f 19/19/1 18/18/1 20/20/1
f 19/19/1 20/20/1 21/21/1
f 21/21/1 20/20/1 22/22/1
f 21/21/1 22/22/1 23/23/1
f 23/23/1 22/22/1 24/24/1
f 24/24/1 22/22/1 25/25/1
f 24/24/1 25/25/1 26/26/1
f 26/26/1 25/25/1 27/27/1
f 26/26/1 27/27/1 28/28/1
f 28/28/1 27/27/1 29/29/1
f 28/28/1 29/29/1 30/30/1
f 30/30/1 29/29/1 31/31/1
f 30/30/1 31/31/1 32/32/1
f 32/32/1 31/31/1 33/33/1
f 33/33/1 31/31/1 34/34/1
f 33/33/1 34/34/1 35/35/1
f 35/35/1 34/34/1 36/36/1
f 35/35/1 36/36/1 37/37/1
f 37/37/1 36/36/1 38/38/1
f 6/6/1 39/39/1 40/40/1
f 39/39/1 6/6/1 8/8/1
f 40/40/1 39/39/1 41/41/1
f 40/40/1 41/41/1 42/42/1
f 40/40/1 42/42/1 43/43/1
f 43/43/1 42/42/1 44/44/1
f 43/43/1 44/44/1 45/45/1
f 45/45/1 44/44/1 46/46/1
f 45/45/1 46/46/1 47/47/1
f 45/45/1 47/47/1 48/48/1
f 48/48/1 47/47/1 49/49/1
f 48/48/1 49/49/1 50/50/1
f 50/50/1 49/49/1 51/51/1
f 50/50/1 51/51/1 52/52/1
f 52/52/1 51/51/1 53/53/1
f 52/52/1 53/53/1 54/54/1
f 54/54/1 53/53/1 55/55/1
f 54/54/1 55/55/1 56/56/1
f 54/54/1 56/56/1 57/57/1
f 57/57/1 56/56/1 58/58/1
f 57/57/1 58/58/1 59/59/1
f 59/59/1 58/58/1 60/60/1
f 59/59/1 60/60/1 61/61/1
f 61/61/1 60/60/1 62/62/1
f 61/61/1 62/62/1 63/63/1
f 63/63/1 62/62/1 64/64/1
f 63/63/1 64/64/1 65/65/1
f 63/63/1 65/65/1 66/66/1
f 66/66/1 65/65/1 67/67/1
f 66/66/1 67/67/1 38/38/1
f 66/66/1 38/38/1 68/68/1
f 68/68/1 38/38/1 36/36/1
f 68/68/1 36/36/1 69/69/1
f 68/68/1 69/69/1 70/70/1
f 70/70/1 69/69/1 71/71/1
f 70/70/1 71/71/1 72/72/1
f 73/72/2 74/71/2 75/70/2
f 74/71/2 76/69/2 75/70/2
f 75/70/2 76/69/2 77/68/2
f 76/69/2 78/36/2 77/68/2
f 78/36/2 79/38/2 77/68/2
f 77/68/2 79/38/2 80/66/2
f 79/38/2 81/67/2 80/66/2
f 81/67/2 82/65/2 80/66/2
f 80/66/2 82/65/2 83/63/2
f 82/65/2 84/64/2 83/63/2
f 84/64/2 85/62/2 83/63/2
f 83/63/2 85/62/2 86/61/2
f 85/62/2 87/60/2 86/61/2
f 86/61/2 87/60/2 88/59/2
f 87/60/2 89/58/2 88/59/2
f 88/59/2 89/58/2 90/57/2
f 89/58/2 91/56/2 90/57/2
f 90/57/2 91/56/2 92/54/2
f 91/56/2 93/55/2 92/54/2
f 93/55/2 94/53/2 92/54/2
f 92/54/2 94/53/2 95/52/2
f 94/53/2 96/51/2 95/52/2
f 95/52/2 96/51/2 97/50/2
f 96/51/2 98/49/2 97/50/2
f 97/50/2 98/49/2 99/48/2
f 98/49/2 100/47/2 99/48/2
f 99/48/2 100/47/2 101/45/2
f 100/47/2 102/46/2 101/45/2
f 102/46/2 103/44/2 101/45/2
f 101/45/2 103/44/2 104/43/2
f 103/44/2 105/42/2 104/43/2
f 104/43/2 105/42/2 106/40/2
f 105/42/2 107/41/2 106/40/2
f 107/41/2 108/39/2 106/40/2
f 109/8/2 110/6/2 108/39/2
f 106/40/2 108/39/2 110/6/2
f 79/38/2 78/36/2 111/37/2
f 111/37/2 78/36/2 112/35/2
f 78/36/2 113/34/2 112/35/2
f 112/35/2 113/34/2 114/33/2
f 113/34/2 115/31/2 114/33/2
f 114/33/2 115/31/2 116/32/2
f 116/32/2 115/31/2 117/30/2
f 115/31/2 118/29/2 117/30/2
f 117/30/2 118/29/2 119/28/2
f 118/29/2 120/27/2 119/28/2
f 119/28/2 120/27/2 121/26/2
f 120/27/2 122/25/2 121/26/2
f 121/26/2 122/25/2 123/24/2
f 122/25/2 124/22/2 123/24/2
f 123/24/2 124/22/2 125/23/2
f 125/23/2 124/22/2 126/21/2
f 124/22/2 127/20/2 126/21/2
f 126/21/2 127/20/2 128/19/2
f 127/20/2 129/18/2 128/19/2
f 128/19/2 129/18/2 130/17/2
f 129/18/2 131/16/2 130/17/2
f 130/17/2 131/16/2 132/15/2
f 131/16/2 133/13/2 132/15/2
f 132/15/2 133/13/2 134/14/2
f 134/14/2 133/13/2 135/12/2
f 133/13/2 136/10/2 135/12/2
f 135/12/2 136/10/2 137/11/2
f 137/11/2 136/10/2 138/9/2
f 136/10/2 139/7/2 138/9/2
f 138/9/2 139/7/2 109/8/2
f 109/8/2 139/7/2 110/6/2
f 139/7/2 140/5/2 110/6/2
f 110/6/2 140/5/2 141/4/2
f 140/5/2 142/1/2 141/4/2
f 141/4/2 142/1/2 143/2/2
f 144/3/2 143/2/2 142/1/2
f 145/73/3 146/74/4 147/75/3
f 146/74/4 145/73/3 148/76/4
f 149/76/5 150/73/6 151/74/5
f 152/75/6 151/74/5 150/73/6
f 153/77/7 147/78/3 154/79/7
f 147/78/3 153/77/7 145/80/3
f 150/80/6 155/77/8 152/78/6
f 156/79/8 152/78/6 155/77/8
f 157/81/9 153/82/7 154/83/7
f 153/82/7 157/81/9 158/84/9
f 159/84/10 160/81/10 155/82/8
f 156/83/8 155/82/8 160/81/10
f 161/85/11 157/86/9 162/87/11
f 157/86/9 161/85/11 158/88/9
f 159/88/10 163/85/12 160/86/10
f 164/87/12 160/86/10 163/85/12
f 165/89/13 161/90/11 162/91/11
f 161/90/11 165/89/13 166/92/13
f 167/92/14 168/89/14 163/90/12
f 164/91/12 163/90/12 168/89/14
f 169/93/15 166/94/13 165/95/13
f 166/94/13 169/93/15 170/96/15
f 171/96/16 172/93/16 167/94/14
f 168/95/14 167/94/14 172/93/16
f 173/97/17 170/98/15 169/99/15
f 170/98/15 173/97/17 174/100/17
f 175/100/18 176/97/18 171/98/16
f 172/99/16 171/98/16 176/97/18
f 177/101/19 173/102/17 178/103/19
f 173/102/17 177/101/19 174/104/17
f 175/104/18 179/101/20 176/102/18
f 180/103/20 176/102/18 179/101/20
f 181/105/21 178/106/19 182/107/21
f 178/106/19 181/105/21 177/108/19
f 179/108/20 183/105/22 180/106/20
f 184/107/22 180/106/20 183/105/22
f 185/109/23 182/110/21 186/111/23
f 182/110/21 185/109/23 181/112/21
f 183/112/22 187/109/24 184/110/22
f 188/111/24 184/110/22 187/109/24
f 189/113/25 186/114/23 190/115/25
f 186/114/23 189/113/25 185/116/23
f 187/116/24 191/113/26 188/114/24
f 192/115/26 188/114/24 191/113/26
f 189/117/25 193/118/27 194/119/27
f 193/118/27 189/117/25 190/120/25
f 192/120/26 191/117/26 195/118/28
f 196/119/28 195/118/28 191/117/26
f 194/121/27 197/122/29 198/123/29
f 197/122/29 194/121/27 193/124/27
f 195/124/28 196/121/28 199/122/30
f 200/123/30 199/122/30 196/121/28
f 198/125/29 201/126/31 202/127/31
f 201/126/31 198/125/29 197/128/29
f 199/128/30 200/125/30 203/126/32
f 204/127/32 203/126/32 200/125/30
f 202/129/31 205/130/33 206/131/33
f 205/130/33 202/129/31 201/132/31
f 203/132/32 204/129/32 207/130/34
f 208/131/34 207/130/34 204/129/32
f 206/133/33 209/134/35 210/135/35
f 209/134/35 206/133/33 205/136/33
f 207/136/34 208/133/34 211/134/36
f 212/135/36 211/134/36 208/133/34
f 210/137/35 213/138/37 214/139/37
f 213/138/37 210/137/35 209/140/35
f 211/140/36 212/137/36 215/138/38
f 216/139/38 215/138/38 212/137/36
f 217/141/5 214/142/37 213/143/37
f 214/142/37 217/141/5 218/144/5
f 219/144/4 220/141/4 216/142/38
f 215/143/38 216/142/38 220/141/4
f 221/145/6 218/146/5 217/147/5
f 218/146/5 221/145/6 222/148/6
f 223/148/3 224/145/3 219/146/4
f 220/147/4 219/146/4 224/145/3
f 225/149/39 221/150/6 226/151/39
f 221/150/6 225/149/39 222/152/6
f 223/152/3 227/149/40 224/150/3
f 228/151/40 224/150/3 227/149/40
f 229/153/10 226/154/39 230/155/10
f 226/154/39 229/153/10 225/156/39
f 227/156/40 231/153/9 228/154/40
f 232/155/9 228/154/40 231/153/9
f 233/157/12 229/158/10 230/159/10
f 229/158/10 233/157/12 234/160/12
f 235/160/11 236/157/11 231/158/9
f 232/159/9 231/158/9 236/157/11
f 237/161/41 233/162/12 238/163/41
f 233/162/12 237/161/41 234/164/12
f 235/164/11 239/161/42 236/162/11
f 240/163/42 236/162/11 239/161/42
f 241/165/43 237/166/41 238/167/41
f 237/166/41 241/165/43 242/168/43
f 243/168/44 244/165/44 239/166/42
f 240/167/42 239/166/42 244/165/44
f 245/169/18 242/170/43 241/171/43
f 242/170/43 245/169/18 246/172/18
f 247/172/17 248/169/17 243/170/44
f 244/171/44 243/170/44 248/169/17
f 249/173/20 245/174/18 250/175/20
f 245/174/18 249/173/20 246/176/18
f 247/176/17 251/173/19 248/174/17
f 252/175/19 248/174/17 251/173/19
f 253/177/22 249/178/20 250/179/20
f 249/178/20 253/177/22 254/180/22
f 255/180/21 256/177/21 251/178/19
f 252/179/19 251/178/19 256/177/21
f 253/181/22 257/182/24 254/183/22
f 257/182/24 253/181/22 258/184/24
f 259/184/23 256/181/21 260/182/23
f 255/183/21 260/182/23 256/181/21
f 261/185/26 257/186/24 258/187/24
f 257/186/24 261/185/26 262/188/26
f 263/188/25 264/185/25 260/186/23
f 259/187/23 260/186/23 264/185/25
f 261/189/26 265/190/28 262/191/26
f 265/190/28 261/189/26 266/192/28
f 267/192/27 264/189/25 268/190/27
f 263/191/25 268/190/27 264/189/25
f 269/193/45 265/194/28 266/195/28
f 265/194/28 269/193/45 270/196/45
f 271/196/46 272/193/46 268/194/27
f 267/195/27 268/194/27 272/193/46
f 273/197/47 270/198/45 269/199/45
f 270/198/45 273/197/47 274/200/47
f 275/200/48 276/197/48 271/198/46
f 272/199/46 271/198/46 276/197/48
f 273/201/47 277/202/34 274/203/47
f 277/202/34 273/201/47 278/204/34
f 279/204/33 276/201/48 280/202/33
f 275/203/48 280/202/33 276/201/48
f 278/205/34 281/206/49 277/207/34
f 281/206/49 278/205/34 282/208/49
f 283/208/50 279/205/33 284/206/50
f 280/207/33 284/206/50 279/205/33
f 282/209/49 285/210/51 281/211/49
f 285/210/51 282/209/49 286/212/51
f 287/212/52 283/209/50 288/210/52
f 284/211/50 288/210/52 283/209/50
f 146/213/4 285/214/51 286/215/51
f 285/214/51 146/213/4 148/216/4
f 149/216/5 151/213/5 288/214/52
f 287/215/52 288/214/52 151/213/5
f 289/217/53 290/218/53 291/219/53
f 290/218/53 289/217/53 292/220/53
f 290/218/53 292/220/53 293/221/53
f 293/221/53 292/220/53 294/222/53
f 293/221/53 294/222/53 295/223/53
f 295/223/53 294/222/53 296/224/53
f 296/224/53 294/222/53 297/225/53
f 297/225/53 294/222/53 298/226/53
f 297/225/53 298/226/53 299/227/53
f 299/227/53 298/226/53 300/228/53
f 300/228/53 298/226/53 301/229/53
f 300/228/53 301/229/53 302/230/53
f 302/230/53 301/229/53 303/231/53
f 302/230/53 303/231/53 304/232/53
f 304/232/53 303/231/53 305/233/53
f 304/232/53 305/233/53 306/234/53
f 306/234/53 305/233/53 307/235/53
f 306/234/53 307/235/53 308/236/53
f 308/236/53 307/235/53 309/237/53
f 308/236/53 309/237/53 310/238/53
f 310/238/53 309/237/53 311/239/53
f 310/238/53 311/239/53 312/240/53
f 312/240/53 311/239/53 313/241/53
f 313/241/53 311/239/53 314/242/53
f 313/241/53 314/242/53 315/243/53
f 315/243/53 314/242/53 316/244/53
f 315/243/53 316/244/53 317/245/53
f 317/245/53 316/244/53 318/246/53
f 317/245/53 318/246/53 319/247/53
f 319/247/53 318/246/53 320/248/53
f 319/247/53 320/248/53 321/249/53
f 321/249/53 320/248/53 322/250/53
f 321/249/53 322/250/53 323/251/53
f 323/251/53 322/250/53 324/252/53
f 324/252/53 322/250/53 325/253/53
f 324/252/53 325/253/53 326/254/53
f 295/223/53 327/255/53 293/221/53
f 327/255/53 295/223/53 328/256/53
f 327/255/53 328/256/53 329/257/53
f 327/255/53 329/257/53 330/258/53
f 330/258/53 329/257/53 331/259/53
f 330/258/53 331/259/53 332/260/53
f 330/258/53 332/260/53 333/261/53
f 333/261/53 332/260/53 334/262/53
f 333/261/53 334/262/53 335/263/53
f 335/263/53 334/262/53 336/264/53
f 335/263/53 336/264/53 337/265/53
f 337/265/53 336/264/53 338/266/53
f 337/265/53 338/266/53 339/267/53
f 339/267/53 338/266/53 340/268/53
f 339/267/53 340/268/53 341/269/53
f 341/269/53 340/268/53 342/270/53
f 341/269/53 342/270/53 343/271/53
f 341/269/53 343/271/53 344/272/53
f 344/272/53 343/271/53 345/273/53
f 344/272/53 345/273/53 346/274/53
f 346/274/53 345/273/53 347/275/53
f 346/274/53 347/275/53 348/276/53
f 348/276/53 347/275/53 349/277/53
f 348/276/53 349/277/53 350/278/53
f 350/278/53 349/277/53 351/279/53
f 350/278/53 351/279/53 352/280/53
f 352/280/53 351/279/53 353/281/53
f 352/280/53 353/281/53 354/282/53
f 354/282/53 353/281/53 355/283/53
f 354/282/53 355/283/53 356/284/53
f 354/282/53 356/284/53 357/285/53
f 357/285/53 356/284/53 326/254/53
f 357/285/53 326/254/53 325/253/53
f 357/285/53 325/253/53 358/286/53
f 357/285/53 358/286/53 359/287/53
f 359/287/53 358/286/53 360/288/53
f 361/288/54 362/286/54 363/287/54
f 363/287/54 362/286/54 364/285/54
f 362/286/54 365/253/54 364/285/54
f 365/253/54 366/254/54 364/285/54
f 366/254/54 367/284/54 364/285/54
f 364/285/54 367/284/54 368/282/54
f 367/284/54 369/283/54 368/282/54
f 369/283/54 370/281/54 368/282/54
f 368/282/54 370/281/54 371/280/54
f 370/281/54 372/279/54 371/280/54
f 371/280/54 372/279/54 373/278/54
f 372/279/54 374/277/54 373/278/54
f 373/278/54 374/277/54 375/276/54
f 374/277/54 376/275/54 375/276/54
f 375/276/54 376/275/54 377/274/54
f 376/275/54 378/273/54 377/274/54
f 377/274/54 378/273/54 379/272/54
f 378/273/54 380/271/54 379/272/54
f 379/272/54 380/271/54 381/269/54
f 380/271/54 382/270/54 381/269/54
f 382/270/54 383/268/54 381/269/54
f 381/269/54 383/268/54 384/267/54
f 383/268/54 385/266/54 384/267/54
f 384/267/54 385/266/54 386/265/54
f 385/266/54 387/264/54 386/265/54
f 386/265/54 387/264/54 388/263/54
f 387/264/54 389/262/54 388/263/54
f 388/263/54 389/262/54 390/261/54
f 389/262/54 391/260/54 390/261/54
f 390/261/54 391/260/54 392/258/54
f 391/260/54 393/259/54 392/258/54
f 393/259/54 394/257/54 392/258/54
f 392/258/54 394/257/54 395/255/54
f 394/257/54 396/256/54 395/255/54
f 396/256/54 397/223/54 395/255/54
f 398/221/54 395/255/54 397/223/54
f 366/254/54 365/253/54 399/252/54
f 365/253/54 400/250/54 399/252/54
f 399/252/54 400/250/54 401/251/54
f 401/251/54 400/250/54 402/249/54
f 400/250/54 403/248/54 402/249/54
f 402/249/54 403/248/54 404/247/54
f 403/248/54 405/246/54 404/247/54
f 404/247/54 405/246/54 406/245/54
f 405/246/54 407/244/54 406/245/54
f 406/245/54 407/244/54 408/243/54
f 407/244/54 409/242/54 408/243/54
f 408/243/54 409/242/54 410/241/54
f 409/242/54 411/239/54 410/241/54
f 410/241/54 411/239/54 412/240/54
f 412/240/54 411/239/54 413/238/54
f 411/239/54 414/237/54 413/238/54
f 413/238/54 414/237/54 415/236/54
f 414/237/54 416/235/54 415/236/54
f 415/236/54 416/235/54 417/234/54
f 416/235/54 418/233/54 417/234/54
f 417/234/54 418/233/54 419/232/54
f 418/233/54 420/231/54 419/232/54
f 419/232/54 420/231/54 421/230/54
f 420/231/54 422/229/54 421/230/54
f 421/230/54 422/229/54 423/228/54
f 422/229/54 424/226/54 423/228/54
f 423/228/54 424/226/54 425/227/54
f 425/227/54 424/226/54 426/225/54
f 424/226/54 427/222/54 426/225/54
f 426/225/54 427/222/54 428/224/54
f 428/224/54 427/222/54 397/223/54
f 397/223/54 427/222/54 398/221/54
f 427/222/54 429/220/54 398/221/54
f 398/221/54 429/220/54 430/218/54
f 429/220/54 431/217/54 430/218/54
f 432/219/54 430/218/54 431/217/54
