# SSTK version 0.8.0
# 13
mtllib original_13.mtl
o #ID86
v 0.05607925 0.09284784 -0.55028692
v 0.05353831 0.09802214 -0.55030742
v 0.05550067 0.09257923 -0.55035499
v 0.05534960 0.09890454 -0.55038923
v 0.06760524 0.08206584 -0.55046348
v 0.05777274 0.09983259 -0.55035421
v 0.05890804 0.10086058 -0.55033007
v 0.06186100 0.09525394 -0.55022210
v 0.05935947 0.10205033 -0.55032979
v 0.07382997 0.08440336 -0.55020271
v 0.05920228 0.10359068 -0.55032659
v 0.06379700 0.09740191 -0.55036698
v 0.05727837 0.11192022 -0.55032833
v 0.05992416 0.11140222 -0.55027012
v 0.06511013 0.09976117 -0.55034480
v 0.06182186 0.10998925 -0.55022366
v 0.06544644 0.10270777 -0.55034001
v 0.06364038 0.10799172 -0.55025632
v 0.06472944 0.10548198 -0.55018972
v 0.05998107 0.07961364 -0.55021444
v 0.04371240 0.10808705 -0.55029496
v 0.05428449 0.07764019 -0.55037948
v 0.05143843 0.10444599 -0.55037681
v 0.04977301 0.11019269 -0.55025290
v 0.05302850 0.10498777 -0.55022454
v 0.05431687 0.11136890 -0.55022608
v 0.05648256 0.10580919 -0.55025571
v 0.05730577 0.10555942 -0.55022223
v 0.05814099 0.10527438 -0.55020293
v 0.05878598 0.10444375 -0.55036478
v 0.05916342 0.10364204 -0.55030436
v 0.05885195 0.10440986 -0.55031272
v 0.05735385 0.11173929 -0.55034630
v 0.05814636 0.10521885 -0.55025565
v 0.05736193 0.10551456 -0.55019507
v 0.05630565 0.10582191 -0.55030321
v 0.05434060 0.11153067 -0.55023643
v 0.05309759 0.10491394 -0.55028574
v 0.04976237 0.11027651 -0.55030255
v 0.05150478 0.10437077 -0.55038478
v 0.05365048 0.09817275 -0.55030581
v 0.05571125 0.09248832 -0.55014155
v 0.06002086 0.07942653 -0.55029412
v 0.04379680 0.10817142 -0.55027717
v 0.05424859 0.07754258 -0.55025680
v 0.06502374 0.10546583 -0.55017230
v 0.06543629 0.10261413 -0.55036792
v 0.06365714 0.10815381 -0.55034647
v 0.06196389 0.10999934 -0.55037196
v 0.06531425 0.09985334 -0.55031673
v 0.05971235 0.11133555 -0.55025215
v 0.06408740 0.09743000 -0.55033193
v 0.06181288 0.09538122 -0.55038016
v 0.05947018 0.10197439 -0.55031121
v 0.07389653 0.08437815 -0.55025387
v 0.06748249 0.08211704 -0.55036929
v 0.05899639 0.10088986 -0.55038767
v 0.05768096 0.09981616 -0.55043438
v 0.05536026 0.09872051 -0.55031932
v 0.05600153 0.09276002 -0.55022799
v 0.04366401 0.10820797 -0.55030515
v 0.04984012 0.11010069 -0.55633245
v 0.04370301 0.10806395 -0.55628475
v 0.04981499 0.11030056 -0.55024727
v 0.05001609 0.11025789 -0.55033298
v 0.04373815 0.10825814 -0.55042637
v 0.04984859 0.11008127 -0.55623029
v 0.04379248 0.10813719 -0.55618061
v 0.04363057 0.10824380 -0.55027636
v 0.05423258 0.07758806 -0.55604931
v 0.05436955 0.07750470 -0.55034167
v 0.04370311 0.10804552 -0.55621809
v 0.04385339 0.10822774 -0.55616681
v 0.04366853 0.10810974 -0.55037194
v 0.05427643 0.07744406 -0.55610462
v 0.05415361 0.07748052 -0.55043341
v 0.06005113 0.07956867 -0.55045718
v 0.05423966 0.07753541 -0.55615145
v 0.06010949 0.07960795 -0.55626690
v 0.05422474 0.07760287 -0.55025603
v 0.05420719 0.07742590 -0.55018006
v 0.05999419 0.07959079 -0.55044589
v 0.05414671 0.07751941 -0.55632895
v 0.05995076 0.07951100 -0.55619783
v 0.05567651 0.09230812 -0.55616107
v 0.05992680 0.07948719 -0.55028468
v 0.05994914 0.07965433 -0.55631188
v 0.05559766 0.09234435 -0.55031737
v 0.05570426 0.09253145 -0.55028638
v 0.05552154 0.09252594 -0.55635930
v 0.06015030 0.07952721 -0.55041012
v 0.06002526 0.07953545 -0.55612535
v 0.05606982 0.09260980 -0.55035077
v 0.05561265 0.09258561 -0.55628760
v 0.05610439 0.09248091 -0.55606859
v 0.05552521 0.09253606 -0.55016576
v 0.05561747 0.09236971 -0.55027339
v 0.05602254 0.09275575 -0.55016341
v 0.05555142 0.09243041 -0.55622348
v 0.05604501 0.09267149 -0.55610043
v 0.05597715 0.09261759 -0.55023190
v 0.06741059 0.08199976 -0.55610939
v 0.06735750 0.08192114 -0.55036480
v 0.05592400 0.09266798 -0.55623777
v 0.05620724 0.09281543 -0.55635747
v 0.05607508 0.09257822 -0.55013838
v 0.06748255 0.08208049 -0.55604638
v 0.06740655 0.08195808 -0.55022748
v 0.07373577 0.08413663 -0.55035527
v 0.06739091 0.08205896 -0.55615585
v 0.07384967 0.08428642 -0.55621814
v 0.06741820 0.08216115 -0.55042618
v 0.06752960 0.08218888 -0.55042952
v 0.07388150 0.08435996 -0.55029669
v 0.06747938 0.08199048 -0.55616878
v 0.07391980 0.08419579 -0.55605136
v 0.06178313 0.09519469 -0.55614505
v 0.07382791 0.08430557 -0.55043494
v 0.07373104 0.08416639 -0.55634222
v 0.06201531 0.09542454 -0.55035154
v 0.06185734 0.09539801 -0.55046399
v 0.06177837 0.09544127 -0.55620532
v 0.07388652 0.08424105 -0.55029409
v 0.07371114 0.08411743 -0.55633799
v 0.06390993 0.09756504 -0.55033532
v 0.06180597 0.09539376 -0.55620265
v 0.06382528 0.09758313 -0.55612219
v 0.06192437 0.09543209 -0.55025089
v 0.06185412 0.09527662 -0.55035438
v 0.06407629 0.09742674 -0.55026774
v 0.06186720 0.09547518 -0.55607871
v 0.06398965 0.09766109 -0.55623167
v 0.06518876 0.10007851 -0.55022564
v 0.06403443 0.09757917 -0.55630450
v 0.06522995 0.09994831 -0.55609467
v 0.06399212 0.09754138 -0.55032409
v 0.06399123 0.09759071 -0.55029888
v 0.06506617 0.10001375 -0.55020737
v 0.06392724 0.09757480 -0.55611933
v 0.06511108 0.09990402 -0.55625657
v 0.06543977 0.10262320 -0.55617133
v 0.06516493 0.09992919 -0.55048638
v 0.06518866 0.09983443 -0.55604692
v 0.06555322 0.10263470 -0.55024168
v 0.06543806 0.10267385 -0.55034872
v 0.06547859 0.10272760 -0.55616814
v 0.06512381 0.09998727 -0.55018881
v 0.06519643 0.09990181 -0.55615308
v 0.06487260 0.10554122 -0.55625908
v 0.06537989 0.10262865 -0.55045337
v 0.06551646 0.10261828 -0.55620228
v 0.06476680 0.10549876 -0.55020825
v 0.06475829 0.10537006 -0.55016145
v 0.06494568 0.10559991 -0.55620574
v 0.06561751 0.10259859 -0.55021211
v 0.06543864 0.10264398 -0.55630878
v 0.06371031 0.10805704 -0.55625243
v 0.06488687 0.10554964 -0.55023883
v 0.06496443 0.10554467 -0.55628191
v 0.06347175 0.10816834 -0.55035855
v 0.06355868 0.10811983 -0.55038429
v 0.06352655 0.10813931 -0.55613293
v 0.06497924 0.10545017 -0.55040959
v 0.06483645 0.10561410 -0.55616171
v 0.06171267 0.11009302 -0.55619524
v 0.06372350 0.10788225 -0.55026558
v 0.06345746 0.10797169 -0.55619853
v 0.06185065 0.11002771 -0.55031504
v 0.06189657 0.11003343 -0.55034925
v 0.06189733 0.11005965 -0.55624503
v 0.06370513 0.10800559 -0.55046088
v 0.06367394 0.10807964 -0.55614110
v 0.05979637 0.11139433 -0.55634937
v 0.06175990 0.10993994 -0.55022231
v 0.06186576 0.10998583 -0.55614164
v 0.05968278 0.11112852 -0.55041703
v 0.05979907 0.11125666 -0.55035379
v 0.05963671 0.11129686 -0.55623354
v 0.06199054 0.11000307 -0.55027468
v 0.06170219 0.10994268 -0.55630751
v 0.05723179 0.11184390 -0.55023202
v 0.05969888 0.11136208 -0.55618746
v 0.05733606 0.11191219 -0.55616220
v 0.05981929 0.11111072 -0.55033098
v 0.05973400 0.11129894 -0.55031486
v 0.05735176 0.11181104 -0.55035696
v 0.05965091 0.11123519 -0.55623279
v 0.05740770 0.11192729 -0.55621260
v 0.05418546 0.11138922 -0.55045833
v 0.05749595 0.11194535 -0.55629250
v 0.05419231 0.11138329 -0.55618619
v 0.05747615 0.11179697 -0.55038583
v 0.05745547 0.11186456 -0.55033279
v 0.05423208 0.11152392 -0.55031299
v 0.05743791 0.11180524 -0.55608619
v 0.05419979 0.11136459 -0.55608611
v 0.05423139 0.11154695 -0.55621559
v 0.05425031 0.11139185 -0.55045769
v 0.05433212 0.11159849 -0.55044820
v 0.05423955 0.11161822 -0.55615915
v 0.04984609 0.11016342 -0.55616491
v 0.05418432 0.07766062 -0.55623894
v 0.04377352 0.10811072 -0.55615197
v 0.05140112 0.10433376 -0.55618473
v 0.05319804 0.10501220 -0.55620154
v 0.05416401 0.11159802 -0.55633769
v 0.05648065 0.10573561 -0.55615121
v 0.05739462 0.11194702 -0.55615986
v 0.05727078 0.10563786 -0.55613745
v 0.05816012 0.10520377 -0.55628571
v 0.05879056 0.10456683 -0.55611726
v 0.05939078 0.10345034 -0.55627084
v 0.06194474 0.09549913 -0.55627941
v 0.05954738 0.10222914 -0.55611913
v 0.06397001 0.09742167 -0.55604792
v 0.05989744 0.11119182 -0.55620177
v 0.06519465 0.09991465 -0.55611554
v 0.06194892 0.11001173 -0.55632422
v 0.06566556 0.10240541 -0.55630077
v 0.06357458 0.10799456 -0.55611435
v 0.06479045 0.10536123 -0.55616131
v 0.05539953 0.09873942 -0.55622501
v 0.05556839 0.09253758 -0.55626928
v 0.05358161 0.09833339 -0.55616796
v 0.05613764 0.09250753 -0.55622473
v 0.06745330 0.08208154 -0.55630096
v 0.05763419 0.09970804 -0.55616799
v 0.05890525 0.10075620 -0.55624741
v 0.07383128 0.08427238 -0.55619299
v 0.05989908 0.07964703 -0.55607569
v 0.05569405 0.09257268 -0.55609182
v 0.05346371 0.09819222 -0.55613165
v 0.06018654 0.07956266 -0.55627900
v 0.05149986 0.10436020 -0.55623637
v 0.05418832 0.07751325 -0.55607854
v 0.07378245 0.08440125 -0.55616611
v 0.06193596 0.09538762 -0.55629095
v 0.06744435 0.08215832 -0.55620943
v 0.05962572 0.10221762 -0.55626213
v 0.05903748 0.10073066 -0.55619260
v 0.05773513 0.09975542 -0.55620567
v 0.05540042 0.09870211 -0.55633728
v 0.05612285 0.09254484 -0.55607428
v 0.06506009 0.10554816 -0.55619271
v 0.06376000 0.10798933 -0.55609136
v 0.06537906 0.10252017 -0.55623248
v 0.06190202 0.10988021 -0.55626525
v 0.06511482 0.09999524 -0.55625021
v 0.05976951 0.11119815 -0.55623387
v 0.06398903 0.09755412 -0.55623310
v 0.05745050 0.11187601 -0.55620065
v 0.05927603 0.10363897 -0.55610015
v 0.05888511 0.10449428 -0.55618174
v 0.05809418 0.10528941 -0.55610556
v 0.05729362 0.10556988 -0.55612551
v 0.05635907 0.10575227 -0.55613556
v 0.05428525 0.11153873 -0.55631693
v 0.05322786 0.10482864 -0.55610163
v 0.04988612 0.11011190 -0.55615020
v 0.04369520 0.10824300 -0.55611841
vt 0.04565399 0.09306318
vt 0.04182615 0.1338437
vt 0.04182615 0.09306318
vt 0.05493183 0.1338437
vt 0.0950658 0
vt 0.07177724 0.1351551
vt 0.08240592 0.1390895
vt 0.08873586 0.09769393
vt 0.08804614 0.1460586
vt 0.1407898 0
vt 0.08992622 0.1564746
vt 0.1070141 0.1069368
vt 0.09616397 0.2132387
vt 0.1100965 0.2045934
vt 0.1200273 0.1197274
vt 0.1210076 0.1916534
vt 0.1278128 0.1360657
vt 0.1280579 0.1751843
vt 0.130408 0.1559518
vt 0.04182615 0
vt 0 0.2197367
vt 0 0
vt 0.04182615 0.1789562
vt 0.04431424 0.2197367
vt 0.05329333 0.1789562
vt 0.07547992 0.2181122
vt 0.07622652 0.1766326
vt 0.08184779 0.1735598
vt 0.08620341 0.1689886
vt 0.08899552 0.1631999
vt 0 0.04249006
vt -0.04431424 0
vt -0.04431424 0.04249006
vt -0.2197367 0.04249006
vt -0.2197367 0
vt 0.04182615 0.04249006
vt 0.09306318 0
vt 0.09306318 0.04249006
vt 0.04565399 0.04249006
vt 0.04565399 0
vt -0.06078646 0.04249006
vt 0.04458091 0
vt 0.04458091 0.04249006
vt -0.06078646 0
vt 0.1407898 0.04249006
vt 0.0950658 0.04249006
vt 0.04449149 0
vt -0.06620502 0.04249006
vt -0.06620502 0
vt 0.04449149 0.04249006
vt 0.1437549 0.04249006
vt 0.1232726 0
vt 0.1437549 0
vt 0.1232726 0.04249006
vt 0.1695276 0.04249006
vt 0.1512809 0
vt 0.1695276 0
vt 0.1512809 0.04249006
vt 0.1778145 0
vt 0.159716 0.04249006
vt 0.159716 0
vt 0.1778145 0.04249006
vt 0.1715159 0
vt 0.1514612 0.04249006
vt 0.1514612 0
vt 0.1715159 0.04249006
vt 0.1583586 0
vt 0.138983 0.04249006
vt 0.138983 0
vt 0.1583586 0.04249006
vt 0.1285655 0
vt 0.1106508 0.04249006
vt 0.1106508 0
vt 0.1285655 0.04249006
vt 0.08543925 0
vt 0.0685131 0.04249006
vt 0.0685131 0
vt 0.08543925 0.04249006
vt 0.03071989 0.04249006
vt 0.01432305 0
vt 0.03071989 0
vt 0.01432305 0.04249006
vt -0.02344715 0.04249006
vt -0.04469758 0
vt -0.02344715 0
vt -0.04469758 0.04249006
vt -0.03281601 0.04249006
vt -0.064024 0
vt -0.03281601 0
vt -0.064024 0.04249006
vt -0.04431424 0.2197367
vt -0.04182615 0.1789562
vt -0.05329333 0.1789562
vt -0.07547992 0.2181122
vt -0.07622652 0.1766326
vt -0.09616397 0.2132387
vt -0.08184779 0.1735598
vt -0.08620341 0.1689886
vt -0.08899552 0.1631999
vt -0.08992622 0.1564746
vt -0.08873586 0.09769393
vt -0.08804614 0.1460586
vt -0.1070141 0.1069368
vt -0.1100965 0.2045934
vt -0.1200273 0.1197274
vt -0.1210076 0.1916534
vt -0.1278128 0.1360657
vt -0.1280579 0.1751843
vt -0.130408 0.1559518
vt -0.05493183 0.1338437
vt -0.04182615 0.09306318
vt -0.04182615 0.1338437
vt -0.04565399 0.09306318
vt -0.0950658 0
vt -0.07177724 0.1351551
vt -0.08240592 0.1390895
vt -0.1407898 0
vt -0.04182615 0
vn 0 3.597456311981437e-8 1
vn 0 -3.597456311981437e-8 -1
vn -0.3255681876614225 0.94551856416617 -3.4014616332407135e-8
vn -0.3008405102188439 0.9536744661629902 -3.4308021414617256e-8
vn 0.3008405102188439 -0.9536744661629902 3.4308021414617256e-8
vn 0.3255681876614225 -0.94551856416617 3.4014616332407135e-8
vn -0.9455185641661707 -0.325568187661422 1.1712176032687467e-8
vn 0.9455185641661707 0.325568187661422 -1.1712176032687467e-8
vn -0.6824318905266809 -0.730949187558328 2.629557964537579e-8
vn 0.6824318905266809 0.730949187558328 -2.629557964537579e-8
vn 0.6813612687373903 0.7319472805226981 -2.6331485600646768e-8
vn -0.6813612687373903 -0.7319472805226981 2.6331485600646768e-8
vn 0.7172093921105829 -0.6968577242654109 2.50691501270415e-8
vn -0.7172093921105829 0.6968577242654109 -2.50691501270415e-8
vn 0.8949789198150451 -0.4461084319834078 1.6048553373977904e-8
vn -0.8949789198150451 0.4461084319834078 -1.6048553373977904e-8
vn 0.9936140052872733 -0.11283265705008637 4.059102689019812e-9
vn -0.9936140052872733 0.11283265705008637 -4.059102689019812e-9
vn 0.9796985278948965 0.20047641866457228 -7.2120543913177935e-9
vn -0.9796985278948965 -0.20047641866457228 7.2120543913177935e-9
vn 0.8990491234914082 0.4378477744026232 -1.5751384979499093e-8
vn -0.8990491234914082 -0.4378477744026232 1.5751384979499093e-8
vn 0.7410925124481218 0.6714029252195209 -2.415342904081305e-8
vn -0.7410925124481218 -0.6714029252195209 2.415342904081305e-8
vn 0.5129737059302516 0.8584043202501855 -3.088072187460051e-8
vn -0.5129737059302516 -0.8584043202501855 3.088072187460051e-8
vn 0.22189157386224975 0.9750713458249772 -3.507776631405277e-8
vn -0.22189157386224975 -0.9750713458249772 3.507776631405277e-8
vn -0.10004927893697171 0.9949824831544478 -3.5794059855973034e-8
vn 0.10004927893697171 -0.9949824831544478 3.5794059855973034e-8
vn -0.2759088604796396 0.9611838017303588 -3.4578166552585786e-8
vn 0.2759088604796396 -0.9611838017303588 3.4578166552585786e-8
usemtl material_0_0
f 1/1/1 2/2/1 3/3/1
f 2/2/1 1/1/1 4/4/1
f 4/4/1 1/1/1 5/5/1
f 4/4/1 5/5/1 6/6/1
f 6/6/1 5/5/1 7/7/1
f 7/7/1 5/5/1 8/8/1
f 7/7/1 8/8/1 9/9/1
f 8/8/1 5/5/1 10/10/1
f 8/8/1 11/11/1 9/9/1
f 11/11/1 8/8/1 12/12/1
f 11/11/1 12/12/1 13/13/1
f 13/13/1 12/12/1 14/14/1
f 14/14/1 12/12/1 15/15/1
f 14/14/1 15/15/1 16/16/1
f 16/16/1 15/15/1 17/17/1
f 16/16/1 17/17/1 18/18/1
f 18/18/1 17/17/1 19/19/1
f 20/20/1 21/21/1 22/22/1
f 21/21/1 20/20/1 23/23/1
f 21/21/1 23/23/1 24/24/1
f 23/23/1 20/20/1 3/3/1
f 23/23/1 3/3/1 2/2/1
f 24/24/1 23/23/1 25/25/1
f 24/24/1 25/25/1 26/26/1
f 26/26/1 25/25/1 27/27/1
f 26/26/1 27/27/1 13/13/1
f 13/13/1 27/27/1 28/28/1
f 13/13/1 28/28/1 29/29/1
f 13/13/1 29/29/1 30/30/1
f 13/13/1 30/30/1 11/11/1
f 31/11/2 32/30/2 33/13/2
f 32/30/2 34/29/2 33/13/2
f 34/29/2 35/28/2 33/13/2
f 35/28/2 36/27/2 33/13/2
f 33/13/2 36/27/2 37/26/2
f 36/27/2 38/25/2 37/26/2
f 37/26/2 38/25/2 39/24/2
f 38/25/2 40/23/2 39/24/2
f 41/2/2 42/3/2 40/23/2
f 42/3/2 43/20/2 40/23/2
f 39/24/2 40/23/2 44/21/2
f 40/23/2 43/20/2 44/21/2
f 45/22/2 44/21/2 43/20/2
f 46/19/2 47/17/2 48/18/2
f 48/18/2 47/17/2 49/16/2
f 47/17/2 50/15/2 49/16/2
f 49/16/2 50/15/2 51/14/2
f 50/15/2 52/12/2 51/14/2
f 51/14/2 52/12/2 33/13/2
f 33/13/2 52/12/2 31/11/2
f 52/12/2 53/8/2 31/11/2
f 54/9/2 31/11/2 53/8/2
f 55/10/2 56/5/2 53/8/2
f 54/9/2 53/8/2 57/7/2
f 53/8/2 56/5/2 57/7/2
f 57/7/2 56/5/2 58/6/2
f 58/6/2 56/5/2 59/4/2
f 56/5/2 60/1/2 59/4/2
f 59/4/2 60/1/2 41/2/2
f 42/3/2 41/2/2 60/1/2
f 61/31/3 62/32/4 63/22/3
f 62/32/4 61/31/3 64/33/4
f 65/33/5 66/31/6 67/32/5
f 68/22/6 67/32/5 66/31/6
f 69/34/7 70/22/7 71/31/7
f 70/22/7 69/34/7 72/35/7
f 73/35/8 74/34/8 75/22/8
f 76/31/8 75/22/8 74/34/8
f 77/36/6 78/22/6 79/20/6
f 78/22/6 77/36/6 80/31/6
f 81/31/3 82/36/3 83/22/3
f 84/20/3 83/22/3 82/36/3
f 85/37/8 86/31/8 87/22/8
f 86/31/8 85/37/8 88/38/8
f 89/38/7 90/37/7 91/31/7
f 92/22/7 91/31/7 90/37/7
f 93/39/6 94/20/6 95/40/6
f 94/20/6 93/39/6 96/36/6
f 97/36/3 98/39/3 99/20/3
f 100/40/3 99/20/3 98/39/3
f 101/41/9 102/42/9 103/43/9
f 102/42/9 101/41/9 104/44/9
f 105/44/10 106/41/10 107/42/10
f 108/43/10 107/42/10 106/41/10
f 109/45/6 110/5/6 111/10/6
f 110/5/6 109/45/6 112/46/6
f 113/46/3 114/45/3 115/5/3
f 116/10/3 115/5/3 114/45/3
f 117/47/11 118/48/11 119/49/11
f 118/48/11 117/47/11 120/50/11
f 121/50/12 122/47/12 123/48/12
f 124/49/12 123/48/12 122/47/12
f 125/51/13 126/52/13 127/53/13
f 126/52/13 125/51/13 128/54/13
f 129/54/14 130/51/14 131/52/14
f 132/53/14 131/52/14 130/51/14
f 133/55/15 134/56/15 135/57/15
f 134/56/15 133/55/15 136/58/15
f 137/58/16 138/55/16 139/56/16
f 140/57/16 139/56/16 138/55/16
f 141/59/17 142/60/17 143/61/17
f 142/60/17 141/59/17 144/62/17
f 145/62/18 146/59/18 147/60/18
f 148/61/18 147/60/18 146/59/18
f 149/63/19 150/64/19 151/65/19
f 150/64/19 149/63/19 152/66/19
f 153/66/20 154/63/20 155/64/20
f 156/65/20 155/64/20 154/63/20
f 157/67/21 158/68/21 159/69/21
f 158/68/21 157/67/21 160/70/21
f 161/70/22 162/67/22 163/68/22
f 164/69/22 163/68/22 162/67/22
f 165/71/23 166/72/23 167/73/23
f 166/72/23 165/71/23 168/74/23
f 169/74/24 170/71/24 171/72/24
f 172/73/24 171/72/24 170/71/24
f 173/75/25 174/76/25 175/77/25
f 174/76/25 173/75/25 176/78/25
f 177/78/26 178/75/26 179/76/26
f 180/77/26 179/76/26 178/75/26
f 181/79/27 182/80/27 183/81/27
f 182/80/27 181/79/27 184/82/27
f 185/82/28 186/79/28 187/80/28
f 188/81/28 187/80/28 186/79/28
f 189/83/29 190/84/29 191/85/29
f 190/84/29 189/83/29 192/86/29
f 193/86/30 194/83/30 195/84/30
f 196/85/30 195/84/30 194/83/30
f 64/87/4 197/88/31 62/89/4
f 197/88/31 64/87/4 198/90/31
f 199/90/32 65/87/5 200/88/32
f 67/89/5 200/88/32 65/87/5
f 201/91/2 202/22/2 203/21/2
f 202/22/2 201/91/2 204/92/2
f 204/92/2 201/91/2 205/93/2
f 205/93/2 201/91/2 206/94/2
f 205/93/2 206/94/2 207/95/2
f 207/95/2 206/94/2 208/96/2
f 207/95/2 208/96/2 209/97/2
f 209/97/2 208/96/2 210/98/2
f 210/98/2 208/96/2 211/99/2
f 211/99/2 208/96/2 212/100/2
f 212/100/2 213/101/2 214/102/2
f 213/101/2 212/100/2 215/103/2
f 215/103/2 212/100/2 208/96/2
f 215/103/2 208/96/2 216/104/2
f 215/103/2 216/104/2 217/105/2
f 217/105/2 216/104/2 218/106/2
f 217/105/2 218/106/2 219/107/2
f 219/107/2 218/106/2 220/108/2
f 219/107/2 220/108/2 221/109/2
f 222/110/2 223/111/2 224/112/2
f 223/111/2 222/110/2 225/113/2
f 225/113/2 222/110/2 226/114/2
f 226/114/2 222/110/2 227/115/2
f 226/114/2 227/115/2 228/116/2
f 226/114/2 228/116/2 213/101/2
f 213/101/2 228/116/2 214/102/2
f 226/114/2 213/101/2 229/117/2
f 204/92/2 230/118/2 202/22/2
f 230/118/2 204/92/2 224/112/2
f 230/118/2 224/112/2 223/111/2
f 231/111/1 232/112/1 233/118/1
f 232/112/1 234/92/1 233/118/1
f 235/22/1 233/118/1 234/92/1
f 236/117/1 237/101/1 238/114/1
f 239/102/1 240/116/1 237/101/1
f 237/101/1 240/116/1 238/114/1
f 240/116/1 241/115/1 238/114/1
f 241/115/1 242/110/1 238/114/1
f 238/114/1 242/110/1 243/113/1
f 243/113/1 242/110/1 231/111/1
f 232/112/1 231/111/1 242/110/1
f 244/109/1 245/108/1 246/107/1
f 245/108/1 247/106/1 246/107/1
f 246/107/1 247/106/1 248/105/1
f 247/106/1 249/104/1 248/105/1
f 248/105/1 249/104/1 250/103/1
f 249/104/1 251/96/1 250/103/1
f 251/96/1 252/100/1 250/103/1
f 250/103/1 252/100/1 237/101/1
f 239/102/1 237/101/1 252/100/1
f 252/100/1 251/96/1 253/99/1
f 253/99/1 251/96/1 254/98/1
f 254/98/1 251/96/1 255/97/1
f 255/97/1 251/96/1 256/95/1
f 251/96/1 257/94/1 256/95/1
f 256/95/1 257/94/1 258/93/1
f 257/94/1 259/91/1 258/93/1
f 258/93/1 259/91/1 234/92/1
f 234/92/1 259/91/1 235/22/1
f 260/21/1 235/22/1 259/91/1
