# SSTK version 0.8.0
# 6
mtllib original_6.mtl
o #ID37
v 0.23477932 0.29710360 -0.55608509
v 0.23080081 0.21904025 -0.55609974
v 0.23627732 0.25805883 -0.55625376
v 0.22635579 0.33544813 -0.55621740
v 0.21862817 0.18173885 -0.55637073
v 0.21167113 0.37177498 -0.55615303
v 0.20045924 0.14723537 -0.55625493
v 0.19066799 0.40495806 -0.55634885
v 0.17640544 0.11591895 -0.55614835
v 0.16441905 0.43427189 -0.55636576
v 0.14741102 0.08975554 -0.55605238
v 0.14215698 0.26268549 -0.55612357
v 0.14116480 0.28541676 -0.55632228
v 0.13344415 0.45815195 -0.55622398
v 0.13639707 0.30772003 -0.55622336
v 0.12788234 0.32875805 -0.55614565
v 0.09882385 0.47656535 -0.55620759
v 0.11551647 0.34821197 -0.55609700
v 0.10038764 0.36516448 -0.55628506
v 0.08231396 0.37911481 -0.55610268
v 0.06131401 0.48850312 -0.55618742
v 0.06211568 0.38972381 -0.55607514
v 0.04047636 0.39665347 -0.55628867
v 0.02248162 0.49388870 -0.55610975
v 0.01781652 0.39976726 -0.55634432
v -0.01666782 0.49229401 -0.55613171
v -0.00493270 0.39909533 -0.55624609
v -0.02728724 0.39421039 -0.55623062
v -0.05510458 0.48426202 -0.55608315
v -0.04825934 0.38570387 -0.55618104
v -0.06775214 0.37327991 -0.55614856
v -0.09130652 0.46942065 -0.55603477
v -0.08462946 0.35809744 -0.55609580
v -0.09849853 0.33993737 -0.55631163
v -0.12467978 0.44851342 -0.55621285
v -0.10936087 0.31988378 -0.55627906
v -0.11634716 0.29834392 -0.55631033
v -0.11934182 0.27556082 -0.55624841
v 0.13897754 0.23996856 -0.55626115
v 0.11404686 0.06868932 -0.55606878
v 0.13207428 0.21832299 -0.55630393
v 0.12131042 0.19804569 -0.55615386
v 0.10735490 0.18013921 -0.55634673
v 0.07776946 0.05395135 -0.55633205
v 0.09042161 0.16477925 -0.55622622
v 0.07100485 0.15260066 -0.55619823
v 0.03945170 0.04578526 -0.55617573
v 0.04998617 0.14403258 -0.55617437
v 0.02762250 0.13926296 -0.55631544
v 0.00023762 0.04440317 -0.55636475
v 0.00468598 0.13842176 -0.55635462
v -0.01791036 0.14144564 -0.55618094
v -0.03882526 0.04976630 -0.55631912
v -0.03942040 0.14845374 -0.55625498
v -0.07600650 0.06172554 -0.55616371
v -0.05958192 0.15912941 -0.55623407
v -0.07765335 0.17326734 -0.55622866
v -0.11071188 0.07991706 -0.55604823
v -0.09295313 0.19007571 -0.55619412
v -0.10521285 0.20932169 -0.55620397
v -0.11372315 0.23056863 -0.55620297
v -0.14172601 0.10418498 -0.55614771
v -0.11844414 0.25271658 -0.55615594
v -0.15376617 0.42220937 -0.55629913
v -0.16816821 0.13322384 -0.55625931
v -0.17790541 0.39112397 -0.55620823
v -0.18874444 0.16651126 -0.55624478
v -0.19613799 0.35648426 -0.55620666
v -0.20370667 0.20289720 -0.55625822
v -0.20809974 0.31924024 -0.55605856
v -0.21193403 0.24098101 -0.55617634
v -0.21333408 0.28015669 -0.55617400
v -0.21363460 0.28026583 -0.55628650
v -0.20805620 0.31914620 -0.55629135
v -0.21187653 0.24103471 -0.55615046
v -0.20372257 0.20265426 -0.55623384
v -0.19603882 0.35654069 -0.55603803
v -0.18889347 0.16632582 -0.55602627
v -0.17772518 0.39120808 -0.55629553
v -0.16808571 0.13301638 -0.55615418
v -0.15361325 0.42218466 -0.55609848
v -0.14167258 0.10415656 -0.55624219
v -0.12466106 0.44861256 -0.55620978
v -0.11943323 0.27560867 -0.55611764
v -0.11872466 0.25275008 -0.55600945
v -0.11376870 0.23050835 -0.55624220
v -0.11077978 0.07996685 -0.55627405
v -0.10510592 0.20927326 -0.55636462
v -0.09309476 0.19007156 -0.55617931
v -0.07766782 0.17315310 -0.55622835
v -0.07614806 0.06172608 -0.55635626
v -0.05962242 0.15909947 -0.55616317
v -0.03959203 0.14847764 -0.55633643
v -0.03860291 0.04958766 -0.55603419
v -0.01775267 0.14168271 -0.55626678
v 0.00027347 0.04435197 -0.55617026
v 0.00486083 0.13836243 -0.55619578
v 0.02765559 0.13912286 -0.55628055
v 0.03940951 0.04579301 -0.55617340
v 0.05004345 0.14402069 -0.55626238
v 0.07116304 0.15264700 -0.55615566
v 0.07763463 0.05414766 -0.55610438
v 0.09041328 0.16476104 -0.55613447
v 0.10735352 0.18018159 -0.55626091
v 0.11404914 0.06884366 -0.55624863
v 0.12139486 0.19817128 -0.55617520
v 0.13212837 0.21840376 -0.55635200
v 0.13893425 0.23995074 -0.55615455
v 0.14220243 0.26266122 -0.55605699
v 0.14735704 0.08965420 -0.55604207
v -0.11633778 0.29823132 -0.55627274
v -0.10937314 0.32003913 -0.55619117
v -0.09861784 0.33999265 -0.55624883
v -0.09146716 0.46941666 -0.55616644
v -0.08474356 0.35820321 -0.55607761
v -0.06778429 0.37341960 -0.55610794
v -0.05495351 0.48411885 -0.55625295
v -0.04840449 0.38562682 -0.55608321
v -0.02713794 0.39412959 -0.55620455
v -0.01664446 0.49253850 -0.55613379
v -0.00483840 0.39912832 -0.55616420
v 0.01785071 0.39990980 -0.55612841
v 0.02253812 0.49396875 -0.55607975
v 0.04055457 0.39674892 -0.55625071
v 0.06144092 0.48850219 -0.55623696
v 0.06216319 0.38975357 -0.55611891
v 0.08243271 0.37893480 -0.55633998
v 0.09889213 0.47654017 -0.55616018
v 0.10040670 0.36510744 -0.55617184
v 0.11556656 0.34820565 -0.55606678
v 0.12785694 0.32889985 -0.55618356
v 0.13328305 0.45828027 -0.55610022
v 0.13642525 0.30781086 -0.55628292
v 0.14114066 0.28528279 -0.55611720
v 0.16447106 0.43419209 -0.55614721
v 0.17631112 0.11604590 -0.55630006
v 0.19067429 0.40494339 -0.55630732
v 0.20051454 0.14692698 -0.55623319
v 0.21150669 0.37183059 -0.55630028
v 0.21870030 0.18173967 -0.55628047
v 0.22647662 0.33549967 -0.55622084
v 0.23084338 0.21904529 -0.55623855
v 0.23460532 0.29718042 -0.55619900
v 0.23606116 0.25803593 -0.55619909
v -0.15376970 0.42206046 -0.55613569
v -0.17770544 0.39110229 -0.55028789
v -0.17758615 0.39118905 -0.55625955
v -0.15368828 0.42208221 -0.55033672
v -0.15385109 0.42220824 -0.55038677
v -0.15358534 0.42236072 -0.55629780
v -0.17778128 0.39125070 -0.55036636
v -0.17776950 0.39126207 -0.55618472
v -0.19601260 0.35653038 -0.55035553
v -0.19601352 0.35652627 -0.55619633
v -0.19609991 0.35642227 -0.55026472
v -0.19592577 0.35645093 -0.55614773
v -0.20819063 0.31919885 -0.55622132
v -0.20807827 0.31914146 -0.55041866
v -0.20797343 0.31909050 -0.55631332
v -0.20816337 0.31903250 -0.55020785
v -0.21342522 0.28026643 -0.55037990
v -0.21359395 0.28034081 -0.55613018
v -0.21352911 0.28028524 -0.55045084
v -0.21346563 0.28039206 -0.55621093
v -0.21197662 0.24118346 -0.55023137
v -0.21193334 0.24115256 -0.55612639
v -0.21190214 0.24109343 -0.55031478
v -0.21183422 0.24099231 -0.55619804
v -0.20382209 0.20271401 -0.55024150
v -0.20384132 0.20274529 -0.55609688
v -0.20361502 0.20273461 -0.55039798
v -0.20356809 0.20272637 -0.55612721
v -0.18891410 0.16657342 -0.55031105
v -0.18898465 0.16637743 -0.55624571
v -0.18889280 0.16626476 -0.55039358
v -0.18884812 0.16638796 -0.55635336
v -0.16788431 0.13320774 -0.55034683
v -0.16802647 0.13322281 -0.55604941
v -0.16818921 0.13320346 -0.55042184
v -0.16802089 0.13315858 -0.55618504
v -0.14165798 0.10414879 -0.55036988
v -0.14178670 0.10405177 -0.55634563
v -0.14159395 0.10401340 -0.55025028
v -0.14168553 0.10404980 -0.55617087
v -0.11073231 0.08001900 -0.55602512
v -0.11055870 0.08008184 -0.55046513
v -0.11074079 0.08018974 -0.55632963
v -0.11070587 0.07998114 -0.55040870
v -0.07617313 0.06174761 -0.55038285
v -0.07595816 0.06163924 -0.55618180
v -0.07596653 0.06169705 -0.55629347
v -0.07592087 0.06168512 -0.55044298
v -0.03864835 0.04955048 -0.55617702
v -0.03879620 0.04956675 -0.55018337
v -0.03851928 0.04965129 -0.55617629
v -0.03851672 0.04974059 -0.55034935
v 0.00001138 0.04430869 -0.55623584
v 0.00012820 0.04414329 -0.55042033
v 0.00012731 0.04427928 -0.55624987
v 0.00011205 0.04428740 -0.55051727
v 0.03949917 0.04580936 -0.55038875
v 0.03935886 0.04572683 -0.55616371
v 0.03930943 0.04587410 -0.55634505
v 0.03937999 0.04577318 -0.55024573
v 0.07776684 0.05405947 -0.55034187
v 0.07770050 0.05414433 -0.55618394
v 0.07783964 0.05400937 -0.55624485
v 0.07779709 0.05410152 -0.55031310
v 0.11414555 0.06882361 -0.55043722
v 0.11406097 0.06880025 -0.55612182
v 0.11424901 0.06887924 -0.55630487
v 0.11413691 0.06872468 -0.55028975
v 0.14729629 0.08959049 -0.55624360
v 0.14719105 0.08967500 -0.55026582
v 0.14717441 0.08970836 -0.55604936
v 0.14722398 0.08973997 -0.55024317
v 0.17620526 0.11612654 -0.55028217
v 0.17637837 0.11601866 -0.55624526
v 0.17628978 0.11610555 -0.55609507
v 0.17637592 0.11614227 -0.55036209
v 0.20032586 0.14698399 -0.55031383
v 0.20031526 0.14706150 -0.55624421
v 0.20045104 0.14701073 -0.55620030
v 0.20029946 0.14721445 -0.55040241
v 0.21884165 0.18187843 -0.55600264
v 0.21894224 0.18177929 -0.55022282
v 0.21880819 0.18170136 -0.55017767
v 0.21884887 0.18178040 -0.55631455
v 0.23063098 0.21922761 -0.55039118
v 0.23085516 0.21920704 -0.55617750
v 0.23075559 0.21910332 -0.55629712
v 0.23081779 0.21909514 -0.55027505
v 0.23608291 0.25784857 -0.55610273
v 0.23606606 0.25792620 -0.55027054
v 0.23614536 0.25786113 -0.55028264
v 0.23614459 0.25798322 -0.55606337
v 0.23458752 0.29699822 -0.55033437
v 0.23465387 0.29709180 -0.55633933
v 0.23476675 0.29723790 -0.55612084
v 0.23462574 0.29711824 -0.55019999
v 0.22640424 0.33553891 -0.55613797
v 0.22639974 0.33556103 -0.55035906
v 0.22638412 0.33563625 -0.55023505
v 0.22629326 0.33558143 -0.55622628
v 0.21173285 0.37201756 -0.55622647
v 0.21170007 0.37179572 -0.55043129
v 0.21163264 0.37185583 -0.55028264
v 0.21159364 0.37193182 -0.55625696
v 0.19083881 0.40493989 -0.55600139
v 0.19084569 0.40505083 -0.55039142
v 0.19077761 0.40513684 -0.55020311
v 0.19083228 0.40505672 -0.55609948
v 0.16430722 0.43407483 -0.55027025
v 0.16431252 0.43420777 -0.55624778
v 0.16437367 0.43403012 -0.55616822
v 0.16435188 0.43420919 -0.55040216
v 0.13341355 0.45825006 -0.55035945
v 0.13338384 0.45818931 -0.55610428
v 0.13346710 0.45811561 -0.55608864
v 0.13358644 0.45826709 -0.55034580
v 0.09863016 0.47638562 -0.55624361
v 0.09875414 0.47653411 -0.55029848
v 0.09881610 0.47663958 -0.55616417
v 0.09855331 0.47654896 -0.55036200
v 0.06135845 0.48846481 -0.55609659
v 0.06120945 0.48852760 -0.55041232
v 0.06129506 0.48846486 -0.55616620
v 0.06133177 0.48849142 -0.55036751
v 0.02252009 0.49402301 -0.55633152
v 0.02238454 0.49393850 -0.55025699
v 0.02265491 0.49379495 -0.55605209
v 0.02260969 0.49392690 -0.55046757
v -0.01664532 0.49248227 -0.55612338
v -0.01668253 0.49233063 -0.55029344
v -0.01669264 0.49246813 -0.55618894
v -0.01660486 0.49229855 -0.55034245
v -0.05514604 0.48418532 -0.55028536
v -0.05499478 0.48410711 -0.55611259
v -0.05501657 0.48414449 -0.55619552
v -0.05497529 0.48419912 -0.55037595
v -0.09128342 0.46932092 -0.55625143
v -0.09151988 0.46939640 -0.55039526
v -0.09142857 0.46947712 -0.55619724
v -0.09137803 0.46936806 -0.55032039
v -0.12475698 0.44866157 -0.55616529
v -0.12458840 0.44852379 -0.55030346
v -0.12457375 0.44858615 -0.55638304
v -0.12443347 0.44861636 -0.55032863
vt 1.887959 0.1804227
vt 1.357599 0.2067761
vt 1.621626 0.1703992
vt 2.148504 0.2365421
vt 1.1039 0.2884482
vt 2.395347 0.3370521
vt 0.8682381 0.4129338
vt 2.620986 0.478899
vt 0.6577726 0.5764506
vt 2.818565 0.6577726
vt 0.478899 0.7740301
vt 1.653378 0.8093963
vt 1.808267 0.8152256
vt 2.982082 0.8682381
vt 1.959791 0.8478626
vt 2.103346 0.9063156
vt 3.106568 1.1039
vt 2.234569 0.9888086
vt 2.349475 1.092835
vt 2.44457 1.215234
vt 3.18824 1.357599
vt 2.516966 1.352287
vt 2.564464 1.499829
vt 3.224617 1.621626
vt 2.58562 1.653378
vt 3.214593 1.887959
vt 2.57979 1.808267
vt 2.547153 1.959791
vt 3.158474 2.148504
vt 2.4887 2.103346
vt 2.406207 2.234569
vt 3.057964 2.395347
vt 2.302181 2.349475
vt 2.179782 2.44457
vt 2.916117 2.620986
vt 2.042729 2.516966
vt 1.895187 2.564464
vt 1.741638 2.58562
vt 1.499829 0.8305518
vt 0.3370521 0.999669
vt 1.352287 0.8780493
vt 1.215234 0.9504457
vt 1.092835 1.045541
vt 0.2365421 1.246511
vt 0.9888086 1.160446
vt 0.9063156 1.29167
vt 0.1804227 1.507057
vt 0.8478626 1.435225
vt 0.8152256 1.586749
vt 0.1703992 1.77339
vt 0.8093963 1.741638
vt 0.8305518 1.895187
vt 0.2067761 2.037416
vt 0.8780493 2.042729
vt 0.2884482 2.291115
vt 0.9504457 2.179782
vt 1.045541 2.302181
vt 0.4129338 2.526778
vt 1.160446 2.406207
vt 1.29167 2.4887
vt 1.435225 2.547153
vt 0.5764506 2.737243
vt 1.586749 2.57979
vt 2.737243 2.818565
vt 0.7740301 2.916117
vt 2.526778 2.982082
vt 0.999669 3.057964
vt 2.291115 3.106568
vt 1.246511 3.158474
vt 2.037416 3.18824
vt 1.507057 3.214593
vt 1.77339 3.224617
vt 0.3824105 -0.4322831
vt 0.4249006 -0.1657621
vt 0.3824105 -0.1657621
vt 0.4249006 -0.4322831
vt 0.3824105 -0.8413603
vt 0.4249006 -0.5748393
vt 0.3824105 -0.5748393
vt 0.4249006 -0.8413603
vt 0.3824105 -0.9624013
vt 0.4249006 -1.228922
vt 0.4249006 -0.9624013
vt 0.3824105 -1.228922
vt 0.3824105 -1.583193
vt 0.4249006 -1.316672
vt 0.3824105 -1.316672
vt 0.4249006 -1.583193
vt -0.3824105 1.893408
vt -0.4249006 1.626887
vt -0.3824105 1.626887
vt -0.4249006 1.893408
vt -0.3824105 2.150143
vt -0.4249006 1.883622
vt -0.3824105 1.883622
vt -0.4249006 2.150143
vt -0.3824105 2.345595
vt -0.4249006 2.079074
vt -0.3824105 2.079074
vt -0.4249006 2.345595
vt -0.3824105 2.473826
vt -0.4249006 2.207305
vt -0.3824105 2.207305
vt -0.4249006 2.473826
vt -0.3824105 2.530941
vt -0.4249006 2.26442
vt -0.3824105 2.26442
vt -0.4249006 2.530941
vt -0.3824105 2.248682
vt -0.4249006 2.515203
vt -0.4249006 2.248682
vt -0.3824105 2.515203
vt -0.4249006 2.160571
vt -0.3824105 2.427092
vt -0.4249006 2.427092
vt -0.3824105 2.160571
vt -0.3824105 2.002762
vt -0.4249006 2.269283
vt -0.4249006 2.002762
vt -0.3824105 2.269283
vt -0.3824105 1.780051
vt -0.4249006 2.046572
vt -0.4249006 1.780051
vt -0.3824105 2.046572
vt -0.4249006 1.499206
vt -0.3824105 1.765727
vt -0.4249006 1.765727
vt -0.3824105 1.499206
vt -0.4249006 1.168758
vt -0.3824105 1.435279
vt -0.4249006 1.435279
vt -0.3824105 1.168758
vt -0.4249006 0.7987497
vt -0.3824105 1.065271
vt -0.4249006 1.065271
vt -0.3824105 0.7987497
vt -0.3824105 0.4004226
vt -0.4249006 0.6669436
vt -0.4249006 0.4004226
vt -0.3824105 0.6669436
vt -0.4249006 -0.01412026
vt -0.3824105 0.2524007
vt -0.4249006 0.2524007
vt -0.3824105 -0.01412026
vt -0.4249006 -0.4322831
vt -0.3824105 -0.1657621
vt -0.4249006 -0.1657621
vt -0.3824105 -0.4322831
vt -0.4249006 -0.5748393
vt -0.3824105 -0.8413603
vt -0.3824105 -0.5748393
vt -0.4249006 -0.8413603
vt -0.4249006 -1.228922
vt -0.3824105 -0.9624013
vt -0.4249006 -0.9624013
vt -0.3824105 -1.228922
vt -0.4249006 -1.316672
vt -0.3824105 -1.583193
vt -0.3824105 -1.316672
vt -0.4249006 -1.583193
vt 0.4249006 1.893408
vt 0.3824105 1.626887
vt 0.4249006 1.626887
vt 0.3824105 1.893408
vt 0.4249006 1.883622
vt 0.3824105 2.150143
vt 0.3824105 1.883622
vt 0.4249006 2.150143
vt 0.4249006 2.079074
vt 0.3824105 2.345595
vt 0.3824105 2.079074
vt 0.4249006 2.345595
vt 0.4249006 2.207305
vt 0.3824105 2.473826
vt 0.3824105 2.207305
vt 0.4249006 2.473826
vt 0.4249006 2.530941
vt 0.3824105 2.26442
vt 0.4249006 2.26442
vt 0.3824105 2.530941
vt 0.4249006 2.515203
vt 0.3824105 2.248682
vt 0.4249006 2.248682
vt 0.3824105 2.515203
vt 0.3824105 2.427092
vt 0.4249006 2.160571
vt 0.4249006 2.427092
vt 0.3824105 2.160571
vt 0.3824105 2.269283
vt 0.4249006 2.002762
vt 0.4249006 2.269283
vt 0.3824105 2.002762
vt 0.3824105 2.046572
vt 0.4249006 1.780051
vt 0.4249006 2.046572
vt 0.3824105 1.780051
vt 0.3824105 1.765727
vt 0.4249006 1.499206
vt 0.4249006 1.765727
vt 0.3824105 1.499206
vt 0.4249006 1.435279
vt 0.3824105 1.168758
vt 0.4249006 1.168758
vt 0.3824105 1.435279
vt 0.3824105 1.065271
vt 0.4249006 0.7987497
vt 0.4249006 1.065271
vt 0.3824105 0.7987497
vt 0.3824105 0.6669436
vt 0.4249006 0.4004226
vt 0.4249006 0.6669436
vt 0.3824105 0.4004226
vt 0.3824105 0.2524007
vt 0.4249006 -0.01412026
vt 0.4249006 0.2524007
vt 0.3824105 -0.01412026
vn 0 3.597456311981438e-8 1
vn 0 -3.597456311981438e-8 -1
vn 0.7331998833071471 -0.680013184518054 2.4463174949233208e-8
vn 0.8401439551076445 -0.5423634710192823 1.9511286310058297e-8
vn -0.7331998833071471 0.680013184518054 -2.4463174949233208e-8
vn -0.8401439551076445 0.5423634710192823 -1.9511286310058297e-8
vn 0.9215607020822759 -0.38823430087721855 1.3966556497053442e-8
vn -0.9215607020822759 0.38823430087721855 -1.3966556497053442e-8
vn 0.9749763057917834 -0.22230880132061026 7.997458973998459e-9
vn -0.9749763057917834 0.22230880132061026 -7.997458973998459e-9
vn 0.998767743680627 -0.04962856217048081 1.7853627371799326e-9
vn -0.998767743680627 0.04962856217048081 -1.7853627371799326e-9
vn 0.9922121271178672 0.12455960340430337 -4.480980399633417e-9
vn -0.9922121271178672 -0.12455960340430337 4.480980399633417e-9
vn 0.9555086405921243 0.29496311253068674 -1.0611172080427276e-8
vn -0.9555086405921243 -0.29496311253068674 1.0611172080427276e-8
vn 0.8897725058659407 0.45640430300890467 -1.6418948173050343e-8
vn -0.8897725058659407 -0.45640430300890467 1.6418948173050343e-8
vn 0.7970011253868572 0.6039778192384906 -2.1727840659038415e-8
vn -0.7970011253868572 -0.6039778192384906 2.1727840659038415e-8
vn 0.6800131845180549 0.7331998833071465 -2.637654759563363e-8
vn -0.6800131845180549 -0.7331998833071465 2.637654759563363e-8
vn 0.542363471019283 0.8401439551076435 -3.022381342895779e-8
vn -0.542363471019283 -0.8401439551076435 3.022381342895779e-8
vn 0.38823430087721905 0.9215607020822751 -3.315274485281923e-8
vn -0.38823430087721905 -0.9215607020822751 3.315274485281923e-8
vn 0.22230880132061062 0.974976305791783 -3.507434734418774e-8
vn -0.22230880132061062 -0.974976305791783 3.507434734418774e-8
vn 0.049628562170480894 0.9987677436806265 -3.5930233391368446e-8
vn -0.049628562170480894 -0.9987677436806265 3.5930233391368446e-8
vn -0.12455960340430355 0.9922121271178665 -3.569439740799134e-8
vn 0.12455960340430355 -0.9922121271178665 3.569439740799134e-8
vn -0.29496311253068713 0.9555086405921235 -3.4374004985469446e-8
vn 0.29496311253068713 -0.9555086405921235 3.4374004985469446e-8
vn -0.4564043030089053 0.8897725058659401 -3.200917575558929e-8
vn 0.4564043030089053 -0.8897725058659401 3.200917575558929e-8
vn -0.6039778192384913 0.7970011253868564 -2.867176541402629e-8
vn 0.6039778192384913 -0.7970011253868564 2.867176541402629e-8
vn -0.9215607020822759 0.38823430087721855 -1.3966556497053443e-8
vn 0.9215607020822759 -0.38823430087721855 1.3966556497053443e-8
vn -0.9749763057917834 0.22230880132061026 -7.997458973998462e-9
vn 0.9749763057917834 -0.22230880132061026 7.997458973998462e-9
vn -0.998767743680627 0.04962856217048081 -1.7853627371799324e-9
vn 0.998767743680627 -0.04962856217048081 1.7853627371799324e-9
vn -0.9922121271178672 -0.12455960340430337 4.480980399633416e-9
vn 0.9922121271178672 0.12455960340430337 -4.480980399633416e-9
vn -0.9555086405921243 -0.29496311253068674 1.0611172080427274e-8
vn 0.9555086405921243 0.29496311253068674 -1.0611172080427274e-8
vn -0.7970011253868572 -0.6039778192384906 2.1727840659038418e-8
vn 0.7970011253868572 0.6039778192384906 -2.1727840659038418e-8
vn -0.542363471019283 -0.8401439551076435 3.022381342895778e-8
vn 0.542363471019283 0.8401439551076435 -3.022381342895778e-8
vn -0.38823430087721905 -0.9215607020822751 3.3152744852819225e-8
vn 0.38823430087721905 0.9215607020822751 -3.3152744852819225e-8
vn -0.22230880132061062 -0.974976305791783 3.507434734418773e-8
vn 0.22230880132061062 0.974976305791783 -3.507434734418773e-8
vn 0.6039778192384913 -0.7970011253868564 2.8671765414026288e-8
vn -0.6039778192384913 0.7970011253868564 -2.8671765414026288e-8
usemtl material_0_0
f 1/1/1 2/2/1 3/3/1
f 2/2/1 1/1/1 4/4/1
f 2/2/1 4/4/1 5/5/1
f 5/5/1 4/4/1 6/6/1
f 5/5/1 6/6/1 7/7/1
f 7/7/1 6/6/1 8/8/1
f 7/7/1 8/8/1 9/9/1
f 9/9/1 8/8/1 10/10/1
f 9/9/1 10/10/1 11/11/1
f 11/11/1 10/10/1 12/12/1
f 12/12/1 10/10/1 13/13/1
f 13/13/1 10/10/1 14/14/1
f 13/13/1 14/14/1 15/15/1
f 15/15/1 14/14/1 16/16/1
f 16/16/1 14/14/1 17/17/1
f 16/16/1 17/17/1 18/18/1
f 18/18/1 17/17/1 19/19/1
f 19/19/1 17/17/1 20/20/1
f 20/20/1 17/17/1 21/21/1
f 20/20/1 21/21/1 22/22/1
f 22/22/1 21/21/1 23/23/1
f 23/23/1 21/21/1 24/24/1
f 23/23/1 24/24/1 25/25/1
f 25/25/1 24/24/1 26/26/1
f 25/25/1 26/26/1 27/27/1
f 27/27/1 26/26/1 28/28/1
f 28/28/1 26/26/1 29/29/1
f 28/28/1 29/29/1 30/30/1
f 30/30/1 29/29/1 31/31/1
f 31/31/1 29/29/1 32/32/1
f 31/31/1 32/32/1 33/33/1
f 33/33/1 32/32/1 34/34/1
f 34/34/1 32/32/1 35/35/1
f 34/34/1 35/35/1 36/36/1
f 36/36/1 35/35/1 37/37/1
f 37/37/1 35/35/1 38/38/1
f 11/11/1 39/39/1 40/40/1
f 39/39/1 11/11/1 12/12/1
f 40/40/1 39/39/1 41/41/1
f 40/40/1 41/41/1 42/42/1
f 40/40/1 42/42/1 43/43/1
f 40/40/1 43/43/1 44/44/1
f 44/44/1 43/43/1 45/45/1
f 44/44/1 45/45/1 46/46/1
f 44/44/1 46/46/1 47/47/1
f 47/47/1 46/46/1 48/48/1
f 47/47/1 48/48/1 49/49/1
f 47/47/1 49/49/1 50/50/1
f 50/50/1 49/49/1 51/51/1
f 50/50/1 51/51/1 52/52/1
f 50/50/1 52/52/1 53/53/1
f 53/53/1 52/52/1 54/54/1
f 53/53/1 54/54/1 55/55/1
f 55/55/1 54/54/1 56/56/1
f 55/55/1 56/56/1 57/57/1
f 55/55/1 57/57/1 58/58/1
f 58/58/1 57/57/1 59/59/1
f 58/58/1 59/59/1 60/60/1
f 58/58/1 60/60/1 61/61/1
f 58/58/1 61/61/1 62/62/1
f 62/62/1 61/61/1 63/63/1
f 62/62/1 63/63/1 38/38/1
f 62/62/1 38/38/1 35/35/1
f 62/62/1 35/35/1 64/64/1
f 62/62/1 64/64/1 65/65/1
f 65/65/1 64/64/1 66/66/1
f 65/65/1 66/66/1 67/67/1
f 67/67/1 66/66/1 68/68/1
f 67/67/1 68/68/1 69/69/1
f 69/69/1 68/68/1 70/70/1
f 69/69/1 70/70/1 71/71/1
f 71/71/1 70/70/1 72/72/1
f 73/72/2 74/70/2 75/71/2
f 75/71/2 74/70/2 76/69/2
f 74/70/2 77/68/2 76/69/2
f 76/69/2 77/68/2 78/67/2
f 77/68/2 79/66/2 78/67/2
f 78/67/2 79/66/2 80/65/2
f 79/66/2 81/64/2 80/65/2
f 80/65/2 81/64/2 82/62/2
f 81/64/2 83/35/2 82/62/2
f 83/35/2 84/38/2 82/62/2
f 84/38/2 85/63/2 82/62/2
f 85/63/2 86/61/2 82/62/2
f 82/62/2 86/61/2 87/58/2
f 86/61/2 88/60/2 87/58/2
f 88/60/2 89/59/2 87/58/2
f 89/59/2 90/57/2 87/58/2
f 87/58/2 90/57/2 91/55/2
f 90/57/2 92/56/2 91/55/2
f 92/56/2 93/54/2 91/55/2
f 91/55/2 93/54/2 94/53/2
f 93/54/2 95/52/2 94/53/2
f 94/53/2 95/52/2 96/50/2
f 95/52/2 97/51/2 96/50/2
f 97/51/2 98/49/2 96/50/2
f 96/50/2 98/49/2 99/47/2
f 98/49/2 100/48/2 99/47/2
f 100/48/2 101/46/2 99/47/2
f 99/47/2 101/46/2 102/44/2
f 101/46/2 103/45/2 102/44/2
f 103/45/2 104/43/2 102/44/2
f 102/44/2 104/43/2 105/40/2
f 104/43/2 106/42/2 105/40/2
f 106/42/2 107/41/2 105/40/2
f 107/41/2 108/39/2 105/40/2
f 109/12/2 110/11/2 108/39/2
f 105/40/2 108/39/2 110/11/2
f 84/38/2 83/35/2 111/37/2
f 111/37/2 83/35/2 112/36/2
f 112/36/2 83/35/2 113/34/2
f 83/35/2 114/32/2 113/34/2
f 113/34/2 114/32/2 115/33/2
f 115/33/2 114/32/2 116/31/2
f 114/32/2 117/29/2 116/31/2
f 116/31/2 117/29/2 118/30/2
f 118/30/2 117/29/2 119/28/2
f 117/29/2 120/26/2 119/28/2
f 119/28/2 120/26/2 121/27/2
f 121/27/2 120/26/2 122/25/2
f 120/26/2 123/24/2 122/25/2
f 122/25/2 123/24/2 124/23/2
f 123/24/2 125/21/2 124/23/2
f 124/23/2 125/21/2 126/22/2
f 126/22/2 125/21/2 127/20/2
f 125/21/2 128/17/2 127/20/2
f 127/20/2 128/17/2 129/19/2
f 129/19/2 128/17/2 130/18/2
f 130/18/2 128/17/2 131/16/2
f 128/17/2 132/14/2 131/16/2
f 131/16/2 132/14/2 133/15/2
f 133/15/2 132/14/2 134/13/2
f 132/14/2 135/10/2 134/13/2
f 134/13/2 135/10/2 109/12/2
f 109/12/2 135/10/2 110/11/2
f 110/11/2 135/10/2 136/9/2
f 135/10/2 137/8/2 136/9/2
f 136/9/2 137/8/2 138/7/2
f 137/8/2 139/6/2 138/7/2
f 138/7/2 139/6/2 140/5/2
f 139/6/2 141/4/2 140/5/2
f 140/5/2 141/4/2 142/2/2
f 141/4/2 143/1/2 142/2/2
f 144/3/2 142/2/2 143/1/2
f 145/73/3 146/74/4 147/75/4
f 146/74/4 145/73/3 148/76/3
f 149/76/5 150/73/5 151/74/6
f 152/75/6 151/74/6 150/73/5
f 147/77/4 153/78/7 154/79/7
f 153/78/7 147/77/4 146/80/4
f 151/80/6 152/77/6 155/78/8
f 156/79/8 155/78/8 152/77/6
f 157/81/9 153/82/7 158/83/9
f 153/82/7 157/81/9 154/84/7
f 156/84/8 159/81/10 155/82/8
f 160/83/10 155/82/8 159/81/10
f 157/85/9 161/86/11 162/87/11
f 161/86/11 157/85/9 158/88/9
f 160/88/10 159/85/10 163/86/12
f 164/87/12 163/86/12 159/85/10
f 162/89/11 165/90/13 166/91/13
f 165/90/13 162/89/11 161/92/11
f 163/92/12 164/89/12 167/90/14
f 168/91/14 167/90/14 164/89/12
f 166/93/13 169/94/15 170/95/15
f 169/94/15 166/93/13 165/96/13
f 167/96/14 168/93/14 171/94/16
f 172/95/16 171/94/16 168/93/14
f 170/97/15 173/98/17 174/99/17
f 173/98/17 170/97/15 169/100/15
f 171/100/16 172/97/16 175/98/18
f 176/99/18 175/98/18 172/97/16
f 174/101/17 177/102/19 178/103/19
f 177/102/19 174/101/17 173/104/17
f 175/104/18 176/101/18 179/102/20
f 180/103/20 179/102/20 176/101/18
f 178/105/19 181/106/21 182/107/21
f 181/106/21 178/105/19 177/108/19
f 179/108/20 180/105/20 183/106/22
f 184/107/22 183/106/22 180/105/20
f 185/109/23 181/110/21 186/111/23
f 181/110/21 185/109/23 182/112/21
f 184/112/22 187/109/24 183/110/22
f 188/111/24 183/110/22 187/109/24
f 189/113/25 185/114/23 186/115/23
f 185/114/23 189/113/25 190/116/25
f 191/116/26 192/113/26 187/114/24
f 188/115/24 187/114/24 192/113/26
f 193/117/27 189/118/25 194/119/27
f 189/118/25 193/117/27 190/120/25
f 191/120/26 195/117/28 192/118/26
f 196/119/28 192/118/26 195/117/28
f 197/121/29 194/122/27 198/123/29
f 194/122/27 197/121/29 193/124/27
f 195/124/28 199/121/30 196/122/28
f 200/123/30 196/122/28 199/121/30
f 201/125/31 197/126/29 198/127/29
f 197/126/29 201/125/31 202/128/31
f 203/128/32 204/125/32 199/126/30
f 200/127/30 199/126/30 204/125/32
f 205/129/33 202/130/31 201/131/31
f 202/130/31 205/129/33 206/132/33
f 207/132/34 208/129/34 203/130/32
f 204/131/32 203/130/32 208/129/34
f 209/133/35 206/134/33 205/135/33
f 206/134/33 209/133/35 210/136/35
f 211/136/36 212/133/36 207/134/34
f 208/135/34 207/134/34 212/133/36
f 213/137/37 209/138/35 214/139/37
f 209/138/35 213/137/37 210/140/35
f 211/140/36 215/137/38 212/138/36
f 216/139/38 212/138/36 215/137/38
f 217/141/5 213/142/37 214/143/37
f 213/142/37 217/141/5 218/144/5
f 219/144/3 220/141/3 215/142/38
f 216/143/38 215/142/38 220/141/3
f 221/145/6 218/146/5 217/147/5
f 218/146/5 221/145/6 222/148/6
f 223/148/4 224/145/4 219/146/3
f 220/147/3 219/146/3 224/145/4
f 221/149/6 225/150/39 222/151/6
f 225/150/39 221/149/6 226/152/39
f 227/152/40 224/149/4 228/150/40
f 223/151/4 228/150/40 224/149/4
f 229/153/41 225/154/39 226/155/39
f 225/154/39 229/153/41 230/156/41
f 231/156/42 232/153/42 228/154/40
f 227/155/40 228/154/40 232/153/42
f 229/157/41 233/158/43 230/159/41
f 233/158/43 229/157/41 234/160/43
f 235/160/44 232/157/42 236/158/44
f 231/159/42 236/158/44 232/157/42
f 237/161/45 233/162/43 234/163/43
f 233/162/43 237/161/45 238/164/45
f 239/164/46 240/161/46 236/162/44
f 235/163/44 236/162/44 240/161/46
f 237/165/45 241/166/47 238/167/45
f 241/166/47 237/165/45 242/168/47
f 243/168/48 240/165/46 244/166/48
f 239/167/46 244/166/48 240/165/46
f 242/169/47 245/170/18 241/171/47
f 245/170/18 242/169/47 246/172/18
f 247/172/17 243/169/48 248/170/17
f 244/171/48 248/170/17 243/169/48
f 246/173/18 249/174/49 245/175/18
f 249/174/49 246/173/18 250/176/49
f 251/176/50 247/173/17 252/174/50
f 248/175/17 252/174/50 247/173/17
f 253/177/22 249/178/49 250/179/49
f 249/178/49 253/177/22 254/180/22
f 255/180/21 256/177/21 252/178/50
f 251/179/50 252/178/50 256/177/21
f 257/181/51 254/182/22 253/183/22
f 254/182/22 257/181/51 258/184/51
f 259/184/52 260/181/52 255/182/21
f 256/183/21 255/182/21 260/181/52
f 261/185/53 257/186/51 262/187/53
f 257/186/51 261/185/53 258/188/51
f 259/188/52 263/185/54 260/186/52
f 264/187/54 260/186/52 263/185/54
f 265/189/55 262/190/53 266/191/55
f 262/190/53 265/189/55 261/192/53
f 263/192/54 267/189/56 264/190/54
f 268/191/56 264/190/54 267/189/56
f 269/193/30 266/194/55 270/195/30
f 266/194/55 269/193/30 265/196/55
f 267/196/56 271/193/29 268/194/56
f 272/195/29 268/194/56 271/193/29
f 273/197/32 270/198/30 274/199/32
f 270/198/30 273/197/32 269/200/30
f 271/200/29 275/197/31 272/198/29
f 276/199/31 272/198/29 275/197/31
f 277/201/34 273/202/32 274/203/32
f 273/202/32 277/201/34 278/204/34
f 279/204/33 280/201/33 275/202/31
f 276/203/31 275/202/31 280/201/33
f 281/205/36 277/206/34 282/207/36
f 277/206/34 281/205/36 278/208/34
f 279/208/33 283/205/35 280/206/33
f 284/207/35 280/206/33 283/205/35
f 285/209/57 282/210/36 286/211/57
f 282/210/36 285/209/57 281/212/36
f 283/212/35 287/209/58 284/210/35
f 288/211/58 284/210/35 287/209/58
f 145/213/3 286/214/57 148/215/3
f 286/214/57 145/213/3 285/216/57
f 287/216/58 150/213/5 288/214/58
f 149/215/5 288/214/58 150/213/5
