# SSTK version 0.8.0
# 81
mtllib original_81.mtl
o #ID232
v 0.06926421 0.62408822 -0.15168385
v 0.07205737 0.61823616 -0.15104428
v 0.06911248 0.61816078 -0.15163408
v 0.07190359 0.62411513 -0.15088237
v 0.07205259 0.62401152 -0.15090199
v 0.06912680 0.62395300 -0.15171846
v 0.07209602 0.61814089 -0.15071327
v 0.06925064 0.61807575 -0.15163231
v 0.06660216 0.62393723 -0.15291707
v 0.06928691 0.61817373 -0.15165493
v 0.06671706 0.61810776 -0.15291944
v 0.06924591 0.62398276 -0.15176639
v 0.06934718 0.62406755 -0.15149842
v 0.06657096 0.62387231 -0.15286423
v 0.06911708 0.61810711 -0.15177814
v 0.06679091 0.61807887 -0.15282394
v 0.07194515 0.62384645 -0.15087568
v 0.07480604 0.61803558 -0.15074783
v 0.07195781 0.61824795 -0.15099376
v 0.07461527 0.62406476 -0.15057241
v 0.07462865 0.62402424 -0.15074567
v 0.07206621 0.62382905 -0.15097103
v 0.07473039 0.61811402 -0.15078627
v 0.07203778 0.61807520 -0.15101637
v 0.06449669 0.62384209 -0.15442365
v 0.06662740 0.61803286 -0.15296339
v 0.06432554 0.61825825 -0.15450126
v 0.06665058 0.62393518 -0.15283829
v 0.06674206 0.62387406 -0.15276949
v 0.06446498 0.62402734 -0.15456331
v 0.06675683 0.61813306 -0.15277256
v 0.06452370 0.61811154 -0.15462019
v 0.07463083 0.62410283 -0.15060864
v 0.07746111 0.61820000 -0.15099007
v 0.07463738 0.61818182 -0.15059332
v 0.07748248 0.62391952 -0.15110318
v 0.07750835 0.62403860 -0.15117679
v 0.07471538 0.62400903 -0.15080323
v 0.07733020 0.61807041 -0.15130005
v 0.07476936 0.61816688 -0.15059928
v 0.06266315 0.62408002 -0.15659315
v 0.06430432 0.61817834 -0.15447822
v 0.06275980 0.61806522 -0.15648379
v 0.06453205 0.62404871 -0.15433760
v 0.06446030 0.62394688 -0.15444928
v 0.06261523 0.62379004 -0.15653144
v 0.06431442 0.61819340 -0.15450291
v 0.06268306 0.61806470 -0.15660582
v 0.07751747 0.62402533 -0.15112754
v 0.08013756 0.61805223 -0.15205577
v 0.07753206 0.61815132 -0.15097953
v 0.08001278 0.62386308 -0.15193292
v 0.07999060 0.62389757 -0.15205030
v 0.07745425 0.62392769 -0.15109931
v 0.08004838 0.61803335 -0.15196757
v 0.07726182 0.61815747 -0.15113123
v 0.06129138 0.62390428 -0.15894165
v 0.06257303 0.61804123 -0.15647457
v 0.06114885 0.61810060 -0.15907582
v 0.06265422 0.62413542 -0.15657086
v 0.06275084 0.62403032 -0.15661841
v 0.06134823 0.62393760 -0.15909825
v 0.06263735 0.61819080 -0.15651652
v 0.06130422 0.61803414 -0.15890965
v 0.08016912 0.61806238 -0.15211036
v 0.08244716 0.62394624 -0.15357138
v 0.08251567 0.61814984 -0.15356942
v 0.07997941 0.62405262 -0.15212260
v 0.08009786 0.62394953 -0.15212679
v 0.07999957 0.61825095 -0.15199863
v 0.08259288 0.62396802 -0.15356216
v 0.08242226 0.61819402 -0.15360401
v 0.06128615 0.62386446 -0.15893234
v 0.06022755 0.61803117 -0.16176478
v 0.06029870 0.62402129 -0.16174641
v 0.06125175 0.61828514 -0.15908455
v 0.06129391 0.61813656 -0.15897494
v 0.06117664 0.62400645 -0.15896565
v 0.06052080 0.61805342 -0.16175327
v 0.06044353 0.62398485 -0.16182051
v 0.08241719 0.61806399 -0.15353968
v 0.08453035 0.62400722 -0.15543339
v 0.08446668 0.61818427 -0.15552748
v 0.08260324 0.62407572 -0.15358089
v 0.08238451 0.62390863 -0.15353017
v 0.08243866 0.61814199 -0.15346269
v 0.08443735 0.62389947 -0.15557021
v 0.08438365 0.61811368 -0.15555622
v 0.06030266 0.62393224 -0.16182841
v 0.06007838 0.61821419 -0.16459210
v 0.05987447 0.62404040 -0.16444961
v 0.06025919 0.61806353 -0.16168434
v 0.06023287 0.61821327 -0.16156193
v 0.06040123 0.62394059 -0.16159922
v 0.06000410 0.61816475 -0.16462424
v 0.06003299 0.62395575 -0.16436716
v 0.08454371 0.61821592 -0.15543405
v 0.08615845 0.62408277 -0.15781399
v 0.08625846 0.61815562 -0.15774472
v 0.08448475 0.62403138 -0.15561510
v 0.08448454 0.62392181 -0.15539164
v 0.08438177 0.61816689 -0.15536734
v 0.08612440 0.62381493 -0.15778194
v 0.08610558 0.61828854 -0.15777444
v 0.06015511 0.62390472 -0.16448922
v 0.06029953 0.61805241 -0.16723377
v 0.06016886 0.62390199 -0.16730078
v 0.05992089 0.61806596 -0.16439789
v 0.06000203 0.61805976 -0.16444680
v 0.06004567 0.62400815 -0.16446786
v 0.06003320 0.61823697 -0.16727107
v 0.06024934 0.62401934 -0.16732910
v 0.08612916 0.61821171 -0.15782233
v 0.08751107 0.62404661 -0.16065551
v 0.08745372 0.61799068 -0.16053630
v 0.08617740 0.62391556 -0.15782670
v 0.08601632 0.62401543 -0.15780802
v 0.08600806 0.61799286 -0.15788358
v 0.08756171 0.62393828 -0.16068976
v 0.08742017 0.61815174 -0.16045798
v 0.06025544 0.62385296 -0.16714479
v 0.06102762 0.61810070 -0.17005805
v 0.06107401 0.62389932 -0.17018049
v 0.06010668 0.61803849 -0.16731339
v 0.06002591 0.61815879 -0.16729508
v 0.06025226 0.62409296 -0.16715481
v 0.06086841 0.61806337 -0.17028563
v 0.06114865 0.62382414 -0.17020187
v 0.08754638 0.61798678 -0.16048961
v 0.08824595 0.62387917 -0.16375925
v 0.08838104 0.61809192 -0.16392547
v 0.08731043 0.62386256 -0.16070980
v 0.08741451 0.62400575 -0.16050058
v 0.08745017 0.61812962 -0.16054011
v 0.08827615 0.62406832 -0.16393415
v 0.08831461 0.61801913 -0.16390203
v 0.06109482 0.62401667 -0.17021222
v 0.06224827 0.61800385 -0.17283597
v 0.06239779 0.62401811 -0.17289127
v 0.06108758 0.61820112 -0.17021519
v 0.06101761 0.61824598 -0.17006255
v 0.06093949 0.62402515 -0.17018724
v 0.06226247 0.61812421 -0.17267960
v 0.06212647 0.62398994 -0.17269998
v 0.08831833 0.61818852 -0.16387319
v 0.08831249 0.62415495 -0.16695494
v 0.08846370 0.61823778 -0.16685091
v 0.08838846 0.62399618 -0.16388821
v 0.08833726 0.62395675 -0.16384999
v 0.08824206 0.61812581 -0.16388092
v 0.08843253 0.62397126 -0.16699362
v 0.08843608 0.61804690 -0.16682724
v 0.06232889 0.62409361 -0.17275176
v 0.06387902 0.61813313 -0.17516816
v 0.06386797 0.62396893 -0.17514266
v 0.06220682 0.61807607 -0.17276724
v 0.06208630 0.61805875 -0.17296406
v 0.06224289 0.62408301 -0.17288630
v 0.06380385 0.61804372 -0.17492212
v 0.06373801 0.62388946 -0.17514229
v 0.08846623 0.61825737 -0.16701264
v 0.08791699 0.62399055 -0.17012573
v 0.08770902 0.61825022 -0.17014390
v 0.08837205 0.62395589 -0.16701533
v 0.08833178 0.62396814 -0.16698181
v 0.08831165 0.61806550 -0.16706059
v 0.08793968 0.62381836 -0.16997846
v 0.08776385 0.61807490 -0.17003108
v 0.06392663 0.62389047 -0.17516725
v 0.06585775 0.61817043 -0.17702446
v 0.06578170 0.62400137 -0.17708839
v 0.06390204 0.61801159 -0.17517756
v 0.06394762 0.61814235 -0.17497465
v 0.06386535 0.62396702 -0.17509926
v 0.06597271 0.61811241 -0.17705940
v 0.06594952 0.62406011 -0.17702729
v 0.08771715 0.61815915 -0.16999634
v 0.08653050 0.62408745 -0.17282779
v 0.08633238 0.61827116 -0.17282813
v 0.08782249 0.62403718 -0.16992574
v 0.08773560 0.62410589 -0.17005296
v 0.08771887 0.61824534 -0.17002544
v 0.08650673 0.62391396 -0.17282179
v 0.08647885 0.61816465 -0.17300455
v 0.06577055 0.62406249 -0.17701627
v 0.06831160 0.61796843 -0.17831229
v 0.06821490 0.62396558 -0.17837677
v 0.06594141 0.61817269 -0.17699602
v 0.06592353 0.61795695 -0.17704101
v 0.06594861 0.62400796 -0.17698946
v 0.06821616 0.61808786 -0.17840439
v 0.06837555 0.62408962 -0.17844025
v 0.08645926 0.62403506 -0.17286979
v 0.08514289 0.61819975 -0.17492841
v 0.08635152 0.61809884 -0.17282451
v 0.08513326 0.62398047 -0.17507213
v 0.08500302 0.62408651 -0.17493617
v 0.08645548 0.62390632 -0.17286339
v 0.08513512 0.61820314 -0.17493215
v 0.08656224 0.61806980 -0.17282613
v 0.07094309 0.62408619 -0.17933304
v 0.06824768 0.61821886 -0.17839855
v 0.07090264 0.61802922 -0.17939187
v 0.06834683 0.62404441 -0.17851055
v 0.06834898 0.62406241 -0.17842625
v 0.07091581 0.62405604 -0.17957429
v 0.06833100 0.61800939 -0.17833225
v 0.07093525 0.61821345 -0.17944478
v 0.08502945 0.62398552 -0.17475231
v 0.08329165 0.61795788 -0.17663416
v 0.08506502 0.61798318 -0.17475885
v 0.08320524 0.62409797 -0.17656572
v 0.08330283 0.62407789 -0.17654124
v 0.08491503 0.62399096 -0.17483888
v 0.08322786 0.61805515 -0.17672974
v 0.08494072 0.61816324 -0.17486134
v 0.07367793 0.62387724 -0.17998087
v 0.07089479 0.61818703 -0.17933505
v 0.07377031 0.61823143 -0.17978030
v 0.07101480 0.62395716 -0.17946303
v 0.07108776 0.62407728 -0.17943772
v 0.07371766 0.62401455 -0.17987357
v 0.07094735 0.61809270 -0.17932248
v 0.07376282 0.61820953 -0.17993387
v 0.08335221 0.62404906 -0.17665045
v 0.08133241 0.61818483 -0.17797644
v 0.08334223 0.61814560 -0.17661567
v 0.08144333 0.62408675 -0.17794011
v 0.08124688 0.62411851 -0.17781875
v 0.08341393 0.62392687 -0.17666225
v 0.08134655 0.61821991 -0.17804264
v 0.08343353 0.61819725 -0.17667101
v 0.07645714 0.62402443 -0.17974236
v 0.07367379 0.61809911 -0.17986654
v 0.07627470 0.61820123 -0.17971980
v 0.07361441 0.62388847 -0.17985793
v 0.07356510 0.62401954 -0.18000840
v 0.07634167 0.62388668 -0.17971764
v 0.07355519 0.61808080 -0.17970297
v 0.07638384 0.61812542 -0.17968803
v 0.08127967 0.62401355 -0.17797568
v 0.07887121 0.61823736 -0.17899125
v 0.08133469 0.61798401 -0.17791241
v 0.07899785 0.62397189 -0.17883606
v 0.07916816 0.62411411 -0.17907539
v 0.08138406 0.62388028 -0.17779964
v 0.07909737 0.61808965 -0.17903590
v 0.08130573 0.61811652 -0.17794983
v 0.07892970 0.62403425 -0.17900548
v 0.07642977 0.61811596 -0.17983256
v 0.07901450 0.61810244 -0.17892080
v 0.07631488 0.62401010 -0.17960161
v 0.07640937 0.62398194 -0.17977155
v 0.07890952 0.62405743 -0.17896311
v 0.07626893 0.61823738 -0.17978624
v 0.07910410 0.61816178 -0.17898504
vt 0.130852 0.04249006
vt 0.1161467 0
vt 0.130852 0
vt 0.1161467 0.04249006
vt 0.1106303 0.04249006
vt 0.09603449 0
vt 0.1106303 0
vt 0.09603449 0.04249006
vt 0.1489916 0.04249006
vt 0.1349848 0
vt 0.1489916 0
vt 0.1349848 0.04249006
vt 0.08227976 0.04249006
vt 0.06828104 0
vt 0.08227976 0
vt 0.06828104 0.04249006
vt 0.163724 0.04249006
vt 0.1498262 0
vt 0.163724 0
vt 0.1498262 0.04249006
vt 0.04889551 0.04249006
vt 0.03488648 0
vt 0.04889551 0
vt 0.03488648 0.04249006
vt 0.171225 0.04249006
vt 0.1568334 0
vt 0.171225 0
vt 0.1568334 0.04249006
vt 0.01642899 0.04249006
vt 0.001803551 0
vt 0.01642899 0
vt 0.001803551 0.04249006
vt 0.1708906 0
vt 0.1563669 0.04249006
vt 0.1563669 0
vt 0.1708906 0.04249006
vt -0.02729581 0.04249006
vt -0.01257706 0
vt -0.01257706 0.04249006
vt -0.02729581 0
vt 0.1646201 0
vt 0.1502998 0.04249006
vt 0.1502998 0
vt 0.1646201 0.04249006
vt -0.05840426 0.04249006
vt -0.04411995 0
vt -0.04411995 0.04249006
vt -0.05840426 0
vt 0.1519308 0
vt 0.1372054 0.04249006
vt 0.1372054 0
vt 0.1519308 0.04249006
vt -0.08880385 0.04249006
vt -0.0743735 0
vt -0.0743735 0.04249006
vt -0.08880385 0
vt 0.1335086 0
vt 0.1178166 0.04249006
vt 0.1178166 0
vt 0.1335086 0.04249006
vt -0.1134861 0.04249006
vt -0.09834598 0
vt -0.09834598 0.04249006
vt -0.1134861 0
vt 0.1102409 0
vt 0.09289169 0.04249006
vt 0.09289169 0
vt 0.1102409 0.04249006
vt -0.1306653 0.04249006
vt -0.1154749 0
vt -0.1154749 0.04249006
vt -0.1306653 0
vt 0.07952326 0
vt 0.06339154 0.04249006
vt 0.06339154 0
vt 0.07952326 0.04249006
vt -0.1465269 0.04249006
vt -0.1320997 0
vt -0.1320997 0.04249006
vt -0.1465269 0
vt 0.04488832 0
vt 0.02913633 0.04249006
vt 0.02913633 0
vt 0.04488832 0.04249006
vt -0.159768 0.04249006
vt -0.1455425 0
vt -0.1455425 0.04249006
vt -0.159768 0
vt 0.008747454 0
vt -0.007521347 0.04249006
vt -0.007521347 0
vt 0.008747454 0.04249006
vt -0.166754 0.04249006
vt -0.1521453 0
vt -0.1521453 0.04249006
vt -0.166754 0
vt -0.02391327 0.04249006
vt -0.03671006 0
vt -0.02391327 0
vt -0.03671006 0.04249006
vt -0.1517238 0.04249006
vt -0.1662145 0
vt -0.1517238 0
vt -0.1662145 0.04249006
vt -0.05087294 0.04249006
vt -0.06329476 0
vt -0.05087294 0
vt -0.06329476 0.04249006
vt -0.1468598 0.04249006
vt -0.1607206 0
vt -0.1468598 0
vt -0.1607206 0.04249006
vt -0.07610195 0.04249006
vt -0.08853394 0
vt -0.07610195 0
vt -0.08853394 0.04249006
vt -0.1358528 0.04249006
vt -0.1496786 0
vt -0.1358528 0
vt -0.1496786 0.04249006
vt -0.09847428 0.04249006
vt -0.1113007 0
vt -0.09847428 0
vt -0.1113007 0.04249006
vt -0.1182265 0.04249006
vt -0.1326165 0
vt -0.1182265 0
vt -0.1326165 0.04249006
vn 0.2558560168102754 -3.4777146013938656e-8 -0.966714900403412
vn -0.2558560168102754 3.4777146013938656e-8 0.966714900403412
vn 0.4279122798661397 -3.251453873374019e-8 -0.9038202701531768
vn -0.4279122798661397 3.251453873374019e-8 0.9038202701531768
vn 0.06110339301440447 -3.590734284450371e-8 -0.9981314419264258
vn -0.06110339301440447 3.590734284450371e-8 0.9981314419264258
vn 0.6006784099710882 -2.876132911219443e-8 -0.7994907427823067
vn -0.6006784099710882 2.876132911219443e-8 0.7994907427823067
vn -0.147553998769127 -3.5580786373010715e-8 -0.9890540012796264
vn 0.147553998769127 3.5580786373010715e-8 0.9890540012796264
vn 0.7546553549859215 -2.3603679314763354e-8 -0.6561214027838692
vn -0.7546553549859215 2.3603679314763354e-8 0.6561214027838692
vn -0.34445759743988974 -3.377298858740762e-8 -0.9388018766310268
vn 0.34445759743988974 3.377298858740762e-8 0.9388018766310268
vn 0.8707703775573363 -1.7688327193592653e-8 -0.4916898916681668
vn -0.8707703775573363 1.7688327193592653e-8 0.4916898916681668
vn -0.5184945115369599 -3.0761165423695287e-8 -0.855080956112372
vn 0.5184945115369599 3.0761165423695287e-8 0.855080956112372
vn 0.9465790668363618 -1.1600780491890704e-8 -0.3224718130739527
vn -0.9465790668363618 1.1600780491890704e-8 0.3224718130739527
vn -0.6822628339487544 -2.6301256355655073e-8 -0.7311069862969534
vn 0.6822628339487544 2.6301256355655073e-8 0.7311069862969534
vn 0.9915110931920345 -4.677486725455808e-9 -0.13002212149144698
vn -0.9915110931920345 4.677486725455808e-9 0.13002212149144698
vn -0.815607496804171 -2.0815084950876617e-8 -0.5786055747716519
vn 0.815607496804171 2.0815084950876617e-8 0.5786055747716519
vn 0.9974398309963252 2.5725694197794065e-9 0.07151072326597119
vn -0.9974398309963252 -2.5725694197794065e-9 -0.07151072326597119
vn -0.908117143012785 -1.5063134628412933e-8 -0.4187161981178862
vn 0.908117143012785 1.5063134628412933e-8 0.4187161981178862
vn 0.965880946726399 9.316927864853038e-9 0.25898647986123763
vn -0.965880946726399 -9.316927864853038e-9 -0.25898647986123763
vn -0.9677371769643195 -9.064218624132378e-9 -0.2519618152044651
vn 0.9677371769643195 9.064218624132378e-9 0.2519618152044651
vn 0.9067028972928275 1.5172990537118018e-8 0.42176990888491794
vn -0.9067028972928275 -1.5172990537118018e-8 -0.42176990888491794
vn -0.9991997070588188 -1.4389603605508464e-9 -0.03999931766381254
vn 0.9991997070588188 1.4389603605508464e-9 0.03999931766381254
vn 0.8111220061271062 2.104069629658735e-8 0.5848769880721403
vn -0.8111220061271062 -2.104069629658735e-8 -0.5848769880721403
vn -0.9806866306961558 7.036104776155528e-9 0.1955856139234724
vn 0.9806866306961558 -7.036104776155528e-9 -0.1955856139234724
vn 0.6770439667270637 2.6475214375600044e-8 0.7359425705301209
vn -0.6770439667270637 -2.6475214375600044e-8 -0.7359425705301209
vn -0.9082656991882269 1.5051534252097537e-8 0.4183938571228326
vn 0.9082656991882269 -1.5051534252097537e-8 -0.4183938571228326
vn 0.5175411238156205 3.0781936351898915e-8 0.8556583343599615
vn -0.5175411238156205 -3.0781936351898915e-8 -0.8556583343599615
vn -0.8143854568694192 2.0876912550721037e-8 0.5803243296981326
vn 0.8143854568694192 -2.0876912550721037e-8 -0.5803243296981326
vn 0.350127286475659 3.369745118825763e-8 0.9367021315579412
vn -0.350127286475659 -3.369745118825763e-8 -0.9367021315579412
vn -0.7027415010555996 2.5593931679852713e-8 0.7114452773714378
vn 0.7027415010555996 -2.5593931679852713e-8 -0.7114452773714378
vn 0.15658126231067263 3.5530820521876776e-8 0.9876650790086662
vn -0.15658126231067263 -3.5530820521876776e-8 -0.9876650790086662
vn -0.5660604005296812 2.9656125441492893e-8 0.8243637685828846
vn 0.5660604005296812 -2.9656125441492893e-8 -0.8243637685828846
vn -0.053004551424270095 3.5923992927765684e-8 0.9985942707267605
vn 0.053004551424270095 -3.5923992927765684e-8 -0.9985942707267605
vn -0.41674663639236226 3.270169334808189e-8 0.9090226845660406
vn 0.41674663639236226 -3.270169334808189e-8 -0.9090226845660406
vn -0.2526777023085847 3.4807206514097914e-8 0.9675505044988881
vn 0.2526777023085847 -3.4807206514097914e-8 -0.9675505044988881
usemtl material_0_0
f 1/1/1 2/2/1 3/3/1
f 2/2/1 1/1/1 4/4/1
f 5/4/2 6/1/2 7/2/2
f 8/3/2 7/2/2 6/1/2
f 9/5/3 10/6/3 11/7/3
f 10/6/3 9/5/3 12/8/3
f 13/8/4 14/5/4 15/6/4
f 16/7/4 15/6/4 14/5/4
f 17/9/5 18/10/5 19/11/5
f 18/10/5 17/9/5 20/12/5
f 21/12/6 22/9/6 23/10/6
f 24/11/6 23/10/6 22/9/6
f 25/13/7 26/14/7 27/15/7
f 26/14/7 25/13/7 28/16/7
f 29/16/8 30/13/8 31/14/8
f 32/15/8 31/14/8 30/13/8
f 33/17/9 34/18/9 35/19/9
f 34/18/9 33/17/9 36/20/9
f 37/20/10 38/17/10 39/18/10
f 40/19/10 39/18/10 38/17/10
f 41/21/11 42/22/11 43/23/11
f 42/22/11 41/21/11 44/24/11
f 45/24/12 46/21/12 47/22/12
f 48/23/12 47/22/12 46/21/12
f 49/25/13 50/26/13 51/27/13
f 50/26/13 49/25/13 52/28/13
f 53/28/14 54/25/14 55/26/14
f 56/27/14 55/26/14 54/25/14
f 57/29/15 58/30/15 59/31/15
f 58/30/15 57/29/15 60/32/15
f 61/32/16 62/29/16 63/30/16
f 64/31/16 63/30/16 62/29/16
f 65/33/17 66/34/17 67/35/17
f 66/34/17 65/33/17 68/36/17
f 69/36/18 70/33/18 71/34/18
f 72/35/18 71/34/18 70/33/18
f 73/37/19 74/38/19 75/39/19
f 74/38/19 73/37/19 76/40/19
f 77/40/20 78/37/20 79/38/20
f 80/39/20 79/38/20 78/37/20
f 81/41/21 82/42/21 83/43/21
f 82/42/21 81/41/21 84/44/21
f 85/44/22 86/41/22 87/42/22
f 88/43/22 87/42/22 86/41/22
f 89/45/23 90/46/23 91/47/23
f 90/46/23 89/45/23 92/48/23
f 93/48/24 94/45/24 95/46/24
f 96/47/24 95/46/24 94/45/24
f 97/49/25 98/50/25 99/51/25
f 98/50/25 97/49/25 100/52/25
f 101/52/26 102/49/26 103/50/26
f 104/51/26 103/50/26 102/49/26
f 105/53/27 106/54/27 107/55/27
f 106/54/27 105/53/27 108/56/27
f 109/56/28 110/53/28 111/54/28
f 112/55/28 111/54/28 110/53/28
f 113/57/29 114/58/29 115/59/29
f 114/58/29 113/57/29 116/60/29
f 117/60/30 118/57/30 119/58/30
f 120/59/30 119/58/30 118/57/30
f 121/61/31 122/62/31 123/63/31
f 122/62/31 121/61/31 124/64/31
f 125/64/32 126/61/32 127/62/32
f 128/63/32 127/62/32 126/61/32
f 129/65/33 130/66/33 131/67/33
f 130/66/33 129/65/33 132/68/33
f 133/68/34 134/65/34 135/66/34
f 136/67/34 135/66/34 134/65/34
f 137/69/35 138/70/35 139/71/35
f 138/70/35 137/69/35 140/72/35
f 141/72/36 142/69/36 143/70/36
f 144/71/36 143/70/36 142/69/36
f 145/73/37 146/74/37 147/75/37
f 146/74/37 145/73/37 148/76/37
f 149/76/38 150/73/38 151/74/38
f 152/75/38 151/74/38 150/73/38
f 153/77/39 154/78/39 155/79/39
f 154/78/39 153/77/39 156/80/39
f 157/80/40 158/77/40 159/78/40
f 160/79/40 159/78/40 158/77/40
f 161/81/41 162/82/41 163/83/41
f 162/82/41 161/81/41 164/84/41
f 165/84/42 166/81/42 167/82/42
f 168/83/42 167/82/42 166/81/42
f 169/85/43 170/86/43 171/87/43
f 170/86/43 169/85/43 172/88/43
f 173/88/44 174/85/44 175/86/44
f 176/87/44 175/86/44 174/85/44
f 177/89/45 178/90/45 179/91/45
f 178/90/45 177/89/45 180/92/45
f 181/92/46 182/89/46 183/90/46
f 184/91/46 183/90/46 182/89/46
f 185/93/47 186/94/47 187/95/47
f 186/94/47 185/93/47 188/96/47
f 189/96/48 190/93/48 191/94/48
f 192/95/48 191/94/48 190/93/48
f 193/97/49 194/98/49 195/99/49
f 194/98/49 193/97/49 196/100/49
f 197/100/50 198/97/50 199/98/50
f 200/99/50 199/98/50 198/97/50
f 201/101/51 202/102/51 203/103/51
f 202/102/51 201/101/51 204/104/51
f 205/104/52 206/101/52 207/102/52
f 208/103/52 207/102/52 206/101/52
f 209/105/53 210/106/53 211/107/53
f 210/106/53 209/105/53 212/108/53
f 213/108/54 214/105/54 215/106/54
f 216/107/54 215/106/54 214/105/54
f 217/109/55 218/110/55 219/111/55
f 218/110/55 217/109/55 220/112/55
f 221/112/56 222/109/56 223/110/56
f 224/111/56 223/110/56 222/109/56
f 225/113/57 226/114/57 227/115/57
f 226/114/57 225/113/57 228/116/57
f 229/116/58 230/113/58 231/114/58
f 232/115/58 231/114/58 230/113/58
f 233/117/59 234/118/59 235/119/59
f 234/118/59 233/117/59 236/120/59
f 237/120/60 238/117/60 239/118/60
f 240/119/60 239/118/60 238/117/60
f 241/121/61 242/122/61 243/123/61
f 242/122/61 241/121/61 244/124/61
f 245/124/62 246/121/62 247/122/62
f 248/123/62 247/122/62 246/121/62
f 249/125/63 250/126/63 251/127/63
f 250/126/63 249/125/63 252/128/63
f 253/128/64 254/125/64 255/126/64
f 256/127/64 255/126/64 254/125/64
