# SSTK version 0.8.0
# 3
mtllib original-3.mtl
o #ID19
v -0.07051126 -0.08209995 0.25397834
v -0.06451269 -0.10465221 0.25397174
v -0.07054850 -0.10465711 0.25392953
v -0.06464003 -0.07893307 0.25396171
v -0.07084014 -0.07710501 0.25381188
v -0.06478192 -0.07551521 0.25384642
v -0.07179455 -0.07328397 0.25383575
v -0.06535082 -0.07257997 0.25383628
v -0.07248259 -0.07193039 0.25396082
v -0.06630645 -0.06999327 0.25390888
v -0.07367008 -0.07108564 0.25390487
v -0.07522609 -0.07064535 0.25392928
v -0.07721532 -0.07033757 0.25389076
v -0.09248340 -0.04959260 0.25391126
v -0.08654149 -0.10449977 0.25397500
v -0.09258609 -0.10466154 0.25393088
v -0.08647689 -0.07507156 0.25384770
v -0.08661473 -0.06947809 0.25395335
v -0.08195176 -0.07173328 0.25390894
v -0.07954468 -0.07073551 0.25387168
v -0.08653035 -0.04975374 0.25379591
v -0.06761146 -0.06790271 0.25386793
v -0.08385267 -0.06720088 0.25387898
v -0.06915949 -0.06624347 0.25386537
v -0.08125885 -0.06552375 0.25390392
v -0.07104177 -0.06500746 0.25383839
v -0.07861481 -0.06441034 0.25387925
v -0.07328797 -0.06431592 0.25389764
v -0.07572219 -0.06397439 0.25392362
v -0.07579607 -0.06414099 0.25383964
v -0.07863487 -0.06448069 0.25382075
v -0.07323775 -0.06437372 0.25384041
v -0.07100119 -0.06510056 0.25392004
v -0.08117919 -0.06544174 0.25390867
v -0.06909547 -0.06615218 0.25383714
v -0.08386747 -0.06712340 0.25390855
v -0.06761576 -0.06792280 0.25385116
v -0.08656489 -0.06945104 0.25382281
v -0.06631888 -0.07008011 0.25385663
v -0.08662803 -0.04971495 0.25384161
v -0.09260579 -0.04974178 0.25396530
v -0.07731060 -0.07042178 0.25383729
v -0.07964879 -0.07076681 0.25391906
v -0.08198397 -0.07178278 0.25399136
v -0.08657767 -0.07520610 0.25379596
v -0.08649805 -0.10467330 0.25383192
v -0.09258880 -0.10463317 0.25386431
v -0.07528088 -0.07048337 0.25384407
v -0.07377727 -0.07110521 0.25382236
v -0.07267001 -0.07194805 0.25392021
v -0.06526285 -0.07261774 0.25392887
v -0.07178955 -0.07323427 0.25394365
v -0.06468427 -0.07547983 0.25383435
v -0.07075357 -0.07700421 0.25397494
v -0.06447807 -0.07903291 0.25394017
v -0.07062089 -0.08206680 0.25389882
v -0.06454919 -0.10454490 0.25384893
v -0.07057124 -0.10458628 0.25379519
v -0.06463934 -0.10459471 0.25398578
v -0.07049140 -0.10451878 0.33111978
v -0.07054935 -0.10457582 0.25394704
v -0.06453420 -0.10460083 0.33095944
v -0.06447899 -0.10452970 0.33097042
v -0.06461795 -0.10463021 0.25383109
v -0.07049361 -0.10455243 0.33112452
v -0.07049026 -0.10468617 0.25391280
v -0.07059862 -0.08210735 0.25396887
v -0.07058389 -0.10458083 0.33103665
v -0.07053136 -0.08213026 0.33105844
v -0.07063009 -0.10461030 0.25387453
v -0.07060316 -0.10456757 0.25396698
v -0.07049429 -0.08205180 0.25382274
v -0.07055100 -0.10457295 0.33101506
v -0.07059008 -0.08207128 0.33096986
v -0.07086691 -0.07708561 0.25384585
v -0.07073703 -0.07710612 0.33101202
v -0.07077142 -0.07714376 0.25379921
v -0.07078347 -0.07700667 0.33099892
v -0.07179390 -0.07335563 0.25391089
v -0.07170232 -0.07327199 0.33113182
v -0.07177475 -0.07338269 0.25391471
v -0.07171165 -0.07334298 0.33100004
v -0.07260137 -0.07204837 0.25386960
v -0.07260983 -0.07204054 0.33101995
v -0.07259586 -0.07194166 0.25384575
v -0.07262906 -0.07195007 0.33112171
v -0.07368648 -0.07118485 0.33110584
v -0.07372340 -0.07105962 0.25389161
v -0.07381152 -0.07118409 0.33103624
v -0.07370762 -0.07120229 0.25391707
v -0.07523105 -0.07063586 0.33109734
v -0.07535535 -0.07049683 0.25397452
v -0.07518216 -0.07055955 0.33097783
v -0.07527070 -0.07049185 0.25380966
v -0.07730707 -0.07033768 0.33103864
v -0.07737836 -0.07037830 0.25394941
v -0.07732552 -0.07033511 0.33101612
v -0.07726997 -0.07037709 0.25379627
v -0.07954511 -0.07069476 0.33107459
v -0.07951089 -0.07066294 0.25381494
v -0.07956897 -0.07081173 0.33097715
v -0.07966846 -0.07063440 0.25390562
v -0.08198473 -0.07178934 0.33110819
v -0.08199311 -0.07162504 0.25382903
v -0.08187431 -0.07173894 0.33109671
v -0.08194981 -0.07171617 0.25383985
v -0.08660150 -0.07514075 0.33102884
v -0.08664151 -0.07516931 0.25389961
v -0.08657542 -0.07521104 0.33107340
v -0.08659019 -0.07506958 0.25387161
v -0.08649492 -0.10467124 0.33110166
v -0.08659272 -0.07518149 0.25384564
v -0.08648833 -0.07514270 0.33103786
v -0.08652298 -0.10459570 0.25395411
v -0.08659404 -0.10458978 0.25379339
v -0.08658049 -0.10451330 0.33106819
v -0.08656049 -0.07509703 0.25382913
v -0.08647107 -0.07519100 0.33097993
v -0.08658733 -0.10457816 0.25384355
v -0.09250023 -0.10458247 0.33108141
v -0.09251227 -0.10451762 0.25388952
v -0.08658383 -0.10461352 0.33108315
v -0.08656696 -0.10463881 0.33101813
v -0.08653103 -0.10457537 0.25380291
v -0.09258430 -0.10468161 0.33097950
v -0.09251119 -0.10462847 0.25386129
v -0.09252580 -0.04963563 0.25397576
v -0.09252689 -0.10457415 0.33095884
v -0.09255359 -0.04964817 0.33113930
v -0.09255277 -0.10456207 0.25387599
v -0.09262712 -0.10467521 0.25397786
v -0.09255635 -0.04959347 0.25383518
v -0.09248064 -0.10467920 0.33102279
v -0.09256486 -0.04956765 0.33098681
v -0.08654468 -0.04971648 0.33108479
v -0.09256851 -0.04962431 0.25380871
v -0.09257740 -0.04975194 0.33110764
v -0.08651068 -0.04973347 0.25380157
v -0.08649924 -0.04958462 0.25391529
v -0.08657206 -0.04962087 0.33112994
v -0.09250031 -0.04958319 0.25392223
v -0.09250241 -0.04958464 0.33102070
v -0.08656240 -0.06962010 0.33109657
v -0.08651146 -0.04959945 0.25394284
v -0.08660059 -0.04973627 0.33105725
v -0.08656667 -0.06963907 0.25379334
v -0.08661478 -0.06959685 0.25395721
v -0.08661353 -0.06956116 0.33112875
v -0.08651863 -0.04966283 0.25384367
v -0.08650029 -0.04957532 0.33111318
v -0.08381760 -0.06720467 0.33101525
v -0.08658967 -0.06946355 0.25388546
v -0.08656563 -0.06960271 0.33099611
v -0.08397021 -0.06711636 0.25390472
v -0.08390150 -0.06729633 0.25388036
v -0.08388003 -0.06729405 0.33098736
v -0.08652103 -0.06951048 0.25379379
v -0.08653641 -0.06957345 0.33111786
v -0.08121386 -0.06542274 0.33107726
v -0.08117745 -0.06548319 0.25383684
v -0.08117555 -0.06544495 0.25387412
v -0.08132836 -0.06556398 0.33112744
v -0.07850806 -0.06437290 0.33103879
v -0.07859974 -0.06436456 0.25385642
v -0.07866918 -0.06451405 0.25394643
v -0.07866489 -0.06447649 0.33105910
v -0.07579293 -0.06410598 0.33100273
v -0.07564443 -0.06402266 0.25388910
v -0.07565307 -0.06413759 0.25391235
v -0.07582625 -0.06416735 0.33108374
v -0.07320507 -0.06432035 0.33113129
v -0.07324843 -0.06428216 0.25399046
v -0.07330276 -0.06440236 0.25397878
v -0.07316117 -0.06436255 0.33108744
v -0.07104680 -0.06500886 0.33113899
v -0.07105892 -0.06497639 0.25383595
v -0.07099576 -0.06505786 0.25393393
v -0.07097328 -0.06506331 0.33108832
v -0.06909557 -0.06617422 0.33097114
v -0.06911537 -0.06621201 0.25398192
v -0.06907657 -0.06622475 0.25398760
v -0.06909678 -0.06617517 0.33104315
v -0.06751289 -0.06793296 0.25386232
v -0.06748782 -0.06782964 0.33094798
v -0.06761014 -0.06797776 0.25392927
v -0.06759148 -0.06790142 0.33097453
v -0.06630667 -0.07010490 0.25395401
v -0.06628416 -0.07012071 0.33104650
v -0.06624386 -0.06995028 0.25397826
v -0.06627803 -0.06998531 0.33095930
v -0.06520224 -0.07251412 0.25382163
v -0.06528254 -0.07250014 0.33096476
v -0.06522580 -0.07253924 0.25398750
v -0.06536909 -0.07256521 0.33109424
v -0.06480421 -0.07567318 0.25395545
v -0.06484351 -0.07552021 0.33098282
v -0.06464524 -0.07556584 0.25395556
v -0.06483778 -0.07566449 0.33099701
v -0.06461103 -0.07904576 0.25388836
v -0.06457929 -0.07903379 0.33099880
v -0.06460869 -0.07894232 0.25390622
v -0.06465393 -0.07905587 0.33100895
v -0.06465340 -0.10457947 0.33098643
v -0.06465576 -0.10457832 0.25391878
v -0.06457037 -0.10457180 0.25394134
v -0.06458289 -0.10450140 0.33111547
v -0.06457021 -0.07890945 0.33109623
v -0.07050291 -0.10454779 0.33096302
v -0.06452345 -0.10460679 0.33097998
v -0.07048226 -0.08218222 0.33101623
v -0.07081649 -0.07709921 0.33096768
v -0.06475287 -0.07553904 0.33108160
v -0.07163092 -0.07333740 0.33099520
v -0.06522348 -0.07256644 0.33099748
v -0.07262876 -0.07201427 0.33107064
v -0.06622485 -0.07008958 0.33097160
v -0.07375802 -0.07108443 0.33095509
v -0.07536780 -0.07061812 0.33097860
v -0.07728768 -0.07045612 0.33109473
v -0.06762145 -0.06798622 0.33102314
v -0.08662261 -0.06944301 0.33110712
v -0.08394913 -0.06727396 0.33104883
v -0.06908194 -0.06615844 0.33102112
v -0.08120651 -0.06553421 0.33112809
v -0.07111186 -0.06503613 0.33103683
v -0.07852796 -0.06439671 0.33108460
v -0.07331653 -0.06438709 0.33106931
v -0.07568698 -0.06398557 0.33107417
v -0.08650068 -0.07518984 0.33104069
v -0.09256413 -0.10451291 0.33102056
v -0.08644387 -0.10461798 0.33099853
v -0.09248749 -0.04969843 0.33106589
v -0.08190366 -0.07172705 0.33103819
v -0.07957379 -0.07065735 0.33106689
v -0.08648245 -0.04959890 0.33109961
v -0.08656495 -0.04973675 0.33098561
v -0.08645929 -0.06945212 0.33104501
v -0.09243234 -0.04963896 0.33104983
v -0.06614829 -0.07003460 0.33111777
v -0.07738786 -0.07037272 0.33106170
v -0.07948963 -0.07073003 0.33109838
v -0.08195894 -0.07162421 0.33110616
v -0.08647403 -0.07509875 0.33111555
v -0.09258417 -0.10459390 0.33108375
v -0.08656579 -0.10453684 0.33100166
v -0.07575454 -0.06410941 0.33109320
v -0.07320322 -0.06434427 0.33103163
v -0.07860091 -0.06436492 0.33112265
v -0.07111943 -0.06505688 0.33108978
v -0.08117687 -0.06549481 0.33098492
v -0.06908626 -0.06622924 0.33113518
v -0.08379671 -0.06726530 0.33110652
v -0.06757888 -0.06792489 0.33104184
v -0.07520384 -0.07060625 0.33103233
v -0.07376274 -0.07114185 0.33111767
v -0.07266180 -0.07195192 0.33094826
v -0.06521257 -0.07260236 0.33108215
v -0.07178008 -0.07336320 0.33109541
v -0.06467082 -0.07567159 0.33103248
v -0.07080724 -0.07712129 0.33100689
v -0.06450479 -0.07895564 0.33111657
v -0.07049249 -0.08216150 0.33095521
v -0.07050459 -0.10458548 0.33111261
v -0.06464638 -0.10463086 0.33095178
vn 0 0 -1
vn 0 0 1
vn 0 -1 0
vn 0 1 0
vn -0.9997222604148628 -0.02356696906683912 0
vn -1 0 0
vn 1 0 0
vn 0.9997222604148628 0.02356696906683912 0
vn -0.9899253732803456 -0.14159009617825896 0
vn 0.9899253732803456 0.14159009617825896 0
vn -0.9145907461598625 -0.4043807204093017 0
vn 0.9145907461598625 0.4043807204093017 0
vn -0.7314786955496179 -0.6818642958514762 0
vn 0.7314786955496179 0.6818642958514762 0
vn -0.4809837922963977 -0.8767294859579982 0
vn 0.4809837922963977 0.8767294859579982 0
vn -0.21185699505637107 -0.9773006771949382 0
vn 0.21185699505637107 0.9773006771949382 0
vn 0.027910970362361138 -0.9996104129776917 0
vn -0.027910970362361138 0.9996104129776917 0
vn 0.26991440559885477 -0.9628843199731817 0
vn -0.26991440559885477 0.9628843199731817 0
vn 0.4969819781594291 -0.8677608618650304 0
vn -0.4969819781594291 0.8677608618650304 0
vn 0.5961026980404525 -0.802908197360628 0
vn -0.5961026980404525 0.802908197360628 0
vn -0.6054976784189429 0.7958470716345385 0
vn -0.6602251984490222 0.7510676982356181 0
vn 0.6054976784189429 -0.7958470716345385 0
vn 0.6602251984490222 -0.7510676982356181 0
vn -0.4597528152390935 0.8880469294354482 0
vn 0.4597528152390935 -0.8880469294354482 0
vn -0.24738710633492828 0.9689167248113899 0
vn 0.24738710633492828 -0.9689167248113899 0
vn -0.014083820254731014 0.9999008180849901 0
vn 0.014083820254731014 -0.9999008180849901 0
vn 0.20442800061302235 0.9788816029353921 0
vn -0.20442800061302235 -0.9788816029353921 0
vn 0.4237307885321756 0.9057881754858037 0
vn -0.4237307885321756 -0.9057881754858037 0
vn 0.6288532863234191 0.7775239830900627 0
vn -0.6288532863234191 -0.7775239830900627 0
vn 0.7909932194955112 0.6118249150795724 0
vn -0.7909932194955112 -0.6118249150795724 0
vn 0.9018081105004282 0.43213670503169177 0
vn -0.9018081105004282 -0.43213670503169177 0
vn 0.9650004597577977 0.2622481890637931 0
vn -0.9650004597577977 -0.2622481890637931 0
vn 0.9929416597991044 0.11860379519812797 0
vn -0.9929416597991044 -0.11860379519812797 0
vn 0.9996343788747667 0.027039019428585484 0
vn -0.9996343788747667 -0.027039019428585484 0
usemtl material_0_0
f 1//1 2//1 3//1
f 2//1 1//1 4//1
f 4//1 1//1 5//1
f 4//1 5//1 6//1
f 6//1 5//1 7//1
f 6//1 7//1 8//1
f 8//1 7//1 9//1
f 8//1 9//1 10//1
f 10//1 9//1 11//1
f 10//1 11//1 12//1
f 10//1 12//1 13//1
f 14//1 15//1 16//1
f 15//1 14//1 17//1
f 17//1 14//1 18//1
f 17//1 18//1 19//1
f 19//1 18//1 20//1
f 20//1 18//1 13//1
f 13//1 18//1 10//1
f 18//1 14//1 21//1
f 18//1 22//1 10//1
f 22//1 18//1 23//1
f 22//1 23//1 24//1
f 24//1 23//1 25//1
f 24//1 25//1 26//1
f 26//1 25//1 27//1
f 26//1 27//1 28//1
f 28//1 27//1 29//1
f 30//2 31//2 32//2
f 32//2 31//2 33//2
f 31//2 34//2 33//2
f 33//2 34//2 35//2
f 34//2 36//2 35//2
f 35//2 36//2 37//2
f 36//2 38//2 37//2
f 39//2 37//2 38//2
f 40//2 41//2 38//2
f 39//2 38//2 42//2
f 42//2 38//2 43//2
f 43//2 38//2 44//2
f 44//2 38//2 45//2
f 38//2 41//2 45//2
f 45//2 41//2 46//2
f 47//2 46//2 41//2
f 42//2 48//2 39//2
f 48//2 49//2 39//2
f 49//2 50//2 39//2
f 39//2 50//2 51//2
f 50//2 52//2 51//2
f 51//2 52//2 53//2
f 52//2 54//2 53//2
f 53//2 54//2 55//2
f 54//2 56//2 55//2
f 55//2 56//2 57//2
f 58//2 57//2 56//2
f 59//3 60//3 61//3
f 60//3 59//3 62//3
f 63//4 64//4 65//4
f 66//4 65//4 64//4
f 67//5 68//6 69//5
f 68//6 67//5 70//6
f 71//7 72//8 73//7
f 74//8 73//7 72//8
f 75//9 69//5 76//9
f 69//5 75//9 67//5
f 72//8 77//10 74//8
f 78//10 74//8 77//10
f 79//11 76//9 80//11
f 76//9 79//11 75//9
f 77//10 81//12 78//10
f 82//12 78//10 81//12
f 83//13 80//11 84//13
f 80//11 83//13 79//11
f 81//12 85//14 82//12
f 86//14 82//12 85//14
f 83//13 87//15 88//15
f 87//15 83//13 84//13
f 86//14 85//14 89//16
f 90//16 89//16 85//14
f 88//15 91//17 92//17
f 91//17 88//15 87//15
f 89//16 90//16 93//18
f 94//18 93//18 90//16
f 92//17 95//19 96//19
f 95//19 92//17 91//17
f 93//18 94//18 97//20
f 98//20 97//20 94//18
f 96//19 99//21 100//21
f 99//21 96//19 95//19
f 97//20 98//20 101//22
f 102//22 101//22 98//20
f 100//21 103//23 104//23
f 103//23 100//21 99//21
f 101//22 102//22 105//24
f 106//24 105//24 102//22
f 104//23 107//25 108//25
f 107//25 104//23 103//23
f 105//24 106//24 109//26
f 110//26 109//26 106//24
f 111//7 112//7 113//7
f 112//7 111//7 114//7
f 115//6 116//6 117//6
f 118//6 117//6 116//6
f 119//3 120//3 121//3
f 120//3 119//3 122//3
f 123//4 124//4 125//4
f 126//4 125//4 124//4
f 127//6 128//6 129//6
f 128//6 127//6 130//6
f 131//7 132//7 133//7
f 134//7 133//7 132//7
f 135//4 136//4 137//4
f 136//4 135//4 138//4
f 139//3 140//3 141//3
f 142//3 141//3 140//3
f 143//7 144//7 145//7
f 144//7 143//7 146//7
f 147//6 148//6 149//6
f 150//6 149//6 148//6
f 151//27 152//28 153//28
f 152//28 151//27 154//27
f 155//29 156//29 157//30
f 158//30 157//30 156//29
f 159//31 154//27 151//27
f 154//27 159//31 160//31
f 161//32 162//32 155//29
f 156//29 155//29 162//32
f 163//33 160//31 159//31
f 160//31 163//33 164//33
f 165//34 166//34 161//32
f 162//32 161//32 166//34
f 167//35 164//33 163//33
f 164//33 167//35 168//35
f 169//36 170//36 165//34
f 166//34 165//34 170//36
f 171//37 168//35 167//35
f 168//35 171//37 172//37
f 173//38 174//38 169//36
f 170//36 169//36 174//38
f 175//39 172//37 171//37
f 172//37 175//39 176//39
f 177//40 178//40 173//38
f 174//38 173//38 178//40
f 179//41 176//39 175//39
f 176//39 179//41 180//41
f 181//42 182//42 177//40
f 178//40 177//40 182//42
f 183//43 179//41 184//43
f 179//41 183//43 180//41
f 181//42 185//44 182//42
f 186//44 182//42 185//44
f 187//45 184//43 188//45
f 184//43 187//45 183//43
f 185//44 189//46 186//44
f 190//46 186//44 189//46
f 191//47 188//45 192//47
f 188//45 191//47 187//45
f 189//46 193//48 190//46
f 194//48 190//46 193//48
f 195//49 192//47 196//49
f 192//47 195//49 191//47
f 193//48 197//50 194//48
f 198//50 194//48 197//50
f 199//51 196//49 200//51
f 196//49 199//51 195//49
f 197//50 201//52 198//50
f 202//52 198//50 201//52
f 203//7 199//51 200//51
f 199//51 203//7 204//7
f 205//6 206//6 201//52
f 202//52 201//52 206//6
f 207//2 208//2 209//2
f 208//2 207//2 210//2
f 210//2 207//2 211//2
f 211//2 207//2 212//2
f 211//2 212//2 213//2
f 213//2 212//2 214//2
f 213//2 214//2 215//2
f 215//2 214//2 216//2
f 215//2 216//2 217//2
f 217//2 216//2 218//2
f 218//2 216//2 219//2
f 220//2 221//2 216//2
f 221//2 220//2 222//2
f 222//2 220//2 223//2
f 222//2 223//2 224//2
f 224//2 223//2 225//2
f 224//2 225//2 226//2
f 226//2 225//2 227//2
f 226//2 227//2 228//2
f 229//2 230//2 231//2
f 230//2 229//2 232//2
f 232//2 229//2 221//2
f 221//2 229//2 233//2
f 221//2 233//2 234//2
f 221//2 234//2 219//2
f 221//2 219//2 216//2
f 232//2 221//2 235//2
f 236//1 237//1 238//1
f 239//1 240//1 237//1
f 240//1 241//1 237//1
f 241//1 242//1 237//1
f 242//1 243//1 237//1
f 237//1 243//1 238//1
f 238//1 243//1 244//1
f 245//1 244//1 243//1
f 246//1 247//1 248//1
f 247//1 249//1 248//1
f 248//1 249//1 250//1
f 249//1 251//1 250//1
f 250//1 251//1 252//1
f 251//1 253//1 252//1
f 252//1 253//1 237//1
f 239//1 237//1 253//1
f 240//1 239//1 254//1
f 254//1 239//1 255//1
f 255//1 239//1 256//1
f 239//1 257//1 256//1
f 256//1 257//1 258//1
f 257//1 259//1 258//1
f 258//1 259//1 260//1
f 259//1 261//1 260//1
f 260//1 261//1 262//1
f 262//1 261//1 263//1
f 264//1 263//1 261//1
