# SSTK version 0.8.0
# 13
mtllib original-13.mtl
o #ID81
v -0.20098076 0.52633249 -0.09566828
v -0.20111512 0.52627402 0.09114732
v -0.21724558 0.52630876 -0.00232791
v -0.15505688 0.52643052 -0.17481692
v -0.15505357 0.52641366 0.17031862
v -0.08610895 0.52630256 -0.22777487
v -0.08618635 0.52635638 0.22309366
v -0.00492843 0.52631519 -0.24639001
v -0.00499143 0.52627006 0.24168351
v 0.07615624 0.52634300 -0.22788107
v 0.07620082 0.52636760 0.22308017
v 0.14512497 0.52638815 -0.17478047
v 0.14516933 0.52640464 0.17019275
v 0.19112613 0.52633418 -0.09576366
v 0.19101438 0.52639608 0.09114163
v 0.20729791 0.52644074 -0.00220714
v 0.20720712 0.52636548 -0.00228744
v 0.19114985 0.60919061 0.09111063
v 0.19113151 0.52626934 0.09116746
v 0.20719372 0.60927116 -0.00226157
v 0.19100478 0.52627614 0.09099425
v 0.14510162 0.60909526 0.17022131
v 0.14515926 0.52630276 0.17022905
v 0.19117246 0.60927269 0.09108099
v 0.14512056 0.60923950 0.17034917
v 0.07627894 0.52632163 0.22308769
v 0.14505636 0.52643931 0.17022663
v 0.07623572 0.60924113 0.22309332
v 0.07623319 0.60916135 0.22309927
v -0.00489714 0.52627608 0.24167102
v 0.07613220 0.52642719 0.22320752
v -0.00495121 0.60927982 0.24178248
v -0.00493985 0.60916485 0.24176603
v -0.08623864 0.52641747 0.22317025
v -0.00508810 0.52645088 0.24175161
v -0.08613515 0.60917957 0.22322417
v -0.08616902 0.60919970 0.22310016
v -0.15496034 0.52644947 0.17025158
v -0.08620542 0.52644033 0.22308745
v -0.15501877 0.60918711 0.17035528
v -0.20113126 0.60917815 0.09104778
v -0.15501325 0.52643035 0.17022459
v -0.15509069 0.60911305 0.17017788
v -0.20104135 0.52638545 0.09106750
v -0.21730678 0.60925034 -0.00238799
v -0.20113987 0.52631873 0.09117877
v -0.20114730 0.60912354 0.09116164
v -0.21728287 0.52631307 -0.00231666
v -0.20100066 0.60923592 -0.09578706
v -0.21730364 0.52642285 -0.00238133
v -0.21728605 0.60911672 -0.00235831
v -0.20112118 0.52639085 -0.09574292
v -0.15508925 0.60915047 -0.17495016
v -0.20112834 0.52642580 -0.09576532
v -0.20096249 0.60913227 -0.09578207
v -0.15508872 0.52645133 -0.17480573
v -0.15501101 0.60914996 -0.17495561
v -0.08621958 0.52636458 -0.22783019
v -0.15515084 0.52635437 -0.17489889
v -0.08630685 0.60926502 -0.22785365
v -0.08627863 0.60909627 -0.22774756
v -0.00498642 0.52629265 -0.24630129
v -0.08626472 0.52641567 -0.22778580
v -0.00499898 0.60921500 -0.24634567
v -0.00504981 0.60917637 -0.24637391
v 0.07614193 0.52639750 -0.22788403
v -0.00502006 0.52637969 -0.24637155
v 0.07620319 0.60925157 -0.22781964
v 0.07630307 0.60914310 -0.22779927
v 0.14499073 0.52641914 -0.17495224
v 0.07631514 0.52642912 -0.22777028
v 0.14514913 0.60909988 -0.17494111
v 0.14500832 0.52636410 -0.17494707
v 0.19106833 0.60917715 -0.09563660
v 0.19102429 0.52644912 -0.09571553
v 0.14504913 0.60921577 -0.17495699
v 0.19114846 0.52634173 -0.09561990
v 0.20717218 0.60926856 -0.00222911
v 0.20719464 0.52630870 -0.00222432
v 0.19098524 0.60924426 -0.09560766
v -0.20099572 0.60913356 0.09104453
v -0.20112063 0.60927864 -0.09564924
v -0.21717691 0.60908908 -0.00221537
v -0.15513297 0.60916299 0.17018281
v -0.15499781 0.60915198 -0.17490788
v -0.08616958 0.60923063 0.22318651
v -0.08627711 0.60914048 -0.22783115
v -0.00493639 0.60920174 0.24172950
v -0.00501604 0.60916053 -0.24645620
v 0.07630931 0.60923376 0.22322386
v 0.07626563 0.60912533 -0.22777180
v 0.14507383 0.60922087 0.17036202
v 0.14504655 0.60921842 -0.17497404
v 0.19104243 0.60909637 0.09100612
v 0.19106612 0.60912965 -0.09567850
v 0.20728049 0.60923609 -0.00234699
vn 0 -1 0
vn 0.9853680575810836 0 0.17043999266276216
vn 0.8646490944089628 0 0.5023762967515093
vn 0.6092947300362416 0 0.7929438390895432
vn 0.22299390870688093 0 0.9748198380622067
vn -0.22299390870688093 0 0.9748198380622067
vn -0.6092947300362416 0 0.7929438390895432
vn -0.8646490944089628 0 0.5023762967515093
vn -0.9853680575810836 0 0.17043999266276216
vn -0.9853680575810836 0 -0.17043999266276216
vn -0.8646490944089628 0 -0.5023762967515093
vn -0.6092947300362416 0 -0.7929438390895432
vn -0.22299390870688093 0 -0.9748198380622067
vn 0.22299390870688093 0 -0.9748198380622067
vn 0.6092947300362416 0 -0.7929438390895432
vn 0.8646490944089628 0 -0.5023762967515093
vn 0.9853680575810836 0 -0.17043999266276216
vn 0 1 0
usemtl material_0_0
f 1//1 2//1 3//1
f 2//1 1//1 4//1
f 2//1 4//1 5//1
f 5//1 4//1 6//1
f 5//1 6//1 7//1
f 7//1 6//1 8//1
f 7//1 8//1 9//1
f 9//1 8//1 10//1
f 9//1 10//1 11//1
f 11//1 10//1 12//1
f 11//1 12//1 13//1
f 13//1 12//1 14//1
f 13//1 14//1 15//1
f 15//1 14//1 16//1
f 17//2 18//2 19//2
f 18//2 17//2 20//2
f 21//3 22//3 23//3
f 22//3 21//3 24//3
f 25//4 26//4 27//4
f 26//4 25//4 28//4
f 29//5 30//5 31//5
f 30//5 29//5 32//5
f 33//6 34//6 35//6
f 34//6 33//6 36//6
f 37//7 38//7 39//7
f 38//7 37//7 40//7
f 41//8 42//8 43//8
f 42//8 41//8 44//8
f 45//9 46//9 47//9
f 46//9 45//9 48//9
f 49//10 50//10 51//10
f 50//10 49//10 52//10
f 53//11 54//11 55//11
f 54//11 53//11 56//11
f 57//12 58//12 59//12
f 58//12 57//12 60//12
f 61//13 62//13 63//13
f 62//13 61//13 64//13
f 65//14 66//14 67//14
f 66//14 65//14 68//14
f 69//15 70//15 71//15
f 70//15 69//15 72//15
f 73//16 74//16 75//16
f 74//16 73//16 76//16
f 77//17 78//17 79//17
f 78//17 77//17 80//17
f 81//18 82//18 83//18
f 82//18 81//18 84//18
f 82//18 84//18 85//18
f 85//18 84//18 86//18
f 85//18 86//18 87//18
f 87//18 86//18 88//18
f 87//18 88//18 89//18
f 89//18 88//18 90//18
f 89//18 90//18 91//18
f 91//18 90//18 92//18
f 91//18 92//18 93//18
f 93//18 92//18 94//18
f 93//18 94//18 95//18
f 95//18 94//18 96//18
