# SSTK version 0.8.0
# 11
mtllib original-11.mtl
o #ID69
v 0.03788332 0.93290761 0.29208018
v -0.04034644 0.91712662 0.33728315
v -0.04800446 0.93294428 0.29209120
v 0.02972277 0.91696833 0.33723120
v -0.04693326 0.96282276 0.29793491
v -0.03788144 0.94039387 0.35203667
v 0.03789142 0.94255469 0.23159159
v -0.04790864 0.94260338 0.23162738
v 0.03686248 0.96285994 0.29797477
v 0.02695177 0.94052235 0.35194240
v -0.00507154 0.91999014 0.33908796
v 0.00316045 0.92278758 0.34087216
v 0.00660296 0.92920846 0.34500196
v 0.00317235 0.93570568 0.34899463
v -0.00495436 0.93843382 0.35075148
v -0.01320729 0.92282277 0.34079122
v -0.01656383 0.92917119 0.34497158
v -0.01327499 0.93577225 0.34894160
v 0.04836375 0.93058729 0.17208282
v -0.05820665 0.93052623 0.17202023
v 0.03788837 0.97053917 0.23159975
v -0.04791596 0.97057719 0.23163013
v 0.05872211 0.92528145 0.11244701
v -0.06872282 0.92531339 0.11259829
v 0.04841171 0.96182429 0.16825987
v -0.05821375 0.96177743 0.16842516
v -0.00495800 0.92517829 -0.11360838
v -0.08754406 0.92518130 -0.00650809
v -0.08929195 0.92530042 -0.11364204
v -0.07968855 0.92522655 0.05292863
v 0.07933234 0.92533999 -0.11370728
v 0.06971577 0.92518292 0.05303952
v 0.07708997 0.92529391 -0.00660903
v 0.05858964 0.95638768 0.11256427
v -0.06866699 0.95633238 0.11246199
v -0.08356413 0.93170391 -0.14113297
v 0.07312703 0.93152748 -0.14107656
v 0.07694823 0.95623414 -0.00647161
v 0.07928948 0.95637444 -0.11366402
v 0.06980648 0.95638248 0.05304659
v -0.07967921 0.95636102 0.05296134
v -0.08747248 0.95630882 -0.00649121
v -0.08941918 0.95626912 -0.11365776
v -0.00496911 0.95631776 -0.11375300
v -0.08358300 0.95793896 -0.14100662
v -0.06709568 0.93803590 -0.16556840
v 0.07322454 0.95780339 -0.14106390
v 0.05700572 0.93793668 -0.16545255
v -0.06705407 0.95992272 -0.16571193
v -0.04102839 0.94128890 -0.17878681
v 0.05708877 0.95988755 -0.16549715
v 0.03207026 0.94148898 -0.17932811
v -0.04110681 0.96097941 -0.17865826
v -0.00503829 0.94299224 -0.18509074
v 0.03205867 0.96109291 -0.17937875
v -0.00508487 0.96137113 -0.18507342
vn 0.7541802013261353 -0.6507709011443025 -0.08780352015439208
vn -0.5637364873600417 -0.7656254828333373 0.3098689930521949
vn -0.7537703826006582 -0.6497029850028543 -0.09857099772467795
vn 0.5608827328600757 -0.7660344448791673 0.31400921839665585
vn -0.6801185877857572 0.6959928875006708 0.23028809586425858
vn -0.49637078458511363 0.2560797920473946 0.8294812742403059
vn 0.7284544170022157 -0.6803099158785172 0.08082438188645087
vn -0.7282505045445528 -0.6795905042408963 0.08836260055141519
vn 0.6782505994712087 0.6951443994580375 0.23822339981427165
vn 0.4891824021498882 0.2567534011283951 0.8335336036632636
vn 0.00000132991997481141 0.21837029586408183 0.9758659815171674
vn -0.4847483867147109 -0.00916040574894492 0.874605676030061
vn -0.5778024833489633 -0.4691549864799529 0.6678606807536778
vn -0.33953379780847576 -0.7842546949380205 0.5192892966482419
vn 0.0000010627189925634062 -0.8825517938241633 0.4702151967095727
vn 0.4847503831647273 -0.009160393681861764 0.8746045696251783
vn 0.5778040862363197 -0.46915428882443083 0.6678597840911326
vn 0.33953570906483793 -0.784254120937817 0.5192889138638431
vn 0.6816964755541433 -0.6982993749587578 0.21832979217062265
vn -0.6827511860152862 -0.6986406856898234 0.21389719561876824
vn 0.6586344914871658 0.7512979902894924 0.04185613945901062
vn -0.6587898878199568 0.7508693861175442 0.04680863913457819
vn 0.6827348910627716 -0.7149284906413466 0.15083209802555714
vn -0.6833416014951924 -0.7138094015618578 0.15336360033556856
vn 0.699198913211111 0.7137314134856975 0.0413321807809568
vn -0.7002904555440386 0.7129245547419985 0.03649461768324244
vn 0.000004188891089231661 -0.9927415211473569 -0.12026750256193577
vn -0.7174769143763955 -0.6945534139170674 0.05312657106451995
vn -0.700907593017415 -0.7001603930248588 -0.13602929864484842
vn -0.7041661020959821 -0.7012241020872251 0.11151170033191944
vn 0.7025329884817538 -0.6979740885564985 -0.13885089772349665
vn 0.7055595337225362 -0.7002711334697748 0.10865580519325306
vn 0.716170090100323 -0.6960091903790087 0.05168760928551785
vn 0.708031309608957 0.6993346094909308 0.09809571133129363
vn -0.7087219538001147 0.6981688544880459 0.10135799339271553
vn -0.6651718251718018 -0.6223077235497145 -0.4126494156157086
vn 0.6616296923153102 -0.6249156927417354 -0.4143989951868429
vn 0.716170090100323 0.6960091903790087 0.05168760928551815
vn 0.7356955903331217 0.6747852911334697 -0.05845347923193399
vn 0.7055595337225362 0.7002711334697748 0.10865580519325337
vn -0.7041802894392885 0.7012094894838422 0.11151399832760577
vn -0.7174769143763953 0.6945534139170673 0.05312657106452024
vn -0.7341379990255693 0.6768425991016181 -0.05408783992820837
vn -0.000005024904971122027 0.9993861942565586 0.035031909798672926
vn -0.6956707750639841 0.6712806759382367 -0.2557819908316058
vn -0.47804899847385485 -0.5759974981611596 -0.6630957978831032
vn 0.6932546941797074 0.6740345943410719 -0.25509859785829275
vn 0.48960278603914076 -0.5797806834677481 -0.6512629814294546
vn -0.51025039879897 0.6742586984129266 -0.5338723987433684
vn -0.21556909671748306 -0.5842548911034251 -0.78241688808597
vn 0.5232989329987555 0.6758531426186856 -0.5190190327288688
vn 0.22390890943086209 -0.5778404243381708 -0.7848345330565956
vn -0.24096730995824298 0.7007282289583762 -0.6715018277505623
vn -0.007103741095520295 -0.5761541077472431 -0.8173102109899435
vn 0.248069986404748 0.6951881619008395 -0.674666363025518
vn -0.007911334936296617 0.6986593943742787 -0.7154106942393942
usemtl material_0_0
f 1//1 2//2 3//3
f 2//2 1//1 4//4
f 5//5 2//2 6//6
f 2//2 5//5 3//3
f 7//7 3//3 8//8
f 3//3 7//7 1//1
f 4//4 9//9 10//10
f 9//9 4//4 1//1
f 4//4 11//11 2//2
f 11//11 4//4 12//12
f 12//12 4//4 10//10
f 12//12 10//10 13//13
f 13//13 10//10 14//14
f 14//14 10//10 15//15
f 2//2 16//16 6//6
f 16//16 2//2 11//11
f 6//6 16//16 17//17
f 6//6 17//17 18//18
f 6//6 18//18 15//15
f 6//6 15//15 10//10
f 8//8 3//3 5//5
f 6//6 9//9 5//5
f 9//9 6//6 10//10
f 19//19 8//8 20//20
f 8//8 19//19 7//7
f 21//21 1//1 7//7
f 21//21 9//9 1//1
f 8//8 5//5 22//22
f 5//5 21//21 22//22
f 21//21 5//5 9//9
f 23//23 20//20 24//24
f 20//20 23//23 19//19
f 25//25 7//7 19//19
f 20//20 8//8 22//22
f 25//25 21//21 7//7
f 22//22 25//25 26//26
f 25//25 22//22 21//21
f 27//27 28//28 29//29
f 28//28 27//27 30//30
f 30//30 27//27 24//24
f 24//24 27//27 23//23
f 23//23 27//27 31//31
f 23//23 31//31 32//32
f 32//32 31//31 33//33
f 34//34 19//19 23//23
f 24//24 20//20 26//26
f 34//34 25//25 19//19
f 26//26 20//20 22//22
f 26//26 34//34 35//35
f 34//34 26//26 25//25
f 27//27 29//29 36//36
f 31//31 27//27 37//37
f 31//31 38//38 33//33
f 38//38 31//31 39//39
f 33//33 40//40 32//32
f 40//40 33//33 38//38
f 32//32 34//34 23//23
f 34//34 32//32 40//40
f 35//35 24//24 26//26
f 24//24 35//35 41//41
f 24//24 41//41 30//30
f 42//42 30//30 41//41
f 30//30 42//42 28//28
f 43//43 28//28 42//42
f 28//28 43//43 29//29
f 42//42 44//44 43//43
f 44//44 42//42 41//41
f 44//44 41//41 35//35
f 44//44 35//35 34//34
f 44//44 34//34 39//39
f 39//39 34//34 40//40
f 39//39 40//40 38//38
f 45//45 29//29 43//43
f 29//29 45//45 36//36
f 27//27 36//36 46//46
f 37//37 39//39 31//31
f 39//39 37//37 47//47
f 37//37 27//27 48//48
f 39//39 47//47 44//44
f 44//44 45//45 43//43
f 49//49 36//36 45//45
f 36//36 49//49 46//46
f 27//27 46//46 50//50
f 48//48 47//47 37//37
f 47//47 48//48 51//51
f 48//48 27//27 52//52
f 47//47 51//51 44//44
f 44//44 49//49 45//45
f 49//49 50//50 46//46
f 50//50 49//49 53//53
f 27//27 50//50 54//54
f 52//52 51//51 48//48
f 51//51 52//52 55//55
f 52//52 27//27 54//54
f 51//51 55//55 44//44
f 44//44 53//53 49//49
f 53//53 54//54 50//50
f 54//54 53//53 56//56
f 54//54 55//55 52//52
f 55//55 54//54 56//56
f 55//55 56//56 44//44
f 56//56 53//53 44//44
