# SSTK version 0.8.0
# 10
mtllib original-10.mtl
o #ID63
v 0.00322557 0.95205722 0.24105053
v -0.01312819 0.95187887 0.24104113
v -0.00506611 0.94911109 0.23978531
v 0.00669663 0.95882315 0.24371298
v -0.01666279 0.95886024 0.24377069
v 0.00317287 0.96592939 0.24628814
v -0.01318848 0.96581060 0.24641192
v -0.00508227 0.96871782 0.24746623
v 0.00669100 0.92931712 0.34501794
v 0.00314093 0.93583298 0.34899677
v -0.00503674 0.93854858 0.35082156
v -0.01327767 0.93576959 0.34903750
v -0.01659488 0.92932697 0.34498151
v -0.01312437 0.92282864 0.34078199
v -0.00502576 0.92012776 0.33906108
v 0.00311108 0.92271995 0.34076565
vn -0.534403775575466 0.329582884936655 0.778323664427286
vn 0.534403775575466 0.329582884936655 0.778323664427286
vn 0 0.525221903665077 0.8509653059381637
vn -0.7814380279012374 -0.20896910746124014 0.5879511209927892
vn 0.7814380279012374 -0.20896910746124014 0.5879511209927892
vn -0.5245901013566476 -0.7450639019268173 0.41192840106529194
vn 0.5245901013566476 -0.7450639019268173 0.41192840106529194
vn 0 -0.9355399882343498 0.353220795557782
vn -0.5778024833489633 -0.4691549864799529 0.6678606807536778
vn -0.33953379780847576 -0.7842546949380205 0.5192892966482419
vn 0.0000010627189925634062 -0.8825517938241633 0.4702151967095727
vn 0.33953570906483793 -0.784254120937817 0.5192889138638431
vn 0.5778040862363197 -0.46915428882443083 0.6678597840911326
vn 0.4847503831647273 -0.009160393681861764 0.8746045696251783
vn 0.00000132991997481141 0.21837029586408183 0.9758659815171674
vn -0.4847483867147109 -0.00916040574894492 0.874605676030061
usemtl material_0_0
f 1//1 2//2 3//3
f 2//2 1//1 4//4
f 2//2 4//4 5//5
f 5//5 4//4 6//6
f 5//5 6//6 7//7
f 7//7 6//6 8//8
f 6//6 9//9 10//10
f 9//9 6//6 4//4
f 6//6 11//11 8//8
f 11//11 6//6 10//10
f 8//8 12//12 7//7
f 12//12 8//8 11//11
f 13//13 7//7 12//12
f 7//7 13//13 5//5
f 14//14 5//5 13//13
f 5//5 14//14 2//2
f 15//15 2//2 14//14
f 2//2 15//15 3//3
f 16//16 3//3 15//15
f 3//3 16//16 1//1
f 4//4 16//16 9//9
f 16//16 4//4 1//1
