# SSTK version 0.8.0
# 2
mtllib original-2.mtl
o #ID13
v 0.10609942 -0.10000660 0.25381044
v 0.11558997 -0.09964721 0.25380130
v 0.11773978 -0.10002008 0.25381934
v 0.10429645 -0.09708435 0.25396082
v 0.11367910 -0.09895624 0.25381879
v 0.11195469 -0.09781745 0.25396524
v 0.11055221 -0.09605200 0.25392624
v 0.10293662 -0.09340687 0.25394912
v 0.10953989 -0.09395025 0.25386755
v 0.10867043 -0.09145521 0.25389831
v 0.10223833 -0.08948534 0.25384679
v 0.10804715 -0.08480996 0.25385026
v 0.10187637 -0.08494541 0.25385955
v 0.10215700 -0.08016888 0.25380374
v 0.10874384 -0.07818300 0.25394002
v 0.10305369 -0.07603938 0.25395945
v 0.10952910 -0.07571051 0.25391834
v 0.10441462 -0.07264622 0.25387716
v 0.11057751 -0.07348505 0.25397500
v 0.11204966 -0.07181929 0.25386067
v 0.10631661 -0.06950533 0.25386128
v 0.11361608 -0.07070415 0.25390745
v 0.11555112 -0.07007042 0.25392263
v 0.11787491 -0.06979451 0.25386508
v 0.11425473 -0.10538329 0.25398891
v 0.12114091 -0.10540097 0.25384794
v 0.11788478 -0.10576055 0.25383316
v 0.12435653 -0.10436514 0.25379797
v 0.11126113 -0.10436267 0.25383241
v 0.12695921 -0.10266084 0.25394520
v 0.10843131 -0.10252686 0.25385485
v 0.12940978 -0.10027226 0.25396942
v 0.12007799 -0.09965510 0.25386931
v 0.13124195 -0.09736453 0.25398631
v 0.12195307 -0.09903267 0.25389168
v 0.12363632 -0.09777816 0.25389945
v 0.12493585 -0.09624565 0.25388277
v 0.13259698 -0.09381242 0.25392553
v 0.12597185 -0.09401486 0.25382580
v 0.12692838 -0.09151099 0.25394327
v 0.13346227 -0.08965256 0.25392779
v 0.12758200 -0.08490937 0.25395625
v 0.13365244 -0.08487287 0.25387531
v 0.12695063 -0.07819885 0.25397403
v 0.13338669 -0.08012643 0.25386975
v 0.13258127 -0.07606031 0.25395966
v 0.12603841 -0.07561037 0.25392703
v 0.13120383 -0.07257460 0.25393962
v 0.12487430 -0.07360130 0.25393604
v 0.12364432 -0.07197367 0.25383488
v 0.12941020 -0.06956748 0.25395301
v 0.12194568 -0.07069286 0.25381569
v 0.11991493 -0.07004555 0.25388589
v 0.10866252 -0.06713310 0.25380164
v 0.12694685 -0.06704679 0.25396134
v 0.11142815 -0.06550048 0.25392587
v 0.12423597 -0.06545172 0.25383475
v 0.11433130 -0.06443961 0.25380030
v 0.12132394 -0.06441505 0.25381151
v 0.11785689 -0.06410872 0.25394102
v 0.11776714 -0.06398820 0.25394229
v 0.11442079 -0.06438796 0.25381124
v 0.12130910 -0.06440316 0.25383467
v 0.12427213 -0.06546802 0.25387198
v 0.11138843 -0.06546589 0.25379843
v 0.12689345 -0.06704090 0.25392422
v 0.10856772 -0.06720963 0.25385611
v 0.12939020 -0.06942575 0.25382288
v 0.10618835 -0.06961440 0.25395814
v 0.11786212 -0.06988053 0.25393364
v 0.11998396 -0.07002447 0.25394426
v 0.12198096 -0.07079752 0.25392608
v 0.12359420 -0.07186743 0.25391862
v 0.13114428 -0.07254699 0.25387225
v 0.12493034 -0.07353533 0.25389265
v 0.12612263 -0.07566014 0.25379876
v 0.13265830 -0.07610810 0.25379885
v 0.12676174 -0.07825422 0.25385431
v 0.13342284 -0.08018546 0.25381969
v 0.13366371 -0.08486347 0.25397533
v 0.12754998 -0.08492563 0.25385287
v 0.13340669 -0.08960179 0.25397986
v 0.12686970 -0.09147267 0.25390554
v 0.13266713 -0.09380821 0.25396682
v 0.12614228 -0.09411430 0.25383511
v 0.12490486 -0.09625284 0.25384090
v 0.13118004 -0.09723526 0.25383824
v 0.12347962 -0.09778099 0.25393322
v 0.12192528 -0.09895483 0.25388742
v 0.11994758 -0.09965606 0.25398876
v 0.12931141 -0.10033562 0.25380942
v 0.11770519 -0.09987930 0.25386978
v 0.10609179 -0.10006309 0.25397123
v 0.10853926 -0.10263702 0.25387164
v 0.12693258 -0.10263054 0.25388287
v 0.11122745 -0.10427215 0.25393823
v 0.12422754 -0.10428264 0.25394940
v 0.11428876 -0.10528262 0.25388128
v 0.12129821 -0.10544129 0.25392992
v 0.11788691 -0.10571552 0.25380108
v 0.11559117 -0.07005872 0.25395099
v 0.11359498 -0.07077167 0.25385767
v 0.11207622 -0.07182849 0.25383789
v 0.10425959 -0.07246164 0.25395770
v 0.11051040 -0.07341698 0.25385847
v 0.10944400 -0.07563104 0.25382791
v 0.10295457 -0.07612990 0.25392559
v 0.10862383 -0.07812056 0.25384018
v 0.10221932 -0.08013668 0.25386958
v 0.10810170 -0.08492708 0.25385106
v 0.10178115 -0.08488914 0.25396657
v 0.10216353 -0.08952271 0.25386071
v 0.10877051 -0.09149885 0.25387565
v 0.10292483 -0.09350113 0.25397764
v 0.10946438 -0.09409694 0.25380622
v 0.11066923 -0.09622475 0.25384792
v 0.10428872 -0.09697954 0.25379316
v 0.11189812 -0.09775346 0.25392675
v 0.11358462 -0.09898984 0.25382045
v 0.11552565 -0.09976303 0.25391592
v 0.13344281 -0.08956732 0.25395708
v 0.13361851 -0.08486203 0.33111028
v 0.13337208 -0.08953748 0.33101924
v 0.13363520 -0.08482773 0.30563305
v 0.13372014 -0.08489978 0.25380716
v 0.13374013 -0.08493829 0.25392447
v 0.13340093 -0.08955091 0.25381340
v 0.13363621 -0.08491374 0.30574367
v 0.13361568 -0.08484510 0.33100871
v 0.13338338 -0.08966601 0.33095514
v 0.13249514 -0.09376546 0.25390069
v 0.13260320 -0.09375738 0.33095295
v 0.13264298 -0.09380523 0.25388860
v 0.13249874 -0.09361973 0.33103033
v 0.13128790 -0.09736683 0.25391873
v 0.13119426 -0.09720968 0.33106433
v 0.13120259 -0.09727185 0.25380903
v 0.13133027 -0.09723731 0.33108366
v 0.12926164 -0.10032724 0.25383981
v 0.12931202 -0.10019032 0.33110184
v 0.12942023 -0.10035315 0.25397863
v 0.12930153 -0.10027665 0.33113906
v 0.12692909 -0.10254762 0.25381966
v 0.12698779 -0.10259555 0.33112617
v 0.12695827 -0.10262031 0.25390142
v 0.12694377 -0.10260488 0.33098828
v 0.12435829 -0.10434675 0.33096325
v 0.12432184 -0.10437392 0.25392551
v 0.12422665 -0.10435049 0.33102216
v 0.12434770 -0.10430053 0.25389846
v 0.12115748 -0.10538775 0.33111303
v 0.12117158 -0.10543814 0.25383792
v 0.12129843 -0.10532213 0.33108149
v 0.12130860 -0.10537628 0.25392616
v 0.11786360 -0.10575321 0.33110553
v 0.11774647 -0.10564176 0.25392586
v 0.11787562 -0.10560167 0.33110395
v 0.11785982 -0.10561822 0.25386614
v 0.11437189 -0.10531973 0.33097763
v 0.11424715 -0.10526344 0.25383345
v 0.11424945 -0.10539136 0.33103791
v 0.11422612 -0.10537501 0.25387908
v 0.11118205 -0.10430250 0.33103901
v 0.11108804 -0.10430079 0.25381420
v 0.11112421 -0.10419910 0.33105663
v 0.11113038 -0.10427010 0.25392025
v 0.10835793 -0.10263051 0.33096261
v 0.10851021 -0.10263034 0.25390977
v 0.10838289 -0.10255482 0.33113656
v 0.10839387 -0.10249370 0.25396388
v 0.10604657 -0.10000814 0.25380704
v 0.10611513 -0.10005154 0.33109598
v 0.10611179 -0.10013907 0.25385792
v 0.10605263 -0.10005670 0.33096582
v 0.10427058 -0.09700464 0.25391481
v 0.10425839 -0.09707922 0.33095324
v 0.10436252 -0.09696851 0.25382856
v 0.10423941 -0.09707155 0.33110165
v 0.10298801 -0.09342409 0.25397781
v 0.10302095 -0.09342100 0.33099355
v 0.10285457 -0.09345148 0.25397768
v 0.10292450 -0.09347424 0.33095180
v 0.10206343 -0.08954295 0.25387707
v 0.10208818 -0.08943502 0.33109271
v 0.10212597 -0.08950574 0.25391085
v 0.10207380 -0.08952717 0.33102876
v 0.10180727 -0.08486400 0.25390270
v 0.10187744 -0.08496814 0.33096232
v 0.10182927 -0.08486881 0.25384774
v 0.10178069 -0.08498914 0.33105649
v 0.10214604 -0.08025956 0.25391459
v 0.10205205 -0.08021976 0.33107350
v 0.10214062 -0.08024815 0.25386621
v 0.10205911 -0.08016425 0.33096393
v 0.10290674 -0.07619166 0.25392933
v 0.10297473 -0.07613716 0.33114559
v 0.10289824 -0.07621071 0.25396640
v 0.10291339 -0.07607210 0.33098045
v 0.10428451 -0.07256960 0.25384334
v 0.10441386 -0.07258729 0.33098288
v 0.10439611 -0.07249893 0.25390802
v 0.10439041 -0.07258073 0.33100816
v 0.10617351 -0.06948927 0.25397774
v 0.10615764 -0.06962554 0.33108231
v 0.10635183 -0.06959348 0.25387753
v 0.10624142 -0.06952030 0.33096417
v 0.10867822 -0.06712516 0.25388664
v 0.10870188 -0.06710500 0.33111447
v 0.10865998 -0.06712637 0.25394822
v 0.10856877 -0.06723344 0.33096291
v 0.11132011 -0.06534386 0.33109058
v 0.11129002 -0.06535825 0.25398796
v 0.11143020 -0.06548625 0.25379846
v 0.11132201 -0.06534532 0.33107112
v 0.11431773 -0.06437559 0.33105689
v 0.11438547 -0.06450953 0.25388820
v 0.11433770 -0.06448145 0.25393938
v 0.11436898 -0.06449797 0.33095426
v 0.11776217 -0.06416052 0.33114228
v 0.11789186 -0.06412605 0.25382193
v 0.11783841 -0.06408192 0.25394997
v 0.11781100 -0.06409364 0.33108758
v 0.12113276 -0.06437472 0.33114088
v 0.12123681 -0.06436997 0.25390000
v 0.12130146 -0.06436136 0.25387057
v 0.12129995 -0.06435459 0.33110256
v 0.12431763 -0.06549548 0.33113945
v 0.12428705 -0.06552085 0.25386134
v 0.12420115 -0.06547268 0.25391498
v 0.12437735 -0.06537592 0.33096129
v 0.12697622 -0.06708729 0.33101070
v 0.12692513 -0.06715400 0.25387682
v 0.12708055 -0.06706601 0.25391504
v 0.12689762 -0.06714869 0.33108640
v 0.12935942 -0.06957612 0.25391331
v 0.12924584 -0.06958260 0.33104420
v 0.12925876 -0.06948417 0.25397199
v 0.12929476 -0.06952523 0.33108840
v 0.13122909 -0.07249181 0.25395462
v 0.13127388 -0.07255635 0.33098822
v 0.13117686 -0.07250680 0.25392802
v 0.13126059 -0.07246566 0.33112061
v 0.13268075 -0.07617899 0.25398420
v 0.13263028 -0.07619184 0.33106634
v 0.13261310 -0.07602784 0.25388565
v 0.13248946 -0.07610009 0.33113030
v 0.13335094 -0.08014922 0.25387180
v 0.13334574 -0.08017268 0.33111931
v 0.13349761 -0.08017014 0.25395151
v 0.13330219 -0.08019963 0.33104392
v 0.12130509 -0.10533475 0.33103700
v 0.11423405 -0.10537391 0.33097778
v 0.11789968 -0.10564357 0.33098918
v 0.12421358 -0.10442874 0.33096100
v 0.11126894 -0.10425606 0.33106011
v 0.12700037 -0.10253832 0.33106534
v 0.10845345 -0.10254407 0.33096068
v 0.12938713 -0.10032865 0.33105530
v 0.10621857 -0.10013942 0.33110634
v 0.11778621 -0.09999067 0.33113500
v 0.12002386 -0.09976828 0.33113646
v 0.13122591 -0.09723505 0.33095115
v 0.12184142 -0.09896687 0.33111900
v 0.12363480 -0.09793635 0.33109964
v 0.12496601 -0.09623564 0.33104324
v 0.13260771 -0.09377037 0.33104723
v 0.12606025 -0.09410902 0.33111338
v 0.12694000 -0.09140524 0.33103934
v 0.13344960 -0.08961960 0.33097330
v 0.12755576 -0.08490402 0.33100434
v 0.13363574 -0.08484665 0.33095800
v 0.13339047 -0.08025896 0.33097111
v 0.12688981 -0.07815906 0.33106923
v 0.13250406 -0.07612739 0.33112220
v 0.12615918 -0.07562988 0.33108113
v 0.13121433 -0.07247476 0.33098465
v 0.12493660 -0.07354586 0.33113393
v 0.12360382 -0.07189667 0.33114302
v 0.12925899 -0.06951741 0.33109679
v 0.12201469 -0.07062710 0.33110035
v 0.12000354 -0.07000047 0.33100217
v 0.11773402 -0.06987960 0.33106654
v 0.10615869 -0.06946929 0.33106792
v 0.10859517 -0.06709486 0.33102648
v 0.12702487 -0.06716520 0.33099608
v 0.11123706 -0.06552895 0.33106917
v 0.12437197 -0.06549435 0.33094976
v 0.11441017 -0.06445604 0.33099687
v 0.12131274 -0.06443428 0.33113567
v 0.11775113 -0.06413296 0.33105788
v 0.11562602 -0.09965161 0.33114237
v 0.10426675 -0.09704392 0.33099498
v 0.11375606 -0.09910181 0.33111531
v 0.11194581 -0.09786485 0.33112183
v 0.11054592 -0.09612005 0.33109924
v 0.10295751 -0.09345051 0.33111184
v 0.10942795 -0.09403270 0.33112761
v 0.10876571 -0.09145254 0.33102821
v 0.10218654 -0.08953284 0.33112721
v 0.10812161 -0.08483296 0.33095971
v 0.10177921 -0.08480100 0.33111110
v 0.10875453 -0.07829693 0.33107371
v 0.10208711 -0.08027320 0.33106785
v 0.10300557 -0.07611330 0.33104716
v 0.10950560 -0.07560634 0.33110348
v 0.10436646 -0.07255538 0.33110033
v 0.11050952 -0.07359953 0.33110263
v 0.11205531 -0.07179085 0.33109433
v 0.11361838 -0.07072253 0.33113506
v 0.11557202 -0.07008483 0.33107361
v 0.11774219 -0.06968907 0.33100143
v 0.11553906 -0.07005981 0.33111320
v 0.10630730 -0.06955900 0.33113590
v 0.11367336 -0.07076220 0.33102088
v 0.11193490 -0.07184985 0.33097118
v 0.10435370 -0.07257783 0.33099273
v 0.11060846 -0.07347020 0.33095063
v 0.10945458 -0.07555140 0.33103533
v 0.10302600 -0.07616491 0.33106868
v 0.10865298 -0.07814198 0.33098976
v 0.10207401 -0.08021959 0.33097122
v 0.10186574 -0.08490918 0.33101783
v 0.10805832 -0.08490887 0.33105456
v 0.10213476 -0.08948304 0.33105181
v 0.10871679 -0.09140662 0.33105059
v 0.10302608 -0.09350022 0.33096753
v 0.10954952 -0.09397810 0.33105379
v 0.11065887 -0.09623611 0.33109329
v 0.10420947 -0.09704655 0.33097284
v 0.11194862 -0.09786996 0.33095733
v 0.11365674 -0.09896080 0.33102739
v 0.11565212 -0.09978098 0.33099798
v 0.11773043 -0.09997578 0.33111152
v 0.10612963 -0.09999590 0.33103458
v 0.11771070 -0.06400009 0.33099574
v 0.12122292 -0.06440931 0.33104956
v 0.11439833 -0.06442200 0.33099767
v 0.12438419 -0.06542224 0.33095995
v 0.11139664 -0.06541383 0.33105034
v 0.12697880 -0.06714289 0.33108339
v 0.10871556 -0.06721822 0.33101203
v 0.12938235 -0.06945256 0.33098952
v 0.12003776 -0.06999412 0.33108119
v 0.12188080 -0.07079213 0.33106284
v 0.12360797 -0.07196909 0.33113124
v 0.13127585 -0.07255103 0.33109292
v 0.12497901 -0.07352799 0.33114521
v 0.12601666 -0.07557649 0.33106119
v 0.13251066 -0.07611360 0.33098779
v 0.12689421 -0.07822693 0.33096788
v 0.13348452 -0.08030070 0.33104670
v 0.12754325 -0.08491105 0.33105905
v 0.13369596 -0.08479565 0.33104908
v 0.13345937 -0.08964454 0.33103487
v 0.12683814 -0.09150129 0.33097372
v 0.13266016 -0.09374476 0.33102739
v 0.12608362 -0.09416509 0.33106752
v 0.12485873 -0.09618192 0.33104313
v 0.13121639 -0.09718902 0.33103214
v 0.12364756 -0.09778297 0.33105586
v 0.12184074 -0.09908777 0.33099049
v 0.11988381 -0.09982563 0.33114053
v 0.12926515 -0.10027390 0.33096090
v 0.10847198 -0.10253743 0.33106104
v 0.12691838 -0.10261087 0.33114550
v 0.11114840 -0.10434084 0.33112007
v 0.12438259 -0.10433193 0.33096035
v 0.11422007 -0.10539729 0.33108704
v 0.12119863 -0.10534817 0.33112768
v 0.11771825 -0.10567867 0.33095281
vn 0 0 -1
vn 0 0 1
vn 0.9920711364105145 -0.12567760461255859 0
vn 0.9999999966936932 0.0000813179797311378 0
vn -0.9999999966936932 -0.0000813179797311378 0
vn -0.9920711364105145 0.12567760461255859 0
vn 0.9613486617955723 -0.2753338890581076 0
vn -0.9613486617955723 0.2753338890581076 0
vn 0.8942406332341811 -0.4475865166344167 0
vn -0.8942406332341811 0.4475865166344167 0
vn 0.7823368128750736 -0.6228556102504594 0
vn -0.7823368128750736 0.6228556102504594 0
vn 0.6249383221172863 -0.7806741276289558 0
vn -0.6249383221172863 0.7806741276289558 0
vn 0.42582570495500804 -0.9048052105285261 0
vn -0.42582570495500804 0.9048052105285261 0
vn 0.20796038901766933 -0.9781372483448424 0
vn -0.20796038901766933 0.9781372483448424 0
vn -0.00026279819092519835 -0.9999999654685549 0
vn 0.00026279819092519835 0.9999999654685549 0
vn -0.21032350935692606 -0.9776318434931356 0
vn 0.21032350935692606 0.9776318434931356 0
vn -0.43304302478581586 -0.9013732515913434 0
vn 0.43304302478581586 0.9013732515913434 0
vn -0.6374135100832891 -0.7705219121889403 0
vn 0.6374135100832891 0.7705219121889403 0
vn -0.7937256402354738 -0.6082759308346726 0
vn 0.7937256402354738 0.6082759308346726 0
vn -0.8990252955448891 -0.4378966978300073 0
vn 0.8990252955448891 0.4378966978300073 0
vn -0.9620395711060271 -0.2729099918033996 0
vn 0.9620395711060271 0.2729099918033996 0
vn -0.9920217038754667 -0.12606720049249853 0
vn 0.9920217038754667 0.12606720049249853 0
vn -0.9999999918111998 0.0001279749989520383 0
vn 0.9999999918111998 -0.0001279749989520383 0
vn -0.9918412703307105 0.12747899618667688 0
vn 0.9918412703307105 -0.12747899618667688 0
vn -0.9605179519907202 0.2782180150593281 0
vn 0.9605179519907202 -0.2782180150593281 0
vn -0.8930095655684763 0.45003768264802113 0
vn 0.8930095655684763 -0.45003768264802113 0
vn -0.7819346752313397 0.6233603802543589 0
vn 0.7819346752313397 -0.6233603802543589 0
vn -0.626395612394036 0.7795053154235065 0
vn 0.626395612394036 -0.7795053154235065 0
vn -0.4284955058387955 0.9035439123119334 0
vn 0.4284955058387955 -0.9035439123119334 0
vn -0.21005850387897293 0.9776888180541534 0
vn 0.21005850387897293 -0.9776888180541534 0
vn -0.0003185595156922158 0.9999999492599162 0
vn 0.0003185595156922158 -0.9999999492599162 0
vn 0.2092240082769762 0.9778677386847957 0
vn -0.2092240082769762 -0.9778677386847957 0
vn 0.42802790809643476 0.9037655170953305 0
vn -0.42802790809643476 -0.9037655170953305 0
vn 0.6273441988751561 0.7787420986036959 0
vn -0.6273441988751561 -0.7787420986036959 0
vn 0.7839658942699853 0.620803895462538 0
vn -0.7839658942699853 -0.620803895462538 0
vn 0.894778135182404 0.4465110175566773 0
vn -0.894778135182404 -0.4465110175566773 0
vn 0.9613773808687248 0.27523359452289003 0
vn -0.9613773808687248 -0.27523359452289003 0
vn 0.9920481534568467 0.12585889409517592 0
vn -0.9920481534568467 -0.12585889409517592 0
usemtl material_0_0
f 1//1 2//1 3//1
f 2//1 1//1 4//1
f 2//1 4//1 5//1
f 5//1 4//1 6//1
f 6//1 4//1 7//1
f 7//1 4//1 8//1
f 7//1 8//1 9//1
f 9//1 8//1 10//1
f 10//1 8//1 11//1
f 10//1 11//1 12//1
f 12//1 11//1 13//1
f 12//1 13//1 14//1
f 12//1 14//1 15//1
f 15//1 14//1 16//1
f 15//1 16//1 17//1
f 17//1 16//1 18//1
f 17//1 18//1 19//1
f 19//1 18//1 20//1
f 20//1 18//1 21//1
f 20//1 21//1 22//1
f 22//1 21//1 23//1
f 23//1 21//1 24//1
f 25//1 26//1 27//1
f 26//1 25//1 28//1
f 28//1 25//1 29//1
f 28//1 29//1 30//1
f 30//1 29//1 31//1
f 30//1 31//1 32//1
f 32//1 31//1 1//1
f 32//1 1//1 3//1
f 32//1 3//1 33//1
f 32//1 33//1 34//1
f 34//1 33//1 35//1
f 34//1 35//1 36//1
f 34//1 36//1 37//1
f 34//1 37//1 38//1
f 38//1 37//1 39//1
f 38//1 39//1 40//1
f 38//1 40//1 41//1
f 41//1 40//1 42//1
f 41//1 42//1 43//1
f 43//1 42//1 44//1
f 43//1 44//1 45//1
f 45//1 44//1 46//1
f 46//1 44//1 47//1
f 46//1 47//1 48//1
f 48//1 47//1 49//1
f 48//1 49//1 50//1
f 48//1 50//1 51//1
f 51//1 50//1 52//1
f 51//1 52//1 53//1
f 51//1 53//1 24//1
f 51//1 24//1 21//1
f 51//1 21//1 54//1
f 51//1 54//1 55//1
f 55//1 54//1 56//1
f 55//1 56//1 57//1
f 57//1 56//1 58//1
f 57//1 58//1 59//1
f 59//1 58//1 60//1
f 61//2 62//2 63//2
f 63//2 62//2 64//2
f 62//2 65//2 64//2
f 64//2 65//2 66//2
f 65//2 67//2 66//2
f 66//2 67//2 68//2
f 67//2 69//2 68//2
f 69//2 70//2 68//2
f 70//2 71//2 68//2
f 71//2 72//2 68//2
f 72//2 73//2 68//2
f 68//2 73//2 74//2
f 73//2 75//2 74//2
f 75//2 76//2 74//2
f 74//2 76//2 77//2
f 76//2 78//2 77//2
f 77//2 78//2 79//2
f 79//2 78//2 80//2
f 78//2 81//2 80//2
f 80//2 81//2 82//2
f 81//2 83//2 82//2
f 82//2 83//2 84//2
f 83//2 85//2 84//2
f 85//2 86//2 84//2
f 84//2 86//2 87//2
f 86//2 88//2 87//2
f 88//2 89//2 87//2
f 89//2 90//2 87//2
f 87//2 90//2 91//2
f 90//2 92//2 91//2
f 92//2 93//2 91//2
f 93//2 94//2 91//2
f 91//2 94//2 95//2
f 94//2 96//2 95//2
f 95//2 96//2 97//2
f 96//2 98//2 97//2
f 97//2 98//2 99//2
f 100//2 99//2 98//2
f 70//2 69//2 101//2
f 101//2 69//2 102//2
f 102//2 69//2 103//2
f 69//2 104//2 103//2
f 103//2 104//2 105//2
f 105//2 104//2 106//2
f 104//2 107//2 106//2
f 106//2 107//2 108//2
f 107//2 109//2 108//2
f 108//2 109//2 110//2
f 109//2 111//2 110//2
f 111//2 112//2 110//2
f 110//2 112//2 113//2
f 112//2 114//2 113//2
f 113//2 114//2 115//2
f 115//2 114//2 116//2
f 114//2 117//2 116//2
f 116//2 117//2 118//2
f 118//2 117//2 119//2
f 119//2 117//2 120//2
f 117//2 93//2 120//2
f 92//2 120//2 93//2
f 121//3 122//4 123//3
f 122//4 121//3 124//4
f 124//4 121//3 125//4
f 126//5 127//6 128//5
f 128//5 127//6 129//5
f 130//6 129//5 127//6
f 131//7 123//3 132//7
f 123//3 131//7 121//3
f 127//6 133//8 130//6
f 134//8 130//6 133//8
f 135//9 132//7 136//9
f 132//7 135//9 131//7
f 133//8 137//10 134//8
f 138//10 134//8 137//10
f 139//11 136//9 140//11
f 136//9 139//11 135//9
f 137//10 141//12 138//10
f 142//12 138//10 141//12
f 143//13 140//11 144//13
f 140//11 143//13 139//11
f 141//12 145//14 142//12
f 146//14 142//12 145//14
f 143//13 147//15 148//15
f 147//15 143//13 144//13
f 146//14 145//14 149//16
f 150//16 149//16 145//14
f 148//15 151//17 152//17
f 151//17 148//15 147//15
f 149//16 150//16 153//18
f 154//18 153//18 150//16
f 152//17 155//19 156//19
f 155//19 152//17 151//17
f 153//18 154//18 157//20
f 158//20 157//20 154//18
f 156//19 159//21 160//21
f 159//21 156//19 155//19
f 157//20 158//20 161//22
f 162//22 161//22 158//20
f 160//21 163//23 164//23
f 163//23 160//21 159//21
f 161//22 162//22 165//24
f 166//24 165//24 162//22
f 164//23 167//25 168//25
f 167//25 164//23 163//23
f 165//24 166//24 169//26
f 170//26 169//26 166//24
f 171//27 167//25 172//27
f 167//25 171//27 168//25
f 170//26 173//28 169//26
f 174//28 169//26 173//28
f 175//29 172//27 176//29
f 172//27 175//29 171//27
f 173//28 177//30 174//28
f 178//30 174//28 177//30
f 179//31 176//29 180//31
f 176//29 179//31 175//29
f 177//30 181//32 178//30
f 182//32 178//30 181//32
f 183//33 180//31 184//33
f 180//31 183//33 179//31
f 181//32 185//34 182//32
f 186//34 182//32 185//34
f 187//35 184//33 188//35
f 184//33 187//35 183//33
f 185//34 189//36 186//34
f 190//36 186//34 189//36
f 191//37 188//35 192//37
f 188//35 191//37 187//35
f 189//36 193//38 190//36
f 194//38 190//36 193//38
f 195//39 192//37 196//39
f 192//37 195//39 191//37
f 193//38 197//40 194//38
f 198//40 194//38 197//40
f 199//41 196//39 200//41
f 196//39 199//41 195//39
f 197//40 201//42 198//40
f 202//42 198//40 201//42
f 203//43 200//41 204//43
f 200//41 203//43 199//41
f 201//42 205//44 202//42
f 206//44 202//42 205//44
f 207//45 204//43 208//45
f 204//43 207//45 203//43
f 205//44 209//46 206//44
f 210//46 206//44 209//46
f 211//47 207//45 208//45
f 207//45 211//47 212//47
f 213//48 214//48 209//46
f 210//46 209//46 214//48
f 215//49 212//47 211//47
f 212//47 215//49 216//49
f 217//50 218//50 213//48
f 214//48 213//48 218//50
f 219//51 216//49 215//49
f 216//49 219//51 220//51
f 221//52 222//52 217//50
f 218//50 217//50 222//52
f 223//53 220//51 219//51
f 220//51 223//53 224//53
f 225//54 226//54 221//52
f 222//52 221//52 226//54
f 227//55 224//53 223//53
f 224//53 227//55 228//55
f 229//56 230//56 225//54
f 226//54 225//54 230//56
f 231//57 228//55 227//55
f 228//55 231//57 232//57
f 233//58 234//58 229//56
f 230//56 229//56 234//58
f 235//59 231//57 236//59
f 231//57 235//59 232//57
f 233//58 237//60 234//58
f 238//60 234//58 237//60
f 239//61 236//59 240//61
f 236//59 239//61 235//59
f 237//60 241//62 238//60
f 242//62 238//60 241//62
f 243//63 240//61 244//63
f 240//61 243//63 239//61
f 241//62 245//64 242//62
f 246//64 242//62 245//64
f 247//65 244//63 248//65
f 244//63 247//65 243//63
f 245//64 249//66 246//64
f 250//66 246//64 249//66
f 122//4 247//65 248//65
f 247//65 122//4 124//4
f 247//65 124//4 125//4
f 126//5 128//5 249//66
f 128//5 129//5 249//66
f 250//66 249//66 129//5
f 251//2 252//2 253//2
f 252//2 251//2 254//2
f 252//2 254//2 255//2
f 255//2 254//2 256//2
f 255//2 256//2 257//2
f 257//2 256//2 258//2
f 257//2 258//2 259//2
f 259//2 258//2 260//2
f 260//2 258//2 261//2
f 261//2 258//2 262//2
f 261//2 262//2 263//2
f 263//2 262//2 264//2
f 264//2 262//2 265//2
f 265//2 262//2 266//2
f 265//2 266//2 267//2
f 267//2 266//2 268//2
f 268//2 266//2 269//2
f 268//2 269//2 270//2
f 270//2 269//2 271//2
f 270//2 271//2 272//2
f 270//2 272//2 273//2
f 273//2 272//2 274//2
f 273//2 274//2 275//2
f 275//2 274//2 276//2
f 275//2 276//2 277//2
f 277//2 276//2 278//2
f 278//2 276//2 279//2
f 278//2 279//2 280//2
f 280//2 279//2 281//2
f 281//2 279//2 282//2
f 282//2 279//2 283//2
f 283//2 279//2 284//2
f 284//2 279//2 285//2
f 284//2 285//2 286//2
f 286//2 285//2 287//2
f 286//2 287//2 288//2
f 288//2 287//2 289//2
f 288//2 289//2 290//2
f 259//2 291//2 292//2
f 291//2 259//2 260//2
f 292//2 291//2 293//2
f 292//2 293//2 294//2
f 292//2 294//2 295//2
f 292//2 295//2 296//2
f 296//2 295//2 297//2
f 296//2 297//2 298//2
f 296//2 298//2 299//2
f 299//2 298//2 300//2
f 299//2 300//2 301//2
f 301//2 300//2 302//2
f 301//2 302//2 303//2
f 303//2 302//2 304//2
f 304//2 302//2 305//2
f 304//2 305//2 306//2
f 306//2 305//2 307//2
f 306//2 307//2 308//2
f 306//2 308//2 283//2
f 283//2 308//2 309//2
f 283//2 309//2 310//2
f 283//2 310//2 282//2
f 311//1 312//1 313//1
f 312//1 314//1 313//1
f 314//1 315//1 313//1
f 313//1 315//1 316//1
f 315//1 317//1 316//1
f 317//1 318//1 316//1
f 316//1 318//1 319//1
f 318//1 320//1 319//1
f 319//1 320//1 321//1
f 321//1 320//1 322//1
f 320//1 323//1 322//1
f 322//1 323//1 324//1
f 323//1 325//1 324//1
f 324//1 325//1 326//1
f 325//1 327//1 326//1
f 327//1 328//1 326//1
f 326//1 328//1 329//1
f 328//1 330//1 329//1
f 330//1 331//1 329//1
f 331//1 332//1 329//1
f 333//1 334//1 332//1
f 329//1 332//1 334//1
f 335//1 336//1 337//1
f 336//1 338//1 337//1
f 337//1 338//1 339//1
f 338//1 340//1 339//1
f 339//1 340//1 341//1
f 340//1 342//1 341//1
f 341//1 342//1 313//1
f 313//1 342//1 311//1
f 311//1 342//1 343//1
f 343//1 342//1 344//1
f 344//1 342//1 345//1
f 342//1 346//1 345//1
f 345//1 346//1 347//1
f 347//1 346//1 348//1
f 346//1 349//1 348//1
f 348//1 349//1 350//1
f 349//1 351//1 350//1
f 350//1 351//1 352//1
f 351//1 353//1 352//1
f 353//1 354//1 352//1
f 352//1 354//1 355//1
f 354//1 356//1 355//1
f 355//1 356//1 357//1
f 357//1 356//1 358//1
f 356//1 359//1 358//1
f 358//1 359//1 360//1
f 360//1 359//1 361//1
f 361//1 359//1 362//1
f 359//1 363//1 362//1
f 362//1 363//1 333//1
f 333//1 363//1 334//1
f 334//1 363//1 364//1
f 363//1 365//1 364//1
f 364//1 365//1 366//1
f 365//1 367//1 366//1
f 366//1 367//1 368//1
f 367//1 369//1 368//1
f 370//1 368//1 369//1
