# SSTK version 0.8.0
# 1
mtllib original-1.mtl
o #ID5
v -0.12699135 -0.09561275 0.33103774
v -0.13031167 -0.09268716 0.25379896
v -0.13035405 -0.09263508 0.33099416
v -0.12700286 -0.09559013 0.25398170
v -0.12705774 -0.09559559 0.25394170
v -0.12691516 -0.09549147 0.33100685
v -0.13034312 -0.09265557 0.25384642
v -0.13025664 -0.09269320 0.33109014
v -0.11999129 -0.10534225 0.25392980
v -0.11122927 -0.10529569 0.25396313
v -0.11527362 -0.10563920 0.25388998
v -0.12394015 -0.10428465 0.25397348
v -0.10802647 -0.10420987 0.25387360
v -0.13074701 -0.10149268 0.25389512
v -0.10531541 -0.10283756 0.25388271
v -0.10275839 -0.10082307 0.25397759
v -0.11570780 -0.09949947 0.25390157
v -0.11932393 -0.09897031 0.25379796
v -0.12316147 -0.09769711 0.25379947
v -0.12700944 -0.09547853 0.25385881
v -0.13074865 -0.09278948 0.25392207
v -0.13034028 -0.09279092 0.25386088
v -0.10094619 -0.09850321 0.25395799
v -0.11094677 -0.09892460 0.25392684
v -0.10923279 -0.09808025 0.25393890
v -0.09957127 -0.09571566 0.25392221
v -0.10778320 -0.09702587 0.25388668
v -0.10565238 -0.09419623 0.25390500
v -0.09878159 -0.09263926 0.25398436
v -0.10497108 -0.09074002 0.25382977
v -0.09857184 -0.08958182 0.25381018
v -0.10542898 -0.08791552 0.25384747
v -0.09900293 -0.08508811 0.25387118
v -0.10651974 -0.08560816 0.25392713
v -0.10831100 -0.08379122 0.25381788
v -0.10084818 -0.08130165 0.25393033
v -0.11082755 -0.08274003 0.25379913
v -0.11493619 -0.08146272 0.25397668
v -0.11953988 -0.08035694 0.25398323
v -0.10376799 -0.07839939 0.25391452
v -0.12384799 -0.07845091 0.25395395
v -0.12564514 -0.07727678 0.25390221
v -0.10798968 -0.07632218 0.25393810
v -0.12738113 -0.07558730 0.25385946
v -0.11270475 -0.07491674 0.25390168
v -0.12858875 -0.07377995 0.25398687
v -0.11766841 -0.07350371 0.25389156
v -0.12958793 -0.07160504 0.25390038
v -0.12025457 -0.07240020 0.25379819
v -0.12233641 -0.07078611 0.25398045
v -0.13023371 -0.06895706 0.25392640
v -0.12341781 -0.06844749 0.25389891
v -0.13038436 -0.06607629 0.25395238
v -0.12388083 -0.06539350 0.25399122
v -0.13022453 -0.06313500 0.25398376
v -0.12323204 -0.06193930 0.25383298
v -0.12927623 -0.06031706 0.25398961
v -0.12113985 -0.05937225 0.25380525
v -0.12789431 -0.05770981 0.25384950
v -0.11802750 -0.05761762 0.25385551
v -0.12591531 -0.05533733 0.25385030
v -0.11397419 -0.05715529 0.25380499
v -0.10348641 -0.06076537 0.25390068
v -0.10030191 -0.06289015 0.25396064
v -0.10079102 -0.06281393 0.25382372
v -0.10029153 -0.05443526 0.25380208
v -0.10668849 -0.05880436 0.25397133
v -0.11033228 -0.05751077 0.25382997
v -0.12351570 -0.05345065 0.25395136
v -0.10351445 -0.05302104 0.25387882
v -0.12074237 -0.05208242 0.25390936
v -0.10699023 -0.05204662 0.25380511
v -0.11777695 -0.05136572 0.25397755
v -0.11057016 -0.05125390 0.25381255
v -0.11442155 -0.05114994 0.25391555
v -0.11444545 -0.05098010 0.25380556
v -0.11786704 -0.05126251 0.25385006
v -0.11067444 -0.05129236 0.25381418
v -0.10696599 -0.05198017 0.25382508
v -0.12075140 -0.05219530 0.25384475
v -0.10341113 -0.05296621 0.25385474
v -0.12351416 -0.05352491 0.25398943
v -0.10034794 -0.05456673 0.25396828
v -0.12586469 -0.05548644 0.25395633
v -0.11395260 -0.05709244 0.25379453
v -0.11022606 -0.05757906 0.25393158
v -0.10659237 -0.05875871 0.25391156
v -0.10332423 -0.06063731 0.25396862
v -0.10024930 -0.06289953 0.25383377
v -0.10082977 -0.06276216 0.25388588
v -0.11809277 -0.05765617 0.25396486
v -0.12796589 -0.05759665 0.25397218
v -0.12116686 -0.05939817 0.25397970
v -0.12938177 -0.06032728 0.25398937
v -0.12322973 -0.06211682 0.25382011
v -0.13012831 -0.06304877 0.25381942
v -0.12382716 -0.06547144 0.25381090
v -0.13044443 -0.06601790 0.25397032
v -0.12341705 -0.06843015 0.25386715
v -0.13021985 -0.06894684 0.25396189
v -0.12228592 -0.07061676 0.25381116
v -0.12963022 -0.07143932 0.25396667
v -0.12034519 -0.07243335 0.25392290
v -0.11755659 -0.07363102 0.25396910
v -0.12863927 -0.07371129 0.25390693
v -0.11265911 -0.07490995 0.25392940
v -0.12734150 -0.07553196 0.25391594
v -0.10790592 -0.07630071 0.25390231
v -0.12566061 -0.07712883 0.25392699
v -0.10372468 -0.07841311 0.25387688
v -0.12397026 -0.07843343 0.25394743
v -0.11950648 -0.08020636 0.25382944
v -0.10084105 -0.08139942 0.25399136
v -0.11483754 -0.08156202 0.25384034
v -0.11100354 -0.08257145 0.25381044
v -0.10835194 -0.08388383 0.25379579
v -0.09905322 -0.08501399 0.25387878
v -0.10646633 -0.08563328 0.25387553
v -0.10533454 -0.08784144 0.25389805
v -0.09844435 -0.08965621 0.25386740
v -0.10509143 -0.09063327 0.25393801
v -0.09883732 -0.09259215 0.25385000
v -0.10580249 -0.09430541 0.25383374
v -0.09960710 -0.09577541 0.25384155
v -0.10764807 -0.09714111 0.25384231
v -0.10925646 -0.09816224 0.25383733
v -0.10104691 -0.09837678 0.25395579
v -0.11096646 -0.09886286 0.25381469
v -0.11555965 -0.09945362 0.25382741
v -0.10279429 -0.10068075 0.25386392
v -0.13022436 -0.09270900 0.25383649
v -0.13086234 -0.09274338 0.25387907
v -0.12695600 -0.09560238 0.25388166
v -0.13072998 -0.10146957 0.25388280
v -0.12324002 -0.09774901 0.25398204
v -0.11941337 -0.09898034 0.25391517
v -0.10521415 -0.10287309 0.25388479
v -0.10801342 -0.10440317 0.25397150
v -0.12401274 -0.10443206 0.25394328
v -0.11129919 -0.10520505 0.25390240
v -0.11990424 -0.10530626 0.25387202
v -0.11525170 -0.10563056 0.25380225
v -0.13025125 -0.09274165 0.33107539
v -0.13076469 -0.09278237 0.25379803
v -0.13080559 -0.09272967 0.33096429
v -0.13038076 -0.09265950 0.25384675
v -0.13033671 -0.09275227 0.25384474
v -0.13038067 -0.09273453 0.33103142
v -0.13085351 -0.09270503 0.25383672
v -0.13082131 -0.09260998 0.33097632
v -0.10043451 -0.05455596 0.33104029
v -0.10089871 -0.06275448 0.33108784
v -0.10031644 -0.06275686 0.33105614
v -0.10343770 -0.06075147 0.33095343
v -0.10656047 -0.05879327 0.33098369
v -0.11031229 -0.05763951 0.33105747
v -0.11396232 -0.05718729 0.33106132
v -0.12591647 -0.05539938 0.33100602
v -0.12347025 -0.05353270 0.33100975
v -0.10341529 -0.05299427 0.33100213
v -0.12072460 -0.05224564 0.33111668
v -0.10691444 -0.05192865 0.33112052
v -0.11773550 -0.05133496 0.33103089
v -0.11056913 -0.05123211 0.33098177
v -0.11438441 -0.05110216 0.33099723
v -0.10103023 -0.09845309 0.33100701
v -0.11561366 -0.09943566 0.33112851
v -0.10283945 -0.10072986 0.33096336
v -0.11112222 -0.09895284 0.33110816
v -0.10928644 -0.09821165 0.33100653
v -0.09962378 -0.09562745 0.33097426
v -0.10764676 -0.09715209 0.33111772
v -0.10567106 -0.09433216 0.33099153
v -0.09881530 -0.09262576 0.33097159
v -0.10509230 -0.09063277 0.33111829
v -0.09850441 -0.08970212 0.33106017
v -0.10540589 -0.08796050 0.33101007
v -0.09900631 -0.08512502 0.33100991
v -0.10641808 -0.08566258 0.33103605
v -0.10818640 -0.08383007 0.33099249
v -0.10066852 -0.08139705 0.33113059
v -0.11097948 -0.08264236 0.33098146
v -0.11491216 -0.08152766 0.33105006
v -0.11941602 -0.08021342 0.33095585
v -0.10358150 -0.07851557 0.33104525
v -0.12384078 -0.07845725 0.33107391
v -0.12576238 -0.07720408 0.33101830
v -0.10790982 -0.07630610 0.33112342
v -0.12730095 -0.07561785 0.33105137
v -0.11263251 -0.07490128 0.33107359
v -0.12855970 -0.07380247 0.33097170
v -0.11761716 -0.07363724 0.33099493
v -0.12954126 -0.07160303 0.33112786
v -0.12022815 -0.07240122 0.33108909
v -0.12235073 -0.07062180 0.33097370
v -0.13014859 -0.06897277 0.33109608
v -0.12349113 -0.06843674 0.33106571
v -0.13048969 -0.06620795 0.33101088
v -0.12390551 -0.06535001 0.33102452
v -0.13021723 -0.06310667 0.33098470
v -0.12319476 -0.06192765 0.33105926
v -0.12923632 -0.06020319 0.33099776
v -0.12105590 -0.05930302 0.33105620
v -0.12795981 -0.05768434 0.33111819
v -0.11798149 -0.05771558 0.33103156
v -0.11113108 -0.10514137 0.33111642
v -0.11999525 -0.10526514 0.33104139
v -0.11511832 -0.10551790 0.33103002
v -0.12391160 -0.10430700 0.33114538
v -0.10787842 -0.10426947 0.33100339
v -0.13071084 -0.10140007 0.33108372
v -0.10525751 -0.10279942 0.33096903
v -0.11940927 -0.09908930 0.33106987
v -0.12315442 -0.09777866 0.33105443
v -0.12695874 -0.09548435 0.33109369
v -0.13080401 -0.09272544 0.33101783
v -0.13031492 -0.09270945 0.33106555
v -0.13028540 -0.09272461 0.33095960
v -0.12703663 -0.09550462 0.33105392
v -0.13073420 -0.09263724 0.33111084
v -0.13070386 -0.10142003 0.33100434
v -0.12319246 -0.09771744 0.33100288
v -0.11942133 -0.09910281 0.33094759
v -0.11572264 -0.09959351 0.33107704
v -0.10272186 -0.10085544 0.33107959
v -0.10532045 -0.10290053 0.33095209
v -0.10795098 -0.10420832 0.33097923
v -0.12404747 -0.10437219 0.33107660
v -0.11129920 -0.10527308 0.33101531
v -0.11996325 -0.10523177 0.33105483
v -0.11522185 -0.10556409 0.33106288
v -0.11396118 -0.05707553 0.33114654
v -0.11802356 -0.05771408 0.33102323
v -0.12596781 -0.05548332 0.33096285
v -0.12791921 -0.05774755 0.33101996
v -0.12105768 -0.05945089 0.33098324
v -0.12933952 -0.06015297 0.33108917
v -0.12311210 -0.06204700 0.33102388
v -0.13007933 -0.06295823 0.33113454
v -0.12382575 -0.06537598 0.33105927
v -0.13039613 -0.06617815 0.33101371
v -0.12344067 -0.06840736 0.33105496
v -0.13022343 -0.06895947 0.33104391
v -0.12217559 -0.07073715 0.33099251
v -0.12957453 -0.07144409 0.33103741
v -0.12034901 -0.07249154 0.33100544
v -0.11763226 -0.07353281 0.33109034
v -0.12858252 -0.07378570 0.33107002
v -0.11275553 -0.07486990 0.33095269
v -0.12731227 -0.07560262 0.33096617
v -0.10799992 -0.07634926 0.33112633
v -0.12572893 -0.07715885 0.33110999
v -0.10376135 -0.07839545 0.33106258
v -0.12389820 -0.07854071 0.33104363
v -0.11944463 -0.08032315 0.33097372
v -0.10069059 -0.08134032 0.33095745
v -0.11488308 -0.08146120 0.33097102
v -0.11101450 -0.08275355 0.33103148
v -0.10828483 -0.08383484 0.33112769
v -0.09903121 -0.08506486 0.33112578
v -0.10639703 -0.08558696 0.33114059
v -0.10531784 -0.08788442 0.33105385
v -0.09858421 -0.08952600 0.33103026
v -0.10499494 -0.09063052 0.33108990
v -0.09879812 -0.09268909 0.33095667
v -0.10577890 -0.09430993 0.33095754
v -0.09968929 -0.09578537 0.33100722
v -0.10769961 -0.09704652 0.33099559
v -0.10927780 -0.09812391 0.33110432
v -0.10094018 -0.09854711 0.33095236
v -0.11106224 -0.09882348 0.33106736
v -0.11435320 -0.05104338 0.33094813
v -0.11052569 -0.05126707 0.33105059
v -0.11772140 -0.05138520 0.33112617
v -0.10686344 -0.05195913 0.33097377
v -0.12081617 -0.05225818 0.33111779
v -0.10343128 -0.05308213 0.33108587
v -0.12355028 -0.05360294 0.33102298
v -0.10027522 -0.05454688 0.33103925
v -0.11033642 -0.05763549 0.33097742
v -0.10670746 -0.05883256 0.33098318
v -0.10348172 -0.06071844 0.33103234
v -0.10088861 -0.06285700 0.33100562
v -0.10025635 -0.06282242 0.33104344
v -0.12324521 -0.09776994 0.33109896
v -0.12321604 -0.09765825 0.25393477
v -0.12333263 -0.09771532 0.25381481
v -0.12322313 -0.09770483 0.33106533
v -0.11528090 -0.10559010 0.25398561
v -0.11986850 -0.10519601 0.33113581
v -0.11988752 -0.10523149 0.25379645
v -0.11509094 -0.10563443 0.33101347
v -0.11528111 -0.10548313 0.33098097
v -0.11513736 -0.10561853 0.25385319
v -0.12003390 -0.10516879 0.33111626
v -0.12002133 -0.10523785 0.25391941
v -0.12393867 -0.10430900 0.33096820
v -0.12403225 -0.10439926 0.25393980
v -0.12394722 -0.10444241 0.33095748
v -0.12395859 -0.10426579 0.25386718
v -0.13067821 -0.10136364 0.33107194
v -0.13086004 -0.10134936 0.25393035
v -0.13085367 -0.10143425 0.33100642
v -0.13085630 -0.10151636 0.25382127
v -0.13077405 -0.09268329 0.25395469
v -0.13084731 -0.10143470 0.33113481
v -0.13085490 -0.09276940 0.33104671
v -0.13078535 -0.10141197 0.25396391
v -0.13071295 -0.10150260 0.25381419
v -0.13069810 -0.09273052 0.25393663
v -0.13079496 -0.10148577 0.33098212
v -0.13075370 -0.09276231 0.33104859
v -0.11945041 -0.09898226 0.33103421
v -0.11931470 -0.09915900 0.25399008
v -0.11931156 -0.09898733 0.25380354
v -0.11946405 -0.09913432 0.33095018
v -0.11562902 -0.09947032 0.33096852
v -0.11554345 -0.09951592 0.25382387
v -0.11557448 -0.09945973 0.25379433
v -0.11563638 -0.09960204 0.33105076
v -0.11111469 -0.09896390 0.33103404
v -0.11108452 -0.09896429 0.25392515
v -0.11102639 -0.09882073 0.25396691
v -0.11108762 -0.09888560 0.33108347
v -0.10914230 -0.09813812 0.33095620
v -0.10914836 -0.09821768 0.25389979
v -0.10926210 -0.09813639 0.25395844
v -0.10915353 -0.09818200 0.33101843
v -0.10765386 -0.09707979 0.33101559
v -0.10780348 -0.09712835 0.25382269
v -0.10764706 -0.09707936 0.25381788
v -0.10782528 -0.09715038 0.33099503
v -0.10573040 -0.09434056 0.25383984
v -0.10576517 -0.09435876 0.33108884
v -0.10570082 -0.09424520 0.25387677
v -0.10570874 -0.09433686 0.33102806
v -0.10506986 -0.09072151 0.25397629
v -0.10510947 -0.09078753 0.33100207
v -0.10513731 -0.09067676 0.25395884
v -0.10500130 -0.09078723 0.33098699
v -0.10546296 -0.08795297 0.25392867
v -0.10538335 -0.08794000 0.33109723
v -0.10543827 -0.08784325 0.25398370
v -0.10538683 -0.08792074 0.33112254
v -0.10645200 -0.08564444 0.25382993
v -0.10635761 -0.08559106 0.33096119
v -0.10650016 -0.08561155 0.25388100
v -0.10651390 -0.08560649 0.33102691
v -0.10823720 -0.08387035 0.33113476
v -0.10832308 -0.08388388 0.25379779
v -0.10828362 -0.08388224 0.33108691
v -0.10829243 -0.08380699 0.25394735
v -0.11099000 -0.08265689 0.33110470
v -0.11097123 -0.08275271 0.25387568
v -0.11085594 -0.08264239 0.33111535
v -0.11094856 -0.08276197 0.25386531
v -0.11495074 -0.08157137 0.33109683
v -0.11487436 -0.08158748 0.25397411
v -0.11495210 -0.08150884 0.33107551
v -0.11483550 -0.08158758 0.25382140
v -0.11947941 -0.08031053 0.33108616
v -0.11950143 -0.08028281 0.25392819
v -0.11946874 -0.08025741 0.33102009
v -0.11954570 -0.08028307 0.25379491
v -0.12396271 -0.07852854 0.33110958
v -0.12387700 -0.07853868 0.25398525
v -0.12382291 -0.07852146 0.33112157
v -0.12397118 -0.07845168 0.25389043
v -0.12564115 -0.07714374 0.33095715
v -0.12561540 -0.07720358 0.25381233
v -0.12568654 -0.07726961 0.33105886
v -0.12562472 -0.07727367 0.25396228
v -0.12732592 -0.07565978 0.33109810
v -0.12729434 -0.07557757 0.25393550
v -0.12733883 -0.07569863 0.33097314
v -0.12729585 -0.07552368 0.25395061
v -0.12857525 -0.07365715 0.25396807
v -0.12854318 -0.07371138 0.33112905
v -0.12865480 -0.07373288 0.25381960
v -0.12854881 -0.07374191 0.33104196
v -0.12954543 -0.07144462 0.25385336
v -0.12959973 -0.07151941 0.33105559
v -0.12962155 -0.07149293 0.25393526
v -0.12952133 -0.07157695 0.33107101
v -0.13015257 -0.06901037 0.25396299
v -0.13019856 -0.06905947 0.33113074
v -0.13017984 -0.06891666 0.25395786
v -0.13016309 -0.06893728 0.33096778
v -0.13047242 -0.06604440 0.25398007
v -0.13047401 -0.06604890 0.33109491
v -0.13039285 -0.06604137 0.25379567
v -0.13040090 -0.06607236 0.33095913
v -0.13003793 -0.06295248 0.25393149
v -0.13014267 -0.06305559 0.33114037
v -0.13018266 -0.06304751 0.25393503
v -0.13013550 -0.06312141 0.33097392
v -0.12934419 -0.06032239 0.25383692
v -0.12937613 -0.06032038 0.33098686
v -0.12936564 -0.06021491 0.25392036
v -0.12937580 -0.06018432 0.33112600
v -0.12789720 -0.05776012 0.25393278
v -0.12791202 -0.05767781 0.33112580
v -0.12778989 -0.05768381 0.25385663
v -0.12796193 -0.05766476 0.33097583
v -0.12590211 -0.05533550 0.25391250
v -0.12585047 -0.05541480 0.33113430
v -0.12590494 -0.05537412 0.25395066
v -0.12592163 -0.05538808 0.33108011
v -0.12345565 -0.05341103 0.33101393
v -0.12356786 -0.05350968 0.25391861
v -0.12360088 -0.05359984 0.25394447
v -0.12351560 -0.05343060 0.33109789
v -0.12088619 -0.05222633 0.33111565
v -0.12077531 -0.05217777 0.25398948
v -0.12082767 -0.05222757 0.25382331
v -0.12075915 -0.05211915 0.33102612
v -0.11780494 -0.05125609 0.33108734
v -0.11788138 -0.05128935 0.25392216
v -0.11774979 -0.05132086 0.25396351
v -0.11786528 -0.05126232 0.33102055
v -0.11440821 -0.05117641 0.33099237
v -0.11444966 -0.05098602 0.25395262
v -0.11448421 -0.05111358 0.25385967
v -0.11447768 -0.05104414 0.33102773
v -0.11065248 -0.05137088 0.33111406
v -0.11049388 -0.05127988 0.25390943
v -0.11059999 -0.05136990 0.25381454
v -0.11053477 -0.05122847 0.33106570
v -0.10696477 -0.05202497 0.33113227
v -0.10687627 -0.05192899 0.25390984
v -0.10699470 -0.05198918 0.25390588
v -0.10699067 -0.05186409 0.33098618
v -0.10357651 -0.05310025 0.33111016
v -0.10343845 -0.05297953 0.25383623
v -0.10344879 -0.05297887 0.25384308
v -0.10346766 -0.05303456 0.33099092
v -0.10036324 -0.05436767 0.33096385
v -0.10027421 -0.05451413 0.25388372
v -0.10035376 -0.05455760 0.25394884
v -0.10029549 -0.05447711 0.33107627
v -0.10035225 -0.06282521 0.33111150
v -0.10041438 -0.05440967 0.25389764
v -0.10024205 -0.05440755 0.33113314
v -0.10039744 -0.06282077 0.25394733
v -0.10028361 -0.06288305 0.25384468
v -0.10025653 -0.06282702 0.33113055
v -0.10031317 -0.05445893 0.25379700
v -0.10033392 -0.05445104 0.33113032
v -0.10029185 -0.06289107 0.25398813
v -0.10077109 -0.06289508 0.33108840
v -0.10089807 -0.06287712 0.25396494
v -0.10028122 -0.06293248 0.33096021
v -0.10025045 -0.06275709 0.33101566
v -0.10033629 -0.06282524 0.25389552
v -0.10072749 -0.06276242 0.33102218
v -0.10091422 -0.06280693 0.25396489
v -0.10072295 -0.06278699 0.25394109
v -0.10345798 -0.06058527 0.33095640
v -0.10342448 -0.06063431 0.25386977
v -0.10083697 -0.06277701 0.33099872
v -0.10087101 -0.06278172 0.33108725
v -0.10076894 -0.06275381 0.25386732
v -0.10342414 -0.06075881 0.33109402
v -0.10338273 -0.06068280 0.25387299
v -0.10667887 -0.05887097 0.33112340
v -0.10671318 -0.05885450 0.25386384
v -0.10662859 -0.05881736 0.33102212
v -0.10655151 -0.05887997 0.25386051
v -0.11020530 -0.05758398 0.33102351
v -0.11032587 -0.05746830 0.25396556
v -0.11030413 -0.05744458 0.33098314
v -0.11023820 -0.05763402 0.25393194
v -0.11395354 -0.05715295 0.33106552
v -0.11401754 -0.05718365 0.25398233
v -0.11400655 -0.05709314 0.33095672
v -0.11396489 -0.05717232 0.25385672
v -0.11798532 -0.05776741 0.33114381
v -0.11799583 -0.05775543 0.25386316
v -0.11805527 -0.05764891 0.33097133
v -0.11792526 -0.05762842 0.25384404
v -0.12116671 -0.05929996 0.33114478
v -0.12113641 -0.05930083 0.25386009
v -0.12122434 -0.05936708 0.33101606
v -0.12117394 -0.05932319 0.25395800
v -0.12309935 -0.06211156 0.25395050
v -0.12319881 -0.06195364 0.33114683
v -0.12310170 -0.06211120 0.25391301
v -0.12320512 -0.06198608 0.33095020
v -0.12378461 -0.06542307 0.25392683
v -0.12394224 -0.06537339 0.33105804
v -0.12379106 -0.06540337 0.25388851
v -0.12376555 -0.06539953 0.33112214
v -0.12338936 -0.06831776 0.25388969
v -0.12351211 -0.06839927 0.33095646
v -0.12346988 -0.06845803 0.25395824
v -0.12353559 -0.06845763 0.33110794
v -0.12228337 -0.07071744 0.25390519
v -0.12230731 -0.07075744 0.33100013
v -0.12227765 -0.07069582 0.25381373
v -0.12222913 -0.07077131 0.33105038
v -0.12038273 -0.07234849 0.33099888
v -0.12039649 -0.07232838 0.25383482
v -0.12040325 -0.07235597 0.25394764
v -0.12030204 -0.07233782 0.33102075
v -0.11760003 -0.07356351 0.33100788
v -0.11767319 -0.07356563 0.25385052
v -0.11757031 -0.07358780 0.25399183
v -0.11766041 -0.07361237 0.33101143
v -0.11264915 -0.07504625 0.33097752
v -0.11268332 -0.07494531 0.25386684
v -0.11265254 -0.07496512 0.25383538
v -0.11266320 -0.07495579 0.33103475
v -0.10787517 -0.07634497 0.33111322
v -0.10783829 -0.07638737 0.25398550
v -0.10787681 -0.07626211 0.25390468
v -0.10796315 -0.07641445 0.33107208
v -0.10372567 -0.07848017 0.33109432
v -0.10358579 -0.07851660 0.25394880
v -0.10363231 -0.07849887 0.25386217
v -0.10363792 -0.07843527 0.33109167
v -0.10070307 -0.08137155 0.25396399
v -0.10076961 -0.08132470 0.33107373
v -0.10076920 -0.08140189 0.25387612
v -0.10067636 -0.08142895 0.33110430
v -0.09910054 -0.08503084 0.33107105
v -0.09896479 -0.08504163 0.25383995
v -0.09902457 -0.08509832 0.25392300
v -0.09904061 -0.08506410 0.33102746
v -0.09845007 -0.08953772 0.25394764
v -0.09844040 -0.08952796 0.33098754
v -0.09845899 -0.08971331 0.25381720
v -0.09841483 -0.08963508 0.33096234
v -0.09879816 -0.09274948 0.25384784
v -0.09878163 -0.09266141 0.33105515
v -0.09883039 -0.09273648 0.25388622
v -0.09879201 -0.09268428 0.33107974
v -0.09959000 -0.09568994 0.25380993
v -0.09957519 -0.09559873 0.33106105
v -0.09961702 -0.09562569 0.25398122
v -0.09954695 -0.09564005 0.33101811
v -0.10095833 -0.09846535 0.25388081
v -0.10104966 -0.09856231 0.33112495
v -0.10088842 -0.09852237 0.25380461
v -0.10099070 -0.09845259 0.33101956
v -0.10275595 -0.10080204 0.25391750
v -0.10271629 -0.10074457 0.33101662
v -0.10269990 -0.10079744 0.25384418
v -0.10275294 -0.10080656 0.33103357
v -0.10526601 -0.10277890 0.33102626
v -0.10527947 -0.10281361 0.25387406
v -0.10530540 -0.10274814 0.33100854
v -0.10527055 -0.10285231 0.25384799
v -0.10806606 -0.10435757 0.33099618
v -0.10793525 -0.10439678 0.25382801
v -0.10795798 -0.10421357 0.33100871
v -0.10802005 -0.10439934 0.25381799
v -0.11126007 -0.10521197 0.33099371
v -0.11113141 -0.10519949 0.25379758
v -0.11127414 -0.10515164 0.33098154
v -0.11118641 -0.10517630 0.25390317
vn 0.5787769135803 0.8154859191343905 0
vn 0.6543864703306613 0.7561602657163221 0
vn -0.5787769135803 -0.8154859191343905 0
vn -0.6543864703306613 -0.7561602657163221 0
vn 0 0 -1
vn 0 0 1
vn 0 1 0
vn 0 -1 0
vn 0.4136865820220255 0.9104193604350327 0
vn -0.4136865820220255 -0.9104193604350327 0
vn 0.007899956959338757 -0.9999687948531397 0
vn -0.13949139759120327 -0.9902232829004036 0
vn -0.007899956959338757 0.9999687948531397 0
vn 0.13949139759120327 0.9902232829004036 0
vn -0.3062854093892942 -0.9519397291820699 0
vn 0.3062854093892942 0.9519397291820699 0
vn -0.3935717928502864 -0.9192938832999007 0
vn 0.3935717928502864 0.9192938832999007 0
vn -1 0 0
vn 1 0 0
vn 0.22342349297171143 0.9747214693379436 0
vn -0.22342349297171143 -0.9747214693379436 0
vn -0.006134081916222479 0.9999811863425456 0
vn 0.006134081916222479 -0.9999811863425456 0
vn -0.25963959639626477 0.9657055865962383 0
vn 0.25963959639626477 -0.9657055865962383 0
vn -0.4835176931895445 0.8753345876707154 0
vn 0.4835176931895445 -0.8753345876707154 0
vn -0.7047730928819855 0.7094327928349238 0
vn 0.7047730928819855 -0.7094327928349238 0
vn -0.9197084230134182 0.3926021098238924 0
vn 0.9197084230134182 -0.3926021098238924 0
vn -0.9995047749933952 0.0314675192127143 0
vn 0.9995047749933952 -0.0314675192127143 0
vn -0.9615472083443403 -0.2746397023833329 0
vn 0.9615472083443403 0.2746397023833329 0
vn -0.8120144471948292 -0.5836373339213968 0
vn 0.8120144471948292 0.5836373339213968 0
vn -0.5593913082819618 -0.8289037122721765 0
vn 0.5593913082819618 0.8289037122721765 0
vn -0.3481684897262008 -0.9374319723381406 0
vn 0.3481684897262008 0.9374319723381406 0
vn -0.2702095132007484 -0.9628015470364674 0
vn 0.2702095132007484 0.9628015470364674 0
vn -0.32093530635334766 -0.9471011187491454 0
vn 0.32093530635334766 0.9471011187491454 0
vn -0.47583648094877107 -0.879533764785804 0
vn 0.47583648094877107 0.879533764785804 0
vn -0.6384484140600005 -0.7696646169496622 0
vn 0.6384484140600005 0.7696646169496622 0
vn -0.7668247844766715 -0.6418564870064853 0
vn 0.7668247844766715 0.6418564870064853 0
vn -0.8719055566130346 -0.4896740756332873 0
vn 0.8719055566130346 0.4896740756332873 0
vn -0.9468290497597275 -0.3217370829281128 0
vn 0.9468290497597275 0.3217370829281128 0
vn -0.9882683083349659 -0.15272770128809168 0
vn 0.9882683083349659 0.15272770128809168 0
vn -0.9999439636660546 0.010586289615336775 0
vn 0.9999439636660546 -0.010586289615336775 0
vn -0.9817367812700674 0.1902442963704499 0
vn 0.9817367812700674 -0.1902442963704499 0
vn -0.9220590690587178 0.38704918701189706 0
vn 0.9220590690587178 -0.38704918701189706 0
vn -0.8218221721001033 0.5697440806578582 0
vn 0.8218221721001033 -0.5697440806578582 0
vn -0.692183017037047 0.7217220177641052 0
vn 0.692183017037047 -0.7217220177641052 0
vn -0.5351971771717857 0.8447271639691434 0
vn 0.5351971771717857 -0.8447271639691434 0
vn -0.3542850865392467 0.9351374644702664 0
vn 0.3542850865392467 -0.9351374644702664 0
vn -0.17063890533398712 0.9853336308004607 0
vn 0.17063890533398712 -0.9853336308004607 0
vn -0.012013170471719438 0.9999278392640227 0
vn 0.012013170471719438 -0.9999278392640227 0
vn 0.11761550114411123 0.993059209660038 0
vn -0.11761550114411123 -0.993059209660038 0
vn 0.23840790259382794 0.9711651105660726 0
vn -0.23840790259382794 -0.9711651105660726 0
vn 0.3569211987329851 0.9341344966839674 0
vn -0.3569211987329851 -0.9341344966839674 0
vn 0.41449870149391554 0.9100499032799564 0
vn -0.41449870149391554 -0.9100499032799564 0
vn -0.6398788211559683 -0.7684758254077018 0
vn -0.5720001232625992 -0.8202535333587849 0
vn 0.6398788211559683 0.7684758254077018 0
vn 0.5720001232625992 0.8202535333587849 0
vn -0.41870601715203276 -0.9081218372006488 0
vn 0.41870601715203276 0.9081218372006488 0
vn -0.22440979231822292 -0.9744948666420424 0
vn 0.22440979231822292 0.9744948666420424 0
vn 0.015031480314458645 -0.9998870209176415 0
vn -0.015031480314458645 0.9998870209176415 0
vn 0.3153407077985744 -0.9489785234688369 0
vn -0.3153407077985744 0.9489785234688369 0
vn 0.6493078131480515 -0.76052571540014 0
vn -0.6493078131480515 0.76052571540014 0
vn 0.9097337146209994 -0.4151922066728592 0
vn -0.9097337146209994 0.4151922066728592 0
vn 0.9994238868560794 -0.03393956955364384 0
vn -0.9994238868560794 0.03393956955364384 0
vn 0.9542992194732011 0.29885280609831866 0
vn -0.9542992194732011 -0.29885280609831866 0
vn 0.7881290848810006 0.6155099881924226 0
vn -0.7881290848810006 -0.6155099881924226 0
vn 0.5384928050947208 0.8426301079721866 0
vn -0.5384928050947208 -0.8426301079721866 0
vn 0.33695951342698444 0.9415191375171564 0
vn -0.33695951342698444 -0.9415191375171564 0
vn 0.27265538870546885 0.9621117601452908 0
vn -0.27265538870546885 -0.9621117601452908 0
vn 0.36076099933621963 0.9326582982839602 0
vn -0.36076099933621963 -0.9326582982839602 0
vn 0.582094992893307 0.8131207900727546 0
vn -0.582094992893307 -0.8131207900727546 0
vn 0.8225141879786261 0.5687445916875703 0
vn -0.8225141879786261 -0.5687445916875703 0
vn 0.9623967907436678 0.27164759738729344 0
vn -0.9623967907436678 -0.27164759738729344 0
vn 0.9998706180400936 0.016085620290223642 0
vn -0.9998706180400936 -0.016085620290223642 0
vn 0.9832711816301691 -0.1821476965970503 0
vn -0.9832711816301691 0.1821476965970503 0
vn 0.9341788882152353 -0.3568049954988675 0
vn -0.9341788882152353 0.3568049954988675 0
vn 0.847139716619132 -0.5313702104243864 0
vn -0.847139716619132 0.5313702104243864 0
vn 0.7172349352148124 -0.696831434213041 0
vn -0.7172349352148124 0.696831434213041 0
vn 0.5626398945940377 -0.8267020920568727 0
vn -0.5626398945940377 0.8267020920568727 0
vn 0.38002048747835177 -0.9249780695220379 0
vn -0.38002048747835177 0.9249780695220379 0
vn 0.17692130026372865 -0.9842250014671401 0
vn -0.17692130026372865 0.9842250014671401 0
usemtl material_0_0
f 1//1 2//2 3//2
f 2//2 1//1 4//1
f 5//3 6//3 7//4
f 8//4 7//4 6//3
f 9//5 10//5 11//5
f 10//5 9//5 12//5
f 10//5 12//5 13//5
f 13//5 12//5 14//5
f 13//5 14//5 15//5
f 15//5 14//5 16//5
f 16//5 14//5 17//5
f 17//5 14//5 18//5
f 18//5 14//5 19//5
f 19//5 14//5 20//5
f 20//5 14//5 21//5
f 20//5 21//5 22//5
f 17//5 23//5 16//5
f 23//5 17//5 24//5
f 23//5 24//5 25//5
f 23//5 25//5 26//5
f 26//5 25//5 27//5
f 26//5 27//5 28//5
f 26//5 28//5 29//5
f 29//5 28//5 30//5
f 29//5 30//5 31//5
f 31//5 30//5 32//5
f 31//5 32//5 33//5
f 33//5 32//5 34//5
f 33//5 34//5 35//5
f 33//5 35//5 36//5
f 36//5 35//5 37//5
f 36//5 37//5 38//5
f 36//5 38//5 39//5
f 36//5 39//5 40//5
f 40//5 39//5 41//5
f 40//5 41//5 42//5
f 40//5 42//5 43//5
f 43//5 42//5 44//5
f 43//5 44//5 45//5
f 45//5 44//5 46//5
f 45//5 46//5 47//5
f 47//5 46//5 48//5
f 47//5 48//5 49//5
f 49//5 48//5 50//5
f 50//5 48//5 51//5
f 50//5 51//5 52//5
f 52//5 51//5 53//5
f 52//5 53//5 54//5
f 54//5 53//5 55//5
f 54//5 55//5 56//5
f 56//5 55//5 57//5
f 56//5 57//5 58//5
f 58//5 57//5 59//5
f 58//5 59//5 60//5
f 60//5 59//5 61//5
f 60//5 61//5 62//5
f 63//5 64//5 65//5
f 64//5 63//5 66//5
f 66//5 63//5 67//5
f 66//5 67//5 68//5
f 66//5 68//5 62//5
f 66//5 62//5 61//5
f 66//5 61//5 69//5
f 66//5 69//5 70//5
f 70//5 69//5 71//5
f 70//5 71//5 72//5
f 72//5 71//5 73//5
f 72//5 73//5 74//5
f 74//5 73//5 75//5
f 76//6 77//6 78//6
f 78//6 77//6 79//6
f 77//6 80//6 79//6
f 79//6 80//6 81//6
f 80//6 82//6 81//6
f 81//6 82//6 83//6
f 82//6 84//6 83//6
f 84//6 85//6 83//6
f 85//6 86//6 83//6
f 86//6 87//6 83//6
f 87//6 88//6 83//6
f 83//6 88//6 89//6
f 90//6 89//6 88//6
f 85//6 84//6 91//6
f 84//6 92//6 91//6
f 91//6 92//6 93//6
f 92//6 94//6 93//6
f 93//6 94//6 95//6
f 94//6 96//6 95//6
f 95//6 96//6 97//6
f 96//6 98//6 97//6
f 97//6 98//6 99//6
f 98//6 100//6 99//6
f 99//6 100//6 101//6
f 100//6 102//6 101//6
f 101//6 102//6 103//6
f 103//6 102//6 104//6
f 102//6 105//6 104//6
f 104//6 105//6 106//6
f 105//6 107//6 106//6
f 106//6 107//6 108//6
f 107//6 109//6 108//6
f 108//6 109//6 110//6
f 109//6 111//6 110//6
f 111//6 112//6 110//6
f 110//6 112//6 113//6
f 112//6 114//6 113//6
f 114//6 115//6 113//6
f 115//6 116//6 113//6
f 113//6 116//6 117//6
f 116//6 118//6 117//6
f 118//6 119//6 117//6
f 117//6 119//6 120//6
f 119//6 121//6 120//6
f 120//6 121//6 122//6
f 121//6 123//6 122//6
f 122//6 123//6 124//6
f 123//6 125//6 124//6
f 125//6 126//6 124//6
f 124//6 126//6 127//6
f 126//6 128//6 127//6
f 128//6 129//6 127//6
f 130//6 127//6 129//6
f 131//6 132//6 133//6
f 132//6 134//6 133//6
f 133//6 134//6 135//6
f 135//6 134//6 136//6
f 136//6 134//6 129//6
f 129//6 134//6 130//6
f 130//6 134//6 137//6
f 137//6 134//6 138//6
f 134//6 139//6 138//6
f 138//6 139//6 140//6
f 139//6 141//6 140//6
f 142//6 140//6 141//6
f 143//7 144//7 145//7
f 144//7 143//7 146//7
f 147//8 148//8 149//8
f 150//8 149//8 148//8
f 151//6 152//6 153//6
f 152//6 151//6 154//6
f 154//6 151//6 155//6
f 155//6 151//6 156//6
f 156//6 151//6 157//6
f 157//6 151//6 158//6
f 158//6 151//6 159//6
f 159//6 151//6 160//6
f 159//6 160//6 161//6
f 161//6 160//6 162//6
f 161//6 162//6 163//6
f 163//6 162//6 164//6
f 163//6 164//6 165//6
f 166//6 167//6 168//6
f 167//6 166//6 169//6
f 169//6 166//6 170//6
f 170//6 166//6 171//6
f 170//6 171//6 172//6
f 172//6 171//6 173//6
f 173//6 171//6 174//6
f 173//6 174//6 175//6
f 175//6 174//6 176//6
f 175//6 176//6 177//6
f 177//6 176//6 178//6
f 177//6 178//6 179//6
f 179//6 178//6 180//6
f 180//6 178//6 181//6
f 180//6 181//6 182//6
f 182//6 181//6 183//6
f 183//6 181//6 184//6
f 184//6 181//6 185//6
f 184//6 185//6 186//6
f 186//6 185//6 187//6
f 187//6 185//6 188//6
f 187//6 188//6 189//6
f 189//6 188//6 190//6
f 189//6 190//6 191//6
f 191//6 190//6 192//6
f 191//6 192//6 193//6
f 193//6 192//6 194//6
f 193//6 194//6 195//6
f 193//6 195//6 196//6
f 196//6 195//6 197//6
f 196//6 197//6 198//6
f 198//6 197//6 199//6
f 198//6 199//6 200//6
f 200//6 199//6 201//6
f 200//6 201//6 202//6
f 202//6 201//6 203//6
f 202//6 203//6 204//6
f 204//6 203//6 205//6
f 204//6 205//6 158//6
f 158//6 205//6 157//6
f 206//6 207//6 208//6
f 207//6 206//6 209//6
f 209//6 206//6 210//6
f 209//6 210//6 211//6
f 211//6 210//6 212//6
f 211//6 212//6 168//6
f 211//6 168//6 167//6
f 211//6 167//6 213//6
f 211//6 213//6 214//6
f 211//6 214//6 215//6
f 211//6 215//6 216//6
f 216//6 215//6 217//6
f 218//5 219//5 220//5
f 220//5 219//5 221//5
f 219//5 222//5 221//5
f 222//5 223//5 221//5
f 223//5 224//5 221//5
f 224//5 225//5 221//5
f 225//5 226//5 221//5
f 226//5 227//5 221//5
f 221//5 227//5 228//5
f 227//5 229//5 228//5
f 228//5 229//5 230//5
f 231//5 230//5 229//5
f 232//5 233//5 234//5
f 234//5 233//5 235//5
f 233//5 236//5 235//5
f 235//5 236//5 237//5
f 236//5 238//5 237//5
f 237//5 238//5 239//5
f 238//5 240//5 239//5
f 239//5 240//5 241//5
f 240//5 242//5 241//5
f 241//5 242//5 243//5
f 242//5 244//5 243//5
f 243//5 244//5 245//5
f 244//5 246//5 245//5
f 246//5 247//5 245//5
f 245//5 247//5 248//5
f 247//5 249//5 248//5
f 248//5 249//5 250//5
f 249//5 251//5 250//5
f 250//5 251//5 252//5
f 251//5 253//5 252//5
f 252//5 253//5 254//5
f 254//5 253//5 255//5
f 253//5 256//5 255//5
f 255//5 256//5 257//5
f 257//5 256//5 258//5
f 258//5 256//5 259//5
f 256//5 260//5 259//5
f 259//5 260//5 261//5
f 261//5 260//5 262//5
f 260//5 263//5 262//5
f 262//5 263//5 264//5
f 263//5 265//5 264//5
f 264//5 265//5 266//5
f 265//5 267//5 266//5
f 266//5 267//5 268//5
f 268//5 267//5 269//5
f 267//5 270//5 269//5
f 269//5 270//5 271//5
f 271//5 270//5 224//5
f 225//5 224//5 270//5
f 272//5 273//5 274//5
f 273//5 275//5 274//5
f 274//5 275//5 276//5
f 275//5 277//5 276//5
f 276//5 277//5 278//5
f 277//5 279//5 278//5
f 278//5 279//5 234//5
f 234//5 279//5 232//5
f 232//5 279//5 280//5
f 280//5 279//5 281//5
f 281//5 279//5 282//5
f 282//5 279//5 283//5
f 284//5 283//5 279//5
f 285//9 4//1 1//1
f 4//1 285//9 286//9
f 287//10 288//10 5//3
f 6//3 5//3 288//10
f 289//11 290//12 291//12
f 290//12 289//11 292//11
f 293//13 294//13 295//14
f 296//14 295//14 294//13
f 291//12 297//15 298//15
f 297//15 291//12 290//12
f 295//14 296//14 299//16
f 300//16 299//16 296//14
f 298//15 301//17 302//17
f 301//17 298//15 297//15
f 299//16 300//16 303//18
f 304//18 303//18 300//16
f 305//19 306//19 307//19
f 306//19 305//19 308//19
f 309//20 310//20 311//20
f 312//20 311//20 310//20
f 313//21 286//9 285//9
f 286//9 313//21 314//21
f 315//22 316//22 287//10
f 288//10 287//10 316//22
f 317//23 314//21 313//21
f 314//21 317//23 318//23
f 319//24 320//24 315//22
f 316//22 315//22 320//24
f 321//25 318//23 317//23
f 318//23 321//25 322//25
f 323//26 324//26 319//24
f 320//24 319//24 324//26
f 325//27 322//25 321//25
f 322//25 325//27 326//27
f 327//28 328//28 323//26
f 324//26 323//26 328//28
f 329//29 326//27 325//27
f 326//27 329//29 330//29
f 331//30 332//30 327//28
f 328//28 327//28 332//30
f 333//31 329//29 334//31
f 329//29 333//31 330//29
f 331//30 335//32 332//30
f 336//32 332//30 335//32
f 337//33 334//31 338//33
f 334//31 337//33 333//31
f 335//32 339//34 336//32
f 340//34 336//32 339//34
f 341//35 338//33 342//35
f 338//33 341//35 337//33
f 339//34 343//36 340//34
f 344//36 340//34 343//36
f 345//37 342//35 346//37
f 342//35 345//37 341//35
f 343//36 347//38 344//36
f 348//38 344//36 347//38
f 345//37 349//39 350//39
f 349//39 345//37 346//37
f 348//38 347//38 351//40
f 352//40 351//40 347//38
f 350//39 353//41 354//41
f 353//41 350//39 349//39
f 351//40 352//40 355//42
f 356//42 355//42 352//40
f 354//41 357//43 358//43
f 357//43 354//41 353//41
f 355//42 356//42 359//44
f 360//44 359//44 356//42
f 358//43 361//45 362//45
f 361//45 358//43 357//43
f 359//44 360//44 363//46
f 364//46 363//46 360//44
f 362//45 365//47 366//47
f 365//47 362//45 361//45
f 363//46 364//46 367//48
f 368//48 367//48 364//46
f 366//47 369//49 370//49
f 369//49 366//47 365//47
f 367//48 368//48 371//50
f 372//50 371//50 368//48
f 370//49 373//51 374//51
f 373//51 370//49 369//49
f 371//50 372//50 375//52
f 376//52 375//52 372//50
f 377//53 373//51 378//53
f 373//51 377//53 374//51
f 376//52 379//54 375//52
f 380//54 375//52 379//54
f 381//55 378//53 382//55
f 378//53 381//55 377//53
f 379//54 383//56 380//54
f 384//56 380//54 383//56
f 385//57 382//55 386//57
f 382//55 385//57 381//55
f 383//56 387//58 384//56
f 388//58 384//56 387//58
f 389//59 386//57 390//59
f 386//57 389//59 385//57
f 387//58 391//60 388//58
f 392//60 388//58 391//60
f 393//61 390//59 394//61
f 390//59 393//61 389//59
f 391//60 395//62 392//60
f 396//62 392//60 395//62
f 397//63 394//61 398//63
f 394//61 397//63 393//61
f 395//62 399//64 396//62
f 400//64 396//62 399//64
f 401//65 398//63 402//65
f 398//63 401//65 397//63
f 399//64 403//66 400//64
f 404//66 400//64 403//66
f 405//67 402//65 406//67
f 402//65 405//67 401//65
f 403//66 407//68 404//66
f 408//68 404//66 407//68
f 409//69 405//67 406//67
f 405//67 409//69 410//69
f 411//70 412//70 407//68
f 408//68 407//68 412//70
f 413//71 410//69 409//69
f 410//69 413//71 414//71
f 415//72 416//72 411//70
f 412//70 411//70 416//72
f 417//73 414//71 413//71
f 414//71 417//73 418//73
f 419//74 420//74 415//72
f 416//72 415//72 420//74
f 421//75 418//73 417//73
f 418//73 421//75 422//75
f 423//76 424//76 419//74
f 420//74 419//74 424//76
f 425//77 422//75 421//75
f 422//75 425//77 426//77
f 427//78 428//78 423//76
f 424//76 423//76 428//78
f 429//79 426//77 425//77
f 426//77 429//79 430//79
f 431//80 432//80 427//78
f 428//78 427//78 432//80
f 433//81 430//79 429//79
f 430//79 433//81 434//81
f 435//82 436//82 431//80
f 432//80 431//80 436//82
f 437//83 434//81 433//81
f 434//81 437//83 438//83
f 439//84 440//84 435//82
f 436//82 435//82 440//84
f 441//20 442//20 443//20
f 442//20 441//20 444//20
f 445//19 446//19 447//19
f 448//19 447//19 446//19
f 449//8 450//8 451//8
f 450//8 449//8 452//8
f 453//7 454//7 455//7
f 456//7 455//7 454//7
f 457//85 458//86 459//86
f 458//86 457//85 460//85
f 461//87 462//87 463//88
f 464//88 463//88 462//87
f 459//86 465//89 466//89
f 465//89 459//86 458//86
f 463//88 464//88 467//90
f 468//90 467//90 464//88
f 466//89 469//91 470//91
f 469//91 466//89 465//89
f 467//90 468//90 471//92
f 472//92 471//92 468//90
f 470//91 473//93 474//93
f 473//93 470//91 469//91
f 471//92 472//92 475//94
f 476//94 475//94 472//92
f 474//93 477//95 478//95
f 477//95 474//93 473//93
f 475//94 476//94 479//96
f 480//96 479//96 476//94
f 478//95 481//97 482//97
f 481//97 478//95 477//95
f 479//96 480//96 483//98
f 484//98 483//98 480//96
f 485//99 481//97 486//99
f 481//97 485//99 482//97
f 484//98 487//100 483//98
f 488//100 483//98 487//100
f 489//101 486//99 490//101
f 486//99 489//101 485//99
f 487//100 491//102 488//100
f 492//102 488//100 491//102
f 493//103 490//101 494//103
f 490//101 493//103 489//101
f 491//102 495//104 492//102
f 496//104 492//102 495//104
f 497//105 494//103 498//105
f 494//103 497//105 493//103
f 495//104 499//106 496//104
f 500//106 496//104 499//106
f 501//107 497//105 498//105
f 497//105 501//107 502//107
f 503//108 504//108 499//106
f 500//106 499//106 504//108
f 505//109 502//107 501//107
f 502//107 505//109 506//109
f 507//110 508//110 503//108
f 504//108 503//108 508//110
f 509//111 506//109 505//109
f 506//109 509//111 510//111
f 511//112 512//112 507//110
f 508//110 507//110 512//112
f 513//113 510//111 509//111
f 510//111 513//113 514//113
f 515//114 516//114 511//112
f 512//112 511//112 516//114
f 517//115 514//113 513//113
f 514//113 517//115 518//115
f 519//116 520//116 515//114
f 516//114 515//114 520//116
f 521//117 517//115 522//117
f 517//115 521//117 518//115
f 519//116 523//118 520//116
f 524//118 520//116 523//118
f 525//119 521//117 522//117
f 521//117 525//119 526//119
f 527//120 528//120 523//118
f 524//118 523//118 528//120
f 529//121 525//119 530//121
f 525//119 529//121 526//119
f 527//120 531//122 528//120
f 532//122 528//120 531//122
f 533//123 530//121 534//123
f 530//121 533//123 529//121
f 531//122 535//124 532//122
f 536//124 532//122 535//124
f 537//125 534//123 538//125
f 534//123 537//125 533//123
f 535//124 539//126 536//124
f 540//126 536//124 539//126
f 541//127 538//125 542//127
f 538//125 541//127 537//125
f 539//126 543//128 540//126
f 544//128 540//126 543//128
f 545//129 542//127 546//129
f 542//127 545//129 541//127
f 543//128 547//130 544//128
f 548//130 544//128 547//130
f 545//129 549//131 550//131
f 549//131 545//129 546//129
f 548//130 547//130 551//132
f 552//132 551//132 547//130
f 550//131 553//133 554//133
f 553//133 550//131 549//131
f 551//132 552//132 555//134
f 556//134 555//134 552//132
f 554//133 557//135 558//135
f 557//135 554//133 553//133
f 555//134 556//134 559//136
f 560//136 559//136 556//134
f 558//135 292//11 289//11
f 292//11 558//135 557//135
f 559//136 560//136 293//13
f 294//13 293//13 560//136
