# SSTK version 0.8.0
# 6
mtllib original-6.mtl
o #ID37
v 0.07059938 -0.10018335 0.25385887
v 0.08023669 -0.09964393 0.25383525
v 0.08247268 -0.09994202 0.25395731
v 0.06891565 -0.09710829 0.25390796
v 0.07821078 -0.09906108 0.25381545
v 0.07659205 -0.09784661 0.25388373
v 0.07524316 -0.09609986 0.25384424
v 0.06749842 -0.09347043 0.25398115
v 0.07410941 -0.09407566 0.25380249
v 0.07320728 -0.09150030 0.25386994
v 0.06664599 -0.08947630 0.25396815
v 0.07258075 -0.08488071 0.25395165
v 0.06650783 -0.08498666 0.25398863
v 0.06666841 -0.08023187 0.25390942
v 0.07331374 -0.07824536 0.25389737
v 0.06756306 -0.07604675 0.25388562
v 0.07398108 -0.07567300 0.25395639
v 0.06881767 -0.07258986 0.25391713
v 0.07518232 -0.07354695 0.25398828
v 0.07657763 -0.07193638 0.25386706
v 0.07083764 -0.06954347 0.25388920
v 0.07828160 -0.07071710 0.25385102
v 0.08018345 -0.06995681 0.25389973
v 0.08231380 -0.06969922 0.25396653
v 0.07885229 -0.10536636 0.25392340
v 0.08579469 -0.10536851 0.25391400
v 0.08246957 -0.10577057 0.25380497
v 0.08889047 -0.10436588 0.25385424
v 0.07579701 -0.10436970 0.25396633
v 0.09165352 -0.10261666 0.25387758
v 0.07303405 -0.10262595 0.25379607
v 0.09393737 -0.10025238 0.25379613
v 0.08460885 -0.09982356 0.25396817
v 0.09578691 -0.09717465 0.25392301
v 0.08641111 -0.09900235 0.25391611
v 0.08819998 -0.09779399 0.25383652
v 0.08952259 -0.09612991 0.25396613
v 0.09709833 -0.09375192 0.25380250
v 0.09066284 -0.09406525 0.25394953
v 0.09146140 -0.09154043 0.25397073
v 0.09793604 -0.08951418 0.25383335
v 0.09201743 -0.08494111 0.25398985
v 0.09830617 -0.08479895 0.25383970
v 0.09139956 -0.07820826 0.25387713
v 0.09790305 -0.08020653 0.25389150
v 0.09723439 -0.07616351 0.25395459
v 0.09066207 -0.07557325 0.25381416
v 0.09588383 -0.07246728 0.25380883
v 0.08963198 -0.07350548 0.25393418
v 0.08812697 -0.07178420 0.25386894
v 0.09381102 -0.06942356 0.25383584
v 0.08654316 -0.07076812 0.25390797
v 0.08466437 -0.06993479 0.25389721
v 0.07318378 -0.06717831 0.25389818
v 0.09149820 -0.06711325 0.25397860
v 0.07591806 -0.06542972 0.25388551
v 0.08888411 -0.06545593 0.25397984
v 0.07896336 -0.06449600 0.25385203
v 0.08580643 -0.06436178 0.25380556
v 0.08241279 -0.06398779 0.25389517
v 0.08245407 -0.06414145 0.25387556
v 0.07887592 -0.06431481 0.25386440
v 0.08588612 -0.06442524 0.25392351
v 0.08884418 -0.06542848 0.25385606
v 0.07588732 -0.06534397 0.25382517
v 0.09161674 -0.06716749 0.25393443
v 0.07317356 -0.06718445 0.25387643
v 0.09398443 -0.06954148 0.25394556
v 0.07087153 -0.06953632 0.25397664
v 0.08246228 -0.06975861 0.25393257
v 0.08460447 -0.07005795 0.25392451
v 0.08656525 -0.07075861 0.25383954
v 0.08823481 -0.07180382 0.25380486
v 0.09575113 -0.07246853 0.25385746
v 0.08953378 -0.07358584 0.25386406
v 0.09067710 -0.07557844 0.25380129
v 0.09705860 -0.07616265 0.25391339
v 0.09146163 -0.07820926 0.25380468
v 0.09796518 -0.08027773 0.25382124
v 0.09832208 -0.08488220 0.25388820
v 0.09199888 -0.08493251 0.25393571
v 0.09793702 -0.08958075 0.25382378
v 0.09144536 -0.09156721 0.25395031
v 0.09716805 -0.09375359 0.25382420
v 0.09061522 -0.09418209 0.25395178
v 0.08949938 -0.09628034 0.25393344
v 0.09589179 -0.09720010 0.25382462
v 0.08806541 -0.09775439 0.25387874
v 0.08650006 -0.09894885 0.25398615
v 0.08462951 -0.09965905 0.25399199
v 0.09385754 -0.10018887 0.25385006
v 0.08239998 -0.10000982 0.25386085
v 0.07079308 -0.10014547 0.25383708
v 0.07294368 -0.10255982 0.25384707
v 0.09165890 -0.10259234 0.25393717
v 0.07570869 -0.10427012 0.25385152
v 0.08877474 -0.10432469 0.25398972
v 0.07876931 -0.10525692 0.25385209
v 0.08576495 -0.10526115 0.25382310
v 0.08245786 -0.10578401 0.25381456
v 0.08018238 -0.07001020 0.25386572
v 0.07831310 -0.07062578 0.25381788
v 0.07650525 -0.07178267 0.25383074
v 0.06886364 -0.07250446 0.25381328
v 0.07524979 -0.07349321 0.25397212
v 0.07414666 -0.07571698 0.25397476
v 0.06745209 -0.07601745 0.25383115
v 0.07319938 -0.07813758 0.25385106
v 0.06665614 -0.08023280 0.25398844
v 0.07259953 -0.08497312 0.25385068
v 0.06642778 -0.08479437 0.25379335
v 0.06666652 -0.08951044 0.25383000
v 0.07331943 -0.09143665 0.25384334
v 0.06742845 -0.09355162 0.25381025
v 0.07414652 -0.09397647 0.25396050
v 0.07508209 -0.09615376 0.25395206
v 0.06873801 -0.09705811 0.25397082
v 0.07662102 -0.09783767 0.25395012
v 0.07831144 -0.09905013 0.25388770
v 0.08018341 -0.09982099 0.25384017
v 0.09798266 -0.08965977 0.25381747
v 0.09831687 -0.08487406 0.33095539
v 0.09797228 -0.08967258 0.33095861
v 0.09816871 -0.08490591 0.25395837
v 0.09832344 -0.08481400 0.25388890
v 0.09787225 -0.08958453 0.25392434
v 0.09821912 -0.08485112 0.33105039
v 0.09796430 -0.08954253 0.33100582
v 0.09722802 -0.09376352 0.25396683
v 0.09712677 -0.09362159 0.33109170
v 0.09712396 -0.09378327 0.25382323
v 0.09709692 -0.09376776 0.33097811
v 0.09586423 -0.09720051 0.25380574
v 0.09576589 -0.09721516 0.33104519
v 0.09574529 -0.09723890 0.25383915
v 0.09577127 -0.09721349 0.33095429
v 0.09388606 -0.10026040 0.25392687
v 0.09391053 -0.10034892 0.33110334
v 0.09387119 -0.10035074 0.25392383
v 0.09390049 -0.10026104 0.33102336
v 0.09153019 -0.10262260 0.25393348
v 0.09153111 -0.10256463 0.33096489
v 0.09154010 -0.10262238 0.25387209
v 0.09153116 -0.10254047 0.33103873
v 0.08882142 -0.10432205 0.33113686
v 0.08888634 -0.10437964 0.25393861
v 0.08884135 -0.10425638 0.33095810
v 0.08880236 -0.10423894 0.25398093
v 0.08582539 -0.10525748 0.33099806
v 0.08580931 -0.10532427 0.25389874
v 0.08587606 -0.10531427 0.33100102
v 0.08576994 -0.10537298 0.25398775
v 0.08240553 -0.10558926 0.33110564
v 0.08231487 -0.10569675 0.25392167
v 0.08238509 -0.10575369 0.33112454
v 0.08231713 -0.10562796 0.25385387
v 0.07889078 -0.10536368 0.33114048
v 0.07876940 -0.10523806 0.25384715
v 0.07893947 -0.10540567 0.33112061
v 0.07893710 -0.10533052 0.25390704
v 0.07572813 -0.10430796 0.33103544
v 0.07579351 -0.10434316 0.25386126
v 0.07568493 -0.10429839 0.33099756
v 0.07569397 -0.10433383 0.25383913
v 0.07301347 -0.10258231 0.33101992
v 0.07295100 -0.10253940 0.25390016
v 0.07308065 -0.10247321 0.33112424
v 0.07296745 -0.10245159 0.25381286
v 0.07072303 -0.10018491 0.25386838
v 0.07064705 -0.10008178 0.33111830
v 0.07067870 -0.10002780 0.25394815
v 0.07077748 -0.10013770 0.33105668
v 0.06891923 -0.09694749 0.25384190
v 0.06876676 -0.09712001 0.33106038
v 0.06877465 -0.09710671 0.25386588
v 0.06878702 -0.09697757 0.33097357
v 0.06745618 -0.09339987 0.25387000
v 0.06751745 -0.09348340 0.33098929
v 0.06746240 -0.09344014 0.25396460
v 0.06759011 -0.09355107 0.33113339
v 0.06671401 -0.08942856 0.25396970
v 0.06676329 -0.08935320 0.33107303
v 0.06668459 -0.08950682 0.25392777
v 0.06667475 -0.08945285 0.33111791
v 0.06651679 -0.08488252 0.25395754
v 0.06640698 -0.08491437 0.33105313
v 0.06639529 -0.08483893 0.25381052
v 0.06635504 -0.08484664 0.33112924
v 0.06673201 -0.08020672 0.25388030
v 0.06671401 -0.08019190 0.33098565
v 0.06662699 -0.08022357 0.25398491
v 0.06664061 -0.08026097 0.33102274
v 0.06748430 -0.07602521 0.25399175
v 0.06744756 -0.07617228 0.33110924
v 0.06746915 -0.07608199 0.25389066
v 0.06755888 -0.07608941 0.33097462
v 0.06887742 -0.07260758 0.25380789
v 0.06895939 -0.07253696 0.33107412
v 0.06889850 -0.07250869 0.25388634
v 0.06895947 -0.07261971 0.33096643
v 0.07081115 -0.06953793 0.25379500
v 0.07074284 -0.06950500 0.33102926
v 0.07079994 -0.06958090 0.25386026
v 0.07081689 -0.06955311 0.33110736
v 0.07311906 -0.06717847 0.25387406
v 0.07315119 -0.06704849 0.33102739
v 0.07326153 -0.06705528 0.25383389
v 0.07327095 -0.06705916 0.33112050
v 0.07599874 -0.06552414 0.33099871
v 0.07584992 -0.06547183 0.25385766
v 0.07598150 -0.06547724 0.25396592
v 0.07591330 -0.06547202 0.33102869
v 0.07905485 -0.06433625 0.33095871
v 0.07903436 -0.06431622 0.25387227
v 0.07893491 -0.06435358 0.25388594
v 0.07894095 -0.06449027 0.33103833
v 0.08244263 -0.06397867 0.33105327
v 0.08235035 -0.06408865 0.25397488
v 0.08240693 -0.06399070 0.25386252
v 0.08229455 -0.06412919 0.33112451
v 0.08573963 -0.06447006 0.33107231
v 0.08570138 -0.06444592 0.25384962
v 0.08570002 -0.06436066 0.25381344
v 0.08584749 -0.06439236 0.33101245
v 0.08879252 -0.06547949 0.33104307
v 0.08881363 -0.06533701 0.25398409
v 0.08877930 -0.06537667 0.25391456
v 0.08887187 -0.06534961 0.33114688
v 0.09154959 -0.06715085 0.33095917
v 0.09149689 -0.06712737 0.25383927
v 0.09166209 -0.06710677 0.25383367
v 0.09163090 -0.06717994 0.33113192
v 0.09395716 -0.06942449 0.25382367
v 0.09387423 -0.06957174 0.33099596
v 0.09398143 -0.06946787 0.25390255
v 0.09396287 -0.06959915 0.33109043
v 0.09572720 -0.07262296 0.25393376
v 0.09586153 -0.07244700 0.33096801
v 0.09576073 -0.07253139 0.25382781
v 0.09580027 -0.07247126 0.33098599
v 0.09718898 -0.07617233 0.25396580
v 0.09719251 -0.07614858 0.33097089
v 0.09719788 -0.07599229 0.25379933
v 0.09709963 -0.07601755 0.33109610
v 0.09801405 -0.08023711 0.25393731
v 0.09800667 -0.08027495 0.33100863
v 0.09799097 -0.08013744 0.25386763
v 0.09803119 -0.08015629 0.33102744
v 0.08579927 -0.10532033 0.33109339
v 0.07884118 -0.10541301 0.33111571
v 0.08237576 -0.10565443 0.33111293
v 0.08890193 -0.10426873 0.33102487
v 0.07568498 -0.10425561 0.33111106
v 0.09149986 -0.10258169 0.33110987
v 0.07295116 -0.10252724 0.33098795
v 0.09398101 -0.10034202 0.33102506
v 0.07075198 -0.10011739 0.33105832
v 0.08234598 -0.09991723 0.33113220
v 0.08447623 -0.09973129 0.33106597
v 0.09571156 -0.09728440 0.33112184
v 0.08651243 -0.09911969 0.33109637
v 0.08813202 -0.09788302 0.33104467
v 0.08943392 -0.09627351 0.33099839
v 0.09705865 -0.09366899 0.33098129
v 0.09056633 -0.09402441 0.33108089
v 0.09141139 -0.09144097 0.33098183
v 0.09794918 -0.08955732 0.33105232
v 0.09204230 -0.08486987 0.33108121
v 0.09830158 -0.08492874 0.33102085
v 0.09788946 -0.08018363 0.33099072
v 0.09143239 -0.07825661 0.33112044
v 0.09718150 -0.07604414 0.33113367
v 0.09060069 -0.07568355 0.33104181
v 0.09576332 -0.07243321 0.33112995
v 0.08961663 -0.07358828 0.33100434
v 0.08812150 -0.07189390 0.33094833
v 0.09383812 -0.06951179 0.33107570
v 0.08642675 -0.07080536 0.33097400
v 0.08453697 -0.07010299 0.33103249
v 0.08242787 -0.06983696 0.33106044
v 0.07080861 -0.06958362 0.33095577
v 0.07322622 -0.06723732 0.33107981
v 0.09152821 -0.06722098 0.33098391
v 0.07590317 -0.06553371 0.33104883
v 0.08890655 -0.06549087 0.33104385
v 0.07904229 -0.06438521 0.33109453
v 0.08574496 -0.06439642 0.33099199
v 0.08233807 -0.06408308 0.33106963
v 0.08022139 -0.09978185 0.33112516
v 0.06875615 -0.09702142 0.33098361
v 0.07830837 -0.09897660 0.33095391
v 0.07649060 -0.09790562 0.33098592
v 0.07511696 -0.09608606 0.33107627
v 0.06742592 -0.09340505 0.33110744
v 0.07406235 -0.09406571 0.33099677
v 0.07319526 -0.09142615 0.33096238
v 0.06677728 -0.08953605 0.33103706
v 0.07271818 -0.08481266 0.33114646
v 0.06640608 -0.08482785 0.33095490
v 0.07325063 -0.07816911 0.33107176
v 0.06668788 -0.08020928 0.33106603
v 0.06755931 -0.07615112 0.33105610
v 0.07411420 -0.07555277 0.33108092
v 0.06891297 -0.07257913 0.33106150
v 0.07515721 -0.07345965 0.33104614
v 0.07650369 -0.07193762 0.33110526
v 0.07814696 -0.07068149 0.33109881
v 0.08018396 -0.06996745 0.33110080
v 0.08235882 -0.06985232 0.33111847
v 0.08021717 -0.06994502 0.33113327
v 0.07090597 -0.06959373 0.33112277
v 0.07823658 -0.07077711 0.33104470
v 0.07661476 -0.07198119 0.33107918
v 0.06890211 -0.07253479 0.33107112
v 0.07519093 -0.07345309 0.33106454
v 0.07404740 -0.07571349 0.33106427
v 0.06747390 -0.07611456 0.33101868
v 0.07316115 -0.07827599 0.33100246
v 0.06678592 -0.08024834 0.33101943
v 0.06653734 -0.08489516 0.33095029
v 0.07265308 -0.08494047 0.33101082
v 0.06679536 -0.08948214 0.33098007
v 0.07328209 -0.09141560 0.33104241
v 0.06740938 -0.09342852 0.33108146
v 0.07408474 -0.09398009 0.33095934
v 0.07513829 -0.09604395 0.33102005
v 0.06881606 -0.09705995 0.33106589
v 0.07650198 -0.09779608 0.33102810
v 0.07827224 -0.09904954 0.33097601
v 0.08016136 -0.09971538 0.33108705
v 0.08230265 -0.09988215 0.33095478
v 0.07075956 -0.10012300 0.33102124
v 0.08243918 -0.06409068 0.33095133
v 0.08586099 -0.06438713 0.33112196
v 0.07887484 -0.06448594 0.33108519
v 0.08888908 -0.06540534 0.33103266
v 0.07594611 -0.06547892 0.33110190
v 0.09155201 -0.06714449 0.33109903
v 0.07310798 -0.06708935 0.33113016
v 0.09386910 -0.06945829 0.33100029
v 0.08451074 -0.07005379 0.33105121
v 0.08646174 -0.07070065 0.33096709
v 0.08820924 -0.07189821 0.33095455
v 0.09590032 -0.07248160 0.33110198
v 0.08957749 -0.07353189 0.33098004
v 0.09056984 -0.07557501 0.33101960
v 0.09711214 -0.07612672 0.33102858
v 0.09134335 -0.07817412 0.33097201
v 0.09796466 -0.08019703 0.33101604
v 0.09204051 -0.08495674 0.33102411
v 0.09826382 -0.08479913 0.33112777
v 0.09796994 -0.08963319 0.33108939
v 0.09133918 -0.09144357 0.33100106
v 0.09717080 -0.09376692 0.33108006
v 0.09067928 -0.09399507 0.33112549
v 0.08950405 -0.09614755 0.33113443
v 0.09585576 -0.09727714 0.33113561
v 0.08809361 -0.09786972 0.33109413
v 0.08643440 -0.09910527 0.33097419
v 0.08464505 -0.09982403 0.33112307
v 0.09385049 -0.10020155 0.33104662
v 0.07312188 -0.10259248 0.33108691
v 0.09154215 -0.10257643 0.33097996
v 0.07577618 -0.10422500 0.33097299
v 0.08890316 -0.10439285 0.33098455
v 0.07892643 -0.10538922 0.33108144
v 0.08580509 -0.10528201 0.33103967
v 0.08230155 -0.10562096 0.33098027
vn 0 0 -1
vn 0 0 1
vn 0.9920711364105145 -0.12567760461255859 0
vn 0.9999999966936932 0.0000813179797311378 0
vn -0.9999999966936932 -0.0000813179797311378 0
vn -0.9920711364105145 0.12567760461255859 0
vn 0.9613486617955723 -0.2753338890581076 0
vn -0.9613486617955723 0.2753338890581076 0
vn 0.8942406332341811 -0.4475865166344167 0
vn -0.8942406332341811 0.4475865166344167 0
vn 0.7823368128750736 -0.6228556102504594 0
vn -0.7823368128750736 0.6228556102504594 0
vn 0.6249383221172863 -0.7806741276289558 0
vn -0.6249383221172863 0.7806741276289558 0
vn 0.42582570495500804 -0.9048052105285261 0
vn -0.42582570495500804 0.9048052105285261 0
vn 0.20796038901766933 -0.9781372483448424 0
vn -0.20796038901766933 0.9781372483448424 0
vn -0.00026279819092519835 -0.9999999654685549 0
vn 0.00026279819092519835 0.9999999654685549 0
vn -0.21032350935692606 -0.9776318434931356 0
vn 0.21032350935692606 0.9776318434931356 0
vn -0.43304302478581586 -0.9013732515913434 0
vn 0.43304302478581586 0.9013732515913434 0
vn -0.6374135100832891 -0.7705219121889403 0
vn 0.6374135100832891 0.7705219121889403 0
vn -0.7937256402354738 -0.6082759308346726 0
vn 0.7937256402354738 0.6082759308346726 0
vn -0.8990252955448891 -0.4378966978300073 0
vn 0.8990252955448891 0.4378966978300073 0
vn -0.9620395711060271 -0.2729099918033996 0
vn 0.9620395711060271 0.2729099918033996 0
vn -0.9920217038754667 -0.12606720049249853 0
vn 0.9920217038754667 0.12606720049249853 0
vn -0.9999999918111998 0.0001279749989520383 0
vn 0.9999999918111998 -0.0001279749989520383 0
vn -0.9918412703307105 0.12747899618667688 0
vn 0.9918412703307105 -0.12747899618667688 0
vn -0.9605179519907202 0.2782180150593281 0
vn 0.9605179519907202 -0.2782180150593281 0
vn -0.8930095655684763 0.45003768264802113 0
vn 0.8930095655684763 -0.45003768264802113 0
vn -0.7819346752313397 0.6233603802543589 0
vn 0.7819346752313397 -0.6233603802543589 0
vn -0.626395612394036 0.7795053154235065 0
vn 0.626395612394036 -0.7795053154235065 0
vn -0.4284955058387955 0.9035439123119334 0
vn 0.4284955058387955 -0.9035439123119334 0
vn -0.21005850387897293 0.9776888180541534 0
vn 0.21005850387897293 -0.9776888180541534 0
vn -0.0003185595156922158 0.9999999492599162 0
vn 0.0003185595156922158 -0.9999999492599162 0
vn 0.2092240082769762 0.9778677386847957 0
vn -0.2092240082769762 -0.9778677386847957 0
vn 0.42802790809643476 0.9037655170953305 0
vn -0.42802790809643476 -0.9037655170953305 0
vn 0.6273441988751561 0.7787420986036959 0
vn -0.6273441988751561 -0.7787420986036959 0
vn 0.7839658942699853 0.620803895462538 0
vn -0.7839658942699853 -0.620803895462538 0
vn 0.894778135182404 0.4465110175566773 0
vn -0.894778135182404 -0.4465110175566773 0
vn 0.9613773808687248 0.27523359452289003 0
vn -0.9613773808687248 -0.27523359452289003 0
vn 0.9920481534568467 0.12585889409517592 0
vn -0.9920481534568467 -0.12585889409517592 0
usemtl material_0_0
f 1//1 2//1 3//1
f 2//1 1//1 4//1
f 2//1 4//1 5//1
f 5//1 4//1 6//1
f 6//1 4//1 7//1
f 7//1 4//1 8//1
f 7//1 8//1 9//1
f 9//1 8//1 10//1
f 10//1 8//1 11//1
f 10//1 11//1 12//1
f 12//1 11//1 13//1
f 12//1 13//1 14//1
f 12//1 14//1 15//1
f 15//1 14//1 16//1
f 15//1 16//1 17//1
f 17//1 16//1 18//1
f 17//1 18//1 19//1
f 19//1 18//1 20//1
f 20//1 18//1 21//1
f 20//1 21//1 22//1
f 22//1 21//1 23//1
f 23//1 21//1 24//1
f 25//1 26//1 27//1
f 26//1 25//1 28//1
f 28//1 25//1 29//1
f 28//1 29//1 30//1
f 30//1 29//1 31//1
f 30//1 31//1 32//1
f 32//1 31//1 1//1
f 32//1 1//1 3//1
f 32//1 3//1 33//1
f 32//1 33//1 34//1
f 34//1 33//1 35//1
f 34//1 35//1 36//1
f 34//1 36//1 37//1
f 34//1 37//1 38//1
f 38//1 37//1 39//1
f 38//1 39//1 40//1
f 38//1 40//1 41//1
f 41//1 40//1 42//1
f 41//1 42//1 43//1
f 43//1 42//1 44//1
f 43//1 44//1 45//1
f 45//1 44//1 46//1
f 46//1 44//1 47//1
f 46//1 47//1 48//1
f 48//1 47//1 49//1
f 48//1 49//1 50//1
f 48//1 50//1 51//1
f 51//1 50//1 52//1
f 51//1 52//1 53//1
f 51//1 53//1 24//1
f 51//1 24//1 21//1
f 51//1 21//1 54//1
f 51//1 54//1 55//1
f 55//1 54//1 56//1
f 55//1 56//1 57//1
f 57//1 56//1 58//1
f 57//1 58//1 59//1
f 59//1 58//1 60//1
f 61//2 62//2 63//2
f 63//2 62//2 64//2
f 62//2 65//2 64//2
f 64//2 65//2 66//2
f 65//2 67//2 66//2
f 66//2 67//2 68//2
f 67//2 69//2 68//2
f 69//2 70//2 68//2
f 70//2 71//2 68//2
f 71//2 72//2 68//2
f 72//2 73//2 68//2
f 68//2 73//2 74//2
f 73//2 75//2 74//2
f 75//2 76//2 74//2
f 74//2 76//2 77//2
f 76//2 78//2 77//2
f 77//2 78//2 79//2
f 79//2 78//2 80//2
f 78//2 81//2 80//2
f 80//2 81//2 82//2
f 81//2 83//2 82//2
f 82//2 83//2 84//2
f 83//2 85//2 84//2
f 85//2 86//2 84//2
f 84//2 86//2 87//2
f 86//2 88//2 87//2
f 88//2 89//2 87//2
f 89//2 90//2 87//2
f 87//2 90//2 91//2
f 90//2 92//2 91//2
f 92//2 93//2 91//2
f 93//2 94//2 91//2
f 91//2 94//2 95//2
f 94//2 96//2 95//2
f 95//2 96//2 97//2
f 96//2 98//2 97//2
f 97//2 98//2 99//2
f 100//2 99//2 98//2
f 70//2 69//2 101//2
f 101//2 69//2 102//2
f 102//2 69//2 103//2
f 69//2 104//2 103//2
f 103//2 104//2 105//2
f 105//2 104//2 106//2
f 104//2 107//2 106//2
f 106//2 107//2 108//2
f 107//2 109//2 108//2
f 108//2 109//2 110//2
f 109//2 111//2 110//2
f 111//2 112//2 110//2
f 110//2 112//2 113//2
f 112//2 114//2 113//2
f 113//2 114//2 115//2
f 115//2 114//2 116//2
f 114//2 117//2 116//2
f 116//2 117//2 118//2
f 118//2 117//2 119//2
f 119//2 117//2 120//2
f 117//2 93//2 120//2
f 92//2 120//2 93//2
f 121//3 122//4 123//3
f 122//4 121//3 124//4
f 125//5 126//6 127//5
f 128//6 127//5 126//6
f 129//7 123//3 130//7
f 123//3 129//7 121//3
f 126//6 131//8 128//6
f 132//8 128//6 131//8
f 133//9 130//7 134//9
f 130//7 133//9 129//7
f 131//8 135//10 132//8
f 136//10 132//8 135//10
f 137//11 134//9 138//11
f 134//9 137//11 133//9
f 135//10 139//12 136//10
f 140//12 136//10 139//12
f 141//13 138//11 142//13
f 138//11 141//13 137//11
f 139//12 143//14 140//12
f 144//14 140//12 143//14
f 141//13 145//15 146//15
f 145//15 141//13 142//13
f 144//14 143//14 147//16
f 148//16 147//16 143//14
f 146//15 149//17 150//17
f 149//17 146//15 145//15
f 147//16 148//16 151//18
f 152//18 151//18 148//16
f 150//17 153//19 154//19
f 153//19 150//17 149//17
f 151//18 152//18 155//20
f 156//20 155//20 152//18
f 154//19 157//21 158//21
f 157//21 154//19 153//19
f 155//20 156//20 159//22
f 160//22 159//22 156//20
f 158//21 161//23 162//23
f 161//23 158//21 157//21
f 159//22 160//22 163//24
f 164//24 163//24 160//22
f 162//23 165//25 166//25
f 165//25 162//23 161//23
f 163//24 164//24 167//26
f 168//26 167//26 164//24
f 169//27 165//25 170//27
f 165//25 169//27 166//25
f 168//26 171//28 167//26
f 172//28 167//26 171//28
f 173//29 170//27 174//29
f 170//27 173//29 169//27
f 171//28 175//30 172//28
f 176//30 172//28 175//30
f 177//31 174//29 178//31
f 174//29 177//31 173//29
f 175//30 179//32 176//30
f 180//32 176//30 179//32
f 181//33 178//31 182//33
f 178//31 181//33 177//31
f 179//32 183//34 180//32
f 184//34 180//32 183//34
f 185//35 182//33 186//35
f 182//33 185//35 181//33
f 183//34 187//36 184//34
f 188//36 184//34 187//36
f 189//37 186//35 190//37
f 186//35 189//37 185//35
f 187//36 191//38 188//36
f 192//38 188//36 191//38
f 193//39 190//37 194//39
f 190//37 193//39 189//37
f 191//38 195//40 192//38
f 196//40 192//38 195//40
f 197//41 194//39 198//41
f 194//39 197//41 193//39
f 195//40 199//42 196//40
f 200//42 196//40 199//42
f 201//43 198//41 202//43
f 198//41 201//43 197//41
f 199//42 203//44 200//42
f 204//44 200//42 203//44
f 205//45 202//43 206//45
f 202//43 205//45 201//43
f 203//44 207//46 204//44
f 208//46 204//44 207//46
f 209//47 205//45 206//45
f 205//45 209//47 210//47
f 211//48 212//48 207//46
f 208//46 207//46 212//48
f 213//49 210//47 209//47
f 210//47 213//49 214//49
f 215//50 216//50 211//48
f 212//48 211//48 216//50
f 217//51 214//49 213//49
f 214//49 217//51 218//51
f 219//52 220//52 215//50
f 216//50 215//50 220//52
f 221//53 218//51 217//51
f 218//51 221//53 222//53
f 223//54 224//54 219//52
f 220//52 219//52 224//54
f 225//55 222//53 221//53
f 222//53 225//55 226//55
f 227//56 228//56 223//54
f 224//54 223//54 228//56
f 229//57 226//55 225//55
f 226//55 229//57 230//57
f 231//58 232//58 227//56
f 228//56 227//56 232//58
f 233//59 229//57 234//59
f 229//57 233//59 230//57
f 231//58 235//60 232//58
f 236//60 232//58 235//60
f 237//61 234//59 238//61
f 234//59 237//61 233//59
f 235//60 239//62 236//60
f 240//62 236//60 239//62
f 241//63 238//61 242//63
f 238//61 241//63 237//61
f 239//62 243//64 240//62
f 244//64 240//62 243//64
f 245//65 242//63 246//65
f 242//63 245//65 241//63
f 243//64 247//66 244//64
f 248//66 244//64 247//66
f 122//4 245//65 246//65
f 245//65 122//4 124//4
f 125//5 127//5 247//66
f 248//66 247//66 127//5
f 249//2 250//2 251//2
f 250//2 249//2 252//2
f 250//2 252//2 253//2
f 253//2 252//2 254//2
f 253//2 254//2 255//2
f 255//2 254//2 256//2
f 255//2 256//2 257//2
f 257//2 256//2 258//2
f 258//2 256//2 259//2
f 259//2 256//2 260//2
f 259//2 260//2 261//2
f 261//2 260//2 262//2
f 262//2 260//2 263//2
f 263//2 260//2 264//2
f 263//2 264//2 265//2
f 265//2 264//2 266//2
f 266//2 264//2 267//2
f 266//2 267//2 268//2
f 268//2 267//2 269//2
f 268//2 269//2 270//2
f 268//2 270//2 271//2
f 271//2 270//2 272//2
f 271//2 272//2 273//2
f 273//2 272//2 274//2
f 273//2 274//2 275//2
f 275//2 274//2 276//2
f 276//2 274//2 277//2
f 276//2 277//2 278//2
f 278//2 277//2 279//2
f 279//2 277//2 280//2
f 280//2 277//2 281//2
f 281//2 277//2 282//2
f 282//2 277//2 283//2
f 282//2 283//2 284//2
f 284//2 283//2 285//2
f 284//2 285//2 286//2
f 286//2 285//2 287//2
f 286//2 287//2 288//2
f 257//2 289//2 290//2
f 289//2 257//2 258//2
f 290//2 289//2 291//2
f 290//2 291//2 292//2
f 290//2 292//2 293//2
f 290//2 293//2 294//2
f 294//2 293//2 295//2
f 294//2 295//2 296//2
f 294//2 296//2 297//2
f 297//2 296//2 298//2
f 297//2 298//2 299//2
f 299//2 298//2 300//2
f 299//2 300//2 301//2
f 301//2 300//2 302//2
f 302//2 300//2 303//2
f 302//2 303//2 304//2
f 304//2 303//2 305//2
f 304//2 305//2 306//2
f 304//2 306//2 281//2
f 281//2 306//2 307//2
f 281//2 307//2 308//2
f 281//2 308//2 280//2
f 309//1 310//1 311//1
f 310//1 312//1 311//1
f 312//1 313//1 311//1
f 311//1 313//1 314//1
f 313//1 315//1 314//1
f 315//1 316//1 314//1
f 314//1 316//1 317//1
f 316//1 318//1 317//1
f 317//1 318//1 319//1
f 319//1 318//1 320//1
f 318//1 321//1 320//1
f 320//1 321//1 322//1
f 321//1 323//1 322//1
f 322//1 323//1 324//1
f 323//1 325//1 324//1
f 325//1 326//1 324//1
f 324//1 326//1 327//1
f 326//1 328//1 327//1
f 328//1 329//1 327//1
f 329//1 330//1 327//1
f 331//1 332//1 330//1
f 327//1 330//1 332//1
f 333//1 334//1 335//1
f 334//1 336//1 335//1
f 335//1 336//1 337//1
f 336//1 338//1 337//1
f 337//1 338//1 339//1
f 338//1 340//1 339//1
f 339//1 340//1 311//1
f 311//1 340//1 309//1
f 309//1 340//1 341//1
f 341//1 340//1 342//1
f 342//1 340//1 343//1
f 340//1 344//1 343//1
f 343//1 344//1 345//1
f 345//1 344//1 346//1
f 344//1 347//1 346//1
f 346//1 347//1 348//1
f 347//1 349//1 348//1
f 348//1 349//1 350//1
f 349//1 351//1 350//1
f 351//1 352//1 350//1
f 350//1 352//1 353//1
f 352//1 354//1 353//1
f 353//1 354//1 355//1
f 355//1 354//1 356//1
f 354//1 357//1 356//1
f 356//1 357//1 358//1
f 358//1 357//1 359//1
f 359//1 357//1 360//1
f 357//1 361//1 360//1
f 360//1 361//1 331//1
f 331//1 361//1 332//1
f 332//1 361//1 362//1
f 361//1 363//1 362//1
f 362//1 363//1 364//1
f 363//1 365//1 364//1
f 364//1 365//1 366//1
f 365//1 367//1 366//1
f 368//1 366//1 367//1
