# SSTK version 0.8.0
# 5
mtllib original-5.mtl
o #ID88
v 0.04908338 0.88750314 -0.04979898
v 0.06116130 0.88673327 -0.03392174
v 0.04981646 0.88673651 -0.05046173
v 0.06025548 0.88761544 -0.03346544
v 0.06796301 0.88673596 -0.01490261
v 0.06683105 0.88746909 -0.01473124
v 0.06188665 0.88590546 -0.03439980
v 0.05052702 0.88589673 -0.05119050
v 0.03436749 0.88758384 -0.06259688
v 0.03486024 0.88677326 -0.06354666
v 0.04832331 0.88827651 -0.04911205
v 0.05936949 0.88835890 -0.03304742
v 0.06958240 0.88670420 0.00256264
v 0.06839208 0.88746406 0.00267539
v 0.06972643 0.88667023 0.00538720
v 0.06876277 0.88762790 0.00530447
v 0.06886316 0.88581640 -0.01519894
v 0.06589295 0.88835419 -0.01437813
v 0.06264165 0.88503916 -0.03484681
v 0.05118002 0.88502377 -0.05176014
v 0.03534120 0.88589089 -0.06437776
v 0.01678917 0.88764217 -0.07108139
v 0.01713879 0.88671745 -0.07208746
v 0.03380126 0.88840359 -0.06173187
v 0.04752177 0.88913941 -0.04819628
v 0.05835690 0.88907387 -0.03247767
v 0.06553704 0.88765094 0.02494568
v 0.06642842 0.88668996 0.02527064
v 0.07037002 0.88596816 0.00245745
v 0.07073166 0.88595879 0.00538872
v 0.06742456 0.88843195 0.00276413
v 0.06772618 0.88833232 0.00529235
v 0.06959559 0.88496521 -0.01528008
v 0.06473987 0.88900974 -0.01412009
v 0.06331033 0.88407548 -0.03530838
v 0.05181570 0.88419263 -0.05235983
v 0.03586684 0.88505413 -0.06505160
v 0.01750266 0.88587227 -0.07296833
v -0.00203402 0.88747127 -0.07436078
v -0.00217272 0.88671455 -0.07548027
v 0.01645507 0.88828210 -0.06991029
v 0.03313693 0.88909074 -0.06070996
v 0.04666909 0.88978603 -0.04740409
v 0.05711998 0.88979765 -0.03185001
v 0.05738009 0.88747414 0.04319779
v 0.05821554 0.88680828 0.04370839
v 0.06740478 0.88583528 0.02553820
v 0.06451581 0.88843700 0.02466022
v 0.07114954 0.88499301 0.00238031
v 0.07150091 0.88496765 0.00538735
v 0.06631507 0.88912145 0.00297553
v 0.06645870 0.88907478 0.00514961
v 0.07041665 0.88404069 -0.01548470
v 0.06357189 0.88982304 -0.01394815
v 0.05095024 0.88264925 -0.05141958
v 0.06260383 0.88262371 -0.03427119
v 0.03630906 0.88410511 -0.06585479
v 0.01769081 0.88505091 -0.07372004
v -0.00215163 0.88579709 -0.07634817
v -0.02143809 0.88665525 -0.07357278
v -0.02133921 0.88755638 -0.07243904
v -0.00215882 0.88844156 -0.07317170
v 0.01609366 0.88909482 -0.06871866
v 0.03236543 0.88972307 -0.05952153
v 0.04560326 0.89054605 -0.04645341
v 0.05597621 0.89054677 -0.03119203
v 0.04508890 0.88756233 0.05857736
v 0.04580375 0.88667627 0.05945371
v 0.05906811 0.88597207 0.04437609
v 0.05652635 0.88838194 0.04258707
v 0.06807366 0.88503565 0.02593644
v 0.06334332 0.88912935 0.02437929
v 0.07206760 0.88408456 0.00248006
v 0.07221064 0.88403598 0.00542079
v 0.06506872 0.88974235 0.00301649
v 0.06529453 0.88978241 0.00514858
v 0.06943716 0.88274652 -0.01461047
v 0.06228770 0.89045008 -0.01357338
v 0.03547815 0.88262278 -0.06486081
v -0.04179320 0.88279818 -0.06786504
v -0.02281251 0.88272839 -0.07517293
v -0.02485727 0.88267265 -0.07526769
v -0.00272358 0.88276733 -0.07708387
v -0.00450018 0.88273931 -0.07812975
v -0.02488628 0.88265236 0.08190103
v -0.00861912 0.88264011 0.08358578
v -0.02844314 0.88265822 0.07992569
v -0.00466043 0.88272456 0.08460282
v 0.01569028 0.88265921 -0.07526224
v 0.01701970 0.88274074 -0.07358645
v 0.03453287 0.88276355 -0.06715280
v 0.03541206 0.88273320 -0.06494013
v 0.05071766 0.88281126 -0.05428665
v 0.05096432 0.88274207 -0.05144237
v 0.06322562 0.88273604 -0.03733839
v 0.06244103 0.88278401 -0.03426863
v 0.07092504 0.88275820 -0.01777524
v 0.06959866 0.88271674 -0.01471052
v 0.07366304 0.88275523 0.00332725
v 0.07107223 0.88275038 0.00323171
v 0.07140606 0.88270702 0.00631566
v 0.07103995 0.88268041 0.02440328
v 0.06805659 0.88262442 0.02695255
v 0.06320040 0.88278045 0.04398409
v 0.05960776 0.88273903 0.04601555
v 0.05077253 0.88266654 0.06077196
v 0.04681225 0.88273106 0.06206875
v 0.03463784 0.88277760 0.07369417
v 0.03039340 0.88274860 0.07423748
v 0.01576071 0.88265040 0.08176372
v 0.01137019 0.88262379 0.08154720
v -0.04674296 0.88280232 0.07126476
v -0.04368595 0.88265091 0.07361567
v 0.01786905 0.88414177 -0.07459624
v -0.00197814 0.88497885 -0.07731731
v -0.02172312 0.88587828 -0.07442291
v -0.03988773 0.88669645 -0.06652196
v -0.03929213 0.88762754 -0.06560092
v -0.02106599 0.88828758 -0.07148258
v -0.00230868 0.88915400 -0.07206957
v 0.01582601 0.88975852 -0.06753633
v 0.03173598 0.89043330 -0.05840536
v 0.04454051 0.89116905 -0.04546527
v 0.05477238 0.89107525 -0.03048886
v 0.02946836 0.88746182 0.07031042
v 0.02998978 0.88667935 0.07117266
v 0.04651302 0.88591985 0.06009734
v 0.04452021 0.88842348 0.05789171
v 0.05990830 0.88500644 0.04486637
v 0.05558149 0.88908204 0.04189422
v 0.06888317 0.88422421 0.02602601
v 0.06219264 0.88980893 0.02386779
v 0.07111099 0.88266906 0.00323375
v 0.07137885 0.88275632 0.00619097
v 0.06375609 0.89041480 0.00316753
v 0.06391691 0.89040776 0.00511197
v 0.06088549 0.89120799 -0.01326477
v 0.01702406 0.88261428 -0.07366046
v -0.04375136 0.83303106 -0.06721030
v -0.04370482 0.88274067 -0.06715700
v -0.02487510 0.83299864 -0.07532959
v -0.02281747 0.88277952 -0.07513796
v 0.01712866 0.88264672 -0.07366526
v -0.00277327 0.88273904 -0.07724014
v -0.04175252 0.88275839 -0.06783273
v 0.03532755 0.88263318 -0.06495647
v -0.05563358 0.88267529 -0.05770621
v 0.05079263 0.88271919 -0.05151590
v -0.05817104 0.88274796 -0.05580997
v -0.05857011 0.88279587 -0.05537921
v -0.05995970 0.88273826 -0.05421149
v -0.06154381 0.88274209 -0.05184605
v -0.06641980 0.88278660 -0.04540051
v 0.06258184 0.88264748 -0.03441322
v -0.07158362 0.88272018 -0.03850505
v -0.07239654 0.88272957 -0.03730547
v -0.07531257 0.88275309 -0.02964225
v 0.06960966 0.88266526 -0.01476909
v -0.07972655 0.88277321 -0.01882270
v -0.08018328 0.88268759 -0.01780204
v -0.08103536 0.88278431 -0.01068197
v 0.07105184 0.88263520 0.00307813
v -0.08258093 0.88267456 0.00194096
v -0.08288012 0.88274684 0.00330404
v 0.07131315 0.88265522 0.00626098
v -0.08185149 0.88270774 0.01087008
v 0.06794378 0.88275553 0.02694532
v -0.08031652 0.88273923 0.02272578
v -0.08004888 0.88279156 0.02426071
v -0.07665997 0.88278489 0.03324021
v 0.05967246 0.88275081 0.04591124
v -0.07315955 0.88261398 0.04174957
v -0.06484720 0.88263084 0.05423761
v 0.04683201 0.88268235 0.06204936
v -0.06231393 0.88264837 0.05776695
v -0.06162215 0.88267028 0.05834859
v -0.04671674 0.88279631 0.07123084
v 0.03041338 0.88278720 0.07431615
v -0.02849398 0.88266869 0.08002613
v 0.01135716 0.88265455 0.08156712
v -0.00855010 0.88262560 0.08359669
v -0.04099575 0.88407166 -0.06890319
v -0.02278003 0.88270672 -0.07528279
v -0.04174413 0.88278817 -0.06798270
v -0.02198198 0.88414787 -0.07619348
v -0.00275035 0.88278628 -0.07704722
v -0.00194465 0.88409317 -0.07804090
v 0.06794238 0.88267780 0.02682881
v 0.05963122 0.88280319 0.04597297
v 0.06041143 0.88412191 0.04514212
v 0.04674270 0.88267846 0.06203748
v 0.04763355 0.88416582 0.06140037
v 0.03110901 0.88413479 0.07342871
v 0.03038716 0.88277870 0.07416635
v 0.01217865 0.88421029 0.08086139
v 0.01145726 0.88280645 0.08161185
v -0.00792165 0.88410407 0.08271683
v -0.00857458 0.88261408 0.08355252
v -0.02770354 0.88412945 0.07921459
v -0.02841101 0.88279890 0.07990335
v -0.04596590 0.88408749 0.07053016
v -0.04687846 0.88274354 0.07122913
v -0.04379263 0.83313060 0.07365363
v -0.05984862 0.88267677 0.06074452
v -0.05989891 0.83313682 0.06070977
v -0.02481845 0.83307509 0.08179848
v -0.02842337 0.88271719 0.07996346
v -0.00453167 0.83316151 0.08456621
v 0.01576114 0.83316347 0.08190573
v 0.03461964 0.83317660 0.07365351
v 0.05076703 0.83310391 0.06086180
v 0.06328138 0.83307020 0.04387270
v 0.07090135 0.83311577 0.02439031
v 0.07364354 0.83307365 0.00322644
v 0.07094851 0.83299078 -0.01777710
v 0.06315096 0.83302190 -0.03729692
v 0.05072101 0.83299700 -0.05429076
v 0.03461356 0.83305633 -0.06718812
v 0.01565774 0.83303399 -0.07536695
v -0.00452108 0.83311022 -0.07802064
v -0.02284172 0.88276412 -0.07514733
v -0.02193347 0.88511376 -0.07542078
v -0.04029505 0.88580130 -0.06737559
v -0.05569481 0.88667344 -0.05479967
v -0.05508328 0.88747461 -0.05386328
v -0.03876883 0.88841060 -0.06456801
v -0.02080350 0.88916323 -0.07017311
v -0.00227364 0.88979777 -0.07078411
v 0.01539794 0.89056288 -0.06627295
v 0.03105104 0.89116023 -0.05730292
v 0.04351242 0.89175712 -0.04439340
v 0.05359464 0.89175204 -0.02991156
v 0.01144037 0.88757071 0.07723893
v 0.01156717 0.88682022 0.07821260
v 0.03038015 0.88585605 0.07198564
v 0.02892934 0.88835715 0.06915811
v 0.04702185 0.88502690 0.06069283
v 0.04356614 0.88914839 0.05699258
v 0.05454104 0.88990648 0.04136180
v 0.06088580 0.89050098 0.02349534
v 0.06245003 0.89106762 0.00338744
v 0.06259114 0.89113718 0.00499486
v 0.05963621 0.89168056 -0.01295345
v -0.05988603 0.83307558 -0.05425434
v -0.07224254 0.83312769 -0.03737501
v -0.08016988 0.83316673 -0.01773226
v -0.08279752 0.83315376 0.00326107
v -0.08006374 0.83316725 0.02431932
v -0.07237993 0.83305593 0.04399744
v -0.05849662 0.88272451 -0.05531906
v -0.05996499 0.88268673 -0.05432630
v -0.05824354 0.88273236 -0.05584579
v -0.05551009 0.88276294 -0.05780005
v -0.07228836 0.88275386 -0.03739606
v -0.06141728 0.88270683 -0.05201663
v -0.08020091 0.88272073 -0.01779808
v -0.08290717 0.88262340 0.00320507
v -0.08011148 0.88279648 0.02433342
v -0.07230989 0.88265557 0.04393985
v -0.06222147 0.88264051 0.05782853
v -0.06471345 0.88274166 0.05420034
v -0.06172329 0.88266326 0.05829911
v -0.05736166 0.88416243 -0.05664377
v -0.05564037 0.88277456 -0.05779078
v -0.05808778 0.88276388 -0.05583279
v -0.04053352 0.88499499 -0.06812212
v 0.03068925 0.88497362 0.07280045
v 0.01201089 0.88496639 0.08012449
v -0.00787328 0.88510711 0.08191604
v -0.02743231 0.88502705 0.07848456
v -0.04557714 0.88500386 0.06974544
v -0.06172702 0.88267108 0.05826978
v -0.06148709 0.88416760 0.05697562
v -0.06223046 0.88262036 0.05782866
v -0.05641378 0.88588689 -0.05547919
v -0.06809645 0.88680973 -0.03908949
v -0.06720359 0.88749298 -0.03844028
v -0.05424463 0.88844258 -0.05312438
v -0.03828115 0.88905471 -0.06350418
v -0.02041604 0.88978896 -0.06889736
v -0.00229608 0.89047113 -0.06930748
v 0.01500504 0.89108510 -0.06488924
v 0.03032408 0.89183354 -0.05604899
v 0.04251829 0.89232469 -0.04341556
v 0.05220900 0.89224197 -0.02908397
v -0.00778839 0.88751707 0.07902247
v -0.00770348 0.88669152 0.08003057
v 0.01191767 0.88598319 0.07912801
v 0.01115926 0.88830917 0.07615939
v 0.02845590 0.88918148 0.06820577
v 0.04286741 0.88979896 0.05589749
v 0.05337647 0.89042811 0.04049929
v 0.05959341 0.89121732 0.02303450
v 0.06095835 0.89167735 0.00353908
v 0.06127061 0.89174818 0.00493044
v 0.05820329 0.89233789 -0.01262507
v -0.05858078 0.88267279 -0.05529149
v -0.06146047 0.88268841 -0.05193431
v -0.07037796 0.88415650 -0.04049983
v -0.05997993 0.88266651 -0.05433207
v -0.07093225 0.88315736 -0.04078187
v -0.07937476 0.88313751 -0.02165206
v -0.07233234 0.88281137 -0.03746030
v -0.07544088 0.88276202 -0.02975942
v -0.07155360 0.88270358 -0.03846496
v -0.07084630 0.88324581 -0.04089090
v -0.06152350 0.88270540 -0.05189741
v -0.06629885 0.88278075 -0.04541921
v -0.08281100 0.88327131 -0.00077608
v -0.08016065 0.88262665 -0.01775308
v -0.08098508 0.88273434 -0.01072066
v -0.07979493 0.88275090 -0.01897024
v -0.08098033 0.88326836 0.02029495
v -0.08284220 0.88278396 0.00328183
v -0.08181732 0.88268747 0.01090359
v -0.08259399 0.88279116 0.00192925
v -0.07395283 0.88313589 0.04030852
v -0.08023721 0.88264644 0.02434194
v -0.07661984 0.88265052 0.03312591
v -0.08036889 0.88271822 0.02275751
v -0.05687590 0.88508337 -0.05611815
v -0.00776394 0.88584407 0.08103573
v -0.02717870 0.88584561 0.07763529
v -0.06097842 0.88502596 0.05661128
v -0.04522358 0.88595273 0.06905152
v -0.06891429 0.88581620 -0.03963411
v -0.07635373 0.88672951 -0.02055249
v -0.07524457 0.88758581 -0.02026009
v -0.06641235 0.88838638 -0.03801114
v -0.05351339 0.88917216 -0.05219858
v -0.03765941 0.88982301 -0.06241868
v -0.02020519 0.89045658 -0.06767897
v -0.00245998 0.89106108 -0.06798953
v 0.01469919 0.89173226 -0.06338503
v 0.02950154 0.89240624 -0.05468964
v -0.01935080 0.89227299 -0.06339470
v 0.01409351 0.89242197 -0.06208122
v -0.00241846 0.89231171 -0.06503594
v -0.03505206 0.89240029 -0.05732451
v -0.00798508 0.89223769 -0.05397976
v -0.02256204 0.89227105 -0.05220674
v -0.04895510 0.89237097 -0.04695889
v -0.03601955 0.89234465 -0.04690977
v -0.05961559 0.89234953 -0.03361533
v -0.04761523 0.89242626 -0.03822623
v -0.05649876 0.89238974 -0.02668882
v -0.06670783 0.89230106 -0.01746839
v -0.06228395 0.89230750 -0.01339132
v -0.06952637 0.89238662 -0.00024033
v -0.06441522 0.89243029 0.00090902
v -0.06802504 0.89235192 0.01727178
v -0.06260208 0.89227766 0.01548687
v -0.05723262 0.89224258 0.02888260
v -0.06211261 0.89229661 0.03389450
v -0.04856511 0.89233325 0.04058145
v -0.05243258 0.89235961 0.04817144
v -0.03707411 0.89241983 0.04955379
v -0.03930545 0.89233447 0.05938232
v -0.02382844 0.89240849 0.05530097
v -0.00935524 0.89231106 0.05726916
v 0.00624075 0.89229310 -0.05187243
v 0.01977203 0.89225832 -0.04623678
v 0.03100660 0.89233067 -0.03725829
v 0.03990508 0.89230846 -0.02550099
v 0.04522049 0.89239367 -0.01207313
v 0.05966694 0.89242297 0.00355341
v 0.04683820 0.89225286 0.00230001
v 0.04487273 0.89228556 0.01673117
v 0.05964923 0.89223954 0.00491991
v 0.05686639 0.89242673 0.02233533
v 0.03902739 0.89234729 0.03015755
v 0.04979814 0.89233601 0.03831410
v 0.03004127 0.89238831 0.04142212
v 0.03905209 0.89241015 0.05179107
v 0.01850400 0.89237382 0.05024748
v 0.00497080 0.89229945 0.05563121
v 0.02520852 0.89223447 0.06187082
v -0.02403368 0.89239441 0.06680679
v 0.00953380 0.89227947 0.06799102
v -0.00740081 0.89228564 0.06968923
v -0.02698674 0.88670931 0.07675146
v -0.02658450 0.88759056 0.07568754
v -0.00766887 0.88843515 0.07788943
v 0.01097201 0.88915744 0.07483029
v 0.02794936 0.88975621 0.06705647
v 0.04187173 0.89043751 0.05502233
v 0.05218411 0.89111211 0.03979896
v 0.05821293 0.89185312 0.02263960
v -0.07866256 0.88411144 -0.02131295
v -0.06975901 0.88496478 -0.03998069
v -0.08221793 0.88420400 -0.00069808
v -0.08019022 0.88416596 0.02023382
v -0.07319716 0.88413664 0.03994573
v -0.07258009 0.88506314 0.03953585
v -0.06033761 0.88598310 0.05583415
v -0.04478893 0.88669299 0.06823314
v -0.07709342 0.88580357 -0.02098633
v -0.07959066 0.88681157 -0.00059183
v -0.07860825 0.88751349 -0.00050692
v -0.07433740 0.88835400 -0.01992463
v -0.06536674 0.88910749 -0.03729790
v -0.05273954 0.88985339 -0.05126782
v -0.03709348 0.89056692 -0.06117610
v -0.01987372 0.89123390 -0.06628197
v -0.00250542 0.89173949 -0.06652321
v -0.02437794 0.89176378 0.06812050
v -0.00749177 0.89176229 0.07125028
v 0.00972082 0.89172216 0.06959651
v 0.02593210 0.89185309 0.06329400
v 0.04002487 0.89174369 0.05285013
v 0.05108509 0.89172676 0.03904213
v -0.01953628 0.89178507 -0.06483567
v -0.03588450 0.89170020 -0.05864591
v -0.04990967 0.89176232 -0.04823424
v -0.06082547 0.89171218 -0.03437110
v -0.06821053 0.89176239 -0.01803516
v -0.07097599 0.89179765 -0.00021213
v -0.06943425 0.89181132 0.01763785
v -0.06332753 0.89182037 0.03445201
v -0.05343095 0.89176664 0.04912295
v -0.04021957 0.89170253 0.06057759
v -0.04419319 0.88763926 0.06740666
v -0.02636902 0.88825023 0.07458715
v -0.00762355 0.88911531 0.07673713
v 0.01062642 0.88980563 0.07375750
v 0.02722693 0.89043567 0.06574558
v 0.04102282 0.89108894 0.05400942
v -0.07799653 0.88500717 -0.02120763
v -0.08136750 0.88498176 -0.00069251
v -0.07940726 0.88495486 0.02011038
v -0.07182261 0.88582781 0.03916347
v -0.05967959 0.88677886 0.05530009
v -0.08056739 0.88595247 -0.00073180
v -0.07784587 0.88665999 0.01955508
v -0.07671474 0.88754904 0.01947932
v -0.07753261 0.88842300 -0.00057968
v -0.07316305 0.88906995 -0.01958308
v -0.06435198 0.88977079 -0.03651012
v -0.05178302 0.89041028 -0.05020695
v -0.03645118 0.89121767 -0.05991421
v -0.02497014 0.89125053 0.06956084
v -0.00750829 0.89119067 0.07266338
v 0.01012119 0.89118852 0.07104372
v 0.02658091 0.89109580 0.06461779
v -0.05094047 0.89122643 -0.04920461
v -0.06210029 0.89106568 -0.03512067
v -0.06953626 0.89112095 -0.01848442
v -0.07240223 0.89110587 -0.00035917
v -0.07089802 0.89114595 0.01790822
v -0.06469847 0.89120106 0.03525243
v -0.05445434 0.89120169 0.05010716
v -0.04085944 0.89109117 0.06199212
v -0.05902205 0.88747563 0.05459687
v -0.04361919 0.88828947 0.06636701
v -0.02607260 0.88918082 0.07344075
v -0.00749331 0.88976802 0.07536706
v 0.01043372 0.89051980 0.07242623
v -0.07865430 0.88596977 0.01994039
v -0.07089691 0.88672337 0.03862375
v -0.07010863 0.88751672 0.03809606
v -0.07570461 0.88841811 0.01917563
v -0.07623008 0.88906555 -0.00038573
v -0.07196864 0.88986210 -0.01925330
v -0.06325014 0.89043209 -0.03584971
v -0.02529437 0.89050201 0.07090497
v -0.00756854 0.89049691 0.07401063
v -0.07075525 0.89042770 -0.01878296
v -0.07380287 0.89058187 -0.00043178
v -0.07218694 0.89057677 0.01831762
v -0.06588624 0.89045886 0.03593652
v -0.05537689 0.89058825 0.05125383
v -0.04161421 0.89048154 0.06310473
v -0.05821323 0.88838554 0.05370066
v -0.04289858 0.88916956 0.06544106
v -0.02561300 0.88983028 0.07216034
v -0.06917656 0.88832974 0.03770687
v -0.07451189 0.88909993 0.01885053
v -0.07511137 0.88989171 -0.00036017
v -0.07337260 0.88975799 0.01851915
v -0.06708611 0.88974595 0.03645500
v -0.05640426 0.88989225 0.05199995
v -0.04234576 0.88979417 0.06416913
v -0.05722709 0.88905140 0.05296133
v -0.06806144 0.88905774 0.03705350
vt 0.462369 0.8721627
vt 0.4797444 0.8717278
vt 0.4615843 0.8717278
vt 0.4802833 0.8721627
vt 0.5006172 0.8717278
vt 0.5008735 0.8721627
vt 0.4792472 0.8712783
vt 0.4608601 0.8712783
vt 0.4483514 0.8721627
vt 0.4473743 0.8717278
vt 0.4632122 0.8725817
vt 0.4808623 0.8725817
vt 0.519855 0.8717278
vt 0.5199613 0.8721627
vt 0.5227802 0.8717278
vt 0.5227365 0.8721627
vt 0.5003807 0.8712783
vt 0.5011489 0.8725817
vt 0.4787928 0.8708153
vt 0.4601985 0.8708153
vt 0.4464727 0.8712783
vt 0.4391859 0.8721627
vt 0.438083 0.8717278
vt 0.4494014 0.8725817
vt 0.4641117 0.8729837
vt 0.48148 0.8729837
vt 0.5443822 0.8721627
vt 0.544723 0.8717278
vt 0.519757 0.8712783
vt 0.5228206 0.8712783
vt 0.5200755 0.8725817
vt 0.5226895 0.8725817
vt 0.5001646 0.8708153
vt 0.5014427 0.8729837
vt 0.4783827 0.87034
vt 0.4596013 0.87034
vt 0.4456489 0.8708153
vt 0.4370653 0.8712783
vt 0.435497 0.8721627
vt 0.4343435 0.8717278
vt 0.440371 0.8725817
vt 0.4505214 0.8729837
vt 0.4650651 0.8733677
vt 0.4821347 0.8733677
vt 0.5643357 0.8721627
vt 0.5649503 0.8717278
vt 0.5450375 0.8712783
vt 0.544016 0.8725817
vt 0.5196674 0.8708153
vt 0.5228575 0.8708153
vt 0.5201973 0.8729837
vt 0.5226393 0.8729837
vt 0.4999695 0.87034
vt 0.5017541 0.8733677
vt 0.4605759 0.869587
vt 0.4793343 0.869587
vt 0.4449052 0.87034
vt 0.4361355 0.8708153
vt 0.433279 0.8712783
vt 0.4364106 0.8717278
vt 0.4375361 0.8721627
vt 0.4367365 0.8725817
vt 0.4416352 0.8729837
vt 0.4517084 0.8733677
vt 0.4660697 0.8737327
vt 0.4828246 0.8737327
vt 0.581237 0.8721627
vt 0.5820836 0.8717278
vt 0.5655175 0.8712783
vt 0.5636752 0.8725817
vt 0.5453248 0.8708153
vt 0.5436254 0.8729837
vt 0.5195865 0.87034
vt 0.5228907 0.87034
vt 0.5203265 0.8733677
vt 0.5225862 0.8733677
vt 0.5008947 0.869587
vt 0.5020822 0.8737327
vt 0.4458978 0.869587
vt 0.4425604 0.869587
vt 0.4345728 0.869587
vt 0.4344796 0.869587
vt 0.4324376 0.869587
vt 0.4314431 0.869587
vt 0.6066345 0.869587
vt 0.6084635 0.869587
vt 0.6046007 0.869587
vt 0.609671 0.869587
vt 0.4363003 0.869587
vt 0.4433821 0.869587
vt 0.457544 0.869587
vt 0.4760001 0.869587
vt 0.4974927 0.869587
vt 0.5205571 0.869587
vt 0.5204161 0.869587
vt 0.5237879 0.869587
vt 0.5436215 0.869587
vt 0.5464536 0.869587
vt 0.565114 0.869587
vt 0.5673472 0.869587
vt 0.5835701 0.869587
vt 0.5850449 0.869587
vt 0.597732 0.869587
vt 0.5983406 0.869587
vt 0.6063283 0.869587
vt 0.5950033 0.869587
vt 0.435296 0.87034
vt 0.4323065 0.8708153
vt 0.435372 0.8712783
vt 0.4441434 0.8717278
vt 0.4451643 0.8721627
vt 0.4387455 0.8725817
vt 0.4380587 0.8729837
vt 0.442975 0.8733677
vt 0.4529594 0.8737327
vt 0.467123 0.8740776
vt 0.4835479 0.8740776
vt 0.5939344 0.8721627
vt 0.5949552 0.8717278
vt 0.5828648 0.8712783
vt 0.5803273 0.8725817
vt 0.5660356 0.8708153
vt 0.5629707 0.8729837
vt 0.5455842 0.87034
vt 0.5432113 0.8733677
vt 0.5204625 0.8737327
vt 0.5225302 0.8737327
vt 0.5024263 0.8740776
vt 0.4433821 0.8431866
vt 0.4344796 0.8431866
vt 0.4537391 0.869587
vt 0.4558562 0.869587
vt 0.4563221 0.869587
vt 0.4600543 0.8696188
vt 0.4671814 0.869587
vt 0.4747977 0.869587
vt 0.4844114 0.869587
vt 0.496263 0.869587
vt 0.5053092 0.869587
vt 0.5191308 0.869587
vt 0.528865 0.869587
vt 0.5418121 0.869587
vt 0.5532963 0.869587
vt 0.5628231 0.869587
vt 0.5762981 0.869587
vt 0.5803252 0.869587
vt 0.5808799 0.869587
vt 0.4415638 0.87034
vt 0.4335663 0.87034
vt 0.4314285 0.87034
vt 0.5665035 0.87034
vt 0.5842229 0.87034
vt 0.5975349 0.87034
vt 0.6055323 0.87034
vt 0.6076701 0.87034
vt 0.6038026 0.87034
vt 0.5941935 0.87034
vt 0.597732 0.8431866
vt 0.5835701 0.8431866
vt 0.6066345 0.8431866
vt 0.609671 0.8431866
vt 0.565114 0.8431866
vt 0.5436215 0.8431866
vt 0.5205571 0.8431866
vt 0.4974927 0.8431866
vt 0.4760001 0.8431866
vt 0.457544 0.8431866
vt 0.4314431 0.8431866
vt 0.434423 0.8708153
vt 0.4432014 0.8712783
vt 0.4570151 0.8717278
vt 0.4578617 0.8721627
vt 0.4462612 0.8725817
vt 0.4400356 0.8729837
vt 0.43946 0.8733677
vt 0.444387 0.8737327
vt 0.4542709 0.8740776
vt 0.4682222 0.8744015
vt 0.4843027 0.8744015
vt 0.6015626 0.8721627
vt 0.6026881 0.8717278
vt 0.5958972 0.8712783
vt 0.5928374 0.8725817
vt 0.5835785 0.8708153
vt 0.5793569 0.8729837
vt 0.562224 0.8733677
vt 0.542775 0.8737327
vt 0.5206052 0.8740776
vt 0.5224715 0.8740776
vt 0.5027852 0.8744015
vt 0.4548758 0.87034
vt 0.4423408 0.8708153
vt 0.5967579 0.8708153
vt 0.6046756 0.8708153
vt 0.6067921 0.8708153
vt 0.6029632 0.8708153
vt 0.5934497 0.8708153
vt 0.5794974 0.87034
vt 0.4562339 0.8712783
vt 0.4741484 0.8717278
vt 0.474763 0.8721627
vt 0.4587714 0.8725817
vt 0.4474313 0.8729837
vt 0.441403 0.8733677
vt 0.4409369 0.8737327
vt 0.4458674 0.8740776
vt 0.4556395 0.8744015
vt 0.4693642 0.8747037
vt 0.485087 0.8747037
vt 0.6036017 0.8721627
vt 0.6047552 0.8717278
vt 0.6037267 0.8712783
vt 0.6003531 0.8725817
vt 0.5916673 0.8729837
vt 0.5783284 0.8733677
vt 0.5614371 0.8737327
vt 0.5423176 0.8740776
vt 0.5207541 0.8744015
vt 0.5224102 0.8744015
vt 0.5031583 0.8747037
vt 0.4725952 0.87034
vt 0.4721789 0.8698537
vt 0.4932836 0.8698537
vt 0.5161783 0.8698537
vt 0.5393027 0.8698537
vt 0.5610809 0.8698537
vt 0.4555201 0.8708153
vt 0.6058196 0.8712783
vt 0.6020334 0.8712783
vt 0.5789001 0.8708153
vt 0.592626 0.8712783
vt 0.4735812 0.8712783
vt 0.4943756 0.8717278
vt 0.4947164 0.8721627
vt 0.4754234 0.8725817
vt 0.4597418 0.8729837
vt 0.4486715 0.8733677
vt 0.442844 0.8737327
vt 0.4424852 0.8740776
vt 0.4474122 0.8744015
vt 0.4570615 0.8747037
vt 0.4475693 0.8747037
vt 0.4490172 0.8747037
vt 0.4457796 0.8747037
vt 0.4542643 0.8747037
vt 0.4578284 0.8747037
vt 0.4597111 0.8747037
vt 0.4654083 0.8747037
vt 0.4656212 0.8747037
vt 0.480242 0.8747037
vt 0.475156 0.8747037
vt 0.4876657 0.8747037
vt 0.4977544 0.8747037
vt 0.5022978 0.8747037
vt 0.5167521 0.8747037
vt 0.518055 0.8747037
vt 0.5359404 0.8747037
vt 0.5338637 0.8747037
vt 0.5486464 0.8747037
vt 0.5540117 0.8747037
vt 0.5613957 0.8747037
vt 0.5697344 0.8747037
vt 0.5712429 0.8747037
vt 0.5820371 0.8747037
vt 0.5775167 0.8747037
vt 0.5797897 0.8747037
vt 0.4601014 0.8747037
vt 0.4663752 0.8747037
vt 0.4762224 0.8747037
vt 0.4889717 0.8747037
vt 0.5037544 0.8747037
vt 0.5209087 0.8747037
vt 0.5195631 0.8747037
vt 0.5353203 0.8747037
vt 0.5223466 0.8747037
vt 0.5413443 0.8747037
vt 0.5499524 0.8747037
vt 0.5588567 0.8747037
vt 0.5624621 0.8747037
vt 0.5736903 0.8747037
vt 0.5719969 0.8747037
vt 0.577907 0.8747037
vt 0.5848344 0.8747037
vt 0.5900814 0.8747037
vt 0.5915294 0.8747037
vt 0.593319 0.8747037
vt 0.6010156 0.8717278
vt 0.5999128 0.8721627
vt 0.6023622 0.8725817
vt 0.599063 0.8729837
vt 0.5904271 0.8733677
vt 0.5772445 0.8737327
vt 0.5606121 0.8740776
vt 0.5418402 0.8744015
vt 0.4935144 0.87034
vt 0.473063 0.8708153
vt 0.5162079 0.87034
vt 0.5391291 0.87034
vt 0.560716 0.87034
vt 0.5603058 0.8708153
vt 0.5782385 0.8712783
vt 0.5917243 0.8717278
vt 0.4940611 0.8712783
vt 0.5163184 0.8717278
vt 0.5163622 0.8721627
vt 0.4950826 0.8725817
vt 0.476128 0.8729837
vt 0.4607703 0.8733677
vt 0.4499785 0.8737327
vt 0.4443548 0.8740776
vt 0.4441009 0.8744015
vt 0.5916865 0.8744015
vt 0.5949978 0.8744015
vt 0.5931674 0.8744015
vt 0.58632 0.8744015
vt 0.5749224 0.8744015
vt 0.5597512 0.8744015
vt 0.4459313 0.8744015
vt 0.4527786 0.8744015
vt 0.4641762 0.8744015
vt 0.4793475 0.8744015
vt 0.4972584 0.8744015
vt 0.5166884 0.8744015
vt 0.5363134 0.8744015
vt 0.5547959 0.8744015
vt 0.5708765 0.8744015
vt 0.5834591 0.8744015
vt 0.5907472 0.8721627
vt 0.5987277 0.8725817
vt 0.60104 0.8729837
vt 0.5976956 0.8733677
vt 0.5891201 0.8737327
vt 0.5761082 0.8740776
vt 0.4937738 0.8708153
vt 0.5162412 0.8708153
vt 0.538934 0.8708153
vt 0.5598515 0.8712783
vt 0.5775144 0.8717278
vt 0.5162781 0.8712783
vt 0.5384814 0.8717278
vt 0.5382251 0.8721627
vt 0.5164092 0.8725817
vt 0.4954733 0.8729837
vt 0.4768747 0.8733677
vt 0.4618541 0.8737327
vt 0.4513487 0.8740776
vt 0.5932312 0.8740776
vt 0.5966135 0.8740776
vt 0.5947439 0.8740776
vt 0.5877499 0.8740776
vt 0.4629905 0.8740776
vt 0.4784866 0.8740776
vt 0.4967811 0.8740776
vt 0.5166271 0.8740776
vt 0.5366724 0.8740776
vt 0.5555507 0.8740776
vt 0.5719756 0.8740776
vt 0.5848277 0.8740776
vt 0.5767297 0.8721627
vt 0.5896973 0.8725817
vt 0.5974635 0.8729837
vt 0.5996386 0.8733677
vt 0.5962546 0.8737327
vt 0.5387179 0.8712783
vt 0.5593542 0.8717278
vt 0.5588153 0.8721627
vt 0.5379497 0.8725817
vt 0.5164593 0.8729837
vt 0.4958873 0.8733677
vt 0.4776616 0.8737327
vt 0.5947116 0.8737327
vt 0.5981618 0.8737327
vt 0.4963236 0.8737327
vt 0.5165684 0.8737327
vt 0.5370164 0.8737327
vt 0.556274 0.8737327
vt 0.5730289 0.8737327
vt 0.5861393 0.8737327
vt 0.5758864 0.8725817
vt 0.5885773 0.8729837
vt 0.5961236 0.8733677
vt 0.5582363 0.8725817
vt 0.5376559 0.8729837
vt 0.5165124 0.8733677
vt 0.5373445 0.8733677
vt 0.5569639 0.8733677
vt 0.5740336 0.8733677
vt 0.5873902 0.8733677
vt 0.5749869 0.8729837
vt 0.5576186 0.8729837
vn 0.44987410343257095 0.7982584060907676 -0.4004957030558103
vn 0.5782348093050645 0.7613727122521545 -0.2931827047179519
vn 0.48147139573035747 0.7644786932206756 -0.4286695961985988
vn 0.540553213280652 0.795424119542481 -0.27404870673300136
vn 0.6357703289601371 0.759248834584738 -0.13905860633429418
vn 0.5945388883472579 0.7934837844480116 -0.13002689745152096
vn 0.6165751974839139 0.7225512970514525 -0.3126573987241249
vn 0.5136705905387323 0.7259045866296072 -0.4573893915753724
vn 0.3278348950482736 0.8012412878977874 -0.5005363924397332
vn 0.3510430210127759 0.7677524459562194 -0.5360270320855713
vn 0.4190575991727258 0.8277936983658276 -0.3730258992635984
vn 0.5037506790439369 0.8252413656699021 -0.2553662893767447
vn 0.6507165874463656 0.7570820853943607 -0.058263528875979104
vn 0.6087269900219627 0.791505387025924 -0.05450388910659155
vn 0.6510677900088105 0.7586490883578839 0.02371272963610798
vn 0.608901978257687 0.7929354716863274 0.022174729208197835
vn 0.6776784063762049 0.7202614067768639 -0.1482413013947868
vn 0.5542304025476364 0.8234921037853544 -0.12119990055712081
vn 0.6552402115767448 0.6784058119860332 -0.33230380587112374
vn 0.5461964930316852 0.6819632912995873 -0.48641079379442453
vn 0.37473190658513944 0.7294446128184828 -0.5722644100563653
vn 0.18230320385013343 0.8035659169708264 -0.5666104119664692
vn 0.19528830236921915 0.7703071093452928 -0.6070333073644705
vn 0.3052338909474024 0.8304763753698109 -0.4659841861798855
vn 0.3891257066297877 0.8535935145432276 -0.34635140590101404
vn 0.4679586065076734 0.8513226118389308 -0.23720150329864628
vn 0.5828966929857768 0.7939182904464717 0.17298899791835595
vn 0.6233675700503245 0.7597242634990714 0.18501869111078276
vn 0.6933424126074542 0.7179292130545306 -0.06208014112883984
vn 0.6939128913144832 0.7196151909927745 0.025275999683627263
vn 0.5676290016421494 0.8217142023772172 -0.05082407014703391
vn 0.5676687184998453 0.8229975268207962 0.020671160673655715
vn 0.7198936476341764 0.6759797447284658 -0.15749451042115226
vn 0.5149941842984095 0.8497646740916358 -0.11260989656665156
vn 0.8877152331882101 0.012137820453785763 -0.46023291720631365
vn 0.7445522792184582 0.0032219879100696108 -0.6675563813675264
vn 0.3987032001298298 0.6857253002232928 -0.6089471001982916
vn 0.20855909641317252 0.732211087407335 -0.6483594888494261
vn 0.023427250490508852 0.8045869168460659 -0.5933726124237593
vn 0.025100410298674578 0.7714301091793943 -0.6358188075657295
vn 0.16967260110936952 0.8325644054435517 -0.527302303447658
vn 0.2833114048644101 0.855977414696991 -0.43247810742557774
vn 0.36012619398834517 0.8761164853748213 -0.3205136946496041
vn 0.43324112419950467 0.8741190488255773 -0.2195860122653932
vn 0.5178838333065476 0.7961824512047045 0.312873520121765
vn 0.5540579993493558 0.7622032991049256 0.33476239960688015
vn 0.6645122814519706 0.7207737798815861 0.19725259449423735
vn 0.5433402840248586 0.8238839757763902 0.16123439525943073
vn 0.7362254870155195 0.6735180881214619 -0.06591977883740226
vn 0.7370582822034231 0.6752955836947089 0.026850759351677314
vn 0.5275796029256867 0.8481912047036347 -0.04723815026195863
vn 0.5275223090018913 0.8493240144932684 0.019207600327767617
vn 0.9731750413709779 0.0356313115147349 -0.2272900096624035
vn 0.47690560292294965 0.8727475053490606 -0.10427290063908756
vn 0.5670531057144578 -0.6542205065928842 -0.5004461050432281
vn 0.6972025140706275 -0.6321773127583182 -0.3380244068218565
vn 0.5502207933012325 0.007936639903373871 -0.8349814898343595
vn 0.22200669298874126 0.6886698782509137 -0.6902512782009711
vn 0.026811359395908584 0.7334282834749994 -0.6792378846959727
vn -0.14696210377742433 0.770802519812238 -0.6198916159333161
vn -0.1371795070424689 0.8040164412762875 -0.5785666297022316
vn 0.02180058982053506 0.8334807931386911 -0.5521181954549
vn 0.1574340973268344 0.8578309854343861 -0.48922439169317294
vn 0.2620976967988357 0.8782110892738548 -0.4000625951137835
vn 0.3320657950943638 0.895768686766733 -0.2955177956342905
vn 0.39961290092859447 0.8940316020774925 -0.20252660047061816
vn 0.4174643821015302 0.7991431657373409 0.4325432814550338
vn 0.4468542058789748 0.7654492100705255 0.4630430060919605
vn 0.5908797146395237 0.7234475179239985 0.35705020884620825
vn 0.48256688879213805 0.8259245808174807 0.2915094932295434
vn 0.7059690041587504 0.6765224039852852 0.2095834012346223
vn 0.5048437112716735 0.8501138189805383 0.14979760334453937
vn 0.9942403702887251 0.05967586821668262 -0.08902177733972731
vn 0.9969842566361419 0.07563540671023586 0.01736885924454098
vn 0.4886612951853229 0.8713757914145175 -0.043753499568905965
vn 0.4885414776082404 0.8723593600163713 0.017786839184759852
vn 0.7995924893019764 -0.581506192219828 -0.15000799799299125
vn 0.43998559647765173 0.8928378928522978 -0.09619340922991412
vn 0.4099905969518183 -0.6497653951691503 -0.6400879952410994
vn -0.396376682727645 0.014263909378441473 -0.917977159998587
vn 0 1 0
vn -0.20462369668352257 0.653941189401124 -0.7283474881951698
vn -0.0015423949557779129 0.6759063806210526 -0.736985878869839
vn -0.1980464062742331 0.670126421230021 0.7153378226623462
vn 0 0.677824885437756 0.7352233842046191
vn 0.19698369371797242 0.6779725783787056 -0.7082023774146439
vn 0.3777020009771812 0.6783689017550593 -0.6302038016304475
vn 0.5287973036495105 0.6788937046854053 -0.5093886035155607
vn 0.6412678298577195 0.6794001316331766 -0.35663851660525026
vn 0.71016158195739 0.6797597827297887 -0.18329529534313652
vn 0.7333148754931123 0.679889177278563 0
vn 0.71016158195739 0.6797597827297887 0.18329529534313652
vn 0.6412678298577195 0.6794001316331766 0.35663851660525026
vn 0.5287973036495105 0.6788937046854053 0.5093886035155607
vn 0.3777020009771812 0.6783689017550593 0.6302038016304475
vn 0.19698369371797242 0.6779725783787056 0.7082023774146439
vn -0.6217598273128254 0.07341622322504672 0.7797594342534727
vn -0.3778911962561469 0.6762654933000857 0.6323473937351922
vn 0.3155851132922079 0.026568881119061312 -0.9485252399511704
vn 0.02854614017356696 0.6899668041951535 -0.7232779043976926
vn -0.15696249920495278 0.7327479962884812 -0.6621503966460726
vn -0.3081126788289455 0.7686030471877071 -0.5606388614773532
vn -0.2877038008899988 0.8020156024809992 -0.5234477016192619
vn -0.12766610093496908 0.8329688061002886 -0.5383905039429298
vn 0.02022515900687913 0.8586438578378032 -0.512173474850622
vn 0.14560260250580626 0.8798380151419244 -0.4524212077861238
vn 0.24159350577067112 0.897588521439683 -0.3687376088076187
vn 0.3049226016004168 0.9129048047914723 -0.27134300142417095
vn 0.36705339561420924 0.9114116891098654 -0.18601219777740627
vn 0.2877038008899988 0.8020156024809992 0.5234477016192619
vn 0.3081126788289455 0.7686030471877071 0.5606388614773532
vn 0.4768181943842904 0.7269534914383307 0.4941487941801799
vn 0.38881350387263497 0.8285898082528664 0.40281880401212966
vn 0.6280297899815779 0.6793559891628149 0.3795444939454513
vn 0.44823151673559797 0.8519307318084957 0.27074441010877065
vn 0.956392737049632 0.1344658052090615 0.2592911100446604
vn 0.4674799117248499 0.8730549218970647 0.13869980347872568
vn 0.8289534368226231 -0.5543710246255029 -0.0742224132970054
vn 0.8659209083099269 -0.49572560475729766 0.06661160063924722
vn 0.45090049919266495 0.891660698403486 -0.040372499927713246
vn 0.4507489181894015 0.8924999360157041 0.016409660662191062
vn 0.40421600656992296 0.9103849147969368 -0.08836700143627263
vn 0.22254378776729578 -0.6160780661356497 -0.7555938584667975
vn -0.3777707125135436 -0.6782939224682863 -0.6302433208766243
vn -0.5141192193497456 0.00006773693254939392 -0.8577187322816939
vn -0.19898549951839045 -0.6773571983605755 -0.7082315982858495
vn 0.00001475483999265022 1 0.000027902469986101037
vn 0.3106226956009086 0.8095067885356273 0.49820909294427823
vn 0.3746665055658002 0.775954111527066 0.5074645075385603
vn -0.5698295161542767 0.7054654199994618 -0.42144141194757556
vn -0.5684264094707572 0.7072144117831541 -0.4204036070044959
vn -0.6568722846799715 0.7071152835081697 -0.261737993895566
vn -0.7014986841416515 0.707113184014728 -0.08882871799190391
vn -0.7014962143851388 0.7071107145002717 0.08886787182235718
vn -0.6568654820448155 0.7071079806714546 0.2617747928444791
vn -0.4018812883604049 0.8306320759425947 -0.3854111888374246
vn -0.7985693104948699 0.2575367033845706 0.5440238071496099
vn 0.5829989978980875 0.4525474983684102 -0.6747687975672257
vn 0.45607249994870785 0.5703927999358509 -0.6831177999231732
vn -0.44705198081644565 0.18497219206261406 -0.8751741624451924
vn -0.25108549961643556 -0.4286919993451194 -0.867858998674237
vn -0.3106226956009086 -0.8095067885356273 -0.49820909294427823
vn -0.2053575080938891 0.1129601044521701 -0.9721462383158324
vn 0.000963787207634849 -0.5456838043227524 -0.8379906066383241
vn 0.05677700831159899 0.06073092819401966 -0.9965380703655415
vn 0.8779635255871499 -0.3664832106806952 0.3080099089765639
vn 0.811096577228833 -0.19152369462305951 0.5526671844841206
vn 0.8501164581029287 0.21313561456718466 0.48153423291143105
vn 0.6526277656186181 0.012758739327851017 0.7575712600900418
vn 0.6816540590219143 0.3079265814887894 0.663723560099818
vn 0.464852718704321 0.4073297163897628 0.7861262316314325
vn 0.4241161821514419 0.21090659112418084 0.8807064629362398
vn 0.22446179008216835 0.4954178781099888 0.8391531629220644
vn 0.17206260031936887 0.3710400006886948 0.9125370016937784
vn -0.013772120499991235 0.5611354203717932 0.8276094300460238
vn -0.06560847902295852 0.48262279281278136 0.8733674869938113
vn -0.23281520485271986 0.6023073125542859 0.7635594159153692
vn -0.2734311867831174 0.5507872733765163 0.788586561881978
vn -0.4244136157323679 0.6218288230502497 0.6581808243977632
vn -0.45607249994870785 -0.5703927999358509 0.6831177999231732
vn -0.37703549731467406 -0.6780790951705783 0.6309143955064952
vn -0.7205725271771948 -0.0002564981096741117 0.6933795261515806
vn -0.5289810105011249 -0.6790283134798054 0.5090183101048331
vn -0.19622730982306677 -0.6775877339197921 0.7087804354812872
vn -0.2744056953523167 0.7163141878675934 0.6415570891337745
vn 0 -0.677824885437756 0.7352233842046191
vn 0.19698369371797242 -0.6779725783787056 0.7082023774146439
vn 0.3777020009771812 -0.6783689017550593 0.6302038016304475
vn 0.5287973036495105 -0.6788937046854053 0.5093886035155607
vn 0.6412678298577195 -0.6794001316331766 0.35663851660525026
vn 0.71016158195739 -0.6797597827297887 0.18329529534313652
vn 0.7333148754931123 -0.679889177278563 0
vn 0.71016158195739 -0.6797597827297887 -0.18329529534313652
vn 0.6412678298577195 -0.6794001316331766 -0.35663851660525026
vn 0.5287973036495105 -0.6788937046854053 -0.5093886035155607
vn 0.3777020009771812 -0.6783689017550593 -0.6302038016304475
vn 0.19698369371797242 -0.6779725783787056 -0.7082023774146439
vn -0.0015385789414698893 -0.6774997742267779 -0.7355213720195395
vn -0.09563189381527885 0.7290959290876211 -0.6776973270370499
vn -0.16709870315329461 0.6892419130065809 -0.7049990133039309
vn -0.3289529976661031 0.7303653948181122 -0.5986286957527742
vn -0.4468542058789748 0.7654492100705255 -0.4630430060919605
vn -0.4174643821015302 0.7991431657373409 -0.4325432814550338
vn -0.26783651190979807 0.8311721369594579 -0.4872540216665643
vn -0.11844990528830332 0.8581897383146583 -0.4994797222997247
vn 0.018702760526792924 0.8805511248021196 -0.47358201333918887
vn 0.13417649717841254 0.8990007810949802 -0.41688639123332744
vn 0.22177890627119126 0.914467725858194 -0.33847140957087835
vn 0.27865460746961407 0.9278317248714529 -0.24795140664658424
vn 0.3355175845117538 0.9265642572277101 -0.17001949215151788
vn 0.1371795070424689 0.8040164412762875 0.5785666297022316
vn 0.14696210377742433 0.770802519812238 0.6198916159333161
vn 0.3289529976661031 0.7303653948181122 0.5986286957527742
vn 0.26783651190979807 0.8311721369594579 0.4872540216665643
vn 0.5071021143942104 0.6830772193893043 0.5255977149192123
vn 0.3609962895832825 0.8543012753487356 0.37396658920901843
vn 0.4149372773830372 0.8746541523252755 0.2506135863398194
vn 0.4312682052324801 0.8931055108358483 0.1279464015523449
vn 0.4142836947930305 0.9093915885702134 -0.037093919533781064
vn 0.4141273085219631 0.9100941187280297 0.015075390310223253
vn 0.3695513003741688 0.9256921009372584 -0.08078348008179285
vn -0.5283072036565384 -0.6789205046989685 -0.5098612035288693
vn -0.6411304981125695 -0.6793668980000049 -0.35694859894917547
vn -0.71016158195739 -0.6797597827297887 -0.18329529534313652
vn -0.7333148754931123 -0.679889177278563 0
vn -0.71016158195739 -0.6797597827297887 0.18329529534313652
vn -0.6414107697752339 -0.6794923679807406 0.35620548321476986
vn -0.6228278839042424 -0.000408326089447618 -0.7823587797814813
vn -0.7201729154733526 -0.00006438335138331541 -0.6937946149065988
vn -0.8737143055627437 0.0001391747008860942 -0.4864394030970509
vn -0.8039905721608727 0.0002760434904416667 -0.594641979409816
vn -0.9682681382743961 0 -0.2499136098787641
vn -1 0 0
vn -0.9682681382743961 0 0.2499136098787641
vn -0.8742347192247426 -0.0003064696067393792 0.4855034106763983
vn -0.8052621812485002 -0.0006079453858432594 0.5929185861931765
vn -0.644452582266444 0.2739675924611681 -0.7138785803560321
vn -0.3746665055658002 -0.775954111527066 -0.5074645075385603
vn -0.732449116576535 -0.0589548513342458 -0.6782644153502456
vn -0.35005160438342153 0.6867049085990665 -0.6371030079779408
vn 0.35005160438342153 0.6867049085990665 0.6371030079779408
vn 0.16709870315329461 0.6892419130065809 0.7049990133039309
vn -0.02854614017356696 0.6899668041951535 0.7232779043976926
vn -0.22200669298874126 0.6886698782509137 0.6902512782009711
vn -0.3987032001298298 0.6857253002232928 0.6089471001982916
vn -0.5829989978980875 -0.4525474983684102 0.6747687975672257
vn -0.5846316002152818 0.6229644002293973 0.5197319001913835
vn -0.6009261741467955 0.5886779746737408 0.5406902767382802
vn -0.4768181943842904 0.7269534914383307 -0.4941487941801799
vn -0.5540579993493558 0.7622032991049256 -0.33476239960688015
vn -0.5178838333065476 0.7961824512047045 -0.312873520121765
vn -0.38881350387263497 0.8285898082528664 -0.40281880401212966
vn -0.24857249282906896 0.8565952752885543 -0.45216838695564304
vn -0.10954179925064426 0.8801527939790331 -0.4618783968403731
vn 0.01723308062849213 0.8996194328092083 -0.43633461591316597
vn 0.12314309542651848 0.9156796659920516 -0.3825787857911887
vn 0.20261999084039228 0.9291574579966528 -0.3092111860218474
vn 0.14567230704469183 0.980900247436195 -0.12889640623341167
vn 0.1749926952301288 0.9806131732708926 -0.08817800759648402
vn -0.023427250490508852 0.8045869168460659 0.5933726124237593
vn -0.025100410298674578 0.7714301091793943 0.6358188075657295
vn 0.15696249920495278 0.7327479962884812 0.6621503966460726
vn 0.12766610093496908 0.8329688061002886 0.5383905039429298
vn 0.24857249282906896 0.8565952752885543 0.45216838695564304
vn 0.33405528839656634 0.8767385695464249 0.34602968798063477
vn 0.3826967106052416 0.8944971247881883 0.2311236064048674
vn 0.39618979869757154 0.9106151970064572 0.11753129961362938
vn 0.3787686934761393 0.9248697840701678 -0.03391399941586986
vn 0.37863120265363254 0.925445006485971 0.013782320096593238
vn 0.19244060842674265 0.980416642931265 -0.04183083183172179
vn -0.779767569427169 0.045169148229025166 -0.6244375755172884
vn -0.5565534857257668 0.6646032829545542 -0.49854858721345024
vn -0.6495888845890171 0.6444260847115004 -0.40342199042913207
vn -0.5450313831886137 0.6807473790024802 -0.4894116849041923
vn -0.7032351878664047 0.5598607903401817 -0.4381964924393731
vn -0.801466220292127 0.5505849139401247 -0.23346980591116484
vn -0.7795772982132946 -0.525101998796524 -0.34136069921763884
vn 0.7032351878664047 -0.5598607903401817 0.4381964924393731
vn 0.5565534857257668 -0.6646032829545542 0.49854858721345024
vn -0.4228749902826204 -0.8457859805644136 -0.3253041925247309
vn -0.8173629509374754 0.5755867358701543 -0.024853891548876773
vn -0.9801235720917608 -0.11951229659698241 -0.15834959549112124
vn -0.7848035274599228 0.5935977207697175 0.17811560623218506
vn -0.9488216510213401 0.30358251632465566 0.08703522468017755
vn -0.711324391865746 0.5965150931786322 0.37173559574906784
vn -0.7792096737267878 0.5608262810901887 0.27983239056467596
vn -0.5071021143942104 0.6830772193893043 -0.5255977149192123
vn -0.026811359395908584 0.7334282834749994 0.6792378846959727
vn -0.20855909641317252 0.732211087407335 0.6483594888494261
vn -0.5461964930316852 0.6819632912995873 0.48641079379442453
vn -0.37473190658513944 0.7294446128184828 0.5722644100563653
vn -0.5908797146395237 0.7234475179239985 -0.35705020884620825
vn -0.6233675700503245 0.7597242634990714 -0.18501869111078276
vn -0.5828966929857768 0.7939182904464717 -0.17298899791835595
vn -0.48256688879213805 0.8259245808174807 -0.2915094932295434
vn -0.3609962895832825 0.8543012753487356 -0.37396658920901843
vn -0.22993720799485018 0.8787535305540058 -0.41823571454193476
vn -0.1009404991418816 0.8992738923550658 -0.4255789963820551
vn 0.01581437034210566 0.9162103198199947 -0.40038550866137224
vn 0.11248199927200243 0.9301847939797276 -0.3494338977384201
vn 0.10618529730692321 0.9812023751146965 -0.16114149591312135
vn -0.04444533148032159 0.9814834326898477 -0.1863193062056572
vn 0.05906219098348335 0.981437816342566 -0.1824595030382531
vn 0.007590773162699961 0.9815412210382677 -0.19110000409602057
vn -0.09319423964568588 0.9812807962692797 -0.1685313993592624
vn -0.1351887932369307 0.9809898509241692 -0.13922249303513742
vn -0.16766429733513527 0.9806899844128644 -0.10067689839983636
vn -0.18867839092905522 0.980460652863153 -0.0556540473243635
vn -0.197081702983927 0.9803611148432144 -0.007133502108005204
vn -0.19244060842674265 0.980416642931265 0.04183083183172179
vn -0.1749926952301288 0.9806131732708926 0.08817800759648402
vn -0.14567230704469183 0.980900247436195 0.12889640623341167
vn -0.10618529730692321 0.9812023751146965 0.16114149591312135
vn 0.18376370558761418 0.9828327298845198 -0.016453740500300934
vn 0.197081702983927 0.9803611148432144 0.007133502108005204
vn 0.18867839092905522 0.980460652863153 0.0556540473243635
vn 0.16766429733513527 0.9806899844128644 0.10067689839983636
vn 0.1351887932369307 0.9809898509241692 0.13922249303513742
vn 0.09319423964568588 0.9812807962692797 0.1685313993592624
vn -0.05906219098348335 0.981437816342566 0.1824595030382531
vn 0.04444533148032159 0.9814834326898477 0.1863193062056572
vn -0.007590773162699961 0.9815412210382677 0.19110000409602057
vn -0.19528830236921915 0.7703071093452928 0.6070333073644705
vn -0.18230320385013343 0.8035659169708264 0.5666104119664692
vn -0.02180058982053506 0.8334807931386911 0.5521181954549
vn 0.11844990528830332 0.8581897383146583 0.4994797222997247
vn 0.22993720799485018 0.8787535305540058 0.41823571454193476
vn 0.3079952928722175 0.8963093792571559 0.3190115926172727
vn 0.3514884888315483 0.9118119710274212 0.2122610932554612
vn 0.3621994065419932 0.9258877167232497 0.10744080194058019
vn -0.7472283048908372 0.6264407041002455 -0.22186010145214208
vn -0.6280297899815779 0.6793559891628149 -0.3795444939454513
vn -0.7799719857365043 0.6251688885674179 -0.028417639480321236
vn -0.7618964213126318 0.6258781175077733 0.1667046046632505
vn -0.6937570926654995 0.6283947933565192 0.3518821962798504
vn -0.6552402115767448 0.6784058119860332 0.33230380587112374
vn -0.5136705905387323 0.7259045866296072 0.4573893915753724
vn -0.3510430210127759 0.7677524459562194 0.5360270320855713
vn -0.6645122814519706 0.7207737798815861 -0.19725259449423735
vn -0.6510677900088105 0.7586490883578839 -0.02371272963610798
vn -0.608901978257687 0.7929354716863274 -0.022174729208197835
vn -0.5433402840248586 0.8238839757763902 -0.16123439525943073
vn -0.44823151673559797 0.8519307318084957 -0.27074441010877065
vn -0.33405528839656634 0.8767385695464249 -0.34602968798063477
vn -0.2119304008563207 0.8980595036286769 -0.38545380155745507
vn -0.09263589360335744 0.9159139356272841 -0.3905384151911905
vn 0.014443949619791901 0.9306343755029105 -0.3656651903745949
vn -0.11248199927200243 0.9301847939797276 0.3494338977384201
vn -0.014443949619791901 0.9306343755029105 0.3656651903745949
vn 0.08461260731558418 0.9303832704827016 0.3566898886836724
vn 0.17771610172581792 0.9295002090264648 0.32318160313844724
vn 0.25841240951308614 0.9282258341713168 0.2676188098520067
vn 0.3212683081627933 0.9269041235508034 0.1939985049291189
vn -0.08461260731558418 0.9303832704827016 -0.3566898886836724
vn -0.17771610172581792 0.9295002090264648 -0.32318160313844724
vn -0.25841240951308614 0.9282258341713168 -0.2676188098520067
vn -0.3212683081627933 0.9269041235508034 -0.1939985049291189
vn -0.3621994065419932 0.9258877167232497 -0.10744080194058019
vn -0.37863120265363254 0.925445006485971 -0.013782320096593238
vn -0.3695513003741688 0.9256921009372584 0.08078348008179285
vn -0.3355175845117538 0.9265642572277101 0.17001949215151788
vn -0.27865460746961407 0.9278317248714529 0.24795140664658424
vn -0.20261999084039228 0.9291574579966528 0.3092111860218474
vn -0.3278348950482736 0.8012412878977874 0.5005363924397332
vn -0.16967260110936952 0.8325644054435517 0.527302303447658
vn -0.02022515900687913 0.8586438578378032 0.512173474850622
vn 0.10954179925064426 0.8801527939790331 0.4618783968403731
vn 0.2119304008563207 0.8980595036286769 0.38545380155745507
vn 0.28279439999727246 0.9133692999911907 0.2928887999971751
vn -0.7059690041587504 0.6765224039852852 -0.2095834012346223
vn -0.7370582822034231 0.6752955836947089 -0.026850759351677314
vn -0.7198936476341764 0.6759797447284658 0.15749451042115226
vn -0.6165751974839139 0.7225512970514525 0.3126573987241249
vn -0.48147139573035747 0.7644786932206756 0.4286695961985988
vn -0.6939128913144832 0.7196151909927745 -0.025275999683627263
vn -0.6357703289601371 0.759248834584738 0.13905860633429418
vn -0.5945388883472579 0.7934837844480116 0.13002689745152096
vn -0.5676687184998453 0.8229975268207962 -0.020671160673655715
vn -0.5048437112716735 0.8501138189805383 -0.14979760334453937
vn -0.4149372773830372 0.8746541523252755 -0.2506135863398194
vn -0.3079952928722175 0.8963093792571559 -0.3190115926172727
vn -0.19453349922670504 0.9148719963632695 -0.3537879985936485
vn -0.12314309542651848 0.9156796659920516 0.3825787857911887
vn -0.01581437034210566 0.9162103198199947 0.40038550866137224
vn 0.09263589360335744 0.9159139356272841 0.3905384151911905
vn 0.19453349922670504 0.9148719963632695 0.3537879985936485
vn -0.28279439999727246 0.9133692999911907 -0.2928887999971751
vn -0.3514884888315483 0.9118119710274212 -0.2122610932554612
vn -0.39618979869757154 0.9106151970064572 -0.11753129961362938
vn -0.4141273085219631 0.9100941187280297 -0.015075390310223253
vn -0.40421600656992296 0.9103849147969368 0.08836700143627263
vn -0.36705339561420924 0.9114116891098654 0.18601219777740627
vn -0.3049226016004168 0.9129048047914723 0.27134300142417095
vn -0.22177890627119126 0.914467725858194 0.33847140957087835
vn -0.44987410343257095 0.7982584060907676 0.4004957030558103
vn -0.3052338909474024 0.8304763753698109 0.4659841861798855
vn -0.1574340973268344 0.8578309854343861 0.48922439169317294
vn -0.018702760526792924 0.8805511248021196 0.47358201333918887
vn 0.1009404991418816 0.8992738923550658 0.4255789963820551
vn -0.6776784063762049 0.7202614067768639 0.1482413013947868
vn -0.5782348093050645 0.7613727122521545 0.2931827047179519
vn -0.540553213280652 0.795424119542481 0.27404870673300136
vn -0.5542304025476364 0.8234921037853544 0.12119990055712081
vn -0.5275223090018913 0.8493240144932684 -0.019207600327767617
vn -0.4674799117248499 0.8730549218970647 -0.13869980347872568
vn -0.3826967106052416 0.8944971247881883 -0.2311236064048674
vn -0.13417649717841254 0.8990007810949802 0.41688639123332744
vn -0.01723308062849213 0.8996194328092083 0.43633461591316597
vn -0.4312682052324801 0.8931055108358483 -0.1279464015523449
vn -0.4507489181894015 0.8924999360157041 -0.016409660662191062
vn -0.43998559647765173 0.8928378928522978 0.09619340922991412
vn -0.39961290092859447 0.8940316020774925 0.20252660047061816
vn -0.3320657950943638 0.895768686766733 0.2955177956342905
vn -0.24159350577067112 0.897588521439683 0.3687376088076187
vn -0.4190575991727258 0.8277936983658276 0.3730258992635984
vn -0.2833114048644101 0.855977414696991 0.43247810742557774
vn -0.14560260250580626 0.8798380151419244 0.4524212077861238
vn -0.5037506790439369 0.8252413656699021 0.2553662893767447
vn -0.5149941842984095 0.8497646740916358 0.11260989656665156
vn -0.4885414776082404 0.8723593600163713 -0.017786839184759852
vn -0.47690560292294965 0.8727475053490606 0.10427290063908756
vn -0.43324112419950467 0.8741190488255773 0.2195860122653932
vn -0.36012619398834517 0.8761164853748213 0.3205136946496041
vn -0.2620976967988357 0.8782110892738548 0.4000625951137835
vn -0.3891257066297877 0.8535935145432276 0.34635140590101404
vn -0.4679586065076734 0.8513226118389308 0.23720150329864628
usemtl material_0_0
f 1/1/1 2/2/2 3/3/3
f 2/2/2 1/1/1 4/4/4
f 4/4/4 5/5/5 2/2/2
f 5/5/5 4/4/4 6/6/6
f 3/3/3 7/7/7 8/8/8
f 7/7/7 3/3/3 2/2/2
f 9/9/9 3/3/3 10/10/10
f 3/3/3 9/9/9 1/1/1
f 11/11/11 4/4/4 1/1/1
f 4/4/4 11/11/11 12/12/12
f 6/6/6 13/13/13 5/5/5
f 13/13/13 6/6/6 14/14/14
f 13/13/13 14/14/14 15/15/15
f 15/15/15 14/14/14 16/16/16
f 2/2/2 17/17/17 7/7/7
f 17/17/17 2/2/2 5/5/5
f 12/12/12 6/6/6 4/4/4
f 6/6/6 12/12/12 18/18/18
f 8/8/8 19/19/19 20/20/20
f 19/19/19 8/8/8 7/7/7
f 10/10/10 8/8/8 21/21/21
f 8/8/8 10/10/10 3/3/3
f 22/22/22 10/10/10 23/23/23
f 10/10/10 22/22/22 9/9/9
f 24/24/24 1/1/1 9/9/9
f 1/1/1 24/24/24 11/11/11
f 25/25/25 12/12/12 11/11/11
f 12/12/12 25/25/25 26/26/26
f 27/27/27 15/15/15 16/16/16
f 15/15/15 27/27/27 28/28/28
f 5/5/5 29/29/29 17/17/17
f 29/29/29 5/5/5 13/13/13
f 29/29/29 13/13/13 30/30/30
f 30/30/30 13/13/13 15/15/15
f 18/18/18 14/14/14 6/6/6
f 14/14/14 18/18/18 31/31/31
f 14/14/14 31/31/31 16/16/16
f 16/16/16 31/31/31 32/32/32
f 7/7/7 33/33/33 19/19/19
f 33/33/33 7/7/7 17/17/17
f 26/26/26 18/18/18 12/12/12
f 18/18/18 26/26/26 34/34/34
f 20/20/20 35/35/35 36/36/36
f 35/35/35 20/20/20 19/19/19
f 21/21/21 20/20/20 37/37/37
f 20/20/20 21/21/21 8/8/8
f 23/23/23 21/21/21 38/38/38
f 21/21/21 23/23/23 10/10/10
f 39/39/39 23/23/23 40/40/40
f 23/23/23 39/39/39 22/22/22
f 41/41/41 9/9/9 22/22/22
f 9/9/9 41/41/41 24/24/24
f 42/42/42 11/11/11 24/24/24
f 11/11/11 42/42/42 25/25/25
f 43/43/43 26/26/26 25/25/25
f 26/26/26 43/43/43 44/44/44
f 45/45/45 28/28/28 27/27/27
f 28/28/28 45/45/45 46/46/46
f 28/28/28 30/30/30 15/15/15
f 30/30/30 28/28/28 47/47/47
f 48/48/48 16/16/16 32/32/32
f 16/16/16 48/48/48 27/27/27
f 17/17/17 49/49/49 33/33/33
f 49/49/49 17/17/17 50/50/50
f 50/50/50 17/17/17 30/30/30
f 30/30/30 17/17/17 29/29/29
f 34/34/34 31/31/31 18/18/18
f 31/31/31 34/34/34 51/51/51
f 31/31/31 51/51/51 32/32/32
f 32/32/32 51/51/51 52/52/52
f 19/19/19 53/53/53 35/35/35
f 53/53/53 19/19/19 33/33/33
f 44/44/44 34/34/34 26/26/26
f 34/34/34 44/44/44 54/54/54
f 35/35/35 55/55/55 36/36/36
f 55/55/55 35/35/35 56/56/56
f 37/37/37 36/36/36 57/57/57
f 36/36/36 37/37/37 20/20/20
f 38/38/38 37/37/37 58/58/58
f 37/37/37 38/38/38 21/21/21
f 40/40/40 38/38/38 59/59/59
f 38/38/38 40/40/40 23/23/23
f 60/60/60 39/39/39 40/40/40
f 39/39/39 60/60/60 61/61/61
f 62/62/62 22/22/22 39/39/39
f 22/22/22 62/62/62 41/41/41
f 63/63/63 24/24/24 41/41/41
f 24/24/24 63/63/63 42/42/42
f 64/64/64 25/25/25 42/42/42
f 25/25/25 64/64/64 43/43/43
f 65/65/65 44/44/44 43/43/43
f 44/44/44 65/65/65 66/66/66
f 67/67/67 46/46/46 45/45/45
f 46/46/46 67/67/67 68/68/68
f 46/46/46 47/47/47 28/28/28
f 47/47/47 46/46/46 69/69/69
f 70/70/70 27/27/27 48/48/48
f 27/27/27 70/70/70 45/45/45
f 30/30/30 71/71/71 50/50/50
f 71/71/71 30/30/30 47/47/47
f 72/72/72 32/32/32 52/52/52
f 32/32/32 72/72/72 48/48/48
f 33/33/33 73/73/73 53/53/53
f 73/73/73 33/33/33 74/74/74
f 74/74/74 33/33/33 50/50/50
f 50/50/50 33/33/33 49/49/49
f 54/54/54 51/51/51 34/34/34
f 51/51/51 54/54/54 75/75/75
f 51/51/51 75/75/75 52/52/52
f 52/52/52 75/75/75 76/76/76
f 35/35/35 77/77/77 56/56/56
f 77/77/77 35/35/35 53/53/53
f 66/66/66 54/54/54 44/44/44
f 54/54/54 66/66/66 78/78/78
f 36/36/36 79/79/79 57/57/57
f 79/79/79 36/36/36 55/55/55
f 80/80/80 81/81/81 82/82/82
f 81/81/81 83/83/81 84/84/83
f 85/85/84 86/86/81 87/87/81
f 86/86/81 85/85/84 88/88/85
f 83/83/81 89/82/86 84/84/83
f 89/82/86 83/83/81 90/89/81
f 89/82/86 90/89/81 91/90/87
f 91/90/87 90/89/81 92/79/81
f 91/90/87 92/79/81 93/91/88
f 93/91/88 92/79/81 94/55/81
f 93/91/88 94/55/81 95/92/89
f 95/92/89 94/55/81 96/56/81
f 95/92/89 96/56/81 97/93/90
f 97/93/90 96/56/81 98/77/81
f 97/93/90 98/77/81 99/94/91
f 99/94/91 98/77/81 100/95/81
f 99/94/91 100/95/81 101/96/81
f 99/94/91 101/96/81 102/97/92
f 102/97/92 101/96/81 103/98/81
f 102/97/92 103/98/81 104/99/93
f 104/99/93 103/98/81 105/100/81
f 104/99/93 105/100/81 106/101/94
f 106/101/94 105/100/81 107/102/81
f 106/101/94 107/102/81 108/103/95
f 108/103/95 107/102/81 109/104/81
f 108/103/95 109/104/81 110/85/96
f 110/85/96 109/104/81 111/105/81
f 110/85/96 111/105/81 86/86/81
f 110/85/96 86/86/81 88/88/85
f 87/87/81 112/106/97 113/103/98
f 37/37/37 114/107/99 58/58/58
f 114/107/99 37/37/37 57/57/57
f 59/59/59 58/58/58 115/108/100
f 58/58/58 59/59/59 38/38/38
f 116/109/101 40/40/40 59/59/59
f 40/40/40 116/109/101 60/60/60
f 117/110/102 61/61/61 60/60/60
f 61/61/61 117/110/102 118/111/103
f 61/61/61 62/62/62 39/39/39
f 62/62/62 61/61/61 119/112/104
f 120/113/105 41/41/41 62/62/62
f 41/41/41 120/113/105 63/63/63
f 121/114/106 42/42/42 63/63/63
f 42/42/42 121/114/106 64/64/64
f 122/115/107 43/43/43 64/64/64
f 43/43/43 122/115/107 65/65/65
f 123/116/108 66/66/66 65/65/65
f 66/66/66 123/116/108 124/117/109
f 125/118/110 68/68/68 67/67/67
f 68/68/68 125/118/110 126/119/111
f 68/68/68 69/69/69 46/46/46
f 69/69/69 68/68/68 127/120/112
f 128/121/113 45/45/45 70/70/70
f 45/45/45 128/121/113 67/67/67
f 69/69/69 71/71/71 47/47/47
f 71/71/71 69/69/69 129/122/114
f 130/123/115 48/48/48 72/72/72
f 48/48/48 130/123/115 70/70/70
f 50/50/50 131/124/116 74/74/74
f 131/124/116 50/50/50 71/71/71
f 132/125/117 52/52/52 76/76/76
f 52/52/52 132/125/117 72/72/72
f 53/53/53 133/95/118 77/77/77
f 133/95/118 53/53/53 134/96/119
f 134/96/119 53/53/53 74/74/74
f 74/74/74 53/53/53 73/73/73
f 78/78/78 75/75/75 54/54/54
f 75/75/75 78/78/78 135/126/120
f 75/75/75 135/126/120 76/76/76
f 76/76/76 135/126/120 136/127/121
f 124/117/109 78/78/78 66/66/66
f 78/78/78 124/117/109 137/128/122
f 114/107/99 79/79/79 138/89/123
f 79/79/79 114/107/99 57/57/57
f 80/80/80 139/129/124 140/90/125
f 139/129/124 80/80/80 141/130/126
f 141/130/126 80/80/80 82/82/82
f 142/81/127 143/89/127 144/83/127
f 143/89/127 142/81/127 145/80/128
f 143/89/127 145/80/128 146/79/127
f 146/79/127 145/80/128 147/131/129
f 146/79/127 147/131/129 148/55/127
f 148/55/127 147/131/129 149/132/127
f 148/55/127 149/132/127 150/133/127
f 148/55/127 150/133/127 151/91/127
f 148/55/127 151/91/127 152/134/127
f 148/55/127 152/134/127 153/135/130
f 148/55/127 153/135/130 154/56/127
f 154/56/127 153/135/130 155/136/131
f 154/56/127 155/136/131 156/92/127
f 154/56/127 156/92/127 157/137/132
f 154/56/127 157/137/132 158/77/127
f 158/77/127 157/137/132 159/138/132
f 158/77/127 159/138/132 160/93/127
f 158/77/127 160/93/127 161/139/133
f 158/77/127 161/139/133 162/95/127
f 162/95/127 161/139/133 163/140/133
f 162/95/127 163/140/133 164/94/127
f 162/95/127 164/94/127 165/96/127
f 165/96/127 164/94/127 166/141/134
f 165/96/127 166/141/134 167/98/127
f 167/98/127 166/141/134 168/142/134
f 167/98/127 168/142/134 169/97/127
f 167/98/127 169/97/127 170/143/135
f 167/98/127 170/143/135 171/100/127
f 171/100/127 170/143/135 172/144/136
f 171/100/127 172/144/136 173/145/137
f 171/100/127 173/145/137 174/102/127
f 174/102/127 173/145/137 175/146/127
f 174/102/127 175/146/127 176/147/138
f 174/102/127 176/147/138 177/106/139
f 174/102/127 177/106/139 178/104/127
f 178/104/127 177/106/139 179/87/127
f 178/104/127 179/87/127 180/105/127
f 180/105/127 179/87/127 181/86/127
f 182/148/140 183/81/141 184/80/142
f 183/81/141 182/148/140 185/149/143
f 185/149/143 186/83/144 183/81/141
f 186/83/144 185/149/143 187/150/145
f 187/150/145 138/89/123 186/83/144
f 138/89/123 187/150/145 114/107/99
f 74/74/74 188/98/146 134/96/119
f 188/98/146 74/74/74 131/124/116
f 131/124/116 189/100/147 188/98/146
f 189/100/147 131/124/116 190/151/148
f 190/151/148 191/102/149 189/100/147
f 191/102/149 190/151/148 192/152/150
f 191/102/149 193/153/151 194/104/152
f 193/153/151 191/102/149 192/152/150
f 194/104/152 195/154/153 196/105/154
f 195/154/153 194/104/152 193/153/151
f 196/105/154 197/155/155 198/86/156
f 197/155/155 196/105/154 195/154/153
f 198/86/156 199/156/157 200/87/158
f 199/156/157 198/86/156 197/155/155
f 200/87/158 201/157/159 202/106/160
f 201/157/159 200/87/158 199/156/157
f 203/158/161 204/101/162 205/159/163
f 204/101/162 203/158/161 112/106/97
f 112/106/97 203/158/161 113/103/98
f 206/160/164 113/103/98 203/158/161
f 113/103/98 206/160/164 207/87/165
f 207/87/165 206/160/164 85/85/84
f 208/161/166 85/85/84 206/160/164
f 85/85/84 208/161/166 88/88/85
f 209/160/167 88/88/85 208/161/166
f 88/88/85 209/160/167 110/85/96
f 210/158/168 110/85/96 209/160/167
f 110/85/96 210/158/168 108/103/95
f 211/159/169 108/103/95 210/158/168
f 108/103/95 211/159/169 106/101/94
f 104/99/93 211/159/169 212/162/170
f 211/159/169 104/99/93 106/101/94
f 102/97/92 212/162/170 213/163/171
f 212/162/170 102/97/92 104/99/93
f 99/94/91 213/163/171 214/164/172
f 213/163/171 99/94/91 102/97/92
f 97/93/90 214/164/172 215/165/173
f 214/164/172 97/93/90 99/94/91
f 95/92/89 215/165/173 216/166/174
f 215/165/173 95/92/89 97/93/90
f 93/91/88 216/166/174 217/167/175
f 216/166/174 93/91/88 95/92/89
f 93/91/88 218/129/176 91/90/87
f 218/129/176 93/91/88 217/167/175
f 91/90/87 219/130/177 89/82/86
f 219/130/177 91/90/87 218/129/176
f 89/82/86 220/168/178 84/84/83
f 220/168/178 89/82/86 219/130/177
f 221/81/179 141/130/126 82/82/82
f 141/130/126 221/81/179 220/168/178
f 220/168/178 221/81/179 84/84/83
f 58/58/58 187/150/145 115/108/100
f 187/150/145 58/58/58 114/107/99
f 222/169/180 59/59/59 115/108/100
f 59/59/59 222/169/180 116/109/101
f 223/170/181 60/60/60 116/109/101
f 60/60/60 223/170/181 117/110/102
f 224/171/182 118/111/103 117/110/102
f 118/111/103 224/171/182 225/172/183
f 118/111/103 119/112/104 61/61/61
f 119/112/104 118/111/103 226/173/184
f 119/112/104 120/113/105 62/62/62
f 120/113/105 119/112/104 227/174/185
f 228/175/186 63/63/63 120/113/105
f 63/63/63 228/175/186 121/114/106
f 229/176/187 64/64/64 121/114/106
f 64/64/64 229/176/187 122/115/107
f 230/177/188 65/65/65 122/115/107
f 65/65/65 230/177/188 123/116/108
f 231/178/189 124/117/109 123/116/108
f 124/117/109 231/178/189 232/179/190
f 233/180/191 126/119/111 125/118/110
f 126/119/111 233/180/191 234/181/192
f 126/119/111 127/120/112 68/68/68
f 127/120/112 126/119/111 235/182/193
f 236/183/194 67/67/67 128/121/113
f 67/67/67 236/183/194 125/118/110
f 127/120/112 129/122/114 69/69/69
f 129/122/114 127/120/112 237/184/195
f 238/185/196 70/70/70 130/123/115
f 70/70/70 238/185/196 128/121/113
f 71/71/71 190/151/148 131/124/116
f 190/151/148 71/71/71 129/122/114
f 239/186/197 72/72/72 132/125/117
f 72/72/72 239/186/197 130/123/115
f 240/187/198 76/76/76 136/127/121
f 76/76/76 240/187/198 132/125/117
f 137/128/122 135/126/120 78/78/78
f 135/126/120 137/128/122 241/188/199
f 135/126/120 241/188/199 136/127/121
f 136/127/121 241/188/199 242/189/200
f 232/179/190 137/128/122 124/117/109
f 137/128/122 232/179/190 243/190/201
f 219/130/177 141/130/126 220/168/178
f 141/130/126 219/130/177 218/129/176
f 141/130/126 218/129/176 139/129/124
f 139/129/124 218/129/176 217/167/175
f 139/129/124 217/167/175 244/167/202
f 244/167/202 217/167/175 216/166/174
f 244/167/202 216/166/174 245/166/203
f 245/166/203 216/166/174 215/165/173
f 245/166/203 215/165/173 246/165/204
f 246/165/204 215/165/173 214/164/172
f 246/165/204 214/164/172 247/164/205
f 247/164/205 214/164/172 213/163/171
f 247/164/205 213/163/171 248/163/206
f 248/163/206 213/163/171 212/162/170
f 248/163/206 212/162/170 249/162/207
f 249/162/207 212/162/170 211/159/169
f 249/162/207 211/159/169 205/159/163
f 205/159/163 211/159/169 210/158/168
f 205/159/163 210/158/168 203/158/161
f 203/158/161 210/158/168 209/160/167
f 203/158/161 209/160/167 206/160/164
f 206/160/164 209/160/167 208/161/166
f 250/133/208 244/167/202 251/91/209
f 244/167/202 250/133/208 139/129/124
f 139/129/124 250/133/208 252/132/208
f 139/129/124 252/132/208 253/131/208
f 139/129/124 253/131/208 140/90/125
f 254/92/210 244/167/202 245/166/203
f 244/167/202 254/92/210 251/91/209
f 251/91/209 254/92/210 155/136/131
f 251/91/209 155/136/131 153/135/130
f 251/91/209 153/135/130 255/134/211
f 256/93/212 245/166/203 246/165/204
f 245/166/203 256/93/212 254/92/210
f 254/92/210 256/93/212 159/138/132
f 254/92/210 159/138/132 157/137/132
f 257/94/213 246/165/204 247/164/205
f 246/165/204 257/94/213 256/93/212
f 256/93/212 257/94/213 163/140/133
f 256/93/212 163/140/133 161/139/133
f 258/97/214 247/164/205 248/163/206
f 247/164/205 258/97/214 257/94/213
f 257/94/213 258/97/214 168/142/134
f 257/94/213 168/142/134 166/141/134
f 259/99/215 248/163/206 249/162/207
f 248/163/206 259/99/215 258/97/214
f 258/97/214 259/99/215 172/144/136
f 258/97/214 172/144/136 170/143/135
f 260/146/216 261/145/216 262/147/216
f 204/101/162 249/162/207 205/159/163
f 249/162/207 204/101/162 259/99/215
f 259/99/215 204/101/162 262/147/216
f 259/99/215 262/147/216 261/145/216
f 263/191/217 264/131/218 265/132/219
f 264/131/218 263/191/217 182/148/140
f 264/131/218 182/148/140 184/80/142
f 266/192/220 185/149/143 182/148/140
f 185/149/143 266/192/220 222/169/180
f 222/169/180 187/150/145 185/149/143
f 187/150/145 222/169/180 115/108/100
f 237/184/195 190/151/148 129/122/114
f 190/151/148 237/184/195 192/152/150
f 267/193/221 192/152/150 237/184/195
f 192/152/150 267/193/221 193/153/151
f 195/154/153 267/193/221 268/194/222
f 267/193/221 195/154/153 193/153/151
f 195/154/153 269/195/223 197/155/155
f 269/195/223 195/154/153 268/194/222
f 197/155/155 270/196/224 199/156/157
f 270/196/224 197/155/155 269/195/223
f 199/156/157 271/197/225 201/157/159
f 271/197/225 199/156/157 270/196/224
f 272/147/226 273/198/227 274/146/228
f 273/198/227 272/147/226 202/106/160
f 273/198/227 202/106/160 201/157/159
f 266/192/220 116/109/101 222/169/180
f 116/109/101 266/192/220 223/170/181
f 275/199/229 117/110/102 223/170/181
f 117/110/102 275/199/229 224/171/182
f 276/200/230 225/172/183 224/171/182
f 225/172/183 276/200/230 277/201/231
f 225/172/183 226/173/184 118/111/103
f 226/173/184 225/172/183 278/202/232
f 226/173/184 227/174/185 119/112/104
f 227/174/185 226/173/184 279/203/233
f 227/174/185 228/175/186 120/113/105
f 228/175/186 227/174/185 280/204/234
f 281/205/235 121/114/106 228/175/186
f 121/114/106 281/205/235 229/176/187
f 282/206/236 122/115/107 229/176/187
f 122/115/107 282/206/236 230/177/188
f 283/207/237 123/116/108 230/177/188
f 123/116/108 283/207/237 231/178/189
f 284/208/238 232/179/190 231/178/189
f 232/179/190 284/208/238 285/209/239
f 286/210/240 234/181/192 233/180/191
f 234/181/192 286/210/240 287/211/241
f 234/181/192 235/182/193 126/119/111
f 235/182/193 234/181/192 288/212/242
f 289/213/243 125/118/110 236/183/194
f 125/118/110 289/213/243 233/180/191
f 235/182/193 237/184/195 127/120/112
f 237/184/195 235/182/193 267/193/221
f 290/214/244 128/121/113 238/185/196
f 128/121/113 290/214/244 236/183/194
f 291/215/245 130/123/115 239/186/197
f 130/123/115 291/215/245 238/185/196
f 292/216/246 132/125/117 240/187/198
f 132/125/117 292/216/246 239/186/197
f 293/217/247 136/127/121 242/189/200
f 136/127/121 293/217/247 240/187/198
f 243/190/201 241/188/199 137/128/122
f 241/188/199 243/190/201 294/218/248
f 241/188/199 294/218/248 242/189/200
f 242/189/200 294/218/248 295/219/249
f 285/209/239 243/190/201 232/179/190
f 243/190/201 285/209/239 296/220/250
f 297/133/251 298/134/252 299/221/253
f 298/134/252 297/133/251 300/91/254
f 299/221/253 298/134/252 301/222/255
f 299/221/253 265/132/219 297/133/251
f 265/132/219 299/221/253 263/191/217
f 302/223/256 303/92/257 304/137/257
f 303/92/257 302/223/256 305/136/257
f 305/136/257 302/223/256 301/222/255
f 306/222/258 307/134/259 308/135/260
f 309/224/261 310/93/262 311/139/262
f 310/93/262 309/224/261 312/138/262
f 312/138/262 309/224/261 302/223/256
f 313/225/263 314/94/264 315/141/264
f 314/94/264 313/225/263 316/140/264
f 316/140/264 313/225/263 309/224/261
f 317/226/265 318/97/266 319/143/266
f 318/97/266 317/226/265 320/142/266
f 320/142/266 317/226/265 313/225/263
f 274/146/228 317/226/265 173/145/137
f 317/226/265 274/146/228 273/198/227
f 263/191/217 266/192/220 182/148/140
f 266/192/220 263/191/217 321/227/267
f 288/212/242 267/193/221 235/182/193
f 267/193/221 288/212/242 268/194/222
f 322/228/268 268/194/222 288/212/242
f 268/194/222 322/228/268 269/195/223
f 270/196/224 322/228/268 323/229/269
f 322/228/268 270/196/224 269/195/223
f 273/198/227 271/197/225 324/230/270
f 271/197/225 273/198/227 201/157/159
f 271/197/225 323/229/269 325/231/271
f 323/229/269 271/197/225 270/196/224
f 321/227/267 223/170/181 266/192/220
f 223/170/181 321/227/267 275/199/229
f 326/232/272 224/171/182 275/199/229
f 224/171/182 326/232/272 276/200/230
f 327/233/273 277/201/231 276/200/230
f 277/201/231 327/233/273 328/234/274
f 277/201/231 278/202/232 225/172/183
f 278/202/232 277/201/231 329/235/275
f 278/202/232 279/203/233 226/173/184
f 279/203/233 278/202/232 330/236/276
f 279/203/233 280/204/234 227/174/185
f 280/204/234 279/203/233 331/237/277
f 280/204/234 281/205/235 228/175/186
f 281/205/235 280/204/234 332/238/278
f 333/239/279 229/176/187 281/205/235
f 229/176/187 333/239/279 282/206/236
f 334/240/280 230/177/188 282/206/236
f 230/177/188 334/240/280 283/207/237
f 335/241/281 231/178/189 283/207/237
f 231/178/189 335/241/281 284/208/238
f 336/242/282 337/243/283 338/244/284
f 337/243/283 336/242/282 339/245/285
f 337/243/283 339/245/285 335/241/281
f 335/241/281 339/245/285 340/246/81
f 340/246/81 339/245/285 341/247/81
f 341/247/81 339/245/285 342/248/286
f 341/247/81 342/248/286 343/249/81
f 343/249/81 342/248/286 344/250/287
f 343/249/81 344/250/287 345/251/81
f 345/251/81 344/250/287 346/252/81
f 346/252/81 344/250/287 347/253/288
f 346/252/81 347/253/288 348/254/81
f 348/254/81 347/253/288 349/255/289
f 348/254/81 349/255/289 350/256/81
f 350/256/81 349/255/289 351/257/290
f 350/256/81 351/257/290 352/258/81
f 352/258/81 351/257/290 353/259/81
f 353/259/81 351/257/290 354/260/291
f 353/259/81 354/260/291 355/261/81
f 355/261/81 354/260/291 356/262/292
f 355/261/81 356/262/292 357/263/81
f 357/263/81 356/262/292 358/264/293
f 357/263/81 358/264/293 359/265/81
f 359/265/81 358/264/293 360/266/81
f 335/241/281 361/267/81 284/208/238
f 361/267/81 335/241/281 340/246/81
f 284/208/238 361/267/81 362/268/81
f 284/208/238 362/268/81 363/269/81
f 284/208/238 363/269/81 285/209/239
f 285/209/239 363/269/81 364/270/81
f 285/209/239 364/270/81 296/220/250
f 296/220/250 364/270/81 365/271/81
f 296/220/250 365/271/81 366/272/294
f 366/272/294 365/271/81 367/273/81
f 366/272/294 367/273/81 368/274/81
f 366/272/294 368/274/81 369/275/295
f 369/275/295 368/274/81 370/276/296
f 370/276/296 368/274/81 371/277/81
f 370/276/296 371/277/81 372/278/297
f 372/278/297 371/277/81 373/279/81
f 372/278/297 373/279/81 374/280/298
f 374/280/298 373/279/81 375/281/81
f 374/280/298 375/281/81 376/282/81
f 374/280/298 376/282/81 377/283/299
f 377/283/299 376/282/81 360/266/81
f 377/283/299 360/266/81 358/264/293
f 377/283/299 358/264/293 378/284/300
f 377/283/299 378/284/300 379/285/301
f 379/285/301 378/284/300 380/286/302
f 381/287/303 286/210/240 382/288/304
f 286/210/240 381/287/303 287/211/241
f 287/211/241 288/212/242 234/181/192
f 288/212/242 287/211/241 322/228/268
f 383/289/305 233/180/191 289/213/243
f 233/180/191 383/289/305 286/210/240
f 384/290/306 236/183/194 290/214/244
f 236/183/194 384/290/306 289/213/243
f 385/291/307 238/185/196 291/215/245
f 238/185/196 385/291/307 290/214/244
f 386/292/308 239/186/197 292/216/246
f 239/186/197 386/292/308 291/215/245
f 387/293/309 240/187/198 293/217/247
f 240/187/198 387/293/309 292/216/246
f 388/294/310 242/189/200 295/219/249
f 242/189/200 388/294/310 293/217/247
f 296/220/250 294/218/248 243/190/201
f 294/218/248 296/220/250 366/272/294
f 294/218/248 366/272/294 295/219/249
f 295/219/249 366/272/294 369/275/295
f 389/295/311 301/222/255 302/223/256
f 301/222/255 389/295/311 299/221/253
f 299/221/253 321/227/267 263/191/217
f 321/227/267 299/221/253 390/296/312
f 391/297/313 302/223/256 309/224/261
f 302/223/256 391/297/313 389/295/311
f 392/298/314 309/224/261 313/225/263
f 309/224/261 392/298/314 391/297/313
f 393/299/315 313/225/263 317/226/265
f 313/225/263 393/299/315 392/298/314
f 393/299/315 317/226/265 273/198/227
f 317/226/265 172/144/136 173/145/137
f 323/229/269 287/211/241 381/287/303
f 287/211/241 323/229/269 322/228/268
f 393/299/315 324/230/270 394/300/316
f 324/230/270 393/299/315 273/198/227
f 324/230/270 325/231/271 395/301/317
f 325/231/271 324/230/270 271/197/225
f 325/231/271 381/287/303 396/302/318
f 381/287/303 325/231/271 323/229/269
f 390/296/312 275/199/229 321/227/267
f 275/199/229 390/296/312 326/232/272
f 397/303/319 276/200/230 326/232/272
f 276/200/230 397/303/319 327/233/273
f 398/304/320 328/234/274 327/233/273
f 328/234/274 398/304/320 399/305/321
f 328/234/274 329/235/275 277/201/231
f 329/235/275 328/234/274 400/306/322
f 329/235/275 330/236/276 278/202/232
f 330/236/276 329/235/275 401/307/323
f 330/236/276 331/237/277 279/203/233
f 331/237/277 330/236/276 402/308/324
f 331/237/277 332/238/278 280/204/234
f 332/238/278 331/237/277 403/309/325
f 332/238/278 333/239/279 281/205/235
f 333/239/279 332/238/278 404/310/326
f 405/311/327 282/206/236 333/239/279
f 282/206/236 405/311/327 334/240/280
f 337/243/283 283/207/237 334/240/280
f 283/207/237 337/243/283 335/241/281
f 406/312/328 380/286/302 378/284/300
f 380/286/302 406/312/328 407/313/329
f 380/286/302 408/314/330 379/285/301
f 408/314/330 380/286/302 407/313/329
f 379/285/301 409/315/331 377/283/299
f 409/315/331 379/285/301 408/314/330
f 377/283/299 410/316/332 374/280/298
f 410/316/332 377/283/299 409/315/331
f 374/280/298 411/317/333 372/278/297
f 411/317/333 374/280/298 410/316/332
f 372/278/297 388/294/310 370/276/296
f 388/294/310 372/278/297 411/317/333
f 370/276/296 295/219/249 369/275/295
f 295/219/249 370/276/296 388/294/310
f 338/244/284 334/240/280 405/311/327
f 334/240/280 338/244/284 337/243/283
f 412/318/334 338/244/284 405/311/327
f 338/244/284 412/318/334 336/242/282
f 413/319/335 336/242/282 412/318/334
f 336/242/282 413/319/335 339/245/285
f 414/320/336 339/245/285 413/319/335
f 339/245/285 414/320/336 342/248/286
f 415/321/337 342/248/286 414/320/336
f 342/248/286 415/321/337 344/250/287
f 416/322/338 344/250/287 415/321/337
f 344/250/287 416/322/338 347/253/288
f 417/323/339 347/253/288 416/322/338
f 347/253/288 417/323/339 349/255/289
f 418/324/340 349/255/289 417/323/339
f 349/255/289 418/324/340 351/257/290
f 418/324/340 354/260/291 351/257/290
f 354/260/291 418/324/340 419/325/341
f 419/325/341 356/262/292 354/260/291
f 356/262/292 419/325/341 420/326/342
f 420/326/342 358/264/293 356/262/292
f 358/264/293 420/326/342 421/327/343
f 421/327/343 378/284/300 358/264/293
f 378/284/300 421/327/343 406/312/328
f 396/302/318 382/288/304 422/328/344
f 382/288/304 396/302/318 381/287/303
f 382/288/304 383/289/305 423/329/345
f 383/289/305 382/288/304 286/210/240
f 424/330/346 289/213/243 384/290/306
f 289/213/243 424/330/346 383/289/305
f 425/331/347 290/214/244 385/291/307
f 290/214/244 425/331/347 384/290/306
f 426/332/348 291/215/245 386/292/308
f 291/215/245 426/332/348 385/291/307
f 427/333/349 292/216/246 387/293/309
f 292/216/246 427/333/349 386/292/308
f 411/317/333 293/217/247 388/294/310
f 293/217/247 411/317/333 387/293/309
f 428/334/350 299/221/253 389/295/311
f 299/221/253 428/334/350 390/296/312
f 429/335/351 389/295/311 391/297/313
f 389/295/311 429/335/351 428/334/350
f 430/336/352 391/297/313 392/298/314
f 391/297/313 430/336/352 429/335/351
f 394/300/316 392/298/314 393/299/315
f 392/298/314 394/300/316 430/336/352
f 394/300/316 395/301/317 431/337/353
f 395/301/317 394/300/316 324/230/270
f 395/301/317 396/302/318 432/338/354
f 396/302/318 395/301/317 325/231/271
f 428/334/350 326/232/272 390/296/312
f 326/232/272 428/334/350 397/303/319
f 433/339/355 327/233/273 397/303/319
f 327/233/273 433/339/355 398/304/320
f 434/340/356 399/305/321 398/304/320
f 399/305/321 434/340/356 435/341/357
f 399/305/321 400/306/322 328/234/274
f 400/306/322 399/305/321 436/342/358
f 400/306/322 401/307/323 329/235/275
f 401/307/323 400/306/322 437/343/359
f 401/307/323 402/308/324 330/236/276
f 402/308/324 401/307/323 438/344/360
f 402/308/324 403/309/325 331/237/277
f 403/309/325 402/308/324 439/345/361
f 403/309/325 404/310/326 332/238/278
f 404/310/326 403/309/325 440/346/362
f 404/310/326 405/311/327 333/239/279
f 405/311/327 404/310/326 412/318/334
f 441/347/363 407/313/329 406/312/328
f 407/313/329 441/347/363 442/348/364
f 407/313/329 443/349/365 408/314/330
f 443/349/365 407/313/329 442/348/364
f 408/314/330 444/350/366 409/315/331
f 444/350/366 408/314/330 443/349/365
f 409/315/331 427/333/349 410/316/332
f 427/333/349 409/315/331 444/350/366
f 410/316/332 387/293/309 411/317/333
f 387/293/309 410/316/332 427/333/349
f 440/346/362 412/318/334 404/310/326
f 412/318/334 440/346/362 413/319/335
f 445/351/367 413/319/335 440/346/362
f 413/319/335 445/351/367 414/320/336
f 446/352/368 414/320/336 445/351/367
f 414/320/336 446/352/368 415/321/337
f 447/353/369 415/321/337 446/352/368
f 415/321/337 447/353/369 416/322/338
f 448/354/370 416/322/338 447/353/369
f 416/322/338 448/354/370 417/323/339
f 449/355/371 417/323/339 448/354/370
f 417/323/339 449/355/371 418/324/340
f 449/355/371 419/325/341 418/324/340
f 419/325/341 449/355/371 450/356/372
f 450/356/372 420/326/342 419/325/341
f 420/326/342 450/356/372 451/357/373
f 451/357/373 421/327/343 420/326/342
f 421/327/343 451/357/373 452/358/374
f 452/358/374 406/312/328 421/327/343
f 406/312/328 452/358/374 441/347/363
f 432/338/354 422/328/344 453/359/375
f 422/328/344 432/338/354 396/302/318
f 422/328/344 423/329/345 454/360/376
f 423/329/345 422/328/344 382/288/304
f 423/329/345 424/330/346 455/361/377
f 424/330/346 423/329/345 383/289/305
f 456/362/378 384/290/306 425/331/347
f 384/290/306 456/362/378 424/330/346
f 457/363/379 385/291/307 426/332/348
f 385/291/307 457/363/379 425/331/347
f 444/350/366 386/292/308 427/333/349
f 386/292/308 444/350/366 426/332/348
f 433/339/355 428/334/350 429/335/351
f 428/334/350 433/339/355 397/303/319
f 458/364/380 429/335/351 430/336/352
f 429/335/351 458/364/380 433/339/355
f 430/336/352 431/337/353 458/364/380
f 431/337/353 430/336/352 394/300/316
f 431/337/353 432/338/354 459/365/381
f 432/338/354 431/337/353 395/301/317
f 458/364/380 398/304/320 433/339/355
f 398/304/320 458/364/380 434/340/356
f 434/340/356 460/366/382 435/341/357
f 460/366/382 434/340/356 459/365/381
f 435/341/357 436/342/358 399/305/321
f 436/342/358 435/341/357 461/367/383
f 436/342/358 437/343/359 400/306/322
f 437/343/359 436/342/358 462/368/384
f 437/343/359 438/344/360 401/307/323
f 438/344/360 437/343/359 463/369/385
f 438/344/360 439/345/361 402/308/324
f 439/345/361 438/344/360 464/370/386
f 439/345/361 440/346/362 403/309/325
f 440/346/362 439/345/361 445/351/367
f 465/371/387 442/348/364 441/347/363
f 442/348/364 465/371/387 466/372/388
f 442/348/364 457/363/379 443/349/365
f 457/363/379 442/348/364 466/372/388
f 443/349/365 426/332/348 444/350/366
f 426/332/348 443/349/365 457/363/379
f 464/370/386 445/351/367 439/345/361
f 445/351/367 464/370/386 446/352/368
f 467/373/389 446/352/368 464/370/386
f 446/352/368 467/373/389 447/353/369
f 468/374/390 447/353/369 467/373/389
f 447/353/369 468/374/390 448/354/370
f 469/375/391 448/354/370 468/374/390
f 448/354/370 469/375/391 449/355/371
f 469/375/391 450/356/372 449/355/371
f 450/356/372 469/375/391 470/376/392
f 470/376/392 451/357/373 450/356/372
f 451/357/373 470/376/392 471/377/393
f 471/377/393 452/358/374 451/357/373
f 452/358/374 471/377/393 472/378/394
f 472/378/394 441/347/363 452/358/374
f 441/347/363 472/378/394 465/371/387
f 459/365/381 453/359/375 460/366/382
f 453/359/375 459/365/381 432/338/354
f 453/359/375 454/360/376 473/379/395
f 454/360/376 453/359/375 422/328/344
f 454/360/376 455/361/377 474/380/396
f 455/361/377 454/360/376 423/329/345
f 455/361/377 456/362/378 475/381/397
f 456/362/378 455/361/377 424/330/346
f 466/372/388 425/331/347 457/363/379
f 425/331/347 466/372/388 456/362/378
f 458/364/380 459/365/381 434/340/356
f 459/365/381 458/364/380 431/337/353
f 435/341/357 476/382/398 461/367/383
f 476/382/398 435/341/357 460/366/382
f 461/367/383 462/368/384 436/342/358
f 462/368/384 461/367/383 477/383/399
f 462/368/384 463/369/385 437/343/359
f 463/369/385 462/368/384 478/384/400
f 463/369/385 464/370/386 438/344/360
f 464/370/386 463/369/385 467/373/389
f 475/381/397 466/372/388 465/371/387
f 466/372/388 475/381/397 456/362/378
f 478/384/400 467/373/389 463/369/385
f 467/373/389 478/384/400 468/374/390
f 479/385/401 468/374/390 478/384/400
f 468/374/390 479/385/401 469/375/391
f 479/385/401 470/376/392 469/375/391
f 470/376/392 479/385/401 480/386/402
f 480/386/402 471/377/393 470/376/392
f 471/377/393 480/386/402 481/387/403
f 481/387/403 472/378/394 471/377/393
f 472/378/394 481/387/403 482/388/404
f 482/388/404 465/371/387 472/378/394
f 465/371/387 482/388/404 475/381/397
f 460/366/382 473/379/395 476/382/398
f 473/379/395 460/366/382 453/359/375
f 473/379/395 474/380/396 483/389/405
f 474/380/396 473/379/395 454/360/376
f 474/380/396 475/381/397 482/388/404
f 475/381/397 474/380/396 455/361/377
f 461/367/383 484/390/406 477/383/399
f 484/390/406 461/367/383 476/382/398
f 477/383/399 478/384/400 462/368/384
f 478/384/400 477/383/399 479/385/401
f 477/383/399 480/386/402 479/385/401
f 480/386/402 477/383/399 484/390/406
f 484/390/406 481/387/403 480/386/402
f 481/387/403 484/390/406 483/389/405
f 483/389/405 482/388/404 481/387/403
f 482/388/404 483/389/405 474/380/396
f 476/382/398 483/389/405 484/390/406
f 483/389/405 476/382/398 473/379/395
