# SSTK version 0.8.0
# 10
mtllib original-10.mtl
o #ID28
v -0.11177017 0.66198795 -0.00167572
v -0.10825993 0.58386845 -0.02263257
v -0.11172556 0.58401834 -0.00168214
v -0.10829329 0.66181226 -0.02253549
v -0.10822633 0.66189683 0.01930342
v -0.10817631 0.58395124 0.01931103
v -0.09800670 0.58388682 -0.04213994
v -0.09806335 0.66198361 -0.04206494
v -0.09811093 0.66189705 0.03877340
v -0.09793953 0.58392620 0.03879833
v -0.08178316 0.58383121 -0.05890735
v -0.08180051 0.66182397 -0.05876266
v -0.08179742 0.66188875 0.05548056
v -0.08184100 0.58383187 0.05553306
v -0.06060603 0.66180660 -0.07162231
v -0.06051884 0.58398637 -0.07171436
v -0.06060216 0.58392637 0.06824394
v -0.06050040 0.66196914 0.06819264
v -0.03580723 0.66198253 -0.07977105
v -0.03589992 0.58390869 -0.07969772
v -0.03574175 0.58395989 0.07636821
v -0.03589763 0.66180660 0.07645492
v -0.00928665 0.66199190 -0.08251727
v -0.00939592 0.58389905 -0.08244942
v -0.00935152 0.58394643 0.07918144
v -0.00942712 0.66198923 0.07914734
v 0.01721343 0.66187669 -0.07967774
v 0.01708343 0.58400243 -0.07972827
v 0.01716523 0.58392865 0.07633348
v 0.01725092 0.66193320 0.07642096
v 0.04183870 0.66189435 -0.07177848
v 0.04186242 0.65448703 -0.07174533
v 0.04179857 0.58392355 -0.07171924
v 0.04186944 0.58393292 0.06821924
v 0.04177596 0.66182354 0.06822213
v 0.06302613 0.66191873 -0.05887699
v 0.06308788 0.58396899 -0.05886702
v 0.06304057 0.58395944 0.05538367
v 0.06300113 0.66182756 0.05540728
v 0.07931167 0.58392005 -0.04207131
v 0.07921863 0.63120362 -0.04218261
v 0.07928693 0.66188836 -0.04217395
v 0.07933389 0.66193230 0.03870543
v 0.07937446 0.58390934 0.03874665
v 0.08961835 0.58388851 -0.02269564
v 0.08955343 0.66188432 -0.02263390
v 0.08956170 0.66179829 0.01913793
v 0.08947796 0.58400830 0.01928618
v 0.09314208 0.58397029 -0.00178720
v 0.09313815 0.66187518 -0.00165738
vt 0.5151048 0.7521361
vt 0.4921843 0.7106647
vt 0.5151048 0.7106647
vt 0.4921843 0.7521361
vt 0.5380253 0.7521361
vt 0.5380253 0.7106647
vt 0.4708259 0.7106647
vt 0.4708259 0.7521361
vt 0.5593837 0.7521361
vt 0.5593837 0.7106647
vt 0.4524849 0.7106647
vt 0.4524849 0.7521361
vt 0.5777247 0.7521361
vt 0.5777247 0.7106647
vt 0.4384114 0.7521361
vt 0.4384114 0.7106647
vt 0.5917982 0.7106647
vt 0.5917982 0.7521361
vt 0.4295645 0.7521361
vt 0.4295645 0.7106647
vt 0.6006451 0.7106647
vt 0.6006451 0.7521361
vt 0.4265469 0.7521361
vt 0.4265469 0.7106647
vt 0.6036627 0.7106647
vt 0.6036627 0.7521361
vt 0.4384322 0.7481981
vt 0.4708293 0.735792
vn -1 0 0
vn -0.9465675130180817 0 -0.32250572599376226
vn -0.9465675130180817 0 0.32250572599376226
vn -0.8060586235917152 0 -0.5918356996104828
vn -0.8060586235917152 0 0.5918356996104828
vn -0.6180391893556666 0 -0.7861472892661975
vn -0.6180391893556666 0 0.7861472892661975
vn -0.413227034928427 0 -0.9106280347124508
vn -0.413227034928427 0 0.9106280347124508
vn -0.20604238553129936 0 -0.9785430677106509
vn -0.20604238553129936 0 0.9785430677106509
vn 0 0 -1
vn 0 0 1
vn 0.206277711040983 0.00006778942192841278 -0.9784934855850024
vn 0.20627777975083358 0.0000677894291059425 -0.9784934711001703
vn 0.20604238553129936 0 0.9785430677106509
vn 0.41375581828087443 0.00018945994217602237 -0.9103878771950197
vn 0.41308416055212277 0.00018912015732376207 -0.9106928354470099
vn 0.41336839516667845 0.00018926396251978423 -0.9105638550131875
vn 0.413227034928427 0 0.9106280347124508
vn 0.6178045706593506 0.00017836142052615866 -0.7863316607256883
vn 0.6180391893556666 0 0.7861472892661975
vn 0.80589358165937 0.00006613185498360753 -0.5920604113321629
vn 0.8058754140974362 0.0000661407994717443 -0.5920851396367587
vn 0.8058979530958934 0.00006612974410229834 -0.5920544610276205
vn 0.8060586235917152 0 0.5918356996104828
vn 0.9465044879152221 0.000011413047257333557 -0.3226906478751522
vn 0.9465675130180817 0 0.32250572599376226
vn 1 0 0
usemtl material_0_0
f 1/1/1 2/2/2 3/3/1
f 2/2/2 1/1/1 4/4/2
f 5/5/3 3/3/1 6/6/3
f 3/3/1 5/5/3 1/1/1
f 4/4/2 7/7/4 2/2/2
f 7/7/4 4/4/2 8/8/4
f 9/9/5 6/6/3 10/10/5
f 6/6/3 9/9/5 5/5/3
f 8/8/4 11/11/6 7/7/4
f 11/11/6 8/8/4 12/12/6
f 13/13/7 10/10/5 14/14/7
f 10/10/5 13/13/7 9/9/5
f 15/15/8 11/11/6 12/12/6
f 11/11/6 15/15/8 16/16/8
f 17/17/9 13/13/7 14/14/7
f 13/13/7 17/17/9 18/18/9
f 19/19/10 16/16/8 15/15/8
f 16/16/8 19/19/10 20/20/10
f 21/21/11 18/18/9 17/17/9
f 18/18/9 21/21/11 22/22/11
f 23/23/12 20/20/10 19/19/10
f 20/20/10 23/23/12 24/24/12
f 25/25/13 22/22/11 21/21/11
f 22/22/11 25/25/13 26/26/13
f 27/19/14 24/24/12 23/23/12
f 24/24/12 27/19/14 28/20/15
f 29/21/16 26/26/13 25/25/13
f 26/26/13 29/21/16 30/22/16
f 31/15/17 28/20/15 27/19/14
f 28/20/15 31/15/17 32/27/18
f 33/16/19 28/20/15 32/27/18
f 34/17/20 30/22/16 29/21/16
f 30/22/16 34/17/20 35/18/20
f 31/15/17 33/16/19 32/27/18
f 33/16/19 31/15/17 36/12/21
f 33/16/19 36/12/21 37/11/21
f 38/14/22 35/18/20 34/17/20
f 35/18/20 38/14/22 39/13/22
f 36/12/21 40/7/23 37/11/21
f 40/7/23 36/12/21 41/28/24
f 41/28/24 36/12/21 42/8/25
f 43/9/26 38/14/22 44/10/26
f 38/14/22 43/9/26 39/13/22
f 41/28/24 45/2/27 40/7/23
f 45/2/27 41/28/24 46/4/27
f 46/4/27 41/28/24 42/8/25
f 47/5/28 44/10/26 48/6/28
f 44/10/26 47/5/28 43/9/26
f 46/4/27 49/3/29 45/2/27
f 49/3/29 46/4/27 50/1/29
f 50/1/29 48/6/28 49/3/29
f 48/6/28 50/1/29 47/5/28
