# SSTK version 0.8.0
# 6
mtllib original-6.mtl
o #ID96
v -0.06270643 0.89236057 0.01534498
v -0.05735967 0.88599364 0.02889310
v -0.06276623 0.88593231 0.01551510
v -0.05730076 0.89231779 0.02886470
v -0.04850487 0.88600206 0.04052703
v -0.04852303 0.89232496 0.04055742
v -0.02239080 0.88588916 -0.05218744
v 0.00626885 0.88585241 -0.05189633
v -0.00795220 0.88593183 -0.05405966
v -0.03595509 0.88584157 -0.04684750
v 0.01976769 0.88584893 -0.04608117
v -0.04766679 0.88598641 -0.03825449
v 0.03104758 0.88598834 -0.03723209
v -0.00853277 0.88593152 -0.03482587
v -0.01827500 0.88591675 -0.03371964
v -0.05666570 0.88592617 -0.02664863
v -0.02735076 0.88595803 -0.03034956
v -0.03498774 0.88583652 -0.02461288
v -0.06225714 0.88597471 -0.01336368
v -0.04104306 0.88583709 -0.01703127
v -0.04503802 0.88583265 -0.00809594
v -0.06443383 0.88584275 0.00094611
v -0.04646014 0.88585568 0.00151610
v -0.06260130 0.88585506 0.01549592
v -0.04536057 0.88585023 0.01114653
v -0.04192012 0.88585639 0.02015146
v -0.05719531 0.88587643 0.02881815
v -0.03602207 0.88587395 0.02790086
v -0.02856090 0.88593606 0.03402172
v -0.04862616 0.88582727 0.04046576
v -0.01971651 0.88588993 0.03790398
v -0.00997173 0.88581934 0.03937358
v 0.00093693 0.88590670 -0.03339788
v 0.03974641 0.88597284 -0.02562727
v 0.00992069 0.88584008 -0.02946053
v 0.01735720 0.88587277 -0.02356909
v 0.04521163 0.88599598 -0.01199214
v 0.02320285 0.88588181 -0.01576049
v 0.02660231 0.88595200 -0.00676904
v 0.04682149 0.88582191 0.00244238
v 0.02784032 0.88599356 0.00284932
v 0.04475766 0.88589738 0.01670751
v 0.02626508 0.88584691 0.01250955
v 0.02251810 0.88594558 0.02135584
v 0.03915566 0.88594885 0.03001499
v 0.01646998 0.88593140 0.02887430
v 0.00865635 0.88597363 0.03472398
v 0.03020450 0.88584908 0.04161440
v -0.00040121 0.88590309 0.03816631
v -0.03723190 0.88597499 0.04949813
v 0.01847231 0.88595149 0.05027818
v -0.02382590 0.88583201 0.05525330
v 0.00496806 0.88595099 0.05556495
v -0.00935783 0.88593924 0.05740735
v -0.06435632 0.89236023 0.00091524
v -0.06441598 0.88600505 0.00107981
v -0.03716638 0.89223954 0.04949822
v -0.03712110 0.88598160 0.04948892
v -0.02379514 0.89238827 0.05523919
v -0.02371835 0.88599569 0.05533189
v -0.00941992 0.89242216 0.05734041
v -0.00937912 0.88588095 0.05723223
v 0.00505561 0.89239537 0.05551534
v 0.00494187 0.88590009 0.05554604
v 0.01853521 0.89240119 0.05020458
v 0.01850139 0.88592817 0.05029227
v 0.03004497 0.89235201 0.04147914
v 0.03008756 0.88590188 0.04150558
v 0.03916886 0.88588673 0.03002196
v 0.03902188 0.89242733 0.03018024
v 0.04487981 0.88592936 0.01670019
v 0.04489895 0.89229579 0.01675165
v 0.04688466 0.88600534 0.00228870
v 0.04700619 0.89242767 0.00237491
v 0.04520814 0.88586871 -0.01206893
v 0.04526048 0.89225806 -0.01209179
v 0.03979729 0.88588408 -0.02562627
v 0.03970810 0.89230595 -0.02558478
v 0.03100643 0.88600818 -0.03710493
v 0.03108128 0.89234717 -0.03715774
v 0.01959471 0.89236675 -0.04624768
v 0.01965616 0.88590397 -0.04615999
v 0.00634475 0.89237875 -0.05184439
v 0.00639114 0.88595892 -0.05188446
v -0.00795609 0.89223821 -0.05394079
v -0.00798050 0.88600956 -0.05395804
v -0.02248971 0.89223858 -0.05223299
v -0.02238935 0.88590802 -0.05229663
v -0.03595249 0.89232479 -0.04683788
v -0.03587129 0.88583218 -0.04676427
v -0.04763233 0.89226017 -0.03822465
v -0.04760777 0.88600670 -0.03812776
v -0.05657272 0.88590801 -0.02671859
v -0.05658041 0.89238241 -0.02678489
v -0.06232975 0.88590877 -0.01338629
v -0.06236274 0.89238503 -0.01341631
vn 0.9690519956204228 0 -0.24685669888434472
vn 0.8721411147267265 0 -0.4892544082614106
vn 0.7157952832052489 0 -0.6983101836155029
vn 0 1 0
vn 0.9999235645671793 0 0.012363859561880094
vn 0.5106691904443761 0 -0.8597772839118776
vn 0.27074180062659947 0 -0.9626520022279427
vn 0.012363859561880094 0 -0.9999235645671793
vn -0.24685669888434472 0 -0.9690519956204228
vn -0.4892544082614106 0 -0.8721411147267265
vn -0.6983101836155029 0 -0.7157952832052489
vn -0.8597772839118776 0 -0.5106691904443761
vn -0.9626520022279427 0 -0.27074180062659947
vn -0.9999235645671793 0 -0.012363859561880094
vn -0.9690519956204228 0 0.24685669888434472
vn -0.8721411147267265 0 0.4892544082614106
vn -0.7157952832052489 0 0.6983101836155029
vn -0.5106691904443761 0 0.8597772839118776
vn -0.27074180062659947 0 0.9626520022279427
vn -0.012363859561880094 0 0.9999235645671793
vn 0.24685669888434472 0 0.9690519956204228
vn 0.4892544082614106 0 0.8721411147267265
vn 0.6983101836155029 0 0.7157952832052489
vn 0.8597772839118776 0 0.5106691904443761
vn 0.9626520022279427 0 0.27074180062659947
usemtl material_0_0
f 1//1 2//2 3//1
f 2//2 1//1 4//2
f 4//2 5//3 2//2
f 5//3 4//2 6//3
f 7//4 8//4 9//4
f 8//4 7//4 10//4
f 8//4 10//4 11//4
f 11//4 10//4 12//4
f 11//4 12//4 13//4
f 13//4 12//4 14//4
f 14//4 12//4 15//4
f 15//4 12//4 16//4
f 15//4 16//4 17//4
f 17//4 16//4 18//4
f 18//4 16//4 19//4
f 18//4 19//4 20//4
f 20//4 19//4 21//4
f 21//4 19//4 22//4
f 21//4 22//4 23//4
f 23//4 22//4 24//4
f 23//4 24//4 25//4
f 25//4 24//4 26//4
f 26//4 24//4 27//4
f 26//4 27//4 28//4
f 28//4 27//4 29//4
f 29//4 27//4 30//4
f 29//4 30//4 31//4
f 31//4 30//4 32//4
f 13//4 33//4 34//4
f 33//4 13//4 14//4
f 34//4 33//4 35//4
f 34//4 35//4 36//4
f 34//4 36//4 37//4
f 37//4 36//4 38//4
f 37//4 38//4 39//4
f 37//4 39//4 40//4
f 40//4 39//4 41//4
f 40//4 41//4 42//4
f 42//4 41//4 43//4
f 42//4 43//4 44//4
f 42//4 44//4 45//4
f 45//4 44//4 46//4
f 45//4 46//4 47//4
f 45//4 47//4 48//4
f 48//4 47//4 49//4
f 48//4 49//4 32//4
f 48//4 32//4 30//4
f 48//4 30//4 50//4
f 48//4 50//4 51//4
f 51//4 50//4 52//4
f 51//4 52//4 53//4
f 53//4 52//4 54//4
f 55//5 3//1 56//5
f 3//1 55//5 1//1
f 57//6 5//3 6//3
f 5//3 57//6 58//6
f 59//7 58//6 57//6
f 58//6 59//7 60//7
f 61//8 60//7 59//7
f 60//7 61//8 62//8
f 63//9 62//8 61//8
f 62//8 63//9 64//9
f 65//10 64//9 63//9
f 64//9 65//10 66//10
f 67//11 66//10 65//10
f 66//10 67//11 68//11
f 67//11 69//12 68//11
f 69//12 67//11 70//12
f 70//12 71//13 69//12
f 71//13 70//12 72//13
f 72//13 73//14 71//13
f 73//14 72//13 74//14
f 74//14 75//15 73//14
f 75//15 74//14 76//15
f 76//15 77//16 75//15
f 77//16 76//15 78//16
f 78//16 79//17 77//16
f 79//17 78//16 80//17
f 79//17 81//18 82//18
f 81//18 79//17 80//17
f 82//18 83//19 84//19
f 83//19 82//18 81//18
f 84//19 85//20 86//20
f 85//20 84//19 83//19
f 86//20 87//21 88//21
f 87//21 86//20 85//20
f 88//21 89//22 90//22
f 89//22 88//21 87//21
f 90//22 91//23 92//23
f 91//23 90//22 89//22
f 91//23 93//24 92//23
f 93//24 91//23 94//24
f 94//24 95//25 93//24
f 95//25 94//24 96//25
f 96//25 56//5 95//25
f 56//5 96//25 55//5
