# SSTK version 0.8.0
# 4
mtllib original-4.mtl
o #ID80
v 0.01179682 0.95506064 -0.14904420
v -0.02720529 0.95496545 -0.14916563
v -0.00773223 0.95502169 -0.15119325
v 0.03031011 0.95507025 -0.14303641
v -0.04571717 0.95508282 -0.14303770
v 0.04735557 0.95505721 -0.13293997
v -0.06271910 0.95493852 -0.13303291
v 0.06178202 0.95498695 -0.11968626
v -0.07716286 0.95508778 -0.11966249
v 0.07292007 0.95498449 -0.10373782
v -0.08834101 0.95504038 -0.10375780
v 0.08055338 0.95500353 -0.08573111
v -0.09591576 0.95497314 -0.08571507
v 0.08062933 0.95500466 0.06876231
v -0.09599828 0.95492259 0.06893187
v 0.07998423 0.95491150 0.08935717
v -0.09491831 0.95495296 0.08941114
v 0.07819978 0.95491206 0.10971126
v -0.09258446 0.95489350 0.11000701
v 0.07501830 0.95504413 0.13007114
v -0.08888472 0.95502980 0.13039518
v 0.07068109 0.95496796 0.15010860
v -0.08399687 0.95494579 0.15051595
v 0.06522840 0.95508013 0.16980053
v -0.07798830 0.95503402 0.17025325
v 0.05858192 0.95503781 0.18920135
v -0.07082591 0.95495362 0.18965057
v 0.05061674 0.95491444 0.20808637
v -0.06260266 0.95507528 0.20869643
v 0.04174774 0.95498678 0.22663511
v -0.05307273 0.95493058 0.22693973
v 0.03155255 0.95491968 0.24441140
v -0.04252061 0.95502704 0.24477036
v 0.02050043 0.95490071 0.26173161
v -0.03093118 0.95505790 0.26199107
v 0.00834869 0.95500756 0.27819835
v -0.01845999 0.95501061 0.27840873
v -0.00494610 0.95501046 0.29389289
v 0.04785421 0.99923147 -0.07165407
v 0.04789006 0.99920141 0.02572983
v 0.04759583 0.99907894 0.03861689
v 0.04645457 0.99913103 0.05146225
v 0.04444880 0.99912259 0.06418946
v 0.04171943 0.99905408 0.07682453
v 0.03823312 0.99906732 0.08919950
v 0.03399030 0.99924275 0.10149336
v 0.02905930 0.99923332 0.11338360
v 0.02348919 0.99923190 0.12494209
v 0.01708945 0.99907133 0.13637367
v 0.00993659 0.99911725 0.14716572
v 0.00240610 0.99912563 0.15751326
v 0.00834922 0.95494171 0.27824741
v -0.00590329 0.99911377 0.16742507
v -0.00490166 0.95508552 0.29388988
v -0.01838170 0.95504155 0.27835167
v -0.01448960 0.99914191 0.15766904
v -0.02239496 0.99911452 0.14724412
v -0.02974836 0.99914835 0.13643340
v -0.03627878 0.99914571 0.12523768
v -0.04227834 0.99912348 0.11374881
v -0.04749195 0.99911253 0.10185857
v -0.05213241 0.99918554 0.08953665
v -0.05576999 0.99913687 0.07698382
v -0.05888548 0.99916254 0.06450057
v -0.06119863 0.99908709 0.05151424
v -0.06263568 0.99906699 0.03864703
v -0.06325010 0.99920437 0.02572377
v -0.06338346 0.99917244 -0.07173798
v -0.05856802 0.99923838 -0.08317935
v -0.05150618 0.99920829 -0.09328250
v -0.04234508 0.99921467 -0.10161750
v -0.03172391 0.99906789 -0.10787253
v -0.01996735 0.99906464 -0.11175373
v -0.00777994 0.99923517 -0.11308213
v 0.00457237 0.99924005 -0.11170504
v 0.01634677 0.99919036 -0.10775176
v 0.02702579 0.99917246 -0.10148485
v 0.03601118 0.99918870 -0.09326499
v 0.04309337 0.99920846 -0.08299017
vt 0.3535865 0.9080324
vt 0.3513071 0.9080324
vt 0.3603218 0.9080324
vt 0.3712095 0.9080324
vt 0.3857586 0.9080324
vt 0.4033132 0.9080324
vt 0.4230818 0.9080324
vt 0.5924177 0.9080324
vt 0.6148803 0.9080324
vt 0.6150406 0.9080324
vt 0.6372605 0.9080324
vt 0.6375483 0.9080324
vt 0.6594765 0.9080324
vt 0.65986 0.9080324
vt 0.6814472 0.9080324
vt 0.6818954 0.9080324
vt 0.7030924 0.9080324
vt 0.7035754 0.9080324
vt 0.7243329 0.9080324
vt 0.7248221 0.9080324
vt 0.7450911 0.9080324
vt 0.7455592 0.9080324
vt 0.7652913 0.9080324
vt 0.7657121 0.9080324
vt 0.7848595 0.9080324
vt 0.7852085 0.9080324
vt 0.8037244 0.9080324
vt 0.8039783 0.9080324
vt 0.8218169 0.9080324
vt 0.821954 0.9080324
vt 0.839071 0.9080324
vt 0.4383798 0.9315172
vt 0.5450614 0.9315172
vt 0.5592128 0.9315172
vt 0.5733123 0.9315172
vt 0.5873084 0.9315172
vt 0.60115 0.9315172
vt 0.6147865 0.9315172
vt 0.628168 0.9315172
vt 0.6412457 0.9315172
vt 0.6539717 0.9315172
vt 0.6662997 0.9315172
vt 0.6781846 0.9315172
vt 0.6895829 0.9315172
vt 0.700453 0.9315172
vt 0.6896692 0.9315172
vt 0.6783446 0.9315172
vt 0.6665196 0.9315172
vt 0.6542369 0.9315172
vt 0.6415405 0.9315172
vt 0.6284762 0.9315172
vt 0.6150907 0.9315172
vt 0.6014323 0.9315172
vt 0.58755 0.9315172
vt 0.5734937 0.9315172
vt 0.5593138 0.9315172
vt 0.4259255 0.9315172
vt 0.4148662 0.9315172
vt 0.4057002 0.9315172
vt 0.398841 0.9315172
vt 0.3945977 0.9315172
vt 0.3931617 0.9315172
vn 0.19315449798221349 -0.3947016958767527 -0.8982771906161564
vn -0.19315449798221349 -0.3947016958767527 -0.8982771906161564
vn 0 -0.394184883846018 -0.9190311623374375
vn 0.3774353940949157 -0.39623499380079064 -0.8369828869051643
vn -0.3774353940949157 -0.39623499380079064 -0.8369828869051643
vn 0.5443915362084458 -0.3987330265204402 -0.7380039490859506
vn -0.5443915362084458 -0.3987330265204402 -0.7380039490859506
vn 0.6863956835661466 -0.40210899037260805 -0.6059449854923168
vn -0.6863956835661466 -0.40210899037260805 -0.6059449854923168
vn 0.7970058932288173 -0.40624049654867217 -0.44693429620294683
vn -0.7970058932288173 -0.40624049654867217 -0.44693429620294683
vn 0.8969230024082114 -0.3965259010646601 -0.19569450052543386
vn -0.8969230024082114 -0.3965259010646601 -0.19569450052543386
vn 0.8974580372159584 -0.4406755182740152 0.01934319080212707
vn -0.9005353952823832 -0.4333843977296378 0.03484200981747386
vn 0.9042576611029225 -0.4216730818615299 0.06715574711126329
vn -0.9050218213453287 -0.41595600981050135 0.088972472098454
vn 0.9069635760241235 -0.4027279893537548 0.1233986967379154
vn -0.9059641349046108 -0.397781115325546 0.14491090558306732
vn 0.9059127433350165 -0.38329361833513814 0.18002250861151192
vn -0.9032484933232323 -0.3790810971978515 0.20109619851350696
vn 0.9009158244463287 -0.3637396098700653 0.23673650642383925
vn -0.8966998580359496 -0.36021078314273913 0.25724998796113174
vn 0.8918598192268702 -0.34439150742445246 0.29322440632138314
vn -0.886213993076892 -0.34148489733231835 0.3130699975542957
vn 0.87870542134285 -0.32552090790656774 0.3491603084807444
vn -0.8717556790917728 -0.3231683922491148 0.3682447911680004
vn 0.8614791996206865 -0.30734059986467643 0.4042218998220191
vn -0.8533518770522547 -0.30547159178547034 0.422466188639333
vn 0.8402624345587302 -0.29000541192748647 0.4581003188409772
vn -0.8310815626899487 -0.2885506870459875 0.47543867865595596
vn 0.8151791216697234 -0.273618007273526 0.5105058135706614
vn -0.8050652266756233 -0.2725118090296067 0.5268845174581791
vn 0.7863853328678642 -0.258235410793241 0.5611707234547649
vn -0.7754544612196553 -0.25741788712657554 0.5765469711669848
vn 0 -1 0
vn 0.47228320796330137 0.8771418147897373 -0.08701039146710693
vn 0.4510592008680228 0.8924852017175073 0.003970142007640181
vn 0.44283978149173087 0.8963610625370337 0.020730979133559004
vn 0.4224428888597958 0.9052627761273951 0.04518087880853902
vn 0.39997689796756464 0.9140576953553237 0.06720870965848688
vn 0.37603668246714766 0.922541756986142 0.08667825595859356
vn 0.3511955026480966 0.9305578070166246 0.10355620078083809
vn 0.32597530173792755 0.9379979050009076 0.11789840062857178
vn 0.3008265980865909 0.9448000939905943 0.12983119917420802
vn 0.2761181887083926 0.9509416611120879 0.1395302942940329
vn 0.25213490707711683 0.9564307268458345 0.14720140413176244
vn 0.22908319017943293 0.9612973587901444 0.1530629934383427
vn 0.20710060566731225 0.9655856264232702 0.15733320430542633
vn 0.37399528508897845 0.8767205650455507 0.30247078794062754
vn 0.0028622869152642723 0.9675922713552003 0.2525014925248941
vn 0.0030125310397076813 0.944147312444652 0.3295099043432164
vn -0.3672979949345456 0.8773434879004419 0.3088050957412288
vn -0.20336600592346918 0.9658062281311688 0.16081230468400176
vn -0.2250820911947494 0.9616134623815139 0.15696369385955297
vn -0.24783640550849007 0.9568721212677413 0.15156800336879822
vn -0.27149109941222044 0.9515445979399013 0.14441419968734254
vn -0.29584199820808355 0.9456075942724501 0.13529149918053873
vn -0.3206104886116752 0.9390593666439074 0.12400169559536683
vn -0.3454386111304053 0.9319278300277216 0.11037520355640833
vn -0.36989180220727685 0.9242778055154968 0.09428994056266185
vn -0.39346838978429727 0.9162169762120655 0.07569067803482697
vn -0.4156196994511481 0.9078977988010639 0.0546063399278889
vn -0.43577640350595226 0.8995153072368712 0.031163090250716435
vn -0.4517934998625192 0.8920934997285358 0.0071986959978094355
vn -0.47228320796330137 0.8771418147897373 -0.08701039146710693
vn -0.39566609027632793 0.8922639780722114 -0.21751629465443922
vn -0.3372843941044088 0.894493384364627 -0.2934634948703799
vn -0.2652553125392211 0.8963019423702284 -0.35536241679878855
vn -0.1827506898490739 0.8976324501408139 -0.40107127772241025
vn -0.09316058537785081 0.8984458554237367 -0.4290875787108808
vn 0 0.8987194828091815 -0.43852399161185834
vn 0.09316058537785081 0.8984458554237367 -0.4290875787108808
vn 0.1827506898490739 0.8976324501408139 -0.40107127772241025
vn 0.2652553125392211 0.8963019423702284 -0.35536241679878855
vn 0.3372843941044088 0.894493384364627 -0.2934634948703799
vn 0.39566609027632793 0.8922639780722114 -0.21751629465443922
usemtl material_0_0
f 1/1/1 2/1/2 3/2/3
f 2/1/2 1/1/1 4/3/4
f 2/1/2 4/3/4 5/3/5
f 5/3/5 4/3/4 6/4/6
f 5/3/5 6/4/6 7/4/7
f 7/4/7 6/4/6 8/5/8
f 7/4/7 8/5/8 9/5/9
f 9/5/9 8/5/8 10/6/10
f 9/5/9 10/6/10 11/6/11
f 11/6/11 10/6/10 12/7/12
f 11/6/11 12/7/12 13/7/13
f 13/7/13 12/7/12 14/8/14
f 13/7/13 14/8/14 15/8/15
f 15/8/15 14/8/14 16/9/16
f 15/8/15 16/9/16 17/10/17
f 17/10/17 16/9/16 18/11/18
f 17/10/17 18/11/18 19/12/19
f 19/12/19 18/11/18 20/13/20
f 19/12/19 20/13/20 21/14/21
f 21/14/21 20/13/20 22/15/22
f 21/14/21 22/15/22 23/16/23
f 23/16/23 22/15/22 24/17/24
f 23/16/23 24/17/24 25/18/25
f 25/18/25 24/17/24 26/19/26
f 25/18/25 26/19/26 27/20/27
f 27/20/27 26/19/26 28/21/28
f 27/20/27 28/21/28 29/22/29
f 29/22/29 28/21/28 30/23/30
f 29/22/29 30/23/30 31/24/31
f 31/24/31 30/23/30 32/25/32
f 31/24/31 32/25/32 33/26/33
f 33/26/33 32/25/32 34/27/34
f 33/26/33 34/27/34 35/28/35
f 35/28/35 34/27/34 36/29/36
f 35/28/35 36/29/36 37/30/36
f 37/30/36 36/29/36 38/31/36
f 39/32/37 14/8/14 12/7/12
f 14/8/14 39/32/37 40/33/38
f 40/33/38 16/9/16 14/8/14
f 16/9/16 40/33/38 41/34/39
f 41/34/39 18/11/18 16/9/16
f 18/11/18 41/34/39 42/35/40
f 42/35/40 20/13/20 18/11/18
f 20/13/20 42/35/40 43/36/41
f 44/37/42 20/13/20 43/36/41
f 20/13/20 44/37/42 22/15/22
f 45/38/43 22/15/22 44/37/42
f 22/15/22 45/38/43 24/17/24
f 46/39/44 24/17/24 45/38/43
f 24/17/24 46/39/44 26/19/26
f 47/40/45 26/19/26 46/39/44
f 26/19/26 47/40/45 28/21/28
f 48/41/46 28/21/28 47/40/45
f 28/21/28 48/41/46 30/23/30
f 49/42/47 30/23/30 48/41/46
f 30/23/30 49/42/47 32/25/32
f 50/43/48 32/25/32 49/42/47
f 32/25/32 50/43/48 34/27/34
f 51/44/49 34/27/34 50/43/48
f 34/27/34 51/44/49 52/29/50
f 53/45/51 52/29/50 51/44/49
f 52/29/50 53/45/51 54/31/52
f 55/30/53 53/45/51 56/46/54
f 53/45/51 55/30/53 54/31/52
f 35/28/35 56/46/54 57/47/55
f 56/46/54 35/28/35 55/30/53
f 33/26/33 57/47/55 58/48/56
f 57/47/55 33/26/33 35/28/35
f 31/24/31 58/48/56 59/49/57
f 58/48/56 31/24/31 33/26/33
f 29/22/29 59/49/57 60/50/58
f 59/49/57 29/22/29 31/24/31
f 27/20/27 60/50/58 61/51/59
f 60/50/58 27/20/27 29/22/29
f 25/18/25 61/51/59 62/52/60
f 61/51/59 25/18/25 27/20/27
f 23/16/23 62/52/60 63/53/61
f 62/52/60 23/16/23 25/18/25
f 21/14/21 63/53/61 64/54/62
f 63/53/61 21/14/21 23/16/23
f 64/54/62 19/12/19 21/14/21
f 19/12/19 64/54/62 65/55/63
f 65/55/63 17/10/17 19/12/19
f 17/10/17 65/55/63 66/56/64
f 66/56/64 15/8/15 17/10/17
f 15/8/15 66/56/64 67/33/65
f 67/33/65 13/7/13 15/8/15
f 13/7/13 67/33/65 68/32/66
f 68/32/66 11/6/11 13/7/13
f 11/6/11 68/32/66 69/57/67
f 11/6/11 70/58/68 9/5/9
f 70/58/68 11/6/11 69/57/67
f 9/5/9 71/59/69 7/4/7
f 71/59/69 9/5/9 70/58/68
f 71/59/69 5/3/5 7/4/7
f 5/3/5 71/59/69 72/60/70
f 72/60/70 2/1/2 5/3/5
f 2/1/2 72/60/70 73/61/71
f 73/61/71 3/2/3 2/1/2
f 3/2/3 73/61/71 74/62/72
f 75/61/73 3/2/3 74/62/72
f 3/2/3 75/61/73 1/1/1
f 76/60/74 1/1/1 75/61/73
f 1/1/1 76/60/74 4/3/4
f 77/59/75 4/3/4 76/60/74
f 4/3/4 77/59/75 6/4/6
f 77/59/75 8/5/8 6/4/6
f 8/5/8 77/59/75 78/58/76
f 78/58/76 10/6/10 8/5/8
f 10/6/10 78/58/76 79/57/77
f 79/57/77 12/7/12 10/6/10
f 12/7/12 79/57/77 39/32/37
f 73/61/71 75/61/73 74/62/72
f 75/61/73 73/61/71 72/60/70
f 75/61/73 72/60/70 76/60/74
f 76/60/74 72/60/70 71/59/69
f 76/60/74 71/59/69 77/59/75
f 77/59/75 71/59/69 70/58/68
f 77/59/75 70/58/68 78/58/76
f 78/58/76 70/58/68 69/57/67
f 78/58/76 69/57/67 79/57/77
f 79/57/77 69/57/67 68/32/66
f 79/57/77 68/32/66 39/32/37
f 39/32/37 68/32/66 67/33/65
f 39/32/37 67/33/65 40/33/38
f 40/33/38 67/33/65 66/56/64
f 40/33/38 66/56/64 41/34/39
f 41/34/39 66/56/64 42/35/40
f 42/35/40 66/56/64 65/55/63
f 42/35/40 65/55/63 43/36/41
f 43/36/41 65/55/63 64/54/62
f 43/36/41 64/54/62 44/37/42
f 44/37/42 64/54/62 63/53/61
f 44/37/42 63/53/61 45/38/43
f 45/38/43 63/53/61 62/52/60
f 45/38/43 62/52/60 46/39/44
f 46/39/44 62/52/60 61/51/59
f 46/39/44 61/51/59 47/40/45
f 47/40/45 61/51/59 60/50/58
f 47/40/45 60/50/58 48/41/46
f 48/41/46 60/50/58 59/49/57
f 48/41/46 59/49/57 49/42/47
f 49/42/47 59/49/57 58/48/56
f 49/42/47 58/48/56 50/43/48
f 50/43/48 58/48/56 57/47/55
f 50/43/48 57/47/55 51/44/49
f 51/44/49 57/47/55 56/46/54
f 51/44/49 56/46/54 53/45/51
