# SSTK version 0.8.0
# 12
mtllib original-12.mtl
o #ID42
v 0.01718010 0.58396072 -0.07978766
v -0.03574646 0.58397477 -0.07986347
v -0.00938974 0.58383737 -0.08261231
v -0.06059773 0.58400727 -0.07177359
v 0.04179281 0.58383363 -0.07172228
v -0.08167660 0.58396321 -0.05881285
v 0.06314560 0.58400416 -0.05879239
v -0.09794684 0.58390912 -0.04203017
v 0.07924486 0.58390761 -0.04221133
v 0.08956719 0.58382620 -0.02270304
v -0.10833990 0.58393466 -0.02268165
v 0.09296113 0.58391820 -0.00161792
v -0.11182772 0.58382508 -0.00179298
v 0.08948152 0.58391468 0.01914200
v -0.10829179 0.58395505 0.01926681
v 0.07930941 0.58384291 0.03871358
v -0.09805917 0.58395722 0.03871799
v 0.06312192 0.58385450 0.05534713
v -0.08177227 0.58385042 0.05553467
v 0.04179474 0.58400942 0.06823528
v -0.06059967 0.58387734 0.06821865
v 0.01723264 0.58384877 0.07645876
v -0.03589754 0.58402212 0.07629783
v -0.00924502 0.58387598 0.07914522
vn 0 -1 0
usemtl material_0_0
f 1//1 2//1 3//1
f 2//1 1//1 4//1
f 4//1 1//1 5//1
f 4//1 5//1 6//1
f 6//1 5//1 7//1
f 6//1 7//1 8//1
f 8//1 7//1 9//1
f 8//1 9//1 10//1
f 8//1 10//1 11//1
f 11//1 10//1 12//1
f 11//1 12//1 13//1
f 13//1 12//1 14//1
f 13//1 14//1 15//1
f 15//1 14//1 16//1
f 15//1 16//1 17//1
f 17//1 16//1 18//1
f 17//1 18//1 19//1
f 19//1 18//1 20//1
f 19//1 20//1 21//1
f 21//1 20//1 22//1
f 21//1 22//1 23//1
f 23//1 22//1 24//1
