# SSTK version 0.8.0
# 6
mtllib original-6.mtl
o #ID2179
v 0.05306998 0.66115347 -0.10793965
v 0.00479853 0.66123231 -0.10726521
v -0.00600465 0.66123338 -0.10789435
v 0.06328684 0.66126224 -0.10122917
v 0.01524288 0.66108147 -0.10563603
v 0.02553265 0.66122682 -0.10295871
v 0.03553996 0.66107089 -0.09912764
v 0.07301127 0.66119875 -0.09354904
v 0.04518795 0.66110679 -0.09425998
v 0.05401243 0.66108218 -0.08851859
v 0.08165727 0.66111935 -0.08478249
v 0.06240732 0.66115353 -0.08173735
v 0.08939617 0.66114550 -0.07517100
v 0.07005773 0.66126323 -0.07409716
v 0.09610416 0.66110430 -0.06475655
v 0.07664123 0.66119413 -0.06588117
v 0.08253159 0.66118376 -0.05701217
v 0.10173025 0.66123102 -0.05392998
v 0.08740328 0.66122513 -0.04744946
v 0.10620340 0.66116112 -0.04233833
v 0.09126614 0.66116934 -0.03742560
v 0.10942818 0.66123677 -0.03038419
v 0.09403675 0.66122889 -0.02704215
v 0.11144138 0.66106653 -0.01833237
v 0.09577072 0.66113652 -0.01662511
v 0.11207087 0.66119260 -0.00598529
v 0.09618510 0.66125023 -0.00580986
v 0.11137707 0.66109580 0.00635907
v 0.09582258 0.66109368 0.00484713
v 0.09413644 0.66110680 0.01534720
v 0.10945681 0.66111398 0.01857959
v 0.09133413 0.66123201 0.02570731
v 0.10642161 0.66108061 0.03061464
v 0.08740463 0.66125191 0.03560380
v 0.10197686 0.66125970 0.04208060
v 0.08258987 0.66120030 0.04519102
v 0.09625985 0.66109631 0.05303257
v 0.07675507 0.66120727 0.05405991
v 0.08960920 0.66109187 0.06344546
v 0.07005256 0.66121566 0.06248789
v 0.06265733 0.66118861 0.07001354
v 0.08178310 0.66125280 0.07308993
v 0.05420620 0.66114698 0.07679538
v 0.07307860 0.66120537 0.08173977
v 0.04522760 0.66116020 0.08263817
v 0.06362821 0.66110733 0.08951502
v 0.03570051 0.66112088 0.08737063
v 0.02589581 0.66123355 0.09120833
v 0.05323511 0.66123817 0.09629471
v 0.01547183 0.66119751 0.09412762
v 0.00500833 0.66119925 0.09575227
v -0.00571089 0.66119273 0.09638405
v 0.04226813 0.66114183 0.10192216
v -0.06472416 0.66116633 0.09631800
v -0.05358388 0.66114024 0.10204154
v 0.03069274 0.66111735 0.10639793
v -0.04206664 0.66126583 0.10640665
v 0.01876517 0.66106691 0.10954360
v -0.03031782 0.66119357 0.10965044
v 0.00670624 0.66110983 0.11155730
v -0.01808200 0.66112480 0.11140783
v -0.00564796 0.66110308 0.11215073
v 0.00640637 0.66114386 -0.12308101
v -0.01832971 0.66124221 -0.12299088
v -0.00602765 0.66123887 -0.12364160
v 0.01848135 0.66115466 -0.12118938
v -0.03051436 0.66120456 -0.12116421
v 0.03040103 0.66117218 -0.11798374
v -0.04244850 0.66107744 -0.11792214
v 0.04195209 0.66120130 -0.11344557
v -0.05386361 0.66121241 -0.11346824
v -0.06485028 0.66107272 -0.10773575
v -0.01666962 0.66112047 -0.10729040
v -0.07518368 0.66123213 -0.10106333
v -0.02714541 0.66121977 -0.10555814
v -0.03741871 0.66106646 -0.10290911
v -0.04745125 0.66126300 -0.09900294
v -0.08481664 0.66124264 -0.09327757
v -0.05690802 0.66123555 -0.09409260
v -0.06603295 0.66121148 -0.08840946
v -0.09359840 0.66112399 -0.08450047
v -0.07435895 0.66115613 -0.08152166
v -0.10135627 0.66106911 -0.07506227
v -0.08176111 0.66114829 -0.07398678
v -0.10800679 0.66123308 -0.06454410
v -0.08847225 0.66119385 -0.06577441
v -0.09440384 0.66115492 -0.05671502
v -0.11369558 0.66107295 -0.05364479
v -0.09915385 0.66121042 -0.04714617
v -0.11806230 0.66117002 -0.04207340
v -0.10296528 0.66121566 -0.03721161
v -0.12118018 0.66107847 -0.03022083
v -0.10566362 0.66124650 -0.02687082
v -0.12306468 0.66116375 -0.01795514
v -0.10741570 0.66117385 -0.01638692
v -0.12367903 0.66124572 -0.00556633
v -0.10794883 0.66111226 -0.00575444
v -0.10743672 0.66114637 0.00508330
v -0.12311121 0.66119626 0.00676382
v -0.10575061 0.66115292 0.01551747
v -0.12110961 0.66106763 0.01895706
v -0.10287466 0.66114653 0.02597521
v -0.11786460 0.66111221 0.03083043
v -0.09904950 0.66116960 0.03594237
v -0.11353539 0.66110714 0.04229297
v -0.09431572 0.66112378 0.04529566
v -0.10795214 0.66115176 0.05323242
v -0.08849178 0.66116743 0.05426712
v -0.10110743 0.66112678 0.06353705
v -0.08159122 0.66106780 0.06265730
v -0.07411661 0.66125414 0.07016763
v -0.09332989 0.66111060 0.07316447
v -0.06570051 0.66110647 0.07683838
v -0.08454167 0.66125631 0.08190488
v -0.05679022 0.66116480 0.08273169
v -0.07504139 0.66110167 0.08968475
v -0.04721345 0.66118917 0.08754194
v -0.03733674 0.66108892 0.09137651
v -0.02703395 0.66118586 0.09413285
v -0.01642810 0.66117532 0.09585587
v -0.00580010 0.66114360 0.09631114
v -0.01637507 0.66119203 0.09580744
v -0.06458810 0.66113320 0.09632710
v -0.02689173 0.66126158 0.09413405
v -0.03734172 0.66108056 0.09142937
v -0.07507646 0.66124993 0.08959692
v -0.04717761 0.66117370 0.08754257
v -0.05672017 0.66108167 0.08278413
v -0.08464685 0.66109549 0.08183939
v -0.06574313 0.66116038 0.07692212
v -0.09335839 0.66114095 0.07320418
v -0.07413264 0.66123802 0.07025468
v -0.10110968 0.66107889 0.06362799
v -0.08166179 0.66108295 0.06258516
v -0.08845244 0.66116654 0.05441819
v -0.10788339 0.66107525 0.05325513
v -0.09423786 0.66112101 0.04536953
v -0.11345627 0.66108044 0.04238084
v -0.09904615 0.66115210 0.03579294
v -0.11798697 0.66110651 0.03076510
v -0.10292584 0.66118056 0.02585498
v -0.12105953 0.66121011 0.01885572
v -0.10579335 0.66121045 0.01559605
v -0.12306240 0.66117431 0.00674982
v -0.10739595 0.66108079 0.00498700
v -0.12379464 0.66126088 -0.00556303
v -0.10804024 0.66111961 -0.00569306
v -0.10750391 0.66121349 -0.01637282
v -0.12306498 0.66107143 -0.01797949
v -0.10574975 0.66116792 -0.02686298
v -0.12110886 0.66124254 -0.03021336
v -0.10292084 0.66110944 -0.03728251
v -0.11798505 0.66111092 -0.04200175
v -0.09917281 0.66122049 -0.04712407
v -0.11351297 0.66118266 -0.05368147
v -0.09429518 0.66107484 -0.05667200
v -0.10808489 0.66114615 -0.06463305
v -0.08851048 0.66117370 -0.06561116
v -0.08187381 0.66114306 -0.07393239
v -0.10120525 0.66114336 -0.07493400
v -0.07429451 0.66125128 -0.08157414
v -0.09360779 0.66114531 -0.08448918
v -0.06590662 0.66112612 -0.08831118
v -0.08477764 0.66125427 -0.09331620
v -0.05696782 0.66116562 -0.09408382
v -0.04742104 0.66123615 -0.09909357
v -0.07527231 0.66119757 -0.10101956
v -0.03744012 0.66115180 -0.10277450
v -0.02722627 0.66114701 -0.10563763
v -0.01659326 0.66115543 -0.10736905
v -0.06490551 0.66116702 -0.10777369
v -0.00602402 0.66115577 -0.10783132
v -0.05388886 0.66108194 -0.11349468
v 0.05295493 0.66117229 -0.10793197
v 0.04205614 0.66122791 -0.11362347
v -0.04239927 0.66113737 -0.11794980
v 0.03042125 0.66110635 -0.11788078
v -0.03055872 0.66124055 -0.12105977
v 0.01859584 0.66124246 -0.12116725
v -0.01828014 0.66126285 -0.12305956
v 0.00625699 0.66118596 -0.12314276
v -0.00594084 0.66117961 -0.12357929
v -0.00580754 0.66112384 0.11205943
v 0.00667588 0.66109069 0.11137628
v -0.01807933 0.66107817 0.11142217
v -0.03018200 0.66124069 0.10953021
v 0.01883408 0.66107773 0.10958787
v -0.04216321 0.66108095 0.10638760
v 0.03066756 0.66112437 0.10632014
v -0.05377414 0.66108130 0.10192736
v 0.04223866 0.66119920 0.10195429
v 0.05324987 0.66111651 0.09634460
v 0.00494721 0.66116544 0.09580956
v 0.01549081 0.66124527 0.09406238
v 0.02589236 0.66110282 0.09140417
v 0.06347116 0.66107650 0.08961405
v 0.03588355 0.66112876 0.08755612
v 0.04522760 0.66123843 0.08269269
v 0.07311397 0.66107924 0.08170131
v 0.05426031 0.66121414 0.07684962
v 0.08196080 0.66115384 0.07306035
v 0.06250286 0.66121635 0.06999401
v 0.08962977 0.66113632 0.06351246
v 0.07017194 0.66122402 0.06252506
v 0.07677991 0.66122847 0.05410439
v 0.09634351 0.66124519 0.05314369
v 0.08256306 0.66114086 0.04513299
v 0.10200439 0.66113954 0.04214998
v 0.08751780 0.66118942 0.03569534
v 0.10642488 0.66111550 0.03062701
v 0.09135203 0.66126463 0.02562943
v 0.10953605 0.66110727 0.01865151
v 0.09397981 0.66122678 0.01524602
v 0.11142640 0.66124449 0.00643960
v 0.09566647 0.66116158 0.00481774
v 0.09626819 0.66107627 -0.00595420
v 0.11200898 0.66114623 -0.00597596
v 0.09578119 0.66109688 -0.01650923
v 0.11130735 0.66124936 -0.01827209
v 0.09405148 0.66117466 -0.02707139
v 0.10935607 0.66107086 -0.03042145
v 0.09117402 0.66120932 -0.03745741
v 0.10628682 0.66113289 -0.04241863
v 0.08745432 0.66119052 -0.04745839
v 0.10178923 0.66122721 -0.05379879
v 0.08244837 0.66120773 -0.05684445
v 0.09612605 0.66107404 -0.06479123
v 0.07679595 0.66111920 -0.06587926
v 0.07000686 0.66115608 -0.07425005
v 0.08950860 0.66121115 -0.07517363
v 0.06247216 0.66108989 -0.08171244
v 0.08162041 0.66113136 -0.08484500
v 0.05411474 0.66121245 -0.08854214
v 0.07297604 0.66107333 -0.09341177
v 0.04513892 0.66126036 -0.09429480
v 0.03564376 0.66106929 -0.09908488
v 0.06342949 0.66124633 -0.10118515
v 0.02562730 0.66108141 -0.10285521
v 0.01524823 0.66113401 -0.10565429
v 0.00479345 0.66117903 -0.10740314
v 0.11786699 0.67275994 0.02037141
v 0.10626762 0.66107790 0.03052604
v 0.10945692 0.66114741 0.01853958
v 0.11460823 0.67266858 0.03310399
v 0.11463503 0.67271942 0.03327161
v 0.11803973 0.67277106 0.02041518
v 0.10641485 0.66123025 0.03055552
v 0.10952277 0.66116772 0.01861204
v 0.10192418 0.66116223 0.04196632
v 0.10981051 0.67274382 0.04566162
v 0.10987535 0.67266701 0.04554538
v 0.10186927 0.66122378 0.04203477
v 0.09635148 0.66107203 0.05301338
v 0.10380813 0.67279637 0.05744165
v 0.10375711 0.67263197 0.05727886
v 0.09638899 0.66117570 0.05296703
v 0.08955358 0.66116439 0.06345929
v 0.09665302 0.67267874 0.06853189
v 0.09651712 0.67268382 0.06845923
v 0.08962337 0.66124698 0.06338729
v 0.08179841 0.66122903 0.07293621
v 0.08838648 0.67266304 0.07871640
v 0.08830721 0.67267639 0.07879183
v 0.08188305 0.66126082 0.07301530
v 0.07309854 0.66116849 0.08176194
v 0.07894744 0.67267450 0.08821748
v 0.07895019 0.67273537 0.08824997
v 0.07317366 0.66114506 0.08169425
v 0.06863998 0.67264738 0.09655132
v 0.06364208 0.66112313 0.08949653
v 0.06874933 0.67265502 0.09656781
v 0.06353546 0.66124535 0.08947673
v 0.05752999 0.67269548 0.10367916
v 0.05313230 0.66126518 0.09630187
v 0.05749420 0.67265106 0.10369893
v 0.05326083 0.66123666 0.09621528
v 0.04573188 0.67276197 0.10977671
v 0.04224025 0.66123601 0.10182166
v 0.04585586 0.67274851 0.10971663
v 0.04221927 0.66113901 0.10183180
v 0.03332607 0.67271052 0.11445448
v 0.03066490 0.66114927 0.10636925
v 0.03347700 0.67268455 0.11454251
v 0.03079230 0.66116072 0.10624804
v 0.02054550 0.67278902 0.11787678
v 0.01885225 0.66118886 0.10957886
v 0.02067764 0.67267769 0.11798538
v 0.01887665 0.66110815 0.10944713
v 0.00758665 0.67278692 0.12001766
v 0.00655785 0.66116680 0.11154016
v 0.00743652 0.67280123 0.12010379
v 0.00662697 0.66124729 0.11151152
v -0.00574533 0.67275171 0.12080479
v -0.00572120 0.66117369 0.11217934
v -0.00562564 0.67279905 0.12072473
v -0.00574664 0.66122862 0.11214785
v -0.01800351 0.66112236 0.11154240
v -0.01895994 0.67266570 0.12009069
v -0.01805430 0.66115039 0.11139613
v -0.01888241 0.67281696 0.12016249
v -0.03021288 0.66108436 0.10961872
v -0.03211348 0.67277106 0.11796703
v -0.03021761 0.66126272 0.10960650
v -0.03203258 0.67274794 0.11809665
v -0.04213383 0.66112697 0.10645345
v -0.04472905 0.67262369 0.11452091
v -0.04219466 0.66121905 0.10634966
v -0.04479867 0.67275077 0.11467550
v -0.05368733 0.66125114 0.10204294
v -0.05712643 0.67265910 0.10986040
v -0.05367760 0.66114830 0.10204118
v -0.05718787 0.67273154 0.10994342
v -0.06464954 0.66115224 0.09642695
v -0.06908551 0.67264097 0.10384715
v -0.06461359 0.66107926 0.09640659
v -0.06892390 0.67268851 0.10390248
v -0.07511638 0.66119117 0.08959487
v -0.08004433 0.67276510 0.09670807
v -0.07497241 0.66112817 0.08977617
v -0.08017783 0.67277158 0.09669546
v -0.08459409 0.66114126 0.08187877
v -0.09047117 0.67266261 0.08826934
v -0.08473381 0.66114526 0.08186711
v -0.09044666 0.67264911 0.08841001
v -0.09975536 0.67275936 0.07896113
v -0.09341967 0.66120290 0.07316185
v -0.09987151 0.67267715 0.07907805
v -0.09334589 0.66109723 0.07318142
v -0.10120046 0.66114244 0.06358592
v -0.10806090 0.67265298 0.06865960
v -0.10809676 0.67276059 0.06871748
v -0.10116351 0.66120433 0.06369482
v -0.10791906 0.66113666 0.05333786
v -0.11543937 0.67273301 0.05769075
v -0.11541891 0.67271604 0.05759896
v -0.10788947 0.66114753 0.05326195
v -0.11358287 0.66114030 0.04219750
v -0.12146673 0.67268635 0.04587903
v -0.12139333 0.67276068 0.04587089
v -0.11346900 0.66125331 0.04232680
v -0.11789907 0.66124346 0.03071840
v -0.12620053 0.67279558 0.03340343
v -0.12616902 0.67263031 0.03351557
v -0.11783880 0.66124596 0.03074444
v -0.12109302 0.66116098 0.01894070
v -0.12968004 0.67281676 0.02072566
v -0.12955911 0.67267136 0.02074377
v -0.12117695 0.66122076 0.01878575
v -0.12303680 0.66124145 0.00672633
v -0.13169456 0.67274403 0.00750496
v -0.13168626 0.67265209 0.00749086
v -0.12311589 0.66121633 0.00662359
v -0.12365915 0.66122070 -0.00569825
v -0.13246301 0.67272779 -0.00563463
v -0.13233212 0.67275695 -0.00558528
v -0.12373948 0.66125042 -0.00556599
v -0.12312381 0.66107755 -0.01805059
v -0.13163470 0.67281052 -0.01879052
v -0.13175969 0.67272241 -0.01881551
v -0.12317674 0.66108018 -0.01800507
v -0.12111520 0.66106634 -0.03007719
v -0.12960624 0.67271707 -0.03204756
v -0.12967798 0.67269164 -0.03196017
v -0.12126773 0.66124083 -0.03010834
v -0.11805448 0.66117220 -0.04210754
v -0.12617026 0.67282079 -0.04475625
v -0.12623452 0.67278410 -0.04484296
v -0.11792982 0.66108492 -0.04208572
v -0.11369851 0.66116313 -0.05358133
v -0.12155936 0.67272843 -0.05707078
v -0.12145351 0.67269140 -0.05708271
v -0.11367853 0.66108632 -0.05365675
v -0.10809802 0.66112889 -0.06463715
v -0.11546707 0.67264081 -0.06893013
v -0.11552882 0.67268074 -0.06898071
v -0.10806336 0.66114125 -0.06459110
v -0.10138059 0.66122340 -0.07496520
v -0.10832690 0.67266124 -0.08013088
v -0.10823425 0.67271595 -0.08006545
v -0.10132113 0.66117886 -0.07497907
v -0.09355183 0.66112594 -0.08448371
v -0.10002952 0.67269971 -0.09026241
v -0.09993478 0.67274394 -0.09030879
v -0.09362353 0.66123716 -0.08461419
v -0.08482670 0.66113446 -0.09326097
v -0.09055101 0.67272804 -0.09963986
v -0.08479095 0.66113872 -0.09334020
v -0.09061843 0.67274538 -0.09980619
v -0.08034262 0.67264676 -0.10798231
v -0.07522934 0.66108365 -0.10110315
v -0.07527845 0.66118301 -0.10114875
v -0.08024150 0.67263872 -0.10816444
v -0.06924107 0.67276159 -0.11523093
v -0.06482361 0.66120231 -0.10774779
v -0.06484510 0.66108165 -0.10788231
v -0.06915911 0.67268474 -0.11522924
v -0.05746508 0.67272597 -0.12131484
v -0.05393482 0.66126089 -0.11339860
v -0.05387530 0.66112570 -0.11351733
v -0.05750394 0.67280143 -0.12130279
v -0.04498671 0.67273234 -0.12605728
v -0.04238867 0.66109825 -0.11778005
v -0.04243119 0.66121860 -0.11778941
v -0.04512758 0.67276226 -0.12610669
v -0.03230108 0.67272203 -0.12958422
v -0.03057587 0.66123346 -0.12107464
v -0.03044839 0.66119066 -0.12099164
v -0.03225551 0.67276150 -0.12951090
v -0.01914935 0.67268771 -0.13170106
v -0.01838591 0.66109344 -0.12294201
v -0.01833947 0.66123905 -0.12296993
v -0.01926936 0.67277050 -0.13163758
v -0.00588980 0.67271336 -0.13226416
v -0.00593118 0.66112351 -0.12368713
v -0.00591398 0.66115811 -0.12366584
v -0.00601585 0.67279054 -0.13226863
v 0.00714440 0.67280376 -0.13157490
v 0.00643824 0.66115654 -0.12298925
v 0.00630927 0.66113381 -0.12300057
v 0.00731013 0.67269900 -0.13155400
v 0.01850833 0.66118851 -0.12117334
v 0.02040425 0.67262521 -0.12953068
v 0.02031975 0.67265325 -0.12960657
v 0.01854236 0.66111569 -0.12111050
v 0.03047649 0.66118354 -0.11791954
v 0.03302836 0.67280170 -0.12612861
v 0.03318593 0.67263712 -0.12620465
v 0.03052621 0.66112821 -0.11794786
v 0.04190246 0.66125821 -0.11348200
v 0.04545952 0.67277746 -0.12152150
v 0.04548810 0.67272055 -0.12150156
v 0.04206868 0.66119991 -0.11362632
v 0.05294598 0.66113344 -0.10801538
v 0.05734790 0.67262339 -0.11550799
v 0.05732352 0.67277099 -0.11543387
v 0.05300591 0.66113449 -0.10801409
v 0.06326306 0.66121965 -0.10127942
v 0.06842145 0.67280897 -0.10814539
v 0.06836310 0.67270779 -0.10816770
v 0.06337425 0.66116962 -0.10114598
v 0.07300909 0.66116855 -0.09340971
v 0.07867030 0.67270086 -0.09989134
v 0.07870042 0.67281814 -0.09983456
v 0.07300086 0.66113579 -0.09348997
v 0.08811092 0.67269078 -0.09047687
v 0.08160256 0.66122555 -0.08473046
v 0.08176471 0.66125935 -0.08485075
v 0.08815243 0.67270525 -0.09056154
v 0.08953612 0.66114179 -0.07519556
v 0.09647804 0.67266813 -0.08036030
v 0.09654219 0.67270103 -0.08021673
v 0.08938974 0.66114343 -0.07511593
v 0.09626562 0.66109645 -0.06491725
v 0.10372480 0.67276495 -0.06911571
v 0.10374073 0.67280320 -0.06915368
v 0.09610582 0.66114199 -0.06485611
v 0.10182675 0.66116170 -0.05391008
v 0.10965484 0.67267296 -0.05747208
v 0.10973565 0.67276855 -0.05735984
v 0.10177148 0.66114331 -0.05378363
v 0.10632364 0.66114984 -0.04227561
v 0.11441218 0.67262621 -0.04493915
v 0.11452649 0.67274937 -0.04504288
v 0.10620944 0.66109749 -0.04239251
v 0.10950708 0.66109236 -0.03034248
v 0.11785123 0.67274877 -0.03216897
v 0.11789516 0.67267598 -0.03217425
v 0.10940895 0.66113880 -0.03044561
v 0.11146508 0.66115187 -0.01816535
v 0.11995284 0.67275606 -0.01920488
v 0.11995542 0.67269243 -0.01924564
v 0.11142698 0.66110059 -0.01814443
v 0.11210876 0.66114949 -0.00590667
v 0.12071818 0.67267337 -0.00601538
v 0.12076735 0.67273870 -0.00588120
v 0.11197366 0.66126461 -0.00590709
v 0.11148098 0.66107169 0.00642588
v 0.12007044 0.67268088 0.00727776
v 0.12004140 0.67273839 0.00730072
v 0.11149001 0.66115495 0.00634963
v 0.11793557 0.81132306 0.02041809
v 0.11448859 0.67274013 0.03315961
v 0.11799907 0.67263166 0.02035847
v 0.11448196 0.81138967 0.03312631
v 0.11451803 0.81144863 0.03321394
v 0.11806258 0.81136715 0.02031788
v 0.11464229 0.67264510 0.03323432
v 0.11805183 0.67264836 0.02036596
v 0.10976802 0.67269601 0.04556977
v 0.10974883 0.81140224 0.04553625
v 0.10989536 0.81141933 0.04546308
v 0.10975272 0.67271864 0.04555415
v 0.10388105 0.67271088 0.05735560
v 0.10377052 0.81142296 0.05735930
v 0.10390647 0.81128519 0.05731997
v 0.10382677 0.67275267 0.05729424
v 0.09653435 0.67280530 0.06849160
v 0.09663350 0.81133018 0.06848209
v 0.09666613 0.81142780 0.06848726
v 0.09657639 0.67266148 0.06842698
v 0.08836518 0.67272991 0.07872996
v 0.08830618 0.81129664 0.07870468
v 0.08830747 0.81136596 0.07876924
v 0.08831436 0.67263890 0.07879104
v 0.07887413 0.67279287 0.08808922
v 0.07894206 0.81130227 0.08822300
v 0.07903326 0.81137712 0.08808306
v 0.07899969 0.67282095 0.08822117
v 0.06863758 0.81141035 0.09656638
v 0.06871864 0.67279001 0.09648783
v 0.06859326 0.81145356 0.09660560
v 0.06872313 0.67269221 0.09651069
v 0.05757011 0.81131031 0.10368862
v 0.05758454 0.67270721 0.10370754
v 0.05750641 0.81136151 0.10377605
v 0.05751923 0.67263530 0.10377299
v 0.04576431 0.81129252 0.10974367
v 0.04579617 0.67281070 0.10985253
v 0.04581561 0.81133044 0.10978094
v 0.04583113 0.67276301 0.10973758
v 0.03331839 0.81130302 0.11448206
v 0.03341910 0.67270351 0.11454692
v 0.03336287 0.81127852 0.11461985
v 0.03335858 0.67272484 0.11459527
v 0.02065555 0.81134075 0.11789264
v 0.02058378 0.67282003 0.11787517
v 0.02050971 0.81140531 0.11789463
v 0.02062854 0.67268577 0.11794164
v 0.00752618 0.81133498 0.12003056
v 0.00746272 0.67268498 0.12014187
v 0.00754117 0.81145318 0.12010876
v 0.00757906 0.67273447 0.12011850
v -0.00565570 0.81140419 0.12076763
v -0.00565637 0.67265720 0.12076584
v -0.00564159 0.81143778 0.12074661
v -0.00561095 0.67263242 0.12071629
v -0.01891648 0.81138632 0.11998999
v -0.01884374 0.67270754 0.12014686
v -0.01896193 0.81130366 0.11999049
v -0.01883698 0.67270611 0.12015678
v -0.03208138 0.81138611 0.11810140
v -0.03202240 0.67263460 0.11812685
v -0.03206899 0.81146913 0.11795873
v -0.03199810 0.67273324 0.11795254
v -0.04477494 0.81138575 0.11461985
v -0.04491050 0.67281206 0.11462547
v -0.04489932 0.81132344 0.11460600
v -0.04488862 0.67264098 0.11464255
v -0.05710985 0.81145276 0.10980272
v -0.05720380 0.67273708 0.10990753
v -0.05722427 0.81137716 0.10982210
v -0.05715715 0.67272635 0.10992151
v -0.06892563 0.81134473 0.10383836
v -0.06898566 0.67266190 0.10396405
v -0.06900813 0.81147345 0.10387469
v -0.06900240 0.67263676 0.10392300
v -0.08005458 0.81146207 0.09658283
v -0.08002041 0.67269434 0.09674323
v -0.08008587 0.81137893 0.09672973
v -0.08013985 0.67272245 0.09671716
v -0.09049882 0.81147090 0.08837739
v -0.09048334 0.67275952 0.08831260
v -0.09042704 0.81141754 0.08839160
v -0.09047191 0.67278306 0.08827733
v -0.09987164 0.81130971 0.07894934
v -0.09981914 0.67269276 0.07907114
v -0.09983176 0.81132403 0.07903178
v -0.09983406 0.67265967 0.07907097
v -0.10816299 0.67280234 0.06877364
v -0.10808759 0.81132863 0.06865983
v -0.10820222 0.81144990 0.06879505
v -0.10812680 0.67273251 0.06875155
v -0.11540705 0.67274458 0.05761183
v -0.11530879 0.81142246 0.05769549
v -0.11538430 0.81140946 0.05761225
v -0.11526662 0.67267404 0.05764220
v -0.12134118 0.67281373 0.04586571
v -0.12137236 0.81131922 0.04577982
v -0.12147631 0.81139777 0.04582658
v -0.12148400 0.67269174 0.04580671
v -0.12622810 0.67274187 0.03341514
v -0.12617501 0.81138037 0.03355115
v -0.12621588 0.81144289 0.03345581
v -0.12621190 0.67272116 0.03338444
v -0.12964216 0.67273908 0.02075951
v -0.12949916 0.81138770 0.02062604
v -0.12951916 0.81136599 0.02065570
v -0.12961970 0.67272248 0.02070756
v -0.13160623 0.67276364 0.00757463
v -0.13175709 0.81137987 0.00764247
v -0.13163330 0.81131553 0.00752426
v -0.13172920 0.67273597 0.00765140
v -0.13229694 0.67273414 -0.00564151
v -0.13240519 0.81140770 -0.00560719
v -0.13241247 0.81137553 -0.00569991
v -0.13238410 0.67274420 -0.00562628
v -0.13168938 0.67262170 -0.01886053
v -0.13178827 0.81138667 -0.01896356
v -0.13163122 0.81131407 -0.01877726
v -0.13173468 0.67271666 -0.01892311
v -0.12968358 0.67267799 -0.03197008
v -0.12961701 0.81129413 -0.03189346
v -0.12955248 0.81129340 -0.03198522
v -0.12961545 0.67265749 -0.03200615
v -0.12619136 0.67275134 -0.04469345
v -0.12618366 0.81139920 -0.04466316
v -0.12629647 0.81134481 -0.04465472
v -0.12616113 0.67270447 -0.04469359
v -0.12155258 0.67266920 -0.05714896
v -0.12159426 0.81141154 -0.05716910
v -0.12144404 0.81137322 -0.05720513
v -0.12148081 0.67263108 -0.05705214
v -0.11558602 0.67280851 -0.06893585
v -0.11546369 0.81131969 -0.06891682
v -0.11542605 0.81142570 -0.06901283
v -0.11549665 0.67275465 -0.06901774
v -0.10830684 0.67281986 -0.08009262
v -0.10823719 0.81131343 -0.08004889
v -0.10823028 0.81130722 -0.08005305
v -0.10822984 0.67274913 -0.08003091
v -0.09999965 0.67270686 -0.09036161
v -0.09993250 0.81128809 -0.09031997
v -0.10003732 0.81138144 -0.09030357
v -0.09998771 0.67276117 -0.09029391
v -0.09057477 0.67281947 -0.09970114
v -0.09054494 0.81133343 -0.09968889
v -0.09055878 0.81136600 -0.09975494
v -0.09052243 0.67272427 -0.09980654
v -0.08034836 0.81128766 -0.10797129
v -0.08024435 0.67266142 -0.10810637
v -0.08029519 0.67262712 -0.10800000
v -0.08032623 0.81140453 -0.10802984
v -0.06920065 0.81127637 -0.11526572
v -0.06916129 0.67268305 -0.11528264
v -0.06921291 0.67276801 -0.11527641
v -0.06925882 0.81136776 -0.11537145
v -0.05749898 0.81131894 -0.12123533
v -0.05752391 0.67270091 -0.12140379
v -0.05752652 0.67268118 -0.12137460
v -0.05739209 0.81128097 -0.12130622
v -0.04502716 0.81142369 -0.12605481
v -0.04504687 0.67268969 -0.12606582
v -0.04517654 0.67270385 -0.12614316
v -0.04517896 0.81145241 -0.12598678
v -0.03235307 0.81136692 -0.12952096
v -0.03223866 0.67272595 -0.12959367
v -0.03236360 0.67276353 -0.12944842
v -0.03233146 0.81141879 -0.12959357
v -0.01912217 0.81140019 -0.13157069
v -0.01914390 0.67268431 -0.13157656
v -0.01917821 0.67277036 -0.13160623
v -0.01918749 0.81128688 -0.13154147
v -0.00599844 0.81141038 -0.13236835
v -0.00588477 0.67279715 -0.13232929
v -0.00603781 0.67265727 -0.13235630
v -0.00607307 0.81133574 -0.13235148
v 0.00715440 0.81134518 -0.13163164
v 0.00732382 0.67269439 -0.13163896
v 0.00725394 0.67275223 -0.13166370
v 0.00715914 0.81127722 -0.13158378
v 0.02029501 0.81140841 -0.12958450
v 0.02030361 0.67269595 -0.12964254
v 0.02036643 0.67268268 -0.12955431
v 0.02034904 0.81128924 -0.12954219
v 0.03318870 0.81141777 -0.12613033
v 0.03306019 0.67272604 -0.12616684
v 0.03319870 0.67276880 -0.12613854
v 0.03313535 0.81133940 -0.12619103
v 0.04558106 0.81132922 -0.12141930
v 0.04549063 0.67263139 -0.12153636
v 0.04558884 0.67263994 -0.12144469
v 0.04551862 0.81142719 -0.12134268
v 0.05733506 0.81138614 -0.11533966
v 0.05729490 0.67273805 -0.11552566
v 0.05721042 0.67281299 -0.11539245
v 0.05724374 0.81135962 -0.11548054
v 0.06833033 0.81147005 -0.10821640
v 0.06837509 0.67271489 -0.10817949
v 0.06843155 0.67267384 -0.10821415
v 0.06846292 0.81136960 -0.10829058
v 0.07879533 0.81129316 -0.09999317
v 0.07866587 0.67278694 -0.09985557
v 0.07878945 0.67271820 -0.09994388
v 0.07866688 0.81131678 -0.09999734
v 0.08813084 0.81146313 -0.09055860
v 0.08801449 0.67270089 -0.09062260
v 0.08816910 0.67279843 -0.09060629
v 0.08816700 0.81136388 -0.09047127
v 0.09646287 0.67274345 -0.08017701
v 0.09635567 0.81140277 -0.08027740
v 0.09643630 0.81132431 -0.08026838
v 0.09649782 0.67274452 -0.08031812
v 0.10372006 0.67273501 -0.06909319
v 0.10366054 0.81143625 -0.06910609
v 0.10359885 0.81146329 -0.06909528
v 0.10365720 0.67267554 -0.06918748
v 0.10962050 0.67270042 -0.05743680
v 0.10965070 0.81135846 -0.05729716
v 0.10976652 0.81136000 -0.05738285
v 0.10976928 0.67266610 -0.05737878
v 0.11440958 0.67276882 -0.04497605
v 0.11442635 0.81143117 -0.04496922
v 0.11448078 0.81132292 -0.04504842
v 0.11440184 0.67276386 -0.04501146
v 0.11783417 0.67263700 -0.03229209
v 0.11783758 0.81131531 -0.03222028
v 0.11795249 0.81142167 -0.03226264
v 0.11782172 0.67272302 -0.03232044
v 0.12005094 0.67277419 -0.01916245
v 0.11994568 0.81144942 -0.01911863
v 0.11998019 0.81140342 -0.01908118
v 0.11992933 0.67270812 -0.01910795
v 0.12071549 0.67262824 -0.00590119
v 0.12063284 0.81136128 -0.00599454
v 0.12067055 0.81131513 -0.00588057
v 0.12070691 0.67267415 -0.00587833
v 0.11992304 0.67268380 0.00733636
v 0.12003231 0.81145453 0.00724399
v 0.12008774 0.81138142 0.00729544
v 0.11995893 0.67280646 0.00737897
v 0.10946052 0.82284543 0.01850641
v 0.11452560 0.81139891 0.03312183
v 0.11798367 0.81129031 0.02034899
v 0.10625366 0.82296208 0.03056890
v 0.10627208 0.82293840 0.03053830
v 0.10952402 0.82284454 0.01861406
v 0.11447985 0.81139773 0.03324736
v 0.11800271 0.81143052 0.02048381
v 0.10973933 0.81144577 0.04554515
v 0.10197338 0.82299316 0.04203799
v 0.10183042 0.82288548 0.04200496
v 0.10975290 0.81127561 0.04552876
v 0.10387637 0.81143881 0.05731889
v 0.09634567 0.82295508 0.05303554
v 0.09638682 0.82296761 0.05297374
v 0.10381224 0.81140258 0.05747044
v 0.09656634 0.81130070 0.06847097
v 0.08954518 0.82283895 0.06339503
v 0.08966891 0.82297420 0.06342457
v 0.09652614 0.81143382 0.06854069
v 0.08837098 0.81138293 0.07875877
v 0.08189517 0.82299596 0.07305923
v 0.08187169 0.82284651 0.07303633
v 0.08838831 0.81131989 0.07879589
v 0.07311664 0.82299239 0.08183219
v 0.07902565 0.81128868 0.08822940
v 0.07902913 0.81129362 0.08824710
v 0.07312862 0.82282856 0.08165390
v 0.06866336 0.81146647 0.09645276
v 0.06349166 0.82296225 0.08943561
v 0.06859432 0.81133065 0.09656696
v 0.06357572 0.82292679 0.08960484
v 0.05751298 0.81130333 0.10379083
v 0.05330144 0.82290970 0.09631708
v 0.05763499 0.81134901 0.10381094
v 0.05331870 0.82290259 0.09631522
v 0.04578482 0.81143460 0.10983725
v 0.04220405 0.82295867 0.10188044
v 0.04568864 0.81138698 0.10984407
v 0.04218524 0.82287886 0.10182301
v 0.03336041 0.81147212 0.11457148
v 0.03075669 0.82293722 0.10626960
v 0.03333110 0.81129606 0.11446690
v 0.03070309 0.82286886 0.10628187
v 0.02053359 0.81139229 0.11806757
v 0.01878745 0.82291720 0.10953156
v 0.02054929 0.81143919 0.11804983
v 0.01885610 0.82286267 0.10949380
v 0.00750007 0.81144597 0.12012576
v 0.00670048 0.82297110 0.11146916
v 0.00759091 0.81138236 0.12007922
v 0.00666800 0.82299228 0.11153145
v -0.00578032 0.81135489 0.12071994
v -0.00578205 0.82297808 0.11211260
v -0.00564433 0.81135164 0.12075854
v -0.00571382 0.82285301 0.11216549
v -0.01812334 0.82297908 0.11147016
v -0.01898417 0.81134043 0.12014558
v -0.01808573 0.82289213 0.11152528
v -0.01902844 0.81134080 0.12001890
v -0.03014330 0.82284483 0.10960238
v -0.03197196 0.81129551 0.11809347
v -0.03014355 0.82299424 0.10957933
v -0.03204427 0.81135877 0.11804963
v -0.04221031 0.82284969 0.10647922
v -0.04475833 0.81127541 0.11454884
v -0.04219025 0.82292619 0.10642912
v -0.04483636 0.81130497 0.11458228
v -0.05367165 0.82286109 0.10190839
v -0.05721579 0.81133216 0.10996093
v -0.05358467 0.82291458 0.10193145
v -0.05713666 0.81138775 0.10978526
v -0.06464909 0.82291064 0.09646453
v -0.06908219 0.81142801 0.10382410
v -0.06471462 0.82285005 0.09645815
v -0.06907456 0.81129993 0.10394591
v -0.07501311 0.82297784 0.08961871
v -0.08004566 0.81135841 0.09663225
v -0.07505709 0.82283574 0.08969106
v -0.08009490 0.81131499 0.09675837
v -0.08468730 0.82284530 0.08187129
v -0.09048735 0.81145703 0.08827463
v -0.08472836 0.82283747 0.08183948
v -0.09036603 0.81140811 0.08836000
v -0.09981112 0.81130634 0.07899960
v -0.09333635 0.82293704 0.07312051
v -0.09981011 0.81136712 0.07894185
v -0.09345810 0.82292396 0.07311302
v -0.10805326 0.81131097 0.06878659
v -0.10108978 0.82296564 0.06356083
v -0.10106673 0.82284869 0.06371638
v -0.10819416 0.81139603 0.06868312
v -0.11527443 0.81145282 0.05768061
v -0.10786078 0.82285241 0.05332436
v -0.10778251 0.82298377 0.05319186
v -0.11535576 0.81135968 0.05756686
v -0.12131619 0.81130879 0.04577527
v -0.11342432 0.82287185 0.04231884
v -0.11357255 0.82293007 0.04236932
v -0.12131027 0.81131959 0.04583856
v -0.12611480 0.81142780 0.03353094
v -0.11790773 0.82293270 0.03077646
v -0.11795066 0.82289711 0.03082450
v -0.12611996 0.81143393 0.03351945
v -0.12969078 0.81147050 0.02075931
v -0.12107278 0.82290220 0.01882599
v -0.12123337 0.82291524 0.01883159
v -0.12953968 0.81128044 0.02068951
v -0.13172413 0.81139905 0.00764536
v -0.12304245 0.82295969 0.00669794
v -0.12304460 0.82293967 0.00665441
v -0.13158730 0.81127715 0.00748956
v -0.13231306 0.81142718 -0.00559768
v -0.12368953 0.82300646 -0.00562473
v -0.12383447 0.82288280 -0.00563625
v -0.13238241 0.81145806 -0.00562550
v -0.13172878 0.81137718 -0.01886139
v -0.12301291 0.82286659 -0.01806979
v -0.12309279 0.82302247 -0.01799801
v -0.13173293 0.81132174 -0.01880888
v -0.12955849 0.81131242 -0.03196575
v -0.12116639 0.82288618 -0.03017874
v -0.12114981 0.82289909 -0.03025016
v -0.12955805 0.81132824 -0.03195159
v -0.12631363 0.81132707 -0.04469669
v -0.11800473 0.82284669 -0.04201004
v -0.11791709 0.82290098 -0.04210101
v -0.12624177 0.81146453 -0.04478899
v -0.12147694 0.81145255 -0.05720943
v -0.11360244 0.82291294 -0.05356290
v -0.11353550 0.82283431 -0.05353382
v -0.12159645 0.81136111 -0.05702071
v -0.11559697 0.81139488 -0.06887696
v -0.10807097 0.82297090 -0.06466717
v -0.10798570 0.82299561 -0.06469811
v -0.11559116 0.81134993 -0.06898832
v -0.10833603 0.81132451 -0.08001994
v -0.10121123 0.82298129 -0.07490668
v -0.10139045 0.82294304 -0.07494337
v -0.10833811 0.81145336 -0.07997997
v -0.09989137 0.81137052 -0.09028118
v -0.09357236 0.82285806 -0.08466198
v -0.09363094 0.82299535 -0.08460207
v -0.10006601 0.81136895 -0.09030615
v -0.08479979 0.82286705 -0.09338026
v -0.09055297 0.81128740 -0.09971700
v -0.08492177 0.82292369 -0.09328750
v -0.09053443 0.81131466 -0.09967996
v -0.08040254 0.81138093 -0.10813620
v -0.07531454 0.82285892 -0.10113473
v -0.07516919 0.82287797 -0.10104725
v -0.08029365 0.81141932 -0.10808973
v -0.06914607 0.81143642 -0.11539698
v -0.06492563 0.82298349 -0.10784006
v -0.06485199 0.82301228 -0.10786836
v -0.06918232 0.81132821 -0.11531376
v -0.05750792 0.81128652 -0.12127433
v -0.05395524 0.82292084 -0.11348613
v -0.05382470 0.82287707 -0.11345480
v -0.05740308 0.81133032 -0.12124377
v -0.04513489 0.81139559 -0.12614902
v -0.04248702 0.82284682 -0.11784311
v -0.04233410 0.82290932 -0.11778837
v -0.04510591 0.81144880 -0.12607038
v -0.03230523 0.81140785 -0.12947666
v -0.03055882 0.82297934 -0.12117079
v -0.03052250 0.82298734 -0.12102079
v -0.03236948 0.81129706 -0.12959474
v -0.01927752 0.81146101 -0.13162361
v -0.01831590 0.82301689 -0.12300934
v -0.01831202 0.82288972 -0.12308875
v -0.01916069 0.81142366 -0.13159675
v -0.00588656 0.81136490 -0.13233065
v -0.00588229 0.82287252 -0.12370575
v -0.00591207 0.82285719 -0.12373361
v -0.00602825 0.81141354 -0.13228235
v 0.00714829 0.81138568 -0.13161590
v 0.00630647 0.82289514 -0.12301002
v 0.00629383 0.82301389 -0.12313908
v 0.00733300 0.81134380 -0.13158213
v 0.01853545 0.82283038 -0.12121106
v 0.02039160 0.81140942 -0.12959457
v 0.02025942 0.81140132 -0.12958247
v 0.01846611 0.82282812 -0.12120720
v 0.03039552 0.82290320 -0.11802935
v 0.03309165 0.81130878 -0.12626267
v 0.03306346 0.81132404 -0.12626369
v 0.03037723 0.82302612 -0.11803661
v 0.04191155 0.82291668 -0.11360454
v 0.04550570 0.81130361 -0.12146616
v 0.04557677 0.81131814 -0.12149787
v 0.04202952 0.82293368 -0.11350300
v 0.05290801 0.82301657 -0.10802094
v 0.05732072 0.81136614 -0.11541023
v 0.05730671 0.81143589 -0.11546186
v 0.05290342 0.82288637 -0.10789354
v 0.06328641 0.82297324 -0.10123941
v 0.06839827 0.81130300 -0.10815124
v 0.06837600 0.81143625 -0.10832931
v 0.06337762 0.82298533 -0.10133587
v 0.07288130 0.82298538 -0.09340217
v 0.07876806 0.81145755 -0.09984039
v 0.07872335 0.81141820 -0.09987807
v 0.07291201 0.82297080 -0.09340428
v 0.08807231 0.81139428 -0.09053194
v 0.08176745 0.82301605 -0.08474467
v 0.08161560 0.82298251 -0.08466925
v 0.08806284 0.81145679 -0.09062708
v 0.09641211 0.81140300 -0.08018326
v 0.08948905 0.82296966 -0.07517172
v 0.08946444 0.82293210 -0.07510161
v 0.09646448 0.81137601 -0.08034268
v 0.10359845 0.81145131 -0.06919756
v 0.09628255 0.82282885 -0.06488858
v 0.09618413 0.82297694 -0.06487000
v 0.10365587 0.81128463 -0.06909691
v 0.10965968 0.81145950 -0.05745756
v 0.10188264 0.82294948 -0.05386125
v 0.10176425 0.82299452 -0.05376498
v 0.10966901 0.81133194 -0.05736300
v 0.11452290 0.81133791 -0.04501309
v 0.10619070 0.82285806 -0.04241748
v 0.10625991 0.82297320 -0.04235754
v 0.11445641 0.81141666 -0.04510698
v 0.11793491 0.81141691 -0.03229036
v 0.10941267 0.82298913 -0.03047630
v 0.10947281 0.82288158 -0.03047821
v 0.11798352 0.81131254 -0.03221035
v 0.12006349 0.81141023 -0.01907699
v 0.11144218 0.82282960 -0.01814836
v 0.11134751 0.82297901 -0.01825691
v 0.11991126 0.81137785 -0.01905838
v 0.12078465 0.81141945 -0.00592003
v 0.11202177 0.82289816 -0.00596595
v 0.11214905 0.82286705 -0.00599629
v 0.12062873 0.81139589 -0.00585844
v 0.11993084 0.81136863 0.00721267
v 0.11142494 0.82298061 0.00642440
v 0.11143678 0.82284371 0.00649005
v 0.12004390 0.81138652 0.00727784
v -0.07523987 0.82284857 -0.10105760
v -0.00596685 0.82284489 -0.10275737
v -0.06495792 0.82292380 -0.10790540
v -0.01614413 0.82285515 -0.10210873
v -0.02606032 0.82302375 -0.10063363
v -0.08478665 0.82300232 -0.09322913
v -0.03580876 0.82298672 -0.09792723
v -0.04540380 0.82293137 -0.09424781
v -0.05446541 0.82296832 -0.08962803
v -0.09363073 0.82294948 -0.08465435
v -0.06288509 0.82284349 -0.08409557
v -0.10137179 0.82293061 -0.07491612
v -0.07085368 0.82293874 -0.07778487
v -0.07783893 0.82302335 -0.07049713
v -0.10804005 0.82296040 -0.06463371
v -0.08433001 0.82291371 -0.06273695
v -0.11353480 0.82286321 -0.05357443
v -0.08977700 0.82288028 -0.05413724
v -0.09445454 0.82286487 -0.04505983
v -0.11800584 0.82285453 -0.04212812
v -0.09797740 0.82296301 -0.03556974
v -0.12120247 0.82299115 -0.03007964
v -0.10064916 0.82294328 -0.02590937
v -0.12307352 0.82299100 -0.01804811
v -0.10223760 0.82292903 -0.01582906
v -0.12369191 0.82292182 -0.00562354
v -0.10278510 0.82299642 -0.00558365
v -0.10219159 0.82300399 0.00438978
v -0.12309402 0.82302386 0.00674294
v -0.10055338 0.82291102 0.01451163
v -0.12108592 0.82302490 0.01882785
v -0.09805062 0.82283736 0.02433377
v -0.11797551 0.82302732 0.03071615
v -0.09431394 0.82300110 0.03380869
v -0.11342294 0.82283259 0.04232561
v -0.08972102 0.82296209 0.04283938
v -0.10784222 0.82295242 0.05325197
v -0.08420338 0.82283732 0.05131758
v -0.07783232 0.82300199 0.05909857
v -0.10109949 0.82289545 0.06358223
v -0.07057159 0.82300292 0.06639486
v -0.09327623 0.82296391 0.07316745
v -0.06278401 0.82287032 0.07266693
v -0.05410012 0.82293246 0.07823889
v -0.08466219 0.82286423 0.08198737
v -0.04517224 0.82287464 0.08288434
v -0.07497225 0.82302370 0.08969399
v -0.03562877 0.82301762 0.08650338
v -0.02583060 0.82285557 0.08899512
v -0.01585091 0.82302070 0.09065244
v -0.06459556 0.82293679 0.09641893
v -0.00567415 0.82294752 0.09118260
v 0.05329212 0.82297021 0.09620797
v 0.04216874 0.82285790 0.10186392
v -0.05358528 0.82293340 0.10194088
v 0.03066864 0.82301194 0.10638577
v -0.04214189 0.82292231 0.10631334
v 0.01884979 0.82300209 0.10946796
v -0.03030942 0.82301007 0.10956502
v 0.00652914 0.82299289 0.11146773
v -0.01796934 0.82284774 0.11145833
v -0.00568777 0.82289885 0.11206014
v -0.01839186 0.82293728 -0.12307037
v 0.00642028 0.82287045 -0.12314336
v -0.00606933 0.82294061 -0.12367129
v 0.01855315 0.82290829 -0.12102901
v -0.03040467 0.82291519 -0.12100890
v 0.03055307 0.82291554 -0.11789706
v -0.04234436 0.82285799 -0.11778200
v 0.04198875 0.82288834 -0.11358209
v -0.05383597 0.82301092 -0.11347919
v 0.05308599 0.82295650 -0.10800353
v 0.06341757 0.82287797 -0.10119984
v 0.00414505 0.82302086 -0.10219203
v 0.01422760 0.82292165 -0.10050413
v 0.07295813 0.82302198 -0.09346414
v 0.02405965 0.82296403 -0.09799952
v 0.03342810 0.82294076 -0.09438205
v 0.04257768 0.82297355 -0.08974493
v 0.08163596 0.82297462 -0.08483060
v 0.05101351 0.82286437 -0.08422672
v 0.08950359 0.82298194 -0.07527727
v 0.05894887 0.82287269 -0.07778921
v 0.06613658 0.82285241 -0.07063137
v 0.09617686 0.82283092 -0.06477010
v 0.07247234 0.82297739 -0.06274695
v 0.10188064 0.82284307 -0.05389398
v 0.07808548 0.82294131 -0.05430307
v 0.08262408 0.82286586 -0.04522223
v 0.10633835 0.82291126 -0.04230691
v 0.08629404 0.82293843 -0.03578770
v 0.10950263 0.82286006 -0.03039438
v 0.08901359 0.82299397 -0.02608008
v 0.11144897 0.82297956 -0.01826409
v 0.09053865 0.82301173 -0.01604067
v 0.11204230 0.82297299 -0.00592720
v 0.09114334 0.82289813 -0.00579130
v 0.11137548 0.82287318 0.00646770
v 0.09056778 0.82285445 0.00421173
v 0.08886125 0.82290435 0.01428854
v 0.10949720 0.82293849 0.01853890
v 0.08639632 0.82288144 0.02402565
v 0.10629857 0.82283573 0.03062771
v 0.08281749 0.82296347 0.03363384
v 0.10195693 0.82302402 0.04198079
v 0.07807544 0.82291200 0.04254039
v 0.09637279 0.82285874 0.05300363
v 0.07256837 0.82291918 0.05102273
v 0.06624643 0.82302093 0.05894125
v 0.08953012 0.82287791 0.06341893
v 0.05913557 0.82295179 0.06608340
v 0.08194791 0.82294358 0.07310918
v 0.05120582 0.82289954 0.07247480
v 0.04275812 0.82296277 0.07810043
v 0.07320497 0.82299065 0.08165378
v 0.03361955 0.82299937 0.08270900
v 0.06350606 0.82299424 0.08956134
v 0.02428336 0.82287053 0.08643741
v 0.01442596 0.82288623 0.08905606
v 0.00430642 0.82299124 0.09056118
v -0.00573852 0.82285296 0.09118851
v 0.00437211 0.82299239 0.09056600
v 0.05324547 0.82288760 0.09628003
v 0.06362190 0.82288370 0.08945761
v 0.01431972 0.82292872 0.08899670
v 0.02426749 0.82283264 0.08625853
v 0.03359679 0.82286532 0.08269276
v 0.07317716 0.82286545 0.08178632
v 0.04278601 0.82285700 0.07799786
v 0.08177241 0.82301227 0.07306946
v 0.05114984 0.82294187 0.07247925
v 0.05914162 0.82300388 0.06625226
v 0.08957698 0.82290069 0.06342774
v 0.06618357 0.82301935 0.05895122
v 0.09640824 0.82302505 0.05310409
v 0.07264778 0.82289364 0.05113039
v 0.07818664 0.82286205 0.04263317
v 0.10195201 0.82298183 0.04212614
v 0.08272143 0.82284471 0.03347912
v 0.10637450 0.82284137 0.03058865
v 0.08633295 0.82291153 0.02411057
v 0.10955336 0.82299142 0.01865728
v 0.08894251 0.82289950 0.01432304
v 0.11147855 0.82293058 0.00643462
v 0.09060409 0.82286748 0.00415023
v 0.09095643 0.82299673 -0.00579750
v 0.11206690 0.82294547 -0.00583871
v 0.09046963 0.82299908 -0.01608813
v 0.11133248 0.82289717 -0.01832117
v 0.08892879 0.82288923 -0.02593279
v 0.10943151 0.82287638 -0.03043396
v 0.08625612 0.82300346 -0.03574604
v 0.10617862 0.82295921 -0.04233751
v 0.08268809 0.82296393 -0.04523922
v 0.10184506 0.82289856 -0.05391111
v 0.07794006 0.82289734 -0.05431177
v 0.07251158 0.82299227 -0.06283981
v 0.09611008 0.82284963 -0.06488814
v 0.06608280 0.82289537 -0.07067037
v 0.08946975 0.82290565 -0.07518409
v 0.05881653 0.82302367 -0.07784556
v 0.05108891 0.82302397 -0.08425059
v 0.08162320 0.82283418 -0.08466916
v 0.04248091 0.82291172 -0.08982271
v 0.07298598 0.82300505 -0.09353698
v 0.03339276 0.82292242 -0.09428315
v 0.02398006 0.82285813 -0.09790925
v 0.01420168 0.82300942 -0.10067294
v 0.06343666 0.82289880 -0.10121836
v 0.00408599 0.82287731 -0.10221597
v -0.00593279 0.82288929 -0.10265913
v -0.06496669 0.82300135 -0.10772672
v 0.05290188 0.82294852 -0.10793216
v -0.05388920 0.82284538 -0.11341522
v 0.04202892 0.82287574 -0.11361394
v -0.04238011 0.82292332 -0.11792510
v 0.03046931 0.82284444 -0.11792582
v -0.03044705 0.82292525 -0.12107158
v 0.01858454 0.82284231 -0.12117956
v -0.01830394 0.82299977 -0.12296631
v 0.00633909 0.82297946 -0.12296929
v -0.00605173 0.82298655 -0.12373104
v -0.00572014 0.82298062 0.11212327
v -0.01808495 0.82283556 0.11140547
v 0.00670411 0.82295095 0.11155296
v -0.03020569 0.82285834 0.10959734
v 0.01877896 0.82294153 0.10947543
v -0.04212955 0.82296157 0.10644423
v 0.03061904 0.82295303 0.10637050
v -0.05371143 0.82297325 0.10203615
v 0.04214211 0.82294965 0.10181107
v -0.06463246 0.82293144 0.09648281
v -0.01590787 0.82297163 0.09063841
v -0.07501221 0.82288879 0.08959777
v -0.02579006 0.82294587 0.08902904
v -0.03563094 0.82295066 0.08646661
v -0.04520320 0.82292177 0.08286350
v -0.08468689 0.82299198 0.08191686
v -0.05419666 0.82291267 0.07810805
v -0.09342425 0.82282817 0.07311615
v -0.06274125 0.82285600 0.07272241
v -0.07058781 0.82301427 0.06625184
v -0.10109812 0.82284483 0.06365898
v -0.07769694 0.82286433 0.05920650
v -0.10796986 0.82295199 0.05319889
v -0.08423900 0.82285718 0.05119274
v -0.08968197 0.82292099 0.04275510
v -0.11352470 0.82293598 0.04237299
v -0.09439649 0.82291351 0.03372364
v -0.11785719 0.82302379 0.03075861
v -0.09795703 0.82292102 0.02432748
v -0.12109436 0.82299392 0.01889757
v -0.10063388 0.82300158 0.01444315
v -0.12298702 0.82286712 0.00657642
v -0.10222350 0.82292147 0.00454536
v -0.12382084 0.82302418 -0.00570747
v -0.10278103 0.82292023 -0.00575045
v -0.10218567 0.82299734 -0.01589114
v -0.12307451 0.82287371 -0.01804298
v -0.10065441 0.82283448 -0.02579989
v -0.12116492 0.82285664 -0.03023126
v -0.09797518 0.82294421 -0.03554279
v -0.11810925 0.82285893 -0.04205983
v -0.09449453 0.82285832 -0.04514452
v -0.11353741 0.82299916 -0.05367043
v -0.08981404 0.82283370 -0.05416884
v -0.08421510 0.82302398 -0.06264156
v -0.10809917 0.82301380 -0.06459545
v -0.07788481 0.82285433 -0.07061350
v -0.10125465 0.82294528 -0.07488242
v -0.07085625 0.82289015 -0.07763118
v -0.06285721 0.82298449 -0.08420200
v -0.09354983 0.82296421 -0.08460219
v -0.05429479 0.82291580 -0.08962677
v -0.08484500 0.82284683 -0.09321380
v -0.04525446 0.82284629 -0.09419159
v -0.03589612 0.82301535 -0.09781891
v -0.02618638 0.82283317 -0.10051540
v -0.07523702 0.82302445 -0.10115778
v -0.01601299 0.82288205 -0.10221214
vn 0 -1 0
vn 0 1 0
vn 0.7833810152754365 -0.5990751116815873 0.16559950322908604
vn 0.7617797011974796 -0.5990751009417161 0.2465780003876083
vn -0.7617797011974796 0.5990751009417161 -0.2465780003876083
vn -0.7833810152754365 0.5990751116815873 -0.16559950322908604
vn 0.7318322053131422 -0.5990751043493183 0.32485480235846376
vn -0.7318322053131422 0.5990751043493183 -0.32485480235846376
vn 0.6938665941743586 -0.5990750949702194 0.39957249664522526
vn -0.6938665941743586 0.5990750949702194 -0.39957249664522526
vn 0.64829877822439 -0.5990750798777573 0.4699124842161803
vn -0.64829877822439 0.5990750798777573 -0.4699124842161803
vn 0.5956281021606916 -0.5990751021731958 0.5351039019411349
vn -0.5956281021606916 0.5990751021731958 -0.5351039019411349
vn 0.5364316126433365 -0.5990751141198022 0.5944326140103815
vn -0.5364316126433365 0.5990751141198022 -0.5944326140103815
vn 0.47135782327027403 -0.5990751295754981 0.6472486319537563
vn -0.47135782327027403 0.5990751295754981 -0.6472486319537563
vn 0.4011197871832323 -0.5990750808580718 0.6929732778577925
vn -0.4011197871832323 0.5990750808580718 -0.6929732778577925
vn 0.32648700183824264 -0.5990751033730145 0.7311055041163945
vn -0.32648700183824264 0.5990751033730145 -0.7311055041163945
vn 0.24827710585608986 -0.599075114130331 0.7612276179550076
vn -0.24827710585608986 0.599075114130331 -0.7612276179550076
vn 0.16734709489502844 -0.5990750817250412 0.7830095761140662
vn -0.16734709489502844 0.5990750817250412 -0.7830095761140662
vn 0.08458354932282822 -0.599075095203834 0.7962126936255599
vn -0.08458354932282822 0.599075095203834 -0.7962126936255599
vn 0.0008933031300553056 -0.5990751201559641 0.8006923269394025
vn -0.0008933031300553056 0.5990751201559641 -0.8006923269394025
vn -0.0828067327204636 -0.5990751196815162 0.796399426164245
vn 0.0828067327204636 0.5990751196815162 -0.796399426164245
vn -0.16559950322908604 -0.5990751116815873 0.7833810152754365
vn 0.16559950322908604 0.5990751116815873 -0.7833810152754365
vn -0.2465780003876083 -0.5990751009417161 0.7617797011974796
vn 0.2465780003876083 0.5990751009417161 -0.7617797011974796
vn -0.32485480235846376 -0.5990751043493183 0.7318322053131422
vn 0.32485480235846376 0.5990751043493183 -0.7318322053131422
vn -0.39957249664522526 -0.5990750949702194 0.6938665941743586
vn 0.39957249664522526 0.5990750949702194 -0.6938665941743586
vn -0.4699124842161803 -0.5990750798777573 0.64829877822439
vn 0.4699124842161803 0.5990750798777573 -0.64829877822439
vn -0.5351039019411349 -0.5990751021731958 0.5956281021606916
vn 0.5351039019411349 0.5990751021731958 -0.5956281021606916
vn -0.5944326140103815 -0.5990751141198022 0.5364316126433365
vn 0.5944326140103815 0.5990751141198022 -0.5364316126433365
vn -0.6472486319537563 -0.5990751295754981 0.47135782327027403
vn 0.6472486319537563 0.5990751295754981 -0.47135782327027403
vn -0.6929732778577925 -0.5990750808580718 0.4011197871832323
vn 0.6929732778577925 0.5990750808580718 -0.4011197871832323
vn -0.7311055041163945 -0.5990751033730145 0.32648700183824264
vn 0.7311055041163945 0.5990751033730145 -0.32648700183824264
vn -0.7612276179550076 -0.599075114130331 0.24827710585608986
vn 0.7612276179550076 0.599075114130331 -0.24827710585608986
vn -0.7830095761140663 -0.5990750817250412 0.16734709489502844
vn 0.7830095761140663 0.5990750817250412 -0.16734709489502844
vn -0.79621269362556 -0.5990750952038341 0.08458354932282823
vn 0.79621269362556 0.5990750952038341 -0.08458354932282823
vn -0.8006923269394025 -0.5990751201559641 0.0008933031300553056
vn 0.8006923269394025 0.5990751201559641 -0.0008933031300553056
vn -0.796399426164245 -0.5990751196815162 -0.0828067327204636
vn 0.796399426164245 0.5990751196815162 0.0828067327204636
vn -0.7833810152754365 -0.5990751116815873 -0.16559950322908604
vn 0.7833810152754365 0.5990751116815873 0.16559950322908604
vn -0.7617797011974796 -0.5990751009417161 -0.2465780003876083
vn 0.7617797011974796 0.5990751009417161 0.2465780003876083
vn -0.7318322053131422 -0.5990751043493183 -0.32485480235846376
vn 0.7318322053131422 0.5990751043493183 0.32485480235846376
vn -0.6938665941743586 -0.5990750949702194 -0.39957249664522526
vn 0.6938665941743586 0.5990750949702194 0.39957249664522526
vn -0.64829877822439 -0.5990750798777573 -0.4699124842161803
vn 0.64829877822439 0.5990750798777573 0.4699124842161803
vn -0.5956281021606916 -0.5990751021731958 -0.5351039019411349
vn 0.5956281021606916 0.5990751021731958 0.5351039019411349
vn -0.5364316126433365 -0.5990751141198022 -0.5944326140103815
vn 0.5364316126433365 0.5990751141198022 0.5944326140103815
vn -0.47135782327027403 -0.5990751295754981 -0.6472486319537563
vn 0.47135782327027403 0.5990751295754981 0.6472486319537563
vn -0.4011197871832323 -0.5990750808580718 -0.6929732778577925
vn 0.4011197871832323 0.5990750808580718 0.6929732778577925
vn -0.32648700183824264 -0.5990751033730145 -0.7311055041163945
vn 0.32648700183824264 0.5990751033730145 0.7311055041163945
vn -0.24827710585608986 -0.599075114130331 -0.7612276179550076
vn 0.24827710585608986 0.599075114130331 0.7612276179550076
vn -0.16734709489502844 -0.5990750817250412 -0.7830095761140662
vn 0.16734709489502844 0.5990750817250412 0.7830095761140662
vn -0.08458354932282822 -0.599075095203834 -0.7962126936255599
vn 0.08458354932282822 0.599075095203834 0.7962126936255599
vn -0.0008933031300553056 -0.5990751201559641 -0.8006923269394025
vn 0.0008933031300553056 0.5990751201559641 0.8006923269394025
vn 0.0828067327204636 -0.5990751196815162 -0.796399426164245
vn -0.0828067327204636 0.5990751196815162 0.796399426164245
vn 0.16559950322908604 -0.5990751116815873 -0.7833810152754365
vn -0.16559950322908604 0.5990751116815873 0.7833810152754365
vn 0.2465780003876083 -0.5990751009417161 -0.7617797011974796
vn -0.2465780003876083 0.5990751009417161 0.7617797011974796
vn 0.32485480235846376 -0.5990751043493183 -0.7318322053131422
vn -0.32485480235846376 0.5990751043493183 0.7318322053131422
vn 0.39957249664522526 -0.5990750949702194 -0.6938665941743586
vn -0.39957249664522526 0.5990750949702194 0.6938665941743586
vn 0.4699124842161803 -0.5990750798777573 -0.64829877822439
vn -0.4699124842161803 0.5990750798777573 0.64829877822439
vn 0.5351039019411349 -0.5990751021731958 -0.5956281021606916
vn -0.5351039019411349 0.5990751021731958 0.5956281021606916
vn 0.5944326140103815 -0.5990751141198022 -0.5364316126433365
vn -0.5944326140103815 0.5990751141198022 0.5364316126433365
vn 0.6472486319537563 -0.5990751295754981 -0.47135782327027403
vn -0.6472486319537563 0.5990751295754981 0.47135782327027403
vn 0.6929732778577925 -0.5990750808580718 -0.4011197871832323
vn -0.6929732778577925 0.5990750808580718 0.4011197871832323
vn 0.7311055041163945 -0.5990751033730145 -0.32648700183824264
vn -0.7311055041163945 0.5990751033730145 0.32648700183824264
vn 0.7612276179550076 -0.599075114130331 -0.24827710585608986
vn -0.7612276179550076 0.599075114130331 0.24827710585608986
vn 0.7830095761140663 -0.5990750817250412 -0.16734709489502844
vn -0.7830095761140663 0.5990750817250412 0.16734709489502844
vn 0.79621269362556 -0.5990750952038341 -0.08458354932282823
vn -0.79621269362556 0.5990750952038341 0.08458354932282823
vn 0.8006923269394025 -0.5990751201559641 -0.0008933031300553056
vn -0.8006923269394025 0.5990751201559641 0.0008933031300553056
vn 0.796399426164245 -0.5990751196815162 0.0828067327204636
vn -0.796399426164245 0.5990751196815162 -0.0828067327204636
vn 0.9783789490591898 0 0.2068202892315824
vn 0.9514006975629967 0 0.30795569921117455
vn -0.9514006975629967 0 -0.30795569921117455
vn -0.9783789490591898 0 -0.2068202892315824
vn 0.9139986680203159 0 0.405717185804457
vn -0.9139986680203159 0 -0.405717185804457
vn 0.8665826956404218 0 0.49903349748947723
vn -0.8665826956404218 0 -0.49903349748947723
vn 0.8096722726976167 0 0.5868822802101598
vn -0.8096722726976167 0 -0.5868822802101598
vn 0.7438908883342957 0 0.6683010895196957
vn -0.7438908883342957 0 -0.6683010895196957
vn 0.669959314370182 0 0.7423978159239396
vn -0.669959314370182 0 -0.7423978159239396
vn 0.5886875017776184 0 0.8083607024409503
vn -0.5886875017776184 0 -0.8083607024409503
vn 0.5009659097558578 0 0.865467016854187
vn -0.5009659097558578 0 -0.865467016854187
vn 0.4077556028072811 0 0.9130911062863721
vn -0.4077556028072811 0 -0.9130911062863721
vn 0.31007788606605363 0 0.950711157277965
vn -0.31007788606605363 0 -0.950711157277965
vn 0.20900280860748408 0 0.9779150402740432
vn -0.20900280860748408 0 -0.9779150402740432
vn 0.10563789612845041 0 0.9944046635558155
vn -0.10563789612845041 0 -0.9944046635558155
vn 0.00111566297506254 0 0.9999993776478693
vn -0.00111566297506254 0 -0.9999993776478693
vn -0.10341879998397785 0 0.9946378998459058
vn 0.10341879998397785 0 -0.9946378998459058
vn -0.2068202892315824 0 0.9783789490591898
vn 0.2068202892315824 0 -0.9783789490591898
vn -0.30795569921117455 0 0.9514006975629967
vn 0.30795569921117455 0 -0.9514006975629967
vn -0.405717185804457 0 0.9139986680203159
vn 0.405717185804457 0 -0.9139986680203159
vn -0.49903349748947723 0 0.8665826956404218
vn 0.49903349748947723 0 -0.8665826956404218
vn -0.5868822802101598 0 0.8096722726976167
vn 0.5868822802101598 0 -0.8096722726976167
vn -0.6683010895196957 0 0.7438908883342957
vn 0.6683010895196957 0 -0.7438908883342957
vn -0.7423978159239396 0 0.669959314370182
vn 0.7423978159239396 0 -0.669959314370182
vn -0.8083607024409503 0 0.5886875017776184
vn 0.8083607024409503 0 -0.5886875017776184
vn -0.865467016854187 0 0.5009659097558578
vn 0.865467016854187 0 -0.5009659097558578
vn -0.9130911062863721 0 0.4077556028072811
vn 0.9130911062863721 0 -0.4077556028072811
vn -0.950711157277965 0 0.31007788606605363
vn 0.950711157277965 0 -0.31007788606605363
vn -0.9779150402740432 0 0.20900280860748408
vn 0.9779150402740432 0 -0.20900280860748408
vn -0.9944046635558155 0 0.10563789612845041
vn 0.9944046635558155 0 -0.10563789612845041
vn -0.9999993776478693 0 0.00111566297506254
vn 0.9999993776478693 0 -0.00111566297506254
vn -0.9946378998459058 0 -0.10341879998397785
vn 0.9946378998459058 0 0.10341879998397785
usemtl material_0_0
f 1//1 2//1 3//1
f 2//1 1//1 4//1
f 2//1 4//1 5//1
f 5//1 4//1 6//1
f 6//1 4//1 7//1
f 7//1 4//1 8//1
f 7//1 8//1 9//1
f 9//1 8//1 10//1
f 10//1 8//1 11//1
f 10//1 11//1 12//1
f 12//1 11//1 13//1
f 12//1 13//1 14//1
f 14//1 13//1 15//1
f 14//1 15//1 16//1
f 16//1 15//1 17//1
f 17//1 15//1 18//1
f 17//1 18//1 19//1
f 19//1 18//1 20//1
f 19//1 20//1 21//1
f 21//1 20//1 22//1
f 21//1 22//1 23//1
f 23//1 22//1 24//1
f 23//1 24//1 25//1
f 25//1 24//1 26//1
f 25//1 26//1 27//1
f 27//1 26//1 28//1
f 27//1 28//1 29//1
f 29//1 28//1 30//1
f 30//1 28//1 31//1
f 30//1 31//1 32//1
f 32//1 31//1 33//1
f 32//1 33//1 34//1
f 34//1 33//1 35//1
f 34//1 35//1 36//1
f 36//1 35//1 37//1
f 36//1 37//1 38//1
f 38//1 37//1 39//1
f 38//1 39//1 40//1
f 40//1 39//1 41//1
f 41//1 39//1 42//1
f 41//1 42//1 43//1
f 43//1 42//1 44//1
f 43//1 44//1 45//1
f 45//1 44//1 46//1
f 45//1 46//1 47//1
f 47//1 46//1 48//1
f 48//1 46//1 49//1
f 48//1 49//1 50//1
f 50//1 49//1 51//1
f 51//1 49//1 52//1
f 52//1 49//1 53//1
f 52//1 53//1 54//1
f 54//1 53//1 55//1
f 55//1 53//1 56//1
f 55//1 56//1 57//1
f 57//1 56//1 58//1
f 57//1 58//1 59//1
f 59//1 58//1 60//1
f 59//1 60//1 61//1
f 61//1 60//1 62//1
f 63//1 64//1 65//1
f 64//1 63//1 66//1
f 64//1 66//1 67//1
f 67//1 66//1 68//1
f 67//1 68//1 69//1
f 69//1 68//1 70//1
f 69//1 70//1 71//1
f 71//1 70//1 1//1
f 71//1 1//1 3//1
f 71//1 3//1 72//1
f 72//1 3//1 73//1
f 72//1 73//1 74//1
f 74//1 73//1 75//1
f 74//1 75//1 76//1
f 74//1 76//1 77//1
f 74//1 77//1 78//1
f 78//1 77//1 79//1
f 78//1 79//1 80//1
f 78//1 80//1 81//1
f 81//1 80//1 82//1
f 81//1 82//1 83//1
f 83//1 82//1 84//1
f 83//1 84//1 85//1
f 85//1 84//1 86//1
f 85//1 86//1 87//1
f 85//1 87//1 88//1
f 88//1 87//1 89//1
f 88//1 89//1 90//1
f 90//1 89//1 91//1
f 90//1 91//1 92//1
f 92//1 91//1 93//1
f 92//1 93//1 94//1
f 94//1 93//1 95//1
f 94//1 95//1 96//1
f 96//1 95//1 97//1
f 96//1 97//1 98//1
f 96//1 98//1 99//1
f 99//1 98//1 100//1
f 99//1 100//1 101//1
f 101//1 100//1 102//1
f 101//1 102//1 103//1
f 103//1 102//1 104//1
f 103//1 104//1 105//1
f 105//1 104//1 106//1
f 105//1 106//1 107//1
f 107//1 106//1 108//1
f 107//1 108//1 109//1
f 109//1 108//1 110//1
f 109//1 110//1 111//1
f 109//1 111//1 112//1
f 112//1 111//1 113//1
f 112//1 113//1 114//1
f 114//1 113//1 115//1
f 114//1 115//1 116//1
f 116//1 115//1 117//1
f 116//1 117//1 118//1
f 116//1 118//1 54//1
f 54//1 118//1 119//1
f 54//1 119//1 120//1
f 54//1 120//1 52//1
f 121//2 122//2 123//2
f 122//2 124//2 123//2
f 124//2 125//2 123//2
f 123//2 125//2 126//2
f 125//2 127//2 126//2
f 127//2 128//2 126//2
f 126//2 128//2 129//2
f 128//2 130//2 129//2
f 129//2 130//2 131//2
f 130//2 132//2 131//2
f 131//2 132//2 133//2
f 132//2 134//2 133//2
f 134//2 135//2 133//2
f 133//2 135//2 136//2
f 135//2 137//2 136//2
f 136//2 137//2 138//2
f 137//2 139//2 138//2
f 138//2 139//2 140//2
f 139//2 141//2 140//2
f 140//2 141//2 142//2
f 141//2 143//2 142//2
f 142//2 143//2 144//2
f 143//2 145//2 144//2
f 144//2 145//2 146//2
f 145//2 147//2 146//2
f 147//2 148//2 146//2
f 146//2 148//2 149//2
f 148//2 150//2 149//2
f 149//2 150//2 151//2
f 150//2 152//2 151//2
f 151//2 152//2 153//2
f 152//2 154//2 153//2
f 153//2 154//2 155//2
f 154//2 156//2 155//2
f 155//2 156//2 157//2
f 156//2 158//2 157//2
f 158//2 159//2 157//2
f 157//2 159//2 160//2
f 159//2 161//2 160//2
f 160//2 161//2 162//2
f 161//2 163//2 162//2
f 162//2 163//2 164//2
f 163//2 165//2 164//2
f 165//2 166//2 164//2
f 164//2 166//2 167//2
f 166//2 168//2 167//2
f 168//2 169//2 167//2
f 169//2 170//2 167//2
f 167//2 170//2 171//2
f 170//2 172//2 171//2
f 171//2 172//2 173//2
f 172//2 174//2 173//2
f 174//2 175//2 173//2
f 173//2 175//2 176//2
f 175//2 177//2 176//2
f 176//2 177//2 178//2
f 177//2 179//2 178//2
f 178//2 179//2 180//2
f 179//2 181//2 180//2
f 182//2 180//2 181//2
f 183//2 184//2 185//2
f 185//2 184//2 186//2
f 184//2 187//2 186//2
f 186//2 187//2 188//2
f 187//2 189//2 188//2
f 188//2 189//2 190//2
f 189//2 191//2 190//2
f 190//2 191//2 123//2
f 123//2 191//2 121//2
f 191//2 192//2 121//2
f 121//2 192//2 193//2
f 193//2 192//2 194//2
f 194//2 192//2 195//2
f 192//2 196//2 195//2
f 195//2 196//2 197//2
f 197//2 196//2 198//2
f 196//2 199//2 198//2
f 198//2 199//2 200//2
f 199//2 201//2 200//2
f 200//2 201//2 202//2
f 201//2 203//2 202//2
f 202//2 203//2 204//2
f 204//2 203//2 205//2
f 203//2 206//2 205//2
f 205//2 206//2 207//2
f 206//2 208//2 207//2
f 207//2 208//2 209//2
f 208//2 210//2 209//2
f 209//2 210//2 211//2
f 210//2 212//2 211//2
f 211//2 212//2 213//2
f 212//2 214//2 213//2
f 213//2 214//2 215//2
f 215//2 214//2 216//2
f 214//2 217//2 216//2
f 216//2 217//2 218//2
f 217//2 219//2 218//2
f 218//2 219//2 220//2
f 219//2 221//2 220//2
f 220//2 221//2 222//2
f 221//2 223//2 222//2
f 222//2 223//2 224//2
f 223//2 225//2 224//2
f 224//2 225//2 226//2
f 225//2 227//2 226//2
f 226//2 227//2 228//2
f 228//2 227//2 229//2
f 227//2 230//2 229//2
f 229//2 230//2 231//2
f 230//2 232//2 231//2
f 231//2 232//2 233//2
f 232//2 234//2 233//2
f 233//2 234//2 235//2
f 235//2 234//2 236//2
f 234//2 237//2 236//2
f 236//2 237//2 238//2
f 238//2 237//2 239//2
f 239//2 237//2 240//2
f 237//2 174//2 240//2
f 172//2 240//2 174//2
f 241//3 242//4 243//3
f 242//4 241//3 244//4
f 245//5 246//6 247//5
f 248//6 247//5 246//6
f 244//4 249//7 242//4
f 249//7 244//4 250//7
f 251//8 245//5 252//8
f 247//5 252//8 245//5
f 250//7 253//9 249//7
f 253//9 250//7 254//9
f 255//10 251//8 256//10
f 252//8 256//10 251//8
f 254//9 257//11 253//9
f 257//11 254//9 258//11
f 259//12 255//10 260//12
f 256//10 260//12 255//10
f 258//11 261//13 257//11
f 261//13 258//11 262//13
f 263//14 259//12 264//14
f 260//12 264//14 259//12
f 262//13 265//15 261//13
f 265//15 262//13 266//15
f 267//16 263//14 268//16
f 264//14 268//16 263//14
f 265//15 269//17 270//17
f 269//17 265//15 266//15
f 267//16 268//16 271//18
f 272//18 271//18 268//16
f 270//17 273//19 274//19
f 273//19 270//17 269//17
f 271//18 272//18 275//20
f 276//20 275//20 272//18
f 274//19 277//21 278//21
f 277//21 274//19 273//19
f 275//20 276//20 279//22
f 280//22 279//22 276//20
f 278//21 281//23 282//23
f 281//23 278//21 277//21
f 279//22 280//22 283//24
f 284//24 283//24 280//22
f 282//23 285//25 286//25
f 285//25 282//23 281//23
f 283//24 284//24 287//26
f 288//26 287//26 284//24
f 286//25 289//27 290//27
f 289//27 286//25 285//25
f 287//26 288//26 291//28
f 292//28 291//28 288//26
f 290//27 293//29 294//29
f 293//29 290//27 289//27
f 291//28 292//28 295//30
f 296//30 295//30 292//28
f 297//31 293//29 298//31
f 293//29 297//31 294//29
f 296//30 299//32 295//30
f 300//32 295//30 299//32
f 301//33 298//31 302//33
f 298//31 301//33 297//31
f 299//32 303//34 300//32
f 304//34 300//32 303//34
f 305//35 302//33 306//35
f 302//33 305//35 301//33
f 303//34 307//36 304//34
f 308//36 304//34 307//36
f 309//37 306//35 310//37
f 306//35 309//37 305//35
f 307//36 311//38 308//36
f 312//38 308//36 311//38
f 313//39 310//37 314//39
f 310//37 313//39 309//37
f 311//38 315//40 312//38
f 316//40 312//38 315//40
f 317//41 314//39 318//41
f 314//39 317//41 313//39
f 315//40 319//42 316//40
f 320//42 316//40 319//42
f 321//43 318//41 322//43
f 318//41 321//43 317//41
f 319//42 323//44 320//42
f 324//44 320//42 323//44
f 321//43 325//45 326//45
f 325//45 321//43 322//43
f 324//44 323//44 327//46
f 328//46 327//46 323//44
f 325//45 329//47 326//45
f 329//47 325//45 330//47
f 331//48 327//46 332//48
f 328//46 332//48 327//46
f 330//47 333//49 329//47
f 333//49 330//47 334//49
f 335//50 331//48 336//50
f 332//48 336//50 331//48
f 334//49 337//51 333//49
f 337//51 334//49 338//51
f 339//52 335//50 340//52
f 336//50 340//52 335//50
f 338//51 341//53 337//51
f 341//53 338//51 342//53
f 343//54 339//52 344//54
f 340//52 344//54 339//52
f 342//53 345//55 341//53
f 345//55 342//53 346//55
f 347//56 343//54 348//56
f 344//54 348//56 343//54
f 346//55 349//57 345//55
f 349//57 346//55 350//57
f 351//58 347//56 352//58
f 348//56 352//58 347//56
f 350//57 353//59 349//57
f 353//59 350//57 354//59
f 355//60 351//58 356//60
f 352//58 356//60 351//58
f 354//59 357//61 353//59
f 357//61 354//59 358//61
f 359//62 355//60 360//62
f 356//60 360//62 355//60
f 358//61 361//63 357//61
f 361//63 358//61 362//63
f 363//64 359//62 364//64
f 360//62 364//64 359//62
f 362//63 365//65 361//63
f 365//65 362//63 366//65
f 367//66 363//64 368//66
f 364//64 368//66 363//64
f 366//65 369//67 365//65
f 369//67 366//65 370//67
f 371//68 367//66 372//68
f 368//66 372//68 367//66
f 370//67 373//69 369//67
f 373//69 370//67 374//69
f 375//70 371//68 376//70
f 372//68 376//70 371//68
f 374//69 377//71 373//69
f 377//71 374//69 378//71
f 379//72 375//70 380//72
f 376//70 380//72 375//70
f 378//71 381//73 377//71
f 381//73 378//71 382//73
f 383//74 379//72 384//74
f 380//72 384//74 379//72
f 385//75 382//73 386//75
f 382//73 385//75 381//73
f 384//74 387//76 383//74
f 388//76 383//74 387//76
f 389//77 385//75 386//75
f 385//75 389//77 390//77
f 391//78 392//78 387//76
f 388//76 387//76 392//78
f 393//79 390//77 389//77
f 390//77 393//79 394//79
f 395//80 396//80 391//78
f 392//78 391//78 396//80
f 397//81 394//79 393//79
f 394//79 397//81 398//81
f 399//82 400//82 395//80
f 396//80 395//80 400//82
f 401//83 398//81 397//81
f 398//81 401//83 402//83
f 403//84 404//84 399//82
f 400//82 399//82 404//84
f 405//85 402//83 401//83
f 402//83 405//85 406//85
f 407//86 408//86 403//84
f 404//84 403//84 408//86
f 409//87 406//85 405//85
f 406//85 409//87 410//87
f 411//88 412//88 407//86
f 408//86 407//86 412//88
f 413//89 410//87 409//87
f 410//87 413//89 414//89
f 415//90 416//90 411//88
f 412//88 411//88 416//90
f 417//91 414//89 413//89
f 414//89 417//91 418//91
f 419//92 420//92 415//90
f 416//90 415//90 420//92
f 417//91 421//93 418//91
f 421//93 417//91 422//93
f 423//94 420//92 424//94
f 419//92 424//94 420//92
f 422//93 425//95 421//93
f 425//95 422//93 426//95
f 427//96 423//94 428//96
f 424//94 428//96 423//94
f 426//95 429//97 425//95
f 429//97 426//95 430//97
f 431//98 427//96 432//98
f 428//96 432//98 427//96
f 430//97 433//99 429//97
f 433//99 430//97 434//99
f 435//100 431//98 436//100
f 432//98 436//100 431//98
f 434//99 437//101 433//99
f 437//101 434//99 438//101
f 439//102 435//100 440//102
f 436//100 440//102 435//100
f 438//101 441//103 437//101
f 441//103 438//101 442//103
f 443//104 439//102 444//104
f 440//102 444//104 439//102
f 445//105 441//103 442//103
f 441//103 445//105 446//105
f 447//106 448//106 444//104
f 443//104 444//104 448//106
f 445//105 449//107 446//105
f 449//107 445//105 450//107
f 451//108 448//106 452//108
f 447//106 452//108 448//106
f 450//107 453//109 449//107
f 453//109 450//107 454//109
f 455//110 451//108 456//110
f 452//108 456//110 451//108
f 454//109 457//111 453//109
f 457//111 454//109 458//111
f 459//112 455//110 460//112
f 456//110 460//112 455//110
f 458//111 461//113 457//111
f 461//113 458//111 462//113
f 463//114 459//112 464//114
f 460//112 464//114 459//112
f 462//113 465//115 461//113
f 465//115 462//113 466//115
f 467//116 463//114 468//116
f 464//114 468//116 463//114
f 466//115 469//117 465//115
f 469//117 466//115 470//117
f 471//118 467//116 472//118
f 468//116 472//118 467//116
f 470//117 473//119 469//117
f 473//119 470//117 474//119
f 475//120 471//118 476//120
f 472//118 476//120 471//118
f 474//119 477//121 473//119
f 477//121 474//119 478//121
f 479//122 475//120 480//122
f 476//120 480//122 475//120
f 478//121 243//3 477//121
f 243//3 478//121 241//3
f 246//6 479//122 248//6
f 480//122 248//6 479//122
f 481//123 482//124 483//123
f 482//124 481//123 484//124
f 485//125 486//126 487//125
f 488//126 487//125 486//126
f 484//124 489//127 482//124
f 489//127 484//124 490//127
f 491//128 485//125 492//128
f 487//125 492//128 485//125
f 490//127 493//129 489//127
f 493//129 490//127 494//129
f 495//130 491//128 496//130
f 492//128 496//130 491//128
f 494//129 497//131 493//129
f 497//131 494//129 498//131
f 499//132 495//130 500//132
f 496//130 500//132 495//130
f 498//131 501//133 497//131
f 501//133 498//131 502//133
f 503//134 499//132 504//134
f 500//132 504//134 499//132
f 502//133 505//135 501//133
f 505//135 502//133 506//135
f 507//136 503//134 508//136
f 504//134 508//136 503//134
f 505//135 509//137 510//137
f 509//137 505//135 506//135
f 507//136 508//136 511//138
f 512//138 511//138 508//136
f 510//137 513//139 514//139
f 513//139 510//137 509//137
f 511//138 512//138 515//140
f 516//140 515//140 512//138
f 514//139 517//141 518//141
f 517//141 514//139 513//139
f 515//140 516//140 519//142
f 520//142 519//142 516//140
f 518//141 521//143 522//143
f 521//143 518//141 517//141
f 519//142 520//142 523//144
f 524//144 523//144 520//142
f 522//143 525//145 526//145
f 525//145 522//143 521//143
f 523//144 524//144 527//146
f 528//146 527//146 524//144
f 526//145 529//147 530//147
f 529//147 526//145 525//145
f 527//146 528//146 531//148
f 532//148 531//148 528//146
f 530//147 533//149 534//149
f 533//149 530//147 529//147
f 531//148 532//148 535//150
f 536//150 535//150 532//148
f 534//149 537//151 538//151
f 537//151 534//149 533//149
f 535//150 536//150 539//152
f 540//152 539//152 536//150
f 538//151 541//153 542//153
f 541//153 538//151 537//151
f 539//152 540//152 543//154
f 544//154 543//154 540//152
f 542//153 545//155 546//155
f 545//155 542//153 541//153
f 543//154 544//154 547//156
f 548//156 547//156 544//154
f 546//155 549//157 550//157
f 549//157 546//155 545//155
f 547//156 548//156 551//158
f 552//158 551//158 548//156
f 550//157 553//159 554//159
f 553//159 550//157 549//157
f 551//158 552//158 555//160
f 556//160 555//160 552//158
f 554//159 557//161 558//161
f 557//161 554//159 553//159
f 555//160 556//160 559//162
f 560//162 559//162 556//160
f 558//161 561//163 562//163
f 561//163 558//161 557//161
f 559//162 560//162 563//164
f 564//164 563//164 560//162
f 562//163 565//165 566//165
f 565//165 562//163 561//163
f 563//164 564//164 567//166
f 568//166 567//166 564//164
f 565//165 569//167 566//165
f 569//167 565//165 570//167
f 571//168 567//166 572//168
f 568//166 572//168 567//166
f 570//167 573//169 569//167
f 573//169 570//167 574//169
f 575//170 571//168 576//170
f 572//168 576//170 571//168
f 574//169 577//171 573//169
f 577//171 574//169 578//171
f 579//172 575//170 580//172
f 576//170 580//172 575//170
f 578//171 581//173 577//171
f 581//173 578//171 582//173
f 583//174 579//172 584//174
f 580//172 584//174 579//172
f 582//173 585//175 581//173
f 585//175 582//173 586//175
f 587//176 583//174 588//176
f 584//174 588//176 583//174
f 586//175 589//177 585//175
f 589//177 586//175 590//177
f 591//178 587//176 592//178
f 588//176 592//178 587//176
f 590//177 593//179 589//177
f 593//179 590//177 594//179
f 595//180 591//178 596//180
f 592//178 596//180 591//178
f 594//179 597//181 593//179
f 597//181 594//179 598//181
f 599//182 595//180 600//182
f 596//180 600//182 595//180
f 598//181 601//126 597//181
f 601//126 598//181 602//126
f 603//123 599//182 604//123
f 600//182 604//123 599//182
f 602//126 605//125 601//126
f 605//125 602//126 606//125
f 607//124 603//123 608//124
f 604//123 608//124 603//123
f 606//125 609//128 605//125
f 609//128 606//125 610//128
f 611//127 607//124 612//127
f 608//124 612//127 607//124
f 610//128 613//130 609//128
f 613//130 610//128 614//130
f 615//129 611//127 616//129
f 612//127 616//129 611//127
f 614//130 617//132 613//130
f 617//132 614//130 618//132
f 619//131 615//129 620//131
f 616//129 620//131 615//129
f 618//132 621//134 617//132
f 621//134 618//132 622//134
f 623//133 619//131 624//133
f 620//131 624//133 619//131
f 622//134 625//136 621//134
f 625//136 622//134 626//136
f 627//135 623//133 628//135
f 624//133 628//135 623//133
f 629//138 625//136 626//136
f 625//136 629//138 630//138
f 631//137 632//137 628//135
f 627//135 628//135 632//137
f 633//140 630//138 629//138
f 630//138 633//140 634//140
f 635//139 636//139 631//137
f 632//137 631//137 636//139
f 637//142 634//140 633//140
f 634//140 637//142 638//142
f 639//141 640//141 635//139
f 636//139 635//139 640//141
f 641//144 638//142 637//142
f 638//142 641//144 642//144
f 643//143 644//143 639//141
f 640//141 639//141 644//143
f 645//146 642//144 641//144
f 642//144 645//146 646//146
f 647//145 648//145 643//143
f 644//143 643//143 648//145
f 649//148 646//146 645//146
f 646//146 649//148 650//148
f 651//147 652//147 647//145
f 648//145 647//145 652//147
f 653//150 650//148 649//148
f 650//148 653//150 654//150
f 655//149 656//149 651//147
f 652//147 651//147 656//149
f 657//152 654//150 653//150
f 654//150 657//152 658//152
f 659//151 660//151 655//149
f 656//149 655//149 660//151
f 661//154 658//152 657//152
f 658//152 661//154 662//154
f 663//153 664//153 659//151
f 660//151 659//151 664//153
f 665//156 662//154 661//154
f 662//154 665//156 666//156
f 667//155 668//155 663//153
f 664//153 663//153 668//155
f 669//158 666//156 665//156
f 666//156 669//158 670//158
f 671//157 672//157 667//155
f 668//155 667//155 672//157
f 673//160 670//158 669//158
f 670//158 673//160 674//160
f 675//159 676//159 671//157
f 672//157 671//157 676//159
f 677//162 674//160 673//160
f 674//160 677//162 678//162
f 679//161 680//161 675//159
f 676//159 675//159 680//161
f 681//164 678//162 677//162
f 678//162 681//164 682//164
f 683//163 684//163 679//161
f 680//161 679//161 684//163
f 685//166 682//164 681//164
f 682//164 685//166 686//166
f 687//165 688//165 683//163
f 684//163 683//163 688//165
f 685//166 689//168 686//166
f 689//168 685//166 690//168
f 691//167 688//165 692//167
f 687//165 692//167 688//165
f 690//168 693//170 689//168
f 693//170 690//168 694//170
f 695//169 691//167 696//169
f 692//167 696//169 691//167
f 694//170 697//172 693//170
f 697//172 694//170 698//172
f 699//171 695//169 700//171
f 696//169 700//171 695//169
f 698//172 701//174 697//172
f 701//174 698//172 702//174
f 703//173 699//171 704//173
f 700//171 704//173 699//171
f 702//174 705//176 701//174
f 705//176 702//174 706//176
f 707//175 703//173 708//175
f 704//173 708//175 703//173
f 706//176 709//178 705//176
f 709//178 706//176 710//178
f 711//177 707//175 712//177
f 708//175 712//177 707//175
f 710//178 713//180 709//178
f 713//180 710//178 714//180
f 715//179 711//177 716//179
f 712//177 716//179 711//177
f 714//180 717//182 713//180
f 717//182 714//180 718//182
f 719//181 715//179 720//181
f 716//179 720//181 715//179
f 718//182 483//123 717//182
f 483//123 718//182 481//123
f 486//126 719//181 488//126
f 720//181 488//126 719//181
f 721//64 722//66 723//64
f 722//66 721//64 724//66
f 725//65 726//63 727//65
f 728//63 727//65 726//63
f 724//66 729//68 722//66
f 729//68 724//66 730//68
f 731//67 725//65 732//67
f 727//65 732//67 725//65
f 730//68 733//70 729//68
f 733//70 730//68 734//70
f 735//69 731//67 736//69
f 732//67 736//69 731//67
f 734//70 737//72 733//70
f 737//72 734//70 738//72
f 739//71 735//69 740//71
f 736//69 740//71 735//69
f 738//72 741//74 737//72
f 741//74 738//72 742//74
f 743//73 739//71 744//73
f 740//71 744//73 739//71
f 745//76 741//74 742//74
f 741//74 745//76 746//76
f 747//75 748//75 744//73
f 743//73 744//73 748//75
f 749//78 745//76 750//78
f 745//76 749//78 746//76
f 747//75 751//77 748//75
f 752//77 748//75 751//77
f 753//80 750//78 754//80
f 750//78 753//80 749//78
f 751//77 755//79 752//77
f 756//79 752//77 755//79
f 757//82 754//80 758//82
f 754//80 757//82 753//80
f 755//79 759//81 756//79
f 760//81 756//79 759//81
f 761//84 758//82 762//84
f 758//82 761//84 757//82
f 759//81 763//83 760//81
f 764//83 760//81 763//83
f 765//86 762//84 766//86
f 762//84 765//86 761//84
f 763//83 767//85 764//83
f 768//85 764//83 767//85
f 769//88 766//86 770//88
f 766//86 769//88 765//86
f 767//85 771//87 768//85
f 772//87 768//85 771//87
f 773//90 770//88 774//90
f 770//88 773//90 769//88
f 771//87 775//89 772//87
f 776//89 772//87 775//89
f 773//90 777//92 778//92
f 777//92 773//90 774//90
f 776//89 775//89 779//91
f 780//91 779//91 775//89
f 778//92 781//94 782//94
f 781//94 778//92 777//92
f 779//91 780//91 783//93
f 784//93 783//93 780//91
f 782//94 785//96 786//96
f 785//96 782//94 781//94
f 783//93 784//93 787//95
f 788//95 787//95 784//93
f 786//96 789//98 790//98
f 789//98 786//96 785//96
f 787//95 788//95 791//97
f 792//97 791//97 788//95
f 790//98 793//100 794//100
f 793//100 790//98 789//98
f 791//97 792//97 795//99
f 796//99 795//99 792//97
f 794//100 797//102 798//102
f 797//102 794//100 793//100
f 795//99 796//99 799//101
f 800//101 799//101 796//99
f 798//102 801//104 802//104
f 801//104 798//102 797//102
f 799//101 800//101 803//103
f 804//103 803//103 800//101
f 805//106 801//104 806//106
f 801//104 805//106 802//104
f 804//103 807//105 803//103
f 808//105 803//103 807//105
f 806//106 809//108 805//106
f 809//108 806//106 810//108
f 811//107 808//105 812//107
f 807//105 812//107 808//105
f 810//108 813//110 809//108
f 813//110 810//108 814//110
f 815//109 811//107 816//109
f 812//107 816//109 811//107
f 814//110 817//112 813//110
f 817//112 814//110 818//112
f 819//111 815//109 820//111
f 816//109 820//111 815//109
f 818//112 821//114 817//112
f 821//114 818//112 822//114
f 823//113 819//111 824//113
f 820//111 824//113 819//111
f 822//114 825//116 821//114
f 825//116 822//114 826//116
f 827//115 823//113 828//115
f 824//113 828//115 823//113
f 826//116 829//118 825//116
f 829//118 826//116 830//118
f 831//117 827//115 832//117
f 828//115 832//117 827//115
f 830//118 833//120 829//118
f 833//120 830//118 834//120
f 835//119 831//117 836//119
f 832//117 836//119 831//117
f 834//120 837//122 833//120
f 837//122 834//120 838//122
f 839//121 835//119 840//121
f 836//119 840//121 835//119
f 838//122 841//6 837//122
f 841//6 838//122 842//6
f 843//3 839//121 844//3
f 840//121 844//3 839//121
f 842//6 845//5 841//6
f 845//5 842//6 846//5
f 847//4 843//3 848//4
f 844//3 848//4 843//3
f 846//5 849//8 845//5
f 849//8 846//5 850//8
f 851//7 847//4 852//7
f 848//4 852//7 847//4
f 850//8 853//10 849//8
f 853//10 850//8 854//10
f 855//9 851//7 856//9
f 852//7 856//9 851//7
f 854//10 857//12 853//10
f 857//12 854//10 858//12
f 859//11 855//9 860//11
f 856//9 860//11 855//9
f 858//12 861//14 857//12
f 861//14 858//12 862//14
f 863//13 859//11 864//13
f 860//11 864//13 859//11
f 861//14 865//16 866//16
f 865//16 861//14 862//14
f 863//13 864//13 867//15
f 868//15 867//15 864//13
f 865//16 869//18 866//16
f 869//18 865//16 870//18
f 871//17 867//15 872//17
f 868//15 872//17 867//15
f 870//18 873//20 869//18
f 873//20 870//18 874//20
f 875//19 871//17 876//19
f 872//17 876//19 871//17
f 874//20 877//22 873//20
f 877//22 874//20 878//22
f 879//21 875//19 880//21
f 876//19 880//21 875//19
f 878//22 881//24 877//22
f 881//24 878//22 882//24
f 883//23 879//21 884//23
f 880//21 884//23 879//21
f 882//24 885//26 881//24
f 885//26 882//24 886//26
f 887//25 883//23 888//25
f 884//23 888//25 883//23
f 886//26 889//28 885//26
f 889//28 886//26 890//28
f 891//27 887//25 892//27
f 888//25 892//27 887//25
f 890//28 893//30 889//28
f 893//30 890//28 894//30
f 895//29 891//27 896//29
f 892//27 896//29 891//27
f 894//30 897//32 893//30
f 897//32 894//30 898//32
f 899//31 895//29 900//31
f 896//29 900//31 895//29
f 901//34 897//32 898//32
f 897//32 901//34 902//34
f 903//33 904//33 900//31
f 899//31 900//31 904//33
f 905//36 902//34 901//34
f 902//34 905//36 906//36
f 907//35 908//35 903//33
f 904//33 903//33 908//35
f 909//38 906//36 905//36
f 906//36 909//38 910//38
f 911//37 912//37 907//35
f 908//35 907//35 912//37
f 913//40 910//38 909//38
f 910//38 913//40 914//40
f 915//39 916//39 911//37
f 912//37 911//37 916//39
f 917//42 914//40 913//40
f 914//40 917//42 918//42
f 919//41 920//41 915//39
f 916//39 915//39 920//41
f 921//44 918//42 917//42
f 918//42 921//44 922//44
f 923//43 924//43 919//41
f 920//41 919//41 924//43
f 921//44 925//46 922//44
f 925//46 921//44 926//46
f 927//45 924//43 928//45
f 923//43 928//45 924//43
f 926//46 929//48 925//46
f 929//48 926//46 930//48
f 931//47 927//45 932//47
f 928//45 932//47 927//45
f 930//48 933//50 929//48
f 933//50 930//48 934//50
f 935//49 931//47 936//49
f 932//47 936//49 931//47
f 934//50 937//52 933//50
f 937//52 934//50 938//52
f 939//51 935//49 940//51
f 936//49 940//51 935//49
f 938//52 941//54 937//52
f 941//54 938//52 942//54
f 943//53 939//51 944//53
f 940//51 944//53 939//51
f 942//54 945//56 941//54
f 945//56 942//54 946//56
f 947//55 943//53 948//55
f 944//53 948//55 943//53
f 946//56 949//58 945//56
f 949//58 946//56 950//58
f 951//57 947//55 952//57
f 948//55 952//57 947//55
f 950//58 953//60 949//58
f 953//60 950//58 954//60
f 955//59 951//57 956//59
f 952//57 956//59 951//57
f 954//60 957//62 953//60
f 957//62 954//60 958//62
f 959//61 955//59 960//61
f 956//59 960//61 955//59
f 958//62 723//64 957//62
f 723//64 958//62 721//64
f 726//63 959//61 728//63
f 960//61 728//63 959//61
f 961//2 962//2 963//2
f 962//2 961//2 964//2
f 964//2 961//2 965//2
f 965//2 961//2 966//2
f 965//2 966//2 967//2
f 967//2 966//2 968//2
f 968//2 966//2 969//2
f 969//2 966//2 970//2
f 969//2 970//2 971//2
f 971//2 970//2 972//2
f 971//2 972//2 973//2
f 973//2 972//2 974//2
f 974//2 972//2 975//2
f 974//2 975//2 976//2
f 976//2 975//2 977//2
f 976//2 977//2 978//2
f 978//2 977//2 979//2
f 979//2 977//2 980//2
f 979//2 980//2 981//2
f 981//2 980//2 982//2
f 981//2 982//2 983//2
f 983//2 982//2 984//2
f 983//2 984//2 985//2
f 985//2 984//2 986//2
f 985//2 986//2 987//2
f 987//2 986//2 988//2
f 988//2 986//2 989//2
f 988//2 989//2 990//2
f 990//2 989//2 991//2
f 990//2 991//2 992//2
f 992//2 991//2 993//2
f 992//2 993//2 994//2
f 994//2 993//2 995//2
f 994//2 995//2 996//2
f 996//2 995//2 997//2
f 996//2 997//2 998//2
f 998//2 997//2 999//2
f 999//2 997//2 1000//2
f 999//2 1000//2 1001//2
f 1001//2 1000//2 1002//2
f 1001//2 1002//2 1003//2
f 1003//2 1002//2 1004//2
f 1004//2 1002//2 1005//2
f 1004//2 1005//2 1006//2
f 1006//2 1005//2 1007//2
f 1006//2 1007//2 1008//2
f 1008//2 1007//2 1009//2
f 1009//2 1007//2 1010//2
f 1010//2 1007//2 1011//2
f 1010//2 1011//2 1012//2
f 1012//2 1011//2 1013//2
f 1013//2 1011//2 1014//2
f 1014//2 1011//2 1015//2
f 1014//2 1015//2 1016//2
f 1016//2 1015//2 1017//2
f 1016//2 1017//2 1018//2
f 1018//2 1017//2 1019//2
f 1018//2 1019//2 1020//2
f 1020//2 1019//2 1021//2
f 1020//2 1021//2 1022//2
f 1023//2 1024//2 1025//2
f 1024//2 1023//2 1026//2
f 1026//2 1023//2 1027//2
f 1026//2 1027//2 1028//2
f 1028//2 1027//2 1029//2
f 1028//2 1029//2 1030//2
f 1030//2 1029//2 1031//2
f 1030//2 1031//2 1032//2
f 1032//2 1031//2 963//2
f 1032//2 963//2 1033//2
f 1033//2 963//2 962//2
f 1033//2 962//2 1034//2
f 1033//2 1034//2 1035//2
f 1033//2 1035//2 1036//2
f 1036//2 1035//2 1037//2
f 1036//2 1037//2 1038//2
f 1036//2 1038//2 1039//2
f 1036//2 1039//2 1040//2
f 1040//2 1039//2 1041//2
f 1040//2 1041//2 1042//2
f 1042//2 1041//2 1043//2
f 1042//2 1043//2 1044//2
f 1042//2 1044//2 1045//2
f 1045//2 1044//2 1046//2
f 1045//2 1046//2 1047//2
f 1047//2 1046//2 1048//2
f 1047//2 1048//2 1049//2
f 1047//2 1049//2 1050//2
f 1050//2 1049//2 1051//2
f 1050//2 1051//2 1052//2
f 1052//2 1051//2 1053//2
f 1052//2 1053//2 1054//2
f 1054//2 1053//2 1055//2
f 1054//2 1055//2 1056//2
f 1056//2 1055//2 1057//2
f 1056//2 1057//2 1058//2
f 1058//2 1057//2 1059//2
f 1058//2 1059//2 1060//2
f 1058//2 1060//2 1061//2
f 1061//2 1060//2 1062//2
f 1061//2 1062//2 1063//2
f 1063//2 1062//2 1064//2
f 1063//2 1064//2 1065//2
f 1065//2 1064//2 1066//2
f 1065//2 1066//2 1067//2
f 1067//2 1066//2 1068//2
f 1067//2 1068//2 1069//2
f 1067//2 1069//2 1070//2
f 1070//2 1069//2 1071//2
f 1070//2 1071//2 1072//2
f 1072//2 1071//2 1073//2
f 1072//2 1073//2 1074//2
f 1072//2 1074//2 1075//2
f 1075//2 1074//2 1076//2
f 1075//2 1076//2 1077//2
f 1077//2 1076//2 1078//2
f 1077//2 1078//2 1079//2
f 1077//2 1079//2 1080//2
f 1077//2 1080//2 1013//2
f 1013//2 1080//2 1012//2
f 1081//1 1082//1 1083//1
f 1083//1 1082//1 1084//1
f 1082//1 1085//1 1084//1
f 1085//1 1086//1 1084//1
f 1086//1 1087//1 1084//1
f 1084//1 1087//1 1088//1
f 1087//1 1089//1 1088//1
f 1088//1 1089//1 1090//1
f 1089//1 1091//1 1090//1
f 1091//1 1092//1 1090//1
f 1090//1 1092//1 1093//1
f 1092//1 1094//1 1093//1
f 1093//1 1094//1 1095//1
f 1094//1 1096//1 1095//1
f 1096//1 1097//1 1095//1
f 1095//1 1097//1 1098//1
f 1097//1 1099//1 1098//1
f 1098//1 1099//1 1100//1
f 1099//1 1101//1 1100//1
f 1100//1 1101//1 1102//1
f 1101//1 1103//1 1102//1
f 1102//1 1103//1 1104//1
f 1103//1 1105//1 1104//1
f 1105//1 1106//1 1104//1
f 1104//1 1106//1 1107//1
f 1106//1 1108//1 1107//1
f 1107//1 1108//1 1109//1
f 1108//1 1110//1 1109//1
f 1109//1 1110//1 1111//1
f 1110//1 1112//1 1111//1
f 1111//1 1112//1 1113//1
f 1112//1 1114//1 1113//1
f 1113//1 1114//1 1115//1
f 1114//1 1116//1 1115//1
f 1116//1 1117//1 1115//1
f 1115//1 1117//1 1118//1
f 1117//1 1119//1 1118//1
f 1118//1 1119//1 1120//1
f 1119//1 1121//1 1120//1
f 1121//1 1122//1 1120//1
f 1120//1 1122//1 1123//1
f 1122//1 1124//1 1123//1
f 1123//1 1124//1 1125//1
f 1124//1 1126//1 1125//1
f 1126//1 1127//1 1125//1
f 1127//1 1128//1 1125//1
f 1125//1 1128//1 1129//1
f 1128//1 1130//1 1129//1
f 1130//1 1131//1 1129//1
f 1131//1 1132//1 1129//1
f 1129//1 1132//1 1133//1
f 1132//1 1134//1 1133//1
f 1133//1 1134//1 1135//1
f 1134//1 1136//1 1135//1
f 1135//1 1136//1 1137//1
f 1136//1 1138//1 1137//1
f 1137//1 1138//1 1139//1
f 1138//1 1140//1 1139//1
f 1139//1 1140//1 1141//1
f 1142//1 1141//1 1140//1
f 1143//1 1144//1 1145//1
f 1144//1 1146//1 1145//1
f 1145//1 1146//1 1147//1
f 1146//1 1148//1 1147//1
f 1147//1 1148//1 1149//1
f 1148//1 1150//1 1149//1
f 1149//1 1150//1 1151//1
f 1150//1 1152//1 1151//1
f 1151//1 1152//1 1083//1
f 1083//1 1152//1 1081//1
f 1081//1 1152//1 1153//1
f 1152//1 1154//1 1153//1
f 1153//1 1154//1 1155//1
f 1155//1 1154//1 1156//1
f 1156//1 1154//1 1157//1
f 1154//1 1158//1 1157//1
f 1157//1 1158//1 1159//1
f 1158//1 1160//1 1159//1
f 1159//1 1160//1 1161//1
f 1161//1 1160//1 1162//1
f 1160//1 1163//1 1162//1
f 1162//1 1163//1 1164//1
f 1163//1 1165//1 1164//1
f 1164//1 1165//1 1166//1
f 1166//1 1165//1 1167//1
f 1165//1 1168//1 1167//1
f 1167//1 1168//1 1169//1
f 1168//1 1170//1 1169//1
f 1169//1 1170//1 1171//1
f 1170//1 1172//1 1171//1
f 1171//1 1172//1 1173//1
f 1172//1 1174//1 1173//1
f 1173//1 1174//1 1175//1
f 1174//1 1176//1 1175//1
f 1175//1 1176//1 1177//1
f 1177//1 1176//1 1178//1
f 1176//1 1179//1 1178//1
f 1178//1 1179//1 1180//1
f 1179//1 1181//1 1180//1
f 1180//1 1181//1 1182//1
f 1181//1 1183//1 1182//1
f 1182//1 1183//1 1184//1
f 1183//1 1185//1 1184//1
f 1184//1 1185//1 1186//1
f 1186//1 1185//1 1187//1
f 1185//1 1188//1 1187//1
f 1187//1 1188//1 1189//1
f 1188//1 1190//1 1189//1
f 1189//1 1190//1 1191//1
f 1191//1 1190//1 1192//1
f 1190//1 1193//1 1192//1
f 1192//1 1193//1 1194//1
f 1193//1 1195//1 1194//1
f 1194//1 1195//1 1196//1
f 1196//1 1195//1 1197//1
f 1197//1 1195//1 1198//1
f 1195//1 1199//1 1198//1
f 1198//1 1199//1 1200//1
f 1200//1 1199//1 1131//1
f 1132//1 1131//1 1199//1
