# SSTK version 0.8.0
# 45
mtllib original-45.mtl
o #ID296
v 0.26366901 0.29742476 0.14815955
v 0.26375555 0.29038498 0.16562182
v 0.26358873 0.29082424 0.16587848
v 0.26372874 0.29054678 0.16493371
v 0.26373659 0.29076488 0.16402330
v 0.26367522 0.29068794 0.16319776
v 0.26367381 0.29054469 0.16266785
v 0.26368996 0.29017330 0.16235350
v 0.26366535 0.29272418 0.15735891
v 0.26367468 0.28841575 0.16156629
v 0.26373868 0.27442622 0.15634206
v 0.26363819 0.29352814 0.15521892
v 0.26357758 0.29421278 0.15317560
v 0.26371523 0.29437395 0.15185663
v 0.26374324 0.29443853 0.15025887
v 0.26364360 0.29379753 0.14908240
v 0.26366576 0.29282169 0.14770463
v 0.26364337 0.29112432 0.14655460
v 0.26357971 0.29130873 0.14584723
v 0.26366658 0.28430550 0.15380201
v 0.26372101 0.28301247 0.15377270
v 0.26361254 0.28417943 0.15421759
v 0.26375945 0.28333456 0.15237646
v 0.26360904 0.28467919 0.15292867
v 0.26372029 0.28345615 0.15126877
v 0.26373761 0.28520594 0.15220076
v 0.26359381 0.28577933 0.15165643
v 0.26367345 0.28317251 0.15032944
v 0.26362268 0.28662557 0.15128659
v 0.26357594 0.28239260 0.14932042
v 0.26361008 0.28851583 0.15121948
v 0.26366983 0.28126429 0.14825953
v 0.26361685 0.29065963 0.15154113
v 0.26363275 0.27974304 0.14746014
v 0.26371951 0.29099741 0.15094227
v 0.26360499 0.28000162 0.14675932
v 0.26374406 0.27060553 0.15750926
v 0.26370887 0.26972033 0.15788803
v 0.26357504 0.27043063 0.15817527
v 0.26365630 0.27662383 0.13966877
v 0.26374410 0.27103356 0.15675420
v 0.26367378 0.27144835 0.15618881
v 0.26364881 0.27185292 0.15592510
v 0.26356444 0.27256871 0.15571226
v 0.26369024 0.27450757 0.14914059
v 0.26369558 0.27440022 0.14975851
v 0.26368425 0.27485412 0.15060417
v 0.26370240 0.27694854 0.15151942
v 0.26370688 0.27474495 0.14838575
v 0.26364603 0.27528360 0.14718118
v 0.26363052 0.27590108 0.14581341
v 0.26357473 0.27654574 0.14450477
v 0.26356896 0.27739378 0.14360046
v 0.26373195 0.27841261 0.14293444
v 0.26358917 0.27946213 0.14242568
v 0.26359534 0.28068560 0.14202749
v 0.26368562 0.28191813 0.14177988
v 0.26372618 0.28354472 0.14198524
v 0.26373338 0.28363626 0.14137254
v 0.26364560 0.29275757 0.15736438
v 0.26382540 0.28414607 0.15420294
v 0.26362379 0.28400821 0.15424714
v 0.26379130 0.29261417 0.15748449
v 0.26375369 0.28403812 0.15409966
v 0.26359879 0.28420910 0.15380678
v 0.26368354 0.28414716 0.15423494
v 0.26374727 0.28422004 0.15383492
v 0.26368004 0.28475689 0.15284352
v 0.26363814 0.28477492 0.15287016
v 0.26358003 0.28522773 0.15210090
v 0.26366628 0.28530149 0.15212118
v 0.26373862 0.28589838 0.15168763
v 0.26359703 0.28577610 0.15167352
v 0.26375149 0.28657366 0.15130273
v 0.26356883 0.28654539 0.15130749
v 0.26372565 0.28846536 0.15116141
v 0.26369641 0.28840957 0.15107999
v 0.26365540 0.29071340 0.15152875
v 0.26375533 0.29077276 0.15161198
v 0.26382990 0.29073531 0.15157786
v 0.26370180 0.29104440 0.15103025
v 0.26365406 0.29070490 0.15149104
v 0.26378517 0.29105680 0.15102627
v 0.26374726 0.29102288 0.15090190
v 0.26365858 0.28000592 0.14674661
v 0.26368642 0.27986035 0.14674980
v 0.26367223 0.29092956 0.15094389
v 0.26372155 0.27989005 0.14673199
v 0.26368125 0.27962310 0.14737478
v 0.26374653 0.27966241 0.14740105
v 0.26364861 0.28001825 0.14688915
v 0.26374583 0.28123786 0.14831362
v 0.26360992 0.27974540 0.14744629
v 0.26375060 0.27977061 0.14734108
v 0.26359251 0.28115839 0.14836549
v 0.26373090 0.28245818 0.14939154
v 0.26365061 0.28236285 0.14923506
v 0.26381643 0.28307162 0.15032266
v 0.26367475 0.28318087 0.15028776
v 0.26375520 0.28329415 0.15121010
v 0.26372108 0.28330727 0.15120273
v 0.26372752 0.28339666 0.15234056
v 0.26363643 0.28323217 0.15241245
v 0.26374742 0.28299543 0.15366952
v 0.26365689 0.28286396 0.15364988
v 0.26375575 0.28296655 0.15366285
v 0.26381442 0.27688121 0.15155972
v 0.26375508 0.27699534 0.15146919
v 0.26377897 0.28292419 0.15373901
v 0.26376002 0.27490129 0.15056219
v 0.26375457 0.27495710 0.15060942
v 0.26363257 0.27492878 0.15052733
v 0.26367947 0.27442911 0.14969505
v 0.26363735 0.27440926 0.14975859
v 0.26370560 0.27495152 0.15054698
v 0.26380442 0.27456707 0.14908940
v 0.26364004 0.27454447 0.14916034
v 0.26366259 0.27468697 0.14828145
v 0.26366759 0.27464152 0.14837676
v 0.26367108 0.27527529 0.14703821
v 0.26360524 0.27523668 0.14717213
v 0.26371373 0.27582047 0.14570382
v 0.26377855 0.27574166 0.14574958
v 0.26365458 0.27648673 0.14461774
v 0.26368061 0.27643751 0.14462479
v 0.26361659 0.27731264 0.14367662
v 0.26367820 0.27739180 0.14369634
v 0.26378145 0.27843281 0.14295226
v 0.26371467 0.27829391 0.14284174
v 0.26366767 0.27946862 0.14225888
v 0.26376686 0.27943473 0.14240203
v 0.26379710 0.28069153 0.14201407
v 0.26367870 0.28054851 0.14201286
v 0.26375291 0.28200708 0.14195078
v 0.26358269 0.28206875 0.14178464
v 0.26376845 0.28350790 0.14198991
v 0.26360113 0.28340001 0.14193672
v 0.26358034 0.28356986 0.14190396
v 0.26373733 0.28373588 0.14125139
v 0.26356728 0.28363462 0.14125276
v 0.26379181 0.28343345 0.14190835
v 0.26363216 0.28362161 0.14141573
v 0.26365913 0.27656790 0.13980781
v 0.26361536 0.27652766 0.13969376
v 0.26374243 0.28364930 0.14125120
v 0.26358236 0.27666236 0.13979823
v 0.26380061 0.26975286 0.15793108
v 0.26368302 0.26985012 0.15791868
v 0.26378372 0.27656408 0.13974592
v 0.26375324 0.27038686 0.15824237
v 0.26361116 0.26973512 0.15802613
v 0.26365543 0.26974325 0.15799922
v 0.26365299 0.27025978 0.15811943
v 0.26369588 0.27033940 0.15829299
v 0.26371338 0.27062545 0.15750450
v 0.26359926 0.27027127 0.15825385
v 0.26363863 0.27066371 0.15743909
v 0.26381906 0.27093197 0.15665454
v 0.26361122 0.27096799 0.15663203
v 0.26363992 0.27158709 0.15619574
v 0.26375925 0.27151770 0.15613597
v 0.26357997 0.27184758 0.15596801
v 0.26374747 0.27186581 0.15586250
v 0.26377696 0.27248442 0.15577218
v 0.26360075 0.27247363 0.15587803
v 0.26372370 0.27446966 0.15629621
v 0.26364264 0.27457491 0.15644798
v 0.26374094 0.28842043 0.16165841
v 0.26364063 0.28832855 0.16153436
v 0.26371591 0.29018779 0.16228046
v 0.26375405 0.29004032 0.16241899
v 0.26380136 0.29055345 0.16280736
v 0.26367336 0.29051510 0.16269386
v 0.26377509 0.29081814 0.16312111
v 0.26373289 0.29076285 0.16328453
v 0.26356568 0.29084252 0.16410374
v 0.26377149 0.29075786 0.16402340
v 0.26358651 0.29049673 0.16502486
v 0.26380945 0.29062781 0.16508595
v 0.26379447 0.29026976 0.16576826
v 0.26360911 0.29028209 0.16562826
v 0.26381624 0.29077591 0.16593643
v 0.26361850 0.29033652 0.16565554
v 0.26370978 0.29031927 0.16565428
v 0.26358919 0.29084178 0.16598530
v 0.26358324 0.29096788 0.16596198
v 0.26371676 0.29756574 0.14829724
v 0.26356706 0.29754229 0.14829074
v 0.26369502 0.29092825 0.16589128
v 0.26374956 0.29130809 0.14595489
v 0.26366258 0.29748659 0.14824201
v 0.26377468 0.29131348 0.14588724
v 0.26356440 0.29759944 0.14833813
v 0.26367342 0.29130166 0.14582609
v 0.26357437 0.29106886 0.14648843
v 0.26368769 0.29134761 0.14593954
v 0.26365910 0.29113683 0.14653937
v 0.26376634 0.29278202 0.14786134
v 0.26359271 0.29104978 0.14658294
v 0.26367247 0.29103655 0.14654727
v 0.26357789 0.29282459 0.14777368
v 0.26367880 0.29381619 0.14896022
v 0.26363082 0.29392295 0.14904456
v 0.26356895 0.29431640 0.15022378
v 0.26380678 0.29428527 0.15024440
v 0.26372316 0.29435996 0.15193073
v 0.26382839 0.29446321 0.15185829
v 0.26357749 0.29422902 0.15311805
v 0.26374750 0.29419274 0.15311388
v 0.26380069 0.29345917 0.15519370
v 0.26375831 0.29341312 0.15531532
v 0.26367007 0.29263210 0.15740750
v 0.26377347 0.29275925 0.15734058
v 0.26368719 0.27653278 0.13978070
v 0.26368441 0.27035128 0.15826881
v 0.26382724 0.26967646 0.15800190
v 0.26376874 0.27060227 0.15750647
v 0.26370975 0.27104041 0.15664297
v 0.26368082 0.27155238 0.15618348
v 0.26380296 0.27201409 0.15584288
v 0.26380060 0.27241337 0.15585194
v 0.26366423 0.27449746 0.14922157
v 0.26367096 0.27449314 0.14970840
v 0.26366023 0.27452335 0.15645581
v 0.26365251 0.27491979 0.15064815
v 0.26376539 0.28831836 0.16159896
v 0.26372743 0.27697397 0.15145822
v 0.26366812 0.27472591 0.14838755
v 0.26378257 0.27523094 0.14706234
v 0.26381833 0.27570607 0.14566520
v 0.26368007 0.27660955 0.14449232
v 0.26380315 0.27745038 0.14372418
v 0.26380102 0.27831310 0.14282068
v 0.26374052 0.27947216 0.14227885
v 0.26381427 0.28067471 0.14193862
v 0.26373645 0.28191219 0.14187174
v 0.26381896 0.28355628 0.14183893
v 0.26374356 0.28367886 0.14125832
v 0.26373067 0.28341059 0.15236331
v 0.26374282 0.28400927 0.15413100
v 0.26378642 0.28282626 0.15374700
v 0.26379356 0.28423981 0.15374484
v 0.26371734 0.28471952 0.15280018
v 0.26370626 0.28346240 0.15137242
v 0.26366541 0.28516806 0.15207246
v 0.26364269 0.28590526 0.15159472
v 0.26368595 0.28302421 0.15039964
v 0.26381874 0.28655386 0.15140209
v 0.26379768 0.28229596 0.14925116
v 0.26364043 0.28839504 0.15115891
v 0.26380541 0.28122672 0.14827507
v 0.26372406 0.29084654 0.15149663
v 0.26364846 0.27971637 0.14740207
v 0.26371978 0.27983909 0.14679415
v 0.26378881 0.29100999 0.15101315
v 0.26367075 0.29053335 0.16507880
v 0.26364085 0.29086432 0.16582340
v 0.26376496 0.29033190 0.16566781
v 0.26377281 0.29754778 0.14826682
v 0.26379137 0.29086862 0.16399826
v 0.26370988 0.29072329 0.16314429
v 0.26372073 0.29050215 0.16268906
v 0.26382149 0.29019410 0.16237321
v 0.26366549 0.29261423 0.15749974
v 0.26370804 0.29356837 0.15529076
v 0.26371981 0.29423208 0.15322739
v 0.26364400 0.29437885 0.15190271
v 0.26373903 0.29426371 0.15025333
v 0.26368917 0.29386801 0.14907769
v 0.26380312 0.29287153 0.14779797
v 0.26381064 0.29105508 0.14643827
v 0.26367638 0.29126274 0.14581817
vn -1 0 0
vn 0 0.35184161095059124 -0.9360595498170472
vn 0 0.9360595498170472 0.35184161095059124
vn 0 0.9204437776937612 0.3908749827052608
vn 0 0.8547139549090405 0.5190992730526087
vn 0 0.7156024265216383 0.698507814670919
vn 0 0.5093995291086759 0.8605301387771722
vn 0 0.23759289841715145 0.9713648205600907
vn 0 -0.043923859057811224 0.9990348815759486
vn 0 -0.16999006903023164 0.9854457754900049
vn 0 -0.9360595498170472 -0.35184161095059124
vn 0 -0.5869326047199036 0.8096357931296697
vn 0 -0.5092194325639611 0.860636723303879
vn 0 -0.7419595696821617 0.670444626316791
vn 0 -0.8948017740683554 0.4464636436756344
vn 0 -0.9925695782699883 0.12167839698540459
vn 0 -0.9849261394010549 -0.17297543156336948
vn 0 -0.9596295696462053 -0.2812669355979102
vn 0 0.38402711255736055 -0.9233218164978321
vn 0 0.4157524860841737 -0.9094778008917145
vn 0 0.8787152397537712 -0.4773463390709857
vn 0 0.9716476843701359 -0.23643345249383152
vn 0 0.9887745881170271 0.14941490519357034
vn 0 0.9493540057376009 0.31420848459258915
vn 0 0.9249240585186748 0.3801519248581324
vn 0 0.8820377372440036 0.4711787665817275
vn 0 0.7996941323105773 0.6004076071703563
vn 0 0.6812665833753152 0.7320354106026052
vn 0 0.5290125750895452 0.8486139849172462
vn 0 0.3594164737628551 0.9331772598964653
vn 0 0.19265401756324915 0.981266747381536
vn 0 0.042130960596913083 0.9991120968936275
vn 0 -0.027692027837333755 0.9996165022618705
vn 0 0.2171952682858049 -0.9761281757198986
vn 0 -0.35184161095059124 0.9360595498170472
vn 0 0.9176482673013492 0.3973935801177863
vn 0 0.8314723563139861 0.5555661262943122
vn 0 0.6331889503854665 0.7739972565259848
vn 0 0.33889774183145316 0.9408232143083746
vn 0 -0.050867528980309794 0.9987054092651333
vn 0 -0.3107646237797788 0.9504869008076926
vn 0 -0.37244971484901984 0.9280523745505335
vn 0 -0.5622330143151653 0.8269788616488833
vn 0 -0.8220152514246736 0.569465474304835
vn 0 -0.9678630087849563 0.25147802334544395
vn 0 -0.9966252708273887 -0.08208574509763711
vn 0 -0.9551910449146251 -0.2959899790785271
vn 0 -0.6785407360279463 0.7345627744111819
vn 0 -0.5883803030890404 0.8085843301331338
vn 0 -0.8607747189846255 0.5089861325782256
vn 0 -0.9775153242504471 0.2108643897284295
vn 0 -0.9979471083779242 -0.06404349209825702
vn 0 -0.9666229147126462 -0.2562033191674701
vn 0 -0.942028694542715 -0.3355323213315647
vn 1 0 0
usemtl material_0_0
f 1//1 2//1 3//1
f 2//1 1//1 4//1
f 4//1 1//1 5//1
f 5//1 1//1 6//1
f 6//1 1//1 7//1
f 7//1 1//1 8//1
f 8//1 1//1 9//1
f 8//1 9//1 10//1
f 10//1 9//1 11//1
f 9//1 1//1 12//1
f 12//1 1//1 13//1
f 13//1 1//1 14//1
f 14//1 1//1 15//1
f 15//1 1//1 16//1
f 16//1 1//1 17//1
f 17//1 1//1 18//1
f 18//1 1//1 19//1
f 20//1 21//1 22//1
f 21//1 20//1 23//1
f 23//1 20//1 24//1
f 23//1 24//1 25//1
f 25//1 24//1 26//1
f 25//1 26//1 27//1
f 25//1 27//1 28//1
f 28//1 27//1 29//1
f 28//1 29//1 30//1
f 30//1 29//1 31//1
f 30//1 31//1 32//1
f 32//1 31//1 33//1
f 32//1 33//1 34//1
f 34//1 33//1 35//1
f 34//1 35//1 36//1
f 37//1 38//1 39//1
f 38//1 37//1 40//1
f 40//1 37//1 41//1
f 40//1 41//1 42//1
f 40//1 42//1 43//1
f 40//1 43//1 44//1
f 40//1 44//1 45//1
f 45//1 44//1 46//1
f 46//1 44//1 11//1
f 46//1 11//1 47//1
f 47//1 11//1 48//1
f 48//1 11//1 9//1
f 48//1 9//1 22//1
f 48//1 22//1 21//1
f 40//1 45//1 49//1
f 40//1 49//1 50//1
f 40//1 50//1 51//1
f 40//1 51//1 52//1
f 40//1 52//1 53//1
f 40//1 53//1 54//1
f 40//1 54//1 55//1
f 40//1 55//1 56//1
f 40//1 56//1 57//1
f 40//1 57//1 58//1
f 40//1 58//1 59//1
f 60//2 61//2 62//2
f 61//2 60//2 63//2
f 64//3 65//4 66//3
f 65//4 64//3 67//4
f 65//4 68//5 69//5
f 68//5 65//4 67//4
f 68//5 70//6 69//5
f 70//6 68//5 71//6
f 70//6 72//7 73//7
f 72//7 70//6 71//6
f 74//8 73//7 72//7
f 73//7 74//8 75//8
f 76//9 75//8 74//8
f 75//8 76//9 77//9
f 78//10 77//9 76//9
f 77//9 78//10 79//10
f 80//3 81//3 82//3
f 81//3 80//3 83//3
f 84//2 85//2 86//2
f 85//2 84//2 87//2
f 88//11 89//11 90//11
f 89//11 88//11 91//11
f 92//12 93//13 94//13
f 93//13 92//12 95//12
f 96//14 95//12 92//12
f 95//12 96//14 97//14
f 98//15 97//14 96//14
f 97//14 98//15 99//15
f 98//15 100//16 99//15
f 100//16 98//15 101//16
f 100//16 102//17 103//17
f 102//17 100//16 101//16
f 102//17 104//18 103//17
f 104//18 102//17 105//18
f 106//2 107//19 108//19
f 107//19 106//2 109//2
f 110//20 107//19 111//20
f 107//19 110//20 108//19
f 112//21 113//22 114//22
f 113//22 112//21 115//21
f 114//22 116//23 117//23
f 116//23 114//22 113//22
f 116//23 118//24 117//23
f 118//24 116//23 119//24
f 118//24 120//25 121//25
f 120//25 118//24 119//24
f 120//25 122//26 121//25
f 122//26 120//25 123//26
f 123//26 124//27 122//26
f 124//27 123//26 125//27
f 125//27 126//28 124//27
f 126//28 125//27 127//28
f 126//28 128//29 129//29
f 128//29 126//28 127//28
f 128//29 130//30 129//29
f 130//30 128//29 131//30
f 132//31 130//30 131//30
f 130//30 132//31 133//31
f 134//32 133//31 132//31
f 133//31 134//32 135//32
f 136//33 135//32 134//32
f 135//32 136//33 137//33
f 138//3 139//3 140//3
f 139//3 138//3 141//3
f 142//34 143//34 144//34
f 143//34 142//34 145//34
f 146//11 147//11 148//11
f 147//11 146//11 149//11
f 150//35 151//35 152//35
f 151//35 150//35 153//35
f 154//3 155//36 156//3
f 155//36 154//3 157//36
f 155//36 158//37 159//37
f 158//37 155//36 157//36
f 158//37 160//38 159//37
f 160//38 158//37 161//38
f 161//38 162//39 160//38
f 162//39 161//38 163//39
f 164//40 162//39 163//39
f 162//39 164//40 165//40
f 166//41 165//40 164//40
f 165//40 166//41 167//41
f 168//42 167//41 166//41
f 167//41 168//42 169//42
f 170//43 169//42 168//42
f 169//42 170//43 171//43
f 172//44 171//43 170//43
f 171//43 172//44 173//44
f 174//45 173//44 172//44
f 173//44 174//45 175//45
f 174//45 176//46 175//45
f 176//46 174//45 177//46
f 177//46 178//47 176//46
f 178//47 177//46 179//47
f 178//47 180//11 181//11
f 180//11 178//47 179//47
f 182//35 183//35 184//35
f 183//35 182//35 185//35
f 186//3 187//3 188//3
f 187//3 186//3 189//3
f 190//2 191//2 192//2
f 191//2 190//2 193//2
f 194//11 195//11 196//11
f 195//11 194//11 197//11
f 198//48 199//49 200//49
f 199//49 198//48 201//48
f 202//50 201//48 198//48
f 201//48 202//50 203//50
f 202//50 204//51 203//50
f 204//51 202//50 205//51
f 205//51 206//52 204//51
f 206//52 205//51 207//52
f 207//52 208//53 206//52
f 208//53 207//52 209//53
f 208//53 210//54 211//54
f 210//54 208//53 209//53
f 210//54 212//11 211//54
f 212//11 210//54 213//11
f 214//55 215//55 216//55
f 215//55 214//55 217//55
f 217//55 214//55 218//55
f 218//55 214//55 219//55
f 219//55 214//55 220//55
f 220//55 214//55 221//55
f 221//55 214//55 222//55
f 221//55 222//55 223//55
f 221//55 223//55 224//55
f 224//55 223//55 225//55
f 224//55 225//55 226//55
f 226//55 225//55 227//55
f 222//55 214//55 228//55
f 228//55 214//55 229//55
f 229//55 214//55 230//55
f 230//55 214//55 231//55
f 231//55 214//55 232//55
f 232//55 214//55 233//55
f 233//55 214//55 234//55
f 234//55 214//55 235//55
f 235//55 214//55 236//55
f 236//55 214//55 237//55
f 237//55 214//55 238//55
f 239//55 240//55 241//55
f 240//55 239//55 242//55
f 242//55 239//55 243//55
f 243//55 239//55 244//55
f 243//55 244//55 245//55
f 245//55 244//55 246//55
f 246//55 244//55 247//55
f 246//55 247//55 248//55
f 248//55 247//55 249//55
f 248//55 249//55 250//55
f 250//55 249//55 251//55
f 250//55 251//55 252//55
f 252//55 251//55 253//55
f 252//55 253//55 254//55
f 252//55 254//55 255//55
f 256//55 257//55 258//55
f 257//55 256//55 259//55
f 259//55 256//55 260//55
f 259//55 260//55 261//55
f 259//55 261//55 262//55
f 259//55 262//55 263//55
f 259//55 263//55 264//55
f 264//55 263//55 226//55
f 264//55 226//55 227//55
f 264//55 227//55 241//55
f 264//55 241//55 240//55
f 259//55 264//55 265//55
f 259//55 265//55 266//55
f 259//55 266//55 267//55
f 259//55 267//55 268//55
f 259//55 268//55 269//55
f 259//55 269//55 270//55
f 259//55 270//55 271//55
f 259//55 271//55 272//55
