# SSTK version 0.8.0
# 17
mtllib original-17.mtl
o #ID122
v 0.02368660 -0.65531162 0.01523056
v 0.02479802 -0.65521573 -0.00462864
v 0.02824745 -0.65528865 0.00950017
v 0.02406232 -0.65535715 0.00086297
v 0.02210116 -0.65524851 0.00595044
v 0.01791529 -0.65520395 0.01987820
v 0.01861738 -0.65528602 0.01020563
v 0.01433894 -0.65523148 0.01350932
v 0.01109589 -0.65528929 0.02250086
v 0.00918470 -0.65536471 0.01563890
v 0.00393029 -0.65534597 0.02352391
v 0.00381421 -0.65524063 0.01644767
v -0.00148549 -0.65525272 0.01570482
v -0.00343706 -0.65528431 0.02256923
v -0.00657654 -0.65526625 0.01353727
v -0.01012341 -0.65525717 0.01974865
v -0.01095230 -0.65537881 0.01025896
v -0.01598104 -0.65534432 0.01530000
v -0.01428025 -0.65533674 0.00590909
v -0.01632643 -0.65533198 0.00093469
v -0.02059103 -0.65519293 0.00955818
v -0.01702172 -0.65537751 -0.00459451
v -0.02041681 -0.65526743 -0.01862514
v -0.02331718 -0.65528850 -0.01191073
v -0.02332360 -0.65536642 0.00272079
v -0.02424980 -0.65534438 -0.00451519
v 0.03102996 -0.65528478 0.00265816
v 0.03105074 -0.65520838 -0.01191348
v 0.03199725 -0.65522924 -0.00467160
v 0.02814229 -0.65523286 -0.01860845
v 0.02369490 -0.65535210 -0.02438113
v 0.02410699 -0.65523887 -0.00996235
v 0.02201292 -0.65525112 -0.01507119
v 0.01783859 -0.65528325 -0.02892343
v 0.01869414 -0.65529062 -0.01940307
v 0.01442246 -0.65520444 -0.02282470
v 0.01103509 -0.65528863 -0.03181085
v 0.00937186 -0.65535569 -0.02475665
v 0.00386674 -0.65532043 -0.03272935
v 0.00387423 -0.65519426 -0.02547007
v -0.00160893 -0.65527302 -0.02491506
v -0.00348658 -0.65532905 -0.03178747
v -0.00669756 -0.65527415 -0.02284196
v -0.01016174 -0.65520049 -0.02902315
v -0.01088328 -0.65530130 -0.01945001
v -0.01612956 -0.65521101 -0.02438723
v -0.01437354 -0.65528103 -0.01506405
v -0.01642747 -0.65536991 -0.01008820
v -0.01717919 -0.65525911 -0.00464316
v -0.01638949 -0.65528557 -0.00994283
v -0.02059121 -0.65535850 -0.01855163
v -0.01600509 -0.65530690 -0.02457005
v -0.01437597 -0.65526987 -0.01505912
v -0.01091334 -0.65533178 -0.01936548
v -0.01022474 -0.65527036 -0.02896205
v -0.00660041 -0.65520285 -0.02281101
v -0.00334623 -0.65524016 -0.03166203
v -0.00158997 -0.65518633 -0.02493321
v 0.00389459 -0.65528165 -0.03263082
v 0.00381563 -0.65534434 -0.02550665
v 0.00935193 -0.65530519 -0.02480728
v 0.01117100 -0.65528083 -0.03177295
v 0.01426218 -0.65526855 -0.02278802
v 0.01800436 -0.65527644 -0.02904422
v 0.01874646 -0.65529033 -0.01933820
v 0.02199100 -0.65524960 -0.01502105
v 0.02374012 -0.65530017 -0.02439102
v 0.02416844 -0.65532571 -0.01010034
v 0.02478630 -0.65527678 -0.00458324
v 0.02821142 -0.65530590 0.00946413
v 0.02830532 -0.65523536 -0.01870141
v 0.03103457 -0.65530110 0.00264540
v 0.03100737 -0.65525493 -0.01188143
v 0.03191535 -0.65532444 -0.00464534
v -0.02435642 -0.65534831 -0.00454077
v -0.02326289 -0.65532236 0.00260774
v -0.02339975 -0.65538049 -0.01178043
v -0.02059428 -0.65538510 0.00943216
v -0.01637494 -0.65527601 0.00084758
v -0.01610478 -0.65537145 0.01536976
v -0.01434237 -0.65527559 0.00599299
v -0.01096030 -0.65520600 0.01025948
v -0.01018841 -0.65535402 0.01984454
v -0.00670497 -0.65525558 0.01353900
v -0.00339795 -0.65528739 0.02268028
v -0.00151156 -0.65525465 0.01566068
v 0.00383269 -0.65523805 0.02359170
v 0.00384612 -0.65523747 0.01641678
v 0.00932018 -0.65538572 0.01559026
v 0.01114753 -0.65532716 0.02265335
v 0.01425866 -0.65532289 0.01354302
v 0.01785077 -0.65527858 0.01986969
v 0.01859830 -0.65532374 0.01031085
v 0.02192085 -0.65527418 0.00596752
v 0.02374643 -0.65524954 0.01523999
v 0.02411486 -0.65524832 0.00087379
v 0.00379463 0.07615692 0.02354565
v -0.00335327 -0.65537937 0.02254921
v 0.00390040 -0.65531777 0.02363786
v -0.00335960 0.07620684 0.02267623
v -0.00337279 0.07616921 0.02256635
v 0.00394296 0.07612136 0.02360706
v -0.00351540 -0.65531896 0.02266869
v 0.00379206 -0.65533303 0.02350187
v -0.01026399 -0.65527017 0.01985238
v -0.01027056 0.07615487 0.01976691
v -0.01023038 0.07614940 0.01982346
v -0.01026941 -0.65526383 0.01973220
v -0.01601578 -0.65528001 0.01535771
v -0.01607885 0.07621816 0.01539779
v -0.01612768 0.07622177 0.01526503
v -0.01600689 -0.65530735 0.01522176
v -0.02055268 0.07619900 0.00951111
v -0.02044544 -0.65533159 0.00950931
v -0.02050706 0.07602870 0.00948713
v -0.02049794 -0.65522940 0.00949242
v -0.02341726 0.07614831 0.00267541
v -0.02334348 -0.65527492 0.00272500
v -0.02339958 0.07606360 0.00269112
v -0.02324721 -0.65527333 0.00269735
v -0.02432300 0.07610120 -0.00458007
v -0.02437511 -0.65524569 -0.00455424
v -0.02432421 0.07621892 -0.00450447
v -0.02420000 -0.65518875 -0.00457904
v -0.02341725 0.07616309 -0.01188839
v -0.02324564 -0.65538154 -0.01185302
v -0.02325024 0.07612266 -0.01180815
v -0.02324200 -0.65535852 -0.01190812
v -0.02056601 0.07618081 -0.01863414
v -0.02052206 -0.65536580 -0.01870959
v -0.02043050 0.07607385 -0.01866122
v -0.02054412 -0.65522520 -0.01874246
v -0.01595872 0.07619635 -0.02443868
v -0.01610951 -0.65531460 -0.02455405
v -0.01605697 0.07616598 -0.02445222
v -0.01599987 -0.65528270 -0.02452189
v -0.01015304 -0.65529664 -0.02894304
v -0.01030380 0.07614765 -0.02893776
v -0.01028244 0.07604899 -0.02890141
v -0.01018041 -0.65522058 -0.02889158
v -0.00350395 -0.65535826 -0.03165817
v -0.00348688 0.07612359 -0.03166233
v -0.00341624 0.07606901 -0.03185315
v -0.00340130 -0.65532371 -0.03182586
v 0.00378954 -0.65530978 -0.03264815
v 0.00390470 0.07603544 -0.03278760
v 0.00391380 0.07603629 -0.03262716
v 0.00394926 -0.65519438 -0.03271254
v 0.01112917 -0.65522652 -0.03165818
v 0.01123039 0.07610019 -0.03169566
v 0.01105620 0.07619857 -0.03172367
v 0.01113220 -0.65536073 -0.03172102
v 0.01788444 -0.65527550 -0.02885497
v 0.01785637 0.07614495 -0.02904586
v 0.01799785 0.07611605 -0.02884643
v 0.01794398 -0.65519682 -0.02900510
v 0.02368002 -0.65520687 -0.02441251
v 0.02375590 0.07607746 -0.02441854
v 0.02381201 0.07609385 -0.02444614
v 0.02371183 -0.65523169 -0.02442351
v 0.02826888 0.07609719 -0.01855690
v 0.02814606 -0.65525721 -0.01872008
v 0.02823564 -0.65538232 -0.01858141
v 0.02817144 0.07622307 -0.01869708
v 0.03110912 0.07612447 -0.01192810
v 0.03107253 -0.65527788 -0.01190495
v 0.03100557 -0.65538071 -0.01177856
v 0.03110867 0.07605900 -0.01193980
v 0.03205193 0.07622366 -0.00459274
v 0.03202080 -0.65519932 -0.00458678
v 0.03203466 -0.65522506 -0.00459322
v 0.03207286 0.07617188 -0.00462017
v 0.03094859 0.07616670 0.00277927
v 0.03109530 -0.65521220 0.00269081
v 0.03097334 -0.65519108 0.00260609
v 0.03096922 0.07606056 0.00268005
v 0.02815226 0.07622466 0.00943106
v 0.02818289 -0.65536421 0.00942887
v 0.02814878 -0.65519529 0.00951697
v 0.02816660 0.07621966 0.00941169
v 0.02367234 0.07616356 0.01536982
v 0.02380233 -0.65527177 0.01530852
v 0.02384229 -0.65525676 0.01531288
v 0.02371075 0.07621156 0.01534118
v 0.01799375 -0.65518924 0.01978293
v 0.01785431 0.07604210 0.01972087
v 0.01794753 0.07621209 0.01972601
v 0.01795785 -0.65527906 0.01976366
v 0.01117620 -0.65529323 0.02257879
v 0.01113468 0.07614184 0.02258224
v 0.01115104 0.07614690 0.02263712
v 0.01107715 -0.65534052 0.02265292
vn 0 -1 0
vn 0 1 0
vn 0 0 1
vn -0.25881900959356163 0 0.9659258358036645
vn 0.25881900959356163 0 -0.9659258358036645
vn 0 0 -1
vn -0.5000000016387101 0 0.866025402838329
vn 0.5000000016387101 0 -0.866025402838329
vn -0.7071067811865476 0 0.7071067811865476
vn 0.7071067811865476 0 -0.7071067811865476
vn -0.866025402838329 0 0.5000000016387101
vn 0.866025402838329 0 -0.5000000016387101
vn -0.9659258358036645 0 0.25881900959356163
vn 0.9659258358036645 0 -0.25881900959356163
vn -1 0 0
vn 1 0 0
vn -0.9659258358036645 0 -0.25881900959356163
vn 0.9659258358036645 0 0.25881900959356163
vn -0.866025402838329 0 -0.5000000016387101
vn 0.866025402838329 0 0.5000000016387101
vn -0.7071067811865476 0 -0.7071067811865476
vn 0.7071067811865476 0 0.7071067811865476
vn -0.5000000016387101 0 -0.866025402838329
vn 0.5000000016387101 0 0.866025402838329
vn -0.25881900959356163 0 -0.9659258358036645
vn 0.25881900959356163 0 0.9659258358036645
usemtl material_0_0
f 1//1 2//1 3//1
f 2//1 1//1 4//1
f 4//1 1//1 5//1
f 5//1 1//1 6//1
f 5//1 6//1 7//1
f 7//1 6//1 8//1
f 8//1 6//1 9//1
f 8//1 9//1 10//1
f 10//1 9//1 11//1
f 10//1 11//1 12//1
f 12//1 11//1 13//1
f 13//1 11//1 14//1
f 13//1 14//1 15//1
f 15//1 14//1 16//1
f 15//1 16//1 17//1
f 17//1 16//1 18//1
f 17//1 18//1 19//1
f 19//1 18//1 20//1
f 20//1 18//1 21//1
f 20//1 21//1 22//1
f 22//1 21//1 23//1
f 23//1 21//1 24//1
f 24//1 21//1 25//1
f 24//1 25//1 26//1
f 27//1 28//1 29//1
f 28//1 27//1 30//1
f 30//1 27//1 3//1
f 30//1 3//1 31//1
f 31//1 3//1 2//1
f 31//1 2//1 32//1
f 31//1 32//1 33//1
f 31//1 33//1 34//1
f 34//1 33//1 35//1
f 34//1 35//1 36//1
f 34//1 36//1 37//1
f 37//1 36//1 38//1
f 37//1 38//1 39//1
f 39//1 38//1 40//1
f 39//1 40//1 41//1
f 39//1 41//1 42//1
f 42//1 41//1 43//1
f 42//1 43//1 44//1
f 44//1 43//1 45//1
f 44//1 45//1 46//1
f 46//1 45//1 47//1
f 46//1 47//1 48//1
f 46//1 48//1 23//1
f 23//1 48//1 22//1
f 49//2 50//2 51//2
f 51//2 50//2 52//2
f 50//2 53//2 52//2
f 53//2 54//2 52//2
f 52//2 54//2 55//2
f 54//2 56//2 55//2
f 55//2 56//2 57//2
f 56//2 58//2 57//2
f 57//2 58//2 59//2
f 58//2 60//2 59//2
f 60//2 61//2 59//2
f 59//2 61//2 62//2
f 61//2 63//2 62//2
f 62//2 63//2 64//2
f 63//2 65//2 64//2
f 65//2 66//2 64//2
f 64//2 66//2 67//2
f 66//2 68//2 67//2
f 68//2 69//2 67//2
f 69//2 70//2 67//2
f 67//2 70//2 71//2
f 70//2 72//2 71//2
f 71//2 72//2 73//2
f 74//2 73//2 72//2
f 75//2 76//2 77//2
f 76//2 78//2 77//2
f 77//2 78//2 51//2
f 51//2 78//2 49//2
f 49//2 78//2 79//2
f 78//2 80//2 79//2
f 79//2 80//2 81//2
f 81//2 80//2 82//2
f 80//2 83//2 82//2
f 82//2 83//2 84//2
f 83//2 85//2 84//2
f 84//2 85//2 86//2
f 85//2 87//2 86//2
f 86//2 87//2 88//2
f 88//2 87//2 89//2
f 87//2 90//2 89//2
f 89//2 90//2 91//2
f 90//2 92//2 91//2
f 91//2 92//2 93//2
f 93//2 92//2 94//2
f 92//2 95//2 94//2
f 94//2 95//2 96//2
f 96//2 95//2 69//2
f 70//2 69//2 95//2
f 97//3 98//4 99//3
f 98//4 97//3 100//4
f 101//5 102//6 103//5
f 104//6 103//5 102//6
f 100//4 105//7 98//4
f 105//7 100//4 106//7
f 107//8 101//5 108//8
f 103//5 108//8 101//5
f 106//7 109//9 105//7
f 109//9 106//7 110//9
f 111//10 107//8 112//10
f 108//8 112//10 107//8
f 109//9 113//11 114//11
f 113//11 109//9 110//9
f 111//10 112//10 115//12
f 116//12 115//12 112//10
f 114//11 117//13 118//13
f 117//13 114//11 113//11
f 115//12 116//12 119//14
f 120//14 119//14 116//12
f 118//13 121//15 122//15
f 121//15 118//13 117//13
f 119//14 120//14 123//16
f 124//16 123//16 120//14
f 122//15 125//17 126//17
f 125//17 122//15 121//15
f 123//16 124//16 127//18
f 128//18 127//18 124//16
f 126//17 129//19 130//19
f 129//19 126//17 125//17
f 127//18 128//18 131//20
f 132//20 131//20 128//18
f 130//19 133//21 134//21
f 133//21 130//19 129//19
f 131//20 132//20 135//22
f 136//22 135//22 132//20
f 133//21 137//23 134//21
f 137//23 133//21 138//23
f 139//24 135//22 140//24
f 136//22 140//24 135//22
f 138//23 141//25 137//23
f 141//25 138//23 142//25
f 143//26 139//24 144//26
f 140//24 144//26 139//24
f 142//25 145//6 141//25
f 145//6 142//25 146//6
f 147//3 143//26 148//3
f 144//26 148//3 143//26
f 146//6 149//5 145//6
f 149//5 146//6 150//5
f 151//4 147//3 152//4
f 148//3 152//4 147//3
f 150//5 153//8 149//5
f 153//8 150//5 154//8
f 155//7 151//4 156//7
f 152//4 156//7 151//4
f 154//8 157//10 153//8
f 157//10 154//8 158//10
f 159//9 155//7 160//9
f 156//7 160//9 155//7
f 161//12 157//10 158//10
f 157//10 161//12 162//12
f 163//11 164//11 160//9
f 159//9 160//9 164//11
f 165//14 162//12 161//12
f 162//12 165//14 166//14
f 167//13 168//13 163//11
f 164//11 163//11 168//13
f 169//16 166//14 165//14
f 166//14 169//16 170//16
f 171//15 172//15 167//13
f 168//13 167//13 172//15
f 173//18 170//16 169//16
f 170//16 173//18 174//18
f 175//17 176//17 171//15
f 172//15 171//15 176//17
f 177//20 174//18 173//18
f 174//18 177//20 178//20
f 179//19 180//19 175//17
f 176//17 175//17 180//19
f 181//22 178//20 177//20
f 178//20 181//22 182//22
f 183//21 184//21 179//19
f 180//19 179//19 184//21
f 181//22 185//24 182//22
f 185//24 181//22 186//24
f 187//23 184//21 188//23
f 183//21 188//23 184//21
f 186//24 189//26 185//24
f 189//26 186//24 190//26
f 191//25 187//23 192//25
f 188//23 192//25 187//23
f 190//26 99//3 189//26
f 99//3 190//26 97//3
f 102//6 191//25 104//6
f 192//25 104//6 191//25
