# SSTK version 0.8.0
# 37
mtllib original-37.mtl
o #ID241
v 0.26361952 0.09813846 -0.05171378
v 0.26360905 0.09059483 -0.05238475
v 0.26368248 0.08495406 -0.05168373
v 0.26366408 0.09909348 -0.05483242
v 0.26354378 0.09477760 -0.05412578
v 0.26363441 0.09632342 -0.05558465
v 0.26352809 0.09958887 -0.05818497
v 0.26368794 0.09677818 -0.05752802
v 0.26357328 0.09676215 -0.05876074
v 0.26353732 0.09924166 -0.06092039
v 0.26351176 0.09608410 -0.05981775
v 0.26351584 0.09451344 -0.06110610
v 0.26355615 0.09833856 -0.06348282
v 0.26364643 0.09247397 -0.06213923
v 0.26351748 0.08899821 -0.06257997
v 0.26360604 0.08348085 -0.06278026
v 0.26368860 0.08065375 -0.05192828
v 0.26356802 0.08339120 -0.05164743
v 0.26356135 0.08079208 -0.07287886
v 0.26358859 0.09685419 -0.06605124
v 0.26352460 0.09470872 -0.06815697
v 0.26363950 0.09209310 -0.07001066
v 0.26355012 0.08892004 -0.07138412
v 0.26361694 0.08506082 -0.07237442
v 0.26367628 0.08332999 -0.04138133
v 0.26367653 0.07494797 -0.04110941
v 0.26355895 0.07878085 -0.04091938
v 0.26369174 0.07154890 -0.04192906
v 0.26360325 0.08724420 -0.04222914
v 0.26358434 0.06845534 -0.04298798
v 0.26360169 0.09090552 -0.04390644
v 0.26367230 0.06572469 -0.04454430
v 0.26363971 0.09390626 -0.04608524
v 0.26363670 0.06277932 -0.04686019
v 0.26361790 0.09628337 -0.04888457
v 0.26362004 0.06078740 -0.04993129
v 0.26352812 0.05951700 -0.05327024
v 0.26360199 0.07722356 -0.05236560
v 0.26354876 0.07394156 -0.05308793
v 0.26360536 0.07118759 -0.05433457
v 0.26357236 0.05918910 -0.05736208
v 0.26355208 0.06873804 -0.05600114
v 0.26358076 0.06619804 -0.05900128
v 0.26358383 0.05980658 -0.06195371
v 0.26361677 0.06554133 -0.06072800
v 0.26367625 0.06530562 -0.06270895
v 0.26362710 0.06175398 -0.06603552
v 0.26368463 0.06577530 -0.06498727
v 0.26364980 0.06676536 -0.06703687
v 0.26368229 0.06541368 -0.06944772
v 0.26365677 0.06855733 -0.06909403
v 0.26357157 0.07169765 -0.07143104
v 0.26352929 0.07071999 -0.07273544
v 0.26379873 0.08068223 -0.07276033
v 0.26365200 0.08070186 -0.05191154
v 0.26356086 0.08078571 -0.07271356
v 0.26378951 0.08071880 -0.05188659
v 0.26361714 0.08064115 -0.05189917
v 0.26367149 0.07716776 -0.05240407
v 0.26363570 0.07705020 -0.05224508
v 0.26367636 0.08075690 -0.05194996
v 0.26377554 0.07395479 -0.05303734
v 0.26362682 0.07395837 -0.05311729
v 0.26371351 0.07112708 -0.05431162
v 0.26351904 0.07112339 -0.05437816
v 0.26369852 0.06875767 -0.05599202
v 0.26360165 0.06882310 -0.05591681
v 0.26366870 0.06617655 -0.05900726
v 0.26375841 0.06628275 -0.05895437
v 0.26359102 0.06558829 -0.06080070
v 0.26377983 0.06553898 -0.06070969
v 0.26363831 0.06530727 -0.06263852
v 0.26381021 0.06533564 -0.06268551
v 0.26351360 0.06578787 -0.06492665
v 0.26379524 0.06574743 -0.06494440
v 0.26369579 0.06666495 -0.06721176
v 0.26378215 0.06669523 -0.06715366
v 0.26355521 0.06865127 -0.06924489
v 0.26373748 0.06857596 -0.06929112
v 0.26371459 0.07161508 -0.07142741
v 0.26367879 0.07155752 -0.07130608
v 0.26369813 0.07162301 -0.07142282
v 0.26353271 0.07080318 -0.07268938
v 0.26367667 0.07167054 -0.07135237
v 0.26372858 0.07083616 -0.07274224
v 0.26357066 0.07068373 -0.07286743
v 0.26367827 0.06544206 -0.06954726
v 0.26370129 0.06543769 -0.06959972
v 0.26367412 0.07075472 -0.07284182
v 0.26358004 0.06185740 -0.06604752
v 0.26369231 0.06175123 -0.06587043
v 0.26352305 0.05981050 -0.06188599
v 0.26378736 0.05981447 -0.06201169
v 0.26359293 0.05921681 -0.05738046
v 0.26365471 0.05924880 -0.05730610
v 0.26367121 0.05967980 -0.05329862
v 0.26377022 0.05969965 -0.05338501
v 0.26359020 0.06086901 -0.04982521
v 0.26368412 0.06074908 -0.04984099
v 0.26370140 0.06283207 -0.04700565
v 0.26377360 0.06286780 -0.04699602
v 0.26370822 0.06571487 -0.04456727
v 0.26355554 0.06576049 -0.04455020
v 0.26376195 0.06857038 -0.04299397
v 0.26366971 0.06846103 -0.04287835
v 0.26365100 0.07150802 -0.04188623
v 0.26366197 0.07165455 -0.04186304
v 0.26374005 0.07503885 -0.04129340
v 0.26353134 0.07495198 -0.04109679
v 0.26377502 0.07880274 -0.04093822
v 0.26369436 0.07867095 -0.04098503
v 0.26364259 0.08318800 -0.04138991
v 0.26369463 0.08330335 -0.04123469
v 0.26379000 0.08731960 -0.04224974
v 0.26359905 0.08718098 -0.04218232
v 0.26374040 0.09071753 -0.04388871
v 0.26362095 0.09074447 -0.04395562
v 0.26364918 0.09394164 -0.04621217
v 0.26361242 0.09396920 -0.04616730
v 0.26352818 0.09636552 -0.04886987
v 0.26372531 0.09629156 -0.04881284
v 0.26365727 0.09809237 -0.05160978
v 0.26365511 0.09812376 -0.05169941
v 0.26350312 0.09911496 -0.05489576
v 0.26375571 0.09906634 -0.05477708
v 0.26368918 0.09960442 -0.05821035
v 0.26377165 0.09955102 -0.05827634
v 0.26354567 0.09929147 -0.06096845
v 0.26377252 0.09919645 -0.06102141
v 0.26355025 0.09834174 -0.06354836
v 0.26363711 0.09840491 -0.06354284
v 0.26363060 0.09687172 -0.06603654
v 0.26365026 0.09686040 -0.06600902
v 0.26364949 0.09480218 -0.06830697
v 0.26373793 0.09469393 -0.06812278
v 0.26380741 0.09205933 -0.07013898
v 0.26368859 0.09209874 -0.07006162
v 0.26371302 0.08896937 -0.07154397
v 0.26361745 0.08884594 -0.07155676
v 0.26379536 0.08509976 -0.07229572
v 0.26357636 0.08514066 -0.07241742
v 0.26374478 0.08064458 -0.07281559
v 0.26363003 0.08074140 -0.07269719
v 0.26378370 0.08066501 -0.05186223
v 0.26365690 0.08353617 -0.06267997
v 0.26366880 0.08352496 -0.05166238
v 0.26380658 0.08068521 -0.07277736
v 0.26366473 0.09841491 -0.06367209
v 0.26382919 0.09691016 -0.06603695
v 0.26378440 0.09485256 -0.06825581
v 0.26369830 0.09214823 -0.07006361
v 0.26363832 0.08881452 -0.07140677
v 0.26367921 0.08511851 -0.07247479
v 0.26370007 0.09815426 -0.05179043
v 0.26371197 0.09050300 -0.05236979
v 0.26369157 0.09919423 -0.05487132
v 0.26368142 0.08494660 -0.05171724
v 0.26371305 0.09483340 -0.05401826
v 0.26365749 0.09625063 -0.05557954
v 0.26373119 0.09951402 -0.05810744
v 0.26380253 0.09684386 -0.05756204
v 0.26364586 0.09662028 -0.05876397
v 0.26371146 0.09928380 -0.06097554
v 0.26382923 0.09613838 -0.05975132
v 0.26371558 0.09450642 -0.06106632
v 0.26375799 0.09248931 -0.06216019
v 0.26378891 0.08887215 -0.06251386
v 0.26370225 0.07498169 -0.04127512
v 0.26370450 0.08323280 -0.04129817
v 0.26365869 0.07870466 -0.04100902
v 0.26370107 0.07160869 -0.04186102
v 0.26382543 0.08724784 -0.04223941
v 0.26366300 0.06849935 -0.04289858
v 0.26368604 0.09077777 -0.04391138
v 0.26373041 0.06574339 -0.04452366
v 0.26365095 0.09382017 -0.04615980
v 0.26381830 0.06288986 -0.04695704
v 0.26372416 0.09640167 -0.04878306
v 0.26378172 0.06092014 -0.04994113
v 0.26372633 0.05954354 -0.05332797
v 0.26364072 0.07720443 -0.05227022
v 0.26376437 0.07386395 -0.05308986
v 0.26370324 0.07106062 -0.05437769
v 0.26366734 0.05924472 -0.05726963
v 0.26376257 0.06866995 -0.05594287
v 0.26366109 0.06617040 -0.05910704
v 0.26375060 0.05986460 -0.06187483
v 0.26371161 0.06560847 -0.06073190
v 0.26380143 0.06546414 -0.06279099
v 0.26381487 0.06179809 -0.06604668
v 0.26369780 0.06573947 -0.06494662
v 0.26368921 0.06683308 -0.06710213
v 0.26382176 0.06541025 -0.06945746
v 0.26373245 0.06859214 -0.06919899
v 0.26371152 0.07172607 -0.07138776
v 0.26371006 0.07068615 -0.07285760
vn -1 0 0
vn 0 -1 0
vn 0 0.10787740053979727 -0.9941642049745989
vn 0 0.1761716917973461 -0.9843594541676638
vn 0 0.3221180081778921 -0.9466995240346894
vn 0 0.4819996152846613 -0.87617142778422
vn 0 0.6744995019930317 -0.7382753021814779
vn 0 0.8698814822288045 -0.49326078992295574
vn 0 0.9741302947667285 -0.22598709878594064
vn 0 0.9998490811800596 0.017372819672995383
vn 0 0.9557427722811662 0.29420359146739006
vn 0 0.8259808554597887 0.5636981696031268
vn 0 0.6669057127095889 0.7451421142005834
vn 0 0.5931990312275874 0.8050558423802984
vn 0 0.8395701598350779 -0.5432512740109328
vn 0 -0.5172265972328867 -0.855848495421292
vn 0 -0.6186324943900857 -0.785680492875253
vn 0 -0.815640106737118 -0.5785596047788534
vn 0 -0.956168779675366 -0.29281609377580625
vn 0 -0.9998117477446185 -0.019402810926554395
vn 0 -0.9757801287518646 0.21875360644568762
vn 0 -0.8908392171814692 0.4543187087623698
vn 0 -0.7425449452765125 0.6697962408406761
vn 0 -0.5688171214590788 0.8224640310281098
vn 0 -0.4088705885348357 0.9125923744099428
vn 0 -0.26157700284180424 0.9651826104858596
vn 0 -0.12394490023457722 0.9922891018779963
vn 0 0.006245743969712918 0.9999804951509127
vn 0 0.15241559852952374 0.9883164904649153
vn 0 0.32439940073178 0.945920202133807
vn 0 0.5055974893479457 0.8627694818229572
vn 0 0.6676791581053773 0.7444491532883186
vn 0 0.7997405212259572 0.6003458159338116
vn 0 0.9067002970893379 0.42177549864602915
vn 0 0.9769005360327327 0.21369450788206884
vn 0 0.9999999115616092 -0.00042056720486226756
vn 0 0.9764702633743099 -0.21565209191126739
vn 0 0.9047935901462912 -0.42585039536225056
vn 0 0.7955344116251764 -0.6059084088541639
vn 0 0.6578027996500885 -0.7531901995993477
vn 0 0.4893018115980459 -0.8721145206719529
vn 0 0.31398369205742965 -0.9494283759831413
vn 0 0.1619517951540035 -0.9867986704725517
vn 0 0.0929371082342347 -0.9956719810826546
vn 1 0 0
usemtl material_0_0
f 1//1 2//1 3//1
f 2//1 1//1 4//1
f 2//1 4//1 5//1
f 5//1 4//1 6//1
f 6//1 4//1 7//1
f 6//1 7//1 8//1
f 8//1 7//1 9//1
f 9//1 7//1 10//1
f 9//1 10//1 11//1
f 11//1 10//1 12//1
f 12//1 10//1 13//1
f 12//1 13//1 14//1
f 14//1 13//1 15//1
f 15//1 13//1 16//1
f 16//1 17//1 18//1
f 17//1 16//1 19//1
f 19//1 16//1 13//1
f 19//1 13//1 20//1
f 19//1 20//1 21//1
f 19//1 21//1 22//1
f 19//1 22//1 23//1
f 19//1 23//1 24//1
f 25//1 26//1 27//1
f 26//1 25//1 28//1
f 28//1 25//1 29//1
f 28//1 29//1 30//1
f 30//1 29//1 31//1
f 30//1 31//1 32//1
f 32//1 31//1 33//1
f 32//1 33//1 34//1
f 34//1 33//1 35//1
f 34//1 35//1 36//1
f 36//1 35//1 1//1
f 36//1 1//1 18//1
f 36//1 18//1 37//1
f 18//1 1//1 3//1
f 37//1 18//1 17//1
f 37//1 17//1 38//1
f 37//1 38//1 39//1
f 37//1 39//1 40//1
f 37//1 40//1 41//1
f 41//1 40//1 42//1
f 41//1 42//1 43//1
f 41//1 43//1 44//1
f 44//1 43//1 45//1
f 44//1 45//1 46//1
f 44//1 46//1 47//1
f 47//1 46//1 48//1
f 47//1 48//1 49//1
f 47//1 49//1 50//1
f 50//1 49//1 51//1
f 50//1 51//1 52//1
f 50//1 52//1 53//1
f 54//2 55//2 56//2
f 55//2 54//2 57//2
f 58//3 59//4 60//4
f 59//4 58//3 61//3
f 60//4 62//5 63//5
f 62//5 60//4 59//4
f 63//5 64//6 65//6
f 64//6 63//5 62//5
f 65//6 66//7 67//7
f 66//7 65//6 64//6
f 66//7 68//8 67//7
f 68//8 66//7 69//8
f 69//8 70//9 68//8
f 70//9 69//8 71//9
f 71//9 72//10 70//9
f 72//10 71//9 73//10
f 73//10 74//11 72//10
f 74//11 73//10 75//11
f 75//11 76//12 74//11
f 76//12 75//11 77//12
f 77//12 78//13 76//12
f 78//13 77//12 79//13
f 80//14 78//13 79//13
f 78//13 80//14 81//14
f 82//15 83//15 84//15
f 83//15 82//15 85//15
f 86//16 87//17 88//17
f 87//17 86//16 89//16
f 87//17 90//18 88//17
f 90//18 87//17 91//18
f 91//18 92//19 90//18
f 92//19 91//18 93//19
f 93//19 94//20 92//19
f 94//20 93//19 95//20
f 95//20 96//21 94//20
f 96//21 95//20 97//21
f 97//21 98//22 96//21
f 98//22 97//21 99//22
f 99//22 100//23 98//22
f 100//23 99//22 101//23
f 102//24 100//23 101//23
f 100//23 102//24 103//24
f 104//25 103//24 102//24
f 103//24 104//25 105//25
f 106//26 105//25 104//25
f 105//25 106//26 107//26
f 108//27 107//26 106//26
f 107//26 108//27 109//27
f 110//28 109//27 108//27
f 109//27 110//28 111//28
f 112//29 111//28 110//28
f 111//28 112//29 113//29
f 114//30 113//29 112//29
f 113//29 114//30 115//30
f 116//31 115//30 114//30
f 115//30 116//31 117//31
f 118//32 117//31 116//31
f 117//31 118//32 119//32
f 118//32 120//33 119//32
f 120//33 118//32 121//33
f 121//33 122//34 120//33
f 122//34 121//33 123//34
f 123//34 124//35 122//34
f 124//35 123//34 125//35
f 125//35 126//36 124//35
f 126//36 125//35 127//36
f 127//36 128//37 126//36
f 128//37 127//36 129//37
f 129//37 130//38 128//37
f 130//38 129//37 131//38
f 131//38 132//39 130//38
f 132//39 131//38 133//39
f 133//39 134//40 132//39
f 134//40 133//39 135//40
f 134//40 136//41 137//41
f 136//41 134//40 135//40
f 137//41 138//42 139//42
f 138//42 137//41 136//41
f 139//42 140//43 141//43
f 140//43 139//42 138//42
f 141//43 142//44 143//44
f 142//44 141//43 140//43
f 144//45 145//45 146//45
f 145//45 144//45 147//45
f 145//45 147//45 148//45
f 148//45 147//45 149//45
f 149//45 147//45 150//45
f 150//45 147//45 151//45
f 151//45 147//45 152//45
f 152//45 147//45 153//45
f 154//45 155//45 156//45
f 155//45 154//45 157//45
f 157//45 154//45 146//45
f 156//45 155//45 158//45
f 156//45 158//45 159//45
f 156//45 159//45 160//45
f 160//45 159//45 161//45
f 160//45 161//45 162//45
f 160//45 162//45 163//45
f 163//45 162//45 164//45
f 163//45 164//45 165//45
f 163//45 165//45 148//45
f 148//45 165//45 166//45
f 148//45 166//45 167//45
f 148//45 167//45 145//45
f 168//45 169//45 170//45
f 169//45 168//45 171//45
f 169//45 171//45 172//45
f 172//45 171//45 173//45
f 172//45 173//45 174//45
f 174//45 173//45 175//45
f 174//45 175//45 176//45
f 176//45 175//45 177//45
f 176//45 177//45 178//45
f 178//45 177//45 179//45
f 178//45 179//45 154//45
f 154//45 179//45 146//45
f 146//45 179//45 180//45
f 146//45 180//45 144//45
f 144//45 180//45 181//45
f 181//45 180//45 182//45
f 182//45 180//45 183//45
f 183//45 180//45 184//45
f 183//45 184//45 185//45
f 185//45 184//45 186//45
f 186//45 184//45 187//45
f 186//45 187//45 188//45
f 188//45 187//45 189//45
f 189//45 187//45 190//45
f 189//45 190//45 191//45
f 191//45 190//45 192//45
f 192//45 190//45 193//45
f 192//45 193//45 194//45
f 194//45 193//45 195//45
f 195//45 193//45 196//45
