# SSTK version 0.8.0
# 49
mtllib original-49.mtl
o #ID323
v -0.25664878 0.27081334 0.06871892
v -0.25662845 0.27410301 0.05265121
v -0.25666445 0.27172799 0.05095248
v -0.25672870 0.27377523 0.06031730
v -0.25674773 0.27337442 0.06929912
v -0.25665614 0.26803932 0.08620306
v -0.25665015 0.27054332 0.08709795
v -0.25669028 0.26317738 0.10335844
v -0.25673003 0.26541905 0.10437510
v -0.25677708 0.25620818 0.11982405
v -0.25662253 0.25816627 0.12085514
v -0.25664838 0.24744724 0.13532704
v -0.25661152 0.24908033 0.13637855
v -0.25677012 0.23690933 0.14985393
v -0.25665495 0.23807484 0.15043785
v -0.25667726 0.22496540 0.16292950
v -0.25677188 0.22538099 0.16324181
v -0.25666695 0.21127148 0.17445399
vn -1 0 0
usemtl material_0_0
f 1//1 2//1 3//1
f 2//1 1//1 4//1
f 4//1 1//1 5//1
f 5//1 1//1 6//1
f 5//1 6//1 7//1
f 7//1 6//1 8//1
f 7//1 8//1 9//1
f 9//1 8//1 10//1
f 9//1 10//1 11//1
f 11//1 10//1 12//1
f 11//1 12//1 13//1
f 13//1 12//1 14//1
f 13//1 14//1 15//1
f 15//1 14//1 16//1
f 15//1 16//1 17//1
f 17//1 16//1 18//1
