# SSTK version 0.8.0
# 41
mtllib original-41.mtl
o #ID265
v 0.26368352 0.08893327 -0.06261711
v 0.26362047 0.08346661 -0.06280823
v 0.26377982 0.08344405 -0.06279144
v 0.26368033 0.08897692 -0.06250254
v 0.26366999 0.08334163 -0.05165271
v 0.26359264 0.08352379 -0.06280072
v 0.26368720 0.08334787 -0.05166226
v 0.26371031 0.08336780 -0.06276085
v 0.26370277 0.09242102 -0.06216257
v 0.26365931 0.09249675 -0.06205970
v 0.26360417 0.08481735 -0.05179558
v 0.26379229 0.08340754 -0.05170198
v 0.26356548 0.08335409 -0.05176424
v 0.26365341 0.08478523 -0.05180866
v 0.26372591 0.09447610 -0.06106167
v 0.26350667 0.09461962 -0.06117377
v 0.26367862 0.09055739 -0.05225828
v 0.26370487 0.09045561 -0.05239715
v 0.26369406 0.09619981 -0.05981757
v 0.26361434 0.09611039 -0.05988404
v 0.26362562 0.09479729 -0.05418351
v 0.26372814 0.09473645 -0.05410992
v 0.26369423 0.09672156 -0.05880821
v 0.26373795 0.09672189 -0.05887747
v 0.26354159 0.09624651 -0.05560012
v 0.26367078 0.09641278 -0.05574087
v 0.26356264 0.09684997 -0.05762871
v 0.26370108 0.09692639 -0.05750154
v 0.26350692 0.09639904 -0.05558659
v 0.26379701 0.09641432 -0.05570636
vn 0 -0.09235655994222976 0.9957259993771567
vn 0 -0.03221163904961688 0.9994810705109612
vn 0 1 0
vn 0 -0.2734363959910167 0.961890085897263
vn 0 -0.05302426129286938 -0.9985932243483058
vn 0 0 -1
vn 0 -0.5225810916111707 0.8525895863136479
vn 0 -0.24897460354226594 -0.9685100137793988
vn 0 -0.7725685116278477 0.6349314095562859
vn 0 -0.5546829807224812 -0.8320617710824261
vn 0 -0.9483630831495562 0.3171867943642487
vn 0 -0.7024395792458187 -0.7117433789709302
vn 0 -0.9981502183575548 -0.060795901118132545
vn 0 -0.9654676385324128 -0.26052301039763526
usemtl material_0_0
f 1//1 2//2 3//2
f 2//2 1//1 4//1
f 5//3 6//3 7//3
f 6//3 5//3 8//3
f 9//4 4//1 1//1
f 4//1 9//4 10//4
f 11//5 12//6 13//6
f 12//6 11//5 14//5
f 15//7 10//4 9//4
f 10//4 15//7 16//7
f 17//8 14//5 11//5
f 14//5 17//8 18//8
f 19//9 16//7 15//7
f 16//7 19//9 20//9
f 21//10 18//8 17//8
f 18//8 21//10 22//10
f 19//9 23//11 20//9
f 23//11 19//9 24//11
f 25//12 22//10 21//10
f 22//10 25//12 26//12
f 24//11 27//13 23//11
f 27//13 24//11 28//13
f 28//13 29//14 27//13
f 29//14 28//13 30//14
