# SSTK version 0.8.0
# 10
mtllib original-10.mtl
o #ID51
v -0.25547539 -0.01077359 0.06034031
v -0.25492044 -0.01084717 -0.07624807
v -0.26417961 -0.01067942 -0.00811874
v -0.22829558 -0.01078752 -0.13983915
v -0.22931784 -0.01069244 0.12394211
v -0.18615337 -0.01070525 -0.19412005
v -0.18782437 -0.01067249 0.17872015
v -0.13140202 -0.01081811 -0.23577776
v -0.13331935 -0.01071248 0.22092420
v -0.06752930 -0.01084861 -0.26193193
v -0.06985085 -0.01072765 0.24751303
v 0.00078810 -0.01070033 -0.27070224
v -0.00158225 -0.01074777 0.25688086
v 0.06891201 -0.01082747 -0.26142360
v 0.06669882 -0.01075606 0.24827282
v 0.13244970 -0.01067724 -0.23463542
v 0.13050064 -0.01071768 0.22217962
v 0.18683971 -0.01085055 -0.19252648
v 0.18528345 -0.01078226 0.18035932
v 0.22860392 -0.01081884 -0.13767577
v 0.22740648 -0.01085310 0.12595340
v 0.25453881 -0.01073198 -0.07397669
v 0.25408361 -0.01078369 0.06242986
v 0.26322698 -0.01077274 -0.00562231
vn 0 1 0
usemtl material_0_0
f 1//1 2//1 3//1
f 2//1 1//1 4//1
f 4//1 1//1 5//1
f 4//1 5//1 6//1
f 6//1 5//1 7//1
f 6//1 7//1 8//1
f 8//1 7//1 9//1
f 8//1 9//1 10//1
f 10//1 9//1 11//1
f 10//1 11//1 12//1
f 12//1 11//1 13//1
f 12//1 13//1 14//1
f 14//1 13//1 15//1
f 14//1 15//1 16//1
f 16//1 15//1 17//1
f 16//1 17//1 18//1
f 18//1 17//1 19//1
f 18//1 19//1 20//1
f 20//1 19//1 21//1
f 20//1 21//1 22//1
f 22//1 21//1 23//1
f 22//1 23//1 24//1
