# SSTK version 0.8.0
# 36
mtllib original-36.mtl
o #ID179
v 0.01785136 0.84331539 -0.06396203
v -0.00959631 0.84320059 -0.06396114
v 0.00404394 0.84337959 -0.06583832
v -0.02238802 0.84335172 -0.05854216
v 0.03059378 0.84323254 -0.05857723
v 0.04167538 0.84338361 -0.05026813
v -0.03340029 0.84328821 -0.05027485
v 0.04997541 0.84320521 -0.03921694
v 0.00416603 0.84330237 -0.04479916
v 0.01235659 0.84325508 -0.04371910
v 0.02022216 0.84334213 -0.04053742
v 0.02686886 0.84335743 -0.03545103
v 0.05543612 0.84335829 -0.02644027
v 0.03200709 0.84331433 -0.02870385
v 0.03525705 0.84324353 -0.02106902
v 0.05709316 0.84339222 -0.01268749
v 0.03619168 0.84330804 -0.01258858
v 0.03514745 0.84324750 -0.00435903
v 0.05532019 0.84322995 0.00101678
v 0.03193018 0.84338581 0.00342666
v 0.05004703 0.84332749 0.01388593
v 0.02694023 0.84337016 0.01004908
v 0.02011444 0.84321941 0.01511113
v 0.04156180 0.84332291 0.02476872
v 0.01239471 0.84337192 0.01833165
v 0.00418198 0.84323602 0.01959366
v -0.04178010 0.84320740 -0.03926700
v -0.00416062 0.84321368 -0.04375852
v -0.01191610 0.84338298 -0.04054723
v -0.01866553 0.84330761 -0.03546941
v -0.04715608 0.84337372 -0.02637750
v -0.02385098 0.84320318 -0.02871396
v -0.02706348 0.84327704 -0.02109486
v -0.04896513 0.84338594 -0.01274909
v -0.02800454 0.84322519 -0.01271228
v -0.04712878 0.84321682 0.00105647
v -0.02703056 0.84324176 -0.00444881
v -0.02384222 0.84333534 0.00341686
v -0.04194784 0.84321801 0.01395193
v -0.01876148 0.84320118 0.01011298
v -0.01194205 0.84332596 0.01524840
v -0.03349551 0.84330194 0.02494581
v -0.00424758 0.84333618 0.01850469
v 0.03069134 0.84331916 0.03335445
v -0.02248552 0.84332400 0.03330784
v 0.01774324 0.84337972 0.03865468
v -0.00963596 0.84339334 0.03850043
v 0.00408666 0.84329893 0.04046589
v 0.00406288 0.84326244 0.04031539
v 0.01786995 0.84332547 0.03850176
v -0.00956540 0.84335997 0.03850774
v -0.02248927 0.84329076 0.03319430
v 0.03059690 0.84331908 0.03325133
v -0.03347318 0.84331345 0.02482889
v 0.04171222 0.84337265 0.02481806
v 0.00414245 0.84336192 0.01944175
v -0.00430952 0.84338298 0.01844758
v -0.01202056 0.84335599 0.01528964
v -0.04186862 0.84335032 0.01386232
v -0.01867466 0.84324040 0.01004995
v -0.02373103 0.84328778 0.00331637
v -0.04718643 0.84329261 0.00099610
v -0.02706413 0.84322923 -0.00440609
v -0.02815346 0.84337275 -0.01258555
v -0.04897504 0.84328455 -0.01264695
v -0.02698338 0.84337818 -0.02093363
v -0.04726550 0.84321121 -0.02641958
v -0.02387340 0.84334151 -0.02878707
v -0.01867102 0.84332925 -0.03549460
v -0.04183055 0.84327883 -0.03912123
v -0.01202454 0.84334521 -0.04049628
v -0.00433090 0.84332957 -0.04381587
v 0.00408916 0.84320466 -0.04490462
v -0.03346784 0.84326942 -0.05014832
v 0.01240455 0.84335580 0.01847320
v 0.02012519 0.84324048 0.01512152
v 0.05008768 0.84337673 0.01378700
v 0.02683594 0.84337037 0.01014341
v 0.03186637 0.84337622 0.00335956
v 0.05527225 0.84331939 0.00100874
v 0.03522860 0.84338021 -0.00443072
v 0.05707078 0.84338175 -0.01265283
v 0.03620464 0.84327675 -0.01259967
v 0.03527751 0.84332213 -0.02104445
v 0.05543767 0.84332223 -0.02640147
v 0.03193241 0.84327038 -0.02884475
v 0.02691708 0.84328828 -0.03540188
v 0.05014173 0.84337662 -0.03930243
v 0.02015995 0.84337339 -0.04058326
v 0.01236537 0.84325454 -0.04368804
v 0.04160146 0.84335263 -0.05025764
v -0.02235471 0.84336834 -0.05873034
v 0.03064639 0.84336630 -0.05873971
v 0.01787332 0.84324744 -0.06384636
v -0.00973323 0.84330665 -0.06386261
v 0.00407401 0.84332450 -0.06579542
v 0.04998439 0.81901424 -0.03925241
v 0.05527582 0.84333800 -0.02643977
v 0.05001049 0.84337755 -0.03918212
v 0.05526385 0.81892487 -0.02638249
v 0.05530499 0.81901062 -0.02636504
v 0.05007958 0.81886139 -0.03916403
v 0.05538379 0.84323878 -0.02650580
v 0.05006665 0.84335254 -0.03922438
v 0.05711338 0.81889592 -0.01262553
v 0.05707020 0.84321299 -0.01271840
v 0.05711983 0.81889832 -0.01265368
v 0.05720100 0.84321477 -0.01264530
v 0.05531776 0.84330824 0.00108812
v 0.05533738 0.81889095 0.00104242
v 0.05529937 0.81901299 0.00104238
v 0.05545380 0.84335510 0.00105183
v 0.04998275 0.84324144 0.01380188
v 0.05009760 0.81889604 0.01376036
v 0.05012864 0.81891034 0.01377475
v 0.05015363 0.84332841 0.01390596
v 0.04164163 0.81885786 0.02485617
v 0.04165868 0.84323678 0.02487606
v 0.04162821 0.81888818 0.02488826
v 0.04168851 0.84338854 0.02483241
v 0.03066561 0.81901305 0.03320775
v 0.03068848 0.84339628 0.03330934
v 0.03066995 0.84321472 0.03318522
v 0.03070284 0.81893378 0.03322997
v 0.01773966 0.81892982 0.03853155
v 0.01784195 0.84328736 0.03864674
v 0.01787192 0.84326487 0.03865876
v 0.01779120 0.81895768 0.03857671
v 0.00412071 0.81893227 0.04038871
v 0.00414999 0.84329459 0.04042915
v 0.00419202 0.84327867 0.04033352
v 0.00415368 0.81904284 0.04034146
v -0.00954814 0.81895033 0.03856249
v -0.00970419 0.84327687 0.03856140
v -0.00959046 0.84320730 0.03865223
v -0.00954750 0.81899070 0.03857569
v -0.02239355 0.81902713 0.03335325
v -0.02238416 0.84321108 0.03328059
v -0.02240748 0.84323136 0.03330422
v -0.02252682 0.81893890 0.03330821
v -0.03348314 0.81888759 0.02490385
v -0.03349170 0.84322897 0.02494042
v -0.03346138 0.84331712 0.02475029
v -0.03351539 0.81889736 0.02490451
v -0.04190152 0.81895187 0.01390183
v -0.04177688 0.84338979 0.01382033
v -0.04186242 0.81887349 0.01376076
v -0.04192779 0.84325357 0.01377992
v -0.04720798 0.84337649 0.00102612
v -0.04710278 0.81885783 0.00097889
v -0.04708001 0.81903947 0.00107022
v -0.04723923 0.84329831 0.00112843
v -0.04892670 0.84322937 -0.01259881
v -0.04890432 0.81887570 -0.01273712
v -0.04900345 0.81890974 -0.01275394
v -0.04892827 0.84331159 -0.01268560
v -0.04723875 0.81901513 -0.02633808
v -0.04723827 0.84331312 -0.02649538
v -0.04721782 0.81897727 -0.02641944
v -0.04714848 0.84338491 -0.02636306
v -0.04177601 0.84335663 -0.03929275
v -0.04179986 0.81900210 -0.03920977
v -0.04194493 0.81894376 -0.03914743
v -0.04182327 0.84326575 -0.03928562
v -0.03334481 0.84320159 -0.05028945
v -0.03353138 0.81895720 -0.05030208
v -0.03342385 0.81888495 -0.05019695
v -0.03333491 0.84336764 -0.05012908
v -0.02243497 0.81885924 -0.05866428
v -0.02249764 0.84330216 -0.05868714
v -0.02245947 0.81887693 -0.05861273
v -0.02237169 0.84333904 -0.05860233
v -0.00958996 0.81895486 -0.06395000
v -0.00974069 0.84334469 -0.06396667
v -0.00966567 0.81895648 -0.06388280
v -0.00969365 0.84336577 -0.06389471
v 0.00402982 0.81899968 -0.06579905
v 0.00416263 0.84336221 -0.06571665
v 0.00413910 0.81897836 -0.06568314
v 0.00402716 0.84332298 -0.06571508
v 0.01773375 0.81902134 -0.06400324
v 0.01778598 0.84323785 -0.06391006
v 0.01788450 0.81889542 -0.06387114
v 0.01780204 0.84332343 -0.06395318
v 0.03067596 0.81887620 -0.05856195
v 0.03066621 0.84337754 -0.05864447
v 0.03067243 0.81903317 -0.05857200
v 0.03062844 0.84320610 -0.05873905
v 0.04171826 0.81895853 -0.05029728
v 0.04153446 0.84331575 -0.05017947
v 0.04154047 0.81886569 -0.05024100
v 0.04153047 0.84330569 -0.05022984
vn 0 -1 0
vn 0 1 0
vn -0.8660254028383453 0 0.5000000016386816
vn -0.965925835803673 0 0.25881900959353
vn 0.965925835803673 0 -0.25881900959353
vn 0.8660254028383453 0 -0.5000000016386816
vn -1 0 0
vn 1 0 0
vn -0.9659258358036561 0 -0.2588190095935933
vn 0.9659258358036561 0 0.2588190095935933
vn -0.8660254028383126 0 -0.5000000016387384
vn 0.8660254028383126 0 0.5000000016387384
vn -0.7071067811865245 0 -0.7071067811865708
vn 0.7071067811865245 0 0.7071067811865708
vn -0.5000000016386817 0 -0.8660254028383453
vn 0.5000000016386817 0 0.8660254028383453
vn -0.2588190095935301 0 -0.965925835803673
vn 0.2588190095935301 0 0.965925835803673
vn 0 0 -1
vn 0 0 1
vn 0.25881900959359316 0 -0.9659258358036561
vn -0.25881900959359316 0 0.9659258358036561
vn 0.5000000016387384 0 -0.8660254028383126
vn -0.5000000016387384 0 0.8660254028383126
vn 0.7071067811865707 0 -0.7071067811865244
vn -0.7071067811865707 0 0.7071067811865244
usemtl material_0_0
f 1//1 2//1 3//1
f 2//1 1//1 4//1
f 4//1 1//1 5//1
f 4//1 5//1 6//1
f 4//1 6//1 7//1
f 7//1 6//1 8//1
f 7//1 8//1 9//1
f 9//1 8//1 10//1
f 10//1 8//1 11//1
f 11//1 8//1 12//1
f 12//1 8//1 13//1
f 12//1 13//1 14//1
f 14//1 13//1 15//1
f 15//1 13//1 16//1
f 15//1 16//1 17//1
f 17//1 16//1 18//1
f 18//1 16//1 19//1
f 18//1 19//1 20//1
f 20//1 19//1 21//1
f 20//1 21//1 22//1
f 22//1 21//1 23//1
f 23//1 21//1 24//1
f 23//1 24//1 25//1
f 25//1 24//1 26//1
f 9//1 27//1 7//1
f 27//1 9//1 28//1
f 27//1 28//1 29//1
f 27//1 29//1 30//1
f 27//1 30//1 31//1
f 31//1 30//1 32//1
f 31//1 32//1 33//1
f 31//1 33//1 34//1
f 34//1 33//1 35//1
f 34//1 35//1 36//1
f 36//1 35//1 37//1
f 36//1 37//1 38//1
f 36//1 38//1 39//1
f 39//1 38//1 40//1
f 39//1 40//1 41//1
f 39//1 41//1 42//1
f 42//1 41//1 43//1
f 42//1 43//1 26//1
f 42//1 26//1 24//1
f 42//1 24//1 44//1
f 42//1 44//1 45//1
f 45//1 44//1 46//1
f 45//1 46//1 47//1
f 47//1 46//1 48//1
f 49//2 50//2 51//2
f 51//2 50//2 52//2
f 50//2 53//2 52//2
f 52//2 53//2 54//2
f 53//2 55//2 54//2
f 55//2 56//2 54//2
f 56//2 57//2 54//2
f 57//2 58//2 54//2
f 54//2 58//2 59//2
f 58//2 60//2 59//2
f 60//2 61//2 59//2
f 59//2 61//2 62//2
f 61//2 63//2 62//2
f 63//2 64//2 62//2
f 62//2 64//2 65//2
f 64//2 66//2 65//2
f 65//2 66//2 67//2
f 66//2 68//2 67//2
f 68//2 69//2 67//2
f 67//2 69//2 70//2
f 69//2 71//2 70//2
f 71//2 72//2 70//2
f 72//2 73//2 70//2
f 74//2 70//2 73//2
f 56//2 55//2 75//2
f 75//2 55//2 76//2
f 55//2 77//2 76//2
f 76//2 77//2 78//2
f 78//2 77//2 79//2
f 77//2 80//2 79//2
f 79//2 80//2 81//2
f 80//2 82//2 81//2
f 81//2 82//2 83//2
f 83//2 82//2 84//2
f 82//2 85//2 84//2
f 84//2 85//2 86//2
f 86//2 85//2 87//2
f 85//2 88//2 87//2
f 87//2 88//2 89//2
f 89//2 88//2 90//2
f 90//2 88//2 73//2
f 73//2 88//2 74//2
f 88//2 91//2 74//2
f 74//2 91//2 92//2
f 91//2 93//2 92//2
f 93//2 94//2 92//2
f 92//2 94//2 95//2
f 96//2 95//2 94//2
f 97//3 98//4 99//3
f 98//4 97//3 100//4
f 101//5 102//6 103//5
f 104//6 103//5 102//6
f 98//4 105//7 106//7
f 105//7 98//4 100//4
f 101//5 103//5 107//8
f 108//8 107//8 103//5
f 105//7 109//9 106//7
f 109//9 105//7 110//9
f 111//10 107//8 112//10
f 108//8 112//10 107//8
f 110//9 113//11 109//9
f 113//11 110//9 114//11
f 115//12 111//10 116//12
f 112//10 116//12 111//10
f 113//11 117//13 118//13
f 117//13 113//11 114//11
f 115//12 116//12 119//14
f 120//14 119//14 116//12
f 121//15 118//13 117//13
f 118//13 121//15 122//15
f 123//16 124//16 120//14
f 119//14 120//14 124//16
f 125//17 122//15 121//15
f 122//15 125//17 126//17
f 127//18 128//18 123//16
f 124//16 123//16 128//18
f 129//19 126//17 125//17
f 126//17 129//19 130//19
f 131//20 132//20 127//18
f 128//18 127//18 132//20
f 133//21 130//19 129//19
f 130//19 133//21 134//21
f 135//22 136//22 131//20
f 132//20 131//20 136//22
f 137//23 134//21 133//21
f 134//21 137//23 138//23
f 139//24 140//24 135//22
f 136//22 135//22 140//24
f 141//25 138//23 137//23
f 138//23 141//25 142//25
f 143//26 144//26 139//24
f 140//24 139//24 144//26
f 142//25 145//6 146//6
f 145//6 142//25 141//25
f 144//26 143//26 147//3
f 148//3 147//3 143//26
f 145//6 149//5 146//6
f 149//5 145//6 150//5
f 151//4 147//3 152//4
f 148//3 152//4 147//3
f 150//5 153//8 149//5
f 153//8 150//5 154//8
f 155//7 151//4 156//7
f 152//4 156//7 151//4
f 153//8 157//10 158//10
f 157//10 153//8 154//8
f 155//7 156//7 159//9
f 160//9 159//9 156//7
f 157//10 161//12 158//10
f 161//12 157//10 162//12
f 163//11 159//9 164//11
f 160//9 164//11 159//9
f 162//12 165//14 161//12
f 165//14 162//12 166//14
f 167//13 163//11 168//13
f 164//11 168//13 163//11
f 165//14 169//16 170//16
f 169//16 165//14 166//14
f 167//13 168//13 171//15
f 172//15 171//15 168//13
f 170//16 173//18 174//18
f 173//18 170//16 169//16
f 171//15 172//15 175//17
f 176//17 175//17 172//15
f 174//18 177//20 178//20
f 177//20 174//18 173//18
f 175//17 176//17 179//19
f 180//19 179//19 176//17
f 178//20 181//22 182//22
f 181//22 178//20 177//20
f 179//19 180//19 183//21
f 184//21 183//21 180//19
f 182//22 185//24 186//24
f 185//24 182//22 181//22
f 183//21 184//21 187//23
f 188//23 187//23 184//21
f 186//24 189//26 190//26
f 189//26 186//24 185//24
f 187//23 188//23 191//25
f 192//25 191//25 188//23
f 189//26 99//3 190//26
f 99//3 189//26 97//3
f 102//6 191//25 104//6
f 192//25 104//6 191//25
