# SSTK version 0.8.0
# 3
mtllib original-3.mtl
o #ID2164
v 0.00408449 0.79207236 -0.10209003
v -0.01602384 0.79202087 -0.10208193
v -0.00590978 0.79201694 -0.10260351
v 0.01415906 0.79213950 -0.10057205
v -0.02605939 0.79204674 -0.10043915
v 0.02392992 0.79204680 -0.09792576
v -0.03579002 0.79204108 -0.09794901
v 0.03350721 0.79207742 -0.09435834
v -0.04525419 0.79203353 -0.09433782
v 0.04250565 0.79205664 -0.08981072
v -0.05431755 0.79221348 -0.08957196
v 0.05096247 0.79208963 -0.08432660
v -0.06294182 0.79216034 -0.08408814
v 0.05881429 0.79203119 -0.07779224
v -0.07070223 0.79206492 -0.07777970
v 0.06617010 0.79213004 -0.07065206
v -0.07785453 0.79212336 -0.07054715
v 0.07245073 0.79208485 -0.06290666
v -0.08430661 0.79206731 -0.06264001
v 0.07802708 0.79210040 -0.05429983
v -0.08981219 0.79201939 -0.05422213
v 0.08257880 0.79205616 -0.04526931
v -0.09448955 0.79216630 -0.04517545
v 0.08621622 0.79202764 -0.03573205
v -0.09799156 0.79208030 -0.03558214
v 0.08891383 0.79206259 -0.02609079
v -0.10071053 0.79217732 -0.02579392
v 0.09059891 0.79206587 -0.01603916
v -0.10227299 0.79221005 -0.01579062
v 0.09113883 0.79208741 -0.00579440
v -0.10268907 0.79211481 -0.00565040
v 0.09048116 0.79204418 0.00425691
v -0.10213817 0.79206660 0.00436802
v 0.08894338 0.79216704 0.01416629
v -0.10066628 0.79210290 0.01443931
v 0.08635339 0.79211608 0.02397685
v -0.09787180 0.79211007 0.02431225
v 0.08278485 0.79206459 0.03362236
v -0.09423368 0.79205486 0.03365064
v 0.07817973 0.79209082 0.04254248
v -0.08968756 0.79219945 0.04280319
v 0.07266658 0.79214123 0.05113233
v -0.08408459 0.79219074 0.05118602
v 0.06628530 0.79205498 0.05899125
v -0.07775915 0.79209193 0.05908732
v 0.05899930 0.79204092 0.06611355
v -0.07056346 0.79213098 0.06637964
v 0.05122094 0.79211211 0.07264794
v -0.06269259 0.79201691 0.07274487
v 0.04266067 0.79219565 0.07806128
v -0.05410895 0.79218201 0.07814960
v 0.03367266 0.79206226 0.08278956
v -0.04517757 0.79218363 0.08269285
v 0.02413084 0.79203144 0.08633839
v -0.03577585 0.79214789 0.08635370
v 0.01448475 0.79215029 0.08906148
v -0.02595770 0.79209324 0.08899342
v 0.00436287 0.79221401 0.09050339
v -0.01589020 0.79207989 0.09061469
v -0.00575682 0.79214410 0.09120907
v -0.00578146 0.79203312 0.09112964
v 0.00436748 0.79209721 0.09048459
v -0.01583386 0.79202407 0.09067543
v -0.02578848 0.79211119 0.08902805
v 0.01432949 0.79204423 0.08896976
v -0.03566905 0.79212710 0.08649836
v 0.02418089 0.79211416 0.08639067
v -0.04507241 0.79207318 0.08269286
v 0.03360281 0.79203882 0.08275917
v -0.05427312 0.79208081 0.07813381
v 0.04263043 0.79210711 0.07800437
v -0.06280296 0.79215902 0.07262435
v 0.05123258 0.79209577 0.07245780
v -0.07063552 0.79220515 0.06624592
v 0.05910130 0.79216474 0.06616865
v -0.07773664 0.79221049 0.05919879
v 0.06626596 0.79202737 0.05891224
v -0.08418473 0.79203693 0.05131857
v 0.07251955 0.79204483 0.05099226
v -0.08961784 0.79219415 0.04272213
v 0.07804625 0.79208776 0.04261292
v -0.09440545 0.79219526 0.03373720
v 0.08274045 0.79203262 0.03349216
v -0.09802352 0.79208190 0.02425423
v 0.08642870 0.79206595 0.02406111
v -0.10055312 0.79204968 0.01449182
v 0.08892912 0.79210752 0.01422523
v -0.10226522 0.79210568 0.00442252
v 0.09055527 0.79212237 0.00431649
v -0.10279790 0.79203104 -0.00565574
v 0.09104579 0.79204927 -0.00597612
v -0.10220563 0.79209984 -0.01573539
v 0.09055363 0.79221034 -0.01591543
v -0.10071508 0.79208887 -0.02573254
v 0.08894746 0.79213513 -0.02595659
v -0.09803487 0.79220237 -0.03564903
v 0.08629354 0.79215585 -0.03579761
v -0.09439270 0.79209962 -0.04513173
v 0.08264753 0.79208426 -0.04522768
v -0.08983952 0.79202166 -0.05421815
v 0.07799378 0.79207962 -0.05422538
v -0.08429517 0.79214690 -0.06257938
v 0.07252904 0.79207133 -0.06289522
v -0.07783151 0.79209594 -0.07059461
v 0.06609338 0.79208845 -0.07075883
v -0.07081991 0.79208318 -0.07778710
v 0.05883617 0.79211384 -0.07783722
v -0.06289738 0.79217893 -0.08410629
v 0.05108417 0.79218634 -0.08432949
v -0.05438584 0.79204078 -0.08972846
v 0.04254893 0.79216622 -0.08977636
v -0.04527569 0.79209771 -0.09432300
v 0.03339225 0.79210365 -0.09442275
v -0.03597937 0.79216109 -0.09793733
v 0.02397259 0.79210283 -0.09802501
v -0.02603556 0.79203456 -0.10055920
v 0.01418879 0.79211239 -0.10053301
v -0.01607055 0.79203427 -0.10218980
v 0.00426071 0.79210800 -0.10211515
v -0.00599295 0.79219294 -0.10259876
v -0.05435436 0.88252943 -0.08973439
v -0.06293070 0.79211558 -0.08406769
v -0.06282075 0.88270396 -0.08417260
v -0.05436305 0.79212862 -0.08964284
v -0.05432121 0.79207092 -0.08958675
v -0.05436696 0.88258446 -0.08954853
v -0.06282290 0.79203711 -0.08410252
v -0.06293331 0.88253452 -0.08404535
v -0.04532175 0.88259161 -0.09426916
v -0.04533429 0.79214697 -0.09432595
v -0.04543488 0.79204576 -0.09427993
v -0.04530737 0.88253182 -0.09416232
v -0.03582843 0.88262975 -0.09781886
v -0.03598209 0.79205347 -0.09784482
v -0.03580307 0.79204259 -0.09795341
v -0.03595774 0.88271684 -0.09790045
v -0.02602917 0.88266961 -0.10047782
v -0.02606038 0.79210734 -0.10052576
v -0.02616009 0.79204830 -0.10050671
v -0.02600591 0.88258421 -0.10044548
v -0.01606656 0.88261951 -0.10205971
v -0.01614033 0.79206454 -0.10209067
v -0.01610165 0.79203626 -0.10212146
v -0.01598627 0.88268452 -0.10204383
v -0.00594763 0.88266249 -0.10265272
v -0.00598877 0.79216254 -0.10262215
v -0.00598602 0.79213502 -0.10269052
v -0.00586935 0.88254434 -0.10263910
v 0.00414151 0.88272025 -0.10221760
v 0.00417202 0.79214272 -0.10209234
v 0.00427072 0.79208185 -0.10217930
v 0.00415904 0.88264429 -0.10222114
v 0.01410311 0.88253317 -0.10049264
v 0.01421940 0.79216892 -0.10062774
v 0.01409961 0.79220643 -0.10056512
v 0.01414427 0.88256524 -0.10056199
v 0.02402576 0.88271292 -0.09795220
v 0.02403390 0.79209270 -0.09790511
v 0.02400001 0.79209843 -0.09787804
v 0.02397841 0.88257658 -0.09796018
v 0.03339007 0.88259695 -0.09430049
v 0.03354180 0.79219468 -0.09439389
v 0.03351991 0.79201734 -0.09438183
v 0.03351344 0.88255687 -0.09424778
v 0.04243145 0.88255812 -0.08970192
v 0.04254824 0.79215237 -0.08977953
v 0.04253862 0.79206471 -0.08983502
v 0.04255651 0.88263806 -0.08972062
v 0.05108052 0.88263007 -0.08420376
v 0.05108807 0.79219643 -0.08432518
v 0.05107846 0.79219244 -0.08416822
v 0.05105850 0.88261835 -0.08416666
v 0.05881968 0.88270711 -0.07792013
v 0.05895410 0.79208670 -0.07793036
v 0.05887895 0.79216104 -0.07793025
v 0.05900490 0.88259601 -0.07787183
v 0.06599689 0.88272131 -0.07074310
v 0.06617618 0.79215408 -0.07077066
v 0.06619083 0.79215094 -0.07072227
v 0.06613710 0.88266702 -0.07077844
v 0.07248490 0.79221181 -0.06290516
v 0.07255351 0.88253849 -0.06281558
v 0.07250220 0.88262206 -0.06280598
v 0.07247986 0.79204253 -0.06286051
v 0.07805548 0.79211621 -0.05440350
v 0.07795929 0.88267061 -0.05429501
v 0.07799462 0.88257877 -0.05436796
v 0.07797305 0.79203489 -0.05438171
v 0.08253970 0.79211805 -0.04531745
v 0.08256451 0.88258908 -0.04527081
v 0.08258901 0.88271268 -0.04527818
v 0.08253972 0.79201671 -0.04523564
v 0.08632111 0.79218281 -0.03589068
v 0.08629001 0.88259678 -0.03588310
v 0.08620729 0.88269576 -0.03578022
v 0.08621653 0.79210886 -0.03579105
v 0.08899698 0.79206677 -0.02602109
v 0.08887574 0.88266683 -0.02596904
v 0.08883613 0.88255586 -0.02608895
v 0.08884416 0.79204598 -0.02598571
v 0.09058059 0.79212704 -0.01611313
v 0.09057732 0.88271766 -0.01608153
v 0.09042988 0.88264408 -0.01595935
v 0.09047113 0.79217224 -0.01611266
v 0.09097410 0.79210818 -0.00597580
v 0.09100985 0.88259960 -0.00593379
v 0.09102568 0.88272038 -0.00579157
v 0.09113108 0.79202258 -0.00593134
v 0.09045036 0.79202182 0.00433628
v 0.09053087 0.88259431 0.00427554
v 0.09050769 0.88261269 0.00414324
v 0.09050268 0.79211242 0.00417473
v 0.08898067 0.79214817 0.01427159
v 0.08905287 0.88253531 0.01435875
v 0.08889457 0.88258710 0.01431164
v 0.08892511 0.79210686 0.01428530
v 0.08641442 0.79206259 0.02404228
v 0.08631886 0.88269808 0.02396761
v 0.08638009 0.88253444 0.02410390
v 0.08626611 0.79204130 0.02415446
v 0.08270768 0.79203721 0.03356568
v 0.08265192 0.88271664 0.03347494
v 0.08268787 0.88260966 0.03350721
v 0.08278473 0.79210012 0.03354772
v 0.07805672 0.79205808 0.04267412
v 0.07816129 0.88270535 0.04260933
v 0.07815021 0.88265443 0.04253316
v 0.07807057 0.79209632 0.04264260
v 0.07264142 0.79219504 0.05111081
v 0.07258878 0.88263109 0.05111245
v 0.07257420 0.88259611 0.05103233
v 0.07252047 0.79212597 0.05101486
v 0.06632287 0.79217074 0.05907271
v 0.06618023 0.88266226 0.05897010
v 0.06615396 0.88264656 0.05895677
v 0.06615421 0.79219920 0.05896673
v 0.05910245 0.79219639 0.06606062
v 0.05899165 0.88262678 0.06615209
v 0.05910815 0.88266815 0.06620705
v 0.05915594 0.79212013 0.06614161
v 0.05118454 0.88257786 0.07259910
v 0.05123449 0.79206737 0.07262707
v 0.05122632 0.88268324 0.07260853
v 0.05116559 0.79203427 0.07247408
v 0.04269614 0.88254387 0.07815898
v 0.04274391 0.79212738 0.07814018
v 0.04263743 0.88263108 0.07813095
v 0.04272982 0.79216168 0.07806031
v 0.03373838 0.88263922 0.08271722
v 0.03369958 0.79218996 0.08273953
v 0.03364599 0.88262128 0.08266240
v 0.03374336 0.79217233 0.08276268
v 0.02427591 0.88254357 0.08639171
v 0.02429054 0.79203461 0.08628281
v 0.02414728 0.88265073 0.08642761
v 0.02428133 0.79217800 0.08636415
v 0.01446986 0.88264622 0.08905656
v 0.01436125 0.79210502 0.08898810
v 0.01445577 0.88254024 0.08904337
v 0.01438999 0.79207780 0.08904515
v 0.00432339 0.88269833 0.09055492
v 0.00436551 0.79210360 0.09063212
v 0.00445878 0.88258057 0.09054281
v 0.00431366 0.79219727 0.09058772
v -0.00579945 0.88270415 0.09111453
v -0.00582557 0.79209408 0.09106967
v -0.00575978 0.88254794 0.09120038
v -0.00566656 0.79201929 0.09101970
v -0.01594341 0.88260626 0.09053417
v -0.01584247 0.79204417 0.09064348
v -0.01591556 0.88262355 0.09065358
v -0.01588497 0.79216321 0.09067869
v -0.02585272 0.88264728 0.08907336
v -0.02595760 0.79217605 0.08900070
v -0.02578694 0.88269918 0.08900191
v -0.02581581 0.79209287 0.08900563
v -0.03563009 0.88254135 0.08644896
v -0.03565482 0.79217202 0.08636640
v -0.03578234 0.88267446 0.08634958
v -0.03574256 0.79203503 0.08637544
v -0.04525498 0.88262905 0.08282965
v -0.04520232 0.79219269 0.08286682
v -0.04509841 0.88271050 0.08276723
v -0.04508649 0.79215129 0.08285013
v -0.05423989 0.88266095 0.07824880
v -0.05424469 0.79208661 0.07827940
v -0.05419609 0.88269701 0.07825098
v -0.05417189 0.79213306 0.07826469
v -0.06280650 0.88258911 0.07260428
v -0.06272379 0.79209802 0.07273295
v -0.06261405 0.88263531 0.07262024
v -0.06267170 0.79220610 0.07269263
v -0.07068108 0.88263812 0.06627381
v -0.07066740 0.79214696 0.06632483
v -0.07057104 0.88268232 0.06639896
v -0.07058893 0.79207739 0.06632361
v -0.07782105 0.88269642 0.05910272
v -0.07781229 0.79208628 0.05921400
v -0.07773935 0.88255916 0.05907142
v -0.07773235 0.79205616 0.05922785
v -0.08422702 0.79219844 0.05132391
v -0.08420431 0.88262742 0.05135755
v -0.08416347 0.88258647 0.05130240
v -0.08424849 0.79218705 0.05127792
v -0.08967185 0.79203790 0.04275860
v -0.08961381 0.88270623 0.04284444
v -0.08969280 0.88264291 0.04284098
v -0.08980383 0.79218291 0.04270611
v -0.09425493 0.79221136 0.03364137
v -0.09432599 0.88266804 0.03369092
v -0.09439340 0.88257445 0.03381126
v -0.09426845 0.79204640 0.03363446
v -0.09793799 0.79211200 0.02424321
v -0.09803386 0.88267447 0.02420116
v -0.09789080 0.88262698 0.02436670
v -0.09791684 0.79209680 0.02421228
v -0.10050126 0.79205931 0.01438613
v -0.10059624 0.88258778 0.01443691
v -0.10066875 0.88258952 0.01450322
v -0.10063880 0.79220743 0.01449301
v -0.10219113 0.79206481 0.00437828
v -0.10220252 0.88263525 0.00439259
v -0.10216134 0.88257858 0.00438364
v -0.10219612 0.79213912 0.00437706
v -0.10282553 0.79208291 -0.00565779
v -0.10282796 0.88259243 -0.00566872
v -0.10277921 0.88262886 -0.00557873
v -0.10264955 0.79206566 -0.00568893
v -0.10226698 0.79211574 -0.01581394
v -0.10220880 0.88269610 -0.01573898
v -0.10226805 0.88271545 -0.01575443
v -0.10225097 0.79221063 -0.01580380
v -0.10063645 0.79214603 -0.02588360
v -0.10057772 0.88269186 -0.02572973
v -0.10066039 0.88254601 -0.02582554
v -0.10056143 0.79217626 -0.02575516
v -0.09808548 0.79214438 -0.03555121
v -0.09793499 0.88256784 -0.03571725
v -0.09810176 0.88257829 -0.03564381
v -0.09800899 0.79211461 -0.03555604
v -0.09431591 0.79205759 -0.04517635
v -0.09431505 0.88253873 -0.04500090
v -0.09438737 0.88263480 -0.04509850
v -0.09440110 0.79211396 -0.04509671
v -0.08985041 0.79220126 -0.05419729
v -0.08986448 0.88265325 -0.05413671
v -0.08987576 0.88268355 -0.05414306
v -0.08982052 0.79202047 -0.05415120
v -0.08437452 0.79214711 -0.06256412
v -0.08420652 0.88260319 -0.06259862
v -0.08429107 0.88260927 -0.06270349
v -0.08420258 0.79218338 -0.06256739
v -0.07785924 0.79213089 -0.07060316
v -0.07789969 0.88269157 -0.07055728
v -0.07792485 0.88260643 -0.07050502
v -0.07789127 0.79215139 -0.07045961
v -0.07076300 0.79211541 -0.07776704
v -0.07074350 0.88270891 -0.07775509
v -0.07071997 0.88259872 -0.07763540
v -0.07079568 0.79214819 -0.07762891
v -0.06005279 0.89032798 -0.08024706
v -0.05439082 0.88263680 -0.08961245
v -0.06278963 0.88252869 -0.08412074
v -0.05202229 0.89028234 -0.08563612
v -0.05199926 0.89042482 -0.08551795
v -0.06014662 0.89033064 -0.08028637
v -0.05436662 0.88257310 -0.08973194
v -0.06296242 0.88252915 -0.08411932
v -0.04536112 0.88258242 -0.09433639
v -0.04346893 0.89034103 -0.09002713
v -0.04344048 0.89040259 -0.08989011
v -0.04537442 0.88257218 -0.09430932
v -0.03583760 0.88265270 -0.09791492
v -0.03443592 0.89025387 -0.09351828
v -0.03440180 0.89024342 -0.09346438
v -0.03580019 0.88265786 -0.09789391
v -0.02606483 0.88268986 -0.10062078
v -0.02509410 0.89026289 -0.09603286
v -0.02501640 0.89024438 -0.09599946
v -0.02616886 0.88254334 -0.10048574
v -0.01616093 0.88264211 -0.10220721
v -0.01563042 0.89038200 -0.09739468
v -0.01563217 0.89023660 -0.09754805
v -0.01612218 0.88262437 -0.10212535
v -0.00588164 0.88267977 -0.10265533
v -0.00586238 0.89024978 -0.09790947
v -0.00590180 0.89035751 -0.09791334
v -0.00601678 0.88271153 -0.10259191
v 0.00412328 0.88268171 -0.10224463
v 0.00368741 0.89041533 -0.09742449
v 0.00374562 0.89026110 -0.09754876
v 0.00424127 0.88272188 -0.10206195
v 0.01329120 0.89040570 -0.09606992
v 0.01416467 0.88272045 -0.10060559
v 0.01418027 0.88258721 -0.10064094
v 0.01315674 0.89023180 -0.09602005
v 0.02254090 0.89040889 -0.09347930
v 0.02396089 0.88255765 -0.09787201
v 0.02403771 0.88268549 -0.09798409
v 0.02256384 0.89028120 -0.09350843
v 0.03151803 0.89041594 -0.08998251
v 0.03340739 0.88270701 -0.09430105
v 0.03341102 0.88260159 -0.09443333
v 0.03151448 0.89033516 -0.09014392
v 0.04020899 0.89024798 -0.08572897
v 0.04260486 0.88260751 -0.08969582
v 0.04243432 0.88258228 -0.08983598
v 0.04027302 0.89024281 -0.08578105
v 0.04819726 0.89024073 -0.08038597
v 0.05094629 0.88261648 -0.08432330
v 0.05096793 0.88266063 -0.08431381
v 0.04830796 0.89040312 -0.08040724
v 0.05575260 0.89030686 -0.07441754
v 0.05897786 0.88268776 -0.07786467
v 0.05897843 0.88272110 -0.07777524
v 0.05581294 0.89042744 -0.07436823
v 0.06265660 0.89036272 -0.06762623
v 0.06612166 0.88262806 -0.07073343
v 0.06614260 0.88266210 -0.07073587
v 0.06259581 0.89028151 -0.06754362
v 0.07250391 0.88252680 -0.06275195
v 0.06862557 0.89041677 -0.06004216
v 0.06862885 0.89023199 -0.06015145
v 0.07244579 0.88257218 -0.06288415
v 0.07807352 0.88265801 -0.05436799
v 0.07396667 0.89032386 -0.05187590
v 0.07402116 0.89031002 -0.05198861
v 0.07801419 0.88262539 -0.05441342
v 0.08257671 0.88257622 -0.04527478
v 0.07838588 0.89042575 -0.04339838
v 0.07839253 0.89026096 -0.04342457
v 0.08253680 0.88261288 -0.04533123
v 0.08636299 0.88262532 -0.03577468
v 0.08188395 0.89025746 -0.03433583
v 0.08179140 0.89026583 -0.03436941
v 0.08621899 0.88271175 -0.03579146
v 0.08892773 0.88263956 -0.02611522
v 0.08427561 0.89024541 -0.02513500
v 0.08434466 0.89026849 -0.02505691
v 0.08898880 0.88264443 -0.02609819
v 0.09053705 0.88263487 -0.01591628
v 0.08587135 0.89028587 -0.01553981
v 0.08583126 0.89034989 -0.01543935
v 0.09055778 0.88259479 -0.01599521
v 0.09110964 0.88272343 -0.00583262
v 0.08628506 0.89033843 -0.00584585
v 0.08630452 0.89033550 -0.00582678
v 0.09101254 0.88268367 -0.00593616
v 0.09061148 0.88260107 0.00425271
v 0.08596763 0.89022948 0.00384866
v 0.08587507 0.89031631 0.00384393
v 0.09058516 0.88257762 0.00427889
v 0.08893000 0.88254437 0.01435748
v 0.08438294 0.89035104 0.01333341
v 0.08432919 0.89028281 0.01332377
v 0.08897623 0.88261113 0.01423226
v 0.08630213 0.88259551 0.02400272
v 0.08197524 0.89037640 0.02266653
v 0.08180323 0.89025213 0.02270796
v 0.08638304 0.88256799 0.02405958
v 0.08264655 0.88261851 0.03350083
v 0.07849596 0.89030450 0.03158238
v 0.07849458 0.89034857 0.03161886
v 0.08276301 0.88267732 0.03359019
v 0.07816819 0.88272022 0.04261436
v 0.07409854 0.89033437 0.04032674
v 0.07408395 0.89026804 0.04033360
v 0.07808689 0.88260075 0.04266128
v 0.07253146 0.88268941 0.05113472
v 0.06875957 0.89028341 0.04840101
v 0.06885368 0.89036697 0.04830358
v 0.07259329 0.88272237 0.05118179
v 0.06628064 0.88268956 0.05906679
v 0.06281054 0.89032367 0.05575501
v 0.06280829 0.89031871 0.05576047
v 0.06618833 0.88272413 0.05903702
v 0.05902821 0.88261644 0.06613591
v 0.05584282 0.89039975 0.06272584
v 0.05589985 0.89032373 0.06268531
v 0.05917363 0.88270728 0.06607282
v 0.05113919 0.88261568 0.07250613
v 0.04852034 0.89027097 0.06870235
v 0.05129796 0.88267198 0.07264391
v 0.04851672 0.89027489 0.06874396
v 0.04276893 0.88271519 0.07800542
v 0.04044707 0.89035303 0.07398803
v 0.04272215 0.88257262 0.07803224
v 0.04033788 0.89032970 0.07401431
v 0.03359138 0.88265391 0.08279700
v 0.03171666 0.89039234 0.07836479
v 0.03358841 0.88261926 0.08275497
v 0.03172029 0.89041791 0.07834724
v 0.02417394 0.88257766 0.08643539
v 0.02280567 0.89031888 0.08181768
v 0.02426658 0.88260316 0.08641705
v 0.02272280 0.89025103 0.08198066
v 0.01438908 0.88261330 0.08896377
v 0.01339426 0.89034956 0.08436046
v 0.01446307 0.88269541 0.08905368
v 0.01340653 0.89031527 0.08440351
v 0.00448598 0.88268791 0.09053659
v 0.00387169 0.89028737 0.08586676
v 0.00445636 0.88261902 0.09060704
v 0.00396347 0.89029358 0.08599502
v -0.00568961 0.88269807 0.09105502
v -0.00574052 0.89024425 0.08643919
v -0.00570785 0.88263202 0.09102100
v -0.00569678 0.89025838 0.08640490
v -0.01533218 0.89041664 0.08586765
v -0.01584341 0.88259842 0.09060437
v -0.01533950 0.89026211 0.08602774
v -0.01593080 0.88261359 0.09051937
v -0.02485983 0.89038988 0.08436666
v -0.02592849 0.88264554 0.08895335
v -0.02490303 0.89031990 0.08442281
v -0.02591642 0.88268735 0.08899439
v -0.03418248 0.89032586 0.08189992
v -0.03566932 0.88257089 0.08650746
v -0.03414538 0.89039453 0.08198075
v -0.03560081 0.88252770 0.08649967
v -0.04332975 0.89041207 0.07842015
v -0.04510484 0.88265019 0.08287783
v -0.04333209 0.89040148 0.07857775
v -0.04524358 0.88253770 0.08274962
v -0.05189881 0.89033671 0.07403940
v -0.05419245 0.88259372 0.07810602
v -0.05176912 0.89040266 0.07409277
v -0.05418048 0.88258332 0.07826344
v -0.05988930 0.89024632 0.06885412
v -0.06280211 0.88261648 0.07258403
v -0.05993213 0.89029274 0.06892184
v -0.06276090 0.88256231 0.07258008
v -0.06750433 0.89027960 0.06287005
v -0.07064579 0.88258528 0.06634576
v -0.06750710 0.89027441 0.06274150
v -0.07066871 0.88268606 0.06620404
v -0.07433087 0.89028539 0.05604922
v -0.07771259 0.88263226 0.05912437
v -0.07421493 0.89024529 0.05601390
v -0.07772186 0.88265197 0.05910559
v -0.08411533 0.88257414 0.05116591
v -0.08042810 0.89036299 0.04858341
v -0.08030904 0.89033596 0.04847741
v -0.08413474 0.88257211 0.05131147
v -0.08974335 0.88253558 0.04277102
v -0.08561896 0.89025841 0.04039392
v -0.08556730 0.89030760 0.04044807
v -0.08971668 0.88259752 0.04284938
v -0.09432695 0.88256900 0.03368263
v -0.09012087 0.89036485 0.03190000
v -0.09009550 0.89032805 0.03190709
v -0.09423674 0.88269433 0.03378681
v -0.09793048 0.88260468 0.02421205
v -0.09351751 0.89028061 0.02273480
v -0.09343038 0.89036553 0.02281580
v -0.09801887 0.88268784 0.02420285
v -0.10060547 0.88258364 0.01446695
v -0.09610180 0.89034483 0.01353858
v -0.09608055 0.89034102 0.01341544
v -0.10069182 0.88261999 0.01451011
v -0.10210261 0.88255747 0.00436921
v -0.09748788 0.89033946 0.00393445
v -0.09747262 0.89039121 0.00396858
v -0.10227836 0.88266996 0.00453244
v -0.10271557 0.88259760 -0.00562231
v -0.09807107 0.89027530 -0.00568826
v -0.09814680 0.89025148 -0.00569980
v -0.10282280 0.88264233 -0.00559006
v -0.10214989 0.88259236 -0.01586258
v -0.09751525 0.89040610 -0.01532769
v -0.09752299 0.89039435 -0.01524795
v -0.10228575 0.88264920 -0.01576193
v -0.10068537 0.88263224 -0.02578179
v -0.09616071 0.89037187 -0.02482644
v -0.09604150 0.89036013 -0.02479601
v -0.10059448 0.88270875 -0.02580534
v -0.09811063 0.88258551 -0.03556513
v -0.09365769 0.89030355 -0.03415312
v -0.09358047 0.89040259 -0.03426755
v -0.09810172 0.88254208 -0.03560531
v -0.09443396 0.88262982 -0.04511641
v -0.09013271 0.89027931 -0.04310077
v -0.09011303 0.89030599 -0.04319670
v -0.09448659 0.88265831 -0.04499862
v -0.08980488 0.88258607 -0.05416519
v -0.08579653 0.89034057 -0.05183319
v -0.08568015 0.89035247 -0.05174884
v -0.08990995 0.88254879 -0.05408254
v -0.08431852 0.88270347 -0.06256205
v -0.08057654 0.89041490 -0.05991058
v -0.08056746 0.89030345 -0.05983150
v -0.08431451 0.88271030 -0.06260876
v -0.07799191 0.88261436 -0.07056165
v -0.07443419 0.89040440 -0.06732252
v -0.07437498 0.89024903 -0.06748486
v -0.07789935 0.88255264 -0.07055791
v -0.07069861 0.88272361 -0.07772571
v -0.06752894 0.89033528 -0.07430385
v -0.06769511 0.89036462 -0.07429643
v -0.07068808 0.88255315 -0.07773980
v -0.07438080 0.89042627 -0.06740741
v -0.00594959 0.89032565 -0.07010501
v -0.06760367 0.89037818 -0.07425746
v -0.01271771 0.89036743 -0.06964302
v -0.01921887 0.89034984 -0.06865782
v -0.02587167 0.89039000 -0.06683973
v -0.08041373 0.89041505 -0.05984618
v -0.03197039 0.89034694 -0.06449742
v -0.03799601 0.89024542 -0.06135860
v -0.04373643 0.89036611 -0.05782946
v -0.08577690 0.89024040 -0.05170249
v -0.04884702 0.89025407 -0.05344375
v -0.05364827 0.89034979 -0.04885309
v -0.09018367 0.89038917 -0.04311226
v -0.05796528 0.89026499 -0.04358594
v -0.06166684 0.89041885 -0.03788835
v -0.09363750 0.89036892 -0.03414745
v -0.06464608 0.89039695 -0.03191162
v -0.09606072 0.89040786 -0.02478949
v -0.06695755 0.89037645 -0.02563923
v -0.06884791 0.89038792 -0.01913712
v -0.09755633 0.89039668 -0.01532961
v -0.06983111 0.89036096 -0.01247051
v -0.09796260 0.89030685 -0.00569250
v -0.07006494 0.89023717 -0.00564549
v -0.06979371 0.89042195 0.00099577
v -0.09757302 0.89037767 0.00391557
v -0.06881454 0.89035698 0.00770999
v -0.09610972 0.89042758 0.01351748
v -0.06704582 0.89029109 0.01426097
v -0.09350336 0.89037788 0.02271840
v -0.06448423 0.89023071 0.02038991
v -0.06150756 0.89032264 0.02646301
v -0.09001788 0.89023963 0.03188023
v -0.05788091 0.89041675 0.03212832
v -0.08563139 0.89034471 0.04038957
v -0.05363103 0.89037718 0.03731950
v -0.04884020 0.89036815 0.04207826
v -0.08031560 0.89038223 0.04850084
v -0.04348948 0.89034082 0.04619614
v -0.03796711 0.89036436 0.05004642
v -0.07437601 0.89029384 0.05593086
v -0.03202758 0.89031914 0.05300175
v -0.02572608 0.89034907 0.05542934
v -0.01915648 0.89025118 0.05719838
v -0.06754650 0.89035757 0.06282029
v -0.01257907 0.89025638 0.05820420
v -0.00581559 0.89038601 0.05853370
v 0.05602912 0.89033370 0.06277981
v 0.04840525 0.89022921 0.06877067
v -0.06002612 0.89040648 0.06890761
v 0.04026203 0.89026390 0.07400904
v -0.05185864 0.89039311 0.07414408
v 0.03181750 0.89035782 0.07837968
v -0.04320660 0.89031884 0.07842640
v 0.02269756 0.89023010 0.08194390
v -0.03417599 0.89042692 0.08202027
v 0.01348362 0.89022910 0.08434253
v -0.02501338 0.89033338 0.08451453
v 0.00396129 0.89024011 0.08597060
v -0.01547492 0.89035534 0.08598476
v -0.00568118 0.89038780 0.08635455
v -0.01553129 0.89039123 -0.09745538
v 0.00366348 0.89023656 -0.09749481
v -0.00587056 0.89036079 -0.09803051
v 0.01317529 0.89026003 -0.09590792
v -0.02508712 0.89042673 -0.09601255
v 0.02256613 0.89034525 -0.09346873
v -0.03441047 0.89024867 -0.09351517
v 0.03157318 0.89034893 -0.09010684
v -0.04335585 0.89041383 -0.08995016
v 0.04009798 0.89024783 -0.08565159
v -0.05199163 0.89028734 -0.08557047
v 0.04828364 0.89031592 -0.08046180
v -0.06012715 0.89031689 -0.08032410
v 0.05578211 0.89039403 -0.07434741
v 0.06263129 0.89030401 -0.06747627
v 0.00079921 0.89027858 -0.06972731
v 0.00739799 0.89025335 -0.06868228
v 0.01404569 0.89040790 -0.06696651
v 0.06870482 0.89034074 -0.06007428
v 0.02017540 0.89041274 -0.06457308
v 0.02626220 0.89036284 -0.06145954
v 0.03195764 0.89041642 -0.05791007
v 0.07390530 0.89029122 -0.05197674
v 0.03714740 0.89040202 -0.05363656
v 0.04186263 0.89040227 -0.04892074
v 0.07839273 0.89025971 -0.04329059
v 0.04616765 0.89035004 -0.04361834
v 0.04989331 0.89031667 -0.03799056
v 0.08173992 0.89025419 -0.03444166
v 0.05294877 0.89038657 -0.03205269
v 0.08434405 0.89028843 -0.02505450
v 0.05534674 0.89037013 -0.02579414
v 0.05711482 0.89035873 -0.01929093
v 0.08575708 0.89027682 -0.01561715
v 0.05802161 0.89029200 -0.01265693
v 0.08637763 0.89025074 -0.00590582
v 0.05845063 0.89034425 -0.00593599
v 0.08595694 0.89026770 0.00372968
v 0.05821726 0.89023665 0.00092837
v 0.05701341 0.89042434 0.00746628
v 0.08439146 0.89026860 0.01337924
v 0.05528173 0.89030231 0.01402805
v 0.08179008 0.89029769 0.02256176
v 0.05288959 0.89039205 0.02038361
v 0.04983962 0.89042114 0.02632035
v 0.07846053 0.89024295 0.03157027
v 0.04617358 0.89026927 0.03197817
v 0.07409153 0.89034858 0.04027434
v 0.04195771 0.89028613 0.03713759
v 0.03732523 0.89033912 0.04196344
v 0.06889509 0.89038481 0.04827786
v 0.03196621 0.89034715 0.04616102
v 0.02636869 0.89035257 0.04988926
v 0.06282753 0.89037305 0.05585324
v 0.02029388 0.89024815 0.05286478
v 0.01407157 0.89035366 0.05539440
v 0.00751834 0.89037581 0.05718126
v 0.00096393 0.89033559 0.05819210
v -0.00584903 0.89030222 0.05849754
v 0.00100330 0.89041528 0.05821366
v 0.05586755 0.89036635 0.06277333
v 0.00764120 0.89033844 0.05705057
v 0.06272666 0.89026998 0.05588375
v 0.01412425 0.89036233 0.05532091
v 0.02030861 0.89041533 0.05294238
v 0.02640277 0.89028569 0.04989313
v 0.06875132 0.89030960 0.04825803
v 0.03206715 0.89025455 0.04614732
v 0.03734074 0.89041625 0.04202495
v 0.07410526 0.89026604 0.04014111
v 0.04205737 0.89027591 0.03729078
v 0.04618193 0.89037858 0.03194228
v 0.07835717 0.89027389 0.03163412
v 0.04992969 0.89029532 0.02621875
v 0.08182667 0.89023306 0.02267760
v 0.05300476 0.89037647 0.02022678
v 0.05534635 0.89027646 0.01396383
v 0.08428880 0.89029274 0.01332360
v 0.05715842 0.89040978 0.00755246
v 0.08587259 0.89027654 0.00374733
v 0.05812805 0.89026641 0.00092735
v 0.05844760 0.89025032 -0.00594055
v 0.08644656 0.89042223 -0.00578885
v 0.05801013 0.89028933 -0.01256490
v 0.08586839 0.89027169 -0.01559529
v 0.05709878 0.89024519 -0.01915252
v 0.08436500 0.89035687 -0.02513086
v 0.05532343 0.89031803 -0.02570345
v 0.05292169 0.89030416 -0.03207626
v 0.08179697 0.89026847 -0.03439892
v 0.04989182 0.89030085 -0.03807922
v 0.07828772 0.89029637 -0.04334811
v 0.04623854 0.89023611 -0.04353936
v 0.04187944 0.89035199 -0.04880691
v 0.07397800 0.89031785 -0.05196125
v 0.03715059 0.89025181 -0.05358792
v 0.03182047 0.89035448 -0.05784446
v 0.06864337 0.89027738 -0.05999856
v 0.02621737 0.89035918 -0.06160235
v 0.02025590 0.89035415 -0.06449222
v 0.01387645 0.89038743 -0.06692894
v 0.06258301 0.89039529 -0.06751639
v 0.00746543 0.89023630 -0.06860361
v 0.00080197 0.89031387 -0.06980979
v -0.00585854 0.89042011 -0.07004067
v -0.06756599 0.89029370 -0.07425439
v 0.05585395 0.89040196 -0.07431048
v -0.06017456 0.89030483 -0.08030367
v 0.04835087 0.89028681 -0.08038602
v -0.05204463 0.89025523 -0.08553325
v 0.04020462 0.89032716 -0.08573096
v -0.04340419 0.89026184 -0.08989112
v 0.03157965 0.89026675 -0.09012928
v -0.03451813 0.89024976 -0.09351835
v 0.02246656 0.89029800 -0.09349568
v -0.02507150 0.89037099 -0.09589789
v 0.01313221 0.89023424 -0.09597205
v -0.01553596 0.89042146 -0.09750068
v 0.00378727 0.89023243 -0.09757860
v -0.00590044 0.89023578 -0.09790531
v -0.00574486 0.89033829 0.08638148
v -0.01541080 0.89036826 0.08598830
v 0.00389563 0.89030021 0.08586237
v -0.02497281 0.89038983 0.08444643
v 0.01333963 0.89036808 0.08430123
v -0.03422313 0.89030530 0.08185756
v 0.02274593 0.89033635 0.08189588
v -0.04322326 0.89023470 0.07841373
v 0.03179107 0.89032798 0.07834906
v -0.05190666 0.89034631 0.07412374
v 0.04044409 0.89041422 0.07398666
v -0.06003824 0.89036079 0.06892143
v 0.04835128 0.89024206 0.06883608
v -0.06754461 0.89028767 0.06283968
v -0.01251444 0.89041519 0.05822516
v -0.01913947 0.89040461 0.05712384
v -0.07437883 0.89028864 0.05592883
v -0.02555274 0.89026187 0.05536247
v -0.03188338 0.89034460 0.05301971
v -0.03795948 0.89029754 0.04987539
v -0.08030040 0.89034108 0.04842396
v -0.04350906 0.89032350 0.04636060
v -0.04885381 0.89039153 0.04209479
v -0.08562723 0.89036537 0.04041309
v -0.05367606 0.89039920 0.03733063
v -0.05777514 0.89039605 0.03210249
v -0.09004178 0.89032660 0.03175705
v -0.06148283 0.89033240 0.02638555
v -0.09351805 0.89035621 0.02276175
v -0.06450043 0.89038352 0.02047334
v -0.06699828 0.89037406 0.01415471
v -0.09602251 0.89028852 0.01342360
v -0.06874030 0.89029305 0.00767395
v -0.09759007 0.89036492 0.00389865
v -0.06983418 0.89036955 0.00093238
v -0.09809967 0.89032954 -0.00559397
v -0.07005972 0.89029108 -0.00579200
v -0.06981030 0.89038492 -0.01247319
v -0.09761695 0.89024228 -0.01538162
v -0.06875033 0.89033789 -0.01909303
v -0.09597676 0.89039784 -0.02478137
v -0.06693536 0.89038582 -0.02548620
v -0.06463695 0.89037267 -0.03188122
v -0.09358236 0.89023970 -0.03411362
v -0.06165217 0.89029913 -0.03791478
v -0.09015711 0.89023651 -0.04316449
v -0.05801076 0.89033706 -0.04352064
v -0.05365330 0.89029527 -0.04880219
v -0.08579028 0.89025155 -0.05177240
v -0.04894079 0.89025024 -0.05360162
v -0.04369943 0.89042619 -0.05769920
v -0.08043215 0.89025607 -0.05996908
v -0.03802101 0.89039808 -0.06143675
v -0.03205091 0.89039334 -0.06447877
v -0.02585383 0.89037018 -0.06699441
v -0.07439774 0.89040127 -0.06746955
v -0.01925623 0.89038308 -0.06874360
v -0.01263134 0.89036843 -0.06981494
vn 0 -1 0
vn 0 1 0
vn -0.5009659097558578 0 -0.865467016854187
vn -0.5886875017776184 0 -0.8083607024409503
vn 0.5009659097558578 0 0.865467016854187
vn 0.5886875017776184 0 0.8083607024409503
vn -0.4077556028072811 0 -0.9130911062863721
vn 0.4077556028072811 0 0.9130911062863721
vn -0.31007788606605363 0 -0.950711157277965
vn 0.31007788606605363 0 0.950711157277965
vn -0.20900280860748408 0 -0.9779150402740432
vn 0.20900280860748408 0 0.9779150402740432
vn -0.10563789612845041 0 -0.9944046635558155
vn 0.10563789612845041 0 0.9944046635558155
vn -0.00111566297506254 0 -0.9999993776478693
vn 0.00111566297506254 0 0.9999993776478693
vn 0.10341879998397785 0 -0.9946378998459058
vn -0.10341879998397785 0 0.9946378998459058
vn 0.2068202892315824 0 -0.9783789490591898
vn -0.2068202892315824 0 0.9783789490591898
vn 0.30795569921117455 0 -0.9514006975629967
vn -0.30795569921117455 0 0.9514006975629967
vn 0.405717185804457 0 -0.9139986680203159
vn -0.405717185804457 0 0.9139986680203159
vn 0.49903349748947723 0 -0.8665826956404218
vn -0.49903349748947723 0 0.8665826956404218
vn 0.5868822802101598 0 -0.8096722726976167
vn -0.5868822802101598 0 0.8096722726976167
vn 0.6683010895196957 0 -0.7438908883342957
vn -0.6683010895196957 0 0.7438908883342957
vn 0.7423978159239396 0 -0.669959314370182
vn -0.7423978159239396 0 0.669959314370182
vn 0.8083607024409503 0 -0.5886875017776184
vn -0.8083607024409503 0 0.5886875017776184
vn 0.865467016854187 0 -0.5009659097558578
vn -0.865467016854187 0 0.5009659097558578
vn 0.9130911062863721 0 -0.4077556028072811
vn -0.9130911062863721 0 0.4077556028072811
vn 0.950711157277965 0 -0.31007788606605363
vn -0.950711157277965 0 0.31007788606605363
vn 0.9779150402740432 0 -0.20900280860748408
vn -0.9779150402740432 0 0.20900280860748408
vn 0.9944046635558155 0 -0.10563789612845041
vn -0.9944046635558155 0 0.10563789612845041
vn 0.9999993776478693 0 -0.00111566297506254
vn -0.9999993776478693 0 0.00111566297506254
vn 0.9946378998459058 0 0.10341879998397785
vn -0.9946378998459058 0 -0.10341879998397785
vn 0.9783789490591898 0 0.2068202892315824
vn -0.9783789490591898 0 -0.2068202892315824
vn 0.9514006975629967 0 0.30795569921117455
vn -0.9514006975629967 0 -0.30795569921117455
vn 0.9139986680203159 0 0.405717185804457
vn -0.9139986680203159 0 -0.405717185804457
vn 0.8665826956404218 0 0.49903349748947723
vn -0.8665826956404218 0 -0.49903349748947723
vn 0.8096722726976167 0 0.5868822802101598
vn -0.8096722726976167 0 -0.5868822802101598
vn 0.7438908883342957 0 0.6683010895196957
vn -0.7438908883342957 0 -0.6683010895196957
vn 0.669959314370182 0 0.7423978159239396
vn -0.669959314370182 0 -0.7423978159239396
vn -0.5030277208702332 0.5194673215522996 -0.6907364286581232
vn -0.42807050371527094 0.5194673045085137 -0.7395332064184901
vn 0.42807050371527094 -0.5194673045085137 0.7395332064184901
vn 0.5030277208702332 -0.5194673215522996 0.6907364286581232
vn -0.34842320804443344 0.5194673119935185 -0.7802275180139789
vn 0.34842320804443344 -0.5194673119935185 0.7802275180139789
vn -0.2649585018555322 0.5194673036378841 -0.812373505689137
vn 0.2649585018555322 -0.5194673036378841 0.812373505689137
vn -0.17859090612840864 0.5194673178257004 -0.8356189286745522
vn 0.17859090612840864 -0.5194673178257004 0.8356189286745522
vn -0.09026660498868969 0.5194673287089705 -0.8497091469601715
vn 0.09026660498868969 -0.5194673287089705 0.8497091469601715
vn -0.0009533228986186917 0.5194672992473226 -0.8544897987618949
vn 0.0009533228986186917 -0.5194672992473226 0.8544897987618949
vn 0.08837040478278274 0.5194673281146088 -0.8499084459987419
vn -0.08837040478278274 -0.5194673281146088 0.8499084459987419
vn 0.17672590871840269 0.5194673256268328 -0.8360153412430664
vn -0.17672590871840269 -0.5194673256268328 0.8360153412430664
vn 0.2631451968891475 0.5194672938589563 -0.8129626903893097
vn -0.2631451968891475 -0.5194672938589563 0.8129626903893097
vn 0.3466814078203959 0.5194673117180788 -0.7810030176177687
vn -0.3466814078203959 -0.5194673117180788 0.7810030176177687
vn 0.4264193102630537 0.5194673125025315 -0.7404865178220187
vn -0.4264193102630537 -0.5194673125025315 0.7404865178220187
vn 0.5014852179509797 0.5194673185946602 -0.691857124765462
vn -0.5014852179509797 -0.5194673185946602 0.691857124765462
vn 0.5710568317359761 0.5194673288689352 -0.6356475353255471
vn -0.5710568317359761 -0.5194673288689352 0.6356475353255471
vn 0.6343718020311887 0.519467301663277 -0.5724737018329978
vn -0.6343718020311887 -0.519467301663277 0.5724737018329978
vn 0.6907364286581232 0.5194673215522996 -0.5030277208702332
vn -0.6907364286581232 -0.5194673215522996 0.5030277208702332
vn 0.7395332064184901 0.5194673045085137 -0.42807050371527094
vn -0.7395332064184901 -0.5194673045085137 0.42807050371527094
vn 0.7802275180139789 0.5194673119935185 -0.34842320804443344
vn -0.7802275180139789 -0.5194673119935185 0.34842320804443344
vn 0.812373505689137 0.5194673036378841 -0.2649585018555322
vn -0.812373505689137 -0.5194673036378841 0.2649585018555322
vn 0.8356189286745522 0.5194673178257004 -0.17859090612840864
vn -0.8356189286745522 -0.5194673178257004 0.17859090612840864
vn 0.8497091469601715 0.5194673287089705 -0.09026660498868969
vn -0.8497091469601715 -0.5194673287089705 0.09026660498868969
vn 0.8544897987618948 0.5194672992473225 -0.0009533228986186914
vn -0.8544897987618948 -0.5194672992473225 0.0009533228986186914
vn 0.8499084459987419 0.5194673281146088 0.08837040478278274
vn -0.8499084459987419 -0.5194673281146088 -0.08837040478278274
vn 0.8360153412430664 0.5194673256268328 0.17672590871840269
vn -0.8360153412430664 -0.5194673256268328 -0.17672590871840269
vn 0.8129626903893097 0.5194672938589563 0.2631451968891475
vn -0.8129626903893097 -0.5194672938589563 -0.2631451968891475
vn 0.7810030176177687 0.5194673117180788 0.3466814078203959
vn -0.7810030176177687 -0.5194673117180788 -0.3466814078203959
vn 0.7404865178220187 0.5194673125025315 0.4264193102630537
vn -0.7404865178220187 -0.5194673125025315 -0.4264193102630537
vn 0.691857124765462 0.5194673185946602 0.5014852179509797
vn -0.691857124765462 -0.5194673185946602 -0.5014852179509797
vn 0.6356475353255471 0.5194673288689352 0.5710568317359761
vn -0.6356475353255471 -0.5194673288689352 -0.5710568317359761
vn 0.5724737018329978 0.5194673016632771 0.6343718020311888
vn -0.5724737018329978 -0.5194673016632771 -0.6343718020311888
vn 0.5030277208702332 0.5194673215522996 0.6907364286581232
vn -0.5030277208702332 -0.5194673215522996 -0.6907364286581232
vn 0.42807050371527094 0.5194673045085137 0.7395332064184901
vn -0.42807050371527094 -0.5194673045085137 -0.7395332064184901
vn 0.34842320804443344 0.5194673119935185 0.7802275180139789
vn -0.34842320804443344 -0.5194673119935185 -0.7802275180139789
vn 0.2649585018555322 0.5194673036378841 0.812373505689137
vn -0.2649585018555322 -0.5194673036378841 -0.812373505689137
vn 0.17859090612840864 0.5194673178257004 0.8356189286745522
vn -0.17859090612840864 -0.5194673178257004 -0.8356189286745522
vn 0.09026660498868969 0.5194673287089705 0.8497091469601715
vn -0.09026660498868969 -0.5194673287089705 -0.8497091469601715
vn 0.0009533228986186917 0.5194672992473226 0.8544897987618949
vn -0.0009533228986186917 -0.5194672992473226 -0.8544897987618949
vn -0.08837040478278274 0.5194673281146088 0.8499084459987419
vn 0.08837040478278274 -0.5194673281146088 -0.8499084459987419
vn -0.17672590871840269 0.5194673256268328 0.8360153412430664
vn 0.17672590871840269 -0.5194673256268328 -0.8360153412430664
vn -0.2631451968891475 0.5194672938589563 0.8129626903893097
vn 0.2631451968891475 -0.5194672938589563 -0.8129626903893097
vn -0.3466814078203959 0.5194673117180788 0.7810030176177687
vn 0.3466814078203959 -0.5194673117180788 -0.7810030176177687
vn -0.4264193102630537 0.5194673125025315 0.7404865178220187
vn 0.4264193102630537 -0.5194673125025315 -0.7404865178220187
vn -0.5014852179509797 0.5194673185946602 0.691857124765462
vn 0.5014852179509797 -0.5194673185946602 -0.691857124765462
vn -0.5710568317359761 0.5194673288689352 0.6356475353255471
vn 0.5710568317359761 -0.5194673288689352 -0.6356475353255471
vn -0.6343718020311887 0.519467301663277 0.5724737018329978
vn 0.6343718020311887 -0.519467301663277 -0.5724737018329978
vn -0.6907364286581232 0.5194673215522996 0.5030277208702332
vn 0.6907364286581232 -0.5194673215522996 -0.5030277208702332
vn -0.7395332064184901 0.5194673045085137 0.42807050371527094
vn 0.7395332064184901 -0.5194673045085137 -0.42807050371527094
vn -0.7802275180139789 0.5194673119935185 0.34842320804443344
vn 0.7802275180139789 -0.5194673119935185 -0.34842320804443344
vn -0.812373505689137 0.5194673036378841 0.2649585018555322
vn 0.812373505689137 -0.5194673036378841 -0.2649585018555322
vn -0.8356189286745522 0.5194673178257004 0.17859090612840864
vn 0.8356189286745522 -0.5194673178257004 -0.17859090612840864
vn -0.8497091469601715 0.5194673287089705 0.09026660498868969
vn 0.8497091469601715 -0.5194673287089705 -0.09026660498868969
vn -0.8544897987618948 0.5194672992473225 0.0009533228986186914
vn 0.8544897987618948 -0.5194672992473225 -0.0009533228986186914
vn -0.8499084459987419 0.5194673281146088 -0.08837040478278274
vn 0.8499084459987419 -0.5194673281146088 0.08837040478278274
vn -0.8360153412430664 0.5194673256268328 -0.17672590871840269
vn 0.8360153412430664 -0.5194673256268328 0.17672590871840269
vn -0.8129626903893097 0.5194672938589563 -0.2631451968891475
vn 0.8129626903893097 -0.5194672938589563 0.2631451968891475
vn -0.7810030176177687 0.5194673117180788 -0.3466814078203959
vn 0.7810030176177687 -0.5194673117180788 0.3466814078203959
vn -0.7404865178220187 0.5194673125025315 -0.4264193102630537
vn 0.7404865178220187 -0.5194673125025315 0.4264193102630537
vn -0.691857124765462 0.5194673185946602 -0.5014852179509797
vn 0.691857124765462 -0.5194673185946602 0.5014852179509797
vn -0.6356475353255471 0.5194673288689352 -0.5710568317359761
vn 0.6356475353255471 -0.5194673288689352 0.5710568317359761
vn -0.5724737018329978 0.5194673016632771 -0.6343718020311888
vn 0.5724737018329978 -0.5194673016632771 0.6343718020311888
usemtl material_0_0
f 1//1 2//1 3//1
f 2//1 1//1 4//1
f 2//1 4//1 5//1
f 5//1 4//1 6//1
f 5//1 6//1 7//1
f 7//1 6//1 8//1
f 7//1 8//1 9//1
f 9//1 8//1 10//1
f 9//1 10//1 11//1
f 11//1 10//1 12//1
f 11//1 12//1 13//1
f 13//1 12//1 14//1
f 13//1 14//1 15//1
f 15//1 14//1 16//1
f 15//1 16//1 17//1
f 17//1 16//1 18//1
f 17//1 18//1 19//1
f 19//1 18//1 20//1
f 19//1 20//1 21//1
f 21//1 20//1 22//1
f 21//1 22//1 23//1
f 23//1 22//1 24//1
f 23//1 24//1 25//1
f 25//1 24//1 26//1
f 25//1 26//1 27//1
f 27//1 26//1 28//1
f 27//1 28//1 29//1
f 29//1 28//1 30//1
f 29//1 30//1 31//1
f 31//1 30//1 32//1
f 31//1 32//1 33//1
f 33//1 32//1 34//1
f 33//1 34//1 35//1
f 35//1 34//1 36//1
f 35//1 36//1 37//1
f 37//1 36//1 38//1
f 37//1 38//1 39//1
f 39//1 38//1 40//1
f 39//1 40//1 41//1
f 41//1 40//1 42//1
f 41//1 42//1 43//1
f 43//1 42//1 44//1
f 43//1 44//1 45//1
f 45//1 44//1 46//1
f 45//1 46//1 47//1
f 47//1 46//1 48//1
f 47//1 48//1 49//1
f 49//1 48//1 50//1
f 49//1 50//1 51//1
f 51//1 50//1 52//1
f 51//1 52//1 53//1
f 53//1 52//1 54//1
f 53//1 54//1 55//1
f 55//1 54//1 56//1
f 55//1 56//1 57//1
f 57//1 56//1 58//1
f 57//1 58//1 59//1
f 59//1 58//1 60//1
f 61//2 62//2 63//2
f 63//2 62//2 64//2
f 62//2 65//2 64//2
f 64//2 65//2 66//2
f 65//2 67//2 66//2
f 66//2 67//2 68//2
f 67//2 69//2 68//2
f 68//2 69//2 70//2
f 69//2 71//2 70//2
f 70//2 71//2 72//2
f 71//2 73//2 72//2
f 72//2 73//2 74//2
f 73//2 75//2 74//2
f 74//2 75//2 76//2
f 75//2 77//2 76//2
f 76//2 77//2 78//2
f 77//2 79//2 78//2
f 78//2 79//2 80//2
f 79//2 81//2 80//2
f 80//2 81//2 82//2
f 81//2 83//2 82//2
f 82//2 83//2 84//2
f 83//2 85//2 84//2
f 84//2 85//2 86//2
f 85//2 87//2 86//2
f 86//2 87//2 88//2
f 87//2 89//2 88//2
f 88//2 89//2 90//2
f 89//2 91//2 90//2
f 90//2 91//2 92//2
f 91//2 93//2 92//2
f 92//2 93//2 94//2
f 93//2 95//2 94//2
f 94//2 95//2 96//2
f 95//2 97//2 96//2
f 96//2 97//2 98//2
f 97//2 99//2 98//2
f 98//2 99//2 100//2
f 99//2 101//2 100//2
f 100//2 101//2 102//2
f 101//2 103//2 102//2
f 102//2 103//2 104//2
f 103//2 105//2 104//2
f 104//2 105//2 106//2
f 105//2 107//2 106//2
f 106//2 107//2 108//2
f 107//2 109//2 108//2
f 108//2 109//2 110//2
f 109//2 111//2 110//2
f 110//2 111//2 112//2
f 111//2 113//2 112//2
f 112//2 113//2 114//2
f 113//2 115//2 114//2
f 114//2 115//2 116//2
f 115//2 117//2 116//2
f 116//2 117//2 118//2
f 117//2 119//2 118//2
f 120//2 118//2 119//2
f 121//3 122//4 123//4
f 122//4 121//3 124//3
f 125//5 126//5 127//6
f 128//6 127//6 126//5
f 129//7 124//3 121//3
f 124//3 129//7 130//7
f 131//8 132//8 125//5
f 126//5 125//5 132//8
f 133//9 130//7 129//7
f 130//7 133//9 134//9
f 135//10 136//10 131//8
f 132//8 131//8 136//10
f 137//11 134//9 133//9
f 134//9 137//11 138//11
f 139//12 140//12 135//10
f 136//10 135//10 140//12
f 141//13 138//11 137//11
f 138//11 141//13 142//13
f 143//14 144//14 139//12
f 140//12 139//12 144//14
f 145//15 142//13 141//13
f 142//13 145//15 146//15
f 147//16 148//16 143//14
f 144//14 143//14 148//16
f 149//17 146//15 145//15
f 146//15 149//17 150//17
f 151//18 152//18 147//16
f 148//16 147//16 152//18
f 153//19 150//17 149//17
f 150//17 153//19 154//19
f 155//20 156//20 151//18
f 152//18 151//18 156//20
f 157//21 154//19 153//19
f 154//19 157//21 158//21
f 159//22 160//22 155//20
f 156//20 155//20 160//22
f 161//23 158//21 157//21
f 158//21 161//23 162//23
f 163//24 164//24 159//22
f 160//22 159//22 164//24
f 165//25 162//23 161//23
f 162//23 165//25 166//25
f 167//26 168//26 163//24
f 164//24 163//24 168//26
f 169//27 166//25 165//25
f 166//25 169//27 170//27
f 171//28 172//28 167//26
f 168//26 167//26 172//28
f 173//29 170//27 169//27
f 170//27 173//29 174//29
f 175//30 176//30 171//28
f 172//28 171//28 176//30
f 177//31 174//29 173//29
f 174//29 177//31 178//31
f 179//32 180//32 175//30
f 176//30 175//30 180//32
f 177//31 181//33 178//31
f 181//33 177//31 182//33
f 183//34 180//32 184//34
f 179//32 184//34 180//32
f 182//33 185//35 181//33
f 185//35 182//33 186//35
f 187//36 183//34 188//36
f 184//34 188//36 183//34
f 186//35 189//37 185//35
f 189//37 186//35 190//37
f 191//38 187//36 192//38
f 188//36 192//38 187//36
f 190//37 193//39 189//37
f 193//39 190//37 194//39
f 195//40 191//38 196//40
f 192//38 196//40 191//38
f 194//39 197//41 193//39
f 197//41 194//39 198//41
f 199//42 195//40 200//42
f 196//40 200//42 195//40
f 198//41 201//43 197//41
f 201//43 198//41 202//43
f 203//44 199//42 204//44
f 200//42 204//44 199//42
f 202//43 205//45 201//43
f 205//45 202//43 206//45
f 207//46 203//44 208//46
f 204//44 208//46 203//44
f 206//45 209//47 205//45
f 209//47 206//45 210//47
f 211//48 207//46 212//48
f 208//46 212//48 207//46
f 210//47 213//49 209//47
f 213//49 210//47 214//49
f 215//50 211//48 216//50
f 212//48 216//50 211//48
f 214//49 217//51 213//49
f 217//51 214//49 218//51
f 219//52 215//50 220//52
f 216//50 220//52 215//50
f 218//51 221//53 217//51
f 221//53 218//51 222//53
f 223//54 219//52 224//54
f 220//52 224//54 219//52
f 222//53 225//55 221//53
f 225//55 222//53 226//55
f 227//56 223//54 228//56
f 224//54 228//56 223//54
f 226//55 229//57 225//55
f 229//57 226//55 230//57
f 231//58 227//56 232//58
f 228//56 232//58 227//56
f 230//57 233//59 229//57
f 233//59 230//57 234//59
f 235//60 231//58 236//60
f 232//58 236//60 231//58
f 234//59 237//61 233//59
f 237//61 234//59 238//61
f 239//62 235//60 240//62
f 236//60 240//62 235//60
f 237//61 241//6 242//6
f 241//6 237//61 238//61
f 239//62 240//62 243//4
f 244//4 243//4 240//62
f 242//6 245//5 246//5
f 245//5 242//6 241//6
f 243//4 244//4 247//3
f 248//3 247//3 244//4
f 246//5 249//8 250//8
f 249//8 246//5 245//5
f 247//3 248//3 251//7
f 252//7 251//7 248//3
f 250//8 253//10 254//10
f 253//10 250//8 249//8
f 251//7 252//7 255//9
f 256//9 255//9 252//7
f 254//10 257//12 258//12
f 257//12 254//10 253//10
f 255//9 256//9 259//11
f 260//11 259//11 256//9
f 258//12 261//14 262//14
f 261//14 258//12 257//12
f 259//11 260//11 263//13
f 264//13 263//13 260//11
f 262//14 265//16 266//16
f 265//16 262//14 261//14
f 263//13 264//13 267//15
f 268//15 267//15 264//13
f 266//16 269//18 270//18
f 269//18 266//16 265//16
f 267//15 268//15 271//17
f 272//17 271//17 268//15
f 270//18 273//20 274//20
f 273//20 270//18 269//18
f 271//17 272//17 275//19
f 276//19 275//19 272//17
f 274//20 277//22 278//22
f 277//22 274//20 273//20
f 275//19 276//19 279//21
f 280//21 279//21 276//19
f 278//22 281//24 282//24
f 281//24 278//22 277//22
f 279//21 280//21 283//23
f 284//23 283//23 280//21
f 282//24 285//26 286//26
f 285//26 282//24 281//24
f 283//23 284//23 287//25
f 288//25 287//25 284//23
f 286//26 289//28 290//28
f 289//28 286//26 285//26
f 287//25 288//25 291//27
f 292//27 291//27 288//25
f 290//28 293//30 294//30
f 293//30 290//28 289//28
f 291//27 292//27 295//29
f 296//29 295//29 292//27
f 294//30 297//32 298//32
f 297//32 294//30 293//30
f 295//29 296//29 299//31
f 300//31 299//31 296//29
f 297//32 301//34 298//32
f 301//34 297//32 302//34
f 303//33 299//31 304//33
f 300//31 304//33 299//31
f 302//34 305//36 301//34
f 305//36 302//34 306//36
f 307//35 303//33 308//35
f 304//33 308//35 303//33
f 306//36 309//38 305//36
f 309//38 306//36 310//38
f 311//37 307//35 312//37
f 308//35 312//37 307//35
f 310//38 313//40 309//38
f 313//40 310//38 314//40
f 315//39 311//37 316//39
f 312//37 316//39 311//37
f 314//40 317//42 313//40
f 317//42 314//40 318//42
f 319//41 315//39 320//41
f 316//39 320//41 315//39
f 318//42 321//44 317//42
f 321//44 318//42 322//44
f 323//43 319//41 324//43
f 320//41 324//43 319//41
f 322//44 325//46 321//44
f 325//46 322//44 326//46
f 327//45 323//43 328//45
f 324//43 328//45 323//43
f 326//46 329//48 325//46
f 329//48 326//46 330//48
f 331//47 327//45 332//47
f 328//45 332//47 327//45
f 330//48 333//50 329//48
f 333//50 330//48 334//50
f 335//49 331//47 336//49
f 332//47 336//49 331//47
f 334//50 337//52 333//50
f 337//52 334//50 338//52
f 339//51 335//49 340//51
f 336//49 340//51 335//49
f 338//52 341//54 337//52
f 341//54 338//52 342//54
f 343//53 339//51 344//53
f 340//51 344//53 339//51
f 342//54 345//56 341//54
f 345//56 342//54 346//56
f 347//55 343//53 348//55
f 344//53 348//55 343//53
f 346//56 349//58 345//56
f 349//58 346//56 350//58
f 351//57 347//55 352//57
f 348//55 352//57 347//55
f 350//58 353//60 349//58
f 353//60 350//58 354//60
f 355//59 351//57 356//59
f 352//57 356//59 351//57
f 354//60 357//62 353//60
f 357//62 354//60 358//62
f 359//61 355//59 360//61
f 356//59 360//61 355//59
f 123//4 357//62 358//62
f 357//62 123//4 122//4
f 127//6 128//6 360//61
f 359//61 360//61 128//6
f 361//63 362//64 363//63
f 362//64 361//63 364//64
f 365//65 366//66 367//65
f 368//66 367//65 366//66
f 364//64 369//67 362//64
f 369//67 364//64 370//67
f 371//68 365//65 372//68
f 367//65 372//68 365//65
f 370//67 373//69 369//67
f 373//69 370//67 374//69
f 375//70 371//68 376//70
f 372//68 376//70 371//68
f 374//69 377//71 373//69
f 377//71 374//69 378//71
f 379//72 375//70 380//72
f 376//70 380//72 375//70
f 378//71 381//73 377//71
f 381//73 378//71 382//73
f 383//74 379//72 384//74
f 380//72 384//74 379//72
f 382//73 385//75 381//73
f 385//75 382//73 386//75
f 387//76 383//74 388//76
f 384//74 388//76 383//74
f 386//75 389//77 385//75
f 389//77 386//75 390//77
f 391//78 387//76 392//78
f 388//76 392//78 387//76
f 393//79 389//77 390//77
f 389//77 393//79 394//79
f 395//80 396//80 392//78
f 391//78 392//78 396//80
f 397//81 394//79 393//79
f 394//79 397//81 398//81
f 399//82 400//82 395//80
f 396//80 395//80 400//82
f 401//83 398//81 397//81
f 398//81 401//83 402//83
f 403//84 404//84 399//82
f 400//82 399//82 404//84
f 405//85 402//83 401//83
f 402//83 405//85 406//85
f 407//86 408//86 403//84
f 404//84 403//84 408//86
f 409//87 406//85 405//85
f 406//85 409//87 410//87
f 411//88 412//88 407//86
f 408//86 407//86 412//88
f 413//89 410//87 409//87
f 410//87 413//89 414//89
f 415//90 416//90 411//88
f 412//88 411//88 416//90
f 417//91 414//89 413//89
f 414//89 417//91 418//91
f 419//92 420//92 415//90
f 416//90 415//90 420//92
f 417//91 421//93 418//91
f 421//93 417//91 422//93
f 423//94 420//92 424//94
f 419//92 424//94 420//92
f 422//93 425//95 421//93
f 425//95 422//93 426//95
f 427//96 423//94 428//96
f 424//94 428//96 423//94
f 426//95 429//97 425//95
f 429//97 426//95 430//97
f 431//98 427//96 432//98
f 428//96 432//98 427//96
f 430//97 433//99 429//97
f 433//99 430//97 434//99
f 435//100 431//98 436//100
f 432//98 436//100 431//98
f 434//99 437//101 433//99
f 437//101 434//99 438//101
f 439//102 435//100 440//102
f 436//100 440//102 435//100
f 438//101 441//103 437//101
f 441//103 438//101 442//103
f 443//104 439//102 444//104
f 440//102 444//104 439//102
f 442//103 445//105 441//103
f 445//105 442//103 446//105
f 447//106 443//104 448//106
f 444//104 448//106 443//104
f 446//105 449//107 445//105
f 449//107 446//105 450//107
f 451//108 447//106 452//108
f 448//106 452//108 447//106
f 450//107 453//109 449//107
f 453//109 450//107 454//109
f 455//110 451//108 456//110
f 452//108 456//110 451//108
f 454//109 457//111 453//109
f 457//111 454//109 458//111
f 459//112 455//110 460//112
f 456//110 460//112 455//110
f 458//111 461//113 457//111
f 461//113 458//111 462//113
f 463//114 459//112 464//114
f 460//112 464//114 459//112
f 462//113 465//115 461//113
f 465//115 462//113 466//115
f 467//116 463//114 468//116
f 464//114 468//116 463//114
f 466//115 469//117 465//115
f 469//117 466//115 470//117
f 471//118 467//116 472//118
f 468//116 472//118 467//116
f 470//117 473//119 469//117
f 473//119 470//117 474//119
f 475//120 471//118 476//120
f 472//118 476//120 471//118
f 474//119 477//121 473//119
f 477//121 474//119 478//121
f 479//122 475//120 480//122
f 476//120 480//122 475//120
f 481//123 478//121 482//123
f 478//121 481//123 477//121
f 480//122 483//124 479//122
f 484//124 479//122 483//124
f 485//125 482//123 486//125
f 482//123 485//125 481//123
f 483//124 487//126 484//124
f 488//126 484//124 487//126
f 489//127 486//125 490//127
f 486//125 489//127 485//125
f 487//126 491//128 488//126
f 492//128 488//126 491//128
f 493//129 490//127 494//129
f 490//127 493//129 489//127
f 491//128 495//130 492//128
f 496//130 492//128 495//130
f 497//131 494//129 498//131
f 494//129 497//131 493//129
f 495//130 499//132 496//130
f 500//132 496//130 499//132
f 501//133 498//131 502//133
f 498//131 501//133 497//131
f 499//132 503//134 500//132
f 504//134 500//132 503//134
f 505//135 502//133 506//135
f 502//133 505//135 501//133
f 503//134 507//136 504//134
f 508//136 504//134 507//136
f 505//135 509//137 510//137
f 509//137 505//135 506//135
f 508//136 507//136 511//138
f 512//138 511//138 507//136
f 510//137 513//139 514//139
f 513//139 510//137 509//137
f 511//138 512//138 515//140
f 516//140 515//140 512//138
f 514//139 517//141 518//141
f 517//141 514//139 513//139
f 515//140 516//140 519//142
f 520//142 519//142 516//140
f 518//141 521//143 522//143
f 521//143 518//141 517//141
f 519//142 520//142 523//144
f 524//144 523//144 520//142
f 522//143 525//145 526//145
f 525//145 522//143 521//143
f 523//144 524//144 527//146
f 528//146 527//146 524//144
f 526//145 529//147 530//147
f 529//147 526//145 525//145
f 527//146 528//146 531//148
f 532//148 531//148 528//146
f 530//147 533//149 534//149
f 533//149 530//147 529//147
f 531//148 532//148 535//150
f 536//150 535//150 532//148
f 534//149 537//151 538//151
f 537//151 534//149 533//149
f 535//150 536//150 539//152
f 540//152 539//152 536//150
f 537//151 541//153 538//151
f 541//153 537//151 542//153
f 543//154 539//152 544//154
f 540//152 544//154 539//152
f 542//153 545//155 541//153
f 545//155 542//153 546//155
f 547//156 543//154 548//156
f 544//154 548//156 543//154
f 546//155 549//157 545//155
f 549//157 546//155 550//157
f 551//158 547//156 552//158
f 548//156 552//158 547//156
f 550//157 553//159 549//157
f 553//159 550//157 554//159
f 555//160 551//158 556//160
f 552//158 556//160 551//158
f 554//159 557//161 553//159
f 557//161 554//159 558//161
f 559//162 555//160 560//162
f 556//160 560//162 555//160
f 558//161 561//163 557//161
f 561//163 558//161 562//163
f 563//164 559//162 564//164
f 560//162 564//164 559//162
f 562//163 565//165 561//163
f 565//165 562//163 566//165
f 567//166 563//164 568//166
f 564//164 568//166 563//164
f 566//165 569//167 565//165
f 569//167 566//165 570//167
f 571//168 567//166 572//168
f 568//166 572//168 567//166
f 570//167 573//169 569//167
f 573//169 570//167 574//169
f 575//170 571//168 576//170
f 572//168 576//170 571//168
f 574//169 577//171 573//169
f 577//171 574//169 578//171
f 579//172 575//170 580//172
f 576//170 580//172 575//170
f 578//171 581//173 577//171
f 581//173 578//171 582//173
f 583//174 579//172 584//174
f 580//172 584//174 579//172
f 582//173 585//175 581//173
f 585//175 582//173 586//175
f 587//176 583//174 588//176
f 584//174 588//176 583//174
f 586//175 589//177 585//175
f 589//177 586//175 590//177
f 591//178 587//176 592//178
f 588//176 592//178 587//176
f 590//177 593//179 589//177
f 593//179 590//177 594//179
f 595//180 591//178 596//180
f 592//178 596//180 591//178
f 594//179 597//181 593//179
f 597//181 594//179 598//181
f 599//182 595//180 600//182
f 596//180 600//182 595//180
f 598//181 363//63 597//181
f 363//63 598//181 361//63
f 366//66 599//182 368//66
f 600//182 368//66 599//182
f 601//2 602//2 603//2
f 602//2 601//2 604//2
f 604//2 601//2 605//2
f 605//2 601//2 606//2
f 606//2 601//2 607//2
f 606//2 607//2 608//2
f 608//2 607//2 609//2
f 609//2 607//2 610//2
f 610//2 607//2 611//2
f 610//2 611//2 612//2
f 612//2 611//2 613//2
f 613//2 611//2 614//2
f 613//2 614//2 615//2
f 615//2 614//2 616//2
f 616//2 614//2 617//2
f 616//2 617//2 618//2
f 618//2 617//2 619//2
f 618//2 619//2 620//2
f 620//2 619//2 621//2
f 621//2 619//2 622//2
f 621//2 622//2 623//2
f 623//2 622//2 624//2
f 623//2 624//2 625//2
f 625//2 624//2 626//2
f 626//2 624//2 627//2
f 626//2 627//2 628//2
f 628//2 627//2 629//2
f 628//2 629//2 630//2
f 630//2 629//2 631//2
f 630//2 631//2 632//2
f 632//2 631//2 633//2
f 633//2 631//2 634//2
f 633//2 634//2 635//2
f 635//2 634//2 636//2
f 635//2 636//2 637//2
f 637//2 636//2 638//2
f 638//2 636//2 639//2
f 638//2 639//2 640//2
f 640//2 639//2 641//2
f 641//2 639//2 642//2
f 641//2 642//2 643//2
f 643//2 642//2 644//2
f 644//2 642//2 645//2
f 645//2 642//2 646//2
f 645//2 646//2 647//2
f 647//2 646//2 648//2
f 648//2 646//2 649//2
f 649//2 646//2 650//2
f 650//2 646//2 651//2
f 650//2 651//2 652//2
f 652//2 651//2 653//2
f 652//2 653//2 654//2
f 654//2 653//2 655//2
f 654//2 655//2 656//2
f 656//2 655//2 657//2
f 656//2 657//2 658//2
f 658//2 657//2 659//2
f 658//2 659//2 660//2
f 660//2 659//2 661//2
f 660//2 661//2 662//2
f 663//2 664//2 665//2
f 664//2 663//2 666//2
f 666//2 663//2 667//2
f 666//2 667//2 668//2
f 668//2 667//2 669//2
f 668//2 669//2 670//2
f 670//2 669//2 671//2
f 670//2 671//2 672//2
f 672//2 671//2 673//2
f 672//2 673//2 674//2
f 674//2 673//2 675//2
f 674//2 675//2 676//2
f 676//2 675//2 603//2
f 676//2 603//2 677//2
f 677//2 603//2 602//2
f 677//2 602//2 678//2
f 677//2 678//2 679//2
f 677//2 679//2 680//2
f 677//2 680//2 681//2
f 681//2 680//2 682//2
f 681//2 682//2 683//2
f 681//2 683//2 684//2
f 681//2 684//2 685//2
f 685//2 684//2 686//2
f 685//2 686//2 687//2
f 685//2 687//2 688//2
f 688//2 687//2 689//2
f 688//2 689//2 690//2
f 688//2 690//2 691//2
f 691//2 690//2 692//2
f 691//2 692//2 693//2
f 693//2 692//2 694//2
f 693//2 694//2 695//2
f 693//2 695//2 696//2
f 696//2 695//2 697//2
f 696//2 697//2 698//2
f 698//2 697//2 699//2
f 698//2 699//2 700//2
f 700//2 699//2 701//2
f 700//2 701//2 702//2
f 700//2 702//2 703//2
f 703//2 702//2 704//2
f 703//2 704//2 705//2
f 705//2 704//2 706//2
f 705//2 706//2 707//2
f 705//2 707//2 708//2
f 708//2 707//2 709//2
f 708//2 709//2 710//2
f 710//2 709//2 711//2
f 710//2 711//2 712//2
f 710//2 712//2 713//2
f 713//2 712//2 714//2
f 713//2 714//2 715//2
f 713//2 715//2 716//2
f 716//2 715//2 717//2
f 716//2 717//2 718//2
f 716//2 718//2 719//2
f 716//2 719//2 649//2
f 649//2 719//2 720//2
f 649//2 720//2 648//2
f 721//1 722//1 723//1
f 722//1 724//1 723//1
f 723//1 724//1 725//1
f 724//1 726//1 725//1
f 726//1 727//1 725//1
f 727//1 728//1 725//1
f 725//1 728//1 729//1
f 728//1 730//1 729//1
f 730//1 731//1 729//1
f 729//1 731//1 732//1
f 731//1 733//1 732//1
f 733//1 734//1 732//1
f 732//1 734//1 735//1
f 734//1 736//1 735//1
f 735//1 736//1 737//1
f 736//1 738//1 737//1
f 738//1 739//1 737//1
f 737//1 739//1 740//1
f 739//1 741//1 740//1
f 740//1 741//1 742//1
f 741//1 743//1 742//1
f 743//1 744//1 742//1
f 742//1 744//1 745//1
f 744//1 746//1 745//1
f 745//1 746//1 747//1
f 746//1 748//1 747//1
f 747//1 748//1 749//1
f 748//1 750//1 749//1
f 750//1 751//1 749//1
f 749//1 751//1 752//1
f 751//1 753//1 752//1
f 752//1 753//1 754//1
f 753//1 755//1 754//1
f 755//1 756//1 754//1
f 754//1 756//1 757//1
f 756//1 758//1 757//1
f 758//1 759//1 757//1
f 757//1 759//1 760//1
f 759//1 761//1 760//1
f 761//1 762//1 760//1
f 762//1 763//1 760//1
f 760//1 763//1 764//1
f 763//1 765//1 764//1
f 765//1 766//1 764//1
f 766//1 767//1 764//1
f 767//1 768//1 764//1
f 764//1 768//1 769//1
f 768//1 770//1 769//1
f 769//1 770//1 771//1
f 770//1 772//1 771//1
f 771//1 772//1 773//1
f 772//1 774//1 773//1
f 773//1 774//1 775//1
f 774//1 776//1 775//1
f 775//1 776//1 777//1
f 776//1 778//1 777//1
f 777//1 778//1 779//1
f 778//1 780//1 779//1
f 779//1 780//1 781//1
f 782//1 781//1 780//1
f 783//1 784//1 785//1
f 784//1 786//1 785//1
f 785//1 786//1 787//1
f 786//1 788//1 787//1
f 787//1 788//1 789//1
f 788//1 790//1 789//1
f 789//1 790//1 791//1
f 790//1 792//1 791//1
f 791//1 792//1 793//1
f 792//1 794//1 793//1
f 793//1 794//1 795//1
f 794//1 796//1 795//1
f 795//1 796//1 723//1
f 723//1 796//1 721//1
f 721//1 796//1 797//1
f 797//1 796//1 798//1
f 796//1 799//1 798//1
f 798//1 799//1 800//1
f 800//1 799//1 801//1
f 801//1 799//1 802//1
f 799//1 803//1 802//1
f 802//1 803//1 804//1
f 804//1 803//1 805//1
f 803//1 806//1 805//1
f 805//1 806//1 807//1
f 807//1 806//1 808//1
f 806//1 809//1 808//1
f 808//1 809//1 810//1
f 809//1 811//1 810//1
f 810//1 811//1 812//1
f 812//1 811//1 813//1
f 811//1 814//1 813//1
f 813//1 814//1 815//1
f 814//1 816//1 815//1
f 815//1 816//1 817//1
f 816//1 818//1 817//1
f 817//1 818//1 819//1
f 819//1 818//1 820//1
f 818//1 821//1 820//1
f 820//1 821//1 822//1
f 821//1 823//1 822//1
f 822//1 823//1 824//1
f 824//1 823//1 825//1
f 823//1 826//1 825//1
f 825//1 826//1 827//1
f 826//1 828//1 827//1
f 827//1 828//1 829//1
f 829//1 828//1 830//1
f 828//1 831//1 830//1
f 830//1 831//1 832//1
f 832//1 831//1 833//1
f 831//1 834//1 833//1
f 833//1 834//1 835//1
f 835//1 834//1 836//1
f 836//1 834//1 837//1
f 834//1 838//1 837//1
f 837//1 838//1 839//1
f 839//1 838//1 840//1
f 840//1 838//1 767//1
f 768//1 767//1 838//1
