# SSTK version 0.8.0
# 7
mtllib original-7.mtl
o #ID2185
v -0.01614546 0.82300011 -0.10222755
v 0.00410418 0.82293554 -0.10215991
v -0.00594588 0.82291942 -0.10259172
v 0.01428624 0.82287149 -0.10060621
v -0.02605697 0.82293364 -0.10056849
v 0.02399384 0.82297925 -0.09789833
v -0.03594852 0.82291707 -0.09797987
v 0.03344722 0.82293125 -0.09442279
v -0.04542775 0.82290421 -0.09421925
v 0.04247194 0.82282844 -0.08967499
v -0.05434410 0.82291768 -0.08968177
v 0.05108773 0.82296344 -0.08432682
v -0.06285551 0.82287822 -0.08410150
v 0.05895146 0.82287748 -0.07781091
v -0.07067123 0.82285914 -0.07777543
v 0.06600486 0.82286259 -0.07070832
v -0.07787170 0.82287048 -0.07061782
v 0.07251092 0.82288271 -0.06281670
v -0.08439693 0.82284622 -0.06270600
v 0.07803265 0.82296489 -0.05433673
v -0.08987367 0.82288443 -0.05405950
v 0.08262009 0.82291506 -0.04529674
v -0.09437848 0.82296660 -0.04512963
v 0.08631880 0.82298817 -0.03574016
v -0.09797254 0.82289761 -0.03552609
v 0.08887192 0.82299744 -0.02610212
v -0.10072694 0.82302039 -0.02579244
v 0.09049079 0.82288103 -0.01608456
v -0.10215145 0.82300797 -0.01589009
v 0.09108821 0.82282998 -0.00578813
v -0.10272972 0.82299918 -0.00575409
v 0.09043766 0.82293310 0.00424104
v -0.10216414 0.82299125 0.00444212
v 0.08889554 0.82288922 0.01418965
v -0.10059671 0.82289330 0.01448114
v 0.08628262 0.82285906 0.02404326
v -0.09792856 0.82297920 0.02425159
v 0.08273066 0.82283190 0.03356054
v -0.09431304 0.82287380 0.03382456
v 0.07803988 0.82299663 0.04254579
v -0.08969479 0.82299606 0.04273160
v 0.07259242 0.82293336 0.05100174
v -0.08413522 0.82297520 0.05117432
v 0.06626414 0.82291862 0.05903785
v -0.07783556 0.82302382 0.05909571
v 0.05917350 0.82286449 0.06611766
v -0.07050198 0.82295108 0.06624016
v 0.05126934 0.82298499 0.07257271
v -0.06263243 0.82283828 0.07268317
v 0.04267855 0.82302741 0.07810526
v -0.05424791 0.82288739 0.07812908
v 0.03364043 0.82290405 0.08267414
v -0.04516728 0.82291801 0.08277812
v 0.02410826 0.82302002 0.08634374
v -0.03572672 0.82290556 0.08641001
v 0.01446910 0.82292853 0.08904427
v -0.02589897 0.82296800 0.08901625
v 0.00437359 0.82291557 0.09060791
v -0.01591111 0.82301155 0.09060612
v -0.00572373 0.82283741 0.09119974
v -0.00566346 0.82297454 0.09109292
v -0.01583339 0.82300163 0.09067807
v 0.00429404 0.82287518 0.09050853
v -0.02587716 0.82295537 0.08895837
v 0.01438837 0.82289405 0.08902108
v -0.03570168 0.82282873 0.08642645
v 0.02413509 0.82298446 0.08639143
v -0.04512135 0.82286874 0.08270523
v 0.03368789 0.82297771 0.08267228
v -0.05429670 0.82285293 0.07822458
v 0.04273384 0.82288515 0.07813241
v -0.06265663 0.82288822 0.07264599
v 0.05119497 0.82284773 0.07253889
v -0.07065582 0.82302719 0.06621037
v 0.05915685 0.82290874 0.06617889
v -0.07786605 0.82301199 0.05914885
v 0.06614055 0.82287568 0.05901156
v -0.08417442 0.82283431 0.05120722
v 0.07253273 0.82298345 0.05114569
v -0.08968373 0.82290403 0.04275347
v 0.07806847 0.82301466 0.04249668
v -0.09422971 0.82294013 0.03372513
v 0.08264534 0.82299572 0.03353766
v -0.09796047 0.82300692 0.02423835
v 0.08625965 0.82286318 0.02396725
v -0.10056976 0.82294553 0.01439063
v 0.08895535 0.82292446 0.01428346
v -0.10227911 0.82300462 0.00449571
v 0.09047148 0.82296224 0.00422909
v -0.10269139 0.82284200 -0.00574674
v 0.09108625 0.82288071 -0.00583528
v -0.10231256 0.82293150 -0.01580945
v 0.09050418 0.82294545 -0.01609125
v -0.10068153 0.82290827 -0.02572629
v 0.08891162 0.82287069 -0.02611602
v -0.09810465 0.82293083 -0.03571511
v 0.08621987 0.82283520 -0.03576136
v -0.09441376 0.82298768 -0.04500002
v 0.08272119 0.82299895 -0.04531639
v -0.08982418 0.82288005 -0.05411475
v 0.07808876 0.82288028 -0.05436988
v -0.08434629 0.82294599 -0.06254659
v 0.07254834 0.82285616 -0.06279161
v -0.07784641 0.82301739 -0.07055019
v 0.06616280 0.82294632 -0.07069104
v -0.07071178 0.82298353 -0.07767330
v 0.05893338 0.82286908 -0.07780126
v -0.06293669 0.82291596 -0.08409557
v 0.05108532 0.82301006 -0.08420869
v -0.05445577 0.82300266 -0.08961326
v 0.04248214 0.82299932 -0.08969907
v -0.04540100 0.82290609 -0.09434116
v 0.03341974 0.82301695 -0.09431098
v -0.03596826 0.82297632 -0.09792953
v 0.02397735 0.82287385 -0.09788493
v -0.02602261 0.82284727 -0.10046577
v 0.01413160 0.82285721 -0.10066134
v -0.01600010 0.82296816 -0.10209600
v 0.00417149 0.82295483 -0.10217626
v -0.00602728 0.82285479 -0.10269024
v 0.01434510 0.82298317 0.08906147
v 0.00439976 0.65546155 0.09052164
v 0.00449195 0.82301863 0.09063541
v 0.01444425 0.65534051 0.08902541
v 0.01448712 0.65529507 0.08904528
v 0.01437728 0.82295854 0.08899168
v 0.00430647 0.65542935 0.09065841
v 0.00440527 0.82300568 0.09064502
v 0.02418594 0.82286073 0.08642086
v 0.02411081 0.65542827 0.08625264
v 0.02417168 0.65548533 0.08633673
v 0.02427606 0.82293134 0.08639912
v 0.03372509 0.82297223 0.08279171
v 0.03359309 0.65545553 0.08260569
v 0.03370218 0.65539987 0.08264725
v 0.03358090 0.82286296 0.08278904
v 0.04271902 0.82289664 0.07817166
v 0.04264404 0.65541919 0.07802329
v 0.04264553 0.65539144 0.07800433
v 0.04269818 0.82298492 0.07804355
v 0.05127165 0.82299265 0.07252642
v 0.05120262 0.65548019 0.07261586
v 0.05115078 0.65535141 0.07255886
v 0.05118338 0.82292051 0.07255184
v 0.05907445 0.82295415 0.06625225
v 0.05898722 0.65532078 0.06608312
v 0.05900672 0.65537078 0.06614037
v 0.05902754 0.82299909 0.06607202
v 0.06626286 0.65539007 0.05903607
v 0.06614578 0.82290949 0.05897997
v 0.06629632 0.82285862 0.05889455
v 0.06614609 0.65529325 0.05890753
v 0.07255615 0.65529625 0.05112245
v 0.07265749 0.82292219 0.05107829
v 0.07259037 0.82292870 0.05101998
v 0.07270164 0.65548828 0.05110981
v 0.07811909 0.65534905 0.04255680
v 0.07809409 0.82286847 0.04262672
v 0.07820454 0.82299455 0.04265672
v 0.07805179 0.65548058 0.04264736
v 0.08270445 0.65541271 0.03349608
v 0.08275451 0.82294459 0.03355174
v 0.08262541 0.82291851 0.03349647
v 0.08264713 0.65539989 0.03345555
v 0.08626718 0.65543085 0.02411243
v 0.08641982 0.82291214 0.02404182
v 0.08637207 0.82296463 0.02396741
v 0.08630971 0.65547895 0.02397153
v 0.08897020 0.65539896 0.01423866
v 0.08904109 0.82284274 0.01425189
v 0.08893932 0.82302361 0.01431984
v 0.08900612 0.65541002 0.01418173
v 0.09057998 0.65530154 0.00426511
v 0.09056060 0.82290586 0.00416394
v 0.09048837 0.82292748 0.00414819
v 0.09063394 0.65546044 0.00431269
v 0.09112256 0.65534681 -0.00591709
v 0.09110246 0.82293307 -0.00579067
v 0.09109330 0.82286673 -0.00592761
v 0.09109187 0.65537177 -0.00585101
v 0.09050061 0.65536034 -0.01600956
v 0.09055310 0.82283689 -0.01611088
v 0.09055656 0.82285314 -0.01598666
v 0.09049988 0.65546188 -0.01602473
v 0.08892286 0.65537512 -0.02593340
v 0.08883349 0.82284057 -0.02593944
v 0.08895900 0.82291782 -0.02608668
v 0.08883927 0.65544707 -0.02612027
v 0.08629611 0.65540475 -0.03578504
v 0.08631235 0.82287291 -0.03582975
v 0.08622074 0.82298593 -0.03573756
v 0.08629064 0.65544945 -0.03592176
v 0.08265802 0.65537074 -0.04528900
v 0.08263203 0.82283656 -0.04527978
v 0.08266082 0.82295577 -0.04527464
v 0.08256050 0.65536674 -0.04528806
v 0.07799759 0.65532394 -0.05436618
v 0.07805413 0.82296539 -0.05434978
v 0.07797350 0.82301057 -0.05441876
v 0.07806427 0.65534635 -0.05442009
v 0.07255203 0.65529300 -0.06276592
v 0.07254541 0.82293586 -0.06286666
v 0.07245450 0.82291666 -0.06288639
v 0.07248968 0.65542297 -0.06280578
v 0.06602618 0.65530671 -0.07070032
v 0.06599392 0.82302210 -0.07072943
v 0.06615618 0.82289771 -0.07066955
v 0.06612933 0.65536341 -0.07066933
v 0.05884942 0.82301962 -0.07793043
v 0.05891520 0.65533504 -0.07795244
v 0.05883424 0.82296934 -0.07786433
v 0.05892301 0.65532505 -0.07778888
v 0.05103205 0.82288591 -0.08430263
v 0.05098376 0.65537932 -0.08422081
v 0.05112014 0.82302320 -0.08414682
v 0.05106661 0.65529870 -0.08432604
v 0.04246046 0.82290666 -0.08972428
v 0.04260563 0.65530322 -0.08970062
v 0.04241781 0.82296866 -0.08976251
v 0.04249366 0.65540641 -0.08974397
v 0.03343007 0.82301435 -0.09429607
v 0.03355939 0.65542885 -0.09433175
v 0.03338169 0.82300893 -0.09438799
v 0.03356827 0.65531105 -0.09436922
v 0.02397920 0.82294402 -0.09798828
v 0.02402236 0.65545502 -0.09802843
v 0.02398741 0.82287425 -0.09791233
v 0.02409686 0.65537781 -0.09791050
v 0.01411744 0.82294092 -0.10048972
v 0.01419916 0.65530911 -0.10050185
v 0.01428217 0.82301197 -0.10058746
v 0.01412300 0.65535318 -0.10056228
v 0.00417712 0.82299615 -0.10215137
v 0.00416506 0.65529026 -0.10209755
v 0.00412628 0.82299367 -0.10206284
v 0.00423770 0.65537505 -0.10212582
v -0.00588928 0.82289112 -0.10269262
v -0.00588590 0.65548624 -0.10274336
v -0.00592707 0.82297871 -0.10262683
v -0.00585170 0.65529888 -0.10262402
v -0.01603823 0.82301234 -0.10223273
v -0.01602292 0.65533449 -0.10203685
v -0.01609275 0.82284326 -0.10206989
v -0.01610197 0.65542553 -0.10213995
v -0.02610966 0.82297324 -0.10047102
v -0.02611082 0.65548505 -0.10057566
v -0.02608377 0.82299651 -0.10062302
v -0.02618423 0.65540628 -0.10062092
v -0.03581566 0.82301530 -0.09791440
v -0.03582798 0.65536106 -0.09799655
v -0.03591532 0.82297050 -0.09790235
v -0.03581958 0.65548200 -0.09798653
v -0.04534915 0.82283871 -0.09427170
v -0.04544393 0.65543235 -0.09433758
v -0.04530969 0.82295971 -0.09417013
v -0.04541382 0.65534478 -0.09430713
v -0.05445042 0.82286016 -0.08966633
v -0.05429290 0.65530339 -0.08961626
v -0.05433193 0.82291616 -0.08956027
v -0.05432469 0.65539501 -0.08970025
v -0.06280623 0.82299550 -0.08414291
v -0.06294698 0.65544135 -0.08409240
v -0.06289087 0.82295579 -0.08407955
v -0.06296450 0.65546421 -0.08404245
v -0.07076969 0.82282851 -0.07777029
v -0.07080467 0.65548711 -0.07762880
v -0.07080570 0.82287054 -0.07774826
v -0.07066103 0.65532219 -0.07772611
v -0.07797083 0.65544647 -0.07056240
v -0.07786710 0.82291912 -0.07054308
v -0.07800896 0.82301350 -0.07054704
v -0.07785767 0.65535737 -0.07060072
v -0.08429705 0.65547203 -0.06266178
v -0.08438439 0.82284341 -0.06259318
v -0.08432273 0.82291315 -0.06256054
v -0.08432415 0.65548100 -0.06261762
v -0.08989180 0.65538113 -0.05423082
v -0.08986254 0.82284556 -0.05406806
v -0.08976152 0.82284586 -0.05411125
v -0.08978248 0.65543363 -0.05410304
v -0.09444813 0.65547042 -0.04506232
v -0.09436866 0.82291814 -0.04504195
v -0.09442662 0.82290669 -0.04517537
v -0.09446343 0.65540624 -0.04502041
v -0.09801399 0.65535405 -0.03557967
v -0.09810858 0.82293569 -0.03562275
v -0.09809693 0.82300235 -0.03560393
v -0.09808248 0.65535728 -0.03554143
v -0.10069670 0.65538320 -0.02572297
v -0.10071676 0.82297705 -0.02580870
v -0.10072359 0.82293992 -0.02589329
v -0.10067659 0.65530216 -0.02583294
v -0.10220912 0.65538499 -0.01575264
v -0.10224820 0.82292818 -0.01586627
v -0.10222844 0.82290924 -0.01589001
v -0.10231846 0.65542263 -0.01571273
v -0.10270388 0.65535200 -0.00571711
v -0.10271102 0.82299387 -0.00576876
v -0.10274528 0.82293410 -0.00559476
v -0.10283051 0.65544489 -0.00572516
v -0.10215545 0.65538089 0.00449317
v -0.10215580 0.82291312 0.00442157
v -0.10210305 0.82298181 0.00455155
v -0.10211324 0.65544324 0.00453710
v -0.10060351 0.65542343 0.01455014
v -0.10067921 0.82302687 0.01457190
v -0.10057530 0.82286428 0.01457029
v -0.10052656 0.65539619 0.01442576
v -0.09788254 0.65540931 0.02429211
v -0.09787252 0.82291437 0.02435704
v -0.09797657 0.82302737 0.02425320
v -0.09799295 0.65532766 0.02426726
v -0.09432026 0.65530535 0.03379450
v -0.09425651 0.82283384 0.03377403
v -0.09422344 0.82292518 0.03382967
v -0.09427569 0.65539322 0.03366630
v -0.08966211 0.65539740 0.04272329
v -0.08973847 0.82299585 0.04282347
v -0.08966549 0.82299960 0.04275676
v -0.08979485 0.65534123 0.04282907
v -0.08421045 0.65544434 0.05118196
v -0.08411798 0.82301195 0.05125300
v -0.08414511 0.82291486 0.05123258
v -0.08415745 0.65539008 0.05133179
v -0.07781300 0.65532231 0.05904277
v -0.07777863 0.82301172 0.05904388
v -0.07771084 0.82298829 0.05918480
v -0.07786263 0.65540725 0.05916494
v -0.07064978 0.82298731 0.06621715
v -0.07055083 0.65530825 0.06626910
v -0.07060772 0.65539145 0.06635676
v -0.07053983 0.82283011 0.06638627
v -0.06262870 0.82283984 0.07258923
v -0.06263270 0.65534418 0.07272663
v -0.06269958 0.65545470 0.07260328
v -0.06278590 0.82292791 0.07276656
v -0.05418035 0.82289488 0.07821126
v -0.05416185 0.65534618 0.07813812
v -0.05427538 0.65539905 0.07828811
v -0.05420329 0.82301174 0.07820425
v -0.04514502 0.82297148 0.08277624
v -0.04517193 0.65539026 0.08286949
v -0.04524986 0.65546311 0.08279413
v -0.04511184 0.82295589 0.08285045
v -0.03571813 0.82297262 0.08633427
v -0.03566384 0.65543698 0.08639846
v -0.03572351 0.65547842 0.08649681
v -0.03572099 0.82295443 0.08646185
v -0.02586537 0.82292347 0.08910162
v -0.02579071 0.65530383 0.08903041
v -0.02596727 0.65543599 0.08903144
v -0.02590644 0.82291878 0.08898874
v -0.01583464 0.82302482 0.09068767
v -0.01587983 0.65547345 0.09056452
v -0.01579720 0.65537046 0.09058363
v -0.01590430 0.82299059 0.09062291
v -0.00578737 0.82283186 0.09114096
v -0.00578152 0.65531966 0.09106993
v -0.00570734 0.65536597 0.09119677
v -0.00564509 0.82297374 0.09120548
v 0.01442070 0.65543361 0.08890267
v 0.00494897 0.66112844 0.09580195
v 0.00432286 0.65531630 0.09051804
v 0.01545989 0.66111039 0.09413196
v 0.01554599 0.66119858 0.09408414
v 0.01431108 0.65531661 0.08903112
v 0.00495373 0.66106804 0.09580456
v 0.00443742 0.65538621 0.09056327
v 0.02420789 0.65538441 0.08628098
v 0.02591504 0.66111368 0.09127997
v 0.02579791 0.66117906 0.09130987
v 0.02429230 0.65533469 0.08635342
v 0.03373800 0.65533618 0.08259846
v 0.03576328 0.66124131 0.08742230
v 0.03578830 0.66125523 0.08747271
v 0.03359462 0.65544173 0.08262030
v 0.04522695 0.66125336 0.08263607
v 0.04269122 0.65543048 0.07811753
v 0.04529598 0.66109322 0.08257607
v 0.04270118 0.65528943 0.07812456
v 0.05419241 0.66107878 0.07676811
v 0.05113847 0.65548838 0.07250256
v 0.05420412 0.66119197 0.07686435
v 0.05110982 0.65547190 0.07251779
v 0.06265744 0.66108427 0.07004783
v 0.05901685 0.65531645 0.06612639
v 0.06257949 0.66107400 0.07002412
v 0.05910315 0.65542179 0.06612891
v 0.07018159 0.66125489 0.06256556
v 0.06615221 0.65542291 0.05903860
v 0.07004898 0.66116749 0.06250260
v 0.06616082 0.65538101 0.05903215
v 0.07677754 0.66112852 0.05412147
v 0.07264597 0.65546646 0.05107595
v 0.07693383 0.66120202 0.05418190
v 0.07261815 0.65544975 0.05105683
v 0.08257642 0.66107721 0.04512439
v 0.07819877 0.65547450 0.04258404
v 0.08274725 0.66115381 0.04524247
v 0.07814793 0.65546868 0.04263921
v 0.08748119 0.66119900 0.03557982
v 0.08263434 0.65530592 0.03356779
v 0.08742863 0.66118732 0.03575072
v 0.08262790 0.65543473 0.03357246
v 0.09122225 0.66110656 0.02562858
v 0.08633565 0.65532474 0.02409404
v 0.09141248 0.66125246 0.02562017
v 0.08631512 0.65539050 0.02404885
v 0.09412799 0.66114339 0.01532687
v 0.08904287 0.65533661 0.01420252
v 0.09407037 0.66123404 0.01541928
v 0.08905352 0.65543370 0.01427300
v 0.09564912 0.66125492 0.00481933
v 0.09043895 0.65548239 0.00424739
v 0.09563450 0.66126348 0.00471582
v 0.09053364 0.65532879 0.00431897
v 0.09624603 0.66117974 -0.00583375
v 0.09107860 0.65548814 -0.00579968
v 0.09624906 0.66118600 -0.00588099
v 0.09112802 0.65539146 -0.00587157
v 0.09565164 0.66114613 -0.01651814
v 0.09050077 0.65547568 -0.01611109
v 0.09560973 0.66106635 -0.01657257
v 0.09050985 0.65546483 -0.01599022
v 0.09394204 0.66111719 -0.02715726
v 0.08892517 0.65530014 -0.02603895
v 0.09404090 0.66119140 -0.02710762
v 0.08895875 0.65533460 -0.02596845
v 0.09126183 0.66107824 -0.03736864
v 0.08628927 0.65541791 -0.03576542
v 0.09122433 0.66112141 -0.03746683
v 0.08635395 0.65535877 -0.03583634
v 0.08734907 0.66107517 -0.04735660
v 0.08269652 0.65537599 -0.04522643
v 0.08738393 0.66112567 -0.04745197
v 0.08264699 0.65539471 -0.04526959
v 0.07805363 0.65533650 -0.05436653
v 0.08251047 0.66118833 -0.05686654
v 0.07805623 0.65535222 -0.05427493
v 0.08244493 0.66110814 -0.05684048
v 0.07248453 0.65540589 -0.06287097
v 0.07666000 0.66114882 -0.06597596
v 0.07249489 0.65543701 -0.06279136
v 0.07666720 0.66110477 -0.06583301
v 0.06603049 0.65542055 -0.07078212
v 0.06991017 0.66115526 -0.07411998
v 0.06618737 0.65537978 -0.07065258
v 0.07002362 0.66121178 -0.07422619
v 0.05895509 0.65536304 -0.07794476
v 0.06237553 0.66125108 -0.08166284
v 0.05889109 0.65533257 -0.07792809
v 0.06234879 0.66124950 -0.08179890
v 0.05096754 0.65540240 -0.08420765
v 0.05415783 0.66114975 -0.08841289
v 0.05111951 0.65529365 -0.08413870
v 0.05413887 0.66109663 -0.08848471
v 0.04249144 0.65542701 -0.08974893
v 0.04516136 0.66113523 -0.09424713
v 0.04254546 0.65533342 -0.08982720
v 0.04519348 0.66124334 -0.09432403
v 0.03341595 0.65545799 -0.09439027
v 0.03563935 0.66113427 -0.09907660
v 0.03350275 0.65540998 -0.09431904
v 0.03564671 0.66125829 -0.09908868
v 0.02561197 0.66109304 -0.10292042
v 0.02403132 0.65538488 -0.09790646
v 0.02559579 0.66118059 -0.10289170
v 0.02394550 0.65542393 -0.09789705
v 0.01533083 0.66120144 -0.10569303
v 0.01428134 0.65529180 -0.10048755
v 0.01521653 0.66119172 -0.10565049
v 0.01418360 0.65535221 -0.10054837
v 0.00468179 0.66107597 -0.10744623
v 0.00423690 0.65539243 -0.10220310
v 0.00478370 0.66109635 -0.10727163
v 0.00420428 0.65533936 -0.10214588
v -0.00588572 0.65545665 -0.10277150
v -0.00592223 0.66118004 -0.10792515
v -0.00604754 0.65544036 -0.10264221
v -0.00586174 0.66119088 -0.10795576
v -0.01606107 0.65531955 -0.10216176
v -0.01657560 0.66122764 -0.10733552
v -0.01605666 0.65530852 -0.10214848
v -0.01669128 0.66123815 -0.10723759
v -0.02616315 0.65539663 -0.10058994
v -0.02715932 0.66123716 -0.10563693
v -0.02617034 0.65540456 -0.10058339
v -0.02724895 0.66113045 -0.10571521
v -0.03582351 0.65531263 -0.09787026
v -0.03749288 0.66115324 -0.10282627
v -0.03590179 0.65537211 -0.09784622
v -0.03751783 0.66119300 -0.10289234
v -0.04541096 0.65547332 -0.09419300
v -0.04749300 0.66116580 -0.09904957
v -0.04543242 0.65529704 -0.09423044
v -0.04743229 0.66117859 -0.09900582
v -0.05692523 0.66107320 -0.09422066
v -0.05441213 0.65529039 -0.08958654
v -0.05438557 0.65543333 -0.08965412
v -0.05708111 0.66116929 -0.09417065
v -0.06604841 0.66112910 -0.08835904
v -0.06286074 0.65540589 -0.08418331
v -0.06281485 0.65543006 -0.08411697
v -0.06592645 0.66126265 -0.08825832
v -0.07427559 0.66113209 -0.08160154
v -0.07072893 0.65544883 -0.07770218
v -0.07074384 0.65547021 -0.07769045
v -0.07418516 0.66115862 -0.08157013
v -0.08187373 0.66118259 -0.07396642
v -0.07786506 0.65529161 -0.07052181
v -0.07798486 0.65543719 -0.07047038
v -0.08189415 0.66112955 -0.07396897
v -0.08857139 0.66109212 -0.06562158
v -0.08435523 0.65532942 -0.06256552
v -0.08429804 0.65531365 -0.06267774
v -0.08849492 0.66120997 -0.06570878
v -0.09437359 0.66122484 -0.05672182
v -0.08982503 0.65538964 -0.05414883
v -0.08978574 0.65541121 -0.05415167
v -0.09423951 0.66124436 -0.05679980
v -0.09914572 0.66119225 -0.04720093
v -0.09437233 0.65534492 -0.04506641
v -0.09436369 0.65530714 -0.04510570
v -0.09912696 0.66106967 -0.04729112
v -0.10290594 0.66114398 -0.03716592
v -0.09800024 0.65542208 -0.03554044
v -0.10304677 0.66124222 -0.03730415
v -0.09794978 0.65541066 -0.03566532
v -0.10566699 0.66115118 -0.02689408
v -0.10072760 0.65536964 -0.02589992
v -0.10576746 0.66113401 -0.02693451
v -0.10057502 0.65534943 -0.02572413
v -0.10737168 0.66118904 -0.01638083
v -0.10217124 0.65532908 -0.01586681
v -0.10742881 0.66106705 -0.01643962
v -0.10223656 0.65534721 -0.01578176
v -0.10786865 0.66114380 -0.00562691
v -0.10273226 0.65542579 -0.00575552
v -0.10795955 0.66118514 -0.00558849
v -0.10275966 0.65545418 -0.00562661
v -0.10747366 0.66122217 0.00497552
v -0.10217757 0.65533427 0.00436798
v -0.10739743 0.66108207 0.00494433
v -0.10227913 0.65541019 0.00448526
v -0.10570529 0.66118322 0.01548385
v -0.10068049 0.65534469 0.01437994
v -0.10570599 0.66125498 0.01560877
v -0.10066274 0.65532054 0.01456211
v -0.10288854 0.66121341 0.02579979
v -0.09795183 0.65538663 0.02425486
v -0.10297599 0.66107124 0.02592511
v -0.09796696 0.65540291 0.02435378
v -0.09904250 0.66116653 0.03586025
v -0.09430710 0.65531534 0.03382709
v -0.09909936 0.66116116 0.03593696
v -0.09439698 0.65535332 0.03379187
v -0.08968699 0.65533385 0.04282211
v -0.09420296 0.66110922 0.04529509
v -0.09422830 0.66109701 0.04530670
v -0.08970543 0.65533000 0.04278682
v -0.08419532 0.65529391 0.05116716
v -0.08846167 0.66125546 0.05425185
v -0.08830278 0.66109249 0.05431718
v -0.08411572 0.65548510 0.05126040
v -0.07787151 0.65531629 0.05906938
v -0.08173367 0.66114526 0.06254572
v -0.08156673 0.66120514 0.06255153
v -0.07787215 0.65534461 0.05920005
v -0.07069123 0.65529736 0.06634543
v -0.07408960 0.66118545 0.07022847
v -0.07406497 0.66121759 0.07023059
v -0.07055427 0.65542729 0.06636826
v -0.06269449 0.65545672 0.07267971
v -0.06577956 0.66109949 0.07690423
v -0.06581959 0.66111111 0.07683339
v -0.06267280 0.65535651 0.07272912
v -0.05410099 0.65533761 0.07821361
v -0.05688194 0.66126546 0.08272475
v -0.05679443 0.66110049 0.08275843
v -0.05426644 0.65548134 0.07817264
v -0.04507203 0.65532295 0.08271480
v -0.04722614 0.66114535 0.08764686
v -0.04721292 0.66114545 0.08747560
v -0.04509537 0.65541801 0.08272657
v -0.03721651 0.66117946 0.09137166
v -0.03560927 0.65539035 0.08646422
v -0.03572099 0.65537037 0.08643026
v -0.03733977 0.66106826 0.09145379
v -0.02687128 0.66115557 0.09409709
v -0.02584203 0.65546077 0.08903778
v -0.02580622 0.65537183 0.08904317
v -0.02700918 0.66119254 0.09411113
v -0.01644456 0.66125790 0.09587439
v -0.01590594 0.65536182 0.09061661
v -0.01583425 0.65538690 0.09051476
v -0.01645117 0.66109341 0.09588156
v -0.00564463 0.66118663 0.09625569
v -0.00571040 0.65543341 0.09104905
v -0.00576715 0.65541146 0.09113475
v -0.00566099 0.66116017 0.09644037
vn 0 1 0
vn 0 -1 0
vn -0.20900280860748408 0 -0.9779150402740432
vn -0.10563789612845041 0 -0.9944046635558155
vn 0.20900280860748408 0 0.9779150402740432
vn 0.10563789612845041 0 0.9944046635558155
vn -0.31007788606605363 0 -0.950711157277965
vn 0.31007788606605363 0 0.950711157277965
vn -0.4077556028072811 0 -0.9130911062863721
vn 0.4077556028072811 0 0.9130911062863721
vn -0.5009659097558578 0 -0.865467016854187
vn 0.5009659097558578 0 0.865467016854187
vn -0.5886875017776184 0 -0.8083607024409503
vn 0.5886875017776184 0 0.8083607024409503
vn -0.669959314370182 0 -0.7423978159239396
vn 0.669959314370182 0 0.7423978159239396
vn -0.7438908883342957 0 -0.6683010895196957
vn 0.7438908883342957 0 0.6683010895196957
vn -0.8096722726976167 0 -0.5868822802101598
vn 0.8096722726976167 0 0.5868822802101598
vn -0.8665826956404218 0 -0.49903349748947723
vn 0.8665826956404218 0 0.49903349748947723
vn -0.9139986680203159 0 -0.405717185804457
vn 0.9139986680203159 0 0.405717185804457
vn -0.9514006975629967 0 -0.30795569921117455
vn 0.9514006975629967 0 0.30795569921117455
vn -0.9783789490591898 0 -0.2068202892315824
vn 0.9783789490591898 0 0.2068202892315824
vn -0.9946378998459058 0 -0.10341879998397785
vn 0.9946378998459058 0 0.10341879998397785
vn -0.9999993776478693 0 0.00111566297506254
vn 0.9999993776478693 0 -0.00111566297506254
vn -0.9944046635558155 0 0.10563789612845041
vn 0.9944046635558155 0 -0.10563789612845041
vn -0.9779150402740432 0 0.20900280860748408
vn 0.9779150402740432 0 -0.20900280860748408
vn -0.950711157277965 0 0.31007788606605363
vn 0.950711157277965 0 -0.31007788606605363
vn -0.9130911062863721 0 0.4077556028072811
vn 0.9130911062863721 0 -0.4077556028072811
vn -0.865467016854187 0 0.5009659097558578
vn 0.865467016854187 0 -0.5009659097558578
vn -0.8083607024409503 0 0.5886875017776184
vn 0.8083607024409503 0 -0.5886875017776184
vn -0.7423978159239396 0 0.669959314370182
vn 0.7423978159239396 0 -0.669959314370182
vn -0.6683010895196957 0 0.7438908883342957
vn 0.6683010895196957 0 -0.7438908883342957
vn -0.5868822802101598 0 0.8096722726976167
vn 0.5868822802101598 0 -0.8096722726976167
vn -0.49903349748947723 0 0.8665826956404218
vn 0.49903349748947723 0 -0.8665826956404218
vn -0.405717185804457 0 0.9139986680203159
vn 0.405717185804457 0 -0.9139986680203159
vn -0.30795569921117455 0 0.9514006975629967
vn 0.30795569921117455 0 -0.9514006975629967
vn -0.2068202892315824 0 0.9783789490591898
vn 0.2068202892315824 0 -0.9783789490591898
vn -0.10341879998397785 0 0.9946378998459058
vn 0.10341879998397785 0 -0.9946378998459058
vn 0.00111566297506254 0 0.9999993776478693
vn -0.00111566297506254 0 -0.9999993776478693
vn 0.15503620247436697 -0.6706321107032416 0.7254077115774563
vn 0.07836118729117973 -0.6706320768173272 0.7376395745009857
vn -0.15503620247436697 0.6706321107032416 -0.7254077115774563
vn -0.07836118729117973 0.6706320768173272 -0.7376395745009857
vn 0.23001269197405919 -0.6706320765993202 0.7052281753921423
vn -0.23001269197405919 0.6706320765993202 -0.7052281753921423
vn 0.302469090670459 -0.6706320793146153 0.6773219791082681
vn -0.302469090670459 0.6706320793146153 -0.6773219791082681
vn 0.3716115051823695 -0.6706321093524107 0.641994908953046
vn -0.3716115051823695 0.6706321093524107 -0.641994908953046
vn 0.4366825911246077 -0.6706320863696813 0.5996339878126883
vn -0.4366825911246077 0.6706320863696813 -0.5996339878126883
vn 0.49696919153397834 -0.6706320885755779 0.5507033906185999
vn -0.49696919153397834 0.6706320885755779 -0.5507033906185999
vn 0.5518108897015921 -0.6706320874840405 0.4957391907480543
vn -0.5518108897015921 0.6706320874840405 -0.4957391907480543
vn 0.6006068925313723 -0.6706320916605994 0.43534349458644495
vn -0.6006068925313723 0.6706320916605994 -0.43534349458644495
vn 0.6428224981434418 -0.670632098063124 0.3701780989308757
vn -0.6428224981434418 0.670632098063124 -0.3701780989308757
vn 0.677995193009039 -0.6706320930849615 0.30095699689676464
vn -0.677995193009039 0.6706320930849615 -0.30095699689676464
vn 0.7057396194640098 -0.6706321184957592 0.22843850630024046
vn -0.7057396194640098 0.6706321184957592 -0.22843850630024046
vn 0.7257518741777996 -0.670632076138958 0.15341719454142705
vn -0.7257518741777996 0.670632076138958 -0.15341719454142705
vn 0.7378125816400594 -0.6706320833117981 0.07671507809099992
vn -0.7378125816400594 0.6706320833117981 -0.07671507809099992
vn 0.7417896786818048 -0.6706320807267935 -0.0008275875762160703
vn -0.7417896786818048 0.6706320807267935 0.0008275875762160703
vn 0.7376395745009857 -0.6706320768173272 -0.07836118729117972
vn -0.7376395745009857 0.6706320768173272 0.07836118729117972
vn 0.7254077115774563 -0.6706321107032416 -0.15503620247436697
vn -0.7254077115774563 0.6706321107032416 0.15503620247436697
vn 0.7052281753921423 -0.6706320765993202 -0.23001269197405919
vn -0.7052281753921423 0.6706320765993202 0.23001269197405919
vn 0.6773219791082681 -0.6706320793146153 -0.302469090670459
vn -0.6773219791082681 0.6706320793146153 0.302469090670459
vn 0.641994908953046 -0.6706321093524107 -0.3716115051823695
vn -0.641994908953046 0.6706321093524107 0.3716115051823695
vn 0.5996339878126883 -0.6706320863696813 -0.4366825911246077
vn -0.5996339878126883 0.6706320863696813 0.4366825911246077
vn 0.5507033906185999 -0.6706320885755779 -0.49696919153397834
vn -0.5507033906185999 0.6706320885755779 0.49696919153397834
vn 0.4957391907480543 -0.6706320874840405 -0.5518108897015921
vn -0.4957391907480543 0.6706320874840405 0.5518108897015921
vn 0.43534349458644495 -0.6706320916605994 -0.6006068925313723
vn -0.43534349458644495 0.6706320916605994 0.6006068925313723
vn 0.3701780989308757 -0.670632098063124 -0.6428224981434418
vn -0.3701780989308757 0.670632098063124 0.6428224981434418
vn 0.30095699689676464 -0.6706320930849615 -0.677995193009039
vn -0.30095699689676464 0.6706320930849615 0.677995193009039
vn 0.22843850630024046 -0.6706321184957592 -0.7057396194640098
vn -0.22843850630024046 0.6706321184957592 0.7057396194640098
vn 0.15341719454142705 -0.670632076138958 -0.7257518741777996
vn -0.15341719454142705 0.670632076138958 0.7257518741777996
vn 0.07671507809099992 -0.6706320833117981 -0.7378125816400594
vn -0.07671507809099992 0.6706320833117981 0.7378125816400594
vn -0.0008275875762160703 -0.6706320807267935 -0.7417896786818048
vn 0.0008275875762160703 0.6706320807267935 0.7417896786818048
vn -0.07836118729117973 -0.6706320768173272 -0.7376395745009857
vn 0.07836118729117973 0.6706320768173272 0.7376395745009857
vn -0.15503620247436697 -0.6706321107032416 -0.7254077115774563
vn 0.15503620247436697 0.6706321107032416 0.7254077115774563
vn -0.23001269197405919 -0.6706320765993202 -0.7052281753921423
vn 0.23001269197405919 0.6706320765993202 0.7052281753921423
vn -0.302469090670459 -0.6706320793146153 -0.6773219791082681
vn 0.302469090670459 0.6706320793146153 0.6773219791082681
vn -0.3716115051823695 -0.6706321093524107 -0.641994908953046
vn 0.3716115051823695 0.6706321093524107 0.641994908953046
vn -0.4366825911246077 -0.6706320863696813 -0.5996339878126883
vn 0.4366825911246077 0.6706320863696813 0.5996339878126883
vn -0.49696919153397834 -0.6706320885755779 -0.5507033906185999
vn 0.49696919153397834 0.6706320885755779 0.5507033906185999
vn -0.5518108897015921 -0.6706320874840405 -0.4957391907480543
vn 0.5518108897015921 0.6706320874840405 0.4957391907480543
vn -0.6006068925313723 -0.6706320916605994 -0.43534349458644495
vn 0.6006068925313723 0.6706320916605994 0.43534349458644495
vn -0.6428224981434418 -0.670632098063124 -0.3701780989308757
vn 0.6428224981434418 0.670632098063124 0.3701780989308757
vn -0.677995193009039 -0.6706320930849615 -0.30095699689676464
vn 0.677995193009039 0.6706320930849615 0.30095699689676464
vn -0.7057396194640098 -0.6706321184957592 -0.22843850630024046
vn 0.7057396194640098 0.6706321184957592 0.22843850630024046
vn -0.7257518741777996 -0.670632076138958 -0.15341719454142705
vn 0.7257518741777996 0.670632076138958 0.15341719454142705
vn -0.7378125816400594 -0.6706320833117981 -0.07671507809099992
vn 0.7378125816400594 0.6706320833117981 0.07671507809099992
vn -0.7417896786818048 -0.6706320807267935 0.0008275875762160703
vn 0.7417896786818048 0.6706320807267935 -0.0008275875762160703
vn -0.7376395745009857 -0.6706320768173272 0.07836118729117972
vn 0.7376395745009857 0.6706320768173272 -0.07836118729117972
vn -0.7254077115774563 -0.6706321107032416 0.15503620247436697
vn 0.7254077115774563 0.6706321107032416 -0.15503620247436697
vn -0.7052281753921423 -0.6706320765993202 0.23001269197405919
vn 0.7052281753921423 0.6706320765993202 -0.23001269197405919
vn -0.6773219791082681 -0.6706320793146153 0.302469090670459
vn 0.6773219791082681 0.6706320793146153 -0.302469090670459
vn -0.641994908953046 -0.6706321093524107 0.3716115051823695
vn 0.641994908953046 0.6706321093524107 -0.3716115051823695
vn -0.5996339878126883 -0.6706320863696813 0.4366825911246077
vn 0.5996339878126883 0.6706320863696813 -0.4366825911246077
vn -0.5507033906185999 -0.6706320885755779 0.49696919153397834
vn 0.5507033906185999 0.6706320885755779 -0.49696919153397834
vn -0.4957391907480543 -0.6706320874840405 0.5518108897015921
vn 0.4957391907480543 0.6706320874840405 -0.5518108897015921
vn -0.43534349458644495 -0.6706320916605994 0.6006068925313723
vn 0.43534349458644495 0.6706320916605994 -0.6006068925313723
vn -0.3701780989308757 -0.670632098063124 0.6428224981434418
vn 0.3701780989308757 0.670632098063124 -0.6428224981434418
vn -0.30095699689676464 -0.6706320930849615 0.677995193009039
vn 0.30095699689676464 0.6706320930849615 -0.677995193009039
vn -0.22843850630024046 -0.6706321184957592 0.7057396194640098
vn 0.22843850630024046 0.6706321184957592 -0.7057396194640098
vn -0.15341719454142705 -0.670632076138958 0.7257518741777996
vn 0.15341719454142705 0.670632076138958 -0.7257518741777996
vn -0.07671507809099992 -0.6706320833117981 0.7378125816400594
vn 0.07671507809099992 0.6706320833117981 -0.7378125816400594
vn 0.0008275875762160703 -0.6706320807267935 0.7417896786818048
vn -0.0008275875762160703 0.6706320807267935 -0.7417896786818048
usemtl material_0_0
f 1//1 2//1 3//1
f 2//1 1//1 4//1
f 4//1 1//1 5//1
f 4//1 5//1 6//1
f 6//1 5//1 7//1
f 6//1 7//1 8//1
f 8//1 7//1 9//1
f 8//1 9//1 10//1
f 10//1 9//1 11//1
f 10//1 11//1 12//1
f 12//1 11//1 13//1
f 12//1 13//1 14//1
f 14//1 13//1 15//1
f 14//1 15//1 16//1
f 16//1 15//1 17//1
f 16//1 17//1 18//1
f 18//1 17//1 19//1
f 18//1 19//1 20//1
f 20//1 19//1 21//1
f 20//1 21//1 22//1
f 22//1 21//1 23//1
f 22//1 23//1 24//1
f 24//1 23//1 25//1
f 24//1 25//1 26//1
f 26//1 25//1 27//1
f 26//1 27//1 28//1
f 28//1 27//1 29//1
f 28//1 29//1 30//1
f 30//1 29//1 31//1
f 30//1 31//1 32//1
f 32//1 31//1 33//1
f 32//1 33//1 34//1
f 34//1 33//1 35//1
f 34//1 35//1 36//1
f 36//1 35//1 37//1
f 36//1 37//1 38//1
f 38//1 37//1 39//1
f 38//1 39//1 40//1
f 40//1 39//1 41//1
f 40//1 41//1 42//1
f 42//1 41//1 43//1
f 42//1 43//1 44//1
f 44//1 43//1 45//1
f 44//1 45//1 46//1
f 46//1 45//1 47//1
f 46//1 47//1 48//1
f 48//1 47//1 49//1
f 48//1 49//1 50//1
f 50//1 49//1 51//1
f 50//1 51//1 52//1
f 52//1 51//1 53//1
f 52//1 53//1 54//1
f 54//1 53//1 55//1
f 54//1 55//1 56//1
f 56//1 55//1 57//1
f 56//1 57//1 58//1
f 58//1 57//1 59//1
f 58//1 59//1 60//1
f 61//2 62//2 63//2
f 62//2 64//2 63//2
f 63//2 64//2 65//2
f 64//2 66//2 65//2
f 65//2 66//2 67//2
f 66//2 68//2 67//2
f 67//2 68//2 69//2
f 68//2 70//2 69//2
f 69//2 70//2 71//2
f 70//2 72//2 71//2
f 71//2 72//2 73//2
f 72//2 74//2 73//2
f 73//2 74//2 75//2
f 74//2 76//2 75//2
f 75//2 76//2 77//2
f 76//2 78//2 77//2
f 77//2 78//2 79//2
f 78//2 80//2 79//2
f 79//2 80//2 81//2
f 80//2 82//2 81//2
f 81//2 82//2 83//2
f 82//2 84//2 83//2
f 83//2 84//2 85//2
f 84//2 86//2 85//2
f 85//2 86//2 87//2
f 86//2 88//2 87//2
f 87//2 88//2 89//2
f 88//2 90//2 89//2
f 89//2 90//2 91//2
f 90//2 92//2 91//2
f 91//2 92//2 93//2
f 92//2 94//2 93//2
f 93//2 94//2 95//2
f 94//2 96//2 95//2
f 95//2 96//2 97//2
f 96//2 98//2 97//2
f 97//2 98//2 99//2
f 98//2 100//2 99//2
f 99//2 100//2 101//2
f 100//2 102//2 101//2
f 101//2 102//2 103//2
f 102//2 104//2 103//2
f 103//2 104//2 105//2
f 104//2 106//2 105//2
f 105//2 106//2 107//2
f 106//2 108//2 107//2
f 107//2 108//2 109//2
f 108//2 110//2 109//2
f 109//2 110//2 111//2
f 110//2 112//2 111//2
f 111//2 112//2 113//2
f 112//2 114//2 113//2
f 113//2 114//2 115//2
f 114//2 116//2 115//2
f 115//2 116//2 117//2
f 116//2 118//2 117//2
f 117//2 118//2 119//2
f 120//2 119//2 118//2
f 121//3 122//4 123//4
f 122//4 121//3 124//3
f 125//5 126//5 127//6
f 128//6 127//6 126//5
f 129//7 124//3 121//3
f 124//3 129//7 130//7
f 131//8 132//8 125//5
f 126//5 125//5 132//8
f 133//9 130//7 129//7
f 130//7 133//9 134//9
f 135//10 136//10 131//8
f 132//8 131//8 136//10
f 137//11 134//9 133//9
f 134//9 137//11 138//11
f 139//12 140//12 135//10
f 136//10 135//10 140//12
f 141//13 138//11 137//11
f 138//11 141//13 142//13
f 143//14 144//14 139//12
f 140//12 139//12 144//14
f 145//15 142//13 141//13
f 142//13 145//15 146//15
f 147//16 148//16 143//14
f 144//14 143//14 148//16
f 145//15 149//17 146//15
f 149//17 145//15 150//17
f 151//18 148//16 152//18
f 147//16 152//18 148//16
f 150//17 153//19 149//17
f 153//19 150//17 154//19
f 155//20 151//18 156//20
f 152//18 156//20 151//18
f 154//19 157//21 153//19
f 157//21 154//19 158//21
f 159//22 155//20 160//22
f 156//20 160//22 155//20
f 158//21 161//23 157//21
f 161//23 158//21 162//23
f 163//24 159//22 164//24
f 160//22 164//24 159//22
f 162//23 165//25 161//23
f 165//25 162//23 166//25
f 167//26 163//24 168//26
f 164//24 168//26 163//24
f 166//25 169//27 165//25
f 169//27 166//25 170//27
f 171//28 167//26 172//28
f 168//26 172//28 167//26
f 170//27 173//29 169//27
f 173//29 170//27 174//29
f 175//30 171//28 176//30
f 172//28 176//30 171//28
f 174//29 177//31 173//29
f 177//31 174//29 178//31
f 179//32 175//30 180//32
f 176//30 180//32 175//30
f 178//31 181//33 177//31
f 181//33 178//31 182//33
f 183//34 179//32 184//34
f 180//32 184//34 179//32
f 182//33 185//35 181//33
f 185//35 182//33 186//35
f 187//36 183//34 188//36
f 184//34 188//36 183//34
f 186//35 189//37 185//35
f 189//37 186//35 190//37
f 191//38 187//36 192//38
f 188//36 192//38 187//36
f 190//37 193//39 189//37
f 193//39 190//37 194//39
f 195//40 191//38 196//40
f 192//38 196//40 191//38
f 194//39 197//41 193//39
f 197//41 194//39 198//41
f 199//42 195//40 200//42
f 196//40 200//42 195//40
f 198//41 201//43 197//41
f 201//43 198//41 202//43
f 203//44 199//42 204//44
f 200//42 204//44 199//42
f 202//43 205//45 201//43
f 205//45 202//43 206//45
f 207//46 203//44 208//46
f 204//44 208//46 203//44
f 205//45 209//47 210//47
f 209//47 205//45 206//45
f 207//46 208//46 211//48
f 212//48 211//48 208//46
f 210//47 213//49 214//49
f 213//49 210//47 209//47
f 211//48 212//48 215//50
f 216//50 215//50 212//48
f 214//49 217//51 218//51
f 217//51 214//49 213//49
f 215//50 216//50 219//52
f 220//52 219//52 216//50
f 218//51 221//53 222//53
f 221//53 218//51 217//51
f 219//52 220//52 223//54
f 224//54 223//54 220//52
f 222//53 225//55 226//55
f 225//55 222//53 221//53
f 223//54 224//54 227//56
f 228//56 227//56 224//54
f 226//55 229//57 230//57
f 229//57 226//55 225//55
f 227//56 228//56 231//58
f 232//58 231//58 228//56
f 230//57 233//59 234//59
f 233//59 230//57 229//57
f 231//58 232//58 235//60
f 236//60 235//60 232//58
f 234//59 237//61 238//61
f 237//61 234//59 233//59
f 235//60 236//60 239//62
f 240//62 239//62 236//60
f 238//61 241//6 242//6
f 241//6 238//61 237//61
f 239//62 240//62 243//4
f 244//4 243//4 240//62
f 242//6 245//5 246//5
f 245//5 242//6 241//6
f 243//4 244//4 247//3
f 248//3 247//3 244//4
f 246//5 249//8 250//8
f 249//8 246//5 245//5
f 247//3 248//3 251//7
f 252//7 251//7 248//3
f 250//8 253//10 254//10
f 253//10 250//8 249//8
f 251//7 252//7 255//9
f 256//9 255//9 252//7
f 254//10 257//12 258//12
f 257//12 254//10 253//10
f 255//9 256//9 259//11
f 260//11 259//11 256//9
f 258//12 261//14 262//14
f 261//14 258//12 257//12
f 259//11 260//11 263//13
f 264//13 263//13 260//11
f 262//14 265//16 266//16
f 265//16 262//14 261//14
f 263//13 264//13 267//15
f 268//15 267//15 264//13
f 265//16 269//18 266//16
f 269//18 265//16 270//18
f 271//17 267//15 272//17
f 268//15 272//17 267//15
f 270//18 273//20 269//18
f 273//20 270//18 274//20
f 275//19 271//17 276//19
f 272//17 276//19 271//17
f 274//20 277//22 273//20
f 277//22 274//20 278//22
f 279//21 275//19 280//21
f 276//19 280//21 275//19
f 278//22 281//24 277//22
f 281//24 278//22 282//24
f 283//23 279//21 284//23
f 280//21 284//23 279//21
f 282//24 285//26 281//24
f 285//26 282//24 286//26
f 287//25 283//23 288//25
f 284//23 288//25 283//23
f 286//26 289//28 285//26
f 289//28 286//26 290//28
f 291//27 287//25 292//27
f 288//25 292//27 287//25
f 290//28 293//30 289//28
f 293//30 290//28 294//30
f 295//29 291//27 296//29
f 292//27 296//29 291//27
f 294//30 297//32 293//30
f 297//32 294//30 298//32
f 299//31 295//29 300//31
f 296//29 300//31 295//29
f 298//32 301//34 297//32
f 301//34 298//32 302//34
f 303//33 299//31 304//33
f 300//31 304//33 299//31
f 302//34 305//36 301//34
f 305//36 302//34 306//36
f 307//35 303//33 308//35
f 304//33 308//35 303//33
f 306//36 309//38 305//36
f 309//38 306//36 310//38
f 311//37 307//35 312//37
f 308//35 312//37 307//35
f 310//38 313//40 309//38
f 313//40 310//38 314//40
f 315//39 311//37 316//39
f 312//37 316//39 311//37
f 314//40 317//42 313//40
f 317//42 314//40 318//42
f 319//41 315//39 320//41
f 316//39 320//41 315//39
f 318//42 321//44 317//42
f 321//44 318//42 322//44
f 323//43 319//41 324//43
f 320//41 324//43 319//41
f 322//44 325//46 321//44
f 325//46 322//44 326//46
f 327//45 323//43 328//45
f 324//43 328//45 323//43
f 329//48 325//46 326//46
f 325//46 329//48 330//48
f 331//47 332//47 328//45
f 327//45 328//45 332//47
f 333//50 330//48 329//48
f 330//48 333//50 334//50
f 335//49 336//49 331//47
f 332//47 331//47 336//49
f 337//52 334//50 333//50
f 334//50 337//52 338//52
f 339//51 340//51 335//49
f 336//49 335//49 340//51
f 341//54 338//52 337//52
f 338//52 341//54 342//54
f 343//53 344//53 339//51
f 340//51 339//51 344//53
f 345//56 342//54 341//54
f 342//54 345//56 346//56
f 347//55 348//55 343//53
f 344//53 343//53 348//55
f 349//58 346//56 345//56
f 346//56 349//58 350//58
f 351//57 352//57 347//55
f 348//55 347//55 352//57
f 353//60 350//58 349//58
f 350//58 353//60 354//60
f 355//59 356//59 351//57
f 352//57 351//57 356//59
f 357//62 354//60 353//60
f 354//60 357//62 358//62
f 359//61 360//61 355//59
f 356//59 355//59 360//61
f 123//4 358//62 357//62
f 358//62 123//4 122//4
f 127//6 128//6 359//61
f 360//61 359//61 128//6
f 361//63 362//64 363//64
f 362//64 361//63 364//63
f 365//65 366//65 367//66
f 368//66 367//66 366//65
f 369//67 364//63 361//63
f 364//63 369//67 370//67
f 371//68 372//68 365//65
f 366//65 365//65 372//68
f 373//69 370//67 369//67
f 370//67 373//69 374//69
f 375//70 376//70 371//68
f 372//68 371//68 376//70
f 377//71 373//69 378//71
f 373//69 377//71 374//69
f 375//70 379//72 376//70
f 380//72 376//70 379//72
f 381//73 378//71 382//73
f 378//71 381//73 377//71
f 379//72 383//74 380//72
f 384//74 380//72 383//74
f 385//75 382//73 386//75
f 382//73 385//75 381//73
f 383//74 387//76 384//74
f 388//76 384//74 387//76
f 389//77 386//75 390//77
f 386//75 389//77 385//75
f 387//76 391//78 388//76
f 392//78 388//76 391//78
f 393//79 390//77 394//79
f 390//77 393//79 389//77
f 391//78 395//80 392//78
f 396//80 392//78 395//80
f 397//81 394//79 398//81
f 394//79 397//81 393//79
f 395//80 399//82 396//80
f 400//82 396//80 399//82
f 401//83 398//81 402//83
f 398//81 401//83 397//81
f 399//82 403//84 400//82
f 404//84 400//82 403//84
f 405//85 402//83 406//85
f 402//83 405//85 401//83
f 403//84 407//86 404//84
f 408//86 404//84 407//86
f 409//87 406//85 410//87
f 406//85 409//87 405//85
f 407//86 411//88 408//86
f 412//88 408//86 411//88
f 413//89 410//87 414//89
f 410//87 413//89 409//87
f 411//88 415//90 412//88
f 416//90 412//88 415//90
f 417//91 414//89 418//91
f 414//89 417//91 413//89
f 415//90 419//92 416//90
f 420//92 416//90 419//92
f 421//93 418//91 422//93
f 418//91 421//93 417//91
f 419//92 423//94 420//92
f 424//94 420//92 423//94
f 425//95 422//93 426//95
f 422//93 425//95 421//93
f 423//94 427//96 424//94
f 428//96 424//94 427//96
f 429//97 426//95 430//97
f 426//95 429//97 425//95
f 427//96 431//98 428//96
f 432//98 428//96 431//98
f 433//99 430//97 434//99
f 430//97 433//99 429//97
f 431//98 435//100 432//98
f 436//100 432//98 435//100
f 433//99 437//101 438//101
f 437//101 433//99 434//99
f 436//100 435//100 439//102
f 440//102 439//102 435//100
f 438//101 441//103 442//103
f 441//103 438//101 437//101
f 439//102 440//102 443//104
f 444//104 443//104 440//102
f 442//103 445//105 446//105
f 445//105 442//103 441//103
f 443//104 444//104 447//106
f 448//106 447//106 444//104
f 446//105 449//107 450//107
f 449//107 446//105 445//105
f 447//106 448//106 451//108
f 452//108 451//108 448//106
f 450//107 453//109 454//109
f 453//109 450//107 449//107
f 451//108 452//108 455//110
f 456//110 455//110 452//108
f 454//109 457//111 458//111
f 457//111 454//109 453//109
f 455//110 456//110 459//112
f 460//112 459//112 456//110
f 458//111 461//113 462//113
f 461//113 458//111 457//111
f 459//112 460//112 463//114
f 464//114 463//114 460//112
f 465//115 461//113 466//115
f 461//113 465//115 462//113
f 464//114 467//116 463//114
f 468//116 463//114 467//116
f 469//117 466//115 470//117
f 466//115 469//117 465//115
f 467//116 471//118 468//116
f 472//118 468//116 471//118
f 473//119 470//117 474//119
f 470//117 473//119 469//117
f 471//118 475//120 472//118
f 476//120 472//118 475//120
f 473//119 477//121 478//121
f 477//121 473//119 474//119
f 476//120 475//120 479//122
f 480//122 479//122 475//120
f 478//121 481//123 482//123
f 481//123 478//121 477//121
f 479//122 480//122 483//124
f 484//124 483//124 480//122
f 482//123 485//125 486//125
f 485//125 482//123 481//123
f 483//124 484//124 487//126
f 488//126 487//126 484//124
f 486//125 489//127 490//127
f 489//127 486//125 485//125
f 487//126 488//126 491//128
f 492//128 491//128 488//126
f 490//127 493//129 494//129
f 493//129 490//127 489//127
f 491//128 492//128 495//130
f 496//130 495//130 492//128
f 493//129 497//131 494//129
f 497//131 493//129 498//131
f 499//132 495//130 500//132
f 496//130 500//132 495//130
f 498//131 501//133 497//131
f 501//133 498//131 502//133
f 503//134 499//132 504//134
f 500//132 504//134 499//132
f 502//133 505//135 501//133
f 505//135 502//133 506//135
f 507//136 503//134 508//136
f 504//134 508//136 503//134
f 506//135 509//137 505//135
f 509//137 506//135 510//137
f 511//138 507//136 512//138
f 508//136 512//138 507//136
f 510//137 513//139 509//137
f 513//139 510//137 514//139
f 515//140 511//138 516//140
f 512//138 516//140 511//138
f 514//139 517//141 513//139
f 517//141 514//139 518//141
f 519//142 515//140 520//142
f 516//140 520//142 515//140
f 518//141 521//143 517//141
f 521//143 518//141 522//143
f 523//144 519//142 524//144
f 520//142 524//144 519//142
f 525//145 522//143 526//145
f 522//143 525//145 521//143
f 524//144 527//146 523//144
f 528//146 523//144 527//146
f 529//147 526//145 530//147
f 526//145 529//147 525//145
f 527//146 531//148 528//146
f 532//148 528//146 531//148
f 533//149 530//147 534//149
f 530//147 533//149 529//147
f 531//148 535//150 532//148
f 536//150 532//148 535//150
f 537//151 534//149 538//151
f 534//149 537//151 533//149
f 535//150 539//152 536//150
f 540//152 536//150 539//152
f 541//153 538//151 542//153
f 538//151 541//153 537//151
f 539//152 543//154 540//152
f 544//154 540//152 543//154
f 545//155 542//153 546//155
f 542//153 545//155 541//153
f 543//154 547//156 544//154
f 548//156 544//154 547//156
f 549//157 546//155 550//157
f 546//155 549//157 545//155
f 547//156 551//158 548//156
f 552//158 548//156 551//158
f 553//159 550//157 554//159
f 550//157 553//159 549//157
f 551//158 555//160 552//158
f 556//160 552//158 555//160
f 557//161 553//159 554//159
f 553//159 557//161 558//161
f 559//162 560//162 555//160
f 556//160 555//160 560//162
f 561//163 558//161 557//161
f 558//161 561//163 562//163
f 563//164 564//164 559//162
f 560//162 559//162 564//164
f 565//165 562//163 561//163
f 562//163 565//165 566//165
f 567//166 568//166 563//164
f 564//164 563//164 568//166
f 569//167 566//165 565//165
f 566//165 569//167 570//167
f 571//168 572//168 567//166
f 568//166 567//166 572//168
f 573//169 570//167 569//167
f 570//167 573//169 574//169
f 575//170 576//170 571//168
f 572//168 571//168 576//170
f 577//171 574//169 573//169
f 574//169 577//171 578//171
f 579//172 580//172 575//170
f 576//170 575//170 580//172
f 581//173 578//171 577//171
f 578//171 581//173 582//173
f 583//174 584//174 579//172
f 580//172 579//172 584//174
f 581//173 585//175 582//173
f 585//175 581//173 586//175
f 587//176 584//174 588//176
f 583//174 588//176 584//174
f 586//175 589//177 585//175
f 589//177 586//175 590//177
f 591//178 587//176 592//178
f 588//176 592//178 587//176
f 590//177 593//179 589//177
f 593//179 590//177 594//179
f 595//180 591//178 596//180
f 592//178 596//180 591//178
f 594//179 597//181 593//179
f 597//181 594//179 598//181
f 599//182 595//180 600//182
f 596//180 600//182 595//180
f 363//64 597//181 598//181
f 597//181 363//64 362//64
f 367//66 368//66 600//182
f 599//182 600//182 368//66
