# SSTK version 0.8.0
# 8
mtllib original_8.mtl
o #ID71
v -0.07421012 0.55465510 0.07039918
v 0.06169997 0.55446702 0.05530001
v -0.05923205 0.55462688 0.05521325
v 0.07678508 0.55453758 0.07052654
v -0.05921920 0.55462002 -0.06560825
v -0.07428065 0.55478159 -0.08080040
v 0.06170271 0.55456603 -0.06548690
v 0.07689985 0.55465948 -0.08065880
vt 0.5004703 0.2272112
vt 0.483071 0.3838045
vt 0.483071 0.2446104
vt 0.5004703 0.4012039
vt 0.3438767 0.2446104
vt 0.3264775 0.2272112
vt 0.3438767 0.3838045
vt 0.3264774 0.4012037
vn 0 1 0
usemtl material_0_0
f 1/1/1 2/2/1 3/3/1
f 2/2/1 1/1/1 4/4/1
f 1/1/1 5/5/1 6/6/1
f 5/5/1 1/1/1 3/3/1
f 7/7/1 4/4/1 8/8/1
f 4/4/1 7/7/1 2/2/1
f 6/6/1 7/7/1 8/8/1
f 7/7/1 6/6/1 5/5/1
