# SSTK version 0.8.0
# 9
mtllib original_9.mtl
o #ID79
v -0.00009767 0.94634497 0.37603814
v -0.00005211 0.99445334 0.37600757
v -0.02419605 0.97029831 0.37604183
v 0.02407921 0.97044375 0.37602875
v 0.02417762 0.97022161 0.37617995
v -0.00007055 0.94622746 0.37605024
v -0.00007107 0.95490904 0.07006456
v 0.00001245 0.99448408 0.03330373
v 0.02418729 0.97041726 0.37615342
v 0.02415897 0.97041442 0.03324786
v -0.00021620 0.99453734 0.37600390
v -0.00025601 0.99447297 0.07002134
v -0.00013424 0.99451019 0.37595419
v -0.00011579 1.00300951 0.07005937
v -0.02437896 0.97025663 0.37602005
v -0.02418793 0.97035604 0.37607548
v -0.00005762 0.95474687 0.07005881
v -0.00024540 0.94608876 0.37597712
v 0.02406350 0.97046803 0.03329782
v 0.00003333 0.99453114 0.03316285
v -0.00013992 0.94605578 0.03326589
v -0.02433724 0.97033939 0.03316895
v 0.02385877 0.97046336 0.03311669
v -0.00013013 0.99450899 0.03315931
v -0.02439316 0.97049977 0.03317403
v -0.00010835 0.94630166 0.03330474
v 0.00002038 0.94609271 0.03311474
v -0.02436401 0.97040047 0.03306740
vt 0.3126384 1.788903
vt 0.3126384 1.844581
vt 0.2847995 1.816742
vt 0.3404773 1.816742
vt -0.8617726 1.508668
vt -0.8609956 1.469305
vt -0.5086085 1.483222
vt -0.4575667 1.083248
vt -0.8526024 1.043878
vt -0.4575667 1.043878
vt -0.8526023 1.083248
vt -0.500078 1.083248
vt 0.8609956 1.508686
vt 0.5086086 1.522602
vt 0.8602187 1.469323
vt 0.8443217 1.066789
vt 0.4911577 1.041343
vt 0.8435448 1.027427
vt -0.8526024 1.272222
vt -0.5000779 1.239073
vt -0.4575667 1.272222
vt -0.3126376 1.844581
vt -0.3126376 1.788903
vt -0.2847987 1.816742
vt -0.3404765 1.816742
vt 0.4824834 1.883009
vt 0.4400341 1.872903
vt 0.8359962 1.844318
vt 0.8526023 0.7471136
vt 0.4575667 0.7471136
vt 0.5000779 0.7139644
vt -0.4166715 1.579652
vt -0.3752559 1.565911
vt -0.3689765 1.604777
vt 0.5577093 1.15457
vt 0.5100142 1.179695
vt 0.5162936 1.140828
vt 0.8526023 1.486013
vt 0.4575667 1.525384
vt 0.4575667 1.486013
vn -0.0000013486979999987733 0 1
vn 0.6980666993878589 -0.7157914993723159 -0.018585279983702397
vn 0.7069671212292143 -0.7069709212293285 -0.01973844059271722
vn 0.5902726751543691 -0.8062612660630236 0.03899922835845284
vn 0.7071067811865476 0.7071067811865476 0
vn -0.7069690181618238 0.7069690181618238 0.01973866050708032
vn -0.9678185982158496 0.2466178995453658 -0.05006767990770143
vn -0.7157198018024453 0.6981840017582838 0.016860160042460076
vn -0.6980666992581213 -0.715791499239284 -0.01858528998024826
vn -0.5902727232061729 -0.806261231697615 0.03899921153322762
vn -0.7069671212292143 -0.7069709212293285 -0.01973844059271722
vn 0.6386841979071397 -0.7635819974978706 0.09500014968870055
vn 6.743487999998467e-7 0 -1
vn -0.7696035863481325 0.6384550886745535 -0.009242273836052872
vn -0.6386843064909103 -0.7635819077602373 0.09500014096548075
vn 0.6978168575379642 -0.697817057537952 0.1615641901688468
vn -0.6978169688121842 -0.6978169688121842 0.1615640927791507
vn -0.7071067811865476 0.7071067811865476 0
usemtl material_0_0
f 1/1/1 2/2/1 3/3/1
f 2/2/1 1/1/1 4/4/1
f 5/5/2 6/6/3 7/7/4
f 8/8/5 9/9/5 10/10/5
f 9/9/5 8/8/5 11/11/5
f 11/11/5 8/8/5 12/12/5
f 13/13/6 14/14/7 15/15/8
f 16/16/9 17/17/10 18/18/11
f 5/19/2 7/20/4 19/21/12
f 20/22/13 21/23/13 22/24/13
f 21/23/13 20/22/13 23/25/13
f 14/26/7 24/27/14 15/28/8
f 16/29/9 25/30/15 17/31/10
f 7/32/4 26/33/16 19/34/12
f 17/35/10 25/36/15 27/37/17
f 15/38/8 24/39/14 28/40/18
