# SSTK version 0.8.0
# 2
mtllib original_2.mtl
o #ID18
v -0.00003845 0.65810738 0.05391781
v 0.15854995 0.65765519 -0.00519450
v 0.05903224 0.65825849 -0.00518812
v -0.00004636 0.65786959 0.15344420
v -0.00010649 0.65813750 -0.06425112
v -0.00018071 0.65778265 -0.16391955
v 0.05910432 0.80565248 -0.00513347
v -0.00004680 0.65799848 0.05413875
v 0.05919624 0.65812623 -0.00516713
v 0.00001728 0.80586763 0.05384474
v -0.15869942 0.65777634 -0.00511281
v -0.05921765 0.65817665 -0.00512546
v -0.00004783 0.65797847 -0.06444554
v 0.05905128 0.80580245 -0.00522799
v 0.05916885 0.65815625 -0.00511634
v -0.00009902 0.80562962 -0.06438772
v -0.05935577 0.80570988 -0.00525533
v 0.05893031 0.80569549 -0.00508355
v 0.00005675 0.80572065 -0.06456263
v -0.00001864 0.80570242 0.05402208
v -0.00006674 0.65808714 0.05391313
v -0.05936062 0.80566808 -0.00538430
v -0.05936249 0.65814229 -0.00520081
v -0.00024047 0.80561414 0.05393818
v 0.00003982 0.44509601 0.15818043
v -0.15872828 0.65769332 -0.00515165
v -0.16360374 0.44517081 -0.00514000
v -0.00007780 0.65768748 0.15349733
v -0.15883795 0.65757960 -0.00516500
v -0.00009856 0.44508567 -0.16876412
v -0.16350254 0.44505357 -0.00528156
v -0.00019074 0.65774002 -0.16386413
v -0.05939059 0.80575861 -0.00520856
v -0.00014059 0.65822896 -0.06424518
v -0.05943016 0.65807897 -0.00522388
v -0.00011673 0.80567505 -0.06442832
vt -0.119371 -0.5527631
vt 0.05809125 -0.633762
vt -0.02294434 -0.5527486
vt -0.2003828 -0.6338001
vt -0.4651589 0.03192766
vt -0.6426212 -0.04907123
vt -0.3841472 -0.04910937
vt -0.5615856 0.03194208
vt -0.02302814 1.627115
vt -0.1194549 1.457037
vt -0.02302826 1.457037
vt -0.1194549 1.627115
vt 0.3841022 -0.1917115
vt 0.5615675 -0.1107186
vt 0.4651406 -0.1107012
vt 0.6425764 -0.1917585
vt 0.2004075 0.3929999
vt 0.02294206 0.4739928
vt -0.0580669 0.392953
vt 0.1193691 0.4740103
vt -0.4651624 1.457037
vt -0.5615892 1.627115
vt -0.561589 1.457037
vt -0.4651624 1.627115
vt 0.4133858 0.244453
vt 0.4133858 0.3808212
vt 0.3452016 0.3126373
vt 0.4815699 0.3126373
vt 0.5615892 1.457037
vt 0.4651622 1.627115
vt 0.4651622 1.457037
vt 0.5615892 1.627115
vt 0.6465266 1.208067
vt 0.3841387 1.453159
vt 0.3802252 1.208067
vt 0.6426129 1.453158
vt 0.2004774 1.462494
vt -0.06191067 1.217403
vt 0.2043909 1.217403
vt -0.05799699 1.462493
vt 0.1194535 1.627115
vt 0.02302647 1.457037
vt 0.1194535 1.457037
vt 0.02302647 1.627115
vn -2.757772017980525e-7 0.9999908065198861 0.004287992027957477
vn 0.0042863040589653555 0.9999908137565634 1.1435890157319995e-9
vn 0.0042863040589653555 0.9999908137565634 -1.2485610171760667e-9
vn -2.825819018424182e-7 0.9999908065198841 0.004287992027957468
vn -2.7800580181258264e-7 0.9999908065198855 -0.004287992027957474
vn -2.82517601841999e-7 0.9999908065198841 -0.004287992027957468
vn 0.7071086811839041 -3.371763910277678e-7 0.7071048811840053
vn -0.004286864048682498 0.9999908113560986 1.079673012260986e-9
vn -0.004286864048682498 0.9999908113560986 0
vn 0.7071084811844186 -3.371762910280132e-7 -0.7071050811845091
vn 0 1 0
vn -0.707106181186309 0 0.707107381186277
vn -0.707016577566686 0.015967989493342966 0.7070166775666828
vn -0.7070170275538398 0.015967990622303904 -0.7070162275538086
vn -0.7071067811865476 0 -0.7071067811865476
usemtl material_0_0
f 1/1/1 2/2/2 3/3/3
f 2/2/2 1/1/1 4/4/4
f 5/5/5 2/6/2 6/7/6
f 2/6/2 5/5/5 3/8/3
f 7/9/7 8/10/7 9/11/7
f 8/10/7 7/9/7 10/12/7
f 11/13/8 1/14/1 12/15/9
f 1/14/1 11/13/8 4/16/4
f 11/17/8 5/18/5 6/19/6
f 5/18/5 11/17/8 12/20/9
f 13/21/10 14/22/10 15/23/10
f 14/22/10 13/21/10 16/24/10
f 17/25/11 18/26/11 19/27/11
f 18/26/11 17/25/11 20/28/11
f 21/29/12 22/30/12 23/31/12
f 22/30/12 21/29/12 24/32/12
f 25/33/13 26/34/13 27/35/13
f 26/34/13 25/33/13 28/36/13
f 29/37/14 30/38/14 31/39/14
f 30/38/14 29/37/14 32/40/14
f 33/41/15 34/42/15 35/43/15
f 34/42/15 33/41/15 36/44/15
