# SSTK version 0.8.0
# 6
mtllib original_6.mtl
o #ID55
v 0.20635098 0.36676819 -0.29575145
v 0.20572481 -0.57311001 -0.29520238
v 0.20676893 -0.57296524 -0.00520233
v 0.20585585 -0.57299595 0.28526432
v 0.20630536 0.36654984 -0.29565925
v 0.00119892 -0.57294800 -0.29578029
v 0.20576357 -0.57303032 -0.29523502
v 0.20684251 -0.57305610 -0.00503600
v 0.20593605 -0.57313595 -0.29520981
v 0.00139732 -0.57292835 -0.29575384
v 0.20641866 0.36668235 0.28535975
v 0.00134914 -0.57308782 0.28560708
v 0.20585554 -0.57306842 0.28512257
v -0.20337484 -0.57313148 -0.29539289
v 0.00133395 -0.55180003 -0.00512218
v 0.20639348 0.36669435 0.28548192
v 0.06164985 0.36670081 -0.06554269
v 0.20619909 0.36654462 -0.29555584
v 0.06177311 0.36662937 0.05527161
v 0.20631508 0.36657578 0.28532121
v 0.20583228 -0.57321821 0.28501244
v -0.20394866 0.36657138 0.28543713
v 0.00139576 -0.57323910 0.28564377
v -0.20386645 0.36658351 -0.29577076
v -0.20417351 -0.57296688 -0.00508602
v -0.20321348 -0.57313040 -0.29522631
v -0.05908172 0.36667675 0.05530680
v -0.20381883 0.36672520 0.28545912
v 0.06165825 0.55477874 0.05540608
v 0.06163871 0.36673206 -0.06550578
v 0.06171574 0.36658791 0.05520417
v 0.06178984 0.55455242 -0.06564924
v -0.20388426 0.36670650 -0.29551436
v -0.05897202 0.36666648 -0.06546680
v -0.20342452 -0.57304639 0.28517332
v -0.20330056 -0.57293297 0.28511779
v -0.20394024 0.36669911 -0.29566995
v -0.20427062 -0.57296579 -0.00515114
v -0.20352635 -0.57306133 -0.29527988
v -0.05907467 0.55465302 0.05530270
v 0.06176737 0.36660475 0.05527997
v -0.05917547 0.36657153 0.05524996
v 0.06168215 0.55460779 0.05533223
v 0.06157644 0.36671443 -0.06565043
v -0.05927083 0.55460199 -0.06556824
v -0.05918269 0.36663911 -0.06551879
v 0.06157587 0.55457700 -0.06551645
v -0.20396318 0.36656048 0.28538047
v -0.20336345 -0.57303957 0.28503517
v -0.05909650 0.55459698 -0.06552916
v -0.05919098 0.36662820 0.05539678
v -0.05913018 0.36663894 -0.06548513
v -0.05912716 0.55457621 0.05527567
vt 0.7863299 1.823953
vt 0.1762478 1.823679
vt 0.1763042 1.617778
vt 0.1762927 1.41177
vt 0.6128424 283.1291
vt 0.00279859 283.2746
vt 0.002760365 283.1294
vt -332.0402 282.7424
vt -331.8519 282.747
vt -331.854 282.8922
vt 0.7863299 1.411584
vt -332.2325 282.8881
vt -332.2321 282.7429
vt -332.0437 282.7424
vt 0.002805346 283.4198
vt -332.0432 282.889
vt 64.681 719.8842
vt 64.58704 719.6352
vt 64.68094 719.4719
vt 64.58704 719.7209
vt 0.4841381 436.192
vt -0.125899 436.1917
vt 0.4841383 435.9008
vt -0.1259057 436.0464
vt 0.6128426 283.4202
vt -332.0443 283.0356
vt -331.8559 283.0374
vt 64.50861 719.7209
vt 64.41465 719.8842
vt 0.8707313 1.587664
vt 0.7487149 1.673425
vt 0.7487149 1.587664
vt 0.8707313 1.673425
vt 64.41465 719.4719
vt 64.50861 719.6352
vt -332.2327 283.0334
vt -332.8427 283.0327
vt 63.80463 719.678
vt 63.80462 719.4721
vt 0.8707312 1.501902
vt 0.7487149 1.501902
vt 0.7486966 284.2981
vt 0.870713 284.3839
vt 0.7486966 284.3839
vt 0.8707129 284.2981
vt 63.8046 719.884
vt 0.8707312 1.416141
vt 0.7487149 1.416141
vn -0.999999944693477 0.00022864211021881144 0.00024152811079473165
vn -0.999994890948638 0.0005159367953300455 0.0031546609714458757
vn -0.999999720548886 -0.0005979137122864641 -0.0004487776092218825
vn -0.9999981125064756 -0.0006872690085953293 -0.0018173180227282865
vn -0.00008531869804497854 0.00019633999550099904 0.9999999770856628
vn 0.0001734920083044524 -0.0002723372130358248 0.9999999478664814
vn -0.0029729589849815156 0.0004142437979073664 0.9999954949483271
vn 0.06291768117460025 0.998018718631854 -0.00005153682096213277
vn 0.00028861510371748234 0.9999999128804139 -0.0003015634038842618
vn 0.00010110440085099176 0.9995847084134651 -0.02881667024254878
vn -0.9999998407419983 0.0005390445219617544 0.0001671735068109838
vn 0.020109789934777775 0.9985010967615545 0.05090339983490465
vn -0.00005049004983910287 0.9999999968132902 0.00006183990980293415
vn 0.001891874971357676 -0.0005010834924137716 0.9999980848603794
vn 0.009994930173353575 0.9998894173422328 -0.01101156019098616
vn 0 -1 0
vn -0.00007736973675072019 0.00027929818827037545 -0.999999958003222
vn -0.0019121420693109451 -0.0005207815188771848 -0.9999980362477299
vn -0.000028132929678828883 0.00014846189830512946 -0.9999999885838015
vn -0.0003525184950553508 -0.00032215519548124574 -0.9999998859733639
vn 7.945386378404491e-8 0.0003236489154140022 0.9999999476256853
vn -0.08291817381113174 0.9963131457931053 -0.022015721011898953
vn 0.000049536399844469344 0.9999999968602753 -0.00006185138980580366
vn -1 6.935817999998332e-7 0
vn 0.002559271938346204 0.0003135229924471165 -0.9999966759097145
vn -0.040634889375294816 0.9981743846544504 0.044684489313037826
vn 0.9999999629114247 0.00025873189040400243 0.00008505855684529918
vn 0.9999997148699693 -0.000516553107681131 -0.0005508474081910863
vn 0.9999956539229738 0.0005491821746952085 0.0028966418665307765
vn 0 0 -1
vn 0 0 1
vn 0.9999998503307865 0.0005471182728250616 0
vn 0.9999980592655171 -0.000610386975136154 -0.0018732039236958589
vn 1 -0.0000013871639999986654 0
usemtl material_0_0
f 1/1/1 2/2/2 3/3/3
f 1/1/1 3/3/3 4/4/4
f 5/5/5 6/6/6 7/7/7
f 8/8/8 9/9/9 10/10/10
f 1/1/1 4/4/4 11/11/11
f 12/12/12 13/13/13 8/14/8
f 5/5/5 14/15/14 6/6/6
f 15/16/15 8/8/8 10/10/10
f 16/17/16 17/18/16 18/19/16
f 17/18/16 16/17/16 19/20/16
f 20/21/17 21/22/18 22/23/19
f 21/22/18 23/24/20 22/23/19
f 12/12/12 8/14/8 15/16/15
f 5/5/5 24/25/21 14/15/14
f 25/26/22 10/10/10 26/27/23
f 25/26/22 15/16/15 10/10/10
f 16/17/16 27/28/16 19/20/16
f 27/28/16 16/17/16 28/29/16
f 29/30/24 30/31/24 31/32/24
f 30/31/24 29/30/24 32/33/24
f 17/18/16 33/34/16 18/19/16
f 33/34/16 17/18/16 34/35/16
f 23/12/20 35/36/25 22/37/19
f 12/12/12 15/16/15 36/36/26
f 37/34/27 38/38/28 39/39/29
f 36/36/26 15/16/15 25/26/22
f 40/40/30 41/32/30 42/41/30
f 41/32/30 40/40/30 43/30/30
f 34/35/16 28/29/16 33/34/16
f 28/29/16 34/35/16 27/28/16
f 44/42/31 45/43/31 46/44/31
f 45/43/31 44/42/31 47/45/31
f 48/29/32 49/46/33 37/34/27
f 37/34/27 49/46/33 38/38/28
f 50/47/34 51/41/34 52/48/34
f 51/41/34 50/47/34 53/40/34
