# SSTK version 0.8.0
# 4
mtllib original_4.mtl
o #ID39
v 0.15854993 0.65772823 -0.00529096
v -0.00015001 0.44501024 0.15817287
v 0.16332925 0.44494032 -0.00523757
v 0.00007013 0.65774033 0.15350499
v -0.00019937 0.65780306 -0.16376780
v 0.16332664 0.44499476 -0.00512761
v -0.00004963 0.44496105 -0.16866487
v 0.15852394 0.65777511 -0.00522651
vn 0.7070170223605299 0.015968450505027463 0.7070162223605045
vn 0.7070171723731445 0.015968449376029238 -0.7070160723731876
usemtl material_0_0
f 1//1 2//1 3//1
f 2//1 1//1 4//1
f 5//2 6//2 7//2
f 6//2 5//2 8//2
