# SSTK version 0.8.0
# 1
mtllib original_1.mtl
o #ID5
v 0.05507907 0.06038052 -0.00526003
v -0.00027893 0.44498871 0.04991848
v -0.00004318 0.06027512 0.04993341
v 0.05494778 0.44497307 -0.00529151
v -0.00002175 0.44493715 0.15827257
v 0.05499353 0.44514622 -0.00530752
v 0.16339646 0.44507355 -0.00519055
v -0.00010943 0.44495873 0.05000013
v -0.00001126 0.06034827 0.04987827
v -0.05542368 0.44492095 -0.00522581
v -0.05539988 0.06029416 -0.00520429
v -0.00016293 0.44491982 0.05003181
v 0.05506657 0.06025719 -0.00525265
v -0.05522853 0.06027072 -0.00501196
v -0.00019128 0.06018385 -0.06031315
v -0.00009939 0.06019291 0.04995512
v -0.00015182 0.44501318 -0.06030807
v 0.05495402 0.06023659 -0.00523875
v 0.00002523 0.06019004 -0.06030143
v 0.05509991 0.44509715 -0.00527056
v -0.00010065 0.44491239 -0.06026626
v -0.00010265 0.44513597 -0.16862668
v -0.16356468 0.44481618 -0.00534198
v -0.05515156 0.44488052 -0.00523595
v -0.05522028 0.44507648 -0.00516238
v -0.00001764 0.06015822 -0.06043379
v -0.05536161 0.06028041 -0.00522969
v -0.00000859 0.44509327 -0.06021060
vt 0.5683471 160.6192
vt 0.7996235 160.6704
vt 0.568347 160.6704
vt 0.7996236 160.6192
vt 0.8456631 160.6201
vt 0.7527589 160.6704
vt 0.7067193 160.6201
vt 0.7996235 160.7216
vt 0.5683469 160.7216
vt 0.5214824 160.6704
vt 0.5214822 160.7216
vt 0.7996235 160.7729
vt 0.568347 160.8241
vt 0.5683469 160.7729
vt 0.7996235 160.8241
vt 0.8456631 160.8745
vt 0.8456631 160.7225
vt 0.8456631 160.772
vt 0.7067192 160.7225
vt 0.7527589 160.7729
vn 0.7071076811859508 0 0.7071058811859986
vn 0 -1 0
vn -0.7071067811865238 2.5874329311580527e-7 0.7071067811865238
vn 6.384464999998699e-7 -1 0
vn 0.7071074811861825 0 -0.7071060811862198
vn -0.7071065811865008 2.587432931157949e-7 -0.7071069811864903
usemtl material_0_0
f 1/1/1 2/2/1 3/3/1
f 2/2/1 1/1/1 4/4/1
f 5/5/2 6/6/2 7/7/2
f 6/6/2 5/5/2 8/2/2
f 9/3/3 10/8/3 11/9/3
f 10/8/3 9/3/3 12/2/3
f 13/10/4 14/9/4 15/11/4
f 14/9/4 13/10/4 16/3/4
f 17/12/5 18/13/5 19/14/5
f 18/13/5 17/12/5 20/15/5
f 7/16/2 21/12/2 22/17/2
f 21/12/2 7/16/2 6/15/2
f 8/2/2 23/18/2 24/8/2
f 23/18/2 8/2/2 5/5/2
f 25/8/6 26/14/6 27/9/6
f 26/14/6 25/8/6 28/12/6
f 21/12/2 23/19/2 22/17/2
f 23/19/2 21/12/2 24/20/2
