# SSTK version 0.8.0
# 5
mtllib original_5.mtl
o #ID47
v 0.08902910 0.39301524 -0.09226269
v -0.08538483 0.44410714 -0.09228515
v -0.08517706 0.39303983 -0.09243976
v 0.08899387 0.44424686 -0.09233390
v 0.08895909 0.44420719 0.08197047
v 0.08897087 0.39291729 -0.09249108
v 0.08908032 0.39306099 0.08199083
v 0.08897000 0.44427606 -0.09248132
v -0.08510938 0.44420063 -0.09237000
v -0.08527688 0.39299011 0.08195686
v -0.08515676 0.39304460 -0.09237471
v -0.08533632 0.44438514 0.08192869
v 0.08905798 0.39304490 -0.09218887
v -0.24592104 0.39289110 -0.33848593
v 0.24967457 0.39299838 -0.33832394
v -0.08519494 0.39304196 -0.09244451
v 0.08906590 0.44421062 0.08192633
v -0.08517089 0.39289640 0.08193550
v -0.08522549 0.44427055 0.08201081
v 0.08905702 0.39293168 0.08196179
v 0.24970469 0.39298233 0.32794060
v 0.08906840 0.39314403 -0.09234609
v 0.24957274 0.39300516 -0.33822226
v 0.08909027 0.39301036 0.08182796
v -0.08507162 0.39296279 -0.09234227
v -0.24573793 0.39301118 0.32796131
v -0.24571833 0.39305070 -0.33838040
v -0.08510855 0.39309254 0.08193853
v 0.24965781 0.44427697 -0.33831821
v -0.24587111 0.39300282 -0.33845484
v -0.24592257 0.44444386 -0.33834325
v 0.24956416 0.39291657 -0.33847444
v -0.22029187 0.39298247 -0.31283307
v 0.24972347 0.39315778 -0.33842934
v -0.24594750 0.39299538 -0.33837508
v 0.22397390 0.39308848 -0.31286783
v 0.24949638 0.39298656 0.32804798
v -0.08532210 0.39281520 0.08189794
v 0.08911114 0.39283091 0.08177568
v -0.24586232 0.39308654 0.32808906
v 0.24979932 0.44413821 -0.33830821
v 0.24963117 0.39303503 0.32794706
v 0.24977873 0.39303998 -0.33843976
v 0.24965828 0.44428019 0.32805212
v 0.24961817 0.39309390 0.32800838
v 0.22393483 0.39287466 0.30237625
v -0.24585464 0.44419339 0.32806806
v -0.24577386 0.39297156 -0.33835149
v -0.24582884 0.39297110 0.32808009
v -0.24595643 0.44420196 -0.33833979
v -0.24575764 0.39301808 0.32783701
v -0.22017235 0.39291121 0.30248713
v 0.24965631 0.39309256 -0.33846987
v -0.24574319 0.44414375 -0.33834824
v -0.24570469 0.39300615 -0.33839592
v 0.24958238 0.44422441 -0.33829296
v -0.24594696 0.39304421 -0.33846796
v -0.27144131 -0.58092233 -0.36393696
v -0.24577903 0.44427082 -0.33830388
v -0.24595528 0.44423653 -0.33844696
v -0.08516710 0.44409212 -0.09237502
v 0.24966215 0.44433522 -0.33834448
v -0.24585976 0.44426478 0.32804722
v -0.08533548 0.44425082 0.08200397
v 0.08910689 0.44429852 0.08193169
v 0.08904576 0.44423656 -0.09229556
v 0.24972693 0.44433666 0.32799455
v 0.27545426 0.44423308 -0.36403585
v 0.24960873 0.39305396 -0.33846900
v 0.24971377 0.44426494 -0.33852652
v 0.27529618 0.39290709 -0.36399160
v 0.22400399 0.39310542 -0.31267835
v 0.22409577 -0.58081767 -0.31280491
v 0.24962068 0.39297905 -0.33838260
v -0.24582759 0.39295019 -0.33839158
v -0.22008156 -0.58107489 -0.31289812
v -0.22036418 0.39307304 -0.31274322
v 0.22392070 -0.58094673 -0.31276018
v -0.22019074 0.39294691 -0.31282852
v -0.22019766 -0.58112518 -0.31280480
v 0.22410538 0.39282495 -0.31274250
v 0.24979432 0.39297981 0.32787574
v -0.24570608 0.44443444 0.32780849
v -0.24580996 0.39288283 0.32797139
v 0.24972676 0.44436054 0.32813816
v 0.24972495 0.44427292 0.32801083
v 0.24964832 0.39284241 -0.33850593
v 0.24968880 0.39305034 0.32806065
v 0.24976997 0.44431653 -0.33821642
v 0.24964029 0.44423122 0.32798701
v 0.27537770 0.39300141 0.35354321
v 0.24962810 0.39310096 0.32800819
v 0.27544333 0.44431177 0.35366188
v 0.27544558 0.39298539 -0.36403965
v 0.24967634 0.44421459 -0.33843610
v 0.24961773 0.39299243 -0.33847912
v 0.27524293 0.44439223 -0.36404327
v 0.22409804 0.39311134 0.30254691
v 0.22408183 -0.58092347 -0.31271726
v 0.22395482 -0.58094912 0.30236884
v 0.22403837 0.39302784 -0.31275625
v 0.24951636 0.39287629 0.32801156
v 0.22415252 0.39312548 0.30228144
v 0.22421332 -0.58094822 0.30234324
v 0.24957741 0.39305839 -0.33833146
v 0.27523124 -0.58095537 -0.36404396
v 0.22403602 0.39294597 -0.31273373
v -0.24588023 0.44420104 -0.33846659
v -0.24590727 0.39308039 0.32785757
v -0.24584530 0.39304487 -0.33847513
v -0.24601180 0.44429163 0.32797103
v -0.24588535 0.44417669 0.32801413
v -0.27160482 0.39303709 0.35352825
v -0.27145741 0.44412731 0.35354355
v -0.24584004 0.39302363 0.32815223
v -0.24568632 0.39299963 -0.33824507
v -0.27164824 0.44439754 -0.36410735
v -0.27137395 0.39289086 -0.36417465
v -0.24594523 0.44422276 -0.33858011
v -0.22032281 -0.58091695 -0.31264743
v -0.22021937 0.39301807 0.30241721
v -0.22018068 -0.58109429 0.30231705
v -0.22019305 0.39309688 -0.31283824
v -0.22016021 0.39305385 -0.31288353
v -0.22022654 -0.58076571 -0.31276897
v -0.24586744 0.39289468 -0.33826375
v -0.24598703 0.39299283 0.32803030
v -0.27138944 -0.58096942 0.35369318
v -0.22022876 0.39280709 0.30235141
v -0.27138405 0.44420639 -0.36393596
v 0.27531073 0.44420608 -0.36412091
v -0.24577857 0.44425374 -0.33850153
v -0.27147197 0.39307758 -0.36411293
v -0.27132283 0.44430114 -0.36398197
v -0.27145462 -0.58084908 -0.36389355
v -0.24603628 0.39302469 -0.33842578
v -0.27149321 0.39299775 -0.36408427
v -0.27154365 -0.58105615 -0.36412894
v -0.24590907 0.39303156 -0.33851152
v -0.22015296 -0.58096715 -0.31264168
v -0.27146440 -0.58099240 -0.36408722
v -0.27136180 0.44424066 0.35376351
v 0.24983130 0.44431928 0.32814941
v -0.24597879 0.44421200 0.32789253
v 0.27521171 0.44416798 0.35361201
v 0.24963049 0.44428852 -0.33836156
v 0.27524961 0.44437723 0.35365888
v 0.27537279 0.44417893 -0.36410084
v 0.24954239 0.44428883 0.32795318
v -0.27154063 0.44421164 0.35367366
v 0.27529858 -0.58106625 -0.36384039
v 0.24956214 0.39296096 -0.33844555
v 0.27546080 0.39301074 -0.36404975
v 0.27530281 0.44425697 -0.36406698
v 0.27520509 0.39301385 -0.36412044
v 0.22391223 -0.58110158 -0.31292277
v 0.27530354 -0.58104181 -0.36402399
v 0.27545720 -0.58101392 -0.36402765
v 0.22402915 -0.58098664 -0.31276348
v 0.22389279 0.39307458 -0.31274248
v -0.24586973 0.39288300 -0.33840791
v -0.27142015 -0.58095066 -0.36407071
v -0.22025636 -0.58112317 -0.31272180
v 0.22407153 -0.58107569 -0.31267778
v 0.15391613 -0.58107922 -0.36402392
v 0.27540653 -0.58099765 -0.36413149
v -0.15008215 -0.58103798 -0.36390413
v -0.22019104 -0.58099773 -0.31280590
v -0.27146962 -0.58095379 -0.36401643
v 0.24972187 0.44424922 0.32808979
v -0.24581550 0.39299800 0.32809011
v -0.24584274 0.44418532 0.32802550
v 0.24952215 0.39309412 0.32811270
v -0.24575930 0.44411284 0.32791278
v -0.27138341 -0.58102054 0.35370179
v -0.24584696 0.39303620 0.32787798
v 0.24959462 0.44431745 0.32799991
v 0.24967106 0.39298595 0.32797318
v 0.27527225 -0.58099355 0.35366010
v -0.24596738 0.39294672 0.32798475
v -0.22016510 -0.58093718 0.30217825
v -0.27145358 0.39298360 0.35354621
v -0.22029235 0.39306691 0.30237353
v 0.22411370 -0.58110399 0.30240163
v 0.24959442 0.39305345 0.32794399
v 0.27547670 0.39289110 0.35373077
v 0.22389151 0.39282973 0.30238900
v 0.22384897 0.39304308 0.30245729
v -0.22029794 -0.58093417 0.30225124
v -0.22028189 0.39301309 0.30220876
v 0.22405871 -0.58090975 0.30236397
v 0.27531358 0.39297988 0.35352747
v 0.24956419 0.44423093 0.32799342
v 0.27531713 -0.58087433 0.35352625
v 0.27534201 0.44430913 0.35346679
v -0.27151494 0.39286506 0.35355710
v 0.27545223 0.44440932 0.35369613
v -0.27160013 0.44424745 0.35361366
v 0.27520881 0.39289892 0.35359251
v 0.27546050 0.44419987 -0.36385678
v -0.27148948 0.39294410 -0.36390742
v -0.27155583 0.44425802 -0.36402145
v 0.27515070 0.39297788 -0.36384366
v 0.27536285 -0.58091806 -0.24267631
v 0.22397672 -0.58095994 -0.31290548
v 0.27517918 -0.58101183 -0.36397703
v 0.22403696 -0.58104191 0.30244150
v 0.27534021 -0.58091670 0.23233438
v 0.27524396 -0.58092336 0.35358373
v 0.24966643 0.39290645 0.32808977
v 0.22402721 -0.58093225 0.30224995
v 0.27531649 -0.58094192 0.35372190
v -0.27149029 0.39294870 0.35367738
v -0.24585602 0.44440577 0.32793336
v -0.27153612 0.44418444 0.35375638
v -0.27150473 -0.58105980 0.35362964
v -0.22034710 0.39300948 0.30236291
v -0.27144408 -0.58096917 0.35360872
v -0.22020235 -0.58102402 0.30249287
v -0.22020655 -0.58096587 -0.31264445
v -0.27156901 -0.58082879 -0.24264273
v -0.27149668 -0.58095180 -0.36400501
v -0.22031441 -0.58085941 0.30229775
v -0.27152026 -0.58089874 0.23233558
v -0.27155355 -0.58097662 0.35356522
v -0.27156611 0.39301666 0.35368914
v -0.27150977 -0.58083570 0.23234742
v -0.27147144 -0.58081022 0.35360921
v -0.27158778 -0.58084900 -0.24286349
v -0.27144198 0.39303381 -0.36409839
v -0.27151244 -0.58085282 -0.36397457
v -0.27146881 0.44438857 0.35365750
v -0.27152635 0.44437230 -0.36402097
v 0.27529008 0.39302192 -0.36407876
v -0.27132276 -0.58093885 -0.36396673
v -0.27138016 0.39296538 -0.36403217
v -0.15031001 -0.58089528 -0.36399734
v 0.15405828 -0.58099981 -0.36404241
v 0.27528422 -0.58094666 -0.36400804
v 0.27514693 0.39304371 -0.36388244
v 0.27523660 -0.58095578 -0.24274625
v 0.27530091 -0.58089685 -0.36412012
v 0.27536792 -0.58089999 0.23240611
v 0.27523920 0.39297920 0.35363512
v 0.27529469 -0.58090980 0.35365915
v 0.27528798 0.44441387 -0.36401757
v 0.27527021 0.44416381 0.35370968
v -0.27159273 -0.58091178 -0.24279708
v -0.15016777 -0.58106113 -0.36393823
v -0.27154845 -0.58097674 -0.36408523
v 0.27531734 -0.58085072 -0.24288792
v 0.27528635 -0.58095683 -0.36398916
v 0.15404931 -0.58100718 -0.36392450
v -0.22020858 -0.58101660 0.30245800
v -0.27159569 -0.58090327 0.35365861
v -0.27159717 0.39286958 0.35363373
v 0.27518250 0.39297357 0.35363325
v 0.27539357 -0.58094515 0.35351501
v 0.22402025 -0.58098508 0.30229072
v 0.27526531 -0.58084429 0.35363482
v -0.22022275 -0.58111485 0.30233384
v 0.22401510 -0.58099304 0.30252021
v 0.15388977 -0.58102341 0.35354534
v -0.27146663 -0.58090406 0.35360826
v -0.15004632 -0.58084657 0.35375305
v -0.27140744 -0.58096535 0.35358339
v 0.27534066 0.39303230 0.35369483
v -0.27159940 0.39305589 0.35379974
v -0.15015602 -0.58097440 0.35364834
v 0.15409835 -0.58087311 0.35360503
v 0.27542614 -0.58092517 0.35366816
v 0.27536672 -0.58078197 0.35370156
v 0.27528333 -0.58095050 0.23252928
v 0.15394210 -0.58087840 0.35360290
v -0.15015768 -0.58097743 0.35359069
v -0.27146036 -0.58097758 0.23237772
v -0.27160513 -0.58088886 0.35354755
v -0.27155888 -0.58078835 -0.24278942
v -0.25712697 -0.60654286 -0.34949052
v -0.25706950 -0.60664405 -0.27728725
v -0.27145370 -0.58104620 -0.36405145
v -0.27156984 -0.58106971 0.35366801
v -0.25709026 -0.60662297 0.26691997
v -0.25698270 -0.60657345 0.33913890
v -0.27149949 -0.58099223 0.23226211
v 0.27514475 -0.58098599 -0.36385809
v 0.18904115 -0.60655156 -0.34955472
v 0.15394724 -0.58107944 -0.36404418
v 0.26076714 -0.60656588 -0.34954145
v -0.15028643 -0.58090539 -0.36389925
v -0.25714324 -0.60663818 -0.34947170
v -0.27155338 -0.58111367 -0.36406074
v -0.18512102 -0.60662164 -0.34958025
v 0.27517011 -0.58096870 0.23234368
v 0.26079908 -0.60651437 0.33920835
v 0.26089701 -0.60654508 0.26705024
v 0.27529250 -0.58098954 0.35348841
v 0.27529903 -0.58109658 -0.36388840
v 0.26083488 -0.60647072 -0.27735269
v 0.26081977 -0.60661116 -0.34963786
v 0.27528653 -0.58088770 -0.24290787
v -0.18518244 -0.60650590 -0.34960589
v -0.27157085 -0.58084080 -0.24279656
v -0.25702111 -0.60663705 -0.27743600
v -0.15017103 -0.58086153 -0.36405194
v 0.27531369 -0.58099810 -0.24265069
v 0.18887605 -0.60669266 -0.34955578
v 0.26105165 -0.60655064 -0.27749463
v 0.15397582 -0.58100401 -0.36412494
v -0.25709352 -0.60648564 0.33909181
v -0.15017178 -0.58104336 0.35349918
v -0.27154536 -0.58106343 0.35367812
v -0.18505193 -0.60653534 0.33907496
v 0.18897796 -0.60652102 0.33919589
v 0.27525762 -0.58110795 0.35357491
v 0.15403346 -0.58093442 0.35347610
v 0.26076231 -0.60670984 0.33912059
v 0.15387826 -0.58093626 0.35359390
v 0.26090609 -0.60668226 0.26712733
v 0.18907231 -0.60659556 0.33908594
v 0.27524344 -0.58085426 0.23216384
v -0.27135403 -0.58098789 0.23228069
v -0.18511574 -0.60674495 0.33916425
v -0.25711783 -0.60646547 0.26697800
v -0.15012911 -0.58101481 0.35353352
v -0.25710364 -0.60672968 -0.27751997
v -0.25693844 -0.60652981 -0.34957211
v -0.18511533 -0.60669023 -0.34964265
v -0.25702562 -0.60644967 0.33915427
v -0.25718041 -0.60650770 0.26693426
v -0.18520061 -0.60661660 0.33924436
v 0.26079259 -0.60657510 -0.27737796
v 0.18897738 -0.60667044 -0.34956173
v 0.26074503 -0.60662470 -0.34962157
v 0.18894364 -0.60668241 0.33924883
v 0.26092376 -0.60667353 0.26694588
v 0.26078294 -0.60649352 0.33931063
vt 0.7655904 1.692446
vt 0.7988681 1.81614
vt 0.7655907 1.81614
vt 0.7988678 1.692446
vt 0.7988677 1.568751
vt 0.7655904 1.568751
vt 0.9199421 -1.863474
vt 0.9532197 -1.987168
vt 0.9532195 -1.863474
vt 0.9199423 -1.987169
vt 0.9255063 1.981121
vt 0.7657682 2.218831
vt 0.7657682 1.867104
vt 0.9255063 2.104815
vt 64.60481 719.7034
vt 64.49168 719.7398
vt 64.49168 719.7034
vt 64.60481 719.7398
vt 0.7657681 1.394093
vt 0.8700442 1.692446
vt 0.8700442 1.568751
vt 64.49168 719.6161
vt 64.3874 719.9145
vt 64.3874 719.4415
vt 0.7990454 2.218831
vt 0.7990454 1.867104
vt 0.7491296 2.200638
vt 0.7491296 1.885297
vt 64.70908 719.9145
vt 0.8323226 1.394093
vt 0.8323226 1.867104
vt 0.7990454 1.394093
vt 0.7491297 1.848912
vt 0.7491294 1.412285
vt 0.8489437 -2.161827
vt 0.8655818 -1.707008
vt 0.8489432 -1.688816
vt 0.865582 -2.143634
vt 0.7658349 668.1928
vt 0.133568 668.167
vt 0.7991121 668.1928
vt 0.8156659 -1.65243
vt 0.975404 -1.538414
vt 0.815666 -1.300703
vt 1.24827 -1.65243
vt 1.088532 -1.538414
vt 1.088532 -1.41472
vt 0.975404 -1.41472
vt 1.24827 -1.300704
vt 0.7990274 -1.28251
vt 0.7657502 -1.308239
vt 0.7990274 -1.308239
vt 0.7657502 -1.282511
vt 0.7657502 -1.231054
vt 0.1334832 -1.231054
vt 0.7657502 -1.256782
vt 0.1335681 668.2185
vt 0.7640859 668.1671
vt 0.1335013 1.84896
vt 0.7657682 2.164302
vt 0.1335014 2.164302
vt 0.7657682 1.84896
vt 0.7657681 1.042366
vt 0.7990453 1.042366
vt 64.38734 -2.125533
vt 64.69238 -2.10734
vt 64.40397 -2.10734
vt 64.70901 -2.125533
vt 64.70901 -2.161918
vt 64.74918 -2.154383
vt 64.73255 -2.13619
vt 64.72565 -2.180111
vt 0.7990273 -1.256782
vt 0.7657501 -1.256782
vt 0.7657682 1.412334
vt 0.1335012 1.412334
vt 0.7658393 668.7251
vt 0.7658393 668.7509
vt 0.1335723 668.7509
vt 0.1334832 -1.28251
vt 0.7657502 -1.333967
vt 0.815666 -1.688816
vt 0.8156665 -2.161827
vt 64.38734 -2.161918
vt 64.34717 -2.154382
vt 64.3707 -2.180111
vt 64.3638 -2.136189
vt 0.7990454 2.24456
vt 0.7657683 2.24456
vt 0.1334832 -2.668103
vt 0.7657501 -2.231477
vt 0.1334832 -2.231477
vt 0.76575 -2.668103
vt 0.7658349 668.2185
vt 0.7657501 -2.205749
vt 0.1334831 -2.18002
vt 0.7990273 -1.670623
vt 0.7658349 668.167
vt 0.7991121 668.167
vt 0.7640859 668.2184
vt 0.8156661 -1.264318
vt 0.7990274 -0.7731133
vt 0.7990274 -1.282511
vt 0.8156658 -0.791306
vt 0.7990273 -2.18002
vt 0.1334832 -1.333967
vt 0.1370661 668.1157
vt 0.1002062 -1.318896
vt 0.1334834 -1.368605
vt 0.1334834 -1.28251
vt 0.1334834 -1.584528
vt 0.1002062 -1.634237
vt 0.1334834 -1.670623
vt 0.7990273 -2.205749
vt 0.7990508 52.53112
vt 0.7657736 52.53112
vt 0.1335067 52.50539
vt 0.7657501 -2.154291
vt 0.1334832 -2.128563
vt 0.7657501 -2.18002
vt 0.7657501 -2.128563
vt 0.7658393 668.7766
vt 0.7658393 668.8023
vt 0.1335724 668.4355
vt 0.7658392 668.4355
vt 0.7657736 52.50539
vt 0.7990508 52.50539
vt 64.3707 -2.216497
vt 64.72565 -2.216497
vt 0.7990277 2.273493
vt 0.7657505 1.88538
vt 0.7990277 1.88538
vt 0.7657505 2.273492
vt 0.1002236 1.799271
vt 0.1002241 1.885346
vt 0.1002234 1.462024
vt 0.1002241 1.375949
vt -0.4986946 668.7766
vt 0.1335723 668.8023
vt 0.1002059 -2.618413
vt 0.100206 -2.704489
vt 0.1002061 -2.281167
vt 0.100206 -2.195091
vt 0.7657504 1.375983
vt 0.1334837 1.462058
vt 0.1334835 1.375983
vt 0.1334837 1.799305
vt 0.1334837 1.88538
vt 0.7990277 1.375983
vt 0.1334838 1.971475
vt 0.1334837 2.187398
vt 0.1334836 2.273492
vt 0.7657738 51.99599
vt 0.133507 52.08207
vt 0.1335069 51.99599
vt 0.1335068 52.41931
vt 0.799051 51.99599
vt 137.2499 560.6746
vt 137.2499 560.5529
vt 137.3055 560.6138
vt 88.87007 52.7439
vt 88.92576 52.80474
vt 88.8701 52.86564
vt 0.1002951 668.7872
vt 0.1002952 668.7011
vt 0.1002952 668.3991
vt 0.1002952 668.4852
vt 0.1334835 -0.3850009
vt 0.7657503 -0.7731134
vt 0.7657505 -0.3850012
vt 0.1334837 -0.4710961
vt 0.1334835 -0.6870189
vt 0.1334833 -0.7731132
vt -138.5369 160.6091
vt -138.5925 160.67
vt -138.5925 160.5482
vt -90.21313 668.6508
vt -90.21316 668.529
vt -90.15747 668.5899
vt 0.1334833 -1.756698
vt 0.1143894 -1.680873
vt 0.1143893 -1.732082
vt 0.1334833 -1.670623
vt 0.1143893 -2.11856
vt 0.1143892 -2.169769
vt 0.1334833 -2.093945
vt 0.1143854 -1.343805
vt 0.1143853 -1.292752
vt 0.1143853 -1.660381
vt 0.1143854 -1.609328
vt 0.1334834 -0.8591884
vt 0.1143897 -0.7833638
vt 0.1143895 -0.8345726
vt 0.1143894 -1.221051
vt 0.1143895 -1.27226
vt 0.1334834 -1.196435
vt 137.2308 560.5777
vt 137.2308 560.65
vt 88.85098 52.84086
vt 88.85102 52.76855
vt 0.1143853 -2.190262
vt 0.1334833 -2.266115
vt 0.1143853 -2.241315
vt 0.1143852 -2.506838
vt 0.1334831 -2.568132
vt 0.1334832 -2.482038
vt 0.1143852 -2.557891
vt -138.6116 160.6453
vt -138.6116 160.573
vt -90.23225 668.626
vt -90.23221 668.5537
vt 137.1977 560.6137
vt -90.2653 668.5899
vt 88.81793 52.80479
vt -138.6447 160.6091
vn 0 0 1
vn -1 -0.0000025431219999917766 0
vn 1 0 0
vn 4.116854999998227e-8 -1 -9.271400999996008e-7
vn 0 0 -1
vn 0.0000012173689999990979 -1 0
vn -0.000001623160999997862 -1 0
vn 0 1 0
vn 4.116854999998227e-8 -1 9.271400999996008e-7
vn -1 0 0
vn 0.7071063311863846 0 -0.7071072311864243
vn -0.7071036311793923 0 -0.70710993117967
vn 0.7071067811865476 0 0.7071067811865476
vn -0.7071072311864243 0 0.7071063311863846
vn 1.4671909999999844e-7 0 1
vn 0.7071126311608199 -0.000002247873099058574 -0.7071009311603044
vn 0.7071045311825827 -8.991299396507057e-7 0.7071090311827811
vn -1 0 -6.357827999998716e-7
vn -0.7071031811774792 0 0.7071103811772875
vn -0.7071081311853112 -1.419688062611943e-7 -0.7071054311851921
vn -0.7070923810400223 -8.990778758921224e-7 -0.70712118103925
vn -0.7071063311863846 0 0.7071072311864243
vn 1 0 8.477104999996955e-7
vn 0.7071072311864243 0 -0.7071063311863846
vn 0.7071139811494703 -8.044944785534618e-7 0.7070995811498543
vn 0.7071067811865474 -2.36613893704594e-8 -0.7071067811865474
vn 6.545315999994695e-8 1 0.0000012715699999989694
vn 0.0000012715539999989707 1 4.877287999996051e-8
vn -0.7071037311798323 8.991289396472091e-8 -0.7071098311801012
vn -0.7071067811865476 0 -0.7071067811865476
vn -0.7071067811865474 2.36613893704594e-8 0.7071067811865474
vn -3.186392999999195e-7 -1 6.357829999998394e-7
vn 0.7070986811403702 0 0.7071148811399381
vn -0.7071121811657843 0 0.707101381166072
vn 0.707109031183067 0 -0.7071045311828686
vn -0.7071103811772848 8.991374760656763e-8 0.7071031811774764
vn -5.9604639999698735e-8 -0.0000031789169999839326 1
vn -1.1920919999999916e-7 0 -1
vn 0 -1 0
vn -0.707107681185931 2.3661419370438774e-7 0.7071058811859788
vn 0.7070914810213857 3.596453903469759e-7 0.7071220810205644
vn 0.7071063311863846 0 0.7071072311864243
vn 0.0000019073479999965094 -1 -1.4959449999972622e-7
vn -1 -2.543131999998408e-7 -0.0000010899139999993174
vn -1.1920929999999915e-7 0 -1
vn 1 -1.2715659999996541e-7 7.266089999998023e-7
vn -0.000001074780999999224 1 -5.375157999996119e-7
vn 0.0000016121739999958088 1 -0.000001612547999995808
vn -0.707106331186356 -2.839366125227959e-7 -0.7071072311863957
vn 0.7071076811859437 1.419688962226251e-7 -0.7071058811859916
vn -1.1668469999990488e-7 -1 -0.0000012715659999989634
vn -5.960464999999906e-8 1.6731129999999736e-7 1
vn 0.0000016121809999958088 1 0.000001612555999995808
vn -0.000002149552999992239 1 0.000001612535999994178
vn -0.8714068651045024 -0.4905609803554801 -0.0000011890359523850418
vn -0.8714020095627514 -0.4905696053835028 -0.0000019680470215973156
vn -0.0000011050950462619202 -0.490890220549838 -0.8712214364714118
vn 6.792679110097098e-7 -0.4908883079564156 -0.8712225141209482
vn 0.8714118060406609 -0.4905522034005272 0.0000056428360391163615
vn 0.8714075892772787 -0.49055969396363436 -0.0000028752179646202754
vn 0.6165962674668711 -0.48999357414673916 0.6162104674872269
vn -0.6165963880385203 -0.4899923904945372 0.6162112880459909
vn 8.964147847982156e-7 -0.49088889167529676 0.8712221852254425
vn -9.319027784284087e-7 -0.4908897886369328 0.8712216798330487
vn -0.6165963880385203 -0.4899923904945372 -0.6162112880459909
vn 0.6165962674668711 -0.48999357414673916 -0.6162104674872269
vn 9.062468999996279e-7 -1 0
usemtl material_0_0
f 1/1/1 2/2/1 3/3/1
f 2/2/1 1/1/1 4/4/1
f 5/5/2 6/1/2 7/6/2
f 6/1/2 5/5/2 8/4/2
f 9/7/3 10/8/3 11/9/3
f 10/8/3 9/7/3 12/10/3
f 13/11/4 14/12/4 15/13/4
f 14/12/4 13/11/4 16/14/4
f 17/15/5 18/16/5 19/17/5
f 18/16/5 17/15/5 20/18/5
f 21/19/6 22/20/6 23/13/6
f 22/20/6 21/19/6 24/21/6
f 25/22/7 26/23/7 27/24/7
f 26/23/7 25/22/7 28/16/7
f 29/25/5 30/13/5 31/26/5
f 30/13/5 29/25/5 32/12/5
f 33/27/8 34/13/8 35/12/8
f 34/13/8 33/27/8 36/28/8
f 37/29/9 38/16/9 39/18/9
f 38/16/9 37/29/9 40/23/9
f 41/26/3 42/30/3 43/31/3
f 42/30/3 41/26/3 44/32/3
f 36/33/8 45/19/8 34/13/8
f 45/19/8 36/33/8 46/34/8
f 47/32/10 48/13/10 49/19/10
f 48/13/10 47/32/10 50/26/10
f 51/35/8 33/36/8 35/37/8
f 33/36/8 51/35/8 52/38/8
f 53/13/1 54/25/1 55/12/1
f 54/25/1 53/13/1 56/26/1
f 57/39/11 58/40/11 59/41/11
f 60/42/8 61/43/8 62/44/8
f 61/43/8 60/42/8 63/45/8
f 61/43/8 63/45/8 64/46/8
f 64/46/8 63/45/8 65/47/8
f 62/44/8 66/48/8 67/49/8
f 66/48/8 62/44/8 61/43/8
f 67/49/8 66/48/8 65/47/8
f 67/49/8 65/47/8 63/45/8
f 68/50/12 69/51/12 70/52/12
f 71/53/13 72/54/13 73/55/13
f 72/54/13 71/53/13 74/56/13
f 75/39/14 76/57/14 77/58/14
f 78/59/15 79/60/15 80/61/15
f 79/60/15 78/59/15 81/62/15
f 82/63/1 83/32/1 84/19/1
f 83/32/1 82/63/1 85/64/1
f 51/65/8 46/66/8 52/67/8
f 46/66/8 51/65/8 45/68/8
f 86/32/10 87/13/10 88/19/10
f 87/13/10 86/32/10 89/26/10
f 90/69/16 91/70/16 92/71/16
f 91/70/16 90/69/16 93/72/16
f 94/53/17 95/73/17 96/74/17
f 95/73/17 94/53/17 97/50/17
f 98/75/18 99/59/18 100/76/18
f 99/59/18 98/75/18 101/62/18
f 102/77/19 103/78/19 104/79/19
f 105/51/20 106/80/20 107/81/20
f 108/82/3 109/35/3 110/37/3
f 109/35/3 108/82/3 111/83/3
f 112/84/21 113/85/21 114/86/21
f 113/85/21 112/84/21 115/87/21
f 116/12/22 117/88/22 118/89/22
f 117/88/22 116/12/22 119/25/22
f 120/90/23 121/91/23 122/92/23
f 121/91/23 120/90/23 123/93/23
f 124/94/24 125/57/24 126/39/24
f 127/95/25 128/96/25 129/91/25
f 130/97/8 62/44/8 131/50/8
f 62/44/8 130/97/8 60/42/8
f 132/41/11 133/98/11 134/99/11
f 133/98/11 132/41/11 135/40/11
f 136/39/22 137/100/22 138/40/22
f 139/39/26 140/57/26 141/40/26
f 142/86/27 143/69/27 144/84/27
f 143/69/27 142/86/27 145/72/27
f 146/101/28 147/102/28 148/103/28
f 147/102/28 146/101/28 149/104/28
f 150/105/8 60/82/8 130/97/8
f 60/82/8 150/105/8 63/83/8
f 151/80/29 152/51/29 153/53/29
f 154/50/29 153/53/29 152/51/29
f 155/53/13 156/55/13 157/80/13
f 158/80/30 159/106/30 160/81/30
f 161/39/31 162/40/31 163/107/31
f 164/108/32 165/109/32 166/110/32
f 165/109/32 164/108/32 167/111/32
f 167/111/32 168/112/32 169/113/32
f 168/112/32 167/111/32 164/108/32
f 170/69/5 171/65/5 172/84/5
f 171/65/5 170/69/5 173/68/5
f 174/114/33 175/96/33 176/95/33
f 177/115/34 178/116/34 179/117/34
f 180/118/12 181/119/12 182/120/12
f 181/119/12 180/118/12 183/121/12
f 184/79/35 185/122/35 186/123/35
f 185/122/35 184/79/35 187/78/35
f 188/78/5 189/124/5 190/125/5
f 189/124/5 188/78/5 191/79/5
f 192/126/36 193/115/36 194/117/36
f 193/115/36 192/126/36 195/127/36
f 196/128/37 197/72/37 198/86/37
f 197/72/37 196/128/37 199/129/37
f 200/130/38 201/131/38 202/132/38
f 201/131/38 200/130/38 203/133/38
f 204/134/39 205/59/39 206/135/39
f 205/59/39 204/134/39 207/76/39
f 207/76/39 204/134/39 208/136/39
f 207/76/39 208/136/39 209/137/39
f 210/138/40 211/79/40 212/139/40
f 213/120/41 214/114/41 215/105/41
f 214/114/41 213/120/41 216/96/41
f 217/91/42 218/96/42 219/92/42
f 220/90/43 221/140/43 222/141/43
f 221/140/43 220/90/43 223/92/43
f 221/140/43 223/92/43 224/142/43
f 224/142/43 223/92/43 225/143/43
f 226/144/44 227/145/44 228/146/44
f 227/145/44 226/144/44 229/147/44
f 229/147/44 230/131/44 231/148/44
f 230/131/44 229/147/44 226/144/44
f 230/131/44 226/144/44 232/149/44
f 230/131/44 232/149/44 233/132/44
f 234/133/45 235/148/45 236/131/45
f 235/148/45 234/133/45 237/150/45
f 237/150/45 234/133/45 238/151/45
f 238/151/45 234/133/45 239/152/45
f 240/153/46 241/154/46 242/155/46
f 241/154/46 240/153/46 243/156/46
f 243/156/46 244/126/46 245/117/46
f 244/126/46 243/156/46 240/153/46
f 244/126/46 240/153/46 246/157/46
f 244/126/46 246/157/46 247/127/46
f 248/158/47 249/159/47 250/160/47
f 251/161/48 252/162/48 253/163/48
f 254/119/49 255/96/49 256/120/49
f 257/123/50 258/139/50 259/79/50
f 260/164/51 261/124/51 262/79/51
f 261/124/51 260/164/51 263/165/51
f 263/165/51 264/166/51 261/124/51
f 264/166/51 263/165/51 265/167/51
f 266/168/52 267/169/52 268/170/52
f 267/169/52 266/168/52 269/171/52
f 267/169/52 269/171/52 270/172/52
f 267/169/52 270/172/52 271/173/52
f 272/174/53 273/175/53 274/176/53
f 275/177/54 276/178/54 277/179/54
f 278/180/55 279/181/55 280/182/55
f 279/181/55 278/180/55 281/183/55
f 282/96/56 283/184/56 284/185/56
f 283/184/56 282/96/56 285/186/56
f 286/80/57 287/187/57 288/109/57
f 287/187/57 286/80/57 289/188/57
f 290/111/58 291/189/58 292/183/58
f 291/189/58 290/111/58 293/190/58
f 294/191/59 295/192/59 296/193/59
f 295/192/59 294/191/59 297/173/59
f 298/80/60 299/194/60 300/195/60
f 299/194/60 298/80/60 301/196/60
f 302/197/61 303/158/61 304/198/61
f 303/158/61 302/197/61 305/159/61
f 306/161/62 307/199/62 308/200/62
f 307/199/62 306/161/62 309/163/62
f 310/201/63 311/202/63 312/96/63
f 311/202/63 310/201/63 313/203/63
f 314/204/64 315/205/64 316/206/64
f 315/205/64 314/204/64 317/207/64
f 318/176/65 319/208/65 320/209/65
f 319/208/65 318/176/65 321/175/65
f 322/178/66 323/210/66 324/211/66
f 323/210/66 322/178/66 325/177/66
f 326/198/67 327/212/67 328/197/67
f 329/213/67 330/211/67 331/210/67
f 332/200/39 333/199/39 334/214/39
f 335/209/39 336/208/39 337/215/39
