# SSTK version 0.8.0
# 4
mtllib original-4.mtl
o group_3/ID27#ID27
v -0.14275520 0.50264637 0.03445006
v -0.14278746 0.50278636 -0.03485259
v -0.14721933 0.50275672 -0.00013364
v -0.12938789 0.50271979 0.06692892
v -0.12933078 0.50269552 -0.06716240
v -0.10810560 0.50273374 0.09455988
v -0.10797299 0.50275638 -0.09490524
v -0.08023657 0.50269883 0.11588702
v -0.08023276 0.50271909 -0.11621031
v -0.04782775 0.50277839 0.12939318
v -0.04798547 0.50267071 -0.12966126
v -0.01318259 0.50261713 0.13398625
v -0.01320074 0.50275199 -0.13428288
v 0.02151274 0.50265500 0.12940081
v 0.02148413 0.50266996 -0.12961914
v 0.05379649 0.50271159 0.11589288
v 0.05381288 0.50275459 -0.11637015
v 0.08168342 0.50265023 0.09460597
v 0.08166411 0.50271095 -0.09503228
v 0.10297973 0.50275420 0.06685473
v 0.10283011 0.50275828 -0.06714934
v 0.11638395 0.50265308 0.03457352
v 0.11634046 0.50277449 -0.03479505
v 0.12083923 0.50266151 -0.00009778
vn 0 1 0
usemtl material_0_0
f 1//1 2//1 3//1
f 2//1 1//1 4//1
f 2//1 4//1 5//1
f 5//1 4//1 6//1
f 5//1 6//1 7//1
f 7//1 6//1 8//1
f 7//1 8//1 9//1
f 9//1 8//1 10//1
f 9//1 10//1 11//1
f 11//1 10//1 12//1
f 11//1 12//1 13//1
f 13//1 12//1 14//1
f 13//1 14//1 15//1
f 15//1 14//1 16//1
f 15//1 16//1 17//1
f 17//1 16//1 18//1
f 17//1 18//1 19//1
f 19//1 18//1 20//1
f 19//1 20//1 21//1
f 21//1 20//1 22//1
f 21//1 22//1 23//1
f 23//1 22//1 24//1
