# SSTK version 0.8.0
# 5
mtllib original-5.mtl
o group_4/ID34#ID34
v -0.24985945 0.48860248 0.08727511
v -0.23079511 0.49074112 0.03898035
v -0.25166144 0.48862260 0.04357606
v -0.22896170 0.49087292 0.07734186
v -0.24669903 0.48859456 0.13089747
v -0.22474789 0.49077088 0.11680428
v -0.20901735 0.49399036 0.03415093
v -0.20723281 0.49390154 0.06634482
v -0.23164390 0.49074371 -0.00022645
v -0.25217378 0.48857437 -0.00008220
v -0.24469570 0.48854260 0.15205156
v -0.22210404 0.49076051 0.13606982
v -0.20175275 0.49400819 0.10145617
v -0.18729061 0.49731008 0.02914163
v -0.18525493 0.49740840 0.05531153
v -0.21042118 0.49388599 -0.00020045
v -0.25151734 0.48867487 -0.04384488
v -0.23070698 0.49075719 -0.03881541
v -0.24264122 0.48860543 0.16497623
v -0.21996632 0.49070045 0.14733440
v -0.19874458 0.49390808 0.11843238
v -0.17874873 0.49742496 0.08562081
v -0.16566391 0.50042519 0.02415923
v -0.16366725 0.50053252 0.04448302
v -0.18909839 0.49730446 -0.00018937
v -0.20914885 0.49388149 -0.03354723
v -0.24970422 0.48861468 -0.08763508
v -0.22888415 0.49078074 -0.07766403
v -0.23919186 0.48851040 0.17735492
v -0.21635931 0.49084819 0.15825726
v -0.19614879 0.49396567 0.12810635
v -0.17517486 0.49736715 0.10044077
v -0.15584796 0.50054494 0.07036581
v -0.14463328 0.50279352 0.01965228
v -0.14278330 0.50272486 0.03462522
v -0.16771365 0.50051743 -0.00023428
v -0.18731762 0.49735198 -0.02782967
v -0.20728895 0.49383402 -0.06671876
v -0.24672996 0.48855386 -0.13111659
v -0.22476252 0.49072081 -0.11713109
v -0.23439758 0.48868020 0.18932235
v -0.21189096 0.49085322 0.16887529
v -0.19268840 0.49382683 0.13729909
v -0.17224467 0.49740774 0.10833927
v -0.15179468 0.50048041 0.08291190
v -0.13380650 0.50275498 0.05632008
v -0.14731471 0.50275322 -0.00019285
v -0.16585154 0.50047589 -0.02259485
v -0.18539437 0.49741980 -0.05576076
v -0.20176813 0.49386916 -0.10176453
v -0.24469640 0.48848644 -0.15235517
v -0.22225156 0.49072113 -0.13624473
v -0.22831805 0.48862684 0.20077892
v -0.20615876 0.49074968 0.17881308
v -0.18835734 0.49389290 0.14643709
v -0.16892394 0.49726561 0.11600534
v -0.14859495 0.50058661 0.08909012
v -0.12939368 0.50264982 0.06686335
v -0.14507155 0.50276208 -0.01752749
v -0.16363057 0.50045018 -0.04488833
v -0.17862159 0.49741666 -0.08610326
v -0.19873306 0.49388259 -0.11873409
v -0.24277827 0.48848513 -0.16513536
v -0.21989563 0.49077033 -0.14760790
v -0.22089807 0.48850859 0.21133859
v -0.19960838 0.49077246 0.18843552
v -0.18321349 0.49394131 0.15515976
v -0.16472575 0.49744942 0.12347227
v -0.14517896 0.50044282 0.09517015
v -0.12588108 0.50278276 0.07135752
v -0.14272301 0.50261700 -0.03479682
v -0.15573972 0.50044005 -0.07078452
v -0.17512424 0.49732449 -0.10075838
v -0.19618515 0.49399697 -0.12839175
v -0.23923703 0.48856336 -0.17768044
v -0.21650140 0.49074093 -0.15845530
v -0.21238399 0.48856827 0.22091575
v -0.19204381 0.49073653 0.19700036
v -0.17737071 0.49402131 0.16337549
v -0.16009266 0.49732667 0.13085169
v -0.14130808 0.50053767 0.10119583
v -0.12237492 0.50263129 0.07598523
v -0.13365428 0.50276695 -0.05657572
v -0.15183448 0.50051161 -0.08324821
v -0.17233995 0.49743407 -0.10871606
v -0.19287343 0.49382730 -0.13758482
v -0.23441195 0.48854097 -0.18975853
v -0.21189773 0.49083154 -0.16917654
v -0.20258658 0.48848980 0.22955414
v -0.18321174 0.49093855 0.20477354
v -0.17079780 0.49386071 0.17102365
v -0.15511767 0.49736226 0.13789686
v -0.13722105 0.50050176 0.10716684
v -0.11867236 0.50261367 0.08070212
v -0.12935608 0.50269441 -0.06729627
v -0.14871683 0.50044753 -0.08940731
v -0.16881683 0.49731136 -0.11621043
v -0.18836749 0.49397095 -0.14687113
v -0.22833738 0.48858839 -0.20098835
v -0.20623576 0.49084443 -0.17932201
v -0.19207287 0.48852207 0.23686493
v -0.17385069 0.49095540 0.21147922
v -0.16310269 0.49405345 0.17765272
v -0.14951831 0.49729463 0.14451371
v -0.13287136 0.50053305 0.11294571
v -0.11518390 0.50278293 0.08537451
v -0.12580493 0.50273411 -0.07170823
v -0.14512772 0.50044758 -0.09538188
v -0.16477393 0.49732340 -0.12380231
v -0.18328984 0.49397492 -0.15555763
v -0.22073037 0.48853843 -0.21168045
v -0.19956583 0.49071717 -0.18866081
v -0.18074579 0.48850502 0.24305027
v -0.16375995 0.49086463 0.21712080
v -0.15496502 0.49405648 0.18367125
v -0.14274102 0.49731484 0.14995656
v -0.12840384 0.50053942 0.11856578
v -0.11149509 0.50261211 0.09002524
v -0.12237394 0.50268922 -0.07623225
v -0.14133867 0.50056240 -0.10150708
v -0.16010461 0.49741311 -0.13110607
v -0.17734344 0.49399342 -0.16369746
v -0.21225839 0.48861596 -0.22133143
v -0.19194720 0.49084670 -0.19746351
v -0.16873875 0.48849740 0.24798743
v -0.15329011 0.49097577 0.22178094
v -0.14613089 0.49390948 0.18878288
v -0.13576637 0.49720856 0.15512595
v -0.12260967 0.50039706 0.12308163
v -0.10808242 0.50266195 0.09461589
v -0.11872212 0.50278198 -0.08100071
v -0.13725694 0.50046569 -0.10751517
v -0.15510618 0.49742447 -0.13815324
v -0.17086270 0.49392481 -0.17143767
v -0.20256650 0.48866844 -0.22979711
v -0.18322877 0.49078834 -0.20514517
v -0.15631684 0.48862341 0.25149004
v -0.14231708 0.49106038 0.22521439
v -0.13707000 0.49409428 0.19309435
v -0.12852327 0.49733648 0.15986627
v -0.11675071 0.50032454 0.12742800
v -0.10323601 0.50259959 0.09824608
v -0.11518899 0.50267450 -0.08572564
v -0.13290254 0.50037440 -0.11325185
v -0.14940641 0.49731599 -0.14485000
v -0.16313216 0.49394713 -0.17799562
v -0.19193117 0.48863640 -0.23724079
v -0.17390432 0.49079475 -0.21187479
v -0.14362386 0.48864830 0.25341505
v -0.13124699 0.49094274 0.22743886
v -0.12780866 0.49398652 0.19652527
v -0.12086021 0.49722583 0.16384650
v -0.11091687 0.50037176 0.13151055
v -0.09870128 0.50273466 0.10193520
v -0.11154000 0.50269696 -0.09025651
v -0.12833361 0.50051895 -0.11892509
v -0.14286139 0.49723485 -0.15044343
v -0.15484449 0.49390289 -0.18406500
v -0.18072550 0.48853594 -0.24347654
v -0.16377472 0.49087185 -0.21743494
v -0.12225731 0.48863633 0.25541389
v -0.11208262 0.49105830 0.22999057
v -0.11843820 0.49400268 0.19923767
v -0.11312950 0.49722419 0.16721143
v -0.10473427 0.50026668 0.13531225
v -0.09386466 0.50276850 0.10542615
v -0.10805960 0.50271379 -0.09505141
v -0.12259051 0.50049769 -0.12329731
v -0.13580208 0.49737617 -0.15557197
v -0.14620558 0.49401905 -0.18921860
v -0.16875963 0.48854828 -0.24837991
v -0.15320377 0.49085055 -0.22213005
v -0.07877447 0.48849402 0.25850575
v -0.07271674 0.49112262 0.23410131
v -0.10136209 0.49405838 0.20218486
v -0.10534927 0.49730258 0.17015881
v -0.09868763 0.50026748 0.13865683
v -0.08918471 0.50263238 0.10912178
v -0.10322089 0.50259569 -0.09861068
v -0.11686338 0.50041729 -0.12763764
v -0.12842373 0.49735730 -0.16011063
v -0.13709222 0.49394587 -0.19341571
v -0.15624140 0.48853934 -0.25185141
v -0.14225611 0.49093808 -0.22549060
v -0.03506234 0.48864880 0.26033155
v -0.03414875 0.49123313 0.23601495
v -0.06649833 0.49416881 0.20745308
v -0.09056339 0.49721261 0.17373735
v -0.09263257 0.50020580 0.14197942
v -0.08470669 0.50272063 0.11257906
v -0.09871615 0.50267043 -0.10220751
v -0.11082920 0.50033362 -0.13172503
v -0.12079492 0.49736373 -0.16409547
v -0.12790166 0.49392754 -0.19685970
v -0.14355240 0.48851124 -0.25374933
v -0.13109393 0.49101476 -0.22780843
v 0.00851812 0.48857832 0.26102395
v 0.00437466 0.49129229 0.23700415
v -0.03329953 0.49408375 0.20944123
v -0.06013731 0.49720635 0.18022188
v -0.07979053 0.50021005 0.14579736
v -0.08028938 0.50272874 0.11588232
v -0.09397378 0.50272262 -0.10570628
v -0.10480819 0.50027497 -0.13556788
v -0.11321721 0.49728781 -0.16760101
v -0.11826885 0.49406768 -0.19945661
v -0.12228625 0.48855671 -0.25576160
v -0.11197502 0.49112411 -0.23034972
v 0.04287447 0.49144168 0.23600493
v 0.05232002 0.48867403 0.26036295
v -0.00001658 0.49411944 0.21084188
v -0.03240305 0.49707361 0.18234254
v -0.05384942 0.50008056 0.15375463
v -0.06964436 0.50260948 0.12034280
v -0.08937299 0.50263355 -0.10936876
v -0.09859514 0.50029358 -0.13914455
v -0.10536038 0.49713962 -0.17059416
v -0.10128205 0.49414069 -0.20255419
v -0.07870015 0.48854928 -0.25878584
v -0.07264275 0.49122570 -0.23448865
v 0.08121479 0.49165506 0.23416968
v 0.09600028 0.48862031 0.25844043
v 0.03309123 0.49420551 0.20958677
v -0.00452985 0.49714918 0.18397211
v -0.03136813 0.50000554 0.15591331
v -0.04791103 0.50277569 0.12924562
v -0.08484967 0.50269445 -0.11286709
v -0.09262264 0.50021887 -0.14220556
v -0.09060626 0.49731400 -0.17396771
v -0.06646115 0.49418715 -0.20786046
v -0.03510245 0.48864453 -0.26062481
v -0.03423625 0.49122795 -0.23640945
v 0.12055388 0.49167803 0.22992961
v 0.13950975 0.48853198 0.25555850
v 0.06636530 0.49439306 0.20752620
v 0.02340391 0.49694478 0.18239608
v -0.00880883 0.49996054 0.15795861
v -0.03051897 0.50275668 0.13154020
v -0.08029350 0.50264475 -0.11638119
v -0.07980719 0.50026942 -0.14615324
v -0.06018680 0.49726119 -0.18065734
v -0.03335646 0.49408122 -0.20996595
v 0.00860403 0.48850576 -0.26124446
v 0.00421549 0.49147854 -0.23723263
v 0.13982815 0.49182955 0.22738822
v 0.16073921 0.48850440 0.25337813
v 0.10109956 0.49446606 0.20216789
v 0.05103371 0.49703666 0.18028982
v 0.01351313 0.49969038 0.15599064
v -0.01329018 0.50277721 0.13391419
v -0.06961896 0.50272621 -0.12062003
v -0.05387555 0.50018253 -0.15416839
v -0.03238030 0.49704157 -0.18276326
v -0.00002129 0.49424721 -0.21112488
v 0.04287029 0.49156829 -0.23639523
v 0.05232462 0.48868037 -0.26065216
v 0.15083546 0.49173966 0.22514137
v 0.17344896 0.48861328 0.25143434
v 0.11817779 0.49436116 0.19921611
v 0.08149831 0.49699395 0.17367710
v 0.03614961 0.49974215 0.15382526
v 0.00408683 0.50269966 0.13168291
v -0.04796795 0.50278332 -0.12974856
v -0.03138976 0.50003976 -0.15623622
v -0.00455491 0.49697976 -0.18445106
v 0.03317460 0.49432450 -0.20980170
v 0.08131675 0.49167625 -0.23454811
v 0.09584967 0.48854425 -0.25884374
v 0.16186476 0.49178166 0.22179342
v 0.18602506 0.48854369 0.24797164
v 0.12769865 0.49441443 0.19660957
v 0.09646218 0.49681893 0.17017343
v 0.06212459 0.49957927 0.14592553
v 0.02141441 0.50263686 0.12940242
v -0.03057501 0.50268982 -0.13195103
v -0.00893307 0.49983118 -0.15823574
v 0.02330876 0.49702636 -0.18280899
v 0.06631711 0.49442337 -0.20779818
v 0.12058067 0.49178762 -0.23024922
v 0.13946864 0.48861868 -0.25582817
v 0.17242397 0.49186618 0.21708243
v 0.19786991 0.48859899 0.24307843
v 0.13689022 0.49450940 0.19322438
v 0.10420029 0.49680251 0.16728068
v 0.07478349 0.49950999 0.14200206
v 0.04315805 0.50269189 0.12033306
v -0.01316020 0.50264564 -0.13432767
v 0.01350826 0.49970731 -0.15632053
v 0.05116382 0.49691229 -0.18068444
v 0.10120479 0.49442310 -0.20254177
v 0.13976742 0.49176074 -0.22768502
v 0.16081556 0.48866302 -0.25374233
v 0.18234338 0.49195868 0.21135634
v 0.20932412 0.48861271 0.23697523
v 0.14610080 0.49453388 0.18879565
v 0.11187870 0.49677560 0.16377105
v 0.08092237 0.49940609 0.13877200
v 0.05384126 0.50279278 0.11584471
v 0.00418562 0.50266835 -0.13189448
v 0.03617400 0.49970467 -0.15399163
v 0.08157945 0.49683403 -0.17400115
v 0.11826972 0.49431889 -0.19951048
v 0.15098215 0.49184001 -0.22542409
v 0.17359841 0.48858557 -0.25180638
v 0.19172162 0.49200344 0.20463675
v 0.21981580 0.48848829 0.22947268
v 0.15461537 0.49442055 0.18373983
v 0.11940171 0.49685098 0.15972699
v 0.08710091 0.49952460 0.13514574
v 0.05828695 0.50273200 0.11238768
v 0.02142320 0.50264626 -0.12964182
v 0.06202858 0.49947849 -0.14612582
v 0.09640763 0.49683328 -0.17047679
v 0.12761798 0.49437763 -0.19686618
v 0.16182783 0.49173726 -0.22212072
v 0.18604944 0.48867452 -0.24826383
v 0.20037439 0.49201838 0.19700448
v 0.22956251 0.48850296 0.22094216
v 0.16298699 0.49455652 0.17769726
v 0.12674802 0.49689398 0.15506144
v 0.09306393 0.49935922 0.13145964
v 0.06283075 0.50262472 0.10891795
v 0.04326540 0.50261831 -0.12059583
v 0.07491380 0.49942335 -0.14216623
v 0.10411240 0.49694199 -0.16773197
v 0.13693186 0.49448830 -0.19354817
v 0.17241909 0.49181004 -0.21740005
v 0.19793079 0.48853704 -0.24348780
v 0.20796883 0.49206060 0.18826343
v 0.23806339 0.48863815 0.21120161
v 0.17051921 0.49453985 0.17117395
v 0.13383049 0.49671861 0.15013428
v 0.09904241 0.49945921 0.12726237
v 0.06754524 0.50277156 0.10535592
v 0.05390334 0.50264753 -0.11624622
v 0.08098516 0.49945353 -0.13906664
v 0.11181853 0.49677950 -0.16428710
v 0.14600854 0.49452456 -0.18912414
v 0.18242203 0.49192518 -0.21187079
v 0.20928141 0.48856342 -0.23732032
v 0.21476009 0.49203891 0.17890901
v 0.24545013 0.48859107 0.20067337
v 0.17707454 0.49460442 0.16339177
v 0.14054521 0.49671997 0.14454280
v 0.10487190 0.49936500 0.12307769
v 0.07214048 0.50277552 0.10183935
v 0.05837417 0.50266976 -0.11282804
v 0.08702185 0.49946309 -0.13562872
v 0.11936321 0.49681105 -0.16004263
v 0.15462884 0.49444423 -0.18407255
v 0.19171311 0.49197223 -0.20502573
v 0.21983635 0.48856893 -0.22991039
v 0.22035286 0.49205309 0.16887616
v 0.25169255 0.48849665 0.18935152
v 0.18302704 0.49449419 0.15526816
v 0.14601668 0.49666682 0.13776078
v 0.11053626 0.49929484 0.11860852
v 0.07681239 0.50274105 0.09815601
v 0.06293314 0.50259977 -0.10939263
v 0.09312221 0.49943662 -0.13189659
v 0.12671309 0.49688647 -0.15554440
v 0.16284646 0.49457606 -0.17816825
v 0.20053545 0.49187148 -0.19742464
v 0.22958200 0.48848664 -0.22110040
v 0.22502422 0.49206672 0.15818225
v 0.25647860 0.48858156 0.17739018
v 0.18811712 0.49445421 0.14636718
v 0.15116416 0.49676770 0.13079042
v 0.11521145 0.49930082 0.11292420
v 0.08162585 0.50275193 0.09476322
v 0.06758292 0.50262566 -0.10583474
v 0.09906058 0.49944927 -0.12766058
v 0.13385013 0.49683260 -0.15034752
v 0.17065191 0.49440821 -0.17145452
v 0.20795893 0.49202098 -0.18871805
v 0.23810977 0.48862163 -0.21168361
v 0.22842815 0.49210908 0.14717365
v 0.26001394 0.48853838 0.16484376
v 0.19261214 0.49447101 0.13729435
v 0.15570484 0.49675374 0.12344282
v 0.11957782 0.49930497 0.10705941
v 0.08513309 0.50279179 0.09003883
v 0.07209887 0.50269294 -0.10224071
v 0.10491232 0.49941960 -0.12331822
v 0.14054584 0.49687540 -0.14485043
v 0.17711094 0.49455519 -0.16375954
v 0.21465052 0.49203909 -0.17919436
v 0.24555444 0.48848510 -0.20098720
v 0.23075042 0.49204577 0.13608323
v 0.26183818 0.48861407 0.15206157
v 0.19608391 0.49457361 0.12799161
v 0.15984598 0.49683370 0.11601948
v 0.12356578 0.49923943 0.10116716
v 0.08867549 0.50276836 0.08530408
v 0.07680166 0.50262958 -0.09851468
v 0.11064874 0.49927424 -0.11873919
v 0.14609810 0.49670830 -0.13827790
v 0.18307480 0.49462018 -0.15543717
v 0.22037285 0.49196575 -0.16917831
v 0.25171302 0.48867514 -0.18971306
v 0.23309377 0.49196411 0.11672116
v 0.26398085 0.48858923 0.13083834
v 0.19860625 0.49462305 0.11848076
v 0.16324454 0.49665546 0.10822995
v 0.12752054 0.49915083 0.09520967
v 0.09225226 0.50262606 0.08056934
v 0.08155406 0.50274239 -0.09506992
v 0.11510209 0.49934301 -0.11322077
v 0.15111576 0.49669280 -0.13120456
v 0.18811148 0.49450201 -0.14680165
v 0.22500036 0.49198312 -0.15850934
v 0.25643202 0.48851029 -0.17776399
v 0.23742348 0.49193554 0.07722267
v 0.26699479 0.48861863 0.08721735
v 0.20164456 0.49461825 0.10140829
v 0.16621147 0.49678328 0.10053064
v 0.13102029 0.49918016 0.08914760
v 0.09596668 0.50265961 0.07593031
v 0.08515974 0.50277251 -0.09032598
v 0.11944435 0.49925543 -0.10744137
v 0.15586741 0.49671882 -0.12393467
v 0.19262434 0.49454834 -0.13779410
v 0.22836088 0.49194788 -0.14758389
v 0.25995504 0.48857987 -0.16524250
v 0.23921240 0.49200664 0.03862865
v 0.26881967 0.48849559 0.04349038
v 0.20693942 0.49455893 0.06638315
v 0.16963572 0.49679024 0.08567775
v 0.13416144 0.49934725 0.08297223
v 0.09941252 0.50278006 0.07138430
v 0.08881086 0.50260259 -0.08563720
v 0.12355799 0.49919479 -0.10149812
v 0.15993984 0.49679866 -0.11628510
v 0.19598803 0.49457977 -0.12832640
v 0.23063469 0.49203112 -0.13639615
v 0.26184717 0.48863941 -0.15238874
v 0.24009280 0.49200668 -0.00022359
v 0.26942695 0.48863791 -0.00011770
v 0.20895256 0.49456617 0.03316706
v 0.17624287 0.49671041 0.05524765
v 0.13803192 0.49921748 0.07034637
v 0.10283956 0.50277561 0.06693458
v 0.09225699 0.50268410 -0.08102786
v 0.12745252 0.49920187 -0.09560283
v 0.16338809 0.49683228 -0.10870293
v 0.19852336 0.49445394 -0.11876440
v 0.23322171 0.49208866 -0.11699216
v 0.26401053 0.48857473 -0.13113686
v 0.26880762 0.48850995 -0.04387607
v 0.23929069 0.49206463 -0.03882508
v 0.21023069 0.49456431 -0.00018650
v 0.17844934 0.49672077 0.02765067
v 0.14595793 0.49934059 0.04446258
v 0.10724996 0.50273714 0.05616513
v 0.09596869 0.50278786 -0.07646376
v 0.13095944 0.49927536 -0.08951181
v 0.16614588 0.49676601 -0.10079803
v 0.20158179 0.49450149 -0.10183851
v 0.23732350 0.49209071 -0.07755008
v 0.26696521 0.48856623 -0.08755581
v 0.20893695 0.49448705 -0.03350187
v 0.18008506 0.49667092 -0.00023484
v 0.14821887 0.49926356 0.02225033
v 0.11619688 0.50275055 0.03447356
v 0.09947990 0.50259538 -0.07175214
v 0.13415826 0.49924204 -0.08324482
v 0.16969220 0.49674516 -0.08598537
v 0.20695197 0.49454168 -0.06686952
v 0.17846448 0.49667683 -0.02801429
v 0.15009950 0.49934533 -0.00021716
v 0.11851861 0.50279242 0.01711098
v 0.10296147 0.50265916 -0.06725939
v 0.13813099 0.49924352 -0.07060387
v 0.17632017 0.49670121 -0.05570422
v 0.14817364 0.49917150 -0.02248335
v 0.12089722 0.50260902 -0.00011350
v 0.10733740 0.50271715 -0.05658569
v 0.14590424 0.49919475 -0.04484136
v 0.11856598 0.50275489 -0.01744212
v 0.11633060 0.50278990 -0.03496814
vn -0.0999429141623366 0.9949678414375656 0.007099888295690268
vn -0.12357129512188067 0.9923248608268321 0.004637413816932964
vn -0.10510209982575718 0.9944553983513487 0.003465443994255057
vn -0.1172510971113932 0.9930555755350086 0.009633489762668845
vn -0.09323813536618142 0.9955954505201527 0.009815753512169562
vn -0.10962739694142702 0.9938791722710556 0.013639089619473525
vn -0.14745740673789137 0.9890415451930809 0.007289381333079857
vn -0.13868270508185976 0.9902255362856155 0.014849060544126061
vn -0.12499009797072021 0.9921579838917947 0.00010202469834379582
vn -0.10652380549193802 0.9943101512626233 0.00004426753228247631
vn -0.08699595351317181 0.996116240226325 0.013569820547992502
vn -0.10186649781997383 0.9946385787139228 0.017813319618780646
vn -0.12839980387267733 0.9914913299044535 0.02141105064578072
vn -0.14697070035582097 0.989092502394626 0.00977931202367626
vn -0.13687939476593078 0.990402762128437 0.01914157926805403
vn -0.14935360423528493 0.9887838280393717 0.00020569330583315382
vn -0.1052410023460071 0.994440622167831 -0.0034900440777990015
vn -0.12367520232675602 0.992311918668801 -0.004636852087234919
vn -0.08002054373369961 0.9965930465002971 0.01997529093203258
vn -0.09373959136880611 0.995292314533477 0.024619050359493005
vn -0.11883840332043713 0.9925530277327012 0.02675670074760319
vn -0.12455649986703128 0.9918285989411858 0.02759906997053718
vn -0.12239780594331397 0.9924196481892752 0.011046220536375497
vn -0.1132403043900697 0.9933540385100824 0.020600670798641495
vn -0.14937340384614609 0.9887808254596563 0.00025578650658634696
vn -0.14750709353244387 0.9890343566350671 -0.0072593906817064995
vn -0.09998342470329673 0.9949635468038458 -0.007131291335461174
vn -0.1172921949294542 0.9930499570704147 -0.00971204258014783
vn -0.07327341945526339 0.996954992588337 0.026678619801663344
vn -0.08577408916383335 0.9958015902924521 0.03196870968835402
vn -0.1090466986753429 0.993425787932248 0.03484280957674326
vn -0.11416290145056628 0.9928946126158272 0.03357261042657748
vn -0.10015619589591881 0.9945375592470257 0.029390128795686567
vn -0.10367520016393951 0.9945484015726594 0.011177200017674502
vn -0.09458594858786563 0.9953276851401138 0.019398389710389208
vn -0.12548679608841817 0.9920952690751382 0.0002026972936818898
vn -0.14701070535190355 0.9890871360075748 -0.009720591353876509
vn -0.13866760551179877 0.9902251393597459 -0.01501561059684447
vn -0.09323013911900398 0.9955961905919235 -0.009816640907235554
vn -0.10962239781238872 0.9938796801662577 -0.0136422597277565
vn -0.06732518172344573 0.9971915255269341 0.03280825083985298
vn -0.07868038062060548 0.9961532078573355 0.03857699030428309
vn -0.10020709508992073 0.9940774512908833 0.04205423793937127
vn -0.10366840031081112 0.9937284029793249 0.041913290125661626
vn -0.09074864637335492 0.9952503602261855 0.03523355859193941
vn -0.08283732005963532 0.9961474007171353 0.028780800020719772
vn -0.10547459871785263 0.9944219879118238 0.00013777809832539266
vn -0.12248200447195243 0.9924099362339761 -0.01098531040108552
vn -0.1368248061371556 0.9904062444237959 -0.019350540867951172
vn -0.12839899960199844 0.9914912969266497 -0.021417399933611733
vn -0.08699372729184822 0.9961164689904699 -0.013567299577643962
vn -0.10186969943710093 0.9946382945039499 -0.01781087990158261
vn -0.06192433809350386 0.9973329692946019 0.038630618810659684
vn -0.07219416119928276 0.9963869165518878 0.0447338307431145
vn -0.09220866426788565 0.9945578460331922 0.048500032244828226
vn -0.09595410152072581 0.9942624157575393 0.047276410749259055
vn -0.08060231311822724 0.9958358385254756 0.04259401164781655
vn -0.07310680293168845 0.9967525399712174 0.03376047135384391
vn -0.10376389970029405 0.9945396971274262 -0.011128519967856772
vn -0.11318880259301041 0.9933564227565226 -0.02076806047576943
vn -0.12455660029779103 0.9918284023712722 -0.027605680065999685
vn -0.11885019785856767 0.9925516821162917 -0.02675422951794444
vn -0.08004591642885373 0.9965913555383501 -0.019957989109599592
vn -0.09378260001326075 0.9952891001407328 -0.024585180003476096
vn -0.056855477715658784 0.9973971599265448 0.0443436582183593
vn -0.0660989425864474 0.9965267389940277 0.05064966198191826
vn -0.08481699323218501 0.9949086379137325 0.05443234207429446
vn -0.08902906072530448 0.9946616081033376 0.05217386042505172
vn -0.07564543114257706 0.9961194150457626 0.044987550679509124
vn -0.06440618038465687 0.9970956059550136 0.04064722024276004
vn -0.09458221541824076 0.9953257517843505 -0.01951543905463132
vn -0.10015370132782395 0.9945377131854437 -0.029393420389693687
vn -0.11417599679519957 0.9928931721305305 -0.03357067905770604
vn -0.1091160035409237 0.9934202322374823 -0.034784191128781644
vn -0.07329212283172767 0.9969535385184767 -0.026681581030874153
vn -0.08579864834541806 0.9957997807965234 -0.031959169383683955
vn -0.051399138770451276 0.9974127761403082 0.05025815879774554
vn -0.059008080054628154 0.9966247009226494 0.05707234005283632
vn -0.0778547233420867 0.9951558427192723 0.060029082576881755
vn -0.08269625068994794 0.994955908301075 0.05678090047373229
vn -0.07144184001410359 0.9963166001966862 0.0474267400093629
vn -0.06125489854435447 0.9972667763012109 0.041313609018234325
vn -0.08283241926866311 0.9961477912048973 -0.028781389745885597
vn -0.09075521990905244 0.995249799002641 -0.03523247996469263
vn -0.10373720144259066 0.9937238138189259 -0.041851820581999724
vn -0.10025129646825616 0.9940742649798477 -0.042024198519533096
vn -0.06732985980109132 0.9971907970540573 -0.03282078990303923
vn -0.07868029063853003 0.9961524080842766 -0.03859782031324045
vn -0.04569474160008531 0.9973855349252866 0.05598290196034437
vn -0.05188847103085812 0.9966492198002355 0.06322910125616042
vn -0.06861673266702366 0.9953846386890234 0.06709072260771029
vn -0.07681675165814097 0.9951641214812833 0.06121730132141663
vn -0.06784621845741433 0.9964430773443702 0.04998083886361079
vn -0.05882828825988223 0.9973709704981567 0.04231287874840181
vn -0.07310782671090321 0.9967524551564388 -0.03376075848111449
vn -0.08064256696020602 0.9958342624623682 -0.04255464839591687
vn -0.09600914002026095 0.9942589002098198 -0.0472385900099686
vn -0.09219733985152108 0.9945572983983183 -0.04853277992184031
vn -0.061925277777234666 0.9973326642014286 -0.0386369886131516
vn -0.07219348670802855 0.9963864545654891 -0.04474520795965025
vn -0.04009003038848554 0.9973045096642078 0.06145327059550257
vn -0.045447791781278134 0.9966149390612684 0.06850665268504602
vn -0.05941367116136727 0.9955123194594173 0.0736562114397684
vn -0.06728704937233425 0.9953754907149576 0.06855716936048656
vn -0.06476175014273677 0.9965084021963333 0.05269649011614481
vn -0.057017679705013674 0.9974182948397626 0.04365465977414873
vn -0.06443342096225528 0.9970947148907141 -0.04062590060671112
vn -0.07569143328224309 0.9961169431950857 -0.04496490194983389
vn -0.08901494427425571 0.9946611477609251 -0.05220671250682423
vn -0.08481225119702573 0.9949080140419629 -0.0544511307685138
vn -0.056854668009897476 0.997396965087788 -0.044349078447634485
vn -0.06609514900390895 0.9965264849817856 -0.05065960923653099
vn -0.034234731673140686 0.9971528487334622 0.06718764328363572
vn -0.03884856809413698 0.9965042511127259 0.07395989637161858
vn -0.052436147687030185 0.9955647560854233 0.07811060655452447
vn -0.05755588882478436 0.9955029796731371 0.07524052846368748
vn -0.05715816243818914 0.9965573425100316 0.06005337256169001
vn -0.05575129036935073 0.9974144066078424 0.04534639030041878
vn -0.06127847816203373 0.9972657700883425 -0.04130292876117348
vn -0.07143344035572112 0.9963161049614113 -0.04744979023628816
vn -0.0826892724990088 0.9949553300692225 -0.05680119171662727
vn -0.07784498064124966 0.9951555081976144 -0.06004726049464035
vn -0.05137566185922286 0.9974127360951568 -0.050282951819678796
vn -0.058980738952986826 0.9966248823081333 -0.05709742898641871
vn -0.02789639943971664 0.9969191799774438 0.07330715852766752
vn -0.03184605136752994 0.9963079427833555 0.07972648342360686
vn -0.045506831631124484 0.9955409356836794 0.08262792296167483
vn -0.05184574040286376 0.9955504077358558 0.07868548061142033
vn -0.048633047991182066 0.9966112588343595 0.06633871725983874
vn -0.049415167569585985 0.9974347509426048 0.05178859745285246
vn -0.05882587008686996 0.9973704014728473 -0.042329650062509265
vn -0.06783793311607819 0.9964427457707562 -0.049998692296647496
vn -0.07680120824774715 0.995163877294905 -0.06124076860276511
vn -0.06858663846572352 0.9953846777333409 -0.06712090849851154
vn -0.04567619072933055 0.9973851159256591 -0.056005500894262684
vn -0.051870850295142316 0.9966485056708758 -0.0632548103599162
vn -0.02083687018046661 0.9965844086313449 0.07990833069208045
vn -0.024226279835113985 0.9960085932210853 0.08590674941531196
vn -0.038370721638370686 0.9954368425036194 0.08736807373048236
vn -0.046326540659604655 0.9955328141745546 0.08226948117136619
vn -0.04578773847368955 0.9965794667795416 0.06879570770673107
vn -0.04246432110582697 0.9973789259730637 0.058583781525599225
vn -0.05700868152389866 0.9974181266619768 -0.043670251167348954
vn -0.06474045255273429 0.9965083392926045 -0.05272384207891573
vn -0.06725598201033242 0.995375429752528 -0.06858853205016312
vn -0.05939400722816743 0.9955116535409083 -0.07368106656141077
vn -0.040094639369692354 0.9973039843218859 -0.061458789033837086
vn -0.045452788999166084 0.9966143780553517 -0.06851149849143161
vn -0.014258339954779282 0.9961494968406845 0.08650363972565156
vn -0.017252700259000584 0.9956102149462763 0.09199263138100985
vn -0.030915571530530317 0.9952417492712117 0.09240177457451429
vn -0.04071611064049201 0.9954472156590592 0.0861802713556743
vn -0.04325212144541658 0.996495033301267 0.07160239239283743
vn -0.041472980275047804 0.9973026066140868 0.06055991040163208
vn -0.05572675210375157 0.9974145376535922 -0.0453736617129098
vn -0.05712889176861025 0.9965573308516664 -0.06008141186001487
vn -0.05753571003375999 0.995502400584127 -0.07526362004416191
vn -0.05243746142308011 0.9955641270182323 -0.07811774212000717
vn -0.03423723069893789 0.9971523203564227 -0.06719421137173982
vn -0.0388474692139592 0.9965039798367099 -0.07396412850340749
vn -0.01050547018935898 0.995594717945394 0.09317077167938458
vn -0.013158489859537895 0.9951026893776398 0.0979667889542403
vn -0.022974709254519103 0.9949465677160808 0.09774195682847972
vn -0.03503422111159695 0.9952867315793432 0.09042635286912803
vn -0.040792078242660394 0.9963532570766895 0.07494126677149945
vn -0.04083895922121843 0.9971771809842556 0.06300673879848853
vn -0.04938860115174831 0.9974346232602992 -0.051816391208364454
vn -0.04861764116690651 0.9966108239203638 -0.06635654159267024
vn -0.05183758799544079 0.9955497615020968 -0.07869902695670888
vn -0.045489978522005314 0.9955409676543207 -0.08263681731508365
vn -0.027899219923116555 0.9969187972527349 -0.07331128979797175
vn -0.03185579075526668 0.9963079236213938 -0.07972283189014273
vn -0.007946961399314416 0.9948004499861695 0.1015328051017631
vn -0.009751016673939395 0.9945073667450396 0.10421139651531425
vn -0.01791559071414862 0.9945657396452321 0.10255740408812827
vn -0.027137338840578708 0.9950175574886635 0.09593552590123093
vn -0.038523109069797404 0.9961474759464126 0.07877928809774726
vn -0.040399099839334436 0.9969969960349838 0.06606740973725284
vn -0.042454180874946644 0.997378520555172 -0.05859803120765824
vn -0.045774890549831054 0.9965788119705361 -0.06881374082656498
vn -0.04628549877805687 0.9955326737178093 -0.08229427782742024
vn -0.03839607832240587 0.9954374565075367 -0.08734993618352305
vn -0.020841180264302067 0.9965842126384046 -0.0799096510133918
vn -0.024238049255151852 0.9960088693921175 -0.08590022736024008
vn -0.004692727119328551 0.9939495252745479 0.10973750279044954
vn -0.005784244904583473 0.9940102836028711 0.1091333981997428
vn -0.012554730205784442 0.9942216162962754 0.10661030174744848
vn -0.021629669062337008 0.9946333568818696 0.10117629561392903
vn -0.03140656915316931 0.995821973149165 0.08574511768801267
vn -0.040261931303271194 0.996751632264664 0.06975070225781742
vn -0.04146092129442623 0.9973020311361608 -0.06057764189125753
vn -0.043205389040017514 0.9964943778588465 -0.07163971840823365
vn -0.04076488986438422 0.995447896688365 -0.08614933971339998
vn -0.03095323910859387 0.9952425713385301 -0.09238030733958766
vn -0.014257540382138974 0.9961492266993767 -0.08650688231860805
vn -0.017251379452857787 0.9956099684233808 -0.09199554708228254
vn -0.0009966396726735847 0.9933320727642745 0.11528399683908012
vn -0.0017632289870830812 0.9938157927195855 0.1110272991866455
vn -0.006592589797514052 0.9940887694673849 0.10836999667150532
vn -0.014075309790042503 0.9942627851688575 0.10603489841830702
vn -0.025967270205677517 0.9953241078836085 0.09303559073690207
vn -0.03419563158592806 0.9964238462122342 0.07726692358349252
vn -0.04079974086472741 0.9971764211345896 -0.06304416133618508
vn -0.040849960583728195 0.9963531142374533 -0.07491163107045447
vn -0.03510767935683799 0.995287481766636 -0.09038959834408981
vn -0.02297112930635415 0.9949461699561885 -0.09774684704839501
vn -0.010505509807368018 0.9955949817444905 -0.09316794829164608
vn -0.013159480124434617 0.9951029094095852 -0.09796442092634071
vn 0.002117627942364747 0.9938539729503828 0.11067879698766725
vn 0.002794211014687781 0.9929722052195622 0.11831480062192243
vn -0.0012892619524995264 0.9943771633640113 0.10588859609873062
vn -0.0057781452062118325 0.9940868354772096 0.1084342038698261
vn -0.01686429009127119 0.9946498053831421 0.10191840055159258
vn -0.02853068034100213 0.9958028119019552 0.08696413103940599
vn -0.04044562060147376 0.9969958148264957 -0.06605677098234135
vn -0.03860890960398467 0.9961468897824247 -0.07874468919230787
vn -0.027131460964448954 0.9950170353701241 -0.09594260341049594
vn -0.01791924082882263 0.9945657460018706 -0.10255670474357785
vn -0.007946908096979895 0.9948010121400293 -0.10152730123898566
vn -0.009751606117222403 0.9945076119548074 -0.1042090012526785
vn 0.006532570048807885 0.9942249074283191 0.10711750080032516
vn 0.007199158017836098 0.9930610024603339 0.11737980029081167
vn 0.0035980519966662522 0.9948739990782071 0.10105829990636543
vn 0.0014290250236594026 0.9944451164643564 0.10524670174249881
vn -0.0069758769542312745 0.9939907934784268 0.10924119928326875
vn -0.019309240113254175 0.9949574058357078 0.09842212057727391
vn -0.04035066832747233 0.9967506586848713 -0.06971332711039539
vn -0.03140129998244018 0.9958213994431298 -0.0857537099520457
vn -0.02163647043924209 0.9946333201920557 -0.10117520205395804
vn -0.012556890354081257 0.9942214280352193 -0.10661180300625693
vn -0.004692629897647697 0.9939500783206684 -0.10973249760659265
vn -0.005784285212037089 0.9940104364378781 -0.10913200400049969
vn 0.010162469463523907 0.9947435474875538 0.10189209462112327
vn 0.010678460515953371 0.9934311479998169 0.11393210550488117
vn 0.00854644263071308 0.9956444569787699 0.09283896598848136
vn 0.008150750875415818 0.9949999847914308 0.0995419284785024
vn 0.003317418923000532 0.9939792769290894 0.1095179974580157
vn -0.008669664215949361 0.9939483247578799 0.1095060027276435
vn -0.03419259140696033 0.9964232410009277 -0.07727607317976372
vn -0.025974140863573837 0.9953241330919851 -0.0930334030931228
vn -0.01407895992549498 0.9942625947384213 -0.1060361994388625
vn -0.006592812980137923 0.9940883970051234 -0.10837339967350472
vn -0.0009966696406293076 0.9933326404932745 -0.11527910469936054
vn -0.0017632260859312247 0.9938159484338465 -0.11102590541087255
vn 0.013833389639413022 0.9952111740584052 0.09676443747769752
vn 0.01554121072495651 0.9939265463640532 0.10894260508188555
vn 0.01263720031325375 0.9963687246982111 0.08420015208717245
vn 0.014189680213365138 0.9958798149746879 0.08956588134677029
vn 0.01314663975020057 0.9941622811099129 0.10709119796515933
vn 0.0018837900129948506 0.9935657068538626 0.11324150078116817
vn -0.028536010926904866 0.9958029323456066 -0.08696100282466145
vn -0.01686743996552166 0.9946499979668592 -0.10191599979167566
vn -0.005778298793959322 0.9940864645531918 -0.10843759613336763
vn -0.0012892630284382011 0.9943768219336842 -0.10589180233573137
vn 0.002117645036515183 0.9938541171373219 -0.11067750190844483
vn 0.002794059904899795 0.9929727662026167 -0.11831009597313036
vn 0.020404199439205583 0.9957264726331901 0.09006919752451456
vn 0.024034109940782093 0.9945767975494513 0.10118969975067779
vn 0.015732069828520916 0.996870389134143 0.07747211915555649
vn 0.019252869084623463 0.996627852615387 0.07976371620763899
vn 0.02215446942565722 0.9949858742055231 0.09753096747156202
vn 0.015272829745273494 0.9934524834307928 0.11322059811166076
vn -0.019311190156447854 0.9949579080605612 -0.09841666079731343
vn -0.006975573266280314 0.9939909379438664 -0.10923990417004215
vn 0.0014290229536612345 0.9944447677532521 -0.10524999658707006
vn 0.003598243904477738 0.9948736735891768 -0.10106149731712917
vn 0.006532613657631859 0.9942250478935998 -0.10711619438614071
vn 0.007198877344871762 0.9930615475739297 -0.11737520562301458
vn 0.02814186035516467 0.9962071125726432 0.08233726103913856
vn 0.033011210542656 0.9951192163583039 0.09299465152869624
vn 0.020714600893517083 0.9972792430172922 0.07074614305161042
vn 0.023030869105935516 0.9971610612899416 0.07168958721699133
vn 0.02978258971060499 0.9956487903253614 0.08829769914201864
vn 0.02444408067609179 0.9939663274918284 0.10692720295746895
vn -0.008668997842490667 0.9939488819406777 -0.10950099801044694
vn 0.00331738195697904 0.9939793871097305 -0.10951699857974537
vn 0.008150917709093153 0.9949996644883894 -0.09954511644722731
vn 0.008546853741338975 0.9956441698679362 -0.09284200719023966
vn 0.010162509794596217 0.9947436798943255 -0.10189079794059165
vn 0.010678059671265186 0.9934316694162063 -0.11392759649262407
vn 0.035084188953405 0.9965415702722095 0.07532594775295498
vn 0.04117478102513982 0.9954930247850629 0.08542994212697291
vn 0.02552174037466469 0.9975911146448541 0.06450278094691504
vn 0.028132440411292512 0.9975171145835666 0.06456138094387896
vn 0.035811630091028265 0.9962738025323918 0.07846042019943589
vn 0.03614506046835786 0.9946880128888965 0.09638097124887861
vn 0.0018839571005059982 0.9935662530051177 -0.11323670604099093
vn 0.01314643002817599 0.9941624021307313 -0.10709010022951984
vn 0.014190030391535501 0.9958795274786015 -0.08956902247141466
vn 0.012637789576974843 0.9963684666485247 -0.084203117181466
vn 0.013833400027698724 0.9952113019927195 -0.09676312019374933
vn 0.01554061042662813 0.9939270272857512 -0.1089383029906252
vn 0.04149883115660428 0.9967673277806706 0.0687949219173675
vn 0.0487801715186492 0.9957389309998527 0.07825903243640037
vn 0.029791721256847918 0.9978157420956757 0.05895929248736452
vn 0.031062068789479712 0.9977434611169266 0.05952422768028077
vn 0.04286473090450237 0.996580621029166 0.07063767149054828
vn 0.04309776178169985 0.9952729411454697 0.0870307735979299
vn 0.015272310061387462 0.9934530039932111 -0.11321610045507494
vn 0.022154038966514224 0.9949859535839116 -0.09753025545021397
vn 0.019253420030006314 0.9966276015532367 -0.07976672012431563
vn 0.01573282933988312 0.9968701581733962 -0.07747493674931215
vn 0.020370730167913274 0.9957244082076264 -0.09009959074267895
vn 0.0240116706578097 0.9945743272467773 -0.10121930277294466
vn 0.047576337824460496 0.9969069544140939 0.06255410713956712
vn 0.05601223917915175 0.9958817854055501 0.07128883895527643
vn 0.033729261633269635 0.9979748483248652 0.05393087261149103
vn 0.03371751123102355 0.9979098364336058 0.05512792201271611
vn 0.04434810976896444 0.9967523948073266 0.06721538964983546
vn 0.05234276001600508 0.9956460003044432 0.0771315600235851
vn 0.024443190037048347 0.9939668015065476 -0.10692300016206212
vn 0.029782049328071974 0.995648877536657 -0.08829689800788836
vn 0.023031600803671025 0.9971608347952049 -0.07169250250165772
vn 0.02067229001309099 0.9972774006315386 -0.07078448004482495
vn 0.028129981104336933 0.9962052391093843 -0.08236398323347471
vn 0.03301343887914253 0.9951175662142149 -0.09301151684211448
vn 0.05393349813064163 0.9969832654441289 0.05581707806535615
vn 0.0631760675308294 0.9959544610741603 0.06390223750244803
vn 0.037480110505972705 0.9980816134738678 0.04927813066524344
vn 0.03623409873766958 0.9980291652304701 0.05123353821511648
vn 0.04588077786630432 0.9968716536402641 0.0643572870070504
vn 0.0531144487443391 0.9957890764588838 0.07471927823358678
vn 0.03614363074023192 0.994688420371504 -0.09637730197383454
vn 0.03581100872325096 0.9962738644804281 -0.07845991720271403
vn 0.028101440780363137 0.9975159277005249 -0.06459321179372138
vn 0.025493181150682657 0.9975898450280931 -0.06453370291284978
vn 0.03510166998149745 0.9965414994747097 -0.07531873996029827
vn 0.041187258862125646 0.9954925724976728 -0.08542919763985987
vn 0.059789992074959906 0.9970189346006789 0.048768851692481
vn 0.06994198866937228 0.995961581052096 0.05629073892908389
vn 0.042198969896777974 0.9981592975584231 0.0435575898934549
vn 0.0387078786382257 0.9981094648857065 0.04774092832043598
vn 0.04751991200920887 0.9969462421522925 0.061968122620099805
vn 0.0541146480003688 0.9958754632006541 0.07282627730894148
vn 0.04309607040309705 0.9952733093092417 -0.08702740081400645
vn 0.04284860846417897 0.9965796642796333 -0.07066094746730214
vn 0.03103085870623843 0.9977429584013608 -0.05954892751724174
vn 0.0298129287392526 0.997816057803743 -0.05894322750737245
vn 0.04150450178316669 0.9967673428243262 -0.06879128295549422
vn 0.048783751818111176 0.9957389371099806 -0.07825672291653278
vn 0.0650828977945811 0.9969874662157789 0.04219251857025168
vn 0.07627210043254855 0.9958965056478527 0.04871054027624374
vn 0.04655769922566102 0.9982035833980639 0.03770923937282717
vn 0.043195620628783536 0.9981915145303246 0.04180716060857243
vn 0.0493046086981658 0.9969809736758092 0.059983278416207444
vn 0.055356989334487135 0.9959119880269457 0.07137867914187138
vn 0.052327079086189554 0.9956457826126065 -0.07714500865278308
vn 0.04432377786555217 0.9967525520005645 -0.06722910676252707
vn 0.033730231617597424 0.99790994785667 -0.0551181226432942
vn 0.033736088881377344 0.9979748669091072 -0.053926258211910626
vn 0.04760351166902598 0.9969071349525456 -0.0625305521923825
vn 0.05604342032786258 0.9958825058260651 -0.0712542604168481
vn 0.0704490092748261 0.9968867897384464 0.0354071396355333
vn 0.08261095844488876 0.9957457812555686 0.04081382923169968
vn 0.049802510057854875 0.9982074011596034 0.03319178003855864
vn 0.04762484112944045 0.9982126236729759 0.036103080856197935
vn 0.05521142051531325 0.9971132093065103 0.05212434048650035
vn 0.05684879137294697 0.9959026240519007 0.07032907169850748
vn 0.05310095823812532 0.995788466960022 -0.07473698752024781
vn 0.04588473144159043 0.9968714313193576 -0.06435791202197413
vn 0.03623596026459219 0.9980291072875317 -0.05123335037410175
vn 0.03749858977272795 0.9980816939508106 -0.0492624397014292
vn 0.053958370310905585 0.996983505744572 -0.055788740321451875
vn 0.06320376984260696 0.9959544975198265 -0.06387426984093701
vn 0.07600573791778212 0.9967075726946625 0.02823370922652264
vn 0.08905914997451074 0.9954983997150825 0.03242535999071989
vn 0.05322086964910369 0.998170393418854 0.028695029810807897
vn 0.04976572944631389 0.9982178888939761 0.03293050963362027
vn 0.06166198013467927 0.9970589021777303 0.04551204009940553
vn 0.06420340048512699 0.9959805075257234 0.06245600047192369
vn 0.05411575751759337 0.9958751543170565 -0.07282967665914526
vn 0.04751667210672176 0.9969461442010782 -0.06197218274762794
vn 0.03871706939076253 0.9981094842941187 -0.04773306924888988
vn 0.042220278305940745 0.998159259949555 -0.04353779825307595
vn 0.0597929589056287 0.9970187817518857 -0.04876833910740855
vn 0.0699437673606769 0.9959614624174649 -0.05629062787587692
vn 0.08183878340277904 0.9964350414308246 0.020484670851733423
vn 0.09571238293376035 0.9951351305027196 0.02334977071571358
vn 0.05693527776931132 0.9980879608955361 0.02405818905741538
vn 0.052138218989357055 0.9981916806511347 0.029916129420108434
vn 0.06332989898000793 0.9970346839417482 0.04371684929589616
vn 0.07210075284285555 0.9959573392695323 0.05357667211247108
vn 0.0553521518574575 0.9959119334199127 -0.07138319239541245
vn 0.04930619873665485 0.9969809744549142 -0.05998195846311561
vn 0.04321600065007884 0.9981914150153441 -0.04178847062860493
vn 0.04656530985327726 0.9982033968547587 -0.0377047798811957
vn 0.06508375279727095 0.9969874428500801 -0.042191751813382646
vn 0.07627189845837694 0.9958965798707367 -0.04870933901547675
vn 0.08691171754664419 0.9961194718814038 0.013869069608502236
vn 0.10176460346828957 0.9946921339005924 0.015215920518581501
vn 0.06102052244837508 0.9979525400416455 0.01916308076889579
vn 0.054866891382107257 0.9981313251431149 0.02689762067755632
vn 0.06529020069544536 0.996975210619385 0.04216182044909124
vn 0.0736257985760313 0.9958987807386985 0.05258193898303284
vn 0.05684767225786885 0.9959025395551345 -0.07033117279340464
vn 0.05523488113555938 0.9971133204993903 -0.0520973510710555
vn 0.047641449584950785 0.9982123913036384 -0.03608758968560704
vn 0.04980738927198169 0.9982072854095307 -0.03318793951490252
vn 0.07044846741209568 0.9968869633796423 -0.03540332869946861
vn 0.08260949396013631 0.9957460477341029 -0.040810291956364736
vn 0.09107909331449854 0.995791536238279 0.010188970370791433
vn 0.10646219903858048 0.9942594910212217 0.010670739903636837
vn 0.06538190029130375 0.9977594044454359 0.014190770063226044
vn 0.058001251668030156 0.9980314287019069 0.02385628068607155
vn 0.0676510131832771 0.9968786469075156 0.04069771191500619
vn 0.07547004183881358 0.9957989242624561 0.05185340126339873
vn 0.0642314029643172 0.9959806459650954 -0.06242499288095009
vn 0.061693578882338625 0.9970585819369555 -0.045476219176137485
vn 0.049777821604598996 0.9982177321777674 -0.03291698106108588
vn 0.05322524803863148 0.9981704632170785 -0.028684478942966957
vn 0.07599262361303437 0.9967084473880452 -0.028238131342568758
vn 0.08905237949217194 0.9954989943230902 -0.03242569981508973
vn 0.09557381393034883 0.995396840934401 0.007125668293034066
vn 0.1110428018736411 0.993787216768314 0.007514249126789222
vn 0.06943780145272972 0.9975245208695191 0.01110054023223806
vn 0.062403771646695354 0.9978701263315511 0.018999480501353833
vn 0.07043386816266835 0.9967376739991892 0.039409128971977174
vn 0.0777272694570315 0.995654893044793 0.05128162964176933
vn 0.07214051751107886 0.995957165638466 -0.0535263481532864
vn 0.06335065741080967 0.9970345592504268 -0.04368960821437171
vn 0.05215280957830067 0.9981916919287807 -0.029890309758311483
vn 0.056919962843230434 0.9980885498558959 -0.024069991202328944
vn 0.08183112639077954 0.9964354560515002 -0.020495089096049187
vn 0.09570284035797455 0.9951359037222858 -0.023355930087362167
vn 0.09860861271648351 0.9951200274137022 0.0035316480972905446
vn 0.11457069733661836 0.9934079769066207 0.0037612139125647046
vn 0.07392797963465436 0.9972335950717585 0.007733736961780767
vn 0.0673194103032441 0.997611104493796 0.015497780069810854
vn 0.07604603026133366 0.9965856034247859 0.03215799011051178
vn 0.08039619087028364 0.9954606107757976 0.050937460551394975
vn 0.07365058931653475 0.9958987907582243 -0.052547019512372145
vn 0.06531427945886087 0.9969752917399021 -0.042122589651007465
vn 0.054850378001245176 0.9981315636279576 -0.026922439018942642
vn 0.06100620848411396 0.9979529752028028 -0.01918597952326537
vn 0.08691096314271664 0.9961195360198684 -0.013869190501512295
vn 0.10176190146442472 0.9946924143143175 -0.01521566021896374
vn 0.09960544127461779 0.9950270127330305 -2.651355031719107e-7
vn 0.11563030234050727 0.9932923201055246 -1.639568030981431e-7
vn 0.07715831051433479 0.9970118066460483 0.0037486700249887337
vn 0.07239175296741646 0.9973195408812096 0.010638020436064216
vn 0.08359053160741027 0.9961455191554536 0.026584350511205945
vn 0.08783062669862417 0.9952265625914438 0.042542568400911016
vn 0.07549756963611276 0.9957989952003946 -0.05181194975027376
vn 0.06763786938986135 0.9968780910074955 -0.04073315963255954
vn 0.057972990287512044 0.9980321049496541 -0.023896650118513153
vn 0.06538393778787757 0.997759266242999 -0.014191099519874985
vn 0.09107836002213283 0.9957916002419861 -0.010189270002475862
vn 0.10645969564125013 0.9942597592922977 -0.010670719563111459
vn 0.11456969895865156 0.9934080909707019 -0.003761498965810713
vn 0.09860829574429632 0.995120057052943 -0.0035321468475605724
vn 0.07800071026748646 0.9969533034188345 -2.0245710047291447e-7
vn 0.07686608314946576 0.9970281408516455 0.005147000210890385
vn 0.09016379709001117 0.9957630678622741 0.018066609416909966
vn 0.09649507545728844 0.9947392531705274 0.03438776838112265
vn 0.07771537654109142 0.99565465568601 -0.05130425771658117
vn 0.07039772872544893 0.9967383819540488 -0.03945576928565296
vn 0.06240634838363495 0.9978699741545182 -0.018999009507913063
vn 0.06943948981445817 0.9975243973346217 -0.011101079970337768
vn 0.09557323935315593 0.9953968932631081 -0.007126064951770244
vn 0.11104090312478881 0.9937874279660536 -0.007514376211460945
vn 0.07715903380352433 0.9970117491473033 -0.0037490751848089704
vn 0.07753032952822986 0.9969899939333406 2.0385809898090474e-7
vn 0.09753075787242624 0.99518997829054 0.009200998799286065
vn 0.10562630352633205 0.9941347331891683 0.023221030775233874
vn 0.08036204157586664 0.9954605195205722 -0.05099310099995356
vn 0.07604706000258413 0.9965856000338645 -0.03215566000109245
vn 0.06732126845397446 0.9976109770899735 -0.015497909644091985
vn 0.07392927962696617 0.9972334949681395 -0.007734217960974309
vn 0.07686690839143664 0.9970280791355882 -0.005146630892298272
vn 0.09788252760758313 0.9951979756756546 4.793978885036717e-7
vn 0.11337030447139174 0.9934783391833722 0.012164030479756763
vn 0.08783022743430854 0.995226770927494 -0.04253851875736707
vn 0.08359029637653659 0.9961455568191867 -0.02658367884765325
vn 0.0723932524033167 0.9973194331090863 -0.010637920353158267
vn 0.09753068933242734 0.9951899931881787 -0.009200113937027351
vn 0.11477570373568391 0.9933914323325954 4.156064137476056e-7
vn 0.09649326682953212 0.9947394673159626 -0.03438664887016171
vn 0.09016372896221192 0.9957630885387276 -0.0180658097920616
vn 0.1133695047453673 0.9934784415845525 -0.012163120509117947
vn 0.10562490045008735 0.9941349042361939 -0.0232200900989449
usemtl material_0_0
f 1//1 2//2 3//3
f 2//2 1//1 4//4
f 5//5 4//4 1//1
f 4//4 5//5 6//6
f 4//4 7//7 2//2
f 7//7 4//4 8//8
f 3//3 9//9 10//10
f 9//9 3//3 2//2
f 11//11 6//6 5//5
f 6//6 11//11 12//12
f 6//6 8//8 4//4
f 8//8 6//6 13//13
f 8//8 14//14 7//7
f 14//14 8//8 15//15
f 2//2 16//16 9//9
f 16//16 2//2 7//7
f 9//9 17//17 10//10
f 17//17 9//9 18//18
f 19//19 12//12 11//11
f 12//12 19//19 20//20
f 12//12 13//13 6//6
f 13//13 12//12 21//21
f 13//13 15//15 8//8
f 15//15 13//13 22//22
f 15//15 23//23 14//14
f 23//23 15//15 24//24
f 7//7 25//25 16//16
f 25//25 7//7 14//14
f 16//16 18//18 9//9
f 18//18 16//16 26//26
f 18//18 27//27 17//17
f 27//27 18//18 28//28
f 29//29 20//20 19//19
f 20//20 29//29 30//30
f 20//20 21//21 12//12
f 21//21 20//20 31//31
f 21//21 22//22 13//13
f 22//22 21//21 32//32
f 22//22 24//24 15//15
f 24//24 22//22 33//33
f 24//24 34//34 23//23
f 34//34 24//24 35//35
f 14//14 36//36 25//25
f 36//36 14//14 23//23
f 25//25 26//26 16//16
f 26//26 25//25 37//37
f 26//26 28//28 18//18
f 28//28 26//26 38//38
f 28//28 39//39 27//27
f 39//39 28//28 40//40
f 41//41 30//30 29//29
f 30//30 41//41 42//42
f 30//30 31//31 20//20
f 31//31 30//30 43//43
f 31//31 32//32 21//21
f 32//32 31//31 44//44
f 32//32 33//33 22//22
f 33//33 32//32 45//45
f 33//33 35//35 24//24
f 35//35 33//33 46//46
f 23//23 47//47 36//36
f 47//47 23//23 34//34
f 36//36 37//37 25//25
f 37//37 36//36 48//48
f 37//37 38//38 26//26
f 38//38 37//37 49//49
f 38//38 40//40 28//28
f 40//40 38//38 50//50
f 40//40 51//51 39//39
f 51//51 40//40 52//52
f 53//53 42//42 41//41
f 42//42 53//53 54//54
f 42//42 43//43 30//30
f 43//43 42//42 55//55
f 43//43 44//44 31//31
f 44//44 43//43 56//56
f 44//44 45//45 32//32
f 45//45 44//44 57//57
f 45//45 46//46 33//33
f 46//46 45//45 58//58
f 47//47 48//48 36//36
f 48//48 47//47 59//59
f 48//48 49//49 37//37
f 49//49 48//48 60//60
f 49//49 50//50 38//38
f 50//50 49//49 61//61
f 50//50 52//52 40//40
f 52//52 50//50 62//62
f 52//52 63//63 51//51
f 63//63 52//52 64//64
f 65//65 54//54 53//53
f 54//54 65//65 66//66
f 54//54 55//55 42//42
f 55//55 54//54 67//67
f 55//55 56//56 43//43
f 56//56 55//55 68//68
f 56//56 57//57 44//44
f 57//57 56//56 69//69
f 57//57 58//58 45//45
f 58//58 57//57 70//70
f 59//59 60//60 48//48
f 60//60 59//59 71//71
f 60//60 61//61 49//49
f 61//61 60//60 72//72
f 61//61 62//62 50//50
f 62//62 61//61 73//73
f 62//62 64//64 52//52
f 64//64 62//62 74//74
f 64//64 75//75 63//63
f 75//75 64//64 76//76
f 77//77 66//66 65//65
f 66//66 77//77 78//78
f 66//66 67//67 54//54
f 67//67 66//66 79//79
f 67//67 68//68 55//55
f 68//68 67//67 80//80
f 68//68 69//69 56//56
f 69//69 68//68 81//81
f 69//69 70//70 57//57
f 70//70 69//69 82//82
f 71//71 72//72 60//60
f 72//72 71//71 83//83
f 72//72 73//73 61//61
f 73//73 72//72 84//84
f 73//73 74//74 62//62
f 74//74 73//73 85//85
f 74//74 76//76 64//64
f 76//76 74//74 86//86
f 76//76 87//87 75//75
f 87//87 76//76 88//88
f 89//89 78//78 77//77
f 78//78 89//89 90//90
f 78//78 79//79 66//66
f 79//79 78//78 91//91
f 79//79 80//80 67//67
f 80//80 79//79 92//92
f 80//80 81//81 68//68
f 81//81 80//80 93//93
f 81//81 82//82 69//69
f 82//82 81//81 94//94
f 83//83 84//84 72//72
f 84//84 83//83 95//95
f 84//84 85//85 73//73
f 85//85 84//84 96//96
f 85//85 86//86 74//74
f 86//86 85//85 97//97
f 86//86 88//88 76//76
f 88//88 86//86 98//98
f 88//88 99//99 87//87
f 99//99 88//88 100//100
f 101//101 90//90 89//89
f 90//90 101//101 102//102
f 90//90 91//91 78//78
f 91//91 90//90 103//103
f 91//91 92//92 79//79
f 92//92 91//91 104//104
f 92//92 93//93 80//80
f 93//93 92//92 105//105
f 93//93 94//94 81//81
f 94//94 93//93 106//106
f 95//95 96//96 84//84
f 96//96 95//95 107//107
f 96//96 97//97 85//85
f 97//97 96//96 108//108
f 97//97 98//98 86//86
f 98//98 97//97 109//109
f 98//98 100//100 88//88
f 100//100 98//98 110//110
f 100//100 111//111 99//99
f 111//111 100//100 112//112
f 113//113 102//102 101//101
f 102//102 113//113 114//114
f 102//102 103//103 90//90
f 103//103 102//102 115//115
f 103//103 104//104 91//91
f 104//104 103//103 116//116
f 104//104 105//105 92//92
f 105//105 104//104 117//117
f 105//105 106//106 93//93
f 106//106 105//105 118//118
f 107//107 108//108 96//96
f 108//108 107//107 119//119
f 108//108 109//109 97//97
f 109//109 108//108 120//120
f 109//109 110//110 98//98
f 110//110 109//109 121//121
f 110//110 112//112 100//100
f 112//112 110//110 122//122
f 112//112 123//123 111//111
f 123//123 112//112 124//124
f 125//125 114//114 113//113
f 114//114 125//125 126//126
f 114//114 115//115 102//102
f 115//115 114//114 127//127
f 115//115 116//116 103//103
f 116//116 115//115 128//128
f 116//116 117//117 104//104
f 117//117 116//116 129//129
f 117//117 118//118 105//105
f 118//118 117//117 130//130
f 119//119 120//120 108//108
f 120//120 119//119 131//131
f 120//120 121//121 109//109
f 121//121 120//120 132//132
f 121//121 122//122 110//110
f 122//122 121//121 133//133
f 122//122 124//124 112//112
f 124//124 122//122 134//134
f 124//124 135//135 123//123
f 135//135 124//124 136//136
f 137//137 126//126 125//125
f 126//126 137//137 138//138
f 126//126 127//127 114//114
f 127//127 126//126 139//139
f 127//127 128//128 115//115
f 128//128 127//127 140//140
f 128//128 129//129 116//116
f 129//129 128//128 141//141
f 129//129 130//130 117//117
f 130//130 129//129 142//142
f 131//131 132//132 120//120
f 132//132 131//131 143//143
f 132//132 133//133 121//121
f 133//133 132//132 144//144
f 133//133 134//134 122//122
f 134//134 133//133 145//145
f 134//134 136//136 124//124
f 136//136 134//134 146//146
f 136//136 147//147 135//135
f 147//147 136//136 148//148
f 149//149 138//138 137//137
f 138//138 149//149 150//150
f 138//138 139//139 126//126
f 139//139 138//138 151//151
f 139//139 140//140 127//127
f 140//140 139//139 152//152
f 140//140 141//141 128//128
f 141//141 140//140 153//153
f 141//141 142//142 129//129
f 142//142 141//141 154//154
f 143//143 144//144 132//132
f 144//144 143//143 155//155
f 144//144 145//145 133//133
f 145//145 144//144 156//156
f 145//145 146//146 134//134
f 146//146 145//145 157//157
f 146//146 148//148 136//136
f 148//148 146//146 158//158
f 148//148 159//159 147//147
f 159//159 148//148 160//160
f 161//161 150//150 149//149
f 150//150 161//161 162//162
f 150//150 151//151 138//138
f 151//151 150//150 163//163
f 151//151 152//152 139//139
f 152//152 151//151 164//164
f 152//152 153//153 140//140
f 153//153 152//152 165//165
f 153//153 154//154 141//141
f 154//154 153//153 166//166
f 155//155 156//156 144//144
f 156//156 155//155 167//167
f 156//156 157//157 145//145
f 157//157 156//156 168//168
f 157//157 158//158 146//146
f 158//158 157//157 169//169
f 158//158 160//160 148//148
f 160//160 158//158 170//170
f 160//160 171//171 159//159
f 171//171 160//160 172//172
f 173//173 162//162 161//161
f 162//162 173//173 174//174
f 162//162 163//163 150//150
f 163//163 162//162 175//175
f 163//163 164//164 151//151
f 164//164 163//163 176//176
f 164//164 165//165 152//152
f 165//165 164//164 177//177
f 165//165 166//166 153//153
f 166//166 165//165 178//178
f 167//167 168//168 156//156
f 168//168 167//167 179//179
f 168//168 169//169 157//157
f 169//169 168//168 180//180
f 169//169 170//170 158//158
f 170//170 169//169 181//181
f 170//170 172//172 160//160
f 172//172 170//170 182//182
f 172//172 183//183 171//171
f 183//183 172//172 184//184
f 185//185 174//174 173//173
f 174//174 185//185 186//186
f 174//174 175//175 162//162
f 175//175 174//174 187//187
f 175//175 176//176 163//163
f 176//176 175//175 188//188
f 176//176 177//177 164//164
f 177//177 176//176 189//189
f 177//177 178//178 165//165
f 178//178 177//177 190//190
f 179//179 180//180 168//168
f 180//180 179//179 191//191
f 180//180 181//181 169//169
f 181//181 180//180 192//192
f 181//181 182//182 170//170
f 182//182 181//181 193//193
f 182//182 184//184 172//172
f 184//184 182//182 194//194
f 184//184 195//195 183//183
f 195//195 184//184 196//196
f 197//197 186//186 185//185
f 186//186 197//197 198//198
f 186//186 187//187 174//174
f 187//187 186//186 199//199
f 187//187 188//188 175//175
f 188//188 187//187 200//200
f 188//188 189//189 176//176
f 189//189 188//188 201//201
f 189//189 190//190 177//177
f 190//190 189//189 202//202
f 191//191 192//192 180//180
f 192//192 191//191 203//203
f 192//192 193//193 181//181
f 193//193 192//192 204//204
f 193//193 194//194 182//182
f 194//194 193//193 205//205
f 194//194 196//196 184//184
f 196//196 194//194 206//206
f 196//196 207//207 195//195
f 207//207 196//196 208//208
f 197//197 209//209 198//198
f 209//209 197//197 210//210
f 198//198 199//199 186//186
f 199//199 198//198 211//211
f 199//199 200//200 187//187
f 200//200 199//199 212//212
f 200//200 201//201 188//188
f 201//201 200//200 213//213
f 201//201 202//202 189//189
f 202//202 201//201 214//214
f 203//203 204//204 192//192
f 204//204 203//203 215//215
f 204//204 205//205 193//193
f 205//205 204//204 216//216
f 205//205 206//206 194//194
f 206//206 205//205 217//217
f 206//206 208//208 196//196
f 208//208 206//206 218//218
f 208//208 219//219 207//207
f 219//219 208//208 220//220
f 210//210 221//221 209//209
f 221//221 210//210 222//222
f 198//198 223//223 211//211
f 223//223 198//198 209//209
f 211//211 212//212 199//199
f 212//212 211//211 224//224
f 212//212 213//213 200//200
f 213//213 212//212 225//225
f 213//213 214//214 201//201
f 214//214 213//213 226//226
f 215//215 216//216 204//204
f 216//216 215//215 227//227
f 216//216 217//217 205//205
f 217//217 216//216 228//228
f 217//217 218//218 206//206
f 218//218 217//217 229//229
f 218//218 220//220 208//208
f 220//220 218//218 230//230
f 220//220 231//231 219//219
f 231//231 220//220 232//232
f 222//222 233//233 221//221
f 233//233 222//222 234//234
f 209//209 235//235 223//223
f 235//235 209//209 221//221
f 211//211 236//236 224//224
f 236//236 211//211 223//223
f 224//224 225//225 212//212
f 225//225 224//224 237//237
f 225//225 226//226 213//213
f 226//226 225//225 238//238
f 227//227 228//228 216//216
f 228//228 227//227 239//239
f 228//228 229//229 217//217
f 229//229 228//228 240//240
f 229//229 230//230 218//218
f 230//230 229//229 241//241
f 230//230 232//232 220//220
f 232//232 230//230 242//242
f 232//232 243//243 231//231
f 243//243 232//232 244//244
f 234//234 245//245 233//233
f 245//245 234//234 246//246
f 221//221 247//247 235//235
f 247//247 221//221 233//233
f 223//223 248//248 236//236
f 248//248 223//223 235//235
f 224//224 249//249 237//237
f 249//249 224//224 236//236
f 237//237 238//238 225//225
f 238//238 237//237 250//250
f 239//239 240//240 228//228
f 240//240 239//239 251//251
f 240//240 241//241 229//229
f 241//241 240//240 252//252
f 241//241 242//242 230//230
f 242//242 241//241 253//253
f 242//242 244//244 232//232
f 244//244 242//242 254//254
f 255//255 243//243 244//244
f 243//243 255//255 256//256
f 246//246 257//257 245//245
f 257//257 246//246 258//258
f 233//233 259//259 247//247
f 259//259 233//233 245//245
f 235//235 260//260 248//248
f 260//260 235//235 247//247
f 236//236 261//261 249//249
f 261//261 236//236 248//248
f 237//237 262//262 250//250
f 262//262 237//237 249//249
f 251//251 252//252 240//240
f 252//252 251//251 263//263
f 252//252 253//253 241//241
f 253//253 252//252 264//264
f 253//253 254//254 242//242
f 254//254 253//253 265//265
f 266//266 244//244 254//254
f 244//244 266//266 255//255
f 267//267 256//256 255//255
f 256//256 267//267 268//268
f 258//258 269//269 257//257
f 269//269 258//258 270//270
f 245//245 271//271 259//259
f 271//271 245//245 257//257
f 247//247 272//272 260//260
f 272//272 247//247 259//259
f 248//248 273//273 261//261
f 273//273 248//248 260//260
f 249//249 274//274 262//262
f 274//274 249//249 261//261
f 263//263 264//264 252//252
f 264//264 263//263 275//275
f 264//264 265//265 253//253
f 265//265 264//264 276//276
f 277//277 254//254 265//265
f 254//254 277//277 266//266
f 278//278 255//255 266//266
f 255//255 278//278 267//267
f 279//279 268//268 267//267
f 268//268 279//279 280//280
f 270//270 281//281 269//269
f 281//281 270//270 282//282
f 257//257 283//283 271//271
f 283//283 257//257 269//269
f 259//259 284//284 272//272
f 284//284 259//259 271//271
f 260//260 285//285 273//273
f 285//285 260//260 272//272
f 261//261 286//286 274//274
f 286//286 261//261 273//273
f 275//275 276//276 264//264
f 276//276 275//275 287//287
f 288//288 265//265 276//276
f 265//265 288//288 277//277
f 289//289 266//266 277//277
f 266//266 289//289 278//278
f 290//290 267//267 278//278
f 267//267 290//290 279//279
f 291//291 280//280 279//279
f 280//280 291//291 292//292
f 282//282 293//293 281//281
f 293//293 282//282 294//294
f 269//269 295//295 283//283
f 295//295 269//269 281//281
f 271//271 296//296 284//284
f 296//296 271//271 283//283
f 272//272 297//297 285//285
f 297//297 272//272 284//284
f 273//273 298//298 286//286
f 298//298 273//273 285//285
f 299//299 276//276 287//287
f 276//276 299//299 288//288
f 300//300 277//277 288//288
f 277//277 300//300 289//289
f 301//301 278//278 289//289
f 278//278 301//301 290//290
f 302//302 279//279 290//290
f 279//279 302//302 291//291
f 303//303 292//292 291//291
f 292//292 303//303 304//304
f 294//294 305//305 293//293
f 305//305 294//294 306//306
f 281//281 307//307 295//295
f 307//307 281//281 293//293
f 283//283 308//308 296//296
f 308//308 283//283 295//295
f 284//284 309//309 297//297
f 309//309 284//284 296//296
f 285//285 310//310 298//298
f 310//310 285//285 297//297
f 311//311 288//288 299//299
f 288//288 311//311 300//300
f 312//312 289//289 300//300
f 289//289 312//312 301//301
f 313//313 290//290 301//301
f 290//290 313//313 302//302
f 314//314 291//291 302//302
f 291//291 314//314 303//303
f 315//315 304//304 303//303
f 304//304 315//315 316//316
f 306//306 317//317 305//305
f 317//317 306//306 318//318
f 293//293 319//319 307//307
f 319//319 293//293 305//305
f 295//295 320//320 308//308
f 320//320 295//295 307//307
f 296//296 321//321 309//309
f 321//321 296//296 308//308
f 297//297 322//322 310//310
f 322//322 297//297 309//309
f 323//323 300//300 311//311
f 300//300 323//323 312//312
f 324//324 301//301 312//312
f 301//301 324//324 313//313
f 325//325 302//302 313//313
f 302//302 325//325 314//314
f 326//326 303//303 314//314
f 303//303 326//326 315//315
f 327//327 316//316 315//315
f 316//316 327//327 328//328
f 318//318 329//329 317//317
f 329//329 318//318 330//330
f 305//305 331//331 319//319
f 331//331 305//305 317//317
f 307//307 332//332 320//320
f 332//332 307//307 319//319
f 308//308 333//333 321//321
f 333//333 308//308 320//320
f 309//309 334//334 322//322
f 334//334 309//309 321//321
f 335//335 312//312 323//323
f 312//312 335//335 324//324
f 336//336 313//313 324//324
f 313//313 336//336 325//325
f 337//337 314//314 325//325
f 314//314 337//337 326//326
f 338//338 315//315 326//326
f 315//315 338//338 327//327
f 339//339 328//328 327//327
f 328//328 339//339 340//340
f 330//330 341//341 329//329
f 341//341 330//330 342//342
f 317//317 343//343 331//331
f 343//343 317//317 329//329
f 319//319 344//344 332//332
f 344//344 319//319 331//331
f 320//320 345//345 333//333
f 345//345 320//320 332//332
f 321//321 346//346 334//334
f 346//346 321//321 333//333
f 347//347 324//324 335//335
f 324//324 347//347 336//336
f 348//348 325//325 336//336
f 325//325 348//348 337//337
f 349//349 326//326 337//337
f 326//326 349//349 338//338
f 350//350 327//327 338//338
f 327//327 350//350 339//339
f 351//351 340//340 339//339
f 340//340 351//351 352//352
f 342//342 353//353 341//341
f 353//353 342//342 354//354
f 329//329 355//355 343//343
f 355//355 329//329 341//341
f 331//331 356//356 344//344
f 356//356 331//331 343//343
f 332//332 357//357 345//345
f 357//357 332//332 344//344
f 333//333 358//358 346//346
f 358//358 333//333 345//345
f 359//359 336//336 347//347
f 336//336 359//359 348//348
f 360//360 337//337 348//348
f 337//337 360//360 349//349
f 361//361 338//338 349//349
f 338//338 361//361 350//350
f 362//362 339//339 350//350
f 339//339 362//362 351//351
f 363//363 352//352 351//351
f 352//352 363//363 364//364
f 354//354 365//365 353//353
f 365//365 354//354 366//366
f 341//341 367//367 355//355
f 367//367 341//341 353//353
f 343//343 368//368 356//356
f 368//368 343//343 355//355
f 344//344 369//369 357//357
f 369//369 344//344 356//356
f 345//345 370//370 358//358
f 370//370 345//345 357//357
f 371//371 348//348 359//359
f 348//348 371//371 360//360
f 372//372 349//349 360//360
f 349//349 372//372 361//361
f 373//373 350//350 361//361
f 350//350 373//373 362//362
f 374//374 351//351 362//362
f 351//351 374//374 363//363
f 375//375 364//364 363//363
f 364//364 375//375 376//376
f 366//366 377//377 365//365
f 377//377 366//366 378//378
f 353//353 379//379 367//367
f 379//379 353//353 365//365
f 355//355 380//380 368//368
f 380//380 355//355 367//367
f 356//356 381//381 369//369
f 381//381 356//356 368//368
f 357//357 382//382 370//370
f 382//382 357//357 369//369
f 383//383 360//360 371//371
f 360//360 383//383 372//372
f 384//384 361//361 372//372
f 361//361 384//384 373//373
f 385//385 362//362 373//373
f 362//362 385//385 374//374
f 386//386 363//363 374//374
f 363//363 386//386 375//375
f 387//387 376//376 375//375
f 376//376 387//387 388//388
f 378//378 389//389 377//377
f 389//389 378//378 390//390
f 365//365 391//391 379//379
f 391//391 365//365 377//377
f 367//367 392//392 380//380
f 392//392 367//367 379//379
f 368//368 393//393 381//381
f 393//393 368//368 380//380
f 369//369 394//394 382//382
f 394//394 369//369 381//381
f 395//395 372//372 383//383
f 372//372 395//395 384//384
f 396//396 373//373 384//384
f 373//373 396//396 385//385
f 397//397 374//374 385//385
f 374//374 397//397 386//386
f 398//398 375//375 386//386
f 375//375 398//398 387//387
f 399//399 388//388 387//387
f 388//388 399//399 400//400
f 390//390 401//401 389//389
f 401//401 390//390 402//402
f 377//377 403//403 391//391
f 403//403 377//377 389//389
f 379//379 404//404 392//392
f 404//404 379//379 391//391
f 380//380 405//405 393//393
f 405//405 380//380 392//392
f 381//381 406//406 394//394
f 406//406 381//381 393//393
f 407//407 384//384 395//395
f 384//384 407//407 396//396
f 408//408 385//385 396//396
f 385//385 408//408 397//397
f 409//409 386//386 397//397
f 386//386 409//409 398//398
f 410//410 387//387 398//398
f 387//387 410//410 399//399
f 411//411 400//400 399//399
f 400//400 411//411 412//412
f 402//402 413//413 401//401
f 413//413 402//402 414//414
f 389//389 415//415 403//403
f 415//415 389//389 401//401
f 391//391 416//416 404//404
f 416//416 391//391 403//403
f 392//392 417//417 405//405
f 417//417 392//392 404//404
f 393//393 418//418 406//406
f 418//418 393//393 405//405
f 419//419 396//396 407//407
f 396//396 419//419 408//408
f 420//420 397//397 408//408
f 397//397 420//420 409//409
f 421//421 398//398 409//409
f 398//398 421//421 410//410
f 422//422 399//399 410//410
f 399//399 422//422 411//411
f 423//423 412//412 411//411
f 412//412 423//423 424//424
f 414//414 425//425 413//413
f 425//425 414//414 426//426
f 401//401 427//427 415//415
f 427//427 401//401 413//413
f 403//403 428//428 416//416
f 428//428 403//403 415//415
f 404//404 429//429 417//417
f 429//429 404//404 416//416
f 405//405 430//430 418//418
f 430//430 405//405 417//417
f 431//431 408//408 419//419
f 408//408 431//431 420//420
f 432//432 409//409 420//420
f 409//409 432//432 421//421
f 433//433 410//410 421//421
f 410//410 433//433 422//422
f 434//434 411//411 422//422
f 411//411 434//434 423//423
f 435//435 424//424 423//423
f 424//424 435//435 436//436
f 426//426 437//437 425//425
f 437//437 426//426 438//438
f 413//413 439//439 427//427
f 439//439 413//413 425//425
f 415//415 440//440 428//428
f 440//440 415//415 427//427
f 416//416 441//441 429//429
f 441//441 416//416 428//428
f 417//417 442//442 430//430
f 442//442 417//417 429//429
f 443//443 420//420 431//431
f 420//420 443//443 432//432
f 444//444 421//421 432//432
f 421//421 444//444 433//433
f 445//445 422//422 433//433
f 422//422 445//445 434//434
f 446//446 423//423 434//434
f 423//423 446//446 435//435
f 447//447 436//436 435//435
f 436//436 447//447 448//448
f 437//437 449//449 450//450
f 449//449 437//437 438//438
f 425//425 451//451 439//439
f 451//451 425//425 437//437
f 427//427 452//452 440//440
f 452//452 427//427 439//439
f 428//428 453//453 441//441
f 453//453 428//428 440//440
f 429//429 454//454 442//442
f 454//454 429//429 441//441
f 455//455 432//432 443//443
f 432//432 455//455 444//444
f 456//456 433//433 444//444
f 433//433 456//456 445//445
f 457//457 434//434 445//445
f 434//434 457//457 446//446
f 458//458 435//435 446//446
f 435//435 458//458 447//447
f 459//459 448//448 447//447
f 448//448 459//459 460//460
f 450//450 460//460 459//459
f 460//460 450//450 449//449
f 451//451 450//450 461//461
f 450//450 451//451 437//437
f 439//439 462//462 452//452
f 462//462 439//439 451//451
f 440//440 463//463 453//453
f 463//463 440//440 452//452
f 441//441 464//464 454//454
f 464//464 441//441 453//453
f 465//465 444//444 455//455
f 444//444 465//465 456//456
f 466//466 445//445 456//456
f 445//445 466//466 457//457
f 467//467 446//446 457//457
f 446//446 467//467 458//458
f 468//468 447//447 458//458
f 447//447 468//468 459//459
f 461//461 459//459 468//468
f 459//459 461//461 450//450
f 462//462 461//461 469//469
f 461//461 462//462 451//451
f 452//452 470//470 463//463
f 470//470 452//452 462//462
f 453//453 471//471 464//464
f 471//471 453//453 463//463
f 472//472 456//456 465//465
f 456//456 472//472 466//466
f 473//473 457//457 466//466
f 457//457 473//473 467//467
f 474//474 458//458 467//467
f 458//458 474//474 468//468
f 469//469 468//468 474//474
f 468//468 469//469 461//461
f 470//470 469//469 475//475
f 469//469 470//470 462//462
f 463//463 476//476 471//471
f 476//476 463//463 470//470
f 477//477 466//466 472//472
f 466//466 477//477 473//473
f 478//478 467//467 473//473
f 467//467 478//478 474//474
f 475//475 474//474 478//478
f 474//474 475//475 469//469
f 476//476 475//475 479//479
f 475//475 476//476 470//470
f 480//480 473//473 477//477
f 473//473 480//480 478//478
f 479//479 478//478 480//480
f 478//478 479//479 475//475
