# SSTK version 0.8.0
# 10
mtllib original-10.mtl
o group_9/ID69#ID69
v -0.09733352 0.71448723 -0.00225665
v -0.09289949 0.71439209 -0.02892254
v -0.09752741 0.71435402 -0.00732605
v -0.09668388 0.71442798 0.01474409
v -0.08981055 0.71447960 0.03566785
v -0.08258806 0.71434648 -0.04868518
v -0.07798305 0.71444034 0.05434358
v -0.06778542 0.71446872 -0.06484069
v -0.06158733 0.71440715 0.06930592
v -0.04911804 0.71440164 -0.07676145
v -0.04205017 0.71433009 0.07939902
v -0.02805090 0.71449316 -0.08347050
v -0.02050484 0.71448176 0.08429071
v -0.01116249 0.71434904 -0.08428815
v -0.01534942 0.71445356 0.08388318
v 0.00170275 0.71441997 0.08326604
v -0.00602178 0.71444179 -0.08454663
v 0.01563931 0.71441952 -0.07975599
v 0.02270218 0.71443544 0.07650600
v 0.03523927 0.71443723 -0.06956251
v 0.04142558 0.71442472 0.06461902
v 0.05150803 0.71432270 -0.05471748
v 0.05618828 0.71447193 0.04822947
v 0.06350015 0.71433801 -0.03619289
v 0.06646392 0.71440790 0.02867648
v 0.07021186 0.71436536 -0.01508033
v 0.07098660 0.71441351 0.00201051
v 0.07106437 0.71435940 0.00708355
vn 0 1 0
usemtl material_0_0
f 1//1 2//1 3//1
f 2//1 1//1 4//1
f 2//1 4//1 5//1
f 2//1 5//1 6//1
f 6//1 5//1 7//1
f 6//1 7//1 8//1
f 8//1 7//1 9//1
f 8//1 9//1 10//1
f 10//1 9//1 11//1
f 10//1 11//1 12//1
f 12//1 11//1 13//1
f 12//1 13//1 14//1
f 14//1 13//1 15//1
f 14//1 15//1 16//1
f 14//1 16//1 17//1
f 17//1 16//1 18//1
f 18//1 16//1 19//1
f 18//1 19//1 20//1
f 20//1 19//1 21//1
f 20//1 21//1 22//1
f 22//1 21//1 23//1
f 22//1 23//1 24//1
f 24//1 23//1 25//1
f 24//1 25//1 26//1
f 26//1 25//1 27//1
f 27//1 25//1 28//1
