# SSTK version 0.8.0
# 12
mtllib original_12.mtl
o #ID92
v 0.06473485 0.73702758 -0.02077549
v 0.05842148 0.72312390 -0.03607916
v 0.05824308 0.73710310 -0.03624784
v 0.06479287 0.72312589 -0.02106700
v 0.06465188 0.72311100 -0.02077255
v 0.06487038 0.73717051 -0.02091524
v 0.05829571 0.72323184 -0.03615444
v 0.05850299 0.73733005 -0.03611187
v 0.06695383 0.73713645 -0.00457669
v 0.06685202 0.72318976 -0.00469764
v 0.06676366 0.72322339 -0.00446713
v 0.06691971 0.73713558 -0.00464217
v 0.06471859 0.72313340 0.01180166
v 0.06463044 0.72313746 -0.02084679
v 0.06685410 0.72322319 -0.00466590
v 0.05851075 0.72310500 -0.03602680
v 0.05842419 0.72323762 0.02691002
v 0.05599745 0.72317202 -0.00458795
v 0.05430933 0.72306364 0.00897197
v 0.04852093 0.72309907 0.03985410
v 0.04892428 0.72309809 0.02138895
v 0.04069805 0.72317341 0.03235192
v 0.03532980 0.72322875 0.04998139
v 0.02981274 0.72308303 0.04049649
v 0.02021432 0.72312805 0.05614168
v 0.01728068 0.72323175 0.04585110
v 0.00398000 0.72315512 0.05838399
v 0.00390251 0.72305954 0.04775669
v -0.01238242 0.72311099 0.05621018
v -0.00976751 0.72301978 0.04573195
v -0.02208190 0.72299629 0.04065567
v -0.02759125 0.72329624 0.05013261
v -0.03296266 0.72310740 0.03220463
v -0.04060007 0.72312970 0.04000762
v -0.04134319 0.72315011 0.02153042
v -0.05089180 0.72318131 0.02704191
v -0.04647001 0.72307180 0.00883146
v -0.04835305 0.72305270 -0.00448364
v 0.05424322 0.72302797 -0.01792105
v 0.04846566 0.72321140 -0.04907836
v 0.04894575 0.72328645 -0.03055476
v 0.04063914 0.72317721 -0.04142242
v 0.03540142 0.72313980 -0.05916114
v 0.02982780 0.72311216 -0.04976333
v 0.02019501 0.72311238 -0.06555056
v 0.01735724 0.72300858 -0.05492689
v 0.00382556 0.72298628 -0.06763512
v 0.00385088 0.72312081 -0.05673011
v -0.01240894 0.72306262 -0.06539536
v -0.00961381 0.72307486 -0.05498506
v -0.02222809 0.72303267 -0.04974523
v -0.02769149 0.72321369 -0.05919941
v -0.03309443 0.72316140 -0.04131928
v -0.04070434 0.72308853 -0.04923010
v -0.04135096 0.72314070 -0.03054857
v -0.05062448 0.72321321 -0.03617698
v -0.04656255 0.72318860 -0.01810641
v -0.05706148 0.72311972 0.01181625
v -0.05699398 0.72319318 -0.02084328
v -0.05912019 0.72326869 -0.00445330
v -0.05919843 0.72299463 -0.00444116
v -0.05693773 0.72296605 0.01188003
v -0.05693582 0.72298474 -0.02090214
v -0.05068257 0.72309052 -0.03610346
v -0.05076771 0.72312830 0.02692824
v -0.04831496 0.72325992 -0.00456821
v -0.04663263 0.72313802 -0.01809163
v -0.04145582 0.72299707 -0.03070727
v -0.04071558 0.72309643 -0.04911195
v -0.03303748 0.72319582 -0.04156066
v -0.02770100 0.72327766 -0.05915745
v -0.02224732 0.72318450 -0.04971774
v -0.01240664 0.72315601 -0.06559291
v -0.00970778 0.72321444 -0.05510038
v 0.00381111 0.72325733 -0.05690376
v 0.00398259 0.72321596 -0.06761848
v 0.01722235 0.72304848 -0.05490987
v 0.02009079 0.72315405 -0.06551674
v 0.02999478 0.72315141 -0.04968642
v 0.03531873 0.72324823 -0.05906830
v 0.04080779 0.72319049 -0.04145654
v 0.04832478 0.72321990 -0.04914998
v 0.04909231 0.72332295 -0.03058267
v 0.05419437 0.72317967 -0.01812278
v 0.05598102 0.72313596 -0.00471568
v 0.05832642 0.72305865 -0.03618124
v -0.04654406 0.72330248 0.00882703
v -0.04119791 0.72305318 0.02148191
v -0.04071626 0.72319613 0.04010994
v -0.03318519 0.72333204 0.03227465
v -0.02753310 0.72310441 0.04983815
v -0.02237442 0.72307931 0.04074439
v -0.01258396 0.72302909 0.05633049
v -0.00949853 0.72307821 0.04579797
v 0.00373217 0.72300419 0.04754718
v 0.00391948 0.72323823 0.05831377
v 0.01734865 0.72310933 0.04573526
v 0.02022080 0.72307325 0.05629720
v 0.03002216 0.72316747 0.04060214
v 0.03521242 0.72314880 0.04999358
v 0.04081405 0.72325738 0.03232863
v 0.04845904 0.72308713 0.04011701
v 0.04893260 0.72321505 0.02148421
v 0.05420001 0.72305841 0.00903058
v 0.05852197 0.72326230 0.02705061
v 0.06464142 0.72316371 0.01174954
v 0.06479904 0.72312142 -0.02080133
v 0.06700540 0.72295824 -0.00465067
v 0.04841989 0.72310120 -0.04917460
v 0.04850105 0.73721094 -0.04919605
v 0.04849830 0.72315774 -0.04916780
v 0.04830527 0.73716679 -0.04907452
v 0.06483859 0.73725616 0.01164209
v 0.06471846 0.72313433 0.01172496
v 0.06456471 0.72323830 0.01180494
v 0.06473293 0.73721414 0.01179065
v 0.05861333 0.73717138 0.02686791
v 0.05845346 0.72324046 0.02678045
v 0.05843544 0.72314337 0.02687754
v 0.05833073 0.73722798 0.02698327
v 0.04829625 0.73722889 0.03990485
v 0.04848303 0.72320220 0.03998525
v 0.04843962 0.72315840 0.03997640
v 0.04836378 0.73723248 0.03992209
v 0.03529794 0.72325394 0.05012563
v 0.03544176 0.73715974 0.05004336
v 0.03541956 0.73735003 0.04997314
v 0.03526637 0.72311724 0.04989008
v 0.02003147 0.72315252 0.05633769
v 0.02019036 0.73727559 0.05636138
v 0.02018451 0.73716590 0.05625117
v 0.02011070 0.72309274 0.05630053
v 0.00394442 0.72324179 0.05836421
v 0.00398231 0.73731067 0.05840378
v 0.00378724 0.73714981 0.05830690
v 0.00388223 0.72308749 0.05842863
v -0.01251834 0.72308014 0.05632661
v -0.01254564 0.73729147 0.05633376
v -0.01240741 0.73720100 0.05614587
v -0.01251758 0.72297405 0.05617555
v -0.02759270 0.72330329 0.05004955
v -0.02763666 0.73707952 0.04997732
v -0.02762776 0.73729777 0.04995343
v -0.02770410 0.72314981 0.04986594
v -0.04065445 0.72320539 0.04012698
v -0.04076497 0.73721070 0.03992265
v -0.04060208 0.73733795 0.03998253
v -0.04072512 0.72301129 0.03983277
v -0.05078237 0.73733342 0.02697099
v -0.05067288 0.72304422 0.02700821
v -0.05069383 0.73720109 0.02696834
v -0.05067792 0.72309104 0.02696774
v -0.05702487 0.73732667 0.01169351
v -0.05719595 0.72314492 0.01175028
v -0.05703614 0.73727499 0.01172724
v -0.05692500 0.72318241 0.01161600
v -0.05911373 0.73721183 -0.00469274
v -0.05906979 0.72320898 -0.00454641
v -0.05915940 0.73708655 -0.00467858
v -0.05911362 0.72305551 -0.00457550
v -0.05692171 0.73721737 -0.02097539
v -0.05710138 0.72310328 -0.02087505
v -0.05709028 0.73733190 -0.02077923
v -0.05692533 0.72314754 -0.02094836
v -0.05056581 0.73722986 -0.03615613
v -0.05068075 0.72320408 -0.03602075
v -0.05074851 0.73728957 -0.03607531
v -0.05063561 0.72306423 -0.03602577
v -0.04066554 0.73721745 -0.04909780
v -0.04086299 0.72313046 -0.04906514
v -0.04077719 0.73729530 -0.04910589
v -0.04083361 0.72313198 -0.04909676
v -0.02775442 0.72318765 -0.05915541
v -0.02763583 0.73726248 -0.05920015
v -0.02771231 0.73726992 -0.05922456
v -0.02757608 0.72313034 -0.05917866
v -0.01250897 0.72321241 -0.06537673
v -0.01249921 0.73720241 -0.06542021
v -0.01243395 0.73724128 -0.06539333
v -0.01242455 0.72309855 -0.06555575
v 0.00384692 0.72308601 -0.06754361
v 0.00380097 0.73720050 -0.06761564
v 0.00387123 0.73725642 -0.06760907
v 0.00392708 0.72312730 -0.06758768
v 0.02013246 0.72323975 -0.06543714
v 0.02023307 0.73727878 -0.06553028
v 0.02033817 0.73734560 -0.06539210
v 0.02007903 0.72318887 -0.06545254
v 0.03532312 0.72317080 -0.05911151
v 0.03549773 0.73736319 -0.05918461
v 0.03531970 0.73714290 -0.05929070
v 0.03539408 0.72326470 -0.05915484
vn 0.9659258358036645 0 -0.25881900959356163
vn 0.866025402838329 0 -0.5000000016387101
vn -0.9659258358036645 0 0.25881900959356163
vn -0.866025402838329 0 0.5000000016387101
vn 1 0 0
vn -1 0 0
vn 0 -1 0
vn 0 1 0
vn 0.7071067811865476 0 -0.7071067811865476
vn -0.7071067811865476 0 0.7071067811865476
vn 0.9659258358036645 0 0.25881900959356163
vn -0.9659258358036645 0 -0.25881900959356163
vn 0.866025402838329 0 0.5000000016387101
vn -0.866025402838329 0 -0.5000000016387101
vn 0.7071067811865476 0 0.7071067811865476
vn -0.7071067811865476 0 -0.7071067811865476
vn 0.5000000016387101 0 0.866025402838329
vn -0.5000000016387101 0 -0.866025402838329
vn 0.25881900959356163 0 0.9659258358036645
vn -0.25881900959356163 0 -0.9659258358036645
vn 0 0 1
vn 0 0 -1
vn -0.25881900959356163 0 0.9659258358036645
vn 0.25881900959356163 0 -0.9659258358036645
vn -0.5000000016387101 0 0.866025402838329
vn 0.5000000016387101 0 -0.866025402838329
usemtl material_0_0
f 1//1 2//2 3//2
f 2//2 1//1 4//1
f 5//3 6//3 7//4
f 8//4 7//4 6//3
f 9//5 4//1 1//1
f 4//1 9//5 10//5
f 11//6 12//6 5//3
f 6//3 5//3 12//6
f 13//7 14//7 15//7
f 14//7 13//7 16//7
f 16//7 13//7 17//7
f 16//7 17//7 18//7
f 18//7 17//7 19//7
f 19//7 17//7 20//7
f 19//7 20//7 21//7
f 21//7 20//7 22//7
f 22//7 20//7 23//7
f 22//7 23//7 24//7
f 24//7 23//7 25//7
f 24//7 25//7 26//7
f 26//7 25//7 27//7
f 26//7 27//7 28//7
f 28//7 27//7 29//7
f 28//7 29//7 30//7
f 30//7 29//7 31//7
f 31//7 29//7 32//7
f 31//7 32//7 33//7
f 33//7 32//7 34//7
f 33//7 34//7 35//7
f 35//7 34//7 36//7
f 35//7 36//7 37//7
f 37//7 36//7 38//7
f 16//7 39//7 40//7
f 39//7 16//7 18//7
f 40//7 39//7 41//7
f 40//7 41//7 42//7
f 40//7 42//7 43//7
f 43//7 42//7 44//7
f 43//7 44//7 45//7
f 45//7 44//7 46//7
f 45//7 46//7 47//7
f 47//7 46//7 48//7
f 47//7 48//7 49//7
f 49//7 48//7 50//7
f 49//7 50//7 51//7
f 49//7 51//7 52//7
f 52//7 51//7 53//7
f 52//7 53//7 54//7
f 54//7 53//7 55//7
f 54//7 55//7 56//7
f 56//7 55//7 57//7
f 56//7 57//7 38//7
f 56//7 38//7 36//7
f 56//7 36//7 58//7
f 56//7 58//7 59//7
f 59//7 58//7 60//7
f 61//8 62//8 63//8
f 63//8 62//8 64//8
f 62//8 65//8 64//8
f 65//8 66//8 64//8
f 66//8 67//8 64//8
f 67//8 68//8 64//8
f 64//8 68//8 69//8
f 68//8 70//8 69//8
f 69//8 70//8 71//8
f 70//8 72//8 71//8
f 71//8 72//8 73//8
f 72//8 74//8 73//8
f 74//8 75//8 73//8
f 73//8 75//8 76//8
f 75//8 77//8 76//8
f 76//8 77//8 78//8
f 77//8 79//8 78//8
f 78//8 79//8 80//8
f 79//8 81//8 80//8
f 80//8 81//8 82//8
f 81//8 83//8 82//8
f 83//8 84//8 82//8
f 85//8 86//8 84//8
f 82//8 84//8 86//8
f 66//8 65//8 87//8
f 87//8 65//8 88//8
f 65//8 89//8 88//8
f 88//8 89//8 90//8
f 89//8 91//8 90//8
f 90//8 91//8 92//8
f 91//8 93//8 92//8
f 92//8 93//8 94//8
f 94//8 93//8 95//8
f 93//8 96//8 95//8
f 95//8 96//8 97//8
f 96//8 98//8 97//8
f 97//8 98//8 99//8
f 98//8 100//8 99//8
f 99//8 100//8 101//8
f 100//8 102//8 101//8
f 101//8 102//8 103//8
f 103//8 102//8 104//8
f 102//8 105//8 104//8
f 104//8 105//8 85//8
f 85//8 105//8 86//8
f 105//8 106//8 86//8
f 86//8 106//8 107//8
f 108//8 107//8 106//8
f 3//2 109//9 110//9
f 109//9 3//2 2//2
f 7//4 8//4 111//10
f 112//10 111//10 8//4
f 113//11 10//5 9//5
f 10//5 113//11 114//11
f 115//12 116//12 11//6
f 12//6 11//6 116//12
f 117//13 114//11 113//11
f 114//11 117//13 118//13
f 119//14 120//14 115//12
f 116//12 115//12 120//14
f 121//15 118//13 117//13
f 118//13 121//15 122//15
f 123//16 124//16 119//14
f 120//14 119//14 124//16
f 121//15 125//17 122//15
f 125//17 121//15 126//17
f 127//18 124//16 128//18
f 123//16 128//18 124//16
f 126//17 129//19 125//17
f 129//19 126//17 130//19
f 131//20 127//18 132//20
f 128//18 132//20 127//18
f 130//19 133//21 129//19
f 133//21 130//19 134//21
f 135//22 131//20 136//22
f 132//20 136//22 131//20
f 134//21 137//23 133//21
f 137//23 134//21 138//23
f 139//24 135//22 140//24
f 136//22 140//24 135//22
f 138//23 141//25 137//23
f 141//25 138//23 142//25
f 143//26 139//24 144//26
f 140//24 144//26 139//24
f 142//25 145//10 141//25
f 145//10 142//25 146//10
f 147//9 143//26 148//9
f 144//26 148//9 143//26
f 145//10 149//4 150//4
f 149//4 145//10 146//10
f 147//9 148//9 151//2
f 152//2 151//2 148//9
f 150//4 153//3 154//3
f 153//3 150//4 149//4
f 151//2 152//2 155//1
f 156//1 155//1 152//2
f 154//3 157//6 158//6
f 157//6 154//3 153//3
f 155//1 156//1 159//5
f 160//5 159//5 156//1
f 158//6 161//12 162//12
f 161//12 158//6 157//6
f 159//5 160//5 163//11
f 164//11 163//11 160//5
f 162//12 165//14 166//14
f 165//14 162//12 161//12
f 163//11 164//11 167//13
f 168//13 167//13 164//11
f 166//14 169//16 170//16
f 169//16 166//14 165//14
f 167//13 168//13 171//15
f 172//15 171//15 168//13
f 169//16 173//18 170//16
f 173//18 169//16 174//18
f 175//17 171//15 176//17
f 172//15 176//17 171//15
f 174//18 177//20 173//18
f 177//20 174//18 178//20
f 179//19 175//17 180//19
f 176//17 180//19 175//17
f 178//20 181//22 177//20
f 181//22 178//20 182//22
f 183//21 179//19 184//21
f 180//19 184//21 179//19
f 182//22 185//24 181//22
f 185//24 182//22 186//24
f 187//23 183//21 188//23
f 184//21 188//23 183//21
f 186//24 189//26 185//24
f 189//26 186//24 190//26
f 191//25 187//23 192//25
f 188//23 192//25 187//23
f 190//26 109//9 189//26
f 109//9 190//26 110//9
f 112//10 191//25 111//10
f 192//25 111//10 191//25
