# SSTK version 0.8.0
# 7
mtllib original_7.mtl
o #ID19
v 0.00439890 0.47000241 -0.10623781
v -0.02204067 0.44185649 -0.10282386
v 0.00428483 0.44176067 -0.10620271
v -0.02219678 0.46991545 -0.10268687
v -0.02227633 0.46992609 -0.10264176
v 0.00410120 0.47007383 -0.10617375
v -0.02202714 0.44178911 -0.10291474
v 0.00440016 0.44192189 -0.10625485
v 0.03088876 0.46991661 -0.10263468
v 0.03071413 0.44187503 -0.10277135
v 0.03079556 0.46999095 -0.10272713
v 0.03072847 0.44190648 -0.10264735
v -0.02218231 0.55433026 -0.10288093
v 0.00415484 0.46992883 -0.10617074
v -0.02202945 0.47009724 -0.10277134
v 0.00429989 0.55433760 -0.10634433
v 0.00424750 0.55417352 -0.10629027
v -0.02212757 0.55436040 -0.10280029
v 0.00421360 0.46990655 -0.10628734
v -0.02214945 0.47008102 -0.10285934
v -0.04676501 0.44168468 -0.09268822
v -0.04669511 0.47002447 -0.09246195
v -0.04674895 0.46996023 -0.09271766
v -0.04691868 0.44173554 -0.09251057
v 0.05530325 0.46985320 -0.09252555
v 0.05532546 0.44180053 -0.09254680
v 0.05526971 0.46985945 -0.09255416
v 0.05526555 0.44177942 -0.09273346
v 0.03073150 0.47010186 -0.10261979
v 0.03070809 0.55440554 -0.10263913
v 0.03074654 0.55443679 -0.10284286
v 0.03070511 0.46990039 -0.10269810
v -0.04674879 0.55437865 -0.09249510
v -0.04671074 0.47009281 -0.09260217
v -0.04681711 0.55437900 -0.09257702
v -0.04687691 0.47002596 -0.09252014
v 0.09262105 0.55441908 -0.05514012
v 0.09852256 0.55440772 -0.00411670
v 0.10290965 0.55428740 -0.03048399
v 0.09533897 0.55428661 -0.02857628
v 0.08579323 0.55447352 -0.05139155
v 0.07637027 0.55440718 -0.07642783
v 0.07093436 0.55425988 -0.07065139
v 0.05542058 0.55442170 -0.09266703
v 0.05128663 0.55420869 -0.08580468
v 0.02871972 0.55443830 -0.09514840
v 0.00414114 0.55448331 -0.09824178
v -0.02024693 0.55431559 -0.09511802
v -0.04285566 0.55429144 -0.08574666
v -0.06231228 0.55427133 -0.07092076
v -0.06790677 0.55437107 -0.07624213
v -0.07734692 0.55443275 -0.05126977
v -0.08411163 0.55427560 -0.05505751
v -0.08660649 0.55444475 -0.02851198
v -0.09441684 0.55436394 -0.03062854
v -0.08999458 0.55438887 -0.00404995
v 0.10293540 0.55448108 0.02237232
v 0.10640691 0.55434031 -0.00420947
v 0.09272590 0.55424323 0.04677906
v 0.09529903 0.55443034 0.02030261
v 0.08585395 0.55436568 0.04280651
v 0.07647214 0.55430651 0.06802207
v 0.07096433 0.55445897 0.06247945
v 0.05521381 0.55442472 0.08426518
v 0.05151987 0.55439630 0.07745072
v 0.03067238 0.55436043 0.09443606
v 0.02855325 0.55444760 0.08691793
v 0.00440241 0.55433711 0.09786916
v 0.00422985 0.55442773 0.09005006
v -0.02020864 0.55432932 0.08688875
v -0.02212401 0.55424802 0.09437326
v -0.04282684 0.55441748 0.07754370
v -0.04670765 0.55431283 0.08420082
v -0.06234777 0.55439638 0.06253104
v -0.06790960 0.55437373 0.06796353
v -0.07735195 0.55426162 0.04305174
v -0.08403522 0.55423475 0.04694953
v -0.08671351 0.55430376 0.02022675
v -0.09433988 0.55419455 0.02229776
v -0.09784523 0.55436075 -0.00421304
v -0.09773828 0.55428774 -0.00410303
v -0.09426063 0.55437600 -0.03064214
v -0.09438824 0.55421925 0.02239238
v -0.08994848 0.55452628 -0.00422653
v -0.08666914 0.55424733 0.02021684
v -0.08426127 0.55438155 0.04706643
v -0.07735234 0.55447136 0.04294764
v -0.06790875 0.55429930 0.06801940
v -0.06223870 0.55432094 0.06253906
v -0.04666309 0.55431680 0.08413267
v -0.04282316 0.55448406 0.07742482
v -0.02220421 0.55451185 0.09452980
v -0.02022221 0.55432232 0.08686955
v 0.00437519 0.55438239 0.09791010
v 0.00426406 0.55431618 0.08995781
v 0.02860242 0.55444105 0.08682709
v 0.03071496 0.55435597 0.09454761
v 0.05131505 0.55440703 0.07746775
v 0.05530147 0.55440932 0.08429137
v 0.07105345 0.55431540 0.06235823
v 0.07640358 0.55446193 0.06804685
v 0.08593651 0.55436041 0.04306088
v 0.09269044 0.55417186 0.04699399
v 0.09518975 0.55439441 0.02035244
v 0.09849922 0.55445298 -0.00416285
v 0.10300213 0.55438288 -0.03042309
v 0.10300169 0.55433836 0.02233972
v 0.10634255 0.55431616 -0.00417797
v -0.08683675 0.55420253 -0.02853402
v -0.08426633 0.55443572 -0.05516634
v -0.07717408 0.55444207 -0.05126918
v -0.06792444 0.55423367 -0.07634979
v -0.06234071 0.55439075 -0.07070378
v -0.04275808 0.55431810 -0.08563994
v -0.02020057 0.55430950 -0.09520513
v 0.00426563 0.55441461 -0.09834404
v 0.02878984 0.55434561 -0.09525155
v 0.05143893 0.55430118 -0.08589622
v 0.05524040 0.55421244 -0.09267614
v 0.07093304 0.55445589 -0.07078492
v 0.07648907 0.55435998 -0.07627146
v 0.08589468 0.55438773 -0.05138619
v 0.09284619 0.55429923 -0.05532054
v 0.09530869 0.55430513 -0.02856700
v -0.06794671 0.44189095 -0.07640309
v -0.06777539 0.46997344 -0.07626242
v -0.06781767 0.46997984 -0.07635545
v -0.06786256 0.44180100 -0.07628393
v 0.07648192 0.47001082 -0.07634278
v 0.07650528 0.44180083 -0.07633626
v 0.07647678 0.46996197 -0.07622431
v 0.07642965 0.44183958 -0.07644887
v 0.05524259 0.47000083 -0.09254155
v 0.05542418 0.46997697 -0.09241032
v -0.06804699 0.46997958 -0.07637980
v -0.06778379 0.47000040 -0.07626806
v -0.08416256 0.46990821 -0.05536093
v -0.08421207 0.46992528 -0.05509242
v -0.09443000 0.47010742 -0.03055711
v -0.09429189 0.46986324 -0.03072439
v -0.09792021 0.47000119 -0.00408964
v -0.09780217 0.46999439 -0.00422138
v -0.09433721 0.46991041 0.02236911
v -0.09425423 0.46997961 0.02235417
v -0.08422878 0.47000361 0.04690176
v -0.08396256 0.46995091 0.04699491
v -0.06795203 0.47008277 0.06797147
v -0.06800473 0.47002434 0.06798397
v -0.04679670 0.47002392 0.08423708
v -0.04682663 0.47007308 0.08428495
v -0.02211425 0.46996545 0.09451488
v -0.02205675 0.47000277 0.09441378
v 0.00427527 0.46994180 0.09793846
v 0.00411777 0.46998360 0.09806254
v 0.03054093 0.47004639 0.09453017
v 0.03082273 0.46990940 0.09440425
v 0.05522184 0.47012801 0.08428569
v 0.05532360 0.46991269 0.08419958
v 0.07640803 0.47006493 0.06814145
v 0.07646662 0.46998531 0.06792727
v 0.09265190 0.46996783 0.04691987
v 0.09254986 0.46989289 0.04682027
v 0.10280499 0.47005295 0.02230541
v 0.10291805 0.46996584 0.02213511
v 0.10633216 0.46999016 -0.00408541
v 0.10642899 0.47003320 -0.00429407
v 0.10278247 0.47012474 -0.03058840
v 0.10281205 0.46999714 -0.03062383
v 0.09263388 0.46996423 -0.05520994
v 0.09265809 0.46992300 -0.05527406
v 0.07630453 0.46996906 -0.07625542
v 0.07633834 0.47007594 -0.07649660
v -0.08414776 0.46993488 -0.05528229
v -0.08419079 0.44193354 -0.05526565
v -0.08395340 0.44169481 -0.05523908
v -0.08402685 0.46999693 -0.05516649
v 0.09263579 0.44183185 -0.05515178
v 0.09265396 0.44186348 -0.05520633
v -0.09431743 0.47009206 -0.03057034
v -0.09445063 0.44199962 -0.03043636
v -0.09426911 0.44183173 -0.03042402
v -0.09431241 0.46994851 -0.03054610
v -0.09773968 0.44169739 -0.00418953
v -0.09785138 0.44166976 -0.00399301
v -0.09448226 0.44190562 0.02215782
v -0.09419828 0.47001258 0.02234288
v -0.09440906 0.46989590 0.02227914
v -0.09451768 0.44189079 0.02211456
v -0.08404527 0.44186811 0.04683880
v -0.08413499 0.47000626 0.04676406
v -0.08423078 0.46988774 0.04691392
v -0.08429797 0.44182958 0.04695636
v -0.06801395 0.46987396 0.06801268
v -0.06802763 0.44193465 0.06793881
v -0.06783617 0.44175957 0.06807901
v -0.06778319 0.46987590 0.06808135
v -0.04691902 0.44191319 0.08409648
v -0.04681027 0.44187267 0.08428224
v -0.02224274 0.46986927 0.09460202
v -0.02200199 0.44176679 0.09447211
v -0.02227549 0.46996386 0.09443930
v -0.02199723 0.44172486 0.09444032
v 0.00434745 0.44192538 0.09789709
v 0.00437951 0.46989943 0.09794243
v 0.00414406 0.46988171 0.09790275
v 0.00436089 0.44170721 0.09795035
v 0.03074207 0.44178954 0.09436202
v 0.03066380 0.47007936 0.09448071
v 0.03086323 0.46992051 0.09448476
v 0.03074519 0.44196764 0.09434630
v 0.05535737 0.44188090 0.08437017
v 0.05539600 0.46987768 0.08418140
v 0.05525804 0.46994721 0.08419937
v 0.05535717 0.44184776 0.08437200
v 0.07652844 0.44183442 0.06800475
v 0.07646924 0.44180668 0.06801744
v 0.09255326 0.44185477 0.04677574
v 0.09269309 0.46994500 0.04680164
v 0.09271719 0.44174678 0.04688337
v 0.09256695 0.46980703 0.04684275
v 0.10286500 0.44196528 0.02232253
v 0.10278110 0.44179599 0.02226448
v 0.10656558 0.44190846 -0.00409597
v 0.10645548 0.47009747 -0.00406728
v 0.10635548 0.44180965 -0.00417734
v 0.10636952 0.47009542 -0.00414816
v 0.10275984 0.46989869 -0.03058500
v 0.10295527 0.44170100 -0.03066515
v 0.10287081 0.46995724 -0.03056347
v 0.10306294 0.44201518 -0.03062118
vn 0 0 1
vn 0.17473609990396066 -0.7377001995945417 0.6521239996415763
vn 0 -0.7377002215531665 0.6751284197250247
vn 0.25881900959356163 0 0.9659258358036645
vn -0.25881900959356163 0 -0.9659258358036645
vn 0 0 -1
vn -0.17473609990396066 0.7377001995945417 -0.6521239996415763
vn 0 0.7377002215531665 -0.6751284197250247
vn -0.25881900959356163 0 0.9659258358036645
vn -0.17473609990396066 -0.7377001995945417 0.6521239996415763
vn 0.25881900959356163 0 -0.9659258358036645
vn 0.17473609990396066 0.7377001995945417 -0.6521239996415763
vn -0.19003900159039364 0.6788744056813472 -0.7092353059354306
vn 0 0.6788744085216663 -0.7342544092168312
vn 0 -0.6788744085216663 0.7342544092168312
vn 0.19003900159039364 -0.6788744056813472 0.7092353059354306
vn 0.3375641990500538 -0.7377001979240232 0.5846783983546447
vn 0.5000000016387101 0 0.866025402838329
vn -0.5000000016387101 0 -0.866025402838329
vn -0.3375641990500538 0.7377001979240232 -0.5846783983546447
vn -0.5000000016387101 0 0.866025402838329
vn -0.3375641990500538 -0.7377001979240232 0.5846783983546447
vn 0.5000000016387101 0 -0.866025402838329
vn 0.3375641990500538 0.7377001979240232 -0.5846783983546447
vn 0.19003900159039364 0.6788744056813472 -0.7092353059354306
vn -0.19003900159039364 -0.6788744056813472 0.7092353059354306
vn -0.3671271960269128 0.6788743926531536 -0.6358829931184106
vn 0.3671271960269128 -0.6788743926531536 0.6358829931184106
vn 0.6358829931184107 0.6788743926531536 -0.36712719602691263
vn 0.6751284197250248 0.7377002215531664 0
vn 0.7092353059354307 0.678874405681347 -0.1900390015903935
vn 0.6521239996415764 0.7377001995945416 -0.1747360999039605
vn 0.5846783983546449 0.7377001979240232 -0.33756419905005364
vn 0.5191962878397118 0.6788743840998321 -0.5191962878397117
vn 0.47738790018788557 0.7377002002903369 -0.4773879001878854
vn 0.3671271960269128 0.6788743926531536 -0.6358829931184106
vn -0.47738790018788557 0.7377002002903369 -0.4773879001878854
vn -0.5191962878397118 0.6788743840998321 -0.5191962878397117
vn -0.5846783983546449 0.7377001979240232 -0.33756419905005364
vn -0.6358829931184107 0.6788743926531536 -0.36712719602691263
vn -0.6521239996415764 0.7377001995945416 -0.1747360999039605
vn -0.7092353059354307 0.678874405681347 -0.1900390015903935
vn -0.6751284197250248 0.7377002215531664 0
vn 0.7092353059354307 0.678874405681347 0.19003900159039377
vn 0.7342544092168313 0.6788744085216661 0
vn 0.6358829931184107 0.6788743926531534 0.36712719602691296
vn 0.6521239996415764 0.7377001995945416 0.17473609990396083
vn 0.5846783983546449 0.737700197924023 0.33756419905005397
vn 0.5191962878397118 0.6788743840998319 0.519196287839712
vn 0.47738790018788557 0.7377002002903367 0.47738790018788574
vn 0.3671271960269128 0.6788743926531534 0.6358829931184108
vn 0.3375641990500538 0.737700197924023 0.584678398354645
vn 0.19003900159039364 0.6788744056813469 0.7092353059354308
vn 0.17473609990396066 0.7377001995945415 0.6521239996415765
vn 0 0.678874408521666 0.7342544092168314
vn 0 0.7377002215531663 0.6751284197250249
vn -0.17473609990396066 0.7377001995945415 0.6521239996415765
vn -0.19003900159039364 0.6788744056813469 0.7092353059354308
vn -0.3375641990500538 0.737700197924023 0.584678398354645
vn -0.3671271960269128 0.6788743926531534 0.6358829931184108
vn -0.47738790018788557 0.7377002002903367 0.47738790018788574
vn -0.5191962878397118 0.6788743840998319 0.519196287839712
vn -0.5846783983546449 0.737700197924023 0.33756419905005397
vn -0.6358829931184107 0.6788743926531534 0.36712719602691296
vn -0.6521239996415764 0.7377001995945416 0.17473609990396083
vn -0.7092353059354307 0.678874405681347 0.19003900159039377
vn -0.7342544092168313 0.6788744085216661 0
vn 0.7342544092168313 -0.6788744085216661 0
vn 0.7092353059354307 -0.678874405681347 0.1900390015903935
vn 0.7092353059354307 -0.678874405681347 -0.19003900159039377
vn 0.6751284197250248 -0.7377002215531664 0
vn 0.6521239996415764 -0.7377001995945416 -0.17473609990396083
vn 0.6358829931184107 -0.6788743926531534 -0.36712719602691296
vn 0.5846783983546449 -0.737700197924023 -0.33756419905005397
vn 0.5191962878397118 -0.6788743840998319 -0.519196287839712
vn 0.47738790018788557 -0.7377002002903367 -0.47738790018788574
vn 0.3671271960269128 -0.6788743926531534 -0.6358829931184108
vn 0.3375641990500538 -0.737700197924023 -0.584678398354645
vn 0.19003900159039364 -0.6788744056813469 -0.7092353059354308
vn 0.17473609990396066 -0.7377001995945415 -0.6521239996415765
vn 0 -0.678874408521666 -0.7342544092168314
vn 0 -0.7377002215531663 -0.6751284197250249
vn -0.17473609990396066 -0.7377001995945415 -0.6521239996415765
vn -0.19003900159039364 -0.6788744056813469 -0.7092353059354308
vn -0.3375641990500538 -0.737700197924023 -0.584678398354645
vn -0.3671271960269128 -0.6788743926531534 -0.6358829931184108
vn -0.47738790018788557 -0.7377002002903367 -0.47738790018788574
vn -0.5191962878397118 -0.6788743840998319 -0.519196287839712
vn -0.5846783983546449 -0.737700197924023 -0.33756419905005397
vn -0.6358829931184107 -0.6788743926531534 -0.36712719602691296
vn -0.6521239996415764 -0.7377001995945416 -0.17473609990396083
vn -0.6751284197250248 -0.7377002215531664 0
vn -0.7092353059354307 -0.678874405681347 0.1900390015903935
vn -0.7092353059354307 -0.678874405681347 -0.19003900159039377
vn -0.7342544092168313 -0.6788744085216661 0
vn 0.6521239996415764 -0.7377001995945416 0.1747360999039605
vn 0.6358829931184107 -0.6788743926531536 0.36712719602691263
vn 0.5846783983546449 -0.7377001979240232 0.33756419905005364
vn 0.5191962878397118 -0.6788743840998321 0.5191962878397117
vn 0.47738790018788557 -0.7377002002903369 0.4773879001878854
vn -0.3671271960269128 -0.6788743926531536 0.6358829931184106
vn -0.47738790018788557 -0.7377002002903369 0.4773879001878854
vn -0.5191962878397118 -0.6788743840998321 0.5191962878397117
vn -0.5846783983546449 -0.7377001979240232 0.33756419905005364
vn -0.6358829931184107 -0.6788743926531536 0.36712719602691263
vn -0.6521239996415764 -0.7377001995945416 0.1747360999039605
vn 0.7071067811865476 0 0.7071067811865476
vn -0.7071067811865476 0 -0.7071067811865476
vn -0.7520254135259405 0 0.6591341118551961
vn -0.6602813089208825 -0.47865340646695714 0.5787223078189608
vn 0.7520254135259405 0 -0.6591341118551961
vn 0.6602813089208825 0.47865340646695714 -0.5787223078189608
vn -0.866025402838329 0 -0.5000000016387101
vn 0.866025402838329 0 0.5000000016387101
vn -0.9659258358036645 0 -0.25881900959356163
vn 0.9659258358036645 0 0.25881900959356163
vn -1 0 0
vn 1 0 0
vn -0.9659258358036645 0 0.25881900959356163
vn 0.9659258358036645 0 -0.25881900959356163
vn -0.866025402838329 0 0.5000000016387101
vn 0.866025402838329 0 -0.5000000016387101
vn -0.7071067811865476 0 0.7071067811865476
vn 0.7071067811865476 0 -0.7071067811865476
vn 0.8137304815627431 0.34223329224578264 -0.46980748935524524
vn -0.8137304815627431 -0.34223329224578264 0.46980748935524524
vn 0.9808401654461394 0 0.19481419313692205
vn 0.861181553937174 -0.4786533743978178 0.17104759085101687
vn -0.861181553937174 0.4786533743978178 -0.17104759085101687
vn -0.9808401654461394 0 -0.19481419313692205
vn -0.9396150094647936 0.3422333034473349 0
vn 0.9396150094647936 -0.3422333034473349 0
vn -0.9075983957680774 0.3422332984042448 0.24319029886605967
vn 0.9075983957680774 -0.3422332984042448 -0.24319029886605967
vn -0.7875671006598948 0.4786534004010589 0.38810950032519326
vn -0.8969972491056448 0 0.44203612419903615
vn 0.8969972491056448 0 -0.44203612419903615
vn 0.7875671006598948 -0.4786534004010589 -0.38810950032519326
vn 0.6591341118551961 0 -0.7520254135259405
vn 0.578722307818961 -0.47865340646695687 -0.6602813089208827
vn -0.578722307818961 0.47865340646695687 0.6602813089208827
vn -0.6591341118551961 0 0.7520254135259405
vn -0.4698074893552453 0.34223329224578236 0.8137304815627432
vn 0.4698074893552453 -0.34223329224578236 -0.8137304815627432
vn -0.3217060930985406 0 0.946839579687749
vn -0.2824591976031346 0.4786533959382883 0.8313288929455884
vn 0.3217060930985406 0 -0.946839579687749
vn 0.2824591976031346 -0.4786533959382883 -0.8313288929455884
vn -0.4879984052438943 -0.47865340514347543 -0.7298962078432605
vn -0.555804330533084 0 -0.8313131456681474
vn 0.555804330533084 0 0.8313131456681474
vn 0.4879984052438943 0.47865340514347543 0.7298962078432605
vn 0.664408152134919 0.3422332753449389 0.6644081521349191
vn -0.664408152134919 -0.3422332753449389 -0.6644081521349191
vn 0.8137304815627431 0.3422332922457824 0.46980748935524536
vn -0.8137304815627431 -0.3422332922457824 -0.46980748935524536
vn 0.9075983957680774 0.3422332984042448 0.24319029886605967
vn -0.9075983957680774 -0.3422332984042448 -0.24319029886605967
vn 0.8761078726300487 0.47865338504668176 0.057670898198338774
vn 0.9978404685084655 0 0.06568408792703063
vn -0.8761078726300487 -0.47865338504668176 -0.057670898198338774
vn -0.9978404685084655 0 -0.06568408792703063
vn -0.946839579687749 0 0.3217060930985406
vn -0.8313288929455883 -0.47865339593828854 0.2824591976031345
vn 0.946839579687749 0 -0.3217060930985406
vn 0.8313288929455883 0.47865339593828854 -0.2824591976031345
usemtl material_0_0
f 1//1 2//2 3//3
f 2//2 1//1 4//4
f 5//5 6//6 7//7
f 8//8 7//7 6//6
f 9//9 3//3 10//10
f 3//3 9//9 1//1
f 6//6 11//11 8//8
f 12//12 8//8 11//11
f 13//13 14//6 15//5
f 14//6 13//13 16//14
f 17//15 18//16 19//1
f 20//4 19//1 18//16
f 4//4 21//17 2//2
f 21//17 4//4 22//18
f 23//19 5//5 24//20
f 7//7 24//20 5//5
f 25//21 10//10 26//22
f 10//10 25//21 9//9
f 11//11 27//23 12//12
f 28//24 12//12 27//23
f 16//14 29//11 14//6
f 29//11 16//14 30//25
f 31//26 17//15 32//9
f 19//1 32//9 17//15
f 33//27 15//5 34//19
f 15//5 33//27 13//13
f 18//16 35//28 20//4
f 36//18 20//4 35//28
f 37//29 38//30 39//31
f 38//30 37//29 40//32
f 40//32 37//29 41//33
f 41//33 37//29 42//34
f 41//33 42//34 43//35
f 43//35 42//34 44//36
f 43//35 44//36 45//24
f 45//24 44//36 30//25
f 45//24 30//25 46//12
f 46//12 30//25 16//14
f 46//12 16//14 47//8
f 47//8 16//14 13//13
f 47//8 13//13 48//7
f 48//7 13//13 49//20
f 49//20 13//13 33//27
f 49//20 33//27 50//37
f 50//37 33//27 51//38
f 50//37 51//38 52//39
f 52//39 51//38 53//40
f 52//39 53//40 54//41
f 54//41 53//40 55//42
f 54//41 55//42 56//43
f 39//31 57//44 58//45
f 57//44 39//31 59//46
f 59//46 39//31 38//30
f 59//46 38//30 60//47
f 59//46 60//47 61//48
f 59//46 61//48 62//49
f 62//49 61//48 63//50
f 62//49 63//50 64//51
f 64//51 63//50 65//52
f 64//51 65//52 66//53
f 66//53 65//52 67//54
f 66//53 67//54 68//55
f 68//55 67//54 69//56
f 68//55 69//56 70//57
f 68//55 70//57 71//58
f 71//58 70//57 72//59
f 71//58 72//59 73//60
f 73//60 72//59 74//61
f 73//60 74//61 75//62
f 75//62 74//61 76//63
f 75//62 76//63 77//64
f 77//64 76//63 78//65
f 77//64 78//65 79//66
f 79//66 78//65 56//43
f 79//66 56//43 55//42
f 79//66 55//42 80//67
f 81//68 82//69 83//70
f 82//69 84//71 83//70
f 84//71 85//72 83//70
f 83//70 85//72 86//73
f 85//72 87//74 86//73
f 86//73 87//74 88//75
f 87//74 89//76 88//75
f 88//75 89//76 90//77
f 89//76 91//78 90//77
f 90//77 91//78 92//79
f 91//78 93//80 92//79
f 92//79 93//80 94//81
f 93//80 95//82 94//81
f 95//82 96//83 94//81
f 94//81 96//83 97//84
f 96//83 98//85 97//84
f 97//84 98//85 99//86
f 98//85 100//87 99//86
f 99//86 100//87 101//88
f 100//87 102//89 101//88
f 101//88 102//89 103//90
f 102//89 104//91 103//90
f 104//91 105//92 103//90
f 105//92 106//93 103//90
f 103//90 106//93 107//94
f 108//95 107//94 106//93
f 84//71 82//69 109//96
f 82//69 110//97 109//96
f 109//96 110//97 111//98
f 110//97 112//99 111//98
f 111//98 112//99 113//100
f 112//99 35//28 113//100
f 113//100 35//28 114//17
f 35//28 18//16 114//17
f 114//17 18//16 115//2
f 115//2 18//16 116//3
f 18//16 17//15 116//3
f 116//3 17//15 117//10
f 17//15 31//26 117//10
f 117//10 31//26 118//22
f 31//26 119//101 118//22
f 118//22 119//101 120//102
f 119//101 121//103 120//102
f 120//102 121//103 122//104
f 121//103 123//105 122//104
f 122//104 123//105 124//106
f 124//106 123//105 105//92
f 106//93 105//92 123//105
f 22//18 125//100 21//17
f 125//100 22//18 126//107
f 127//108 23//19 128//37
f 24//20 128//37 23//19
f 129//109 26//22 130//110
f 26//22 129//109 25//21
f 27//23 131//111 28//24
f 132//112 28//24 131//111
f 30//25 133//23 29//11
f 133//23 30//25 44//36
f 119//101 31//26 134//21
f 32//9 134//21 31//26
f 51//38 34//19 135//108
f 34//19 51//38 33//27
f 35//28 112//99 36//18
f 136//107 36//18 112//99
f 137//113 51//38 135//108
f 51//38 137//113 53//40
f 110//97 138//114 112//99
f 136//107 112//99 138//114
f 139//115 53//40 137//113
f 53//40 139//115 55//42
f 82//69 140//116 110//97
f 138//114 110//97 140//116
f 141//117 55//42 139//115
f 55//42 141//117 80//67
f 81//68 142//118 82//69
f 140//116 82//69 142//118
f 143//119 80//67 141//117
f 80//67 143//119 79//66
f 83//70 144//120 81//68
f 142//118 81//68 144//120
f 145//121 79//66 143//119
f 79//66 145//121 77//64
f 86//73 146//122 83//70
f 144//120 83//70 146//122
f 147//123 77//64 145//121
f 77//64 147//123 75//62
f 88//75 148//124 86//73
f 146//122 86//73 148//124
f 73//60 147//123 149//21
f 147//123 73//60 75//62
f 88//75 90//77 148//124
f 150//23 148//124 90//77
f 71//58 149//21 151//9
f 149//21 71//58 73//60
f 90//77 92//79 150//23
f 152//11 150//23 92//79
f 68//55 151//9 153//1
f 151//9 68//55 71//58
f 92//79 94//81 152//11
f 154//6 152//11 94//81
f 66//53 153//1 155//4
f 153//1 66//53 68//55
f 94//81 97//84 154//6
f 156//5 154//6 97//84
f 64//51 155//4 157//18
f 155//4 64//51 66//53
f 97//84 99//86 156//5
f 158//19 156//5 99//86
f 62//49 157//18 159//107
f 157//18 62//49 64//51
f 99//86 101//88 158//19
f 160//108 158//19 101//88
f 62//49 161//114 59//46
f 161//114 62//49 159//107
f 160//108 101//88 162//113
f 103//90 162//113 101//88
f 59//46 163//116 57//44
f 163//116 59//46 161//114
f 162//113 103//90 164//115
f 107//94 164//115 103//90
f 57//44 165//118 58//45
f 165//118 57//44 163//116
f 164//115 107//94 166//117
f 108//95 166//117 107//94
f 58//45 167//120 39//31
f 167//120 58//45 165//118
f 166//117 108//95 168//119
f 106//93 168//119 108//95
f 39//31 169//122 37//29
f 169//122 39//31 167//120
f 168//119 106//93 170//121
f 123//105 170//121 106//93
f 37//29 171//124 42//34
f 171//124 37//29 169//122
f 170//121 123//105 172//123
f 121//103 172//123 123//105
f 44//36 171//124 133//23
f 171//124 44//36 42//34
f 121//103 119//101 172//123
f 134//21 172//123 119//101
f 173//114 125//100 126//107
f 125//100 173//114 174//98
f 175//39 176//113 128//37
f 127//108 128//37 176//113
f 169//122 132//112 131//111
f 132//112 169//122 177//125
f 178//126 170//121 130//110
f 129//109 130//110 170//121
f 179//127 174//98 173//114
f 174//98 179//127 180//128
f 181//129 182//130 175//39
f 176//113 175//39 182//130
f 183//131 182//130 181//129
f 182//130 183//131 141//117
f 142//118 184//132 179//127
f 180//128 179//127 184//132
f 185//133 141//117 183//131
f 141//117 185//133 186//119
f 187//120 188//134 142//118
f 184//132 142//118 188//134
f 189//135 186//119 185//133
f 186//119 189//135 190//136
f 191//137 192//138 187//120
f 188//134 187//120 192//138
f 193//139 192//138 191//137
f 192//138 193//139 194//140
f 195//141 196//142 189//135
f 190//136 189//135 196//142
f 149//21 195//141 197//143
f 195//141 149//21 196//142
f 193//139 150//23 194//140
f 198//144 194//140 150//23
f 199//145 197//143 200//146
f 197//143 199//145 149//21
f 150//23 201//147 198//144
f 202//148 198//144 201//147
f 201//147 203//82 202//148
f 203//82 201//147 204//6
f 205//1 199//145 206//56
f 200//146 206//56 199//145
f 204//6 207//83 203//82
f 207//83 204//6 208//5
f 209//4 205//1 210//54
f 206//56 210//54 205//1
f 208//5 211//149 207//83
f 211//149 208//5 212//150
f 213//151 209//4 214//152
f 210//54 214//152 209//4
f 159//107 214//152 215//153
f 214//152 159//107 213//151
f 212//150 160//108 211//149
f 216//154 211//149 160//108
f 159//107 217//155 218//114
f 217//155 159//107 215//153
f 216//154 160//108 219//156
f 220//113 219//156 160//108
f 218//114 221//157 163//116
f 221//157 218//114 217//155
f 219//156 220//113 222//158
f 164//115 222//158 220//113
f 163//116 223//159 224//160
f 223//159 163//116 221//157
f 222//158 164//115 225//161
f 226//162 225//161 164//115
f 225//161 227//163 228//164
f 227//163 225//161 226//162
f 224//160 223//159 229//165
f 230//166 229//165 223//159
f 229//165 177//125 169//122
f 177//125 229//165 230//166
f 228//164 227//163 178//126
f 170//121 178//126 227//163
