# SSTK version 0.8.0
# 35
mtllib original_35.mtl
o #ID229
v 0.26352841 0.09840784 0.00604866
v 0.26367257 0.09694434 0.02146605
v 0.26352089 0.09844394 0.02150910
v 0.26361519 0.09639876 0.01936852
v 0.26356344 0.09545461 0.01818641
v 0.26359387 0.09368137 0.01760964
v 0.26361610 0.09006939 0.01730955
v 0.26362918 0.06971399 0.01727891
v 0.26361830 0.06544873 0.01728525
v 0.26356478 0.06016572 0.01736654
v 0.26354564 0.06861188 0.00598678
v 0.26370852 0.06516978 0.00578786
v 0.26348602 0.06317986 0.00530080
v 0.26355622 0.06027434 0.00191566
v 0.26345922 0.06237160 0.00399293
v 0.26350280 0.06182468 0.00182360
v 0.26373137 0.09839121 0.02747599
v 0.26368502 0.09688749 0.04305168
v 0.26370724 0.09833533 0.04299011
v 0.26365088 0.09635484 0.04097800
v 0.26372536 0.09549681 0.03973414
v 0.26353391 0.09355008 0.03903203
v 0.26365000 0.09012008 0.03900300
v 0.26360842 0.07492650 0.03884949
v 0.26368178 0.06945352 0.03862489
v 0.26368302 0.06583591 0.03790754
v 0.26375017 0.06343244 0.03661968
v 0.26360150 0.06114921 0.03469418
v 0.26344852 0.05966542 0.03187453
v 0.26355185 0.05931771 0.02892201
v 0.26355849 0.07232949 0.02747040
v 0.26359086 0.06721449 0.02716545
v 0.26369171 0.05951685 0.02575751
v 0.26350123 0.06530686 0.02576045
v 0.26359211 0.06464561 0.02386460
v 0.26357313 0.06079286 0.02287602
v 0.26368068 0.06551553 0.02123262
v 0.26372642 0.06262639 0.01998235
v 0.26350415 0.06717268 0.01950684
v 0.26347026 0.09838060 0.00605655
v 0.26378630 0.06866599 0.00587479
v 0.26349440 0.06869253 0.00600031
v 0.26390675 0.09844897 0.00606444
v 0.26359781 0.06515331 0.00569721
v 0.26346767 0.06514708 0.00576342
v 0.26367673 0.06310444 0.00536226
v 0.26356070 0.06316421 0.00533741
v 0.26375861 0.06313597 0.00525036
v 0.26356931 0.06223542 0.00408412
v 0.26359068 0.06313575 0.00520328
v 0.26363407 0.06242969 0.00405971
v 0.26362479 0.06187358 0.00187605
v 0.26372325 0.06194947 0.00193519
v 0.26364344 0.06185449 0.00187969
v 0.26378671 0.06045007 0.00188836
v 0.26360687 0.06020231 0.00200271
v 0.26363512 0.06180240 0.00190687
v 0.26369964 0.06044659 0.00200558
v 0.26359918 0.06047869 0.01749739
v 0.26366614 0.06045755 0.00179277
v 0.26360048 0.06037968 0.01732297
v 0.26365492 0.06540446 0.01757057
v 0.26355209 0.06052576 0.01750196
v 0.26364748 0.06035090 0.01727663
v 0.26350175 0.06554525 0.01743790
v 0.26355094 0.06531958 0.01752377
v 0.26366446 0.06273087 0.02001461
v 0.26356028 0.06245753 0.02016284
v 0.26364233 0.06542628 0.01736167
v 0.26367145 0.06063465 0.02281904
v 0.26369645 0.06073631 0.02287922
v 0.26361743 0.05962144 0.02565421
v 0.26363773 0.05964581 0.02575390
v 0.26360726 0.05922221 0.02899653
v 0.26376126 0.05927555 0.02903099
v 0.26354526 0.05968136 0.03198586
v 0.26373915 0.05960850 0.03198005
v 0.26352523 0.06119969 0.03470786
v 0.26370259 0.06112928 0.03453671
v 0.26387224 0.06330477 0.03681360
v 0.26351419 0.06333363 0.03676260
v 0.26369540 0.06588844 0.03797459
v 0.26350740 0.06578422 0.03788283
v 0.26366799 0.06948634 0.03861618
v 0.26367947 0.06945523 0.03866813
v 0.26361779 0.07500130 0.03877764
v 0.26355896 0.07493410 0.03884987
v 0.26377573 0.09001514 0.03892283
v 0.26365390 0.09010378 0.03879621
v 0.26390413 0.09363184 0.03898865
v 0.26366271 0.09358895 0.03904852
v 0.26368337 0.09549709 0.03951796
v 0.26350530 0.09545791 0.03970310
v 0.26364304 0.09535463 0.03957491
v 0.26376956 0.09642665 0.04091654
v 0.26365779 0.09551723 0.03963020
v 0.26367029 0.09639105 0.04102359
v 0.26343756 0.09701062 0.04301764
v 0.26376174 0.09671710 0.04298031
v 0.26375104 0.09841524 0.04298577
v 0.26367401 0.09695807 0.04295916
v 0.26378309 0.09698649 0.04304779
v 0.26346069 0.09833418 0.04299511
v 0.26365291 0.09848270 0.04287444
v 0.26373787 0.09830844 0.02740488
v 0.26361244 0.09839025 0.02747276
v 0.26370699 0.09841779 0.04299326
v 0.26357008 0.09843398 0.02751770
v 0.26374276 0.07238173 0.02758228
v 0.26371035 0.07242827 0.02757128
v 0.26377571 0.09847865 0.02740700
v 0.26369448 0.06721916 0.02719494
v 0.26357372 0.06705747 0.02720754
v 0.26362337 0.06705443 0.02715003
v 0.26383612 0.06529443 0.02589943
v 0.26348728 0.06525319 0.02571449
v 0.26374926 0.06725425 0.02720457
v 0.26377621 0.06529372 0.02591748
v 0.26360775 0.06484166 0.02399967
v 0.26363470 0.06531156 0.02586011
v 0.26388848 0.06467995 0.02396271
v 0.26373954 0.06479648 0.02392569
v 0.26362526 0.06556870 0.02124410
v 0.26364041 0.06475101 0.02398753
v 0.26369496 0.06533617 0.02132015
v 0.26356286 0.06712015 0.01946780
v 0.26381072 0.06708053 0.01949989
v 0.26369830 0.06977188 0.01741043
v 0.26358352 0.06971674 0.01749600
v 0.26381602 0.09002174 0.01752225
v 0.26356418 0.06981572 0.01755413
v 0.26359868 0.06970590 0.01744167
v 0.26360803 0.08998438 0.01732247
v 0.26374040 0.09357669 0.01759852
v 0.26343473 0.09374900 0.01757461
v 0.26377273 0.09549724 0.01824055
v 0.26359698 0.09553421 0.01817060
v 0.26383482 0.09546027 0.01819192
v 0.26372107 0.09622113 0.01936939
v 0.26345026 0.09558559 0.01813451
v 0.26361712 0.09640540 0.01957410
v 0.26374490 0.09683536 0.02143153
v 0.26361221 0.09674176 0.02144822
v 0.26367699 0.09838122 0.02141718
v 0.26366915 0.09669972 0.02147693
v 0.26385442 0.09688805 0.02145991
v 0.26360234 0.09836914 0.02145079
v 0.26377716 0.09833991 0.02159309
v 0.26367627 0.09839189 0.00593532
v 0.26364804 0.09854318 0.02148800
v 0.26372699 0.09844952 0.00596291
v 0.26378718 0.06949121 0.03862342
v 0.26374962 0.09008762 0.03902510
v 0.26372942 0.07509595 0.03891024
v 0.26374251 0.06027944 0.00198963
v 0.26366054 0.06549153 0.01750492
v 0.26368347 0.06046716 0.01729484
v 0.26388468 0.06983882 0.01729488
v 0.26368446 0.06301922 0.00510435
v 0.26378260 0.09001611 0.01739597
v 0.26374587 0.06503517 0.00580885
v 0.26371991 0.06841786 0.00595922
v 0.26382658 0.06242426 0.00397342
v 0.26388161 0.06180124 0.00190254
v 0.26368747 0.09646438 0.01948545
v 0.26378928 0.09848191 0.02153011
v 0.26374855 0.09676354 0.02149029
v 0.26385693 0.09834995 0.00600713
v 0.26381121 0.09538744 0.01819951
v 0.26371714 0.09348861 0.01755208
v 0.26378168 0.05920291 0.02898024
v 0.26371441 0.06713752 0.02694067
v 0.26365109 0.07238372 0.02745108
v 0.26369045 0.05938350 0.02571349
v 0.26376863 0.06531512 0.02578292
v 0.26381371 0.06460846 0.02385926
v 0.26371533 0.06078100 0.02293953
v 0.26358674 0.06550268 0.02121248
v 0.26378349 0.06268803 0.02004992
v 0.26381745 0.06715760 0.01944765
v 0.26375200 0.09631889 0.04084755
v 0.26389805 0.09828784 0.04284196
v 0.26372197 0.09672823 0.04293999
v 0.26383742 0.09825579 0.02765448
v 0.26373262 0.09557642 0.03966814
v 0.26361794 0.09357431 0.03901159
v 0.26360071 0.06588734 0.03785925
v 0.26380315 0.06338714 0.03668931
v 0.26359517 0.06104589 0.03470576
v 0.26382935 0.05969875 0.03209014
vn -1 0 0
vn 0 0 -1
vn 0 0.028741309517834324 -0.9995868832308675
vn 0 0.1833317020683394 -0.9830511110907335
vn 0 0.30625699107870213 -0.9519488722696298
vn 0 0.8135063009815362 -0.5815561007016764
vn 0 0.9109366448652972 -0.41254627503051755
vn 0 0.9736994976809108 -0.22783609945735578
vn 0 -1 0
vn 0 0 1
vn 0 -0.6959835888648714 -0.7180576885117056
vn 0 -0.7595093215702737 -0.6504964184742775
vn 0 -0.8815155572163661 -0.47215497708434606
vn 0 -0.9709807884575193 -0.23915749715702864
vn 0 -0.9997346509158193 0.02303535886902802
vn 0 -0.945133175909345 0.3266852916730646
vn 0 -0.7954982610016136 0.6059558702937109
vn 0 -0.583482798352802 0.8121254977073329
vn 0 -0.3180357114702478 0.9480787341933229
vn 0 -0.10618260501849194 0.9943466469956477
vn 0 -0.019045890201583444 0.9998186105821543
vn 0 -0.028308940612541227 0.9995992216290466
vn 0 -0.18122009346350312 0.983442564527832
vn 0 -0.30298989055573733 0.9529937702949701
vn 0 -0.8139615909307384 0.580918693527331
vn 0 -0.9092722755085108 0.41620178878949443
vn 0 -0.9716529269439264 0.23641190655569969
vn 0 1 0
vn 0 0.03674707992551977 -0.9993245979745258
vn 0 0.07344452031953833 -0.9972993043389897
vn 0 0.563336827744472 -0.8262273406918915
vn 0 0.9535826590888018 -0.3011313870806731
vn 0 0.9598344398751899 0.28056701165582587
vn 0 0.8744992901974183 0.4850267945631579
vn 0 0.6858510984956472 0.7277418984037638
vn 0 0.6203209121116354 0.7843481153142325
vn 1 0 0
usemtl material_0_0
f 1//1 2//1 3//1
f 2//1 1//1 4//1
f 4//1 1//1 5//1
f 5//1 1//1 6//1
f 6//1 1//1 7//1
f 7//1 1//1 8//1
f 8//1 1//1 9//1
f 9//1 1//1 10//1
f 10//1 1//1 11//1
f 10//1 11//1 12//1
f 10//1 12//1 13//1
f 10//1 13//1 14//1
f 14//1 13//1 15//1
f 14//1 15//1 16//1
f 17//1 18//1 19//1
f 18//1 17//1 20//1
f 20//1 17//1 21//1
f 21//1 17//1 22//1
f 22//1 17//1 23//1
f 23//1 17//1 24//1
f 24//1 17//1 25//1
f 25//1 17//1 26//1
f 26//1 17//1 27//1
f 27//1 17//1 28//1
f 28//1 17//1 29//1
f 29//1 17//1 30//1
f 30//1 17//1 31//1
f 30//1 31//1 32//1
f 30//1 32//1 33//1
f 33//1 32//1 34//1
f 33//1 34//1 35//1
f 33//1 35//1 36//1
f 36//1 35//1 37//1
f 36//1 37//1 38//1
f 38//1 37//1 39//1
f 38//1 39//1 9//1
f 9//1 39//1 8//1
f 40//2 41//3 42//3
f 41//3 40//2 43//2
f 42//3 44//4 45//4
f 44//4 42//3 41//3
f 45//4 46//5 47//5
f 46//5 45//4 44//4
f 48//6 49//7 50//6
f 49//7 48//6 51//7
f 51//7 52//8 49//7
f 52//8 51//7 53//8
f 54//2 55//2 56//2
f 55//2 54//2 57//2
f 58//9 59//9 60//9
f 59//9 58//9 61//9
f 62//10 63//10 64//10
f 63//10 62//10 65//10
f 66//11 67//12 68//12
f 67//12 66//11 69//11
f 67//12 70//13 68//12
f 70//13 67//12 71//13
f 71//13 72//14 70//13
f 72//14 71//13 73//14
f 73//14 74//15 72//14
f 74//15 73//14 75//15
f 75//15 76//16 74//15
f 76//16 75//15 77//16
f 77//16 78//17 76//16
f 78//17 77//16 79//17
f 80//18 78//17 79//17
f 78//17 80//18 81//18
f 82//19 81//18 80//18
f 81//18 82//19 83//19
f 84//20 83//19 82//19
f 83//19 84//20 85//20
f 86//21 85//20 84//20
f 85//20 86//21 87//21
f 88//22 87//21 86//21
f 87//21 88//22 89//22
f 90//23 89//22 88//22
f 89//22 90//23 91//23
f 92//24 91//23 90//23
f 91//23 92//24 93//24
f 94//25 95//26 96//25
f 95//26 94//25 97//26
f 97//26 98//27 95//26
f 98//27 97//26 99//27
f 100//10 101//10 102//10
f 101//10 100//10 103//10
f 104//28 105//28 106//28
f 105//28 104//28 107//28
f 108//2 109//29 110//29
f 109//29 108//2 111//2
f 110//29 112//30 113//30
f 112//30 110//29 109//29
f 114//31 115//31 116//31
f 115//31 114//31 117//31
f 118//32 119//32 120//32
f 119//32 118//32 121//32
f 122//33 123//34 124//33
f 123//34 122//33 125//34
f 125//34 126//35 123//34
f 126//35 125//34 127//35
f 128//36 126//35 127//35
f 126//35 128//36 129//36
f 130//22 131//10 132//10
f 131//10 130//22 133//22
f 134//23 133//22 130//22
f 133//22 134//23 135//23
f 136//24 135//23 134//23
f 135//23 136//24 137//24
f 138//25 139//26 140//25
f 139//26 138//25 141//26
f 141//26 142//27 139//26
f 142//27 141//26 143//27
f 144//10 145//10 146//10
f 145//10 144//10 147//10
f 148//28 149//28 150//28
f 149//28 148//28 151//28
f 152//37 153//37 154//37
f 155//37 156//37 157//37
f 156//37 155//37 158//37
f 158//37 155//37 159//37
f 158//37 159//37 160//37
f 160//37 159//37 161//37
f 160//37 161//37 162//37
f 159//37 155//37 163//37
f 163//37 155//37 164//37
f 165//37 166//37 167//37
f 166//37 165//37 168//37
f 168//37 165//37 169//37
f 168//37 169//37 170//37
f 168//37 170//37 160//37
f 168//37 160//37 162//37
f 171//37 172//37 173//37
f 172//37 171//37 174//37
f 172//37 174//37 175//37
f 175//37 174//37 176//37
f 176//37 174//37 177//37
f 176//37 177//37 178//37
f 178//37 177//37 179//37
f 178//37 179//37 180//37
f 180//37 179//37 156//37
f 180//37 156//37 158//37
f 181//37 182//37 183//37
f 182//37 181//37 184//37
f 184//37 181//37 185//37
f 184//37 185//37 186//37
f 184//37 186//37 153//37
f 184//37 153//37 152//37
f 184//37 152//37 187//37
f 184//37 187//37 188//37
f 184//37 188//37 189//37
f 184//37 189//37 190//37
f 184//37 190//37 171//37
f 184//37 171//37 173//37
