# SSTK version 0.8.0
# 22
mtllib original_22.mtl
o #ID152
v -0.01848751 0.79350734 0.01765945
v -0.02356186 0.46991575 0.01109861
v -0.02347363 0.79333804 0.01117181
v -0.01853540 0.46987650 0.01770144
v -0.01851628 0.46997836 0.01768812
v -0.01835413 0.79349185 0.01775341
v -0.02361697 0.47002383 0.01119601
v -0.02346109 0.79344396 0.01120915
v -0.02657133 0.46984839 0.00347911
v -0.02658124 0.79345947 0.00355947
v -0.02669539 0.46988592 0.00364490
v -0.02666973 0.79361947 0.00373241
v -0.01196604 0.46995190 0.02282508
v -0.01196582 0.79343048 0.02262767
v -0.01184798 0.79349020 0.02269592
v -0.01191620 0.46990691 0.02287247
v -0.02765467 0.46996163 -0.00447539
v -0.02767656 0.79354030 -0.00458394
v -0.02773980 0.46989067 -0.00461288
v -0.02755009 0.79352824 -0.00468348
v -0.00439653 0.47000874 0.02586263
v -0.00435907 0.79355008 0.02576335
v -0.00430121 0.79350086 0.02593117
v -0.00427219 0.46985748 0.02576413
v -0.02656779 0.46986482 -0.01288091
v -0.02657135 0.79349479 -0.01274245
v -0.02658792 0.46994743 -0.01265930
v -0.02664104 0.79347382 -0.01268497
v 0.00386074 0.46988114 0.02692366
v 0.00398482 0.79334781 0.02688924
v 0.00380099 0.79358596 0.02684394
v 0.00374902 0.46994251 0.02682727
v -0.02348390 0.46995326 -0.02030497
v -0.02348722 0.79342856 -0.02048915
v -0.02332634 0.46992249 -0.02030031
v -0.02347345 0.79365867 -0.02020734
v 0.01201544 0.47008868 0.02593445
v 0.01191812 0.79357242 0.02582759
v 0.01194920 0.79340171 0.02595065
v 0.01206484 0.46992168 0.02597072
v -0.01851660 0.46986736 -0.02674509
v -0.01847395 0.79347483 -0.02695673
v -0.01841116 0.46993607 -0.02673199
v -0.01838132 0.79330916 -0.02686385
v 0.01970326 0.47011196 0.02261160
v 0.01969137 0.79355313 0.02268381
v 0.01961164 0.79350328 0.02272987
v 0.01971549 0.46991900 0.02260274
v -0.01188801 0.79331572 -0.03193495
v -0.01205842 0.46982638 -0.03183021
v -0.01201825 0.79361846 -0.03185084
v -0.01191849 0.46996394 -0.03186867
v 0.02615385 0.46991763 0.01784997
v 0.02617920 0.79344429 0.01769962
v 0.02601572 0.79336191 0.01768675
v 0.02618006 0.46989399 0.01779628
v -0.00415208 0.79354907 -0.03496610
v -0.00431582 0.46983251 -0.03499031
v -0.00412978 0.79340679 -0.03490644
v -0.00431978 0.47008436 -0.03516678
v 0.03112517 0.79351137 0.01124376
v 0.03125984 0.46993892 0.01116356
v 0.03120855 0.79356444 0.01110571
v 0.03133986 0.47010313 0.01110607
v 0.00379784 0.79339422 -0.03604349
v 0.00387382 0.47001629 -0.03603641
v 0.00390799 0.79340869 -0.03619364
v 0.00394787 0.47007463 -0.03595899
v 0.03415366 0.79345206 0.00351740
v 0.03417267 0.46988492 0.00356102
v 0.03436805 0.79348504 0.00361160
v 0.03417278 0.46986559 0.00361464
v 0.01194044 0.79363778 -0.03503919
v 0.01202872 0.46993358 -0.03500484
v 0.01209697 0.79341310 -0.03516775
v 0.01201472 0.46993795 -0.03508567
v 0.03529839 0.79340984 -0.00457644
v 0.03548893 0.46995190 -0.00463356
v 0.03542056 0.79350984 -0.00460922
v 0.03523837 0.47004986 -0.00454300
v 0.01952834 0.79346273 -0.03187305
v 0.01957402 0.46992458 -0.03180103
v 0.01968094 0.79334342 -0.03183820
v 0.01945628 0.46998013 -0.03192460
v 0.03435513 0.79353221 -0.01265621
v 0.03419533 0.46992295 -0.01279940
v 0.03419528 0.79345218 -0.01289451
v 0.03416174 0.46991385 -0.01291311
v 0.02611186 0.79349654 -0.02683391
v 0.02610344 0.47005296 -0.02682389
v 0.02606160 0.79346383 -0.02681298
v 0.02618815 0.46998145 -0.02680292
v 0.03107327 0.79331471 -0.02033618
v 0.03114412 0.46997017 -0.02031986
v 0.03100621 0.79339245 -0.02031550
v 0.03114227 0.46979761 -0.02026537
vn 0.7071067811865476 0 -0.7071067811865476
vn 0.866025402838329 0 -0.5000000016387101
vn -0.7071067811865476 0 0.7071067811865476
vn -0.866025402838329 0 0.5000000016387101
vn 0.9659258358036645 0 -0.25881900959356163
vn -0.9659258358036645 0 0.25881900959356163
vn 0.5000000016387101 0 -0.866025402838329
vn -0.5000000016387101 0 0.866025402838329
vn 1 0 0
vn -1 0 0
vn 0.25881900959356163 0 -0.9659258358036645
vn -0.25881900959356163 0 0.9659258358036645
vn 0.9659258358036645 0 0.25881900959356163
vn -0.9659258358036645 0 -0.25881900959356163
vn 0 0 -1
vn 0 0 1
vn 0.866025402838329 0 0.5000000016387101
vn -0.866025402838329 0 -0.5000000016387101
vn -0.25881900959356163 0 -0.9659258358036645
vn 0.25881900959356163 0 0.9659258358036645
vn 0.7071067811865476 0 0.7071067811865476
vn -0.7071067811865476 0 -0.7071067811865476
vn -0.5000000016387101 0 -0.866025402838329
vn 0.5000000016387101 0 0.866025402838329
usemtl material_0_0
f 1//1 2//2 3//2
f 2//2 1//1 4//1
f 5//3 6//3 7//4
f 8//4 7//4 6//3
f 3//2 9//5 10//5
f 9//5 3//2 2//2
f 7//4 8//4 11//6
f 12//6 11//6 8//4
f 1//1 13//7 4//1
f 13//7 1//1 14//7
f 15//8 6//3 16//8
f 5//3 16//8 6//3
f 10//5 17//9 18//9
f 17//9 10//5 9//5
f 11//6 12//6 19//10
f 20//10 19//10 12//6
f 14//7 21//11 13//7
f 21//11 14//7 22//11
f 23//12 15//8 24//12
f 16//8 24//12 15//8
f 18//9 25//13 26//13
f 25//13 18//9 17//9
f 19//10 20//10 27//14
f 28//14 27//14 20//10
f 22//11 29//15 21//11
f 29//15 22//11 30//15
f 31//16 23//12 32//16
f 24//12 32//16 23//12
f 26//13 33//17 34//17
f 33//17 26//13 25//13
f 27//14 28//14 35//18
f 36//18 35//18 28//14
f 30//15 37//19 29//15
f 37//19 30//15 38//19
f 39//20 31//16 40//20
f 32//16 40//20 31//16
f 34//17 41//21 42//21
f 41//21 34//17 33//17
f 35//18 36//18 43//22
f 44//22 43//22 36//18
f 38//19 45//23 37//19
f 45//23 38//19 46//23
f 47//24 39//20 48//24
f 40//20 48//24 39//20
f 49//24 41//21 50//24
f 41//21 49//24 42//21
f 44//22 51//23 43//22
f 52//23 43//22 51//23
f 46//23 53//22 45//23
f 53//22 46//23 54//22
f 55//21 47//24 56//21
f 48//24 56//21 47//24
f 57//20 50//24 58//20
f 50//24 57//20 49//24
f 51//23 59//19 52//23
f 60//19 52//23 59//19
f 53//22 61//18 62//18
f 61//18 53//22 54//22
f 55//21 56//21 63//17
f 64//17 63//17 56//21
f 65//16 58//20 66//16
f 58//20 65//16 57//20
f 59//19 67//15 60//19
f 68//15 60//19 67//15
f 62//18 69//14 70//14
f 69//14 62//18 61//18
f 63//17 64//17 71//13
f 72//13 71//13 64//17
f 73//12 66//16 74//12
f 66//16 73//12 65//16
f 67//15 75//11 68//15
f 76//11 68//15 75//11
f 70//14 77//10 78//10
f 77//10 70//14 69//14
f 71//13 72//13 79//9
f 80//9 79//9 72//13
f 81//8 74//12 82//8
f 74//12 81//8 73//12
f 75//11 83//7 76//11
f 84//7 76//11 83//7
f 78//10 85//6 86//6
f 85//6 78//10 77//10
f 79//9 80//9 87//5
f 88//5 87//5 80//9
f 89//3 82//8 90//3
f 82//8 89//3 81//8
f 83//7 91//1 84//7
f 92//1 84//7 91//1
f 86//6 93//4 94//4
f 93//4 86//6 85//6
f 87//5 88//5 95//2
f 96//2 95//2 88//5
f 94//4 89//3 90//3
f 89//3 94//4 93//4
f 95//2 96//2 91//1
f 92//1 91//1 96//2
