# SSTK version 0.8.0
# 49
mtllib original_49.mtl
o #ID323
v -0.25666678 0.27086969 0.06876280
v -0.25667442 0.27401873 0.05267941
v -0.25672427 0.27174922 0.05091954
v -0.25675993 0.27372815 0.06027586
v -0.25670345 0.27343442 0.06935310
v -0.25671434 0.26812290 0.08629804
v -0.25673480 0.27059205 0.08700769
v -0.25664361 0.26320459 0.10344424
v -0.25673474 0.26551694 0.10443180
v -0.25672049 0.25613877 0.11973226
v -0.25654064 0.25807151 0.12095108
v -0.25661650 0.24739948 0.13534748
v -0.25651940 0.24908292 0.13639463
v -0.25682451 0.23696685 0.14980014
v -0.25669722 0.23812505 0.15045296
v -0.25667321 0.22487850 0.16289289
v -0.25676133 0.22536726 0.16333578
v -0.25668482 0.21123174 0.17449979
vn -1 0 0
usemtl material_0_0
f 1//1 2//1 3//1
f 2//1 1//1 4//1
f 4//1 1//1 5//1
f 5//1 1//1 6//1
f 5//1 6//1 7//1
f 7//1 6//1 8//1
f 7//1 8//1 9//1
f 9//1 8//1 10//1
f 9//1 10//1 11//1
f 11//1 10//1 12//1
f 11//1 12//1 13//1
f 13//1 12//1 14//1
f 13//1 14//1 15//1
f 15//1 14//1 16//1
f 15//1 16//1 17//1
f 17//1 16//1 18//1
