# SSTK version 0.8.0
# 21
mtllib original_21.mtl
o #ID146
v 0.03781576 0.79357405 -0.01378443
v 0.03774558 0.79360555 0.00443768
v 0.03906521 0.79340644 -0.00460488
v 0.03435015 0.79363658 -0.02219012
v 0.03527871 0.79345467 -0.00459184
v 0.03441135 0.79353218 -0.01274456
v 0.02856444 0.79341056 -0.02948867
v 0.03120062 0.79340303 -0.02024306
v 0.02609223 0.79356662 -0.02687128
v 0.02139161 0.79340494 -0.03518173
v 0.01947859 0.79353749 -0.03192412
v 0.01306852 0.79350211 -0.03858458
v 0.01198241 0.79333360 -0.03505170
v 0.00400301 0.79339314 -0.03957326
v 0.00383661 0.79353307 -0.03598292
v -0.00525514 0.79351173 -0.03851566
v -0.00429174 0.79344852 -0.03516362
v -0.01185266 0.79339659 -0.03201463
v -0.01357239 0.79333348 -0.03495234
v -0.01826475 0.79339257 -0.02678125
v -0.02087701 0.79364217 -0.02940939
v -0.02344714 0.79339186 -0.02025232
v -0.02667153 0.79350627 -0.02220948
v -0.02658668 0.79343073 -0.01285105
v -0.02768189 0.79362007 -0.00459599
v -0.03008847 0.79349744 -0.01353176
v 0.03449273 0.79347840 0.01299345
v 0.03418266 0.79332718 0.00347373
v 0.02861413 0.79334673 0.02023129
v 0.03118287 0.79346108 0.01112362
v 0.02624251 0.79353377 0.01785488
v 0.02145052 0.79339551 0.02585467
v 0.01950460 0.79349889 0.02258004
v 0.01300231 0.79339906 0.02929941
v 0.01197630 0.79351691 0.02580047
v 0.00382156 0.79354764 0.03052831
v 0.00382763 0.79334993 0.02702652
v -0.00446340 0.79346416 0.02584281
v -0.00524145 0.79332300 0.02932726
v -0.01189273 0.79351204 0.02282772
v -0.01374884 0.79349135 0.02581657
v -0.01827223 0.79342683 0.01779833
v -0.02099845 0.79344206 0.02031069
v -0.02347160 0.79358145 0.01115284
v -0.02663414 0.79342919 0.01301915
v -0.02671933 0.79349485 0.00346204
v -0.03006756 0.79344499 0.00470213
v -0.03145299 0.79345942 -0.00472791
v -0.03123443 0.79361678 -0.00456274
v -0.03018828 0.79349896 -0.01363265
v -0.03009119 0.79346540 0.00440422
v -0.02770756 0.79346370 -0.00454252
v -0.02665405 0.79329749 0.01314317
v -0.02657075 0.79339233 0.00357558
v -0.02345060 0.79351058 0.01113714
v -0.02086515 0.79356200 0.02039815
v -0.01852831 0.79352167 0.01771655
v -0.01375699 0.79340367 0.02595604
v -0.01195912 0.79347251 0.02277251
v -0.00523143 0.79342432 0.02927405
v -0.00432735 0.79340584 0.02577996
v 0.00391841 0.79349694 0.03054665
v 0.00391636 0.79343748 0.02676390
v 0.01201679 0.79346571 0.02600723
v 0.01306697 0.79339063 0.02934324
v 0.01951649 0.79338852 0.02266346
v 0.02128891 0.79348503 0.02584070
v 0.02622296 0.79348285 0.01769118
v 0.02867203 0.79360216 0.02026839
v 0.03126564 0.79335386 0.01120086
v 0.03423166 0.79342170 0.00359152
v 0.03423703 0.79348158 0.01300491
v 0.03547491 0.79344251 -0.00457868
v 0.03782114 0.79355630 0.00451404
v -0.02645968 0.79344669 -0.02227660
v -0.02659447 0.79346476 -0.01275485
v -0.02361967 0.79347450 -0.02032360
v -0.02098435 0.79350346 -0.02956909
v -0.01854560 0.79356320 -0.02676065
v -0.01381122 0.79348860 -0.03501214
v -0.01186790 0.79344299 -0.03191879
v -0.00527828 0.79359354 -0.03847805
v -0.00422573 0.79362938 -0.03493795
v 0.00384773 0.79348897 -0.03607130
v 0.00381274 0.79350630 -0.03969190
v 0.01193565 0.79344717 -0.03515401
v 0.01301849 0.79350386 -0.03843613
v 0.01958424 0.79350426 -0.03170885
v 0.02159004 0.79347425 -0.03515496
v 0.02618351 0.79343106 -0.02674938
v 0.02876628 0.79352791 -0.02945076
v 0.03113730 0.79331784 -0.02024641
v 0.03435079 0.79335478 -0.01275909
v 0.03430006 0.79339369 -0.02217097
v 0.03774618 0.79358581 -0.01377386
v 0.03896559 0.79347673 -0.00465343
v 0.00385091 0.79345924 -0.03984397
v 0.01290802 0.55429241 -0.03854528
v 0.00379913 0.55438665 -0.03971773
v 0.01306306 0.79352984 -0.03852055
v 0.01302898 0.79348502 -0.03847229
v 0.00389037 0.79339120 -0.03978777
v 0.01278088 0.55432137 -0.03848665
v 0.00387130 0.55427265 -0.03964991
v 0.01304503 0.87797313 -0.03863598
v 0.00376081 0.79352318 -0.03968899
v 0.01294480 0.79353430 -0.03857344
v 0.00386772 0.87802156 -0.03976445
v 0.00402008 0.87781700 -0.03972161
v 0.01306342 0.87775245 -0.03852349
v 0.00385113 0.79364789 -0.03980178
v 0.01289494 0.79364707 -0.03871375
v -0.00507879 0.79333723 -0.03840165
v -0.00538515 0.55445139 -0.03851615
v -0.00539192 0.79353522 -0.03864141
v -0.00516572 0.55439712 -0.03857724
v -0.00539673 0.79354524 -0.03867144
v -0.00525382 0.87793271 -0.03853433
v -0.00520335 0.87783106 -0.03868034
v -0.00529715 0.79345956 -0.03864338
v -0.01375177 0.79352481 -0.03516692
v -0.01369070 0.55443628 -0.03508020
v -0.01381366 0.79358722 -0.03504965
v -0.01360206 0.55434067 -0.03501834
v -0.01353062 0.79333948 -0.03499517
v -0.01384717 0.87783383 -0.03516626
v -0.01371663 0.87790410 -0.03501886
v -0.01382236 0.79340209 -0.03492282
v -0.02099267 0.79344298 -0.02955870
v -0.02096445 0.55438498 -0.02953335
v -0.02104850 0.79351552 -0.02958505
v -0.02097596 0.55419634 -0.02941424
v -0.02100569 0.79352515 -0.02948897
v -0.02099230 0.87777930 -0.02937239
v -0.02109900 0.87793120 -0.02944979
v -0.02096499 0.79354911 -0.02932142
v -0.02661510 0.55443468 -0.02215624
v -0.02660687 0.79360106 -0.02226662
v -0.02660173 0.79358657 -0.02220012
v -0.02670633 0.55435860 -0.02218062
v -0.02673380 0.87798344 -0.02206760
v -0.02665151 0.79355833 -0.02229322
v -0.02646350 0.79351826 -0.02201350
v -0.02674756 0.87789285 -0.02214185
v -0.03011268 0.55450113 -0.01369837
v -0.03014105 0.79352587 -0.01357590
v -0.03014006 0.79340458 -0.01376907
v -0.03003789 0.55444075 -0.01353051
v -0.03015001 0.87789815 -0.01373557
v -0.03026880 0.79354758 -0.01366911
v -0.03012922 0.79346491 -0.01360413
v -0.03017731 0.87781791 -0.01362266
v -0.03142077 0.55443094 -0.00455099
v -0.03116413 0.79348584 -0.00448068
v -0.03127703 0.79349073 -0.00445093
v -0.03130703 0.55441554 -0.00457287
v -0.03144619 0.87786860 -0.00451904
v -0.03117085 0.79340707 -0.00452751
v -0.03123792 0.79357800 -0.00470130
v -0.03135143 0.87789027 -0.00460046
v -0.03018372 0.55429118 0.00462544
v -0.03005998 0.79354772 0.00450680
v -0.03003335 0.79359951 0.00436322
v -0.03007470 0.55449256 0.00455005
v -0.03007274 0.87781918 0.00450718
v -0.03013307 0.79339449 0.00444787
v -0.03007770 0.79343406 0.00433852
v -0.03015284 0.87785662 0.00453693
v -0.02656956 0.55450647 0.01311521
v -0.02669242 0.79329765 0.01297960
v -0.02659785 0.79354701 0.01298726
v -0.02646289 0.55442119 0.01296141
v -0.02652931 0.87778006 0.01295674
v -0.02650193 0.79344309 0.01302843
v -0.02670195 0.79347238 0.01307789
v -0.02676030 0.87789212 0.01290086
v -0.02098419 0.55428273 0.02038816
v -0.02094378 0.79355385 0.02037804
v -0.02104216 0.79348788 0.02024219
v -0.02100665 0.55428953 0.02038459
v -0.02104846 0.87788223 0.02018377
v -0.02092288 0.79336040 0.02035329
v -0.02099042 0.79347610 0.02027183
v -0.02116650 0.87782319 0.02032248
v -0.01376139 0.79354632 0.02598863
v -0.01377726 0.55430734 0.02593914
v -0.01380375 0.79343787 0.02573813
v -0.01376816 0.55434872 0.02579386
v -0.01368814 0.79347026 0.02587155
v -0.01365476 0.87781340 0.02588027
v -0.01359719 0.87779322 0.02581876
v -0.01374436 0.79339102 0.02591160
v -0.00516771 0.79347889 0.02948675
v -0.00534678 0.55433275 0.02937019
v -0.00519812 0.79339728 0.02932845
v -0.00530577 0.55435821 0.02938466
v -0.00507031 0.79362285 0.02928048
v -0.00526768 0.87779795 0.02929510
v -0.00532660 0.87774168 0.02947347
v -0.00525744 0.79358585 0.02936669
v 0.00384140 0.79348188 0.03065136
v 0.00376242 0.55446114 0.03060153
v 0.00387750 0.79344776 0.03056428
v 0.00374018 0.55431238 0.03054413
v 0.00380152 0.79347149 0.03046858
v 0.00374084 0.87780941 0.03066432
v 0.00389892 0.87802142 0.03059214
v 0.00381416 0.79342080 0.03064843
v 0.01278565 0.79339962 0.02947164
v 0.01304768 0.55418923 0.02939021
v 0.01295801 0.79340767 0.02937787
v 0.01304474 0.55436039 0.02932481
v 0.01298200 0.79345304 0.02946530
v 0.01283050 0.87772042 0.02934766
v 0.01302220 0.87792226 0.02950664
v 0.01288697 0.79341498 0.02941370
v 0.02153811 0.79344042 0.02573956
v 0.02147391 0.55436767 0.02578063
v 0.02138200 0.79334247 0.02578050
v 0.02145125 0.55428271 0.02580600
v 0.02138251 0.79341386 0.02579566
v 0.02141218 0.87791372 0.02590433
v 0.02149650 0.87777018 0.02587083
v 0.02149979 0.79356671 0.02578186
v 0.02858298 0.79353535 0.02029073
v 0.02876035 0.55440976 0.02017431
v 0.02875580 0.79354699 0.02025342
v 0.02862558 0.55437353 0.02035201
v 0.02864666 0.79354163 0.02026083
v 0.02875896 0.87786694 0.02018028
v 0.02879024 0.87783520 0.02027450
v 0.02882337 0.79346126 0.02031957
v 0.03417524 0.55444738 0.01301008
v 0.03437170 0.79346066 0.01301427
v 0.03437768 0.55430046 0.01297401
v 0.03411793 0.79348252 0.01288589
v 0.03443575 0.87791404 0.01295133
v 0.03431249 0.79341124 0.01297722
v 0.03424968 0.87800235 0.01286905
v 0.03438919 0.79335909 0.01293678
v 0.03775449 0.55441256 0.00449702
v 0.03790432 0.79350935 0.00452570
v 0.03778521 0.55428757 0.00452690
v 0.03782134 0.79350649 0.00457258
v 0.03777586 0.87775432 0.00464309
v 0.03777207 0.79350164 0.00449527
v 0.03782524 0.87771025 0.00449377
v 0.03771717 0.79340017 0.00461117
v 0.03889910 0.55439894 -0.00447944
v 0.03888779 0.79342394 -0.00461550
v 0.03902413 0.55428374 -0.00467517
v 0.03904823 0.79343174 -0.00467564
v 0.03904767 0.87783369 -0.00455674
v 0.03912894 0.79352548 -0.00445376
v 0.03903564 0.87784081 -0.00463784
v 0.03889613 0.79334556 -0.00476913
v 0.03787414 0.55440644 -0.01376971
v 0.03780225 0.79365549 -0.01382411
v 0.03788919 0.55439799 -0.01366555
v 0.03771556 0.79342793 -0.01374711
v 0.03783960 0.87770889 -0.01362035
v 0.03788266 0.79350378 -0.01364872
v 0.03797678 0.87790733 -0.01362692
v 0.03787401 0.79352291 -0.01374439
v 0.03422965 0.55434428 -0.02202781
v 0.03446072 0.79346325 -0.02226415
v 0.03434488 0.55425314 -0.02209269
v 0.03424819 0.79353614 -0.02227726
v 0.03441816 0.87787530 -0.02217562
v 0.03432847 0.79343843 -0.02202712
v 0.03444970 0.87775162 -0.02208140
v 0.03435885 0.79339133 -0.02213059
v 0.02880487 0.55449258 -0.02938697
v 0.02874544 0.79343571 -0.02936025
v 0.02863599 0.55452623 -0.02947658
v 0.02869950 0.79352029 -0.02941617
v 0.02871813 0.87786819 -0.02943728
v 0.02890148 0.79361117 -0.02937432
v 0.02885347 0.87780876 -0.02934674
v 0.02874575 0.79360164 -0.02934065
v 0.02143650 0.79359430 -0.03508179
v 0.02148349 0.55431666 -0.03521400
v 0.02136919 0.79352345 -0.03492824
v 0.02145382 0.55434692 -0.03514251
v 0.02153722 0.79344173 -0.03504147
v 0.02155267 0.87776507 -0.03505091
v 0.02143228 0.87795247 -0.03494223
v 0.02149506 0.79357529 -0.03504082
vn 0 1 0
vn 0 -1 0
vn 0 0 -1
vn 0.25881900959356163 0 -0.9659258358036645
vn -0.25881900959356163 0 0.9659258358036645
vn 0 0 1
vn -0.25881900959356163 0 -0.9659258358036645
vn 0.25881900959356163 0 0.9659258358036645
vn -0.5000000016387101 0 -0.866025402838329
vn 0.5000000016387101 0 0.866025402838329
vn -0.7071067811865476 0 -0.7071067811865476
vn 0.7071067811865476 0 0.7071067811865476
vn -0.866025402838329 0 -0.5000000016387101
vn 0.866025402838329 0 0.5000000016387101
vn -0.9659258358036645 0 -0.25881900959356163
vn 0.9659258358036645 0 0.25881900959356163
vn -1 0 0
vn 1 0 0
vn -0.9659258358036645 0 0.25881900959356163
vn 0.9659258358036645 0 -0.25881900959356163
vn -0.866025402838329 0 0.5000000016387101
vn 0.866025402838329 0 -0.5000000016387101
vn -0.7071067811865476 0 0.7071067811865476
vn 0.7071067811865476 0 -0.7071067811865476
vn -0.5000000016387101 0 0.866025402838329
vn 0.5000000016387101 0 -0.866025402838329
usemtl material_0_0
f 1//1 2//1 3//1
f 2//1 1//1 4//1
f 2//1 4//1 5//1
f 5//1 4//1 6//1
f 6//1 4//1 7//1
f 6//1 7//1 8//1
f 8//1 7//1 9//1
f 9//1 7//1 10//1
f 9//1 10//1 11//1
f 11//1 10//1 12//1
f 11//1 12//1 13//1
f 13//1 12//1 14//1
f 13//1 14//1 15//1
f 15//1 14//1 16//1
f 15//1 16//1 17//1
f 17//1 16//1 18//1
f 18//1 16//1 19//1
f 18//1 19//1 20//1
f 20//1 19//1 21//1
f 20//1 21//1 22//1
f 22//1 21//1 23//1
f 22//1 23//1 24//1
f 24//1 23//1 25//1
f 25//1 23//1 26//1
f 5//1 27//1 2//1
f 27//1 5//1 28//1
f 27//1 28//1 29//1
f 29//1 28//1 30//1
f 29//1 30//1 31//1
f 29//1 31//1 32//1
f 32//1 31//1 33//1
f 32//1 33//1 34//1
f 34//1 33//1 35//1
f 34//1 35//1 36//1
f 36//1 35//1 37//1
f 36//1 37//1 38//1
f 36//1 38//1 39//1
f 39//1 38//1 40//1
f 39//1 40//1 41//1
f 41//1 40//1 42//1
f 41//1 42//1 43//1
f 43//1 42//1 44//1
f 43//1 44//1 45//1
f 45//1 44//1 46//1
f 45//1 46//1 25//1
f 45//1 25//1 47//1
f 47//1 25//1 26//1
f 47//1 26//1 48//1
f 49//2 50//2 51//2
f 50//2 52//2 51//2
f 51//2 52//2 53//2
f 52//2 54//2 53//2
f 54//2 55//2 53//2
f 53//2 55//2 56//2
f 55//2 57//2 56//2
f 56//2 57//2 58//2
f 57//2 59//2 58//2
f 58//2 59//2 60//2
f 59//2 61//2 60//2
f 60//2 61//2 62//2
f 61//2 63//2 62//2
f 63//2 64//2 62//2
f 62//2 64//2 65//2
f 64//2 66//2 65//2
f 65//2 66//2 67//2
f 66//2 68//2 67//2
f 67//2 68//2 69//2
f 68//2 70//2 69//2
f 70//2 71//2 69//2
f 69//2 71//2 72//2
f 71//2 73//2 72//2
f 74//2 72//2 73//2
f 50//2 75//2 52//2
f 52//2 75//2 76//2
f 76//2 75//2 77//2
f 75//2 78//2 77//2
f 77//2 78//2 79//2
f 78//2 80//2 79//2
f 79//2 80//2 81//2
f 80//2 82//2 81//2
f 81//2 82//2 83//2
f 83//2 82//2 84//2
f 82//2 85//2 84//2
f 84//2 85//2 86//2
f 85//2 87//2 86//2
f 86//2 87//2 88//2
f 87//2 89//2 88//2
f 88//2 89//2 90//2
f 89//2 91//2 90//2
f 90//2 91//2 92//2
f 92//2 91//2 93//2
f 91//2 94//2 93//2
f 93//2 94//2 73//2
f 73//2 94//2 74//2
f 94//2 95//2 74//2
f 96//2 74//2 95//2
f 97//3 98//4 99//3
f 98//4 97//3 100//4
f 101//5 102//6 103//5
f 104//6 103//5 102//6
f 105//5 106//6 107//5
f 106//6 105//5 108//6
f 109//3 110//4 111//3
f 112//4 111//3 110//4
f 113//7 99//3 114//7
f 99//3 113//7 97//3
f 102//6 115//8 104//6
f 116//8 104//6 115//8
f 108//6 117//8 106//6
f 117//8 108//6 118//8
f 119//7 109//3 120//7
f 111//3 120//7 109//3
f 121//9 114//7 122//9
f 114//7 121//9 113//7
f 115//8 123//10 116//8
f 124//10 116//8 123//10
f 118//8 125//10 117//8
f 125//10 118//8 126//10
f 127//9 119//7 128//9
f 120//7 128//9 119//7
f 129//11 122//9 130//11
f 122//9 129//11 121//9
f 123//10 131//12 124//10
f 132//12 124//10 131//12
f 126//10 133//12 125//10
f 133//12 126//10 134//12
f 135//11 127//9 136//11
f 128//9 136//11 127//9
f 137//13 129//11 130//11
f 129//11 137//13 138//13
f 139//14 140//14 131//12
f 132//12 131//12 140//14
f 141//14 133//12 134//12
f 133//12 141//14 142//14
f 143//13 144//13 136//11
f 135//11 136//11 144//13
f 145//15 138//13 137//13
f 138//13 145//15 146//15
f 147//16 148//16 139//14
f 140//14 139//14 148//16
f 149//16 142//14 141//14
f 142//14 149//16 150//16
f 151//15 152//15 143//13
f 144//13 143//13 152//15
f 153//17 146//15 145//15
f 146//15 153//17 154//17
f 155//18 156//18 147//16
f 148//16 147//16 156//18
f 157//18 150//16 149//16
f 150//16 157//18 158//18
f 159//17 160//17 151//15
f 152//15 151//15 160//17
f 161//19 154//17 153//17
f 154//17 161//19 162//19
f 163//20 164//20 155//18
f 156//18 155//18 164//20
f 165//20 158//18 157//18
f 158//18 165//20 166//20
f 167//19 168//19 159//17
f 160//17 159//17 168//19
f 169//21 162//19 161//19
f 162//19 169//21 170//21
f 171//22 172//22 163//20
f 164//20 163//20 172//22
f 173//22 166//20 165//20
f 166//20 173//22 174//22
f 175//21 176//21 167//19
f 168//19 167//19 176//21
f 177//23 170//21 169//21
f 170//21 177//23 178//23
f 179//24 180//24 171//22
f 172//22 171//22 180//24
f 181//24 174//22 173//22
f 174//22 181//24 182//24
f 183//23 184//23 175//21
f 176//21 175//21 184//23
f 185//25 177//23 186//25
f 177//23 185//25 178//23
f 179//24 187//26 180//24
f 188//26 180//24 187//26
f 181//24 189//26 182//24
f 189//26 181//24 190//26
f 191//25 184//23 192//25
f 183//23 192//25 184//23
f 193//5 186//25 194//5
f 186//25 193//5 185//25
f 187//26 195//4 188//26
f 196//4 188//26 195//4
f 190//26 197//4 189//26
f 197//4 190//26 198//4
f 199//5 191//25 200//5
f 192//25 200//5 191//25
f 201//6 194//5 202//6
f 194//5 201//6 193//5
f 195//4 203//3 196//4
f 204//3 196//4 203//3
f 198//4 205//3 197//4
f 205//3 198//4 206//3
f 207//6 199//5 208//6
f 200//5 208//6 199//5
f 209//8 202//6 210//8
f 202//6 209//8 201//6
f 203//3 211//7 204//3
f 212//7 204//3 211//7
f 206//3 213//7 205//3
f 213//7 206//3 214//7
f 215//8 207//6 216//8
f 208//6 216//8 207//6
f 217//10 210//8 218//10
f 210//8 217//10 209//8
f 211//7 219//9 212//7
f 220//9 212//7 219//9
f 214//7 221//9 213//7
f 221//9 214//7 222//9
f 223//10 215//8 224//10
f 216//8 224//10 215//8
f 225//12 218//10 226//12
f 218//10 225//12 217//10
f 219//9 227//11 220//9
f 228//11 220//9 227//11
f 222//9 229//11 221//9
f 229//11 222//9 230//11
f 231//12 223//10 232//12
f 224//10 232//12 223//10
f 225//12 233//14 234//14
f 233//14 225//12 226//12
f 228//11 227//11 235//13
f 236//13 235//13 227//11
f 229//11 237//13 238//13
f 237//13 229//11 230//11
f 231//12 232//12 239//14
f 240//14 239//14 232//12
f 234//14 241//16 242//16
f 241//16 234//14 233//14
f 235//13 236//13 243//15
f 244//15 243//15 236//13
f 238//13 245//15 246//15
f 245//15 238//13 237//13
f 239//14 240//14 247//16
f 248//16 247//16 240//14
f 242//16 249//18 250//18
f 249//18 242//16 241//16
f 243//15 244//15 251//17
f 252//17 251//17 244//15
f 246//15 253//17 254//17
f 253//17 246//15 245//15
f 247//16 248//16 255//18
f 256//18 255//18 248//16
f 250//18 257//20 258//20
f 257//20 250//18 249//18
f 251//17 252//17 259//19
f 260//19 259//19 252//17
f 254//17 261//19 262//19
f 261//19 254//17 253//17
f 255//18 256//18 263//20
f 264//20 263//20 256//18
f 258//20 265//22 266//22
f 265//22 258//20 257//20
f 259//19 260//19 267//21
f 268//21 267//21 260//19
f 262//19 269//21 270//21
f 269//21 262//19 261//19
f 263//20 264//20 271//22
f 272//22 271//22 264//20
f 266//22 273//24 274//24
f 273//24 266//22 265//22
f 267//21 268//21 275//23
f 276//23 275//23 268//21
f 270//21 277//23 278//23
f 277//23 270//21 269//21
f 271//22 272//22 279//24
f 280//24 279//24 272//22
f 281//26 273//24 282//26
f 273//24 281//26 274//24
f 276//23 283//25 275//23
f 284//25 275//23 283//25
f 277//23 285//25 278//23
f 285//25 277//23 286//25
f 287//26 279//24 288//26
f 280//24 288//26 279//24
f 100//4 282//26 98//4
f 282//26 100//4 281//26
f 283//25 101//5 284//25
f 103//5 284//25 101//5
f 286//25 107//5 285//25
f 107//5 286//25 105//5
f 110//4 287//26 112//4
f 288//26 112//4 287//26
