# SSTK version 0.8.0
# 51
mtllib original_51.mtl
o #ID337
v -0.25668671 -0.44974529 0.17445176
v -0.25680009 0.30975642 -0.19118867
v -0.25674981 -0.44974959 -0.19130976
v -0.25658864 0.31149189 -0.19111855
v -0.25677626 0.31350250 -0.19071352
v -0.25671296 0.31517334 -0.19007743
v -0.25680302 0.31690017 -0.18927317
v -0.25651014 0.31826860 -0.18847090
v -0.25667369 0.31973202 -0.18720921
v -0.25659399 0.32086467 -0.18560939
v -0.25675738 0.32200971 -0.18426117
v -0.25684251 0.32285903 -0.18258574
v -0.25662807 0.32344239 -0.18067990
v -0.25665104 0.32372041 -0.17906505
v -0.25660324 0.32372855 -0.17718990
v -0.25671113 0.27176762 0.05075090
v -0.25668892 0.27086905 0.06877721
v -0.25662038 0.26794156 0.08629855
v -0.25669421 0.26331684 0.10333735
v -0.25671650 0.25634103 0.11984857
v -0.25677084 0.24753179 0.13540092
v -0.25666150 0.23709794 0.14985672
v -0.25670191 0.22490709 0.16307105
v -0.25680076 0.21129454 0.17451937
v -0.25661367 0.27406253 0.05271644
v -0.25682392 0.32379274 0.09013912
v -0.25677052 0.27402831 0.06021966
v -0.25678554 0.32387185 0.09000477
v -0.25676701 0.27419202 0.05266524
v -0.25670827 0.27349533 0.06934026
v -0.25665868 0.27056526 0.08702984
v -0.25669828 0.26551538 0.10416877
v -0.25671063 0.25817876 0.12070225
v -0.25668634 0.24909469 0.13623130
v -0.25659018 0.23809771 0.15053495
v -0.25664824 0.22536920 0.16335940
v -0.25670515 0.21139549 0.17442896
vn -1 0 0
usemtl material_0_0
f 1//1 2//1 3//1
f 2//1 1//1 4//1
f 4//1 1//1 5//1
f 5//1 1//1 6//1
f 6//1 1//1 7//1
f 7//1 1//1 8//1
f 8//1 1//1 9//1
f 9//1 1//1 10//1
f 10//1 1//1 11//1
f 11//1 1//1 12//1
f 12//1 1//1 13//1
f 13//1 1//1 14//1
f 14//1 1//1 15//1
f 15//1 1//1 16//1
f 16//1 1//1 17//1
f 17//1 1//1 18//1
f 18//1 1//1 19//1
f 19//1 1//1 20//1
f 20//1 1//1 21//1
f 21//1 1//1 22//1
f 22//1 1//1 23//1
f 23//1 1//1 24//1
f 15//1 25//1 26//1
f 25//1 15//1 16//1
f 27//1 28//1 29//1
f 28//1 27//1 30//1
f 28//1 30//1 31//1
f 28//1 31//1 32//1
f 28//1 32//1 33//1
f 28//1 33//1 34//1
f 28//1 34//1 35//1
f 28//1 35//1 36//1
f 28//1 36//1 37//1
