# SSTK version 0.8.0
# 26
mtllib original_26.mtl
o #ID60
v 0.04011725 0.91862947 0.20703269
v 0.04434263 0.90607173 0.21711744
v 0.04028509 0.90605597 0.20699234
v 0.04442620 0.91171132 0.21706880
v 0.04434180 0.91279173 0.21702681
v 0.04381942 0.91372303 0.21580236
v 0.04389023 0.91377927 0.21584377
v 0.04020508 0.91854505 0.20706720
v 0.04448722 0.91301858 0.21716253
v 0.04429952 0.91169980 0.21708307
v 0.04431247 0.90592886 0.21710261
v 0.04035870 0.90592558 0.20691383
v 0.03366339 0.92291074 0.19819669
v 0.03363532 0.90614777 0.19831806
v 0.03727988 0.92058388 0.20321211
v 0.03710088 0.92066701 0.20292418
v 0.03353843 0.92276464 0.19823935
v 0.03365585 0.90601470 0.19825093
v 0.04009596 0.91866770 0.20691830
v -0.03647287 0.91377890 0.21580750
v 0.04394960 0.91385853 0.21582444
v -0.03282598 0.91848100 0.20698392
v -0.02986568 0.92067985 0.20327110
v 0.03724327 0.92061793 0.20305673
v 0.03734534 0.92057475 0.20311806
v 0.04035429 0.91844632 0.20698411
v -0.02992057 0.92058627 0.20317220
v -0.03278271 0.91852027 0.20684763
v -0.03649826 0.91386242 0.21576804
v 0.04400508 0.91373208 0.21590698
v 0.04394702 0.91384181 0.21595185
v 0.04427467 0.93412721 0.21708016
v 0.04451749 0.91300419 0.21725807
v 0.04018196 0.91855502 0.20702381
v 0.04023474 0.93412633 0.20710022
v 0.04035704 0.93421262 0.20711920
v 0.04038075 0.91862219 0.20690758
v 0.04441863 0.93425821 0.21717153
v 0.04383898 0.91368404 0.21581865
v 0.04424852 0.91281725 0.21717527
v 0.04440426 0.91293547 0.21697409
v 0.03179130 0.90594386 0.22803293
v 0.04589303 0.90593397 0.22800927
v -0.02456259 0.90604520 0.22804333
v -0.03849214 0.90610467 0.22812314
v -0.03700762 0.91294109 0.21718115
v -0.03702699 0.91280254 0.21696515
v 0.04441316 0.91298309 0.21715104
v -0.03851393 0.90604927 0.22807956
v -0.02450330 0.90584462 0.22814749
v 0.03175934 0.90601793 0.22796579
v 0.04582945 0.90594946 0.22813422
v 0.04587347 0.90606667 0.22823323
v 0.04592842 0.90593149 0.22803832
v 0.04579728 0.90610731 0.22805285
v 0.04603681 0.90592754 0.22811307
v -0.03702470 0.90600254 0.21706284
v -0.02440410 0.90588438 0.22804050
v -0.03861585 0.90600145 0.22804747
v -0.02343378 0.90604286 0.22083050
v -0.02062678 0.90588912 0.21410322
v -0.03281612 0.90613621 0.20693316
v -0.01625063 0.90594294 0.20808635
v -0.01044699 0.90583583 0.20371501
v -0.02624958 0.90601924 0.19834647
v -0.00373693 0.90582886 0.20080259
v 0.00367367 0.90599897 0.19986121
v 0.03069621 0.90602494 0.22081425
v 0.04591811 0.90595810 0.22794669
v 0.03179042 0.90603051 0.22803365
v 0.04448556 0.90611066 0.21718895
v 0.02809070 0.90612377 0.21396820
v 0.04031814 0.90604561 0.20689058
v 0.02342693 0.90602739 0.20817045
v 0.01780336 0.90598654 0.20360655
v 0.03347033 0.90588663 0.19817505
v 0.01091975 0.90605036 0.20075839
v -0.01747907 0.90608052 0.19166351
v 0.02470731 0.90600490 0.19147220
v -0.00720871 0.90609372 0.18724239
v 0.01456380 0.90591058 0.18742678
v 0.00359722 0.90600486 0.18589854
v 0.00365786 0.90599194 0.18580155
v -0.00717477 0.90604918 0.18731778
v 0.01459425 0.90604658 0.18727903
v 0.02468446 0.90605490 0.19146311
v -0.01753040 0.90596993 0.19157225
v 0.03346486 0.90591036 0.19827606
v -0.02617469 0.90597285 0.19830988
v 0.00359145 0.90596698 0.19978261
v 0.01097735 0.90596935 0.20092795
v 0.01770044 0.90605921 0.20365987
v 0.04024286 0.90602335 0.20703957
v 0.02345485 0.90582674 0.20806149
v 0.02806960 0.90594841 0.21385583
v 0.04436153 0.90594457 0.21722329
v 0.03074701 0.90588987 0.22078762
v 0.04574756 0.90590381 0.22801781
v 0.03191354 0.90601129 0.22796625
v -0.00346315 0.90581935 0.20080300
v -0.01039198 0.90591010 0.20374943
v -0.03287053 0.90597649 0.20686072
v -0.01613809 0.90596125 0.20801111
v -0.02061534 0.90602563 0.21391987
v -0.03712829 0.90599089 0.21704688
v -0.02346137 0.90595094 0.22079268
v -0.02452100 0.90595918 0.22792436
v -0.03853942 0.90596089 0.22819711
v 0.02485018 0.90597057 0.19156259
v 0.02481330 0.92581648 0.19152583
v 0.02480662 0.92590688 0.19146826
v 0.02477049 0.90603511 0.19148282
v 0.03361579 0.92280664 0.19821327
v -0.02623182 0.92271827 0.19823336
v 0.02482898 0.92570549 0.19147212
v -0.01730706 0.92576181 0.19163331
v -0.01335805 0.92652994 0.18987740
v 0.02077305 0.92648679 0.18977096
v 0.02082201 0.92645676 0.18992813
v 0.02480017 0.92582868 0.19156126
v -0.01340847 0.92644126 0.18991629
v -0.01745613 0.92586933 0.19164765
v -0.02615396 0.92293190 0.19832149
v 0.03338326 0.92277014 0.19817751
v 0.03728746 0.92051534 0.20306142
v 0.03350978 0.92284121 0.19814118
v 0.03347699 0.93414800 0.19806145
v 0.03365462 0.93416618 0.19825086
v 0.03346793 0.92277359 0.19811841
v 0.03710265 0.92047039 0.20312928
v -0.03272670 0.93417902 0.20694418
v -0.02969485 0.92057889 0.20311418
v -0.03275068 0.91850614 0.20700505
v -0.02622122 0.92272451 0.19821349
v -0.02611309 0.93409103 0.19820275
v -0.02609804 0.93406091 0.19809362
v -0.03281401 0.93411180 0.20686060
v -0.02610135 0.92284937 0.19819718
v -0.02979763 0.92059626 0.20300869
v -0.03267613 0.91848918 0.20704162
v -0.03289468 0.91843760 0.20690039
v -0.02598056 0.90607020 0.19821879
v -0.03278353 0.90597323 0.20690424
v -0.02615955 0.92273892 0.19830535
v -0.02984706 0.92061661 0.20304483
v -0.02979818 0.92060301 0.20314135
v -0.03276039 0.91850605 0.20703408
v -0.02634475 0.92273922 0.19823933
v -0.02621867 0.90605659 0.19824439
v -0.03281506 0.90596782 0.20710534
v -0.03704648 0.93425157 0.21723992
v -0.03659887 0.91381742 0.21583413
v -0.03712233 0.91279998 0.21706311
v -0.03703646 0.93423494 0.21711318
v -0.03643329 0.91381693 0.21578587
v -0.03715318 0.91280271 0.21712747
v -0.03722709 0.91179547 0.21720888
v -0.03705646 0.90613264 0.21712037
v -0.03707795 0.91300404 0.21712160
v -0.03662752 0.91371990 0.21581901
v -0.03650139 0.91385096 0.21584090
v -0.03714131 0.91287397 0.21729934
v -0.03704589 0.91158148 0.21703023
v -0.03711768 0.90612217 0.21725260
v 0.04599735 0.93419123 0.22801360
v 0.04579821 0.90601162 0.22808036
v 0.04591136 0.93408816 0.22792912
v 0.04591810 0.90605274 0.22814832
v 0.04021978 0.94818881 0.20688772
v 0.04451096 0.93412286 0.21705372
v 0.04026023 0.93411950 0.20697868
v 0.04431057 0.94827911 0.21706421
v 0.04449175 0.94819214 0.21714277
v 0.04025551 0.94828694 0.20692285
v 0.04426000 0.93404111 0.21716921
v 0.04014614 0.93416152 0.20695745
v -0.03844891 0.90589351 0.22811225
v -0.03844057 0.90599170 0.22823008
v -0.03847978 0.93405521 0.22805654
v -0.03854277 0.90609758 0.22808981
v -0.03843362 0.93405076 0.22802612
v -0.03844079 0.90585621 0.22815631
v -0.03846083 0.92788101 0.18587708
v -0.02460225 0.90590698 0.22809900
v -0.03853236 0.90602160 0.22798099
v 0.03182327 0.90591560 0.22806334
v 0.04587237 0.90596404 0.22796817
v 0.04582416 0.92791906 0.18578315
v 0.00351697 0.92798103 0.18581002
v 0.00374543 0.92788885 0.18592740
v -0.03836967 0.92804217 0.18587637
v 0.04589892 0.92799329 0.18591401
v 0.04597838 0.90593413 0.22810089
v 0.03177458 0.90614083 0.22790220
v -0.02444507 0.90613846 0.22803978
v -0.03849004 0.90586006 0.22789394
v -0.03861213 0.94802237 0.22811863
v 0.04581575 0.93418806 0.22814742
v 0.04587716 0.94817020 0.22812512
v 0.04599570 0.90604293 0.22802221
v 0.03189495 0.90594507 0.22815616
v -0.02448666 0.90609471 0.22804148
v -0.03856946 0.90586550 0.22809713
v -0.03849018 0.93413699 0.22811996
v -0.03866631 0.93410585 0.22797299
v -0.03846248 0.94825269 0.22803216
v -0.03850065 0.90586329 0.22803512
v -0.02449467 0.90603207 0.22799499
v 0.03189808 0.90598265 0.22803854
v 0.04590584 0.90605799 0.22811210
v 0.04584173 0.93405302 0.22813144
v 0.04600024 0.94824650 0.22793297
v -0.00726081 0.90608573 0.26879882
v 0.01460862 0.90602712 0.26873352
v 0.00367002 0.90590394 0.27028333
v -0.01748670 0.90601961 0.26453276
v 0.02477249 0.90594451 0.26456100
v -0.02608164 0.90599099 0.25787390
v 0.03353534 0.90584902 0.25785892
v 0.00365378 0.90593913 0.25630779
v -0.00358263 0.90602705 0.25522875
v -0.03288297 0.90596152 0.24903946
v -0.01033467 0.90608862 0.25257297
v -0.01614717 0.90601313 0.24793524
v -0.03710915 0.90605381 0.23914901
v -0.02072893 0.90600386 0.24213419
v -0.02339893 0.90611507 0.23528208
v -0.03846130 0.90597128 0.22814664
v -0.02450461 0.90599937 0.22814965
v 0.01106862 0.90585710 0.25524997
v 0.04028625 0.90596403 0.24924746
v 0.01785165 0.90606391 0.25246108
v 0.02358161 0.90601140 0.24790334
v 0.04443199 0.90612845 0.23887190
v 0.02808212 0.90607066 0.24204702
v 0.03078865 0.90584627 0.23530274
v 0.04577758 0.90592767 0.22812275
v 0.03186079 0.90613129 0.22806995
v 0.03182034 0.90609160 0.22808841
v 0.03090054 0.90613468 0.23531765
v 0.04599033 0.90599751 0.22803796
v 0.04453479 0.90588339 0.23889637
v 0.02815785 0.90606892 0.24222356
v 0.02364921 0.90605750 0.24810424
v 0.04025410 0.90587822 0.24913857
v 0.01778505 0.90613133 0.25239706
v 0.01099717 0.90597912 0.25524254
v 0.00374094 0.90598484 0.25609735
v 0.03346838 0.90598815 0.25777424
v -0.02432557 0.90600203 0.22809950
v -0.03844149 0.90597883 0.22811437
v -0.02343693 0.90593218 0.23525743
v -0.03699936 0.90603009 0.23897815
v -0.02072715 0.90598542 0.24225071
v -0.01631757 0.90608674 0.24798206
v -0.03271630 0.90594730 0.24924513
v -0.01053267 0.90613226 0.25252549
v -0.00341607 0.90597366 0.25511464
v -0.02617565 0.90590443 0.25795686
v 0.02485664 0.90590074 0.26456671
v -0.01745101 0.90583435 0.26451392
v 0.01446869 0.90602758 0.26887137
v -0.00725815 0.90596918 0.26886794
v 0.00376214 0.90582286 0.27027525
v -0.02354634 0.90591284 0.22083404
v 0.03182762 0.90604323 0.22793582
v -0.02436156 0.90608979 0.22793556
v 0.03077305 0.90591903 0.22077844
v -0.02050140 0.90592971 0.21399529
v 0.02794795 0.90607293 0.21383588
v 0.02358611 0.90615144 0.20812120
v -0.01634622 0.90602515 0.20808280
v -0.01046013 0.90600751 0.20386084
v 0.01771168 0.90600682 0.20385634
v 0.01097729 0.90598781 0.20088234
v -0.00348106 0.90599410 0.20098139
v 0.00365091 0.90588416 0.19989976
v 0.00360962 0.90600808 0.19995253
v -0.00352421 0.90596028 0.20073266
v 0.01116472 0.90590186 0.20081151
v -0.01040701 0.90591329 0.20371984
v 0.01791944 0.90587087 0.20352832
v 0.02350173 0.90582176 0.20829345
v -0.01621070 0.90586832 0.20821684
v -0.02073815 0.90602302 0.21401779
v 0.02790029 0.90605786 0.21402521
v 0.03090280 0.90599146 0.22066806
v -0.02339301 0.90596358 0.22066116
v 0.03183018 0.90595292 0.22812491
v -0.02444442 0.90592918 0.22802467
v -0.00367314 0.90604190 0.25535856
v 0.01100613 0.90603910 0.25513270
v 0.00356064 0.90598212 0.25622963
v -0.01052376 0.90604365 0.25235609
v 0.01792476 0.90598085 0.25240139
v -0.01617427 0.90603934 0.24806040
v 0.02373428 0.90587301 0.24801728
v 0.02798741 0.90609526 0.24208462
v -0.02076830 0.90592744 0.24216177
v 0.03084831 0.90599739 0.23529407
v -0.02333968 0.90598839 0.23545366
v -0.02337778 0.90603877 0.23525592
v 0.03092455 0.90596125 0.23545478
v -0.02074761 0.90603160 0.24222019
v 0.02809161 0.90599213 0.24211536
v -0.01631131 0.90609227 0.24792218
v 0.02352177 0.90601221 0.24803473
v 0.01780617 0.90608772 0.25252400
v -0.01034841 0.90590578 0.25230176
v 0.01084176 0.90595941 0.25518777
v -0.00360134 0.90598638 0.25521751
v 0.00361444 0.90601985 0.25610393
v -0.03863983 0.90600591 0.22795942
v -0.03838363 0.90606344 0.22816380
v -0.01755549 0.92569886 0.19158992
v -0.01734935 0.90619140 0.19138515
v -0.01746031 0.92559647 0.19131937
v -0.01730165 0.90615841 0.19144072
v -0.00720043 0.92740794 0.18719741
v -0.00725503 0.90593433 0.18730536
v -0.01344830 0.92660442 0.18988579
v -0.01353848 0.92643278 0.18989829
v -0.00712543 0.92735214 0.18730376
v -0.00723182 0.90591797 0.18724004
v 0.00373931 0.92786491 0.18593404
v 0.00364019 0.90588950 0.18578327
v 0.00358591 0.92792230 0.18582894
v 0.00359007 0.90586084 0.18591057
v 0.01465835 0.92733889 0.18719904
v 0.01467399 0.90590290 0.18720678
v 0.01462910 0.92737071 0.18730351
v 0.01458770 0.90609430 0.18736366
v 0.02083982 0.92643672 0.18977531
v 0.02079112 0.92645194 0.18975360
v 0.02467974 0.92568324 0.19152591
v 0.02470027 0.93406108 0.19152097
v 0.02481241 0.93421116 0.19155913
v 0.02467522 0.92565444 0.19160701
v -0.00729873 0.92751611 0.18720770
v 0.01467039 0.92728332 0.18722031
v 0.00371365 0.92783976 0.18589731
v 0.00373423 0.92787768 0.18592561
v 0.01459770 0.92735703 0.18728818
v -0.00717261 0.92746268 0.18737664
v -0.00708319 0.92746524 0.18738661
v -0.01740868 0.93408367 0.19142226
v -0.00728283 0.93406481 0.18731342
v -0.01343018 0.92639625 0.18988310
v -0.01736383 0.92579562 0.19147849
v -0.01737663 0.92581740 0.19163292
v -0.01342423 0.92646842 0.18991471
v -0.01733453 0.93414143 0.19141018
v -0.00726429 0.92751428 0.18719225
v -0.00725122 0.93406377 0.18724876
v 0.01460858 0.93404446 0.18724394
v 0.02070711 0.92656176 0.18980432
v 0.01449318 0.92730421 0.18719828
v 0.01458103 0.92737134 0.18720077
v 0.02068134 0.92644804 0.18981875
v 0.01456873 0.93416272 0.18730187
v 0.03360699 0.94830712 0.19821388
v 0.03344348 0.93414200 0.19815160
v 0.03340925 0.94810702 0.19819325
v 0.03352125 0.93407905 0.19834531
v -0.03284231 0.94812328 0.20690224
v -0.02612572 0.93399519 0.19827037
v -0.03278158 0.93411777 0.20698077
v -0.02609469 0.94808050 0.19834078
v -0.02620396 0.94816837 0.19834601
v -0.03276414 0.94809135 0.20682736
v -0.02624119 0.93412700 0.19829494
v -0.03272534 0.93416860 0.20695333
v -0.03706809 0.94810631 0.21719644
v -0.03696468 0.93418352 0.21707075
v -0.03696655 0.94820446 0.21705973
v -0.03712798 0.93418011 0.21718166
v 0.04587672 0.93415600 0.22808526
v 0.04447077 0.90606227 0.23893119
v 0.04587901 0.90595059 0.22795162
v 0.04437652 0.95636718 0.23888551
v 0.04582383 0.94809468 0.22813877
v 0.04590362 0.96314054 0.22802106
v 0.04479947 0.95760743 0.23705905
v 0.04468451 0.95767665 0.23699773
v 0.04569718 0.96315961 0.22794619
v 0.04440824 0.95627216 0.23900347
v 0.04588291 0.94828886 0.22806313
v 0.04591383 0.93420420 0.22796991
v 0.04434768 0.90608455 0.23911840
v 0.04596562 0.90590006 0.22809672
v 0.04580719 0.92795960 0.18577849
v 0.04599798 0.93410415 0.22814127
v 0.04583591 0.90604000 0.22815728
v 0.04581045 0.93151498 0.17617143
v 0.04580555 0.93417592 0.16693503
v 0.04585635 0.93546718 0.16231692
v 0.04588504 0.94814679 0.22815738
v 0.04576150 0.93830084 0.14808576
v 0.04592913 0.94026914 0.13371119
v 0.04585480 0.94096726 0.12108217
v 0.04587429 0.99042079 0.12109590
v 0.04603582 0.96327479 0.22809081
v 0.04577841 0.96420164 0.22621636
v 0.04593695 0.97008940 0.21524700
v 0.04594498 0.97522798 0.20355077
v 0.04605202 0.97980542 0.19195996
v 0.04582266 0.98333052 0.17999894
v 0.04583626 0.98638481 0.16772739
v 0.04586101 0.98828111 0.15528316
v 0.04574499 0.98986348 0.14265802
v 0.04590774 0.99027897 0.13018111
v 0.04587122 0.99045967 0.13020071
v 0.04590833 0.99039762 0.12106235
v 0.04577068 0.98999129 0.14273941
v 0.04582131 0.98844622 0.15520538
v 0.04591610 0.98628496 0.16763258
v 0.04587692 0.98331188 0.17996220
v 0.04599760 0.97968423 0.19184359
v 0.04603761 0.97532855 0.20369214
v 0.04572401 0.97013542 0.21504152
v 0.04577997 0.96432356 0.22622222
v 0.04598231 0.96309794 0.22806008
v 0.04596142 0.94819324 0.22809859
v 0.04583308 0.94111810 0.12099986
v 0.04593987 0.94025607 0.13392158
v 0.04588553 0.93820909 0.14809632
v 0.04584852 0.93523759 0.16217532
v 0.04597912 0.93407225 0.22804694
v 0.04596735 0.93410777 0.16691947
v 0.04596331 0.93145232 0.17606332
v 0.04599558 0.92798227 0.18570423
v 0.04602895 0.90589851 0.22812330
v 0.04590729 0.93421482 0.22795670
v 0.04581828 0.94820255 0.22812359
v 0.04584698 0.94818857 0.22804241
v 0.04594979 0.93411958 0.22791601
v 0.04457751 0.94808927 0.21718755
v -0.03856038 0.94826479 0.22813007
v 0.04589729 0.94808838 0.22803336
v -0.03701823 0.94815273 0.21727853
v 0.04006804 0.94823112 0.20705864
v -0.03280085 0.94833097 0.20699793
v 0.03352240 0.94817697 0.19810631
v -0.02614272 0.94832787 0.19808457
v 0.02480929 0.94825987 0.19135994
v -0.01735723 0.94813867 0.19139190
v 0.01463435 0.94820668 0.18727955
v -0.00735884 0.94812519 0.18720970
v 0.00380120 0.94819597 0.18593434
v 0.00368019 0.94819626 0.18574095
v 0.01465714 0.94807298 0.18731095
v -0.00712501 0.94813602 0.18734851
v -0.01744889 0.94819526 0.19147222
v 0.02495886 0.94808319 0.19148078
v -0.02626863 0.94825264 0.19816270
v 0.03367037 0.94832169 0.19830190
v -0.03286884 0.94828923 0.20688804
v 0.04035601 0.94818271 0.20692333
v -0.03710192 0.94819363 0.21711024
v 0.04442443 0.94810302 0.21707401
v -0.03861019 0.94820261 0.22814260
v 0.04583731 0.94806506 0.22803733
v -0.03867875 0.93407810 0.22824091
v -0.03850792 0.92809515 0.18582116
v -0.03850273 0.90609677 0.22793851
v -0.03860739 0.93149748 0.17620987
v -0.03843215 0.93413801 0.16689336
v -0.03847888 0.94821966 0.22805564
v -0.03845632 0.93536586 0.16238855
v -0.03855301 0.93820261 0.14811341
v -0.03839157 0.94028310 0.13391671
v -0.03860326 0.94088985 0.12104655
v -0.03848897 0.99037552 0.12107503
v -0.03857452 0.96318961 0.22808277
v -0.03862299 0.96429394 0.22618767
v -0.03853643 0.97026168 0.21514299
v -0.03847953 0.97529733 0.20373227
v -0.03860119 0.97966810 0.19191422
v -0.03840549 0.98336911 0.17992694
v -0.03864964 0.98623701 0.16781715
v -0.03851882 0.98838967 0.15514885
v -0.03848940 0.98984162 0.14283853
v -0.03848175 0.99050554 0.13036368
v -0.03869129 0.99029860 0.13010242
v -0.03868013 0.98971882 0.14279481
v -0.03839604 0.99045020 0.12102613
v -0.03868075 0.98851673 0.15526797
v -0.03848920 0.98628730 0.16751091
v -0.03853830 0.98323412 0.17992892
v -0.03847183 0.97967665 0.19195862
v -0.03844596 0.97525916 0.20370335
v -0.03859005 0.97012140 0.21509986
v -0.03845988 0.96429393 0.22637156
v -0.03858311 0.96303136 0.22817384
v -0.03845548 0.94805171 0.22810454
v -0.03849576 0.94098614 0.12097838
v -0.03857874 0.94008430 0.13384079
v -0.03849400 0.93832285 0.14821002
v -0.03853549 0.93539466 0.16230870
v -0.03861489 0.93407043 0.16687093
v -0.03861996 0.93406227 0.22814838
v -0.03850098 0.93152093 0.17624097
v -0.03855773 0.92780548 0.18585734
v -0.03844965 0.90592083 0.22823481
v -0.03716428 0.95623476 0.23910338
v -0.03841275 0.90595033 0.22803849
v -0.03711323 0.90595023 0.23903177
v -0.03849200 0.93420328 0.22808465
v -0.03838337 0.94802500 0.22801354
v -0.03860644 0.96325553 0.22791372
v -0.03727524 0.95752865 0.23698992
v -0.03730491 0.95763695 0.23719763
v -0.03700585 0.95625294 0.23891581
v -0.03848865 0.96306332 0.22817601
v -0.03856501 0.94804624 0.22807469
v -0.03845962 0.93422471 0.22803441
v -0.03864884 0.90608290 0.22811800
v -0.03708929 0.90604983 0.23901524
v -0.03843183 0.94814056 0.22808662
v -0.03870715 0.93418908 0.22796872
v -0.03843298 0.94816706 0.22814119
v -0.03851732 0.93402519 0.22804475
v -0.03854957 0.93151315 0.17620253
v 0.00379469 0.92811449 0.18587225
v -0.03858963 0.92787011 0.18589959
v 0.04579001 0.92788511 0.18581586
v 0.04598791 0.93128570 0.17624182
v 0.04583250 0.93140463 0.17623466
v -0.03865681 0.93154541 0.17614781
v 0.04589647 0.92802744 0.18589256
v 0.00374896 0.92790639 0.18584748
v -0.03850629 0.92807587 0.18595188
v 0.04022866 0.90597349 0.24906374
v 0.04020703 0.94898251 0.24909306
v 0.04105076 0.95051762 0.24736918
v 0.04096694 0.95042176 0.24736063
v 0.04019052 0.94902556 0.24916384
v 0.04035511 0.90591948 0.24920744
v 0.03349432 0.90601758 0.25803284
v 0.03363894 0.94198951 0.25797921
v 0.03406192 0.94268348 0.25718738
v 0.03416403 0.94263450 0.25717091
v 0.03359449 0.94192173 0.25789474
v 0.03340041 0.90610695 0.25789238
v 0.02484880 0.93584783 0.26476105
v 0.02490268 0.90587980 0.26442589
v 0.02477423 0.90596811 0.26462995
v 0.02475662 0.93585595 0.26459518
v 0.02027928 0.93417049 0.26660134
v 0.01467855 0.90607433 0.26873739
v 0.01463290 0.93416379 0.26882796
v 0.01458863 0.93409742 0.26891973
v 0.02017951 0.93416315 0.26648613
v 0.01467177 0.90597138 0.26870764
v 0.00372979 0.93408338 0.27019973
v 0.00372213 0.90594916 0.27010240
v 0.00366797 0.90610368 0.27024130
v 0.00365028 0.93424167 0.27020425
v -0.00732875 0.90600738 0.26863647
v -0.00718196 0.93398610 0.26880055
v -0.00716892 0.93412496 0.26876830
v -0.00726423 0.90591267 0.26884004
v -0.01755443 0.90592563 0.26461238
v -0.01284318 0.93416214 0.26643245
v -0.01731290 0.93585138 0.26466129
v -0.01727039 0.93590082 0.26472532
v -0.01281490 0.93414022 0.26655772
v -0.01731780 0.90608381 0.26472095
v -0.02615436 0.94182790 0.25773008
v -0.02624400 0.90597989 0.25777804
v -0.02614426 0.90599041 0.25793881
v -0.02613034 0.94187647 0.25795223
v -0.03288514 0.90599207 0.24903123
v -0.03297759 0.94884524 0.24918687
v -0.02679658 0.94255467 0.25728840
v -0.02671651 0.94248094 0.25725327
v -0.03274651 0.94902635 0.24909303
v -0.03281911 0.90599427 0.24926661
v -0.03356642 0.95042857 0.24740455
v -0.03353515 0.95039566 0.24724921
v 0.00369945 0.93397958 0.18605271
v 0.00375860 0.92797765 0.18581041
v 0.00382003 0.93416196 0.18584679
v 0.00373574 0.92793160 0.18579905
v 0.02491309 0.93404763 0.19151947
v 0.02489756 0.94827276 0.19164579
v 0.02474467 0.94830349 0.19144129
v 0.02474969 0.93411783 0.19156996
v -0.01750245 0.93404533 0.19159121
v -0.00719883 0.94817923 0.18736622
v -0.00729430 0.93398710 0.18726229
v -0.01745146 0.94810989 0.19164480
v -0.01736255 0.94836976 0.19142248
v -0.01742415 0.93409248 0.19164549
v -0.00709676 0.94821303 0.18740538
v -0.00707641 0.93409472 0.18745378
v 0.01444247 0.93409201 0.18742969
v 0.01463472 0.94812220 0.18737979
v 0.01468072 0.94811965 0.18729117
v 0.01468844 0.93423693 0.18745301
v -0.03858099 0.96324073 0.22817740
v 0.04469923 0.95776032 0.23695451
v -0.03738826 0.95770135 0.23702691
v 0.04584811 0.96315766 0.22803766
v -0.03844815 0.96427707 0.22630723
v 0.04599408 0.96419188 0.22629551
v 0.04593002 0.96421510 0.22616948
v -0.03866342 0.96425384 0.22631655
v 0.04594819 0.96317497 0.22808123
v -0.03854568 0.96301902 0.22799498
v 0.04471658 0.95772591 0.23703784
v -0.03726853 0.95759448 0.23702717
v -0.03708293 0.95626075 0.23898443
v 0.04096725 0.95055458 0.24738848
v -0.03378355 0.95042294 0.24732887
v 0.04441973 0.95639600 0.23888997
v -0.03708119 0.95644171 0.23889607
v 0.04439247 0.95629450 0.23899342
v 0.04093242 0.95031414 0.24734090
v -0.03353127 0.95036709 0.24735810
v -0.03854540 0.93422630 0.16676863
v 0.04604825 0.93150985 0.17630742
v -0.03845147 0.93158119 0.17613495
v 0.04606626 0.93397621 0.16676711
v 0.04579047 0.93399498 0.16684137
v -0.03862038 0.93421613 0.16670438
v 0.04591435 0.93133380 0.17633185
v -0.03855824 0.93133933 0.17623149
v 0.04591677 0.93534306 0.16229035
v -0.03853972 0.93425461 0.16683663
v 0.04577384 0.93426232 0.16685473
v -0.03847095 0.93528996 0.16215768
v -0.03840147 0.93539972 0.16244249
v 0.04585050 0.93545187 0.16230856
v -0.03837272 0.93412056 0.16666942
v 0.04591443 0.93419570 0.16674916
v 0.04599177 0.93828752 0.14828527
v -0.03844684 0.93840342 0.14814516
v -0.03843334 0.93837000 0.14825125
v 0.04580793 0.93837450 0.14811749
v 0.04589131 0.94026137 0.13379644
v -0.03843315 0.94025641 0.13373996
v -0.03841462 0.94017528 0.13366277
v 0.04583735 0.94022128 0.13369283
v 0.04591386 0.94096603 0.12106827
v -0.03852701 0.94100172 0.12105696
v -0.03854813 0.94118814 0.11934506
v 0.04605952 0.94123858 0.11944399
v 0.04590784 0.94121395 0.11929697
v 0.04594769 0.94094479 0.12099696
v -0.03854478 0.94099164 0.11927885
v -0.03852091 0.94102049 0.12112906
v 0.04668179 0.99048806 0.10589969
v 0.04593118 0.94113096 0.11938583
v 0.04685211 0.94093203 0.10573121
v 0.04585337 0.99034871 0.12101393
v 0.04599373 0.94103547 0.12084964
v 0.04673332 0.99038934 0.10592257
v 0.04584658 0.94123198 0.11942023
v 0.04591414 0.99033549 0.12101610
v 0.04604267 0.94097057 0.12088071
v 0.04671920 0.94095091 0.10571189
v 0.04593119 0.99042960 0.12107199
v -0.03865149 0.99032020 0.13016093
v 0.04575916 0.99037996 0.13023862
v -0.03843062 0.99028727 0.12106934
v 0.04672428 0.99035851 0.10577891
v -0.03928690 0.99038275 0.10583807
v 0.04808754 0.99039935 0.09815560
v -0.04065008 0.99037454 0.09831894
v 0.04936928 0.99041207 0.09069821
v -0.04198408 0.99037786 0.09073112
v 0.05146121 0.99053250 0.08330042
v -0.04402322 0.99041922 0.08321401
v 0.05374383 0.99043461 0.07613413
v -0.04660101 0.99041455 0.07612657
v 0.05674807 0.99033975 0.06888890
v -0.04940108 0.99037747 0.06885107
v 0.05999708 0.99033738 0.06208103
v -0.05270902 0.99025153 0.06201682
v 0.06366185 0.99027463 0.05532704
v -0.05610947 0.99043125 0.05528350
v 0.06760509 0.99030590 0.04881194
v -0.06014074 0.99035838 0.04885935
v 0.07013623 0.99035482 0.04532085
v -0.06265200 0.99046509 0.04533287
v 0.07101005 0.99031730 0.04396398
v -0.06469488 0.99025314 0.04248586
v 0.07197275 0.99040517 0.04264903
v 0.07681746 0.99057103 0.03667091
v -0.06946887 0.99049420 0.03649487
v 0.08520033 0.99032894 0.01618284
v -0.07422119 0.99029204 0.02456927
v -0.07801982 0.99020399 0.01618067
v 0.08802382 0.99035013 -0.00563611
v -0.08082497 0.99039367 -0.00563304
v 0.08508583 0.99035183 -0.02756839
v -0.07781065 0.99030411 -0.02751708
v 0.07680644 0.99035059 -0.04773041
v -0.06934927 0.99035486 -0.04778505
v 0.06320802 0.99034329 -0.06525838
v -0.05609729 0.99041151 -0.06517355
v 0.04580062 0.99037586 -0.07865291
v -0.03856582 0.99035263 -0.07866324
v 0.02550476 0.99053403 -0.08715039
v -0.01814441 0.99033600 -0.08713894
v 0.00349128 0.99041918 -0.08983752
v 0.00378530 0.99026661 -0.09000711
v 0.02569410 0.99040200 -0.08727690
v -0.01819142 0.99053210 -0.08706322
v -0.03860891 0.99026130 -0.07874505
v 0.04582675 0.99034007 -0.07868608
v -0.05599681 0.99040221 -0.06526319
v 0.06333916 0.99042875 -0.06530754
v -0.06947798 0.99043957 -0.04769426
v 0.07691319 0.99038415 -0.04773196
v -0.07783699 0.99029220 -0.02729311
v 0.08528916 0.99038834 -0.02744067
v -0.08076937 0.99027262 -0.00553998
v 0.08813806 0.99028114 -0.00577026
v -0.07798213 0.99031828 0.01637451
v 0.08522935 0.99023686 0.01625114
v -0.07433728 0.99043506 0.02469297
v -0.06929692 0.99028974 0.03656833
v 0.07672216 0.99040695 0.03664061
v -0.06467566 0.99037875 0.04274828
v 0.07202093 0.99039325 0.04253453
v 0.07107728 0.99044948 0.04397077
v -0.06268507 0.99031355 0.04541970
v 0.06999379 0.99027829 0.04533528
v -0.06006526 0.99031954 0.04896313
v 0.06773036 0.99034696 0.04869765
v -0.05618657 0.99025981 0.05544561
v 0.06369987 0.99058054 0.05525052
v -0.05260731 0.99039695 0.06221973
v 0.06003158 0.99036761 0.06208402
v -0.04928089 0.99038308 0.06894579
v 0.05668801 0.99053868 0.06887408
v -0.04634590 0.99037466 0.07597602
v 0.05392268 0.99043630 0.07607764
v -0.04410186 0.99043110 0.08326282
v 0.05135784 0.99033405 0.08320579
v -0.04203377 0.99041000 0.09072076
v 0.04943704 0.99036386 0.09060140
v -0.04036056 0.99041284 0.09826636
v 0.04786767 0.99032899 0.09822369
v -0.03950999 0.99035342 0.10586522
v 0.04677793 0.99036587 0.10573672
v -0.03856071 0.99040734 0.12100189
v 0.04586888 0.99030322 0.12093630
v -0.03852514 0.99028585 0.13013349
v 0.04586855 0.99036876 0.13026497
v -0.03860865 0.99048083 0.13002675
v 0.04595173 0.98989982 0.14279995
v -0.03853153 0.98992194 0.14285876
v 0.04599985 0.99047827 0.13021931
v 0.04577520 0.99047511 0.13028366
v -0.03850117 0.99047192 0.13026809
v 0.04604092 0.98972387 0.14280725
v -0.03844967 0.98969605 0.14261963
v 0.04577325 0.98839418 0.15526131
v -0.03838028 0.98842722 0.15510282
v 0.04585934 0.98845980 0.15533979
v -0.03855561 0.98846576 0.15518070
v 0.04577360 0.98620721 0.16762341
v -0.03862712 0.98626481 0.16777836
v 0.04588630 0.98638526 0.16763942
v -0.03868696 0.98629908 0.16777084
v 0.04596327 0.98324753 0.17977398
v -0.03846753 0.98348783 0.17988490
v 0.04590761 0.98354950 0.17976799
v -0.03836684 0.98332071 0.18006259
v 0.04587479 0.97981830 0.19210521
v -0.03844426 0.97957811 0.19189020
v 0.04582666 0.97959517 0.19193803
v -0.03840400 0.97960131 0.19199200
v 0.04589008 0.97531803 0.20361927
v -0.03856102 0.97523274 0.20363467
v 0.04582238 0.97540962 0.20361097
v -0.03856518 0.97528801 0.20376594
v 0.04603957 0.97003907 0.21514324
v -0.03866844 0.97020112 0.21502060
v 0.04592851 0.97017089 0.21505999
v -0.03849456 0.97007050 0.21528333
v 0.00375192 0.93405095 0.18590158
v 0.00361735 0.94827190 0.18573231
v 0.00363669 0.94814006 0.18594149
v 0.00356199 0.93412133 0.18592265
v -0.03845765 0.99036553 0.12086799
v -0.03875785 0.94101980 0.11933255
v -0.03840217 0.94103616 0.12103618
v -0.03957579 0.99025144 0.10581061
v -0.03953485 0.94082126 0.10576104
v -0.03859884 0.99043344 0.12108177
v -0.03856446 0.94100990 0.11927891
v -0.03947234 0.99042018 0.10588549
v -0.03935985 0.94092977 0.10579612
v -0.03852805 0.94099855 0.12105590
v -0.03300959 0.94912887 0.24906697
v 0.03407780 0.94257824 0.25718206
v -0.02664566 0.94252062 0.25715233
v 0.04012173 0.94887025 0.24912694
v -0.03291422 0.94902803 0.24921804
v 0.04024264 0.94901115 0.24921069
v 0.03427450 0.94260110 0.25709440
v -0.02675738 0.94271476 0.25722733
v -0.01746485 0.93590119 0.26454108
v 0.02035542 0.93415155 0.26639455
v -0.01283477 0.93409650 0.26651326
v 0.02466226 0.93572765 0.26464873
v -0.02604625 0.94203376 0.25781611
v 0.03352320 0.94191061 0.25793760
v 0.03356715 0.94179085 0.25782076
v -0.02628602 0.94199720 0.25790621
v 0.02487406 0.93587824 0.26450421
v -0.01736766 0.93592777 0.26450866
v 0.02024825 0.93419075 0.26638824
v -0.01279888 0.93420536 0.26635784
v -0.00727546 0.93421747 0.26878314
v 0.01463353 0.93407740 0.26888434
v 0.00366832 0.93424161 0.27037138
v -0.01278320 0.93401424 0.26654617
v 0.02011213 0.93416834 0.26646312
v 0.02019709 0.93411021 0.26662358
v -0.01297166 0.93421732 0.26651262
v 0.01448463 0.93405850 0.26872731
v -0.00737903 0.93422391 0.26882533
v 0.00372320 0.93416770 0.27033879
v 0.04678563 0.94080988 0.10554847
v -0.03934833 0.94088920 0.10573992
v 0.04693012 0.94094621 0.10481375
v -0.03972318 0.94096993 0.10476623
v -0.03942977 0.94082464 0.10493464
v 0.04680746 0.94086595 0.10491421
v -0.03927379 0.94093100 0.10574226
v 0.04685442 0.94092333 0.10566112
v 0.04772905 0.99044861 0.09802202
v 0.04674847 0.94089629 0.10500290
v 0.04784950 0.94047811 0.09813677
v 0.04672639 0.94082063 0.10570807
v 0.04670563 0.99031210 0.10575028
v 0.04673939 0.99026488 0.10557089
v 0.04785520 0.99028435 0.09810955
v 0.04667588 0.94106637 0.10559633
v 0.04681107 0.94098572 0.10487597
v 0.04776942 0.94024563 0.09816042
v 0.07197217 0.99040510 0.04259866
v 0.07007422 0.93407096 0.04532940
v 0.07185691 0.93411406 0.04241084
v 0.06995399 0.99047488 0.04539834
v 0.07091748 0.99040712 0.04409094
v 0.07102626 0.99041489 0.04394361
v 0.07193282 0.99038623 0.04273663
v 0.07007692 0.99029230 0.04542470
v 0.07020337 0.93406322 0.04525295
v 0.07200240 0.93419358 0.04255572
v 0.07679326 0.99034226 0.03648826
v 0.07682969 0.93402281 0.03664092
v 0.07689437 0.99047532 0.03653676
v 0.07667841 0.93420967 0.03666187
v 0.08517596 0.99046878 0.01615730
v 0.08519832 0.93417999 0.01635246
v 0.08521005 0.99036189 0.01637086
v 0.08520958 0.93407309 0.01612912
v 0.08796214 0.99053977 -0.00547988
v 0.08818804 0.93397387 -0.00554203
v 0.08807810 0.99044486 -0.00577274
v 0.08824009 0.93410771 -0.00551647
v 0.08523315 0.99026150 -0.02758644
v 0.08509931 0.93406631 -0.02740492
v 0.08519065 0.99024654 -0.02750755
v 0.08523001 0.93420193 -0.02750131
v 0.07679006 0.99042339 -0.04789863
v 0.07693736 0.93401573 -0.04793764
v 0.07677760 0.99041261 -0.04769902
v 0.07690144 0.93401694 -0.04785668
v 0.06340447 0.99034835 -0.06524324
v 0.06348887 0.93396360 -0.06523638
v 0.06320217 0.99041324 -0.06525957
v 0.06325386 0.93403100 -0.06533023
v 0.04588405 0.93422776 -0.07865972
v 0.04573671 0.99055189 -0.07857294
v 0.04580259 0.99028476 -0.07880992
v 0.04599767 0.93418896 -0.07873341
v 0.02552791 0.93407781 -0.08695471
v 0.02548981 0.99040931 -0.08719737
v 0.02559444 0.99039254 -0.08715302
v 0.02549339 0.93405020 -0.08704713
v 0.00367155 0.93423552 -0.09005059
v 0.00368574 0.99040710 -0.09003442
v 0.00368558 0.99037426 -0.09012105
v 0.00364329 0.93401238 -0.09003475
v -0.01805380 0.93393574 -0.08705456
v -0.01822917 0.99029047 -0.08697319
v -0.01818068 0.99041424 -0.08715005
v -0.01808163 0.93406763 -0.08725003
v -0.03849301 0.93405730 -0.07865761
v -0.03855418 0.99037776 -0.07851329
v -0.03851422 0.99039251 -0.07854782
v -0.03847661 0.93426845 -0.07876444
v -0.05589051 0.93409880 -0.06530536
v -0.05611420 0.99041995 -0.06528256
v -0.05603840 0.99026963 -0.06513266
v -0.05609184 0.93397012 -0.06522899
v -0.06946566 0.99028101 -0.04787912
v -0.06955870 0.93412361 -0.04784687
v -0.06927887 0.99046557 -0.04781383
v -0.06945119 0.93415407 -0.04763402
v -0.07771591 0.99047964 -0.02747456
v -0.07800534 0.93413858 -0.02741430
v -0.07784944 0.99052133 -0.02758361
v -0.07774507 0.93407046 -0.02757030
v -0.08072646 0.99039497 -0.00558691
v -0.08081103 0.93413234 -0.00568532
v -0.08087368 0.99040858 -0.00559771
v -0.08072082 0.93417396 -0.00558762
v -0.07793419 0.99031659 0.01635730
v -0.07795046 0.93396561 0.01615376
v -0.07792631 0.99049548 0.01619282
v -0.07775271 0.93409036 0.01642446
v -0.06953597 0.99029704 0.03646068
v -0.06949313 0.93417392 0.03667376
v -0.07445083 0.99041575 0.02475462
v -0.07430664 0.99051214 0.02468488
v -0.06932540 0.99036346 0.03667880
v -0.06945680 0.93425636 0.03660888
v -0.06469940 0.99042329 0.04266321
v -0.06460381 0.93409482 0.04242093
v -0.06458745 0.99021964 0.04251300
v -0.06474618 0.93426655 0.04242438
v -0.06268041 0.99044500 0.04548090
v -0.06259852 0.93414025 0.04541138
v -0.06259359 0.99041554 0.04542540
v -0.06268034 0.93403799 0.04544522
v -0.06033148 0.99040599 0.04875500
v -0.06262324 0.93423420 0.04526938
v -0.06024354 0.93413867 0.04885869
v -0.06277520 0.99030971 0.04534166
v -0.06265514 0.99034314 0.04532589
v -0.06017546 0.99026645 0.04893969
v -0.06269377 0.93397179 0.04530650
v -0.06029854 0.93403936 0.04881741
v -0.05622813 0.99041058 0.05536863
v -0.06029219 0.93417520 0.04878505
v -0.05625153 0.93411755 0.05536125
v -0.06018795 0.99050235 0.04866732
v -0.06036428 0.99041978 0.04885004
v -0.05619769 0.99036819 0.05527175
v -0.06023914 0.93413997 0.04890970
v -0.05612545 0.93399419 0.05526824
v -0.05270406 0.99039469 0.06216449
v -0.05627856 0.93408327 0.05534605
v -0.05245053 0.93416380 0.06204093
v -0.05613080 0.99034613 0.05535871
v -0.05615566 0.99037374 0.05537053
v -0.05266546 0.99035593 0.06207158
v -0.05631087 0.93408105 0.05530653
v -0.05257523 0.93421674 0.06207350
v -0.04924556 0.93575965 0.06895157
v -0.05250072 0.99040001 0.06206096
v -0.05237406 0.93419575 0.06210712
v -0.04922647 0.99026534 0.06912164
v -0.04935596 0.99041358 0.06895606
v -0.04933692 0.93568535 0.06912801
v -0.05250634 0.99032996 0.06211626
v -0.05267927 0.93416306 0.06206610
v -0.04645735 0.93742803 0.07616152
v -0.04926903 0.99055027 0.06902697
v -0.04930015 0.93571255 0.06891426
v -0.04638658 0.99031596 0.07592528
v -0.04653720 0.99045470 0.07614927
v -0.04650418 0.93732796 0.07608727
v -0.04934112 0.99035653 0.06885811
v -0.04941153 0.93559231 0.06887591
v -0.04407024 0.93858280 0.08339384
v -0.04645655 0.99031001 0.07618077
v -0.04665434 0.93749137 0.07614774
v -0.04405119 0.99020152 0.08326771
v -0.04422180 0.99033331 0.08337730
v -0.04405941 0.93857037 0.08321364
v -0.04637951 0.99036680 0.07611275
v -0.04654802 0.93741457 0.07613791
v -0.04208156 0.93964950 0.09045834
v -0.04408936 0.99037832 0.08332170
v -0.04405575 0.93846425 0.08332942
v -0.04211331 0.93959261 0.09072025
v -0.04207008 0.99044369 0.09059786
v -0.04195559 0.99058665 0.09062672
v -0.04206525 0.93959199 0.09066225
v -0.04394403 0.99043758 0.08342031
v -0.04212628 0.93981252 0.09056441
v -0.04404982 0.93854921 0.08328833
v -0.04058490 0.94041413 0.09832703
v -0.04218205 0.99047034 0.09063489
v -0.04194643 0.93953909 0.09060495
v -0.04070078 0.99027812 0.09803367
v -0.04063453 0.99029207 0.09818052
v -0.04040741 0.94044276 0.09822529
v -0.04208996 0.99056651 0.09073988
v -0.04195532 0.93976830 0.09073408
v -0.03958861 0.94084651 0.10503626
v -0.04063954 0.99048580 0.09817927
v -0.04050753 0.94039597 0.09829161
v -0.03948367 0.94108077 0.10587217
v -0.03939692 0.99034876 0.10590146
v -0.03954669 0.99042025 0.10578952
v -0.03951215 0.94086661 0.10591712
v -0.04047627 0.99031714 0.09831577
v -0.03947371 0.94089501 0.10497897
v -0.04042040 0.94027137 0.09816050
v 0.04929427 0.99056268 0.09068688
v 0.04796034 0.94041224 0.09831617
v 0.04961374 0.93965973 0.09086642
v 0.04790117 0.99031834 0.09830088
v 0.04777825 0.99034962 0.09826770
v 0.04947202 0.99046629 0.09071195
v 0.04799605 0.94039318 0.09823679
v 0.04950202 0.93973312 0.09054039
v 0.05132444 0.99042115 0.08338581
v 0.04941379 0.93968001 0.09046461
v 0.05144335 0.93865437 0.08323830
v 0.04942761 0.93961437 0.09066309
v 0.04946096 0.99039091 0.09063289
v 0.04960133 0.99033072 0.09079341
v 0.05152804 0.99048581 0.08332669
v 0.04950792 0.93959331 0.09079888
v 0.04954182 0.93973395 0.09048158
v 0.05142139 0.93842218 0.08333896
v 0.05389450 0.99055587 0.07594308
v 0.05126084 0.93848011 0.08342420
v 0.05382891 0.93729577 0.07603728
v 0.05138098 0.99031663 0.08325994
v 0.05143049 0.99032116 0.08333621
v 0.05369126 0.99051426 0.07608791
v 0.05150276 0.93841054 0.08321525
v 0.05378083 0.93744189 0.07616107
v 0.05670132 0.99038578 0.06892102
v 0.05389773 0.93732265 0.07617894
v 0.05679328 0.93572236 0.06912256
v 0.05385529 0.99046017 0.07617501
v 0.05388809 0.99029821 0.07615324
v 0.05653772 0.99032426 0.06898148
v 0.05376051 0.93745282 0.07606701
v 0.05668324 0.93578571 0.06893322
v 0.05997350 0.99049187 0.06205566
v 0.05655883 0.93578922 0.06893167
v 0.05978493 0.93402457 0.06204888
v 0.05675640 0.99029888 0.06897343
v 0.05669366 0.99033685 0.06898688
v 0.05985312 0.99034257 0.06203158
v 0.05661824 0.93574758 0.06899676
v 0.05997426 0.93412537 0.06200432
v 0.06350383 0.99034609 0.05541599
v 0.05988004 0.93415955 0.06201082
v 0.06363192 0.93430131 0.05536465
v 0.05989607 0.99030068 0.06205324
v 0.05992660 0.99046931 0.06217122
v 0.06362554 0.99047768 0.05532937
v 0.05999246 0.93419144 0.06208245
v 0.06353961 0.93394691 0.05525058
v 0.06760439 0.99036379 0.04893441
v 0.06344062 0.93397980 0.05534595
v 0.06759237 0.93417289 0.04886588
v 0.06363495 0.99038876 0.05537025
v 0.06353196 0.99041130 0.05547377
v 0.06770316 0.99029355 0.04886349
v 0.06368171 0.93416530 0.05532272
v 0.06755133 0.93408685 0.04892968
v 0.07022854 0.99028349 0.04527633
v 0.06769197 0.93408984 0.04887125
v 0.07003799 0.93420802 0.04523743
v 0.06768281 0.99036789 0.04900244
v 0.06763280 0.99032440 0.04874925
v 0.07001869 0.99030873 0.04529203
v 0.06747663 0.93427044 0.04895485
v 0.07009566 0.93409064 0.04547971
v 0.04786299 0.94032617 0.09825433
v -0.04048434 0.94017759 0.09816852
v -0.04201719 0.93957318 0.09065002
v 0.04951218 0.93973710 0.09080679
v 0.04958014 0.93954306 0.09060685
v -0.04202983 0.93972781 0.09036706
v -0.04215720 0.93965888 0.09041676
v 0.04963185 0.93962713 0.09034864
v -0.04219051 0.93974406 0.09087859
v 0.04958002 0.93972153 0.09066634
v 0.04788063 0.94027291 0.09818205
v -0.04040143 0.94039820 0.09820915
v -0.05613586 0.93414516 0.05530992
v 0.05980733 0.93428307 0.06207324
v -0.05257266 0.93413680 0.06199066
v 0.06345332 0.93412528 0.05527057
v -0.06024399 0.93406403 0.04875589
v 0.06758861 0.93416428 0.04896207
v -0.06269494 0.93411335 0.04542376
v 0.07001041 0.93414276 0.04523965
v -0.06468867 0.93404250 0.04268801
v 0.07191632 0.93421333 0.04254279
v -0.06947247 0.93408729 0.03668700
v 0.00378178 0.93418670 0.03838457
v -0.00732279 0.93423177 0.03683101
v -0.01758381 0.93410918 0.03267603
v -0.07770622 0.93409295 0.01632049
v -0.02645042 0.93417395 0.02574502
v -0.03324542 0.93427459 0.01691068
v -0.03757243 0.93429279 0.00656845
v -0.08065978 0.93403613 -0.00560937
v -0.03913396 0.93416721 -0.00461327
v -0.03905416 0.93416383 -0.00556136
v -0.07789856 0.93418343 -0.02743613
v -0.03775517 0.93405020 -0.01567313
v -0.03342017 0.93408189 -0.02601418
v -0.02648947 0.93412627 -0.03494614
v -0.06931610 0.93415357 -0.04775775
v -0.01757690 0.93418531 -0.04177205
v -0.00731514 0.93417733 -0.04610623
v 0.00382676 0.93415973 -0.04749411
v 0.07689751 0.93413039 0.03657557
v 0.01499265 0.93421669 0.03691138
v 0.02538131 0.93412327 0.03262538
v 0.08518139 0.93404527 0.01626381
v 0.03418425 0.93411629 0.02569174
v 0.04096592 0.93415716 0.01679410
v 0.04521110 0.93417874 0.00643434
v 0.08796550 0.93419315 -0.00561538
v 0.04672469 0.93408196 -0.00459544
v 0.04674880 0.93403671 -0.00558953
v 0.04531275 0.93418381 -0.01561288
v 0.08527576 0.93400514 -0.02746111
v 0.04100927 0.93401612 -0.02593131
v 0.03421331 0.93413452 -0.03501995
v 0.07665098 0.93430273 -0.04780093
v 0.02533119 0.93422802 -0.04177639
v 0.01506807 0.93394102 -0.04605581
v -0.05594319 0.93422401 -0.06529274
v 0.06337539 0.93408819 -0.06517925
v -0.03851810 0.93414995 -0.07862452
v 0.04596799 0.93412653 -0.07866657
v -0.01810162 0.93425362 -0.08713656
v 0.02558521 0.93401499 -0.08705283
v 0.00379726 0.93428411 -0.09003369
v 0.00371717 0.93426832 -0.08991146
v -0.01822447 0.93422621 -0.08717715
v 0.02550679 0.93402016 -0.08706250
v 0.04574657 0.93414587 -0.07859467
v -0.03851309 0.93401847 -0.07869519
v 0.06337483 0.93404362 -0.06515968
v -0.05600292 0.93411013 -0.06527323
v 0.07675252 0.93418193 -0.04764002
v -0.06924612 0.93397215 -0.04781616
v 0.00380919 0.93415609 -0.04761727
v 0.01490599 0.93426110 -0.04626787
v 0.02533762 0.93405615 -0.04192401
v 0.03407065 0.93425324 -0.03512170
v 0.08523754 0.93408119 -0.02746484
v 0.04099268 0.93408273 -0.02612563
v 0.04539901 0.93420351 -0.01570411
v 0.08824934 0.93411931 -0.00560028
v 0.04658348 0.93412527 -0.00558202
v 0.04691436 0.93412619 -0.00444375
v 0.04542981 0.93418837 0.00650888
v 0.08522425 0.93431123 0.01608102
v 0.04099842 0.93419342 0.01681081
v 0.03405555 0.93416414 0.02583342
v 0.02536761 0.93428103 0.03246663
v 0.07682053 0.93416599 0.03664397
v 0.01493636 0.93419358 0.03697595
v 0.00381379 0.93398619 0.03838589
v 0.07195246 0.93413413 0.04249417
v -0.00731039 0.93411521 -0.04597711
v -0.01760332 0.93410315 -0.04168045
v -0.02667564 0.93411052 -0.03480320
v -0.07776661 0.93397728 -0.02750575
v -0.03330693 0.93400331 -0.02602976
v -0.03756653 0.93417471 -0.01573714
v -0.03893380 0.93422610 -0.00558480
v -0.08084721 0.93400866 -0.00572389
v -0.03898353 0.93416296 -0.00457836
v -0.03758450 0.93409547 0.00645060
v -0.07800502 0.93412317 0.01606136
v -0.03342498 0.93415182 0.01683981
v -0.02667648 0.93404578 0.02585780
v -0.01756878 0.93421221 0.03271537
v -0.06937738 0.93424421 0.03677940
v -0.00729293 0.93408775 0.03700118
v -0.06447254 0.93412756 0.04246417
v 0.07006138 0.93401985 0.04536592
v -0.06271587 0.93420879 0.04520383
v 0.06753297 0.93415719 0.04878629
v -0.06031091 0.93412619 0.04894782
v 0.06358165 0.93403100 0.05529296
v -0.05620871 0.93408619 0.05527043
v 0.05992751 0.93420686 0.06193172
v -0.05259652 0.93420609 0.06208544
v 0.05667206 0.93578953 0.06902887
v -0.04645936 0.93748034 0.07613357
v 0.05379932 0.93758693 0.07611777
v -0.04920886 0.93558910 0.06888621
v -0.05269395 0.93411446 0.06214134
v 0.06010382 0.93414960 0.06204619
v 0.05992785 0.93425405 0.06206339
v 0.05669184 0.93571250 0.06902006
v -0.05258817 0.93409593 0.06195074
v -0.04925904 0.93569054 0.06907571
v -0.04662497 0.93731476 0.07609571
v 0.05394088 0.93751835 0.07613415
v 0.05129230 0.93868091 0.08321117
v -0.04407676 0.93857702 0.08324610
v -0.04413886 0.93856855 0.08321407
v 0.05145575 0.93850098 0.08329789
vn 0.8470266753290566 0 -0.531550384517785
vn 0.9659258358036644 0 -0.2588190095935621
vn 0.8660254028383287 0 -0.5000000016387104
vn 0.9529611084394377 0 -0.3030926026841931
vn 0.9238795391929063 0 -0.382683416234233
vn -0.9238795391929063 0 0.382683416234233
vn -0.8470266753290566 0 0.531550384517785
vn -0.9529611084394377 0 0.3030926026841931
vn -0.9659258358036644 0 0.2588190095935621
vn -0.8660254028383287 0 0.5000000016387104
vn 0.6884539014177947 0 -0.7252801014936349
vn 0.7071067811865472 0 -0.7071067811865479
vn 0.7933533393698231 0 -0.6087614302095283
vn -0.7933533393698231 0 0.6087614302095283
vn -0.6884539014177947 0 0.7252801014936349
vn -0.7071067811865472 0 0.7071067811865479
vn 0 0.8810520090394347 0.4730194048530943
vn 0 0.8593830855671336 0.5113322914124558
vn 0 0.891319611879325 0.4533755060424962
vn 0 -0.891319611879325 -0.4533755060424962
vn 0 -0.8810520090394347 -0.4730194048530943
vn 0 -0.8593830855671336 -0.5113322914124558
vn 0.9766399502357721 0 -0.21488231105297737
vn 0.8832268304032116 0 -0.4689460161424731
vn -0.8832268304032116 0 0.4689460161424731
vn -0.9766399502357721 0 0.21488231105297737
vn 0 0.8446391953238068 0.5353359970362089
vn 0 -0.8446391953238068 -0.5353359970362089
vn 0.9914448610250886 0 -0.13052619486885594
vn -0.9914448610250886 0 0.13052619486885594
vn 0 -1 0
vn 0 1 0
vn 0.5000000016387096 0 -0.8660254028383292
vn 0.4836172062115791 0 -0.8752796112420917
vn -0.4836172062115791 0 0.8752796112420917
vn -0.5000000016387096 0 0.8660254028383292
vn 0 0.9128751778169142 0.4082387900797
vn 0 0.916738509290645 0.3994878040485915
vn 0 -0.916738509290645 -0.3994878040485915
vn 0 -0.9128751778169142 -0.4082387900797
vn 0.7244423218338041 0 -0.6893354207757258
vn -0.7244423218338041 0 0.6893354207757258
vn -0.8660254028383292 0 -0.5000000016387096
vn -0.7933533393698236 0 -0.6087614302095277
vn -0.8832268304032118 0 -0.4689460161424722
vn -0.7244423218338047 0 -0.6893354207757252
vn -0.7071067811865479 0 -0.7071067811865472
vn 0.7071067811865479 0 0.7071067811865472
vn 0.8660254028383292 0 0.5000000016387096
vn 0.7244423218338047 0 0.6893354207757252
vn 0.7933533393698236 0 0.6087614302095277
vn 0.8832268304032118 0 0.4689460161424722
vn -0.8470266753290571 0 -0.5315503845177844
vn -0.6884539014177955 0 -0.7252801014936344
vn 0.8470266753290571 0 0.5315503845177844
vn 0.6884539014177955 0 0.7252801014936344
vn -0.9659258358036646 0 -0.2588190095935612
vn -0.9238795391929066 0 -0.3826834162342322
vn -0.9766399502357723 0 -0.21488231105297648
vn 0.9659258358036646 0 0.2588190095935612
vn 0.9238795391929066 0 0.3826834162342322
vn 0.9766399502357723 0 0.21488231105297648
vn -0.9529611084394379 0 -0.3030926026841922
vn 0.9529611084394379 0 0.3030926026841922
vn -0.9914448610250888 0 -0.13052619486885506
vn 0.9914448610250888 0 0.13052619486885506
vn 0 -0.88706450229284 -0.46164550119323866
vn 0 0.88706450229284 0.46164550119323866
vn 0 0 1
vn 0 0 -1
vn -0.4836172062115799 0 -0.8752796112420913
vn -0.5000000016387104 0 -0.8660254028383287
vn 0.4836172062115799 0 0.8752796112420913
vn 0.5000000016387104 0 0.8660254028383287
vn -0.25108120676043233 0 -0.9679660260627565
vn -0.2588190095935621 0 -0.9659258358036644
vn -0.382683416234233 0 -0.9238795391929063
vn 0.382683416234233 0 0.9238795391929063
vn 0.25108120676043233 0 0.9679660260627565
vn 0.2588190095935621 0 0.9659258358036644
vn 0.25108120676043144 0 -0.9679660260627567
vn 0.2588190095935612 0 -0.9659258358036646
vn -0.25108120676043144 0 0.9679660260627567
vn -0.2588190095935612 0 0.9659258358036646
vn 0.3826834162342322 0 -0.9238795391929066
vn -0.3826834162342322 0 0.9238795391929066
vn 0.5152470137705198 0 -0.8570417229053447
vn -0.5152470137705198 0 0.8570417229053447
vn 0 0.939942983014643 0.34133149383192707
vn 0 -0.939942983014643 -0.34133149383192707
vn -0.2661073964423681 0 -0.9639433871128865
vn -0.5152470137705205 0 -0.8570417229053443
vn 0.5152470137705205 0 0.8570417229053443
vn 0.2661073964423681 0 0.9639433871128865
vn 0.2661073964423672 0 -0.9639433871128867
vn -0.2661073964423672 0 0.9639433871128867
vn 0.9774423928634 0 0.21120219845794894
vn -0.9774423928634 0 -0.21120219845794894
vn 1 0 0
vn -1 0 0
vn -0.9774423928633997 0 0.21120219845794982
vn 0.9774423928633997 0 -0.21120219845794982
vn 0.889561982540456 0 0.4568144910340446
vn -0.889561982540456 0 -0.4568144910340446
vn 0.738574388951164 0 0.6741719899146026
vn -0.738574388951164 0 -0.6741719899146026
vn 0.5285979927816538 0 0.8488722884081011
vn -0.5285979927816538 0 -0.8488722884081011
vn -0.5285979927816531 0 0.8488722884081016
vn 0.5285979927816531 0 -0.8488722884081016
vn -0.7385743889511633 0 0.6741719899146033
vn 0.7385743889511633 0 -0.6741719899146033
vn -0.8895619825404556 0 0.45681449103404537
vn 0.8895619825404556 0 -0.45681449103404537
vn 0 -0.8532360011429094 -0.5215250006985831
vn 0 -0.8376285884264857 -0.5462401924525997
vn 0 -0.8691996339692565 -0.4944613193240806
vn 0 0.8691996339692565 0.4944613193240806
vn 0 0.8532360011429094 0.5215250006985831
vn 0 0.8376285884264857 0.5462401924525997
vn 0 -0.8187982220464697 -0.5740814154573722
vn 0 -0.8041631023974914 -0.5944087017721408
vn 0 0.8187982220464697 0.5740814154573722
vn 0 0.8041631023974914 0.5944087017721408
vn 0 -0.9621143667773254 -0.2726461905852822
vn 0 0.9621143667773254 0.2726461905852822
vn 0 0.971326796818356 0.2377482992212404
vn 0 -0.971326796818356 -0.2377482992212404
vn 0 0.9859451893627112 0.16706909819750446
vn 0 -0.9859451893627112 -0.16706909819750446
vn 0 0.9954275526700364 0.09551956545829615
vn 0 -0.9954275526700364 -0.09551956545829615
vn 0 0.998226230556963 0.059534801822435736
vn 0 0.9997551077564557 0.022129720171690653
vn 0 -0.9997551077564557 -0.022129720171690653
vn 0 -0.998226230556963 -0.059534801822435736
vn 0.9982905379674784 0 0.058446572222868434
vn -0.9982905379674784 0 -0.058446572222868434
vn 0 -0.9989476546060636 -0.045864837915821605
vn 0 -0.9970135946512725 -0.07722623958570103
vn 0 0.9989476546060636 0.045864837915821605
vn 0 0.9970135946512725 0.07722623958570103
vn 0 -0.9901953709607784 -0.1396893959033631
vn 0 0.9901953709607784 0.1396893959033631
vn 0 -0.97946771035077 -0.2016011021304705
vn 0 0.97946771035077 0.2016011021304705
vn 0 -0.9648729888406458 -0.2627167969615178
vn 0 0.9648729888406458 0.2627167969615178
vn 0 -0.9464688023304286 -0.3227953007947983
vn 0 0.9464688023304286 0.3227953007947983
vn 0 -0.9243278572595891 -0.3815992823550598
vn 0 0.9243278572595891 0.3815992823550598
vn 0 -0.8985375214853173 -0.43889671049464857
vn 0 0.8985375214853173 0.43889671049464857
vn -0.9982905379674781 0 0.05844657222286931
vn 0.9982905379674781 0 -0.05844657222286931
vn 0 -0.7811277862043927 -0.6243711889728935
vn 0 -0.7678901933200116 -0.6405814944274891
vn 0 0.7811277862043927 0.6243711889728935
vn 0 0.7678901933200116 0.6405814944274891
vn 0 -0.7403732682495038 -0.6721959711732499
vn 0 0.7403732682495038 0.6721959711732499
vn 0 0.9999203593346715 -0.012620419486745206
vn 0 0.9986445817158354 -0.05204804904705284
vn 0 -0.9986445817158354 0.05204804904705284
vn 0 -0.9999203593346715 0.012620419486745206
vn 0.9893318360059958 0 0.1456795053018967
vn -0.9893318360059958 0 -0.1456795053018967
vn 0.8001333122493492 0 0.5998222091827589
vn 0.8173275351903895 0 0.5761733248073905
vn -0.8173275351903895 0 -0.5761733248073905
vn -0.8001333122493492 0 -0.5998222091827589
vn 0.8614851912824893 0 0.5077826948616628
vn -0.8614851912824893 0 -0.5077826948616628
vn -0.8614851912824891 0 0.5077826948616636
vn 0.8614851912824891 0 -0.5077826948616636
vn -0.8001333122493488 0 0.5998222091827595
vn 0.8001333122493488 0 -0.5998222091827595
vn -0.817327535190389 0 0.5761733248073911
vn 0.817327535190389 0 -0.5761733248073911
vn -0.8496056939970896 0 0.5274183962735125
vn 0.8496056939970896 0 -0.5274183962735125
vn -0.8789791401777637 0 0.476860221797079
vn 0.8789791401777637 0 -0.476860221797079
vn -0.905376213368819 0.000008683023127837261 0.42461030626981217
vn 0.905376213368819 -0.000008683023127837261 -0.42461030626981217
vn -0.9288340165582822 0.00006837309121852471 0.37049610660481785
vn 0.9288340165582822 -0.00006837309121852471 -0.37049610660481785
vn -0.9485459874052621 0.000052986059296112905 0.3166393957956812
vn 0.9485459874052621 -0.000052986059296112905 -0.3166393957956812
vn -0.9655729025118558 0 0.2601326006767133
vn 0.9655729025118558 0 -0.2601326006767133
vn -0.9791261465263815 0 0.2032535096582558
vn 0.9791261465263815 0 -0.2032535096582558
vn -0.9893318360059956 0 0.14567950530189758
vn 0.9893318360059956 0 -0.14567950530189758
vn 0.9791261465263817 0 0.20325350965825492
vn -0.9791261465263817 0 -0.20325350965825492
vn 0.9655570053142124 0.000005734291031665923 0.2601916014320366
vn -0.9655570053142124 -0.000005734291031665923 -0.2601916014320366
vn 0.948565580767066 0.00005861541881160348 0.31658069358107
vn -0.948565580767066 -0.00005861541881160348 -0.31658069358107
vn 0.9288626967197586 0.00006054741978623098 0.37042419869186133
vn -0.9288626967197586 -0.00006054741978623098 -0.37042419869186133
vn 0.9053474147265398 0 0.4246717069077839
vn -0.9053474147265398 0 -0.4246717069077839
vn 0.8789791401777641 0 0.4768602217970782
vn -0.8789791401777641 0 -0.4768602217970782
vn 0.8496056939970899 0 0.5274183962735117
vn -0.8496056939970899 0 -0.5274183962735117
vn 0 0.9964056579236322 -0.08470988642285777
vn 4.26945806287529e-7 0.9919886152491308 -0.12632730194193875
vn 4.2692761866378824e-7 0.9919888440066735 -0.12632550560405986
vn -4.2692761866378824e-7 -0.9919888440066735 0.12632550560405986
vn -4.26945806287529e-7 -0.9919886152491308 0.12632730194193875
vn 0 -0.9964056579236322 0.08470988642285777
vn 9.290887551088987e-7 0.9737067532849041 -0.22780508907069613
vn 8.522060133849195e-7 0.9798459157409426 -0.19975480320900296
vn 8.521936278931146e-7 0.9798468324226147 -0.1997503066096318
vn -9.290887551088987e-7 -0.9737067532849041 0.22780508907069613
vn -8.522060133849195e-7 -0.9798459157409426 0.19975480320900296
vn -8.521936278931146e-7 -0.9798468324226147 0.1997503066096318
vn 7.315980359582192e-7 0.9877676489376135 -0.1559329077254848
vn -7.315980359582192e-7 -0.9877676489376135 0.1559329077254848
usemtl material_0_0
f 1//1 2//2 3//3
f 2//2 1//1 4//2
f 4//2 1//1 5//4
f 5//4 1//1 6//5
f 7//6 8//7 9//8
f 9//8 8//7 10//9
f 10//9 8//7 11//9
f 12//10 11//9 8//7
f 13//11 3//3 14//12
f 3//3 13//11 1//1
f 1//1 13//11 15//13
f 16//14 17//15 8//7
f 8//7 17//15 12//10
f 18//16 12//10 17//15
f 19//17 20//18 21//18
f 20//18 19//17 22//17
f 22//17 19//17 23//19
f 23//19 19//17 24//19
f 25//20 26//21 27//20
f 27//20 26//21 28//21
f 28//21 26//21 29//22
f 30//22 29//22 26//21
f 31//5 32//2 33//23
f 32//2 31//5 34//24
f 32//2 34//24 35//3
f 36//10 37//25 38//9
f 37//25 39//6 38//9
f 40//26 38//9 39//6
f 41//27 42//27 43//27
f 42//27 41//27 44//27
f 44//27 41//27 45//27
f 45//27 41//27 46//27
f 46//27 41//27 21//18
f 46//27 21//18 20//18
f 29//22 30//22 47//28
f 30//22 48//28 47//28
f 47//28 48//28 49//28
f 49//28 48//28 50//28
f 50//28 48//28 51//28
f 52//28 51//28 48//28
f 5//4 53//29 4//2
f 10//9 54//30 9//8
f 4//2 55//29 2//2
f 11//9 56//30 10//9
f 57//31 58//31 59//31
f 58//31 57//31 60//31
f 60//31 57//31 61//31
f 61//31 57//31 62//31
f 61//31 62//31 63//31
f 63//31 62//31 64//31
f 64//31 62//31 65//31
f 64//31 65//31 66//31
f 66//31 65//31 67//31
f 68//31 69//31 70//31
f 69//31 68//31 71//31
f 71//31 68//31 72//31
f 71//31 72//31 73//31
f 73//31 72//31 74//31
f 73//31 74//31 75//31
f 73//31 75//31 76//31
f 76//31 75//31 77//31
f 76//31 77//31 67//31
f 76//31 67//31 65//31
f 76//31 65//31 78//31
f 76//31 78//31 79//31
f 79//31 78//31 80//31
f 79//31 80//31 81//31
f 81//31 80//31 82//31
f 83//32 84//32 85//32
f 85//32 84//32 86//32
f 84//32 87//32 86//32
f 86//32 87//32 88//32
f 87//32 89//32 88//32
f 89//32 90//32 88//32
f 90//32 91//32 88//32
f 91//32 92//32 88//32
f 88//32 92//32 93//32
f 92//32 94//32 93//32
f 94//32 95//32 93//32
f 93//32 95//32 96//32
f 95//32 97//32 96//32
f 96//32 97//32 98//32
f 99//32 98//32 97//32
f 90//32 89//32 100//32
f 100//32 89//32 101//32
f 89//32 102//32 101//32
f 101//32 102//32 103//32
f 103//32 102//32 104//32
f 102//32 105//32 104//32
f 104//32 105//32 106//32
f 106//32 105//32 107//32
f 108//32 107//32 105//32
f 109//33 13//11 14//12
f 13//11 109//33 110//34
f 111//35 112//36 17//15
f 18//16 17//15 112//36
f 113//37 23//19 24//19
f 23//19 113//37 114//37
f 114//37 113//37 115//37
f 114//37 115//37 116//37
f 116//37 115//37 117//38
f 117//38 115//37 118//38
f 119//39 120//40 121//39
f 121//39 120//40 122//40
f 122//40 120//40 123//40
f 120//40 124//40 123//40
f 123//40 124//40 27//20
f 25//20 27//20 124//40
f 125//13 35//3 34//24
f 35//3 125//13 126//41
f 35//3 126//41 127//12
f 128//16 129//42 36//10
f 129//42 130//14 36//10
f 37//25 36//10 130//14
f 131//43 132//44 133//45
f 132//44 131//43 134//46
f 134//46 131//43 135//47
f 136//48 137//49 138//50
f 138//50 137//49 139//51
f 140//52 139//51 137//49
f 141//53 142//47 143//43
f 142//47 141//53 144//54
f 144//54 141//53 145//44
f 146//51 147//55 148//56
f 148//56 147//55 149//48
f 150//49 149//48 147//55
f 151//57 152//58 153//59
f 152//58 151//57 133//45
f 133//45 151//57 131//43
f 137//49 154//60 140//52
f 140//52 154//60 155//61
f 156//62 155//61 154//60
f 157//57 143//43 158//57
f 143//43 157//57 141//53
f 141//53 157//57 159//63
f 141//53 159//63 160//58
f 161//61 162//64 147//55
f 162//64 163//60 147//55
f 147//55 163//60 150//49
f 164//60 150//49 163//60
f 33//23 165//29 166//29
f 165//29 33//23 32//2
f 38//9 40//26 167//30
f 168//30 167//30 40//26
f 169//3 170//2 171//3
f 170//2 169//3 172//2
f 173//9 174//10 175//9
f 176//10 175//9 174//10
f 159//63 157//57 177//65
f 178//66 163//60 162//64
f 179//65 153//59 180//65
f 153//59 179//65 151//57
f 154//60 181//66 156//62
f 182//66 156//62 181//66
f 183//67 184//67 185//67
f 184//67 183//67 186//67
f 186//67 183//67 187//67
f 187//67 183//67 188//67
f 188//67 183//67 189//67
f 190//68 191//68 192//68
f 192//68 191//68 193//68
f 193//68 191//68 194//68
f 194//68 191//68 195//68
f 196//68 195//68 191//68
f 197//69 198//69 199//69
f 198//69 197//69 200//69
f 200//69 197//69 201//69
f 201//69 197//69 202//69
f 202//69 197//69 203//69
f 203//69 197//69 204//69
f 205//70 206//70 207//70
f 207//70 206//70 208//70
f 208//70 206//70 209//70
f 209//70 206//70 210//70
f 210//70 206//70 211//70
f 212//70 211//70 206//70
f 213//31 214//31 215//31
f 214//31 213//31 216//31
f 214//31 216//31 217//31
f 217//31 216//31 218//31
f 217//31 218//31 219//31
f 219//31 218//31 220//31
f 220//31 218//31 221//31
f 221//31 218//31 222//31
f 221//31 222//31 223//31
f 223//31 222//31 224//31
f 224//31 222//31 225//31
f 224//31 225//31 226//31
f 226//31 225//31 227//31
f 227//31 225//31 228//31
f 227//31 228//31 229//31
f 219//31 230//31 231//31
f 230//31 219//31 220//31
f 231//31 230//31 232//31
f 231//31 232//31 233//31
f 231//31 233//31 234//31
f 234//31 233//31 235//31
f 234//31 235//31 236//31
f 234//31 236//31 237//31
f 237//31 236//31 238//31
f 239//32 240//32 241//32
f 241//32 240//32 242//32
f 240//32 243//32 242//32
f 243//32 244//32 242//32
f 242//32 244//32 245//32
f 244//32 246//32 245//32
f 246//32 247//32 245//32
f 248//32 249//32 247//32
f 245//32 247//32 249//32
f 250//32 251//32 252//32
f 251//32 253//32 252//32
f 252//32 253//32 254//32
f 254//32 253//32 255//32
f 253//32 256//32 255//32
f 255//32 256//32 257//32
f 257//32 256//32 258//32
f 256//32 259//32 258//32
f 258//32 259//32 248//32
f 248//32 259//32 249//32
f 249//32 259//32 260//32
f 259//32 261//32 260//32
f 260//32 261//32 262//32
f 261//32 263//32 262//32
f 264//32 262//32 263//32
f 265//31 266//31 267//31
f 266//31 265//31 268//31
f 268//31 265//31 269//31
f 268//31 269//31 270//31
f 270//31 269//31 271//31
f 271//31 269//31 272//31
f 271//31 272//31 273//31
f 271//31 273//31 274//31
f 274//31 273//31 275//31
f 275//31 273//31 276//31
f 275//31 276//31 277//31
f 278//32 279//32 280//32
f 279//32 281//32 280//32
f 280//32 281//32 282//32
f 282//32 281//32 283//32
f 281//32 284//32 283//32
f 284//32 285//32 283//32
f 283//32 285//32 286//32
f 286//32 285//32 287//32
f 285//32 288//32 287//32
f 287//32 288//32 289//32
f 290//32 289//32 288//32
f 291//31 292//31 293//31
f 292//31 291//31 294//31
f 292//31 294//31 295//31
f 295//31 294//31 296//31
f 295//31 296//31 297//31
f 297//31 296//31 298//31
f 298//31 296//31 299//31
f 298//31 299//31 300//31
f 300//31 299//31 301//31
f 300//31 301//31 266//31
f 266//31 301//31 267//31
f 290//32 302//32 289//32
f 289//32 302//32 303//32
f 302//32 304//32 303//32
f 303//32 304//32 305//32
f 304//32 306//32 305//32
f 305//32 306//32 307//32
f 307//32 306//32 308//32
f 306//32 309//32 308//32
f 308//32 309//32 310//32
f 309//32 311//32 310//32
f 312//32 310//32 311//32
f 157//57 158//57 313//65
f 314//66 164//60 163//60
f 142//47 315//71 316//72
f 315//71 142//47 144//54
f 148//56 149//48 317//73
f 318//74 317//73 149//48
f 316//72 319//75 320//76
f 319//75 316//72 321//77
f 321//77 316//72 315//71
f 317//73 318//74 322//78
f 322//78 318//74 323//79
f 324//80 323//79 318//74
f 320//76 325//70 326//70
f 325//70 320//76 319//75
f 323//79 324//80 327//69
f 328//69 327//69 324//80
f 326//70 329//81 330//82
f 329//81 326//70 325//70
f 327//69 328//69 331//83
f 332//84 331//83 328//69
f 330//82 110//34 109//33
f 110//34 330//82 333//85
f 333//85 330//82 329//81
f 331//83 332//84 334//86
f 334//86 332//84 111//35
f 112//36 111//35 332//84
f 335//87 127//12 126//41
f 127//12 335//87 336//33
f 337//36 338//88 128//16
f 129//42 128//16 338//88
f 118//38 339//89 117//38
f 339//89 118//38 340//89
f 339//89 340//89 341//89
f 342//90 343//90 344//90
f 343//90 119//39 344//90
f 121//39 344//90 119//39
f 345//91 346//72 347//76
f 346//72 345//91 348//77
f 346//72 348//77 349//92
f 350//93 351//78 352//74
f 351//78 353//94 352//74
f 354//80 352//74 353//94
f 349//92 135//47 346//72
f 135//47 349//92 134//46
f 138//50 350//93 136//48
f 352//74 136//48 350//93
f 335//87 355//82 336//33
f 355//82 335//87 356//85
f 355//82 356//85 357//95
f 358//96 359//86 360//84
f 359//86 338//88 360//84
f 337//36 360//84 338//88
f 361//12 171//3 362//12
f 171//3 361//12 169//3
f 174//10 363//16 176//10
f 364//16 176//10 363//16
f 365//43 366//47 367//43
f 366//47 365//43 368//47
f 369//48 370//49 371//48
f 372//49 371//48 370//49
f 373//57 367//43 374//57
f 367//43 373//57 365//43
f 370//49 375//60 372//49
f 376//60 372//49 375//60
f 377//66 378//60 379//66
f 378//60 377//66 380//97
f 380//97 377//66 381//66
f 380//97 381//66 382//66
f 380//97 382//66 383//66
f 384//65 385//65 386//98
f 385//65 387//65 386//98
f 387//65 388//65 386//98
f 386//98 388//65 389//57
f 390//65 389//57 388//65
f 391//99 392//99 393//99
f 392//99 391//99 394//99
f 392//99 394//99 395//99
f 392//99 395//99 396//99
f 392//99 396//99 397//99
f 397//99 396//99 398//99
f 397//99 398//99 399//99
f 397//99 399//99 400//99
f 397//99 400//99 401//99
f 397//99 401//99 402//99
f 402//99 401//99 403//99
f 403//99 401//99 404//99
f 404//99 401//99 405//99
f 405//99 401//99 406//99
f 406//99 401//99 407//99
f 407//99 401//99 408//99
f 408//99 401//99 409//99
f 409//99 401//99 410//99
f 410//99 401//99 411//99
f 412//100 413//100 414//100
f 414//100 413//100 415//100
f 415//100 413//100 416//100
f 416//100 413//100 417//100
f 417//100 413//100 418//100
f 418//100 413//100 419//100
f 419//100 413//100 420//100
f 420//100 413//100 421//100
f 421//100 413//100 422//100
f 422//100 413//100 423//100
f 413//100 424//100 423//100
f 424//100 425//100 423//100
f 425//100 426//100 423//100
f 426//100 427//100 423//100
f 423//100 427//100 428//100
f 427//100 429//100 428//100
f 429//100 430//100 428//100
f 430//100 431//100 428//100
f 432//100 428//100 431//100
f 172//2 433//29 170//2
f 433//29 172//2 434//29
f 435//30 173//9 436//30
f 175//9 436//30 173//9
f 437//32 438//32 439//32
f 438//32 437//32 440//32
f 440//32 437//32 441//32
f 440//32 441//32 442//32
f 442//32 441//32 443//32
f 442//32 443//32 444//32
f 444//32 443//32 445//32
f 444//32 445//32 446//32
f 446//32 445//32 447//32
f 446//32 447//32 448//32
f 448//32 447//32 449//32
f 450//31 451//31 452//31
f 452//31 451//31 453//31
f 451//31 454//31 453//31
f 453//31 454//31 455//31
f 454//31 456//31 455//31
f 455//31 456//31 457//31
f 456//31 458//31 457//31
f 457//31 458//31 459//31
f 458//31 460//31 459//31
f 459//31 460//31 461//31
f 462//31 461//31 460//31
f 463//100 464//100 465//100
f 464//100 463//100 466//100
f 466//100 463//100 467//100
f 467//100 463//100 468//100
f 467//100 468//100 469//100
f 469//100 468//100 470//100
f 470//100 468//100 471//100
f 471//100 468//100 472//100
f 472//100 468//100 473//100
f 473//100 468//100 474//100
f 473//100 474//100 475//100
f 473//100 475//100 476//100
f 473//100 476//100 477//100
f 473//100 477//100 478//100
f 473//100 478//100 479//100
f 473//100 479//100 480//100
f 473//100 480//100 481//100
f 473//100 481//100 482//100
f 473//100 482//100 483//100
f 484//99 485//99 486//99
f 485//99 487//99 486//99
f 487//99 488//99 486//99
f 488//99 489//99 486//99
f 489//99 490//99 486//99
f 490//99 491//99 486//99
f 491//99 492//99 486//99
f 492//99 493//99 486//99
f 493//99 494//99 486//99
f 494//99 495//99 486//99
f 486//99 495//99 496//99
f 496//99 495//99 497//99
f 497//99 495//99 498//99
f 498//99 495//99 499//99
f 499//99 495//99 500//99
f 495//99 501//99 500//99
f 500//99 501//99 502//99
f 502//99 501//99 503//99
f 504//99 503//99 501//99
f 505//101 506//30 507//9
f 506//30 505//101 508//30
f 508//30 505//101 509//30
f 509//30 505//101 510//30
f 510//30 505//101 511//30
f 512//29 513//102 514//29
f 514//29 513//102 515//29
f 515//29 513//102 516//29
f 516//29 513//102 517//29
f 518//2 517//29 513//102
f 519//65 374//57 520//65
f 374//57 519//65 373//57
f 375//60 521//66 376//60
f 522//66 376//60 521//66
f 523//90 524//90 525//90
f 524//90 523//90 526//90
f 526//90 523//90 527//90
f 528//89 529//89 530//89
f 530//89 529//89 531//89
f 532//89 531//89 529//89
f 380//97 533//49 378//60
f 533//49 380//97 534//103
f 534//103 380//97 535//61
f 536//58 386//98 537//104
f 537//104 386//98 538//43
f 389//57 538//43 386//98
f 534//103 539//48 533//49
f 539//48 534//103 540//105
f 540//105 534//103 541//51
f 542//44 537//104 543//106
f 543//106 537//104 544//47
f 538//43 544//47 537//104
f 545//107 539//48 540//105
f 539//48 545//107 546//74
f 547//72 548//108 544//47
f 543//106 544//47 548//108
f 549//78 546//74 545//107
f 546//74 549//78 550//80
f 550//80 549//78 551//80
f 552//76 553//77 554//76
f 554//76 553//77 547//72
f 548//108 547//72 553//77
f 555//69 550//80 551//80
f 550//80 555//69 556//69
f 557//70 558//70 554//76
f 552//76 554//76 558//70
f 555//69 559//84 556//69
f 559//84 555//69 560//84
f 561//82 558//70 562//82
f 557//70 562//82 558//70
f 560//84 563//36 559//84
f 563//36 560//84 564//86
f 563//36 564//86 565//109
f 566//110 567//85 568//33
f 567//85 561//82 568//33
f 562//82 568//33 561//82
f 569//111 563//36 565//109
f 563//36 569//111 570//16
f 571//12 572//112 568//33
f 566//110 568//33 572//112
f 569//111 573//10 570//16
f 573//10 569//111 574//113
f 574//113 569//111 575//14
f 576//13 572//112 577//114
f 577//114 572//112 578//3
f 571//12 578//3 572//112
f 574//113 507//9 573//10
f 507//9 574//113 505//101
f 505//101 574//113 579//6
f 580//5 577//114 513//102
f 513//102 577//114 518//2
f 578//3 518//2 577//114
f 345//91 581//70 582//70
f 581//70 345//91 347//76
f 354//80 353//94 583//69
f 584//69 583//69 353//94
f 357//95 581//70 355//82
f 581//70 357//95 582//70
f 584//69 358//96 583//69
f 360//84 583//69 358//96
f 585//33 361//12 362//12
f 361//12 585//33 586//33
f 587//36 588//36 363//16
f 364//16 363//16 588//36
f 589//72 590//76 591//76
f 590//76 589//72 592//72
f 593//74 594//74 595//80
f 596//80 595//80 594//74
f 366//47 592//72 589//72
f 592//72 366//47 368//47
f 369//48 371//48 593//74
f 594//74 593//74 371//48
f 597//82 586//33 585//33
f 586//33 597//82 598//82
f 599//84 600//84 587//36
f 588//36 587//36 600//84
f 601//115 602//116 603//116
f 602//116 601//115 604//115
f 604//115 601//115 605//117
f 604//115 605//117 606//117
f 607//118 608//118 609//119
f 608//118 610//119 609//119
f 609//119 610//119 611//120
f 612//120 611//120 610//119
f 613//121 614//122 615//122
f 614//122 613//121 616//121
f 616//121 613//121 602//116
f 602//116 613//121 603//116
f 612//120 617//123 611//120
f 611//120 617//123 618//123
f 618//123 617//123 619//124
f 620//124 619//124 617//123
f 621//125 622//125 623//125
f 622//125 621//125 624//125
f 625//126 626//126 627//126
f 628//126 627//126 626//126
f 629//127 630//126 631//126
f 630//126 629//127 632//127
f 633//128 634//128 635//125
f 636//125 635//125 634//128
f 637//129 632//127 629//127
f 632//127 637//129 638//129
f 639//130 640//130 633//128
f 634//128 633//128 640//130
f 641//131 638//129 637//129
f 638//129 641//131 642//131
f 643//132 644//132 639//130
f 640//130 639//130 644//132
f 645//133 642//131 641//131
f 642//131 645//133 646//133
f 646//133 645//133 647//134
f 647//134 645//133 648//134
f 649//135 650//136 651//135
f 651//135 650//136 652//136
f 652//136 650//136 643//132
f 644//132 643//132 650//136
f 653//137 654//137 655//137
f 654//137 656//137 657//137
f 656//137 654//137 653//137
f 658//138 659//138 660//138
f 661//138 660//138 659//138
f 662//138 659//138 658//138
f 663//32 664//32 665//32
f 664//32 663//32 666//32
f 666//32 663//32 667//32
f 666//32 667//32 668//32
f 668//32 667//32 669//32
f 668//32 669//32 670//32
f 670//32 669//32 671//32
f 670//32 671//32 672//32
f 672//32 671//32 673//32
f 672//32 673//32 674//32
f 674//32 673//32 675//32
f 674//32 675//32 676//32
f 676//32 675//32 677//32
f 676//32 677//32 678//32
f 678//32 677//32 679//32
f 678//32 679//32 680//32
f 680//32 679//32 681//32
f 680//32 681//32 682//32
f 682//32 681//32 683//32
f 682//32 683//32 684//32
f 684//32 683//32 685//32
f 684//32 685//32 686//32
f 686//32 685//32 687//32
f 686//32 687//32 688//32
f 688//32 687//32 689//32
f 688//32 689//32 690//32
f 688//32 690//32 691//32
f 691//32 690//32 692//32
f 691//32 692//32 693//32
f 693//32 692//32 694//32
f 694//32 692//32 695//32
f 694//32 695//32 696//32
f 696//32 695//32 697//32
f 696//32 697//32 698//32
f 698//32 697//32 699//32
f 698//32 699//32 700//32
f 700//32 699//32 701//32
f 700//32 701//32 702//32
f 702//32 701//32 703//32
f 702//32 703//32 704//32
f 704//32 703//32 705//32
f 704//32 705//32 706//32
f 706//32 705//32 707//32
f 708//31 709//31 710//31
f 710//31 709//31 711//31
f 709//31 712//31 711//31
f 711//31 712//31 713//31
f 712//31 714//31 713//31
f 713//31 714//31 715//31
f 714//31 716//31 715//31
f 715//31 716//31 717//31
f 716//31 718//31 717//31
f 717//31 718//31 719//31
f 718//31 720//31 719//31
f 719//31 720//31 721//31
f 720//31 722//31 721//31
f 721//31 722//31 723//31
f 723//31 722//31 724//31
f 722//31 725//31 724//31
f 724//31 725//31 726//31
f 725//31 727//31 726//31
f 727//31 728//31 726//31
f 726//31 728//31 729//31
f 728//31 730//31 729//31
f 729//31 730//31 731//31
f 730//31 732//31 731//31
f 731//31 732//31 733//31
f 732//31 734//31 733//31
f 733//31 734//31 735//31
f 734//31 736//31 735//31
f 735//31 736//31 737//31
f 736//31 738//31 737//31
f 737//31 738//31 739//31
f 738//31 740//31 739//31
f 739//31 740//31 741//31
f 740//31 742//31 741//31
f 741//31 742//31 743//31
f 742//31 744//31 743//31
f 743//31 744//31 745//31
f 744//31 746//31 745//31
f 745//31 746//31 747//31
f 746//31 748//31 747//31
f 747//31 748//31 749//31
f 748//31 750//31 749//31
f 749//31 750//31 751//31
f 752//31 751//31 750//31
f 753//139 754//140 755//140
f 754//140 753//139 756//139
f 757//141 758//141 759//142
f 760//142 759//142 758//141
f 755//140 761//143 762//143
f 761//143 755//140 754//140
f 759//142 760//142 763//144
f 764//144 763//144 760//142
f 762//143 765//145 766//145
f 765//145 762//143 761//143
f 763//144 764//144 767//146
f 768//146 767//146 764//144
f 766//145 769//147 770//147
f 769//147 766//145 765//145
f 767//146 768//146 771//148
f 772//148 771//148 768//146
f 770//147 773//149 774//149
f 773//149 770//147 769//147
f 771//148 772//148 775//150
f 776//150 775//150 772//148
f 774//149 777//151 778//151
f 777//151 774//149 773//149
f 775//150 776//150 779//152
f 780//152 779//152 776//150
f 778//151 781//153 782//153
f 781//153 778//151 777//151
f 779//152 780//152 783//154
f 784//154 783//154 780//152
f 782//153 606//117 605//117
f 606//117 782//153 781//153
f 783//154 784//154 607//118
f 608//118 607//118 784//154
f 785//70 598//82 597//82
f 598//82 785//70 786//70
f 787//69 788//69 599//84
f 600//84 599//84 788//69
f 591//76 786//70 785//70
f 786//70 591//76 590//76
f 595//80 596//80 787//69
f 788//69 787//69 596//80
f 789//155 790//155 791//155
f 790//155 792//155 793//155
f 792//155 790//155 789//155
f 794//156 795//156 796//156
f 797//156 796//156 795//156
f 798//156 795//156 794//156
f 799//157 800//158 801//158
f 800//158 799//157 802//157
f 802//157 799//157 614//122
f 614//122 799//157 615//122
f 620//124 803//159 619//124
f 619//124 803//159 804//159
f 804//159 803//159 805//160
f 806//160 805//160 803//159
f 807//161 808//161 809//161
f 808//161 807//161 810//161
f 810//161 807//161 811//161
f 810//161 811//161 812//161
f 812//161 811//161 801//158
f 812//161 801//158 800//158
f 805//160 806//160 813//162
f 806//160 814//162 813//162
f 813//162 814//162 815//162
f 814//162 816//162 815//162
f 815//162 816//162 817//162
f 818//162 817//162 816//162
f 819//31 820//31 821//31
f 820//31 819//31 822//31
f 820//31 822//31 823//31
f 824//32 825//32 826//32
f 825//32 827//32 826//32
f 828//32 826//32 827//32
f 829//163 647//134 648//134
f 647//134 829//163 830//163
f 830//163 829//163 831//164
f 830//163 831//164 832//164
f 833//165 834//165 835//166
f 834//165 836//166 835//166
f 835//166 836//166 651//135
f 649//135 651//135 836//166
f 837//167 838//167 839//167
f 838//167 837//167 840//167
f 840//167 837//167 841//167
f 842//168 843//168 844//168
f 844//168 843//168 845//168
f 846//168 845//168 843//168
f 847//169 848//170 849//169
f 848//170 847//169 850//170
f 850//170 847//169 851//170
f 852//171 853//172 854//171
f 854//171 853//172 855//171
f 856//172 855//171 853//172
f 857//173 849//169 858//173
f 849//169 857//173 847//169
f 853//172 859//174 856//172
f 860//174 856//172 859//174
f 861//60 858//173 862//60
f 858//173 861//60 857//173
f 859//174 863//57 860//174
f 864//57 860//174 863//57
f 865//99 862//60 866//99
f 862//60 865//99 861//60
f 863//57 867//100 864//57
f 868//100 864//57 867//100
f 869//2 866//99 870//2
f 866//99 869//2 865//99
f 867//100 871//9 868//100
f 872//9 868//100 871//9
f 873//3 870//2 874//3
f 870//2 873//3 869//2
f 871//9 875//10 872//9
f 876//10 872//9 875//10
f 877//12 874//3 878//12
f 874//3 877//12 873//3
f 875//10 879//16 876//10
f 880//16 876//10 879//16
f 881//33 877//12 878//12
f 877//12 881//33 882//33
f 883//36 884//36 879//16
f 880//16 879//16 884//36
f 885//82 882//33 881//33
f 882//33 885//82 886//82
f 887//84 888//84 883//36
f 884//36 883//36 888//84
f 889//70 886//82 885//82
f 886//82 889//70 890//70
f 891//69 892//69 887//84
f 888//84 887//84 892//69
f 893//76 890//70 889//70
f 890//70 893//76 894//76
f 895//80 896//80 891//69
f 892//69 891//69 896//80
f 897//72 894//76 893//76
f 894//76 897//72 898//72
f 899//74 900//74 895//80
f 896//80 895//80 900//74
f 901//47 898//72 897//72
f 898//72 901//47 902//47
f 903//48 904//48 899//74
f 900//74 899//74 904//48
f 905//43 901//47 906//43
f 901//47 905//43 902//47
f 903//48 907//49 904//48
f 908//49 904//48 907//49
f 909//57 906//43 910//57
f 906//43 909//57 905//43
f 907//49 911//60 908//49
f 912//60 908//49 911//60
f 913//100 910//57 914//100
f 910//57 913//100 909//57
f 911//60 915//99 912//60
f 916//99 912//60 915//99
f 917//9 914//100 918//9
f 914//100 917//9 913//100
f 915//99 919//2 916//99
f 920//2 916//99 919//2
f 921//175 918//9 922//175
f 918//9 921//175 917//9
f 917//9 921//175 923//6
f 924//5 925//176 919//2
f 919//2 925//176 920//2
f 926//176 920//2 925//176
f 927//177 922//175 928//177
f 922//175 927//177 921//175
f 925//176 929//178 926//176
f 930//178 926//176 929//178
f 931//179 928//177 932//179
f 928//177 931//179 927//177
f 929//178 933//180 930//178
f 934//180 930//178 933//180
f 935//179 936//179 937//179
f 936//179 935//179 938//179
f 939//180 940//180 941//180
f 942//180 941//180 940//180
f 943//181 944//181 945//181
f 944//181 943//181 946//181
f 947//182 948//182 949//182
f 950//182 949//182 948//182
f 951//183 952//183 953//183
f 952//183 951//183 954//183
f 955//184 956//184 957//184
f 958//184 957//184 956//184
f 959//185 960//185 961//185
f 960//185 959//185 962//185
f 963//186 964//186 965//186
f 966//186 965//186 964//186
f 967//187 968//187 969//187
f 968//187 967//187 970//187
f 971//188 972//188 973//188
f 974//188 973//188 972//188
f 975//189 976//189 977//189
f 976//189 975//189 978//189
f 979//190 980//190 981//190
f 982//190 981//190 980//190
f 983//191 984//191 985//191
f 984//191 983//191 986//191
f 984//191 986//191 987//191
f 988//192 989//192 990//192
f 989//192 991//192 990//192
f 992//192 990//192 991//192
f 993//193 994//193 995//193
f 994//193 993//193 996//193
f 997//194 998//194 999//194
f 1000//194 999//194 998//194
f 1001//195 1002//195 1003//195
f 1002//195 1001//195 1004//195
f 1002//195 1004//195 1005//195
f 1006//196 1007//196 1008//196
f 1007//196 1009//196 1008//196
f 1010//196 1008//196 1009//196
f 1011//197 1012//197 1013//197
f 1012//197 1011//197 1014//197
f 1015//198 1016//198 1017//198
f 1018//198 1017//198 1016//198
f 1019//199 1020//199 1021//199
f 1020//199 1019//199 1022//199
f 1022//199 1019//199 1023//199
f 1024//200 1025//200 1026//200
f 1026//200 1025//200 1027//200
f 1028//200 1027//200 1025//200
f 1029//201 1030//201 1031//201
f 1030//201 1029//201 1032//201
f 1033//202 1034//202 1035//202
f 1036//202 1035//202 1034//202
f 1037//203 1038//203 1039//203
f 1038//203 1037//203 1040//203
f 1041//204 1042//204 1043//204
f 1044//204 1043//204 1042//204
f 1045//205 1046//205 1047//205
f 1046//205 1045//205 1048//205
f 1049//206 1050//206 1051//206
f 1052//206 1051//206 1050//206
f 1053//207 1054//207 1055//207
f 1054//207 1053//207 1056//207
f 1057//208 1058//208 1059//208
f 1060//208 1059//208 1058//208
f 1061//209 1062//209 1063//209
f 1062//209 1061//209 1064//209
f 1065//210 1066//210 1067//210
f 1068//210 1067//210 1066//210
f 1069//170 1070//170 1071//170
f 1070//170 1069//170 1072//170
f 1073//171 1074//171 1075//171
f 1076//171 1075//171 1074//171
f 1077//211 832//164 831//164
f 832//164 1077//211 1078//211
f 1078//211 1077//211 1079//211
f 1079//211 1077//211 1080//211
f 1079//211 1080//211 1081//212
f 1079//211 1081//212 1082//213
f 1083//214 1084//215 1085//216
f 1084//215 1086//216 1085//216
f 1086//216 1087//216 1085//216
f 1085//216 1087//216 1088//216
f 1088//216 1087//216 833//165
f 834//165 833//165 1087//216
f 1089//31 1090//31 1091//31
f 1090//31 1089//31 1092//31
f 1092//31 1089//31 1093//31
f 1092//31 1093//31 1094//31
f 1094//31 1093//31 1095//31
f 1094//31 1095//31 1096//31
f 1096//31 1095//31 1097//31
f 1096//31 1097//31 1098//31
f 1098//31 1097//31 1099//31
f 1098//31 1099//31 1100//31
f 1100//31 1099//31 1101//31
f 1101//31 1099//31 1102//31
f 1102//31 1099//31 1103//31
f 1102//31 1103//31 1104//31
f 1104//31 1103//31 1105//31
f 1105//31 1103//31 1106//31
f 1106//31 1103//31 1107//31
f 1106//31 1107//31 1108//31
f 1108//31 1107//31 1109//31
f 1109//31 1107//31 1110//31
f 1109//31 1110//31 1111//31
f 1111//31 1110//31 1112//31
f 1112//31 1110//31 1113//31
f 1113//31 1110//31 1114//31
f 1113//31 1114//31 1115//31
f 1115//31 1114//31 1116//31
f 1116//31 1114//31 1117//31
f 1100//31 1118//31 1098//31
f 1118//31 1100//31 1119//31
f 1118//31 1119//31 1120//31
f 1118//31 1120//31 1121//31
f 1121//31 1120//31 1122//31
f 1121//31 1122//31 1123//31
f 1121//31 1123//31 1124//31
f 1121//31 1124//31 1125//31
f 1125//31 1124//31 1126//31
f 1125//31 1126//31 1127//31
f 1125//31 1127//31 1128//31
f 1125//31 1128//31 1129//31
f 1129//31 1128//31 1130//31
f 1129//31 1130//31 1131//31
f 1129//31 1131//31 1132//31
f 1132//31 1131//31 1133//31
f 1132//31 1133//31 1134//31
f 1132//31 1134//31 1117//31
f 1132//31 1117//31 1114//31
f 1132//31 1114//31 1135//31
f 1132//31 1135//31 1136//31
f 1136//31 1135//31 1137//31
f 1136//31 1137//31 1138//31
f 1138//31 1137//31 1139//31
f 1138//31 1139//31 1140//31
f 1140//31 1139//31 1141//31
f 1142//32 1143//32 1144//32
f 1144//32 1143//32 1145//32
f 1143//32 1146//32 1145//32
f 1145//32 1146//32 1147//32
f 1146//32 1148//32 1147//32
f 1147//32 1148//32 1149//32
f 1148//32 1150//32 1149//32
f 1150//32 1151//32 1149//32
f 1151//32 1152//32 1149//32
f 1152//32 1153//32 1149//32
f 1153//32 1154//32 1149//32
f 1149//32 1154//32 1155//32
f 1154//32 1156//32 1155//32
f 1156//32 1157//32 1155//32
f 1155//32 1157//32 1158//32
f 1157//32 1159//32 1158//32
f 1159//32 1160//32 1158//32
f 1160//32 1161//32 1158//32
f 1158//32 1161//32 1162//32
f 1161//32 1163//32 1162//32
f 1163//32 1164//32 1162//32
f 1164//32 1165//32 1162//32
f 1162//32 1165//32 1166//32
f 1165//32 1167//32 1166//32
f 1167//32 1168//32 1166//32
f 1169//32 1166//32 1168//32
f 1151//32 1150//32 1170//32
f 1170//32 1150//32 1171//32
f 1171//32 1150//32 1172//32
f 1150//32 1173//32 1172//32
f 1172//32 1173//32 1174//32
f 1174//32 1173//32 1175//32
f 1175//32 1173//32 1176//32
f 1173//32 1177//32 1176//32
f 1176//32 1177//32 1178//32
f 1178//32 1177//32 1179//32
f 1177//32 1180//32 1179//32
f 1179//32 1180//32 1181//32
f 1181//32 1180//32 1182//32
f 1182//32 1180//32 1183//32
f 1180//32 1184//32 1183//32
f 1183//32 1184//32 1185//32
f 1185//32 1184//32 1168//32
f 1168//32 1184//32 1169//32
f 1184//32 1186//32 1169//32
f 1169//32 1186//32 1187//32
f 1186//32 1188//32 1187//32
f 1187//32 1188//32 1189//32
f 1188//32 1190//32 1189//32
f 1189//32 1190//32 1191//32
f 1190//32 1192//32 1191//32
f 1191//32 1192//32 1193//32
f 1194//32 1193//32 1192//32
f 1195//217 1196//218 1197//219
f 1196//218 1195//217 1198//217
f 1198//217 1195//217 1199//217
f 1199//217 1195//217 1200//217
f 1201//220 1202//220 1203//220
f 1203//220 1202//220 1204//220
f 1204//220 1202//220 1205//221
f 1206//222 1205//221 1202//220
f 1207//223 1082//213 1081//212
f 1082//213 1207//223 1208//223
f 1208//223 1207//223 1197//219
f 1208//223 1197//219 1196//218
f 1205//221 1206//222 1209//224
f 1206//222 1210//224 1209//224
f 1209//224 1210//224 1083//214
f 1084//215 1083//214 1210//224
