# SSTK version 0.8.0
# 17
mtllib original_17.mtl
o #ID122
v 0.02359545 -0.65540129 0.01531754
v 0.02483756 -0.65524073 -0.00458787
v 0.02824605 -0.65535846 0.00951298
v 0.02401894 -0.65535028 0.00087752
v 0.02218572 -0.65523431 0.00600865
v 0.01794702 -0.65511318 0.01991380
v 0.01866098 -0.65535254 0.01014417
v 0.01430364 -0.65523903 0.01341004
v 0.01117870 -0.65534252 0.02240641
v 0.00917087 -0.65535816 0.01567798
v 0.00387318 -0.65530905 0.02351492
v 0.00376257 -0.65533140 0.01642859
v -0.00143315 -0.65523200 0.01578029
v -0.00336393 -0.65519613 0.02255925
v -0.00650001 -0.65523958 0.01355490
v -0.01017612 -0.65532928 0.01975249
v -0.01090053 -0.65540052 0.01018541
v -0.01601861 -0.65539348 0.01520876
v -0.01429057 -0.65541319 0.00582025
v -0.01626816 -0.65525580 0.00101487
v -0.02056951 -0.65529085 0.00951286
v -0.01709777 -0.65546932 -0.00468173
v -0.02050126 -0.65533648 -0.01870152
v -0.02335334 -0.65538301 -0.01192963
v -0.02325712 -0.65535712 0.00265606
v -0.02428281 -0.65536271 -0.00448706
v 0.03108825 -0.65536157 0.00257597
v 0.03099725 -0.65525411 -0.01201012
v 0.03200167 -0.65514833 -0.00475996
v 0.02815360 -0.65532452 -0.01870420
v 0.02364535 -0.65540317 -0.02438156
v 0.02413180 -0.65532637 -0.01002740
v 0.02193119 -0.65520258 -0.01514056
v 0.01780383 -0.65529464 -0.02900241
v 0.01862212 -0.65532565 -0.01935787
v 0.01432818 -0.65530091 -0.02290637
v 0.01100840 -0.65527656 -0.03180358
v 0.00932540 -0.65527176 -0.02471971
v 0.00381794 -0.65532561 -0.03279991
v 0.00381822 -0.65527882 -0.02549838
v -0.00152533 -0.65519278 -0.02486880
v -0.00354036 -0.65531193 -0.03188334
v -0.00668453 -0.65529331 -0.02277886
v -0.01020064 -0.65518103 -0.02908119
v -0.01093821 -0.65522450 -0.01952381
v -0.01622026 -0.65528286 -0.02441363
v -0.01435174 -0.65522222 -0.01502045
v -0.01632752 -0.65541363 -0.01007534
v -0.01710589 -0.65525846 -0.00459324
v -0.01644968 -0.65521294 -0.00990583
v -0.02066683 -0.65530750 -0.01862076
v -0.01608264 -0.65539443 -0.02454741
v -0.01445324 -0.65527179 -0.01514732
v -0.01083105 -0.65529686 -0.01935150
v -0.01016989 -0.65526566 -0.02903095
v -0.00656960 -0.65515583 -0.02278619
v -0.00328084 -0.65525309 -0.03158399
v -0.00154451 -0.65511071 -0.02493721
v 0.00398458 -0.65531560 -0.03255265
v 0.00380938 -0.65543147 -0.02541547
v 0.00938369 -0.65537286 -0.02488700
v 0.01121494 -0.65532179 -0.03175629
v 0.01427808 -0.65522601 -0.02282881
v 0.01793919 -0.65520749 -0.02898478
v 0.01869538 -0.65520688 -0.01931500
v 0.02196470 -0.65526563 -0.01506626
v 0.02366593 -0.65537015 -0.02443856
v 0.02407885 -0.65537087 -0.01003446
v 0.02477371 -0.65519440 -0.00449156
v 0.02814701 -0.65533311 0.00947684
v 0.02820865 -0.65517527 -0.01869979
v 0.03103476 -0.65530790 0.00273786
v 0.03103183 -0.65531398 -0.01181990
v 0.03182498 -0.65531934 -0.00472716
v -0.02435994 -0.65542732 -0.00451389
v -0.02326019 -0.65541166 0.00252408
v -0.02339302 -0.65532278 -0.01186840
v -0.02052998 -0.65540611 0.00948091
v -0.01637239 -0.65521825 0.00094262
v -0.01615486 -0.65528250 0.01542385
v -0.01440653 -0.65522511 0.00604104
v -0.01087249 -0.65514029 0.01029958
v -0.01023905 -0.65537518 0.01987174
v -0.00661286 -0.65515568 0.01362394
v -0.00334139 -0.65529336 0.02275791
v -0.00153318 -0.65529825 0.01559923
v 0.00381271 -0.65514158 0.02353876
v 0.00387245 -0.65514744 0.01639598
v 0.00937731 -0.65539246 0.01565101
v 0.01105589 -0.65535856 0.02273788
v 0.01427021 -0.65532964 0.01362598
v 0.01785702 -0.65518197 0.01990726
v 0.01856781 -0.65525277 0.01026345
v 0.02188926 -0.65524961 0.00601652
v 0.02367671 -0.65524918 0.01518915
v 0.02401766 -0.65529797 0.00082578
v 0.00386061 0.07607568 0.02350604
v -0.00330198 -0.65532287 0.02245911
v 0.00384646 -0.65532552 0.02365279
v -0.00343049 0.07630530 0.02265690
v -0.00332610 0.07621583 0.02247450
v 0.00391394 0.07622039 0.02355541
v -0.00342855 -0.65532317 0.02267513
v 0.00374131 -0.65540475 0.02354810
v -0.01016471 -0.65527370 0.01993699
v -0.01019674 0.07624104 0.01967778
v -0.01013232 0.07615898 0.01976141
v -0.01036133 -0.65518839 0.01971087
v -0.01602534 -0.65527109 0.01533550
v -0.01600601 0.07624747 0.01538255
v -0.01621653 0.07623347 0.01518924
v -0.01601601 -0.65529700 0.01517386
v -0.02058752 0.07623195 0.00951957
v -0.02036324 -0.65532905 0.00947798
v -0.02053673 0.07603141 0.00955217
v -0.02058651 -0.65522031 0.00944941
v -0.02337360 0.07616799 0.00267815
v -0.02324824 -0.65534864 0.00280709
v -0.02331165 0.07612582 0.00267698
v -0.02327524 -0.65518587 0.00266427
v -0.02433513 0.07604610 -0.00459556
v -0.02428530 -0.65530453 -0.00459105
v -0.02429999 0.07616861 -0.00443745
v -0.02421172 -0.65521501 -0.00453294
v -0.02336975 0.07621020 -0.01188606
v -0.02321269 -0.65531389 -0.01178622
v -0.02320044 0.07611848 -0.01179503
v -0.02331854 -0.65533312 -0.01190039
v -0.02048852 0.07619244 -0.01859273
v -0.02043441 -0.65530819 -0.01880856
v -0.02035881 0.07613187 -0.01868723
v -0.02063765 -0.65531466 -0.01879383
v -0.01592815 0.07617215 -0.02443278
v -0.01602993 -0.65524031 -0.02445644
v -0.01597488 0.07610244 -0.02444242
v -0.01607235 -0.65524436 -0.02445652
v -0.01015163 -0.65529728 -0.02902150
v -0.01033748 0.07617792 -0.02896673
v -0.01026138 0.07602694 -0.02881055
v -0.01010309 -0.65516910 -0.02896632
v -0.00352191 -0.65526603 -0.03174859
v -0.00350082 0.07620112 -0.03173448
v -0.00340829 0.07613190 -0.03191147
v -0.00346751 -0.65530808 -0.03188277
v 0.00372100 -0.65524980 -0.03259577
v 0.00392495 0.07598002 -0.03273973
v 0.00384616 0.07610185 -0.03259777
v 0.00385246 -0.65517133 -0.03264681
v 0.01110484 -0.65524689 -0.03173473
v 0.01121536 0.07619920 -0.03170045
v 0.01095687 0.07620824 -0.03165206
v 0.01113041 -0.65541420 -0.03168344
v 0.01786577 -0.65529253 -0.02894972
v 0.01778392 0.07613499 -0.02897409
v 0.01793400 0.07609684 -0.02883182
v 0.01790786 -0.65521086 -0.02904986
v 0.02371383 -0.65515215 -0.02448259
v 0.02375006 0.07607467 -0.02444944
v 0.02381895 0.07599980 -0.02440477
v 0.02369526 -0.65526606 -0.02436329
v 0.02828343 0.07618827 -0.01846342
v 0.02820661 -0.65525028 -0.01876607
v 0.02827220 -0.65528900 -0.01854363
v 0.02815535 0.07622566 -0.01868705
v 0.03109165 0.07613263 -0.01196286
v 0.03106940 -0.65521185 -0.01193714
v 0.03106241 -0.65529212 -0.01186371
v 0.03102335 0.07608489 -0.01198954
v 0.03205709 0.07626228 -0.00462214
v 0.03197559 -0.65526906 -0.00466387
v 0.03210986 -0.65519566 -0.00454637
v 0.03208516 0.07608823 -0.00462271
v 0.03093484 0.07616862 0.00269399
v 0.03108319 -0.65525048 0.00271348
v 0.03093016 -0.65527052 0.00258651
v 0.03100367 0.07610860 0.00264700
v 0.02818856 0.07617044 0.00947683
v 0.02815487 -0.65538071 0.00940096
v 0.02822581 -0.65512054 0.00946056
v 0.02812891 0.07617400 0.00934424
v 0.02358664 0.07624614 0.01543493
v 0.02387384 -0.65531447 0.01536833
v 0.02394181 -0.65527957 0.01536575
v 0.02368109 0.07624897 0.01540502
v 0.01807070 -0.65510059 0.01982402
v 0.01775752 0.07595477 0.01970353
v 0.01797729 0.07627136 0.01981518
v 0.01786447 -0.65524104 0.01966493
v 0.01125865 -0.65532852 0.02253778
v 0.01118422 0.07620547 0.02249164
v 0.01122178 0.07613006 0.02260424
v 0.01100527 -0.65533720 0.02260967
vn 0 -1 0
vn 0 1 0
vn 0 0 1
vn -0.25881900959356163 0 0.9659258358036645
vn 0.25881900959356163 0 -0.9659258358036645
vn 0 0 -1
vn -0.5000000016387101 0 0.866025402838329
vn 0.5000000016387101 0 -0.866025402838329
vn -0.7071067811865476 0 0.7071067811865476
vn 0.7071067811865476 0 -0.7071067811865476
vn -0.866025402838329 0 0.5000000016387101
vn 0.866025402838329 0 -0.5000000016387101
vn -0.9659258358036645 0 0.25881900959356163
vn 0.9659258358036645 0 -0.25881900959356163
vn -1 0 0
vn 1 0 0
vn -0.9659258358036645 0 -0.25881900959356163
vn 0.9659258358036645 0 0.25881900959356163
vn -0.866025402838329 0 -0.5000000016387101
vn 0.866025402838329 0 0.5000000016387101
vn -0.7071067811865476 0 -0.7071067811865476
vn 0.7071067811865476 0 0.7071067811865476
vn -0.5000000016387101 0 -0.866025402838329
vn 0.5000000016387101 0 0.866025402838329
vn -0.25881900959356163 0 -0.9659258358036645
vn 0.25881900959356163 0 0.9659258358036645
usemtl material_0_0
f 1//1 2//1 3//1
f 2//1 1//1 4//1
f 4//1 1//1 5//1
f 5//1 1//1 6//1
f 5//1 6//1 7//1
f 7//1 6//1 8//1
f 8//1 6//1 9//1
f 8//1 9//1 10//1
f 10//1 9//1 11//1
f 10//1 11//1 12//1
f 12//1 11//1 13//1
f 13//1 11//1 14//1
f 13//1 14//1 15//1
f 15//1 14//1 16//1
f 15//1 16//1 17//1
f 17//1 16//1 18//1
f 17//1 18//1 19//1
f 19//1 18//1 20//1
f 20//1 18//1 21//1
f 20//1 21//1 22//1
f 22//1 21//1 23//1
f 23//1 21//1 24//1
f 24//1 21//1 25//1
f 24//1 25//1 26//1
f 27//1 28//1 29//1
f 28//1 27//1 30//1
f 30//1 27//1 3//1
f 30//1 3//1 31//1
f 31//1 3//1 2//1
f 31//1 2//1 32//1
f 31//1 32//1 33//1
f 31//1 33//1 34//1
f 34//1 33//1 35//1
f 34//1 35//1 36//1
f 34//1 36//1 37//1
f 37//1 36//1 38//1
f 37//1 38//1 39//1
f 39//1 38//1 40//1
f 39//1 40//1 41//1
f 39//1 41//1 42//1
f 42//1 41//1 43//1
f 42//1 43//1 44//1
f 44//1 43//1 45//1
f 44//1 45//1 46//1
f 46//1 45//1 47//1
f 46//1 47//1 48//1
f 46//1 48//1 23//1
f 23//1 48//1 22//1
f 49//2 50//2 51//2
f 51//2 50//2 52//2
f 50//2 53//2 52//2
f 53//2 54//2 52//2
f 52//2 54//2 55//2
f 54//2 56//2 55//2
f 55//2 56//2 57//2
f 56//2 58//2 57//2
f 57//2 58//2 59//2
f 58//2 60//2 59//2
f 60//2 61//2 59//2
f 59//2 61//2 62//2
f 61//2 63//2 62//2
f 62//2 63//2 64//2
f 63//2 65//2 64//2
f 65//2 66//2 64//2
f 64//2 66//2 67//2
f 66//2 68//2 67//2
f 68//2 69//2 67//2
f 69//2 70//2 67//2
f 67//2 70//2 71//2
f 70//2 72//2 71//2
f 71//2 72//2 73//2
f 74//2 73//2 72//2
f 75//2 76//2 77//2
f 76//2 78//2 77//2
f 77//2 78//2 51//2
f 51//2 78//2 49//2
f 49//2 78//2 79//2
f 78//2 80//2 79//2
f 79//2 80//2 81//2
f 81//2 80//2 82//2
f 80//2 83//2 82//2
f 82//2 83//2 84//2
f 83//2 85//2 84//2
f 84//2 85//2 86//2
f 85//2 87//2 86//2
f 86//2 87//2 88//2
f 88//2 87//2 89//2
f 87//2 90//2 89//2
f 89//2 90//2 91//2
f 90//2 92//2 91//2
f 91//2 92//2 93//2
f 93//2 92//2 94//2
f 92//2 95//2 94//2
f 94//2 95//2 96//2
f 96//2 95//2 69//2
f 70//2 69//2 95//2
f 97//3 98//4 99//3
f 98//4 97//3 100//4
f 101//5 102//6 103//5
f 104//6 103//5 102//6
f 100//4 105//7 98//4
f 105//7 100//4 106//7
f 107//8 101//5 108//8
f 103//5 108//8 101//5
f 106//7 109//9 105//7
f 109//9 106//7 110//9
f 111//10 107//8 112//10
f 108//8 112//10 107//8
f 109//9 113//11 114//11
f 113//11 109//9 110//9
f 111//10 112//10 115//12
f 116//12 115//12 112//10
f 114//11 117//13 118//13
f 117//13 114//11 113//11
f 115//12 116//12 119//14
f 120//14 119//14 116//12
f 118//13 121//15 122//15
f 121//15 118//13 117//13
f 119//14 120//14 123//16
f 124//16 123//16 120//14
f 122//15 125//17 126//17
f 125//17 122//15 121//15
f 123//16 124//16 127//18
f 128//18 127//18 124//16
f 126//17 129//19 130//19
f 129//19 126//17 125//17
f 127//18 128//18 131//20
f 132//20 131//20 128//18
f 130//19 133//21 134//21
f 133//21 130//19 129//19
f 131//20 132//20 135//22
f 136//22 135//22 132//20
f 133//21 137//23 134//21
f 137//23 133//21 138//23
f 139//24 135//22 140//24
f 136//22 140//24 135//22
f 138//23 141//25 137//23
f 141//25 138//23 142//25
f 143//26 139//24 144//26
f 140//24 144//26 139//24
f 142//25 145//6 141//25
f 145//6 142//25 146//6
f 147//3 143//26 148//3
f 144//26 148//3 143//26
f 146//6 149//5 145//6
f 149//5 146//6 150//5
f 151//4 147//3 152//4
f 148//3 152//4 147//3
f 150//5 153//8 149//5
f 153//8 150//5 154//8
f 155//7 151//4 156//7
f 152//4 156//7 151//4
f 154//8 157//10 153//8
f 157//10 154//8 158//10
f 159//9 155//7 160//9
f 156//7 160//9 155//7
f 161//12 157//10 158//10
f 157//10 161//12 162//12
f 163//11 164//11 160//9
f 159//9 160//9 164//11
f 165//14 162//12 161//12
f 162//12 165//14 166//14
f 167//13 168//13 163//11
f 164//11 163//11 168//13
f 169//16 166//14 165//14
f 166//14 169//16 170//16
f 171//15 172//15 167//13
f 168//13 167//13 172//15
f 173//18 170//16 169//16
f 170//16 173//18 174//18
f 175//17 176//17 171//15
f 172//15 171//15 176//17
f 177//20 174//18 173//18
f 174//18 177//20 178//20
f 179//19 180//19 175//17
f 176//17 175//17 180//19
f 181//22 178//20 177//20
f 178//20 181//22 182//22
f 183//21 184//21 179//19
f 180//19 179//19 184//21
f 181//22 185//24 182//22
f 185//24 181//22 186//24
f 187//23 184//21 188//23
f 183//21 188//23 184//21
f 186//24 189//26 185//24
f 189//26 186//24 190//26
f 191//25 187//23 192//25
f 188//23 192//25 187//23
f 190//26 99//3 189//26
f 99//3 190//26 97//3
f 102//6 191//25 104//6
f 192//25 104//6 191//25
