# SSTK version 0.8.0
# 20
mtllib original_20.mtl
o #ID140
v 0.07170665 0.55419946 -0.02279338
v 0.07179334 0.55436111 0.01352718
v 0.07429313 0.55434013 -0.00455022
v 0.06475690 0.55423557 -0.03967490
v 0.06457716 0.55439544 0.03053613
v 0.05364078 0.55431721 -0.05434087
v 0.05348316 0.55432825 0.04507063
v 0.03895228 0.55434043 -0.06545689
v 0.03899332 0.55430763 0.05626126
v 0.03892189 0.55433736 -0.00469967
v 0.03783202 0.55442052 -0.01364364
v 0.02188618 0.55446327 -0.07249065
v 0.03425083 0.55432258 -0.02216998
v 0.02865319 0.55435343 -0.02937737
v 0.02130213 0.55416417 -0.03491078
v 0.00378605 0.55423083 -0.07483043
v 0.01307696 0.55445409 -0.03855353
v 0.00395497 0.55445551 -0.03969874
v -0.00514638 0.55428328 -0.03854091
v -0.01436400 0.55422853 -0.07246192
v -0.01362900 0.55433333 -0.03503160
v -0.02090234 0.55438411 -0.02939753
v -0.03132244 0.55438436 -0.06537891
v -0.02674076 0.55425438 -0.02224441
v -0.03019490 0.55434237 -0.01371270
v -0.03139885 0.55432588 -0.00457443
v -0.04583643 0.55428742 -0.05418677
v -0.03122851 0.55433965 0.05622242
v -0.04592810 0.55446225 0.04498693
v -0.05703969 0.55442011 -0.03986299
v -0.05719779 0.55429474 0.03060999
v -0.06402812 0.55444473 -0.02263922
v -0.06389908 0.55450545 0.01362624
v -0.06660191 0.55430965 -0.00462832
v 0.03767783 0.55442529 0.00451098
v 0.02211436 0.55430617 0.06325579
v 0.03432735 0.55437719 0.01310859
v 0.02858225 0.55437159 0.02034081
v 0.02139298 0.55441398 0.02593994
v 0.00399951 0.55416453 0.06579671
v 0.01291830 0.55435858 0.02933960
v 0.00403168 0.55436529 0.03064298
v -0.01433531 0.55445050 0.06350498
v -0.00524061 0.55442175 0.02940631
v -0.01359142 0.55442600 0.02578971
v -0.02111382 0.55436463 0.02027196
v -0.02660870 0.55421004 0.01297236
v -0.03012397 0.55417753 0.00443086
v -0.03133843 0.55440535 -0.00466204
v -0.03024062 0.55435037 0.00436520
v -0.03123771 0.55443578 0.05632346
v -0.02665278 0.55439515 0.01293439
v -0.02102275 0.55440924 0.02028067
v -0.01427954 0.55441952 0.06330463
v -0.01371854 0.55437760 0.02579001
v -0.00541002 0.55433981 0.02945162
v 0.00383261 0.55441196 0.03071634
v 0.00393493 0.55426567 0.06561794
v 0.01282198 0.55452103 0.02944729
v 0.02141768 0.55444391 0.02583215
v 0.02224540 0.55444756 0.06324402
v 0.02871448 0.55429490 0.02040884
v 0.03432661 0.55422676 0.01296066
v 0.03790527 0.55427389 0.00442571
v 0.03909795 0.55439207 -0.00464515
v 0.03889132 0.55438940 0.05633398
v -0.06641156 0.55433223 -0.00439381
v -0.06410167 0.55433759 -0.02283191
v -0.06398526 0.55446280 0.01362755
v -0.05719008 0.55447686 0.03056126
v -0.05695475 0.55427652 -0.03975856
v -0.04580065 0.55450447 0.04499711
v -0.04575581 0.55439289 -0.05425204
v -0.03139709 0.55439572 -0.06555832
v -0.03016959 0.55440889 -0.01368805
v -0.02653548 0.55427491 -0.02219088
v -0.02100744 0.55433792 -0.02944475
v -0.01424097 0.55434352 -0.07252537
v -0.01372581 0.55435363 -0.03508827
v -0.00524348 0.55440358 -0.03841993
v 0.00401993 0.55425274 -0.07493779
v 0.00381967 0.55436311 -0.03988118
v 0.01291903 0.55432018 -0.03849697
v 0.02138774 0.55429131 -0.03485734
v 0.02213640 0.55430200 -0.07248085
v 0.02867922 0.55437615 -0.02934964
v 0.03447586 0.55447438 -0.02213976
v 0.03788196 0.55433015 -0.01356785
v 0.03907773 0.55438373 -0.06550626
v 0.05352189 0.55435619 0.04526854
v 0.05342655 0.55429847 -0.05420461
v 0.06465759 0.55440739 0.03045610
v 0.06459736 0.55433194 -0.03988543
v 0.07161540 0.55437187 0.01364347
v 0.07168358 0.55440295 -0.02273202
v 0.07424287 0.55432534 -0.00453407
v -0.06408622 0.30111549 0.01356378
v -0.06631058 0.55435276 -0.00452270
v -0.06650151 0.30118171 -0.00447122
v -0.06403428 0.55431350 0.01365138
v -0.06404158 0.55436743 0.01353900
v -0.06416459 0.30132348 0.01369596
v -0.06646256 0.55419546 -0.00474848
v -0.06653855 0.30123595 -0.00449604
v -0.05691696 0.30120980 0.03048739
v -0.05718002 0.55441085 0.03071564
v -0.05700111 0.55433140 0.03070869
v -0.05704021 0.30118910 0.03070058
v -0.04577629 0.30121089 0.04522736
v -0.04574520 0.55446906 0.04506786
v -0.04595932 0.55440654 0.04505483
v -0.04592859 0.30120021 0.04504540
v -0.03146357 0.55426161 0.05625852
v -0.03135967 0.30117602 0.05643050
v -0.03117903 0.55435933 0.05636815
v -0.03134531 0.30118879 0.05637972
v -0.01432025 0.55426171 0.06332406
v -0.01433411 0.30114837 0.06321322
v -0.01449553 0.55453644 0.06343755
v -0.01424937 0.30125559 0.06324952
v 0.00376064 0.55441718 0.06565042
v 0.00399449 0.30116108 0.06567300
v 0.00383428 0.55439221 0.06571538
v 0.00393875 0.30117205 0.06566292
v 0.02202012 0.55433365 0.06349439
v 0.02219737 0.30107576 0.06338950
v 0.02212175 0.55446860 0.06341836
v 0.02207896 0.30118852 0.06325451
v 0.03900248 0.55431572 0.05644394
v 0.03903464 0.30117572 0.05641012
v 0.03910973 0.55421683 0.05628431
v 0.03905572 0.30119156 0.05623951
v 0.05352814 0.55434922 0.04522776
v 0.05350476 0.30105661 0.04506025
v 0.05349432 0.55425136 0.04498605
v 0.05362864 0.30108709 0.04521960
v 0.06477711 0.30120491 0.03059991
v 0.06483390 0.55452716 0.03048202
v 0.06474484 0.30126172 0.03044328
v 0.06476745 0.55428896 0.03055779
v 0.07177741 0.30122540 0.01358314
v 0.07166177 0.55432010 0.01359234
v 0.07181597 0.30118568 0.01357368
v 0.07175529 0.55431933 0.01362690
v 0.07420994 0.30110392 -0.00461629
v 0.07426410 0.55444012 -0.00453610
v 0.07405307 0.30110148 -0.00456614
v 0.07423651 0.55432967 -0.00458416
v 0.07171654 0.30121841 -0.02274739
v 0.07173181 0.55431814 -0.02281016
v 0.07188185 0.30134777 -0.02281695
v 0.07168511 0.55429403 -0.02278586
v 0.06475761 0.30112445 -0.03981362
v 0.06476416 0.55447357 -0.03971647
v 0.06462894 0.30106427 -0.03972794
v 0.06469608 0.55438679 -0.03973769
v 0.05359667 0.30110757 -0.05437242
v 0.05364329 0.55436986 -0.05441437
v 0.05338956 0.30112348 -0.05422344
v 0.05357178 0.55437650 -0.05430660
v 0.03906554 0.55419832 -0.06542537
v 0.03900067 0.30111045 -0.06533428
v 0.03898502 0.55430872 -0.06539881
v 0.03897986 0.30124603 -0.06554948
v 0.02216145 0.55441020 -0.07238638
v 0.02207242 0.30117174 -0.07258571
v 0.02197751 0.55436084 -0.07261037
v 0.02198346 0.30106150 -0.07245670
v 0.00383901 0.55447132 -0.07492846
v 0.00385746 0.30123339 -0.07489073
v 0.00390502 0.55437806 -0.07503773
v 0.00388085 0.30110158 -0.07488025
v -0.01440249 0.55432159 -0.07255081
v -0.01417249 0.30128027 -0.07257256
v -0.01438589 0.55424783 -0.07245937
v -0.01441971 0.30098277 -0.07247069
v -0.03149423 0.55437892 -0.06549725
v -0.03137615 0.30104221 -0.06551740
v -0.03137151 0.55452281 -0.06552964
v -0.03126943 0.30118404 -0.06548371
v -0.04584617 0.55448803 -0.05426665
v -0.04596405 0.30119587 -0.05428015
v -0.04587251 0.55434497 -0.05437347
v -0.04577869 0.30114349 -0.05424555
v -0.05710721 0.30113175 -0.03973842
v -0.05693578 0.55453745 -0.03964317
v -0.05704090 0.55439663 -0.03975140
v -0.05713342 0.30124372 -0.03990863
v -0.06389978 0.30132540 -0.02272611
v -0.06394371 0.55445351 -0.02280516
v -0.06416154 0.55435975 -0.02270231
v -0.06397918 0.30127755 -0.02277622
v 0.07175322 0.30112045 0.01366987
v 0.07169602 0.30130151 -0.02279496
v 0.07424370 0.30120855 -0.00460359
v 0.06462787 0.30116794 -0.03963872
v 0.06474752 0.30122545 0.03053647
v 0.06092420 0.30119100 -0.00450056
v 0.05902182 0.30124981 0.01017156
v 0.05358531 0.30112447 0.04512212
v 0.05321037 0.30111534 0.02383027
v 0.03898695 0.30113688 0.05621076
v 0.04422225 0.30133353 0.03580295
v 0.03238347 0.30110575 0.04487907
v 0.02202137 0.30130603 0.06339870
v 0.01850154 0.30117905 0.05057982
v 0.00384347 0.30130598 0.06566162
v 0.00385818 0.30113698 0.05244492
v -0.01420902 0.30118831 0.06335654
v -0.01092801 0.30130192 0.05048318
v -0.02458343 0.30126943 0.04488054
v -0.03137662 0.30120905 0.05613903
v -0.03639261 0.30119832 0.03592414
v -0.04586792 0.30099882 0.04512552
v -0.04559111 0.30126574 0.02391588
v -0.05123579 0.30111105 0.01021154
v -0.05708189 0.30133567 0.03066809
v -0.05320174 0.30122310 -0.00462424
v -0.05713610 0.30125028 -0.03968848
v -0.06414911 0.30123545 -0.02278218
v -0.06415580 0.30115860 0.01371073
v -0.06650466 0.30110459 -0.00463478
v 0.05909836 0.30121393 -0.01949092
v 0.05377434 0.30115923 -0.05439053
v 0.05345595 0.30127086 -0.03306447
v 0.03900325 0.30131047 -0.06557902
v 0.04421276 0.30116068 -0.04489739
v 0.03231532 0.30129273 -0.05394016
v 0.02211794 0.30127680 -0.07267467
v 0.01864262 0.30111127 -0.05989186
v 0.00387253 0.30132865 -0.07483584
v 0.00376755 0.30111392 -0.06167574
v -0.01444114 0.30123736 -0.07266709
v -0.01094803 0.30119192 -0.05955022
v -0.02466771 0.30128882 -0.05400827
v -0.03129599 0.30120402 -0.06558206
v -0.03659579 0.30108862 -0.04499633
v -0.04574751 0.30109486 -0.05419535
v -0.04552225 0.30130924 -0.03295842
v -0.05118924 0.30128070 -0.01927839
v -0.05317422 0.30125718 -0.00453723
v -0.05129673 0.30126160 -0.01935128
v -0.05708715 0.30115567 -0.03967890
v -0.04590280 0.30118391 -0.05418245
v -0.04566961 0.30109377 -0.03315518
v -0.03657714 0.30110082 -0.04495408
v -0.03119790 0.30127241 -0.06540822
v -0.02471451 0.30129863 -0.05401254
v -0.01447355 0.30127889 -0.07258786
v -0.01079380 0.30106339 -0.05970276
v 0.00395879 0.30128199 -0.06176045
v 0.00395406 0.30106501 -0.07489641
v 0.01869555 0.30119020 -0.05975785
v 0.02192433 0.30101780 -0.07238060
v 0.03252869 0.30116600 -0.05389153
v 0.03895146 0.30107666 -0.06562540
v 0.04415926 0.30119775 -0.04513420
v 0.05329963 0.30115345 -0.03297239
v 0.05361518 0.30114949 -0.05436308
v 0.05893968 0.30113786 -0.01933759
v 0.06092281 0.30116061 -0.00446051
v 0.06484139 0.30125032 -0.03976351
v -0.06646069 0.30119191 -0.00458808
v -0.06421606 0.30124453 0.01360694
v -0.06412671 0.30107275 -0.02267434
v -0.05701726 0.30124075 0.03053299
v -0.05124241 0.30108670 0.01007917
v -0.04586569 0.30109691 0.04508307
v -0.04552343 0.30110715 0.02398628
v -0.03640864 0.30115980 0.03568869
v -0.03122716 0.30129651 0.05644431
v -0.02463919 0.30116112 0.04488874
v -0.01435841 0.30127660 0.06327267
v -0.01092395 0.30117961 0.05045230
v 0.00383901 0.30112814 0.05245643
v 0.00393191 0.30118579 0.06565997
v 0.01858143 0.30122989 0.05045973
v 0.02204174 0.30110169 0.06333860
v 0.03239405 0.30123945 0.04473538
v 0.03903748 0.30120968 0.05641069
v 0.04407592 0.30105889 0.03570699
v 0.05336381 0.30118678 0.02393380
v 0.05365402 0.30117753 0.04516909
v 0.05893321 0.30124908 0.01025585
v 0.06478405 0.30116623 0.03064276
v 0.07176968 0.30119731 0.01380716
v 0.07190322 0.30120931 -0.02295592
v 0.07426336 0.30127254 -0.00447697
vn 0 1 0
vn 0 -1 0
vn -0.9659258358036645 0 0.25881900959356163
vn -1 0 0
vn 0.9659258358036645 0 -0.25881900959356163
vn 1 0 0
vn -0.866025402838329 0 0.5000000016387101
vn 0.866025402838329 0 -0.5000000016387101
vn -0.7071067811865476 0 0.7071067811865476
vn 0.7071067811865476 0 -0.7071067811865476
vn -0.5000000016387101 0 0.866025402838329
vn 0.5000000016387101 0 -0.866025402838329
vn -0.25881900959356163 0 0.9659258358036645
vn 0.25881900959356163 0 -0.9659258358036645
vn 0 0 1
vn 0 0 -1
vn 0.25881900959356163 0 0.9659258358036645
vn -0.25881900959356163 0 -0.9659258358036645
vn 0.5000000016387101 0 0.866025402838329
vn -0.5000000016387101 0 -0.866025402838329
vn 0.7071067811865476 0 0.7071067811865476
vn -0.7071067811865476 0 -0.7071067811865476
vn 0.866025402838329 0 0.5000000016387101
vn -0.866025402838329 0 -0.5000000016387101
vn 0.9659258358036645 0 0.25881900959356163
vn -0.9659258358036645 0 -0.25881900959356163
usemtl material_0_0
f 1//1 2//1 3//1
f 2//1 1//1 4//1
f 2//1 4//1 5//1
f 5//1 4//1 6//1
f 5//1 6//1 7//1
f 7//1 6//1 8//1
f 7//1 8//1 9//1
f 9//1 8//1 10//1
f 10//1 8//1 11//1
f 11//1 8//1 12//1
f 11//1 12//1 13//1
f 13//1 12//1 14//1
f 14//1 12//1 15//1
f 15//1 12//1 16//1
f 15//1 16//1 17//1
f 17//1 16//1 18//1
f 18//1 16//1 19//1
f 19//1 16//1 20//1
f 19//1 20//1 21//1
f 21//1 20//1 22//1
f 22//1 20//1 23//1
f 22//1 23//1 24//1
f 24//1 23//1 25//1
f 25//1 23//1 26//1
f 26//1 23//1 27//1
f 26//1 27//1 28//1
f 28//1 27//1 29//1
f 29//1 27//1 30//1
f 29//1 30//1 31//1
f 31//1 30//1 32//1
f 31//1 32//1 33//1
f 33//1 32//1 34//1
f 9//1 35//1 36//1
f 35//1 9//1 10//1
f 36//1 35//1 37//1
f 36//1 37//1 38//1
f 36//1 38//1 39//1
f 36//1 39//1 40//1
f 40//1 39//1 41//1
f 40//1 41//1 42//1
f 40//1 42//1 43//1
f 43//1 42//1 44//1
f 43//1 44//1 45//1
f 43//1 45//1 46//1
f 43//1 46//1 28//1
f 28//1 46//1 47//1
f 28//1 47//1 48//1
f 28//1 48//1 26//1
f 49//2 50//2 51//2
f 50//2 52//2 51//2
f 52//2 53//2 51//2
f 51//2 53//2 54//2
f 53//2 55//2 54//2
f 55//2 56//2 54//2
f 56//2 57//2 54//2
f 54//2 57//2 58//2
f 57//2 59//2 58//2
f 59//2 60//2 58//2
f 58//2 60//2 61//2
f 60//2 62//2 61//2
f 62//2 63//2 61//2
f 63//2 64//2 61//2
f 65//2 66//2 64//2
f 61//2 64//2 66//2
f 67//2 68//2 69//2
f 69//2 68//2 70//2
f 68//2 71//2 70//2
f 70//2 71//2 72//2
f 71//2 73//2 72//2
f 72//2 73//2 51//2
f 51//2 73//2 49//2
f 73//2 74//2 49//2
f 49//2 74//2 75//2
f 75//2 74//2 76//2
f 76//2 74//2 77//2
f 74//2 78//2 77//2
f 77//2 78//2 79//2
f 79//2 78//2 80//2
f 78//2 81//2 80//2
f 80//2 81//2 82//2
f 82//2 81//2 83//2
f 83//2 81//2 84//2
f 81//2 85//2 84//2
f 84//2 85//2 86//2
f 86//2 85//2 87//2
f 87//2 85//2 88//2
f 85//2 89//2 88//2
f 88//2 89//2 65//2
f 65//2 89//2 66//2
f 66//2 89//2 90//2
f 89//2 91//2 90//2
f 90//2 91//2 92//2
f 91//2 93//2 92//2
f 92//2 93//2 94//2
f 93//2 95//2 94//2
f 96//2 94//2 95//2
f 97//3 98//4 99//4
f 98//4 97//3 100//3
f 101//5 102//5 103//6
f 104//6 103//6 102//5
f 105//7 100//3 97//3
f 100//3 105//7 106//7
f 107//8 108//8 101//5
f 102//5 101//5 108//8
f 109//9 106//7 105//7
f 106//7 109//9 110//9
f 111//10 112//10 107//8
f 108//8 107//8 112//10
f 113//11 109//9 114//11
f 109//9 113//11 110//9
f 111//10 115//12 112//10
f 116//12 112//10 115//12
f 117//13 114//11 118//13
f 114//11 117//13 113//11
f 115//12 119//14 116//12
f 120//14 116//12 119//14
f 121//15 118//13 122//15
f 118//13 121//15 117//13
f 119//14 123//16 120//14
f 124//16 120//14 123//16
f 125//17 122//15 126//17
f 122//15 125//17 121//15
f 123//16 127//18 124//16
f 128//18 124//16 127//18
f 129//19 126//17 130//19
f 126//17 129//19 125//17
f 127//18 131//20 128//18
f 132//20 128//18 131//20
f 133//21 130//19 134//21
f 130//19 133//21 129//19
f 131//20 135//22 132//20
f 136//22 132//20 135//22
f 133//21 137//23 138//23
f 137//23 133//21 134//21
f 136//22 135//22 139//24
f 140//24 139//24 135//22
f 138//23 141//25 142//25
f 141//25 138//23 137//23
f 139//24 140//24 143//26
f 144//26 143//26 140//24
f 142//25 145//6 146//6
f 145//6 142//25 141//25
f 143//26 144//26 147//4
f 148//4 147//4 144//26
f 146//6 149//5 150//5
f 149//5 146//6 145//6
f 147//4 148//4 151//3
f 152//3 151//3 148//4
f 150//5 153//8 154//8
f 153//8 150//5 149//5
f 151//3 152//3 155//7
f 156//7 155//7 152//3
f 154//8 157//10 158//10
f 157//10 154//8 153//8
f 155//7 156//7 159//9
f 160//9 159//9 156//7
f 161//12 157//10 162//12
f 157//10 161//12 158//10
f 160//9 163//11 159//9
f 164//11 159//9 163//11
f 165//14 162//12 166//14
f 162//12 165//14 161//12
f 163//11 167//13 164//11
f 168//13 164//11 167//13
f 169//16 166//14 170//16
f 166//14 169//16 165//14
f 167//13 171//15 168//13
f 172//15 168//13 171//15
f 173//18 170//16 174//18
f 170//16 173//18 169//16
f 171//15 175//17 172//15
f 176//17 172//15 175//17
f 177//20 174//18 178//20
f 174//18 177//20 173//18
f 175//17 179//19 176//17
f 180//19 176//17 179//19
f 181//22 178//20 182//22
f 178//20 181//22 177//20
f 179//19 183//21 180//19
f 184//21 180//19 183//21
f 185//24 181//22 182//22
f 181//22 185//24 186//24
f 187//23 188//23 183//21
f 184//21 183//21 188//23
f 189//26 186//24 185//24
f 186//24 189//26 190//26
f 191//25 192//25 187//23
f 188//23 187//23 192//25
f 99//4 190//26 189//26
f 190//26 99//4 98//4
f 103//6 104//6 191//25
f 192//25 191//25 104//6
f 193//2 194//2 195//2
f 194//2 193//2 196//2
f 196//2 193//2 197//2
f 196//2 197//2 198//2
f 198//2 197//2 199//2
f 199//2 197//2 200//2
f 199//2 200//2 201//2
f 201//2 200//2 202//2
f 201//2 202//2 203//2
f 203//2 202//2 204//2
f 204//2 202//2 205//2
f 204//2 205//2 206//2
f 206//2 205//2 207//2
f 206//2 207//2 208//2
f 208//2 207//2 209//2
f 208//2 209//2 210//2
f 210//2 209//2 211//2
f 211//2 209//2 212//2
f 211//2 212//2 213//2
f 213//2 212//2 214//2
f 213//2 214//2 215//2
f 215//2 214//2 216//2
f 216//2 214//2 217//2
f 216//2 217//2 218//2
f 218//2 217//2 219//2
f 219//2 217//2 220//2
f 220//2 217//2 221//2
f 220//2 221//2 222//2
f 196//2 223//2 224//2
f 223//2 196//2 198//2
f 224//2 223//2 225//2
f 224//2 225//2 226//2
f 226//2 225//2 227//2
f 226//2 227//2 228//2
f 226//2 228//2 229//2
f 229//2 228//2 230//2
f 229//2 230//2 231//2
f 231//2 230//2 232//2
f 231//2 232//2 233//2
f 233//2 232//2 234//2
f 233//2 234//2 235//2
f 233//2 235//2 236//2
f 236//2 235//2 237//2
f 236//2 237//2 238//2
f 238//2 237//2 239//2
f 238//2 239//2 240//2
f 238//2 240//2 219//2
f 219//2 240//2 218//2
f 241//1 242//1 243//1
f 243//1 242//1 244//1
f 242//1 245//1 244//1
f 245//1 246//1 244//1
f 244//1 246//1 247//1
f 246//1 248//1 247//1
f 247//1 248//1 249//1
f 248//1 250//1 249//1
f 250//1 251//1 249//1
f 249//1 251//1 252//1
f 251//1 253//1 252//1
f 252//1 253//1 254//1
f 253//1 255//1 254//1
f 254//1 255//1 256//1
f 255//1 257//1 256//1
f 257//1 258//1 256//1
f 256//1 258//1 259//1
f 258//1 260//1 259//1
f 261//1 262//1 260//1
f 259//1 260//1 262//1
f 263//1 264//1 265//1
f 264//1 266//1 265//1
f 265//1 266//1 243//1
f 243//1 266//1 241//1
f 241//1 266//1 267//1
f 266//1 268//1 267//1
f 267//1 268//1 269//1
f 269//1 268//1 270//1
f 268//1 271//1 270//1
f 270//1 271//1 272//1
f 271//1 273//1 272//1
f 272//1 273//1 274//1
f 274//1 273//1 275//1
f 273//1 276//1 275//1
f 275//1 276//1 277//1
f 276//1 278//1 277//1
f 277//1 278//1 279//1
f 278//1 280//1 279//1
f 279//1 280//1 281//1
f 281//1 280//1 282//1
f 280//1 283//1 282//1
f 282//1 283//1 284//1
f 283//1 285//1 284//1
f 284//1 285//1 261//1
f 261//1 285//1 262//1
f 285//1 286//1 262//1
f 262//1 286//1 287//1
f 288//1 287//1 286//1
