# SSTK version 0.8.0
# 3
mtllib original_3.mtl
o #ID37
v 0.08694805 0.45578377 -0.02645702
v 0.08700736 0.45599847 0.01789306
v 0.09008564 0.45578501 -0.00409107
v 0.07864918 0.45578582 0.03881921
v 0.07866771 0.45585108 -0.04698955
v 0.06500677 0.45584639 0.05647537
v 0.06501998 0.45594974 -0.06472943
v 0.04701359 0.45605229 -0.07848812
v 0.04714423 0.45595076 0.07021546
v 0.02659902 0.45594802 -0.08712607
v 0.02653209 0.45593952 0.07879080
v 0.00427309 0.45582186 0.08159438
v 0.00417163 0.45586274 -0.08981538
v -0.01786471 0.45574570 -0.08700323
v -0.01795617 0.45596503 0.07872720
v -0.03871612 0.45607627 0.07012862
v -0.03864740 0.45587734 -0.07836603
v -0.05629118 0.45587839 -0.06487864
v -0.05632610 0.45592223 0.05650170
v -0.06989154 0.45594770 0.03863832
v -0.06979387 0.45591002 -0.04707255
v -0.07837499 0.45573696 0.01812913
v -0.07850213 0.45578447 -0.02626125
v -0.08141679 0.45589902 -0.00418267
v -0.08146447 0.45588310 -0.00421490
v -0.07852740 0.45591072 -0.02647318
v -0.07848198 0.45578972 0.01798087
v -0.07000881 0.45599621 -0.04702856
v -0.07007245 0.45575539 0.03868145
v -0.05618627 0.45597687 -0.06480499
v -0.05641582 0.45599893 0.05653225
v -0.03874029 0.45588419 0.07025071
v -0.03872235 0.45592308 -0.07846332
v -0.01789610 0.45601580 -0.08688483
v -0.01783847 0.45581253 0.07871976
v 0.00427540 0.45597369 0.08144733
v 0.00440188 0.45588755 -0.08997270
v 0.02653530 0.45576646 -0.08701354
v 0.02633126 0.45604217 0.07863464
v 0.04725802 0.45580760 0.07011564
v 0.04713948 0.45584073 -0.07836037
v 0.06483263 0.45578958 0.05637442
v 0.06499337 0.45592589 -0.06486842
v 0.07848735 0.45588183 -0.04706695
v 0.07851939 0.45594847 0.03886422
v 0.08700017 0.45584251 -0.02646090
v 0.08699045 0.45594616 0.01798277
v 0.08985353 0.45582886 -0.00410048
vn 0 1 0
vn 0 -1 0
usemtl material_0_0
f 1//1 2//1 3//1
f 2//1 1//1 4//1
f 4//1 1//1 5//1
f 4//1 5//1 6//1
f 6//1 5//1 7//1
f 6//1 7//1 8//1
f 6//1 8//1 9//1
f 9//1 8//1 10//1
f 9//1 10//1 11//1
f 11//1 10//1 12//1
f 12//1 10//1 13//1
f 12//1 13//1 14//1
f 12//1 14//1 15//1
f 15//1 14//1 16//1
f 16//1 14//1 17//1
f 16//1 17//1 18//1
f 16//1 18//1 19//1
f 19//1 18//1 20//1
f 20//1 18//1 21//1
f 20//1 21//1 22//1
f 22//1 21//1 23//1
f 22//1 23//1 24//1
f 25//2 26//2 27//2
f 26//2 28//2 27//2
f 27//2 28//2 29//2
f 28//2 30//2 29//2
f 29//2 30//2 31//2
f 31//2 30//2 32//2
f 30//2 33//2 32//2
f 33//2 34//2 32//2
f 32//2 34//2 35//2
f 35//2 34//2 36//2
f 34//2 37//2 36//2
f 37//2 38//2 36//2
f 36//2 38//2 39//2
f 39//2 38//2 40//2
f 38//2 41//2 40//2
f 40//2 41//2 42//2
f 41//2 43//2 42//2
f 43//2 44//2 42//2
f 42//2 44//2 45//2
f 44//2 46//2 45//2
f 45//2 46//2 47//2
f 48//2 47//2 46//2
