# SSTK version 0.8.0
# 13
mtllib original_13.mtl
o #ID98
v -0.10632581 0.46995201 -0.06813027
v -0.08617999 0.47703074 -0.09458761
v -0.08601937 0.47001771 -0.09439954
v -0.10634822 0.47698046 -0.06821444
v -0.10640243 0.47706288 -0.06815961
v -0.10637783 0.47000739 -0.06827762
v -0.08606458 0.47696279 -0.09459757
v -0.08599107 0.46995588 -0.09449054
v 0.12674171 0.47001390 0.02824266
v 0.12692783 0.46996445 -0.00461803
v 0.13102432 0.46996706 -0.00468750
v 0.12266979 0.47006082 0.02741652
v 0.11403088 0.47001324 0.05905587
v 0.11053767 0.46998330 0.05697902
v 0.09386908 0.46993188 0.08546182
v 0.09103149 0.46991967 0.08258337
v 0.06735701 0.47005790 0.10549330
v 0.06536061 0.46985495 0.10208610
v 0.03661922 0.47003761 0.11827619
v 0.03580487 0.46992777 0.11448650
v 0.00380063 0.46995057 0.12252584
v 0.00394451 0.46987596 0.11857154
v -0.02898925 0.46996664 0.11826856
v -0.02807751 0.46987536 0.11431587
v -0.05765970 0.46996628 0.10216790
v -0.05969393 0.47004532 0.10568480
v -0.08313999 0.47002997 0.08264073
v -0.08595930 0.46987103 0.08526371
v -0.10283772 0.47007385 0.05703865
v -0.10621660 0.46989105 0.05907692
v -0.11501807 0.47005035 0.02714174
v -0.11889787 0.46994826 0.02834722
v -0.11933662 0.46994943 -0.00457083
v -0.12321310 0.46990983 -0.00468611
v 0.12675202 0.46991072 -0.03740693
v 0.12274982 0.47005536 -0.03640618
v 0.11405503 0.46992308 -0.06815189
v 0.11047840 0.46991407 -0.06621482
v 0.09391269 0.47005455 -0.09437695
v 0.09090438 0.46998932 -0.09167402
v 0.06741153 0.46989789 -0.11465564
v 0.06555809 0.46989275 -0.11114672
v 0.03670351 0.47000963 -0.12738946
v 0.03569155 0.46999888 -0.12356352
v 0.00386084 0.46999833 -0.13194010
v 0.00391402 0.47001472 -0.12791451
v -0.02799969 0.46989254 -0.12342826
v -0.02917465 0.47001815 -0.12737637
v -0.05783552 0.46997252 -0.11128132
v -0.05978869 0.46986704 -0.11482418
v -0.08341325 0.46992792 -0.09171709
v -0.08611193 0.47014851 -0.09461594
v -0.10263855 0.46989719 -0.06621753
v -0.10627259 0.46998282 -0.06822291
v -0.11512229 0.46990653 -0.03653421
v -0.11904817 0.46982734 -0.03756312
v -0.12335907 0.46997665 -0.00447873
v -0.11940977 0.47002928 -0.00449411
v -0.11903573 0.46994345 -0.03743898
v -0.11508647 0.46992410 -0.03643662
v -0.10622914 0.46992015 -0.06809436
v -0.10289989 0.46999028 -0.06627329
v -0.08600833 0.46983752 -0.09452908
v -0.08325951 0.46995306 -0.09184564
v -0.05965764 0.47011703 -0.11477283
v -0.05777875 0.46983661 -0.11125236
v -0.02904570 0.46991738 -0.12740602
v -0.02797651 0.46998452 -0.12350582
v 0.00374654 0.46999506 -0.13179539
v 0.00377081 0.46977440 -0.12770419
v 0.03569253 0.46994408 -0.12351034
v 0.03678002 0.46997228 -0.12732574
v 0.06535461 0.47002158 -0.11119997
v 0.06745956 0.46992769 -0.11476633
v 0.09099376 0.46986047 -0.09158805
v 0.09376575 0.47004712 -0.09445288
v 0.11054348 0.47000304 -0.06625185
v 0.11398907 0.47006046 -0.06827732
v 0.12271086 0.47002734 -0.03647725
v 0.12667667 0.46998395 -0.03746564
v 0.12702705 0.46998876 -0.00458921
v 0.13111228 0.46991400 -0.00461876
v -0.11907829 0.46980234 0.02845186
v -0.11517658 0.46980638 0.02718965
v -0.10636392 0.46988273 0.05910730
v -0.10280942 0.47000368 0.05696501
v -0.08596737 0.47003107 0.08541108
v -0.08326327 0.47007306 0.08252771
v -0.05985549 0.46987998 0.10567936
v -0.05772812 0.46993136 0.10196628
v -0.02899159 0.46994084 0.11827236
v -0.02794489 0.46992006 0.11435366
v 0.00389895 0.47012585 0.11861641
v 0.00388361 0.46999667 0.12254733
v 0.03587643 0.46992582 0.11421381
v 0.03666219 0.46994343 0.11822671
v 0.06547336 0.47006813 0.10207986
v 0.06736587 0.46987008 0.10541229
v 0.09108879 0.47004182 0.08246774
v 0.09377013 0.46980538 0.08531405
v 0.11047336 0.46999035 0.05703212
v 0.11408086 0.46996328 0.05891542
v 0.12285088 0.47001757 0.02717157
v 0.12658094 0.47009774 0.02839796
v -0.11893140 0.47005894 -0.03748878
v -0.11915154 0.47707551 -0.03752388
v -0.11899921 0.47700267 -0.03744648
v -0.11913704 0.47005375 -0.03762497
v 0.12673934 0.47710698 -0.03746094
v 0.12696367 0.47689619 -0.00461923
v 0.13087516 0.47699553 -0.00452364
v 0.12281406 0.47696306 -0.03657985
v 0.11404216 0.47699032 -0.06815976
v 0.11067581 0.47695444 -0.06613386
v 0.09387700 0.47687796 -0.09439063
v 0.09096817 0.47703434 -0.09168979
v 0.06745466 0.47698675 -0.11463899
v 0.06535154 0.47684043 -0.11115342
v 0.03683752 0.47682657 -0.12735734
v 0.03568643 0.47693873 -0.12352525
v 0.00388719 0.47696548 -0.13171552
v 0.00393127 0.47701408 -0.12761008
v -0.02903909 0.47687561 -0.12733921
v -0.02790634 0.47703814 -0.12340670
v -0.05765837 0.47700202 -0.11121849
v -0.05968594 0.47701882 -0.11466328
v -0.08325772 0.47706462 -0.09175021
v -0.08597638 0.47702213 -0.09438655
v -0.10275176 0.47686935 -0.06619984
v -0.10641475 0.47683184 -0.06799814
v -0.11522156 0.47715118 -0.03633819
v -0.11908535 0.47699877 -0.03745740
v -0.11931907 0.47702238 -0.00443647
v -0.12349934 0.47693736 -0.00454718
v 0.12682375 0.47714784 0.02833604
v 0.12275724 0.47695861 0.02733851
v 0.11395819 0.47699180 0.05898429
v 0.11059064 0.47693941 0.05698354
v 0.09373776 0.47697857 0.08526573
v 0.09104270 0.47696226 0.08245662
v 0.06737017 0.47697340 0.10565046
v 0.06543377 0.47698362 0.10215471
v 0.03683830 0.47707026 0.11836171
v 0.03581389 0.47698030 0.11433861
v 0.00378648 0.47693749 0.12267371
v 0.00383745 0.47697094 0.11866314
v -0.02911940 0.47698673 0.11846513
v -0.02818239 0.47703861 0.11429484
v -0.05767561 0.47689395 0.10217462
v -0.05978506 0.47700096 0.10564079
v -0.08322129 0.47702741 0.08252004
v -0.08599635 0.47710290 0.08522634
v -0.10271311 0.47690463 0.05691516
v -0.10630094 0.47686687 0.05894117
v -0.11519110 0.47692201 0.02737439
v -0.11907010 0.47701461 0.02833985
v -0.12333394 0.47704129 -0.00447060
v -0.11930992 0.47683392 -0.00452826
v -0.11902361 0.47703171 0.02835945
v -0.11519666 0.47694452 0.02742498
v -0.10637569 0.47713129 0.05889944
v -0.10274943 0.47688096 0.05701416
v -0.08597188 0.47709316 0.08529757
v -0.08326144 0.47699549 0.08245206
v -0.05978485 0.47702821 0.10544415
v -0.05769181 0.47698720 0.10208461
v -0.02893206 0.47690320 0.11838251
v -0.02807865 0.47694539 0.11445471
v 0.00395600 0.47699228 0.11864821
v 0.00389777 0.47697835 0.12266485
v 0.03574848 0.47714616 0.11452107
v 0.03675583 0.47691056 0.11821892
v 0.06537449 0.47686633 0.10210311
v 0.06739871 0.47695019 0.10554107
v 0.09084746 0.47699042 0.08239320
v 0.09372152 0.47692741 0.08526325
v 0.11059769 0.47693012 0.05698422
v 0.11413298 0.47698742 0.05899362
v 0.12289118 0.47692228 0.02744740
v 0.12664218 0.47701371 0.02842636
v 0.12710554 0.47691651 -0.00471934
v 0.13103405 0.47691025 -0.00465151
v -0.11882671 0.47706273 -0.03738422
v -0.11518828 0.47708849 -0.03652479
v -0.10625303 0.47708728 -0.06814232
v -0.10281639 0.47696321 -0.06625243
v -0.08593377 0.47705577 -0.09445319
v -0.08334690 0.47695790 -0.09170074
v -0.05970250 0.47709119 -0.11478251
v -0.05773635 0.47699420 -0.11123310
v -0.02911483 0.47698804 -0.12752357
v -0.02786923 0.47684552 -0.12349289
v 0.00395825 0.47710614 -0.12762719
v 0.00392856 0.47712329 -0.13181737
v 0.03578669 0.47702229 -0.12358672
v 0.03667335 0.47700678 -0.12750792
v 0.06549277 0.47698481 -0.11126077
v 0.06731320 0.47705543 -0.11470592
v 0.09091971 0.47688360 -0.09182637
v 0.09379594 0.47707563 -0.09470732
v 0.11045524 0.47693916 -0.06612241
v 0.11400627 0.47699256 -0.06831977
v 0.12282360 0.47692258 -0.03636621
v 0.12657901 0.47699904 -0.03742276
v -0.05976074 0.46993367 -0.11477657
v -0.05967761 0.47704123 -0.11463557
v -0.05974804 0.47688148 -0.11483649
v -0.05984340 0.46988693 -0.11468790
v 0.06750499 0.47680912 0.10563749
v 0.03678319 0.46990935 0.11834499
v 0.06754127 0.46994905 0.10564761
v 0.03679677 0.47698909 0.11816153
v 0.03675223 0.47708883 0.11813203
v 0.06745534 0.47700957 0.10556994
v 0.03665209 0.46992056 0.11833203
v 0.06739950 0.46994420 0.10559010
v 0.00380357 0.46996133 0.12269259
v 0.00399221 0.47713965 0.12261918
v 0.00390244 0.47702937 0.12266055
v 0.00389141 0.46991253 0.12268659
v -0.02915096 0.46997415 0.11813660
v -0.02898969 0.47697827 0.11847903
v -0.02901356 0.47696107 0.11822726
v -0.02912032 0.47002829 0.11828278
v -0.05983635 0.47007847 0.10550511
v -0.05983894 0.47701670 0.10571583
v -0.05987324 0.47697084 0.10565470
v -0.05962215 0.46998429 0.10561981
v -0.08608809 0.46980546 0.08540132
v -0.08604608 0.47714493 0.08543611
v -0.08610199 0.47695447 0.08532802
v -0.08610272 0.47007336 0.08533507
v -0.10614984 0.47706142 0.05896054
v -0.10620256 0.46995058 0.05901592
v -0.10623395 0.47689243 0.05898566
v -0.10621448 0.46988280 0.05901974
v -0.11903088 0.47711554 0.02839528
v -0.11910418 0.46990534 0.02843458
v -0.11896095 0.47701844 0.02826884
v -0.11897533 0.47005920 0.02828099
v -0.12334845 0.47696036 -0.00465646
v -0.12343093 0.46994597 -0.00454695
v -0.12327927 0.47691941 -0.00449813
v -0.12337883 0.46998794 -0.00468385
v -0.02921038 0.46990706 -0.12730769
v -0.02912643 0.47691747 -0.12736652
v -0.02904681 0.47695746 -0.12740557
v -0.02911237 0.46978264 -0.12747081
v 0.00383085 0.47000530 -0.13176927
v 0.00374062 0.47696518 -0.13174392
v 0.00390736 0.47703870 -0.13193935
v 0.00389483 0.46991725 -0.13186371
v 0.03689750 0.46977008 -0.12731875
v 0.03681118 0.47700368 -0.12734314
v 0.03681161 0.47700592 -0.12735757
v 0.03670085 0.46986919 -0.12748497
v 0.06739656 0.46987752 -0.11467047
v 0.06760117 0.47708461 -0.11470364
v 0.06743571 0.47717221 -0.11487389
v 0.06750636 0.47001760 -0.11473840
v 0.09397429 0.47006262 -0.09438666
v 0.09374434 0.47701205 -0.09462729
v 0.09371017 0.47700026 -0.09452385
v 0.09394504 0.46996332 -0.09455724
v 0.11398446 0.47705127 -0.06816114
v 0.11403030 0.46980748 -0.06808564
v 0.11412522 0.46991018 -0.06827339
v 0.11412724 0.47708381 -0.06802429
v 0.12680314 0.47705578 -0.03748753
v 0.12668433 0.47002532 -0.03763900
v 0.12681656 0.46981094 -0.03745092
v 0.12679616 0.47693441 -0.03747201
v 0.13113607 0.47697155 -0.00475966
v 0.13096126 0.47005035 -0.00446191
v 0.13119875 0.47005421 -0.00459727
v 0.13121888 0.47696024 -0.00448977
v 0.12674245 0.47700411 0.02845946
v 0.12667255 0.46986868 0.02827545
v 0.12661523 0.47013023 0.02827567
v 0.12661919 0.47686431 0.02841921
v 0.11402264 0.47704103 0.05902553
v 0.11399021 0.47004094 0.05905861
v 0.11407573 0.46992999 0.05901587
v 0.11400241 0.47715430 0.05893426
v 0.09391410 0.47700859 0.08520722
v 0.09386676 0.46999633 0.08530087
v 0.09379061 0.46994138 0.08541427
v 0.09385554 0.47688801 0.08536015
vn -0.866025402838329 0 -0.5000000016387101
vn -0.7071067811865476 0 -0.7071067811865476
vn 0.866025402838329 0 0.5000000016387101
vn 0.7071067811865476 0 0.7071067811865476
vn 0 -1 0
vn 0 1 0
vn -0.9659258358036645 0 -0.25881900959356163
vn 0.9659258358036645 0 0.25881900959356163
vn -0.5000000016387101 0 -0.866025402838329
vn 0.5000000016387101 0 0.866025402838329
vn 0.25881900959356163 0 0.9659258358036645
vn -0.25881900959356163 0 -0.9659258358036645
vn 0 0 1
vn 0 0 -1
vn -0.25881900959356163 0 0.9659258358036645
vn 0.25881900959356163 0 -0.9659258358036645
vn -0.5000000016387101 0 0.866025402838329
vn 0.5000000016387101 0 -0.866025402838329
vn -0.7071067811865476 0 0.7071067811865476
vn 0.7071067811865476 0 -0.7071067811865476
vn -0.866025402838329 0 0.5000000016387101
vn 0.866025402838329 0 -0.5000000016387101
vn -0.9659258358036645 0 0.25881900959356163
vn 0.9659258358036645 0 -0.25881900959356163
vn -1 0 0
vn 1 0 0
usemtl material_0_0
f 1//1 2//2 3//2
f 2//2 1//1 4//1
f 5//3 6//3 7//4
f 8//4 7//4 6//3
f 9//5 10//5 11//5
f 10//5 9//5 12//5
f 12//5 9//5 13//5
f 12//5 13//5 14//5
f 14//5 13//5 15//5
f 14//5 15//5 16//5
f 16//5 15//5 17//5
f 16//5 17//5 18//5
f 18//5 17//5 19//5
f 18//5 19//5 20//5
f 20//5 19//5 21//5
f 20//5 21//5 22//5
f 22//5 21//5 23//5
f 22//5 23//5 24//5
f 24//5 23//5 25//5
f 25//5 23//5 26//5
f 25//5 26//5 27//5
f 27//5 26//5 28//5
f 27//5 28//5 29//5
f 29//5 28//5 30//5
f 29//5 30//5 31//5
f 31//5 30//5 32//5
f 31//5 32//5 33//5
f 33//5 32//5 34//5
f 10//5 35//5 11//5
f 35//5 10//5 36//5
f 35//5 36//5 37//5
f 37//5 36//5 38//5
f 37//5 38//5 39//5
f 39//5 38//5 40//5
f 39//5 40//5 41//5
f 41//5 40//5 42//5
f 41//5 42//5 43//5
f 43//5 42//5 44//5
f 43//5 44//5 45//5
f 45//5 44//5 46//5
f 45//5 46//5 47//5
f 45//5 47//5 48//5
f 48//5 47//5 49//5
f 48//5 49//5 50//5
f 50//5 49//5 51//5
f 50//5 51//5 52//5
f 52//5 51//5 53//5
f 52//5 53//5 54//5
f 54//5 53//5 55//5
f 54//5 55//5 56//5
f 56//5 55//5 33//5
f 56//5 33//5 34//5
f 57//6 58//6 59//6
f 58//6 60//6 59//6
f 59//6 60//6 61//6
f 60//6 62//6 61//6
f 61//6 62//6 63//6
f 62//6 64//6 63//6
f 63//6 64//6 65//6
f 64//6 66//6 65//6
f 65//6 66//6 67//6
f 66//6 68//6 67//6
f 67//6 68//6 69//6
f 68//6 70//6 69//6
f 70//6 71//6 69//6
f 69//6 71//6 72//6
f 71//6 73//6 72//6
f 72//6 73//6 74//6
f 73//6 75//6 74//6
f 74//6 75//6 76//6
f 75//6 77//6 76//6
f 76//6 77//6 78//6
f 77//6 79//6 78//6
f 78//6 79//6 80//6
f 79//6 81//6 80//6
f 82//6 80//6 81//6
f 57//6 83//6 58//6
f 58//6 83//6 84//6
f 83//6 85//6 84//6
f 84//6 85//6 86//6
f 85//6 87//6 86//6
f 86//6 87//6 88//6
f 87//6 89//6 88//6
f 88//6 89//6 90//6
f 89//6 91//6 90//6
f 90//6 91//6 92//6
f 92//6 91//6 93//6
f 91//6 94//6 93//6
f 93//6 94//6 95//6
f 94//6 96//6 95//6
f 95//6 96//6 97//6
f 96//6 98//6 97//6
f 97//6 98//6 99//6
f 98//6 100//6 99//6
f 99//6 100//6 101//6
f 100//6 102//6 101//6
f 101//6 102//6 103//6
f 102//6 104//6 103//6
f 103//6 104//6 81//6
f 82//6 81//6 104//6
f 105//7 4//1 1//1
f 4//1 105//7 106//7
f 107//8 108//8 5//3
f 6//3 5//3 108//8
f 109//6 110//6 111//6
f 110//6 109//6 112//6
f 112//6 109//6 113//6
f 112//6 113//6 114//6
f 114//6 113//6 115//6
f 114//6 115//6 116//6
f 116//6 115//6 117//6
f 116//6 117//6 118//6
f 118//6 117//6 119//6
f 118//6 119//6 120//6
f 120//6 119//6 121//6
f 120//6 121//6 122//6
f 122//6 121//6 123//6
f 122//6 123//6 124//6
f 124//6 123//6 125//6
f 125//6 123//6 126//6
f 125//6 126//6 127//6
f 127//6 126//6 128//6
f 127//6 128//6 129//6
f 129//6 128//6 130//6
f 129//6 130//6 131//6
f 131//6 130//6 132//6
f 131//6 132//6 133//6
f 133//6 132//6 134//6
f 110//6 135//6 111//6
f 135//6 110//6 136//6
f 135//6 136//6 137//6
f 137//6 136//6 138//6
f 137//6 138//6 139//6
f 139//6 138//6 140//6
f 139//6 140//6 141//6
f 141//6 140//6 142//6
f 141//6 142//6 143//6
f 143//6 142//6 144//6
f 143//6 144//6 145//6
f 145//6 144//6 146//6
f 145//6 146//6 147//6
f 147//6 146//6 148//6
f 147//6 148//6 149//6
f 147//6 149//6 150//6
f 150//6 149//6 151//6
f 150//6 151//6 152//6
f 152//6 151//6 153//6
f 152//6 153//6 154//6
f 154//6 153//6 155//6
f 154//6 155//6 156//6
f 156//6 155//6 133//6
f 156//6 133//6 134//6
f 157//5 158//5 159//5
f 158//5 160//5 159//5
f 159//5 160//5 161//5
f 160//5 162//5 161//5
f 161//5 162//5 163//5
f 162//5 164//5 163//5
f 163//5 164//5 165//5
f 164//5 166//5 165//5
f 165//5 166//5 167//5
f 166//5 168//5 167//5
f 168//5 169//5 167//5
f 167//5 169//5 170//5
f 169//5 171//5 170//5
f 170//5 171//5 172//5
f 171//5 173//5 172//5
f 172//5 173//5 174//5
f 173//5 175//5 174//5
f 174//5 175//5 176//5
f 175//5 177//5 176//5
f 176//5 177//5 178//5
f 177//5 179//5 178//5
f 178//5 179//5 180//5
f 179//5 181//5 180//5
f 182//5 180//5 181//5
f 157//5 183//5 158//5
f 158//5 183//5 184//5
f 183//5 185//5 184//5
f 184//5 185//5 186//5
f 185//5 187//5 186//5
f 186//5 187//5 188//5
f 187//5 189//5 188//5
f 188//5 189//5 190//5
f 189//5 191//5 190//5
f 190//5 191//5 192//5
f 192//5 191//5 193//5
f 191//5 194//5 193//5
f 193//5 194//5 195//5
f 194//5 196//5 195//5
f 195//5 196//5 197//5
f 196//5 198//5 197//5
f 197//5 198//5 199//5
f 198//5 200//5 199//5
f 199//5 200//5 201//5
f 200//5 202//5 201//5
f 201//5 202//5 203//5
f 202//5 204//5 203//5
f 203//5 204//5 181//5
f 182//5 181//5 204//5
f 2//2 205//9 3//2
f 205//9 2//2 206//9
f 207//10 7//4 208//10
f 8//4 208//10 7//4
f 209//10 210//11 211//10
f 210//11 209//10 212//11
f 213//12 214//9 215//12
f 216//9 215//12 214//9
f 212//11 217//13 210//11
f 217//13 212//11 218//13
f 219//14 213//12 220//14
f 215//12 220//14 213//12
f 218//13 221//15 217//13
f 221//15 218//13 222//15
f 223//16 219//14 224//16
f 220//14 224//16 219//14
f 222//15 225//17 221//15
f 225//17 222//15 226//17
f 227//18 223//16 228//18
f 224//16 228//18 223//16
f 226//17 229//19 225//17
f 229//19 226//17 230//19
f 231//20 227//18 232//20
f 228//18 232//20 227//18
f 229//19 233//21 234//21
f 233//21 229//19 230//19
f 231//20 232//20 235//22
f 236//22 235//22 232//20
f 234//21 237//23 238//23
f 237//23 234//21 233//21
f 235//22 236//22 239//24
f 240//24 239//24 236//22
f 238//23 241//25 242//25
f 241//25 238//23 237//23
f 239//24 240//24 243//26
f 244//26 243//26 240//24
f 242//25 106//7 105//7
f 106//7 242//25 241//25
f 243//26 244//26 107//8
f 108//8 107//8 244//26
f 206//9 245//12 205//9
f 245//12 206//9 246//12
f 247//11 207//10 248//11
f 208//10 248//11 207//10
f 246//12 249//14 245//12
f 249//14 246//12 250//14
f 251//13 247//11 252//13
f 248//11 252//13 247//11
f 250//14 253//16 249//14
f 253//16 250//14 254//16
f 255//15 251//13 256//15
f 252//13 256//15 251//13
f 254//16 257//18 253//16
f 257//18 254//16 258//18
f 259//17 255//15 260//17
f 256//15 260//17 255//15
f 258//18 261//20 257//18
f 261//20 258//18 262//20
f 263//19 259//17 264//19
f 260//17 264//19 259//17
f 265//22 261//20 262//20
f 261//20 265//22 266//22
f 267//21 268//21 264//19
f 263//19 264//19 268//21
f 269//24 266//22 265//22
f 266//22 269//24 270//24
f 271//23 272//23 267//21
f 268//21 267//21 272//23
f 273//26 270//24 269//24
f 270//24 273//26 274//26
f 275//25 276//25 271//23
f 272//23 271//23 276//25
f 277//8 274//26 273//26
f 274//26 277//8 278//8
f 279//7 280//7 275//25
f 276//25 275//25 280//7
f 281//3 278//8 277//8
f 278//8 281//3 282//3
f 283//1 284//1 279//7
f 280//7 279//7 284//1
f 285//4 282//3 281//3
f 282//3 285//4 286//4
f 287//2 288//2 283//1
f 284//1 283//1 288//2
f 285//4 211//10 286//4
f 211//10 285//4 209//10
f 214//9 288//2 216//9
f 287//2 216//9 288//2
