# SSTK version 0.8.0
# 4
mtllib original_4.mtl
o #ID111
v -0.09214459 0.52728771 -0.30623746
v -0.01114770 0.52731750 -0.31016517
v -0.01109791 0.52758279 -0.31826209
v -0.08972251 0.52737243 -0.29851117
v -0.16706406 0.52744002 -0.27368691
v -0.16298418 0.52732999 -0.26671596
v -0.23105747 0.52739942 -0.22280580
v -0.22524540 0.52739743 -0.21718699
v -0.27982208 0.52746467 -0.15713270
v -0.27268438 0.52732092 -0.15294197
v -0.30962858 0.52746823 -0.08105309
v -0.30169043 0.52745722 -0.07914522
v -0.31893728 0.52751517 0.00033591
v -0.31090409 0.52753129 0.00027034
v -0.29913795 0.52728216 0.07888148
v -0.30682131 0.52748901 0.08103321
v -0.26714426 0.52737108 0.15177695
v -0.27421091 0.52737040 0.15608694
v -0.21768438 0.52743872 0.21422713
v -0.22330524 0.52728829 0.22002964
v -0.15370637 0.52736644 0.26160509
v -0.15770740 0.52730506 0.26878156
v -0.07964507 0.52754658 0.29071716
v -0.08142192 0.52727636 0.29868011
v -0.00038720 0.52754264 0.29969242
v -0.00021675 0.52752650 0.30794890
v 0.07003115 0.52730416 -0.30916615
v 0.06806381 0.52746612 -0.30115708
v 0.14593538 0.52730577 -0.27912503
v 0.14227406 0.52740134 -0.27218949
v 0.21163439 0.52736506 -0.23052360
v 0.20608740 0.52728233 -0.22472765
v 0.26267778 0.52747664 -0.16656799
v 0.25565934 0.52733335 -0.16242371
v 0.29524196 0.52739961 -0.09147506
v 0.28748711 0.52739733 -0.08921749
v 0.30725186 0.52736058 -0.01062446
v 0.29930806 0.52742250 -0.01070515
v 0.29814968 0.52750489 0.07045900
v 0.29020550 0.52747523 0.06844393
v 0.26103870 0.52731279 0.14257389
v 0.26806662 0.52748215 0.14660579
v 0.21374248 0.52737852 0.20680176
v 0.21960872 0.52724325 0.21235850
v 0.15117731 0.52740396 0.25637258
v 0.15545893 0.52760023 0.26326254
v 0.07832113 0.52736582 0.28809763
v 0.08048619 0.52748449 0.29593286
v -0.16702947 0.52738552 -0.27379132
v -0.23104792 0.44207666 -0.22267355
v -0.23101661 0.52731441 -0.22268655
v -0.16700457 0.44202786 -0.27360059
v -0.27966342 0.52749070 -0.15711285
v -0.27974665 0.44202311 -0.15701409
v -0.30959079 0.52741547 -0.08089556
v -0.30956649 0.44206212 -0.08095613
v -0.31881284 0.52732113 0.00022576
v -0.31882364 0.44209262 0.00034559
v -0.30679481 0.52737316 0.08124017
v -0.30689098 0.44218751 0.08126797
v -0.27429599 0.52755932 0.15614690
v -0.27420528 0.44198852 0.15594341
v -0.22318010 0.52745639 0.22002165
v -0.22329522 0.44217264 0.22006836
v -0.15760416 0.44195335 0.26864290
v -0.15772751 0.52749198 0.26860756
v -0.08167919 0.44204367 0.29856392
v -0.08157817 0.52755251 0.29850962
v -0.00016352 0.44199668 0.30788016
v -0.00020214 0.52740128 0.30789493
v 0.08057126 0.44192103 0.29573905
v 0.08057208 0.52734910 0.29577656
v 0.15546076 0.44200253 0.26318321
v 0.15534679 0.52726003 0.26326117
v 0.21959393 0.44199118 0.21239721
v 0.21953226 0.52741524 0.21219736
v 0.26815994 0.52735743 0.14653429
v 0.26818590 0.44193582 0.14666728
v 0.29808763 0.52750691 0.07057477
v 0.29813368 0.44202560 0.07049076
v 0.30744524 0.52744395 -0.01061885
v 0.30744213 0.44198926 -0.01081471
v 0.29534614 0.52741248 -0.09166995
v 0.29519521 0.44212686 -0.09166019
v 0.26277648 0.52741195 -0.16647319
v 0.26270697 0.44207167 -0.16643987
v 0.21172092 0.52745048 -0.23043452
v 0.21185636 0.44199271 -0.23056783
v 0.14609789 0.44202023 -0.27918909
v 0.14591571 0.52750412 -0.27913778
v 0.06996836 0.44185311 -0.30912663
v 0.06986584 0.52739083 -0.30909513
v -0.01118621 0.44214971 -0.31838703
v -0.01121178 0.52757790 -0.31833477
v -0.09211173 0.44205315 -0.30628131
v -0.09214283 0.52732182 -0.30616351
vn 0 1 0
vn -0.5150380781539518 0 -0.8571672987529821
vn -0.7193398016530974 0 -0.6946583690978483
vn -0.8746197071393962 0 -0.48480962024633667
vn -0.9702957356271962 0 -0.2419218580940513
vn -0.9998476951233675 0 0.017452408329214894
vn -0.9612617055496163 0 0.27563732229841925
vn -0.8571672987529821 0 0.5150380781539518
vn -0.6946583690978483 0 0.7193398016530974
vn -0.4848096202463367 0 0.8746197071393962
vn -0.24192185809405137 0 0.9702957356271962
vn 0.01745240832921484 0 0.9998476951233675
vn 0.27563732229841925 0 0.9612617055496163
vn 0.5150380781539518 0 0.8571672987529821
vn 0.7193398016530974 0 0.6946583690978483
vn 0.8746197071393962 0 0.48480962024633667
vn 0.9702957356271962 0 0.2419218580940513
vn 0.9998476951233675 0 -0.017452408329215054
vn 0.9612617055496163 0 -0.27563732229841925
vn 0.8571672987529821 0 -0.5150380781539518
vn 0.6946583690978483 0 -0.7193398016530974
vn 0.4848096202463367 0 -0.8746197071393962
vn 0.24192185809405137 0 -0.9702957356271962
vn -0.01745240832921484 0 -0.9998476951233675
vn -0.27563732229841925 0 -0.9612617055496163
usemtl material_0_0
f 1//1 2//1 3//1
f 2//1 1//1 4//1
f 4//1 1//1 5//1
f 4//1 5//1 6//1
f 6//1 5//1 7//1
f 6//1 7//1 8//1
f 8//1 7//1 9//1
f 8//1 9//1 10//1
f 10//1 9//1 11//1
f 10//1 11//1 12//1
f 12//1 11//1 13//1
f 12//1 13//1 14//1
f 14//1 13//1 15//1
f 15//1 13//1 16//1
f 15//1 16//1 17//1
f 17//1 16//1 18//1
f 17//1 18//1 19//1
f 19//1 18//1 20//1
f 19//1 20//1 21//1
f 21//1 20//1 22//1
f 21//1 22//1 23//1
f 23//1 22//1 24//1
f 23//1 24//1 25//1
f 25//1 24//1 26//1
f 2//1 27//1 3//1
f 27//1 2//1 28//1
f 27//1 28//1 29//1
f 29//1 28//1 30//1
f 29//1 30//1 31//1
f 31//1 30//1 32//1
f 31//1 32//1 33//1
f 33//1 32//1 34//1
f 33//1 34//1 35//1
f 35//1 34//1 36//1
f 35//1 36//1 37//1
f 37//1 36//1 38//1
f 37//1 38//1 39//1
f 39//1 38//1 40//1
f 39//1 40//1 41//1
f 39//1 41//1 42//1
f 42//1 41//1 43//1
f 42//1 43//1 44//1
f 44//1 43//1 45//1
f 44//1 45//1 46//1
f 46//1 45//1 47//1
f 46//1 47//1 48//1
f 48//1 47//1 25//1
f 48//1 25//1 26//1
f 49//2 50//3 51//3
f 50//3 49//2 52//2
f 53//4 50//3 54//4
f 50//3 53//4 51//3
f 55//5 54//4 56//5
f 54//4 55//5 53//4
f 57//6 56//5 58//6
f 56//5 57//6 55//5
f 59//7 58//6 60//7
f 58//6 59//7 57//6
f 61//8 60//7 62//8
f 60//7 61//8 59//7
f 63//9 62//8 64//9
f 62//8 63//9 61//8
f 65//10 63//9 64//9
f 63//9 65//10 66//10
f 67//11 66//10 65//10
f 66//10 67//11 68//11
f 69//12 68//11 67//11
f 68//11 69//12 70//12
f 71//13 70//12 69//12
f 70//12 71//13 72//13
f 73//14 72//13 71//13
f 72//13 73//14 74//14
f 75//15 74//14 73//14
f 74//14 75//15 76//15
f 77//16 75//15 78//16
f 75//15 77//16 76//15
f 79//17 78//16 80//17
f 78//16 79//17 77//16
f 81//18 80//17 82//18
f 80//17 81//18 79//17
f 83//19 82//18 84//19
f 82//18 83//19 81//18
f 85//20 84//19 86//20
f 84//19 85//20 83//19
f 87//21 86//20 88//21
f 86//20 87//21 85//20
f 87//21 89//22 90//22
f 89//22 87//21 88//21
f 90//22 91//23 92//23
f 91//23 90//22 89//22
f 92//23 93//24 94//24
f 93//24 92//23 91//23
f 94//24 95//25 96//25
f 95//25 94//24 93//24
f 96//25 52//2 49//2
f 52//2 96//25 95//25
