# SSTK version 0.8.0
# 7
mtllib original_7.mtl
o #ID129
v -0.02133347 0.99707482 -0.05922817
v 0.00785208 0.99690127 -0.05987096
v -0.00682400 0.99684539 -0.06140946
v -0.03461270 0.99706887 -0.05336679
v 0.02138255 0.99692614 -0.05445717
v -0.04616157 0.99708243 -0.04419816
v 0.03328044 0.99696192 -0.04573918
v -0.05481247 0.99718943 -0.03239739
v 0.04232973 0.99712444 -0.03419395
v -0.06028314 0.99697397 -0.01893537
v 0.04830580 0.99712603 -0.02070447
v -0.06189814 0.99687535 -0.00411033
v 0.05043851 0.99693767 -0.00620605
v -0.05975484 0.99706831 0.01029532
v 0.04886359 0.99699664 0.00834385
v -0.05395599 0.99699776 0.02373035
v 0.04325747 0.99699317 0.02202011
v -0.04490992 0.99687883 0.03516526
v 0.03458871 0.99692097 0.03375494
v -0.03307220 0.99707789 0.04386592
v 0.02313215 0.99701999 0.04309368
v -0.01946843 0.99699915 0.04916021
v 0.00981368 0.99700276 0.04877598
v -0.00490659 0.99707346 0.05104909
v 0.05048361 0.99700715 -0.00621655
v 0.04886704 0.76233411 0.00840245
v 0.05052953 0.76224470 -0.00613505
v 0.04871591 0.99695935 0.00833084
v 0.04839463 0.99701616 -0.02062584
v 0.04825803 0.76219843 -0.02065128
v 0.04225411 0.99712927 -0.03423198
v 0.04244777 0.76215407 -0.03422254
v 0.03314957 0.99707781 -0.04554157
v 0.03333427 0.76219319 -0.04560464
v 0.02148913 0.76212192 -0.05446717
v 0.02153638 0.99690970 -0.05446168
v 0.00779854 0.76230039 -0.05987734
v 0.00791305 0.99706700 -0.05971632
v -0.00672646 0.76235040 -0.06126610
v -0.00678981 0.99703137 -0.06156260
v -0.02120680 0.76227176 -0.05934335
v -0.02131089 0.99698344 -0.05931635
v -0.03476803 0.76229880 -0.05351594
v -0.03459503 0.99693916 -0.05338309
v -0.04606968 0.76212829 -0.04432069
v -0.04612735 0.99711299 -0.04412162
v -0.05488823 0.99695895 -0.03250790
v -0.05493638 0.76220637 -0.03246071
v -0.06044186 0.99712054 -0.01883520
v -0.06032638 0.76213724 -0.01874715
v -0.06206170 0.99711190 -0.00432619
v -0.06192219 0.76213695 -0.00420464
v -0.05976354 0.99693660 0.01032034
v -0.05991390 0.76207570 0.01017424
v -0.05395326 0.99705662 0.02368751
v -0.05400925 0.76217638 0.02371237
v -0.04475410 0.99683453 0.03509126
v -0.04494256 0.76222181 0.03532942
v -0.03300505 0.76215285 0.04403611
v -0.03304221 0.99705441 0.04385030
v -0.01947895 0.76218010 0.04928187
v -0.01946080 0.99689351 0.04934571
v -0.00476940 0.76218085 0.05100058
v -0.00483856 0.99697553 0.05100897
v 0.00968586 0.76220320 0.04876206
v 0.00976843 0.99704052 0.04879884
v 0.02306912 0.76231710 0.04294797
v 0.02316636 0.99699396 0.04298184
v 0.03455779 0.76222771 0.03372432
v 0.03460211 0.99699603 0.03374051
v 0.04335797 0.99691592 0.02206000
v 0.04335032 0.76224850 0.02201277
vn 0 1 0
vn 0.9998476951233675 0 -0.01745240832921517
vn 0.9702957356271962 0 0.2419218580940513
vn 0.9612617055496163 0 -0.27563732229841925
vn 0.8571672987529821 0 -0.5150380781539518
vn 0.6946583690978483 0 -0.7193398016530974
vn 0.4848096202463367 0 -0.8746197071393962
vn 0.24192185809405137 0 -0.9702957356271962
vn -0.017452408329215116 0 -0.9998476951233675
vn -0.27563732229841925 0 -0.9612617055496163
vn -0.5150380781539518 0 -0.8571672987529821
vn -0.7193398016530974 0 -0.6946583690978483
vn -0.8746197071393962 0 -0.48480962024633667
vn -0.9702957356271962 0 -0.2419218580940513
vn -0.9998476951233675 0 0.01745240832921517
vn -0.9612617055496163 0 0.27563732229841925
vn -0.8571672987529821 0 0.5150380781539518
vn -0.6946583690978483 0 0.7193398016530974
vn -0.4848096202463367 0 0.8746197071393962
vn -0.24192185809405137 0 0.9702957356271962
vn 0.017452408329215116 0 0.9998476951233675
vn 0.27563732229841925 0 0.9612617055496163
vn 0.5150380781539518 0 0.8571672987529821
vn 0.7193398016530974 0 0.6946583690978483
vn 0.8746197071393962 0 0.48480962024633667
usemtl material_0_0
f 1//1 2//1 3//1
f 2//1 1//1 4//1
f 2//1 4//1 5//1
f 5//1 4//1 6//1
f 5//1 6//1 7//1
f 7//1 6//1 8//1
f 7//1 8//1 9//1
f 9//1 8//1 10//1
f 9//1 10//1 11//1
f 11//1 10//1 12//1
f 11//1 12//1 13//1
f 13//1 12//1 14//1
f 13//1 14//1 15//1
f 15//1 14//1 16//1
f 15//1 16//1 17//1
f 17//1 16//1 18//1
f 17//1 18//1 19//1
f 19//1 18//1 20//1
f 19//1 20//1 21//1
f 21//1 20//1 22//1
f 21//1 22//1 23//1
f 23//1 22//1 24//1
f 25//2 26//3 27//2
f 26//3 25//2 28//3
f 29//4 27//2 30//4
f 27//2 29//4 25//2
f 31//5 30//4 32//5
f 30//4 31//5 29//4
f 33//6 32//5 34//6
f 32//5 33//6 31//5
f 33//6 35//7 36//7
f 35//7 33//6 34//6
f 36//7 37//8 38//8
f 37//8 36//7 35//7
f 38//8 39//9 40//9
f 39//9 38//8 37//8
f 40//9 41//10 42//10
f 41//10 40//9 39//9
f 42//10 43//11 44//11
f 43//11 42//10 41//10
f 44//11 45//12 46//12
f 45//12 44//11 43//11
f 47//13 45//12 48//13
f 45//12 47//13 46//12
f 49//14 48//13 50//14
f 48//13 49//14 47//13
f 51//15 50//14 52//15
f 50//14 51//15 49//14
f 53//16 52//15 54//16
f 52//15 53//16 51//15
f 55//17 54//16 56//17
f 54//16 55//17 53//16
f 57//18 56//17 58//18
f 56//17 57//18 55//17
f 59//19 57//18 58//18
f 57//18 59//19 60//19
f 61//20 60//19 59//19
f 60//19 61//20 62//20
f 63//21 62//20 61//20
f 62//20 63//21 64//21
f 65//22 64//21 63//21
f 64//21 65//22 66//22
f 67//23 66//22 65//22
f 66//22 67//23 68//23
f 69//24 68//23 67//23
f 68//23 69//24 70//24
f 71//25 69//24 72//25
f 69//24 71//25 70//24
f 28//3 72//25 26//3
f 72//25 28//3 71//25
