# SSTK version 0.8.0
# 1
mtllib original_1.mtl
o #ID89
v 0.34344778 -0.68914559 -0.36671010
v -0.35492286 -0.68909909 0.35619054
v -0.36724156 -0.68922663 -0.35435425
v 0.35586969 -0.68920005 0.34382822
v -0.35488178 0.44194078 0.35617781
v -0.36726242 -0.68932526 -0.35421993
v -0.35493219 -0.68924451 0.35614940
v -0.36726541 0.44193890 -0.35414091
v 0.34321659 0.44207486 -0.36675098
v 0.35581482 -0.68943002 0.34383059
v 0.34334842 -0.68939029 -0.36679754
v 0.35562123 0.44216630 0.34371693
v -0.36730775 0.44195089 -0.35417328
v -0.01120878 0.44192424 -0.31825477
v 0.34332158 0.44210477 -0.36677043
v -0.09218602 0.44206915 -0.30631583
v -0.16709340 0.44190439 -0.27365037
v -0.23111081 0.44203679 -0.22288720
v -0.27950951 0.44193994 -0.15700312
v -0.30967247 0.44202405 -0.08092955
v -0.31886417 0.44208054 0.00011177
v -0.35484719 0.44198477 0.35630221
v -0.30689601 0.44205104 0.08114532
v -0.27433373 0.44208682 0.15612750
v -0.22324740 0.44205053 0.21995811
v -0.15757258 0.44201285 0.26866183
v -0.08162857 0.44203973 0.29864580
v -0.00040833 0.44201028 0.30803317
v 0.30723769 0.44204514 -0.01080197
v 0.35567058 0.44195638 0.34392963
v 0.29531206 0.44193648 -0.09143963
v 0.26268230 0.44219258 -0.16670082
v 0.21190332 0.44199429 -0.23058805
v 0.14598993 0.44198883 -0.27906843
v 0.06996397 0.44201400 -0.30917374
v 0.29819610 0.44210058 0.07056648
v 0.26805778 0.44208677 0.14670389
v 0.21957430 0.44198249 0.21229815
v 0.15548972 0.44216010 0.26318968
v 0.08062906 0.44190569 0.29592450
vn 0 -1 0
vn -0.9998476951233675 0 0.017452408329215144
vn 0.9998476951233675 0 -0.017452408329215144
vn 0 1 0
usemtl material_0_0
f 1//1 2//1 3//1
f 2//1 1//1 4//1
f 5//2 6//2 7//2
f 6//2 5//2 8//2
f 9//3 10//3 11//3
f 10//3 9//3 12//3
f 13//4 14//4 15//4
f 14//4 13//4 16//4
f 16//4 13//4 17//4
f 17//4 13//4 18//4
f 18//4 13//4 19//4
f 19//4 13//4 20//4
f 20//4 13//4 21//4
f 21//4 13//4 22//4
f 21//4 22//4 23//4
f 23//4 22//4 24//4
f 24//4 22//4 25//4
f 25//4 22//4 26//4
f 26//4 22//4 27//4
f 27//4 22//4 28//4
f 15//4 29//4 30//4
f 29//4 15//4 31//4
f 31//4 15//4 32//4
f 32//4 15//4 33//4
f 33//4 15//4 34//4
f 34//4 15//4 35//4
f 35//4 15//4 14//4
f 30//4 29//4 36//4
f 30//4 36//4 37//4
f 30//4 37//4 38//4
f 30//4 38//4 39//4
f 30//4 39//4 40//4
f 30//4 40//4 28//4
f 30//4 28//4 22//4
