# SSTK version 0.8.0
# 11
mtllib original_11.mtl
o #ID67
v 0.00024284 0.80781823 0.39416342
v 0.01284240 0.80862286 0.39439257
v 0.00661404 0.80777415 0.39382922
v -0.00567699 0.80980360 0.39588554
v 0.01856305 0.81087558 0.39653283
v -0.01077304 0.81262061 0.39857889
v 0.02326903 0.81422484 0.39963285
v 0.00622777 0.81429630 0.40001621
v 0.00209489 0.81461676 0.40027204
v -0.01461845 0.81647061 0.40268571
v -0.00188394 0.81564451 0.40145499
v -0.00516992 0.81739799 0.40326033
v -0.01738651 0.82118812 0.40711196
v -0.00803503 0.82015483 0.40599734
v -0.00978260 0.82317706 0.40890757
v -0.01867197 0.82615847 0.41204912
v -0.01045847 0.82652818 0.41210543
v -0.01794647 0.83126681 0.41696895
v -0.00998956 0.83000197 0.41531384
v -0.00858679 0.83298635 0.41841616
v -0.01567427 0.83607075 0.42154864
v -0.00613979 0.83599852 0.42122334
v -0.00310480 0.83824100 0.42335898
v -0.01213075 0.84038109 0.42561787
v 0.00085471 0.83962876 0.42467536
v 0.00499175 0.84037569 0.42520190
v 0.01048913 0.81494403 0.40065775
v 0.02708631 0.81838480 0.40357429
v 0.01423266 0.81642598 0.40182091
v 0.01746451 0.81853688 0.40423476
v 0.02906898 0.82319001 0.40834875
v 0.01971116 0.82152973 0.40675512
v 0.02118093 0.82468128 0.40977063
v 0.02960486 0.82848681 0.41342433
v 0.02142806 0.82789704 0.41308718
v 0.02075398 0.83143373 0.41614201
v 0.02863894 0.83334944 0.41821718
v 0.01900776 0.83447569 0.41925853
v 0.02592023 0.83813789 0.42259191
v 0.01643810 0.83693924 0.42197022
v 0.01290906 0.83908480 0.42376669
v 0.02185493 0.84200807 0.42663175
v 0.00900042 0.84006632 0.42506035
v -0.00727428 0.84379245 0.42886526
v 0.01673658 0.84480134 0.42943758
v -0.00168809 0.84588347 0.43085585
v 0.01088791 0.84650283 0.43127285
v 0.00435845 0.84693288 0.43155502
v 0.00456885 0.84684693 0.43171364
v -0.00164888 0.84597532 0.43061261
v 0.01093238 0.84655119 0.43108678
v 0.01667229 0.84474240 0.42947113
v -0.00724671 0.84370543 0.42862590
v 0.02192343 0.84202291 0.42663516
v -0.01224743 0.84042036 0.42559494
v 0.00496882 0.84031146 0.42525330
v 0.00900949 0.84006916 0.42501789
v 0.01278047 0.83899855 0.42373846
v 0.02580242 0.83819913 0.42269043
v 0.01645064 0.83706098 0.42192897
v 0.01907852 0.83445636 0.41936885
v 0.02847700 0.83350881 0.41833020
v 0.02078942 0.83138677 0.41635890
v 0.02975360 0.82842933 0.41323945
v 0.02149041 0.82810316 0.41305760
v 0.02134883 0.82453503 0.40976352
v 0.02915477 0.82320570 0.40830481
v 0.01972724 0.82134029 0.40676466
v 0.01724411 0.81852392 0.40404520
v 0.02694242 0.81834680 0.40380438
v 0.01421310 0.81643126 0.40198359
v 0.01039798 0.81490133 0.40061446
v 0.00624097 0.81435703 0.40001118
v 0.02333636 0.81424730 0.39968546
v 0.00078906 0.83980511 0.42482768
v -0.00296837 0.83824063 0.42317455
v -0.01586289 0.83607413 0.42136616
v -0.00639342 0.83608737 0.42122475
v -0.00872271 0.83309206 0.41852721
v -0.01805702 0.83132341 0.41692689
v -0.00998468 0.82998334 0.41537618
v -0.01026466 0.82652700 0.41206818
v -0.01844323 0.82619930 0.41190797
v -0.00971768 0.82314508 0.40885802
v -0.01739445 0.82112350 0.40712412
v -0.00794410 0.82029846 0.40594652
v -0.00523468 0.81748750 0.40345919
v -0.01483788 0.81648963 0.40245144
v -0.00182790 0.81551889 0.40144974
v 0.00210404 0.81462176 0.40036678
v -0.01052308 0.81273741 0.39881846
v 0.01868151 0.81074568 0.39646420
v -0.00550539 0.80985842 0.39588867
v 0.01287197 0.80854415 0.39444494
v 0.00042313 0.80797272 0.39408294
v 0.00655541 0.80778850 0.39362269
vt -0.02349232 0.3392111
vt -0.03875152 0.3400918
vt -0.03117989 0.338647
vt -0.0162127 0.3417456
vt -0.0456912 0.343447
vt -0.00983712 0.346078
vt -0.05152602 0.3484841
vt -0.03060787 0.3485579
vt -0.02550493 0.3489324
vt -0.004800067 0.3519128
vt -0.02067279 0.3506148
vt -0.01644074 0.3534905
vt -0.001444809 0.3588525
vt -0.01309719 0.3573636
vt -0.01087001 0.3619701
vt 1.303406e-15 0.3664241
vt -0.009910957 0.3669961
vt -0.0005641025 0.3741117
vt -0.0102854 0.372099
vt -0.01196783 0.3769312
vt -0.003098674 0.3813913
vt -0.01484357 0.3811632
vt -0.01871667 0.3845068
vt -0.007430986 0.3877669
vt -0.02332316 0.386734
vt -0.02834913 0.387693
vt -0.03563384 0.349517
vt -0.05585833 0.3548597
vt -0.04024033 0.3517442
vt -0.04411343 0.3550877
vt -0.0583929 0.3621393
vt -0.04698918 0.3593198
vt -0.0486716 0.3641519
vt -0.058957 0.3698269
vt -0.04904604 0.3692548
vt -0.04808699 0.3742808
vt -0.05751219 0.3773985
vt -0.04585981 0.3788873
vt -0.05415693 0.3843382
vt -0.04251626 0.3827604
vt -0.03828421 0.3856361
vt -0.04911988 0.390173
vt -0.03345207 0.3873186
vt -0.0132658 0.3928039
vt -0.0427443 0.3945053
vt -0.02020548 0.3961592
vt -0.03546468 0.3970399
vt -0.02777711 0.397604
vn -0.012560303053834255 0.6942967743289906 -0.7195792019948566
vn 0.012560303053834255 -0.6942967743289906 0.7195792019948566
usemtl material_0_0
f 1/1/1 2/2/1 3/3/1
f 2/2/1 1/1/1 4/4/1
f 2/2/1 4/4/1 5/5/1
f 5/5/1 4/4/1 6/6/1
f 5/5/1 6/6/1 7/7/1
f 7/7/1 6/6/1 8/8/1
f 8/8/1 6/6/1 9/9/1
f 9/9/1 6/6/1 10/10/1
f 9/9/1 10/10/1 11/11/1
f 11/11/1 10/10/1 12/12/1
f 12/12/1 10/10/1 13/13/1
f 12/12/1 13/13/1 14/14/1
f 14/14/1 13/13/1 15/15/1
f 15/15/1 13/13/1 16/16/1
f 15/15/1 16/16/1 17/17/1
f 17/17/1 16/16/1 18/18/1
f 17/17/1 18/18/1 19/19/1
f 19/19/1 18/18/1 20/20/1
f 20/20/1 18/18/1 21/21/1
f 20/20/1 21/21/1 22/22/1
f 22/22/1 21/21/1 23/23/1
f 23/23/1 21/21/1 24/24/1
f 23/23/1 24/24/1 25/25/1
f 25/25/1 24/24/1 26/26/1
f 7/7/1 27/27/1 28/28/1
f 27/27/1 7/7/1 8/8/1
f 28/28/1 27/27/1 29/29/1
f 28/28/1 29/29/1 30/30/1
f 28/28/1 30/30/1 31/31/1
f 31/31/1 30/30/1 32/32/1
f 31/31/1 32/32/1 33/33/1
f 31/31/1 33/33/1 34/34/1
f 34/34/1 33/33/1 35/35/1
f 34/34/1 35/35/1 36/36/1
f 34/34/1 36/36/1 37/37/1
f 37/37/1 36/36/1 38/38/1
f 37/37/1 38/38/1 39/39/1
f 39/39/1 38/38/1 40/40/1
f 39/39/1 40/40/1 41/41/1
f 39/39/1 41/41/1 42/42/1
f 42/42/1 41/41/1 43/43/1
f 42/42/1 43/43/1 26/26/1
f 42/42/1 26/26/1 24/24/1
f 42/42/1 24/24/1 44/44/1
f 42/42/1 44/44/1 45/45/1
f 45/45/1 44/44/1 46/46/1
f 45/45/1 46/46/1 47/47/1
f 47/47/1 46/46/1 48/48/1
f 49/48/2 50/46/2 51/47/2
f 51/47/2 50/46/2 52/45/2
f 50/46/2 53/44/2 52/45/2
f 52/45/2 53/44/2 54/42/2
f 53/44/2 55/24/2 54/42/2
f 55/24/2 56/26/2 54/42/2
f 56/26/2 57/43/2 54/42/2
f 57/43/2 58/41/2 54/42/2
f 54/42/2 58/41/2 59/39/2
f 58/41/2 60/40/2 59/39/2
f 60/40/2 61/38/2 59/39/2
f 59/39/2 61/38/2 62/37/2
f 61/38/2 63/36/2 62/37/2
f 62/37/2 63/36/2 64/34/2
f 63/36/2 65/35/2 64/34/2
f 65/35/2 66/33/2 64/34/2
f 64/34/2 66/33/2 67/31/2
f 66/33/2 68/32/2 67/31/2
f 68/32/2 69/30/2 67/31/2
f 67/31/2 69/30/2 70/28/2
f 69/30/2 71/29/2 70/28/2
f 71/29/2 72/27/2 70/28/2
f 73/8/2 74/7/2 72/27/2
f 70/28/2 72/27/2 74/7/2
f 56/26/2 55/24/2 75/25/2
f 75/25/2 55/24/2 76/23/2
f 55/24/2 77/21/2 76/23/2
f 76/23/2 77/21/2 78/22/2
f 78/22/2 77/21/2 79/20/2
f 77/21/2 80/18/2 79/20/2
f 79/20/2 80/18/2 81/19/2
f 81/19/2 80/18/2 82/17/2
f 80/18/2 83/16/2 82/17/2
f 82/17/2 83/16/2 84/15/2
f 83/16/2 85/13/2 84/15/2
f 84/15/2 85/13/2 86/14/2
f 86/14/2 85/13/2 87/12/2
f 85/13/2 88/10/2 87/12/2
f 87/12/2 88/10/2 89/11/2
f 89/11/2 88/10/2 90/9/2
f 88/10/2 91/6/2 90/9/2
f 90/9/2 91/6/2 73/8/2
f 73/8/2 91/6/2 74/7/2
f 74/7/2 91/6/2 92/5/2
f 91/6/2 93/4/2 92/5/2
f 92/5/2 93/4/2 94/2/2
f 93/4/2 95/1/2 94/2/2
f 96/3/2 94/2/2 95/1/2
