# SSTK version 0.8.0
# 9
mtllib original-9.mtl
o #ID68
v -0.01079911 0.76104800 0.07617158
v -0.03020313 0.59981854 0.06811833
v -0.01077419 0.59983256 0.07614930
v -0.03023860 0.76098842 0.06806899
v 0.01014283 0.76109124 0.07896890
v 0.01013032 0.59976681 0.07893617
v -0.01069082 0.76103866 0.07621390
v -0.00735932 0.76109629 0.00299312
v -0.00798647 0.76104639 -0.00165988
v 0.01002376 0.76105160 0.07880465
v -0.00554101 0.76108885 0.00737368
v -0.00271419 0.76093502 0.01111693
v 0.00108589 0.76096787 0.01386265
v 0.00535928 0.76103642 0.01576058
v 0.01002639 0.76106535 0.01632661
v 0.01479526 0.76105095 0.01574314
v 0.03090126 0.76108188 0.07615640
v 0.01910820 0.76105421 0.01391522
v 0.02289674 0.76107981 0.01108746
v 0.02575636 0.76098073 0.00731781
v 0.02750705 0.76103976 0.00289260
v 0.02819046 0.76099408 -0.00168923
v -0.06780915 0.76111395 0.01923752
v -0.06769819 0.76107556 -0.02259728
v -0.07056497 0.76095569 -0.00168588
v -0.05975067 0.76105444 0.03854188
v -0.05976003 0.76096659 -0.04201141
v -0.04685735 0.76101639 0.05530814
v -0.04679971 0.76102471 -0.05878905
v -0.03024070 0.76099490 0.06806862
v -0.03025264 0.76098605 -0.07153005
v -0.01065244 0.76103249 -0.07957960
v -0.00734772 0.76096390 -0.00641163
v 0.01017661 0.76094630 -0.08234472
v -0.00558513 0.76091653 -0.01078092
v -0.00270776 0.76094216 -0.01455163
v 0.00110333 0.76099414 -0.01735182
v 0.00535807 0.76091683 -0.01921715
v 0.01020938 0.76094086 -0.01965070
v 0.01487524 0.76097954 -0.01904393
v 0.03105528 0.76108517 -0.07952258
v 0.01905784 0.76091559 -0.01722948
v 0.02284763 0.76104251 -0.01444745
v 0.02564092 0.76092090 -0.01068605
v 0.02748337 0.76106283 -0.00645222
v 0.05046676 0.76091415 0.06809940
v 0.05040227 0.76093953 -0.07145626
v 0.06717416 0.76107175 0.05520643
v 0.06704063 0.76110013 -0.05869470
v 0.07988043 0.76094415 0.03865908
v 0.07998997 0.76106824 -0.04197546
v 0.08801819 0.76107566 0.01911113
v 0.08802800 0.76095375 -0.02265115
v 0.09079646 0.76096471 -0.00175783
v -0.04690313 0.59980739 0.05517655
v -0.04689437 0.76092068 0.05526147
v 0.03093374 0.76098959 0.07606114
v 0.03087597 0.59991408 0.07617626
v 0.05049658 0.76100204 0.06814573
v 0.05050736 0.59984921 0.06806630
v 0.06709954 0.76096484 0.05523845
v 0.06719742 0.59992143 0.05534435
v 0.07995050 0.59979415 0.03854781
v 0.07989483 0.76096222 0.03849992
v 0.08799375 0.59981176 0.01918059
v 0.08798011 0.76097317 0.01908332
v 0.09064869 0.59977941 -0.00165733
v 0.09073143 0.76092139 -0.00166880
v 0.08804365 0.59976678 -0.02250339
v 0.08805700 0.76094155 -0.02266817
v 0.07983699 0.59977835 -0.04192490
v 0.07991750 0.76110005 -0.04210209
v 0.06718299 0.59985023 -0.05870850
v 0.06712507 0.76093944 -0.05864214
v 0.05049095 0.76098364 -0.07142277
v 0.05043386 0.59976196 -0.07153671
v 0.03103894 0.76103801 -0.07964424
v 0.03103740 0.59988845 -0.07963824
v 0.01017002 0.76098362 -0.08226137
v 0.01021157 0.59984396 -0.08232533
v -0.01083610 0.76105221 -0.07960041
v -0.01075001 0.59986506 -0.07949085
v -0.03024050 0.76105624 -0.07155948
v -0.03027607 0.59987524 -0.07157735
v -0.04690129 0.76101791 -0.05867213
v -0.04696662 0.59987128 -0.05874881
v -0.05967893 0.59990557 -0.04200082
v -0.05974675 0.76101493 -0.04202061
v -0.06772782 0.59983370 -0.02252918
v -0.06782568 0.76107789 -0.02266592
v -0.07048341 0.59981344 -0.00163667
v -0.07043336 0.76100414 -0.00179925
v -0.06781698 0.59986961 0.01916074
v -0.06779274 0.76109549 0.01906830
v -0.05967953 0.59982094 0.03867029
v -0.05977109 0.76098170 0.03867193
vn -0.25881900959356163 0 0.9659258358036645
vn -0.5000000016387101 0 0.866025402838329
vn 0.25881900959356163 0 -0.9659258358036645
vn 0.5000000016387101 0 -0.866025402838329
vn 0 0 1
vn 0 0 -1
vn 0 1 0
vn 0 -1 0
vn -0.7071067811865476 0 0.7071067811865476
vn 0.7071067811865476 0 -0.7071067811865476
vn 0.25881900959356163 0 0.9659258358036645
vn -0.25881900959356163 0 -0.9659258358036645
vn 0.5000000016387101 0 0.866025402838329
vn -0.5000000016387101 0 -0.866025402838329
vn 0.7071067811865476 0 0.7071067811865476
vn -0.7071067811865476 0 -0.7071067811865476
vn 0.866025402838329 0 0.5000000016387101
vn -0.866025402838329 0 -0.5000000016387101
vn 0.9659258358036645 0 0.25881900959356163
vn -0.9659258358036645 0 -0.25881900959356163
vn 1 0 0
vn -1 0 0
vn 0.9659258358036645 0 -0.25881900959356163
vn -0.9659258358036645 0 0.25881900959356163
vn 0.866025402838329 0 -0.5000000016387101
vn -0.866025402838329 0 0.5000000016387101
usemtl material_0_2
f 1//1 2//2 3//1
f 3//3 2//4 1//3
f 2//2 1//1 4//2
f 4//4 1//3 2//4
f 5//5 3//1 6//5
f 6//6 3//3 5//6
f 3//1 5//5 1//1
f 1//3 5//6 3//3
f 7//7 8//7 9//7
f 9//8 8//8 7//8
f 8//7 7//7 10//7
f 10//8 7//8 8//8
f 8//7 10//7 11//7
f 11//8 10//8 8//8
f 11//7 10//7 12//7
f 12//8 10//8 11//8
f 12//7 10//7 13//7
f 13//8 10//8 12//8
f 13//7 10//7 14//7
f 14//8 10//8 13//8
f 14//7 10//7 15//7
f 15//8 10//8 14//8
f 15//7 10//7 16//7
f 16//8 10//8 15//8
f 16//7 10//7 17//7
f 17//8 10//8 16//8
f 16//7 17//7 18//7
f 18//8 17//8 16//8
f 18//7 17//7 19//7
f 19//8 17//8 18//8
f 19//7 17//7 20//7
f 20//8 17//8 19//8
f 20//7 17//7 21//7
f 21//8 17//8 20//8
f 21//7 17//7 22//7
f 22//8 17//8 21//8
f 23//7 24//7 25//7
f 25//8 24//8 23//8
f 24//7 23//7 26//7
f 26//8 23//8 24//8
f 24//7 26//7 27//7
f 27//8 26//8 24//8
f 27//7 26//7 28//7
f 28//8 26//8 27//8
f 27//7 28//7 29//7
f 29//8 28//8 27//8
f 29//7 28//7 30//7
f 30//8 28//8 29//8
f 29//7 30//7 31//7
f 31//8 30//8 29//8
f 31//7 30//7 32//7
f 32//8 30//8 31//8
f 32//7 30//7 7//7
f 7//8 30//8 32//8
f 32//7 7//7 9//7
f 9//8 7//8 32//8
f 32//7 9//7 33//7
f 33//8 9//8 32//8
f 32//7 33//7 34//7
f 34//8 33//8 32//8
f 34//7 33//7 35//7
f 35//8 33//8 34//8
f 34//7 35//7 36//7
f 36//8 35//8 34//8
f 34//7 36//7 37//7
f 37//8 36//8 34//8
f 34//7 37//7 38//7
f 38//8 37//8 34//8
f 34//7 38//7 39//7
f 39//8 38//8 34//8
f 34//7 39//7 40//7
f 40//8 39//8 34//8
f 34//7 40//7 41//7
f 41//8 40//8 34//8
f 41//7 40//7 42//7
f 42//8 40//8 41//8
f 41//7 42//7 43//7
f 43//8 42//8 41//8
f 41//7 43//7 44//7
f 44//8 43//8 41//8
f 41//7 44//7 45//7
f 45//8 44//8 41//8
f 41//7 45//7 22//7
f 22//8 45//8 41//8
f 41//7 22//7 17//7
f 17//8 22//8 41//8
f 41//7 17//7 46//7
f 46//8 17//8 41//8
f 41//7 46//7 47//7
f 47//8 46//8 41//8
f 47//7 46//7 48//7
f 48//8 46//8 47//8
f 47//7 48//7 49//7
f 49//8 48//8 47//8
f 49//7 48//7 50//7
f 50//8 48//8 49//8
f 49//7 50//7 51//7
f 51//8 50//8 49//8
f 51//7 50//7 52//7
f 52//8 50//8 51//8
f 51//7 52//7 53//7
f 53//8 52//8 51//8
f 53//7 52//7 54//7
f 54//8 52//8 53//8
f 4//2 55//9 2//2
f 2//4 55//10 4//4
f 55//9 4//2 56//9
f 56//10 4//4 55//10
f 57//11 6//5 58//11
f 58//12 6//6 57//12
f 6//5 57//11 5//5
f 5//6 57//12 6//6
f 59//13 58//11 60//13
f 60//14 58//12 59//14
f 58//11 59//13 57//11
f 57//12 59//14 58//12
f 61//15 60//13 62//15
f 62//16 60//14 61//16
f 60//13 61//15 59//13
f 59//14 61//16 60//14
f 63//17 61//15 62//15
f 62//16 61//16 63//18
f 61//15 63//17 64//17
f 64//18 63//18 61//16
f 65//19 64//17 63//17
f 63//18 64//18 65//20
f 64//17 65//19 66//19
f 66//20 65//20 64//18
f 67//21 66//19 65//19
f 65//20 66//20 67//22
f 66//19 67//21 68//21
f 68//22 67//22 66//20
f 69//23 68//21 67//21
f 67//22 68//22 69//24
f 68//21 69//23 70//23
f 70//24 69//24 68//22
f 71//25 70//23 69//23
f 69//24 70//24 71//26
f 70//23 71//25 72//25
f 72//26 71//26 70//24
f 73//10 72//25 71//25
f 71//26 72//26 73//9
f 72//25 73//10 74//10
f 74//9 73//9 72//26
f 75//4 73//10 76//4
f 76//2 73//9 75//2
f 73//10 75//4 74//10
f 74//9 75//2 73//9
f 77//3 76//4 78//3
f 78//1 76//2 77//1
f 76//4 77//3 75//4
f 75//2 77//1 76//2
f 79//6 78//3 80//6
f 80//5 78//1 79//5
f 78//3 79//6 77//3
f 77//1 79//5 78//1
f 81//12 80//6 82//12
f 82//11 80//5 81//11
f 80//6 81//12 79//6
f 79//5 81//11 80//5
f 83//14 82//12 84//14
f 84//13 82//11 83//13
f 82//12 83//14 81//12
f 81//11 83//13 82//11
f 85//16 84//14 86//16
f 86//15 84//13 85//15
f 84//14 85//16 83//14
f 83//13 85//15 84//13
f 85//16 87//18 88//18
f 88//17 87//17 85//15
f 87//18 85//16 86//16
f 86//15 85//15 87//17
f 88//18 89//20 90//20
f 90//19 89//19 88//17
f 89//20 88//18 87//18
f 87//17 88//17 89//19
f 90//20 91//22 92//22
f 92//21 91//21 90//19
f 91//22 90//20 89//20
f 89//19 90//19 91//21
f 92//22 93//24 94//24
f 94//23 93//23 92//21
f 93//24 92//22 91//22
f 91//21 92//21 93//23
f 94//24 95//26 96//26
f 96//25 95//25 94//23
f 95//26 94//24 93//24
f 93//23 94//23 95//25
f 96//26 55//9 56//9
f 56//10 55//10 96//25
f 55//9 96//26 95//26
f 95//25 96//25 55//10
