# SSTK version 0.8.0
# 3
mtllib original_3.mtl
o mesh3/mesh3-geometry#mesh3-geometry
v 0.04476687 0.72752817 0.00209307
v 0.04573775 0.72729180 -0.01902156
v 0.04670150 0.72727211 -0.00826316
v 0.04207132 0.72735657 -0.02884062
v 0.04665781 0.90581667 -0.00834644
v 0.04467553 0.90566129 0.00221092
v 0.04029985 0.72736876 0.01187531
v 0.04564597 0.90585085 -0.01877770
v 0.04016202 0.90598457 0.01208134
v 0.03602655 0.72732819 -0.03769576
v 0.04195094 0.90573002 -0.02894288
v -0.03496601 0.90583413 -0.01184553
v 0.03967248 0.90588179 -0.15578899
v 0.04612036 0.90595670 -0.00293472
v 0.03346407 0.90568767 0.02011797
v 0.03337752 0.72725802 0.02000309
v 0.05851004 0.90576696 0.08142916
v 0.04476080 0.90580485 0.00201318
v 0.04038801 0.90596552 0.01177443
v 0.02793015 0.72739592 -0.04455163
v 0.03604662 0.90575874 -0.03752539
v 0.07139021 0.90580237 -0.14211437
v -0.04700802 0.90581910 0.42331571
v 0.04013078 0.90583416 0.01194648
v 0.04313862 0.90584992 0.00667792
v 0.02477469 0.72725595 0.02631877
v 0.02796055 0.90580624 -0.04469955
v 0.00594419 0.90594529 -0.16048236
v 0.08751995 0.90576280 0.06308655
v 0.07127207 0.99511905 -0.14236975
v 0.06074240 0.90584131 0.42326865
v 0.03365593 0.90576987 0.01968231
v 0.04070562 0.90581579 0.01137628
v 0.02465965 0.90593191 0.02628236
v 0.01813938 0.72745645 -0.04916038
v 0.01822547 0.90589406 -0.04906663
v 0.00598585 0.99498892 -0.16050463
v 0.09795942 0.90582161 -0.12070757
v 0.08747094 0.99499962 0.06306645
v 0.03986287 0.99514970 -0.15586136
v 0.06080119 0.95778126 0.46066233
v 0.03283630 0.90580383 0.02063109
v 0.03760933 0.90573440 0.01557229
v 0.01462991 0.72737099 0.02972803
v 0.00752545 0.90587312 -0.05093841
v -0.02795072 0.99514757 -0.15582136
v 0.11050652 0.90575558 0.03763106
v 0.05842082 0.99502167 0.08139431
v 0.09800362 0.99498173 -0.12071312
v -0.04704406 0.95801626 0.46055183
v 0.02521884 0.90569500 0.02578787
v 0.03400060 0.90576454 0.01943745
v 0.01479310 0.90582278 0.02984907
v 0.00766097 0.72727296 -0.05098065
v -0.00315317 0.90580175 -0.05005685
v 0.03298811 0.99508397 0.09198967
v -0.02786264 0.90581250 -0.15584160
v 0.00577829 0.99506579 0.09542562
v 0.11784395 0.90583991 -0.09280791
v 0.11057436 0.99504297 0.03776091
v 0.11782927 0.99504799 -0.09279223
v -0.04701106 0.99515086 0.08135276
v 0.02344492 0.90584088 0.02669713
v 0.03008016 0.90593702 0.02284818
v 0.00415781 0.90597931 0.03082600
v 0.00406496 0.72730455 0.03083280
v -0.01306528 0.90585512 -0.04635790
v -0.05964108 0.99510241 -0.14234203
v -0.02164401 0.99509492 0.09183302
v 0.12569227 0.90570515 0.00703467
v -0.04715926 0.90592734 0.08123414
v 0.01584107 0.90598361 0.02943182
v 0.02556211 0.90577308 0.02568926
v 0.00584309 0.90582866 0.03060840
v -0.00298804 0.72738611 -0.04996945
v -0.02169454 0.90578077 -0.04020613
v -0.05955096 0.90583616 -0.14226000
v 0.12961233 0.90575310 -0.06074695
v 0.12952110 0.99503913 -0.06082556
v 0.12580639 0.99492947 0.00701023
v -0.07598958 0.90586415 0.06304719
v 0.01278013 0.90573598 0.03010672
v 0.02087381 0.90585825 0.02780710
v -0.00637185 0.72733904 0.02905600
v -0.01300439 0.72722267 -0.04644702
v -0.02862204 0.90566892 -0.03212020
v -0.08621511 0.99502088 -0.12087891
v -0.07585676 0.99511695 0.06302489
v 0.13222967 0.90573077 -0.02653890
v -0.03493985 0.90568332 -0.00651541
v 0.01602510 0.90588247 0.02940350
v -0.00654594 0.90584835 0.02892105
v 0.01090490 0.90573524 0.03029826
v -0.00127038 0.90591288 0.03022638
v -0.02178240 0.72749488 -0.04025871
v -0.02869346 0.72735209 -0.03203659
v -0.03308610 0.90583499 -0.02236294
v -0.08611654 0.90592196 -0.12077185
v 0.13223356 0.99497334 -0.02675566
v -0.09892906 0.99506279 0.03758159
v -0.03407276 0.90585455 -0.00119312
v -0.01614551 0.72736315 0.02426136
v -0.01611244 0.90591443 0.02451874
v -0.03315594 0.72753881 -0.02254036
v -0.03513727 0.72736519 -0.01196002
v -0.10616188 0.90580859 -0.09298892
v -0.09892608 0.90570999 0.03736383
v -0.03269761 0.90593714 0.00390791
v -0.03407896 0.72736267 -0.00120357
v -0.03051230 0.90582956 0.00877056
v -0.01146667 0.90589317 0.02698721
v -0.02440283 0.90593811 0.01745992
v -0.02442942 0.72736264 0.01751844
v -0.03052698 0.72741786 0.00873339
v -0.10611093 0.99499059 -0.09313444
v -0.11407848 0.99509564 0.00687266
v -0.02052589 0.90577170 0.02127241
v -0.11786300 0.90581284 -0.06085050
v -0.11399659 0.90599175 0.00697572
v -0.02755131 0.90576489 0.01342322
v -0.11786979 0.99497628 -0.06086834
v -0.12059649 0.99498089 -0.02664571
v -0.12062850 0.90577679 -0.02670790
vn 0.8513415357031419 -0.45029275442345723 0.2691728532009718
vn 0.871869809780261 -0.45029290175758196 -0.19255995798833214
vn 0.8919997579055005 -0.4502928777876026 0.0396579892365653
vn 0.792323253066899 -0.4502931438229776 -0.4116551314820526
vn -0.8919997579055005 0.4502928777876026 -0.0396579892365653
vn -0.871869809780261 0.45029290175758196 0.19255995798833214
vn -0.8513415357031419 0.45029275442345723 -0.2691728532009718
vn -0.792323253066899 0.4502931438229776 0.4116551314820526
vn 0.7526659052615722 -0.4502929433214058 0.4803439395388719
vn -0.7526659052615722 0.4502929433214058 -0.4803439395388719
vn 0.6587810442638291 -0.45029303025541473 -0.602697040495517
vn -0.6587810442638291 0.45029303025541473 0.602697040495517
vn 0 1 0
vn 0.23961606039763178 0.4505181135576101 -0.8600102167742024
vn 0 -1 0
vn 0.6026970404955169 -0.450293030255415 0.658781044263829
vn -0.6026970404955169 0.450293030255415 -0.658781044263829
vn 0.8891847049601166 0.3523628830826673 0.29187490315315046
vn 0.480343939538872 -0.4502929433214055 -0.7526659052615723
vn -0.480343939538872 0.4502929433214055 0.7526659052615723
vn 0.46122017398957826 0.45051816995238037 -0.7644012883608853
vn -0.7384079886754059 0.30792799527746223 0.5999449907989438
vn 0.41165513148205246 -0.45029314382297775 0.7923232530668988
vn -0.41165513148205246 0.45029314382297775 -0.7923232530668988
vn 0.000500000091346775 0.45051808230673296 -0.8927671631027725
vn 0.5754883618933805 0.450518283306484 0.6825294292056953
vn -0.46122017398957826 -0.45051816995238037 0.7644012883608853
vn -0.23961606039763178 -0.4505181135576101 0.8600102167742024
vn 0.7397362166362211 0.3119560913582264 0.5962161746055097
vn 0.2691728532009719 -0.450292754423457 -0.851341535703142
vn -0.2691728532009719 0.450292754423457 0.851341535703142
vn -0.000500000091346775 -0.45051808230673296 0.8927671631027725
vn 0.6491173715088024 0.45051825784473787 -0.6129273507961981
vn -0.5754883618933805 -0.450518283306484 -0.6825294292056953
vn -0.8891847049601166 -0.3523628830826673 -0.29187490315315046
vn -0.6491173715088024 -0.45051825784473787 0.6129273507961981
vn -0.7397362166362211 -0.3119560913582264 -0.5962161746055097
vn 0.7384079886754059 -0.30792799527746223 -0.5999449907989438
vn -0.8962500109163253 -0.18684200227573555 -0.4022760048997219
vn 0.8962500109163253 0.18684200227573555 0.4022760048997219
vn 0.246643998034124 -0.9675739922879516 -0.054472999565823174
vn -0.246643998034124 0.9675739922879516 0.054472999565823174
vn 0.2386530047710316 -0.45051800900653105 0.8602780171982481
vn 0.7372799630165635 0.45051797740111765 0.5034399747464448
vn -0.5715900357778221 -0.7428130464952698 -0.34858802181934523
vn -0.7372799630165635 -0.45051797740111765 -0.5034399747464448
vn 0.7074420085154796 -0.29163100351036225 -0.6437990077494089
vn 0.0396579892365654 -0.45029287778760235 -0.8919997579055006
vn -0.0396579892365654 0.45029287778760235 0.8919997579055006
vn 0.7895750508367914 0.4505180290066043 -0.41665902682659217
vn -0.7895750508367914 -0.4505180290066043 0.41665902682659217
vn 0.5714519207404811 -0.7421428970659003 -0.350237951422525
vn -0.25233802804977057 -0.96757410755506 -0.011219001247098853
vn 0.25233802804977057 0.96757410755506 0.011219001247098853
vn -0.2386530047710316 0.45051800900653105 -0.8602780171982481
vn 0.4603641156183906 -0.4505181131456112 0.7649171921055348
vn 0.8451887813458872 0.4505178834490112 0.28755792560748034
vn -0.8451887813458872 -0.4505178834490112 -0.28755792560748034
vn 0.7612736858372594 -0.495522795507447 -0.4182338274030907
vn -0.19255995798833203 -0.45029290175758185 -0.8718698097802611
vn 0.19255995798833203 0.45029290175758185 0.8718698097802611
vn 0.8723280822134364 0.45051804245952554 -0.18994001790108767
vn -0.8723280822134364 -0.45051804245952554 0.18994001790108767
vn 0.5762530640248884 -0.4505180500550358 -0.6818840757610756
vn -0.7612736858372594 0.495522795507447 0.4182338274030907
vn -0.2691728532009719 -0.45029275442345734 0.8513415357031417
vn 0.2691728532009719 0.45029275442345734 -0.8513415357031417
vn -0.4603641156183906 0.4505181131456112 -0.7649171921055348
vn 0.6484302707391474 -0.4505181881048984 0.613654256219115
vn 0.8913288706837885 0.45051793463773643 0.05065999265012224
vn -0.8913288706837885 -0.45051793463773643 -0.05065999265012224
vn -0.5762530640248884 0.4505180500550358 0.6818840757610756
vn -0.41165513148205246 -0.4502931438229774 -0.792323253066899
vn 0.41165513148205246 0.4502931438229774 0.792323253066899
vn 0.7378431497936113 -0.45051809146216476 -0.5026141020384638
vn -0.6484302707391474 0.4505181881048984 -0.613654256219115
vn -0.480343939538872 -0.45029294332140585 0.7526659052615721
vn 0.480343939538872 0.45029294332140585 -0.7526659052615721
vn -0.6026970404955169 -0.4502930302554147 -0.6587810442638292
vn 0.6026970404955169 0.4502930302554147 0.6587810442638292
vn 0.7891072692004398 -0.4505181536922671 0.4175441424433295
vn -0.7378431497936113 0.45051809146216476 0.5026141020384638
vn -0.6587810442638291 -0.45029303025541495 0.6026970404955168
vn 0.6587810442638291 0.45029303025541495 -0.6026970404955168
vn -0.7526659052615722 -0.45029294332140557 -0.4803439395388721
vn 0.7526659052615722 0.45029294332140557 0.4803439395388721
vn -0.7923232530668989 -0.4502931438229777 0.41165513148205235
vn -0.8513415357031419 -0.4502927544234571 -0.269172853200972
vn 0.8513415357031419 0.4502927544234571 0.269172853200972
vn 0.7923232530668989 0.4502931438229777 -0.41165513148205235
vn -0.7891072692004398 0.4505181536922671 -0.4175441424433295
vn 0.8455102140219138 -0.4505181140385383 -0.2866110725491536
vn -0.871869809780261 -0.4502929017575821 0.19255995798833192
vn 0.871869809780261 0.4502929017575821 -0.19255995798833192
vn -0.8919997579055005 -0.4502928777876026 -0.039657989236565494
vn 0.8919997579055005 0.4502928777876026 0.039657989236565494
vn 0.8721146841754979 -0.45051783685107694 0.19091793086166114
vn -0.8455102140219138 0.4505181140385383 0.2866110725491536
vn -0.8721146841754979 0.45051783685107694 -0.19091793086166114
vn 0.8913850439140852 -0.4505180221947709 -0.04966100244654944
vn -0.8913850439140852 0.4505180221947709 0.04966100244654944
vn 0.999013166638407 0 0.0444150074085571
vn -0.999013166638407 0 -0.0444150074085571
vn 0.953476933883528 0 0.3014659790955961
vn -0.953476933883528 0 -0.3014659790955961
vn 0.9764680716395593 0 -0.21566201582226005
vn -0.9764680716395593 0 0.21566201582226005
vn 0.8429632460567926 0 0.5379711570311138
vn -0.8429632460567926 0 -0.5379711570311138
vn 0.8873782481784337 0 -0.4610421289424365
vn -0.8873782481784337 0 0.4610421289424365
vn 0.6750029918209887 0 0.7378149910598957
vn -0.6750029918209887 0 -0.7378149910598957
vn 0.7378149910598957 0 -0.6750029918209887
vn -0.7378149910598957 0 0.6750029918209887
vn 0.5379711570311138 0 -0.8429632460567926
vn -0.5379711570311138 0 0.8429632460567926
vn 0.4610421289424365 0 0.8873782481784337
vn -0.4610421289424365 0 -0.8873782481784337
vn 0.3014659790955961 0 -0.953476933883528
vn -0.3014659790955961 0 0.953476933883528
vn 0.5715900357778221 0.7428130464952698 0.34858802181934523
vn -0.7074420085154796 0.29163100351036225 0.6437990077494089
vn 0.0444150074085571 0 -0.999013166638407
vn -0.0444150074085571 0 0.999013166638407
vn -0.5714519207404811 0.7421428970659003 0.350237951422525
vn -0.21566201582226005 0 -0.9764680716395593
vn 0.21566201582226005 0 0.9764680716395593
vn -0.08636198476833809 0 -0.9962638242889649
vn 0.08636198476833809 0 0.9962638242889649
usemtl material_0_0
f 1//1 2//2 3//3
f 2//2 1//1 4//4
f 3//5 2//6 1//7
f 4//8 1//7 2//6
f 4//4 1//1 7//9
f 7//10 1//7 4//8
f 4//4 7//9 10//11
f 10//12 7//10 4//8
f 8//13 12//13 5//13
f 5//13 13//14 8//13
f 6//13 14//13 5//13
f 5//15 14//15 6//15
f 12//13 6//13 5//13
f 10//11 7//9 16//16
f 16//17 7//10 10//12
f 12//13 8//13 11//13
f 8//13 13//14 11//13
f 17//18 13//14 5//13
f 14//13 6//13 18//13
f 18//15 6//15 14//15
f 14//13 17//18 5//13
f 6//13 12//13 19//13
f 10//11 16//16 20//19
f 20//20 16//17 10//12
f 12//13 11//13 21//13
f 11//13 13//14 21//13
f 17//18 22//21 13//14
f 23//22 18//13 6//13
f 23//22 14//13 18//13
f 23//22 17//18 14//13
f 19//13 12//13 24//13
f 19//13 25//13 6//13
f 20//19 16//16 26//23
f 26//24 16//17 20//20
f 12//13 21//13 27//13
f 21//13 13//14 28//25
f 29//26 22//21 17//18
f 22//27 30//27 13//28
f 23//22 6//13 25//13
f 17//18 23//22 31//29
f 24//13 12//13 32//13
f 24//13 9//13 19//13
f 25//13 19//13 33//13
f 20//19 26//23 35//30
f 35//31 26//24 20//20
f 21//13 28//25 27//13
f 12//13 27//13 36//13
f 28//32 13//28 37//32
f 29//26 38//33 22//21
f 29//34 17//35 39//34
f 40//28 13//28 30//27
f 22//27 38//36 30//27
f 23//22 25//13 33//13
f 31//37 23//38 41//39
f 41//40 31//29 17//18
f 17//35 31//37 41//39
f 32//13 12//13 42//13
f 32//13 43//13 24//13
f 23//22 9//13 24//13
f 23//22 19//13 9//13
f 23//22 33//13 19//13
f 35//30 26//23 44//41
f 44//42 26//24 35//31
f 27//13 28//25 36//13
f 12//13 36//13 45//13
f 40//28 37//32 13//28
f 37//32 46//43 28//32
f 47//44 38//33 29//26
f 48//45 39//34 17//35
f 29//34 39//34 47//46
f 40//28 30//27 48//45
f 49//36 30//27 38//36
f 50//47 41//39 23//38
f 48//45 17//35 41//39
f 42//13 12//13 51//13
f 42//13 15//13 32//13
f 43//13 32//13 52//13
f 23//22 24//13 43//13
f 35//30 44//41 54//48
f 54//49 44//42 35//31
f 36//13 28//25 45//13
f 12//13 45//13 55//13
f 37//32 40//28 56//15
f 57//43 28//32 46//43
f 46//43 37//32 58//15
f 47//44 59//50 38//33
f 48//45 30//27 39//34
f 60//46 47//46 39//34
f 56//15 40//28 48//45
f 30//27 49//36 39//34
f 49//36 38//36 61//51
f 41//39 50//47 48//45
f 50//47 23//38 62//52
f 51//13 12//13 63//13
f 51//13 64//13 42//13
f 23//22 15//13 42//13
f 23//22 32//13 15//13
f 23//22 52//13 32//13
f 23//22 43//13 52//13
f 54//48 44//41 66//53
f 66//54 44//42 54//49
f 45//13 28//25 55//13
f 12//13 55//13 67//13
f 58//15 37//32 56//15
f 55//13 28//25 57//55
f 46//43 68//56 57//43
f 69//15 46//43 58//15
f 70//57 59//50 47//44
f 59//51 61//51 38//36
f 47//46 60//46 70//58
f 39//34 49//36 60//46
f 49//36 61//51 60//46
f 62//52 48//45 50//47
f 71//59 62//52 23//38
f 63//13 12//13 72//13
f 63//13 34//13 51//13
f 64//13 51//13 73//13
f 23//22 42//13 64//13
f 54//48 66//53 75//60
f 75//61 66//54 54//49
f 55//13 57//55 67//13
f 12//13 67//13 76//13
f 77//56 57//43 68//56
f 68//56 46//43 62//52
f 62//52 46//43 69//15
f 70//57 78//62 59//50
f 61//51 59//51 79//63
f 80//58 70//58 60//46
f 60//46 61//51 80//58
f 71//59 81//64 62//52
f 23//22 12//13 71//65
f 72//13 12//13 82//13
f 72//13 83//13 63//13
f 23//22 34//13 63//13
f 23//22 51//13 34//13
f 23//22 73//13 51//13
f 23//22 64//13 73//13
f 23//22 74//13 65//13
f 74//13 12//13 65//13
f 75//60 66//53 84//66
f 84//67 66//54 75//61
f 67//13 57//55 76//13
f 12//13 76//13 86//13
f 86//13 57//55 77//68
f 68//56 87//69 77//56
f 88//64 68//56 62//52
f 78//62 70//57 89//70
f 78//63 79//63 59//51
f 61//51 79//63 80//58
f 70//58 80//58 89//71
f 88//64 62//52 81//64
f 71//65 77//68 81//72
f 23//22 90//13 12//13
f 12//13 77//68 71//65
f 82//13 12//13 74//13
f 82//13 53//13 72//13
f 83//13 72//13 91//13
f 23//22 63//13 83//13
f 23//22 93//13 74//13
f 23//22 65//13 94//13
f 65//13 12//13 92//13
f 75//60 84//66 85//73
f 85//74 84//67 75//61
f 76//13 57//55 86//13
f 12//13 86//13 97//13
f 86//13 77//68 97//13
f 98//69 77//56 87//69
f 87//69 68//56 88//64
f 89//71 99//71 78//63
f 79//63 78//63 99//71
f 99//71 80//58 79//63
f 99//71 89//71 80//58
f 88//64 81//64 100//75
f 81//72 77//68 98//76
f 23//22 101//13 90//13
f 12//13 90//13 101//13
f 101//15 90//15 12//15
f 97//13 77//68 12//13
f 74//13 93//13 82//13
f 23//22 53//13 82//13
f 23//22 72//13 53//13
f 23//22 91//13 72//13
f 23//22 83//13 91//13
f 92//13 94//13 65//13
f 65//15 94//15 92//15
f 23//22 82//13 93//13
f 23//22 94//13 92//13
f 92//13 12//13 103//13
f 85//73 84//66 102//77
f 102//78 84//67 85//74
f 85//73 102//77 95//79
f 95//80 102//78 85//74
f 98//69 87//69 106//81
f 100//75 87//69 88//64
f 107//75 100//75 81//64
f 81//72 98//76 107//82
f 23//22 108//13 101//13
f 110//13 12//13 101//13
f 23//22 92//13 111//13
f 103//13 12//13 112//13
f 103//13 111//13 92//13
f 92//15 111//15 103//15
f 95//79 102//77 113//83
f 113//84 102//78 95//80
f 95//79 113//83 96//85
f 96//86 113//84 95//80
f 96//85 114//87 104//88
f 104//89 114//90 96//86
f 115//81 106//81 87//69
f 107//82 98//76 106//91
f 115//81 87//69 100//75
f 100//75 107//75 116//92
f 23//22 110//13 108//13
f 101//13 108//13 110//13
f 110//15 108//15 101//15
f 112//13 12//13 110//13
f 23//22 111//13 103//13
f 112//13 117//13 103//13
f 103//15 117//15 112//15
f 96//85 113//83 114//87
f 114//90 113//84 96//86
f 104//88 114//87 109//93
f 109//94 114//90 104//89
f 104//88 109//93 105//95
f 105//96 109//94 104//89
f 106//81 115//81 118//97
f 107//82 106//91 119//98
f 116//92 115//81 100//75
f 119//92 116//92 107//75
f 23//22 120//13 110//13
f 110//13 120//13 112//13
f 112//15 120//15 110//15
f 23//22 103//13 117//13
f 23//22 117//13 112//13
f 121//97 118//97 115//81
f 119//98 106//91 118//99
f 121//97 115//81 116//92
f 116//92 119//92 122//100
f 23//22 112//13 120//13
f 118//97 121//97 123//100
f 119//98 118//99 123//101
f 122//100 121//97 116//92
f 123//100 122//100 119//92
f 122//100 123//100 121//97
usemtl material_1_0
f 2//2 5//102 3//3
f 3//5 5//103 2//6
f 3//3 6//104 1//1
f 1//7 6//105 3//5
f 4//4 8//106 2//2
f 2//6 8//107 4//8
f 5//102 2//2 8//106
f 8//107 2//6 5//103
f 6//104 3//3 5//102
f 5//103 3//5 6//105
f 9//108 1//1 6//104
f 6//105 1//7 9//109
f 1//1 9//108 7//9
f 7//10 9//109 1//7
f 8//106 4//4 11//110
f 11//111 4//8 8//107
f 5//15 12//15 8//15
f 8//15 13//28 5//15
f 5//15 6//15 12//15
f 15//112 7//9 9//108
f 9//109 7//10 15//113
f 10//11 11//110 4//4
f 4//8 11//111 10//12
f 11//15 8//15 12//15
f 11//15 13//28 8//15
f 5//15 13//28 17//35
f 5//15 17//35 14//15
f 19//15 12//15 6//15
f 7//9 15//112 16//16
f 16//17 15//113 7//10
f 11//110 10//11 21//114
f 21//115 10//12 11//111
f 21//15 11//15 12//15
f 21//15 13//28 11//15
f 13//28 22//27 17//35
f 6//15 18//15 23//38
f 18//15 14//15 23//38
f 14//15 17//35 23//38
f 24//15 12//15 19//15
f 6//15 25//15 19//15
f 15//112 26//23 16//16
f 16//17 26//24 15//113
f 27//116 10//11 20//19
f 20//20 10//12 27//117
f 10//11 27//116 21//114
f 21//115 27//117 10//12
f 27//15 21//15 12//15
f 28//32 13//28 21//15
f 17//35 22//27 29//34
f 13//14 30//21 22//21
f 25//15 6//15 23//38
f 31//37 23//38 17//35
f 32//15 12//15 24//15
f 19//15 9//15 24//15
f 33//15 19//15 25//15
f 26//23 15//112 34//118
f 34//119 15//113 26//24
f 20//19 36//120 27//116
f 27//117 36//121 20//20
f 27//15 28//32 21//15
f 36//15 27//15 12//15
f 37//25 13//14 28//25
f 22//27 38//36 29//34
f 39//26 17//18 29//26
f 30//21 13//14 40//14
f 30//21 38//33 22//21
f 33//15 25//15 23//38
f 41//40 23//22 31//29
f 42//15 12//15 32//15
f 24//15 43//15 32//15
f 24//15 9//15 23//38
f 9//15 19//15 23//38
f 19//15 33//15 23//38
f 34//118 44//41 26//23
f 26//24 44//42 34//119
f 36//120 20//19 35//30
f 35//31 20//20 36//121
f 36//15 28//32 27//15
f 45//15 36//15 12//15
f 13//14 37//25 40//14
f 28//25 46//55 37//25
f 29//34 38//36 47//46
f 17//18 39//26 48//122
f 47//44 39//26 29//26
f 48//122 30//21 40//14
f 38//33 30//21 49//33
f 23//22 41//40 50//123
f 41//40 17//18 48//122
f 51//15 12//15 42//15
f 32//15 15//15 42//15
f 52//15 32//15 43//15
f 43//15 24//15 23//38
f 44//41 34//118 53//106
f 53//107 34//119 44//42
f 35//30 45//124 36//120
f 36//121 45//125 35//31
f 45//15 28//32 36//15
f 55//15 45//15 12//15
f 56//13 40//14 37//25
f 46//55 28//25 57//55
f 58//13 37//25 46//55
f 38//36 59//51 47//46
f 39//26 30//21 48//122
f 39//26 47//44 60//44
f 48//122 40//14 56//13
f 39//26 49//33 30//21
f 61//50 38//33 49//33
f 48//122 50//123 41//40
f 62//126 23//22 50//123
f 63//15 12//15 51//15
f 42//15 64//15 51//15
f 42//15 15//15 23//38
f 15//15 32//15 23//38
f 32//15 52//15 23//38
f 52//15 43//15 23//38
f 44//41 65//103 53//106
f 53//107 65//102 44//42
f 45//124 35//30 54//48
f 54//49 35//31 45//125
f 55//15 28//32 45//15
f 54//48 55//127 45//124
f 45//125 55//128 54//49
f 67//15 55//15 12//15
f 56//13 37//25 58//13
f 57//43 28//32 55//15
f 57//55 68//68 46//55
f 58//13 46//55 69//13
f 47//46 59//51 70//58
f 38//33 61//50 59//50
f 70//57 60//44 47//44
f 60//44 49//33 39//26
f 60//44 61//50 49//33
f 50//123 48//122 62//126
f 23//22 62//126 71//65
f 72//15 12//15 63//15
f 51//15 34//15 63//15
f 73//15 51//15 64//15
f 64//15 42//15 23//38
f 65//103 44//41 66//53
f 66//54 44//42 65//102
f 53//106 65//103 74//129
f 74//130 65//102 53//107
f 55//127 54//48 75//60
f 75//61 54//49 55//128
f 75//60 67//119 55//127
f 55//128 67//118 75//61
f 67//15 57//43 55//15
f 76//15 67//15 12//15
f 68//68 57//55 77//68
f 62//126 46//55 68//68
f 69//13 46//55 62//126
f 59//51 78//63 70//58
f 79//62 59//50 61//50
f 60//44 70//57 80//57
f 80//57 61//50 60//44
f 62//126 81//72 71//65
f 71//59 12//15 23//38
f 82//15 12//15 72//15
f 63//15 83//15 72//15
f 63//15 34//15 23//38
f 34//15 51//15 23//38
f 51//15 73//15 23//38
f 73//15 64//15 23//38
f 65//103 84//66 66//53
f 66//54 84//67 65//102
f 65//15 74//15 23//38
f 65//15 12//15 74//15
f 67//119 75//60 85//73
f 85//74 75//61 67//118
f 76//15 57//43 67//15
f 85//73 76//113 67//119
f 67//118 76//112 85//74
f 86//15 76//15 12//15
f 77//56 57//43 86//15
f 77//68 87//76 68//68
f 62//126 68//68 88//72
f 89//71 70//58 78//63
f 59//50 79//62 78//62
f 80//57 79//62 61//50
f 89//70 80//57 70//57
f 81//72 62//126 88//72
f 81//64 77//56 71//59
f 12//15 90//15 23//38
f 71//59 77//56 12//15
f 74//15 12//15 82//15
f 72//15 53//15 82//15
f 91//15 72//15 83//15
f 83//15 63//15 23//38
f 84//66 65//103 92//121
f 92//120 65//102 84//67
f 74//15 93//15 23//38
f 94//15 65//15 23//38
f 92//15 12//15 65//15
f 86//15 57//43 76//15
f 76//113 85//73 95//79
f 95//80 85//74 76//112
f 76//113 96//85 86//109
f 86//108 96//86 76//112
f 97//15 86//15 12//15
f 97//15 77//56 86//15
f 87//76 77//68 98//76
f 88//72 68//68 87//76
f 78//62 99//70 89//70
f 99//70 78//62 79//62
f 79//62 80//57 99//70
f 80//57 89//70 99//70
f 100//82 81//72 88//72
f 98//69 77//56 81//64
f 90//15 101//15 23//38
f 12//15 77//56 97//15
f 82//15 93//15 74//15
f 82//15 53//15 23//38
f 53//15 72//15 23//38
f 72//15 91//15 23//38
f 91//15 83//15 23//38
f 92//121 102//77 84//66
f 84//67 102//78 92//120
f 93//15 82//15 23//38
f 92//15 94//15 23//38
f 103//15 12//15 92//15
f 96//85 76//113 95//79
f 95//80 76//112 96//86
f 104//88 86//109 96//85
f 96//86 86//108 104//89
f 86//109 104//88 97//105
f 97//104 104//89 86//108
f 97//105 105//95 12//103
f 12//102 105//96 97//104
f 106//91 87//76 98//76
f 88//72 87//76 100//82
f 81//72 100//82 107//82
f 107//75 98//69 81//64
f 101//15 108//15 23//38
f 12//103 109//93 101//107
f 101//106 109//94 12//102
f 101//15 12//15 110//15
f 102//77 92//121 103//117
f 103//116 92//120 102//78
f 111//15 92//15 23//38
f 112//15 12//15 103//15
f 105//95 97//105 104//88
f 104//89 97//104 105//96
f 109//93 12//103 105//95
f 105//96 12//102 109//94
f 87//76 106//91 115//91
f 106//81 98//69 107//75
f 100//82 87//76 115//91
f 116//98 107//82 100//82
f 108//15 110//15 23//38
f 114//87 101//107 109//93
f 109//94 101//106 114//90
f 110//15 12//15 112//15
f 101//107 114//87 110//111
f 110//110 114//90 101//106
f 103//117 113//83 102//77
f 102//78 113//84 103//116
f 103//15 111//15 23//38
f 113//83 103//117 112//115
f 112//114 103//116 113//84
f 118//99 115//91 106//91
f 119//92 106//81 107//75
f 100//82 115//91 116//98
f 107//82 116//98 119//98
f 110//15 120//15 23//38
f 110//111 113//83 112//115
f 112//114 113//84 110//110
f 113//83 110//111 114//87
f 114//90 110//110 113//84
f 117//15 103//15 23//38
f 112//15 117//15 23//38
f 115//91 118//99 121//99
f 118//97 106//81 119//92
f 116//98 115//91 121//99
f 122//101 119//98 116//98
f 120//15 112//15 23//38
f 123//101 121//99 118//99
f 123//100 118//97 119//92
f 116//98 121//99 122//101
f 119//98 122//101 123//101
f 121//99 123//101 122//101
