# SSTK version 0.8.0
# 83
mtllib original-83.mtl
o Group67/mesh78/mesh78-geometry#mesh78-geometry
v 0.10385268 0.97502874 0.07584210
v 0.11484490 0.96057367 0.09926407
v 0.11485192 0.97510834 0.09940401
v 0.09848386 0.96047958 0.06821869
v 0.12047477 0.97498607 0.12463049
v 0.07382746 0.97516421 0.04397540
v 0.12092324 0.96045092 0.13404970
v 0.06945735 0.96042684 0.04101776
v 0.11961203 0.97499489 0.15340654
v 0.02979985 0.96787880 0.02496977
v 0.11462158 0.96049483 0.17331230
v 0.02984927 0.97140966 0.02490969
v 0.02990068 0.96422999 0.02491741
v 0.10285647 0.97503568 0.19718877
v 0.02989273 0.97498397 0.02495873
v 0.02974286 0.96058566 0.02502160
v 0.09303759 0.96046752 0.21028374
v 0.06866381 0.97516478 0.23131081
v 0.05946822 0.96047621 0.23645246
v 0.02600756 0.97499020 0.24749029
v 0.02120257 0.96059921 0.24817908
v -0.01384991 0.96771003 0.24684474
v -0.01394874 0.96411539 0.24680198
v -0.01382113 0.97145789 0.24677924
v -0.01394029 0.96045484 0.24678456
v -0.01386500 0.97513896 0.24677314
vn -0.8468023015407546 -0.008306002599986635 0.5318429020172121
vn -0.9456640768466006 0.03699099115164514 0.32303424019054955
vn -0.9463116609886447 0 0.3232556887000015
vn 0.9463116609886447 0 -0.3232556887000015
vn 0.9456640768466006 -0.03699099115164514 -0.32303424019054955
vn 0.8468023015407546 0.008306002599986635 -0.5318429020172121
vn -0.7734066341475725 0.010267995393193301 0.6338270635805386
vn 0.7734066341475725 -0.010267995393193301 -0.6338270635805386
vn -0.9928182520863419 0.006071001371336207 0.11947828784582547
vn 0.9928182520863419 -0.006071001371336207 -0.11947828784582547
vn -0.5270888610711963 -0.023299010330771443 0.8494907231113682
vn 0.5270888610711963 0.023299010330771443 -0.8494907231113682
vn -0.9988879056286635 0.04686599420827735 -0.005150783984212944
vn 0.9988879056286635 -0.04686599420827735 0.005150783984212944
vn -0.4605821848561318 -0.004161999295354456 0.8876073054876337
vn 0.4605821848561318 0.004161999295354456 -0.8876073054876337
vn -0.9826110892693074 -0.033301982748312 -0.18266478913577283
vn 0.9826110892693074 0.033301982748312 0.18266478913577283
vn -0.3859147262232539 -0.02382900141969579 0.9222266547738528
vn 0.3859147262232539 0.02382900141969579 -0.9222266547738528
vn -0.9385829283793293 0.029783013856177973 -0.3437659940141337
vn 0.9385829283793293 -0.029783013856177973 0.3437659940141337
vn -0.39644987934520004 0 0.91805636709691
vn 0.39644987934520004 0 -0.91805636709691
vn -0.3751481369300273 0 0.9269648727745456
vn 0.3751481369300273 0 -0.9269648727745456
vn -0.8451799113917965 -0.06528800346046038 -0.5304794001503754
vn 0.8451799113917965 0.06528800346046038 0.5304794001503754
vn -0.7367357209754162 0.025908006998452845 -0.6756842847160216
vn 0.7367357209754162 -0.025908006998452845 0.6756842847160216
vn -0.5657762609720334 -0.056847979012412564 -0.8225968209291292
vn 0.5657762609720334 0.056847979012412564 0.8225968209291292
vn -0.4256563922482449 0.014211003181715667 -0.9047732771953302
vn 0.4256563922482449 -0.014211003181715667 0.9047732771953302
vn -0.1183878281846855 -0.023480993479200313 -0.9926897627571987
vn 0.1183878281846855 0.023480993479200313 0.9926897627571987
vn -0.047286085629818134 -0.0008070001477295006 -0.9988810614165087
vn 0.047286085629818134 0.0008070001477295006 0.9988810614165087
vn 0.02746520947569997 -0.018061000519064573 -0.9994595852402968
vn -0.02746520947569997 0.018061000519064573 0.9994595852402968
vn 0.038244173701240766 0 -0.9992684239872234
vn -0.038244173701240766 0 0.9992684239872234
vn 0.017133761507478907 0 -0.9998532063341122
vn -0.017133761507478907 0 0.9998532063341122
usemtl material_0_0
f 1//1 2//2 3//3
f 3//4 2//5 1//6
f 4//7 2//2 1//1
f 1//6 2//5 4//8
f 2//2 5//9 3//3
f 3//4 5//10 2//5
f 6//11 4//7 1//1
f 1//6 4//8 6//12
f 2//2 7//13 5//9
f 5//10 7//14 2//5
f 6//11 8//15 4//7
f 4//8 8//16 6//12
f 5//9 7//13 9//17
f 9//18 7//14 5//10
f 6//11 10//19 8//15
f 8//16 10//20 6//12
f 7//13 11//21 9//17
f 9//18 11//22 7//14
f 6//11 12//23 10//19
f 10//20 12//24 6//12
f 10//19 13//25 8//15
f 8//16 13//26 10//20
f 9//17 11//21 14//27
f 14//28 11//22 9//18
f 15//23 12//23 6//11
f 6//12 12//24 15//24
f 13//25 16//25 8//15
f 8//16 16//26 13//26
f 11//21 17//29 14//27
f 14//28 17//30 11//22
f 14//27 17//29 18//31
f 18//32 17//30 14//28
f 18//31 17//29 19//33
f 19//34 17//30 18//32
f 18//31 19//33 20//35
f 20//36 19//34 18//32
f 20//35 19//33 21//37
f 21//38 19//34 20//36
f 20//35 21//37 22//39
f 22//40 21//38 20//36
f 22//39 21//37 23//41
f 23//42 21//38 22//40
f 20//35 22//39 24//43
f 24//44 22//40 20//36
f 23//41 21//37 25//41
f 25//42 21//38 23//42
f 20//35 24//43 26//43
f 26//44 24//44 20//36
