# SSTK version 0.8.0
# 68
mtllib original-68.mtl
o Group55/mesh64/mesh64-geometry#mesh64-geometry
v -0.06019202 0.93278174 0.07645302
v -0.07995230 0.93275977 0.11501657
v -0.07460004 0.70101621 0.09892716
v -0.08218343 0.70105028 0.12843510
v -0.06006157 0.70104066 0.07647196
v -0.08086052 0.93285267 0.15255820
v -0.04487639 0.93279882 0.06241580
v -0.07902130 0.70105428 0.16085342
v -0.03852090 0.70114469 0.05837588
v -0.06587306 0.93286432 0.18812416
v -0.01291569 0.93285290 0.04788665
v -0.06430990 0.70103569 0.19025854
v -0.00868334 0.70109938 0.04700513
v -0.04169627 0.88767251 0.21140634
v 0.02538167 0.81697911 0.04705960
v -0.04158014 0.93275121 0.21141758
v -0.04169809 0.70119937 0.21154344
v 0.02550175 0.75907096 0.04714531
v 0.02544836 0.87490296 0.04715604
v -0.03899993 0.90209135 0.21309470
v -0.03899656 0.87316628 0.21309991
v 0.02541256 0.70108544 0.04712878
v 0.02550904 0.93278217 0.04708113
v -0.03193988 0.91400434 0.21697732
v -0.03181476 0.86131216 0.21709678
v -0.02148094 0.92207718 0.22145188
v -0.02147079 0.85312537 0.22140345
v -0.00950285 0.93283171 0.22463144
v -0.00941635 0.70102934 0.22467680
v -0.00945237 0.93085698 0.22464821
v -0.00954319 0.73845211 0.22463414
v -0.00954932 0.92889478 0.22451949
v -0.00957396 0.77565240 0.22453516
v -0.00955187 0.92697761 0.22457044
v -0.00942744 0.81295336 0.22452018
v -0.00948107 0.92486294 0.22464368
v -0.00947387 0.85036718 0.22461387
vn 0.810622549341811 -0.0036509986205486666 0.5855576425149416
vn 0.9688024689375327 -0.004468001463672726 0.24779389246602002
vn 0.9079950769953836 -0.0018079992555662158 0.41897693407971637
vn -0.9079950769953836 0.0018079992555662158 -0.41897693407971637
vn -0.9688024689375327 0.004468001463672726 -0.24779389246602002
vn -0.810622549341811 0.0036509986205486666 -0.5855576425149416
vn 0.9982506857676942 0.000856999923796455 0.05911712032448066
vn -0.9982506857676942 -0.000856999923796455 -0.05911712032448066
vn 0.7254876169146667 0.001240999617947464 0.6882341008867738
vn -0.7254876169146667 -0.001240999617947464 -0.6882341008867738
vn 0.9875948281522455 -0.003063001031341787 -0.15699386431201276
vn -0.9875948281522455 0.003063001031341787 0.15699386431201276
vn 0.5817636897039672 -0.00042100002538383505 0.813357751608113
vn -0.5817636897039672 0.00042100002538383505 -0.813357751608113
vn 0.9491282739381899 0.000209000065432463 -0.3148896249959422
vn -0.9491282739381899 -0.000209000065432463 0.3148896249959422
vn 0.47538760606037117 0.0005109999871326454 0.8797763141180845
vn -0.47538760606037117 -0.0005109999871326454 -0.8797763141180845
vn 0.8152483845648877 -0.0015800001322383722 -0.579109294575664
vn -0.8152483845648877 0.0015800001322383722 0.579109294575664
vn 0.1659366417560073 -0.0011739994273221937 0.9861357171546334
vn -0.1659366417560073 0.0011739994273221937 -0.9861357171546334
vn 0.7679040281922558 -0.00002499998304942537 -0.6405649091708879
vn -0.7679040281922558 0.00002499998304942537 0.6405649091708879
vn 0.08972367178562389 -0.00020999997450083722 0.9959666754572246
vn -0.08972367178562389 0.00020999997450083722 -0.9959666754572246
vn 0.6311227174276611 -0.0003890000770385097 -0.7756829018520807
vn -0.6311227174276611 0.0003890000770385097 0.7756829018520807
vn 0.0074570411892126735 -0.001199000383549049 0.9999714770606124
vn -0.0074570411892126735 0.001199000383549049 -0.9999714770606124
vn 0.5068854788686689 -0.04017401070691801 -0.8610767446492797
vn -0.5068854788686689 0.04017401070691801 0.8610767446492797
vn 0.4981209776011269 0.003941000524755694 -0.8670985873524195
vn -0.4981209776011269 -0.003941000524755694 0.8670985873524195
vn -0.004305417328203513 0 0.9999907316478638
vn 0.004305417328203513 0 -0.9999907316478638
vn 0.01878318841252736 0 0.9998235803545841
vn -0.01878318841252736 0 -0.9998235803545841
vn 0.511293162559219 -0.002718999608653436 -0.8594020647876758
vn -0.511293162559219 0.002718999608653436 0.8594020647876758
vn 0.508613944653225 0.0005419999032792025 -0.8609945188794127
vn -0.508613944653225 -0.0005419999032792025 0.8609945188794127
vn 0.4530406166363118 -0.02879800861619307 -0.8910246205226497
vn -0.4530406166363118 0.02879800861619307 0.8910246205226497
vn 0.4364389719980742 0.004704997987027807 -0.8997215606592999
vn -0.4364389719980742 -0.004704997987027807 0.8997215606592999
vn 0.30641245962674607 -0.03235301190096098 -0.9513488777553816
vn -0.30641245962674607 0.03235301190096098 0.9513488777553816
vn 0.30186277790996313 0.0030809999197780424 -0.9533464064819117
vn -0.30186277790996313 -0.0030809999197780424 0.9533464064819117
vn 0.3185114940796977 -0.07095200907643033 -0.945259879899246
vn -0.3185114940796977 0.07095200907643033 0.945259879899246
vn 0.3196633556835799 0.005078001982144722 -0.9475175739420258
vn -0.3196633556835799 -0.005078001982144722 0.9475175739420258
vn 0.259955126125294 0 -0.9656206979975017
vn -0.259955126125294 0 0.9656206979975017
vn 0.26006667340969025 0 -0.9655906613993415
vn -0.26006667340969025 0 0.9655906613993415
usemtl material_0_0
f 1//1 2//2 3//3
f 3//4 2//5 1//6
f 3//3 2//2 4//7
f 4//8 2//5 3//4
f 1//1 3//3 5//9
f 5//10 3//4 1//6
f 2//2 6//11 4//7
f 4//8 6//12 2//5
f 1//1 5//9 7//13
f 7//14 5//10 1//6
f 4//7 6//11 8//15
f 8//16 6//12 4//8
f 7//13 5//9 9//17
f 9//18 5//10 7//14
f 6//11 10//19 8//15
f 8//16 10//20 6//12
f 7//13 9//17 11//21
f 11//22 9//18 7//14
f 8//15 10//19 12//23
f 12//24 10//20 8//16
f 11//21 9//17 13//25
f 13//26 9//18 11//22
f 10//19 14//27 12//23
f 12//24 14//28 10//20
f 11//21 13//25 15//29
f 15//30 13//26 11//22
f 16//31 14//27 10//19
f 10//20 14//28 16//32
f 14//27 17//33 12//23
f 12//24 17//34 14//28
f 15//29 13//25 18//35
f 18//36 13//26 15//30
f 11//21 15//29 19//37
f 19//38 15//30 11//22
f 16//31 20//39 14//27
f 14//28 20//40 16//32
f 14//27 21//41 17//33
f 17//34 21//42 14//28
f 18//35 13//25 22//35
f 22//36 13//26 18//36
f 11//21 19//37 23//37
f 23//38 19//38 11//22
f 16//31 24//43 20//39
f 20//40 24//44 16//32
f 21//41 25//45 17//33
f 17//34 25//46 21//42
f 16//31 26//47 24//43
f 24//44 26//48 16//32
f 25//45 27//49 17//33
f 17//34 27//50 25//46
f 28//51 26//47 16//31
f 16//32 26//48 28//52
f 27//49 29//53 17//33
f 17//34 29//54 27//50
f 28//51 30//55 26//47
f 26//48 30//56 28//52
f 27//49 31//57 29//53
f 29//54 31//58 27//50
f 30//55 32//55 26//47
f 26//48 32//56 30//56
f 27//49 33//57 31//57
f 31//58 33//58 27//50
f 32//55 34//55 26//47
f 26//48 34//56 32//56
f 27//49 35//57 33//57
f 33//58 35//58 27//50
f 34//55 36//55 26//47
f 26//48 36//56 34//56
f 27//49 37//57 35//57
f 35//58 37//58 27//50
