# SSTK version 0.8.0
# 55
mtllib original-55.mtl
o mesh51/mesh51-geometry#mesh51-geometry
v 0.38075408 0.19173071 0.14752450
v 0.37584950 0.19167507 0.07360561
v 0.35827822 0.19161132 0.14692565
v 0.36200249 0.19161480 0.02330886
v 0.37118266 0.19158717 0.22101427
v 0.35341975 0.19160684 0.07727772
v 0.35443956 0.19164099 0.27034977
v 0.33560487 0.19171950 0.01130448
v 0.34917109 0.19168181 0.21600673
v 0.35655565 0.19167845 0.00325959
v 0.32712137 0.19165856 0.28060752
v 0.30641722 0.19167878 -0.04760497
v 0.34778056 0.19166629 0.28995327
v 0.32580084 0.19161947 -0.05955056
v 0.31291283 0.19160914 0.35076082
v 0.26938734 0.19162272 -0.09769027
v 0.29446572 0.19174130 0.33769376
v 0.28618947 0.19170813 -0.11260255
v 0.27003394 0.19158978 0.40126360
v 0.22689408 0.19175218 -0.13771386
v 0.25426013 0.19175532 0.38530205
v 0.24108209 0.19163283 -0.15546196
v 0.22225455 0.19174691 0.44120093
v 0.18273883 0.19174572 -0.16797140
v 0.20937429 0.19175097 0.42260471
v 0.19383391 0.19159434 -0.18746992
v 0.17337319 0.19170789 0.47030815
v 0.13826442 0.19163908 -0.18937629
v 0.16322214 0.19159272 0.44994830
v 0.14658487 0.19164305 -0.21033046
v 0.12469777 0.19164375 0.49017587
v 0.09634830 0.19174853 -0.20315185
v 0.11762174 0.19167192 0.46869614
v 0.10208023 0.19160504 -0.22507279
v 0.07926701 0.19175811 0.50209165
v 0.05612848 0.19176780 -0.21122102
v 0.07496452 0.19163432 0.47976271
v 0.05910115 0.19176805 -0.23371149
v 0.03597974 0.19159177 0.50792446
v 0.01886030 0.19158429 -0.21437804
v 0.03434918 0.19165024 0.48535798
v 0.01966678 0.19159928 -0.23699971
v -0.00375953 0.19173820 0.50877356
v -0.01844259 0.19174151 -0.21359351
v -0.00292092 0.19159781 0.48618928
v -0.02011951 0.19169191 -0.23618847
v -0.04321140 0.19164114 0.50537781
v -0.05890474 0.19158933 -0.20809832
v -0.04011477 0.19161941 0.48298497
v -0.06326057 0.19177978 -0.23033299
v -0.08598218 0.19165582 0.49678090
v -0.10182817 0.19167358 -0.19689704
v -0.08029519 0.19169075 0.47495661
v -0.10889609 0.19164408 -0.21841484
v -0.13075495 0.19176978 0.48207635
v -0.14741007 0.19164206 -0.17826353
v -0.12229258 0.19170129 0.46122404
v -0.15734908 0.19174679 -0.19843521
v -0.17804893 0.19177734 0.45934867
v -0.19336847 0.19174442 -0.15085315
v -0.16674693 0.19173339 0.43966362
v -0.20631549 0.19164065 -0.16934803
v -0.22502085 0.19168509 0.42723224
v -0.23818511 0.19165374 -0.11342005
v -0.21095157 0.19176154 0.40948736
v -0.25406358 0.19158344 -0.12961578
v -0.27026227 0.19159801 0.38445806
v -0.27851258 0.19161548 -0.06606367
v -0.25326726 0.19165249 0.36929894
v -0.29697041 0.19178016 -0.07901066
v -0.30985848 0.19159154 0.33133380
v -0.31123681 0.19173212 -0.00884823
v -0.29043975 0.19160457 0.31938765
v -0.33182295 0.19161489 -0.01825861
v -0.34067382 0.19173616 0.26848896
v -0.33831657 0.19173618 0.00132111
v -0.31958556 0.19167377 0.26035331
v -0.33312772 0.19158787 0.05588445
v -0.34618869 0.19160714 0.24841314
v -0.34237734 0.19171853 0.12496395
v -0.33755051 0.19167285 0.19445535
v -0.35522071 0.19174192 0.05057739
v -0.36486309 0.19170564 0.12411643
v -0.35985982 0.19158420 0.19812829
vn 0 1 0
vn 0 -1 0
usemtl material_0_0
f 1//1 2//1 3//1
f 3//2 2//2 1//2
f 2//1 4//1 3//1
f 3//2 4//2 2//2
f 1//1 3//1 5//1
f 5//2 3//2 1//2
f 4//1 6//1 3//1
f 3//2 6//2 4//2
f 5//1 3//1 7//1
f 7//2 3//2 5//2
f 4//1 8//1 6//1
f 6//2 8//2 4//2
f 3//1 9//1 7//1
f 7//2 9//2 3//2
f 4//1 10//1 8//1
f 8//2 10//2 4//2
f 7//1 9//1 11//1
f 11//2 9//2 7//2
f 10//1 12//1 8//1
f 8//2 12//2 10//2
f 7//1 11//1 13//1
f 13//2 11//2 7//2
f 10//1 14//1 12//1
f 12//2 14//2 10//2
f 13//1 11//1 15//1
f 15//2 11//2 13//2
f 14//1 16//1 12//1
f 12//2 16//2 14//2
f 11//1 17//1 15//1
f 15//2 17//2 11//2
f 14//1 18//1 16//1
f 16//2 18//2 14//2
f 15//1 17//1 19//1
f 19//2 17//2 15//2
f 18//1 20//1 16//1
f 16//2 20//2 18//2
f 17//1 21//1 19//1
f 19//2 21//2 17//2
f 18//1 22//1 20//1
f 20//2 22//2 18//2
f 19//1 21//1 23//1
f 23//2 21//2 19//2
f 22//1 24//1 20//1
f 20//2 24//2 22//2
f 21//1 25//1 23//1
f 23//2 25//2 21//2
f 22//1 26//1 24//1
f 24//2 26//2 22//2
f 23//1 25//1 27//1
f 27//2 25//2 23//2
f 26//1 28//1 24//1
f 24//2 28//2 26//2
f 25//1 29//1 27//1
f 27//2 29//2 25//2
f 26//1 30//1 28//1
f 28//2 30//2 26//2
f 27//1 29//1 31//1
f 31//2 29//2 27//2
f 30//1 32//1 28//1
f 28//2 32//2 30//2
f 29//1 33//1 31//1
f 31//2 33//2 29//2
f 30//1 34//1 32//1
f 32//2 34//2 30//2
f 31//1 33//1 35//1
f 35//2 33//2 31//2
f 34//1 36//1 32//1
f 32//2 36//2 34//2
f 33//1 37//1 35//1
f 35//2 37//2 33//2
f 34//1 38//1 36//1
f 36//2 38//2 34//2
f 35//1 37//1 39//1
f 39//2 37//2 35//2
f 38//1 40//1 36//1
f 36//2 40//2 38//2
f 37//1 41//1 39//1
f 39//2 41//2 37//2
f 38//1 42//1 40//1
f 40//2 42//2 38//2
f 39//1 41//1 43//1
f 43//2 41//2 39//2
f 42//1 44//1 40//1
f 40//2 44//2 42//2
f 41//1 45//1 43//1
f 43//2 45//2 41//2
f 42//1 46//1 44//1
f 44//2 46//2 42//2
f 45//1 47//1 43//1
f 43//2 47//2 45//2
f 44//1 46//1 48//1
f 48//2 46//2 44//2
f 45//1 49//1 47//1
f 47//2 49//2 45//2
f 46//1 50//1 48//1
f 48//2 50//2 46//2
f 49//1 51//1 47//1
f 47//2 51//2 49//2
f 48//1 50//1 52//1
f 52//2 50//2 48//2
f 49//1 53//1 51//1
f 51//2 53//2 49//2
f 50//1 54//1 52//1
f 52//2 54//2 50//2
f 53//1 55//1 51//1
f 51//2 55//2 53//2
f 52//1 54//1 56//1
f 56//2 54//2 52//2
f 53//1 57//1 55//1
f 55//2 57//2 53//2
f 54//1 58//1 56//1
f 56//2 58//2 54//2
f 57//1 59//1 55//1
f 55//2 59//2 57//2
f 56//1 58//1 60//1
f 60//2 58//2 56//2
f 57//1 61//1 59//1
f 59//2 61//2 57//2
f 58//1 62//1 60//1
f 60//2 62//2 58//2
f 61//1 63//1 59//1
f 59//2 63//2 61//2
f 60//1 62//1 64//1
f 64//2 62//2 60//2
f 61//1 65//1 63//1
f 63//2 65//2 61//2
f 62//1 66//1 64//1
f 64//2 66//2 62//2
f 65//1 67//1 63//1
f 63//2 67//2 65//2
f 64//1 66//1 68//1
f 68//2 66//2 64//2
f 65//1 69//1 67//1
f 67//2 69//2 65//2
f 66//1 70//1 68//1
f 68//2 70//2 66//2
f 69//1 71//1 67//1
f 67//2 71//2 69//2
f 68//1 70//1 72//1
f 72//2 70//2 68//2
f 69//1 73//1 71//1
f 71//2 73//2 69//2
f 70//1 74//1 72//1
f 72//2 74//2 70//2
f 73//1 75//1 71//1
f 71//2 75//2 73//2
f 72//1 74//1 76//1
f 76//2 74//2 72//2
f 73//1 77//1 75//1
f 75//2 77//2 73//2
f 72//1 76//1 78//1
f 78//2 76//2 72//2
f 77//1 79//1 75//1
f 75//2 79//2 77//2
f 78//1 76//1 80//1
f 80//2 76//2 78//2
f 77//1 81//1 79//1
f 79//2 81//2 77//2
f 76//1 82//1 80//1
f 80//2 82//2 76//2
f 81//1 80//1 79//1
f 79//2 80//2 81//2
f 80//1 82//1 83//1
f 83//2 82//2 80//2
f 80//1 84//1 79//1
f 79//2 84//2 80//2
f 80//1 83//1 84//1
f 84//2 83//2 80//2
