# SSTK version 0.8.0
# 24
mtllib original-24.mtl
o Group18/mesh22/mesh22-geometry#mesh22-geometry
v -0.23853952 0.30574302 -0.14397785
v -0.16843411 0.21427049 -0.19291233
v -0.16830983 0.30574103 -0.19287271
v -0.26082726 0.21438396 -0.12282863
v -0.08881755 0.30580337 -0.22429927
v -0.32659401 0.30576497 -0.02889270
v -0.05879871 0.21435569 -0.23107772
v -0.33396837 0.21427614 -0.01341641
v 0.00522532 0.30590582 -0.23714593
v -0.36490998 0.26007939 0.12428428
v 0.07275017 0.21438198 -0.23154764
v -0.36495725 0.28289688 0.12429409
v -0.36482101 0.23721261 0.12418986
v 0.15688980 0.30584476 -0.20610349
v -0.36481580 0.30585137 0.12418497
v -0.36486734 0.21430088 0.12415782
v 0.20459545 0.21426838 -0.18119650
v 0.28611978 0.30577375 -0.11271756
v 0.30813748 0.21425706 -0.08553859
v 0.36175207 0.30573149 0.01740692
v 0.36634919 0.21425935 0.03238404
v 0.38085072 0.26003411 0.14749614
v 0.38086973 0.23720216 0.14749017
v 0.38085501 0.28301362 0.14762850
v 0.38071998 0.21423469 0.14747198
v 0.38072492 0.30588541 0.14745650
vn 0.6624749399566574 -0.004384999635634714 0.7490712420775602
vn 0.4725845379234485 0.019436989468167687 0.88107097214475
vn 0.4726735437052027 0 0.8812376076184936
vn -0.4726735437052027 0 -0.8812376076184936
vn -0.4725845379234485 -0.019436989468167687 -0.88107097214475
vn -0.6624749399566574 0.004384999635634714 -0.7490712420775602
vn 0.7510624238272504 0.005350998470241018 0.6602095139651559
vn -0.7510624238272504 -0.005350998470241018 -0.6602095139651559
vn 0.27914114919093314 0.003197000643702185 0.9602447594312867
vn -0.27914114919093314 -0.003197000643702185 -0.9602447594312867
vn 0.9239429093690612 -0.012255993852168114 0.3823340042964139
vn -0.9239429093690612 0.012255993852168114 -0.3823340042964139
vn 0.15712718673186762 0.0246690025318543 0.9872702201038032
vn -0.15712718673186762 -0.0246690025318543 -0.9872702201038032
vn 0.9506271277322271 -0.0021920008769527304 0.3103276641740652
vn -0.9506271277322271 0.0021920008769527304 -0.3103276641740652
vn -0.02113341234184183 -0.017569003639085225 0.9996222831619548
vn 0.02113341234184183 0.017569003639085225 -0.9996222831619548
vn 0.9728638732791733 -0.012519993673992987 0.23103924737292517
vn -0.9728638732791733 0.012519993673992987 -0.23103924737292517
vn -0.18687956077530443 0.0154919932098613 0.9822606720778425
vn 0.18687956077530443 -0.0154919932098613 -0.9822606720778425
vn 0.9702604093420759 0 0.24206350006423336
vn -0.9702604093420759 0 -0.24206350006423336
vn 0.9755904185225241 0 0.219598122230237
vn -0.9755904185225241 0 -0.219598122230237
vn -0.3867316044232696 -0.03442199681217861 0.9215496689140885
vn 0.3867316044232696 0.03442199681217861 -0.9215496689140885
vn -0.5471045377368288 0.013469002540624888 0.8369559192444556
vn 0.5471045377368288 -0.013469002540624888 -0.8369559192444556
vn -0.7204371258657882 -0.029964987485709603 0.6928726053173294
vn 0.7204371258657882 0.029964987485709603 -0.6928726053173294
vn -0.8236078079444118 0.0074209984288192065 0.5671111949832415
vn 0.8236078079444118 -0.0074209984288192065 -0.5671111949832415
vn -0.9604048348681786 -0.012363001989670672 0.27833380919972733
vn 0.9604048348681786 0.012363001989670672 -0.27833380919972733
vn -0.9779273018778488 -0.00042399997919910634 0.208944998662156
vn 0.9779273018778488 0.00042399997919910634 -0.208944998662156
vn -0.9907649139265995 -0.009483996245808186 0.13525878584116896
vn 0.9907649139265995 0.009483996245808186 -0.13525878584116896
vn -0.9922101382252132 0 0.12457544542606881
vn 0.9922101382252132 0 -0.12457544542606881
vn -0.9893579876996808 0 0.14550179440418712
vn 0.9893579876996808 0 -0.14550179440418712
usemtl material_0_0
f 1//1 2//2 3//3
f 3//4 2//5 1//6
f 1//1 4//7 2//2
f 2//5 4//8 1//6
f 3//3 2//2 5//9
f 5//10 2//5 3//4
f 1//1 6//11 4//7
f 4//8 6//12 1//6
f 5//9 2//2 7//13
f 7//14 2//5 5//10
f 4//7 6//11 8//15
f 8//16 6//12 4//8
f 5//9 7//13 9//17
f 9//18 7//14 5//10
f 6//11 10//19 8//15
f 8//16 10//20 6//12
f 9//17 7//13 11//21
f 11//22 7//14 9//18
f 6//11 12//23 10//19
f 10//20 12//24 6//12
f 8//15 10//19 13//25
f 13//26 10//20 8//16
f 9//17 11//21 14//27
f 14//28 11//22 9//18
f 6//11 15//23 12//23
f 12//24 15//24 6//12
f 8//15 13//25 16//25
f 16//26 13//26 8//16
f 14//27 11//21 17//29
f 17//30 11//22 14//28
f 14//27 17//29 18//31
f 18//32 17//30 14//28
f 18//31 17//29 19//33
f 19//34 17//30 18//32
f 18//31 19//33 20//35
f 20//36 19//34 18//32
f 19//33 21//37 20//35
f 20//36 21//38 19//34
f 20//35 21//37 22//39
f 22//40 21//38 20//36
f 21//37 23//41 22//39
f 22//40 23//42 21//38
f 20//35 22//39 24//43
f 24//44 22//40 20//36
f 21//37 25//41 23//41
f 23//42 25//42 21//38
f 20//35 24//43 26//43
f 26//44 24//44 20//36
