# SSTK version 0.8.0
# 109
mtllib original-109.mtl
o mesh102/mesh102-geometry#mesh102-geometry
v -0.04098660 0.90385424 0.38409180
v -0.04134240 0.90389160 0.38350774
v -0.04237318 0.90280691 0.38991209
v -0.03967780 0.90494446 0.37816490
v -0.04002226 0.90522334 0.37737036
v -0.03862639 0.90636250 0.37108175
v -0.03866392 0.90620286 0.37238460
vn -0.04630384999087069 0.9818782280957394 0.18376914503690306
vn -0.048355585215230784 0.9822208337267249 0.1813945180309214
vn -0.05084528097524501 0.9809026405948862 0.1877358971441743
vn 0.05084528097524501 -0.9809026405948862 -0.1877358971441743
vn 0.048355585215230784 -0.9822208337267249 -0.1813945180309214
vn 0.04630384999087069 -0.9818782280957394 -0.18376914503690306
vn -0.04897726947454101 0.9837546290212805 0.17270801068283045
vn 0.04897726947454101 -0.9837546290212805 -0.17270801068283045
vn -0.043799930350083886 0.9839122829333647 0.17319984293925306
vn 0.043799930350083886 -0.9839122829333647 -0.17319984293925306
vn -0.05084292646944116 0.9846132361088056 0.16718783480674868
vn 0.05084292646944116 -0.9846132361088056 -0.16718783480674868
vn -0.06653363357098663 0.9841156817955949 0.16458918691041968
vn 0.06653363357098663 -0.9841156817955949 -0.16458918691041968
usemtl material_0_0
f 1//1 2//2 3//3
f 3//4 2//5 1//6
f 4//7 2//2 1//1
f 1//6 2//5 4//8
f 4//7 5//9 2//2
f 2//5 5//10 4//8
f 6//11 5//9 4//7
f 4//8 5//10 6//12
f 7//13 6//11 4//7
f 4//8 6//12 7//14
