# SSTK version 0.8.0
# 71
mtllib original-71.mtl
o Group58/mesh67/mesh67-geometry#mesh67-geometry
v 0.00712106 0.60510415 0.08277491
v -0.00762494 0.54858770 0.09040353
v 0.01550753 0.54853670 0.08834859
v -0.00917390 0.60506084 0.08566562
v 0.02566594 0.60499899 0.08581948
v -0.01754176 0.54841613 0.09513612
v 0.03412396 0.54840854 0.09554768
v -0.02389803 0.60501665 0.09337641
v 0.04282565 0.60504077 0.09586169
v -0.03106700 0.54857915 0.10793165
v 0.04855380 0.54849123 0.11003287
v -0.03663255 0.60497759 0.10695728
v 0.05534497 0.60502172 0.11163973
v -0.04157214 0.57676322 0.12603569
v 0.05535788 0.54840038 0.12825087
v -0.04293041 0.59088723 0.12576665
v -0.04038374 0.56259977 0.12626203
v 0.06081759 0.60497362 0.12953608
v -0.04413633 0.60494646 0.12555290
v -0.03921652 0.54851698 0.12668534
v 0.05759207 0.57685849 0.14570430
v 0.05637487 0.56259638 0.14540579
v 0.05875882 0.59095329 0.14597385
v 0.05509814 0.54857972 0.14510726
v 0.06001221 0.60493791 0.14618362
vn 0.03301763195525039 0.09276302739204521 0.9951406215852764
vn 0.23111835120651147 0.09762197656052735 0.9680156287106109
vn -0.1451987485381421 0.0998459622244859 0.9843516176907638
vn 0.1451987485381421 -0.0998459622244859 -0.9843516176907638
vn -0.23111835120651147 -0.09762197656052735 -0.9680156287106109
vn -0.03301763195525039 -0.09276302739204521 -0.9951406215852764
vn 0.35821110154310715 0.08689699946549696 0.9295879292542298
vn -0.35821110154310715 -0.08689699946549696 -0.9295879292542298
vn -0.3427214237800405 0.08642603224806543 0.9354531343857043
vn 0.3427214237800405 -0.08642603224806543 -0.9354531343857043
vn 0.5298065709403778 0.09063298753026167 0.8432619159903632
vn -0.5298065709403778 -0.09063298753026167 -0.8432619159903632
vn -0.5290415427520251 0.0974540040226581 0.8429814725974166
vn 0.5290415427520251 -0.0974540040226581 -0.8429814725974166
vn 0.6313383371278147 0.08844100141956687 0.7704479822418837
vn -0.6313383371278147 -0.08844100141956687 -0.7704479822418837
vn -0.6732270668829584 0.08682602411345731 0.7343204736031931
vn 0.6732270668829584 -0.08682602411345731 -0.7343204736031931
vn 0.8460475621912705 0.0922430035708192 0.52506642513347
vn -0.8460475621912705 -0.0922430035708192 -0.52506642513347
vn -0.8198852926226594 0.09639397315736704 0.5643547721779208
vn 0.8198852926226594 -0.09639397315736704 -0.5643547721779208
vn 0.8840596977051423 0.08968298236864149 0.45868879817034797
vn -0.8840596977051423 -0.08968298236864149 -0.45868879817034797
vn -0.9012430500421649 0.08805503537321192 0.42427264287969135
vn 0.9012430500421649 -0.08805503537321192 -0.42427264287969135
vn 0.9187727775952897 0.09055195587055656 0.384261533903477
vn -0.9187727775952897 -0.09055195587055656 -0.384261533903477
vn -0.9886958938574235 0.09238202985972456 0.11809314132695028
vn 0.9886958938574235 -0.09238202985972456 -0.11809314132695028
vn 0.9233656353419365 0.08803501699366524 0.3736920379838284
vn -0.9233656353419365 -0.08803501699366524 -0.3736920379838284
vn 0.9145254377510259 0.08762397782951553 0.39492437531206775
vn -0.9145254377510259 -0.08762397782951553 -0.39492437531206775
vn -0.9948738805072871 0.08950696704671832 0.04705809956288338
vn 0.9948738805072871 -0.08950696704671832 -0.04705809956288338
vn -0.995519241028431 0.09046200924422274 -0.02753299158600681
vn 0.995519241028431 -0.09046200924422274 0.02753299158600681
vn -0.9959526684340065 0.08824401087779575 -0.017066832845642112
vn 0.9959526684340065 -0.08824401087779575 0.017066832845642112
vn -0.9953425566347466 0.0885550104361643 -0.038094685698367596
vn 0.9953425566347466 -0.0885550104361643 0.038094685698367596
usemtl material_0_0
f 1//1 2//2 3//3
f 3//4 2//5 1//6
f 4//7 2//2 1//1
f 1//6 2//5 4//8
f 1//1 3//3 5//9
f 5//10 3//4 1//6
f 4//7 6//11 2//2
f 2//5 6//12 4//8
f 5//9 3//3 7//13
f 7//14 3//4 5//10
f 8//15 6//11 4//7
f 4//8 6//12 8//16
f 5//9 7//13 9//17
f 9//18 7//14 5//10
f 8//15 10//19 6//11
f 6//12 10//20 8//16
f 7//13 11//21 9//17
f 9//18 11//22 7//14
f 8//15 12//23 10//19
f 10//20 12//24 8//16
f 9//17 11//21 13//25
f 13//26 11//22 9//18
f 12//23 14//27 10//19
f 10//20 14//28 12//24
f 11//21 15//29 13//25
f 13//26 15//30 11//22
f 12//23 16//31 14//27
f 14//28 16//32 12//24
f 10//19 14//27 17//33
f 17//34 14//28 10//20
f 13//25 15//29 18//35
f 18//36 15//30 13//26
f 12//23 19//31 16//31
f 16//32 19//32 12//24
f 10//19 17//33 20//33
f 20//34 17//34 10//20
f 15//29 21//37 18//35
f 18//36 21//38 15//30
f 15//29 22//39 21//37
f 21//38 22//40 15//30
f 18//35 21//37 23//41
f 23//42 21//38 18//36
f 15//29 24//39 22//39
f 22//40 24//40 15//30
f 18//35 23//41 25//41
f 25//42 23//42 18//36
