# SSTK version 0.8.0
# 11
mtllib original-11.mtl
o mesh9/mesh9-geometry#mesh9-geometry
v -0.00400314 0.17482055 -0.55220568
v -0.01278942 0.17393023 -0.55197853
v 0.01327462 0.17126990 -0.55245121
v -0.02141047 0.17134629 -0.55184105
v 0.00479953 0.17384551 -0.55220993
v -0.02925250 0.16718425 -0.55170895
v 0.02101230 0.16726489 -0.55251034
v 0.02798849 0.16163250 -0.55265894
v 0.03347055 0.15466954 -0.55266627
v 0.03773133 0.14689795 -0.55282286
v -0.03608708 0.16157870 -0.55153637
v -0.04164559 0.15464803 -0.55137879
v -0.04588836 0.14696492 -0.55147031
v 0.04025304 0.13839673 -0.55292562
v 0.04114340 0.12954764 -0.55280094
v -0.04830708 0.13836470 -0.55138411
v -0.04921242 0.12952445 -0.55129736
v 0.04029306 0.12077050 -0.55284532
v -0.04839732 0.12068361 -0.55124169
v -0.04586059 0.11226017 -0.55143230
v 0.03774244 0.11233450 -0.55290255
v 0.03351739 0.10445306 -0.55275931
v 0.02798004 0.09759993 -0.55257366
v 0.02113861 0.09203709 -0.55255865
v -0.04170447 0.10454896 -0.55151375
v -0.03592437 0.09754355 -0.55151064
v -0.02907785 0.09205217 -0.55173910
v 0.01332915 0.08785061 -0.55243587
v 0.00477334 0.08518296 -0.55216251
v -0.00397509 0.08426646 -0.55211159
v -0.01276300 0.08523743 -0.55187499
v -0.02127861 0.08778430 -0.55184285
vn 0.01745240643728352 0 0.9998476951563913
vn -0.01745240643728352 0 -0.9998476951563913
usemtl material_0_0
f 1//1 2//1 3//1
f 3//2 2//2 1//2
f 2//1 4//1 3//1
f 3//2 4//2 2//2
f 1//1 3//1 5//1
f 5//2 3//2 1//2
f 4//1 6//1 3//1
f 3//2 6//2 4//2
f 3//1 6//1 7//1
f 7//2 6//2 3//2
f 6//1 8//1 7//1
f 7//2 8//2 6//2
f 6//1 9//1 8//1
f 8//2 9//2 6//2
f 6//1 10//1 9//1
f 9//2 10//2 6//2
f 6//1 11//1 10//1
f 10//2 11//2 6//2
f 11//1 12//1 10//1
f 10//2 12//2 11//2
f 12//1 13//1 10//1
f 10//2 13//2 12//2
f 13//1 14//1 10//1
f 10//2 14//2 13//2
f 13//1 15//1 14//1
f 14//2 15//2 13//2
f 13//1 16//1 15//1
f 15//2 16//2 13//2
f 16//1 17//1 15//1
f 15//2 17//2 16//2
f 17//1 18//1 15//1
f 15//2 18//2 17//2
f 17//1 19//1 18//1
f 18//2 19//2 17//2
f 19//1 20//1 18//1
f 18//2 20//2 19//2
f 18//1 20//1 21//1
f 21//2 20//2 18//2
f 20//1 22//1 21//1
f 21//2 22//2 20//2
f 20//1 23//1 22//1
f 22//2 23//2 20//2
f 20//1 24//1 23//1
f 23//2 24//2 20//2
f 20//1 25//1 24//1
f 24//2 25//2 20//2
f 25//1 26//1 24//1
f 24//2 26//2 25//2
f 26//1 27//1 24//1
f 24//2 27//2 26//2
f 27//1 28//1 24//1
f 24//2 28//2 27//2
f 27//1 29//1 28//1
f 28//2 29//2 27//2
f 27//1 30//1 29//1
f 29//2 30//2 27//2
f 27//1 31//1 30//1
f 30//2 31//2 27//2
f 27//1 32//1 31//1
f 31//2 32//2 27//2
