# SSTK version 0.8.0
# 116
mtllib original-116.mtl
o mesh108/mesh108-geometry#mesh108-geometry
v -0.11249022 0.80850189 0.57692068
v -0.11214234 0.79125290 0.56558253
v -0.11370039 0.80289757 0.57293045
v -0.10977413 0.81372447 0.58081137
v -0.11368671 0.79706960 0.56903092
v -0.10962437 0.78561180 0.56233745
v -0.10572007 0.78058884 0.55965730
v -0.10598988 0.81829578 0.58446937
v -0.10079503 0.77589104 0.55772810
v -0.09494323 0.77224695 0.55633479
v -0.10125325 0.82195099 0.58798208
v -0.09561688 0.82475835 0.59083057
v -0.08917732 0.82640461 0.59319077
v -0.08242557 0.82690944 0.59489038
v -0.08860926 0.76942169 0.55575109
v -0.08184334 0.76774530 0.55608686
v -0.07493474 0.76722896 0.55701323
v -0.07552510 0.82643062 0.59586052
v -0.06887660 0.82476446 0.59623143
v -0.06239177 0.82185927 0.59557187
v -0.06823240 0.76771071 0.55874949
v -0.06189568 0.76943730 0.56095939
v -0.05605800 0.77223098 0.56400009
v -0.05657228 0.81818937 0.59433197
v -0.05175415 0.81377259 0.59216951
v -0.05130641 0.77607577 0.56736859
v -0.04761525 0.78049048 0.57105225
v -0.04775801 0.80854527 0.58967184
v -0.04505329 0.78568896 0.57507909
v -0.04376861 0.79123246 0.57905141
v -0.04524366 0.80300579 0.58648056
v -0.04383204 0.79706580 0.58296796
vn 0.16212222293787507 0.5439670809080375 -0.8232959369012279
vn -0.16212222293787507 -0.5439670809080375 0.8232959369012279
usemtl material_0_0
f 1//1 2//1 3//1
f 3//2 2//2 1//2
f 4//1 2//1 1//1
f 1//2 2//2 4//2
f 3//1 2//1 5//1
f 5//2 2//2 3//2
f 4//1 6//1 2//1
f 2//2 6//2 4//2
f 4//1 7//1 6//1
f 6//2 7//2 4//2
f 8//1 7//1 4//1
f 4//2 7//2 8//2
f 8//1 9//1 7//1
f 7//2 9//2 8//2
f 8//1 10//1 9//1
f 9//2 10//2 8//2
f 11//1 10//1 8//1
f 8//2 10//2 11//2
f 12//1 10//1 11//1
f 11//2 10//2 12//2
f 13//1 10//1 12//1
f 12//2 10//2 13//2
f 14//1 10//1 13//1
f 13//2 10//2 14//2
f 14//1 15//1 10//1
f 10//2 15//2 14//2
f 14//1 16//1 15//1
f 15//2 16//2 14//2
f 14//1 17//1 16//1
f 16//2 17//2 14//2
f 14//1 18//1 17//1
f 17//2 18//2 14//2
f 18//1 19//1 17//1
f 17//2 19//2 18//2
f 19//1 20//1 17//1
f 17//2 20//2 19//2
f 20//1 21//1 17//1
f 17//2 21//2 20//2
f 20//1 22//1 21//1
f 21//2 22//2 20//2
f 20//1 23//1 22//1
f 22//2 23//2 20//2
f 20//1 24//1 23//1
f 23//2 24//2 20//2
f 24//1 25//1 23//1
f 23//2 25//2 24//2
f 25//1 26//1 23//1
f 23//2 26//2 25//2
f 25//1 27//1 26//1
f 26//2 27//2 25//2
f 25//1 28//1 27//1
f 27//2 28//2 25//2
f 28//1 29//1 27//1
f 27//2 29//2 28//2
f 28//1 30//1 29//1
f 29//2 30//2 28//2
f 28//1 31//1 30//1
f 30//2 31//2 28//2
f 31//1 32//1 30//1
f 30//2 32//2 31//2
