# SSTK version 0.8.0
# 50
mtllib original-50.mtl
o Group42/mesh47/mesh47-geometry#mesh47-geometry
v -0.03355673 0.59143460 0.09832837
v -0.04097795 0.60268823 0.10871919
v -0.04087660 0.59135940 0.10867310
v -0.03028738 0.60281383 0.09502669
v -0.04593828 0.59151626 0.12063222
v -0.01597105 0.59145666 0.08525379
v -0.04697993 0.60281565 0.12512222
v -0.01365926 0.60266781 0.08433056
v -0.04793433 0.59141239 0.13466054
v 0.00707220 0.59709626 0.08002080
v -0.04723459 0.60279336 0.14477593
v 0.00701652 0.59417629 0.08000940
v 0.00696911 0.59996455 0.07984173
v -0.04359075 0.59143264 0.15741485
v 0.00704758 0.59144384 0.08000001
v 0.00700562 0.60284590 0.07999736
v -0.03991672 0.60278427 0.16476678
v -0.02989474 0.59154364 0.17711432
v -0.02578156 0.60271273 0.18047475
v -0.01060542 0.59142649 0.18860437
v -0.00831437 0.60270925 0.18934496
v 0.00887700 0.59715953 0.19177389
v 0.00902294 0.59998167 0.19182443
v 0.00890021 0.59431413 0.19188851
v 0.00884799 0.60272917 0.19176533
v 0.00895878 0.59151767 0.19184950
vn 0.7398596811713097 0.005319000451325485 0.6727401878966993
vn 0.8743759931144527 -0.02359800212876385 0.484674898215954
vn 0.8746196092600536 0 0.48480979682530256
vn -0.8746196092600536 0 -0.48480979682530256
vn -0.8743759931144527 0.02359800212876385 -0.484674898215954
vn -0.7398596811713097 -0.005319000451325485 -0.6727401878966993
vn 0.6497596907099739 -0.0065069994730303305 0.7601118360388406
vn -0.6497596907099739 0.0065069994730303305 -0.7601118360388406
vn 0.9562913295784521 -0.003879999081460635 0.2923898742778285
vn -0.9562913295784521 0.003879999081460635 -0.2923898742778285
vn 0.36948449577818204 0.014876994948346548 0.9291177979141554
vn -0.36948449577818204 -0.014876994948346548 -0.9291177979141554
vn 0.9848569695572668 -0.029940991803864118 0.1707638326001075
vn -0.9848569695572668 0.029940991803864118 -0.1707638326001075
vn 0.297151358251551 0.0026600007332922377 0.9548266830610451
vn -0.297151358251551 -0.0026600007332922377 -0.9548266830610451
vn 0.9997467170106632 0.021314989575459284 -0.007223091152614718
vn -0.9997467170106632 -0.021314989575459284 0.007223091152614718
vn 0.21756135073482027 0.015200993802966948 0.975928270137638
vn -0.21756135073482027 -0.015200993802966948 -0.975928270137638
vn 0.9846957372930929 -0.0188429919545153 -0.17326063202878517
vn -0.9846957372930929 0.0188429919545153 0.17326063202878517
vn 0.22862887111133903 0 0.973513656449849
vn -0.22862887111133903 0 -0.973513656449849
vn 0.2060910579011036 0 0.9785328179745452
vn -0.2060910579011036 0 -0.9785328179745452
vn 0.9265465257595351 0.041766003032525006 -0.37385443235786625
vn -0.9265465257595351 -0.041766003032525006 0.37385443235786625
vn 0.8443932537777114 -0.016384998940300464 -0.5354732157488513
vn -0.8443932537777114 0.016384998940300464 0.5354732157488513
vn 0.7025821892962443 0.036359007061392216 -0.7106731245018388
vn -0.7025821892962443 -0.036359007061392216 0.7106731245018388
vn 0.578415590142441 -0.00902000440583161 -0.8156923713022516
vn -0.578415590142441 0.00902000440583161 0.8156923713022516
vn 0.2915320867909244 0.015003996275137928 -0.9564433712808639
vn -0.2915320867909244 -0.015003996275137928 0.9564433712808639
vn 0.22243657894865548 0.0005149997258040014 -0.974947025802377
vn -0.22243657894865548 -0.0005149997258040014 0.974947025802377
vn 0.14893802862443564 0.01151499487750341 -0.9887794842746475
vn -0.14893802862443564 -0.01151499487750341 0.9887794842746475
vn 0.138279333574753 0 -0.990393268306142
vn -0.138279333574753 0 0.990393268306142
vn 0.15916333464218188 0 -0.9872522640670828
vn -0.15916333464218188 0 0.9872522640670828
usemtl material_0_0
f 1//1 2//2 3//3
f 3//4 2//5 1//6
f 4//7 2//2 1//1
f 1//6 2//5 4//8
f 2//2 5//9 3//3
f 3//4 5//10 2//5
f 4//7 1//1 6//11
f 6//12 1//6 4//8
f 2//2 7//13 5//9
f 5//10 7//14 2//5
f 4//7 6//11 8//15
f 8//16 6//12 4//8
f 5//9 7//13 9//17
f 9//18 7//14 5//10
f 8//15 6//11 10//19
f 10//20 6//12 8//16
f 7//13 11//21 9//17
f 9//18 11//22 7//14
f 10//19 6//11 12//23
f 12//24 6//12 10//20
f 8//15 10//19 13//25
f 13//26 10//20 8//16
f 9//17 11//21 14//27
f 14//28 11//22 9//18
f 12//23 6//11 15//23
f 15//24 6//12 12//24
f 8//15 13//25 16//25
f 16//26 13//26 8//16
f 11//21 17//29 14//27
f 14//28 17//30 11//22
f 14//27 17//29 18//31
f 18//32 17//30 14//28
f 17//29 19//33 18//31
f 18//32 19//34 17//30
f 19//33 20//35 18//31
f 18//32 20//36 19//34
f 21//37 20//35 19//33
f 19//34 20//36 21//38
f 21//37 22//39 20//35
f 20//36 22//40 21//38
f 21//37 23//41 22//39
f 22//40 23//42 21//38
f 22//39 24//43 20//35
f 20//36 24//44 22//40
f 25//41 23//41 21//37
f 21//38 23//42 25//42
f 24//43 26//43 20//35
f 20//36 26//44 24//44
