# SSTK version 0.8.0
# 89
mtllib original-89.mtl
o Group73/mesh84/mesh84-geometry#mesh84-geometry
v -0.01121189 0.95081265 0.23334905
v -0.05242359 0.95504752 0.22608743
v -0.01303691 0.95493385 0.24236340
v -0.04719084 0.95092924 0.21838855
v -0.01001662 0.94271108 0.22672922
v -0.08973802 0.95501585 0.18293941
v -0.04350443 0.94257793 0.21293793
v -0.08163905 0.95090327 0.17903204
v -0.00959766 0.93282368 0.22458947
v -0.09843737 0.95498960 0.11488863
v -0.04218508 0.93276022 0.21104771
v -0.07541739 0.94258985 0.17606954
v -0.08958288 0.95074132 0.11662743
v -0.06465338 0.95498062 0.05522741
v -0.07340696 0.93275670 0.17517690
v -0.08292863 0.94266368 0.11802363
v -0.05845942 0.95083779 0.06195459
v -0.01363709 0.95493702 0.02958202
v -0.08070151 0.93284302 0.11848666
v -0.05400380 0.94271198 0.06693542
v -0.01189664 0.95088119 0.03847381
v 0.02890012 0.95492034 0.02932237
v -0.05247921 0.93289612 0.06857909
v -0.01038954 0.94269750 0.04502702
v 0.02723804 0.95087860 0.03846272
v -0.01003723 0.93276152 0.04715762
v 0.02578778 0.94262318 0.04503797
v 0.02541284 0.93276081 0.04717227
vn 0.21116016178303532 0.8332120100781157 -0.5110470940503902
vn 0.21467670063515779 0.9107016297898448 -0.35289723107800547
vn 0.16019692902291738 0.9077557062680021 -0.3877067470002388
vn -0.16019692902291738 -0.9077557062680021 0.3877067470002388
vn -0.21467670063515779 -0.9107016297898448 0.35289723107800547
vn -0.21116016178303532 -0.8332120100781157 0.5110470940503902
vn 0.344375622730719 0.7932575115986396 -0.5021433567828653
vn -0.344375622730719 -0.7932575115986396 0.5021433567828653
vn 0.33052845144358567 0.500844018116029 -0.7999413805421596
vn -0.33052845144358567 -0.500844018116029 0.7999413805421596
vn 0.35892952966836855 0.9104512320062198 -0.20554354008433376
vn -0.35892952966836855 -0.9104512320062198 0.20554354008433376
vn 0.5185718429368318 0.43937626051768547 -0.733506472641239
vn -0.5185718429368318 -0.43937626051768547 0.733506472641239
vn 0.5476961309061931 0.7937850269438422 -0.26445090128443444
vn -0.5476961309061931 -0.7937850269438422 0.26445090128443444
vn 0.3726805165115977 0.21813603959758404 -0.9019567067444701
vn -0.3726805165115977 -0.21813603959758404 0.9019567067444701
vn 0.4134017091883904 0.9098868089297044 0.0347134235683691
vn -0.4134017091883904 -0.9098868089297044 -0.0347134235683691
vn 0.6299863512316698 0.22089507346076703 -0.7445284170416663
vn -0.6299863512316698 -0.22089507346076703 0.7445284170416663
vn 0.8156338023096971 0.44001199594660934 -0.37567398626057036
vn -0.8156338023096971 -0.44001199594660934 0.37567398626057036
vn 0.599916673602704 0.7940519682407011 0.09788491439714049
vn -0.599916673602704 -0.7940519682407011 -0.09788491439714049
vn 0.3158284654127206 0.9095169112397944 0.27024316569317736
vn -0.3158284654127206 -0.9095169112397944 -0.27024316569317736
vn 0.9256763544921665 0.2205031031194026 -0.30741123637370016
vn -0.9256763544921665 -0.2205031031194026 0.30741123637370016
vn 0.8826664983099765 0.44080303092035017 0.16307219472564102
vn -0.8826664983099765 -0.44080303092035017 -0.16307219472564102
vn 0.4329970997236336 0.7935960215219278 0.42745627408600484
vn -0.4329970997236336 -0.7935960215219278 -0.42745627408600484
vn 0.12845754058304498 0.9098215645208363 0.3946180191022874
vn -0.12845754058304498 -0.9098215645208363 -0.3946180191022874
vn 0.9302464263904987 0.2209520000989866 0.29295357966743474
vn -0.9302464263904987 -0.2209520000989866 -0.29295357966743474
vn 0.6261152744863686 0.4407240295591416 0.6432277923286681
vn -0.6261152744863686 -0.4407240295591416 -0.6432277923286681
vn 0.15622497474979422 0.7930721083495191 0.5887532490122453
vn -0.15622497474979422 -0.7930721083495191 -0.5887532490122453
vn 0.0012434246056345795 0.9077558208793699 0.4194971079219396
vn -0.0012434246056345795 -0.9077558208793699 -0.4194971079219396
vn 0.5979620195803859 0.2216860375141581 0.7702575698496039
vn -0.5979620195803859 -0.2216860375141581 -0.7702575698496039
vn 0.2167742512314748 0.4400559808148802 0.8714124498491441
vn -0.2167742512314748 -0.4400559808148802 -0.8714124498491441
vn 0.002005355338361543 0.7366769035638433 0.6762419081257498
vn -0.002005355338361543 -0.7366769035638433 -0.6762419081257498
vn 0.15181728658870142 0.22203992195009506 0.963145775338936
vn -0.15181728658870142 -0.22203992195009506 -0.963145775338936
vn 0.0027637986211350965 0.3620449270445155 0.9321565492011056
vn -0.0027637986211350965 -0.3620449270445155 -0.9321565492011056
vn 0.0028934907455605502 0.21813599000141035 0.9759140933388604
vn -0.0028934907455605502 -0.21813599000141035 -0.9759140933388604
usemtl material_0_0
f 1//1 2//2 3//3
f 3//4 2//5 1//6
f 1//1 4//7 2//2
f 2//5 4//8 1//6
f 1//1 5//9 4//7
f 4//8 5//10 1//6
f 4//7 6//11 2//2
f 2//5 6//12 4//8
f 4//7 5//9 7//13
f 7//14 5//10 4//8
f 4//7 8//15 6//11
f 6//12 8//16 4//8
f 5//9 9//17 7//13
f 7//14 9//18 5//10
f 7//13 8//15 4//7
f 4//8 8//16 7//14
f 8//15 10//19 6//11
f 6//12 10//20 8//16
f 7//13 9//17 11//21
f 11//22 9//18 7//14
f 7//13 12//23 8//15
f 8//16 12//24 7//14
f 8//15 13//25 10//19
f 10//20 13//26 8//16
f 12//23 7//13 11//21
f 11//22 7//14 12//24
f 13//25 8//15 12//23
f 12//24 8//16 13//26
f 14//27 10//19 13//25
f 13//26 10//20 14//28
f 15//29 12//23 11//21
f 11//22 12//24 15//30
f 13//25 12//23 16//31
f 16//32 12//24 13//26
f 17//33 14//27 13//25
f 13//26 14//28 17//34
f 16//31 12//23 15//29
f 15//30 12//24 16//32
f 17//33 13//25 16//31
f 16//32 13//26 17//34
f 18//35 14//27 17//33
f 17//34 14//28 18//36
f 16//31 15//29 19//37
f 19//38 15//30 16//32
f 17//33 16//31 20//39
f 20//40 16//32 17//34
f 21//41 18//35 17//33
f 17//34 18//36 21//42
f 20//39 16//31 19//37
f 19//38 16//32 20//40
f 17//33 20//39 21//41
f 21//42 20//40 17//34
f 22//43 18//35 21//41
f 21//42 18//36 22//44
f 20//39 19//37 23//45
f 23//46 19//38 20//40
f 21//41 20//39 24//47
f 24//48 20//40 21//42
f 22//43 21//41 25//49
f 25//50 21//42 22//44
f 20//39 23//45 24//47
f 24//48 23//46 20//40
f 21//41 24//47 25//49
f 25//50 24//48 21//42
f 24//47 23//45 26//51
f 26//52 23//46 24//48
f 25//49 24//47 27//53
f 27//54 24//48 25//50
f 24//47 26//51 27//53
f 27//54 26//52 24//48
f 27//53 26//51 28//55
f 28//56 26//52 27//54
