# SSTK version 0.8.0
# 3
mtllib original-3.mtl
o #ID257
v -0.11183087 0.29048387 0.25230060
v -0.04484439 0.29041698 0.28428069
v -0.11698083 0.29040562 0.26440437
v 0.02984754 0.29036166 0.28506367
v 0.10176156 0.29048952 -0.25081760
v 0.10234803 0.29034324 0.26639848
v 0.16727939 0.29042542 0.22956972
v 0.22070688 0.29036649 0.17711499
v 0.25858829 0.29045067 0.11261512
v 0.27857234 0.29031194 0.04058246
v 0.27927338 0.29036593 -0.03409007
v 0.26056401 0.29030409 -0.10650544
v 0.22363449 0.29037908 -0.17163797
v 0.17136275 0.29038219 -0.22482657
v 0.10685909 0.29046938 -0.26275197
v 0.10687728 0.29043082 -0.26270950
v 0.10175142 0.29047103 -0.25080459
v 0.17127324 0.29041896 -0.22495131
v 0.22362436 0.29039568 -0.17162708
v 0.26041950 0.29034813 -0.10639050
v 0.27922670 0.29041839 -0.03409823
v 0.27861751 0.29035369 0.04069062
v 0.25851797 0.29037966 0.11261160
v 0.22075505 0.29042025 0.17707797
v 0.16736098 0.29043419 0.22945704
v 0.10219248 0.29036220 0.26631500
v 0.02982849 0.29045811 0.28501150
v -0.11174571 0.29029963 0.25232511
v -0.04478421 0.29049287 0.28436509
v -0.11684352 0.29039157 0.26432467
v -0.18134141 0.29036545 0.22649775
v -0.11179084 0.29049504 0.25232249
v -0.11691001 0.29036300 0.26436940
v -0.23360507 0.29032163 0.17310756
v 0.10176707 0.29033728 -0.25076685
v -0.27060141 0.29042904 0.10810464
v -0.28930498 0.29044732 0.03565209
v -0.28848319 0.29039632 -0.03915311
v -0.26867142 0.29043574 -0.11100456
v -0.23070695 0.29040540 -0.17557834
v -0.17726373 0.29038691 -0.22800200
v -0.11230067 0.29042755 -0.26473924
v -0.03992975 0.29031194 -0.28339150
v 0.03483164 0.29045533 -0.28271546
v 0.10698760 0.29045838 -0.26281635
v 0.10689170 0.29031898 -0.26271645
v 0.03485126 0.29040052 -0.28272275
v 0.10170445 0.29035579 -0.25087140
v -0.03992188 0.29031204 -0.28335417
v -0.11236372 0.29047729 -0.26471772
v -0.17739264 0.29042467 -0.22785222
v -0.23055098 0.29031953 -0.17546497
v -0.26856599 0.29030540 -0.11100671
v -0.28858480 0.29048846 -0.03898531
v -0.28926239 0.29046188 0.03561253
v -0.27051910 0.29035602 0.10805404
v -0.23372057 0.29033704 0.17320781
v -0.11181740 0.29037663 0.25233370
v -0.18138186 0.29034593 0.22642299
v -0.11691431 0.29041908 0.26431333
vt 1.284409 0.5541338
vt 1.279548 0.5541338
vt 1.28077 0.5212954
vt 1.270102 0.490695
vt 1.253131 0.4644177
vt 1.231014 0.4442545
vt 1.205259 0.4315794
vt 1.17762 0.4272561
vt 1.149981 0.4315794
vt 1.124226 0.4442545
vt 1.102109 0.4644177
vt 1.085138 0.490695
vt 1.075692 0.5541338
vt 1.07447 0.5212954
vt 1.070831 0.5541338
vt 1.28077 0.5869721
vt 1.270102 0.6175726
vt 1.253131 0.6438498
vt 1.231014 0.6640131
vt 1.205259 0.6766882
vt 1.17762 0.6810115
vt 1.149981 0.6766882
vt 1.124226 0.6640131
vt 1.102109 0.6438498
vt 1.085138 0.6175726
vt 1.07447 0.5869721
vn 0 -1 0
vn 0 1 0
usemtl material_0_0
f 16/1/2 17/2/2 18/3/2
f 18/3/2 17/2/2 19/4/2
f 19/4/2 17/2/2 20/5/2
f 20/5/2 17/2/2 21/6/2
f 21/6/2 17/2/2 22/7/2
f 22/7/2 17/2/2 23/8/2
f 23/8/2 17/2/2 24/9/2
f 24/9/2 17/2/2 25/10/2
f 25/10/2 17/2/2 26/11/2
f 26/11/2 17/2/2 27/12/2
f 17/2/2 28/13/2 27/12/2
f 27/12/2 28/13/2 29/14/2
f 30/15/2 29/14/2 28/13/2
f 46/1/2 47/16/2 48/2/2
f 47/16/2 49/17/2 48/2/2
f 49/17/2 50/18/2 48/2/2
f 50/18/2 51/19/2 48/2/2
f 51/19/2 52/20/2 48/2/2
f 52/20/2 53/21/2 48/2/2
f 53/21/2 54/22/2 48/2/2
f 54/22/2 55/23/2 48/2/2
f 55/23/2 56/24/2 48/2/2
f 56/24/2 57/25/2 48/2/2
f 48/2/2 57/25/2 58/13/2
f 57/25/2 59/26/2 58/13/2
f 60/15/2 58/13/2 59/26/2
usemtl material_1_0
f 1//1 2//1 3//1
f 2//1 1//1 4//1
f 4//1 1//1 5//1
f 4//1 5//1 6//1
f 6//1 5//1 7//1
f 7//1 5//1 8//1
f 8//1 5//1 9//1
f 9//1 5//1 10//1
f 10//1 5//1 11//1
f 11//1 5//1 12//1
f 12//1 5//1 13//1
f 13//1 5//1 14//1
f 14//1 5//1 15//1
f 31//1 32//1 33//1
f 32//1 31//1 34//1
f 32//1 34//1 35//1
f 35//1 34//1 36//1
f 35//1 36//1 37//1
f 35//1 37//1 38//1
f 35//1 38//1 39//1
f 35//1 39//1 40//1
f 35//1 40//1 41//1
f 35//1 41//1 42//1
f 35//1 42//1 43//1
f 35//1 43//1 44//1
f 35//1 44//1 45//1
