# SSTK version 0.8.0
# 10
mtllib original-10.mtl
o #ID199
v -0.12279991 0.97042790 0.21155290
v -0.11403742 0.93526670 0.19098785
v -0.12478227 0.96798619 0.21655507
v -0.12070211 0.97260161 0.20650938
v -0.11839072 0.97481458 0.20143481
v -0.11619580 0.97658911 0.19636870
v -0.11412686 0.97838808 0.19115645
v -0.11197690 0.97975896 0.18597205
v -0.11025685 0.93691653 0.18209339
v -0.10975184 0.98108218 0.18071882
v -0.10639379 0.93802941 0.17331005
v -0.10748664 0.98210844 0.17552928
v -0.10521173 0.98299921 0.17015312
v -0.10516636 0.93832190 0.17042793
v -0.10277184 0.93900017 0.16432005
v -0.10294614 0.98378133 0.16488680
v -0.10056528 0.98427714 0.15951374
v -0.09893464 0.93938384 0.15547324
v -0.09843282 0.98461855 0.15413142
v -0.09513549 0.93938219 0.14648739
v -0.09396678 0.98481074 0.14362216
v -0.09135181 0.93913427 0.13745090
v -0.08939781 0.98492716 0.13307656
v -0.08740624 0.93840885 0.12848895
v -0.08506748 0.98496481 0.12254238
v -0.08371090 0.93735634 0.11953255
v -0.08058920 0.98480582 0.11202249
v -0.07988917 0.93589473 0.11070918
v -0.07596681 0.98456532 0.10157735
v -0.07622089 0.93413240 0.10185453
v -0.07257569 0.93192266 0.09309262
v -0.07154516 0.98397515 0.09099894
v -0.06878109 0.92921673 0.08441132
v -0.06713626 0.98333860 0.08055077
v -0.06688611 0.92790822 0.08017768
v -0.06274601 0.98257931 0.07006748
v -0.06507555 0.92681765 0.07561815
v -0.06315310 0.92560647 0.07132088
v -0.06131845 0.92474156 0.06681386
v -0.05827411 0.98177199 0.05960088
v -0.05936846 0.92395774 0.06246671
v -0.05746918 0.92319041 0.05802205
v -0.05380326 0.98062161 0.04907854
v -0.05563086 0.92253361 0.05347831
v -0.05376896 0.92220747 0.04897937
v -0.04927650 0.97936208 0.03861060
v -0.05182373 0.92175977 0.04454408
v -0.04998301 0.92166375 0.03999071
v -0.04798487 0.92155755 0.03545480
v -0.04496759 0.97813568 0.02814616
v -0.04609137 0.92160213 0.03087756
v -0.02901709 0.95803463 -0.00936335
v -0.04127979 0.97694874 0.01956588
v -0.03751606 0.97610134 0.01069602
v -0.03388481 0.97531507 0.00216461
v -0.03003750 0.97485535 -0.00662704
v -0.02888816 0.97485368 -0.00938341
v -0.02638745 0.97461933 -0.01542500
v 0.00784719 0.95817283 -0.09617468
v -0.02271576 0.97447632 -0.02401298
v -0.01896042 0.97455970 -0.03288146
v -0.01528376 0.97475609 -0.04161553
v -0.01162982 0.97541066 -0.05025146
v -0.00785345 0.97610698 -0.05905228
v -0.00419871 0.97704737 -0.06776547
v -0.00048369 0.97810023 -0.07630656
v 0.00779845 0.97799168 -0.09617044
v 0.00790917 0.96005051 -0.09619280
v 0.00779229 0.96000810 -0.09615529
v 0.00794306 0.97798908 -0.09609294
v 0.00788458 0.95804921 -0.09606251
v -0.00042997 0.97803682 -0.07646207
v -0.00413386 0.97688271 -0.06775198
v -0.00785217 0.97608690 -0.05891370
v -0.01162764 0.97540838 -0.05035139
v -0.01522367 0.97479990 -0.04152630
v -0.01910362 0.97446733 -0.03282713
v -0.02276679 0.97435622 -0.02406928
v -0.02638701 0.97447704 -0.01540880
v -0.02898541 0.95810406 -0.00947815
v -0.02896873 0.97467729 -0.00931395
v -0.03014843 0.97476341 -0.00661627
v -0.03381861 0.97530860 0.00216425
v -0.03753974 0.97608542 0.01082601
v -0.04118708 0.97691272 0.01953827
v -0.04483257 0.97809128 0.02821281
v -0.04610397 0.92169601 0.03094390
v -0.04801651 0.92163150 0.03550871
v -0.04933245 0.97939847 0.03871164
v -0.04982072 0.92173039 0.03996698
v -0.05175401 0.92180432 0.04444369
v -0.05376565 0.92216721 0.04894032
v -0.05375925 0.98066223 0.04914996
v -0.05566955 0.92256341 0.05344571
v -0.05748355 0.92308805 0.05782766
v -0.05823915 0.98182960 0.05963297
v -0.05949051 0.92396775 0.06246094
v -0.06135513 0.92472249 0.06684807
v -0.06272242 0.98271486 0.06999346
v -0.06327159 0.92574819 0.07127809
v -0.06509763 0.92680850 0.07562904
v -0.06696755 0.92784873 0.08014762
v -0.06714644 0.98351603 0.08057207
v -0.06875170 0.92924651 0.08457483
v -0.07166579 0.98396048 0.09104014
v -0.07246350 0.93192103 0.09314047
v -0.07600316 0.98443235 0.10161967
v -0.07626117 0.93398210 0.10199679
v -0.07988522 0.93585256 0.11075736
v -0.08052726 0.98476344 0.11216743
v -0.08363317 0.93740099 0.11966050
v -0.08498585 0.98488433 0.12260876
v -0.08751086 0.93849409 0.12858208
v -0.08941603 0.98495415 0.13313593
v -0.09129098 0.93916193 0.13752538
v -0.09396692 0.98490099 0.14360072
v -0.09514833 0.93939090 0.14649731
v -0.09833725 0.98457743 0.15422935
v -0.09896699 0.93943579 0.15528640
v -0.10060222 0.98417152 0.15955704
v -0.10270453 0.93903873 0.16434833
v -0.10289594 0.98367702 0.16476497
v -0.10526423 0.98312752 0.17020099
v -0.10522037 0.93840840 0.17026760
v -0.10652200 0.93806207 0.17315724
v -0.10745345 0.98226695 0.17551079
v -0.10965361 0.98117834 0.18067935
v -0.11021131 0.93695216 0.18205588
v -0.11185228 0.97985666 0.18589642
v -0.11411059 0.93532681 0.19096425
v -0.11401886 0.97827557 0.19122438
v -0.11619742 0.97656822 0.19626782
v -0.11854210 0.97479583 0.20140922
v -0.12063721 0.97264847 0.20653269
v -0.12265920 0.97042294 0.21148430
v -0.12478380 0.96799139 0.21645448
v 0.04733067 0.97798229 -0.05607994
v 0.00790356 0.97805505 -0.09606419
v -0.00058649 0.97801939 -0.07645518
v 0.05572563 0.97808043 -0.07581463
v 0.05581672 0.97801407 -0.07575371
v 0.04735793 0.97810425 -0.05594698
v 0.00790389 0.97801299 -0.09620458
v -0.00047977 0.97802853 -0.07636190
v 0.00795249 0.97804031 -0.09613903
v 0.05575739 0.95991033 -0.07586938
v 0.00784784 0.95993652 -0.09612206
v 0.05573800 0.97805756 -0.07584935
v 0.05575036 0.97802222 -0.07573284
v 0.00786127 0.97805552 -0.09610707
v 0.05583214 0.95995917 -0.07578385
v 0.00786535 0.95996611 -0.09609952
v 0.00782977 0.95801101 -0.09616183
v 0.05572493 0.95809350 -0.07571922
v 0.00783939 0.95800646 -0.09620283
v 0.05584832 0.95811055 -0.07577914
v 0.05585914 0.95805699 -0.07576997
v -0.02894489 0.95808328 -0.00937946
v 0.00780183 0.95812917 -0.09609472
v 0.01892933 0.95817639 0.01096478
v 0.01900005 0.95815409 0.01104740
v 0.05579326 0.95800568 -0.07581714
v -0.02898326 0.95809162 -0.00928305
v 0.00786398 0.95810769 -0.09611044
v 0.01892316 0.95804033 0.01086669
v -0.04600215 0.92158430 0.03093299
v -0.02905249 0.95803894 -0.00935596
v 0.00178090 0.92172379 0.05126334
v 0.00191246 0.92175085 0.05126596
v 0.01895831 0.95814723 0.01103483
v -0.04598198 0.92177032 0.03100861
v -0.02904021 0.95819407 -0.00945803
v 0.00176550 0.92162739 0.05130388
v -0.04791373 0.92159534 0.03534767
v -0.04612966 0.92159844 0.03095508
v -0.00010206 0.92168128 0.05579168
v -0.00007536 0.92161660 0.05581165
v 0.00179431 0.92174360 0.05122589
v -0.04803993 0.92164164 0.03535904
v -0.04604052 0.92172521 0.03087428
v -0.04982203 0.92172470 0.04000496
v -0.00205620 0.92160851 0.06034987
v -0.00189797 0.92169063 0.06025235
v -0.04982124 0.92168355 0.04003336
v -0.05189375 0.92190145 0.04453970
v -0.00393188 0.92193787 0.06481408
v -0.00385254 0.92194316 0.06488905
v -0.05179315 0.92175506 0.04447596
v -0.05381715 0.92220838 0.04890349
v -0.00583419 0.92210143 0.06923159
v -0.00576430 0.92214709 0.06920484
v -0.05378268 0.92208883 0.04890326
v -0.05568464 0.92267901 0.05340856
v -0.00763113 0.92261613 0.07371321
v -0.00775304 0.92261685 0.07371510
v -0.05570643 0.92263722 0.05341693
v -0.05757000 0.92314656 0.05786731
v -0.00962671 0.92310078 0.07832384
v -0.00951239 0.92312326 0.07821399
v -0.05758327 0.92319837 0.05786188
v -0.05941026 0.92380147 0.06249394
v -0.01155737 0.92392505 0.08266632
v -0.01140866 0.92381196 0.08271496
v -0.05938228 0.92378028 0.06237948
v -0.06136836 0.92463602 0.06692941
v -0.01342498 0.92478843 0.08721783
v -0.01332410 0.92476319 0.08710492
v -0.06122772 0.92469922 0.06675417
v -0.06322105 0.92558349 0.07134224
v -0.01530597 0.92560267 0.09160047
v -0.01519565 0.92571611 0.09163699
v -0.06311797 0.92563804 0.07130381
v -0.06502192 0.92679360 0.07566178
v -0.01717545 0.92673738 0.09602365
v -0.01717785 0.92673034 0.09608725
v -0.06504951 0.92680568 0.07579480
v -0.06703839 0.92803918 0.08017838
v -0.01901256 0.92786698 0.10045747
v -0.01899774 0.92791188 0.10052278
v -0.06701877 0.92801688 0.08005185
v -0.06889233 0.92930300 0.08438083
v -0.02095619 0.92931499 0.10485978
v -0.02088916 0.92920608 0.10477329
v -0.06884266 0.92926393 0.08457629
v -0.02086714 0.92924162 0.10473629
v -0.07254180 0.93195494 0.09307410
v -0.06873146 0.92933377 0.08449937
v -0.02454016 0.93182682 0.11347267
v -0.02446054 0.93188909 0.11361205
v -0.02077444 0.92932170 0.10472872
v -0.07255040 0.93184252 0.09325382
v -0.06878396 0.92918894 0.08448639
v -0.07627802 0.93403360 0.10196047
v -0.02828172 0.93413150 0.12234853
v -0.02832316 0.93401566 0.12235090
v -0.07621617 0.93409890 0.10188014
v -0.08004188 0.93593573 0.11073980
v -0.03193481 0.93595567 0.13102778
v -0.03193784 0.93582023 0.13105554
v -0.07999326 0.93585253 0.11071133
v -0.08371197 0.93745550 0.11956061
v -0.03585606 0.93739209 0.14000069
v -0.03584782 0.93737049 0.13996370
v -0.08364491 0.93730626 0.11958713
v -0.08752751 0.93844029 0.12860551
v -0.03961055 0.93841199 0.14880130
v -0.03964585 0.93844908 0.14885673
v -0.08742285 0.93844495 0.12846364
v -0.09136234 0.93916716 0.13753617
v -0.04344508 0.93907085 0.15788885
v -0.04345855 0.93917853 0.15783520
v -0.09120763 0.93914827 0.13739454
v -0.09508284 0.93944393 0.14636416
v -0.04725932 0.93941728 0.16667371
v -0.04710468 0.93944259 0.16668394
v -0.09507560 0.93940437 0.14635570
v -0.09897204 0.93946364 0.15547327
v -0.05106215 0.93943931 0.17574823
v -0.05103917 0.93932980 0.17568438
v -0.09889105 0.93943128 0.15532210
v -0.10262500 0.93893953 0.16441459
v -0.05475048 0.93890855 0.18471386
v -0.05475622 0.93903824 0.18459018
v -0.10263229 0.93902951 0.16430235
v -0.10530572 0.93840498 0.17037049
v -0.05729636 0.93839324 0.19074785
v -0.05734059 0.93835499 0.19067906
v -0.10530522 0.93835907 0.17039832
v -0.05728632 0.93847504 0.19065914
v -0.10641918 0.93819831 0.17334779
v -0.10533251 0.93831055 0.17028915
v -0.05855847 0.93820551 0.19363987
v -0.05864297 0.93805488 0.19355435
v -0.05729500 0.93837311 0.19069302
v -0.10654465 0.93804909 0.17325557
v -0.10518127 0.93839014 0.17046171
v -0.05849451 0.93819473 0.19354462
v -0.11016856 0.93686001 0.18207793
v -0.10655592 0.93807014 0.17316747
v -0.06227835 0.93692639 0.20244333
v -0.06230263 0.93694621 0.20241482
v -0.05852901 0.93818169 0.19357124
v -0.11023985 0.93681018 0.18205281
v -0.10651798 0.93817356 0.17320508
v -0.06239124 0.93687985 0.20244885
v -0.11400296 0.93530170 0.19105676
v -0.11027434 0.93696052 0.18216032
v -0.06607643 0.93537797 0.21135624
v -0.06605924 0.93521844 0.21138450
v -0.06232294 0.93689261 0.20244044
v -0.11396808 0.93528429 0.19091246
v -0.11016878 0.93691421 0.18215757
v -0.06611318 0.93525883 0.21140867
v -0.07292202 0.93985008 0.21248128
v -0.11410746 0.93529246 0.19101267
v -0.07684139 0.96794545 0.23675689
v -0.08078983 0.96355719 0.23101742
v -0.11807229 0.96352712 0.21531517
v -0.11021866 0.93977543 0.19665574
v -0.12490894 0.96789538 0.21644610
v -0.07688985 0.96796169 0.23686435
v -0.11791299 0.96349642 0.21524681
v -0.12489616 0.96789766 0.21653669
v -0.11010827 0.93985657 0.19669490
v -0.07298692 0.93986021 0.21251453
v -0.11400503 0.93535630 0.19100954
v -0.08069303 0.96344331 0.23107314
v -0.06609626 0.93538371 0.21139991
v -0.07696532 0.96787129 0.23684592
v -0.12269426 0.97031689 0.21154343
v -0.12473012 0.96787552 0.21650428
v -0.07486073 0.97032242 0.23195717
v -0.07470299 0.97042390 0.23182822
v -0.07689722 0.96790625 0.23688084
v -0.12265449 0.97028260 0.21142825
v -0.12489767 0.96797714 0.21639349
v -0.12066899 0.97259062 0.20649610
v -0.07275315 0.97267648 0.22685130
v -0.07276703 0.97273220 0.22693635
v -0.12063471 0.97272929 0.20642014
v -0.11845602 0.97476400 0.20155349
v -0.07046342 0.97465575 0.22173237
v -0.07042793 0.97473109 0.22174956
v -0.11839812 0.97477101 0.20151316
v -0.11627916 0.97663042 0.19630746
v -0.06827698 0.97663569 0.21660683
v -0.06842209 0.97667668 0.21671701
v -0.11631178 0.97659963 0.19626725
v -0.11413245 0.97822929 0.19121584
v -0.06612155 0.97834775 0.21160543
v -0.06608333 0.97838134 0.21160893
v -0.11414533 0.97835096 0.19123105
v -0.11196144 0.97983300 0.18592159
v -0.06387090 0.97980119 0.20628004
v -0.06396672 0.97988313 0.20636795
v -0.11182217 0.97985837 0.18598300
v -0.10960246 0.98100516 0.18066021
v -0.06179095 0.98104352 0.20099474
v -0.06164462 0.98105898 0.20117339
v -0.10974082 0.98101005 0.18073337
v -0.10750831 0.98222576 0.17545870
v -0.05952323 0.98212360 0.19583533
v -0.05948629 0.98225917 0.19574474
v -0.10742426 0.98214783 0.17554965
v -0.10511477 0.98315340 0.17008572
v -0.05733042 0.98306266 0.19049510
v -0.05714611 0.98304956 0.19057922
v -0.10512892 0.98316272 0.17010098
v -0.10282726 0.98374953 0.16492414
v -0.05492943 0.98384687 0.18514124
v -0.05495540 0.98369554 0.18529044
v -0.10293396 0.98381140 0.16478156
v -0.10072727 0.98432410 0.15955618
v -0.05267167 0.98432112 0.17978204
v -0.05276625 0.98424693 0.17980840
v -0.10068669 0.98418551 0.15942388
v -0.09831229 0.98449545 0.15413085
v -0.05048849 0.98453130 0.17455367
v -0.05035948 0.98444850 0.17452696
v -0.09842569 0.98454564 0.15412685
v -0.05055151 0.98461531 0.17456726
v -0.09383274 0.98485546 0.14363070
v -0.09837908 0.98447599 0.15414968
v -0.04598576 0.98493934 0.16399580
v -0.04596197 0.98482925 0.16402358
v -0.05045924 0.98452814 0.17445169
v -0.09394739 0.98481980 0.14368043
v -0.09833195 0.98464313 0.15425273
v -0.08939295 0.98492752 0.13317242
v -0.04142892 0.98502159 0.15339728
v -0.04156900 0.98505702 0.15340826
v -0.08954138 0.98506231 0.13310014
v -0.08495001 0.98493487 0.12253628
v -0.03710421 0.98505342 0.14300749
v -0.03713874 0.98490824 0.14305035
v -0.08503113 0.98499516 0.12256344
v -0.08043642 0.98473342 0.11205915
v -0.03254036 0.98481433 0.13253117
v -0.03255788 0.98480248 0.13253504
v -0.08061163 0.98490694 0.11207762
v -0.07613920 0.98452904 0.10165717
v -0.02807120 0.98455506 0.12197240
v -0.02807552 0.98444665 0.12201249
v -0.07606698 0.98454331 0.10156663
v -0.07165294 0.98408875 0.09100649
v -0.02370745 0.98395858 0.11135029
v -0.02372537 0.98400340 0.11146741
v -0.07159567 0.98406709 0.09106998
v -0.06720052 0.98334640 0.08052278
v -0.01930489 0.98343498 0.10087953
v -0.01919150 0.98351982 0.10096985
v -0.06711540 0.98343948 0.08064669
v -0.06273783 0.98275273 0.07004930
v -0.01470514 0.98268739 0.09048186
v -0.01472274 0.98271140 0.09046076
v -0.06260692 0.98270734 0.07015592
v -0.05822076 0.98168518 0.05951505
v -0.01030926 0.98176489 0.07989015
v -0.01034791 0.98165731 0.07993011
v -0.05819847 0.98171618 0.05965505
v -0.05378545 0.98062601 0.04900842
v -0.00587809 0.98070765 0.06937706
v -0.00588092 0.98071772 0.06952384
v -0.05385837 0.98072224 0.04903756
v -0.04935963 0.97941846 0.03863427
v -0.00137644 0.97935502 0.05900426
v -0.00135952 0.97934090 0.05907197
v -0.04941345 0.97942879 0.03856981
v -0.04489481 0.97815218 0.02808604
v 0.00303008 0.97803545 0.04852430
v 0.00307007 0.97810967 0.04857481
v -0.04481181 0.97798953 0.02825166
v 0.00300689 0.97804225 0.04850806
v -0.04128618 0.97698811 0.01953901
v -0.04491746 0.97800154 0.02816824
v 0.00663004 0.97691000 0.03988684
v 0.00671258 0.97689499 0.03978427
v 0.00296802 0.97799382 0.04861593
v -0.04124150 0.97704165 0.01956338
v -0.04499605 0.97801892 0.02809018
v -0.03754098 0.97601939 0.01076024
v 0.01045557 0.97601769 0.03103980
v 0.01040717 0.97611111 0.03110377
v -0.03760930 0.97605785 0.01087580
v -0.03391364 0.97541884 0.00208327
v 0.01405671 0.97537821 0.02239092
v 0.01410624 0.97535746 0.02241149
v -0.03390102 0.97532338 0.00213886
v -0.03020043 0.97482415 -0.00664375
v 0.01772034 0.97488883 0.01375339
v 0.01771698 0.97487999 0.01378226
v -0.03009953 0.97487690 -0.00669343
v -0.02889549 0.97472193 -0.00935722
v 0.01900068 0.97476070 0.01088335
v 0.01894856 0.97470446 0.01088009
v -0.02889807 0.97470714 -0.00930983
v 0.01901346 0.97477783 0.01100856
v -0.02643876 0.97451192 -0.01533837
v -0.02903188 0.97468516 -0.00936962
v 0.02143047 0.97453618 0.00488316
v 0.02159512 0.97465226 0.00503769
v 0.01899607 0.97468892 0.01099235
v -0.02632512 0.97454775 -0.01536461
v -0.02898964 0.97479035 -0.00944849
v -0.02262582 0.97437784 -0.02408544
v 0.02527179 0.97447324 -0.00379692
v 0.02525103 0.97436743 -0.00384022
v -0.02271686 0.97452719 -0.02414240
v -0.01898345 0.97449723 -0.03290146
v 0.02889563 0.97449582 -0.01243277
v 0.02885502 0.97451620 -0.01252307
v -0.01895270 0.97459578 -0.03275714
v -0.01531244 0.97491154 -0.04151061
v 0.03261437 0.97490072 -0.02114312
v 0.03262674 0.97489862 -0.02130761
v -0.01529405 0.97478827 -0.04165115
v -0.01153801 0.97541017 -0.05023129
v 0.03641919 0.97533667 -0.02993694
v 0.03635382 0.97537766 -0.03003193
v -0.01167186 0.97526808 -0.05034340
v -0.00784703 0.97606733 -0.05896175
v 0.04012910 0.97603394 -0.03864332
v 0.04005166 0.97612816 -0.03857066
v -0.00788631 0.97612720 -0.05892011
v -0.00416379 0.97694872 -0.06760117
v 0.04380418 0.97693008 -0.04728589
v 0.04377212 0.97692498 -0.04740028
v -0.00424577 0.97702683 -0.06759664
v -0.00046131 0.97804733 -0.07635264
v 0.04735902 0.97806191 -0.05598341
v 0.04746821 0.97807134 -0.05599114
v -0.00051879 0.97799922 -0.07632157
v -0.06610719 0.93538355 0.21140286
v -0.07479001 0.97035578 0.23194653
v -0.07681523 0.96795596 0.23690029
v -0.07272626 0.97267279 0.22690332
v -0.07060010 0.97466173 0.22189490
v -0.06844470 0.97664467 0.21665946
v -0.06625630 0.97832319 0.21148782
v -0.06387814 0.97987693 0.20640795
v -0.06239891 0.93699974 0.20245792
v -0.06169589 0.98115432 0.20110635
v -0.05855459 0.93807388 0.19351882
v -0.05950350 0.98208836 0.19571002
v -0.05717494 0.98305372 0.19046023
v -0.05728043 0.93840544 0.19069047
v -0.05473992 0.93902593 0.18463024
v -0.05493476 0.98374164 0.18522895
v -0.05267120 0.98423590 0.17987519
v -0.05099538 0.93948835 0.17565692
v -0.05052079 0.98462350 0.17453136
v -0.04722849 0.93945764 0.16681185
v -0.04597237 0.98477574 0.16394772
v -0.04327975 0.93921314 0.15774315
v -0.04143288 0.98490837 0.15346948
v -0.03951220 0.93851514 0.14894868
v -0.03708437 0.98491924 0.14289817
v -0.03573402 0.93738656 0.13994899
v -0.03266235 0.98483663 0.13240226
v -0.03201808 0.93593711 0.13105583
v -0.02816774 0.98441765 0.12197524
v -0.02835118 0.93407090 0.12235445
v -0.02449998 0.93183624 0.11345413
v -0.02367320 0.98396248 0.11141927
v -0.02096238 0.92926916 0.10483288
v -0.01918686 0.98340570 0.10090870
v -0.01901269 0.92785088 0.10043280
v -0.01468820 0.98265619 0.09045368
v -0.01715536 0.92679388 0.09605400
v -0.01531255 0.92565801 0.09159681
v -0.01333494 0.92471295 0.08717702
v -0.01038200 0.98181360 0.07989853
v -0.01154275 0.92392229 0.08283427
v -0.00967768 0.92319706 0.07830833
v -0.00580764 0.98062254 0.06950215
v -0.00771922 0.92266376 0.07388413
v -0.00570096 0.92218016 0.06929676
v -0.00142753 0.97937896 0.05905341
v -0.00378150 0.92188780 0.06477508
v -0.00193150 0.92174302 0.06030515
v -0.00012269 0.92160069 0.05570782
v 0.00299890 0.97814459 0.04842115
v 0.00193973 0.92176785 0.05125739
v 0.01896317 0.95810129 0.01094618
v 0.00664972 0.97687225 0.03985807
v 0.01035528 0.97601060 0.03108522
v 0.01414357 0.97527670 0.02238571
v 0.01775133 0.97478454 0.01362468
v 0.01888644 0.97485610 0.01096529
v 0.05574247 0.95810129 -0.07575961
v 0.02155750 0.97448987 0.00488577
v 0.02514194 0.97450716 -0.00384828
v 0.02892809 0.97459772 -0.01241079
v 0.03265287 0.97487005 -0.02117741
v 0.03636453 0.97540493 -0.02997764
v 0.04006770 0.97609843 -0.03866872
v 0.04378568 0.97700929 -0.04737444
v 0.04738338 0.97798327 -0.05605415
v 0.05583311 0.97807580 -0.07587507
v 0.05570595 0.95994662 -0.07572200
v 0.05575194 0.96007776 -0.07575836
v 0.05588462 0.95816694 -0.07575369
v 0.05578729 0.97801488 -0.07587290
v 0.04733163 0.97809329 -0.05605076
v 0.04366205 0.97694233 -0.04738596
v 0.04012082 0.97601912 -0.03871151
v 0.03636292 0.97532845 -0.02997849
v 0.03269541 0.97491268 -0.02130027
v 0.02894619 0.97457155 -0.01255629
v 0.02525450 0.97438029 -0.00379178
v 0.02156365 0.97454250 0.00487611
v 0.01903066 0.97483020 0.01099168
v 0.01897687 0.95804469 0.01086525
v 0.01788464 0.97489604 0.01379614
v 0.01401343 0.97545570 0.02235950
v 0.01032407 0.97610467 0.03117466
v 0.00665428 0.97686837 0.03981872
v 0.00299041 0.97809235 0.04856499
v 0.00188590 0.92161910 0.05124347
v -0.00011617 0.92153005 0.05584642
v -0.00135978 0.97950410 0.05903767
v -0.00195118 0.92158657 0.06024278
v -0.00381710 0.92184346 0.06473604
v -0.00574359 0.92206318 0.06921409
v -0.00589372 0.98061261 0.06950340
v -0.00774975 0.92268755 0.07375931
v -0.00949912 0.92315391 0.07835022
v -0.01028937 0.98163428 0.07985852
v -0.01144252 0.92391316 0.08272986
v -0.01328948 0.92478559 0.08727505
v -0.01484347 0.98268045 0.09036392
v -0.01528719 0.92570748 0.09170966
v -0.01717575 0.92679341 0.09602234
v -0.01900978 0.92787716 0.10040686
v -0.01915928 0.98346949 0.10085190
v -0.02079772 0.92928832 0.10486893
v -0.02369990 0.98412973 0.11144745
v -0.02458892 0.93184957 0.11346881
v -0.02808359 0.98456746 0.12198529
v -0.02833261 0.93404518 0.12236025
v -0.03195716 0.93586974 0.13111930
v -0.03252475 0.98486376 0.13249412
v -0.03586803 0.93732256 0.13989125
v -0.03712653 0.98495876 0.14303309
v -0.03962793 0.93851153 0.14891656
v -0.04146998 0.98499190 0.15344574
v -0.04328022 0.93912562 0.15789812
v -0.04601547 0.98481433 0.16400379
v -0.04706554 0.93948348 0.16672187
v -0.05043365 0.98452392 0.17442377
v -0.05090126 0.93946195 0.17576927
v -0.05273212 0.98417758 0.17993271
v -0.05482820 0.93890063 0.18469750
v -0.05499121 0.98375059 0.18524790
v -0.05726845 0.98300688 0.19057650
v -0.05735515 0.93829379 0.19070740
v -0.05856934 0.93802020 0.19354173
v -0.05954767 0.98221720 0.19582478
v -0.06170987 0.98107942 0.20107080
v -0.06232853 0.93682444 0.20259099
v -0.06394306 0.97986044 0.20640416
v -0.06603476 0.93539620 0.21142320
v -0.06621575 0.97826592 0.21156658
v -0.06836418 0.97653634 0.21677029
v -0.07061548 0.97475505 0.22183667
v -0.07275465 0.97265709 0.22679380
v -0.07476043 0.97042252 0.23194860
v -0.07691949 0.96788583 0.23672224
vt -0.005416577 0.04429441
vt -0.02789272 0.01244865
vt -2.01668e-18 0.04206376
vt -0.01090057 0.04635374
vt -0.01644657 0.04823973
vt -0.02204909 0.04995052
vt -0.02770261 0.05148441
vt -0.03340153 0.0528399
vt -0.03759199 0.01389428
vt -0.03914024 0.05401563
vt -0.04733639 0.01499528
vt -0.04491305 0.05501046
vt -0.05071427 0.0558234
vt -0.05049376 0.01523908
vt -0.0571137 0.01575025
vt -0.05653818 0.05645364
vt -0.06237901 0.05690056
vt -0.06691162 0.01615825
vt -0.068231 0.05716373
vt -0.07671784 0.01621877
vt -0.07974801 0.05743141
vt -0.08652004 0.01593172
vt -0.09126741 0.05756114
vt -0.09630592 0.01529748
vt -0.1027875 0.05755291
vt -0.1060632 0.01431684
vt -0.1143067 0.05740672
vt -0.1157795 0.01299103
vt -0.1258233 0.05712258
vt -0.1254428 0.01132171
vt -0.1350409 0.009310983
vt -0.1373357 0.05670055
vt -0.1445616 0.006961376
vt -0.1488422 0.05614067
vt -0.1493487 0.005750321
vt -0.1603412 0.05544303
vt -0.1541632 0.004653438
vt -0.1590025 0.003671346
vt -0.1638637 0.002804602
vt -0.171831 0.05460773
vt -0.1687441 0.002053695
vt -0.1736411 0.001419049
vt -0.18331 0.05363489
vt -0.1785517 0.0009010247
vt -0.1834733 0.0004999137
vt -0.1947765 0.05252465
vt -0.188403 0.0002159433
vt -0.193338 0.00004927399
vt -0.1982757 2.192144e-18
vt -0.2062289 0.05127717
vt -0.2032131 0.00006814921
vt -0.2473577 0.03313842
vt -0.2157388 0.05027546
vt -0.225266 0.04945537
vt -0.2348072 0.04881722
vt -0.2443589 0.04836123
vt -0.2473577 0.04827537
vt -0.2539175 0.04808757
vt -0.3423837 0.03313842
vt -0.2634795 0.04799633
vt -0.2730416 0.04808757
vt -0.2826002 0.04836123
vt -0.2921518 0.04881722
vt -0.301693 0.04945537
vt -0.3112203 0.05027546
vt -0.3207302 0.05127717
vt -0.3423837 0.05127717
vt -0.3423837 0.03487297
vt -0.3207302 0.02624672
vt -0.3423837 -0.02624672
vt -0.3207302 -0.02624672
vt -0.3423837 0.02624672
vt 0.05127717 -0.02624672
vt 0.03487297 0.02624672
vt 0.03487297 -0.02624672
vt 0.05127717 0.02624672
vt 0.03313842 -0.02624672
vt 0.03313842 0.02624672
vt 0.3423837 0.02624672
vt 0.2473577 -0.02624672
vt 0.3423837 -0.02624672
vt 0.2473577 0.02624672
vt 0.2178367 0.02624672
vt 0.1626788 -0.02624672
vt 0.2178367 -0.02624672
vt 0.1626788 0.02624672
vt 0.2031947 0.02624672
vt 0.1982568 -0.02624672
vt 0.2031947 -0.02624672
vt 0.1982568 0.02624672
vt 0.1982658 0.02624672
vt 0.1933279 -0.02624672
vt 0.1982658 -0.02624672
vt 0.1933279 0.02624672
vt 0.1932262 0.02624672
vt 0.1882883 -0.02624672
vt 0.1932262 -0.02624672
vt 0.1882883 0.02624672
vt 0.1880787 0.02624672
vt 0.1831409 -0.02624672
vt 0.1880787 -0.02624672
vt 0.1831409 0.02624672
vt 0.1828263 0.02624672
vt 0.1778884 -0.02624672
vt 0.1828263 -0.02624672
vt 0.1778884 0.02624672
vt 0.1774719 0.02624672
vt 0.172534 -0.02624672
vt 0.1774719 -0.02624672
vt 0.172534 0.02624672
vt 0.1720185 0.02624672
vt 0.1670806 -0.02624672
vt 0.1720185 -0.02624672
vt 0.1670806 0.02624672
vt 0.1664693 0.02624672
vt 0.1615314 -0.02624672
vt 0.1664693 -0.02624672
vt 0.1615314 0.02624672
vt 0.1608273 0.02624672
vt 0.1558894 -0.02624672
vt 0.1608273 -0.02624672
vt 0.1558894 0.02624672
vt 0.1550957 0.02624672
vt 0.1501578 -0.02624672
vt 0.1550957 -0.02624672
vt 0.1501578 0.02624672
vt 0.1492779 0.02624672
vt 0.14434 -0.02624672
vt 0.1492779 -0.02624672
vt 0.14434 0.02624672
vt 0.143377 0.02624672
vt 0.1384391 -0.02624672
vt 0.143377 -0.02624672
vt 0.1384391 0.02624672
vt 0.1386829 0.02624672
vt 0.1288765 -0.02624672
vt 0.1386829 -0.02624672
vt 0.1288765 0.02624672
vt 0.1302626 0.02624672
vt 0.1204561 -0.02624672
vt 0.1302626 -0.02624672
vt 0.1204561 0.02624672
vt 0.1216847 0.02624672
vt 0.1118783 -0.02624672
vt 0.1216847 -0.02624672
vt 0.1118783 0.02624672
vt 0.1129601 0.02624672
vt 0.1031537 -0.02624672
vt 0.1129601 -0.02624672
vt 0.1031537 0.02624672
vt 0.1040998 0.02624672
vt 0.09429343 -0.02624672
vt 0.1040998 -0.02624672
vt 0.09429343 0.02624672
vt 0.0951149 0.02624672
vt 0.08530849 -0.02624672
vt 0.0951149 -0.02624672
vt 0.08530849 0.02624672
vt 0.08601664 0.02624672
vt 0.07621023 -0.02624672
vt 0.08601664 -0.02624672
vt 0.07621023 0.02624672
vt 0.07681647 0.02624672
vt 0.06701006 -0.02624672
vt 0.07681647 -0.02624672
vt 0.06701006 0.02624672
vt 0.06752595 0.02624672
vt 0.05771954 -0.02624672
vt 0.06752595 -0.02624672
vt 0.05771954 0.02624672
vt 0.05815676 0.02624672
vt 0.05151712 -0.02624672
vt 0.05815676 -0.02624672
vt 0.05151712 0.02624672
vt 0.04835035 -0.02624672
vt 0.04835035 0.02624672
vt 0.04872067 0.02624672
vt 0.03891426 -0.02624672
vt 0.04872067 -0.02624672
vt 0.03891426 0.02624672
vt 0.03922953 0.02624672
vt 0.02942312 -0.02624672
vt 0.03922953 -0.02624672
vt 0.02942312 0.02624672
vt 0.01006173 0.02624672
vt 0.004515893 0.02036971
vt 0.01006173 -0.02624672
vt -0.03062068 0.02624672
vt -0.02507484 0.02036971
vt -0.02507484 -0.02036971
vt 0.004515893 -0.02036971
vt -0.03062068 -0.02624672
vt -0.01601753 0.02624672
vt -0.02187543 -0.02624672
vt -0.01601753 -0.02624672
vt -0.02187543 0.02624672
vt -0.02064244 0.02624672
vt -0.02650034 -0.02624672
vt -0.02064244 -0.02624672
vt -0.02650034 0.02624672
vt -0.02524406 0.02624672
vt -0.03110197 -0.02624672
vt -0.02524406 -0.02624672
vt -0.03110197 0.02624672
vt -0.02981786 0.02624672
vt -0.03567577 -0.02624672
vt -0.02981786 -0.02624672
vt -0.03567577 0.02624672
vt -0.03435932 0.02624672
vt -0.04021723 -0.02624672
vt -0.03435932 -0.02624672
vt -0.04021723 0.02624672
vt -0.03886395 0.02624672
vt -0.04472186 -0.02624672
vt -0.03886395 -0.02624672
vt -0.04472186 0.02624672
vt -0.0433273 0.02624672
vt -0.04918521 -0.02624672
vt -0.0433273 -0.02624672
vt -0.04918521 0.02624672
vt -0.04774497 0.02624672
vt -0.05360288 -0.02624672
vt -0.04774497 -0.02624672
vt -0.05360288 0.02624672
vt -0.05211259 0.02624672
vt -0.05797049 -0.02624672
vt -0.05211259 -0.02624672
vt -0.05797049 0.02624672
vt -0.05642584 0.02624672
vt -0.06228375 -0.02624672
vt -0.05642584 -0.02624672
vt -0.06228375 0.02624672
vt -0.06068048 0.02624672
vt -0.06653838 -0.02624672
vt -0.06068048 -0.02624672
vt -0.06653838 0.02624672
vt -0.06487229 0.02624672
vt -0.07073019 -0.02624672
vt -0.06487229 -0.02624672
vt -0.07073019 0.02624672
vt -0.06954082 0.02624672
vt -0.08106094 -0.02624672
vt -0.06954082 -0.02624672
vt -0.08106094 0.02624672
vt -0.08038972 0.02624672
vt -0.09190984 -0.02624672
vt -0.08038972 -0.02624672
vt -0.09190984 0.02624672
vt -0.09122626 0.02624672
vt -0.1027464 -0.02624672
vt -0.09122626 -0.02624672
vt -0.1027464 0.02624672
vt -0.1020489 0.02624672
vt -0.113569 -0.02624672
vt -0.1020489 -0.02624672
vt -0.113569 0.02624672
vt -0.1128561 0.02624672
vt -0.1243762 -0.02624672
vt -0.1128561 -0.02624672
vt -0.1243762 0.02624672
vt -0.1236462 0.02624672
vt -0.1351663 -0.02624672
vt -0.1236462 -0.02624672
vt -0.1351663 0.02624672
vt -0.1344178 0.02624672
vt -0.1459379 -0.02624672
vt -0.1344178 -0.02624672
vt -0.1459379 0.02624672
vt -0.1451693 0.02624672
vt -0.1566894 -0.02624672
vt -0.1451693 -0.02624672
vt -0.1566894 0.02624672
vt -0.1558991 0.02624672
vt -0.1674192 -0.02624672
vt -0.1558991 -0.02624672
vt -0.1674192 0.02624672
vt -0.1666058 0.02624672
vt -0.1781259 -0.02624672
vt -0.1666058 -0.02624672
vt -0.1781259 0.02624672
vt -0.1772877 0.02624672
vt -0.1888078 -0.02624672
vt -0.1772877 -0.02624672
vt -0.1888078 0.02624672
vt -0.1879434 0.02624672
vt -0.1994635 -0.02624672
vt -0.1879434 -0.02624672
vt -0.1994635 0.02624672
vt -0.1997227 0.02624672
vt -0.2092852 -0.02624672
vt -0.1997227 -0.02624672
vt -0.2092852 0.02624672
vt -0.2106323 0.02624672
vt -0.2201948 -0.02624672
vt -0.2106323 -0.02624672
vt -0.2201948 0.02624672
vt -0.2214635 0.02624672
vt -0.231026 -0.02624672
vt -0.2214635 -0.02624672
vt -0.231026 0.02624672
vt -0.2322123 0.02624672
vt -0.2417748 -0.02624672
vt -0.2322123 -0.02624672
vt -0.2417748 0.02624672
vt -0.2428748 0.02624672
vt -0.2458748 -0.02624672
vt -0.2428748 -0.02624672
vt -0.2458748 0.02624672
vt -0.2524373 -0.02624672
vt -0.2524373 0.02624672
vt -0.2534471 0.02624672
vt -0.2630096 -0.02624672
vt -0.2534471 -0.02624672
vt -0.2630096 0.02624672
vt -0.2639254 0.02624672
vt -0.2734879 -0.02624672
vt -0.2639254 -0.02624672
vt -0.2734879 0.02624672
vt -0.2743059 0.02624672
vt -0.2838684 -0.02624672
vt -0.2743059 -0.02624672
vt -0.2838684 0.02624672
vt -0.2845848 0.02624672
vt -0.2941473 -0.02624672
vt -0.2845848 -0.02624672
vt -0.2941473 0.02624672
vt -0.2947583 0.02624672
vt -0.3043209 -0.02624672
vt -0.2947583 -0.02624672
vt -0.3043209 0.02624672
vt -0.3048228 0.02624672
vt -0.3143853 -0.02624672
vt -0.3048228 -0.02624672
vt -0.3143853 0.02624672
vt -0.3147746 0.02624672
vt -0.3243371 -0.02624672
vt -0.3147746 -0.02624672
vt -0.3243371 0.02624672
vt 0.02789272 0.01244865
vt 0.005416577 0.04429441
vt 0.01090057 0.04635374
vt 0.01644657 0.04823973
vt 0.02204909 0.04995052
vt 0.02770261 0.05148441
vt 0.03340153 0.0528399
vt 0.03759199 0.01389428
vt 0.03914024 0.05401563
vt 0.04733639 0.01499528
vt 0.04491305 0.05501046
vt 0.05071427 0.0558234
vt 0.05049376 0.01523908
vt 0.0571137 0.01575025
vt 0.05653818 0.05645364
vt 0.06237901 0.05690056
vt 0.06691162 0.01615825
vt 0.068231 0.05716373
vt 0.07671784 0.01621877
vt 0.07974801 0.05743141
vt 0.08652004 0.01593172
vt 0.09126741 0.05756114
vt 0.09630592 0.01529748
vt 0.1027875 0.05755291
vt 0.1060632 0.01431684
vt 0.1143067 0.05740672
vt 0.1157795 0.01299103
vt 0.1258233 0.05712258
vt 0.1254428 0.01132171
vt 0.1350409 0.009310983
vt 0.1373357 0.05670055
vt 0.1445616 0.006961376
vt 0.1488422 0.05614067
vt 0.1493487 0.005750321
vt 0.1603412 0.05544303
vt 0.1541632 0.004653438
vt 0.1590025 0.003671346
vt 0.1638637 0.002804602
vt 0.171831 0.05460773
vt 0.1687441 0.002053695
vt 0.1736411 0.001419049
vt 0.18331 0.05363489
vt 0.1785517 0.0009010247
vt 0.1834733 0.0004999137
vt 0.1947765 0.05252465
vt 0.188403 0.0002159433
vt 0.193338 0.00004927399
vt 0.1982757 -2.192144e-18
vt 0.2062289 0.05127717
vt 0.2032131 0.00006814921
vt 0.2473577 0.03313842
vt 0.2157388 0.05027546
vt 0.225266 0.04945537
vt 0.2348072 0.04881722
vt 0.2443589 0.04836123
vt 0.2473577 0.04827537
vt 0.3423837 0.03313842
vt 0.2539175 0.04808757
vt 0.2634795 0.04799633
vt 0.2730416 0.04808757
vt 0.2826002 0.04836123
vt 0.2921518 0.04881722
vt 0.301693 0.04945537
vt 0.3112203 0.05027546
vt 0.3207302 0.05127717
vt 0.3423837 0.05127717
vt 0.3423837 0.03487297
vn -0.9205048527130912 0 -0.390731130231071
vn 0.9205048527130912 0 0.390731130231071
vn 0 1 0
vn 0 -1 0
vn 0.39073113023107103 0 -0.9205048527130912
vn -0.39073113023107103 0 0.9205048527130912
vn 0.249821825878516 -0.7688990807992098 -0.5885433364339917
vn -0.249821825878516 0.7688990807992098 0.5885433364339917
vn 0.005985655069588597 -0.9998826554748411 -0.014101319582508962
vn 0.0008289967618785358 -0.9999977492869234 -0.001952993972457713
vn -0.0008289967618785358 0.9999977492869234 0.001952993972457713
vn -0.005985655069588597 0.9998826554748411 0.014101319582508962
vn -0.009483673972710984 -0.9997054010570693 0.022342135647769965
vn 0.009483673972710984 0.9997054010570693 -0.022342135647769965
vn -0.0197872555238811 -0.9987168902222012 0.04661585249384828
vn 0.0197872555238811 0.9987168902222012 -0.04661585249384828
vn -0.030071890170032044 -0.9970339396717441 0.07084493322914698
vn 0.030071890170032044 0.9970339396717441 -0.07084493322914698
vn -0.04032778521481892 -0.9946594750142195 0.09500630770693554
vn 0.04032778521481892 0.9946594750142195 -0.09500630770693554
vn -0.05054525647456287 -0.9915976032020266 0.11907716142030302
vn 0.05054525647456287 0.9915976032020266 -0.11907716142030302
vn -0.06071473524025059 -0.9878535941416828 0.14303495190360113
vn 0.06071473524025059 0.9878535941416828 -0.14303495190360113
vn -0.0708268084230152 -0.9834338497316464 0.16685750330926988
vn 0.0708268084230152 0.9834338497316464 -0.16685750330926988
vn -0.08087234006140415 -0.9783458179839047 0.1905232926610204
vn 0.08087234006140415 0.9783458179839047 -0.1905232926610204
vn -0.09084223887236571 -0.9725980780156896 0.21401090223827954
vn 0.09084223887236571 0.9725980780156896 -0.21401090223827954
vn -0.10072783641030837 -0.9662001115019098 0.23729991046309998
vn 0.10072783641030837 0.9662001115019098 -0.23729991046309998
vn -0.10563633602927573 -0.9627605453636257 0.2488636108422527
vn 0.10563633602927573 0.9627605453636257 -0.2488636108422527
vn -0.10323143051172733 -0.9644677290645417 0.2431980085189604
vn -0.09588952605402828 -0.969419249572611 0.22590156562363456
vn 0.09588952605402828 0.969419249572611 -0.22590156562363456
vn 0.10323143051172733 0.9644677290645417 -0.2431980085189604
vn -0.08106145983220525 -0.9782432955802098 0.19096883091814223
vn 0.08106145983220525 0.9782432955802098 -0.19096883091814223
vn -0.06606518435223896 -0.9856021701658693 0.15563982003598448
vn 0.06606518435223896 0.9856021701658693 -0.15563982003598448
vn -0.050930586264027945 -0.9914684509318719 0.11998494151166085
vn 0.050930586264027945 0.9914684509318719 -0.11998494151166085
vn -0.03568857663757405 -0.9958199539404091 0.08407701726218224
vn 0.03568857663757405 0.9958199539404091 -0.08407701726218224
vn -0.020370954696160556 -0.9986400211352777 0.04799096156255778
vn 0.020370954696160556 0.9986400211352777 -0.04799096156255778
vn -0.005010010735780555 -0.9999177929352896 0.011802845582595761
vn 0.005010010735780555 0.9999177929352896 -0.011802845582595761
vn 0.010361602597734788 -0.9996483228001255 -0.024410405865176774
vn -0.010361602597734788 0.9996483228001255 0.024410405865176774
vn 0.025711152026548948 -0.9978326555512117 -0.06057167801113318
vn -0.025711152026548948 0.9978326555512117 0.06057167801113318
vn 0.033367466583805065 -0.996346960077811 -0.07860882467944262
vn -0.033367466583805065 0.996346960077811 0.07860882467944262
vn 0.04862297925591303 -0.9922270069217128 -0.11454856011080379
vn -0.04862297925591303 0.9922270069217128 0.11454856011080379
vn 0.06377590401807991 -0.9865893721181538 -0.15024661357309688
vn -0.06377590401807991 0.9865893721181538 0.15024661357309688
vn -0.2979330989022842 -0.6469863684838769 0.7018863922135312
vn 0.2979330989022842 0.6469863684838769 -0.7018863922135312
vn -0.1624428271057397 0.9094831962003147 0.38269131653482136
vn -0.15641585632061608 0.9163772351164281 0.3684926632266361
vn 0.15641585632061608 -0.9163772351164281 -0.3684926632266361
vn 0.1624428271057397 -0.9094831962003147 -0.38269131653482136
vn -0.1441857001996582 0.9294233864175996 0.3396802211462656
vn 0.1441857001996582 -0.9294233864175996 -0.3396802211462656
vn -0.1317334121660691 0.9414523984953006 0.3103444690767511
vn 0.1317334121660691 -0.9414523984953006 -0.3103444690767511
vn -0.11907528342472429 0.952432402838972 0.2805237866914385
vn 0.11907528342472429 -0.952432402838972 -0.2805237866914385
vn -0.10622867330559571 0.962333552800751 0.25025907000869646
vn 0.10622867330559571 -0.962333552800751 -0.25025907000869646
vn -0.09321200525265833 0.9711282713217008 0.21959372194237156
vn 0.09321200525265833 -0.9711282713217008 -0.21959372194237156
vn -0.08004447477891641 0.9787916628156371 0.1885729642869502
vn 0.08004447477891641 -0.9787916628156371 -0.1885729642869502
vn -0.06674624099119228 0.9853015644537768 0.15724428892168274
vn 0.06674624099119228 -0.9853015644537768 -0.15724428892168274
vn -0.05333822742572324 0.9906388619011904 0.12565698860865598
vn 0.05333822742572324 -0.9906388619011904 -0.12565698860865598
vn -0.039841825298564275 0.9947877440332621 0.09386145789455577
vn 0.039841825298564275 -0.9947877440332621 -0.09386145789455577
vn -0.026279133065513386 0.9977357310902925 0.061909757478480966
vn 0.026279133065513386 -0.9977357310902925 -0.061909757478480966
vn -0.01947991591985857 0.9987564643292361 0.045891805764410924
vn 0.01947991591985857 -0.9987564643292361 -0.045891805764410924
vn -0.010076977731369525 0.9996673811880048 0.023739871703905572
vn -0.007480789167116404 0.9998167058471827 0.017623634764862738
vn 0.007480789167116404 -0.9998167058471827 -0.017623634764862738
vn 0.010076977731369525 -0.9996673811880048 -0.023739871703905572
vn -0.0022872017236431597 0.9999828672673968 0.005388309563413678
vn 0.0022872017236431597 -0.9999828672673968 -0.005388309563413678
vn 0.002906940562649241 0.9999723247029694 -0.006848322765796677
vn -0.002906940562649241 -0.9999723247029694 0.006848322765796677
vn 0.008100375694995414 0.9997850828998296 -0.019083289144718574
vn -0.008100375694995414 -0.9997850828998296 0.019083289144718574
vn 0.013291840231006938 0.999421224818918 -0.03131361308962784
vn -0.013291840231006938 -0.999421224818918 0.03131361308962784
vn 0.018480076928373786 0.9988809110648426 -0.043536332723269525
vn -0.018480076928373786 -0.9988809110648426 0.043536332723269525
vn 0.02366381894103903 0.9981643814951916 -0.055748463543379034
vn -0.02366381894103903 -0.9981643814951916 0.055748463543379034
vn 0.028841818030829487 0.9972719518296772 -0.06794706488511841
vn -0.028841818030829487 -0.9972719518296772 0.06794706488511841
vn 0.03401282139552725 0.9962040160724291 -0.08012918533143422
vn -0.03401282139552725 -0.9962040160724291 0.08012918533143422
vn 0.03917559409832971 0.99496104202652 -0.09229191555355369
vn -0.03917559409832971 -0.99496104202652 0.09229191555355369
vn 0.044328903940578264 0.9935435732722206 -0.10443235267336709
vn -0.044328903940578264 -0.9935435732722206 0.10443235267336709
vn 0.0469015839606849 0.9927696070283083 -0.11049320695335671
vn -0.0469015839606849 -0.9927696070283083 0.11049320695335671
vn 0.045375618105952205 0.993234018746495 -0.10689825670323141
vn 0.04127277152342786 0.9944055452373877 -0.09723255592603071
vn -0.04127277152342786 -0.9944055452373877 0.09723255592603071
vn -0.045375618105952205 -0.993234018746495 0.10689825670323141
vn 0.033048744603466254 0.9964165384598189 -0.07785796275197043
vn -0.033048744603466254 -0.9964165384598189 0.07785796275197043
vn 0.024804397524287494 0.9979829830231951 -0.05843549828299637
vn -0.024804397524287494 -0.9979829830231951 0.05843549828299637
vn 0.016544771347229276 0.999103128315412 -0.038977038515324726
vn -0.016544771347229276 -0.999103128315412 0.038977038515324726
vn 0.012410812718830714 0.9994954270065984 -0.029238042351631216
vn -0.012410812718830714 -0.9994954270065984 0.029238042351631216
vn 0.008274940268072963 0.9997757190345367 -0.01949453750502876
vn -0.008274940268072963 -0.9997757190345367 0.01949453750502876
vn -0.00827494026807237 0.9997757190345367 0.019494537505028595
vn 0.00827494026807237 -0.9997757190345367 -0.019494537505028595
vn -0.016544771347228687 0.999103128315412 0.03897703851532457
vn 0.016544771347228687 -0.999103128315412 -0.03897703851532457
vn -0.0248043975242869 0.9979829830231951 0.05843549828299621
vn 0.0248043975242869 -0.9979829830231951 -0.05843549828299621
vn -0.03304874460346566 0.9964165384598189 0.07785796275197027
vn 0.03304874460346566 -0.9964165384598189 -0.07785796275197027
vn -0.04127277152342728 0.9944055452373877 0.09723255592603053
vn 0.04127277152342728 -0.9944055452373877 -0.09723255592603053
vn -0.04537561810595162 0.993234018746495 0.10689825670323123
vn 0.04537561810595162 -0.993234018746495 -0.10689825670323123
usemtl material_0_0
f 1/1/1 2/2/1 3/3/1
f 2/2/1 1/1/1 4/4/1
f 2/2/1 4/4/1 5/5/1
f 2/2/1 5/5/1 6/6/1
f 2/2/1 6/6/1 7/7/1
f 2/2/1 7/7/1 8/8/1
f 2/2/1 8/8/1 9/9/1
f 9/9/1 8/8/1 10/10/1
f 9/9/1 10/10/1 11/11/1
f 11/11/1 10/10/1 12/12/1
f 11/11/1 12/12/1 13/13/1
f 11/11/1 13/13/1 14/14/1
f 14/14/1 13/13/1 15/15/1
f 15/15/1 13/13/1 16/16/1
f 15/15/1 16/16/1 17/17/1
f 15/15/1 17/17/1 18/18/1
f 18/18/1 17/17/1 19/19/1
f 18/18/1 19/19/1 20/20/1
f 20/20/1 19/19/1 21/21/1
f 20/20/1 21/21/1 22/22/1
f 22/22/1 21/21/1 23/23/1
f 22/22/1 23/23/1 24/24/1
f 24/24/1 23/23/1 25/25/1
f 24/24/1 25/25/1 26/26/1
f 26/26/1 25/25/1 27/27/1
f 26/26/1 27/27/1 28/28/1
f 28/28/1 27/27/1 29/29/1
f 28/28/1 29/29/1 30/30/1
f 30/30/1 29/29/1 31/31/1
f 31/31/1 29/29/1 32/32/1
f 31/31/1 32/32/1 33/33/1
f 33/33/1 32/32/1 34/34/1
f 33/33/1 34/34/1 35/35/1
f 35/35/1 34/34/1 36/36/1
f 35/35/1 36/36/1 37/37/1
f 37/37/1 36/36/1 38/38/1
f 38/38/1 36/36/1 39/39/1
f 39/39/1 36/36/1 40/40/1
f 39/39/1 40/40/1 41/41/1
f 41/41/1 40/40/1 42/42/1
f 42/42/1 40/40/1 43/43/1
f 42/42/1 43/43/1 44/44/1
f 44/44/1 43/43/1 45/45/1
f 45/45/1 43/43/1 46/46/1
f 45/45/1 46/46/1 47/47/1
f 47/47/1 46/46/1 48/48/1
f 48/48/1 46/46/1 49/49/1
f 49/49/1 46/46/1 50/50/1
f 49/49/1 50/50/1 51/51/1
f 51/51/1 50/50/1 52/52/1
f 52/52/1 50/50/1 53/53/1
f 52/52/1 53/53/1 54/54/1
f 52/52/1 54/54/1 55/55/1
f 52/52/1 55/55/1 56/56/1
f 52/52/1 56/56/1 57/57/1
f 52/52/1 57/57/1 58/58/1
f 52/52/1 58/58/1 59/59/1
f 59/59/1 58/58/1 60/60/1
f 59/59/1 60/60/1 61/61/1
f 59/59/1 61/61/1 62/62/1
f 59/59/1 62/62/1 63/63/1
f 59/59/1 63/63/1 64/64/1
f 59/59/1 64/64/1 65/65/1
f 59/59/1 65/65/1 66/66/1
f 59/59/1 66/66/1 67/67/1
f 59/59/1 67/67/1 68/68/1
f 69/68/2 70/67/2 71/59/2
f 70/67/2 72/66/2 71/59/2
f 72/66/2 73/65/2 71/59/2
f 73/65/2 74/64/2 71/59/2
f 74/64/2 75/63/2 71/59/2
f 75/63/2 76/62/2 71/59/2
f 76/62/2 77/61/2 71/59/2
f 77/61/2 78/60/2 71/59/2
f 78/60/2 79/58/2 71/59/2
f 71/59/2 79/58/2 80/52/2
f 79/58/2 81/57/2 80/52/2
f 81/57/2 82/56/2 80/52/2
f 82/56/2 83/55/2 80/52/2
f 83/55/2 84/54/2 80/52/2
f 84/54/2 85/53/2 80/52/2
f 85/53/2 86/50/2 80/52/2
f 80/52/2 86/50/2 87/51/2
f 87/51/2 86/50/2 88/49/2
f 86/50/2 89/46/2 88/49/2
f 88/49/2 89/46/2 90/48/2
f 90/48/2 89/46/2 91/47/2
f 91/47/2 89/46/2 92/45/2
f 89/46/2 93/43/2 92/45/2
f 92/45/2 93/43/2 94/44/2
f 94/44/2 93/43/2 95/42/2
f 93/43/2 96/40/2 95/42/2
f 95/42/2 96/40/2 97/41/2
f 97/41/2 96/40/2 98/39/2
f 96/40/2 99/36/2 98/39/2
f 98/39/2 99/36/2 100/38/2
f 100/38/2 99/36/2 101/37/2
f 101/37/2 99/36/2 102/35/2
f 99/36/2 103/34/2 102/35/2
f 102/35/2 103/34/2 104/33/2
f 103/34/2 105/32/2 104/33/2
f 104/33/2 105/32/2 106/31/2
f 105/32/2 107/29/2 106/31/2
f 106/31/2 107/29/2 108/30/2
f 108/30/2 107/29/2 109/28/2
f 107/29/2 110/27/2 109/28/2
f 109/28/2 110/27/2 111/26/2
f 110/27/2 112/25/2 111/26/2
f 111/26/2 112/25/2 113/24/2
f 112/25/2 114/23/2 113/24/2
f 113/24/2 114/23/2 115/22/2
f 114/23/2 116/21/2 115/22/2
f 115/22/2 116/21/2 117/20/2
f 116/21/2 118/19/2 117/20/2
f 117/20/2 118/19/2 119/18/2
f 118/19/2 120/17/2 119/18/2
f 119/18/2 120/17/2 121/15/2
f 120/17/2 122/16/2 121/15/2
f 122/16/2 123/13/2 121/15/2
f 121/15/2 123/13/2 124/14/2
f 124/14/2 123/13/2 125/11/2
f 123/13/2 126/12/2 125/11/2
f 126/12/2 127/10/2 125/11/2
f 125/11/2 127/10/2 128/9/2
f 127/10/2 129/8/2 128/9/2
f 128/9/2 129/8/2 130/2/2
f 129/8/2 131/7/2 130/2/2
f 131/7/2 132/6/2 130/2/2
f 132/6/2 133/5/2 130/2/2
f 133/5/2 134/4/2 130/2/2
f 134/4/2 135/1/2 130/2/2
f 136/3/2 130/2/2 135/1/2
f 137/69/3 138/70/3 139/71/3
f 138/70/3 137/69/3 140/72/3
f 141/72/4 142/69/4 143/70/4
f 144/71/4 143/70/4 142/69/4
f 145/73/5 146/74/5 147/75/5
f 146/74/5 145/73/5 148/76/5
f 149/76/6 150/73/6 151/74/6
f 152/75/6 151/74/6 150/73/6
f 153/77/5 146/74/5 154/78/5
f 146/74/5 153/77/5 147/75/5
f 152/75/6 155/77/6 151/74/6
f 156/78/6 151/74/6 155/77/6
f 157/79/4 158/80/4 159/81/4
f 158/80/4 157/79/4 160/82/4
f 161/82/3 162/79/3 163/80/3
f 164/81/3 163/80/3 162/79/3
f 165/83/7 166/84/7 167/85/7
f 166/84/7 165/83/7 168/86/7
f 169/86/8 170/83/8 171/84/8
f 172/85/8 171/84/8 170/83/8
f 173/87/9 174/88/10 175/89/9
f 174/88/10 173/87/9 176/90/10
f 177/90/11 178/87/12 179/88/11
f 180/89/12 179/88/11 178/87/12
f 176/91/10 181/92/13 174/93/10
f 181/92/13 176/91/10 182/94/13
f 183/94/14 177/91/11 184/92/14
f 179/93/11 184/92/14 177/91/11
f 182/95/13 185/96/15 181/97/13
f 185/96/15 182/95/13 186/98/15
f 187/98/16 183/95/14 188/96/16
f 184/97/14 188/96/16 183/95/14
f 186/99/15 189/100/17 185/101/15
f 189/100/17 186/99/15 190/102/17
f 191/102/18 187/99/16 192/100/18
f 188/101/16 192/100/18 187/99/16
f 190/103/17 193/104/19 189/105/17
f 193/104/19 190/103/17 194/106/19
f 195/106/20 191/103/18 196/104/20
f 192/105/18 196/104/20 191/103/18
f 194/107/19 197/108/21 193/109/19
f 197/108/21 194/107/19 198/110/21
f 199/110/22 195/107/20 200/108/22
f 196/109/20 200/108/22 195/107/20
f 198/111/21 201/112/23 197/113/21
f 201/112/23 198/111/21 202/114/23
f 203/114/24 199/111/22 204/112/24
f 200/113/22 204/112/24 199/111/22
f 202/115/23 205/116/25 201/117/23
f 205/116/25 202/115/23 206/118/25
f 207/118/26 203/115/24 208/116/26
f 204/117/24 208/116/26 203/115/24
f 206/119/25 209/120/27 205/121/25
f 209/120/27 206/119/25 210/122/27
f 211/122/28 207/119/26 212/120/28
f 208/121/26 212/120/28 207/119/26
f 210/123/27 213/124/29 209/125/27
f 213/124/29 210/123/27 214/126/29
f 215/126/30 211/123/28 216/124/30
f 212/125/28 216/124/30 211/123/28
f 214/127/29 217/128/31 213/129/29
f 217/128/31 214/127/29 218/130/31
f 219/130/32 215/127/30 220/128/32
f 216/129/30 220/128/32 215/127/30
f 218/131/31 221/132/33 217/133/31
f 221/132/33 218/131/31 222/134/33
f 223/134/34 219/131/32 224/132/34
f 220/133/32 224/132/34 219/131/32
f 225/135/35 226/136/36 227/137/35
f 226/136/36 225/135/35 228/138/36
f 229/138/37 230/135/38 231/136/37
f 232/137/38 231/136/37 230/135/38
f 228/139/36 233/140/39 226/141/36
f 233/140/39 228/139/36 234/142/39
f 235/142/40 229/139/37 236/140/40
f 231/141/37 236/140/40 229/139/37
f 234/143/39 237/144/41 233/145/39
f 237/144/41 234/143/39 238/146/41
f 239/146/42 235/143/40 240/144/42
f 236/145/40 240/144/42 235/143/40
f 238/147/41 241/148/43 237/149/41
f 241/148/43 238/147/41 242/150/43
f 243/150/44 239/147/42 244/148/44
f 240/149/42 244/148/44 239/147/42
f 242/151/43 245/152/45 241/153/43
f 245/152/45 242/151/43 246/154/45
f 247/154/46 243/151/44 248/152/46
f 244/153/44 248/152/46 243/151/44
f 246/155/45 249/156/47 245/157/45
f 249/156/47 246/155/45 250/158/47
f 251/158/48 247/155/46 252/156/48
f 248/157/46 252/156/48 247/155/46
f 250/159/47 253/160/49 249/161/47
f 253/160/49 250/159/47 254/162/49
f 255/162/50 251/159/48 256/160/50
f 252/161/48 256/160/50 251/159/48
f 254/163/49 257/164/51 253/165/49
f 257/164/51 254/163/49 258/166/51
f 259/166/52 255/163/50 260/164/52
f 256/165/50 260/164/52 255/163/50
f 258/167/51 261/168/53 257/169/51
f 261/168/53 258/167/51 262/170/53
f 263/170/54 259/167/52 264/168/54
f 260/169/52 264/168/54 259/167/52
f 262/171/53 265/172/55 261/173/53
f 265/172/55 262/171/53 266/174/55
f 267/174/56 263/171/54 268/172/56
f 264/173/54 268/172/56 263/171/54
f 269/174/55 270/175/55 271/172/55
f 270/175/55 269/174/55 272/176/55
f 273/176/56 274/174/56 275/175/56
f 276/172/56 275/175/56 274/174/56
f 277/177/57 278/178/57 279/179/57
f 278/178/57 277/177/57 280/180/57
f 281/180/58 282/177/58 283/178/58
f 284/179/58 283/178/58 282/177/58
f 285/181/59 286/182/59 287/183/59
f 286/182/59 285/181/59 288/184/59
f 289/184/60 290/181/60 291/182/60
f 292/183/60 291/182/60 290/181/60
f 293/185/61 294/186/61 295/187/61
f 294/186/61 293/185/61 296/188/61
f 294/186/61 296/188/61 297/189/61
f 297/189/61 296/188/61 298/190/61
f 295/187/61 299/191/61 300/192/61
f 299/191/61 295/187/61 294/186/61
f 300/192/61 299/191/61 298/190/61
f 300/192/61 298/190/61 296/188/61
f 301/188/62 302/190/62 303/192/62
f 302/190/62 304/191/62 303/192/62
f 305/186/62 306/187/62 304/191/62
f 303/192/62 304/191/62 306/187/62
f 302/190/62 301/188/62 307/189/62
f 307/189/62 301/188/62 305/186/62
f 301/188/62 308/185/62 305/186/62
f 306/187/62 305/186/62 308/185/62
f 309/193/63 310/194/64 311/195/63
f 310/194/64 309/193/63 312/196/64
f 313/196/65 314/193/66 315/194/65
f 316/195/66 315/194/65 314/193/66
f 312/197/64 317/198/67 310/199/64
f 317/198/67 312/197/64 318/200/67
f 319/200/68 313/197/65 320/198/68
f 315/199/65 320/198/68 313/197/65
f 318/201/67 321/202/69 317/203/67
f 321/202/69 318/201/67 322/204/69
f 323/204/70 319/201/68 324/202/70
f 320/203/68 324/202/70 319/201/68
f 322/205/69 325/206/71 321/207/69
f 325/206/71 322/205/69 326/208/71
f 327/208/72 323/205/70 328/206/72
f 324/207/70 328/206/72 323/205/70
f 326/209/71 329/210/73 325/211/71
f 329/210/73 326/209/71 330/212/73
f 331/212/74 327/209/72 332/210/74
f 328/211/72 332/210/74 327/209/72
f 330/213/73 333/214/75 329/215/73
f 333/214/75 330/213/73 334/216/75
f 335/216/76 331/213/74 336/214/76
f 332/215/74 336/214/76 331/213/74
f 334/217/75 337/218/77 333/219/75
f 337/218/77 334/217/75 338/220/77
f 339/220/78 335/217/76 340/218/78
f 336/219/76 340/218/78 335/217/76
f 338/221/77 341/222/79 337/223/77
f 341/222/79 338/221/77 342/224/79
f 343/224/80 339/221/78 344/222/80
f 340/223/78 344/222/80 339/221/78
f 342/225/79 345/226/81 341/227/79
f 345/226/81 342/225/79 346/228/81
f 347/228/82 343/225/80 348/226/82
f 344/227/80 348/226/82 343/225/80
f 346/229/81 349/230/83 345/231/81
f 349/230/83 346/229/81 350/232/83
f 351/232/84 347/229/82 352/230/84
f 348/231/82 352/230/84 347/229/82
f 350/233/83 353/234/85 349/235/83
f 353/234/85 350/233/83 354/236/85
f 355/236/86 351/233/84 356/234/86
f 352/235/84 356/234/86 351/233/84
f 354/237/85 357/238/87 353/239/85
f 357/238/87 354/237/85 358/240/87
f 359/240/88 355/237/86 360/238/88
f 356/239/86 360/238/88 355/237/86
f 361/241/89 362/242/90 363/243/89
f 362/242/90 361/241/89 364/244/90
f 365/244/91 366/241/92 367/242/91
f 368/243/92 367/242/91 366/241/92
f 364/245/90 369/246/93 362/247/90
f 369/246/93 364/245/90 370/248/93
f 371/248/94 365/245/91 372/246/94
f 367/247/91 372/246/94 365/245/91
f 370/249/93 373/250/95 369/251/93
f 373/250/95 370/249/93 374/252/95
f 375/252/96 371/249/94 376/250/96
f 372/251/94 376/250/96 371/249/94
f 374/253/95 377/254/97 373/255/95
f 377/254/97 374/253/95 378/256/97
f 379/256/98 375/253/96 380/254/98
f 376/255/96 380/254/98 375/253/96
f 378/257/97 381/258/99 377/259/97
f 381/258/99 378/257/97 382/260/99
f 383/260/100 379/257/98 384/258/100
f 380/259/98 384/258/100 379/257/98
f 382/261/99 385/262/101 381/263/99
f 385/262/101 382/261/99 386/264/101
f 387/264/102 383/261/100 388/262/102
f 384/263/100 388/262/102 383/261/100
f 386/265/101 389/266/103 385/267/101
f 389/266/103 386/265/101 390/268/103
f 391/268/104 387/265/102 392/266/104
f 388/267/102 392/266/104 387/265/102
f 390/269/103 393/270/105 389/271/103
f 393/270/105 390/269/103 394/272/105
f 395/272/106 391/269/104 396/270/106
f 392/271/104 396/270/106 391/269/104
f 394/273/105 397/274/107 393/275/105
f 397/274/107 394/273/105 398/276/107
f 399/276/108 395/273/106 400/274/108
f 396/275/106 400/274/108 395/273/106
f 398/277/107 401/278/109 397/279/107
f 401/278/109 398/277/107 402/280/109
f 403/280/110 399/277/108 404/278/110
f 400/279/108 404/278/110 399/277/108
f 402/281/109 405/282/111 401/283/109
f 405/282/111 402/281/109 406/284/111
f 407/284/112 403/281/110 408/282/112
f 404/283/110 408/282/112 403/281/110
f 406/285/111 409/286/113 405/287/111
f 409/286/113 406/285/111 410/288/113
f 411/288/114 407/285/112 412/286/114
f 408/287/112 412/286/114 407/285/112
f 413/289/115 414/290/116 415/291/115
f 414/290/116 413/289/115 416/292/116
f 417/292/117 418/289/118 419/290/117
f 420/291/118 419/290/117 418/289/118
f 416/293/116 421/294/119 414/295/116
f 421/294/119 416/293/116 422/296/119
f 423/296/120 417/293/117 424/294/120
f 419/295/117 424/294/120 417/293/117
f 422/297/119 425/298/121 421/299/119
f 425/298/121 422/297/119 426/300/121
f 427/300/122 423/297/120 428/298/122
f 424/299/120 428/298/122 423/297/120
f 426/301/121 429/302/123 425/303/121
f 429/302/123 426/301/121 430/304/123
f 431/304/124 427/301/122 432/302/124
f 428/303/122 432/302/124 427/301/122
f 430/305/123 433/306/125 429/307/123
f 433/306/125 430/305/123 434/308/125
f 435/308/126 431/305/124 436/306/126
f 432/307/124 436/306/126 431/305/124
f 437/308/125 438/309/127 439/306/125
f 438/309/127 437/308/125 440/310/127
f 441/310/128 442/308/126 443/309/128
f 444/306/126 443/309/128 442/308/126
f 440/311/127 445/312/3 438/313/127
f 445/312/3 440/311/127 446/314/3
f 447/314/4 441/311/128 448/312/4
f 443/313/128 448/312/4 441/311/128
f 446/315/3 449/316/129 445/317/3
f 449/316/129 446/315/3 450/318/129
f 451/318/130 447/315/4 452/316/130
f 448/317/4 452/316/130 447/315/4
f 450/319/129 453/320/131 449/321/129
f 453/320/131 450/319/129 454/322/131
f 455/322/132 451/319/130 456/320/132
f 452/321/130 456/320/132 451/319/130
f 454/323/131 457/324/133 453/325/131
f 457/324/133 454/323/131 458/326/133
f 459/326/134 455/323/132 460/324/134
f 456/325/132 460/324/134 455/323/132
f 458/327/133 461/328/135 457/329/133
f 461/328/135 458/327/133 462/330/135
f 463/330/136 459/327/134 464/328/136
f 460/329/134 464/328/136 459/327/134
f 462/331/135 465/332/137 461/333/135
f 465/332/137 462/331/135 466/334/137
f 467/334/138 463/331/136 468/332/138
f 464/333/136 468/332/138 463/331/136
f 466/335/137 469/336/139 465/337/137
f 469/336/139 466/335/137 470/338/139
f 471/338/140 467/335/138 472/336/140
f 468/337/138 472/336/140 467/335/138
f 473/339/2 474/340/2 475/3/2
f 474/340/2 473/339/2 476/341/2
f 476/341/2 473/339/2 477/342/2
f 477/342/2 473/339/2 478/343/2
f 478/343/2 473/339/2 479/344/2
f 479/344/2 473/339/2 480/345/2
f 480/345/2 473/339/2 481/346/2
f 480/345/2 481/346/2 482/347/2
f 482/347/2 481/346/2 483/348/2
f 482/347/2 483/348/2 484/349/2
f 484/349/2 483/348/2 485/350/2
f 485/350/2 483/348/2 486/351/2
f 485/350/2 486/351/2 487/352/2
f 485/350/2 487/352/2 488/353/2
f 488/353/2 487/352/2 489/354/2
f 489/354/2 487/352/2 490/355/2
f 489/354/2 490/355/2 491/356/2
f 491/356/2 490/355/2 492/357/2
f 491/356/2 492/357/2 493/358/2
f 493/358/2 492/357/2 494/359/2
f 493/358/2 494/359/2 495/360/2
f 495/360/2 494/359/2 496/361/2
f 495/360/2 496/361/2 497/362/2
f 497/362/2 496/361/2 498/363/2
f 497/362/2 498/363/2 499/364/2
f 499/364/2 498/363/2 500/365/2
f 499/364/2 500/365/2 501/366/2
f 501/366/2 500/365/2 502/367/2
f 501/366/2 502/367/2 503/368/2
f 501/366/2 503/368/2 504/369/2
f 504/369/2 503/368/2 505/370/2
f 504/369/2 505/370/2 506/371/2
f 506/371/2 505/370/2 507/372/2
f 506/371/2 507/372/2 508/373/2
f 508/373/2 507/372/2 509/374/2
f 508/373/2 509/374/2 510/375/2
f 508/373/2 510/375/2 511/376/2
f 508/373/2 511/376/2 512/377/2
f 512/377/2 511/376/2 513/378/2
f 512/377/2 513/378/2 514/379/2
f 512/377/2 514/379/2 515/380/2
f 515/380/2 514/379/2 516/381/2
f 515/380/2 516/381/2 517/382/2
f 515/380/2 517/382/2 518/383/2
f 518/383/2 517/382/2 519/384/2
f 518/383/2 519/384/2 520/385/2
f 518/383/2 520/385/2 521/386/2
f 518/383/2 521/386/2 522/387/2
f 522/387/2 521/386/2 523/388/2
f 522/387/2 523/388/2 524/389/2
f 522/387/2 524/389/2 525/390/2
f 525/390/2 524/389/2 526/391/2
f 526/391/2 524/389/2 527/392/2
f 527/392/2 524/389/2 528/393/2
f 528/393/2 524/389/2 529/394/2
f 529/394/2 524/389/2 530/395/2
f 529/394/2 530/395/2 531/396/2
f 531/396/2 530/395/2 532/397/2
f 532/397/2 530/395/2 533/398/2
f 533/398/2 530/395/2 534/399/2
f 534/399/2 530/395/2 535/400/2
f 535/400/2 530/395/2 536/401/2
f 536/401/2 530/395/2 537/402/2
f 537/402/2 530/395/2 538/403/2
f 538/403/2 530/395/2 539/404/2
f 539/404/2 530/395/2 540/405/2
f 541/405/1 542/395/1 543/404/1
f 543/404/1 542/395/1 544/403/1
f 544/403/1 542/395/1 545/402/1
f 545/402/1 542/395/1 546/401/1
f 546/401/1 542/395/1 547/400/1
f 547/400/1 542/395/1 548/399/1
f 548/399/1 542/395/1 549/398/1
f 549/398/1 542/395/1 550/397/1
f 550/397/1 542/395/1 551/396/1
f 551/396/1 542/395/1 552/394/1
f 542/395/1 553/389/1 552/394/1
f 552/394/1 553/389/1 554/393/1
f 554/393/1 553/389/1 555/392/1
f 555/392/1 553/389/1 556/391/1
f 556/391/1 553/389/1 557/390/1
f 557/390/1 553/389/1 558/387/1
f 553/389/1 559/388/1 558/387/1
f 559/388/1 560/386/1 558/387/1
f 558/387/1 560/386/1 561/383/1
f 560/386/1 562/385/1 561/383/1
f 562/385/1 563/384/1 561/383/1
f 563/384/1 564/382/1 561/383/1
f 561/383/1 564/382/1 565/380/1
f 564/382/1 566/381/1 565/380/1
f 566/381/1 567/379/1 565/380/1
f 565/380/1 567/379/1 568/377/1
f 567/379/1 569/378/1 568/377/1
f 569/378/1 570/376/1 568/377/1
f 568/377/1 570/376/1 571/373/1
f 570/376/1 572/375/1 571/373/1
f 572/375/1 573/374/1 571/373/1
f 573/374/1 574/372/1 571/373/1
f 571/373/1 574/372/1 575/371/1
f 574/372/1 576/370/1 575/371/1
f 575/371/1 576/370/1 577/369/1
f 576/370/1 578/368/1 577/369/1
f 577/369/1 578/368/1 579/366/1
f 578/368/1 580/367/1 579/366/1
f 580/367/1 581/365/1 579/366/1
f 579/366/1 581/365/1 582/364/1
f 581/365/1 583/363/1 582/364/1
f 582/364/1 583/363/1 584/362/1
f 583/363/1 585/361/1 584/362/1
f 584/362/1 585/361/1 586/360/1
f 585/361/1 587/359/1 586/360/1
f 586/360/1 587/359/1 588/358/1
f 587/359/1 589/357/1 588/358/1
f 588/358/1 589/357/1 590/356/1
f 589/357/1 591/355/1 590/356/1
f 590/356/1 591/355/1 592/354/1
f 591/355/1 593/352/1 592/354/1
f 592/354/1 593/352/1 594/353/1
f 594/353/1 593/352/1 595/350/1
f 593/352/1 596/351/1 595/350/1
f 596/351/1 597/348/1 595/350/1
f 595/350/1 597/348/1 598/349/1
f 598/349/1 597/348/1 599/347/1
f 597/348/1 600/346/1 599/347/1
f 599/347/1 600/346/1 601/345/1
f 600/346/1 602/339/1 601/345/1
f 601/345/1 602/339/1 603/344/1
f 603/344/1 602/339/1 604/343/1
f 604/343/1 602/339/1 605/342/1
f 605/342/1 602/339/1 606/341/1
f 606/341/1 602/339/1 607/340/1
f 608/3/1 607/340/1 602/339/1
