# SSTK version 0.8.0
# 2
mtllib original-2.mtl
o #ID64
v 0.11175395 0.82765175 0.00267153
v 0.10850250 0.82550832 0.03446930
v 0.11377495 0.82551463 0.00277293
v 0.10660229 0.82763794 0.03377005
v 0.09387956 0.82755044 0.06260797
v 0.09569339 0.82548113 0.06367677
v 0.11029634 0.82332679 0.03510118
v 0.11557475 0.82327034 0.00287678
v 0.10880120 0.82753589 -0.02885646
v 0.11335334 0.82546866 -0.00083151
v 0.11086143 0.82542361 -0.02915474
v 0.11132114 0.82763976 -0.00072443
v 0.10454370 0.82960397 0.03309331
v 0.10953229 0.82948224 0.00261107
v 0.07463430 0.82752678 0.08689965
v 0.07586664 0.82539699 0.08850883
v 0.09735865 0.82321619 0.06466470
v 0.09207963 0.82961555 0.06130094
v 0.11212248 0.82095008 0.03558978
v 0.11746806 0.82107224 0.00296736
v 0.11522843 0.82334796 -0.00108463
v 0.11269343 0.82324920 -0.02971506
v 0.09837616 0.82751588 -0.05833923
v 0.10009347 0.82548947 -0.05934098
v 0.10679645 0.82950835 -0.02825019
v 0.10923193 0.82956434 -0.00058353
v 0.10249363 0.83155178 0.03245098
v 0.10723317 0.83136258 0.00258501
v 0.04990732 0.82755061 0.10519147
v 0.05072520 0.82557773 0.10698816
v 0.07730674 0.82322875 0.08982316
v 0.07303651 0.82964434 0.08521384
v 0.09877008 0.82095340 0.06565514
v 0.09012622 0.83146174 0.06006583
v 0.11360409 0.81852989 0.03621986
v 0.11917949 0.81868205 0.00289128
v 0.11710671 0.82103766 -0.00121156
v 0.11448695 0.82105169 -0.03013351
v 0.10182819 0.82332640 -0.06028086
v 0.08084003 0.82757802 -0.08418993
v 0.08231652 0.82544260 -0.08565362
v 0.09637148 0.82957472 -0.05740539
v 0.10452607 0.83143967 -0.02779474
v 0.10696168 0.83137666 -0.00033062
v 0.10013572 0.83320197 0.03186095
v 0.10501757 0.83314100 0.00235210
v 0.02128151 0.82762456 0.11606252
v 0.02184537 0.82557061 0.11823793
v 0.05168698 0.82334262 0.10876270
v 0.04873745 0.82953561 0.10317433
v 0.07851733 0.82097829 0.09121639
v 0.07152240 0.83152479 0.08346090
v 0.10030930 0.81870016 0.06664733
v 0.08828115 0.83330384 0.05874900
v 0.11520995 0.81610210 0.03668821
v 0.12069086 0.81618306 0.00302756
v 0.11874359 0.81870483 -0.00146137
v 0.11620386 0.81861906 -0.03042181
v 0.10342222 0.82106898 -0.06117901
v 0.08376011 0.82325122 -0.08697880
v 0.05739409 0.82753781 -0.10441535
v 0.05856587 0.82542144 -0.10611799
v 0.07917499 0.82963645 -0.08271391
v 0.09447163 0.83151618 -0.05625694
v 0.10234983 0.83329840 -0.02728487
v 0.10466433 0.83325996 -0.00006190
v 0.09791258 0.83492056 0.03112038
v 0.10247632 0.83478601 0.00224727
v -0.00890544 0.82766894 0.11898571
v -0.00892280 0.82554422 0.12118175
v 0.02220843 0.82326960 0.12012813
v 0.02082889 0.82961251 0.11404303
v 0.05254613 0.82105220 0.11055359
v 0.04785877 0.83141711 0.10104515
v 0.07951932 0.81854007 0.09246693
v 0.07006539 0.83329878 0.08173565
v 0.10162239 0.81616575 0.06748626
v 0.08624170 0.83483351 0.05741483
v 0.11646304 0.81358711 0.03703445
v 0.12200416 0.81367046 0.00305462
v 0.12018562 0.81621839 -0.00155581
v 0.11760978 0.81607892 -0.03091794
v 0.10491027 0.81857480 -0.06211511
v 0.08496649 0.82108021 -0.08833959
v 0.05948426 0.82319840 -0.10791339
v 0.02996565 0.82756679 -0.11756099
v 0.03056080 0.82550019 -0.11965610
v 0.05635576 0.82960279 -0.10248089
v 0.07751066 0.83142037 -0.08113396
v 0.09230397 0.83326261 -0.05516766
v 0.09996293 0.83497055 -0.02666708
v 0.10230871 0.83493695 0.00015236
v -0.02828928 0.83486114 -0.11060920
v 0.02720258 0.83488593 -0.10852101
v -0.00033306 0.83492611 -0.11328996
v -0.05444980 0.83482682 -0.10050685
v 0.05250959 0.83496030 -0.09635959
v -0.07714172 0.83491391 -0.08366423
v 0.07398690 0.83479522 -0.07779646
v -0.09499273 0.83496322 -0.06126260
v 0.09032055 0.83492689 -0.05385985
v -0.10679019 0.83486887 -0.03488315
v -0.11133571 0.83488689 -0.00606709
v -0.10877890 0.83494156 0.02290294
v -0.09914236 0.83493869 0.05024378
v -0.08285691 0.83485572 0.07395709
v 0.06841599 0.83484685 0.07978943
v -0.06152612 0.83496308 0.09258783
v 0.04555542 0.83483625 0.09679662
v -0.03608364 0.83488822 0.10462750
v 0.01924263 0.83490511 0.10681700
v -0.00846176 0.83479274 0.10962351
v -0.03928067 0.82541238 0.11581898
v -0.03870495 0.82753782 0.11382477
v -0.00892490 0.82338765 0.12323311
v -0.00873509 0.82952920 0.11681705
v 0.02266189 0.82098365 0.12200273
v 0.02043207 0.83149125 0.11163558
v 0.05332758 0.81855543 0.11191951
v 0.04669190 0.83318455 0.09893363
v 0.08060219 0.81607744 0.09372988
v 0.10262372 0.81362226 0.06823436
v 0.11781759 0.81101938 0.03737472
v 0.12331071 0.81099252 0.00311348
v 0.12162707 0.81356990 -0.00172120
v 0.11907817 0.81373013 -0.03121342
v 0.10626866 0.81618380 -0.06279044
v 0.08631419 0.81870909 -0.08948674
v 0.06046258 0.82094370 -0.10953970
v 0.03096564 0.82329282 -0.12150876
v -0.00000714 0.82757597 -0.12285064
v 0.00004209 0.82543773 -0.12497880
v 0.02922824 0.82963728 -0.11536058
v 0.05519626 0.83150170 -0.10053887
v 0.07592096 0.83313241 -0.07940001
v -0.03667044 0.83316915 0.10714914
v -0.00855804 0.83332066 0.11199090
v 0.01978277 0.83322872 0.10939649
v 0.05395164 0.83320237 -0.09836249
v 0.02791509 0.83325587 -0.11089251
v -0.00025346 0.83323899 -0.11582711
v -0.02876844 0.83321848 -0.11319494
v -0.05549500 0.83323527 -0.10283808
v -0.07890222 0.83318707 -0.08544149
v -0.09714264 0.83331318 -0.06265874
v -0.10909785 0.83318645 -0.03553610
v -0.11384759 0.83332266 -0.00628123
v -0.11115995 0.83323557 0.02337672
v -0.10130058 0.83318690 0.05137957
v -0.08469483 0.83314224 0.07553667
v -0.06270891 0.83329200 0.09466422
v -0.06748330 0.82549427 0.10231398
v -0.06631624 0.82766159 0.10063386
v -0.03998929 0.82327475 0.11774583
v -0.03807583 0.82952127 0.11168776
v -0.00901982 0.82103523 0.12505572
v -0.00872651 0.83155026 0.11454633
v 0.02306911 0.81868643 0.12370816
v 0.05398916 0.81614895 0.11343315
v 0.08152682 0.81367600 0.09477987
v 0.10382894 0.81097071 0.06908869
v 0.11635237 0.80694783 0.03880132
v 0.12192334 0.80689180 0.00451790
v 0.12289192 0.81095638 -0.00188465
v 0.12025381 0.81096098 -0.03148761
v 0.10756140 0.81359776 -0.06349390
v 0.08730581 0.81618313 -0.09055121
v 0.06138760 0.81868104 -0.11085646
v 0.03148867 0.82107282 -0.12331188
v 0.00017296 0.82322906 -0.12700712
v -0.03068257 0.82548530 -0.12204132
v -0.03020240 0.82763344 -0.11987360
v -0.00016662 0.82955120 -0.12068226
v 0.02865614 0.83149177 -0.11319215
v -0.03749843 0.83148164 0.10946858
v -0.00029118 0.83136239 -0.11829555
v -0.02920430 0.83154622 -0.11554819
v -0.05672251 0.83150499 -0.10497217
v -0.08050521 0.83144856 -0.08733875
v -0.09909126 0.83150693 -0.06391367
v -0.11131463 0.83141092 -0.03632404
v -0.11628782 0.83137167 -0.00638663
v -0.11357847 0.83151744 0.02387654
v -0.10333126 0.83145977 0.05241208
v -0.08650711 0.83137175 0.07731824
v -0.06395825 0.83145434 0.09670894
v -0.09112642 0.82557065 0.08178832
v -0.08962070 0.82761014 0.08043891
v -0.06846592 0.82334810 0.10401172
v -0.06520242 0.82959219 0.09864562
v -0.04041584 0.82092295 0.11939749
v -0.00917399 0.81869013 0.12687773
v 0.02325378 0.81626736 0.12531063
v 0.05472553 0.81355003 0.11468067
v 0.08252535 0.81100263 0.09580920
v 0.10233836 0.80689589 0.07029279
v 0.12145691 0.80700153 -0.00062977
v 0.11881463 0.80687915 -0.03007247
v -0.03745049 0.80699911 -0.13044577
v -0.00090980 0.80689937 -0.13355218
v -0.00383587 0.80691268 -0.13492070
v -0.03408340 0.80701321 -0.13025047
v -0.06528057 0.80685411 -0.11822226
v -0.06860763 0.80695706 0.11620639
v -0.04339725 0.80694996 0.12650277
v -0.07375975 0.80693378 0.11200503
v -0.03742123 0.80702320 0.12956545
v -0.01047541 0.80703425 0.13239102
v -0.00393351 0.80697934 0.13420012
v 0.02969701 0.80688073 -0.13048973
v 0.03197808 0.80685570 -0.12768636
v 0.06096613 0.80699439 -0.11690414
v 0.06218845 0.80685812 -0.11320348
v 0.08767303 0.80702407 -0.09563737
v 0.08791762 0.80699039 -0.09094248
v 0.10827453 0.80692832 -0.06771603
v 0.10729285 0.80700558 -0.06259102
v 0.12126251 0.80700855 -0.03519712
v 0.11883379 0.80685887 -0.03006803
v 0.12558157 0.80685296 -0.00035772
v 0.12147565 0.80687668 -0.00059180
v 0.12186777 0.80698515 0.00443389
v 0.12124525 0.80686902 0.03447731
v 0.11639054 0.80697776 0.03864710
v 0.10838119 0.80691727 0.06688083
v 0.10238663 0.80685792 0.07035168
v 0.08774766 0.80695282 0.09484116
v 0.08115347 0.80685815 0.09704966
v 0.06084661 0.80694612 0.11624569
v 0.05395860 0.80691616 0.11717576
v 0.02966836 0.80685921 0.12957935
v 0.02268279 0.80702084 0.12924857
v 0.10862786 0.81099855 -0.06401312
v 0.08850107 0.81370673 -0.09151381
v 0.06218291 0.81623972 -0.11233346
v 0.03207775 0.81854231 -0.12489671
v 0.00015595 0.82106198 -0.12895539
v -0.03119208 0.82327338 -0.12403740
v -0.05966286 0.82540695 -0.11088365
v -0.05875309 0.82754660 -0.10892489
v -0.02972222 0.82954298 -0.11780516
v -0.05773805 0.82959387 -0.10689045
v -0.08197437 0.82963788 -0.08911709
v -0.10095941 0.82956386 -0.06525283
v -0.11353313 0.82954738 -0.03688726
v -0.11838239 0.82947989 -0.00635066
v -0.11561541 0.82965488 0.02445095
v -0.10535291 0.82956258 0.05362935
v -0.08813840 0.82951712 0.07897507
v -0.10893258 0.82541735 0.05565438
v -0.10721002 0.82751057 0.05458246
v -0.09260796 0.82321820 0.08321838
v -0.06939296 0.82091640 0.10572733
v -0.04088254 0.81869623 0.12106286
v -0.00926245 0.81610311 0.12844534
v 0.02362349 0.81374385 0.12666880
v 0.05521169 0.81113966 0.11595758
v 0.08116929 0.80697906 0.09701826
v 0.10728088 0.80693783 -0.06265136
v -0.06866545 0.66280775 -0.11685948
v -0.06852928 0.80690791 -0.11699139
v -0.03742364 0.66274044 -0.13034531
v -0.06423884 0.81100827 -0.11969871
v -0.03410007 0.80701014 -0.13030576
v -0.06538774 0.80700265 -0.11820875
v -0.03289944 0.81100784 -0.13171183
v -0.03413887 0.80687359 -0.13029225
v 0.03203301 0.80703050 -0.12756017
v -0.00092328 0.80702845 -0.13351997
v -0.06538615 0.80701661 -0.11821866
v 0.06224581 0.80703659 -0.11306188
v -0.08826778 0.80684972 -0.10124308
v 0.08800136 0.80691064 -0.09100909
v -0.09246823 0.80697498 -0.09815255
v -0.09313478 0.80696082 -0.09745687
v -0.10609135 0.80702737 -0.08105801
v 0.10721665 0.80703619 -0.06268093
v -0.11466820 0.80701151 -0.06959149
v -0.12109857 0.80688268 -0.05489620
v 0.11889273 0.80687223 -0.03007197
v -0.12820128 0.80688943 -0.03716401
v -0.13034494 0.80698950 -0.02340808
v 0.12142264 0.80692707 -0.00055671
v -0.13304247 0.80702664 -0.00260626
v -0.13170584 0.80700387 0.01207881
v 0.12184180 0.80693144 0.00458254
v 0.11621354 0.80698690 0.03868773
v -0.12928900 0.80688721 0.03165863
v -0.12305223 0.80700993 0.04897923
v 0.10242691 0.80689670 0.07023342
v -0.11735393 0.80700884 0.06337200
v -0.10348051 0.80688859 0.08383467
v 0.08109211 0.80695251 0.09701791
v -0.09943625 0.80685855 0.08987635
v -0.09845225 0.80699362 0.09068233
v -0.07369416 0.80684542 0.11215041
v 0.05396003 0.80700225 0.11712413
v -0.04346255 0.80701377 0.12650370
v 0.02263345 0.80687203 0.12924402
v -0.01056427 0.80695722 0.13246806
v -0.00086832 0.80687169 -0.13340375
v 0.00045160 0.81107792 -0.13499482
v 0.03190203 0.80696929 -0.12757034
v 0.03324000 0.81101322 -0.12914343
v 0.06227518 0.80688511 -0.11323336
v 0.06361284 0.81114481 -0.11461233
v 0.08786083 0.80700765 -0.09095010
v 0.08927165 0.81102760 -0.09245586
v 0.05391885 0.80684261 0.11714781
v 0.02393271 0.81103231 0.12801439
v 0.02266617 0.80701768 0.12927182
v -0.00937328 0.81101715 0.13129346
v -0.01066432 0.80686428 0.13243047
v -0.04217538 0.81105931 0.12531647
v -0.04344102 0.80691673 0.12656349
v -0.07248295 0.81111239 0.11090482
v -0.07380315 0.80698516 0.11207891
v -0.06864857 0.66286045 0.11623047
v -0.09536501 0.80701827 0.09472600
v -0.09533782 0.66282364 0.09487533
v -0.03736809 0.66283040 0.12967819
v -0.00390466 0.66283598 0.13418597
v 0.02967196 0.66275860 0.12972822
v 0.06080592 0.66277382 0.11611692
v 0.08779693 0.66281858 0.09490431
v 0.10824079 0.66283414 0.06695898
v 0.12129062 0.66289095 0.03453035
v 0.12565342 0.66276810 -0.00039720
v 0.12118082 0.66287370 -0.03525243
v 0.10826986 0.66287187 -0.06776760
v 0.08773230 0.66282466 -0.09554092
v 0.06094585 0.66289211 -0.11691014
v 0.02955276 0.66276814 -0.13049634
v -0.00386027 0.66277017 -0.13503753
v 0.06290283 0.81367892 -0.11342815
v 0.03256536 0.81620682 -0.12657925
v 0.00031973 0.81858455 -0.13059729
v -0.03150454 0.82106501 -0.12585404
v -0.06051209 0.82322269 -0.11255719
v -0.08480492 0.82546092 -0.09231775
v -0.08341111 0.82756844 -0.09060016
v -0.10286892 0.82762131 -0.06630563
v -0.11546612 0.82751069 -0.03769500
v -0.12063812 0.82765225 -0.00641897
v -0.11778429 0.82752874 0.02507548
v -0.11965564 0.82547830 0.02548597
v -0.11077210 0.82330866 0.05658342
v -0.09399128 0.82106910 0.08451729
v -0.07028515 0.81861949 0.10703248
v -0.04139010 0.81610339 0.12261954
v -0.00927943 0.81369168 0.12984190
v -0.09542617 0.66281380 -0.09558240
v -0.11608372 0.66281786 -0.06763265
v -0.12894446 0.66276715 -0.03526104
v -0.13330087 0.66273844 -0.00036747
v -0.12888869 0.66288301 0.03449160
v -0.11602029 0.66276997 0.06686263
v -0.09303577 0.80689283 -0.09736873
v -0.09533618 0.80696921 -0.09550770
v -0.09256350 0.80684357 -0.09803705
v -0.08815398 0.80684389 -0.10131841
v -0.09145120 0.81111722 -0.09965799
v -0.08824810 0.80700045 -0.10121944
v -0.09257845 0.80697649 -0.09817647
v -0.06346627 0.81360576 -0.11849512
v -0.03263196 0.81357266 -0.13042696
v -0.11605488 0.80703285 -0.06766256
v -0.12889200 0.80701894 -0.03527075
v -0.12812741 0.80684947 -0.03700743
v -0.13340733 0.80688731 -0.00045652
v -0.13036567 0.80695228 -0.02338484
v -0.12890197 0.80698273 0.03450663
v -0.11606049 0.80692123 0.06690425
v -0.11729564 0.80700008 0.06355762
v -0.09931695 0.80696785 0.08992123
v -0.10353681 0.80691314 0.08372751
v -0.09845965 0.80694172 0.09076113
v 0.00034978 0.81369813 -0.13368679
v 0.03289161 0.81370791 -0.12786436
v -0.04174642 0.81358728 0.12401324
v -0.07183091 0.81363275 0.10982242
v -0.09834326 0.80699326 0.09069485
v -0.09819518 0.81101072 0.08867836
v -0.09948360 0.80701980 0.08985516
v 0.00022284 0.81626820 -0.13217157
v -0.03198036 0.81855579 -0.12756749
v -0.06135250 0.82104281 -0.11423017
v -0.08608219 0.82328695 -0.09364521
v -0.10457196 0.82541115 -0.06758076
v -0.11750429 0.82544401 -0.03833282
v -0.12270224 0.82549925 -0.00652079
v -0.12168583 0.82326587 0.02589449
v -0.11223443 0.82091728 0.05740905
v -0.09515855 0.81866212 0.08561816
v -0.07100565 0.81625398 0.10849853
v -0.11274060 0.81103249 -0.07288393
v -0.09318522 0.80698779 -0.09738410
v -0.09057090 0.81366280 -0.09864179
v -0.06287768 0.81623805 -0.11723961
v -0.03221852 0.81607971 -0.12911601
v -0.11859588 0.80835825 0.06086867
v -0.09729200 0.81362230 0.08774822
v -0.06217477 0.81866865 -0.11586366
v -0.08746059 0.82104397 -0.09508077
v -0.10616020 0.82321958 -0.06846197
v -0.11934032 0.82322497 -0.03877389
v -0.12458429 0.82323757 -0.00656541
v -0.12344299 0.82097657 0.02635804
v -0.11375472 0.81869881 0.05824146
v -0.09620957 0.81616704 0.08666241
v -0.11355736 0.80832436 -0.07342898
v -0.11157906 0.81369054 -0.07211042
v -0.08960191 0.81619285 -0.09745544
v -0.11754590 0.81102315 0.06036964
v -0.11632622 0.81361688 0.05956552
v -0.08851042 0.81870392 -0.09629974
v -0.10762282 0.82096188 -0.06962002
v -0.12099830 0.82097283 -0.03934737
v -0.12625343 0.82106016 -0.00677864
v -0.12509589 0.81861036 0.02675088
v -0.11525531 0.81616573 0.05893086
v -0.10609196 0.80686182 -0.08093190
v -0.12669669 0.81102598 -0.04123234
v -0.12777780 0.80846096 -0.04159400
v -0.12532926 0.81364079 -0.04075476
v -0.11043293 0.81608257 -0.07125418
v -0.13026930 0.80840001 0.02800062
v -0.12918409 0.81111216 0.02765543
v -0.12788771 0.81365310 0.02734715
v -0.10914788 0.81861010 -0.07043434
v -0.12250742 0.81866859 -0.04001148
v -0.12791026 0.81867314 -0.00671126
v -0.12650817 0.81613279 0.02709110
v -0.13229051 0.81110318 -0.00704472
v -0.13336953 0.80836323 -0.00689808
v -0.11466233 0.80694682 -0.06939865
v -0.12106332 0.80693113 -0.05491063
v -0.13092167 0.81364060 -0.00694125
v -0.12401790 0.81618610 -0.04030684
v -0.12946927 0.81622267 -0.00687252
vt 0.5199174 0.8402639
vt 0.5547407 0.8391489
vt 0.5200054 0.8391489
vt 0.5540554 0.8402639
vt 0.5855244 0.8402639
vt 0.5867603 0.8391489
vt 0.5553873 0.8379814
vt 0.5200883 0.8379814
vt 0.4854369 0.8402639
vt 0.5159635 0.8391489
vt 0.4849215 0.8391489
vt 0.5161772 0.8402639
vt 0.5533332 0.8413237
vt 0.5198247 0.8413237
vt 0.6121798 0.8402639
vt 0.6138822 0.8391489
vt 0.5879264 0.8379814
vt 0.5842219 0.8413237
vt 0.5559934 0.8367647
vt 0.5201661 0.8367647
vt 0.5157618 0.8379814
vt 0.4844352 0.8379814
vt 0.4529636 0.8402639
vt 0.45188 0.8391489
vt 0.48598 0.8413237
vt 0.5164024 0.8413237
vt 0.5525761 0.8423252
vt 0.5197275 0.8423252
vt 0.6322052 0.8402639
vt 0.6342579 0.8391489
vt 0.6154883 0.8379814
vt 0.6103859 0.8413237
vt 0.5890196 0.8367647
vt 0.5828564 0.8423252
vt 0.5565575 0.835502
vt 0.5202385 0.835502
vt 0.5155728 0.8367647
vt 0.4839794 0.8367647
vt 0.4508576 0.8379814
vt 0.4247105 0.8402639
vt 0.4231326 0.8391489
vt 0.4541055 0.8413237
vt 0.4865494 0.8423252
vt 0.5166385 0.8423252
vt 0.551786 0.8432659
vt 0.5196261 0.8432659
vt 0.6442358 0.8402639
vt 0.646499 0.8391489
vt 0.6361947 0.8379814
vt 0.6300419 0.8413237
vt 0.616994 0.8367647
vt 0.608505 0.8423252
vt 0.5900369 0.835502
vt 0.5814315 0.8432659
vt 0.557078 0.8341967
vt 0.5203053 0.8341967
vt 0.5153969 0.835502
vt 0.4835552 0.835502
vt 0.4498992 0.8367647
vt 0.4216438 0.8379814
vt 0.4026031 0.8402639
vt 0.4006383 0.8391489
vt 0.4263734 0.8413237
vt 0.4553027 0.8423252
vt 0.4871436 0.8432659
vt 0.5168849 0.8432659
vt 0.5509651 0.8441433
vt 0.5195208 0.8441433
vt 0.6474517 0.8402639
vt 0.6497712 0.8391489
vt 0.6486344 0.8379814
vt 0.6418507 0.8413237
vt 0.6380103 0.8367647
vt 0.627774 0.8423252
vt 0.6183952 0.835502
vt 0.6065424 0.8432659
vt 0.5909756 0.8341967
vt 0.5799509 0.8441433
vt 0.5575535 0.8328521
vt 0.5203664 0.8328521
vt 0.5152346 0.8341967
vt 0.4831637 0.8341967
vt 0.4490073 0.835502
vt 0.4202481 0.8367647
vt 0.3987845 0.8379814
vt 0.3881479 0.8402639
vt 0.3859302 0.8391489
vt 0.4046736 0.8413237
vt 0.4281168 0.8423252
vt 0.456552 0.8432659
vt 0.487761 0.8441433
vt 0.5171409 0.8441433
vt 0.3957522 0.8441433
vt 0.3981488 0.8441433
vt 0.39279 0.8441433
vt 0.4068334 0.8441433
vt 0.4114634 0.8441433
vt 0.4252787 0.8441433
vt 0.4318263 0.8441433
vt 0.4498308 0.8441433
vt 0.45785 0.8441433
vt 0.4788167 0.8441433
vt 0.510261 0.8441433
vt 0.5420208 0.8441433
vt 0.5719317 0.8441433
vt 0.5979554 0.8441433
vt 0.6045031 0.8441433
vt 0.6183184 0.8441433
vt 0.6229483 0.8441433
vt 0.631633 0.8441433
vt 0.6340296 0.8441433
vt 0.6369918 0.8441433
vt 0.6438515 0.8391489
vt 0.6416338 0.8402639
vt 0.6519597 0.8379814
vt 0.6450073 0.8413237
vt 0.6506362 0.8367647
vt 0.6393501 0.8423252
vt 0.6396999 0.835502
vt 0.6254073 0.8432659
vt 0.6196883 0.8341967
vt 0.5918333 0.8328521
vt 0.5579829 0.831472
vt 0.5204215 0.831472
vt 0.5150862 0.8328521
vt 0.4828061 0.8328521
vt 0.4481842 0.8341967
vt 0.4189492 0.835502
vt 0.3970467 0.8367647
vt 0.3838378 0.8379814
vt 0.3823301 0.8402639
vt 0.3800105 0.8391489
vt 0.390485 0.8413237
vt 0.4068444 0.8423252
vt 0.4299361 0.8432659
vt 0.6342896 0.8432659
vt 0.6397704 0.8432659
vt 0.6367408 0.8432659
vt 0.4091097 0.8432659
vt 0.3954921 0.8432659
vt 0.3900114 0.8432659
vt 0.393041 0.8432659
vt 0.4043744 0.8432659
vt 0.4232394 0.8432659
vt 0.4483503 0.8432659
vt 0.4779958 0.8432659
vt 0.5101556 0.8432659
vt 0.5426382 0.8432659
vt 0.5732298 0.8432659
vt 0.5998457 0.8432659
vt 0.6206721 0.8432659
vt 0.6291434 0.8391489
vt 0.6271786 0.8402639
vt 0.645944 0.8379814
vt 0.6392967 0.8413237
vt 0.6540113 0.8367647
vt 0.6424446 0.8423252
vt 0.6524991 0.835502
vt 0.6412591 0.8341967
vt 0.6208696 0.8328521
vt 0.5926077 0.831472
vt 0.5594218 0.8292856
vt 0.5219064 0.8292856
vt 0.5149524 0.831472
vt 0.4824832 0.831472
vt 0.4474323 0.8328521
vt 0.4177507 0.8341967
vt 0.3954295 0.835502
vt 0.3818762 0.8367647
vt 0.3778221 0.8379814
vt 0.3832828 0.8391489
vt 0.385546 0.8402639
vt 0.3847744 0.8413237
vt 0.3929353 0.8423252
vt 0.6368465 0.8423252
vt 0.3873371 0.8423252
vt 0.3904316 0.8423252
vt 0.4020078 0.8423252
vt 0.4212767 0.8423252
vt 0.4469253 0.8423252
vt 0.4772057 0.8423252
vt 0.5100542 0.8423252
vt 0.5432323 0.8423252
vt 0.5744791 0.8423252
vt 0.6016649 0.8423252
vt 0.6229373 0.8423252
vt 0.6066492 0.8391489
vt 0.6050712 0.8402639
vt 0.6309972 0.8379814
vt 0.6251081 0.8413237
vt 0.6479055 0.8367647
vt 0.6559205 0.835502
vt 0.6542182 0.8341967
vt 0.6426836 0.8328521
vt 0.6219362 0.831472
vt 0.5940042 0.8292856
vt 0.5163255 0.8292856
vt 0.4840145 0.8292856
vt 0.3740866 0.8292856
vt 0.3707068 0.8292856
vt 0.3690608 0.8292856
vt 0.3742409 0.8292856
vt 0.3874617 0.8292856
vt 0.644296 0.8292856
vt 0.6556648 0.8292856
vt 0.6397795 0.8292856
vt 0.6590311 0.8292856
vt 0.6620583 0.8292856
vt 0.664057 0.8292856
vt 0.3771002 0.8292856
vt 0.3888218 0.8292856
vt 0.3929855 0.8292856
vt 0.412262 0.8292856
vt 0.4172802 0.8292856
vt 0.4428098 0.8292856
vt 0.4483284 0.8292856
vt 0.4783836 0.8292856
vt 0.5165589 0.8292856
vt 0.5547342 0.8292856
vt 0.5903079 0.8292856
vt 0.6208558 0.8292856
vt 0.6232968 0.8292856
vt 0.6453034 0.8292856
vt 0.6585242 0.8292856
vt 0.4467534 0.831472
vt 0.4166557 0.8328521
vt 0.3939371 0.8341967
vt 0.3800508 0.835502
vt 0.3757705 0.8367647
vt 0.3811474 0.8379814
vt 0.3955238 0.8391489
vt 0.3975766 0.8402639
vt 0.3879311 0.8413237
vt 0.3997398 0.8413237
vt 0.4193959 0.8413237
vt 0.4455598 0.8413237
vt 0.4764485 0.8413237
vt 0.509957 0.8413237
vt 0.5438018 0.8413237
vt 0.5756763 0.8413237
vt 0.6034083 0.8413237
vt 0.5779018 0.8391489
vt 0.5768182 0.8402639
vt 0.608138 0.8379814
vt 0.632735 0.8367647
vt 0.649731 0.835502
vt 0.6576823 0.8341967
vt 0.6557888 0.8328521
vt 0.6439697 0.831472
vt 0.3888218 0.7526242
vt 0.3740866 0.7526242
vt 0.385812 0.831472
vt 0.372575 0.831472
vt 0.4059642 0.8292856
vt 0.4094683 0.8292856
vt 0.4102394 0.8292856
vt 0.4282133 0.8292856
vt 0.4408196 0.8292856
vt 0.4567318 0.8292856
vt 0.4763482 0.8292856
vt 0.4913212 0.8292856
vt 0.5141981 0.8292856
vt 0.5303098 0.8292856
vt 0.5517394 0.8292856
vt 0.5707477 0.8292856
vt 0.586516 0.8292856
vt 0.6088194 0.8292856
vt 0.6154849 0.8292856
vt 0.616403 0.8292856
vt 0.3690366 0.831472
vt 0.3754379 0.831472
vt 0.3913426 0.831472
vt 0.415667 0.831472
vt 0.6572067 0.831472
vt 0.6607452 0.831472
vt 0.6543439 0.831472
vt 0.6384391 0.831472
vt 0.644296 0.7526242
vt 0.6208558 0.7526242
vt 0.6590311 0.7526242
vt 0.664057 0.7526242
vt 0.5903079 0.7526242
vt 0.5547342 0.7526242
vt 0.5165589 0.7526242
vt 0.4783836 0.7526242
vt 0.4428098 0.7526242
vt 0.412262 0.7526242
vt 0.3690608 0.7526242
vt 0.3925736 0.8328521
vt 0.3783663 0.8341967
vt 0.3738613 0.835502
vt 0.3791456 0.8367647
vt 0.3935871 0.8379814
vt 0.4158996 0.8391489
vt 0.4176019 0.8402639
vt 0.4442574 0.8402639
vt 0.4757264 0.8402639
vt 0.5098643 0.8402639
vt 0.5443449 0.8402639
vt 0.5448603 0.8391489
vt 0.5789241 0.8379814
vt 0.6095337 0.8367647
vt 0.6343523 0.835502
vt 0.6514154 0.8341967
vt 0.659292 0.8328521
vt 0.4078456 0.831472
vt 0.3870981 0.8328521
vt 0.373993 0.8328521
vt 0.3704898 0.8328521
vt 0.3768273 0.8328521
vt 0.6529544 0.8328521
vt 0.6372081 0.8328521
vt 0.6141147 0.831472
vt 0.3720995 0.8341967
vt 0.3772826 0.835502
vt 0.3917715 0.8367647
vt 0.4142934 0.8379814
vt 0.4430214 0.8391489
vt 0.4750411 0.8391489
vt 0.5097764 0.8391489
vt 0.5453465 0.8379814
vt 0.5798826 0.8367647
vt 0.6108325 0.835502
vt 0.6358446 0.8341967
vt 0.4371741 0.831472
vt 0.4089121 0.8328521
vt 0.3885227 0.8341967
vt 0.3755636 0.8341967
vt 0.5836324 0.83006
vt 0.6131261 0.8328521
vt 0.3900818 0.835502
vt 0.4127877 0.8367647
vt 0.4418553 0.8379814
vt 0.4743945 0.8379814
vt 0.5096934 0.8379814
vt 0.5458024 0.8367647
vt 0.5807745 0.835502
vt 0.6120311 0.8341967
vt 0.4364852 0.83006
vt 0.4379484 0.8328521
vt 0.4100935 0.8341967
vt 0.5830284 0.831472
vt 0.5823495 0.8328521
vt 0.4113865 0.835502
vt 0.4407622 0.8367647
vt 0.4737884 0.8367647
vt 0.5096156 0.8367647
vt 0.5462266 0.835502
vt 0.5815975 0.8341967
vt 0.4717989 0.831472
vt 0.4714169 0.83006
vt 0.4722282 0.8328521
vt 0.4388061 0.8341967
vt 0.5475859 0.83006
vt 0.5472986 0.831472
vt 0.5469757 0.8328521
vt 0.4397449 0.835502
vt 0.4732243 0.835502
vt 0.5095432 0.835502
vt 0.546618 0.8341967
vt 0.5093603 0.831472
vt 0.5093112 0.83006
vt 0.5094154 0.8328521
vt 0.4727038 0.8341967
vt 0.5094764 0.8341967
vn 0.7001351946577528 0.7135546945553578 0.025503079805403644
vn 0.7049708958662939 0.6776544960264679 0.20928549877282207
vn 0.7360220055906229 0.6764264051379509 0.02681279020366266
vn 0.670487502329934 0.7147263024836632 0.1990297006916252
vn 0.5962269064353782 0.7174303077435878 0.36028770388876724
vn 0.6271300029542934 0.6804914032056691 0.378997901785389
vn 0.7376982933512951 0.6386163942442974 0.21902129802601145
vn 0.7700644344847951 0.637348928541569 0.028055481256372167
vn 0.6837645584218375 0.7142081565706317 -0.14957519090467397
vn 0.735414882808247 0.6744101842343504 -0.06584719846069369
vn 0.7188783168404363 0.677111315862003 -0.15727120368423367
vn 0.6997082856763192 0.7116763854313211 -0.06265011871749368
vn 0.6343619154972684 0.7497550183162867 0.18828800459981862
vn 0.662520391389304 0.7486550902698218 0.0241306196863773
vn 0.481169006243115 0.7209769093545962 0.49866690647014833
vn 0.5063626277172757 0.6842170374526697 0.5248275287280074
vn 0.6564935175115644 0.6415464171128595 0.3967801105838676
vn 0.5638894330752344 0.7522917441260722 0.3407137199847444
vn 0.7685578031586265 0.5976973024564224 0.22820350093787303
vn 0.8021479013711972 0.5964097010195069 0.029226920049960695
vn 0.7692483833879218 0.6352266862821482 -0.06887656851259623
vn 0.7521967070843879 0.6380557060093777 -0.1645753015500138
vn 0.6221429946471128 0.7165238938350643 -0.3154862972855717
vn 0.6543056252808453 0.6795401262558476 -0.33182731282103445
vn 0.6469703399206947 0.7492686462329151 -0.1415128087319144
vn 0.662240597668963 0.7469413973708225 -0.0592953597912848
vn 0.5967083736193295 0.7826727653977834 0.1770944921705951
vn 0.6232953078388244 0.781657009830448 0.022699740285481496
vn 0.3319786055082206 0.7244292120197985 0.6041461100240498
vn 0.3495321075442487 0.6878490148464301 0.6361533137306379
vn 0.5303376053130043 0.6453993064657103 0.5497288055072684
vn 0.45484619620913447 0.7556144937024142 0.4713402960716662
vn 0.6842129167315855 0.6006763146888006 0.41357061011336066
vn 0.530222807577043 0.7850134112180772 0.3203400045777548
vn 0.7974395968775416 0.5549920978268702 0.23679919907278787
vn 0.8321606870026903 0.5537048913518219 0.030322999526392655
vn 0.8010995263742622 0.5942176195631763 -0.07172844236148529
vn 0.7836065232250123 0.5971276176980358 -0.1714626050819142
vn 0.684854096992703 0.6405634971871896 -0.3473517984747262
vn 0.5183461012451063 0.7199158017292917 -0.4615610011087041
vn 0.5454042833639097 0.683101779163818 -0.48570168518497686
vn 0.5884745010419589 0.7514417013305102 -0.29838420052832204
vn 0.608611487710278 0.7822236842045183 -0.13310959731211128
vn 0.6231258949741332 0.7801289937078133 -0.05579311954999657
vn 0.5576412849709821 0.8134195780774887 0.16548349554004613
vn 0.5825779913690292 0.812497887962735 0.021214759685700496
vn 0.15841409379953703 0.7268406715508352 0.668287073842673
vn 0.1668476974811721 0.6903890895774929 0.7039351893729933
vn 0.36626150316905015 0.649160905616816 0.6666653057682715
vn 0.31366541326120145 0.7588443320825541 0.5707620241307773
vn 0.5530044074130103 0.6045987081046307 0.5732770076847641
vn 0.42748229505388885 0.7880755908817054 0.4429398948750393
vn 0.7101850198138286 0.5579725155671712 0.42930631197744457
vn 0.49533121032897093 0.8155418170062123 0.29922990623973805
vn 0.8242372135786735 0.5106051084118262 0.24477630403250117
vn 0.8599945897613996 0.5093398939360925 0.03133971962688734
vn 0.830862410810314 0.5514828071753184 -0.07439333096792833
vn 0.8129969953847299 0.5544225968526206 -0.1779085989900378
vn 0.7136809751740368 0.5996765791397709 -0.36200478740737413
vn 0.571141783847985 0.6442453817805991 -0.5086697856147068
vn 0.37817109496319407 0.7234974903638419 -0.5775274923079952
vn 0.39811428469044774 0.6868682735863643 -0.6080435766175813
vn 0.49006231910513626 0.7546208294189805 -0.43633281701048543
vn 0.5534085837170927 0.7842293769256664 -0.2805765917446119
vn 0.5688041961420713 0.8130120944857251 -0.12439099915631494
vn 0.5824796899599541 0.8111703860180739 -0.0521537691010395
vn 0.30088479668176726 0.949514489528517 0.0888288990203727
vn 0.31416090917114287 0.9493015277124863 0.011381240332246877
vn -0.027059699454010763 0.727529285320489 0.6855427861676593
vn -0.02850308881254926 0.6911148712078621 0.7221826699135644
vn 0.17489370603816856 0.6517948225030797 0.7379537254776978
vn 0.1496246993617474 0.7610976967533931 0.6311439973077354
vn 0.38210148964410023 0.6084335835099381 0.6955623811485313
vn 0.29465570222772386 0.7910479059806623 0.5361168040532736
vn 0.5742740792692029 0.561901479715843 0.595378878507338
vn 0.39916428766508333 0.8183148747125528 0.41355608722035
vn 0.7343092894814822 0.5135366926439104 0.44392559364104556
vn 0.2676195078440483 0.9500061278451074 0.16083580471416986
vn 0.8488485807061942 0.4646499894387917 0.2521040942698291
vn 0.8855462084123888 0.4634289044024176 0.03227326030658503
vn 0.85843541589145 0.507130009388046 -0.07686215142288054
vn 0.840261014454002 0.5100452087736957 -0.18388940316322877
vn 0.7406804915434064 0.556971993640867 -0.3757320957101427
vn 0.5954640319755559 0.6034233324029589 -0.5303799284806339
vn 0.41711351677866265 0.6481446260720394 -0.6371223256286602
vn 0.21048550464258411 0.7262972160196111 -0.6543609144329444
vn 0.22167399601167256 0.6898163875889203 -0.6892125875997838
vn 0.35735650180917633 0.7579731038373639 -0.545685902762625
vn 0.46064670911637584 0.7871603155782059 -0.4101015081160668
vn 0.5170532857415088 0.8148311775298531 -0.2621183927717066
vn 0.3068305029156984 0.9494203090219951 -0.06675417063434055
vn 0.29388678824763004 0.9554779617909652 -0.02631387894772255
vn -0.07117084111221537 0.9517192148728992 -0.29860550466642843
vn 0.09455932013408218 0.9516202013493679 -0.29236540041456505
vn 0.01215808012267663 0.9518447096042385 -0.30633940309100494
vn -0.14910940337264153 0.9512799215165917 -0.26987570610420264
vn 0.16984060791997008 0.9511102443519648 -0.2579602120291441
vn -0.21604439456452507 0.9506513760825005 -0.22268089439755692
vn 0.23271379192764508 0.9504582670305897 -0.2060906928511447
vn -0.2676195078440483 0.9500061278451074 -0.16083580471416986
vn 0.27923069777128956 0.9498412924187375 -0.14082519887598824
vn -0.30088479668176726 0.949514489528517 -0.0888288990203727
vn -0.31416090917114287 0.9493015277124863 -0.011381240332246877
vn -0.3068305029156984 0.9494203090219951 0.06675417063434055
vn -0.27923069777128956 0.9498412924187375 0.14082519887598824
vn -0.23271379192764508 0.9504582670305897 0.2060906928511447
vn 0.21604439456452507 0.9506513760825005 0.22268089439755692
vn -0.16984060791997008 0.9511102443519648 0.2579602120291441
vn 0.14910940337264153 0.9512799215165917 0.26987570610420264
vn -0.09455932013408218 0.9516202013493679 0.29236540041456505
vn 0.07117084111221537 0.9517192148728992 0.29860550466642843
vn -0.01215808012267663 0.9518447096042385 0.30633940309100494
vn -0.22167399601167256 0.6898163875889203 0.6892125875997838
vn -0.21048550464258411 0.7262972160196111 0.6543609144329444
vn -0.029880570020116425 0.6525479004393133 0.7571581005097398
vn -0.025555849853839036 0.7617406956433946 0.6473777962974676
vn 0.18251980888428518 0.6111221297468166 0.7702053374903081
vn 0.14051020053111873 0.7931191029979348 0.5926373022401277
vn 0.39698670767274274 0.565748410934477 0.7227242139684198
vn 0.2750111963887112 0.8210028892190623 0.5003229934300462
vn 0.5940588088240278 0.5174061076854443 0.6159424091490824
vn 0.7564884148114684 0.46748140915293085 0.45736900895493776
vn 0.9578908246290593 0.10046600258315777 0.2689828069160215
vn 0.9979617447789626 0.059121012652784674 0.024022111077882213
vn 0.8837220097924785 0.46127480511136254 -0.07912625087679394
vn 0.86529572942783 0.4641095157838938 -0.18938230644070014
vn 0.765749930114135 0.5125522201567981 -0.3884807152775211
vn 0.6182768723547334 0.5607235749281375 -0.5507474753742029
vn 0.4350954127089262 0.6073970177417726 -0.6646509194141313
vn 0.23234589651143558 0.6512007902225263 -0.7224630891525564
vn 0.027059699454010763 0.727529285320489 -0.6855427861676593
vn 0.02850308881254926 0.6911148712078621 -0.7221826699135644
vn 0.19882210478237752 0.7605900182948903 -0.6180393148660397
vn 0.33574180612459364 0.7902465144156573 -0.5126284093513547
vn 0.43019210869259744 0.8174864165183883 -0.38295000773800864
vn -0.17423290003209893 0.8224527001515205 0.5414928000997592
vn -0.02238781927932679 0.8234071734941808 0.5670091817477387
vn 0.13110070258233905 0.8228739162084522 0.5528934108905462
vn 0.3133966093215043 0.820278524397934 -0.4784618142311171
vn 0.17423290003209893 0.8224527001515205 -0.5414928000997592
vn 0.02238781927932679 0.8234071734941808 -0.5670091817477387
vn -0.13110070258233905 0.8228739162084522 -0.5528934108905462
vn -0.2750111963887112 0.8210028892190623 -0.5003229934300462
vn -0.39916428766508333 0.8183148747125528 -0.41355608722035
vn -0.49533121032897093 0.8155418170062123 -0.29922990623973805
vn -0.5576412849709821 0.8134195780774887 -0.16548349554004613
vn -0.5825779913690292 0.812497887962735 -0.021214759685700496
vn -0.5688041961420713 0.8130120944857251 0.12439099915631494
vn -0.5170532857415088 0.8148311775298531 0.2621183927717066
vn -0.43019210869259744 0.8174864165183883 0.38295000773800864
vn -0.3133966093215043 0.820278524397934 0.4784618142311171
vn -0.39811428469044774 0.6868682735863643 0.6080435766175813
vn -0.37817109496319407 0.7234974903638419 0.5775274923079952
vn -0.23234589651143558 0.6512007902225263 0.7224630891525564
vn -0.19882210478237752 0.7605900182948903 0.6180393148660397
vn -0.03118655032702602 0.611891406416369 0.7903267082874637
vn -0.023996839363879845 0.7937098789599437 0.607822983887526
vn 0.18969370559464602 0.5684485167652809 0.8005514236107035
vn 0.410852410916739 0.5211997138487717 0.7480315198759083
vn 0.6122735098264696 0.4712228075627256 0.6348781101892541
vn 0.8544309979925486 0.15162439964376453 0.49694839883243963
vn 0.9247813339627339 -0.22585450829454087 0.30621761124588787
vn 0.9476586220915579 -0.31374500731393756 0.05922167138055936
vn 0.9949998248945157 0.0451481911295905 -0.08908978222899233
vn 0.9744164423770625 0.02888716125629349 -0.22288590969323763
vn 0.7887900112276055 0.4665302066405723 -0.40019980569642805
vn 0.6394879045397055 0.5162454036648106 -0.5696893040442073
vn 0.45198689014639215 0.5647079876889989 -0.6905162849462962
vn 0.24245850800172009 0.6105155201484961 -0.753979224883147
vn 0.029880570020116425 0.6525479004393133 -0.7571581005097398
vn -0.1668476974811721 0.6903890895774929 -0.7039351893729933
vn -0.15841409379953703 0.7268406715508352 -0.668287073842673
vn 0.025555849853839036 0.7617406956433946 -0.6473777962974676
vn 0.18672479452172897 0.7926526767445656 -0.5803753829725149
vn -0.18672479452172897 0.7926526767445656 0.5803753829725149
vn 0.023996839363879845 0.7937098789599437 -0.607822983887526
vn -0.14051020053111873 0.7931191029979348 -0.5926373022401277
vn -0.29465570222772386 0.7910479059806623 -0.5361168040532736
vn -0.42748229505388885 0.7880755908817054 -0.4429398948750393
vn -0.530222807577043 0.7850134112180772 -0.3203400045777548
vn -0.5967083736193295 0.7826727653977834 -0.1770944921705951
vn -0.6232953078388244 0.781657009830448 -0.022699740285481496
vn -0.608611487710278 0.7822236842045183 0.13310959731211128
vn -0.5534085837170927 0.7842293769256664 0.2805765917446119
vn -0.46064670911637584 0.7871603155782059 0.4101015081160668
vn -0.33574180612459364 0.7902465144156573 0.5126284093513547
vn -0.5454042833639097 0.683101779163818 0.48570168518497686
vn -0.5183461012451063 0.7199158017292917 0.4615610011087041
vn -0.41711351677866265 0.6481446260720394 0.6371223256286602
vn -0.35735650180917633 0.7579731038373639 0.545685902762625
vn -0.24245850800172009 0.6105155201484961 0.753979224883147
vn -0.03241544162841157 0.5692215285952275 0.8215449412708642
vn 0.196382794720121 0.523865485915536 0.828853877715725
vn 0.42363500183889785 0.47489580206140863 0.7713672033483199
vn 0.6914743967011107 0.20956549900020388 0.6913359967017708
vn 0.8314499165976612 -0.11931790238186099 0.5426364108322764
vn 0.9311595161648211 -0.3549518061619221 -0.08337368144735743
vn 0.907471316974351 -0.37953800709930025 -0.18012970336934597
vn -0.19748239003529755 0.6774420658171617 -0.7085710642464332
vn 0 1 0
vn 0 0.677824885437756 -0.7352233842046191
vn -0.3963779951457545 0.014030609828174053 -0.9179801887579501
vn -0.37789140593197684 0.6778717106409387 0.6306251098992819
vn -0.6217617765099279 0.07337382722794716 0.7797618705407067
vn -0.19698369371797242 0.6779725783787056 0.7082023774146439
vn 0 0.677824885437756 0.7352233842046191
vn 0.19698369371797242 0.6779725783787056 -0.7082023774146439
vn 0.3777020009771812 0.6783689017550593 -0.6302038016304475
vn 0.5287973036495105 0.6788937046854053 -0.5093886035155607
vn 0.6412678298577195 0.6794001316331766 -0.35663851660525026
vn 0.71016158195739 0.6797597827297887 -0.18329529534313652
vn 0.7333148754931123 0.679889177278563 0
vn 0.71016158195739 0.6797597827297887 0.18329529534313652
vn 0.6412678298577195 0.6794001316331766 0.35663851660525026
vn 0.5287973036495105 0.6788937046854053 0.5093886035155607
vn 0.3777020009771812 0.6783689017550593 0.6302038016304475
vn 0.19698369371797242 0.6779725783787056 0.7082023774146439
vn 0.8889892850596629 0.010077749830633528 -0.45781709230593465
vn 0.6590076097176438 0.47010000693203596 -0.5871243086576617
vn 0.4677153178077887 0.5201732198050704 -0.7146063272079147
vn 0.25196911359968427 0.567839030648326 -0.783626442295153
vn 0.03118655032702602 0.611891406416369 -0.7903267082874637
vn -0.17489370603816856 0.6517948225030797 -0.7379537254776978
vn -0.3495321075442487 0.6878490148464301 -0.6361533137306379
vn -0.3319786055082206 0.7244292120197985 -0.6041461100240498
vn -0.1496246993617474 0.7610976967533931 -0.6311439973077354
vn -0.31366541326120145 0.7588443320825541 -0.5707620241307773
vn -0.45484619620913447 0.7556144937024142 -0.4713402960716662
vn -0.5638894330752344 0.7522917441260722 -0.3407137199847444
vn -0.6343619154972684 0.7497550183162867 -0.18828800459981862
vn -0.662520391389304 0.7486550902698218 -0.0241306196863773
vn -0.6469703399206947 0.7492686462329151 0.1415128087319144
vn -0.5884745010419589 0.7514417013305102 0.29838420052832204
vn -0.49006231910513626 0.7546208294189805 0.43633281701048543
vn -0.6543056252808453 0.6795401262558476 0.33182731282103445
vn -0.6221429946471128 0.7165238938350643 0.3154862972855717
vn -0.571141783847985 0.6442453817805991 0.5086697856147068
vn -0.4350954127089262 0.6073970177417726 0.6646509194141313
vn -0.25196911359968427 0.567839030648326 0.783626442295153
vn -0.033561618363460444 0.5246291744179084 0.8506690585194745
vn 0.2025552936669863 0.4774795850713121 0.8549763732686468
vn 0.47889159228674216 0.2691843956643869 0.8355851865416639
vn 0.6680919159216265 -0.0020543930489592497 0.7440759177324386
vn 0.8131003075986094 -0.42244330394782986 -0.4005116037428731
vn -0.3777652172166804 -0.6783054309138249 -0.630234228722976
vn -0.5141196026124789 0.00003860916019619096 -0.8577185043584635
vn -0.1973599920750995 -0.67793647277777 -0.7081321715652755
vn -0.46084930374061706 0.13501070109585353 -0.8771488071196327
vn -0.25140139884524176 -0.26732699877209093 -0.9302330957271744
vn -0.3186095827226535 -0.7825984575617764 -0.5348154709983858
vn -0.214482202675277 0.08706815108601748 -0.9728394121344096
vn 0.3186095827226535 0.7825984575617764 0.5348154709983858
vn 0.39442109390825897 0.7476935884520484 0.5342155917491659
vn 0.7296533961775612 0.3113903983687176 0.608803696810657
vn -0.09374482330373103 0.9945184350485637 -0.04631404163218758
vn 0.09188471920446724 0.9873479914515962 -0.1292328988811088
vn -0.04719133229671767 0.9988608486127695 0.007069884344078616
vn 0.12752960358023427 0.9766897274193438 -0.1726655048473683
vn 0.008950238076892809 0.999402308586012 0.033390400286861834
vn -0.09797586022044229 0.9744478021924737 -0.20211930045476142
vn -0.03101414081057657 0.9986192260996218 0.042400051108155416
vn -0.21461459966056126 0.9595267984823933 -0.182342799711603
vn -0.0683878424326562 0.9947583353850179 0.0760194527041238
vn -0.0492907117994562 0.9083395331607547 -0.4153188151620455
vn -0.8261969829604328 0.023920839506654273 0.5628732883912464
vn 0.543998307772248 0.5545943079236358 -0.6296753089963381
vn 0.42937208155603496 0.6296117729546051 -0.6474786721871204
vn 0.013740279760131417 -0.351447693864662 -0.9361066836580777
vn 0.0508917421075286 0.048872652023914054 -0.9975076413087822
vn 0.2653333055564483 -0.4085193085549622 -0.8733328182888034
vn 0.31249901414644793 0.021932900992875586 -0.9496648429901651
vn 0.48734249095501364 -0.4382142918668239 -0.7552916859819262
vn 0.5493788105330734 0.006565356125875582 -0.8355476160197011
vn 0.6714779784302979 -0.4422791857927875 -0.5945640809009819
vn 0.7451793012345057 0.0026485900043878023 -0.6668589011047558
vn 0.4481876022539153 0.11399670057328429 0.8866412044588787
vn 0.23334540426358347 0.324086205921559 0.9167977167513202
vn 0.19648140335751746 0.21643480369848558 0.9563216163418342
vn -0.024118210417256935 0.3684554063744602 0.9293325160779109
vn -0.05990728155802521 0.2965686077129417 0.9531307247883339
vn -0.2726411936797723 0.39873469075673784 0.8756011797022646
vn -0.29998259189923276 0.35086179052528454 0.8870774760452494
vn -0.495235517272837 0.41392811443699534 0.7638097266401751
vn -0.42937208155603496 -0.6296117729546051 0.6474786721871204
vn -0.37766269857793944 -0.6783539974457089 0.6302433976268657
vn -0.72057259125708 -0.00014620389822606495 0.693379491587022
vn -0.5290101242067474 -0.6789846310693666 0.5090463232932323
vn -0.19698369371797242 -0.6779725783787056 0.7082023774146439
vn 0 -0.677824885437756 0.7352233842046191
vn 0.19698369371797242 -0.6779725783787056 0.7082023774146439
vn 0.3777020009771812 -0.6783689017550593 0.6302038016304475
vn 0.5287973036495105 -0.6788937046854053 0.5093886035155607
vn 0.6412678298577195 -0.6794001316331766 0.35663851660525026
vn 0.71016158195739 -0.6797597827297887 0.18329529534313652
vn 0.7333148754931123 -0.679889177278563 0
vn 0.71016158195739 -0.6797597827297887 -0.18329529534313652
vn 0.6412678298577195 -0.6794001316331766 -0.35663851660525026
vn 0.5287973036495105 -0.6788937046854053 -0.5093886035155607
vn 0.3777020009771812 -0.6783689017550593 -0.6302038016304475
vn 0.19698369371797242 -0.6779725783787056 -0.7082023774146439
vn 0 -0.677824885437756 -0.7352233842046191
vn 0.48220988588807484 0.473901486131221 -0.7368113784371342
vn 0.26083518597011396 0.5232635718545324 -0.8112707563631102
vn 0.03241544162841157 0.5692215285952275 -0.8215449412708642
vn -0.18251980888428518 0.6111221297468166 -0.7702053374903081
vn -0.36626150316905015 0.649160905616816 -0.6666653057682715
vn -0.5063626277172757 0.6842170374526697 -0.5248275287280074
vn -0.481169006243115 0.7209769093545962 -0.49866690647014833
vn -0.5962269064353782 0.7174303077435878 -0.36028770388876724
vn -0.670487502329934 0.7147263024836632 -0.1990297006916252
vn -0.7001351946577528 0.7135546945553578 -0.025503079805403644
vn -0.6837645584218375 0.7142081565706317 0.14957519090467397
vn -0.7188783168404363 0.677111315862003 0.15727120368423367
vn -0.684854096992703 0.6405634971871896 0.3473517984747262
vn -0.5954640319755559 0.6034233324029589 0.5303799284806339
vn -0.45198689014639215 0.5647079876889989 0.6905162849462962
vn -0.26083518597011396 0.5232635718545324 0.8112707563631102
vn -0.03461956888161857 0.4782201845511486 0.877557371650604
vn -0.5285137814638223 -0.6789626761872382 -0.5095908821274913
vn -0.6412678298577195 -0.6794001316331766 -0.35663851660525026
vn -0.71016158195739 -0.6797597827297887 -0.18329529534313652
vn -0.7333148754931123 -0.679889177278563 0
vn -0.71016158195739 -0.6797597827297887 0.18329529534313652
vn -0.6414528649555772 -0.6794403628802105 0.35622888053818735
vn -0.6228279189568566 -0.00023274590708402863 -0.7823588238124587
vn -0.7198765790405363 -0.00011738289658235504 -0.69410207979097
vn -0.6675768970534992 0.18938299916411552 -0.7200521968218877
vn -0.39442109390825897 -0.7476935884520484 -0.5342155917491659
vn -0.7188118062498555 -0.043148270375161425 -0.6938644060329454
vn -0.42363500183889785 0.47489580206140863 -0.7713672033483199
vn -0.2025552936669863 0.4774795850713121 -0.8549763732686468
vn -0.8739381825231375 0 -0.4860370902803155
vn -0.9682681382743961 0 -0.2499136098787641
vn -0.12752960358023427 -0.9766897274193438 0.1726655048473683
vn -1 0 0
vn -0.008950238076892809 -0.999402308586012 -0.033390400286861834
vn -0.9682681382743961 0 0.2499136098787641
vn -0.8742347044970054 -0.00017468770089858196 0.4855035024973978
vn 0.0492907117994562 -0.9083395331607547 0.4153188151620455
vn -0.8052622691209068 -0.0003465288867117855 0.5929186772635677
vn 0.03461956888161857 0.4782201845511486 -0.877557371650604
vn 0.2690147034837162 0.4768960061757604 -0.8367803108362298
vn -0.2690147034837162 0.4768960061757604 0.8367803108362298
vn -0.48220988588807484 0.473901486131221 0.7368113784371342
vn -0.543998307772248 -0.5545943079236358 0.6296753089963381
vn -0.6796595956478609 0.4146534973448036 0.6050828961254061
vn -0.6873956923174389 0.38333309571574276 0.6168815931055277
vn 0.033561618363460444 0.5246291744179084 -0.8506690585194745
vn -0.18969370559464602 0.5684485167652809 -0.8005514236107035
vn -0.38210148964410023 0.6084335835099381 -0.6955623811485313
vn -0.5303376053130043 0.6453993064657103 -0.5497288055072684
vn -0.6271300029542934 0.6804914032056691 -0.378997901785389
vn -0.7049708958662939 0.6776544960264679 -0.20928549877282207
vn -0.7360220055906229 0.6764264051379509 -0.02681279020366266
vn -0.7521967070843879 0.6380557060093777 0.1645753015500138
vn -0.7136809751740368 0.5996765791397709 0.36200478740737413
vn -0.6182768723547334 0.5607235749281375 0.5507474753742029
vn -0.4677153178077887 0.5201732198050704 0.7146063272079147
vn -0.7729114957032381 0.41259829770628764 -0.48204819732020243
vn -0.7296533961775612 -0.3113903983687176 -0.608803696810657
vn -0.6122735098264696 0.4712228075627256 -0.6348781101892541
vn -0.410852410916739 0.5211997138487717 -0.7480315198759083
vn -0.196382794720121 0.523865485915536 -0.828853877715725
vn -0.8169723344690031 0.3847479162329574 0.42956401812380035
vn -0.6590076097176438 0.47010000693203596 0.5871243086576617
vn -0.39698670767274274 0.565748410934477 -0.7227242139684198
vn -0.5530044074130103 0.6045987081046307 -0.5732770076847641
vn -0.6564935175115644 0.6415464171128595 -0.3967801105838676
vn -0.7376982933512951 0.6386163942442974 -0.21902129802601145
vn -0.7700644344847951 0.637348928541569 -0.028055481256372167
vn -0.7836065232250123 0.5971276176980358 0.1714626050819142
vn -0.7406804915434064 0.556971993640867 0.3757320957101427
vn -0.6394879045397055 0.5162454036648106 0.5696893040442073
vn -0.8103537885920419 0.2909890959035282 -0.5085784928403592
vn -0.7564884148114684 0.46748140915293085 -0.45736900895493776
vn -0.5940588088240278 0.5174061076854443 -0.6159424091490824
vn -0.8097063645355747 0.419029181646891 0.4108407820055357
vn -0.7887900112276055 0.4665302066405723 0.40019980569642805
vn -0.5742740792692029 0.561901479715843 -0.595378878507338
vn -0.6842129167315855 0.6006763146888006 -0.41357061011336066
vn -0.7685578031586265 0.5976973024564224 -0.22820350093787303
vn -0.8021479013711972 0.5964097010195069 -0.029226920049960695
vn -0.8129969953847299 0.5544225968526206 0.1779085989900378
vn -0.765749930114135 0.5125522201567981 0.3884807152775211
vn 0.09374482330373103 -0.9945184350485637 0.04631404163218758
vn -0.8711769034171132 0.4172499016366253 -0.258753401014937
vn -0.9083309735641856 0.3259968905122763 -0.26203219237388725
vn -0.8488485807061942 0.4646499894387917 -0.2521040942698291
vn -0.7343092894814822 0.5135366926439104 -0.44392559364104556
vn -0.9046372067175464 0.37180120276087675 0.208315601546885
vn -0.8880038574515671 0.4167386800320938 0.19436569068702747
vn -0.86529572942783 0.4641095157838938 0.18938230644070014
vn -0.7101850198138286 0.5579725155671712 -0.42930631197744457
vn -0.7974395968775416 0.5549920978268702 -0.23679919907278787
vn -0.8321606870026903 0.5537048913518219 -0.030322999526392655
vn -0.840261014454002 0.5100452087736957 0.18388940316322877
vn -0.9087177893399043 0.41609499511882286 -0.03311999961147193
vn -0.9351431772909644 0.35333339141964487 -0.025743979374832693
vn -0.09188471920446724 -0.9873479914515962 0.1292328988811088
vn 0.04719133229671767 -0.9988608486127695 -0.007069884344078616
vn -0.8855462084123888 0.4634289044024176 -0.03227326030658503
vn -0.8242372135786735 0.5106051084118262 -0.24477630403250117
vn -0.8599945897613996 0.5093398939360925 -0.03133971962688734
usemtl material_0_0
f 1/1/1 2/2/2 3/3/3
f 2/2/2 1/1/1 4/4/4
f 5/5/5 2/2/2 4/4/4
f 2/2/2 5/5/5 6/6/6
f 3/3/3 7/7/7 8/8/8
f 7/7/7 3/3/3 2/2/2
f 9/9/9 10/10/10 11/11/11
f 10/10/10 9/9/9 3/3/3
f 3/3/3 9/9/9 1/1/1
f 1/1/1 9/9/9 12/12/12
f 13/13/13 1/1/1 14/14/14
f 1/1/1 13/13/13 4/4/4
f 15/15/15 6/6/6 5/5/5
f 6/6/6 15/15/15 16/16/16
f 2/2/2 17/17/17 7/7/7
f 17/17/17 2/2/2 6/6/6
f 18/18/18 4/4/4 13/13/13
f 4/4/4 18/18/18 5/5/5
f 8/8/8 19/19/19 20/20/20
f 19/19/19 8/8/8 7/7/7
f 11/11/11 21/21/21 22/22/22
f 21/21/21 11/11/11 8/8/8
f 8/8/8 11/11/11 3/3/3
f 3/3/3 11/11/11 10/10/10
f 23/23/23 11/11/11 24/24/24
f 11/11/11 23/23/23 9/9/9
f 25/25/25 12/12/12 9/9/9
f 12/12/12 25/25/25 26/26/26
f 12/12/12 26/26/26 1/1/1
f 1/1/1 26/26/26 14/14/14
f 27/27/27 14/14/14 28/28/28
f 14/14/14 27/27/27 13/13/13
f 29/29/29 16/16/16 15/15/15
f 16/16/16 29/29/29 30/30/30
f 16/16/16 17/17/17 6/6/6
f 17/17/17 16/16/16 31/31/31
f 32/32/32 5/5/5 18/18/18
f 5/5/5 32/32/32 15/15/15
f 7/7/7 33/33/33 19/19/19
f 33/33/33 7/7/7 17/17/17
f 34/34/34 13/13/13 27/27/27
f 13/13/13 34/34/34 18/18/18
f 20/20/20 35/35/35 36/36/36
f 35/35/35 20/20/20 19/19/19
f 22/22/22 37/37/37 38/38/38
f 37/37/37 22/22/22 20/20/20
f 20/20/20 22/22/22 8/8/8
f 8/8/8 22/22/22 21/21/21
f 24/24/24 22/22/22 39/39/39
f 22/22/22 24/24/24 11/11/11
f 40/40/40 24/24/24 41/41/41
f 24/24/24 40/40/40 23/23/23
f 42/42/42 9/9/9 23/23/23
f 9/9/9 42/42/42 25/25/25
f 43/43/43 26/26/26 25/25/25
f 26/26/26 43/43/43 44/44/44
f 26/26/26 44/44/44 14/14/14
f 14/14/14 44/44/44 28/28/28
f 45/45/45 28/28/28 46/46/46
f 28/28/28 45/45/45 27/27/27
f 47/47/47 30/30/30 29/29/29
f 30/30/30 47/47/47 48/48/48
f 30/30/30 31/31/31 16/16/16
f 31/31/31 30/30/30 49/49/49
f 50/50/50 15/15/15 32/32/32
f 15/15/15 50/50/50 29/29/29
f 31/31/31 33/33/33 17/17/17
f 33/33/33 31/31/31 51/51/51
f 52/52/52 18/18/18 34/34/34
f 18/18/18 52/52/52 32/32/32
f 19/19/19 53/53/53 35/35/35
f 53/53/53 19/19/19 33/33/33
f 54/54/54 27/27/27 45/45/45
f 27/27/27 54/54/54 34/34/34
f 36/36/36 55/55/55 56/56/56
f 55/55/55 36/36/36 35/35/35
f 38/38/38 57/57/57 58/58/58
f 57/57/57 38/38/38 36/36/36
f 36/36/36 38/38/38 20/20/20
f 20/20/20 38/38/38 37/37/37
f 39/39/39 38/38/38 59/59/59
f 38/38/38 39/39/39 22/22/22
f 41/41/41 39/39/39 60/60/60
f 39/39/39 41/41/41 24/24/24
f 61/61/61 41/41/41 62/62/62
f 41/41/41 61/61/61 40/40/40
f 63/63/63 23/23/23 40/40/40
f 23/23/23 63/63/63 42/42/42
f 64/64/64 25/25/25 42/42/42
f 25/25/25 64/64/64 43/43/43
f 65/65/65 44/44/44 43/43/43
f 44/44/44 65/65/65 66/66/66
f 44/44/44 66/66/66 28/28/28
f 28/28/28 66/66/66 46/46/46
f 67/67/67 46/46/46 68/68/68
f 46/46/46 67/67/67 45/45/45
f 69/69/69 48/48/48 47/47/47
f 48/48/48 69/69/69 70/70/70
f 71/71/71 30/30/30 48/48/48
f 30/30/30 71/71/71 49/49/49
f 72/72/72 29/29/29 50/50/50
f 29/29/29 72/72/72 47/47/47
f 73/73/73 31/31/31 49/49/49
f 31/31/31 73/73/73 51/51/51
f 74/74/74 32/32/32 52/52/52
f 32/32/32 74/74/74 50/50/50
f 33/33/33 75/75/75 53/53/53
f 75/75/75 33/33/33 51/51/51
f 76/76/76 34/34/34 54/54/54
f 34/34/34 76/76/76 52/52/52
f 35/35/35 77/77/77 55/55/55
f 77/77/77 35/35/35 53/53/53
f 78/78/78 45/45/45 67/67/67
f 45/45/45 78/78/78 54/54/54
f 56/56/56 79/79/79 80/80/80
f 79/79/79 56/56/56 55/55/55
f 58/58/58 81/81/81 82/82/82
f 81/81/81 58/58/58 56/56/56
f 56/56/56 58/58/58 36/36/36
f 36/36/36 58/58/58 57/57/57
f 59/59/59 58/58/58 83/83/83
f 58/58/58 59/59/59 38/38/38
f 60/60/60 59/59/59 84/84/84
f 59/59/59 60/60/60 39/39/39
f 62/62/62 60/60/60 85/85/85
f 60/60/60 62/62/62 41/41/41
f 86/86/86 62/62/62 87/87/87
f 62/62/62 86/86/86 61/61/61
f 88/88/88 40/40/40 61/61/61
f 40/40/40 88/88/88 63/63/63
f 89/89/89 42/42/42 63/63/63
f 42/42/42 89/89/89 64/64/64
f 90/90/90 43/43/43 64/64/64
f 43/43/43 90/90/90 65/65/65
f 91/91/91 66/66/66 65/65/65
f 66/66/66 91/91/91 92/92/92
f 66/66/66 92/92/92 46/46/46
f 46/46/46 92/92/92 68/68/68
f 93/93/93 94/94/94 95/95/95
f 94/94/94 93/93/93 96/96/96
f 94/94/94 96/96/96 97/97/97
f 97/97/97 96/96/96 98/98/98
f 97/97/97 98/98/98 99/99/99
f 99/99/99 98/98/98 100/100/100
f 99/99/99 100/100/100 101/101/101
f 101/101/101 100/100/100 102/102/102
f 101/101/101 102/102/102 91/91/91
f 91/91/91 102/102/102 103/103/103
f 91/91/91 103/103/103 92/92/92
f 92/92/92 103/103/103 104/104/104
f 92/92/92 104/104/104 68/68/68
f 68/68/68 104/104/104 67/67/67
f 67/67/67 104/104/104 105/105/105
f 67/67/67 105/105/105 78/78/78
f 78/78/78 105/105/105 106/106/106
f 78/78/78 106/106/106 107/107/107
f 107/107/107 106/106/106 108/108/108
f 107/107/107 108/108/108 109/109/109
f 109/109/109 108/108/108 110/110/110
f 109/109/109 110/110/110 111/111/111
f 111/111/111 110/110/110 112/112/112
f 113/113/113 69/69/69 114/114/114
f 69/69/69 113/113/113 70/70/70
f 71/71/71 70/70/70 115/115/115
f 70/70/70 71/71/71 48/48/48
f 116/116/116 47/47/47 72/72/72
f 47/47/47 116/116/116 69/69/69
f 117/117/117 49/49/49 71/71/71
f 49/49/49 117/117/117 73/73/73
f 118/118/118 50/50/50 74/74/74
f 50/50/50 118/118/118 72/72/72
f 119/119/119 51/51/51 73/73/73
f 51/51/51 119/119/119 75/75/75
f 120/120/120 52/52/52 76/76/76
f 52/52/52 120/120/120 74/74/74
f 53/53/53 121/121/121 77/77/77
f 121/121/121 53/53/53 75/75/75
f 107/107/107 54/54/54 78/78/78
f 54/54/54 107/107/107 76/76/76
f 55/55/55 122/122/122 79/79/79
f 122/122/122 55/55/55 77/77/77
f 80/80/80 123/123/123 124/124/124
f 123/123/123 80/80/80 79/79/79
f 82/82/82 125/125/125 126/126/126
f 125/125/125 82/82/82 80/80/80
f 80/80/80 82/82/82 56/56/56
f 56/56/56 82/82/82 81/81/81
f 83/83/83 82/82/82 127/127/127
f 82/82/82 83/83/83 58/58/58
f 84/84/84 83/83/83 128/128/128
f 83/83/83 84/84/84 59/59/59
f 85/85/85 84/84/84 129/129/129
f 84/84/84 85/85/85 60/60/60
f 62/62/62 130/130/130 87/87/87
f 130/130/130 62/62/62 85/85/85
f 131/131/131 87/87/87 132/132/132
f 87/87/87 131/131/131 86/86/86
f 133/133/133 61/61/61 86/86/86
f 61/61/61 133/133/133 88/88/88
f 134/134/134 63/63/63 88/88/88
f 63/63/63 134/134/134 89/89/89
f 135/135/135 64/64/64 89/89/89
f 64/64/64 135/135/135 90/90/90
f 101/101/101 65/65/65 90/90/90
f 65/65/65 101/101/101 91/91/91
f 136/136/136 112/112/112 110/110/110
f 112/112/112 136/136/136 137/137/137
f 112/112/112 138/138/138 111/111/111
f 138/138/138 112/112/112 137/137/137
f 111/111/111 120/120/120 109/109/109
f 120/120/120 111/111/111 138/138/138
f 109/109/109 76/76/76 107/107/107
f 76/76/76 109/109/109 120/120/120
f 99/99/99 90/90/90 135/135/135
f 90/90/90 99/99/99 101/101/101
f 97/97/97 135/135/135 139/139/139
f 135/135/135 97/97/97 99/99/99
f 94/94/94 139/139/139 140/140/140
f 139/139/139 94/94/94 97/97/97
f 95/95/95 140/140/140 141/141/141
f 140/140/140 95/95/95 94/94/94
f 142/142/142 95/95/95 141/141/141
f 95/95/95 142/142/142 93/93/93
f 143/143/143 93/93/93 142/142/142
f 93/93/93 143/143/143 96/96/96
f 144/144/144 96/96/96 143/143/143
f 96/96/96 144/144/144 98/98/98
f 145/145/145 98/98/98 144/144/144
f 98/98/98 145/145/145 100/100/100
f 146/146/146 100/100/100 145/145/145
f 100/100/100 146/146/146 102/102/102
f 147/147/147 102/102/102 146/146/146
f 102/102/102 147/147/147 103/103/103
f 148/148/148 103/103/103 147/147/147
f 103/103/103 148/148/148 104/104/104
f 148/148/148 105/105/105 104/104/104
f 105/105/105 148/148/148 149/149/149
f 149/149/149 106/106/106 105/105/105
f 106/106/106 149/149/149 150/150/150
f 150/150/150 108/108/108 106/106/106
f 108/108/108 150/150/150 151/151/151
f 151/151/151 110/110/110 108/108/108
f 110/110/110 151/151/151 136/136/136
f 152/152/152 114/114/114 153/153/153
f 114/114/114 152/152/152 113/113/113
f 115/115/115 113/113/113 154/154/154
f 113/113/113 115/115/115 70/70/70
f 114/114/114 116/116/116 155/155/155
f 116/116/116 114/114/114 69/69/69
f 117/117/117 115/115/115 156/156/156
f 115/115/115 117/117/117 71/71/71
f 157/157/157 72/72/72 118/118/118
f 72/72/72 157/157/157 116/116/116
f 158/158/158 73/73/73 117/117/117
f 73/73/73 158/158/158 119/119/119
f 138/138/138 74/74/74 120/120/120
f 74/74/74 138/138/138 118/118/118
f 159/159/159 75/75/75 119/119/119
f 75/75/75 159/159/159 121/121/121
f 77/77/77 160/160/160 122/122/122
f 160/160/160 77/77/77 121/121/121
f 79/79/79 161/161/161 123/123/123
f 161/161/161 79/79/79 122/122/122
f 124/124/124 162/162/162 163/163/163
f 162/162/162 124/124/124 123/123/123
f 126/126/126 164/164/164 165/165/165
f 164/164/164 126/126/126 124/124/124
f 124/124/124 126/126/126 80/80/80
f 80/80/80 126/126/126 125/125/125
f 127/127/127 126/126/126 166/166/166
f 126/126/126 127/127/127 82/82/82
f 128/128/128 127/127/127 167/167/167
f 127/127/127 128/128/128 83/83/83
f 84/84/84 168/168/168 129/129/129
f 168/168/168 84/84/84 128/128/128
f 85/85/85 169/169/169 130/130/130
f 169/169/169 85/85/85 129/129/129
f 87/87/87 170/170/170 132/132/132
f 170/170/170 87/87/87 130/130/130
f 171/171/171 131/131/131 132/132/132
f 131/131/131 171/171/171 172/172/172
f 173/173/173 86/86/86 131/131/131
f 86/86/86 173/173/173 133/133/133
f 174/174/174 88/88/88 133/133/133
f 88/88/88 174/174/174 134/134/134
f 139/139/139 89/89/89 134/134/134
f 89/89/89 139/139/139 135/135/135
f 175/175/175 137/137/137 136/136/136
f 137/137/137 175/175/175 157/157/157
f 137/137/137 118/118/118 138/138/138
f 118/118/118 137/137/137 157/157/157
f 140/140/140 134/134/134 174/174/174
f 134/134/134 140/140/140 139/139/139
f 141/141/141 174/174/174 176/176/176
f 174/174/174 141/141/141 140/140/140
f 177/177/177 141/141/141 176/176/176
f 141/141/141 177/177/177 142/142/142
f 178/178/178 142/142/142 177/177/177
f 142/142/142 178/178/178 143/143/143
f 179/179/179 143/143/143 178/178/178
f 143/143/143 179/179/179 144/144/144
f 180/180/180 144/144/144 179/179/179
f 144/144/144 180/180/180 145/145/145
f 181/181/181 145/145/145 180/180/180
f 145/145/145 181/181/181 146/146/146
f 182/182/182 146/146/146 181/181/181
f 146/146/146 182/182/182 147/147/147
f 183/183/183 147/147/147 182/182/182
f 147/147/147 183/183/183 148/148/148
f 183/183/183 149/149/149 148/148/148
f 149/149/149 183/183/183 184/184/184
f 184/184/184 150/150/150 149/149/149
f 150/150/150 184/184/184 185/185/185
f 185/185/185 151/151/151 150/150/150
f 151/151/151 185/185/185 186/186/186
f 186/186/186 136/136/136 151/151/151
f 136/136/136 186/186/186 175/175/175
f 187/187/187 153/153/153 188/188/188
f 153/153/153 187/187/187 152/152/152
f 154/154/154 152/152/152 189/189/189
f 152/152/152 154/154/154 113/113/113
f 153/153/153 155/155/155 190/190/190
f 155/155/155 153/153/153 114/114/114
f 156/156/156 154/154/154 191/191/191
f 154/154/154 156/156/156 115/115/115
f 155/155/155 157/157/157 175/175/175
f 157/157/157 155/155/155 116/116/116
f 158/158/158 156/156/156 192/192/192
f 156/156/156 158/158/158 117/117/117
f 193/193/193 119/119/119 158/158/158
f 119/119/119 193/193/193 159/159/159
f 194/194/194 121/121/121 159/159/159
f 121/121/121 194/194/194 160/160/160
f 122/122/122 195/195/195 161/161/161
f 195/195/195 122/122/122 160/160/160
f 123/123/123 196/196/196 162/162/162
f 196/196/196 123/123/123 161/161/161
f 165/165/165 197/197/197 198/198/198
f 197/197/197 165/165/165 163/163/163
f 163/163/163 165/165/165 124/124/124
f 124/124/124 165/165/165 164/164/164
f 199/199/199 200/200/200 201/201/201
f 200/200/200 199/199/199 202/202/200
f 202/202/200 199/199/199 203/203/202
f 204/204/203 205/205/200 206/206/204
f 205/205/200 204/204/203 207/207/205
f 205/205/200 207/207/205 208/208/200
f 208/208/200 207/207/205 209/209/206
f 200/200/200 210/199/207 201/201/201
f 210/199/207 200/200/200 211/210/200
f 210/199/207 211/210/200 212/211/208
f 212/211/208 211/210/200 213/212/200
f 212/211/208 213/212/200 214/213/209
f 214/213/209 213/212/200 215/214/200
f 214/213/209 215/214/200 216/215/210
f 216/215/210 215/214/200 217/216/200
f 216/215/210 217/216/200 218/217/211
f 218/217/211 217/216/200 219/198/200
f 218/217/211 219/198/200 220/218/212
f 220/218/212 219/198/200 221/197/200
f 220/218/212 221/197/200 222/163/200
f 220/218/212 222/163/200 223/219/213
f 223/219/213 222/163/200 224/162/200
f 223/219/213 224/162/200 225/220/214
f 225/220/214 224/162/200 226/196/200
f 225/220/214 226/196/200 227/221/215
f 227/221/215 226/196/200 228/222/200
f 227/221/215 228/222/200 229/204/216
f 229/204/216 228/222/200 230/223/200
f 229/204/216 230/223/200 231/207/217
f 231/207/217 230/223/200 232/224/200
f 231/207/217 232/224/200 208/208/200
f 231/207/217 208/208/200 209/209/206
f 166/166/166 165/165/165 233/225/218
f 165/165/165 166/166/166 126/126/126
f 167/167/167 166/166/166 234/226/219
f 166/166/166 167/167/167 127/127/127
f 128/128/128 235/227/220 168/168/168
f 235/227/220 128/128/128 167/167/167
f 129/129/129 236/228/221 169/169/169
f 236/228/221 129/129/129 168/168/168
f 130/130/130 237/229/222 170/170/170
f 237/229/222 130/130/130 169/169/169
f 171/171/171 170/170/170 238/230/223
f 170/170/170 171/171/171 132/132/132
f 239/231/224 172/172/172 171/171/171
f 172/172/172 239/231/224 240/232/225
f 172/172/172 173/173/173 131/131/131
f 173/173/173 172/172/172 241/233/226
f 176/176/176 133/133/133 173/173/173
f 133/133/133 176/176/176 174/174/174
f 241/233/226 176/176/176 173/173/173
f 176/176/176 241/233/226 177/177/177
f 242/234/227 177/177/177 241/233/226
f 177/177/177 242/234/227 178/178/178
f 243/235/228 178/178/178 242/234/227
f 178/178/178 243/235/228 179/179/179
f 244/236/229 179/179/179 243/235/228
f 179/179/179 244/236/229 180/180/180
f 245/237/230 180/180/180 244/236/229
f 180/180/180 245/237/230 181/181/181
f 246/238/231 181/181/181 245/237/230
f 181/181/181 246/238/231 182/182/182
f 247/239/232 182/182/182 246/238/231
f 182/182/182 247/239/232 183/183/183
f 247/239/232 184/184/184 183/183/183
f 184/184/184 247/239/232 248/240/233
f 248/240/233 185/185/185 184/184/184
f 185/185/185 248/240/233 249/241/234
f 249/241/234 186/186/186 185/185/185
f 186/186/186 249/241/234 190/190/190
f 190/190/190 175/175/175 186/186/186
f 175/175/175 190/190/190 155/155/155
f 250/242/235 188/188/188 251/243/236
f 188/188/188 250/242/235 187/187/187
f 252/244/237 152/152/152 187/187/187
f 152/152/152 252/244/237 189/189/189
f 188/188/188 190/190/190 249/241/234
f 190/190/190 188/188/188 153/153/153
f 191/191/191 189/189/189 253/245/238
f 189/189/189 191/191/191 154/154/154
f 192/192/192 191/191/191 254/246/239
f 191/191/191 192/192/192 156/156/156
f 193/193/193 192/192/192 255/247/240
f 192/192/192 193/193/193 158/158/158
f 256/248/241 159/159/159 193/193/193
f 159/159/159 256/248/241 194/194/194
f 257/249/242 160/160/160 194/194/194
f 160/160/160 257/249/242 195/195/195
f 161/161/161 258/222/243 196/196/196
f 258/222/243 161/161/161 195/195/195
f 233/225/218 198/198/198 259/216/244
f 198/198/198 233/225/218 165/165/165
f 203/203/202 260/250/245 261/211/246
f 260/250/245 203/203/202 262/251/247
f 262/251/247 203/203/202 199/199/199
f 263/252/248 264/202/249 265/203/250
f 264/202/249 263/252/248 266/253/251
f 267/202/200 268/210/200 269/200/200
f 268/210/200 267/202/200 270/203/252
f 268/210/200 270/203/252 271/212/200
f 271/212/200 270/203/252 272/254/253
f 271/212/200 272/254/253 273/214/200
f 273/214/200 272/254/253 274/255/200
f 273/214/200 274/255/200 275/256/254
f 273/214/200 275/256/254 276/257/255
f 273/214/200 276/257/255 277/216/200
f 277/216/200 276/257/255 278/258/256
f 277/216/200 278/258/256 279/259/257
f 277/216/200 279/259/257 280/198/200
f 280/198/200 279/259/257 281/260/258
f 280/198/200 281/260/258 282/261/259
f 280/198/200 282/261/259 283/197/200
f 283/197/200 282/261/259 284/262/260
f 283/197/200 284/262/260 285/263/261
f 283/197/200 285/263/261 286/163/200
f 286/163/200 285/263/261 287/162/200
f 287/162/200 285/263/261 288/264/262
f 287/162/200 288/264/262 289/265/263
f 287/162/200 289/265/263 290/196/200
f 290/196/200 289/265/263 291/266/264
f 290/196/200 291/266/264 292/267/265
f 290/196/200 292/267/265 293/222/200
f 293/222/200 292/267/265 294/268/200
f 293/222/200 294/268/200 295/269/266
f 293/222/200 295/269/266 296/206/267
f 293/222/200 296/206/267 297/223/200
f 297/223/200 296/206/267 298/205/200
f 297/223/200 298/205/200 299/224/200
f 299/224/200 298/205/200 300/208/200
f 266/253/251 301/200/268 264/202/249
f 301/200/268 266/253/251 302/270/269
f 302/270/269 303/210/270 301/200/268
f 303/210/270 302/270/269 304/271/271
f 304/271/271 305/212/272 303/210/270
f 305/212/272 304/271/271 306/272/273
f 306/272/273 307/214/274 305/212/272
f 307/214/274 306/272/273 308/273/275
f 308/273/275 259/216/244 307/214/274
f 259/216/244 308/273/275 233/225/218
f 258/222/243 257/249/242 309/223/276
f 257/249/242 258/222/243 195/195/195
f 309/223/276 310/274/277 311/224/278
f 310/274/277 309/223/276 257/249/242
f 311/224/278 312/275/279 313/208/280
f 312/275/279 311/224/278 310/274/277
f 313/208/280 314/276/281 315/205/282
f 314/276/281 313/208/280 312/275/279
f 315/205/282 316/277/283 317/206/284
f 316/277/283 315/205/282 314/276/281
f 318/278/285 319/221/286 320/279/287
f 319/221/286 318/278/285 206/206/204
f 206/206/204 318/278/285 204/204/203
f 321/280/288 204/204/203 318/278/285
f 204/204/203 321/280/288 207/207/205
f 322/281/289 207/207/205 321/280/288
f 207/207/205 322/281/289 209/209/206
f 323/280/290 209/209/206 322/281/289
f 209/209/206 323/280/290 231/207/217
f 324/278/291 231/207/217 323/280/290
f 231/207/217 324/278/291 229/204/216
f 325/279/292 229/204/216 324/278/291
f 229/204/216 325/279/292 227/221/215
f 225/220/214 325/279/292 326/282/293
f 325/279/292 225/220/214 227/221/215
f 223/219/213 326/282/293 327/283/294
f 326/282/293 223/219/213 225/220/214
f 220/218/212 327/283/294 328/284/295
f 327/283/294 220/218/212 223/219/213
f 218/217/211 328/284/295 329/285/296
f 328/284/295 218/217/211 220/218/212
f 216/215/210 329/285/296 330/286/297
f 329/285/296 216/215/210 218/217/211
f 214/213/209 330/286/297 331/287/298
f 330/286/297 214/213/209 216/215/210
f 214/213/209 332/250/299 212/211/208
f 332/250/299 214/213/209 331/287/298
f 212/211/208 333/251/300 210/199/207
f 333/251/300 212/211/208 332/250/299
f 210/199/207 334/288/301 201/201/201
f 334/288/301 210/199/207 333/251/300
f 201/201/201 262/251/247 199/199/199
f 262/251/247 201/201/201 334/288/301
f 234/226/219 233/225/218 308/273/275
f 233/225/218 234/226/219 166/166/166
f 167/167/167 335/289/302 235/227/220
f 335/289/302 167/167/167 234/226/219
f 168/168/168 336/290/303 236/228/221
f 336/290/303 168/168/168 235/227/220
f 169/169/169 337/291/304 237/229/222
f 337/291/304 169/169/169 236/228/221
f 238/230/223 237/229/222 338/292/305
f 237/229/222 238/230/223 170/170/170
f 239/231/224 238/230/223 339/293/306
f 238/230/223 239/231/224 171/171/171
f 340/294/307 240/232/225 239/231/224
f 240/232/225 340/294/307 341/295/308
f 240/232/225 241/233/226 172/172/172
f 241/233/226 240/232/225 242/234/227
f 341/295/308 242/234/227 240/232/225
f 242/234/227 341/295/308 243/235/228
f 342/296/309 243/235/228 341/295/308
f 243/235/228 342/296/309 244/236/229
f 343/297/310 244/236/229 342/296/309
f 244/236/229 343/297/310 245/237/230
f 344/298/311 245/237/230 343/297/310
f 245/237/230 344/298/311 246/238/231
f 345/299/312 246/238/231 344/298/311
f 246/238/231 345/299/312 247/239/232
f 345/299/312 248/240/233 247/239/232
f 248/240/233 345/299/312 251/243/236
f 251/243/236 249/241/234 248/240/233
f 249/241/234 251/243/236 188/188/188
f 346/300/313 251/243/236 345/299/312
f 251/243/236 346/300/313 250/242/235
f 347/301/314 187/187/187 250/242/235
f 187/187/187 347/301/314 252/244/237
f 348/302/315 189/189/189 252/244/237
f 189/189/189 348/302/315 253/245/238
f 254/246/239 253/245/238 349/303/316
f 253/245/238 254/246/239 191/191/191
f 255/247/240 254/246/239 350/304/317
f 254/246/239 255/247/240 192/192/192
f 256/248/241 255/247/240 351/305/318
f 255/247/240 256/248/241 193/193/193
f 310/274/277 194/194/194 256/248/241
f 194/194/194 310/274/277 257/249/242
f 333/251/300 262/251/247 334/288/301
f 262/251/247 333/251/300 332/250/299
f 262/251/247 332/250/299 260/250/245
f 260/250/245 332/250/299 331/287/298
f 260/250/245 331/287/298 352/287/319
f 352/287/319 331/287/298 330/286/297
f 352/287/319 330/286/297 353/286/320
f 353/286/320 330/286/297 329/285/296
f 353/286/320 329/285/296 354/285/321
f 354/285/321 329/285/296 328/284/295
f 354/285/321 328/284/295 355/284/322
f 355/284/322 328/284/295 327/283/294
f 355/284/322 327/283/294 356/283/323
f 356/283/323 327/283/294 326/282/293
f 356/283/323 326/282/293 357/282/324
f 357/282/324 326/282/293 325/279/292
f 357/282/324 325/279/292 320/279/287
f 320/279/287 325/279/292 324/278/291
f 320/279/287 324/278/291 318/278/285
f 318/278/285 324/278/291 323/280/290
f 318/278/285 323/280/290 321/280/288
f 321/280/288 323/280/290 322/281/289
f 358/256/325 352/287/319 359/213/326
f 352/287/319 358/256/325 260/250/245
f 260/250/245 358/256/325 360/255/325
f 260/250/245 360/255/325 361/254/325
f 260/250/245 361/254/325 261/211/246
f 362/306/327 363/254/328 364/255/329
f 363/254/328 362/306/327 263/252/248
f 363/254/328 263/252/248 265/203/250
f 365/307/330 266/253/251 263/252/248
f 266/253/251 365/307/330 366/308/331
f 367/215/332 352/287/319 353/286/320
f 352/287/319 367/215/332 359/213/326
f 359/213/326 367/215/332 278/258/256
f 359/213/326 278/258/256 276/257/255
f 368/217/333 353/286/320 354/285/321
f 353/286/320 368/217/333 367/215/332
f 367/215/332 368/217/333 369/260/334
f 367/215/332 369/260/334 279/259/257
f 370/218/335 354/285/321 355/284/322
f 354/285/321 370/218/335 368/217/333
f 368/217/333 370/218/335 284/262/260
f 368/217/333 284/262/260 371/261/336
f 372/219/337 355/284/322 356/283/323
f 355/284/322 372/219/337 370/218/335
f 370/218/335 372/219/337 288/264/262
f 370/218/335 288/264/262 285/263/261
f 373/220/338 356/283/323 357/282/324
f 356/283/323 373/220/338 372/219/337
f 372/219/337 373/220/338 374/266/339
f 372/219/337 374/266/339 289/265/263
f 375/268/340 376/267/340 377/269/340
f 319/221/286 357/282/324 320/279/287
f 357/282/324 319/221/286 373/220/338
f 373/220/338 319/221/286 377/269/340
f 373/220/338 377/269/340 376/267/340
f 366/308/331 302/270/269 266/253/251
f 302/270/269 366/308/331 378/309/341
f 379/310/342 302/270/269 378/309/341
f 302/270/269 379/310/342 304/271/271
f 335/289/302 304/271/271 379/310/342
f 304/271/271 335/289/302 306/272/273
f 234/226/219 306/272/273 335/289/302
f 306/272/273 234/226/219 308/273/275
f 310/274/277 351/305/318 312/275/279
f 351/305/318 310/274/277 256/248/241
f 312/275/279 380/311/343 314/276/281
f 380/311/343 312/275/279 351/305/318
f 314/276/281 381/312/344 316/277/283
f 381/312/344 314/276/281 380/311/343
f 382/269/345 383/313/346 384/268/347
f 383/313/346 382/269/345 317/206/284
f 383/313/346 317/206/284 316/277/283
f 235/227/220 379/310/342 336/290/303
f 379/310/342 235/227/220 335/289/302
f 236/228/221 385/314/348 337/291/304
f 385/314/348 236/228/221 336/290/303
f 338/292/305 337/291/304 386/315/349
f 337/291/304 338/292/305 237/229/222
f 339/293/306 338/292/305 387/316/350
f 338/292/305 339/293/306 238/230/223
f 388/317/351 239/231/224 339/293/306
f 239/231/224 388/317/351 340/294/307
f 389/318/352 341/295/308 340/294/307
f 341/295/308 389/318/352 342/296/309
f 390/319/353 342/296/309 389/318/352
f 342/296/309 390/319/353 343/297/310
f 344/298/311 390/319/353 391/320/354
f 390/319/353 344/298/311 343/297/310
f 345/299/312 391/320/354 346/300/313
f 391/320/354 345/299/312 344/298/311
f 250/242/235 392/321/355 347/301/314
f 392/321/355 250/242/235 346/300/313
f 252/244/237 393/322/356 348/302/315
f 393/322/356 252/244/237 347/301/314
f 349/303/316 348/302/315 394/323/357
f 348/302/315 349/303/316 253/245/238
f 350/304/317 349/303/316 395/324/358
f 349/303/316 350/304/317 254/246/239
f 351/305/318 350/304/317 380/311/343
f 350/304/317 351/305/318 255/247/240
f 396/325/359 364/255/329 397/256/360
f 364/255/329 396/325/359 362/306/327
f 398/326/361 263/252/248 362/306/327
f 263/252/248 398/326/361 365/307/330
f 399/327/362 366/308/331 365/307/330
f 366/308/331 399/327/362 400/328/363
f 384/268/347 401/329/364 292/267/265
f 401/329/364 384/268/347 383/313/346
f 400/328/363 378/309/341 366/308/331
f 378/309/341 400/328/363 385/314/348
f 336/290/303 378/309/341 385/314/348
f 378/309/341 336/290/303 379/310/342
f 316/277/283 402/330/365 383/313/346
f 402/330/365 316/277/283 381/312/344
f 380/311/343 395/324/358 381/312/344
f 395/324/358 380/311/343 350/304/317
f 386/315/349 385/314/348 400/328/363
f 385/314/348 386/315/349 337/291/304
f 387/316/350 386/315/349 403/331/366
f 386/315/349 387/316/350 338/292/305
f 388/317/351 387/316/350 404/332/367
f 387/316/350 388/317/351 339/293/306
f 405/333/368 340/294/307 388/317/351
f 340/294/307 405/333/368 389/318/352
f 390/319/353 405/333/368 406/334/369
f 405/333/368 390/319/353 389/318/352
f 391/320/354 406/334/369 407/335/370
f 406/334/369 391/320/354 390/319/353
f 346/300/313 407/335/370 392/321/355
f 407/335/370 346/300/313 391/320/354
f 347/301/314 408/336/371 393/322/356
f 408/336/371 347/301/314 392/321/355
f 348/302/315 409/337/372 394/323/357
f 409/337/372 348/302/315 393/322/356
f 395/324/358 394/323/357 410/338/373
f 394/323/357 395/324/358 349/303/316
f 396/325/359 397/256/360 411/339/374
f 412/340/375 362/306/327 396/325/359
f 362/306/327 412/340/375 398/326/361
f 413/341/376 365/307/330 398/326/361
f 365/307/330 413/341/376 399/327/362
f 403/331/366 400/328/363 399/327/362
f 400/328/363 403/331/366 386/315/349
f 414/342/377 401/329/364 383/313/346
f 401/329/364 291/266/264 292/267/265
f 402/330/365 414/342/377 383/313/346
f 414/342/377 402/330/365 415/343/378
f 381/312/344 410/338/373 402/330/365
f 410/338/373 381/312/344 395/324/358
f 404/332/367 403/331/366 416/344/379
f 403/331/366 404/332/367 387/316/350
f 417/345/380 388/317/351 404/332/367
f 388/317/351 417/345/380 405/333/368
f 406/334/369 417/345/380 418/346/381
f 417/345/380 406/334/369 405/333/368
f 407/335/370 418/346/381 419/347/382
f 418/346/381 407/335/370 406/334/369
f 392/321/355 419/347/382 408/336/371
f 419/347/382 392/321/355 407/335/370
f 393/322/356 420/348/383 409/337/372
f 420/348/383 393/322/356 408/336/371
f 394/323/357 421/349/384 410/338/373
f 421/349/384 394/323/357 409/337/372
f 411/339/374 397/256/360 422/257/385
f 423/350/386 411/339/374 424/351/387
f 411/339/374 423/350/386 396/325/359
f 425/352/388 396/325/359 423/350/386
f 396/325/359 425/352/388 412/340/375
f 426/353/389 398/326/361 412/340/375
f 398/326/361 426/353/389 413/341/376
f 416/344/379 399/327/362 413/341/376
f 399/327/362 416/344/379 403/331/366
f 414/342/377 427/354/390 401/329/364
f 427/354/390 414/342/377 428/355/391
f 415/343/378 428/355/391 414/342/377
f 428/355/391 415/343/378 429/356/392
f 410/338/373 415/343/378 402/330/365
f 415/343/378 410/338/373 421/349/384
f 417/345/380 416/344/379 430/357/393
f 416/344/379 417/345/380 404/332/367
f 418/346/381 430/357/393 431/358/394
f 430/357/393 418/346/381 417/345/380
f 419/347/382 431/358/394 432/359/395
f 431/358/394 419/347/382 418/346/381
f 408/336/371 432/359/395 420/348/383
f 432/359/395 408/336/371 419/347/382
f 409/337/372 433/360/396 421/349/384
f 433/360/396 409/337/372 420/348/383
f 434/361/397 424/351/387 435/362/398
f 424/351/387 434/361/397 423/350/386
f 424/351/387 436/258/399 437/259/400
f 436/258/399 424/351/387 411/339/374
f 438/363/401 423/350/386 434/361/397
f 423/350/386 438/363/401 425/352/388
f 439/364/402 412/340/375 425/352/388
f 412/340/375 439/364/402 426/353/389
f 430/357/393 413/341/376 426/353/389
f 413/341/376 430/357/393 416/344/379
f 428/355/391 435/362/398 427/354/390
f 435/362/398 428/355/391 434/361/397
f 401/329/364 288/264/262 289/265/263
f 288/264/262 401/329/364 427/354/390
f 429/356/392 434/361/397 428/355/391
f 434/361/397 429/356/392 438/363/401
f 421/349/384 429/356/392 415/343/378
f 429/356/392 421/349/384 433/360/396
f 431/358/394 426/353/389 439/364/402
f 426/353/389 431/358/394 430/357/393
f 432/359/395 439/364/402 440/365/403
f 439/364/402 432/359/395 431/358/394
f 420/348/383 440/365/403 433/360/396
f 440/365/403 420/348/383 432/359/395
f 435/362/398 369/260/334 371/261/336
f 369/260/334 435/362/398 424/351/387
f 440/365/403 425/352/388 438/363/401
f 425/352/388 440/365/403 439/364/402
f 427/354/390 284/262/260 285/263/261
f 284/262/260 427/354/390 435/362/398
f 433/360/396 438/363/401 429/356/392
f 438/363/401 433/360/396 440/365/403
