# SSTK version 0.8.0
# 19
mtllib original_19.mtl
o #ID116
v 0.01541480 0.65761870 -0.05580948
v 0.01892758 0.60399135 -0.06404704
v 0.01558771 0.60393511 -0.05562799
v 0.01873272 0.65747750 -0.06394558
v 0.01886843 0.65755459 -0.06409597
v 0.01529828 0.65762347 -0.05559314
v 0.01883222 0.60384939 -0.06383671
v 0.01547608 0.60408312 -0.05573681
v 0.02185387 0.60405399 -0.05289468
v 0.02847800 0.65760043 -0.05030114
v 0.02848768 0.60395715 -0.05011665
v 0.01544897 0.65747952 -0.05570557
v 0.01540138 0.60388305 -0.05575929
v 0.01540127 0.60405838 -0.05579128
v 0.02192670 0.60388590 -0.05305053
v 0.01557410 0.65753024 -0.05572691
v 0.02839759 0.65764598 -0.05022598
v 0.02834939 0.60400715 -0.05036421
v 0.03178324 0.65779367 -0.05855360
v 0.01550664 0.65763572 -0.05567573
v 0.02827161 0.65758365 -0.05031910
v 0.01874344 0.65759952 -0.06389146
v 0.01881766 0.65764257 -0.06384675
v 0.03183396 0.65780050 -0.05856818
v 0.01540834 0.65772036 -0.05569611
v 0.02848989 0.65760019 -0.05031303
v 0.02521259 0.60405815 -0.06111267
v 0.03179859 0.65767146 -0.05852302
v 0.03176105 0.60384012 -0.05859444
v 0.01902117 0.65758507 -0.06377686
v 0.01900700 0.60383297 -0.06398930
v 0.01884582 0.60402034 -0.06391865
v 0.02522057 0.60382529 -0.06117740
v 0.01888950 0.65764989 -0.06378327
v 0.03182693 0.65773944 -0.05841561
v 0.03185824 0.60404833 -0.05852276
v 0.02529429 0.60410380 -0.06132292
v 0.01544280 0.60392135 -0.05571924
v 0.02193414 0.60388830 -0.05305437
v 0.01893915 0.60399499 -0.06401107
v 0.01871667 0.60389618 -0.06384196
v 0.02540842 0.60396739 -0.06123136
v 0.01546837 0.60390927 -0.05573762
v 0.02200577 0.60401410 -0.05293045
v 0.03181407 0.65781333 -0.05843714
v 0.02844328 0.60395887 -0.05028774
v 0.03199298 0.60406790 -0.05858861
v 0.02838345 0.65764589 -0.05015572
v 0.02846969 0.65760708 -0.05040358
v 0.03176824 0.65762197 -0.05860092
v 0.02838785 0.60391965 -0.05028448
v 0.03171759 0.60402013 -0.05857212
v 0.03185659 0.60392852 -0.05852910
v 0.02843729 0.60403411 -0.05029598
v 0.03198501 0.60394294 -0.05871815
v 0.02851982 0.60410004 -0.05026758
vn -0.9238795391928978 0 -0.382683416234253
vn 0.9238795391928978 0 0.382683416234253
vn 0.382683416234253 0 -0.9238795391928978
vn -0.382683416234253 0 0.9238795391928978
vn 0 1 0
vn 0 -1 0
usemtl material_0_0
f 1//1 2//1 3//1
f 2//1 1//1 4//1
f 5//2 6//2 7//2
f 8//2 7//2 6//2
f 9//3 10//3 11//3
f 10//3 9//3 12//3
f 12//3 9//3 13//3
f 14//4 15//4 16//4
f 16//4 15//4 17//4
f 18//4 17//4 15//4
f 19//5 20//5 21//5
f 20//5 19//5 22//5
f 23//6 24//6 25//6
f 26//6 25//6 24//6
f 27//3 28//3 29//3
f 28//3 27//3 30//3
f 30//3 27//3 31//3
f 32//4 33//4 34//4
f 34//4 33//4 35//4
f 36//4 35//4 33//4
f 37//5 38//5 39//5
f 38//5 37//5 40//5
f 41//6 42//6 43//6
f 44//6 43//6 42//6
f 45//2 46//2 47//2
f 46//2 45//2 48//2
f 49//1 50//1 51//1
f 52//1 51//1 50//1
f 53//5 39//5 54//5
f 39//5 53//5 37//5
f 42//6 55//6 44//6
f 56//6 44//6 55//6
