# SSTK version 0.8.0
# 14
mtllib original_14.mtl
o #ID86
v 0.06413636 0.55019202 0.10004171
v 0.00170248 0.55029819 0.10763373
v 0.03399367 0.55023861 0.11248082
v 0.03149803 0.55035287 0.10361986
v 0.05957475 0.55023703 0.09205324
v 0.08985739 0.55021652 0.08011849
v 0.08340107 0.55036708 0.07378379
v 0.10980746 0.55018052 0.05418150
v 0.10193331 0.55032678 0.04955122
v 0.12240865 0.55025964 0.02396503
v 0.11357849 0.55040193 0.02167679
v 0.12655829 0.55019024 -0.00842639
v 0.11749137 0.55033277 -0.00819458
v 0.12226423 0.55030005 -0.04074563
v 0.11361881 0.55025118 -0.03827712
v 0.10185259 0.55033003 -0.06624319
v 0.10987598 0.55033917 -0.07073723
v 0.08361469 0.55017859 -0.09036630
v 0.08999298 0.55013860 -0.09662280
v 0.05960430 0.55037903 -0.10870592
v 0.06416046 0.55035221 -0.11650505
v 0.03174657 0.55024781 -0.12026749
v 0.03399741 0.55018611 -0.12899375
v 0.00141572 0.55037298 -0.12435599
v -0.03083512 0.55033806 0.11238955
v 0.00150078 0.55030116 0.11653735
v -0.06087280 0.55025725 0.10007299
v -0.02833374 0.55028627 0.10381245
v -0.05632614 0.55034893 0.09206634
v -0.08687474 0.55024566 0.08006040
v -0.08037577 0.55034652 0.07376249
v -0.10672688 0.55023315 0.05432338
v -0.09877793 0.55017490 0.04975201
v -0.11909330 0.55022275 0.02407102
v -0.11046723 0.55038860 0.02169187
v -0.12340818 0.55029298 -0.00825735
v -0.11446688 0.55025537 -0.00831510
v -0.11040267 0.55037720 -0.03833696
v -0.11912793 0.55022480 -0.04060721
v -0.09898434 0.55033325 -0.06636667
v -0.10658685 0.55024502 -0.07089201
v -0.08048511 0.55036804 -0.09028181
v -0.08694041 0.55022436 -0.09671641
v -0.05637964 0.55037778 -0.10871825
v -0.06100910 0.55027643 -0.11635510
v -0.02851039 0.55019727 -0.12039148
v -0.03078953 0.55028439 -0.12900101
v 0.00160459 0.55042975 -0.13325005
v 0.00151507 0.55019984 -0.13333010
v 0.03384920 0.55035249 -0.12910559
v -0.03073369 0.55014693 -0.12904756
v 0.00151090 0.55027698 -0.12419120
v -0.02844105 0.55009879 -0.12035385
v -0.06101629 0.55012338 -0.11666683
v -0.05623903 0.55033603 -0.10874019
v -0.08675112 0.55032059 -0.09670617
v -0.08027643 0.55042265 -0.09014434
v -0.10669447 0.55033309 -0.07088512
v -0.09895051 0.55019760 -0.06637563
v -0.11929551 0.55026501 -0.04063962
v -0.11043836 0.55032611 -0.03822483
v -0.12336098 0.55028611 -0.00843323
v -0.11421597 0.55027472 -0.00835283
v -0.11059797 0.55038913 0.02162057
v -0.11913841 0.55035879 0.02415957
v -0.09899014 0.55019036 0.04984594
v -0.10677166 0.55017693 0.05405539
v -0.08031656 0.55025725 0.07365738
v -0.08688413 0.55032156 0.08008132
v -0.05645220 0.55028868 0.09214365
v -0.06079174 0.55018646 0.09999816
v -0.02836533 0.55016948 0.10359755
v 0.00157405 0.55020896 0.10759855
v 0.03397420 0.55026029 0.11236754
v -0.03090675 0.55023020 0.11240798
v 0.00151533 0.55017492 0.11663386
v 0.03160949 0.55025842 -0.12038402
v 0.06391702 0.55022486 -0.11650704
v 0.05956476 0.55038776 -0.10875914
v 0.08995412 0.55028730 -0.09664103
v 0.08358536 0.55029194 -0.09041368
v 0.10993180 0.55022528 -0.07075900
v 0.10191369 0.55020703 -0.06626386
v 0.12229523 0.55027891 -0.04057635
v 0.11361186 0.55033567 -0.03834973
v 0.11758131 0.55031051 -0.00835613
v 0.12641930 0.55035530 -0.00828391
v 0.11354863 0.55030928 0.02178111
v 0.12237220 0.55033888 0.02391011
v 0.10197082 0.55026194 0.04974644
v 0.10990971 0.55030512 0.05419097
v 0.08345006 0.55017453 0.07358139
v 0.08995733 0.55028738 0.08023075
v 0.05966041 0.55029184 0.09209769
v 0.06404911 0.55021165 0.10001196
v 0.03159786 0.55042001 0.10359108
v -0.06093996 0.53252816 -0.11646416
v -0.03061774 0.55023434 -0.12899222
v -0.03087118 0.53254487 -0.12902243
v -0.06085684 0.55035242 -0.11663148
v -0.06094879 0.55011785 -0.11634664
v -0.06104543 0.53256222 -0.11669342
v -0.03079605 0.55026842 -0.12889600
v -0.03093373 0.53226989 -0.12898827
v -0.08688742 0.53246158 -0.09675379
v -0.08683936 0.55023682 -0.09677782
v -0.08679810 0.55030781 -0.09668248
v -0.08666052 0.53223980 -0.09682292
v -0.10668747 0.55025001 -0.07081208
v -0.10684241 0.53232460 -0.07086821
v -0.10683582 0.55027328 -0.07081020
v -0.10660629 0.53235016 -0.07081387
v -0.11920846 0.55030463 -0.04071627
v -0.11911315 0.53234204 -0.04052664
v -0.11926403 0.55026196 -0.04073731
v -0.11909749 0.53250992 -0.04059355
v -0.12343938 0.55040021 -0.00818126
v -0.12334395 0.53230381 -0.00841821
v -0.12326367 0.55026739 -0.00841294
v -0.12338030 0.53229639 -0.00831515
v -0.11917503 0.55031228 0.02398397
v -0.11918453 0.53224211 0.02412440
v -0.11898608 0.55032460 0.02404399
v -0.11918545 0.53233674 0.02389664
v -0.10678280 0.55032133 0.05426272
v -0.10668252 0.53233328 0.05429220
v -0.10665270 0.55033119 0.05428136
v -0.10678666 0.53245819 0.05424972
v -0.08683479 0.55022743 0.07993953
v -0.08678536 0.53250686 0.08007748
v -0.08665933 0.55041686 0.08022630
v -0.08678080 0.53227149 0.08010114
v -0.06092407 0.53242838 0.10007313
v -0.06099520 0.55012058 0.09983192
v -0.06094708 0.53231727 0.09997209
v -0.06099451 0.55025694 0.09984235
v -0.03088940 0.53235665 0.11254811
v -0.03065861 0.55025130 0.11246737
v -0.03080101 0.53236746 0.11254067
v -0.03070553 0.55020303 0.11247158
v 0.00163069 0.53251560 0.11678489
v 0.00150076 0.55021303 0.11672659
v 0.00142693 0.53235483 0.11670453
v 0.00169665 0.55032521 0.11671773
v 0.03381334 0.53231133 0.11239259
v 0.03381580 0.55022519 0.11238093
v 0.03376201 0.53240093 0.11253755
v 0.03385978 0.55023811 0.11244821
v 0.06409788 0.53235425 0.10005620
v 0.06407742 0.55036770 0.10000297
v 0.06399251 0.53249712 0.09987411
v 0.06401511 0.55041247 0.09982592
v 0.08993213 0.53239967 0.08005334
v 0.08997251 0.55029328 0.08008884
v 0.08996304 0.53229348 0.08007689
v 0.09004616 0.55023467 0.07999162
v 0.10986761 0.55036085 0.05425871
v 0.10976706 0.53232521 0.05424497
v 0.10973970 0.55045405 0.05427712
v 0.10981252 0.53231469 0.05411295
v 0.12238411 0.55025779 0.02399940
v 0.12223381 0.53231417 0.02401036
v 0.12225597 0.55027927 0.02418224
v 0.12223046 0.53235962 0.02418247
v 0.12664573 0.55015398 -0.00825212
v 0.12640841 0.53255611 -0.00822614
v 0.12637125 0.55028293 -0.00822101
v 0.12664565 0.53228597 -0.00837441
v 0.12229459 0.55017483 -0.04052478
v 0.12245272 0.53240399 -0.04053234
v 0.12235811 0.55044079 -0.04067899
v 0.12233434 0.53228797 -0.04073391
v 0.10989712 0.55010442 -0.07078357
v 0.10974930 0.53233202 -0.07079938
v 0.10981416 0.55024399 -0.07077657
v 0.10976750 0.53239718 -0.07075242
v 0.08986344 0.55021546 -0.09671481
v 0.08987579 0.53255368 -0.09668741
v 0.08986826 0.55023048 -0.09660467
v 0.08987505 0.53234753 -0.09665646
v 0.06417371 0.53222152 -0.11657224
v 0.06415603 0.55016618 -0.11644070
v 0.06404565 0.55025826 -0.11652436
v 0.06394993 0.53238644 -0.11663560
v 0.03387384 0.53233399 -0.12913228
v 0.03392071 0.55019682 -0.12900293
v 0.03384267 0.55011392 -0.12908394
v 0.03391431 0.53245399 -0.12896977
v 0.00150416 0.53235868 -0.13333316
v 0.00153825 0.55016333 -0.13337527
v 0.00157754 0.55023465 -0.13316768
v 0.00153843 0.53247360 -0.13326861
v 0.06407416 0.53236528 0.10006408
v 0.00161111 0.53236703 0.10782065
v 0.03393841 0.53248764 0.11244380
v 0.03162348 0.53243442 0.10361177
v 0.05947368 0.53236751 0.09219723
v 0.08993436 0.53240202 0.07998250
v 0.08359150 0.53241788 0.07365105
v 0.10979192 0.53241928 0.05416275
v 0.10183426 0.53244766 0.04961783
v 0.12231946 0.53242591 0.02406236
v 0.11360653 0.53245318 0.02176066
v 0.12660046 0.53246292 -0.00837639
v 0.11740820 0.53242320 -0.00834874
v 0.12229748 0.53246044 -0.04058562
v 0.11355964 0.53236841 -0.03819674
v 0.10189222 0.53239926 -0.06622110
v 0.10987143 0.53248726 -0.07074659
v 0.08350819 0.53247078 -0.09030453
v 0.08998097 0.53241490 -0.09665908
v 0.05954864 0.53240845 -0.10871775
v 0.06391509 0.53253383 -0.11651018
v 0.03157107 0.53227889 -0.12013317
v 0.03391199 0.53232711 -0.12909074
v 0.00148067 0.53247329 -0.12432000
v -0.03085329 0.53246641 0.11242363
v 0.00172100 0.53244618 0.11670439
v -0.06104599 0.53249936 0.09984855
v -0.02848753 0.53225282 0.10379698
v -0.05646127 0.53245655 0.09228343
v -0.08683200 0.53238002 0.08006231
v -0.08031755 0.53240266 0.07361163
v -0.10677325 0.53240305 0.05407634
v -0.09885917 0.53249034 0.04984400
v -0.11914991 0.53245496 0.02416437
v -0.11042334 0.53233467 0.02186240
v -0.12338668 0.53233752 -0.00829785
v -0.11428638 0.53223921 -0.00819347
v -0.11052546 0.53244847 -0.03819795
v -0.11917096 0.53242817 -0.04062866
v -0.09885899 0.53246312 -0.06619755
v -0.10659647 0.53237373 -0.07075856
v -0.08027754 0.53232140 -0.09010826
v -0.08683585 0.53235011 -0.09671857
v -0.05630058 0.53242095 -0.10866370
v -0.06103242 0.53235023 -0.11649282
v -0.02856982 0.53253389 -0.12034758
v -0.03092187 0.53232885 -0.12905874
v 0.00144602 0.53241246 -0.13326746
v 0.00149302 0.53226145 -0.13327422
v 0.03397635 0.53241377 -0.12906640
v -0.03093923 0.53232988 -0.12910675
v 0.00168218 0.53239292 -0.12420460
v -0.02842901 0.53245762 -0.12014277
v -0.06089614 0.53227367 -0.11642001
v -0.05642321 0.53258303 -0.10872078
v -0.08674042 0.53222398 -0.09649153
v -0.08052021 0.53252168 -0.09032384
v -0.10663836 0.53236874 -0.07075406
v -0.09878132 0.53233137 -0.06617568
v -0.11907931 0.53246252 -0.04072070
v -0.11040432 0.53238876 -0.03828018
v -0.12329832 0.53239310 -0.00825058
v -0.11439838 0.53224566 -0.00832826
v -0.11054064 0.53228263 0.02153931
v -0.11914119 0.53244490 0.02403142
v -0.09901548 0.53254161 0.04981569
v -0.10664248 0.53229306 0.05413572
v -0.08055005 0.53229100 0.07372838
v -0.08680789 0.53236755 0.08008501
v -0.05642341 0.53244329 0.09204034
v -0.06094064 0.53241815 0.09997637
v -0.02845742 0.53231507 0.10386909
v 0.00149240 0.53254851 0.10755457
v 0.03387471 0.53245101 0.11242949
v -0.03094232 0.53229401 0.11226931
v 0.00155663 0.53238726 0.11675175
v 0.03171664 0.53230708 -0.12033479
v 0.06409946 0.53224756 -0.11655529
v 0.05940550 0.53236257 -0.10875177
v 0.08995373 0.53238592 -0.09680490
v 0.08356339 0.53248470 -0.09027329
v 0.10978914 0.53233490 -0.07080916
v 0.10206499 0.53244271 -0.06631761
v 0.12220584 0.53232073 -0.04063349
v 0.11355368 0.53230512 -0.03835108
v 0.11748521 0.53245408 -0.00840315
v 0.12659751 0.53237105 -0.00816725
v 0.11352864 0.53230224 0.02176076
v 0.12219788 0.53257046 0.02412332
v 0.10194641 0.53236647 0.04973333
v 0.10969090 0.53228169 0.05429342
v 0.08345175 0.53233612 0.07369053
v 0.09005477 0.53222245 0.07998216
v 0.05946225 0.53240890 0.09196356
v 0.06400580 0.53256748 0.10000394
v 0.03147156 0.53235533 0.10359902
vn 0 1 0
vn 0 -1 0
vn -0.5000000016386907 0 -0.86602540283834
vn -0.2588190095935402 0 -0.9659258358036703
vn 0.5000000016386907 0 0.86602540283834
vn 0.2588190095935402 0 0.9659258358036703
vn -0.7071067811865319 0 -0.7071067811865632
vn 0.7071067811865319 0 0.7071067811865632
vn -0.8660254028383179 0 -0.5000000016387293
vn 0.8660254028383179 0 0.5000000016387293
vn -0.9659258358036588 0 -0.25881900959358306
vn 0.9659258358036588 0 0.25881900959358306
vn -1 0 0
vn 1 0 0
vn -0.9659258358036703 0 0.2588190095935402
vn 0.9659258358036703 0 -0.2588190095935402
vn -0.86602540283834 0 0.5000000016386907
vn 0.86602540283834 0 -0.5000000016386907
vn -0.7071067811865632 0 0.7071067811865319
vn 0.7071067811865632 0 -0.7071067811865319
vn -0.5000000016387293 0 0.8660254028383179
vn 0.5000000016387293 0 -0.8660254028383179
vn -0.25881900959358306 0 0.9659258358036588
vn 0.25881900959358306 0 -0.9659258358036588
vn 0 0 1
vn 0 0 -1
usemtl material_0_0
f 1//1 2//1 3//1
f 2//1 1//1 4//1
f 4//1 1//1 5//1
f 5//1 1//1 6//1
f 5//1 6//1 7//1
f 7//1 6//1 8//1
f 7//1 8//1 9//1
f 9//1 8//1 10//1
f 9//1 10//1 11//1
f 11//1 10//1 12//1
f 11//1 12//1 13//1
f 13//1 12//1 14//1
f 13//1 14//1 15//1
f 15//1 14//1 16//1
f 16//1 14//1 17//1
f 16//1 17//1 18//1
f 18//1 17//1 19//1
f 18//1 19//1 20//1
f 20//1 19//1 21//1
f 20//1 21//1 22//1
f 22//1 21//1 23//1
f 22//1 23//1 24//1
f 3//1 25//1 26//1
f 25//1 3//1 27//1
f 27//1 3//1 2//1
f 27//1 2//1 28//1
f 27//1 28//1 29//1
f 27//1 29//1 30//1
f 30//1 29//1 31//1
f 30//1 31//1 32//1
f 32//1 31//1 33//1
f 32//1 33//1 34//1
f 34//1 33//1 35//1
f 34//1 35//1 36//1
f 36//1 35//1 37//1
f 36//1 37//1 38//1
f 36//1 38//1 39//1
f 39//1 38//1 40//1
f 39//1 40//1 41//1
f 41//1 40//1 42//1
f 41//1 42//1 43//1
f 43//1 42//1 44//1
f 43//1 44//1 45//1
f 45//1 44//1 46//1
f 45//1 46//1 47//1
f 47//1 46//1 24//1
f 47//1 24//1 23//1
f 47//1 23//1 48//1
f 49//2 50//2 51//2
f 50//2 52//2 51//2
f 52//2 53//2 51//2
f 51//2 53//2 54//2
f 53//2 55//2 54//2
f 54//2 55//2 56//2
f 55//2 57//2 56//2
f 56//2 57//2 58//2
f 57//2 59//2 58//2
f 58//2 59//2 60//2
f 59//2 61//2 60//2
f 60//2 61//2 62//2
f 61//2 63//2 62//2
f 63//2 64//2 62//2
f 62//2 64//2 65//2
f 64//2 66//2 65//2
f 65//2 66//2 67//2
f 66//2 68//2 67//2
f 67//2 68//2 69//2
f 68//2 70//2 69//2
f 69//2 70//2 71//2
f 70//2 72//2 71//2
f 72//2 73//2 71//2
f 73//2 74//2 71//2
f 71//2 74//2 75//2
f 76//2 75//2 74//2
f 52//2 50//2 77//2
f 50//2 78//2 77//2
f 77//2 78//2 79//2
f 78//2 80//2 79//2
f 79//2 80//2 81//2
f 80//2 82//2 81//2
f 81//2 82//2 83//2
f 82//2 84//2 83//2
f 83//2 84//2 85//2
f 85//2 84//2 86//2
f 84//2 87//2 86//2
f 86//2 87//2 88//2
f 87//2 89//2 88//2
f 88//2 89//2 90//2
f 89//2 91//2 90//2
f 90//2 91//2 92//2
f 91//2 93//2 92//2
f 92//2 93//2 94//2
f 93//2 95//2 94//2
f 94//2 95//2 96//2
f 96//2 95//2 73//2
f 74//2 73//2 95//2
f 97//3 98//4 99//4
f 98//4 97//3 100//3
f 101//5 102//5 103//6
f 104//6 103//6 102//5
f 105//7 100//3 97//3
f 100//3 105//7 106//7
f 107//8 108//8 101//5
f 102//5 101//5 108//8
f 109//9 105//7 110//9
f 105//7 109//9 106//7
f 107//8 111//10 108//8
f 112//10 108//8 111//10
f 113//11 110//9 114//11
f 110//9 113//11 109//9
f 111//10 115//12 112//10
f 116//12 112//10 115//12
f 117//13 114//11 118//13
f 114//11 117//13 113//11
f 115//12 119//14 116//12
f 120//14 116//12 119//14
f 121//15 118//13 122//15
f 118//13 121//15 117//13
f 119//14 123//16 120//14
f 124//16 120//14 123//16
f 125//17 122//15 126//17
f 122//15 125//17 121//15
f 123//16 127//18 124//16
f 128//18 124//16 127//18
f 129//19 126//17 130//19
f 126//17 129//19 125//17
f 127//18 131//20 128//18
f 132//20 128//18 131//20
f 129//19 133//21 134//21
f 133//21 129//19 130//19
f 132//20 131//20 135//22
f 136//22 135//22 131//20
f 134//21 137//23 138//23
f 137//23 134//21 133//21
f 135//22 136//22 139//24
f 140//24 139//24 136//22
f 138//23 141//25 142//25
f 141//25 138//23 137//23
f 139//24 140//24 143//26
f 144//26 143//26 140//24
f 142//25 145//6 146//6
f 145//6 142//25 141//25
f 143//26 144//26 147//4
f 148//4 147//4 144//26
f 146//6 149//5 150//5
f 149//5 146//6 145//6
f 147//4 148//4 151//3
f 152//3 151//3 148//4
f 150//5 153//8 154//8
f 153//8 150//5 149//5
f 151//3 152//3 155//7
f 156//7 155//7 152//3
f 157//10 153//8 158//10
f 153//8 157//10 154//8
f 156//7 159//9 155//7
f 160//9 155//7 159//9
f 161//12 158//10 162//12
f 158//10 161//12 157//10
f 159//9 163//11 160//9
f 164//11 160//9 163//11
f 165//14 162//12 166//14
f 162//12 165//14 161//12
f 163//11 167//13 164//11
f 168//13 164//11 167//13
f 169//16 166//14 170//16
f 166//14 169//16 165//14
f 167//13 171//15 168//13
f 172//15 168//13 171//15
f 173//18 170//16 174//18
f 170//16 173//18 169//16
f 171//15 175//17 172//15
f 176//17 172//15 175//17
f 177//20 174//18 178//20
f 174//18 177//20 173//18
f 175//17 179//19 176//17
f 180//19 176//17 179//19
f 181//22 177//20 178//20
f 177//20 181//22 182//22
f 183//21 184//21 179//19
f 180//19 179//19 184//21
f 185//24 182//22 181//22
f 182//22 185//24 186//24
f 187//23 188//23 183//21
f 184//21 183//21 188//23
f 189//26 186//24 185//24
f 186//24 189//26 190//26
f 191//25 192//25 187//23
f 188//23 187//23 192//25
f 99//4 190//26 189//26
f 190//26 99//4 98//4
f 103//6 104//6 191//25
f 192//25 191//25 104//6
f 193//1 194//1 195//1
f 194//1 193//1 196//1
f 196//1 193//1 197//1
f 197//1 193//1 198//1
f 197//1 198//1 199//1
f 199//1 198//1 200//1
f 199//1 200//1 201//1
f 201//1 200//1 202//1
f 201//1 202//1 203//1
f 203//1 202//1 204//1
f 203//1 204//1 205//1
f 205//1 204//1 206//1
f 205//1 206//1 207//1
f 207//1 206//1 208//1
f 208//1 206//1 209//1
f 208//1 209//1 210//1
f 210//1 209//1 211//1
f 210//1 211//1 212//1
f 212//1 211//1 213//1
f 212//1 213//1 214//1
f 214//1 213//1 215//1
f 214//1 215//1 216//1
f 195//1 217//1 218//1
f 217//1 195//1 219//1
f 219//1 195//1 194//1
f 219//1 194//1 220//1
f 219//1 220//1 221//1
f 219//1 221//1 222//1
f 222//1 221//1 223//1
f 222//1 223//1 224//1
f 224//1 223//1 225//1
f 224//1 225//1 226//1
f 226//1 225//1 227//1
f 226//1 227//1 228//1
f 228//1 227//1 229//1
f 228//1 229//1 230//1
f 228//1 230//1 231//1
f 231//1 230//1 232//1
f 231//1 232//1 233//1
f 233//1 232//1 234//1
f 233//1 234//1 235//1
f 235//1 234//1 236//1
f 235//1 236//1 237//1
f 237//1 236//1 238//1
f 237//1 238//1 239//1
f 239//1 238//1 216//1
f 239//1 216//1 215//1
f 239//1 215//1 240//1
f 241//2 242//2 243//2
f 242//2 244//2 243//2
f 244//2 245//2 243//2
f 243//2 245//2 246//2
f 245//2 247//2 246//2
f 246//2 247//2 248//2
f 247//2 249//2 248//2
f 248//2 249//2 250//2
f 249//2 251//2 250//2
f 250//2 251//2 252//2
f 251//2 253//2 252//2
f 252//2 253//2 254//2
f 253//2 255//2 254//2
f 255//2 256//2 254//2
f 254//2 256//2 257//2
f 256//2 258//2 257//2
f 257//2 258//2 259//2
f 258//2 260//2 259//2
f 259//2 260//2 261//2
f 260//2 262//2 261//2
f 261//2 262//2 263//2
f 262//2 264//2 263//2
f 264//2 265//2 263//2
f 265//2 266//2 263//2
f 263//2 266//2 267//2
f 268//2 267//2 266//2
f 244//2 242//2 269//2
f 242//2 270//2 269//2
f 269//2 270//2 271//2
f 270//2 272//2 271//2
f 271//2 272//2 273//2
f 272//2 274//2 273//2
f 273//2 274//2 275//2
f 274//2 276//2 275//2
f 275//2 276//2 277//2
f 277//2 276//2 278//2
f 276//2 279//2 278//2
f 278//2 279//2 280//2
f 279//2 281//2 280//2
f 280//2 281//2 282//2
f 281//2 283//2 282//2
f 282//2 283//2 284//2
f 283//2 285//2 284//2
f 284//2 285//2 286//2
f 285//2 287//2 286//2
f 286//2 287//2 288//2
f 288//2 287//2 265//2
f 266//2 265//2 287//2
