# SSTK version 0.8.0
# 7
mtllib original_7.mtl
o #ID31
v -0.07863187 0.57717896 0.07183831
v -0.05507765 0.51120514 0.08986181
v -0.05516981 0.57700055 0.08989568
v -0.07854513 0.51121961 0.07179231
v -0.02787673 0.51140158 0.10111305
v 0.03072959 0.51126778 0.10116768
v 0.00158240 0.51123390 0.10494821
v -0.05518070 0.51133673 0.08985962
v 0.05817896 0.51129443 0.08997202
v 0.00163847 0.51135857 0.08953112
v -0.02375455 0.51110278 0.08623233
v -0.07844740 0.51137023 0.07192724
v -0.04744580 0.51105035 0.07652415
v -0.06761329 0.51115386 0.06090072
v -0.09668999 0.51126318 0.04845253
v -0.08314041 0.51113378 0.04060868
v -0.10783141 0.51128356 0.02108682
v -0.09289712 0.51136526 0.01711146
v -0.11177917 0.51126619 -0.00815911
v -0.09617038 0.51110968 -0.00827639
v -0.10787155 0.51125635 -0.03770586
v -0.09295771 0.51132580 -0.03359390
v -0.08310337 0.51119535 -0.05707411
v -0.09660600 0.51121559 -0.06493622
v -0.06771324 0.51120671 -0.07754549
v -0.07852731 0.51129378 -0.08838619
v -0.04742675 0.51120530 -0.09314080
v -0.05518465 0.51112281 -0.10663675
v -0.02376503 0.51118860 -0.10265769
v 0.00143781 0.51121411 -0.10614007
v 0.02691809 0.51124885 0.08634007
v 0.08170204 0.51114867 0.07182641
v 0.05055885 0.51123697 0.07642885
v 0.07077096 0.51123639 0.06079804
v 0.09976211 0.51115666 0.04836849
v 0.08621630 0.51132585 0.04055565
v 0.11102766 0.51103982 0.02103272
v 0.09617516 0.51126839 0.01701875
v 0.11504807 0.51134616 -0.00827405
v 0.09924063 0.51121598 -0.00816580
v 0.09606237 0.51128108 -0.03364724
v 0.11108619 0.51123529 -0.03765358
v 0.08631391 0.51130756 -0.05721083
v 0.09990478 0.51110455 -0.06495690
v 0.07074501 0.51131062 -0.07740932
v 0.08170789 0.51112960 -0.08852588
v 0.05057432 0.51125495 -0.09310516
v 0.05829726 0.51126881 -0.10649333
v 0.02689285 0.51115777 -0.10283635
v -0.02775182 0.51119242 -0.11781751
v 0.03104316 0.51130201 -0.11781596
v 0.00154348 0.51133104 -0.12168326
v -0.02781127 0.51130152 0.10122196
v -0.02781637 0.57712168 0.10132644
v 0.03091904 0.57713826 0.10121508
v -0.02772828 0.57725425 0.10112864
v 0.00151814 0.57709022 0.10491970
v 0.05834070 0.57710472 0.08996206
v -0.05497633 0.57727648 0.08985026
v 0.00150733 0.57700611 0.08954987
v 0.02681712 0.57718641 0.08635314
v 0.08159144 0.57724714 0.07193591
v 0.05048682 0.57702618 0.07648515
v 0.07071983 0.57706102 0.06087122
v 0.09975486 0.57707407 0.04839172
v 0.08613032 0.57710933 0.04051517
v 0.11118825 0.57721404 0.02106923
v 0.09607851 0.57712496 0.01693442
v 0.11476829 0.57717719 -0.00825584
v 0.09931502 0.57718789 -0.00825905
v 0.11104943 0.57712319 -0.03752955
v 0.09597467 0.57700618 -0.03342952
v 0.08626150 0.57703134 -0.05708289
v 0.09980156 0.57698050 -0.06491285
v 0.07073485 0.57718893 -0.07741100
v 0.08160521 0.57704154 -0.08828395
v 0.05039363 0.57712998 -0.09298408
v 0.05832200 0.57720091 -0.10649936
v 0.02684484 0.57713413 -0.10266421
v 0.00166042 0.57704273 -0.10601126
v -0.05516418 0.57716342 -0.10639159
v -0.02784002 0.57695423 -0.11773794
v 0.03081821 0.57720390 -0.11771119
v 0.00166002 0.57707514 -0.12168179
v -0.02374424 0.57712701 0.08612311
v -0.07859702 0.57724088 0.07204306
v -0.04728929 0.57704864 0.07630475
v -0.06758695 0.57726471 0.06089675
v -0.09648517 0.57695220 0.04833467
v -0.08317656 0.57717369 0.04068558
v -0.10809009 0.57711183 0.02099837
v -0.09296531 0.57695452 0.01709829
v -0.11179229 0.57725094 -0.00828768
v -0.09617397 0.57714534 -0.00819034
v -0.09285883 0.57699729 -0.03372812
v -0.10790973 0.57721498 -0.03751655
v -0.08314812 0.57721991 -0.05717636
v -0.09669663 0.57711614 -0.06507217
v -0.06765521 0.57709728 -0.07735361
v -0.07862351 0.57717514 -0.08858762
v -0.04732024 0.57725729 -0.09290588
v -0.02385508 0.57701021 -0.10276289
v -0.09642323 0.51109348 0.04843893
v -0.09664727 0.57721112 0.04842753
v 0.00156128 0.51123976 0.10523581
v 0.00171228 0.57711039 0.10513241
v -0.10809212 0.51133060 0.02102982
v -0.10793522 0.57713866 0.02096878
v -0.11173378 0.51112323 -0.00839496
v -0.11194967 0.57718531 -0.00836768
v -0.10779456 0.51117943 -0.03744957
v -0.10807001 0.57706694 -0.03771207
v -0.09661543 0.51128171 -0.06493973
v -0.09658563 0.57703308 -0.06499991
v -0.07854812 0.51132518 -0.08838696
v -0.07871039 0.57708400 -0.08835031
v -0.05494656 0.57723166 -0.10638697
v -0.05503216 0.51129547 -0.10642476
v -0.02762040 0.57705403 -0.11789361
v -0.02775989 0.51115988 -0.11769842
v 0.00156724 0.57713758 -0.12169199
v 0.00138173 0.51138603 -0.12160883
v 0.03085949 0.57723181 -0.11782341
v 0.03093908 0.51133995 -0.11769334
v 0.05830812 0.57726393 -0.10651548
v 0.05833334 0.51112812 -0.10650616
v 0.08174606 0.57716037 -0.08846185
v 0.08164291 0.51128170 -0.08857382
v 0.09962025 0.51123110 -0.06485446
v 0.09966163 0.57721196 -0.06492777
v 0.11120496 0.51125505 -0.03754951
v 0.11119434 0.57713344 -0.03758452
v 0.11487454 0.51126419 -0.00830054
v 0.11484313 0.57712523 -0.00820447
v 0.11110310 0.51133567 0.02091855
v 0.11113574 0.57701278 0.02100378
v 0.09992498 0.51127938 0.04829897
v 0.09971301 0.57712174 0.04846982
v 0.08180452 0.51110374 0.07199691
v 0.08168296 0.57711734 0.07172031
v 0.05814535 0.57719411 0.08991176
v 0.05814227 0.51125181 0.09005650
v 0.03103043 0.57705132 0.10107649
v 0.03097828 0.51127273 0.10116271
vn -0.7071067811865632 0 0.7071067811865318
vn -0.5000000016387294 0 0.8660254028383179
vn 0 -1 0
vn -0.2588190095935831 0 0.9659258358036589
vn 0 1 0
vn -0.8660254028383401 0 0.5000000016386907
vn 0 0 1
vn -0.9659258358036702 0 0.25881900959354015
vn -1 0 0
vn -0.9659258358036589 0 -0.2588190095935831
vn -0.8660254028383179 0 -0.5000000016387294
vn -0.7071067811865318 0 -0.7071067811865632
vn -0.5000000016386907 0 -0.8660254028383401
vn -0.25881900959354015 0 -0.9659258358036702
vn 0 0 -1
vn 0.2588190095935831 0 -0.9659258358036589
vn 0.5000000016387294 0 -0.8660254028383179
vn 0.7071067811865632 0 -0.7071067811865318
vn 0.8660254028383401 0 -0.5000000016386907
vn 0.9659258358036702 0 -0.25881900959354015
vn 1 0 0
vn 0.9659258358036589 0 0.2588190095935831
vn 0.8660254028383179 0 0.5000000016387294
vn 0.7071067811865318 0 0.7071067811865632
vn 0.5000000016386907 0 0.8660254028383401
vn 0.25881900959354015 0 0.9659258358036702
usemtl material_0_0
f 1//1 2//2 3//2
f 2//2 1//1 4//1
f 5//3 6//3 7//3
f 6//3 5//3 8//3
f 6//3 8//3 9//3
f 9//3 8//3 10//3
f 10//3 8//3 11//3
f 11//3 8//3 12//3
f 11//3 12//3 13//3
f 13//3 12//3 14//3
f 14//3 12//3 15//3
f 14//3 15//3 16//3
f 16//3 15//3 17//3
f 16//3 17//3 18//3
f 18//3 17//3 19//3
f 18//3 19//3 20//3
f 20//3 19//3 21//3
f 20//3 21//3 22//3
f 22//3 21//3 23//3
f 23//3 21//3 24//3
f 23//3 24//3 25//3
f 25//3 24//3 26//3
f 25//3 26//3 27//3
f 27//3 26//3 28//3
f 27//3 28//3 29//3
f 29//3 28//3 30//3
f 9//3 31//3 32//3
f 31//3 9//3 10//3
f 32//3 31//3 33//3
f 32//3 33//3 34//3
f 32//3 34//3 35//3
f 35//3 34//3 36//3
f 35//3 36//3 37//3
f 37//3 36//3 38//3
f 37//3 38//3 39//3
f 39//3 38//3 40//3
f 39//3 40//3 41//3
f 39//3 41//3 42//3
f 42//3 41//3 43//3
f 42//3 43//3 44//3
f 44//3 43//3 45//3
f 44//3 45//3 46//3
f 46//3 45//3 47//3
f 46//3 47//3 48//3
f 48//3 47//3 49//3
f 48//3 49//3 30//3
f 48//3 30//3 28//3
f 48//3 28//3 50//3
f 48//3 50//3 51//3
f 51//3 50//3 52//3
f 3//2 53//4 54//4
f 53//4 3//2 2//2
f 55//5 56//5 57//5
f 56//5 55//5 58//5
f 56//5 58//5 59//5
f 59//5 58//5 60//5
f 60//5 58//5 61//5
f 61//5 58//5 62//5
f 61//5 62//5 63//5
f 63//5 62//5 64//5
f 64//5 62//5 65//5
f 64//5 65//5 66//5
f 66//5 65//5 67//5
f 66//5 67//5 68//5
f 68//5 67//5 69//5
f 68//5 69//5 70//5
f 70//5 69//5 71//5
f 70//5 71//5 72//5
f 72//5 71//5 73//5
f 73//5 71//5 74//5
f 73//5 74//5 75//5
f 75//5 74//5 76//5
f 75//5 76//5 77//5
f 77//5 76//5 78//5
f 77//5 78//5 79//5
f 79//5 78//5 80//5
f 80//5 78//5 81//5
f 81//5 78//5 82//5
f 82//5 78//5 83//5
f 82//5 83//5 84//5
f 59//5 85//5 86//5
f 85//5 59//5 60//5
f 86//5 85//5 87//5
f 86//5 87//5 88//5
f 86//5 88//5 89//5
f 89//5 88//5 90//5
f 89//5 90//5 91//5
f 91//5 90//5 92//5
f 91//5 92//5 93//5
f 93//5 92//5 94//5
f 93//5 94//5 95//5
f 93//5 95//5 96//5
f 96//5 95//5 97//5
f 96//5 97//5 98//5
f 98//5 97//5 99//5
f 98//5 99//5 100//5
f 100//5 99//5 101//5
f 100//5 101//5 81//5
f 81//5 101//5 102//5
f 81//5 102//5 80//5
f 1//1 103//6 4//1
f 103//6 1//1 104//6
f 54//4 105//7 106//7
f 105//7 54//4 53//4
f 104//6 107//8 103//6
f 107//8 104//6 108//8
f 108//8 109//9 107//8
f 109//9 108//8 110//9
f 110//9 111//10 109//9
f 111//10 110//9 112//10
f 112//10 113//11 111//10
f 113//11 112//10 114//11
f 114//11 115//12 113//11
f 115//12 114//11 116//12
f 115//12 117//13 118//13
f 117//13 115//12 116//12
f 118//13 119//14 120//14
f 119//14 118//13 117//13
f 120//14 121//15 122//15
f 121//15 120//14 119//14
f 122//15 123//16 124//16
f 123//16 122//15 121//15
f 124//16 125//17 126//17
f 125//17 124//16 123//16
f 126//17 127//18 128//18
f 127//18 126//17 125//17
f 127//18 129//19 128//18
f 129//19 127//18 130//19
f 130//19 131//20 129//19
f 131//20 130//19 132//20
f 132//20 133//21 131//20
f 133//21 132//20 134//21
f 134//21 135//22 133//21
f 135//22 134//21 136//22
f 136//22 137//23 135//22
f 137//23 136//22 138//23
f 138//23 139//24 137//23
f 139//24 138//23 140//24
f 141//25 139//24 140//24
f 139//24 141//25 142//25
f 143//26 142//25 141//25
f 142//25 143//26 144//26
f 106//7 144//26 143//26
f 144//26 106//7 105//7
