# SSTK version 0.8.0
# 25
mtllib original_25.mtl
o #ID80
v 0.01677126 0.67106671 0.01811316
v 0.00172841 0.67106537 0.01863534
v 0.00931591 0.67111809 0.02120599
v 0.00846471 0.67124103 0.01760327
v 0.02299290 0.67119690 0.01334559
v 0.01498114 0.67107798 0.01494265
v 0.02057866 0.67108419 0.01058949
v 0.02807755 0.67102036 0.00690334
v 0.02468774 0.67103995 0.00511109
v 0.03090107 0.67115593 -0.00040921
v 0.02752302 0.67115683 -0.00137787
v 0.03205257 0.67108256 -0.00828981
v 0.02836830 0.67118638 -0.00837597
v 0.03104351 0.67100959 -0.01624050
v 0.02732786 0.67106372 -0.01514658
v 0.02477240 0.67099973 -0.02159367
v 0.02799378 0.67112198 -0.02340096
v 0.02058833 0.67120947 -0.02732588
v 0.02320374 0.67103891 -0.02972306
v 0.01492354 0.67124096 -0.03163922
v 0.01682404 0.67102109 -0.03477347
v 0.00853775 0.67113537 -0.03430607
v 0.00170840 0.67119202 -0.03522208
v 0.00930054 0.67115506 -0.03758169
v -0.00637584 0.67113019 -0.03763170
v 0.00151852 0.67113033 -0.03874839
v -0.00646025 0.67107433 0.02116658
v 0.00164859 0.67096689 0.02214807
v -0.01378037 0.67112567 0.01811506
v -0.00529585 0.67111501 0.01756701
v -0.01993487 0.67119812 0.01309934
v -0.01183193 0.67108464 0.01488502
v -0.01755106 0.67101866 0.01065068
v -0.02468493 0.67118447 0.00689195
v -0.02180604 0.67099465 0.00502071
v -0.02778958 0.67107051 -0.00036888
v -0.02442803 0.67093439 -0.00127199
v -0.02888831 0.67103448 -0.00812827
v -0.02518514 0.67088262 -0.00822702
v -0.02433248 0.67119519 -0.01522801
v -0.02794501 0.67100462 -0.01628238
v -0.02180281 0.67119995 -0.02177793
v -0.02486291 0.67113996 -0.02353143
v -0.01741656 0.67104568 -0.02739625
v -0.01987322 0.67118399 -0.02975152
v -0.01189652 0.67088274 -0.03155680
v -0.01369690 0.67117653 -0.03456276
v -0.00537123 0.67105946 -0.03433410
v -0.00632289 0.67122100 -0.03786570
v 0.00154630 0.67096532 -0.03509839
v -0.01372252 0.67111051 -0.03460210
v -0.00536329 0.67108081 -0.03424788
v -0.01191637 0.67113401 -0.03169036
v -0.02003582 0.67101942 -0.02965115
v -0.01736297 0.67118986 -0.02729335
v -0.02478413 0.67111048 -0.02352835
v -0.02166770 0.67119320 -0.02167489
v -0.02778554 0.67099953 -0.01608587
v -0.02444389 0.67099038 -0.01524251
v -0.02884450 0.67110356 -0.00822092
v -0.02530602 0.67115764 -0.00818388
v -0.02425888 0.67100648 -0.00152582
v -0.02783080 0.67108577 -0.00033739
v -0.02163697 0.67099841 0.00511788
v -0.02478797 0.67108834 0.00697350
v -0.01738424 0.67110311 0.01068163
v -0.01994496 0.67113556 0.01309399
v -0.01184312 0.67102394 0.01492128
v -0.00547236 0.67095852 0.01763911
v -0.01382448 0.67101050 0.01818537
v 0.00165842 0.67107077 0.01862137
v 0.00941467 0.67121855 0.02111014
v -0.00623601 0.67105611 0.02109559
v 0.00163105 0.67111755 0.02220807
v 0.00168448 0.67120774 -0.03865333
v 0.00934111 0.67092664 -0.03771970
v 0.01665575 0.67109025 -0.03465401
v 0.00853043 0.67114142 -0.03422869
v 0.01495422 0.67109771 -0.03162692
v 0.02301061 0.67101058 -0.02997683
v 0.02061806 0.67110211 -0.02728712
v 0.02783875 0.67104278 -0.02358836
v 0.02490780 0.67097875 -0.02168265
v 0.03097405 0.67112622 -0.01627144
v 0.02742486 0.67098157 -0.01532220
v 0.02836384 0.67101344 -0.00818136
v 0.03187543 0.67119960 -0.00818820
v 0.02734492 0.67090004 -0.00146464
v 0.03094249 0.67093265 -0.00035115
v 0.02471652 0.67106383 0.00512294
v 0.02793397 0.67090823 0.00703433
v 0.02069647 0.67109499 0.01061332
v 0.02295324 0.67120570 0.01325450
v 0.01488898 0.67118093 0.01492290
v 0.00845332 0.67100866 0.01760849
v 0.01668654 0.67102836 0.01812497
v -0.02490617 0.67105151 0.00700557
v -0.02765671 0.66211986 -0.00040053
v -0.02481993 0.66213586 0.00698385
v -0.02778415 0.67113321 -0.00048515
v -0.02787656 0.67104403 -0.00048848
v -0.02464780 0.67105935 0.00681659
v -0.02778704 0.66202350 -0.00037162
v -0.02479592 0.66196898 0.00709529
v -0.01985381 0.67105514 0.01308758
v -0.01983005 0.66201891 0.01327662
v -0.02004242 0.67096518 0.01326167
v -0.02012538 0.66210668 0.01321209
v -0.01365084 0.66207005 0.01813213
v -0.01361860 0.67103490 0.01819051
v -0.01358641 0.66214387 0.01789456
v -0.01364839 0.67103483 0.01814489
v -0.00633610 0.66216373 0.02103850
v -0.00640671 0.67094751 0.02109327
v -0.00630562 0.66215016 0.02115270
v -0.00643960 0.67112625 0.02102377
v 0.00151858 0.66214935 0.02221217
v 0.00171669 0.67106322 0.02198872
v 0.00174850 0.66202673 0.02206385
v 0.00143757 0.67107715 0.02221550
v 0.00929332 0.66206375 0.02112728
v 0.00945200 0.67109663 0.02110759
v 0.00946772 0.66211193 0.02121947
v 0.00935989 0.67102783 0.02109449
v 0.01681815 0.66220347 0.01815880
v 0.01665695 0.67125595 0.01810844
v 0.01666566 0.66215746 0.01789217
v 0.01674074 0.67098037 0.01815587
v 0.02309711 0.66203985 0.01320659
v 0.02309742 0.67116337 0.01318092
v 0.02308970 0.66224424 0.01316427
v 0.02324983 0.67109064 0.01327165
v 0.02800601 0.67098420 0.00695622
v 0.02785291 0.66214059 0.00710905
v 0.02797440 0.67096412 0.00690208
v 0.02788047 0.66204232 0.00694255
v 0.03092301 0.67105081 -0.00038369
v 0.03097699 0.66207281 -0.00032145
v 0.03091812 0.67112278 -0.00046023
v 0.03095163 0.66220996 -0.00049873
v 0.03206116 0.67097973 -0.00827692
v 0.03200476 0.66217387 -0.00833641
v 0.03186245 0.67110076 -0.00819698
v 0.03209324 0.66215259 -0.00840021
v 0.03108386 0.67109346 -0.01624856
v 0.03091328 0.66213839 -0.01613937
v 0.03094884 0.67100508 -0.01603608
v 0.03092744 0.66206659 -0.01616923
v 0.02808314 0.67094368 -0.02362609
v 0.02780514 0.66206075 -0.02346770
v 0.02784891 0.67110896 -0.02336526
v 0.02789301 0.66205327 -0.02350044
v 0.02304085 0.67120503 -0.02970593
v 0.02310278 0.66214455 -0.02987413
v 0.02309213 0.67105977 -0.02972032
v 0.02309579 0.66207927 -0.02986179
v 0.01677054 0.66229231 -0.03461469
v 0.01666560 0.67100422 -0.03451411
v 0.01690364 0.67112442 -0.03463676
v 0.01684229 0.66203867 -0.03462119
v 0.00935820 0.66218453 -0.03765194
v 0.00942393 0.67103112 -0.03780537
v 0.00948049 0.67103503 -0.03756756
v 0.00957954 0.66205975 -0.03771257
v 0.00169794 0.66208925 -0.03871952
v 0.00155168 0.67109671 -0.03886539
v 0.00152428 0.67119362 -0.03883299
v 0.00158436 0.66196058 -0.03888022
v -0.00619925 0.66203609 -0.03755279
v -0.00620664 0.67105541 -0.03769486
v -0.00627687 0.67108361 -0.03766352
v -0.00613538 0.66202380 -0.03765794
v -0.01378324 0.66211341 -0.03457706
v -0.01367909 0.67115170 -0.03466442
v -0.01369702 0.67106380 -0.03455061
v -0.01374465 0.66205618 -0.03464389
v -0.01994588 0.66210576 -0.02986251
v -0.01989530 0.67110409 -0.02982793
v -0.02009514 0.67096406 -0.02977780
v -0.01994568 0.66208347 -0.02975799
v -0.02477857 0.67107579 -0.02367877
v -0.02484297 0.66200358 -0.02354105
v -0.02479014 0.67117721 -0.02361465
v -0.02484462 0.66218905 -0.02346597
v -0.02788341 0.67101896 -0.01613732
v -0.02776154 0.66208502 -0.01609797
v -0.02790091 0.67104052 -0.01622520
v -0.02781257 0.66208669 -0.01611362
v -0.02897526 0.67112361 -0.00821533
v -0.02872748 0.66215731 -0.00838287
v -0.02893360 0.67097715 -0.00825928
v -0.02878879 0.66203640 -0.00827495
vn 0 1 0
vn 0 -1 0
vn -0.86602540283834 0 0.5000000016386907
vn -0.9659258358036703 0 0.2588190095935402
vn 0.9659258358036703 0 -0.2588190095935402
vn 0.86602540283834 0 -0.5000000016386907
vn -0.7071067811865632 0 0.7071067811865319
vn 0.7071067811865632 0 -0.7071067811865319
vn -0.5000000016387293 0 0.8660254028383179
vn 0.5000000016387293 0 -0.8660254028383179
vn -0.25881900959358306 0 0.9659258358036588
vn 0.25881900959358306 0 -0.9659258358036588
vn 0 0 1
vn 0 0 -1
vn 0.2588190095935402 0 0.9659258358036703
vn -0.2588190095935402 0 -0.9659258358036703
vn 0.5000000016386907 0 0.86602540283834
vn -0.5000000016386907 0 -0.86602540283834
vn 0.7071067811865319 0 0.7071067811865632
vn -0.7071067811865319 0 -0.7071067811865632
vn 0.8660254028383179 0 0.5000000016387293
vn -0.8660254028383179 0 -0.5000000016387293
vn 0.9659258358036588 0 0.25881900959358306
vn -0.9659258358036588 0 -0.25881900959358306
vn 1 0 0
vn -1 0 0
usemtl material_0_0
f 1//1 2//1 3//1
f 2//1 1//1 4//1
f 4//1 1//1 5//1
f 4//1 5//1 6//1
f 6//1 5//1 7//1
f 7//1 5//1 8//1
f 7//1 8//1 9//1
f 9//1 8//1 10//1
f 9//1 10//1 11//1
f 11//1 10//1 12//1
f 11//1 12//1 13//1
f 13//1 12//1 14//1
f 13//1 14//1 15//1
f 15//1 14//1 16//1
f 16//1 14//1 17//1
f 16//1 17//1 18//1
f 18//1 17//1 19//1
f 18//1 19//1 20//1
f 20//1 19//1 21//1
f 20//1 21//1 22//1
f 22//1 21//1 23//1
f 23//1 21//1 24//1
f 23//1 24//1 25//1
f 25//1 24//1 26//1
f 3//1 27//1 28//1
f 27//1 3//1 29//1
f 29//1 3//1 2//1
f 29//1 2//1 30//1
f 29//1 30//1 31//1
f 31//1 30//1 32//1
f 31//1 32//1 33//1
f 31//1 33//1 34//1
f 34//1 33//1 35//1
f 34//1 35//1 36//1
f 36//1 35//1 37//1
f 36//1 37//1 38//1
f 38//1 37//1 39//1
f 38//1 39//1 40//1
f 38//1 40//1 41//1
f 41//1 40//1 42//1
f 41//1 42//1 43//1
f 43//1 42//1 44//1
f 43//1 44//1 45//1
f 45//1 44//1 46//1
f 45//1 46//1 47//1
f 47//1 46//1 48//1
f 47//1 48//1 23//1
f 47//1 23//1 25//1
f 49//2 50//2 51//2
f 50//2 52//2 51//2
f 52//2 53//2 51//2
f 51//2 53//2 54//2
f 53//2 55//2 54//2
f 54//2 55//2 56//2
f 55//2 57//2 56//2
f 56//2 57//2 58//2
f 57//2 59//2 58//2
f 58//2 59//2 60//2
f 59//2 61//2 60//2
f 61//2 62//2 60//2
f 60//2 62//2 63//2
f 62//2 64//2 63//2
f 63//2 64//2 65//2
f 64//2 66//2 65//2
f 65//2 66//2 67//2
f 66//2 68//2 67//2
f 68//2 69//2 67//2
f 67//2 69//2 70//2
f 69//2 71//2 70//2
f 71//2 72//2 70//2
f 70//2 72//2 73//2
f 74//2 73//2 72//2
f 75//2 76//2 49//2
f 49//2 76//2 50//2
f 76//2 77//2 50//2
f 50//2 77//2 78//2
f 78//2 77//2 79//2
f 77//2 80//2 79//2
f 79//2 80//2 81//2
f 80//2 82//2 81//2
f 81//2 82//2 83//2
f 82//2 84//2 83//2
f 83//2 84//2 85//2
f 85//2 84//2 86//2
f 84//2 87//2 86//2
f 86//2 87//2 88//2
f 87//2 89//2 88//2
f 88//2 89//2 90//2
f 89//2 91//2 90//2
f 90//2 91//2 92//2
f 91//2 93//2 92//2
f 92//2 93//2 94//2
f 94//2 93//2 95//2
f 93//2 96//2 95//2
f 95//2 96//2 71//2
f 72//2 71//2 96//2
f 97//3 98//4 99//3
f 98//4 97//3 100//4
f 101//5 102//6 103//5
f 104//6 103//5 102//6
f 105//7 99//3 106//7
f 99//3 105//7 97//3
f 102//6 107//8 104//6
f 108//8 104//6 107//8
f 105//7 109//9 110//9
f 109//9 105//7 106//7
f 108//8 107//8 111//10
f 112//10 111//10 107//8
f 110//9 113//11 114//11
f 113//11 110//9 109//9
f 111//10 112//10 115//12
f 116//12 115//12 112//10
f 114//11 117//13 118//13
f 117//13 114//11 113//11
f 115//12 116//12 119//14
f 120//14 119//14 116//12
f 118//13 121//15 122//15
f 121//15 118//13 117//13
f 119//14 120//14 123//16
f 124//16 123//16 120//14
f 122//15 125//17 126//17
f 125//17 122//15 121//15
f 123//16 124//16 127//18
f 128//18 127//18 124//16
f 126//17 129//19 130//19
f 129//19 126//17 125//17
f 127//18 128//18 131//20
f 132//20 131//20 128//18
f 133//21 129//19 134//21
f 129//19 133//21 130//19
f 132//20 135//22 131//20
f 136//22 131//20 135//22
f 137//23 134//21 138//23
f 134//21 137//23 133//21
f 135//22 139//24 136//22
f 140//24 136//22 139//24
f 141//25 138//23 142//25
f 138//23 141//25 137//23
f 139//24 143//26 140//24
f 144//26 140//24 143//26
f 145//5 142//25 146//5
f 142//25 145//5 141//25
f 143//26 147//4 144//26
f 148//4 144//26 147//4
f 149//6 146//5 150//6
f 146//5 149//6 145//5
f 147//4 151//3 148//4
f 152//3 148//4 151//3
f 153//8 150//6 154//8
f 150//6 153//8 149//6
f 151//3 155//7 152//3
f 156//7 152//3 155//7
f 157//10 153//8 154//8
f 153//8 157//10 158//10
f 159//9 160//9 155//7
f 156//7 155//7 160//9
f 161//12 158//10 157//10
f 158//10 161//12 162//12
f 163//11 164//11 159//9
f 160//9 159//9 164//11
f 165//14 162//12 161//12
f 162//12 165//14 166//14
f 167//13 168//13 163//11
f 164//11 163//11 168//13
f 169//16 166//14 165//14
f 166//14 169//16 170//16
f 171//15 172//15 167//13
f 168//13 167//13 172//15
f 173//18 170//16 169//16
f 170//16 173//18 174//18
f 175//17 176//17 171//15
f 172//15 171//15 176//17
f 177//20 174//18 173//18
f 174//18 177//20 178//20
f 179//19 180//19 175//17
f 176//17 175//17 180//19
f 181//22 177//20 182//22
f 177//20 181//22 178//20
f 179//19 183//21 180//19
f 184//21 180//19 183//21
f 185//24 182//22 186//24
f 182//22 185//24 181//22
f 183//21 187//23 184//21
f 188//23 184//21 187//23
f 189//26 186//24 190//26
f 186//24 189//26 185//24
f 187//23 191//25 188//23
f 192//25 188//23 191//25
f 100//4 190//26 98//4
f 190//26 100//4 189//26
f 191//25 101//5 192//25
f 103//5 192//25 101//5
