# SSTK version 0.8.0
# 8
mtllib original-8.mtl
o #ID71
v -0.07416808 0.55466667 0.07035261
v 0.06167518 0.55452133 0.05538141
v -0.05922126 0.55469487 0.05530985
v 0.07683600 0.55462054 0.07045912
v -0.05916195 0.55458553 -0.06559158
v -0.07434119 0.55468907 -0.08070139
v 0.06162581 0.55460853 -0.06554100
v 0.07684273 0.55456103 -0.08071089
vt 0.5004703 0.2272112
vt 0.483071 0.3838045
vt 0.483071 0.2446104
vt 0.5004703 0.4012039
vt 0.3438767 0.2446104
vt 0.3264775 0.2272112
vt 0.3438767 0.3838045
vt 0.3264774 0.4012037
vn 0 1 0
usemtl material_0_0
f 1/1/1 2/2/1 3/3/1
f 2/2/1 1/1/1 4/4/1
f 1/1/1 5/5/1 6/6/1
f 5/5/1 1/1/1 3/3/1
f 7/7/1 4/4/1 8/8/1
f 4/4/1 7/7/1 2/2/1
f 6/6/1 7/7/1 8/8/1
f 7/7/1 6/6/1 5/5/1
