# SSTK version 0.8.0
# 10
mtllib original-10.mtl
o #ID96
v 0.06492803 0.69137645 0.19786963
v 0.03980427 0.71723973 0.20337453
v 0.03983682 0.69140463 0.20331282
v 0.06495720 0.71724083 0.19796371
v 0.01412991 0.71708432 0.20541435
v 0.01412644 0.69132651 0.20552338
v 0.16515256 0.69127165 -0.13403206
v 0.04343220 0.69137035 -0.14350252
v 0.02514757 0.69136769 -0.14657057
v 0.18079004 0.69141164 -0.11347724
v 0.06124674 0.69136014 -0.13816912
v 0.07807344 0.69144592 -0.13047279
v 0.09392367 0.69141824 -0.12100491
v 0.19370340 0.69134716 -0.09098946
v 0.10839241 0.69131332 -0.10947959
v 0.12143718 0.69133060 -0.09617981
v 0.20365402 0.69133903 -0.06722904
v 0.13260093 0.69127449 -0.08150276
v 0.14181768 0.69135363 -0.06548425
v 0.21056828 0.69138214 -0.04255322
v 0.14903267 0.69140004 -0.04831906
v 0.21423987 0.69137946 -0.01688817
v 0.15403085 0.69142113 -0.03040167
v 0.15685304 0.69141065 -0.01210192
v 0.21494623 0.69137548 0.00879635
v 0.15707442 0.69134318 0.00640733
v 0.21225045 0.69141328 0.03449900
v 0.15521509 0.69128605 0.02476125
v 0.15101460 0.69138301 0.04281877
v 0.20631179 0.69130043 0.05944972
v 0.14445055 0.69128332 0.06025749
v 0.19729337 0.69133422 0.08368610
v 0.13587406 0.69130993 0.07662134
v 0.12541031 0.69132990 0.09175561
v 0.18530510 0.69126151 0.10662665
v 0.11289438 0.69135463 0.10554327
v 0.17058643 0.69140161 0.12763652
v 0.09893583 0.69143055 0.11772240
v 0.08346212 0.69129773 0.12803064
v 0.15343856 0.69136300 0.14692674
v 0.06691662 0.69140074 0.13614108
v 0.04943514 0.69128462 0.14220525
v 0.13393286 0.69141152 0.16364759
v 0.03136696 0.69128665 0.14614914
v 0.01293479 0.69137045 0.14768751
v -0.00564392 0.69143749 0.14696076
v -0.14564645 0.69126848 0.13434298
v -0.12753026 0.69133036 0.15286376
v 0.11245846 0.69135615 0.17807042
v -0.10738024 0.69144870 0.16872351
v 0.08928575 0.69144381 0.18937066
v -0.08546212 0.69133271 0.18205182
v 0.06499685 0.69140511 0.19789859
v 0.03979299 0.69141788 0.20320102
v -0.06178295 0.69135925 0.19266288
v 0.01399266 0.69135709 0.20546070
v -0.03712173 0.69134386 0.20000192
v -0.01171841 0.69134621 0.20437563
v 0.05666685 0.69135901 -0.19976822
v 0.00545331 0.69140222 -0.20502477
v 0.03116881 0.69139619 -0.20395610
v -0.02018602 0.69131243 -0.20292564
v 0.08140926 0.69136687 -0.19226726
v -0.04550914 0.69138343 -0.19750535
v 0.10487131 0.69141199 -0.18178681
v -0.06990026 0.69128031 -0.18907698
v 0.12684574 0.69137043 -0.16845385
v -0.09280496 0.69145304 -0.17760550
v 0.14722067 0.69132372 -0.15234812
v -0.11446683 0.69144261 -0.16337155
v 0.00669268 0.69132225 -0.14733235
v -0.13381987 0.69136789 -0.14647577
v -0.01184339 0.69126898 -0.14572567
v -0.02992564 0.69141781 -0.14197027
v -0.04732660 0.69129752 -0.13589921
v -0.15105782 0.69140395 -0.12732967
v -0.06404666 0.69132046 -0.12747363
v -0.07935243 0.69129521 -0.11725284
v -0.16575645 0.69136523 -0.10617653
v -0.09347139 0.69143679 -0.10529483
v -0.10581495 0.69141947 -0.09138176
v -0.17786925 0.69127103 -0.08320824
v -0.11636980 0.69129209 -0.07624962
v -0.18670760 0.69128790 -0.05912561
v -0.12505942 0.69141333 -0.05988231
v -0.13157654 0.69143497 -0.04238032
v -0.19272494 0.69126698 -0.03404560
v -0.13577150 0.69137383 -0.02443861
v -0.19539088 0.69135888 -0.00840269
v -0.13767355 0.69131852 -0.00606196
v -0.13726107 0.69145122 0.01255739
v -0.19490972 0.69138531 0.01732829
v -0.13448265 0.69139574 0.03088145
v -0.19103471 0.69131014 0.04286680
v -0.12948114 0.69126696 0.04877485
v -0.12229646 0.69139797 0.06587738
v -0.18419942 0.69141041 0.06768094
v -0.11319220 0.69137155 0.08190753
v -0.17416605 0.69135856 0.09151605
v -0.10193011 0.69137479 0.09651450
v -0.08905360 0.69139498 0.10974887
v -0.16130491 0.69140446 0.11374033
v -0.07438663 0.69134870 0.12131350
v -0.05862148 0.69137727 0.13100567
v -0.04175665 0.69141187 0.13845901
v -0.02397346 0.69132179 0.14380014
v 0.08935220 0.69137985 0.18949865
v 0.08936048 0.71723535 0.18938398
v 0.00550947 0.71718051 -0.20506726
v 0.05669596 0.71710444 -0.19967287
v 0.03130200 0.71716198 -0.20393858
v -0.02026444 0.71724434 -0.20283787
v 0.08122833 0.71715689 -0.19231732
v -0.04551580 0.71720490 -0.19749001
v 0.10487451 0.71717390 -0.18174899
v -0.06977296 0.71717522 -0.18914049
v 0.12684838 0.71721820 -0.16845769
v -0.09298758 0.71711627 -0.17761454
v 0.14702699 0.71712621 -0.15236013
v -0.11446562 0.71708484 -0.16331725
v 0.16512915 0.71709161 -0.13401013
v -0.13396239 0.71705144 -0.14652910
v 0.18072111 0.71707194 -0.11345120
v 0.19373656 0.71714629 -0.09107349
v -0.15110309 0.71710094 -0.12736451
v -0.16583933 0.71714789 -0.10623661
v 0.20358530 0.71720378 -0.06730405
v -0.17780287 0.71724425 -0.08334730
v 0.21060463 0.71722643 -0.04252698
v -0.18688437 0.71706414 -0.05915359
v 0.21440231 0.71719529 -0.01703287
v -0.19257239 0.71723127 -0.03398591
v 0.21492512 0.71715605 0.00873369
v 0.21226291 0.71716115 0.03445578
v -0.19529980 0.71710384 -0.00839340
v -0.19490765 0.71712047 0.01743983
v 0.20618749 0.71723275 0.05948549
v 0.19730307 0.71718977 0.08365070
v -0.19100890 0.71707463 0.04291429
v -0.18418580 0.71717271 0.06766008
v 0.18540089 0.71716989 0.10649754
v -0.17413214 0.71719546 0.09147382
v 0.17071374 0.71723130 0.12775459
v -0.16132868 0.71722593 0.11384289
v 0.15342384 0.71705128 0.14689500
v -0.14561941 0.71710565 0.13432032
v 0.13386462 0.71719047 0.16377536
v -0.12761317 0.71716157 0.15270302
v 0.11231425 0.71723798 0.17793015
v -0.10740784 0.71710516 0.16870986
v 0.08924681 0.71706724 0.18942953
v -0.08531879 0.71713097 0.18219967
v 0.06496305 0.71709996 0.19786703
v -0.06176038 0.71705738 0.19256492
v 0.03964109 0.71711477 0.20321617
v -0.03716122 0.71724485 0.20013570
v 0.01397997 0.71709904 0.20541103
v -0.01171461 0.71716708 0.20428422
v -0.01177961 0.71711012 0.20442707
v -0.01171226 0.69127269 0.20431825
v 0.18078952 0.71709762 -0.11345524
v 0.19353947 0.69141272 -0.09111242
v 0.18083384 0.69144888 -0.11349665
v 0.19360469 0.71721304 -0.09103772
v 0.20358711 0.69132620 -0.06722046
v 0.20363160 0.71720412 -0.06736023
v 0.21065324 0.69129939 -0.04253106
v 0.21056535 0.71705522 -0.04239486
v 0.21438312 0.69136027 -0.01692253
v 0.21439078 0.71720450 -0.01703926
v 0.21488021 0.69130665 0.00875737
v 0.21480684 0.71713447 0.00870810
v 0.21219243 0.69129573 0.03435346
v 0.21211816 0.71706420 0.03444203
v 0.20622535 0.69132721 0.05954699
v 0.20636120 0.71710572 0.05952928
v 0.19721967 0.69130956 0.08373129
v 0.19738819 0.71710917 0.08378562
v 0.18538821 0.69127450 0.10664620
v 0.18538228 0.71716054 0.10647000
v 0.17062825 0.69140203 0.12766723
v 0.17072115 0.71711741 0.12776183
v 0.15337890 0.69140675 0.14686059
v 0.15334544 0.71719018 0.14690063
v 0.13385172 0.69144847 0.16363427
v 0.13387968 0.71713658 0.16369887
v 0.11247562 0.71720054 0.17798705
v 0.11238474 0.69144306 0.17792925
v -0.03719585 0.71705398 0.20007131
v -0.03708645 0.69136470 0.20004287
v -0.06174473 0.71712456 0.19271686
v -0.06190732 0.69126800 0.19253762
v -0.08533012 0.71709381 0.18206163
v -0.08538684 0.69141114 0.18205450
v -0.10737750 0.71707168 0.16871423
v -0.10736857 0.69133439 0.16871477
v -0.12758178 0.71711130 0.15274091
v -0.12769123 0.69142798 0.15278109
v -0.14569870 0.71713509 0.13441578
v -0.14556068 0.69138198 0.13427976
v -0.16118764 0.69130439 0.11374647
v -0.16129356 0.71712531 0.11378931
v -0.17409967 0.69143899 0.09157636
v -0.17414537 0.71713698 0.09140986
v -0.18413204 0.69126649 0.06771096
v -0.18408623 0.71716126 0.06773570
v -0.19114441 0.69126926 0.04290727
v -0.19110401 0.71720395 0.04282261
v -0.19489123 0.69129610 0.01739897
v -0.19490456 0.71708851 0.01731642
v -0.19537889 0.69136155 -0.00845338
v -0.19527844 0.71712954 -0.00838412
v -0.19269778 0.69142880 -0.03399000
v -0.19262034 0.71717490 -0.03395638
v -0.18669436 0.69135467 -0.05913183
v -0.18687836 0.71714562 -0.05904506
v -0.17777950 0.69142987 -0.08331886
v -0.17774281 0.71710969 -0.08329675
v -0.16586347 0.69139385 -0.10613385
v -0.16595175 0.71711655 -0.10617418
v -0.15120438 0.69143307 -0.12738210
v -0.15123307 0.71713415 -0.12741082
v -0.13394577 0.69136652 -0.14648911
v -0.13384642 0.71706017 -0.14649303
v -0.11437684 0.69125883 -0.16329140
v -0.11440597 0.71705213 -0.16342374
v -0.09280071 0.71717293 -0.17753562
v -0.09281304 0.69127486 -0.17766624
v -0.06975511 0.71722094 -0.18904017
v -0.06976465 0.69142354 -0.18908893
v -0.04540140 0.71705491 -0.19762567
v -0.04550787 0.69134132 -0.19758296
v -0.02019386 0.71720856 -0.20290937
v -0.02018795 0.69127117 -0.20293063
v 0.00553632 0.71706989 -0.20506661
v 0.00547961 0.69142889 -0.20501497
v 0.03112155 0.71707093 -0.20403397
v 0.03127519 0.69126830 -0.20392842
v 0.05671037 0.71717759 -0.19959485
v 0.05654605 0.69141170 -0.19971382
v 0.08122605 0.71722339 -0.19229931
v 0.08127880 0.69131334 -0.19212718
v 0.10488193 0.71711824 -0.18166996
v 0.10483210 0.69128552 -0.18164084
v 0.12692152 0.71722314 -0.16831195
v 0.12689308 0.69132028 -0.16841451
v 0.14712965 0.71722228 -0.15245097
v 0.14707626 0.69139822 -0.15229219
v 0.16515242 0.71714817 -0.13394683
v 0.16513280 0.69126033 -0.13402318
vn 0.2689198579838444 0 0.9631625563641627
vn 0.14608303129773717 0 0.9892723325590705
vn 0.020942386755730256 0 0.9997806841687699
vn 0 -1 0
vn 0.3875155985108989 0 0.9218631465194495
vn 0 1 0
vn -0.1045284632676551 0 0.9945218953682733
vn 0.8329212212500386 0 -0.5533915785330891
vn 0.895711752278649 0 -0.4446351952217823
vn 0.9443763743834487 0 -0.32886663483298606
vn 0.9781475985745968 0 -0.20791170097603814
vn 0.9964928612209454 0 -0.08367781985504838
vn 0.9991228301932787 0 0.04187565147639523
vn 0.9859960366944772 0 0.16676874893931182
vn 0.9573195043416248 0 0.2890317743901278
vn 0.9135454534185496 0 0.40673665256317443
vn 0.8553642666911859 0 0.5180269985896967
vn 0.7836934462047861 0 0.6211477943095881
vn 0.6996633153888709 0 0.7144727042365253
vn 0.6045991263717689 0 0.7965299092880905
vn 0.5000000305619272 0 0.866025386139501
vn -0.2283508378512253 0 0.9735789104395407
vn -0.3485720499133912 0 0.9372819885280931
vn -0.46329606950260455 0 0.8862035612563502
vn -0.5707135784258015 0 0.8211492016682573
vn -0.6691306325843477 0 0.7431448018638567
vn -0.7569950650933064 0 0.6534205930519645
vn -0.8329212212500386 0 0.5533915785330891
vn -0.895711752278649 0 0.4446351952217823
vn -0.9443763743834487 0 0.32886663483298606
vn -0.9781475985745968 0 0.20791170097603814
vn -0.9964928612209454 0 0.08367781985504838
vn -0.9991228301932787 0 -0.04187565147639523
vn -0.9859960366944772 0 -0.16676874893931182
vn -0.9573195043416248 0 -0.2890317743901278
vn -0.9135454534185496 0 -0.40673665256317443
vn -0.8553642666911859 0 -0.5180269985896967
vn -0.7836934462047861 0 -0.6211477943095881
vn -0.6996633153888709 0 -0.7144727042365253
vn -0.6045991263717689 0 -0.7965299092880905
vn -0.5000000305619272 0 -0.866025386139501
vn -0.3875155985108989 0 -0.9218631465194495
vn -0.2689198579838444 0 -0.9631625563641627
vn -0.14608303129773717 0 -0.9892723325590705
vn -0.020942386755730256 0 -0.9997806841687699
vn 0.1045284632676551 0 -0.9945218953682733
vn 0.2283508378512253 0 -0.9735789104395407
vn 0.3485720499133912 0 -0.9372819885280931
vn 0.46329606950260455 0 -0.8862035612563502
vn 0.5707135784258015 0 -0.8211492016682573
vn 0.6691306325843477 0 -0.7431448018638567
vn 0.7569950650933064 0 -0.6534205930519645
usemtl material_0_0
f 1//1 2//2 3//2
f 2//2 1//1 4//1
f 3//2 5//3 6//3
f 5//3 3//2 2//2
f 7//4 8//4 9//4
f 8//4 7//4 10//4
f 8//4 10//4 11//4
f 11//4 10//4 12//4
f 12//4 10//4 13//4
f 13//4 10//4 14//4
f 13//4 14//4 15//4
f 15//4 14//4 16//4
f 16//4 14//4 17//4
f 16//4 17//4 18//4
f 18//4 17//4 19//4
f 19//4 17//4 20//4
f 19//4 20//4 21//4
f 21//4 20//4 22//4
f 21//4 22//4 23//4
f 23//4 22//4 24//4
f 24//4 22//4 25//4
f 24//4 25//4 26//4
f 26//4 25//4 27//4
f 26//4 27//4 28//4
f 28//4 27//4 29//4
f 29//4 27//4 30//4
f 29//4 30//4 31//4
f 31//4 30//4 32//4
f 31//4 32//4 33//4
f 33//4 32//4 34//4
f 34//4 32//4 35//4
f 34//4 35//4 36//4
f 36//4 35//4 37//4
f 36//4 37//4 38//4
f 38//4 37//4 39//4
f 39//4 37//4 40//4
f 39//4 40//4 41//4
f 41//4 40//4 42//4
f 42//4 40//4 43//4
f 42//4 43//4 44//4
f 44//4 43//4 45//4
f 45//4 43//4 46//4
f 46//4 43//4 47//4
f 47//4 43//4 48//4
f 48//4 43//4 49//4
f 48//4 49//4 50//4
f 50//4 49//4 51//4
f 50//4 51//4 52//4
f 52//4 51//4 53//4
f 52//4 53//4 54//4
f 52//4 54//4 55//4
f 55//4 54//4 56//4
f 55//4 56//4 57//4
f 57//4 56//4 58//4
f 59//4 60//4 61//4
f 60//4 59//4 62//4
f 62//4 59//4 63//4
f 62//4 63//4 64//4
f 64//4 63//4 65//4
f 64//4 65//4 66//4
f 66//4 65//4 67//4
f 66//4 67//4 68//4
f 68//4 67//4 69//4
f 68//4 69//4 7//4
f 68//4 7//4 70//4
f 70//4 7//4 9//4
f 70//4 9//4 71//4
f 70//4 71//4 72//4
f 72//4 71//4 73//4
f 72//4 73//4 74//4
f 72//4 74//4 75//4
f 72//4 75//4 76//4
f 76//4 75//4 77//4
f 76//4 77//4 78//4
f 76//4 78//4 79//4
f 79//4 78//4 80//4
f 79//4 80//4 81//4
f 79//4 81//4 82//4
f 82//4 81//4 83//4
f 82//4 83//4 84//4
f 84//4 83//4 85//4
f 84//4 85//4 86//4
f 84//4 86//4 87//4
f 87//4 86//4 88//4
f 87//4 88//4 89//4
f 89//4 88//4 90//4
f 89//4 90//4 91//4
f 89//4 91//4 92//4
f 92//4 91//4 93//4
f 92//4 93//4 94//4
f 94//4 93//4 95//4
f 94//4 95//4 96//4
f 94//4 96//4 97//4
f 97//4 96//4 98//4
f 97//4 98//4 99//4
f 99//4 98//4 100//4
f 99//4 100//4 101//4
f 99//4 101//4 102//4
f 102//4 101//4 103//4
f 102//4 103//4 104//4
f 102//4 104//4 47//4
f 47//4 104//4 105//4
f 47//4 105//4 106//4
f 47//4 106//4 46//4
f 107//5 4//1 1//1
f 4//1 107//5 108//5
f 109//6 110//6 111//6
f 110//6 109//6 112//6
f 110//6 112//6 113//6
f 113//6 112//6 114//6
f 113//6 114//6 115//6
f 115//6 114//6 116//6
f 115//6 116//6 117//6
f 117//6 116//6 118//6
f 117//6 118//6 119//6
f 119//6 118//6 120//6
f 119//6 120//6 121//6
f 121//6 120//6 122//6
f 121//6 122//6 123//6
f 123//6 122//6 124//6
f 124//6 122//6 125//6
f 124//6 125//6 126//6
f 124//6 126//6 127//6
f 127//6 126//6 128//6
f 127//6 128//6 129//6
f 129//6 128//6 130//6
f 129//6 130//6 131//6
f 131//6 130//6 132//6
f 131//6 132//6 133//6
f 133//6 132//6 134//6
f 134//6 132//6 135//6
f 134//6 135//6 136//6
f 134//6 136//6 137//6
f 137//6 136//6 138//6
f 138//6 136//6 139//6
f 138//6 139//6 140//6
f 138//6 140//6 141//6
f 141//6 140//6 142//6
f 141//6 142//6 143//6
f 143//6 142//6 144//6
f 143//6 144//6 145//6
f 145//6 144//6 146//6
f 145//6 146//6 147//6
f 147//6 146//6 148//6
f 147//6 148//6 149//6
f 149//6 148//6 150//6
f 149//6 150//6 151//6
f 151//6 150//6 152//6
f 151//6 152//6 153//6
f 153//6 152//6 154//6
f 153//6 154//6 155//6
f 155//6 154//6 156//6
f 155//6 156//6 157//6
f 157//6 156//6 158//6
f 6//3 159//7 160//7
f 159//7 6//3 5//3
f 161//8 162//9 163//8
f 162//9 161//8 164//9
f 164//9 165//10 162//9
f 165//10 164//9 166//10
f 166//10 167//11 165//10
f 167//11 166//10 168//11
f 168//11 169//12 167//11
f 169//12 168//11 170//12
f 170//12 171//13 169//12
f 171//13 170//12 172//13
f 172//13 173//14 171//13
f 173//14 172//13 174//14
f 174//14 175//15 173//14
f 175//15 174//14 176//15
f 176//15 177//16 175//15
f 177//16 176//15 178//16
f 178//16 179//17 177//16
f 179//17 178//16 180//17
f 180//17 181//18 179//17
f 181//18 180//17 182//18
f 182//18 183//19 181//18
f 183//19 182//18 184//19
f 184//19 185//20 183//19
f 185//20 184//19 186//20
f 185//20 187//21 188//21
f 187//21 185//20 186//20
f 188//21 108//5 107//5
f 108//5 188//21 187//21
f 160//7 189//22 190//22
f 189//22 160//7 159//7
f 190//22 191//23 192//23
f 191//23 190//22 189//22
f 192//23 193//24 194//24
f 193//24 192//23 191//23
f 194//24 195//25 196//25
f 195//25 194//24 193//24
f 196//25 197//26 198//26
f 197//26 196//25 195//25
f 198//26 199//27 200//27
f 199//27 198//26 197//26
f 199//27 201//28 200//27
f 201//28 199//27 202//28
f 202//28 203//29 201//28
f 203//29 202//28 204//29
f 204//29 205//30 203//29
f 205//30 204//29 206//30
f 206//30 207//31 205//30
f 207//31 206//30 208//31
f 208//31 209//32 207//31
f 209//32 208//31 210//32
f 210//32 211//33 209//32
f 211//33 210//32 212//33
f 212//33 213//34 211//33
f 213//34 212//33 214//34
f 214//34 215//35 213//34
f 215//35 214//34 216//35
f 216//35 217//36 215//35
f 217//36 216//35 218//36
f 218//36 219//37 217//36
f 219//37 218//36 220//37
f 220//37 221//38 219//37
f 221//38 220//37 222//38
f 222//38 223//39 221//38
f 223//39 222//38 224//39
f 224//39 225//40 223//39
f 225//40 224//39 226//40
f 227//41 225//40 226//40
f 225//40 227//41 228//41
f 229//42 228//41 227//41
f 228//41 229//42 230//42
f 231//43 230//42 229//42
f 230//42 231//43 232//43
f 233//44 232//43 231//43
f 232//43 233//44 234//44
f 235//45 234//44 233//44
f 234//44 235//45 236//45
f 237//46 236//45 235//45
f 236//45 237//46 238//46
f 239//47 238//46 237//46
f 238//46 239//47 240//47
f 241//48 240//47 239//47
f 240//47 241//48 242//48
f 243//49 242//48 241//48
f 242//48 243//49 244//49
f 245//50 244//49 243//49
f 244//49 245//50 246//50
f 247//51 246//50 245//50
f 246//50 247//51 248//51
f 249//52 248//51 247//51
f 248//51 249//52 250//52
f 249//52 163//8 250//52
f 163//8 249//52 161//8
