# SSTK version 0.8.0
# 4
mtllib original-4.mtl
o #ID53
v 0.01322057 0.95151966 0.24552841
v 0.01547431 0.95213589 0.24117058
v 0.01567128 0.95202307 0.24550809
v 0.01319428 0.95182756 0.24121717
v 0.01540874 0.95238844 0.23667797
v 0.01315143 0.95198692 0.23673638
v 0.01783668 0.95295953 0.24111446
v 0.01793313 0.95282301 0.24554189
v 0.01318849 0.95118372 0.24992388
v 0.01561760 0.95152112 0.25006313
v 0.01064498 0.95195259 0.24117097
v 0.01081633 0.95168396 0.24551532
v 0.01548415 0.95248761 0.23227433
v 0.01306062 0.95206049 0.23221935
v 0.01772327 0.95317719 0.23671890
v 0.01066707 0.95227507 0.23683664
v 0.01994628 0.95433521 0.24118752
v 0.01985594 0.95405746 0.24559333
v 0.01783451 0.95244677 0.25004863
v 0.01323827 0.95090390 0.25433393
v 0.01571323 0.95122503 0.25433759
v 0.01081802 0.95137359 0.25006369
v 0.00836870 0.95266277 0.24128503
v 0.00846264 0.95233421 0.24571475
v 0.01545276 0.95249182 0.22767558
v 0.01292321 0.95223463 0.22776906
v 0.01778103 0.95327968 0.23216310
v 0.01061634 0.95220509 0.23222679
v 0.01986188 0.95444510 0.23670260
v 0.00832913 0.95280295 0.23688164
v 0.02163411 0.95605153 0.24117255
v 0.02169406 0.95587553 0.24570990
v 0.02000973 0.95367839 0.25015058
v 0.01794365 0.95202733 0.25453593
v 0.01345082 0.95040058 0.25881601
v 0.01580836 0.95070337 0.25882537
v 0.01089425 0.95101017 0.25438219
v 0.00843554 0.95208677 0.25010583
v 0.00614405 0.95370395 0.24123077
v 0.00624539 0.95347062 0.24577712
v 0.01314966 0.95252220 0.04435791
v 0.01066440 0.95224968 0.04430949
v 0.01764357 0.95340103 0.22773554
v 0.01056604 0.95238892 0.22783878
v 0.01974663 0.95467089 0.23228093
v 0.00832171 0.95301188 0.23237755
v 0.02157021 0.95626641 0.23683993
v 0.00609150 0.95401307 0.23695120
v 0.02302235 0.95780479 0.24586283
v 0.02296803 0.95816196 0.24141984
v 0.02172191 0.95540706 0.25017481
v 0.02012612 0.95330684 0.25459522
v 0.01793395 0.95163354 0.25889723
v 0.01347916 0.94977064 0.26315456
v 0.01587439 0.95017000 0.26321284
v 0.01097615 0.95046401 0.25877246
v 0.00852022 0.95170821 0.25453157
v 0.00643199 0.95314892 0.25020019
v 0.00436109 0.95538124 0.24144338
v 0.00445333 0.95507471 0.24587600
v 0.02051257 0.95843462 0.04409665
v 0.02013367 0.96107758 0.04416767
v 0.02056798 0.96321547 0.04412058
v 0.01917087 0.95633957 0.04423155
v 0.01943298 0.95906151 0.04428679
v 0.01810939 0.95732775 0.04418873
v 0.01746081 0.95463510 0.04426597
v 0.01668214 0.95565788 0.04430921
v 0.01550934 0.95330833 0.04419738
v 0.01484117 0.95451891 0.04426267
v 0.01314636 0.95263090 0.04426799
v 0.01282053 0.95378928 0.04422441
v 0.01073172 0.95221615 0.04424795
v 0.01066285 0.95341799 0.04428852
v 0.00824765 0.95223964 0.04435319
v 0.00857474 0.95355685 0.04441186
v 0.00638284 0.95416079 0.04430146
v 0.00605872 0.95299158 0.04426403
v 0.00459196 0.95524880 0.04433145
v 0.00379021 0.95402584 0.04436041
v 0.00292964 0.95662701 0.04445427
v 0.00204955 0.95559058 0.04432790
v 0.00155141 0.95820813 0.04439703
v 0.00045238 0.95745380 0.04446365
v 0.00066298 0.96027257 0.04446555
v 0.00004520 0.96233477 0.04436242
v -0.00058754 0.95980749 0.04450637
v -0.00012061 0.96439093 0.04444880
v -0.00001945 0.96922990 0.04433140
v -0.00089531 0.96680408 0.04452643
v -0.00127862 0.96196478 0.04452998
v -0.00133248 0.96445436 0.04450055
v 0.02132786 0.96070186 0.04423411
v 0.02165171 0.96545133 0.04422721
v 0.02172109 0.96313657 0.04412243
v 0.02117157 0.96792582 0.04407927
v 0.02046141 0.96521427 0.04409978
v 0.01994796 0.97002520 0.04422814
v 0.01988653 0.96736869 0.04421224
v 0.01841967 0.97192591 0.04426604
v 0.01882992 0.96924637 0.04426654
v 0.01766616 0.97097670 0.04425552
v 0.01658872 0.97354928 0.04414504
v 0.01586972 0.97239911 0.04432403
v 0.01453019 0.97452608 0.04420373
v 0.01397948 0.97344445 0.04421194
v 0.01220476 0.97524268 0.04427693
v 0.01195272 0.97397656 0.04430008
v 0.00964853 0.97536414 0.04439565
v 0.00972158 0.97409502 0.04426068
v 0.00766850 0.97370508 0.04430593
v 0.00722820 0.97499201 0.04430060
v 0.00563821 0.97293228 0.04441277
v 0.00508911 0.97419837 0.04445889
v 0.00381805 0.97187885 0.04445922
v 0.00303060 0.97288950 0.04433044
v 0.00222334 0.97026787 0.04444073
v 0.00132181 0.97111233 0.04447366
v 0.00112568 0.96855401 0.04438507
v 0.00028548 0.96645556 0.04442176
v 0.01535046 0.95343056 0.04426377
v 0.00822405 0.95226785 0.04425073
v 0.01977620 0.95468709 0.22775292
v 0.00824248 0.95304131 0.22793421
v 0.02156998 0.95630081 0.23214912
v 0.00609697 0.95404811 0.23247912
v 0.02290082 0.95829213 0.23676912
v 0.00424651 0.95556042 0.23702834
v 0.02383596 0.95995634 0.24615914
v 0.02379696 0.96026056 0.24153320
v 0.02306911 0.95747156 0.25041820
v 0.02182851 0.95506093 0.25477460
v 0.02003351 0.95279219 0.25905761
v 0.01807877 0.95101503 0.26324240
v 0.01350880 0.94910727 0.26767880
v 0.01593512 0.94946233 0.26757948
v 0.01093635 0.94988425 0.26319292
v 0.00861353 0.95113748 0.25891472
v 0.00642728 0.95263944 0.25471975
v 0.00447993 0.95472094 0.25044197
v 0.00297121 0.95696526 0.24616255
v 0.00291136 0.95718902 0.24155695
v 0.00591773 0.95303437 0.04426853
v 0.00381392 0.95411673 0.04430910
v 0.00601361 0.95403639 0.22794547
v 0.00189733 0.95558287 0.04440905
v 0.00422375 0.95565525 0.22788741
v 0.00260149 0.95759428 0.22782959
v 0.00046731 0.95761579 0.04444456
v 0.00157382 0.95961965 0.22797038
v -0.00055241 0.95965848 0.04450211
v 0.00097045 0.96199612 0.22788737
v -0.00124051 0.96210967 0.04445704
v 0.00080524 0.96453699 0.22791602
v -0.00132493 0.96441138 0.04452148
v 0.00133941 0.96696859 0.22798756
v -0.00088578 0.96690737 0.04443054
v 0.00220637 0.96911005 0.22790076
v -0.00003877 0.96923706 0.04447885
v 0.00354068 0.97112824 0.22795274
v 0.00123766 0.97110251 0.04445603
v 0.00304829 0.97278901 0.04443064
v 0.00534352 0.97279258 0.22804861
v 0.00504996 0.97421531 0.04430451
v 0.00719859 0.97422664 0.22798737
v 0.00741835 0.97505132 0.04435008
v 0.00954237 0.97510486 0.22783975
v 0.00964172 0.97538209 0.04427629
v 0.01188952 0.97535640 0.22785899
v 0.01438529 0.97513045 0.22782973
v 0.01221281 0.97529476 0.04418518
v 0.01669823 0.97451776 0.22783167
v 0.01439802 0.97459668 0.04420415
v 0.01889522 0.97347594 0.22778015
v 0.01656075 0.97345982 0.04426955
v 0.02068633 0.97199023 0.22779079
v 0.01840928 0.97197177 0.04420607
v 0.01992709 0.96994116 0.04424535
v 0.02234586 0.96992227 0.22776621
v 0.02107103 0.96785524 0.04424593
v 0.02325882 0.96778188 0.22763872
v 0.02169683 0.96550487 0.04409312
v 0.02386626 0.96541285 0.22777938
v 0.02180532 0.96315217 0.04420329
v 0.02405892 0.96297517 0.22769290
v 0.02138884 0.96058061 0.04409024
v 0.02373082 0.96069822 0.22766044
v 0.02280859 0.95845998 0.22764745
v 0.02052459 0.95842115 0.04407777
v 0.02133381 0.95645527 0.22767836
v 0.01914964 0.95642777 0.04427707
v 0.01750132 0.95464879 0.04426083
v 0.02282831 0.95837383 0.23221455
v 0.00433776 0.95567265 0.23244123
v 0.02381341 0.96060953 0.23688825
v 0.00282806 0.95734991 0.23693534
v 0.02438458 0.96237747 0.24614250
v 0.02414743 0.96278289 0.24160530
v 0.02393159 0.95974023 0.25065084
v 0.02310682 0.95704106 0.25506502
v 0.02174506 0.95449990 0.25933299
v 0.02005218 0.95218945 0.26352753
v 0.01810100 0.95026438 0.26776407
v 0.01346285 0.94843904 0.27201593
v 0.01591214 0.94888952 0.27191832
v 0.01102765 0.94922938 0.26754942
v 0.00871075 0.95055002 0.26346363
v 0.00647225 0.95221227 0.25913504
v 0.00454390 0.95418589 0.25481295
v 0.00303479 0.95654242 0.25055891
v 0.00176337 0.95917512 0.24620168
v 0.00181712 0.95945601 0.24178025
v 0.00275787 0.95747243 0.23258774
v 0.00171008 0.95971384 0.23251957
v 0.00098503 0.96193691 0.23268545
v 0.00097531 0.96446436 0.23267113
v 0.00126029 0.96687076 0.23259297
v 0.00221529 0.96905462 0.23268906
v 0.00361042 0.97115058 0.23273805
v 0.00533149 0.97282201 0.23275987
v 0.00727628 0.97409204 0.23266478
v 0.00965855 0.97498885 0.23283078
v 0.01198741 0.97535828 0.23267478
v 0.01445744 0.97515021 0.23266122
v 0.01670935 0.97446518 0.23262492
v 0.01898067 0.97333121 0.23252810
v 0.02076026 0.97187909 0.23249297
v 0.02225258 0.96997832 0.23258071
v 0.02331887 0.96770886 0.23250257
v 0.02395669 0.96552202 0.23239097
v 0.02402837 0.96304669 0.23227397
v 0.02373472 0.96057607 0.23226937
v 0.02421120 0.96293159 0.23706309
v 0.00172230 0.95954998 0.23716248
v 0.02423812 0.96489313 0.24646244
v 0.02420519 0.96519565 0.24183350
v 0.02424372 0.96213683 0.25094554
v 0.02398996 0.95919198 0.25530214
v 0.02307857 0.95646613 0.25949189
v 0.02194392 0.95403362 0.26363484
v 0.02017470 0.95156228 0.26796582
v 0.01827725 0.94959890 0.27207406
v 0.01350091 0.94765174 0.27631955
v 0.01604221 0.94808126 0.27630500
v 0.01114172 0.94851800 0.27195300
v 0.00877951 0.95003025 0.26774306
v 0.00648902 0.95166422 0.26352046
v 0.00467257 0.95370367 0.25929233
v 0.00300986 0.95609104 0.25515066
v 0.00194683 0.95869036 0.25080835
v 0.00124673 0.96152583 0.24639550
v 0.00120892 0.96169860 0.24185890
v 0.00117797 0.96199736 0.23715846
v 0.00099360 0.96433730 0.23726025
v 0.00144395 0.96673367 0.23748287
v 0.00236791 0.96900422 0.23752027
v 0.00363619 0.97100028 0.23752837
v 0.00531000 0.97276099 0.23758055
v 0.00738395 0.97399541 0.23768681
v 0.00970870 0.97486444 0.23763230
v 0.01211585 0.97518571 0.23753571
v 0.01455279 0.97506881 0.23755247
v 0.01694069 0.97443390 0.23746454
v 0.01899437 0.97322843 0.23739691
v 0.02079743 0.97183215 0.23728526
v 0.02247475 0.96993547 0.23730046
v 0.02350284 0.96765666 0.23717164
v 0.02397152 0.96526015 0.23706757
v 0.02349582 0.96726142 0.24661600
v 0.02353398 0.96751798 0.24190095
v 0.02417552 0.96447171 0.25106003
v 0.02438664 0.96172957 0.25552222
v 0.02407896 0.95882935 0.25972724
v 0.02318858 0.95597005 0.26404763
v 0.02184101 0.95335596 0.26826271
v 0.02019145 0.95092981 0.27242835
v 0.01826053 0.94888231 0.27654825
v 0.01369004 0.94679352 0.28068131
v 0.01604136 0.94703847 0.28083507
v 0.01109911 0.94780084 0.27638082
v 0.00876346 0.94924115 0.27210038
v 0.00654622 0.95097215 0.26792213
v 0.00461262 0.95318015 0.26384017
v 0.00306696 0.95559488 0.25958745
v 0.00189154 0.95830379 0.25542525
v 0.00135273 0.96106543 0.25107647
v 0.00101961 0.96388124 0.24660404
v 0.00104532 0.96416340 0.24195649
v 0.00148301 0.96656368 0.24210238
v 0.00233110 0.96870832 0.24220845
v 0.00363280 0.97074119 0.24223174
v 0.00539834 0.97251282 0.24241882
v 0.00757097 0.97377387 0.24243922
v 0.00973018 0.97465254 0.24236369
v 0.01206321 0.97496175 0.24239082
v 0.01464710 0.97489181 0.24240564
v 0.01697159 0.97427456 0.24234748
v 0.01905990 0.97311890 0.24217562
v 0.02094217 0.97150342 0.24221568
v 0.02250536 0.96956299 0.24211366
v 0.02247090 0.96929361 0.24682447
v 0.02369039 0.96674509 0.25141455
v 0.02432206 0.96412993 0.25569925
v 0.02448906 0.96123210 0.26016480
v 0.02420201 0.95816653 0.26439871
v 0.02322053 0.95525835 0.26857486
v 0.02187816 0.95262236 0.27270804
v 0.02023843 0.95002989 0.27669951
v 0.01824615 0.94797405 0.28087048
v 0.01437100 0.93466049 0.33990887
v 0.01676797 0.93497911 0.33978071
v 0.01128218 0.94686473 0.28068232
v 0.00880706 0.94848771 0.27655157
v 0.00661339 0.95035121 0.27231141
v 0.00464758 0.95258148 0.26828134
v 0.00322277 0.95510052 0.26407800
v 0.00205405 0.95776781 0.25992774
v 0.00125741 0.96065710 0.25560720
v 0.00108738 0.96347230 0.25124060
v 0.00159188 0.96622920 0.24677568
v 0.00236360 0.96842587 0.24688192
v 0.00372070 0.97056432 0.24712706
v 0.00538778 0.97225860 0.24721904
v 0.00757855 0.97356526 0.24723410
v 0.00990310 0.97438629 0.24739615
v 0.01230534 0.97464230 0.24725960
v 0.01454020 0.97466437 0.24719090
v 0.01705052 0.97384033 0.24717017
v 0.01903321 0.97283834 0.24697961
v 0.02096331 0.97125907 0.24695529
v 0.02249807 0.96902358 0.25154611
v 0.02364768 0.96638618 0.25598806
v 0.02425408 0.96356181 0.26032491
v 0.02446864 0.96057614 0.26467602
v 0.02417126 0.95744102 0.26886973
v 0.02325301 0.95466169 0.27296116
v 0.02212833 0.95175512 0.27699262
v 0.02032517 0.94916750 0.28109990
v 0.01894963 0.93571940 0.33997841
v 0.02532652 0.94750517 0.34274630
v 0.02509089 0.94280895 0.34156415
v 0.02546913 0.94516436 0.34212760
v 0.02481541 0.94987584 0.34315613
v 0.02410986 0.94076198 0.34116185
v 0.02423722 0.94532518 0.34206494
v 0.02404937 0.94749711 0.34259218
v 0.02376296 0.95193607 0.34366937
v 0.02360946 0.94936192 0.34310347
v 0.02221899 0.95389319 0.34401924
v 0.02265176 0.95135452 0.34360228
v 0.02123293 0.95297914 0.34382902
v 0.02039900 0.95543474 0.34454439
v 0.01963331 0.95434957 0.34424186
v 0.01820670 0.95647851 0.34476854
v 0.01768250 0.95520699 0.34450681
v 0.01576918 0.95716079 0.34499181
v 0.01556395 0.95587162 0.34459860
v 0.01332835 0.95718644 0.34500521
v 0.01349582 0.95591012 0.34466350
v 0.01127622 0.95576345 0.34470911
v 0.01109834 0.95693037 0.34496623
v 0.00933800 0.95489944 0.34443496
v 0.00862538 0.95615969 0.34481263
v 0.00749346 0.95380771 0.34428593
v 0.00661987 0.95482000 0.34445515
v 0.00585902 0.95241420 0.34395094
v 0.00491217 0.95309824 0.34412813
v 0.00480916 0.95063675 0.34358230
v 0.00350699 0.95107002 0.34379912
v 0.00389467 0.94869308 0.34316091
v 0.00368030 0.94651131 0.34258441
v 0.02385910 0.94318556 0.34164287
v 0.02271178 0.93874726 0.34064168
v 0.02299953 0.94128950 0.34131978
v 0.02182331 0.93957930 0.34087627
v 0.02113854 0.93699660 0.34025011
v 0.02025387 0.93805167 0.34060859
v 0.01896487 0.93568828 0.34006371
v 0.01836966 0.93687426 0.34036850
v 0.01669472 0.93484981 0.33997183
v 0.01652260 0.93619063 0.34024952
v 0.01429219 0.93465102 0.33988933
v 0.01438413 0.93596278 0.34008764
v 0.01190296 0.93466278 0.33991446
v 0.01213772 0.93598119 0.34025639
v 0.00998612 0.93651873 0.34039682
v 0.00961428 0.93537321 0.34014627
v 0.00822732 0.93745811 0.34048618
v 0.00743932 0.93638660 0.34031019
v 0.00644631 0.93884502 0.34089909
v 0.00550941 0.93803442 0.34075920
v 0.00508500 0.94043231 0.34131673
v 0.00403311 0.93983042 0.34111281
v 0.00431168 0.94233951 0.34179925
v 0.00375316 0.94451680 0.34212767
v 0.00305894 0.94191589 0.34160313
v 0.00277494 0.94885804 0.34330208
v 0.00235390 0.94421491 0.34214930
v 0.00222600 0.94664442 0.34273881
v 0.01197852 0.93477526 0.33996523
v 0.00896819 0.94749888 0.28088668
v 0.00662892 0.94945556 0.27671594
v 0.00472643 0.95183254 0.27265098
v 0.00314878 0.95444497 0.26865418
v 0.00204945 0.95732300 0.26443834
v 0.00140439 0.96014187 0.26023286
v 0.00118280 0.96307678 0.25598854
v 0.00164723 0.96593423 0.25144045
v 0.00250338 0.96816682 0.25160664
v 0.00385529 0.97005303 0.25193953
v 0.00547622 0.97187954 0.25206153
v 0.00751745 0.97316483 0.25209560
v 0.00990851 0.97396091 0.25209441
v 0.01227145 0.97436001 0.25213000
v 0.01467408 0.97420663 0.25201424
v 0.01700510 0.97360616 0.25200831
v 0.01924376 0.97237549 0.25189421
v 0.02099310 0.97086088 0.25175651
v 0.02267055 0.96861112 0.25631332
v 0.02382642 0.96588678 0.26069721
v 0.02437536 0.96296937 0.26504545
v 0.02456820 0.95985274 0.26935031
v 0.02416608 0.95676577 0.27340339
v 0.02329179 0.95381999 0.27751955
v 0.02199797 0.95086964 0.28150879
v 0.02097601 0.93710136 0.34029496
v 0.02279585 0.93871338 0.34073207
v 0.02418089 0.94078247 0.34100137
v 0.02337589 0.95291710 0.28197913
v 0.02510482 0.94289200 0.34154932
v 0.02431096 0.95515259 0.28238596
v 0.02554053 0.94518994 0.34219372
v 0.02463345 0.95744245 0.28295999
v 0.02540867 0.94764494 0.34257484
v 0.02462566 0.95979315 0.28338600
v 0.02465865 0.94999482 0.34317717
v 0.02410739 0.96200624 0.28400458
v 0.02373819 0.95192359 0.34359916
v 0.02290718 0.96432434 0.28439033
v 0.02212114 0.95385431 0.34420292
v 0.02135618 0.96617010 0.28486521
v 0.01956113 0.96758140 0.28531357
v 0.02023503 0.95540223 0.34442975
v 0.01739103 0.96860847 0.28555892
v 0.01807764 0.95638700 0.34482664
v 0.01517600 0.96941020 0.28578018
v 0.01580054 0.95705711 0.34502265
v 0.01262713 0.96941551 0.28585648
v 0.01340248 0.95722976 0.34506244
v 0.01094333 0.95689547 0.34493477
v 0.01018038 0.96902819 0.28579607
v 0.00879591 0.95599754 0.34485898
v 0.00800572 0.96822494 0.28547251
v 0.00672626 0.95479115 0.34447870
v 0.00598288 0.96710763 0.28540199
v 0.00426321 0.96544726 0.28489688
v 0.00501287 0.95308204 0.34417429
v 0.00291092 0.96342988 0.28457568
v 0.00351490 0.95108257 0.34379512
v 0.00207020 0.96116744 0.28402636
v 0.00263357 0.94892151 0.34318455
v 0.00150266 0.95874083 0.28358877
v 0.00224708 0.94666936 0.34280990
v 0.00169566 0.95649260 0.28299707
v 0.00243457 0.94427715 0.34221168
v 0.00232996 0.95409860 0.28254813
v 0.00290299 0.94185615 0.34166942
v 0.00329659 0.95201900 0.28196397
v 0.00401172 0.93991816 0.34113548
v 0.00477482 0.95013270 0.28162680
v 0.00558654 0.93788879 0.34060734
v 0.00736357 0.93653549 0.34041606
v 0.00670807 0.94869123 0.28117112
v 0.00956507 0.93529852 0.34001391
v 0.00470025 0.95099086 0.27708177
v 0.00320605 0.95379877 0.27299093
v 0.00213245 0.95648497 0.26902956
v 0.00136617 0.95956091 0.26473002
v 0.00128105 0.96255240 0.26049557
v 0.00167438 0.96553154 0.25619927
v 0.00248915 0.96765782 0.25646666
v 0.00381834 0.96967054 0.25669143
v 0.00552658 0.97145856 0.25671613
v 0.00770603 0.97263084 0.25690532
v 0.00987016 0.97358003 0.25697684
v 0.01226872 0.97383332 0.25706570
v 0.01465887 0.97383921 0.25693360
v 0.01715883 0.97310639 0.25680378
v 0.01924954 0.97201877 0.25667783
v 0.02105128 0.97042856 0.25652717
v 0.02257511 0.96799964 0.26104910
v 0.02377733 0.96520417 0.26535585
v 0.02453495 0.96226425 0.26963616
v 0.02457757 0.95918413 0.27393291
v 0.02426725 0.95589295 0.27784222
v 0.02459242 0.95839810 0.27848094
v 0.02460815 0.96065741 0.27894135
v 0.02388950 0.96309621 0.27938622
v 0.02297623 0.96523741 0.27977112
v 0.02134163 0.96705233 0.28022078
v 0.01954722 0.96858596 0.28064076
v 0.01731425 0.96957807 0.28081326
v 0.01502766 0.97018027 0.28094115
v 0.01255629 0.97036827 0.28112877
v 0.01021968 0.97002292 0.28093204
v 0.00797516 0.96929613 0.28087083
v 0.00582824 0.96792429 0.28059857
v 0.00412337 0.96623841 0.28032720
v 0.00281943 0.96427873 0.28000950
v 0.00183267 0.96207866 0.27953501
v 0.00146405 0.95978465 0.27887916
v 0.00165659 0.95736881 0.27858154
v 0.00220872 0.95511383 0.27797468
v 0.00329383 0.95293718 0.27753304
v 0.00212211 0.95591571 0.27351653
v 0.00150406 0.95895546 0.26943812
v 0.00137957 0.96192832 0.26516064
v 0.00166900 0.96488050 0.26092099
v 0.00250133 0.96724366 0.26123852
v 0.00394232 0.96924670 0.26143150
v 0.00559015 0.97091649 0.26167591
v 0.00775875 0.97221904 0.26176974
v 0.01001071 0.97307621 0.26184049
v 0.01238007 0.97345529 0.26192154
v 0.01479201 0.97312594 0.26174985
v 0.01711106 0.97254529 0.26176639
v 0.01923689 0.97151430 0.26140788
v 0.02125263 0.96991217 0.26118576
v 0.02277953 0.96734565 0.26572056
v 0.02395621 0.96466301 0.27013448
v 0.02443510 0.96153996 0.27436480
v 0.02396293 0.96394956 0.27476424
v 0.02281339 0.96604994 0.27507463
v 0.02127214 0.96790548 0.27558522
v 0.01952900 0.96942814 0.27575758
v 0.01730738 0.97053264 0.27607304
v 0.01501463 0.97112283 0.27629379
v 0.01254701 0.97124611 0.27636584
v 0.01024055 0.97085795 0.27624602
v 0.00791549 0.96998946 0.27602098
v 0.00590547 0.96881088 0.27584335
v 0.00410346 0.96711420 0.27553153
v 0.00265864 0.96506528 0.27521764
v 0.00180928 0.96296615 0.27480979
v 0.00143940 0.96050516 0.27443270
v 0.00165078 0.95810961 0.27390572
v 0.00134609 0.96120160 0.26987629
v 0.00183264 0.96441807 0.26557517
v 0.00272650 0.96653877 0.26593934
v 0.00391144 0.96851524 0.26617919
v 0.00562755 0.97016380 0.26634610
v 0.00769703 0.97150058 0.26656686
v 0.00995737 0.97237723 0.26655489
v 0.01249761 0.97273759 0.26661941
v 0.01484423 0.97252656 0.26651565
v 0.01714966 0.97185830 0.26649569
v 0.01939421 0.97091474 0.26626785
v 0.02116873 0.96923562 0.26603175
v 0.02280948 0.96676920 0.27046046
v 0.02127434 0.96868508 0.27076662
v 0.01942055 0.97006195 0.27111103
v 0.01734135 0.97116489 0.27136501
v 0.01485664 0.97179773 0.27151806
v 0.01244262 0.97194827 0.27155282
v 0.01003067 0.97161808 0.27136993
v 0.00791026 0.97075464 0.27136883
v 0.00587350 0.96947394 0.27121049
v 0.00403190 0.96780956 0.27096520
v 0.00263718 0.96578987 0.27056710
v 0.00177877 0.96371952 0.27027779
vn 0.0428277749371002 -0.9967557952241349 -0.06814445231300412
vn 0.24994440642770818 -0.9668514478952953 -0.052211793670318016
vn 0.24976854584751276 -0.965874091771386 -0.0685777832101563
vn 0.04302965616723068 -0.9977581670051615 -0.051255135007434845
vn 0.2501272975914242 -0.9675496007120876 -0.03583441308980507
vn 0.04323295449049151 -0.9984741844531018 -0.03435425194551819
vn 0.4459068762045087 -0.8936318848664087 -0.05088331852038179
vn 0.4457587600959465 -0.8927160286291879 -0.06600924197607023
vn 0.04262735141121632 -0.9954671226572914 -0.08501833108264255
vn 0.24959972349017065 -0.9646176043447433 -0.0849285312591614
vn -0.16577089319917848 -0.9849927557547251 -0.0480549901535619
vn -0.1659910916094679 -0.9840006451512499 -0.06472779811040585
vn 0.2503171317213839 -0.9679685180884967 -0.019449461595087342
vn 0.043437619392355215 -0.9989038101572221 -0.017445666364728565
vn 0.4460655916279003 -0.8942861312774518 -0.03574637562690262
vn -0.16555526287259456 -0.9857014463092281 -0.03137058620877501
vn 0.6223362996031554 -0.7813178248738416 -0.04732849808160267
vn 0.6222138528019525 -0.7805019710469111 -0.06055241178711781
vn 0.44562121613892686 -0.8915386777116133 -0.08112039121634035
vn 0.042428429393417184 -0.993892218924978 -0.10187288912949945
vn 0.24943793800852224 -0.9630820753325714 -0.10126021555953778
vn -0.16621576891607853 -0.9827251794611641 -0.08138513265123845
vn -0.3673069660063812 -0.929116722629973 -0.04275170701299426
vn -0.3675316976563896 -0.9281706720914431 -0.05847781363159058
vn 0.2503854884543601 -0.9681197661651633 -0.007157201393107916
vn 0.04357782506447522 -0.9990386894404473 -0.004761319540170818
vn 0.4462348798701956 -0.8946787048306117 -0.020602114208284644
vn -0.16534423561216888 -0.9861266793775906 -0.014678418496367503
vn 0.6224700235167713 -0.781900663947063 -0.03409430366163992
vn -0.3670914175262374 -0.9297925176839535 -0.027014167348124382
vn 0.7715163405207619 -0.6348411843014855 -0.04170380107542838
vn 0.7714170867171412 -0.6341647428029105 -0.05244766254617443
vn 0.6221026696338454 -0.7794532394927922 -0.07376256420864448
vn 0.4454942798806846 -0.8900999348345504 -0.0962130583710935
vn 0.04223104243000052 -0.9920311688009567 -0.11870425090401593
vn 0.24928320931542694 -0.9612676214753134 -0.11756887962634716
vn -0.16644487980853676 -0.9811664305630942 -0.09802314788660195
vn -0.3677654386285825 -0.9269544879793818 -0.07418867410331922
vn -0.5527508573893782 -0.832586747033038 -0.03557805953465126
vn -0.5529623951107269 -0.8317244499233699 -0.04966919561535242
vn 0.25036134055261977 -0.9681476345682759 -0.0030588946610218236
vn 0.043616138658477646 -0.9990482212925221 -0.0005328984634071728
vn 0.4462401676642027 -0.8948655397033608 -0.009240054893597692
vn -0.16513614479704586 -0.9862684219371214 -0.0021572137653697184
vn 0.622615015265025 -0.7822503963503639 -0.02085330132691216
vn -0.36688504335758115 -0.9301980304066392 -0.01126894795955161
vn 0.7716248176548101 -0.6353244656038377 -0.03095099650058423
vn -0.5525503694675309 -0.8332027789140954 -0.021475996161385784
vn 0.8868571243883798 -0.4601262279948111 -0.04205110263525592
vn 0.886933021005052 -0.46062601391147556 -0.034256263060598154
vn 0.7713270183108821 -0.6332953298571218 -0.0631795536926573
vn 0.6220027614409982 -0.7781717725487456 -0.08695548958010646
vn 0.44537793616736604 -0.8883999606365012 -0.1112834395422819
vn 0.04203524103433802 -0.9898840772638239 -0.1355084945334916
vn 0.24913551614827534 -0.9591743643224913 -0.1338507878948689
vn -0.16667834131216938 -0.9793244999056039 -0.11463792750247534
vn -0.36800820756313296 -0.9254682340635407 -0.08988051460400927
vn -0.5531849378302491 -0.8306159740958141 -0.06374580876108708
vn -0.7139873644626136 -0.6996436128266881 -0.026848806650393946
vn -0.7141679598294346 -0.6989043518409257 -0.03868891483200942
vn -0.01221700749667917 0 -0.9999253695790632
vn 0.4461645124373361 -0.89493436197193 -0.005451202018727337
vn -0.1650352941096377 -0.9862856005630137 0.0020163879092409322
vn 0.6225758790246958 -0.7824832615626103 -0.010918801718458061
vn -0.366626269082808 -0.9303681453712387 0.0005411995031231023
vn 0.7717425279398855 -0.6356144608204969 -0.02019226992747175
vn -0.5523610941562018 -0.8335724052944156 -0.007366599910814268
vn 0.887014493456923 -0.4609831297025852 -0.026454536982681073
vn -0.7138168954825632 -0.7001717458352362 -0.014998868546414062
vn 0.9635089925219447 -0.26600991901814164 -0.02981852299006137
vn 0.9635570361871536 -0.26630268662500606 -0.02531239045471645
vn 0.8867868751713327 -0.45948377523066997 -0.04983671662172514
vn 0.7712462142065794 -0.6322330164738427 -0.07389648132627691
vn 0.6219140695780387 -0.7766577989522133 -0.10012768542009655
vn 0.44527210165945963 -0.886438947809515 -0.12632793550963947
vn 0.04184105776243623 -0.987451075394692 -0.15228164560178203
vn 0.2489948872186279 -0.9568024589476696 -0.15010196764425207
vn -0.1669160805030345 -0.9771994883396962 -0.13122569130372477
vn -0.36825980511592626 -0.923712080791587 -0.10554955109168897
vn -0.5534183754692027 -0.8292614768812572 -0.07780427143637171
vn -0.7143586235412791 -0.6979540780645956 -0.050515956738533534
vn -0.844106863282592 -0.5355433035669054 -0.026018711802648538
vn -0.843971039981286 -0.536120970706969 -0.016946635097384786
vn -0.36647386280759764 -0.930417572621011 0.004477548090576301
vn -0.5518958413357751 -0.8338857907488643 0.006743018865352529
vn -0.5520791759891447 -0.8337854889373462 0.0032158788312482717
vn -0.7131972015807271 -0.700909281999603 0.008713785871870423
vn -0.7133850389605559 -0.7007486892722634 0.0057498409065981195
vn -0.8434928652243513 -0.5370803186218955 0.008032288877868997
vn -0.8433285108052627 -0.5372995963362738 0.01030371970965857
vn -0.9367185986982759 -0.3499414182830741 0.00996346439593394
vn -0.9366022882453 -0.35020737260196316 0.01144333119757777
vn -0.9889930946960839 -0.1475172867277122 0.011459003445188048
vn -0.988942056635966 -0.14780938473607397 0.012082814265274777
vn -0.9980391128603676 0.06134196414087446 0.012453619402806764
vn -0.9980603074404117 0.061048535631799836 0.012194220317990672
vn -0.9634692559014554 0.2675079087909298 0.012903939979688368
vn -0.9635585390753348 0.2672383688188444 0.011772680495529693
vn -0.8868016155915985 0.4619732683244202 0.012790384583115405
vn -0.8869446468106461 0.46174859090333115 0.010836618140650442
vn -0.7713923119134152 0.6362444931351602 0.012118006274126233
vn -0.7715670353108088 0.6360781734601829 0.00942694379141145
vn -0.6224681614186838 0.782608170128883 0.007605265778719566
vn -0.6222877229981508 0.7827124793212228 0.01091625029948669
vn -0.4461645124373361 0.89493436197193 0.005451202018727333
vn -0.44600396511562646 0.894983311906905 0.009237667957154848
vn -0.25036134055261977 0.9681476345682759 0.0030588946610218184
vn -0.25024209367835626 0.968156852922416 0.007155605553390883
vn -0.043616138658477646 0.9990482212925221 0.0005328984634071728
vn -0.043552057998824535 0.9990398145378205 0.00476100958873819
vn 0.16503983890848697 0.9862845393847136 0.002158458650056995
vn 0.1650352941096377 0.9862856005630137 -0.002016387909240935
vn 0.3664245716680577 0.9304476037930592 -0.0005383991407888561
vn 0.36647386280759764 0.930417572621011 -0.004477548090576304
vn 0.5518069200661806 0.833965711147446 -0.0032117903746508216
vn 0.5518958413357751 0.8338857907488643 -0.006743018865352534
vn 0.7130893799828099 0.7010495928657848 -0.0057449541729374
vn 0.7131972015807271 0.700909281999603 -0.008713785871870423
vn 0.8433285108052627 0.5372995963362738 -0.010303719709658564
vn 0.8432248962684231 0.5375010119345494 -0.008027233797661864
vn 0.9366022882453 0.35020737260196316 -0.01144333119757777
vn 0.9365245998285741 0.3504604032835881 -0.009958897842341715
vn 0.988942056635966 0.14780938473607397 -0.012082814265274786
vn 0.9889066728811349 0.1480957929370239 -0.011455498484053639
vn 0.9980603074404117 -0.061048535631799836 -0.012194220317990681
vn 0.9980751817148193 -0.06075269669711553 -0.012451565723173373
vn 0.9635585390753348 -0.2672383688188444 -0.011772680495529703
vn 0.9636215788580182 -0.26695871040890706 -0.012903476120552947
vn 0.8870438991788432 -0.4615078565722788 -0.012791374111294492
vn 0.8869446468106461 -0.46174859090333115 -0.010836618140650442
vn 0.7716826268641437 -0.6358923080970534 -0.012120061842115597
vn 0.7715670353108088 -0.6360781734601829 -0.009426943791411435
vn 0.6224681614186838 -0.782608170128883 -0.007605265778719562
vn 0.8871015244503052 -0.461197494569611 -0.01864822567050652
vn -0.713656634191944 -0.7004886396009733 -0.0031423341329963436
vn 0.9636070935941279 -0.2665119925052818 -0.020802091864583483
vn -0.8438422635216759 -0.5365336445975927 -0.00786654367805165
vn 0.9980471941400428 -0.06030415805559329 -0.01628517087395413
vn 0.998059300266437 -0.06037096546229199 -0.015263671931124146
vn 0.9634630462495658 -0.26563350438300676 -0.034319088867712864
vn 0.8867221920564375 -0.4586989746153702 -0.05761080455465138
vn 0.7711745800077281 -0.6309781173738382 -0.0845954049891074
vn 0.621836559860901 -0.774911553381224 -0.11327566930571854
vn 0.44517678106323194 -0.8842171182632159 -0.14134256744687118
vn 0.041648525035793374 -0.9847322869132723 -0.16901989076111673
vn 0.24886128786336348 -0.9541520787976762 -0.16631857962675545
vn -0.16715800556249974 -0.9747915594231683 -0.14778232930129087
vn -0.3685201936546935 -0.9216861674359885 -0.12119189587536758
vn -0.5536626231832635 -0.8276611219391471 -0.09184098714767662
vn -0.7145591710320239 -0.6967930644513535 -0.06232669112441779
vn -0.8442495750942578 -0.5348009330520065 -0.0350801505109134
vn -0.9371166011693524 -0.3488026716866379 -0.012213600495539793
vn -0.9370326659155498 -0.3491848051502073 -0.006305145470902204
vn -0.8437205719039083 -0.5367812503983418 0.0012189203972586074
vn -0.9368746611883445 -0.34962169386410674 0.005526337197210587
vn -0.9890599530391211 -0.14720193726388828 0.00959160883322756
vn -0.9980115501199751 0.06162567102162796 0.013237163527673892
vn -0.9633544231249307 0.26773576251939984 0.01630389259617719
vn -0.8866168799762643 0.4621281043535071 0.018658062809110476
vn -0.7711618521406897 0.6363186897582356 0.02019710046772762
vn -0.6220386430444581 0.782708781314738 0.02085402148763999
vn -0.445762464511331 0.8949142148253466 0.020600323694493362
vn -0.2500303254546163 0.9680426863452577 0.019447204593865827
vn -0.04338606422562926 0.9989060610359405 0.01744507542751251
vn 0.16515165840052254 0.9861589062850467 0.014681324267161944
vn 0.3664816974853162 0.9303569232086443 0.011276561799855742
vn 0.5518167334234392 0.8339327537670838 0.007379356905153359
vn 0.7130653781486438 0.701090423891129 0.0031597490230980303
vn 0.8431847729545751 0.5376225470982888 -0.0011981273262710156
vn 0.9364868788800352 0.35065942361811137 -0.00550402701159833
vn 0.9888872902516183 0.1483588353140163 -0.009569909251421198
vn 0.9980838647891555 -0.06044733956585521 -0.01321809316629754
vn 0.9636592140083544 -0.2666375575981661 -0.016289018843539952
vn 0.998071525525737 -0.06041868931256265 -0.014241204881622328
vn -0.9369519961470328 -0.34945787135863854 -0.0003912308522665603
vn 0.9889840473345436 0.14800805131688133 -0.0020422691215423116
vn 0.9889511844477241 0.1481717178619397 -0.00454937416413927
vn 0.9980352094622695 -0.06021830695216023 -0.017305380129290032
vn 0.9634191313043082 -0.26517381511087174 -0.038812694011076225
vn 0.8866631288819039 -0.4577719098047577 -0.06537105227130163
vn 0.7711121387545651 -0.6295308302406152 -0.09527330812941397
vn 0.6217702197936166 -0.7729332733980491 -0.126395999351145
vn 0.4450919780496852 -0.8817346643482677 -0.15632374343798944
vn 0.04145768803055757 -0.9817278966277796 -0.18571913494833145
vn 0.24873472833048865 -0.9512234195567884 -0.18249668766596375
vn -0.16740403064334675 -0.9721008316386358 -0.1643041802628105
vn -0.36878921827504907 -0.9193906940065669 -0.1368037435825551
vn -0.5539175741266071 -0.8258151088072392 -0.10585238372083201
vn -0.7147695911350233 -0.6954214351707747 -0.07411787297063709
vn -0.8443991693747592 -0.5338939376443236 -0.04412829144500927
vn -0.9372037726499469 -0.3483115600169525 -0.018114792001654948
vn -0.989155925358095 -0.14685383752635978 0.002122671136163514
vn -0.9891233241592865 -0.14701631011006738 0.004610224040531198
vn -0.9890913410178115 -0.14713227814872953 0.007100130305311009
vn -0.9979989735988007 0.061596461353854375 0.014280218640607807
vn -0.9633020942187842 0.26760970630425807 0.020835555319048363
vn -0.8865296688703516 0.4619133570046175 0.026480121475358356
vn -0.7710439996151386 0.6360284184191395 0.030967751302576133
vn -0.6218936010560061 0.7823588367479537 0.03410277888943156
vn -0.4455931144794638 0.8945215568417972 0.03574857582923726
vn -0.24984045702759342 0.9676237450402756 0.03583342108249084
vn -0.0431813922267054 0.9984764348264539 0.03435369647676813
vn 0.16536268194314793 0.9857336627834512 0.03137402550024938
vn 0.36668806823358807 0.9299513637190352 0.027024465438306902
vn 0.5520060946336676 0.8335629807592912 0.021494850429158732
vn 0.7132258349723425 0.7007732255557098 0.015026465727203986
vn 0.8433066658469063 0.5373745736715273 0.007901576394538005
vn 0.9365644589606202 0.35049511888431434 0.0004311033184040151
vn 0.9889189251299313 0.1482886784800236 -0.0070588493757609535
vn 0.9367296150268172 0.3498379901702443 0.012288570517157009
vn 0.9366453832103878 0.35022127817215115 0.006362580147271477
vn 0.9890175089267091 0.14779767895233245 0.0004616629833098361
vn 0.9980233499988715 -0.060113432086742254 -0.018323977182435103
vn 0.9633773139376588 -0.26463075905463795 -0.043297948593759496
vn 0.8866096310515329 -0.4567029031083916 -0.07311511758201279
vn 0.7710587843910128 -0.6278915345637777 -0.10592720064552809
vn 0.621714925269579 -0.7707233324466175 -0.13948511217840576
vn 0.44501753678682027 -0.8789919225780944 -0.17126760345919542
vn 0.041301496362673634 -0.97928789900426 -0.19821553234301809
vn 0.24856561950441647 -0.9488644710332889 -0.19460562276332738
vn -0.16765405429407634 -0.9691275223689768 -0.1807870666439587
vn -0.3690667729823439 -0.9168258389291088 -0.15238142325209622
vn -0.5541830163489271 -0.823723753362563 -0.1198347300939777
vn -0.7149897448983034 -0.6938394712249211 -0.08588627865137122
vn -0.8445556096914082 -0.5328224678238677 -0.05316051091606738
vn -0.9372941583820452 -0.34771155956697675 -0.024006915803458508
vn -0.9891890961536353 -0.1466451540158104 -0.0003617380724403135
vn -0.9979741810177085 0.06147969242932786 0.016364028869117125
vn -0.9979865158978402 0.06154779850100938 0.01532261680552548
vn -0.9632518322402329 0.2673996128441179 0.025364438425678423
vn -0.8864480380775542 0.46155557734119257 0.03429759195181686
vn -0.7709353830916611 0.6355446771467732 0.04173246275643668
vn -0.6217597588017255 0.7817757211848924 0.047344736778882894
vn -0.4454343417710757 0.8938671628100567 0.0508895118945739
vn -0.24965756755689766 0.9669255396258665 0.052212065471499584
vn -0.04297808961328496 0.9977604161731861 0.05125461668087257
vn 0.16557830185918349 0.9850249541329474 0.04805898135431027
vn 0.3669036572918569 0.929275462686095 0.042764713437646956
vn 0.5522066145836838 0.8329467448558802 0.03560302015307083
vn 0.7133964635165337 0.7002446695131259 0.026886588860542206
vn 0.8434356768893675 0.5369612633987797 0.016995898309910284
vn 0.8435716773190166 0.5363828331759407 0.02608220656562311
vn 0.9368170922986447 0.34934543151090763 0.018207280400163218
vn 0.9890515511420191 0.14754069864737834 0.002961659367581448
vn 0.9980116191279925 -0.059989563359553445 -0.019340640461291088
vn 0.963337562496256 -0.2640046161148455 -0.04777345867555829
vn 0.8865617338889704 -0.455492118520684 -0.08084071974767125
vn 0.7710144884508663 -0.6260605595439483 -0.1165539977107918
vn 0.6216706764100057 -0.7682820347993725 -0.15253945422893672
vn 0.44483966217229526 -0.8768272680586414 -0.18245990504014153
vn 0.04124104346268297 -0.9784392615081082 -0.2023753638009756
vn 0.24846218977752346 -0.948055540966845 -0.1986384441466988
vn -0.16779118336675095 -0.9667209308730056 -0.19312369247820113
vn -0.3693526880926188 -0.9139918955499727 -0.167920834525452
vn -0.5544588438245729 -0.82138729681854 -0.13378452500139726
vn -0.7152195163141143 -0.6920474585061972 -0.09762867743915166
vn -0.8447186956040338 -0.5315869626632307 -0.062174162024917955
vn -0.9373877108502057 -0.347002847937862 -0.02988817609062394
vn -0.9892228475921018 -0.14639016181220002 -0.0028422396752212937
vn -0.9979619719711316 0.06139217303136585 0.01740412565965807
vn -0.963203639543011 0.2671055753532656 0.029889134920540655
vn -0.8863720461289807 0.46105476742948975 0.042108161580185745
vn -0.7708360410705019 0.634867531674588 0.052488236893342706
vn -0.6216372237773601 0.7809594495050061 0.060576400051622334
vn -0.44528613376262993 0.892951116719622 0.06601940796394175
vn -0.2494816722037104 0.9659481217749972 0.06857930645461364
vn -0.04277620256240906 0.9967580427094433 0.06814397103470989
vn 0.1657984829591982 0.9840328187662405 0.06473233071190468
vn 0.367128371330213 0.9283292895908902 0.05849349581020331
vn 0.5524182227710501 0.8320841258246555 0.04970024850132387
vn 0.7135771825372917 0.6995048671218033 0.0387368743582782
vn 0.8437146903458955 0.5356392882892608 0.03515784600204638
vn 0.9369077931485249 0.3487436916157185 0.024116896479471035
vn 0.9890861572396606 0.1472372083713437 0.005456924765371141
vn 0.9980000198405679 -0.05984674063665848 -0.020355049334120957
vn 0.9632998749349598 -0.2632955734275346 -0.052237840343531856
vn 0.8865193249047449 -0.4541400390065591 -0.0885455337188517
vn 0.7709792414599483 -0.6240382374368242 -0.1271506486597083
vn 0.6214891069859295 -0.7664208537771304 -0.16232795444213008
vn 0.4447027232811298 -0.8761117519958675 -0.18619260436730134
vn 0.011912747119435883 -0.22178609385195425 0.975022571548967
vn -0.1678052507499965 -0.9658887195244474 -0.1972317908354388
vn -0.3694624205054853 -0.9117326704079622 -0.17955795038091255
vn -0.5547449026075866 -0.8188060863614742 -0.14769795519337844
vn -0.7154587170140088 -0.6900457966035674 -0.10934177078507978
vn -0.8448884218703535 -0.5301875763763766 -0.07116662451997809
vn -0.937484357637098 -0.346185691361541 -0.03575676554569656
vn -0.989257148549479 -0.14608905678555656 -0.005318038290622155
vn -0.9979498932030686 0.06128525027657502 0.018442579931280886
vn -0.9631575229970929 0.26672768724845675 0.03440823664755535
vn -0.886301682403464 0.4604110877869777 0.049909498210273386
vn -0.7707459355973371 0.6339971702644096 0.06323203979713767
vn -0.6215259816457991 0.7799101576067526 0.07379431008578
vn -0.44514854186762925 0.8917734916783954 0.08113455005635022
vn -0.2493127785754922 0.9646915637307223 0.08493129756303978
vn -0.04257577169345844 0.9954693679867812 0.08501788673394188
vn 0.16602315247189006 0.9827573171853584 0.08139022276620282
vn 0.36736217277884337 0.9271129091960335 0.07420705905286006
vn 0.5526408284298843 0.8309752404683997 0.06378294819790555
vn 0.7137679842312115 0.6985538828334514 0.05057407898144375
vn 0.843864573564312 0.5347309201085295 0.04422018275637763
vn 0.9370016699657072 0.34803294791987904 0.030015623326439558
vn 0.9891213119863994 0.14688730615137702 0.007946663821711303
vn 0.997988554762909 -0.059685013751111474 -0.02136688315524286
vn 0.963264254090078 -0.26250381849049775 -0.0566896998597914
vn 0.8864824248547578 -0.45264691134882584 -0.0962272522209636
vn 0.7708042449097837 -0.6225797918601718 -0.13511187511245423
vn 0.6213337752787468 -0.7658464114112601 -0.16560076638214816
vn 0.7706500972636451 -0.6221846778272102 -0.13778481144373234
vn 0.886200979172049 -0.45148259246167755 -0.10397736878082811
vn 0.8863315022562497 -0.45167319798105127 -0.10201857837545841
vn 0.9630435637604227 -0.26121964171932854 -0.06566119919442784
vn 0.9631284346007277 -0.26119580649315777 -0.06450092351230959
vn 0.9979176759494565 -0.059665189037181224 -0.02450259669490743
vn 0.997939101040246 -0.05943319504555352 -0.024191856928783822
vn 0.9893511832233736 0.14446556021405318 0.017718300329057256
vn 0.989299686130976 0.14488454214606913 0.01716392927846962
vn 0.9377046032255236 0.3423565703115453 0.059178170419329865
vn 0.9375821705680945 0.34293027135827675 0.05777977517228065
vn 0.8451605635325701 0.5254365479206224 0.09808188394687348
vn 0.8449818509503436 0.5261267942743774 0.0958971736345675
vn 0.7156566623583177 0.6857237435728852 0.13273465682533975
vn 0.7154474502917949 0.686492702243595 0.12985651942531204
vn 0.5545470710512729 0.8169826493194382 0.158167306038404
vn 0.5547542570113164 0.8161671112632494 0.16161361582498251
vn 0.3692606608014115 0.9118108098549061 0.17957619947043338
vn 0.36943267925474566 0.9109720260730599 0.1834379001488088
vn 0.16769474559012884 0.9667367800550306 0.19312811910825772
vn 0.1678052507499965 0.9658887195244474 0.1972317908354388
vn -0.04127567291829386 0.9792889939738081 0.19821550168165222
vn -0.04124104346268297 0.9784392615081082 0.2023753638009756
vn -0.24846218977752346 0.948055540966845 0.1986384441466988
vn -0.24842190167312223 0.948900956248075 0.19461123811485917
vn -0.4447027232811298 0.8761117519958675 0.18619260436730134
vn -0.4446030084076057 0.8769430315067129 0.18248036718157568
vn -0.6213337752787468 0.7658464114112601 0.16560076638214816
vn -0.6212005637059338 0.7666458739119338 0.16236983606950367
vn -0.7705135323413906 0.6229251968115871 0.13517801469187965
vn -0.7706500972636451 0.6221846778272102 0.13778481144373234
vn -0.8860888130355586 0.45212900991484106 0.10210765792368558
vn -0.886200979172049 0.45148259246167755 0.10397736878082811
vn -0.9629753496232358 0.2617333327163323 0.06460757357468427
vn -0.9630435637604227 0.26121964171932854 0.06566119919442784
vn -0.9979017837793615 0.060009675408525635 0.02430779272850259
vn -0.9979176759494565 0.059665189037181224 0.02450259669490743
vn -0.9893844176705976 -0.14431846341930887 -0.017048612462670556
vn -0.9893511832233736 -0.14446556021405318 -0.017718300329057256
vn -0.9377743016471729 -0.3424222094784592 -0.057674861300635205
vn -0.9377046032255236 -0.3423565703115453 -0.059178170419329865
vn -0.8452482316022972 -0.5257144967233699 -0.09581072438972305
vn -0.8451605635325701 -0.5254365479206224 -0.09808188394687348
vn -0.7157421032262052 -0.686197447784279 -0.1297933138635034
vn -0.7156566623583177 -0.6857237435728852 -0.13273465682533975
vn -0.5547542570113164 -0.8161671112632494 -0.16161361582498251
vn -0.5548189551883151 -0.816805604483635 -0.158128212055503
vn -0.36943267925474566 -0.9109720260730599 -0.1834379001488088
vn -0.7157072304810511 -0.6878348378181228 -0.1210222959659104
vn -0.8450646646570101 -0.5286246808370196 -0.0801352566483306
vn -0.9375840981488601 -0.34526018032694594 -0.041610897358666944
vn -0.9892919981898377 -0.1457418390699598 -0.0077883670986932255
vn -0.997937946999928 0.06115897398707722 0.019479061538408678
vn -0.9631134673152145 0.2662661348762128 0.03892036092005886
vn -0.8862369478002563 0.45962469970017233 0.05769928751043702
vn -0.7706650005637042 0.6329338443006672 0.0739608385899213
vn -0.6214259482802097 0.7786280674249146 0.08699496205059401
vn -0.4450215233000504 0.8903344325338776 0.09623119059993525
vn -0.24915093320175274 0.9631559407396879 0.10126423999883823
vn -0.04237684144427144 0.9938944654708555 0.10187244384822326
vn 0.16625224893371562 0.981198529315681 0.09802874982997005
vn 0.36760491002301826 0.9256264559787232 0.0899015801820946
vn 0.5528743671174753 0.8296202140990543 0.07784750826256506
vn 0.7139687335807899 0.697391937385032 0.062394976876304
vn 0.844021246008609 0.5336579509935205 0.05326657138837003
vn 0.9370986832423929 0.34721337874881203 0.035901636219080206
vn 0.9891570158654294 0.1464909921233303 0.010430109823054026
vn 0.9979772268020176 -0.05950443254058871 -0.022375819372192664
vn 0.9632307067404202 -0.26162953897036645 -0.061127652748196176
vn 0.9979660382521736 -0.05930505680407954 -0.023381546842025924
vn 0.9892299641398633 0.14555991238037982 0.015374978232848209
vn 0.9374078897646544 0.3441044723722992 0.05346550570563554
vn 0.8447143069790306 0.5277252924053637 0.0892398752834729
vn 0.7151177657707215 0.6884267469951779 0.12114121966006756
vn 0.554201200799204 0.8191609162591366 0.1477715206195442
vn 0.36894924839789156 0.9141484894516384 0.16795532542887362
vn 0.1674612346788216 0.9691593117127373 0.18079536332643567
vn -0.041406037610710045 0.981730122813706 0.18571888974890507
vn -0.24844736308444668 0.9512965466388725 0.18250695364654104
vn -0.4445442811486373 0.8792239570716409 0.17130561990000967
vn -0.6210935387292702 0.7687331805742008 0.1526175390740713
vn -0.7703979015413432 0.6247306196879234 0.12727421626173155
vn -0.8859970186929534 0.4535609401819405 0.09639375710320895
vn -0.962924590061924 0.26270744138313645 0.06132727041049194
vn -0.997891552716662 0.060461130745699324 0.023598743307237355
vn -0.9893996634350835 -0.1444247841651682 -0.01515875039005589
vn -0.9377924412065323 -0.34308569288120755 -0.053268607604427386
vn -0.8452473172949793 -0.5268986514376461 -0.08907740296411
vn -0.9376868097624905 -0.3442267582779016 -0.04744876903492693
vn -0.9893273826148848 -0.14534860673336594 -0.010252440151044666
vn -0.9979261376352783 0.06101336409826153 0.020513245129642695
vn -0.9630715398665313 0.2657208262714314 0.04342408991258297
vn -0.8861778151699871 0.45869584459409213 0.06547520181458684
vn -0.7705933352722523 0.6316776275192276 0.0846716394412323
vn -0.6213372087287405 0.7771132877818585 0.1001749020565922
vn -0.4449050582560611 0.8886340926828159 0.11130560839400508
vn -0.24899615693268873 0.961341371423919 0.1175741528633341
vn -0.04217944734920166 0.992033404601125 0.11870391053716943
vn 0.1664856726568236 0.9793565498636908 0.11464409727104517
vn 0.3678564867321601 0.9238700604990954 0.10557327541793017
vn 0.5531186639823217 0.828019275825723 0.09189027378050808
vn 0.7141793696847815 0.696019206021349 0.07419631234811706
vn 0.8441846873022926 0.5324205333454868 0.06229437692470964
vn 0.9371987345713294 0.346285338240441 0.04177315450863267
vn 0.9891932417625062 0.1460484621976043 0.012906476711279308
vn 0.9373018313426648 0.3452489176657547 0.047628371925900276
vn 0.8445313329511513 0.5294538306685537 0.08028367738305342
vn 0.7148690339266445 0.6906394469922756 0.10945053033672157
vn 0.5539150769372245 0.8217430997449984 0.13385202861036635
vn 0.3686633826904057 0.9169828358664605 0.1524132178965181
vn 0.16721124155795702 0.9721326943506171 0.16431197543470905
vn -0.041596890165339184 0.9847345115812409 0.16901964509910528
vn -0.24857401910836643 0.9542253856903039 0.16632759941905037
vn -0.4446188182074266 0.8819673136774694 0.15635780792905568
vn -0.621137867243264 0.7711757484999466 0.13955541839010216
vn -0.770433174774358 0.6267550080964324 0.11666568918557142
vn -0.8860338968580804 0.4550569880206708 0.08869651217516553
vn -0.9629582029685255 0.26358525406635513 0.05687102227323695
vn -0.9979029373487156 0.06066439264341569 0.02257341569215535
vn -0.9893632747961754 -0.14490955572733946 -0.012709490292391056
vn -0.9979144666090445 0.06084849036245016 0.021544803387296498
vn -0.9630316572746659 0.2650922269707586 0.04791803717280172
vn -0.8861242699965425 0.45762476532743845 0.07323491163442128
vn -0.770530817541637 0.6302288979671252 0.09536139358125667
vn -0.6212596315419475 0.7753661310527701 0.11333063589613326
vn -0.4447991536973118 0.8866726399485989 0.1263540360919964
vn -0.24884840389122007 0.9592479826960655 0.13385731050010266
vn -0.04198363472941351 0.9898863138851008 0.13550815472832192
vn 0.16672338443990461 0.9772314897642871 0.1312323454563536
vn 0.3681168639998711 0.9218438568917643 0.1212183069912171
vn 0.5533736532754806 0.8261725845748359 0.10590779176946294
vn 0.7143997043657967 0.6944360214886047 0.08597484784017027
vn 0.8443547130318563 0.531019108129947 0.07130094937493689
vn 0.7146296201341091 0.6926426677728059 0.09772738003010935
vn 0.553639176331922 0.8240804378952601 0.11989618137733812
vn 0.3683858495630052 0.9195480487551587 0.13683293416543849
vn 0.16696527332048783 0.974823479041978 0.14778965529937893
vn -0.04178943703047262 0.9874532992936725 0.15228139960847817
vn -0.2487077028081014 0.9568759296319514 0.15010973937391972
vn -0.444703760991127 0.8844502944935251 0.14137270433384042
vn -0.6211932120920372 0.7733868429056451 0.12645862750803624
vn -0.7704774393760522 0.6285879147705142 0.10602711359354579
vn -0.8860763075926739 0.4564117050117059 0.08097612395787121
vn -0.9629938944489645 0.2643802451474988 0.052400813254807235
usemtl material_0_0
f 1//1 2//2 3//3
f 2//2 1//1 4//4
f 4//4 5//5 2//2
f 5//5 4//4 6//6
f 3//3 7//7 8//8
f 7//7 3//3 2//2
f 9//9 3//3 10//10
f 3//3 9//9 1//1
f 11//11 1//1 12//12
f 1//1 11//11 4//4
f 6//6 13//13 5//5
f 13//13 6//6 14//14
f 2//2 15//15 7//7
f 15//15 2//2 5//5
f 16//16 4//4 11//11
f 4//4 16//16 6//6
f 8//8 17//17 18//18
f 17//17 8//8 7//7
f 10//10 8//8 19//19
f 8//8 10//10 3//3
f 20//20 10//10 21//21
f 10//10 20//20 9//9
f 12//12 9//9 22//22
f 9//9 12//12 1//1
f 23//23 12//12 24//24
f 12//12 23//23 11//11
f 14//14 25//25 13//13
f 25//25 14//14 26//26
f 5//5 27//27 15//15
f 27//27 5//5 13//13
f 28//28 6//6 16//16
f 6//6 28//28 14//14
f 7//7 29//29 17//17
f 29//29 7//7 15//15
f 30//30 11//11 23//23
f 11//11 30//30 16//16
f 18//18 31//31 32//32
f 31//31 18//18 17//17
f 19//19 18//18 33//33
f 18//18 19//19 8//8
f 21//21 19//19 34//34
f 19//19 21//21 10//10
f 35//35 21//21 36//36
f 21//21 35//35 20//20
f 22//22 20//20 37//37
f 20//20 22//22 9//9
f 24//24 22//22 38//38
f 22//22 24//24 12//12
f 39//39 24//24 40//40
f 24//24 39//39 23//23
f 26//26 41//41 25//25
f 41//41 26//26 42//42
f 13//13 43//43 27//27
f 43//43 13//13 25//25
f 44//44 14//14 28//28
f 14//14 44//44 26//26
f 15//15 45//45 29//29
f 45//45 15//15 27//27
f 46//46 16//16 30//30
f 16//16 46//46 28//28
f 17//17 47//47 31//31
f 47//47 17//17 29//29
f 48//48 23//23 39//39
f 23//23 48//48 30//30
f 31//31 49//49 32//32
f 49//49 31//31 50//50
f 33//33 32//32 51//51
f 32//32 33//33 18//18
f 34//34 33//33 52//52
f 33//33 34//34 19//19
f 36//36 34//34 53//53
f 34//34 36//36 21//21
f 54//54 36//36 55//55
f 36//36 54//54 35//35
f 37//37 35//35 56//56
f 35//35 37//37 20//20
f 38//38 37//37 57//57
f 37//37 38//38 22//22
f 40//40 38//38 58//58
f 38//38 40//40 24//24
f 59//59 40//40 60//60
f 40//40 59//59 39//39
f 61//61 62//61 63//61
f 62//61 61//61 64//61
f 62//61 64//61 65//61
f 65//61 64//61 66//61
f 66//61 64//61 67//61
f 66//61 67//61 68//61
f 68//61 67//61 69//61
f 68//61 69//61 70//61
f 70//61 69//61 71//61
f 70//61 71//61 72//61
f 72//61 71//61 73//61
f 72//61 73//61 74//61
f 74//61 73//61 75//61
f 74//61 75//61 76//61
f 76//61 75//61 77//61
f 77//61 75//61 78//61
f 77//61 78//61 79//61
f 79//61 78//61 80//61
f 79//61 80//61 81//61
f 81//61 80//61 82//61
f 81//61 82//61 83//61
f 83//61 82//61 84//61
f 83//61 84//61 85//61
f 85//61 84//61 86//61
f 86//61 84//61 87//61
f 86//61 87//61 88//61
f 88//61 87//61 89//61
f 89//61 87//61 90//61
f 90//61 87//61 91//61
f 90//61 91//61 92//61
f 93//61 94//61 95//61
f 94//61 93//61 96//61
f 96//61 93//61 61//61
f 96//61 61//61 63//61
f 96//61 63//61 97//61
f 96//61 97//61 98//61
f 98//61 97//61 99//61
f 98//61 99//61 100//61
f 100//61 99//61 101//61
f 100//61 101//61 102//61
f 100//61 102//61 103//61
f 103//61 102//61 104//61
f 103//61 104//61 105//61
f 105//61 104//61 106//61
f 105//61 106//61 107//61
f 107//61 106//61 108//61
f 107//61 108//61 109//61
f 109//61 108//61 110//61
f 109//61 110//61 111//61
f 109//61 111//61 112//61
f 112//61 111//61 113//61
f 112//61 113//61 114//61
f 114//61 113//61 115//61
f 114//61 115//61 116//61
f 116//61 115//61 117//61
f 116//61 117//61 118//61
f 118//61 117//61 119//61
f 118//61 119//61 89//61
f 89//61 119//61 120//61
f 89//61 120//61 88//61
f 25//25 121//62 43//43
f 121//62 25//25 41//41
f 122//63 26//26 44//44
f 26//26 122//63 42//42
f 27//27 123//64 45//45
f 123//64 27//27 43//43
f 124//65 28//28 46//46
f 28//28 124//65 44//44
f 29//29 125//66 47//47
f 125//66 29//29 45//45
f 126//67 30//30 48//48
f 30//30 126//67 46//46
f 47//47 50//50 31//31
f 50//50 47//47 127//68
f 128//69 39//39 59//59
f 39//39 128//69 48//48
f 50//50 129//70 49//49
f 129//70 50//50 130//71
f 32//32 131//72 51//51
f 131//72 32//32 49//49
f 52//52 51//51 132//73
f 51//51 52//52 33//33
f 53//53 52//52 133//74
f 52//52 53//53 34//34
f 55//55 53//53 134//75
f 53//53 55//55 36//36
f 135//76 55//55 136//77
f 55//55 135//76 54//54
f 56//56 54//54 137//78
f 54//54 56//56 35//35
f 57//57 56//56 138//79
f 56//56 57//57 37//37
f 58//58 57//57 139//80
f 57//57 58//58 38//38
f 60//60 58//58 140//81
f 58//58 60//60 40//40
f 141//82 59//59 60//60
f 59//59 141//82 142//83
f 143//84 44//44 124//65
f 44//44 143//84 122//63
f 144//85 124//65 145//86
f 124//65 144//85 143//84
f 146//87 145//86 147//88
f 145//86 146//87 144//85
f 148//89 146//87 147//88
f 146//87 148//89 149//90
f 150//91 149//90 148//89
f 149//90 150//91 151//92
f 152//93 151//92 150//91
f 151//92 152//93 153//94
f 154//95 153//94 152//93
f 153//94 154//95 155//96
f 156//97 155//96 154//95
f 155//96 156//97 157//98
f 158//99 157//98 156//97
f 157//98 158//99 159//100
f 160//101 159//100 158//99
f 159//100 160//101 161//102
f 162//103 160//101 163//104
f 160//101 162//103 161//102
f 164//105 163//104 165//106
f 163//104 164//105 162//103
f 166//107 165//106 167//108
f 165//106 166//107 164//105
f 168//109 167//108 169//110
f 167//108 168//109 166//107
f 170//111 168//109 169//110
f 168//109 170//111 171//112
f 172//113 171//112 170//111
f 171//112 172//113 173//114
f 174//115 173//114 172//113
f 173//114 174//115 175//116
f 176//117 175//116 174//115
f 175//116 176//117 177//118
f 178//119 176//117 179//120
f 176//117 178//119 177//118
f 180//121 179//120 181//122
f 179//120 180//121 178//119
f 182//123 181//122 183//124
f 181//122 182//123 180//121
f 184//125 183//124 185//126
f 183//124 184//125 182//123
f 186//127 185//126 187//128
f 185//126 186//127 184//125
f 186//127 188//129 189//130
f 188//129 186//127 187//128
f 189//130 190//131 191//132
f 190//131 189//130 188//129
f 123//64 191//132 190//131
f 191//132 123//64 192//133
f 43//43 192//133 123//64
f 192//133 43//43 121//62
f 45//45 190//131 125//66
f 190//131 45//45 123//64
f 145//86 46//46 126//67
f 46//46 145//86 124//65
f 125//66 127//68 47//47
f 127//68 125//66 193//134
f 194//135 48//48 128//69
f 48//48 194//135 126//67
f 127//68 130//71 50//50
f 130//71 127//68 195//136
f 142//83 128//69 59//59
f 128//69 142//83 196//137
f 130//71 197//138 129//70
f 197//138 130//71 198//139
f 49//49 199//140 131//72
f 199//140 49//49 129//70
f 51//51 200//141 132//73
f 200//141 51//51 131//72
f 133//74 132//73 201//142
f 132//73 133//74 52//52
f 134//75 133//74 202//143
f 133//74 134//75 53//53
f 136//77 134//75 203//144
f 134//75 136//77 55//55
f 204//145 136//77 205//146
f 136//77 204//145 135//76
f 137//78 135//76 206//147
f 135//76 137//78 54//54
f 138//79 137//78 207//148
f 137//78 138//79 56//56
f 139//80 138//79 208//149
f 138//79 139//80 57//57
f 140//81 139//80 209//150
f 139//80 140//81 58//58
f 210//151 60//60 140//81
f 60//60 210//151 141//82
f 211//152 142//83 141//82
f 142//83 211//152 212//153
f 147//88 126//67 194//135
f 126//67 147//88 145//86
f 213//154 147//88 194//135
f 147//88 213//154 148//89
f 214//155 148//89 213//154
f 148//89 214//155 150//91
f 215//156 150//91 214//155
f 150//91 215//156 152//93
f 216//157 152//93 215//156
f 152//93 216//157 154//95
f 217//158 154//95 216//157
f 154//95 217//158 156//97
f 218//159 156//97 217//158
f 156//97 218//159 158//99
f 219//160 158//99 218//159
f 158//99 219//160 160//101
f 163//104 219//160 220//161
f 219//160 163//104 160//101
f 165//106 220//161 221//162
f 220//161 165//106 163//104
f 167//108 221//162 222//163
f 221//162 167//108 165//106
f 169//110 222//163 223//164
f 222//163 169//110 167//108
f 224//165 169//110 223//164
f 169//110 224//165 170//111
f 225//166 170//111 224//165
f 170//111 225//166 172//113
f 226//167 172//113 225//166
f 172//113 226//167 174//115
f 227//168 174//115 226//167
f 174//115 227//168 176//117
f 179//120 227//168 228//169
f 227//168 179//120 176//117
f 181//122 228//169 229//170
f 228//169 181//122 179//120
f 183//124 229//170 230//171
f 229//170 183//124 181//122
f 185//126 230//171 231//172
f 230//171 185//126 183//124
f 187//128 231//172 232//173
f 231//172 187//128 185//126
f 188//129 232//173 193//134
f 232//173 188//129 187//128
f 190//131 193//134 125//66
f 193//134 190//131 188//129
f 193//134 195//136 127//68
f 195//136 193//134 232//173
f 196//137 194//135 128//69
f 194//135 196//137 213//154
f 195//136 198//139 130//71
f 198//139 195//136 233//174
f 212//153 196//137 142//83
f 196//137 212//153 234//175
f 198//139 235//176 197//138
f 235//176 198//139 236//177
f 129//70 237//178 199//140
f 237//178 129//70 197//138
f 131//72 238//179 200//141
f 238//179 131//72 199//140
f 132//73 239//180 201//142
f 239//180 132//73 200//141
f 202//143 201//142 240//181
f 201//142 202//143 133//74
f 203//144 202//143 241//182
f 202//143 203//144 134//75
f 205//146 203//144 242//183
f 203//144 205//146 136//77
f 243//184 205//146 244//185
f 205//146 243//184 204//145
f 206//147 204//145 245//186
f 204//145 206//147 135//76
f 207//148 206//147 246//187
f 206//147 207//148 137//78
f 208//149 207//148 247//188
f 207//148 208//149 138//79
f 209//150 208//149 248//189
f 208//149 209//150 139//80
f 249//190 140//81 209//150
f 140//81 249//190 210//151
f 250//191 141//82 210//151
f 141//82 250//191 211//152
f 251//192 212//153 211//152
f 212//153 251//192 252//193
f 234//175 213//154 196//137
f 213//154 234//175 214//155
f 253//194 214//155 234//175
f 214//155 253//194 215//156
f 254//195 215//156 253//194
f 215//156 254//195 216//157
f 255//196 216//157 254//195
f 216//157 255//196 217//158
f 256//197 217//158 255//196
f 217//158 256//197 218//159
f 257//198 218//159 256//197
f 218//159 257//198 219//160
f 220//161 257//198 258//199
f 257//198 220//161 219//160
f 221//162 258//199 259//200
f 258//199 221//162 220//161
f 222//163 259//200 260//201
f 259//200 222//163 221//162
f 223//164 260//201 261//202
f 260//201 223//164 222//163
f 262//203 223//164 261//202
f 223//164 262//203 224//165
f 263//204 224//165 262//203
f 224//165 263//204 225//166
f 264//205 225//166 263//204
f 225//166 264//205 226//167
f 265//206 226//167 264//205
f 226//167 265//206 227//168
f 228//169 265//206 266//207
f 265//206 228//169 227//168
f 229//170 266//207 267//208
f 266//207 229//170 228//169
f 230//171 267//208 268//209
f 267//208 230//171 229//170
f 231//172 268//209 233//174
f 268//209 231//172 230//171
f 232//173 233//174 195//136
f 233//174 232//173 231//172
f 233//174 236//177 198//139
f 236//177 233//174 268//209
f 252//193 234//175 212//153
f 234//175 252//193 253//194
f 236//177 269//210 235//176
f 269//210 236//177 270//211
f 197//138 271//212 237//178
f 271//212 197//138 235//176
f 199//140 272//213 238//179
f 272//213 199//140 237//178
f 200//141 273//214 239//180
f 273//214 200//141 238//179
f 201//142 274//215 240//181
f 274//215 201//142 239//180
f 241//182 240//181 275//216
f 240//181 241//182 202//143
f 242//183 241//182 276//217
f 241//182 242//183 203//144
f 244//185 242//183 277//218
f 242//183 244//185 205//146
f 278//219 244//185 279//220
f 244//185 278//219 243//184
f 245//186 243//184 280//221
f 243//184 245//186 204//145
f 246//187 245//186 281//222
f 245//186 246//187 206//147
f 247//188 246//187 282//223
f 246//187 247//188 207//148
f 248//189 247//188 283//224
f 247//188 248//189 208//149
f 284//225 209//150 248//189
f 209//150 284//225 249//190
f 285//226 210//151 249//190
f 210//151 285//226 250//191
f 286//227 211//152 250//191
f 211//152 286//227 251//192
f 287//228 252//193 251//192
f 252//193 287//228 288//229
f 288//229 253//194 252//193
f 253//194 288//229 254//195
f 289//230 254//195 288//229
f 254//195 289//230 255//196
f 290//231 255//196 289//230
f 255//196 290//231 256//197
f 291//232 256//197 290//231
f 256//197 291//232 257//198
f 258//199 291//232 292//233
f 291//232 258//199 257//198
f 259//200 292//233 293//234
f 292//233 259//200 258//199
f 260//201 293//234 294//235
f 293//234 260//201 259//200
f 261//202 294//235 295//236
f 294//235 261//202 260//201
f 296//237 261//202 295//236
f 261//202 296//237 262//203
f 297//238 262//203 296//237
f 262//203 297//238 263//204
f 298//239 263//204 297//238
f 263//204 298//239 264//205
f 299//240 264//205 298//239
f 264//205 299//240 265//206
f 266//207 299//240 300//241
f 299//240 266//207 265//206
f 267//208 300//241 270//211
f 300//241 267//208 266//207
f 268//209 270//211 236//177
f 270//211 268//209 267//208
f 270//211 301//242 269//210
f 301//242 270//211 300//241
f 235//176 302//243 271//212
f 302//243 235//176 269//210
f 237//178 303//244 272//213
f 303//244 237//178 271//212
f 238//179 304//245 273//214
f 304//245 238//179 272//213
f 239//180 305//246 274//215
f 305//246 239//180 273//214
f 240//181 306//247 275//216
f 306//247 240//181 274//215
f 276//217 275//216 307//248
f 275//216 276//217 241//182
f 277//218 276//217 308//249
f 276//217 277//218 242//183
f 279//220 277//218 309//250
f 277//218 279//220 244//185
f 310//251 279//220 311//252
f 279//220 310//251 278//219
f 280//221 278//219 312//253
f 278//219 280//221 243//184
f 281//222 280//221 313//254
f 280//221 281//222 245//186
f 282//223 281//222 314//255
f 281//222 282//223 246//187
f 283//224 282//223 315//256
f 282//223 283//224 247//188
f 316//257 248//189 283//224
f 248//189 316//257 284//225
f 317//258 249//190 284//225
f 249//190 317//258 285//226
f 318//259 250//191 285//226
f 250//191 318//259 286//227
f 319//260 251//192 286//227
f 251//192 319//260 287//228
f 320//261 288//229 287//228
f 288//229 320//261 289//230
f 321//262 289//230 320//261
f 289//230 321//262 290//231
f 322//263 290//231 321//262
f 290//231 322//263 291//232
f 292//233 322//263 323//264
f 322//263 292//233 291//232
f 293//234 323//264 324//265
f 323//264 293//234 292//233
f 294//235 324//265 325//266
f 324//265 294//235 293//234
f 295//236 325//266 326//267
f 325//266 295//236 294//235
f 327//268 295//236 326//267
f 295//236 327//268 296//237
f 328//269 296//237 327//268
f 296//237 328//269 297//238
f 329//270 297//238 328//269
f 297//238 329//270 298//239
f 330//271 298//239 329//270
f 298//239 330//271 299//240
f 300//241 330//271 301//242
f 330//271 300//241 299//240
f 269//210 331//272 302//243
f 331//272 269//210 301//242
f 271//212 332//273 303//244
f 332//273 271//212 302//243
f 272//213 333//274 304//245
f 333//274 272//213 303//244
f 273//214 334//275 305//246
f 334//275 273//214 304//245
f 274//215 335//276 306//247
f 335//276 274//215 305//246
f 275//216 336//277 307//248
f 336//277 275//216 306//247
f 276//217 337//278 308//249
f 337//278 276//217 307//248
f 309//250 308//249 338//279
f 308//249 309//250 277//218
f 311//252 309//250 339//280
f 309//250 311//252 279//220
f 340//281 341//281 342//281
f 341//281 340//281 343//281
f 341//281 343//281 344//281
f 344//281 343//281 345//281
f 345//281 343//281 346//281
f 346//281 343//281 347//281
f 346//281 347//281 348//281
f 348//281 347//281 349//281
f 348//281 349//281 350//281
f 350//281 349//281 351//281
f 351//281 349//281 352//281
f 351//281 352//281 353//281
f 353//281 352//281 354//281
f 353//281 354//281 355//281
f 355//281 354//281 356//281
f 355//281 356//281 357//281
f 357//281 356//281 358//281
f 357//281 358//281 359//281
f 359//281 358//281 360//281
f 360//281 358//281 361//281
f 360//281 361//281 362//281
f 362//281 361//281 363//281
f 362//281 363//281 364//281
f 364//281 363//281 365//281
f 364//281 365//281 366//281
f 366//281 365//281 367//281
f 366//281 367//281 368//281
f 368//281 367//281 369//281
f 368//281 369//281 370//281
f 370//281 369//281 371//281
f 344//281 372//281 373//281
f 372//281 344//281 345//281
f 373//281 372//281 374//281
f 373//281 374//281 375//281
f 373//281 375//281 376//281
f 376//281 375//281 377//281
f 376//281 377//281 378//281
f 378//281 377//281 379//281
f 378//281 379//281 380//281
f 380//281 379//281 381//281
f 380//281 381//281 382//281
f 382//281 381//281 383//281
f 382//281 383//281 384//281
f 384//281 383//281 385//281
f 384//281 385//281 386//281
f 384//281 386//281 387//281
f 387//281 386//281 388//281
f 387//281 388//281 389//281
f 389//281 388//281 390//281
f 389//281 390//281 391//281
f 391//281 390//281 392//281
f 391//281 392//281 393//281
f 393//281 392//281 394//281
f 393//281 394//281 395//281
f 393//281 395//281 396//281
f 396//281 395//281 371//281
f 396//281 371//281 369//281
f 396//281 369//281 397//281
f 396//281 397//281 398//281
f 398//281 397//281 399//281
f 312//253 310//251 400//282
f 310//251 312//253 278//219
f 313//254 312//253 401//283
f 312//253 313//254 280//221
f 314//255 313//254 402//284
f 313//254 314//255 281//222
f 315//256 314//255 403//285
f 314//255 315//256 282//223
f 404//286 283//224 315//256
f 283//224 404//286 316//257
f 405//287 284//225 316//257
f 284//225 405//287 317//258
f 406//288 285//226 317//258
f 285//226 406//288 318//259
f 407//289 286//227 318//259
f 286//227 407//289 319//260
f 408//290 287//228 319//260
f 287//228 408//290 320//261
f 409//291 320//261 408//290
f 320//261 409//291 321//262
f 410//292 321//262 409//291
f 321//262 410//292 322//263
f 323//264 410//292 411//293
f 410//292 323//264 322//263
f 324//265 411//293 412//294
f 411//293 324//265 323//264
f 325//266 412//294 413//295
f 412//294 325//266 324//265
f 326//267 413//295 414//296
f 413//295 326//267 325//266
f 415//297 326//267 414//296
f 326//267 415//297 327//268
f 416//298 327//268 415//297
f 327//268 416//298 328//269
f 417//299 328//269 416//298
f 328//269 417//299 329//270
f 418//300 329//270 417//299
f 329//270 418//300 330//271
f 301//242 418//300 331//272
f 418//300 301//242 330//271
f 302//243 419//301 332//273
f 419//301 302//243 331//272
f 303//244 420//302 333//274
f 420//302 303//244 332//273
f 304//245 421//303 334//275
f 421//303 304//245 333//274
f 305//246 422//304 335//276
f 422//304 305//246 334//275
f 306//247 423//305 336//277
f 423//305 306//247 335//276
f 307//248 424//306 337//278
f 424//306 307//248 336//277
f 308//249 425//307 338//279
f 425//307 308//249 337//278
f 339//280 338//279 426//308
f 338//279 339//280 309//250
f 338//279 427//309 426//308
f 427//309 338//279 425//307
f 425//307 428//310 427//309
f 428//310 425//307 429//311
f 429//311 430//312 428//310
f 430//312 429//311 431//313
f 431//313 432//314 430//312
f 432//314 431//313 433//315
f 433//315 434//316 432//314
f 434//316 433//315 435//317
f 435//317 436//318 434//316
f 436//318 435//317 437//319
f 437//319 438//320 436//318
f 438//320 437//319 439//321
f 439//321 440//322 438//320
f 440//322 439//321 441//323
f 440//322 442//324 443//325
f 442//324 440//322 441//323
f 443//325 444//326 445//327
f 444//326 443//325 442//324
f 445//327 446//328 447//329
f 446//328 445//327 444//326
f 447//329 448//330 449//331
f 448//330 447//329 446//328
f 448//330 450//332 449//331
f 450//332 448//330 451//333
f 451//333 452//334 450//332
f 452//334 451//333 453//335
f 453//335 454//336 452//334
f 454//336 453//335 455//337
f 454//336 456//338 457//339
f 456//338 454//336 455//337
f 457//339 458//340 459//341
f 458//340 457//339 456//338
f 459//341 460//342 461//343
f 460//342 459//341 458//340
f 461//343 462//344 463//345
f 462//344 461//343 460//342
f 463//345 464//346 465//347
f 464//346 463//345 462//344
f 465//347 466//348 467//349
f 466//348 465//347 464//346
f 467//349 468//350 469//351
f 468//350 467//349 466//348
f 469//351 470//352 471//353
f 470//352 469//351 468//350
f 470//352 472//354 471//353
f 472//354 470//352 473//355
f 473//355 474//356 472//354
f 474//356 473//355 401//283
f 401//283 400//282 474//356
f 400//282 401//283 312//253
f 402//284 401//283 473//355
f 401//283 402//284 313//254
f 403//285 402//284 475//357
f 402//284 403//285 314//255
f 476//358 315//256 403//285
f 315//256 476//358 404//286
f 477//359 316//257 404//286
f 316//257 477//359 405//287
f 478//360 317//258 405//287
f 317//258 478//360 406//288
f 479//361 318//259 406//288
f 318//259 479//361 407//289
f 480//362 319//260 407//289
f 319//260 480//362 408//290
f 481//363 408//290 480//362
f 408//290 481//363 409//291
f 482//364 409//291 481//363
f 409//291 482//364 410//292
f 411//293 482//364 483//365
f 482//364 411//293 410//292
f 412//294 483//365 484//366
f 483//365 412//294 411//293
f 413//295 484//366 485//367
f 484//366 413//295 412//294
f 414//296 485//367 486//368
f 485//367 414//296 413//295
f 487//369 414//296 486//368
f 414//296 487//369 415//297
f 488//370 415//297 487//369
f 415//297 488//370 416//298
f 489//371 416//298 488//370
f 416//298 489//371 417//299
f 490//372 417//299 489//371
f 417//299 490//372 418//300
f 331//272 490//372 419//301
f 490//372 331//272 418//300
f 332//273 491//373 420//302
f 491//373 332//273 419//301
f 333//274 492//374 421//303
f 492//374 333//274 420//302
f 334//275 493//375 422//304
f 493//375 334//275 421//303
f 335//276 494//376 423//305
f 494//376 335//276 422//304
f 336//277 495//377 424//306
f 495//377 336//277 423//305
f 337//278 429//311 425//307
f 429//311 337//278 424//306
f 424//306 431//313 429//311
f 431//313 424//306 495//377
f 495//377 433//315 431//313
f 433//315 495//377 496//378
f 496//378 435//317 433//315
f 435//317 496//378 497//379
f 497//379 437//319 435//317
f 437//319 497//379 498//380
f 498//380 439//321 437//319
f 439//321 498//380 499//381
f 499//381 441//323 439//321
f 441//323 499//381 500//382
f 441//323 501//383 442//324
f 501//383 441//323 500//382
f 442//324 502//384 444//326
f 502//384 442//324 501//383
f 444//326 503//385 446//328
f 503//385 444//326 502//384
f 446//328 504//386 448//330
f 504//386 446//328 503//385
f 504//386 451//333 448//330
f 451//333 504//386 505//387
f 505//387 453//335 451//333
f 453//335 505//387 506//388
f 506//388 455//337 453//335
f 455//337 506//388 507//389
f 455//337 508//390 456//338
f 508//390 455//337 507//389
f 456//338 509//391 458//340
f 509//391 456//338 508//390
f 458//340 510//392 460//342
f 510//392 458//340 509//391
f 460//342 511//393 462//344
f 511//393 460//342 510//392
f 462//344 512//394 464//346
f 512//394 462//344 511//393
f 464//346 513//395 466//348
f 513//395 464//346 512//394
f 466//348 514//396 468//350
f 514//396 466//348 513//395
f 468//350 475//357 470//352
f 475//357 468//350 514//396
f 475//357 473//355 470//352
f 473//355 475//357 402//284
f 514//396 403//285 475//357
f 403//285 514//396 476//358
f 515//397 404//286 476//358
f 404//286 515//397 477//359
f 516//398 405//287 477//359
f 405//287 516//398 478//360
f 517//399 406//288 478//360
f 406//288 517//399 479//361
f 518//400 407//289 479//361
f 407//289 518//400 480//362
f 519//401 480//362 518//400
f 480//362 519//401 481//363
f 520//402 481//363 519//401
f 481//363 520//402 482//364
f 483//365 520//402 521//403
f 520//402 483//365 482//364
f 484//366 521//403 522//404
f 521//403 484//366 483//365
f 485//367 522//404 523//405
f 522//404 485//367 484//366
f 486//368 523//405 524//406
f 523//405 486//368 485//367
f 525//407 486//368 524//406
f 486//368 525//407 487//369
f 526//408 487//369 525//407
f 487//369 526//408 488//370
f 527//409 488//370 526//408
f 488//370 527//409 489//371
f 528//410 489//371 527//409
f 489//371 528//410 490//372
f 419//301 528//410 491//373
f 528//410 419//301 490//372
f 420//302 529//411 492//374
f 529//411 420//302 491//373
f 421//303 530//412 493//375
f 530//412 421//303 492//374
f 422//304 531//413 494//376
f 531//413 422//304 493//375
f 423//305 496//378 495//377
f 496//378 423//305 494//376
f 494//376 497//379 496//378
f 497//379 494//376 531//413
f 531//413 498//380 497//379
f 498//380 531//413 532//414
f 532//414 499//381 498//380
f 499//381 532//414 533//415
f 533//415 500//382 499//381
f 500//382 533//415 534//416
f 500//382 535//417 501//383
f 535//417 500//382 534//416
f 501//383 536//418 502//384
f 536//418 501//383 535//417
f 502//384 537//419 503//385
f 537//419 502//384 536//418
f 503//385 538//420 504//386
f 538//420 503//385 537//419
f 538//420 505//387 504//386
f 505//387 538//420 539//421
f 539//421 506//388 505//387
f 506//388 539//421 540//422
f 540//422 507//389 506//388
f 507//389 540//422 541//423
f 507//389 542//424 508//390
f 542//424 507//389 541//423
f 508//390 543//425 509//391
f 543//425 508//390 542//424
f 509//391 544//426 510//392
f 544//426 509//391 543//425
f 510//392 545//427 511//393
f 545//427 510//392 544//426
f 511//393 546//428 512//394
f 546//428 511//393 545//427
f 512//394 515//397 513//395
f 515//397 512//394 546//428
f 513//395 476//358 514//396
f 476//358 513//395 515//397
f 546//428 477//359 515//397
f 477//359 546//428 516//398
f 547//429 478//360 516//398
f 478//360 547//429 517//399
f 548//430 479//361 517//399
f 479//361 548//430 518//400
f 549//431 518//400 548//430
f 518//400 549//431 519//401
f 550//432 519//401 549//431
f 519//401 550//432 520//402
f 521//403 550//432 551//433
f 550//432 521//403 520//402
f 522//404 551//433 552//434
f 551//433 522//404 521//403
f 523//405 552//434 553//435
f 552//434 523//405 522//404
f 524//406 553//435 554//436
f 553//435 524//406 523//405
f 555//437 524//406 554//436
f 524//406 555//437 525//407
f 556//438 525//407 555//437
f 525//407 556//438 526//408
f 557//439 526//408 556//438
f 526//408 557//439 527//409
f 558//440 527//409 557//439
f 527//409 558//440 528//410
f 491//373 558//440 529//411
f 558//440 491//373 528//410
f 492//374 559//441 530//412
f 559//441 492//374 529//411
f 493//375 532//414 531//413
f 532//414 493//375 530//412
f 530//412 533//415 532//414
f 533//415 530//412 559//441
f 559//441 534//416 533//415
f 534//416 559//441 560//442
f 534//416 561//443 535//417
f 561//443 534//416 560//442
f 535//417 562//444 536//418
f 562//444 535//417 561//443
f 536//418 563//445 537//419
f 563//445 536//418 562//444
f 537//419 564//446 538//420
f 564//446 537//419 563//445
f 564//446 539//421 538//420
f 539//421 564//446 565//447
f 565//447 540//422 539//421
f 540//422 565//447 566//448
f 566//448 541//423 540//422
f 541//423 566//448 567//449
f 567//449 542//424 541//423
f 542//424 567//449 568//450
f 542//424 569//451 543//425
f 569//451 542//424 568//450
f 543//425 570//452 544//426
f 570//452 543//425 569//451
f 544//426 547//429 545//427
f 547//429 544//426 570//452
f 545//427 516//398 546//428
f 516//398 545//427 547//429
f 570//452 517//399 547//429
f 517//399 570//452 548//430
f 569//451 548//430 570//452
f 548//430 569//451 549//431
f 568//450 549//431 569//451
f 549//431 568//450 550//432
f 551//433 568//450 567//449
f 568//450 551//433 550//432
f 552//434 567//449 566//448
f 567//449 552//434 551//433
f 553//435 566//448 565//447
f 566//448 553//435 552//434
f 554//436 565//447 564//446
f 565//447 554//436 553//435
f 563//445 554//436 564//446
f 554//436 563//445 555//437
f 562//444 555//437 563//445
f 555//437 562//444 556//438
f 561//443 556//438 562//444
f 556//438 561//443 557//439
f 560//442 557//439 561//443
f 557//439 560//442 558//440
f 529//411 560//442 559//441
f 560//442 529//411 558//440
