# SSTK version 0.8.0
# 11
mtllib original_11.mtl
o group_10/ID76#ID76
v -0.13674027 0.66492393 0.02957822
v -0.13505883 0.66491194 -0.03603809
v -0.14036761 0.66498021 -0.00347192
v -0.12468217 0.66490718 0.06060023
v -0.12155151 0.66507340 -0.06636026
v -0.10518307 0.66496515 0.08730319
v -0.10081143 0.66500958 -0.09228893
v -0.07959238 0.66502989 0.10813753
v -0.07392768 0.66487523 -0.11171089
v -0.04934019 0.66494951 0.12180867
v -0.04302588 0.66492462 -0.12358290
v -0.01638227 0.66485666 0.12676463
v -0.00996968 0.66500321 -0.12716834
v 0.01650279 0.66490575 0.12342243
v 0.02266193 0.66503082 -0.12198365
v 0.04754838 0.66490799 0.11148762
v 0.05300705 0.66498962 -0.10851982
v 0.07424873 0.66502674 0.09179614
v 0.07880591 0.66484619 -0.08765451
v 0.09522535 0.66513509 0.06595949
v 0.09840513 0.66500677 -0.06077149
v 0.10874219 0.66498369 0.03583374
v 0.11034914 0.66507968 -0.02992102
v 0.11367274 0.66489094 0.00307070
vn 0 1 0
usemtl material_0_0
f 1//1 2//1 3//1
f 2//1 1//1 4//1
f 2//1 4//1 5//1
f 5//1 4//1 6//1
f 5//1 6//1 7//1
f 7//1 6//1 8//1
f 7//1 8//1 9//1
f 9//1 8//1 10//1
f 9//1 10//1 11//1
f 11//1 10//1 12//1
f 11//1 12//1 13//1
f 13//1 12//1 14//1
f 13//1 14//1 15//1
f 15//1 14//1 16//1
f 15//1 16//1 17//1
f 17//1 16//1 18//1
f 17//1 18//1 19//1
f 19//1 18//1 20//1
f 19//1 20//1 21//1
f 21//1 20//1 22//1
f 21//1 22//1 23//1
f 23//1 22//1 24//1
