# SSTK version 0.8.0
# 1
mtllib original_1.mtl
o group_0/ID4#ID4
v -0.32924113 -0.58406282 -0.05690937
v -0.32947675 -0.58392028 0.05660854
v -0.33029311 -0.58411396 -0.00017871
v -0.32679844 -0.58402883 -0.11338932
v -0.32681817 -0.58402908 0.11328300
v -0.32293355 -0.58401652 -0.17009679
v -0.32304715 -0.58412646 0.16985465
v -0.32024146 -0.58417659 -0.19781433
v -0.32038333 -0.58403128 0.19751062
v -0.31788738 -0.58391696 -0.21426862
v -0.31782855 -0.58404176 0.21404382
v -0.31336122 -0.58415825 -0.23037546
v -0.31314215 -0.58407727 0.23020020
v -0.30687380 -0.58399501 -0.24604872
v -0.30702839 -0.58406451 0.24556322
v -0.29901070 -0.58395731 0.26051223
v -0.29911462 -0.58403464 -0.26074905
v -0.28932306 -0.58418572 0.27403948
v -0.28921053 -0.58398696 -0.27438846
v -0.27821700 -0.58394602 0.28668386
v -0.27817369 -0.58413278 -0.28690134
v -0.26570775 -0.58404895 0.29783437
v -0.26562222 -0.58400375 -0.29825468
v -0.25192995 -0.58407495 0.30749892
v -0.25209770 -0.58406069 -0.30787037
v -0.23722366 -0.58413330 0.31546639
v -0.23723719 -0.58407680 -0.31575733
v -0.22179337 -0.58394109 0.32174957
v -0.22168933 -0.58405104 -0.32226288
v -0.20568069 -0.58391755 0.32618971
v -0.20559411 -0.58400479 -0.32654587
v -0.18896087 -0.58408897 0.32885856
v -0.18878348 -0.58424569 -0.32913550
v -0.16127005 -0.58399383 0.33150797
v -0.16120745 -0.58420075 -0.33189961
v -0.10473972 -0.58413025 -0.33577184
v -0.10468785 -0.58406616 0.33528111
v -0.04820593 -0.58395910 -0.33820114
v -0.04798980 -0.58397634 0.33794621
v 0.00862945 -0.58410313 -0.33902653
v 0.00863528 -0.58411219 0.33860866
v 0.06527230 -0.58406698 -0.33808558
v 0.06533732 -0.58399005 0.33775812
v 0.12209147 -0.58403113 -0.33558618
v 0.12190231 -0.58410817 0.33546810
v 0.17871525 -0.58410229 0.33143522
v 0.17857694 -0.58391242 -0.33186283
v 0.20625072 -0.58399991 0.32887118
v 0.20630349 -0.58395884 -0.32915387
v 0.22263180 -0.58397782 -0.32651550
v 0.22281827 -0.58401984 0.32624390
v 0.23890889 -0.58414339 -0.32203246
v 0.23895090 -0.58404697 0.32171939
v 0.25446074 -0.58402308 -0.31583262
v 0.25454446 -0.58400094 0.31536249
v 0.26938706 -0.58415499 -0.30779128
v 0.26923627 -0.58387037 0.30742794
v 0.28285393 -0.58402370 -0.29806057
v 0.28278291 -0.58421461 0.29783271
v 0.29539859 -0.58419588 -0.28698053
v 0.29543794 -0.58398492 0.28662184
v 0.30660840 -0.58404623 -0.27440007
v 0.30657891 -0.58395187 0.27429418
v 0.31644248 -0.58407210 -0.26063700
v 0.31634327 -0.58400437 0.26049576
v 0.32439286 -0.58424135 -0.24602329
v 0.32420773 -0.58401511 0.24561636
v 0.33072502 -0.58403063 -0.23060987
v 0.33049936 -0.58393934 0.23005627
v 0.33507576 -0.58397580 -0.21425623
v 0.33496446 -0.58399634 0.21393392
v 0.33759223 -0.58414998 -0.19789417
v 0.33757848 -0.58402092 0.19745599
v 0.34024498 -0.58406431 -0.17012789
v 0.34027028 -0.58406128 0.16962434
v 0.34419933 -0.58410793 -0.11347719
v 0.34424367 -0.58396567 0.11317376
v 0.34658956 -0.58408523 -0.05688362
v 0.34670489 -0.58415097 0.05664196
v 0.34733573 -0.58407575 -0.00022685
vn 0 -1 0
usemtl material_0_0
f 1//1 2//1 3//1
f 2//1 1//1 4//1
f 2//1 4//1 5//1
f 5//1 4//1 6//1
f 5//1 6//1 7//1
f 7//1 6//1 8//1
f 7//1 8//1 9//1
f 9//1 8//1 10//1
f 9//1 10//1 11//1
f 11//1 10//1 12//1
f 11//1 12//1 13//1
f 13//1 12//1 14//1
f 13//1 14//1 15//1
f 15//1 14//1 16//1
f 16//1 14//1 17//1
f 16//1 17//1 18//1
f 18//1 17//1 19//1
f 18//1 19//1 20//1
f 20//1 19//1 21//1
f 20//1 21//1 22//1
f 22//1 21//1 23//1
f 22//1 23//1 24//1
f 24//1 23//1 25//1
f 24//1 25//1 26//1
f 26//1 25//1 27//1
f 26//1 27//1 28//1
f 28//1 27//1 29//1
f 28//1 29//1 30//1
f 30//1 29//1 31//1
f 30//1 31//1 32//1
f 32//1 31//1 33//1
f 32//1 33//1 34//1
f 34//1 33//1 35//1
f 34//1 35//1 36//1
f 34//1 36//1 37//1
f 37//1 36//1 38//1
f 37//1 38//1 39//1
f 39//1 38//1 40//1
f 39//1 40//1 41//1
f 41//1 40//1 42//1
f 41//1 42//1 43//1
f 43//1 42//1 44//1
f 43//1 44//1 45//1
f 45//1 44//1 46//1
f 46//1 44//1 47//1
f 46//1 47//1 48//1
f 48//1 47//1 49//1
f 48//1 49//1 50//1
f 48//1 50//1 51//1
f 51//1 50//1 52//1
f 51//1 52//1 53//1
f 53//1 52//1 54//1
f 53//1 54//1 55//1
f 55//1 54//1 56//1
f 55//1 56//1 57//1
f 57//1 56//1 58//1
f 57//1 58//1 59//1
f 59//1 58//1 60//1
f 59//1 60//1 61//1
f 61//1 60//1 62//1
f 61//1 62//1 63//1
f 63//1 62//1 64//1
f 63//1 64//1 65//1
f 65//1 64//1 66//1
f 65//1 66//1 67//1
f 67//1 66//1 68//1
f 67//1 68//1 69//1
f 69//1 68//1 70//1
f 69//1 70//1 71//1
f 71//1 70//1 72//1
f 71//1 72//1 73//1
f 73//1 72//1 74//1
f 73//1 74//1 75//1
f 75//1 74//1 76//1
f 75//1 76//1 77//1
f 77//1 76//1 78//1
f 77//1 78//1 79//1
f 79//1 78//1 80//1
