# SSTK version 0.8.0
# 12
mtllib original_12.mtl
o group_11/ID83#ID83
v -0.04674296 0.81314340 0.01059223
v -0.04768025 0.81324883 -0.00784626
v -0.04855422 0.81324773 0.00133933
v -0.04452430 0.81327000 -0.01624881
v -0.04308567 0.81325823 0.01877957
v -0.03929241 0.81334488 -0.02388553
v -0.03693319 0.81314288 0.02580286
v -0.03218873 0.81319695 -0.02996252
v -0.02928195 0.81318571 0.03102340
v -0.02388433 0.81322650 -0.03386526
v -0.02086857 0.81335160 0.03417530
v -0.01480968 0.81308587 -0.03534375
v -0.01154047 0.81322217 0.03501088
v -0.00555168 0.81320894 -0.03468296
v -0.00254532 0.81316540 0.03335073
v 0.00297355 0.81309983 -0.03168455
v 0.00571646 0.81338040 0.02948496
v 0.01073603 0.81315888 -0.02624758
v 0.01274398 0.81313308 0.02368503
v 0.01642297 0.81337712 -0.01912152
v 0.01807150 0.81320240 0.01616947
v 0.02044470 0.81322624 -0.01083475
v 0.02111237 0.81324764 0.00731306
v 0.02202407 0.81303464 -0.00182779
v -0.01488401 0.81314714 -0.03554212
v -0.00575575 0.71420994 -0.03465055
v -0.01476765 0.71445919 -0.03532796
v -0.00552058 0.81334890 -0.03476387
v -0.02404117 0.81326708 -0.03392806
v -0.02380321 0.71442138 -0.03378691
v -0.03223723 0.81304767 -0.02980052
v -0.03235491 0.71430890 -0.02984259
v -0.03917801 0.81312307 -0.02376833
v -0.03918155 0.71432941 -0.02379438
v -0.04454048 0.71440807 -0.01643343
v -0.04453760 0.81322860 -0.01638507
v -0.04776583 0.71456994 -0.00778006
v -0.04773344 0.81311687 -0.00773931
v -0.04843846 0.71427649 0.00141080
v -0.04849409 0.81303686 0.00128842
v -0.04696720 0.71434764 0.01039145
v -0.04684983 0.81319005 0.01047486
v -0.04294960 0.71446259 0.01878217
v -0.04295529 0.81313241 0.01887210
v -0.03697704 0.71435441 0.02604854
v -0.03705798 0.81313827 0.02582346
v -0.02941947 0.81321320 0.03121941
v -0.02940346 0.71426387 0.03120785
v -0.02071491 0.81314370 0.03433130
v -0.02074429 0.71436052 0.03430413
v -0.01154845 0.81313111 0.03512324
v -0.01147547 0.71441199 0.03524474
v -0.00253660 0.81316137 0.03342972
v -0.00255399 0.71432853 0.03343863
v 0.00583142 0.81307554 0.02951885
v 0.00566553 0.71446262 0.02948503
v 0.01286120 0.81311187 0.02364165
v 0.01300486 0.71443055 0.02361401
v 0.01815516 0.71438448 0.01610640
v 0.01810080 0.81315952 0.01620635
v 0.02131679 0.71449132 0.00746240
v 0.02128420 0.81325090 0.00741295
v 0.02217235 0.71440663 -0.00177629
v 0.02219596 0.81320291 -0.00172634
v 0.02051463 0.71452603 -0.01090230
v 0.02035891 0.81328132 -0.01089546
v 0.01650391 0.71441211 -0.01899600
v 0.01638378 0.81326681 -0.01927636
v 0.01056304 0.71439002 -0.02608561
v 0.01054329 0.81302834 -0.02628844
v 0.00301426 0.81322377 -0.03148425
v 0.00317294 0.71441903 -0.03144378
v -0.04774823 0.71455111 -0.00775460
v -0.04680443 0.71443471 0.01065856
v -0.04848612 0.71452680 0.00147695
v -0.04461032 0.71451275 -0.01645157
v -0.04290566 0.71444512 0.01869059
v -0.03927314 0.71444799 -0.02414225
v -0.03693918 0.71436956 0.02602401
v -0.03219622 0.71440640 -0.02988166
v -0.02942948 0.71447727 0.03121121
v -0.02401184 0.71425952 -0.03376486
v -0.02098087 0.71449998 0.03434515
v -0.01472460 0.71442696 -0.03537634
v -0.01157976 0.71436006 0.03512557
v -0.00580458 0.71442698 -0.03471910
v -0.00248921 0.71434013 0.03347757
v 0.00297049 0.71427839 -0.03154913
v 0.00570346 0.71441505 0.02945150
v 0.01050567 0.71442934 -0.02619548
v 0.01279622 0.71437431 0.02357633
v 0.01641464 0.71432512 -0.01909009
v 0.01814160 0.71436717 0.01611025
v 0.02044888 0.71440221 -0.01068793
v 0.02132761 0.71428539 0.00721605
v 0.02217561 0.71436683 -0.00177234
vn 0 1 0
vn -0.045606608962086126 0 -0.9989594772657093
vn 0.21449710534595753 0 -0.9767246243431181
vn -0.3026023034752513 0 -0.953116910946119
vn -0.5389761969797283 0 -0.842320995279869
vn -0.7386197688637319 0 -0.6741222715826021
vn -0.8879275737525727 0 -0.4599832864027447
vn -0.9767246243431181 0 -0.21449710534595753
vn -0.9989594772657093 0 0.045606608962086126
vn -0.953116910946119 0 0.3026023034752513
vn -0.842320995279869 0 0.5389761969797283
vn -0.6741222715826021 0 0.7386197688637319
vn -0.4599832864027447 0 0.8879275737525727
vn -0.21449710534595753 0 0.9767246243431181
vn 0.045606608962086126 0 0.9989594772657093
vn 0.3026023034752513 0 0.953116910946119
vn 0.5389761969797283 0 0.842320995279869
vn 0.7386197688637319 0 0.6741222715826021
vn 0.8879275737525727 0 0.4599832864027447
vn 0.9767246243431181 0 0.21449710534595753
vn 0.9989594772657093 0 -0.045606608962086126
vn 0.953116910946119 0 -0.3026023034752513
vn 0.842320995279869 0 -0.5389761969797283
vn 0.6741222715826021 0 -0.7386197688637319
vn 0.4599832864027447 0 -0.8879275737525727
vn 0 -1 0
usemtl material_0_0
f 1//1 2//1 3//1
f 2//1 1//1 4//1
f 4//1 1//1 5//1
f 4//1 5//1 6//1
f 6//1 5//1 7//1
f 6//1 7//1 8//1
f 8//1 7//1 9//1
f 8//1 9//1 10//1
f 10//1 9//1 11//1
f 10//1 11//1 12//1
f 12//1 11//1 13//1
f 12//1 13//1 14//1
f 14//1 13//1 15//1
f 14//1 15//1 16//1
f 16//1 15//1 17//1
f 16//1 17//1 18//1
f 18//1 17//1 19//1
f 18//1 19//1 20//1
f 20//1 19//1 21//1
f 20//1 21//1 22//1
f 22//1 21//1 23//1
f 22//1 23//1 24//1
f 25//2 26//3 27//2
f 26//3 25//2 28//3
f 29//4 27//2 30//4
f 27//2 29//4 25//2
f 31//5 30//4 32//5
f 30//4 31//5 29//4
f 33//6 32//5 34//6
f 32//5 33//6 31//5
f 33//6 35//7 36//7
f 35//7 33//6 34//6
f 36//7 37//8 38//8
f 37//8 36//7 35//7
f 38//8 39//9 40//9
f 39//9 38//8 37//8
f 40//9 41//10 42//10
f 41//10 40//9 39//9
f 42//10 43//11 44//11
f 43//11 42//10 41//10
f 44//11 45//12 46//12
f 45//12 44//11 43//11
f 47//13 45//12 48//13
f 45//12 47//13 46//12
f 49//14 48//13 50//14
f 48//13 49//14 47//13
f 51//15 50//14 52//15
f 50//14 51//15 49//14
f 53//16 52//15 54//16
f 52//15 53//16 51//15
f 55//17 54//16 56//17
f 54//16 55//17 53//16
f 57//18 56//17 58//18
f 56//17 57//18 55//17
f 59//19 57//18 58//18
f 57//18 59//19 60//19
f 61//20 60//19 59//19
f 60//19 61//20 62//20
f 63//21 62//20 61//20
f 62//20 63//21 64//21
f 65//22 64//21 63//21
f 64//21 65//22 66//22
f 67//23 66//22 65//22
f 66//22 67//23 68//23
f 69//24 68//23 67//23
f 68//23 69//24 70//24
f 71//25 69//24 72//25
f 69//24 71//25 70//24
f 28//3 72//25 26//3
f 72//25 28//3 71//25
f 73//26 74//26 75//26
f 74//26 73//26 76//26
f 74//26 76//26 77//26
f 77//26 76//26 78//26
f 77//26 78//26 79//26
f 79//26 78//26 80//26
f 79//26 80//26 81//26
f 81//26 80//26 82//26
f 81//26 82//26 83//26
f 83//26 82//26 84//26
f 83//26 84//26 85//26
f 85//26 84//26 86//26
f 85//26 86//26 87//26
f 87//26 86//26 88//26
f 87//26 88//26 89//26
f 89//26 88//26 90//26
f 89//26 90//26 91//26
f 91//26 90//26 92//26
f 91//26 92//26 93//26
f 93//26 92//26 94//26
f 93//26 94//26 95//26
f 95//26 94//26 96//26
