# SSTK version 0.8.0
# 13
mtllib original_13.mtl
o group_12/ID90#ID90
v -0.04959486 0.81308626 -0.01258640
v -0.05110238 0.81317851 0.00759561
v -0.05166670 0.81323006 -0.00255370
v -0.04772464 0.81315457 0.01692695
v -0.04523486 0.81321723 -0.02144679
v -0.04197866 0.81316745 0.02541599
v -0.03871632 0.81325642 -0.02890237
v -0.03452140 0.81311658 0.03204621
v -0.03030135 0.81326356 -0.03480345
v -0.02551662 0.81305409 0.03630038
v -0.02096176 0.81336940 -0.03785621
v -0.01556135 0.81319583 0.03816586
v -0.01083298 0.81338055 -0.03865919
v -0.00539647 0.81322265 0.03753073
v -0.00104624 0.81335227 -0.03674016
v 0.00392876 0.81309102 0.03437096
v 0.00808834 0.81327868 -0.03215641
v 0.01227069 0.81317073 0.02862315
v 0.01570798 0.81329107 -0.02580473
v 0.01881099 0.81309924 0.02126667
v 0.02125829 0.81338424 -0.01751493
v 0.02327070 0.81320040 0.01219334
v 0.02438231 0.81313808 -0.00781993
v 0.02526356 0.81327096 0.00222083
v 0.00404437 0.87678564 0.03433723
v -0.00536572 0.81308712 0.03755970
v 0.00395072 0.81321136 0.03420589
v -0.00554706 0.87666092 0.03767518
v -0.01564424 0.81311734 0.03825530
v -0.01566541 0.87658776 0.03828427
v -0.02556054 0.81330517 0.03643852
v -0.02546458 0.87653593 0.03640571
v -0.03452950 0.81315685 0.03202176
v -0.03457084 0.87663722 0.03206681
v -0.04214666 0.81335164 0.02531500
v -0.04203100 0.87673326 0.02525307
v -0.04767538 0.87665323 0.01694469
v -0.04769460 0.81318793 0.01688594
v -0.05090994 0.87683881 0.00756667
v -0.05101367 0.81307084 0.00747352
v -0.05167981 0.87666687 -0.00260795
v -0.05151095 0.81302628 -0.00246225
v -0.04983491 0.87660934 -0.01251014
v -0.04968790 0.81316746 -0.01238871
v -0.04550409 0.87673074 -0.02133499
v -0.04543317 0.81325822 -0.02137048
v -0.03869683 0.87672559 -0.02894232
v -0.03882501 0.81322920 -0.02923861
v -0.03056597 0.81319638 -0.03472278
v -0.03047990 0.87658576 -0.03479431
v -0.02102172 0.81307486 -0.03784653
v -0.02094061 0.87662974 -0.03800079
v -0.01084987 0.81323600 -0.03858860
v -0.01085186 0.87685082 -0.03860444
v -0.00100397 0.81330809 -0.03659518
v -0.00086417 0.87686064 -0.03688129
v 0.00813581 0.81316360 -0.03230943
v 0.00798797 0.87668538 -0.03239681
v 0.01549573 0.81324004 -0.02566154
v 0.01559732 0.87664223 -0.02569875
v 0.02117620 0.87663896 -0.01741954
v 0.02145735 0.81303209 -0.01734447
v 0.02458895 0.87659064 -0.00777288
v 0.02452622 0.81322715 -0.00793164
v 0.02520814 0.87676186 0.00211075
v 0.02528144 0.81325030 0.00219997
v 0.02329009 0.87665289 0.01210525
v 0.02334525 0.81307876 0.01197335
v 0.01877758 0.87673699 0.02105925
v 0.01886588 0.81322499 0.02123858
v 0.01226946 0.87668452 0.02870530
v 0.01227410 0.81335069 0.02858867
v -0.05095419 0.87666643 0.00739572
v -0.04975418 0.87665394 -0.01245168
v -0.05163917 0.87680203 -0.00262316
v -0.04767116 0.87666149 0.01699710
v -0.04533668 0.87670212 -0.02138603
v -0.04207651 0.87681741 0.02531976
v -0.03884865 0.87667298 -0.02904417
v -0.03448530 0.87670903 0.03190429
v -0.03040423 0.87676642 -0.03456880
v -0.02538270 0.87665278 0.03625255
v -0.02077587 0.87674641 -0.03782181
v -0.01545977 0.87682827 0.03817122
v -0.01085196 0.87674068 -0.03865563
v -0.00553494 0.87683411 0.03765066
v -0.00086255 0.87689404 -0.03671720
v 0.00394125 0.87674338 0.03438835
v 0.00805375 0.87664277 -0.03228852
v 0.01224612 0.87682297 0.02875908
v 0.01578682 0.87673959 -0.02573548
v 0.01889966 0.87679952 0.02115072
v 0.02133082 0.87668769 -0.01727078
v 0.02317888 0.87665233 0.01201308
v 0.02450515 0.87670817 -0.00775121
v 0.02533470 0.87681070 0.00226668
vn 0 -1 0
vn 0.44580319993508216 0 0.8951309998696511
vn 0.19893590074948506 0 0.9800125036921677
vn -0.061488589166183126 0 0.9981077864651454
vn -0.31772269316245205 0 0.9481836795946227
vn -0.5523045938531481 0 0.8336423907220103
vn -0.7492477831460909 0 0.6622897851021623
vn -0.8951309998696511 0 0.44580319993508216
vn -0.9800125036921677 0 0.19893590074948506
vn -0.9981077864651454 0 -0.061488589166183126
vn -0.9481836795946227 0 -0.31772269316245205
vn -0.8336423907220103 0 -0.5523045938531481
vn -0.6622897851021623 0 -0.7492477831460909
vn -0.44580319993508216 0 -0.8951309998696511
vn -0.19893590074948506 0 -0.9800125036921677
vn 0.061488589166183126 0 -0.9981077864651454
vn 0.31772269316245205 0 -0.9481836795946227
vn 0.5523045938531481 0 -0.8336423907220103
vn 0.7492477831460909 0 -0.6622897851021623
vn 0.8951309998696511 0 -0.44580319993508216
vn 0.9800125036921677 0 -0.19893590074948506
vn 0.9981077864651454 0 0.061488589166183126
vn 0.9481836795946227 0 0.31772269316245205
vn 0.8336423907220103 0 0.5523045938531481
vn 0.6622897851021623 0 0.7492477831460909
vn 0 1 0
usemtl material_0_0
f 1//1 2//1 3//1
f 2//1 1//1 4//1
f 4//1 1//1 5//1
f 4//1 5//1 6//1
f 6//1 5//1 7//1
f 6//1 7//1 8//1
f 8//1 7//1 9//1
f 8//1 9//1 10//1
f 10//1 9//1 11//1
f 10//1 11//1 12//1
f 12//1 11//1 13//1
f 12//1 13//1 14//1
f 14//1 13//1 15//1
f 14//1 15//1 16//1
f 16//1 15//1 17//1
f 16//1 17//1 18//1
f 18//1 17//1 19//1
f 18//1 19//1 20//1
f 20//1 19//1 21//1
f 20//1 21//1 22//1
f 22//1 21//1 23//1
f 22//1 23//1 24//1
f 25//2 26//3 27//2
f 26//3 25//2 28//3
f 28//3 29//4 26//3
f 29//4 28//3 30//4
f 30//4 31//5 29//4
f 31//5 30//4 32//5
f 32//5 33//6 31//5
f 33//6 32//5 34//6
f 34//6 35//7 33//6
f 35//7 34//6 36//7
f 37//8 35//7 36//7
f 35//7 37//8 38//8
f 39//9 38//8 37//8
f 38//8 39//9 40//9
f 41//10 40//9 39//9
f 40//9 41//10 42//10
f 43//11 42//10 41//10
f 42//10 43//11 44//11
f 45//12 44//11 43//11
f 44//11 45//12 46//12
f 47//13 46//12 45//12
f 46//12 47//13 48//13
f 47//13 49//14 48//13
f 49//14 47//13 50//14
f 50//14 51//15 49//14
f 51//15 50//14 52//15
f 52//15 53//16 51//15
f 53//16 52//15 54//16
f 54//16 55//17 53//16
f 55//17 54//16 56//17
f 56//17 57//18 55//17
f 57//18 56//17 58//18
f 58//18 59//19 57//18
f 59//19 58//18 60//19
f 59//19 61//20 62//20
f 61//20 59//19 60//19
f 62//20 63//21 64//21
f 63//21 62//20 61//20
f 64//21 65//22 66//22
f 65//22 64//21 63//21
f 66//22 67//23 68//23
f 67//23 66//22 65//22
f 68//23 69//24 70//24
f 69//24 68//23 67//23
f 70//24 71//25 72//25
f 71//25 70//24 69//24
f 71//25 27//2 72//25
f 27//2 71//25 25//2
f 73//26 74//26 75//26
f 74//26 73//26 76//26
f 74//26 76//26 77//26
f 77//26 76//26 78//26
f 77//26 78//26 79//26
f 79//26 78//26 80//26
f 79//26 80//26 81//26
f 81//26 80//26 82//26
f 81//26 82//26 83//26
f 83//26 82//26 84//26
f 83//26 84//26 85//26
f 85//26 84//26 86//26
f 85//26 86//26 87//26
f 87//26 86//26 88//26
f 87//26 88//26 89//26
f 89//26 88//26 90//26
f 89//26 90//26 91//26
f 91//26 90//26 92//26
f 91//26 92//26 93//26
f 93//26 92//26 94//26
f 93//26 94//26 95//26
f 95//26 94//26 96//26
