# SSTK version 0.8.0
# 5
mtllib original_5.mtl
o group_4/ID34#ID34
v -0.24995583 0.48858321 0.08728872
v -0.23071704 0.49077874 0.03901768
v -0.25161139 0.48870435 0.04351667
v -0.22901029 0.49079962 0.07733075
v -0.24672205 0.48863072 0.13091040
v -0.22471785 0.49077637 0.11684385
v -0.20895705 0.49393461 0.03411826
v -0.20714017 0.49388783 0.06637412
v -0.23154578 0.49071143 -0.00019727
v -0.25224822 0.48855844 -0.00015573
v -0.24459960 0.48860109 0.15198178
v -0.22210506 0.49075602 0.13614319
v -0.20182942 0.49392573 0.10139193
v -0.18730249 0.49729359 0.02909459
v -0.18532926 0.49744916 0.05528398
v -0.21036318 0.49389569 -0.00015382
v -0.25147521 0.48872115 -0.04384230
v -0.23061629 0.49079271 -0.03890647
v -0.24263665 0.48851910 0.16502594
v -0.21993787 0.49078125 0.14732227
v -0.19883788 0.49381709 0.11841780
v -0.17867643 0.49749608 0.08561415
v -0.16573903 0.50044086 0.02424535
v -0.16376485 0.50050961 0.04443680
v -0.18903191 0.49720587 -0.00027543
v -0.20919844 0.49397600 -0.03348665
v -0.24960827 0.48851915 -0.08771908
v -0.22884241 0.49086844 -0.07774686
v -0.23909754 0.48848995 0.17741373
v -0.21633365 0.49082983 0.15818424
v -0.19614951 0.49406310 0.12813325
v -0.17520108 0.49740931 0.10038696
v -0.15592788 0.50051989 0.07036331
v -0.14470758 0.50282997 0.01968125
v -0.14282507 0.50267560 0.03462849
v -0.16778178 0.50053095 -0.00020072
v -0.18724923 0.49731023 -0.02777124
v -0.20724297 0.49373513 -0.06663114
v -0.24680569 0.48852499 -0.13113310
v -0.22467418 0.49062343 -0.11714222
v -0.23431708 0.48871116 0.18935231
v -0.21186455 0.49079592 0.16883151
v -0.19261356 0.49391911 0.13721709
v -0.17217136 0.49749737 0.10827623
v -0.15174855 0.50048299 0.08291189
v -0.13374667 0.50284729 0.05640873
v -0.14732137 0.50283937 -0.00015696
v -0.16593752 0.50049349 -0.02267185
v -0.18538930 0.49748605 -0.05583797
v -0.20174629 0.49382545 -0.10185592
v -0.24478499 0.48850657 -0.15226029
v -0.22223922 0.49077906 -0.13615054
v -0.22829451 0.48869097 0.20083011
v -0.20614471 0.49071921 0.17887523
v -0.18827874 0.49384819 0.14636982
v -0.16898853 0.49729497 0.11595831
v -0.14855076 0.50058766 0.08916488
v -0.12947744 0.50272625 0.06677545
v -0.14514906 0.50272782 -0.01755122
v -0.16369068 0.50043476 -0.04488180
v -0.17853676 0.49734284 -0.08602823
v -0.19864025 0.49395872 -0.11880809
v -0.24269113 0.48850859 -0.16521466
v -0.21982255 0.49077094 -0.14770080
v -0.22093671 0.48846321 0.21138525
v -0.19970577 0.49073284 0.18842038
v -0.18318525 0.49398720 0.15516390
v -0.16465501 0.49747918 0.12344438
v -0.14512244 0.50036825 0.09523438
v -0.12589261 0.50275488 0.07138938
v -0.14264735 0.50267855 -0.03479939
v -0.15579796 0.50041509 -0.07072583
v -0.17516033 0.49740321 -0.10078687
v -0.19621263 0.49392778 -0.12835924
v -0.23918590 0.48865506 -0.17777366
v -0.21653822 0.49077326 -0.15853557
v -0.21236562 0.48853528 0.22096902
v -0.19195841 0.49071801 0.19691121
v -0.17736865 0.49406368 0.16341391
v -0.16013124 0.49738063 0.13079509
v -0.14126349 0.50060315 0.10114600
v -0.12243463 0.50269312 0.07598996
v -0.13371408 0.50276404 -0.05652740
v -0.15184383 0.50045011 -0.08333896
v -0.17224299 0.49739165 -0.10872138
v -0.19285306 0.49375167 -0.13753437
v -0.23448074 0.48845378 -0.18985067
v -0.21192306 0.49087542 -0.16925724
v -0.20266428 0.48842380 0.22964949
v -0.18312906 0.49087676 0.20468490
v -0.17073717 0.49380797 0.17095436
v -0.15521354 0.49737044 0.13782767
v -0.13715901 0.50052056 0.10724042
v -0.11869202 0.50258634 0.08063284
v -0.12927996 0.50278929 -0.06729216
v -0.14869977 0.50039753 -0.08938579
v -0.16877444 0.49732824 -0.11627392
v -0.18830926 0.49399653 -0.14691556
v -0.22829887 0.48857088 -0.20108744
v -0.20617413 0.49086122 -0.17931947
v -0.19210393 0.48844618 0.23680520
v -0.17391140 0.49092997 0.21151059
v -0.16305327 0.49410366 0.17768788
v -0.14945753 0.49721534 0.14447905
v -0.13296714 0.50058176 0.11302835
v -0.11515205 0.50284413 0.08529962
v -0.12582193 0.50275898 -0.07165953
v -0.14506795 0.50051953 -0.09530882
v -0.16483005 0.49740270 -0.12390146
v -0.18329371 0.49393826 -0.15550405
v -0.22073576 0.48858418 -0.21167321
v -0.19960510 0.49070226 -0.18857435
v -0.18079215 0.48852578 0.24301681
v -0.16383425 0.49088594 0.21714570
v -0.15491939 0.49412800 0.18366516
v -0.14281084 0.49726991 0.15000417
v -0.12845855 0.50057246 0.11863146
v -0.11152283 0.50260933 0.08995380
v -0.12246001 0.50271665 -0.07629066
v -0.14136731 0.50047012 -0.10147370
v -0.16003997 0.49746685 -0.13107954
v -0.17730763 0.49398557 -0.16360324
v -0.21221694 0.48856870 -0.22136913
v -0.19192884 0.49077955 -0.19736886
v -0.16870898 0.48851771 0.24801834
v -0.15320895 0.49101637 0.22168520
v -0.14610942 0.49393569 0.18874214
v -0.13580043 0.49715223 0.15506288
v -0.12266040 0.50047259 0.12301133
v -0.10812789 0.50274469 0.09468582
v -0.11869037 0.50269388 -0.08102627
v -0.13728844 0.50048358 -0.10755745
v -0.15503470 0.49736979 -0.13809036
v -0.17091036 0.49400768 -0.17141073
v -0.20256865 0.48871672 -0.22976483
v -0.18317944 0.49074163 -0.20512667
v -0.15638740 0.48857158 0.25146173
v -0.14228239 0.49100059 0.22529618
v -0.13702091 0.49399614 0.19303847
v -0.12859331 0.49740431 0.15979383
v -0.11681698 0.50037223 0.12738373
v -0.10333198 0.50251829 0.09830887
v -0.11517665 0.50259900 -0.08565098
v -0.13291028 0.50030779 -0.11319542
v -0.14942152 0.49737805 -0.14484898
v -0.16317874 0.49389952 -0.17806386
v -0.19198049 0.48871216 -0.23726786
v -0.17392475 0.49085053 -0.21190010
v -0.14354299 0.48865978 0.25350207
v -0.13119421 0.49085543 0.22752018
v -0.12779186 0.49393361 0.19659186
v -0.12094711 0.49720737 0.16380071
v -0.11086715 0.50039938 0.13145014
v -0.09871251 0.50274375 0.10185155
v -0.11163371 0.50277918 -0.09023193
v -0.12842733 0.50043534 -0.11884137
v -0.14278069 0.49727697 -0.15039637
v -0.15481283 0.49393189 -0.18411283
v -0.18073971 0.48853806 -0.24354963
v -0.16380363 0.49090709 -0.21739645
v -0.12220668 0.48854967 0.25538678
v -0.11214163 0.49096363 0.22996001
v -0.11850044 0.49391272 0.19919165
v -0.11305219 0.49713135 0.16723200
v -0.10482389 0.50024997 0.13533076
v -0.09384915 0.50278705 0.10537525
v -0.10803962 0.50277366 -0.09501460
v -0.12262593 0.50058634 -0.12337643
v -0.13575584 0.49744993 -0.15550004
v -0.14627965 0.49410041 -0.18923414
v -0.16883316 0.48855351 -0.24835030
v -0.15321412 0.49084988 -0.22208752
v -0.07874066 0.48844242 0.25852004
v -0.07278368 0.49109594 0.23409524
v -0.10143715 0.49401113 0.20224553
v -0.10538295 0.49738392 0.17010587
v -0.09865085 0.50036364 0.13874951
v -0.08910734 0.50267830 0.10913190
v -0.10318046 0.50264121 -0.09870503
v -0.11684735 0.50049701 -0.12773193
v -0.12844006 0.49739512 -0.16021062
v -0.13706939 0.49398382 -0.19338547
v -0.15631151 0.48857053 -0.25178640
v -0.14231836 0.49099525 -0.22558550
v -0.03497769 0.48857732 0.26040330
v -0.03413385 0.49120290 0.23594850
v -0.06658319 0.49426649 0.20746248
v -0.09065496 0.49721805 0.17372724
v -0.09272597 0.50011375 0.14197564
v -0.08473217 0.50277926 0.11254057
v -0.09865526 0.50271569 -0.10223754
v -0.11088194 0.50025301 -0.13168094
v -0.12081098 0.49731317 -0.16400021
v -0.12783657 0.49402552 -0.19693891
v -0.14364925 0.48852159 -0.25378901
v -0.13101123 0.49093390 -0.22772963
v 0.00846830 0.48848931 0.26106337
v 0.00431791 0.49135928 0.23698400
v -0.03329639 0.49400660 0.20940314
v -0.06013943 0.49718512 0.18023198
v -0.07973308 0.50017626 0.14586951
v -0.08027753 0.50264080 0.11584496
v -0.09404677 0.50270390 -0.10567708
v -0.10489935 0.50028560 -0.13564912
v -0.11321079 0.49734543 -0.16756478
v -0.11828164 0.49408511 -0.19945360
v -0.12223965 0.48862377 -0.25576051
v -0.11201080 0.49111267 -0.23037178
v 0.04281657 0.49145391 0.23596007
v 0.05229427 0.48866554 0.26035533
v 0.00006777 0.49403787 0.21093187
v -0.03243622 0.49697397 0.18231919
v -0.05379134 0.49998278 0.15366162
v -0.06960482 0.50263855 0.12031238
v -0.08945981 0.50269860 -0.10930728
v -0.09857900 0.50023803 -0.13914357
v -0.10533625 0.49719603 -0.17055100
v -0.10124591 0.49416393 -0.20247642
v -0.07862832 0.48862747 -0.25883320
v -0.07266888 0.49130017 -0.23441754
v 0.08115662 0.49159930 0.23425805
v 0.09600605 0.48864164 0.25847733
v 0.03303662 0.49423691 0.20958594
v -0.00458145 0.49708930 0.18402108
v -0.03146364 0.50000477 0.15583240
v -0.04793416 0.50285561 0.12934457
v -0.08487255 0.50264966 -0.11285830
v -0.09262458 0.50019292 -0.14221147
v -0.09063121 0.49740501 -0.17401840
v -0.06650176 0.49419250 -0.20794122
v -0.03516405 0.48864695 -0.26065628
v -0.03427690 0.49130847 -0.23632717
v 0.12053328 0.49160782 0.22994607
v 0.13955827 0.48844261 0.25554503
v 0.06631674 0.49445669 0.20751518
v 0.02346096 0.49699418 0.18248520
v -0.00874113 0.49987090 0.15786481
v -0.03058658 0.50284692 0.13147088
v -0.08029562 0.50255960 -0.11643556
v -0.07989261 0.50022568 -0.14622098
v -0.06013681 0.49735734 -0.18074527
v -0.03327025 0.49404517 -0.20996405
v 0.00854325 0.48853035 -0.26132584
v 0.00426316 0.49148812 -0.23721682
v 0.13991452 0.49185606 0.22740814
v 0.16082371 0.48850314 0.25330274
v 0.10100441 0.49447352 0.20210938
v 0.05111280 0.49704581 0.18035457
v 0.01345047 0.49963980 0.15605681
v -0.01328687 0.50268801 0.13395991
v -0.06969049 0.50282146 -0.12053772
v -0.05378810 0.50012627 -0.15416034
v -0.03231503 0.49702926 -0.18282586
v -0.00009951 0.49414934 -0.21121213
v 0.04286193 0.49164250 -0.23631824
v 0.05224191 0.48866712 -0.26071898
v 0.15082396 0.49173117 0.22523549
v 0.17347152 0.48851346 0.25145098
v 0.11812417 0.49437895 0.19915205
v 0.08144175 0.49690857 0.17364731
v 0.03622549 0.49969246 0.15388448
v 0.00409307 0.50274846 0.13170548
v -0.04790708 0.50273412 -0.12982623
v -0.03131247 0.49998101 -0.15624020
v -0.00460268 0.49696133 -0.18442157
v 0.03308568 0.49435548 -0.20983997
v 0.08129593 0.49175567 -0.23452897
v 0.09588605 0.48849077 -0.25881119
v 0.16187490 0.49178046 0.22174481
v 0.18603511 0.48854580 0.24793482
v 0.12763626 0.49434247 0.19667860
v 0.09637910 0.49687342 0.17026019
v 0.06221456 0.49959304 0.14594141
v 0.02145804 0.50271755 0.12948672
v -0.03052774 0.50271002 -0.13200687
v -0.00889821 0.49977849 -0.15818549
v 0.02325466 0.49694938 -0.18276669
v 0.06639573 0.49445245 -0.20770861
v 0.12057390 0.49174072 -0.23019518
v 0.13952513 0.48870132 -0.25582746
v 0.17246637 0.49185879 0.21713691
v 0.19789887 0.48859360 0.24305645
v 0.13688215 0.49458075 0.19324114
v 0.10426758 0.49674684 0.16732946
v 0.07482176 0.49957432 0.14201936
v 0.04308043 0.50272946 0.12024753
v -0.01312729 0.50264540 -0.13434167
v 0.01342269 0.49978282 -0.15624737
v 0.05118632 0.49686088 -0.18076841
v 0.10129461 0.49435860 -0.20261942
v 0.13976964 0.49169167 -0.22775208
v 0.16087986 0.48872002 -0.25365225
v 0.18232389 0.49197888 0.21129073
v 0.20925470 0.48860909 0.23699888
v 0.14601041 0.49456795 0.18877168
v 0.11185573 0.49677075 0.16376539
v 0.08094441 0.49931620 0.13884538
v 0.05385021 0.50270411 0.11575851
v 0.00413655 0.50268963 -0.13192579
v 0.03616066 0.49967965 -0.15403804
v 0.08150814 0.49682031 -0.17392858
v 0.11817993 0.49434423 -0.19942167
v 0.15094854 0.49181675 -0.22537128
v 0.17358972 0.48849625 -0.25185323
v 0.19177766 0.49193192 0.20470572
v 0.21978707 0.48842958 0.22955263
v 0.15463810 0.49450850 0.18381633
v 0.11932758 0.49690314 0.15978230
v 0.08720069 0.49944391 0.13508419
v 0.05824512 0.50265541 0.11238028
v 0.02141448 0.50270838 -0.12973580
v 0.06207282 0.49947244 -0.14615308
v 0.09644748 0.49687230 -0.17038597
v 0.12767210 0.49430464 -0.19690890
v 0.16188049 0.49170873 -0.22213171
v 0.18595370 0.48873081 -0.24835578
v 0.20031782 0.49193847 0.19699064
v 0.22958712 0.48845282 0.22089163
v 0.16292669 0.49462581 0.17772875
v 0.12679053 0.49692763 0.15499033
v 0.09310294 0.49944337 0.13143452
v 0.06287784 0.50253141 0.10889291
v 0.04327102 0.50255538 -0.12050855
v 0.07485899 0.49952241 -0.14216850
v 0.10412572 0.49702383 -0.16782800
v 0.13696430 0.49440907 -0.19351048
v 0.17246518 0.49179425 -0.21735632
v 0.19786266 0.48851529 -0.24354734
v 0.20794743 0.49204617 0.18821866
v 0.23798068 0.48860192 0.21121100
v 0.17052148 0.49458974 0.17122456
v 0.13379702 0.49666530 0.15003893
v 0.09903994 0.49942441 0.12716920
v 0.06748252 0.50272297 0.10543242
v 0.05387297 0.50264533 -0.11630989
v 0.08094925 0.49950199 -0.13913921
v 0.11172636 0.49676975 -0.16425949
v 0.14592240 0.49447340 -0.18905324
v 0.18250079 0.49191727 -0.21196902
v 0.20919745 0.48865760 -0.23738091
v 0.21475976 0.49205254 0.17888311
v 0.24544916 0.48849706 0.20072553
v 0.17704256 0.49468492 0.16340112
v 0.14049105 0.49675342 0.14456017
v 0.10491910 0.49939963 0.12309348
v 0.07216184 0.50279572 0.10193928
v 0.05846705 0.50266382 -0.11286301
v 0.08707146 0.49941515 -0.13572867
v 0.11943885 0.49675941 -0.15999671
v 0.15465331 0.49444115 -0.18401219
v 0.19180310 0.49202476 -0.20506809
v 0.21982574 0.48860511 -0.22992330
v 0.22030660 0.49214678 0.16890887
v 0.25167685 0.48852823 0.18930265
v 0.18304269 0.49442669 0.15518294
v 0.14593403 0.49659313 0.13768954
v 0.11059875 0.49924982 0.11853371
v 0.07673761 0.50272288 0.09819960
v 0.06287246 0.50259861 -0.10946761
v 0.09312877 0.49946360 -0.13186726
v 0.12673999 0.49683582 -0.15559659
v 0.16293360 0.49457998 -0.17823146
v 0.20056480 0.49195928 -0.19745652
v 0.22950751 0.48852267 -0.22115692
v 0.22512013 0.49209548 0.15810775
v 0.25649129 0.48853827 0.17737443
v 0.18815916 0.49444893 0.14643039
v 0.15109439 0.49677544 0.13074308
v 0.11517437 0.49926571 0.11297673
v 0.08164423 0.50280668 0.09469481
v 0.06761632 0.50269291 -0.10593421
v 0.09913662 0.49937665 -0.12774552
v 0.13379858 0.49683886 -0.15044437
v 0.17057211 0.49442304 -0.17136780
v 0.20798504 0.49193977 -0.18869613
v 0.23803524 0.48856599 -0.21164839
v 0.22841185 0.49201827 0.14713141
v 0.26010445 0.48855093 0.16477103
v 0.19259588 0.49446242 0.13723812
v 0.15577983 0.49671314 0.12338466
v 0.11951453 0.49922055 0.10702927
v 0.08507831 0.50276589 0.09003726
v 0.07199941 0.50273792 -0.10227977
v 0.10499369 0.49939713 -0.12337345
v 0.14056174 0.49678929 -0.14483777
v 0.17711968 0.49446560 -0.16382238
v 0.21474400 0.49203244 -0.17928039
v 0.24559546 0.48857381 -0.20094653
v 0.23067099 0.49201886 0.13614074
v 0.26190926 0.48867959 0.15200258
v 0.19615621 0.49465787 0.12807771
v 0.15975332 0.49678651 0.11603455
v 0.12359042 0.49925229 0.10112352
v 0.08862717 0.50280091 0.08527204
v 0.07671308 0.50269144 -0.09852751
v 0.11066721 0.49927858 -0.11883701
v 0.14600609 0.49663620 -0.13833787
v 0.18298172 0.49461201 -0.15546074
v 0.22036800 0.49202306 -0.16923987
v 0.25175345 0.48861920 -0.18974501
v 0.23302843 0.49190182 0.11673471
v 0.26403028 0.48851416 0.13090776
v 0.19865023 0.49460580 0.11853960
v 0.16314564 0.49664537 0.10823127
v 0.12757647 0.49922483 0.09521799
v 0.09217695 0.50266732 0.08064769
v 0.08148643 0.50267663 -0.09513176
v 0.11500766 0.49927375 -0.11330095
v 0.15112001 0.49676590 -0.13116777
v 0.18802497 0.49458792 -0.14672697
v 0.22502222 0.49200564 -0.15846665
v 0.25647953 0.48853565 -0.17766965
v 0.23746799 0.49187679 0.07713162
v 0.26700486 0.48853747 0.08728531
v 0.20158916 0.49452199 0.10133305
v 0.16619746 0.49686771 0.10055428
v 0.13100303 0.49925870 0.08906756
v 0.09603986 0.50270504 0.07589141
v 0.08510847 0.50267443 -0.09041816
v 0.11944547 0.49935538 -0.10747647
v 0.15586841 0.49667618 -0.12390568
v 0.19262658 0.49461640 -0.13771476
v 0.22827814 0.49197462 -0.14767062
v 0.25997939 0.48864360 -0.16520644
v 0.23926987 0.49203536 0.03868705
v 0.26885278 0.48856588 0.04354758
v 0.20699768 0.49451763 0.06638086
v 0.16959086 0.49683845 0.08563697
v 0.13410389 0.49929413 0.08292844
v 0.09935607 0.50277583 0.07144665
v 0.08877745 0.50254522 -0.08569663
v 0.12350882 0.49923632 -0.10152271
v 0.15992423 0.49680060 -0.11636582
v 0.19604163 0.49463503 -0.12831239
v 0.23059950 0.49202760 -0.13631554
v 0.26189615 0.48862105 -0.15241928
v 0.24004554 0.49200947 -0.00029047
v 0.26943275 0.48865828 -0.00008983
v 0.20890164 0.49466424 0.03308259
v 0.17621328 0.49667406 0.05515993
v 0.13794530 0.49914729 0.07037258
v 0.10284697 0.50274682 0.06693060
v 0.09234959 0.50266820 -0.08108835
v 0.12743637 0.49926727 -0.09563856
v 0.16332286 0.49684962 -0.10865682
v 0.19858813 0.49455096 -0.11873975
v 0.23318100 0.49205018 -0.11694842
v 0.26393491 0.48857379 -0.13119417
v 0.26887267 0.48851862 -0.04395358
v 0.23923488 0.49204979 -0.03875300
v 0.21018031 0.49462645 -0.00017841
v 0.17850668 0.49672517 0.02774695
v 0.14591591 0.49927162 0.04445029
v 0.10717849 0.50276273 0.05620487
v 0.09595040 0.50284867 -0.07646776
v 0.13090379 0.49928190 -0.08952239
v 0.16615041 0.49685379 -0.10082799
v 0.20152991 0.49445428 -0.10186035
v 0.23736944 0.49201750 -0.07759211
v 0.26691668 0.48859470 -0.08756452
v 0.20888412 0.49453167 -0.03349295
v 0.17998605 0.49674529 -0.00022042
v 0.14826441 0.49924098 0.02223961
v 0.11619672 0.50271031 0.03448226
v 0.09950649 0.50267474 -0.07184949
v 0.13421542 0.49930164 -0.08325380
v 0.16960467 0.49682172 -0.08596615
v 0.20697060 0.49450888 -0.06685702
v 0.17852182 0.49663257 -0.02792072
v 0.15005019 0.49931596 -0.00011719
v 0.11850330 0.50276407 0.01702961
v 0.10291883 0.50273127 -0.06721109
v 0.13819428 0.49933556 -0.07068989
v 0.17638598 0.49667679 -0.05569282
v 0.14812809 0.49924864 -0.02243988
v 0.12091645 0.50269404 -0.00009482
v 0.10724740 0.50263972 -0.05653183
v 0.14585269 0.49910371 -0.04476586
v 0.11856353 0.50276830 -0.01735360
v 0.11631975 0.50282811 -0.03505744
vn -0.0999429141623366 0.9949678414375656 0.007099888295690268
vn -0.12357129512188067 0.9923248608268321 0.004637413816932964
vn -0.10510209982575718 0.9944553983513487 0.003465443994255057
vn -0.1172510971113932 0.9930555755350086 0.009633489762668845
vn -0.09323813536618142 0.9955954505201527 0.009815753512169562
vn -0.10962739694142702 0.9938791722710556 0.013639089619473525
vn -0.14745740673789137 0.9890415451930809 0.007289381333079857
vn -0.13868270508185976 0.9902255362856155 0.014849060544126061
vn -0.12499009797072021 0.9921579838917947 0.00010202469834379582
vn -0.10652380549193802 0.9943101512626233 0.00004426753228247631
vn -0.08699595351317181 0.996116240226325 0.013569820547992502
vn -0.10186649781997383 0.9946385787139228 0.017813319618780646
vn -0.12839980387267733 0.9914913299044535 0.02141105064578072
vn -0.14697070035582097 0.989092502394626 0.00977931202367626
vn -0.13687939476593078 0.990402762128437 0.01914157926805403
vn -0.14935360423528493 0.9887838280393717 0.00020569330583315382
vn -0.1052410023460071 0.994440622167831 -0.0034900440777990015
vn -0.12367520232675602 0.992311918668801 -0.004636852087234919
vn -0.08002054373369961 0.9965930465002971 0.01997529093203258
vn -0.09373959136880611 0.995292314533477 0.024619050359493005
vn -0.11883840332043713 0.9925530277327012 0.02675670074760319
vn -0.12455649986703128 0.9918285989411858 0.02759906997053718
vn -0.12239780594331397 0.9924196481892752 0.011046220536375497
vn -0.1132403043900697 0.9933540385100824 0.020600670798641495
vn -0.14937340384614609 0.9887808254596563 0.00025578650658634696
vn -0.14750709353244387 0.9890343566350671 -0.0072593906817064995
vn -0.09998342470329673 0.9949635468038458 -0.007131291335461174
vn -0.1172921949294542 0.9930499570704147 -0.00971204258014783
vn -0.07327341945526339 0.996954992588337 0.026678619801663344
vn -0.08577408916383335 0.9958015902924521 0.03196870968835402
vn -0.1090466986753429 0.993425787932248 0.03484280957674326
vn -0.11416290145056628 0.9928946126158272 0.03357261042657748
vn -0.10015619589591881 0.9945375592470257 0.029390128795686567
vn -0.10367520016393951 0.9945484015726594 0.011177200017674502
vn -0.09458594858786563 0.9953276851401138 0.019398389710389208
vn -0.12548679608841817 0.9920952690751382 0.0002026972936818898
vn -0.14701070535190355 0.9890871360075748 -0.009720591353876509
vn -0.13866760551179877 0.9902251393597459 -0.01501561059684447
vn -0.09323013911900398 0.9955961905919235 -0.009816640907235554
vn -0.10962239781238872 0.9938796801662577 -0.0136422597277565
vn -0.06732518172344573 0.9971915255269341 0.03280825083985298
vn -0.07868038062060548 0.9961532078573355 0.03857699030428309
vn -0.10020709508992073 0.9940774512908833 0.04205423793937127
vn -0.10366840031081112 0.9937284029793249 0.041913290125661626
vn -0.09074864637335492 0.9952503602261855 0.03523355859193941
vn -0.08283732005963532 0.9961474007171353 0.028780800020719772
vn -0.10547459871785263 0.9944219879118238 0.00013777809832539266
vn -0.12248200447195243 0.9924099362339761 -0.01098531040108552
vn -0.1368248061371556 0.9904062444237959 -0.019350540867951172
vn -0.12839899960199844 0.9914912969266497 -0.021417399933611733
vn -0.08699372729184822 0.9961164689904699 -0.013567299577643962
vn -0.10186969943710093 0.9946382945039499 -0.01781087990158261
vn -0.06192433809350386 0.9973329692946019 0.038630618810659684
vn -0.07219416119928276 0.9963869165518878 0.0447338307431145
vn -0.09220866426788565 0.9945578460331922 0.048500032244828226
vn -0.09595410152072581 0.9942624157575393 0.047276410749259055
vn -0.08060231311822724 0.9958358385254756 0.04259401164781655
vn -0.07310680293168845 0.9967525399712174 0.03376047135384391
vn -0.10376389970029405 0.9945396971274262 -0.011128519967856772
vn -0.11318880259301041 0.9933564227565226 -0.02076806047576943
vn -0.12455660029779103 0.9918284023712722 -0.027605680065999685
vn -0.11885019785856767 0.9925516821162917 -0.02675422951794444
vn -0.08004591642885373 0.9965913555383501 -0.019957989109599592
vn -0.09378260001326075 0.9952891001407328 -0.024585180003476096
vn -0.056855477715658784 0.9973971599265448 0.0443436582183593
vn -0.0660989425864474 0.9965267389940277 0.05064966198191826
vn -0.08481699323218501 0.9949086379137325 0.05443234207429446
vn -0.08902906072530448 0.9946616081033376 0.05217386042505172
vn -0.07564543114257706 0.9961194150457626 0.044987550679509124
vn -0.06440618038465687 0.9970956059550136 0.04064722024276004
vn -0.09458221541824076 0.9953257517843505 -0.01951543905463132
vn -0.10015370132782395 0.9945377131854437 -0.029393420389693687
vn -0.11417599679519957 0.9928931721305305 -0.03357067905770604
vn -0.1091160035409237 0.9934202322374823 -0.034784191128781644
vn -0.07329212283172767 0.9969535385184767 -0.026681581030874153
vn -0.08579864834541806 0.9957997807965234 -0.031959169383683955
vn -0.051399138770451276 0.9974127761403082 0.05025815879774554
vn -0.059008080054628154 0.9966247009226494 0.05707234005283632
vn -0.0778547233420867 0.9951558427192723 0.060029082576881755
vn -0.08269625068994794 0.994955908301075 0.05678090047373229
vn -0.07144184001410359 0.9963166001966862 0.0474267400093629
vn -0.06125489854435447 0.9972667763012109 0.041313609018234325
vn -0.08283241926866311 0.9961477912048973 -0.028781389745885597
vn -0.09075521990905244 0.995249799002641 -0.03523247996469263
vn -0.10373720144259066 0.9937238138189259 -0.041851820581999724
vn -0.10025129646825616 0.9940742649798477 -0.042024198519533096
vn -0.06732985980109132 0.9971907970540573 -0.03282078990303923
vn -0.07868029063853003 0.9961524080842766 -0.03859782031324045
vn -0.04569474160008531 0.9973855349252866 0.05598290196034437
vn -0.05188847103085812 0.9966492198002355 0.06322910125616042
vn -0.06861673266702366 0.9953846386890234 0.06709072260771029
vn -0.07681675165814097 0.9951641214812833 0.06121730132141663
vn -0.06784621845741433 0.9964430773443702 0.04998083886361079
vn -0.05882828825988223 0.9973709704981567 0.04231287874840181
vn -0.07310782671090321 0.9967524551564388 -0.03376075848111449
vn -0.08064256696020602 0.9958342624623682 -0.04255464839591687
vn -0.09600914002026095 0.9942589002098198 -0.0472385900099686
vn -0.09219733985152108 0.9945572983983183 -0.04853277992184031
vn -0.061925277777234666 0.9973326642014286 -0.0386369886131516
vn -0.07219348670802855 0.9963864545654891 -0.04474520795965025
vn -0.04009003038848554 0.9973045096642078 0.06145327059550257
vn -0.045447791781278134 0.9966149390612684 0.06850665268504602
vn -0.05941367116136727 0.9955123194594173 0.0736562114397684
vn -0.06728704937233425 0.9953754907149576 0.06855716936048656
vn -0.06476175014273677 0.9965084021963333 0.05269649011614481
vn -0.057017679705013674 0.9974182948397626 0.04365465977414873
vn -0.06443342096225528 0.9970947148907141 -0.04062590060671112
vn -0.07569143328224309 0.9961169431950857 -0.04496490194983389
vn -0.08901494427425571 0.9946611477609251 -0.05220671250682423
vn -0.08481225119702573 0.9949080140419629 -0.0544511307685138
vn -0.056854668009897476 0.997396965087788 -0.044349078447634485
vn -0.06609514900390895 0.9965264849817856 -0.05065960923653099
vn -0.034234731673140686 0.9971528487334622 0.06718764328363572
vn -0.03884856809413698 0.9965042511127259 0.07395989637161858
vn -0.052436147687030185 0.9955647560854233 0.07811060655452447
vn -0.05755588882478436 0.9955029796731371 0.07524052846368748
vn -0.05715816243818914 0.9965573425100316 0.06005337256169001
vn -0.05575129036935073 0.9974144066078424 0.04534639030041878
vn -0.06127847816203373 0.9972657700883425 -0.04130292876117348
vn -0.07143344035572112 0.9963161049614113 -0.04744979023628816
vn -0.0826892724990088 0.9949553300692225 -0.05680119171662727
vn -0.07784498064124966 0.9951555081976144 -0.06004726049464035
vn -0.05137566185922286 0.9974127360951568 -0.050282951819678796
vn -0.058980738952986826 0.9966248823081333 -0.05709742898641871
vn -0.02789639943971664 0.9969191799774438 0.07330715852766752
vn -0.03184605136752994 0.9963079427833555 0.07972648342360686
vn -0.045506831631124484 0.9955409356836794 0.08262792296167483
vn -0.05184574040286376 0.9955504077358558 0.07868548061142033
vn -0.048633047991182066 0.9966112588343595 0.06633871725983874
vn -0.049415167569585985 0.9974347509426048 0.05178859745285246
vn -0.05882587008686996 0.9973704014728473 -0.042329650062509265
vn -0.06783793311607819 0.9964427457707562 -0.049998692296647496
vn -0.07680120824774715 0.995163877294905 -0.06124076860276511
vn -0.06858663846572352 0.9953846777333409 -0.06712090849851154
vn -0.04567619072933055 0.9973851159256591 -0.056005500894262684
vn -0.051870850295142316 0.9966485056708758 -0.0632548103599162
vn -0.02083687018046661 0.9965844086313449 0.07990833069208045
vn -0.024226279835113985 0.9960085932210853 0.08590674941531196
vn -0.038370721638370686 0.9954368425036194 0.08736807373048236
vn -0.046326540659604655 0.9955328141745546 0.08226948117136619
vn -0.04578773847368955 0.9965794667795416 0.06879570770673107
vn -0.04246432110582697 0.9973789259730637 0.058583781525599225
vn -0.05700868152389866 0.9974181266619768 -0.043670251167348954
vn -0.06474045255273429 0.9965083392926045 -0.05272384207891573
vn -0.06725598201033242 0.995375429752528 -0.06858853205016312
vn -0.05939400722816743 0.9955116535409083 -0.07368106656141077
vn -0.040094639369692354 0.9973039843218859 -0.061458789033837086
vn -0.045452788999166084 0.9966143780553517 -0.06851149849143161
vn -0.014258339954779282 0.9961494968406845 0.08650363972565156
vn -0.017252700259000584 0.9956102149462763 0.09199263138100985
vn -0.030915571530530317 0.9952417492712117 0.09240177457451429
vn -0.04071611064049201 0.9954472156590592 0.0861802713556743
vn -0.04325212144541658 0.996495033301267 0.07160239239283743
vn -0.041472980275047804 0.9973026066140868 0.06055991040163208
vn -0.05572675210375157 0.9974145376535922 -0.0453736617129098
vn -0.05712889176861025 0.9965573308516664 -0.06008141186001487
vn -0.05753571003375999 0.995502400584127 -0.07526362004416191
vn -0.05243746142308011 0.9955641270182323 -0.07811774212000717
vn -0.03423723069893789 0.9971523203564227 -0.06719421137173982
vn -0.0388474692139592 0.9965039798367099 -0.07396412850340749
vn -0.01050547018935898 0.995594717945394 0.09317077167938458
vn -0.013158489859537895 0.9951026893776398 0.0979667889542403
vn -0.022974709254519103 0.9949465677160808 0.09774195682847972
vn -0.03503422111159695 0.9952867315793432 0.09042635286912803
vn -0.040792078242660394 0.9963532570766895 0.07494126677149945
vn -0.04083895922121843 0.9971771809842556 0.06300673879848853
vn -0.04938860115174831 0.9974346232602992 -0.051816391208364454
vn -0.04861764116690651 0.9966108239203638 -0.06635654159267024
vn -0.05183758799544079 0.9955497615020968 -0.07869902695670888
vn -0.045489978522005314 0.9955409676543207 -0.08263681731508365
vn -0.027899219923116555 0.9969187972527349 -0.07331128979797175
vn -0.03185579075526668 0.9963079236213938 -0.07972283189014273
vn -0.007946961399314416 0.9948004499861695 0.1015328051017631
vn -0.009751016673939395 0.9945073667450396 0.10421139651531425
vn -0.01791559071414862 0.9945657396452321 0.10255740408812827
vn -0.027137338840578708 0.9950175574886635 0.09593552590123093
vn -0.038523109069797404 0.9961474759464126 0.07877928809774726
vn -0.040399099839334436 0.9969969960349838 0.06606740973725284
vn -0.042454180874946644 0.997378520555172 -0.05859803120765824
vn -0.045774890549831054 0.9965788119705361 -0.06881374082656498
vn -0.04628549877805687 0.9955326737178093 -0.08229427782742024
vn -0.03839607832240587 0.9954374565075367 -0.08734993618352305
vn -0.020841180264302067 0.9965842126384046 -0.0799096510133918
vn -0.024238049255151852 0.9960088693921175 -0.08590022736024008
vn -0.004692727119328551 0.9939495252745479 0.10973750279044954
vn -0.005784244904583473 0.9940102836028711 0.1091333981997428
vn -0.012554730205784442 0.9942216162962754 0.10661030174744848
vn -0.021629669062337008 0.9946333568818696 0.10117629561392903
vn -0.03140656915316931 0.995821973149165 0.08574511768801267
vn -0.040261931303271194 0.996751632264664 0.06975070225781742
vn -0.04146092129442623 0.9973020311361608 -0.06057764189125753
vn -0.043205389040017514 0.9964943778588465 -0.07163971840823365
vn -0.04076488986438422 0.995447896688365 -0.08614933971339998
vn -0.03095323910859387 0.9952425713385301 -0.09238030733958766
vn -0.014257540382138974 0.9961492266993767 -0.08650688231860805
vn -0.017251379452857787 0.9956099684233808 -0.09199554708228254
vn -0.0009966396726735847 0.9933320727642745 0.11528399683908012
vn -0.0017632289870830812 0.9938157927195855 0.1110272991866455
vn -0.006592589797514052 0.9940887694673849 0.10836999667150532
vn -0.014075309790042503 0.9942627851688575 0.10603489841830702
vn -0.025967270205677517 0.9953241078836085 0.09303559073690207
vn -0.03419563158592806 0.9964238462122342 0.07726692358349252
vn -0.04079974086472741 0.9971764211345896 -0.06304416133618508
vn -0.040849960583728195 0.9963531142374533 -0.07491163107045447
vn -0.03510767935683799 0.995287481766636 -0.09038959834408981
vn -0.02297112930635415 0.9949461699561885 -0.09774684704839501
vn -0.010505509807368018 0.9955949817444905 -0.09316794829164608
vn -0.013159480124434617 0.9951029094095852 -0.09796442092634071
vn 0.002117627942364747 0.9938539729503828 0.11067879698766725
vn 0.002794211014687781 0.9929722052195622 0.11831480062192243
vn -0.0012892619524995264 0.9943771633640113 0.10588859609873062
vn -0.0057781452062118325 0.9940868354772096 0.1084342038698261
vn -0.01686429009127119 0.9946498053831421 0.10191840055159258
vn -0.02853068034100213 0.9958028119019552 0.08696413103940599
vn -0.04044562060147376 0.9969958148264957 -0.06605677098234135
vn -0.03860890960398467 0.9961468897824247 -0.07874468919230787
vn -0.027131460964448954 0.9950170353701241 -0.09594260341049594
vn -0.01791924082882263 0.9945657460018706 -0.10255670474357785
vn -0.007946908096979895 0.9948010121400293 -0.10152730123898566
vn -0.009751606117222403 0.9945076119548074 -0.1042090012526785
vn 0.006532570048807885 0.9942249074283191 0.10711750080032516
vn 0.007199158017836098 0.9930610024603339 0.11737980029081167
vn 0.0035980519966662522 0.9948739990782071 0.10105829990636543
vn 0.0014290250236594026 0.9944451164643564 0.10524670174249881
vn -0.0069758769542312745 0.9939907934784268 0.10924119928326875
vn -0.019309240113254175 0.9949574058357078 0.09842212057727391
vn -0.04035066832747233 0.9967506586848713 -0.06971332711039539
vn -0.03140129998244018 0.9958213994431298 -0.0857537099520457
vn -0.02163647043924209 0.9946333201920557 -0.10117520205395804
vn -0.012556890354081257 0.9942214280352193 -0.10661180300625693
vn -0.004692629897647697 0.9939500783206684 -0.10973249760659265
vn -0.005784285212037089 0.9940104364378781 -0.10913200400049969
vn 0.010162469463523907 0.9947435474875538 0.10189209462112327
vn 0.010678460515953371 0.9934311479998169 0.11393210550488117
vn 0.00854644263071308 0.9956444569787699 0.09283896598848136
vn 0.008150750875415818 0.9949999847914308 0.0995419284785024
vn 0.003317418923000532 0.9939792769290894 0.1095179974580157
vn -0.008669664215949361 0.9939483247578799 0.1095060027276435
vn -0.03419259140696033 0.9964232410009277 -0.07727607317976372
vn -0.025974140863573837 0.9953241330919851 -0.0930334030931228
vn -0.01407895992549498 0.9942625947384213 -0.1060361994388625
vn -0.006592812980137923 0.9940883970051234 -0.10837339967350472
vn -0.0009966696406293076 0.9933326404932745 -0.11527910469936054
vn -0.0017632260859312247 0.9938159484338465 -0.11102590541087255
vn 0.013833389639413022 0.9952111740584052 0.09676443747769752
vn 0.01554121072495651 0.9939265463640532 0.10894260508188555
vn 0.01263720031325375 0.9963687246982111 0.08420015208717245
vn 0.014189680213365138 0.9958798149746879 0.08956588134677029
vn 0.01314663975020057 0.9941622811099129 0.10709119796515933
vn 0.0018837900129948506 0.9935657068538626 0.11324150078116817
vn -0.028536010926904866 0.9958029323456066 -0.08696100282466145
vn -0.01686743996552166 0.9946499979668592 -0.10191599979167566
vn -0.005778298793959322 0.9940864645531918 -0.10843759613336763
vn -0.0012892630284382011 0.9943768219336842 -0.10589180233573137
vn 0.002117645036515183 0.9938541171373219 -0.11067750190844483
vn 0.002794059904899795 0.9929727662026167 -0.11831009597313036
vn 0.020404199439205583 0.9957264726331901 0.09006919752451456
vn 0.024034109940782093 0.9945767975494513 0.10118969975067779
vn 0.015732069828520916 0.996870389134143 0.07747211915555649
vn 0.019252869084623463 0.996627852615387 0.07976371620763899
vn 0.02215446942565722 0.9949858742055231 0.09753096747156202
vn 0.015272829745273494 0.9934524834307928 0.11322059811166076
vn -0.019311190156447854 0.9949579080605612 -0.09841666079731343
vn -0.006975573266280314 0.9939909379438664 -0.10923990417004215
vn 0.0014290229536612345 0.9944447677532521 -0.10524999658707006
vn 0.003598243904477738 0.9948736735891768 -0.10106149731712917
vn 0.006532613657631859 0.9942250478935998 -0.10711619438614071
vn 0.007198877344871762 0.9930615475739297 -0.11737520562301458
vn 0.02814186035516467 0.9962071125726432 0.08233726103913856
vn 0.033011210542656 0.9951192163583039 0.09299465152869624
vn 0.020714600893517083 0.9972792430172922 0.07074614305161042
vn 0.023030869105935516 0.9971610612899416 0.07168958721699133
vn 0.02978258971060499 0.9956487903253614 0.08829769914201864
vn 0.02444408067609179 0.9939663274918284 0.10692720295746895
vn -0.008668997842490667 0.9939488819406777 -0.10950099801044694
vn 0.00331738195697904 0.9939793871097305 -0.10951699857974537
vn 0.008150917709093153 0.9949996644883894 -0.09954511644722731
vn 0.008546853741338975 0.9956441698679362 -0.09284200719023966
vn 0.010162509794596217 0.9947436798943255 -0.10189079794059165
vn 0.010678059671265186 0.9934316694162063 -0.11392759649262407
vn 0.035084188953405 0.9965415702722095 0.07532594775295498
vn 0.04117478102513982 0.9954930247850629 0.08542994212697291
vn 0.02552174037466469 0.9975911146448541 0.06450278094691504
vn 0.028132440411292512 0.9975171145835666 0.06456138094387896
vn 0.035811630091028265 0.9962738025323918 0.07846042019943589
vn 0.03614506046835786 0.9946880128888965 0.09638097124887861
vn 0.0018839571005059982 0.9935662530051177 -0.11323670604099093
vn 0.01314643002817599 0.9941624021307313 -0.10709010022951984
vn 0.014190030391535501 0.9958795274786015 -0.08956902247141466
vn 0.012637789576974843 0.9963684666485247 -0.084203117181466
vn 0.013833400027698724 0.9952113019927195 -0.09676312019374933
vn 0.01554061042662813 0.9939270272857512 -0.1089383029906252
vn 0.04149883115660428 0.9967673277806706 0.0687949219173675
vn 0.0487801715186492 0.9957389309998527 0.07825903243640037
vn 0.029791721256847918 0.9978157420956757 0.05895929248736452
vn 0.031062068789479712 0.9977434611169266 0.05952422768028077
vn 0.04286473090450237 0.996580621029166 0.07063767149054828
vn 0.04309776178169985 0.9952729411454697 0.0870307735979299
vn 0.015272310061387462 0.9934530039932111 -0.11321610045507494
vn 0.022154038966514224 0.9949859535839116 -0.09753025545021397
vn 0.019253420030006314 0.9966276015532367 -0.07976672012431563
vn 0.01573282933988312 0.9968701581733962 -0.07747493674931215
vn 0.020370730167913274 0.9957244082076264 -0.09009959074267895
vn 0.0240116706578097 0.9945743272467773 -0.10121930277294466
vn 0.047576337824460496 0.9969069544140939 0.06255410713956712
vn 0.05601223917915175 0.9958817854055501 0.07128883895527643
vn 0.033729261633269635 0.9979748483248652 0.05393087261149103
vn 0.03371751123102355 0.9979098364336058 0.05512792201271611
vn 0.04434810976896444 0.9967523948073266 0.06721538964983546
vn 0.05234276001600508 0.9956460003044432 0.0771315600235851
vn 0.024443190037048347 0.9939668015065476 -0.10692300016206212
vn 0.029782049328071974 0.995648877536657 -0.08829689800788836
vn 0.023031600803671025 0.9971608347952049 -0.07169250250165772
vn 0.02067229001309099 0.9972774006315386 -0.07078448004482495
vn 0.028129981104336933 0.9962052391093843 -0.08236398323347471
vn 0.03301343887914253 0.9951175662142149 -0.09301151684211448
vn 0.05393349813064163 0.9969832654441289 0.05581707806535615
vn 0.0631760675308294 0.9959544610741603 0.06390223750244803
vn 0.037480110505972705 0.9980816134738678 0.04927813066524344
vn 0.03623409873766958 0.9980291652304701 0.05123353821511648
vn 0.04588077786630432 0.9968716536402641 0.0643572870070504
vn 0.0531144487443391 0.9957890764588838 0.07471927823358678
vn 0.03614363074023192 0.994688420371504 -0.09637730197383454
vn 0.03581100872325096 0.9962738644804281 -0.07845991720271403
vn 0.028101440780363137 0.9975159277005249 -0.06459321179372138
vn 0.025493181150682657 0.9975898450280931 -0.06453370291284978
vn 0.03510166998149745 0.9965414994747097 -0.07531873996029827
vn 0.041187258862125646 0.9954925724976728 -0.08542919763985987
vn 0.059789992074959906 0.9970189346006789 0.048768851692481
vn 0.06994198866937228 0.995961581052096 0.05629073892908389
vn 0.042198969896777974 0.9981592975584231 0.0435575898934549
vn 0.0387078786382257 0.9981094648857065 0.04774092832043598
vn 0.04751991200920887 0.9969462421522925 0.061968122620099805
vn 0.0541146480003688 0.9958754632006541 0.07282627730894148
vn 0.04309607040309705 0.9952733093092417 -0.08702740081400645
vn 0.04284860846417897 0.9965796642796333 -0.07066094746730214
vn 0.03103085870623843 0.9977429584013608 -0.05954892751724174
vn 0.0298129287392526 0.997816057803743 -0.05894322750737245
vn 0.04150450178316669 0.9967673428243262 -0.06879128295549422
vn 0.048783751818111176 0.9957389371099806 -0.07825672291653278
vn 0.0650828977945811 0.9969874662157789 0.04219251857025168
vn 0.07627210043254855 0.9958965056478527 0.04871054027624374
vn 0.04655769922566102 0.9982035833980639 0.03770923937282717
vn 0.043195620628783536 0.9981915145303246 0.04180716060857243
vn 0.0493046086981658 0.9969809736758092 0.059983278416207444
vn 0.055356989334487135 0.9959119880269457 0.07137867914187138
vn 0.052327079086189554 0.9956457826126065 -0.07714500865278308
vn 0.04432377786555217 0.9967525520005645 -0.06722910676252707
vn 0.033730231617597424 0.99790994785667 -0.0551181226432942
vn 0.033736088881377344 0.9979748669091072 -0.053926258211910626
vn 0.04760351166902598 0.9969071349525456 -0.0625305521923825
vn 0.05604342032786258 0.9958825058260651 -0.0712542604168481
vn 0.0704490092748261 0.9968867897384464 0.0354071396355333
vn 0.08261095844488876 0.9957457812555686 0.04081382923169968
vn 0.049802510057854875 0.9982074011596034 0.03319178003855864
vn 0.04762484112944045 0.9982126236729759 0.036103080856197935
vn 0.05521142051531325 0.9971132093065103 0.05212434048650035
vn 0.05684879137294697 0.9959026240519007 0.07032907169850748
vn 0.05310095823812532 0.995788466960022 -0.07473698752024781
vn 0.04588473144159043 0.9968714313193576 -0.06435791202197413
vn 0.03623596026459219 0.9980291072875317 -0.05123335037410175
vn 0.03749858977272795 0.9980816939508106 -0.0492624397014292
vn 0.053958370310905585 0.996983505744572 -0.055788740321451875
vn 0.06320376984260696 0.9959544975198265 -0.06387426984093701
vn 0.07600573791778212 0.9967075726946625 0.02823370922652264
vn 0.08905914997451074 0.9954983997150825 0.03242535999071989
vn 0.05322086964910369 0.998170393418854 0.028695029810807897
vn 0.04976572944631389 0.9982178888939761 0.03293050963362027
vn 0.06166198013467927 0.9970589021777303 0.04551204009940553
vn 0.06420340048512699 0.9959805075257234 0.06245600047192369
vn 0.05411575751759337 0.9958751543170565 -0.07282967665914526
vn 0.04751667210672176 0.9969461442010782 -0.06197218274762794
vn 0.03871706939076253 0.9981094842941187 -0.04773306924888988
vn 0.042220278305940745 0.998159259949555 -0.04353779825307595
vn 0.0597929589056287 0.9970187817518857 -0.04876833910740855
vn 0.0699437673606769 0.9959614624174649 -0.05629062787587692
vn 0.08183878340277904 0.9964350414308246 0.020484670851733423
vn 0.09571238293376035 0.9951351305027196 0.02334977071571358
vn 0.05693527776931132 0.9980879608955361 0.02405818905741538
vn 0.052138218989357055 0.9981916806511347 0.029916129420108434
vn 0.06332989898000793 0.9970346839417482 0.04371684929589616
vn 0.07210075284285555 0.9959573392695323 0.05357667211247108
vn 0.0553521518574575 0.9959119334199127 -0.07138319239541245
vn 0.04930619873665485 0.9969809744549142 -0.05998195846311561
vn 0.04321600065007884 0.9981914150153441 -0.04178847062860493
vn 0.04656530985327726 0.9982033968547587 -0.0377047798811957
vn 0.06508375279727095 0.9969874428500801 -0.042191751813382646
vn 0.07627189845837694 0.9958965798707367 -0.04870933901547675
vn 0.08691171754664419 0.9961194718814038 0.013869069608502236
vn 0.10176460346828957 0.9946921339005924 0.015215920518581501
vn 0.06102052244837508 0.9979525400416455 0.01916308076889579
vn 0.054866891382107257 0.9981313251431149 0.02689762067755632
vn 0.06529020069544536 0.996975210619385 0.04216182044909124
vn 0.0736257985760313 0.9958987807386985 0.05258193898303284
vn 0.05684767225786885 0.9959025395551345 -0.07033117279340464
vn 0.05523488113555938 0.9971133204993903 -0.0520973510710555
vn 0.047641449584950785 0.9982123913036384 -0.03608758968560704
vn 0.04980738927198169 0.9982072854095307 -0.03318793951490252
vn 0.07044846741209568 0.9968869633796423 -0.03540332869946861
vn 0.08260949396013631 0.9957460477341029 -0.040810291956364736
vn 0.09107909331449854 0.995791536238279 0.010188970370791433
vn 0.10646219903858048 0.9942594910212217 0.010670739903636837
vn 0.06538190029130375 0.9977594044454359 0.014190770063226044
vn 0.058001251668030156 0.9980314287019069 0.02385628068607155
vn 0.0676510131832771 0.9968786469075156 0.04069771191500619
vn 0.07547004183881358 0.9957989242624561 0.05185340126339873
vn 0.0642314029643172 0.9959806459650954 -0.06242499288095009
vn 0.061693578882338625 0.9970585819369555 -0.045476219176137485
vn 0.049777821604598996 0.9982177321777674 -0.03291698106108588
vn 0.05322524803863148 0.9981704632170785 -0.028684478942966957
vn 0.07599262361303437 0.9967084473880452 -0.028238131342568758
vn 0.08905237949217194 0.9954989943230902 -0.03242569981508973
vn 0.09557381393034883 0.995396840934401 0.007125668293034066
vn 0.1110428018736411 0.993787216768314 0.007514249126789222
vn 0.06943780145272972 0.9975245208695191 0.01110054023223806
vn 0.062403771646695354 0.9978701263315511 0.018999480501353833
vn 0.07043386816266835 0.9967376739991892 0.039409128971977174
vn 0.0777272694570315 0.995654893044793 0.05128162964176933
vn 0.07214051751107886 0.995957165638466 -0.0535263481532864
vn 0.06335065741080967 0.9970345592504268 -0.04368960821437171
vn 0.05215280957830067 0.9981916919287807 -0.029890309758311483
vn 0.056919962843230434 0.9980885498558959 -0.024069991202328944
vn 0.08183112639077954 0.9964354560515002 -0.020495089096049187
vn 0.09570284035797455 0.9951359037222858 -0.023355930087362167
vn 0.09860861271648351 0.9951200274137022 0.0035316480972905446
vn 0.11457069733661836 0.9934079769066207 0.0037612139125647046
vn 0.07392797963465436 0.9972335950717585 0.007733736961780767
vn 0.0673194103032441 0.997611104493796 0.015497780069810854
vn 0.07604603026133366 0.9965856034247859 0.03215799011051178
vn 0.08039619087028364 0.9954606107757976 0.050937460551394975
vn 0.07365058931653475 0.9958987907582243 -0.052547019512372145
vn 0.06531427945886087 0.9969752917399021 -0.042122589651007465
vn 0.054850378001245176 0.9981315636279576 -0.026922439018942642
vn 0.06100620848411396 0.9979529752028028 -0.01918597952326537
vn 0.08691096314271664 0.9961195360198684 -0.013869190501512295
vn 0.10176190146442472 0.9946924143143175 -0.01521566021896374
vn 0.09960544127461779 0.9950270127330305 -2.651355031719107e-7
vn 0.11563030234050727 0.9932923201055246 -1.639568030981431e-7
vn 0.07715831051433479 0.9970118066460483 0.0037486700249887337
vn 0.07239175296741646 0.9973195408812096 0.010638020436064216
vn 0.08359053160741027 0.9961455191554536 0.026584350511205945
vn 0.08783062669862417 0.9952265625914438 0.042542568400911016
vn 0.07549756963611276 0.9957989952003946 -0.05181194975027376
vn 0.06763786938986135 0.9968780910074955 -0.04073315963255954
vn 0.057972990287512044 0.9980321049496541 -0.023896650118513153
vn 0.06538393778787757 0.997759266242999 -0.014191099519874985
vn 0.09107836002213283 0.9957916002419861 -0.010189270002475862
vn 0.10645969564125013 0.9942597592922977 -0.010670719563111459
vn 0.11456969895865156 0.9934080909707019 -0.003761498965810713
vn 0.09860829574429632 0.995120057052943 -0.0035321468475605724
vn 0.07800071026748646 0.9969533034188345 -2.0245710047291447e-7
vn 0.07686608314946576 0.9970281408516455 0.005147000210890385
vn 0.09016379709001117 0.9957630678622741 0.018066609416909966
vn 0.09649507545728844 0.9947392531705274 0.03438776838112265
vn 0.07771537654109142 0.99565465568601 -0.05130425771658117
vn 0.07039772872544893 0.9967383819540488 -0.03945576928565296
vn 0.06240634838363495 0.9978699741545182 -0.018999009507913063
vn 0.06943948981445817 0.9975243973346217 -0.011101079970337768
vn 0.09557323935315593 0.9953968932631081 -0.007126064951770244
vn 0.11104090312478881 0.9937874279660536 -0.007514376211460945
vn 0.07715903380352433 0.9970117491473033 -0.0037490751848089704
vn 0.07753032952822986 0.9969899939333406 2.0385809898090474e-7
vn 0.09753075787242624 0.99518997829054 0.009200998799286065
vn 0.10562630352633205 0.9941347331891683 0.023221030775233874
vn 0.08036204157586664 0.9954605195205722 -0.05099310099995356
vn 0.07604706000258413 0.9965856000338645 -0.03215566000109245
vn 0.06732126845397446 0.9976109770899735 -0.015497909644091985
vn 0.07392927962696617 0.9972334949681395 -0.007734217960974309
vn 0.07686690839143664 0.9970280791355882 -0.005146630892298272
vn 0.09788252760758313 0.9951979756756546 4.793978885036717e-7
vn 0.11337030447139174 0.9934783391833722 0.012164030479756763
vn 0.08783022743430854 0.995226770927494 -0.04253851875736707
vn 0.08359029637653659 0.9961455568191867 -0.02658367884765325
vn 0.0723932524033167 0.9973194331090863 -0.010637920353158267
vn 0.09753068933242734 0.9951899931881787 -0.009200113937027351
vn 0.11477570373568391 0.9933914323325954 4.156064137476056e-7
vn 0.09649326682953212 0.9947394673159626 -0.03438664887016171
vn 0.09016372896221192 0.9957630885387276 -0.0180658097920616
vn 0.1133695047453673 0.9934784415845525 -0.012163120509117947
vn 0.10562490045008735 0.9941349042361939 -0.0232200900989449
usemtl material_0_0
f 1//1 2//2 3//3
f 2//2 1//1 4//4
f 5//5 4//4 1//1
f 4//4 5//5 6//6
f 4//4 7//7 2//2
f 7//7 4//4 8//8
f 3//3 9//9 10//10
f 9//9 3//3 2//2
f 11//11 6//6 5//5
f 6//6 11//11 12//12
f 6//6 8//8 4//4
f 8//8 6//6 13//13
f 8//8 14//14 7//7
f 14//14 8//8 15//15
f 2//2 16//16 9//9
f 16//16 2//2 7//7
f 9//9 17//17 10//10
f 17//17 9//9 18//18
f 19//19 12//12 11//11
f 12//12 19//19 20//20
f 12//12 13//13 6//6
f 13//13 12//12 21//21
f 13//13 15//15 8//8
f 15//15 13//13 22//22
f 15//15 23//23 14//14
f 23//23 15//15 24//24
f 7//7 25//25 16//16
f 25//25 7//7 14//14
f 16//16 18//18 9//9
f 18//18 16//16 26//26
f 18//18 27//27 17//17
f 27//27 18//18 28//28
f 29//29 20//20 19//19
f 20//20 29//29 30//30
f 20//20 21//21 12//12
f 21//21 20//20 31//31
f 21//21 22//22 13//13
f 22//22 21//21 32//32
f 22//22 24//24 15//15
f 24//24 22//22 33//33
f 24//24 34//34 23//23
f 34//34 24//24 35//35
f 14//14 36//36 25//25
f 36//36 14//14 23//23
f 25//25 26//26 16//16
f 26//26 25//25 37//37
f 26//26 28//28 18//18
f 28//28 26//26 38//38
f 28//28 39//39 27//27
f 39//39 28//28 40//40
f 41//41 30//30 29//29
f 30//30 41//41 42//42
f 30//30 31//31 20//20
f 31//31 30//30 43//43
f 31//31 32//32 21//21
f 32//32 31//31 44//44
f 32//32 33//33 22//22
f 33//33 32//32 45//45
f 33//33 35//35 24//24
f 35//35 33//33 46//46
f 23//23 47//47 36//36
f 47//47 23//23 34//34
f 36//36 37//37 25//25
f 37//37 36//36 48//48
f 37//37 38//38 26//26
f 38//38 37//37 49//49
f 38//38 40//40 28//28
f 40//40 38//38 50//50
f 40//40 51//51 39//39
f 51//51 40//40 52//52
f 53//53 42//42 41//41
f 42//42 53//53 54//54
f 42//42 43//43 30//30
f 43//43 42//42 55//55
f 43//43 44//44 31//31
f 44//44 43//43 56//56
f 44//44 45//45 32//32
f 45//45 44//44 57//57
f 45//45 46//46 33//33
f 46//46 45//45 58//58
f 47//47 48//48 36//36
f 48//48 47//47 59//59
f 48//48 49//49 37//37
f 49//49 48//48 60//60
f 49//49 50//50 38//38
f 50//50 49//49 61//61
f 50//50 52//52 40//40
f 52//52 50//50 62//62
f 52//52 63//63 51//51
f 63//63 52//52 64//64
f 65//65 54//54 53//53
f 54//54 65//65 66//66
f 54//54 55//55 42//42
f 55//55 54//54 67//67
f 55//55 56//56 43//43
f 56//56 55//55 68//68
f 56//56 57//57 44//44
f 57//57 56//56 69//69
f 57//57 58//58 45//45
f 58//58 57//57 70//70
f 59//59 60//60 48//48
f 60//60 59//59 71//71
f 60//60 61//61 49//49
f 61//61 60//60 72//72
f 61//61 62//62 50//50
f 62//62 61//61 73//73
f 62//62 64//64 52//52
f 64//64 62//62 74//74
f 64//64 75//75 63//63
f 75//75 64//64 76//76
f 77//77 66//66 65//65
f 66//66 77//77 78//78
f 66//66 67//67 54//54
f 67//67 66//66 79//79
f 67//67 68//68 55//55
f 68//68 67//67 80//80
f 68//68 69//69 56//56
f 69//69 68//68 81//81
f 69//69 70//70 57//57
f 70//70 69//69 82//82
f 71//71 72//72 60//60
f 72//72 71//71 83//83
f 72//72 73//73 61//61
f 73//73 72//72 84//84
f 73//73 74//74 62//62
f 74//74 73//73 85//85
f 74//74 76//76 64//64
f 76//76 74//74 86//86
f 76//76 87//87 75//75
f 87//87 76//76 88//88
f 89//89 78//78 77//77
f 78//78 89//89 90//90
f 78//78 79//79 66//66
f 79//79 78//78 91//91
f 79//79 80//80 67//67
f 80//80 79//79 92//92
f 80//80 81//81 68//68
f 81//81 80//80 93//93
f 81//81 82//82 69//69
f 82//82 81//81 94//94
f 83//83 84//84 72//72
f 84//84 83//83 95//95
f 84//84 85//85 73//73
f 85//85 84//84 96//96
f 85//85 86//86 74//74
f 86//86 85//85 97//97
f 86//86 88//88 76//76
f 88//88 86//86 98//98
f 88//88 99//99 87//87
f 99//99 88//88 100//100
f 101//101 90//90 89//89
f 90//90 101//101 102//102
f 90//90 91//91 78//78
f 91//91 90//90 103//103
f 91//91 92//92 79//79
f 92//92 91//91 104//104
f 92//92 93//93 80//80
f 93//93 92//92 105//105
f 93//93 94//94 81//81
f 94//94 93//93 106//106
f 95//95 96//96 84//84
f 96//96 95//95 107//107
f 96//96 97//97 85//85
f 97//97 96//96 108//108
f 97//97 98//98 86//86
f 98//98 97//97 109//109
f 98//98 100//100 88//88
f 100//100 98//98 110//110
f 100//100 111//111 99//99
f 111//111 100//100 112//112
f 113//113 102//102 101//101
f 102//102 113//113 114//114
f 102//102 103//103 90//90
f 103//103 102//102 115//115
f 103//103 104//104 91//91
f 104//104 103//103 116//116
f 104//104 105//105 92//92
f 105//105 104//104 117//117
f 105//105 106//106 93//93
f 106//106 105//105 118//118
f 107//107 108//108 96//96
f 108//108 107//107 119//119
f 108//108 109//109 97//97
f 109//109 108//108 120//120
f 109//109 110//110 98//98
f 110//110 109//109 121//121
f 110//110 112//112 100//100
f 112//112 110//110 122//122
f 112//112 123//123 111//111
f 123//123 112//112 124//124
f 125//125 114//114 113//113
f 114//114 125//125 126//126
f 114//114 115//115 102//102
f 115//115 114//114 127//127
f 115//115 116//116 103//103
f 116//116 115//115 128//128
f 116//116 117//117 104//104
f 117//117 116//116 129//129
f 117//117 118//118 105//105
f 118//118 117//117 130//130
f 119//119 120//120 108//108
f 120//120 119//119 131//131
f 120//120 121//121 109//109
f 121//121 120//120 132//132
f 121//121 122//122 110//110
f 122//122 121//121 133//133
f 122//122 124//124 112//112
f 124//124 122//122 134//134
f 124//124 135//135 123//123
f 135//135 124//124 136//136
f 137//137 126//126 125//125
f 126//126 137//137 138//138
f 126//126 127//127 114//114
f 127//127 126//126 139//139
f 127//127 128//128 115//115
f 128//128 127//127 140//140
f 128//128 129//129 116//116
f 129//129 128//128 141//141
f 129//129 130//130 117//117
f 130//130 129//129 142//142
f 131//131 132//132 120//120
f 132//132 131//131 143//143
f 132//132 133//133 121//121
f 133//133 132//132 144//144
f 133//133 134//134 122//122
f 134//134 133//133 145//145
f 134//134 136//136 124//124
f 136//136 134//134 146//146
f 136//136 147//147 135//135
f 147//147 136//136 148//148
f 149//149 138//138 137//137
f 138//138 149//149 150//150
f 138//138 139//139 126//126
f 139//139 138//138 151//151
f 139//139 140//140 127//127
f 140//140 139//139 152//152
f 140//140 141//141 128//128
f 141//141 140//140 153//153
f 141//141 142//142 129//129
f 142//142 141//141 154//154
f 143//143 144//144 132//132
f 144//144 143//143 155//155
f 144//144 145//145 133//133
f 145//145 144//144 156//156
f 145//145 146//146 134//134
f 146//146 145//145 157//157
f 146//146 148//148 136//136
f 148//148 146//146 158//158
f 148//148 159//159 147//147
f 159//159 148//148 160//160
f 161//161 150//150 149//149
f 150//150 161//161 162//162
f 150//150 151//151 138//138
f 151//151 150//150 163//163
f 151//151 152//152 139//139
f 152//152 151//151 164//164
f 152//152 153//153 140//140
f 153//153 152//152 165//165
f 153//153 154//154 141//141
f 154//154 153//153 166//166
f 155//155 156//156 144//144
f 156//156 155//155 167//167
f 156//156 157//157 145//145
f 157//157 156//156 168//168
f 157//157 158//158 146//146
f 158//158 157//157 169//169
f 158//158 160//160 148//148
f 160//160 158//158 170//170
f 160//160 171//171 159//159
f 171//171 160//160 172//172
f 173//173 162//162 161//161
f 162//162 173//173 174//174
f 162//162 163//163 150//150
f 163//163 162//162 175//175
f 163//163 164//164 151//151
f 164//164 163//163 176//176
f 164//164 165//165 152//152
f 165//165 164//164 177//177
f 165//165 166//166 153//153
f 166//166 165//165 178//178
f 167//167 168//168 156//156
f 168//168 167//167 179//179
f 168//168 169//169 157//157
f 169//169 168//168 180//180
f 169//169 170//170 158//158
f 170//170 169//169 181//181
f 170//170 172//172 160//160
f 172//172 170//170 182//182
f 172//172 183//183 171//171
f 183//183 172//172 184//184
f 185//185 174//174 173//173
f 174//174 185//185 186//186
f 174//174 175//175 162//162
f 175//175 174//174 187//187
f 175//175 176//176 163//163
f 176//176 175//175 188//188
f 176//176 177//177 164//164
f 177//177 176//176 189//189
f 177//177 178//178 165//165
f 178//178 177//177 190//190
f 179//179 180//180 168//168
f 180//180 179//179 191//191
f 180//180 181//181 169//169
f 181//181 180//180 192//192
f 181//181 182//182 170//170
f 182//182 181//181 193//193
f 182//182 184//184 172//172
f 184//184 182//182 194//194
f 184//184 195//195 183//183
f 195//195 184//184 196//196
f 197//197 186//186 185//185
f 186//186 197//197 198//198
f 186//186 187//187 174//174
f 187//187 186//186 199//199
f 187//187 188//188 175//175
f 188//188 187//187 200//200
f 188//188 189//189 176//176
f 189//189 188//188 201//201
f 189//189 190//190 177//177
f 190//190 189//189 202//202
f 191//191 192//192 180//180
f 192//192 191//191 203//203
f 192//192 193//193 181//181
f 193//193 192//192 204//204
f 193//193 194//194 182//182
f 194//194 193//193 205//205
f 194//194 196//196 184//184
f 196//196 194//194 206//206
f 196//196 207//207 195//195
f 207//207 196//196 208//208
f 197//197 209//209 198//198
f 209//209 197//197 210//210
f 198//198 199//199 186//186
f 199//199 198//198 211//211
f 199//199 200//200 187//187
f 200//200 199//199 212//212
f 200//200 201//201 188//188
f 201//201 200//200 213//213
f 201//201 202//202 189//189
f 202//202 201//201 214//214
f 203//203 204//204 192//192
f 204//204 203//203 215//215
f 204//204 205//205 193//193
f 205//205 204//204 216//216
f 205//205 206//206 194//194
f 206//206 205//205 217//217
f 206//206 208//208 196//196
f 208//208 206//206 218//218
f 208//208 219//219 207//207
f 219//219 208//208 220//220
f 210//210 221//221 209//209
f 221//221 210//210 222//222
f 198//198 223//223 211//211
f 223//223 198//198 209//209
f 211//211 212//212 199//199
f 212//212 211//211 224//224
f 212//212 213//213 200//200
f 213//213 212//212 225//225
f 213//213 214//214 201//201
f 214//214 213//213 226//226
f 215//215 216//216 204//204
f 216//216 215//215 227//227
f 216//216 217//217 205//205
f 217//217 216//216 228//228
f 217//217 218//218 206//206
f 218//218 217//217 229//229
f 218//218 220//220 208//208
f 220//220 218//218 230//230
f 220//220 231//231 219//219
f 231//231 220//220 232//232
f 222//222 233//233 221//221
f 233//233 222//222 234//234
f 209//209 235//235 223//223
f 235//235 209//209 221//221
f 211//211 236//236 224//224
f 236//236 211//211 223//223
f 224//224 225//225 212//212
f 225//225 224//224 237//237
f 225//225 226//226 213//213
f 226//226 225//225 238//238
f 227//227 228//228 216//216
f 228//228 227//227 239//239
f 228//228 229//229 217//217
f 229//229 228//228 240//240
f 229//229 230//230 218//218
f 230//230 229//229 241//241
f 230//230 232//232 220//220
f 232//232 230//230 242//242
f 232//232 243//243 231//231
f 243//243 232//232 244//244
f 234//234 245//245 233//233
f 245//245 234//234 246//246
f 221//221 247//247 235//235
f 247//247 221//221 233//233
f 223//223 248//248 236//236
f 248//248 223//223 235//235
f 224//224 249//249 237//237
f 249//249 224//224 236//236
f 237//237 238//238 225//225
f 238//238 237//237 250//250
f 239//239 240//240 228//228
f 240//240 239//239 251//251
f 240//240 241//241 229//229
f 241//241 240//240 252//252
f 241//241 242//242 230//230
f 242//242 241//241 253//253
f 242//242 244//244 232//232
f 244//244 242//242 254//254
f 255//255 243//243 244//244
f 243//243 255//255 256//256
f 246//246 257//257 245//245
f 257//257 246//246 258//258
f 233//233 259//259 247//247
f 259//259 233//233 245//245
f 235//235 260//260 248//248
f 260//260 235//235 247//247
f 236//236 261//261 249//249
f 261//261 236//236 248//248
f 237//237 262//262 250//250
f 262//262 237//237 249//249
f 251//251 252//252 240//240
f 252//252 251//251 263//263
f 252//252 253//253 241//241
f 253//253 252//252 264//264
f 253//253 254//254 242//242
f 254//254 253//253 265//265
f 266//266 244//244 254//254
f 244//244 266//266 255//255
f 267//267 256//256 255//255
f 256//256 267//267 268//268
f 258//258 269//269 257//257
f 269//269 258//258 270//270
f 245//245 271//271 259//259
f 271//271 245//245 257//257
f 247//247 272//272 260//260
f 272//272 247//247 259//259
f 248//248 273//273 261//261
f 273//273 248//248 260//260
f 249//249 274//274 262//262
f 274//274 249//249 261//261
f 263//263 264//264 252//252
f 264//264 263//263 275//275
f 264//264 265//265 253//253
f 265//265 264//264 276//276
f 277//277 254//254 265//265
f 254//254 277//277 266//266
f 278//278 255//255 266//266
f 255//255 278//278 267//267
f 279//279 268//268 267//267
f 268//268 279//279 280//280
f 270//270 281//281 269//269
f 281//281 270//270 282//282
f 257//257 283//283 271//271
f 283//283 257//257 269//269
f 259//259 284//284 272//272
f 284//284 259//259 271//271
f 260//260 285//285 273//273
f 285//285 260//260 272//272
f 261//261 286//286 274//274
f 286//286 261//261 273//273
f 275//275 276//276 264//264
f 276//276 275//275 287//287
f 288//288 265//265 276//276
f 265//265 288//288 277//277
f 289//289 266//266 277//277
f 266//266 289//289 278//278
f 290//290 267//267 278//278
f 267//267 290//290 279//279
f 291//291 280//280 279//279
f 280//280 291//291 292//292
f 282//282 293//293 281//281
f 293//293 282//282 294//294
f 269//269 295//295 283//283
f 295//295 269//269 281//281
f 271//271 296//296 284//284
f 296//296 271//271 283//283
f 272//272 297//297 285//285
f 297//297 272//272 284//284
f 273//273 298//298 286//286
f 298//298 273//273 285//285
f 299//299 276//276 287//287
f 276//276 299//299 288//288
f 300//300 277//277 288//288
f 277//277 300//300 289//289
f 301//301 278//278 289//289
f 278//278 301//301 290//290
f 302//302 279//279 290//290
f 279//279 302//302 291//291
f 303//303 292//292 291//291
f 292//292 303//303 304//304
f 294//294 305//305 293//293
f 305//305 294//294 306//306
f 281//281 307//307 295//295
f 307//307 281//281 293//293
f 283//283 308//308 296//296
f 308//308 283//283 295//295
f 284//284 309//309 297//297
f 309//309 284//284 296//296
f 285//285 310//310 298//298
f 310//310 285//285 297//297
f 311//311 288//288 299//299
f 288//288 311//311 300//300
f 312//312 289//289 300//300
f 289//289 312//312 301//301
f 313//313 290//290 301//301
f 290//290 313//313 302//302
f 314//314 291//291 302//302
f 291//291 314//314 303//303
f 315//315 304//304 303//303
f 304//304 315//315 316//316
f 306//306 317//317 305//305
f 317//317 306//306 318//318
f 293//293 319//319 307//307
f 319//319 293//293 305//305
f 295//295 320//320 308//308
f 320//320 295//295 307//307
f 296//296 321//321 309//309
f 321//321 296//296 308//308
f 297//297 322//322 310//310
f 322//322 297//297 309//309
f 323//323 300//300 311//311
f 300//300 323//323 312//312
f 324//324 301//301 312//312
f 301//301 324//324 313//313
f 325//325 302//302 313//313
f 302//302 325//325 314//314
f 326//326 303//303 314//314
f 303//303 326//326 315//315
f 327//327 316//316 315//315
f 316//316 327//327 328//328
f 318//318 329//329 317//317
f 329//329 318//318 330//330
f 305//305 331//331 319//319
f 331//331 305//305 317//317
f 307//307 332//332 320//320
f 332//332 307//307 319//319
f 308//308 333//333 321//321
f 333//333 308//308 320//320
f 309//309 334//334 322//322
f 334//334 309//309 321//321
f 335//335 312//312 323//323
f 312//312 335//335 324//324
f 336//336 313//313 324//324
f 313//313 336//336 325//325
f 337//337 314//314 325//325
f 314//314 337//337 326//326
f 338//338 315//315 326//326
f 315//315 338//338 327//327
f 339//339 328//328 327//327
f 328//328 339//339 340//340
f 330//330 341//341 329//329
f 341//341 330//330 342//342
f 317//317 343//343 331//331
f 343//343 317//317 329//329
f 319//319 344//344 332//332
f 344//344 319//319 331//331
f 320//320 345//345 333//333
f 345//345 320//320 332//332
f 321//321 346//346 334//334
f 346//346 321//321 333//333
f 347//347 324//324 335//335
f 324//324 347//347 336//336
f 348//348 325//325 336//336
f 325//325 348//348 337//337
f 349//349 326//326 337//337
f 326//326 349//349 338//338
f 350//350 327//327 338//338
f 327//327 350//350 339//339
f 351//351 340//340 339//339
f 340//340 351//351 352//352
f 342//342 353//353 341//341
f 353//353 342//342 354//354
f 329//329 355//355 343//343
f 355//355 329//329 341//341
f 331//331 356//356 344//344
f 356//356 331//331 343//343
f 332//332 357//357 345//345
f 357//357 332//332 344//344
f 333//333 358//358 346//346
f 358//358 333//333 345//345
f 359//359 336//336 347//347
f 336//336 359//359 348//348
f 360//360 337//337 348//348
f 337//337 360//360 349//349
f 361//361 338//338 349//349
f 338//338 361//361 350//350
f 362//362 339//339 350//350
f 339//339 362//362 351//351
f 363//363 352//352 351//351
f 352//352 363//363 364//364
f 354//354 365//365 353//353
f 365//365 354//354 366//366
f 341//341 367//367 355//355
f 367//367 341//341 353//353
f 343//343 368//368 356//356
f 368//368 343//343 355//355
f 344//344 369//369 357//357
f 369//369 344//344 356//356
f 345//345 370//370 358//358
f 370//370 345//345 357//357
f 371//371 348//348 359//359
f 348//348 371//371 360//360
f 372//372 349//349 360//360
f 349//349 372//372 361//361
f 373//373 350//350 361//361
f 350//350 373//373 362//362
f 374//374 351//351 362//362
f 351//351 374//374 363//363
f 375//375 364//364 363//363
f 364//364 375//375 376//376
f 366//366 377//377 365//365
f 377//377 366//366 378//378
f 353//353 379//379 367//367
f 379//379 353//353 365//365
f 355//355 380//380 368//368
f 380//380 355//355 367//367
f 356//356 381//381 369//369
f 381//381 356//356 368//368
f 357//357 382//382 370//370
f 382//382 357//357 369//369
f 383//383 360//360 371//371
f 360//360 383//383 372//372
f 384//384 361//361 372//372
f 361//361 384//384 373//373
f 385//385 362//362 373//373
f 362//362 385//385 374//374
f 386//386 363//363 374//374
f 363//363 386//386 375//375
f 387//387 376//376 375//375
f 376//376 387//387 388//388
f 378//378 389//389 377//377
f 389//389 378//378 390//390
f 365//365 391//391 379//379
f 391//391 365//365 377//377
f 367//367 392//392 380//380
f 392//392 367//367 379//379
f 368//368 393//393 381//381
f 393//393 368//368 380//380
f 369//369 394//394 382//382
f 394//394 369//369 381//381
f 395//395 372//372 383//383
f 372//372 395//395 384//384
f 396//396 373//373 384//384
f 373//373 396//396 385//385
f 397//397 374//374 385//385
f 374//374 397//397 386//386
f 398//398 375//375 386//386
f 375//375 398//398 387//387
f 399//399 388//388 387//387
f 388//388 399//399 400//400
f 390//390 401//401 389//389
f 401//401 390//390 402//402
f 377//377 403//403 391//391
f 403//403 377//377 389//389
f 379//379 404//404 392//392
f 404//404 379//379 391//391
f 380//380 405//405 393//393
f 405//405 380//380 392//392
f 381//381 406//406 394//394
f 406//406 381//381 393//393
f 407//407 384//384 395//395
f 384//384 407//407 396//396
f 408//408 385//385 396//396
f 385//385 408//408 397//397
f 409//409 386//386 397//397
f 386//386 409//409 398//398
f 410//410 387//387 398//398
f 387//387 410//410 399//399
f 411//411 400//400 399//399
f 400//400 411//411 412//412
f 402//402 413//413 401//401
f 413//413 402//402 414//414
f 389//389 415//415 403//403
f 415//415 389//389 401//401
f 391//391 416//416 404//404
f 416//416 391//391 403//403
f 392//392 417//417 405//405
f 417//417 392//392 404//404
f 393//393 418//418 406//406
f 418//418 393//393 405//405
f 419//419 396//396 407//407
f 396//396 419//419 408//408
f 420//420 397//397 408//408
f 397//397 420//420 409//409
f 421//421 398//398 409//409
f 398//398 421//421 410//410
f 422//422 399//399 410//410
f 399//399 422//422 411//411
f 423//423 412//412 411//411
f 412//412 423//423 424//424
f 414//414 425//425 413//413
f 425//425 414//414 426//426
f 401//401 427//427 415//415
f 427//427 401//401 413//413
f 403//403 428//428 416//416
f 428//428 403//403 415//415
f 404//404 429//429 417//417
f 429//429 404//404 416//416
f 405//405 430//430 418//418
f 430//430 405//405 417//417
f 431//431 408//408 419//419
f 408//408 431//431 420//420
f 432//432 409//409 420//420
f 409//409 432//432 421//421
f 433//433 410//410 421//421
f 410//410 433//433 422//422
f 434//434 411//411 422//422
f 411//411 434//434 423//423
f 435//435 424//424 423//423
f 424//424 435//435 436//436
f 426//426 437//437 425//425
f 437//437 426//426 438//438
f 413//413 439//439 427//427
f 439//439 413//413 425//425
f 415//415 440//440 428//428
f 440//440 415//415 427//427
f 416//416 441//441 429//429
f 441//441 416//416 428//428
f 417//417 442//442 430//430
f 442//442 417//417 429//429
f 443//443 420//420 431//431
f 420//420 443//443 432//432
f 444//444 421//421 432//432
f 421//421 444//444 433//433
f 445//445 422//422 433//433
f 422//422 445//445 434//434
f 446//446 423//423 434//434
f 423//423 446//446 435//435
f 447//447 436//436 435//435
f 436//436 447//447 448//448
f 437//437 449//449 450//450
f 449//449 437//437 438//438
f 425//425 451//451 439//439
f 451//451 425//425 437//437
f 427//427 452//452 440//440
f 452//452 427//427 439//439
f 428//428 453//453 441//441
f 453//453 428//428 440//440
f 429//429 454//454 442//442
f 454//454 429//429 441//441
f 455//455 432//432 443//443
f 432//432 455//455 444//444
f 456//456 433//433 444//444
f 433//433 456//456 445//445
f 457//457 434//434 445//445
f 434//434 457//457 446//446
f 458//458 435//435 446//446
f 435//435 458//458 447//447
f 459//459 448//448 447//447
f 448//448 459//459 460//460
f 450//450 460//460 459//459
f 460//460 450//450 449//449
f 451//451 450//450 461//461
f 450//450 451//451 437//437
f 439//439 462//462 452//452
f 462//462 439//439 451//451
f 440//440 463//463 453//453
f 463//463 440//440 452//452
f 441//441 464//464 454//454
f 464//464 441//441 453//453
f 465//465 444//444 455//455
f 444//444 465//465 456//456
f 466//466 445//445 456//456
f 445//445 466//466 457//457
f 467//467 446//446 457//457
f 446//446 467//467 458//458
f 468//468 447//447 458//458
f 447//447 468//468 459//459
f 461//461 459//459 468//468
f 459//459 461//461 450//450
f 462//462 461//461 469//469
f 461//461 462//462 451//451
f 452//452 470//470 463//463
f 470//470 452//452 462//462
f 453//453 471//471 464//464
f 471//471 453//453 463//463
f 472//472 456//456 465//465
f 456//456 472//472 466//466
f 473//473 457//457 466//466
f 457//457 473//473 467//467
f 474//474 458//458 467//467
f 458//458 474//474 468//468
f 469//469 468//468 474//474
f 468//468 469//469 461//461
f 470//470 469//469 475//475
f 469//469 470//470 462//462
f 463//463 476//476 471//471
f 476//476 463//463 470//470
f 477//477 466//466 472//472
f 466//466 477//477 473//473
f 478//478 467//467 473//473
f 467//467 478//478 474//474
f 475//475 474//474 478//478
f 474//474 475//475 469//469
f 476//476 475//475 479//479
f 475//475 476//476 470//470
f 480//480 473//473 477//477
f 473//473 480//480 478//478
f 479//479 478//478 480//480
f 478//478 479//479 475//475
