# SSTK version 0.8.0
# 8
mtllib original-8.mtl
o #ID51
v -0.00495208 -0.07088197 0.33095791
v -0.14368262 -0.70696482 0.30564558
v -0.00492750 -0.70696236 0.33108071
v -0.14372961 0.22480100 0.30565226
v -0.00496491 -0.06426276 0.33114263
v -0.00491923 0.22474433 0.33099061
v -0.00497642 -0.70691013 0.33108844
v -0.13862624 -0.74313246 0.28860529
v -0.00490326 -0.74306792 0.31286646
v -0.14374213 -0.70690837 0.30575940
v 0.13369216 -0.08480207 0.30564267
v -0.00493721 -0.70691626 0.33113608
v 0.13376323 -0.70693537 0.30576464
v -0.00501168 -0.07079910 0.33099156
v 0.13370776 0.22471133 0.30564034
v -0.00508156 -0.06428759 0.33099471
v -0.00498938 0.22483521 0.33114331
v -0.00493317 0.38012879 0.30701914
v -0.14363975 0.22490958 0.30575101
v -0.00504846 0.22474151 0.33108948
v -0.13691024 0.38001824 0.28275758
v -0.14362045 0.22476045 0.30575355
v -0.26117497 -0.70700806 0.23332723
v -0.14370930 -0.70689229 0.30565919
v -0.26110858 0.22475080 0.23348251
v -0.14369757 -0.70698401 0.30561147
v -0.25123416 -0.74307799 0.21926292
v -0.13864737 -0.74314372 0.28850656
v -0.26113677 -0.70690616 0.23350333
v -0.00502191 -0.74317692 0.31305617
v -0.13869004 -0.74307514 0.28845042
v -0.00492523 -0.75865615 0.27074503
v 0.13358590 -0.70691936 0.30573580
v -0.00489711 -0.74316242 0.31303794
v 0.12859497 -0.74313574 0.28859925
v -0.00504223 -0.70692661 0.33096534
v 0.25125721 0.22486409 0.23338282
v 0.13367119 -0.70699899 0.30560272
v 0.25115060 -0.70691845 0.23337097
v 0.13363723 -0.08493833 0.30561766
v 0.13365034 0.22484876 0.30561028
v 0.12696261 0.38001533 0.28284021
v -0.00504479 0.22488485 0.33098532
v 0.13361080 0.22481936 0.30576246
v -0.00498468 0.38008390 0.30699683
v -0.10537760 0.48362342 0.20299146
v -0.13703109 0.38009624 0.28288547
v -0.00507275 0.38012399 0.30697928
v -0.13690462 0.38008944 0.28279900
v -0.26110977 0.22483062 0.23342324
v -0.14362555 0.22484422 0.30577156
v -0.24779622 0.38003452 0.21458907
v -0.33978593 0.22491028 0.12530619
v -0.26110653 -0.70699320 0.23331729
v -0.26114792 0.22477185 0.23342413
v -0.33970783 -0.70688103 0.12517963
v -0.33972866 -0.70692598 0.12518916
v -0.25121601 -0.74310689 0.21932785
v -0.26128956 -0.70694399 0.23340742
v -0.32556703 -0.74323859 0.11703854
v -0.11556294 -0.75866295 0.23732424
v -0.13858189 -0.74323660 0.28853634
v -0.25124649 -0.74317406 0.21938903
v -0.00496342 -0.75865556 0.27086142
v -0.13865737 -0.74307556 0.28857095
v -0.11541359 -0.75869094 0.23726195
v 0.10595890 -0.75863882 0.23742973
v -0.00490668 -0.74317080 0.31299798
v -0.00493764 -0.75862831 0.27070750
v 0.12857813 -0.74308347 0.28848029
v -0.00500969 -0.74323321 0.31289271
v 0.10595860 -0.75858652 0.23752407
v 0.25131818 -0.70689862 0.23347955
v 0.12862204 -0.74308482 0.28851872
v 0.24125723 -0.74318404 0.21933273
v 0.13372406 -0.70686019 0.30557396
v 0.32973524 -0.70694704 0.12533474
v 0.25118188 0.22480295 0.23333777
v 0.25118351 -0.70698898 0.23343353
v 0.32983195 0.22471432 0.12536030
v 0.23798714 0.38003069 0.21453713
v 0.13374338 0.22489226 0.30565108
v 0.25128425 0.22484302 0.23340555
v 0.12691270 0.38018163 0.28287855
v -0.00495096 0.48364846 0.23466946
v -0.00498081 0.38018478 0.30698248
v 0.12697295 0.38018806 0.28285635
v -0.10540180 0.48361085 0.20288366
v -0.00490049 0.38006066 0.30699088
v -0.00497624 0.48366418 0.23459028
v -0.18673689 0.48356589 0.15091807
v -0.13698227 0.38010135 0.28273798
v -0.10534136 0.48371350 0.20294672
v -0.18675425 0.48358345 0.15087425
v -0.24781927 0.38009431 0.21454301
v -0.13696125 0.38007489 0.28269983
v -0.24798057 0.38008961 0.21460845
v -0.33978117 0.22474326 0.12527913
v -0.26129574 0.22471462 0.23340174
v -0.32079720 0.38000129 0.11415324
v -0.36731478 0.22474988 -0.00226206
v -0.33984255 -0.70690572 0.12525797
v -0.33964843 0.22486055 0.12534727
v -0.36738437 -0.70687493 -0.00226537
v -0.36730299 -0.70691208 -0.00231838
v -0.32563535 -0.74306227 0.11693181
v -0.33965443 -0.70701021 0.12521601
v -0.35136078 -0.74317724 -0.00236545
v -0.21085100 -0.75868799 0.17913933
v -0.25119675 -0.74318754 0.21926713
v -0.32561761 -0.74322687 0.11699292
v -0.11550552 -0.75865951 0.23722805
v -0.25117959 -0.74308524 0.21938407
v -0.21080514 -0.75862880 0.17911269
v -0.26866802 -0.75866643 -0.10121763
v -0.26879312 -0.75857852 0.09664178
v -0.28949630 -0.75869733 -0.00236132
v -0.21089235 -0.75867714 -0.18379812
v -0.21080275 -0.75866325 0.17910767
v -0.11551584 -0.75864293 -0.24377630
v -0.11548556 -0.75867530 0.23733762
v -0.00506759 -0.75859565 -0.27545535
v -0.00505666 -0.75859963 0.27081818
v 0.10502546 -0.75867453 -0.24348771
v 0.10595663 -0.75865944 0.23755681
v 0.19643973 -0.75876362 -0.18220900
v 0.19820026 -0.75864310 0.17707549
v 0.25547394 -0.75874112 -0.10100124
v 0.25578338 -0.75858352 0.09654761
v 0.27663872 -0.75867590 -0.00238228
v 0.19821562 -0.75875283 0.17707650
v 0.12863444 -0.74316464 0.28845544
v 0.10601664 -0.75873771 0.23752945
v 0.24121402 -0.74314856 0.21933187
v 0.12864226 -0.74324340 0.28842020
v 0.19813430 -0.75866740 0.17702452
v 0.24132270 -0.74321441 0.21929229
v 0.32982603 -0.70683485 0.12523103
v 0.25126938 -0.70700572 0.23335025
v 0.31552413 -0.74319435 0.11692794
v 0.35744464 -0.70700004 -0.00220619
v 0.32970124 0.22485363 0.12533005
v 0.32985444 -0.70699441 0.12521697
v 0.35736323 0.22473584 -0.00237480
v 0.32966724 0.22489803 0.12535693
v 0.23795037 0.38010406 0.21449889
v 0.25125581 0.22489968 0.23340817
v 0.31080910 0.38013184 0.11421649
v 0.09588308 0.48365748 0.20329668
v 0.12702234 0.38012945 0.28269091
v 0.23785686 0.38011766 0.21450851
v -0.00496340 0.48362770 0.23465948
v 0.12695739 0.38002942 0.28287351
v 0.09589840 0.48363832 0.20314376
v -0.09871574 0.53539755 0.18007481
v -0.10546614 0.48361626 0.20293514
v -0.00505504 0.48352677 0.23469315
v -0.16920907 0.53529645 0.13201772
v -0.18673849 0.48361539 0.15090705
v -0.10544621 0.48372229 0.20292804
v -0.22524929 0.48357065 0.08003151
v -0.24780244 0.38006681 0.21467027
v -0.18665869 0.48368795 0.15087903
v -0.22524802 0.48367177 0.07999325
v -0.32080305 0.38016344 0.11414198
v -0.24790073 0.38004809 0.21452361
v -0.32080004 0.38006538 0.11417063
v -0.36738037 0.22483252 -0.00232017
v -0.33982256 0.22477126 0.12526630
v -0.34601064 0.38016956 -0.00234681
v -0.33981213 0.22490753 -0.12986625
v -0.36729043 -0.70693145 -0.00239274
v -0.36740654 0.22481408 -0.00228581
v -0.33984395 -0.70684750 -0.12990596
v -0.33967792 -0.70693837 -0.12990192
v -0.35136541 -0.74308895 -0.00227683
v -0.36740680 -0.70699689 -0.00238629
v -0.32549829 -0.74306802 -0.12147862
v -0.26869763 -0.75869557 0.09657891
v -0.32552228 -0.74314840 0.11705087
v -0.35122839 -0.74316082 -0.00222336
v -0.21088189 -0.75861047 0.17921774
v -0.32552294 -0.74311261 0.11688097
v -0.26875755 -0.75876476 0.09668965
v 0.31551467 -0.74317511 0.11686952
v 0.25583290 -0.75860512 0.09663406
v 0.27661331 -0.75864844 -0.00231884
v 0.25574203 -0.75874762 0.09652739
v 0.24131609 -0.74320910 0.21923443
v 0.19827171 -0.75864527 0.17702241
v -0.26883772 -0.75868395 0.09664905
v -0.35131101 -0.74323518 -0.00238416
v -0.28964488 -0.75862751 -0.00220959
v -0.26869504 -0.75869455 -0.10116716
v -0.28966632 -0.75862325 -0.00228999
v -0.32549421 -0.74324387 -0.12166943
v -0.21093397 -0.75869924 -0.18373610
v -0.26869501 -0.75868042 -0.10123653
v -0.25126541 -0.74312731 -0.22387671
v -0.11540577 -0.75869022 -0.24384634
v -0.21087297 -0.75875219 -0.18380565
v -0.13856195 -0.74320074 -0.29319051
v -0.00500470 -0.75866653 -0.27528494
v -0.11543300 -0.75860223 -0.24390806
v -0.00491236 -0.74323860 -0.31749243
v 0.12856666 -0.74313972 -0.29316628
v 0.10507934 -0.75874977 -0.24349907
v -0.00493154 -0.75876608 -0.27536442
v 0.24129601 -0.74317795 -0.22386127
v 0.19646951 -0.75868662 -0.18220084
v 0.10517471 -0.75862114 -0.24347841
v 0.24120452 -0.74313699 -0.22394660
v 0.25546292 -0.75873616 -0.10087819
v 0.19641257 -0.75871204 -0.18217713
v 0.31548485 -0.74323891 -0.12148231
v 0.34131577 -0.74313722 -0.00226776
v 0.27669904 -0.75867300 -0.00223140
v 0.25546856 -0.75858907 -0.10097756
v 0.31560920 -0.74314848 0.11697009
v 0.24130729 -0.74314887 0.21936412
v 0.25573288 -0.75877335 0.09650794
v 0.31548232 -0.74311877 0.11696796
v 0.35734498 -0.70684284 -0.00221491
v 0.32976602 -0.70699445 0.12532511
v 0.34130885 -0.74322147 -0.00238847
v 0.32971344 -0.70699108 -0.12978405
v 0.35730907 0.22475487 -0.00227376
v 0.35725381 -0.70681982 -0.00235929
v 0.32970979 0.22475569 -0.12980995
v 0.35737134 0.22481916 -0.00227264
v 0.31073504 0.38002026 0.11410549
v 0.32984696 0.22490409 0.12534324
v 0.33595779 0.38004109 -0.00225278
v 0.31091727 0.38011423 0.11413463
v 0.17396963 0.48365663 0.14876759
v 0.23798700 0.38002389 0.21452155
v 0.23800023 0.38009504 0.21461252
v 0.17408485 0.48365671 0.14870485
v 0.09583920 0.48357960 0.20329789
v -0.00496919 0.53538758 0.21050763
v -0.00495586 0.48372112 0.23458275
v 0.09594630 0.48361295 0.20319124
v -0.09880715 0.53543368 0.18000778
v -0.00492190 0.48352465 0.23462049
v -0.00508802 0.53545355 0.21055995
v -0.16920503 0.53544608 0.13199804
v -0.10543282 0.48371805 0.20290192
v -0.09882869 0.53530107 0.18014753
v -0.19615417 0.53531682 0.06895092
v -0.18670055 0.48364055 0.15090240
v -0.16920441 0.53544321 0.13211932
v -0.19624446 0.53532318 0.06893598
v -0.22534968 0.48372201 0.07999472
v -0.18669660 0.48355312 0.15084229
v -0.24261785 0.48367854 -0.00237369
v -0.32076817 0.38005507 0.11424909
v -0.22527454 0.48358186 0.08008337
v -0.34590072 0.38001423 -0.00237680
v -0.32076119 0.38008932 0.11412125
v -0.24245833 0.48355553 -0.00222397
v -0.32086838 0.38009541 -0.11878419
v -0.36725626 0.22478074 -0.00232479
v -0.34595964 0.38016260 -0.00233740
v -0.33981160 0.22478229 -0.12979409
v -0.26122663 0.22477154 -0.23792627
v -0.33974000 -0.70688180 -0.12987071
v -0.33969401 0.22485836 -0.12979683
v -0.26112854 -0.70696419 -0.23809173
v -0.33982624 -0.70698302 -0.12986559
v -0.25120882 -0.74322265 -0.22392308
v -0.32558066 -0.74321054 -0.12149771
v -0.26123595 -0.70699300 -0.23808736
v -0.28947457 -0.75868811 -0.00234242
v -0.35123534 -0.74315608 -0.00231926
v -0.32548248 -0.74305680 -0.12163825
v 0.34128812 -0.74322629 -0.00233513
v 0.31546986 -0.74320310 0.11705822
v 0.27664924 -0.75875929 -0.00232826
v -0.25124075 -0.74310880 -0.22395593
v -0.26875214 -0.75867057 -0.10111468
v -0.32553580 -0.74316035 -0.12155019
v -0.13871503 -0.74308822 -0.29302779
v -0.21078825 -0.75875817 -0.18378979
v -0.25129909 -0.74323447 -0.22391789
v -0.00500195 -0.74311260 -0.31755759
v -0.11537996 -0.75870426 -0.24387586
v -0.13865394 -0.74309169 -0.29316245
v 0.12863048 -0.74315450 -0.29321074
v -0.00505460 -0.75873804 -0.27529446
v -0.00506613 -0.74322493 -0.31756904
v 0.24128749 -0.74323259 -0.22395587
v 0.10513268 -0.75876905 -0.24362209
v 0.12871205 -0.74323169 -0.29318927
v 0.24116748 -0.74306816 -0.22399083
v 0.32972604 -0.70685402 -0.12984764
v 0.31562967 -0.74318295 -0.12156717
v 0.25121199 -0.70690964 -0.23810198
v 0.34138587 -0.74314019 -0.00225015
v 0.25535362 -0.75861499 -0.10098992
v 0.31561255 -0.74315007 -0.12152204
v 0.31553087 -0.74305593 -0.12164311
v 0.35727500 -0.70698595 -0.00227462
v 0.34124678 -0.74322706 -0.00223023
v 0.32966839 -0.70682308 -0.12995263
v 0.25118164 -0.70694846 -0.23800467
v 0.32970114 0.22482128 -0.12982814
v 0.32971390 -0.70689494 -0.12978021
v 0.25122635 0.22481109 -0.23810711
v 0.32981952 0.22489084 -0.12983674
v 0.33592434 0.38018020 -0.00231778
v 0.35733755 0.22489160 -0.00222780
v 0.31076123 0.38006443 -0.11873212
v 0.33604943 0.38018322 -0.00234838
v 0.21244619 0.48369898 0.07998840
v 0.31081734 0.38008736 0.11420640
v 0.31089326 0.38017103 0.11422034
v 0.21228569 0.48358699 0.08000432
v 0.17405986 0.48370350 0.14867792
v 0.08909899 0.53542333 0.18037503
v 0.09581675 0.48355140 0.20319330
v 0.17402230 0.48361239 0.14883495
v -0.00503651 0.53545829 0.21057085
v 0.09592032 0.48361868 0.20320612
v 0.08916002 0.53544722 0.18040520
v -0.19620317 0.53547239 0.06899166
v -0.19616904 0.53531375 -0.07357935
v -0.21103925 0.53534426 -0.00226189
v -0.16926495 0.53534499 0.13207662
v -0.16916366 0.53529545 -0.13672581
v -0.09883734 0.53544476 0.18003665
v -0.09869354 0.53544744 -0.18664710
v -0.00489544 0.53533533 0.21053688
v -0.00507176 0.53539664 -0.21504781
v 0.08925658 0.53530640 0.18033714
v 0.08841238 0.53531628 -0.18642663
v 0.16178560 0.53543069 -0.13522811
v 0.16359533 0.53547578 0.12990342
v 0.18609278 0.53533684 -0.07321778
v 0.18628008 0.53529291 0.06899736
v 0.20128850 0.53541612 -0.00238547
v -0.21111232 0.53538759 -0.00224153
v -0.22538032 0.48371980 0.07997665
v -0.19620722 0.53539391 0.06896881
v -0.24244439 0.48371476 -0.00225583
v -0.22529503 0.48369431 0.08009665
v -0.21107198 0.53545747 -0.00229699
v -0.22520856 0.48359489 -0.08469689
v -0.34603811 0.38017894 -0.00238024
v -0.24251910 0.48371719 -0.00238802
v -0.32089720 0.38011868 -0.11877258
v -0.34605637 0.38007168 -0.00232708
v -0.22532456 0.48355888 -0.08463332
v -0.24797312 0.38000460 -0.21924672
v -0.33981101 0.22479394 -0.12982614
v -0.32084518 0.38001100 -0.11872975
v -0.26119982 0.22473370 -0.23807079
v -0.26129679 0.22485226 -0.23808142
v -0.14356538 -0.70693588 -0.31032292
v -0.26127064 -0.70691219 -0.23797886
v -0.14372671 0.22472130 -0.31037792
v -0.26126340 -0.70694966 -0.23801981
v -0.13858910 -0.74324037 -0.29309583
v -0.25123425 -0.74310715 -0.22396292
v -0.14369096 -0.70686545 -0.31029053
v -0.14359447 -0.70682410 -0.31030477
v -0.00507579 -0.74306122 -0.31755443
v -0.13868646 -0.74305669 -0.29314666
v -0.00499520 -0.70685628 -0.33565561
v -0.00503401 -0.70693716 -0.33568780
v 0.12859931 -0.74318139 -0.29307494
v -0.00489277 -0.74318782 -0.31765036
v 0.13357193 -0.70684606 -0.31027073
v 0.13375082 -0.70695534 -0.31024639
v 0.24118370 -0.74319407 -0.22384655
v 0.12856606 -0.74322733 -0.29313481
v 0.25115848 -0.70691182 -0.23808355
v 0.13356995 0.22475953 -0.31020125
v 0.25112570 -0.70687015 -0.23803595
v 0.13373872 -0.70684513 -0.31034405
v 0.25115268 0.22475388 -0.23801234
v 0.32985377 0.22472745 -0.12993313
v 0.23785465 0.38008282 -0.21921536
v 0.31073264 0.38017151 -0.11882722
v 0.25120085 0.22472625 -0.23811110
v 0.33593753 0.38014084 -0.00229915
v 0.31073139 0.38017000 -0.11874263
v 0.22951735 0.48361712 -0.00230925
v 0.33596984 0.38008043 -0.00234837
v 0.22961297 0.48359958 -0.00224552
v 0.21228147 0.48353718 0.07997829
v 0.21244931 0.48353273 0.07999515
v 0.16361124 0.53541911 0.12999483
v 0.17396525 0.48369030 0.14870828
v 0.08917611 0.53547440 0.18025679
v 0.17397408 0.48352739 0.14882405
v 0.16345171 0.53547896 0.12998735
v 0.18631515 0.53543269 0.06895538
v 0.16362138 0.53539023 0.12989225
v 0.21237845 0.48353585 0.07991810
v 0.20129802 0.53530625 -0.00236734
v 0.18643167 0.53542660 0.06889993
v 0.22955475 0.48363362 -0.00225352
v 0.21205917 0.48358254 -0.08425493
v 0.18605947 0.53538641 -0.07330071
v 0.20118109 0.53538458 -0.00226513
v 0.17212091 0.48357151 -0.15396931
v 0.16174584 0.53533083 -0.13531609
v 0.18598732 0.53542483 -0.07335589
v 0.16163575 0.53544946 -0.13517752
v 0.09506530 0.48359008 -0.20918037
v 0.08847006 0.53547114 -0.18632325
v 0.08835291 0.53531700 -0.18626096
v -0.00502209 0.48370940 -0.23923990
v -0.00500463 0.53548423 -0.21503280
v -0.00508996 0.53548388 -0.21520082
v -0.10541954 0.48353749 -0.20958022
v -0.09872680 0.53531763 -0.18663146
v -0.09873382 0.53538343 -0.18669503
v -0.18676835 0.48354973 -0.15559820
v -0.16916202 0.53528980 -0.13677881
v -0.16926346 0.53547982 -0.13678336
v -0.22532749 0.48363325 -0.08469992
v -0.19628921 0.53540159 -0.07351088
v -0.19628531 0.53539950 -0.07362753
v -0.24251754 0.48358673 -0.00220439
v -0.21112543 0.53544875 -0.00223643
v -0.22522207 0.48361759 -0.08457873
v -0.24243760 0.48361102 -0.00231407
v -0.19629876 0.53539412 -0.07364490
v -0.18663742 0.48357971 -0.15544438
v -0.32071626 0.38006620 -0.11886296
v -0.22520442 0.48354884 -0.08454876
v -0.18661761 0.48353151 -0.15557589
v -0.24796716 0.38011867 -0.21923174
v -0.32074497 0.38010165 -0.11888443
v -0.24791169 0.38016412 -0.21916662
v -0.14371313 0.22487572 -0.31034469
v -0.26122639 0.22480390 -0.23794499
v -0.13704340 0.38004597 -0.28736898
v -0.14367146 0.22485339 -0.31026442
v -0.00492471 -0.70692317 -0.33557911
v -0.14367707 -0.70696538 -0.31029154
v -0.00493429 0.22472605 -0.33570477
v -0.00489591 0.22472213 -0.33563407
v 0.13361247 -0.70686553 -0.31037893
v -0.00504628 -0.70687744 -0.33558106
v 0.13357718 0.22484170 -0.31029760
v 0.12701157 0.38018324 -0.28732507
v 0.25127956 0.22481440 -0.23798025
v 0.13358759 0.22472903 -0.31025030
v 0.23791273 0.38005064 -0.21912711
v 0.31085321 0.38007977 -0.11889037
v 0.23784559 0.38010844 -0.21913026
v 0.21196860 0.48364669 -0.08423686
v 0.31079216 0.38012026 -0.11875903
v 0.21200920 0.48352568 -0.08432714
v 0.22966805 0.48368633 -0.00221901
v 0.22955611 0.48356682 -0.00231660
v 0.18630411 0.53542108 0.06897335
v 0.21242521 0.48370238 0.07995693
v 0.21205206 0.48366461 -0.08426747
v 0.20114791 0.53542893 -0.00235737
v 0.22958557 0.48372211 -0.00220761
v 0.17220652 0.48364925 -0.15412795
v 0.18593483 0.53544296 -0.07318414
v 0.21191007 0.48356272 -0.08441282
v 0.16164727 0.53541942 -0.13530042
v 0.17226456 0.48363845 -0.15412893
v 0.09509189 0.48353976 -0.20920740
v 0.08838176 0.53547253 -0.18637638
v 0.09514756 0.48360631 -0.20928627
v -0.00503889 0.48353340 -0.23925257
v -0.00490668 0.53546053 -0.21503742
v -0.00505485 0.48353398 -0.23923074
v -0.10550064 0.48358988 -0.20950881
v -0.09874746 0.53545776 -0.18657906
v -0.10544840 0.48365396 -0.20960559
v -0.18669682 0.48366798 -0.15553508
v -0.18677839 0.48368224 -0.15557434
v -0.22520281 0.48353985 -0.08459247
v -0.16912059 0.53537009 -0.13667703
v -0.10534862 0.48354859 -0.20947063
v -0.24789503 0.38015104 -0.21923395
v -0.18672334 0.48362282 -0.15556462
v -0.10539781 0.48369043 -0.20957093
v -0.13703617 0.38018066 -0.28738655
v -0.24781728 0.38001826 -0.21918720
v -0.13691681 0.38004497 -0.28744173
v -0.00504300 0.22480330 -0.33557500
v -0.14367335 0.22488180 -0.31036858
v -0.00507295 0.38010326 -0.31160601
v -0.00505644 0.38012677 -0.31150682
v 0.13369562 0.22489768 -0.31020125
v -0.00506708 0.22477625 -0.33558217
v 0.12689879 0.38001986 -0.28742596
v 0.23790594 0.38006587 -0.21923539
v 0.12692255 0.38018975 -0.28743925
v 0.17219451 0.48367398 -0.15410500
v 0.23782772 0.38004108 -0.21910566
v 0.17226911 0.48369415 -0.15395016
v 0.21200585 0.48354432 -0.08424197
v 0.17224299 0.48370529 -0.15398421
v 0.12696204 0.38017514 -0.28738856
v 0.09512578 0.48363144 -0.20919043
v 0.09507597 0.48356131 -0.20928507
v -0.00509096 0.38004143 -0.31149302
v -0.00491741 0.48366195 -0.23912308
v -0.00508864 0.48355029 -0.23918900
v -0.13693027 0.38002393 -0.28748809
v -0.10548737 0.48353129 -0.20960685
v -0.00507932 0.48365341 -0.23920780
v -0.00495111 0.38019144 -0.31147568
v -0.13694865 0.38008643 -0.28733663
v 0.09515381 0.48356779 -0.20921825
v 0.12691848 0.38005139 -0.28737973
v -0.00505803 0.38012618 -0.31151548
vn -0.1800125040277132 0 0.9836643220091256
vn -0.16158920635954935 -0.4406691173430955 0.8830060347518289
vn 0.1800125040277132 0 0.9836643220091256
vn -0.17794700634157054 0.15097630538040438 0.972389334653438
vn -0.523687591615259 0 0.8519103863600969
vn -0.47283841357835904 -0.429854812344012 0.7691870220885131
vn -0.06307975063211958 -0.936588909385519 0.3447059034542835
vn 0.16158920635954935 -0.4406691173430955 0.8830060347518289
vn 0.523687591615259 0 0.8519103863600969
vn 0.17794700634157054 0.15097630538040438 0.972389334653438
vn -0.13964229891556446 0.6310327950995189 0.7630842940740326
vn -0.5180356965458053 0.1465164990230468 0.8427169943808727
vn -0.8091169913122035 0 0.5876475936902046
vn -0.7373533180201964 -0.41172591006218 0.5355295130878192
vn -0.14045539862117676 -0.9633625905428573 0.2284836977570199
vn -0.0778558372954204 -0.9633284665356048 0.2567814910798467
vn 0.10296759803742421 -0.9334696822079466 0.3435578934517417
vn 0.04954716806591794 -0.9613721624726757 0.27075568943100575
vn 0.47283841357835904 -0.429854812344012 0.7691870220885131
vn 0.8091169913122035 0 0.5876475936902046
vn 0.5180356965458053 0.1465164990230468 0.8427169943808727
vn 0.14835009882934938 0.5663998955304618 0.8106684936029057
vn -0.25017151210848787 0.5545251268394297 0.7936725384143432
vn -0.41829960654583254 0.6311585098767911 0.6531955102216412
vn -0.4022391215050997 0.6403404342348223 0.6543453349835732
vn -0.8012416063658004 0.1391914011058644 0.581925804623354
vn -0.9774157196353778 0 0.21132560424533595
vn -0.897385838140586 -0.39630161684356413 0.19401980824620668
vn -0.2152929098358097 -0.963949644038725 0.1563651071436509
vn -0.14069759376899194 -0.962768857362309 0.23082528977754888
vn 0 -1 0
vn 0.14878449612496514 -0.9624966749321452 0.22685529409164112
vn 0.1342198049093378 -0.9665985353551305 0.21833990798618605
vn 0.7373533180201964 -0.41172591006218 0.5355295130878192
vn 0.9774157196353778 0 0.21132560424533595
vn 0.8012416063658004 0.1391914011058644 0.581925804623354
vn 0.406500807469237 0.6304509115842014 0.6612781121506351
vn 0.2294815100140857 0.6355962277360693 0.7371266321666406
vn -0.2730607882351475 0.4183073819771827 0.8662890626758457
vn -0.4845525145723235 0.43895941320116666 0.7566528227554072
vn -0.6813646107640449 0.630966009967859 0.3709773058606162
vn -0.5893935996356958 0.6851109995765328 0.4280631997354143
vn -0.9687200103226613 0.13309520141825978 0.20944500223184181
vn -0.9774157196353778 0 -0.21132560424533595
vn -0.8973858381405863 -0.39630161684356413 -0.1940198082462069
vn -0.2456352021124198 -0.9679065083238269 0.0531068604567095
vn -0.21109819133848307 -0.966185060356703 0.14806749392467955
vn 0.23537549724749435 -0.9706408886492242 0.04954432942062322
vn 0.20496170125663046 -0.9676970059329988 0.14681010090009985
vn -0.24354599993973458 -0.9685335997603365 0.05126413998731448
vn -0.24609159961504873 -0.967861398486013 -0.051799979918971575
vn -0.21839050869735305 -0.9637638383816788 -0.15318240610045522
vn -0.1472658965495851 -0.9610933774817457 -0.23369269452462016
vn -0.09809483563181944 -0.9339317536188778 -0.3437279197341031
vn 0.07652867148134182 -0.9612236186061082 -0.26493870512833684
vn 0.14064520539392233 -0.967672137111456 -0.20935510802903462
vn 0.20032889771576778 -0.9688664889525871 -0.1454855983411138
vn 0.23302761138325603 -0.9711814474416186 -0.05004726244477832
vn 0.20173519367409581 -0.9684189696328365 0.1465182954055575
vn 0.897385838140586 -0.39630161684356413 0.19401980824620668
vn 0.9774157196353778 0 -0.21132560424533595
vn 0.9687200103226613 0.13309520141825978 0.20944500223184181
vn 0.6096179805471575 0.6575232790185046 0.44275168587184277
vn 0.43020268215427676 0.65818487269709 0.617833574370948
vn 0.27160029780684664 0.40634889671876095 0.8724183929552827
vn -0.2823205002622715 0.40504430037628 0.8696173008078617
vn -0.5155307053175188 0.4013561041398475 0.7570610078088194
vn -0.8371850649879753 0.41336748271250506 0.3581179850231016
vn -0.7544598249774 0.5119125169475474 0.4107748135992489
vn -0.702349702419212 0.6964826023990031 0.1470268005064274
vn -0.6991971084792962 0.6987636084740391 0.15117150183328568
vn -0.9687200103226613 0.1330952014182599 -0.20944500223184176
vn -0.8091169913122035 0 -0.5876475936902046
vn -0.7373533180201964 -0.4117259100621798 -0.5355295130878194
vn -0.2435284008652081 -0.968463603440759 -0.05265137018706009
vn 0.2330236931217014 -0.9711651713335414 0.0503802385128964
vn -0.209538599672202 -0.9658845984889894 -0.1521857997619238
vn -0.14144729832285796 -0.962833288583676 -0.23009719727173544
vn -0.05094067952734787 -0.9591218911008056 -0.278370697417143
vn 0.06307975063211958 -0.9365889093855188 -0.3447059034542839
vn 0.14343479838912035 -0.961760589198712 -0.23333029737952715
vn 0.7373533180201964 -0.4117259100621798 -0.5355295130878194
vn 0.2335044013073399 -0.9710443054366639 -0.05048417028265001
vn 0.8973858381405863 -0.39630161684356413 -0.1940198082462069
vn 0.8091169913122035 0 -0.5876475936902046
vn 0.9687200103226613 0.1330952014182599 -0.20944500223184176
vn 0.6913230991114218 0.7069167990913787 0.14946909980788306
vn 0.6203293941407222 0.7041444933490524 0.3455024967365805
vn 0.5236715884284997 0.4002010911568104 0.7520685833816423
vn 0.27718020522626885 0.41826910788651833 0.864998316309656
vn 0 1 0
vn -0.8417204579451976 0.5106578744860472 0.17531459124077317
vn -0.8409827039790508 0.5116203024206958 0.17604760083295704
vn -0.6996974127840737 0.6992636127761478 -0.14647160267616202
vn -0.7010658814571653 0.6968008815699723 -0.1515755959909027
vn -0.8012416063658004 0.13919140110586467 -0.581925804623354
vn -0.523687591615259 0 -0.8519103863600969
vn -0.47283841357835904 -0.4298548123440117 -0.7691870220885133
vn -0.16158920635954935 -0.44066911734309505 -0.8830060347518291
vn 0.16158920635954935 -0.44066911734309505 -0.8830060347518291
vn 0.47283841357835904 -0.4298548123440117 -0.7691870220885133
vn 0.523687591615259 0 -0.8519103863600969
vn 0.8012416063658004 0.13919140110586467 -0.581925804623354
vn 0.6894795953709649 0.7087988952412589 -0.14907049899916883
vn 0.6899593977916608 0.7092919977297834 0.14443299953771638
vn 0.8234812259815865 0.33394271053619806 0.45865121447086565
vn 0.5180051030407781 0.38318380224935394 0.7647489044892062
vn 0.8223684237643673 0.47862371383101454 0.3076191088894142
vn 0.8625915386292221 0.4729244211788566 0.17966170804574566
vn 0.8619307259726711 0.47221061422918403 -0.18464170556383247
vn 0.8862020925463936 0.30632119742361524 -0.3475818970765825
vn 0.5242943877914699 0.4001333906826382 -0.7516705824968696
vn 0.2687709031059085 0.4066842046996306 -0.8731381100899578
vn -0.26390639947890493 0.41836429917392104 -0.8690941982839343
vn -0.5188795914054835 0.44159319268562497 -0.7319558878761717
vn -0.7880737259458068 0.5150696169576734 -0.33710991109869326
vn -0.8411137212772588 0.5116999129442324 -0.17518820443165362
vn -0.8415077176446919 0.5107184107087183 -0.17615750369366165
vn -0.6309932318847796 0.6955714351479871 -0.3435519173600548
vn -0.6196123797489239 0.6430949789814314 -0.45001038529210363
vn -0.5180356965458053 0.1465164990230472 -0.8427169943808727
vn -0.1800125040277132 0 -0.9836643220091256
vn 0.1800125040277132 0 -0.9836643220091256
vn 0.5180356965458053 0.1465164990230472 -0.8427169943808727
vn 0.5813264212222633 0.6955596253925316 -0.42220421541324904
vn 0.6902590100250284 0.7082552102863977 -0.14804410215012948
vn 0.8629605052409188 0.4718743028657799 0.1806483010971107
vn 0.861752328933391 0.47246431586302046 -0.18482530620552168
vn 0.7636060228244708 0.4764935142425702 -0.43572901302410366
vn 0.5377925970690627 0.3823555979161852 -0.7513875959049827
vn 0.2605534968345421 0.41839629491691405 -0.8700898894292995
vn -0.25883949070747997 0.4078309853585806 -0.8756003685653299
vn -0.5066786016371647 0.40256270130074867 -0.7623779024633726
vn -0.7945701589749771 0.42603277800319556 -0.43261337766342767
vn -0.42391441330824636 0.6429999201861534 -0.6378461200243563
vn -0.4088678105395696 0.6248449161069088 -0.6651285171453171
vn -0.17794700634157054 0.15097630538040482 -0.972389334653438
vn 0.17794700634157054 0.15097630538040482 -0.972389334653438
vn 0.3953760035691304 0.6557410059194922 -0.6431808058061088
vn 0.6575111807798668 0.6533851809004767 -0.3751890890326057
vn 0.4559961782731871 0.6214223703911389 -0.6371041696439492
vn 0.23839799369074713 0.5562238852794185 -0.7961038789309438
vn -0.2205361027617229 0.628335807868505 -0.7460281093423383
vn -0.14835009882934938 0.5663998955304622 -0.8106684936029055
vn 0.14069920542309902 0.6237456240416022 -0.7688596296348645
usemtl material_0_0
f 1//1 2//1 3//1
f 2//1 1//1 4//1
f 4//1 1//1 5//1
f 4//1 5//1 6//1
f 7//2 8//2 9//2
f 8//2 7//2 10//2
f 11//3 12//3 13//3
f 12//3 11//3 14//3
f 14//3 11//3 15//3
f 14//3 15//3 16//3
f 16//3 15//3 17//3
f 18//4 19//4 20//4
f 19//4 18//4 21//4
f 22//5 23//5 24//5
f 23//5 22//5 25//5
f 26//6 27//6 28//6
f 27//6 26//6 29//6
f 30//7 31//7 32//7
f 33//8 34//8 35//8
f 34//8 33//8 36//8
f 37//9 38//9 39//9
f 38//9 37//9 40//9
f 40//9 37//9 41//9
f 42//10 43//10 44//10
f 43//10 42//10 45//10
f 46//11 47//11 48//11
f 49//12 50//12 51//12
f 50//12 49//12 52//12
f 53//13 54//13 55//13
f 54//13 53//13 56//13
f 57//14 58//14 59//14
f 58//14 57//14 60//14
f 61//15 62//15 63//15
f 64//16 65//16 66//16
f 67//17 68//17 69//17
f 70//18 71//18 72//18
f 73//19 74//19 75//19
f 74//19 73//19 76//19
f 77//20 78//20 79//20
f 78//20 77//20 80//20
f 81//21 82//21 83//21
f 82//21 81//21 84//21
f 85//22 86//22 87//22
f 88//23 89//23 90//23
f 91//24 92//24 93//24
f 94//25 95//25 96//25
f 97//26 98//26 99//26
f 98//26 97//26 100//26
f 101//27 102//27 103//27
f 102//27 101//27 104//27
f 105//28 106//28 107//28
f 106//28 105//28 108//28
f 109//29 110//29 111//29
f 112//30 113//30 114//30
f 115//31 116//31 117//31
f 116//31 115//31 118//31
f 116//31 118//31 119//31
f 119//31 118//31 120//31
f 119//31 120//31 121//31
f 121//31 120//31 122//31
f 121//31 122//31 123//31
f 123//31 122//31 124//31
f 123//31 124//31 125//31
f 125//31 124//31 126//31
f 125//31 126//31 127//31
f 127//31 126//31 128//31
f 127//31 128//31 129//31
f 129//31 128//31 130//31
f 131//32 132//32 133//32
f 134//33 135//33 136//33
f 137//34 138//34 139//34
f 138//34 137//34 140//34
f 141//35 142//35 143//35
f 142//35 141//35 144//35
f 145//36 146//36 147//36
f 146//36 145//36 148//36
f 149//37 150//37 151//37
f 152//38 153//38 154//38
f 155//39 156//39 157//39
f 158//40 159//40 160//40
f 161//41 162//41 163//41
f 164//42 165//42 166//42
f 167//43 168//43 169//43
f 168//43 167//43 170//43
f 171//44 172//44 173//44
f 172//44 171//44 174//44
f 175//45 176//45 177//45
f 176//45 175//45 178//45
f 179//46 180//46 181//46
f 182//47 183//47 184//47
f 185//48 186//48 187//48
f 188//49 189//49 190//49
f 191//50 192//50 193//50
f 194//51 195//51 196//51
f 197//52 198//52 199//52
f 200//53 201//53 202//53
f 203//54 204//54 205//54
f 206//55 207//55 208//55
f 209//56 210//56 211//56
f 212//57 213//57 214//57
f 213//57 212//57 215//57
f 216//58 217//58 218//58
f 219//59 220//59 221//59
f 222//60 223//60 224//60
f 223//60 222//60 225//60
f 226//61 227//61 228//61
f 227//61 226//61 229//61
f 230//62 231//62 232//62
f 231//62 230//62 233//62
f 234//63 235//63 236//63
f 237//64 238//64 239//64
f 240//65 241//65 242//65
f 243//66 244//66 245//66
f 246//67 247//67 248//67
f 249//68 250//68 251//68
f 252//69 253//69 254//69
f 255//70 256//70 257//70
f 258//71 259//71 260//71
f 261//72 262//72 263//72
f 262//72 261//72 264//72
f 265//73 266//73 267//73
f 266//73 265//73 268//73
f 269//74 270//74 271//74
f 270//74 269//74 272//74
f 273//75 274//75 275//75
f 276//76 277//76 278//76
f 279//77 280//77 281//77
f 282//78 283//78 284//78
f 285//79 286//79 287//79
f 288//80 289//80 290//80
f 291//81 292//81 293//81
f 294//82 295//82 296//82
f 295//82 294//82 297//82
f 298//83 299//83 300//83
f 301//84 302//84 303//84
f 302//84 301//84 304//84
f 305//85 306//85 307//85
f 306//85 305//85 308//85
f 309//86 310//86 311//86
f 310//86 309//86 312//86
f 313//87 314//87 315//87
f 316//88 317//88 318//88
f 319//89 320//89 321//89
f 322//90 323//90 324//90
f 325//91 326//91 327//91
f 326//91 325//91 328//91
f 326//91 328//91 329//91
f 329//91 328//91 330//91
f 329//91 330//91 331//91
f 331//91 330//91 332//91
f 331//91 332//91 333//91
f 333//91 332//91 334//91
f 333//91 334//91 335//91
f 335//91 334//91 336//91
f 336//91 334//91 337//91
f 336//91 337//91 338//91
f 338//91 337//91 339//91
f 338//91 339//91 340//91
f 341//92 342//92 343//92
f 344//93 345//93 346//93
f 347//94 348//94 349//94
f 350//95 351//95 352//95
f 353//96 354//96 355//96
f 354//96 353//96 356//96
f 357//97 358//97 359//97
f 358//97 357//97 360//97
f 361//98 362//98 363//98
f 362//98 361//98 364//98
f 365//99 366//99 367//99
f 366//99 365//99 368//99
f 369//100 370//100 371//100
f 370//100 369//100 372//100
f 373//101 374//101 375//101
f 374//101 373//101 376//101
f 377//102 378//102 379//102
f 378//102 377//102 380//102
f 381//103 382//103 383//103
f 382//103 381//103 384//103
f 385//104 386//104 387//104
f 388//105 389//105 390//105
f 391//106 392//106 393//106
f 394//107 395//107 396//107
f 397//108 398//108 399//108
f 400//109 401//109 402//109
f 403//110 404//110 405//110
f 406//111 407//111 408//111
f 409//112 410//112 411//112
f 412//113 413//113 414//113
f 415//114 416//114 417//114
f 418//115 419//115 420//115
f 421//116 422//116 423//116
f 424//117 425//117 426//117
f 427//118 428//118 429//118
f 430//119 431//119 432//119
f 433//120 434//120 435//120
f 436//121 437//121 438//121
f 437//121 436//121 439//121
f 440//122 441//122 442//122
f 441//122 440//122 443//122
f 444//123 445//123 446//123
f 445//123 444//123 447//123
f 448//124 449//124 450//124
f 449//124 448//124 451//124
f 452//125 453//125 454//125
f 455//126 456//126 457//126
f 458//127 459//127 460//127
f 461//128 462//128 463//128
f 464//129 465//129 466//129
f 467//130 468//130 469//130
f 470//131 471//131 472//131
f 473//132 474//132 475//132
f 476//133 477//133 478//133
f 479//134 480//134 481//134
f 482//135 483//135 484//135
f 485//136 486//136 487//136
f 488//137 489//137 490//137
f 489//137 488//137 491//137
f 492//138 493//138 494//138
f 493//138 492//138 495//138
f 496//139 497//139 498//139
f 499//140 500//140 501//140
f 502//141 503//141 504//141
f 505//142 506//142 507//142
f 508//143 509//143 510//143
f 511//144 512//144 513//144
f 514//145 515//145 516//145
