# SSTK version 0.8.0
# 18
mtllib original-18.mtl
o #ID111
v 0.09142258 -0.07812750 0.25388173
v 0.09206558 -0.08498489 0.33102035
v 0.09145543 -0.07820232 0.33112414
v 0.09205549 -0.08489986 0.25379997
v 0.09204674 -0.08486660 0.25399146
v 0.09147092 -0.07820784 0.25380492
v 0.09215838 -0.08481459 0.33103574
v 0.09143030 -0.07814333 0.33105807
v 0.09135038 -0.09149287 0.33114248
v 0.09140349 -0.09149507 0.25395801
v 0.09134316 -0.09148388 0.25379978
v 0.09147634 -0.09144093 0.33101370
v 0.09064312 -0.07554853 0.25386924
v 0.09066135 -0.07561900 0.33100792
v 0.09065789 -0.07559264 0.25383265
v 0.09062570 -0.07555779 0.33094882
v 0.09063963 -0.09407155 0.33104659
v 0.09056228 -0.09403593 0.25391568
v 0.09066317 -0.09407351 0.25395866
v 0.09064673 -0.09417052 0.33104636
v 0.08947647 -0.07349866 0.25394146
v 0.08963808 -0.07343646 0.33100919
v 0.08953155 -0.07345284 0.25380167
v 0.08959590 -0.07355055 0.33106924
v 0.08948912 -0.09621198 0.33094951
v 0.08945082 -0.09629035 0.25386182
v 0.08954157 -0.09622272 0.25395762
v 0.08959986 -0.09613751 0.33114477
v 0.08816940 -0.07197355 0.25399132
v 0.08808170 -0.07187666 0.33100774
v 0.08816145 -0.07197862 0.25394880
v 0.08813922 -0.07187467 0.33104390
v 0.08810892 -0.09784338 0.33109258
v 0.08822207 -0.09776260 0.25391820
v 0.08805217 -0.09777559 0.25384766
v 0.08812635 -0.09779609 0.33110490
v 0.08657736 -0.07073809 0.33099031
v 0.08652082 -0.07064396 0.25382171
v 0.08641578 -0.07062822 0.33102645
v 0.08656188 -0.07070925 0.25388808
v 0.08644919 -0.09910850 0.25383964
v 0.08652228 -0.09893010 0.33113032
v 0.08647450 -0.09896887 0.25393340
v 0.08654615 -0.09907150 0.33109068
v 0.08464970 -0.06993213 0.33102811
v 0.08456551 -0.07001566 0.25390332
v 0.08461458 -0.06997785 0.33112705
v 0.08448302 -0.06994159 0.25385187
v 0.08453255 -0.09964293 0.25391932
v 0.08452584 -0.09974655 0.33104906
v 0.08452469 -0.09971506 0.25398644
v 0.08450801 -0.09980715 0.33106971
v 0.08247092 -0.06977975 0.33102362
v 0.08246710 -0.06970867 0.25395321
v 0.08247559 -0.06978760 0.33110447
v 0.08237319 -0.06969050 0.25384957
v 0.08232935 -0.09994872 0.25385085
v 0.08242205 -0.09996855 0.33112563
v 0.08240310 -0.09991647 0.25390152
v 0.08231084 -0.09993263 0.33100452
v 0.08023851 -0.07009919 0.33097000
v 0.08009901 -0.07010207 0.25395397
v 0.08018736 -0.06992376 0.33112612
v 0.08013456 -0.06993448 0.25382058
v 0.08024410 -0.09980808 0.25388045
v 0.08017050 -0.09964034 0.33104407
v 0.08013504 -0.09975184 0.25383543
v 0.08010374 -0.09967900 0.33094963
v 0.07820528 -0.07070978 0.33099057
v 0.07825961 -0.07078329 0.25388509
v 0.07820339 -0.07067366 0.33100661
v 0.07830961 -0.07067374 0.25394222
v 0.07820697 -0.09902813 0.25386243
v 0.07826938 -0.09894110 0.33106840
v 0.07828022 -0.09909632 0.25379306
v 0.07813298 -0.09892750 0.33105814
v 0.07647249 -0.07194830 0.33098364
v 0.07654603 -0.07191540 0.25385898
v 0.07647089 -0.07183489 0.33096137
v 0.07660368 -0.07188416 0.25392409
v 0.07658509 -0.09777341 0.25398161
v 0.07646367 -0.09772997 0.33109381
v 0.07655531 -0.09776924 0.25391339
v 0.07655933 -0.09784603 0.33114297
v 0.07522506 -0.07353041 0.25398146
v 0.07512908 -0.07342505 0.33098644
v 0.07515006 -0.07354792 0.25388820
v 0.07506150 -0.07347089 0.33104435
v 0.07514896 -0.09621476 0.33113785
v 0.07522880 -0.09605067 0.25395003
v 0.07517054 -0.09610904 0.25385760
v 0.07524071 -0.09620770 0.33106937
v 0.07395767 -0.07569600 0.25383560
v 0.07399804 -0.07557687 0.33103969
v 0.07410634 -0.07555772 0.25395663
v 0.07407969 -0.07559701 0.33101866
v 0.07410189 -0.09400012 0.33105684
v 0.07405748 -0.09392886 0.25394024
v 0.07404664 -0.09390174 0.25394637
v 0.07411097 -0.09391794 0.33113025
v 0.07323167 -0.07825255 0.25383670
v 0.07322554 -0.07817066 0.33104077
v 0.07327206 -0.07812250 0.25394378
v 0.07327133 -0.07826264 0.33104174
v 0.07328038 -0.09146582 0.33105146
v 0.07319530 -0.09143451 0.25380182
v 0.07330409 -0.09140382 0.25386822
v 0.07326354 -0.09147109 0.33094941
v 0.07266415 -0.08492834 0.33113276
v 0.07271448 -0.08492396 0.25382976
v 0.07255664 -0.08482540 0.25381471
v 0.07267041 -0.08484123 0.33101825
vn -0.981265573827999 -0.19265999486143434 0
vn -0.999999681635067 0.0007979534853456329 0
vn 0.999999681635067 -0.0007979534853456329 0
vn 0.981265573827999 0.19265999486143434 0
vn -0.98084929948911 0.19476819989855207 0
vn 0.98084929948911 -0.19476819989855207 0
vn -0.9258278037902465 -0.3779456015472715 0
vn 0.9258278037902465 0.3779456015472715 0
vn -0.9251503366031574 0.37960091501873966 0
vn 0.9251503366031574 -0.37960091501873966 0
vn -0.8286039834382615 -0.559835188810283 0
vn 0.8286039834382615 0.559835188810283 0
vn -0.829168800706315 0.5589983004761743 0
vn 0.829168800706315 -0.5589983004761743 0
vn -0.6726648202013591 -0.7399473222219762 0
vn 0.6726648202013591 0.7399473222219762 0
vn -0.6754793246908976 0.737378926953523 0
vn 0.6754793246908976 -0.737378926953523 0
vn -0.4616374074788838 -0.8870687143712008 0
vn 0.4616374074788838 0.8870687143712008 0
vn -0.4655946073208304 0.8849981139153696 0
vn 0.4655946073208304 -0.8849981139153696 0
vn -0.22488398752530778 -0.9743855459491984 0
vn 0.22488398752530778 0.9743855459491984 0
vn -0.22772369804985057 0.9737257916613387 0
vn 0.22772369804985057 -0.9737257916613387 0
vn -0.0003551726131151777 -0.9999999369262056 0
vn 0.0003551726131151777 0.9999999369262056 0
vn 0.00031502098436893787 0.9999999503808885 0
vn -0.00031502098436893787 -0.9999999503808885 0
vn 0.22349430792963074 -0.9747052345827715 0
vn -0.22349430792963074 0.9747052345827715 0
vn 0.22933909695892116 0.9733465870932442 0
vn -0.22933909695892116 -0.9733465870932442 0
vn 0.4593151013238449 -0.888273402560195 0
vn -0.4593151013238449 0.888273402560195 0
vn 0.46916971241843225 0.8831080233749469 0
vn -0.46916971241843225 -0.8831080233749469 0
vn 0.6703449906536614 -0.7420495896539142 0
vn -0.6703449906536614 0.7420495896539142 0
vn 0.6803181879050143 0.7329168869698923 0
vn -0.6803181879050143 -0.7329168869698923 0
vn 0.8269868956578846 -0.5622211970480435 0
vn -0.8269868956578846 0.5622211970480435 0
vn 0.8325112835606912 0.5540080890601963 0
vn -0.8325112835606912 -0.5540080890601963 0
vn 0.9250041430747568 -0.37995701769349494 0
vn -0.9250041430747568 0.37995701769349494 0
vn 0.9258644496351315 0.3778558202566621 0
vn -0.9258644496351315 -0.3778558202566621 0
vn 0.9810390653738245 -0.1938100931593934 0
vn -0.9810390653738245 0.1938100931593934 0
vn 0.9806772795079933 0.19563249591210838 0
vn -0.9806772795079933 -0.19563249591210838 0
vn 0.999999344046328 0.0011453850504500387 0
vn -0.999999344046328 -0.0011453850504500387 0
usemtl material_0_0
f 1//1 2//2 3//1
f 2//2 1//1 4//2
f 5//3 6//4 7//3
f 8//4 7//3 6//4
f 4//2 9//5 2//2
f 9//5 4//2 10//5
f 11//6 5//3 12//6
f 7//3 12//6 5//3
f 13//7 3//1 14//7
f 3//1 13//7 1//1
f 6//4 15//8 8//4
f 16//8 8//4 15//8
f 10//5 17//9 9//5
f 17//9 10//5 18//9
f 19//10 11//6 20//10
f 12//6 20//10 11//6
f 21//11 14//7 22//11
f 14//7 21//11 13//7
f 15//8 23//12 16//8
f 24//12 16//8 23//12
f 18//9 25//13 17//9
f 25//13 18//9 26//13
f 27//14 19//10 28//14
f 20//10 28//14 19//10
f 29//15 22//11 30//15
f 22//11 29//15 21//11
f 23//12 31//16 24//12
f 32//16 24//12 31//16
f 26//13 33//17 25//13
f 33//17 26//13 34//17
f 35//18 27//14 36//18
f 28//14 36//18 27//14
f 29//15 37//19 38//19
f 37//19 29//15 30//15
f 32//16 31//16 39//20
f 40//20 39//20 31//16
f 33//17 41//21 42//21
f 41//21 33//17 34//17
f 35//18 36//18 43//22
f 44//22 43//22 36//18
f 38//19 45//23 46//23
f 45//23 38//19 37//19
f 39//20 40//20 47//24
f 48//24 47//24 40//20
f 42//21 49//25 50//25
f 49//25 42//21 41//21
f 43//22 44//22 51//26
f 52//26 51//26 44//22
f 46//23 53//27 54//27
f 53//27 46//23 45//23
f 47//24 48//24 55//28
f 56//28 55//28 48//24
f 50//25 57//29 58//29
f 57//29 50//25 49//25
f 51//26 52//26 59//30
f 60//30 59//30 52//26
f 54//27 61//31 62//31
f 61//31 54//27 53//27
f 55//28 56//28 63//32
f 64//32 63//32 56//28
f 58//29 65//33 66//33
f 65//33 58//29 57//29
f 59//30 60//30 67//34
f 68//34 67//34 60//30
f 62//31 69//35 70//35
f 69//35 62//31 61//31
f 63//32 64//32 71//36
f 72//36 71//36 64//32
f 66//33 73//37 74//37
f 73//37 66//33 65//33
f 67//34 68//34 75//38
f 76//38 75//38 68//34
f 70//35 77//39 78//39
f 77//39 70//35 69//35
f 71//36 72//36 79//40
f 80//40 79//40 72//36
f 74//37 81//41 82//41
f 81//41 74//37 73//37
f 75//38 76//38 83//42
f 84//42 83//42 76//38
f 85//43 77//39 86//43
f 77//39 85//43 78//39
f 80//40 87//44 79//40
f 88//44 79//40 87//44
f 81//41 89//45 82//41
f 89//45 81//41 90//45
f 91//46 83//42 92//46
f 84//42 92//46 83//42
f 93//47 86//43 94//47
f 86//43 93//47 85//43
f 87//44 95//48 88//44
f 96//48 88//44 95//48
f 90//45 97//49 89//45
f 97//49 90//45 98//49
f 99//50 91//46 100//50
f 92//46 100//50 91//46
f 101//51 94//47 102//51
f 94//47 101//51 93//47
f 95//48 103//52 96//48
f 104//52 96//48 103//52
f 98//49 105//53 97//49
f 105//53 98//49 106//53
f 107//54 99//50 108//54
f 100//50 108//54 99//50
f 109//55 101//51 102//51
f 101//51 109//55 110//55
f 111//56 112//56 103//52
f 104//52 103//52 112//56
f 106//53 109//55 105//53
f 109//55 106//53 110//55
f 111//56 107//54 112//56
f 108//54 112//56 107//54
