# SSTK version 0.8.0
# 15
mtllib original-15.mtl
o #ID93
v 0.12604425 -0.09415609 0.25389018
v 0.12496740 -0.09611956 0.33099907
v 0.12605056 -0.09411046 0.33109435
v 0.12496102 -0.09628940 0.25396356
v 0.12498550 -0.09616572 0.25398808
v 0.12606687 -0.09404591 0.25396052
v 0.12486345 -0.09615099 0.33105086
v 0.12610046 -0.09403932 0.33100584
v 0.12355867 -0.09776522 0.33097265
v 0.12356430 -0.09780330 0.25386602
v 0.12359979 -0.09792617 0.25393751
v 0.12361930 -0.09782378 0.33095050
v 0.12689195 -0.09156731 0.25386588
v 0.12683194 -0.09148723 0.33103740
v 0.12690442 -0.09140513 0.25388958
v 0.12691031 -0.09154980 0.33101387
v 0.12199445 -0.09909748 0.25381451
v 0.12190614 -0.09900687 0.33109374
v 0.12193000 -0.09903803 0.25398767
v 0.12192351 -0.09896428 0.33096469
v 0.12751957 -0.08497005 0.25390131
v 0.12751808 -0.08481404 0.33106988
v 0.12742516 -0.08480879 0.25386471
v 0.12752360 -0.08484638 0.33103858
v 0.12007165 -0.09980225 0.25394307
v 0.11994320 -0.09972704 0.33113375
v 0.11988334 -0.09975597 0.25392004
v 0.11994442 -0.09965292 0.33101788
v 0.12676390 -0.07828986 0.25385302
v 0.12693883 -0.07822220 0.33108717
v 0.12680902 -0.07824406 0.25386023
v 0.12690793 -0.07815319 0.33114471
v 0.11773003 -0.10005085 0.25393702
v 0.11780344 -0.09989636 0.33109074
v 0.11781307 -0.09995051 0.25391987
v 0.11773844 -0.09997704 0.33110278
v 0.12616888 -0.07554322 0.25395372
v 0.12599828 -0.07553617 0.33105827
v 0.12605431 -0.07563330 0.25397592
v 0.12601055 -0.07562066 0.33112654
v 0.11555592 -0.09967321 0.25384743
v 0.11569311 -0.09964691 0.33098074
v 0.11556876 -0.09982159 0.25392420
v 0.11550012 -0.09968621 0.33113658
v 0.12502208 -0.07344248 0.25398844
v 0.12495014 -0.07356382 0.33104414
v 0.12498803 -0.07347823 0.25398654
v 0.12488518 -0.07344654 0.33100428
v 0.11364013 -0.09891473 0.25393029
v 0.11367854 -0.09906801 0.33101097
v 0.11363257 -0.09910097 0.25394644
v 0.11356503 -0.09903685 0.33105229
v 0.12349173 -0.07180452 0.25390290
v 0.12348605 -0.07186736 0.33104639
v 0.12362668 -0.07179390 0.25383936
v 0.12350640 -0.07189834 0.33111152
v 0.11190042 -0.09781009 0.25392769
v 0.11203778 -0.09790019 0.33096402
v 0.11189930 -0.09771339 0.25391923
v 0.11205261 -0.09782457 0.33110058
v 0.12197749 -0.07068654 0.33100763
v 0.12182431 -0.07071862 0.25391367
v 0.12194963 -0.07081608 0.33097470
v 0.12185502 -0.07077347 0.25392691
v 0.11067413 -0.09617977 0.33106145
v 0.11054658 -0.09612412 0.25388658
v 0.11062453 -0.09621758 0.25396079
v 0.11056710 -0.09611373 0.33102436
v 0.11994273 -0.06998058 0.33111049
v 0.12005819 -0.07006850 0.25397760
v 0.12004055 -0.07008065 0.33095782
v 0.12000149 -0.07008601 0.25383925
v 0.10940393 -0.09394993 0.33106917
v 0.10942956 -0.09399953 0.25397939
v 0.10957319 -0.09396972 0.25383954
v 0.10955356 -0.09409645 0.33100021
v 0.11787334 -0.06987027 0.33100350
v 0.11781512 -0.06974843 0.25394598
v 0.11771833 -0.06980812 0.33099768
v 0.11779998 -0.06977488 0.25391326
v 0.10875902 -0.09145281 0.33103680
v 0.10871808 -0.09142161 0.25392840
v 0.10867048 -0.09137019 0.25396170
v 0.10871502 -0.09132000 0.33100869
v 0.11554933 -0.06994449 0.33112635
v 0.11557419 -0.06993947 0.25397411
v 0.11552333 -0.06992585 0.33100303
v 0.11552886 -0.07011019 0.25394792
v 0.10798746 -0.08497104 0.33106014
v 0.10815379 -0.08487283 0.25388932
v 0.10800070 -0.08485665 0.25391606
v 0.10814252 -0.08484548 0.33107783
v 0.11375651 -0.07071779 0.33104352
v 0.11368495 -0.07072729 0.25386892
v 0.11362709 -0.07072181 0.33101799
v 0.11360434 -0.07064517 0.25390381
v 0.10868705 -0.07813467 0.25396052
v 0.10871488 -0.07831292 0.33106713
v 0.10872081 -0.07821470 0.25380305
v 0.10862736 -0.07824534 0.33108549
v 0.11195987 -0.07194644 0.33104518
v 0.11206408 -0.07192134 0.25389222
v 0.11191858 -0.07197612 0.33099664
v 0.11206334 -0.07180190 0.25389464
v 0.10953257 -0.07566565 0.33110908
v 0.10954911 -0.07559247 0.25380993
v 0.10944462 -0.07556727 0.25388183
v 0.10956460 -0.07560461 0.33094867
v 0.11066394 -0.07352414 0.25386457
v 0.11059789 -0.07360628 0.33106726
v 0.11049377 -0.07347296 0.25396286
v 0.11060039 -0.07350891 0.33112245
vn -0.9251503366031574 0.37960091501873966 0
vn -0.829168800706315 0.5589983004761743 0
vn 0.829168800706315 -0.5589983004761743 0
vn 0.9251503366031574 -0.37960091501873966 0
vn -0.6754793246908976 0.737378926953523 0
vn 0.6754793246908976 -0.737378926953523 0
vn -0.98084929948911 0.19476819989855207 0
vn 0.98084929948911 -0.19476819989855207 0
vn -0.4655946073208304 0.8849981139153696 0
vn 0.4655946073208304 -0.8849981139153696 0
vn -0.999999681635067 0.0007979534853456329 0
vn 0.999999681635067 -0.0007979534853456329 0
vn -0.22772369804985057 0.9737257916613387 0
vn 0.22772369804985057 -0.9737257916613387 0
vn -0.981265573827999 -0.19265999486143434 0
vn 0.981265573827999 0.19265999486143434 0
vn 0.00031502098436893787 0.9999999503808885 0
vn -0.00031502098436893787 -0.9999999503808885 0
vn -0.9258278037902465 -0.3779456015472715 0
vn 0.9258278037902465 0.3779456015472715 0
vn 0.22933909695892116 0.9733465870932442 0
vn -0.22933909695892116 -0.9733465870932442 0
vn -0.8286039834382615 -0.559835188810283 0
vn 0.8286039834382615 0.559835188810283 0
vn 0.46916971241843225 0.8831080233749469 0
vn -0.46916971241843225 -0.8831080233749469 0
vn -0.6726648202013591 -0.7399473222219762 0
vn 0.6726648202013591 0.7399473222219762 0
vn 0.6803181879050143 0.7329168869698923 0
vn -0.6803181879050143 -0.7329168869698923 0
vn -0.4616374074788838 -0.8870687143712008 0
vn 0.4616374074788838 0.8870687143712008 0
vn 0.8325112835606912 0.5540080890601963 0
vn -0.8325112835606912 -0.5540080890601963 0
vn -0.22488398752530778 -0.9743855459491984 0
vn 0.22488398752530778 0.9743855459491984 0
vn 0.9258644496351315 0.3778558202566621 0
vn -0.9258644496351315 -0.3778558202566621 0
vn -0.0003551726131151777 -0.9999999369262056 0
vn 0.0003551726131151777 0.9999999369262056 0
vn 0.9806772795079933 0.19563249591210838 0
vn -0.9806772795079933 -0.19563249591210838 0
vn 0.22349430792963074 -0.9747052345827715 0
vn -0.22349430792963074 0.9747052345827715 0
vn 0.999999344046328 0.0011453850504500387 0
vn -0.999999344046328 -0.0011453850504500387 0
vn 0.4593151013238449 -0.888273402560195 0
vn -0.4593151013238449 0.888273402560195 0
vn 0.9810390653738245 -0.1938100931593934 0
vn -0.9810390653738245 0.1938100931593934 0
vn 0.6703449906536614 -0.7420495896539142 0
vn -0.6703449906536614 0.7420495896539142 0
vn 0.9250041430747568 -0.37995701769349494 0
vn -0.9250041430747568 0.37995701769349494 0
vn 0.8269868956578846 -0.5622211970480435 0
vn -0.8269868956578846 0.5622211970480435 0
usemtl material_0_0
f 1//1 2//2 3//1
f 2//2 1//1 4//2
f 5//3 6//4 7//3
f 8//4 7//3 6//4
f 4//2 9//5 2//2
f 9//5 4//2 10//5
f 11//6 5//3 12//6
f 7//3 12//6 5//3
f 13//7 3//1 14//7
f 3//1 13//7 1//1
f 6//4 15//8 8//4
f 16//8 8//4 15//8
f 9//5 17//9 18//9
f 17//9 9//5 10//5
f 11//6 12//6 19//10
f 20//10 19//10 12//6
f 21//11 14//7 22//11
f 14//7 21//11 13//7
f 15//8 23//12 16//8
f 24//12 16//8 23//12
f 18//9 25//13 26//13
f 25//13 18//9 17//9
f 19//10 20//10 27//14
f 28//14 27//14 20//10
f 29//15 22//11 30//15
f 22//11 29//15 21//11
f 23//12 31//16 24//12
f 32//16 24//12 31//16
f 26//13 33//17 34//17
f 33//17 26//13 25//13
f 27//14 28//14 35//18
f 36//18 35//18 28//14
f 37//19 30//15 38//19
f 30//15 37//19 29//15
f 31//16 39//20 32//16
f 40//20 32//16 39//20
f 34//17 41//21 42//21
f 41//21 34//17 33//17
f 35//18 36//18 43//22
f 44//22 43//22 36//18
f 45//23 38//19 46//23
f 38//19 45//23 37//19
f 39//20 47//24 40//20
f 48//24 40//20 47//24
f 42//21 49//25 50//25
f 49//25 42//21 41//21
f 43//22 44//22 51//26
f 52//26 51//26 44//22
f 53//27 46//23 54//27
f 46//23 53//27 45//23
f 47//24 55//28 48//24
f 56//28 48//24 55//28
f 50//25 57//29 58//29
f 57//29 50//25 49//25
f 51//26 52//26 59//30
f 60//30 59//30 52//26
f 53//27 61//31 62//31
f 61//31 53//27 54//27
f 56//28 55//28 63//32
f 64//32 63//32 55//28
f 57//29 65//33 58//29
f 65//33 57//29 66//33
f 67//34 59//30 68//34
f 60//30 68//34 59//30
f 62//31 69//35 70//35
f 69//35 62//31 61//31
f 63//32 64//32 71//36
f 72//36 71//36 64//32
f 66//33 73//37 65//33
f 73//37 66//33 74//37
f 75//38 67//34 76//38
f 68//34 76//38 67//34
f 70//35 77//39 78//39
f 77//39 70//35 69//35
f 71//36 72//36 79//40
f 80//40 79//40 72//36
f 74//37 81//41 73//37
f 81//41 74//37 82//41
f 83//42 75//38 84//42
f 76//38 84//42 75//38
f 78//39 85//43 86//43
f 85//43 78//39 77//39
f 79//40 80//40 87//44
f 88//44 87//44 80//40
f 82//41 89//45 81//41
f 89//45 82//41 90//45
f 91//46 83//42 92//46
f 84//42 92//46 83//42
f 86//43 93//47 94//47
f 93//47 86//43 85//43
f 87//44 88//44 95//48
f 96//48 95//48 88//44
f 89//45 97//49 98//49
f 97//49 89//45 90//45
f 91//46 92//46 99//50
f 100//50 99//50 92//46
f 94//47 101//51 102//51
f 101//51 94//47 93//47
f 95//48 96//48 103//52
f 104//52 103//52 96//48
f 97//49 105//53 98//49
f 105//53 97//49 106//53
f 107//54 99//50 108//54
f 100//50 108//54 99//50
f 109//55 101//51 110//55
f 101//51 109//55 102//51
f 104//52 111//56 103//52
f 112//56 103//52 111//56
f 106//53 110//55 105//53
f 110//55 106//53 109//55
f 111//56 107//54 112//56
f 108//54 112//56 107//54
