# SSTK version 0.8.0
# 12
mtllib original-12.mtl
o group_11/ID83#ID83
v -0.04678243 0.81312319 0.01053853
v -0.04765158 0.81328875 -0.00778400
v -0.04853198 0.81325242 0.00135963
v -0.04455075 0.81317942 -0.01631172
v -0.04301768 0.81322818 0.01882430
v -0.03932423 0.81329198 -0.02387335
v -0.03698509 0.81310004 0.02584929
v -0.03220083 0.81321112 -0.02991151
v -0.02936272 0.81315053 0.03109754
v -0.02396900 0.81327427 -0.03379541
v -0.02085207 0.81325814 0.03422328
v -0.01488109 0.81313414 -0.03537475
v -0.01151154 0.81314325 0.03506874
v -0.00556501 0.81321747 -0.03467349
v -0.00262115 0.81314725 0.03343628
v 0.00300877 0.81319683 -0.03158637
v 0.00575579 0.81328378 0.02948101
v 0.01065979 0.81310775 -0.02622120
v 0.01283238 0.81310966 0.02360605
v 0.01645649 0.81328892 -0.01913087
v 0.01816881 0.81311903 0.01613779
v 0.02049989 0.81316972 -0.01079397
v 0.02114464 0.81315895 0.00734401
v 0.02206767 0.81311050 -0.00175397
v -0.01487294 0.81316200 -0.03551236
v -0.00570655 0.71430000 -0.03464293
v -0.01485763 0.71448355 -0.03542114
v -0.00561710 0.81329160 -0.03471273
v -0.02398781 0.81328185 -0.03386370
v -0.02387495 0.71438226 -0.03381772
v -0.03232755 0.81313079 -0.02983980
v -0.03230185 0.71437370 -0.02985543
v -0.03921355 0.81315251 -0.02386489
v -0.03922806 0.71438242 -0.02387354
v -0.04447537 0.71433572 -0.01636466
v -0.04461177 0.81325535 -0.01633427
v -0.04770906 0.71448242 -0.00772629
v -0.04772963 0.81319579 -0.00767632
v -0.04838793 0.71436324 0.00142518
v -0.04849331 0.81311656 0.00133504
v -0.04689965 0.71441456 0.01046399
v -0.04680863 0.81315569 0.01043461
v -0.04300386 0.71445796 0.01879406
v -0.04291436 0.81315027 0.01884417
v -0.03704817 0.71440521 0.02596563
v -0.03708962 0.81320130 0.02583062
v -0.02950327 0.81323290 0.03114721
v -0.02935873 0.71431310 0.03114468
v -0.02072456 0.81314333 0.03423714
v -0.02068988 0.71439535 0.03428072
v -0.01153482 0.81316697 0.03505093
v -0.01153461 0.71437505 0.03515917
v -0.00247202 0.81318153 0.03350084
v -0.00262834 0.71438546 0.03351715
v 0.00581921 0.81314102 0.02954868
v 0.00575546 0.71445597 0.02957312
v 0.01286396 0.81313403 0.02355653
v 0.01291906 0.71434096 0.02358179
v 0.01807121 0.71440331 0.01601834
v 0.01802784 0.81316244 0.01611184
v 0.02132836 0.71446000 0.00747809
v 0.02133029 0.81316552 0.00731788
v 0.02211195 0.71447706 -0.00171596
v 0.02212238 0.81322350 -0.00176499
v 0.02041554 0.71448153 -0.01084356
v 0.02033281 0.81321561 -0.01084025
v 0.01650879 0.71449818 -0.01909111
v 0.01640631 0.81318466 -0.01927679
v 0.01048030 0.71445846 -0.02616395
v 0.01063914 0.81311479 -0.02621444
v 0.00293274 0.81329001 -0.03151753
v 0.00309223 0.71447379 -0.03142860
v -0.04767368 0.71446665 -0.00783473
v -0.04679235 0.71434881 0.01056926
v -0.04847454 0.71449791 0.00150449
v -0.04452511 0.71445211 -0.01642977
v -0.04292753 0.71438072 0.01876121
v -0.03932237 0.71442016 -0.02404259
v -0.03703245 0.71444383 0.02598464
v -0.03227260 0.71433470 -0.02998010
v -0.02946014 0.71439704 0.03123102
v -0.02399604 0.71435226 -0.03379843
v -0.02088754 0.71448696 0.03428799
v -0.01480162 0.71434121 -0.03544777
v -0.01167398 0.71433225 0.03514477
v -0.00574591 0.71441389 -0.03468248
v -0.00255980 0.71442517 0.03344265
v 0.00295182 0.71432419 -0.03151749
v 0.00579499 0.71436340 0.02953308
v 0.01059243 0.71439155 -0.02613906
v 0.01274862 0.71439157 0.02361731
v 0.01646109 0.71430481 -0.01916585
v 0.01816609 0.71436445 0.01615555
v 0.02041984 0.71436131 -0.01075159
v 0.02130324 0.71434403 0.00731266
v 0.02209904 0.71432163 -0.00178695
vn 0 1 0
vn -0.045606608962086126 0 -0.9989594772657093
vn 0.21449710534595753 0 -0.9767246243431181
vn -0.3026023034752513 0 -0.953116910946119
vn -0.5389761969797283 0 -0.842320995279869
vn -0.7386197688637319 0 -0.6741222715826021
vn -0.8879275737525727 0 -0.4599832864027447
vn -0.9767246243431181 0 -0.21449710534595753
vn -0.9989594772657093 0 0.045606608962086126
vn -0.953116910946119 0 0.3026023034752513
vn -0.842320995279869 0 0.5389761969797283
vn -0.6741222715826021 0 0.7386197688637319
vn -0.4599832864027447 0 0.8879275737525727
vn -0.21449710534595753 0 0.9767246243431181
vn 0.045606608962086126 0 0.9989594772657093
vn 0.3026023034752513 0 0.953116910946119
vn 0.5389761969797283 0 0.842320995279869
vn 0.7386197688637319 0 0.6741222715826021
vn 0.8879275737525727 0 0.4599832864027447
vn 0.9767246243431181 0 0.21449710534595753
vn 0.9989594772657093 0 -0.045606608962086126
vn 0.953116910946119 0 -0.3026023034752513
vn 0.842320995279869 0 -0.5389761969797283
vn 0.6741222715826021 0 -0.7386197688637319
vn 0.4599832864027447 0 -0.8879275737525727
vn 0 -1 0
usemtl material_0_0
f 1//1 2//1 3//1
f 2//1 1//1 4//1
f 4//1 1//1 5//1
f 4//1 5//1 6//1
f 6//1 5//1 7//1
f 6//1 7//1 8//1
f 8//1 7//1 9//1
f 8//1 9//1 10//1
f 10//1 9//1 11//1
f 10//1 11//1 12//1
f 12//1 11//1 13//1
f 12//1 13//1 14//1
f 14//1 13//1 15//1
f 14//1 15//1 16//1
f 16//1 15//1 17//1
f 16//1 17//1 18//1
f 18//1 17//1 19//1
f 18//1 19//1 20//1
f 20//1 19//1 21//1
f 20//1 21//1 22//1
f 22//1 21//1 23//1
f 22//1 23//1 24//1
f 25//2 26//3 27//2
f 26//3 25//2 28//3
f 29//4 27//2 30//4
f 27//2 29//4 25//2
f 31//5 30//4 32//5
f 30//4 31//5 29//4
f 33//6 32//5 34//6
f 32//5 33//6 31//5
f 33//6 35//7 36//7
f 35//7 33//6 34//6
f 36//7 37//8 38//8
f 37//8 36//7 35//7
f 38//8 39//9 40//9
f 39//9 38//8 37//8
f 40//9 41//10 42//10
f 41//10 40//9 39//9
f 42//10 43//11 44//11
f 43//11 42//10 41//10
f 44//11 45//12 46//12
f 45//12 44//11 43//11
f 47//13 45//12 48//13
f 45//12 47//13 46//12
f 49//14 48//13 50//14
f 48//13 49//14 47//13
f 51//15 50//14 52//15
f 50//14 51//15 49//14
f 53//16 52//15 54//16
f 52//15 53//16 51//15
f 55//17 54//16 56//17
f 54//16 55//17 53//16
f 57//18 56//17 58//18
f 56//17 57//18 55//17
f 59//19 57//18 58//18
f 57//18 59//19 60//19
f 61//20 60//19 59//19
f 60//19 61//20 62//20
f 63//21 62//20 61//20
f 62//20 63//21 64//21
f 65//22 64//21 63//21
f 64//21 65//22 66//22
f 67//23 66//22 65//22
f 66//22 67//23 68//23
f 69//24 68//23 67//23
f 68//23 69//24 70//24
f 71//25 69//24 72//25
f 69//24 71//25 70//24
f 28//3 72//25 26//3
f 72//25 28//3 71//25
f 73//26 74//26 75//26
f 74//26 73//26 76//26
f 74//26 76//26 77//26
f 77//26 76//26 78//26
f 77//26 78//26 79//26
f 79//26 78//26 80//26
f 79//26 80//26 81//26
f 81//26 80//26 82//26
f 81//26 82//26 83//26
f 83//26 82//26 84//26
f 83//26 84//26 85//26
f 85//26 84//26 86//26
f 85//26 86//26 87//26
f 87//26 86//26 88//26
f 87//26 88//26 89//26
f 89//26 88//26 90//26
f 89//26 90//26 91//26
f 91//26 90//26 92//26
f 91//26 92//26 93//26
f 93//26 92//26 94//26
f 93//26 94//26 95//26
f 95//26 94//26 96//26
