# SSTK version 0.8.0
# 8
mtllib original-8.mtl
o group_7/ID55#ID55
v -0.09727656 0.66491877 -0.00221162
v -0.09279730 0.66500912 -0.02898144
v -0.09752962 0.66501895 -0.00732506
v -0.09650641 0.66506020 0.01468468
v -0.08982576 0.66504655 0.03586370
v -0.08269128 0.66509401 -0.04856746
v -0.07799312 0.66508063 0.05448630
v -0.06773390 0.66503410 -0.06487164
v -0.06174615 0.66500269 0.06921964
v -0.04913903 0.66494075 -0.07690530
v -0.04196530 0.66500023 0.07936367
v -0.02807938 0.66508227 -0.08351858
v -0.02039606 0.66491194 0.08422394
v -0.01100622 0.66496058 -0.08436147
v -0.01533412 0.66502162 0.08390595
v 0.00168809 0.66495143 0.08312194
v -0.00598288 0.66496051 -0.08445942
v 0.01553864 0.66497986 -0.07977593
v 0.02263243 0.66504213 0.07653878
v 0.03516863 0.66505017 -0.06958993
v 0.04138621 0.66501652 0.06449896
v 0.05147267 0.66502186 -0.05473868
v 0.05614927 0.66499662 0.04826471
v 0.06345171 0.66506816 -0.03617783
v 0.06633116 0.66490636 0.02855579
v 0.07020699 0.66493316 -0.01510629
v 0.07087888 0.66498024 0.00202261
v 0.07111584 0.66504553 0.00699793
vn 0 1 0
usemtl material_0_0
f 1//1 2//1 3//1
f 2//1 1//1 4//1
f 2//1 4//1 5//1
f 2//1 5//1 6//1
f 6//1 5//1 7//1
f 6//1 7//1 8//1
f 8//1 7//1 9//1
f 8//1 9//1 10//1
f 10//1 9//1 11//1
f 10//1 11//1 12//1
f 12//1 11//1 13//1
f 12//1 13//1 14//1
f 14//1 13//1 15//1
f 14//1 15//1 16//1
f 14//1 16//1 17//1
f 17//1 16//1 18//1
f 18//1 16//1 19//1
f 18//1 19//1 20//1
f 20//1 19//1 21//1
f 20//1 21//1 22//1
f 22//1 21//1 23//1
f 22//1 23//1 24//1
f 24//1 23//1 25//1
f 24//1 25//1 26//1
f 26//1 25//1 27//1
f 27//1 25//1 28//1
