# SSTK version 0.8.0
# 2
mtllib original-2.mtl
o #ID103
v 0.05225190 0.51632892 -0.06919882
v -0.03866159 -0.02246187 -0.04403993
v -0.06427084 0.51633826 -0.06908764
v 0.02674633 -0.02240084 -0.04394138
v -0.06439819 0.51641423 0.04630454
v 0.05222076 0.51632894 -0.06903445
v -0.06424856 0.51632569 -0.06902360
v 0.05231252 0.51636759 0.04629437
v 0.05232587 0.51635674 -0.06914230
v 0.02658161 -0.02243008 0.02123037
v 0.02659189 -0.02242019 -0.04408913
v 0.05222283 0.51639337 0.04647545
v 0.02673150 -0.02228299 0.02122101
v -0.03875765 -0.02244799 -0.04405313
v 0.02655811 -0.02237222 -0.04408690
v -0.03863214 -0.02230299 0.02130184
v -0.06438159 0.51626538 0.04642202
v -0.03880155 -0.02248138 -0.04408524
v -0.03867982 -0.02245787 0.02125715
v -0.06440346 0.51639635 -0.06917701
v -0.03864393 -0.02231763 0.02132580
v 0.05231309 0.51629486 0.04634217
v -0.06435021 0.51641872 0.04643034
v 0.02661057 -0.02243772 0.02128864
vn 0 -0.04650125147541958 -0.9989182316942764
vn 0 1 0
vn 0.9988718303205093 -0.04748754144147267 0
vn 0 -1 0
vn -0.9988718360125785 -0.047487421712076004 0
vn 0 -0.04650125147541958 0.9989182316942764
usemtl material_0_0
f 1//1 2//1 3//1
f 2//1 1//1 4//1
f 5//2 6//2 7//2
f 6//2 5//2 8//2
f 9//3 10//3 11//3
f 10//3 9//3 12//3
f 13//4 14//4 15//4
f 14//4 13//4 16//4
f 17//5 18//5 19//5
f 18//5 17//5 20//5
f 21//6 22//6 23//6
f 22//6 21//6 24//6
