# SSTK version 0.8.0
# 21
mtllib original-21.mtl
o #ID91
v 0.22987796 -0.53280828 0.16949073
v 0.27351121 -0.51525383 0.16970249
v 0.22961689 -0.51518049 0.16958586
v 0.27337446 -0.53275631 0.16954313
v 0.22958534 -0.51522087 0.16968585
v 0.22974648 -0.53292327 0.12594268
v 0.22988789 -0.53290373 0.16956569
v 0.22954135 -0.51517594 0.12587029
v 0.27326806 -0.53286890 0.12604436
v 0.22988342 -0.53278447 0.16940552
v 0.22984903 -0.53287909 0.12603018
v 0.27333905 -0.53280485 0.16956216
v 0.27353597 -0.51523692 0.12588890
v 0.27328666 -0.53291838 0.16948301
v 0.27320410 -0.53279079 0.12589619
v 0.27344722 -0.51518207 0.16959789
v 0.22954245 -0.51509090 0.16965972
v 0.27342708 -0.51517357 0.12573560
v 0.22958216 -0.51521540 0.12577648
v 0.27337307 -0.51515481 0.16969760
v 0.27353080 -0.51527400 0.12585207
v 0.22980139 -0.53274780 0.12591816
v 0.22971976 -0.51512722 0.12591033
v 0.27330010 -0.53285985 0.12590572
vn -7.684414199784119e-7 -0.009896747257301712 0.9999510259973409
vn -0.9999510071236453 -0.009898654070517954 0
vn 0 -1 0
vn 0.9999509882457237 -0.009900560883620369 7.68441890967079e-7
vn 0 1 0
vn 7.71530905496152e-7 -0.009898654070515007 -0.9999510071233475
usemtl material_0_0
f 1//1 2//1 3//1
f 2//1 1//1 4//1
f 5//2 6//2 7//2
f 6//2 5//2 8//2
f 9//3 10//3 11//3
f 10//3 9//3 12//3
f 13//4 14//4 15//4
f 14//4 13//4 16//4
f 17//5 18//5 19//5
f 18//5 17//5 20//5
f 21//6 22//6 23//6
f 22//6 21//6 24//6
