# SSTK version 0.8.0
# 7
mtllib original-7.mtl
o #ID23
v -0.11245489 0.40682407 0.09516609
v -0.18649927 0.39695255 -0.01122165
v -0.15643005 0.40685898 -0.01128734
v -0.13359329 0.39691963 0.11643616
v -0.11235425 0.40693739 -0.11751859
v -0.13357593 0.39704777 -0.13877160
v -0.15634996 0.51365048 -0.01122258
v -0.11240350 0.40694838 0.09509662
v -0.15654352 0.40682304 -0.01132207
v -0.11234845 0.51353243 0.09503392
v -0.00603684 0.40694981 0.13909927
v -0.00596774 0.39686080 0.16918956
v -0.13407582 0.51879463 0.11675740
v -0.18644301 0.39692852 -0.01115811
v -0.13368427 0.39686196 0.11627986
v -0.18708335 0.51888305 -0.01116991
v -0.00610499 0.40687878 -0.16161860
v -0.00607551 0.39697778 -0.19175903
v -0.11238526 0.51361481 -0.11759912
v -0.15642907 0.40693755 -0.01114115
v -0.11234374 0.40678541 -0.11762985
v -0.15636704 0.51360721 -0.01131356
v -0.18712317 0.51889074 -0.01131216
v -0.13353312 0.39700790 -0.13876773
v -0.18646423 0.39685655 -0.01117515
v -0.13402121 0.51885438 -0.13927267
v -0.11247562 0.51360706 0.09504674
v -0.15649864 0.51364439 -0.01122444
v 0.10031002 0.51359604 0.09508370
v -0.00595252 0.51362036 0.13918953
v -0.11233064 0.40687211 0.09512987
v -0.11233279 0.51366967 0.09503414
v -0.00607828 0.40684204 0.13923052
v 0.12157440 0.39693599 0.11631304
v 0.10034349 0.40694326 0.09511741
v -0.13359741 0.39691378 0.11638652
v -0.00597369 0.51881171 0.16980090
v -0.13409837 0.51885395 0.11684654
v -0.00603324 0.39695484 0.16918498
v -0.13400557 0.51894427 0.11684023
v -0.08930989 0.54007742 -0.01113169
v -0.18713106 0.51885946 -0.01113607
v -0.06479665 0.53998751 0.04757199
v -0.00594218 0.51882333 -0.19226713
v -0.13353506 0.39695416 -0.13881009
v -0.13405879 0.51878736 -0.13918321
v -0.00601422 0.39697102 -0.19165124
v 0.12152998 0.39703163 -0.13891549
v 0.10036848 0.40678310 -0.11760633
v -0.00599592 0.40682956 -0.16168180
v -0.11246871 0.51361519 -0.11756406
v -0.11236299 0.40695765 -0.11762264
v -0.00600437 0.51354253 -0.16160759
v 0.14445113 0.51355607 -0.01122170
v -0.11238509 0.51365538 -0.11753950
v -0.06480230 0.54010008 -0.07006367
v -0.13400488 0.51889155 -0.13917558
v -0.00598032 0.51361030 0.13926574
v 0.10035039 0.51359762 0.09517876
v -0.00599871 0.40687314 0.13925624
v -0.00611447 0.51348819 0.13911085
v 0.10033517 0.40677845 0.09517080
v 0.14440910 0.40692719 -0.01114121
v 0.17448034 0.39689242 -0.01118421
v 0.12150038 0.39705291 0.11646650
v -0.00594548 0.51888419 0.16979762
v -0.00597474 0.39698224 0.16916484
v 0.12196091 0.51884683 0.11675103
v -0.00608829 0.54002921 0.07200575
v -0.00597716 0.51870997 0.16972721
v -0.06459386 0.65658855 0.04747380
v -0.08931496 0.54012767 -0.01132072
v -0.06478515 0.54008932 0.04758590
v -0.08893169 0.65668319 -0.01115506
v -0.00596140 0.54001957 -0.09452525
v -0.00604995 0.51891369 -0.19224427
v 0.12210516 0.51886121 -0.13917158
v -0.00604133 0.39704580 -0.19169038
v -0.00594218 0.51894197 -0.19231891
v 0.12150236 0.39703889 -0.13886803
v 0.10029706 0.40678379 -0.11759101
v -0.00593920 0.51352495 -0.16166985
v -0.00596288 0.40688047 -0.16157692
v 0.10036985 0.51367734 -0.11758538
v -0.00608636 0.51352411 -0.16159575
v 0.10032798 0.51349690 -0.11761773
v -0.08903080 0.65675279 -0.01131035
v -0.06492427 0.53998899 -0.07009468
v -0.08919160 0.54005797 -0.01117530
v -0.06474990 0.65657609 -0.06985595
v 0.10042493 0.51350727 0.09510912
v 0.14441156 0.40682150 -0.01114147
v 0.10039295 0.40692827 0.09515248
v 0.14448764 0.51361288 -0.01123981
v 0.17508764 0.51888350 -0.01115439
v 0.12166813 0.39686830 0.11628665
v 0.17436082 0.39697753 -0.01127754
v 0.12191860 0.51889679 0.11687023
v 0.12206129 0.51878213 0.11674353
v 0.05274121 0.54002696 0.04764247
v -0.00607412 0.54016683 0.07206589
v -0.06472548 0.65661283 0.04733322
v -0.06491960 0.54004198 0.04766357
v -0.00607543 0.65675041 0.07175819
v -0.06471084 0.65660105 0.04738977
v -0.06464657 0.65672702 -0.06984582
v -0.08902330 0.65656903 -0.01131658
v -0.06468264 0.65655349 -0.06980926
v -0.00605015 0.54012267 -0.09440884
v -0.06477697 0.54014947 -0.07015225
v -0.00609723 0.65666367 -0.09415031
v 0.12203544 0.51883268 -0.13918529
v 0.05274309 0.54009373 -0.07002062
v 0.12205420 0.51878962 -0.13920101
v 0.17450214 0.39699661 -0.01131550
v 0.12159793 0.39703080 -0.13892923
v 0.17505676 0.51887997 -0.01115580
v 0.14448841 0.51351935 -0.01115733
v 0.10031154 0.40693730 -0.11768447
v 0.14438936 0.40691583 -0.01128187
v 0.10041779 0.51350823 -0.11757030
v 0.17509076 0.51880875 -0.01129538
v 0.07715220 0.54008772 -0.01127024
v 0.05279076 0.54009899 0.04759321
v -0.00610058 0.65666246 0.07170073
v -0.00611539 0.54015058 0.07199217
v 0.05264272 0.65663217 0.04733876
v -0.00612543 0.65671962 0.07171387
v 0.05261325 0.65659201 -0.06982679
v -0.00612478 0.54015611 -0.09441096
v -0.00605144 0.65664407 -0.09415787
v 0.05274631 0.54017421 -0.07004582
v -0.00595394 0.65664806 -0.09408372
v 0.07682685 0.65668654 -0.01122486
v 0.05281749 0.54016443 0.04763118
v 0.07722665 0.54006079 -0.01125360
v 0.05265220 0.65659297 0.04751404
v 0.05252676 0.65672581 0.04741409
v 0.05266229 0.65656168 -0.06995091
v 0.07724361 0.54012532 -0.01119655
v 0.05274621 0.54007973 -0.07016044
v 0.07689896 0.65671129 -0.01115368
v 0.05264897 0.65669094 -0.06985809
v 0.07687468 0.65668704 -0.01122108
vn 0.2217009894350336 -0.9495774547487184 -0.2217009894350336
vn 0.3135324910545224 -0.9495774729073565 -1.5652629553410729e-7
vn 0.31353249105452624 -0.949577472907368 1.2522629642713728e-8
vn 0.22170088943503616 -0.9495774547487089 -0.22170108943502664
vn 0.22170080418042368 -0.9495775179053764 0.22170090418042557
vn 0.22170090418042557 -0.9495775179053764 0.22170080418042368
vn 0.9238794684822172 0 -0.3826835869449008
vn -2.5819729263330852e-8 -0.9495774729073678 -0.31353249105452613
vn -1.2037549656553667e-8 -0.949577472907368 -0.31353249105452624
vn -0.9238697769333498 -0.004587249885468179 0.3826794904454782
vn -2.200747006210497e-8 -0.9495775026797028 0.3135324008847868
vn -1.7246760048670267e-8 -0.9495775026797028 0.3135324008847868
vn 0.9238793831268214 0 0.3826837930108929
vn -0.9238697787768017 -0.004586814894631382 -0.38267949120906114
vn 0 -1 0
vn 0.38268370765557813 0 -0.9238794184821849
vn -0.2217009992652951 -0.9495774968531524 -0.22170079926529576
vn -0.22170069926528946 -0.949577496853124 -0.22170109926528814
vn -0.3826132970234215 -0.00450587796494607 0.923897592812446
vn -0.14966299810568476 0.9772869876302783 0.15003709810094973
vn -0.2118244087997523 0.9773077405999767 -6.299982261718108e-8
vn -0.21182440879975264 0.9773077405999782 -3.02087212549511e-8
vn -0.14966229582092738 0.9772869727108742 0.1500378958104394
vn -0.38267940594644684 -0.004586762071273595 -0.9238698143559926
vn -0.22170089926529765 -0.949577496853162 0.22170089926529765
vn 0.38268370765557813 0 0.9238794184821849
vn -0.14978250261757656 0.9773077170792831 -0.14978260261757828
vn -0.3826839137215721 0 -0.9238793331267566
vn -0.3135323107150364 -0.9495775324520233 -1.2798770437400825e-7
vn -0.3135323107150379 -0.9495775324520277 8.582768293318054e-8
vn 0.3826137946552919 -0.004505802937058721 0.9238973870941353
vn 7.686069245905736e-8 0.9771994312642182 0.21232350679301298
vn 1.1131140356126247e-7 0.977199431264215 0.21232350679301232
vn -0.9238776233757777 0.0020200830511117613 0.3826827096825659
vn -1.569759031960655e-8 0.97730771989821 -0.21182450431279562
vn -1.0965530223260719e-8 0.9773077198982102 -0.21182450431279568
vn 0.38267940572352577 -0.004586889068603581 -0.9238698138178135
vn -0.38268370765557813 0 0.9238794184821849
vn -0.9238774678081675 0.0020198159296209955 -0.3826830866656886
vn -0.9238791770604823 0 -0.3826842904981157
vn 0.9238697798616019 -0.004586558900022761 0.38267949165840026
vn 0.14966309586578003 0.9772869730039039 0.15003709585544883
vn 0.1496623935810422 0.9772869580845689 0.15003789356493716
vn -0.38268270978537827 0.00201995005165108 0.9238776236239887
vn 0 1 0
vn -0.3826830867329338 0.0020197289299789347 -0.9238774679705115
vn 0.1497825048610572 0.9773077317176482 -0.1497825048610572
vn 0.9238698149916177 -0.004586612074426867 -0.3826794062097314
vn -0.9238794684822172 0 0.3826835869449008
vn 0.21182450431279562 0.97730771989821 1.5507620315738718e-8
vn 0.21182450431279562 0.97730771989821 2.219977045199243e-8
vn 0.38268288058195243 0.0020198388975095835 0.9238775531207191
vn 0.38268250382295727 0.002019816020177746 -0.9238777092294396
vn 0.9238778299399459 0.002019816065455823 0.38268221240151495
vn 0.9238778800427058 0.0020197609563698143 -0.38268209173343226
usemtl material_0_0
f 1//1 2//2 3//3
f 2//2 1//1 4//4
f 5//5 2//2 6//6
f 2//2 5//5 3//3
f 7//7 8//7 9//7
f 8//7 7//7 10//7
f 11//8 4//4 1//1
f 4//4 11//8 12//9
f 13//10 14//10 15//10
f 14//10 13//10 16//10
f 17//11 6//6 18//12
f 6//6 17//11 5//5
f 19//13 20//13 21//13
f 20//13 19//13 22//13
f 23//14 24//14 25//14
f 24//14 23//14 26//14
f 27//15 28//15 29//15
f 30//16 31//16 32//16
f 31//16 30//16 33//16
f 34//17 11//8 35//18
f 11//8 34//17 12//9
f 36//19 37//19 38//19
f 37//19 36//19 39//19
f 40//20 41//21 42//22
f 41//21 40//20 43//23
f 44//24 45//24 46//24
f 45//24 44//24 47//24
f 48//25 17//11 18//12
f 17//11 48//25 49//25
f 50//26 51//26 52//26
f 51//26 50//26 53//26
f 54//15 28//15 55//15
f 42//22 56//27 57//27
f 56//27 42//22 41//21
f 29//15 28//15 54//15
f 58//15 27//15 29//15
f 59//28 60//28 61//28
f 60//28 59//28 62//28
f 34//17 63//29 64//30
f 63//29 34//17 35//18
f 65//31 66//31 67//31
f 66//31 65//31 68//31
f 40//20 69//32 43//23
f 69//32 40//20 70//33
f 71//34 72//34 73//34
f 72//34 71//34 74//34
f 57//27 75//35 76//36
f 75//35 57//27 56//27
f 77//37 78//37 79//37
f 78//37 77//37 80//37
f 64//30 49//25 48//25
f 49//25 64//30 63//29
f 81//38 82//38 83//38
f 82//38 81//38 84//38
f 55//15 85//15 86//15
f 54//15 55//15 86//15
f 87//39 88//39 89//39
f 88//39 87//39 90//39
f 91//40 92//40 93//40
f 92//40 91//40 94//40
f 95//41 96//41 97//41
f 96//41 95//41 98//41
f 69//32 99//42 100//43
f 99//42 69//32 70//33
f 101//44 102//44 103//44
f 102//44 101//44 104//44
f 105//45 106//45 107//45
f 108//46 109//46 110//46
f 109//46 108//46 111//46
f 75//35 112//47 76//36
f 112//47 75//35 113//47
f 114//48 115//48 116//48
f 115//48 114//48 117//48
f 118//49 119//49 120//49
f 119//49 118//49 121//49
f 100//43 122//50 123//51
f 122//50 100//43 99//42
f 124//52 125//52 126//52
f 125//52 124//52 127//52
f 128//45 106//45 105//45
f 129//53 130//53 131//53
f 130//53 129//53 132//53
f 128//45 133//45 106//45
f 113//47 122//50 112//47
f 122//50 113//47 123//51
f 134//54 135//54 136//54
f 135//54 134//54 137//54
f 128//45 138//45 133//45
f 139//55 140//55 141//55
f 140//55 139//55 142//55
f 138//45 143//45 133//45
f 138//45 144//45 143//45
