# SSTK version 0.8.0
# 1
mtllib original-1.mtl
o #ID97
v 0.01610638 -0.38718449 0.01089706
v -0.02818702 0.06325766 0.01086362
v -0.02800935 -0.38708618 0.01085828
v 0.01606940 0.06326778 0.01092405
v -0.02811026 0.06328943 0.01078785
v -0.02816258 -0.38705614 -0.03339358
v -0.02801770 -0.38721211 0.01087943
v -0.02814179 0.06338112 -0.03340833
v 0.01602776 -0.38708379 0.01090767
v -0.02814404 -0.38713973 -0.03335810
v 0.01596565 -0.38712924 -0.03340590
v -0.02816045 -0.38702863 0.01078966
v 0.01609470 0.06322308 -0.03331425
v 0.01601095 -0.38712302 0.01082559
v 0.01604953 -0.38711423 -0.03321891
v 0.01598592 0.06332144 0.01083672
v -0.02807260 0.06318699 0.01089722
v 0.01611354 0.06318615 -0.03335831
v -0.02820174 0.06336266 -0.03324459
v 0.01610828 0.06338196 0.01086173
v 0.01595372 0.06337792 -0.03331568
v -0.02816783 -0.38708912 -0.03327403
v -0.02811945 0.06322499 -0.03335205
v 0.01596820 -0.38721230 -0.03322823
vn 0 0 1
vn -1 0 0
vn 0 -1 0
vn 1 0 0.0000015258789999982235
vn 0 1 0
vn 0 0 -1
usemtl material_0_0
f 1//1 2//1 3//1
f 2//1 1//1 4//1
f 5//2 6//2 7//2
f 6//2 5//2 8//2
f 9//3 10//3 11//3
f 10//3 9//3 12//3
f 13//4 14//4 15//4
f 14//4 13//4 16//4
f 17//5 18//5 19//5
f 18//5 17//5 20//5
f 21//6 22//6 23//6
f 22//6 21//6 24//6
