# SSTK version 0.8.0
# 8
mtllib original-8.mtl
o group_2/ID30#ID30
v -0.06775361 1.03228912 0.05056791
v -0.06335702 0.76803534 -0.06872893
v -0.06426012 0.76808766 0.04702124
v -0.06718009 1.03218025 -0.07160948
v 0.04941719 0.76808597 -0.06749459
v -0.06436513 0.76795141 0.04697141
v -0.06326513 0.76812776 -0.06866172
v 0.05147407 0.76808572 0.04690220
v -0.06432295 0.76810150 0.04700862
v 0.05462269 1.03233898 0.05071265
v -0.06763140 1.03218869 0.05038103
v 0.05153849 0.76809941 0.04685144
v -0.06768984 1.03227774 0.05047049
v 0.05355339 1.03230408 -0.06991742
v -0.06724671 1.03222728 -0.07155035
v 0.05449479 1.03215052 0.05073777
v 0.05368608 1.03221324 -0.06993822
v -0.06331143 0.76812847 -0.06858228
v -0.06729999 1.03225530 -0.07151196
v 0.04949939 0.76797781 -0.06751386
v 0.05365547 1.03231107 -0.07004838
v 0.05145472 0.76806221 0.04689453
v 0.04954360 0.76810440 -0.06759659
v 0.05461170 1.03217664 0.05062591
vn -0.9998856874112563 -0.013833279825836476 -0.006103480923156058
vn 0 -1 0
vn -0.0005639578787604106 -0.013883369477129273 0.9999034623419766
vn 0 1 0
vn 0.011676999918117463 -0.010161069928747607 -0.9998801929885478
vn 0.9998644256292863 -0.012596430322881295 -0.010604730271828521
vn 0.9997711312607328 -0.014756520461405246 -0.015489680484329612
vn 0.9997037845086856 -0.01601201975187927 -0.018329169715972933
vn 0.9999040552146866 -0.01139181948976484 -0.007880787647022588
usemtl material_0_0
f 1//1 2//1 3//1
f 2//1 1//1 4//1
f 5//2 6//2 7//2
f 6//2 5//2 8//2
f 9//3 10//3 11//3
f 10//3 9//3 12//3
f 13//4 14//4 15//4
f 14//4 13//4 16//4
f 17//5 18//5 19//5
f 18//5 17//5 20//5
f 21//6 22//7 23//8
f 24//9 22//7 21//6
