# SSTK version 0.8.0
# 4
mtllib original-4.mtl
o group_0/ID6#ID6
v -0.01367934 0.18952367 0.27736883
v -0.12334337 0.27673213 0.22990823
v -0.13231789 0.18962760 0.24851183
v -0.01324751 0.27662852 0.25687327
v -0.01311631 0.27674742 0.25690183
v -0.01370183 0.18956829 0.27747648
v -0.12335045 0.27674183 0.22989204
v -0.13238117 0.18958948 0.24848966
v -0.21257420 0.27664260 0.15991949
v -0.22823065 0.18965990 0.17296162
v -0.21256283 0.27660088 0.15990747
v -0.22833060 0.18956705 0.17306872
v -0.01412464 -0.44197357 0.28990627
v -0.13769627 -0.44182311 0.25955290
v -0.01406413 -0.44192509 0.28973126
v -0.13774146 -0.44196459 0.25968289
v 0.10623490 0.18948079 0.25475067
v 0.09831032 0.27662884 0.23585851
v 0.09834857 0.27673020 0.23591580
v 0.10616057 0.18951561 0.25469806
v -0.09573031 0.34914781 0.17344131
v -0.01149259 0.34919264 0.19396914
v -0.01147129 0.34915657 0.19399311
v -0.09574792 0.34927918 0.17346654
v -0.28468008 0.18949912 0.06465641
v -0.26479924 0.27675758 0.05925781
v -0.26480034 0.27659131 0.05934247
v -0.28455671 0.18963881 0.06466911
v -0.23793636 -0.44181494 0.18099163
v -0.23781428 -0.44182201 0.18099055
v -0.16406922 0.34924221 0.11980416
v -0.16411179 0.34921867 0.11979739
v -0.01404896 -0.44182381 0.28988453
v -0.13778016 -0.44190371 0.25967538
v -0.25707987 -0.44182781 -0.17769680
v -0.25700574 -0.44189005 -0.17774958
v -0.13765468 -0.44193546 0.25966638
v -0.01398481 -0.44190433 0.28977877
v 0.11097510 -0.44179830 0.26620144
v 0.11096848 -0.44183119 0.26629459
v 0.19110532 0.27670978 0.17065705
v 0.20621748 0.18960451 0.18456354
v 0.20604785 0.18959008 0.18461272
v 0.19097450 0.27676181 0.17073217
v 0.07371484 0.34913323 0.17792380
v 0.07376434 0.34924432 0.17802389
v -0.00908787 0.38287631 0.10344040
v -0.05619197 0.38288589 0.09203083
v -0.00909680 0.38270213 0.10348505
v -0.05629607 0.38269005 0.09204627
v -0.29101466 0.18956391 -0.05717423
v -0.27091857 0.27671137 -0.05391480
v -0.27073464 0.27656631 -0.05383731
v -0.29119087 0.18963676 -0.05722957
v -0.29665760 -0.44181496 0.06797354
v -0.29655430 -0.44193738 0.06801197
v -0.20402610 0.34925766 0.04282478
v -0.20415091 0.34913455 0.04288129
v -0.23780189 -0.44189185 0.18095059
v -0.30331416 -0.44189873 -0.05916836
v -0.30342814 -0.44190992 -0.05904881
v -0.23792858 -0.44188281 0.18088241
v -0.09446834 0.38276312 0.06207669
v -0.09439421 0.38280347 0.06210295
v -0.16582947 -0.44186331 -0.26654277
v -0.16572791 -0.44191799 -0.26643352
v 0.11116053 -0.44191253 0.26624625
v 0.11112713 -0.44189726 0.26619172
v 0.21523865 -0.44181744 0.19300950
v 0.21516199 -0.44186108 0.19297922
v 0.24859784 0.27664232 0.07307197
v 0.26813023 0.18964446 0.07950459
v 0.24869784 0.27658839 0.07298230
v 0.26809850 0.18956568 0.07955626
v 0.14486756 0.34918317 0.12805315
v 0.14486121 0.34923068 0.12804059
v 0.03863916 0.38284272 0.09460356
v 0.03863511 0.38279416 0.09454838
v -0.00911635 0.38270521 0.10344641
v -0.05624489 0.50759019 0.09203102
v -0.05615977 0.38285580 0.09207190
v -0.00907874 0.50748184 0.10363247
v -0.00908602 0.50744175 0.10346065
v -0.00902138 0.38281042 0.10349510
v -0.05620275 0.50743661 0.09204075
v -0.05614026 0.38276918 0.09208337
v -0.24661556 0.18964730 -0.17093758
v -0.22943305 0.27671881 -0.15955781
v -0.22946229 0.27661008 -0.15944958
v -0.24655536 0.18948663 -0.17094590
v -0.30335174 -0.44187573 -0.05911768
v -0.30339080 -0.44185144 -0.05911317
v -0.20877811 0.34917067 -0.04398988
v -0.20871231 0.34915965 -0.04394115
v -0.29652010 -0.44184050 0.06799266
v -0.29660624 -0.44196860 0.06793960
v -0.11680309 0.38287250 0.01895387
v -0.11676686 0.38281852 0.01899233
v -0.09450588 0.50744587 0.06195637
v -0.09432989 0.38283297 0.06202256
v -0.09450741 0.50741450 0.06201978
v -0.09444677 0.38275438 0.06210512
v -0.16581534 -0.44191990 -0.26661398
v -0.25688179 -0.44189441 -0.17769217
v -0.15916760 0.18958495 -0.25605230
v -0.15910681 0.18957182 -0.25596754
v -0.16583334 -0.44195050 -0.26661845
v -0.25695609 -0.44190522 -0.17767853
v -0.04599476 -0.44182813 -0.30981471
v -0.04607833 -0.44180705 -0.30980827
v 0.21516708 -0.44193267 0.19294993
v 0.21516548 -0.44184211 0.19301325
v 0.27982946 -0.44191350 0.08339824
v 0.27983501 -0.44189121 0.08338684
v 0.26059472 0.27668304 -0.03964334
v 0.28102490 0.18959842 -0.04190399
v 0.26064451 0.27669619 -0.03979253
v 0.28107363 0.18958844 -0.04200604
v 0.18883091 0.34915320 0.05321387
v 0.18889503 0.34925292 0.05327393
v 0.07838277 0.38286856 0.06669511
v 0.07835512 0.38270292 0.06672636
v 0.03859935 0.38282567 0.09461528
v 0.03868407 0.50742568 0.09459766
v 0.03869426 0.50745926 0.09451630
v 0.03870512 0.38283615 0.09458525
v -0.00907677 0.50758874 0.10358254
v -0.06958667 0.50743702 0.11950613
v -0.05621028 0.50756116 0.09206557
v -0.00996244 0.50747622 0.13405489
v -0.00982520 0.50749185 0.13408197
v -0.00908291 0.50751892 0.10352282
v -0.06961597 0.50742107 0.11955352
v -0.05618699 0.50757589 0.09201412
v -0.14826562 0.27662861 -0.23856942
v -0.14836241 0.27662980 -0.23860461
v -0.17707899 0.34914654 -0.12476245
v -0.17711881 0.34919825 -0.12468736
v -0.11933786 0.38287715 -0.02947588
v -0.11933666 0.38287286 -0.02956242
v -0.11675231 0.38278450 0.01896339
v -0.11671069 0.50752644 0.01897930
v -0.11674903 0.50745180 0.01891380
v -0.11680368 0.38280469 0.01891419
v -0.11804755 0.50756593 0.08168450
v -0.09433471 0.50759923 0.06200246
v -0.11801490 0.50750360 0.08158377
v -0.09450890 0.50757486 0.06212957
v -0.04604708 -0.44185968 -0.30972201
v -0.04444586 0.18966022 -0.29741213
v -0.04434856 0.18953655 -0.29743056
v -0.04591313 -0.44180783 -0.30968027
v 0.04967935 -0.44184267 -0.30726545
v 0.04984815 -0.44181237 -0.30714264
v 0.27981313 -0.44189366 0.08337898
v 0.27979966 -0.44184399 0.08340999
v 0.29342948 -0.44177642 -0.04316980
v 0.29343183 -0.44186483 -0.04331750
v 0.22509166 0.27662760 -0.14736621
v 0.24271620 0.18948559 -0.15775395
v 0.22510863 0.27671022 -0.14737154
v 0.24282177 0.18947010 -0.15791116
v 0.19808761 0.34930023 -0.03315439
v 0.19823006 0.34917198 -0.03314316
v 0.10304828 0.38271905 0.02488308
v 0.10296363 0.38269209 0.02482869
v 0.07837751 0.38269633 0.06669660
v 0.07839235 0.50749582 0.06657834
v 0.07829032 0.50744096 0.06661732
v 0.07825933 0.38284789 0.06665060
v 0.05053958 0.50751765 0.12271127
v 0.03859504 0.50759505 0.09457539
v 0.05053885 0.50743912 0.12273963
v 0.03865776 0.50742462 0.09449681
v -0.06956964 0.50743632 0.11956846
v -0.00996622 0.40439668 0.13437009
v -0.06976709 0.40440197 0.11981174
v -0.00985635 0.50753091 0.13422041
v -0.00998206 0.50741901 0.13409644
v -0.06954266 0.50757870 0.11955813
v -0.00981801 0.40424464 0.13438291
v -0.06975655 0.40432004 0.11974456
v -0.04169603 0.27658185 -0.27701479
v -0.04166813 0.27671859 -0.27700096
v -0.11484419 0.34927667 -0.18537139
v -0.11498615 0.34915302 -0.18536563
v -0.10168832 0.38281455 -0.07467313
v -0.10170320 0.38282321 -0.07470030
v -0.11937608 0.38282706 -0.02956852
v -0.11936514 0.50741381 -0.02947376
v -0.11937319 0.50750695 -0.02957565
v -0.11947181 0.38280446 -0.02941016
v -0.14630656 0.50758478 0.02694325
v -0.11669800 0.50752042 0.01890791
v -0.14628097 0.50752148 0.02710333
v -0.11686802 0.50753464 0.01900024
v -0.11800661 0.50749165 0.08153693
v -0.11818746 0.40431389 0.08185856
v -0.11805224 0.50741887 0.08162389
v -0.11824530 0.40425412 0.08178399
v 0.04979880 -0.44191174 -0.30708125
v 0.04743368 0.18950203 -0.29488078
v 0.04750765 0.18953154 -0.29498849
v 0.04968488 -0.44182272 -0.30709824
v 0.16701055 -0.44186043 -0.25765941
v 0.16710151 -0.44190881 -0.25760979
v 0.29341427 -0.44191509 -0.04315053
v 0.29340743 -0.44183837 -0.04325313
v 0.25343333 -0.44186428 -0.16420463
v 0.25339706 -0.44185590 -0.16415668
v 0.14811384 0.27669895 -0.23080012
v 0.15984072 0.18954732 -0.24756311
v 0.14805420 0.27664299 -0.23065439
v 0.15989665 0.18966015 -0.24757003
v 0.17077686 0.34911413 -0.11546969
v 0.17089484 0.34912065 -0.11537141
v 0.10808109 0.38282055 -0.02337322
v 0.10809514 0.38280949 -0.02341550
v 0.10297497 0.50745754 0.02488693
v 0.10291993 0.38283202 0.02483851
v 0.10294366 0.50757762 0.02474589
v 0.10298334 0.38282313 0.02472943
v 0.10082179 0.50742073 0.08732164
v 0.07828077 0.50740752 0.06671595
v 0.10075177 0.50746900 0.08751699
v 0.07828236 0.50752899 0.06657796
v 0.05068534 0.40431541 0.12299267
v 0.05045156 0.50741014 0.12280163
v 0.05061539 0.50748872 0.12271742
v 0.05058890 0.40426584 0.12301920
v -0.00987253 0.40433770 0.13439009
v -0.11393936 0.34957144 0.21056550
v -0.06967681 0.40440727 0.11985800
v -0.01254170 0.34954834 0.23523209
v -0.01261884 0.34956305 0.23525185
v -0.00994213 0.40423387 0.13437479
v -0.11379473 0.34971336 0.21049558
v -0.06971883 0.40432886 0.11988902
v 0.04361900 0.27657733 -0.27475434
v 0.04374802 0.27669657 -0.27479182
v -0.03329576 0.34922695 -0.21481702
v -0.03320499 0.34929630 -0.21475887
v -0.06692335 0.38286487 -0.10848543
v -0.06687529 0.38287635 -0.10847679
v -0.10172949 0.38284637 -0.07475883
v -0.10170112 0.50742036 -0.07465532
v -0.10160280 0.50741949 -0.07460388
v -0.10160129 0.38274368 -0.07462641
v -0.11944182 0.50742677 -0.02956014
v -0.14960693 0.50750593 -0.03439385
v -0.11929913 0.50741070 -0.02941352
v -0.14953193 0.50744603 -0.03441245
v -0.14624044 0.50759921 0.02709576
v -0.14652146 0.40437074 0.02711362
v -0.14630804 0.50748146 0.02710563
v -0.14663593 0.40431153 0.02717366
v -0.19593773 0.34956017 0.14616693
v -0.11828563 0.40439588 0.08169270
v -0.19592463 0.34959355 0.14613147
v -0.11827163 0.40439343 0.08174758
v 0.16701165 -0.44180191 -0.25772225
v 0.16715606 -0.44194261 -0.25770439
v 0.25352368 -0.44188508 -0.16404672
v 0.25340230 -0.44190351 -0.16410136
v 0.11200948 0.34927315 -0.17922763
v 0.11202715 0.34928741 -0.17926426
v 0.09285073 0.38271430 -0.06943582
v 0.09297390 0.38279385 -0.06958422
v 0.10807912 0.50759046 -0.02346003
v 0.10820306 0.38287530 -0.02335242
v 0.10820296 0.50749793 -0.02345716
v 0.10805224 0.38270565 -0.02353152
v 0.13206521 0.50740730 0.03444581
v 0.10294685 0.50756583 0.02473223
v 0.13198679 0.50757122 0.03443777
v 0.10290198 0.50751618 0.02476733
v 0.10090351 0.50756469 0.08745858
v 0.10097957 0.40422749 0.08759694
v 0.10097345 0.40439579 0.08755251
v 0.10085656 0.50748090 0.08737811
v 0.08980422 0.34963034 0.21596185
v 0.05053733 0.40438981 0.12300755
v 0.08986331 0.34966383 0.21597197
v 0.05053691 0.40438617 0.12294907
v -0.01392938 0.27303853 0.28755911
v -0.13664810 0.27292983 0.25756364
v -0.01395070 0.27298859 0.28758595
v -0.13682254 0.27301954 0.25748366
v 0.03193592 0.34927793 -0.21300565
v 0.03199597 0.34923056 -0.21294495
v -0.02117201 0.38284285 -0.12508047
v -0.02134205 0.38279122 -0.12507721
v -0.06690257 0.50759562 -0.10864204
v -0.06692607 0.38283630 -0.10848052
v -0.06685082 0.38281208 -0.10855886
v -0.06699401 0.50746168 -0.10848763
v -0.10174394 0.50742048 -0.07477207
v -0.12721058 0.50750537 -0.09161868
v -0.10163548 0.50755830 -0.07476240
v -0.12725323 0.50746200 -0.09155270
v -0.14952606 0.50749812 -0.03435695
v -0.14980853 0.40431318 -0.03440836
v -0.14971034 0.50757448 -0.03432415
v -0.14990276 0.40428258 -0.03445521
v -0.24395530 0.34966428 0.05371556
v -0.14668769 0.40440424 0.02704352
v -0.24405517 0.34963025 0.05357206
v -0.14651680 0.40430484 0.02719182
v -0.23603168 0.27286560 0.17962779
v -0.23613401 0.27286951 0.17956967
v 0.06001350 0.38280705 -0.10523986
v 0.05996868 0.38286893 -0.10514814
v 0.09297267 0.50755516 -0.06956327
v 0.09284573 0.38275104 -0.06944182
v 0.09284290 0.50755853 -0.06942777
v 0.09279940 0.38283942 -0.06960344
v 0.10818616 0.50752602 -0.02338498
v 0.13866604 0.50755870 -0.02671624
v 0.10811504 0.50749522 -0.02342279
v 0.13863924 0.50757603 -0.02673495
v 0.13231499 0.40422467 0.03450155
v 0.13206746 0.50741211 0.03440453
v 0.13204368 0.50744856 0.03449092
v 0.13230691 0.40432216 0.03456107
v 0.17510473 0.34953270 0.15602761
v 0.10099646 0.40431281 0.08757181
v 0.17529726 0.34959297 0.15611826
v 0.10098227 0.40422431 0.08760113
v 0.11024247 0.27289248 0.26407594
v 0.11016765 0.27295979 0.26406388
v -0.01442281 0.18932479 0.30390705
v -0.14394170 0.18919729 0.27232018
v -0.01440501 0.18923303 0.30384876
v -0.14394963 0.18927117 0.27219039
v 0.01532802 0.38286367 -0.12411119
v 0.01515122 0.38283774 -0.12401715
v -0.02133869 0.50758674 -0.12510142
v -0.02117509 0.38279629 -0.12493177
v -0.02126026 0.38269320 -0.12493959
v -0.02135712 0.50742014 -0.12509861
v -0.06683554 0.50755020 -0.10848361
v -0.08317383 0.50753817 -0.13459195
v -0.06695725 0.50757115 -0.10860826
v -0.08308663 0.50753104 -0.13452020
v -0.12722829 0.50755741 -0.09155774
v -0.12737692 0.40434657 -0.09183612
v -0.12717692 0.50758585 -0.09153765
v -0.12748278 0.40440552 -0.09181642
v -0.14979014 0.40428407 -0.03447091
v -0.24957006 0.34958029 -0.05040633
v -0.14982733 0.40421937 -0.03445889
v -0.24961852 0.34965243 -0.05038196
v -0.29444625 0.27288955 0.06738707
v -0.29434015 0.27301396 0.06738155
v -0.24875921 0.18935348 0.18995845
v -0.24874153 0.18929292 0.18993579
v 0.05990380 0.50752431 -0.10510801
v 0.06003484 0.38288556 -0.10517516
v 0.06000580 0.50754662 -0.10520954
v 0.05994176 0.38269324 -0.10517409
v 0.09290267 0.50747732 -0.06950443
v 0.11922554 0.50758164 -0.08502851
v 0.09297802 0.50758925 -0.06958543
v 0.11921247 0.50755093 -0.08513079
v 0.13891437 0.40440828 -0.02679272
v 0.13851400 0.50740783 -0.02675437
v 0.13857621 0.50741649 -0.02668138
v 0.13879446 0.40431298 -0.02673648
v 0.22820372 0.34952441 0.06619303
v 0.13227981 0.40441548 0.03457018
v 0.22815255 0.34961280 0.06621772
v 0.13238694 0.40435364 0.03443702
v 0.21360843 0.27296830 0.19140522
v 0.21366449 0.27298696 0.19148624
v 0.11650399 0.18916585 0.27914178
v 0.11648296 0.18933047 0.27919775
v -0.01492333 -0.46835912 0.31920714
v -0.15058767 -0.46842350 0.28598947
v -0.01479293 -0.46846123 0.31915706
v -0.15059131 -0.46838836 0.28606815
v 0.01530997 0.50750349 -0.12413531
v 0.01526022 0.38269559 -0.12414208
v 0.01532085 0.38276450 -0.12396091
v 0.01516718 0.50747773 -0.12407049
v -0.02124634 0.50752553 -0.12512226
v -0.02537068 0.50745271 -0.15538896
v -0.02121819 0.50760281 -0.12495649
v -0.02525557 0.50743896 -0.15535876
v -0.08340034 0.40426865 -0.13481850
v -0.08325232 0.50744920 -0.13453061
v -0.08322226 0.50744403 -0.13443281
v -0.08328540 0.40426843 -0.13483473
v -0.12744341 0.40433275 -0.09183163
v -0.21163262 0.34954857 -0.14750758
v -0.12744338 0.40422535 -0.09176831
v -0.21151573 0.34955763 -0.14766042
v -0.30109363 0.27287886 -0.05869236
v -0.30116062 0.27294270 -0.05880327
v -0.31017730 0.18923646 0.07165266
v -0.31023739 0.18924981 0.07165557
v -0.26040595 -0.46842129 0.19973279
v -0.26041151 -0.46828031 0.19966089
v 0.06005323 0.50758925 -0.10522852
v 0.07747407 0.50752806 -0.13027220
v 0.06001667 0.50757694 -0.10508839
v 0.07760751 0.50749326 -0.13015079
v 0.11950999 0.40439773 -0.08525746
v 0.11923916 0.50749520 -0.08514220
v 0.11930248 0.50749249 -0.08501851
v 0.11952281 0.40433471 -0.08512464
v 0.13895532 0.40439591 -0.02678894
v 0.23913610 0.34955579 -0.03744257
v 0.13880508 0.40427509 -0.02664085
v 0.23919340 0.34955893 -0.03752929
v 0.27779180 0.27298664 0.08258542
v 0.27768783 0.27303597 0.08273819
v 0.22560544 0.18928652 0.20264101
v 0.22567140 0.18924298 0.20252427
v 0.12242915 -0.46845334 0.29324411
v 0.12239541 -0.46842576 0.29326950
v -0.01476283 -0.46828208 0.31926001
v 0.05514868 -0.46827771 -0.33596838
v -0.15060946 -0.46837342 0.28592847
v -0.15048707 -0.46837075 0.28602694
v 0.05515628 -0.46833732 -0.33603963
v -0.01478385 -0.46842792 0.31909255
v 0.02086515 0.50743640 -0.15422364
v 0.01527343 0.50753025 -0.12398377
v 0.01518434 0.50746770 -0.12406957
v 0.02092036 0.50759668 -0.15416898
v -0.02532392 0.40440832 -0.15558417
v -0.02525240 0.50745536 -0.15529675
v -0.02534346 0.50744639 -0.15547535
v -0.02532550 0.40434063 -0.15575137
v -0.08323883 0.40425187 -0.13484562
v -0.13683313 0.34958288 -0.22037104
v -0.08336986 0.40425091 -0.13471095
v -0.13681971 0.34953973 -0.22027770
v -0.25514072 0.27288057 -0.17651347
v -0.25514326 0.27296931 -0.17641771
v -0.31719338 0.18926372 -0.06127562
v -0.31718517 0.18930678 -0.06128345
v -0.32485193 -0.46833575 0.07579146
v -0.32485522 -0.46832673 0.07569168
v -0.04992321 -0.46835683 -0.33887204
v -0.26041588 -0.46836215 0.19978858
v -0.26054106 -0.46842411 0.19968654
v -0.04992915 -0.46828565 -0.33888759
v 0.07782003 0.40429442 -0.13047263
v 0.07756572 0.50753539 -0.13023736
v 0.07762117 0.50745899 -0.13019573
v 0.07765449 0.40431677 -0.13041749
v 0.11955770 0.40429633 -0.08520446
v 0.20650008 0.34963509 -0.13652392
v 0.11955253 0.40431135 -0.08519936
v 0.20648774 0.34965658 -0.13648124
v 0.29108287 0.27286686 -0.04305969
v 0.29111992 0.27295591 -0.04304986
v 0.29330305 0.18923753 0.08773371
v 0.29322235 0.18933498 0.08786247
v 0.23691347 -0.46844023 0.21295890
v 0.23680198 -0.46828584 0.21298721
v 0.12239411 -0.46833969 0.29324798
v 0.18402940 -0.46829770 -0.28170902
v 0.18403171 -0.46840332 -0.28164444
v 0.12255572 -0.46828206 0.29328285
v 0.02103987 0.40421684 -0.15446744
v 0.02094512 0.50748699 -0.15416861
v 0.02089721 0.50749058 -0.15415577
v 0.02096621 0.40435405 -0.15444404
v -0.02541777 0.40437796 -0.15572993
v -0.03868027 0.34970014 -0.25576695
v -0.02534400 0.40437134 -0.15558618
v -0.03885530 0.34967916 -0.25578965
v -0.16456853 0.27303621 -0.26467079
v -0.16455687 0.27286371 -0.26457480
v -0.26872042 0.18929161 -0.18547523
v -0.26873822 0.18922053 -0.18552075
v -0.33242053 -0.46840502 -0.06380081
v -0.33242108 -0.46842640 -0.06374172
v -0.18141995 -0.46828933 -0.29141559
v -0.32491154 -0.46833245 0.07567002
v -0.32485779 -0.46839715 0.07565463
v -0.18140073 -0.46829096 -0.29145911
v 0.07764390 0.40429341 -0.13051006
v 0.13567377 0.34956306 -0.21304841
v 0.07768349 0.40434506 -0.13048248
v 0.13574017 0.34964736 -0.21306266
v 0.25145618 0.27304616 -0.16294839
v 0.25139747 0.27300860 -0.16302519
v 0.30749168 0.18933221 -0.04481021
v 0.30750295 0.18917827 -0.04468034
v 0.30773268 -0.46846636 0.09260190
v 0.30783479 -0.46834932 0.09262104
v 0.23684122 -0.46834677 0.21300356
v 0.27879736 -0.46841458 -0.17907473
v 0.27877280 -0.46837599 -0.17910023
v 0.23688290 -0.46835978 0.21293881
v 0.05530425 -0.46830974 -0.33602636
v -0.04793103 0.18919001 -0.32368320
v -0.04993514 -0.46846392 -0.33883034
v 0.05234550 0.18917772 -0.32101898
v 0.05236811 0.18934805 -0.32103851
v 0.05515188 -0.46846398 -0.33612224
v -0.04778265 0.18917369 -0.32359188
v -0.04989016 -0.46835345 -0.33878298
v 0.17520603 0.18934591 -0.26925448
v 0.18395675 -0.46831213 -0.28180019
v 0.18386042 -0.46834528 -0.28162239
v 0.17524191 0.18919070 -0.26916239
v 0.03973496 0.34963031 -0.25360695
v 0.02092680 0.40434045 -0.15433778
v 0.02087785 0.40429786 -0.15443169
v 0.03966265 0.34962235 -0.25353960
v -0.04577749 0.27293580 -0.30750513
v -0.04571247 0.27305795 -0.30745387
v -0.17324895 0.18917985 -0.27848684
v -0.17316711 0.18929631 -0.27853503
v -0.28136312 -0.46836574 -0.19391024
v -0.28155146 -0.46842577 -0.19389898
v -0.28136840 -0.46834860 -0.19401483
v -0.33229281 -0.46840216 -0.06389679
v -0.33244118 -0.46835247 -0.06370930
v -0.28152969 -0.46827524 -0.19389416
v -0.18135466 -0.46828758 -0.29134529
v -0.18137187 -0.46832971 -0.29133601
v 0.16580225 0.27294500 -0.25584397
v 0.16577355 0.27289120 -0.25588023
v 0.26559966 0.18931482 -0.17127792
v 0.26563257 0.18929028 -0.17129255
v 0.32268913 -0.46828881 -0.04636235
v 0.32265202 -0.46841154 -0.04639124
v 0.30770858 -0.46834867 0.09250582
v 0.32264565 -0.46829560 -0.04639593
v 0.32272409 -0.46839541 -0.04627653
v 0.30773701 -0.46837497 0.09253856
v 0.27882572 -0.46833098 -0.17906036
v 0.27881719 -0.46835295 -0.17898260
v 0.04925478 0.27294310 -0.30491321
v 0.04943618 0.27292109 -0.30500214
vn -0.026416340617324455 0.1235087028862795 0.991991823181894
vn -0.39208699497197436 0.44285389432095235 0.8063176896599834
vn -0.4339589893584035 0.12350869697130432 0.8924265781158041
vn -0.023867641058839352 0.4428537196463046 0.8962761397614681
vn 0.023867641058839352 -0.4428537196463046 -0.8962761397614681
vn 0.026416340617324455 -0.1235087028862795 -0.991991823181894
vn 0.39208699497197436 -0.44285389432095235 -0.8063176896599834
vn 0.4339589893584035 -0.12350869697130432 -0.8924265781158041
vn -0.6902284041556442 0.442853802666281 0.5722458034453088
vn -0.7639397049587212 0.12350870080169313 0.6333575041111141
vn 0.6902284041556442 -0.442853802666281 -0.5722458034453088
vn 0.7639397049587212 -0.12350870080169313 -0.6333575041111141
vn -0.02661508948795348 0.019646269622026296 0.9994526807715745
vn -0.43722280551453546 0.019646270247791406 0.8991386113405149
vn 0.02661508948795348 -0.019646269622026296 -0.9994526807715745
vn 0.43722280551453546 -0.019646270247791406 -0.8991386113405149
vn 0.38584721085499923 0.12350860347465463 0.9142579257207226
vn 0.3486173962563983 0.44285349524445106 0.8260427911296016
vn -0.3486173962563983 -0.44285349524445106 -0.8260427911296016
vn -0.38584721085499923 -0.12350860347465463 -0.9142579257207226
vn -0.25859340030045835 0.8064289009369857 0.5317912006178855
vn -0.015741520047465637 0.8064289024316371 0.5911215017824174
vn 0.015741520047465637 -0.8064289024316371 -0.5911215017824174
vn 0.25859340030045835 -0.8064289009369857 -0.5317912006178855
vn -0.9573810914830709 0.12350869890125799 0.26108819767734115
vn -0.8650048668134791 0.44285378300960276 0.23589639094966885
vn 0.8650048668134791 -0.44285378300960276 -0.23589639094966885
vn 0.9573810914830709 -0.12350869890125799 -0.26108819767734115
vn -0.7696853092315811 0.01964629023563698 0.6381211076536042
vn 0.7696853092315811 -0.01964629023563698 -0.6381211076536042
vn -0.4552267918836683 0.8064288856220143 0.37741359327101576
vn 0.4552267918836683 -0.8064288856220143 -0.37741359327101576
vn 0 -1 0
vn 0 1 0
vn 0.38874921022522907 0.019646290516754285 0.9211341242284926
vn -0.38874921022522907 -0.019646290516754285 -0.9211341242284926
vn 0.6587940700150348 0.44285357984355084 0.6081702723191733
vn 0.7291483006980101 0.12350860011823418 0.673118400644373
vn -0.7291483006980101 -0.12350860011823418 -0.673118400644373
vn -0.6587940700150348 -0.44285357984355084 -0.6081702723191733
vn 0.22992381198472273 0.8064287420349018 0.5448006283976
vn -0.22992381198472273 -0.8064287420349018 -0.5448006283976
vn -0.009258721376228308 0.9375695380981549 0.3476746141277642
vn -0.15209450421714643 0.9375695259961265 0.31277890867246627
vn 0.009258721376228308 -0.9375695380981549 -0.3476746141277642
vn 0.15209450421714643 -0.9375695259961265 -0.31277890867246627
vn -0.9797093585619346 0.1235085947760454 -0.1578454933237222
vn -0.8851788113651915 0.4428537056859892 -0.1426151018310966
vn 0.8851788113651915 -0.4428537056859892 0.1426151018310966
vn 0.9797093585619346 -0.1235085947760454 0.1578454933237222
vn -0.964581627659964 0.019646310563369886 0.2630519075431732
vn 0.964581627659964 -0.019646310563369886 -0.2630519075431732
vn -0.5704971967790613 0.8064288954470276 0.15558079912161493
vn 0.5704971967790613 -0.8064288954470276 -0.15558079912161493
vn -0.2677466094324709 0.9375695330297268 0.22198000782015495
vn 0.2677466094324709 -0.9375695330297268 -0.22198000782015495
vn 0.7346322772014295 0.019646299390296947 0.6781809789533386
vn -0.7346322772014295 -0.019646299390296947 -0.6781809789533386
vn 0.8512242090440274 0.4428537047052011 0.2815989029919123
vn 0.9421285897497258 0.12350849865623865 0.3116718966090379
vn -0.8512242090440274 -0.4428537047052011 -0.2815989029919123
vn -0.9421285897497258 -0.12350849865623865 -0.3116718966090379
vn 0.4344949059041211 0.8064288109581338 0.4011069054504292
vn -0.4344949059041211 -0.8064288109581338 -0.4011069054504292
vn 0.13523210075820516 0.9375696052566669 0.32043020179655446
vn -0.13523210075820516 -0.9375696052566669 -0.32043020179655446
vn -0.02662075013403651 0 0.9996456050332544
vn -0.4373071146980564 0 0.8993122302262219
vn 0.02662075013403651 0 -0.9996456050332544
vn 0.4373071146980564 0 -0.8993122302262219
vn -0.8269338908379817 0.12350859863158585 -0.548567193922147
vn -0.7471442849094863 0.4428536910554228 -0.49563698998932737
vn 0.7471442849094863 -0.4428536910554228 0.49563698998932737
vn 0.8269338908379817 -0.12350859863158585 0.548567193922147
vn -0.9870778197288135 0.01964630039267238 -0.159032703178601
vn 0.9870778197288135 -0.01964630039267238 0.159032703178601
vn -0.5838023801838268 0.8064289726271479 -0.09405898680732858
vn 0.5838023801838268 -0.8064289726271479 0.09405898680732858
vn -0.33554421299956516 0.9375695363230708 0.09150653354512192
vn 0.33554421299956516 -0.9375695363230708 -0.09150653354512192
vn -0.7698338024042679 0 0.6382444019933011
vn 0.7698338024042679 0 -0.6382444019933011
vn -0.5303187738477158 0.019646309031156575 -0.8475706582026701
vn -0.8331533970262314 0.019646309929876562 -0.5526928980272771
vn -0.5263599886525605 0.1235086973373594 -0.8412435818641977
vn 0.5263599886525605 -0.1235086973373594 0.8412435818641977
vn 0.5303187738477158 -0.019646309031156575 0.8475706582026701
vn 0.8331533970262314 -0.019646309929876562 0.5526928980272771
vn 0.9492143678748751 0.0196463593350904 0.314016089372468
vn -0.9492143678748751 -0.0196463593350904 -0.314016089372468
vn 0.8915144807720345 0.44285369044864037 -0.09530235794454214
vn 0.9867216495903964 0.12350860620726296 -0.10547990530118127
vn -0.8915144807720345 -0.44285369044864037 0.09530235794454214
vn -0.9867216495903964 -0.12350860620726296 0.10547990530118127
vn 0.561408287626873 0.806428982226753 0.1857229959067683
vn -0.561408287626873 -0.806428982226753 -0.1857229959067683
vn 0.2555528972996224 0.937569590092885 0.2359151975071301
vn -0.2555528972996224 -0.937569590092885 -0.2359151975071301
vn 0.38882418836450633 0 0.9213119724299055
vn -0.38882418836450633 0 -0.9213119724299055
vn -0.47557249435665944 0.4428536947449143 -0.7600732909806549
vn 0.47557249435665944 -0.4428536947449143 0.7600732909806549
vn -0.4927645777813294 0.8064288636382604 -0.3268876852606902
vn 0.4927645777813294 -0.8064288636382604 0.3268876852606902
vn -0.3433696974208563 0.9375695929576585 -0.05532186958446232
vn 0.3433696974208563 -0.9375695929576585 0.05532186958446232
vn -0.9647678549707375 0 0.2631026149911139
vn 0.9647678549707375 0 -0.2631026149911139
vn -0.15897200569567196 0.01963935070364149 -0.9870877353655219
vn -0.15754339784505758 0.12367899830826856 -0.9797364865987676
vn 0.15754339784505758 -0.12367899830826856 0.9797364865987676
vn 0.15897200569567196 -0.01963935070364149 0.9870877353655219
vn 0.9941428607782047 0.01964637922489383 -0.10627319580721675
vn -0.9941428607782047 -0.01964637922489383 0.10627319580721675
vn 0.7724639469623372 0.4428537269235168 -0.45517032767231086
vn 0.8549573841221206 0.1235086977062527 -0.5037791906440422
vn -0.7724639469623372 -0.4428537269235168 0.45517032767231086
vn -0.8549573841221206 -0.1235086977062527 0.5037791906440422
vn 0.587980968988305 0.8064289574667716 -0.06285472668487295
vn -0.587980968988305 -0.8064289574667716 0.06285472668487295
vn 0.33019851257981897 0.9375695357192857 0.10923510416161122
vn -0.33019851257981897 -0.9375695357192857 -0.10923510416161122
vn 0.734774191548304 0 0.6783117921977594
vn -0.734774191548304 0 -0.6783117921977594
vn 0.43730579788147145 -0.002740269986724758 -0.8993086956432976
vn 0.026620288970284265 -0.0027403078940004683 -0.9996418613322396
vn 0.4373057170051027 -0.002740270106558347 -0.8993087349705864
vn 0.026620408885242274 -0.002740307885246714 -0.9996418581389418
vn -0.026620408885242274 0.002740307885246714 0.9996418581389418
vn -0.43730579788147145 0.002740269986724758 0.8993086956432976
vn -0.026620288970284265 0.0027403078940004683 0.9996418613322396
vn -0.4373057170051027 0.002740270106558347 0.8993087349705864
vn -0.14222040043983653 0.4442580013739301 -0.884538402735559
vn 0.14222040043983653 -0.4442580013739301 0.884538402735559
vn -0.31365448673016505 0.8064288658822737 -0.5012916787917657
vn 0.31365448673016505 -0.8064288658822737 0.5012916787917657
vn -0.28982470840085767 0.9375696271763889 -0.1922624055729172
vn 0.28982470840085767 -0.9375696271763889 0.1922624055729172
vn -0.9872682088466141 0 -0.15906440142532835
vn 0.9872682088466141 0 0.15906440142532835
vn 0.7698314490906728 -0.002740290818783239 -0.6382413577927893
vn 0.7698314083547169 -0.0027402910297394407 -0.6382414069266156
vn -0.7698314490906728 0.002740290818783239 0.6382413577927893
vn -0.7698314083547169 0.0027402910297394407 0.6382414069266156
vn 0.2112820041532483 0.019639350386057956 -0.9772278192097277
vn 0.20946410779218957 0.12367900460093265 -0.9699630360832028
vn -0.20946410779218957 -0.12367900460093265 0.9699630360832028
vn -0.2112820041532483 -0.019639350386057956 0.9772278192097277
vn 0.8613875770149629 0.01964632947576257 -0.5075681864561855
vn -0.8613875770149629 -0.01964632947576257 0.5075681864561855
vn 0.5153506974831972 0.44285369783724865 -0.7336853964169225
vn 0.5703863762169763 0.12350859485014376 -0.8120375661410064
vn -0.5153506974831972 -0.44285369783724865 0.7336853964169225
vn -0.5703863762169763 -0.12350859485014376 0.8120375661410064
vn 0.509463691895742 0.8064288871717891 -0.3001985952246119
vn -0.509463691895742 -0.8064288871717891 0.3001985952246119
vn 0.34582760379127253 0.9375695102784782 -0.036968660405283627
vn -0.34582760379127253 -0.9375695102784782 0.036968660405283627
vn 0.9493975417165954 0 0.31407691380056185
vn -0.9493975417165954 0 -0.31407691380056185
vn -0.38882279393974284 -0.002740291957289351 -0.9213084856403316
vn -0.38882258835379835 -0.002740291917921455 -0.9213085724045214
vn 0.38882258835379835 0.002740291917921455 0.9213085724045214
vn 0.38882279393974284 0.002740291957289351 0.9213084856403316
vn 0.012683439658725593 -0.8791986763433252 -0.47628648718451827
vn 0.3004962934442197 -0.7265141841499962 -0.6179636865181892
vn 0.2083574110015706 -0.8791986464229515 -0.42848212262447155
vn 0.018292140545576 -0.7265141216687964 -0.6869080204875164
vn -0.018292140545576 0.7265141216687964 0.6869080204875164
vn -0.012683439658725593 0.8791986763433252 0.47628648718451827
vn -0.3004962934442197 0.7265141841499962 0.6179636865181892
vn -0.2083574110015706 0.8791986464229515 0.42848212262447155
vn 0.18909619950687492 0.444257998841464 -0.8757153977163095
vn -0.18909619950687492 -0.444257998841464 0.8757153977163095
vn -0.09422877620847966 0.8082586674777781 -0.5812390766124547
vn 0.09422877620847966 -0.8082586674777781 0.5812390766124547
vn -0.18447930068509621 0.9375696034818289 -0.29484000109493996
vn 0.18447930068509621 -0.9375696034818289 0.29484000109493996
vn -0.8333143725474083 0 -0.5527993817886548
vn 0.8333143725474083 0 0.5527993817886548
vn 0.964764237101858 -0.0027403581053857236 -0.26310161011807676
vn 0.9647642694079487 -0.002740357913105022 -0.26310149165722174
vn -0.964764237101858 0.0027403581053857236 0.26310161011807676
vn -0.9647642694079487 0.002740357913105022 0.26310149165722174
vn 0.5289925789625132 -0.726514071107288 -0.4385705825585022
vn 0.36679140121010717 -0.8791987029006261 -0.3040949010032608
vn -0.5289925789625132 0.726514071107288 0.4385705825585022
vn -0.36679140121010717 0.8791987029006261 0.3040949010032608
vn 0.5746762805996607 0.019646289336766293 -0.8181449723804677
vn -0.5746762805996607 -0.019646289336766293 0.8181449723804677
vn 0.3398894932855749 0.8064288840692153 -0.48388799044092345
vn -0.3398894932855749 -0.8064288840692153 0.48388799044092345
vn 0.2996464978508724 0.937569593275554 -0.17656509873363804
vn -0.2996464978508724 -0.937569593275554 0.17656509873363804
vn 0.9943347564142068 0 -0.10629389534070019
vn -0.9943347564142068 0 0.10629389534070019
vn -0.7347713910293192 -0.0027400169665476666 -0.6783092917186541
vn 0.7347713910293192 0.0027400169665476666 0.6783092917186541
vn -0.26718120573410153 -0.7265141155920612 -0.6330809135868473
vn -0.18525749178531803 -0.8791986610146003 -0.4389639805354728
vn 0.26718120573410153 0.7265141155920612 0.6330809135868473
vn 0.18525749178531803 0.8791986610146003 0.4389639805354728
vn 0.024666940571375473 -0.3759930087093567 -0.926294121456319
vn 0.40521870272649374 -0.37599300252985013 -0.8333229056069714
vn -0.024666940571375473 0.3759930087093567 0.926294121456319
vn -0.40521870272649374 0.37599300252985013 0.8333229056069714
vn 0.12503029423586476 0.8082586627377327 -0.5754001734729536
vn -0.12503029423586476 -0.8082586627377327 0.5754001734729536
vn -0.05655246177699002 0.9375180294586678 -0.34331001078747847
vn 0.05655246177699002 -0.9375180294586678 0.34331001078747847
vn -0.5304217145759623 0 -0.8477339232956861
vn 0.5304217145759623 0 0.8477339232956861
vn 0.9872647276644835 -0.0027402550767856274 0.15906240445714218
vn -0.9872647276644835 0.0027402550767856274 -0.15906240445714218
vn 0.6629417675158509 -0.7265140644008081 -0.18079139114122114
vn 0.4596685933552699 -0.8791987872907595 -0.12535659818791023
vn -0.6629417675158509 0.7265140644008081 0.18079139114122114
vn -0.4596685933552699 0.8791987872907595 0.12535659818791023
vn 0.7133454149508605 -0.37599300788036044 -0.5914115123952727
vn -0.7133454149508605 0.37599300788036044 0.5914115123952727
vn 0.19990969202217906 0.9375695625842949 -0.28460398864227326
vn -0.19990969202217906 -0.9375695625842949 0.28460398864227326
vn 0.8615538340671834 0 -0.5076662200739147
vn -0.8615538340671834 0 0.5076662200739147
vn -0.9493939908718431 -0.0027398289736573133 -0.3140756969802503
vn 0.9493939908718431 0.0027398289736573133 0.3140756969802503
vn -0.5049011954681357 -0.7265141934789938 -0.46610289581637926
vn -0.3500872176190428 -0.8791986442479411 -0.3231852162651302
vn 0.5049011954681357 0.7265141934789938 0.46610289581637926
vn 0.3500872176190428 0.8791986442479411 0.3231852162651302
vn -0.36029349933703475 -0.3759929993081466 -0.853708298429117
vn 0.36029349933703475 0.3759929993081466 0.853708298429117
vn 0.02646834966691736 -0.10669079865738312 -0.9939398874920754
vn 0.4348113266423409 -0.10669080653730173 -0.8941790547893343
vn -0.02646834966691736 0.10669079865738312 0.9939398874920754
vn -0.4348113266423409 0.10669080653730173 0.8941790547893343
vn 0.0747441311944704 0.9375180149822802 -0.33981360543049044
vn -0.0747441311944704 -0.9375180149822802 0.33981360543049044
vn -0.1590631029092507 0 -0.9872684180570558
vn 0.1590631029092507 0 0.9872684180570558
vn 0.8333109113096098 -0.002740276037190744 0.552797807502515
vn 0.8333109879341377 -0.002740275960322385 0.5527976919958083
vn -0.8333109113096098 0.002740276037190744 -0.552797807502515
vn -0.8333109879341377 0.002740275960322385 -0.5527976919958083
vn 0.4703891284984818 -0.879198753266175 0.07578667459152866
vn 0.6784029004442149 -0.7265142004757179 0.1093006000715695
vn -0.4703891284984818 0.879198753266175 -0.07578667459152866
vn -0.6784029004442149 0.7265142004757179 -0.1093006000715695
vn 0.8939756166747105 -0.37599290701313637 -0.24379690454737551
vn -0.8939756166747105 0.37599290701313637 0.24379690454737551
vn 0.7654399005294893 -0.10669090007380291 -0.6346013004389823
vn -0.7654399005294893 0.10669090007380291 0.6346013004389823
vn 0.5747872110841249 0 -0.8183029157800514
vn -0.5747872110841249 0 0.8183029157800514
vn -0.9943310237227476 -0.002739814065366479 0.10629350253595019
vn 0.9943310237227476 0.002739814065366479 -0.10629350253595019
vn -0.6523799860870575 -0.726514184506039 -0.21581819539736624
vn -0.4523457027948858 -0.8791986054322605 -0.14964350092459483
vn 0.6523799860870575 0.726514184506039 0.21581819539736624
vn 0.4523457027948858 0.8791986054322605 0.14964350092459483
vn -0.6808582795952428 -0.3759931887317964 -0.6285388811632117
vn 0.6808582795952428 0.3759931887317964 0.6285388811632117
vn -0.3866049147007411 -0.10669080405694245 -0.9160533348331394
vn 0.3866049147007411 0.10669080405694245 0.9160533348331394
vn 0.02661300085164874 -0.023244230743843953 -0.9993755319812453
vn 0.4371892137857001 -0.023244220732950047 -0.8990691283499613
vn -0.02661300085164874 0.023244230743843953 0.9993755319812453
vn -0.4371892137857001 0.023244220732950047 0.8990691283499613
vn 0.21138250342040038 0 -0.9774034158154576
vn -0.21138250342040038 0 0.9774034158154576
vn 0.5304191133384717 -0.002740466068914615 0.8477311213179299
vn 0.5304189965076319 -0.0027404659819563098 0.847731194418395
vn -0.5304189965076319 0.0027404659819563098 -0.847731194418395
vn -0.5304191133384717 0.002740466068914615 -0.8477311213179299
vn 0.3970369849892131 -0.8791986667601147 0.26338439004222003
vn 0.5726129735756584 -0.7265142664735832 0.3798570824707546
vn -0.3970369849892131 0.8791986667601147 -0.26338439004222003
vn -0.5726129735756584 0.7265142664735832 -0.3798570824707546
vn 0.9148251285108412 -0.375992911717949 0.1473917045935134
vn -0.9148251285108412 0.375992911717949 -0.1473917045935134
vn 0.9592611713031844 -0.10669079680828725 -0.26160099217406513
vn -0.9592611713031844 0.10669079680828725 0.26160099217406513
vn 0.7696259639295128 -0.023244178910602164 -0.638071770095136
vn -0.7696259639295128 0.023244178910602164 0.638071770095136
vn -0.8615504932506179 -0.00273990097853563 0.5076644960229589
vn 0.8615504932506179 0.00273990097853563 -0.5076644960229589
vn -0.47375609377055217 -0.8791986884393627 0.05064414933407698
vn -0.683258645341591 -0.7265141482120608 0.07303982484698128
vn 0.47375609377055217 0.8791986884393627 -0.05064414933407698
vn 0.683258645341591 0.7265141482120608 -0.07303982484698128
vn -0.8797331889388638 -0.3759931952725304 -0.29103029634079314
vn 0.8797331889388638 0.3759931952725304 0.29103029634079314
vn -0.7305801652832186 -0.10669089493010535 -0.6744402679509567
vn 0.7305801652832186 0.10669089493010535 0.6744402679509567
vn -0.3887192082813236 -0.02324416049519656 -0.9210630196224441
vn 0.3887192082813236 0.02324416049519656 0.9210630196224441
vn 0.1590545005897839 -0.002739317010157557 0.9872660036608434
vn 0.1590714944729586 -0.0027393159048207066 0.9872632656969027
vn -0.1590714944729586 0.0027393159048207066 -0.9872632656969027
vn -0.1590545005897839 0.002739317010157557 -0.9872660036608434
vn 0.25272208957946607 -0.8791986637478483 0.40390748334561233
vn 0.3644797032823274 -0.7265142065426345 0.5825218052459088
vn -0.25272208957946607 0.8791986637478483 -0.40390748334561233
vn -0.3644797032823274 0.7265142065426345 -0.5825218052459088
vn 0.7721676095109237 -0.3759930046311717 0.5122367063093092
vn -0.7721676095109237 0.3759930046311717 -0.5122367063093092
vn 0.9816333138976994 -0.10669070151049813 0.15815540223912147
vn -0.9816333138976994 0.10669070151049813 -0.15815540223912147
vn 0.9645071735971354 -0.023244209363702285 -0.26303159279965177
vn -0.9645071735971354 0.023244209363702285 0.26303159279965177
vn -0.574785219222159 -0.0027400650916341706 0.8182997273658524
vn 0.574785219222159 0.0027400650916341706 -0.8182997273658524
vn -0.4104918931087874 -0.8791986852402809 0.24188029593938742
vn -0.5920179178349959 -0.7265143218868036 0.34884341050917655
vn 0.4104918931087874 0.8791986852402809 -0.24188029593938742
vn 0.5920179178349959 0.7265143218868036 -0.34884341050917655
vn -0.9213730167857429 -0.3759929068499079 0.09849415179438456
vn 0.9213730167857429 0.3759929068499079 -0.09849415179438456
vn -0.9439787847651547 -0.1066908982781188 -0.3122836949600628
vn 0.9439787847651547 0.1066908982781188 0.3122836949600628
vn -0.7345755040371243 -0.023244140127746542 -0.6781287037269006
vn 0.7345755040371243 0.023244140127746542 0.6781287037269006
vn -0.21137379171875878 -0.002739128892685905 0.9774014617071861
vn -0.21139050996100747 -0.0027391281290714315 0.9773978460563117
vn 0.21139050996100747 0.0027391281290714315 -0.9773978460563117
vn 0.21137379171875878 0.002739128892685905 -0.9774014617071861
vn 0.07734638206153813 -0.8791095234311903 0.47030201253511156
vn 0.1093568992773226 -0.7283078951870283 0.67646779552961
vn -0.07734638206153813 0.8791095234311903 -0.47030201253511156
vn -0.1093568992773226 0.7283078951870283 -0.67646779552961
vn 0.4915001974629226 -0.3759930980591593 0.7855295959451708
vn -0.4915001974629226 0.3759930980591593 -0.7855295959451708
vn 0.8285577959452121 -0.10669069947787811 0.5496444973101552
vn -0.8285577959452121 0.10669069947787811 -0.5496444973101552
vn 0.987001645183484 -0.02324423106408672 0.15902030727971583
vn -0.987001645183484 0.02324423106408672 -0.15902030727971583
vn -0.2738604990639407 -0.8791986969948856 0.38988469866736825
vn -0.3949659028104885 -0.7265142051697117 0.562298004001186
vn 0.2738604990639407 0.8791986969948856 -0.38988469866736825
vn 0.3949659028104885 0.7265142051697117 -0.562298004001186
vn -0.7983354053803455 -0.3759928025339866 0.47041470317033873
vn 0.7983354053803455 0.3759928025339866 -0.47041470317033873
vn -0.9886593511015573 -0.10669069472314825 0.1056871947727807
vn 0.9886593511015573 0.10669069472314825 -0.1056871947727807
vn -0.9491411832753541 -0.023244199590418145 -0.31399159446721064
vn 0.9491411832753541 0.023244199590418145 0.31399159446721064
vn -0.2112544919808703 -0.023236039117969943 0.9771548629076214
vn 0.15791050409248608 -0.10680210276793568 0.9816606254411983
vn 0.15894869581112572 -0.023235999387647192 0.9870133739886201
vn -0.20993300662281755 -0.10680210336931698 0.9718649306597053
vn 0.20993300662281755 0.10680210336931698 -0.9718649306597053
vn 0.2112544919808703 0.023236039117969943 -0.9771548629076214
vn -0.15791050409248608 0.10680210276793568 -0.9816606254411983
vn -0.15894869581112572 0.023235999387647192 -0.9870133739886201
vn -0.5715066365414697 -0.10669060682167332 0.8136321520226936
vn -0.5746320961547452 -0.02324424984445689 0.818081694525658
vn 0.5746320961547452 0.02324424984445689 -0.818081694525658
vn 0.5715066365414697 0.10669060682167332 -0.8136321520226936
vn -0.14520529526660225 -0.7283078762586421 0.6696887781695057
vn -0.10226749995890329 -0.8791094996467255 0.46551889981292893
vn 0.10226749995890329 0.8791094996467255 -0.46551889981292893
vn 0.14520529526660225 0.7283078762586421 -0.6696887781695057
vn 0.14700480852895464 -0.3770150218737336 0.9144666530557108
vn -0.14700480852895464 0.3770150218737336 -0.9144666530557108
vn 0.5273935743675944 -0.1066907948146093 0.8428956590335481
vn -0.5273935743675944 0.1066907948146093 -0.8428956590335481
vn 0.833089029252048 -0.02324422081616855 0.5526503194050734
vn -0.833089029252048 0.02324422081616855 -0.5526503194050734
vn 0.5302777810334038 -0.023244199168618116 0.847505269687038
vn -0.5302777810334038 0.023244199168618116 -0.847505269687038
vn -0.5326108085112646 -0.37599290600846824 0.7582579121171663
vn 0.5326108085112646 0.37599290600846824 -0.7582579121171663
vn -0.856636390068389 -0.10669049876305915 0.5047684941478503
vn 0.856636390068389 0.10669049876305915 -0.5047684941478503
vn -0.9940660901356448 -0.02324423976934186 0.10626529894550407
vn 0.9940660901356448 0.02324423976934186 -0.10626529894550407
vn -0.8613211616442014 -0.023244248964902094 0.5075288773990512
vn 0.8613211616442014 0.023244248964902094 -0.5075288773990512
vn -0.19546650694113207 -0.3770150133880277 0.9053466321493981
vn 0.19546650694113207 0.3770150133880277 -0.9053466321493981
usemtl material_0_0
f 1//1 2//2 3//3
f 2//2 1//1 4//4
f 5//5 6//6 7//7
f 8//8 7//7 6//6
f 3//3 9//9 10//10
f 9//9 3//3 2//2
f 7//7 8//8 11//11
f 12//12 11//11 8//8
f 13//13 3//3 14//14
f 3//3 13//13 1//1
f 6//6 15//15 8//8
f 16//16 8//8 15//15
f 17//17 4//4 1//1
f 4//4 17//17 18//18
f 19//19 20//20 5//5
f 6//6 5//5 20//20
f 4//4 21//21 2//2
f 21//21 4//4 22//22
f 23//23 5//5 24//24
f 7//7 24//24 5//5
f 9//9 25//25 10//10
f 25//25 9//9 26//26
f 27//27 11//11 28//28
f 12//12 28//28 11//11
f 14//14 10//10 29//29
f 10//10 14//14 3//3
f 8//8 16//16 12//12
f 30//30 12//12 16//16
f 9//9 21//21 31//31
f 21//21 9//9 2//2
f 7//7 11//11 24//24
f 32//32 24//24 11//11
f 33//33 34//33 35//33
f 36//34 37//34 38//34
f 39//35 1//1 13//13
f 1//1 39//35 17//17
f 20//20 40//36 6//6
f 15//15 6//6 40//36
f 17//17 41//37 18//18
f 41//37 17//17 42//38
f 43//39 20//20 44//40
f 19//19 44//40 20//20
f 18//18 22//22 4//4
f 22//22 18//18 45//41
f 46//42 19//19 23//23
f 5//5 23//23 19//19
f 21//21 47//43 48//44
f 47//43 21//21 22//22
f 23//23 24//24 49//45
f 50//46 49//45 24//24
f 26//26 51//47 25//25
f 51//47 26//26 52//48
f 53//49 27//27 54//50
f 28//28 54//50 27//27
f 10//10 55//51 29//29
f 55//51 10//10 25//25
f 28//28 12//12 56//52
f 30//30 56//52 12//12
f 31//31 26//26 9//9
f 26//26 31//31 57//53
f 58//54 32//32 27//27
f 11//11 27//27 32//32
f 34//33 59//33 60//33
f 61//34 62//34 37//34
f 31//31 48//44 63//55
f 48//44 31//31 21//21
f 24//24 32//32 50//46
f 64//56 50//46 32//32
f 33//33 35//33 65//33
f 66//34 36//34 38//34
f 34//33 60//33 35//33
f 36//34 61//34 37//34
f 33//33 65//33 67//33
f 68//34 66//34 38//34
f 39//35 42//38 17//17
f 42//38 39//35 69//57
f 70//58 40//36 43//39
f 20//20 43//39 40//36
f 71//59 42//38 72//60
f 42//38 71//59 41//37
f 44//40 73//61 43//39
f 74//62 43//39 73//61
f 45//41 41//37 75//63
f 41//37 45//41 18//18
f 19//19 46//42 44//40
f 76//64 44//40 46//42
f 47//43 45//41 77//65
f 45//41 47//43 22//22
f 23//23 49//45 46//42
f 78//66 46//42 49//45
f 79//67 80//68 81//68
f 80//68 79//67 82//67
f 83//69 84//69 85//70
f 86//70 85//70 84//69
f 52//48 87//71 51//47
f 87//71 52//48 88//72
f 89//73 53//49 90//74
f 54//50 90//74 53//49
f 25//25 91//75 55//51
f 91//75 25//25 51//47
f 54//50 28//28 92//76
f 56//52 92//76 28//28
f 57//53 52//48 26//26
f 52//48 57//53 93//77
f 94//78 58//54 53//49
f 27//27 53//49 58//54
f 59//33 95//33 60//33
f 61//34 96//34 62//34
f 57//53 63//55 97//79
f 63//55 57//53 31//31
f 32//32 58//54 64//56
f 98//80 64//56 58//54
f 81//68 99//81 100//81
f 99//81 81//68 80//68
f 85//70 86//70 101//82
f 102//82 101//82 86//70
f 87//71 103//83 104//84
f 103//83 87//71 105//85
f 106//86 90//74 107//87
f 108//88 107//87 90//74
f 51//47 104//84 91//75
f 104//84 51//47 87//71
f 90//74 54//50 108//88
f 92//76 108//88 54//50
f 67//33 65//33 109//33
f 110//34 66//34 68//34
f 67//33 109//33 111//33
f 112//34 110//34 68//34
f 72//60 69//57 113//89
f 69//57 72//60 42//38
f 43//39 74//62 70//58
f 114//90 70//58 74//62
f 115//91 72//60 116//92
f 72//60 115//91 71//59
f 73//61 117//93 74//62
f 118//94 74//62 117//93
f 119//95 41//37 71//59
f 41//37 119//95 75//63
f 76//64 120//96 44//40
f 73//61 44//40 120//96
f 77//65 75//63 121//97
f 75//63 77//65 45//41
f 46//42 78//66 76//64
f 122//98 76//64 78//66
f 123//99 82//67 79//67
f 82//67 123//99 124//99
f 125//100 126//100 83//69
f 84//69 83//69 126//100
f 127//33 128//33 129//33
f 128//33 127//33 130//33
f 131//34 132//34 133//34
f 134//34 133//34 132//34
f 88//72 105//85 87//71
f 105//85 88//72 135//101
f 136//102 89//73 106//86
f 90//74 106//86 89//73
f 93//77 88//72 52//48
f 88//72 93//77 137//103
f 138//104 94//78 89//73
f 53//49 89//73 94//78
f 57//53 139//105 93//77
f 139//105 57//53 97//79
f 98//80 58//54 140//106
f 94//78 140//106 58//54
f 99//81 141//107 100//81
f 141//107 99//81 142//107
f 143//108 101//82 144//108
f 102//82 144//108 101//82
f 129//33 145//33 146//33
f 145//33 129//33 128//33
f 133//34 134//34 147//34
f 148//34 147//34 134//34
f 105//85 149//109 103//83
f 149//109 105//85 150//110
f 151//111 106//86 152//112
f 107//87 152//112 106//86
f 111//33 109//33 153//33
f 154//34 110//34 112//34
f 111//33 153//33 155//33
f 156//34 154//34 112//34
f 116//92 113//89 157//113
f 113//89 116//92 72//60
f 74//62 118//94 114//90
f 158//114 114//90 118//94
f 159//115 116//92 160//116
f 116//92 159//115 115//91
f 117//93 161//117 118//94
f 162//118 118//94 161//117
f 163//119 71//59 115//91
f 71//59 163//119 119//95
f 120//96 164//120 73//61
f 117//93 73//61 164//120
f 121//97 119//95 165//121
f 119//95 121//97 75//63
f 76//64 122//98 120//96
f 166//122 120//96 122//98
f 167//123 124//99 123//99
f 124//99 167//123 168//123
f 169//124 170//124 125//100
f 126//100 125//100 170//124
f 171//33 127//33 172//33
f 127//33 171//33 130//33
f 131//34 173//34 132//34
f 174//34 132//34 173//34
f 175//125 176//126 177//127
f 176//126 175//125 178//128
f 179//129 180//130 181//131
f 182//132 181//131 180//130
f 135//101 150//110 105//85
f 150//110 135//101 183//133
f 184//134 136//102 151//111
f 106//86 151//111 136//102
f 88//72 185//135 135//101
f 185//135 88//72 137//103
f 138//104 89//73 186//136
f 136//102 186//136 89//73
f 93//77 187//137 137//103
f 187//137 93//77 139//105
f 140//106 94//78 188//138
f 138//104 188//138 94//78
f 142//107 189//139 141//107
f 189//139 142//107 190//139
f 191//140 143//108 192//140
f 144//108 192//140 143//108
f 146//33 193//33 194//33
f 193//33 146//33 145//33
f 147//34 148//34 195//34
f 196//34 195//34 148//34
f 197//141 177//127 198//142
f 177//127 197//141 175//125
f 180//130 199//143 182//132
f 200//144 182//132 199//143
f 150//110 201//145 149//109
f 201//145 150//110 202//146
f 203//147 151//111 204//148
f 152//112 204//148 151//111
f 155//33 153//33 205//33
f 206//34 154//34 156//34
f 155//33 205//33 207//33
f 208//34 206//34 156//34
f 160//116 157//113 209//149
f 157//113 160//116 116//92
f 118//94 162//118 158//114
f 210//150 158//114 162//118
f 211//151 160//116 212//152
f 160//116 211//151 159//115
f 161//117 213//153 162//118
f 214//154 162//118 213//153
f 215//155 115//91 159//115
f 115//91 215//155 163//119
f 164//120 216//156 117//93
f 161//117 117//93 216//156
f 217//157 119//95 163//119
f 119//95 217//157 165//121
f 166//122 218//158 120//96
f 164//120 120//96 218//158
f 219//159 167//123 220//159
f 167//123 219//159 168//123
f 169//124 221//160 170//124
f 222//160 170//124 221//160
f 223//33 172//33 224//33
f 172//33 223//33 171//33
f 173//34 225//34 174//34
f 226//34 174//34 225//34
f 178//128 227//161 176//126
f 227//161 178//128 228//162
f 229//163 179//129 230//164
f 181//131 230//164 179//129
f 231//165 232//166 233//167
f 232//166 231//165 234//168
f 235//169 236//170 237//171
f 238//172 237//171 236//170
f 183//133 202//146 150//110
f 202//146 183//133 239//173
f 240//174 184//134 203//147
f 151//111 203//147 184//134
f 185//135 183//133 135//101
f 183//133 185//135 241//175
f 242//176 186//136 184//134
f 136//102 184//134 186//136
f 137//103 243//177 185//135
f 243//177 137//103 187//137
f 188//138 138//104 244//178
f 186//136 244//178 138//104
f 190//139 245//179 189//139
f 245//179 190//139 246//179
f 247//180 191//140 248//180
f 192//140 248//180 191//140
f 249//33 193//33 250//33
f 193//33 249//33 194//33
f 196//34 251//34 195//34
f 252//34 195//34 251//34
f 253//181 198//142 254//182
f 198//142 253//181 197//141
f 199//143 255//183 200//144
f 256//184 200//144 255//183
f 233//167 257//185 258//186
f 257//185 233//167 232//166
f 237//171 238//172 259//187
f 260//188 259//187 238//172
f 212//152 201//145 202//146
f 201//145 212//152 261//189
f 262//190 214//154 204//148
f 203//147 204//148 214//154
f 207//33 205//33 263//33
f 264//34 206//34 208//34
f 212//152 209//149 261//189
f 209//149 212//152 160//116
f 162//118 214//154 210//150
f 262//190 210//150 214//154
f 211//151 202//146 239//173
f 202//146 211//151 212//152
f 214//154 213//153 203//147
f 240//174 203//147 213//153
f 265//191 159//115 211//151
f 159//115 265//191 215//155
f 216//156 266//192 161//117
f 213//153 161//117 266//192
f 267//193 163//119 215//155
f 163//119 267//193 217//157
f 218//158 268//194 164//120
f 216//156 164//120 268//194
f 269//195 220//159 270//195
f 220//159 269//195 219//159
f 221//160 271//196 222//160
f 272//196 222//160 271//196
f 273//33 224//33 274//33
f 224//33 273//33 223//33
f 225//34 275//34 226//34
f 276//34 226//34 275//34
f 277//197 227//161 228//162
f 227//161 277//197 278//197
f 279//198 280//198 230//164
f 229//163 230//164 280//198
f 281//199 231//165 282//200
f 231//165 281//199 234//168
f 235//169 283//201 236//170
f 284//202 236//170 283//201
f 232//166 285//203 286//204
f 285//203 232//166 234//168
f 235//169 237//171 287//205
f 288//206 287//205 237//171
f 241//175 239//173 183//133
f 239//173 241//175 289//207
f 290//208 242//176 240//174
f 184//134 240//174 242//176
f 185//135 291//209 241//175
f 291//209 185//135 243//177
f 244//178 186//136 292//210
f 242//176 292//210 186//136
f 293//211 245//179 246//179
f 245//179 293//211 294//211
f 295//212 296//212 248//180
f 247//180 248//180 296//212
f 297//33 250//33 298//33
f 250//33 297//33 249//33
f 251//34 299//34 252//34
f 300//34 252//34 299//34
f 301//213 254//182 302//213
f 254//182 301//213 253//181
f 255//183 303//214 256//184
f 304//214 256//184 303//214
f 258//186 305//215 306//216
f 305//215 258//186 257//185
f 259//187 260//188 307//217
f 308//218 307//217 260//188
f 257//185 286//204 309//219
f 286//204 257//185 232//166
f 237//171 259//187 288//206
f 310//220 288//206 259//187
f 265//191 239//173 289//207
f 239//173 265//191 211//151
f 213//153 266//192 240//174
f 290//208 240//174 266//192
f 311//221 215//155 265//191
f 215//155 311//221 267//193
f 268//194 312//222 216//156
f 266//192 216//156 312//222
f 313//223 270//195 314//223
f 270//195 313//223 269//195
f 271//196 315//224 272//196
f 316//224 272//196 315//224
f 273//33 317//33 318//33
f 317//33 273//33 274//33
f 276//34 275//34 319//34
f 320//34 319//34 275//34
f 277//197 321//225 278//197
f 321//225 277//197 322//225
f 323//226 280//198 324//226
f 279//198 324//226 280//198
f 325//227 282//200 326//228
f 282//200 325//227 281//199
f 283//201 327//229 284//202
f 328//230 284//202 327//229
f 234//168 329//231 285//203
f 329//231 234//168 281//199
f 283//201 235//169 330//232
f 287//205 330//232 235//169
f 286//204 331//233 332//234
f 331//233 286//204 285//203
f 287//205 288//206 333//235
f 334//236 333//235 288//206
f 291//209 289//207 241//175
f 289//207 291//209 335//237
f 336//238 292//210 290//208
f 242//176 290//208 292//210
f 337//239 294//211 293//211
f 294//211 337//239 338//239
f 339//240 340//240 295//212
f 296//212 295//212 340//240
f 341//33 298//33 342//33
f 298//33 341//33 297//33
f 299//34 343//34 300//34
f 344//34 300//34 343//34
f 345//241 302//213 346//242
f 302//213 345//241 301//213
f 303//214 347//243 304//214
f 348//244 304//214 347//243
f 349//245 305//215 350//246
f 305//215 349//245 306//216
f 308//218 351//247 307//217
f 352//248 307//217 351//247
f 305//215 309//219 353//249
f 309//219 305//215 257//185
f 259//187 307//217 310//220
f 354//250 310//220 307//217
f 309//219 332//234 355//251
f 332//234 309//219 286//204
f 288//206 310//220 334//236
f 356//252 334//236 310//220
f 335//237 265//191 289//207
f 265//191 335//237 311//221
f 312//222 336//238 266//192
f 290//208 266//192 336//238
f 357//253 314//223 358//253
f 314//223 357//253 313//223
f 315//224 359//254 316//224
f 360//254 316//224 359//254
f 318//33 361//33 362//33
f 361//33 318//33 317//33
f 319//34 320//34 363//34
f 364//34 363//34 320//34
f 322//225 365//255 321//225
f 365//255 322//225 366//255
f 367//256 323//226 368//256
f 324//226 368//256 323//226
f 369//257 326//228 370//258
f 326//228 369//257 325//227
f 327//229 371//259 328//230
f 372//260 328//230 371//259
f 325//227 329//231 281//199
f 329//231 325//227 373//261
f 374//262 327//229 330//232
f 283//201 330//232 327//229
f 285//203 375//263 331//233
f 375//263 285//203 329//231
f 330//232 287//205 376//264
f 333//235 376//264 287//205
f 332//234 377//265 378//266
f 377//265 332//234 331//233
f 333//235 334//236 379//267
f 380//268 379//267 334//236
f 381//269 338//239 337//239
f 338//239 381//269 382//269
f 383//270 384//270 339//240
f 340//240 339//240 384//270
f 385//33 342//33 386//33
f 342//33 385//33 341//33
f 343//34 387//34 344//34
f 388//34 344//34 387//34
f 389//271 345//241 346//242
f 345//241 389//271 390//272
f 391//273 392//274 347//243
f 348//244 347//243 392//274
f 393//275 350//246 394//276
f 350//246 393//275 349//245
f 351//247 395//277 352//248
f 396//278 352//248 395//277
f 350//246 353//249 397//279
f 353//249 350//246 305//215
f 307//217 352//248 354//250
f 398//280 354//250 352//248
f 353//249 355//251 399//281
f 355//251 353//249 309//219
f 310//220 354//250 356//252
f 400//282 356//252 354//250
f 355//251 378//266 401//283
f 378//266 355//251 332//234
f 334//236 356//252 380//268
f 402//284 380//268 356//252
f 357//253 382//269 381//269
f 382//269 357//253 358//253
f 360//254 359//254 383//270
f 384//270 383//270 359//254
f 362//33 403//33 404//33
f 403//33 362//33 361//33
f 363//34 364//34 405//34
f 406//34 405//34 364//34
f 366//255 407//285 365//255
f 407//285 366//255 408//285
f 409//286 367//256 410//286
f 368//256 410//286 367//256
f 369//257 411//287 412//288
f 411//287 369//257 370//258
f 372//260 371//259 413//289
f 414//290 413//289 371//259
f 325//227 415//291 373//261
f 415//291 325//227 369//257
f 371//259 327//229 416//292
f 374//262 416//292 327//229
f 373//261 375//263 329//231
f 375//263 373//261 417//293
f 418//294 374//262 376//264
f 330//232 376//264 374//262
f 331//233 419//295 377//265
f 419//295 331//233 375//263
f 376//264 333//235 420//296
f 379//267 420//296 333//235
f 421//34 422//34 423//34
f 424//33 425//33 426//33
f 427//33 385//33 386//33
f 385//33 427//33 428//33
f 429//34 430//34 387//34
f 388//34 387//34 430//34
f 431//297 390//272 389//271
f 390//272 431//297 432//298
f 433//299 434//300 391//273
f 392//274 391//273 434//300
f 435//301 394//276 436//302
f 394//276 435//301 393//275
f 395//277 437//303 396//278
f 438//304 396//278 437//303
f 394//276 397//279 439//305
f 397//279 394//276 350//246
f 352//248 396//278 398//280
f 440//306 398//280 396//278
f 397//279 399//281 441//307
f 399//281 397//279 353//249
f 354//250 398//280 400//282
f 442//308 400//282 398//280
f 399//281 401//283 443//309
f 401//283 399//281 355//251
f 356//252 400//282 402//284
f 444//310 402//284 400//282
f 423//34 445//34 446//34
f 447//33 448//33 424//33
f 404//33 428//33 427//33
f 428//33 404//33 403//33
f 405//34 406//34 429//34
f 430//34 429//34 406//34
f 408//285 449//311 407//285
f 449//311 408//285 450//311
f 451//312 409//286 452//312
f 410//286 452//312 409//286
f 412//288 453//313 454//314
f 453//313 412//288 411//287
f 413//289 414//290 455//315
f 456//316 455//315 414//290
f 369//257 457//317 415//291
f 457//317 369//257 412//288
f 414//290 371//259 458//318
f 416//292 458//318 371//259
f 373//261 459//319 417//293
f 459//319 373//261 415//291
f 416//292 374//262 460//320
f 418//294 460//320 374//262
f 417//293 419//295 375//263
f 419//295 417//293 461//321
f 462//322 418//294 420//296
f 376//264 420//296 418//294
f 421//34 463//34 464//34
f 465//33 466//33 426//33
f 423//34 422//34 445//34
f 448//33 425//33 424//33
f 421//34 464//34 422//34
f 425//33 465//33 426//33
f 467//323 432//298 431//297
f 432//298 467//323 468//324
f 469//325 470//326 433//299
f 434//300 433//299 470//326
f 471//327 436//302 472//328
f 436//302 471//327 435//301
f 437//303 473//329 438//304
f 474//330 438//304 473//329
f 475//331 394//276 439//305
f 394//276 475//331 436//302
f 438//304 476//332 396//278
f 440//306 396//278 476//332
f 439//305 441//307 477//333
f 441//307 439//305 397//279
f 398//280 440//306 442//308
f 478//334 442//308 440//306
f 441//307 443//309 479//335
f 443//309 441//307 399//281
f 400//282 442//308 444//310
f 480//336 444//310 442//308
f 446//34 481//34 482//34
f 483//33 484//33 447//33
f 446//34 445//34 481//34
f 484//33 448//33 447//33
f 467//323 450//311 468//324
f 450//311 467//323 449//311
f 452//312 470//326 451//312
f 469//325 451//312 470//326
f 454//314 485//337 486//338
f 485//337 454//314 453//313
f 455//315 456//316 487//339
f 488//340 487//339 456//316
f 412//288 489//341 457//317
f 489//341 412//288 454//314
f 456//316 414//290 490//342
f 458//318 490//342 414//290
f 415//291 491//343 459//319
f 491//343 415//291 457//317
f 458//318 416//292 492//344
f 460//320 492//344 416//292
f 417//293 493//345 461//321
f 493//345 417//293 459//319
f 460//320 418//294 494//346
f 462//322 494//346 418//294
f 463//34 495//34 496//34
f 497//33 498//33 466//33
f 463//34 496//34 464//34
f 465//33 497//33 466//33
f 499//347 500//348 501//349
f 500//348 499//347 502//350
f 503//351 504//352 505//353
f 506//354 505//353 504//352
f 499//347 507//355 502//350
f 507//355 499//347 508//356
f 509//357 504//352 510//358
f 503//351 510//358 504//352
f 511//359 471//327 472//328
f 471//327 511//359 512//360
f 513//361 514//362 473//329
f 474//330 473//329 514//362
f 515//363 436//302 475//331
f 436//302 515//363 472//328
f 474//330 516//364 438//304
f 476//332 438//304 516//364
f 517//365 439//305 477//333
f 439//305 517//365 475//331
f 476//332 518//366 440//306
f 478//334 440//306 518//366
f 477//333 479//335 519//367
f 479//335 477//333 441//307
f 442//308 478//334 480//336
f 520//368 480//336 478//334
f 482//34 521//34 522//34
f 523//33 524//33 483//33
f 482//34 481//34 521//34
f 524//33 484//33 483//33
f 501//349 517//365 525//369
f 517//365 501//349 500//348
f 505//353 506//354 518//366
f 526//370 518//366 506//354
f 486//338 512//360 511//359
f 512//360 486//338 485//337
f 487//339 488//340 513//361
f 514//362 513//361 488//340
f 454//314 527//371 489//341
f 527//371 454//314 486//338
f 488//340 456//316 528//372
f 490//342 528//372 456//316
f 457//317 529//373 491//343
f 529//373 457//317 489//341
f 490//342 458//318 530//374
f 492//344 530//374 458//318
f 459//319 531//375 493//345
f 531//375 459//319 491//343
f 492//344 460//320 532//376
f 494//346 532//376 460//320
f 495//34 533//34 534//34
f 535//33 536//33 498//33
f 495//34 534//34 496//34
f 497//33 535//33 498//33
f 529//373 508//356 537//377
f 508//356 529//373 507//355
f 510//358 530//374 509//357
f 538//378 509//357 530//374
f 502//350 515//363 500//348
f 515//363 502//350 539//379
f 540//380 503//351 516//364
f 505//353 516//364 503//351
f 502//350 527//371 539//379
f 527//371 502//350 507//355
f 510//358 503//351 528//372
f 540//380 528//372 503//351
f 539//379 472//328 515//363
f 472//328 539//379 511//359
f 514//362 540//380 474//330
f 516//364 474//330 540//380
f 500//348 475//331 517//365
f 475//331 500//348 515//363
f 516//364 505//353 476//332
f 518//366 476//332 505//353
f 525//369 477//333 519//367
f 477//333 525//369 517//365
f 518//366 526//370 478//334
f 520//368 478//334 526//370
f 539//379 486//338 511//359
f 486//338 539//379 527//371
f 528//372 540//380 488//340
f 514//362 488//340 540//380
f 489//341 507//355 529//373
f 507//355 489//341 527//371
f 528//372 490//342 510//358
f 530//374 510//358 490//342
f 491//343 537//377 531//375
f 537//377 491//343 529//373
f 530//374 492//344 538//378
f 532//376 538//378 492//344
