# SSTK version 0.8.0
# 2
mtllib original_2.mtl
o #ID98
v 0.29385470 0.17503852 -0.18003290
v 0.22673833 0.21701560 -0.23619889
v 0.27850691 0.21707546 -0.17076265
v 0.23936158 0.17486359 -0.24929220
v 0.15970999 0.21714083 -0.28624920
v 0.16863319 0.17495842 -0.30212742
v 0.21188908 0.25757625 -0.22111413
v 0.26028509 0.25742131 -0.15984433
v 0.32878901 0.17497209 -0.09898965
v 0.31152295 0.21717517 -0.09416733
v 0.30641051 0.13177473 -0.18729092
v 0.24926562 0.13170496 -0.25964330
v 0.08210493 0.21693383 -0.31713571
v 0.08652730 0.17506806 -0.33457003
v 0.14938651 0.25741325 -0.26750805
v 0.17556827 0.13172560 -0.31438446
v 0.19474949 0.29617729 -0.20335886
v 0.23903260 0.29609082 -0.14723256
v 0.29107235 0.25730970 -0.08836476
v 0.32367398 0.21706644 -0.01155077
v 0.34164237 0.17511323 -0.01170848
v 0.34282406 0.13169120 -0.10302842
v 0.31552098 0.08711610 -0.19284029
v 0.25687729 0.08729580 -0.26717110
v -0.00095227 0.21720191 -0.32678616
v -0.00115822 0.17507560 -0.34473214
v 0.07703912 0.25745817 -0.29643776
v 0.09012444 0.13153190 -0.34849621
v 0.13738721 0.29587312 -0.24617352
v 0.18095826 0.08735602 -0.32394152
v 0.17532707 0.33234861 -0.18355338
v 0.21518906 0.33236159 -0.13297381
v 0.26730782 0.29595136 -0.08145950
v 0.30231195 0.25743980 -0.01117253
v 0.31376099 0.21719859 0.07154501
v 0.33148866 0.17497887 0.07595412
v 0.35593383 0.13161818 -0.01184759
v 0.35319152 0.08729576 -0.10572735
v 0.32160266 0.04209074 -0.19654727
v 0.26190025 0.04205658 -0.27233350
v -0.08338098 0.21703194 -0.31495597
v -0.08820774 0.17487172 -0.33207395
v -0.00036095 0.25744886 -0.30549420
v -0.00138283 0.13157344 -0.35930678
v 0.07083107 0.29604144 -0.27251436
v 0.09271652 0.08723614 -0.35902751
v 0.12380982 0.33235964 -0.22167345
v 0.18429664 0.04208616 -0.33004439
v 0.18887858 0.36632560 -0.11736605
v 0.15387690 0.36623167 -0.16153223
v 0.24053513 0.33244947 -0.07390061
v 0.27758309 0.29614031 -0.01083055
v 0.29306309 0.25755466 0.06630205
v 0.28302691 0.21712488 0.14906315
v 0.29880860 0.17505819 0.15789301
v 0.34540303 0.13163983 0.07952236
v 0.36688230 0.08715984 -0.01215322
v 0.35999234 0.04203936 -0.10784262
v 0.32404308 0.00319054 -0.19793585
v 0.26375133 0.00323732 -0.27438388
v -0.16015192 0.21710432 -0.28183332
v -0.16934215 0.17511421 -0.29711123
v -0.07762512 0.25747701 -0.29424220
v -0.09229276 0.13178012 -0.34603081
v -0.00002417 0.29601247 -0.28073041
v -0.00141061 0.08736519 -0.36992747
v 0.06423651 0.33237805 -0.24553036
v 0.09455231 0.04202019 -0.36576822
v 0.10876417 0.36628952 -0.19519201
v 0.18559409 0.00329187 -0.33257810
v 0.16011618 0.39774113 -0.10004863
v 0.13061843 0.39760723 -0.13741965
v 0.21118705 0.36625620 -0.06563953
v 0.24973787 0.33232375 -0.01054840
v 0.26932991 0.29609727 0.06010626
v 0.26444130 0.25751517 0.13867802
v 0.23299697 0.21704796 0.21622527
v 0.24610947 0.17508319 0.22858535
v 0.31123575 0.13176895 0.16489585
v 0.35575007 0.08712882 0.08195275
v 0.37388173 0.04206977 -0.01214978
v 0.36266314 0.00325559 -0.10858122
v 0.26372235 -0.04927181 -0.27444864
v 0.32397126 0.00331090 -0.19794354
v 0.32408019 -0.04923985 -0.19789161
v 0.26369346 0.00315917 -0.27435022
v -0.22571231 0.21720021 -0.22996225
v -0.23856206 0.17502644 -0.24244740
v -0.14934485 0.25758542 -0.26338330
v -0.17684443 0.13167469 -0.30942856
v -0.07100133 0.29615595 -0.27040210
v -0.09514833 0.08725818 -0.35636579
v 0.00027275 0.33236030 -0.25305424
v -0.00147134 0.04219079 -0.37705760
v 0.05657093 0.36629348 -0.21596664
v 0.09516389 0.00331840 -0.36859236
v 0.09263103 0.39761234 -0.16589352
v 0.18548597 0.00309096 -0.33262293
v 0.18559481 -0.04919963 -0.33266640
v 0.12553315 0.42626667 -0.08679752
v 0.10592949 0.42608591 -0.11197058
v 0.10559824 0.42601937 -0.11186849
v 0.12943537 0.42610055 -0.08173654
v 0.12955745 0.42606163 -0.08193906
v 0.17894624 0.39775813 -0.05662745
v 0.21933174 0.36637982 -0.01002208
v 0.24240011 0.33234323 0.05334098
v 0.24279407 0.29610996 0.12673658
v 0.21772826 0.25739196 0.20129103
v 0.17670028 0.17485358 0.28320456
v 0.16756177 0.21707192 0.26801898
v 0.25636085 0.13180382 0.23852297
v 0.32054805 0.08733142 0.17012355
v 0.36245012 0.04193170 0.08377088
v 0.37658218 0.00316696 -0.01220579
v 0.36259145 0.00327805 -0.10850092
v 0.36260192 -0.04914322 -0.10851913
v 0.26382160 -0.12916282 -0.27430945
v 0.32394511 -0.04901929 -0.19805679
v 0.32408157 -0.12903840 -0.19806239
v 0.26375511 -0.04926112 -0.27441625
v -0.29128692 0.17495630 -0.17172624
v -0.27571290 0.21710211 -0.16303251
v -0.21032027 0.25768292 -0.21522142
v -0.24908335 0.13178354 -0.25255883
v -0.13651734 0.29599157 -0.24224127
v -0.18226909 0.08713740 -0.31885382
v -0.06345006 0.33248381 -0.24372626
v -0.09704635 0.04220549 -0.36309285
v 0.00061542 0.36627861 -0.22237093
v -0.00153713 0.00325088 -0.37992826
v 0.04834195 0.39771591 -0.18351549
v 0.09508342 0.00331708 -0.36865668
v 0.09526964 -0.04914135 -0.36839275
v 0.10042130 0.42598401 -0.11547522
v 0.07531855 0.42599886 -0.13495683
v 0.07495610 0.42598903 -0.13460321
v 0.18553909 -0.04919990 -0.33257663
v 0.18548015 -0.12918098 -0.33262754
v 0.12546010 0.42611268 -0.08670238
v 0.12935790 -0.04918816 -0.08175189
v 0.12932008 0.42621498 -0.08173798
v 0.10573379 -0.04933457 -0.11174367
v 0.10566184 0.42608391 -0.11181889
v 0.14188801 0.42616623 -0.05259427
v 0.14432031 0.42609665 -0.04680383
v 0.14475339 0.42605325 -0.04696388
v 0.18582691 0.39761344 -0.00942408
v 0.21254496 0.36637387 0.04584222
v 0.21870676 0.33239468 0.11321458
v 0.20014329 0.29593837 0.18410710
v 0.15661605 0.25752044 0.24957328
v 0.09581774 0.17506952 0.31816621
v 0.09089809 0.21702566 0.30107265
v 0.18423682 0.13172628 0.29581348
v 0.26398217 0.08711775 0.24623548
v 0.32685591 0.04194521 0.17372774
v 0.36525034 0.00329408 0.08446537
v 0.37666719 0.00326130 -0.01224588
v 0.37662170 -0.04932050 -0.01215505
v 0.36254853 -0.04905199 -0.10869516
v 0.36273368 -0.12919381 -0.10849186
v 0.26383040 -0.60864049 -0.27440530
v 0.32410310 -0.12913202 -0.19788139
v 0.32410353 -0.60875851 -0.19792530
v 0.26375126 -0.12922895 -0.27434956
v -0.32375785 0.17506837 -0.08978565
v -0.30637644 0.21694861 -0.08537533
v -0.25689910 0.25768430 -0.15260497
v -0.30384954 0.13158581 -0.17868488
v -0.19267664 0.29595078 -0.19776394
v -0.25669619 0.08740255 -0.26016499
v -0.12215912 0.33232922 -0.21835275
v -0.18602965 0.04227087 -0.32474262
v -0.05514169 0.36637273 -0.21434406
v -0.09794479 0.00326763 -0.36582689
v 0.00105737 0.39760702 -0.18901340
v -0.00161742 0.00325950 -0.37981497
v 0.09503464 -0.04902481 -0.36870603
v -0.00141967 -0.04933211 -0.37979339
v 0.09509422 0.00336210 -0.36855709
v 0.06907711 0.42609294 -0.13693644
v 0.03956941 0.42619267 -0.14897807
v 0.03947579 0.42613699 -0.14856043
v 0.09542625 -0.00350741 -0.36901382
v 0.09513172 -0.04904371 -0.36864824
v 0.09519169 0.00321945 -0.36857559
v 0.09523487 -0.04914817 -0.36846270
v 0.09514670 -0.12906779 -0.36849938
v 0.07515959 -0.04918080 -0.13477835
v 0.10040639 0.42607898 -0.11552958
v 0.07501490 0.42603696 -0.13454912
v 0.18569161 -0.60876745 -0.33242213
v -0.13685482 -0.04924208 0.03303371
v -0.13793488 -0.04921320 -0.04287528
v -0.14246871 -0.04907390 -0.00477631
v -0.12181886 -0.04935353 0.06796552
v -0.12391158 -0.04914061 -0.07827926
v -0.09817468 -0.04906013 0.09788866
v -0.10109107 -0.04922879 -0.10890460
v -0.06768661 -0.04920063 0.12078539
v -0.07117968 -0.04933629 -0.13258030
v -0.06287784 -0.04913359 -0.00305067
v -0.05943278 -0.04922302 0.01396587
v -0.03230174 -0.04913826 0.13484369
v -0.05204081 -0.04922227 0.02976001
v -0.04056008 -0.04904990 0.04282070
v -0.02620685 -0.04927999 0.05244230
v 0.00590058 -0.04903721 0.13930401
v -0.00993911 -0.04923683 0.05824161
v 0.00753959 -0.04904458 0.05947341
v 0.04353395 -0.04919107 0.13369080
v 0.02470931 -0.04900741 0.05641440
v 0.04037464 -0.04911423 0.04870281
v 0.07869231 -0.04924153 0.11868395
v 0.05337934 -0.04921893 0.03740410
v 0.06334204 -0.04918926 0.02304854
v 0.06906519 -0.04913275 0.00672674
v 0.07016357 -0.04913237 -0.01078635
v -0.06147672 -0.04919214 -0.02055757
v -0.03611091 -0.04927761 -0.14757611
v -0.05585166 -0.04915617 -0.03686823
v -0.04598698 -0.04919156 -0.05125131
v -0.03272527 -0.04921036 -0.06268388
v -0.01725208 -0.04927088 -0.07013379
v 0.00172695 -0.04931350 -0.15304912
v -0.00006204 -0.04926601 -0.07349282
v 0.01731354 -0.04919778 -0.07221035
v 0.03954707 -0.04930088 -0.14870071
v 0.03372272 -0.04912917 -0.06638636
v 0.04791191 -0.04913562 -0.05670835
v 0.07513167 -0.04907998 -0.13466748
v 0.05930715 -0.04915706 -0.04364776
v 0.06703772 -0.04898646 -0.02784381
v 0.10862557 -0.04927092 0.09499790
v 0.10567075 -0.04911186 -0.11178085
v 0.13138305 -0.04907129 0.06433406
v 0.12921118 -0.04918087 -0.08197720
v 0.14546502 -0.04922931 0.02875249
v 0.14460862 -0.04924254 -0.04689348
v 0.14996517 -0.04911452 -0.00898974
v 0.14189717 0.42623796 -0.05280069
v 0.14444927 -0.04912150 -0.04669097
v 0.14452430 0.42606268 -0.04678702
v 0.14916952 0.42614678 -0.01537520
v 0.15006100 0.42621915 -0.00900037
v 0.15020659 0.42610420 -0.00903782
v 0.18034867 0.39765932 0.03763335
v 0.19171868 0.36637030 0.09819876
v 0.18033084 0.33240579 0.16465830
v 0.14401033 0.29587639 0.22824578
v 0.08502982 0.25744071 0.28033117
v 0.00844230 0.17488787 0.33104618
v 0.00810127 0.21697767 0.31305859
v 0.09988041 0.13170259 0.33206151
v 0.18971177 0.08724920 0.30482301
v 0.26913601 0.04211186 0.25100164
v 0.32948503 0.00313355 0.17488744
v 0.36531010 0.00315776 0.08451338
v 0.36538938 -0.04907023 0.08464459
v 0.37672881 -0.04919867 -0.01235052
v 0.37666289 -0.12917083 -0.01212269
v 0.36267746 -0.12914217 -0.10842822
v 0.36245376 -0.60865282 -0.10858951
v -0.35780551 -0.60872068 -0.09851011
v -0.35522316 -0.60859944 0.09476926
v -0.36931928 -0.60861615 -0.00164526
v -0.31675423 -0.60868517 0.18420927
v -0.32201323 -0.60866752 -0.18870642
v -0.25625663 -0.60852838 0.26059839
v -0.26368163 -0.60867382 -0.26688648
v -0.17809253 -0.60851974 0.31875432
v -0.18743054 -0.60856831 -0.32714091
v -0.08777489 -0.60877575 0.35455460
v -0.09793847 -0.60870107 -0.36574688
v 0.00889582 -0.60856665 0.36603818
v -0.00165508 -0.60876797 -0.37982600
v 0.10545069 -0.60865582 0.35206595
v 0.09510304 -0.60878958 -0.36840343
v 0.19476825 -0.60860414 0.31339724
v 0.18566976 -0.60868438 -0.33258538
v 0.27120374 -0.60856061 0.25308585
v 0.26371627 -0.60857232 -0.27449190
v 0.32939270 -0.60863509 0.17495512
v 0.32412937 -0.60864322 -0.19805093
v 0.36534814 -0.60863227 0.08449684
v 0.36257807 -0.60867721 -0.10854709
v 0.37684294 -0.60867327 -0.01219816
v -0.33412905 0.17515724 -0.00205544
v -0.31612231 0.21709074 -0.00242122
v -0.28574124 0.25740156 -0.08016545
v -0.33778119 0.13178019 -0.09336993
v -0.23540494 0.29589323 -0.14068939
v -0.31316951 0.08734214 -0.18414732
v -0.17273252 0.33237743 -0.17850122
v -0.26166249 0.04223251 -0.26494089
v -0.10674498 0.36645909 -0.19210237
v -0.18736681 0.00318612 -0.32743754
v -0.04580510 0.39768131 -0.18230129
v -0.09796100 0.00327809 -0.36589929
v -0.09784372 -0.04917334 -0.36582393
v 0.03332950 0.42621375 -0.14949560
v 0.00172149 0.42610901 -0.15348618
v 0.00159851 0.42604382 -0.15319134
v -0.00146688 -0.04905826 -0.37996865
v -0.00144269 -0.12911294 -0.37997059
v 0.03959265 -0.04918238 -0.14881836
v 0.06909488 0.42593293 -0.13700073
v 0.03963176 0.42614029 -0.14874938
v 0.09522985 -0.12921148 -0.36850896
v 0.09516131 -0.60862761 -0.36842815
v 0.04356657 0.42627112 0.13377207
v 0.07863526 -0.04919778 0.11882207
v 0.04371328 -0.04905729 0.13368995
v 0.04944021 0.42602548 0.13130940
v 0.07867588 0.42609018 0.11874205
v 0.10845771 -0.04918189 0.09493054
v 0.08358562 0.42619897 0.11471977
v 0.10840139 0.42603241 0.09503791
v 0.11244011 0.42619420 0.09004338
v 0.13142459 -0.04915166 0.06443122
v 0.13148878 0.42621396 0.06435371
v 0.13382873 0.42607469 0.05834520
v 0.14558059 -0.04920820 0.02881636
v 0.14549575 0.42615329 0.02892038
v 0.14630130 0.42607090 0.02244255
v 0.14998453 -0.04916286 -0.00891232
v 0.14995287 0.42626566 -0.00914678
v 0.14910013 0.42596894 -0.01519130
v 0.00170304 -0.04915115 -0.15315507
v 0.03311893 0.42605803 -0.14950914
v 0.00154019 0.42599681 -0.15315010
v -0.03606365 -0.04928233 -0.14757208
v -0.00449628 0.42617181 -0.15208759
v -0.03612908 0.42603405 -0.14758642
v -0.07109715 -0.04920004 -0.13260127
v -0.04205044 0.42603734 -0.14500233
v -0.07104416 0.42615846 -0.13244717
v -0.10115404 -0.04922142 -0.10892595
v -0.07620884 0.42601325 -0.12857834
v -0.10126127 0.42620457 -0.10897418
v -0.12379413 0.42617051 -0.07817854
v -0.12401208 -0.04925134 -0.07828612
v -0.10498476 0.42609286 -0.10382028
v -0.13794683 0.42607283 -0.04265977
v -0.13792759 -0.04927562 -0.04274012
v -0.12640947 0.42622242 -0.07225515
v -0.14267385 0.42605663 -0.00473104
v -0.14231077 -0.04919430 -0.00495904
v -0.13871531 0.42618220 -0.03640842
v -0.13696840 0.42608109 0.03294864
v -0.13710939 -0.04927803 0.03278582
v -0.14156761 0.42596829 0.00151603
v -0.12190500 0.42618404 0.06795713
v -0.12170806 -0.04921955 0.06793027
v -0.13439261 0.42607426 0.03893926
v -0.09821573 0.42614405 0.09779155
v -0.09811547 -0.04929582 0.09775368
v -0.11781137 0.42598305 0.07290550
v -0.06770313 -0.04928942 0.12053898
v -0.09305382 0.42605543 0.10155022
v -0.06750931 0.42619482 0.12072115
v -0.03213582 -0.04919915 0.13470447
v -0.06161522 0.42616388 0.12295308
v -0.03210350 0.42609930 0.13476497
v 0.00570208 -0.04919294 0.13921158
v -0.02581029 0.42619684 0.13550953
v 0.00568207 0.42605583 0.13937318
v 0.01225773 0.42614777 0.13835157
v 0.14570346 0.42611533 0.02894310
v 0.14626915 0.42609964 0.02269761
v 0.14556917 0.42611720 0.02892190
v 0.16286045 0.39764989 0.08173293
v 0.15817847 0.36631445 0.14323194
v 0.12981494 0.33225353 0.20453048
v 0.07839177 0.29595563 0.25658657
v 0.00800340 0.25761838 0.29147189
v -0.07913025 0.17501030 0.32077155
v -0.07474492 0.21716479 0.30335147
v 0.00874529 0.13146539 0.34529730
v 0.10262579 0.08735479 0.34255343
v 0.19322964 0.04207276 0.31117110
v 0.27111415 0.00326231 0.25307988
v 0.32928336 0.00336543 0.17509422
v 0.32944652 -0.04909915 0.17496587
v 0.36545798 -0.04917460 0.08443531
v 0.36532503 -0.12912383 0.08444121
v 0.37680459 -0.12905523 -0.01207971
v 0.37667036 -0.60864873 -0.01226331
v 0.36528468 -0.60874882 0.08444560
v 0.32951198 -0.12898428 0.17500554
v 0.32939327 -0.60867184 0.17490432
v 0.27108258 -0.12920699 0.25302331
v 0.27130598 -0.60858094 0.25308556
v 0.19489705 -0.60866715 0.31334660
v 0.19468074 -0.12912647 0.31335318
v 0.10524579 -0.60872039 0.35205347
v 0.10552494 -0.12904370 0.35194305
v 0.00911733 -0.60877234 0.36601841
v 0.00897264 -0.12918826 0.36616088
v -0.08777049 -0.60884622 0.35456647
v -0.08766596 -0.12910566 0.35472791
v -0.17811927 -0.60870376 0.31880393
v -0.17835417 -0.12917030 0.31873947
v -0.25623143 -0.60884344 0.26061186
v -0.25625778 -0.12918813 0.26050157
v -0.31646066 -0.12901113 0.18401048
v -0.31652944 -0.60856643 0.18425995
v -0.35517795 -0.12903019 0.09453864
v -0.35527360 -0.60859029 0.09468803
v -0.36926231 -0.12895753 -0.00173861
v -0.36935781 -0.60864259 -0.00175681
v -0.35796344 -0.12910066 -0.09833288
v -0.35795004 -0.60862578 -0.09846859
v -0.32191185 -0.12898840 -0.18873098
v -0.32178875 -0.60860624 -0.18892906
v -0.26377435 -0.12911124 -0.26678421
v -0.26381518 -0.60850134 -0.26684254
v -0.18727918 -0.60870242 -0.32729170
v -0.18732046 -0.12909911 -0.32721523
v -0.09795670 -0.60860557 -0.36586189
v -0.09801292 -0.12910587 -0.36600798
v -0.00148714 -0.60868267 -0.37986320
v -0.30420850 0.21714402 0.08021809
v -0.32141638 0.17497307 0.08514559
v -0.29487182 0.25767615 -0.00266438
v -0.34869625 0.13164704 -0.00205100
v -0.26172078 0.29607740 -0.07411379
v -0.34824864 0.08733362 -0.09585833
v -0.21126017 0.33241978 -0.12701971
v -0.31943882 0.04201628 -0.18764044
v -0.15080952 0.36628086 -0.15704433
v -0.26375062 0.00330278 -0.26691994
v -0.08961462 0.39775937 -0.16327010
v -0.18717624 0.00338370 -0.32730445
v -0.18730078 -0.04914843 -0.32741261
v -0.03598531 0.42611971 -0.14789846
v -0.03614033 0.42600044 -0.14761605
v -0.00444994 0.42611935 -0.15230722
v -0.09783885 -0.04914158 -0.36592906
v 0.04346194 0.42597479 0.13387041
v 0.04939048 0.42612715 0.13114069
v 0.04344702 0.42603785 0.13365520
v 0.05323727 0.39769698 0.16836758
v 0.07871492 0.42609290 0.11854163
v 0.07865493 0.42607218 0.11892672
v 0.09688564 0.39766703 0.14945517
v 0.08361734 0.42617591 0.11479670
v 0.10857839 0.42620650 0.09490101
v 0.10872320 0.42605948 0.09506274
v 0.13432186 0.39752997 0.12010975
v 0.11258586 0.42612770 0.08983975
v 0.13142552 0.42612178 0.06442330
v 0.13154243 0.42601341 0.06460747
v 0.13373372 0.42618795 0.05846137
v -0.07131313 0.42602531 -0.13267751
v -0.07121066 0.42620311 -0.13268641
v -0.04200331 0.42620698 -0.14512973
v -0.10128253 0.42617566 -0.10899599
v -0.12682597 0.39763942 -0.13388821
v -0.10112122 0.42604276 -0.10891520
v -0.07624609 0.42603847 -0.12843008
v -0.12426350 0.42612457 -0.07836797
v -0.15519235 0.39770427 -0.09580713
v -0.12380377 0.42611505 -0.07829749
v -0.10508737 0.42629414 -0.10376427
v -0.13830111 0.42602770 -0.04284419
v -0.17273582 0.39773735 -0.05164578
v -0.13796035 0.42610776 -0.04287892
v -0.12634000 0.42596656 -0.07244839
v -0.14259616 0.42607464 -0.00484820
v -0.17832133 0.39762061 -0.00427551
v -0.14247789 0.42610893 -0.00496561
v -0.13882827 0.42608968 -0.03647174
v -0.17150255 0.39768443 0.04269383
v -0.13711981 0.42599116 0.03292981
v -0.14154963 0.42619250 0.00143127
v -0.13704188 0.42615022 0.03292004
v -0.15261003 0.39762670 0.08642654
v -0.12206729 0.42600175 0.06810994
v -0.13436548 0.42624528 0.03880074
v -0.12182861 0.42605701 0.06780486
v -0.12313716 0.39760426 0.12361212
v -0.09837351 0.42602954 0.09818989
v -0.11785217 0.42606446 0.07301740
v -0.09801959 0.42595469 0.09787841
v -0.08502961 0.39755371 0.15203425
v -0.09303413 0.42617202 0.10179735
v -0.06776771 0.42612619 0.12096523
v -0.06770119 0.42608905 0.12087695
v -0.04094493 0.39763445 0.16967963
v -0.06180548 0.42611196 0.12309386
v -0.03224949 0.42618940 0.13495320
v -0.03206764 0.42620126 0.13475553
v 0.00633692 0.39772093 0.17517503
v -0.02581063 0.42607576 0.13560676
v 0.00577328 0.42605891 0.13954843
v 0.00594376 0.42610904 0.13914817
v 0.01228071 0.42610290 0.13850103
v 0.11404773 0.36620312 0.17816197
v 0.07088534 0.33238309 0.22985897
v 0.00768604 0.29605244 0.26698737
v -0.06949275 0.25739451 0.28239718
v -0.16112095 0.17501337 0.28794164
v -0.15236093 0.21706104 0.27239157
v -0.08272729 0.13174078 0.33461084
v 0.00882005 0.08708319 0.35611316
v 0.10455255 0.04216391 0.34914887
v 0.19491043 0.00323639 0.31352816
v 0.27113135 0.00322121 0.25307828
v 0.27115695 -0.04915322 0.25302805
v 0.32946655 -0.04914335 0.17505310
v 0.27124693 -0.04922947 0.25310675
v 0.27122511 -0.12920243 0.25307649
v 0.19476552 -0.04915471 0.31356079
v 0.10524913 -0.04917396 0.35200706
v 0.00902702 -0.04909324 0.36611430
v -0.08772066 -0.12914297 0.35472457
v -0.08763836 -0.04916791 0.35472210
v -0.17824487 -0.04912542 0.31860613
v -0.25630456 -0.12922743 0.26054217
v -0.25628284 -0.04910061 0.26051603
v -0.31667584 -0.04934523 0.18419853
v -0.35505970 -0.04905356 0.09467002
v -0.36930681 -0.04907002 -0.00181210
v -0.35789407 -0.04923630 -0.09827930
v -0.32175497 -0.04928532 -0.18893242
v -0.26377445 -0.04914941 -0.26690523
v -0.18740037 -0.04911441 -0.32722997
v -0.27093756 0.21701887 0.15691778
v -0.28637478 0.17499343 0.16598775
v -0.28337540 0.25739902 0.07445266
v -0.33529759 0.13168987 0.08897048
v -0.27008878 0.29606299 -0.00293063
v -0.35944664 0.08722348 -0.00184116
v -0.23500884 0.33249587 -0.06728387
v -0.35516686 0.04203599 -0.09759125
v -0.18429253 0.36643520 -0.11199955
v -0.32185846 0.00331369 -0.18897383
v -0.26378990 0.00322162 -0.26696079
v -0.26385925 -0.04926953 -0.26710021
v 0.06247819 0.36636474 0.20039789
v -0.20518402 0.36623908 -0.05967911
v -0.21183337 0.36632590 -0.00391475
v -0.20357056 0.36628582 0.05178997
v -0.18120983 0.36625788 0.10359463
v -0.14659431 0.36631340 0.14762125
v -0.10134347 0.36634399 0.18124555
v -0.04910774 0.36625210 0.20202326
v 0.00683821 0.36625795 0.20860112
v 0.00722061 0.33230599 0.23919504
v -0.06339655 0.29602913 0.25878021
v -0.14199413 0.25754104 0.25373420
v -0.23172587 0.17511598 0.23535252
v -0.21937231 0.21704751 0.22237086
v -0.16811063 0.13163759 0.30072910
v -0.08530962 0.08718212 0.34520060
v 0.00903319 0.04209433 0.36310220
v 0.10537663 0.00337658 0.35203135
v 0.19479006 -0.04927467 0.31330207
v 0.19477499 0.00323990 0.31323723
v 0.10531440 -0.04929548 0.35211820
v 0.10523633 0.00333617 0.35202769
v 0.00896088 -0.04911830 0.36602375
v 0.00912204 0.00324359 0.36603901
v -0.08780131 -0.04923673 0.35459977
v -0.08771656 0.00320006 0.35475311
v -0.17826526 -0.04907107 0.31876007
v -0.17806781 0.00308256 0.31878697
v -0.25634907 -0.04922076 0.26053139
v -0.25615484 0.00331572 0.26043817
v -0.31679075 0.00335291 0.18402145
v -0.35523103 0.00320392 0.09471605
v -0.35500074 -0.04929700 0.09461932
v -0.36912588 0.00325518 -0.00152522
v -0.36919656 -0.04910775 -0.00160427
v -0.35784557 0.00326147 -0.09840682
v -0.32183079 0.00323239 -0.18875675
v -0.32185861 -0.04929486 -0.18891836
v -0.25268018 0.25754743 0.14586439
v -0.29889510 0.13160516 0.17352679
v -0.25990242 0.29586486 0.06775137
v -0.34569407 0.08716951 0.09189314
v -0.24225187 0.33242142 -0.00348641
v -0.36641221 0.04206955 -0.00164061
v -0.35783929 0.00323483 -0.09835104
v -0.23314205 0.33228934 0.06015719
v -0.20785239 0.33254189 0.11929314
v -0.16791214 0.33232902 0.16950237
v -0.11642693 0.33227592 0.20794862
v -0.05678958 0.33250135 0.23181660
v -0.12976517 0.29583869 0.23208761
v -0.20439430 0.25750358 0.20704679
v -0.24185435 0.13158166 0.24562650
v -0.17348505 0.08717988 0.31006705
v -0.08719703 0.04204186 0.35191849
v 0.00893867 0.00333675 0.36601107
v -0.08758149 0.00323975 0.35477691
v -0.17818979 0.00319599 0.31853949
v -0.17679247 0.04207867 0.31624735
v -0.25635591 0.00330122 0.26054218
v -0.25430411 0.04217656 0.25844946
v -0.31672266 0.00324542 0.18408712
v -0.31419777 0.04215825 0.18270224
v -0.35518745 0.00322584 0.09476862
v -0.35260018 0.04208244 0.09396858
v -0.36920005 0.00312252 -0.00163280
v -0.23158507 0.29618224 0.13342426
v -0.30821779 0.08721486 0.17912915
v -0.18721281 0.29600551 0.18939411
v -0.24939295 0.08727573 0.25342553
vn 0.8034944816991132 0.3532979080785794 -0.4791421563861531
vn 0.6295737170488399 0.4292461009108078 -0.6475991967677044
vn 0.7757325189403611 0.4292461079353341 -0.4625871138291794
vn 0.6521049792590154 0.3532979106221018 -0.6707754336405416
vn 0.44051057878510663 0.42924612462820655 -0.7884784045679858
vn 0.45627553694680795 0.35329789592855243 -0.8166965355114222
vn 0.6027619615883202 0.5022484178037125 -0.6200197936161942
vn 0.7426962774991261 0.5022484171760426 -0.44288685556595697
vn 0.9001271894815797 0.3532978972431703 -0.2548561134435405
vn 0.8690264426425035 0.42924611231947113 -0.24605043598160029
vn 0.8257873201480311 0.27492201233087377 -0.49243597453747834
vn 0.6701975553794772 0.2749219995035497 -0.6893860536392818
vn 0.22142723650023757 0.42924612751293817 -0.875624200756817
vn 0.22935168526111674 0.3532979031781983 -0.9069610774877686
vn 0.421750407912608 0.5022484240456986 -0.7548994065232537
vn 0.46893490324813886 0.27492201077283435 -0.8393556722321474
vn 0.5718570694627289 0.571808524321156 -0.588229975111063
vn 0.7046165934305647 0.5718085262710603 -0.42017908746869437
vn 0.8320170797085067 0.502248423820641 -0.23557185706915476
vn 0.9030976154167977 0.4292461284786798 -0.012745909718750498
vn 0.935417710735873 0.3532979082901504 -0.013202061939832616
vn 0.9251011317997978 0.27492201655112886 -0.26192705236037345
vn 0.8424541595766443 0.1946550131886966 -0.5023747752948176
vn 0.6837241030797725 0.19465501490711604 -0.7032999189814193
vn -0.012745909718750384 0.4292461284786798 -0.9030976154167977
vn -0.01320206193983251 0.3532979082901504 -0.9354177107358729
vn 0.21199728619000283 0.5022484416495472 -0.838333855637881
vn 0.2357150289382621 0.27492200899998886 -0.9321246236958041
vn 0.4001263761481268 0.5718085133451658 -0.7161940429636082
vn 0.47839933152513653 0.19465501135513197 -0.8562963891963086
vn 0.537073842725603 0.6374556826069104 -0.5524508486481964
vn 0.6617582853994907 0.6374556988529161 -0.3946215955888206
vn 0.7893577247168201 0.5718085332611451 -0.22349358764766122
vn 0.8646372685514078 0.5022484228048526 -0.012203098868687716
vn 0.8756242007568171 0.42924612751293817 0.2214272365002374
vn 0.9069610774877686 0.3532979031781982 0.22935168526111652
vn 0.9613707850197837 0.2749220135922243 -0.013568351146768565
vn 0.9437724091162925 0.1946550171547539 -0.2672135177855191
vn 0.8533772153857669 0.11304810718163093 -0.5088884491940104
vn 0.6925890922309766 0.11304810950067454 -0.7124187492346024
vn -0.24605043598160023 0.42924611231947113 -0.8690264426425034
vn -0.25485611344354037 0.3532978972431703 -0.9001271894815795
vn -0.012203098868687607 0.5022484228048526 -0.8646372685514077
vn -0.013568351146768453 0.2749220135922243 -0.9613707850197836
vn 0.20112773551555832 0.5718085193489608 -0.7953506467001413
vn 0.2404724580773011 0.19465500243834444 -0.950937656701
vn 0.3757886381389548 0.637455689871466 -0.6726315060240363
vn 0.4846021760974492 0.11304809901758661 -0.8673989037519745
vn 0.614417915592287 0.698747385914461 -0.3663914787176916
vn 0.4986530174753302 0.6987473891165089 -0.5129300677145086
vn 0.7413450006817361 0.6374557051286637 -0.2098995330226218
vn 0.8203054014462463 0.5718085446151517 -0.011577420404154125
vn 0.838333855637881 0.5022484416495471 0.21199728619000263
vn 0.788478404567986 0.42924612462820666 0.4405105787851066
vn 0.8166965355114222 0.35329789592855254 0.45627553694680795
vn 0.932124623695804 0.2749220089999888 0.23571502893826196
vn 0.9807740925992681 0.19465500912919145 -0.013842207446667308
vn 0.9560091337920571 0.11304810665219724 -0.27067815147978663
vn 0.8566437656733363 0.07216467127362246 -0.5108362936919966
vn 0.695240148247001 0.07216466970089316 -0.7151457171181611
vn -0.46258711382917933 0.4292461079353341 -0.7757325189403611
vn -0.4791421563861532 0.3532979080785795 -0.8034944816991132
vn -0.23557185706915473 0.5022484238206412 -0.8320170797085067
vn -0.2619270523603734 0.2749220165511289 -0.9251011317997979
vn -0.011577420404154022 0.5718085446151517 -0.8203054014462463
vn -0.013842207446667192 0.19465500912919148 -0.9807740925992682
vn 0.18889413046326728 0.6374556982045153 -0.7469733866096704
vn 0.24359038489790985 0.1130481011508696 -0.9632672792177002
vn 0.3489057594673058 0.6987474205281652 -0.6245132611208334
vn 0.4864570532727407 0.07216467298417448 -0.8707191253752781
vn 0.5631904621718022 0.7550398179305886 -0.3357549354187599
vn 0.457100426818342 0.7550398160320562 -0.4700787976592526
vn 0.6883112194464842 0.6987474020124428 -0.19488389714123525
vn 0.7704102657175508 0.6374557204647688 -0.010873220486826941
vn 0.7953506467001413 0.5718085193489608 0.2011277355155582
vn 0.7548994065232538 0.5022484240456986 0.42175040791260787
vn 0.6475991967677045 0.4292461009108079 0.6295737170488399
vn 0.6707754336405416 0.3532979106221018 0.6521049792590153
vn 0.8393556722321476 0.2749220107728344 0.46893490324813875
vn 0.9509376567010001 0.19465500243834444 0.24047245807730097
vn 0.9934905726126391 0.11304810810663769 -0.014021675481938077
vn 0.9596684777998725 0.07216467588898638 -0.27171432106371035
vn 0.6970575746673413 0 -0.7170151585558594
vn 0.8588830830677195 0 -0.5121716993549026
vn -0.6475991967677045 0.4292461009108079 -0.6295737170488399
vn -0.6707754336405416 0.3532979106221018 -0.6521049792590153
vn -0.44288685556595697 0.5022484171760426 -0.742696277499126
vn -0.4924359745374784 0.2749220123308739 -0.8257873201480312
vn -0.22349358764766117 0.5718085332611453 -0.7893577247168201
vn -0.26721351778551905 0.19465501715475392 -0.9437724091162923
vn -0.010873220486826846 0.6374557204647688 -0.7704102657175508
vn -0.014021675481937959 0.11304810810663769 -0.993490572612639
vn 0.17538114738810018 0.6987474224219383 -0.6935369440769041
vn 0.24452280230047752 0.07216467510739492 -0.9669544243767468
vn 0.3198597949789803 0.75503978695608 -0.5723675669264658
vn 0.48772875399349086 0 -0.872995224802494
vn 0.49093326948273397 0.780214720073413 -0.38762032389408985
vn 0.43426310916759014 0.7828281155153315 -0.4456407674066775
vn 0.4331172827030928 0.782827834801377 -0.44675496693834005
vn 0.5339878172106958 0.7828278631064799 -0.31943316642875214
vn 0.5348062617081029 0.7828281128084568 -0.31806038457273184
vn 0.6308999771540451 0.7550398125085874 -0.17854999399054114
vn 0.7152972402711428 0.6987474087723683 -0.010095384806334146
vn 0.7469733866096704 0.6374556982045153 0.1888941304632672
vn 0.7161940429636082 0.5718085133451658 0.40012637614812674
vn 0.6200197936161941 0.5022484178037125 0.6027619615883202
vn 0.4791421563861532 0.3532979080785795 0.8034944816991132
vn 0.46258711382917933 0.4292461079353341 0.7757325189403611
vn 0.689386053639282 0.27492199950354973 0.6701975553794771
vn 0.8562963891963086 0.19465501135513197 0.4783993315251363
vn 0.9632672792177003 0.1130481011508696 0.2435903848979097
vn 0.9972934091648427 0.07216467665047692 -0.014075350095036675
vn 0.9621771331711548 0 -0.2724246031520242
vn -0.8166965355114222 0.35329789592855254 -0.45627553694680795
vn -0.788478404567986 0.42924612462820666 -0.4405105787851066
vn -0.6200197936161941 0.5022484178037125 -0.6027619615883202
vn -0.689386053639282 0.27492199950354973 -0.6701975553794771
vn -0.4201790874686943 0.5718085262710603 -0.7046165934305646
vn -0.5023747752948177 0.19465501318869666 -0.8424541595766443
vn -0.20989953302262176 0.6374557051286638 -0.7413450006817361
vn -0.2706781514797866 0.11304810665219726 -0.9560091337920571
vn -0.010095384806334054 0.6987474087723683 -0.7152972402711427
vn -0.014075350095036557 0.07216467665047692 -0.9972934091648425
vn 0.16082117962067435 0.7550398028005242 -0.635650410502786
vn 0.3696073826851164 0 -0.9291880233110293
vn 0.373881540386839 0.7802147475681609 -0.5014753647340174
vn 0.3041256017314145 0.7828281563957362 -0.5428514492248846
vn 0.302730481386602 0.7828278062266282 -0.5436311998384942
vn -0.7846834104006618 0 0.6198967215931912
vn -0.8588830830677195 0 0.5121716993549026
vn -0.8588840445692214 0 0.5121700869676162
vn -0.6970575746673413 0 0.7170151585558594
vn -0.6970589444929607 0 0.7170138268557724
vn 0.5745286321076817 0.7802147253579788 -0.24734961739014225
vn 0.5984680561056984 0.7828278183339481 -0.17034257443040393
vn 0.5989032263609597 0.7828281457254243 -0.16880467918433714
vn 0.6556147333061725 0.7550398021906969 -0.009177068143469155
vn 0.6935369440769042 0.6987474224219383 0.17538114738810007
vn 0.6726315060240363 0.637455689871466 0.3757886381389547
vn 0.588229975111063 0.571808524321156 0.5718570694627289
vn 0.44288685556595697 0.5022484171760426 0.742696277499126
vn 0.25485611344354037 0.3532978972431703 0.9001271894815795
vn 0.24605043598160023 0.42924611231947113 0.8690264426425034
vn 0.4924359745374784 0.2749220123308739 0.8257873201480312
vn 0.7032999189814194 0.19465501490711606 0.6837241030797725
vn 0.8673989037519745 0.11304809901758661 0.484602176097449
vn 0.966954424376747 0.07216467510739492 0.24452280230047735
vn 0.9999004187212182 0 -0.0141121451641055
vn -0.9069610774877686 0.3532979031781982 -0.22935168526111652
vn -0.8756242007568171 0.42924612751293817 -0.2214272365002374
vn -0.7548994065232538 0.5022484240456986 -0.42175040791260787
vn -0.8393556722321476 0.2749220107728344 -0.46893490324813875
vn -0.588229975111063 0.571808524321156 -0.5718570694627289
vn -0.7032999189814194 0.19465501490711606 -0.6837241030797725
vn -0.3946215955888206 0.6374556988529162 -0.6617582853994907
vn -0.5088884491940104 0.11304810718163093 -0.8533772153857668
vn -0.19488389714123522 0.6987474020124428 -0.6883112194464841
vn -0.2717143210637103 0.07216467588898638 -0.9596684777998724
vn -0.009177068143469077 0.7550398021906969 -0.6556147333061724
vn -0.014112145164105382 0 -0.999900418721218
vn 0.11652182469888189 0 -0.9931881314075612
vn 0.23135046531582404 0.7802147167409913 -0.5811557088930009
vn 0.15326253416529323 0.7828281077979383 -0.6030677816487393
vn 0.1517130128601674 0.7828278615366085 -0.6034597757356418
vn -0.9621510509309988 0 -0.2725167062628905
vn 0.24516196541503318 0 -0.9694821353247505
vn -0.48772875399349086 0 0.872995224802494
vn -0.5975048697868319 0 0.8018652820648996
vn -0.4877304010974683 0 0.8729943045892697
vn 0 1 0
vn -0.9183870444804294 0 0.3956832527799249
vn -0.9621771331711548 0 0.2724246031520242
vn -0.9621776620913 0 0.27242273505073017
vn 0.6189708095227285 0.7802147444322358 -0.09022244470928067
vn 0.6221636452550291 0.7828278256899531 -0.009643331816066558
vn 0.6221859796339202 0.7828281300671704 -0.008045217369101004
vn 0.6356504105027861 0.7550398028005242 0.16082117962067424
vn 0.6245132611208334 0.6987474205281652 0.3489057594673057
vn 0.5524508486481965 0.6374556826069104 0.5370738427256029
vn 0.4201790874686943 0.5718085262710603 0.7046165934305646
vn 0.23557185706915473 0.5022484238206412 0.8320170797085067
vn 0.01320206193983251 0.3532979082901504 0.9354177107358729
vn 0.012745909718750387 0.4292461284786798 0.9030976154167977
vn 0.2619270523603734 0.2749220165511289 0.9251011317997979
vn 0.5023747752948177 0.19465501318869666 0.8424541595766443
vn 0.7124187492346025 0.11304810950067454 0.6925890922309765
vn 0.8707191253752781 0.07216467298417448 0.4864570532727405
vn 0.9694821353247505 0 0.24516196541503302
vn 0 -1 0
vn -0.935417710735873 0.3532979082901504 0.013202061939832612
vn -0.9030976154167977 0.4292461284786798 0.012745909718750495
vn -0.838333855637881 0.5022484416495471 -0.21199728619000263
vn -0.932124623695804 0.2749220089999888 -0.23571502893826196
vn -0.7161940429636082 0.5718085133451658 -0.40012637614812674
vn -0.8562963891963086 0.19465501135513197 -0.4783993315251363
vn -0.5524508486481965 0.6374556826069104 -0.5370738427256029
vn -0.7124187492346025 0.11304810950067454 -0.6925890922309765
vn -0.3663914787176916 0.698747385914461 -0.6144179155922869
vn -0.5108362936919967 0.07216467127362247 -0.8566437656733363
vn -0.1785499939905411 0.7550398125085874 -0.6308999771540451
vn -0.2724246031520242 0 -0.9621771331711549
vn 0.07305327366475468 0.7802147015639865 -0.6212312280224506
vn -0.008045217369100926 0.7828281300671704 -0.6221859796339202
vn -0.00964333181606648 0.7828278256899531 -0.622163645255029
vn -0.24516196541503318 0 0.9694821353247505
vn -0.3696073826851164 0 0.9291880233110293
vn -0.24516377548917095 0 0.9694816775926688
vn -0.2724227350507302 0 -0.9621776620913001
vn -0.5121716993549028 0 -0.8588830830677195
vn -0.3956832527799248 0 -0.9183870444804293
vn -0.5121700869676162 0 -0.8588840445692215
vn -0.7170151585558595 0 -0.6970575746673411
vn -0.6198967215931913 0 -0.7846834104006619
vn -0.7170138268557724 0 -0.6970589444929606
vn -0.8018652820648997 0 -0.5975048697868318
vn -0.8729952248024941 0 -0.48772875399349064
vn -0.8729943045892697 0 -0.48773040109746807
vn -0.9291880233110292 0 -0.3696073826851161
vn -0.9694821353247505 0 -0.24516196541503302
vn -0.9694816775926687 0 -0.24516377548917073
vn -0.9931881314075611 0 -0.11652182469888175
vn -0.9999004187212182 0 0.0141121451641055
vn -0.9999004450046064 0 0.014110282760817548
vn -0.9895041276655262 0 0.14450460661475875
vn 0.014112145164105382 0 0.999900418721218
vn -0.11652182469888189 0 0.9931881314075612
vn 0.01411028276081743 0 0.9999004450046063
vn 0.2724246031520242 0 0.9621771331711549
vn 0.14450460661475867 0 0.9895041276655261
vn 0.2724227350507302 0 0.9621776620913001
vn 0.5121716993549028 0 0.8588830830677195
vn 0.3956832527799248 0 0.9183870444804293
vn 0.5121700869676162 0 0.8588840445692215
vn 0.7170151585558595 0 0.6970575746673411
vn 0.6198967215931913 0 0.7846834104006619
vn 0.7170138268557724 0 0.6970589444929606
vn 0.8729943045892697 0 0.48773040109746807
vn 0.8729952248024941 0 0.48772875399349064
vn 0.8018652820648997 0 0.5975048697868318
vn 0.9694816775926687 0 0.24516377548917073
vn 0.9291880233110292 0 0.3696073826851161
vn 0.9999004450046064 0 -0.014110282760817548
vn 0.9931881314075611 0 0.11652182469888175
vn 0.9621776620913 0 -0.27242273505073017
vn 0.9895041276655262 0 -0.14450460661475875
vn 0.8588840445692214 0 -0.5121700869676162
vn 0.9183870444804294 0 -0.3956832527799249
vn 0.6970589444929607 0 -0.7170138268557724
vn 0.7846834104006618 0 -0.6198967215931912
vn 0.5975048697868319 0 -0.8018652820648996
vn 0.4877304010974683 0 -0.8729943045892697
vn 0.24516377548917095 0 -0.9694816775926688
vn -0.01411028276081743 0 -0.9999004450046063
vn -0.14450460661475867 0 -0.9895041276655261
vn 0.6030677816487394 0.7828281077979383 0.15326253416529315
vn 0.6212312280224507 0.7802147015639865 0.0730532736647546
vn 0.6034597757356419 0.7828278615366085 0.15171301286016728
vn 0.5723675669264658 0.75503978695608 0.31985979497898026
vn 0.5129300677145086 0.6987473891165089 0.49865301747533003
vn 0.3946215955888206 0.6374556988529162 0.6617582853994907
vn 0.22349358764766117 0.5718085332611453 0.7893577247168201
vn 0.01220309886868761 0.5022484228048526 0.8646372685514077
vn -0.22935168526111674 0.3532979031781983 0.9069610774877686
vn -0.22142723650023757 0.42924612751293817 0.875624200756817
vn 0.013568351146768453 0.2749220135922243 0.9613707850197836
vn 0.26721351778551905 0.19465501715475392 0.9437724091162923
vn 0.5088884491940104 0.11304810718163093 0.8533772153857668
vn 0.7151457171181612 0.07216466970089316 0.6952401482470009
vn -0.8690264426425035 0.42924611231947113 0.24605043598160029
vn -0.9001271894815797 0.3532978972431703 0.2548561134435405
vn -0.8646372685514078 0.5022484228048526 0.01220309886868771
vn -0.9613707850197837 0.2749220135922243 0.013568351146768562
vn -0.7953506467001413 0.5718085193489608 -0.2011277355155582
vn -0.9509376567010001 0.19465500243834444 -0.24047245807730097
vn -0.6726315060240363 0.637455689871466 -0.3757886381389547
vn -0.8673989037519745 0.11304809901758661 -0.484602176097449
vn -0.5129300677145086 0.6987473891165089 -0.49865301747533003
vn -0.7151457171181612 0.07216466970089316 -0.6952401482470009
vn -0.33575493541875984 0.7550398179305886 -0.5631904621718021
vn -0.1688046791843371 0.7828281457254243 -0.5989032263609597
vn -0.17034257443040385 0.7828278183339481 -0.5984680561056984
vn -0.09022244470928062 0.7802147444322358 -0.6189708095227284
vn 0.1688046791843371 0.7828281457254243 0.5989032263609597
vn 0.24734961739014227 0.780214725357979 0.5745286321076817
vn 0.17034257443040385 0.7828278183339481 0.5984680561056984
vn 0.1785499939905411 0.7550398125085874 0.6308999771540451
vn 0.31943316642875225 0.78282786310648 0.5339878172106958
vn 0.31806038457273195 0.782828112808457 0.534806261708103
vn 0.33575493541875984 0.7550398179305886 0.5631904621718021
vn 0.38762032389408985 0.780214720073413 0.4909332694827338
vn 0.44675496693834005 0.782827834801377 0.4331172827030927
vn 0.4456407674066775 0.7828281155153315 0.43426310916759003
vn 0.4700787976592526 0.7550398160320562 0.4571004268183419
vn 0.5014753647340174 0.7802147475681609 0.3738815403868389
vn 0.5436311998384943 0.7828278062266282 0.3027304813866019
vn 0.5428514492248846 0.7828281563957364 0.3041256017314145
vn 0.581155708893001 0.7802147167409913 0.2313504653158239
vn -0.31806038457273195 0.782828112808457 -0.534806261708103
vn -0.31943316642875225 0.78282786310648 -0.5339878172106958
vn -0.24734961739014227 0.780214725357979 -0.5745286321076817
vn -0.4456407674066775 0.7828281155153315 -0.43426310916759003
vn -0.4700787976592526 0.7550398160320562 -0.4571004268183419
vn -0.44675496693834005 0.782827834801377 -0.4331172827030927
vn -0.38762032389408985 0.780214720073413 -0.4909332694827338
vn -0.5428514492248846 0.7828281563957364 -0.3041256017314145
vn -0.5723675669264658 0.75503978695608 -0.31985979497898026
vn -0.5436311998384943 0.7828278062266282 -0.3027304813866019
vn -0.5014753647340174 0.7802147475681609 -0.3738815403868389
vn -0.6030677816487394 0.7828281077979383 -0.15326253416529315
vn -0.6356504105027861 0.7550398028005242 -0.16082117962067424
vn -0.6034597757356419 0.7828278615366085 -0.15171301286016728
vn -0.581155708893001 0.7802147167409913 -0.2313504653158239
vn -0.6221859796339202 0.7828281300671704 0.008045217369100997
vn -0.6556147333061725 0.7550398021906969 0.009177068143469148
vn -0.6221636452550291 0.7828278256899531 0.009643331816066551
vn -0.6212312280224507 0.7802147015639865 -0.0730532736647546
vn -0.6308999771540451 0.7550398125085874 0.17854999399054114
vn -0.5989032263609597 0.7828281457254243 0.16880467918433714
vn -0.6189708095227285 0.7802147444322358 0.09022244470928067
vn -0.5984680561056984 0.7828278183339481 0.17034257443040393
vn -0.5631904621718022 0.7550398179305886 0.3357549354187599
vn -0.5348062617081029 0.7828281128084568 0.31806038457273184
vn -0.5745286321076817 0.7802147253579788 0.24734961739014225
vn -0.5339878172106958 0.7828278631064799 0.31943316642875214
vn -0.457100426818342 0.7550398160320562 0.4700787976592526
vn -0.43426310916759014 0.7828281155153315 0.4456407674066775
vn -0.49093326948273397 0.780214720073413 0.38762032389408985
vn -0.4331172827030928 0.782827834801377 0.44675496693834005
vn -0.3198597949789803 0.75503978695608 0.5723675669264658
vn -0.373881540386839 0.7802147475681609 0.5014753647340174
vn -0.3041256017314145 0.7828281563957362 0.5428514492248846
vn -0.302730481386602 0.7828278062266282 0.5436311998384942
vn -0.16082117962067435 0.7550398028005242 0.635650410502786
vn -0.23135046531582404 0.7802147167409913 0.5811557088930009
vn -0.15326253416529323 0.7828281077979383 0.6030677816487393
vn -0.1517130128601674 0.7828278615366085 0.6034597757356418
vn 0.00917706814346908 0.7550398021906969 0.6556147333061724
vn -0.07305327366475468 0.7802147015639865 0.6212312280224506
vn 0.008045217369100929 0.7828281300671704 0.6221859796339202
vn 0.009643331816066483 0.7828278256899531 0.622163645255029
vn 0.09022244470928062 0.7802147444322358 0.6189708095227284
vn 0.3663914787176916 0.698747385914461 0.6144179155922869
vn 0.20989953302262176 0.6374557051286638 0.7413450006817361
vn 0.011577420404154026 0.5718085446151517 0.8203054014462463
vn -0.21199728619000283 0.5022484416495472 0.838333855637881
vn -0.45627553694680795 0.35329789592855243 0.8166965355114222
vn -0.44051057878510663 0.42924612462820655 0.7884784045679858
vn -0.2357150289382621 0.27492200899998886 0.9321246236958041
vn 0.013842207446667192 0.19465500912919148 0.9807740925992682
vn 0.2706781514797866 0.11304810665219726 0.9560091337920571
vn 0.5108362936919967 0.07216467127362247 0.8566437656733363
vn -0.7757325189403611 0.4292461079353341 0.4625871138291794
vn -0.8034944816991132 0.3532979080785794 0.4791421563861531
vn -0.8320170797085067 0.502248423820641 0.23557185706915476
vn -0.9251011317997978 0.27492201655112886 0.26192705236037345
vn -0.8203054014462463 0.5718085446151517 0.011577420404154118
vn -0.9807740925992681 0.19465500912919145 0.013842207446667304
vn -0.7469733866096704 0.6374556982045153 -0.1888941304632672
vn -0.9632672792177003 0.1130481011508696 -0.2435903848979097
vn -0.6245132611208334 0.6987474205281652 -0.3489057594673057
vn -0.8707191253752781 0.07216467298417448 -0.4864570532727405
vn 0.19488389714123522 0.6987474020124428 0.6883112194464841
vn -0.6935369440769042 0.6987474224219383 -0.17538114738810007
vn -0.7152972402711428 0.6987474087723683 0.010095384806334139
vn -0.6883112194464842 0.6987474020124428 0.19488389714123525
vn -0.614417915592287 0.698747385914461 0.3663914787176916
vn -0.4986530174753302 0.6987473891165089 0.5129300677145086
vn -0.3489057594673058 0.6987474205281652 0.6245132611208334
vn -0.17538114738810018 0.6987474224219383 0.6935369440769041
vn 0.010095384806334057 0.6987474087723683 0.7152972402711427
vn 0.010873220486826849 0.6374557204647688 0.7704102657175508
vn -0.20112773551555832 0.5718085193489608 0.7953506467001413
vn -0.421750407912608 0.5022484240456986 0.7548994065232537
vn -0.6521049792590154 0.3532979106221018 0.6707754336405416
vn -0.6295737170488399 0.4292461009108078 0.6475991967677044
vn -0.46893490324813886 0.27492201077283435 0.8393556722321474
vn -0.2404724580773011 0.19465500243834444 0.950937656701
vn 0.014021675481937959 0.11304810810663769 0.993490572612639
vn 0.2717143210637103 0.07216467588898638 0.9596684777998724
vn -0.7426962774991261 0.5022484171760426 0.44288685556595697
vn -0.8257873201480311 0.27492201233087377 0.49243597453747834
vn -0.7893577247168201 0.5718085332611451 0.22349358764766122
vn -0.9437724091162925 0.1946550171547539 0.2672135177855191
vn -0.7704102657175508 0.6374557204647688 0.010873220486826934
vn -0.9934905726126391 0.11304810810663769 0.014021675481938077
vn -0.966954424376747 0.07216467510739492 -0.24452280230047735
vn -0.7413450006817361 0.6374557051286637 0.2098995330226218
vn -0.6617582853994907 0.6374556988529161 0.3946215955888206
vn -0.537073842725603 0.6374556826069104 0.5524508486481964
vn -0.3757886381389548 0.637455689871466 0.6726315060240363
vn -0.18889413046326728 0.6374556982045153 0.7469733866096704
vn -0.4001263761481268 0.5718085133451658 0.7161940429636082
vn -0.6027619615883202 0.5022484178037125 0.6200197936161942
vn -0.6701975553794772 0.2749219995035497 0.6893860536392818
vn -0.47839933152513653 0.19465501135513197 0.8562963891963086
vn -0.24359038489790985 0.1130481011508696 0.9632672792177002
vn 0.014075350095036557 0.07216467665047692 0.9972934091648425
vn -0.24452280230047752 0.07216467510739492 0.9669544243767468
vn -0.4864570532727407 0.07216467298417448 0.8707191253752781
vn -0.4846021760974492 0.11304809901758661 0.8673989037519745
vn -0.695240148247001 0.07216466970089316 0.7151457171181611
vn -0.6925890922309766 0.11304810950067454 0.7124187492346024
vn -0.8566437656733363 0.07216467127362246 0.5108362936919966
vn -0.8533772153857669 0.11304810718163093 0.5088884491940104
vn -0.9596684777998725 0.07216467588898638 0.27171432106371035
vn -0.9560091337920571 0.11304810665219724 0.27067815147978663
vn -0.9972934091648427 0.07216467665047692 0.014075350095036675
vn -0.7046165934305647 0.5718085262710603 0.42017908746869437
vn -0.8424541595766443 0.1946550131886966 0.5023747752948176
vn -0.5718570694627289 0.571808524321156 0.588229975111063
vn -0.6837241030797725 0.19465501490711604 0.7032999189814193
usemtl material_0_0
f 1//1 2//2 3//3
f 2//2 1//1 4//4
f 5//5 4//4 6//6
f 4//4 5//5 2//2
f 3//3 7//7 8//8
f 7//7 3//3 2//2
f 9//9 3//3 10//10
f 3//3 9//9 1//1
f 11//11 4//4 1//1
f 4//4 11//11 12//12
f 13//13 6//6 14//14
f 6//6 13//13 5//5
f 15//15 2//2 5//5
f 2//2 15//15 7//7
f 6//6 12//12 16//16
f 12//12 6//6 4//4
f 8//8 17//17 18//18
f 17//17 8//8 7//7
f 10//10 8//8 19//19
f 8//8 10//10 3//3
f 9//9 20//20 21//21
f 20//20 9//9 10//10
f 22//22 1//1 9//9
f 1//1 22//22 11//11
f 23//23 12//12 11//11
f 12//12 23//23 24//24
f 25//25 14//14 26//26
f 14//14 25//25 13//13
f 27//27 5//5 13//13
f 5//5 27//27 15//15
f 14//14 16//16 28//28
f 16//16 14//14 6//6
f 29//29 7//7 15//15
f 7//7 29//29 17//17
f 16//16 24//24 30//30
f 24//24 16//16 12//12
f 18//18 31//31 32//32
f 31//31 18//18 17//17
f 19//19 18//18 33//33
f 18//18 19//19 8//8
f 10//10 34//34 20//20
f 34//34 10//10 19//19
f 21//21 35//35 36//36
f 35//35 21//21 20//20
f 22//22 21//21 37//37
f 21//21 22//22 9//9
f 38//38 11//11 22//22
f 11//11 38//38 23//23
f 39//39 24//24 23//23
f 24//24 39//39 40//40
f 41//41 26//26 42//42
f 26//26 41//41 25//25
f 43//43 13//13 25//25
f 13//13 43//43 27//27
f 26//26 28//28 44//44
f 28//28 26//26 14//14
f 45//45 15//15 27//27
f 15//15 45//45 29//29
f 28//28 30//30 46//46
f 30//30 28//28 16//16
f 47//47 17//17 29//29
f 17//17 47//47 31//31
f 30//30 40//40 48//48
f 40//40 30//30 24//24
f 49//49 31//31 50//50
f 31//31 49//49 32//32
f 33//33 32//32 51//51
f 32//32 33//33 18//18
f 19//19 52//52 34//34
f 52//52 19//19 33//33
f 20//20 53//53 35//35
f 53//53 20//20 34//34
f 36//36 54//54 55//55
f 54//54 36//36 35//35
f 37//37 36//36 56//56
f 36//36 37//37 21//21
f 38//38 37//37 57//57
f 37//37 38//38 22//22
f 58//58 23//23 38//38
f 23//23 58//58 39//39
f 59//59 40//40 39//39
f 40//40 59//59 60//60
f 61//61 42//42 62//62
f 42//42 61//61 41//41
f 63//63 25//25 41//41
f 25//25 63//63 43//43
f 42//42 44//44 64//64
f 44//44 42//42 26//26
f 65//65 27//27 43//43
f 27//27 65//65 45//45
f 44//44 46//46 66//66
f 46//46 44//44 28//28
f 67//67 29//29 45//45
f 29//29 67//67 47//47
f 46//46 48//48 68//68
f 48//48 46//46 30//30
f 50//50 47//47 69//69
f 47//47 50//50 31//31
f 48//48 60//60 70//70
f 60//60 48//48 40//40
f 71//71 50//50 72//72
f 50//50 71//71 49//49
f 51//51 49//49 73//73
f 49//49 51//51 32//32
f 33//33 74//74 52//52
f 74//74 33//33 51//51
f 34//34 75//75 53//53
f 75//75 34//34 52//52
f 35//35 76//76 54//54
f 76//76 35//35 53//53
f 55//55 77//77 78//78
f 77//77 55//55 54//54
f 56//56 55//55 79//79
f 55//55 56//56 36//36
f 57//57 56//56 80//80
f 56//56 57//57 37//37
f 58//58 57//57 81//81
f 57//57 58//58 38//38
f 82//82 39//39 58//58
f 39//39 82//82 59//59
f 83//83 84//84 85//84
f 84//84 83//83 86//83
f 87//85 62//62 88//86
f 62//62 87//85 61//61
f 89//87 41//41 61//61
f 41//41 89//87 63//63
f 62//62 64//64 90//88
f 64//64 62//62 42//42
f 91//89 43//43 63//63
f 43//43 91//89 65//65
f 64//64 66//66 92//90
f 66//66 64//64 44//44
f 93//91 45//45 65//65
f 45//45 93//91 67//67
f 66//66 68//68 94//92
f 68//68 66//66 46//46
f 95//93 47//47 67//67
f 47//47 95//93 69//69
f 68//68 70//70 96//94
f 70//70 68//68 48//48
f 72//72 69//69 97//95
f 69//69 72//72 50//50
f 98//96 83//83 99//96
f 83//83 98//96 86//83
f 100//97 101//98 102//99
f 101//98 100//97 72//72
f 72//72 100//97 103//100
f 72//72 103//100 104//101
f 72//72 104//101 71//71
f 105//102 49//49 71//71
f 49//49 105//102 73//73
f 51//51 106//103 74//74
f 106//103 51//51 73//73
f 52//52 107//104 75//75
f 107//104 52//52 74//74
f 53//53 108//105 76//76
f 108//105 53//53 75//75
f 54//54 109//106 77//77
f 109//106 54//54 76//76
f 77//77 110//107 78//78
f 110//107 77//77 111//108
f 79//79 78//78 112//109
f 78//78 79//79 55//55
f 80//80 79//79 113//110
f 79//79 80//80 56//56
f 81//81 80//80 114//111
f 80//80 81//81 57//57
f 82//82 81//81 115//112
f 81//81 82//82 58//58
f 85//84 116//113 117//113
f 116//113 85//84 84//84
f 118//83 119//84 120//84
f 119//84 118//83 121//83
f 87//85 122//114 123//115
f 122//114 87//85 88//86
f 124//116 61//61 87//85
f 61//61 124//116 89//87
f 88//86 90//88 125//117
f 90//88 88//86 62//62
f 126//118 63//63 89//87
f 63//63 126//118 91//89
f 90//88 92//90 127//119
f 92//90 90//88 64//64
f 128//120 65//65 91//89
f 65//65 128//120 93//91
f 92//90 94//92 129//121
f 94//92 92//90 66//66
f 130//122 67//67 93//91
f 67//67 130//122 95//93
f 94//92 96//94 131//123
f 96//94 94//92 68//68
f 97//95 95//93 132//124
f 95//93 97//95 69//69
f 133//125 99//96 134//125
f 99//96 133//125 98//96
f 135//126 136//127 137//128
f 136//127 135//126 97//95
f 97//95 135//126 72//72
f 72//72 135//126 102//99
f 72//72 102//99 101//98
f 138//96 118//83 139//96
f 118//83 138//96 121//83
f 140//129 141//130 142//131
f 141//130 140//129 143//132
f 143//132 140//129 144//133
f 145//134 104//101 103//100
f 104//101 145//134 71//71
f 71//71 145//134 146//135
f 71//71 146//135 147//136
f 71//71 147//136 105//102
f 148//137 73//73 105//102
f 73//73 148//137 106//103
f 74//74 149//138 107//104
f 149//138 74//74 106//103
f 75//75 150//139 108//105
f 150//139 75//75 107//104
f 76//76 151//140 109//106
f 151//140 76//76 108//105
f 109//106 111//108 77//77
f 111//108 109//106 152//141
f 111//108 153//142 110//107
f 153//142 111//108 154//143
f 78//78 155//144 112//109
f 155//144 78//78 110//107
f 113//110 112//109 156//145
f 112//109 113//110 79//79
f 114//111 113//110 157//146
f 113//110 114//111 80//80
f 115//112 114//111 158//147
f 114//111 115//112 81//81
f 117//113 159//148 160//148
f 159//148 117//113 116//113
f 120//84 161//113 162//113
f 161//113 120//84 119//84
f 163//83 164//84 165//84
f 164//84 163//83 166//83
f 123//115 167//149 168//150
f 167//149 123//115 122//114
f 124//116 123//115 169//151
f 123//115 124//116 87//85
f 88//86 170//152 122//114
f 170//152 88//86 125//117
f 171//153 89//87 124//116
f 89//87 171//153 126//118
f 125//117 127//119 172//154
f 127//119 125//117 90//88
f 173//155 91//89 126//118
f 91//89 173//155 128//120
f 127//119 129//121 174//156
f 129//121 127//119 92//90
f 175//157 93//91 128//120
f 93//91 175//157 130//122
f 129//121 131//123 176//158
f 131//123 129//121 94//92
f 132//124 130//122 177//159
f 130//122 132//124 95//93
f 178//160 179//161 180//160
f 179//161 178//160 181//161
f 182//162 183//163 184//164
f 183//163 182//162 132//124
f 132//124 182//162 97//95
f 97//95 182//162 137//128
f 97//95 137//128 136//127
f 185//165 186//165 187//165
f 188//166 139//96 189//166
f 139//96 188//166 138//96
f 144//133 190//167 143//132
f 190//167 144//133 191//168
f 192//169 190//167 191//168
f 139//96 163//83 193//96
f 163//83 139//96 166//83
f 194//170 195//170 196//170
f 195//170 194//170 197//170
f 195//170 197//170 198//170
f 198//170 197//170 199//170
f 198//170 199//170 200//170
f 200//170 199//170 201//170
f 200//170 201//170 202//170
f 202//170 201//170 203//170
f 203//170 201//170 204//170
f 204//170 201//170 205//170
f 204//170 205//170 206//170
f 206//170 205//170 207//170
f 207//170 205//170 208//170
f 208//170 205//170 209//170
f 208//170 209//170 210//170
f 210//170 209//170 211//170
f 211//170 209//170 212//170
f 211//170 212//170 213//170
f 213//170 212//170 214//170
f 214//170 212//170 215//170
f 214//170 215//170 216//170
f 216//170 215//170 217//170
f 217//170 215//170 218//170
f 218//170 215//170 219//170
f 202//170 220//170 221//170
f 220//170 202//170 203//170
f 221//170 220//170 222//170
f 221//170 222//170 223//170
f 221//170 223//170 224//170
f 221//170 224//170 225//170
f 221//170 225//170 226//170
f 226//170 225//170 227//170
f 226//170 227//170 228//170
f 226//170 228//170 229//170
f 229//170 228//170 230//170
f 229//170 230//170 231//170
f 229//170 231//170 232//170
f 232//170 231//170 233//170
f 232//170 233//170 234//170
f 232//170 234//170 219//170
f 232//170 219//170 215//170
f 232//170 215//170 235//170
f 232//170 235//170 236//170
f 236//170 235//170 237//170
f 236//170 237//170 238//170
f 238//170 237//170 239//170
f 238//170 239//170 240//170
f 240//170 239//170 241//170
f 242//171 243//172 244//173
f 243//172 242//171 141//130
f 141//130 242//171 142//131
f 245//174 147//136 146//135
f 147//136 245//174 105//102
f 105//102 245//174 246//175
f 105//102 246//175 247//176
f 105//102 247//176 148//137
f 149//138 148//137 248//177
f 148//137 149//138 106//103
f 107//104 249//178 150//139
f 249//178 107//104 149//138
f 108//105 250//179 151//140
f 250//179 108//105 150//139
f 151//140 152//141 109//106
f 152//141 151//140 251//180
f 152//141 154//143 111//108
f 154//143 152//141 252//181
f 154//143 253//182 153//142
f 253//182 154//143 254//183
f 110//107 255//184 155//144
f 255//184 110//107 153//142
f 112//109 256//185 156//145
f 256//185 112//109 155//144
f 157//146 156//145 257//186
f 156//145 157//146 113//110
f 158//147 157//146 258//187
f 157//146 158//147 114//111
f 160//148 259//188 260//188
f 259//188 160//148 159//148
f 162//113 261//148 262//148
f 261//148 162//113 161//113
f 165//84 263//113 264//113
f 263//113 165//84 164//84
f 265//189 266//189 267//189
f 266//189 265//189 268//189
f 268//189 265//189 269//189
f 268//189 269//189 270//189
f 270//189 269//189 271//189
f 270//189 271//189 272//189
f 272//189 271//189 273//189
f 272//189 273//189 274//189
f 274//189 273//189 275//189
f 274//189 275//189 276//189
f 276//189 275//189 277//189
f 276//189 277//189 278//189
f 278//189 277//189 279//189
f 278//189 279//189 280//189
f 280//189 279//189 281//189
f 280//189 281//189 282//189
f 282//189 281//189 283//189
f 282//189 283//189 284//189
f 284//189 283//189 285//189
f 284//189 285//189 286//189
f 286//189 285//189 287//189
f 286//189 287//189 288//189
f 168//150 289//190 290//191
f 289//190 168//150 167//149
f 169//151 168//150 291//192
f 168//150 169//151 123//115
f 122//114 292//193 167//149
f 292//193 122//114 170//152
f 171//153 169//151 293//194
f 169//151 171//153 124//116
f 125//117 294//195 170//152
f 294//195 125//117 172//154
f 295//196 126//118 171//153
f 126//118 295//196 173//155
f 172//154 174//156 296//197
f 174//156 172//154 127//119
f 297//198 128//120 173//155
f 128//120 297//198 175//157
f 174//156 176//158 298//199
f 176//158 174//156 129//121
f 299//200 130//122 175//157
f 130//122 299//200 177//159
f 300//201 180//160 301//201
f 180//160 300//201 178//160
f 302//202 303//203 304//204
f 303//203 302//202 177//159
f 177//159 302//202 132//124
f 132//124 302//202 184//164
f 132//124 184//164 183//163
f 305//160 189//166 306//160
f 189//166 305//160 188//166
f 192//169 307//205 190//167
f 307//205 192//169 308//206
f 309//207 307//205 308//206
f 310//166 193//96 311//166
f 193//96 310//166 139//96
f 312//208 313//209 314//201
f 313//209 312//208 315//210
f 316//211 313//209 315//210
f 316//211 317//212 313//209
f 317//212 316//211 318//213
f 319//214 317//212 318//213
f 320//215 317//212 319//214
f 317//212 320//215 321//216
f 321//216 320//215 322//217
f 323//218 321//216 322//217
f 321//216 323//218 324//219
f 324//219 323//218 325//220
f 326//221 324//219 325//220
f 324//219 326//221 327//222
f 327//222 326//221 328//223
f 329//224 327//222 328//223
f 327//222 329//224 243//172
f 243//172 329//224 244//173
f 309//207 330//225 307//205
f 330//225 309//207 331//226
f 332//227 330//225 331//226
f 332//227 333//228 330//225
f 333//228 332//227 334//229
f 335//230 333//228 334//229
f 335//230 336//231 333//228
f 336//231 335//230 337//232
f 338//233 336//231 337//232
f 338//233 339//234 336//231
f 339//234 338//233 340//235
f 341//236 339//234 340//235
f 339//234 342//237 343//238
f 342//237 339//234 344//239
f 344//239 339//234 341//236
f 343//238 345//240 346//188
f 345//240 343//238 347//241
f 347//241 343//238 342//237
f 346//188 348//242 349//148
f 348//242 346//188 350//243
f 350//243 346//188 345//240
f 349//148 351//244 352//113
f 351//244 349//148 353//245
f 353//245 349//148 348//242
f 352//113 354//246 355//84
f 354//246 352//113 356//247
f 356//247 352//113 351//244
f 355//84 357//248 358//83
f 357//248 355//84 359//249
f 359//249 355//84 354//246
f 357//248 360//96 358//83
f 360//96 357//248 361//250
f 362//251 360//96 361//250
f 362//251 363//166 360//96
f 363//166 362//251 364//125
f 365//252 363//166 364//125
f 365//252 366//160 363//166
f 366//160 365//252 367//161
f 368//253 366//160 367//161
f 368//253 314//201 366//160
f 314//201 368//253 369//254
f 312//208 314//201 369//254
f 370//255 371//256 372//257
f 371//256 370//255 248//177
f 371//256 248//177 246//175
f 246//175 248//177 247//176
f 247//176 248//177 148//137
f 249//178 248//177 373//258
f 248//177 249//178 149//138
f 250//179 249//178 374//259
f 249//178 250//179 150//139
f 250//179 251//180 151//140
f 251//180 250//179 375//260
f 251//180 252//181 152//141
f 252//181 251//180 376//261
f 252//181 254//183 154//143
f 254//183 252//181 377//262
f 254//183 378//263 253//182
f 378//263 254//183 379//264
f 153//142 380//265 255//184
f 380//265 153//142 253//182
f 155//144 381//266 256//185
f 381//266 155//144 255//184
f 156//145 382//267 257//186
f 382//267 156//145 256//185
f 258//187 257//186 383//268
f 257//186 258//187 157//146
f 260//188 384//238 385//238
f 384//238 260//188 259//188
f 262//148 386//188 387//188
f 386//188 262//148 261//148
f 264//113 388//148 389//148
f 388//148 264//113 263//113
f 389//148 387//188 390//188
f 387//188 389//148 388//148
f 390//188 391//238 392//238
f 391//238 390//188 387//188
f 392//238 393//234 394//234
f 393//234 392//238 391//238
f 393//234 395//231 394//234
f 395//231 393//234 396//231
f 396//231 397//228 395//231
f 397//228 396//231 398//228
f 398//228 399//225 397//228
f 399//225 398//228 400//225
f 400//225 401//205 399//225
f 401//205 400//225 402//205
f 402//205 403//167 401//205
f 403//167 402//205 404//167
f 404//167 405//132 403//167
f 405//132 404//167 406//132
f 407//130 405//132 406//132
f 405//132 407//130 408//130
f 409//172 408//130 407//130
f 408//130 409//172 410//172
f 411//222 410//172 409//172
f 410//172 411//222 412//222
f 413//219 412//222 411//222
f 412//222 413//219 414//219
f 415//216 414//219 413//219
f 414//219 415//216 416//216
f 417//212 416//216 415//216
f 416//216 417//212 418//212
f 417//212 419//209 418//212
f 419//209 417//212 420//209
f 420//209 421//201 419//209
f 421//201 420//209 422//201
f 422//201 423//160 421//201
f 423//160 422//201 306//160
f 306//160 311//166 423//160
f 311//166 306//160 310//166
f 424//269 289//190 425//270
f 289//190 424//269 290//191
f 291//192 290//191 426//271
f 290//191 291//192 168//150
f 167//149 427//272 289//190
f 427//272 167//149 292//193
f 293//194 291//192 428//273
f 291//192 293//194 169//151
f 170//152 429//274 292//193
f 429//274 170//152 294//195
f 295//196 293//194 430//275
f 293//194 295//196 171//153
f 172//154 431//276 294//195
f 431//276 172//154 296//197
f 432//277 173//155 295//196
f 173//155 432//277 297//198
f 296//197 298//199 433//278
f 298//199 296//197 174//156
f 434//279 175//157 297//198
f 175//157 434//279 299//200
f 435//209 301//201 436//209
f 301//201 435//209 300//201
f 437//280 177//159 299//200
f 177//159 437//280 438//281
f 177//159 438//281 439//282
f 177//159 439//282 304//204
f 177//159 304//204 303//203
f 440//201 306//160 422//201
f 306//160 440//201 305//160
f 441//283 442//284 443//285
f 442//284 441//283 444//286
f 442//284 444//286 445//287
f 445//287 444//286 446//288
f 446//288 444//286 447//289
f 446//288 448//290 445//287
f 448//290 446//288 447//289
f 448//290 447//289 449//291
f 449//291 447//289 450//292
f 450//292 447//289 451//293
f 450//292 452//294 449//291
f 452//294 450//292 451//293
f 452//294 451//293 453//295
f 453//295 451//293 454//296
f 454//296 451//293 373//258
f 454//296 455//297 453//295
f 455//297 454//296 373//258
f 455//297 373//258 372//257
f 372//257 373//258 370//255
f 370//255 373//258 248//177
f 456//298 299//200 434//279
f 299//200 456//298 457//299
f 299//200 457//299 458//300
f 299//200 458//300 437//280
f 437//280 458//300 438//281
f 459//301 434//279 460//302
f 434//279 459//301 461//303
f 434//279 461//303 462//304
f 434//279 462//304 456//298
f 456//298 462//304 457//299
f 463//305 460//302 464//306
f 460//302 463//305 465//307
f 460//302 465//307 466//308
f 460//302 466//308 459//301
f 459//301 466//308 461//303
f 467//309 464//306 468//310
f 464//306 467//309 463//305
f 463//305 467//309 469//311
f 463//305 469//311 470//312
f 463//305 470//312 465//307
f 471//313 468//310 472//314
f 468//310 471//313 467//309
f 467//309 471//313 473//315
f 467//309 473//315 474//316
f 467//309 474//316 469//311
f 475//317 471//313 472//314
f 471//313 475//317 476//318
f 471//313 476//318 473//315
f 473//315 476//318 477//319
f 477//319 476//318 478//320
f 479//321 476//318 475//317
f 476//318 479//321 480//322
f 476//318 480//322 478//320
f 478//320 480//322 481//323
f 481//323 480//322 482//324
f 483//325 480//322 479//321
f 480//322 483//325 484//326
f 480//322 484//326 482//324
f 482//324 484//326 485//327
f 485//327 484//326 486//328
f 487//329 484//326 483//325
f 484//326 487//329 486//328
f 486//328 487//329 488//330
f 488//330 487//329 489//331
f 488//330 489//331 490//332
f 491//333 489//331 487//329
f 489//331 491//333 490//332
f 490//332 491//333 492//334
f 492//334 491//333 493//335
f 492//334 493//335 494//336
f 495//337 493//335 491//333
f 493//335 495//337 494//336
f 494//336 495//337 496//338
f 496//338 495//337 497//339
f 496//338 497//339 498//340
f 444//286 497//339 495//337
f 497//339 444//286 498//340
f 498//340 444//286 499//341
f 499//341 444//286 441//283
f 499//341 441//283 443//285
f 374//259 373//258 451//293
f 373//258 374//259 249//178
f 375//260 374//259 500//342
f 374//259 375//260 250//179
f 375//260 376//261 251//180
f 376//261 375//260 501//343
f 376//261 377//262 252//181
f 377//262 376//261 502//344
f 377//262 379//264 254//183
f 379//264 377//262 503//345
f 379//264 504//346 378//263
f 504//346 379//264 505//347
f 253//182 506//348 380//265
f 506//348 253//182 378//263
f 255//184 507//349 381//266
f 507//349 255//184 380//265
f 256//185 508//350 382//267
f 508//350 256//185 381//266
f 257//186 509//351 383//268
f 509//351 257//186 382//267
f 385//238 510//234 511//234
f 510//234 385//238 384//238
f 387//188 512//238 391//238
f 512//238 387//188 386//188
f 391//238 513//234 514//234
f 513//234 391//238 512//238
f 513//234 396//231 514//234
f 396//231 513//234 515//231
f 515//231 398//228 396//231
f 398//228 515//231 516//228
f 516//228 400//225 398//228
f 400//225 516//228 517//225
f 517//225 518//205 400//225
f 518//205 517//225 519//205
f 519//205 404//167 518//205
f 404//167 519//205 520//167
f 520//167 521//132 404//167
f 521//132 520//167 522//132
f 523//130 521//132 522//132
f 521//132 523//130 407//130
f 524//172 407//130 523//130
f 407//130 524//172 409//172
f 525//222 409//172 524//172
f 409//172 525//222 411//222
f 526//219 411//222 525//222
f 411//222 526//219 413//219
f 527//216 413//219 526//219
f 413//219 527//216 415//216
f 528//212 415//216 527//216
f 415//216 528//212 417//212
f 528//212 420//209 417//212
f 420//209 528//212 529//209
f 529//209 422//201 420//209
f 422//201 529//209 440//201
f 530//352 425//270 531//353
f 425//270 530//352 424//269
f 532//354 290//191 424//269
f 290//191 532//354 426//271
f 425//270 427//272 533//355
f 427//272 425//270 289//190
f 428//273 426//271 534//356
f 426//271 428//273 291//192
f 292//193 535//357 427//272
f 535//357 292//193 429//274
f 430//275 428//273 536//358
f 428//273 430//275 293//194
f 294//195 537//359 429//274
f 537//359 294//195 431//276
f 538//360 295//196 430//275
f 295//196 538//360 432//277
f 296//197 539//361 431//276
f 539//361 296//197 433//278
f 460//302 297//198 432//277
f 297//198 460//302 434//279
f 540//212 436//209 541//212
f 436//209 540//212 435//209
f 542//362 447//289 444//286
f 447//289 542//362 500//342
f 500//342 451//293 447//289
f 451//293 500//342 374//259
f 464//306 432//277 538//360
f 432//277 464//306 460//302
f 468//310 538//360 543//363
f 538//360 468//310 464//306
f 472//314 543//363 544//364
f 543//363 472//314 468//310
f 545//365 472//314 544//364
f 472//314 545//365 475//317
f 546//366 475//317 545//365
f 475//317 546//366 479//321
f 547//367 479//321 546//366
f 479//321 547//367 483//325
f 548//368 483//325 547//367
f 483//325 548//368 487//329
f 549//369 487//329 548//368
f 487//329 549//369 491//333
f 550//370 491//333 549//369
f 491//333 550//370 495//337
f 542//362 495//337 550//370
f 495//337 542//362 444//286
f 500//342 501//343 375//260
f 501//343 500//342 542//362
f 501//343 502//344 376//261
f 502//344 501//343 551//371
f 502//344 503//345 377//262
f 503//345 502//344 552//372
f 503//345 505//347 379//264
f 505//347 503//345 553//373
f 505//347 554//374 504//346
f 554//374 505//347 555//375
f 378//263 556//376 506//348
f 556//376 378//263 504//346
f 380//265 557//377 507//349
f 557//377 380//265 506//348
f 381//266 558//378 508//350
f 558//378 381//266 507//349
f 382//267 559//379 509//351
f 559//379 382//267 508//350
f 510//234 560//231 511//234
f 560//231 510//234 561//231
f 561//231 562//228 560//231
f 562//228 561//231 563//228
f 563//228 564//225 562//228
f 564//225 563//228 565//225
f 565//225 566//205 564//225
f 566//205 565//225 567//205
f 567//205 568//167 566//205
f 568//167 567//205 569//167
f 569//167 570//132 568//167
f 570//132 569//167 571//132
f 572//130 570//132 571//132
f 570//132 572//130 523//130
f 573//172 523//130 572//130
f 523//130 573//172 574//172
f 575//222 574//172 573//172
f 574//172 575//222 576//222
f 577//219 576//222 575//222
f 576//222 577//219 526//219
f 578//216 526//219 577//219
f 526//219 578//216 579//216
f 540//212 579//216 578//216
f 579//216 540//212 541//212
f 555//375 531//353 554//374
f 531//353 555//375 530//352
f 580//380 424//269 530//352
f 424//269 580//380 532//354
f 531//353 533//355 581//381
f 533//355 531//353 425//270
f 582//382 426//271 532//354
f 426//271 582//382 534//356
f 533//355 535//357 583//383
f 535//357 533//355 427//272
f 536//358 534//356 584//384
f 534//356 536//358 428//273
f 429//274 585//385 535//357
f 585//385 429//274 537//359
f 538//360 536//358 543//363
f 536//358 538//360 430//275
f 431//276 586//386 537//359
f 586//386 431//276 539//361
f 543//363 584//384 544//364
f 584//384 543//363 536//358
f 545//365 584//384 587//387
f 584//384 545//365 544//364
f 546//366 587//387 588//388
f 587//387 546//366 545//365
f 589//389 546//366 588//388
f 546//366 589//389 547//367
f 590//390 547//367 589//389
f 547//367 590//390 548//368
f 549//369 590//390 591//391
f 590//390 549//369 548//368
f 550//370 591//391 551//371
f 591//391 550//370 549//369
f 542//362 551//371 501//343
f 551//371 542//362 550//370
f 551//371 552//372 502//344
f 552//372 551//371 591//391
f 552//372 553//373 503//345
f 553//373 552//372 592//392
f 553//373 555//375 505//347
f 555//375 553//373 593//393
f 504//346 594//394 556//376
f 594//394 504//346 554//374
f 506//348 595//395 557//377
f 595//395 506//348 556//376
f 507//349 596//396 558//378
f 596//396 507//349 557//377
f 508//350 597//397 559//379
f 597//397 508//350 558//378
f 558//378 598//398 597//397
f 598//398 558//378 596//396
f 596//396 599//399 598//398
f 599//399 596//396 600//400
f 600//400 601//401 599//399
f 601//401 600//400 602//402
f 602//402 603//403 601//401
f 603//403 602//402 604//404
f 604//404 605//405 603//403
f 605//405 604//404 606//406
f 606//406 607//407 605//405
f 607//407 606//406 585//385
f 537//359 607//407 585//385
f 607//407 537//359 586//386
f 593//393 530//352 555//375
f 530//352 593//393 580//380
f 554//374 581//381 594//394
f 581//381 554//374 531//353
f 608//408 532//354 580//380
f 532//354 608//408 582//382
f 581//381 583//383 609//409
f 583//383 581//381 533//355
f 587//387 534//356 582//382
f 534//356 587//387 584//384
f 583//383 585//385 606//406
f 585//385 583//383 535//357
f 588//388 582//382 608//408
f 582//382 588//388 587//387
f 589//389 608//408 610//410
f 608//408 589//389 588//388
f 590//390 610//410 592//392
f 610//410 590//390 589//389
f 591//391 592//392 552//372
f 592//392 591//391 590//390
f 592//392 593//393 553//373
f 593//393 592//392 610//410
f 556//376 611//411 595//395
f 611//411 556//376 594//394
f 557//377 600//400 596//396
f 600//400 557//377 595//395
f 595//395 602//402 600//400
f 602//402 595//395 611//411
f 611//411 604//404 602//402
f 604//404 611//411 609//409
f 609//409 606//406 604//404
f 606//406 609//409 583//383
f 610//410 580//380 593//393
f 580//380 610//410 608//408
f 594//394 609//409 611//411
f 609//409 594//394 581//381
