# SSTK version 0.8.0
# 10
mtllib original-10.mtl
o #ID59
v -0.02369076 0.94120200 0.04380213
v -0.02449602 0.95761463 0.04371879
v -0.02500073 0.94929389 0.04383974
v -0.02229761 0.96562961 0.04368001
v -0.02102287 0.93358343 0.04381307
v -0.01891814 0.97259272 0.04369822
v -0.01689657 0.92739537 0.04373944
v -0.01417859 0.97805417 0.04357887
v -0.01166953 0.92252587 0.04354663
v -0.00833643 0.98169972 0.04352393
v -0.00574893 0.91986343 0.04352037
v -0.00219442 0.98312173 0.04329873
v 0.00059059 0.91931776 0.04324492
v 0.00404031 0.98255298 0.04325907
v 0.00668545 0.92086721 0.04323714
v 0.00995110 0.97988210 0.04309064
v 0.01233564 0.92448410 0.04323078
v 0.01505597 0.97519914 0.04305943
v 0.01710813 0.92994721 0.04297087
v 0.01930750 0.96878550 0.04292978
v 0.02060164 0.93673051 0.04299513
v 0.02204888 0.96128384 0.04292226
v 0.02262680 0.94479780 0.04291169
v 0.02313906 0.95313696 0.04285268
v 0.02318764 0.95300428 0.04303220
v 0.02264916 0.94470054 0.04303882
v 0.02205481 0.96127058 0.04292270
v 0.02067749 0.93672665 0.04303415
v 0.01931626 0.96878789 0.04301878
v 0.01703349 0.93000812 0.04310427
v 0.01505515 0.97520852 0.04302906
v 0.01233255 0.92445655 0.04307841
v 0.00994765 0.97984252 0.04313643
v 0.00661427 0.92077844 0.04319247
v 0.00397459 0.98258132 0.04322165
v 0.00060846 0.91914462 0.04326691
v -0.00217147 0.98313600 0.04340264
v -0.00569317 0.91988776 0.04344653
v -0.00843262 0.98154500 0.04347959
v -0.01164152 0.92263553 0.04360275
v -0.01414512 0.97789682 0.04365310
v -0.01690131 0.92722178 0.04354843
v -0.01895289 0.97252293 0.04360145
v -0.02095618 0.93372081 0.04362761
v -0.02229368 0.96562759 0.04383731
v -0.02371638 0.94114808 0.04373834
v -0.02441305 0.95761443 0.04377700
v -0.02492623 0.94942825 0.04384639
vt 0.001444809 0.1231366
vt 0.0005641025 0.1383958
vt 0 0.1307082
vt 0.003098674 0.1456754
vt 0.004800067 0.1161969
vt 0.007430986 0.152051
vt 0.00983712 0.1103621
vt 0.0132658 0.157088
vt 0.0162127 0.1060298
vt 0.02020548 0.1604433
vt 0.02349232 0.1034952
vt 0.02777711 0.1618881
vt 0.03117989 0.1029311
vt 0.03546468 0.161324
vt 0.03875152 0.1043759
vt 0.0427443 0.1587894
vt 0.0456912 0.1077312
vt 0.04911988 0.1544571
vt 0.05152602 0.1127682
vt 0.05415693 0.1486223
vt 0.05585833 0.1191438
vt 0.05751219 0.1416826
vt 0.0583929 0.1264234
vt 0.058957 0.134111
vn 0.01745240832921509 0 0.9998476951233675
vn -0.01745240832921509 0 -0.9998476951233675
usemtl material_0_0
f 1/1/1 2/2/1 3/3/1
f 2/2/1 1/1/1 4/4/1
f 4/4/1 1/1/1 5/5/1
f 4/4/1 5/5/1 6/6/1
f 6/6/1 5/5/1 7/7/1
f 6/6/1 7/7/1 8/8/1
f 8/8/1 7/7/1 9/9/1
f 8/8/1 9/9/1 10/10/1
f 10/10/1 9/9/1 11/11/1
f 10/10/1 11/11/1 12/12/1
f 12/12/1 11/11/1 13/13/1
f 12/12/1 13/13/1 14/14/1
f 14/14/1 13/13/1 15/15/1
f 14/14/1 15/15/1 16/16/1
f 16/16/1 15/15/1 17/17/1
f 16/16/1 17/17/1 18/18/1
f 18/18/1 17/17/1 19/19/1
f 18/18/1 19/19/1 20/20/1
f 20/20/1 19/19/1 21/21/1
f 20/20/1 21/21/1 22/22/1
f 22/22/1 21/21/1 23/23/1
f 22/22/1 23/23/1 24/24/1
f 25/24/2 26/23/2 27/22/2
f 26/23/2 28/21/2 27/22/2
f 27/22/2 28/21/2 29/20/2
f 28/21/2 30/19/2 29/20/2
f 29/20/2 30/19/2 31/18/2
f 30/19/2 32/17/2 31/18/2
f 31/18/2 32/17/2 33/16/2
f 32/17/2 34/15/2 33/16/2
f 33/16/2 34/15/2 35/14/2
f 34/15/2 36/13/2 35/14/2
f 35/14/2 36/13/2 37/12/2
f 36/13/2 38/11/2 37/12/2
f 37/12/2 38/11/2 39/10/2
f 38/11/2 40/9/2 39/10/2
f 39/10/2 40/9/2 41/8/2
f 40/9/2 42/7/2 41/8/2
f 41/8/2 42/7/2 43/6/2
f 42/7/2 44/5/2 43/6/2
f 43/6/2 44/5/2 45/4/2
f 44/5/2 46/1/2 45/4/2
f 45/4/2 46/1/2 47/2/2
f 48/3/2 47/2/2 46/1/2
