# SSTK version 0.8.0
# 11
mtllib original_11.mtl
o #ID207
v -0.07305242 0.93962896 0.21250011
v -0.10670516 0.94727249 0.18849467
v -0.11010823 0.93982435 0.19680978
v -0.06961740 0.94735671 0.20438218
v -0.06948591 0.94726084 0.20444317
v -0.07296528 0.93977552 0.21250974
v -0.10671923 0.94722066 0.18867082
v -0.11029259 0.93967873 0.19680256
v -0.07727741 0.97107176 0.22294339
v -0.07294369 0.93974056 0.21262913
v -0.08071012 0.96349568 0.23117107
v -0.06949316 0.94732110 0.20417103
v -0.06957651 0.94723884 0.20448637
v -0.07737147 0.97085496 0.22289424
v -0.07281663 0.93970272 0.21257937
v -0.08079658 0.96350706 0.23100687
v -0.11007059 0.93976438 0.19682401
v -0.11441252 0.97090458 0.20718420
v -0.11791084 0.96340593 0.21525843
v -0.10678511 0.94718058 0.18871379
v -0.10655053 0.94730059 0.18851147
v -0.11012808 0.93978069 0.19679023
v -0.11449120 0.97094123 0.20698795
v -0.11797987 0.96357508 0.21535395
v -0.07735681 0.97103322 0.22271329
v -0.11803911 0.96358719 0.21530983
v -0.11460968 0.97109912 0.20705158
v -0.08070309 0.96353343 0.23115991
v -0.08080927 0.96349953 0.23117035
v -0.07727423 0.97105369 0.22285219
v -0.11797420 0.96342061 0.21533682
v -0.11440264 0.97119131 0.20695810
vt -0.02915095 0.02036971
vt -0.04043203 -0.02036971
vt -0.02915095 -0.02036971
vt -0.04043203 0.02036971
vt -0.0127648 0.04487769
vt -0.02409037 0.01648579
vt -0.003802345 0.03802662
vt -0.03305283 0.02333686
vt 0.02409037 0.01648579
vt 0.0127648 0.04487769
vt 0.003802345 0.03802662
vt 0.03305283 0.02333686
vt 0.03739573 0.02036971
vt 0.02611465 -0.02036971
vt 0.03739573 -0.02036971
vt 0.02611465 0.02036971
vn -0.25279774090184715 0.7625015103090684 0.5955541528453246
vn 0.25279774090184715 -0.7625015103090684 -0.5955541528453246
vn -0.9205048527130907 0 -0.39073113023107253
vn 0.9205048527130907 0 0.39073113023107253
vn 0.25279774090185164 -0.7625015103090683 -0.5955541528453228
vn -0.25279774090185164 0.7625015103090683 0.5955541528453228
usemtl material_0_0
f 1/1/1 2/2/1 3/3/1
f 2/2/1 1/1/1 4/4/1
f 5/4/2 6/1/2 7/2/2
f 8/3/2 7/2/2 6/1/2
f 9/5/3 10/6/3 11/7/3
f 10/6/3 9/5/3 12/8/3
f 13/8/4 14/5/4 15/6/4
f 16/7/4 15/6/4 14/5/4
f 17/9/4 18/10/4 19/11/4
f 18/10/4 17/9/4 20/12/4
f 21/12/3 22/9/3 23/10/3
f 24/11/3 23/10/3 22/9/3
f 25/13/5 26/14/5 27/15/5
f 26/14/5 25/13/5 28/16/5
f 29/16/6 30/13/6 31/14/6
f 32/15/6 31/14/6 30/13/6
