# SSTK version 0.8.0
# 8
mtllib original_8.mtl
o group_12/ID184#ID184
v -0.10256862 0.66895527 -0.07531633
v -0.12744425 0.66921225 -0.01654797
v -0.11882026 0.66911223 -0.04752908
v -0.07941980 0.66913149 -0.09789328
v -0.12779248 0.66910712 0.01581222
v -0.05118047 0.66903814 -0.11385185
v -0.11959446 0.66908540 0.04702566
v -0.01996641 0.66920984 -0.12192186
v -0.10377991 0.66919944 0.07534673
v 0.01228556 0.66908713 -0.12152437
v -0.08105906 0.66900617 0.09820297
v 0.04331859 0.66914465 -0.11290216
v -0.05331207 0.66912662 0.11462209
v 0.07116740 0.66921155 -0.09663030
v -0.02233262 0.66917433 0.12315271
v 0.09369933 0.66906174 -0.07351352
v 0.01006266 0.66924930 0.12356092
v 0.10966861 0.66911857 -0.04550722
v 0.04132970 0.66902850 0.11555601
v 0.11761317 0.66915812 -0.01432110
v 0.06937437 0.66898381 0.09961372
v 0.11758290 0.66910518 0.01782363
v 0.09257429 0.66911963 0.07699314
v 0.10875317 0.66897729 0.04913111
v 0.10893816 0.66903925 0.04909552
v 0.11743503 0.66919378 0.01789238
v 0.09241656 0.66906820 0.07698944
v 0.06928981 0.66913588 0.09948364
v 0.11778041 0.66927592 -0.01423358
v 0.04143110 0.66919083 0.11538157
v 0.10974509 0.66893097 -0.04557796
v 0.01003410 0.66899422 0.12356426
v 0.09379837 0.66915084 -0.07362033
v -0.02230889 0.66908143 0.12324399
v 0.07102636 0.66923488 -0.09677725
v -0.05325533 0.66926024 0.11479549
v 0.04329617 0.66924173 -0.11298840
v -0.08103029 0.66919747 0.09808288
v 0.01221444 0.66918010 -0.12161851
v -0.10384669 0.66919545 0.07516707
v -0.02007275 0.66913800 -0.12191959
v -0.11960336 0.66895744 0.04704442
v -0.05138073 0.66897442 -0.11388329
v -0.12788504 0.66901889 0.01577371
v -0.07939055 0.66916060 -0.09800617
v -0.12746994 0.66904940 -0.01648131
v -0.10240063 0.66903548 -0.07550671
v -0.11886590 0.66903573 -0.04755823
v 0.10892049 0.66916849 0.04902427
v 0.09238460 0.83163034 0.07684862
v 0.09253736 0.66900024 0.07708290
v 0.10883536 0.83178831 0.04912240
v 0.10870848 0.83149510 0.04923443
v 0.10874233 0.66921597 0.04903923
v 0.09249571 0.83164973 0.07697872
v 0.09234941 0.66912697 0.07684689
v 0.06939350 0.83174580 0.09952550
v 0.06935202 0.66905217 0.09972591
v 0.06945381 0.83168684 0.09956888
v 0.06940767 0.66916060 0.09958352
v 0.04128962 0.83152894 0.11543479
v 0.04147833 0.66911380 0.11539753
v 0.04135293 0.83166432 0.11543754
v 0.04142632 0.66912233 0.11556159
v 0.01010863 0.66914704 0.12341313
v 0.01022243 0.83180599 0.12339335
v 0.00999061 0.83164168 0.12343451
v 0.01008099 0.66917965 0.12347897
v -0.02230486 0.66912487 0.12328604
v -0.02227161 0.83172560 0.12321453
v -0.02206781 0.83166297 0.12331402
v -0.02232899 0.66909235 0.12319868
v -0.05342713 0.66895782 0.11464123
v -0.05340680 0.83180671 0.11450092
v -0.05324298 0.83163117 0.11478867
v -0.05317409 0.66904774 0.11454325
v -0.08108579 0.66906338 0.09829185
v -0.08113941 0.83157612 0.09831412
v -0.08104709 0.83170740 0.09811956
v -0.08099958 0.66912744 0.09813428
v -0.10386016 0.66916564 0.07505003
v -0.10371188 0.83173028 0.07523139
v -0.10377121 0.83181284 0.07531763
v -0.10360177 0.66928064 0.07534576
v -0.11967635 0.66909659 0.04698162
v -0.11969987 0.83158749 0.04707421
v -0.11981573 0.83178872 0.04701351
v -0.11968359 0.66907504 0.04709036
v -0.12789552 0.83170688 0.01584795
v -0.12784653 0.66907072 0.01577057
v -0.12783954 0.66921740 0.01596065
v -0.12773539 0.83156325 0.01599552
v -0.12740671 0.83174284 -0.01643011
v -0.12727103 0.66905187 -0.01645098
v -0.12748588 0.66927051 -0.01631033
v -0.12752213 0.83174956 -0.01631532
v -0.11886834 0.83152001 -0.04753551
v -0.11894671 0.66918948 -0.04749555
v -0.11895400 0.66908896 -0.04741028
v -0.11896407 0.83153550 -0.04751576
v -0.10260697 0.83174602 -0.07533728
v -0.10248826 0.66914669 -0.07529849
v -0.10255429 0.66924221 -0.07526829
v -0.10254891 0.83172625 -0.07539211
v -0.07938184 0.83175185 -0.09794330
v -0.07940297 0.66896242 -0.09791034
v -0.07939127 0.66919082 -0.09808349
v -0.07939013 0.83157318 -0.09800614
v -0.05141263 0.83176356 -0.11376552
v -0.05126879 0.66912388 -0.11387201
v -0.05129120 0.66910592 -0.11386385
v -0.05124733 0.83149710 -0.11402459
v -0.02012340 0.66917299 -0.12194723
v -0.02011377 0.83174543 -0.12210002
v -0.02006398 0.83165859 -0.12192891
v -0.01987616 0.66907359 -0.12200123
v 0.01235506 0.66907228 -0.12155854
v 0.01222248 0.83175358 -0.12170995
v 0.01218026 0.83172810 -0.12166148
v 0.01229366 0.66912574 -0.12172988
v 0.04351448 0.66913181 -0.11316364
v 0.04330162 0.83162504 -0.11300693
v 0.04316497 0.83156682 -0.11289541
v 0.04332990 0.66909981 -0.11300420
v 0.07107947 0.66922817 -0.09675282
v 0.07118417 0.83162489 -0.09665158
v 0.07110010 0.83176427 -0.09664372
v 0.07111357 0.66909786 -0.09668176
v 0.09372877 0.66922648 -0.07363932
v 0.09378026 0.83173873 -0.07351478
v 0.09372022 0.83154678 -0.07356988
v 0.09383928 0.66916052 -0.07350092
v 0.10961479 0.66924358 -0.04547247
v 0.10966690 0.83173668 -0.04546288
v 0.10971672 0.83149425 -0.04559501
v 0.10969817 0.66910295 -0.04559045
v 0.11783078 0.83159874 -0.01424204
v 0.11771530 0.66918801 -0.01426872
v 0.11779521 0.83165286 -0.01429930
v 0.11774524 0.66901499 -0.01422365
v 0.11757958 0.83161423 0.01800608
v 0.11748426 0.66908463 0.01790294
v 0.11757611 0.83158106 0.01803356
v 0.11742066 0.66906238 0.01809863
v -0.12742405 0.83165924 -0.01645196
v -0.10246170 0.83171342 -0.07533873
v -0.11876913 0.83164617 -0.04741579
v -0.07946874 0.83162463 -0.09793875
v -0.12760930 0.83168763 0.01580634
v -0.05116343 0.83177383 -0.11391013
v -0.11957177 0.83171891 0.04699273
v -0.02004406 0.83152282 -0.12194185
v -0.10376916 0.83159599 0.07503559
v 0.01228756 0.83159683 -0.12170678
v -0.08095789 0.83168222 0.09826931
v 0.04334016 0.83154734 -0.11289551
v -0.05331228 0.83163541 0.11463749
v 0.07112089 0.83152057 -0.09679079
v -0.02206257 0.83171906 0.12339778
v 0.09386837 0.83164093 -0.07358020
v 0.00998651 0.83174414 0.12354228
v 0.10973257 0.83168996 -0.04555739
v 0.04141188 0.83159921 0.11549201
v 0.11790279 0.83168112 -0.01432467
v 0.06950509 0.83163022 0.09959644
v 0.11737563 0.83152572 0.01813818
v 0.09244470 0.83172413 0.07694210
v 0.10879140 0.83157038 0.04923258
v 0.10892204 0.83177294 0.04899056
v 0.09249733 0.83164890 0.07677799
v 0.11741839 0.83177250 0.01811031
v 0.06957120 0.83181590 0.09964784
v 0.11783839 0.83153665 -0.01435718
v 0.04115266 0.83159479 0.11537031
v 0.10980211 0.83171116 -0.04555717
v 0.01012811 0.83174675 0.12370523
v 0.09377314 0.83182474 -0.07344653
v -0.02224108 0.83169026 0.12328770
v 0.07117543 0.83181102 -0.09666300
v -0.05317632 0.83173173 0.11464283
v 0.04335318 0.83157123 -0.11305534
v -0.08104212 0.83176158 0.09805202
v 0.01223700 0.83175565 -0.12165210
v -0.10384279 0.83155927 0.07526646
v -0.02009702 0.83164056 -0.12185874
v -0.11964337 0.83164331 0.04711440
v -0.05130432 0.83156377 -0.11384790
v -0.12770200 0.83183809 0.01599670
v -0.07954630 0.83151672 -0.09795472
v -0.12746018 0.83166469 -0.01641815
v -0.10233641 0.83174019 -0.07519229
v -0.11900048 0.83172132 -0.04764067
vt 0.1569394 0.004248093
vt 0.09240445 0.004248093
vt 0.1246719 0
vt 0.1870079 0.01670287
vt 0.06233596 0.01670287
vt 0.2128283 0.03651556
vt 0.03651556 0.03651556
vt 0.232641 0.06233596
vt 0.01670287 0.06233596
vt 0.2450957 0.09240445
vt 0.004248093 0.09240445
vt 0.2493438 0.1246719
vt 0 0.1246719
vt 0.2450957 0.1569394
vt 0.004248093 0.1569394
vt 0.232641 0.1870079
vt 0.01670287 0.1870079
vt 0.2128283 0.2128283
vt 0.03651556 0.2128283
vt 0.1870079 0.232641
vt 0.06233596 0.232641
vt 0.1569394 0.2450957
vt 0.09240445 0.2450957
vt 0.1246719 0.2493438
vt 0 0.1561512
vt -0.1476378 0.1236053
vt 0 0.1236053
vt -0.1476378 0.1561512
vt 0 0.1791647
vt -0.1476378 0.1466188
vt 0 0.1466188
vt -0.1476378 0.1791647
vt 0 0.1910773
vt -0.1476378 0.1585314
vt 0 0.1585314
vt -0.1476378 0.1910773
vt 0 0.09105943
vt -0.1476378 0.09105943
vt -0.1476378 0.08374491
vt 0 0.051199
vt 0 0.08374491
vt -0.1476378 0.051199
vt -0.1476378 0.03928638
vt 0 0.006740477
vt 0 0.03928638
vt -0.1476378 0.006740477
vt -0.1476378 -0.03928638
vt 0 -0.006740477
vt -0.1476378 -0.006740477
vt 0 -0.03928638
vt -0.1476378 -0.08374491
vt 0 -0.051199
vt -0.1476378 -0.051199
vt 0 -0.08374491
vt -0.1476378 -0.1236053
vt 0 -0.09105943
vt -0.1476378 -0.09105943
vt 0 -0.1236053
vt 0.1476378 0.1561512
vt 0.1476378 0.1236053
vt 0.1476378 0.1791647
vt 0.1476378 0.1466188
vt 0.1476378 0.1910773
vt 0.1476378 0.1585314
vt 0.1476378 0.09105943
vt 0.1476378 0.051199
vt 0.1476378 0.08374491
vt 0.1476378 0.006740477
vt 0.1476378 0.03928638
vt 0.1476378 -0.006740477
vt 0.1476378 -0.03928638
vt 0.1476378 -0.051199
vt 0.1476378 -0.08374491
vt 0.1476378 -0.09105943
vt 0.1476378 -0.1236053
vt -0.09240445 0.004248093
vt -0.1569394 0.004248093
vt -0.1246719 0
vt -0.1870079 0.01670287
vt -0.06233596 0.01670287
vt -0.2128283 0.03651556
vt -0.03651556 0.03651556
vt -0.232641 0.06233596
vt -0.01670287 0.06233596
vt -0.2450957 0.09240445
vt -0.004248093 0.09240445
vt -0.2493438 0.1246719
vt -0.2450957 0.1569394
vt -0.004248093 0.1569394
vt -0.232641 0.1870079
vt -0.01670287 0.1870079
vt -0.2128283 0.2128283
vt -0.03651556 0.2128283
vt -0.1870079 0.232641
vt -0.06233596 0.232641
vt -0.1569394 0.2450957
vt -0.09240445 0.2450957
vt -0.1246719 0.2493438
vn 0 -1 0
vn 0 1 0
vn 0.9205048527130912 0 0.39073113023107103
vn 0.788010775074443 0 0.6156614478482274
vn -0.9205048527130912 0 -0.39073113023107103
vn -0.788010775074443 0 -0.6156614478482274
vn 0.6018150201296609 0 0.798635512324825
vn -0.6018150201296609 0 -0.798635512324825
vn 0.3746065916614766 0 0.9271838552756254
vn -0.3746065916614766 0 -0.9271838552756254
vn 0.12186934340514725 0 0.9925461516413221
vn -0.12186934340514725 0 -0.9925461516413221
vn -0.13917313923768823 0 0.9902680633620005
vn 0.13917313923768823 0 -0.9902680633620005
vn -0.3907311302310712 0 0.9205048527130912
vn 0.3907311302310712 0 -0.9205048527130912
vn -0.6156614478482274 0 0.788010775074443
vn 0.6156614478482274 0 -0.788010775074443
vn -0.798635512324825 0 0.6018150201296609
vn 0.798635512324825 0 -0.6018150201296609
vn -0.9271838552756254 0 0.3746065916614766
vn 0.9271838552756254 0 -0.3746065916614766
vn -0.9925461516413221 0 0.1218693434051473
vn 0.9925461516413221 0 -0.1218693434051473
vn -0.9902680633620005 0 -0.13917313923768818
vn 0.9902680633620005 0 0.13917313923768818
vn -0.9205048527130916 0 -0.39073113023107053
vn 0.9205048527130916 0 0.39073113023107053
vn 0.3907311302310713 0 -0.9205048527130911
vn -0.3907311302310713 0 0.9205048527130911
usemtl material_0_0
f 1/1/1 2/2/1 3/3/1
f 2/2/1 1/1/1 4/4/1
f 2/2/1 4/4/1 5/5/1
f 5/5/1 4/4/1 6/6/1
f 5/5/1 6/6/1 7/7/1
f 7/7/1 6/6/1 8/8/1
f 7/7/1 8/8/1 9/9/1
f 9/9/1 8/8/1 10/10/1
f 9/9/1 10/10/1 11/11/1
f 11/11/1 10/10/1 12/12/1
f 11/11/1 12/12/1 13/13/1
f 13/13/1 12/12/1 14/14/1
f 13/13/1 14/14/1 15/15/1
f 15/15/1 14/14/1 16/16/1
f 15/15/1 16/16/1 17/17/1
f 17/17/1 16/16/1 18/18/1
f 17/17/1 18/18/1 19/19/1
f 19/19/1 18/18/1 20/20/1
f 19/19/1 20/20/1 21/21/1
f 21/21/1 20/20/1 22/22/1
f 21/21/1 22/22/1 23/23/1
f 23/23/1 22/22/1 24/24/1
f 25/24/2 26/22/2 27/23/2
f 27/23/2 26/22/2 28/21/2
f 26/22/2 29/20/2 28/21/2
f 28/21/2 29/20/2 30/19/2
f 29/20/2 31/18/2 30/19/2
f 30/19/2 31/18/2 32/17/2
f 31/18/2 33/16/2 32/17/2
f 32/17/2 33/16/2 34/15/2
f 33/16/2 35/14/2 34/15/2
f 34/15/2 35/14/2 36/13/2
f 35/14/2 37/12/2 36/13/2
f 36/13/2 37/12/2 38/11/2
f 37/12/2 39/10/2 38/11/2
f 38/11/2 39/10/2 40/9/2
f 39/10/2 41/8/2 40/9/2
f 40/9/2 41/8/2 42/7/2
f 41/8/2 43/6/2 42/7/2
f 42/7/2 43/6/2 44/5/2
f 43/6/2 45/4/2 44/5/2
f 44/5/2 45/4/2 46/2/2
f 45/4/2 47/1/2 46/2/2
f 48/3/2 46/2/2 47/1/2
f 49/25/3 50/26/4 51/27/4
f 50/26/4 49/25/3 52/28/3
f 53/28/5 54/25/5 55/26/6
f 56/27/6 55/26/6 54/25/5
f 51/29/4 57/30/7 58/31/7
f 57/30/7 51/29/4 50/32/4
f 55/32/6 56/29/6 59/30/8
f 60/31/8 59/30/8 56/29/6
f 58/33/7 61/34/9 62/35/9
f 61/34/9 58/33/7 57/36/7
f 59/36/8 60/33/8 63/34/10
f 64/35/10 63/34/10 60/33/8
f 61/36/9 65/35/11 62/33/9
f 65/35/11 61/36/9 66/34/11
f 67/34/12 63/36/10 68/35/12
f 64/33/10 68/35/12 63/36/10
f 66/32/11 69/31/13 65/29/11
f 69/31/13 66/32/11 70/30/13
f 71/30/14 67/32/12 72/31/14
f 68/29/12 72/31/14 67/32/12
f 70/28/13 73/27/15 69/25/13
f 73/27/15 70/28/13 74/26/15
f 75/26/16 71/28/14 76/27/16
f 72/25/14 76/27/16 71/28/14
f 74/26/15 77/37/17 73/27/15
f 77/37/17 74/26/15 78/38/17
f 79/38/18 75/26/16 80/37/18
f 76/27/16 80/37/18 75/26/16
f 78/39/17 81/40/19 77/41/17
f 81/40/19 78/39/17 82/42/19
f 83/42/20 79/39/18 84/40/20
f 80/41/18 84/40/20 79/39/18
f 82/43/19 85/44/21 81/45/19
f 85/44/21 82/43/19 86/46/21
f 87/46/22 83/43/20 88/44/22
f 84/45/20 88/44/22 83/43/20
f 89/47/23 85/48/21 86/49/21
f 85/48/21 89/47/23 90/50/23
f 91/50/24 92/47/24 88/48/22
f 87/49/22 88/48/22 92/47/24
f 93/51/25 90/52/23 89/53/23
f 90/52/23 93/51/25 94/54/25
f 95/54/26 96/51/26 91/52/24
f 92/53/24 91/52/24 96/51/26
f 97/55/27 94/56/25 93/57/25
f 94/56/25 97/55/27 98/58/27
f 99/58/28 100/55/28 95/56/26
f 96/57/26 95/56/26 100/55/28
f 101/59/6 98/27/27 97/60/27
f 98/27/27 101/59/6 102/25/6
f 103/25/4 104/59/4 99/27/28
f 100/60/28 99/27/28 104/59/4
f 105/61/8 102/31/6 101/62/6
f 102/31/6 105/61/8 106/29/8
f 107/29/7 108/61/7 103/31/4
f 104/62/4 103/31/4 108/61/7
f 109/63/10 106/35/8 105/64/8
f 106/35/8 109/63/10 110/33/10
f 111/33/9 112/63/9 107/35/7
f 108/64/7 107/35/7 112/63/9
f 109/64/10 113/33/12 110/35/10
f 113/33/12 109/64/10 114/63/12
f 115/63/11 112/64/9 116/33/11
f 111/35/9 116/33/11 112/64/9
f 114/62/12 117/29/14 113/31/12
f 117/29/14 114/62/12 118/61/14
f 119/61/13 115/62/11 120/29/13
f 116/31/11 120/29/13 115/62/11
f 118/60/14 121/25/29 117/27/14
f 121/25/29 118/60/14 122/59/29
f 123/59/30 119/60/13 124/25/30
f 120/27/13 124/25/30 119/60/13
f 122/65/29 125/27/18 121/37/29
f 125/27/18 122/65/29 126/60/18
f 127/60/17 123/65/30 128/27/17
f 124/37/30 128/27/17 123/65/30
f 126/66/18 129/41/20 125/40/18
f 129/41/20 126/66/18 130/67/20
f 131/67/19 127/66/17 132/41/19
f 128/40/17 132/41/19 127/66/17
f 130/68/20 133/45/22 129/44/20
f 133/45/22 130/68/20 134/69/22
f 135/69/21 131/68/19 136/45/21
f 132/44/19 136/45/21 131/68/19
f 133/50/22 137/70/24 138/48/24
f 137/70/24 133/50/22 134/71/22
f 135/71/21 136/50/21 139/70/23
f 140/48/23 139/70/23 136/50/21
f 138/54/24 141/72/26 142/52/26
f 141/72/26 138/54/24 137/73/24
f 139/73/23 140/54/23 143/72/25
f 144/52/25 143/72/25 140/54/23
f 142/58/26 52/74/3 49/56/3
f 52/74/3 142/58/26 141/75/26
f 143/75/25 144/58/25 53/74/5
f 54/56/5 53/74/5 144/58/25
f 145/76/2 146/77/2 147/78/2
f 146/77/2 145/76/2 148/79/2
f 148/79/2 145/76/2 149/80/2
f 148/79/2 149/80/2 150/81/2
f 150/81/2 149/80/2 151/82/2
f 150/81/2 151/82/2 152/83/2
f 152/83/2 151/82/2 153/84/2
f 152/83/2 153/84/2 154/85/2
f 154/85/2 153/84/2 155/86/2
f 154/85/2 155/86/2 156/87/2
f 156/87/2 155/86/2 157/13/2
f 156/87/2 157/13/2 158/88/2
f 158/88/2 157/13/2 159/89/2
f 158/88/2 159/89/2 160/90/2
f 160/90/2 159/89/2 161/91/2
f 160/90/2 161/91/2 162/92/2
f 162/92/2 161/91/2 163/93/2
f 162/92/2 163/93/2 164/94/2
f 164/94/2 163/93/2 165/95/2
f 164/94/2 165/95/2 166/96/2
f 166/96/2 165/95/2 167/97/2
f 166/96/2 167/97/2 168/98/2
f 169/98/1 170/97/1 171/96/1
f 170/97/1 172/95/1 171/96/1
f 171/96/1 172/95/1 173/94/1
f 172/95/1 174/93/1 173/94/1
f 173/94/1 174/93/1 175/92/1
f 174/93/1 176/91/1 175/92/1
f 175/92/1 176/91/1 177/90/1
f 176/91/1 178/89/1 177/90/1
f 177/90/1 178/89/1 179/88/1
f 178/89/1 180/13/1 179/88/1
f 179/88/1 180/13/1 181/87/1
f 180/13/1 182/86/1 181/87/1
f 181/87/1 182/86/1 183/85/1
f 182/86/1 184/84/1 183/85/1
f 183/85/1 184/84/1 185/83/1
f 184/84/1 186/82/1 185/83/1
f 185/83/1 186/82/1 187/81/1
f 186/82/1 188/80/1 187/81/1
f 187/81/1 188/80/1 189/79/1
f 188/80/1 190/76/1 189/79/1
f 189/79/1 190/76/1 191/77/1
f 192/78/1 191/77/1 190/76/1
