# SSTK version 0.8.0
# 7
mtllib original_7.mtl
o group_11/ID170#ID170
v 0.05304251 0.90401389 -0.00652277
v 0.05296339 0.95816269 0.00892880
v 0.05314107 0.90381579 0.00906341
v 0.05314746 0.95796009 -0.00644623
v 0.05323016 0.95817637 -0.00626088
v 0.05305386 0.90380100 -0.00640357
v 0.05293574 0.95811923 0.00903993
v 0.05301760 0.90382444 0.00892385
v 0.04924053 0.90389071 -0.02114069
v 0.04944270 0.95808840 -0.02114895
v 0.04945635 0.95803817 -0.02114811
v 0.04937130 0.90380809 -0.02111417
v -0.06308463 0.95818915 -0.00733861
v -0.05098586 0.95820800 -0.03540602
v -0.05890047 0.95816470 -0.02203224
v -0.04022567 0.95798325 -0.04595165
v -0.06320972 0.95822230 0.00778873
v -0.02709444 0.95804471 -0.05359510
v -0.05932757 0.95805423 0.02273666
v -0.01216029 0.95802827 -0.05738685
v -0.05177092 0.95819393 0.03597140
v 0.00328214 0.95801420 -0.05728686
v -0.04094745 0.95805513 0.04702987
v 0.01788385 0.95803927 -0.05321819
v -0.02794175 0.95800358 0.05476051
v 0.03107402 0.95802745 -0.04536499
v -0.01317741 0.95813256 0.05893014
v 0.04179972 0.95804480 -0.03462852
v 0.00220645 0.95811517 0.05883521
v 0.04920641 0.95806058 -0.02124549
v 0.01693574 0.95798156 0.05521344
v 0.03021162 0.95810964 0.04744067
v 0.05308051 0.95808521 -0.00636359
v 0.05298568 0.95807367 0.00896600
v 0.04116865 0.95811486 0.03696656
v 0.04882229 0.95802579 0.02351321
v 0.04883813 0.95794197 0.02376847
v 0.04122608 0.95810789 0.03677798
v 0.05301072 0.95806484 0.00879114
v 0.03024962 0.95807284 0.04763897
v 0.05308357 0.95804467 -0.00618889
v 0.04930498 0.95808745 -0.02109146
v 0.01691250 0.95817902 0.05496788
v 0.00206308 0.95804388 0.05888951
v 0.04196264 0.95800226 -0.03451902
v -0.01323626 0.95806540 0.05870632
v 0.03118823 0.95799729 -0.04540354
v -0.02802761 0.95800169 0.05460188
v 0.01793003 0.95815030 -0.05306182
v -0.04114871 0.95809163 0.04678070
v 0.00313760 0.95793949 -0.05727798
v -0.05168348 0.95813667 0.03599950
v -0.01224314 0.95794447 -0.05734066
v -0.05930057 0.95803061 0.02267777
v -0.02708081 0.95809158 -0.05360812
v -0.06319416 0.95822363 0.00792876
v -0.04020065 0.95822024 -0.04611895
v -0.06294293 0.95814982 -0.00734222
v -0.05126651 0.95815432 -0.03518923
v -0.05896975 0.95819399 -0.02199689
v 0.04881805 0.95793658 0.02375539
v 0.04905277 0.90391917 0.02363585
v 0.04900399 0.95795785 0.02365149
v 0.04905166 0.90383799 0.02365743
v 0.04186603 0.95814594 -0.03453768
v 0.04179109 0.90389351 -0.03454121
v 0.04180772 0.95802986 -0.03452381
v 0.04168462 0.90377482 -0.03429835
v -0.05123617 0.95817562 -0.03517012
v -0.05890914 0.90390183 -0.02203140
v -0.05887925 0.95814517 -0.02209165
v -0.05110606 0.90399975 -0.03516562
v -0.05104604 0.90384044 -0.03512227
v -0.05112981 0.95810056 -0.03528013
v -0.05899547 0.90381578 -0.02221405
v -0.05888914 0.95817205 -0.02227816
v -0.06294026 0.90391683 -0.00731108
v -0.06291491 0.95795405 -0.00738314
v -0.06304228 0.90391153 -0.00736900
v -0.06294357 0.95810270 -0.00739487
v -0.06323806 0.90400324 0.00790353
v -0.06319375 0.95800435 0.00796598
v -0.06300276 0.90380951 0.00790869
v -0.06312563 0.95799666 0.00783560
v -0.05926651 0.90409204 0.02288632
v -0.05931652 0.95799691 0.02282170
v -0.05936700 0.90403970 0.02265103
v -0.05918913 0.95793768 0.02273842
v -0.05175039 0.95818679 0.03595769
v -0.05175936 0.90404153 0.03598282
v -0.05174231 0.95823730 0.03592770
v -0.05166915 0.90387591 0.03600277
v -0.04106508 0.95800944 0.04696210
v -0.04098206 0.90404805 0.04693504
v -0.04108175 0.95814710 0.04689527
v -0.04098164 0.90388771 0.04709678
v -0.02776128 0.95817520 0.05469715
v -0.02790026 0.90404830 0.05482682
v -0.02779436 0.95796543 0.05469650
v -0.02790455 0.90390667 0.05479074
v -0.01304628 0.95809592 0.05878698
v -0.01316576 0.90390440 0.05879526
v -0.01311343 0.95805750 0.05875262
v -0.01321108 0.90375932 0.05879019
v 0.00214165 0.95792771 0.05890200
v 0.00207053 0.90376461 0.05891511
v 0.00214489 0.95820468 0.05890952
v 0.00217332 0.90379709 0.05894576
v 0.01697440 0.95808835 0.05514880
v 0.01701200 0.90377431 0.05513310
v 0.01694089 0.95808525 0.05522785
v 0.01679662 0.90390655 0.05521848
v 0.03037766 0.90380916 0.04759893
v 0.03041827 0.95807039 0.04747967
v 0.03021810 0.95802099 0.04769132
v 0.03015016 0.90374212 0.04750807
v 0.04110023 0.90405809 0.03684516
v 0.04106240 0.95802302 0.03682686
v 0.04103390 0.95802483 0.03681369
v 0.04108630 0.90384122 0.03676804
v 0.03108013 0.95798589 -0.04541496
v 0.03113127 0.90397450 -0.04546344
v 0.03105860 0.95810389 -0.04542843
v 0.03117976 0.90384993 -0.04517521
v 0.01792851 0.95820046 -0.05305758
v 0.01796028 0.90390509 -0.05312108
v 0.01795166 0.95817233 -0.05313909
v 0.01785700 0.90386610 -0.05307930
v 0.00313658 0.95816082 -0.05728817
v 0.00316734 0.90376642 -0.05717393
v 0.00304531 0.95798794 -0.05718776
v 0.00315627 0.90394379 -0.05709264
v -0.01201255 0.95792479 -0.05728498
v -0.01207608 0.90399435 -0.05742532
v -0.01212465 0.95808249 -0.05742770
v -0.01230380 0.90397305 -0.05720195
v -0.02695425 0.95804315 -0.05336124
v -0.02687266 0.90396245 -0.05362244
v -0.02709602 0.95827211 -0.05365402
v -0.02709755 0.90394009 -0.05365084
v -0.04022224 0.90390844 -0.04593212
v -0.04025986 0.95821387 -0.04601551
v -0.04020739 0.90383992 -0.04610322
v -0.04038483 0.95804781 -0.04605368
vt 5.80877e-31 -0.03966864
vt 0.0492126 -0.02425216
vt 4.874794e-31 -0.02425216
vt 0.0492126 -0.03966864
vt 3.568597e-31 -0.01860934
vt 0.0492126 -0.003192857
vt 3.135653e-31 -0.003192857
vt 0.0492126 -0.01860934
vt -0.04377053 0.002012254
vt -0.07433971 0.002012254
vt -0.05905512 0
vt -0.08858268 0.007911886
vt -0.02952756 0.007911886
vt -0.1008134 0.01729684
vt -0.01729684 0.01729684
vt -0.1101984 0.02952756
vt -0.007911886 0.02952756
vt -0.116098 0.04377053
vt -0.002012254 0.04377053
vt -0.1181102 0.05905512
vt 0 0.05905512
vt -0.116098 0.07433971
vt -0.002012254 0.07433971
vt -0.1101984 0.08858268
vt -0.007911886 0.08858268
vt -0.1008134 0.1008134
vt -0.01729684 0.1008134
vt -0.02952756 0.1101984
vt -0.08858268 0.1101984
vt -0.07433971 0.116098
vt -0.04377053 0.116098
vt -0.05905512 0.1181102
vt -1.63099e-16 -0.05854989
vt 0.0492126 -0.04313341
vt -1.295651e-16 -0.04313341
vt 0.0492126 -0.05854989
vt 0.0492126 0.003192857
vt 2.101157e-31 0.01860934
vt 2.296758e-31 0.003192857
vt 0.0492126 0.01860934
vt 0.0492126 0.07396637
vt -1.218395e-30 0.05854989
vt 0.0492126 0.05854989
vt -1.533739e-30 0.07396637
vt -0.0492126 -0.05854989
vt -9.030513e-31 -0.04313341
vt -0.0492126 -0.04313341
vt -1.218395e-30 -0.05854989
vt -0.0492126 -0.03966864
vt -1.936257e-31 -0.02425216
vt -0.0492126 -0.02425216
vt -2.870233e-31 -0.03966864
vt -0.0492126 -0.01860934
vt -6.122744e-32 -0.003192857
vt -0.0492126 -0.003192857
vt -1.045218e-31 -0.01860934
vt -0.0492126 0.01860934
vt -3.605015e-32 0.003192857
vt -1.648998e-32 0.01860934
vt -0.0492126 0.003192857
vt -0.0492126 0.03966864
vt -8.901517e-33 0.02425216
vt -2.26395e-33 0.03966864
vt -0.0492126 0.02425216
vt -0.0492126 0.05854989
vt -7.195677e-34 0.04313341
vt 0 0.05854989
vt -0.0492126 0.04313341
vt -0.0492126 0.07396637
vt 7.195677e-34 0.07396637
vt -0.0492126 0.08486747
vt 2.26395e-33 0.06945099
vt 8.901517e-33 0.08486747
vt -0.0492126 0.06945099
vt -0.0492126 0.09051029
vt 1.648998e-32 0.07509381
vt 3.605015e-32 0.09051029
vt -0.0492126 0.07509381
vt 1.045218e-31 0.09051029
vt 6.122744e-32 0.07509381
vt 2.870233e-31 0.08486747
vt 1.936257e-31 0.06945099
vt -4.369056e-17 0.07396637
vt -3.238261e-17 0.05854989
vt 0.0492126 0.02425216
vt 1.239821e-31 0.03966864
vt 1.306197e-31 0.02425216
vt 0.0492126 0.03966864
vt 0.0492126 0.04313341
vt 4.151581e-32 0.05854989
vt 4.223537e-32 0.04313341
vt -4.223537e-32 0.07396637
vt -4.151581e-32 0.05854989
vt 0.0492126 0.06945099
vt -1.306197e-31 0.08486747
vt -1.239821e-31 0.06945099
vt 0.0492126 0.08486747
vt 0.0492126 0.07509381
vt -2.296758e-31 0.09051029
vt -2.101157e-31 0.07509381
vt 0.0492126 0.09051029
vt -3.135653e-31 0.07509381
vt -3.568597e-31 0.09051029
vt -4.874794e-31 0.06945099
vt -5.80877e-31 0.08486747
vn 0.9925461516413221 0 -0.1218693434051473
vn 0.9902680633620005 0 0.13917313923768818
vn -0.9925461516413221 0 0.1218693434051473
vn -0.9902680633620005 0 -0.13917313923768818
vn 0.9271838552756254 0 -0.3746065916614766
vn -0.9271838552756254 0 0.3746065916614766
vn 0 1 0
vn 0 -1 0
vn 0.9205048527130913 0 0.3907311302310708
vn -0.9205048527130913 0 -0.3907311302310708
vn 0.798635512324825 0 -0.6018150201296609
vn -0.798635512324825 0 0.6018150201296609
vn -0.788010775074443 0 -0.6156614478482274
vn -0.9205048527130916 0 -0.3907311302310705
vn 0.788010775074443 0 0.6156614478482274
vn 0.9205048527130916 0 0.3907311302310705
vn -0.6156614478482274 0 0.788010775074443
vn 0.6156614478482274 0 -0.788010775074443
vn -0.39073113023107126 0 0.9205048527130912
vn 0.39073113023107126 0 -0.9205048527130912
vn -0.13917313923768823 0 0.9902680633620005
vn 0.13917313923768823 0 -0.9902680633620005
vn 0.12186934340514725 0 0.9925461516413221
vn -0.12186934340514725 0 -0.9925461516413221
vn 0.3746065916614766 0 0.9271838552756254
vn -0.3746065916614766 0 -0.9271838552756254
vn 0.6018150201296609 0 0.798635512324825
vn -0.6018150201296609 0 -0.798635512324825
vn 0.3907311302310713 0 -0.9205048527130911
vn -0.3907311302310713 0 0.9205048527130911
usemtl material_0_0
f 1/1/1 2/2/2 3/3/2
f 2/2/2 1/1/1 4/4/1
f 5/4/3 6/1/3 7/2/4
f 8/3/4 7/2/4 6/1/3
f 9/5/5 4/6/1 1/7/1
f 4/6/1 9/5/5 10/8/5
f 11/8/6 12/5/6 5/6/3
f 6/7/3 5/6/3 12/5/6
f 13/9/7 14/10/7 15/11/7
f 14/10/7 13/9/7 16/12/7
f 16/12/7 13/9/7 17/13/7
f 16/12/7 17/13/7 18/14/7
f 18/14/7 17/13/7 19/15/7
f 18/14/7 19/15/7 20/16/7
f 20/16/7 19/15/7 21/17/7
f 20/16/7 21/17/7 22/18/7
f 22/18/7 21/17/7 23/19/7
f 22/18/7 23/19/7 24/20/7
f 24/20/7 23/19/7 25/21/7
f 24/20/7 25/21/7 26/22/7
f 26/22/7 25/21/7 27/23/7
f 26/22/7 27/23/7 28/24/7
f 28/24/7 27/23/7 29/25/7
f 28/24/7 29/25/7 30/26/7
f 30/26/7 29/25/7 31/27/7
f 30/26/7 31/27/7 32/28/7
f 30/26/7 32/28/7 33/29/7
f 33/29/7 32/28/7 34/30/7
f 34/30/7 32/28/7 35/31/7
f 34/30/7 35/31/7 36/32/7
f 37/32/8 38/31/8 39/30/8
f 38/31/8 40/28/8 39/30/8
f 39/30/8 40/28/8 41/29/8
f 41/29/8 40/28/8 42/26/8
f 40/28/8 43/27/8 42/26/8
f 43/27/8 44/25/8 42/26/8
f 42/26/8 44/25/8 45/24/8
f 44/25/8 46/23/8 45/24/8
f 45/24/8 46/23/8 47/22/8
f 46/23/8 48/21/8 47/22/8
f 47/22/8 48/21/8 49/20/8
f 48/21/8 50/19/8 49/20/8
f 49/20/8 50/19/8 51/18/8
f 50/19/8 52/17/8 51/18/8
f 51/18/8 52/17/8 53/16/8
f 52/17/8 54/15/8 53/16/8
f 53/16/8 54/15/8 55/14/8
f 54/15/8 56/13/8 55/14/8
f 55/14/8 56/13/8 57/12/8
f 56/13/8 58/9/8 57/12/8
f 57/12/8 58/9/8 59/10/8
f 60/11/8 59/10/8 58/9/8
f 3/33/2 61/34/9 62/35/9
f 61/34/9 3/33/2 2/36/2
f 7/36/4 8/33/4 63/34/10
f 64/35/10 63/34/10 8/33/4
f 65/37/11 9/38/5 66/39/11
f 9/38/5 65/37/11 10/40/5
f 11/40/6 67/37/12 12/38/6
f 68/39/12 12/38/6 67/37/12
f 69/41/13 70/42/14 71/43/14
f 70/42/14 69/41/13 72/44/13
f 73/44/15 74/41/15 75/42/16
f 76/43/16 75/42/16 74/41/15
f 71/45/14 77/46/4 78/47/4
f 77/46/4 71/45/14 70/48/14
f 75/48/16 76/45/16 79/46/2
f 80/47/2 79/46/2 76/45/16
f 78/49/4 81/50/3 82/51/3
f 81/50/3 78/49/4 77/52/4
f 79/52/2 80/49/2 83/50/1
f 84/51/1 83/50/1 80/49/2
f 82/53/3 85/54/6 86/55/6
f 85/54/6 82/53/3 81/56/3
f 83/56/1 84/53/1 87/54/5
f 88/55/5 87/54/5 84/53/1
f 89/57/12 85/58/6 90/59/12
f 85/58/6 89/57/12 86/60/6
f 88/60/5 91/57/11 87/58/5
f 92/59/11 87/58/5 91/57/11
f 93/61/17 90/62/12 94/63/17
f 90/62/12 93/61/17 89/64/12
f 91/64/11 95/61/18 92/62/11
f 96/63/18 92/62/11 95/61/18
f 97/65/19 94/66/17 98/67/19
f 94/66/17 97/65/19 93/68/17
f 95/68/18 99/65/20 96/66/18
f 100/67/20 96/66/18 99/65/20
f 101/69/21 98/67/19 102/70/21
f 98/67/19 101/69/21 97/65/19
f 99/65/20 103/69/22 100/67/20
f 104/70/22 100/67/20 103/69/22
f 105/71/23 102/72/21 106/73/23
f 102/72/21 105/71/23 101/74/21
f 103/74/22 107/71/24 104/72/22
f 108/73/24 104/72/22 107/71/24
f 109/75/25 106/76/23 110/77/25
f 106/76/23 109/75/25 105/78/23
f 107/78/24 111/75/26 108/76/24
f 112/77/26 108/76/24 111/75/26
f 113/79/27 109/78/25 110/80/25
f 109/78/25 113/79/27 114/75/27
f 115/75/28 116/79/28 111/78/26
f 112/80/26 111/78/26 116/79/28
f 117/81/15 114/74/27 113/82/27
f 114/74/27 117/81/15 118/71/15
f 119/71/13 120/81/13 115/74/28
f 116/82/28 115/74/28 120/81/13
f 62/83/9 118/65/15 117/84/15
f 118/65/15 62/83/9 61/69/9
f 63/69/10 64/83/10 119/65/13
f 120/84/13 119/65/13 64/83/10
f 121/85/18 66/86/11 122/87/18
f 66/86/11 121/85/18 65/88/11
f 67/88/12 123/85/17 68/86/12
f 124/87/17 68/86/12 123/85/17
f 125/89/29 122/90/18 126/91/29
f 122/90/18 125/89/29 121/43/18
f 123/43/17 127/89/30 124/90/17
f 128/91/30 124/90/17 127/89/30
f 129/43/22 126/92/29 130/93/22
f 126/92/29 129/43/22 125/41/29
f 127/41/30 131/43/21 128/92/30
f 132/93/21 128/92/30 131/43/21
f 133/94/24 130/95/22 134/96/24
f 130/95/22 133/94/24 129/97/22
f 131/97/21 135/94/23 132/95/21
f 136/96/23 132/95/21 135/94/23
f 137/98/26 134/99/24 138/100/26
f 134/99/24 137/98/26 133/101/24
f 135/101/23 139/98/25 136/99/23
f 140/100/25 136/99/23 139/98/25
f 137/101/26 141/102/28 142/98/28
f 141/102/28 137/101/26 138/103/26
f 140/103/25 139/101/25 143/102/27
f 144/98/27 143/102/27 139/101/25
f 142/97/28 72/104/13 69/94/13
f 72/104/13 142/97/28 141/105/28
f 143/105/27 144/97/27 73/104/15
f 74/94/15 73/104/15 144/97/27
