# SSTK version 0.8.0
# 14
mtllib original_14.mtl
o #ID77
v 0.01302523 0.91607869 0.41474480
v 0.01271273 0.91036130 0.41336083
v 0.01326856 0.91311913 0.41417007
v 0.01241119 0.91875690 0.41530138
v 0.01167799 0.90763089 0.41286232
v 0.01171093 0.91324691 0.41406348
v 0.01163472 0.91577684 0.41463235
v 0.01096996 0.92139727 0.41609586
v 0.01090075 0.91833242 0.41511830
v 0.00899520 0.92366648 0.41653280
v 0.00964688 0.92048454 0.41576602
v 0.00803186 0.92282044 0.41609268
v 0.00680274 0.92569490 0.41704684
v 0.00610650 0.92436995 0.41659058
v 0.00433124 0.92708087 0.41706428
v 0.00368700 0.92536315 0.41679337
v 0.00128384 0.92760447 0.41722273
v 0.00103334 0.92624433 0.41705881
v -0.00147341 0.92786274 0.41736393
v -0.00147932 0.92636128 0.41700851
v -0.00408502 0.92593464 0.41704609
v -0.00461080 0.92752202 0.41732299
v -0.00655186 0.92507356 0.41681428
v -0.00720337 0.92633832 0.41717365
v -0.00891165 0.92369521 0.41644519
v -0.00980664 0.92489459 0.41662091
v -0.01073969 0.92188705 0.41582090
v -0.01175923 0.92286857 0.41614213
v -0.01200616 0.91975896 0.41555076
v -0.01352749 0.92040736 0.41551190
v -0.01300202 0.91733203 0.41498602
v -0.01352587 0.91477842 0.41420740
v 0.01117933 0.91073206 0.41347275
v 0.01014597 0.90517161 0.41226732
v 0.01029777 0.90830259 0.41307511
v 0.00890471 0.90630176 0.41242937
v 0.00801394 0.90308134 0.41180081
v 0.00689344 0.90431813 0.41201035
v 0.00551114 0.90147975 0.41154618
v 0.00470892 0.90309985 0.41187781
v 0.00264617 0.90065981 0.41132047
v 0.00227647 0.90202930 0.41164182
v -0.00023456 0.90015071 0.41101453
v -0.00040600 0.90172999 0.41138462
v -0.00326912 0.90036586 0.41098842
v -0.00306262 0.90195217 0.41155687
v -0.00547935 0.90261263 0.41158898
v -0.00613121 0.90113964 0.41111425
v -0.00771727 0.90362101 0.41175241
v -0.00889619 0.90230761 0.41155030
v -0.00991365 0.90538081 0.41231279
v -0.01097119 0.90422784 0.41202741
v -0.01154583 0.90742601 0.41264749
v -0.01286733 0.90649688 0.41248495
v -0.01270438 0.90969545 0.41311274
v -0.01335652 0.91234626 0.41375867
v -0.01418664 0.90913433 0.41300309
v -0.01457476 0.91769565 0.41506013
v -0.01483602 0.91194895 0.41362394
v -0.01515084 0.91482198 0.41436170
v -0.01512641 0.91483355 0.41425641
v -0.01458956 0.91757077 0.41499503
v -0.01486599 0.91202724 0.41374492
v -0.01423847 0.90903541 0.41303973
v -0.01357237 0.92034546 0.41571397
v -0.01336095 0.91478248 0.41438462
v -0.01328245 0.91226507 0.41381610
v -0.01284512 0.90636627 0.41241711
v -0.01272746 0.90964505 0.41332373
v -0.01151535 0.90735479 0.41268442
v -0.01109787 0.90446435 0.41195873
v -0.00985827 0.90536061 0.41227298
v -0.00885213 0.90237244 0.41159045
v -0.00783447 0.90378243 0.41178869
v -0.00605597 0.90099559 0.41137586
v -0.00547331 0.90248102 0.41156180
v -0.00342586 0.90020028 0.41108913
v -0.00285848 0.90192719 0.41137987
v -0.00027580 0.90183599 0.41152116
v -0.00022189 0.90006356 0.41101763
v 0.00225772 0.90211236 0.41153141
v 0.00253087 0.90041782 0.41109924
v 0.00473811 0.90303404 0.41165989
v 0.00545777 0.90173765 0.41161872
v 0.00701666 0.90454443 0.41216293
v 0.00794689 0.90298380 0.41186846
v 0.00878291 0.90630322 0.41250772
v 0.01009598 0.90517757 0.41239828
v 0.01022953 0.90834149 0.41308696
v 0.01121874 0.91066692 0.41372944
v 0.01162114 0.91335788 0.41417461
v 0.01149081 0.90757558 0.41279212
v -0.01302385 0.91729869 0.41495099
v -0.01216102 0.91970431 0.41548852
v -0.01195102 0.92283260 0.41607459
v -0.01066386 0.92195033 0.41589240
v -0.00978907 0.92491593 0.41675707
v -0.00873628 0.92355235 0.41649668
v -0.00721112 0.92651534 0.41708635
v -0.00671024 0.92498156 0.41683056
v -0.00454733 0.92745796 0.41713629
v -0.00398510 0.92575952 0.41696582
v -0.00143149 0.92782473 0.41748912
v -0.00156570 0.92633386 0.41710384
v 0.00106620 0.92617510 0.41717844
v 0.00127794 0.92760517 0.41752507
v 0.00363367 0.92559057 0.41682282
v 0.00416873 0.92674325 0.41729191
v 0.00598703 0.92432478 0.41652185
v 0.00687730 0.92568884 0.41701392
v 0.00805538 0.92270522 0.41614751
v 0.00924933 0.92364151 0.41652060
v 0.00962774 0.92063871 0.41590529
v 0.01079838 0.91826079 0.41530480
v 0.01092521 0.92142744 0.41587957
v 0.01149252 0.91572710 0.41468654
v 0.01235298 0.91894939 0.41540323
v 0.01279054 0.91019708 0.41334542
v 0.01317658 0.91622716 0.41462017
v 0.01331192 0.91307696 0.41414930
vn -0.005105594237811104 -0.2217860973698855 0.9750819760004359
vn 0.005105594237811104 0.2217860973698855 -0.9750819760004359
usemtl material_0_0
f 1//1 2//1 3//1
f 2//1 1//1 4//1
f 2//1 4//1 5//1
f 5//1 4//1 6//1
f 6//1 4//1 7//1
f 7//1 4//1 8//1
f 7//1 8//1 9//1
f 9//1 8//1 10//1
f 9//1 10//1 11//1
f 11//1 10//1 12//1
f 12//1 10//1 13//1
f 12//1 13//1 14//1
f 14//1 13//1 15//1
f 14//1 15//1 16//1
f 16//1 15//1 17//1
f 16//1 17//1 18//1
f 18//1 17//1 19//1
f 18//1 19//1 20//1
f 20//1 19//1 21//1
f 21//1 19//1 22//1
f 21//1 22//1 23//1
f 23//1 22//1 24//1
f 23//1 24//1 25//1
f 25//1 24//1 26//1
f 25//1 26//1 27//1
f 27//1 26//1 28//1
f 27//1 28//1 29//1
f 29//1 28//1 30//1
f 29//1 30//1 31//1
f 31//1 30//1 32//1
f 5//1 33//1 34//1
f 33//1 5//1 6//1
f 34//1 33//1 35//1
f 34//1 35//1 36//1
f 34//1 36//1 37//1
f 37//1 36//1 38//1
f 37//1 38//1 39//1
f 39//1 38//1 40//1
f 39//1 40//1 41//1
f 41//1 40//1 42//1
f 41//1 42//1 43//1
f 43//1 42//1 44//1
f 43//1 44//1 45//1
f 45//1 44//1 46//1
f 45//1 46//1 47//1
f 45//1 47//1 48//1
f 48//1 47//1 49//1
f 48//1 49//1 50//1
f 50//1 49//1 51//1
f 50//1 51//1 52//1
f 52//1 51//1 53//1
f 52//1 53//1 54//1
f 54//1 53//1 55//1
f 54//1 55//1 56//1
f 54//1 56//1 57//1
f 57//1 56//1 32//1
f 57//1 32//1 30//1
f 57//1 30//1 58//1
f 57//1 58//1 59//1
f 59//1 58//1 60//1
f 61//2 62//2 63//2
f 63//2 62//2 64//2
f 62//2 65//2 64//2
f 65//2 66//2 64//2
f 66//2 67//2 64//2
f 64//2 67//2 68//2
f 67//2 69//2 68//2
f 69//2 70//2 68//2
f 68//2 70//2 71//2
f 70//2 72//2 71//2
f 71//2 72//2 73//2
f 72//2 74//2 73//2
f 73//2 74//2 75//2
f 74//2 76//2 75//2
f 75//2 76//2 77//2
f 76//2 78//2 77//2
f 78//2 79//2 77//2
f 77//2 79//2 80//2
f 79//2 81//2 80//2
f 80//2 81//2 82//2
f 81//2 83//2 82//2
f 82//2 83//2 84//2
f 83//2 85//2 84//2
f 84//2 85//2 86//2
f 85//2 87//2 86//2
f 86//2 87//2 88//2
f 87//2 89//2 88//2
f 89//2 90//2 88//2
f 91//2 92//2 90//2
f 88//2 90//2 92//2
f 66//2 65//2 93//2
f 93//2 65//2 94//2
f 65//2 95//2 94//2
f 94//2 95//2 96//2
f 95//2 97//2 96//2
f 96//2 97//2 98//2
f 97//2 99//2 98//2
f 98//2 99//2 100//2
f 99//2 101//2 100//2
f 100//2 101//2 102//2
f 101//2 103//2 102//2
f 102//2 103//2 104//2
f 104//2 103//2 105//2
f 103//2 106//2 105//2
f 105//2 106//2 107//2
f 106//2 108//2 107//2
f 107//2 108//2 109//2
f 108//2 110//2 109//2
f 109//2 110//2 111//2
f 110//2 112//2 111//2
f 111//2 112//2 113//2
f 113//2 112//2 114//2
f 112//2 115//2 114//2
f 114//2 115//2 116//2
f 115//2 117//2 116//2
f 116//2 117//2 91//2
f 91//2 117//2 92//2
f 92//2 117//2 118//2
f 117//2 119//2 118//2
f 120//2 118//2 119//2
