# SSTK version 0.8.0
# 5
mtllib original_5.mtl
o #ID33
v -0.01508220 0.40946819 0.14425033
v 0.04691788 0.40947629 0.13802315
v 0.01612004 0.40952827 0.14454777
v -0.04565126 0.40940767 0.13758536
v -0.07437048 0.40951091 0.12483773
v 0.07556754 0.40958380 0.12550131
v -0.09951883 0.40944384 0.10629953
v 0.10109706 0.40944522 0.10739855
v -0.12028528 0.40947500 0.08276691
v 0.12207860 0.40950548 0.08396107
v -0.13593988 0.40944954 0.05561586
v 0.13798882 0.40932124 0.05687072
v -0.14536571 0.40939330 0.02589610
v 0.14778387 0.40944025 0.02737516
v -0.14836001 0.40932374 -0.00527127
v 0.15119226 0.40957731 -0.00388108
v -0.14490165 0.40958833 -0.03646803
v 0.14806462 0.40957835 -0.03485887
v -0.13518863 0.40942718 -0.06611604
v 0.13839682 0.40950473 -0.06481382
v -0.11943992 0.40952470 -0.09335980
v 0.12306903 0.40962000 -0.09211300
v -0.09833526 0.40959475 -0.11660614
v 0.10213306 0.40942498 -0.11528340
v -0.07281516 0.40943369 -0.13464978
v 0.07685020 0.40940144 -0.13401277
v -0.04418049 0.40934816 -0.14723632
v 0.04848499 0.40946012 -0.14679253
v -0.01353160 0.40944648 -0.15364573
v 0.01773994 0.40943768 -0.15343129
v 0.01782785 0.40949294 -0.15359912
v -0.01359059 0.40949725 -0.15356948
v 0.04820448 0.40944693 -0.14664322
v -0.04408350 0.40934689 -0.14719665
v 0.07679467 0.40945567 -0.13399877
v -0.07306050 0.40956861 -0.13490392
v 0.10223412 0.40939882 -0.11538768
v -0.09831946 0.40937220 -0.11646058
v 0.12298838 0.40952406 -0.09189954
v -0.11930706 0.40952937 -0.09330807
v 0.13844019 0.40950874 -0.06469704
v -0.13514707 0.40948946 -0.06610920
v 0.14809542 0.40944978 -0.03499846
v -0.14494888 0.40934624 -0.03637167
v 0.15117901 0.40948618 -0.00385248
v -0.14828517 0.40955550 -0.00533241
v 0.14779116 0.40951154 0.02740216
v -0.14541197 0.40945463 0.02582840
v 0.13770146 0.40960149 0.05702921
v -0.13601300 0.40952833 0.05560611
v 0.12198040 0.40944736 0.08406606
v -0.12037600 0.40956104 0.08294794
v 0.10106267 0.40945970 0.10713257
v -0.09953352 0.40954842 0.10625752
v 0.07556384 0.40939551 0.12557930
v -0.07428293 0.40933773 0.12473132
v 0.04688270 0.40938231 0.13822418
v -0.04565500 0.40953483 0.13757519
v -0.01525007 0.40940601 0.14413734
v 0.01632705 0.40956288 0.14446210
vn 0 -1 0
vn 0 1 0
usemtl material_0_0
f 1//1 2//1 3//1
f 2//1 1//1 4//1
f 2//1 4//1 5//1
f 2//1 5//1 6//1
f 6//1 5//1 7//1
f 6//1 7//1 8//1
f 8//1 7//1 9//1
f 8//1 9//1 10//1
f 10//1 9//1 11//1
f 10//1 11//1 12//1
f 12//1 11//1 13//1
f 12//1 13//1 14//1
f 14//1 13//1 15//1
f 14//1 15//1 16//1
f 16//1 15//1 17//1
f 16//1 17//1 18//1
f 18//1 17//1 19//1
f 18//1 19//1 20//1
f 20//1 19//1 21//1
f 20//1 21//1 22//1
f 22//1 21//1 23//1
f 22//1 23//1 24//1
f 24//1 23//1 25//1
f 24//1 25//1 26//1
f 26//1 25//1 27//1
f 26//1 27//1 28//1
f 28//1 27//1 29//1
f 28//1 29//1 30//1
f 31//2 32//2 33//2
f 32//2 34//2 33//2
f 33//2 34//2 35//2
f 34//2 36//2 35//2
f 35//2 36//2 37//2
f 36//2 38//2 37//2
f 37//2 38//2 39//2
f 38//2 40//2 39//2
f 39//2 40//2 41//2
f 40//2 42//2 41//2
f 41//2 42//2 43//2
f 42//2 44//2 43//2
f 43//2 44//2 45//2
f 44//2 46//2 45//2
f 45//2 46//2 47//2
f 46//2 48//2 47//2
f 47//2 48//2 49//2
f 48//2 50//2 49//2
f 49//2 50//2 51//2
f 50//2 52//2 51//2
f 51//2 52//2 53//2
f 52//2 54//2 53//2
f 53//2 54//2 55//2
f 54//2 56//2 55//2
f 55//2 56//2 57//2
f 56//2 58//2 57//2
f 58//2 59//2 57//2
f 60//2 57//2 59//2
