# SSTK version 0.8.0
# 8
mtllib original_8.mtl
o #ID46
v -0.02142090 0.96636658 0.06402829
v 0.00840126 0.96644655 0.06747983
v -0.00679779 0.96634173 0.06733788
v 0.02316166 0.96637824 0.06432176
v -0.03521145 0.96640267 0.05778956
v 0.03717174 0.96649623 0.05828229
v -0.04733718 0.96630987 0.04895085
v 0.04933783 0.96632274 0.04951707
v -0.05732274 0.96644684 0.03758287
v 0.05961607 0.96636584 0.03828870
v 0.06722347 0.96635068 0.02523359
v -0.06489640 0.96649567 0.02456440
v -0.06958469 0.96633926 0.01000558
v 0.07209788 0.96651197 0.01067403
v -0.07114120 0.96636380 -0.00491620
v 0.07367412 0.96642711 -0.00425146
v -0.06941179 0.96638554 -0.02007939
v 0.07226174 0.96626761 -0.01940997
v 0.06759800 0.96640482 -0.03367582
v -0.06470850 0.96626027 -0.03454940
v -0.05708907 0.96640223 -0.04758614
v 0.06019153 0.96641939 -0.04677023
v -0.04661800 0.96638527 -0.05851045
v 0.05001652 0.96636335 -0.05812586
v -0.03455949 0.96628167 -0.06751766
v 0.03793590 0.96641998 -0.06709418
v -0.02070611 0.96640826 -0.07360256
v 0.02401675 0.96652840 -0.07315203
v -0.00599032 0.96640657 -0.07658815
v 0.00944257 0.96637379 -0.07641286
v 0.00945992 0.96646332 -0.07647269
v -0.00580266 0.96638606 -0.07651818
v 0.02386068 0.96640930 -0.07321004
v -0.02062004 0.96635666 -0.07352802
v 0.03779115 0.96638182 -0.06709480
v -0.03456168 0.96656181 -0.06738443
v 0.04999157 0.96650118 -0.05807037
v -0.04670120 0.96636650 -0.05860097
v 0.06011035 0.96646473 -0.04675136
v -0.05696278 0.96624335 -0.04749309
v 0.06770332 0.96634721 -0.03366975
v -0.06459925 0.96640541 -0.03427347
v -0.06939016 0.96647104 -0.02006511
v 0.07204300 0.96628052 -0.01914973
v 0.07374647 0.96635559 -0.00428816
v -0.07095119 0.96649226 -0.00493408
v 0.07185589 0.96655033 0.01090552
v -0.06938936 0.96634402 0.01012317
v 0.06726357 0.96630559 0.02514212
v -0.06502071 0.96645704 0.02447345
v -0.05753609 0.96639041 0.03755780
v 0.05965377 0.96624836 0.03824771
v 0.04942200 0.96655812 0.04952920
v -0.04722830 0.96640764 0.04886990
v 0.03719532 0.96628933 0.05837618
v -0.03518247 0.96650581 0.05778894
v 0.02341605 0.96633401 0.06433912
v -0.02135260 0.96637443 0.06401962
v 0.00859799 0.96649518 0.06748732
v -0.00651151 0.96644193 0.06722888
v -0.03453638 0.96629082 -0.06748293
v -0.02075962 0.97371634 -0.07342476
v -0.02062083 0.96641879 -0.07358507
v -0.03441156 0.97353758 -0.06750004
v -0.03468764 0.97365568 -0.06757820
v -0.03446438 0.96651277 -0.06757100
v -0.02069103 0.97359656 -0.07353222
v -0.02068594 0.96643324 -0.07350017
v -0.00593568 0.97358979 -0.07658259
v -0.00591279 0.96644576 -0.07656500
v -0.00587273 0.97375835 -0.07657877
v -0.00589802 0.96623725 -0.07653073
v 0.00928490 0.97365649 -0.07656049
v 0.00923227 0.96645849 -0.07644672
v 0.00932284 0.97358779 -0.07653103
v 0.00932798 0.96642303 -0.07640701
v 0.02398764 0.97360955 -0.07336743
v 0.02408228 0.96649699 -0.07328543
v 0.02407410 0.97377815 -0.07345051
v 0.02402071 0.96634567 -0.07342639
v 0.03796650 0.97362663 -0.06719754
v 0.03777838 0.96630018 -0.06707722
v 0.03775528 0.97355846 -0.06698905
v 0.03777110 0.96648146 -0.06702381
v 0.05004421 0.97365188 -0.05803962
v 0.05004399 0.96638198 -0.05821753
v 0.05011016 0.97368642 -0.05806224
v 0.04989016 0.96650959 -0.05800167
v 0.06012719 0.96631578 -0.04673331
v 0.06010931 0.97350386 -0.04692898
v 0.06006500 0.97358616 -0.04679731
v 0.06022103 0.96646430 -0.04680570
v 0.06761310 0.96641843 -0.03376588
v 0.06752966 0.97352535 -0.03375498
v 0.06770857 0.97363543 -0.03365742
v 0.06762284 0.96651391 -0.03366176
v 0.07224789 0.96635229 -0.01931672
v 0.07223557 0.97357051 -0.01918791
v 0.07222590 0.97361728 -0.01921499
v 0.07226685 0.96639583 -0.01936135
v 0.07359229 0.96644616 -0.00434571
v 0.07372230 0.97358852 -0.00411012
v 0.07368149 0.97350922 -0.00413586
v 0.07377889 0.96646206 -0.00418041
v 0.07188214 0.96646496 0.01089447
v 0.07199345 0.97369154 0.01089108
v 0.07199920 0.97369701 0.01070117
v 0.07205776 0.96650464 0.01080280
v 0.06716345 0.96636674 0.02526957
v 0.06729813 0.97372653 0.02516078
v 0.06730983 0.97380105 0.02525373
v 0.06745390 0.96641648 0.02520729
v 0.05960353 0.96642694 0.03822371
v 0.05970801 0.97365936 0.03815307
v 0.05980895 0.97382603 0.03826624
v 0.05966982 0.96638637 0.03821655
v 0.04943228 0.96638302 0.04960221
v 0.04933077 0.97358857 0.04947412
v 0.04958838 0.97365924 0.04935873
v 0.04946461 0.96647569 0.04937991
v 0.03721363 0.97377043 0.05843388
v 0.03729336 0.96651468 0.05818407
v 0.03727258 0.96645326 0.05820390
v 0.03720192 0.97355476 0.05825538
v 0.02320661 0.97382628 0.06432097
v 0.02332196 0.96647403 0.06431272
v 0.02329655 0.96622119 0.06421293
v 0.02329994 0.97357713 0.06421918
v 0.00867249 0.97375242 0.06746478
v 0.00852123 0.96648267 0.06731075
v 0.00866885 0.96635233 0.06748093
v 0.00866155 0.97376788 0.06744510
v -0.00649581 0.97364824 0.06714834
v -0.00664051 0.96642941 0.06714230
v -0.00653338 0.96641959 0.06737208
v -0.00663485 0.97363855 0.06727127
v -0.02140217 0.97369304 0.06407734
v -0.02134987 0.96642425 0.06399308
v -0.02133330 0.96638492 0.06425317
v -0.02143746 0.97380046 0.06405518
v -0.03505783 0.97374001 0.05790946
v -0.03520442 0.96651766 0.05791099
v -0.03514264 0.96634781 0.05787388
v -0.03512272 0.97349498 0.05794939
v -0.04737224 0.97369840 0.04899802
v -0.04736804 0.96653217 0.04888244
v -0.04736550 0.96634137 0.04904477
v -0.04734377 0.97370793 0.04886570
v -0.05735003 0.96637764 0.03773909
v -0.05742995 0.97359041 0.03757046
v -0.05742674 0.97375782 0.03769430
v -0.05757765 0.96642875 0.03771051
v -0.06490825 0.96648789 0.02448139
v -0.06495613 0.97366198 0.02445601
v -0.06503910 0.97374409 0.02457463
v -0.06492388 0.96651192 0.02439014
v -0.06935524 0.96628459 0.01003960
v -0.06948338 0.97360206 0.00999437
v -0.06953298 0.97377518 0.01017510
v -0.06941075 0.96631085 0.00993503
v -0.07093953 0.96644575 -0.00492733
v -0.07103195 0.97378420 -0.00501962
v -0.07092099 0.97357658 -0.00500770
v -0.07109261 0.96646415 -0.00499991
v -0.06939812 0.96643133 -0.02002916
v -0.06939655 0.97364184 -0.01991573
v -0.06939289 0.97373731 -0.02001218
v -0.06937629 0.96627399 -0.01988861
v -0.06446406 0.96641079 -0.03437162
v -0.06468476 0.97369935 -0.03444411
v -0.06470664 0.97369875 -0.03442344
v -0.06466810 0.96645198 -0.03436613
v -0.05696156 0.96627908 -0.04743528
v -0.05693243 0.97362963 -0.04741257
v -0.05709341 0.97375252 -0.04733705
v -0.05703496 0.96632149 -0.04733827
v -0.04674133 0.96627937 -0.05866861
v -0.04693465 0.97374582 -0.05862362
v -0.04669391 0.97356366 -0.05877505
v -0.04680508 0.96650934 -0.05862794
vn 0 -1 0
vn 0 1 0
vn -0.49545864309090043 0 -0.8686315288927313
vn -0.30403304122344493 0 -0.9526614875413109
vn 0.49545864309090043 0 0.8686315288927313
vn 0.30403304122344493 0 0.9526614875413109
vn -0.09931975469970927 0 -0.9950555694665447
vn 0.09931975469970927 0 0.9950555694665447
vn 0.10973437779899876 0 -0.9939609480905509
vn -0.10973437779899876 0 0.9939609480905509
vn 0.3139924953225155 0 -0.9494254646264444
vn -0.3139924953225155 0 0.9494254646264444
vn 0.5045276522712392 0 -0.8633955339782987
vn -0.5045276522712392 0 0.8633955339782987
vn 0.6730125456012049 0 -0.7396310657776526
vn -0.6730125456012049 0 0.7396310657776526
vn 0.812083524427163 0 -0.5835412147860316
vn -0.812083524427163 0 0.5835412147860316
vn 0.9156626285687869 0 -0.40194769640153416
vn -0.9156626285687869 0 0.40194769640153416
vn 0.9792228150693219 0 -0.20278727388007553
vn -0.9792228150693219 0 0.20278727388007553
vn 0.9999862920847643 0 0.0052359948972719485
vn -0.9999862920847643 0 -0.0052359948972719485
vn 0.9770455658713494 0 0.21303042555263024
vn -0.9770455658713494 0 -0.21303042555263024
vn 0.9114032871347105 0 0.41151433535181287
vn -0.9114032871347105 0 -0.41151433535181287
vn 0.8059282429647961 0 0.5920132322775196
vn -0.8059282429647961 0 -0.5920132322775196
vn 0.6652303406592803 0 0.7466381947545532
vn -0.6652303406592803 0 -0.7466381947545532
usemtl material_0_0
f 1//1 2//1 3//1
f 2//1 1//1 4//1
f 4//1 1//1 5//1
f 4//1 5//1 6//1
f 6//1 5//1 7//1
f 6//1 7//1 8//1
f 8//1 7//1 9//1
f 8//1 9//1 10//1
f 10//1 9//1 11//1
f 11//1 9//1 12//1
f 11//1 12//1 13//1
f 11//1 13//1 14//1
f 14//1 13//1 15//1
f 14//1 15//1 16//1
f 16//1 15//1 17//1
f 16//1 17//1 18//1
f 18//1 17//1 19//1
f 19//1 17//1 20//1
f 19//1 20//1 21//1
f 19//1 21//1 22//1
f 22//1 21//1 23//1
f 22//1 23//1 24//1
f 24//1 23//1 25//1
f 24//1 25//1 26//1
f 26//1 25//1 27//1
f 26//1 27//1 28//1
f 28//1 27//1 29//1
f 28//1 29//1 30//1
f 31//2 32//2 33//2
f 32//2 34//2 33//2
f 33//2 34//2 35//2
f 34//2 36//2 35//2
f 35//2 36//2 37//2
f 36//2 38//2 37//2
f 37//2 38//2 39//2
f 38//2 40//2 39//2
f 39//2 40//2 41//2
f 40//2 42//2 41//2
f 42//2 43//2 41//2
f 41//2 43//2 44//2
f 44//2 43//2 45//2
f 43//2 46//2 45//2
f 45//2 46//2 47//2
f 46//2 48//2 47//2
f 47//2 48//2 49//2
f 48//2 50//2 49//2
f 50//2 51//2 49//2
f 49//2 51//2 52//2
f 52//2 51//2 53//2
f 51//2 54//2 53//2
f 53//2 54//2 55//2
f 54//2 56//2 55//2
f 55//2 56//2 57//2
f 56//2 58//2 57//2
f 57//2 58//2 59//2
f 60//2 59//2 58//2
f 61//3 62//4 63//4
f 62//4 61//3 64//3
f 65//5 66//5 67//6
f 68//6 67//6 66//5
f 63//4 69//7 70//7
f 69//7 63//4 62//4
f 67//6 68//6 71//8
f 72//8 71//8 68//6
f 70//7 73//9 74//9
f 73//9 70//7 69//7
f 71//8 72//8 75//10
f 76//10 75//10 72//8
f 74//9 77//11 78//11
f 77//11 74//9 73//9
f 75//10 76//10 79//12
f 80//12 79//12 76//10
f 78//11 81//13 82//13
f 81//13 78//11 77//11
f 79//12 80//12 83//14
f 84//14 83//14 80//12
f 82//13 85//15 86//15
f 85//15 82//13 81//13
f 83//14 84//14 87//16
f 88//16 87//16 84//14
f 85//15 89//17 86//15
f 89//17 85//15 90//17
f 91//18 87//16 92//18
f 88//16 92//18 87//16
f 90//17 93//19 89//17
f 93//19 90//17 94//19
f 95//20 91//18 96//20
f 92//18 96//20 91//18
f 94//19 97//21 93//19
f 97//21 94//19 98//21
f 99//22 95//20 100//22
f 96//20 100//22 95//20
f 98//21 101//23 97//21
f 101//23 98//21 102//23
f 103//24 99//22 104//24
f 100//22 104//24 99//22
f 102//23 105//25 101//23
f 105//25 102//23 106//25
f 107//26 103//24 108//26
f 104//24 108//26 103//24
f 106//25 109//27 105//25
f 109//27 106//25 110//27
f 111//28 107//26 112//28
f 108//26 112//28 107//26
f 110//27 113//29 109//27
f 113//29 110//27 114//29
f 115//30 111//28 116//30
f 112//28 116//30 111//28
f 114//29 117//31 113//29
f 117//31 114//29 118//31
f 119//32 115//30 120//32
f 116//30 120//32 115//30
f 121//5 117//31 118//31
f 117//31 121//5 122//5
f 123//3 124//3 120//32
f 119//32 120//32 124//3
f 125//6 122//5 121//5
f 122//5 125//6 126//6
f 127//4 128//4 123//3
f 124//3 123//3 128//4
f 129//8 126//6 125//6
f 126//6 129//8 130//8
f 131//7 132//7 127//4
f 128//4 127//4 132//7
f 133//10 130//8 129//8
f 130//8 133//10 134//10
f 135//9 136//9 131//7
f 132//7 131//7 136//9
f 137//12 134//10 133//10
f 134//10 137//12 138//12
f 139//11 140//11 135//9
f 136//9 135//9 140//11
f 141//14 138//12 137//12
f 138//12 141//14 142//14
f 143//13 144//13 139//11
f 140//11 139//11 144//13
f 145//16 142//14 141//14
f 142//14 145//16 146//16
f 147//15 148//15 143//13
f 144//13 143//13 148//15
f 145//16 149//18 146//16
f 149//18 145//16 150//18
f 151//17 148//15 152//17
f 147//15 152//17 148//15
f 150//18 153//20 149//18
f 153//20 150//18 154//20
f 155//19 151//17 156//19
f 152//17 156//19 151//17
f 154//20 157//22 153//20
f 157//22 154//20 158//22
f 159//21 155//19 160//21
f 156//19 160//21 155//19
f 158//22 161//24 157//22
f 161//24 158//22 162//24
f 163//23 159//21 164//23
f 160//21 164//23 159//21
f 162//24 165//26 161//24
f 165//26 162//24 166//26
f 167//25 163//23 168//25
f 164//23 168//25 163//23
f 166//26 169//28 165//26
f 169//28 166//26 170//28
f 171//27 167//25 172//27
f 168//25 172//27 167//25
f 170//28 173//30 169//28
f 173//30 170//28 174//30
f 175//29 171//27 176//29
f 172//27 176//29 171//27
f 174//30 177//32 173//30
f 177//32 174//30 178//32
f 179//31 175//29 180//31
f 176//29 180//31 175//29
f 177//32 64//3 61//3
f 64//3 177//32 178//32
f 179//31 180//31 65//5
f 66//5 65//5 180//31
