# SSTK version 0.8.0
# 13
mtllib original_13.mtl
o #ID71
v 0.01361198 0.92929243 0.04948279
v 0.01310405 0.93257721 0.04955299
v 0.01354564 0.93513643 0.04953013
v 0.01184223 0.92684729 0.04953900
v 0.01208457 0.93011251 0.04942048
v 0.01057717 0.92791426 0.04944536
v 0.00985115 0.92473517 0.04931846
v 0.00890636 0.92597256 0.04932644
v 0.00735564 0.92324133 0.04929886
v 0.00675153 0.92459213 0.04953091
v 0.00455324 0.92215281 0.04937251
v 0.00399256 0.92356575 0.04953887
v 0.00150495 0.92177543 0.04925070
v 0.00143561 0.92324076 0.04939074
v -0.00131249 0.92186023 0.04946546
v -0.00109938 0.92332497 0.04942616
v -0.00353085 0.92415767 0.04929106
v -0.00413188 0.92246700 0.04934748
v -0.00601361 0.92535042 0.04925414
v -0.00693423 0.92397901 0.04930976
v -0.00801887 0.92705553 0.04929575
v -0.00911746 0.92592495 0.04938191
v -0.00971447 0.92907412 0.04946057
v -0.01097168 0.92824504 0.04937323
v -0.01069860 0.93149476 0.04925517
v -0.01154774 0.93407412 0.04932618
v -0.01228873 0.93094829 0.04948883
v -0.01159520 0.93660708 0.04916702
v -0.01157357 0.94260992 0.04938710
v -0.01266044 0.93972055 0.04922802
v -0.01309314 0.93386086 0.04919205
v -0.01308516 0.93689014 0.04926470
v 0.01469884 0.93204520 0.04950203
v 0.01512234 0.93802624 0.04957636
v 0.01525260 0.93506591 0.04951585
v 0.01421790 0.94101836 0.04961555
v 0.01344556 0.93765120 0.04936940
v 0.01311058 0.94344368 0.04951861
v 0.01274790 0.94034347 0.04960371
v 0.01116828 0.94584090 0.04937445
v 0.01159021 0.94262551 0.04943706
v 0.00992370 0.94468898 0.04933253
v 0.00866713 0.94775776 0.04935335
v 0.00792215 0.94644446 0.04931238
v 0.00609241 0.94912350 0.04953610
v 0.00557180 0.94756979 0.04934833
v 0.00320090 0.95002922 0.04936218
v 0.00299355 0.94833587 0.04941942
v 0.00054486 0.95008785 0.04925022
v 0.00038457 0.94844839 0.04931655
v -0.00227269 0.94799185 0.04920233
v -0.00256894 0.94957391 0.04938896
v -0.00461458 0.94716103 0.04944984
v -0.00529142 0.94854862 0.04931822
v -0.00695595 0.94572712 0.04947826
v -0.00799838 0.94695265 0.04933137
v -0.00870033 0.94404077 0.04934792
v -0.01007529 0.94482837 0.04928083
v -0.01020905 0.94174241 0.04930132
v -0.01132776 0.93926294 0.04925717
v -0.01163399 0.93671079 0.04918148
v -0.01113927 0.93907571 0.04930536
v -0.01171589 0.94256243 0.04922033
v -0.01020949 0.94165456 0.04933842
v -0.01003915 0.94495455 0.04929862
v -0.00884759 0.94385610 0.04930315
v -0.00788007 0.94693532 0.04924446
v -0.00688344 0.94570930 0.04927335
v -0.00532356 0.94864413 0.04921607
v -0.00457235 0.94716730 0.04937372
v -0.00259452 0.94966174 0.04947892
v -0.00217166 0.94801021 0.04927230
v 0.00034965 0.95000945 0.04934629
v 0.00049954 0.94846688 0.04923507
v 0.00306073 0.94828454 0.04939201
v 0.00332843 0.94989842 0.04952692
v 0.00555490 0.94766971 0.04927993
v 0.00629831 0.94899253 0.04930707
v 0.00787574 0.94640339 0.04955839
v 0.00889577 0.94774612 0.04929635
v 0.00987832 0.94483727 0.04946410
v 0.01101727 0.94580581 0.04947943
v 0.01161123 0.94260004 0.04959424
v 0.01288360 0.94028034 0.04936310
v 0.01296465 0.94361658 0.04956152
v 0.01330666 0.93773256 0.04954944
v 0.01438458 0.94084422 0.04943204
v 0.01370519 0.93506339 0.04932588
v 0.01355690 0.92935047 0.04954838
v 0.01466270 0.93201026 0.04937190
v 0.01502930 0.93798096 0.04939663
v 0.01523131 0.93503131 0.04938073
v -0.01320387 0.93667528 0.04923701
v -0.01323291 0.93376693 0.04936532
v -0.01274058 0.93973768 0.04942232
v -0.01232137 0.93077217 0.04937528
v -0.01146445 0.93402915 0.04941727
v -0.01085456 0.92817846 0.04938591
v -0.01075987 0.93128949 0.04931687
v -0.00969288 0.92922948 0.04933249
v -0.00918455 0.92594739 0.04936319
v -0.00798280 0.92715353 0.04940488
v -0.00697850 0.92408275 0.04933340
v -0.00607650 0.92537840 0.04936156
v -0.00423321 0.92260190 0.04929205
v -0.00372475 0.92411724 0.04930364
v -0.00143103 0.92195980 0.04928380
v -0.00111857 0.92342531 0.04928913
v 0.00154841 0.92312037 0.04944034
v 0.00156801 0.92159878 0.04951952
v 0.00408894 0.92369935 0.04954960
v 0.00459203 0.92211885 0.04939290
v 0.00655865 0.92458882 0.04945377
v 0.00729608 0.92304531 0.04954628
v 0.00866474 0.92607613 0.04948266
v 0.00984060 0.92476166 0.04938774
v 0.01064376 0.92792179 0.04931465
v 0.01201227 0.92689662 0.04944996
v 0.01215053 0.93012894 0.04948080
v 0.01325535 0.93257970 0.04948822
vn 0.005235994897330066 0 -0.9999862920847641
vn -0.005235994897330066 0 0.9999862920847641
usemtl material_0_0
f 1//1 2//1 3//1
f 2//1 1//1 4//1
f 2//1 4//1 5//1
f 5//1 4//1 6//1
f 6//1 4//1 7//1
f 6//1 7//1 8//1
f 8//1 7//1 9//1
f 8//1 9//1 10//1
f 10//1 9//1 11//1
f 10//1 11//1 12//1
f 12//1 11//1 13//1
f 12//1 13//1 14//1
f 14//1 13//1 15//1
f 14//1 15//1 16//1
f 16//1 15//1 17//1
f 17//1 15//1 18//1
f 17//1 18//1 19//1
f 19//1 18//1 20//1
f 19//1 20//1 21//1
f 21//1 20//1 22//1
f 21//1 22//1 23//1
f 23//1 22//1 24//1
f 23//1 24//1 25//1
f 25//1 24//1 26//1
f 26//1 24//1 27//1
f 26//1 27//1 28//1
f 28//1 27//1 29//1
f 29//1 27//1 30//1
f 30//1 27//1 31//1
f 30//1 31//1 32//1
f 33//1 34//1 35//1
f 34//1 33//1 36//1
f 36//1 33//1 1//1
f 36//1 1//1 3//1
f 36//1 3//1 37//1
f 36//1 37//1 38//1
f 38//1 37//1 39//1
f 38//1 39//1 40//1
f 40//1 39//1 41//1
f 40//1 41//1 42//1
f 40//1 42//1 43//1
f 43//1 42//1 44//1
f 43//1 44//1 45//1
f 45//1 44//1 46//1
f 45//1 46//1 47//1
f 47//1 46//1 48//1
f 47//1 48//1 49//1
f 49//1 48//1 50//1
f 49//1 50//1 51//1
f 49//1 51//1 52//1
f 52//1 51//1 53//1
f 52//1 53//1 54//1
f 54//1 53//1 55//1
f 54//1 55//1 56//1
f 56//1 55//1 57//1
f 56//1 57//1 58//1
f 58//1 57//1 59//1
f 58//1 59//1 29//1
f 29//1 59//1 60//1
f 29//1 60//1 28//1
f 61//2 62//2 63//2
f 62//2 64//2 63//2
f 63//2 64//2 65//2
f 64//2 66//2 65//2
f 65//2 66//2 67//2
f 66//2 68//2 67//2
f 67//2 68//2 69//2
f 68//2 70//2 69//2
f 69//2 70//2 71//2
f 70//2 72//2 71//2
f 71//2 72//2 73//2
f 72//2 74//2 73//2
f 74//2 75//2 73//2
f 73//2 75//2 76//2
f 75//2 77//2 76//2
f 76//2 77//2 78//2
f 77//2 79//2 78//2
f 78//2 79//2 80//2
f 79//2 81//2 80//2
f 80//2 81//2 82//2
f 81//2 83//2 82//2
f 83//2 84//2 82//2
f 82//2 84//2 85//2
f 84//2 86//2 85//2
f 85//2 86//2 87//2
f 86//2 88//2 87//2
f 88//2 89//2 87//2
f 89//2 90//2 87//2
f 87//2 90//2 91//2
f 92//2 91//2 90//2
f 93//2 94//2 95//2
f 94//2 96//2 95//2
f 95//2 96//2 63//2
f 63//2 96//2 61//2
f 61//2 96//2 97//2
f 96//2 98//2 97//2
f 97//2 98//2 99//2
f 99//2 98//2 100//2
f 98//2 101//2 100//2
f 100//2 101//2 102//2
f 101//2 103//2 102//2
f 102//2 103//2 104//2
f 103//2 105//2 104//2
f 104//2 105//2 106//2
f 105//2 107//2 106//2
f 106//2 107//2 108//2
f 108//2 107//2 109//2
f 107//2 110//2 109//2
f 109//2 110//2 111//2
f 110//2 112//2 111//2
f 111//2 112//2 113//2
f 112//2 114//2 113//2
f 113//2 114//2 115//2
f 114//2 116//2 115//2
f 115//2 116//2 117//2
f 116//2 118//2 117//2
f 117//2 118//2 119//2
f 119//2 118//2 120//2
f 118//2 89//2 120//2
f 88//2 120//2 89//2
