# SSTK version 0.8.0
# 51
mtllib original-51.mtl
o Group43/mesh48/mesh48-geometry#mesh48-geometry
v 0.18758871 0.58015323 0.13965232
v 0.18435691 0.35971245 0.17057388
v 0.16512913 0.58007046 0.22307443
v 0.18531563 0.35978757 0.10701423
v 0.16526061 0.35967538 0.22297777
v 0.17378796 0.58017083 0.06648291
v 0.14119709 0.58016071 0.25662496
v 0.16205849 0.35963067 0.04331782
v 0.13077724 0.35981430 0.26707316
v 0.12953917 0.58008834 0.00356132
v 0.08519067 0.58015860 0.29826686
v 0.11666273 0.35969708 -0.00729781
v 0.07751120 0.35970773 0.30162681
v 0.06739197 0.58023926 -0.03374678
v 0.01109074 0.46989426 0.31564364
v 0.06011282 0.35977362 -0.03609417
v 0.01105319 0.41484692 0.31548103
v 0.01116742 0.52497809 0.31556105
v 0.00493111 0.47002912 -0.04388387
v 0.01100815 0.35979699 0.31561883
v 0.01101245 0.58019551 0.31562161
v 0.00476007 0.52507580 -0.04383024
v 0.00487829 0.41492176 -0.04384787
v 0.00476286 0.58008731 -0.04383453
v 0.00473423 0.35970827 -0.04393423
vn -0.9994922102266797 -0.009001995772312716 -0.03056608853455484
vn -0.977972178720148 -0.003066999021242654 -0.20871274797283143
vn -0.9165997772948185 -0.007378998265297506 -0.39973791244725565
vn 0.9165997772948185 0.007378998265297506 0.39973791244725565
vn 0.977972178720148 0.003066999021242654 0.20871274797283143
vn 0.9994922102266797 0.009001995772312716 0.03056608853455484
vn -0.984858692702953 0.0030889992055620945 0.17333151326674126
vn 0.984858692702953 -0.0030889992055620945 -0.17333151326674126
vn -0.85524908435191 0.002593999395824954 -0.5182106472105277
vn 0.85524908435191 -0.002593999395824954 0.5182106472105277
vn -0.9273371964116083 -0.006898000056687599 0.37416325547369844
vn 0.9273371964116083 0.006898000056687599 -0.37416325547369844
vn -0.7398053382854963 -0.0008790003952068775 -0.6728203986225354
vn 0.7398053382854963 0.0008790003952068775 0.6728203986225354
vn -0.8445287026346168 0.0026849996936015134 0.5355035585343352
vn 0.8445287026346168 -0.0026849996936015134 -0.5355035585343352
vn -0.6497746149413212 0.0010679993624442819 -0.7601261797591367
vn 0.6497746149413212 -0.0010679993624442819 0.7601261797591367
vn -0.7031356129824762 -0.006003997599418801 0.7110304225337926
vn 0.7031356129824762 0.006003997599418801 -0.7110304225337926
vn -0.36960975017403896 -0.0024539997414298356 -0.9291838410462987
vn 0.36960975017403896 0.0024539997414298356 0.9291838410462987
vn -0.578494260868888 0.00148199955339023 0.8156851070229753
vn 0.578494260868888 -0.00148199955339023 -0.8156851070229753
vn -0.2971712466467215 -0.0004390000122068199 -0.9548240976459603
vn 0.2971712466467215 0.0004390000122068199 0.9548240976459603
vn -0.2916840750941413 -0.002476000625078393 0.956511510520067
vn 0.2916840750941413 0.002476000625078393 -0.956511510520067
vn -0.21758627220624976 -0.0025059990384913894 -0.9760378753492136
vn 0.21758627220624976 0.0025059990384913894 0.9760378753492136
vn -0.22245670653569416 -0.00008499997132002946 0.9749425657403091
vn 0.22245670653569416 0.00008499997132002946 -0.9749425657403091
vn -0.2060910579011036 0 -0.9785328179745452
vn 0.2060910579011036 0 0.9785328179745452
vn -0.22862887111133903 0 -0.973513656449849
vn 0.22862887111133903 0 0.973513656449849
vn -0.14894800885554713 -0.0018980001930812324 0.9888432071128541
vn 0.14894800885554713 0.0018980001930812324 -0.9888432071128541
vn -0.15916333464218188 0 0.9872522640670828
vn 0.15916333464218188 0 -0.9872522640670828
vn -0.138279333574753 0 0.990393268306142
vn 0.138279333574753 0 -0.990393268306142
usemtl material_0_0
f 1//1 2//2 3//3
f 3//4 2//5 1//6
f 4//7 2//2 1//1
f 1//6 2//5 4//8
f 2//2 5//9 3//3
f 3//4 5//10 2//5
f 6//11 4//7 1//1
f 1//6 4//8 6//12
f 5//9 7//13 3//3
f 3//4 7//14 5//10
f 8//15 4//7 6//11
f 6//12 4//8 8//16
f 5//9 9//17 7//13
f 7//14 9//18 5//10
f 10//19 8//15 6//11
f 6//12 8//16 10//20
f 7//13 9//17 11//21
f 11//22 9//18 7//14
f 12//23 8//15 10//19
f 10//20 8//16 12//24
f 11//21 9//17 13//25
f 13//26 9//18 11//22
f 14//27 12//23 10//19
f 10//20 12//24 14//28
f 11//21 13//25 15//29
f 15//30 13//26 11//22
f 14//27 16//31 12//23
f 12//24 16//32 14//28
f 15//29 13//25 17//33
f 17//34 13//26 15//30
f 11//21 15//29 18//35
f 18//36 15//30 11//22
f 14//27 19//37 16//31
f 16//32 19//38 14//28
f 17//33 13//25 20//33
f 20//34 13//26 17//34
f 11//21 18//35 21//35
f 21//36 18//36 11//22
f 14//27 22//39 19//37
f 19//38 22//40 14//28
f 19//37 23//41 16//31
f 16//32 23//42 19//38
f 24//39 22//39 14//27
f 14//28 22//40 24//40
f 23//41 25//41 16//31
f 16//32 25//42 23//42
