# SSTK version 0.8.0
# 79
mtllib original-79.mtl
o Group63/mesh74/mesh74-geometry#mesh74-geometry
v 0.05310145 0.68974167 0.10773169
v 0.05822188 0.60497892 0.11862692
v 0.05832738 0.68977003 0.11863581
v 0.05057471 0.60493323 0.10400225
v 0.06074756 0.68978208 0.13062089
v 0.03879910 0.68972025 0.09266053
v 0.06105776 0.60509024 0.13499587
v 0.03676697 0.60509116 0.09134447
v 0.06048010 0.68980865 0.14410262
v 0.01822277 0.64745328 0.08376259
v 0.05804316 0.60500013 0.15357246
v 0.01823610 0.66858770 0.08370087
v 0.01814160 0.62612794 0.08372192
v 0.05252629 0.68985780 0.16472198
v 0.01827931 0.68982005 0.08366299
v 0.01821130 0.60496959 0.08382979
v 0.04790781 0.60501447 0.17077616
v 0.03641301 0.68984805 0.18064346
v 0.03220334 0.60510334 0.18318254
v 0.01648069 0.68982965 0.18829388
v 0.01428871 0.60502192 0.18863172
v -0.00233917 0.64734629 0.18801791
v -0.00227111 0.62628239 0.18800848
v -0.00235903 0.66866319 0.18799571
v -0.00229612 0.60496963 0.18804703
v -0.00232613 0.68984512 0.18807459
vn -0.8467031934926644 -0.0006760000414301188 0.5320650760511044
vn -0.9463073420398768 0.0029899993209339974 0.3232545039214221
vn -0.9463116609886447 0 0.3232556887000015
vn 0.9463116609886447 0 -0.3232556887000015
vn 0.9463073420398768 -0.0029899993209339974 -0.3232545039214221
vn 0.8467031934926644 0.0006760000414301188 -0.5320650760511044
vn -0.7734496347951407 0.0008210001765477665 0.6338572302924166
vn 0.7734496347951407 -0.0008210001765477665 -0.6338572302924166
vn -0.9928397747315846 0.0004920001468517851 0.1194526669722874
vn 0.9928397747315846 -0.0004920001468517851 -0.1194526669722874
vn -0.5274256755071612 -0.0018859996330312804 0.8495990818151811
vn 0.5274256755071612 0.0018859996330312804 -0.8495990818151811
vn -0.9999782770088953 0.003796999793150843 -0.005387792023807758
vn 0.9999782770088953 -0.003796999793150843 0.005387792023807758
vn -0.4606315796633183 -0.0003370000201923115 0.8875913667042186
vn 0.4606315796633183 0.0003370000201923115 -0.8875913667042186
vn -0.9830285211677509 -0.00270700126295317 -0.18343281798769523
vn 0.9830285211677509 0.00270700126295317 0.18343281798769523
vn -0.3860242189353407 -0.00192600017855715 0.9224866356314722
vn 0.3860242189353407 0.00192600017855715 -0.9224866356314722
vn -0.9389613563474336 0.0023740011914246914 -0.34401444069185677
vn 0.9389613563474336 -0.0023740011914246914 0.34401444069185677
vn -0.39644987934520004 0 0.91805636709691
vn 0.39644987934520004 0 -0.91805636709691
vn -0.3751481369300273 0 0.9269648727745456
vn 0.3751481369300273 0 -0.9269648727745456
vn -0.8469872092748515 -0.005301998351850446 -0.5315868284093161
vn 0.8469872092748515 0.005301998351850446 0.5315868284093161
vn -0.7370608158343405 0.0020639994748481226 -0.6758232710315503
vn 0.7370608158343405 -0.0020639994748481226 0.6758232710315503
vn -0.5669780261546569 -0.004614998134200841 -0.8237199886186996
vn 0.5669780261546569 0.004614998134200841 0.8237199886186996
vn -0.4258535383176469 0.0011389996988931074 -0.9047913939588651
vn 0.4258535383176469 -0.0011389996988931074 0.9047913939588651
vn -0.11872997418683431 -0.0019029993360307677 -0.9929247563753867
vn 0.11872997418683431 0.0019029993360307677 0.9929247563753867
vn -0.047339047798418125 -0.00006499999498780675 -0.9988788767055493
vn 0.047339047798418125 0.00006499999498780675 0.9988788767055493
vn 0.027470376929366724 -0.0014589998274554868 -0.9996215532444577
vn -0.027470376929366724 0.0014589998274554868 0.9996215532444577
vn 0.038244173701240766 0 -0.9992684239872234
vn -0.038244173701240766 0 0.9992684239872234
vn 0.017133761507478907 0 -0.9998532063341122
vn -0.017133761507478907 0 0.9998532063341122
usemtl material_0_0
f 1//1 2//2 3//3
f 3//4 2//5 1//6
f 4//7 2//2 1//1
f 1//6 2//5 4//8
f 2//2 5//9 3//3
f 3//4 5//10 2//5
f 6//11 4//7 1//1
f 1//6 4//8 6//12
f 2//2 7//13 5//9
f 5//10 7//14 2//5
f 6//11 8//15 4//7
f 4//8 8//16 6//12
f 5//9 7//13 9//17
f 9//18 7//14 5//10
f 6//11 10//19 8//15
f 8//16 10//20 6//12
f 7//13 11//21 9//17
f 9//18 11//22 7//14
f 6//11 12//23 10//19
f 10//20 12//24 6//12
f 10//19 13//25 8//15
f 8//16 13//26 10//20
f 9//17 11//21 14//27
f 14//28 11//22 9//18
f 15//23 12//23 6//11
f 6//12 12//24 15//24
f 13//25 16//25 8//15
f 8//16 16//26 13//26
f 11//21 17//29 14//27
f 14//28 17//30 11//22
f 14//27 17//29 18//31
f 18//32 17//30 14//28
f 18//31 17//29 19//33
f 19//34 17//30 18//32
f 18//31 19//33 20//35
f 20//36 19//34 18//32
f 20//35 19//33 21//37
f 21//38 19//34 20//36
f 20//35 21//37 22//39
f 22//40 21//38 20//36
f 22//39 21//37 23//41
f 23//42 21//38 22//40
f 20//35 22//39 24//43
f 24//44 22//40 20//36
f 23//41 21//37 25//41
f 25//42 21//38 23//42
f 20//35 24//43 26//43
f 26//44 24//44 20//36
