# SSTK version 0.8.0
# 117
mtllib original-117.mtl
o mesh109/mesh109-geometry#mesh109-geometry
v 0.00307795 0.92313478 0.16030685
v -0.00364871 0.92251105 0.15893932
v 0.00326152 0.91426300 0.16021211
v -0.01027637 0.92049875 0.15767349
v 0.01002784 0.92258438 0.16159227
v -0.01629170 0.91714908 0.15633749
v 0.01664282 0.92057186 0.16288702
v -0.01985702 0.91408592 0.15574160
v 0.02253677 0.91724415 0.16405934
v -0.00259858 0.91359122 0.15910030
v 0.02614977 0.91428193 0.16484480
v -0.00813231 0.91156860 0.15791999
v 0.00905903 0.91356106 0.16128807
v -0.01316708 0.90842003 0.15703512
v 0.01456029 0.91163922 0.16252587
v -0.02152800 0.91287196 0.15533981
v 0.01937709 0.90843339 0.16338783
v -0.01715158 0.90408719 0.15624271
v 0.02797122 0.91283543 0.16498234
v -0.02590009 0.90734631 0.15440857
v 0.02363832 0.90423807 0.16413339
v -0.02024675 0.89923616 0.15549567
v 0.03217081 0.90745499 0.16596438
v -0.02910120 0.90127120 0.15378591
v 0.02666126 0.89917633 0.16474508
v -0.02221987 0.89345261 0.15520211
v 0.03548956 0.90119460 0.16660164
v -0.03112699 0.89463280 0.15353111
v 0.02862280 0.89358559 0.16525158
v -0.02285477 0.88760770 0.15511371
v 0.03742973 0.89454933 0.16689653
v -0.03166935 0.88757776 0.15338932
v 0.02916324 0.88767542 0.16541186
v -0.03112179 0.88070543 0.15352607
v 0.03802309 0.88764354 0.16702384
v -0.02219564 0.88178810 0.15518073
v 0.03740051 0.88070647 0.16701671
v -0.02918705 0.87405207 0.15392790
v 0.02854659 0.88179987 0.16512112
v -0.02032792 0.87602984 0.15562191
v 0.03542553 0.87406979 0.16657721
v -0.02596989 0.86791375 0.15451781
v 0.02662221 0.87612019 0.16490012
v -0.01717914 0.87100861 0.15615393
v 0.03230155 0.86791459 0.16602110
v -0.02147797 0.86243238 0.15538190
v 0.02359259 0.87100125 0.16422335
v -0.01303806 0.86694066 0.15697956
v 0.02788202 0.86237271 0.16505049
v -0.01996495 0.86108996 0.15574525
v 0.01949672 0.86694654 0.16347331
v -0.00809762 0.86364658 0.15789027
v 0.02624164 0.86112464 0.16466783
v -0.00271596 0.86163524 0.15901687
v 0.01457379 0.86377120 0.16246776
v 0.00320787 0.86105221 0.16029496
v 0.00892979 0.86166731 0.16126792
v -0.01626131 0.85810481 0.15635608
v -0.01019022 0.85467628 0.15765732
v 0.02264697 0.85798804 0.16412626
v -0.00373061 0.85266611 0.15890692
v 0.01655385 0.85470545 0.16291994
v 0.00320806 0.85200777 0.16019607
v 0.00999074 0.85277974 0.16152580
vn -0.19320795807172167 0 0.9811578287603662
vn 0.19320795807172167 0 -0.9811578287603662
usemtl material_0_0
f 1//1 2//1 3//1
f 3//2 2//2 1//2
f 2//1 4//1 3//1
f 3//2 4//2 2//2
f 1//1 3//1 5//1
f 5//2 3//2 1//2
f 4//1 6//1 3//1
f 3//2 6//2 4//2
f 5//1 3//1 7//1
f 7//2 3//2 5//2
f 6//1 8//1 3//1
f 3//2 8//2 6//2
f 7//1 3//1 9//1
f 9//2 3//2 7//2
f 8//1 10//1 3//1
f 3//2 10//2 8//2
f 9//1 3//1 11//1
f 11//2 3//2 9//2
f 8//1 12//1 10//1
f 10//2 12//2 8//2
f 3//1 13//1 11//1
f 11//2 13//2 3//2
f 8//1 14//1 12//1
f 12//2 14//2 8//2
f 11//1 13//1 15//1
f 15//2 13//2 11//2
f 8//1 16//1 14//1
f 14//2 16//2 8//2
f 11//1 15//1 17//1
f 17//2 15//2 11//2
f 16//1 18//1 14//1
f 14//2 18//2 16//2
f 11//1 17//1 19//1
f 19//2 17//2 11//2
f 16//1 20//1 18//1
f 18//2 20//2 16//2
f 19//1 17//1 21//1
f 21//2 17//2 19//2
f 20//1 22//1 18//1
f 18//2 22//2 20//2
f 19//1 21//1 23//1
f 23//2 21//2 19//2
f 20//1 24//1 22//1
f 22//2 24//2 20//2
f 23//1 21//1 25//1
f 25//2 21//2 23//2
f 24//1 26//1 22//1
f 22//2 26//2 24//2
f 23//1 25//1 27//1
f 27//2 25//2 23//2
f 24//1 28//1 26//1
f 26//2 28//2 24//2
f 27//1 25//1 29//1
f 29//2 25//2 27//2
f 28//1 30//1 26//1
f 26//2 30//2 28//2
f 27//1 29//1 31//1
f 31//2 29//2 27//2
f 28//1 32//1 30//1
f 30//2 32//2 28//2
f 31//1 29//1 33//1
f 33//2 29//2 31//2
f 32//1 34//1 30//1
f 30//2 34//2 32//2
f 31//1 33//1 35//1
f 35//2 33//2 31//2
f 30//1 34//1 36//1
f 36//2 34//2 30//2
f 33//1 37//1 35//1
f 35//2 37//2 33//2
f 36//1 34//1 38//1
f 38//2 34//2 36//2
f 33//1 39//1 37//1
f 37//2 39//2 33//2
f 36//1 38//1 40//1
f 40//2 38//2 36//2
f 39//1 41//1 37//1
f 37//2 41//2 39//2
f 40//1 38//1 42//1
f 42//2 38//2 40//2
f 39//1 43//1 41//1
f 41//2 43//2 39//2
f 40//1 42//1 44//1
f 44//2 42//2 40//2
f 43//1 45//1 41//1
f 41//2 45//2 43//2
f 44//1 42//1 46//1
f 46//2 42//2 44//2
f 43//1 47//1 45//1
f 45//2 47//2 43//2
f 44//1 46//1 48//1
f 48//2 46//2 44//2
f 47//1 49//1 45//1
f 45//2 49//2 47//2
f 48//1 46//1 50//1
f 50//2 46//2 48//2
f 47//1 51//1 49//1
f 49//2 51//2 47//2
f 48//1 50//1 52//1
f 52//2 50//2 48//2
f 51//1 53//1 49//1
f 49//2 53//2 51//2
f 52//1 50//1 54//1
f 54//2 50//2 52//2
f 51//1 55//1 53//1
f 53//2 55//2 51//2
f 54//1 50//1 56//1
f 56//2 50//2 54//2
f 55//1 57//1 53//1
f 53//2 57//2 55//2
f 50//1 58//1 56//1
f 56//2 58//2 50//2
f 57//1 56//1 53//1
f 53//2 56//2 57//2
f 56//1 58//1 59//1
f 59//2 58//2 56//2
f 56//1 60//1 53//1
f 53//2 60//2 56//2
f 56//1 59//1 61//1
f 61//2 59//2 56//2
f 56//1 62//1 60//1
f 60//2 62//2 56//2
f 56//1 61//1 63//1
f 63//2 61//2 56//2
f 56//1 64//1 62//1
f 62//2 64//2 56//2
f 56//1 63//1 64//1
f 64//2 63//2 56//2
