# SSTK version 0.8.0
# 108
mtllib original-108.mtl
o mesh101/mesh101-geometry#mesh101-geometry
v -0.03584914 0.90831481 0.35866262
v -0.03634747 0.90831768 0.35842160
v -0.03858365 0.90622788 0.37109513
v -0.03347920 0.91004964 0.34604266
v -0.03394673 0.91017356 0.34580953
v -0.03117002 0.91164189 0.33322681
vn -0.03896148303208608 0.9892942519574496 0.14063742703807927
vn -0.038415541511205825 0.9898231897916863 0.13701933849282924
vn -0.041247350594569715 0.9876234165534731 0.1513229762599646
vn 0.041247350594569715 -0.9876234165534731 -0.1513229762599646
vn 0.038415541511205825 -0.9898231897916863 -0.13701933849282924
vn 0.03896148303208608 -0.9892942519574496 -0.14063742703807927
vn -0.035508859423501425 0.9918143701942868 0.12265144099663898
vn 0.035508859423501425 -0.9918143701942868 -0.12265144099663898
vn -0.03492736422512963 0.9922789367506544 0.11900668430502676
vn 0.03492736422512963 -0.9922789367506544 -0.11900668430502676
vn -0.032527241256466555 0.9935946773589952 0.10822012613242438
vn 0.032527241256466555 -0.9935946773589952 -0.10822012613242438
usemtl material_0_0
f 1//1 2//2 3//3
f 3//4 2//5 1//6
f 4//7 2//2 1//1
f 1//6 2//5 4//8
f 4//7 5//9 2//2
f 2//5 5//10 4//8
f 6//11 5//9 4//7
f 4//8 5//10 6//12
