# SSTK version 0.8.0
# 75
mtllib original-75.mtl
o mesh70/mesh70-geometry#mesh70-geometry
v 0.16512833 0.60269294 0.13307242
v 0.16141992 0.60283715 0.10215046
v 0.06399757 0.60269095 0.13494907
v 0.15193978 0.60282073 0.07285919
v 0.16241885 0.60273091 0.16432052
v 0.13773876 0.60273114 0.04722713
v 0.15410285 0.60274229 0.19371885
v 0.11995571 0.60281511 0.02550836
v 0.14062853 0.60281884 0.22001918
v 0.10005233 0.60272030 0.00851004
v 0.12364390 0.60283267 0.24220010
v 0.07965188 0.60268271 -0.00400469
v 0.10437483 0.60279984 0.25989358
v 0.06131003 0.60272014 -0.01187211
v 0.08459914 0.60283549 0.27305172
v 0.06093987 0.60281518 0.11760694
v 0.06652107 0.60272348 0.28147543
v 0.05260207 0.60266802 0.10214076
v 0.06143310 0.60281032 0.15221112
v 0.04001259 0.60274822 0.08997797
v 0.05382895 0.60276002 0.16792262
v 0.02438663 0.60267960 0.08232693
v 0.04163052 0.60268226 0.18058040
v 0.05950762 0.60271970 -0.01261197
v 0.02618830 0.60265648 0.18886463
v 0.04007093 0.60271093 -0.01801106
v 0.06457153 0.60278767 0.28231430
v 0.02185657 0.60279130 -0.02063763
v 0.04547002 0.60282227 0.28843010
v 0.00696888 0.60278037 0.08001248
v 0.02734751 0.60272068 0.29179072
v 0.00525084 0.60284921 -0.02127097
v 0.00896012 0.60280533 0.19173431
v -0.01140845 0.60273070 -0.02003584
v 0.01061856 0.60279958 0.29289274
v -0.01031051 0.60269510 0.08306272
v -0.00590746 0.60281881 0.29247027
v -0.02943193 0.60268817 -0.01681171
v -0.00839476 0.60265690 0.18947924
v -0.04876502 0.60267884 -0.01063405
v -0.02423892 0.60268801 0.28965735
v -0.05055253 0.60268503 -0.00976973
v -0.04362866 0.60283310 0.28432204
v -0.02560900 0.60283521 0.09127322
v -0.04543578 0.60271046 0.28350144
v -0.03785572 0.60276599 0.10381727
v -0.02417821 0.60268823 0.18176404
v -0.04545762 0.60283487 0.11958966
v -0.03670950 0.60278867 0.16955790
v -0.04805544 0.60282692 0.13684552
v -0.04487710 0.60268222 0.15402753
v -0.06851865 0.60270605 -0.00141079
v -0.08843996 0.60278270 0.01182782
v -0.06374224 0.60266541 0.27566161
v -0.10777453 0.60272023 0.02948062
v -0.08411280 0.60283494 0.26329189
v -0.12463998 0.60284707 0.05168520
v -0.10391645 0.60273438 0.24605191
v -0.13809876 0.60277339 0.07810381
v -0.12171656 0.60269242 0.22450481
v -0.14658615 0.60284363 0.10742443
v -0.13596332 0.60278801 0.19882170
v -0.14908377 0.60281301 0.13855544
v -0.14550544 0.60282884 0.16959790
vn 0 1 0
vn 0 -1 0
usemtl material_0_0
f 1//1 2//1 3//1
f 3//2 2//2 1//2
f 2//1 4//1 3//1
f 3//2 4//2 2//2
f 1//1 3//1 5//1
f 5//2 3//2 1//2
f 4//1 6//1 3//1
f 3//2 6//2 4//2
f 5//1 3//1 7//1
f 7//2 3//2 5//2
f 6//1 8//1 3//1
f 3//2 8//2 6//2
f 7//1 3//1 9//1
f 9//2 3//2 7//2
f 8//1 10//1 3//1
f 3//2 10//2 8//2
f 9//1 3//1 11//1
f 11//2 3//2 9//2
f 10//1 12//1 3//1
f 3//2 12//2 10//2
f 11//1 3//1 13//1
f 13//2 3//2 11//2
f 12//1 14//1 3//1
f 3//2 14//2 12//2
f 13//1 3//1 15//1
f 15//2 3//2 13//2
f 14//1 16//1 3//1
f 3//2 16//2 14//2
f 15//1 3//1 17//1
f 17//2 3//2 15//2
f 14//1 18//1 16//1
f 16//2 18//2 14//2
f 3//1 19//1 17//1
f 17//2 19//2 3//2
f 14//1 20//1 18//1
f 18//2 20//2 14//2
f 17//1 19//1 21//1
f 21//2 19//2 17//2
f 14//1 22//1 20//1
f 20//2 22//2 14//2
f 17//1 21//1 23//1
f 23//2 21//2 17//2
f 14//1 24//1 22//1
f 22//2 24//2 14//2
f 17//1 23//1 25//1
f 25//2 23//2 17//2
f 24//1 26//1 22//1
f 22//2 26//2 24//2
f 17//1 25//1 27//1
f 27//2 25//2 17//2
f 26//1 28//1 22//1
f 22//2 28//2 26//2
f 27//1 25//1 29//1
f 29//2 25//2 27//2
f 22//1 28//1 30//1
f 30//2 28//2 22//2
f 29//1 25//1 31//1
f 31//2 25//2 29//2
f 28//1 32//1 30//1
f 30//2 32//2 28//2
f 25//1 33//1 31//1
f 31//2 33//2 25//2
f 32//1 34//1 30//1
f 30//2 34//2 32//2
f 31//1 33//1 35//1
f 35//2 33//2 31//2
f 30//1 34//1 36//1
f 36//2 34//2 30//2
f 33//1 37//1 35//1
f 35//2 37//2 33//2
f 34//1 38//1 36//1
f 36//2 38//2 34//2
f 33//1 39//1 37//1
f 37//2 39//2 33//2
f 36//1 38//1 40//1
f 40//2 38//2 36//2
f 37//1 39//1 41//1
f 41//2 39//2 37//2
f 36//1 40//1 42//1
f 42//2 40//2 36//2
f 39//1 43//1 41//1
f 41//2 43//2 39//2
f 36//1 42//1 44//1
f 44//2 42//2 36//2
f 39//1 45//1 43//1
f 43//2 45//2 39//2
f 44//1 42//1 46//1
f 46//2 42//2 44//2
f 39//1 47//1 45//1
f 45//2 47//2 39//2
f 46//1 42//1 48//1
f 48//2 42//2 46//2
f 47//1 49//1 45//1
f 45//2 49//2 47//2
f 48//1 42//1 50//1
f 50//2 42//2 48//2
f 49//1 51//1 45//1
f 45//2 51//2 49//2
f 42//1 52//1 50//1
f 50//2 52//2 42//2
f 51//1 50//1 45//1
f 45//2 50//2 51//2
f 50//1 52//1 53//1
f 53//2 52//2 50//2
f 50//1 54//1 45//1
f 45//2 54//2 50//2
f 50//1 53//1 55//1
f 55//2 53//2 50//2
f 50//1 56//1 54//1
f 54//2 56//2 50//2
f 50//1 55//1 57//1
f 57//2 55//2 50//2
f 50//1 58//1 56//1
f 56//2 58//2 50//2
f 50//1 57//1 59//1
f 59//2 57//2 50//2
f 50//1 60//1 58//1
f 58//2 60//2 50//2
f 50//1 59//1 61//1
f 61//2 59//2 50//2
f 50//1 62//1 60//1
f 60//2 62//2 50//2
f 50//1 61//1 63//1
f 63//2 61//2 50//2
f 50//1 64//1 62//1
f 62//2 64//2 50//2
f 50//1 63//1 64//1
f 64//2 63//2 50//2
