# SSTK version 0.8.0
# 27
mtllib original-27.mtl
o Group21/mesh25/mesh25-geometry#mesh25-geometry
v -0.16173391 0.30570956 0.49320879
v -0.20047316 0.21438580 0.47212971
v -0.20047316 0.30588110 0.47212068
v -0.01954393 0.21426691 0.53054196
v -0.27165672 0.30582150 0.41588070
v -0.01959418 0.30571792 0.53053438
v -0.29364517 0.21430609 0.39190034
v 0.11056076 0.21427352 0.51790885
v -0.35709788 0.30574186 0.28808071
v 0.14292942 0.30580292 0.50776368
v -0.36391288 0.21436450 0.27112858
v 0.23380023 0.21435475 0.46073323
v -0.38750721 0.26007812 0.12352440
v 0.28600825 0.30577988 0.41732288
v -0.38750117 0.28299265 0.12343241
v -0.38741932 0.23713200 0.12348376
v 0.32888038 0.21426869 0.36723357
v -0.38749526 0.30573401 0.12359495
v -0.38757486 0.21433894 0.12344097
v 0.37460137 0.30577754 0.28474401
v 0.38463681 0.21437442 0.25661644
v 0.40348280 0.26005637 0.14820816
v 0.40338870 0.23726108 0.14829228
v 0.40339101 0.28286130 0.14829607
v 0.40346443 0.21432721 0.14831395
v 0.40342871 0.30581104 0.14830379
vn 0.3482876894693996 0.02991899831439319 -0.9369101018261733
vn 0.5211799662307686 0.03293601184746398 -0.8528110352963773
vn 0.5517395961424489 0 -0.8340164375170116
vn -0.5517395961424489 0 0.8340164375170116
vn -0.5211799662307686 -0.03293601184746398 0.8528110352963773
vn -0.3482876894693996 -0.02991899831439319 0.9369101018261733
vn 0.15721464051693035 0.030250997268727896 -0.9871010252103782
vn -0.15721464051693035 -0.030250997268727896 0.9871010252103782
vn 0.7079991314303754 -0.004650000995305231 -0.7061979944637182
vn -0.7079991314303754 0.004650000995305231 0.7061979944637182
vn 0.006430681775031714 -0.02073599595046819 -0.9997643046257705
vn -0.006430681775031714 0.02073599595046819 0.9997643046257705
vn 0.7908631668978294 0.005678000040728023 -0.6119666752037022
vn -0.7908631668978294 -0.005678000040728023 0.6119666752037022
vn -0.22127537479028275 -0.004482001494739218 -0.9752010665365483
vn 0.22127537479028275 0.004482001494739218 0.9752010665365483
vn 0.9460301280515739 -0.012997006089475831 -0.32381796530061885
vn -0.9460301280515739 0.012997006089475831 0.32381796530061885
vn -0.3702645241925217 -0.036827987166296164 -0.9281960361290953
vn 0.3702645241925217 0.036827987166296164 0.9281960361290953
vn 0.968167348587726 -0.0023240002560073435 -0.2502929966088198
vn -0.968167348587726 0.0023240002560073435 0.2502929966088198
vn -0.5577818201527075 0.004837998505271195 -0.8299735145639261
vn 0.5577818201527075 -0.004837998505271195 0.8299735145639261
vn 0.9853943629040098 -0.013278002242329529 -0.16976938538338773
vn -0.9853943629040098 0.013278002242329529 0.16976938538338773
vn -0.6986212809311241 -0.040438987430574225 -0.7143479503195521
vn 0.6986212809311241 0.040438987430574225 0.7143479503195521
vn 0.9834947144081863 0 -0.18093685840966786
vn -0.9834947144081863 0 0.18093685840966786
vn 0.9874100033447711 0 -0.158181810884435
vn -0.9874100033447711 0 0.158181810884435
vn -0.8158753691278322 0.0050100001223715 -0.5782060895124655
vn 0.8158753691278322 -0.0050100001223715 0.5782060895124655
vn -0.9450531062793075 -0.01979000311675766 -0.32631730277211846
vn 0.9450531062793075 0.01979000311675766 0.32631730277211846
vn -0.9689480401091332 -0.002994001309244236 -0.24724629729245723
vn 0.9689480401091332 0.002994001309244236 0.24724629729245723
vn -0.9817824143570772 -0.016913998969125706 -0.18925434604801175
vn 0.9817824143570772 0.016913998969125706 0.18925434604801175
vn -0.9854490065367538 0 -0.1699713373358138
vn 0.9854490065367538 0 0.1699713373358138
vn -0.9783275435479092 0 -0.20706331769657726
vn 0.9783275435479092 0 0.20706331769657726
usemtl material_0_0
f 1//1 2//2 3//3
f 3//4 2//5 1//6
f 1//1 4//7 2//2
f 2//5 4//8 1//6
f 3//3 2//2 5//9
f 5//10 2//5 3//4
f 6//11 4//7 1//1
f 1//6 4//8 6//12
f 5//9 2//2 7//13
f 7//14 2//5 5//10
f 6//11 8//15 4//7
f 4//8 8//16 6//12
f 9//17 5//9 7//13
f 7//14 5//10 9//18
f 10//19 8//15 6//11
f 6//12 8//16 10//20
f 11//21 9//17 7//13
f 7//14 9//18 11//22
f 10//19 12//23 8//15
f 8//16 12//24 10//20
f 13//25 9//17 11//21
f 11//22 9//18 13//26
f 14//27 12//23 10//19
f 10//20 12//24 14//28
f 15//29 9//17 13//25
f 13//26 9//18 15//30
f 13//25 11//21 16//31
f 16//32 11//22 13//26
f 14//27 17//33 12//23
f 12//24 17//34 14//28
f 18//29 9//17 15//29
f 15//30 9//18 18//30
f 16//31 11//21 19//31
f 19//32 11//22 16//32
f 20//35 17//33 14//27
f 14//28 17//34 20//36
f 21//37 17//33 20//35
f 20//36 17//34 21//38
f 22//39 21//37 20//35
f 20//36 21//38 22//40
f 23//41 21//37 22//39
f 22//40 21//38 23//42
f 22//39 20//35 24//43
f 24//44 20//36 22//40
f 25//41 21//37 23//41
f 23//42 21//38 25//42
f 24//43 20//35 26//43
f 26//44 20//36 24//44
