# SSTK version 0.8.0
# 81
mtllib original-81.mtl
o Group65/mesh76/mesh76-geometry#mesh76-geometry
v 0.04070251 0.69537384 0.08701493
v 0.01941029 0.69541095 0.07820510
v 0.01891007 0.69512669 0.08021169
v 0.03956674 0.69509202 0.08869203
v 0.01855430 0.69386277 0.08218317
v 0.06084064 0.69554241 0.11040876
v 0.03837695 0.69382974 0.09025786
v 0.05905145 0.69499889 0.11128546
v 0.01840399 0.69185410 0.08330808
v 0.06567946 0.69554568 0.14732119
v 0.03777886 0.69178165 0.09141469
v 0.05739121 0.69381056 0.11207579
v 0.06367021 0.69496709 0.14678933
v 0.01822250 0.68988787 0.08365496
v 0.04735138 0.69550303 0.17963446
v 0.03745348 0.68984438 0.09161369
v 0.05622207 0.69192041 0.11260058
v 0.06168317 0.69374852 0.14637316
v 0.04583939 0.69513173 0.17808435
v 0.01972538 0.69554922 0.19346428
v 0.05576969 0.68980011 0.11278013
v 0.06046826 0.69188106 0.14625689
v 0.04457487 0.69387401 0.17664737
v 0.01919486 0.69496270 0.19137097
v -0.00334431 0.69551381 0.19349590
v 0.06019080 0.68980019 0.14621055
v 0.04380423 0.69180036 0.17558477
v 0.01883534 0.69383142 0.18958757
v -0.00299976 0.69509241 0.19153224
v 0.04349387 0.68989186 0.17528874
v 0.01858845 0.69187902 0.18829534
v -0.00257812 0.69370830 0.18971790
v 0.01847362 0.68978856 0.18785523
v -0.00230061 0.69182019 0.18848623
v -0.00223061 0.68988756 0.18809617
vn -0.09750018824671598 0.9822592237532743 0.16018904657769192
vn -0.07291627338910256 0.9816012586470578 0.1764714880584328
vn -0.1215850372373839 0.9479603342186422 0.29425887151972846
vn 0.1215850372373839 -0.9479603342186422 -0.29425887151972846
vn 0.07291627338910256 -0.9816012586470578 -0.1764714880584328
vn 0.09750018824671598 -0.9822592237532743 -0.16018904657769192
vn -0.20748427767580618 0.9271079347830583 0.3121236161837829
vn 0.20748427767580618 -0.9271079347830583 -0.3121236161837829
vn -0.25337344600052963 0.7481796679661672 0.6132121014003656
vn 0.25337344600052963 -0.7481796679661672 -0.6132121014003656
vn -0.1630158257869227 0.9822038768016843 0.09328121428642135
vn 0.1630158257869227 -0.9822038768016843 -0.09328121428642135
vn -0.4039802374265352 0.7076425178995929 0.5796913270263104
vn 0.4039802374265352 -0.7076425178995929 -0.5796913270263104
vn -0.3340860413181081 0.927253854832857 0.1690763309691882
vn 0.3340860413181081 -0.927253854832857 -0.1690763309691882
vn -0.3448777277631307 0.4294081652088121 0.834666388771551
vn 0.3448777277631307 -0.4294081652088121 -0.834666388771551
vn -0.1878169230472264 0.9820774374105135 -0.01577055313777026
vn 0.1878169230472264 -0.9820774374105135 0.01577055313777026
vn -0.5369174510110218 0.37551608640400863 0.7554517321785978
vn 0.5369174510110218 -0.37551608640400863 -0.7554517321785978
vn -0.6387251362506997 0.7081650466981753 0.3008861361985564
vn 0.6387251362506997 -0.7081650466981753 -0.3008861361985564
vn -0.3708370725813256 0.9272151416882203 -0.05245899945106114
vn 0.3708370725813256 -0.9272151416882203 0.05245899945106114
vn -0.3753672957419364 0.18385096503835266 0.9084592538698981
vn 0.3753672957419364 -0.18385096503835266 -0.9084592538698981
vn -0.14357965475750561 0.9819933567371383 -0.12277593438391238
vn 0.14357965475750561 -0.9819933567371383 0.12277593438391238
vn -0.6346273409854847 0.1862119543346897 0.750048829168174
vn 0.6346273409854847 -0.1862119543346897 -0.750048829168174
vn -0.8428630927780466 0.3759501380412092 0.3850237662007656
vn 0.8428630927780466 -0.3759501380412092 -0.3850237662007656
vn -0.6951822602065673 0.7085510424372489 -0.12114885618600227
vn 0.6951822602065673 -0.7085510424372489 0.12114885618600227
vn -0.2721417697477554 0.9269496308196726 -0.2582697022142401
vn 0.2721417697477554 -0.9269496308196726 0.2582697022142401
vn -0.05840882931081173 0.9820619550898166 -0.17928392293707568
vn 0.05840882931081173 -0.9820619550898166 0.17928392293707568
vn -0.9324875721046321 0.18587692733895758 0.3097042068707435
vn 0.9324875721046321 -0.18587692733895758 -0.3097042068707435
vn -0.9103434025042016 0.3766381419991974 -0.17151851068752264
vn 0.9103434025042016 -0.3766381419991974 0.17151851068752264
vn -0.49743607484845626 0.7081810449347966 -0.501035885974668
vn 0.49743607484845626 -0.7081810449347966 0.501035885974668
vn -0.10182748759328727 0.9268191583113841 -0.3614379760863773
vn 0.10182748759328727 -0.9268191583113841 0.3614379760863773
vn -0.0005664697914775818 0.9816013023131248 -0.19094125381685548
vn 0.0005664697914775818 -0.9816013023131248 0.19094125381685548
vn -0.9371292908157794 0.18625899872058677 -0.2951207849181729
vn 0.9371292908157794 -0.18625899872058677 0.2951207849181729
vn -0.6438950614480947 0.37668217711581264 -0.6659652297875962
vn 0.6438950614480947 -0.37668217711581264 0.6659652297875962
vn -0.17585494415723352 0.7076520213735678 -0.684327155139528
vn 0.17585494415723352 -0.7076520213735678 0.684327155139528
vn -0.0013116065179474645 0.8968038491396692 -0.44242641857897225
vn 0.0013116065179474645 -0.8968038491396692 0.44242641857897225
vn -0.6023929582773382 0.186886974228568 -0.776012875332341
vn 0.6023929582773382 -0.186886974228568 0.776012875332341
vn -0.22126298177379816 0.37621687313611735 -0.8997241562080295
vn 0.22126298177379816 -0.37621687313611735 0.8997241562080295
vn -0.002253091561471272 0.6499247938741093 -0.7599951880677354
vn 0.002253091561471272 -0.6499247938741093 0.7599951880677354
vn -0.15293013066095737 0.18718994138072984 -0.9703464850154822
vn 0.15293013066095737 -0.18718994138072984 0.9703464850154822
vn -0.0028203165951049595 0.3081809679747596 -0.9513235710274626
vn 0.0028203165951049595 -0.3081809679747596 0.9513235710274626
vn -0.0029142839694646506 0.183850992233858 -0.9829498052309543
vn 0.0029142839694646506 -0.183850992233858 0.9829498052309543
usemtl material_0_0
f 1//1 2//2 3//3
f 3//4 2//5 1//6
f 1//1 3//3 4//7
f 4//8 3//4 1//6
f 4//7 3//3 5//9
f 5//10 3//4 4//8
f 6//11 1//1 4//7
f 4//8 1//6 6//12
f 4//7 5//9 7//13
f 7//14 5//10 4//8
f 6//11 4//7 8//15
f 8//16 4//8 6//12
f 5//9 9//17 7//13
f 7//14 9//18 5//10
f 8//15 4//7 7//13
f 7//14 4//8 8//16
f 10//19 6//11 8//15
f 8//16 6//12 10//20
f 7//13 9//17 11//21
f 11//22 9//18 7//14
f 8//15 7//13 12//23
f 12//24 7//14 8//16
f 10//19 8//15 13//25
f 13//26 8//16 10//20
f 9//17 14//27 11//21
f 11//22 14//28 9//18
f 7//13 11//21 12//23
f 12//24 11//22 7//14
f 13//25 8//15 12//23
f 12//24 8//16 13//26
f 10//19 13//25 15//29
f 15//30 13//26 10//20
f 11//21 14//27 16//31
f 16//32 14//28 11//22
f 11//21 17//33 12//23
f 12//24 17//34 11//22
f 13//25 12//23 18//35
f 18//36 12//24 13//26
f 13//25 19//37 15//29
f 15//30 19//38 13//26
f 11//21 16//31 17//33
f 17//34 16//32 11//22
f 12//23 17//33 18//35
f 18//36 17//34 12//24
f 13//25 18//35 19//37
f 19//38 18//36 13//26
f 15//29 19//37 20//39
f 20//40 19//38 15//30
f 16//31 21//41 17//33
f 17//34 21//42 16//32
f 17//33 22//43 18//35
f 18//36 22//44 17//34
f 18//35 23//45 19//37
f 19//38 23//46 18//36
f 19//37 24//47 20//39
f 20//40 24//48 19//38
f 17//33 21//41 22//43
f 22//44 21//42 17//34
f 22//43 23//45 18//35
f 18//36 23//46 22//44
f 19//37 23//45 24//47
f 24//48 23//46 19//38
f 20//39 24//47 25//49
f 25//50 24//48 20//40
f 21//41 26//51 22//43
f 22//44 26//52 21//42
f 22//43 27//53 23//45
f 23//46 27//54 22//44
f 23//45 28//55 24//47
f 24//48 28//56 23//46
f 24//47 29//57 25//49
f 25//50 29//58 24//48
f 26//51 27//53 22//43
f 22//44 27//54 26//52
f 23//45 27//53 28//55
f 28//56 27//54 23//46
f 24//47 28//55 29//57
f 29//58 28//56 24//48
f 26//51 30//59 27//53
f 27//54 30//60 26//52
f 28//55 27//53 31//61
f 31//62 27//54 28//56
f 28//55 32//63 29//57
f 29//58 32//64 28//56
f 27//53 30//59 31//61
f 31//62 30//60 27//54
f 28//55 31//61 32//63
f 32//64 31//62 28//56
f 31//61 30//59 33//65
f 33//66 30//60 31//62
f 32//63 31//61 34//67
f 34//68 31//62 32//64
f 31//61 33//65 34//67
f 34//68 33//66 31//62
f 34//67 33//65 35//69
f 35//70 33//66 34//68
