# SSTK version 0.8.0
# 95
mtllib original-95.mtl
o mesh89/mesh89-geometry#mesh89-geometry
v -0.03196087 0.54853601 0.10922490
v -0.03913338 0.54859027 0.12649679
v -0.04000033 0.54858411 0.13586659
v -0.03639173 0.54859326 0.11756301
v -0.03912439 0.54853171 0.14524156
v -0.03645275 0.54855807 0.15430099
v -0.02609497 0.54852645 0.10192535
v -0.01883826 0.54849168 0.09604107
v -0.01042083 0.54857687 0.09148984
v -0.00150440 0.54854090 0.08873650
v -0.03185419 0.54859888 0.16259029
v -0.02596450 0.54848725 0.16988273
v -0.01856022 0.54854561 0.17577776
v 0.00781811 0.54856884 0.08783992
v 0.01734428 0.54856855 0.08870470
v -0.01033682 0.54848899 0.18020874
v -0.00129266 0.54856113 0.18303769
v 0.02636052 0.54845228 0.09149893
v 0.00804911 0.54844094 0.18397336
v 0.01743332 0.54853511 0.18303930
v 0.03467140 0.54850406 0.09593364
v 0.04182796 0.54855266 0.10186265
v 0.04783036 0.54843966 0.10911686
v 0.05231458 0.54847630 0.11738155
v 0.02649072 0.54840775 0.18024629
v 0.03468302 0.54847136 0.17584840
v 0.04199067 0.54841617 0.16980585
v 0.05509689 0.54842018 0.12636333
v 0.05595450 0.54843107 0.13578121
v 0.05517953 0.54849187 0.14515018
v 0.05236401 0.54848237 0.15424805
v 0.04805973 0.54856842 0.16248155
vn 0 1 0
vn 0 -1 0
usemtl material_0_0
f 1//1 2//1 3//1
f 3//2 2//2 1//2
f 1//1 4//1 2//1
f 2//2 4//2 1//2
f 1//1 3//1 5//1
f 5//2 3//2 1//2
f 1//1 5//1 6//1
f 6//2 5//2 1//2
f 7//1 1//1 6//1
f 6//2 1//2 7//2
f 8//1 7//1 6//1
f 6//2 7//2 8//2
f 9//1 8//1 6//1
f 6//2 8//2 9//2
f 10//1 9//1 6//1
f 6//2 9//2 10//2
f 10//1 6//1 11//1
f 11//2 6//2 10//2
f 10//1 11//1 12//1
f 12//2 11//2 10//2
f 10//1 12//1 13//1
f 13//2 12//2 10//2
f 14//1 10//1 13//1
f 13//2 10//2 14//2
f 15//1 14//1 13//1
f 13//2 14//2 15//2
f 15//1 13//1 16//1
f 16//2 13//2 15//2
f 15//1 16//1 17//1
f 17//2 16//2 15//2
f 18//1 15//1 17//1
f 17//2 15//2 18//2
f 18//1 17//1 19//1
f 19//2 17//2 18//2
f 18//1 19//1 20//1
f 20//2 19//2 18//2
f 21//1 18//1 20//1
f 20//2 18//2 21//2
f 22//1 21//1 20//1
f 20//2 21//2 22//2
f 23//1 22//1 20//1
f 20//2 22//2 23//2
f 24//1 23//1 20//1
f 20//2 23//2 24//2
f 24//1 20//1 25//1
f 25//2 20//2 24//2
f 24//1 25//1 26//1
f 26//2 25//2 24//2
f 24//1 26//1 27//1
f 27//2 26//2 24//2
f 28//1 24//1 27//1
f 27//2 24//2 28//2
f 29//1 28//1 27//1
f 27//2 28//2 29//2
f 29//1 27//1 30//1
f 30//2 27//2 29//2
f 30//1 27//1 31//1
f 31//2 27//2 30//2
f 31//1 27//1 32//1
f 32//2 27//2 31//2
