# SSTK version 0.8.0
# 5
mtllib original_5.mtl
o #ID40
v 0.03777140 -0.25635623 -0.00982695
v 0.02593415 -0.11671074 -0.03805295
v 0.03785145 -0.11668450 -0.00972772
v 0.02609047 -0.25633190 -0.03808151
v 0.03770359 -0.25658541 -0.00994648
v -0.03049063 -0.25635220 -0.03801296
v 0.02601069 -0.25625449 -0.03815408
v -0.00230349 -0.11654250 -0.04977038
v -0.00201936 -0.25629607 -0.04973857
v 0.04021613 -0.10674500 -0.05202782
v 0.03785299 -0.11669636 -0.00977938
v 0.02611475 -0.11667814 -0.03792178
v 0.05759469 -0.10670441 -0.00986038
v 0.02596773 -0.11656383 0.01857696
v 0.02595663 -0.25648206 0.01851672
v -0.04217177 -0.25644471 -0.00983293
v -0.00225655 -0.25644416 -0.04968144
v -0.03038537 -0.11672853 -0.03795556
v -0.03030442 -0.25638861 -0.03799144
v -0.00226890 -0.11667249 -0.04957108
v -0.00220283 -0.10654658 -0.06978935
v 0.05770124 -0.10675309 -0.00979350
v 0.04019569 -0.00672103 -0.05206123
v 0.05755440 -0.00694089 -0.00980693
v 0.04016368 -0.10669444 -0.05209968
v 0.04014008 -0.10682019 0.03261490
v 0.02612719 -0.11671138 0.01840979
v 0.02589674 -0.25641138 0.01844605
v -0.00204081 -0.25651852 0.03008150
v -0.00220589 -0.11663967 0.03024887
v -0.04212732 -0.11666366 -0.00975168
v -0.04203845 -0.25641042 -0.00965297
v -0.03025162 -0.11673313 -0.03798769
v -0.04458763 -0.10679159 -0.05201731
v -0.00216185 -0.00688637 -0.06975827
v -0.00225938 -0.10659610 -0.06972490
v 0.05084087 0.00323635 -0.06273194
v 0.05779638 -0.00682981 -0.00975152
v 0.04016033 -0.00691177 -0.05222338
v 0.07257242 0.00327228 -0.00981235
v 0.04027468 -0.00690106 0.03264642
v 0.04019791 -0.10665702 0.03256074
v -0.00221941 -0.10674208 0.04999680
v -0.00224382 -0.11669055 0.03016428
v -0.03052457 -0.25656207 0.01856808
v -0.00211581 -0.25644447 0.03033011
v -0.03052068 -0.25636907 0.01843765
v -0.03051544 -0.11655538 0.01838732
v -0.04214040 -0.11668746 -0.00978068
v -0.06206354 -0.10662695 -0.00995390
v -0.04445033 -0.00680554 -0.05213927
v -0.04452829 -0.10667887 -0.05195819
v -0.00222407 -0.00685498 -0.06963798
v -0.00222534 0.00314004 -0.08470911
v 0.07280655 0.00320887 -0.00972342
v 0.05078357 0.09693658 -0.06273213
v 0.07274327 0.09712628 -0.00978479
v 0.05084026 0.00318496 -0.06261151
v 0.05079394 0.00324982 0.04336139
v 0.04014566 -0.00671650 0.03255312
v -0.00214869 -0.10661776 0.05015185
v -0.00213465 -0.00662358 0.05014016
v -0.03032589 -0.11659220 0.01836438
v -0.04443534 -0.10659508 0.03275792
v -0.06219481 -0.00687795 -0.00986471
v -0.06213654 -0.10670420 -0.00974822
v -0.04446188 -0.00693299 -0.05220973
v -0.05504721 0.00326840 -0.06284627
v -0.00219111 0.09704674 -0.08473884
v -0.00235384 0.00321008 -0.08470544
v 0.05089929 0.00309217 0.04322492
v 0.05062868 0.09693489 0.04313561
v 0.07266899 0.19092462 -0.00991938
v 0.05075746 0.19095515 -0.06271863
v -0.00228196 0.00318958 0.06516794
v -0.00211971 -0.00685913 0.05019183
v -0.04455611 -0.10669921 0.03262736
v -0.04453973 -0.00679952 0.03269866
v -0.06222379 -0.00671885 -0.00983945
v -0.07713064 0.00318460 -0.00979435
v -0.05520285 0.09710209 -0.06279906
v -0.05513237 0.00301635 -0.06267065
v -0.00224690 0.19089821 -0.08484521
v -0.00217539 0.00299730 0.06501504
v -0.00236161 0.09690751 0.06499542
v 0.05074803 0.19084760 0.04303735
v 0.05073366 0.28483988 -0.06278416
v 0.07264137 0.28472186 -0.00962012
v -0.04458552 -0.00685062 0.03261349
v -0.05514191 0.00320009 0.04319182
v -0.07716924 0.09709858 -0.00990739
v -0.07711625 0.00319611 -0.00990552
v -0.05514765 0.19087966 -0.06272690
v -0.00215884 0.28470586 -0.08475727
v -0.05514006 0.00307308 0.04332594
v -0.05498009 0.09702063 0.04318116
v -0.00201292 0.19092054 0.06523375
v 0.05060699 0.28481572 0.04320493
v 0.07263754 0.37867348 -0.00984510
v 0.05076484 0.37859820 -0.06279080
v -0.07713373 0.19094123 -0.00984020
v -0.05510041 0.28465946 -0.06270879
v -0.00229160 0.37854883 -0.08471865
v -0.05520739 0.19087936 0.04319162
v -0.00212551 0.28474525 0.06515083
v 0.05090394 0.37861776 0.04316970
v 0.08434411 0.37874090 -0.09619448
v 0.07255397 0.37848248 -0.00988896
v 0.05080262 0.37859870 -0.06273272
v 0.12008646 0.37861422 -0.00978013
v -0.07713593 0.28457360 -0.00967968
v -0.05519962 0.37841285 -0.06255508
v 0.08440971 0.37847706 -0.09623512
v -0.00213019 0.37845868 -0.08464860
v -0.00216053 0.37858884 -0.13203737
v 0.05062145 0.37864652 -0.06278156
v -0.05532365 0.28475410 0.04317041
v -0.00229591 0.37851154 0.06504587
v 0.08429943 0.37858520 0.07669310
v 0.05068218 0.37863483 0.04315732
v 0.08422507 0.37852247 -0.09625229
v 0.12014244 0.39262898 -0.00978935
v 0.12023827 0.37860684 -0.00976567
v 0.08439924 0.39244171 -0.09626659
v -0.07708412 0.37856501 -0.00979621
v -0.00208931 0.37867393 -0.13201216
v -0.05509863 0.37874597 -0.06265806
v -0.08860535 0.37861407 -0.09614550
v -0.00220861 0.37849878 -0.08468686
v -0.00209364 0.37850020 -0.13218185
v -0.00216701 0.39256194 -0.13220040
v -0.05529341 0.37869784 0.04313599
v 0.05071904 0.37864064 0.04316037
v -0.00202857 0.37851356 0.11251941
v -0.00221142 0.37861274 0.06519358
v 0.08423246 0.37839196 0.07681757
v 0.08434377 0.39255434 0.07679763
v 0.08414613 0.37848820 0.07671424
v 0.08222963 0.39265737 -0.00981338
v 0.08430648 0.39255582 -0.09634370
v 0.05756283 0.39264107 -0.06948927
v 0.12008093 0.39257046 -0.00967232
v -0.08871204 0.37848935 -0.09619031
v -0.07707501 0.37853036 -0.00983457
v -0.12436401 0.37846690 -0.00977278
v -0.05513843 0.37856855 -0.06257658
v -0.08872741 0.39259433 -0.09625910
v -0.08870211 0.37874081 -0.09618850
v -0.00219211 0.39253389 -0.13207974
v -0.00225711 0.39259752 -0.09411891
v -0.05499234 0.37861002 0.04323068
v -0.00224164 0.37864091 0.11256128
v -0.08871057 0.37861848 0.07661024
v -0.00211700 0.37862078 0.06505380
v -0.00218664 0.39247238 0.11246618
v -0.00215857 0.37850922 0.11265369
v 0.08427989 0.39249607 0.07658365
v 0.05751856 0.39250392 0.04984056
v 0.05763413 0.39262992 -0.06943071
v 0.08217733 0.42257394 -0.00969412
v 0.08222937 0.39273122 -0.00969085
v 0.05746304 0.42256296 -0.06951425
v -0.08873725 0.37854500 0.07674190
v -0.05518788 0.37854590 0.04333509
v -0.12436680 0.37856936 -0.00981598
v -0.12445068 0.39253442 -0.00982735
v -0.06179022 0.39247047 -0.06930142
v -0.08868662 0.39252036 -0.09630363
v -0.00214539 0.42253286 -0.09410839
v -0.00218346 0.39269300 -0.09416857
v -0.08849413 0.37864466 0.07655965
v -0.08859474 0.39273535 0.07665878
v -0.00212538 0.39252403 0.07457016
v -0.00229858 0.39254461 0.11255655
v 0.05752873 0.42251409 0.04993169
v 0.05743395 0.39251435 0.04977166
v 0.08216763 0.42261394 -0.00973396
v 0.05750647 0.42263145 -0.06940140
v -0.00221075 0.42253791 0.07469786
v -0.08658229 0.39253961 -0.00986932
v -0.12456449 0.39263115 -0.00983277
v -0.06182455 0.42248330 -0.06955778
v -0.06197156 0.39250999 -0.06946600
v -0.00212486 0.42253302 -0.09401208
v -0.06178331 0.42261108 0.04981690
v -0.06182585 0.39262669 0.04973811
v -0.08859295 0.39260490 0.07674794
v -0.00214234 0.39249655 0.07447171
v -0.00203401 0.42248833 0.07463048
v 0.05746714 0.42253440 0.04995934
v -0.08672928 0.39260176 -0.00978498
v -0.08668829 0.42244241 -0.00977763
v -0.06171168 0.42249239 -0.06938979
v -0.08658550 0.42267719 -0.00962799
v -0.06175625 0.39258131 0.04986820
v -0.06175132 0.42253776 0.04990648
vn 1 0 -1.5240019999999825e-7
vn 0.7071065811865245 1.4108009781647638e-8 -0.7071069811865138
vn 1 0 -8.601807999999969e-8
vn 0 -1 0
vn -8.633893999996763e-7 -6.811956977792986e-8 -1
vn 0.3162276023734763 -0.894427306713209 -0.3162276023734765
vn 0.4472135954999576 -0.8944271909999152 -3.875492980863511e-8
vn 0.3162275023734724 -0.8944273067132001 -0.31622770237347414
vn 0.4472135954999577 -0.8944271909999154 -2.8155109915294745e-8
vn 0.7071088311836661 -1.4107990779174502e-8 0.7071047311834854
vn -0.7071073311863536 -1.1044360471400998e-7 -0.7071062311863051
vn -0.7071073811862727 -1.1044359690446163e-7 -0.7071061811863045
vn -9.604924903344813e-7 -0.8944268909993048 -0.44721419549964514
vn -6.652855933053333e-7 -0.8944268909995196 -0.4472141954997525
vn 1 1.9751209999999944e-8 -8.620383999999967e-8
vn 0.7071068311865453 8.718616400230547e-8 -0.7071067311865409
vn 1 1.9751189999999997e-8 6.7310910000000026e-9
vn 0.7071067811865449 8.718615783731311e-8 -0.7071067811865449
vn 0.3162282906576646 -0.8944271735759295 0.3162272906576939
vn 0.31622860065753255 -0.8944272018597781 0.31622690065752873
vn 0.000003058553999985694 0 1
vn -1 -2.821569999967466e-8 0.000004809961999944357
vn -1 -2.8215689999665604e-8 0.000004876343999942021
vn -0.3162300100679035 -0.8944260284760923 -0.3162288100678655
vn -0.3162286100677704 -0.8944260284758418 -0.3162302100678216
vn -0.0000016553009999977324 0 -1
vn 0.3922319067099466 -0.8320510142339715 -0.39223110670993305
vn 0.5546992962249102 -0.832050894337352 4.1398909533501055e-8
vn 0.3922313067099834 -0.8320510142340715 -0.39223170670999047
vn 0.5546992962249104 -0.8320508943373525 3.189750959816429e-8
vn 0.707107631186043 2.9626981290957765e-7 0.7071059311859681
vn 7.122378246852065e-7 -0.8944273309996502 0.44721331549981264
vn 0.0000012181110422174978 -0.8944273309992135 0.4472133154995943
vn -0.707103331177979 1.4108300465060739e-8 0.7071102311782833
vn -0.44721419549978575 -0.8944268909995866 5.412511943549103e-7
vn -0.44721419549984803 -0.8944268909997112 1.1973019859659638e-7
vn -0.7071058311858648 -8.718650368822332e-8 -0.7071077311859486
vn -0.7071058811859959 -8.718649752321474e-8 -0.7071076811859481
vn -8.566684416891394e-7 -0.832050740491137 -0.5546995269940446
vn -5.378058261720444e-7 -0.832050740491322 -0.5546995269941679
vn 1 0 1.414472e-8
vn 0.7071072311864218 8.224519378437029e-8 -0.707106331186382
vn 1 1.0505899999999955e-8 7.24001899999998e-8
vn 0.7071071311864733 9.275113424773409e-8 -0.7071064311864423
vn 0.39223219319185715 -0.8320508855577352 0.3922310931918761
vn 0.39223157780741835 -0.8320508529223105 0.3922317778074069
vn 0.0000012231449999990837 4.7685509777919664e-8 1
vn -2.6382049999999053e-7 4.7683409777953684e-8 1
vn -0.3162265072255386 -0.8944270204369869 0.3162295072256069
vn -0.3162272072260637 -0.8944270204384269 0.31622880722610003
vn -1 0 3.300554999999999e-8
vn -1 0 1.2594179999999901e-7
vn -0.39223111417584855 -0.8320506300716165 -0.3922327141759065
vn -0.39223191417612857 -0.8320506300721492 -0.39223191417612874
vn -9.788802999995307e-7 2.5363700222032444e-8 -1
vn -0.000001093998999999344 5.0727370222014185e-8 -1
vn 0.7071073811862739 -9.27511076892171e-8 0.7071061811863059
vn 0.7071072811863568 -4.6375558923118267e-8 0.7071062811863833
vn 1 0 1.414469e-8
vn 0.707107481186178 -1.1121449688393618e-7 -0.7071060811862153
vn -2.492697983036303e-7 -0.8320506943375988 0.5546995962250715
vn -4.1977979714322503e-7 -0.8320506943375514 0.5546995962250398
vn -0.7071050811845307 -2.2883329406794885e-7 0.7071084811844403
vn -0.7071051311845312 -2.288333102489453e-7 0.7071084311846767
vn -0.5546983962239427 -0.8320514943358875 4.6522399498550586e-8
vn -0.5546983962239431 -0.8320514943358881 2.920606961642989e-8
vn -0.7071061811863077 -5.688175832956035e-8 -0.7071073811862758
vn -0.7071062311863092 -2.10120807697103e-8 -0.7071073311863577
vn -6.738581999998471e-7 0 -1
vn -7.102703999998208e-7 0 1
vn -7.870161999997563e-7 0 1
vn 0.7071072811863562 -5.688154864359071e-8 0.7071062811863829
vn 0.707107881185655 -1.470840959294567e-7 -0.7071056811857135
vn 1 -2.101186999999971e-8 1.765893999999972e-7
vn -0.3922310141757782 -0.8320506300714752 0.3922328141758431
vn -0.3922318141761209 -0.8320506300721409 0.392232014176128
vn -1 0 0
vn -1 2.101212999999991e-8 8.122321999999971e-8
vn -0.7071059311859947 1.1121380506195081e-7 -0.7071076311860698
vn 0.0000012494519999990242 -2.5364579777935587e-8 -1
vn -0.707106131186217 9.27514539337018e-8 0.7071074311862744
vn -0.7071061811863077 5.688175832956035e-8 0.7071073811862758
vn -9.40507699999584e-7 0 1
vn 0.7071071811864207 -9.275117768923386e-8 0.707106381186442
vn 1 -2.1011839999999764e-8 1.5894509999999795e-7
vn 0.7071080811853179 0 -0.7071054811853872
vn -1 0 -6.357859999999986e-8
vn -0.7071055311853823 1.217199055252065e-7 -0.7071080311854925
vn 0.0000014009819999986235 -5.072737977790555e-8 -1
vn -0.7071062811863829 5.6881788329565834e-8 0.7071072811863562
vn -0.0000011323719999992737 -2.5363710222028337e-8 1
vn 0.7071070811864741 -7.17392682482904e-8 0.7071064811864901
vn -1 0 -1.2008489999999914e-7
vn -0.7071052811849946 -7.17394579341116e-8 -0.7071082811849148
vn -2.1417009999988158e-7 -1 -0.0000010295960002214753
vn -0.7071063311863838 4.637575188835772e-8 0.7071072311864235
vn -0.000001247490999999028 -5.072738022200507e-8 1
vn 0.7071079811854154 -4.816787870265803e-7 -0.7071055811854793
vn 1 1.410794999999979e-7 9.73133099999986e-8
vn 0.7071075811859917 -4.816789870269603e-7 -0.7071059811860343
vn -1 -2.101211999999988e-8 -9.536793999999955e-8
vn 2.1416979999988158e-7 -1 -0.0000010295960002214753
vn 9.517174999995137e-7 -3.405992997777814e-7 -1
vn 9.517171999995137e-7 -3.405992997777814e-7 -1
vn -0.7071063811864451 0 0.7071071811864238
vn 2.141695999998816e-7 -1 -0.0000010295960002214753
vn 0.7071074811858543 9.633507742109304e-7 0.7071060811858916
vn 0.7071067311862154 9.633518423306333e-7 0.7071068311862199
vn 0 1 0
vn -0.7071060311861167 0 -0.7071075311861829
vn -0.7071060811862198 0 -0.7071074811861825
vn -2.1417029999988157e-7 -1 -0.0000010295950002214753
vn -7.167818999996495e-7 6.811916997776223e-7 1
vn -7.167815999996496e-7 6.811916997776223e-7 1
vn 0.7071074811861825 0 -0.7071060811862198
vn 1 0 1.128608999999993e-7
vn -1 0 -3.8925549999999976e-8
vn 0.0000014478279999984826 0 -1
vn -0.7071065811865246 0 0.7071069811865139
vn -0.7071066811865431 0 0.7071068811865378
vn 0.7071064811864562 3.178915913850462e-7 0.7071070811864403
vn -0.7071064811864919 0 -0.7071070811864759
vn -0.0000010391219999989665 9.536741997770069e-7 1
vn -1 1.3167479999999866e-7 -5.6430399999999396e-8
vn -0.7071071811862155 7.674575794234817e-7 0.7071063811862368
vn -0.7071074811859741 7.674569794232445e-7 0.7071060811860114
usemtl material_0_0
f 1//1 2//2 3//3
f 2//2 1//1 4//2
f 5//4 6//4 7//4
f 8//5 4//2 9//5
f 4//2 8//5 2//2
f 10//6 11//7 12//8
f 11//7 10//6 13//9
f 1//1 14//10 15//10
f 14//10 1//1 3//3
f 5//4 16//4 6//4
f 7//4 6//4 17//4
f 18//11 9//5 19//12
f 9//5 18//11 8//5
f 10//6 20//13 21//14
f 20//13 10//6 12//8
f 22//15 23//16 24//17
f 23//16 22//15 25//18
f 11//7 26//19 27//20
f 26//19 11//7 13//9
f 5//4 28//4 16//4
f 14//10 29//21 15//10
f 29//21 14//10 30//21
f 31//22 19//12 32//23
f 19//12 31//22 18//11
f 21//14 33//24 34//25
f 33//24 21//14 20//13
f 35//26 25//18 36//26
f 25//18 35//26 23//16
f 37//27 38//28 39//29
f 38//28 37//27 40//30
f 22//15 41//31 42//31
f 41//31 22//15 24//17
f 27//20 43//32 44//33
f 43//32 27//20 26//19
f 28//4 45//4 16//4
f 28//4 46//4 45//4
f 30//21 47//34 29//21
f 47//34 30//21 48//34
f 31//22 47//34 48//34
f 47//34 31//22 32//23
f 34//25 49//35 50//36
f 49//35 34//25 33//24
f 51//37 36//26 52//38
f 36//26 51//37 35//26
f 37//27 53//39 54//40
f 53//39 37//27 39//29
f 55//41 56//42 57//43
f 56//42 55//41 58//44
f 38//28 59//45 60//46
f 59//45 38//28 40//30
f 41//31 61//47 42//31
f 61//47 41//31 62//48
f 63//49 43//32 64//50
f 43//32 63//49 44//33
f 49//35 64//50 50//36
f 64//50 49//35 63//49
f 65//51 52//38 66//52
f 52//38 65//51 51//37
f 54//40 67//53 68//54
f 67//53 54//40 53//39
f 69//55 58//44 70//56
f 58//44 69//55 56//42
f 71//57 57//43 72//58
f 57//43 71//57 55//41
f 56//42 73//59 57//43
f 73//59 56//42 74//60
f 60//46 75//61 76//62
f 75//61 60//46 59//45
f 62//48 77//63 61//47
f 77//63 62//48 78//64
f 78//64 66//52 77//63
f 66//52 78//64 65//51
f 68//54 79//65 80//66
f 79//65 68//54 67//53
f 81//67 70//56 82//68
f 70//56 81//67 69//55
f 83//69 56//42 69//55
f 56//42 83//69 74//60
f 72//58 84//70 71//57
f 84//70 72//58 85//71
f 57//43 86//72 72//58
f 86//72 57//43 73//59
f 73//59 87//73 88//74
f 87//73 73//59 74//60
f 89//75 75//61 90//76
f 75//61 89//75 76//62
f 79//65 90//76 80//66
f 90//76 79//65 89//75
f 91//77 82//68 92//78
f 82//68 91//77 81//67
f 93//79 69//55 81//67
f 69//55 93//79 83//69
f 94//80 74//60 83//69
f 74//60 94//80 87//73
f 85//71 95//81 84//70
f 95//81 85//71 96//82
f 86//72 85//71 72//58
f 85//71 86//72 97//83
f 86//72 88//74 98//84
f 88//74 86//72 73//59
f 87//73 99//85 88//74
f 99//85 87//73 100//86
f 96//82 92//78 95//81
f 92//78 96//82 91//77
f 101//87 81//67 91//77
f 81//67 101//87 93//79
f 102//88 83//69 93//79
f 83//69 102//88 94//80
f 103//89 87//73 94//80
f 87//73 103//89 100//86
f 97//83 96//82 85//71
f 96//82 97//83 104//90
f 98//84 97//83 86//72
f 97//83 98//84 105//91
f 98//84 99//85 106//92
f 99//85 98//84 88//74
f 107//4 108//4 109//4
f 108//4 107//4 110//4
f 101//87 96//82 104//90
f 96//82 101//87 91//77
f 111//93 93//79 101//87
f 93//79 111//93 102//88
f 112//94 94//80 102//88
f 94//80 112//94 103//89
f 113//95 114//95 115//95
f 114//95 113//95 116//95
f 105//91 104//90 97//83
f 104//90 105//91 117//96
f 106//92 105//91 98//84
f 105//91 106//92 118//97
f 108//4 119//4 120//4
f 119//4 108//4 110//4
f 121//98 122//99 123//99
f 122//99 121//98 124//100
f 117//96 101//87 104//90
f 101//87 117//96 111//93
f 112//94 111//93 125//101
f 111//93 112//94 102//88
f 126//102 127//102 128//102
f 127//102 126//102 129//102
f 130//103 124//100 121//98
f 124//100 130//103 131//104
f 118//97 117//96 105//91
f 117//96 118//97 132//105
f 133//106 134//106 135//106
f 134//106 133//106 136//106
f 123//99 137//107 138//108
f 137//107 123//99 122//99
f 139//109 140//109 141//109
f 140//109 139//109 142//109
f 125//101 117//96 132//105
f 117//96 125//101 111//93
f 143//4 144//4 145//4
f 144//4 143//4 146//4
f 147//110 130//103 148//111
f 130//103 147//110 131//104
f 141//109 149//109 150//109
f 149//109 141//109 140//109
f 151//112 152//112 153//112
f 152//112 151//112 154//112
f 138//108 155//113 156//114
f 155//113 138//108 137//107
f 157//109 139//109 158//109
f 139//109 157//109 142//109
f 159//115 160//116 161//116
f 160//116 159//115 162//115
f 144//4 163//4 145//4
f 163//4 144//4 164//4
f 147//110 165//117 166//117
f 165//117 147//110 148//111
f 167//109 149//109 168//109
f 149//109 167//109 150//109
f 169//118 159//115 170//118
f 159//115 169//118 162//115
f 155//113 171//119 156//114
f 171//119 155//113 172//120
f 157//109 173//109 174//109
f 173//109 157//109 158//109
f 161//116 175//121 176//121
f 175//121 161//116 160//116
f 177//109 178//109 179//109
f 166//117 171//119 172//120
f 171//119 166//117 165//117
f 180//109 168//109 181//109
f 168//109 180//109 167//109
f 182//122 170//118 183//122
f 170//118 182//122 169//118
f 178//109 184//109 185//109
f 174//109 186//109 187//109
f 186//109 174//109 173//109
f 175//121 188//123 176//121
f 188//123 175//121 189//123
f 177//109 179//109 190//109
f 178//109 185//109 179//109
f 187//109 180//109 181//109
f 180//109 187//109 186//109
f 182//122 191//124 192//124
f 191//124 182//122 183//122
f 184//109 193//109 194//109
f 184//109 194//109 185//109
f 189//123 195//125 188//123
f 195//125 189//123 196//126
f 196//126 191//124 195//125
f 191//124 196//126 192//124
