# SSTK version 0.8.0
# 1
mtllib original_1.mtl
o #ID5
v 0.26423418 0.43405720 -0.27598263
v 0.37434132 -0.67285889 -0.00991391
v 0.37447089 0.43400771 -0.00987615
v 0.26432668 -0.67263781 -0.27568623
v 0.26414886 -0.67278087 -0.27600005
v 0.26428647 0.43408435 -0.27590056
v 0.37441729 -0.67287892 -0.00987940
v 0.37432764 0.43413654 -0.00993627
v 0.37450420 -0.67278490 -0.00979901
v 0.26429961 -0.67280588 -0.27587905
v -0.26763161 -0.67260600 -0.27580937
v -0.26755797 -0.67273744 -0.27583414
v 0.26436021 -0.67261549 -0.27590194
v 0.37441289 -0.67273434 -0.00982914
v 0.26432149 -0.67268030 0.25607988
v 0.26431076 0.43415521 0.25594260
v 0.26433149 -0.67268230 0.25606603
v 0.26430440 0.43421410 0.25600757
v 0.37429377 0.43427359 -0.01004462
v -0.00175309 0.43421602 -0.38593682
v 0.26432723 0.43409475 -0.27581868
v 0.26427612 0.43419387 -0.27597264
v -0.00159922 0.43404058 -0.38598354
v 0.37441285 0.43412503 -0.00997760
v -0.00158609 -0.67270037 -0.38610704
v -0.00155977 0.43416840 -0.38598932
v -0.00154809 0.43406551 -0.38604652
v -0.00149643 -0.67291209 -0.38598391
v -0.37774642 -0.67267212 -0.00997535
v -0.37763428 -0.67274130 -0.01002841
v -0.00162745 -0.67258693 -0.38601410
v -0.00163716 -0.67282692 -0.38583835
v 0.26417710 -0.67289648 0.25603194
v 0.26433521 -0.67291631 0.25601757
v -0.00160703 0.43418231 0.36619129
v -0.00174284 -0.67276836 0.36600014
v -0.00163757 0.43423792 0.36614479
v -0.00176370 -0.67281832 0.36613171
v 0.26424683 0.43420309 0.25605060
v -0.26754373 0.43423539 -0.27584720
v -0.26751025 0.43414766 -0.27581536
v 0.26414741 0.43417500 0.25602014
v -0.26749578 -0.67283806 -0.27573562
v -0.26772798 0.43411579 -0.27597117
v -0.26745086 0.43418673 -0.27592263
v -0.26742251 -0.67271013 -0.27578133
v -0.37767779 0.43423201 -0.00986066
v -0.37754505 -0.67290118 -0.00977136
v -0.37761398 0.43426679 -0.00995771
v -0.37781119 -0.67279209 -0.00983111
v -0.26737486 -0.67273190 0.25600608
v -0.26744787 -0.67285612 0.25591167
v -0.00162290 -0.67269313 0.36622703
v -0.00174616 -0.67283169 0.36628005
v -0.26770578 0.43417248 0.25586014
v -0.26752138 -0.67260403 0.25589669
v -0.26751078 0.43420200 0.25604374
v -0.26739507 -0.67264200 0.25612634
v -0.00161651 0.43424435 0.36611257
v -0.37749910 0.43426507 -0.00989695
v -0.37770276 0.43412723 -0.00992091
v -0.00169579 0.43400621 0.36604065
v -0.26753727 0.43417766 0.25609546
v -0.26746982 0.43425450 0.25591482
vn -0.7071067311865433 1.7204250601774514e-8 0.7071068311865478
vn -1 0 2.5320029999999994e-8
vn 0.7071067311865433 -1.7204250601774514e-8 -0.7071068311865478
vn 1 0 -2.5320029999999994e-8
vn 0 1 0
vn 0 -1 0
vn -0.7071066811865431 -1.7204249385250172e-8 -0.7071068811865378
vn 0.7071066811865431 1.7204249385250172e-8 0.7071068811865378
vn 0 3.440849977795538e-8 1
vn 0 -3.440849977795538e-8 -1
vn 2.0256029999999575e-7 -3.440849977795467e-8 -1
vn -2.0256029999999575e-7 3.440849977795467e-8 1
vn 0.7071067311865433 1.7204250601774514e-8 0.7071068311865478
vn -0.7071067311865433 -1.7204250601774514e-8 -0.7071068311865478
vn 1 0 -5.14343599999932e-7
vn -1 0 5.14343599999932e-7
vn 0.7071064811864917 -1.720424938524875e-8 -0.7071070811864757
vn -0.7071064811864917 1.720424938524875e-8 0.7071070811864757
usemtl material_0_0
f 1//1 2//2 3//2
f 2//2 1//1 4//1
f 5//3 6//3 7//4
f 8//4 7//4 6//3
f 9//5 10//5 11//5
f 12//6 13//6 14//6
f 3//2 15//7 16//7
f 15//7 3//2 2//2
f 7//4 8//4 17//8
f 18//8 17//8 8//4
f 19//6 20//6 21//6
f 22//5 23//5 24//5
f 1//1 25//9 4//1
f 25//9 1//1 26//9
f 27//10 6//3 28//10
f 5//3 28//10 6//3
f 9//5 11//5 29//5
f 30//6 12//6 14//6
f 10//5 31//5 11//5
f 12//6 32//6 13//6
f 9//5 29//5 33//5
f 34//6 30//6 14//6
f 35//11 15//7 36//11
f 15//7 35//11 16//7
f 18//8 37//12 17//8
f 38//12 17//8 37//12
f 19//6 39//6 40//6
f 41//5 42//5 24//5
f 19//6 40//6 20//6
f 23//5 41//5 24//5
f 26//9 43//13 25//9
f 43//13 26//9 44//13
f 45//14 27//10 46//14
f 28//10 46//14 27//10
f 43//13 47//15 48//15
f 47//15 43//13 44//13
f 45//14 46//14 49//16
f 50//16 49//16 46//14
f 33//5 29//5 51//5
f 52//6 30//6 34//6
f 33//5 51//5 53//5
f 54//6 52//6 34//6
f 55//17 36//11 56//17
f 36//11 55//17 35//11
f 37//12 57//18 38//12
f 58//18 38//12 57//18
f 39//6 59//6 60//6
f 61//5 62//5 42//5
f 39//6 60//6 40//6
f 41//5 61//5 42//5
f 48//15 55//17 56//17
f 55//17 48//15 47//15
f 49//16 50//16 57//18
f 58//18 57//18 50//16
f 59//6 63//6 60//6
f 61//5 64//5 62//5
