# SSTK version 0.8.0
# 3
mtllib original-3.mtl
o #ID104
v -0.08400412 0.55667780 0.09159000
v -0.10074179 0.56476014 0.06173325
v -0.10654386 0.55648590 0.06544741
v -0.07939508 0.56466253 0.08646257
v -0.05557641 0.55662863 0.11089015
v -0.05244705 0.56464116 0.10477537
v -0.09408190 0.57170918 0.05731329
v -0.07414059 0.57171515 0.08033252
v -0.12154892 0.55655132 0.03459033
v -0.11499547 0.56470239 0.03227627
v -0.11125155 0.54756961 0.06852778
v -0.08782941 0.54749848 0.09581884
v -0.02171505 0.56470560 0.11540323
v -0.02306345 0.55650310 0.12224433
v -0.04880282 0.57179816 0.09745997
v -0.05810949 0.54741784 0.11601524
v -0.08654689 0.57754122 0.05233187
v -0.06800440 0.57762421 0.07358688
v -0.10736771 0.57177231 0.02980708
v -0.12803785 0.55649494 0.00069907
v -0.12108497 0.56472613 0.00025593
v -0.12687394 0.54755552 0.03622803
v -0.11479149 0.53777527 0.07089930
v -0.09074383 0.53775932 0.09894441
v 0.01089434 0.56465157 0.11785722
v 0.01125563 0.55654893 0.12484019
v -0.01998245 0.57173700 0.10759785
v -0.02424911 0.54745970 0.12790835
v -0.04481032 0.57745629 0.08950908
v -0.06006246 0.53761322 0.11991448
v -0.07835068 0.58184547 0.04707738
v -0.06162597 0.58200379 0.06646219
v -0.09871705 0.57749455 0.02704398
v -0.11302551 0.57185450 -0.00016817
v -0.11877248 0.56479648 -0.03227661
v -0.12549624 0.55668056 -0.03371780
v -0.13357293 0.54758680 0.00103954
v -0.13102265 0.53763648 0.03768435
v -0.11713411 0.52743596 0.07255772
v -0.09245178 0.52737448 0.10117045
v 0.04293665 0.56465750 0.11186527
v 0.04526474 0.55652686 0.11829410
v 0.01050136 0.57182288 0.10987519
v 0.01165776 0.54742940 0.13044757
v -0.01814722 0.57750157 0.09869362
v -0.02506992 0.53772989 0.13208027
v -0.04042480 0.58183017 0.08088184
v -0.06126184 0.52740883 0.12224008
v -0.06980523 0.58484986 0.04137234
v -0.05478693 0.58492705 0.05867566
v -0.08951851 0.58200265 0.02389786
v -0.10405131 0.57751758 -0.00076821
v -0.11085036 0.57170377 -0.03061214
v -0.10793369 0.56473968 -0.06317729
v -0.11417481 0.55650083 -0.06632645
v -0.13104609 0.54748941 -0.03493938
v -0.13801996 0.53771267 0.00120045
v -0.13361286 0.52737244 0.03843930
v -0.11786764 0.51976372 0.07290522
v -0.09306895 0.51984857 0.10166429
v 0.07241880 0.56465356 0.09746220
v 0.07616159 0.55664487 0.10341640
v 0.04039693 0.57179636 0.10409185
v 0.04697378 0.54757717 0.12363006
v 0.01004411 0.57754913 0.10079726
v 0.01181618 0.53764247 0.13464526
v -0.01613405 0.58190674 0.08930907
v -0.02564324 0.52731893 0.13464106
v -0.03579323 0.58481747 0.07166259
v -0.06157757 0.51978114 0.12301387
v -0.06220816 0.58605913 0.03646639
v -0.04878602 0.58589036 0.05199867
v -0.07980630 0.58478074 0.02063369
v -0.09440042 0.58183297 -0.00137794
v -0.10192499 0.57762331 -0.02892892
v -0.10070092 0.57172273 -0.05948595
v -0.09469538 0.55667356 -0.09481168
v -0.08953111 0.56468098 -0.09018434
v -0.11922140 0.54752882 -0.06868522
v -0.13516170 0.53774196 -0.03570465
v -0.14077601 0.52742153 0.00145489
v -0.13438999 0.51974121 0.03873777
v -0.09314615 0.50611424 0.10174626
v -0.11790726 0.42610871 0.07296047
v -0.09309635 0.42602870 0.10179556
v -0.09311023 0.51972137 0.10180019
v -0.11782289 0.51983228 0.07304120
v -0.11790723 0.50600660 0.07293923
v 0.09700353 0.56476976 0.07632361
v 0.10217520 0.55649921 0.08084402
v 0.06792951 0.57179155 0.09084246
v 0.07937770 0.54742144 0.10810448
v 0.03767349 0.57757317 0.09558743
v 0.04830840 0.53770471 0.12769210
v 0.00947560 0.58195749 0.09109484
v 0.01210985 0.52733876 0.13745503
v -0.01414879 0.58492858 0.07913024
v -0.02578481 0.51973325 0.13553980
v -0.03183144 0.58587417 0.06366462
v -0.06160199 0.50603378 0.12305232
v -0.06156475 0.42609199 0.12303574
v -0.06161453 0.51970647 0.12314885
v -0.06677167 0.58604140 -0.04247892
v -0.06150081 0.58593392 -0.02044178
v -0.05530523 0.58601973 -0.05940522
v -0.06278856 0.58590625 -0.00301731
v -0.05585190 0.58598271 -0.03682983
v -0.04608836 0.58603236 -0.05131360
v -0.03962134 0.58597102 -0.07306557
v -0.03291181 0.58602225 -0.06260740
v -0.02097306 0.58598485 -0.08196148
v -0.01718937 0.58592887 -0.07015357
v -0.00089802 0.58604842 -0.08583383
v -0.00018695 0.58588534 -0.07348508
v -0.07125564 0.58602646 0.01785398
v -0.07354450 0.58604851 -0.02304763
v -0.07515438 0.58594348 -0.00230226
v -0.06226496 0.58597852 0.03633974
v -0.05954434 0.58590633 0.01387643
v -0.04871959 0.58590559 0.05211589
v -0.05188740 0.58588481 0.02971908
v -0.04066537 0.58589983 0.04283267
v -0.03172857 0.58606508 0.06366618
v -0.02623785 0.58598637 0.05256492
v -0.01236010 0.58594920 0.07042669
v -0.00979090 0.58603289 0.05836179
v 0.00824633 0.58595379 0.07185493
v 0.00763143 0.58605153 0.05945480
v 0.02859663 0.58588216 0.06802291
v 0.02465362 0.58603046 0.05629604
v 0.04031211 0.58588306 0.04882394
v 0.04707277 0.58592808 0.05907484
v 0.05340580 0.58600646 0.03745935
v 0.06266941 0.58601338 0.04556037
v 0.06327637 0.58605570 0.02300371
v 0.07425625 0.58589425 0.02858932
v 0.06904638 0.58603172 0.00650248
v 0.07027922 0.58599082 -0.01069786
v 0.01719302 0.58600923 -0.07217713
v 0.01970440 0.58603774 -0.08434269
v 0.03357333 0.58592160 -0.06642843
v 0.03927588 0.58605067 -0.07760655
v 0.04809070 0.58601015 -0.05666409
v 0.05634980 0.58601648 -0.06590034
v 0.05942714 0.58589786 -0.04341020
v 0.06982647 0.58599689 -0.05034625
v 0.06704936 0.58598104 -0.02790168
v 0.08115303 0.58587234 0.00906572
v 0.07867771 0.58603457 -0.03184266
v 0.08261112 0.58593069 -0.01141483
v -0.07118671 0.58587575 0.01795047
v -0.08397112 0.58488897 -0.00184578
v -0.09240479 0.58195272 -0.02680135
v -0.09269418 0.57759295 -0.05540047
v -0.08353372 0.57167171 -0.08484473
v -0.06881004 0.55656065 -0.11724055
v -0.06500253 0.56474550 -0.11142043
v -0.09911013 0.54741681 -0.09842766
v -0.12295051 0.53771545 -0.07073534
v -0.13783682 0.52730647 -0.03620060
v -0.14160296 0.51978280 0.00138001
v -0.13437475 0.42606446 0.03880129
v -0.13451623 0.51970362 0.03883624
v -0.13451602 0.50614253 0.03871608
v -0.05195842 0.42615642 0.02959271
v -0.09305604 0.42612323 0.10180708
v -0.11785219 0.42605303 0.07302503
v -0.06167228 0.42603935 0.12309284
v -0.04067088 0.42612588 0.04284422
v -0.02610723 0.42610508 0.05261435
v 0.11537519 0.56479553 0.04922150
v 0.12172245 0.55655674 0.05236845
v 0.09112530 0.57172269 0.07095782
v 0.10647999 0.54753385 0.08467642
v 0.06291780 0.57750900 0.08325090
v 0.08172515 0.53762529 0.11167506
v 0.03462432 0.58199673 0.08622519
v 0.04920575 0.52741979 0.13048109
v 0.00873999 0.58481898 0.08080213
v 0.01202846 0.51972896 0.13846075
v -0.01230535 0.58603488 0.07033813
v -0.02569554 0.50613756 0.13565441
v -0.02569418 0.42606632 0.13550353
v -0.02567838 0.51975547 0.13552198
v -0.02102011 0.58607075 -0.08193752
v -0.00136495 0.58481716 -0.09472004
v -0.02388028 0.58486757 -0.09044118
v -0.00087746 0.58590185 -0.08584920
v -0.03963985 0.58595244 -0.07292931
v -0.04445264 0.58473711 -0.08035455
v -0.05525724 0.58593881 -0.05952594
v -0.06196460 0.58478217 -0.06545825
v -0.06689833 0.58594318 -0.04252507
v -0.07482181 0.58488991 -0.04637504
v -0.07362343 0.58602476 -0.02303315
v -0.08243912 0.58478236 -0.02474850
v -0.07507363 0.58593710 -0.00235490
v 0.00831188 0.58599270 0.07194956
v 0.02849500 0.58594340 0.06809947
v 0.03129700 0.58487811 0.07654626
v 0.04718433 0.58592628 0.05900815
v 0.05209041 0.58475546 0.06659114
v 0.06281513 0.58591076 0.04561986
v 0.06937269 0.58482868 0.05157944
v 0.07436967 0.58604640 0.02849049
v 0.08224390 0.58488504 0.03255322
v 0.08100172 0.58602215 0.00909323
v 0.08980974 0.58486358 0.01098135
v 0.08270025 0.58603475 -0.01151989
v 0.09150119 0.58486786 -0.01201278
v 0.08725191 0.58477275 -0.03462890
v 0.07881286 0.58591683 -0.03168773
v 0.07715097 0.58479898 -0.05522495
v 0.06969147 0.58603016 -0.05029170
v 0.06231243 0.58482395 -0.07256519
v 0.05637514 0.58590373 -0.06602779
v 0.04313872 0.58477964 -0.08554400
v 0.03933210 0.58601500 -0.07744488
v 0.02156810 0.58489073 -0.09306105
v 0.01982632 0.58605326 -0.08428279
v -0.00074595 0.58594701 -0.08584983
v -0.00012042 0.58594422 -0.07343717
v -0.00068394 0.58612021 -0.08416912
v -0.00008753 0.75014091 -0.07345139
v 0.01716434 0.58593856 -0.07208374
v -0.00017440 0.58599655 -0.07336748
v 0.01727428 0.75013676 -0.07220095
v 0.03362548 0.58598759 -0.06638358
v 0.03368706 0.75004003 -0.06636430
v 0.04811468 0.58592370 -0.05675572
v 0.04801136 0.75004214 -0.05664640
v 0.05949525 0.75002916 -0.04348271
v 0.05949905 0.58594348 -0.04347471
v 0.06693351 0.75003779 -0.02779501
v 0.06707016 0.58590750 -0.02776346
v 0.07018020 0.75003107 -0.01080728
v 0.07023750 0.58598632 -0.01069713
v 0.06895981 0.75001496 0.00662751
v 0.06898520 0.58600462 0.00656516
v 0.06328889 0.75010923 0.02304771
v 0.06327574 0.58598317 0.02297993
v 0.05346563 0.75011677 0.03733779
v 0.05348248 0.58592809 0.03741318
v 0.04028941 0.58603843 0.04866635
v 0.04028182 0.75010995 0.04872951
v 0.02462953 0.58605460 0.05628337
v 0.02468426 0.75002184 0.05633480
v 0.00754611 0.58601491 0.05947541
v 0.00758618 0.75008842 0.05957580
v -0.00986528 0.58600838 0.05827045
v -0.00979902 0.75005949 0.05828882
v -0.02622072 0.58589978 0.05257451
v -0.02613584 0.75011599 0.05260328
v -0.04055833 0.58599258 0.04283883
v -0.04063500 0.75003191 0.04271514
v -0.05196291 0.75016962 0.02965911
v -0.05200380 0.58590425 0.02954473
v -0.05942435 0.75006631 0.01404539
v -0.05954709 0.58600045 0.01400656
v -0.06271093 0.75007773 -0.00310800
v -0.06284395 0.58601353 -0.00316129
v -0.06150265 0.75004198 -0.02043248
v -0.06138859 0.58599208 -0.02035497
v -0.05578049 0.75013960 -0.03679209
v -0.05576224 0.58596620 -0.03692209
v -0.04597138 0.75011501 -0.05120878
v -0.04601374 0.58599300 -0.05129736
v -0.03286665 0.58600679 -0.06261494
v -0.03289281 0.75015865 -0.06258346
v -0.01708571 0.58590357 -0.07023658
v -0.01710638 0.75012042 -0.07025045
v -0.08401437 0.58187112 -0.05110392
v -0.07687213 0.57747593 -0.07882822
v -0.06050157 0.57173384 -0.10469311
v -0.03778153 0.55663180 -0.13215293
v -0.03555376 0.56477759 -0.12567080
v -0.07180700 0.54752781 -0.12201788
v -0.10224003 0.53761671 -0.10138660
v -0.12558800 0.52734612 -0.07187054
v -0.13882680 0.51973583 -0.03648960
v -0.14151305 0.42617198 0.00141405
v -0.14152833 0.51982787 0.00139228
v -0.14150147 0.50606581 0.00141471
v -0.05945476 0.42609515 0.01403292
v -0.13438228 0.42603345 0.03865974
v -0.05192872 0.42615899 0.02964213
v -0.04058086 -0.04924683 0.04273970
v -0.04060556 0.42614231 0.04275043
v -0.05188168 -0.04918962 0.02965928
v -0.06140540 0.42613203 -0.02045754
v -0.05952994 0.42611389 0.01399915
v -0.06279873 0.42615201 -0.00314082
v -0.05573389 0.42610061 -0.03695779
v -0.05191426 0.42603425 0.02961733
v -0.04607210 0.42599844 -0.05120675
v -0.04062903 0.42605332 0.04284500
v -0.03291162 0.42601765 -0.06260650
v -0.02623192 0.42617317 0.05248323
v -0.01723592 0.42617430 -0.07017768
v -0.00976815 0.42604984 0.05835915
v -0.00001927 0.42610255 -0.07339285
v 0.00764155 0.42604026 0.05947559
v 0.01717621 0.42608064 -0.07225220
v 0.02456972 0.42608823 0.05623853
v 0.03371499 0.42605443 -0.06643002
v 0.04029362 0.42612058 0.04881502
v 0.04796079 0.42599496 -0.05673446
v 0.05354138 0.42603178 0.03741128
v 0.05945889 0.42599199 -0.04359446
v 0.06323044 0.42605755 0.02307503
v 0.06688523 0.42611621 -0.02789862
v 0.06894677 0.42609251 0.00663059
v 0.07021417 0.42611145 -0.01086007
v -0.02613443 0.42615887 0.05261137
v -0.02625231 -0.04912528 0.05264902
v -0.02587549 0.42615538 0.13549122
v -0.00980191 0.42607370 0.05821801
v 0.13301860 0.55656949 0.01982559
v 0.12613086 0.56475716 0.01849911
v 0.10827188 0.57171364 0.04571483
v 0.12664785 0.54755727 0.05484170
v 0.08430228 0.57756554 0.06493435
v 0.10972145 0.53776381 0.08740046
v 0.05766959 0.58201144 0.07516893
v 0.08319694 0.52744509 0.11406116
v 0.04949694 0.51986195 0.13116138
v 0.01214637 0.50600388 0.13840850
v 0.01211975 0.42610428 0.13842374
v 0.01204246 0.51981039 0.13842637
v -0.00194507 0.58195695 -0.10507166
v -0.02717810 0.58187297 -0.10026539
v -0.05018066 0.58196258 -0.08909280
v -0.06953289 0.58188917 -0.07223681
v 0.07708721 0.58185758 0.05843837
v 0.09144087 0.58194064 0.03711586
v 0.09997156 0.58186477 0.01292133
v 0.10177930 0.58199076 -0.01253313
v 0.09693204 0.58192280 -0.03775394
v 0.08589611 0.58191018 -0.06078821
v 0.06902965 0.58192998 -0.08033612
v 0.04779163 0.58192608 -0.09477041
v 0.02372085 0.58186558 -0.10302921
v -0.05954471 0.75008769 0.01390003
v -0.06140040 0.75015845 -0.02047466
v -0.06280865 0.75001573 -0.00304498
v -0.05192736 0.75003605 0.02962727
v -0.05577997 0.75003417 -0.03680651
v -0.04056277 0.75002213 0.04275156
v -0.04594798 0.75016490 -0.05119744
v -0.02619857 0.75015481 0.05263846
v -0.03275257 0.75006589 -0.06253273
v -0.00972780 0.75011768 0.05821987
v -0.01720565 0.75007091 -0.07010288
v 0.00754347 0.75018641 0.05946179
v -0.00016274 0.75007068 -0.07334475
v 0.02467260 0.75001362 0.05639048
v 0.01722259 0.75017160 -0.07209862
v 0.04030255 0.75004183 0.04863457
v 0.03376151 0.75012209 -0.06640135
v 0.05341345 0.75004784 0.03742822
v 0.04795014 0.75006830 -0.05666031
v 0.06318962 0.75004283 0.02301287
v 0.05942454 0.75012598 -0.04355123
v 0.06905456 0.75002757 0.00651801
v 0.06701428 0.75015901 -0.02794364
v 0.07014466 0.75013650 -0.01084235
v 0.01728291 0.92062745 -0.07212080
v -0.00004496 0.75014893 -0.07350637
v 0.01716783 0.75005151 -0.07213079
v -0.00009822 0.92062407 -0.07334589
v 0.03366958 0.92052956 -0.06651715
v 0.03370800 0.75017229 -0.06653979
v 0.04806591 0.92057375 -0.05659086
v 0.04798450 0.75015300 -0.05670917
v 0.05943922 0.75001302 -0.04357004
v 0.05943416 0.92059447 -0.04355801
v 0.06692835 0.75005141 -0.02789812
v 0.06696628 0.92063236 -0.02776539
v 0.07023026 0.74999209 -0.01080819
v 0.07027014 0.92051926 -0.01076743
v 0.06903613 0.75013091 0.00651938
v 0.06886224 0.92059819 0.00653402
v 0.06332085 0.75004230 0.02308343
v 0.06316524 0.92063703 0.02307189
v 0.05345358 0.75012829 0.03731081
v 0.05348662 0.92058814 0.03731932
v 0.04032482 0.92053774 0.04877569
v 0.04036507 0.75016377 0.04866596
v 0.02461890 0.92061181 0.05637860
v 0.02462283 0.75011909 0.05634175
v 0.00757510 0.92066756 0.05957301
v 0.00761039 0.75003387 0.05965111
v -0.00978456 0.92055938 0.05825582
v -0.00984469 0.75007879 0.05827128
v -0.02623525 0.92066114 0.05265735
v -0.02610964 0.75000625 0.05257242
v -0.04061155 0.92070084 0.04288086
v -0.04051478 0.75006811 0.04286871
v -0.05192503 0.75003069 0.02961114
v -0.05183759 0.92063352 0.02964153
v -0.05940956 0.75011120 0.01389893
v -0.05951081 0.92066559 0.01389545
v -0.06285432 0.75002164 -0.00301689
v -0.06279630 0.92057643 -0.00301213
v -0.06149782 0.75006597 -0.02053904
v -0.06158115 0.92054937 -0.02052457
v -0.05570453 0.75013363 -0.03687998
v -0.05573079 0.92065964 -0.03685047
v -0.04593207 0.75008973 -0.05121657
v -0.04598762 0.92058678 -0.05134589
v -0.03290497 0.92066602 -0.06264455
v -0.03278195 0.75001884 -0.06256872
v -0.01720944 0.92068922 -0.07020780
v -0.01717211 0.75000602 -0.07010971
v -0.05553342 0.57750527 -0.09727900
v -0.03292127 0.57167529 -0.11796250
v -0.00392984 0.55667103 -0.13878136
v -0.00342091 0.56467042 -0.13176922
v -0.03953995 0.54750337 -0.13754069
v -0.07421229 0.53777962 -0.12550050
v -0.10431714 0.52733637 -0.10312881
v -0.12625743 0.51984331 -0.07227082
v -0.13875475 0.51984299 -0.03640286
v -0.13887250 0.50610874 -0.03646149
v -0.13879731 0.42616195 -0.03636925
v -0.06284006 0.42617948 -0.00311665
v -0.14163101 0.42612926 0.00139179
v -0.05952971 0.42599361 0.01388773
v -0.05940025 -0.04927354 0.01406275
v -0.06267190 0.42616106 -0.00303422
v -0.06281603 -0.04917763 -0.00319311
v -0.06140285 0.42609367 -0.02038377
v -0.06153776 -0.04926155 -0.02053581
v -0.13883708 0.42620848 -0.03645609
v -0.06142695 0.42605006 -0.02049088
v -0.05569885 0.42614277 -0.03690495
v -0.05578833 -0.04927197 -0.03678624
v -0.12620341 0.42619739 -0.07242645
v -0.05567713 0.42610809 -0.03693048
v -0.04607805 0.42605788 -0.05124801
v -0.04591808 -0.04919643 -0.05116296
v -0.10494592 0.42618536 -0.10377211
v -0.05566898 0.42617901 -0.03685140
v -0.12619931 0.42607481 -0.07233284
v -0.04598823 0.42603869 -0.05115111
v -0.03290547 -0.04925433 -0.06256340
v -0.03285097 0.42599009 -0.06268544
v -0.07617661 0.42620365 -0.12855466
v -0.03279628 0.42613722 -0.06260831
v -0.01716643 -0.04921862 -0.07025687
v -0.01710123 0.42603958 -0.07015091
v -0.04196073 0.42603563 -0.14505057
v -0.01708958 0.42611677 -0.07024556
v -0.00006314 -0.04920940 -0.07341927
v -0.00005004 0.42615723 -0.07347945
v -0.00457122 0.42602419 -0.15222097
v -0.01707971 0.42605878 -0.07011345
v -0.04205558 0.42615859 -0.14522485
v -0.00010324 0.42604080 -0.07350015
v 0.01730615 -0.04914642 -0.07207902
v 0.01733141 0.42617487 -0.07223066
v 0.01723217 0.42610941 -0.07213695
v 0.03321241 0.42607179 -0.14949780
v 0.03366820 -0.04910970 -0.06644282
v 0.03370195 0.42616229 -0.06648030
v 0.03369426 0.42604964 -0.06641356
v 0.06914700 0.42601855 -0.13696386
v 0.04809403 -0.04924869 -0.05671451
v 0.04814175 0.42616247 -0.05666184
v 0.04800596 0.42614976 -0.05676112
v 0.05946013 0.42603587 -0.04348837
v 0.12544315 0.42620060 -0.08679125
v 0.10054120 0.42603334 -0.11564824
v 0.05939298 0.42605973 -0.04346468
v 0.05932977 -0.04923175 -0.04350875
v 0.06688252 0.42608375 -0.02776365
v 0.06692761 -0.04927190 -0.02788520
v 0.06700603 0.42608694 -0.02780619
v 0.14195801 0.42605154 -0.05269473
v 0.07018345 0.42613684 -0.01078360
v 0.07016208 -0.04923442 -0.01084436
v 0.07014783 0.42602273 -0.01078732
v 0.14912653 0.42620922 -0.01534666
v 0.06904238 0.42606640 0.00664065
v 0.06903016 -0.04918263 0.00664546
v 0.14617985 0.42602797 0.02251042
v 0.06902127 0.42614470 0.00652864
v 0.06321786 0.42601989 0.02289195
v 0.06315674 -0.04920547 0.02303733
v 0.13384121 0.42613688 0.05854314
v 0.06324100 0.42599602 0.02305330
v 0.05344040 0.42613102 0.03743993
v 0.05339339 -0.04917856 0.03728146
v 0.06316926 0.42607379 0.02306973
v 0.11242122 0.42613006 0.08978808
v 0.05337429 0.42609893 0.03735845
v 0.13368915 0.42615855 0.05839432
v 0.04033226 -0.04916055 0.04865079
v 0.04027555 0.42604502 0.04882737
v 0.08367006 0.42620887 0.11465720
v 0.04034445 0.42598929 0.04875685
v 0.02464484 -0.04911094 0.05621443
v 0.02463452 0.42602303 0.05628513
v 0.04948624 0.42616191 0.13120702
v 0.02459942 0.42601512 0.05620029
v 0.00752576 -0.04916154 0.05948956
v 0.00765869 0.42615077 0.05960663
v 0.02464084 0.42612848 0.05634613
v 0.01214523 0.42616807 0.13827574
v 0.00758262 0.42612820 0.05952362
v 0.04943330 0.42602129 0.13117576
v -0.00974075 -0.04917096 0.05825127
v -0.00975502 0.42617039 0.05825139
v 0.13558454 0.55666165 -0.01456016
v 0.12855599 0.56464090 -0.01416300
v 0.11822600 0.57176335 0.01684252
v 0.13846787 0.54755468 0.02098349
v 0.10019300 0.57746031 0.04157189
v 0.13055253 0.53767532 0.05680659
v 0.11166355 0.52729748 0.08923177
v 0.08372065 0.51977474 0.11462352
v 0.04944576 0.50607270 0.13123578
v 0.04941110 0.42603042 0.13131040
v 0.04947912 0.51986454 0.13115649
v -0.00257570 0.57762819 -0.11478645
v -0.03017878 0.57762292 -0.10949235
v 0.10936698 0.57750063 0.01500877
v 0.11154290 0.57756982 -0.01308657
v 0.10627146 0.57759448 -0.04086239
v 0.09395063 0.57749320 -0.06616511
v 0.07552522 0.57744893 -0.08765158
v 0.05220965 0.57745413 -0.10344504
v 0.02559338 0.57762028 -0.11256610
v -0.00304307 0.57183508 -0.12380606
v 0.03045320 0.55656159 -0.13612494
v 0.02900506 0.56476095 -0.12932894
v -0.00416935 0.54750577 -0.14441784
v -0.04077119 0.53766547 -0.14169601
v -0.07575987 0.52740626 -0.12792217
v -0.10485246 0.51971244 -0.10385795
v -0.12634997 0.51973329 -0.07230887
v -0.12637596 0.50595807 -0.07229381
v -0.12630562 0.42604565 -0.07230221
v -0.10483522 0.51979042 -0.10380359
v -0.10501799 0.50612897 -0.10383791
v -0.10485899 0.42606765 -0.10371063
v -0.07621965 0.42620146 -0.12850334
v -0.07607233 0.50611085 -0.12865780
v -0.07617293 0.51973207 -0.12864372
v -0.04190819 0.42607045 -0.14510218
v -0.04200874 0.50613859 -0.14503892
v -0.04205303 0.51986644 -0.14514223
v -0.00461552 0.42609944 -0.15230418
v -0.00471172 0.50612270 -0.15220873
v -0.00468847 0.51968101 -0.15225533
v 0.03329172 0.42603539 -0.14946132
v 0.03317850 0.50605329 -0.14940161
v -0.00457875 0.51986666 -0.15220456
v 0.03317817 0.51970384 -0.14955722
v 0.06919091 0.42607182 -0.13702039
v 0.06912942 0.50607922 -0.13693305
v 0.06915388 0.51972383 -0.13703507
v 0.10055346 0.42611908 -0.11556093
v 0.10051432 0.50606256 -0.11555261
v 0.10052654 0.51983147 -0.11560602
v 0.12531986 0.50606215 -0.08680135
v 0.12539000 0.51980766 -0.08693118
v 0.12529960 0.42609332 -0.08688846
v 0.14200356 0.50612756 -0.05270016
v 0.14182579 0.51985178 -0.05264534
v 0.14193212 0.42606336 -0.05255126
v 0.14899414 0.50606995 -0.01532359
v 0.14905795 0.42611950 -0.01540740
v 0.14908303 0.51968114 -0.01528273
v 0.14620940 0.50598223 0.02254373
v 0.14618854 0.42611862 0.02260761
v 0.14628245 0.51979340 0.02254773
v 0.13374036 0.50599227 0.05840209
v 0.13378497 0.42618175 0.05854346
v 0.13377399 0.51980580 0.05852033
v 0.11236637 0.50598237 0.08988519
v 0.11244167 0.42617282 0.08980954
v 0.11247037 0.51969315 0.08989809
v 0.08373017 0.42618172 0.11465258
v 0.08354829 0.50603387 0.11472408
v 0.08362997 0.51973975 0.11473952
v 0.12909808 0.55656731 -0.04832169
v 0.12235212 0.56467683 -0.04612814
v 0.12047154 0.57168567 -0.01375343
v 0.14123168 0.54759865 -0.01493260
v 0.14272116 0.53765984 0.02189888
v 0.13306463 0.52741218 0.05797085
v 0.11230959 0.51984246 0.08987004
v 0.11478048 0.57174628 -0.04372677
v 0.10160177 0.57182039 -0.07118130
v 0.08151401 0.57183253 -0.09433358
v 0.05628419 0.57169500 -0.11153547
v 0.02749807 0.57169074 -0.12141208
v 0.06295320 0.55665458 -0.12491600
v 0.05998398 0.56478782 -0.11854720
v 0.03172379 0.54750152 -0.14164761
v -0.00451306 0.53775457 -0.14866579
v -0.04159497 0.52735842 -0.14433484
v -0.07617589 0.51968022 -0.12856601
v -0.04198812 0.51974661 -0.14508452
v -0.00455900 0.51976315 -0.15223325
v -0.00462061 0.52745440 -0.15129029
v -0.00456517 0.51675557 -0.15254446
v -0.00455758 0.50611021 -0.15227058
v -0.00471308 0.51973674 -0.15220016
v 0.03324781 0.51984122 -0.14951807
v 0.03303121 0.52740165 -0.14859024
v 0.06906671 0.51983327 -0.13696412
v 0.06871720 0.52740822 -0.13619088
v 0.10052533 0.51972231 -0.11569199
v 0.09988961 0.52741042 -0.11500918
v 0.12542171 0.51971643 -0.08681038
v 0.12469965 0.52743602 -0.08635642
v 0.14186917 0.51987222 -0.05258016
v 0.14118633 0.52732861 -0.05231420
v 0.14823640 0.52730902 -0.01518848
v 0.14910298 0.51985427 -0.01522902
v 0.14540289 0.52736207 0.02245624
v 0.14622471 0.51984396 0.02254317
v 0.13385768 0.51985622 0.05849069
v 0.10816958 0.56472803 -0.07558109
v 0.11405339 0.55661075 -0.07941234
v 0.13442747 0.54744357 -0.05014800
v 0.14547579 0.53775638 -0.01504651
v 0.08698447 0.56470327 -0.10032580
v 0.09144335 0.55649872 -0.10551615
v 0.06547831 0.54752396 -0.12996435
v 0.03241640 0.53771673 -0.14597754
v 0.06748374 0.53770475 -0.13373660
v 0.09815711 0.53778012 -0.11292088
v 0.12242242 0.53763655 -0.08483735
v 0.13849491 0.53760082 -0.05142768
v 0.11870367 0.54750323 -0.08252149
v 0.09531532 0.54757899 -0.10968281
vn -0.5383251127195727 0.5874904322446178 0.6042028343499322
vn -0.5971784029686898 0.699642699830824 0.3922729248892924
vn -0.6763613178926552 0.5874904174011522 0.44428636837104346
vn -0.4753023757879937 0.6996426934793178 0.5334676682155106
vn -0.36360296779946133 0.5874904174011522 0.7229439060323032
vn -0.3210352844724008 0.699642699830824 0.6383074797440181
vn -0.5050637647950155 0.7967701260121132 0.3317649164479675
vn -0.40198710209757177 0.7967701080302513 0.4511804125808854
vn -0.7683046364891364 0.5874904445714835 0.25409243020305883
vn -0.6783577731809112 0.6996426808495376 0.2243453826106247
vn -0.7409369560429026 0.4627430265410727 0.4867045495549493
vn -0.5897217067814987 0.4627430410863273 0.6618891043648429
vn -0.14489011459542966 0.6996426808495376 0.699647749818575
vn -0.16410178946167478 0.5874904445714836 0.7924175542178988
vn -0.2715156664699723 0.7967701260121132 0.5398486909829532
vn -0.3983178969606321 0.4627430265410727 0.7919670096339034
vn -0.40197342911626993 0.8767533391830411 0.2640472391749145
vn -0.31993606185929 0.8767533716439015 0.3590883479493858
vn -0.5737212297873459 0.7967701296371144 0.18974011439163715
vn -0.8078892582673829 0.5874904333492379 0.04658258364778441
vn -0.7133081212874121 0.6996427113654267 0.0411290716969994
vn -0.8416585586153519 0.46274301202811663 0.2783518915485837
vn -0.7895430300665499 0.3280882150257539 0.5186327475531657
vn -0.6284079376982092 0.32808819793381755 0.705309576153921
vn 0.04112907169699936 0.6996427113654267 0.713308121287412
vn 0.046582583647783025 0.5874904333492379 0.8078892582673829
vn -0.12254080497132099 0.7967701296371144 0.591727227390321
vn -0.17976939022362887 0.46274301202811674 0.8680736553759544
vn -0.21609567467911953 0.8767533391830411 0.4296582847058386
vn -0.42444785795532824 0.3280882150257539 0.8439206947565321
vn -0.29010562718191046 0.9378295109246824 0.19056372560422336
vn -0.2308989509423726 0.9378295208664388 0.25915528982665476
vn -0.45661701524901405 0.8767533266896349 0.1510116072483828
vn -0.6032804934407096 0.7967701396908395 0.034784921028715006
vn -0.699647749818575 0.6996426808495376 -0.14489011459542955
vn -0.7924175542178988 0.5874904445714836 -0.1641017894616747
vn -0.8850225095696405 0.46274300731021123 0.05103005722667278
vn -0.896872005282761 0.3280882169668091 0.2966120834147169
vn -0.821156398603435 0.1864162151382915 0.5393988911428634
vn -0.6535694567448364 0.1864162106282092 0.7335502447857807
vn 0.22434538261062464 0.6996426808495376 0.6783577731809112
vn 0.2540924302030588 0.5874904445714836 0.7683046364891366
vn 0.034784921028715506 0.7967701396908395 0.6032804934407094
vn 0.05103005722667303 0.46274300731021134 0.8850225095696405
vn -0.09752858012078539 0.8767533266896351 0.47094774678119194
vn -0.1915624938031351 0.3280882169668092 0.9250199634902286
vn -0.15595691468508194 0.9378295109246824 0.31008587391347164
vn -0.44144283043845894 0.18641621513829154 0.8777113547106454
vn -0.17185682454186477 0.9786323820382187 0.11288885101988069
vn -0.13678315934572072 0.9786323869548036 0.15352204572160585
vn -0.32954207585251444 0.9378294930977842 0.10898560509887818
vn -0.4801428162924161 0.8767533433328024 0.02768484996420372
vn -0.591727227390321 0.7967701296371144 -0.1225408049713209
vn -0.6383074797440181 0.699642699830824 -0.3210352844724007
vn -0.7229439060323033 0.5874904174011522 -0.36360296779946116
vn -0.8680736553759543 0.46274301202811663 -0.17976939022362867
vn -0.9430806937090214 0.3280882109785234 0.05437766977559104
vn -0.9327828690978959 0.1864162032503815 0.3084884410852538
vn -0.8303023767288056 0.11458400206960333 0.5454067011581446
vn -0.6608488731678234 0.11458399956959262 0.741720482308163
vn 0.3922729248892924 0.699642699830824 0.5971784029686898
vn 0.44428636837104346 0.5874904174011523 0.6763613178926552
vn 0.18974011439163713 0.7967701296371144 0.5737212297873459
vn 0.2783518915485837 0.46274301202811674 0.841658558615352
vn 0.02768484996420258 0.8767533433328024 0.4801428162924161
vn 0.05437766977558932 0.3280882109785234 0.9430806937090214
vn -0.07038671978591206 0.9378294930977842 0.33988461505889395
vn -0.19923265334396445 0.1864162032503815 0.9620578719636549
vn -0.09238798454659941 0.9786323820382187 0.18369300786262774
vn -0.44635961305589666 0.11458400206960333 0.8874872406419729
vn -0.10608506238779804 0.991912284516262 0.06968485749362746
vn -0.08443453094121697 0.9919122849311783 0.09476723583256957
vn -0.19521872458619724 0.9786323839358649 0.06456242469846085
vn -0.3465207357250203 0.937829499020607 0.01998025223434786
vn -0.470947746781192 0.8767533266896351 -0.09752858012078532
vn -0.5398486909829533 0.7967701260121132 -0.2715156664699722
vn -0.6042028343499322 0.5874904322446178 -0.5383251127195727
vn -0.5334676682155105 0.6996426934793178 -0.4753023757879936
vn -0.7919670096339035 0.4627430265410727 -0.39831789696063197
vn -0.9250199634902287 0.3280882169668092 -0.19156249380313498
vn -0.9808417490217529 0.186416201379325 0.05655495768941427
vn -0.9431721661730988 0.11458400819579537 0.3119243017498481
vn -0.6652303711345238 0 0.7466381676021014
vn -0.8358073724476985 0 0.5490228011313136
vn 0.5334676682155105 0.6996426934793178 0.4753023757879936
vn 0.6042028343499322 0.5874904322446178 0.5383251127195727
vn 0.3317649164479675 0.7967701260121132 0.5050637647950154
vn 0.4867045495549492 0.4627430265410727 0.7409369560429024
vn 0.1510116072483828 0.8767533266896351 0.4566170152490141
vn 0.2966120834147169 0.3280882169668092 0.8968720052827611
vn 0.019980252234347958 0.937829499020607 0.34652073572502023
vn 0.056554957689414154 0.18641620137932502 0.980841749021753
vn -0.04169667933818455 0.9786323839358649 0.20134558362222543
vn -0.2014516280261514 0.1145840081957954 0.9727732246682158
vn -0.05702992983386311 0.991912284516262 0.11339138824829167
vn -0.4493190200252813 0 0.8933713775600385
vn 0 1 0
vn -0.12050608279659455 0.9919122830914585 0.039853565227098306
vn -0.20527683416756073 0.9786323753690406 0.011836183240101734
vn -0.33988461505889395 0.9378294930977842 -0.070386719785912
vn -0.42965828470583867 0.8767533391830411 -0.21609567467911944
vn -0.45118041258088537 0.7967701080302513 -0.4019871020975717
vn -0.44428636837104346 0.5874904174011523 -0.6763613178926552
vn -0.3922729248892924 0.699642699830824 -0.5971784029686898
vn -0.6618891043648429 0.4627430410863273 -0.5897217067814985
vn -0.8439206947565324 0.32808821502575397 -0.4244478579553282
vn -0.9620578719636548 0.1864162032503815 -0.19923265334396434
vn -0.9917663022132929 0.11458400068309346 0.05718486322120843
vn -0.9494254961153558 0 0.313992400108841
vn -0.0003401294531226601 -0.9999999090238695 0.00025741835186213235
vn -0.00029107880773165056 -0.9999999042702198 0.0003266996773793077
vn -0.00021661888618657724 -0.9999999090238695 0.00036746225779557795
vn 0.6383074797440181 0.699642699830824 0.3210352844724007
vn 0.7229439060323033 0.5874904174011522 0.36360296779946116
vn 0.45118041258088537 0.7967701080302513 0.4019871020975717
vn 0.6618891043648429 0.4627430410863273 0.5897217067814985
vn 0.2640472391749145 0.8767533391830411 0.4019734291162699
vn 0.5186327475531657 0.32808821502575397 0.7895430300665499
vn 0.10898560509887815 0.9378294930977842 0.32954207585251444
vn 0.3084884410852537 0.1864162032503815 0.9327828690978958
vn 0.011836183240101807 0.9786323753690406 0.2052768341675607
vn 0.05718486322121076 0.11458400068309346 0.9917663022132926
vn -0.02573882602167651 0.9919122830914585 0.12428811482726795
vn -0.20278728097262005 0 0.9792228136005268
vn -0.039853565227098306 0.9919122830914587 -0.12050608279659455
vn -0.011836183240139252 0.9786323753690406 -0.20527683416755854
vn -0.06456242469846084 0.9786323839358649 -0.1952187245861972
vn -0.007306328126162031 0.9919122795302553 -0.12671482662421793
vn -0.06968485749362745 0.991912284516262 -0.10608506238779801
vn -0.11288885101988069 0.9786323820382187 -0.1718568245418647
vn -0.09476723583256956 0.9919122849311783 -0.08443453094121696
vn -0.15352204572160585 0.9786323869548036 -0.13678315934572072
vn -0.11339138824829167 0.991912284516262 -0.057029929833863104
vn -0.18369300786262774 0.9786323820382187 -0.09238798454659938
vn -0.12428811482726798 0.9919122830914587 -0.025738826021676504
vn -0.2013455836222254 0.9786323839358649 -0.04169667933818453
vn -0.1267148266242084 0.9919122795302553 0.0073063281263270885
vn 0.00730632812632693 0.9919122795302553 0.12671482662420844
vn 0.039853565227098306 0.9919122830914587 0.12050608279659455
vn 0.06456242469846084 0.9786323839358649 0.1952187245861972
vn 0.06968485749362745 0.991912284516262 0.10608506238779801
vn 0.11288885101988069 0.9786323820382187 0.1718568245418647
vn 0.09476723583256956 0.9919122849311783 0.08443453094121696
vn 0.15352204572160585 0.9786323869548036 0.13678315934572072
vn 0.11339138824829167 0.991912284516262 0.05702992983386309
vn 0.18369300786262774 0.9786323820382187 0.09238798454659938
vn 0.12428811482726798 0.9919122830914587 0.02573882602167649
vn 0.2013455836222254 0.9786323839358649 0.041696679338184515
vn 0.12671482662420844 0.9919122795302553 -0.007306328126326993
vn 0.20527683416756073 0.9786323753690406 -0.01183618324010205
vn 0.19521872458619724 0.9786323839358649 -0.06456242469846085
vn 0.12050608279659455 0.9919122830914585 -0.03985356522709832
vn 0.17185682454186477 0.9786323820382187 -0.11288885101988069
vn 0.10608506238779804 0.991912284516262 -0.06968485749362746
vn 0.13678315934572072 0.9786323869548036 -0.15352204572160585
vn 0.08443453094121697 0.9919122849311783 -0.09476723583256957
vn 0.09238798454659941 0.9786323820382187 -0.18369300786262774
vn 0.05702992983386311 0.991912284516262 -0.11339138824829167
vn 0.04169667933818455 0.9786323839358649 -0.20134558362222543
vn 0.025738826021676518 0.9919122830914585 -0.12428811482726795
vn -0.9983418178850787 0 0.057564004915538716
vn -0.05756400492367852 0 -0.9983418178846093
vn 0.20278728097262005 0 -0.9792228136005268
vn 0.4493190200252813 0 -0.8933713775600385
vn 0.6652303711345238 0 -0.7466381676021014
vn 0.8358073724476985 0 -0.5490228011313136
vn 0.9494254961153558 0 -0.313992400108841
vn 0.9983418178846094 0 -0.057564004923678275
vn 0.9792228136005267 0 0.20278728097261992
vn 0.8933713775600385 0 0.4493190200252811
vn 0.7466381676021017 0 0.6652303711345237
vn 0.5490228011313139 0 0.8358073724476984
vn 0.313992400108841 0 0.9494254961153559
vn 0.05756400492367852 0 0.9983418178846093
vn -0.9983418178846094 0 0.05756400492367863
vn -0.9792228136005267 0 -0.20278728097261992
vn -0.8933713775600385 0 -0.4493190200252811
vn -0.7466381676021017 0 -0.6652303711345237
vn -0.5490228011313139 0 -0.8358073724476984
vn -0.313992400108841 0 -0.9494254961153559
vn -0.31008587391347164 0.9378295109246824 -0.15595691468508188
vn -0.35908834794938577 0.8767533716439015 -0.31993606185928997
vn -0.3317649164479675 0.7967701260121132 -0.5050637647950154
vn -0.2540924302030588 0.5874904445714836 -0.7683046364891366
vn -0.22434538261062464 0.6996426808495376 -0.6783577731809112
vn -0.4867045495549492 0.4627430265410727 -0.7409369560429024
vn -0.7053095761539211 0.3280881979338176 -0.6284079376982092
vn -0.8777113547106454 0.18641621513829154 -0.4414428304384588
vn -0.9727732246682159 0.1145840081957954 -0.2014516280261513
vn -0.9983418178846094 0 0.05756400492367911
vn -0.9983418178846094 0 0.0575640049236791
vn -0.00040689631391786616 -0.9999999081634017 0.00013456811595336857
vn 0 -1 0
vn -0.00008690881716463141 -0.9999999081634017 0.00041966658862748683
vn 0.7924175542178988 0.5874904445714836 0.1641017894616747
vn 0.699647749818575 0.6996426808495376 0.14489011459542955
vn 0.5398486909829533 0.7967701260121132 0.2715156664699722
vn 0.7919670096339035 0.4627430265410727 0.39831789696063197
vn 0.35908834794938577 0.8767533716439015 0.31993606185928997
vn 0.7053095761539211 0.3280881979338176 0.6284079376982092
vn 0.19056372560422336 0.9378295109246824 0.29010562718191035
vn 0.5393988911428635 0.18641621513829154 0.821156398603435
vn 0.31192430174984803 0.1145840081957954 0.943172166173099
vn 0.0575640052353875 0 0.9983418178666364
vn 0.05756400492367921 0 0.9983418178846093
vn 0.05756400492368129 0 0.9983418178846092
vn -0.0199802522343481 0.937829499020607 -0.34652073572502023
vn -0.10898560509887815 0.9378294930977842 -0.32954207585251444
vn -0.19056372560422336 0.9378295109246824 -0.29010562718191035
vn -0.25915528982665476 0.9378295208664388 -0.23089895094237253
vn 0.25915528982665476 0.9378295208664388 0.23089895094237253
vn 0.31008587391347164 0.9378295109246824 0.15595691468508188
vn 0.33988461505889395 0.9378294930977842 0.070386719785912
vn 0.3465207357250203 0.937829499020607 -0.019980252234347653
vn 0.32954207585251444 0.9378294930977842 -0.10898560509887818
vn 0.29010562718191046 0.9378295109246824 -0.19056372560422336
vn 0.2308989509423726 0.9378295208664388 -0.25915528982665476
vn 0.15595691468508194 0.9378295109246824 -0.31008587391347164
vn 0.07038671978591206 0.9378294930977842 -0.33988461505889395
vn -0.9983418178846094 0 0.057564004923678275
vn 0.9983418178846094 0 -0.05756400492367861
vn -0.2640472391749145 0.8767533391830411 -0.4019734291162699
vn -0.18974011439163713 0.7967701296371144 -0.5737212297873459
vn -0.04658258364778078 0.5874904333492379 -0.807889258267383
vn -0.0411290716969961 0.6996427113654267 -0.7133081212874122
vn -0.2783518915485837 0.46274301202811674 -0.841658558615352
vn -0.5186327475531657 0.32808821502575397 -0.7895430300665499
vn -0.7335502447857807 0.1864162106282092 -0.6535694567448364
vn -0.887487240641973 0.11458400206960333 -0.4463596130558965
vn -0.00042786043599401754 -0.9999999081634083 0.000024670268041460375
vn -0.00042786043599401754 -0.9999999081634083 0.000024670268041460537
vn -0.0004196665886274836 -0.9999999081634017 -0.00008690881716462403
vn -0.00040822483565777285 -0.9999999065716522 -0.00014215896290920496
vn -0.0003199876023438041 -0.9999999081633666 -0.000285098566751881
vn -0.00035752153062282115 -0.9999999065716202 -0.00024297141000836605
vn -0.00023529534906287816 -0.9999999081633828 -0.0003582029099518717
vn -0.00018813702433058475 -0.9999999065716519 -0.0003891800961756211
vn -0.05756400492367851 0 -0.9983418178846093
vn -0.00002467026802124307 -0.9999999081634083 -0.0004278604359951757
vn -0.00008099916721407772 -0.9999999065716617 -0.0004246125326673065
vn -0.000024670268031557895 -0.9999999081634083 -0.00042786043599458095
vn 0.00008690881716462738 -0.9999999081634017 -0.0004196665886274762
vn 0.00021661888618657317 -0.9999999090238695 -0.0003674622577955673
vn 0.00029107880773164655 -0.9999999042702198 -0.0003266996773792971
vn 0.0003401294531226561 -0.9999999090238695 -0.0002574183518621217
vn 0.00040689631391786215 -0.9999999081634017 -0.00013456811595335795
vn 0.9983418178846094 0 -0.05756400492367826
vn 0.00042786043599401353 -0.9999999081634083 -0.00002467026804144961
vn 0.00042786043599401353 -0.9999999081634083 -0.00002467026804144962
vn 0.00041966658862747957 -0.9999999081634017 0.00008690881716463465
vn 0.00040822483565776884 -0.9999999065716522 0.00014215896290921558
vn 0.00035752153062281714 -0.9999999065716202 0.00024297141000837667
vn 0.0003199876023438001 -0.9999999081633666 0.00028509856675189163
vn 0.0002352953490628741 -0.9999999081633828 0.0003582029099518823
vn 0.00018813702433058069 -0.9999999065716519 0.00038918009617563173
vn 0.05756400492367851 0 0.9983418178846093
vn 0.00008099916721407368 -0.9999999065716617 0.00042461253266731715
vn 0.000024670268041452924 -0.9999999081634083 0.0004278604359940208
vn 0.000024670268041452917 -0.9999999081634083 0.0004278604359940208
vn 0.8078892582673829 0.5874904333492379 -0.04658258364778378
vn 0.7133081212874121 0.6996427113654267 -0.04112907169699872
vn 0.591727227390321 0.7967701296371144 0.1225408049713209
vn 0.8680736553759543 0.46274301202811663 0.17976939022362867
vn 0.42965828470583867 0.8767533391830411 0.21609567467911944
vn 0.8439206947565324 0.32808821502575397 0.4244478579553282
vn 0.7335502447857807 0.1864162106282092 0.6535694567448364
vn 0.5454067011581446 0.11458400206960333 0.8303023767288055
vn -0.027684849964205192 0.8767533433328024 -0.48014281629241595
vn -0.1510116072483828 0.8767533266896351 -0.4566170152490141
vn 0.470947746781192 0.8767533266896351 0.09752858012078532
vn 0.4801428162924161 0.8767533433328024 -0.027684849964203246
vn 0.45661701524901405 0.8767533266896349 -0.1510116072483828
vn 0.40197342911626993 0.8767533391830411 -0.2640472391749145
vn 0.31993606185929 0.8767533716439015 -0.3590883479493858
vn 0.21609567467911953 0.8767533391830411 -0.4296582847058386
vn 0.09752858012078539 0.8767533266896351 -0.47094774678119194
vn -0.03478492102871609 0.7967701396908395 -0.6032804934407094
vn 0.16410178946167478 0.5874904445714836 -0.7924175542178988
vn 0.14489011459542966 0.6996426808495376 -0.699647749818575
vn -0.05103005722667073 0.46274300731021123 -0.8850225095696405
vn -0.2966120834147169 0.3280882169668092 -0.8968720052827611
vn -0.5393988911428635 0.18641621513829154 -0.821156398603435
vn -0.741720482308163 0.11458399956959262 -0.6608488731678231
vn -0.057564004887777756 0 -0.9983418178866793
vn -0.05756400520634443 0 -0.9983418178683109
vn -0.187381295528538 0 -0.9822872543640414
vn 0.07323822180533 0 -0.9973144754122409
vn 0.9983418178846094 0 -0.05756400492367838
vn 0.9983418178846094 0 -0.05756400492367837
vn 0.7683046364891364 0.5874904445714835 -0.25409243020305883
vn 0.6783577731809112 0.6996426808495376 -0.2243453826106247
vn 0.6032804934407096 0.7967701396908395 -0.03478492102871498
vn 0.8850225095696403 0.46274300731021123 -0.051030057226673115
vn 0.9250199634902287 0.3280882169668092 0.19156249380313498
vn 0.8777113547106454 0.18641621513829154 0.4414428304384588
vn 0.741720482308163 0.11458399956959262 0.6608488731678231
vn 0.5737212297873459 0.7967701296371144 -0.18974011439163715
vn 0.5050637647950155 0.7967701260121132 -0.3317649164479675
vn 0.40198710209757177 0.7967701080302513 -0.4511804125808854
vn 0.2715156664699723 0.7967701260121132 -0.5398486909829532
vn 0.12254080497132099 0.7967701296371144 -0.591727227390321
vn 0.36360296779946133 0.5874904174011522 -0.7229439060323032
vn 0.3210352844724008 0.699642699830824 -0.6383074797440181
vn 0.17976939022362887 0.46274301202811674 -0.8680736553759544
vn -0.05437766977559361 0.3280882109785234 -0.9430806937090211
vn -0.3084884410852537 0.1864162032503815 -0.9327828690978958
vn -0.5454067011581446 0.11458400206960333 -0.8303023767288055
vn -0.31192430174984803 0.1145840081957954 -0.943172166173099
vn -0.057184863151702646 0.11458400068309346 -0.9917663022173004
vn -0.056554957715301106 0.18641620137932502 -0.9808417490202604
vn -0.9983418178996918 0 0.057564004662101785
vn 0.2014516280261514 0.1145840081957954 -0.9727732246682158
vn 0.19923265334396445 0.1864162032503815 -0.9620578719636549
vn 0.44635961305589666 0.11458400206960333 -0.8874872406419729
vn 0.44144283043845894 0.18641621513829154 -0.8777113547106454
vn 0.6608488731678234 0.11458399956959262 -0.741720482308163
vn 0.6535694567448364 0.1864162106282092 -0.7335502447857807
vn 0.8303023767288056 0.11458400206960333 -0.5454067011581446
vn 0.821156398603435 0.1864162151382915 -0.5393988911428634
vn 0.9431721661730988 0.11458400819579537 -0.3119243017498481
vn 0.9327828690978959 0.1864162032503815 -0.3084884410852538
vn 0.980841749021753 0.186416201379325 -0.05655495768941301
vn 0.991766302213293 0.11458400068309346 -0.05718486322120736
vn 0.9620578719636548 0.1864162032503815 0.19923265334396434
vn 0.9727732246682159 0.1145840081957954 0.2014516280261513
vn 0.887487240641973 0.11458400206960333 0.4463596130558965
vn 0.5971784029686898 0.699642699830824 -0.3922729248892924
vn 0.6763613178926552 0.5874904174011522 -0.44428636837104346
vn 0.8416585586153519 0.46274301202811663 -0.2783518915485837
vn 0.9430806937090214 0.3280882109785234 -0.05437766977559053
vn 0.4753023757879937 0.6996426934793178 -0.5334676682155106
vn 0.5383251127195727 0.5874904322446178 -0.6042028343499322
vn 0.3983178969606321 0.4627430265410727 -0.7919670096339034
vn 0.1915624938031351 0.3280882169668092 -0.9250199634902286
vn 0.42444785795532824 0.3280882150257539 -0.8439206947565321
vn 0.6284079376982092 0.32808819793381755 -0.705309576153921
vn 0.7895430300665499 0.3280882150257539 -0.5186327475531657
vn 0.896872005282761 0.3280882169668091 -0.2966120834147169
vn 0.7409369560429026 0.4627430265410727 -0.4867045495549493
vn 0.5897217067814987 0.4627430410863273 -0.6618891043648429
usemtl material_0_0
f 1//1 2//2 3//3
f 2//2 1//1 4//4
f 5//5 4//4 1//1
f 4//4 5//5 6//6
f 4//4 7//7 2//2
f 7//7 4//4 8//8
f 2//2 9//9 3//3
f 9//9 2//2 10//10
f 1//1 11//11 12//12
f 11//11 1//1 3//3
f 13//13 5//5 14//14
f 5//5 13//13 6//6
f 6//6 8//8 4//4
f 8//8 6//6 15//15
f 5//5 12//12 16//16
f 12//12 5//5 1//1
f 8//8 17//17 7//7
f 17//17 8//8 18//18
f 2//2 19//19 10//10
f 19//19 2//2 7//7
f 10//10 20//20 9//9
f 20//20 10//10 21//21
f 3//3 22//22 11//11
f 22//22 3//3 9//9
f 12//12 23//23 24//24
f 23//23 12//12 11//11
f 25//25 14//14 26//26
f 14//14 25//25 13//13
f 13//13 15//15 6//6
f 15//15 13//13 27//27
f 14//14 16//16 28//28
f 16//16 14//14 5//5
f 15//15 18//18 8//8
f 18//18 15//15 29//29
f 16//16 24//24 30//30
f 24//24 16//16 12//12
f 18//18 31//31 17//17
f 31//31 18//18 32//32
f 7//7 33//33 19//19
f 33//33 7//7 17//17
f 10//10 34//34 21//21
f 34//34 10//10 19//19
f 35//35 20//20 21//21
f 20//20 35//35 36//36
f 9//9 37//37 22//22
f 37//37 9//9 20//20
f 11//11 38//38 23//23
f 38//38 11//11 22//22
f 24//24 39//39 40//40
f 39//39 24//24 23//23
f 41//41 26//26 42//42
f 26//26 41//41 25//25
f 25//25 27//27 13//13
f 27//27 25//25 43//43
f 26//26 28//28 44//44
f 28//28 26//26 14//14
f 27//27 29//29 15//15
f 29//29 27//27 45//45
f 28//28 30//30 46//46
f 30//30 28//28 16//16
f 29//29 32//32 18//18
f 32//32 29//29 47//47
f 30//30 40//40 48//48
f 40//40 30//30 24//24
f 32//32 49//49 31//31
f 49//49 32//32 50//50
f 17//17 51//51 33//33
f 51//51 17//17 31//31
f 19//19 52//52 34//34
f 52//52 19//19 33//33
f 34//34 35//35 21//21
f 35//35 34//34 53//53
f 54//54 36//36 35//35
f 36//36 54//54 55//55
f 36//36 37//37 20//20
f 37//37 36//36 56//56
f 22//22 57//57 38//38
f 57//57 22//22 37//37
f 23//23 58//58 39//39
f 58//58 23//23 38//38
f 40//40 59//59 60//60
f 59//59 40//40 39//39
f 61//61 42//42 62//62
f 42//42 61//61 41//41
f 41//41 43//43 25//25
f 43//43 41//41 63//63
f 42//42 44//44 64//64
f 44//44 42//42 26//26
f 43//43 45//45 27//27
f 45//45 43//43 65//65
f 44//44 46//46 66//66
f 46//46 44//44 28//28
f 45//45 47//47 29//29
f 47//47 45//45 67//67
f 46//46 48//48 68//68
f 48//48 46//46 30//30
f 47//47 50//50 32//32
f 50//50 47//47 69//69
f 48//48 60//60 70//70
f 60//60 48//48 40//40
f 50//50 71//71 49//49
f 71//71 50//50 72//72
f 31//31 73//73 51//51
f 73//73 31//31 49//49
f 33//33 74//74 52//52
f 74//74 33//33 51//51
f 52//52 53//53 34//34
f 53//53 52//52 75//75
f 53//53 54//54 35//35
f 54//54 53//53 76//76
f 54//54 77//77 55//55
f 77//77 54//54 78//78
f 55//55 56//56 36//36
f 56//56 55//55 79//79
f 37//37 80//80 57//57
f 80//80 37//37 56//56
f 38//38 81//81 58//58
f 81//81 38//38 57//57
f 39//39 82//82 59//59
f 82//82 39//39 58//58
f 83//83 84//84 85//83
f 84//84 83//83 86//83
f 84//84 86//83 87//84
f 84//84 87//84 88//84
f 62//62 89//85 61//61
f 89//85 62//62 90//86
f 41//41 91//87 63//63
f 91//87 41//41 61//61
f 62//62 64//64 92//88
f 64//64 62//62 42//42
f 43//43 93//89 65//65
f 93//89 43//43 63//63
f 64//64 66//66 94//90
f 66//66 64//64 44//44
f 65//65 67//67 45//45
f 67//67 65//65 95//91
f 66//66 68//68 96//92
f 68//68 66//66 46//46
f 67//67 69//69 47//47
f 69//69 67//67 97//93
f 68//68 70//70 98//94
f 70//70 68//68 48//48
f 69//69 72//72 50//50
f 72//72 69//69 99//95
f 100//96 85//83 101//96
f 85//83 100//96 83//83
f 83//83 100//96 102//96
f 83//83 102//96 86//83
f 103//97 104//97 105//97
f 104//97 103//97 106//97
f 105//97 104//97 107//97
f 105//97 107//97 108//97
f 105//97 108//97 109//97
f 109//97 108//97 110//97
f 109//97 110//97 111//97
f 111//97 110//97 112//97
f 111//97 112//97 113//97
f 113//97 112//97 114//97
f 115//97 116//97 117//97
f 116//97 115//97 118//97
f 116//97 118//97 103//97
f 103//97 118//97 106//97
f 106//97 118//97 119//97
f 119//97 118//97 120//97
f 119//97 120//97 121//97
f 121//97 120//97 122//97
f 122//97 120//97 123//97
f 122//97 123//97 124//97
f 124//97 123//97 125//97
f 124//97 125//97 126//97
f 126//97 125//97 127//97
f 126//97 127//97 128//97
f 128//97 127//97 129//97
f 128//97 129//97 130//97
f 130//97 129//97 131//97
f 131//97 129//97 132//97
f 131//97 132//97 133//97
f 133//97 132//97 134//97
f 133//97 134//97 135//97
f 135//97 134//97 136//97
f 135//97 136//97 137//97
f 137//97 136//97 138//97
f 139//97 113//97 114//97
f 113//97 139//97 140//97
f 140//97 139//97 141//97
f 140//97 141//97 142//97
f 142//97 141//97 143//97
f 142//97 143//97 144//97
f 144//97 143//97 145//97
f 144//97 145//97 146//97
f 146//97 145//97 147//97
f 146//97 147//97 138//97
f 146//97 138//97 136//97
f 146//97 136//97 148//97
f 146//97 148//97 149//97
f 149//97 148//97 150//97
f 49//49 151//98 73//73
f 151//98 49//49 71//71
f 51//51 152//99 74//74
f 152//99 51//51 73//73
f 74//74 75//75 52//52
f 75//75 74//74 153//100
f 75//75 76//76 53//53
f 76//76 75//75 154//101
f 76//76 78//78 54//54
f 78//78 76//76 155//102
f 78//78 156//103 77//77
f 156//103 78//78 157//104
f 77//77 79//79 55//55
f 79//79 77//77 158//105
f 79//79 80//80 56//56
f 80//80 79//79 159//106
f 80//80 81//81 57//57
f 81//81 80//80 160//107
f 58//58 161//108 82//82
f 161//108 58//58 81//81
f 88//84 162//109 84//84
f 162//109 88//84 87//84
f 162//109 87//84 163//109
f 162//109 163//109 164//109
f 165//110 166//111 167//110
f 166//111 165//110 168//112
f 168//112 165//110 169//111
f 168//112 169//111 170//112
f 90//86 171//113 89//85
f 171//113 90//86 172//114
f 61//61 173//115 91//87
f 173//115 61//61 89//85
f 90//86 92//88 174//116
f 92//88 90//86 62//62
f 63//63 175//117 93//89
f 175//117 63//63 91//87
f 92//88 94//90 176//118
f 94//90 92//88 64//64
f 93//89 95//91 65//65
f 95//91 93//89 177//119
f 94//90 96//92 178//120
f 96//92 94//90 66//66
f 95//91 97//93 67//67
f 97//93 95//91 179//121
f 96//92 98//94 180//122
f 98//94 96//92 68//68
f 97//93 99//95 69//69
f 99//95 97//93 181//123
f 182//124 101//96 183//124
f 101//96 182//124 100//96
f 100//96 182//124 184//124
f 100//96 184//124 102//96
f 185//125 186//126 187//127
f 186//126 185//125 188//128
f 189//129 187//127 190//130
f 187//127 189//129 185//125
f 191//131 190//130 192//132
f 190//130 191//131 189//129
f 193//133 192//132 194//134
f 192//132 193//133 191//131
f 195//135 194//134 196//136
f 194//134 195//135 193//133
f 197//137 196//136 152//99
f 196//136 197//137 195//135
f 73//73 197//137 152//99
f 197//137 73//73 151//98
f 179//121 181//123 97//93
f 181//123 179//121 198//138
f 179//121 199//139 198//138
f 199//139 179//121 200//140
f 200//140 201//141 199//139
f 201//141 200//140 202//142
f 202//142 203//143 201//141
f 203//143 202//142 204//144
f 204//144 205//145 203//143
f 205//145 204//144 206//146
f 206//146 207//147 205//145
f 207//147 206//146 208//148
f 208//148 209//149 207//147
f 209//149 208//148 210//150
f 209//149 211//151 212//152
f 211//151 209//149 210//150
f 212//152 213//153 214//154
f 213//153 212//152 211//151
f 214//154 215//155 216//156
f 215//155 214//154 213//153
f 216//156 217//157 218//158
f 217//157 216//156 215//155
f 218//158 219//159 220//160
f 219//159 218//158 217//157
f 188//128 219//159 186//126
f 219//159 188//128 220//160
f 221//161 222//161 223//161
f 224//162 225//163 226//162
f 225//163 224//162 227//163
f 227//163 228//164 225//163
f 228//164 227//163 229//164
f 229//164 230//165 228//164
f 230//165 229//164 231//165
f 230//165 232//166 233//166
f 232//166 230//165 231//165
f 233//166 234//167 235//167
f 234//167 233//166 232//166
f 235//167 236//168 237//168
f 236//168 235//167 234//167
f 237//168 238//169 239//169
f 238//169 237//168 236//168
f 239//169 240//170 241//170
f 240//170 239//169 238//169
f 241//170 242//171 243//171
f 242//171 241//170 240//170
f 242//171 244//172 243//171
f 244//172 242//171 245//172
f 245//172 246//173 244//172
f 246//173 245//172 247//173
f 247//173 248//174 246//173
f 248//174 247//173 249//174
f 249//174 250//124 248//174
f 250//124 249//174 251//124
f 251//124 252//96 250//124
f 252//96 251//124 253//96
f 253//96 254//83 252//96
f 254//83 253//96 255//83
f 256//84 254//83 255//83
f 254//83 256//84 257//84
f 258//109 257//84 256//84
f 257//84 258//109 259//109
f 260//175 259//109 258//109
f 259//109 260//175 261//175
f 262//176 261//175 260//175
f 261//175 262//176 263//176
f 264//177 263//176 262//176
f 263//176 264//177 265//177
f 266//178 265//177 264//177
f 265//177 266//178 267//178
f 266//178 268//179 267//178
f 268//179 266//178 269//179
f 269//179 270//180 268//179
f 270//180 269//179 271//180
f 271//180 226//162 270//180
f 226//162 271//180 224//162
f 152//99 153//100 74//74
f 153//100 152//99 196//136
f 153//100 154//101 75//75
f 154//101 153//100 272//181
f 154//101 155//102 76//76
f 155//102 154//101 273//182
f 155//102 157//104 78//78
f 157//104 155//102 274//183
f 157//104 275//184 156//103
f 275//184 157//104 276//185
f 77//77 277//186 158//105
f 277//186 77//77 156//103
f 158//105 159//106 79//79
f 159//106 158//105 278//187
f 159//106 160//107 80//80
f 160//107 159//106 279//188
f 160//107 161//108 81//81
f 161//108 160//107 280//189
f 164//109 281//190 162//109
f 281//190 164//109 163//109
f 281//190 163//109 282//191
f 281//190 282//191 283//190
f 284//192 167//110 285//192
f 167//110 284//192 165//110
f 286//84 287//83 288//83
f 287//83 286//84 289//84
f 290//193 291//193 292//193
f 291//193 290//193 293//193
f 291//193 293//193 294//193
f 294//193 293//193 295//193
f 294//193 295//193 296//193
f 296//193 295//193 297//193
f 296//193 297//193 298//193
f 298//193 297//193 299//193
f 298//193 299//193 300//193
f 300//193 299//193 301//193
f 300//193 301//193 302//193
f 302//193 301//193 303//193
f 302//193 303//193 304//193
f 304//193 303//193 305//193
f 304//193 305//193 306//193
f 306//193 305//193 307//193
f 306//193 307//193 308//193
f 308//193 307//193 309//193
f 308//193 309//193 310//193
f 310//193 309//193 311//193
f 310//193 311//193 312//193
f 312//193 311//193 313//193
f 314//96 287//83 315//96
f 287//83 314//96 288//83
f 170//112 316//194 168//112
f 316//194 170//112 317//194
f 318//195 171//113 172//114
f 171//113 318//195 319//196
f 89//85 320//197 173//115
f 320//197 89//85 171//113
f 321//198 90//86 174//116
f 90//86 321//198 172//114
f 91//87 322//199 175//117
f 322//199 91//87 173//115
f 174//116 176//118 323//200
f 176//118 174//116 92//88
f 93//89 324//201 177//119
f 324//201 93//89 175//117
f 176//118 178//120 325//202
f 178//120 176//118 94//90
f 177//119 179//121 95//91
f 179//121 177//119 200//140
f 178//120 180//122 326//203
f 180//122 178//120 96//92
f 327//204 183//124 328//205
f 183//124 327//204 182//124
f 182//124 327//204 329//206
f 182//124 329//206 184//124
f 187//127 330//207 331//208
f 330//207 187//127 186//126
f 190//130 331//208 332//209
f 331//208 190//130 187//127
f 192//132 332//209 333//210
f 332//209 192//132 190//130
f 194//134 333//210 272//181
f 333//210 194//134 192//132
f 196//136 272//181 153//100
f 272//181 196//136 194//134
f 177//119 202//142 200//140
f 202//142 177//119 324//201
f 324//201 204//144 202//142
f 204//144 324//201 334//211
f 334//211 206//146 204//144
f 206//146 334//211 335//212
f 335//212 208//148 206//146
f 208//148 335//212 336//213
f 336//213 210//150 208//148
f 210//150 336//213 337//214
f 210//150 338//215 211//151
f 338//215 210//150 337//214
f 211//151 339//216 213//153
f 339//216 211//151 338//215
f 213//153 340//217 215//155
f 340//217 213//153 339//216
f 215//155 341//218 217//157
f 341//218 215//155 340//217
f 217//157 342//219 219//159
f 342//219 217//157 341//218
f 219//159 330//207 186//126
f 330//207 219//159 342//219
f 343//97 344//97 345//97
f 344//97 343//97 346//97
f 344//97 346//97 347//97
f 347//97 346//97 348//97
f 347//97 348//97 349//97
f 349//97 348//97 350//97
f 349//97 350//97 351//97
f 351//97 350//97 352//97
f 351//97 352//97 353//97
f 353//97 352//97 354//97
f 353//97 354//97 355//97
f 355//97 354//97 356//97
f 355//97 356//97 357//97
f 357//97 356//97 358//97
f 357//97 358//97 359//97
f 359//97 358//97 360//97
f 359//97 360//97 361//97
f 361//97 360//97 362//97
f 361//97 362//97 363//97
f 363//97 362//97 364//97
f 363//97 364//97 365//97
f 365//97 364//97 366//97
f 367//124 368//174 369//124
f 368//174 367//124 370//174
f 371//96 369//124 372//96
f 369//124 371//96 367//124
f 373//83 372//96 374//83
f 372//96 373//83 371//96
f 373//83 375//84 376//84
f 375//84 373//83 374//83
f 376//84 377//109 378//109
f 377//109 376//84 375//84
f 378//109 379//220 380//220
f 379//220 378//109 377//109
f 380//220 381//176 382//176
f 381//176 380//220 379//220
f 382//176 383//177 384//177
f 383//177 382//176 381//176
f 384//177 385//178 386//178
f 385//178 384//177 383//177
f 387//179 385//178 388//179
f 385//178 387//179 386//178
f 389//180 388//179 390//180
f 388//179 389//180 387//179
f 391//162 390//180 392//162
f 390//180 391//162 389//180
f 393//163 392//162 394//163
f 392//162 393//163 391//162
f 395//164 394//163 396//164
f 394//163 395//164 393//163
f 397//165 396//164 398//165
f 396//164 397//165 395//164
f 399//166 397//165 398//165
f 397//165 399//166 400//166
f 401//167 400//166 399//166
f 400//166 401//167 402//167
f 403//221 402//167 401//167
f 402//167 403//221 404//221
f 405//169 404//221 403//221
f 404//221 405//169 406//169
f 407//170 406//169 405//169
f 406//169 407//170 408//170
f 409//171 408//170 407//170
f 408//170 409//171 410//171
f 411//172 409//171 412//172
f 409//171 411//172 410//171
f 413//173 412//172 414//173
f 412//172 413//173 411//172
f 370//174 414//173 368//174
f 414//173 370//174 413//173
f 272//181 273//182 154//101
f 273//182 272//181 333//210
f 273//182 274//183 155//102
f 274//183 273//182 415//222
f 274//183 276//185 157//104
f 276//185 274//183 416//223
f 276//185 417//224 275//184
f 417//224 276//185 418//225
f 156//103 419//226 277//186
f 419//226 156//103 275//184
f 158//105 420//227 278//187
f 420//227 158//105 277//186
f 278//187 279//188 159//106
f 279//188 278//187 421//228
f 279//188 280//189 160//107
f 280//189 279//188 422//229
f 423//176 283//190 282//191
f 283//190 423//176 281//190
f 281//190 423//176 424//176
f 281//190 424//176 425//176
f 426//230 285//192 427//231
f 285//192 426//230 284//192
f 428//109 289//84 286//84
f 289//84 428//109 429//109
f 430//175 429//109 428//109
f 429//109 430//175 431//175
f 432//176 431//175 430//175
f 431//175 432//176 433//176
f 434//232 426//230 427//231
f 426//230 434//232 435//232
f 436//177 433//176 432//176
f 433//176 436//177 437//177
f 438//233 435//232 434//232
f 435//232 438//233 439//233
f 440//178 437//177 436//177
f 437//177 440//178 441//178
f 442//234 443//235 444//235
f 443//235 442//234 445//234
f 440//178 446//179 441//178
f 446//179 440//178 447//179
f 448//236 445//234 442//234
f 445//234 448//236 449//236
f 447//179 450//180 446//179
f 450//180 447//179 451//180
f 452//237 449//236 448//236
f 449//236 452//237 453//237
f 451//180 454//238 450//180
f 454//238 451//180 455//238
f 456//239 457//240 458//240
f 457//240 456//239 459//241
f 455//238 460//163 454//238
f 460//163 455//238 461//163
f 456//239 462//242 459//241
f 462//242 456//239 463//242
f 461//163 464//164 460//163
f 464//164 461//163 465//164
f 463//242 466//243 462//242
f 466//243 463//242 467//243
f 465//164 468//165 464//164
f 468//165 465//164 469//165
f 467//243 470//244 466//243
f 470//244 467//243 471//245
f 471//245 467//243 472//245
f 472//245 467//243 473//244
f 468//165 474//166 475//166
f 474//166 468//165 469//165
f 475//166 476//167 477//167
f 476//167 475//166 474//166
f 472//245 478//246 471//245
f 478//246 472//245 479//246
f 477//167 480//247 481//247
f 480//247 477//167 476//167
f 479//246 482//248 478//246
f 482//248 479//246 483//249
f 481//247 484//169 485//169
f 484//169 481//247 480//247
f 482//248 486//250 487//250
f 486//250 482//248 483//249
f 485//169 488//170 489//170
f 488//170 485//169 484//169
f 487//250 490//251 491//251
f 490//251 487//250 486//250
f 489//170 492//171 493//171
f 492//171 489//170 488//170
f 494//252 495//253 496//253
f 495//253 494//252 497//252
f 492//171 498//172 493//171
f 498//172 492//171 499//172
f 496//253 500//254 501//254
f 500//254 496//253 495//253
f 499//172 502//173 498//172
f 502//173 499//172 503//173
f 501//254 504//255 505//255
f 504//255 501//254 500//254
f 503//173 506//256 502//173
f 506//256 503//173 507//256
f 508//257 509//258 510//259
f 509//258 508//257 511//257
f 507//256 512//124 506//256
f 512//124 507//256 513//124
f 317//194 509//258 316//194
f 509//258 317//194 510//259
f 513//124 315//96 512//124
f 315//96 513//124 314//96
f 514//260 319//196 318//195
f 319//196 514//260 515//261
f 171//113 516//262 320//197
f 516//262 171//113 319//196
f 517//263 172//114 321//198
f 172//114 517//263 318//195
f 173//115 518//264 322//199
f 518//264 173//115 320//197
f 519//265 174//116 323//200
f 174//116 519//265 321//198
f 175//117 334//211 324//201
f 334//211 175//117 322//199
f 323//200 325//202 520//266
f 325//202 323//200 176//118
f 325//202 326//203 521//267
f 326//203 325//202 178//120
f 522//173 328//205 523//173
f 328//205 522//173 327//204
f 327//204 522//173 524//173
f 327//204 524//173 329//206
f 331//208 525//268 526//269
f 525//268 331//208 330//207
f 332//209 526//269 415//222
f 526//269 332//209 331//208
f 333//210 415//222 273//182
f 415//222 333//210 332//209
f 322//199 335//212 334//211
f 335//212 322//199 518//264
f 518//264 336//213 335//212
f 336//213 518//264 527//270
f 527//270 337//214 336//213
f 337//214 527//270 528//271
f 337//214 529//272 338//215
f 529//272 337//214 528//271
f 338//215 530//273 339//216
f 530//273 338//215 529//272
f 339//216 531//274 340//217
f 531//274 339//216 530//273
f 340//217 532//275 341//218
f 532//275 340//217 531//274
f 341//218 533//276 342//219
f 533//276 341//218 532//275
f 342//219 525//268 330//207
f 525//268 342//219 533//276
f 415//222 416//223 274//183
f 416//223 415//222 526//269
f 416//223 418//225 276//185
f 418//225 416//223 534//277
f 418//225 535//278 417//224
f 535//278 418//225 536//279
f 275//184 537//280 419//226
f 537//280 275//184 417//224
f 277//186 538//281 420//227
f 538//281 277//186 419//226
f 278//187 539//282 421//228
f 539//282 278//187 420//227
f 421//228 422//229 279//188
f 422//229 421//228 540//283
f 541//177 424//176 423//176
f 424//176 541//177 425//176
f 425//176 541//177 542//177
f 425//176 542//177 543//177
f 544//178 542//177 541//177
f 542//177 544//178 543//177
f 543//177 544//178 545//178
f 543//177 545//178 546//178
f 545//178 547//179 546//178
f 547//179 545//178 548//179
f 548//179 545//178 544//178
f 548//179 544//178 549//179
f 548//179 550//180 547//179
f 550//180 548//179 551//180
f 551//180 548//179 549//179
f 551//180 549//179 552//180
f 551//180 553//284 550//180
f 553//284 551//180 554//285
f 554//285 551//180 552//180
f 554//285 552//180 555//286
f 554//285 556//163 553//284
f 556//163 554//285 557//163
f 557//163 554//285 558//287
f 557//163 558//287 559//163
f 557//163 560//164 556//163
f 560//164 557//163 561//164
f 561//164 557//163 559//163
f 561//164 559//163 562//164
f 561//164 563//165 560//164
f 563//165 561//164 564//165
f 564//165 561//164 562//164
f 564//165 562//164 565//165
f 566//166 565//165 567//166
f 565//165 566//166 568//166
f 565//165 568//166 564//165
f 564//165 568//166 563//165
f 569//167 567//166 570//167
f 567//166 569//167 571//167
f 567//166 571//167 566//166
f 566//166 571//167 568//166
f 571//167 572//288 573//288
f 572//288 571//167 574//289
f 574//289 571//167 569//167
f 574//289 569//167 570//167
f 573//288 575//169 576//169
f 575//169 573//288 577//169
f 577//169 573//288 574//289
f 574//289 573//288 572//288
f 576//169 578//170 579//170
f 578//170 576//169 580//170
f 580//170 576//169 577//169
f 577//169 576//169 575//169
f 579//170 581//171 582//171
f 581//171 579//170 583//171
f 583//171 579//170 580//170
f 580//170 579//170 578//170
f 581//171 584//172 582//171
f 584//172 581//171 585//172
f 585//172 581//171 583//171
f 585//172 583//171 586//172
f 585//172 523//173 584//172
f 523//173 585//172 522//173
f 522//173 585//172 586//172
f 522//173 586//172 524//173
f 587//290 515//261 514//260
f 515//261 587//290 588//291
f 319//196 589//292 516//262
f 589//292 319//196 515//261
f 590//293 318//195 517//263
f 318//195 590//293 514//260
f 320//197 527//270 518//264
f 527//270 320//197 516//262
f 591//294 321//198 519//265
f 321//198 591//294 517//263
f 592//295 323//200 520//266
f 323//200 592//295 519//265
f 520//266 521//267 593//296
f 521//267 520//266 325//202
f 526//269 534//277 416//223
f 534//277 526//269 525//268
f 516//262 528//271 527//270
f 528//271 516//262 589//292
f 528//271 594//297 529//272
f 594//297 528//271 589//292
f 529//272 595//298 530//273
f 595//298 529//272 594//297
f 530//273 596//299 531//274
f 596//299 530//273 595//298
f 531//274 597//300 532//275
f 597//300 531//274 596//299
f 532//275 598//301 533//276
f 598//301 532//275 597//300
f 533//276 534//277 525//268
f 534//277 533//276 598//301
f 598//301 418//225 534//277
f 418//225 598//301 536//279
f 536//279 599//302 535//278
f 599//302 536//279 600//303
f 417//224 601//304 537//280
f 601//304 417//224 535//278
f 419//226 602//305 538//281
f 602//305 419//226 537//280
f 420//227 603//306 539//282
f 603//306 420//227 538//281
f 421//228 604//307 540//283
f 604//307 421//228 539//282
f 539//282 605//308 604//307
f 605//308 539//282 603//306
f 603//306 606//309 605//308
f 606//309 603//306 607//310
f 608//311 609//311 610//311
f 607//310 611//312 606//309
f 611//312 607//310 612//313
f 612//313 613//314 611//312
f 613//314 612//313 614//315
f 614//315 615//316 613//314
f 615//316 614//315 616//317
f 617//318 616//317 618//319
f 616//317 617//318 615//316
f 619//320 618//319 620//321
f 618//319 619//320 617//318
f 619//320 621//322 622//323
f 621//322 619//320 620//321
f 622//323 623//324 624//325
f 623//324 622//323 621//322
f 624//325 592//295 625//326
f 592//295 624//325 623//324
f 625//326 520//266 593//296
f 520//266 625//326 592//295
f 587//290 626//327 588//291
f 626//327 587//290 627//328
f 589//292 588//291 594//297
f 588//291 589//292 515//261
f 628//329 514//260 590//293
f 514//260 628//329 587//290
f 629//330 517//263 591//294
f 517//263 629//330 590//293
f 623//324 519//265 592//295
f 519//265 623//324 591//294
f 594//297 626//327 595//298
f 626//327 594//297 588//291
f 595//298 630//331 596//299
f 630//331 595//298 626//327
f 596//299 600//303 597//300
f 600//303 596//299 630//331
f 597//300 536//279 598//301
f 536//279 597//300 600//303
f 630//331 599//302 600//303
f 599//302 630//331 631//332
f 535//278 632//333 601//304
f 632//333 535//278 599//302
f 537//280 633//334 602//305
f 633//334 537//280 601//304
f 538//281 607//310 603//306
f 607//310 538//281 602//305
f 602//305 612//313 607//310
f 612//313 602//305 633//334
f 633//334 614//315 612//313
f 614//315 633//334 634//335
f 634//335 616//317 614//315
f 616//317 634//335 635//336
f 618//319 635//336 636//337
f 635//336 618//319 616//317
f 620//321 636//337 637//338
f 636//337 620//321 618//319
f 620//321 629//330 621//322
f 629//330 620//321 637//338
f 621//322 591//294 623//324
f 591//294 621//322 629//330
f 626//327 631//332 630//331
f 631//332 626//327 627//328
f 628//329 627//328 587//290
f 627//328 628//329 638//339
f 629//330 628//329 590//293
f 628//329 629//330 637//338
f 599//302 639//340 632//333
f 639//340 599//302 631//332
f 601//304 634//335 633//334
f 634//335 601//304 632//333
f 632//333 635//336 634//335
f 635//336 632//333 639//340
f 636//337 639//340 638//339
f 639//340 636//337 635//336
f 637//338 638//339 628//329
f 638//339 637//338 636//337
f 638//339 631//332 627//328
f 631//332 638//339 639//340
