# SSTK version 0.8.0
# 5
mtllib original-5.mtl
o #ID116
v -0.07456405 0.75011509 -0.02317590
v -0.07223988 0.75012242 0.01824278
v -0.07615489 0.75016692 -0.00241041
v -0.06770589 0.75008231 -0.04284480
v -0.06324219 0.75011396 0.03700971
v -0.06281862 0.75015541 -0.00310726
v -0.06142219 0.75005814 -0.02051467
v -0.05606445 0.75003780 -0.06011814
v -0.05567142 0.75011235 -0.03678751
v -0.04608039 0.75015828 -0.05133140
v -0.04017515 0.75007988 -0.07376888
v -0.03286311 0.75018492 -0.06254427
v -0.02143655 0.75014022 -0.08294642
v -0.01714004 0.75004273 -0.07025668
v -0.00083085 0.75011550 -0.08693115
v -0.00004530 0.75014098 -0.07334189
v 0.01993298 0.75013270 -0.08537942
v 0.01732202 0.75018210 -0.07207470
v 0.03367683 0.75005565 -0.06635850
v 0.03961947 0.74999045 -0.07835182
v 0.04803825 0.75016233 -0.05668904
v 0.05699962 0.75013251 -0.06662240
v 0.05943422 0.75007810 -0.04352354
v 0.07060747 0.75013263 -0.05096505
v 0.06702598 0.75013031 -0.02787959
v 0.07016990 0.75003480 -0.01079858
v -0.05959261 0.75016257 0.01389729
v -0.04955397 0.75012237 0.05284490
v -0.05200613 0.75014110 0.02957359
v -0.04047603 0.75015433 0.04278390
v -0.03218923 0.75012841 0.06453617
v -0.02613652 0.75006040 0.05265610
v -0.01248318 0.75008425 0.07134030
v -0.00976964 0.75018408 0.05824008
v 0.00828256 0.75010459 0.07295477
v 0.00749828 0.75011980 0.05962067
v 0.02462944 0.75016897 0.05624407
v 0.02894187 0.75015485 0.06911087
v 0.04021087 0.75006116 0.04882789
v 0.04763652 0.75006257 0.06003969
v 0.05338483 0.75018399 0.03746424
v 0.06344298 0.75018100 0.04632244
v 0.06329916 0.75008860 0.02307659
v 0.07527766 0.75018623 0.02896168
v 0.06891672 0.75010920 0.00659138
v 0.07982834 0.74999839 -0.03198196
v 0.08215347 0.75012075 0.00927105
v 0.08374695 0.75015786 -0.01164046
v 0.02881299 0.92050196 0.06908034
v 0.00829737 0.75017888 0.07292178
v 0.02877484 0.75017259 0.06908799
v 0.00833705 0.92069898 0.07295348
v -0.01249322 0.75014529 0.07143440
v -0.01244816 0.92059107 0.07137046
v -0.03231163 0.75009398 0.06457458
v -0.03224983 0.92051857 0.06456205
v -0.04953220 0.75012817 0.05273177
v -0.04943871 0.92064163 0.05287575
v -0.06325189 0.92062417 0.03693839
v -0.06307537 0.75006268 0.03708857
v -0.07227280 0.92054034 0.01819104
v -0.07235192 0.75012894 0.01816396
v -0.07620935 0.92058436 -0.00238415
v -0.07623147 0.75011354 -0.00225773
v -0.07458617 0.92064260 -0.02312909
v -0.07467227 0.75009630 -0.02316130
v -0.06775134 0.92067111 -0.04300272
v -0.06769927 0.74999556 -0.04283755
v -0.05595664 0.92058780 -0.06025295
v -0.05603922 0.75010284 -0.06021082
v -0.04013178 0.75015158 -0.07377937
v -0.04017625 0.92069620 -0.07385496
v -0.02148305 0.75011167 -0.08300615
v -0.02140119 0.92066055 -0.08296041
v -0.00096663 0.75014563 -0.08687349
v -0.00093658 0.92068249 -0.08681170
v 0.01992488 0.75013530 -0.08529730
v 0.02001876 0.92064825 -0.08526938
v 0.03965944 0.75007048 -0.07839480
v 0.03970019 0.92061131 -0.07850176
v 0.05689864 0.75012889 -0.06667690
v 0.05701531 0.92052494 -0.06669231
v 0.07062787 0.92053856 -0.05091979
v 0.07061449 0.75002899 -0.05088421
v 0.07980621 0.92060161 -0.03214675
v 0.07971444 0.75018224 -0.03213784
v 0.08363252 0.92051531 -0.01153634
v 0.08373382 0.75011686 -0.01150663
v 0.08213400 0.92053686 0.00937540
v 0.08218633 0.75001892 0.00932265
v 0.07534225 0.92055750 0.02894916
v 0.07530649 0.75014928 0.02900722
v 0.06351666 0.92052838 0.04638108
v 0.06359199 0.75000887 0.04634935
v 0.04766740 0.75003325 0.06003500
v 0.04777936 0.92061179 0.05992285
v -0.07220590 0.92066960 0.01824117
v -0.07466554 0.92062272 -0.02327369
v -0.07621664 0.92052282 -0.00230488
v -0.06311549 0.92056601 0.03696988
v -0.06771319 0.92057790 -0.04282358
v -0.06266177 0.92062345 -0.00304705
v -0.05942694 0.92059610 0.01406109
v -0.04943992 0.92052321 0.05281959
v -0.05186112 0.92068009 0.02965727
v -0.04062006 0.92064953 0.04275222
v -0.03227721 0.92055107 0.06447176
v -0.02619522 0.92065150 0.05259334
v -0.01250945 0.92067471 0.07134210
v -0.00971444 0.92064362 0.05836096
v 0.00832637 0.92051313 0.07287883
v 0.00756498 0.92063096 0.05955149
v 0.02894296 0.92054888 0.06909247
v 0.02461951 0.92065548 0.05625858
v 0.04026509 0.92056406 0.04881322
v 0.04765697 0.92056447 0.05991796
v 0.05345373 0.92059075 0.03738558
v 0.06359315 0.92065730 0.04636095
v 0.06323528 0.92055883 0.02298978
v 0.07520305 0.92062307 0.02898265
v 0.06902972 0.92067140 0.00651201
v 0.07022459 0.92052986 -0.01081858
v -0.06157626 0.92058452 -0.02038035
v -0.05599966 0.92054989 -0.06010139
v -0.05571941 0.92050203 -0.03688930
v -0.04591091 0.92050961 -0.05116821
v -0.04025117 0.92060935 -0.07390048
v -0.03279111 0.92055530 -0.06254523
v -0.02147822 0.92065245 -0.08297983
v -0.01713238 0.92067293 -0.07019233
v -0.00077944 0.92054599 -0.08694527
v -0.00012235 0.92054532 -0.07334015
v 0.01731731 0.92056669 -0.07223730
v 0.02003863 0.92062725 -0.08527312
v 0.03361804 0.92068532 -0.06652492
v 0.03963811 0.92051255 -0.07835828
v 0.04798584 0.92069316 -0.05677053
v 0.05707657 0.92050392 -0.06672341
v 0.05938987 0.92060794 -0.04357330
v 0.07065624 0.92058111 -0.05094321
v 0.06698892 0.92056098 -0.02781198
v 0.08221312 0.92064235 0.00934218
v 0.07977061 0.92057926 -0.03210229
v 0.08358078 0.92054963 -0.01163197
vn 0 -1 0
vn 0.313992400108841 0 0.9494254961153559
vn 0.05756400492367852 0 0.9983418178846093
vn -0.20278728097262005 0 0.9792228136005268
vn -0.4493190200252813 0 0.8933713775600385
vn -0.6652303711345238 0 0.7466381676021014
vn -0.8358073724476985 0 0.5490228011313136
vn -0.9494254961153558 0 0.313992400108841
vn -0.9983418178846094 0 0.05756400492367863
vn -0.9792228136005267 0 -0.20278728097261992
vn -0.8933713775600385 0 -0.4493190200252811
vn -0.7466381676021017 0 -0.6652303711345237
vn -0.5490228011313139 0 -0.8358073724476984
vn -0.313992400108841 0 -0.9494254961153559
vn -0.05756400492368075 0 -0.9983418178846092
vn 0.20278728097262005 0 -0.9792228136005268
vn 0.4493190200252813 0 -0.8933713775600385
vn 0.6652303711345238 0 -0.7466381676021014
vn 0.8358073724476985 0 -0.5490228011313136
vn 0.9494254961153558 0 -0.313992400108841
vn 0.9983418178846094 0 -0.0575640049236792
vn 0.9792228136005267 0 0.20278728097261992
vn 0.8933713775600385 0 0.4493190200252811
vn 0.7466381676021017 0 0.6652303711345237
vn 0.5490228011313139 0 0.8358073724476984
vn 0 1 0
usemtl material_0_0
f 1//1 2//1 3//1
f 2//1 1//1 4//1
f 2//1 4//1 5//1
f 5//1 4//1 6//1
f 6//1 4//1 7//1
f 7//1 4//1 8//1
f 7//1 8//1 9//1
f 9//1 8//1 10//1
f 10//1 8//1 11//1
f 10//1 11//1 12//1
f 12//1 11//1 13//1
f 12//1 13//1 14//1
f 14//1 13//1 15//1
f 14//1 15//1 16//1
f 16//1 15//1 17//1
f 16//1 17//1 18//1
f 18//1 17//1 19//1
f 19//1 17//1 20//1
f 19//1 20//1 21//1
f 21//1 20//1 22//1
f 21//1 22//1 23//1
f 23//1 22//1 24//1
f 23//1 24//1 25//1
f 25//1 24//1 26//1
f 5//1 27//1 28//1
f 27//1 5//1 6//1
f 28//1 27//1 29//1
f 28//1 29//1 30//1
f 28//1 30//1 31//1
f 31//1 30//1 32//1
f 31//1 32//1 33//1
f 33//1 32//1 34//1
f 33//1 34//1 35//1
f 35//1 34//1 36//1
f 35//1 36//1 37//1
f 35//1 37//1 38//1
f 38//1 37//1 39//1
f 38//1 39//1 40//1
f 40//1 39//1 41//1
f 40//1 41//1 42//1
f 42//1 41//1 43//1
f 42//1 43//1 44//1
f 44//1 43//1 45//1
f 44//1 45//1 26//1
f 44//1 26//1 24//1
f 44//1 24//1 46//1
f 44//1 46//1 47//1
f 47//1 46//1 48//1
f 49//2 50//3 51//2
f 50//3 49//2 52//3
f 52//3 53//4 50//3
f 53//4 52//3 54//4
f 54//4 55//5 53//4
f 55//5 54//4 56//5
f 56//5 57//6 55//5
f 57//6 56//5 58//6
f 59//7 57//6 58//6
f 57//6 59//7 60//7
f 61//8 60//7 59//7
f 60//7 61//8 62//8
f 63//9 62//8 61//8
f 62//8 63//9 64//9
f 65//10 64//9 63//9
f 64//9 65//10 66//10
f 67//11 66//10 65//10
f 66//10 67//11 68//11
f 69//12 68//11 67//11
f 68//11 69//12 70//12
f 69//12 71//13 70//12
f 71//13 69//12 72//13
f 72//13 73//14 71//13
f 73//14 72//13 74//14
f 74//14 75//15 73//14
f 75//15 74//14 76//15
f 76//15 77//16 75//15
f 77//16 76//15 78//16
f 78//16 79//17 77//16
f 79//17 78//16 80//17
f 80//17 81//18 79//17
f 81//18 80//17 82//18
f 81//18 83//19 84//19
f 83//19 81//18 82//18
f 84//19 85//20 86//20
f 85//20 84//19 83//19
f 86//20 87//21 88//21
f 87//21 86//20 85//20
f 88//21 89//22 90//22
f 89//22 88//21 87//21
f 90//22 91//23 92//23
f 91//23 90//22 89//22
f 92//23 93//24 94//24
f 93//24 92//23 91//23
f 93//24 95//25 94//24
f 95//25 93//24 96//25
f 96//25 51//2 95//25
f 51//2 96//25 49//2
f 97//26 98//26 99//26
f 98//26 97//26 100//26
f 98//26 100//26 101//26
f 101//26 100//26 102//26
f 102//26 100//26 103//26
f 103//26 100//26 104//26
f 103//26 104//26 105//26
f 105//26 104//26 106//26
f 106//26 104//26 107//26
f 106//26 107//26 108//26
f 108//26 107//26 109//26
f 108//26 109//26 110//26
f 110//26 109//26 111//26
f 110//26 111//26 112//26
f 112//26 111//26 113//26
f 112//26 113//26 114//26
f 114//26 113//26 115//26
f 115//26 113//26 116//26
f 115//26 116//26 117//26
f 117//26 116//26 118//26
f 117//26 118//26 119//26
f 119//26 118//26 120//26
f 119//26 120//26 121//26
f 121//26 120//26 122//26
f 101//26 123//26 124//26
f 123//26 101//26 102//26
f 124//26 123//26 125//26
f 124//26 125//26 126//26
f 124//26 126//26 127//26
f 127//26 126//26 128//26
f 127//26 128//26 129//26
f 129//26 128//26 130//26
f 129//26 130//26 131//26
f 131//26 130//26 132//26
f 131//26 132//26 133//26
f 131//26 133//26 134//26
f 134//26 133//26 135//26
f 134//26 135//26 136//26
f 136//26 135//26 137//26
f 136//26 137//26 138//26
f 138//26 137//26 139//26
f 138//26 139//26 140//26
f 140//26 139//26 141//26
f 140//26 141//26 122//26
f 140//26 122//26 120//26
f 140//26 120//26 142//26
f 140//26 142//26 143//26
f 143//26 142//26 144//26
