# SSTK version 0.8.0
# 3
mtllib original_3.mtl
o group_1/ID21#ID21
v -0.26490437 0.12494786 -0.08328661
v -0.33544384 0.20480774 -0.01278219
v -0.32393681 0.20469964 -0.09902067
v -0.27416293 0.12478969 -0.01272085
v -0.27412987 0.12478545 -0.01271940
v -0.26491500 0.12487742 -0.08338105
v -0.33544305 0.20454589 -0.01279616
v -0.32383974 0.20472446 -0.09916029
v -0.23767802 0.12499587 -0.14909205
v -0.29067356 0.20481057 -0.17977192
v -0.23766891 0.12495972 -0.14891364
v -0.29074389 0.20470384 -0.17970051
v -0.19418858 0.06352496 -0.01275274
v -0.18764886 0.06360505 -0.06249182
v -0.19412458 0.06362948 -0.01257921
v -0.18772386 0.06359604 -0.06260301
v -0.26487019 0.12476623 0.05785986
v -0.32388539 0.20479502 0.07372760
v -0.32410079 0.20463919 0.07381997
v -0.26486094 0.12479463 0.05790341
v -0.37393545 0.29771485 -0.01275044
v -0.36136143 0.29762182 -0.10915762
v -0.37389999 0.29757795 -0.01279582
v -0.36103282 0.29782805 -0.10918194
v -0.19440675 0.12484604 -0.20553902
v -0.23752659 0.20476844 -0.24872100
v -0.19431537 0.12500242 -0.20531549
v -0.23768927 0.20482519 -0.24862788
v -0.16850080 0.06345078 -0.10911698
v -0.16839683 0.06363817 -0.10905689
v -0.32395448 0.29753607 -0.19890050
v -0.32414107 0.29754295 -0.19899372
v -0.10133897 0.02503809 -0.01256239
v -0.09788529 0.02513940 -0.03859120
v -0.10131660 0.02517328 -0.01266178
v -0.09801744 0.02497341 -0.03849042
v -0.18761201 0.06346430 0.03726293
v -0.18776743 0.06352657 0.03724473
v -0.23764083 0.12487692 0.12353614
v -0.29066202 0.20468628 0.15412096
v -0.29077210 0.20469992 0.15414371
v -0.23760661 0.12480290 0.12365031
v -0.36126314 0.29773402 0.08364348
v -0.36120015 0.29756690 0.08363809
v -0.38694715 0.39742008 -0.01266088
v -0.37376333 0.39739661 -0.11268118
v -0.38694341 0.39731310 -0.01273845
v -0.37392416 0.39753909 -0.11264568
v -0.13787020 0.12474043 -0.24896253
v -0.16839682 0.20466000 -0.30178076
v -0.16842801 0.20469156 -0.30186876
v -0.13798075 0.12471016 -0.24882431
v -0.13778818 0.06355888 -0.14897901
v -0.13781179 0.06361470 -0.14901704
v -0.26477367 0.29753774 -0.27599556
v -0.26498376 0.29759754 -0.27594667
v -0.08797890 0.02514904 -0.06274449
v -0.08808951 0.02506644 -0.06254508
v -0.33549985 0.39740420 -0.20540544
v -0.33535537 0.39748448 -0.20535513
v -0.00164609 0.01208235 -0.01289967
v -0.00166736 0.01191650 -0.01274192
v -0.09799623 0.02490820 0.01302754
v -0.09792939 0.02517743 0.01304439
v -0.16863128 0.06359892 0.08367249
v -0.16857636 0.06361723 0.08366799
v -0.19442804 0.12484171 0.17995656
v -0.23773187 0.20485275 0.22338021
v -0.23767743 0.20474827 0.22343573
v -0.19423608 0.12480379 0.17985905
v -0.32407667 0.29752469 0.17344560
v -0.32402527 0.29768048 0.17334075
v -0.37392284 0.39728359 0.08703116
v -0.37395372 0.39755693 0.08710825
v 0.37083433 0.39740034 -0.11241385
v 0.37079588 0.39737880 0.08711843
v 0.38386393 0.39743464 -0.01267139
v 0.33219127 0.39751931 -0.20535617
v 0.33215865 0.39740396 0.18004460
v 0.27083026 0.39738939 -0.28531238
v 0.27105867 0.39745225 0.25989581
v 0.19103141 0.39725049 -0.34648463
v 0.19125100 0.39753231 0.32122579
v 0.09820828 0.39749336 -0.38515374
v 0.09828560 0.39730916 0.35956692
v -0.00150067 0.39740664 -0.39838030
v -0.00156546 0.39728138 0.37256131
v -0.10127725 0.39749453 -0.38505497
v -0.10145250 0.39739505 0.35970397
v -0.19428641 0.39749736 -0.34659151
v -0.19419774 0.39730173 0.32094983
v -0.27402000 0.39751939 -0.28531747
v -0.27409283 0.39737607 0.25995438
v -0.33544033 0.39738870 -0.20546592
v -0.33535675 0.39760136 0.18003242
v -0.37395369 0.39739549 -0.11250259
v -0.37399729 0.39750945 0.08712022
v -0.38696535 0.39740195 -0.01281973
v -0.38692247 0.39748185 -0.01261156
v -0.37370893 0.39738719 -0.11253312
v -0.37384828 0.39756248 0.08717592
v -0.33539276 0.39742209 0.17999565
v -0.33533901 0.39746161 -0.20553588
v -0.27414097 0.39736272 0.25975512
v -0.27422077 0.39726193 -0.28527005
v -0.19427491 0.39748756 0.32109702
v -0.19433388 0.39731701 -0.34662321
v -0.10135607 0.39741303 0.35966314
v -0.10125897 0.39731733 -0.38506119
v -0.00152582 0.39732840 0.37281542
v -0.00165719 0.39746940 -0.39826117
v 0.09837919 0.39735052 0.35953906
v 0.09829221 0.39736791 -0.38494822
v 0.19112545 0.39750318 0.32101314
v 0.19113184 0.39739350 -0.34652939
v 0.27096040 0.39730549 0.26002207
v 0.27091653 0.39736251 -0.28526807
v 0.33219419 0.39748912 0.17999746
v 0.33233297 0.39738584 -0.20549606
v 0.37091546 0.39740115 0.08703186
v 0.37085101 0.39730690 -0.11252034
v 0.38392091 0.39753186 -0.01274681
v -0.07222442 0.12479712 -0.27593592
v -0.08798003 0.20480976 -0.33520496
v -0.08795002 0.20471554 -0.33508106
v -0.07210314 0.12479219 -0.27599305
v -0.09792153 0.06374051 -0.17956466
v -0.09787049 0.06356958 -0.17945181
v -0.18786003 0.29778660 -0.33504968
v -0.18777035 0.29764458 -0.33526721
v -0.07221571 0.02507758 -0.08317234
v -0.07219140 0.02499350 -0.08314764
v -0.27404246 0.39753706 -0.28542656
v -0.27401597 0.39747356 -0.28529865
v -0.08787598 0.02508637 0.03716275
v -0.08791882 0.02497973 0.03715480
v -0.13785609 0.06354184 0.12351107
v -0.13795747 0.06343655 0.12369214
v -0.16859891 0.20466761 0.27651051
v -0.13799424 0.12483972 0.22337175
v -0.16846480 0.20471595 0.27632214
v -0.13794701 0.12480819 0.22337791
v -0.26467701 0.29770986 0.25056946
v -0.26498837 0.29748677 0.25045444
v -0.33549940 0.39741327 0.17994674
v -0.33543525 0.39731616 0.18009710
v -0.10141753 0.39730839 -0.38494907
v -0.00155613 0.29761395 -0.38493398
v -0.09805823 0.29758172 -0.37243376
v -0.00153513 0.39733515 -0.39827761
v -0.00149593 0.39741746 -0.39820499
v -0.10148271 0.39725607 -0.38493040
v -0.00160951 0.29758413 -0.38496346
v -0.09779553 0.29746688 -0.37235252
v -0.19430537 0.39725634 -0.34655805
v -0.19423943 0.39737260 -0.34650458
v -0.27412161 0.39747030 0.25984849
v -0.27405472 0.39742157 0.25982256
v -0.19439964 0.39749653 0.32105067
v -0.18779548 0.29755857 0.30966822
v -0.19426825 0.39736649 0.32098322
v -0.18769275 0.29775483 0.30971620
v -0.10135181 0.39742592 0.35968047
v -0.09794512 0.29747983 0.34700499
v -0.10125572 0.39752355 0.35967359
v -0.09784417 0.29752793 0.34691889
v -0.00160430 0.39738618 0.37289759
v -0.00163097 0.29769714 0.35959683
v -0.00147176 0.39751731 0.37263650
v -0.00139340 0.29759439 0.35962649
v 0.09825396 0.39746066 0.35970290
v 0.09472101 0.29753275 0.34684575
v 0.09820391 0.39725158 0.35954802
v 0.09497092 0.29751537 0.34705533
v 0.19119982 0.39733270 0.32118647
v 0.18454050 0.29755776 0.30959225
v 0.19121528 0.39737875 0.32097938
v 0.18463045 0.29758402 0.30975695
v 0.27104055 0.39757040 0.25991257
v 0.26189712 0.29776270 0.25060724
v 0.27087320 0.39737306 0.25991291
v 0.26160514 0.29759239 0.25056224
v 0.33239986 0.39729871 0.17997099
v 0.32094014 0.29764562 0.17346313
v 0.33233080 0.39752025 0.17995552
v 0.32101804 0.29759731 0.17336726
v 0.37083191 0.39729073 0.08695766
v 0.35807837 0.29773261 0.08350139
v 0.37074091 0.39725418 0.08702116
v 0.35805056 0.29765971 0.08366527
v 0.38387128 0.39746481 -0.01263954
v 0.37085150 0.29762786 -0.01269628
v 0.38407080 0.39751025 -0.01274996
v 0.37086130 0.29753861 -0.01273953
v 0.35807541 0.29769470 -0.10899269
v 0.37074690 0.39749335 -0.11253853
v 0.35795581 0.29767672 -0.10912533
v 0.37087807 0.39743240 -0.11252168
v 0.32096297 0.29769578 -0.19902793
v 0.33213543 0.39755364 -0.20547960
v 0.32071211 0.29769474 -0.19897999
v 0.33228487 0.39747020 -0.20553381
v 0.26178805 0.29757962 -0.27588978
v 0.27099305 0.39742426 -0.28516293
v 0.26174915 0.29761186 -0.27604410
v 0.27106585 0.39742800 -0.28527030
v 0.19111176 0.39731771 -0.34644122
v 0.18458494 0.29768815 -0.33518430
v 0.19126106 0.39726666 -0.34663478
v 0.18469273 0.29758161 -0.33516658
v 0.09825131 0.39731149 -0.38493341
v 0.09471381 0.29767732 -0.37247683
v 0.09813668 0.39743651 -0.38498711
v 0.09481055 0.29751950 -0.37240921
v -0.00150193 0.12483548 -0.28533950
v -0.00165849 0.20471291 -0.34663569
v -0.00153915 0.20459531 -0.34657484
v -0.00155506 0.12470091 -0.28530718
v -0.05146365 0.06357011 -0.19898214
v -0.05145489 0.06354241 -0.19897256
v -0.05149526 0.02515245 -0.09917501
v -0.05149612 0.02512212 -0.09913983
v -0.07196270 0.02517709 0.05790465
v -0.07210846 0.02502032 0.05795250
v -0.09794870 0.06359157 0.15426777
v -0.09794260 0.06377011 0.15412977
v -0.08802155 0.20456938 0.30987727
v -0.07226615 0.12493133 0.25068249
v -0.08797082 0.20473625 0.30963197
v -0.07219763 0.12481883 0.25057795
v -0.00157789 0.20474605 0.32109318
v -0.00153063 0.20469980 0.32108458
v 0.08469202 0.20467825 0.30976380
v 0.08481673 0.20479671 0.30979104
v 0.16520486 0.20455291 0.27642815
v 0.16552021 0.20476319 0.27638669
v 0.23455587 0.20454082 0.22331417
v 0.23434659 0.20463601 0.22319169
v 0.28760398 0.20478741 0.15420321
v 0.28756844 0.20471129 0.15426948
v 0.32085962 0.20465541 0.07362851
v 0.32087024 0.20453489 0.07356585
v 0.33242215 0.20481161 -0.01266173
v 0.33215693 0.20477551 -0.01269564
v 0.32099305 0.20478107 -0.09897400
v 0.32089206 0.20459064 -0.09920260
v 0.28764438 0.20456178 -0.17968986
v 0.28747837 0.20476936 -0.17968112
v 0.23441882 0.20471218 -0.24876580
v 0.23437047 0.20456152 -0.24872108
v 0.16524573 0.20476218 -0.30184913
v 0.16533739 0.20464141 -0.30173935
v 0.08472627 0.20466468 -0.33518210
v 0.08472464 0.20465129 -0.33508419
v 0.06913794 0.12497897 -0.27595714
v 0.06888220 0.12476961 -0.27588518
v -0.00166437 0.06357241 -0.20561739
v -0.00146338 0.06354401 -0.20546031
v -0.02749067 0.02510363 -0.10913727
v -0.02727977 0.02520401 -0.10910109
v -0.05130536 0.02497996 0.07371001
v -0.05144290 0.02518523 0.07370599
v -0.05144656 0.06350412 0.17346649
v -0.05135185 0.06352125 0.17344088
v -0.00167002 0.12468440 0.25998509
v -0.00154956 0.12494805 0.25970860
v 0.06916413 0.12498078 0.25050454
v 0.06914240 0.12475009 0.25050251
v 0.13480948 0.12478976 0.22327792
v 0.13475878 0.12483777 0.22331085
v 0.19118870 0.12484115 0.18003745
v 0.19117362 0.12473193 0.18010289
v 0.23447229 0.12484435 0.12367670
v 0.23454779 0.12487586 0.12356223
v 0.26172667 0.12477220 0.05775665
v 0.26179950 0.12496333 0.05774289
v 0.27097216 0.12490382 -0.01262539
v 0.27101189 0.12476478 -0.01269043
v 0.26181090 0.12470182 -0.08327387
v 0.26167701 0.12500011 -0.08327644
v 0.23442216 0.12491461 -0.14907344
v 0.23441754 0.12481190 -0.14889232
v 0.19119346 0.12478774 -0.20554992
v 0.19113849 0.12469737 -0.20540379
v 0.13477357 0.12475528 -0.24878670
v 0.13464230 0.12475543 -0.24883566
v 0.04825763 0.06365913 -0.19877191
v 0.04832937 0.06349349 -0.19891528
v -0.00157436 0.02495502 -0.11260772
v -0.00165658 0.02495064 -0.11250145
v -0.02735035 0.02497547 0.08362916
v -0.02720688 0.02510592 0.08380344
v -0.00144307 0.06359421 0.18006270
v -0.00144553 0.06359832 0.17996440
v 0.04819907 0.06355568 0.17354002
v 0.04818834 0.06353264 0.17333132
v 0.09466273 0.06349035 0.15405978
v 0.09481235 0.06358443 0.15423029
v 0.13463967 0.06356460 0.12361370
v 0.13458596 0.06360116 0.12372214
v 0.16518321 0.06341775 0.08376597
v 0.16540117 0.06363640 0.08363036
v 0.18451003 0.06347584 0.03713578
v 0.18448428 0.06364503 0.03727269
v 0.19106819 0.06354457 -0.01266767
v 0.19124647 0.06353898 -0.01269617
v 0.18466826 0.06363652 -0.06251021
v 0.18455357 0.06371428 -0.06255888
v 0.16539249 0.06366334 -0.10925409
v 0.16528460 0.06353608 -0.10918681
v 0.13474594 0.06352655 -0.14896731
v 0.13461016 0.06347675 -0.14903492
v 0.09475057 0.06346794 -0.17981500
v 0.09481657 0.06359443 -0.17968790
v 0.02411425 0.02507051 -0.10896456
v 0.02419478 0.02504240 -0.10899870
v -0.00147853 0.02507429 0.08703387
v -0.00152480 0.02512949 0.08696321
v 0.02439637 0.02506508 0.08381620
v 0.02413009 0.02498201 0.08363405
v 0.04838802 0.02507797 0.07365934
v 0.04842169 0.02512705 0.07375166
v 0.06905584 0.02523881 0.05786941
v 0.06894289 0.02510586 0.05790724
v 0.08468482 0.02513730 0.03718405
v 0.08490996 0.02504899 0.03716147
v 0.09470146 0.02498150 0.01295338
v 0.09488317 0.02497127 0.01313210
v 0.09805904 0.02519256 -0.01272999
v 0.09815121 0.02520460 -0.01278741
v 0.09488058 0.02495384 -0.03854673
v 0.09489507 0.02513985 -0.03844618
v 0.08495889 0.02507306 -0.06261180
v 0.08476777 0.02524296 -0.06250730
v 0.06899680 0.02510554 -0.08328646
v 0.06896596 0.02522428 -0.08322961
v 0.04823651 0.02516742 -0.09908593
v 0.04838479 0.02517264 -0.09922845
vt 10.29675 41.55856
vt 12.3501 45.46196
vt 10.08932 45.46196
vt 12.14267 41.55856
vt 12.14267 38.65483
vt 14.19602 42.55824
vt 11.93524 42.55824
vt 13.98859 38.65483
vt 11.87234 35.68438
vt 10.29675 39.57912
vt 10.56708 35.68438
vt 12.14267 39.57912
vt 9.532146 43.92944
vt 7.478797 47.83285
vt 7.686227 43.92944
vt 9.739577 47.83285
vt 10.08932 44.48714
vt 12.4805 48.39803
vt 9.958924 48.39803
vt 12.3501 44.48714
vt 13.09819 35.41615
vt 15.15154 39.31955
vt 12.89076 39.31955
vt 14.94411 35.41615
vt 13.71826 31.89175
vt 12.14267 35.78648
vt 12.413 31.89175
vt 13.98859 35.78648
vt 11.93524 42.66527
vt 14.32642 46.57617
vt 11.80484 46.57617
vt 14.19602 42.66527
vt 11.55754 27.22917
vt 10.56708 31.11638
vt 10.88188 27.22917
vt 11.87234 31.11638
vt 9.532146 42.67579
vt 7.956556 38.78105
vt 9.261818 38.78105
vt 7.686227 42.67579
vt 6.334921 45.60591
vt 4.281571 49.50931
vt 4.489001 45.60591
vt 6.542351 49.50931
vt 9.739577 45.97468
vt 7.3484 49.88558
vt 7.478797 45.97468
vt 9.869973 49.88558
vt 9.958924 44.3025
vt 12.52497 48.21772
vt 9.914449 48.21772
vt 12.4805 44.3025
vt 15.15154 35.96662
vt 13.09819 32.06322
vt 14.94411 32.06322
vt 12.89076 35.96662
vt 14.67378 27.66162
vt 13.09819 31.55635
vt 13.36852 27.66162
vt 14.94411 31.55635
vt 12.89076 40.63325
vt 15.28193 44.54415
vt 12.76036 44.54415
vt 15.15154 40.63325
vt 13.40346 22.80401
vt 12.413 26.69122
vt 12.7278 22.80401
vt 13.71826 26.69122
vt 11.80484 43.68178
vt 14.37089 47.597
vt 11.76037 47.597
vt 14.32642 43.68178
vt 11.55754 20.63326
vt 10.88188 20.63326
vt 11.21971 16.7504
vt 9.261818 34.72951
vt 8.27136 30.8423
vt 8.947013 30.8423
vt 7.956556 34.72951
vt 6.334921 44.86547
vt 4.75933 40.97073
vt 6.064592 40.97073
vt 4.489001 44.86547
vt 2.768879 46.47371
vt 0.7155291 50.37712
vt 0.9229596 46.47371
vt 2.976309 50.37712
vt 6.542351 47.02653
vt 4.151175 50.93743
vt 4.281571 47.02653
vt 6.672747 50.93743
vt 9.869973 44.80932
vt 7.303925 48.72453
vt 7.3484 44.80932
vt 9.914449 48.72453
vt 0.3407417 11.11771
vt 0.3407417 18.88229
vt 0 15
vt 1.339746 7.5
vt 1.339746 22.5
vt 2.928932 4.393398
vt 2.928932 25.6066
vt 5 2.009619
vt 5 27.99038
vt 7.41181 0.5111126
vt 7.41181 29.48889
vt 10 0
vt 10 30
vt 12.58819 0.5111126
vt 12.58819 29.48889
vt 15 2.009619
vt 15 27.99038
vt 17.07107 4.393398
vt 17.07107 25.6066
vt 18.66025 7.5
vt 18.66025 22.5
vt 19.65926 11.11771
vt 19.65926 18.88229
vt 20 15
vt 14.19602 32.72793
vt 12.14267 28.82453
vt 13.98859 28.82453
vt 11.93524 32.72793
vt 14.67378 23.28226
vt 13.09819 27.17699
vt 13.36852 23.28226
vt 14.94411 27.17699
vt 15.28193 42.44045
vt 12.89076 38.52955
vt 15.15154 38.52955
vt 12.76036 42.44045
vt 14.35897 17.86838
vt 13.36852 21.75559
vt 13.68332 17.86838
vt 14.67378 21.75559
vt 12.76036 42.98946
vt 15.32641 46.90468
vt 12.71589 46.90468
vt 15.28193 42.98946
vt 13.40346 15.87915
vt 12.7278 15.87915
vt 13.06563 11.9963
vt 8.27136 24.51497
vt 8.609187 20.63212
vt 8.947013 24.51497
vt 6.064592 37.28438
vt 5.074134 33.39717
vt 5.749788 33.39717
vt 4.75933 37.28438
vt 2.768879 45.99893
vt 1.193288 42.10419
vt 2.49855 42.10419
vt 0.9229596 45.99893
vt -0.7155291 50.37712
vt -2.768879 46.47371
vt -0.9229596 46.47371
vt -2.976309 50.37712
vt 2.976309 47.57101
vt 0.5851329 51.48191
vt 0.7155291 47.57101
vt 3.106705 51.48191
vt 6.672747 45.16769
vt 4.106699 49.0829
vt 4.151175 45.16769
vt 6.717223 49.0829
vt 12.52497 44.8749
vt 9.958924 40.95968
vt 12.4805 40.95968
vt 9.914449 44.8749
vt 14.37089 45.49562
vt 11.80484 41.5804
vt 14.32642 41.5804
vt 11.76037 45.49562
vt 15.32641 46.18794
vt 12.76036 42.27272
vt 15.28193 42.27272
vt 12.71589 46.18794
vt 3.106705 45.35319
vt 0.5406572 49.26841
vt 0.5851329 45.35319
vt 3.151181 49.26841
vt -0.5406572 49.26841
vt -3.106705 45.35319
vt -0.5851329 45.35319
vt -3.151181 49.26841
vt -4.106699 49.0829
vt -6.672747 45.16769
vt -4.151175 45.16769
vt -6.717223 49.0829
vt -7.303925 48.72453
vt -9.869973 44.80932
vt -7.3484 44.80932
vt -9.914449 48.72453
vt -9.914449 48.21772
vt -12.4805 44.3025
vt -9.958924 44.3025
vt -12.52497 48.21772
vt -11.76037 47.597
vt -14.32642 43.68178
vt -11.80484 43.68178
vt -14.37089 47.597
vt -12.71589 46.90468
vt -15.28193 42.98946
vt -12.76036 42.98946
vt -15.32641 46.90468
vt -12.71589 46.18794
vt -15.28193 42.27272
vt -12.76036 42.27272
vt -15.32641 46.18794
vt -11.76037 45.49562
vt -14.32642 41.5804
vt -11.80484 41.5804
vt -14.37089 45.49562
vt -9.914449 44.8749
vt -12.4805 40.95968
vt -9.958924 40.95968
vt -12.52497 44.8749
vt -9.914449 44.36809
vt -7.3484 40.45287
vt -7.303925 44.36809
vt -9.869973 40.45287
vt -6.717223 44.00972
vt -4.151175 40.0945
vt -4.106699 44.00972
vt -6.672747 40.0945
vt -3.151181 43.82421
vt -0.5851329 39.90899
vt -0.5406572 43.82421
vt -3.106705 39.90899
vt 3.151181 43.82421
vt 0.5851329 39.90899
vt 3.106705 39.90899
vt 0.5406572 43.82421
vt 6.717223 44.00972
vt 4.151175 40.0945
vt 6.672747 40.0945
vt 4.106699 44.00972
vt 9.914449 44.36809
vt 7.3484 40.45287
vt 9.869973 40.45287
vt 7.303925 44.36809
vt 12.3501 29.82421
vt 10.29675 25.9208
vt 12.14267 25.9208
vt 10.08932 29.82421
vt 13.71826 19.05213
vt 12.14267 22.94686
vt 12.413 19.05213
vt 13.98859 22.94686
vt 14.32642 40.40842
vt 11.93524 36.49753
vt 14.19602 36.49753
vt 11.80484 40.40842
vt 14.35897 12.75864
vt 13.36852 16.64585
vt 13.68332 12.75864
vt 14.67378 16.64585
vt 14.35897 10.57664
vt 13.68332 10.57664
vt 14.02115 6.693777
vt 5.074134 27.25976
vt 5.411961 23.3769
vt 5.749788 27.25976
vt 2.49855 38.60688
vt 1.508092 34.71967
vt 2.183746 34.71967
vt 1.193288 38.60688
vt -0.9229596 45.99893
vt -2.49855 42.10419
vt -1.193288 42.10419
vt -2.768879 45.99893
vt -4.281571 49.50931
vt -6.334921 45.60591
vt -4.489001 45.60591
vt -6.542351 49.50931
vt -0.5851329 51.48191
vt -2.976309 47.57101
vt -0.7155291 47.57101
vt -3.106705 51.48191
vt 12.4805 38.58656
vt 10.08932 34.67567
vt 12.3501 34.67567
vt 9.958924 38.58656
vt -4.151175 50.93743
vt -6.542351 47.02653
vt -4.281571 47.02653
vt -6.672747 50.93743
vt -7.3484 49.88558
vt -9.739577 45.97468
vt -7.478797 45.97468
vt -9.869973 49.88558
vt -9.958924 48.39803
vt -12.3501 44.48714
vt -10.08932 44.48714
vt -12.4805 48.39803
vt -11.80484 46.57617
vt -14.19602 42.66527
vt -11.93524 42.66527
vt -14.32642 46.57617
vt -12.76036 44.54415
vt -15.15154 40.63325
vt -12.89076 40.63325
vt -15.28193 44.54415
vt -12.76036 42.44045
vt -15.15154 38.52955
vt -12.89076 38.52955
vt -15.28193 42.44045
vt -11.80484 40.40842
vt -14.19602 36.49753
vt -11.93524 36.49753
vt -14.32642 40.40842
vt -12.4805 38.58656
vt -10.08932 34.67567
vt -9.958924 38.58656
vt -12.3501 34.67567
vt -9.869973 37.09902
vt -7.478797 33.18812
vt -7.3484 37.09902
vt -9.739577 33.18812
vt -6.672747 36.04717
vt -4.281571 32.13627
vt -4.151175 36.04717
vt -6.542351 32.13627
vt -3.106705 35.50269
vt -0.7155291 31.59179
vt -0.5851329 35.50269
vt -2.976309 31.59179
vt 3.106705 35.50269
vt 0.7155291 31.59179
vt 2.976309 31.59179
vt 0.5851329 35.50269
vt 6.672747 36.04717
vt 4.281571 32.13627
vt 6.542351 32.13627
vt 4.151175 36.04717
vt 9.869973 37.09902
vt 7.478797 33.18812
vt 9.739577 33.18812
vt 7.3484 37.09902
vt 9.739577 27.45333
vt 7.686227 23.54992
vt 9.532146 23.54992
vt 7.478797 27.45333
vt 11.87234 15.25949
vt 10.29675 19.15423
vt 10.56708 15.25949
vt 12.14267 19.15423
vt 13.40346 7.823007
vt 12.413 11.71022
vt 12.7278 7.823007
vt 13.71826 11.71022
vt 14.35897 5.087065
vt 13.68332 5.087065
vt 14.02115 1.204207
vt 1.508092 28.68056
vt 1.845919 24.79771
vt 2.183746 28.68056
vt -1.193288 38.60688
vt -2.183746 34.71967
vt -1.508092 34.71967
vt -2.49855 38.60688
vt -4.489001 44.86547
vt -6.064592 40.97073
vt -4.75933 40.97073
vt -6.334921 44.86547
vt -7.478797 47.83285
vt -9.532146 43.92944
vt -7.686227 43.92944
vt -9.739577 47.83285
vt -10.08932 45.46196
vt -12.14267 41.55856
vt -10.29675 41.55856
vt -12.3501 45.46196
vt -11.93524 42.55824
vt -13.98859 38.65483
vt -12.14267 38.65483
vt -14.19602 42.55824
vt -12.89076 39.31955
vt -14.94411 35.41615
vt -13.09819 35.41615
vt -15.15154 39.31955
vt -12.89076 35.96662
vt -14.94411 32.06322
vt -13.09819 32.06322
vt -15.15154 35.96662
vt -11.93524 32.72793
vt -13.98859 28.82453
vt -12.14267 28.82453
vt -14.19602 32.72793
vt -10.08932 29.82421
vt -12.14267 25.9208
vt -10.29675 25.9208
vt -12.3501 29.82421
vt -9.739577 27.45333
vt -7.686227 23.54992
vt -7.478797 27.45333
vt -9.532146 23.54992
vt -6.542351 25.77686
vt -4.489001 21.87345
vt -4.281571 25.77686
vt -6.334921 21.87345
vt -2.976309 24.90906
vt -0.9229596 21.00565
vt -0.7155291 24.90906
vt -2.768879 21.00565
vt 2.976309 24.90906
vt 0.9229596 21.00565
vt 2.768879 21.00565
vt 0.7155291 24.90906
vt 6.542351 25.77686
vt 4.489001 21.87345
vt 6.334921 21.87345
vt 4.281571 25.77686
vt 7.956556 12.16282
vt 9.532146 16.05756
vt 7.686227 16.05756
vt 9.261818 12.16282
vt 11.55754 3.397842
vt 10.56708 7.285052
vt 10.88188 3.397842
vt 11.87234 7.285052
vt 13.40346 -0.2154526
vt 12.7278 -0.2154526
vt 13.06563 -4.098311
vt -2.183746 28.68056
vt -1.845919 24.79771
vt -1.508092 28.68056
vt -4.75933 37.28438
vt -5.749788 33.39717
vt -5.074134 33.39717
vt -6.064592 37.28438
vt -9.532146 42.67579
vt -7.956556 38.78105
vt -7.686227 42.67579
vt -9.261818 38.78105
vt -12.14267 39.57912
vt -10.56708 35.68438
vt -10.29675 39.57912
vt -11.87234 35.68438
vt -13.98859 35.78648
vt -12.413 31.89175
vt -12.14267 35.78648
vt -13.71826 31.89175
vt -14.94411 31.55635
vt -13.36852 27.66162
vt -13.09819 31.55635
vt -14.67378 27.66162
vt -14.94411 27.17699
vt -13.36852 23.28226
vt -13.09819 27.17699
vt -14.67378 23.28226
vt -13.98859 22.94686
vt -12.413 19.05213
vt -12.14267 22.94686
vt -13.71826 19.05213
vt -12.14267 19.15423
vt -10.56708 15.25949
vt -10.29675 19.15423
vt -11.87234 15.25949
vt -9.261818 12.16282
vt -7.686227 16.05756
vt -9.532146 16.05756
vt -7.956556 12.16282
vt -6.064592 9.973143
vt -4.489001 13.86788
vt -6.334921 13.86788
vt -4.75933 9.973143
vt -2.49855 8.839682
vt -0.9229596 12.73442
vt -2.768879 12.73442
vt -1.193288 8.839682
vt 1.193288 8.839682
vt 2.768879 12.73442
vt 0.9229596 12.73442
vt 2.49855 8.839682
vt 4.75933 9.973143
vt 6.334921 13.86788
vt 4.489001 13.86788
vt 6.064592 9.973143
vt 8.27136 -0.2152894
vt 9.261818 3.67192
vt 7.956556 3.67192
vt 8.947013 -0.2152894
vt 11.55754 -4.96956
vt 10.88188 -4.96956
vt 11.21971 -8.852419
vt -5.749788 27.25976
vt -5.411961 23.3769
vt -5.074134 27.25976
vt -9.261818 34.72951
vt -8.27136 30.8423
vt -7.956556 34.72951
vt -8.947013 30.8423
vt -11.87234 31.11638
vt -10.88188 27.22917
vt -10.56708 31.11638
vt -11.55754 27.22917
vt -13.71826 26.69122
vt -12.7278 22.80401
vt -12.413 26.69122
vt -13.40346 22.80401
vt -14.67378 21.75559
vt -13.68332 17.86838
vt -13.36852 21.75559
vt -14.35897 17.86838
vt -14.67378 16.64585
vt -13.68332 12.75864
vt -13.36852 16.64585
vt -14.35897 12.75864
vt -13.71826 11.71022
vt -12.7278 7.823007
vt -12.413 11.71022
vt -13.40346 7.823007
vt -11.87234 7.285052
vt -10.88188 3.397842
vt -10.56708 7.285052
vt -11.55754 3.397842
vt -8.947013 -0.2152894
vt -7.956556 3.67192
vt -9.261818 3.67192
vt -8.27136 -0.2152894
vt -5.749788 -2.770159
vt -4.75933 1.11705
vt -6.064592 1.11705
vt -5.074134 -2.770159
vt -2.183746 -4.092657
vt -1.193288 -0.2054476
vt -2.49855 -0.2054476
vt -1.508092 -4.092657
vt 1.508092 -4.092657
vt 2.49855 -0.2054476
vt 1.193288 -0.2054476
vt 2.183746 -4.092657
vt 5.074134 -2.770159
vt 6.064592 1.11705
vt 4.75933 1.11705
vt 5.749788 -2.770159
vt 8.947013 -8.851273
vt 8.27136 -8.851273
vt 8.609187 -12.73413
vt -8.947013 24.51497
vt -8.609187 20.63212
vt -8.27136 24.51497
vt -11.21971 16.7504
vt -10.88188 20.63326
vt -11.55754 20.63326
vt -13.06563 11.9963
vt -12.7278 15.87915
vt -13.40346 15.87915
vt -14.02115 6.693777
vt -13.68332 10.57664
vt -14.35897 10.57664
vt -14.02115 1.204207
vt -13.68332 5.087065
vt -14.35897 5.087065
vt -13.06563 -4.098311
vt -12.7278 -0.2154526
vt -13.40346 -0.2154526
vt -11.21971 -8.852419
vt -10.88188 -4.96956
vt -11.55754 -4.96956
vt -8.609187 -12.73413
vt -8.27136 -8.851273
vt -8.947013 -8.851273
vt -5.411961 -15.47892
vt -5.074134 -11.59606
vt -5.749788 -11.59606
vt -1.845919 -16.89972
vt -1.508092 -13.01686
vt -2.183746 -13.01686
vt 1.845919 -16.89972
vt 2.183746 -13.01686
vt 1.508092 -13.01686
vt 5.411961 -15.47892
vt 5.749788 -11.59606
vt 5.074134 -11.59606
vn -0.6881799050293737 -0.7017165051283021 -0.18439730134761714
vn -0.8686894548582669 -0.4953570742586068 0
vn -0.8390895701686335 -0.49535708238903303 -0.22483339200670885
vn -0.7124562908157472 -0.7017164909541936 0
vn 0.7124562908157472 0.7017164909541936 0
vn 0.6881799050293737 0.7017165051283021 0.18439730134761714
vn 0.8686894548582669 0.4953570742586068 0
vn 0.8390895701686335 0.49535708238903303 0.22483339200670885
vn -0.6170052638818766 -0.7017164589230704 -0.35622817914719046
vn -0.7523071196920491 -0.4953571129662424 -0.4343447113692097
vn 0.6170052638818766 0.7017164589230704 0.35622817914719046
vn 0.7523071196920491 0.4953571129662424 0.4343447113692097
vn -0.5080648954666767 -0.8613187923146893 0
vn -0.49075299584036536 -0.8613187926994404 -0.1314968988854292
vn 0.5080648954666767 0.8613187923146893 0
vn 0.49075299584036536 0.8613187926994404 0.1314968988854292
vn -0.6881799050293737 -0.7017165051283021 0.1843973013476168
vn -0.8390895701686335 -0.49535708238903314 0.22483339200670863
vn 0.8390895701686335 0.49535708238903314 -0.22483339200670863
vn 0.6881799050293737 0.7017165051283021 -0.1843973013476168
vn -0.9666378129397764 -0.25614710342888125 0
vn -0.9337004197173908 -0.25614710540917884 -0.2501843052832597
vn 0.9666378129397764 0.25614710342888125 0
vn 0.9337004197173908 0.25614710540917884 0.2501843052832597
vn -0.5037826838762264 -0.7017164775412731 -0.5037826838762265
vn -0.6142561953939109 -0.4953570962854929 -0.614256195393911
vn 0.5037826838762264 0.7017164775412731 0.5037826838762265
vn 0.6142561953939109 0.4953570962854929 0.614256195393911
vn -0.43999709245446794 -0.8613187852292012 -0.25403249564358427
vn 0.43999709245446794 0.8613187852292012 0.25403249564358427
vn -0.8371329049399089 -0.25614710151152015 -0.48331890285205775
vn 0.8371329049399089 0.25614710151152015 0.48331890285205775
vn -0.2689085998910315 -0.9631656996097012 0
vn -0.2597457972545001 -0.9631656898193874 -0.0695986692643458
vn 0.2689085998910315 0.9631656996097012 0
vn 0.2597457972545001 0.9631656898193874 0.0695986692643458
vn -0.49075299584036536 -0.8613187926994404 0.13149689888542881
vn 0.49075299584036536 0.8613187926994404 -0.13149689888542881
vn -0.6170052638818766 -0.7017164589230707 0.3562281791471901
vn -0.7523071196920491 -0.49535711296624263 0.4343447113692095
vn 0.7523071196920491 0.49535711296624263 -0.4343447113692095
vn 0.6170052638818766 0.7017164589230707 -0.3562281791471901
vn -0.9337004197173908 -0.25614710540917895 0.2501843052832596
vn 0.9337004197173908 0.25614710540917895 -0.2501843052832596
vn -0.9914448610250887 -0.1305261948688555 0
vn -0.9576621992442512 -0.13052619989699388 -0.25660479979749784
vn 0.9914448610250887 0.1305261948688555 0
vn 0.9576621992442512 0.13052619989699388 0.25660479979749784
vn -0.3562281791471903 -0.7017164589230704 -0.6170052638818767
vn -0.4343447113692097 -0.49535711296624246 -0.7523071196920493
vn 0.4343447113692097 0.49535711296624246 0.7523071196920493
vn 0.3562281791471903 0.7017164589230704 0.6170052638818767
vn -0.35925618029294526 -0.8613187527522231 -0.3592561802929454
vn 0.35925618029294526 0.8613187527522231 0.3592561802929454
vn -0.6835161561991616 -0.25614708358567384 -0.6835161561991617
vn 0.6835161561991616 0.25614708358567384 0.6835161561991617
vn -0.2328816987610845 -0.9631656948760211 -0.1344542992847121
vn 0.2328816987610845 0.9631656948760211 0.1344542992847121
vn -0.8586164390253372 -0.13052620593260145 -0.49572242253128856
vn 0.8586164390253372 0.13052620593260145 0.49572242253128856
vn 0 -1 0
vn 0 1 0
vn -0.2597457972545001 -0.9631656898193874 0.06959866926434538
vn 0.2597457972545001 0.9631656898193874 -0.06959866926434538
vn -0.4399970924544679 -0.8613187852292014 0.2540324956435839
vn 0.4399970924544679 0.8613187852292014 -0.2540324956435839
vn -0.5037826838762264 -0.7017164775412733 0.5037826838762263
vn -0.6142561953939109 -0.4953570962854931 0.6142561953939107
vn 0.6142561953939109 0.4953570962854931 -0.6142561953939107
vn 0.5037826838762264 0.7017164775412733 -0.5037826838762263
vn -0.8371329049399089 -0.25614710151152037 0.48331890285205764
vn 0.8371329049399089 0.25614710151152037 -0.48331890285205764
vn -0.9576621992442512 -0.130526199896994 0.25660479979749773
vn 0.9576621992442512 0.130526199896994 -0.25660479979749773
vn -0.18439730134761698 -0.701716505128302 -0.6881799050293738
vn -0.22483339200670874 -0.4953570823890329 -0.8390895701686336
vn 0.22483339200670874 0.4953570823890329 0.8390895701686336
vn 0.18439730134761698 0.701716505128302 0.6881799050293738
vn -0.25403249564358404 -0.8613187852292011 -0.43999709245446805
vn 0.25403249564358404 0.8613187852292011 0.43999709245446805
vn -0.4833189028520576 -0.25614710151152004 -0.8371329049399088
vn 0.4833189028520576 0.25614710151152004 0.8371329049399088
vn -0.1901470995309727 -0.9631656976242025 -0.19014709953097292
vn 0.1901470995309727 0.9631656976242025 0.19014709953097292
vn -0.701057384199583 -0.13052619705820306 -0.701057384199583
vn 0.701057384199583 0.13052619705820306 0.701057384199583
vn -0.2328816987610845 -0.9631656948760211 0.13445429928471164
vn 0.2328816987610845 0.9631656948760211 -0.13445429928471164
vn -0.35925618029294526 -0.8613187527522234 0.3592561802929451
vn 0.35925618029294526 0.8613187527522234 -0.3592561802929451
vn -0.4343447113692097 -0.4953571129662428 0.7523071196920491
vn -0.3562281791471903 -0.7017164589230707 0.6170052638818765
vn 0.4343447113692097 0.4953571129662428 -0.7523071196920491
vn 0.3562281791471903 0.7017164589230707 -0.6170052638818765
vn -0.6835161561991618 -0.25614708358567423 0.6835161561991617
vn 0.6835161561991618 0.25614708358567423 -0.6835161561991617
vn -0.8586164390253372 -0.13052620593260167 0.49572242253128845
vn 0.8586164390253372 0.13052620593260167 -0.49572242253128845
vn -0.25660479979749784 -0.13052619989699374 -0.9576621992442514
vn 0 -0.256147103428881 -0.9666378129397764
vn -0.25018430528325963 -0.2561471054091787 -0.9337004197173909
vn 0 -0.13052619486885528 -0.9914448610250887
vn 0 0.13052619486885528 0.9914448610250887
vn 0.25660479979749784 0.13052619989699374 0.9576621992442514
vn 0 0.256147103428881 0.9666378129397764
vn 0.25018430528325963 0.2561471054091787 0.9337004197173909
vn -0.4957224225312885 -0.13052620593260136 -0.8586164390253372
vn 0.4957224225312885 0.13052620593260136 0.8586164390253372
vn -0.7010573841995829 -0.13052619705820337 0.7010573841995829
vn 0.7010573841995829 0.13052619705820337 -0.7010573841995829
vn -0.4957224225312885 -0.13052620593260175 0.8586164390253372
vn -0.4833189028520576 -0.25614710151152037 0.8371329049399086
vn 0.4957224225312885 0.13052620593260175 -0.8586164390253372
vn 0.4833189028520576 0.25614710151152037 -0.8371329049399086
vn -0.2566047997974978 -0.13052619989699416 0.9576621992442512
vn -0.2501843052832597 -0.2561471054091792 0.9337004197173909
vn 0.2566047997974978 0.13052619989699416 -0.9576621992442512
vn 0.2501843052832597 0.2561471054091792 -0.9337004197173909
vn 0 -0.13052619486885572 0.9914448610250887
vn 0 -0.2561471034288815 0.9666378129397762
vn 0 0.13052619486885572 -0.9914448610250887
vn 0 0.2561471034288815 -0.9666378129397762
vn 0.2566047997974978 -0.13052619989699416 0.9576621992442512
vn 0.2501843052832597 -0.2561471054091792 0.9337004197173909
vn -0.2566047997974978 0.13052619989699416 -0.9576621992442512
vn -0.2501843052832597 0.2561471054091792 -0.9337004197173909
vn 0.4957224225312885 -0.13052620593260175 0.8586164390253372
vn 0.4833189028520576 -0.25614710151152037 0.8371329049399086
vn -0.4957224225312885 0.13052620593260175 -0.8586164390253372
vn -0.4833189028520576 0.25614710151152037 -0.8371329049399086
vn 0.7010573841995829 -0.13052619705820337 0.7010573841995829
vn 0.6835161561991618 -0.25614708358567423 0.6835161561991617
vn -0.7010573841995829 0.13052619705820337 -0.7010573841995829
vn -0.6835161561991618 0.25614708358567423 -0.6835161561991617
vn 0.8586164390253372 -0.13052620593260167 0.49572242253128845
vn 0.8371329049399089 -0.25614710151152037 0.48331890285205764
vn -0.8586164390253372 0.13052620593260167 -0.49572242253128845
vn -0.8371329049399089 0.25614710151152037 -0.48331890285205764
vn 0.9576621992442512 -0.130526199896994 0.25660479979749773
vn 0.9337004197173908 -0.25614710540917895 0.2501843052832596
vn -0.9576621992442512 0.130526199896994 -0.25660479979749773
vn -0.9337004197173908 0.25614710540917895 -0.2501843052832596
vn 0.9914448610250887 -0.1305261948688555 0
vn 0.9666378129397764 -0.25614710342888125 0
vn -0.9914448610250887 0.1305261948688555 0
vn -0.9666378129397764 0.25614710342888125 0
vn 0.9337004197173908 -0.25614710540917884 -0.2501843052832597
vn 0.9576621992442512 -0.13052619989699388 -0.25660479979749784
vn -0.9337004197173908 0.25614710540917884 0.2501843052832597
vn -0.9576621992442512 0.13052619989699388 0.25660479979749784
vn 0.8371329049399089 -0.25614710151152015 -0.48331890285205775
vn 0.8586164390253372 -0.13052620593260145 -0.49572242253128856
vn -0.8371329049399089 0.25614710151152015 0.48331890285205775
vn -0.8586164390253372 0.13052620593260145 0.49572242253128856
vn 0.6835161561991616 -0.25614708358567384 -0.6835161561991617
vn 0.701057384199583 -0.13052619705820306 -0.701057384199583
vn -0.6835161561991616 0.25614708358567384 0.6835161561991617
vn -0.701057384199583 0.13052619705820306 0.701057384199583
vn 0.4957224225312885 -0.13052620593260136 -0.8586164390253372
vn 0.4833189028520576 -0.25614710151152004 -0.8371329049399088
vn -0.4957224225312885 0.13052620593260136 0.8586164390253372
vn -0.4833189028520576 0.25614710151152004 0.8371329049399088
vn 0.25660479979749784 -0.13052619989699374 -0.9576621992442514
vn 0.25018430528325963 -0.2561471054091787 -0.9337004197173909
vn -0.25660479979749784 0.13052619989699374 0.9576621992442514
vn -0.25018430528325963 0.2561471054091787 0.9337004197173909
vn 0 -0.7017164909541936 -0.7124562908157476
vn 0 -0.49535707425860664 -0.868689454858267
vn 0 0.49535707425860664 0.868689454858267
vn 0 0.7017164909541936 0.7124562908157476
vn -0.131496898885429 -0.8613187926994403 -0.4907529958403655
vn 0.131496898885429 0.8613187926994403 0.4907529958403655
vn -0.13445429928471186 -0.9631656948760211 -0.23288169876108472
vn 0.13445429928471186 0.9631656948760211 0.23288169876108472
vn -0.19014709953097275 -0.9631656976242027 0.19014709953097253
vn 0.19014709953097275 0.9631656976242027 -0.19014709953097253
vn -0.25403249564358404 -0.8613187852292014 0.4399970924544677
vn 0.25403249564358404 0.8613187852292014 -0.4399970924544677
vn -0.22483339200670874 -0.49535708238903325 0.8390895701686334
vn -0.18439730134761698 -0.7017165051283022 0.6881799050293735
vn 0.22483339200670874 0.49535708238903325 -0.8390895701686334
vn 0.18439730134761698 0.7017165051283022 -0.6881799050293735
vn 0 -0.495357074258607 0.8686894548582668
vn 0 0.495357074258607 -0.8686894548582668
vn 0.22483339200670874 -0.49535708238903325 0.8390895701686334
vn -0.22483339200670874 0.49535708238903325 -0.8390895701686334
vn 0.4343447113692097 -0.4953571129662428 0.7523071196920491
vn -0.4343447113692097 0.4953571129662428 -0.7523071196920491
vn 0.6142561953939109 -0.4953570962854931 0.6142561953939107
vn -0.6142561953939109 0.4953570962854931 -0.6142561953939107
vn 0.7523071196920491 -0.49535711296624263 0.4343447113692095
vn -0.7523071196920491 0.49535711296624263 -0.4343447113692095
vn 0.8390895701686335 -0.49535708238903314 0.22483339200670863
vn -0.8390895701686335 0.49535708238903314 -0.22483339200670863
vn 0.8686894548582669 -0.4953570742586068 0
vn -0.8686894548582669 0.4953570742586068 0
vn 0.8390895701686335 -0.49535708238903303 -0.22483339200670885
vn -0.8390895701686335 0.49535708238903303 0.22483339200670885
vn 0.7523071196920491 -0.4953571129662424 -0.4343447113692097
vn -0.7523071196920491 0.4953571129662424 0.4343447113692097
vn 0.6142561953939109 -0.4953570962854929 -0.614256195393911
vn -0.6142561953939109 0.4953570962854929 0.614256195393911
vn 0.4343447113692097 -0.49535711296624246 -0.7523071196920493
vn -0.4343447113692097 0.49535711296624246 0.7523071196920493
vn 0.22483339200670874 -0.4953570823890329 -0.8390895701686336
vn -0.22483339200670874 0.4953570823890329 0.8390895701686336
vn 0.18439730134761698 -0.701716505128302 -0.6881799050293738
vn -0.18439730134761698 0.701716505128302 0.6881799050293738
vn 0 -0.8613187923146892 -0.5080648954666769
vn 0 0.8613187923146892 0.5080648954666769
vn -0.06959866926434559 -0.9631656898193873 -0.2597457972545003
vn 0.06959866926434559 0.9631656898193873 0.2597457972545003
vn -0.13445429928471186 -0.9631656948760211 0.23288169876108428
vn 0.13445429928471186 0.9631656948760211 -0.23288169876108428
vn -0.131496898885429 -0.8613187926994406 0.4907529958403652
vn 0.131496898885429 0.8613187926994406 -0.4907529958403652
vn 0 -0.7017164909541939 0.7124562908157474
vn 0 0.7017164909541939 -0.7124562908157474
vn 0.18439730134761698 -0.7017165051283022 0.6881799050293735
vn -0.18439730134761698 0.7017165051283022 -0.6881799050293735
vn 0.3562281791471903 -0.7017164589230707 0.6170052638818765
vn -0.3562281791471903 0.7017164589230707 -0.6170052638818765
vn 0.5037826838762264 -0.7017164775412733 0.5037826838762263
vn -0.5037826838762264 0.7017164775412733 -0.5037826838762263
vn 0.6170052638818766 -0.7017164589230707 0.3562281791471901
vn -0.6170052638818766 0.7017164589230707 -0.3562281791471901
vn 0.6881799050293737 -0.7017165051283021 0.1843973013476168
vn -0.6881799050293737 0.7017165051283021 -0.1843973013476168
vn 0.7124562908157472 -0.7017164909541936 0
vn -0.7124562908157472 0.7017164909541936 0
vn 0.6881799050293737 -0.7017165051283021 -0.18439730134761714
vn -0.6881799050293737 0.7017165051283021 0.18439730134761714
vn 0.6170052638818766 -0.7017164589230704 -0.35622817914719046
vn -0.6170052638818766 0.7017164589230704 0.35622817914719046
vn 0.5037826838762264 -0.7017164775412731 -0.5037826838762265
vn -0.5037826838762264 0.7017164775412731 0.5037826838762265
vn 0.3562281791471903 -0.7017164589230704 -0.6170052638818767
vn -0.3562281791471903 0.7017164589230704 0.6170052638818767
vn 0.131496898885429 -0.8613187926994403 -0.4907529958403655
vn -0.131496898885429 0.8613187926994403 0.4907529958403655
vn 0 -0.9631656996097011 -0.2689085998910317
vn 0 0.9631656996097011 0.2689085998910317
vn -0.06959866926434558 -0.9631656898193873 0.2597457972544998
vn 0.06959866926434558 0.9631656898193873 -0.2597457972544998
vn 0 -0.8613187923146894 0.5080648954666764
vn 0 0.8613187923146894 -0.5080648954666764
vn 0.131496898885429 -0.8613187926994406 0.4907529958403652
vn -0.131496898885429 0.8613187926994406 -0.4907529958403652
vn 0.25403249564358404 -0.8613187852292014 0.4399970924544677
vn -0.25403249564358404 0.8613187852292014 -0.4399970924544677
vn 0.35925618029294526 -0.8613187527522234 0.3592561802929451
vn -0.35925618029294526 0.8613187527522234 -0.3592561802929451
vn 0.4399970924544679 -0.8613187852292014 0.2540324956435839
vn -0.4399970924544679 0.8613187852292014 -0.2540324956435839
vn 0.49075299584036536 -0.8613187926994404 0.13149689888542881
vn -0.49075299584036536 0.8613187926994404 -0.13149689888542881
vn 0.5080648954666767 -0.8613187923146893 0
vn -0.5080648954666767 0.8613187923146893 0
vn 0.49075299584036536 -0.8613187926994404 -0.1314968988854292
vn -0.49075299584036536 0.8613187926994404 0.1314968988854292
vn 0.43999709245446794 -0.8613187852292012 -0.25403249564358427
vn -0.43999709245446794 0.8613187852292012 0.25403249564358427
vn 0.35925618029294526 -0.8613187527522231 -0.3592561802929454
vn -0.35925618029294526 0.8613187527522231 0.3592561802929454
vn 0.25403249564358404 -0.8613187852292011 -0.43999709245446805
vn -0.25403249564358404 0.8613187852292011 0.43999709245446805
vn 0.06959866926434559 -0.9631656898193873 -0.2597457972545003
vn -0.06959866926434559 0.9631656898193873 0.2597457972545003
vn 0 -0.9631656996097013 0.2689085998910313
vn 0 0.9631656996097013 -0.2689085998910313
vn 0.06959866926434558 -0.9631656898193873 0.2597457972544998
vn -0.06959866926434558 0.9631656898193873 -0.2597457972544998
vn 0.13445429928471186 -0.9631656948760211 0.23288169876108428
vn -0.13445429928471186 0.9631656948760211 -0.23288169876108428
vn 0.19014709953097275 -0.9631656976242027 0.19014709953097253
vn -0.19014709953097275 0.9631656976242027 -0.19014709953097253
vn 0.2328816987610845 -0.9631656948760211 0.13445429928471164
vn -0.2328816987610845 0.9631656948760211 -0.13445429928471164
vn 0.2597457972545001 -0.9631656898193874 0.06959866926434538
vn -0.2597457972545001 0.9631656898193874 -0.06959866926434538
vn 0.2689085998910315 -0.9631656996097012 0
vn -0.2689085998910315 0.9631656996097012 0
vn 0.2597457972545001 -0.9631656898193874 -0.0695986692643458
vn -0.2597457972545001 0.9631656898193874 0.0695986692643458
vn 0.2328816987610845 -0.9631656948760211 -0.1344542992847121
vn -0.2328816987610845 0.9631656948760211 0.1344542992847121
vn 0.1901470995309727 -0.9631656976242025 -0.19014709953097292
vn -0.1901470995309727 0.9631656976242025 0.19014709953097292
vn 0.13445429928471186 -0.9631656948760211 -0.23288169876108472
vn -0.13445429928471186 0.9631656948760211 0.23288169876108472
usemtl material_0_0
f 1/1/1 2/2/2 3/3/3
f 2/2/2 1/1/1 4/4/4
f 5/4/5 6/1/6 7/2/7
f 8/3/8 7/2/7 6/1/6
f 9/5/9 3/6/3 10/7/10
f 3/6/3 9/5/9 1/8/1
f 6/8/6 11/5/11 8/6/8
f 12/7/12 8/6/8 11/5/11
f 13/9/13 1/10/1 14/11/14
f 1/10/1 13/9/13 4/12/4
f 5/12/5 15/9/15 6/10/6
f 16/11/16 6/10/6 15/9/15
f 17/13/17 2/14/2 4/15/4
f 2/14/2 17/13/17 18/16/18
f 19/16/19 20/13/20 7/14/7
f 5/15/5 7/14/7 20/13/20
f 3/17/3 21/18/21 22/19/22
f 21/18/21 3/17/3 2/20/2
f 7/20/7 8/17/8 23/18/23
f 24/19/24 23/18/23 8/17/8
f 25/21/25 10/22/10 26/23/26
f 10/22/10 25/21/25 9/24/9
f 11/24/11 27/21/27 12/22/12
f 28/23/28 12/22/12 27/21/27
f 14/25/14 9/26/9 29/27/29
f 9/26/9 14/25/14 1/28/1
f 6/28/6 16/25/16 11/26/11
f 30/27/30 11/26/11 16/25/16
f 10/29/10 22/30/22 31/31/31
f 22/30/22 10/29/10 3/32/3
f 8/32/8 12/29/12 24/30/24
f 32/31/32 24/30/24 12/29/12
f 33/33/33 14/34/14 34/35/34
f 14/34/14 33/33/33 13/36/13
f 15/36/15 35/33/35 16/34/16
f 36/35/36 16/34/16 35/33/35
f 17/37/17 13/38/13 37/39/37
f 13/38/13 17/37/17 4/40/4
f 5/40/5 20/37/20 15/38/15
f 38/39/38 15/38/15 20/37/20
f 39/41/39 18/42/18 17/43/17
f 18/42/18 39/41/39 40/44/40
f 41/44/41 42/41/42 19/42/19
f 20/43/20 19/42/19 42/41/42
f 18/45/18 21/46/21 2/47/2
f 21/46/21 18/45/18 43/48/43
f 44/48/44 19/45/19 23/46/23
f 7/47/7 23/46/23 19/45/19
f 22/49/22 45/50/45 46/51/46
f 45/50/45 22/49/22 21/52/21
f 23/52/23 24/49/24 47/50/47
f 48/51/48 47/50/47 24/49/24
f 26/53/26 49/54/49 25/55/25
f 49/54/49 26/53/26 50/56/50
f 51/56/51 28/53/28 52/54/52
f 27/55/27 52/54/52 28/53/28
f 29/57/29 25/58/25 53/59/53
f 25/58/25 29/57/29 9/60/9
f 11/60/11 30/57/30 27/58/27
f 54/59/54 27/58/27 30/57/30
f 26/61/26 31/62/31 55/63/55
f 31/62/31 26/61/26 10/64/10
f 12/64/12 28/61/28 32/62/32
f 56/63/56 32/62/32 28/61/28
f 34/65/34 29/66/29 57/67/57
f 29/66/29 34/65/34 14/68/14
f 16/68/16 36/65/36 30/66/30
f 58/67/58 30/66/30 36/65/36
f 31/69/31 46/70/46 59/71/59
f 46/70/46 31/69/31 22/72/22
f 24/72/24 32/69/32 48/70/48
f 60/71/60 48/70/48 32/69/32
f 33/73/33 34/74/34 61/75/61
f 62/75/62 36/74/36 35/73/35
f 37/76/37 33/77/33 63/78/63
f 33/77/33 37/76/37 13/79/13
f 15/79/15 38/76/38 35/77/35
f 64/78/64 35/77/35 38/76/38
f 39/80/39 37/81/37 65/82/65
f 37/81/37 39/80/39 17/83/17
f 20/83/20 42/80/42 38/81/38
f 66/82/66 38/81/38 42/80/42
f 67/84/67 40/85/40 39/86/39
f 40/85/40 67/84/67 68/87/68
f 69/87/69 70/84/70 41/85/41
f 42/86/42 41/85/41 70/84/70
f 40/88/40 43/89/43 18/90/18
f 43/89/43 40/88/40 71/91/71
f 72/91/72 41/88/41 44/89/44
f 19/90/19 44/89/44 41/88/41
f 43/92/43 45/93/45 21/94/21
f 45/93/45 43/92/43 73/95/73
f 74/95/74 44/92/44 47/93/47
f 23/94/23 47/93/47 44/92/44
f 75/96/62 76/97/62 77/98/62
f 76/97/62 75/96/62 78/99/62
f 76/97/62 78/99/62 79/100/62
f 79/100/62 78/99/62 80/101/62
f 79/100/62 80/101/62 81/102/62
f 81/102/62 80/101/62 82/103/62
f 81/102/62 82/103/62 83/104/62
f 83/104/62 82/103/62 84/105/62
f 83/104/62 84/105/62 85/106/62
f 85/106/62 84/105/62 86/107/62
f 85/106/62 86/107/62 87/108/62
f 87/108/62 86/107/62 88/109/62
f 87/108/62 88/109/62 89/110/62
f 89/110/62 88/109/62 90/111/62
f 89/110/62 90/111/62 91/112/62
f 91/112/62 90/111/62 92/113/62
f 91/112/62 92/113/62 93/114/62
f 93/114/62 92/113/62 94/115/62
f 93/114/62 94/115/62 95/116/62
f 95/116/62 94/115/62 96/117/62
f 95/116/62 96/117/62 97/118/62
f 97/118/62 96/117/62 98/119/62
f 99/119/61 100/117/61 101/118/61
f 101/118/61 100/117/61 102/116/61
f 100/117/61 103/115/61 102/116/61
f 102/116/61 103/115/61 104/114/61
f 103/115/61 105/113/61 104/114/61
f 104/114/61 105/113/61 106/112/61
f 105/113/61 107/111/61 106/112/61
f 106/112/61 107/111/61 108/110/61
f 107/111/61 109/109/61 108/110/61
f 108/110/61 109/109/61 110/108/61
f 109/109/61 111/107/61 110/108/61
f 110/108/61 111/107/61 112/106/61
f 111/107/61 113/105/61 112/106/61
f 112/106/61 113/105/61 114/104/61
f 113/105/61 115/103/61 114/104/61
f 114/104/61 115/103/61 116/102/61
f 115/103/61 117/101/61 116/102/61
f 116/102/61 117/101/61 118/100/61
f 117/101/61 119/99/61 118/100/61
f 118/100/61 119/99/61 120/97/61
f 119/99/61 121/96/61 120/97/61
f 122/98/61 120/97/61 121/96/61
f 50/120/50 123/121/75 49/122/49
f 123/121/75 50/120/50 124/123/76
f 125/123/77 51/120/51 126/121/78
f 52/122/52 126/121/78 51/120/51
f 53/124/53 49/125/49 127/126/79
f 49/125/49 53/124/53 25/127/25
f 27/127/27 54/124/54 52/125/52
f 128/126/80 52/125/52 54/124/54
f 55/128/55 50/129/50 26/130/26
f 50/129/50 55/128/55 129/131/81
f 130/131/82 56/128/56 51/129/51
f 28/130/28 51/129/51 56/128/56
f 57/132/57 53/133/53 131/134/83
f 53/133/53 57/132/57 29/135/29
f 30/135/30 58/132/58 54/133/54
f 132/134/84 54/133/54 58/132/58
f 55/136/55 59/137/59 133/138/85
f 59/137/59 55/136/55 31/139/31
f 32/139/32 56/136/56 60/137/60
f 134/138/86 60/137/60 56/136/56
f 34/140/34 57/141/57 61/142/61
f 62/142/62 58/141/58 36/140/36
f 33/143/33 61/144/61 63/145/63
f 64/145/64 62/144/62 35/143/35
f 65/146/65 63/147/63 135/148/87
f 63/147/63 65/146/65 37/149/37
f 38/149/38 66/146/66 64/147/64
f 136/148/88 64/147/64 66/146/66
f 67/150/67 65/151/65 137/152/89
f 65/151/65 67/150/67 39/153/39
f 42/153/42 70/150/70 66/151/66
f 138/152/90 66/151/66 70/150/70
f 139/154/91 67/155/67 140/156/92
f 67/155/67 139/154/91 68/157/68
f 69/157/69 141/154/93 70/155/70
f 142/156/94 70/155/70 141/154/93
f 68/158/68 71/159/71 40/160/40
f 71/159/71 68/158/68 143/161/95
f 144/161/96 69/158/69 72/159/72
f 41/160/41 72/159/72 69/158/69
f 71/162/71 73/163/73 43/164/43
f 73/163/73 71/162/71 145/165/97
f 146/165/98 72/162/72 74/163/74
f 44/164/44 74/163/74 72/162/72
f 147/166/99 148/167/100 149/168/101
f 148/167/100 147/166/99 150/169/102
f 151/169/103 152/166/104 153/167/105
f 154/168/106 153/167/105 152/166/104
f 155/170/107 149/171/101 129/172/81
f 149/171/101 155/170/107 147/173/99
f 152/173/104 156/170/108 154/171/106
f 130/172/82 154/171/106 156/170/108
f 133/174/85 129/175/81 55/176/55
f 129/175/81 133/174/85 155/177/107
f 156/177/108 134/174/86 130/175/82
f 56/176/56 130/175/82 134/174/86
f 143/178/95 145/179/97 71/180/71
f 145/179/97 143/178/95 157/181/109
f 158/181/110 144/178/96 146/179/98
f 72/180/72 146/179/98 144/178/96
f 159/182/111 143/183/95 160/184/112
f 143/183/95 159/182/111 157/185/109
f 158/185/110 161/182/113 144/183/96
f 162/184/114 144/183/96 161/182/113
f 163/186/115 160/187/112 164/188/116
f 160/187/112 163/186/115 159/189/111
f 161/189/113 165/186/117 162/187/114
f 166/188/118 162/187/114 165/186/117
f 167/190/119 164/191/116 168/192/120
f 164/191/116 167/190/119 163/193/115
f 165/193/117 169/190/121 166/191/118
f 170/192/122 166/191/118 169/190/121
f 171/194/123 168/195/120 172/196/124
f 168/195/120 171/194/123 167/197/119
f 169/197/121 173/194/125 170/195/122
f 174/196/126 170/195/122 173/194/125
f 175/198/127 172/199/124 176/200/128
f 172/199/124 175/198/127 171/201/123
f 173/201/125 177/198/129 174/199/126
f 178/200/130 174/199/126 177/198/129
f 179/202/131 176/203/128 180/204/132
f 176/203/128 179/202/131 175/205/127
f 177/205/129 181/202/133 178/203/130
f 182/204/134 178/203/130 181/202/133
f 183/206/135 180/207/132 184/208/136
f 180/207/132 183/206/135 179/209/131
f 181/209/133 185/206/137 182/207/134
f 186/208/138 182/207/134 185/206/137
f 187/210/139 184/211/136 188/212/140
f 184/211/136 187/210/139 183/213/135
f 185/213/137 189/210/141 186/211/138
f 190/212/142 186/211/138 189/210/141
f 191/214/143 188/215/140 192/216/144
f 188/215/140 191/214/143 187/217/139
f 189/217/141 193/214/145 190/215/142
f 194/216/146 190/215/142 193/214/145
f 191/218/143 195/219/147 196/220/148
f 195/219/147 191/218/143 192/221/144
f 194/221/146 193/218/145 197/219/149
f 198/220/150 197/219/149 193/218/145
f 196/222/148 199/223/151 200/224/152
f 199/223/151 196/222/148 195/225/147
f 197/225/149 198/222/150 201/223/153
f 202/224/154 201/223/153 198/222/150
f 200/226/152 203/227/155 204/228/156
f 203/227/155 200/226/152 199/229/151
f 201/229/153 202/226/154 205/227/157
f 206/228/158 205/227/157 202/226/154
f 207/230/159 203/231/155 208/232/160
f 203/231/155 207/230/159 204/233/156
f 206/233/158 209/230/161 205/231/157
f 210/232/162 205/231/157 209/230/161
f 211/234/163 208/235/160 212/236/164
f 208/235/160 211/234/163 207/237/159
f 209/237/161 213/234/165 210/235/162
f 214/236/166 210/235/162 213/234/165
f 150/238/102 212/239/164 148/240/100
f 212/239/164 150/238/102 211/241/163
f 213/241/165 151/238/103 214/239/166
f 153/240/105 214/239/166 151/238/103
f 124/242/76 215/243/167 123/244/75
f 215/243/167 124/242/76 216/245/168
f 217/245/169 125/242/77 218/243/170
f 126/244/78 218/243/170 125/242/77
f 127/246/79 123/247/75 219/248/171
f 123/247/75 127/246/79 49/249/49
f 52/249/52 128/246/80 126/247/78
f 220/248/172 126/247/78 128/246/80
f 129/250/81 124/251/76 50/252/50
f 124/251/76 129/250/81 149/253/101
f 154/253/106 130/250/82 125/251/77
f 51/252/51 125/251/77 130/250/82
f 131/254/83 127/255/79 221/256/173
f 127/255/79 131/254/83 53/257/53
f 54/257/54 132/254/84 128/255/80
f 222/256/174 128/255/80 132/254/84
f 57/258/57 131/259/83 61/260/61
f 62/260/62 132/259/84 58/258/58
f 63/261/63 61/262/61 135/263/87
f 136/263/88 62/262/62 64/261/64
f 137/264/89 135/265/87 223/266/175
f 135/265/87 137/264/89 65/267/65
f 66/267/66 138/264/90 136/265/88
f 224/266/176 136/265/88 138/264/90
f 140/268/92 137/269/89 225/270/177
f 137/269/89 140/268/92 67/271/67
f 70/271/70 142/268/94 138/269/90
f 226/270/178 138/269/90 142/268/94
f 227/272/179 140/273/92 228/274/180
f 140/273/92 227/272/179 139/275/91
f 141/275/93 229/272/181 142/273/94
f 230/274/182 142/273/94 229/272/181
f 160/276/112 68/277/68 139/278/91
f 68/277/68 160/276/112 143/279/95
f 144/279/96 162/276/114 69/277/69
f 141/278/93 69/277/69 162/276/114
f 149/280/101 216/281/168 124/282/76
f 216/281/168 149/280/101 148/283/100
f 153/283/105 154/280/106 217/281/169
f 125/282/77 217/281/169 154/280/106
f 164/284/116 139/285/91 227/286/179
f 139/285/91 164/284/116 160/287/112
f 162/287/114 166/284/118 141/285/93
f 229/286/181 141/285/93 166/284/118
f 168/288/120 227/289/179 231/290/183
f 227/289/179 168/288/120 164/291/116
f 166/291/118 170/288/122 229/289/181
f 232/290/184 229/289/181 170/288/122
f 172/292/124 231/293/183 233/294/185
f 231/293/183 172/292/124 168/295/120
f 170/295/122 174/292/126 232/293/184
f 234/294/186 232/293/184 174/292/126
f 176/296/128 233/297/185 235/298/187
f 233/297/185 176/296/128 172/299/124
f 174/299/126 178/296/130 234/297/186
f 236/298/188 234/297/186 178/296/130
f 180/300/132 235/301/187 237/302/189
f 235/301/187 180/300/132 176/303/128
f 178/303/130 182/300/134 236/301/188
f 238/302/190 236/301/188 182/300/134
f 184/304/136 237/305/189 239/306/191
f 237/305/189 184/304/136 180/307/132
f 182/307/134 186/304/138 238/305/190
f 240/306/192 238/305/190 186/304/138
f 188/308/140 239/309/191 241/310/193
f 239/309/191 188/308/140 184/311/136
f 186/311/138 190/308/142 240/309/192
f 242/310/194 240/309/192 190/308/142
f 188/312/140 243/313/195 192/314/144
f 243/313/195 188/312/140 241/315/193
f 242/315/194 190/312/142 244/313/196
f 194/314/146 244/313/196 190/312/142
f 192/316/144 245/317/197 195/318/147
f 245/317/197 192/316/144 243/319/195
f 244/319/196 194/316/146 246/317/198
f 197/318/149 246/317/198 194/316/146
f 195/320/147 247/321/199 199/322/151
f 247/321/199 195/320/147 245/323/197
f 246/323/198 197/320/149 248/321/200
f 201/322/153 248/321/200 197/320/149
f 199/324/151 249/325/201 203/326/155
f 249/325/201 199/324/151 247/327/199
f 248/327/200 201/324/153 250/325/202
f 205/326/157 250/325/202 201/324/153
f 208/328/160 249/329/201 251/330/203
f 249/329/201 208/328/160 203/331/155
f 205/331/157 210/328/162 250/329/202
f 252/330/204 250/329/202 210/328/162
f 212/332/164 251/333/203 253/334/205
f 251/333/203 212/332/164 208/335/160
f 210/335/162 214/332/166 252/333/204
f 254/334/206 252/333/204 214/332/166
f 148/336/100 253/337/205 216/338/168
f 253/337/205 148/336/100 212/339/164
f 214/339/166 153/336/105 254/337/206
f 217/338/169 254/337/206 153/336/105
f 216/340/168 255/341/207 215/342/167
f 255/341/207 216/340/168 253/343/205
f 254/343/206 217/340/169 256/341/208
f 218/342/170 256/341/208 217/340/169
f 219/344/171 215/345/167 257/346/209
f 215/345/167 219/344/171 123/347/75
f 126/347/78 220/344/172 218/345/170
f 258/346/210 218/345/170 220/344/172
f 221/348/173 219/349/171 259/350/211
f 219/349/171 221/348/173 127/351/79
f 128/351/80 222/348/174 220/349/172
f 260/350/212 220/349/172 222/348/174
f 131/352/83 221/353/173 61/354/61
f 62/354/62 222/353/174 132/352/84
f 135/355/87 61/356/61 223/357/175
f 224/357/176 62/356/62 136/355/88
f 225/358/177 223/359/175 261/360/213
f 223/359/175 225/358/177 137/361/89
f 138/361/90 226/358/178 224/359/176
f 262/360/214 224/359/176 226/358/178
f 228/362/180 225/363/177 263/364/215
f 225/363/177 228/362/180 140/365/92
f 142/365/94 230/362/182 226/363/178
f 264/364/216 226/363/178 230/362/182
f 231/366/183 228/367/180 265/368/217
f 228/367/180 231/366/183 227/369/179
f 229/369/181 232/366/184 230/367/182
f 266/368/218 230/367/182 232/366/184
f 233/370/185 265/371/217 267/372/219
f 265/371/217 233/370/185 231/373/183
f 232/373/184 234/370/186 266/371/218
f 268/372/220 266/371/218 234/370/186
f 235/374/187 267/375/219 269/376/221
f 267/375/219 235/374/187 233/377/185
f 234/377/186 236/374/188 268/375/220
f 270/376/222 268/375/220 236/374/188
f 237/378/189 269/379/221 271/380/223
f 269/379/221 237/378/189 235/381/187
f 236/381/188 238/378/190 270/379/222
f 272/380/224 270/379/222 238/378/190
f 239/382/191 271/383/223 273/384/225
f 271/383/223 239/382/191 237/385/189
f 238/385/190 240/382/192 272/383/224
f 274/384/226 272/383/224 240/382/192
f 241/386/193 273/387/225 275/388/227
f 273/387/225 241/386/193 239/389/191
f 240/389/192 242/386/194 274/387/226
f 276/388/228 274/387/226 242/386/194
f 243/390/195 275/391/227 277/392/229
f 275/391/227 243/390/195 241/393/193
f 242/393/194 244/390/196 276/391/228
f 278/392/230 276/391/228 244/390/196
f 243/394/195 279/395/231 245/396/197
f 279/395/231 243/394/195 277/397/229
f 278/397/230 244/394/196 280/395/232
f 246/396/198 280/395/232 244/394/196
f 245/398/197 281/399/233 247/400/199
f 281/399/233 245/398/197 279/401/231
f 280/401/232 246/398/198 282/399/234
f 248/400/200 282/399/234 246/398/198
f 247/402/199 283/403/235 249/404/201
f 283/403/235 247/402/199 281/405/233
f 282/405/234 248/402/200 284/403/236
f 250/404/202 284/403/236 248/402/200
f 251/406/203 283/407/235 285/408/237
f 283/407/235 251/406/203 249/409/201
f 250/409/202 252/406/204 284/407/236
f 286/408/238 284/407/236 252/406/204
f 253/410/205 285/411/237 255/412/207
f 285/411/237 253/410/205 251/413/203
f 252/413/204 254/410/206 286/411/238
f 256/412/208 286/411/238 254/410/206
f 287/414/239 215/415/167 255/416/207
f 215/415/167 287/414/239 257/417/209
f 258/417/210 288/414/240 218/415/170
f 256/416/208 218/415/170 288/414/240
f 259/418/211 257/419/209 289/420/241
f 257/419/209 259/418/211 219/421/171
f 220/421/172 260/418/212 258/419/210
f 290/420/242 258/419/210 260/418/212
f 221/422/173 259/423/211 61/424/61
f 62/424/62 260/423/212 222/422/174
f 223/425/175 61/426/61 261/427/213
f 262/427/214 62/426/62 224/425/176
f 263/428/215 261/429/213 291/430/243
f 261/429/213 263/428/215 225/431/177
f 226/431/178 264/428/216 262/429/214
f 292/430/244 262/429/214 264/428/216
f 228/432/180 293/433/245 265/434/217
f 293/433/245 228/432/180 263/435/215
f 264/435/216 230/432/182 294/433/246
f 266/434/218 294/433/246 230/432/182
f 265/436/217 295/437/247 267/438/219
f 295/437/247 265/436/217 293/439/245
f 294/439/246 266/436/218 296/437/248
f 268/438/220 296/437/248 266/436/218
f 267/440/219 297/441/249 269/442/221
f 297/441/249 267/440/219 295/443/247
f 296/443/248 268/440/220 298/441/250
f 270/442/222 298/441/250 268/440/220
f 269/444/221 299/445/251 271/446/223
f 299/445/251 269/444/221 297/447/249
f 298/447/250 270/444/222 300/445/252
f 272/446/224 300/445/252 270/444/222
f 271/448/223 301/449/253 273/450/225
f 301/449/253 271/448/223 299/451/251
f 300/451/252 272/448/224 302/449/254
f 274/450/226 302/449/254 272/448/224
f 273/452/225 303/453/255 275/454/227
f 303/453/255 273/452/225 301/455/253
f 302/455/254 274/452/226 304/453/256
f 276/454/228 304/453/256 274/452/226
f 275/456/227 305/457/257 277/458/229
f 305/457/257 275/456/227 303/459/255
f 304/459/256 276/456/228 306/457/258
f 278/458/230 306/457/258 276/456/228
f 305/460/257 279/461/231 277/462/229
f 279/461/231 305/460/257 307/463/259
f 308/463/260 306/460/258 280/461/232
f 278/462/230 280/461/232 306/460/258
f 307/464/259 281/465/233 279/466/231
f 281/465/233 307/464/259 309/467/261
f 310/467/262 308/464/260 282/465/234
f 280/466/232 282/465/234 308/464/260
f 309/468/261 283/469/235 281/470/233
f 283/469/235 309/468/261 311/471/263
f 312/471/264 310/468/262 284/469/236
f 282/470/234 284/469/236 310/468/262
f 311/472/263 285/473/237 283/474/235
f 285/473/237 311/472/263 313/475/265
f 314/475/266 312/472/264 286/473/238
f 284/474/236 286/473/238 312/472/264
f 313/476/265 255/477/207 285/478/237
f 255/477/207 313/476/265 287/479/239
f 288/479/240 314/476/266 256/477/208
f 286/478/238 256/477/208 314/476/266
f 315/480/267 257/481/209 287/482/239
f 257/481/209 315/480/267 289/483/241
f 290/483/242 316/480/268 258/481/210
f 288/482/240 258/481/210 316/480/268
f 259/484/211 289/485/241 61/486/61
f 62/486/62 290/485/242 260/484/212
f 261/487/213 61/488/61 291/489/243
f 292/489/244 62/488/62 262/487/214
f 263/490/215 317/491/269 293/492/245
f 317/491/269 263/490/215 291/493/243
f 292/493/244 264/490/216 318/491/270
f 294/492/246 318/491/270 264/490/216
f 293/494/245 319/495/271 295/496/247
f 319/495/271 293/494/245 317/497/269
f 318/497/270 294/494/246 320/495/272
f 296/496/248 320/495/272 294/494/246
f 295/498/247 321/499/273 297/500/249
f 321/499/273 295/498/247 319/501/271
f 320/501/272 296/498/248 322/499/274
f 298/500/250 322/499/274 296/498/248
f 297/502/249 323/503/275 299/504/251
f 323/503/275 297/502/249 321/505/273
f 322/505/274 298/502/250 324/503/276
f 300/504/252 324/503/276 298/502/250
f 299/506/251 325/507/277 301/508/253
f 325/507/277 299/506/251 323/509/275
f 324/509/276 300/506/252 326/507/278
f 302/508/254 326/507/278 300/506/252
f 301/510/253 327/511/279 303/512/255
f 327/511/279 301/510/253 325/513/277
f 326/513/278 302/510/254 328/511/280
f 304/512/256 328/511/280 302/510/254
f 303/514/255 329/515/281 305/516/257
f 329/515/281 303/514/255 327/517/279
f 328/517/280 304/514/256 330/515/282
f 306/516/258 330/515/282 304/514/256
f 329/518/281 307/519/259 305/520/257
f 307/519/259 329/518/281 331/521/283
f 332/521/284 330/518/282 308/519/260
f 306/520/258 308/519/260 330/518/282
f 331/522/283 309/523/261 307/524/259
f 309/523/261 331/522/283 333/525/285
f 334/525/286 332/522/284 310/523/262
f 308/524/260 310/523/262 332/522/284
f 333/526/285 311/527/263 309/528/261
f 311/527/263 333/526/285 335/529/287
f 336/529/288 334/526/286 312/527/264
f 310/528/262 312/527/264 334/526/286
f 335/530/287 313/531/265 311/532/263
f 313/531/265 335/530/287 337/533/289
f 338/533/290 336/530/288 314/531/266
f 312/532/264 314/531/266 336/530/288
f 337/534/289 287/535/239 313/536/265
f 287/535/239 337/534/289 315/537/267
f 316/537/268 338/534/290 288/535/240
f 314/536/266 288/535/240 338/534/290
f 289/538/241 315/539/267 61/540/61
f 62/540/62 316/539/268 290/538/242
f 291/541/243 61/542/61 317/543/269
f 318/543/270 62/542/62 292/541/244
f 61/544/61 319/545/271 317/546/269
f 318/546/270 320/545/272 62/544/62
f 61/547/61 321/548/273 319/549/271
f 320/549/272 322/548/274 62/547/62
f 61/550/61 323/551/275 321/552/273
f 322/552/274 324/551/276 62/550/62
f 61/553/61 325/554/277 323/555/275
f 324/555/276 326/554/278 62/553/62
f 61/556/61 327/557/279 325/558/277
f 326/558/278 328/557/280 62/556/62
f 61/559/61 329/560/281 327/561/279
f 328/561/280 330/560/282 62/559/62
f 61/562/61 331/563/283 329/564/281
f 330/564/282 332/563/284 62/562/62
f 61/565/61 333/566/285 331/567/283
f 332/567/284 334/566/286 62/565/62
f 61/568/61 335/569/287 333/570/285
f 334/570/286 336/569/288 62/568/62
f 61/571/61 337/572/289 335/573/287
f 336/573/288 338/572/290 62/571/62
f 61/574/61 315/575/267 337/576/289
f 338/576/290 316/575/268 62/574/62
