# SSTK version 0.8.0
# 5
mtllib original_5.mtl
o #ID59
v 0.02026569 0.96108827 0.04409856
v 0.02047518 0.96519032 0.04416576
v 0.02055071 0.96321320 0.04423686
v 0.01982352 0.96733159 0.04414141
v 0.01952486 0.95904266 0.04427345
v 0.01885547 0.96932673 0.04418791
v 0.01818363 0.95726332 0.04407465
v 0.01758413 0.97093987 0.04408763
v 0.01660024 0.95576453 0.04410692
v 0.01588115 0.97236860 0.04423885
v 0.01488782 0.95468028 0.04424604
v 0.01390258 0.97338742 0.04434704
v 0.01286533 0.95377630 0.04420721
v 0.01197042 0.97406446 0.04417721
v 0.01080997 0.95349946 0.04432886
v 0.00960620 0.97400058 0.04436473
v 0.00857495 0.95365400 0.04418397
v 0.00764106 0.97378985 0.04423471
v 0.00653651 0.95432209 0.04427375
v 0.00555014 0.97304292 0.04442354
v 0.00449010 0.95530235 0.04428837
v 0.00376107 0.97183131 0.04439365
v 0.00292455 0.95645972 0.04440100
v 0.00214632 0.97034134 0.04442214
v 0.00145940 0.95812551 0.04445255
v 0.00103172 0.96858705 0.04427152
v 0.00058652 0.96006409 0.04425414
v 0.00018025 0.96656142 0.04450017
v 0.00012868 0.96218114 0.04425208
v -0.00008868 0.96448457 0.04445938
vn -0.012217007496647921 0 -0.9999253695790635
usemtl material_0_0
f 1//1 2//1 3//1
f 2//1 1//1 4//1
f 4//1 1//1 5//1
f 4//1 5//1 6//1
f 6//1 5//1 7//1
f 6//1 7//1 8//1
f 8//1 7//1 9//1
f 8//1 9//1 10//1
f 10//1 9//1 11//1
f 10//1 11//1 12//1
f 12//1 11//1 13//1
f 12//1 13//1 14//1
f 14//1 13//1 15//1
f 14//1 15//1 16//1
f 16//1 15//1 17//1
f 16//1 17//1 18//1
f 18//1 17//1 19//1
f 18//1 19//1 20//1
f 20//1 19//1 21//1
f 20//1 21//1 22//1
f 22//1 21//1 23//1
f 22//1 23//1 24//1
f 24//1 23//1 25//1
f 24//1 25//1 26//1
f 26//1 25//1 27//1
f 26//1 27//1 28//1
f 28//1 27//1 29//1
f 28//1 29//1 30//1
