# SSTK version 0.8.0
# 7
mtllib original_7.mtl
o group_6/ID79#ID79
v 0.02246163 0.78576650 0.03767256
v 0.00606800 0.78574275 0.03967435
v 0.01437056 0.78560895 0.03959973
v -0.00204290 0.78576152 0.03805028
v 0.03003320 0.78573773 0.03419246
v -0.00951960 0.78559526 0.03478321
v -0.01652552 0.78587982 0.02998029
v 0.03647439 0.78575750 0.02931816
v -0.02196267 0.78586872 0.02386388
v 0.04213712 0.78583833 0.02319382
v 0.04609677 0.78583387 0.01586190
v -0.02622004 0.78585111 0.01672561
v -0.02896630 0.78575132 0.00887414
v 0.04871303 0.78567825 0.00789481
v -0.02986652 0.78585030 0.00080665
v 0.04948167 0.78560949 -0.00026087
v 0.04836314 0.78573910 -0.00848843
v -0.02897797 0.78557919 -0.00759939
v -0.02663802 0.78558590 -0.01531167
v 0.04573592 0.78557569 -0.01636640
v 0.04159028 0.78569669 -0.02353370
v -0.02265589 0.78574895 -0.02271738
v -0.01723743 0.78566864 -0.02892918
v 0.03587939 0.78575697 -0.02961984
v 0.02914093 0.78561291 -0.03441154
v -0.01041787 0.78570610 -0.03392453
v 0.02138431 0.78569316 -0.03751093
v -0.00296144 0.78573027 -0.03741043
v 0.00500201 0.78578988 -0.03912785
v 0.01348080 0.78572773 -0.03932364
v 0.01351656 0.78565078 -0.03909738
v 0.02170317 0.78573191 -0.03777094
v 0.00516318 0.78568690 -0.03907147
v -0.00289931 0.78572373 -0.03729775
v -0.01047903 0.78578705 -0.03379453
v 0.02927238 0.78583244 -0.03432482
v -0.01725617 0.78591536 -0.02886913
v 0.03593706 0.78580090 -0.02961303
v 0.04159856 0.78581796 -0.02341803
v -0.02248362 0.78570169 -0.02260912
v -0.02646323 0.78584460 -0.01547601
v 0.04579201 0.78572805 -0.01643777
v 0.04851426 0.78578230 -0.00853786
v -0.02919926 0.78566330 -0.00771918
v -0.02988995 0.78584997 0.00075955
v 0.04931971 0.78568290 -0.00027076
v 0.04862547 0.78569966 0.00779874
v -0.02885962 0.78561640 0.00893622
v 0.04620936 0.78586158 0.01595471
v -0.02615605 0.78568044 0.01682088
v -0.02210634 0.78564830 0.02403522
v 0.04200870 0.78569094 0.02303334
v 0.03647016 0.78579991 0.02917797
v -0.01625133 0.78579119 0.02998187
v 0.02994069 0.78582328 0.03427850
v -0.00970617 0.78579974 0.03475084
v -0.00200048 0.78566818 0.03811468
v 0.02251592 0.78571332 0.03767002
v 0.00597907 0.78575790 0.03956851
v 0.01446284 0.78580340 0.03947012
v -0.02974126 0.78580047 0.00076797
v -0.02899402 0.71795545 -0.00762516
v -0.02999996 0.71794350 0.00081904
v -0.02912623 0.78570800 -0.00757255
v -0.02906725 0.78559303 -0.00760603
v -0.02986395 0.78566464 0.00064995
v -0.02918069 0.71804600 -0.00750907
v -0.02979504 0.71795944 0.00060072
v -0.02887986 0.78579171 0.00873979
v -0.02888742 0.71805331 0.00900960
v -0.02885784 0.78570420 0.00896634
v -0.02900772 0.71799402 0.00897009
v -0.02638499 0.78562697 0.01668856
v -0.02614714 0.71807295 0.01676565
v -0.02620266 0.78576990 0.01667300
v -0.02633946 0.71816788 0.01662782
v -0.02196107 0.78572767 0.02383481
v -0.02186430 0.71800263 0.02373097
v -0.02203372 0.78572626 0.02377218
v -0.02214618 0.71815071 0.02381516
v -0.01642398 0.78573136 0.02989642
v -0.01645908 0.71790179 0.03000788
v -0.01645174 0.78583987 0.03007494
v -0.01634963 0.71796693 0.02989300
v -0.00955499 0.71794686 0.03478552
v -0.00970152 0.78577397 0.03485581
v -0.00970112 0.71808474 0.03471217
v -0.00975451 0.78585816 0.03460186
v -0.00197814 0.71813542 0.03793629
v -0.00217316 0.78576469 0.03800024
v -0.00196925 0.71809187 0.03792176
v -0.00203151 0.78558762 0.03800525
v 0.00593671 0.71818706 0.03974090
v 0.00605059 0.78590283 0.03981971
v 0.00607475 0.71805362 0.03962141
v 0.00600043 0.78566530 0.03954758
v 0.01431965 0.71805069 0.03966316
v 0.01423381 0.78562684 0.03962089
v 0.01422972 0.71814812 0.03964360
v 0.01442142 0.78566386 0.03951519
v 0.02258780 0.71804914 0.03777999
v 0.02248432 0.78573753 0.03782091
v 0.02253800 0.71821752 0.03785573
v 0.02262041 0.78565741 0.03765783
v 0.02986501 0.71802974 0.03426369
v 0.02991967 0.78568765 0.03430677
v 0.02985585 0.71801389 0.03418445
v 0.03005362 0.78570690 0.03430811
v 0.03669303 0.71792213 0.02929005
v 0.03648050 0.78569939 0.02932506
v 0.03670904 0.71807476 0.02928536
v 0.03646571 0.78572583 0.02929538
v 0.04219921 0.78586896 0.02304460
v 0.04210649 0.71810270 0.02297190
v 0.04211527 0.78584609 0.02315851
v 0.04202907 0.71809058 0.02319560
v 0.04624096 0.78579899 0.01598643
v 0.04607010 0.71805034 0.01592779
v 0.04621149 0.78570966 0.01573922
v 0.04603876 0.71805943 0.01583555
v 0.04860411 0.78582889 0.00802587
v 0.04857257 0.71810175 0.00792609
v 0.04855205 0.78584580 0.00790623
v 0.04860751 0.71814201 0.00801929
v 0.04936596 0.78575033 -0.00028833
v 0.04935994 0.71818160 -0.00030699
v 0.04942202 0.78560392 -0.00034309
v 0.04953607 0.71824848 -0.00021886
v 0.04845295 0.78586923 -0.00843378
v 0.04841923 0.71796322 -0.00848995
v 0.04824119 0.78563973 -0.00856490
v 0.04842896 0.71818037 -0.00848526
v 0.04572781 0.78576129 -0.01634449
v 0.04568825 0.71799704 -0.01631255
v 0.04577512 0.78574623 -0.01628096
v 0.04578651 0.71802757 -0.01651465
v 0.04160766 0.78573204 -0.02348598
v 0.04153341 0.71808072 -0.02347018
v 0.04145514 0.78567333 -0.02333131
v 0.04163286 0.71807869 -0.02353076
v 0.03603000 0.78561436 -0.02947572
v 0.03600384 0.71821520 -0.02948551
v 0.03586998 0.78572660 -0.02964998
v 0.03586163 0.71803380 -0.02970316
v 0.02910222 0.71804622 -0.03437963
v 0.02921801 0.78576871 -0.03450783
v 0.02920178 0.78569977 -0.03433106
v 0.02913552 0.71795733 -0.03441661
v 0.02141668 0.71794265 -0.03754562
v 0.02155010 0.78582613 -0.03754105
v 0.02157749 0.78576768 -0.03760417
v 0.02154266 0.71787930 -0.03752394
v 0.01339152 0.71797357 -0.03925600
v 0.01349116 0.78574416 -0.03923574
v 0.01340014 0.78574846 -0.03917526
v 0.01339777 0.71810818 -0.03925064
v 0.00514922 0.71807002 -0.03918362
v 0.00495525 0.78580564 -0.03905746
v 0.00510290 0.78564040 -0.03909047
v 0.00510927 0.71789129 -0.03914835
v -0.00295399 0.71800548 -0.03740521
v -0.00287738 0.78584234 -0.03728088
v -0.00289737 0.78559357 -0.03744708
v -0.00292676 0.71801582 -0.03733835
v -0.01037542 0.71808128 -0.03394028
v -0.01041702 0.78572859 -0.03374986
v -0.01055049 0.78576688 -0.03398054
v -0.01054765 0.71809387 -0.03384688
v -0.01717418 0.71795561 -0.02875151
v -0.01695527 0.78577583 -0.02890206
v -0.01697735 0.78572114 -0.02903572
v -0.01708165 0.71817519 -0.02888806
v -0.02242858 0.78586223 -0.02275438
v -0.02257992 0.71801301 -0.02268856
v -0.02252031 0.78573985 -0.02266014
v -0.02253629 0.71809252 -0.02274932
v -0.02659285 0.78586712 -0.01566816
v -0.02666012 0.71798452 -0.01549449
v -0.02666349 0.78580797 -0.01548384
v -0.02661887 0.71812388 -0.01555573
vn 0 1 0
vn 0 -1 0
vn -0.9999253696840582 0 0.012216998903152058
vn -0.9806146563781961 0 -0.19594615509438468
vn 0.9806146563781961 0 0.19594615509438468
vn 0.9999253696840582 0 -0.012216998903152058
vn -0.9755345423625431 0 0.21984621137855348
vn 0.9755345423625431 0 -0.21984621137855348
vn -0.9085082019770613 0 0.41786702064222203
vn 0.9085082019770613 0 -0.41786702064222203
vn -0.8017756243083911 0 0.5976251737208613
vn 0.8017756243083911 0 -0.5976251737208613
vn -0.6600016786697496 0 0.7512641240955891
vn 0.6600016786697496 0 -0.7512641240955891
vn -0.4893824550840392 0 0.8720692705604977
vn 0.4893824550840392 0 -0.8720692705604977
vn -0.2973748858380156 0 0.9547607958398937
vn 0.2973748858380156 0 -0.9547607958398937
vn -0.09237062526340357 0 0.995724694676419
vn 0.09237062526340357 0 -0.995724694676419
vn 0.1166707709810876 0 0.9931706455582942
vn -0.1166707709810876 0 -0.9931706455582942
vn 0.32061299859242864 0 0.9472102750358925
vn -0.32061299859242864 0 -0.9472102750358925
vn 0.5105429178771945 0 0.8598522716173054
vn -0.5105429178771945 0 -0.8598522716173054
vn 0.6781596775037689 0 0.7349145881039402
vn -0.6781596775037689 0 -0.7349145881039402
vn 0.8161375685710766 0 0.5778576547618723
vn -0.8161375685710766 0 -0.5778576547618723
vn 0.9184464029587645 0 0.3955454523719201
vn -0.9184464029587645 0 -0.3955454523719201
usemtl material_0_0
f 1//1 2//1 3//1
f 2//1 1//1 4//1
f 4//1 1//1 5//1
f 4//1 5//1 6//1
f 6//1 5//1 7//1
f 7//1 5//1 8//1
f 7//1 8//1 9//1
f 9//1 8//1 10//1
f 9//1 10//1 11//1
f 9//1 11//1 12//1
f 12//1 11//1 13//1
f 13//1 11//1 14//1
f 13//1 14//1 15//1
f 15//1 14//1 16//1
f 15//1 16//1 17//1
f 15//1 17//1 18//1
f 18//1 17//1 19//1
f 19//1 17//1 20//1
f 19//1 20//1 21//1
f 19//1 21//1 22//1
f 22//1 21//1 23//1
f 23//1 21//1 24//1
f 23//1 24//1 25//1
f 23//1 25//1 26//1
f 26//1 25//1 27//1
f 26//1 27//1 28//1
f 28//1 27//1 29//1
f 29//1 27//1 30//1
f 31//2 32//2 33//2
f 33//2 32//2 34//2
f 34//2 32//2 35//2
f 32//2 36//2 35//2
f 35//2 36//2 37//2
f 36//2 38//2 37//2
f 38//2 39//2 37//2
f 37//2 39//2 40//2
f 40//2 39//2 41//2
f 39//2 42//2 41//2
f 42//2 43//2 41//2
f 41//2 43//2 44//2
f 44//2 43//2 45//2
f 43//2 46//2 45//2
f 46//2 47//2 45//2
f 45//2 47//2 48//2
f 47//2 49//2 48//2
f 48//2 49//2 50//2
f 50//2 49//2 51//2
f 49//2 52//2 51//2
f 52//2 53//2 51//2
f 51//2 53//2 54//2
f 53//2 55//2 54//2
f 54//2 55//2 56//2
f 56//2 55//2 57//2
f 55//2 58//2 57//2
f 57//2 58//2 59//2
f 60//2 59//2 58//2
f 61//3 62//4 63//3
f 62//4 61//3 64//4
f 65//5 66//6 67//5
f 68//6 67//5 66//6
f 69//7 63//3 70//7
f 63//3 69//7 61//3
f 66//6 71//8 68//6
f 72//8 68//6 71//8
f 73//9 70//7 74//9
f 70//7 73//9 69//7
f 71//8 75//10 72//8
f 76//10 72//8 75//10
f 77//11 74//9 78//11
f 74//9 77//11 73//9
f 75//10 79//12 76//10
f 80//12 76//10 79//12
f 81//13 78//11 82//13
f 78//11 81//13 77//11
f 79//12 83//14 80//12
f 84//14 80//12 83//14
f 81//13 85//15 86//15
f 85//15 81//13 82//13
f 84//14 83//14 87//16
f 88//16 87//16 83//14
f 86//15 89//17 90//17
f 89//17 86//15 85//15
f 87//16 88//16 91//18
f 92//18 91//18 88//16
f 90//17 93//19 94//19
f 93//19 90//17 89//17
f 91//18 92//18 95//20
f 96//20 95//20 92//18
f 94//19 97//21 98//21
f 97//21 94//19 93//19
f 95//20 96//20 99//22
f 100//22 99//22 96//20
f 98//21 101//23 102//23
f 101//23 98//21 97//21
f 99//22 100//22 103//24
f 104//24 103//24 100//22
f 102//23 105//25 106//25
f 105//25 102//23 101//23
f 103//24 104//24 107//26
f 108//26 107//26 104//24
f 106//25 109//27 110//27
f 109//27 106//25 105//25
f 107//26 108//26 111//28
f 112//28 111//28 108//26
f 113//29 109//27 114//29
f 109//27 113//29 110//27
f 112//28 115//30 111//28
f 116//30 111//28 115//30
f 117//31 114//29 118//31
f 114//29 117//31 113//29
f 115//30 119//32 116//30
f 120//32 116//30 119//32
f 121//5 118//31 122//5
f 118//31 121//5 117//31
f 119//32 123//4 120//32
f 124//4 120//32 123//4
f 125//6 122//5 126//6
f 122//5 125//6 121//5
f 123//4 127//3 124//4
f 128//3 124//4 127//3
f 129//8 126//6 130//8
f 126//6 129//8 125//6
f 127//3 131//7 128//3
f 132//7 128//3 131//7
f 133//10 130//8 134//10
f 130//8 133//10 129//8
f 131//7 135//9 132//7
f 136//9 132//7 135//9
f 137//12 134//10 138//12
f 134//10 137//12 133//10
f 135//9 139//11 136//9
f 140//11 136//9 139//11
f 141//14 138//12 142//14
f 138//12 141//14 137//12
f 139//11 143//13 140//11
f 144//13 140//11 143//13
f 145//16 141//14 142//14
f 141//14 145//16 146//16
f 147//15 148//15 143//13
f 144//13 143//13 148//15
f 149//18 146//16 145//16
f 146//16 149//18 150//18
f 151//17 152//17 147//15
f 148//15 147//15 152//17
f 153//20 150//18 149//18
f 150//18 153//20 154//20
f 155//19 156//19 151//17
f 152//17 151//17 156//19
f 157//22 154//20 153//20
f 154//20 157//22 158//22
f 159//21 160//21 155//19
f 156//19 155//19 160//21
f 161//24 158//22 157//22
f 158//22 161//24 162//24
f 163//23 164//23 159//21
f 160//21 159//21 164//23
f 165//26 162//24 161//24
f 162//24 165//26 166//26
f 167//25 168//25 163//23
f 164//23 163//23 168//25
f 169//28 166//26 165//26
f 166//26 169//28 170//28
f 171//27 172//27 167//25
f 168//25 167//25 172//27
f 173//30 169//28 174//30
f 169//28 173//30 170//28
f 171//27 175//29 172//27
f 176//29 172//27 175//29
f 177//32 174//30 178//32
f 174//30 177//32 173//30
f 175//29 179//31 176//29
f 180//31 176//29 179//31
f 64//4 178//32 62//4
f 178//32 64//4 177//32
f 179//31 65//5 180//31
f 67//5 180//31 65//5
