# SSTK version 0.8.0
# 8
mtllib original-8.mtl
o group_3/ID49#ID49
v -0.00248173 0.50136177 -0.07395655
v -0.01203451 0.51070629 0.01249816
v -0.03100804 0.50136808 -0.07060047
v -0.00235603 0.51081613 0.01152107
v -0.00231842 0.51073568 0.01150116
v -0.00241763 0.50138587 -0.07397296
v -0.01199727 0.51070317 0.01251842
v -0.03087295 0.50135704 -0.07070132
v -0.00237692 0.48267464 -0.15789542
v -0.04969292 0.48249745 -0.15258724
v -0.00241689 0.48256344 -0.15785419
v -0.04968737 0.48266290 -0.15241928
v 0.02608051 0.50136230 -0.07076402
v 0.00706859 0.51083422 0.01246911
v 0.00725842 0.51070830 0.01257974
v 0.02624744 0.50126173 -0.07067309
v -0.04101297 0.51082142 0.03586347
v -0.04107083 0.51082441 0.07306145
v -0.04432664 0.51079822 0.06396308
v -0.03585796 0.51072497 0.02754568
v -0.03586162 0.51084900 0.08115682
v -0.02924135 0.51078651 0.02090043
v -0.02910071 0.51085747 0.08792747
v -0.02100007 0.51079078 0.01566148
v -0.02096962 0.51073720 0.09307149
v -0.01185020 0.51076609 0.09624052
v -0.00242151 0.51078559 0.09722793
v 0.00707816 0.51081568 0.09623124
v 0.01621775 0.51071391 0.01564832
v 0.01616758 0.51086457 0.09298825
v 0.02428500 0.51078186 0.02079248
v 0.02437872 0.51072905 0.08794775
v 0.03114734 0.51072920 0.02760188
v 0.03118778 0.51086244 0.08121590
v 0.03637919 0.51070359 0.03572900
v 0.03632202 0.51070265 0.07303104
v 0.03955477 0.51078100 0.04490442
v 0.03947818 0.51077725 0.04492860
v 0.03633761 0.51080554 0.03570905
v 0.03619258 0.51070217 0.07297059
v 0.03121794 0.51085138 0.08111878
v 0.03117386 0.51079790 0.02771686
v 0.02430770 0.51079241 0.08803293
v 0.02431447 0.51072750 0.02090644
v 0.01616314 0.51086115 0.09316050
v 0.01623352 0.51080784 0.01582212
v 0.00716398 0.51074811 0.09631780
v -0.00232085 0.51083539 0.09722163
v -0.01183934 0.51070271 0.09615056
v -0.02109005 0.51068602 0.09303164
v -0.02094995 0.51075039 0.01582491
v -0.02916767 0.51086573 0.08800228
v -0.02915329 0.51079913 0.02087062
v -0.03602495 0.51080612 0.08117759
v -0.03585331 0.51068904 0.02762715
v -0.04098745 0.51067102 0.07302239
v -0.04103114 0.51068406 0.03572077
v -0.04413650 0.51067219 0.06397881
v -0.05807357 0.50126455 -0.06118272
v -0.05799913 0.50128784 -0.06119063
v -0.00239145 0.45480093 -0.23933296
v -0.06773703 0.45473407 -0.23209469
v -0.00238424 0.45460714 -0.23944798
v -0.06776569 0.45466356 -0.23200894
v 0.04481456 0.48255996 -0.15246895
v 0.04486743 0.48267392 -0.15256217
v -0.09452977 0.48261626 -0.13678782
v -0.09455714 0.48253263 -0.13680259
v 0.05320052 0.50131057 -0.06116769
v 0.05322130 0.50141341 -0.06123672
v 0.09784184 0.50140883 -0.02565786
v 0.11327698 0.50124252 -0.00132151
v 0.11321161 0.50125972 -0.00130134
v 0.09784050 0.50129723 -0.02558167
v 0.12265506 0.50139234 0.02583865
v 0.12264711 0.50138255 0.02595262
v 0.09788608 0.50131934 0.13447147
v 0.11320945 0.50130199 0.11015791
v 0.11309966 0.50142399 0.11007868
v 0.09793422 0.50125211 0.13438677
v 0.07767964 0.50122974 0.15465165
v 0.07763157 0.50141274 0.15465794
v 0.05318153 0.50139558 0.17004865
v 0.05317915 0.50141638 0.16993271
v 0.02614347 0.50124866 0.17946576
v 0.02621724 0.50135934 0.17941100
v -0.00244699 0.50132069 0.18269650
v -0.00230044 0.50131102 0.18266424
v -0.03101374 0.50140819 0.17938302
v -0.03100920 0.50128328 0.17937788
v -0.05803158 0.50138615 0.16997270
v -0.05810898 0.50141217 0.16993628
v -0.08229294 0.50126678 0.15465784
v -0.08227285 0.50140357 0.15461591
v -0.10275362 0.50124210 0.13429128
v -0.10271361 0.50128463 0.13434481
v -0.11798460 0.50142538 0.10996792
v -0.11797180 0.50140503 0.11009113
v -0.12743798 0.50138839 0.08297108
v -0.12751363 0.50126474 0.08286770
v -0.10276757 0.50135198 -0.02562215
v -0.11794281 0.50142426 -0.00129570
v -0.10261440 0.50132177 -0.02552309
v -0.11800814 0.50126952 -0.00129465
v -0.08238124 0.50125369 -0.04593321
v -0.08232502 0.50123877 -0.04579768
v 0.07768616 0.50127541 -0.04585160
v 0.07754005 0.50139077 -0.04580232
v -0.06961422 0.44647439 -0.23973287
v -0.00236608 0.44643052 -0.24724905
v -0.06942968 0.44647746 -0.23976092
v -0.00235190 0.44651470 -0.24736694
v 0.06295740 0.45475919 -0.23204812
v 0.06292550 0.45462349 -0.23211026
v -0.12982455 0.45463036 -0.21031881
v -0.12983500 0.45468518 -0.21031609
v 0.08977372 0.48265229 -0.13689606
v 0.08974656 0.48262340 -0.13679043
v -0.13467241 0.48255454 -0.11159722
v -0.13471679 0.48265727 -0.11146561
v 0.16363376 0.48261671 -0.07802274
v 0.18881283 0.48256446 -0.03761964
v 0.18883322 0.48265321 -0.03762247
v 0.16355261 0.48249088 -0.07785640
v 0.20460744 0.48253793 0.00712916
v 0.20460561 0.48262912 0.00724572
v 0.04046557 0.51067051 0.05433922
v 0.12581432 0.50131883 0.05435028
v 0.12591227 0.50142136 0.05436196
v 0.04049668 0.51083251 0.05445419
v 0.03940629 0.51068880 0.06396469
v 0.12275899 0.50132415 0.08290801
v 0.12264227 0.50126974 0.08295287
v 0.03940530 0.51086065 0.06389819
v 0.16345511 0.48266073 0.18663413
v 0.18888998 0.48256372 0.14641159
v 0.18884535 0.48262776 0.14648009
v 0.16355509 0.48253390 0.18673086
v 0.12997185 0.48263618 0.22034675
v 0.12998110 0.48265478 0.22029273
v 0.08975876 0.48265468 0.24554196
v 0.08964253 0.48258486 0.24554394
v 0.04487943 0.48267701 0.26140429
v 0.04483399 0.48253755 0.26131103
v -0.00238358 0.48267773 0.26669816
v -0.00247582 0.48266494 0.26661371
v -0.04955918 0.48250093 0.26129039
v -0.04964097 0.48250336 0.26139306
v -0.09452850 0.48262830 0.24557124
v -0.09455016 0.48248349 0.24562723
v -0.13477366 0.48252298 0.22025650
v -0.13467530 0.48248407 0.22034535
v -0.16825663 0.48254911 0.18664951
v -0.16824810 0.48266199 0.18673609
v -0.19365536 0.48265300 0.14641205
v -0.19363941 0.48260337 0.14657582
v -0.04533217 0.51073368 0.05436447
v -0.13064962 0.50134161 0.05436569
v -0.04525823 0.51085101 0.05441290
v -0.13067878 0.50136503 0.05448021
v -0.20921145 0.48258605 0.10166322
v -0.20921467 0.48260021 0.10155821
v -0.16832770 0.48256151 -0.07798935
v -0.19352635 0.48264416 -0.03766536
v -0.16828273 0.48268187 -0.07784669
v -0.19349842 0.48266539 -0.03776864
v -0.04416745 0.51081189 0.04481149
v -0.12736849 0.50141355 0.02589358
v -0.04417091 0.51068581 0.04475745
v -0.12750738 0.50142668 0.02583136
v 0.12998331 0.48248753 -0.11158245
v 0.12989434 0.48255626 -0.11146469
v 0.06469027 0.44657434 -0.23970929
v 0.06481431 0.44662427 -0.23978689
v -0.13329249 0.44655032 -0.21736362
v -0.13321542 0.44643142 -0.21745043
v -0.00231630 0.44655551 -0.24721751
v -0.04942325 -0.39575983 -0.15188100
v -0.00243649 -0.39576319 -0.15722917
v -0.06961420 0.44647841 -0.23968926
v -0.06956048 0.44651930 -0.23967629
v -0.00244489 0.44658387 -0.24723624
v -0.04936318 -0.39571706 -0.15195740
v -0.00236104 -0.39571200 -0.15722764
v 0.12506942 0.45472603 -0.21032351
v 0.12510114 0.45467805 -0.21029696
v -0.18564973 0.45462173 -0.17521739
v -0.18565250 0.45472647 -0.17536521
v 0.22725081 0.45463056 -0.12882701
v 0.26233561 0.45463727 -0.07305103
v 0.26228379 0.45476349 -0.07304067
v 0.22741942 0.45470142 -0.12877426
v 0.28400234 0.45472071 -0.01108115
v 0.28412638 0.45472782 -0.01100645
v 0.20976588 0.48255576 0.05444169
v 0.20991107 0.48251861 0.05439753
v 0.20449393 0.48262712 0.10168899
v 0.20444819 0.48251554 0.10155306
v 0.22722938 0.45475024 0.23761309
v 0.26233198 0.45465363 0.18180792
v 0.26224076 0.45470876 0.18183775
v 0.22740346 0.45464170 0.23757489
v 0.18076557 0.45463510 0.28402181
v 0.18089299 0.45468420 0.28403224
v 0.12506728 0.45478270 0.31918641
v 0.12510290 0.45477472 0.31908007
v 0.06296277 0.45470044 0.34077585
v 0.06298621 0.45460746 0.34075566
v -0.00231383 0.45476540 0.34815503
v -0.00248169 0.45476267 0.34813111
v -0.06773282 0.45479192 0.34082260
v -0.06782032 0.45479583 0.34086368
v -0.12979638 0.45466919 0.31904651
v -0.12989918 0.45469121 0.31904254
v -0.18553460 0.45477254 0.28413761
v -0.18550510 0.45470154 0.28400628
v -0.23205169 0.45476619 0.23761860
v -0.23199858 0.45474035 0.23767352
v -0.26714983 0.45465456 0.18185583
v -0.26712571 0.45477159 0.18194223
v -0.21459351 0.48257850 0.05441389
v -0.21471246 0.48263234 0.05445335
v -0.28891184 0.45476503 0.11981673
v -0.28876881 0.45462695 0.11985332
v -0.23217083 0.45462888 -0.12886405
v -0.26704558 0.45476927 -0.07310147
v -0.23218392 0.45464960 -0.12877606
v -0.26715335 0.45471311 -0.07297752
v -0.20923556 0.48260014 0.00719807
v -0.20928901 0.48251623 0.00715588
v 0.18084027 0.45460603 -0.17535253
v 0.18071839 0.45461598 -0.17529279
v 0.06469841 0.44646782 -0.23979369
v 0.04476319 -0.39572641 -0.15183013
v 0.06474136 0.44643405 -0.23980536
v 0.04473476 -0.39574758 -0.15179037
v 0.12842149 0.44651257 -0.21749535
v 0.12851196 0.44656644 -0.21744174
v -0.09409331 -0.39565670 -0.13629128
v -0.13319523 0.44646124 -0.21743671
v -0.13330643 0.44656328 -0.21741504
v -0.09424327 -0.39559628 -0.13621955
v -0.19054777 0.44644185 -0.18138694
v -0.19045417 0.44648297 -0.18154280
v -0.20857667 -0.39559196 0.10154831
v -0.20871389 -0.39565192 0.00736933
v -0.21389334 -0.39572318 0.05438505
v -0.19303249 -0.39575118 0.14629210
v -0.19296094 -0.39574591 -0.03747602
v -0.16779161 -0.39567570 0.18622635
v -0.16783735 -0.39560039 -0.07757633
v -0.13426195 -0.39577817 0.21986086
v -0.13432747 -0.39577977 -0.11103991
v -0.09427500 -0.39575725 0.24502713
v -0.09411804 -0.39575210 -0.13616300
v -0.04940994 -0.39559073 0.26059835
v -0.04953064 -0.39568888 -0.15188741
v -0.00241410 -0.39567466 0.26591116
v -0.00233685 -0.39570642 -0.15708730
v 0.04470256 -0.39576698 0.26063792
v 0.04475176 -0.39564238 -0.15187763
v 0.08947884 -0.39568369 0.24493513
v 0.08950205 -0.39569581 -0.13627301
v 0.12943431 -0.39572592 0.21987225
v 0.12958737 -0.39575792 -0.11094991
v 0.16305229 -0.39570761 0.18637216
v 0.16307591 -0.39570725 -0.07757673
v 0.18831710 -0.39572676 0.14628577
v 0.18832707 -0.39561300 -0.03735936
v 0.20389897 -0.39564806 0.10150065
v 0.20385035 -0.39576367 0.00725295
v 0.20913217 -0.39573251 0.05439185
v 0.20909670 -0.39567147 0.05441436
v 0.20396678 -0.39568799 0.10138077
v 0.20391841 -0.39568508 0.00727158
v 0.18826759 -0.39570012 -0.03745065
v 0.18824368 -0.39572264 0.14623905
v 0.16299811 -0.39570717 -0.07755683
v 0.16309687 -0.39573034 0.18633388
v 0.12944124 -0.39570314 -0.11102872
v 0.12952981 -0.39560324 0.21977543
v 0.08951154 -0.39564385 -0.13624612
v 0.08949047 -0.39577239 0.24507864
v 0.04477841 -0.39575282 -0.15184841
v 0.04468257 -0.39567827 0.26066229
v -0.00244942 -0.39559204 -0.15709940
v -0.00231460 -0.39565520 0.26599048
v -0.04943111 -0.39575026 -0.15179980
v -0.04942820 -0.39565843 0.26060407
v -0.09410886 -0.39562586 -0.13617066
v -0.09424424 -0.39562907 0.24510113
v -0.13431260 -0.39567955 -0.11110358
v -0.13429572 -0.39562449 0.21987407
v -0.16783078 -0.39571289 -0.07750288
v -0.16777151 -0.39575449 0.18638716
v -0.19291221 -0.39567607 -0.03738275
v -0.19296650 -0.39573152 0.14617363
v -0.20863092 -0.39571305 0.00730491
v -0.20861660 -0.39571191 0.10150360
v -0.21394133 -0.39577676 0.05434901
v 0.23357554 0.44655164 -0.13377758
v 0.26934763 0.44653709 -0.07658137
v 0.26937709 0.44648197 -0.07640160
v 0.23356222 0.44643237 -0.13365250
v 0.29183294 0.44644904 -0.01274405
v 0.29176536 0.44652029 -0.01277175
v 0.29135569 0.45463620 0.05432648
v 0.29137275 0.45463483 0.05447086
v 0.28397516 0.45464032 0.11981401
v 0.28398319 0.45460651 0.11987124
v 0.23350962 0.44662115 0.24257138
v 0.26947593 0.44657608 0.18522690
v 0.26950397 0.44655793 0.18537976
v 0.23342565 0.44651122 0.24258153
v 0.18574058 0.44650718 0.29026859
v 0.18565760 0.44645164 0.29035922
v 0.12853766 0.44645204 0.32618249
v 0.12859028 0.44659303 0.32622119
v 0.06466238 0.44659111 0.34850609
v 0.06478152 0.44661271 0.34846339
v -0.00245578 0.44645973 0.35612341
v -0.00244758 0.44656217 0.35614072
v -0.06942886 0.44653655 0.34857149
v -0.06955779 0.44660461 0.34846788
v -0.13323543 0.44652343 0.32616396
v -0.13338126 0.44644261 0.32626469
v -0.19057699 0.44655898 0.29029478
v -0.19042628 0.44656289 0.29022045
v -0.23819630 0.44646881 0.24253791
v -0.23830228 0.44660104 0.24244153
v -0.27428111 0.44643308 0.18529291
v -0.27412529 0.44659968 0.18524983
v -0.29615101 0.45468172 0.05437909
v -0.29612746 0.45470555 0.05449019
v -0.29641504 0.44659690 0.12145207
v -0.29646594 0.44661389 0.12152223
v -0.23818012 0.44650705 -0.13368291
v -0.27423484 0.44656124 -0.07653737
v -0.23827216 0.44657581 -0.13380197
v -0.27426142 0.44648207 -0.07642717
v -0.28887768 0.45475858 -0.01094003
v -0.28891316 0.45473032 -0.01089985
v 0.18581238 0.44659126 -0.18150746
v 0.18577095 0.44656670 -0.18141737
v 0.12849843 0.44650617 -0.21749920
v 0.08941474 -0.39578275 -0.13620482
v 0.12854206 0.44647129 -0.21733296
v 0.08949272 -0.39576715 -0.13627050
v -0.13430195 -0.39577352 -0.11093415
v -0.19054232 0.44649132 -0.18143727
v -0.19045502 0.44651450 -0.18153022
v -0.13421310 -0.39563496 -0.11109658
v 0.26950489 0.44647957 0.18529868
v 0.16308928 -0.39567487 0.18621442
v 0.23339894 0.44646734 0.24242588
v 0.18820439 -0.39562475 0.14618475
v 0.18820151 -0.39562200 0.14617140
v 0.26946853 0.44656828 0.18526286
v 0.16300645 -0.39570219 0.18634558
v 0.23349123 0.44646873 0.24259218
v 0.29164872 0.44662419 0.12144290
v 0.20391528 -0.39569074 0.10140243
v 0.20398248 -0.39575596 0.10137369
v 0.29174405 0.44650800 0.12144425
v 0.29933660 0.44648794 0.05445450
v 0.20909354 -0.39562258 0.05435449
v 0.20927841 -0.39570192 0.05433765
v 0.29925863 0.44660593 0.05433957
v 0.29171549 0.44651052 -0.01282628
v 0.20391541 -0.39565080 0.00724997
v 0.20390325 -0.39568080 0.00731412
v 0.29176385 0.44652966 -0.01271945
v 0.18833149 -0.39565563 -0.03743596
v 0.26945729 0.44654376 -0.07655197
v 0.26949896 0.44646320 -0.07648608
v 0.18822365 -0.39559099 -0.03746429
v 0.16304086 -0.39576489 -0.07753294
v 0.23353115 0.44661212 -0.13367283
v 0.23338896 0.44646765 -0.13364755
v 0.16297526 -0.39573864 -0.07759927
v 0.12961773 -0.39569580 -0.11093063
v 0.18575172 0.44659801 -0.18151599
v 0.18572727 0.44644076 -0.18143783
v 0.12955271 -0.39569047 -0.11105216
v -0.23822183 0.44660568 -0.13362977
v -0.16775497 -0.39562871 -0.07760644
v -0.23815739 0.44660072 -0.13370584
v -0.16772839 -0.39561254 -0.07751581
v -0.27425874 0.44662383 -0.07640947
v -0.19298692 -0.39575741 -0.03738896
v -0.27424183 0.44660268 -0.07644686
v -0.19294913 -0.39575902 -0.03747638
v -0.29661124 0.44659835 -0.01264237
v -0.20862307 -0.39574279 0.00734228
v -0.29651607 0.44659523 -0.01278763
v -0.20862268 -0.39563074 0.00737676
v -0.30415109 0.44655769 0.05432693
v -0.21397610 -0.39571233 0.05448674
v -0.30408389 0.44646332 0.05449375
v -0.21402066 -0.39559033 0.05435447
v -0.20858986 -0.39577882 0.10143504
v -0.29651415 0.44645247 0.12155393
v -0.20872890 -0.39565786 0.10154252
v -0.29642415 0.44645981 0.12153021
v -0.19296975 -0.39568763 0.14610234
v -0.27425519 0.44648497 0.18534042
v -0.19294812 -0.39559267 0.14616181
v -0.27415549 0.44648987 0.18537799
v -0.16778842 -0.39569053 0.18626424
v -0.23820697 0.44645904 0.24248052
v -0.16777256 -0.39567039 0.18621511
v -0.23834360 0.44656620 0.24258560
v -0.13434898 -0.39558715 0.21983527
v -0.19044222 0.44659114 0.29017206
v -0.13436802 -0.39568698 0.21985961
v -0.19049138 0.44651812 0.29035712
v -0.09422062 -0.39576294 0.24511808
v -0.13331040 0.44657302 0.32612833
v -0.13338296 0.44660255 0.32619063
v -0.09419068 -0.39559476 0.24505242
v -0.04941936 -0.39576821 0.26065107
v -0.06960775 0.44644485 0.34843003
v -0.06943885 0.44658615 0.34845625
v -0.04956221 -0.39560283 0.26060947
v -0.00240990 -0.39569321 0.26598558
v -0.00246427 0.44648487 0.35599243
v -0.00236096 0.44651791 0.35600625
v -0.00247863 -0.39564664 0.26595785
v 0.04460162 -0.39558746 0.26070659
v 0.06475912 0.44646989 0.34858952
v 0.06481812 0.44656506 0.34847559
v 0.04462448 -0.39576563 0.26075261
v 0.08949948 -0.39565644 0.24500031
v 0.12849774 0.44646180 0.32630680
v 0.12849838 0.44647627 0.32627084
v 0.08946137 -0.39570438 0.24494002
v 0.12952426 -0.39570126 0.21972231
v 0.18572530 0.44649880 0.29033944
v 0.18566355 0.44648683 0.29026647
v 0.12949122 -0.39569503 0.21981873
v 0.29935496 0.44643423 0.05429945
v 0.29929563 0.44648815 0.05448627
v 0.29167738 0.44657900 0.12148858
v 0.29168393 0.44647570 0.12149588
v -0.30402782 0.44654931 0.05442527
v -0.30417374 0.44657633 0.05441413
v -0.29653569 0.44657286 -0.01271817
v -0.29644003 0.44649402 -0.01267627
vn 0 -0.9857929080369231 0.1679653013693789
vn 0.013112649553407803 -0.9982608660011113 0.057474358042531176
vn 0.03737234830513168 -0.9857914552935049 0.1637635925731792
vn 0 -0.9982618362990483 0.058934762143000446
vn 0 0.9982618362990483 -0.058934762143000446
vn 0 0.9857929080369231 -0.1679653013693789
vn -0.013112649553407803 0.9982608660011113 -0.057474358042531176
vn -0.03737234830513168 0.9857914552935049 -0.1637635925731792
vn 1.6313010419168922e-9 -0.9615307247068928 0.2746974070584527
vn 0.06112767105515319 -0.9615312165974381 0.2678080046227584
vn -1.6313010419168922e-9 0.9615307247068928 -0.2746974070584527
vn -0.06112767105515319 0.9615312165974381 -0.2678080046227584
vn -0.03737233831909904 -0.985791455661918 0.16376359263438145
vn -0.013112649553407803 -0.9982608660011113 0.057474358042531176
vn 0.013112649553407803 0.9982608660011113 -0.057474358042531176
vn 0.03737233831909904 0.985791455661918 -0.16376359263438145
vn 0.055057581330788384 -0.9981309241256701 0.026520200641015495
vn 0.05308989257518062 -0.9982622484217516 -0.025572381240415245
vn 0.059601392143911705 -0.9981296359035542 -0.013597940489129465
vn 0.04609051933208463 -0.9982605855338234 0.03676230946726306
vn 0.04609044958245222 -0.9982605909564455 -0.03676224966695952
vn 0.036762249734734805 -0.9982605927968556 0.04609040966742542
vn 0.03676224975167868 -0.9982605932569582 -0.04609039968866919
vn 0.02557237879623156 -0.9982622530088069 0.05308980750090358
vn 0.025572401173031573 -0.9982622457912859 -0.05308993243528843
vn 0.013112599539397382 -0.9982608649343697 -0.05747438798111346
vn 0 -0.9982618427705982 -0.058934652525059514
vn -0.013112599539397382 -0.9982608649343697 -0.05747438798111346
vn -0.02557237879623156 -0.9982622530088069 0.05308980750090358
vn -0.025572401173031573 -0.9982622457912859 -0.05308993243528843
vn -0.036762239731305636 -0.9982605927037363 0.04609041966312596
vn -0.036762239748249506 -0.9982605931638389 -0.04609040968436974
vn -0.04609050937027205 -0.9982605863609104 0.036762299497721806
vn -0.046090439603695604 -0.9982605914165482 -0.0367622496839034
vn -0.05308984741531335 -0.9982622513994627 0.025572358755005912
vn -0.05505763119382391 -0.9981309216426413 -0.02652019057504199
vn -0.059601422045447494 -0.9981296342545812 0.013597930466664025
vn 0.059601422045447494 0.9981296342545812 -0.013597930466664025
vn 0.05308984741531335 0.9982622513994627 -0.025572358755005912
vn 0.05505763119382391 0.9981309216426413 0.02652019057504199
vn 0.046090439603695604 0.9982605914165482 0.0367622496839034
vn 0.04609050937027205 0.9982605863609104 -0.036762299497721806
vn 0.036762239748249506 0.9982605931638389 0.04609040968436974
vn 0.036762239731305636 0.9982605927037363 -0.04609041966312596
vn 0.025572401173031573 0.9982622457912859 0.05308993243528843
vn 0.02557237879623156 0.9982622530088069 -0.05308980750090358
vn 0.013112599539397382 0.9982608649343697 0.05747438798111346
vn 0 0.9982618427705982 0.058934652525059514
vn -0.013112599539397382 0.9982608649343697 0.05747438798111346
vn -0.025572401173031573 0.9982622457912859 0.05308993243528843
vn -0.02557237879623156 0.9982622530088069 -0.05308980750090358
vn -0.03676224975167868 0.9982605932569582 0.04609039968866919
vn -0.036762249734734805 0.9982605927968556 -0.04609040966742542
vn -0.04609044958245222 0.9982605909564455 0.03676224966695952
vn -0.04609051933208463 0.9982605855338234 -0.03676230946726306
vn -0.05308989257518062 0.9982622484217516 0.025572381240415245
vn -0.055057581330788384 0.9981309241256701 -0.026520200641015495
vn -0.059601392143911705 0.9981296359035542 0.013597940489129465
vn 0.07288852980551444 -0.985790997369653 0.151338599596189
vn -0.07288852980551444 0.985790997369653 -0.151338599596189
vn 2.949077875873315e-9 -0.8362995648001522 0.5482727769231991
vn 0.12201989692645672 -0.8362922789347429 0.5345337865356978
vn -2.949077875873315e-9 0.8362995648001522 -0.5482727769231991
vn -0.12201989692645672 0.8362922789347429 -0.5345337865356978
vn -0.06112766109251894 -0.9615312171851998 0.2678080047864632
vn 0.06112766109251894 0.9615312171851998 -0.2678080047864632
vn 0.11918039732844272 -0.9615319784462227 0.24749199445219952
vn -0.11918039732844272 0.9615319784462227 -0.24749199445219952
vn -0.07288852980551444 -0.985790997369653 0.151338599596189
vn 0.07288852980551444 0.985790997369653 -0.151338599596189
vn -0.13131579858909778 -0.9857928894083011 0.10473079887473595
vn -0.15133859970649768 -0.9857909980881815 0.0728885198586416
vn 0.15133859970649768 0.9857909980881815 -0.0728885198586416
vn 0.13131579858909778 0.9857928894083011 -0.10473079887473595
vn -0.16376359263438167 -0.985791455661918 0.037372338319098815
vn 0.16376359263438167 0.985791455661918 -0.037372338319098815
vn -0.13131570031348078 -0.9857929023533143 -0.10473080025001673
vn -0.15133860025803983 -0.9857910016808226 -0.07288847012427868
vn 0.15133860025803983 0.9857910016808226 0.07288847012427868
vn 0.13131570031348078 0.9857929023533143 0.10473080025001673
vn -0.1047308002500165 -0.9857929023533143 -0.131315700313481
vn 0.1047308002500165 0.9857929023533143 0.131315700313481
vn -0.07288846902119421 -0.9857909867619948 -0.15133869796770077
vn 0.07288846902119421 0.9857909867619948 0.15133869796770077
vn -0.0373722584308376 -0.9857914586092211 -0.16376359312399963
vn 0.0373722584308376 0.9857914586092211 0.16376359312399963
vn 0 -0.9857929080369231 -0.16796530136937934
vn 0 0.9857929080369231 0.16796530136937934
vn 0.0373722584308376 -0.9857914586092211 -0.16376359312399963
vn -0.0373722584308376 0.9857914586092211 0.16376359312399963
vn 0.07288846902119421 -0.9857909867619948 -0.15133869796770077
vn -0.07288846902119421 0.9857909867619948 0.15133869796770077
vn 0.1047308002500165 -0.9857929023533143 -0.131315700313481
vn -0.1047308002500165 0.9857929023533143 0.131315700313481
vn 0.13131570031348078 -0.9857929023533143 -0.10473080025001673
vn -0.13131570031348078 0.9857929023533143 0.10473080025001673
vn 0.15133860025803983 -0.9857910016808226 -0.07288847012427868
vn -0.15133860025803983 0.9857910016808226 0.07288847012427868
vn 0.16376359251197709 -0.9857914549250911 -0.03737235829116451
vn -0.16376359251197709 0.9857914549250911 0.03737235829116451
vn 0.1313157003134808 -0.9857929023533145 0.1047308002500163
vn 0.15133859970649768 -0.9857909980881815 0.0728885198586416
vn -0.1313157003134808 0.9857929023533145 -0.1047308002500163
vn -0.15133859970649768 0.9857909980881815 -0.0728885198586416
vn 0.10473089915316115 -0.9857928920290218 0.1313156989382001
vn -0.10473089915316115 0.9857928920290218 -0.1313156989382001
vn -0.10473089915316115 -0.9857928920290218 0.1313156989382001
vn 0.10473089915316115 0.9857928920290218 -0.1313156989382001
vn 0.16016440286620529 -0.6942661124241665 0.7016708125566763
vn 2.5284331368973382e-9 -0.694287937590937 0.7196973389666819
vn -0.16016440286620529 0.6942661124241665 -0.7016708125566763
vn -2.5284331368973382e-9 0.694287937590937 -0.7196973389666819
vn -0.12201999543756693 -0.8362922687303095 0.5345337800133197
vn 0.12201999543756693 0.8362922687303095 -0.5345337800133197
vn 0.2379155994562951 -0.8362435980889452 0.4940574988709377
vn -0.2379155994562951 0.8362435980889452 -0.4940574988709377
vn -0.11918039732844272 -0.9615319784462227 0.24749199445219952
vn 0.11918039732844272 0.9615319784462227 -0.24749199445219952
vn 0.17125730298734307 -0.9615346167726206 0.2147606037461968
vn -0.17125730298734307 0.9615346167726206 -0.2147606037461968
vn -0.21476060374619702 -0.9615346167726206 0.17125730298734285
vn -0.2474918976278075 -0.9615319907837833 0.11918049885766306
vn 0.2474918976278075 0.9615319907837833 -0.11918049885766306
vn 0.21476060374619702 0.9615346167726206 -0.17125730298734285
vn -0.2678080044590539 -0.9615312160096765 0.06112768101778722
vn 0.2678080044590539 0.9615312160096765 -0.06112768101778722
vn -0.10988779979534273 -0.9939439981488587 -1.2754370196945905e-8
vn -0.1679652041906101 -0.9857929245948188 -1.3375190552591303e-8
vn 0.1679652041906101 0.9857929245948188 1.3375190552591303e-8
vn 0.10988779979534273 0.9939439981488587 1.2754370196945905e-8
vn -0.10713010461518215 -0.9939445428192909 -0.02444149105294359
vn -0.1637635925731794 -0.9857914552935046 -0.03737234830513189
vn 0.1637635925731794 0.9857914552935046 0.03737234830513189
vn 0.10713010461518215 0.9939445428192909 0.02444149105294359
vn -0.21476060374619702 -0.9615346167726206 -0.1712573029873433
vn -0.24749190057742707 -0.9615320022433648 -0.1191804002780618
vn 0.24749190057742707 0.9615320022433648 0.1191804002780618
vn 0.21476060374619702 0.9615346167726206 0.1712573029873433
vn -0.17125730298734307 -0.9615346167726206 -0.21476060374619724
vn 0.17125730298734307 0.9615346167726206 0.21476060374619724
vn -0.11918029874883986 -0.9615319899057938 -0.24749199740181807
vn 0.11918029874883986 0.9615319899057938 0.24749199740181807
vn -0.06112761127934737 -0.9615312201240063 -0.26780800560498724
vn 0.06112761127934737 0.9615312201240063 0.26780800560498724
vn 1.6313020867283573e-9 -0.9615307511198894 -0.27469731460431357
vn -1.6313020867283573e-9 0.9615307511198894 0.27469731460431357
vn 0.061127621241981726 -0.9615312195362452 -0.2678080054412826
vn -0.061127621241981726 0.9615312195362452 0.2678080054412826
vn 0.11918029874883986 -0.9615319899057938 -0.24749199740181807
vn -0.11918029874883986 0.9615319899057938 0.24749199740181807
vn 0.17125730298734307 -0.9615346167726206 -0.21476060374619724
vn -0.17125730298734307 0.9615346167726206 0.21476060374619724
vn 0.21476060374619702 -0.9615346167726206 -0.1712573029873433
vn -0.21476060374619702 0.9615346167726206 0.1712573029873433
vn 0.24749199740181785 -0.9615319899057938 -0.11918029874884006
vn -0.24749199740181785 0.9615319899057938 0.11918029874884006
vn 0.10988779979534273 -0.9939439981488587 -1.2754440196945774e-8
vn 0.16796530136937912 -0.9857929080369231 -1.3375240327934984e-8
vn -0.10988779979534273 0.9939439981488587 1.2754440196945774e-8
vn -0.16796530136937912 0.9857929080369231 1.3375240327934984e-8
vn 0.26780800495016827 -0.9615312177729614 -0.061127651129884886
vn -0.26780800495016827 0.9615312177729614 0.061127651129884886
vn 0.21476060374619702 -0.9615346167726206 0.17125730298734285
vn 0.24749199445219974 -0.9615319784462227 0.11918039732844252
vn -0.21476060374619702 0.9615346167726206 -0.17125730298734285
vn -0.24749199445219974 0.9615319784462227 -0.11918039732844252
vn 0.10713010453662951 -0.9939445420904858 0.024441521035022812
vn 0.16376359251197709 -0.9857914549250911 0.037372358291164066
vn -0.10713010453662951 0.9939445420904858 -0.024441521035022812
vn -0.16376359251197709 0.9857914549250911 -0.037372358291164066
vn -0.17125730298734307 -0.9615346167726206 0.2147606037461968
vn 0.17125730298734307 0.9615346167726206 -0.2147606037461968
vn -0.1601644027476067 -0.6942660119100745 0.7016709120371047
vn 0.1601644027476067 0.6942660119100745 -0.7016709120371047
vn 0.31234939198361383 -0.6941306821852717 0.6485525833550245
vn -0.31234939198361383 0.6941306821852717 -0.6485525833550245
vn 0 0.10639289660202084 0.9943241682432504
vn 0.2212708985663471 0.10639229931066545 0.9693914937191428
vn 0.2212717022972572 0.10639230110457157 0.9693913100642837
vn -0.2212717022972572 -0.10639230110457157 -0.9693913100642837
vn 0 -0.10639289660202084 -0.9943241682432504
vn -0.2212708985663471 -0.10639229931066545 -0.9693914937191428
vn -0.2379155994562951 -0.8362435980889452 0.4940574988709377
vn 0.2379155994562951 0.8362435980889452 -0.4940574988709377
vn 0.34195280689112023 -0.8361678168506674 0.428825908641809
vn -0.34195280689112023 0.8361678168506674 -0.428825908641809
vn -0.4288250992679248 -0.8361683985725227 0.3419523994162306
vn -0.49405697916508406 -0.8362439647346896 0.23791538996685108
vn 0.49405697916508406 0.8362439647346896 -0.23791538996685108
vn 0.4288250992679248 0.8361683985725227 -0.3419523994162306
vn -0.5345345100402954 -0.8362918157082784 0.12201990229193017
vn 0.5345345100402954 0.8362918157082784 -0.12201990229193017
vn -0.2746974070584529 -0.9615307247068927 -1.1667450513302223e-8
vn 0.2746974070584529 0.9615307247068927 1.1667450513302223e-8
vn -0.26780800478646344 -0.9615312171851997 -0.06112766109251915
vn 0.26780800478646344 0.9615312171851997 0.06112766109251915
vn -0.4288249899343262 -0.8361685803728786 -0.34195209197346654
vn -0.4940573063742434 -0.8362437107890743 -0.2379156030695469
vn 0.4940573063742434 0.8362437107890743 0.2379156030695469
vn 0.4288249899343262 0.8361685803728786 0.34195209197346654
vn -0.3419522081387294 -0.8361684199014608 -0.4288252102063748
vn 0.3419522081387294 0.8361684199014608 0.4288252102063748
vn -0.23791550511667517 -0.8362436179844811 -0.49405751062533454
vn 0.23791550511667517 0.8362436179844811 0.49405751062533454
vn -0.12202010131278868 -0.8362921089974912 -0.5345340057509393
vn 0.12202010131278868 0.8362921089974912 0.5345340057509393
vn 2.949075969007084e-9 -0.8362992912110254 -0.5482731942379971
vn -2.949075969007084e-9 0.8362992912110254 0.5482731942379971
vn 0.1220200028016763 -0.8362921192019319 -0.5345340122733262
vn -0.1220200028016763 0.8362921192019319 0.5345340122733262
vn 0.23791549336228038 -0.8362435766692352 -0.4940575862160482
vn -0.23791549336228038 0.8362435766692352 0.4940575862160482
vn 0.34195258848992227 -0.8361680718546961 -0.42882558556578915
vn -0.34195258848992227 0.8361680718546961 0.42882558556578915
vn 0.42882570303367384 -0.836168005915366 -0.34195260241910114
vn -0.42882570303367384 0.836168005915366 0.34195260241910114
vn 0.4940577209284486 -0.8362434354235487 -0.23791571007818843
vn -0.4940577209284486 0.8362434354235487 0.23791571007818843
vn 0.2746974070584529 -0.9615307247068927 -1.166749051330325e-8
vn -0.2746974070584529 0.9615307247068927 1.166749051330325e-8
vn 0.534534186785866 -0.8362919793261601 -0.12202019698355844
vn -0.534534186785866 0.8362919793261601 0.12202019698355844
vn 0.4288257911739312 -0.8361678827900388 0.3419527929619463
vn 0.4940573937193695 -0.8362436893693777 0.23791549697553477
vn -0.4288257911739312 0.8361678827900388 -0.3419527929619463
vn -0.4940573937193695 0.8362436893693777 -0.23791549697553477
vn 0.26780800462275867 -0.9615312165974382 0.06112767105515299
vn -0.26780800462275867 0.9615312165974382 -0.06112767105515299
vn -0.3419525148468757 -0.8361681363047029 0.428825518618723
vn 0.3419525148468757 0.8361681363047029 -0.428825518618723
vn -0.2212717022972572 0.10639230110457157 0.9693913100642837
vn -0.2212708985663471 0.10639229931066545 0.9693914937191428
vn 0.2212717022972572 -0.10639230110457157 -0.9693913100642837
vn 0.2212708985663471 -0.10639229931066545 -0.9693914937191428
vn -0.31234930031619434 -0.6941308007026757 0.648552500656536
vn 0.31234930031619434 0.6941308007026757 -0.648552500656536
vn 0.4314353917458515 0.10638909796458168 0.8958486828607755
vn 0.431434907513864 0.10638910185287083 0.8958489156020915
vn -0.431434907513864 -0.10638910185287083 -0.8958489156020915
vn -0.4314353917458515 -0.10638909796458168 -0.8958486828607755
vn 0.44892868540110203 -0.6939516774330978 0.5629334816937327
vn -0.44892868540110203 0.6939516774330978 -0.5629334816937327
vn 0 1 0
vn 0 -1 0
vn -0.5629321960621289 -0.693953295145599 0.4489277968596219
vn -0.6485517957186501 -0.6941315954177597 0.3123489979380591
vn 0.6485517957186501 0.6941315954177597 -0.3123489979380591
vn 0.5629321960621289 0.693953295145599 -0.4489277968596219
vn -0.7016718335983637 -0.6942650332437017 0.16016460766920998
vn 0.7016718335983637 0.6942650332437017 -0.16016460766920998
vn -0.5482740288672616 -0.8362987440320958 -1.902736118750818e-8
vn 0.5482740288672616 0.8362987440320958 1.902736118750818e-8
vn -0.5345347227330434 -0.8362916355663592 -0.1220202051893555
vn 0.5345347227330434 0.8362916355663592 0.1220202051893555
vn -0.5629319927892015 -0.6939535911108986 -0.44892759424952505
vn -0.6485524713929187 -0.6941309693824911 -0.31234898622256
vn 0.6485524713929187 0.6941309693824911 0.31234898622256
vn 0.5629319927892015 0.6939535911108986 0.44892759424952505
vn -0.4489277774699226 -0.6939531651729758 -0.5629323717484404
vn 0.4489277774699226 0.6939531651729758 0.5629323717484404
vn -0.3123491898149115 -0.69413077736577 -0.6485525788519849
vn 0.3123491898149115 0.69413077736577 0.6485525788519849
vn -0.16016449958930137 -0.6942654982197435 -0.7016713982007532
vn 0.16016449958930137 0.6942654982197435 0.7016713982007532
vn 2.528426091923663e-9 -0.6942872252415622 -0.7196980261653995
vn -2.528426091923663e-9 0.6942872252415622 0.7196980261653995
vn 0.16016460826232376 -0.6942655358146952 -0.7016713361967344
vn -0.16016460826232376 0.6942655358146952 0.7016713361967344
vn 0.3123493031634519 -0.6941306070301061 -0.6485527065684965
vn -0.3123493031634519 0.6941306070301061 0.6485527065684965
vn 0.448928200335318 -0.6939523005183337 -0.5629331004204717
vn -0.448928200335318 0.6939523005183337 0.5629331004204717
vn 0.5629329953597181 -0.6939521942797209 -0.4489284962994624
vn -0.5629329953597181 0.6939521942797209 0.4489284962994624
vn 0.6485531763301541 -0.6941301746667583 -0.31234928860038047
vn -0.6485531763301541 0.6941301746667583 0.31234928860038047
vn 0.5482731942379968 -0.8362992912110253 -1.902742998572954e-8
vn -0.5482731942379968 0.8362992912110253 1.902742998572954e-8
vn 0.7016716966417361 -0.6942651966771843 -0.16016449923343845
vn -0.7016716966417361 0.6942651966771843 0.16016449923343845
vn 0.562933306007675 -0.6939518074059164 0.4489287047910075
vn 0.6485523977005381 -0.6941308975389383 0.3123492988925561
vn -0.562933306007675 0.6939518074059164 -0.4489287047910075
vn -0.6485523977005381 0.6941308975389383 -0.3123492988925561
vn 0.5345339026657047 -0.8362922041705643 0.12201990060850942
vn -0.5345339026657047 0.8362922041705643 -0.12201990060850942
vn -0.44892829368964393 -0.6939524902454639 0.5629327920871408
vn 0.44892829368964393 0.6939524902454639 -0.5629327920871408
vn -0.431434907513864 0.10638910185287083 0.8958489156020915
vn -0.4314353917458515 0.10638909796458168 0.8958486828607755
vn 0.431434907513864 -0.10638910185287083 -0.8958489156020915
vn 0.4314353917458515 -0.10638909796458168 -0.8958486828607755
vn 0.6199551853344737 0.106387797483313 0.7773912816101992
vn 0.619956076787478 0.10638779601660625 0.7773905708927835
vn -0.619956076787478 -0.10638779601660625 -0.7773905708927835
vn -0.6199551853344737 -0.106387797483313 -0.7773912816101992
vn -0.8958490710431214 0.10638909656114388 -0.4314345860545718
vn -0.7773912816101992 0.10638779748331331 -0.6199551853344737
vn -0.7773906190875831 0.10638780261218245 -0.6199560152220281
vn -0.8958488185564961 0.10638910220373016 -0.43143510893669085
vn 0.8958488185564961 -0.10638910220373016 0.43143510893669085
vn 0.8958490710431214 -0.10638909656114388 0.4314345860545718
vn 0.7773912816101992 -0.10638779748331331 0.6199551853344737
vn 0.7773906190875831 -0.10638780261218245 0.6199560152220281
vn -0.9693913693056526 0.10639219663124815 -0.22127149299376464
vn -0.969391546932327 0.10639220515089474 -0.22127071071264687
vn 0.969391546932327 -0.10639220515089474 0.22127071071264687
vn 0.9693913693056526 -0.10639219663124815 0.22127149299376464
vn -0.9943241682432498 0.10639289660202099 -3.4685318868595446e-8
vn -0.9943241682432498 0.10639289660202099 -3.508487885583429e-8
vn 0.9943241682432498 -0.10639289660202099 3.508487885583429e-8
vn 0.9943241682432498 -0.10639289660202099 3.4685318868595446e-8
vn -0.9693913907555155 0.10639219898540353 0.22127139788987193
vn -0.9693915744101179 0.10639219719147153 0.22127059415892553
vn 0.9693915744101179 -0.10639219719147153 -0.22127059415892553
vn 0.9693913907555155 -0.10639219898540353 -0.22127139788987193
vn -0.8958487799064301 0.10638909761373024 0.431435190323062
vn -0.8958490126476413 0.10638910150200656 0.4314347060910168
vn 0.8958490126476413 -0.10638910150200656 -0.4314347060910168
vn 0.8958487799064301 -0.10638909761373024 -0.431435190323062
vn -0.7773911938491371 0.10638779915823993 0.6199552950947991
vn -0.7773904831315868 0.10638779769151606 0.6199561865477164
vn 0.7773904831315868 -0.10638779769151606 -0.6199561865477164
vn 0.7773911938491371 -0.10638779915823993 -0.6199552950947991
vn -0.6199551237689125 0.10638780407887961 0.7773913298049743
vn -0.6199560152220281 0.10638780261218214 0.7773906190875831
vn 0.6199560152220281 -0.10638780261218214 -0.7773906190875831
vn 0.6199551237689125 -0.10638780407887961 -0.7773913298049743
vn 0.7773905313263901 0.10638780428709332 0.6199561249822794
vn 0.7773911938491371 0.10638779915823993 0.6199552950947991
vn -0.7773905313263901 -0.10638780428709332 -0.6199561249822794
vn -0.7773911938491371 -0.10638779915823993 -0.6199552950947991
vn 0.8958489156020915 0.10638910185287093 0.431434907513864
vn 0.8958486828607755 0.10638909796458178 0.4314353917458515
vn -0.8958489156020915 -0.10638910185287093 -0.431434907513864
vn -0.8958486828607755 -0.10638909796458178 -0.4314353917458515
vn 0.9693913203778562 0.10639220223650131 0.22127170465141674
vn 0.9693914825828999 0.10639219808844656 0.22127099602441413
vn -0.9693913203778562 -0.10639220223650131 -0.22127170465141674
vn -0.9693914825828999 -0.10639219808844656 -0.22127099602441413
vn 0.9943241682432498 0.10639289660202099 -3.468529886859608e-8
vn 0.9943241682432498 0.10639289660202099 -3.508485885583493e-8
vn -0.9943241682432498 -0.10639289660202099 3.468529886859608e-8
vn -0.9943241682432498 -0.10639289660202099 3.508485885583493e-8
vn 0.9693914825828999 0.10639219808844667 -0.22127099602441408
vn 0.9693912989279647 0.10639219988234253 -0.22127179975529881
vn -0.9693914825828999 -0.10639219808844667 0.22127099602441408
vn -0.9693912989279647 -0.10639219988234253 0.22127179975529881
vn 0.8958487799064301 0.10638909761373043 -0.431435190323062
vn 0.8958490126476413 0.10638910150200676 -0.4314347060910168
vn -0.8958487799064301 -0.10638909761373043 0.431435190323062
vn -0.8958490126476413 -0.10638910150200676 0.4314347060910168
vn 0.7773913693712432 0.10638779580838438 -0.6199550755741394
vn 0.7773907068487578 0.10638780093726923 -0.6199559054617682
vn -0.7773913693712432 -0.10638779580838438 0.6199550755741394
vn -0.7773907068487578 -0.10638780093726923 0.6199559054617682
vn 0.6199550755741394 0.10638779580838441 -0.7773913693712432
vn 0.6199559054617682 0.10638780093726925 -0.7773907068487578
vn -0.6199550755741394 -0.10638779580838441 0.7773913693712432
vn -0.6199559054617682 -0.10638780093726925 0.7773907068487578
vn 0.431435190323062 0.10638909761373053 -0.8958487799064301
vn 0.4314347060910168 0.10638910150200685 -0.8958490126476413
vn -0.4314347060910168 -0.10638910150200685 0.8958490126476413
vn -0.431435190323062 -0.10638909761373053 0.8958487799064301
vn 0.2212709960244141 0.10639219808844684 -0.9693914825828999
vn 0.22127179975529884 0.10639219988234269 -0.9693912989279647
vn -0.22127179975529884 -0.10639219988234269 0.9693912989279647
vn -0.2212709960244141 -0.10639219808844684 0.9693914825828999
vn 0 0.10639289660202128 -0.9943241682432504
vn 0 -0.10639289660202128 0.9943241682432504
vn -0.22127109112832385 0.10639219573429566 -0.9693914611330742
vn -0.22127179975529884 0.10639219988234269 -0.9693912989279647
vn 0.22127179975529884 -0.10639219988234269 0.9693912989279647
vn 0.22127109112832385 -0.10639219573429566 0.9693914611330742
vn -0.431435190323062 0.10638909761373053 -0.8958487799064301
vn -0.4314347060910168 0.10638910150200685 -0.8958490126476413
vn 0.4314347060910168 -0.10638910150200685 0.8958490126476413
vn 0.431435190323062 -0.10638909761373053 0.8958487799064301
vn -0.6199550140085657 0.10638780240394963 -0.7773914175660144
vn -0.6199559054617682 0.10638780093726925 -0.7773907068487578
vn 0.6199559054617682 -0.10638780093726925 0.7773907068487578
vn 0.6199550140085657 -0.10638780240394963 0.7773914175660144
vn -0.7196994987316231 -0.6942856987764116 -2.62506101078991e-8
vn 0.7196994987316231 0.6942856987764116 2.62506101078991e-8
vn -0.7016723930035333 -0.6942644930773985 -0.16016449840297914
vn 0.7016723930035333 0.6942644930773985 0.16016449840297914
vn 0.7196980261653992 -0.6942872252415622 -2.6250701108535326e-8
vn -0.7196980261653992 0.6942872252415622 2.6250701108535326e-8
vn 0.7016711372359833 -0.6942657368429966 0.16016460849954664
vn -0.7016711372359833 0.6942657368429966 -0.16016460849954664
usemtl material_0_0
f 1//1 2//2 3//3
f 2//2 1//1 4//4
f 5//5 6//6 7//7
f 8//8 7//7 6//6
f 9//9 3//3 10//10
f 3//3 9//9 1//1
f 6//6 11//11 8//8
f 12//12 8//8 11//11
f 13//13 4//4 1//1
f 4//4 13//13 14//14
f 15//15 16//16 5//5
f 6//6 5//5 16//16
f 17//17 18//18 19//19
f 18//18 17//17 20//20
f 18//18 20//20 21//21
f 21//21 20//20 22//22
f 21//21 22//22 23//23
f 23//23 22//22 24//24
f 23//23 24//24 25//25
f 25//25 24//24 2//2
f 25//25 2//2 26//26
f 26//26 2//2 4//4
f 26//26 4//4 27//27
f 27//27 4//4 14//14
f 27//27 14//14 28//28
f 28//28 14//14 29//29
f 28//28 29//29 30//30
f 30//30 29//29 31//31
f 30//30 31//31 32//32
f 32//32 31//31 33//33
f 32//32 33//33 34//34
f 34//34 33//33 35//35
f 34//34 35//35 36//36
f 36//36 35//35 37//37
f 38//38 39//39 40//40
f 40//40 39//39 41//41
f 39//39 42//42 41//41
f 41//41 42//42 43//43
f 42//42 44//44 43//43
f 43//43 44//44 45//45
f 44//44 46//46 45//45
f 45//45 46//46 47//47
f 46//46 15//15 47//47
f 47//47 15//15 48//48
f 15//15 5//5 48//48
f 48//48 5//5 49//49
f 5//5 7//7 49//49
f 49//49 7//7 50//50
f 7//7 51//51 50//50
f 50//50 51//51 52//52
f 51//51 53//53 52//52
f 52//52 53//53 54//54
f 53//53 55//55 54//54
f 54//54 55//55 56//56
f 55//55 57//57 56//56
f 58//58 56//56 57//57
f 3//3 24//24 59//59
f 24//24 3//3 2//2
f 7//7 8//8 51//51
f 60//60 51//51 8//8
f 61//61 10//10 62//62
f 10//10 61//61 9//9
f 11//11 63//63 12//12
f 64//64 12//12 63//63
f 65//65 1//1 9//9
f 1//1 65//65 13//13
f 16//16 66//66 6//6
f 11//11 6//6 66//66
f 10//10 59//59 67//67
f 59//59 10//10 3//3
f 8//8 12//12 60//60
f 68//68 60//60 12//12
f 13//13 29//29 14//14
f 29//29 13//13 69//69
f 70//70 16//16 46//46
f 15//15 46//46 16//16
f 71//71 35//35 33//33
f 35//35 71//71 72//72
f 73//73 74//74 39//39
f 42//42 39//39 74//74
f 72//72 37//37 35//35
f 37//37 72//72 75//75
f 76//76 73//73 38//38
f 39//39 38//38 73//73
f 36//36 77//77 34//34
f 77//77 36//36 78//78
f 79//79 40//40 80//80
f 41//41 80//80 40//40
f 34//34 81//81 32//32
f 81//81 34//34 77//77
f 80//80 41//41 82//82
f 43//43 82//82 41//41
f 32//32 83//83 30//30
f 83//83 32//32 81//81
f 82//82 43//43 84//84
f 45//45 84//84 43//43
f 30//30 85//85 28//28
f 85//85 30//30 83//83
f 84//84 45//45 86//86
f 47//47 86//86 45//45
f 28//28 87//87 27//27
f 87//87 28//28 85//85
f 86//86 47//47 88//88
f 48//48 88//88 47//47
f 26//26 87//87 89//89
f 87//87 26//26 27//27
f 48//48 49//49 88//88
f 90//90 88//88 49//49
f 25//25 89//89 91//91
f 89//89 25//25 26//26
f 49//49 50//50 90//90
f 92//92 90//90 50//50
f 23//23 91//91 93//93
f 91//91 23//23 25//25
f 50//50 52//52 92//92
f 94//94 92//92 52//52
f 21//21 93//93 95//95
f 93//93 21//21 23//23
f 52//52 54//54 94//94
f 96//96 94//94 54//54
f 18//18 95//95 97//97
f 95//95 18//18 21//21
f 54//54 56//56 96//96
f 98//98 96//96 56//56
f 19//19 97//97 99//99
f 97//97 19//19 18//18
f 56//56 58//58 98//98
f 100//100 98//98 58//58
f 101//101 17//17 102//102
f 17//17 101//101 20//20
f 55//55 103//103 57//57
f 104//104 57//57 103//103
f 105//105 20//20 101//101
f 20//20 105//105 22//22
f 53//53 106//106 55//55
f 103//103 55//55 106//106
f 59//59 22//22 105//105
f 22//22 59//59 24//24
f 51//51 60//60 53//53
f 106//106 53//53 60//60
f 69//69 31//31 29//29
f 31//31 69//69 107//107
f 108//108 70//70 44//44
f 46//46 44//44 70//70
f 107//107 33//33 31//31
f 33//33 107//107 71//71
f 74//74 108//108 42//42
f 44//44 42//42 108//108
f 61//61 109//109 110//110
f 109//109 61//61 62//62
f 64//64 63//63 111//111
f 112//112 111//111 63//63
f 113//113 9//9 61//61
f 9//9 113//113 65//65
f 66//66 114//114 11//11
f 63//63 11//11 114//114
f 62//62 67//67 115//115
f 67//67 62//62 10//10
f 12//12 64//64 68//68
f 116//116 68//68 64//64
f 65//65 69//69 13//13
f 69//69 65//65 117//117
f 118//118 66//66 70//70
f 16//16 70//70 66//66
f 67//67 105//105 119//119
f 105//105 67//67 59//59
f 60//60 68//68 106//106
f 120//120 106//106 68//68
f 121//121 72//72 71//71
f 72//72 121//121 122//122
f 123//123 124//124 73//73
f 74//74 73//73 124//124
f 122//122 75//75 72//72
f 75//75 122//122 125//125
f 126//126 123//123 76//76
f 73//73 76//76 123//123
f 75//75 127//127 37//37
f 127//127 75//75 128//128
f 129//129 76//76 130//130
f 38//38 130//130 76//76
f 131//131 78//78 36//36
f 78//78 131//131 132//132
f 133//133 134//134 79//79
f 40//40 79//79 134//134
f 78//78 135//135 77//77
f 135//135 78//78 136//136
f 137//137 79//79 138//138
f 80//80 138//138 79//79
f 77//77 139//139 81//81
f 139//139 77//77 135//135
f 138//138 80//80 140//140
f 82//82 140//140 80//80
f 81//81 141//141 83//83
f 141//141 81//81 139//139
f 140//140 82//82 142//142
f 84//84 142//142 82//82
f 83//83 143//143 85//85
f 143//143 83//83 141//141
f 142//142 84//84 144//144
f 86//86 144//144 84//84
f 85//85 145//145 87//87
f 145//145 85//85 143//143
f 144//144 86//86 146//146
f 88//88 146//146 86//86
f 89//89 145//145 147//147
f 145//145 89//89 87//87
f 88//88 90//90 146//146
f 148//148 146//146 90//90
f 91//91 147//147 149//149
f 147//147 91//91 89//89
f 90//90 92//92 148//148
f 150//150 148//148 92//92
f 93//93 149//149 151//151
f 149//149 93//93 91//91
f 92//92 94//94 150//150
f 152//152 150//150 94//94
f 95//95 151//151 153//153
f 151//151 95//95 93//93
f 94//94 96//96 152//152
f 154//154 152//152 96//96
f 97//97 153//153 155//155
f 153//153 97//97 95//95
f 96//96 98//98 154//154
f 156//156 154//154 98//98
f 157//157 99//99 158//158
f 99//99 157//157 19//19
f 58//58 159//159 100//100
f 160//160 100//100 159//159
f 99//99 155//155 161//161
f 155//155 99//99 97//97
f 98//98 100//100 156//156
f 162//162 156//156 100//100
f 163//163 102//102 164//164
f 102//102 163//163 101//101
f 103//103 165//165 104//104
f 166//166 104//104 165//165
f 102//102 167//167 168//168
f 167//167 102//102 17//17
f 57//57 104//104 169//169
f 170//170 169//169 104//104
f 119//119 101//101 163//163
f 101//101 119//119 105//105
f 106//106 120//120 103//103
f 165//165 103//103 120//120
f 117//117 107//107 69//69
f 107//107 117//117 171//171
f 172//172 118//118 108//108
f 70//70 108//108 118//118
f 171//171 71//71 107//107
f 71//71 171//171 121//121
f 124//124 172//172 74//74
f 108//108 74//74 172//172
f 113//113 110//110 173//173
f 110//110 113//113 61//61
f 63//63 114//114 112//112
f 174//174 112//112 114//114
f 109//109 115//115 175//175
f 115//115 109//109 62//62
f 64//64 111//111 116//116
f 176//176 116//116 111//111
f 177//177 178//178 179//177
f 178//178 177//177 180//179
f 181//180 182//181 183//182
f 184//181 183//182 182//181
f 113//113 117//117 65//65
f 117//117 113//113 185//183
f 186//184 114//114 118//118
f 66//66 118//118 114//114
f 115//115 119//119 187//185
f 119//119 115//115 67//67
f 68//68 116//116 120//120
f 188//186 120//120 116//116
f 189//187 122//122 121//121
f 122//122 189//187 190//188
f 191//189 192//190 123//123
f 124//124 123//123 192//190
f 190//188 125//125 122//122
f 125//125 190//188 193//191
f 194//192 191//189 126//126
f 123//123 126//126 191//189
f 125//125 128//128 75//75
f 128//128 125//125 195//193
f 196//194 126//126 129//129
f 76//76 129//129 126//126
f 127//127 132//132 131//131
f 132//132 127//127 128//128
f 129//129 130//130 133//133
f 134//134 133//133 130//130
f 132//132 136//136 78//78
f 136//136 132//132 197//195
f 198//196 133//133 137//137
f 79//79 137//137 133//133
f 136//136 199//197 135//135
f 199//197 136//136 200//198
f 201//199 137//137 202//200
f 138//138 202//200 137//137
f 135//135 203//201 139//139
f 203//201 135//135 199//197
f 202//200 138//138 204//202
f 140//140 204//202 138//138
f 139//139 205//203 141//141
f 205//203 139//139 203//201
f 204//202 140//140 206//204
f 142//142 206//204 140//140
f 141//141 207//205 143//143
f 207//205 141//141 205//203
f 206//204 142//142 208//206
f 144//144 208//206 142//142
f 143//143 209//207 145//145
f 209//207 143//143 207//205
f 208//206 144//144 210//208
f 146//146 210//208 144//144
f 147//147 209//207 211//209
f 209//207 147//147 145//145
f 146//146 148//148 210//208
f 212//210 210//208 148//148
f 149//149 211//209 213//211
f 211//209 149//149 147//147
f 148//148 150//150 212//210
f 214//212 212//210 150//150
f 151//151 213//211 215//213
f 213//211 151//151 149//149
f 150//150 152//152 214//212
f 216//214 214//212 152//152
f 153//153 215//213 217//215
f 215//213 153//153 151//151
f 152//152 154//154 216//214
f 218//216 216//214 154//154
f 155//155 217//215 219//217
f 217//215 155//155 153//153
f 154//154 156//156 218//216
f 220//218 218//216 156//156
f 168//168 157//157 158//158
f 157//157 168//168 167//167
f 169//169 170//170 159//159
f 160//160 159//159 170//170
f 158//158 161//161 221//219
f 161//161 158//158 99//99
f 100//100 160//160 162//162
f 222//220 162//162 160//160
f 161//161 219//217 223//221
f 219//217 161//161 155//155
f 156//156 162//162 220//218
f 224//222 220//218 162//162
f 225//223 164//164 226//224
f 164//164 225//223 163//163
f 165//165 227//225 166//166
f 228//226 166//166 227//225
f 164//164 168//168 229//227
f 168//168 164//164 102//102
f 104//104 166//166 170//170
f 230//228 170//170 166//166
f 187//185 163//163 225//223
f 163//163 187//185 119//119
f 120//120 188//186 165//165
f 227//225 165//165 188//186
f 185//183 171//171 117//117
f 171//171 185//183 231//229
f 232//230 186//184 172//172
f 118//118 172//172 186//184
f 231//229 121//121 171//171
f 121//121 231//229 189//187
f 192//190 232//230 124//124
f 172//172 124//124 232//230
f 233//231 179//177 234//232
f 179//177 233//231 177//177
f 182//181 235//233 184//181
f 236//234 184//181 235//233
f 173//173 185//183 113//113
f 185//183 173//173 237//235
f 238//236 174//174 186//184
f 114//114 186//184 174//174
f 180//179 239//237 178//178
f 239//237 180//179 240//238
f 241//239 181//180 242//240
f 183//182 242//240 181//180
f 175//175 187//185 243//241
f 187//185 175//175 115//115
f 116//116 176//176 188//186
f 244//242 188//186 176//176
f 245//243 246//243 247//243
f 246//243 245//243 248//243
f 246//243 248//243 249//243
f 249//243 248//243 250//243
f 249//243 250//243 251//243
f 251//243 250//243 252//243
f 251//243 252//243 253//243
f 253//243 252//243 254//243
f 253//243 254//243 255//243
f 255//243 254//243 256//243
f 255//243 256//243 257//243
f 257//243 256//243 258//243
f 257//243 258//243 259//243
f 259//243 258//243 260//243
f 259//243 260//243 261//243
f 261//243 260//243 262//243
f 261//243 262//243 263//243
f 263//243 262//243 264//243
f 263//243 264//243 265//243
f 265//243 264//243 266//243
f 265//243 266//243 267//243
f 267//243 266//243 268//243
f 267//243 268//243 269//243
f 269//243 268//243 270//243
f 269//243 270//243 271//243
f 271//243 270//243 272//243
f 273//244 274//244 275//244
f 275//244 274//244 276//244
f 274//244 277//244 276//244
f 276//244 277//244 278//244
f 277//244 279//244 278//244
f 278//244 279//244 280//244
f 279//244 281//244 280//244
f 280//244 281//244 282//244
f 281//244 283//244 282//244
f 282//244 283//244 284//244
f 283//244 285//244 284//244
f 284//244 285//244 286//244
f 285//244 287//244 286//244
f 286//244 287//244 288//244
f 287//244 289//244 288//244
f 288//244 289//244 290//244
f 289//244 291//244 290//244
f 290//244 291//244 292//244
f 291//244 293//244 292//244
f 292//244 293//244 294//244
f 293//244 295//244 294//244
f 294//244 295//244 296//244
f 295//244 297//244 296//244
f 296//244 297//244 298//244
f 297//244 299//244 298//244
f 300//244 298//244 299//244
f 301//245 190//188 189//187
f 190//188 301//245 302//246
f 303//247 304//248 191//189
f 192//190 191//189 304//248
f 302//246 193//191 190//188
f 193//191 302//246 305//249
f 306//250 303//247 194//192
f 191//189 194//192 303//247
f 193//191 195//193 125//125
f 195//193 193//191 307//251
f 308//252 194//192 196//194
f 126//126 196//194 194//192
f 128//128 197//195 132//132
f 197//195 128//128 195//193
f 196//194 129//129 198//196
f 133//133 198//196 129//129
f 197//195 200//198 136//136
f 200//198 197//195 309//253
f 310//254 198//196 201//199
f 137//137 201//199 198//196
f 200//198 311//255 199//197
f 311//255 200//198 312//256
f 313//257 201//199 314//258
f 202//200 314//258 201//199
f 199//197 315//259 203//201
f 315//259 199//197 311//255
f 314//258 202//200 316//260
f 204//202 316//260 202//200
f 203//201 317//261 205//203
f 317//261 203//201 315//259
f 316//260 204//202 318//262
f 206//204 318//262 204//202
f 205//203 319//263 207//205
f 319//263 205//203 317//261
f 318//262 206//204 320//264
f 208//206 320//264 206//204
f 209//207 319//263 321//265
f 319//263 209//207 207//205
f 208//206 210//208 320//264
f 322//266 320//264 210//208
f 211//209 321//265 323//267
f 321//265 211//209 209//207
f 210//208 212//210 322//266
f 324//268 322//266 212//210
f 213//211 323//267 325//269
f 323//267 213//211 211//209
f 212//210 214//212 324//268
f 326//270 324//268 214//212
f 215//213 325//269 327//271
f 325//269 215//213 213//211
f 214//212 216//214 326//270
f 328//272 326//270 216//214
f 217//215 327//271 329//273
f 327//271 217//215 215//213
f 216//214 218//216 328//272
f 330//274 328//272 218//216
f 219//217 329//273 331//275
f 329//273 219//217 217//215
f 218//216 220//218 330//274
f 332//276 330//274 220//218
f 229//227 158//158 221//219
f 158//158 229//227 168//168
f 170//170 230//228 160//160
f 222//220 160//160 230//228
f 221//219 223//221 333//277
f 223//221 221//219 161//161
f 162//162 222//220 224//222
f 334//278 224//222 222//220
f 223//221 331//275 335//279
f 331//275 223//221 219//217
f 220//218 224//222 332//276
f 336//280 332//276 224//222
f 337//281 226//224 338//282
f 226//224 337//281 225//223
f 227//225 339//283 228//226
f 340//284 228//226 339//283
f 226//224 229//227 341//285
f 229//227 226//224 164//164
f 166//166 228//226 230//228
f 342//286 230//228 228//226
f 243//241 225//223 337//281
f 225//223 243//241 187//185
f 188//186 244//242 227//225
f 339//283 227//225 244//242
f 237//235 231//229 185//183
f 231//229 237//235 343//287
f 344//288 238//236 232//230
f 186//184 232//230 238//236
f 343//287 189//187 231//229
f 189//187 343//287 301//245
f 304//248 344//288 192//190
f 232//230 192//190 344//288
f 345//289 234//232 346//290
f 234//232 345//289 233//231
f 235//233 347//291 236//234
f 348//292 236//234 347//291
f 240//238 349//293 239//237
f 349//293 240//238 350//294
f 351//295 241//239 352//296
f 242//240 352//296 241//239
f 353//297 354//298 355//299
f 354//298 353//297 356//300
f 357//301 358//302 359//303
f 360//304 359//303 358//302
f 361//305 356//300 353//297
f 356//300 361//305 362//306
f 363//307 364//308 357//301
f 358//302 357//301 364//308
f 365//309 362//306 361//305
f 362//306 365//309 366//310
f 367//311 368//312 363//307
f 364//308 363//307 368//312
f 369//313 366//310 365//309
f 366//310 369//313 370//314
f 371//315 372//316 367//311
f 368//312 367//311 372//316
f 369//313 373//317 370//314
f 373//317 369//313 374//318
f 375//319 372//316 376//320
f 371//315 376//320 372//316
f 374//318 377//321 373//317
f 377//321 374//318 378//322
f 379//323 375//319 380//324
f 376//320 380//324 375//319
f 378//322 381//325 377//321
f 381//325 378//322 382//326
f 383//327 379//323 384//328
f 380//324 384//328 379//323
f 382//326 346//290 381//325
f 346//290 382//326 345//289
f 347//291 383//327 348//292
f 384//328 348//292 383//327
f 349//293 385//329 386//330
f 385//329 349//293 350//294
f 351//295 352//296 387//331
f 388//332 387//331 352//296
f 386//330 389//333 390//334
f 389//333 386//330 385//329
f 387//331 388//332 391//335
f 392//336 391//335 388//332
f 390//334 393//337 394//338
f 393//337 390//334 389//333
f 391//335 392//336 395//339
f 396//340 395//339 392//336
f 394//338 397//341 398//342
f 397//341 394//338 393//337
f 395//339 396//340 399//343
f 400//344 399//343 396//340
f 401//345 397//341 402//346
f 397//341 401//345 398//342
f 400//344 403//347 399//343
f 404//348 399//343 403//347
f 405//349 402//346 406//350
f 402//346 405//349 401//345
f 403//347 407//351 404//348
f 408//352 404//348 407//351
f 409//353 406//350 410//354
f 406//350 409//353 405//349
f 407//351 411//355 408//352
f 412//356 408//352 411//355
f 413//357 410//354 414//358
f 410//354 413//357 409//353
f 411//355 415//359 412//356
f 416//360 412//356 415//359
f 414//358 417//361 413//357
f 417//361 414//358 418//362
f 419//363 416//360 420//364
f 415//359 420//364 416//360
f 418//362 421//365 417//361
f 421//365 418//362 422//366
f 423//367 419//363 424//368
f 420//364 424//368 419//363
f 422//366 425//369 421//365
f 425//369 422//366 426//369
f 427//370 423//367 428//370
f 424//368 428//370 423//367
f 426//369 429//371 425//369
f 429//371 426//369 430//372
f 431//373 427//370 432//374
f 428//370 432//374 427//370
f 430//372 433//375 429//371
f 433//375 430//372 434//376
f 435//377 431//373 436//378
f 432//374 436//378 431//373
f 434//376 437//379 433//375
f 437//379 434//376 438//380
f 439//381 435//377 440//382
f 436//378 440//382 435//377
f 355//299 437//379 438//380
f 437//379 355//299 354//298
f 359//303 360//304 440//382
f 439//381 440//382 360//304
f 193//191 441//383 307//251
f 441//383 193//191 305//249
f 306//250 194//192 442//384
f 308//252 442//384 194//192
f 195//193 309//253 197//195
f 309//253 195//193 307//251
f 308//252 196//194 310//254
f 198//196 310//254 196//194
f 309//253 312//256 200//198
f 312//256 309//253 443//385
f 444//386 310//254 313//257
f 201//199 313//257 310//254
f 341//285 221//219 333//277
f 221//219 341//285 229//227
f 230//228 342//286 222//220
f 334//278 222//220 342//286
f 445//387 223//221 335//279
f 223//221 445//387 333//277
f 334//278 446//388 224//222
f 336//280 224//222 446//388
f 338//282 341//285 447//389
f 341//285 338//282 226//224
f 228//226 340//284 342//286
f 448//390 342//286 340//284
f 309//253 441//383 443//385
f 441//383 309//253 307//251
f 308//252 310//254 442//384
f 444//386 442//384 310//254
f 447//389 333//277 445//387
f 333//277 447//389 341//285
f 342//286 448//390 334//278
f 446//388 334//278 448//390
