# SSTK version 0.8.0
# 1
mtllib original-1.mtl
o group_0/ID6#ID6
v -0.24937643 -0.19477529 -0.46943628
v -0.24941390 -0.50133646 -0.12512613
v -0.24931034 -0.19476406 -0.12520130
v -0.24938492 -0.50125155 -0.46943146
v -0.24937647 -0.50123747 -0.46933446
v -0.24940699 -0.19465160 -0.46948868
v -0.24931882 -0.50128717 -0.12528126
v -0.24943332 -0.19465867 -0.12516933
v -0.24207443 -0.19466635 -0.13675547
v -0.24930418 -0.19474692 -0.46946119
v -0.24940137 -0.19472923 -0.12523208
v -0.19357370 -0.19477961 -0.18543321
v 0.24454681 -0.19465180 -0.46945061
v -0.13536169 -0.19459316 -0.22189099
v -0.07053939 -0.19468246 -0.24451329
v -0.00246105 -0.19472295 -0.25220595
v 0.06579363 -0.19466833 -0.24460818
v 0.13058398 -0.19461204 -0.22196761
v 0.18878420 -0.19459128 -0.18525552
v 0.23733881 -0.19462725 -0.13682329
v 0.24454101 -0.19474870 -0.12515555
v 0.24463713 -0.19462580 -0.12519811
v 0.23732655 -0.19476100 -0.13681101
v 0.24468206 -0.19458190 -0.46934265
v 0.18873951 -0.19476295 -0.18525694
v 0.13073086 -0.19464189 -0.22178279
v 0.06582020 -0.19473725 -0.24460401
v -0.00235589 -0.19476326 -0.25219256
v -0.07062820 -0.19473031 -0.24458093
v -0.13539872 -0.19465765 -0.22182777
v -0.19352512 -0.19462482 -0.18524176
v -0.24931160 -0.19461544 -0.46943520
v -0.24213714 -0.19464203 -0.13687271
v -0.24934982 -0.19464165 -0.12521171
v -0.24942723 -0.19471550 -0.46938748
v 0.24459847 -0.50130015 -0.46945070
v -0.24935641 -0.50132380 -0.46934257
v 0.24458409 -0.19478005 -0.46944481
v 0.24463157 -0.19462396 -0.46948343
v -0.24948032 -0.19460688 -0.46933765
v 0.24463593 -0.50127145 -0.46944950
v -0.24942530 -0.50123999 -0.46944443
v -0.24929509 -0.50130065 -0.46945486
v -0.24220153 -0.50124050 -0.13684591
v -0.24943382 -0.50136312 -0.12513077
v -0.19363254 -0.50136554 -0.18530954
v 0.24467505 -0.50139678 -0.46934053
v -0.13549962 -0.50128657 -0.22189482
v -0.07071790 -0.50134873 -0.24448782
v -0.00240763 -0.50122863 -0.25228608
v 0.06577607 -0.50137332 -0.24460342
v 0.13061446 -0.50134107 -0.22185756
v 0.18873877 -0.50133367 -0.18531806
v 0.23725322 -0.50127138 -0.13675124
v 0.24458213 -0.50129408 -0.12529225
v 0.24465026 -0.50124881 -0.12523585
v 0.24466358 -0.50136247 -0.46938863
v 0.23733788 -0.50138820 -0.13674221
v 0.18888051 -0.50125644 -0.18542450
v 0.13070804 -0.50122999 -0.22179912
v 0.06586189 -0.50136686 -0.24454613
v -0.00240250 -0.50134867 -0.25232968
v -0.07058043 -0.50121845 -0.24447216
v -0.13548743 -0.50138906 -0.22186718
v -0.19349410 -0.50128576 -0.18535045
v -0.24930836 -0.50135532 -0.46950542
v -0.24213377 -0.50139952 -0.13684645
v -0.24930052 -0.50140130 -0.12511527
v -0.20222832 -0.18958000 -0.10499267
v -0.19359539 -0.19463621 -0.18524290
v -0.24219853 -0.19470547 -0.13687606
v -0.16170649 -0.18954145 -0.14536603
v -0.16166098 -0.18954821 -0.14538216
v -0.20216510 -0.18968433 -0.10496582
v -0.19361120 -0.19458231 -0.18526134
v -0.24220381 -0.19461878 -0.13684220
v -0.19357507 -0.19460138 -0.18542098
v -0.24205241 -0.50125531 -0.13673838
v -0.24221414 -0.19477999 -0.13669541
v -0.19351772 -0.50129952 -0.18533393
v -0.19358946 -0.50131140 -0.18529596
v -0.19351024 -0.19467711 -0.18540968
v -0.24219718 -0.50129720 -0.13669241
v -0.24214575 -0.19460177 -0.13675239
v -0.13550828 -0.19469983 -0.22180337
v -0.11329832 -0.18960604 -0.17577383
v -0.11322391 -0.18958491 -0.17576990
v -0.13543558 -0.19475847 -0.22183454
v -0.13547958 -0.50138427 -0.22180061
v -0.13547443 -0.19459484 -0.22181880
v -0.13533398 -0.19465160 -0.22184775
v -0.13549677 -0.50139047 -0.22187549
v -0.07068592 -0.19469696 -0.24451391
v -0.05928674 -0.18950745 -0.19478109
v -0.05926770 -0.18956910 -0.19461181
v -0.07053164 -0.19470096 -0.24451016
v -0.07071301 -0.50127256 -0.24447517
v -0.07065634 -0.19470694 -0.24460804
v -0.07062083 -0.19472389 -0.24446723
v -0.07056446 -0.50128533 -0.24454092
v -0.00245335 -0.19472751 -0.25218647
v -0.00234183 -0.18961755 -0.20113051
v -0.00243227 -0.18962817 -0.20107620
v -0.00246840 -0.19473942 -0.25213850
v -0.00232061 -0.50130243 -0.25230374
v -0.00238311 -0.19475653 -0.25232870
v -0.00236579 -0.19465589 -0.25221824
v -0.00248092 -0.50136479 -0.25228962
v 0.05449867 -0.18951388 -0.19468984
v 0.06578623 -0.19468598 -0.24455370
v 0.06577830 -0.19460032 -0.24451000
v 0.05438510 -0.18961188 -0.19472259
v 0.06592657 -0.50130941 -0.24451570
v 0.06586616 -0.19471877 -0.24455288
v 0.06576829 -0.19474432 -0.24453489
v 0.06592967 -0.50137898 -0.24451618
v 0.10837654 -0.18957398 -0.17588149
v 0.13061252 -0.19473633 -0.22184369
v 0.13071179 -0.19472541 -0.22181495
v 0.10845325 -0.18963570 -0.17584665
v 0.13074535 -0.50139638 -0.22177218
v 0.13057456 -0.19458491 -0.22185766
v 0.13072356 -0.19473450 -0.22177926
v 0.13073622 -0.50121919 -0.22185374
v 0.15686617 -0.18960278 -0.14545526
v 0.18881230 -0.19463248 -0.18543534
v 0.18880056 -0.19465143 -0.18523753
v 0.15697068 -0.18960375 -0.14531504
v 0.18885534 -0.50126912 -0.18529851
v 0.18875095 -0.19477923 -0.18540793
v 0.18885415 -0.19472408 -0.18542671
v 0.18884844 -0.50128943 -0.18529391
v 0.19737680 -0.18964167 -0.10489577
v 0.23737551 -0.19470310 -0.13682485
v 0.23727527 -0.19477433 -0.13672491
v 0.19741881 -0.18964286 -0.10500393
v 0.23728532 -0.50136871 -0.13684944
v 0.23733401 -0.19470690 -0.13681409
v 0.23725167 -0.19461062 -0.13687214
v 0.23726875 -0.50140243 -0.13679868
v 0.22782242 -0.18967309 -0.05641897
v 0.24469568 -0.19471426 -0.12512701
v 0.27385322 -0.19474281 -0.07872311
v 0.27393232 -0.19475048 -0.07864623
v 0.22781557 -0.18962586 -0.05637095
v 0.24470318 -0.19473339 -0.12529431
v 0.24463134 -0.50133276 -0.12529884
v 0.27393221 -0.19466567 -0.07855008
v 0.27389868 -0.50140627 -0.07860822
v 0.24465183 -0.19459663 -0.12526650
v 0.24464772 -0.19477728 -0.12515335
v 0.24455856 -0.50138895 -0.12525797
v 0.27390961 -0.19461988 -0.07874043
v 0.27397811 -0.50133533 -0.07869986
v 0.24457495 -0.50129222 -0.46946923
v 0.24459609 -0.19460880 -0.12523689
v 0.24461776 -0.50139547 -0.12518470
v 0.24464883 -0.19469532 -0.46938946
v 0.24465103 -0.19472966 -0.46938734
v 0.24465659 -0.50139669 -0.46942287
v 0.24457436 -0.19475223 -0.12530216
v 0.24462279 -0.50139915 -0.12511571
v -0.23268595 -0.18968911 -0.05649433
v -0.24931017 -0.19475733 -0.12527521
v -0.27867047 -0.19465810 -0.07867812
v -0.23261866 -0.18964034 -0.05650680
v -0.24940542 -0.19461020 -0.12527702
v -0.27856856 -0.19477711 -0.07874443
v -0.24935937 -0.19477455 -0.12527334
v -0.27858018 -0.50129839 -0.07870077
v -0.27863360 -0.19472739 -0.07868968
v -0.24942419 -0.50124845 -0.12528293
v -0.24946528 -0.50137024 -0.12514392
v -0.24936460 -0.19465221 -0.12510721
v -0.27870361 -0.50121888 -0.07867039
v -0.27861071 -0.19473781 -0.07858041
v -0.30123381 -0.50124240 -0.01384461
v -0.30142090 -0.50128070 0.12263734
v -0.30898461 -0.50128854 0.05434622
v -0.27862043 -0.50130673 -0.07869888
v -0.27872355 -0.50134992 0.18746863
v -0.24202839 -0.50131043 0.24563650
v -0.22730804 -0.50127440 0.05448565
v -0.22175013 -0.50126756 0.00438591
v -0.20508885 -0.50122905 -0.04327016
v -0.17819403 -0.50137565 -0.08588170
v -0.14266947 -0.50140530 -0.12143650
v -0.10007123 -0.50128795 -0.14826222
v -0.05244359 -0.50129088 -0.16487161
v -0.00242056 -0.50126161 -0.17061172
v 0.04761676 -0.50137726 -0.16494113
v 0.09523863 -0.50121773 -0.14823786
v 0.13787059 -0.50125354 -0.12154694
v 0.17355822 -0.50128308 -0.08597414
v 0.20037083 -0.50136560 -0.04330633
v 0.21691989 -0.50122674 0.00432220
v 0.22264085 -0.50123861 0.05459225
v -0.22171120 -0.50126817 0.10437714
v -0.19356797 -0.50131127 0.29403528
v -0.20516425 -0.50130075 0.15209269
v -0.17825992 -0.50122193 0.19471321
v -0.13550452 -0.50122153 0.33064380
v -0.14265064 -0.50130486 0.23032141
v -0.10004634 -0.50136906 0.25706570
v -0.07071494 -0.50132978 0.35337497
v -0.05235460 -0.50139733 0.27383557
v -0.00246126 -0.50134016 0.36111764
v -0.00232940 -0.50140251 0.27945558
v 0.04759949 -0.50121274 0.27377922
v 0.06594001 -0.50130314 0.35332499
v 0.09531052 -0.50133984 0.25711682
v 0.13065268 -0.50125649 0.33075999
v 0.13786231 -0.50127154 0.23026356
v 0.18875612 -0.50123715 0.29408799
v 0.17353896 -0.50123760 0.19462804
v 0.20029208 -0.50126241 0.15195238
v 0.23728527 -0.50132181 0.24562867
v 0.21699565 -0.50133368 0.10450056
v 0.27386822 -0.50123455 0.18744916
v 0.27391499 -0.50134532 -0.07855854
v 0.29652200 -0.50135694 -0.01379754
v 0.29662373 -0.50130333 0.12263429
v 0.30422078 -0.50131289 0.05449573
v 0.30422457 -0.50128582 0.05448770
v 0.29656112 -0.50139098 -0.01390114
v 0.29649026 -0.50131061 0.12265279
v 0.27397187 -0.50136662 0.18737635
v 0.27396458 -0.50139012 -0.07855950
v 0.23740079 -0.50138995 0.24566595
v 0.22255103 -0.50128698 0.05461998
v 0.21696113 -0.50130320 0.10439156
v 0.20024084 -0.50123466 0.15208606
v 0.18885473 -0.50132769 0.29420547
v 0.17355020 -0.50137073 0.19475093
v 0.13781347 -0.50123085 0.23033011
v 0.13069324 -0.50129382 0.33068944
v 0.09519735 -0.50136026 0.25707598
v 0.06579875 -0.50128636 0.35325377
v 0.04776504 -0.50138809 0.27366153
v -0.00234616 -0.50141166 0.36099098
v -0.00231058 -0.50129037 0.27947288
v -0.05251321 -0.50132450 0.27376322
v -0.07064108 -0.50126765 0.35335565
v -0.10004503 -0.50135821 0.25703836
v -0.13545174 -0.50132243 0.33067869
v -0.14265089 -0.50133949 0.23021706
v -0.17829840 -0.50137724 0.19464478
v -0.19359454 -0.50124521 0.29417440
v -0.20509992 -0.50140519 0.15210269
v -0.22175302 -0.50139801 0.10454883
v -0.22742518 -0.50122313 0.05440501
v -0.24213381 -0.50132006 0.24552234
v 0.21693048 -0.50131178 0.00426724
v 0.20035029 -0.50139396 -0.04330471
v 0.17347583 -0.50132625 -0.08588466
v 0.13791814 -0.50133306 -0.12145020
v 0.09529662 -0.50140240 -0.14821916
v 0.04773546 -0.50132005 -0.16491375
v -0.00247648 -0.50137717 -0.17053301
v -0.05254036 -0.50121987 -0.16494603
v -0.10004666 -0.50125253 -0.14822589
v -0.14267741 -0.50128340 -0.12143910
v -0.17836500 -0.50130391 -0.08581188
v -0.20503695 -0.50126901 -0.04329562
v -0.22167041 -0.50126695 0.00431756
v -0.27865696 -0.50129598 0.18746277
v -0.27866990 -0.50135306 -0.07855115
v -0.30132403 -0.50134884 0.12267345
v -0.30122795 -0.50137570 -0.01392874
v -0.30892723 -0.50131469 0.05430738
v -0.16172848 -0.18963134 -0.14532159
v -0.17524824 -0.49705216 -0.08343489
v -0.14035539 -0.49715437 -0.11856266
v -0.20219526 -0.18955827 -0.10496721
v -0.20205558 -0.18960826 -0.10482427
v -0.16169923 -0.18965964 -0.14526771
v -0.17522338 -0.49701140 -0.08341481
v -0.14036675 -0.49709045 -0.11859289
v -0.09825449 -0.49699084 -0.14496562
v -0.11334700 -0.18964599 -0.17579929
v -0.11328847 -0.18960574 -0.17580254
v -0.09834483 -0.49699532 -0.14486022
v -0.05932256 -0.18965488 -0.19463767
v -0.05164803 -0.49712705 -0.16120205
v -0.05917957 -0.18967910 -0.19467581
v -0.05167997 -0.49709639 -0.16122449
v -0.00246839 -0.18961646 -0.20103827
v -0.00243576 -0.49699247 -0.16679863
v -0.00231813 -0.18958018 -0.20109700
v -0.00232650 -0.49714876 -0.16678370
v 0.05442958 -0.18950311 -0.19465813
v 0.04681317 -0.49715939 -0.16129591
v 0.05456564 -0.18955911 -0.19476727
v 0.04686566 -0.49701394 -0.16119565
v 0.09364249 -0.49708149 -0.14484870
v 0.10846299 -0.18967697 -0.17580751
v 0.10856682 -0.18955409 -0.17577132
v 0.09361978 -0.49707481 -0.14485115
v 0.15693006 -0.18965463 -0.14544366
v 0.13548939 -0.49700202 -0.11860308
v 0.15685618 -0.18960496 -0.14530090
v 0.13557306 -0.49711723 -0.11851980
v 0.19729767 -0.18961684 -0.10492708
v 0.17043751 -0.49705306 -0.08358766
v 0.19730959 -0.18963696 -0.10492140
v 0.17062153 -0.49714580 -0.08343884
v 0.22775265 -0.18966789 -0.05645008
v 0.19687802 -0.49716174 -0.04153906
v 0.22782618 -0.18953471 -0.05650652
v 0.19686368 -0.49706094 -0.04157521
v 0.24667538 -0.18967653 -0.00254126
v 0.29648886 -0.19470355 -0.01388024
v 0.29650798 -0.19472982 -0.01384976
v 0.24667797 -0.18952264 -0.00245370
v 0.29660936 -0.19476866 -0.01390791
v 0.29651534 -0.50134800 -0.01380609
v 0.29647052 -0.19470301 -0.01381194
v 0.29658150 -0.50140823 -0.01385811
v -0.25142988 -0.18964893 -0.00236726
v -0.30142238 -0.19467875 -0.01391943
v -0.25142001 -0.18958595 -0.00248491
v -0.30134949 -0.19461590 -0.01376065
v -0.23249301 -0.18964864 -0.05640924
v -0.20160295 -0.49705002 -0.04162316
v -0.23258754 -0.18959138 -0.05650191
v -0.20170379 -0.49714498 -0.04158832
v -0.30125950 -0.50124924 -0.01393119
v -0.30123988 -0.19471770 -0.01386330
v -0.30123270 -0.50125147 -0.01379196
v -0.30123552 -0.19469170 -0.01393126
v 0.27390272 -0.50140122 0.18746667
v 0.23725565 -0.19474617 0.24554004
v 0.23725310 -0.50122118 0.24560706
v 0.27384848 -0.19476041 0.18751812
v 0.27387466 -0.19469251 0.18747298
v 0.27380305 -0.50134355 0.18740594
v 0.23737829 -0.19464804 0.24560436
v 0.23744488 -0.50132384 0.24550890
v 0.18876781 -0.50139724 0.29411999
v 0.18876742 -0.19474325 0.29406479
v 0.18882187 -0.19462938 0.29405435
v 0.18877833 -0.50122609 0.29412367
v 0.13055965 -0.50136848 0.33063207
v 0.13059199 -0.19469263 0.33057857
v 0.13069199 -0.19470771 0.33063373
v 0.13075128 -0.50137730 0.33074919
v 0.06586937 -0.50139796 0.35328409
v 0.06580507 -0.19477343 0.35339654
v 0.06594323 -0.19471690 0.35326485
v 0.06594437 -0.50129732 0.35340679
v -0.00233582 -0.50139228 0.36094391
v -0.00240067 -0.19469106 0.36105041
v -0.00240763 -0.19471155 0.36106807
v -0.00239553 -0.50130359 0.36101177
v -0.07067286 -0.50122494 0.35327179
v -0.07052412 -0.19460742 0.35338526
v -0.07054194 -0.19476645 0.35339913
v -0.07052668 -0.50134280 0.35340847
v -0.13538557 -0.50134042 0.33069558
v -0.13549452 -0.19464994 0.33064229
v -0.13544972 -0.19458800 0.33064856
v -0.13549078 -0.50125955 0.33063812
v -0.19365337 -0.50125640 0.29413281
v -0.19361671 -0.19465595 0.29418356
v -0.19353202 -0.19458759 0.29412449
v -0.19349569 -0.50128411 0.29407811
v -0.24208937 -0.50121949 0.24557370
v -0.24217239 -0.19462109 0.24550658
v -0.24209310 -0.19458344 0.24555706
v -0.24209393 -0.50135993 0.24548779
v -0.27868774 -0.19478010 0.18735721
v -0.27867151 -0.50132304 0.18734517
v -0.27863297 -0.50126184 0.18746687
v -0.27859223 -0.19462812 0.18747329
v -0.30134171 -0.19466914 0.12259159
v -0.30125356 -0.50126543 0.12262013
v -0.30139283 -0.50135378 0.12262142
v -0.30123151 -0.19469955 0.12258615
v -0.30896903 -0.19473918 0.05442663
v -0.30893869 -0.50134008 0.05434238
v -0.30898057 -0.50136032 0.05441483
v -0.30908007 -0.19465041 0.05435598
v 0.30416311 -0.19469226 0.05433830
v 0.30433692 -0.50131746 0.05437269
v 0.30429089 -0.19472008 0.05433539
v 0.30417976 -0.50134585 0.05444029
v 0.29646813 -0.19469648 0.12272282
v 0.29663134 -0.50139270 0.12260356
v 0.29648785 -0.19460176 0.12267302
v 0.29651654 -0.50138561 0.12254581
v 0.24663617 -0.18966369 -0.00253311
v 0.21320254 -0.49703712 0.00519851
v 0.24666816 -0.18959231 -0.00245277
v 0.21318904 -0.49713605 0.00512038
v 0.25314025 -0.18957197 0.05438425
v 0.30428962 -0.19462107 0.05441580
v 0.30427237 -0.19463442 0.05433802
v 0.25316972 -0.18958145 0.05446993
v -0.25781761 -0.18950555 0.05432833
v -0.30910880 -0.19462979 0.05444961
v -0.25787597 -0.18950992 0.05448261
v -0.30911239 -0.19470843 0.05437681
v -0.25149618 -0.18964763 -0.00247272
v -0.21809195 -0.49707891 0.00513889
v -0.25141391 -0.18960639 -0.00251931
v -0.21804459 -0.49715130 0.00512725
v 0.23733277 -0.19477497 0.24558959
v 0.22785942 -0.18961176 0.16532693
v 0.19728610 -0.18958819 0.21362402
v 0.27389832 -0.19461003 0.18753178
v 0.27378081 -0.19475863 0.18748328
v 0.23741474 -0.19467719 0.24552403
v 0.22772859 -0.18950589 0.16533870
v 0.19735864 -0.18963857 0.21369258
v 0.18882016 -0.19459673 0.29405552
v 0.15683931 -0.18951876 0.25408197
v 0.18871521 -0.19462876 0.29411110
v 0.15687716 -0.18958065 0.25422723
v 0.13062545 -0.19461020 0.33067991
v 0.10837721 -0.18952204 0.28468704
v 0.13062004 -0.19477478 0.33064100
v 0.10852492 -0.18961320 0.28451650
v 0.06591845 -0.19468845 0.35335937
v 0.05456708 -0.18949744 0.30347605
v 0.06583290 -0.19464844 0.35329218
v 0.05444225 -0.18965995 0.30354931
v -0.00248063 -0.18952509 0.30983690
v -0.00244028 -0.19466335 0.36112149
v -0.00233439 -0.18959053 0.30993618
v -0.00241785 -0.19475031 0.36099584
v -0.05931467 -0.18963409 0.30358655
v -0.07066328 -0.19474859 0.35328619
v -0.05917070 -0.18961410 0.30356949
v -0.07068398 -0.19459471 0.35327255
v -0.11315774 -0.18952567 0.28458510
v -0.13540715 -0.19459705 0.33065918
v -0.11333088 -0.18959731 0.28452677
v -0.13547516 -0.19474584 0.33069641
v -0.16163302 -0.18967082 0.25417255
v -0.19364614 -0.19458767 0.29420082
v -0.16165183 -0.18959335 0.25410297
v -0.19356311 -0.19461789 0.29413718
v -0.20220238 -0.18952566 0.21369679
v -0.24205644 -0.19460497 0.24564964
v -0.20220583 -0.18964856 0.21373437
v -0.24213698 -0.19460894 0.24561134
v -0.23266680 -0.18951679 0.16515709
v -0.27869242 -0.19459844 0.18749662
v -0.23254348 -0.18966718 0.16525528
v -0.27863388 -0.19477532 0.18738065
v -0.25140684 -0.18965238 0.11132679
v -0.30138751 -0.19467117 0.12268428
v -0.25148853 -0.18961487 0.11132374
v -0.30131896 -0.19467966 0.12266416
v 0.29650265 -0.19467456 0.12253218
v 0.24678247 -0.18955562 0.11128240
v 0.29653017 -0.19467018 0.12269213
v 0.24671419 -0.18967786 0.11128439
v 0.21877374 -0.49715751 0.05444134
v 0.25311734 -0.18955727 0.05441305
v 0.21872847 -0.49711311 0.05437441
v 0.25309510 -0.18963822 0.05448060
v -0.25780305 -0.18962514 0.05437898
v -0.22349185 -0.49700210 0.05440430
v -0.25791644 -0.18950924 0.05446939
v -0.22361921 -0.49711964 0.05439189
v 0.22790135 -0.18961184 0.16524002
v 0.17050591 -0.49706405 0.19220910
v 0.19728007 -0.18955046 0.21370594
v 0.19694006 -0.49712904 0.15031402
v 0.19683271 -0.49703128 0.15025895
v 0.22776578 -0.18954979 0.16529985
v 0.17050410 -0.49711723 0.19230968
v 0.19743219 -0.18951992 0.21376462
v 0.13546024 -0.49714990 0.22735406
v 0.15700873 -0.18965377 0.25420987
v 0.13546860 -0.49700123 0.22739143
v 0.15701561 -0.18964641 0.25414052
v 0.10843873 -0.18956486 0.28450517
v 0.09366020 -0.49710329 0.25372673
v 0.10848654 -0.18955914 0.28454733
v 0.09362214 -0.49709819 0.25369557
v 0.05455538 -0.18961346 0.30339914
v 0.04684205 -0.49707075 0.26992728
v 0.05437997 -0.18961329 0.30347650
v 0.04686724 -0.49707304 0.26998580
v -0.00241367 -0.49698209 0.27551003
v -0.00231670 -0.18969089 0.30992251
v -0.00240321 -0.18959401 0.30991231
v -0.00248187 -0.49712812 0.27561232
v -0.05926353 -0.18968452 0.30359076
v -0.05157982 -0.49704967 0.26996223
v -0.05919271 -0.18959181 0.30352126
v -0.05165274 -0.49705750 0.27007128
v -0.11323143 -0.18961582 0.28449362
v -0.09829649 -0.49703373 0.25360201
v -0.11327179 -0.18957536 0.28457913
v -0.09841504 -0.49702501 0.25364182
v -0.16163335 -0.18968812 0.25424564
v -0.14034913 -0.49706068 0.22733606
v -0.16169049 -0.18949894 0.25422230
v -0.14019953 -0.49716990 0.22722705
v -0.20208361 -0.18954847 0.21367512
v -0.17522292 -0.49702646 0.19233822
v -0.17529597 -0.49698042 0.19235171
v -0.20218499 -0.18968910 0.21372352
v -0.23264085 -0.18952694 0.16520865
v -0.20173942 -0.49702221 0.15034202
v -0.20167535 -0.49714641 0.15034947
v -0.23254219 -0.18959143 0.16524003
v -0.25141612 -0.18969576 0.11129917
v -0.21800424 -0.49698817 0.10351862
v -0.21802912 -0.49699562 0.10365369
v -0.25153241 -0.18969263 0.11118544
v 0.21333544 -0.49707522 0.10363784
v 0.24669390 -0.18961315 0.11132600
v 0.21327613 -0.49713200 0.10360042
v 0.24671461 -0.18968963 0.11123323
vn -1 0 0
vn 1 0 0
vn 0 1 0
vn 0 -1 0
vn 0 0 -1
vn 0 0 1
vn -0.0773820416941667 0.9950898217860371 -0.06171115135107523
vn -0.061709262646459866 0.9950899426753697 -0.07738199331859946
vn -0.0773819817191704 0.995089822107588 -0.06171122137101797
vn -0.0617100326271407 0.9950899423633107 -0.0773813832943066
vn 0.0617100326271407 -0.9950899423633107 0.0773813832943066
vn 0.0773820416941667 -0.9950898217860371 0.06171115135107523
vn 0.061709262646459866 -0.9950899426753697 0.07738199331859946
vn 0.0773819817191704 -0.995089822107588 0.06171122137101797
vn -0.6234873989667816 0 -0.781833398704377
vn -0.7818271862856255 0 -0.6234951890629967
vn 0.6234873989667816 0 0.781833398704377
vn 0.7818271862856255 0 0.6234951890629967
vn -0.0429440116106277 0.9950896373211275 -0.08917637334458571
vn -0.042944691582061885 0.995089636658626 -0.08917605328520291
vn 0.042944691582061885 -0.995089636658626 0.08917605328520291
vn 0.0429440116106277 -0.9950896373211275 0.08917637334458571
vn -0.4338541971054875 0 -0.9009830939889787
vn 0.4338541971054875 0 0.9009830939889787
vn -0.02202559952036385 0.9950891783306357 -0.0965007778985695
vn -0.022026719529609842 0.9950891787494386 -0.09650051793918933
vn 0.022026719529609842 -0.9950891787494386 0.09650051793918933
vn 0.02202559952036385 -0.9950891783306357 0.0965007778985695
vn -0.22251470759725528 0 -0.97492933328673
vn 0.22251470759725528 0 0.97492933328673
vn 2.8667079151718585e-7 0.9950891705545288 -0.09898253707102865
vn 3.416459898904205e-7 0.9950891705545116 -0.09898253707102694
vn -3.416459898904205e-7 -0.9950891705545116 0.09898253707102694
vn -2.8667079151718585e-7 -0.9950891705545288 0.09898253707102865
vn 1.293995e-8 0 -1
vn -1.293995e-8 0 1
vn 0.022025109771752198 0.9950894896878157 -0.09649767899998737
vn 0.022026189779156935 0.9950894900228494 -0.09649742903247938
vn -0.022026189779156935 -0.9950894900228494 0.09649742903247938
vn -0.022025109771752198 -0.9950894896878157 0.09649767899998737
vn 0.22251470759725528 0 -0.97492933328673
vn -0.22251470759725528 0 0.97492933328673
vn 0.04294056176381719 0.9950903408741147 -0.08917018366273488
vn 0.04294180173652145 0.9950903402404101 -0.08916959360592468
vn -0.04294180173652145 -0.9950903402404101 0.08916959360592468
vn -0.04294056176381719 -0.9950903408741147 0.08917018366273488
vn 0.4338541159284292 0 -0.9009831330785062
vn -0.4338541159284292 0 0.9009831330785062
vn 0.06170315264871703 0.9950906427160271 -0.07737786332158152
vn 0.061704102660385396 0.995090642903543 -0.0773771033361299
vn -0.061704102660385396 -0.995090642903543 0.0773771033361299
vn -0.06170315264871703 -0.9950906427160271 0.07737786332158152
vn 0.6234872890941039 0 -0.7818334863243486
vn -0.6234872890941039 0 0.7818334863243486
vn 0.07737704834833026 0.9950904787590652 -0.06170681868282256
vn 0.07737694837408918 0.9950904790903051 -0.06170693870336064
vn -0.07737694837408918 -0.9950904790903051 0.06170693870336064
vn -0.07737704834833026 -0.9950904787590652 0.06170681868282256
vn 0.7818270986644439 0 -0.6234952989349142
vn -0.7818270986644439 0 0.6234952989349142
vn 0.08916786927761099 0.9950905919383237 -0.04293954965212718
vn 0.0843275433778956 0.995028539857707 -0.05298179212228337
vn 0.08916857926071835 0.9950905917498718 -0.04293807964400741
vn -0.08916857926071835 -0.9950905917498718 0.04293807964400741
vn -0.08916786927761099 -0.9950905919383237 0.04293954965212718
vn -0.0843275433778956 -0.995028539857707 0.05298179212228337
vn 0.8467168968437357 0 -0.5320436980167274
vn 0.9009788055901006 0 -0.4338631026918928
vn -0.8467168968437357 0 0.5320436980167274
vn -0.9009788055901006 0 0.4338631026918928
vn -0.08917670266243237 0.9950895297090888 -0.042945821282177096
vn -0.08433040993656138 0.9950278992514776 -0.05298925996013794
vn -0.08917714268669158 0.9950895299796403 -0.04294490129382576
vn 0.08917670266243237 -0.9950895297090888 0.042945821282177096
vn 0.08433040993656138 -0.9950278992514776 0.05298925996013794
vn 0.08917714268669158 -0.9950895299796403 0.04294490129382576
vn -0.8467168968437357 0 -0.5320436980167274
vn -0.9009787085860659 0 -0.4338633041345915
vn 0.8467168968437357 0 0.5320436980167274
vn 0.9009787085860659 0 0.4338633041345915
vn 0.6196565949647759 0.11096829909829031 0.7769888936863204
vn 0.776990889924561 0.11096829856104565 0.6196540919647874
vn 0.6196540919647874 0.11096829856104562 0.776990889924561
vn 0.7769888936863204 0.11096829909829034 0.6196565949647759
vn -0.7769888936863204 -0.11096829909829034 -0.6196565949647759
vn -0.6196565949647759 -0.11096829909829031 -0.7769888936863204
vn -0.776990889924561 -0.11096829856104565 -0.6196540919647874
vn -0.6196540919647874 -0.11096829856104562 -0.776990889924561
vn 0.4312313886567345 0.11096259708119974 0.8953919764472874
vn 0.43123219433659316 0.11096259854271913 0.8953915882407507
vn -0.43123219433659316 -0.11096259854271913 -0.8953915882407507
vn -0.4312313886567345 -0.11096259708119974 -0.8953919764472874
vn 0.221142907323268 0.1109685036747823 0.9689075320859014
vn 0.221142790786987 0.11096849537694972 0.9689075596344158
vn -0.221142907323268 -0.1109685036747823 -0.9689075320859014
vn -0.221142790786987 -0.11096849537694972 -0.9689075596344158
vn -0.000008751028090189186 0.1109731011437024 0.993823410242468
vn -0.000008891885091629828 0.11097310114356451 0.9938234102412332
vn 0.000008751028090189186 -0.1109731011437024 -0.993823410242468
vn 0.000008891885091629828 -0.11097310114356451 -0.9938234102412332
vn -0.22115140119069243 0.11096840059746031 0.968905605216646
vn 0.22115140119069243 -0.11096840059746031 -0.968905605216646
vn -0.4312138116132478 0.11095870298828747 0.8954009241145171
vn -0.43121498153303556 0.11095869524814662 0.8954003616540999
vn 0.43121498153303556 -0.11095869524814662 -0.8954003616540999
vn 0.4312138116132478 -0.11095870298828747 -0.8954009241145171
vn -0.6196177188913422 0.11095970338301755 0.7770211236903682
vn -0.6196170603732007 0.1109596929037177 0.777021650306596
vn 0.6196177188913422 -0.11095970338301755 -0.7770211236903682
vn 0.6196170603732007 -0.1109596929037177 -0.777021650306596
vn -0.7770120797064612 0.11096459710189259 0.6196281838169201
vn -0.7770144750817483 0.11096459644145129 0.6196251801291008
vn 0.7770120797064612 -0.11096459710189259 -0.6196281838169201
vn 0.7770144750817483 -0.11096459644145129 -0.6196251801291008
vn -0.895420457269019 0.11096169470471988 0.43117247942371895
vn -0.8954213107902432 0.11096170133714002 0.4311707051958076
vn 0.895420457269019 -0.11096169470471988 -0.43117247942371895
vn 0.8954213107902432 -0.11096170133714002 -0.4311707051958076
vn 0.09648491646561828 0.9950907635483894 -0.02202346919324832
vn 0.09648528648465467 0.9950907637448589 -0.022021839197655997
vn -0.09648528648465467 -0.9950907637448589 0.022021839197655997
vn -0.09648491646561828 -0.9950907635483894 0.02202346919324832
vn 0.97492933328673 0 -0.22251470759725528
vn -0.97492933328673 0 0.22251470759725528
vn -0.096500498104181 0.9950891804507851 -0.02202672956726945
vn -0.09650075806356324 0.9950891800319986 -0.0220256095580219
vn 0.096500498104181 -0.9950891804507851 0.02202672956726945
vn 0.09650075806356324 -0.9950891800319986 0.0220256095580219
vn 0.895391598176244 0.11096249977398873 0.4312321991216555
vn 0.8953919863827848 0.11096249831247061 0.4312313934417878
vn -0.895391598176244 -0.11096249977398873 -0.4312321991216555
vn -0.8953919863827848 -0.11096249831247061 -0.4312313934417878
vn -0.97492933328673 0 -0.22251470759725528
vn 0.97492933328673 0 0.22251470759725528
vn 0.9009831330785062 0 0.4338541159284292
vn 0.7818332623380567 0 0.6234875699657784
vn -0.9009831330785062 0 -0.4338541159284292
vn -0.7818332623380567 0 -0.6234875699657784
vn 0.6234872890941039 0 0.7818334863243486
vn -0.6234872890941039 0 -0.7818334863243486
vn 0.43385451881569376 0 0.9009829390744325
vn -0.43385451881569376 0 -0.9009829390744325
vn 1.293984e-8 0 1
vn -1.293984e-8 0 -1
vn -0.43385459999271775 0 0.900982899984877
vn 0.43385459999271775 0 -0.900982899984877
vn -0.6234873989667816 0 0.781833398704377
vn 0.6234873989667816 0 -0.781833398704377
vn -0.781833398704377 0 0.6234873989667816
vn 0.781833398704377 0 -0.6234873989667816
vn -0.9009830360764922 0 0.43385431737207175
vn 0.9009830360764922 0 -0.43385431737207175
vn -1 0 5.1759599999999934e-8
vn 1 0 -5.1759599999999934e-8
vn 1 0 5.1759809999999934e-8
vn -1 0 -5.1759809999999934e-8
vn -0.968900269057158 0.11096119645633823 0.221178392936437
vn -0.9689001282306253 0.11096120323305159 0.22117900644444302
vn 0.968900269057158 -0.11096119645633823 -0.221178392936437
vn 0.9689001282306253 -0.11096120323305159 -0.22117900644444302
vn 0.09896620945734237 0.9950907945436569 3.454260983268928e-7
vn 0.09896620945734412 0.9950907945436743 2.8995959863103527e-7
vn -0.09896620945734412 -0.9950907945436743 -2.8995959863103527e-7
vn -0.09896620945734237 -0.9950907945436569 -3.454260983268928e-7
vn -0.09898253707102703 0.9950891705545103 3.4547238999814804e-7
vn -0.09898253707102879 0.995089170554528 2.8999689163971785e-7
vn 0.09898253707102703 -0.9950891705545103 -3.4547238999814804e-7
vn 0.09898253707102879 -0.995089170554528 -2.8999689163971785e-7
vn 0.9689075214110106 0.11096840245219025 0.2211430048868392
vn 0.9689075489595358 0.11096839415436652 0.22114288835055454
vn -0.9689075214110106 -0.11096840245219025 -0.2211430048868392
vn -0.9689075489595358 -0.11096839415436652 -0.22114288835055454
vn 0.07737193220936192 0.9950913284149151 0.06169953176183545
vn 0.08916118276978004 0.9950914309123801 0.042933991333738826
vn 0.07737273219400043 0.995091328217057 0.061698531749539126
vn 0.08916085279007979 0.9950914311390526 0.04293467134354007
vn -0.08916085279007979 -0.9950914311390526 -0.04293467134354007
vn -0.07737193220936192 -0.9950913284149151 -0.06169953176183545
vn -0.08916118276978004 -0.9950914309123801 -0.042933991333738826
vn -0.07737273219400043 -0.995091328217057 -0.061698531749539126
vn 0.06169957141861026 0.9950913228793609 0.07737197177895379
vn 0.06169855143471589 0.9950913231394952 0.07737278179919903
vn -0.06169957141861026 -0.9950913228793609 -0.07737197177895379
vn -0.06169855143471589 -0.9950913231394952 -0.07737278179919903
vn 0.04293473100325241 0.9950914232522212 0.08916091208341609
vn 0.04293404101189055 0.995091423452803 0.08916124210139614
vn -0.04293473100325241 -0.9950914232522212 -0.08916091208341609
vn -0.04293404101189055 -0.995091423452803 -0.08916124210139614
vn 0.022022409401249245 0.9950910729452159 0.09648196737682445
vn 0.02202183940148379 0.9950910729551139 0.0964820973777806
vn -0.022022409401249245 -0.9950910729452159 -0.09648196737682445
vn -0.02202183940148379 -0.9950910729551139 -0.0964820973777806
vn 3.415959977888755e-7 0.9950907935588543 0.09896621935939953
vn 2.8663039814466855e-7 0.9950907935588715 0.09896621935940124
vn -3.415959977888755e-7 -0.9950907935588543 -0.09896621935939953
vn -2.8663039814466855e-7 -0.9950907935588715 -0.09896621935940124
vn -0.02202344916045131 0.9950907620664711 0.09648493632192957
vn -0.022021819164860526 0.9950907622629008 0.09648530634096156
vn 0.02202344916045131 -0.9950907620664711 -0.09648493632192957
vn 0.022021819164860526 -0.9950907622629008 -0.09648530634096156
vn -0.04293817087181987 0.9950907202043974 0.08916710181045581
vn -0.04293694088057248 0.9950907204078233 0.0891676918286963
vn 0.04293817087181987 -0.9950907202043974 -0.08916710181045581
vn 0.04293694088057248 -0.9950907204078233 -0.0891676918286963
vn -0.0617054314160923 0.9950906228365662 0.07737630177572696
vn -0.0617047314076024 0.9950906226999117 0.07737686176511376
vn 0.0617054314160923 -0.9950906228365662 -0.07737630177572696
vn 0.0617047314076024 -0.9950906226999117 -0.07737686176511376
vn -0.07737790298660066 0.9950906384081017 0.06170317238159405
vn -0.07737714295340836 0.9950906379816171 0.061704132355185404
vn 0.07737790298660066 -0.9950906384081017 -0.06170317238159405
vn 0.07737714295340836 -0.9950906379816171 -0.061704132355185404
vn -0.08917018362444491 0.9950903404468172 0.04294057174537889
vn -0.08916959356763386 0.9950903398131004 0.042941811718082076
vn 0.08917018362444491 -0.9950903404468172 -0.04294057174537889
vn 0.08916959356763386 -0.9950903398131004 -0.042941811718082076
vn -0.09649766905059824 0.9950894902097148 0.022025129783303832
vn -0.09649741910434251 0.9950894907639047 0.02202619979556024
vn 0.09649766905059824 -0.9950894902097148 -0.022025129783303832
vn 0.09649741910434251 -0.9950894907639047 -0.02202619979556024
vn 0.09648195744866453 0.9950910736861562 0.022022419417646988
vn 0.09648207750021534 0.9950910742178707 0.02202186942942864
vn -0.09648195744866453 -0.9950910736861562 -0.022022419417646988
vn -0.09648207750021534 -0.9950910742178707 -0.02202186942942864
vn -0.9938256315031101 0.11095320351708678 0.00002822659089477455
vn -0.9938256315177502 0.11095320351872123 0.000027699790878483655
vn 0.9938256315031101 -0.11095320351708678 -0.00002822659089477455
vn 0.9938256315177502 -0.11095320351872123 -0.000027699790878483655
vn 0.9938234102420607 0.11097310114365715 -0.000008797744090642401
vn 0.9938234102407965 0.11097310114351597 -0.000008941164092109073
vn -0.9938234102420607 -0.11097310114365715 0.000008797744090642401
vn -0.9938234102407965 -0.11097310114351597 0.000008941164092109073
vn -0.8954148991730576 0.11095089989753362 -0.4311867996017861
vn -0.7770454180960009 0.11095600258396741 -0.6195879144290967
vn -0.77704444415704 0.11095600630528787 -0.6195891352093402
vn -0.8954156755030662 0.11095089696458665 -0.43118518820356255
vn 0.8954156755030662 -0.11095089696458665 0.43118518820356255
vn 0.8954148991730576 -0.11095089989753362 0.4311867996017861
vn 0.7770454180960009 -0.11095600258396741 0.6195879144290967
vn 0.77704444415704 -0.11095600630528787 0.6195891352093402
vn -0.619588188677184 0.1109560979723058 -0.7770451857996975
vn -0.6195893613122032 0.11095609307178764 -0.777044251480558
vn 0.619588188677184 -0.1109560979723058 0.7770451857996975
vn 0.6195893613122032 -0.11095609307178764 0.777044251480558
vn -0.43118651198520647 0.11095100308398043 -0.8954150248888443
vn -0.43118490058670256 0.11095100015096845 -0.8954158012183699
vn 0.43118651198520647 -0.11095100308398043 0.8954150248888443
vn 0.43118490058670256 -0.11095100015096845 0.8954158012183699
vn -0.22118570686602693 0.11094870344405994 -0.968900030076508
vn -0.22118549521996583 0.11094869760229072 -0.9689000790611249
vn 0.22118570686602693 -0.11094870344405994 0.968900030076508
vn 0.22118549521996583 -0.11094869760229072 0.9689000790611249
vn -0.00000889186741728274 0.11094590520653437 -0.9938264466388671
vn -0.000008751046410685082 0.1109459052066722 -0.9938264466401018
vn 0.000008751046410685082 -0.1109459052066722 0.9938264466401018
vn 0.00000889186741728274 -0.11094590520653437 0.9938264466388671
vn 0.2211771891827713 0.1109488945737645 -0.9689019526134045
vn 0.22117680875047907 0.11094890438950232 -0.9689020383329385
vn -0.2211771891827713 -0.1109488945737645 0.9689019526134045
vn -0.22117680875047907 -0.11094890438950232 0.9689020383329385
vn 0.43120380647519574 0.11095490166616058 -0.8954062134459168
vn 0.4312025165309034 0.1109549042536507 -0.8954068343269885
vn -0.43120380647519574 -0.11095490166616058 0.8954062134459168
vn -0.4312025165309034 -0.1109549042536507 0.8954068343269885
vn 0.6196282250870959 0.1109647044926654 -0.777012031459147
vn 0.6196252213992252 0.11096470383225004 -0.7770144268347803
vn -0.6196282250870959 -0.1109647044926654 0.777012031459147
vn -0.6196252213992252 -0.11096470383225004 0.7770144268347803
vn 0.7770212992291832 0.11095969988992643 -0.6196174993853301
vn 0.7770218343670664 0.11095970490766088 -0.6196168274051664
vn -0.7770218343670664 -0.11095970490766088 0.6196168274051664
vn -0.7770212992291832 -0.11095969988992643 0.6196174993853301
vn 0.8954003616540999 0.11095869524814692 -0.43121498153303556
vn 0.8954009241145171 0.11095870298828776 -0.4312138116132478
vn -0.8954009241145171 -0.11095870298828776 0.4312138116132478
vn -0.8954003616540999 -0.11095869524814692 0.43121498153303556
vn 0.9689055731134473 0.1109682969206959 -0.22115159386317493
vn -0.9689055731134473 -0.1109682969206959 0.22115159386317493
vn -0.968900030076508 0.11094870344405977 -0.2211857068660269
vn -0.9688999657844174 0.11094869608197508 -0.22118599218907228
vn 0.968900030076508 -0.11094870344405977 0.2211857068660269
vn 0.9688999657844174 -0.11094869608197508 0.22118599218907228
usemtl material_0_0
f 1//1 2//1 3//1
f 2//1 1//1 4//1
f 5//2 6//2 7//2
f 8//2 7//2 6//2
f 9//3 10//3 11//3
f 10//3 9//3 12//3
f 10//3 12//3 13//3
f 13//3 12//3 14//3
f 13//3 14//3 15//3
f 13//3 15//3 16//3
f 13//3 16//3 17//3
f 13//3 17//3 18//3
f 13//3 18//3 19//3
f 13//3 19//3 20//3
f 13//3 20//3 21//3
f 22//4 23//4 24//4
f 23//4 25//4 24//4
f 25//4 26//4 24//4
f 26//4 27//4 24//4
f 27//4 28//4 24//4
f 28//4 29//4 24//4
f 29//4 30//4 24//4
f 30//4 31//4 24//4
f 24//4 31//4 32//4
f 31//4 33//4 32//4
f 34//4 32//4 33//4
f 35//5 36//5 37//5
f 36//5 35//5 38//5
f 39//6 40//6 41//6
f 42//6 41//6 40//6
f 43//4 44//4 45//4
f 44//4 43//4 46//4
f 46//4 43//4 47//4
f 46//4 47//4 48//4
f 48//4 47//4 49//4
f 49//4 47//4 50//4
f 50//4 47//4 51//4
f 51//4 47//4 52//4
f 52//4 47//4 53//4
f 53//4 47//4 54//4
f 54//4 47//4 55//4
f 56//3 57//3 58//3
f 58//3 57//3 59//3
f 59//3 57//3 60//3
f 60//3 57//3 61//3
f 61//3 57//3 62//3
f 62//3 57//3 63//3
f 63//3 57//3 64//3
f 64//3 57//3 65//3
f 57//3 66//3 65//3
f 65//3 66//3 67//3
f 68//3 67//3 66//3
f 69//7 70//8 71//9
f 70//8 69//7 72//10
f 73//11 74//12 75//13
f 76//14 75//13 74//12
f 77//15 78//16 79//16
f 78//16 77//15 80//15
f 81//17 82//17 83//18
f 84//18 83//18 82//17
f 72//10 85//19 70//8
f 85//19 72//10 86//20
f 87//21 73//11 88//22
f 75//13 88//22 73//11
f 77//15 89//23 80//15
f 89//23 77//15 90//23
f 91//24 82//17 92//24
f 81//17 92//24 82//17
f 86//20 93//25 85//19
f 93//25 86//20 94//26
f 95//27 87//21 96//28
f 88//22 96//28 87//21
f 90//23 97//29 89//23
f 97//29 90//23 98//29
f 99//30 91//24 100//30
f 92//24 100//30 91//24
f 94//26 101//31 93//25
f 101//31 94//26 102//32
f 103//33 95//27 104//34
f 96//28 104//34 95//27
f 98//29 105//35 97//29
f 105//35 98//29 106//35
f 107//36 99//30 108//36
f 100//30 108//36 99//30
f 109//37 101//31 102//32
f 101//31 109//37 110//38
f 111//39 112//40 104//34
f 103//33 104//34 112//40
f 106//35 113//41 105//35
f 113//41 106//35 114//41
f 115//42 107//36 116//42
f 108//36 116//42 107//36
f 117//43 110//38 109//37
f 110//38 117//43 118//44
f 119//45 120//46 111//39
f 112//40 111//39 120//46
f 114//41 121//47 113//41
f 121//47 114//41 122//47
f 123//48 115//42 124//48
f 116//42 124//48 115//42
f 125//49 118//44 117//43
f 118//44 125//49 126//50
f 127//51 128//52 119//45
f 120//46 119//45 128//52
f 122//47 129//53 121//47
f 129//53 122//47 130//53
f 131//54 123//48 132//54
f 124//48 132//54 123//48
f 133//55 126//50 125//49
f 126//50 133//55 134//56
f 135//57 136//58 127//51
f 128//52 127//51 136//58
f 130//53 137//59 129//53
f 137//59 130//53 138//59
f 139//60 131//54 140//60
f 132//54 140//60 131//54
f 141//61 134//56 133//55
f 134//56 141//61 142//62
f 142//62 141//61 143//63
f 144//64 145//65 146//66
f 146//66 145//65 135//57
f 136//58 135//57 145//65
f 147//67 148//68 149//68
f 148//68 147//67 150//67
f 150//67 147//67 137//59
f 150//67 137//59 138//59
f 139//60 140//60 151//69
f 140//60 152//69 151//69
f 151//69 152//69 153//70
f 154//70 153//70 152//69
f 155//2 156//2 157//2
f 156//2 155//2 158//2
f 159//1 160//1 161//1
f 162//1 161//1 160//1
f 163//71 164//72 165//73
f 164//72 163//71 71//9
f 71//9 163//71 69//7
f 74//12 166//74 76//14
f 76//14 166//74 167//75
f 168//76 167//75 166//74
f 169//77 170//78 171//78
f 170//78 169//77 172//77
f 172//77 169//77 79//16
f 172//77 79//16 78//16
f 83//18 84//18 173//79
f 84//18 174//79 173//79
f 173//79 174//79 175//80
f 176//80 175//80 174//79
f 177//4 178//4 179//4
f 178//4 177//4 180//4
f 178//4 180//4 181//4
f 181//4 180//4 45//4
f 181//4 45//4 182//4
f 182//4 45//4 44//4
f 182//4 44//4 183//4
f 183//4 44//4 184//4
f 184//4 44//4 46//4
f 184//4 46//4 185//4
f 185//4 46//4 186//4
f 186//4 46//4 48//4
f 186//4 48//4 187//4
f 187//4 48//4 188//4
f 188//4 48//4 49//4
f 188//4 49//4 189//4
f 189//4 49//4 50//4
f 189//4 50//4 190//4
f 190//4 50//4 51//4
f 190//4 51//4 191//4
f 191//4 51//4 192//4
f 192//4 51//4 52//4
f 192//4 52//4 193//4
f 193//4 52//4 53//4
f 193//4 53//4 194//4
f 194//4 53//4 195//4
f 195//4 53//4 54//4
f 195//4 54//4 196//4
f 196//4 54//4 197//4
f 182//4 198//4 199//4
f 198//4 182//4 183//4
f 199//4 198//4 200//4
f 199//4 200//4 201//4
f 199//4 201//4 202//4
f 202//4 201//4 203//4
f 202//4 203//4 204//4
f 202//4 204//4 205//4
f 205//4 204//4 206//4
f 205//4 206//4 207//4
f 207//4 206//4 208//4
f 207//4 208//4 209//4
f 207//4 209//4 210//4
f 210//4 209//4 211//4
f 210//4 211//4 212//4
f 212//4 211//4 213//4
f 212//4 213//4 214//4
f 214//4 213//4 215//4
f 214//4 215//4 216//4
f 214//4 216//4 217//4
f 217//4 216//4 218//4
f 217//4 218//4 197//4
f 217//4 197//4 54//4
f 217//4 54//4 55//4
f 217//4 55//4 219//4
f 219//4 55//4 220//4
f 219//4 220//4 221//4
f 219//4 221//4 222//4
f 222//4 221//4 223//4
f 224//3 225//3 226//3
f 226//3 225//3 227//3
f 225//3 228//3 227//3
f 228//3 56//3 227//3
f 227//3 56//3 229//3
f 56//3 58//3 229//3
f 58//3 230//3 229//3
f 230//3 231//3 229//3
f 231//3 232//3 229//3
f 229//3 232//3 233//3
f 232//3 234//3 233//3
f 234//3 235//3 233//3
f 233//3 235//3 236//3
f 235//3 237//3 236//3
f 236//3 237//3 238//3
f 237//3 239//3 238//3
f 238//3 239//3 240//3
f 239//3 241//3 240//3
f 241//3 242//3 240//3
f 240//3 242//3 243//3
f 242//3 244//3 243//3
f 243//3 244//3 245//3
f 244//3 246//3 245//3
f 246//3 247//3 245//3
f 245//3 247//3 248//3
f 247//3 249//3 248//3
f 249//3 250//3 248//3
f 251//3 252//3 250//3
f 248//3 250//3 252//3
f 230//3 58//3 253//3
f 253//3 58//3 254//3
f 58//3 59//3 254//3
f 254//3 59//3 255//3
f 255//3 59//3 256//3
f 59//3 60//3 256//3
f 256//3 60//3 257//3
f 60//3 61//3 257//3
f 257//3 61//3 258//3
f 258//3 61//3 259//3
f 61//3 62//3 259//3
f 259//3 62//3 260//3
f 62//3 63//3 260//3
f 260//3 63//3 261//3
f 63//3 64//3 261//3
f 261//3 64//3 262//3
f 262//3 64//3 263//3
f 64//3 65//3 263//3
f 263//3 65//3 264//3
f 264//3 65//3 265//3
f 65//3 67//3 265//3
f 265//3 67//3 251//3
f 251//3 67//3 252//3
f 67//3 68//3 252//3
f 252//3 68//3 266//3
f 68//3 267//3 266//3
f 266//3 267//3 268//3
f 267//3 269//3 268//3
f 270//3 268//3 269//3
f 271//81 272//82 273//83
f 272//82 271//81 274//84
f 275//85 276//86 277//87
f 278//88 277//87 276//86
f 279//89 271//81 273//83
f 271//81 279//89 280//90
f 281//91 282//92 276//86
f 278//88 276//86 282//92
f 283//93 279//89 284//94
f 279//89 283//93 280//90
f 281//91 285//95 282//92
f 286//96 282//92 285//95
f 287//97 284//94 288//98
f 284//94 287//97 283//93
f 285//95 289//99 286//96
f 290//100 286//96 289//99
f 291//101 288//98 292//101
f 288//98 291//101 287//97
f 289//99 293//102 290//100
f 294//102 290//100 293//102
f 295//103 291//101 292//101
f 291//101 295//103 296//104
f 297//105 298//106 293//102
f 294//102 293//102 298//106
f 299//107 295//103 300//108
f 295//103 299//107 296//104
f 297//105 301//109 298//106
f 302//110 298//106 301//109
f 303//111 300//108 304//112
f 300//108 303//111 299//107
f 301//109 305//113 302//110
f 306//114 302//110 305//113
f 307//115 304//112 308//116
f 304//112 307//115 303//111
f 305//113 309//117 306//114
f 310//118 306//114 309//117
f 311//119 143//63 141//61
f 143//63 311//119 312//120
f 313//121 314//122 144//64
f 145//65 144//64 314//122
f 149//68 315//123 316//123
f 315//123 149//68 148//68
f 153//70 154//70 317//124
f 318//124 317//124 154//70
f 319//125 165//73 320//126
f 165//73 319//125 163//71
f 166//74 321//127 168//76
f 322//128 168//76 321//127
f 272//82 323//129 324//130
f 323//129 272//82 274//84
f 275//85 277//87 325//131
f 326//132 325//131 277//87
f 171//78 327//133 328//133
f 327//133 171//78 170//78
f 175//80 176//80 329//134
f 330//134 329//134 176//80
f 331//135 332//136 333//136
f 332//136 331//135 334//135
f 335//137 336//137 337//138
f 338//138 337//138 336//137
f 332//136 339//139 333//136
f 339//139 332//136 340//139
f 341//140 337//138 342//140
f 338//138 342//140 337//138
f 340//139 343//141 339//139
f 343//141 340//139 344//141
f 345//142 341//140 346//142
f 342//140 346//142 341//140
f 344//141 347//30 343//141
f 347//30 344//141 348//30
f 349//29 345//142 350//29
f 346//142 350//29 345//142
f 348//30 351//143 347//30
f 351//143 348//30 352//143
f 353//144 349//29 354//144
f 350//29 354//144 349//29
f 352//143 355//42 351//143
f 355//42 352//143 356//42
f 357//41 353//144 358//41
f 354//144 358//41 353//144
f 356//42 359//145 355//42
f 359//145 356//42 360//145
f 361//146 357//41 362//146
f 358//41 362//146 357//41
f 360//145 363//147 359//145
f 363//147 360//145 364//147
f 365//148 361//146 366//148
f 362//146 366//148 361//146
f 364//147 367//149 363//147
f 367//149 364//147 368//149
f 369//150 365//148 370//150
f 366//148 370//150 365//148
f 371//151 367//149 368//149
f 367//149 371//151 372//151
f 373//152 374//152 370//150
f 369//150 370//150 374//152
f 375//124 372//151 371//151
f 372//151 375//124 376//124
f 377//123 378//123 373//152
f 374//152 373//152 378//123
f 379//153 376//124 375//124
f 376//124 379//153 380//153
f 381//154 382//154 377//123
f 378//123 377//123 382//154
f 328//133 380//153 379//153
f 380//153 328//133 327//133
f 329//134 330//134 381//154
f 382//154 381//154 330//134
f 316//123 383//155 384//155
f 383//155 316//123 315//123
f 317//124 318//124 385//156
f 386//156 385//156 318//124
f 384//155 387//134 388//134
f 387//134 384//155 383//155
f 385//156 386//156 389//133
f 390//133 389//133 386//156
f 388//134 334//135 331//135
f 334//135 388//134 387//134
f 389//133 390//133 335//137
f 336//137 335//137 390//133
f 391//157 308//116 392//158
f 308//116 391//157 307//115
f 309//117 393//159 310//118
f 394//160 310//118 393//159
f 395//161 312//120 311//119
f 312//120 395//161 396//162
f 397//163 398//164 313//121
f 314//122 313//121 398//164
f 399//165 320//126 400//166
f 320//126 399//165 319//125
f 321//127 401//167 322//128
f 402//168 322//128 401//167
f 324//130 403//169 404//170
f 403//169 324//130 323//129
f 325//131 326//132 405//171
f 406//172 405//171 326//132
f 407//173 408//174 409//175
f 408//174 407//173 410//176
f 411//177 412//178 413//179
f 414//180 413//179 412//178
f 415//181 409//175 416//182
f 409//175 415//181 407//173
f 412//178 417//183 414//180
f 418//184 414//180 417//183
f 419//185 416//182 420//186
f 416//182 419//185 415//181
f 417//183 421//187 418//184
f 422//188 418//184 421//187
f 423//189 420//186 424//190
f 420//186 423//189 419//185
f 421//187 425//191 422//188
f 426//192 422//188 425//191
f 423//189 427//193 428//194
f 427//193 423//189 424//190
f 426//192 425//191 429//195
f 430//196 429//195 425//191
f 428//194 431//197 432//198
f 431//197 428//194 427//193
f 429//195 430//196 433//199
f 434//200 433//199 430//196
f 432//198 435//201 436//202
f 435//201 432//198 431//197
f 433//199 434//200 437//203
f 438//204 437//203 434//200
f 436//202 439//205 440//206
f 439//205 436//202 435//201
f 437//203 438//204 441//207
f 442//208 441//207 438//204
f 440//206 443//209 444//210
f 443//209 440//206 439//205
f 441//207 442//208 445//211
f 446//212 445//211 442//208
f 444//210 447//213 448//214
f 447//213 444//210 443//209
f 445//211 446//212 449//215
f 450//216 449//215 446//212
f 448//214 451//217 452//218
f 451//217 448//214 447//213
f 449//215 450//216 453//219
f 454//220 453//219 450//216
f 452//218 399//165 400//166
f 399//165 452//218 451//217
f 453//219 454//220 401//167
f 402//168 401//167 454//220
f 455//221 395//161 456//222
f 395//161 455//221 396//162
f 397//163 457//223 398//164
f 458//224 398//164 457//223
f 410//176 456//222 408//174
f 456//222 410//176 455//221
f 457//223 411//177 458//224
f 413//179 458//224 411//177
f 391//157 459//225 460//226
f 459//225 391//157 392//158
f 394//160 393//159 461//227
f 462//228 461//227 393//159
f 404//170 463//229 464//230
f 463//229 404//170 403//169
f 405//171 406//172 465//231
f 466//232 465//231 406//172
f 467//233 468//234 469//235
f 468//234 467//233 470//236
f 471//237 472//238 473//239
f 474//240 473//239 472//238
f 469//235 475//241 476//242
f 475//241 469//235 468//234
f 473//239 474//240 477//243
f 478//244 477//243 474//240
f 479//245 475//241 480//246
f 475//241 479//245 476//242
f 478//244 481//247 477//243
f 482//248 477//243 481//247
f 483//249 480//246 484//250
f 480//246 483//249 479//245
f 481//247 485//251 482//248
f 486//252 482//248 485//251
f 487//253 483//249 484//250
f 483//249 487//253 488//254
f 489//255 490//256 485//251
f 486//252 485//251 490//256
f 491//257 487//253 492//258
f 487//253 491//257 488//254
f 489//255 493//259 490//256
f 494//260 490//256 493//259
f 495//261 492//258 496//262
f 492//258 495//261 491//257
f 493//259 497//263 494//260
f 498//264 494//260 497//263
f 499//265 496//262 500//266
f 496//262 499//265 495//261
f 497//263 501//267 498//264
f 502//268 498//264 501//267
f 500//266 503//269 499//265
f 503//269 500//266 504//270
f 505//271 502//268 506//272
f 501//267 506//272 502//268
f 504//270 507//273 503//269
f 507//273 504//270 508//274
f 509//275 505//271 510//276
f 506//272 510//276 505//271
f 508//274 511//277 507//273
f 511//277 508//274 512//277
f 513//278 509//275 514//278
f 510//276 514//278 509//275
f 512//277 463//229 511//277
f 463//229 512//277 464//230
f 466//232 513//278 465//231
f 514//278 465//231 513//278
f 460//226 515//279 516//280
f 515//279 460//226 459//225
f 461//227 462//228 517//281
f 518//282 517//281 462//228
f 516//280 470//236 467//233
f 470//236 516//280 515//279
f 517//281 518//282 471//237
f 472//238 471//237 518//282
