# SSTK version 0.8.0
# 9
mtllib original-9.mtl
o group_4/ID56#ID56
v -0.01311220 0.49395681 0.03589514
v -0.02368002 -0.35775161 0.05431594
v -0.02365924 0.49396451 0.05432466
v -0.01313006 -0.35776500 0.03586704
v -0.01310700 -0.35777296 0.03601426
v -0.01303426 0.49405372 0.03598848
v -0.02367288 -0.35770585 0.05447130
v -0.02368320 0.49399283 0.05444760
v -0.02366774 0.49391850 0.05431765
v -0.01309426 -0.35771933 0.07279989
v -0.01305572 0.49405483 0.07278842
v -0.02360250 -0.35765045 0.05444436
v -0.02376951 -0.35769513 0.05431139
v -0.02366628 0.49404917 0.05444242
v -0.01310216 -0.35778111 0.07274396
v -0.01304797 0.49410840 0.07276862
v -0.01295655 0.49405214 0.03590980
v 0.00826054 -0.35777626 0.03593744
v -0.01297393 -0.35783289 0.03596748
v 0.00828894 0.49392430 0.03594909
v 0.00824155 0.49391720 0.03596439
v -0.01308516 0.49391801 0.03593668
v 0.00833845 -0.35774422 0.03592699
v -0.01304025 -0.35773906 0.03589484
v 0.00825033 0.49409833 0.07276024
v -0.01308547 -0.35770473 0.07281955
v 0.00829869 -0.35767316 0.07286977
v -0.01297704 0.49392856 0.07288727
v -0.01309946 0.49397381 0.07289011
v 0.00817250 0.49392532 0.07293690
v -0.01301610 -0.35783485 0.07278244
v 0.00835822 -0.35775445 0.07288382
v 0.00818693 -0.35773138 0.03603459
v 0.01883600 0.49396178 0.05439677
v 0.01893632 -0.35768784 0.05448266
v 0.00835677 0.49401819 0.03595632
v 0.00832947 0.49406813 0.03594597
v 0.00835163 -0.35767286 0.03598867
v 0.01888001 0.49407066 0.05432812
v 0.01888808 -0.35781451 0.05446610
v 0.01881214 -0.35774713 0.05438092
v 0.00832279 0.49397115 0.07286088
v 0.00820343 -0.35776695 0.07280714
v 0.01892407 0.49409667 0.05431952
v 0.01886003 0.49409425 0.05443478
v 0.01896185 -0.35768537 0.05441028
v 0.00817891 0.49398939 0.07289664
v 0.00817864 -0.35774933 0.07287009
vn -0.8660187048132237 0 -0.500011602779002
vn 0.8660187048132237 0 0.500011602779002
vn -0.8660187048132237 0 0.500011602779002
vn 0.8660187048132237 0 -0.500011602779002
vn 0 0 -1
vn 0 0 1
usemtl material_0_0
f 1//1 2//1 3//1
f 2//1 1//1 4//1
f 5//2 6//2 7//2
f 8//2 7//2 6//2
f 9//3 10//3 11//3
f 10//3 9//3 12//3
f 13//4 14//4 15//4
f 16//4 15//4 14//4
f 17//5 18//5 19//5
f 18//5 17//5 20//5
f 21//6 22//6 23//6
f 24//6 23//6 22//6
f 25//6 26//6 27//6
f 26//6 25//6 28//6
f 29//5 30//5 31//5
f 32//5 31//5 30//5
f 33//4 34//4 35//4
f 34//4 33//4 36//4
f 37//3 38//3 39//3
f 40//3 39//3 38//3
f 41//2 42//2 43//2
f 42//2 41//2 44//2
f 45//1 46//1 47//1
f 48//1 47//1 46//1
