# SSTK version 0.8.0
# 4
mtllib original-4.mtl
o #ID21
v -0.02368159 0.89393054 0.41884367
v -0.01299901 0.86822357 0.44721537
v -0.02366646 0.88249911 0.46801344
v -0.01294554 0.87589571 0.41494007
v -0.01296208 0.87583343 0.41497925
v -0.02370891 0.89378308 0.41881948
v -0.01294590 0.86834329 0.44708867
v -0.02364238 0.88231087 0.46796131
v -0.01311066 0.91198815 0.42247625
v -0.02359713 0.88233428 0.46797213
v -0.01305208 0.89651706 0.48866422
v -0.02369831 0.89382165 0.41870999
v -0.02368829 0.89379749 0.41874400
v -0.01303001 0.91191514 0.42245361
v -0.02359034 0.88236765 0.46785315
v -0.01304580 0.89641515 0.48879089
v -0.02365832 0.90577932 0.35438510
v -0.01297900 0.88763570 0.35146998
v -0.01302169 0.88749528 0.35154330
v -0.02363988 0.90574837 0.35438937
v 0.00818366 0.87580970 0.41505703
v -0.01298360 0.86826851 0.44713635
v -0.01308447 0.87589318 0.41495046
v 0.00831266 0.86829636 0.44719510
v 0.00835141 0.86837650 0.44712592
v 0.00832154 0.87587978 0.41508896
v -0.01300949 0.86834019 0.44719283
v -0.01296108 0.87570804 0.41499541
v -0.01312726 0.89647086 0.48869101
v -0.02364196 0.88240500 0.46799541
v 0.00829939 0.89650284 0.48876716
v 0.01899051 0.88241927 0.46793893
v 0.01891886 0.88249015 0.46792167
v 0.00826376 0.89641346 0.48864036
v -0.01296007 0.89639626 0.48879443
v -0.02361291 0.88236741 0.46795091
v 0.00829883 0.89651955 0.48864402
v -0.01298635 0.91185935 0.42258076
v -0.01299416 0.89658047 0.48878046
v 0.00818816 0.91188786 0.42255579
v 0.00824674 0.91184987 0.42259463
v 0.00816581 0.89645324 0.48863688
v -0.01312217 0.91182785 0.42253230
v -0.01296582 0.89643468 0.48868967
v -0.01300810 0.92398116 0.35725431
v -0.02363911 0.90575784 0.35440520
v -0.02365229 0.90570152 0.35442097
v -0.01296321 0.92393892 0.35722548
v -0.02373729 0.91420284 0.29138064
v -0.01297192 0.89586523 0.28937917
v -0.01304226 0.89588307 0.28938386
v -0.02363546 0.91439081 0.29141767
v 0.00827657 0.88753799 0.35139060
v -0.01297954 0.88765401 0.35137735
v 0.00832378 0.88763953 0.35155889
v -0.01306134 0.88766003 0.35151864
v 0.00823024 0.86831261 0.44709818
v 0.01884143 0.89384897 0.41887271
v 0.01899677 0.88231277 0.46793287
v 0.00822323 0.87570422 0.41491990
v 0.00831138 0.87580792 0.41498724
v 0.00818382 0.86832669 0.44719445
v 0.01881442 0.89377110 0.41884512
v 0.01899372 0.88247087 0.46794221
v 0.01895938 0.88247692 0.46784917
v 0.00819197 0.91199943 0.42257108
v 0.00828299 0.89640981 0.48875904
v 0.01896522 0.89377225 0.41872512
v 0.01895219 0.89385321 0.41875076
v 0.01896641 0.88240166 0.46789177
v 0.00825506 0.91190768 0.42247785
v 0.00835529 0.89650477 0.48873406
v -0.01299788 0.92394336 0.35727752
v 0.00818913 0.92399671 0.35721315
v 0.00820718 0.92400877 0.35726311
v -0.01310840 0.92390005 0.35730802
v -0.01302789 0.93262122 0.29330425
v -0.02365856 0.91420911 0.29130976
v -0.02369761 0.91420950 0.29140974
v -0.01310377 0.93267304 0.29336788
v -0.02374566 0.91940285 0.22968847
v -0.01296679 0.90101417 0.22866202
v -0.01312141 0.90103841 0.22872063
v -0.02377360 0.91947780 0.22961585
v 0.00819790 0.89600133 0.28943656
v -0.01294922 0.89595843 0.28938297
v 0.00835193 0.89605015 0.28939277
v -0.01302110 0.89592633 0.28939603
v 0.01899559 0.90576782 0.35431001
v 0.00832116 0.88755460 0.35141722
v 0.00832804 0.88752734 0.35139348
v 0.01881890 0.90580442 0.35442183
v 0.00822355 0.92403460 0.35733963
v 0.01897981 0.90585084 0.35434770
v 0.01884510 0.90586972 0.35445737
v 0.00825791 0.92392481 0.35724460
v -0.01294529 0.93256356 0.29331930
v 0.00824353 0.93267022 0.29340574
v 0.00819348 0.93267702 0.29334227
v -0.01308103 0.93260772 0.29339617
v -0.01312449 0.93778090 0.23064543
v -0.02363646 0.91942521 0.22972474
v -0.02374551 0.91945459 0.22964565
v -0.01303567 0.93784369 0.23079970
v -0.02359678 0.92117284 0.16932018
v -0.01298170 0.90276912 0.16893110
v -0.01294327 0.90276031 0.16881336
v -0.02363792 0.92106349 0.16938488
v 0.00817161 0.90098502 0.22866135
v -0.01310156 0.90101956 0.22875433
v 0.00819783 0.90108139 0.22873321
v -0.01299735 0.90096660 0.22864122
v 0.01899351 0.91430823 0.29145112
v 0.00817218 0.89602697 0.28939785
v 0.00820616 0.89597228 0.28940083
v 0.01885912 0.91435167 0.29137895
v 0.00829796 0.93264581 0.29338933
v 0.01900788 0.91436278 0.29128459
v 0.01896190 0.91436125 0.29133110
v 0.00816558 0.93257333 0.29326693
v -0.01300298 0.93781441 0.23075206
v 0.00826250 0.93786616 0.23066651
v 0.00830554 0.93789380 0.23065303
v -0.01309931 0.93774133 0.23078724
v -0.01298010 0.93963174 0.16991799
v -0.02364784 0.92121140 0.16930271
v -0.02364647 0.92106517 0.16935040
v -0.01309377 0.93951563 0.16996250
v 0.00836038 0.90268084 0.16891261
v -0.01303270 0.90268267 0.16892670
v 0.00835458 0.90264567 0.16880701
v -0.01295735 0.90270385 0.16891825
v 0.01882783 0.91932619 0.22962961
v 0.00833613 0.90100848 0.22859251
v 0.00819002 0.90109458 0.22862177
v 0.01896464 0.91931921 0.22973193
v 0.00835507 0.93792991 0.23075784
v 0.01882190 0.91937254 0.22963606
v 0.01890851 0.91945286 0.22972108
v 0.00818497 0.93783621 0.23066228
v -0.01300410 0.93962323 0.16983251
v 0.00823487 0.93954799 0.16988073
v 0.00830434 0.93958399 0.16982468
v -0.01311156 0.93963882 0.16989341
v 0.01881052 0.92103922 0.16942452
v 0.00835390 0.90259532 0.16883891
v 0.00820439 0.90263703 0.16885879
v 0.01897045 0.92114613 0.16941147
v 0.00820086 0.93958916 0.16980434
v 0.01896996 0.92119887 0.16945439
v 0.01896804 0.92120784 0.16946836
v 0.00835660 0.93953842 0.16984763
vn -0.8660924655261687 -0.48931178052349783 -0.10226349592951728
vn -0.8660564523327997 -0.4869039732011127 -0.1134492937558226
vn -0.8660924724771623 -0.4893116844505679 -0.10226389675024015
vn 0.8660924724771623 0.4893116844505679 0.10226389675024015
vn 0.8660924655261687 0.48931178052349783 0.10226349592951728
vn 0.8660564523327997 0.4869039732011127 0.1134492937558226
vn -0.865982503989222 0.489494702254899 0.10231930047134268
vn -0.8658935973802173 0.487169998526055 0.11355029965645086
vn -0.8659825059030867 0.4894948033367074 0.10231880069747003
vn 0.8659825059030867 -0.4894948033367074 -0.10231880069747003
vn 0.865982503989222 -0.489494702254899 -0.10231930047134268
vn 0.8658935973802173 -0.487169998526055 -0.11355029965645086
vn -0.8660748742475753 -0.49363028532208114 -0.07901552765050184
vn -0.8660748572793742 -0.4936310756508016 -0.07901077610265825
vn 0.8660748572793742 0.4936310756508016 0.07901077610265825
vn 0.8660748742475753 0.49363028532208114 0.07901552765050184
vn 0 -0.9788421973099459 -0.2046165994376729
vn 0 -0.9729880715640495 0.23085539325316212
vn 0 0.9729880715640495 -0.23085539325316212
vn 0 0.9788421973099459 0.2046165994376729
vn 0 -0.8276391244314232 0.561260616568085
vn 0 0.8276391244314232 -0.561260616568085
vn 0 0.9738833611484968 0.22704889094225159
vn 0 0.9788371164986814 0.20464090344930247
vn 0 -0.9788371164986814 -0.20464090344930247
vn 0 -0.9738833611484968 -0.22704889094225159
vn -0.8660432834889747 0.49368279058798886 0.0790337484932299
vn -0.8660432540075031 0.49368257378226316 0.07903542580270795
vn 0.8660432540075031 -0.49368257378226316 -0.07903542580270795
vn 0.8660432834889747 -0.49368279058798886 -0.0790337484932299
vn -0.8660735173545187 -0.4969764099584922 -0.054139731084860636
vn -0.8660735288921126 -0.4969767165790857 -0.054136731805995215
vn 0.8660735288921126 0.4969767165790857 0.054136731805995215
vn 0.8660735173545187 0.4969764099584922 0.054139731084860636
vn 0 -0.9874299744451102 -0.15805709590945025
vn 0 0.9874299744451102 0.15805709590945025
vn 0.8660564523327997 -0.4869039732011127 -0.1134492937558226
vn 0.8660924655261687 -0.48931178052349783 -0.10226349592951728
vn 0.8660924724771623 -0.4893116844505679 -0.10226389675024015
vn -0.8660924724771623 0.4893116844505679 0.10226389675024015
vn -0.8660564523327997 0.4869039732011127 0.1134492937558226
vn -0.8660924655261687 0.48931178052349783 0.10226349592951728
vn 0.8658935973802173 0.487169998526055 0.11355029965645086
vn 0.865982503989222 0.489494702254899 0.10231930047134268
vn 0.8659825059030867 0.4894948033367074 0.10231880069747003
vn -0.8659825059030867 -0.4894948033367074 -0.10231880069747003
vn -0.8658935973802173 -0.487169998526055 -0.11355029965645086
vn -0.865982503989222 -0.489494702254899 -0.10231930047134268
vn 0 0.9874224506569906 0.15810409209929704
vn 0 -0.9874224506569906 -0.15810409209929704
vn -0.8660959999510657 0.49693599997192317 0.054150999996940584
vn -0.8660959937076764 0.4969362963896797 0.054148379606603625
vn 0.8660959937076764 -0.4969362963896797 -0.054148379606603625
vn 0.8660959999510657 -0.49693599997192317 -0.054150999996940584
vn -0.8660731772665281 -0.4991483868979018 -0.02771532927250309
vn -0.8660731691052873 -0.4991483821942921 -0.027715669011321945
vn 0.8660731691052873 0.4991483821942921 0.027715669011321945
vn 0.8660731772665281 0.4991483868979018 0.02771532927250309
vn 0 -0.9941183668861363 -0.10829899639258453
vn 0 0.9941183668861363 0.10829899639258453
vn 0.8660748742475753 -0.49363028532208114 -0.07901552765050184
vn 0.8660748572793742 -0.4936310756508016 -0.07901077610265825
vn -0.8660748572793742 0.4936310756508016 0.07901077610265825
vn -0.8660748742475753 0.49363028532208114 0.07901552765050184
vn 0.8660432834889747 0.49368279058798886 0.0790337484932299
vn 0.8660432540075031 0.49368257378226316 0.07903542580270795
vn -0.8660432540075031 -0.49368257378226316 -0.07903542580270795
vn -0.8660432834889747 -0.49368279058798886 -0.0790337484932299
vn 0 0.9941120792224115 0.10835669773527482
vn 0 -0.9941120792224115 -0.10835669773527482
vn -0.8661229952408003 0.4990625972577353 0.027703449847774328
vn -0.8661230264683508 0.499062515251138 0.027703950846621053
vn 0.8661230264683508 -0.499062515251138 -0.027703950846621053
vn 0.8661229952408003 -0.4990625972577353 -0.027703449847774328
vn -0.8659878945110809 -0.4998658968316838 -0.014108569910575307
vn 0.8659878945110809 0.4998658968316838 0.014108569910575307
vn 0 -0.9984616062428754 -0.05544746034668515
vn 0 0.9984616062428754 0.05544746034668515
vn 0.8660735173545187 -0.4969764099584922 -0.054139731084860636
vn 0.8660735288921126 -0.4969767165790857 -0.054136731805995215
vn -0.8660735288921126 0.4969767165790857 0.054136731805995215
vn -0.8660735173545187 0.4969764099584922 0.054139731084860636
vn 0.8660959999510657 0.49693599997192317 0.054150999996940584
vn 0.8660959937076764 0.4969362963896797 0.054148379606603625
vn -0.8660959937076764 -0.4969362963896797 -0.054148379606603625
vn -0.8660959999510657 -0.49693599997192317 -0.054150999996940584
vn 0 0.9984631935567587 0.055418869642373476
vn 0 -0.9984631935567587 -0.055418869642373476
vn -0.8660377029191108 0.4997800016845839 0.014094220047506805
vn 0.8660377029191108 -0.4997800016845839 -0.014094220047506805
vn 0 -0.9996025593228411 -0.02819083885282106
vn 0 0.9996025593228411 0.02819083885282106
vn 0.8660731772665281 -0.4991483868979018 -0.02771532927250309
vn 0.8660731691052873 -0.4991483821942921 -0.027715669011321945
vn -0.8660731691052873 0.4991483821942921 0.027715669011321945
vn -0.8660731772665281 0.4991483868979018 0.02771532927250309
vn 0.8661229952408003 0.4990625972577353 0.027703449847774328
vn 0.8661230264683508 0.499062515251138 0.027703950846621053
vn -0.8661230264683508 -0.499062515251138 -0.027703950846621053
vn -0.8661229952408003 -0.4990625972577353 -0.027703449847774328
vn 0 0.9996038704714091 0.02814430916860909
vn 0 -0.9996038704714091 -0.02814430916860909
vn 0.8659878945110809 -0.4998658968316838 -0.014108569910575307
vn -0.8659878945110809 0.4998658968316838 0.014108569910575307
vn 0.8660377029191108 0.4997800016845839 0.014094220047506805
vn -0.8660377029191108 -0.4997800016845839 -0.014094220047506805
usemtl material_0_0
f 1//1 2//2 3//2
f 2//2 1//1 4//3
f 5//4 6//5 7//6
f 8//6 7//6 6//5
f 9//7 10//8 11//8
f 10//8 9//7 12//9
f 13//10 14//11 15//12
f 16//12 15//12 14//11
f 17//13 4//3 1//1
f 4//3 17//13 18//14
f 19//15 20//16 5//4
f 6//5 5//4 20//16
f 21//17 22//18 23//17
f 22//18 21//17 24//18
f 25//19 26//20 27//19
f 28//20 27//19 26//20
f 22//18 29//21 30//21
f 29//21 22//18 24//18
f 29//21 24//18 31//21
f 31//21 24//18 32//21
f 33//22 25//19 34//22
f 34//22 25//19 35//22
f 25//19 27//19 35//22
f 36//22 35//22 27//19
f 37//23 38//24 39//23
f 38//24 37//23 40//24
f 41//25 42//26 43//25
f 44//26 43//25 42//26
f 45//27 12//9 9//7
f 12//9 45//27 46//28
f 47//29 48//30 13//10
f 14//11 13//10 48//30
f 49//31 18//14 17//13
f 18//14 49//31 50//32
f 51//33 52//34 19//15
f 20//16 19//15 52//34
f 53//35 23//17 54//35
f 23//17 53//35 21//17
f 26//20 55//36 28//20
f 56//36 28//20 55//36
f 57//37 58//38 59//37
f 58//38 57//37 60//39
f 61//40 62//41 63//42
f 64//41 63//42 62//41
f 65//43 66//44 67//43
f 66//44 65//43 68//45
f 69//46 70//47 71//48
f 72//47 71//48 70//47
f 40//24 73//49 38//24
f 73//49 40//24 74//49
f 75//50 41//25 76//50
f 43//25 76//50 41//25
f 77//51 46//28 45//27
f 46//28 77//51 78//52
f 79//53 80//54 47//29
f 48//30 47//29 80//54
f 81//55 50//32 49//31
f 50//32 81//55 82//56
f 83//57 84//58 51//33
f 52//34 51//33 84//58
f 85//59 54//35 86//59
f 54//35 85//59 53//35
f 55//36 87//60 56//36
f 88//60 56//36 87//60
f 60//39 89//61 58//38
f 89//61 60//39 90//62
f 91//63 61//40 92//64
f 63//42 92//64 61//40
f 68//45 93//65 66//44
f 93//65 68//45 94//66
f 95//67 69//46 96//68
f 71//48 96//68 69//46
f 74//49 97//69 73//49
f 97//69 74//49 98//69
f 99//70 75//50 100//70
f 76//50 100//70 75//50
f 101//71 78//52 77//51
f 78//52 101//71 102//72
f 103//73 104//74 79//53
f 80//54 79//53 104//74
f 105//75 82//56 81//55
f 82//56 105//75 106//75
f 107//76 108//76 83//57
f 84//58 83//57 108//76
f 109//77 86//59 110//77
f 86//59 109//77 85//59
f 87//60 111//78 88//60
f 112//78 88//60 111//78
f 90//62 113//79 89//61
f 113//79 90//62 114//80
f 115//81 91//63 116//82
f 92//64 116//82 91//63
f 94//66 117//83 93//65
f 117//83 94//66 118//84
f 119//85 95//67 120//86
f 96//68 120//86 95//67
f 98//69 121//87 97//69
f 121//87 98//69 122//87
f 123//88 99//70 124//88
f 100//70 124//88 99//70
f 125//89 102//72 101//71
f 102//72 125//89 126//89
f 127//90 128//90 103//73
f 104//74 103//73 128//90
f 129//91 110//77 130//91
f 110//77 129//91 109//77
f 111//78 131//92 112//78
f 132//92 112//78 131//92
f 114//80 133//93 113//79
f 133//93 114//80 134//94
f 135//95 115//81 136//96
f 116//82 136//96 115//81
f 118//84 137//97 117//83
f 137//97 118//84 138//98
f 139//99 119//85 140//100
f 120//86 140//100 119//85
f 122//87 141//101 121//87
f 141//101 122//87 142//101
f 143//102 123//88 144//102
f 124//88 144//102 123//88
f 134//94 145//103 133//93
f 145//103 134//94 146//103
f 147//104 135//95 148//104
f 136//96 148//104 135//95
f 138//98 149//105 137//97
f 149//105 138//98 150//105
f 151//106 139//99 152//106
f 140//100 152//106 139//99
