# SSTK version 0.8.0
# 14
mtllib original-14.mtl
o #ID77
v 0.01301517 0.91598979 0.41481900
v 0.01273596 0.91038018 0.41341736
v 0.01328264 0.91310611 0.41417020
v 0.01242032 0.91881900 0.41532721
v 0.01175521 0.90767663 0.41294002
v 0.01165493 0.91316880 0.41414629
v 0.01162879 0.91583497 0.41464189
v 0.01099119 0.92144156 0.41606026
v 0.01090376 0.91839457 0.41519043
v 0.00909009 0.92372034 0.41647860
v 0.00973884 0.92054582 0.41586414
v 0.00796264 0.92273678 0.41618364
v 0.00680540 0.92568336 0.41699130
v 0.00609802 0.92433434 0.41655234
v 0.00426561 0.92698490 0.41712690
v 0.00369149 0.92537563 0.41689013
v 0.00136239 0.92760510 0.41730510
v 0.00110720 0.92616805 0.41698556
v -0.00152996 0.92792939 0.41745528
v -0.00153979 0.92635829 0.41697977
v -0.00412242 0.92595136 0.41697545
v -0.00458042 0.92746112 0.41736253
v -0.00652423 0.92501020 0.41672652
v -0.00727995 0.92642943 0.41709138
v -0.00885829 0.92369269 0.41648087
v -0.00983509 0.92485940 0.41659218
v -0.01069823 0.92185001 0.41588171
v -0.01181753 0.92288206 0.41610709
v -0.01203452 0.91973497 0.41554440
v -0.01349726 0.92046895 0.41555902
v -0.01298362 0.91734929 0.41495679
v -0.01343578 0.91470118 0.41426904
v 0.01114468 0.91081149 0.41357234
v 0.01011066 0.90508094 0.41234649
v 0.01026021 0.90822403 0.41304986
v 0.00887508 0.90623812 0.41243340
v 0.00800328 0.90312313 0.41177797
v 0.00686272 0.90429089 0.41210606
v 0.00550261 0.90152229 0.41152703
v 0.00478506 0.90307144 0.41185114
v 0.00257507 0.90065113 0.41129502
v 0.00232531 0.90208859 0.41154843
v -0.00021733 0.90021610 0.41108054
v -0.00037542 0.90168149 0.41140172
v -0.00321264 0.90036483 0.41106446
v -0.00300354 0.90188991 0.41147048
v -0.00547984 0.90258722 0.41154940
v -0.00618759 0.90109431 0.41117326
v -0.00780147 0.90366607 0.41176979
v -0.00885580 0.90236578 0.41152742
v -0.01000252 0.90545826 0.41222233
v -0.01100709 0.90419862 0.41194879
v -0.01161471 0.90743112 0.41267731
v -0.01295081 0.90651806 0.41253265
v -0.01278462 0.90978960 0.41317388
v -0.01332453 0.91227258 0.41373016
v -0.01424969 0.90908415 0.41302087
v -0.01452567 0.91776562 0.41508683
v -0.01488477 0.91188030 0.41371622
v -0.01505853 0.91488077 0.41437202
v -0.01507941 0.91484337 0.41429281
v -0.01466480 0.91762709 0.41503437
v -0.01491428 0.91201568 0.41369005
v -0.01431431 0.90908936 0.41304082
v -0.01349381 0.92038503 0.41572432
v -0.01341995 0.91475802 0.41440762
v -0.01330169 0.91219310 0.41376291
v -0.01282791 0.90646322 0.41250040
v -0.01281829 0.90973535 0.41325023
v -0.01148829 0.90734741 0.41267456
v -0.01105622 0.90437106 0.41188430
v -0.00993077 0.90540835 0.41226143
v -0.00875341 0.90237325 0.41155998
v -0.00785281 0.90371128 0.41178759
v -0.00611288 0.90099997 0.41132817
v -0.00545205 0.90249438 0.41156265
v -0.00335755 0.90029588 0.41117171
v -0.00292730 0.90191151 0.41137047
v -0.00027363 0.90177192 0.41149764
v -0.00028871 0.90005094 0.41105342
v 0.00230040 0.90205972 0.41147862
v 0.00256568 0.90051142 0.41119915
v 0.00475787 0.90299091 0.41167687
v 0.00536330 0.90166085 0.41154000
v 0.00699634 0.90445492 0.41206869
v 0.00789564 0.90307924 0.41181650
v 0.00887252 0.90623204 0.41242765
v 0.01008970 0.90517682 0.41230874
v 0.01027066 0.90824612 0.41306506
v 0.01128465 0.91064492 0.41363446
v 0.01171129 0.91329388 0.41421785
v 0.01158949 0.90767473 0.41279865
v -0.01305913 0.91731546 0.41490720
v -0.01219523 0.91964731 0.41545896
v -0.01195274 0.92291850 0.41617009
v -0.01070558 0.92186901 0.41590375
v -0.00972851 0.92493265 0.41671115
v -0.00876270 0.92363478 0.41643772
v -0.00725415 0.92650050 0.41710398
v -0.00664677 0.92495106 0.41680731
v -0.00458666 0.92736571 0.41719324
v -0.00405995 0.92584622 0.41690648
v -0.00148572 0.92791757 0.41747448
v -0.00156683 0.92624218 0.41704241
v 0.00110474 0.92619929 0.41709204
v 0.00136542 0.92769249 0.41743152
v 0.00366964 0.92549614 0.41683650
v 0.00424851 0.92684096 0.41719665
v 0.00600032 0.92436369 0.41651230
v 0.00685306 0.92566799 0.41691755
v 0.00799306 0.92274041 0.41618790
v 0.00922014 0.92364816 0.41644766
v 0.00971035 0.92066617 0.41582905
v 0.01089784 0.91835608 0.41536053
v 0.01097635 0.92142332 0.41595672
v 0.01154155 0.91575779 0.41476302
v 0.01228984 0.91895092 0.41538548
v 0.01279123 0.91027931 0.41336366
v 0.01315989 0.91615743 0.41468956
v 0.01324452 0.91315328 0.41405261
vn -0.005105594237811104 -0.2217860973698855 0.9750819760004359
vn 0.005105594237811104 0.2217860973698855 -0.9750819760004359
usemtl material_0_0
f 1//1 2//1 3//1
f 2//1 1//1 4//1
f 2//1 4//1 5//1
f 5//1 4//1 6//1
f 6//1 4//1 7//1
f 7//1 4//1 8//1
f 7//1 8//1 9//1
f 9//1 8//1 10//1
f 9//1 10//1 11//1
f 11//1 10//1 12//1
f 12//1 10//1 13//1
f 12//1 13//1 14//1
f 14//1 13//1 15//1
f 14//1 15//1 16//1
f 16//1 15//1 17//1
f 16//1 17//1 18//1
f 18//1 17//1 19//1
f 18//1 19//1 20//1
f 20//1 19//1 21//1
f 21//1 19//1 22//1
f 21//1 22//1 23//1
f 23//1 22//1 24//1
f 23//1 24//1 25//1
f 25//1 24//1 26//1
f 25//1 26//1 27//1
f 27//1 26//1 28//1
f 27//1 28//1 29//1
f 29//1 28//1 30//1
f 29//1 30//1 31//1
f 31//1 30//1 32//1
f 5//1 33//1 34//1
f 33//1 5//1 6//1
f 34//1 33//1 35//1
f 34//1 35//1 36//1
f 34//1 36//1 37//1
f 37//1 36//1 38//1
f 37//1 38//1 39//1
f 39//1 38//1 40//1
f 39//1 40//1 41//1
f 41//1 40//1 42//1
f 41//1 42//1 43//1
f 43//1 42//1 44//1
f 43//1 44//1 45//1
f 45//1 44//1 46//1
f 45//1 46//1 47//1
f 45//1 47//1 48//1
f 48//1 47//1 49//1
f 48//1 49//1 50//1
f 50//1 49//1 51//1
f 50//1 51//1 52//1
f 52//1 51//1 53//1
f 52//1 53//1 54//1
f 54//1 53//1 55//1
f 54//1 55//1 56//1
f 54//1 56//1 57//1
f 57//1 56//1 32//1
f 57//1 32//1 30//1
f 57//1 30//1 58//1
f 57//1 58//1 59//1
f 59//1 58//1 60//1
f 61//2 62//2 63//2
f 63//2 62//2 64//2
f 62//2 65//2 64//2
f 65//2 66//2 64//2
f 66//2 67//2 64//2
f 64//2 67//2 68//2
f 67//2 69//2 68//2
f 69//2 70//2 68//2
f 68//2 70//2 71//2
f 70//2 72//2 71//2
f 71//2 72//2 73//2
f 72//2 74//2 73//2
f 73//2 74//2 75//2
f 74//2 76//2 75//2
f 75//2 76//2 77//2
f 76//2 78//2 77//2
f 78//2 79//2 77//2
f 77//2 79//2 80//2
f 79//2 81//2 80//2
f 80//2 81//2 82//2
f 81//2 83//2 82//2
f 82//2 83//2 84//2
f 83//2 85//2 84//2
f 84//2 85//2 86//2
f 85//2 87//2 86//2
f 86//2 87//2 88//2
f 87//2 89//2 88//2
f 89//2 90//2 88//2
f 91//2 92//2 90//2
f 88//2 90//2 92//2
f 66//2 65//2 93//2
f 93//2 65//2 94//2
f 65//2 95//2 94//2
f 94//2 95//2 96//2
f 95//2 97//2 96//2
f 96//2 97//2 98//2
f 97//2 99//2 98//2
f 98//2 99//2 100//2
f 99//2 101//2 100//2
f 100//2 101//2 102//2
f 101//2 103//2 102//2
f 102//2 103//2 104//2
f 104//2 103//2 105//2
f 103//2 106//2 105//2
f 105//2 106//2 107//2
f 106//2 108//2 107//2
f 107//2 108//2 109//2
f 108//2 110//2 109//2
f 109//2 110//2 111//2
f 110//2 112//2 111//2
f 111//2 112//2 113//2
f 113//2 112//2 114//2
f 112//2 115//2 114//2
f 114//2 115//2 116//2
f 115//2 117//2 116//2
f 116//2 117//2 91//2
f 91//2 117//2 92//2
f 92//2 117//2 118//2
f 117//2 119//2 118//2
f 120//2 118//2 119//2
