# SSTK version 0.8.0
# 13
mtllib original-13.mtl
o #ID71
v 0.01357885 0.92931707 0.04944957
v 0.01317524 0.93254594 0.04954472
v 0.01358255 0.93506325 0.04947781
v 0.01191891 0.92681459 0.04949078
v 0.01217604 0.93002125 0.04941870
v 0.01061972 0.92787192 0.04939597
v 0.00987731 0.92468123 0.04940034
v 0.00887969 0.92604503 0.04932445
v 0.00732923 0.92314749 0.04931755
v 0.00665398 0.92449859 0.04947323
v 0.00451491 0.92208737 0.04941467
v 0.00405585 0.92364294 0.04945338
v 0.00151234 0.92170537 0.04933428
v 0.00150910 0.92332993 0.04942052
v -0.00129549 0.92182378 0.04946889
v -0.00109488 0.92338897 0.04940020
v -0.00355733 0.92407126 0.04931220
v -0.00412784 0.92256632 0.04927294
v -0.00595537 0.92527574 0.04933927
v -0.00693528 0.92392352 0.04927399
v -0.00801876 0.92699878 0.04938324
v -0.00916984 0.92593500 0.04942293
v -0.00969432 0.92902439 0.04939282
v -0.01096214 0.92828674 0.04928092
v -0.01077549 0.93154633 0.04929580
v -0.01145136 0.93407333 0.04924334
v -0.01224024 0.93087631 0.04941112
v -0.01168873 0.93654774 0.04924983
v -0.01154982 0.94251824 0.04938263
v -0.01271634 0.93963607 0.04924345
v -0.01302198 0.93384895 0.04926889
v -0.01314122 0.93681775 0.04934436
v 0.01473462 0.93198945 0.04942267
v 0.01512551 0.93795024 0.04949978
v 0.01524350 0.93502251 0.04947885
v 0.01431578 0.94092694 0.04952312
v 0.01349149 0.93767425 0.04935815
v 0.01304206 0.94348875 0.04949138
v 0.01278283 0.94028284 0.04952460
v 0.01117786 0.94588812 0.04936433
v 0.01154557 0.94267788 0.04950404
v 0.00987287 0.94477051 0.04939729
v 0.00874570 0.94773312 0.04943296
v 0.00800581 0.94636703 0.04933693
v 0.00610475 0.94915077 0.04949007
v 0.00562582 0.94762514 0.04941131
v 0.00325018 0.94993254 0.04939908
v 0.00300768 0.94834217 0.04932206
v 0.00045157 0.95007050 0.04933194
v 0.00041822 0.94840552 0.04937377
v -0.00224892 0.94798450 0.04928209
v -0.00247908 0.94955294 0.04935636
v -0.00468642 0.94709532 0.04935074
v -0.00535703 0.94854148 0.04939338
v -0.00686653 0.94580984 0.04941161
v -0.00794813 0.94694188 0.04936391
v -0.00870456 0.94394683 0.04941245
v -0.00999129 0.94489689 0.04923540
v -0.01027417 0.94174794 0.04925263
v -0.01124149 0.93932709 0.04926343
v -0.01162612 0.93671747 0.04927143
v -0.01117547 0.93915017 0.04938128
v -0.01165961 0.94251000 0.04928595
v -0.01016597 0.94160324 0.04937825
v -0.00994767 0.94493306 0.04939423
v -0.00878369 0.94390942 0.04924010
v -0.00791112 0.94689719 0.04933831
v -0.00680591 0.94565884 0.04931834
v -0.00528485 0.94857636 0.04925093
v -0.00454997 0.94714420 0.04943981
v -0.00261440 0.94969648 0.04942656
v -0.00217058 0.94804784 0.04928475
v 0.00039218 0.95007718 0.04933823
v 0.00039995 0.94847968 0.04932267
v 0.00310500 0.94824824 0.04929932
v 0.00339874 0.94991969 0.04949094
v 0.00562939 0.94767841 0.04932360
v 0.00622838 0.94906176 0.04938260
v 0.00786677 0.94633427 0.04951052
v 0.00886078 0.94768257 0.04933402
v 0.00996074 0.94475440 0.04951793
v 0.01104340 0.94572301 0.04945393
v 0.01161018 0.94267368 0.04952212
v 0.01282096 0.94028190 0.04937406
v 0.01293317 0.94357907 0.04953653
v 0.01338573 0.93778219 0.04946604
v 0.01428863 0.94075891 0.04942594
v 0.01363195 0.93513880 0.04937298
v 0.01354174 0.92931169 0.04950018
v 0.01469979 0.93196752 0.04942946
v 0.01502138 0.93798893 0.04946360
v 0.01514074 0.93501940 0.04945029
v -0.01318052 0.93663180 0.04920855
v -0.01315859 0.93378266 0.04930864
v -0.01273868 0.93965965 0.04936781
v -0.01239161 0.93081670 0.04931533
v -0.01151699 0.93405487 0.04936523
v -0.01090461 0.92820319 0.04930086
v -0.01074154 0.93136564 0.04934202
v -0.00974804 0.92917586 0.04924633
v -0.00914143 0.92598617 0.04931653
v -0.00806452 0.92707950 0.04931744
v -0.00690611 0.92398894 0.04934617
v -0.00605234 0.92545225 0.04938660
v -0.00429450 0.92255232 0.04934217
v -0.00371595 0.92418877 0.04936950
v -0.00140229 0.92194546 0.04935699
v -0.00111127 0.92344254 0.04933222
v 0.00153077 0.92320235 0.04947341
v 0.00159565 0.92168198 0.04943020
v 0.00407523 0.92366929 0.04946949
v 0.00459243 0.92219103 0.04936177
v 0.00652224 0.92460713 0.04945763
v 0.00724799 0.92313860 0.04949962
v 0.00873508 0.92608635 0.04945108
v 0.00991484 0.92481693 0.04937355
v 0.01073617 0.92794220 0.04940060
v 0.01191592 0.92685977 0.04946036
v 0.01216331 0.93014015 0.04948635
v 0.01320145 0.93255512 0.04954013
vn 0.005235994897330066 0 -0.9999862920847641
vn -0.005235994897330066 0 0.9999862920847641
usemtl material_0_0
f 1//1 2//1 3//1
f 2//1 1//1 4//1
f 2//1 4//1 5//1
f 5//1 4//1 6//1
f 6//1 4//1 7//1
f 6//1 7//1 8//1
f 8//1 7//1 9//1
f 8//1 9//1 10//1
f 10//1 9//1 11//1
f 10//1 11//1 12//1
f 12//1 11//1 13//1
f 12//1 13//1 14//1
f 14//1 13//1 15//1
f 14//1 15//1 16//1
f 16//1 15//1 17//1
f 17//1 15//1 18//1
f 17//1 18//1 19//1
f 19//1 18//1 20//1
f 19//1 20//1 21//1
f 21//1 20//1 22//1
f 21//1 22//1 23//1
f 23//1 22//1 24//1
f 23//1 24//1 25//1
f 25//1 24//1 26//1
f 26//1 24//1 27//1
f 26//1 27//1 28//1
f 28//1 27//1 29//1
f 29//1 27//1 30//1
f 30//1 27//1 31//1
f 30//1 31//1 32//1
f 33//1 34//1 35//1
f 34//1 33//1 36//1
f 36//1 33//1 1//1
f 36//1 1//1 3//1
f 36//1 3//1 37//1
f 36//1 37//1 38//1
f 38//1 37//1 39//1
f 38//1 39//1 40//1
f 40//1 39//1 41//1
f 40//1 41//1 42//1
f 40//1 42//1 43//1
f 43//1 42//1 44//1
f 43//1 44//1 45//1
f 45//1 44//1 46//1
f 45//1 46//1 47//1
f 47//1 46//1 48//1
f 47//1 48//1 49//1
f 49//1 48//1 50//1
f 49//1 50//1 51//1
f 49//1 51//1 52//1
f 52//1 51//1 53//1
f 52//1 53//1 54//1
f 54//1 53//1 55//1
f 54//1 55//1 56//1
f 56//1 55//1 57//1
f 56//1 57//1 58//1
f 58//1 57//1 59//1
f 58//1 59//1 29//1
f 29//1 59//1 60//1
f 29//1 60//1 28//1
f 61//2 62//2 63//2
f 62//2 64//2 63//2
f 63//2 64//2 65//2
f 64//2 66//2 65//2
f 65//2 66//2 67//2
f 66//2 68//2 67//2
f 67//2 68//2 69//2
f 68//2 70//2 69//2
f 69//2 70//2 71//2
f 70//2 72//2 71//2
f 71//2 72//2 73//2
f 72//2 74//2 73//2
f 74//2 75//2 73//2
f 73//2 75//2 76//2
f 75//2 77//2 76//2
f 76//2 77//2 78//2
f 77//2 79//2 78//2
f 78//2 79//2 80//2
f 79//2 81//2 80//2
f 80//2 81//2 82//2
f 81//2 83//2 82//2
f 83//2 84//2 82//2
f 82//2 84//2 85//2
f 84//2 86//2 85//2
f 85//2 86//2 87//2
f 86//2 88//2 87//2
f 88//2 89//2 87//2
f 89//2 90//2 87//2
f 87//2 90//2 91//2
f 92//2 91//2 90//2
f 93//2 94//2 95//2
f 94//2 96//2 95//2
f 95//2 96//2 63//2
f 63//2 96//2 61//2
f 61//2 96//2 97//2
f 96//2 98//2 97//2
f 97//2 98//2 99//2
f 99//2 98//2 100//2
f 98//2 101//2 100//2
f 100//2 101//2 102//2
f 101//2 103//2 102//2
f 102//2 103//2 104//2
f 103//2 105//2 104//2
f 104//2 105//2 106//2
f 105//2 107//2 106//2
f 106//2 107//2 108//2
f 108//2 107//2 109//2
f 107//2 110//2 109//2
f 109//2 110//2 111//2
f 110//2 112//2 111//2
f 111//2 112//2 113//2
f 112//2 114//2 113//2
f 113//2 114//2 115//2
f 114//2 116//2 115//2
f 115//2 116//2 117//2
f 116//2 118//2 117//2
f 117//2 118//2 119//2
f 119//2 118//2 120//2
f 118//2 89//2 120//2
f 88//2 120//2 89//2
