# SSTK version 0.8.0
# 4
mtllib original-4.mtl
o #ID111
v -0.09207521 0.52737214 -0.30626184
v -0.01113079 0.52733144 -0.31025389
v -0.01117984 0.52749856 -0.31827056
v -0.08981295 0.52731785 -0.29847730
v -0.16699688 0.52737879 -0.27360766
v -0.16294718 0.52737853 -0.26677424
v -0.23112569 0.52744264 -0.22284937
v -0.22528839 0.52738916 -0.21709528
v -0.27974982 0.52737887 -0.15704078
v -0.27259930 0.52730735 -0.15304180
v -0.30957368 0.52738549 -0.08100277
v -0.30171968 0.52737001 -0.07908056
v -0.31896743 0.52743390 0.00028858
v -0.31082043 0.52747927 0.00018447
v -0.29908634 0.52738039 0.07893910
v -0.30684190 0.52744245 0.08100515
v -0.26716682 0.52730860 0.15182441
v -0.27427375 0.52735501 0.15599106
v -0.21773753 0.52735803 0.21430451
v -0.22331000 0.52731606 0.22003033
v -0.15372793 0.52745807 0.26152273
v -0.15763577 0.52737193 0.26872749
v -0.07958416 0.52745365 0.29077015
v -0.08143532 0.52733818 0.29862899
v -0.00045005 0.52748434 0.29971603
v -0.00021410 0.52746466 0.30794219
v 0.06997322 0.52732259 -0.30917152
v 0.06800977 0.52742304 -0.30118870
v 0.14599934 0.52733608 -0.27914588
v 0.14220012 0.52731426 -0.27212271
v 0.21173013 0.52745041 -0.23043595
v 0.20617322 0.52731734 -0.22476698
v 0.26275302 0.52744614 -0.16660441
v 0.25571503 0.52740887 -0.16241730
v 0.29526319 0.52738564 -0.09146733
v 0.28750126 0.52749428 -0.08931225
v 0.30732726 0.52733328 -0.01071899
v 0.29929295 0.52739194 -0.01062884
v 0.29818489 0.52745166 0.07045591
v 0.29016271 0.52749280 0.06853684
v 0.26110545 0.52738240 0.14262692
v 0.26802641 0.52743800 0.14665570
v 0.21373854 0.52740684 0.20674177
v 0.21957515 0.52731635 0.21234270
v 0.15126992 0.52735376 0.25635665
v 0.15548965 0.52750257 0.26320490
v 0.07831963 0.52744244 0.28808433
v 0.08055139 0.52750608 0.29587403
v -0.16704478 0.52735248 -0.27375665
v -0.23097516 0.44204219 -0.22270280
v -0.23110345 0.52731938 -0.22275366
v -0.16710367 0.44209916 -0.27370001
v -0.27966631 0.52748643 -0.15713366
v -0.27972817 0.44195714 -0.15698110
v -0.30960077 0.52739870 -0.08096536
v -0.30961520 0.44201302 -0.08094560
v -0.31885113 0.52737229 0.00028881
v -0.31885424 0.44206821 0.00031362
v -0.30688974 0.52742123 0.08118599
v -0.30683811 0.44208774 0.08116860
v -0.27425296 0.52747078 0.15605860
v -0.27416172 0.44195561 0.15603725
v -0.22323422 0.52738414 0.21994965
v -0.22326981 0.44209328 0.21997745
v -0.15754828 0.44202984 0.26865874
v -0.15763746 0.52743230 0.26861076
v -0.08158836 0.44206336 0.29855720
v -0.08158348 0.52749268 0.29857465
v -0.00021454 0.44196321 0.30793699
v -0.00021951 0.52745250 0.30789355
v 0.08049352 0.44198195 0.29571365
v 0.08051048 0.52732240 0.29571875
v 0.15544737 0.44199812 0.26315541
v 0.15543733 0.52733586 0.26327020
v 0.21950283 0.44203451 0.21232265
v 0.21945207 0.52744660 0.21223111
v 0.26808168 0.52742651 0.14649806
v 0.26821969 0.44194074 0.14668942
v 0.29809899 0.52743056 0.07050708
v 0.29805247 0.44209547 0.07045200
v 0.30741153 0.52744450 -0.01063510
v 0.30737062 0.44202601 -0.01073879
v 0.29526331 0.52733124 -0.09160431
v 0.29523416 0.44207163 -0.09160336
v 0.26268836 0.52736277 -0.16649936
v 0.26261287 0.44197234 -0.16648774
v 0.21175019 0.52736292 -0.23050804
v 0.21178150 0.44204840 -0.23048256
v 0.14612658 0.44203288 -0.27922428
v 0.14596214 0.52741469 -0.27922935
v 0.06991398 0.44193339 -0.30917822
v 0.06993816 0.52736979 -0.30916432
v -0.01128435 0.44207550 -0.31833378
v -0.01129716 0.52749607 -0.31830575
v -0.09210105 0.44198717 -0.30627201
v -0.09204968 0.52737278 -0.30622295
vn 0 1 0
vn -0.5150380781539518 0 -0.8571672987529821
vn -0.7193398016530974 0 -0.6946583690978483
vn -0.8746197071393962 0 -0.48480962024633667
vn -0.9702957356271962 0 -0.2419218580940513
vn -0.9998476951233675 0 0.017452408329214894
vn -0.9612617055496163 0 0.27563732229841925
vn -0.8571672987529821 0 0.5150380781539518
vn -0.6946583690978483 0 0.7193398016530974
vn -0.4848096202463367 0 0.8746197071393962
vn -0.24192185809405137 0 0.9702957356271962
vn 0.01745240832921484 0 0.9998476951233675
vn 0.27563732229841925 0 0.9612617055496163
vn 0.5150380781539518 0 0.8571672987529821
vn 0.7193398016530974 0 0.6946583690978483
vn 0.8746197071393962 0 0.48480962024633667
vn 0.9702957356271962 0 0.2419218580940513
vn 0.9998476951233675 0 -0.017452408329215054
vn 0.9612617055496163 0 -0.27563732229841925
vn 0.8571672987529821 0 -0.5150380781539518
vn 0.6946583690978483 0 -0.7193398016530974
vn 0.4848096202463367 0 -0.8746197071393962
vn 0.24192185809405137 0 -0.9702957356271962
vn -0.01745240832921484 0 -0.9998476951233675
vn -0.27563732229841925 0 -0.9612617055496163
usemtl material_0_0
f 1//1 2//1 3//1
f 2//1 1//1 4//1
f 4//1 1//1 5//1
f 4//1 5//1 6//1
f 6//1 5//1 7//1
f 6//1 7//1 8//1
f 8//1 7//1 9//1
f 8//1 9//1 10//1
f 10//1 9//1 11//1
f 10//1 11//1 12//1
f 12//1 11//1 13//1
f 12//1 13//1 14//1
f 14//1 13//1 15//1
f 15//1 13//1 16//1
f 15//1 16//1 17//1
f 17//1 16//1 18//1
f 17//1 18//1 19//1
f 19//1 18//1 20//1
f 19//1 20//1 21//1
f 21//1 20//1 22//1
f 21//1 22//1 23//1
f 23//1 22//1 24//1
f 23//1 24//1 25//1
f 25//1 24//1 26//1
f 2//1 27//1 3//1
f 27//1 2//1 28//1
f 27//1 28//1 29//1
f 29//1 28//1 30//1
f 29//1 30//1 31//1
f 31//1 30//1 32//1
f 31//1 32//1 33//1
f 33//1 32//1 34//1
f 33//1 34//1 35//1
f 35//1 34//1 36//1
f 35//1 36//1 37//1
f 37//1 36//1 38//1
f 37//1 38//1 39//1
f 39//1 38//1 40//1
f 39//1 40//1 41//1
f 39//1 41//1 42//1
f 42//1 41//1 43//1
f 42//1 43//1 44//1
f 44//1 43//1 45//1
f 44//1 45//1 46//1
f 46//1 45//1 47//1
f 46//1 47//1 48//1
f 48//1 47//1 25//1
f 48//1 25//1 26//1
f 49//2 50//3 51//3
f 50//3 49//2 52//2
f 53//4 50//3 54//4
f 50//3 53//4 51//3
f 55//5 54//4 56//5
f 54//4 55//5 53//4
f 57//6 56//5 58//6
f 56//5 57//6 55//5
f 59//7 58//6 60//7
f 58//6 59//7 57//6
f 61//8 60//7 62//8
f 60//7 61//8 59//7
f 63//9 62//8 64//9
f 62//8 63//9 61//8
f 65//10 63//9 64//9
f 63//9 65//10 66//10
f 67//11 66//10 65//10
f 66//10 67//11 68//11
f 69//12 68//11 67//11
f 68//11 69//12 70//12
f 71//13 70//12 69//12
f 70//12 71//13 72//13
f 73//14 72//13 71//13
f 72//13 73//14 74//14
f 75//15 74//14 73//14
f 74//14 75//15 76//15
f 77//16 75//15 78//16
f 75//15 77//16 76//15
f 79//17 78//16 80//17
f 78//16 79//17 77//16
f 81//18 80//17 82//18
f 80//17 81//18 79//17
f 83//19 82//18 84//19
f 82//18 83//19 81//18
f 85//20 84//19 86//20
f 84//19 85//20 83//19
f 87//21 86//20 88//21
f 86//20 87//21 85//20
f 87//21 89//22 90//22
f 89//22 87//21 88//21
f 90//22 91//23 92//23
f 91//23 90//22 89//22
f 92//23 93//24 94//24
f 93//24 92//23 91//23
f 94//24 95//25 96//25
f 95//25 94//24 93//24
f 96//25 52//2 49//2
f 52//2 96//25 95//25
