# SSTK version 0.8.0
# 5
mtllib original-5.mtl
o #ID117
v -0.30171121 0.54877723 -0.07906835
v -0.00747545 0.54881500 -0.10167160
v -0.27253028 0.54882467 -0.15310031
v -0.03231793 0.54884439 -0.09791463
v -0.05547103 0.54880087 -0.08778634
v -0.07499670 0.54879700 -0.07213933
v -0.31082759 0.54879017 0.00007388
v -0.08996755 0.54867171 -0.05186282
v -0.09926847 0.54871901 -0.02863297
v -0.10213820 0.54872793 -0.00362053
v -0.29910456 0.54884522 0.07875698
v -0.09841752 0.54870266 0.02139193
v -0.08834859 0.54872937 0.04438200
v -0.07262903 0.54883711 0.06412530
v -0.05257894 0.54871428 0.07913556
v -0.26716830 0.54876946 0.15197523
v -0.02903216 0.54873014 0.08822454
v -0.00412064 0.54880971 0.09111391
v 0.26097866 0.54882259 0.14259453
v 0.21371870 0.54872436 0.20670968
v -0.21778522 0.54869036 0.21415310
v -0.15374929 0.54879924 0.26152467
v 0.15144148 0.54866787 0.25617274
v -0.07952636 0.54877131 0.29086391
v 0.07824217 0.54881192 0.28808505
v -0.00040652 0.54882473 0.29974608
v -0.08976153 0.54866492 -0.29844546
v 0.06810125 0.54877404 -0.30129952
v -0.01102641 0.54876260 -0.31023631
v -0.16290091 0.54880200 -0.26671422
v 0.14216300 0.54879186 -0.27212222
v -0.22519207 0.54884936 -0.21720226
v 0.20621298 0.54877256 -0.22472041
v 0.25580617 0.54867821 -0.16235442
v 0.28756849 0.54869032 -0.08929392
v 0.01747528 0.54874097 -0.09865135
v 0.04088423 0.54866538 -0.08945632
v 0.06114439 0.54880158 -0.07447298
v 0.29920576 0.54877914 -0.01046576
v 0.07680998 0.54872018 -0.05481796
v 0.08680217 0.54882671 -0.03169768
v 0.09049071 0.54867148 -0.00695689
v 0.08778373 0.54884112 0.01817245
v 0.29031597 0.54872861 0.06849557
v 0.07859153 0.54881636 0.04140838
v 0.06357289 0.54874515 0.06178571
v 0.04392597 0.54879025 0.07735125
v 0.02083173 0.54881733 0.08740959
v -0.01101547 0.54881806 -0.31019651
v -0.08977157 0.52746000 -0.29854310
v -0.08985269 0.54873483 -0.29846852
v -0.01103108 0.52745559 -0.31016485
v -0.16292935 0.52748874 -0.26672328
v -0.16284978 0.54865918 -0.26679876
v -0.22525366 0.52737886 -0.21712687
v -0.22524836 0.54875977 -0.21708275
v -0.27249059 0.54879181 -0.15312120
v -0.27263701 0.52748584 -0.15305815
v -0.30168439 0.54877280 -0.07893606
v -0.30184711 0.52741984 -0.07906533
v -0.31075959 0.54878555 0.00008568
v -0.31076741 0.52749028 0.00015740
v -0.29906909 0.54882244 0.07880374
v -0.29905789 0.52741506 0.07875705
v -0.26720733 0.54871510 0.15184886
v -0.26727343 0.52744611 0.15183177
v -0.21773135 0.54870760 0.21422281
v -0.21764592 0.52745073 0.21416300
v -0.15366872 0.52748983 0.26148196
v -0.15371274 0.54883466 0.26156020
v -0.07958857 0.52746568 0.29067431
v -0.07965669 0.54880390 0.29076189
v -0.00036861 0.52733475 0.29981845
v -0.00053548 0.54880130 0.29972183
v 0.07839433 0.52750177 0.28792572
v 0.07824934 0.54884641 0.28803172
v 0.15142999 0.52746033 0.25616695
v 0.15144480 0.54880964 0.25615789
v 0.21360359 0.52739665 0.20670285
v 0.21373272 0.54865396 0.20666280
v 0.26106720 0.54879837 0.14270876
v 0.26104659 0.52745488 0.14265344
v 0.29025309 0.54871288 0.06862380
v 0.29019597 0.52737911 0.06852758
v 0.29932188 0.54873865 -0.01059658
v 0.29930565 0.52731345 -0.01054049
v 0.28745900 0.54874077 -0.08926861
v 0.28741417 0.52749187 -0.08922724
v 0.25563808 0.54868015 -0.16228487
v 0.25574628 0.52740799 -0.16242619
v 0.20617119 0.54865424 -0.22464924
v 0.20614698 0.52736573 -0.22473723
v 0.14209438 0.52733424 -0.27208002
v 0.14210622 0.54865241 -0.27203042
v 0.06805669 0.52736577 -0.30119387
v 0.06801220 0.54884696 -0.30118792
vn 0 1 0
vn -0.01745240832921448 0 -0.9998476951233675
vn -0.27563732229841925 0 -0.9612617055496163
vn -0.5150380781539518 0 -0.8571672987529821
vn -0.7193398016530974 0 -0.6946583690978483
vn -0.8746197071393962 0 -0.48480962024633667
vn -0.9702957356271962 0 -0.2419218580940513
vn -0.9998476951233675 0 0.017452408329214537
vn -0.9612617055496163 0 0.27563732229841925
vn -0.8571672987529821 0 0.5150380781539518
vn -0.6946583690978483 0 0.7193398016530974
vn -0.4848096202463367 0 0.8746197071393962
vn -0.24192185809405137 0 0.9702957356271962
vn 0.017452408329214776 0 0.9998476951233675
vn 0.27563732229841925 0 0.9612617055496163
vn 0.5150380781539518 0 0.8571672987529821
vn 0.7193398016530974 0 0.6946583690978483
vn 0.8746197071393962 0 0.48480962024633667
vn 0.9702957356271962 0 0.2419218580940513
vn 0.9998476951233676 0 -0.017452408329211046
vn 0.9612617055496163 0 -0.27563732229841925
vn 0.8571672987529821 0 -0.5150380781539518
vn 0.6946583690978483 0 -0.7193398016530974
vn 0.4848096202463367 0 -0.8746197071393962
vn 0.24192185809405137 0 -0.9702957356271962
usemtl material_0_0
f 1//1 2//1 3//1
f 2//1 1//1 4//1
f 4//1 1//1 5//1
f 5//1 1//1 6//1
f 6//1 1//1 7//1
f 6//1 7//1 8//1
f 8//1 7//1 9//1
f 9//1 7//1 10//1
f 10//1 7//1 11//1
f 10//1 11//1 12//1
f 12//1 11//1 13//1
f 13//1 11//1 14//1
f 14//1 11//1 15//1
f 15//1 11//1 16//1
f 15//1 16//1 17//1
f 17//1 16//1 18//1
f 18//1 16//1 19//1
f 19//1 16//1 20//1
f 20//1 16//1 21//1
f 20//1 21//1 22//1
f 20//1 22//1 23//1
f 23//1 22//1 24//1
f 23//1 24//1 25//1
f 25//1 24//1 26//1
f 27//1 28//1 29//1
f 28//1 27//1 30//1
f 28//1 30//1 31//1
f 31//1 30//1 32//1
f 31//1 32//1 33//1
f 33//1 32//1 3//1
f 33//1 3//1 34//1
f 34//1 3//1 35//1
f 35//1 3//1 2//1
f 35//1 2//1 36//1
f 35//1 36//1 37//1
f 35//1 37//1 38//1
f 35//1 38//1 39//1
f 39//1 38//1 40//1
f 39//1 40//1 41//1
f 39//1 41//1 42//1
f 39//1 42//1 43//1
f 39//1 43//1 44//1
f 44//1 43//1 45//1
f 44//1 45//1 46//1
f 44//1 46//1 47//1
f 44//1 47//1 19//1
f 19//1 47//1 48//1
f 19//1 48//1 18//1
f 49//2 50//3 51//3
f 50//3 49//2 52//2
f 51//3 53//4 54//4
f 53//4 51//3 50//3
f 54//4 55//5 56//5
f 55//5 54//4 53//4
f 57//6 55//5 58//6
f 55//5 57//6 56//5
f 59//7 58//6 60//7
f 58//6 59//7 57//6
f 61//8 60//7 62//8
f 60//7 61//8 59//7
f 63//9 62//8 64//9
f 62//8 63//9 61//8
f 65//10 64//9 66//10
f 64//9 65//10 63//9
f 67//11 66//10 68//11
f 66//10 67//11 65//10
f 69//12 67//11 68//11
f 67//11 69//12 70//12
f 71//13 70//12 69//12
f 70//12 71//13 72//13
f 73//14 72//13 71//13
f 72//13 73//14 74//14
f 75//15 74//14 73//14
f 74//14 75//15 76//15
f 77//16 76//15 75//15
f 76//15 77//16 78//16
f 79//17 78//16 77//16
f 78//16 79//17 80//17
f 81//18 79//17 82//18
f 79//17 81//18 80//17
f 83//19 82//18 84//19
f 82//18 83//19 81//18
f 85//20 84//19 86//20
f 84//19 85//20 83//19
f 87//21 86//20 88//21
f 86//20 87//21 85//20
f 89//22 88//21 90//22
f 88//21 89//22 87//21
f 91//23 90//22 92//23
f 90//22 91//23 89//22
f 91//23 93//24 94//24
f 93//24 91//23 92//23
f 94//24 95//25 96//25
f 95//25 94//24 93//24
f 96//25 52//2 49//2
f 52//2 96//25 95//25
