# SSTK version 0.8.0
# 14
mtllib original-14.mtl
o #ID86
v 0.06410517 0.55019315 0.09999636
v 0.00164369 0.55025564 0.10773236
v 0.03400141 0.55033685 0.11238321
v 0.03148838 0.55027907 0.10369606
v 0.05949042 0.55030974 0.09203553
v 0.08984900 0.55021208 0.08013948
v 0.08348402 0.55029446 0.07376161
v 0.10986186 0.55024028 0.05422813
v 0.10193457 0.55034702 0.04963745
v 0.12233791 0.55021666 0.02400817
v 0.11352605 0.55037360 0.02170404
v 0.12663750 0.55020963 -0.00834952
v 0.11757224 0.55029839 -0.00821135
v 0.12222054 0.55031462 -0.04072343
v 0.11364110 0.55020637 -0.03823366
v 0.10189167 0.55027506 -0.06624736
v 0.10989168 0.55037403 -0.07071907
v 0.08364454 0.55021976 -0.09032559
v 0.08991003 0.55023038 -0.09656662
v 0.05956533 0.55031297 -0.10872463
v 0.06411091 0.55034811 -0.11643910
v 0.03165263 0.55026379 -0.12031496
v 0.03392451 0.55027982 -0.12908336
v 0.00151256 0.55027807 -0.12426571
v -0.03076417 0.55024728 0.11247567
v 0.00146434 0.55032679 0.11659112
v -0.06087968 0.55030124 0.10001747
v -0.02842371 0.55019647 0.10377918
v -0.05641472 0.55027190 0.09215089
v -0.08678861 0.55023583 0.07999085
v -0.08035995 0.55033803 0.07378325
v -0.10669431 0.55018990 0.05426238
v -0.09887231 0.55023966 0.04972705
v -0.11908196 0.55030762 0.02411962
v -0.11043524 0.55032768 0.02169849
v -0.12350608 0.55033706 -0.00825399
v -0.11447549 0.55025924 -0.00826995
v -0.11037773 0.55037768 -0.03832165
v -0.11915459 0.55024455 -0.04066811
v -0.09894525 0.55034500 -0.06628103
v -0.10657691 0.55021926 -0.07079721
v -0.08039964 0.55029195 -0.09037214
v -0.08690381 0.55021364 -0.09663717
v -0.05635171 0.55030226 -0.10869410
v -0.06092673 0.55036632 -0.11644059
v -0.02849974 0.55019249 -0.12030289
v -0.03079145 0.55030545 -0.12891936
v 0.00155973 0.55033963 -0.13334773
v 0.00155524 0.55019187 -0.13324655
v 0.03393691 0.55036345 -0.12901421
v -0.03071279 0.55023801 -0.12911024
v 0.00157205 0.55036286 -0.12422916
v -0.02839465 0.55019006 -0.12029597
v -0.06097140 0.55019635 -0.11657280
v -0.05632535 0.55028195 -0.10870446
v -0.08674658 0.55030098 -0.09666331
v -0.08034886 0.55035497 -0.09018925
v -0.10660140 0.55037707 -0.07085230
v -0.09894667 0.55025780 -0.06630985
v -0.11923442 0.55019190 -0.04062386
v -0.11049050 0.55037851 -0.03821608
v -0.12338239 0.55033301 -0.00836386
v -0.11431170 0.55023692 -0.00829360
v -0.11051434 0.55029020 0.02170971
v -0.11920103 0.55032458 0.02412755
v -0.09889886 0.55027247 0.04977879
v -0.10668053 0.55024562 0.05414446
v -0.08036457 0.55033843 0.07364530
v -0.08679022 0.55037144 0.08014318
v -0.05650919 0.55037180 0.09215354
v -0.06087265 0.55026275 0.09992066
v -0.02845093 0.55026899 0.10361696
v 0.00165450 0.55021569 0.10766955
v 0.03390063 0.55019139 0.11244359
v -0.03083512 0.55029278 0.11250641
v 0.00160289 0.55019804 0.11659210
v 0.03151505 0.55032693 -0.12033385
v 0.06396878 0.55019927 -0.11648748
v 0.05951758 0.55033865 -0.10878127
v 0.08997668 0.55023290 -0.09672138
v 0.08361289 0.55026579 -0.09033880
v 0.10987882 0.55026630 -0.07069837
v 0.10196683 0.55021651 -0.06628029
v 0.12227809 0.55032398 -0.04064223
v 0.11361475 0.55037202 -0.03831434
v 0.11750311 0.55038515 -0.00836166
v 0.12645980 0.55037094 -0.00836119
v 0.11362240 0.55026005 0.02179910
v 0.12235919 0.55036665 0.02398473
v 0.10198420 0.55033019 0.04974914
v 0.10989560 0.55022133 0.05410904
v 0.08346542 0.55023429 0.07360795
v 0.08989648 0.55034222 0.08015535
v 0.05958237 0.55032992 0.09215845
v 0.06408074 0.55030371 0.10002807
v 0.03164099 0.55035529 0.10366137
v -0.06095075 0.53248709 -0.11653073
v -0.03070289 0.55031493 -0.12892214
v -0.03078219 0.53246244 -0.12903955
v -0.06086106 0.55032124 -0.11661826
v -0.06093159 0.55020823 -0.11644017
v -0.06101007 0.53248058 -0.11662438
v -0.03069656 0.55026891 -0.12898451
v -0.03086319 0.53234099 -0.12908020
v -0.08682972 0.53248766 -0.09670149
v -0.08675945 0.55020818 -0.09674001
v -0.08682243 0.55021818 -0.09674512
v -0.08673369 0.53230378 -0.09672719
v -0.10659844 0.55025177 -0.07083512
v -0.10674255 0.53234306 -0.07086630
v -0.10674296 0.55019075 -0.07082890
v -0.10663572 0.53234291 -0.07085134
v -0.11915974 0.55032615 -0.04063447
v -0.11913387 0.53229714 -0.04061370
v -0.11925220 0.55027995 -0.04070824
v -0.11908411 0.53249150 -0.04067870
v -0.12345869 0.55038452 -0.00826526
v -0.12338872 0.53231200 -0.00832825
v -0.12334211 0.55033643 -0.00835756
v -0.12341249 0.53237496 -0.00831829
v -0.11912472 0.55033458 0.02403001
v -0.11916664 0.53232671 0.02404857
v -0.11906564 0.55033427 0.02400158
v -0.11908786 0.53237806 0.02396054
v -0.10672141 0.55025609 0.05429380
v -0.10664559 0.53234130 0.05420191
v -0.10672866 0.55029326 0.05423062
v -0.10672886 0.53246948 0.05419052
v -0.08681275 0.55026961 0.07999962
v -0.08674680 0.53246999 0.08007985
v -0.08672363 0.55032979 0.08015819
v -0.08683154 0.53229901 0.08007816
v -0.06088931 0.53243667 0.10003352
v -0.06091279 0.55019080 0.09984566
v -0.06095660 0.53232024 0.09990942
v -0.06090262 0.55033361 0.09990646
v -0.03083779 0.53238251 0.11245694
v -0.03069382 0.55028239 0.11249112
v -0.03074594 0.53229705 0.11244116
v -0.03077842 0.55029491 0.11238324
v 0.00156204 0.53247952 0.11672742
v 0.00155154 0.55022381 0.11671771
v 0.00149437 0.53235222 0.11663221
v 0.00164598 0.55023685 0.11669295
v 0.03390378 0.53231695 0.11245235
v 0.03383225 0.55022335 0.11241350
v 0.03384987 0.53245378 0.11251326
v 0.03384322 0.55019879 0.11250545
v 0.06414848 0.53242793 0.09996443
v 0.06411966 0.55029088 0.09998258
v 0.06404204 0.53246476 0.09984846
v 0.06397098 0.55035495 0.09992571
v 0.08983745 0.53236347 0.08007564
v 0.08989548 0.55031277 0.08003150
v 0.08993009 0.53238288 0.08004461
v 0.08995884 0.55021974 0.08006835
v 0.10986767 0.55032059 0.05427288
v 0.10986238 0.53240025 0.05422905
v 0.10977767 0.55035643 0.05417866
v 0.10988095 0.53233064 0.05413121
v 0.12238225 0.55034693 0.02399713
v 0.12228610 0.53238562 0.02402673
v 0.12222670 0.55031845 0.02410490
v 0.12229140 0.53231773 0.02415216
v 0.12663794 0.55021470 -0.00821032
v 0.12647369 0.53247177 -0.00826570
v 0.12644904 0.55034484 -0.00821729
v 0.12654842 0.53232568 -0.00833702
v 0.12225234 0.55024032 -0.04057041
v 0.12235287 0.53239039 -0.04061401
v 0.12237244 0.55035605 -0.04057992
v 0.12232207 0.53229440 -0.04065978
v 0.10983538 0.55019217 -0.07076972
v 0.10977771 0.53237649 -0.07080862
v 0.10976592 0.55028631 -0.07086435
v 0.10974429 0.53236572 -0.07075579
v 0.08989822 0.55029148 -0.09676406
v 0.08989851 0.53247976 -0.09662994
v 0.08994029 0.55021463 -0.09659042
v 0.08985689 0.53238731 -0.09674248
v 0.06411789 0.53230730 -0.11661412
v 0.06411919 0.55026114 -0.11649111
v 0.06412958 0.55034300 -0.11653122
v 0.06397081 0.53246600 -0.11656990
v 0.03397342 0.53238349 -0.12907726
v 0.03396674 0.55024554 -0.12905442
v 0.03390755 0.55019525 -0.12904877
v 0.03389052 0.53243371 -0.12906345
v 0.00149478 0.53242727 -0.13328472
v 0.00161364 0.55018978 -0.13334995
v 0.00155479 0.55032021 -0.13317416
v 0.00148787 0.53240183 -0.13317579
v 0.06413991 0.53238990 0.10002693
v 0.00151130 0.53236163 0.10772508
v 0.03391580 0.53245703 0.11244628
v 0.03163941 0.53245527 0.10365491
v 0.05953165 0.53245796 0.09219480
v 0.08993209 0.53231177 0.08001695
v 0.08358036 0.53242192 0.07363707
v 0.10979386 0.53239267 0.05425592
v 0.10192408 0.53237130 0.04965184
v 0.12236609 0.53241280 0.02406023
v 0.11357436 0.53246027 0.02167691
v 0.12662671 0.53240443 -0.00834017
v 0.11747218 0.53242153 -0.00829665
v 0.12226582 0.53240474 -0.04056493
v 0.11352493 0.53239801 -0.03825925
v 0.10188492 0.53245319 -0.06630202
v 0.10977797 0.53240593 -0.07078706
v 0.08349224 0.53240875 -0.09035475
v 0.08989360 0.53245044 -0.09673284
v 0.05960393 0.53233908 -0.10878443
v 0.06395332 0.53243461 -0.11657269
v 0.03165118 0.53234811 -0.12020390
v 0.03390048 0.53234472 -0.12901188
v 0.00154582 0.53248542 -0.12426053
v -0.03084617 0.53244963 0.11248070
v 0.00163706 0.53242336 0.11661724
v -0.06094990 0.53240605 0.09985539
v -0.02846734 0.53230992 0.10370592
v -0.05648650 0.53241935 0.09220156
v -0.08686084 0.53239173 0.07999871
v -0.08034910 0.53238043 0.07365736
v -0.10671287 0.53232928 0.05415759
v -0.09877588 0.53247578 0.04976036
v -0.11916611 0.53241963 0.02410699
v -0.11048876 0.53241206 0.02181376
v -0.12338919 0.53234806 -0.00826520
v -0.11432694 0.53231611 -0.00825536
v -0.11047058 0.53248639 -0.03828286
v -0.11913554 0.53237331 -0.04060086
v -0.09882201 0.53247747 -0.06629556
v -0.10664192 0.53237950 -0.07078564
v -0.08032710 0.53232648 -0.09018589
v -0.08689924 0.53232473 -0.09666028
v -0.05636639 0.53241238 -0.10873167
v -0.06094334 0.53233132 -0.11654912
v -0.02851745 0.53246482 -0.12025583
v -0.03083705 0.53233384 -0.12910672
v 0.00149149 0.53245094 -0.13324421
v 0.00153816 0.53234373 -0.13317611
v 0.03399662 0.53239566 -0.12907202
v -0.03087364 0.53240561 -0.12909339
v 0.00158853 0.53230037 -0.12419509
v -0.02838643 0.53242115 -0.12020057
v -0.06083520 0.53230338 -0.11648330
v -0.05638883 0.53248731 -0.10868623
v -0.08672559 0.53229923 -0.09658944
v -0.08044835 0.53243824 -0.09031746
v -0.10669219 0.53242529 -0.07083866
v -0.09875928 0.53239814 -0.06621968
v -0.11909812 0.53240044 -0.04063283
v -0.11041743 0.53237039 -0.03820730
v -0.12338287 0.53234269 -0.00824675
v -0.11436407 0.53234263 -0.00838743
v -0.11051468 0.53237441 0.02163475
v -0.11912586 0.53242337 0.02398045
v -0.09891553 0.53245300 0.04976408
v -0.10673049 0.53231506 0.05418567
v -0.08050112 0.53233447 0.07375661
v -0.08672471 0.53239673 0.08008587
v -0.05647876 0.53246859 0.09212978
v -0.06098264 0.53242627 0.10003677
v -0.02842829 0.53240235 0.10378169
v 0.00148972 0.53247074 0.10764076
v 0.03383726 0.53248663 0.11235757
v -0.03087233 0.53235693 0.11233205
v 0.00150753 0.53230569 0.11666366
v 0.03166653 0.53231722 -0.12027019
v 0.06408055 0.53230874 -0.11654526
v 0.05948792 0.53240393 -0.10869281
v 0.08992051 0.53248358 -0.09673588
v 0.08355662 0.53243321 -0.09031139
v 0.10988629 0.53239037 -0.07072640
v 0.10197114 0.53243123 -0.06636378
v 0.12224823 0.53238176 -0.04065541
v 0.11353884 0.53238405 -0.03833392
v 0.11752399 0.53238260 -0.00831173
v 0.12657140 0.53239461 -0.00826597
v 0.11353554 0.53237148 0.02172033
v 0.12229243 0.53247325 0.02404423
v 0.10199149 0.53234799 0.04968597
v 0.10977489 0.53233583 0.05420278
v 0.08347101 0.53242464 0.07360433
v 0.09000593 0.53229464 0.08004197
v 0.05947062 0.53234939 0.09204100
v 0.06404374 0.53249333 0.09996169
v 0.03153144 0.53243170 0.10366981
vn 0 1 0
vn 0 -1 0
vn -0.5000000016386907 0 -0.86602540283834
vn -0.2588190095935402 0 -0.9659258358036703
vn 0.5000000016386907 0 0.86602540283834
vn 0.2588190095935402 0 0.9659258358036703
vn -0.7071067811865319 0 -0.7071067811865632
vn 0.7071067811865319 0 0.7071067811865632
vn -0.8660254028383179 0 -0.5000000016387293
vn 0.8660254028383179 0 0.5000000016387293
vn -0.9659258358036588 0 -0.25881900959358306
vn 0.9659258358036588 0 0.25881900959358306
vn -1 0 0
vn 1 0 0
vn -0.9659258358036703 0 0.2588190095935402
vn 0.9659258358036703 0 -0.2588190095935402
vn -0.86602540283834 0 0.5000000016386907
vn 0.86602540283834 0 -0.5000000016386907
vn -0.7071067811865632 0 0.7071067811865319
vn 0.7071067811865632 0 -0.7071067811865319
vn -0.5000000016387293 0 0.8660254028383179
vn 0.5000000016387293 0 -0.8660254028383179
vn -0.25881900959358306 0 0.9659258358036588
vn 0.25881900959358306 0 -0.9659258358036588
vn 0 0 1
vn 0 0 -1
usemtl material_0_0
f 1//1 2//1 3//1
f 2//1 1//1 4//1
f 4//1 1//1 5//1
f 5//1 1//1 6//1
f 5//1 6//1 7//1
f 7//1 6//1 8//1
f 7//1 8//1 9//1
f 9//1 8//1 10//1
f 9//1 10//1 11//1
f 11//1 10//1 12//1
f 11//1 12//1 13//1
f 13//1 12//1 14//1
f 13//1 14//1 15//1
f 15//1 14//1 16//1
f 16//1 14//1 17//1
f 16//1 17//1 18//1
f 18//1 17//1 19//1
f 18//1 19//1 20//1
f 20//1 19//1 21//1
f 20//1 21//1 22//1
f 22//1 21//1 23//1
f 22//1 23//1 24//1
f 3//1 25//1 26//1
f 25//1 3//1 27//1
f 27//1 3//1 2//1
f 27//1 2//1 28//1
f 27//1 28//1 29//1
f 27//1 29//1 30//1
f 30//1 29//1 31//1
f 30//1 31//1 32//1
f 32//1 31//1 33//1
f 32//1 33//1 34//1
f 34//1 33//1 35//1
f 34//1 35//1 36//1
f 36//1 35//1 37//1
f 36//1 37//1 38//1
f 36//1 38//1 39//1
f 39//1 38//1 40//1
f 39//1 40//1 41//1
f 41//1 40//1 42//1
f 41//1 42//1 43//1
f 43//1 42//1 44//1
f 43//1 44//1 45//1
f 45//1 44//1 46//1
f 45//1 46//1 47//1
f 47//1 46//1 24//1
f 47//1 24//1 23//1
f 47//1 23//1 48//1
f 49//2 50//2 51//2
f 50//2 52//2 51//2
f 52//2 53//2 51//2
f 51//2 53//2 54//2
f 53//2 55//2 54//2
f 54//2 55//2 56//2
f 55//2 57//2 56//2
f 56//2 57//2 58//2
f 57//2 59//2 58//2
f 58//2 59//2 60//2
f 59//2 61//2 60//2
f 60//2 61//2 62//2
f 61//2 63//2 62//2
f 63//2 64//2 62//2
f 62//2 64//2 65//2
f 64//2 66//2 65//2
f 65//2 66//2 67//2
f 66//2 68//2 67//2
f 67//2 68//2 69//2
f 68//2 70//2 69//2
f 69//2 70//2 71//2
f 70//2 72//2 71//2
f 72//2 73//2 71//2
f 73//2 74//2 71//2
f 71//2 74//2 75//2
f 76//2 75//2 74//2
f 52//2 50//2 77//2
f 50//2 78//2 77//2
f 77//2 78//2 79//2
f 78//2 80//2 79//2
f 79//2 80//2 81//2
f 80//2 82//2 81//2
f 81//2 82//2 83//2
f 82//2 84//2 83//2
f 83//2 84//2 85//2
f 85//2 84//2 86//2
f 84//2 87//2 86//2
f 86//2 87//2 88//2
f 87//2 89//2 88//2
f 88//2 89//2 90//2
f 89//2 91//2 90//2
f 90//2 91//2 92//2
f 91//2 93//2 92//2
f 92//2 93//2 94//2
f 93//2 95//2 94//2
f 94//2 95//2 96//2
f 96//2 95//2 73//2
f 74//2 73//2 95//2
f 97//3 98//4 99//4
f 98//4 97//3 100//3
f 101//5 102//5 103//6
f 104//6 103//6 102//5
f 105//7 100//3 97//3
f 100//3 105//7 106//7
f 107//8 108//8 101//5
f 102//5 101//5 108//8
f 109//9 105//7 110//9
f 105//7 109//9 106//7
f 107//8 111//10 108//8
f 112//10 108//8 111//10
f 113//11 110//9 114//11
f 110//9 113//11 109//9
f 111//10 115//12 112//10
f 116//12 112//10 115//12
f 117//13 114//11 118//13
f 114//11 117//13 113//11
f 115//12 119//14 116//12
f 120//14 116//12 119//14
f 121//15 118//13 122//15
f 118//13 121//15 117//13
f 119//14 123//16 120//14
f 124//16 120//14 123//16
f 125//17 122//15 126//17
f 122//15 125//17 121//15
f 123//16 127//18 124//16
f 128//18 124//16 127//18
f 129//19 126//17 130//19
f 126//17 129//19 125//17
f 127//18 131//20 128//18
f 132//20 128//18 131//20
f 129//19 133//21 134//21
f 133//21 129//19 130//19
f 132//20 131//20 135//22
f 136//22 135//22 131//20
f 134//21 137//23 138//23
f 137//23 134//21 133//21
f 135//22 136//22 139//24
f 140//24 139//24 136//22
f 138//23 141//25 142//25
f 141//25 138//23 137//23
f 139//24 140//24 143//26
f 144//26 143//26 140//24
f 142//25 145//6 146//6
f 145//6 142//25 141//25
f 143//26 144//26 147//4
f 148//4 147//4 144//26
f 146//6 149//5 150//5
f 149//5 146//6 145//6
f 147//4 148//4 151//3
f 152//3 151//3 148//4
f 150//5 153//8 154//8
f 153//8 150//5 149//5
f 151//3 152//3 155//7
f 156//7 155//7 152//3
f 157//10 153//8 158//10
f 153//8 157//10 154//8
f 156//7 159//9 155//7
f 160//9 155//7 159//9
f 161//12 158//10 162//12
f 158//10 161//12 157//10
f 159//9 163//11 160//9
f 164//11 160//9 163//11
f 165//14 162//12 166//14
f 162//12 165//14 161//12
f 163//11 167//13 164//11
f 168//13 164//11 167//13
f 169//16 166//14 170//16
f 166//14 169//16 165//14
f 167//13 171//15 168//13
f 172//15 168//13 171//15
f 173//18 170//16 174//18
f 170//16 173//18 169//16
f 171//15 175//17 172//15
f 176//17 172//15 175//17
f 177//20 174//18 178//20
f 174//18 177//20 173//18
f 175//17 179//19 176//17
f 180//19 176//17 179//19
f 181//22 177//20 178//20
f 177//20 181//22 182//22
f 183//21 184//21 179//19
f 180//19 179//19 184//21
f 185//24 182//22 181//22
f 182//22 185//24 186//24
f 187//23 188//23 183//21
f 184//21 183//21 188//23
f 189//26 186//24 185//24
f 186//24 189//26 190//26
f 191//25 192//25 187//23
f 188//23 187//23 192//25
f 99//4 190//26 189//26
f 190//26 99//4 98//4
f 103//6 104//6 191//25
f 192//25 191//25 104//6
f 193//1 194//1 195//1
f 194//1 193//1 196//1
f 196//1 193//1 197//1
f 197//1 193//1 198//1
f 197//1 198//1 199//1
f 199//1 198//1 200//1
f 199//1 200//1 201//1
f 201//1 200//1 202//1
f 201//1 202//1 203//1
f 203//1 202//1 204//1
f 203//1 204//1 205//1
f 205//1 204//1 206//1
f 205//1 206//1 207//1
f 207//1 206//1 208//1
f 208//1 206//1 209//1
f 208//1 209//1 210//1
f 210//1 209//1 211//1
f 210//1 211//1 212//1
f 212//1 211//1 213//1
f 212//1 213//1 214//1
f 214//1 213//1 215//1
f 214//1 215//1 216//1
f 195//1 217//1 218//1
f 217//1 195//1 219//1
f 219//1 195//1 194//1
f 219//1 194//1 220//1
f 219//1 220//1 221//1
f 219//1 221//1 222//1
f 222//1 221//1 223//1
f 222//1 223//1 224//1
f 224//1 223//1 225//1
f 224//1 225//1 226//1
f 226//1 225//1 227//1
f 226//1 227//1 228//1
f 228//1 227//1 229//1
f 228//1 229//1 230//1
f 228//1 230//1 231//1
f 231//1 230//1 232//1
f 231//1 232//1 233//1
f 233//1 232//1 234//1
f 233//1 234//1 235//1
f 235//1 234//1 236//1
f 235//1 236//1 237//1
f 237//1 236//1 238//1
f 237//1 238//1 239//1
f 239//1 238//1 216//1
f 239//1 216//1 215//1
f 239//1 215//1 240//1
f 241//2 242//2 243//2
f 242//2 244//2 243//2
f 244//2 245//2 243//2
f 243//2 245//2 246//2
f 245//2 247//2 246//2
f 246//2 247//2 248//2
f 247//2 249//2 248//2
f 248//2 249//2 250//2
f 249//2 251//2 250//2
f 250//2 251//2 252//2
f 251//2 253//2 252//2
f 252//2 253//2 254//2
f 253//2 255//2 254//2
f 255//2 256//2 254//2
f 254//2 256//2 257//2
f 256//2 258//2 257//2
f 257//2 258//2 259//2
f 258//2 260//2 259//2
f 259//2 260//2 261//2
f 260//2 262//2 261//2
f 261//2 262//2 263//2
f 262//2 264//2 263//2
f 264//2 265//2 263//2
f 265//2 266//2 263//2
f 263//2 266//2 267//2
f 268//2 267//2 266//2
f 244//2 242//2 269//2
f 242//2 270//2 269//2
f 269//2 270//2 271//2
f 270//2 272//2 271//2
f 271//2 272//2 273//2
f 272//2 274//2 273//2
f 273//2 274//2 275//2
f 274//2 276//2 275//2
f 275//2 276//2 277//2
f 277//2 276//2 278//2
f 276//2 279//2 278//2
f 278//2 279//2 280//2
f 279//2 281//2 280//2
f 280//2 281//2 282//2
f 281//2 283//2 282//2
f 282//2 283//2 284//2
f 283//2 285//2 284//2
f 284//2 285//2 286//2
f 285//2 287//2 286//2
f 286//2 287//2 288//2
f 288//2 287//2 265//2
f 266//2 265//2 287//2
