# SSTK version 0.8.0
# 38
mtllib original-38.mtl
o #ID191
v 0.03424546 0.81896285 -0.06473961
v 0.00408148 0.81899320 -0.06582353
v 0.01969503 0.81899146 -0.07090742
v 0.01788438 0.81900420 -0.06404351
v 0.04668797 0.81892303 -0.05518331
v 0.03062245 0.81893217 -0.05861453
v 0.04155171 0.81894619 -0.05015512
v 0.05625325 0.81893879 -0.04275059
v 0.05015457 0.81895234 -0.03912550
v 0.06234755 0.81899150 -0.02834427
v 0.05529853 0.81895332 -0.02642296
v 0.06424485 0.81900155 -0.01262416
v 0.05714400 0.81890377 -0.01274629
v 0.06232090 0.81896251 0.00284650
v 0.05543218 0.81899652 0.00108222
v 0.05014516 0.81891392 0.01391163
v 0.05621429 0.81886509 0.01750714
v 0.04166985 0.81893663 0.02477421
v 0.04666487 0.81901333 0.02996040
v 0.03071735 0.81894961 0.03326688
v 0.03413794 0.81888218 0.03939085
v 0.01779996 0.81896420 0.03853107
v 0.00408292 0.81892788 0.04030430
v 0.01977534 0.81897634 0.04548086
v -0.01146070 0.81900714 0.04553467
v 0.00415834 0.81888731 0.04748236
v -0.01157056 0.81896050 -0.07084735
v 0.00416249 0.81888065 -0.07281644
v -0.02594368 0.81891189 -0.06491574
v -0.00965598 0.81893822 -0.06395177
v -0.03849410 0.81893136 -0.05534999
v -0.02238029 0.81896998 -0.05861818
v -0.03334445 0.81900193 -0.05029965
v -0.04812933 0.81894395 -0.04286375
v -0.04179546 0.81901343 -0.03918609
v -0.05416778 0.81898459 -0.02823229
v -0.04713381 0.81900934 -0.02651700
v -0.05613691 0.81895367 -0.01264658
v -0.04887826 0.81893232 -0.01265508
v -0.05404555 0.81902086 0.00296542
v -0.04726250 0.81903541 0.00098028
v -0.04194059 0.81896016 0.01384387
v -0.04800753 0.81903511 0.01739992
v -0.03346040 0.81889984 0.02478069
v -0.03842791 0.81899160 0.02980789
v -0.02243624 0.81886973 0.03321844
v -0.02595266 0.81885308 0.03946996
v -0.00961908 0.81888615 0.03848240
v -0.01159227 0.81897265 0.04557541
v 0.00410628 0.81898313 0.04045506
v -0.02609830 0.81886819 0.03947563
v -0.00955467 0.81901483 0.03858468
v -0.02241888 0.81891817 0.03323388
v -0.03844175 0.81896390 0.02987856
v -0.03336868 0.81896763 0.02486657
v -0.04798901 0.81903315 0.01744696
v -0.04178505 0.81888349 0.01378050
v -0.05414589 0.81894019 0.00300179
v -0.04710747 0.81886198 0.00095693
v -0.04906876 0.81889531 -0.01262816
v -0.05619139 0.81888778 -0.01267766
v -0.04720285 0.81904845 -0.02643207
v -0.05408950 0.81893373 -0.02833614
v -0.04189841 0.81895211 -0.03916508
v -0.04803763 0.81896037 -0.04274578
v -0.03334785 0.81901387 -0.05023503
v -0.03844163 0.81902756 -0.05532208
v -0.02248810 0.81888774 -0.05861382
v -0.00971509 0.81899629 -0.06391371
v -0.02611325 0.81899520 -0.06479165
v 0.00411843 0.81894359 -0.06584126
v 0.01974339 0.81898558 -0.07095079
v -0.01155962 0.81897694 -0.07085334
v 0.00403609 0.81900863 -0.07300408
v 0.00401763 0.81903198 0.04755146
v 0.01963954 0.81891916 0.04547668
v 0.03429647 0.81891465 0.03953239
v 0.01788461 0.81894520 0.03861278
v 0.03057121 0.81899801 0.03328399
v 0.04664097 0.81891632 0.02992925
v 0.04159969 0.81885410 0.02477082
v 0.05632836 0.81888925 0.01751440
v 0.05004480 0.81905084 0.01383406
v 0.06217231 0.81885913 0.00298945
v 0.05536982 0.81896147 0.00095762
v 0.05722387 0.81889634 -0.01273884
v 0.06440746 0.81901616 -0.01266358
v 0.05539332 0.81901486 -0.02632905
v 0.06219181 0.81889348 -0.02830248
v 0.05009800 0.81893102 -0.03931092
v 0.05623681 0.81902108 -0.04278976
v 0.04164496 0.81892288 -0.05029418
v 0.04670562 0.81905096 -0.05524302
v 0.03056195 0.81899625 -0.05862167
v 0.01780060 0.81901357 -0.06396651
v 0.03415056 0.81890888 -0.06491686
v 0.06440579 0.81887425 -0.01266453
v 0.06222171 0.83514219 -0.02827283
v 0.06424223 0.83520845 -0.01258856
v 0.06236727 0.81896943 -0.02818061
v 0.06228652 0.81904075 -0.02817181
v 0.06436797 0.81886240 -0.01264045
v 0.06235911 0.83527577 -0.02834469
v 0.06429488 0.83508497 -0.01277665
v 0.06231519 0.83509915 0.00293016
v 0.06228373 0.81904759 0.00289943
v 0.06236653 0.81895115 0.00285881
v 0.06221884 0.83524423 0.00294066
v 0.05629299 0.81892330 0.01745071
v 0.05624890 0.83511622 0.01734795
v 0.05625908 0.81895584 0.01749478
v 0.05634057 0.83510990 0.01742123
v 0.04676265 0.83508345 0.02986166
v 0.04671596 0.81889503 0.02998729
v 0.04667087 0.81902173 0.02994234
v 0.04675103 0.83508330 0.02997629
v 0.03418449 0.83520650 0.03954484
v 0.03416044 0.81896375 0.03957371
v 0.03429789 0.81888987 0.03938197
v 0.03422544 0.83512924 0.03954167
v 0.01971527 0.83515169 0.04554159
v 0.01977231 0.81888998 0.04546345
v 0.01962224 0.81887715 0.04547732
v 0.01972090 0.83526571 0.04558882
v 0.00410652 0.83518059 0.04761779
v 0.00400540 0.81902693 0.04750139
v 0.00405212 0.81899605 0.04753110
v 0.00406184 0.83528133 0.04754704
v -0.01143679 0.83522209 0.04546496
v -0.01148838 0.81886577 0.04544182
v -0.01142378 0.81891904 0.04539936
v -0.01151935 0.83513567 0.04558086
v -0.02596935 0.83525972 0.03948219
v -0.02609473 0.81898533 0.03948390
v -0.02608264 0.81893724 0.03946502
v -0.02610555 0.83512846 0.03944139
v -0.03857521 0.83522743 0.02985372
v -0.03842850 0.81903551 0.02987866
v -0.03856248 0.81898910 0.02981789
v -0.03845651 0.83510613 0.02985829
v -0.04809581 0.81897571 0.01738914
v -0.04798467 0.83520476 0.01750356
v -0.04802864 0.81890674 0.01749153
v -0.04812166 0.83509396 0.01747247
v -0.05411401 0.81896702 0.00299527
v -0.05407314 0.83508890 0.00283536
v -0.05405117 0.81902694 0.00287186
v -0.05407992 0.83514584 0.00282512
v -0.05606088 0.81900411 -0.01262134
v -0.05605220 0.83514298 -0.01269533
v -0.05613028 0.81889748 -0.01265164
v -0.05615528 0.83518721 -0.01266223
v -0.05399297 0.83527641 -0.02825992
v -0.05412326 0.81896948 -0.02827610
v -0.05399649 0.81890437 -0.02836863
v -0.05401109 0.83512253 -0.02822605
v -0.04808158 0.83516617 -0.04277902
v -0.04801812 0.81897345 -0.04288897
v -0.04810348 0.81885107 -0.04272196
v -0.04797924 0.83522900 -0.04288182
v -0.03852221 0.83521475 -0.05531952
v -0.03848567 0.81891821 -0.05524533
v -0.03845011 0.81887125 -0.05534283
v -0.03854440 0.83519580 -0.05531516
v -0.02607371 0.83516832 -0.06485425
v -0.02605935 0.81902294 -0.06488077
v -0.02606192 0.83522158 -0.06480561
v -0.02607631 0.81886797 -0.06479678
v -0.01157688 0.83520839 -0.07077073
v -0.01142297 0.81889117 -0.07085474
v -0.01147910 0.83511202 -0.07077049
v -0.01150174 0.81895757 -0.07080113
v 0.00414312 0.83511134 -0.07286721
v 0.00416066 0.81888283 -0.07288670
v 0.00413478 0.83513828 -0.07295748
v 0.00406939 0.81898546 -0.07290730
v 0.01962528 0.83520120 -0.07079940
v 0.01976652 0.81886381 -0.07085488
v 0.01976297 0.83526710 -0.07092586
v 0.01977629 0.81885451 -0.07084995
v 0.03424080 0.83524641 -0.06487582
v 0.03429978 0.81885999 -0.06486785
v 0.03421460 0.83509602 -0.06492964
v 0.03415404 0.81891350 -0.06486417
v 0.04667337 0.83512587 -0.05531975
v 0.04660631 0.81894666 -0.05523902
v 0.04674387 0.83510250 -0.05532995
v 0.04672764 0.81889135 -0.05536146
v 0.05625205 0.81893206 -0.04284723
v 0.05628616 0.83515606 -0.04286267
v 0.05623727 0.81888606 -0.04289038
v 0.05624300 0.83517317 -0.04288873
vn 0 -1 0
vn 0 1 0
vn 1 0 0
vn 0.965925835803673 0 -0.25881900959353
vn -0.965925835803673 0 0.25881900959353
vn -1 0 0
vn 0.9659258358036561 0 0.2588190095935933
vn -0.9659258358036561 0 -0.2588190095935933
vn 0.8660254028383126 0 0.5000000016387384
vn -0.8660254028383126 0 -0.5000000016387384
vn 0.7071067811865245 0 0.7071067811865708
vn -0.7071067811865245 0 -0.7071067811865708
vn 0.5000000016386817 0 0.8660254028383453
vn -0.5000000016386817 0 -0.8660254028383453
vn 0.2588190095935301 0 0.965925835803673
vn -0.2588190095935301 0 -0.965925835803673
vn 0 0 1
vn 0 0 -1
vn -0.25881900959359316 0 0.9659258358036561
vn 0.25881900959359316 0 -0.9659258358036561
vn -0.5000000016387384 0 0.8660254028383126
vn 0.5000000016387384 0 -0.8660254028383126
vn -0.7071067811865707 0 0.7071067811865244
vn 0.7071067811865707 0 -0.7071067811865244
vn -0.8660254028383453 0 0.5000000016386816
vn 0.8660254028383453 0 -0.5000000016386816
usemtl material_0_0
f 1//1 2//1 3//1
f 2//1 1//1 4//1
f 4//1 1//1 5//1
f 4//1 5//1 6//1
f 6//1 5//1 7//1
f 7//1 5//1 8//1
f 7//1 8//1 9//1
f 9//1 8//1 10//1
f 9//1 10//1 11//1
f 11//1 10//1 12//1
f 11//1 12//1 13//1
f 13//1 12//1 14//1
f 13//1 14//1 15//1
f 15//1 14//1 16//1
f 16//1 14//1 17//1
f 16//1 17//1 18//1
f 18//1 17//1 19//1
f 18//1 19//1 20//1
f 20//1 19//1 21//1
f 20//1 21//1 22//1
f 22//1 21//1 23//1
f 23//1 21//1 24//1
f 23//1 24//1 25//1
f 25//1 24//1 26//1
f 3//1 27//1 28//1
f 27//1 3//1 29//1
f 29//1 3//1 2//1
f 29//1 2//1 30//1
f 29//1 30//1 31//1
f 31//1 30//1 32//1
f 31//1 32//1 33//1
f 31//1 33//1 34//1
f 34//1 33//1 35//1
f 34//1 35//1 36//1
f 36//1 35//1 37//1
f 36//1 37//1 38//1
f 38//1 37//1 39//1
f 38//1 39//1 40//1
f 40//1 39//1 41//1
f 40//1 41//1 42//1
f 40//1 42//1 43//1
f 43//1 42//1 44//1
f 43//1 44//1 45//1
f 45//1 44//1 46//1
f 45//1 46//1 47//1
f 47//1 46//1 48//1
f 47//1 48//1 23//1
f 47//1 23//1 25//1
f 49//2 50//2 51//2
f 50//2 52//2 51//2
f 52//2 53//2 51//2
f 51//2 53//2 54//2
f 53//2 55//2 54//2
f 54//2 55//2 56//2
f 55//2 57//2 56//2
f 56//2 57//2 58//2
f 57//2 59//2 58//2
f 59//2 60//2 58//2
f 58//2 60//2 61//2
f 60//2 62//2 61//2
f 61//2 62//2 63//2
f 62//2 64//2 63//2
f 63//2 64//2 65//2
f 64//2 66//2 65//2
f 65//2 66//2 67//2
f 66//2 68//2 67//2
f 68//2 69//2 67//2
f 67//2 69//2 70//2
f 69//2 71//2 70//2
f 71//2 72//2 70//2
f 70//2 72//2 73//2
f 74//2 73//2 72//2
f 75//2 76//2 49//2
f 49//2 76//2 50//2
f 76//2 77//2 50//2
f 50//2 77//2 78//2
f 78//2 77//2 79//2
f 77//2 80//2 79//2
f 79//2 80//2 81//2
f 80//2 82//2 81//2
f 81//2 82//2 83//2
f 82//2 84//2 83//2
f 83//2 84//2 85//2
f 85//2 84//2 86//2
f 84//2 87//2 86//2
f 86//2 87//2 88//2
f 87//2 89//2 88//2
f 88//2 89//2 90//2
f 89//2 91//2 90//2
f 90//2 91//2 92//2
f 91//2 93//2 92//2
f 92//2 93//2 94//2
f 94//2 93//2 95//2
f 93//2 96//2 95//2
f 95//2 96//2 71//2
f 72//2 71//2 96//2
f 97//3 98//4 99//3
f 98//4 97//3 100//4
f 101//5 102//6 103//5
f 104//6 103//5 102//6
f 105//7 97//3 99//3
f 97//3 105//7 106//7
f 107//8 108//8 102//6
f 104//6 102//6 108//8
f 109//9 105//7 110//9
f 105//7 109//9 106//7
f 107//8 111//10 108//8
f 112//10 108//8 111//10
f 113//11 109//9 110//9
f 109//9 113//11 114//11
f 115//12 116//12 111//10
f 112//10 111//10 116//12
f 117//13 114//11 113//11
f 114//11 117//13 118//13
f 119//14 120//14 115//12
f 116//12 115//12 120//14
f 121//15 118//13 117//13
f 118//13 121//15 122//15
f 123//16 124//16 119//14
f 120//14 119//14 124//16
f 125//17 122//15 121//15
f 122//15 125//17 126//17
f 127//18 128//18 123//16
f 124//16 123//16 128//18
f 129//19 126//17 125//17
f 126//17 129//19 130//19
f 131//20 132//20 127//18
f 128//18 127//18 132//20
f 133//21 130//19 129//19
f 130//19 133//21 134//21
f 135//22 136//22 131//20
f 132//20 131//20 136//22
f 137//23 134//21 133//21
f 134//21 137//23 138//23
f 139//24 140//24 135//22
f 136//22 135//22 140//24
f 141//25 137//23 142//25
f 137//23 141//25 138//23
f 139//24 143//26 140//24
f 144//26 140//24 143//26
f 145//5 142//25 146//5
f 142//25 145//5 141//25
f 143//26 147//4 144//26
f 148//4 144//26 147//4
f 149//6 146//5 150//6
f 146//5 149//6 145//5
f 147//4 151//3 148//4
f 152//3 148//4 151//3
f 153//8 149//6 150//6
f 149//6 153//8 154//8
f 155//7 156//7 151//3
f 152//3 151//3 156//7
f 157//10 154//8 153//8
f 154//8 157//10 158//10
f 159//9 160//9 155//7
f 156//7 155//7 160//9
f 161//12 158//10 157//10
f 158//10 161//12 162//12
f 163//11 164//11 159//9
f 160//9 159//9 164//11
f 162//12 165//14 166//14
f 165//14 162//12 161//12
f 164//11 163//11 167//13
f 168//13 167//13 163//11
f 166//14 169//16 170//16
f 169//16 166//14 165//14
f 167//13 168//13 171//15
f 172//15 171//15 168//13
f 170//16 173//18 174//18
f 173//18 170//16 169//16
f 171//15 172//15 175//17
f 176//17 175//17 172//15
f 174//18 177//20 178//20
f 177//20 174//18 173//18
f 175//17 176//17 179//19
f 180//19 179//19 176//17
f 178//20 181//22 182//22
f 181//22 178//20 177//20
f 179//19 180//19 183//21
f 184//21 183//21 180//19
f 182//22 185//24 186//24
f 185//24 182//22 181//22
f 183//21 184//21 187//23
f 188//23 187//23 184//21
f 189//26 185//24 190//26
f 185//24 189//26 186//24
f 188//23 191//25 187//23
f 192//25 187//23 191//25
f 98//4 189//26 190//26
f 189//26 98//4 100//4
f 101//5 103//5 191//25
f 192//25 191//25 103//5
