# SSTK version 0.8.0
# 31
mtllib original-31.mtl
o #ID149
v -0.04212081 0.86762868 -0.09284236
v 0.00401753 0.86763029 -0.09373978
v -0.01988251 0.86773419 -0.10205862
v -0.01687880 0.86761331 -0.09102740
v -0.06128136 0.86761403 -0.07814117
v -0.03648820 0.86760473 -0.08293328
v -0.05332946 0.86760711 -0.06999003
v -0.07606725 0.86762054 -0.05903004
v -0.06619268 0.86757987 -0.05316104
v -0.08525715 0.86758917 -0.03657083
v -0.07436098 0.86764991 -0.03363745
v -0.08850105 0.86758507 -0.01259757
v -0.07697286 0.86761490 -0.01262331
v -0.08525045 0.86761533 0.01120233
v -0.07420170 0.86755141 0.00827726
v -0.06621669 0.86766509 0.02790777
v -0.07605198 0.86755269 0.03364153
v -0.05319261 0.86758558 0.04469245
v -0.06847845 0.86756496 0.05682645
v -0.03639115 0.86772438 0.05768835
v -0.06152129 0.86758771 0.08040356
v -0.01690099 0.86765525 0.06565143
v 0.00407025 0.86760185 0.06844679
v 0.02798722 0.86755511 -0.10206211
v 0.00411104 0.86759738 -0.10526310
v 0.05042414 0.86765156 -0.09278817
v 0.02503510 0.86764170 -0.09099539
v 0.06952557 0.86764263 -0.07817815
v 0.04471873 0.86759963 -0.08286981
v 0.06152605 0.86771317 -0.07009615
v 0.08414929 0.86757730 -0.05888268
v 0.07428540 0.86756586 -0.05328707
v 0.09349619 0.86766034 -0.03654164
v 0.08254229 0.86757554 -0.03360459
v 0.09667248 0.86754854 -0.01259261
v 0.08521907 0.86771271 -0.01274477
v 0.08248551 0.86772774 0.00838205
v 0.09338335 0.86760126 0.01132786
v 0.07434539 0.86756306 0.02789108
v 0.08424314 0.86758742 0.03352454
v 0.06150525 0.86769323 0.04468974
v 0.07675702 0.86765025 0.05682569
v 0.04468723 0.86764624 0.05754310
v 0.06976338 0.86761535 0.08048314
v 0.02508652 0.86773433 0.06570573
v -0.05527233 0.86769727 0.10403317
v 0.06350806 0.86769861 0.10414613
v -0.04974398 0.86764659 0.12794577
v 0.05774954 0.86761155 0.12797850
v -0.04460275 0.86771216 0.15191946
v 0.05281375 0.86766492 0.15181704
v -0.04044305 0.86757164 0.17594344
v 0.04847337 0.86769810 0.17608967
v -0.03670184 0.86773641 0.20025278
v 0.04484300 0.86765720 0.20032901
v 0.04184738 0.86770142 0.22465608
v -0.03379724 0.86755840 0.22456847
v 0.03962213 0.86756124 0.24899468
v -0.03136267 0.86768440 0.24906847
v 0.03787531 0.86768398 0.27335081
v -0.02965223 0.86767376 0.27347989
v 0.03694710 0.86762160 0.29787304
v -0.02876628 0.86763741 0.29795485
v 0.03653353 0.86759976 0.32248691
v -0.02846563 0.86766165 0.32236758
v -0.02842073 0.86758955 0.51757908
v 0.03652177 0.86769267 0.51744258
v 0.03656648 0.86761650 0.51753327
v -0.02832222 0.86765938 0.51750813
v 0.03655800 0.86757125 0.32240612
v -0.02845239 0.86759925 0.32242358
v -0.02878732 0.86759178 0.29799030
v 0.03679033 0.86766934 0.29799075
v -0.02976294 0.86757319 0.27335078
v 0.03781737 0.86763000 0.27345287
v -0.03132890 0.86754881 0.24896832
v 0.03953205 0.86765006 0.24888344
v -0.03365670 0.86772224 0.22451217
v 0.04196524 0.86759711 0.22450161
v -0.03674161 0.86766698 0.20034582
v 0.04495316 0.86765112 0.20024018
v 0.04860613 0.86763056 0.17603450
v -0.04045547 0.86761111 0.17600574
v 0.05294777 0.86755305 0.15191573
v -0.04465965 0.86774092 0.15195093
v 0.05776997 0.86761114 0.12788016
v -0.04968612 0.86762445 0.12795180
v 0.06350170 0.86770125 0.10404289
v -0.05531446 0.86763108 0.10417271
v 0.06978375 0.86765783 0.08033768
v -0.06155071 0.86762399 0.08044295
v 0.00410325 0.86773808 0.06837878
v 0.02511024 0.86766474 0.06567648
v 0.04474922 0.86772205 0.05754504
v 0.07672279 0.86762410 0.05686891
v 0.06142002 0.86757163 0.04474821
v 0.08417959 0.86769192 0.03359837
v 0.07430090 0.86757924 0.02782571
v 0.09348631 0.86761547 0.01124574
v 0.08245466 0.86755607 0.00827867
v 0.09669740 0.86773712 -0.01276664
v 0.08533039 0.86766127 -0.01264839
v 0.08252182 0.86771898 -0.03367114
v 0.09343898 0.86761491 -0.03667064
v 0.07436517 0.86754828 -0.05335004
v 0.08426467 0.86762721 -0.05893883
v 0.06155060 0.86762054 -0.07012133
v 0.06944245 0.86771546 -0.07819195
v 0.04476862 0.86771982 -0.08288614
v 0.02512487 0.86754577 -0.09110685
v 0.05031983 0.86764732 -0.09271810
v 0.00407280 0.86758257 -0.09383655
v -0.01987580 0.86766442 -0.10204233
v 0.02800222 0.86768820 -0.10204590
v 0.00413503 0.86760337 -0.10518844
v -0.01693030 0.86761510 0.06562048
v -0.03643195 0.86772399 0.05769310
v -0.06856012 0.86765467 0.05686283
v -0.05330874 0.86761569 0.04471352
v -0.07608424 0.86763387 0.03363752
v -0.06611694 0.86760203 0.02799161
v -0.08533888 0.86763202 0.01125879
v -0.07427169 0.86768573 0.00833163
v -0.07696922 0.86757122 -0.01267410
v -0.08835392 0.86756669 -0.01262892
v -0.07437906 0.86758928 -0.03366426
v -0.08530149 0.86755924 -0.03666655
v -0.06619345 0.86766243 -0.05328492
v -0.07612424 0.86765829 -0.05887359
v -0.05319554 0.86757014 -0.07005819
v -0.06140061 0.86765419 -0.07810009
v -0.03638458 0.86760566 -0.08297179
v -0.01698479 0.86764747 -0.09097555
v -0.04222068 0.86761247 -0.09276151
v -0.02846026 0.81902435 0.32238244
v -0.02831402 0.86767815 0.51756166
v -0.02829333 0.86758801 0.32232968
v -0.02843071 0.86568295 0.52351086
v -0.02844501 0.86319469 0.52929787
v -0.02835920 0.86048708 0.53492989
v -0.02836771 0.85713919 0.54034674
v -0.02831085 0.85349297 0.54536337
v -0.02836687 0.84952997 0.55012552
v -0.02830368 0.84514190 0.55468149
v -0.02834115 0.84051434 0.55877651
v -0.02832382 0.83554509 0.56269264
v -0.02841356 0.83023214 0.56602459
v -0.02837795 0.82461283 0.56908136
v -0.02832758 0.81904693 0.57163768
v -0.02829407 0.81901585 0.57171390
v -0.02830595 0.81889562 0.32230112
v -0.02827087 0.82472650 0.56898232
v -0.02843244 0.83028131 0.56603947
v -0.02841087 0.83549727 0.56271341
v -0.02827232 0.84054707 0.55884181
v -0.02840219 0.84508677 0.55462280
v -0.02843975 0.84950440 0.55028013
v -0.02842716 0.85363950 0.54535778
v -0.02833202 0.85729040 0.54027286
v -0.02836914 0.86036290 0.53492668
v -0.02844981 0.86324649 0.52924114
v -0.02826713 0.86575194 0.52344445
v -0.02837970 0.86772686 0.51758907
v -0.02845974 0.86760469 0.32233821
v 0.03656321 0.86575061 0.52356332
v -0.02841175 0.86563409 0.52346880
v -0.02838955 0.86561575 0.52345061
v 0.03648592 0.86571738 0.52338750
v 0.03663706 0.86573420 0.52348097
v 0.03646686 0.86759545 0.32234292
v 0.03660063 0.86758196 0.51752463
v 0.03662756 0.81889815 0.32230842
v 0.03665149 0.86334586 0.52935434
v 0.03662813 0.86054834 0.53485544
v 0.03646674 0.85712527 0.54023549
v 0.03654116 0.85363400 0.54547673
v 0.03656951 0.84960815 0.55029120
v 0.03660934 0.84522778 0.55477171
v 0.03661005 0.84042238 0.55895612
v 0.03655191 0.83550208 0.56259024
v 0.03652514 0.83025051 0.56602421
v 0.03653493 0.82467740 0.56912397
v 0.03650078 0.81893301 0.57159844
v 0.03654448 0.81885151 0.57158114
v 0.03657715 0.82470313 0.56905314
v 0.03650647 0.81893045 0.32234381
v 0.03655579 0.83014869 0.56616051
v 0.03663706 0.83545692 0.56269283
v 0.03652274 0.84055767 0.55896773
v 0.03655512 0.84515178 0.55461392
v 0.03652266 0.84961189 0.55010544
v 0.03658970 0.85348209 0.54533389
v 0.03663949 0.85717272 0.54032007
v 0.03660961 0.86042514 0.53486347
v 0.03647296 0.86337448 0.52922914
v 0.03657834 0.86576376 0.52343661
v 0.03662688 0.86770806 0.32238294
v 0.03655384 0.86763083 0.51748619
v 0.03690328 0.86766507 0.29793727
v 0.03683440 0.81885746 0.29785373
v 0.03680277 0.81890813 0.29797284
v 0.03684089 0.86769781 0.29784250
v 0.03781561 0.86762267 0.27332071
v 0.03791846 0.81895886 0.27348356
v 0.03792335 0.81888394 0.27342013
v 0.03797112 0.86772446 0.27343121
v 0.03955372 0.86765368 0.24892460
v 0.03947733 0.81897862 0.24892552
v 0.03950290 0.81903134 0.24895526
v 0.03961890 0.86758038 0.24892788
v 0.04181713 0.86756993 0.22464478
v 0.04190628 0.81892669 0.22461058
v 0.04185524 0.81904056 0.22459068
v 0.04180643 0.86774225 0.22459256
v 0.04486095 0.86766030 0.20027892
v 0.04480909 0.81897401 0.20017858
v 0.04495618 0.81891020 0.20023395
v 0.04489778 0.86771681 0.20020144
v 0.04851054 0.86774313 0.17613198
v 0.04854718 0.81896414 0.17602280
v 0.04860492 0.81885848 0.17607794
v 0.04852618 0.86766577 0.17594529
v 0.05287526 0.86758407 0.15198947
v 0.05290660 0.81902619 0.15182461
v 0.05296357 0.81902034 0.15186294
v 0.05290729 0.86767472 0.15187044
v 0.05783862 0.86765727 0.12782806
v 0.05780397 0.81899835 0.12798509
v 0.05789079 0.81894142 0.12799177
v 0.05775585 0.86770264 0.12785697
v 0.06344311 0.86766073 0.10412930
v 0.06346404 0.81896101 0.10406953
v 0.06340042 0.81899882 0.10413133
v 0.06353391 0.86764539 0.10401234
v 0.06974077 0.86766045 0.08035996
v 0.06981643 0.81901109 0.08049002
v 0.06975574 0.81901222 0.08045200
v 0.06972050 0.86761714 0.08034845
v 0.07675025 0.86768872 0.05687086
v 0.07661289 0.81894266 0.05688385
v 0.07660592 0.81904241 0.05686116
v 0.07670089 0.86768477 0.05694980
v 0.08426792 0.86767708 0.03352999
v 0.08425015 0.81885835 0.03355137
v 0.08420207 0.81886981 0.03357022
v 0.08431233 0.86769739 0.03348138
v 0.09352312 0.86764005 0.01127098
v 0.09352846 0.81900044 0.01129593
v 0.09341918 0.81887591 0.01122167
v 0.09349813 0.86772313 0.01129334
v 0.09660715 0.86756947 -0.01273900
v 0.09661841 0.81893296 -0.01276284
v 0.09669486 0.81899396 -0.01265599
v 0.09669421 0.86761331 -0.01264903
v 0.09339818 0.86759741 -0.03671851
v 0.09341172 0.81893871 -0.03666680
v 0.09342815 0.81898204 -0.03667686
v 0.09350956 0.86768099 -0.03658927
v 0.08417221 0.86756834 -0.05903520
v 0.08419980 0.81886683 -0.05889645
v 0.08417849 0.81893623 -0.05896277
v 0.08414936 0.86767360 -0.05903162
v 0.06959931 0.86760053 -0.07813720
v 0.06944804 0.81893881 -0.07801238
v 0.06958929 0.81896780 -0.07804555
v 0.06945938 0.86764523 -0.07815053
v 0.05042175 0.81886983 -0.09285129
v 0.05040756 0.86769870 -0.09278607
v 0.05036721 0.86762518 -0.09289410
v 0.05035012 0.81897706 -0.09285877
v 0.02794692 0.81903310 -0.10209278
v 0.02797925 0.86760494 -0.10200679
v 0.02811939 0.86765348 -0.10200176
v 0.02806187 0.81894990 -0.10205063
v 0.00408328 0.81895717 -0.10522240
v 0.00417142 0.86754462 -0.10527743
v 0.00413595 0.86760395 -0.10526608
v 0.00401917 0.81886665 -0.10522857
v -0.01980795 0.81900866 -0.10206837
v -0.01991578 0.86764623 -0.10206799
v -0.01982365 0.86767876 -0.10200469
v -0.01982660 0.81903707 -0.10197099
v -0.04219177 0.81898857 -0.09289436
v -0.04212513 0.86758475 -0.09276924
v -0.04216695 0.86760594 -0.09290684
v -0.04223987 0.81898558 -0.09282631
v -0.06126390 0.81891528 -0.07817442
v -0.06134572 0.86761954 -0.07803982
v -0.06130723 0.86764400 -0.07817630
v -0.06128569 0.81896567 -0.07807756
v -0.07611200 0.86768940 -0.05891210
v -0.07613083 0.81887614 -0.05893514
v -0.07600805 0.81895428 -0.05885044
v -0.07602054 0.86755175 -0.05886094
v -0.08532276 0.86757480 -0.03666216
v -0.08519870 0.81888979 -0.03666937
v -0.08527155 0.81899105 -0.03664752
v -0.08521382 0.86765218 -0.03666165
v -0.08850458 0.86767089 -0.01268265
v -0.08839747 0.81892944 -0.01275192
v -0.08844177 0.81887027 -0.01269352
v -0.08838233 0.86757066 -0.01270326
v -0.08527488 0.86762502 0.01136080
v -0.08524025 0.81893741 0.01117679
v -0.08536062 0.81889693 0.01135178
v -0.08534647 0.86760451 0.01135859
v -0.07594518 0.86770094 0.03353963
v -0.07598371 0.81898584 0.03349787
v -0.07601703 0.81886930 0.03359453
v -0.07611940 0.86770566 0.03359291
v -0.06842218 0.86760900 0.05680950
v -0.06844222 0.81904170 0.05695938
v -0.06845505 0.81901670 0.05692799
v -0.06852135 0.86767387 0.05690513
v -0.06163761 0.86773049 0.08039598
v -0.06153738 0.81897248 0.08040389
v -0.06153293 0.81902489 0.08033684
v -0.06157053 0.86767517 0.08030751
v -0.05530779 0.86773741 0.10417683
v -0.05536864 0.81895759 0.10410575
v -0.05532012 0.81898944 0.10407550
v -0.05536962 0.86769996 0.10414810
v -0.04967717 0.86768543 0.12782618
v -0.04972513 0.81902337 0.12787345
v -0.04973169 0.81894835 0.12797006
v -0.04962324 0.86756303 0.12802468
v -0.04466021 0.86756339 0.15191105
v -0.04477598 0.81885872 0.15188003
v -0.04477675 0.81885896 0.15198997
v -0.04472923 0.86774171 0.15191763
v -0.04035792 0.86756976 0.17608187
v -0.04042166 0.81886133 0.17600165
v -0.04031839 0.81887407 0.17602758
v -0.04040519 0.86772442 0.17612603
v -0.03679006 0.86755454 0.20017235
v -0.03676581 0.81886045 0.20021843
v -0.03676246 0.81894288 0.20031605
v -0.03679422 0.86773301 0.20023684
v -0.03367480 0.86764724 0.22459633
v -0.03366849 0.81891740 0.22452056
v -0.03371991 0.81898314 0.22452076
v -0.03375617 0.86765490 0.22458663
v -0.03128939 0.86770284 0.24889192
v -0.03142437 0.81890342 0.24896654
v -0.03144563 0.81898545 0.24891246
v -0.03134333 0.86759657 0.24888363
v -0.02979346 0.86765912 0.27343158
v -0.02974618 0.81898617 0.27346737
v -0.02966379 0.81888440 0.27332523
v -0.02972141 0.86768786 0.27333974
v -0.02872368 0.86758107 0.29781414
v -0.02875968 0.81899300 0.29794836
v -0.02878097 0.81887974 0.29793515
v -0.02871734 0.86759108 0.29779785
v 0.02794602 0.81887329 -0.10198914
v -0.01982837 0.81900074 -0.10200441
v 0.00401395 0.81900253 -0.10529146
v 0.05045317 0.81893490 -0.09285684
v 0.00414717 0.81894603 -0.09400884
v 0.02520670 0.81900436 -0.09136034
v 0.06942629 0.81893031 -0.07806293
v 0.04478915 0.81886209 -0.08321874
v 0.06165533 0.81894274 -0.07020914
v 0.08418169 0.81893545 -0.05893428
v 0.07456384 0.81902256 -0.05333475
v 0.09348075 0.81900967 -0.03671010
v 0.08268591 0.81894871 -0.03379389
v 0.09653600 0.81893622 -0.01275285
v 0.08540064 0.81893716 -0.01270850
v 0.09338610 0.81898957 0.01127529
v 0.08265788 0.81893903 0.00829301
v 0.07391770 0.81890849 0.02973176
v 0.08414769 0.81903705 0.03352733
v 0.06617242 0.81889221 0.05356049
v 0.07665880 0.81891826 0.05683926
v 0.05910647 0.81904564 0.07740101
v 0.06967488 0.81889434 0.08039438
v 0.05273557 0.81886265 0.10144748
v 0.06341915 0.81894444 0.10412559
v 0.04696842 0.81902825 0.12553058
v 0.05780558 0.81891715 0.12791303
v 0.04205554 0.81891279 0.14981673
v 0.05296095 0.81902062 0.15192966
v 0.03769447 0.81900673 0.17426521
v 0.04863773 0.81887254 0.17610990
v 0.03386553 0.81894794 0.19883242
v 0.04483519 0.81904155 0.20032650
v 0.03096023 0.81898017 0.22347102
v 0.04190556 0.81898119 0.22465381
v 0.02846899 0.81885580 0.24803374
v 0.03956783 0.81889289 0.24906802
v 0.02682578 0.81885239 0.27290622
v 0.03779338 0.81885787 0.27331975
v 0.02586858 0.81900670 0.29753256
v 0.03692459 0.81895822 0.29791375
v 0.02547689 0.81899149 0.32222802
v 0.03660690 0.81893342 0.32244614
v 0.02556369 0.81901480 0.56047521
v 0.03652245 0.81904786 0.57165186
v -0.01726523 0.81890911 0.56063396
v -0.04220114 0.81901875 -0.09289490
v -0.01693666 0.81890968 -0.09121679
v -0.06123752 0.81903158 -0.07817734
v -0.03659635 0.81891881 -0.08323544
v -0.05334596 0.81888299 -0.07019621
v -0.07606488 0.81904551 -0.05885895
v -0.06646340 0.81885535 -0.05332910
v -0.08534166 0.81898081 -0.03659765
v -0.07442945 0.81902248 -0.03371488
v -0.08837017 0.81890823 -0.01273519
v -0.07726397 0.81899371 -0.01258324
v -0.08525199 0.81902887 0.01121218
v -0.07441032 0.81886156 0.00841876
v -0.06572191 0.81902142 0.02983391
v -0.07597513 0.81887333 0.03355579
v -0.05781661 0.81885104 0.05362794
v -0.06856755 0.81901313 0.05684777
v -0.05096965 0.81893367 0.07731677
v -0.06151649 0.81893115 0.08047235
v -0.04447733 0.81891583 0.10137866
v -0.05538263 0.81904587 0.10404363
v -0.03895135 0.81902476 0.12549074
v -0.04959664 0.81885236 0.12795570
v -0.03388159 0.81887817 0.14988121
v -0.04464620 0.81901643 0.15197950
v -0.02940763 0.81894176 0.17420275
v -0.04038403 0.81887621 0.17611210
v -0.02575696 0.81898218 0.19885422
v -0.03672587 0.81887805 0.20029399
v -0.02264065 0.81901048 0.22337634
v -0.03364624 0.81900736 0.22456765
v -0.02037862 0.81891493 0.24807782
v -0.03129005 0.81892106 0.24906540
v -0.01863790 0.81888358 0.27277463
v -0.02968247 0.81899543 0.27336790
v -0.01768247 0.81893751 0.29768193
v -0.02879802 0.81902359 0.29795729
v -0.01733573 0.81892733 0.32237425
v -0.02833565 0.81885680 0.32239880
v -0.02843235 0.81902884 0.57168224
v 0.03648284 0.81892562 0.57165413
v -0.01721289 0.81904406 0.56058726
v -0.02831957 0.81892783 0.57157521
v -0.02836533 0.81886594 0.32235109
v -0.01727270 0.81895389 0.32233467
v -0.02869906 0.81889356 0.29799358
v -0.01762260 0.81896538 0.29749988
v -0.02979707 0.81900570 0.27335245
v -0.01866675 0.81888880 0.27285732
v -0.03145591 0.81889157 0.24895924
v -0.02042320 0.81904330 0.24797577
v -0.03373844 0.81904943 0.22457961
v -0.02270409 0.81892307 0.22333931
v -0.03667987 0.81897821 0.20034819
v -0.02567128 0.81901759 0.19881396
v -0.04033078 0.81901182 0.17595305
v -0.02951252 0.81885658 0.17430438
v -0.04470018 0.81889692 0.15195619
v -0.03383623 0.81890151 0.14973661
v -0.04961430 0.81887300 0.12792100
v -0.03881816 0.81885223 0.12555883
v -0.05526837 0.81903018 0.10411387
v -0.04458364 0.81898069 0.10141822
v -0.06159522 0.81898270 0.08036286
v -0.05090843 0.81893830 0.07732654
v -0.06850527 0.81901069 0.05696020
v -0.05789951 0.81892412 0.05357919
v -0.07608633 0.81894764 0.03362527
v -0.06568371 0.81890589 0.02981650
v -0.08518894 0.81904558 0.01130535
v -0.07443611 0.81895961 0.00828955
v -0.07737025 0.81889850 -0.01277992
v -0.08847695 0.81900110 -0.01275211
v -0.07445985 0.81897267 -0.03381420
v -0.08537599 0.81891793 -0.03657974
v -0.06636911 0.81888842 -0.05330547
v -0.07603169 0.81904883 -0.05899326
v -0.05346554 0.81890242 -0.07031166
v -0.06136526 0.81903881 -0.07813073
v -0.03653876 0.81897150 -0.08310309
v -0.01696441 0.81900394 -0.09137437
v -0.04213092 0.81886831 -0.09290519
v 0.00400724 0.81894858 -0.09413952
v -0.01988879 0.81898633 -0.10210919
v 0.02546126 0.81900327 0.56056948
v 0.03665483 0.81888818 0.32244192
v 0.02541871 0.81891066 0.32225888
v 0.03683213 0.81892166 0.29782346
v 0.02584164 0.81892058 0.29753469
v 0.03794070 0.81885629 0.27340046
v 0.02694565 0.81887964 0.27273783
v 0.03956594 0.81887915 0.24900384
v 0.02855653 0.81899267 0.24812307
v 0.04196886 0.81901099 0.22457287
v 0.03089571 0.81890802 0.22334073
v 0.04485834 0.81887005 0.20020576
v 0.03389796 0.81893679 0.19868380
v 0.04859756 0.81897882 0.17601952
v 0.03763711 0.81887535 0.17429668
v 0.05290285 0.81900545 0.15184971
v 0.04197290 0.81896120 0.14991328
v 0.05777027 0.81888778 0.12782861
v 0.04704924 0.81894518 0.12543717
v 0.06337540 0.81891009 0.10402814
v 0.05280466 0.81897928 0.10146439
v 0.06977164 0.81901054 0.08031020
v 0.05915888 0.81890658 0.07732549
v 0.07657368 0.81890990 0.05682382
v 0.06606274 0.81897743 0.05366848
v 0.08431774 0.81900416 0.03362295
v 0.07379105 0.81892392 0.02974868
v 0.09348963 0.81885726 0.01125638
v 0.08265483 0.81890995 0.00841447
v 0.08545044 0.81896935 -0.01267324
v 0.09667510 0.81885948 -0.01271704
v 0.08273588 0.81887899 -0.03368100
v 0.09352076 0.81903102 -0.03655043
v 0.07461207 0.81900473 -0.05341776
v 0.08430943 0.81899058 -0.05884777
v 0.06163936 0.81894064 -0.07018605
v 0.06943143 0.81896981 -0.07807314
v 0.04485082 0.81890741 -0.08312135
v 0.02507037 0.81904575 -0.09121739
v 0.05028241 0.81899839 -0.09287637
v 0.02812161 0.81892792 -0.10212861
v 0.00402272 0.81895496 -0.10530176
v -0.02833389 0.82466236 0.56907051
v 0.03645653 0.81886102 0.57170783
v 0.03647960 0.82458870 0.56903154
v -0.02830643 0.81892314 0.57166000
v -0.02834427 0.81896204 0.57167668
v -0.02834011 0.82471622 0.56902712
v 0.03648883 0.81886204 0.57170758
v 0.03650772 0.82458416 0.56902904
v 0.03665315 0.83013810 0.56611874
v -0.02843552 0.83022504 0.56598788
v -0.02834402 0.83013150 0.56607998
v 0.03654843 0.83011025 0.56599790
v -0.02829106 0.83544201 0.56265027
v 0.03657962 0.83552472 0.56260631
v -0.02842268 0.83549986 0.56267210
v 0.03663007 0.83550746 0.56256460
v 0.03654401 0.84049969 0.55891591
v 0.00463084 0.84052580 0.55882115
v -0.02829056 0.84043554 0.55882131
v -0.02844851 0.84050267 0.55891106
v 0.00461162 0.84046750 0.55885416
v 0.03654824 0.84042783 0.55892083
v 0.03663031 0.84519160 0.55476956
v -0.02836899 0.84522048 0.55480176
v -0.02844030 0.84522017 0.55465182
v 0.03658704 0.84524604 0.55467787
v -0.02830749 0.84959301 0.55026107
v 0.03661520 0.84951963 0.55022753
v -0.02838836 0.84952547 0.55018461
v 0.03661813 0.84958367 0.55021735
v -0.02827524 0.85358943 0.54536201
v 0.03645889 0.85363411 0.54545213
v -0.02828197 0.85365067 0.54534393
v 0.03663499 0.85357241 0.54543810
v -0.02842925 0.85718921 0.54035451
v 0.03657431 0.85731028 0.54026296
v -0.02844572 0.85720995 0.54019168
v 0.03664244 0.85727108 0.54026876
v -0.02839962 0.86051691 0.53480764
v 0.03652789 0.86047525 0.53482615
v -0.02829459 0.86055378 0.53498320
v 0.03655255 0.86046414 0.53491878
v -0.02845470 0.86329829 0.52932841
v 0.03650608 0.86320733 0.52920446
v -0.02834354 0.86333181 0.52928674
v 0.03647107 0.86332894 0.52924548
vn 0 1 0
vn 0 0.9875224802565322 0.1574780968515519
vn 0 -0.9875224802565322 -0.1574780968515519
vn 0 -1 0
vn -0.9999767771077844 0 0.0068150748439514625
vn -1 0 0
vn 1 0 0
vn 0.9999767771077844 0 -0.0068150748439514625
vn 0 0.9379475285154388 0.3467772105427057
vn 0 -0.9379475285154388 -0.3467772105427057
vn 0.999976777107784 0 0.006815074844016964
vn -0.999976777107784 0 -0.006815074844016964
vn 0.999628455442518 0 0.02725712878507232
vn -0.999628455442518 0 -0.02725712878507232
vn 0.9985140974913863 0 0.05449400986312495
vn -0.9985140974913863 0 -0.05449400986312495
vn 0.9966577542768289 0 0.08169039625236325
vn -0.9966577542768289 0 -0.08169039625236325
vn 0.9940608029136633 0 0.10882610031901004
vn -0.9940608029136633 0 -0.10882610031901004
vn 0.9907251797397401 0 0.1358808972212783
vn -0.9907251797397401 0 -0.1358808972212783
vn 0.9866533648476817 0 0.1628346941985864
vn -0.9866533648476817 0 -0.1628346941985864
vn 0.9818483611814808 0 0.18966759250130405
vn -0.9818483611814808 0 -0.18966759250130405
vn 0.9763137661655031 0 0.21635949250201927
vn -0.9763137661655031 0 -0.21635949250201927
vn 0.9700536881400914 0 0.24289059703044524
vn -0.9700536881400914 0 -0.24289059703044524
vn 0.9630727539046675 0 0.26924128711339945
vn -0.9630727539046675 0 -0.26924128711339945
vn 0.9553762004615899 0 0.2953918001427528
vn -0.9553762004615899 0 -0.2953918001427528
vn 0.9383061053432432 0 0.3458058019692478
vn -0.9383061053432432 0 -0.3458058019692478
vn 0.9659258358036561 0 0.2588190095935933
vn -0.9659258358036561 0 -0.2588190095935933
vn 0.965925835803673 0 -0.25881900959353
vn -0.965925835803673 0 0.25881900959353
vn 0.8660254028383453 0 -0.5000000016386816
vn -0.8660254028383453 0 0.5000000016386816
vn 0.7071067811865707 0 -0.7071067811865244
vn -0.7071067811865707 0 0.7071067811865244
vn 0.5000000016387384 0 -0.8660254028383126
vn -0.5000000016387384 0 0.8660254028383126
vn 0.25881900959359316 0 -0.9659258358036561
vn -0.25881900959359316 0 0.9659258358036561
vn 0 0 -1
vn 0 0 1
vn -0.2588190095935301 0 -0.965925835803673
vn 0.2588190095935301 0 0.965925835803673
vn -0.5000000016386817 0 -0.8660254028383453
vn 0.5000000016386817 0 0.8660254028383453
vn -0.7071067811865245 0 -0.7071067811865708
vn 0.7071067811865245 0 0.7071067811865708
vn -0.8660254028383126 0 -0.5000000016387384
vn 0.8660254028383126 0 0.5000000016387384
vn -0.9383061053432659 0 0.3458058019691863
vn 0.9383061053432659 0 -0.3458058019691863
vn -0.9553762004616094 0 0.29539180014269023
vn 0.9553762004616094 0 -0.29539180014269023
vn -0.963072753904685 0 0.2692412871133364
vn 0.963072753904685 0 -0.2692412871133364
vn -0.9700536881401074 0 0.24289059703038174
vn 0.9700536881401074 0 -0.24289059703038174
vn -0.9763137661655173 0 0.21635949250195533
vn 0.9763137661655173 0 -0.21635949250195533
vn -0.9818483611814932 0 0.1896675925012397
vn 0.9818483611814932 0 -0.1896675925012397
vn -0.9866533648476924 0 0.16283469419852178
vn 0.9866533648476924 0 -0.16283469419852178
vn -0.9907251797397489 0 0.1358808972212134
vn 0.9907251797397489 0 -0.1358808972212134
vn -0.9940608029136704 0 0.10882610031894492
vn 0.9940608029136704 0 -0.10882610031894492
vn -0.9966577542768342 0 0.08169039625229797
vn 0.9966577542768342 0 -0.08169039625229797
vn -0.9985140974913899 0 0.054494009863059543
vn 0.9985140974913899 0 -0.054494009863059543
vn -0.9996284554425198 0 0.027257128785006846
vn 0.9996284554425198 0 -0.027257128785006846
vn 0 0.44346479565708685 0.8962917912224891
vn 0 0.40922132371730197 0.9124351528821426
vn 0 -0.40922132371730197 -0.9124351528821426
vn 0 -0.44346479565708685 -0.8962917912224891
vn 0 0.5099966813525195 0.8601763685485765
vn 0 -0.5099966813525195 -0.8601763685485765
vn 1.0901407723540161e-7 0.5736584219023556 0.8190946312731436
vn -1.0901407723540161e-7 -0.5736584219023556 -0.8190946312731436
vn 2.114823733293113e-7 0.6339297963560302 0.7733905955543791
vn 2.114818727908294e-7 0.6339319947416973 0.7733887935849395
vn -2.114823733293113e-7 -0.6339297963560302 -0.7733905955543791
vn -2.114818727908294e-7 -0.6339319947416973 -0.7733887935849395
vn 1.0246947742325388e-7 0.690573408497899 0.7232623089001552
vn -1.0246947742325388e-7 -0.690573408497899 -0.7232623089001552
vn 0 0.7433482333226665 0.6689046299855239
vn 0 -0.7433482333226665 -0.6689046299855239
vn 0 0.7918194861798636 0.6107551893400962
vn 0 -0.7918194861798636 -0.6107551893400962
vn 0 0.8357529845551342 0.5491055898524303
vn 0 -0.8357529845551342 -0.5491055898524303
vn 0 0.8748969057593368 0.48430920318814724
vn 0 -0.8748969057593368 -0.48430920318814724
vn 0 0.9090269709382762 0.41673728667684906
vn 0 -0.9090269709382762 -0.41673728667684906
usemtl material_0_0
f 1//1 2//1 3//1
f 2//1 1//1 4//1
f 4//1 1//1 5//1
f 4//1 5//1 6//1
f 6//1 5//1 7//1
f 7//1 5//1 8//1
f 7//1 8//1 9//1
f 9//1 8//1 10//1
f 9//1 10//1 11//1
f 11//1 10//1 12//1
f 11//1 12//1 13//1
f 13//1 12//1 14//1
f 13//1 14//1 15//1
f 15//1 14//1 16//1
f 16//1 14//1 17//1
f 16//1 17//1 18//1
f 18//1 17//1 19//1
f 18//1 19//1 20//1
f 20//1 19//1 21//1
f 20//1 21//1 22//1
f 22//1 21//1 23//1
f 3//1 24//1 25//1
f 24//1 3//1 26//1
f 26//1 3//1 2//1
f 26//1 2//1 27//1
f 26//1 27//1 28//1
f 28//1 27//1 29//1
f 28//1 29//1 30//1
f 28//1 30//1 31//1
f 31//1 30//1 32//1
f 31//1 32//1 33//1
f 33//1 32//1 34//1
f 33//1 34//1 35//1
f 35//1 34//1 36//1
f 35//1 36//1 37//1
f 35//1 37//1 38//1
f 38//1 37//1 39//1
f 38//1 39//1 40//1
f 40//1 39//1 41//1
f 40//1 41//1 42//1
f 42//1 41//1 43//1
f 42//1 43//1 44//1
f 44//1 43//1 45//1
f 44//1 45//1 23//1
f 44//1 23//1 21//1
f 44//1 21//1 46//1
f 44//1 46//1 47//1
f 47//1 46//1 48//1
f 47//1 48//1 49//1
f 49//1 48//1 50//1
f 49//1 50//1 51//1
f 51//1 50//1 52//1
f 51//1 52//1 53//1
f 53//1 52//1 54//1
f 53//1 54//1 55//1
f 55//1 54//1 56//1
f 56//1 54//1 57//1
f 56//1 57//1 58//1
f 58//1 57//1 59//1
f 58//1 59//1 60//1
f 60//1 59//1 61//1
f 60//1 61//1 62//1
f 62//1 61//1 63//1
f 62//1 63//1 64//1
f 64//1 63//1 65//1
f 64//1 65//1 66//2
f 64//1 66//2 67//2
f 68//3 69//3 70//4
f 69//3 71//4 70//4
f 71//4 72//4 70//4
f 70//4 72//4 73//4
f 72//4 74//4 73//4
f 73//4 74//4 75//4
f 74//4 76//4 75//4
f 75//4 76//4 77//4
f 76//4 78//4 77//4
f 77//4 78//4 79//4
f 78//4 80//4 79//4
f 79//4 80//4 81//4
f 81//4 80//4 82//4
f 80//4 83//4 82//4
f 82//4 83//4 84//4
f 83//4 85//4 84//4
f 84//4 85//4 86//4
f 85//4 87//4 86//4
f 86//4 87//4 88//4
f 87//4 89//4 88//4
f 88//4 89//4 90//4
f 89//4 91//4 90//4
f 91//4 92//4 90//4
f 92//4 93//4 90//4
f 93//4 94//4 90//4
f 90//4 94//4 95//4
f 94//4 96//4 95//4
f 95//4 96//4 97//4
f 96//4 98//4 97//4
f 97//4 98//4 99//4
f 98//4 100//4 99//4
f 99//4 100//4 101//4
f 100//4 102//4 101//4
f 102//4 103//4 101//4
f 101//4 103//4 104//4
f 103//4 105//4 104//4
f 104//4 105//4 106//4
f 105//4 107//4 106//4
f 106//4 107//4 108//4
f 107//4 109//4 108//4
f 109//4 110//4 108//4
f 108//4 110//4 111//4
f 110//4 112//4 111//4
f 112//4 113//4 111//4
f 111//4 113//4 114//4
f 115//4 114//4 113//4
f 92//4 91//4 116//4
f 116//4 91//4 117//4
f 91//4 118//4 117//4
f 117//4 118//4 119//4
f 118//4 120//4 119//4
f 119//4 120//4 121//4
f 120//4 122//4 121//4
f 121//4 122//4 123//4
f 123//4 122//4 124//4
f 122//4 125//4 124//4
f 124//4 125//4 126//4
f 125//4 127//4 126//4
f 126//4 127//4 128//4
f 127//4 129//4 128//4
f 128//4 129//4 130//4
f 129//4 131//4 130//4
f 130//4 131//4 132//4
f 132//4 131//4 133//4
f 131//4 134//4 133//4
f 133//4 134//4 112//4
f 113//4 112//4 134//4
f 135//5 136//6 137//5
f 136//6 135//5 138//6
f 138//6 135//5 139//6
f 139//6 135//5 140//6
f 140//6 135//5 141//6
f 141//6 135//5 142//6
f 142//6 135//5 143//6
f 143//6 135//5 144//6
f 144//6 135//5 145//6
f 145//6 135//5 146//6
f 146//6 135//5 147//6
f 147//6 135//5 148//6
f 148//6 135//5 149//6
f 150//7 151//8 152//7
f 152//7 151//8 153//7
f 153//7 151//8 154//7
f 154//7 151//8 155//7
f 155//7 151//8 156//7
f 156//7 151//8 157//7
f 157//7 151//8 158//7
f 158//7 151//8 159//7
f 159//7 151//8 160//7
f 160//7 151//8 161//7
f 161//7 151//8 162//7
f 162//7 151//8 163//7
f 164//8 163//7 151//8
f 66//2 165//9 67//2
f 165//9 66//2 166//9
f 167//10 69//3 168//10
f 68//3 168//10 69//3
f 169//7 170//11 171//7
f 170//11 169//7 172//11
f 172//11 169//7 173//7
f 172//11 173//7 174//7
f 172//11 174//7 175//7
f 172//11 175//7 176//7
f 172//11 176//7 177//7
f 172//11 177//7 178//7
f 172//11 178//7 179//7
f 172//11 179//7 180//7
f 172//11 180//7 181//7
f 172//11 181//7 182//7
f 172//11 182//7 183//7
f 184//6 185//6 186//12
f 185//6 187//6 186//12
f 187//6 188//6 186//12
f 188//6 189//6 186//12
f 189//6 190//6 186//12
f 190//6 191//6 186//12
f 191//6 192//6 186//12
f 192//6 193//6 186//12
f 193//6 194//6 186//12
f 194//6 195//6 186//12
f 195//6 196//6 186//12
f 186//12 196//6 197//12
f 198//6 197//12 196//6
f 172//11 199//13 170//11
f 199//13 172//11 200//13
f 201//14 186//12 202//14
f 197//12 202//14 186//12
f 200//13 203//15 199//13
f 203//15 200//13 204//15
f 205//16 201//14 206//16
f 202//14 206//16 201//14
f 204//15 207//17 203//15
f 207//17 204//15 208//17
f 209//18 205//16 210//18
f 206//16 210//18 205//16
f 208//17 211//19 207//17
f 211//19 208//17 212//19
f 213//20 209//18 214//20
f 210//18 214//20 209//18
f 212//19 215//21 211//19
f 215//21 212//19 216//21
f 217//22 213//20 218//22
f 214//20 218//22 213//20
f 216//21 219//23 215//21
f 219//23 216//21 220//23
f 221//24 217//22 222//24
f 218//22 222//24 217//22
f 220//23 223//25 219//23
f 223//25 220//23 224//25
f 225//26 221//24 226//26
f 222//24 226//26 221//24
f 224//25 227//27 223//25
f 227//27 224//25 228//27
f 229//28 225//26 230//28
f 226//26 230//28 225//26
f 228//27 231//29 227//27
f 231//29 228//27 232//29
f 233//30 229//28 234//30
f 230//28 234//30 229//28
f 232//29 235//31 231//29
f 235//31 232//29 236//31
f 237//32 233//30 238//32
f 234//30 238//32 233//30
f 236//31 239//33 235//31
f 239//33 236//31 240//33
f 241//34 237//32 242//34
f 238//32 242//34 237//32
f 240//33 243//35 239//33
f 243//35 240//33 244//35
f 245//36 241//34 246//36
f 242//34 246//36 241//34
f 244//35 247//37 243//35
f 247//37 244//35 248//37
f 249//38 245//36 250//38
f 246//36 250//38 245//36
f 248//37 251//7 247//37
f 251//7 248//37 252//7
f 253//6 249//38 254//6
f 250//38 254//6 249//38
f 252//7 255//39 251//7
f 255//39 252//7 256//39
f 257//40 253//6 258//40
f 254//6 258//40 253//6
f 256//39 259//41 255//39
f 259//41 256//39 260//41
f 261//42 257//40 262//42
f 258//40 262//42 257//40
f 260//41 263//43 259//41
f 263//43 260//41 264//43
f 265//44 261//42 266//44
f 262//42 266//44 261//42
f 267//45 263//43 264//43
f 263//43 267//45 268//45
f 269//46 270//46 266//44
f 265//44 266//44 270//46
f 271//47 268//45 267//45
f 268//45 271//47 272//47
f 273//48 274//48 269//46
f 270//46 269//46 274//48
f 275//49 272//47 271//47
f 272//47 275//49 276//49
f 277//50 278//50 273//48
f 274//48 273//48 278//50
f 279//51 276//49 275//49
f 276//49 279//51 280//51
f 281//52 282//52 277//50
f 278//50 277//50 282//52
f 283//53 280//51 279//51
f 280//51 283//53 284//53
f 285//54 286//54 281//52
f 282//52 281//52 286//54
f 287//55 284//53 283//53
f 284//53 287//55 288//55
f 289//56 290//56 285//54
f 286//54 285//54 290//56
f 287//55 291//57 288//55
f 291//57 287//55 292//57
f 293//58 290//56 294//58
f 289//56 294//58 290//56
f 292//57 295//38 291//57
f 295//38 292//57 296//38
f 297//37 293//58 298//37
f 294//58 298//37 293//58
f 296//38 299//6 295//38
f 299//6 296//38 300//6
f 301//7 297//37 302//7
f 298//37 302//7 297//37
f 300//6 303//40 299//6
f 303//40 300//6 304//40
f 305//39 301//7 306//39
f 302//7 306//39 301//7
f 304//40 307//59 303//40
f 307//59 304//40 308//59
f 309//60 305//39 310//60
f 306//39 310//60 305//39
f 308//59 311//61 307//59
f 311//61 308//59 312//61
f 313//62 309//60 314//62
f 310//60 314//62 309//60
f 312//61 315//63 311//61
f 315//63 312//61 316//63
f 317//64 313//62 318//64
f 314//62 318//64 313//62
f 316//63 319//65 315//63
f 319//65 316//63 320//65
f 321//66 317//64 322//66
f 318//64 322//66 317//64
f 320//65 323//67 319//65
f 323//67 320//65 324//67
f 325//68 321//66 326//68
f 322//66 326//68 321//66
f 324//67 327//69 323//67
f 327//69 324//67 328//69
f 329//70 325//68 330//70
f 326//68 330//70 325//68
f 328//69 331//71 327//69
f 331//71 328//69 332//71
f 333//72 329//70 334//72
f 330//70 334//72 329//70
f 332//71 335//73 331//71
f 335//73 332//71 336//73
f 337//74 333//72 338//74
f 334//72 338//74 333//72
f 336//73 339//75 335//73
f 339//75 336//73 340//75
f 341//76 337//74 342//76
f 338//74 342//76 337//74
f 340//75 343//77 339//75
f 343//77 340//75 344//77
f 345//78 341//76 346//78
f 342//76 346//78 341//76
f 344//77 347//79 343//77
f 347//79 344//77 348//79
f 349//80 345//78 350//80
f 346//78 350//80 345//78
f 348//79 351//81 347//79
f 351//81 348//79 352//81
f 353//82 349//80 354//82
f 350//80 354//82 349//80
f 352//81 137//5 351//81
f 137//5 352//81 135//5
f 151//8 353//82 164//8
f 354//82 164//8 353//82
f 355//4 356//4 357//4
f 356//4 355//4 358//4
f 356//4 358//4 359//4
f 359//4 358//4 360//4
f 360//4 358//4 361//4
f 360//4 361//4 362//4
f 362//4 361//4 363//4
f 363//4 361//4 364//4
f 363//4 364//4 365//4
f 365//4 364//4 366//4
f 365//4 366//4 367//4
f 367//4 366//4 368//4
f 367//4 368//4 369//4
f 369//4 368//4 370//4
f 369//4 370//4 371//4
f 371//4 370//4 372//4
f 372//4 370//4 373//4
f 372//4 373//4 374//4
f 374//4 373//4 375//4
f 374//4 375//4 376//4
f 376//4 375//4 377//4
f 376//4 377//4 378//4
f 378//4 377//4 379//4
f 378//4 379//4 380//4
f 380//4 379//4 381//4
f 380//4 381//4 382//4
f 382//4 381//4 383//4
f 382//4 383//4 384//4
f 384//4 383//4 385//4
f 384//4 385//4 386//4
f 386//4 385//4 387//4
f 386//4 387//4 388//4
f 388//4 387//4 389//4
f 388//4 389//4 390//4
f 390//4 389//4 391//4
f 390//4 391//4 392//4
f 392//4 391//4 393//4
f 392//4 393//4 394//4
f 394//4 393//4 395//4
f 394//4 395//4 396//4
f 396//4 395//4 397//4
f 396//4 397//4 398//4
f 398//4 397//4 399//4
f 398//4 399//4 400//4
f 359//4 401//4 356//4
f 401//4 359//4 402//4
f 401//4 402//4 403//4
f 403//4 402//4 404//4
f 403//4 404//4 405//4
f 403//4 405//4 406//4
f 406//4 405//4 407//4
f 406//4 407//4 408//4
f 408//4 407//4 409//4
f 408//4 409//4 410//4
f 410//4 409//4 411//4
f 410//4 411//4 412//4
f 412//4 411//4 413//4
f 412//4 413//4 414//4
f 412//4 414//4 415//4
f 415//4 414//4 416//4
f 415//4 416//4 417//4
f 417//4 416//4 418//4
f 417//4 418//4 419//4
f 419//4 418//4 420//4
f 419//4 420//4 421//4
f 421//4 420//4 422//4
f 421//4 422//4 423//4
f 423//4 422//4 424//4
f 423//4 424//4 425//4
f 425//4 424//4 426//4
f 425//4 426//4 427//4
f 427//4 426//4 428//4
f 427//4 428//4 429//4
f 429//4 428//4 430//4
f 429//4 430//4 431//4
f 431//4 430//4 432//4
f 431//4 432//4 433//4
f 433//4 432//4 434//4
f 433//4 434//4 435//4
f 435//4 434//4 436//4
f 435//4 436//4 437//4
f 437//4 436//4 438//4
f 437//4 438//4 439//4
f 439//4 438//4 400//4
f 439//4 400//4 440//4
f 440//4 400//4 399//4
f 441//1 442//1 443//1
f 443//1 442//1 444//1
f 442//1 445//1 444//1
f 444//1 445//1 446//1
f 445//1 447//1 446//1
f 446//1 447//1 448//1
f 447//1 449//1 448//1
f 448//1 449//1 450//1
f 449//1 451//1 450//1
f 450//1 451//1 452//1
f 451//1 453//1 452//1
f 452//1 453//1 454//1
f 453//1 455//1 454//1
f 454//1 455//1 456//1
f 455//1 457//1 456//1
f 456//1 457//1 458//1
f 457//1 459//1 458//1
f 458//1 459//1 460//1
f 459//1 461//1 460//1
f 460//1 461//1 462//1
f 461//1 463//1 462//1
f 462//1 463//1 464//1
f 463//1 465//1 464//1
f 464//1 465//1 466//1
f 465//1 467//1 466//1
f 466//1 467//1 468//1
f 467//1 469//1 468//1
f 468//1 469//1 470//1
f 469//1 471//1 470//1
f 471//1 472//1 470//1
f 470//1 472//1 473//1
f 472//1 474//1 473//1
f 473//1 474//1 475//1
f 474//1 476//1 475//1
f 475//1 476//1 477//1
f 476//1 478//1 477//1
f 477//1 478//1 479//1
f 478//1 480//1 479//1
f 480//1 481//1 479//1
f 479//1 481//1 482//1
f 481//1 483//1 482//1
f 484//1 482//1 483//1
f 442//1 441//1 485//1
f 441//1 486//1 485//1
f 485//1 486//1 487//1
f 486//1 488//1 487//1
f 487//1 488//1 489//1
f 488//1 490//1 489//1
f 489//1 490//1 491//1
f 490//1 492//1 491//1
f 491//1 492//1 493//1
f 492//1 494//1 493//1
f 493//1 494//1 495//1
f 494//1 496//1 495//1
f 495//1 496//1 497//1
f 496//1 498//1 497//1
f 497//1 498//1 499//1
f 498//1 500//1 499//1
f 499//1 500//1 501//1
f 500//1 502//1 501//1
f 501//1 502//1 503//1
f 502//1 504//1 503//1
f 503//1 504//1 505//1
f 504//1 506//1 505//1
f 505//1 506//1 507//1
f 506//1 508//1 507//1
f 507//1 508//1 509//1
f 508//1 510//1 509//1
f 509//1 510//1 511//1
f 510//1 512//1 511//1
f 511//1 512//1 513//1
f 513//1 512//1 514//1
f 512//1 515//1 514//1
f 514//1 515//1 516//1
f 515//1 517//1 516//1
f 516//1 517//1 518//1
f 517//1 519//1 518//1
f 518//1 519//1 520//1
f 519//1 521//1 520//1
f 520//1 521//1 522//1
f 522//1 521//1 523//1
f 521//1 524//1 523//1
f 523//1 524//1 483//1
f 483//1 524//1 484//1
f 524//1 525//1 484//1
f 526//1 484//1 525//1
f 527//83 528//84 529//83
f 528//84 527//83 530//84
f 531//85 532//86 533//85
f 534//86 533//85 532//86
f 535//87 527//83 529//83
f 527//83 535//87 536//87
f 537//88 538//88 532//86
f 534//86 532//86 538//88
f 539//89 535//87 540//89
f 535//87 539//89 536//87
f 537//88 541//90 538//88
f 542//90 538//88 541//90
f 543//91 539//89 540//89
f 539//89 543//91 544//92
f 539//89 544//92 545//91
f 546//93 547//94 541//90
f 547//94 548//93 541//90
f 542//90 541//90 548//93
f 549//95 544//92 543//91
f 544//92 549//95 550//95
f 544//92 550//95 545//91
f 546//93 551//96 547//94
f 551//96 552//96 547//94
f 548//93 547//94 552//96
f 553//97 549//95 554//97
f 549//95 553//97 550//95
f 551//96 555//98 552//96
f 556//98 552//96 555//98
f 557//99 554//97 558//99
f 554//97 557//99 553//97
f 555//98 559//100 556//98
f 560//100 556//98 559//100
f 561//101 558//99 562//101
f 558//99 561//101 557//99
f 559//100 563//102 560//100
f 564//102 560//100 563//102
f 565//103 562//101 566//103
f 562//101 565//103 561//101
f 563//102 567//104 564//102
f 568//104 564//102 567//104
f 569//105 566//103 570//105
f 566//103 569//105 565//103
f 567//104 571//106 568//104
f 572//106 568//104 571//106
f 166//9 570//105 165//9
f 570//105 166//9 569//105
f 571//106 167//10 572//106
f 168//10 572//106 167//10
