# SSTK version 0.8.0
# 16
mtllib original-16.mtl
o #ID98
v -0.04648179 0.60390361 0.00326557
v -0.05622451 0.60393646 -0.00239208
v -0.05530011 0.60392435 0.00459848
v -0.04730573 0.60401883 -0.00348652
v -0.04742389 0.60401758 -0.00364462
v -0.04636106 0.60387171 0.00341642
v -0.05610853 0.60391657 -0.00246067
v -0.05524669 0.60388342 0.00460052
v -0.04643240 0.65759911 0.00332357
v -0.04737404 0.60405430 -0.00353296
v -0.04648663 0.60393578 0.00332231
v -0.04829931 0.60401146 -0.01050699
v -0.04819097 0.65770350 -0.01059443
v -0.04822429 0.65759473 -0.01058866
v -0.04639657 0.65759219 0.00344206
v -0.04818288 0.60398927 -0.01050403
v -0.04742090 0.60394433 -0.00365494
v -0.04634886 0.60388853 0.00328034
v -0.05709336 0.60396503 -0.00929432
v -0.04821850 0.60394251 -0.01044229
v -0.04814395 0.60395754 -0.01062494
v -0.05720041 0.60400555 -0.00938383
v -0.05519657 0.65755586 0.00443497
v -0.05625805 0.60404583 -0.00248023
v -0.05531135 0.60405512 0.00456906
v -0.05718019 0.60393094 -0.00941022
v -0.05705093 0.65756536 -0.00945161
v -0.05709489 0.65771703 -0.00942859
v -0.05519782 0.65769323 0.00454132
v -0.05711567 0.60393472 -0.00933554
v -0.05612416 0.60399912 -0.00232193
v -0.05527631 0.60401006 0.00462164
v -0.04640530 0.65771776 0.00328326
v -0.05533384 0.60397228 0.00454779
v -0.04648396 0.60393547 0.00339269
v -0.05528321 0.65757961 0.00456299
v -0.05532374 0.65760049 0.00454128
v -0.04644671 0.65764367 0.00326532
v -0.05528320 0.60394075 0.00449064
v -0.04640231 0.60394032 0.00336003
v -0.04644328 0.65762381 0.00334329
v -0.05702943 0.65762571 -0.00941428
v -0.05529963 0.65755201 0.00458010
v -0.04822541 0.65757833 -0.01045051
v -0.04819392 0.65755437 -0.01053891
v -0.04646123 0.65774410 0.00331496
v -0.05706261 0.65754965 -0.00938638
v -0.05533688 0.65759661 0.00462790
v -0.05705331 0.60394076 -0.00935465
v -0.04815627 0.65772278 -0.01061510
v -0.04821771 0.60398312 -0.01044414
v -0.05717452 0.65765170 -0.00933421
v -0.05704008 0.65769259 -0.00929632
v -0.05704546 0.60398555 -0.00939623
v -0.04826593 0.65755522 -0.01050058
v -0.04816198 0.60392737 -0.01057626
vn 0 1 0
vn 0 -1 0
vn -0.9914448610250917 0 0.13052619486883346
vn 0.9914448610250917 0 -0.13052619486883346
vn 0.13052619486883346 0 0.9914448610250917
vn -0.13052619486883346 0 -0.9914448610250917
usemtl material_0_0
f 1//1 2//1 3//1
f 2//1 1//1 4//1
f 5//2 6//2 7//2
f 8//2 7//2 6//2
f 9//3 10//3 11//3
f 10//3 9//3 12//3
f 12//3 9//3 13//3
f 14//4 15//4 16//4
f 16//4 15//4 17//4
f 18//4 17//4 15//4
f 4//1 19//1 2//1
f 19//1 4//1 20//1
f 21//2 5//2 22//2
f 7//2 22//2 5//2
f 23//3 24//3 25//3
f 24//3 23//3 26//3
f 26//3 23//3 27//3
f 28//4 29//4 30//4
f 30//4 29//4 31//4
f 32//4 31//4 29//4
f 33//5 34//5 35//5
f 34//5 33//5 36//5
f 37//6 38//6 39//6
f 40//6 39//6 38//6
f 41//1 42//1 43//1
f 42//1 41//1 44//1
f 45//2 46//2 47//2
f 48//2 47//2 46//2
f 49//6 50//6 51//6
f 50//6 49//6 52//6
f 53//5 54//5 55//5
f 56//5 55//5 54//5
