# SSTK version 0.8.0
# 8
mtllib original_8.mtl
o #ID60
v 0.01896462 0.88180676 -0.01728036
v 0.02284169 0.76107588 -0.01461457
v 0.01923907 0.76100703 -0.01734488
v 0.02293275 0.88199213 -0.01439604
v 0.01995966 0.88201245 -0.01652112
v 0.01474559 0.88180385 -0.01903559
v 0.01481408 0.76091069 -0.01905919
v 0.02556865 0.88189954 -0.01078138
v 0.02580453 0.76108887 -0.01072713
v 0.01017507 0.88200307 -0.01975851
v 0.01014382 0.76088996 -0.01972970
v 0.02752729 0.88182046 -0.00638682
v 0.02754462 0.76114391 -0.00625173
v 0.00556039 0.88191864 -0.01922739
v 0.00536316 0.76103244 -0.01926590
v 0.02827357 0.88194318 -0.00175349
v 0.02804092 0.76108932 -0.00167771
v 0.00105675 0.88200740 -0.01737653
v 0.00109359 0.76098706 -0.01731350
v 0.02760982 0.88187699 0.00300470
v 0.02747551 0.76099311 0.00303576
v -0.00266575 0.88198282 -0.01440868
v -0.00279503 0.76086780 -0.01450851
v 0.00006610 0.88195119 -0.01657630
v 0.02571882 0.88177044 0.00713757
v 0.02565475 0.76094787 0.00719243
v -0.00540990 0.76089476 -0.01074007
v -0.00533718 0.88193826 -0.01084591
v 0.02289150 0.88202207 0.01105477
v 0.02267982 0.76098551 0.01089617
v -0.00721173 0.76104683 -0.00619771
v -0.00723514 0.88186281 -0.00640754
v 0.01922283 0.76091062 0.01388975
v 0.01913144 0.88184785 0.01390732
v 0.02019058 0.88195037 0.01307346
v -0.00790572 0.76107990 -0.00175231
v -0.00782008 0.88172974 -0.00169122
v 0.01461036 0.76098658 0.01577199
v 0.01460414 0.88199819 0.01571056
v -0.00726641 0.76099829 0.00287020
v -0.00719355 0.88184228 0.00290131
v 0.01025642 0.76102012 0.01634054
v 0.01010567 0.88185867 0.01635859
v -0.00561245 0.76108404 0.00733860
v -0.00550835 0.88188918 0.00734998
v 0.00537004 0.76110880 0.01573191
v 0.00556562 0.88200733 0.01573290
v -0.00269327 0.76104348 0.01099169
v -0.00266917 0.88191256 0.01101752
v 0.00094859 0.76091521 0.01393004
v 0.00124165 0.88187643 0.01382298
v 0.00022544 0.88184911 0.01319344
vn 0.5000000016387101 0 -0.866025402838329
vn 0.7071067811865476 0 -0.7071067811865476
vn -0.5000000016387101 0 0.866025402838329
vn -0.7071067811865476 0 0.7071067811865476
vn 0.608761430209528 0 -0.7933533393698233
vn -0.608761430209528 0 0.7933533393698233
vn 0.25881900959356163 0 -0.9659258358036645
vn -0.25881900959356163 0 0.9659258358036645
vn 0.866025402838329 0 -0.5000000016387101
vn -0.866025402838329 0 0.5000000016387101
vn 0 0 -1
vn 0 0 1
vn 0.9659258358036645 0 -0.25881900959356163
vn -0.9659258358036645 0 0.25881900959356163
vn -0.25881900959356163 0 -0.9659258358036645
vn 0.25881900959356163 0 0.9659258358036645
vn 1 0 0
vn -1 0 0
vn -0.5000000016387101 0 -0.866025402838329
vn 0.5000000016387101 0 0.866025402838329
vn 0.9659258358036645 0 0.25881900959356163
vn -0.9659258358036645 0 -0.25881900959356163
vn -0.7071067811865476 0 -0.7071067811865476
vn 0.7071067811865476 0 0.7071067811865476
vn -0.608761430209528 0 -0.7933533393698233
vn 0.608761430209528 0 0.7933533393698233
vn 0.866025402838329 0 0.5000000016387101
vn -0.866025402838329 0 -0.5000000016387101
usemtl material_0_2
f 1//1 2//2 3//1
f 3//3 2//4 1//3
f 2//2 1//1 4//2
f 4//4 1//3 2//4
f 4//2 1//1 5//5
f 5//6 1//3 4//4
f 6//7 3//1 7//7
f 7//8 3//3 6//8
f 3//1 6//7 1//1
f 1//3 6//8 3//3
f 2//2 8//9 9//9
f 9//10 8//10 2//4
f 8//9 2//2 4//2
f 4//4 2//4 8//10
f 10//11 7//7 11//11
f 11//12 7//8 10//12
f 7//7 10//11 6//7
f 6//8 10//12 7//8
f 9//9 12//13 13//13
f 13//14 12//14 9//10
f 12//13 9//9 8//9
f 8//10 9//10 12//14
f 14//15 11//11 15//15
f 15//16 11//12 14//16
f 11//11 14//15 10//11
f 10//12 14//16 11//12
f 13//13 16//17 17//17
f 17//18 16//18 13//14
f 16//17 13//13 12//13
f 12//14 13//14 16//18
f 18//19 15//15 19//19
f 19//20 15//16 18//20
f 15//15 18//19 14//15
f 14//16 18//20 15//16
f 17//17 20//21 21//21
f 21//22 20//22 17//18
f 20//21 17//17 16//17
f 16//18 17//18 20//22
f 22//23 19//19 23//23
f 23//24 19//20 22//24
f 19//19 22//23 18//19
f 18//20 22//24 19//20
f 18//19 22//23 24//25
f 24//26 22//24 18//20
f 21//21 25//27 26//27
f 26//28 25//28 21//22
f 25//27 21//21 20//21
f 20//22 21//22 25//28
f 22//23 27//28 28//28
f 28//27 27//27 22//24
f 27//28 22//23 23//23
f 23//24 22//24 27//27
f 26//27 29//24 30//24
f 30//23 29//23 26//28
f 29//24 26//27 25//27
f 25//28 26//28 29//23
f 28//28 31//22 32//22
f 32//21 31//21 28//27
f 31//22 28//28 27//28
f 27//27 28//27 31//21
f 29//24 33//20 30//24
f 30//23 33//19 29//23
f 33//20 29//24 34//20
f 34//19 29//23 33//19
f 34//20 29//24 35//26
f 35//25 29//23 34//19
f 32//22 36//18 37//18
f 37//17 36//17 32//21
f 36//18 32//22 31//22
f 31//21 32//21 36//17
f 34//20 38//16 33//20
f 33//19 38//15 34//19
f 38//16 34//20 39//16
f 39//15 34//19 38//15
f 37//18 40//14 41//14
f 41//13 40//13 37//17
f 40//14 37//18 36//18
f 36//17 37//17 40//13
f 39//16 42//12 38//16
f 38//15 42//11 39//15
f 42//12 39//16 43//12
f 43//11 39//15 42//11
f 41//14 44//10 45//10
f 45//9 44//9 41//13
f 44//10 41//14 40//14
f 40//13 41//13 44//9
f 43//12 46//8 42//12
f 42//11 46//7 43//11
f 46//8 43//12 47//8
f 47//7 43//11 46//7
f 45//10 48//4 49//4
f 49//2 48//2 45//9
f 48//4 45//10 44//10
f 44//9 45//9 48//2
f 47//8 50//3 46//8
f 46//7 50//1 47//7
f 50//3 47//8 51//3
f 51//1 47//7 50//1
f 51//3 48//4 50//3
f 50//1 48//2 51//1
f 48//4 51//3 49//4
f 49//2 51//1 48//2
f 49//4 51//3 52//6
f 52//5 51//1 49//2
