# SSTK version 0.8.0
# 4
mtllib original_4.mtl
o #ID27
v -0.37893565 0.51922046 0.10257728
v -0.37914142 0.51925636 -0.10607948
v -0.39286727 0.51935066 -0.00170541
v -0.33876427 0.51921940 0.19986688
v -0.33889562 0.51911998 -0.20310853
v -0.27486085 0.51929130 0.28328384
v -0.31222681 0.51931169 -0.00173712
v -0.30127189 0.51935690 0.08177848
v -0.26895884 0.51926218 0.15934069
v -0.19140224 0.51934555 0.34719603
v -0.21791596 0.51918694 0.22627775
v -0.15109511 0.51924563 0.27744780
v -0.09420025 0.51917759 0.38757134
v -0.07339945 0.51920534 0.30964154
v 0.01004647 0.51926512 0.40112308
v 0.01007481 0.51921746 0.32067614
v 0.11440266 0.51922502 0.38744039
v 0.09348849 0.51923419 0.30967563
v 0.17131810 0.51922724 0.27753882
v 0.21168526 0.51925285 0.34742724
v 0.23811365 0.51943349 0.22623460
v 0.29502361 0.51922605 0.28320525
v 0.28942716 0.51922705 0.15947622
v 0.32157091 0.51906077 0.08154559
v 0.35904030 0.51930807 0.19961843
v 0.33238288 0.51937052 -0.00176960
v -0.27475763 0.51928034 -0.28655097
v -0.30130427 0.51924902 -0.08523183
v -0.26906655 0.51925556 -0.16279890
v -0.19134001 0.51923000 -0.35067327
v -0.21772653 0.51930813 -0.22962704
v -0.15119112 0.51917608 -0.28084524
v -0.09423784 0.51931207 -0.39096890
v -0.07329548 0.51923112 -0.31311922
v 0.01014929 0.51923266 -0.40485022
v 0.01010850 0.51929587 -0.32406787
v 0.09350661 0.51920570 -0.31298773
v 0.11448990 0.51919528 -0.39081044
v 0.17131954 0.51935788 -0.28100142
v 0.21166857 0.51926677 -0.35057425
v 0.23804520 0.51917679 -0.22976012
v 0.29508989 0.51925861 -0.28665151
v 0.28929197 0.51930678 -0.16298973
v 0.32155115 0.51915584 -0.08513825
v 0.35920288 0.51933497 -0.20336241
v 0.39938362 0.51925580 0.10262442
v 0.39932579 0.51913316 -0.10612400
v 0.41308667 0.51922837 -0.00162660
v 0.41305763 0.51915546 -0.00172239
v 0.39940494 0.51932676 0.10259864
v 0.39931746 0.51922572 -0.10589179
v 0.35906238 0.51926982 -0.20321655
v 0.35914500 0.51917943 0.19971845
v 0.33264442 0.51927641 -0.00170666
v 0.32160752 0.51912718 -0.08503496
v 0.29502065 0.51929022 -0.28669691
v 0.28931382 0.51913767 -0.16285819
v 0.23815049 0.51939692 -0.22965810
v 0.21158930 0.51916797 -0.35072170
v 0.17133305 0.51905550 -0.28086462
v 0.11440426 0.51937689 -0.39090341
v 0.09354810 0.51937930 -0.31326444
v 0.01010860 0.51909333 -0.40484995
v 0.01020152 0.51926697 -0.32395532
v -0.07331422 0.51922371 -0.31302650
v -0.09408023 0.51932019 -0.39090862
v -0.15110595 0.51924343 -0.28086353
v -0.19141403 0.51922869 -0.35065301
v -0.21769528 0.51933427 -0.22961896
v -0.26915819 0.51923096 -0.16280890
v -0.27476494 0.51918703 -0.28650316
v -0.30114240 0.51911729 -0.08514011
v -0.31215446 0.51923234 -0.00169016
v -0.33871483 0.51917107 -0.20329947
v 0.32151409 0.51926050 0.08164526
v 0.29506970 0.51928114 0.28339485
v 0.28927479 0.51927009 0.15928664
v 0.23812787 0.51921467 0.22622631
v 0.21155887 0.51913300 0.34712558
v 0.17129956 0.51925785 0.27752935
v 0.11434902 0.51923023 0.38739104
v 0.09349819 0.51928144 0.30970475
v 0.01002273 0.51914047 0.32067697
v 0.01003748 0.51918708 0.40118530
v -0.07326098 0.51916969 0.30955927
v -0.09423027 0.51938099 0.38749125
v -0.15109287 0.51932716 0.27749854
v -0.19137779 0.51939541 0.34741357
v -0.21785411 0.51906215 0.22627954
v -0.26904188 0.51926564 0.15946073
v -0.27478357 0.51925006 0.28320527
v -0.30121484 0.51928134 0.08168256
v -0.33881225 0.51929385 0.19987614
v -0.37904540 0.51915068 -0.10604370
v -0.37915737 0.51928396 0.10259184
v -0.39284222 0.51913254 -0.00172017
vn 0 1 0
vn 0 -1 0
usemtl material_0_0
f 1//1 2//1 3//1
f 2//1 1//1 4//1
f 2//1 4//1 5//1
f 5//1 4//1 6//1
f 5//1 6//1 7//1
f 7//1 6//1 8//1
f 8//1 6//1 9//1
f 9//1 6//1 10//1
f 9//1 10//1 11//1
f 11//1 10//1 12//1
f 12//1 10//1 13//1
f 12//1 13//1 14//1
f 14//1 13//1 15//1
f 14//1 15//1 16//1
f 16//1 15//1 17//1
f 16//1 17//1 18//1
f 18//1 17//1 19//1
f 19//1 17//1 20//1
f 19//1 20//1 21//1
f 21//1 20//1 22//1
f 21//1 22//1 23//1
f 23//1 22//1 24//1
f 24//1 22//1 25//1
f 24//1 25//1 26//1
f 7//1 27//1 5//1
f 27//1 7//1 28//1
f 27//1 28//1 29//1
f 27//1 29//1 30//1
f 30//1 29//1 31//1
f 30//1 31//1 32//1
f 30//1 32//1 33//1
f 33//1 32//1 34//1
f 33//1 34//1 35//1
f 35//1 34//1 36//1
f 35//1 36//1 37//1
f 35//1 37//1 38//1
f 38//1 37//1 39//1
f 38//1 39//1 40//1
f 40//1 39//1 41//1
f 40//1 41//1 42//1
f 42//1 41//1 43//1
f 42//1 43//1 44//1
f 42//1 44//1 45//1
f 45//1 44//1 26//1
f 45//1 26//1 25//1
f 45//1 25//1 46//1
f 45//1 46//1 47//1
f 47//1 46//1 48//1
usemtl material_1_0
f 49//2 50//2 51//2
f 51//2 50//2 52//2
f 50//2 53//2 52//2
f 53//2 54//2 52//2
f 54//2 55//2 52//2
f 52//2 55//2 56//2
f 55//2 57//2 56//2
f 57//2 58//2 56//2
f 56//2 58//2 59//2
f 58//2 60//2 59//2
f 59//2 60//2 61//2
f 60//2 62//2 61//2
f 61//2 62//2 63//2
f 62//2 64//2 63//2
f 64//2 65//2 63//2
f 63//2 65//2 66//2
f 65//2 67//2 66//2
f 66//2 67//2 68//2
f 67//2 69//2 68//2
f 69//2 70//2 68//2
f 68//2 70//2 71//2
f 70//2 72//2 71//2
f 72//2 73//2 71//2
f 74//2 71//2 73//2
f 54//2 53//2 75//2
f 53//2 76//2 75//2
f 75//2 76//2 77//2
f 77//2 76//2 78//2
f 76//2 79//2 78//2
f 78//2 79//2 80//2
f 79//2 81//2 80//2
f 80//2 81//2 82//2
f 82//2 81//2 83//2
f 81//2 84//2 83//2
f 83//2 84//2 85//2
f 84//2 86//2 85//2
f 85//2 86//2 87//2
f 86//2 88//2 87//2
f 87//2 88//2 89//2
f 89//2 88//2 90//2
f 88//2 91//2 90//2
f 90//2 91//2 92//2
f 92//2 91//2 73//2
f 73//2 91//2 74//2
f 91//2 93//2 74//2
f 74//2 93//2 94//2
f 93//2 95//2 94//2
f 96//2 94//2 95//2
