# SSTK version 0.8.0
# 5
mtllib original_5.mtl
o #ID33
v 0.21169760 0.51911740 0.34733885
v 0.11454168 -0.60910271 0.38737178
v 0.21153513 -0.60901712 0.34726054
v 0.11443076 0.51918504 0.38746395
v 0.29511592 0.51920949 0.28326196
v 0.29513386 -0.60908093 0.28308540
v 0.01011910 -0.60886162 0.40110672
v 0.01012086 0.51914309 0.40108427
v 0.35907342 -0.60905424 0.19984183
v 0.35916817 0.51917406 0.19987974
v 0.39924983 -0.60907150 0.10247926
v 0.39934531 0.51924684 0.10269686
v 0.41307422 -0.60919195 -0.00163792
v 0.41302078 0.51917028 -0.00162351
v 0.39940610 -0.60902562 -0.10592568
v 0.39934468 0.51917214 -0.10606146
v 0.35910763 -0.60902637 -0.20315355
v 0.35890877 0.51923527 -0.20304131
vt 0.25 1
vt 0.125 0
vt 0.25 0
vt 0.125 1
vt 0.375 1
vt 0.375 0
vt -2.775558e-16 0
vt -2.775558e-16 1
vt 0.5 0
vt 0.5 1
vt 0.625 0
vt 0.625 1
vt 0.75 0
vt 0.75 1
vt 0.875 0
vt 0.875 1
vt 1 0
vt 1 1
vn 0.5000000016387101 0 0.866025402838329
vn 0.25881900959356163 0 0.9659258358036645
vn -0.5000000016387101 0 -0.866025402838329
vn -0.25881900959356163 0 -0.9659258358036645
vn 0.7071067811865476 0 0.7071067811865476
vn -0.7071067811865476 0 -0.7071067811865476
vn 0 0 1
vn 0 0 -1
vn 0.866025402838329 0 0.5000000016387101
vn -0.866025402838329 0 -0.5000000016387101
vn 0.9659258358036645 0 0.25881900959356163
vn -0.9659258358036645 0 -0.25881900959356163
vn 1 0 0
vn -1 0 0
vn 0.9659258358036645 0 -0.25881900959356163
vn -0.9659258358036645 0 0.25881900959356163
vn 0.866025402838329 0 -0.5000000016387101
vn -0.866025402838329 0 0.5000000016387101
usemtl material_0_2
f 1/1/1 2/2/2 3/3/1
f 3/3/3 2/2/4 1/1/3
f 2/2/2 1/1/1 4/4/2
f 4/4/4 1/1/3 2/2/4
f 5/5/5 3/3/1 6/6/5
f 6/6/6 3/3/3 5/5/6
f 3/3/1 5/5/5 1/1/1
f 1/1/3 5/5/6 3/3/3
f 4/4/2 7/7/7 2/2/2
f 2/2/4 7/7/8 4/4/4
f 7/7/7 4/4/2 8/8/7
f 8/8/8 4/4/4 7/7/8
f 9/9/9 5/5/5 6/6/5
f 6/6/6 5/5/6 9/9/10
f 5/5/5 9/9/9 10/10/9
f 10/10/10 9/9/10 5/5/6
f 11/11/11 10/10/9 9/9/9
f 9/9/10 10/10/10 11/11/12
f 10/10/9 11/11/11 12/12/11
f 12/12/12 11/11/12 10/10/10
f 13/13/13 12/12/11 11/11/11
f 11/11/12 12/12/12 13/13/14
f 12/12/11 13/13/13 14/14/13
f 14/14/14 13/13/14 12/12/12
f 15/15/15 14/14/13 13/13/13
f 13/13/14 14/14/14 15/15/16
f 14/14/13 15/15/15 16/16/15
f 16/16/16 15/15/16 14/14/14
f 17/17/17 16/16/15 15/15/15
f 15/15/16 16/16/16 17/17/18
f 16/16/15 17/17/17 18/18/17
f 18/18/18 17/17/18 16/16/16
