# SSTK version 0.8.0
# 51
mtllib original-51.mtl
o #ID337
v -0.25664221 -0.44979392 0.17445523
v -0.25674821 0.30974387 -0.19117332
v -0.25665569 -0.44971814 -0.19125683
v -0.25660995 0.31153688 -0.19110146
v -0.25668647 0.31343683 -0.19078017
v -0.25676484 0.31515348 -0.19017743
v -0.25671717 0.31688097 -0.18928636
v -0.25659602 0.31829281 -0.18841119
v -0.25669876 0.31976105 -0.18715701
v -0.25664243 0.32086599 -0.18568222
v -0.25672185 0.32193090 -0.18419451
v -0.25677412 0.32285238 -0.18253070
v -0.25666146 0.32335247 -0.18073525
v -0.25661333 0.32370956 -0.17903275
v -0.25659257 0.32382521 -0.17722946
v -0.25661875 0.27179003 0.05077820
v -0.25661154 0.27085193 0.06870971
v -0.25670821 0.26798492 0.08621632
v -0.25669350 0.26322154 0.10338950
v -0.25676711 0.25625754 0.11987203
v -0.25671003 0.24747577 0.13537342
v -0.25674236 0.23700566 0.14976104
v -0.25660706 0.22496424 0.16297485
v -0.25677165 0.21127434 0.17446131
v -0.25663809 0.27415162 0.05275766
v -0.25676440 0.32388044 0.09008442
v -0.25671439 0.27394309 0.06030197
v -0.25673314 0.32384742 0.09003261
v -0.25667860 0.27416448 0.05266729
v -0.25668071 0.27347649 0.06934321
v -0.25672770 0.27051786 0.08710661
v -0.25672307 0.26548677 0.10421558
v -0.25677536 0.25813431 0.12077234
v -0.25661357 0.24913201 0.13631767
v -0.25666044 0.23817185 0.15062599
v -0.25673802 0.22545400 0.16328170
v -0.25662149 0.21130181 0.17442988
vn -1 0 0
usemtl material_0_0
f 1//1 2//1 3//1
f 2//1 1//1 4//1
f 4//1 1//1 5//1
f 5//1 1//1 6//1
f 6//1 1//1 7//1
f 7//1 1//1 8//1
f 8//1 1//1 9//1
f 9//1 1//1 10//1
f 10//1 1//1 11//1
f 11//1 1//1 12//1
f 12//1 1//1 13//1
f 13//1 1//1 14//1
f 14//1 1//1 15//1
f 15//1 1//1 16//1
f 16//1 1//1 17//1
f 17//1 1//1 18//1
f 18//1 1//1 19//1
f 19//1 1//1 20//1
f 20//1 1//1 21//1
f 21//1 1//1 22//1
f 22//1 1//1 23//1
f 23//1 1//1 24//1
f 15//1 25//1 26//1
f 25//1 15//1 16//1
f 27//1 28//1 29//1
f 28//1 27//1 30//1
f 28//1 30//1 31//1
f 28//1 31//1 32//1
f 28//1 32//1 33//1
f 28//1 33//1 34//1
f 28//1 34//1 35//1
f 28//1 35//1 36//1
f 28//1 36//1 37//1
