# SSTK version 0.8.0
# 8
mtllib original-8.mtl
o #ID25
v -0.07863984 0.69509828 -0.02629086
v -0.06996899 0.44180789 -0.04696918
v -0.06993190 0.69501936 -0.04709933
v -0.07861018 0.44189633 -0.02635732
v -0.07846957 0.44178545 -0.02635571
v -0.07859520 0.69502796 -0.02642936
v -0.06991679 0.44177473 -0.04692988
v -0.06989316 0.69506198 -0.04712617
v -0.05630992 0.44177059 -0.06474640
v -0.05627410 0.69491318 -0.06472253
v -0.05630987 0.44181756 -0.06469775
v -0.05642315 0.69504275 -0.06473359
v -0.08143043 0.69506473 -0.00420082
v -0.08149639 0.44176180 -0.00422864
v -0.08152705 0.44190068 -0.00406447
v -0.08143221 0.69510442 -0.00410134
v -0.03864915 0.69497440 -0.07833187
v -0.03862990 0.44183099 -0.07845387
v -0.03869137 0.69510546 -0.07833072
v -0.03854618 0.44179464 -0.07841468
v -0.07853618 0.69499312 0.01797396
v -0.07853392 0.44190386 0.01812233
v -0.07851570 0.44189667 0.01808733
v -0.07848624 0.69505670 0.01802162
v -0.01799914 0.69504655 -0.08693689
v -0.01793055 0.44187689 -0.08702712
v -0.01791540 0.69504434 -0.08692649
v -0.01789516 0.44175701 -0.08690379
v -0.06997467 0.69507084 0.03872658
v -0.06998234 0.44181845 0.03870564
v -0.07006305 0.44179325 0.03874551
v -0.07001642 0.69501224 0.03869554
v 0.00427781 0.69511049 -0.08994657
v 0.00431206 0.44174618 -0.08998183
v 0.00429552 0.69491840 -0.08983417
v 0.00431120 0.44187210 -0.08983793
v -0.05639304 0.69497635 0.05655694
v -0.05637990 0.44185071 0.05657048
v -0.05635337 0.44191846 0.05650514
v -0.05637710 0.69504970 0.05657948
v 0.02656131 0.69500533 -0.08690279
v 0.02638634 0.44176552 -0.08693235
v 0.02641717 0.69510891 -0.08702587
v 0.02647045 0.44184751 -0.08689073
v -0.03862233 0.44188335 0.07006312
v -0.03859543 0.69493892 0.07008126
v -0.03854056 0.69504930 0.07001431
v -0.03861819 0.44176591 0.07019554
v 0.04714232 0.69499920 -0.07834339
v 0.04708801 0.44184583 -0.07840900
v 0.04721657 0.69493213 -0.07837582
v 0.04723701 0.44186976 -0.07834581
v -0.01789660 0.44192403 0.07877512
v -0.01796454 0.69493606 0.07864510
v -0.01795734 0.69494234 0.07873836
v -0.01799649 0.44174900 0.07862277
v 0.06492267 0.69503098 -0.06482425
v 0.06487409 0.44190517 -0.06472465
v 0.06494537 0.69507679 -0.06485040
v 0.06493707 0.44174288 -0.06482760
v 0.00429704 0.44191063 0.08153752
v 0.00418788 0.69509236 0.08150631
v 0.00427949 0.69509793 0.08161973
v 0.00424542 0.44182407 0.08155325
v 0.07845915 0.44178751 -0.04700448
v 0.07862221 0.69507644 -0.04704252
v 0.07857187 0.69499177 -0.04711775
v 0.07852563 0.44177689 -0.04711497
v 0.02654965 0.44185767 0.07875313
v 0.02652561 0.69500206 0.07874939
v 0.02650166 0.69498033 0.07860495
v 0.02654112 0.44180341 0.07875112
v 0.08704708 0.44175314 -0.02632938
v 0.08716617 0.69497714 -0.02627309
v 0.08721299 0.69501585 -0.02639247
v 0.08709863 0.44186785 -0.02642605
v 0.04713579 0.44173678 0.07016130
v 0.04713245 0.69509753 0.07014393
v 0.04706500 0.69496106 0.07005729
v 0.04719117 0.44187285 0.07010870
v 0.09010773 0.44186824 -0.00406537
v 0.09003593 0.69505145 -0.00417561
v 0.09006279 0.69497212 -0.00417642
v 0.09010118 0.44184298 -0.00418969
v 0.06483085 0.44182026 0.05656006
v 0.06497715 0.69498201 0.05639613
v 0.06493908 0.69494804 0.05641432
v 0.06490123 0.44173515 0.05650969
v 0.08705372 0.44178078 0.01797427
v 0.08718433 0.69498322 0.01807125
v 0.08704180 0.69510007 0.01806151
v 0.08705542 0.44186550 0.01811732
v 0.07847480 0.69509644 0.03871881
v 0.07851832 0.44192699 0.03876456
v 0.07851911 0.69504103 0.03877131
v 0.07860536 0.44181478 0.03871068
vn 0.6521239996415764 0.7377001995945416 0.17473609990396083
vn 0.866025402838329 0 0.5000000016387101
vn 0.5846783983546449 0.737700197924023 0.33756419905005397
vn 0.9659258358036645 0 0.25881900959356163
vn -0.9659258358036645 0 -0.25881900959356163
vn -0.6521239996415764 -0.7377001995945416 -0.17473609990396083
vn -0.866025402838329 0 -0.5000000016387101
vn -0.5846783983546449 -0.737700197924023 -0.33756419905005397
vn 0.7071067811865476 0 0.7071067811865476
vn 0.47738790018788557 0.7377002002903367 0.47738790018788574
vn -0.7071067811865476 0 -0.7071067811865476
vn -0.47738790018788557 -0.7377002002903367 -0.47738790018788574
vn 0.6751284197250248 0.7377002215531664 0
vn 1 0 0
vn -1 0 0
vn -0.6751284197250248 -0.7377002215531664 0
vn 0.3375641990500538 0.737700197924023 0.584678398354645
vn 0.5000000016387101 0 0.866025402838329
vn -0.3375641990500538 -0.737700197924023 -0.584678398354645
vn -0.5000000016387101 0 -0.866025402838329
vn 0.6521239996415764 0.7377001995945416 -0.1747360999039605
vn 0.9659258358036645 0 -0.25881900959356163
vn -0.9659258358036645 0 0.25881900959356163
vn -0.6521239996415764 -0.7377001995945416 0.1747360999039605
vn 0.17473609990396066 0.7377001995945415 0.6521239996415765
vn 0.25881900959356163 0 0.9659258358036645
vn -0.17473609990396066 -0.7377001995945415 -0.6521239996415765
vn -0.25881900959356163 0 -0.9659258358036645
vn 0.5846783983546449 0.7377001979240232 -0.33756419905005364
vn 0.866025402838329 0 -0.5000000016387101
vn -0.866025402838329 0 0.5000000016387101
vn -0.5846783983546449 -0.7377001979240232 0.33756419905005364
vn 0 0.7377002215531663 0.6751284197250249
vn 0 0 1
vn 0 -0.7377002215531663 -0.6751284197250249
vn 0 0 -1
vn 0.47738790018788557 0.7377002002903369 -0.4773879001878854
vn 0.7071067811865476 0 -0.7071067811865476
vn -0.7071067811865476 0 0.7071067811865476
vn -0.47738790018788557 -0.7377002002903369 0.4773879001878854
vn -0.17473609990396066 0.7377001995945415 0.6521239996415765
vn -0.25881900959356163 0 0.9659258358036645
vn 0.17473609990396066 -0.7377001995945415 -0.6521239996415765
vn 0.25881900959356163 0 -0.9659258358036645
vn 0.5000000016387101 0 -0.866025402838329
vn 0.3375641990500538 0.7377001979240232 -0.5846783983546447
vn -0.3375641990500538 -0.7377001979240232 0.5846783983546447
vn -0.5000000016387101 0 0.866025402838329
vn -0.3375641990500538 0.737700197924023 0.584678398354645
vn 0.3375641990500538 -0.737700197924023 -0.584678398354645
vn 0.17473609990396066 0.7377001995945417 -0.6521239996415763
vn -0.17473609990396066 -0.7377001995945417 0.6521239996415763
vn -0.47738790018788557 0.7377002002903367 0.47738790018788574
vn 0.47738790018788557 -0.7377002002903367 -0.47738790018788574
vn 0 0.7377002215531665 -0.6751284197250247
vn 0 -0.7377002215531665 0.6751284197250247
vn -0.5846783983546449 0.737700197924023 0.33756419905005397
vn 0.5846783983546449 -0.737700197924023 -0.33756419905005397
vn -0.17473609990396066 0.7377001995945417 -0.6521239996415763
vn 0.17473609990396066 -0.7377001995945417 0.6521239996415763
vn -0.6521239996415764 0.7377001995945416 0.17473609990396083
vn 0.6521239996415764 -0.7377001995945416 -0.17473609990396083
vn -0.3375641990500538 0.7377001979240232 -0.5846783983546447
vn 0.3375641990500538 -0.7377001979240232 0.5846783983546447
vn -0.6751284197250248 0.7377002215531664 0
vn 0.6751284197250248 -0.7377002215531664 0
vn -0.47738790018788557 0.7377002002903369 -0.4773879001878854
vn 0.47738790018788557 -0.7377002002903369 0.4773879001878854
vn -0.6521239996415764 0.7377001995945416 -0.1747360999039605
vn 0.6521239996415764 -0.7377001995945416 0.1747360999039605
vn -0.5846783983546449 0.7377001979240232 -0.33756419905005364
vn 0.5846783983546449 -0.7377001979240232 0.33756419905005364
usemtl material_0_0
f 1//1 2//2 3//3
f 2//2 1//1 4//4
f 5//5 6//6 7//7
f 8//8 7//7 6//6
f 3//3 9//9 10//10
f 9//9 3//3 2//2
f 7//7 8//8 11//11
f 12//12 11//11 8//8
f 13//13 4//4 1//1
f 4//4 13//13 14//14
f 15//15 16//16 5//5
f 6//6 5//5 16//16
f 17//17 9//9 18//18
f 9//9 17//17 10//10
f 12//12 19//19 11//11
f 20//20 11//11 19//19
f 21//21 14//14 13//13
f 14//14 21//21 22//22
f 23//23 24//24 15//15
f 16//16 15//15 24//24
f 25//25 18//18 26//26
f 18//18 25//25 17//17
f 19//19 27//27 20//20
f 28//28 20//20 27//27
f 29//29 22//22 21//21
f 22//22 29//29 30//30
f 31//31 32//32 23//23
f 24//24 23//23 32//32
f 33//33 26//26 34//34
f 26//26 33//33 25//25
f 27//27 35//35 28//28
f 36//36 28//28 35//35
f 37//37 30//30 29//29
f 30//30 37//37 38//38
f 39//39 40//40 31//31
f 32//32 31//31 40//40
f 41//41 34//34 42//42
f 34//34 41//41 33//33
f 35//35 43//43 36//36
f 44//44 36//36 43//43
f 37//37 45//45 38//38
f 45//45 37//37 46//46
f 47//47 40//40 48//48
f 39//39 48//48 40//40
f 49//49 42//42 50//48
f 42//42 49//49 41//41
f 43//43 51//50 44//44
f 52//45 44//44 51//50
f 46//46 53//44 45//45
f 53//44 46//46 54//51
f 55//52 47//47 56//42
f 48//48 56//42 47//47
f 57//53 50//48 58//39
f 50//48 57//53 49//49
f 51//50 59//54 52//45
f 60//38 52//45 59//54
f 54//51 61//36 53//44
f 61//36 54//51 62//55
f 63//56 55//52 64//34
f 56//42 64//34 55//52
f 65//31 57//53 58//39
f 57//53 65//31 66//57
f 67//58 68//30 59//54
f 60//38 59//54 68//30
f 62//55 69//28 61//36
f 69//28 62//55 70//59
f 71//60 63//56 72//26
f 64//34 72//26 63//56
f 73//23 66//57 65//31
f 66//57 73//23 74//61
f 75//62 76//22 67//58
f 68//30 67//58 76//22
f 70//59 77//20 69//28
f 77//20 70//59 78//63
f 79//64 71//60 80//18
f 72//26 80//18 71//60
f 81//15 74//61 73//23
f 74//61 81//15 82//65
f 83//66 84//14 75//62
f 76//22 75//62 84//14
f 78//63 85//11 77//20
f 85//11 78//63 86//67
f 87//68 79//64 88//9
f 80//18 88//9 79//64
f 89//5 82//65 81//15
f 82//65 89//5 90//69
f 91//70 92//4 83//66
f 84//14 83//66 92//4
f 85//11 93//71 94//7
f 93//71 85//11 86//67
f 87//68 88//9 95//72
f 96//2 95//72 88//9
f 94//7 90//69 89//5
f 90//69 94//7 93//71
f 95//72 96//2 91//70
f 92//4 91//70 96//2
