# SSTK version 0.8.0
# 27
mtllib original-27.mtl
o #ID68
v -0.00626402 0.93403916 0.03273750
v 0.01381938 0.93403143 0.03275474
v 0.00377013 0.93416156 0.03418099
v 0.02330558 0.93421207 0.02889445
v -0.01556137 0.93419384 0.02898475
v 0.03131152 0.93412612 0.02283377
v -0.02342869 0.93412399 0.02273188
v 0.03741517 0.93405518 0.01472581
v -0.02970703 0.93409757 0.01476142
v 0.04133970 0.93415580 0.00549716
v -0.03347582 0.93421514 0.00536256
v 0.04252598 0.93409253 -0.00455218
v -0.03478838 0.93422532 -0.00452965
v 0.04244210 0.93409853 -0.00568560
v -0.03471926 0.93407892 -0.00566579
v -0.03356984 0.93411768 -0.01460804
v 0.04135723 0.93406450 -0.01451818
v 0.03738727 0.93419288 -0.02404061
v -0.02960701 0.93402789 -0.02401302
v 0.03126816 0.93407015 -0.03192798
v -0.02357690 0.93421361 -0.03191251
v 0.02312574 0.93409377 -0.03802590
v -0.01557740 0.93422315 -0.03809297
v 0.01386601 0.93403652 -0.04199944
v -0.00617290 0.93417919 -0.04199647
v 0.00395263 0.93412808 -0.04322587
v 0.00390436 0.93408438 -0.04321925
v -0.00615015 0.93408516 -0.04199094
v 0.01381124 0.93403290 -0.04192450
v -0.01555955 0.93415133 -0.03803915
v 0.02321769 0.93417170 -0.03805748
v -0.02357515 0.93403337 -0.03205866
v 0.03127536 0.93411402 -0.03204343
v -0.02968211 0.93415368 -0.02403320
v 0.03738643 0.93419476 -0.02394222
v -0.03363749 0.93415026 -0.01452358
v 0.04120287 0.93414978 -0.01466874
v 0.04254256 0.93407804 -0.00566903
v -0.03479161 0.93406079 -0.00564818
v -0.03493812 0.93407435 -0.00457595
v 0.04253264 0.93408251 -0.00448993
v -0.03345333 0.93403288 0.00535791
v 0.04123855 0.93412732 0.00536077
v -0.02975849 0.93412326 0.01473861
v 0.03745502 0.93420841 0.01486778
v -0.02353140 0.93411849 0.02287072
v 0.03114068 0.93419900 0.02288484
v -0.01559046 0.93415196 0.02901325
v 0.02317420 0.93412800 0.02887730
v -0.00614492 0.93414219 0.03276441
v 0.01384679 0.93410306 0.03286838
v 0.00382134 0.93403694 0.03418203
vn 0 -1 0
vn 0 1 0
usemtl material_0_0
f 1//1 2//1 3//1
f 2//1 1//1 4//1
f 4//1 1//1 5//1
f 4//1 5//1 6//1
f 6//1 5//1 7//1
f 6//1 7//1 8//1
f 8//1 7//1 9//1
f 8//1 9//1 10//1
f 10//1 9//1 11//1
f 10//1 11//1 12//1
f 12//1 11//1 13//1
f 12//1 13//1 14//1
f 14//1 13//1 15//1
f 14//1 15//1 16//1
f 14//1 16//1 17//1
f 17//1 16//1 18//1
f 18//1 16//1 19//1
f 18//1 19//1 20//1
f 20//1 19//1 21//1
f 20//1 21//1 22//1
f 22//1 21//1 23//1
f 22//1 23//1 24//1
f 24//1 23//1 25//1
f 24//1 25//1 26//1
f 27//2 28//2 29//2
f 28//2 30//2 29//2
f 29//2 30//2 31//2
f 30//2 32//2 31//2
f 31//2 32//2 33//2
f 32//2 34//2 33//2
f 33//2 34//2 35//2
f 34//2 36//2 35//2
f 35//2 36//2 37//2
f 37//2 36//2 38//2
f 36//2 39//2 38//2
f 39//2 40//2 38//2
f 38//2 40//2 41//2
f 40//2 42//2 41//2
f 41//2 42//2 43//2
f 42//2 44//2 43//2
f 43//2 44//2 45//2
f 44//2 46//2 45//2
f 45//2 46//2 47//2
f 46//2 48//2 47//2
f 47//2 48//2 49//2
f 48//2 50//2 49//2
f 49//2 50//2 51//2
f 52//2 51//2 50//2
