# SSTK version 0.8.0
# 13
mtllib original-13.mtl
o #ID98
v -0.10624392 0.47000874 -0.06817244
v -0.08618085 0.47703437 -0.09460991
v -0.08599488 0.46998019 -0.09445681
v -0.10637785 0.47695050 -0.06821130
v -0.10633058 0.47703326 -0.06808458
v -0.10630139 0.47004972 -0.06823038
v -0.08599271 0.47690540 -0.09460349
v -0.08600534 0.46987850 -0.09458950
v 0.12676955 0.47005683 0.02832237
v 0.12700006 0.46994382 -0.00458466
v 0.13101348 0.47005248 -0.00465783
v 0.12276044 0.46999968 0.02737557
v 0.11393128 0.47004794 0.05908538
v 0.11053774 0.47001683 0.05690811
v 0.09389154 0.46993238 0.08541811
v 0.09097295 0.47000829 0.08258572
v 0.06744807 0.47005725 0.10553585
v 0.06544628 0.46986309 0.10214858
v 0.03670208 0.47003723 0.11834628
v 0.03578211 0.46988314 0.11447025
v 0.00379994 0.46992469 0.12256870
v 0.00395298 0.46992289 0.11851784
v -0.02904339 0.46996486 0.11819744
v -0.02811904 0.46996594 0.11437840
v -0.05772142 0.46998491 0.10209854
v -0.05976747 0.47005425 0.10563013
v -0.08316970 0.47000618 0.08258120
v -0.08603094 0.46988657 0.08532894
v -0.10289093 0.47001851 0.05699911
v -0.10627002 0.46986744 0.05904503
v -0.11511327 0.47000419 0.02720648
v -0.11894424 0.46986315 0.02833957
v -0.11937796 0.46989038 -0.00459175
v -0.12329339 0.46999469 -0.00463302
v 0.12670439 0.46992540 -0.03750073
v 0.12283824 0.47004261 -0.03636498
v 0.11402785 0.47001546 -0.06809330
v 0.11049069 0.46989011 -0.06615043
v 0.09388291 0.47001281 -0.09445850
v 0.09093985 0.47002803 -0.09157704
v 0.06744207 0.46993586 -0.11465652
v 0.06547373 0.46991089 -0.11124595
v 0.03668598 0.46994221 -0.12743873
v 0.03571673 0.46993891 -0.12353984
v 0.00390683 0.47004336 -0.13187084
v 0.00386645 0.47003610 -0.12781721
v -0.02797840 0.46989471 -0.12347861
v -0.02916450 0.46994991 -0.12744624
v -0.05780361 0.46989063 -0.11118184
v -0.05969337 0.46991685 -0.11478222
v -0.08333183 0.47001451 -0.09177041
v -0.08613808 0.47005245 -0.09461680
v -0.10272138 0.46994780 -0.06612486
v -0.10621049 0.46997376 -0.06826864
v -0.11511287 0.46995406 -0.03643781
v -0.11898970 0.46991797 -0.03750813
v -0.12337566 0.46993025 -0.00456064
v -0.11936119 0.46993919 -0.00450597
v -0.11898676 0.46988266 -0.03753704
v -0.11515534 0.46996443 -0.03653496
v -0.10626018 0.47001590 -0.06814962
v -0.10289867 0.46993070 -0.06618235
v -0.08602141 0.46990070 -0.09445357
v -0.08332121 0.46998389 -0.09174990
v -0.05967501 0.47004336 -0.11469392
v -0.05779961 0.46992715 -0.11128359
v -0.02903400 0.46988815 -0.12743421
v -0.02793956 0.47003478 -0.12349899
v 0.00382464 0.46994604 -0.13179160
v 0.00384987 0.46986552 -0.12766286
v 0.03569780 0.46989872 -0.12359985
v 0.03671515 0.47001706 -0.12742371
v 0.06541323 0.47004531 -0.11125615
v 0.06742707 0.46996165 -0.11471981
v 0.09102389 0.46992512 -0.09161224
v 0.09379572 0.46996566 -0.09443331
v 0.11056980 0.46996457 -0.06625295
v 0.11391818 0.47003548 -0.06828297
v 0.12276995 0.46998577 -0.03647399
v 0.12673520 0.46989205 -0.03751123
v 0.12702298 0.46990090 -0.00465094
v 0.13105749 0.46992517 -0.00459219
v -0.11910310 0.46989462 0.02841217
v -0.11518442 0.46990613 0.02727921
v -0.10627543 0.46997172 0.05907020
v -0.10273534 0.46994306 0.05697093
v -0.08602670 0.46998127 0.08534872
v -0.08332347 0.47001936 0.08254411
v -0.05977897 0.46997766 0.10567109
v -0.05777820 0.46992537 0.10198340
v -0.02903676 0.46997177 0.11832267
v -0.02804275 0.47001162 0.11439364
v 0.00390051 0.47005871 0.11859665
v 0.00394949 0.46998634 0.12254270
v 0.03579171 0.46990331 0.11429723
v 0.03667905 0.46999785 0.11831112
v 0.06546006 0.47004971 0.10203567
v 0.06743516 0.46995918 0.10548592
v 0.09101796 0.46999749 0.08248510
v 0.09377460 0.46987477 0.08540004
v 0.11045762 0.46989750 0.05702521
v 0.11401454 0.46990539 0.05895947
v 0.12278218 0.46994756 0.02724567
v 0.12662966 0.47004094 0.02840017
v -0.11898256 0.47004464 -0.03754238
v -0.11909340 0.47702348 -0.03755831
v -0.11900709 0.47697777 -0.03750753
v -0.11910068 0.47003967 -0.03757500
v 0.12681054 0.47706175 -0.03747372
v 0.12698175 0.47695390 -0.00452712
v 0.13097512 0.47692327 -0.00451514
v 0.12272471 0.47705742 -0.03650016
v 0.11406179 0.47704462 -0.06813626
v 0.11061185 0.47701644 -0.06611566
v 0.09382670 0.47697519 -0.09445589
v 0.09087368 0.47700561 -0.09161164
v 0.06738358 0.47700475 -0.11472387
v 0.06544619 0.47691741 -0.11116110
v 0.03679207 0.47691701 -0.12737526
v 0.03576125 0.47698358 -0.12349249
v 0.00391245 0.47702060 -0.13171524
v 0.00393998 0.47697796 -0.12766789
v -0.02902436 0.47691164 -0.12742861
v -0.02796407 0.47703408 -0.12346241
v -0.05766804 0.47694746 -0.11115411
v -0.05977738 0.47696152 -0.11467163
v -0.08318278 0.47698523 -0.09172167
v -0.08602463 0.47693879 -0.09446097
v -0.10277333 0.47694491 -0.06623724
v -0.10633891 0.47689707 -0.06809510
v -0.11520891 0.47707312 -0.03640324
v -0.11906288 0.47699646 -0.03741780
v -0.11931626 0.47706938 -0.00450516
v -0.12342646 0.47702769 -0.00461617
v 0.12677275 0.47705185 0.02840564
v 0.12282517 0.47695005 0.02732449
v 0.11402237 0.47707128 0.05895112
v 0.11052631 0.47693651 0.05705821
v 0.09376187 0.47692278 0.08527057
v 0.09097470 0.47704843 0.08241844
v 0.06741600 0.47697054 0.10560220
v 0.06536616 0.47696404 0.10209040
v 0.03681281 0.47706432 0.11835519
v 0.03575370 0.47691731 0.11442117
v 0.00378628 0.47696607 0.12264363
v 0.00380372 0.47704659 0.11861188
v -0.02903342 0.47708110 0.11836899
v -0.02811732 0.47698858 0.11438684
v -0.05764362 0.47694717 0.10209708
v -0.05975813 0.47701858 0.10554318
v -0.08331919 0.47695613 0.08247880
v -0.08607140 0.47707086 0.08526791
v -0.10273712 0.47691372 0.05694893
v -0.10627192 0.47696573 0.05897796
v -0.11517406 0.47695485 0.02732846
v -0.11898438 0.47703898 0.02830141
v -0.12329112 0.47697392 -0.00449241
v -0.11926709 0.47692280 -0.00457479
v -0.11901060 0.47701270 0.02838721
v -0.11518201 0.47694728 0.02738331
v -0.10630106 0.47704560 0.05898417
v -0.10279481 0.47697787 0.05705312
v -0.08600440 0.47708146 0.08537494
v -0.08327878 0.47698194 0.08253676
v -0.05975057 0.47700653 0.10552280
v -0.05778459 0.47707710 0.10212056
v -0.02897426 0.47699534 0.11835644
v -0.02803523 0.47701351 0.11441460
v 0.00394173 0.47700832 0.11860643
v 0.00390206 0.47703363 0.12269684
v 0.03573647 0.47707915 0.11443012
v 0.03678923 0.47700654 0.11823968
v 0.06535201 0.47694232 0.10203913
v 0.06745926 0.47703589 0.10558333
v 0.09089557 0.47707136 0.08245397
v 0.09374854 0.47700907 0.08528970
v 0.11052911 0.47698676 0.05692749
v 0.11406345 0.47692690 0.05904068
v 0.12282033 0.47699790 0.02736031
v 0.12669976 0.47694172 0.02835179
v 0.12703784 0.47699166 -0.00462498
v 0.13097763 0.47694272 -0.00468245
v -0.11891811 0.47702816 -0.03742125
v -0.11516519 0.47708583 -0.03652035
v -0.10631224 0.47707411 -0.06820754
v -0.10287297 0.47698556 -0.06622203
v -0.08600141 0.47701721 -0.09451462
v -0.08327535 0.47703219 -0.09175124
v -0.05969114 0.47704950 -0.11469169
v -0.05772601 0.47699965 -0.11127667
v -0.02908465 0.47704535 -0.12745869
v -0.02793694 0.47694052 -0.12353931
v 0.00387489 0.47701951 -0.12767167
v 0.00391056 0.47703636 -0.13176707
v 0.03582993 0.47696937 -0.12358463
v 0.03671086 0.47708390 -0.12748256
v 0.06541719 0.47696753 -0.11120004
v 0.06739163 0.47708579 -0.11472564
v 0.09085203 0.47695422 -0.09175676
v 0.09378680 0.47699843 -0.09461659
v 0.11042241 0.47699430 -0.06621663
v 0.11398053 0.47692640 -0.06828119
v 0.12285966 0.47697381 -0.03643686
v 0.12662360 0.47694518 -0.03750928
v -0.05969910 0.46994493 -0.11479834
v -0.05975452 0.47698073 -0.11468726
v -0.05980646 0.47693373 -0.11481347
v -0.05981296 0.46992857 -0.11473481
v 0.06749329 0.47690739 0.10563565
v 0.03675049 0.46990298 0.11825574
v 0.06749612 0.46994534 0.10565734
v 0.03675211 0.47694611 0.11821288
v 0.03678836 0.47708915 0.11819536
v 0.06747497 0.47699256 0.10554206
v 0.03667850 0.46989255 0.11835774
v 0.06742893 0.46997024 0.10555001
v 0.00384492 0.47005400 0.12260849
v 0.00389271 0.47707413 0.12265122
v 0.00382404 0.47708173 0.12262999
v 0.00388079 0.46998871 0.12260024
v -0.02907718 0.46999630 0.11818489
v -0.02898090 0.47703865 0.11837904
v -0.02909004 0.47701423 0.11823456
v -0.02906312 0.47002864 0.11820698
v -0.05979742 0.47001525 0.10557080
v -0.05976461 0.47708455 0.10562178
v -0.05984004 0.47701933 0.10562007
v -0.05971782 0.46999921 0.10562720
v -0.08611260 0.46989512 0.08537904
v -0.08612225 0.47705757 0.08537407
v -0.08614752 0.47696883 0.08528946
v -0.08601424 0.46998301 0.08530070
v -0.10621580 0.47696778 0.05896789
v -0.10629259 0.46996248 0.05909077
v -0.10631715 0.47695434 0.05899061
v -0.10621551 0.46990279 0.05900731
v -0.11896319 0.47704606 0.02834292
v -0.11909625 0.46993698 0.02836428
v -0.11897790 0.47700449 0.02832249
v -0.11895781 0.47001579 0.02833776
v -0.12329286 0.47704656 -0.00456461
v -0.12339351 0.47002779 -0.00458212
v -0.12335286 0.47693730 -0.00452388
v -0.12340418 0.46992214 -0.00467261
v -0.02911718 0.46994246 -0.12739589
v -0.02911390 0.47695965 -0.12738599
v -0.02898207 0.47703391 -0.12736908
v -0.02912424 0.46986246 -0.12753630
v 0.00387477 0.46992659 -0.13180729
v 0.00377238 0.47700958 -0.13181034
v 0.00384146 0.47699292 -0.13185272
v 0.00386555 0.46992997 -0.13183851
v 0.03686683 0.46986902 -0.12739458
v 0.03680963 0.47704646 -0.12743704
v 0.03685395 0.47707167 -0.12738153
v 0.03673691 0.46987020 -0.12750661
v 0.06739835 0.46994805 -0.11473700
v 0.06751067 0.47708365 -0.11480241
v 0.06737822 0.47707228 -0.11480921
v 0.06744025 0.46994831 -0.11474020
v 0.09388928 0.46996524 -0.09447334
v 0.09373665 0.47702260 -0.09457889
v 0.09374504 0.47706190 -0.09457321
v 0.09386331 0.47003658 -0.09450066
v 0.11397587 0.47702366 -0.06812603
v 0.11408020 0.46990288 -0.06809361
v 0.11408566 0.46999544 -0.06826577
v 0.11406585 0.47705695 -0.06810335
v 0.12680751 0.47706387 -0.03754925
v 0.12677929 0.47003556 -0.03757517
v 0.12674158 0.46989393 -0.03750043
v 0.12677281 0.47700758 -0.03742725
v 0.13103955 0.47696733 -0.00466853
v 0.13098335 0.47001161 -0.00454187
v 0.13113686 0.47004136 -0.00455770
v 0.13114230 0.47704641 -0.00457360
v 0.12671884 0.47708990 0.02840318
v 0.12675285 0.46991457 0.02830890
v 0.12662712 0.47005820 0.02831552
v 0.12671441 0.47692275 0.02839330
v 0.11398110 0.47701384 0.05908983
v 0.11397990 0.47005022 0.05907748
v 0.11404105 0.46998786 0.05895802
v 0.11394105 0.47705833 0.05898885
v 0.09386430 0.47704454 0.08529795
v 0.09378285 0.47004294 0.08539772
v 0.09387492 0.46990413 0.08542747
v 0.09381996 0.47692777 0.08543850
vn -0.866025402838329 0 -0.5000000016387101
vn -0.7071067811865476 0 -0.7071067811865476
vn 0.866025402838329 0 0.5000000016387101
vn 0.7071067811865476 0 0.7071067811865476
vn 0 -1 0
vn 0 1 0
vn -0.9659258358036645 0 -0.25881900959356163
vn 0.9659258358036645 0 0.25881900959356163
vn -0.5000000016387101 0 -0.866025402838329
vn 0.5000000016387101 0 0.866025402838329
vn 0.25881900959356163 0 0.9659258358036645
vn -0.25881900959356163 0 -0.9659258358036645
vn 0 0 1
vn 0 0 -1
vn -0.25881900959356163 0 0.9659258358036645
vn 0.25881900959356163 0 -0.9659258358036645
vn -0.5000000016387101 0 0.866025402838329
vn 0.5000000016387101 0 -0.866025402838329
vn -0.7071067811865476 0 0.7071067811865476
vn 0.7071067811865476 0 -0.7071067811865476
vn -0.866025402838329 0 0.5000000016387101
vn 0.866025402838329 0 -0.5000000016387101
vn -0.9659258358036645 0 0.25881900959356163
vn 0.9659258358036645 0 -0.25881900959356163
vn -1 0 0
vn 1 0 0
usemtl material_0_0
f 1//1 2//2 3//2
f 2//2 1//1 4//1
f 5//3 6//3 7//4
f 8//4 7//4 6//3
f 9//5 10//5 11//5
f 10//5 9//5 12//5
f 12//5 9//5 13//5
f 12//5 13//5 14//5
f 14//5 13//5 15//5
f 14//5 15//5 16//5
f 16//5 15//5 17//5
f 16//5 17//5 18//5
f 18//5 17//5 19//5
f 18//5 19//5 20//5
f 20//5 19//5 21//5
f 20//5 21//5 22//5
f 22//5 21//5 23//5
f 22//5 23//5 24//5
f 24//5 23//5 25//5
f 25//5 23//5 26//5
f 25//5 26//5 27//5
f 27//5 26//5 28//5
f 27//5 28//5 29//5
f 29//5 28//5 30//5
f 29//5 30//5 31//5
f 31//5 30//5 32//5
f 31//5 32//5 33//5
f 33//5 32//5 34//5
f 10//5 35//5 11//5
f 35//5 10//5 36//5
f 35//5 36//5 37//5
f 37//5 36//5 38//5
f 37//5 38//5 39//5
f 39//5 38//5 40//5
f 39//5 40//5 41//5
f 41//5 40//5 42//5
f 41//5 42//5 43//5
f 43//5 42//5 44//5
f 43//5 44//5 45//5
f 45//5 44//5 46//5
f 45//5 46//5 47//5
f 45//5 47//5 48//5
f 48//5 47//5 49//5
f 48//5 49//5 50//5
f 50//5 49//5 51//5
f 50//5 51//5 52//5
f 52//5 51//5 53//5
f 52//5 53//5 54//5
f 54//5 53//5 55//5
f 54//5 55//5 56//5
f 56//5 55//5 33//5
f 56//5 33//5 34//5
f 57//6 58//6 59//6
f 58//6 60//6 59//6
f 59//6 60//6 61//6
f 60//6 62//6 61//6
f 61//6 62//6 63//6
f 62//6 64//6 63//6
f 63//6 64//6 65//6
f 64//6 66//6 65//6
f 65//6 66//6 67//6
f 66//6 68//6 67//6
f 67//6 68//6 69//6
f 68//6 70//6 69//6
f 70//6 71//6 69//6
f 69//6 71//6 72//6
f 71//6 73//6 72//6
f 72//6 73//6 74//6
f 73//6 75//6 74//6
f 74//6 75//6 76//6
f 75//6 77//6 76//6
f 76//6 77//6 78//6
f 77//6 79//6 78//6
f 78//6 79//6 80//6
f 79//6 81//6 80//6
f 82//6 80//6 81//6
f 57//6 83//6 58//6
f 58//6 83//6 84//6
f 83//6 85//6 84//6
f 84//6 85//6 86//6
f 85//6 87//6 86//6
f 86//6 87//6 88//6
f 87//6 89//6 88//6
f 88//6 89//6 90//6
f 89//6 91//6 90//6
f 90//6 91//6 92//6
f 92//6 91//6 93//6
f 91//6 94//6 93//6
f 93//6 94//6 95//6
f 94//6 96//6 95//6
f 95//6 96//6 97//6
f 96//6 98//6 97//6
f 97//6 98//6 99//6
f 98//6 100//6 99//6
f 99//6 100//6 101//6
f 100//6 102//6 101//6
f 101//6 102//6 103//6
f 102//6 104//6 103//6
f 103//6 104//6 81//6
f 82//6 81//6 104//6
f 105//7 4//1 1//1
f 4//1 105//7 106//7
f 107//8 108//8 5//3
f 6//3 5//3 108//8
f 109//6 110//6 111//6
f 110//6 109//6 112//6
f 112//6 109//6 113//6
f 112//6 113//6 114//6
f 114//6 113//6 115//6
f 114//6 115//6 116//6
f 116//6 115//6 117//6
f 116//6 117//6 118//6
f 118//6 117//6 119//6
f 118//6 119//6 120//6
f 120//6 119//6 121//6
f 120//6 121//6 122//6
f 122//6 121//6 123//6
f 122//6 123//6 124//6
f 124//6 123//6 125//6
f 125//6 123//6 126//6
f 125//6 126//6 127//6
f 127//6 126//6 128//6
f 127//6 128//6 129//6
f 129//6 128//6 130//6
f 129//6 130//6 131//6
f 131//6 130//6 132//6
f 131//6 132//6 133//6
f 133//6 132//6 134//6
f 110//6 135//6 111//6
f 135//6 110//6 136//6
f 135//6 136//6 137//6
f 137//6 136//6 138//6
f 137//6 138//6 139//6
f 139//6 138//6 140//6
f 139//6 140//6 141//6
f 141//6 140//6 142//6
f 141//6 142//6 143//6
f 143//6 142//6 144//6
f 143//6 144//6 145//6
f 145//6 144//6 146//6
f 145//6 146//6 147//6
f 147//6 146//6 148//6
f 147//6 148//6 149//6
f 147//6 149//6 150//6
f 150//6 149//6 151//6
f 150//6 151//6 152//6
f 152//6 151//6 153//6
f 152//6 153//6 154//6
f 154//6 153//6 155//6
f 154//6 155//6 156//6
f 156//6 155//6 133//6
f 156//6 133//6 134//6
f 157//5 158//5 159//5
f 158//5 160//5 159//5
f 159//5 160//5 161//5
f 160//5 162//5 161//5
f 161//5 162//5 163//5
f 162//5 164//5 163//5
f 163//5 164//5 165//5
f 164//5 166//5 165//5
f 165//5 166//5 167//5
f 166//5 168//5 167//5
f 168//5 169//5 167//5
f 167//5 169//5 170//5
f 169//5 171//5 170//5
f 170//5 171//5 172//5
f 171//5 173//5 172//5
f 172//5 173//5 174//5
f 173//5 175//5 174//5
f 174//5 175//5 176//5
f 175//5 177//5 176//5
f 176//5 177//5 178//5
f 177//5 179//5 178//5
f 178//5 179//5 180//5
f 179//5 181//5 180//5
f 182//5 180//5 181//5
f 157//5 183//5 158//5
f 158//5 183//5 184//5
f 183//5 185//5 184//5
f 184//5 185//5 186//5
f 185//5 187//5 186//5
f 186//5 187//5 188//5
f 187//5 189//5 188//5
f 188//5 189//5 190//5
f 189//5 191//5 190//5
f 190//5 191//5 192//5
f 192//5 191//5 193//5
f 191//5 194//5 193//5
f 193//5 194//5 195//5
f 194//5 196//5 195//5
f 195//5 196//5 197//5
f 196//5 198//5 197//5
f 197//5 198//5 199//5
f 198//5 200//5 199//5
f 199//5 200//5 201//5
f 200//5 202//5 201//5
f 201//5 202//5 203//5
f 202//5 204//5 203//5
f 203//5 204//5 181//5
f 182//5 181//5 204//5
f 2//2 205//9 3//2
f 205//9 2//2 206//9
f 207//10 7//4 208//10
f 8//4 208//10 7//4
f 209//10 210//11 211//10
f 210//11 209//10 212//11
f 213//12 214//9 215//12
f 216//9 215//12 214//9
f 212//11 217//13 210//11
f 217//13 212//11 218//13
f 219//14 213//12 220//14
f 215//12 220//14 213//12
f 218//13 221//15 217//13
f 221//15 218//13 222//15
f 223//16 219//14 224//16
f 220//14 224//16 219//14
f 222//15 225//17 221//15
f 225//17 222//15 226//17
f 227//18 223//16 228//18
f 224//16 228//18 223//16
f 226//17 229//19 225//17
f 229//19 226//17 230//19
f 231//20 227//18 232//20
f 228//18 232//20 227//18
f 229//19 233//21 234//21
f 233//21 229//19 230//19
f 231//20 232//20 235//22
f 236//22 235//22 232//20
f 234//21 237//23 238//23
f 237//23 234//21 233//21
f 235//22 236//22 239//24
f 240//24 239//24 236//22
f 238//23 241//25 242//25
f 241//25 238//23 237//23
f 239//24 240//24 243//26
f 244//26 243//26 240//24
f 242//25 106//7 105//7
f 106//7 242//25 241//25
f 243//26 244//26 107//8
f 108//8 107//8 244//26
f 206//9 245//12 205//9
f 245//12 206//9 246//12
f 247//11 207//10 248//11
f 208//10 248//11 207//10
f 246//12 249//14 245//12
f 249//14 246//12 250//14
f 251//13 247//11 252//13
f 248//11 252//13 247//11
f 250//14 253//16 249//14
f 253//16 250//14 254//16
f 255//15 251//13 256//15
f 252//13 256//15 251//13
f 254//16 257//18 253//16
f 257//18 254//16 258//18
f 259//17 255//15 260//17
f 256//15 260//17 255//15
f 258//18 261//20 257//18
f 261//20 258//18 262//20
f 263//19 259//17 264//19
f 260//17 264//19 259//17
f 265//22 261//20 262//20
f 261//20 265//22 266//22
f 267//21 268//21 264//19
f 263//19 264//19 268//21
f 269//24 266//22 265//22
f 266//22 269//24 270//24
f 271//23 272//23 267//21
f 268//21 267//21 272//23
f 273//26 270//24 269//24
f 270//24 273//26 274//26
f 275//25 276//25 271//23
f 272//23 271//23 276//25
f 277//8 274//26 273//26
f 274//26 277//8 278//8
f 279//7 280//7 275//25
f 276//25 275//25 280//7
f 281//3 278//8 277//8
f 278//8 281//3 282//3
f 283//1 284//1 279//7
f 280//7 279//7 284//1
f 285//4 282//3 281//3
f 282//3 285//4 286//4
f 287//2 288//2 283//1
f 284//1 283//1 288//2
f 285//4 211//10 286//4
f 211//10 285//4 209//10
f 214//9 288//2 216//9
f 287//2 216//9 288//2
