# SSTK version 0.8.0
# 32
mtllib original-32.mtl
o #ID285
v 0.26360888 0.15119968 -0.07061069
v 0.26377528 0.14879711 -0.07261651
v 0.26369353 0.15208034 -0.07267239
v 0.26373055 0.14570607 -0.07235005
v 0.26369338 0.14257251 -0.07136530
v 0.26366052 0.13954561 -0.07025294
v 0.26371854 0.15028352 -0.06860597
v 0.26365738 0.13683563 -0.06872593
v 0.26379972 0.13411179 -0.06686335
v 0.26377035 0.14944856 -0.06630217
v 0.26371174 0.13190260 -0.06465059
v 0.26376724 0.14872484 -0.06419481
v 0.26363102 0.13086746 -0.06340864
v 0.26360698 0.14791941 -0.06195517
v 0.26360408 0.12964601 -0.06205284
v 0.26366380 0.12809532 -0.05940784
v 0.26367800 0.14732796 -0.05966311
v 0.26372294 0.14664989 -0.05746516
v 0.26376174 0.12658793 -0.05662111
v 0.26361949 0.14607726 -0.05516573
v 0.26369261 0.12505022 -0.05030933
v 0.26377374 0.14561024 -0.05274137
v 0.26368159 0.14519936 -0.05041015
v 0.26373318 0.14442467 -0.04585391
v 0.26366411 0.11944927 -0.01064085
v 0.26363574 0.13941697 -0.00991630
v 0.26362044 0.11850245 -0.00512861
v 0.26377843 0.13752802 -0.00242276
v 0.26368377 0.11787450 -0.00231997
v 0.26376694 0.13587606 0.00103748
v 0.26366915 0.11707160 0.00057554
v 0.26361494 0.11630198 0.00323187
v 0.26379305 0.13388992 0.00452349
v 0.26362162 0.11526416 0.00584098
v 0.26369165 0.13160817 0.00769721
v 0.26367712 0.11419245 0.00841475
v 0.26362897 0.13080503 0.00846529
v 0.26366810 0.12885284 0.01042319
v 0.26365359 0.11312869 0.01084109
v 0.26361432 0.12598141 0.01291615
v 0.26361253 0.11199735 0.01330836
v 0.26379500 0.12274692 0.01512813
v 0.26363513 0.11084278 0.01554995
v 0.26376505 0.11935959 0.01695176
v 0.26369372 0.10950597 0.01784523
v 0.26375965 0.11572690 0.01838868
v 0.26364099 0.10808030 0.01980827
v 0.26378857 0.11180508 0.01937198
vn 1 0 0
usemtl material_0_0
f 1//1 2//1 3//1
f 2//1 1//1 4//1
f 4//1 1//1 5//1
f 5//1 1//1 6//1
f 6//1 1//1 7//1
f 6//1 7//1 8//1
f 8//1 7//1 9//1
f 9//1 7//1 10//1
f 9//1 10//1 11//1
f 11//1 10//1 12//1
f 11//1 12//1 13//1
f 13//1 12//1 14//1
f 13//1 14//1 15//1
f 15//1 14//1 16//1
f 16//1 14//1 17//1
f 16//1 17//1 18//1
f 16//1 18//1 19//1
f 19//1 18//1 20//1
f 19//1 20//1 21//1
f 21//1 20//1 22//1
f 21//1 22//1 23//1
f 21//1 23//1 24//1
f 21//1 24//1 25//1
f 25//1 24//1 26//1
f 25//1 26//1 27//1
f 27//1 26//1 28//1
f 27//1 28//1 29//1
f 29//1 28//1 30//1
f 29//1 30//1 31//1
f 31//1 30//1 32//1
f 32//1 30//1 33//1
f 32//1 33//1 34//1
f 34//1 33//1 35//1
f 34//1 35//1 36//1
f 36//1 35//1 37//1
f 36//1 37//1 38//1
f 36//1 38//1 39//1
f 39//1 38//1 40//1
f 39//1 40//1 41//1
f 41//1 40//1 42//1
f 41//1 42//1 43//1
f 43//1 42//1 44//1
f 43//1 44//1 45//1
f 45//1 44//1 46//1
f 45//1 46//1 47//1
f 47//1 46//1 48//1
