# SSTK version 0.8.0
# 30
mtllib original-30.mtl
o #ID271
v 0.26362856 0.13086778 0.07812223
v 0.26373318 0.12898876 0.01046136
v 0.26375605 0.13085703 0.00833770
v 0.26370610 0.12592195 0.01292174
v 0.26374988 0.12275171 0.01515668
v 0.26372574 0.11932350 0.01704181
v 0.26372592 0.11567204 0.01832266
v 0.26370964 0.11184312 0.01924787
v 0.26365001 0.10803671 0.01993023
v 0.26376039 0.04436116 0.03425735
v 0.26361039 0.04350105 0.04981749
v 0.26371234 0.04230881 0.05752257
v 0.26379761 0.04082266 0.06525545
v 0.26365971 0.03874928 0.07284544
v 0.26373243 0.03631158 0.08018963
v 0.26369042 0.13052551 0.08350068
v 0.26374899 0.03338486 0.08753983
v 0.26362676 0.12942855 0.08887546
v 0.26377720 0.03027534 0.09442557
v 0.26379144 0.12787484 0.09398188
v 0.26377633 0.12542915 0.09891886
v 0.26368795 0.02659900 0.10149101
v 0.26373247 0.12263943 0.10343538
v 0.26364821 0.02241604 0.10807925
v 0.26375441 0.11913668 0.10758461
v 0.26362372 0.11523599 0.11114969
v 0.26375771 0.01807937 0.11440124
v 0.26368137 0.11067814 0.11420674
v 0.26375735 0.10601626 0.11680388
v 0.26374159 0.01321531 0.12056727
v 0.26378696 0.10106563 0.11875286
v 0.26363875 0.09582844 0.12000470
v 0.26365491 0.09043982 0.12060750
v 0.26361356 0.14535704 -0.13776773
v 0.26371136 0.07529166 -0.14378326
v 0.26361870 0.14806034 -0.14379895
v 0.26365909 0.07079115 -0.14331993
v 0.26369600 0.06633419 -0.14234325
v 0.26380298 0.06216113 -0.14090954
v 0.26364978 0.05822268 -0.13865061
v 0.26380153 0.05467973 -0.13608096
v 0.26379762 0.14279733 -0.13185685
v 0.26362888 0.05145423 -0.13277561
v 0.26365932 0.04881804 -0.12913798
v 0.26376625 0.14065136 -0.12588291
v 0.26373726 0.04665105 -0.12531354
v 0.26364664 0.13861472 -0.11969758
v 0.26362231 0.04518222 -0.12102923
v 0.26376377 0.04421374 -0.11662222
v 0.26361035 0.13671287 -0.11340444
v 0.26376646 0.04439649 -0.10782338
v 0.26372726 0.13527449 -0.10719362
v 0.26368694 0.13395932 -0.10081653
v 0.26371546 0.13288510 -0.09450044
v 0.26374130 0.13199232 -0.08811554
v 0.26362444 0.13144002 -0.08153534
v 0.26372863 0.13082363 -0.06862139
v 0.26373596 0.13097482 -0.06343236
v 0.26379237 0.12979008 -0.06223204
v 0.26377797 0.12800277 -0.05952482
v 0.26360744 0.12669588 -0.05653608
v 0.26363914 0.12493110 -0.05026034
v 0.26365574 0.11952977 -0.01064503
v 0.26376633 0.11840250 -0.00498198
v 0.26362159 0.11778247 -0.00218283
v 0.26376160 0.11701753 0.00055668
v 0.26362377 0.11615056 0.00313577
v 0.26361213 0.11521491 0.00572957
v 0.26366252 0.11424446 0.00846243
v 0.26378940 0.11316032 0.01078460
v 0.26365014 0.11192426 0.01327253
v 0.26372452 0.11076184 0.01567447
v 0.26361498 0.10941687 0.01788789
vn 1 0 0
usemtl material_0_0
f 1//1 2//1 3//1
f 2//1 1//1 4//1
f 4//1 1//1 5//1
f 5//1 1//1 6//1
f 6//1 1//1 7//1
f 7//1 1//1 8//1
f 8//1 1//1 9//1
f 9//1 1//1 10//1
f 10//1 1//1 11//1
f 11//1 1//1 12//1
f 12//1 1//1 13//1
f 13//1 1//1 14//1
f 14//1 1//1 15//1
f 15//1 1//1 16//1
f 15//1 16//1 17//1
f 17//1 16//1 18//1
f 17//1 18//1 19//1
f 19//1 18//1 20//1
f 19//1 20//1 21//1
f 19//1 21//1 22//1
f 22//1 21//1 23//1
f 22//1 23//1 24//1
f 24//1 23//1 25//1
f 24//1 25//1 26//1
f 24//1 26//1 27//1
f 27//1 26//1 28//1
f 27//1 28//1 29//1
f 27//1 29//1 30//1
f 30//1 29//1 31//1
f 30//1 31//1 32//1
f 30//1 32//1 33//1
f 34//1 35//1 36//1
f 35//1 34//1 37//1
f 37//1 34//1 38//1
f 38//1 34//1 39//1
f 39//1 34//1 40//1
f 40//1 34//1 41//1
f 41//1 34//1 42//1
f 41//1 42//1 43//1
f 43//1 42//1 44//1
f 44//1 42//1 45//1
f 44//1 45//1 46//1
f 46//1 45//1 47//1
f 46//1 47//1 48//1
f 48//1 47//1 49//1
f 49//1 47//1 50//1
f 49//1 50//1 51//1
f 51//1 50//1 52//1
f 51//1 52//1 10//1
f 10//1 52//1 53//1
f 10//1 53//1 54//1
f 10//1 54//1 55//1
f 10//1 55//1 56//1
f 10//1 56//1 57//1
f 10//1 57//1 58//1
f 10//1 58//1 59//1
f 10//1 59//1 60//1
f 10//1 60//1 61//1
f 10//1 61//1 62//1
f 10//1 62//1 63//1
f 10//1 63//1 64//1
f 10//1 64//1 65//1
f 10//1 65//1 66//1
f 10//1 66//1 67//1
f 10//1 67//1 68//1
f 10//1 68//1 69//1
f 10//1 69//1 70//1
f 10//1 70//1 71//1
f 10//1 71//1 72//1
f 10//1 72//1 73//1
f 10//1 73//1 9//1
