mtllib new-0.mtl
v 0.13044546 0.91085559 -0.38203789
v -0.04694433 0.91078591 -0.05896057
v -0.06232906 0.91081307 -0.04343965
v -0.02793962 0.91080008 -0.06998558
v 0.13060700 0.95273292 -0.38185503
v -0.00685648 0.91089221 -0.07558860
v -0.06242411 0.86908292 -0.04362227
v -0.06245380 0.95277912 -0.04350203
v 0.13357297 0.91487570 -0.38069193
v 0.01496255 0.91084962 -0.07560005
v 0.13950872 0.97368231 -0.35576953
v 0.18998965 0.91084916 -0.35721691
v -0.07319157 0.86906384 -0.02460570
v -0.07332676 0.95279332 -0.02467033
v -0.04441095 0.97375420 -0.03313172
v 0.19014079 0.95269121 -0.35722208
v 0.18649927 0.91481391 -0.35873811
v 0.12257789 0.91491687 -0.20393279
v 0.13350887 0.94891545 -0.38071437
v 0.06941395 0.94884660 -0.22591140
v 0.03603506 0.91078149 -0.06997091
v -0.05391324 0.97368316 -0.01650416
v -0.05827978 0.97370413 0.01569241
v 0.16511841 0.97368534 -0.34513905
v 0.18652731 0.94882282 -0.35864362
v 0.06943164 0.91494123 -0.22604778
v 0.05502263 0.91083486 -0.05896572
v -0.07890033 0.95274097 -0.00351377
v -0.05816805 0.97366561 -0.00077605
v -0.05399449 0.97359053 0.03155365
v -0.02002409 0.97363893 0.06548404
v 0.08715880 0.95265160 0.01841617
v 0.12242037 0.94894650 -0.20408588
v 0.07041558 0.91093149 -0.04359775
v -0.07899221 0.86909180 0.01834068
v -0.07886450 0.86905302 -0.00348512
v -0.07326837 0.86905471 0.03945677
v -0.07886399 0.95283614 0.01830218
v -0.07334447 0.95274932 0.03951803
v -0.05202484 0.97365023 0.03480818
v -0.04566557 0.97362388 0.04570766
v -0.03423550 0.97374601 0.05721355
v -0.00411061 0.97375694 0.06963024
v 0.06708713 0.97363262 0.01290473
v 0.08711237 0.91091090 0.01840634
v 0.08145696 0.91090334 -0.02451452
v -0.06228128 0.86907925 0.05845805
v -0.07002328 0.86909892 0.04533247
v -0.06991965 0.95273138 0.04526603
v -0.06237063 0.95266624 0.05847221
v -0.02807503 0.95268252 0.08486483
v -0.00677011 0.95269935 0.09043312
v 0.06204592 0.97376195 0.03153595
v 0.08714348 0.86909979 0.01843930
v 0.08717426 0.91088347 -0.00349384
v -0.04698194 0.86909408 0.07390360
v -0.04680983 0.95271284 0.07389753
v 0.01233694 0.97376342 0.06976636
v 0.08151424 0.95281078 0.03947769
v 0.05394877 0.97365825 0.04577184
v -0.02805862 0.86901232 0.08481554
v -0.00678857 0.86903978 0.09043114
v 0.01499668 0.95271550 0.09049653
v 0.02802588 0.97370549 0.06555975
v 0.07041301 0.95275389 0.05838449
v 0.04230565 0.97366274 0.05737510
v 0.08139796 0.86901551 0.03941634
v 0.05502203 0.95267419 0.07384765
v 0.01505298 0.86902379 0.09050737
v 0.03607840 0.95280152 0.08486108
v 0.07047563 0.86905272 0.05834219
v 0.05513743 0.86906536 0.07381632
vn 0.000000 -1.000000 0.000000
vn 0.000000 1.000000 0.000000
vn -0.608710 0.000000 -0.793393
vn -0.793314 0.000000 -0.608813
vn 0.608710 0.000000 0.793393
vn 0.793314 0.000000 0.608813
vn -0.868802 0.000000 -0.495159
vn 0.868802 0.000000 0.495159
vn -0.382624 0.000000 -0.923904
vn 0.382624 0.000000 0.923904
vn 0.382743 0.000000 -0.923855
vn -0.130462 0.000000 -0.991453
vn 0.130462 0.000000 0.991453
vn -0.430423 -0.707107 -0.561013
vn -0.560958 -0.707107 -0.430496
vn 0.560958 0.707107 0.430496
vn 0.430423 0.707107 0.561013
vn -0.865993 0.000000 -0.500056
vn 0.865993 0.000000 0.500056
vn -0.270556 -0.707107 -0.653299
vn 0.270556 0.707107 0.653299
vn -0.616969 0.704063 -0.351632
vn 0.616969 -0.704063 0.351632
vn -0.382743 0.000000 0.923855
vn 0.130590 0.000000 -0.991436
vn -0.130590 0.000000 0.991436
vn -0.092250 -0.707107 -0.701063
vn 0.092250 0.707107 0.701063
vn -0.653264 -0.707107 -0.270640
vn 0.653264 0.707107 0.270640
vn -0.923855 0.000000 -0.382743
vn 0.923855 0.000000 0.382743
vn 0.271800 0.704063 -0.656064
vn -0.271800 -0.704063 0.656064
vn 0.092341 -0.707107 -0.701052
vn -0.092341 0.707107 0.701052
vn -0.614974 0.704063 -0.355109
vn -0.653264 0.707107 -0.270640
vn 0.614974 -0.704063 0.355109
vn 0.653264 -0.707107 0.270640
vn -0.991436 0.000000 -0.130590
vn 0.991436 0.000000 0.130590
vn 0.684880 0.704063 0.187710
vn -0.684880 -0.704063 -0.187710
vn 0.964432 0.000000 0.264330
vn -0.964432 0.000000 -0.264330
vn 0.608813 0.000000 -0.793314
vn -0.608813 0.000000 0.793314
vn 0.430496 -0.707107 -0.560958
vn -0.430496 0.707107 0.560958
vn -0.701052 0.707107 -0.092341
vn 0.701052 -0.707107 0.092341
vn -0.701063 0.707107 0.092250
vn 0.701063 -0.707107 -0.092250
vn -0.653299 0.707107 0.270556
vn 0.653299 -0.707107 -0.270556
vn 0.793393 0.000000 -0.608710
vn -0.793393 0.000000 0.608710
vn -0.991453 0.000000 0.130462
vn 0.991453 0.000000 -0.130462
vn 0.615021 -0.704063 -0.355029
vn -0.561013 0.707107 0.430423
vn -0.615021 0.704063 0.355029
vn 0.561013 -0.707107 -0.430423
vn -0.355109 0.704063 0.614974
vn 0.355109 -0.704063 -0.614974
vn -0.183841 0.704063 0.685929
vn 0.183841 -0.704063 -0.685929
vn 0.685929 0.704063 0.183841
vn -0.685929 -0.704063 -0.183841
vn 0.965909 0.000000 0.258882
vn -0.965909 0.000000 -0.258882
vn 0.923904 0.000000 -0.382624
vn -0.923904 0.000000 0.382624
vn -0.866058 0.000000 0.499944
vn 0.866058 0.000000 -0.499944
usemtl material-0
f 1//1 2//1 3//1
f 2//1 1//1 4//1
f 3//2 2//2 1//2
f 4//2 1//2 2//2
f 3//7 5//7 1//7
f 1//8 5//8 3//8
f 4//1 1//1 6//1
f 6//2 1//2 4//2
f 5//7 3//7 8//7
f 8//8 3//8 5//8
f 9//11 1//11 5//11
f 6//1 1//1 10//1
f 10//2 1//2 6//2
f 7//4 8//18 3//4
f 3//6 8//19 7//6
f 8//22 11//22 5//22
f 5//23 11//23 8//23
f 1//11 9//11 12//11
f 12//24 9//24 1//24
f 5//24 1//24 9//24
f 10//1 1//1 12//1
f 12//2 1//2 10//2
f 7//4 14//31 8//18
f 8//19 14//32 7//6
f 11//22 8//22 15//22
f 15//23 8//23 11//23
f 11//33 16//33 5//33
f 5//34 16//34 11//34
f 17//11 12//11 9//11
f 9//24 12//24 17//24
f 9//2 18//2 17//2
f 17//1 18//1 9//1
f 9//11 5//11 19//11
f 19//24 5//24 9//24
f 20//32 9//32 19//32
f 19//31 9//31 20//31
f 10//1 12//1 21//1
f 21//2 12//2 10//2
f 8//37 22//38 15//37
f 15//39 22//40 8//39
f 15//2 23//2 11//2
f 11//1 23//1 15//1
f 16//33 11//33 24//33
f 24//34 11//34 16//34
f 19//11 5//11 25//11
f 16//11 25//11 5//11
f 25//24 5//24 19//24
f 5//24 25//24 16//24
f 12//11 17//11 16//11
f 16//24 17//24 12//24
f 18//2 9//2 26//2
f 26//1 9//1 18//1
f 18//31 25//31 17//31
f 17//32 25//32 18//32
f 9//32 20//32 26//32
f 26//31 20//31 9//31
f 25//1 20//1 19//1
f 19//2 20//2 25//2
f 21//1 12//1 27//1
f 27//2 12//2 21//2
f 13//31 28//41 14//31
f 14//32 28//42 13//32
f 22//38 8//37 14//38
f 14//40 8//39 22//40
f 29//2 15//2 22//2
f 22//1 15//1 29//1
f 15//2 29//2 23//2
f 23//1 29//1 15//1
f 11//2 23//2 30//2
f 30//1 23//1 11//1
f 11//2 31//2 24//2
f 24//1 31//1 11//1
f 24//43 32//43 16//43
f 16//44 32//44 24//44
f 16//11 17//11 25//11
f 25//24 17//24 16//24
f 32//45 12//45 16//45
f 16//46 12//46 32//46
f 20//11 18//11 26//11
f 26//24 18//24 20//24
f 25//31 18//31 33//31
f 33//32 18//32 25//32
f 20//1 25//1 33//1
f 33//2 25//2 20//2
f 27//1 12//1 34//1
f 34//2 12//2 27//2
f 29//51 14//38 28//51
f 28//52 14//40 29//52
f 14//38 29//51 22//38
f 22//40 29//52 14//40
f 29//51 38//53 23//53
f 23//54 38//54 29//52
f 23//53 39//55 30//55
f 30//56 39//56 23//54
f 11//2 30//2 40//2
f 11//2 40//2 41//2
f 40//1 30//1 11//1
f 41//1 40//1 11//1
f 11//2 42//2 31//2
f 31//1 42//1 11//1
f 24//2 31//2 43//2
f 43//1 31//1 24//1
f 32//43 24//43 44//43
f 44//44 24//44 32//44
f 12//45 32//45 45//45
f 45//46 32//46 12//46
f 18//11 20//11 33//11
f 33//24 20//24 18//24
f 34//1 12//1 46//1
f 46//2 12//2 34//2
f 36//41 38//59 28//41
f 28//42 38//60 36//42
f 38//53 29//51 28//51
f 28//52 29//52 38//54
f 39//55 23//53 38//53
f 38//54 23//54 39//56
f 39//56 30//56 49//61
f 30//55 50//62 40//63
f 40//61 50//64 30//56
f 40//63 50//62 41//62
f 41//64 50//64 40//61
f 11//2 41//2 42//2
f 42//1 41//1 11//1
f 42//50 51//65 31//65
f 31//66 51//66 42//49
f 31//67 52//36 43//36
f 43//35 52//35 31//68
f 24//2 43//2 44//2
f 44//1 43//1 24//1
f 53//30 32//69 44//69
f 44//70 32//70 53//29
f 55//1 12//1 45//1
f 45//2 12//2 55//2
f 46//1 12//1 55//1
f 55//2 12//2 46//2
f 35//59 39//74 38//59
f 38//60 39//73 35//60
f 49//63 30//55 39//55
f 30//55 49//63 50//62
f 50//64 49//61 30//56
f 37//74 49//75 39//74
f 39//73 49//76 37//73
f 57//50 41//62 50//62
f 50//64 41//64 57//49
f 41//62 57//50 42//50
f 42//49 57//49 41//64
f 51//65 42//50 57//50
f 57//49 42//49 51//66
f 52//36 31//67 51//67
f 51//68 31//68 52//35
f 52//36 58//28 43//36
f 43//35 58//27 52//35
f 44//2 43//2 58//2
f 58//1 43//1 44//1
f 32//69 53//30 59//30
f 59//29 53//29 32//70
f 44//2 60//2 53//2
f 53//1 60//1 44//1
f 59//32 54//42 32//71
f 32//72 54//41 59//31
f 48//75 50//58 49//75
f 49//76 50//57 48//76
f 47//58 57//48 50//58
f 50//57 57//47 47//57
f 56//48 51//24 57//48
f 57//47 51//11 56//47
f 61//24 52//26 51//24
f 51//11 52//25 61//11
f 58//28 52//36 63//28
f 63//27 52//35 58//27
f 44//2 58//2 64//2
f 64//1 58//1 44//1
f 53//30 65//16 59//30
f 59//29 65//15 53//29
f 44//2 66//2 60//2
f 60//1 66//1 44//1
f 65//16 53//30 60//16
f 60//15 53//29 65//15
f 62//26 63//13 52//26
f 52//25 63//12 62//25
f 63//28 64//21 58//28
f 58//27 64//20 63//27
f 44//2 64//2 66//2
f 66//1 64//1 44//1
f 65//6 67//32 59//32
f 59//31 67//31 65//4
f 68//17 60//16 66//17
f 66//14 60//15 68//14
f 60//16 68//17 65//16
f 65//15 68//14 60//15
f 64//21 63//28 70//21
f 70//20 63//27 64//20
f 70//21 66//17 64//21
f 64//20 66//14 70//20
f 66//17 70//21 68//17
f 68//14 70//20 66//14
f 68//5 71//6 65//6
f 65//4 71//4 68//3
f 69//13 70//10 63//13
f 63//12 70//9 69//12
f 70//10 72//5 68//5
f 68//3 72//3 70//9
