# SSTK version 0.8.0
# 9
mtllib original-9.mtl
o #ID449
v 0.03032930 0.67665384 -0.24322837
v 0.06012911 0.68329299 -0.23753683
v 0.06016677 0.67674019 -0.23764785
v 0.03029874 0.68330187 -0.24311842
v 0.08909765 0.68332616 -0.22839871
v 0.08919399 0.67675377 -0.22840777
v -0.00000422 0.67683119 -0.24494444
v -0.00011800 0.68340021 -0.24499100
v 0.00172423 0.68345734 0.23918708
v -0.05868250 0.68343757 0.23189611
v -0.02861027 0.68345661 0.23750619
v 0.03203274 0.68330925 0.23724245
v -0.08761327 0.68332459 0.22252184
v 0.06177953 0.68338006 0.23146694
v -0.11516730 0.68334508 0.20977027
v 0.09083586 0.68331167 0.22202762
v -0.14073199 0.68338844 0.19352387
v 0.11830674 0.68344880 0.20895550
v -0.16436401 0.68336009 0.17422406
v 0.14388498 0.68327183 0.19259634
v -0.18529737 0.68343363 0.15204469
v 0.16721815 0.68328319 0.17298437
v -0.20315938 0.68336020 0.12754583
v -0.21801610 0.68332298 0.10095412
v 0.18793721 0.68338355 0.15085989
v -0.22911962 0.68334776 0.07284175
v 0.20572472 0.68329689 0.12620016
v -0.23697428 0.68342949 0.04338584
v 0.22022869 0.68344951 0.09951226
v 0.23139493 0.68336485 0.07107860
v -0.24078487 0.68327527 0.01320117
v 0.23886173 0.68329375 0.04161289
v -0.24087908 0.68343312 -0.01719048
v -0.23720756 0.68333220 -0.04738104
v 0.24255054 0.68342768 0.01151499
v -0.22971170 0.68344617 -0.07695790
v 0.24246122 0.68338602 -0.01885778
v -0.21872927 0.68333137 -0.10517451
v 0.23849796 0.68341445 -0.04915365
v 0.23082312 0.68331288 -0.07842594
v -0.20409053 0.68331075 -0.13192500
v 0.21964880 0.68326593 -0.10665149
v -0.18635772 0.68335145 -0.15647908
v -0.16565344 0.68329453 -0.17871603
v 0.20479589 0.68339275 -0.13331867
v -0.14215696 0.68337556 -0.19820698
v 0.18684539 0.68345670 -0.15789643
v 0.16603493 0.68345808 -0.17999915
v -0.11654923 0.68339275 -0.21468024
v -0.08912256 0.68330569 -0.22760046
v 0.14237316 0.68327006 -0.19930279
v 0.11676231 0.68330360 -0.21540331
v -0.06030580 0.68330053 -0.23710082
v 0.08909300 0.68329318 -0.22833024
v -0.03036882 0.68334090 -0.24299364
v 0.06031123 0.68333930 -0.23751116
v -0.00005939 0.68330271 -0.24497886
v 0.03025409 0.68334429 -0.24315603
v 0.11668276 0.68338825 -0.21542994
v 0.11675052 0.67671380 -0.21555225
v -0.03034240 0.67666364 -0.24305155
v -0.03039924 0.68342236 -0.24297840
v -0.06025178 0.67670046 -0.23717939
v -0.06013156 0.68341170 -0.23710043
v -0.08902625 0.67682958 -0.22768167
v -0.08903592 0.68340296 -0.22761098
v -0.11651053 0.67672467 -0.21473502
v -0.11664048 0.68342808 -0.21468484
v -0.14218734 0.67677794 -0.19834364
v -0.14229303 0.68334415 -0.19821004
v -0.16551499 0.68331025 -0.17885632
v -0.16551469 0.67665557 -0.17886382
v -0.18633954 0.68328272 -0.15660102
v -0.18638790 0.67682774 -0.15657447
v -0.20405128 0.68343420 -0.13191520
v -0.20411346 0.67677563 -0.13182416
v -0.21866673 0.68336125 -0.10517454
v -0.21860240 0.67669796 -0.10513113
v -0.22968174 0.68327461 -0.07698536
v -0.22983237 0.67673213 -0.07690774
v -0.23722228 0.68331325 -0.04738584
v -0.23721257 0.67681279 -0.04740647
v -0.24089146 0.68342555 -0.01725030
v -0.24088678 0.67679748 -0.01730172
v -0.24079476 0.68337172 0.01308921
v -0.24074267 0.67665949 0.01312795
v -0.23679753 0.68338595 0.04334952
v -0.23684452 0.67675672 0.04339214
v -0.22915745 0.68344985 0.07282028
v -0.22914144 0.67665563 0.07283856
v -0.21801730 0.68344484 0.10096692
v -0.21784625 0.67678471 0.10091274
v -0.20309713 0.68340397 0.12750549
v -0.20320255 0.67666490 0.12768551
v -0.18528470 0.68326385 0.15219630
v -0.18524034 0.67681480 0.15212244
v -0.16432706 0.67669224 0.17419379
v -0.16435784 0.68330010 0.17430066
v -0.14082265 0.67664200 0.19357727
v -0.14083942 0.68331314 0.19361339
v -0.11511096 0.67680113 0.20975846
v -0.11506397 0.68340900 0.20982499
v -0.08744027 0.67666914 0.22264532
v -0.08757017 0.68332899 0.22259337
v -0.05852056 0.67664098 0.23193451
v -0.05858982 0.68333063 0.23197148
v -0.02873713 0.67682149 0.23756729
v -0.02864433 0.68333684 0.23757255
v 0.00163544 0.67677952 0.23935577
v 0.00157302 0.68331005 0.23932246
v 0.03199932 0.67665012 0.23719220
v 0.03198719 0.68328632 0.23727490
v 0.06192340 0.67671894 0.23152998
v 0.06180468 0.68332394 0.23140679
v 0.09067997 0.67666326 0.22202186
v 0.09065130 0.68330443 0.22190475
v 0.11826988 0.67675176 0.20885139
v 0.11818702 0.68338523 0.20901527
v 0.14382036 0.67673080 0.19260881
v 0.14377619 0.68332777 0.19245893
v 0.16709719 0.68335557 0.17309976
v 0.16723260 0.67678537 0.17316287
v 0.18786379 0.68338908 0.15088026
v 0.18785712 0.67674647 0.15080851
v 0.20575424 0.68342207 0.12613651
v 0.20563500 0.67679930 0.12615519
v 0.22028896 0.68327012 0.09949983
v 0.22024510 0.67682792 0.09944788
v 0.23140142 0.68326022 0.07116803
v 0.23129600 0.67679437 0.07121150
v 0.23887462 0.68344690 0.04167169
v 0.23884664 0.67682639 0.04158637
v 0.24243717 0.68336548 0.01150437
v 0.24256103 0.67682877 0.01141221
v 0.24238195 0.68342400 -0.01891071
v 0.24251919 0.67682865 -0.01882745
v 0.23853760 0.68338777 -0.04904716
v 0.23848758 0.67679973 -0.04911808
v 0.23074889 0.68340416 -0.07841177
v 0.23085294 0.67664994 -0.07839610
v 0.21954502 0.68333624 -0.10672251
v 0.21962313 0.67667345 -0.10667808
v 0.20485402 0.68333457 -0.13327070
v 0.20489218 0.67671488 -0.13340613
v 0.18684425 0.68335028 -0.15784785
v 0.18684682 0.67683874 -0.15782307
v 0.16589491 0.67669866 -0.17997412
v 0.16589254 0.68326257 -0.18004290
v 0.14254966 0.67666898 -0.19927869
v 0.14242665 0.68344236 -0.19924350
vt 0.007438304 0.4366179
vt -0.007438304 0.4400025
vt -0.007438304 0.4366179
vt 0.007438304 0.4400025
vt -0.1175281 -0.01484725
vt -0.1175281 0.01484725
vt -0.1184622 0
vt -0.1147405 -0.02946035
vt -0.1147405 0.02946035
vt -0.1101434 -0.04360885
vt -0.1101434 0.04360885
vt -0.1038092 -0.05706961
vt -0.1038092 0.05706961
vt -0.09583794 -0.06963034
vt -0.09583794 0.06963034
vt -0.08635524 -0.08109296
vt -0.08635524 0.08109296
vt -0.07551066 -0.0912767
vt -0.07551066 0.0912767
vt -0.06347523 0.100021
vt -0.06347523 -0.100021
vt -0.05043876 0.1071878
vt -0.05043876 -0.1071878
vt -0.03660684 0.1126643
vt -0.03660684 -0.1126643
vt -0.0221976 -0.1163639
vt -0.0221976 0.1163639
vt -0.007438304 -0.1182285
vt -0.007438304 0.1182285
vt 0.007438304 0.1182285
vt 0.007438304 -0.1182285
vt 0.0221976 0.1163639
vt 0.0221976 -0.1163639
vt 0.03660684 0.1126643
vt 0.03660684 -0.1126643
vt 0.05043876 -0.1071878
vt 0.05043876 0.1071878
vt 0.06347523 -0.100021
vt 0.06347523 0.100021
vt 0.07551066 0.0912767
vt 0.07551066 -0.0912767
vt 0.08635524 0.08109296
vt 0.08635524 -0.08109296
vt 0.09583794 -0.06963034
vt 0.09583794 0.06963034
vt 0.1038092 0.05706961
vt 0.1038092 -0.05706961
vt 0.1101434 -0.04360885
vt 0.1101434 0.04360885
vt 0.1147405 -0.02946035
vt 0.1147405 0.02946035
vt 0.1175281 -0.01484725
vt 0.1175281 0.01484725
vt 0.1184622 0
vn 0.12186934340514817 0 -0.9925461516413219
vn 0.24530735375633597 0 -0.9694453580233721
vn 0.36487678691197933 0 -0.9310558148536476
vn -0.003490618280532939 0 -0.9999939077734521
vn 0 1 0
vn 0.4786918920044074 0 -0.8779829568557929
vn -0.12879559931952217 0 -0.991671162026972
vn -0.2520693957880917 0 -0.9677091607022362
vn -0.37136784769566217 0 -0.928485822023089
vn -0.48480965111155716 0 -0.8746196900305241
vn -0.5906056792800335 0 -0.8069603036098927
vn -0.6870874852543619 0 -0.726574695132467
vn -0.7727335621331122 0 -0.634730527037318
vn -0.8461931728454462 0 -0.532876265402914
vn -0.906307782647665 0 -0.4226182711529076
vn -0.9521293999442872 0 -0.305695282531039
vn -0.9829353487347836 0 -0.18395135282902722
vn -0.9982398280574882 0 -0.059306371325146955
vn -0.9978014698534557 0 0.06627387689190357
vn -0.9816271814660701 0 0.19080900557096106
vn -0.9499720554622068 0 0.31233490653609264
vn -0.9033352851836306 0 0.4289351495764938
vn -0.8424523780612265 0 0.5387708146317729
vn -0.7682835328427375 0 0.6401096883837035
vn -0.6819983858718798 0 0.7313536775515324
vn -0.5849576855966584 0 0.8110638113375549
vn -0.4786918920044074 0 0.8779829568557929
vn -0.36487678691197933 0 0.9310558148536476
vn -0.24530735375633597 0 0.9694453580233721
vn -0.1218693434051481 0 0.9925461516413219
vn 0.003490618280532939 0 0.9999939077734521
vn 0.12879559931952217 0 0.991671162026972
vn 0.2520693957880917 0 0.9677091607022362
vn 0.37136784769566217 0 0.928485822023089
vn 0.48480965111155716 0 0.8746196900305241
vn 0.5906056792800335 0 0.8069603036098927
vn 0.6870874852543619 0 0.726574695132467
vn 0.7727335621331122 0 0.634730527037318
vn 0.8461931728454462 0 0.532876265402914
vn 0.906307782647665 0 0.4226182711529076
vn 0.9521293999442872 0 0.305695282531039
vn 0.9829353487347836 0 0.18395135282902722
vn 0.9982398280574882 0 0.059306371325146955
vn 0.9978014698534557 0 -0.06627387689190357
vn 0.9816271814660701 0 -0.19080900557096106
vn 0.9499720554622068 0 -0.31233490653609264
vn 0.9033352851836306 0 -0.4289351495764938
vn 0.8424523780612265 0 -0.5387708146317729
vn 0.7682835328427375 0 -0.6401096883837035
vn 0.6819983858718798 0 -0.7313536775515324
vn 0.5849576855966584 0 -0.8110638113375549
usemtl material_0_0
f 1/1/1 2/2/2 3/3/2
f 2/2/2 1/1/1 4/4/1
f 3/1/2 5/2/3 6/3/3
f 5/2/3 3/1/2 2/4/2
f 7/1/4 4/2/1 1/3/1
f 4/2/1 7/1/4 8/4/4
f 9/5/5 10/6/5 11/7/5
f 10/6/5 9/5/5 12/8/5
f 10/6/5 12/8/5 13/9/5
f 13/9/5 12/8/5 14/10/5
f 13/9/5 14/10/5 15/11/5
f 15/11/5 14/10/5 16/12/5
f 15/11/5 16/12/5 17/13/5
f 17/13/5 16/12/5 18/14/5
f 17/13/5 18/14/5 19/15/5
f 19/15/5 18/14/5 20/16/5
f 19/15/5 20/16/5 21/17/5
f 21/17/5 20/16/5 22/18/5
f 21/17/5 22/18/5 23/19/5
f 23/19/5 22/18/5 24/20/5
f 24/20/5 22/18/5 25/21/5
f 24/20/5 25/21/5 26/22/5
f 26/22/5 25/21/5 27/23/5
f 26/22/5 27/23/5 28/24/5
f 28/24/5 27/23/5 29/25/5
f 28/24/5 29/25/5 30/26/5
f 28/24/5 30/26/5 31/27/5
f 31/27/5 30/26/5 32/28/5
f 31/27/5 32/28/5 33/29/5
f 33/29/5 32/28/5 34/30/5
f 34/30/5 32/28/5 35/31/5
f 34/30/5 35/31/5 36/32/5
f 36/32/5 35/31/5 37/33/5
f 36/32/5 37/33/5 38/34/5
f 38/34/5 37/33/5 39/35/5
f 38/34/5 39/35/5 40/36/5
f 38/34/5 40/36/5 41/37/5
f 41/37/5 40/36/5 42/38/5
f 41/37/5 42/38/5 43/39/5
f 43/39/5 42/38/5 44/40/5
f 44/40/5 42/38/5 45/41/5
f 44/40/5 45/41/5 46/42/5
f 46/42/5 45/41/5 47/43/5
f 46/42/5 47/43/5 48/44/5
f 46/42/5 48/44/5 49/45/5
f 49/45/5 48/44/5 50/46/5
f 50/46/5 48/44/5 51/47/5
f 50/46/5 51/47/5 52/48/5
f 50/46/5 52/48/5 53/49/5
f 53/49/5 52/48/5 54/50/5
f 53/49/5 54/50/5 55/51/5
f 55/51/5 54/50/5 56/52/5
f 55/51/5 56/52/5 57/53/5
f 57/53/5 56/52/5 58/54/5
f 6/1/3 59/2/6 60/3/6
f 59/2/6 6/1/3 5/4/3
f 61/1/7 8/2/4 7/3/4
f 8/2/4 61/1/7 62/4/7
f 63/1/8 62/2/7 61/3/7
f 62/2/7 63/1/8 64/4/8
f 65/1/9 64/2/8 63/3/8
f 64/2/8 65/1/9 66/4/9
f 67/1/10 66/2/9 65/3/9
f 66/2/9 67/1/10 68/4/10
f 69/1/11 68/2/10 67/3/10
f 68/2/10 69/1/11 70/4/11
f 71/4/12 69/3/11 72/1/12
f 69/3/11 71/4/12 70/2/11
f 73/4/13 72/3/12 74/1/13
f 72/3/12 73/4/13 71/2/12
f 75/4/14 74/3/13 76/1/14
f 74/3/13 75/4/14 73/2/13
f 77/4/15 76/3/14 78/1/15
f 76/3/14 77/4/15 75/2/14
f 79/4/16 78/3/15 80/1/16
f 78/3/15 79/4/16 77/2/15
f 81/4/17 80/3/16 82/1/17
f 80/3/16 81/4/17 79/2/16
f 83/4/18 82/3/17 84/1/18
f 82/3/17 83/4/18 81/2/17
f 85/4/19 84/3/18 86/1/19
f 84/3/18 85/4/19 83/2/18
f 87/4/20 86/3/19 88/1/20
f 86/3/19 87/4/20 85/2/19
f 89/4/21 88/3/20 90/1/21
f 88/3/20 89/4/21 87/2/20
f 91/4/22 90/3/21 92/1/22
f 90/3/21 91/4/22 89/2/21
f 93/4/23 92/3/22 94/1/23
f 92/3/22 93/4/23 91/2/22
f 95/4/24 94/3/23 96/1/24
f 94/3/23 95/4/24 93/2/23
f 95/2/24 97/1/25 98/4/25
f 97/1/25 95/2/24 96/3/24
f 98/2/25 99/1/26 100/4/26
f 99/1/26 98/2/25 97/3/25
f 100/2/26 101/1/27 102/4/27
f 101/1/27 100/2/26 99/3/26
f 102/2/27 103/1/28 104/4/28
f 103/1/28 102/2/27 101/3/27
f 104/2/28 105/1/29 106/4/29
f 105/1/29 104/2/28 103/3/28
f 106/2/29 107/1/30 108/4/30
f 107/1/30 106/2/29 105/3/29
f 108/2/30 109/1/31 110/4/31
f 109/1/31 108/2/30 107/3/30
f 110/2/31 111/1/32 112/4/32
f 111/1/32 110/2/31 109/3/31
f 112/2/32 113/1/33 114/4/33
f 113/1/33 112/2/32 111/3/32
f 114/2/33 115/1/34 116/4/34
f 115/1/34 114/2/33 113/3/33
f 116/2/34 117/1/35 118/4/35
f 117/1/35 116/2/34 115/3/34
f 118/2/35 119/1/36 120/4/36
f 119/1/36 118/2/35 117/3/35
f 121/4/37 119/3/36 122/1/37
f 119/3/36 121/4/37 120/2/36
f 123/4/38 122/3/37 124/1/38
f 122/3/37 123/4/38 121/2/37
f 125/4/39 124/3/38 126/1/39
f 124/3/38 125/4/39 123/2/38
f 127/4/40 126/3/39 128/1/40
f 126/3/39 127/4/40 125/2/39
f 129/4/41 128/3/40 130/1/41
f 128/3/40 129/4/41 127/2/40
f 131/4/42 130/3/41 132/1/42
f 130/3/41 131/4/42 129/2/41
f 133/4/43 132/3/42 134/1/43
f 132/3/42 133/4/43 131/2/42
f 135/4/44 134/3/43 136/1/44
f 134/3/43 135/4/44 133/2/43
f 137/4/45 136/3/44 138/1/45
f 136/3/44 137/4/45 135/2/44
f 139/4/46 138/3/45 140/1/46
f 138/3/45 139/4/46 137/2/45
f 141/4/47 140/3/46 142/1/47
f 140/3/46 141/4/47 139/2/46
f 143/4/48 142/3/47 144/1/48
f 142/3/47 143/4/48 141/2/47
f 145/4/49 144/3/48 146/1/49
f 144/3/48 145/4/49 143/2/48
f 147/1/50 145/2/49 146/3/49
f 145/2/49 147/1/50 148/4/50
f 149/1/51 148/2/50 147/3/50
f 148/2/50 149/1/51 150/4/51
f 60/1/6 150/2/51 149/3/51
f 150/2/51 60/1/6 59/4/6
