# SSTK version 0.8.0
# 7
mtllib original-7.mtl
o group_22/ID436#ID436
v 0.01454575 0.75706252 0.03997265
v -0.00404317 0.75689458 0.04185909
v 0.00537472 0.75694566 0.04206054
v -0.01330440 0.75704379 0.03996575
v 0.02322708 0.75690906 0.03626850
v -0.02198198 0.75704571 0.03594676
v -0.02959469 0.75701936 0.03048851
v 0.03080685 0.75692146 0.03076787
v 0.03703311 0.75694603 0.02382536
v -0.03580823 0.75699111 0.02347818
v 0.04192335 0.75703874 0.01562632
v -0.04037092 0.75703639 0.01521065
v -0.04332693 0.75703886 0.00624405
v 0.04489262 0.75702015 0.00664152
v -0.04430650 0.75692080 -0.00316000
v 0.04593487 0.75699419 -0.00263359
v 0.04487728 0.75696978 -0.01206649
v -0.04329720 0.75705426 -0.01246746
v -0.04032487 0.75702657 -0.02137161
v 0.04212576 0.75702516 -0.02103272
v -0.03549627 0.75698376 -0.02963119
v 0.03744394 0.75704134 -0.02922110
v 0.03112647 0.75707825 -0.03616284
v -0.02914948 0.75692200 -0.03659044
v 0.02352285 0.75706231 -0.04181155
v -0.02151797 0.75706973 -0.04204205
v 0.01489505 0.75698321 -0.04571255
v -0.01297872 0.75694660 -0.04571656
v -0.00372035 0.75700315 -0.04778405
v 0.00578019 0.75689289 -0.04760857
v -0.04432971 0.75691865 -0.00301070
v -0.04320978 0.68340116 -0.01252235
v -0.04414002 0.68332502 -0.00302453
v -0.04329473 0.75704622 -0.01255141
v -0.04339156 0.75694808 0.00624215
v -0.04334757 0.68330280 0.00628563
v -0.04051763 0.75704011 0.01533525
v -0.04042732 0.68340095 0.01520577
v -0.03571111 0.75704808 0.02335195
v -0.03579950 0.68334782 0.02337458
v -0.02952423 0.75692824 0.03044186
v -0.02941512 0.68339444 0.03037235
v -0.02196922 0.68334907 0.03593716
v -0.02190399 0.75699065 0.03596412
v -0.01342697 0.68333691 0.03992747
v -0.01326796 0.75704390 0.03984477
v -0.00403242 0.68328596 0.04184688
v -0.00408100 0.75701620 0.04182039
v 0.00523235 0.68345717 0.04204597
v 0.00531932 0.75703398 0.04202606
v 0.01455812 0.68326544 0.04001370
v 0.01454047 0.75707108 0.04011423
v 0.02317518 0.68343101 0.03618850
v 0.02304463 0.75689860 0.03626753
v 0.03085874 0.68328184 0.03071639
v 0.03083200 0.75704663 0.03078273
v 0.03711057 0.75694910 0.02387119
v 0.03702588 0.68331894 0.02374485
v 0.04189460 0.75702002 0.01570724
v 0.04188783 0.68337777 0.01557908
v 0.04482264 0.75699195 0.00681727
v 0.04475617 0.68342813 0.00666283
v 0.04582061 0.75702063 -0.00270653
v 0.04593894 0.68330304 -0.00260645
v 0.04497400 0.75692898 -0.01193020
v 0.04485676 0.68344348 -0.01204877
v 0.04199188 0.75703869 -0.02098968
v 0.04201262 0.68341869 -0.02099964
v 0.03742140 0.75705908 -0.02913440
v 0.03741258 0.68330612 -0.02924577
v 0.03119408 0.75689982 -0.03618399
v 0.03122626 0.68345138 -0.03614876
v 0.02359228 0.68337014 -0.04182066
v 0.02353540 0.75691835 -0.04185377
v 0.01487120 0.68333272 -0.04566375
v 0.01488265 0.75708192 -0.04563015
v 0.00584593 0.68337910 -0.04761690
v 0.00574728 0.75690075 -0.04772917
v -0.00368371 0.68340683 -0.04766111
v -0.00370822 0.75690645 -0.04776602
v -0.01285139 0.68344153 -0.04573811
v -0.01293302 0.75692432 -0.04577050
v -0.02149296 0.68328648 -0.04208008
v -0.02154516 0.75696222 -0.04205821
v -0.02910790 0.68344637 -0.03646879
v -0.02913538 0.75694779 -0.03658040
v -0.03551680 0.75707032 -0.02945100
v -0.03554118 0.68338068 -0.02956045
v -0.04015225 0.75699051 -0.02135439
v -0.04022081 0.68338150 -0.02131643
vt 0.01392433 0.02410141
vt 0.01324608 0.03055454
vt 0.01324608 0.02729233
vt 0.01392433 0.03374546
vt 0.01525119 0.02112124
vt 0.01525119 0.03672563
vt 0.01716866 0.03936481
vt 0.01716866 0.01848206
vt 0.01959296 0.01629921
vt 0.01959296 0.04154766
vt 0.02241811 0.01466811
vt 0.02241811 0.04317876
vt 0.02552065 0.04418684
vt 0.02552065 0.01366003
vt 0.02876499 0.04452783
vt 0.02876499 0.01331904
vt 0.03200933 0.01366003
vt 0.03200933 0.04418684
vt 0.03511187 0.04317876
vt 0.03511187 0.01466811
vt 0.03793702 0.04154766
vt 0.03793702 0.01629921
vt 0.04036132 0.01848206
vt 0.04036132 0.03936481
vt 0.04227879 0.02112124
vt 0.04227879 0.03672563
vt 0.04360565 0.02410141
vt 0.04360565 0.03374546
vt 0.0442839 0.03055454
vt 0.0442839 0.02729233
vt -0.02395299 0.02665067
vt -0.02721519 2.404928e-16
vt -0.02395299 2.404928e-16
vt -0.02721519 0.02665067
vt -0.02999963 0.02665067
vt -0.03326184 2.404928e-16
vt -0.02999963 2.404928e-16
vt -0.03326184 0.02665067
vt -0.03466386 0.02665067
vt -0.03792607 2.404928e-16
vt -0.03466386 2.404928e-16
vt -0.03792607 0.02665067
vt -0.03774183 0.02665067
vt -0.04100403 2.404928e-16
vt -0.03774183 2.404928e-16
vt -0.04100403 0.02665067
vt -0.03909901 0.02665067
vt -0.04236121 2.404928e-16
vt -0.03909901 2.404928e-16
vt -0.04236121 0.02665067
vt -0.04193829 0.02665067
vt -0.03867608 2.404928e-16
vt -0.03867608 0.02665067
vt -0.04193829 2.404928e-16
vt -0.03975375 0.02665067
vt -0.03649154 2.404928e-16
vt -0.03649154 0.02665067
vt -0.03975375 2.404928e-16
vt -0.03590307 0.02665067
vt -0.03264086 2.404928e-16
vt -0.03264086 0.02665067
vt -0.03590307 2.404928e-16
vt -0.03055454 0.02665067
vt -0.02729233 2.404928e-16
vt -0.02729233 0.02665067
vt -0.03055454 2.404928e-16
vt -0.02394191 0.02665067
vt -0.02067971 2.404928e-16
vt -0.02067971 0.02665067
vt -0.02394191 2.404928e-16
vt -0.0163542 0.02665067
vt -0.01309199 2.404928e-16
vt -0.01309199 0.02665067
vt -0.0163542 2.404928e-16
vt -0.008123017 0.02665067
vt -0.00486081 2.404928e-16
vt -0.00486081 0.02665067
vt -0.008123017 2.404928e-16
vt 0.003654101 0.02665067
vt 0.0003918939 2.404928e-16
vt 0.003654101 2.404928e-16
vt 0.0003918939 0.02665067
vt 0.0120806 0.02665067
vt 0.00881839 2.404928e-16
vt 0.0120806 2.404928e-16
vt 0.00881839 0.02665067
vt 0.0200504 0.02665067
vt 0.01678819 2.404928e-16
vt 0.0200504 2.404928e-16
vt 0.01678819 0.02665067
vt 0.02721519 0.02665067
vt 0.02395299 2.404928e-16
vt 0.02721519 2.404928e-16
vt 0.02395299 0.02665067
vt 0.03326184 0.02665067
vt 0.02999963 2.404928e-16
vt 0.03326184 2.404928e-16
vt 0.02999963 0.02665067
vt 0.03792607 0.02665067
vt 0.03466386 2.404928e-16
vt 0.03792607 2.404928e-16
vt 0.03466386 0.02665067
vt 0.04100403 0.02665067
vt 0.03774183 2.404928e-16
vt 0.04100403 2.404928e-16
vt 0.03774183 0.02665067
vt 0.04236121 0.02665067
vt 0.03909901 2.404928e-16
vt 0.04236121 2.404928e-16
vt 0.03909901 0.02665067
vt 0.04193829 2.404928e-16
vt 0.03867608 0.02665067
vt 0.03867608 2.404928e-16
vt 0.04193829 0.02665067
vt 0.03975375 2.404928e-16
vt 0.03649154 0.02665067
vt 0.03649154 2.404928e-16
vt 0.03975375 0.02665067
vt 0.03590307 2.404928e-16
vt 0.03264086 0.02665067
vt 0.03264086 2.404928e-16
vt 0.03590307 0.02665067
vt 0.03055454 2.404928e-16
vt 0.02729233 0.02665067
vt 0.02729233 2.404928e-16
vt 0.03055454 0.02665067
vt 0.02394191 2.404928e-16
vt 0.02067971 0.02665067
vt 0.02067971 2.404928e-16
vt 0.02394191 0.02665067
vt 0.0163542 2.404928e-16
vt 0.01309199 0.02665067
vt 0.01309199 2.404928e-16
vt 0.0163542 0.02665067
vt 0.008123017 2.404928e-16
vt 0.00486081 0.02665067
vt 0.00486081 2.404928e-16
vt 0.008123017 0.02665067
vt -0.0003918939 0.02665067
vt -0.003654101 2.404928e-16
vt -0.0003918939 2.404928e-16
vt -0.003654101 0.02665067
vt -0.00881839 0.02665067
vt -0.0120806 2.404928e-16
vt -0.00881839 2.404928e-16
vt -0.0120806 0.02665067
vt -0.01678819 0.02665067
vt -0.0200504 2.404928e-16
vt -0.01678819 2.404928e-16
vt -0.0200504 0.02665067
vn 0 1 0
vn -0.9999862922373096 0 -0.005235965763631177
vn -0.9770455720777859 0 -0.21303039708734547
vn -0.9792228091613089 0 0.20278730240879222
vn -0.9156626168584262 0 0.40194772307848553
vn -0.8120835074262495 0 0.5835412384453054
vn -0.6730125240527635 0 0.7396310853852267
vn -0.5045276271170389 0 0.8633955486772271
vn -0.3139924676619159 0 0.949425473774314
vn -0.10973434884090064 0 0.993960951287556
vn 0.09931978368969803 0 0.9950555665729586
vn 0.30403306897832266 0 0.9526614786835996
vn 0.495458668397646 0 0.868631514458019
vn 0.6652303624118671 0 0.7466381753737054
vn 0.8059282602125332 0 0.5920132087975736
vn 0.9114032991237854 0 0.4115143087989528
vn 0.9770455720777859 0 0.21303039708734547
vn 0.9999862922373096 0 0.005235965763631177
vn 0.9792228091613089 0 -0.20278730240879222
vn 0.9156626168584262 0 -0.40194772307848553
vn 0.8120835074262495 0 -0.5835412384453054
vn 0.6730125240527635 0 -0.7396310853852267
vn 0.5045276271170389 0 -0.8633955486772271
vn 0.3139924676619159 0 -0.949425473774314
vn 0.10973434884090064 0 -0.993960951287556
vn -0.09931978368969803 0 -0.9950555665729586
vn -0.30403306897832266 0 -0.9526614786835996
vn -0.495458668397646 0 -0.868631514458019
vn -0.6652303624118671 0 -0.7466381753737054
vn -0.8059282602125332 0 -0.5920132087975736
vn -0.9114032991237854 0 -0.4115143087989528
usemtl material_0_0
f 1/1/1 2/2/1 3/3/1
f 2/2/1 1/1/1 4/4/1
f 4/4/1 1/1/1 5/5/1
f 4/4/1 5/5/1 6/6/1
f 6/6/1 5/5/1 7/7/1
f 7/7/1 5/5/1 8/8/1
f 7/7/1 8/8/1 9/9/1
f 7/7/1 9/9/1 10/10/1
f 10/10/1 9/9/1 11/11/1
f 10/10/1 11/11/1 12/12/1
f 12/12/1 11/11/1 13/13/1
f 13/13/1 11/11/1 14/14/1
f 13/13/1 14/14/1 15/15/1
f 15/15/1 14/14/1 16/16/1
f 15/15/1 16/16/1 17/17/1
f 15/15/1 17/17/1 18/18/1
f 18/18/1 17/17/1 19/19/1
f 19/19/1 17/17/1 20/20/1
f 19/19/1 20/20/1 21/21/1
f 21/21/1 20/20/1 22/22/1
f 21/21/1 22/22/1 23/23/1
f 21/21/1 23/23/1 24/24/1
f 24/24/1 23/23/1 25/25/1
f 24/24/1 25/25/1 26/26/1
f 26/26/1 25/25/1 27/27/1
f 26/26/1 27/27/1 28/28/1
f 28/28/1 27/27/1 29/29/1
f 29/29/1 27/27/1 30/30/1
f 31/31/2 32/32/3 33/33/2
f 32/32/3 31/31/2 34/34/3
f 35/35/4 33/36/2 36/37/4
f 33/36/2 35/35/4 31/38/2
f 37/39/5 36/40/4 38/41/5
f 36/40/4 37/39/5 35/42/4
f 39/43/6 38/44/5 40/45/6
f 38/44/5 39/43/6 37/46/5
f 41/47/7 40/48/6 42/49/7
f 40/48/6 41/47/7 39/50/6
f 41/51/7 43/52/8 44/53/8
f 43/52/8 41/51/7 42/54/7
f 44/55/8 45/56/9 46/57/9
f 45/56/9 44/55/8 43/58/8
f 46/59/9 47/60/10 48/61/10
f 47/60/10 46/59/9 45/62/9
f 48/63/10 49/64/11 50/65/11
f 49/64/11 48/63/10 47/66/10
f 50/67/11 51/68/12 52/69/12
f 51/68/12 50/67/11 49/70/11
f 52/71/12 53/72/13 54/73/13
f 53/72/13 52/71/12 51/74/12
f 54/75/13 55/76/14 56/77/14
f 55/76/14 54/75/13 53/78/13
f 57/79/15 55/80/14 58/81/15
f 55/80/14 57/79/15 56/82/14
f 59/83/16 58/84/15 60/85/16
f 58/84/15 59/83/16 57/86/15
f 61/87/17 60/88/16 62/89/17
f 60/88/16 61/87/17 59/90/16
f 63/91/18 62/92/17 64/93/18
f 62/92/17 63/91/18 61/94/17
f 65/95/19 64/96/18 66/97/19
f 64/96/18 65/95/19 63/98/18
f 67/99/20 66/100/19 68/101/20
f 66/100/19 67/99/20 65/102/19
f 69/103/21 68/104/20 70/105/21
f 68/104/20 69/103/21 67/106/20
f 71/107/22 70/108/21 72/109/22
f 70/108/21 71/107/22 69/110/21
f 73/111/23 71/112/22 72/113/22
f 71/112/22 73/111/23 74/114/23
f 75/115/24 74/116/23 73/117/23
f 74/116/23 75/115/24 76/118/24
f 77/119/25 76/120/24 75/121/24
f 76/120/24 77/119/25 78/122/25
f 79/123/26 78/124/25 77/125/25
f 78/124/25 79/123/26 80/126/26
f 81/127/27 80/128/26 79/129/26
f 80/128/26 81/127/27 82/130/27
f 83/131/28 82/132/27 81/133/27
f 82/132/27 83/131/28 84/134/28
f 85/135/29 84/136/28 83/137/28
f 84/136/28 85/135/29 86/138/29
f 87/139/30 85/140/29 88/141/30
f 85/140/29 87/139/30 86/142/29
f 89/143/31 88/144/30 90/145/31
f 88/144/30 89/143/31 87/146/30
f 34/147/3 90/148/31 32/149/3
f 90/148/31 34/147/3 89/150/31
