# SSTK version 0.8.0
# 63
mtllib original_63.mtl
o Group50/mesh59/mesh59-geometry#mesh59-geometry
v 0.07090663 0.60273033 0.27983157
v 0.01069536 0.60273161 0.29291161
v 0.01075872 0.60113042 0.30129388
v 0.07430432 0.60109330 0.28741774
v 0.13531276 0.60265290 0.22794832
v 0.01108378 0.59618443 0.30905831
v 0.14212468 0.60117512 0.23269517
v 0.07738082 0.59604114 0.29454052
v 0.16499646 0.60283491 0.13317246
v 0.01118913 0.58834749 0.31398035
v 0.17336203 0.60117110 0.13310366
v 0.14831480 0.59595653 0.23745737
v 0.07930257 0.58852867 0.29906607
v 0.13187223 0.60269131 0.03949726
v 0.01114556 0.58012065 0.31551406
v 0.13868157 0.60112180 0.03431710
v 0.18097186 0.59612964 0.13289827
v 0.15229440 0.58837928 0.24026796
v 0.07993139 0.58010720 0.30057398
v 0.06586679 0.60278296 -0.01026923
v 0.14477516 0.59630676 0.02961137
v 0.06892415 0.60109132 -0.01790741
v 0.18615205 0.58857443 0.13265930
v 0.15360946 0.58019098 0.24130295
v 0.00530419 0.60282485 -0.02141452
v 0.14861860 0.58848073 0.02658264
v 0.07172565 0.59613330 -0.02491061
v 0.00522201 0.60109902 -0.02957748
v 0.18763877 0.57999735 0.13281401
v 0.07352332 0.58850889 -0.02983351
v 0.14974511 0.58025357 0.02545841
v 0.00491051 0.59623152 -0.03728822
v 0.07436262 0.58005830 -0.03120082
v 0.00483220 0.58841057 -0.04216543
v 0.00476468 0.58005060 -0.04378807
vn 0.06777493522560923 0.9822591554272987 0.17485282306675612
vn 0.04070899329478858 0.9816013083377068 0.18655200169021874
vn 0.06788024861347942 0.9479601770235222 0.31106876189309807
vn -0.06788024861347942 -0.9479601770235222 -0.31106876189309807
vn -0.04070899329478858 -0.9816013083377068 -0.18655200169021874
vn -0.06777493522560923 -0.9822591554272987 -0.17485282306675612
vn 0.14929247079861357 0.9271079974671411 0.34377684505404466
vn -0.14929247079861357 -0.9271079974671411 -0.34377684505404466
vn 0.14404636622533706 0.9822039075466237 0.12052438913937369
vn -0.14404636622533706 -0.9822039075466237 -0.12052438913937369
vn 0.1414568545738449 0.7481796177446566 0.6482416354150151
vn -0.1414568545738449 -0.7481796177446566 -0.6482416354150151
vn 0.29910163468552964 0.9272535925361162 0.2252531625911392
vn -0.29910163468552964 -0.9272535925361162 -0.2252531625911392
vn 0.2956121820289365 0.7076427833980077 0.6417594011316167
vn -0.2956121820289365 -0.7076427833980077 -0.6417594011316167
vn 0.18765980718965505 0.9820774359688228 0.01754156567826183
vn -0.18765980718965505 -0.9820774359688228 -0.01754156567826183
vn 0.19254335708611578 0.42940789436180665 0.8823468229113582
vn -0.19254335708611578 -0.42940789436180665 -0.8823468229113582
vn 0.3742802720068217 0.9272151909442254 0.013647991381989875
vn -0.3742802720068217 -0.9272151909442254 -0.013647991381989875
vn 0.5757755043477263 0.7081651254383623 0.4086376435253978
vn -0.5757755043477263 -0.7081651254383623 -0.4086376435253978
vn 0.3955295962184442 0.37551611347103586 0.8381789707687032
vn -0.3955295962184442 -0.37551611347103586 -0.8381789707687032
vn 0.1629518123636443 0.9819935155884658 -0.09557950716345745
vn -0.1629518123636443 -0.9819935155884658 0.09557950716345745
vn 0.20956539098651472 0.18385097373817763 0.9603547086135377
vn -0.20956539098651472 -0.18385097373817763 -0.9603547086135377
vn 0.3133607035479564 0.9269495064588438 -0.20632421561134195
vn -0.3133607035479564 -0.9269495064588438 0.20632421561134195
vn 0.7056524086171486 0.708551236903437 0.003134149872931675
vn -0.7056524086171486 -0.708551236903437 -0.003134149872931675
vn 0.7619124969081997 0.3759500260057802 0.5274001564290305
vn -0.7619124969081997 -0.3759500260057802 -0.5274001564290305
vn 0.49266484717541764 0.18621206783511385 0.8500625942542076
vn -0.49266484717541764 -0.18621206783511385 -0.8500625942542076
vn 0.08905995913846292 0.9820619527166642 -0.16620061583696877
vn -0.08905995913846292 -0.9820619527166642 0.16620061583696877
vn 0.5778758076940825 0.7081811049457196 -0.40563416212120446
vn -0.5778758076940825 -0.7081811049457196 0.40563416212120446
vn 0.16387039515446644 0.9268190058199598 -0.3378653933785174
vn -0.16387039515446644 -0.9268190058199598 0.3378653933785174
vn 0.9263208402364952 0.37663812352112924 -0.008568830377357518
vn -0.9263208402364952 -0.37663812352112924 0.008568830377357518
vn 0.8633973032356084 0.1858769990131792 0.46903607324312846
vn -0.8633973032356084 -0.1858769990131792 -0.46903607324312846
vn 0.03417362350816082 0.9816013083377065 -0.18785908262850992
vn -0.03417362350816082 -0.9816013083377065 0.18785908262850992
vn 0.7510845491931533 0.37668194072269734 -0.5422017295220478
vn -0.7510845491931533 -0.37668194072269734 0.5422017295220478
vn 0.29358750812933504 0.7076521581174616 -0.6426778338966629
vn -0.29358750812933504 -0.7076521581174616 0.6426778338966629
vn 0.0791822667350155 0.8968037895766737 -0.43528511533892583
vn -0.0791822667350155 -0.8968037895766737 0.43528511533892583
vn 0.9744491352359923 0.1862590818457043 -0.12552464804898747
vn -0.9744491352359923 -0.1862590818457043 0.12552464804898747
vn 0.3762078864807634 0.3762168320649319 -0.8467163169685015
vn -0.3762078864807634 -0.3762168320649319 0.8467163169685015
vn 0.729604959712397 0.1868869195068864 -0.6578372762927762
vn -0.729604959712397 -0.1868869195068864 0.6578372762927762
vn 0.13601903596191145 0.6499248474207356 -0.7477275670731457
vn -0.13601903596191145 -0.6499248474207356 0.7477275670731457
vn 0.3213754138573047 0.1871899679825622 -0.9282659959595274
vn -0.3213754138573047 -0.1871899679825622 0.9282659959595274
vn 0.17026214091872227 0.3081811561845541 -0.9359675092344416
vn -0.17026214091872227 -0.3081811561845541 0.9359675092344416
vn 0.17592183342610365 0.1838509737381768 -0.9670834131446585
vn -0.17592183342610365 -0.1838509737381768 0.9670834131446585
usemtl material_0_0
f 1//1 2//2 3//3
f 3//4 2//5 1//6
f 4//7 1//1 3//3
f 3//4 1//6 4//8
f 5//9 1//1 4//7
f 4//8 1//6 5//10
f 4//7 3//3 6//11
f 6//12 3//4 4//8
f 7//13 5//9 4//7
f 4//8 5//10 7//14
f 8//15 4//7 6//11
f 6//12 4//8 8//16
f 9//17 5//9 7//13
f 7//14 5//10 9//18
f 7//13 4//7 8//15
f 8//16 4//8 7//14
f 6//11 10//19 8//15
f 8//16 10//20 6//12
f 11//21 9//17 7//13
f 7//14 9//18 11//22
f 12//23 7//13 8//15
f 8//16 7//14 12//24
f 8//15 10//19 13//25
f 13//26 10//20 8//16
f 11//21 14//27 9//17
f 9//18 14//28 11//22
f 11//21 7//13 12//23
f 12//24 7//14 11//22
f 8//15 13//25 12//23
f 12//24 13//26 8//16
f 10//19 15//29 13//25
f 13//26 15//30 10//20
f 11//21 16//31 14//27
f 14//28 16//32 11//22
f 17//33 11//21 12//23
f 12//24 11//22 17//34
f 12//23 13//25 18//35
f 18//36 13//26 12//24
f 13//25 15//29 19//37
f 19//38 15//30 13//26
f 17//33 16//31 11//21
f 11//22 16//32 17//34
f 16//31 20//39 14//27
f 14//28 20//40 16//32
f 17//33 12//23 18//35
f 18//36 12//24 17//34
f 13//25 19//37 18//35
f 18//36 19//38 13//26
f 17//33 21//41 16//31
f 16//32 21//42 17//34
f 16//31 22//43 20//39
f 20//40 22//44 16//32
f 17//33 18//35 23//45
f 23//46 18//36 17//34
f 18//35 19//37 24//47
f 24//48 19//38 18//36
f 21//41 17//33 23//45
f 23//46 17//34 21//42
f 21//41 22//43 16//31
f 16//32 22//44 21//42
f 22//43 25//49 20//39
f 20//40 25//50 22//44
f 23//45 18//35 24//47
f 24//48 18//36 23//46
f 26//51 21//41 23//45
f 23//46 21//42 26//52
f 21//41 27//53 22//43
f 22//44 27//54 21//42
f 22//43 28//55 25//49
f 25//50 28//56 22//44
f 23//45 24//47 29//57
f 29//58 24//48 23//46
f 21//41 26//51 27//53
f 27//54 26//52 21//42
f 26//51 23//45 29//57
f 29//58 23//46 26//52
f 27//53 28//55 22//43
f 22//44 28//56 27//54
f 27//53 26//51 30//59
f 30//60 26//52 27//54
f 31//61 26//51 29//57
f 29//58 26//52 31//62
f 27//53 32//63 28//55
f 28//56 32//64 27//54
f 26//51 31//61 30//59
f 30//60 31//62 26//52
f 27//53 30//59 32//63
f 32//64 30//60 27//54
f 30//59 31//61 33//65
f 33//66 31//62 30//60
f 32//63 30//59 34//67
f 34//68 30//60 32//64
f 30//59 33//65 34//67
f 34//68 33//66 30//60
f 34//67 33//65 35//69
f 35//70 33//66 34//68
