# SSTK version 0.8.0
# 34
mtllib original_34.mtl
o Group26/mesh31/mesh31-geometry#mesh31-geometry
v -0.20626619 -0.78014228 -0.07837229
v -0.27067239 0.16978720 -0.03686703
v -0.24967607 -0.78028937 -0.02368581
v -0.20406402 0.16970364 -0.11412489
v -0.27913578 -0.78029784 0.03917358
v -0.10871065 -0.78014080 -0.14359761
v -0.31036272 0.16978325 0.05707639
v -0.10403940 0.16972360 -0.17212720
v -0.29414712 -0.78039577 0.11468572
v 0.01783277 -0.30534290 -0.17943989
v -0.31780403 0.16970321 0.17267226
v 0.01777154 -0.54279780 -0.17323982
v 0.01793951 -0.06786174 -0.18557664
v -0.27681303 -0.78033532 0.23931563
v 0.01739933 -0.78030043 -0.16702536
v 0.01820393 0.16962788 -0.19194300
v -0.28095986 0.16976257 0.29086221
v -0.20768243 -0.78041297 0.34882712
v -0.20265153 0.16968736 0.38691335
v -0.10611250 -0.78045752 0.41659674
v -0.10249126 0.16976079 0.44467788
v -0.00180398 -0.30524754 0.45098345
v -0.00213171 -0.06765341 0.45730433
v -0.00181207 -0.54269976 0.44500413
v -0.00231671 0.16981773 0.46353556
v -0.00163149 -0.78038166 0.43857855
vn 0.7059101352246225 0.026547990189723304 0.7078037052771349
vn 0.8497080255242386 0.024656995180864963 0.5266766597717717
vn 0.8496750617993138 0.026177007137554855 0.5266564854377592
vn -0.8496750617993138 -0.026177007137554855 -0.5266564854377592
vn -0.8497080255242386 -0.024656995180864963 -0.5266766597717717
vn -0.7059101352246225 -0.026547990189723304 -0.7078037052771349
vn 0.6117789831844028 0.025732989581718563 0.7906100739182654
vn -0.6117789831844028 -0.025732989581718563 -0.7906100739182654
vn 0.9406070727966221 0.02590100109663561 0.33850771445738465
vn -0.9406070727966221 -0.02590100109663561 -0.33850771445738465
vn 0.32370536686692003 0.027160012104826693 0.9457680313924861
vn -0.32370536686692003 -0.027160012104826693 -0.9457680313924861
vn 0.9755417104380931 0.024240005924791544 0.21847378174116408
vn -0.9755417104380931 -0.024240005924791544 -0.21847378174116408
vn 0.2501166129115168 0.02622900294428486 0.9678603821575813
vn -0.2501166129115168 -0.02622900294428486 -0.9678603821575813
vn 0.998767818993665 0.027654987098149546 0.04120734681144578
vn -0.998767818993665 -0.027654987098149546 -0.04120734681144578
vn 0.169575158980099 0.02666599675410884 0.9851564292405466
vn -0.169575158980099 -0.02666599675410884 -0.9851564292405466
vn 0.9918280784874368 0.02496698926162527 -0.1251147959720543
vn -0.9918280784874368 -0.02496698926162527 0.1251147959720543
vn 0.1808772535747115 0.025584995802705464 0.9831728368547644
vn -0.1808772535747115 -0.025584995802705464 -0.9831728368547644
vn 0.1581300738341744 0.025706000959785414 0.9870836242506783
vn -0.1581300738341744 -0.025706000959785414 -0.9870836242506783
vn 0.9440856640555758 0.029089984598020684 -0.32841442069560417
vn -0.9440856640555758 -0.029089984598020684 0.32841442069560417
vn 0.8693435718355651 0.025120004010295696 -0.4935693867195416
vn -0.8693435718355651 -0.025120004010295696 0.4935693867195416
vn 0.7366490547663969 0.028696994577717433 -0.6756660807040564
vn -0.7366490547663969 -0.028696994577717433 0.6756660807040564
vn 0.617346731759098 0.025584004005917725 -0.7862750609839951
vn -0.617346731759098 -0.025584004005917725 0.7862750609839951
vn 0.33772744696174145 0.02720300917565773 -0.940850768113888
vn -0.33772744696174145 -0.02720300917565773 0.940850768113888
vn 0.2694945316452736 0.02614599922815661 -0.9626469156121864
vn -0.2694945316452736 -0.02614599922815661 0.9626469156121864
vn 0.19673289037923963 0.026585996431414675 -0.9800966047470927
vn -0.19673289037923963 -0.026585996431414675 0.9800966047470927
vn 0.1862953375063413 0.02585898788048954 -0.9821534299533833
vn -0.1862953375063413 -0.02585898788048954 0.9821534299533833
vn 0.20699504949664155 0.025767002558740346 -0.9780026130144135
vn -0.20699504949664155 -0.025767002558740346 0.9780026130144135
usemtl material_0_0
f 1//1 2//2 3//3
f 3//4 2//5 1//6
f 4//7 2//2 1//1
f 1//6 2//5 4//8
f 2//2 5//9 3//3
f 3//4 5//10 2//5
f 4//7 1//1 6//11
f 6//12 1//6 4//8
f 2//2 7//13 5//9
f 5//10 7//14 2//5
f 4//7 6//11 8//15
f 8//16 6//12 4//8
f 5//9 7//13 9//17
f 9//18 7//14 5//10
f 8//15 6//11 10//19
f 10//20 6//12 8//16
f 7//13 11//21 9//17
f 9//18 11//22 7//14
f 10//19 6//11 12//23
f 12//24 6//12 10//20
f 8//15 10//19 13//25
f 13//26 10//20 8//16
f 9//17 11//21 14//27
f 14//28 11//22 9//18
f 12//23 6//11 15//23
f 15//24 6//12 12//24
f 8//15 13//25 16//25
f 16//26 13//26 8//16
f 11//21 17//29 14//27
f 14//28 17//30 11//22
f 14//27 17//29 18//31
f 18//32 17//30 14//28
f 17//29 19//33 18//31
f 18//32 19//34 17//30
f 19//33 20//35 18//31
f 18//32 20//36 19//34
f 21//37 20//35 19//33
f 19//34 20//36 21//38
f 21//37 22//39 20//35
f 20//36 22//40 21//38
f 21//37 23//41 22//39
f 22//40 23//42 21//38
f 22//39 24//43 20//35
f 20//36 24//44 22//40
f 25//41 23//41 21//37
f 21//38 23//42 25//42
f 24//43 26//43 20//35
f 20//36 26//44 24//44
