# SSTK version 0.8.0
# 26
mtllib original_26.mtl
o Group20/mesh24/mesh24-geometry#mesh24-geometry
v -0.00303933 0.48995272 0.29374421
v -0.03003915 0.35408301 0.28966506
v -0.07537440 0.48987321 0.27036710
v 0.02555917 0.35409769 0.29310862
v -0.07550808 0.35408099 0.27036406
v 0.06199560 0.48986612 0.28470430
v -0.10389377 0.48969267 0.24778714
v 0.08274506 0.35418878 0.27534111
v -0.11258169 0.35408243 0.23839310
v 0.11915712 0.48974590 0.24845492
v -0.13812712 0.48989541 0.19686385
v 0.12925855 0.35427731 0.23765538
v -0.14068931 0.35430952 0.19001392
v 0.15462024 0.48985185 0.19560614
v -0.15028384 0.42207299 0.13093548
v 0.15692979 0.35412151 0.18922989
v -0.15015163 0.45586421 0.13104235
v -0.15003791 0.38808436 0.13094240
v 0.16604143 0.42206366 0.14080456
v -0.15009552 0.48978369 0.13086025
v -0.15036754 0.35410215 0.13100991
v 0.16625866 0.38802554 0.14063842
v 0.16621487 0.45588350 0.14078783
v 0.16620531 0.35415281 0.14090691
v 0.16604024 0.48984599 0.14081115
vn 0.07920494050746887 -0.012879000311395356 -0.9967751545610413
vn 0.25610275579951347 -0.004385998995867741 -0.9666396130330597
vn 0.443910252506899 -0.010556003614582494 -0.8960090727816041
vn -0.443910252506899 0.010556003614582494 0.8960090727816041
vn -0.25610275579951347 0.004385998995867741 0.9666396130330597
vn -0.07920494050746887 0.012879000311395356 0.9967751545610413
vn -0.1251510722863896 0.004419999699859491 -0.9921278509890851
vn 0.1251510722863896 -0.004419999699859491 0.9921278509890851
vn 0.5592521437495193 0.003710998869341946 -0.828989305237986
vn -0.5592521437495193 -0.003710998869341946 0.828989305237986
vn -0.3285408218025519 -0.00986900202310163 -0.9444382093119548
vn 0.3285408218025519 0.00986900202310163 0.9444382093119548
vn 0.7080555306265646 -0.0012579996603222093 -0.7061556365178919
vn -0.7080555306265646 0.0012579996603222093 0.7061556365178919
vn -0.4937299834275748 0.0038430004430706883 -0.8696067702198512
vn 0.4937299834275748 -0.0038430004430706883 0.8696067702198512
vn 0.7908741140562771 0.0015280002492922262 -0.6119769611112308
vn -0.7908741140562771 -0.0015280002492922262 0.6119769611112308
vn -0.6759268850117724 -0.008590999156969918 -0.7369186120948278
vn 0.6759268850117724 0.008590999156969918 0.7369186120948278
vn 0.9460828692290074 -0.0035109989280747776 -0.32390566132430565
vn -0.9460828692290074 0.0035109989280747776 0.32390566132430565
vn -0.7865382045941295 0.00212099969164563 -0.6175379778395426
vn 0.7865382045941295 -0.00212099969164563 0.6175379778395426
vn 0.96816606294424 -0.0006280000536055683 -0.2503079706661022
vn -0.96816606294424 0.0006280000536055683 0.2503079706661022
vn -0.941166369665228 -0.0035430015945726655 -0.33792500906395806
vn 0.941166369665228 0.0035430015945726655 0.33792500906395806
vn 0.9854748234249452 -0.003584999513067547 -0.16978374531757826
vn -0.9854748234249452 0.003584999513067547 0.16978374531757826
vn -0.962949341959164 -0.00012200000952167351 -0.26968231298401896
vn 0.962949341959164 0.00012200000952167351 0.26968231298401896
vn 0.9834947144081863 0 -0.18093685840966786
vn -0.9834947144081863 0 0.18093685840966786
vn 0.9874100033447711 0 -0.158181810884435
vn -0.9874100033447711 0 0.158181810884435
vn -0.9804122999528426 -0.002714999850912664 -0.19693742883714838
vn 0.9804122999528426 0.002714999850912664 0.19693742883714838
vn -0.9824819638676573 0 -0.1863576955071916
vn 0.9824819638676573 0 0.1863576955071916
vn -0.9783275435479092 0 -0.20706331769657726
vn 0.9783275435479092 0 0.20706331769657726
usemtl material_0_0
f 1//1 2//2 3//3
f 3//4 2//5 1//6
f 1//1 4//7 2//2
f 2//5 4//8 1//6
f 3//3 2//2 5//9
f 5//10 2//5 3//4
f 6//11 4//7 1//1
f 1//6 4//8 6//12
f 3//3 5//9 7//13
f 7//14 5//10 3//4
f 6//11 8//15 4//7
f 4//8 8//16 6//12
f 7//13 5//9 9//17
f 9//18 5//10 7//14
f 10//19 8//15 6//11
f 6//12 8//16 10//20
f 11//21 7//13 9//17
f 9//18 7//14 11//22
f 10//19 12//23 8//15
f 8//16 12//24 10//20
f 13//25 11//21 9//17
f 9//18 11//22 13//26
f 14//27 12//23 10//19
f 10//20 12//24 14//28
f 15//29 11//21 13//25
f 13//26 11//22 15//30
f 16//31 12//23 14//27
f 14//28 12//24 16//32
f 17//33 11//21 15//29
f 15//30 11//22 17//34
f 15//29 13//25 18//35
f 18//36 13//26 15//30
f 19//37 16//31 14//27
f 14//28 16//32 19//38
f 20//33 11//21 17//33
f 17//34 11//22 20//34
f 18//35 13//25 21//35
f 21//36 13//26 18//36
f 22//39 16//31 19//37
f 19//38 16//32 22//40
f 19//37 14//27 23//41
f 23//42 14//28 19//38
f 24//39 16//31 22//39
f 22//40 16//32 24//40
f 23//41 14//27 25//41
f 25//42 14//28 23//42
