# SSTK version 0.8.0
# 27
mtllib original_27.mtl
o Group21/mesh25/mesh25-geometry#mesh25-geometry
v -0.16182864 0.30573905 0.49318456
v -0.20045062 0.21433971 0.47207274
v -0.20052683 0.30586948 0.47209649
v -0.01946566 0.21433522 0.53062661
v -0.27174874 0.30584165 0.41584973
v -0.01963340 0.30581566 0.53061925
v -0.29359369 0.21425012 0.39180520
v 0.11064080 0.21424685 0.51793635
v -0.35716317 0.30577226 0.28816261
v 0.14291723 0.30571152 0.50778101
v -0.36397942 0.21441242 0.27110560
v 0.23388400 0.21425993 0.46069519
v -0.38753720 0.26007397 0.12351348
v 0.28593845 0.30580019 0.41723794
v -0.38744904 0.28308174 0.12348022
v -0.38751705 0.23710535 0.12342892
v 0.32894871 0.21423196 0.36722921
v -0.38759082 0.30570031 0.12366339
v -0.38752635 0.21437092 0.12352242
v 0.37468052 0.30573290 0.28479450
v 0.38473464 0.21433799 0.25666858
v 0.40356939 0.26007994 0.14821066
v 0.40344581 0.23717728 0.14833771
v 0.40348729 0.28280211 0.14834545
v 0.40343836 0.21430066 0.14832158
v 0.40335185 0.30577481 0.14827575
vn 0.3482876894693996 0.02991899831439319 -0.9369101018261733
vn 0.5211799662307686 0.03293601184746398 -0.8528110352963773
vn 0.5517395961424489 0 -0.8340164375170116
vn -0.5517395961424489 0 0.8340164375170116
vn -0.5211799662307686 -0.03293601184746398 0.8528110352963773
vn -0.3482876894693996 -0.02991899831439319 0.9369101018261733
vn 0.15721464051693035 0.030250997268727896 -0.9871010252103782
vn -0.15721464051693035 -0.030250997268727896 0.9871010252103782
vn 0.7079991314303754 -0.004650000995305231 -0.7061979944637182
vn -0.7079991314303754 0.004650000995305231 0.7061979944637182
vn 0.006430681775031714 -0.02073599595046819 -0.9997643046257705
vn -0.006430681775031714 0.02073599595046819 0.9997643046257705
vn 0.7908631668978294 0.005678000040728023 -0.6119666752037022
vn -0.7908631668978294 -0.005678000040728023 0.6119666752037022
vn -0.22127537479028275 -0.004482001494739218 -0.9752010665365483
vn 0.22127537479028275 0.004482001494739218 0.9752010665365483
vn 0.9460301280515739 -0.012997006089475831 -0.32381796530061885
vn -0.9460301280515739 0.012997006089475831 0.32381796530061885
vn -0.3702645241925217 -0.036827987166296164 -0.9281960361290953
vn 0.3702645241925217 0.036827987166296164 0.9281960361290953
vn 0.968167348587726 -0.0023240002560073435 -0.2502929966088198
vn -0.968167348587726 0.0023240002560073435 0.2502929966088198
vn -0.5577818201527075 0.004837998505271195 -0.8299735145639261
vn 0.5577818201527075 -0.004837998505271195 0.8299735145639261
vn 0.9853943629040098 -0.013278002242329529 -0.16976938538338773
vn -0.9853943629040098 0.013278002242329529 0.16976938538338773
vn -0.6986212809311241 -0.040438987430574225 -0.7143479503195521
vn 0.6986212809311241 0.040438987430574225 0.7143479503195521
vn 0.9834947144081863 0 -0.18093685840966786
vn -0.9834947144081863 0 0.18093685840966786
vn 0.9874100033447711 0 -0.158181810884435
vn -0.9874100033447711 0 0.158181810884435
vn -0.8158753691278322 0.0050100001223715 -0.5782060895124655
vn 0.8158753691278322 -0.0050100001223715 0.5782060895124655
vn -0.9450531062793075 -0.01979000311675766 -0.32631730277211846
vn 0.9450531062793075 0.01979000311675766 0.32631730277211846
vn -0.9689480401091332 -0.002994001309244236 -0.24724629729245723
vn 0.9689480401091332 0.002994001309244236 0.24724629729245723
vn -0.9817824143570772 -0.016913998969125706 -0.18925434604801175
vn 0.9817824143570772 0.016913998969125706 0.18925434604801175
vn -0.9854490065367538 0 -0.1699713373358138
vn 0.9854490065367538 0 0.1699713373358138
vn -0.9783275435479092 0 -0.20706331769657726
vn 0.9783275435479092 0 0.20706331769657726
usemtl material_0_0
f 1//1 2//2 3//3
f 3//4 2//5 1//6
f 1//1 4//7 2//2
f 2//5 4//8 1//6
f 3//3 2//2 5//9
f 5//10 2//5 3//4
f 6//11 4//7 1//1
f 1//6 4//8 6//12
f 5//9 2//2 7//13
f 7//14 2//5 5//10
f 6//11 8//15 4//7
f 4//8 8//16 6//12
f 9//17 5//9 7//13
f 7//14 5//10 9//18
f 10//19 8//15 6//11
f 6//12 8//16 10//20
f 11//21 9//17 7//13
f 7//14 9//18 11//22
f 10//19 12//23 8//15
f 8//16 12//24 10//20
f 13//25 9//17 11//21
f 11//22 9//18 13//26
f 14//27 12//23 10//19
f 10//20 12//24 14//28
f 15//29 9//17 13//25
f 13//26 9//18 15//30
f 13//25 11//21 16//31
f 16//32 11//22 13//26
f 14//27 17//33 12//23
f 12//24 17//34 14//28
f 18//29 9//17 15//29
f 15//30 9//18 18//30
f 16//31 11//21 19//31
f 19//32 11//22 16//32
f 20//35 17//33 14//27
f 14//28 17//34 20//36
f 21//37 17//33 20//35
f 20//36 17//34 21//38
f 22//39 21//37 20//35
f 20//36 21//38 22//40
f 23//41 21//37 22//39
f 22//40 21//38 23//42
f 22//39 20//35 24//43
f 24//44 20//36 22//40
f 25//41 21//37 23//41
f 23//42 21//38 25//42
f 24//43 20//35 26//43
f 26//44 20//36 24//44
