# SSTK version 0.8.0
# 78
mtllib original_78.mtl
o Group62/mesh73/mesh73-geometry#mesh73-geometry
v 0.02984260 0.97624240 0.02506319
v 0.07071917 0.97509928 0.04191050
v 0.02982620 0.97518176 0.02497170
v 0.07066604 0.97640696 0.04202779
v 0.10977092 0.97516104 0.08674301
v 0.02960703 0.97765668 0.02560653
v 0.10958554 0.97643174 0.08694761
v 0.07047117 0.97767995 0.04251158
v 0.11893738 0.97510076 0.15764746
v 0.02937840 0.97881989 0.02617298
v 0.10933832 0.97758345 0.08712064
v 0.11882007 0.97635794 0.15781587
v 0.06987648 0.97880340 0.04306592
v 0.08345388 0.97506369 0.21979287
v 0.02930688 0.97967082 0.02740230
v 0.10871974 0.97865328 0.08756448
v 0.11829942 0.97761813 0.15767613
v 0.08342177 0.97615624 0.21990586
v 0.06932898 0.97971927 0.04390219
v 0.03039667 0.97504822 0.24665637
v 0.02925210 0.98026739 0.02833610
v 0.10778525 0.97969734 0.08786167
v 0.11750883 0.97860739 0.15760084
v 0.08327091 0.97751399 0.21935816
v 0.03033373 0.97633372 0.24645290
v 0.06880061 0.98042113 0.04476596
v -0.01390249 0.97499740 0.24682844
v 0.02891722 0.98051536 0.02948141
v 0.10660182 0.98019822 0.08821233
v 0.11669991 0.97966807 0.15719686
v 0.08268745 0.97865558 0.21891922
v 0.03024011 0.97769936 0.24623167
v -0.01394498 0.97639788 0.24660824
v 0.06807419 0.98053516 0.04581497
v 0.10551722 0.98060710 0.08892504
v 0.11530504 0.98040029 0.15722616
v 0.08192530 0.97967158 0.21828034
v 0.03021702 0.97868605 0.24526120
v -0.01389955 0.97768006 0.24609243
v 0.11440140 0.98068158 0.15679256
v 0.08123689 0.98040193 0.21729981
v 0.03000017 0.97965831 0.24439558
v -0.01358763 0.97879951 0.24551020
v 0.08036923 0.98060302 0.21630538
v 0.02982295 0.98045101 0.24305711
v -0.01351142 0.97981604 0.24442707
v 0.02957026 0.98073483 0.24190540
v -0.01323389 0.98028620 0.24332241
v -0.01300466 0.98073760 0.24221240
vn 0.3753432082317566 0.18419490558668844 -0.9083995336800891
vn 0.5152953728653062 0.11169405315789283 -0.8497029582111426
vn 0.3795744026960715 0.10965701728880045 -0.9186395437696138
vn -0.3795744026960715 -0.10965701728880045 0.9186395437696138
vn -0.5152953728653062 -0.11169405315789283 0.8497029582111426
vn -0.3753432082317566 -0.18419490558668844 0.9083995336800891
vn 0.5706084897558735 0.2256590686628745 -0.78960998989927
vn -0.5706084897558735 -0.2256590686628745 0.78960998989927
vn 0.8614773562403153 0.11150901216418402 -0.49540135737739427
vn -0.8614773562403153 -0.11150901216418402 0.49540135737739427
vn 0.3493820367825374 0.4036660306955731 -0.845568405296796
vn -0.3493820367825374 -0.4036660306955731 0.845568405296796
vn 0.8900272389197782 0.22580098126100298 -0.3960624077622169
vn -0.8900272389197782 -0.22580098126100298 0.3960624077622169
vn 0.5260425684777649 0.44676600375819536 -0.7236569311733623
vn -0.5260425684777649 -0.44676600375819536 0.7236569311733623
vn 0.9903211077254794 0.11112599822081724 0.0831571771575135
vn -0.9903211077254794 -0.11112599822081724 -0.0831571771575135
vn 0.3028206214595257 0.6092500603215465 -0.7328806418626833
vn -0.3028206214595257 -0.6092500603215465 0.7328806418626833
vn 0.8185398359294821 0.4470089832843227 -0.3607984282943217
vn -0.8185398359294821 -0.4470089832843227 0.3607984282943217
vn 0.9553422823753461 0.22564596265221165 0.19080100378305417
vn -0.9553422823753461 -0.22564596265221165 -0.19080100378305417
vn 0.4500213043541221 0.6483101161950116 -0.6141456007060746
vn -0.4500213043541221 -0.6483101161950116 0.6141456007060746
vn 0.75396132108783 0.11089303087450954 0.6474913605654974
vn -0.75396132108783 -0.11089303087450954 -0.6474913605654974
vn 0.23797657971337008 0.78208198544389 -0.57594697286475
vn -0.23797657971337008 -0.78208198544389 0.57594697286475
vn 0.6979792100522751 0.6485668448923388 -0.30362159020925833
vn -0.6979792100522751 -0.6485668448923388 0.30362159020925833
vn 0.8765740511146748 0.44704697605504695 0.1782328087430747
vn -0.8765740511146748 -0.44704697605504695 -0.1782328087430747
vn 0.6699964739582911 0.22523603682237892 0.7073708027618931
vn -0.6699964739582911 -0.22523603682237892 -0.7073708027618931
vn 0.3475766947027355 0.8119609627922956 -0.4689454511997424
vn -0.3475766947027355 -0.8119609627922956 0.4689454511997424
vn 0.3063254801576276 0.11109697769028525 0.9454216846224138
vn -0.3063254801576276 -0.11109697769028525 -0.9454216846224138
vn 0.16041002391997874 0.9074979720064105 -0.38822165708554235
vn -0.16041002391997874 -0.9074979720064105 0.38822165708554235
vn 0.5366615633735127 0.8121359854838813 -0.22897490578581337
vn -0.5366615633735127 -0.8121359854838813 0.22897490578581337
vn 0.7450024020680543 0.6487628412380209 0.15517150750572659
vn -0.7450024020680543 -0.6487628412380209 -0.15517150750572659
vn 0.6134135317783397 0.4466357789508519 0.6513373319503416
vn -0.6134135317783397 -0.4466357789508519 -0.6513373319503416
vn 0.22487558667112145 0.22511398853483272 0.9480267204489851
vn -0.22487558667112145 -0.22511398853483272 -0.9480267204489851
vn 0.22813641921813738 0.9256888480384682 -0.30175143884253475
vn -0.22813641921813738 -0.9256888480384682 0.30175143884253475
vn 0.00294652973040087 0.1096570172888013 0.9939651183627479
vn -0.00294652973040087 -0.1096570172888013 -0.9939651183627479
vn 0.10461998363190192 0.96174073784586 -0.25319836530388823
vn -0.10461998363190192 -0.96174073784586 0.25319836530388823
vn 0.34959526964850063 0.9257512511475537 -0.14411026486038722
vn -0.34959526964850063 -0.9257512511475537 0.14411026486038722
vn 0.5700197013459876 0.8123778473066928 0.12296248729907441
vn -0.5700197013459876 -0.8123778473066928 -0.12296248729907441
vn 0.5197786413774986 0.6484701319150501 0.5561624330911239
vn -0.5197786413774986 -0.6484701319150501 -0.5561624330911239
vn 0.20454059792061974 0.44640998206302446 0.8711379177356279
vn -0.20454059792061974 -0.44640998206302446 -0.8711379177356279
vn 0.0028644195226452942 0.2581051177915889 0.9661125934747916
vn -0.0028644195226452942 -0.2581051177915889 -0.9661125934747916
vn 0.17514605349031304 0.9626710890263824 -0.2063691699346767
vn -0.17514605349031304 -0.9626710890263824 0.2063691699346767
vn 0.25751147987275697 0.9625330036489625 -0.08495913500176924
vn -0.25751147987275697 -0.9625330036489625 0.08495913500176924
vn 0.3681538255616406 0.9259218014911834 0.0844486722669507
vn -0.3681538255616406 -0.9259218014911834 -0.0844486722669507
vn 0.395763535401823 0.8122590422654944 0.4284932581782259
vn -0.395763535401823 -0.8122590422654944 -0.4284932581782259
vn 0.17180958707273858 0.6482218271665824 0.7418152927614209
vn -0.17180958707273858 -0.6482218271665824 -0.7418152927614209
vn 0.0026090236799164346 0.47512420973032554 0.8799148699297968
vn -0.0026090236799164346 -0.47512420973032554 -0.8799148699297968
vn 0.2580696679317825 0.9627019270671489 0.08127143480201122
vn -0.2580696679317825 -0.9627019270671489 -0.08127143480201122
vn 0.2531019914852909 0.9259339425768195 0.2803314393540739
vn -0.2531019914852909 -0.9259339425768195 -0.2803314393540739
vn 0.1290528055195783 0.8120803056488131 0.5690966091665425
vn -0.1290528055195783 -0.8120803056488131 -0.5690966091665425
vn 0.002196563078205632 0.6717542765088962 0.740770792555061
vn -0.002196563078205632 -0.6717542765088962 -0.740770792555061
vn 0.16577695940261902 0.9629566932747496 0.21267911653141228
vn -0.16577695940261902 -0.9629566932747496 -0.21267911653141228
vn 0.08032111960868198 0.9258619590523671 0.36922642175841197
vn -0.08032111960868198 -0.9258619590523671 -0.36922642175841197
vn 0.0016536778552326543 0.8299553696663539 0.5578273475830464
vn -0.0016536778552326543 -0.8299553696663539 -0.5578273475830464
vn 0.042321184755395494 0.9630687488865981 0.2659088231685861
vn -0.042321184755395494 -0.9630687488865981 -0.2659088231685861
vn 0.0010308544217673208 0.9375522066515299 0.34784306395558284
vn -0.0010308544217673208 -0.9375522066515299 -0.34784306395558284
vn 0.0008123942285849214 0.9617406188954485 0.27396043871737613
vn -0.0008123942285849214 -0.9617406188954485 -0.27396043871737613
usemtl material_0_0
f 1//1 2//2 3//3
f 3//4 2//5 1//6
f 4//7 2//2 1//1
f 1//6 2//5 4//8
f 2//2 4//7 5//9
f 5//10 4//8 2//5
f 6//11 4//7 1//1
f 1//6 4//8 6//12
f 4//7 7//13 5//9
f 5//10 7//14 4//8
f 8//15 4//7 6//11
f 6//12 4//8 8//16
f 4//7 8//15 7//13
f 7//14 8//16 4//8
f 5//9 7//13 9//17
f 9//18 7//14 5//10
f 10//19 8//15 6//11
f 6//12 8//16 10//20
f 8//15 11//21 7//13
f 7//14 11//22 8//16
f 7//13 12//23 9//17
f 9//18 12//24 7//14
f 13//25 8//15 10//19
f 10//20 8//16 13//26
f 8//15 13//25 11//21
f 11//22 13//26 8//16
f 7//13 11//21 12//23
f 12//24 11//22 7//14
f 12//23 14//27 9//17
f 9//18 14//28 12//24
f 13//25 10//19 15//29
f 15//30 10//20 13//26
f 13//25 16//31 11//21
f 11//22 16//32 13//26
f 11//21 17//33 12//23
f 12//24 17//34 11//22
f 12//23 18//35 14//27
f 14//28 18//36 12//24
f 13//25 15//29 19//37
f 19//38 15//30 13//26
f 16//31 13//25 19//37
f 19//38 13//26 16//32
f 11//21 16//31 17//33
f 17//34 16//32 11//22
f 17//33 18//35 12//23
f 12//24 18//36 17//34
f 18//35 20//39 14//27
f 14//28 20//40 18//36
f 19//37 15//29 21//41
f 21//42 15//30 19//38
f 16//31 19//37 22//43
f 22//44 19//38 16//32
f 16//31 23//45 17//33
f 17//34 23//46 16//32
f 17//33 24//47 18//35
f 18//36 24//48 17//34
f 25//49 20//39 18//35
f 18//36 20//40 25//50
f 19//37 21//41 26//51
f 26//52 21//42 19//38
f 22//43 19//37 26//51
f 26//52 19//38 22//44
f 23//45 16//31 22//43
f 22//44 16//32 23//46
f 23//45 24//47 17//33
f 17//34 24//48 23//46
f 24//47 25//49 18//35
f 18//36 25//50 24//48
f 25//49 27//53 20//39
f 20//40 27//54 25//50
f 26//51 21//41 28//55
f 28//56 21//42 26//52
f 22//43 26//51 29//57
f 29//58 26//52 22//44
f 23//45 22//43 30//59
f 30//60 22//44 23//46
f 23//45 31//61 24//47
f 24//48 31//62 23//46
f 32//63 25//49 24//47
f 24//48 25//50 32//64
f 33//65 27//53 25//49
f 25//50 27//54 33//66
f 26//51 28//55 34//67
f 34//68 28//56 26//52
f 29//57 26//51 34//67
f 34//68 26//52 29//58
f 30//59 22//43 29//57
f 29//58 22//44 30//60
f 23//45 30//59 31//61
f 31//62 30//60 23//46
f 31//61 32//63 24//47
f 24//48 32//64 31//62
f 32//63 33//65 25//49
f 25//50 33//66 32//64
f 29//57 34//67 35//69
f 35//70 34//68 29//58
f 30//59 29//57 36//71
f 36//72 29//58 30//60
f 30//59 37//73 31//61
f 31//62 37//74 30//60
f 38//75 32//63 31//61
f 31//62 32//64 38//76
f 39//77 33//65 32//63
f 32//64 33//66 39//78
f 36//71 29//57 35//69
f 35//70 29//58 36//72
f 30//59 36//71 37//73
f 37//74 36//72 30//60
f 31//61 37//73 38//75
f 38//76 37//74 31//62
f 38//75 39//77 32//63
f 32//64 39//78 38//76
f 36//71 35//69 40//79
f 40//80 35//70 36//72
f 36//71 41//81 37//73
f 37//74 41//82 36//72
f 37//73 42//83 38//75
f 38//76 42//84 37//74
f 43//85 39//77 38//75
f 38//76 39//78 43//86
f 36//71 40//79 41//81
f 41//82 40//80 36//72
f 37//73 41//81 42//83
f 42//84 41//82 37//74
f 38//75 42//83 43//85
f 43//86 42//84 38//76
f 40//79 44//87 41//81
f 41//82 44//88 40//80
f 41//81 45//89 42//83
f 42//84 45//90 41//82
f 42//83 46//91 43//85
f 43//86 46//92 42//84
f 41//81 44//87 45//89
f 45//90 44//88 41//82
f 42//83 45//89 46//91
f 46//92 45//90 42//84
f 44//87 47//93 45//89
f 45//90 47//94 44//88
f 45//89 48//95 46//91
f 46//92 48//96 45//90
f 45//89 47//93 48//95
f 48//96 47//94 45//90
f 47//93 49//97 48//95
f 48//96 49//98 47//94
