# SSTK version 0.8.0
# 43
mtllib original_43.mtl
o Group35/mesh40/mesh40-geometry#mesh40-geometry
v -0.09662062 0.48974920 0.01711041
v -0.06685182 0.35426666 -0.00364651
v -0.06693007 0.48982730 -0.00362940
v -0.10614829 0.35412810 0.02621877
v -0.03312795 0.48981365 -0.01707723
v -0.13395245 0.48996407 0.06599890
v -0.02026525 0.35405477 -0.02001541
v -0.13724830 0.35419728 0.07250209
v 0.00688320 0.48990049 -0.02233739
v -0.15017334 0.42211113 0.13093085
v 0.03549422 0.35418117 -0.02002754
v -0.15019221 0.45601620 0.13084303
v -0.15015350 0.38815069 0.13099515
v 0.07117459 0.48976994 -0.00922999
v -0.15009593 0.48982426 0.13094036
v -0.15022964 0.35416716 0.13107153
v 0.09134340 0.35421760 0.00137855
v 0.12585716 0.48980955 0.03042850
v 0.13533320 0.35420111 0.04181143
v 0.15814125 0.48977834 0.08559275
v 0.15997901 0.35403973 0.09193795
v 0.16612896 0.42201109 0.14091481
v 0.16613670 0.38808036 0.14080604
v 0.16631391 0.45587953 0.14083648
v 0.16618042 0.35407082 0.14072381
v 0.16629407 0.48968179 0.14084065
vn 0.6625275144265405 -0.001258000229518684 0.7490365211811855
vn 0.47266637663188366 0.00556599890488465 0.8812238739718059
vn 0.4726735437052027 0 0.8812376076184936
vn -0.4726735437052027 0 -0.8812376076184936
vn -0.47266637663188366 -0.00556599890488465 -0.8812238739718059
vn -0.6625275144265405 0.001258000229518684 -0.7490365211811855
vn 0.7510714183086966 0.001527999199681891 0.6602191983108404
vn -0.7510714183086966 -0.001527999199681891 -0.6602191983108404
vn 0.2791351355176334 0.0009159997356699636 0.9602513926384262
vn -0.2791351355176334 -0.0009159997356699636 -0.9602513926384262
vn 0.9239842997574307 -0.003510998173675605 0.38241428672788186
vn -0.9239842997574307 0.003510998173675605 -0.38241428672788186
vn 0.15711215434483625 0.007069000304041682 0.9875554668937973
vn -0.15711215434483625 -0.007069000304041682 -0.9875554668937973
vn 0.9506252084853749 -0.0006280001545080136 0.3103406492999969
vn -0.9506252084853749 0.0006280001545080136 -0.3103406492999969
vn -0.021311024445381042 -0.005038999993063373 0.9997601956050052
vn 0.021311024445381042 0.005038999993063373 -0.9997601956050052
vn 0.9729338031117136 -0.0035850004961012617 0.23105618912727777
vn -0.9729338031117136 0.0035850004961012617 -0.23105618912727777
vn -0.18692588397135648 0.0044200006796463135 0.9823640758372219
vn 0.18692588397135648 -0.0044200006796463135 -0.9823640758372219
vn 0.9702604093420759 0 0.24206350006423336
vn -0.9702604093420759 0 -0.24206350006423336
vn 0.9755904185225241 0 0.219598122230237
vn -0.9755904185225241 0 -0.219598122230237
vn -0.3869368729950014 -0.009868999784554394 0.9220533927924688
vn 0.3869368729950014 0.009868999784554394 -0.9220533927924688
vn -0.5471249332606608 0.0038430000209351135 0.8370421367860502
vn 0.5471249332606608 -0.0038430000209351135 -0.8370421367860502
vn -0.720671141942704 -0.008590997708085038 0.6932238454708396
vn 0.720671141942704 0.008590997708085038 -0.6932238454708396
vn -0.8236040614929985 0.0021209998746799155 0.5671612215691131
vn 0.8236040614929985 -0.0021209998746799155 -0.5671612215691131
vn -0.9604501063881886 -0.0035430003365087516 0.27842959664434547
vn 0.9604501063881886 0.0035430003365087516 -0.27842959664434547
vn -0.9779243912529519 -0.00012200003558927645 0.20895901537989386
vn 0.9779243912529519 0.00012200003558927645 -0.20895901537989386
vn -0.9908058054947378 -0.0027149988844274915 0.13526449859065562
vn 0.9908058054947378 0.0027149988844274915 -0.13526449859065562
vn -0.9922101382252132 0 0.12457544542606881
vn 0.9922101382252132 0 -0.12457544542606881
vn -0.9893579876996808 0 0.14550179440418712
vn 0.9893579876996808 0 -0.14550179440418712
usemtl material_0_0
f 1//1 2//2 3//3
f 3//4 2//5 1//6
f 1//1 4//7 2//2
f 2//5 4//8 1//6
f 3//3 2//2 5//9
f 5//10 2//5 3//4
f 1//1 6//11 4//7
f 4//8 6//12 1//6
f 5//9 2//2 7//13
f 7//14 2//5 5//10
f 4//7 6//11 8//15
f 8//16 6//12 4//8
f 5//9 7//13 9//17
f 9//18 7//14 5//10
f 6//11 10//19 8//15
f 8//16 10//20 6//12
f 9//17 7//13 11//21
f 11//22 7//14 9//18
f 6//11 12//23 10//19
f 10//20 12//24 6//12
f 8//15 10//19 13//25
f 13//26 10//20 8//16
f 9//17 11//21 14//27
f 14//28 11//22 9//18
f 6//11 15//23 12//23
f 12//24 15//24 6//12
f 8//15 13//25 16//25
f 16//26 13//26 8//16
f 14//27 11//21 17//29
f 17//30 11//22 14//28
f 14//27 17//29 18//31
f 18//32 17//30 14//28
f 18//31 17//29 19//33
f 19//34 17//30 18//32
f 18//31 19//33 20//35
f 20//36 19//34 18//32
f 19//33 21//37 20//35
f 20//36 21//38 19//34
f 20//35 21//37 22//39
f 22//40 21//38 20//36
f 21//37 23//41 22//39
f 22//40 23//42 21//38
f 20//35 22//39 24//43
f 24//44 22//40 20//36
f 21//37 25//41 23//41
f 23//42 25//42 21//38
f 20//35 24//43 26//43
f 26//44 24//44 20//36
