# SSTK version 0.8.0
# 117
mtllib original_117.mtl
o mesh109/mesh109-geometry#mesh109-geometry
v 0.00317494 0.92303938 0.16022695
v -0.00373375 0.92258493 0.15896829
v 0.00320112 0.91427867 0.16030796
v -0.01020590 0.92051624 0.15772465
v 0.01005087 0.92254323 0.16159526
v -0.01619888 0.91723402 0.15643409
v 0.01656023 0.92063253 0.16286194
v -0.01994141 0.91403222 0.15569407
v 0.02244976 0.91728668 0.16414125
v -0.00264058 0.91349210 0.15918616
v 0.02614518 0.91437728 0.16493584
v -0.00822497 0.91166857 0.15795768
v 0.00911997 0.91351735 0.16120138
v -0.01318016 0.90842267 0.15706071
v 0.01460606 0.91165579 0.16247326
v -0.02148055 0.91278231 0.15527706
v 0.01930373 0.90836166 0.16336399
v -0.01720268 0.90412365 0.15623076
v 0.02790191 0.91282948 0.16508131
v -0.02588953 0.90735000 0.15435483
v 0.02371517 0.90413812 0.16409222
v -0.02027991 0.89922305 0.15545604
v 0.03216225 0.90753793 0.16591709
v -0.02915296 0.90132264 0.15374259
v 0.02669017 0.89923769 0.16469656
v -0.02221425 0.89339743 0.15513914
v 0.03542769 0.90126956 0.16660038
v -0.03116566 0.89472168 0.15348516
v 0.02867559 0.89363695 0.16531259
v -0.02290472 0.88765905 0.15519508
v 0.03744794 0.89461921 0.16695876
v -0.03164974 0.88753943 0.15348133
v 0.02907328 0.88772907 0.16550214
v -0.03105030 0.88063208 0.15358408
v 0.03796985 0.88762734 0.16701368
v -0.02210427 0.88182801 0.15521518
v 0.03735899 0.88076702 0.16695633
v -0.02926835 0.87408733 0.15387238
v 0.02862271 0.88188678 0.16511853
v -0.02028750 0.87601316 0.15566543
v 0.03535659 0.87406346 0.16649015
v -0.02588048 0.86785273 0.15451935
v 0.02661525 0.87618526 0.16492188
v -0.01724845 0.87107953 0.15608974
v 0.03228619 0.86790153 0.16596383
v -0.02143965 0.86244533 0.15546232
v 0.02366493 0.87109634 0.16431829
v -0.01302803 0.86689087 0.15690258
v 0.02797960 0.86227559 0.16496381
v -0.01995199 0.86113801 0.15569322
v 0.01952154 0.86700377 0.16340250
v -0.00817622 0.86358011 0.15796507
v 0.02633826 0.86102893 0.16464163
v -0.00279785 0.86156754 0.15898056
v 0.01447529 0.86383226 0.16247424
v 0.00325419 0.86112742 0.16028847
v 0.00893173 0.86162066 0.16118798
v -0.01625968 0.85810829 0.15636230
v -0.01016206 0.85463047 0.15759861
v 0.02264759 0.85788828 0.16418926
v -0.00380117 0.85275514 0.15896408
v 0.01660089 0.85472544 0.16299392
v 0.00320664 0.85194670 0.16019808
v 0.01000476 0.85284949 0.16158301
vn -0.19320795807172167 0 0.9811578287603662
vn 0.19320795807172167 0 -0.9811578287603662
usemtl material_0_0
f 1//1 2//1 3//1
f 3//2 2//2 1//2
f 2//1 4//1 3//1
f 3//2 4//2 2//2
f 1//1 3//1 5//1
f 5//2 3//2 1//2
f 4//1 6//1 3//1
f 3//2 6//2 4//2
f 5//1 3//1 7//1
f 7//2 3//2 5//2
f 6//1 8//1 3//1
f 3//2 8//2 6//2
f 7//1 3//1 9//1
f 9//2 3//2 7//2
f 8//1 10//1 3//1
f 3//2 10//2 8//2
f 9//1 3//1 11//1
f 11//2 3//2 9//2
f 8//1 12//1 10//1
f 10//2 12//2 8//2
f 3//1 13//1 11//1
f 11//2 13//2 3//2
f 8//1 14//1 12//1
f 12//2 14//2 8//2
f 11//1 13//1 15//1
f 15//2 13//2 11//2
f 8//1 16//1 14//1
f 14//2 16//2 8//2
f 11//1 15//1 17//1
f 17//2 15//2 11//2
f 16//1 18//1 14//1
f 14//2 18//2 16//2
f 11//1 17//1 19//1
f 19//2 17//2 11//2
f 16//1 20//1 18//1
f 18//2 20//2 16//2
f 19//1 17//1 21//1
f 21//2 17//2 19//2
f 20//1 22//1 18//1
f 18//2 22//2 20//2
f 19//1 21//1 23//1
f 23//2 21//2 19//2
f 20//1 24//1 22//1
f 22//2 24//2 20//2
f 23//1 21//1 25//1
f 25//2 21//2 23//2
f 24//1 26//1 22//1
f 22//2 26//2 24//2
f 23//1 25//1 27//1
f 27//2 25//2 23//2
f 24//1 28//1 26//1
f 26//2 28//2 24//2
f 27//1 25//1 29//1
f 29//2 25//2 27//2
f 28//1 30//1 26//1
f 26//2 30//2 28//2
f 27//1 29//1 31//1
f 31//2 29//2 27//2
f 28//1 32//1 30//1
f 30//2 32//2 28//2
f 31//1 29//1 33//1
f 33//2 29//2 31//2
f 32//1 34//1 30//1
f 30//2 34//2 32//2
f 31//1 33//1 35//1
f 35//2 33//2 31//2
f 30//1 34//1 36//1
f 36//2 34//2 30//2
f 33//1 37//1 35//1
f 35//2 37//2 33//2
f 36//1 34//1 38//1
f 38//2 34//2 36//2
f 33//1 39//1 37//1
f 37//2 39//2 33//2
f 36//1 38//1 40//1
f 40//2 38//2 36//2
f 39//1 41//1 37//1
f 37//2 41//2 39//2
f 40//1 38//1 42//1
f 42//2 38//2 40//2
f 39//1 43//1 41//1
f 41//2 43//2 39//2
f 40//1 42//1 44//1
f 44//2 42//2 40//2
f 43//1 45//1 41//1
f 41//2 45//2 43//2
f 44//1 42//1 46//1
f 46//2 42//2 44//2
f 43//1 47//1 45//1
f 45//2 47//2 43//2
f 44//1 46//1 48//1
f 48//2 46//2 44//2
f 47//1 49//1 45//1
f 45//2 49//2 47//2
f 48//1 46//1 50//1
f 50//2 46//2 48//2
f 47//1 51//1 49//1
f 49//2 51//2 47//2
f 48//1 50//1 52//1
f 52//2 50//2 48//2
f 51//1 53//1 49//1
f 49//2 53//2 51//2
f 52//1 50//1 54//1
f 54//2 50//2 52//2
f 51//1 55//1 53//1
f 53//2 55//2 51//2
f 54//1 50//1 56//1
f 56//2 50//2 54//2
f 55//1 57//1 53//1
f 53//2 57//2 55//2
f 50//1 58//1 56//1
f 56//2 58//2 50//2
f 57//1 56//1 53//1
f 53//2 56//2 57//2
f 56//1 58//1 59//1
f 59//2 58//2 56//2
f 56//1 60//1 53//1
f 53//2 60//2 56//2
f 56//1 59//1 61//1
f 61//2 59//2 56//2
f 56//1 62//1 60//1
f 60//2 62//2 56//2
f 56//1 61//1 63//1
f 63//2 61//2 56//2
f 56//1 64//1 62//1
f 62//2 64//2 56//2
f 56//1 63//1 64//1
f 64//2 63//2 56//2
