# SSTK version 0.8.0
# 60
mtllib original_60.mtl
o Group47/mesh56/mesh56-geometry#mesh56-geometry
v -0.14614169 0.58003437 0.22836065
v -0.12093483 0.58016838 0.26110081
v -0.14606690 0.35962959 0.22843243
v -0.11035604 0.35976871 0.27128170
v -0.16327135 0.58029747 0.19104287
v -0.06345625 0.57995277 0.30073974
v -0.16721080 0.35953804 0.17657859
v -0.05586344 0.35968626 0.30397092
v -0.17130138 0.58019741 0.14583865
v 0.01105478 0.46976031 0.31557253
v -0.17029896 0.35964216 0.11331573
v 0.01104095 0.52499139 0.31560188
v 0.01098534 0.41490021 0.31574010
v -0.16029349 0.58014627 0.07223973
v 0.01102835 0.58009551 0.31564124
v 0.01108593 0.35965981 0.31559053
v -0.14931733 0.35970302 0.04873184
v -0.11814314 0.58002731 0.00802964
v -0.10563934 0.35979220 -0.00349365
v -0.05742971 0.58014802 -0.03153174
v -0.05023240 0.35976272 -0.03436411
v 0.00478132 0.46995602 -0.04383489
v 0.00478191 0.41485073 -0.04380279
v 0.00477515 0.52515123 -0.04372607
v 0.00483288 0.35962340 -0.04381063
v 0.00466720 0.58011769 -0.04374830
vn 0.8571671967198786 0 -0.5150382479655128
vn 0.7158735755791814 -0.000879000395206886 -0.6982293685786806
vn 0.8571609503549751 0.0038899999212720095 -0.5150339533343102
vn -0.8571609503549751 -0.0038899999212720095 0.5150339533343102
vn -0.7158735755791814 0.000879000395206886 0.6982293685786806
vn -0.8571671967198786 0 0.5150382479655128
vn 0.6228507686982329 0.0010679993624442743 -0.7823399384598629
vn -0.6228507686982329 -0.0010679993624442743 0.7823399384598629
vn 0.9455149300641966 0.0006400000303556992 -0.3255781126329877
vn -0.9455149300641966 -0.0006400000303556992 0.3255781126329877
vn 0.33695654550414167 -0.00245399974142984 -0.9415170016134515
vn -0.33695654550414167 0.00245399974142984 0.9415170016134515
vn 0.9787432715123436 0.004941002347090225 -0.20502974165988927
vn -0.9787432715123436 -0.004941002347090225 0.20502974165988927
vn 0.2636673375052991 -0.00043900001220682343 -0.9646135715465837
vn -0.2636673375052991 0.00043900001220682343 0.9646135715465837
vn 0.9996181826591888 -0.003522000828452186 -0.027405919201975944
vn -0.9996181826591888 0.003522000828452186 0.027405919201975944
vn 0.18339049391594006 -0.0025059990384913916 -0.9830369508365829
vn -0.18339049391594006 0.0025059990384913916 0.9830369508365829
vn 0.9903079259730417 0.0030889992055620824 0.1388548516937038
vn -0.9903079259730417 -0.0030889992055620824 -0.1388548516937038
vn 0.19451445993729222 0 -0.9808996507672451
vn -0.19451445993729222 0 0.9808996507672451
vn 0.17181520994283267 0 -0.9851291964165414
vn -0.17181520994283267 0 0.9851291964165414
vn 0.9398303969479682 -0.00689800005668761 0.34157172389974333
vn -0.9398303969479682 0.00689800005668761 -0.34157172389974333
vn 0.8627030432426203 0.002684999693601503 0.5057037175625337
vn -0.8627030432426203 -0.002684999693601503 -0.5057037175625337
vn 0.7275218856517317 -0.006003997599418811 0.6860582030050911
vn -0.7275218856517317 0.006003997599418811 -0.6860582030050911
vn 0.606608857498386 0.0014819995533902229 0.7949990551452414
vn -0.606608857498386 -0.0014819995533902229 -0.7949990551452414
vn 0.32488815934393317 -0.0024760006250783965 0.9457492021350141
vn -0.32488815934393317 0.0024760006250783965 -0.9457492021350141
vn 0.25634619677883336 -0.00008499997132003232 0.9665850299751348
vn -0.25634619677883336 0.00008499997132003232 -0.9665850299751348
vn 0.18336740399891843 -0.0018980001930812348 0.9830426200048321
vn -0.18336740399891843 0.0018980001930812348 -0.9830426200048321
vn 0.17275932414235123 0 0.9849640683405045
vn -0.17275932414235123 0 -0.9849640683405045
vn 0.19352098377351298 0 0.9810961363899725
vn -0.19352098377351298 0 -0.9810961363899725
usemtl material_0_0
f 1//1 2//2 3//3
f 3//4 2//5 1//6
f 3//3 2//2 4//7
f 4//8 2//5 3//4
f 5//9 1//1 3//3
f 3//4 1//6 5//10
f 6//11 4//7 2//2
f 2//5 4//8 6//12
f 7//13 5//9 3//3
f 3//4 5//10 7//14
f 6//11 8//15 4//7
f 4//8 8//16 6//12
f 9//17 5//9 7//13
f 7//14 5//10 9//18
f 6//11 10//19 8//15
f 8//16 10//20 6//12
f 11//21 9//17 7//13
f 7//14 9//18 11//22
f 6//11 12//23 10//19
f 10//20 12//24 6//12
f 10//19 13//25 8//15
f 8//16 13//26 10//20
f 14//27 9//17 11//21
f 11//22 9//18 14//28
f 15//23 12//23 6//11
f 6//12 12//24 15//24
f 13//25 16//25 8//15
f 8//16 16//26 13//26
f 17//29 14//27 11//21
f 11//22 14//28 17//30
f 18//31 14//27 17//29
f 17//30 14//28 18//32
f 19//33 18//31 17//29
f 17//30 18//32 19//34
f 18//31 19//33 20//35
f 20//36 19//34 18//32
f 20//35 19//33 21//37
f 21//38 19//34 20//36
f 20//35 21//37 22//39
f 22//40 21//38 20//36
f 22//39 21//37 23//41
f 23//42 21//38 22//40
f 20//35 22//39 24//43
f 24//44 22//40 20//36
f 23//41 21//37 25//41
f 25//42 21//38 23//42
f 20//35 24//43 26//43
f 26//44 24//44 20//36
