# SSTK version 0.8.0
# 30
mtllib original_30.mtl
o mesh27/mesh27-geometry#mesh27-geometry
v -0.13293650 0.08524777 -0.23104142
v -0.12353218 0.08774713 -0.20672641
v -0.12651157 0.08527799 -0.21476163
v -0.12085260 0.09200994 -0.19949015
v -0.12980242 0.08426563 -0.22301574
v -0.13592558 0.08786387 -0.23902539
v -0.13891098 0.09206686 -0.24645366
v -0.11837380 0.09749300 -0.19310734
v -0.14117569 0.09761447 -0.25273328
v -0.14328889 0.10439855 -0.25804321
v -0.11616341 0.10430564 -0.18796946
v -0.11483338 0.11215464 -0.18394721
v -0.11368844 0.12064643 -0.18150123
v -0.11349865 0.12963496 -0.18060502
v -0.14476328 0.11230331 -0.26202020
v -0.14563830 0.12073519 -0.26423629
v -0.14601716 0.12964396 -0.26513364
v -0.11373590 0.13838773 -0.18153364
v -0.11485174 0.14689547 -0.18390788
v -0.11610335 0.15457276 -0.18786735
v -0.14574943 0.13855916 -0.26425794
v -0.14485361 0.14688994 -0.26192823
v -0.14323018 0.15460817 -0.25794837
v -0.11845714 0.16145722 -0.19312932
v -0.12092483 0.16705368 -0.19934778
v -0.14112619 0.16157493 -0.25276319
v -0.13877768 0.16709898 -0.24644376
v -0.12358978 0.17137834 -0.20675596
v -0.13610920 0.17145415 -0.23907976
v -0.13285985 0.17396276 -0.23109675
v -0.12660503 0.17408918 -0.21468469
v -0.12989775 0.17478939 -0.22287568
vn 0.9335805212427921 0 -0.358367702724501
vn -0.9335805212427921 0 0.358367702724501
usemtl material_0_0
f 1//1 2//1 3//1
f 3//2 2//2 1//2
f 1//1 4//1 2//1
f 2//2 4//2 1//2
f 1//1 3//1 5//1
f 5//2 3//2 1//2
f 6//1 4//1 1//1
f 1//2 4//2 6//2
f 7//1 4//1 6//1
f 6//2 4//2 7//2
f 7//1 8//1 4//1
f 4//2 8//2 7//2
f 9//1 8//1 7//1
f 7//2 8//2 9//2
f 10//1 8//1 9//1
f 9//2 8//2 10//2
f 10//1 11//1 8//1
f 8//2 11//2 10//2
f 10//1 12//1 11//1
f 11//2 12//2 10//2
f 10//1 13//1 12//1
f 12//2 13//2 10//2
f 10//1 14//1 13//1
f 13//2 14//2 10//2
f 15//1 14//1 10//1
f 10//2 14//2 15//2
f 16//1 14//1 15//1
f 15//2 14//2 16//2
f 17//1 14//1 16//1
f 16//2 14//2 17//2
f 17//1 18//1 14//1
f 14//2 18//2 17//2
f 17//1 19//1 18//1
f 18//2 19//2 17//2
f 17//1 20//1 19//1
f 19//2 20//2 17//2
f 17//1 21//1 20//1
f 20//2 21//2 17//2
f 21//1 22//1 20//1
f 20//2 22//2 21//2
f 22//1 23//1 20//1
f 20//2 23//2 22//2
f 23//1 24//1 20//1
f 20//2 24//2 23//2
f 23//1 25//1 24//1
f 24//2 25//2 23//2
f 23//1 26//1 25//1
f 25//2 26//2 23//2
f 26//1 27//1 25//1
f 25//2 27//2 26//2
f 27//1 28//1 25//1
f 25//2 28//2 27//2
f 27//1 29//1 28//1
f 28//2 29//2 27//2
f 29//1 30//1 28//1
f 28//2 30//2 29//2
f 30//1 31//1 28//1
f 28//2 31//2 30//2
f 30//1 32//1 31//1
f 31//2 32//2 30//2
