# SSTK version 0.8.0
# 114
mtllib original_114.mtl
o mesh107/mesh107-geometry#mesh107-geometry
v -0.07778438 0.83121709 0.57170124
v -0.07843510 0.83110151 0.57157783
v -0.08021939 0.82466300 0.58187138
v -0.07583582 0.83728643 0.56159675
v -0.07633780 0.83720123 0.56134742
v -0.07419328 0.84308493 0.55094520
vn -0.10917064813862778 0.858690070605794 0.5007325955317949
vn -0.10860758323285827 0.8604599543913215 0.4978082560114914
vn -0.1106876863420269 0.8533168086612204 0.509508253268266
vn 0.1106876863420269 -0.8533168086612204 -0.509508253268266
vn 0.10860758323285827 -0.8604599543913215 -0.4978082560114914
vn 0.10917064813862778 -0.858690070605794 -0.5007325955317949
vn -0.10650227685713434 0.8674437835467799 0.48600262078541673
vn 0.10650227685713434 -0.8674437835467799 -0.48600262078541673
vn -0.10593086584167656 0.8691650030894472 0.48304332007238643
vn 0.10593086584167656 -0.8691650030894472 -0.48304332007238643
vn -0.1043708385196008 0.8742670111333535 0.4740927349271111
vn 0.1043708385196008 -0.8742670111333535 -0.4740927349271111
usemtl material_0_0
f 1//1 2//2 3//3
f 3//4 2//5 1//6
f 4//7 2//2 1//1
f 1//6 2//5 4//8
f 4//7 5//9 2//2
f 2//5 5//10 4//8
f 6//11 5//9 4//7
f 4//8 5//10 6//12
