# SSTK version 0.8.0
# 59
mtllib original_59.mtl
o Group46/mesh55/mesh55-geometry#mesh55-geometry
v 0.17637931 0.58013831 0.13946869
v 0.17329487 0.35955718 0.16826238
v 0.15534711 0.58000568 0.21762244
v 0.17434323 0.35975157 0.10891212
v 0.15539429 0.35976428 0.21747623
v 0.16326498 0.58002353 0.07087933
v 0.13287387 0.58020701 0.24898674
v 0.15217831 0.35986753 0.04915706
v 0.12311921 0.35961784 0.25870053
v 0.12175620 0.58016046 0.01192823
v 0.08029170 0.58010989 0.28799652
v 0.10973132 0.35971315 0.00173240
v 0.07303763 0.35977068 0.29113473
v 0.06370810 0.58014706 -0.02316201
v 0.01072738 0.46991921 0.30428564
v 0.05698194 0.35973321 -0.02526460
v 0.01091754 0.41485094 0.30417178
v 0.01087469 0.52503854 0.30429202
v 0.00497193 0.46989157 -0.03262250
v 0.01092264 0.35980331 0.30425032
v 0.01082162 0.58032426 0.30425454
v 0.00490741 0.52508003 -0.03249542
v 0.00489484 0.41488990 -0.03245629
v 0.00500414 0.58010178 -0.03257032
v 0.00488648 0.35984760 -0.03241800
vn -0.9994971183316146 -0.008436003560614315 -0.030567045829190863
vn -0.9779727393980792 -0.0028740007305165668 -0.20871286762923302
vn -0.9166033155720775 -0.006915002438679942 -0.39973809503667224
vn 0.9166033155720775 0.006915002438679942 0.39973809503667224
vn 0.9779727393980792 0.0028740007305165668 0.20871286762923302
vn 0.9994971183316146 0.008436003560614315 0.030567045829190863
vn -0.9848592643624152 0.0028950009358527044 0.17333161387670734
vn 0.9848592643624152 -0.0028950009358527044 -0.17333161387670734
vn -0.8552494346085339 0.0024310004293752567 -0.5182108594372521
vn 0.8552494346085339 -0.0024310004293752567 0.5182108594372521
vn -0.927339931815545 -0.006464998333339641 0.3741642081451543
vn 0.927339931815545 0.006464998333339641 -0.3741642081451543
vn -0.7398053729324635 -0.0008240004090684007 -0.6728204301324273
vn 0.7398053729324635 0.0008240004090684007 0.6728204301324273
vn -0.8445293526259317 0.002515998670604758 0.5355033541481458
vn 0.8445293526259317 -0.002515998670604758 -0.5355033541481458
vn -0.6497746599781254 0.0010009994718214283 -0.7601262324445651
vn 0.6497746599781254 -0.0010009994718214283 0.7601262324445651
vn -0.7031376394618349 -0.005626998104171498 0.7110315020196886
vn 0.7031376394618349 0.005626998104171498 -0.7110315020196886
vn -0.3696098854726907 -0.0023000005995899475 -0.9291841811815924
vn 0.3696098854726907 0.0023000005995899475 0.9291841811815924
vn -0.5784943380987085 0.001388999766849825 0.8156852159181168
vn 0.5784943380987085 -0.001388999766849825 -0.8156852159181168
vn -0.2971712501830597 -0.0004110000163191805 -0.9548241090083681
vn 0.2971712501830597 0.0004110000163191805 0.9548241090083681
vn -0.2916838892853991 -0.0023199992466205427 0.9565119582811491
vn 0.2916838892853991 0.0023199992466205427 -0.9565119582811491
vn -0.2175863556431712 -0.0023479999994909175 -0.9760382496264816
vn 0.2175863556431712 0.0023479999994909175 0.9760382496264816
vn -0.22245670662745748 -0.00007999997304006107 0.9749425661424727
vn 0.22245670662745748 0.00007999997304006107 -0.9749425661424727
vn -0.2060910579011036 0 -0.9785328179745452
vn 0.2060910579011036 0 0.9785328179745452
vn -0.22862887111133903 0 -0.973513656449849
vn 0.22862887111133903 0 0.973513656449849
vn -0.14894804170753753 -0.0017780005730296802 0.9888434252122285
vn 0.14894804170753753 0.0017780005730296802 -0.9888434252122285
vn -0.15916333464218188 0 0.9872522640670828
vn 0.15916333464218188 0 -0.9872522640670828
vn -0.138279333574753 0 0.990393268306142
vn 0.138279333574753 0 -0.990393268306142
usemtl material_0_0
f 1//1 2//2 3//3
f 3//4 2//5 1//6
f 4//7 2//2 1//1
f 1//6 2//5 4//8
f 2//2 5//9 3//3
f 3//4 5//10 2//5
f 6//11 4//7 1//1
f 1//6 4//8 6//12
f 5//9 7//13 3//3
f 3//4 7//14 5//10
f 8//15 4//7 6//11
f 6//12 4//8 8//16
f 5//9 9//17 7//13
f 7//14 9//18 5//10
f 10//19 8//15 6//11
f 6//12 8//16 10//20
f 7//13 9//17 11//21
f 11//22 9//18 7//14
f 12//23 8//15 10//19
f 10//20 8//16 12//24
f 11//21 9//17 13//25
f 13//26 9//18 11//22
f 14//27 12//23 10//19
f 10//20 12//24 14//28
f 11//21 13//25 15//29
f 15//30 13//26 11//22
f 14//27 16//31 12//23
f 12//24 16//32 14//28
f 15//29 13//25 17//33
f 17//34 13//26 15//30
f 11//21 15//29 18//35
f 18//36 15//30 11//22
f 14//27 19//37 16//31
f 16//32 19//38 14//28
f 17//33 13//25 20//33
f 20//34 13//26 17//34
f 11//21 18//35 21//35
f 21//36 18//36 11//22
f 14//27 22//39 19//37
f 19//38 22//40 14//28
f 19//37 23//41 16//31
f 16//32 23//42 19//38
f 24//39 22//39 14//27
f 14//28 22//40 24//40
f 23//41 25//41 16//31
f 16//32 25//42 23//42
