# SSTK version 0.8.0
# 52
mtllib original_52.mtl
o Group44/mesh49/mesh49-geometry#mesh49-geometry
v -0.13634489 0.58011956 0.22278912
v -0.11279473 0.58022814 0.25322634
v -0.13649549 0.35957213 0.22252027
v -0.10289109 0.35985819 0.26278493
v -0.15230024 0.58010079 0.18732757
v -0.05892752 0.58012695 0.29037276
v -0.15610686 0.35981194 0.17406869
v -0.05179838 0.35970728 0.29326320
v -0.16013091 0.58015560 0.14536951
v 0.01096622 0.46996380 0.30424488
v -0.15910593 0.35986261 0.11476240
v 0.01082867 0.52508908 0.30413784
v 0.01092010 0.41488158 0.30432017
v -0.14937164 0.58007966 0.07615968
v 0.01096237 0.58000702 0.30428839
v 0.01083721 0.35976790 0.30437196
v -0.13921085 0.35958066 0.05412463
v -0.11017268 0.58008068 0.01581901
v -0.09852144 0.35958060 0.00526273
v -0.05338441 0.58026292 -0.02119681
v -0.04660274 0.35968988 -0.02353369
v 0.00501475 0.46999745 -0.03251153
v 0.00502554 0.41486979 -0.03238944
v 0.00497586 0.52496837 -0.03270006
v 0.00495320 0.35972550 -0.03248383
v 0.00492548 0.58012870 -0.03265110
vn 0.8571671967198786 0 -0.5150382479655128
vn 0.7158736091053632 -0.0008240004090684091 -0.6982294012785392
vn 0.8571615499214248 0.003645998297820289 -0.5150347406075759
vn -0.8571615499214248 -0.003645998297820289 0.5150347406075759
vn -0.7158736091053632 0.0008240004090684091 0.6982294012785392
vn -0.8571671967198786 0 0.5150382479655128
vn 0.6228508118689069 0.0010009994718214205 -0.7823399926849585
vn -0.6228508118689069 -0.0010009994718214205 0.7823399926849585
vn 0.94551495351297 0.0006000000433384617 -0.32557812070732595
vn -0.94551495351297 -0.0006000000433384617 0.32557812070732595
vn 0.33695666884982256 -0.002300000599589952 -0.9415173462633988
vn -0.33695666884982256 0.002300000599589952 0.9415173462633988
vn 0.9787448052715044 0.004629999995219435 -0.20502967895914292
vn -0.9787448052715044 -0.004629999995219435 0.20502967895914292
vn 0.2636673406429406 -0.0004110000163191839 -0.9646135830254859
vn -0.2636673406429406 0.0004110000163191839 0.9646135830254859
vn 0.9996189673011315 -0.00330000000816751 -0.027404930428038543
vn -0.9996189673011315 0.00330000000816751 0.027404930428038543
vn 0.18339056423994574 -0.00234799999949092 -0.9830373277977581
vn -0.18339056423994574 0.00234799999949092 0.9830373277977581
vn 0.9903085007955016 0.0028950009358526922 0.13885493229175347
vn -0.9903085007955016 -0.0028950009358526922 -0.13885493229175347
vn 0.19451445993729222 0 -0.9808996507672451
vn -0.19451445993729222 0 0.9808996507672451
vn 0.17181520994283267 0 -0.9851291964165414
vn -0.17181520994283267 0 0.9851291964165414
vn 0.939833163933325 -0.006464998333339652 0.3415725805266367
vn -0.939833163933325 0.006464998333339652 -0.3415725805266367
vn 0.8627036857050027 0.0025159986706047473 0.505703490616481
vn -0.8627036857050027 -0.0025159986706047473 -0.505703490616481
vn 0.7275239485701284 -0.005626998104171506 0.6860592111102837
vn -0.7275239485701284 0.005626998104171506 -0.6860592111102837
vn 0.6066089384815457 0.0013889997668498177 0.794999161278765
vn -0.6066089384815457 -0.0013889997668498177 -0.794999161278765
vn 0.3248879892750171 -0.002319999246620546 0.9457496561079639
vn -0.3248879892750171 0.002319999246620546 -0.9457496561079639
vn 0.25634619688457616 -0.00007999997304006395 0.9665850303738511
vn -0.25634619688457616 0.00007999997304006395 -0.9665850303738511
vn 0.18336744444245465 -0.0017780005730296821 0.9830428368248281
vn -0.18336744444245465 0.0017780005730296821 -0.9830428368248281
vn 0.17275932414235123 0 0.9849640683405045
vn -0.17275932414235123 0 -0.9849640683405045
vn 0.19352098377351298 0 0.9810961363899725
vn -0.19352098377351298 0 -0.9810961363899725
usemtl material_0_0
f 1//1 2//2 3//3
f 3//4 2//5 1//6
f 3//3 2//2 4//7
f 4//8 2//5 3//4
f 5//9 1//1 3//3
f 3//4 1//6 5//10
f 6//11 4//7 2//2
f 2//5 4//8 6//12
f 7//13 5//9 3//3
f 3//4 5//10 7//14
f 6//11 8//15 4//7
f 4//8 8//16 6//12
f 9//17 5//9 7//13
f 7//14 5//10 9//18
f 6//11 10//19 8//15
f 8//16 10//20 6//12
f 11//21 9//17 7//13
f 7//14 9//18 11//22
f 6//11 12//23 10//19
f 10//20 12//24 6//12
f 10//19 13//25 8//15
f 8//16 13//26 10//20
f 14//27 9//17 11//21
f 11//22 9//18 14//28
f 15//23 12//23 6//11
f 6//12 12//24 15//24
f 13//25 16//25 8//15
f 8//16 16//26 13//26
f 17//29 14//27 11//21
f 11//22 14//28 17//30
f 18//31 14//27 17//29
f 17//30 14//28 18//32
f 19//33 18//31 17//29
f 17//30 18//32 19//34
f 18//31 19//33 20//35
f 20//36 19//34 18//32
f 20//35 19//33 21//37
f 21//38 19//34 20//36
f 20//35 21//37 22//39
f 22//40 21//38 20//36
f 22//39 21//37 23//41
f 23//42 21//38 22//40
f 20//35 22//39 24//43
f 24//44 22//40 20//36
f 23//41 21//37 25//41
f 25//42 21//38 23//42
f 20//35 24//43 26//43
f 26//44 24//44 20//36
