# SSTK version 0.8.0
# 57
mtllib original_57.mtl
o mesh53/mesh53-geometry#mesh53-geometry
v 0.38079647 0.21439044 0.14751000
v 0.37605346 0.21416376 0.07452237
v 0.35826145 0.21430602 0.14685079
v 0.36214288 0.21438174 0.02315002
v 0.37128493 0.21429576 0.22013742
v 0.35349360 0.21422096 0.07747995
v 0.35428525 0.21428522 0.27056360
v 0.33552923 0.21428594 0.01139802
v 0.34911110 0.21434927 0.21590064
v 0.35692783 0.21423510 0.00394195
v 0.32709018 0.21429575 0.28066547
v 0.30642004 0.21433621 -0.04760423
v 0.34795969 0.21415961 0.28936530
v 0.32449940 0.21432284 -0.06156287
v 0.29443600 0.21439184 0.33773895
v 0.26922725 0.21427253 -0.09767399
v 0.31149479 0.21432666 0.35266490
v 0.27994472 0.21416562 -0.11955992
v 0.25416999 0.21435808 0.38517708
v 0.22698132 0.21440926 -0.13791589
v 0.26352610 0.21426736 0.40779396
v 0.22475666 0.21422237 -0.16753787
v 0.20932586 0.21445966 0.42261136
v 0.18273379 0.21429564 -0.16794845
v 0.20556104 0.21421362 0.45246934
v 0.16133333 0.21426528 -0.20412944
v 0.16325476 0.21432850 0.44999254
v 0.13813753 0.21420426 -0.18960041
v 0.13991691 0.21422768 0.48475718
v 0.09211804 0.21431890 -0.22757500
v 0.11773441 0.21428610 0.46876131
v 0.09640031 0.21425104 -0.20311907
v 0.06917277 0.21428863 0.50383711
v 0.05611469 0.21427024 -0.21139055
v 0.07498505 0.21415499 0.47990366
v 0.01981122 0.21429641 -0.23703551
v 0.03421437 0.21438329 0.48532393
v 0.01888681 0.21440839 -0.21449582
v -0.00384492 0.21438603 0.50877455
v -0.01838777 0.21421104 -0.21354668
v -0.00300546 0.21432689 0.48599618
v -0.05328022 0.21434424 -0.23195431
v -0.04025514 0.21429418 0.48300355
v -0.05890426 0.21421137 -0.20805491
v -0.07631214 0.21433326 0.49926673
v -0.10175284 0.21426099 -0.19701174
v -0.08020970 0.21440402 0.47499353
v -0.12392149 0.21437521 -0.21296878
v -0.12230613 0.21438172 0.46131495
v -0.14744371 0.21445324 -0.17831631
v -0.14562062 0.21438229 0.47582031
v -0.18948885 0.21426795 -0.18062934
v -0.16672444 0.21417258 0.43976515
v -0.19345203 0.21431872 -0.15103624
v -0.20888654 0.21424912 0.43952363
v -0.24734541 0.21423499 -0.13606992
v -0.21083859 0.21442708 0.40958332
v -0.23817042 0.21423018 -0.11340032
v -0.26391580 0.21417715 0.39137119
v -0.29572697 0.21423531 -0.08100699
v -0.25323949 0.21422808 0.36931789
v -0.27853754 0.21431851 -0.06580435
v -0.30850391 0.21430851 0.33335793
v -0.33196353 0.21427418 -0.01756262
v -0.29065909 0.21441344 0.31928502
v -0.31107528 0.21430954 -0.00897387
v -0.34094438 0.21429917 0.26774356
v -0.33843105 0.21421035 0.00130226
v -0.31959232 0.21426016 0.26036362
v -0.33308637 0.21430461 0.05581581
v -0.34624645 0.21440572 0.24845249
v -0.34229087 0.21432368 0.12485402
v -0.33743669 0.21430368 0.19440977
v -0.35528052 0.21429959 0.05176184
v -0.36478801 0.21440357 0.12403140
v -0.35993092 0.21413784 0.19710290
vn 0 1 0
vn 0 -1 0
usemtl material_0_0
f 1//1 2//1 3//1
f 3//2 2//2 1//2
f 2//1 4//1 3//1
f 3//2 4//2 2//2
f 1//1 3//1 5//1
f 5//2 3//2 1//2
f 4//1 6//1 3//1
f 3//2 6//2 4//2
f 5//1 3//1 7//1
f 7//2 3//2 5//2
f 4//1 8//1 6//1
f 6//2 8//2 4//2
f 3//1 9//1 7//1
f 7//2 9//2 3//2
f 4//1 10//1 8//1
f 8//2 10//2 4//2
f 7//1 9//1 11//1
f 11//2 9//2 7//2
f 10//1 12//1 8//1
f 8//2 12//2 10//2
f 7//1 11//1 13//1
f 13//2 11//2 7//2
f 10//1 14//1 12//1
f 12//2 14//2 10//2
f 13//1 11//1 15//1
f 15//2 11//2 13//2
f 14//1 16//1 12//1
f 12//2 16//2 14//2
f 13//1 15//1 17//1
f 17//2 15//2 13//2
f 14//1 18//1 16//1
f 16//2 18//2 14//2
f 17//1 15//1 19//1
f 19//2 15//2 17//2
f 18//1 20//1 16//1
f 16//2 20//2 18//2
f 17//1 19//1 21//1
f 21//2 19//2 17//2
f 18//1 22//1 20//1
f 20//2 22//2 18//2
f 21//1 19//1 23//1
f 23//2 19//2 21//2
f 20//1 22//1 24//1
f 24//2 22//2 20//2
f 21//1 23//1 25//1
f 25//2 23//2 21//2
f 22//1 26//1 24//1
f 24//2 26//2 22//2
f 23//1 27//1 25//1
f 25//2 27//2 23//2
f 24//1 26//1 28//1
f 28//2 26//2 24//2
f 25//1 27//1 29//1
f 29//2 27//2 25//2
f 26//1 30//1 28//1
f 28//2 30//2 26//2
f 27//1 31//1 29//1
f 29//2 31//2 27//2
f 28//1 30//1 32//1
f 32//2 30//2 28//2
f 29//1 31//1 33//1
f 33//2 31//2 29//2
f 32//1 30//1 34//1
f 34//2 30//2 32//2
f 31//1 35//1 33//1
f 33//2 35//2 31//2
f 30//1 36//1 34//1
f 34//2 36//2 30//2
f 35//1 37//1 33//1
f 33//2 37//2 35//2
f 34//1 36//1 38//1
f 38//2 36//2 34//2
f 33//1 37//1 39//1
f 39//2 37//2 33//2
f 36//1 40//1 38//1
f 38//2 40//2 36//2
f 37//1 41//1 39//1
f 39//2 41//2 37//2
f 36//1 42//1 40//1
f 40//2 42//2 36//2
f 41//1 43//1 39//1
f 39//2 43//2 41//2
f 40//1 42//1 44//1
f 44//2 42//2 40//2
f 39//1 43//1 45//1
f 45//2 43//2 39//2
f 42//1 46//1 44//1
f 44//2 46//2 42//2
f 43//1 47//1 45//1
f 45//2 47//2 43//2
f 42//1 48//1 46//1
f 46//2 48//2 42//2
f 45//1 47//1 49//1
f 49//2 47//2 45//2
f 46//1 48//1 50//1
f 50//2 48//2 46//2
f 45//1 49//1 51//1
f 51//2 49//2 45//2
f 48//1 52//1 50//1
f 50//2 52//2 48//2
f 49//1 53//1 51//1
f 51//2 53//2 49//2
f 50//1 52//1 54//1
f 54//2 52//2 50//2
f 51//1 53//1 55//1
f 55//2 53//2 51//2
f 52//1 56//1 54//1
f 54//2 56//2 52//2
f 53//1 57//1 55//1
f 55//2 57//2 53//2
f 54//1 56//1 58//1
f 58//2 56//2 54//2
f 55//1 57//1 59//1
f 59//2 57//2 55//2
f 58//1 56//1 60//1
f 60//2 56//2 58//2
f 57//1 61//1 59//1
f 59//2 61//2 57//2
f 58//1 60//1 62//1
f 62//2 60//2 58//2
f 61//1 63//1 59//1
f 59//2 63//2 61//2
f 62//1 60//1 64//1
f 64//2 60//2 62//2
f 61//1 65//1 63//1
f 63//2 65//2 61//2
f 62//1 64//1 66//1
f 66//2 64//2 62//2
f 65//1 67//1 63//1
f 63//2 67//2 65//2
f 66//1 64//1 68//1
f 68//2 64//2 66//2
f 65//1 69//1 67//1
f 67//2 69//2 65//2
f 66//1 68//1 70//1
f 70//2 68//2 66//2
f 69//1 71//1 67//1
f 67//2 71//2 69//2
f 70//1 68//1 72//1
f 72//2 68//2 70//2
f 69//1 73//1 71//1
f 71//2 73//2 69//2
f 68//1 74//1 72//1
f 72//2 74//2 68//2
f 73//1 72//1 71//1
f 71//2 72//2 73//2
f 72//1 74//1 75//1
f 75//2 74//2 72//2
f 72//1 76//1 71//1
f 71//2 76//2 72//2
f 72//1 75//1 76//1
f 76//2 75//2 72//2
