# SSTK version 0.8.0
# 50
mtllib original_50.mtl
o Group42/mesh47/mesh47-geometry#mesh47-geometry
v -0.03352586 0.59151466 0.09830486
v -0.04100645 0.60272461 0.10869168
v -0.04077834 0.59145090 0.10873358
v -0.03031803 0.60277641 0.09499865
v -0.04603810 0.59142467 0.12056079
v -0.01589584 0.59150126 0.08530000
v -0.04695545 0.60275522 0.12521528
v -0.01366746 0.60257814 0.08436847
v -0.04791851 0.59143971 0.13462183
v 0.00701910 0.59702680 0.08000472
v -0.04714231 0.60289319 0.14478172
v 0.00696295 0.59418273 0.07997111
v 0.00696734 0.59991838 0.07991946
v -0.04357817 0.59152955 0.15731863
v 0.00704798 0.59134416 0.07993216
v 0.00694666 0.60276448 0.08000845
v -0.03986782 0.60277827 0.16475122
v -0.02989284 0.59162713 0.17721073
v -0.02585661 0.60262987 0.18054582
v -0.01051518 0.59141594 0.18856624
v -0.00830087 0.60277025 0.18941922
v 0.00888784 0.59710412 0.19175526
v 0.00894872 0.59996194 0.19187488
v 0.00893383 0.59439763 0.19197739
v 0.00876942 0.60265098 0.19172743
v 0.00890163 0.59145624 0.19179576
vn 0.7398596811713097 0.005319000451325485 0.6727401878966993
vn 0.8743759931144527 -0.02359800212876385 0.484674898215954
vn 0.8746196092600536 0 0.48480979682530256
vn -0.8746196092600536 0 -0.48480979682530256
vn -0.8743759931144527 0.02359800212876385 -0.484674898215954
vn -0.7398596811713097 -0.005319000451325485 -0.6727401878966993
vn 0.6497596907099739 -0.0065069994730303305 0.7601118360388406
vn -0.6497596907099739 0.0065069994730303305 -0.7601118360388406
vn 0.9562913295784521 -0.003879999081460635 0.2923898742778285
vn -0.9562913295784521 0.003879999081460635 -0.2923898742778285
vn 0.36948449577818204 0.014876994948346548 0.9291177979141554
vn -0.36948449577818204 -0.014876994948346548 -0.9291177979141554
vn 0.9848569695572668 -0.029940991803864118 0.1707638326001075
vn -0.9848569695572668 0.029940991803864118 -0.1707638326001075
vn 0.297151358251551 0.0026600007332922377 0.9548266830610451
vn -0.297151358251551 -0.0026600007332922377 -0.9548266830610451
vn 0.9997467170106632 0.021314989575459284 -0.007223091152614718
vn -0.9997467170106632 -0.021314989575459284 0.007223091152614718
vn 0.21756135073482027 0.015200993802966948 0.975928270137638
vn -0.21756135073482027 -0.015200993802966948 -0.975928270137638
vn 0.9846957372930929 -0.0188429919545153 -0.17326063202878517
vn -0.9846957372930929 0.0188429919545153 0.17326063202878517
vn 0.22862887111133903 0 0.973513656449849
vn -0.22862887111133903 0 -0.973513656449849
vn 0.2060910579011036 0 0.9785328179745452
vn -0.2060910579011036 0 -0.9785328179745452
vn 0.9265465257595351 0.041766003032525006 -0.37385443235786625
vn -0.9265465257595351 -0.041766003032525006 0.37385443235786625
vn 0.8443932537777114 -0.016384998940300464 -0.5354732157488513
vn -0.8443932537777114 0.016384998940300464 0.5354732157488513
vn 0.7025821892962443 0.036359007061392216 -0.7106731245018388
vn -0.7025821892962443 -0.036359007061392216 0.7106731245018388
vn 0.578415590142441 -0.00902000440583161 -0.8156923713022516
vn -0.578415590142441 0.00902000440583161 0.8156923713022516
vn 0.2915320867909244 0.015003996275137928 -0.9564433712808639
vn -0.2915320867909244 -0.015003996275137928 0.9564433712808639
vn 0.22243657894865548 0.0005149997258040014 -0.974947025802377
vn -0.22243657894865548 -0.0005149997258040014 0.974947025802377
vn 0.14893802862443564 0.01151499487750341 -0.9887794842746475
vn -0.14893802862443564 -0.01151499487750341 0.9887794842746475
vn 0.138279333574753 0 -0.990393268306142
vn -0.138279333574753 0 0.990393268306142
vn 0.15916333464218188 0 -0.9872522640670828
vn -0.15916333464218188 0 0.9872522640670828
usemtl material_0_0
f 1//1 2//2 3//3
f 3//4 2//5 1//6
f 4//7 2//2 1//1
f 1//6 2//5 4//8
f 2//2 5//9 3//3
f 3//4 5//10 2//5
f 4//7 1//1 6//11
f 6//12 1//6 4//8
f 2//2 7//13 5//9
f 5//10 7//14 2//5
f 4//7 6//11 8//15
f 8//16 6//12 4//8
f 5//9 7//13 9//17
f 9//18 7//14 5//10
f 8//15 6//11 10//19
f 10//20 6//12 8//16
f 7//13 11//21 9//17
f 9//18 11//22 7//14
f 10//19 6//11 12//23
f 12//24 6//12 10//20
f 8//15 10//19 13//25
f 13//26 10//20 8//16
f 9//17 11//21 14//27
f 14//28 11//22 9//18
f 12//23 6//11 15//23
f 15//24 6//12 12//24
f 8//15 13//25 16//25
f 16//26 13//26 8//16
f 11//21 17//29 14//27
f 14//28 17//30 11//22
f 14//27 17//29 18//31
f 18//32 17//30 14//28
f 17//29 19//33 18//31
f 18//32 19//34 17//30
f 19//33 20//35 18//31
f 18//32 20//36 19//34
f 21//37 20//35 19//33
f 19//34 20//36 21//38
f 21//37 22//39 20//35
f 20//36 22//40 21//38
f 21//37 23//41 22//39
f 22//40 23//42 21//38
f 22//39 24//43 20//35
f 20//36 24//44 22//40
f 25//41 23//41 21//37
f 21//38 23//42 25//42
f 24//43 26//43 20//35
f 20//36 26//44 24//44
