# SSTK version 0.8.0
# 16
mtllib original_16.mtl
o Group10/mesh14/mesh14-geometry#mesh14-geometry
v 0.23984311 0.09742702 -0.12973878
v 0.31980675 0.11266550 -0.00579940
v 0.23295908 0.11259513 -0.12219341
v 0.32896647 0.09730170 -0.01002999
v 0.31681783 0.12958098 -0.00448766
v 0.11269804 0.10724942 -0.19285009
v 0.24984106 0.08733292 -0.14140023
v 0.35285686 0.10709102 0.12986508
v 0.34705484 0.12946536 0.12992428
v 0.23091059 0.12960409 -0.11980413
v 0.11084100 0.12958812 -0.18729788
v 0.11805454 0.08983667 -0.20960874
v 0.34282369 0.08756489 -0.01641276
v 0.37050328 0.08989522 0.12956854
v 0.12443475 0.08441823 -0.23019515
v 0.26052572 0.08442988 -0.15385766
v 0.39225144 0.08433939 0.12908986
v 0.35784499 0.08437143 -0.02303436
v 0.27143465 0.08754783 -0.16627159
v 0.12971992 0.08743206 -0.24586509
v 0.37292160 0.08750810 -0.03002834
v 0.28148773 0.09732594 -0.17754810
v 0.40865284 0.08744601 0.12887566
v 0.13402059 0.09722388 -0.26042642
v 0.42408991 0.09738948 0.12869646
v 0.38674344 0.09733128 -0.03615018
v 0.28820495 0.11263652 -0.18531122
v 0.13728738 0.11278496 -0.27038899
v 0.43423059 0.11273239 0.12856336
v 0.39604813 0.11277590 -0.04049397
v 0.13816965 0.12943079 -0.27336582
v 0.29034747 0.12959713 -0.18774753
v 0.43747209 0.12953029 0.12838716
v 0.39891988 0.12949456 -0.04185766
vn -0.48297872949802084 -0.6878818999386423 0.5418025826712914
vn -0.8380347498772804 -0.3909690674073734 0.38057975028728536
vn -0.6247037454951511 -0.3286060290748981 0.7083525308911918
vn 0.6247037454951511 0.3286060290748981 -0.7083525308911918
vn 0.8380347498772804 0.3909690674073734 -0.38057975028728536
vn 0.48297872949802084 0.6878818999386423 -0.5418025826712914
vn -0.617286581874035 -0.7361191335360714 0.2776434711646822
vn 0.617286581874035 0.7361191335360714 -0.2776434711646822
vn -0.8608877393538568 -0.1898939314846676 0.47203029035804756
vn 0.8608877393538568 0.1898939314846676 -0.47203029035804756
vn -0.42539771885605465 -0.5124030025217912 0.7459758332538117
vn 0.42539771885605465 0.5124030025217912 -0.7459758332538117
vn -0.25969704696492024 -0.9245908737129149 0.2787277525552287
vn 0.25969704696492024 0.9245908737129149 -0.2787277525552287
vn -0.8366299305712436 -0.5124029169043941 0.19363266775062635
vn 0.8366299305712436 0.5124029169043941 -0.19363266775062635
vn -0.9509183103825467 -0.21888397706610407 0.21873310577717228
vn 0.9509183103825467 0.21888397706610407 -0.21873310577717228
vn -0.6486238985747623 -0.19041097004902285 0.7369061681670651
vn 0.6486238985747623 0.19041097004902285 -0.7369061681670651
vn -0.4822150655663292 -0.21888397273789303 0.8482679040370077
vn 0.4822150655663292 0.21888397273789303 -0.8482679040370077
vn -0.25824152419367935 -0.855230890187933 0.4493233130502814
vn 0.25824152419367935 0.855230890187933 -0.4493233130502814
vn -0.2912327077713201 -0.9475500297549664 0.13165276691185454
vn 0.2912327077713201 0.9475500297549664 -0.13165276691185454
vn -0.5045044547318849 -0.8552305533153367 0.11855781640881681
vn 0.5045044547318849 0.8552305533153367 -0.11855781640881681
vn -0.010087925987034067 -0.9998500781137901 0.01407320308698458
vn 0.010087925987034067 0.9998500781137901 -0.01407320308698458
vn -0.030765916774147892 -0.9992641061353438 0.02290643041983276
vn 0.030765916774147892 0.9992641061353438 -0.02290643041983276
vn -0.016375261832817508 -0.999850073336506 0.0056286453868014666
vn 0.016375261832817508 0.999850073336506 -0.0056286453868014666
vn 0.030765916774147906 -0.9992641061353438 -0.022906430419831873
vn -0.030765916774147906 0.9992641061353438 0.022906430419831873
vn 0.20388573277845426 -0.9512149371889017 -0.23156154956750974
vn -0.20388573277845426 0.9512149371889017 0.23156154956750974
vn 0.21461493128899164 -0.8992150105095758 -0.38125161788782636
vn -0.21461493128899164 0.8992150105095758 0.38125161788782636
vn 0.3621228858301749 -0.9182485832520568 -0.1602702558605823
vn -0.3621228858301749 0.9182485832520568 0.1602702558605823
vn 0.429875580044077 -0.7594637376873462 -0.4882845654121521
vn -0.429875580044077 0.7594637376873462 0.4882845654121521
vn 0.36758070475728055 -0.9262869814029364 -0.08292679647482447
vn -0.36758070475728055 0.9262869814029364 0.08292679647482447
vn 0.37066374269145647 -0.6550061320289445 -0.6584643930072774
vn -0.37066374269145647 0.6550061320289445 0.6584643930072774
vn 0.6423026271626097 -0.7526286939338197 -0.14490474183919044
vn -0.6423026271626097 0.7526286939338197 0.14490474183919044
vn 0.6802522265833039 -0.6628740411167523 -0.3128177006532775
vn -0.6802522265833039 0.6628740411167523 0.3128177006532775
vn 0.5805098598154236 -0.4070331341233421 -0.7052179311268304
vn -0.5805098598154236 0.4070331341233421 0.7052179311268304
vn 0.45494652066319025 -0.37397503135313337 -0.8081870694714685
vn -0.45494652066319025 0.37397503135313337 0.8081870694714685
vn 0.878693404817303 -0.4342821209375991 -0.19823455744273283
vn -0.878693404817303 0.4342821209375991 0.19823455744273283
vn 0.8613920892182823 -0.3180320008787226 -0.39605468694264867
vn -0.8613920892182823 0.3180320008787226 0.39605468694264867
vn 0.48192520746069906 -0.18658702995711024 -0.8561152811775683
vn -0.48192520746069906 0.18658702995711024 0.8561152811775683
vn 0.6990602003557392 -0.1898940535325657 -0.6893874706662173
vn -0.6990602003557392 0.1898940535325657 0.6893874706662173
vn 0.9583529744386424 -0.18658706206091968 -0.2162055611127545
vn -0.9583529744386424 0.18658706206091968 0.2162055611127545
vn 0.8919489769591283 -0.19041102526088047 -0.41008616650731405
vn -0.8919489769591283 0.19041102526088047 0.41008616650731405
usemtl material_0_0
f 1//1 2//2 3//3
f 3//4 2//5 1//6
f 1//1 4//7 2//2
f 2//5 4//8 1//6
f 3//3 2//2 5//9
f 5//10 2//5 3//4
f 3//3 6//11 1//1
f 1//6 6//12 3//4
f 4//7 1//1 7//13
f 7//14 1//6 4//8
f 4//7 8//15 2//2
f 2//5 8//16 4//8
f 2//2 9//17 5//9
f 5//10 9//18 2//5
f 3//3 5//9 10//19
f 10//20 5//10 3//4
f 11//21 6//11 3//3
f 3//4 6//12 11//22
f 1//1 6//11 12//23
f 12//24 6//12 1//6
f 7//13 1//1 12//23
f 12//24 1//6 7//14
f 13//25 4//7 7//13
f 7//14 4//8 13//26
f 14//27 8//15 4//7
f 4//8 8//16 14//28
f 2//2 8//15 9//17
f 9//18 8//16 2//5
f 11//21 3//3 10//19
f 10//20 3//4 11//22
f 7//13 12//23 15//29
f 15//30 12//24 7//14
f 14//27 4//7 13//25
f 13//26 4//8 14//28
f 13//25 7//13 16//31
f 16//32 7//14 13//26
f 16//31 7//13 15//29
f 15//30 7//14 16//32
f 17//33 14//27 13//25
f 13//26 14//28 17//34
f 18//35 13//25 16//31
f 16//32 13//26 18//36
f 19//37 16//31 15//29
f 15//30 16//32 19//38
f 17//33 13//25 18//35
f 18//36 13//26 17//34
f 18//35 16//31 19//37
f 19//38 16//32 18//36
f 19//37 15//29 20//39
f 20//40 15//30 19//38
f 17//33 18//35 21//41
f 21//42 18//36 17//34
f 21//41 18//35 19//37
f 19//38 18//36 21//42
f 22//43 19//37 20//39
f 20//40 19//38 22//44
f 23//45 17//33 21//41
f 21//42 17//34 23//46
f 21//41 19//37 22//43
f 22//44 19//38 21//42
f 22//43 20//39 24//47
f 24//48 20//40 22//44
f 25//49 23//45 21//41
f 21//42 23//46 25//50
f 26//51 21//41 22//43
f 22//44 21//42 26//52
f 27//53 22//43 24//47
f 24//48 22//44 27//54
f 25//49 21//41 26//51
f 26//52 21//42 25//50
f 27//53 26//51 22//43
f 22//44 26//52 27//54
f 27//53 24//47 28//55
f 28//56 24//48 27//54
f 26//51 29//57 25//49
f 25//50 29//58 26//52
f 27//53 30//59 26//51
f 26//52 30//60 27//54
f 31//61 27//53 28//55
f 28//56 27//54 31//62
f 30//59 29//57 26//51
f 26//52 29//58 30//60
f 32//63 30//59 27//53
f 27//54 30//60 32//64
f 32//63 27//53 31//61
f 31//62 27//54 32//64
f 30//59 33//65 29//57
f 29//58 33//66 30//60
f 32//63 34//67 30//59
f 30//60 34//68 32//64
f 34//67 33//65 30//59
f 30//60 33//66 34//68
