# SSTK version 0.8.0
# 118
mtllib original_118.mtl
o mesh110/mesh110-geometry#mesh110-geometry
v -0.10237415 0.81064069 0.56915694
v -0.10216271 0.79777474 0.56075855
v -0.10330159 0.80625491 0.56609310
v -0.10060548 0.81431929 0.57218315
v -0.10332140 0.80200779 0.56319437
v -0.10026759 0.79333841 0.55850908
v -0.09723882 0.78950475 0.55645123
v -0.09770331 0.81781742 0.57483659
v -0.09361346 0.78631151 0.55478915
v -0.08937659 0.78350227 0.55388683
v -0.09407354 0.82047950 0.57756825
v -0.08975315 0.82270234 0.57968201
v -0.08497934 0.82369290 0.58140025
v -0.07989707 0.82434253 0.58259244
v -0.08474859 0.78138124 0.55344042
v -0.07941250 0.78014499 0.55350474
v -0.07442201 0.77981342 0.55425559
v -0.08013121 0.82423354 0.58270891
v -0.07485684 0.82375636 0.58328505
v -0.07440755 0.77968762 0.55424568
v -0.06982114 0.82254445 0.58355082
v -0.06514814 0.82063471 0.58303412
v -0.06931671 0.78010643 0.55557481
v -0.06453298 0.78140444 0.55740754
v -0.06036591 0.78358752 0.55957369
v -0.06067974 0.81778601 0.58214755
v -0.05716726 0.81440523 0.58069457
v -0.05674296 0.78628751 0.56199719
v -0.05392178 0.78961133 0.56488858
v -0.05424283 0.81051480 0.57860380
v -0.05194760 0.79344415 0.56782424
v -0.05109039 0.79766464 0.57074341
v -0.05225566 0.80621587 0.57635198
v -0.05119426 0.80190651 0.57351692
vn 0.16212222293787507 0.5439670809080375 -0.8232959369012279
vn -0.16212222293787507 -0.5439670809080375 0.8232959369012279
usemtl material_0_0
f 1//1 2//1 3//1
f 3//2 2//2 1//2
f 4//1 2//1 1//1
f 1//2 2//2 4//2
f 3//1 2//1 5//1
f 5//2 2//2 3//2
f 4//1 6//1 2//1
f 2//2 6//2 4//2
f 4//1 7//1 6//1
f 6//2 7//2 4//2
f 8//1 7//1 4//1
f 4//2 7//2 8//2
f 8//1 9//1 7//1
f 7//2 9//2 8//2
f 8//1 10//1 9//1
f 9//2 10//2 8//2
f 11//1 10//1 8//1
f 8//2 10//2 11//2
f 12//1 10//1 11//1
f 11//2 10//2 12//2
f 13//1 10//1 12//1
f 12//2 10//2 13//2
f 14//1 10//1 13//1
f 13//2 10//2 14//2
f 14//1 15//1 10//1
f 10//2 15//2 14//2
f 14//1 16//1 15//1
f 15//2 16//2 14//2
f 14//1 17//1 16//1
f 16//2 17//2 14//2
f 18//1 19//1 20//1
f 20//2 19//2 18//2
f 19//1 21//1 20//1
f 20//2 21//2 19//2
f 21//1 22//1 20//1
f 20//2 22//2 21//2
f 22//1 23//1 20//1
f 20//2 23//2 22//2
f 22//1 24//1 23//1
f 23//2 24//2 22//2
f 22//1 25//1 24//1
f 24//2 25//2 22//2
f 22//1 26//1 25//1
f 25//2 26//2 22//2
f 26//1 27//1 25//1
f 25//2 27//2 26//2
f 27//1 28//1 25//1
f 25//2 28//2 27//2
f 27//1 29//1 28//1
f 28//2 29//2 27//2
f 27//1 30//1 29//1
f 29//2 30//2 27//2
f 30//1 31//1 29//1
f 29//2 31//2 30//2
f 30//1 32//1 31//1
f 31//2 32//2 30//2
f 30//1 33//1 32//1
f 32//2 33//2 30//2
f 33//1 34//1 32//1
f 32//2 34//2 33//2
