# SSTK version 0.8.0
# 58
mtllib original_58.mtl
o mesh54/mesh54-geometry#mesh54-geometry
v 0.28814243 -0.77983888 0.14478060
v 0.28448290 -0.77967512 0.08989553
v 0.26347667 -0.77967897 0.25118997
v 0.27005513 -0.77977846 0.03675374
v 0.28111020 -0.77955508 0.19913482
v 0.24573180 -0.77971953 -0.01246238
v 0.23606377 -0.77959730 0.29880807
v 0.19998927 -0.77958804 0.34031487
v 0.15632281 -0.77966616 0.37369501
v 0.10719220 -0.77965470 0.39801064
v 0.21223447 -0.77978576 -0.05590337
v 0.17102514 -0.77977653 -0.09233305
v 0.12321540 -0.77969950 -0.11964490
v 0.05403296 -0.77968258 0.41232203
v -0.00066971 -0.77970811 0.41612644
v 0.07130670 -0.77965863 -0.13722406
v 0.01659293 -0.77980614 -0.14432419
v -0.05531439 -0.77966022 0.40907047
v -0.03800864 -0.77973007 -0.14057819
v -0.09132463 -0.77971211 -0.12639002
v -0.10726260 -0.77973984 0.39137695
v -0.15486159 -0.77979837 0.36382706
v -0.19629014 -0.77977206 0.32785810
v -0.22978959 -0.77984506 0.28416010
v -0.14038071 -0.77957541 -0.10193424
v -0.18379774 -0.77972706 -0.06851704
v -0.22001846 -0.77967089 -0.02709396
v -0.25430366 -0.77966326 0.23492796
v -0.26848555 -0.77963234 0.18191259
v -0.27223357 -0.77964301 0.12728045
v -0.26508070 -0.77963679 0.07254954
v -0.24756788 -0.77974512 0.02053994
vn 0 1 0
vn 0 -1 0
usemtl material_0_0
f 1//1 2//1 3//1
f 3//2 2//2 1//2
f 2//1 4//1 3//1
f 3//2 4//2 2//2
f 1//1 3//1 5//1
f 5//2 3//2 1//2
f 4//1 6//1 3//1
f 3//2 6//2 4//2
f 3//1 6//1 7//1
f 7//2 6//2 3//2
f 6//1 8//1 7//1
f 7//2 8//2 6//2
f 6//1 9//1 8//1
f 8//2 9//2 6//2
f 6//1 10//1 9//1
f 9//2 10//2 6//2
f 6//1 11//1 10//1
f 10//2 11//2 6//2
f 11//1 12//1 10//1
f 10//2 12//2 11//2
f 12//1 13//1 10//1
f 10//2 13//2 12//2
f 13//1 14//1 10//1
f 10//2 14//2 13//2
f 13//1 15//1 14//1
f 14//2 15//2 13//2
f 13//1 16//1 15//1
f 15//2 16//2 13//2
f 16//1 17//1 15//1
f 15//2 17//2 16//2
f 17//1 18//1 15//1
f 15//2 18//2 17//2
f 17//1 19//1 18//1
f 18//2 19//2 17//2
f 19//1 20//1 18//1
f 18//2 20//2 19//2
f 18//1 20//1 21//1
f 21//2 20//2 18//2
f 20//1 22//1 21//1
f 21//2 22//2 20//2
f 20//1 23//1 22//1
f 22//2 23//2 20//2
f 20//1 24//1 23//1
f 23//2 24//2 20//2
f 20//1 25//1 24//1
f 24//2 25//2 20//2
f 25//1 26//1 24//1
f 24//2 26//2 25//2
f 26//1 27//1 24//1
f 24//2 27//2 26//2
f 27//1 28//1 24//1
f 24//2 28//2 27//2
f 27//1 29//1 28//1
f 28//2 29//2 27//2
f 27//1 30//1 29//1
f 29//2 30//2 27//2
f 27//1 31//1 30//1
f 30//2 31//2 27//2
f 27//1 32//1 31//1
f 31//2 32//2 27//2
