# SSTK version 0.8.0
# 36
mtllib original_36.mtl
o Group28/mesh33/mesh33-geometry#mesh33-geometry
v 0.15294153 0.19169270 -0.18326947
v 0.01881985 0.19173106 -0.21419009
v 0.01854958 0.18894736 -0.20346881
v 0.14830273 0.18883651 -0.17324444
v 0.01822646 0.18040299 -0.19495029
v 0.29487348 0.19169266 -0.06545980
v 0.14461054 0.18040102 -0.16543414
v 0.28580419 0.18901387 -0.05939057
v 0.01828483 0.16954826 -0.19165135
v 0.35813921 0.19168867 0.14677898
v 0.14342594 0.16975144 -0.16259453
v 0.27885444 0.18057447 -0.05429805
v 0.34722013 0.18889716 0.14642497
v 0.28171369 0.19154409 0.35496315
v 0.27635846 0.16958066 -0.05241096
v 0.33871817 0.18041363 0.14616089
v 0.27310477 0.18892482 0.34808182
v 0.13257433 0.19161991 0.46356457
v 0.33566359 0.16950342 0.14625850
v 0.26641178 0.18052418 0.34242904
v 0.12873331 0.18895909 0.45303531
v -0.00309539 0.19158971 0.48612601
v 0.26403284 0.16952341 0.34060221
v 0.12561070 0.18049960 0.44518866
v -0.00262794 0.18902562 0.47528275
v 0.12467501 0.16953566 0.44219909
v -0.00238115 0.18050819 0.46668307
v -0.00231447 0.16965540 0.46350490
vn -0.09318989972108621 0.9684976417871703 0.23092847473333347
vn -0.0574470035541711 0.967354997347029 0.2468281809080489
vn -0.09443228276284957 0.9090995192564832 0.40573465227883654
vn 0.09443228276284957 -0.9090995192564832 -0.40573465227883654
vn 0.0574470035541711 -0.967354997347029 -0.2468281809080489
vn 0.09318989972108621 -0.9684976417871703 -0.23092847473333347
vn -0.20133998009391876 0.8725032960076998 0.44519682262060273
vn 0.20133998009391876 -0.8725032960076998 -0.44519682262060273
vn -0.18470866903643504 0.5797012255354147 0.7936177900573596
vn 0.18470866903643504 -0.5797012255354147 -0.7936177900573596
vn -0.1934574853162395 0.9684015602111837 0.1573932004746774
vn 0.1934574853162395 -0.9684015602111837 -0.1573932004746774
vn -0.3724669071147539 0.5132998059932422 0.7731699116440507
vn 0.3724669071147539 -0.5132998059932422 -0.7731699116440507
vn -0.3941759848814908 0.8729370002212896 0.2874130939734009
vn 0.3941759848814908 -0.8729370002212896 -0.2874130939734009
vn -0.21831944962377325 0.26914605617213394 0.9380282609617684
vn 0.21831944962377325 -0.26914605617213394 -0.9380282609617684
vn -0.2494587004771221 0.9681821033137497 0.019843678571006808
vn 0.2494587004771221 -0.9681821033137497 -0.019843678571006808
vn -0.4939782599150505 0.2724600883051466 0.8256821295220397
vn 0.4939782599150505 -0.2724600883051466 -0.8256821295220397
vn -0.7083997771292108 0.5141499831860106 0.48354891226546015
vn 0.7083997771292108 -0.5141499831860106 -0.48354891226546015
vn -0.48754765428940783 0.8730397891133358 0.009940393444848771
vn 0.48754765428940783 -0.8730397891133358 -0.009940393444848771
vn -0.21455644490855813 0.9680367256879557 -0.12988621815859502
vn 0.21455644490855813 -0.9680367256879557 0.12988621815859502
vn -0.851889891002393 0.2719880216794863 0.44755572800580967
vn 0.851889891002393 -0.2719880216794863 -0.44755572800580967
vn -0.8570960316597344 0.5149997655628901 -0.012713535436844687
vn 0.8570960316597344 -0.5149997655628901 0.012713535436844687
vn -0.40359820256764944 0.872573382096041 -0.2751802749864879
vn 0.40359820256764944 -0.872573382096041 0.2751802749864879
vn -0.11517298639181511 0.9681554841741944 -0.2222839213011632
vn 0.11517298639181511 -0.9681554841741944 0.2222839213011632
vn -0.9524728017061534 0.2725281185343594 -0.1361028530860106
vn 0.9524728017061534 -0.2725281185343594 0.1361028530860106
vn -0.6921110389510604 0.5147460037663962 -0.5059830643100705
vn 0.6921110389510604 -0.5147460037663962 0.5059830643100705
vn -0.20663185848375715 0.872154326570399 -0.44345248415594896
vn 0.20663185848375715 -0.872154326570399 0.44345248415594896
vn -0.04190537705893189 0.9673549423001813 -0.24993670194863646
vn 0.04190537705893189 -0.9673549423001813 0.24993670194863646
vn -0.7054742185013075 0.27341002817914234 -0.6538754342541473
vn 0.7054742185013075 -0.27341002817914234 0.6538754342541473
vn -0.34233723077825406 0.5138669325243941 -0.7866040910655412
vn 0.34233723077825406 -0.5138669325243941 0.7866040910655412
vn -0.09454470302400696 0.8204194433108941 -0.5638911563125855
vn 0.09454470302400696 -0.8204194433108941 0.5638911563125855
vn -0.30211974122583424 0.27383506170257643 -0.9130925588044079
vn 0.30211974122583424 -0.27383506170257643 0.9130925588044079
vn -0.14940669755618902 0.42849808398477524 -0.8911043882434482
vn 0.14940669755618902 -0.42849808398477524 0.8911043882434482
vn -0.159254273258732 0.26914600292009916 -0.9498413054615845
vn 0.159254273258732 -0.26914600292009916 0.9498413054615845
usemtl material_0_0
f 1//1 2//2 3//3
f 3//4 2//5 1//6
f 1//1 3//3 4//7
f 4//8 3//4 1//6
f 4//7 3//3 5//9
f 5//10 3//4 4//8
f 6//11 1//1 4//7
f 4//8 1//6 6//12
f 4//7 5//9 7//13
f 7//14 5//10 4//8
f 6//11 4//7 8//15
f 8//16 4//8 6//12
f 5//9 9//17 7//13
f 7//14 9//18 5//10
f 8//15 4//7 7//13
f 7//14 4//8 8//16
f 10//19 6//11 8//15
f 8//16 6//12 10//20
f 7//13 9//17 11//21
f 11//22 9//18 7//14
f 8//15 7//13 12//23
f 12//24 7//14 8//16
f 10//19 8//15 13//25
f 13//26 8//16 10//20
f 7//13 11//21 12//23
f 12//24 11//22 7//14
f 13//25 8//15 12//23
f 12//24 8//16 13//26
f 10//19 13//25 14//27
f 14//28 13//26 10//20
f 12//23 11//21 15//29
f 15//30 11//22 12//24
f 13//25 12//23 16//31
f 16//32 12//24 13//26
f 13//25 17//33 14//27
f 14//28 17//34 13//26
f 12//23 15//29 16//31
f 16//32 15//30 12//24
f 13//25 16//31 17//33
f 17//34 16//32 13//26
f 14//27 17//33 18//35
f 18//36 17//34 14//28
f 15//29 19//37 16//31
f 16//32 19//38 15//30
f 16//31 20//39 17//33
f 17//34 20//40 16//32
f 17//33 21//41 18//35
f 18//36 21//42 17//34
f 19//37 20//39 16//31
f 16//32 20//40 19//38
f 17//33 20//39 21//41
f 21//42 20//40 17//34
f 18//35 21//41 22//43
f 22//44 21//42 18//36
f 19//37 23//45 20//39
f 20//40 23//46 19//38
f 20//39 24//47 21//41
f 21//42 24//48 20//40
f 21//41 25//49 22//43
f 22//44 25//50 21//42
f 20//39 23//45 24//47
f 24//48 23//46 20//40
f 21//41 24//47 25//49
f 25//50 24//48 21//42
f 24//47 23//45 26//51
f 26//52 23//46 24//48
f 24//47 27//53 25//49
f 25//50 27//54 24//48
f 24//47 26//51 27//53
f 27//54 26//52 24//48
f 27//53 26//51 28//55
f 28//56 26//52 27//54
