# SSTK version 0.8.0
# 100
mtllib original_100.mtl
o Group80/mesh94/mesh94-geometry#mesh94-geometry
v -0.00089009 0.86433426 0.32932826
v -0.02034511 0.84993371 0.35026969
v -0.01521033 0.85310884 0.32515701
v -0.00606728 0.86140034 0.35496800
v -0.03370578 0.84741479 0.34693974
v -0.01000996 0.85484205 0.29769296
v 0.00542912 0.88586803 0.33214925
v -0.01097504 0.85701286 0.37979735
v -0.03848290 0.84299066 0.37172190
v -0.02855378 0.85026432 0.32184991
v -0.02335998 0.85183612 0.29518089
v 0.00446674 0.86623227 0.30085374
v 0.00036253 0.88255429 0.35915001
v -0.00466055 0.87802366 0.38505837
v -0.02509396 0.84578381 0.37472721
v 0.01126240 0.88747572 0.30273682
v -0.00164127 0.90706231 0.33193296
v -0.01019794 0.87202362 0.41186070
v -0.01616583 0.85114452 0.40543136
v -0.03013973 0.84026653 0.40010148
v -0.00724049 0.90362219 0.36014283
v -0.01252991 0.89901966 0.38756996
v -0.01807125 0.89279705 0.41567336
v -0.04355780 0.83736910 0.39675819
v 0.00447639 0.90894564 0.30171484
v -0.01607141 0.91847758 0.32934275
v -0.01540530 0.86456739 0.43889768
v -0.02124016 0.84426767 0.43147325
v -0.03510341 0.83309966 0.42541921
v -0.04823154 0.83066991 0.42206031
v -0.02180196 0.91514669 0.35828919
v -0.02750581 0.91045574 0.38695256
v -0.03314054 0.90393664 0.41559037
v -0.02355816 0.88506571 0.44362079
v -0.01011474 0.92050722 0.29902082
v -0.02951587 0.92126445 0.32661276
v -0.02917708 0.87592247 0.47131956
v -0.02066172 0.85573366 0.46561611
v -0.02629535 0.83581947 0.45739043
v -0.05320189 0.82210467 0.44734311
v -0.02360437 0.92314556 0.29640408
v -0.03530146 0.91791983 0.35578920
v -0.04098140 0.91282939 0.38453451
v -0.03861071 0.89622939 0.44403175
v -0.04429707 0.88678552 0.47239404
v -0.04011830 0.82483697 0.45070634
v -0.04667441 0.90645554 0.41353688
v -0.04869546 0.87848629 0.49399016
v -0.03333279 0.86765293 0.49276368
v -0.02486956 0.84795375 0.48663567
v -0.03025437 0.82803299 0.47753193
v -0.04383269 0.81731498 0.47050819
v -0.05227073 0.89879710 0.44224823
v -0.05799726 0.88943077 0.47067574
v -0.05716670 0.81485173 0.46666488
v -0.06220314 0.88111453 0.49250361
v -0.03753040 0.85874211 0.51383107
v -0.02891816 0.83907706 0.50689641
v -0.03426781 0.81953457 0.49696186
v -0.04771789 0.80911264 0.48936345
v -0.06091140 0.80679039 0.48557793
v -0.05272102 0.86929790 0.51535382
v -0.06635149 0.87185896 0.51379941
v -0.05695427 0.85938811 0.53630009
v -0.04139184 0.84898664 0.53421120
v -0.03264178 0.82986550 0.52623867
v -0.03781425 0.81070509 0.51560854
v -0.06454541 0.79780009 0.50384541
v -0.07054800 0.86187322 0.53495304
v -0.05130293 0.80030516 0.50791448
v -0.06098250 0.84862495 0.55646504
v -0.04518842 0.83883725 0.55364707
v -0.03632499 0.82021271 0.54488637
v -0.04119505 0.80144989 0.53330877
v -0.05465009 0.79121925 0.52535828
v -0.07456980 0.85106131 0.55497477
v -0.06805839 0.78871954 0.52163438
v -0.06474077 0.83738970 0.57613616
v -0.04899917 0.82768837 0.57289845
v -0.03994372 0.80941502 0.56330221
v -0.04477521 0.79110982 0.55131498
v -0.05808131 0.78118869 0.54294115
v -0.07138521 0.77862406 0.53916635
v -0.07851455 0.83955932 0.57497425
v -0.08251129 0.82686633 0.59487252
v -0.06872888 0.82458579 0.59614907
v -0.05301174 0.81503627 0.59287951
v -0.04375291 0.79725534 0.58275838
v -0.04856511 0.77916702 0.56993038
v -0.07495496 0.76717351 0.55694526
v -0.06184378 0.76947906 0.56107006
vn 0.7514858430781292 -0.6538408958961146 0.08809716514689643
vn 0.46429990652541697 -0.8846843612759724 -0.04194255254766943
vn 0.35419985581233937 -0.9350339927852779 -0.01593406660395492
vn -0.35419985581233937 0.9350339927852779 0.01593406660395492
vn -0.46429990652541697 0.8846843612759724 0.04194255254766943
vn -0.7514858430781292 0.6538408958961146 -0.08809716514689643
vn 0.8674636023726404 -0.48749809061103466 0.09925981165243598
vn -0.8674636023726404 0.48749809061103466 -0.09925981165243598
vn 0.21975842112772015 -0.9714456040505097 -0.08944090067967574
vn -0.21975842112772015 0.9714456040505097 0.08944090067967574
vn 0.4875348500401121 -0.8721878099010183 0.03997742183321282
vn -0.4875348500401121 0.8721878099010183 -0.03997742183321282
vn 0.9770700023333287 -0.10993698970357678 0.18234052987546256
vn -0.9770700023333287 0.10993698970357678 -0.18234052987546256
vn 0.8220614367297941 -0.5671001436643484 0.051111850853031694
vn -0.8220614367297941 0.5671001436643484 -0.051111850853031694
vn 0.22894273166494794 -0.962523153794368 -0.1453767657761539
vn -0.22894273166494794 0.962523153794368 0.1453767657761539
vn 0.21089808810445299 -0.9763333553400065 -0.04790799186368548
vn -0.21089808810445299 0.9763333553400065 0.04790799186368548
vn 0.204629091550108 -0.978572359718862 -0.022870760495351288
vn -0.204629091550108 0.978572359718862 0.022870760495351288
vn 0.8596552198807426 -0.49193713020323104 0.13780697681612955
vn -0.8596552198807426 0.49193713020323104 -0.13780697681612955
vn 0.9721238804582493 0.10959703884700615 0.2072767476557926
vn -0.9721238804582493 -0.10959703884700615 -0.2072767476557926
vn 0.9806876998156893 -0.0005680000027052954 0.1955794283819481
vn -0.9806876998156893 0.0005680000027052954 -0.1955794283819481
vn 0.48341186110733203 -0.8715729271914155 -0.08169213626618678
vn -0.48341186110733203 0.8715729271914155 0.08169213626618678
vn 0.9738023149520005 0.1103289770015962 0.19883804522250242
vn -0.9738023149520005 -0.1103289770015962 -0.19883804522250242
vn 0.8450189130104363 0.4913142436192108 0.21107664643807336
vn -0.8450189130104363 -0.4913142436192108 -0.21107664643807336
vn 0.9801956459175459 -0.10737003497552608 0.16639763013228032
vn -0.9801956459175459 0.10737003497552608 -0.16639763013228032
vn 0.7699010163861297 -0.6381290917546744 -0.006609631151509124
vn -0.7699010163861297 0.6381290917546744 0.006609631151509124
vn 0.37935511076885514 -0.9127472312522988 -0.15159878553211542
vn -0.37935511076885514 0.9127472312522988 0.15159878553211542
vn 0.7215292107924369 0.6509719550328119 0.23586248479570018
vn -0.7215292107924369 -0.6509719550328119 -0.23586248479570018
vn 0.7794341591412559 0.5666909004261841 0.2671026299719348
vn -0.7794341591412559 -0.5666909004261841 -0.2671026299719348
vn 0.8315781450674896 0.4783219453856818 0.2822869200097127
vn -0.8315781450674896 -0.4783219453856818 -0.2822869200097127
vn 0.23598243711769018 -0.9530402978432473 -0.1898064278649423
vn -0.23598243711769018 0.9530402978432473 0.1898064278649423
vn 0.7317176329399445 0.6556708815406083 0.1862390956392514
vn -0.7317176329399445 -0.6556708815406083 -0.1862390956392514
vn 0.4226866738277833 0.8919702023532751 0.16039056668726692
vn -0.4226866738277833 -0.8919702023532751 -0.16039056668726692
vn 0.9691228379949084 0.10577799261050844 0.22273738158644504
vn -0.9691228379949084 -0.10577799261050844 -0.22273738158644504
vn 0.8807330202579288 -0.4725709152997046 0.031401863641286776
vn -0.8807330202579288 0.4725709152997046 -0.031401863641286776
vn 0.48744620680284495 -0.8572840495540202 -0.16571135704525114
vn -0.48744620680284495 0.8572840495540202 0.16571135704525114
vn 0.24360008488820845 -0.9428786264230763 -0.2272419293990225
vn -0.24360008488820845 0.9428786264230763 0.2272419293990225
vn 0.3105392453330756 0.9305042451669647 0.19423497840044482
vn -0.3105392453330756 -0.9305042451669647 -0.19423497840044482
vn 0.4179021237502228 0.8736103373582381 0.2493246747232997
vn -0.4179021237502228 -0.8736103373582381 -0.2493246747232997
vn 0.39857870169171605 0.869984881408454 0.29027801273686593
vn -0.39857870169171605 -0.869984881408454 -0.29027801273686593
vn 0.7043393883845503 0.6292179202224089 0.3286195898619921
vn -0.7043393883845503 -0.6292179202224089 -0.3286195898619921
vn 0.3969951911004725 0.9075854675650099 0.13668737069642378
vn -0.3969951911004725 -0.9075854675650099 -0.13668737069642378
vn 0.1728409975044516 0.9762045528706765 0.13096053045184528
vn -0.1728409975044516 -0.9762045528706765 -0.13096053045184528
vn 0.763834050999046 0.5444559056300107 0.3465909828010418
vn -0.763834050999046 -0.5444559056300107 -0.3465909828010418
vn 0.9806640252713648 -0.0008860002567978198 0.19569692011400963
vn -0.9806640252713648 0.0008860002567978198 -0.19569692011400963
vn 0.8373893257782068 -0.5459207573486496 -0.027379623236940744
vn -0.8373893257782068 0.5459207573486496 0.027379623236940744
vn 0.2545717115619867 -0.9257613601578069 -0.2795695757967381
vn -0.2545717115619867 0.9257613601578069 0.2795695757967381
vn 0.18005839192749468 0.9786950893768865 0.09866558430401676
vn -0.18005839192749468 -0.9786950893768865 -0.09866558430401676
vn 0.16459458727209234 0.9714437893162081 0.17089641903707645
vn -0.16459458727209234 -0.9714437893162081 -0.17089641903707645
vn 0.15647031011832513 0.9631440316869576 0.21879354715637253
vn -0.15647031011832513 -0.9631440316869576 -0.21879354715637253
vn 0.28606699219713005 0.900135116977517 0.32851552042355486
vn -0.28606699219713005 -0.900135116977517 -0.32851552042355486
vn 0.394059161643269 0.8399298062122574 0.3731424630904978
vn -0.394059161643269 -0.8399298062122574 -0.3731424630904978
vn 0.5072578219082396 -0.8376330170550461 -0.20263373572080615
vn -0.5072578219082396 0.8376330170550461 0.20263373572080615
vn 0.14695880905960684 0.9507568890704468 0.27288174421325556
vn -0.14695880905960684 -0.9507568890704468 -0.27288174421325556
vn 0.37475337401260417 0.831970066028475 0.4091279969627402
vn -0.37475337401260417 -0.831970066028475 -0.4091279969627402
vn 0.8185510058774997 0.4574291199182617 0.34746633078290967
vn -0.8185510058774997 -0.4574291199182617 -0.34746633078290967
vn 0.9830784272355548 -0.1025549635588435 0.15178697359626137
vn -0.9830784272355548 0.1025549635588435 -0.15178697359626137
vn 0.787025077875647 -0.6097968012663402 -0.09348469372133386
vn -0.787025077875647 0.6097968012663402 0.09348469372133386
vn 0.40410385925150355 -0.8722271525477452 -0.275535597149431
vn -0.40410385925150355 0.8722271525477452 0.275535597149431
vn 0.13910758100585455 0.9398962735324129 0.31183982411902267
vn -0.13910758100585455 -0.9398962735324129 -0.31183982411902267
vn 0.13007690211809855 0.9254305414835213 0.35589087151102244
vn -0.13007690211809855 -0.9254305414835213 -0.35589087151102244
vn 0.2623235050674685 -0.9107633556741076 -0.31889886900137626
vn -0.2623235050674685 0.9107633556741076 0.31889886900137626
vn 0.12138522211255645 0.9083195989238492 0.4002763221369749
vn -0.12138522211255645 -0.9083195989238492 -0.4002763221369749
vn 0.6885714938839692 0.5998191067255234 0.40753691491372157
vn -0.6885714938839692 -0.5998191067255234 -0.40753691491372157
vn 0.9664909973858873 0.10086601011903003 0.23605338373914597
vn -0.9664909973858873 -0.10086601011903003 -0.23605338373914597
vn 0.8924712336095219 -0.4502059576164875 -0.02845510334051661
vn -0.8924712336095219 0.4502059576164875 0.02845510334051661
vn 0.5086750348272561 -0.8164577177767425 -0.27321512408042653
vn -0.5086750348272561 0.8164577177767425 0.27321512408042653
vn 0.26788964487771855 -0.8984092601052407 -0.3479884186642476
vn -0.26788964487771855 0.8984092601052407 0.3479884186642476
vn 0.26361726145270203 0.8579911757942591 0.44085948070032743
vn -0.26361726145270203 -0.8579911757942591 -0.44085948070032743
vn 0.11585641382171125 0.8958814525752354 0.4289215712785478
vn -0.11585641382171125 -0.8958814525752354 -0.4289215712785478
vn 0.37484776375446416 0.7989895191352194 0.47021793066656675
vn -0.37484776375446416 -0.7989895191352194 -0.47021793066656675
vn 0.7514509976935461 0.5179689161921184 0.408692549386622
vn -0.7514509976935461 -0.5179689161921184 -0.408692549386622
vn 0.9807908105330062 -0.0008690001376347711 0.19506058241676907
vn -0.9807908105330062 0.0008690001376347711 -0.19506058241676907
vn 0.8497367841003725 -0.5194490187456168 -0.09011167888222328
vn -0.8497367841003725 0.5194490187456168 0.09011167888222328
vn 0.276088852935614 -0.8803510785915855 -0.3856901913548345
vn -0.276088852935614 0.8803510785915855 0.3856901913548345
vn 0.10868487512071238 0.8800961532049517 0.4621886617322427
vn -0.10868487512071238 -0.8800961532049517 -0.4621886617322427
vn 0.5261001372561035 -0.7966872321989096 -0.29750310860619567
vn -0.5261001372561035 0.7966872321989096 0.29750310860619567
vn 0.35594150876649533 0.7887723505506244 0.5011425160010613
vn -0.35594150876649533 -0.7887723505506244 -0.5011425160010613
vn 0.808436772166327 0.43390905018180154 0.39768444975836914
vn -0.808436772166327 -0.43390905018180154 -0.39768444975836914
vn 0.9852719278981852 -0.097175032441404 0.14069911572502947
vn -0.9852719278981852 0.097175032441404 -0.14069911572502947
vn 0.8003520241772992 -0.5778870944299375 -0.15963440571075058
vn -0.8003520241772992 0.5778870944299375 0.15963440571075058
vn 0.4239540416904696 -0.8263209552724875 -0.3707514658256652
vn -0.4239540416904696 0.8263209552724875 0.3707514658256652
vn 0.10032407238526948 0.8595408528234112 0.501123340932787
vn -0.10032407238526948 -0.8595408528234112 -0.501123340932787
vn 0.28356657205861807 -0.8626232113060514 -0.41889281985605825
vn -0.28356657205861807 0.8626232113060514 0.41889281985605825
vn 0.24400015080464785 0.8077510292264525 0.5366583654345808
vn -0.24400015080464785 -0.8077510292264525 -0.5366583654345808
vn 0.6750335418701454 0.5648921358314374 0.4745804380987941
vn -0.6750335418701454 -0.5648921358314374 -0.4745804380987941
vn 0.9642534119070385 0.09503596492546312 0.24735303312537169
vn -0.9642534119070385 -0.09503596492546312 -0.24735303312537169
vn 0.9024400419214104 -0.4236190568049894 -0.07841470173720054
vn -0.9024400419214104 0.4236190568049894 0.07841470173720054
vn 0.5272219086623592 -0.7678509850994679 -0.36392571179870725
vn -0.5272219086623592 0.7678509850994679 0.36392571179870725
vn 0.28880732116850166 -0.8465896403920784 -0.44707528674741687
vn -0.28880732116850166 0.8465896403920784 0.44707528674741687
vn 0.09510605541788252 0.8433391312547828 0.5288988068782903
vn -0.09510605541788252 -0.8433391312547828 -0.5288988068782903
vn 0.09230781337195196 0.8330701685942589 0.5454111859769858
vn -0.09230781337195196 -0.8330701685942589 -0.5454111859769858
vn 0.38781939855863146 0.7423552062519164 0.5463559845488067
vn -0.38781939855863146 -0.7423552062519164 -0.5463559845488067
vn 0.8035160175692231 0.41851979816364465 0.42332397528932636
vn -0.8035160175692231 -0.41851979816364465 -0.42332397528932636
vn 0.9864225860676893 -0.09380097251608449 0.1348030387289876
vn -0.9864225860676893 0.09380097251608449 -0.1348030387289876
vn 0.8069731118985902 -0.5576672844363192 -0.19442632677219077
vn -0.8069731118985902 0.5576672844363192 0.19442632677219077
vn 0.29255798457134674 -0.8328737810816543 -0.46982027462669207
vn -0.29255798457134674 0.8328737810816543 0.46982027462669207
vn 0.5010042090675366 -0.7723081031355757 -0.3905572638266263
vn -0.5010042090675366 0.7723081031355757 0.3905572638266263
usemtl material_0_0
f 1//1 2//2 3//3
f 3//4 2//5 1//6
f 1//1 4//7 2//2
f 2//5 4//8 1//6
f 3//3 2//2 5//9
f 5//10 2//5 3//4
f 1//1 3//3 6//11
f 6//12 3//4 1//6
f 1//1 7//13 4//7
f 4//8 7//14 1//6
f 4//7 8//15 2//2
f 2//5 8//16 4//8
f 2//2 9//17 5//9
f 5//10 9//18 2//5
f 3//3 5//9 10//19
f 10//20 5//10 3//4
f 6//11 3//3 11//21
f 11//22 3//4 6//12
f 12//23 1//1 6//11
f 6//12 1//6 12//24
f 12//23 7//13 1//1
f 1//6 7//14 12//24
f 7//13 13//25 4//7
f 4//8 13//26 7//14
f 4//7 14//27 8//15
f 8//16 14//28 4//8
f 8//15 15//29 2//2
f 2//5 15//30 8//16
f 2//2 15//29 9//17
f 9//18 15//30 2//5
f 3//3 10//19 11//21
f 11//22 10//20 3//4
f 12//23 16//31 7//13
f 7//14 16//32 12//24
f 17//33 13//25 7//13
f 7//14 13//26 17//34
f 4//7 13//25 14//27
f 14//28 13//26 4//8
f 8//15 14//27 18//35
f 18//36 14//28 8//16
f 8//15 19//37 15//29
f 15//30 19//38 8//16
f 15//29 20//39 9//17
f 9//18 20//40 15//30
f 16//31 17//33 7//13
f 7//14 17//34 16//32
f 17//33 21//41 13//25
f 13//26 21//42 17//34
f 13//25 22//43 14//27
f 14//28 22//44 13//26
f 14//27 23//45 18//35
f 18//36 23//46 14//28
f 8//15 18//35 19//37
f 19//38 18//36 8//16
f 19//37 20//39 15//29
f 15//30 20//40 19//38
f 20//39 24//47 9//17
f 9//18 24//48 20//40
f 25//49 17//33 16//31
f 16//32 17//34 25//50
f 17//33 26//51 21//41
f 21//42 26//52 17//34
f 13//25 21//41 22//43
f 22//44 21//42 13//26
f 14//27 22//43 23//45
f 23//46 22//44 14//28
f 18//35 23//45 27//53
f 27//54 23//46 18//36
f 19//37 18//35 28//55
f 28//56 18//36 19//38
f 19//37 29//57 20//39
f 20//40 29//58 19//38
f 20//39 30//59 24//47
f 24//48 30//60 20//40
f 25//49 26//51 17//33
f 17//34 26//52 25//50
f 21//41 26//51 31//61
f 31//62 26//52 21//42
f 21//41 32//63 22//43
f 22//44 32//64 21//42
f 22//43 33//65 23//45
f 23//46 33//66 22//44
f 23//45 34//67 27//53
f 27//54 34//68 23//46
f 18//35 27//53 28//55
f 28//56 27//54 18//36
f 19//37 28//55 29//57
f 29//58 28//56 19//38
f 20//39 29//57 30//59
f 30//60 29//58 20//40
f 25//49 35//69 26//51
f 26//52 35//70 25//50
f 26//51 36//71 31//61
f 31//62 36//72 26//52
f 21//41 31//61 32//63
f 32//64 31//62 21//42
f 22//43 32//63 33//65
f 33//66 32//64 22//44
f 23//45 33//65 34//67
f 34//68 33//66 23//46
f 27//53 34//67 37//73
f 37//74 34//68 27//54
f 28//55 27//53 38//75
f 38//76 27//54 28//56
f 28//55 39//77 29//57
f 29//58 39//78 28//56
f 29//57 40//79 30//59
f 30//60 40//80 29//58
f 35//69 41//81 26//51
f 26//52 41//82 35//70
f 26//51 41//81 36//71
f 36//72 41//82 26//52
f 31//61 36//71 42//83
f 42//84 36//72 31//62
f 31//61 43//85 32//63
f 32//64 43//86 31//62
f 32//63 43//85 33//65
f 33//66 43//86 32//64
f 34//67 33//65 44//87
f 44//88 33//66 34//68
f 34//67 45//89 37//73
f 37//74 45//90 34//68
f 27//53 37//73 38//75
f 38//76 37//74 27//54
f 28//55 38//75 39//77
f 39//78 38//76 28//56
f 39//77 46//91 29//57
f 29//58 46//92 39//78
f 29//57 46//91 40//79
f 40//80 46//92 29//58
f 31//61 42//83 43//85
f 43//86 42//84 31//62
f 33//65 43//85 47//93
f 47//94 43//86 33//66
f 33//65 47//93 44//87
f 44//88 47//94 33//66
f 34//67 44//87 45//89
f 45//90 44//88 34//68
f 37//73 45//89 48//95
f 48//96 45//90 37//74
f 38//75 37//73 49//97
f 49//98 37//74 38//76
f 39//77 38//75 50//99
f 50//100 38//76 39//78
f 39//77 51//101 46//91
f 46//92 51//102 39//78
f 46//91 52//103 40//79
f 40//80 52//104 46//92
f 44//87 47//93 53//105
f 53//106 47//94 44//88
f 44//87 54//107 45//89
f 45//90 54//108 44//88
f 45//89 54//107 48//95
f 48//96 54//108 45//90
f 37//73 48//95 49//97
f 49//98 48//96 37//74
f 38//75 49//97 50//99
f 50//100 49//98 38//76
f 39//77 50//99 51//101
f 51//102 50//100 39//78
f 51//101 52//103 46//91
f 46//92 52//104 51//102
f 52//103 55//109 40//79
f 40//80 55//110 52//104
f 44//87 53//105 54//107
f 54//108 53//106 44//88
f 48//95 54//107 56//111
f 56//112 54//108 48//96
f 49//97 48//95 57//113
f 57//114 48//96 49//98
f 50//99 49//97 58//115
f 58//116 49//98 50//100
f 51//101 50//99 59//117
f 59//118 50//100 51//102
f 51//101 60//119 52//103
f 52//104 60//120 51//102
f 52//103 61//121 55//109
f 55//110 61//122 52//104
f 48//95 56//111 62//123
f 62//124 56//112 48//96
f 57//113 48//95 62//123
f 62//124 48//96 57//114
f 49//97 57//113 58//115
f 58//116 57//114 49//98
f 50//99 58//115 59//117
f 59//118 58//116 50//100
f 51//101 59//117 60//119
f 60//120 59//118 51//102
f 52//103 60//119 61//121
f 61//122 60//120 52//104
f 62//123 56//111 63//125
f 63//126 56//112 62//124
f 57//113 62//123 64//127
f 64//128 62//124 57//114
f 58//115 57//113 65//129
f 65//130 57//114 58//116
f 59//117 58//115 66//131
f 66//132 58//116 59//118
f 59//117 67//133 60//119
f 60//120 67//134 59//118
f 60//119 68//135 61//121
f 61//122 68//136 60//120
f 62//123 63//125 69//137
f 69//138 63//126 62//124
f 62//123 69//137 64//127
f 64//128 69//138 62//124
f 57//113 64//127 65//129
f 65//130 64//128 57//114
f 58//115 65//129 66//131
f 66//132 65//130 58//116
f 59//117 66//131 67//133
f 67//134 66//132 59//118
f 67//133 70//139 60//119
f 60//120 70//140 67//134
f 60//119 70//139 68//135
f 68//136 70//140 60//120
f 64//127 69//137 71//141
f 71//142 69//138 64//128
f 65//129 64//127 71//141
f 71//142 64//128 65//130
f 66//131 65//129 72//143
f 72//144 65//130 66//132
f 67//133 66//131 73//145
f 73//146 66//132 67//134
f 67//133 74//147 70//139
f 70//140 74//148 67//134
f 70//139 75//149 68//135
f 68//136 75//150 70//140
f 71//141 69//137 76//151
f 76//152 69//138 71//142
f 65//129 71//141 72//143
f 72//144 71//142 65//130
f 66//131 72//143 73//145
f 73//146 72//144 66//132
f 67//133 73//145 74//147
f 74//148 73//146 67//134
f 74//147 75//149 70//139
f 70//140 75//150 74//148
f 75//149 77//153 68//135
f 68//136 77//154 75//150
f 71//141 76//151 78//155
f 78//156 76//152 71//142
f 72//143 71//141 79//157
f 79//158 71//142 72//144
f 73//145 72//143 80//159
f 80//160 72//144 73//146
f 74//147 73//145 81//161
f 81//162 73//146 74//148
f 74//147 82//163 75//149
f 75//150 82//164 74//148
f 75//149 83//165 77//153
f 77//154 83//166 75//150
f 78//155 76//151 84//167
f 84//168 76//152 78//156
f 79//157 71//141 78//155
f 78//156 71//142 79//158
f 72//143 79//157 80//159
f 80//160 79//158 72//144
f 73//145 80//159 81//161
f 81//162 80//160 73//146
f 74//147 81//161 82//163
f 82//164 81//162 74//148
f 75//149 82//163 83//165
f 83//166 82//164 75//150
f 78//155 84//167 85//169
f 85//170 84//168 78//156
f 79//157 78//155 86//171
f 86//172 78//156 79//158
f 80//159 79//157 87//173
f 87//174 79//158 80//160
f 81//161 80//159 88//175
f 88//176 80//160 81//162
f 82//163 81//161 89//177
f 89//178 81//162 82//164
f 82//163 90//179 83//165
f 83//166 90//180 82//164
f 78//155 85//169 86//171
f 86//172 85//170 78//156
f 79//157 86//171 87//173
f 87//174 86//172 79//158
f 80//159 87//173 88//175
f 88//176 87//174 80//160
f 81//161 88//175 89//177
f 89//178 88//176 81//162
f 82//163 89//177 91//181
f 91//182 89//178 82//164
f 82//163 91//181 90//179
f 90//180 91//182 82//164
