# SSTK version 0.8.0
# 39
mtllib original_39.mtl
o Group31/mesh36/mesh36-geometry#mesh36-geometry
v -0.25368314 0.30562157 -0.16081422
v -0.17903253 0.21436565 -0.21273941
v -0.17892905 0.30596385 -0.21275894
v -0.27717362 0.21427134 -0.13826704
v -0.13918765 0.30586643 -0.23128085
v -0.34696744 0.30595180 -0.03912661
v -0.06281121 0.21438707 -0.25339328
v -0.35465535 0.21435801 -0.02227354
v 0.00504527 0.30590721 -0.25978785
v -0.38746667 0.26005445 0.12335089
v 0.07671390 0.21428184 -0.25375208
v -0.38746227 0.28303340 0.12354815
v -0.38738633 0.23709283 0.12344184
v 0.16587052 0.30598482 -0.22692297
v -0.38740929 0.30583134 0.12340173
v -0.38752100 0.21431674 0.12349847
v 0.21629739 0.21438634 -0.20039977
v 0.30302335 0.30580901 -0.12760920
v 0.32644968 0.21429634 -0.09912084
v 0.38299601 0.30587429 0.01015431
v 0.38826757 0.21428963 0.02613411
v 0.40338794 0.26003328 0.14831296
v 0.40355738 0.23731755 0.14835941
v 0.40343522 0.28281687 0.14809275
v 0.40346246 0.21434941 0.14823130
v 0.40337646 0.30581764 0.14831882
vn 0.6624682134561802 -0.004650001035868886 0.74907559274785
vn 0.4856024586793529 0.022460999780567648 0.8738911577613225
vn 0.4985241290484151 0 0.8668758231468445
vn -0.4985241290484151 0 -0.8668758231468445
vn -0.4856024586793529 -0.022460999780567648 -0.8738911577613225
vn -0.6624682134561802 0.004650001035868886 -0.74907559274785
vn 0.7510606686686638 0.005678000357385004 0.6602087793197854
vn -0.7510606686686638 -0.005678000357385004 -0.6602087793197854
vn 0.3167810862158819 -0.008809999077310803 0.9484577625451456
vn -0.3167810862158819 0.008809999077310803 -0.9484577625451456
vn 0.9239372069573784 -0.012997000354265566 0.3823233128931453
vn -0.9239372069573784 0.012997000354265566 -0.3823233128931453
vn 0.17676878388312245 0.013925000641232808 0.9841538961979593
vn -0.17676878388312245 -0.013925000641232808 -0.9841538961979593
vn 0.9506275323919807 -0.0023239995600365733 0.3103254641249712
vn -0.9506275323919807 0.0023239995600365733 -0.3103254641249712
vn -0.0015976785314132699 -0.033535005510455344 0.9994362665166419
vn 0.0015976785314132699 0.033535005510455344 -0.9994362665166419
vn 0.9728544580081674 -0.013278001965409892 0.23103657328968888
vn -0.9728544580081674 0.013278001965409892 -0.23103657328968888
vn -0.186872811568524 0.0164379932693915 0.9822465803828234
vn 0.186872811568524 -0.0164379932693915 -0.9822465803828234
vn 0.9702604093420759 0 0.24206350006423336
vn -0.9702604093420759 0 -0.24206350006423336
vn 0.9755904185225241 0 0.219598122230237
vn -0.9755904185225241 0 -0.219598122230237
vn -0.3867038675771268 -0.03650000341287782 0.921481344657477
vn 0.3867038675771268 0.03650000341287782 -0.921481344657477
vn -0.5471013807072896 0.01429199356681821 0.8369443339601884
vn 0.5471013807072896 -0.01429199356681821 -0.8369443339601884
vn -0.7204051632580433 -0.03177399608458572 0.6928252405361461
vn 0.7204051632580433 0.03177399608458572 -0.6928252405361461
vn -0.8236082695106537 0.00787300157749405 0.5671044297480202
vn 0.8236082695106537 -0.00787300157749405 -0.5671044297480202
vn -0.9603987517985237 -0.013109997866420002 0.2783206163757548
vn 0.9603987517985237 0.013109997866420002 -0.2783206163757548
vn -0.9779274958300302 -0.0004500000591411705 0.20894403652546062
vn 0.9779274958300302 0.0004500000591411705 -0.20894403652546062
vn -0.9907593952020075 -0.010058000717935027 0.13525774447516917
vn 0.9907593952020075 0.010058000717935027 -0.13525774447516917
vn -0.9922101382252132 0 0.12457544542606881
vn 0.9922101382252132 0 -0.12457544542606881
vn -0.9893579876996808 0 0.14550179440418712
vn 0.9893579876996808 0 -0.14550179440418712
usemtl material_0_0
f 1//1 2//2 3//3
f 3//4 2//5 1//6
f 1//1 4//7 2//2
f 2//5 4//8 1//6
f 3//3 2//2 5//9
f 5//10 2//5 3//4
f 1//1 6//11 4//7
f 4//8 6//12 1//6
f 5//9 2//2 7//13
f 7//14 2//5 5//10
f 4//7 6//11 8//15
f 8//16 6//12 4//8
f 5//9 7//13 9//17
f 9//18 7//14 5//10
f 6//11 10//19 8//15
f 8//16 10//20 6//12
f 9//17 7//13 11//21
f 11//22 7//14 9//18
f 6//11 12//23 10//19
f 10//20 12//24 6//12
f 8//15 10//19 13//25
f 13//26 10//20 8//16
f 9//17 11//21 14//27
f 14//28 11//22 9//18
f 6//11 15//23 12//23
f 12//24 15//24 6//12
f 8//15 13//25 16//25
f 16//26 13//26 8//16
f 14//27 11//21 17//29
f 17//30 11//22 14//28
f 14//27 17//29 18//31
f 18//32 17//30 14//28
f 18//31 17//29 19//33
f 19//34 17//30 18//32
f 18//31 19//33 20//35
f 20//36 19//34 18//32
f 19//33 21//37 20//35
f 20//36 21//38 19//34
f 20//35 21//37 22//39
f 22//40 21//38 20//36
f 21//37 23//41 22//39
f 22//40 23//42 21//38
f 20//35 22//39 24//43
f 24//44 22//40 20//36
f 21//37 25//41 23//41
f 23//42 25//42 21//38
f 20//35 24//43 26//43
f 26//44 24//44 20//36
