# SSTK version 0.8.0
# 35
mtllib original_35.mtl
o Group27/mesh32/mesh32-geometry#mesh32-geometry
v -0.00258941 0.18896989 0.47538784
v -0.13685850 0.19167866 0.45509842
v -0.00291082 0.19151587 0.48605492
v -0.13231360 0.18875525 0.44519676
v -0.00233694 0.18046265 0.46654942
v -0.27894160 0.19170777 0.33728293
v -0.12887695 0.18058760 0.43733601
v -0.26992348 0.18885807 0.33089840
v -0.00218100 0.16982163 0.46339225
v -0.34229358 0.19186041 0.12489980
v -0.12744953 0.16955762 0.43444908
v -0.26270207 0.18046907 0.32598880
v -0.33147035 0.18892741 0.12529208
v -0.26565716 0.19158142 -0.08304104
v -0.26037961 0.16950502 0.32425376
v -0.32286137 0.18051643 0.12564392
v -0.25711734 0.18884375 -0.07624233
v -0.11653907 0.19168416 -0.19160203
v -0.31963202 0.16957743 0.12561170
v -0.25038994 0.18043945 -0.07087908
v -0.11267962 0.18895811 -0.18147281
v 0.01901159 0.19174142 -0.21444777
v -0.24820287 0.16963484 -0.06904206
v -0.10960245 0.18048987 -0.17349789
v 0.01870811 0.18892948 -0.20341287
v -0.10850051 0.16952241 -0.17060351
v 0.01839422 0.18051399 -0.19490540
v 0.01818464 0.16962003 -0.19193026
vn 0.09443228276284957 0.9090995192564828 -0.4057346522788373
vn 0.09318989972108621 0.9684976417871701 -0.2309284747333343
vn 0.05744700355417109 0.9673549973470288 -0.24682818090804973
vn -0.05744700355417109 -0.9673549973470288 0.24682818090804973
vn -0.09318989972108621 -0.9684976417871701 0.2309284747333343
vn -0.09443228276284957 -0.9090995192564828 0.4057346522788373
vn 0.20133998009391876 0.8725032960076994 -0.4451968226206035
vn -0.20133998009391876 -0.8725032960076994 0.4451968226206035
vn 0.18470866903643504 0.579701225535414 -0.79361779005736
vn -0.18470866903643504 -0.579701225535414 0.79361779005736
vn 0.1934574853162395 0.9684015602111835 -0.15739320047467822
vn -0.1934574853162395 -0.9684015602111835 0.15739320047467822
vn 0.3724669071147539 0.5132998059932415 -0.7731699116440511
vn -0.3724669071147539 -0.5132998059932415 0.7731699116440511
vn 0.3941759848814908 0.8729370002212894 -0.2874130939734017
vn -0.3941759848814908 -0.8729370002212894 0.2874130939734017
vn 0.2183194496237732 0.2691460561721331 -0.9380282609617684
vn -0.2183194496237732 -0.2691460561721331 0.9380282609617684
vn 0.2494587004771221 0.9681821033137497 -0.019843678571007668
vn -0.2494587004771221 -0.9681821033137497 0.019843678571007668
vn 0.4939782599150506 0.27246008830514595 -0.8256821295220401
vn -0.4939782599150506 -0.27246008830514595 0.8256821295220401
vn 0.7083997771292108 0.5141499831860101 -0.4835489122654606
vn -0.7083997771292108 -0.5141499831860101 0.4835489122654606
vn 0.48754765428940783 0.8730397891133358 -0.009940393444849545
vn -0.48754765428940783 -0.8730397891133358 0.009940393444849545
vn 0.21455644490855813 0.968036725687956 0.1298862181585942
vn -0.21455644490855813 -0.968036725687956 -0.1298862181585942
vn 0.851889891002393 0.2719880216794859 -0.4475557280058099
vn -0.851889891002393 -0.2719880216794859 0.4475557280058099
vn 0.8570960316597344 0.5149997655628901 0.012713535436844229
vn -0.8570960316597344 -0.5149997655628901 -0.012713535436844229
vn 0.40359820256764944 0.8725733820960412 0.2751802749864871
vn -0.40359820256764944 -0.8725733820960412 -0.2751802749864871
vn 0.11517298639181511 0.9681554841741946 0.22228392130116237
vn -0.11517298639181511 -0.9681554841741946 -0.22228392130116237
vn 0.9524728017061537 0.27252811853435954 0.13610285308601042
vn -0.9524728017061537 -0.27252811853435954 -0.13610285308601042
vn 0.6921110389510604 0.5147460037663967 0.50598306431007
vn -0.6921110389510604 -0.5147460037663967 -0.50598306431007
vn 0.20663185848375715 0.8721543265703995 0.4434524841559482
vn -0.20663185848375715 -0.8721543265703995 -0.4434524841559482
vn 0.041905377058931874 0.9673549423001815 0.24993670194863563
vn -0.041905377058931874 -0.9673549423001815 -0.24993670194863563
vn 0.7054742185013075 0.2734100281791429 0.6538754342541471
vn -0.7054742185013075 -0.2734100281791429 -0.6538754342541471
vn 0.34233723077825406 0.5138669325243947 0.7866040910655407
vn -0.34233723077825406 -0.5138669325243947 -0.7866040910655407
vn 0.09454470302400696 0.8204194433108946 0.5638911563125848
vn -0.09454470302400696 -0.8204194433108946 -0.5638911563125848
vn 0.30211974122583424 0.2738350617025772 0.9130925588044077
vn -0.30211974122583424 -0.2738350617025772 -0.9130925588044077
vn 0.14940669755618902 0.428498083984776 0.8911043882434477
vn -0.14940669755618902 -0.428498083984776 -0.8911043882434477
vn 0.159254273258732 0.26914600292010005 0.9498413054615843
vn -0.159254273258732 -0.26914600292010005 -0.9498413054615843
usemtl material_0_0
f 1//1 2//2 3//3
f 3//4 2//5 1//6
f 1//1 4//7 2//2
f 2//5 4//8 1//6
f 5//9 4//7 1//1
f 1//6 4//8 5//10
f 4//7 6//11 2//2
f 2//5 6//12 4//8
f 5//9 7//13 4//7
f 4//8 7//14 5//10
f 4//7 8//15 6//11
f 6//12 8//16 4//8
f 5//9 9//17 7//13
f 7//14 9//18 5//10
f 7//13 8//15 4//7
f 4//8 8//16 7//14
f 8//15 10//19 6//11
f 6//12 10//20 8//16
f 7//13 9//17 11//21
f 11//22 9//18 7//14
f 7//13 12//23 8//15
f 8//16 12//24 7//14
f 8//15 13//25 10//19
f 10//20 13//26 8//16
f 7//13 11//21 12//23
f 12//24 11//22 7//14
f 12//23 13//25 8//15
f 8//16 13//26 12//24
f 14//27 10//19 13//25
f 13//26 10//20 14//28
f 12//23 11//21 15//29
f 15//30 11//22 12//24
f 12//23 16//31 13//25
f 13//26 16//32 12//24
f 17//33 14//27 13//25
f 13//26 14//28 17//34
f 16//31 12//23 15//29
f 15//30 12//24 16//32
f 17//33 13//25 16//31
f 16//32 13//26 17//34
f 18//35 14//27 17//33
f 17//34 14//28 18//36
f 16//31 15//29 19//37
f 19//38 15//30 16//32
f 20//39 17//33 16//31
f 16//32 17//34 20//40
f 21//41 18//35 17//33
f 17//34 18//36 21//42
f 20//39 16//31 19//37
f 19//38 16//32 20//40
f 21//41 17//33 20//39
f 20//40 17//34 21//42
f 22//43 18//35 21//41
f 21//42 18//36 22//44
f 20//39 19//37 23//45
f 23//46 19//38 20//40
f 24//47 21//41 20//39
f 20//40 21//42 24//48
f 22//43 21//41 25//49
f 25//50 21//42 22//44
f 20//39 23//45 24//47
f 24//48 23//46 20//40
f 25//49 21//41 24//47
f 24//48 21//42 25//50
f 24//47 23//45 26//51
f 26//52 23//46 24//48
f 25//49 24//47 27//53
f 27//54 24//48 25//50
f 24//47 26//51 27//53
f 27//54 26//52 24//48
f 27//53 26//51 28//55
f 28//56 26//52 27//54
