# SSTK version 0.8.0
# 98
mtllib original_98.mtl
o mesh92/mesh92-geometry#mesh92-geometry
v 0.00794921 0.92495822 0.13589572
v 0.01517401 0.92422429 0.13733299
v -0.00612623 0.92212559 0.13308080
v 0.02192443 0.92202197 0.13864423
v 0.00066214 0.92408301 0.13445696
v 0.02834770 0.91867444 0.13997110
v -0.01222980 0.91851378 0.13187233
v -0.01783867 0.91406290 0.13067824
v -0.02244882 0.90834705 0.12972403
v -0.02587768 0.90184658 0.12915659
v 0.03388698 0.91395897 0.14092143
v 0.03844037 0.90831301 0.14171867
v 0.04179348 0.90181889 0.14254418
v -0.02788769 0.89492424 0.12884814
v -0.02848217 0.88765096 0.12856435
v 0.04380162 0.89496898 0.14288242
v 0.04454713 0.88769434 0.14309681
v -0.02792205 0.88023247 0.12881963
v 0.04385635 0.88040969 0.14294333
v 0.04188193 0.87323342 0.14239342
v -0.02591959 0.87319656 0.12936692
v -0.02261000 0.86689943 0.12993956
v -0.01782103 0.86116224 0.13076523
v -0.01244859 0.85651995 0.13183334
v 0.03837393 0.86681300 0.14171511
v 0.03384643 0.86113697 0.14091647
v 0.02822880 0.85664116 0.13983635
v -0.00598774 0.85325679 0.13311975
v 0.00072506 0.85089029 0.13437664
v 0.00804479 0.85026712 0.13588955
v 0.01519748 0.85112517 0.13713750
v 0.02203882 0.85318015 0.13856324
vn 0.19320795807172167 0 -0.9811578287603662
vn -0.19320795807172167 0 0.9811578287603662
usemtl material_0_0
f 1//1 2//1 3//1
f 3//2 2//2 1//2
f 2//1 4//1 3//1
f 3//2 4//2 2//2
f 1//1 3//1 5//1
f 5//2 3//2 1//2
f 4//1 6//1 3//1
f 3//2 6//2 4//2
f 3//1 6//1 7//1
f 7//2 6//2 3//2
f 6//1 8//1 7//1
f 7//2 8//2 6//2
f 6//1 9//1 8//1
f 8//2 9//2 6//2
f 6//1 10//1 9//1
f 9//2 10//2 6//2
f 6//1 11//1 10//1
f 10//2 11//2 6//2
f 11//1 12//1 10//1
f 10//2 12//2 11//2
f 12//1 13//1 10//1
f 10//2 13//2 12//2
f 13//1 14//1 10//1
f 10//2 14//2 13//2
f 13//1 15//1 14//1
f 14//2 15//2 13//2
f 13//1 16//1 15//1
f 15//2 16//2 13//2
f 16//1 17//1 15//1
f 15//2 17//2 16//2
f 17//1 18//1 15//1
f 15//2 18//2 17//2
f 17//1 19//1 18//1
f 18//2 19//2 17//2
f 19//1 20//1 18//1
f 18//2 20//2 19//2
f 18//1 20//1 21//1
f 21//2 20//2 18//2
f 20//1 22//1 21//1
f 21//2 22//2 20//2
f 20//1 23//1 22//1
f 22//2 23//2 20//2
f 20//1 24//1 23//1
f 23//2 24//2 20//2
f 20//1 25//1 24//1
f 24//2 25//2 20//2
f 25//1 26//1 24//1
f 24//2 26//2 25//2
f 26//1 27//1 24//1
f 24//2 27//2 26//2
f 27//1 28//1 24//1
f 24//2 28//2 27//2
f 27//1 29//1 28//1
f 28//2 29//2 27//2
f 27//1 30//1 29//1
f 29//2 30//2 27//2
f 27//1 31//1 30//1
f 30//2 31//2 27//2
f 27//1 32//1 31//1
f 31//2 32//2 27//2
