# SSTK version 0.8.0
# 13
mtllib original_13.mtl
o Group7/mesh11/mesh11-geometry#mesh11-geometry
v -0.28814458 0.14652677 -0.17059666
v -0.38709870 0.14663638 -0.02375911
v -0.37783366 0.16183997 -0.01990254
v -0.29039339 0.12952626 -0.17327533
v -0.41568393 0.15193231 0.14323653
v -0.28106219 0.16197391 -0.16338967
v -0.39031523 0.12958674 -0.02505801
v -0.14600901 0.12963014 -0.26529753
v -0.42146579 0.12955871 0.14340960
v -0.39824595 0.16903187 0.14307440
v -0.36345876 0.17169899 -0.01421890
v -0.14385622 0.15208315 -0.25951758
v -0.27049119 0.17182046 -0.15222145
v -0.13758415 0.16908461 -0.24331705
v -0.37626419 0.17473578 0.14240113
v -0.34833772 0.17473188 -0.00809323
v -0.12982687 0.17485397 -0.22308749
v -0.25901884 0.17479667 -0.14053651
v -0.33327324 0.17176392 -0.00195072
v -0.35999720 0.17185746 0.14217284
v -0.24765044 0.17157746 -0.12865216
v -0.31887545 0.16185051 0.00373888
v -0.12394317 0.17179083 -0.20764261
v -0.34458847 0.16197627 0.14210173
v -0.11850393 0.16170859 -0.19339283
v -0.23694605 0.16183433 -0.11768853
v -0.30949412 0.14645352 0.00769839
v -0.33444383 0.14632688 0.14180323
v -0.11476500 0.14660268 -0.18381164
v -0.22996979 0.14651837 -0.11041454
v -0.33115901 0.12946065 0.14167686
v -0.30644567 0.12960611 0.00881659
v -0.11352025 0.12958797 -0.18075409
v -0.22767856 0.12952302 -0.10805551
vn -0.6386535707930469 0.3913159582806337 -0.6625657984745366
vn -0.8739403971907704 0.3289509448372336 -0.3577980688163779
vn -0.669387127594317 0.6886216984150942 -0.2787849168856531
vn 0.669387127594317 -0.6886216984150942 0.2787849168856531
vn 0.8739403971907704 -0.3289509448372336 0.3577980688163779
vn 0.6386535707930469 -0.3913159582806337 0.6625657984745366
vn -0.7320979196646142 0.1899160601553515 -0.6541899770844958
vn 0.7320979196646142 -0.1899160601553515 0.6541899770844958
vn -0.8440773923255239 0.5141378879678239 -0.15230097806950885
vn 0.8440773923255239 -0.5141378879678239 0.15230097806950885
vn -0.4678849292821356 0.7368089340106577 -0.4880535705357855
vn 0.4678849292821356 -0.7368089340106577 0.4880535705357855
vn -0.9086038817129385 0.19041098454767302 -0.37172926048371063
vn 0.9086038817129385 -0.19041098454767302 0.37172926048371063
vn -0.5213671089705169 0.2194198911445021 -0.8246400724278804
vn 0.5213671089705169 -0.2194198911445021 0.8246400724278804
vn -0.9599005795045036 0.21942003747145994 -0.17448703282175757
vn 0.9599005795045036 -0.21942003747145994 0.17448703282175757
vn -0.507857410186466 0.85673109040998 -0.0899593777414146
vn 0.507857410186466 -0.85673109040998 0.0899593777414146
vn -0.3478881929308991 0.9249287565190114 -0.15323381018387897
vn 0.3478881929308991 -0.9249287565190114 0.15323381018387897
vn -0.45740844814604004 0.5141379844792023 -0.7255616062611739
vn 0.45740844814604004 -0.5141379844792023 0.7255616062611739
vn -0.22066672470414014 0.9478264761795774 -0.23006774580838651
vn 0.22066672470414014 -0.9478264761795774 0.23006774580838651
vn -0.27365553349770927 0.8567311647554158 -0.4371777216681025
vn 0.27365553349770927 -0.8567311647554158 0.4371777216681025
vn -0.016541698796231064 0.9998623695422011 -0.0012705016291932418
vn 0.016541698796231064 -0.9998623695422011 0.0012705016291932418
vn -0.03177085350026643 0.9992654185673898 -0.02142979522076123
vn 0.03177085350026643 -0.9992654185673898 0.02142979522076123
vn -0.0073744958694121066 0.9998623658577053 -0.014861566273576585
vn 0.0073744958694121066 -0.9998623658577053 0.014861566273576585
vn 0.03177085350026642 0.99926541856739 0.021429795220760346
vn -0.03177085350026642 -0.99926541856739 -0.021429795220760346
vn 0.2855543019281728 0.9512091908111561 0.11687521536536151
vn -0.2855543019281728 -0.9512091908111561 -0.11687521536536151
vn 0.42993093193714116 0.8993384974848623 0.07968475830001533
vn -0.42993093193714116 -0.8993384974848623 -0.07968475830001533
vn 0.27234530296711096 0.9182401761933194 0.2875117645874936
vn -0.27234530296711096 -0.9182401761933194 -0.2875117645874936
vn 0.602106141974061 0.7594442233404278 0.24639940225569984
vn -0.602106141974061 -0.7594442233404278 -0.24639940225569984
vn 0.20234387739425333 0.9263798442176628 0.31761193225116485
vn -0.20234387739425333 -0.9263798442176628 -0.31761193225116485
vn 0.7427448235373675 0.6552701273301379 0.13766331151468839
vn -0.7427448235373675 -0.6552701273301379 -0.13766331151468839
vn 0.35364295252675854 0.7528594563150306 0.5551029644716312
vn -0.35364295252675854 -0.7528594563150306 -0.5551029644716312
vn 0.5225120565270563 0.6628518689296733 0.5362914791792852
vn -0.5225120565270563 -0.6628518689296733 -0.5362914791792852
vn 0.8561707993600651 0.4070192482111994 0.31828743913126245
vn -0.8561707993600651 -0.4070192482111994 -0.31828743913126245
vn 0.9118180672110408 0.3742018966317921 0.16899926882886682
vn -0.9118180672110408 -0.3742018966317921 -0.16899926882886682
vn 0.4839248451589272 0.4345352312412442 0.7596024467101372
vn -0.4839248451589272 -0.4345352312412442 -0.7596024467101372
vn 0.6615817812428182 0.31801304123691293 0.6791003256742182
vn -0.6615817812428182 -0.31801304123691293 -0.6791003256742182
vn 0.9659607947343888 0.1867250162168817 0.1790349445078062
vn -0.9659607947343888 -0.1867250162168817 -0.1790349445078062
vn 0.8808028492183594 0.18991602963820314 0.4337259993305467
vn -0.8808028492183594 -0.18991602963820314 -0.4337259993305467
vn 0.5278535350352657 0.18672494568564282 0.8285556349512491
vn -0.5278535350352657 -0.18672494568564282 -0.8285556349512491
vn 0.6850299841924419 0.19041107817794956 0.7031909712620134
vn -0.6850299841924419 -0.19041107817794956 -0.7031909712620134
usemtl material_0_0
f 1//1 2//2 3//3
f 3//4 2//5 1//6
f 4//7 2//2 1//1
f 1//6 2//5 4//8
f 2//2 5//9 3//3
f 3//4 5//10 2//5
f 1//1 3//3 6//11
f 6//12 3//4 1//6
f 4//7 7//13 2//2
f 2//5 7//14 4//8
f 1//1 8//15 4//7
f 4//8 8//16 1//6
f 2//2 9//17 5//9
f 5//10 9//18 2//5
f 3//3 5//9 10//19
f 10//20 5//10 3//4
f 6//11 3//3 11//21
f 11//22 3//4 6//12
f 6//11 12//23 1//1
f 1//6 12//24 6//12
f 7//13 9//17 2//2
f 2//5 9//18 7//14
f 12//23 8//15 1//1
f 1//6 8//16 12//24
f 11//21 3//3 10//19
f 10//20 3//4 11//22
f 13//25 6//11 11//21
f 11//22 6//12 13//26
f 14//27 12//23 6//11
f 6//12 12//24 14//28
f 11//21 10//19 15//29
f 15//30 10//20 11//22
f 14//27 6//11 13//25
f 13//26 6//12 14//28
f 13//25 11//21 16//31
f 16//32 11//22 13//26
f 16//31 11//21 15//29
f 15//30 11//22 16//32
f 17//33 14//27 13//25
f 13//26 14//28 17//34
f 18//35 13//25 16//31
f 16//32 13//26 18//36
f 19//37 16//31 15//29
f 15//30 16//32 19//38
f 17//33 13//25 18//35
f 18//36 13//26 17//34
f 18//35 16//31 19//37
f 19//38 16//32 18//36
f 19//37 15//29 20//39
f 20//40 15//30 19//38
f 17//33 18//35 21//41
f 21//42 18//36 17//34
f 21//41 18//35 19//37
f 19//38 18//36 21//42
f 22//43 19//37 20//39
f 20//40 19//38 22//44
f 23//45 17//33 21//41
f 21//42 17//34 23//46
f 21//41 19//37 22//43
f 22//44 19//38 21//42
f 22//43 20//39 24//47
f 24//48 20//40 22//44
f 25//49 23//45 21//41
f 21//42 23//46 25//50
f 26//51 21//41 22//43
f 22//44 21//42 26//52
f 22//43 24//47 27//53
f 27//54 24//48 22//44
f 25//49 21//41 26//51
f 26//52 21//42 25//50
f 26//51 22//43 27//53
f 27//54 22//44 26//52
f 27//53 24//47 28//55
f 28//56 24//48 27//54
f 26//51 29//57 25//49
f 25//50 29//58 26//52
f 26//51 27//53 30//59
f 30//60 27//54 26//52
f 27//53 28//55 31//61
f 31//62 28//56 27//54
f 26//51 30//59 29//57
f 29//58 30//60 26//52
f 30//59 27//53 32//63
f 32//64 27//54 30//60
f 27//53 31//61 32//63
f 32//64 31//62 27//54
f 30//59 33//65 29//57
f 29//58 33//66 30//60
f 30//59 32//63 34//67
f 34//68 32//64 30//60
f 30//59 34//67 33//65
f 33//66 34//68 30//60
