# SSTK version 0.8.0
# 7
mtllib original_7.mtl
o Group4/mesh6/mesh6-geometry#mesh6-geometry
v 0.03506711 0.10703809 -0.55266385
v 0.03778573 0.10692272 -0.40028268
v 0.04016546 0.11159529 -0.40041277
v 0.03155614 0.09871803 -0.39993554
v 0.03916794 0.11630586 -0.55292698
v 0.02613875 0.09601916 -0.55260857
v 0.04386663 0.12783465 -0.40029868
v 0.01722593 0.08841558 -0.39973742
v 0.04113304 0.12789598 -0.55281172
v 0.01272754 0.08746444 -0.55235790
v 0.03795844 0.14621921 -0.55278216
v -0.00284509 0.08440357 -0.47589808
v 0.04065749 0.14625426 -0.40018102
v -0.00344421 0.08430893 -0.51399535
v -0.00206598 0.08433938 -0.43762613
v 0.02713406 0.16246023 -0.55277710
v -0.00401839 0.08440351 -0.55222487
v -0.00122913 0.08442625 -0.39962142
v 0.02984502 0.16239251 -0.40005214
v 0.01165335 0.17194745 -0.55235996
v 0.01427176 0.17202750 -0.39964569
v -0.00272444 0.17469703 -0.47575479
v -0.00195416 0.17483735 -0.43768218
v -0.00334611 0.17479173 -0.51388294
v -0.00139744 0.17495201 -0.39950339
v -0.00405412 0.17492673 -0.55198147
vn -0.8530508475970382 0.521579796683019 0.016086239649934123
vn -0.8507325183346681 0.5253890671539214 0.014849591344077461
vn -0.9331677142622229 0.3591090835239346 0.015449375042964637
vn 0.9331677142622229 -0.3591090835239346 -0.015449375042964637
vn 0.8507325183346681 -0.5253890671539214 -0.014849591344077461
vn 0.8530508475970382 -0.521579796683019 -0.016086239649934123
vn -0.727843817542412 0.685631096961271 0.012384512302569218
vn 0.727843817542412 -0.685631096961271 -0.012384512302569218
vn -0.9645540333076311 0.26340008659055375 0.015997225199073626
vn 0.9645540333076311 -0.26340008659055375 -0.015997225199073626
vn -0.6363062352868625 0.7713509213819897 0.011494825714890628
vn 0.6363062352868625 -0.7713509213819897 -0.011494825714890628
vn -0.9997884518866779 0.0125219994197243 0.01631719965472044
vn 0.9997884518866779 -0.0125219994197243 -0.01631719965472044
vn -0.3533016026555031 0.9354946041506873 0.005274766914481706
vn 0.3533016026555031 -0.9354946041506873 -0.005274766914481706
vn -0.9998452246674904 -0.0022229989532645037 0.017452363314739348
vn 0.9998452246674904 0.0022229989532645037 -0.017452363314739348
vn -0.2804221078933318 0.9598651068958635 0.004734761710277096
vn 0.2804221078933318 -0.9598651068958635 -0.004734761710277096
vn -0.9518759161934691 -0.30603297222291853 0.016615055920763743
vn 0.9518759161934691 0.30603297222291853 -0.016615055920763743
vn -0.2005044357197371 0.979689374239943 0.0025886788249813632
vn 0.2005044357197371 -0.979689374239943 -0.0025886788249813632
vn -0.8983878917550614 -0.4389228736881103 0.015681418981309307
vn 0.8983878917550614 0.4389228736881103 -0.015681418981309307
vn -0.18895313392196814 0.9819805675923172 0.0032981892209977114
vn 0.18895313392196814 -0.9819805675923172 -0.0032981892209977114
vn -0.2115716655243156 0.9773555095865848 0.0036929971586976296
vn 0.2115716655243156 -0.9773555095865848 -0.0036929971586976296
vn -0.7427666607922725 -0.6694248242676388 0.012965040290644781
vn 0.7427666607922725 0.6694248242676388 -0.012965040290644781
vn -0.6411163935865207 -0.767362064136124 0.01119072827659776
vn 0.6411163935865207 0.767362064136124 -0.01119072827659776
vn -0.323000766843724 -0.9463819089467082 0.005637999357121694
vn 0.323000766843724 0.9463819089467082 -0.005637999357121694
vn -0.26812812667348335 -0.9633718926105326 0.00468019386016743
vn 0.26812812667348335 0.9633718926105326 -0.00468019386016743
vn -0.17634215920784743 -0.9843241175593128 0.0030780638385554974
vn 0.17634215920784743 0.9843241175593128 -0.0030780638385554974
usemtl material_0_0
f 1//1 2//2 3//3
f 3//4 2//5 1//6
f 1//1 4//7 2//2
f 2//5 4//8 1//6
f 1//1 3//3 5//9
f 5//10 3//4 1//6
f 6//11 4//7 1//1
f 1//6 4//8 6//12
f 5//9 3//3 7//13
f 7//14 3//4 5//10
f 4//7 6//11 8//15
f 8//16 6//12 4//8
f 5//9 7//13 9//17
f 9//18 7//14 5//10
f 6//11 10//19 8//15
f 8//16 10//20 6//12
f 9//17 7//13 11//21
f 11//22 7//14 9//18
f 8//15 10//19 12//23
f 12//24 10//20 8//16
f 11//21 7//13 13//25
f 13//26 7//14 11//22
f 10//19 14//27 12//23
f 12//24 14//28 10//20
f 8//15 12//23 15//29
f 15//30 12//24 8//16
f 11//21 13//25 16//31
f 16//32 13//26 11//22
f 10//19 17//27 14//27
f 14//28 17//28 10//20
f 8//15 15//29 18//29
f 18//30 15//30 8//16
f 16//31 13//25 19//33
f 19//34 13//26 16//32
f 19//33 20//35 16//31
f 16//32 20//36 19//34
f 19//33 21//37 20//35
f 20//36 21//38 19//34
f 21//37 22//39 20//35
f 20//36 22//40 21//38
f 21//37 23//39 22//39
f 22//40 23//40 21//38
f 20//35 22//39 24//39
f 24//40 22//40 20//36
f 21//37 25//39 23//39
f 23//40 25//40 21//38
f 20//35 24//39 26//39
f 26//40 24//40 20//36
