# SSTK version 0.8.0
# 107
mtllib original_107.mtl
o mesh100/mesh100-geometry#mesh100-geometry
v -0.02969446 0.91235213 0.32682720
v -0.03000228 0.91208518 0.32665292
v -0.03126838 0.91160873 0.33307927
v -0.02828661 0.91276836 0.32030116
v -0.02875993 0.91269349 0.32039744
v -0.02731021 0.91313580 0.31373792
vn -0.028063871818465425 0.9958775873955525 0.08625688390946121
vn -0.027675831444289197 0.9960407633143479 0.08447985659338475
vn -0.029272273549486538 0.9953679573081717 0.09157381484574043
vn 0.029272273549486538 -0.9953679573081717 -0.09157381484574043
vn 0.027675831444289197 -0.9960407633143479 -0.08447985659338475
vn 0.028063871818465425 -0.9958775873955525 -0.08625688390946121
vn -0.026088226482548688 0.9966590435804128 0.07739609349555282
vn 0.026088226482548688 -0.9966590435804128 -0.07739609349555282
vn -0.02570407374953108 0.9968049672798777 0.0756251135459708
vn 0.02570407374953108 -0.9968049672798777 -0.0756251135459708
vn -0.02450942161649771 0.9972230936178125 0.07032346555271635
vn 0.02450942161649771 -0.9972230936178125 -0.07032346555271635
usemtl material_0_0
f 1//1 2//2 3//3
f 3//4 2//5 1//6
f 4//7 2//2 1//1
f 1//6 2//5 4//8
f 4//7 5//9 2//2
f 2//5 5//10 4//8
f 6//11 5//9 4//7
f 4//8 5//10 6//12
