# SSTK version 0.8.0
# 4
mtllib original_4.mtl
o mesh3/mesh3-geometry#mesh3-geometry
v -0.05151157 0.08443354 -0.68131911
v -0.05117138 0.17484846 -0.66439823
v -0.05154704 0.17484722 -0.68128208
v -0.05115629 0.08443974 -0.66433212
v 0.03876416 0.17485968 -0.68287507
v 0.03926995 0.08433738 -0.66593922
v 0.03920319 0.17465393 -0.66575748
v 0.03890507 0.08450402 -0.68275098
vn -0.9998476951563914 0 0.01745240643728352
vn 0.9998476951563914 0 -0.01745240643728352
vn 0 1 0
vn 0 -1 0
usemtl material_0_0
f 1//1 2//1 3//1
f 3//2 2//2 1//2
f 1//1 4//1 2//1
f 2//2 4//2 1//2
f 5//3 3//3 2//3
f 2//4 3//4 5//4
f 6//4 4//4 1//4
f 1//3 4//3 6//3
f 5//3 2//3 7//3
f 7//4 2//4 5//4
f 8//4 6//4 1//4
f 1//3 6//3 8//3
f 5//2 7//2 6//2
f 6//1 7//1 5//1
f 5//2 6//2 8//2
f 8//1 6//1 5//1
