# SSTK version 0.8.0
# 80
mtllib original_80.mtl
o Group64/mesh75/mesh75-geometry#mesh75-geometry
v -0.01396922 0.97620587 0.24658976
v -0.05489825 0.97517666 0.22993621
v -0.01397926 0.97506931 0.24667891
v -0.05462347 0.97632465 0.22968106
v -0.09398547 0.97517082 0.18511754
v -0.01370713 0.97764387 0.24614653
v -0.09371800 0.97637696 0.18490920
v -0.05451818 0.97765058 0.22951075
v -0.10297240 0.97503404 0.11395725
v -0.01350541 0.97856116 0.24560032
v -0.10279665 0.97639345 0.11417163
v -0.09320312 0.97775968 0.18474974
v -0.05408985 0.97871496 0.22867035
v -0.06766419 0.97504248 0.05174337
v -0.01328110 0.97978285 0.24455447
v -0.10229472 0.97774283 0.11412874
v -0.06752311 0.97643586 0.05188843
v -0.09272569 0.97876906 0.18429646
v -0.05352383 0.97983052 0.22792054
v -0.01471207 0.97508987 0.02527766
v -0.01337600 0.98034519 0.24324202
v -0.10174544 0.97885379 0.11436436
v -0.06722235 0.97763001 0.05229345
v -0.01454191 0.97623681 0.02510713
v -0.09175501 0.97969472 0.18404012
v -0.05276595 0.98029309 0.22695435
v 0.02982518 0.97500222 0.02489198
v -0.01293010 0.98073205 0.24210769
v -0.10069087 0.97958315 0.11451265
v -0.06685654 0.97866434 0.05278219
v -0.01451391 0.97745753 0.02564654
v 0.02975734 0.97620735 0.02511834
v -0.09065356 0.98039824 0.18333336
v -0.05215969 0.98083317 0.22600298
v -0.09949810 0.98034501 0.11471371
v -0.06612114 0.97976126 0.05361597
v -0.01419216 0.97861750 0.02653696
v 0.02959757 0.97756294 0.02548881
v -0.08969734 0.98055501 0.18287503
v -0.09830683 0.98069456 0.11503616
v -0.06545130 0.98043960 0.05437240
v -0.01400579 0.97957750 0.02731616
v 0.02956914 0.97874255 0.02615590
v -0.06449759 0.98059177 0.05539958
v -0.01391337 0.98035314 0.02861680
v 0.02940103 0.97963506 0.02729108
v -0.01351743 0.98054464 0.02972495
v 0.02910907 0.98024632 0.02842335
v 0.02891526 0.98062166 0.02964437
vn -0.3753432082317566 0.18419490558668927 0.9083995336800889
vn -0.5152953728653062 0.11169405315789357 0.8497029582111426
vn -0.3795744026960715 0.10965701728880126 0.9186395437696138
vn 0.3795744026960715 -0.10965701728880126 -0.9186395437696138
vn 0.5152953728653062 -0.11169405315789357 -0.8497029582111426
vn 0.3753432082317566 -0.18419490558668927 -0.9083995336800889
vn -0.5706084897558735 0.22565906866287522 0.7896099898992698
vn 0.5706084897558735 -0.22565906866287522 -0.7896099898992698
vn -0.8614773562403154 0.11150901216418449 0.49540135737739427
vn 0.8614773562403154 -0.11150901216418449 -0.49540135737739427
vn -0.3493820367825374 0.4036660306955739 0.8455684052967956
vn 0.3493820367825374 -0.4036660306955739 -0.8455684052967956
vn -0.8900272389197782 0.22580098126100331 0.3960624077622167
vn 0.8900272389197782 -0.22580098126100331 -0.3960624077622167
vn -0.5260425684777649 0.44676600375819603 0.7236569311733618
vn 0.5260425684777649 -0.44676600375819603 -0.7236569311733618
vn -0.9903211077254794 0.11112599822081716 -0.08315717715751361
vn 0.9903211077254794 -0.11112599822081716 0.08315717715751361
vn -0.30282062145952565 0.609250060321547 0.7328806418626828
vn 0.30282062145952565 -0.609250060321547 -0.7328806418626828
vn -0.9553422823753461 0.22564596265221148 -0.1908010037830544
vn 0.9553422823753461 -0.22564596265221148 0.1908010037830544
vn -0.8185398359294821 0.44700898328432304 0.36079842829432124
vn 0.8185398359294821 -0.44700898328432304 -0.36079842829432124
vn -0.4500213043541221 0.648310116195012 0.6141456007060739
vn 0.4500213043541221 -0.648310116195012 -0.6141456007060739
vn -0.7539613210878302 0.11089303087450898 -0.6474913605654976
vn 0.7539613210878302 -0.11089303087450898 0.6474913605654976
vn -0.23797657971337008 0.7820819854438904 0.5759469728647494
vn 0.23797657971337008 -0.7820819854438904 -0.5759469728647494
vn -0.876574051114675 0.4470469760550469 -0.17823280874307512
vn 0.876574051114675 -0.4470469760550469 0.17823280874307512
vn -0.669996473958291 0.22523603682237825 -0.7073708027618931
vn 0.669996473958291 -0.22523603682237825 0.7073708027618931
vn -0.6979792100522751 0.6485668448923391 0.3036215902092578
vn 0.6979792100522751 -0.6485668448923391 -0.3036215902092578
vn -0.34757669470273544 0.8119609627922958 0.4689454511997416
vn 0.34757669470273544 -0.8119609627922958 -0.4689454511997416
vn -0.30632548015762767 0.11109697769028444 -0.945421684622414
vn 0.30632548015762767 -0.11109697769028444 0.945421684622414
vn -0.16041002391997872 0.9074979720064107 0.38822165708554146
vn 0.16041002391997872 -0.9074979720064107 -0.38822165708554146
vn -0.7450024020680543 0.6487628412380206 -0.15517150750572714
vn 0.7450024020680543 -0.6487628412380206 0.15517150750572714
vn -0.6134135317783397 0.4466357789508513 -0.651337331950342
vn 0.6134135317783397 -0.4466357789508513 0.651337331950342
vn -0.22487558667112145 0.2251139885348319 -0.9480267204489853
vn 0.22487558667112145 -0.2251139885348319 0.9480267204489853
vn -0.5366615633735127 0.8121359854838816 0.22897490578581264
vn 0.5366615633735127 -0.8121359854838816 -0.22897490578581264
vn -0.22813641921813738 0.9256888480384684 0.30175143884253397
vn 0.22813641921813738 -0.9256888480384684 -0.30175143884253397
vn -0.0029465297304008715 0.10965701728880041 -0.9939651183627479
vn 0.0029465297304008715 -0.10965701728880041 0.9939651183627479
vn -0.10461998363190192 0.9617407378458602 0.25319836530388734
vn 0.10461998363190192 -0.9617407378458602 -0.25319836530388734
vn -0.5700197013459876 0.8123778473066926 -0.12296248729907513
vn 0.5700197013459876 -0.8123778473066926 0.12296248729907513
vn -0.5197786413774986 0.6484701319150497 -0.5561624330911246
vn 0.5197786413774986 -0.6484701319150497 0.5561624330911246
vn -0.20454059792061974 0.4464099820630237 -0.8711379177356283
vn 0.20454059792061974 -0.4464099820630237 0.8711379177356283
vn -0.0028644195226452977 0.258105117791588 -0.9661125934747918
vn 0.0028644195226452977 -0.258105117791588 0.9661125934747918
vn -0.3495952696485006 0.9257512511475537 0.14411026486038636
vn 0.3495952696485006 -0.9257512511475537 -0.14411026486038636
vn -0.17514605349031304 0.9626710890263827 0.20636916993467586
vn 0.17514605349031304 -0.9626710890263827 -0.20636916993467586
vn -0.3681538255616406 0.9259218014911834 -0.08444867226695153
vn 0.3681538255616406 -0.9259218014911834 0.08444867226695153
vn -0.395763535401823 0.812259042265494 -0.4284932581782266
vn 0.395763535401823 -0.812259042265494 0.4284932581782266
vn -0.17180958707273852 0.6482218271665815 -0.7418152927614214
vn 0.17180958707273852 -0.6482218271665815 0.7418152927614214
vn -0.0026090236799164407 0.47512420973032476 -0.8799148699297973
vn 0.0026090236799164407 -0.47512420973032476 0.8799148699297973
vn -0.257511479872757 0.9625330036489628 0.0849591350017684
vn 0.257511479872757 -0.9625330036489628 -0.0849591350017684
vn -0.25806966793178243 0.9627019270671486 -0.08127143480201206
vn 0.25806966793178243 -0.9627019270671486 0.08127143480201206
vn -0.2531019914852909 0.9259339425768193 -0.2803314393540747
vn 0.2531019914852909 -0.9259339425768193 0.2803314393540747
vn -0.12905280551957826 0.8120803056488124 -0.569096609166543
vn 0.12905280551957826 -0.8120803056488124 0.569096609166543
vn -0.0021965630782056393 0.6717542765088953 -0.7407707925550615
vn 0.0021965630782056393 -0.6717542765088953 0.7407707925550615
vn -0.16577695940261902 0.9629566932747494 -0.2126791165314131
vn 0.16577695940261902 -0.9629566932747494 0.2126791165314131
vn -0.08032111960868195 0.9258619590523668 -0.3692264217584127
vn 0.08032111960868195 -0.9258619590523668 0.3692264217584127
vn -0.0016536778552326643 0.8299553696663534 -0.5578273475830471
vn 0.0016536778552326643 -0.8299553696663534 0.5578273475830471
vn -0.04232118475539551 0.9630687488865979 -0.265908823168587
vn 0.04232118475539551 -0.9630687488865979 0.265908823168587
vn -0.001030854421767332 0.9375522066515297 -0.3478430639555836
vn 0.001030854421767332 -0.9375522066515297 0.3478430639555836
vn -0.0008123942285849329 0.9617406188954483 -0.273960438717377
vn 0.0008123942285849329 -0.9617406188954483 0.273960438717377
usemtl material_0_0
f 1//1 2//2 3//3
f 3//4 2//5 1//6
f 4//7 2//2 1//1
f 1//6 2//5 4//8
f 5//9 2//2 4//7
f 4//8 2//5 5//10
f 6//11 4//7 1//1
f 1//6 4//8 6//12
f 7//13 5//9 4//7
f 4//8 5//10 7//14
f 8//15 4//7 6//11
f 6//12 4//8 8//16
f 9//17 5//9 7//13
f 7//14 5//10 9//18
f 7//13 4//7 8//15
f 8//16 4//8 7//14
f 10//19 8//15 6//11
f 6//12 8//16 10//20
f 9//17 7//13 11//21
f 11//22 7//14 9//18
f 12//23 7//13 8//15
f 8//16 7//14 12//24
f 13//25 8//15 10//19
f 10//20 8//16 13//26
f 11//21 7//13 12//23
f 12//24 7//14 11//22
f 14//27 9//17 11//21
f 11//22 9//18 14//28
f 12//23 8//15 13//25
f 13//26 8//16 12//24
f 15//29 13//25 10//19
f 10//20 13//26 15//30
f 11//21 12//23 16//31
f 16//32 12//24 11//22
f 14//27 11//21 17//33
f 17//34 11//22 14//28
f 18//35 12//23 13//25
f 13//26 12//24 18//36
f 15//29 19//37 13//25
f 13//26 19//38 15//30
f 16//31 12//23 18//35
f 18//36 12//24 16//32
f 17//33 11//21 16//31
f 16//32 11//22 17//34
f 17//33 20//39 14//27
f 14//28 20//40 17//34
f 19//37 18//35 13//25
f 13//26 18//36 19//38
f 21//41 19//37 15//29
f 15//30 19//38 21//42
f 16//31 18//35 22//43
f 22//44 18//36 16//32
f 17//33 16//31 23//45
f 23//46 16//32 17//34
f 24//47 20//39 17//33
f 17//34 20//40 24//48
f 19//37 25//49 18//35
f 18//36 25//50 19//38
f 21//41 26//51 19//37
f 19//38 26//52 21//42
f 25//49 22//43 18//35
f 18//36 22//44 25//50
f 23//45 16//31 22//43
f 22//44 16//32 23//46
f 23//45 24//47 17//33
f 17//34 24//48 23//46
f 24//47 27//53 20//39
f 20//40 27//54 24//48
f 26//51 25//49 19//37
f 19//38 25//50 26//52
f 28//55 26//51 21//41
f 21//42 26//52 28//56
f 25//49 29//57 22//43
f 22//44 29//58 25//50
f 23//45 22//43 30//59
f 30//60 22//44 23//46
f 31//61 24//47 23//45
f 23//46 24//48 31//62
f 32//63 27//53 24//47
f 24//48 27//54 32//64
f 26//51 33//65 25//49
f 25//50 33//66 26//52
f 28//55 34//67 26//51
f 26//52 34//68 28//56
f 33//65 29//57 25//49
f 25//50 29//58 33//66
f 30//59 22//43 29//57
f 29//58 22//44 30//60
f 30//59 31//61 23//45
f 23//46 31//62 30//60
f 31//61 32//63 24//47
f 24//48 32//64 31//62
f 34//67 33//65 26//51
f 26//52 33//66 34//68
f 33//65 35//69 29//57
f 29//58 35//70 33//66
f 36//71 30//59 29//57
f 29//58 30//60 36//72
f 37//73 31//61 30//59
f 30//60 31//62 37//74
f 38//75 32//63 31//61
f 31//62 32//64 38//76
f 34//67 39//77 33//65
f 33//66 39//78 34//68
f 39//77 35//69 33//65
f 33//66 35//70 39//78
f 36//71 29//57 35//69
f 35//70 29//58 36//72
f 37//73 30//59 36//71
f 36//72 30//60 37//74
f 37//73 38//75 31//61
f 31//62 38//76 37//74
f 39//77 40//79 35//69
f 35//70 40//80 39//78
f 41//81 36//71 35//69
f 35//70 36//72 41//82
f 42//83 37//73 36//71
f 36//72 37//74 42//84
f 43//85 38//75 37//73
f 37//74 38//76 43//86
f 41//81 35//69 40//79
f 40//80 35//70 41//82
f 42//83 36//71 41//81
f 41//82 36//72 42//84
f 43//85 37//73 42//83
f 42//84 37//74 43//86
f 44//87 41//81 40//79
f 40//80 41//82 44//88
f 45//89 42//83 41//81
f 41//82 42//84 45//90
f 43//85 42//83 46//91
f 46//92 42//84 43//86
f 45//89 41//81 44//87
f 44//88 41//82 45//90
f 46//91 42//83 45//89
f 45//90 42//84 46//92
f 47//93 45//89 44//87
f 44//88 45//90 47//94
f 46//91 45//89 48//95
f 48//96 45//90 46//92
f 48//95 45//89 47//93
f 47//94 45//90 48//96
f 48//95 47//93 49//97
f 49//98 47//94 48//96
