# SSTK version 0.8.0
# 74
mtllib original_74.mtl
o mesh69/mesh69-geometry#mesh69-geometry
v 0.16501770 0.59139868 0.13299491
v 0.16143087 0.59147111 0.10204634
v 0.06409702 0.59129138 0.13490404
v 0.15195175 0.59134667 0.07287608
v 0.16247901 0.59135988 0.16430984
v 0.13763603 0.59149546 0.04721817
v 0.15394843 0.59130776 0.19388861
v 0.12001259 0.59140819 0.02567995
v 0.14065619 0.59140894 0.22004177
v 0.10008089 0.59150134 0.00860428
v 0.12360121 0.59145250 0.24204359
v 0.07977954 0.59144228 -0.00387980
v 0.10443623 0.59149899 0.25991334
v 0.06130982 0.59150622 -0.01185033
v 0.08466826 0.59151537 0.27314132
v 0.06086225 0.59148447 0.11771423
v 0.06650741 0.59153349 0.28151202
v 0.05262249 0.59140523 0.10210465
v 0.06141992 0.59155800 0.15216560
v 0.04016578 0.59138721 0.09009430
v 0.05369071 0.59130269 0.16801064
v 0.02427133 0.59151226 0.08222812
v 0.04155979 0.59145613 0.18058897
v 0.05961395 0.59130827 -0.01272021
v 0.02610955 0.59140714 0.18877968
v 0.04000768 0.59142753 -0.01788503
v 0.06478848 0.59143288 0.28246584
v 0.02187820 0.59141299 -0.02054728
v 0.04551992 0.59147430 0.28839642
v 0.00713243 0.59146115 0.07987433
v 0.02745658 0.59161183 0.29178959
v 0.00528681 0.59148933 -0.02125551
v 0.00885234 0.59140676 0.19170628
v -0.01141558 0.59150068 -0.02008138
v 0.01081474 0.59134389 0.29304026
v -0.01020127 0.59146909 0.08281889
v -0.00594969 0.59144245 0.29230940
v -0.02957872 0.59147618 -0.01680242
v -0.00845044 0.59134399 0.18922864
v -0.04884608 0.59133920 -0.01065884
v -0.02418888 0.59146967 0.28958599
v -0.05059709 0.59143767 -0.00988310
v -0.04358470 0.59139201 0.28439147
v -0.02573438 0.59151266 0.09126593
v -0.04539028 0.59140070 0.28344894
v -0.03793279 0.59152535 0.10367257
v -0.02408558 0.59139086 0.18175171
v -0.04547081 0.59136422 0.11958966
v -0.03678669 0.59132304 0.16948390
v -0.04798092 0.59149055 0.13694059
v -0.04493991 0.59139398 0.15415637
v -0.06854688 0.59144969 -0.00127119
v -0.08861601 0.59154130 0.01183096
v -0.06357881 0.59148031 0.27566660
v -0.10765305 0.59136051 0.02958661
v -0.08407961 0.59149566 0.26322188
v -0.12467753 0.59149118 0.05159748
v -0.10400599 0.59136774 0.24617502
v -0.13816392 0.59144171 0.07785698
v -0.12174487 0.59139784 0.22472853
v -0.14668637 0.59149177 0.10739907
v -0.13608017 0.59127529 0.19863114
v -0.14919211 0.59158936 0.13852662
v -0.14554663 0.59133790 0.16962265
vn 0 1 0
vn 0 -1 0
usemtl material_0_0
f 1//1 2//1 3//1
f 3//2 2//2 1//2
f 2//1 4//1 3//1
f 3//2 4//2 2//2
f 1//1 3//1 5//1
f 5//2 3//2 1//2
f 4//1 6//1 3//1
f 3//2 6//2 4//2
f 5//1 3//1 7//1
f 7//2 3//2 5//2
f 6//1 8//1 3//1
f 3//2 8//2 6//2
f 7//1 3//1 9//1
f 9//2 3//2 7//2
f 8//1 10//1 3//1
f 3//2 10//2 8//2
f 9//1 3//1 11//1
f 11//2 3//2 9//2
f 10//1 12//1 3//1
f 3//2 12//2 10//2
f 11//1 3//1 13//1
f 13//2 3//2 11//2
f 12//1 14//1 3//1
f 3//2 14//2 12//2
f 13//1 3//1 15//1
f 15//2 3//2 13//2
f 14//1 16//1 3//1
f 3//2 16//2 14//2
f 15//1 3//1 17//1
f 17//2 3//2 15//2
f 14//1 18//1 16//1
f 16//2 18//2 14//2
f 3//1 19//1 17//1
f 17//2 19//2 3//2
f 14//1 20//1 18//1
f 18//2 20//2 14//2
f 17//1 19//1 21//1
f 21//2 19//2 17//2
f 14//1 22//1 20//1
f 20//2 22//2 14//2
f 17//1 21//1 23//1
f 23//2 21//2 17//2
f 14//1 24//1 22//1
f 22//2 24//2 14//2
f 17//1 23//1 25//1
f 25//2 23//2 17//2
f 24//1 26//1 22//1
f 22//2 26//2 24//2
f 17//1 25//1 27//1
f 27//2 25//2 17//2
f 26//1 28//1 22//1
f 22//2 28//2 26//2
f 27//1 25//1 29//1
f 29//2 25//2 27//2
f 22//1 28//1 30//1
f 30//2 28//2 22//2
f 29//1 25//1 31//1
f 31//2 25//2 29//2
f 28//1 32//1 30//1
f 30//2 32//2 28//2
f 25//1 33//1 31//1
f 31//2 33//2 25//2
f 32//1 34//1 30//1
f 30//2 34//2 32//2
f 31//1 33//1 35//1
f 35//2 33//2 31//2
f 30//1 34//1 36//1
f 36//2 34//2 30//2
f 33//1 37//1 35//1
f 35//2 37//2 33//2
f 34//1 38//1 36//1
f 36//2 38//2 34//2
f 33//1 39//1 37//1
f 37//2 39//2 33//2
f 36//1 38//1 40//1
f 40//2 38//2 36//2
f 37//1 39//1 41//1
f 41//2 39//2 37//2
f 36//1 40//1 42//1
f 42//2 40//2 36//2
f 39//1 43//1 41//1
f 41//2 43//2 39//2
f 36//1 42//1 44//1
f 44//2 42//2 36//2
f 39//1 45//1 43//1
f 43//2 45//2 39//2
f 44//1 42//1 46//1
f 46//2 42//2 44//2
f 39//1 47//1 45//1
f 45//2 47//2 39//2
f 46//1 42//1 48//1
f 48//2 42//2 46//2
f 47//1 49//1 45//1
f 45//2 49//2 47//2
f 48//1 42//1 50//1
f 50//2 42//2 48//2
f 49//1 51//1 45//1
f 45//2 51//2 49//2
f 42//1 52//1 50//1
f 50//2 52//2 42//2
f 51//1 50//1 45//1
f 45//2 50//2 51//2
f 50//1 52//1 53//1
f 53//2 52//2 50//2
f 50//1 54//1 45//1
f 45//2 54//2 50//2
f 50//1 53//1 55//1
f 55//2 53//2 50//2
f 50//1 56//1 54//1
f 54//2 56//2 50//2
f 50//1 55//1 57//1
f 57//2 55//2 50//2
f 50//1 58//1 56//1
f 56//2 58//2 50//2
f 50//1 57//1 59//1
f 59//2 57//2 50//2
f 50//1 60//1 58//1
f 58//2 60//2 50//2
f 50//1 59//1 61//1
f 61//2 59//2 50//2
f 50//1 62//1 60//1
f 60//2 62//2 50//2
f 50//1 61//1 63//1
f 63//2 61//2 50//2
f 50//1 64//1 62//1
f 62//2 64//2 50//2
f 50//1 63//1 64//1
f 64//2 63//2 50//2
