# SSTK version 0.8.0
# 97
mtllib original_97.mtl
o mesh91/mesh91-geometry#mesh91-geometry
v -0.03751982 0.69539708 0.06463230
v -0.04804485 0.69543788 0.11789657
v -0.04236684 0.69533469 0.10552367
v -0.03450854 0.69543559 0.09521075
v -0.02500874 0.69541251 0.08724209
v -0.02881998 0.69538830 0.05947211
v -0.01521265 0.69549113 0.08186486
v -0.01699812 0.69533914 0.05474481
v -0.00527026 0.69528755 0.07876600
v -0.00537619 0.69546807 0.05208859
v 0.00382273 0.69544303 0.07715538
v 0.00537649 0.69533085 0.05107765
v 0.01191374 0.69556654 0.07717252
v 0.01551650 0.69538141 0.05137204
v 0.01920473 0.69540784 0.07814542
v 0.02433147 0.69533554 0.05265583
v 0.03303215 0.69557863 0.05481875
v 0.02648400 0.69553755 0.08013243
v 0.04230607 0.69536082 0.05822795
v 0.03411609 0.69542976 0.08306757
v 0.05202299 0.69560644 0.06344706
v 0.04214539 0.69547940 0.08802538
v 0.06162373 0.69554683 0.07036176
v 0.04990433 0.69544334 0.09451951
v 0.07090097 0.69546743 0.07907747
v 0.05693047 0.69529149 0.10333949
v 0.07711147 0.69540446 0.08712927
v 0.06257749 0.69560756 0.11412773
v 0.06621466 0.69551638 0.12683480
v 0.06657204 0.69560558 0.14043968
v 0.07955955 0.69536811 0.09055890
v 0.08650410 0.69552123 0.10387931
v 0.09122502 0.69551296 0.11900001
v 0.09286437 0.69546691 0.13552498
v 0.09116766 0.69554608 0.15217194
v 0.08622414 0.69531200 0.16840024
v 0.07854753 0.69549118 0.18288679
v 0.06845195 0.69536089 0.19517339
v 0.05685216 0.69539262 0.20492423
v 0.05351481 0.69532138 0.20730741
vn 0 1 0
vn 0 -1 0
usemtl material_0_0
f 1//1 2//1 3//1
f 3//2 2//2 1//2
f 4//1 1//1 3//1
f 3//2 1//2 4//2
f 5//1 1//1 4//1
f 4//2 1//2 5//2
f 5//1 6//1 1//1
f 1//2 6//2 5//2
f 7//1 6//1 5//1
f 5//2 6//2 7//2
f 7//1 8//1 6//1
f 6//2 8//2 7//2
f 9//1 8//1 7//1
f 7//2 8//2 9//2
f 10//1 8//1 9//1
f 9//2 8//2 10//2
f 11//1 10//1 9//1
f 9//2 10//2 11//2
f 12//1 10//1 11//1
f 11//2 10//2 12//2
f 13//1 12//1 11//1
f 11//2 12//2 13//2
f 14//1 12//1 13//1
f 13//2 12//2 14//2
f 15//1 14//1 13//1
f 13//2 14//2 15//2
f 16//1 14//1 15//1
f 15//2 14//2 16//2
f 17//1 16//1 15//1
f 15//2 16//2 17//2
f 17//1 15//1 18//1
f 18//2 15//2 17//2
f 19//1 17//1 18//1
f 18//2 17//2 19//2
f 19//1 18//1 20//1
f 20//2 18//2 19//2
f 21//1 19//1 20//1
f 20//2 19//2 21//2
f 21//1 20//1 22//1
f 22//2 20//2 21//2
f 23//1 21//1 22//1
f 22//2 21//2 23//2
f 23//1 22//1 24//1
f 24//2 22//2 23//2
f 25//1 23//1 24//1
f 24//2 23//2 25//2
f 25//1 24//1 26//1
f 26//2 24//2 25//2
f 27//1 25//1 26//1
f 26//2 25//2 27//2
f 27//1 26//1 28//1
f 28//2 26//2 27//2
f 27//1 28//1 29//1
f 29//2 28//2 27//2
f 27//1 29//1 30//1
f 30//2 29//2 27//2
f 31//1 27//1 30//1
f 30//2 27//2 31//2
f 32//1 31//1 30//1
f 30//2 31//2 32//2
f 33//1 32//1 30//1
f 30//2 32//2 33//2
f 34//1 33//1 30//1
f 30//2 33//2 34//2
f 34//1 30//1 35//1
f 35//2 30//2 34//2
f 35//1 30//1 36//1
f 36//2 30//2 35//2
f 36//1 30//1 37//1
f 37//2 30//2 36//2
f 37//1 30//1 38//1
f 38//2 30//2 37//2
f 38//1 30//1 39//1
f 39//2 30//2 38//2
f 30//1 40//1 39//1
f 39//2 40//2 30//2
