# SSTK version 0.8.0
# 46
mtllib original_46.mtl
o Group38/mesh43/mesh43-geometry#mesh43-geometry
v -0.01802684 0.30587766 0.50802664
v -0.08152835 0.21442981 0.49798032
v -0.18850872 0.30584360 0.45287346
v 0.04953462 0.21427907 0.50656122
v -0.18839166 0.21417409 0.45289664
v 0.13520646 0.30595444 0.48649045
v -0.25555268 0.30577459 0.39979364
v 0.18429581 0.21438984 0.46455501
v -0.27636435 0.21424671 0.37703918
v 0.27000718 0.30586124 0.40136715
v -0.33623966 0.30581398 0.27962990
v 0.29384181 0.21438857 0.37565664
v -0.34250489 0.21425420 0.26340158
v 0.35359346 0.30583140 0.27631304
v -0.36473565 0.26007483 0.12416898
v 0.35924074 0.21430828 0.26153504
v -0.36496534 0.28286576 0.12406344
v -0.36490434 0.23711819 0.12425046
v 0.38091790 0.25998325 0.14759048
v -0.36496986 0.30565063 0.12415500
v -0.36492890 0.21434088 0.12418553
v 0.38083176 0.23727212 0.14748098
v 0.38083710 0.28286586 0.14756781
v 0.38076019 0.21436355 0.14741478
v 0.38076831 0.30570153 0.14734842
vn 0.07896970946703909 -0.044850984735217064 -0.9958675484997855
vn 0.2560976165429829 -0.01519999502539247 -0.9665314122946194
vn 0.4438780267655109 -0.03672301295907655 -0.8953344166700863
vn -0.4438780267655109 0.03672301295907655 0.8953344166700863
vn -0.2560976165429829 0.01519999502539247 0.9665314122946194
vn -0.07896970946703909 0.044850984735217064 0.9958675484997855
vn -0.12511025345576227 0.015492004227272345 -0.9920218859910587
vn 0.12511025345576227 -0.015492004227272345 0.9920218859910587
vn 0.5591870354244883 0.012959997068539347 -0.828940225763689
vn -0.5591870354244883 -0.012959997068539347 0.828940225763689
vn -0.3283676086373245 -0.034421986325524845 -0.9439225818123064
vn 0.3283676086373245 0.034421986325524845 0.9439225818123064
vn 0.7080059516005082 -0.004384999290956946 -0.7061928520450184
vn -0.7080059516005082 0.004384999290956946 0.7061928520450184
vn -0.4937143517043291 0.013468998402084877 -0.869519824387701
vn 0.4937143517043291 -0.013468998402084877 0.869519824387701
vn 0.7908644686019554 0.005351002198831329 -0.6119679395837782
vn -0.7908644686019554 -0.005351002198831329 0.6119679395837782
vn -0.6757154795989849 -0.02996499720509026 -0.7365532496519263
vn 0.6757154795989849 0.02996499720509026 0.7365532496519263
vn 0.9460362875014933 -0.01225599735372837 -0.32382886415398027
vn -0.9460362875014933 0.01225599735372837 0.32382886415398027
vn -0.7865453825404675 0.0074209994097223205 -0.6174878864982134
vn 0.7865453825404675 -0.0074209994097223205 0.6174878864982134
vn 0.9681671503898792 -0.0021919998717593522 -0.2502949540891771
vn -0.9681671503898792 0.0021919998717593522 0.2502949540891771
vn -0.941127199688343 -0.012362999681572551 -0.3378265090925388
vn 0.941127199688343 0.012362999681572551 0.3378265090925388
vn 0.9854039226868413 -0.01251999698397698 -0.16977149003559733
vn -0.9854039226868413 0.01251999698397698 0.16977149003559733
vn -0.9629529304375654 -0.0004239999520601455 -0.2696691936164491
vn 0.9629529304375654 0.0004239999520601455 0.2696691936164491
vn 0.9834947144081863 0 -0.18093685840966786
vn -0.9834947144081863 0 0.18093685840966786
vn 0.9874100033447711 0 -0.158181810884435
vn -0.9874100033447711 0 0.158181810884435
vn -0.9803718654972089 -0.009483996736875085 -0.19692907136179102
vn 0.9803718654972089 0.009483996736875085 0.19692907136179102
vn -0.9824819638676573 0 -0.1863576955071916
vn 0.9824819638676573 0 0.1863576955071916
vn -0.9783275435479092 0 -0.20706331769657726
vn 0.9783275435479092 0 0.20706331769657726
usemtl material_0_0
f 1//1 2//2 3//3
f 3//4 2//5 1//6
f 1//1 4//7 2//2
f 2//5 4//8 1//6
f 3//3 2//2 5//9
f 5//10 2//5 3//4
f 6//11 4//7 1//1
f 1//6 4//8 6//12
f 3//3 5//9 7//13
f 7//14 5//10 3//4
f 6//11 8//15 4//7
f 4//8 8//16 6//12
f 7//13 5//9 9//17
f 9//18 5//10 7//14
f 10//19 8//15 6//11
f 6//12 8//16 10//20
f 11//21 7//13 9//17
f 9//18 7//14 11//22
f 10//19 12//23 8//15
f 8//16 12//24 10//20
f 13//25 11//21 9//17
f 9//18 11//22 13//26
f 14//27 12//23 10//19
f 10//20 12//24 14//28
f 15//29 11//21 13//25
f 13//26 11//22 15//30
f 16//31 12//23 14//27
f 14//28 12//24 16//32
f 17//33 11//21 15//29
f 15//30 11//22 17//34
f 15//29 13//25 18//35
f 18//36 13//26 15//30
f 19//37 16//31 14//27
f 14//28 16//32 19//38
f 20//33 11//21 17//33
f 17//34 11//22 20//34
f 18//35 13//25 21//35
f 21//36 13//26 18//36
f 22//39 16//31 19//37
f 19//38 16//32 22//40
f 19//37 14//27 23//41
f 23//42 14//28 19//38
f 24//39 16//31 22//39
f 22//40 16//32 24//40
f 23//41 14//27 25//41
f 25//42 14//28 23//42
