# SSTK version 0.8.0
# 93
mtllib original_93.mtl
o Group77/mesh88/mesh88-geometry#mesh88-geometry
v -0.03103075 0.89509507 0.15353390
v -0.05390924 0.90545410 0.29018855
v -0.05840750 0.88894584 0.28894238
v -0.02706470 0.90543450 0.15438400
v -0.03134349 0.88243206 0.15345663
v -0.04897889 0.91199352 0.29128567
v -0.05586876 0.87450178 0.28909550
v -0.02035875 0.91408630 0.15570431
v -0.02713010 0.86981509 0.15434758
v -0.03802068 0.91990210 0.29354895
v -0.04758772 0.86182210 0.29048383
v -0.00982504 0.92070811 0.15759608
v -0.01849631 0.85976123 0.15594882
v -0.01010798 0.92318792 0.22849130
v -0.03552469 0.85421174 0.29270304
v -0.00350346 0.92315646 0.19424229
v -0.01703295 0.92331676 0.26239382
v -0.00753274 0.85369598 0.15822165
v 0.00316530 0.92312404 0.16009837
v -0.02364284 0.92335047 0.29664012
v -0.01005091 0.85197006 0.22754326
v -0.01664495 0.85215893 0.26136853
v -0.00344493 0.85192166 0.19398819
v -0.02339297 0.85192037 0.29515599
v 0.00315782 0.85200127 0.16034046
vn 0.9560258547290067 -0.22570596999465023 0.1872735437760662
vn 0.892841127947017 -0.4156350746245826 0.17344222377528498
vn 0.9805752496853725 -0.04793997802216173 0.19019447471392087
vn -0.9805752496853725 0.04793997802216173 -0.19019447471392087
vn -0.892841127947017 0.4156350746245826 -0.17344222377528498
vn -0.9560258547290067 0.22570596999465023 -0.1872735437760662
vn 0.8299773511390216 -0.5330600232531446 0.1642699248359544
vn -0.8299773511390216 0.5330600232531446 -0.1642699248359544
vn 0.9689331105281804 0.15614903515469514 0.1917970441441755
vn -0.9689331105281804 -0.15614903515469514 -0.1917970441441755
vn 0.7142918705437609 -0.6856251863824327 0.1403753093430233
vn -0.7142918705437609 0.6856251863824327 -0.1403753093430233
vn 0.9165534250143085 0.35798389342355713 0.17826202945061484
vn -0.9165534250143085 -0.35798389342355713 -0.17826202945061484
vn 0.6243597135145778 -0.7713458886527577 0.12329017884033446
vn -0.6243597135145778 0.7713458886527577 -0.12329017884033446
vn 0.8374838259334183 0.5207079740924359 0.16578313248480714
vn -0.8374838259334183 -0.5207079740924359 -0.16578313248480714
vn 0.34683690922137717 -0.9354926018539655 0.06751111225761278
vn -0.34683690922137717 0.9354926018539655 -0.06751111225761278
vn 0.7023130068437793 0.6986862347278722 0.13635976613296968
vn -0.7023130068437793 -0.6986862347278722 -0.13635976613296968
vn 0.27520639077319503 -0.9598644680559449 0.054052247328571876
vn -0.27520639077319503 0.9598644680559449 -0.054052247328571876
vn 0.5813789629625737 0.8054700475146794 0.1149630548535584
vn -0.5813789629625737 -0.8054700475146794 -0.1149630548535584
vn 0.19689562644208766 -0.9796889847506511 0.03796847964056717
vn -0.19689562644208766 0.9796889847506511 -0.03796847964056717
vn 0.30267234271339516 0.9512790468666659 0.058801598182639046
vn -0.30267234271339516 -0.9512790468666659 -0.058801598182639046
vn 0.1854213818310092 -0.9819805237660749 0.03651249243730544
vn -0.1854213818310092 0.9819805237660749 -0.03651249243730544
vn 0.2076160693787124 -0.9773556577408595 0.040883811193009274
vn -0.2076160693787124 0.9773556577408595 -0.040883811193009274
vn 0.23493066718130334 0.9709118975338474 0.046234931004290186
vn -0.23493066718130334 -0.9709118975338474 -0.046234931004290186
vn 0.16316590641917506 0.986095136481986 0.031516167104876334
vn -0.16316590641917506 -0.986095136481986 -0.031516167104876334
vn 0.1730460781679417 0.9843240689607624 0.03407612206843578
vn -0.1730460781679417 -0.9843240689607624 -0.03407612206843578
vn 0.15261175588750345 0.9878291961542508 0.030052141191265515
vn -0.15261175588750345 -0.9878291961542508 -0.030052141191265515
usemtl material_0_0
f 1//1 2//2 3//3
f 3//4 2//5 1//6
f 1//1 4//7 2//2
f 2//5 4//8 1//6
f 5//9 1//1 3//3
f 3//4 1//6 5//10
f 4//7 6//11 2//2
f 2//5 6//12 4//8
f 5//9 3//3 7//13
f 7//14 3//4 5//10
f 4//7 8//15 6//11
f 6//12 8//16 4//8
f 5//9 7//13 9//17
f 9//18 7//14 5//10
f 8//15 10//19 6//11
f 6//12 10//20 8//16
f 9//17 7//13 11//21
f 11//22 7//14 9//18
f 12//23 10//19 8//15
f 8//16 10//20 12//24
f 9//17 11//21 13//25
f 13//26 11//22 9//18
f 12//23 14//27 10//19
f 10//20 14//28 12//24
f 13//25 11//21 15//29
f 15//30 11//22 13//26
f 16//31 14//27 12//23
f 12//24 14//28 16//32
f 14//27 17//33 10//19
f 10//20 17//34 14//28
f 18//35 13//25 15//29
f 15//30 13//26 18//36
f 19//31 16//31 12//23
f 12//24 16//32 19//32
f 17//33 20//33 10//19
f 10//20 20//34 17//34
f 18//35 15//29 21//37
f 21//38 15//30 18//36
f 21//37 15//29 22//39
f 22//40 15//30 21//38
f 23//41 18//35 21//37
f 21//38 18//36 23//42
f 22//39 15//29 24//39
f 24//40 15//30 22//40
f 25//41 18//35 23//41
f 23//42 18//36 25//42
