# SSTK version 0.8.0
# 116
mtllib original_116.mtl
o mesh108/mesh108-geometry#mesh108-geometry
v -0.11256645 0.80857533 0.57700631
v -0.11216917 0.79122847 0.56556374
v -0.11367842 0.80287665 0.57291373
v -0.10983829 0.81367970 0.58074689
v -0.11376614 0.79699585 0.56902358
v -0.10953950 0.78562096 0.56231789
v -0.10577861 0.78063153 0.55961100
v -0.10595101 0.81823687 0.58437398
v -0.10076523 0.77582010 0.55764139
v -0.09502524 0.77227807 0.55641803
v -0.10126093 0.82186664 0.58804018
v -0.09557567 0.82469796 0.59078840
v -0.08924467 0.82642482 0.59324629
v -0.08243269 0.82691275 0.59480356
v -0.08857772 0.76938502 0.55580999
v -0.08184027 0.76769951 0.55606631
v -0.07502105 0.76717051 0.55702178
v -0.07555205 0.82643781 0.59588619
v -0.06890712 0.82481525 0.59614709
v -0.06237299 0.82194712 0.59565810
v -0.06833200 0.76773193 0.55883594
v -0.06197661 0.76941748 0.56093051
v -0.05604649 0.77216655 0.56390272
v -0.05659207 0.81825418 0.59427055
v -0.05176397 0.81378635 0.59209409
v -0.05131346 0.77605626 0.56742659
v -0.04766684 0.78049215 0.57107788
v -0.04776080 0.80854317 0.58971720
v -0.04506459 0.78566801 0.57514853
v -0.04371193 0.79123094 0.57905557
v -0.04520864 0.80296671 0.58652975
v -0.04387500 0.79697678 0.58290744
vn 0.16212222293787507 0.5439670809080375 -0.8232959369012279
vn -0.16212222293787507 -0.5439670809080375 0.8232959369012279
usemtl material_0_0
f 1//1 2//1 3//1
f 3//2 2//2 1//2
f 4//1 2//1 1//1
f 1//2 2//2 4//2
f 3//1 2//1 5//1
f 5//2 2//2 3//2
f 4//1 6//1 2//1
f 2//2 6//2 4//2
f 4//1 7//1 6//1
f 6//2 7//2 4//2
f 8//1 7//1 4//1
f 4//2 7//2 8//2
f 8//1 9//1 7//1
f 7//2 9//2 8//2
f 8//1 10//1 9//1
f 9//2 10//2 8//2
f 11//1 10//1 8//1
f 8//2 10//2 11//2
f 12//1 10//1 11//1
f 11//2 10//2 12//2
f 13//1 10//1 12//1
f 12//2 10//2 13//2
f 14//1 10//1 13//1
f 13//2 10//2 14//2
f 14//1 15//1 10//1
f 10//2 15//2 14//2
f 14//1 16//1 15//1
f 15//2 16//2 14//2
f 14//1 17//1 16//1
f 16//2 17//2 14//2
f 14//1 18//1 17//1
f 17//2 18//2 14//2
f 18//1 19//1 17//1
f 17//2 19//2 18//2
f 19//1 20//1 17//1
f 17//2 20//2 19//2
f 20//1 21//1 17//1
f 17//2 21//2 20//2
f 20//1 22//1 21//1
f 21//2 22//2 20//2
f 20//1 23//1 22//1
f 22//2 23//2 20//2
f 20//1 24//1 23//1
f 23//2 24//2 20//2
f 24//1 25//1 23//1
f 23//2 25//2 24//2
f 25//1 26//1 23//1
f 23//2 26//2 25//2
f 25//1 27//1 26//1
f 26//2 27//2 25//2
f 25//1 28//1 27//1
f 27//2 28//2 25//2
f 28//1 29//1 27//1
f 27//2 29//2 28//2
f 28//1 30//1 29//1
f 29//2 30//2 28//2
f 28//1 31//1 30//1
f 30//2 31//2 28//2
f 31//1 32//1 30//1
f 30//2 32//2 31//2
