# SSTK version 0.8.0
# 77
mtllib original_77.mtl
o Group61/mesh72/mesh72-geometry#mesh72-geometry
v 0.00781387 0.98942895 0.13599545
v -0.02761564 0.98830352 0.12893206
v -0.02205578 0.98842883 0.11583152
v -0.06289967 0.98556750 0.12194925
v -0.00761910 0.98849578 0.10320887
v -0.05215531 0.98548127 0.09570120
v 0.01492636 0.98849428 0.10026830
v -0.09823490 0.98054332 0.11499138
v -0.02341250 0.98546091 0.07057305
v 0.03480368 0.98850984 0.11156879
v -0.08209094 0.98063207 0.07566374
v 0.04346074 0.98827252 0.12866396
v 0.02191410 0.98564225 0.06487673
v -0.03907654 0.98072035 0.03840764
v 0.04349520 0.98827453 0.14292799
v 0.06174537 0.98539083 0.08737437
v 0.07891975 0.98548356 0.12160394
v 0.02899250 0.98059857 0.02962049
v 0.07911785 0.98549766 0.14985339
v 0.08842122 0.98056360 0.06327136
v 0.11406027 0.98061321 0.11432714
v 0.11420371 0.98060524 0.15688003
vn -0.0031603953295392478 -0.999866218152335 0.016048604272899482
vn 0.050346728187575886 -0.9985151290655775 0.02080249956037027
vn 0.049767488550985325 -0.998270878224437 0.03128019776694141
vn -0.049767488550985325 0.998270878224437 -0.03128019776694141
vn -0.050346728187575886 0.9985151290655775 -0.02080249956037027
vn 0.0031603953295392478 0.999866218152335 -0.016048604272899482
vn 0.0921908945507377 -0.995012448400471 0.03809286665551791
vn -0.0921908945507377 0.995012448400471 -0.03809286665551791
vn 0.028277759679166913 -0.9982676448593606 0.05159532473463802
vn -0.028277759679166913 0.9982676448593606 -0.05159532473463802
vn 0.08771304418931836 -0.9942900812185886 0.06077545778828182
vn -0.08771304418931836 0.9942900812185886 -0.06077545778828182
vn -0.006111831537312747 -0.998258157283072 0.05867961258448315
vn 0.006111831537312747 0.998258157283072 -0.05867961258448315
vn 0.12553033921618822 -0.9907329786368249 0.05186809209594273
vn -0.12553033921618822 0.9907329786368249 -0.05186809209594273
vn 0.045825559333846855 -0.9942917777375322 0.09635288701060217
vn -0.045825559333846855 0.9942917777375322 -0.09635288701060217
vn -0.03923192300304042 -0.9982503774819628 0.04423844566213811
vn 0.03923192300304042 0.9982503774819628 -0.04423844566213811
vn 0.10223211184786773 -0.9909680364022205 0.08678102405625608
vn -0.10223211184786773 0.9909680364022205 -0.08678102405625608
vn -0.05640219552464491 -0.9982547830058874 0.017498015483710702
vn 0.05640219552464491 0.9982547830058874 -0.017498015483710702
vn -0.017719825946120142 -0.9942878799472028 0.10525027106157936
vn 0.017719825946120142 0.9942878799472028 -0.10525027106157936
vn 0.0420782887149472 -0.9909330971818043 0.1275970788399875
vn -0.0420782887149472 0.9909330971818043 -0.1275970788399875
vn -0.06354539200956164 -0.9979789315371507 0.0001880487124795409
vn 0.06354539200956164 0.9979789315371507 -0.0001880487124795409
vn -0.07534409580578481 -0.9942747390531261 0.07576945630032433
vn 0.07534409580578481 0.9942747390531261 -0.07576945630032433
vn -0.10337007465088585 -0.9942741445769168 0.027084185284235347
vn 0.10337007465088585 0.9942741445769168 -0.027084185284235347
vn -0.040262858069972096 -0.9909760312905641 0.12784915982375553
vn 0.040262858069972096 0.9909760312905641 -0.12784915982375553
vn -0.11780986301391085 -0.9930361092593005 0.00034911859627955523
vn 0.11780986301391085 0.9930361092593005 -0.00034911859627955523
vn -0.10532973537642167 -0.9910405341025396 0.08212372745611478
vn 0.10532973537642167 0.9910405341025396 -0.08212372745611478
vn -0.1316920095930105 -0.9910688005741828 0.020972532937275894
vn 0.1316920095930105 0.9910688005741828 -0.020972532937275894
vn -0.135823654588357 -0.9907329472865688 0.00040251103276393353
vn 0.135823654588357 0.9907329472865688 -0.00040251103276393353
usemtl material_0_0
f 1//1 2//2 3//3
f 3//4 2//5 1//6
f 3//3 2//2 4//7
f 4//8 2//5 3//4
f 1//1 3//3 5//9
f 5//10 3//4 1//6
f 3//3 4//7 6//11
f 6//12 4//8 3//4
f 5//9 3//3 6//11
f 6//12 3//4 5//10
f 7//13 1//1 5//9
f 5//10 1//6 7//14
f 6//11 4//7 8//15
f 8//16 4//8 6//12
f 5//9 6//11 9//17
f 9//18 6//12 5//10
f 10//19 1//1 7//13
f 7//14 1//6 10//20
f 7//13 5//9 9//17
f 9//18 5//10 7//14
f 6//11 8//15 11//21
f 11//22 8//16 6//12
f 9//17 6//11 11//21
f 11//22 6//12 9//18
f 12//23 1//1 10//19
f 10//20 1//6 12//24
f 10//19 7//13 13//25
f 13//26 7//14 10//20
f 13//25 7//13 9//17
f 9//18 7//14 13//26
f 9//17 11//21 14//27
f 14//28 11//22 9//18
f 12//23 15//29 1//1
f 1//6 15//30 12//24
f 16//31 12//23 10//19
f 10//20 12//24 16//32
f 16//31 10//19 13//25
f 13//26 10//20 16//32
f 13//25 9//17 14//27
f 14//28 9//18 13//26
f 17//33 15//29 12//23
f 12//24 15//30 17//34
f 17//33 12//23 16//31
f 16//32 12//24 17//34
f 16//31 13//25 18//35
f 18//36 13//26 16//32
f 18//35 13//25 14//27
f 14//28 13//26 18//36
f 17//33 19//37 15//29
f 15//30 19//38 17//34
f 20//39 17//33 16//31
f 16//32 17//34 20//40
f 20//39 16//31 18//35
f 18//36 16//32 20//40
f 21//41 19//37 17//33
f 17//34 19//38 21//42
f 21//41 17//33 20//39
f 20//40 17//34 21//42
f 21//41 22//43 19//37
f 19//38 22//44 21//42
