# SSTK version 0.8.0
# 14
mtllib original_14.mtl
o Group8/mesh12/mesh12-geometry#mesh12-geometry
v 0.32466339 0.11835201 0.26137162
v 0.32875661 0.10717142 0.26311539
v 0.21702154 0.11840678 0.40476157
v 0.35300415 0.10713386 0.12992187
v 0.21989480 0.10721709 0.40827092
v 0.21606112 0.12971898 0.40356399
v 0.33564956 0.09733985 0.26572408
v 0.34697038 0.12964611 0.12983121
v 0.01387761 0.11824395 0.47633873
v 0.01396528 0.12938514 0.47487101
v 0.32313393 0.12971762 0.26064177
v 0.37034373 0.08995568 0.12962772
v 0.22448801 0.09726804 0.41420550
v 0.01395208 0.10717943 0.48098862
v 0.34499309 0.09008994 0.26941744
v -0.19150171 0.11838908 0.41184181
v -0.19078095 0.12951217 0.41059950
v 0.35502486 0.08571798 0.27355334
v 0.23050725 0.09000065 0.42221822
v 0.01427555 0.09729638 0.48856117
v -0.19422231 0.10722591 0.41558575
v 0.39217669 0.08430322 0.12926476
v -0.30413390 0.11833609 0.27235018
v -0.30283333 0.12970576 0.27178145
v 0.36538701 0.08446822 0.27752707
v 0.23741383 0.08555938 0.43071605
v 0.01426007 0.09004277 0.49826855
v -0.19878446 0.09729336 0.42164161
v -0.30811908 0.10712488 0.27412162
v 0.38051678 0.08745655 0.28349821
v -0.33115792 0.12957450 0.14182212
v -0.33708095 0.10730266 0.14177122
v 0.40850922 0.08747681 0.12874529
v 0.24391450 0.08433816 0.43941707
v 0.01446373 0.08558682 0.50931936
v -0.20437555 0.08983634 0.42967053
v -0.31519756 0.09734905 0.27722613
v 0.42392936 0.09718922 0.12862616
v 0.25388741 0.08736258 0.45203067
v -0.35445866 0.09009896 0.14222414
v 0.39471089 0.09727920 0.28924571
v 0.01471074 0.08448263 0.52009236
v -0.21098002 0.08571444 0.43847619
v -0.32412914 0.08993468 0.28127796
v 0.43421505 0.11255174 0.12848645
v 0.26333471 0.09739473 0.46424651
v 0.01503387 0.08745256 0.53654936
v -0.33412324 0.08559236 0.28536370
v 0.40419586 0.11262868 0.29280872
v -0.21720955 0.08433946 0.44730384
v -0.37648709 0.08434499 0.14264567
v 0.43751716 0.12954672 0.12821739
v 0.26976593 0.11266562 0.47226031
v 0.01538982 0.09727159 0.55175494
v -0.22675268 0.08745025 0.46048841
v -0.34416220 0.08435120 0.28982392
v 0.40716640 0.12961113 0.29414287
v -0.35920619 0.08739727 0.29648344
v 0.27155681 0.12961144 0.47501207
v 0.01539323 0.11266975 0.56212899
v -0.23582519 0.09746576 0.47298679
v -0.39267977 0.08723835 0.14285253
v -0.40801933 0.09726191 0.14308055
v 0.01549835 0.12973191 0.56535479
v -0.24178172 0.11258815 0.48122744
v -0.37322373 0.09738410 0.30260216
v -0.41830492 0.11263684 0.14339576
v -0.24380611 0.12963037 0.48397492
v -0.38254532 0.11256979 0.30667894
v -0.42145345 0.12969114 0.14341978
v -0.38565511 0.12967039 0.30800202
vn -0.8902361171217422 -0.23200711709703778 -0.3919851443464728
vn -0.7888256088681327 -0.47261499917528704 -0.39292393837530887
vn -0.5698825094160038 -0.2529189143103279 -0.7818349878624027
vn 0.5698825094160038 0.2529189143103279 0.7818349878624027
vn 0.7888256088681327 0.47261499917528704 0.39292393837530887
vn 0.8902361171217422 0.23200711709703778 0.3919851443464728
vn -0.8551820042857926 -0.49249886624988487 -0.1615815778123008
vn 0.8551820042857926 0.49249886624988487 0.1615815778123008
vn -0.5075592255056418 -0.4979177441736634 -0.7031796019802644
vn 0.5075592255056418 0.4979177441736634 0.7031796019802644
vn -0.6644259801165974 -0.12484698823129954 -0.7368523233835074
vn 0.6644259801165974 0.12484698823129954 0.7368523233835074
vn -0.6555365337894117 -0.6960437285510034 -0.2929078025798915
vn 0.6555365337894117 0.6960437285510034 0.2929078025798915
vn -0.9654220376177625 -0.18736492222774118 -0.181258586556776
vn 0.9654220376177625 0.18736492222774118 0.181258586556776
vn -0.013570089054608039 -0.2527659409670273 -0.9674322879509982
vn 0.013570089054608039 0.2527659409670273 0.9674322879509982
vn -0.12676718795994502 -0.12441999398740437 -0.9840984428160133
vn 0.12676718795994502 0.12441999398740437 0.9840984428160133
vn -0.909205076825306 -0.12510001117236988 -0.3971097020720626
vn 0.909205076825306 0.12510001117236988 0.3971097020720626
vn -0.4871537676196927 -0.8682123031845644 -0.09427938954454732
vn 0.4871537676196927 0.8682123031845644 0.09427938954454732
vn -0.4064151133908167 -0.7131662616072623 -0.5711572803638696
vn 0.4064151133908167 0.7131662616072623 0.5711572803638696
vn -0.008159861949853828 -0.49800386199069924 -0.8671364195415321
vn 0.008159861949853828 0.49800386199069924 0.8671364195415321
vn -0.4546469638719102 -0.8603909649020721 -0.23026837767469324
vn 0.4546469638719102 0.8603909649020721 0.23026837767469324
vn 0.547397255926063 -0.2523058856654695 -0.7979335713348443
vn -0.547397255926063 0.2523058856654695 0.7979335713348443
vn 0.47369547768205283 -0.1241589898233092 -0.871892848731785
vn -0.47369547768205283 0.1241589898233092 0.871892848731785
vn -0.241490388198448 -0.963852132891122 -0.1125675722799321
vn 0.241490388198448 0.963852132891122 0.1125675722799321
vn -0.27680224988808816 -0.8745274049653131 -0.39822397268563303
vn 0.27680224988808816 0.8745274049653131 0.39822397268563303
vn -0.0018528532675001206 -0.7134159600198144 -0.7007383498309306
vn 0.0018528532675001206 0.7134159600198144 0.7007383498309306
vn 0.49343075135659004 -0.4975712566789164 -0.7134065728198995
vn -0.49343075135659004 0.4975712566789164 0.7134065728198995
vn -0.00028981527350313 -0.9999966675341632 -0.0025653318840862926
vn 0.00028981527350313 0.9999966675341632 0.0025653318840862926
vn 0.8672471583211552 -0.27364603229734863 -0.4159329457878992
vn -0.8672471583211552 0.27364603229734863 0.4159329457878992
vn 0.8584917298410495 -0.12438796893379787 -0.49751339979848486
vn -0.8584917298410495 0.12438796893379787 0.49751339979848486
vn 0.00327552401493028 -0.9999827821987738 -0.004868906286554208
vn -0.00327552401493028 0.9999827821987738 0.004868906286554208
vn -0.13429829370715138 -0.9695642094157115 -0.20471739576165482
vn 0.13429829370715138 0.9695642094157115 0.20471739576165482
vn 0.00428154981399552 -0.8747678138415563 -0.48452341553123573
vn -0.00428154981399552 0.8747678138415563 0.48452341553123573
vn 0.4019622756226422 -0.713163063918669 -0.574303729082794
vn -0.4019622756226422 0.713163063918669 0.574303729082794
vn 0.7531380264664788 -0.5198818220366846 -0.40312033464710556
vn -0.7531380264664788 0.5198818220366846 0.40312033464710556
vn 0.3218480752453613 -0.9390467338699675 0.12085134698878022
vn -0.3218480752453613 0.9390467338699675 -0.12085134698878022
vn 0.9585080951534379 -0.18736492222774118 -0.2148409119416516
vn -0.9585080951534379 0.18736492222774118 0.2148409119416516
vn 0.8490219347729809 -0.4924988662498849 -0.19132856821949581
vn -0.8490219347729809 0.4924988662498849 0.19132856821949581
vn 0.3703131334532459 -0.9264611987546686 0.06736342029692903
vn -0.3703131334532459 0.9264611987546686 -0.06736342029692903
vn 0.031250357602632346 -0.9993776057715962 0.016365091870804434
vn -0.031250357602632346 0.9993776057715962 -0.016365091870804434
vn 0.009283976903058684 -0.9696723104416097 -0.24423230362852097
vn -0.009283976903058684 0.9696723104416097 0.24423230362852097
vn 0.28176640668493014 -0.8747235226521326 -0.3942923420292442
vn -0.28176640668493014 0.8747235226521326 0.3942923420292442
vn 0.61866441848959 -0.7282798288961364 -0.2947250042292841
vn -0.61866441848959 0.7282798288961364 0.2947250042292841
vn 0.6473265118288501 -0.7530617714465401 0.11775549018747568
vn -0.6473265118288501 0.7530617714465401 -0.11775549018747568
vn 0.2325850414770106 -0.9291795908261008 0.28727945710297015
vn -0.2325850414770106 0.9291795908261008 -0.28727945710297015
vn 0.4835667034623894 -0.8682123031845644 -0.11122337839443502
vn -0.4835667034623894 0.8682123031845644 0.11122337839443502
vn 0.6469117303434299 -0.712839027295676 0.2708610978125581
vn -0.6469117303434299 0.712839027295676 -0.2708610978125581
vn 0.017705197314055756 -0.9993383188269495 0.03177185094067972
vn -0.017705197314055756 0.9993383188269495 -0.03177185094067972
vn 0.14710465670769232 -0.969725921231106 -0.1949150011348395
vn -0.14710465670769232 0.969725921231106 0.1949150011348395
vn 0.4086351738453952 -0.8868350127571216 -0.21573352739993637
vn -0.4086351738453952 0.8868350127571216 0.21573352739993637
vn 0.886007627930456 -0.4347569106155099 0.16117354597173963
vn -0.886007627930456 0.4347569106155099 -0.16117354597173963
vn 0.42546239638820493 -0.7133578348983416 0.5568683404977847
vn -0.42546239638820493 0.7133578348983416 -0.5568683404977847
vn 0.026441232307651632 -0.9291382520167061 0.3687858048697004
vn -0.026441232307651632 0.9291382520167061 -0.3687858048697004
vn 0.20450308986080065 -0.9743001622697055 -0.09443346884770612
vn -0.20450308986080065 0.9743001622697055 0.09443346884770612
vn 0.8496994390117939 -0.3803939250426234 0.3651182344579761
vn -0.8496994390117939 0.3803939250426234 -0.3651182344579761
vn -0.00538083345800531 -0.9993481961111098 0.03569635220534266
vn 0.00538083345800531 0.9993481961111098 -0.03569635220534266
vn 0.0002001099342395648 -0.9999966675341632 -0.0025738835603974124
vn -0.0002001099342395648 0.9999966675341632 0.0025738835603974124
vn 0.9665276581877044 -0.18684599221749085 0.1758205367710314
vn -0.9665276581877044 0.18684599221749085 -0.1758205367710314
vn 0.5526191734966693 -0.3808409934382998 0.7413313609991061
vn -0.5526191734966693 0.3808409934382998 -0.7413313609991061
vn 0.02779054824094601 -0.7137348585170665 0.6998644419929411
vn -0.02779054824094601 0.7137348585170665 -0.6998644419929411
vn -0.19269508419301726 -0.9288794432423338 0.31630931767758236
vn 0.19269508419301726 0.9288794432423338 -0.31630931767758236
vn -0.05323643785739689 -0.9979546059691782 0.035390480487809566
vn 0.05323643785739689 0.9979546059691782 -0.035390480487809566
vn 0.8662267616573835 -0.18924208139152254 0.46242689370230944
vn -0.8662267616573835 0.18924208139152254 -0.46242689370230944
vn -0.3595314399760846 -0.9182896250509439 0.16577487201780572
vn 0.3595314399760846 0.9182896250509439 -0.16577487201780572
vn 0.49858692643565794 -0.18890205427525114 0.8460065547488588
vn -0.49858692643565794 0.18890205427525114 -0.8460065547488588
vn 0.02391745287187313 -0.38153520896021387 0.9240448256290426
vn -0.02391745287187313 0.38153520896021387 -0.9240448256290426
vn -0.3821723357420059 -0.713361952217591 0.5874172545319101
vn 0.3821723357420059 0.713361952217591 -0.5874172545319101
vn -0.36773659923335045 -0.9264611987546688 0.08024612630122721
vn 0.36773659923335045 0.9264611987546688 -0.08024612630122721
vn -0.6428225706665219 -0.75306177144654 0.14027512618951274
vn 0.6428225706665219 0.75306177144654 -0.14027512618951274
vn -0.09138646800575134 -0.18929010027172447 0.9776593330013038
vn 0.09138646800575134 0.18929010027172447 -0.9776593330013038
vn -0.5143809905001047 -0.38157199549363435 0.7679941463755678
vn 0.5143809905001047 0.38157199549363435 -0.7679941463755678
vn -0.6750838026937777 -0.6628029740648513 0.32396616630644703
vn 0.6750838026937777 0.6628029740648513 -0.32396616630644703
vn -0.8798430203864744 -0.43475691061550986 0.19199658369164677
vn 0.8798430203864744 0.43475691061550986 -0.19199658369164677
vn -0.6315968479069722 -0.1899270486416525 0.7516735580744132
vn 0.6315968479069722 0.1899270486416525 -0.7516735580744132
vn -0.8549877029907788 -0.3179881026756719 0.4097311243868088
vn 0.8549877029907788 0.3179881026756719 -0.4097311243868088
vn -0.9598028274097671 -0.18684599221749085 0.20944476047034022
vn 0.9598028274097671 0.18684599221749085 -0.20944476047034022
vn -0.8853795103544431 -0.1903039526856854 0.4241314987556699
vn 0.8853795103544431 0.1903039526856854 -0.4241314987556699
usemtl material_0_0
f 1//1 2//2 3//3
f 3//4 2//5 1//6
f 4//7 2//2 1//1
f 1//6 2//5 4//8
f 2//2 5//9 3//3
f 3//4 5//10 2//5
f 1//1 3//3 6//11
f 6//12 3//4 1//6
f 4//7 7//13 2//2
f 2//5 7//14 4//8
f 4//7 1//1 8//15
f 8//16 1//6 4//8
f 2//2 7//13 5//9
f 5//10 7//14 2//5
f 3//3 5//9 9//17
f 9//18 5//10 3//4
f 6//11 3//3 10//19
f 10//20 3//4 6//12
f 11//21 1//1 6//11
f 6//12 1//6 11//22
f 12//23 7//13 4//7
f 4//8 7//14 12//24
f 8//15 1//1 11//21
f 11//22 1//6 8//16
f 7//13 13//25 5//9
f 5//10 13//26 7//14
f 9//17 5//9 14//27
f 14//28 5//10 9//18
f 10//19 3//3 9//17
f 9//18 3//4 10//20
f 12//23 15//29 7//13
f 7//14 15//30 12//24
f 15//29 13//25 7//13
f 7//14 13//26 15//30
f 5//9 13//25 14//27
f 14//28 13//26 5//10
f 9//17 14//27 16//31
f 16//32 14//28 9//18
f 10//19 9//17 17//33
f 17//34 9//18 10//20
f 12//23 18//35 15//29
f 15//30 18//36 12//24
f 15//29 19//37 13//25
f 13//26 19//38 15//30
f 14//27 13//25 20//39
f 20//40 13//26 14//28
f 16//31 14//27 21//41
f 21//42 14//28 16//32
f 17//33 9//17 16//31
f 16//32 9//18 17//34
f 22//43 18//35 12//23
f 12//24 18//36 22//44
f 18//35 19//37 15//29
f 15//30 19//38 18//36
f 19//37 20//39 13//25
f 13//26 20//40 19//38
f 14//27 20//39 21//41
f 21//42 20//40 14//28
f 23//45 16//31 21//41
f 21//42 16//32 23//46
f 24//47 17//33 16//31
f 16//32 17//34 24//48
f 22//43 25//49 18//35
f 18//36 25//50 22//44
f 18//35 26//51 19//37
f 19//38 26//52 18//36
f 19//37 27//53 20//39
f 20//40 27//54 19//38
f 21//41 20//39 28//55
f 28//56 20//40 21//42
f 24//47 16//31 23//45
f 23//46 16//32 24//48
f 23//45 21//41 29//57
f 29//58 21//42 23//46
f 22//43 30//59 25//49
f 25//50 30//60 22//44
f 25//49 26//51 18//35
f 18//36 26//52 25//50
f 26//51 27//53 19//37
f 19//38 27//54 26//52
f 27//53 28//55 20//39
f 20//40 28//56 27//54
f 29//57 21//41 28//55
f 28//56 21//42 29//58
f 31//61 24//47 23//45
f 23//46 24//48 31//62
f 32//63 23//45 29//57
f 29//58 23//46 32//64
f 33//65 30//59 22//43
f 22//44 30//60 33//66
f 30//59 34//67 25//49
f 25//50 34//68 30//60
f 25//49 34//67 26//51
f 26//52 34//68 25//50
f 26//51 35//69 27//53
f 27//54 35//70 26//52
f 27//53 36//71 28//55
f 28//56 36//72 27//54
f 29//57 28//55 37//73
f 37//74 28//56 29//58
f 31//61 23//45 32//63
f 32//64 23//46 31//62
f 32//63 29//57 37//73
f 37//74 29//58 32//64
f 38//75 30//59 33//65
f 33//66 30//60 38//76
f 30//59 39//77 34//67
f 34//68 39//78 30//60
f 34//67 35//69 26//51
f 26//52 35//70 34//68
f 35//69 36//71 27//53
f 27//54 36//72 35//70
f 28//55 36//71 37//73
f 37//74 36//72 28//56
f 37//73 40//79 32//63
f 32//64 40//80 37//74
f 38//75 41//81 30//59
f 30//60 41//82 38//76
f 41//81 39//77 30//59
f 30//60 39//78 41//82
f 39//77 42//83 34//67
f 34//68 42//84 39//78
f 34//67 42//83 35//69
f 35//70 42//84 34//68
f 35//69 43//85 36//71
f 36//72 43//86 35//70
f 36//71 44//87 37//73
f 37//74 44//88 36//72
f 37//73 44//87 40//79
f 40//80 44//88 37//74
f 45//89 41//81 38//75
f 38//76 41//82 45//90
f 41//81 46//91 39//77
f 39//78 46//92 41//82
f 39//77 47//93 42//83
f 42//84 47//94 39//78
f 42//83 43//85 35//69
f 35//70 43//86 42//84
f 36//71 43//85 44//87
f 44//88 43//86 36//72
f 44//87 48//95 40//79
f 40//80 48//96 44//88
f 45//89 49//97 41//81
f 41//82 49//98 45//90
f 41//81 49//97 46//91
f 46//92 49//98 41//82
f 46//91 47//93 39//77
f 39//78 47//94 46//92
f 47//93 50//99 42//83
f 42//84 50//100 47//94
f 42//83 50//99 43//85
f 43//86 50//100 42//84
f 43//85 48//95 44//87
f 44//88 48//96 43//86
f 48//95 51//101 40//79
f 40//80 51//102 48//96
f 52//103 49//97 45//89
f 45//90 49//98 52//104
f 49//97 53//105 46//91
f 46//92 53//106 49//98
f 46//91 54//107 47//93
f 47//94 54//108 46//92
f 47//93 55//109 50//99
f 50//100 55//110 47//94
f 43//85 50//99 48//95
f 48//96 50//100 43//86
f 48//95 56//111 51//101
f 51//102 56//112 48//96
f 52//103 57//113 49//97
f 49//98 57//114 52//104
f 49//97 57//113 53//105
f 53//106 57//114 49//98
f 53//105 54//107 46//91
f 46//92 54//108 53//106
f 54//107 55//109 47//93
f 47//94 55//110 54//108
f 50//99 55//109 56//111
f 56//112 55//110 50//100
f 50//99 56//111 48//95
f 48//96 56//112 50//100
f 56//111 58//115 51//101
f 51//102 58//116 56//112
f 57//113 59//117 53//105
f 53//106 59//118 57//114
f 60//119 54//107 53//105
f 53//106 54//108 60//120
f 54//107 61//121 55//109
f 55//110 61//122 54//108
f 55//109 58//115 56//111
f 56//112 58//116 55//110
f 58//115 62//123 51//101
f 51//102 62//124 58//116
f 59//117 60//119 53//105
f 53//106 60//120 59//118
f 60//119 61//121 54//107
f 54//108 61//122 60//120
f 55//109 61//121 58//115
f 58//116 61//122 55//110
f 58//115 63//125 62//123
f 62//124 63//126 58//116
f 64//127 60//119 59//117
f 59//118 60//120 64//128
f 65//129 61//121 60//119
f 60//120 61//122 65//130
f 61//121 66//131 58//115
f 58//116 66//132 61//122
f 58//115 66//131 63//125
f 63//126 66//132 58//116
f 64//127 65//129 60//119
f 60//120 65//130 64//128
f 66//131 61//121 65//129
f 65//130 61//122 66//132
f 63//125 66//131 67//133
f 67//134 66//132 63//126
f 68//135 65//129 64//127
f 64//128 65//130 68//136
f 66//131 65//129 69//137
f 69//138 65//130 66//132
f 67//133 66//131 69//137
f 69//138 66//132 67//134
f 69//137 65//129 68//135
f 68//136 65//130 69//138
f 67//133 69//137 70//139
f 70//140 69//138 67//134
f 69//137 68//135 71//141
f 71//142 68//136 69//138
f 70//139 69//137 71//141
f 71//142 69//138 70//140
