# SSTK version 0.8.0
# 11
mtllib original_11.mtl
o mesh9/mesh9-geometry#mesh9-geometry
v -0.00405491 0.17474148 -0.55216713
v -0.01280935 0.17399058 -0.55193198
v 0.01334868 0.17135471 -0.55244570
v -0.02136336 0.17144618 -0.55185438
v 0.00489213 0.17388356 -0.55222711
v -0.02925620 0.16713125 -0.55172401
v 0.02106757 0.16719881 -0.55252888
v 0.02791695 0.16154775 -0.55256903
v 0.03353589 0.15463694 -0.55274621
v 0.03773712 0.14698322 -0.55290045
v -0.03598944 0.16163371 -0.55152608
v -0.04160582 0.15461079 -0.55132787
v -0.04593369 0.14692779 -0.55145433
v 0.04022715 0.13840359 -0.55296705
v 0.04123004 0.12963169 -0.55279347
v -0.04831491 0.13836060 -0.55145499
v -0.04919809 0.12960553 -0.55128192
v 0.04022189 0.12077515 -0.55284375
v -0.04841231 0.12065080 -0.55114230
v -0.04583032 0.11229667 -0.55133445
v 0.03783560 0.11233055 -0.55283205
v 0.03352551 0.10441540 -0.55273183
v 0.02807830 0.09759924 -0.55262848
v 0.02116124 0.09193826 -0.55246519
v -0.04178867 0.10451809 -0.55152384
v -0.03593399 0.09757964 -0.55154682
v -0.02908532 0.09209139 -0.55172556
v 0.01337112 0.08780145 -0.55237151
v 0.00469774 0.08518829 -0.55213709
v -0.00393518 0.08416921 -0.55210806
v -0.01280988 0.08530904 -0.55178813
v -0.02129211 0.08769959 -0.55184708
vn 0.01745240643728352 0 0.9998476951563913
vn -0.01745240643728352 0 -0.9998476951563913
usemtl material_0_0
f 1//1 2//1 3//1
f 3//2 2//2 1//2
f 2//1 4//1 3//1
f 3//2 4//2 2//2
f 1//1 3//1 5//1
f 5//2 3//2 1//2
f 4//1 6//1 3//1
f 3//2 6//2 4//2
f 3//1 6//1 7//1
f 7//2 6//2 3//2
f 6//1 8//1 7//1
f 7//2 8//2 6//2
f 6//1 9//1 8//1
f 8//2 9//2 6//2
f 6//1 10//1 9//1
f 9//2 10//2 6//2
f 6//1 11//1 10//1
f 10//2 11//2 6//2
f 11//1 12//1 10//1
f 10//2 12//2 11//2
f 12//1 13//1 10//1
f 10//2 13//2 12//2
f 13//1 14//1 10//1
f 10//2 14//2 13//2
f 13//1 15//1 14//1
f 14//2 15//2 13//2
f 13//1 16//1 15//1
f 15//2 16//2 13//2
f 16//1 17//1 15//1
f 15//2 17//2 16//2
f 17//1 18//1 15//1
f 15//2 18//2 17//2
f 17//1 19//1 18//1
f 18//2 19//2 17//2
f 19//1 20//1 18//1
f 18//2 20//2 19//2
f 18//1 20//1 21//1
f 21//2 20//2 18//2
f 20//1 22//1 21//1
f 21//2 22//2 20//2
f 20//1 23//1 22//1
f 22//2 23//2 20//2
f 20//1 24//1 23//1
f 23//2 24//2 20//2
f 20//1 25//1 24//1
f 24//2 25//2 20//2
f 25//1 26//1 24//1
f 24//2 26//2 25//2
f 26//1 27//1 24//1
f 24//2 27//2 26//2
f 27//1 28//1 24//1
f 24//2 28//2 27//2
f 27//1 29//1 28//1
f 28//2 29//2 27//2
f 27//1 30//1 29//1
f 29//2 30//2 27//2
f 27//1 31//1 30//1
f 30//2 31//2 27//2
f 27//1 32//1 31//1
f 31//2 32//2 27//2
