# SSTK version 0.8.0
# 54
mtllib original_54.mtl
o mesh50/mesh50-geometry#mesh50-geometry
v 0.28446263 -0.80217725 0.08900709
v 0.26337317 -0.80220129 0.25168343
v 0.28079279 -0.80222906 0.19995407
v 0.27001453 -0.80218713 0.03607481
v 0.28812824 -0.80214038 0.14466805
v 0.23713357 -0.80219304 0.29748898
v 0.24670967 -0.80241228 -0.01098702
v 0.21699238 -0.80224840 -0.05093535
v 0.20499700 -0.80230356 0.33524768
v 0.16918300 -0.80225633 0.36513509
v 0.18316270 -0.80237336 -0.08298895
v 0.14771856 -0.80227034 -0.10722003
v 0.13224555 -0.80234134 0.38721852
v 0.09628722 -0.80239106 0.40202757
v 0.11277581 -0.80229679 -0.12413551
v 0.07856193 -0.80222386 -0.13531972
v 0.06159611 -0.80229868 0.41111732
v 0.02894279 -0.80217052 0.41534081
v 0.04642318 -0.80223594 -0.14190894
v -0.00072939 -0.80225502 0.41595115
v 0.01688885 -0.80215317 -0.14431179
v -0.03062693 -0.80223783 0.41348552
v -0.01301169 -0.80223900 -0.14372357
v -0.06282531 -0.80229148 0.40712327
v -0.04563982 -0.80228982 -0.13931402
v -0.08047173 -0.80226641 -0.13009370
v -0.09691952 -0.80234459 0.39588093
v -0.13170702 -0.80229451 0.37880472
v -0.11641458 -0.80232374 -0.11547502
v -0.15301927 -0.80226822 -0.09356611
v -0.16714138 -0.80234095 0.35477847
v -0.20095142 -0.80227431 0.32274082
v -0.18917249 -0.80215162 -0.06360945
v -0.22116076 -0.80241298 -0.02553320
v -0.23092115 -0.80225493 0.28291594
v -0.25403127 -0.80226952 0.23557625
v -0.24741639 -0.80233549 0.02007864
v -0.26839376 -0.80227337 0.18272571
v -0.26485002 -0.80232937 0.07191263
v -0.27221559 -0.80238444 0.12711808
vn 0 1 0
vn 0 -1 0
usemtl material_0_0
f 1//1 2//1 3//1
f 3//2 2//2 1//2
f 1//1 4//1 2//1
f 2//2 4//2 1//2
f 5//1 1//1 3//1
f 3//2 1//2 5//2
f 4//1 6//1 2//1
f 2//2 6//2 4//2
f 4//1 7//1 6//1
f 6//2 7//2 4//2
f 7//1 8//1 6//1
f 6//2 8//2 7//2
f 6//1 8//1 9//1
f 9//2 8//2 6//2
f 8//1 10//1 9//1
f 9//2 10//2 8//2
f 8//1 11//1 10//1
f 10//2 11//2 8//2
f 11//1 12//1 10//1
f 10//2 12//2 11//2
f 10//1 12//1 13//1
f 13//2 12//2 10//2
f 12//1 14//1 13//1
f 13//2 14//2 12//2
f 12//1 15//1 14//1
f 14//2 15//2 12//2
f 15//1 16//1 14//1
f 14//2 16//2 15//2
f 14//1 16//1 17//1
f 17//2 16//2 14//2
f 16//1 18//1 17//1
f 17//2 18//2 16//2
f 16//1 19//1 18//1
f 18//2 19//2 16//2
f 19//1 20//1 18//1
f 18//2 20//2 19//2
f 19//1 21//1 20//1
f 20//2 21//2 19//2
f 21//1 22//1 20//1
f 20//2 22//2 21//2
f 21//1 23//1 22//1
f 22//2 23//2 21//2
f 23//1 24//1 22//1
f 22//2 24//2 23//2
f 23//1 25//1 24//1
f 24//2 25//2 23//2
f 25//1 26//1 24//1
f 24//2 26//2 25//2
f 24//1 26//1 27//1
f 27//2 26//2 24//2
f 26//1 28//1 27//1
f 27//2 28//2 26//2
f 26//1 29//1 28//1
f 28//2 29//2 26//2
f 29//1 30//1 28//1
f 28//2 30//2 29//2
f 28//1 30//1 31//1
f 31//2 30//2 28//2
f 30//1 32//1 31//1
f 31//2 32//2 30//2
f 30//1 33//1 32//1
f 32//2 33//2 30//2
f 33//1 34//1 32//1
f 32//2 34//2 33//2
f 32//1 34//1 35//1
f 35//2 34//2 32//2
f 34//1 36//1 35//1
f 35//2 36//2 34//2
f 34//1 37//1 36//1
f 36//2 37//2 34//2
f 37//1 38//1 36//1
f 36//2 38//2 37//2
f 37//1 39//1 38//1
f 38//2 39//2 37//2
f 39//1 40//1 38//1
f 38//2 40//2 39//2
