# SSTK version 0.8.0
# 12
mtllib original_12.mtl
o #ID42
v 0.01725486 0.58388141 -0.07983068
v -0.03566583 0.58397960 -0.07983604
v -0.00932595 0.58379388 -0.08271105
v -0.06060192 0.58402216 -0.07183335
v 0.04173028 0.58378662 -0.07174341
v -0.08173264 0.58387724 -0.05877098
v 0.06309213 0.58391963 -0.05878229
v -0.09803533 0.58398181 -0.04204267
v 0.07915311 0.58382107 -0.04220943
v 0.08948115 0.58391821 -0.02279404
v -0.10839976 0.58386572 -0.02271569
v 0.09291638 0.58390954 -0.00168384
v -0.11187544 0.58389475 -0.00174530
v 0.08956159 0.58384998 0.01908984
v -0.10821739 0.58387719 0.01922507
v 0.07925301 0.58383186 0.03871452
v -0.09810646 0.58390244 0.03866231
v 0.06306101 0.58388020 0.05541298
v -0.08182696 0.58379224 0.05558027
v 0.04181095 0.58393037 0.06817871
v -0.06058910 0.58393475 0.06826411
v 0.01732089 0.58376747 0.07640386
v -0.03585753 0.58404421 0.07633034
v -0.00915749 0.58383918 0.07924118
vn 0 -1 0
usemtl material_0_0
f 1//1 2//1 3//1
f 2//1 1//1 4//1
f 4//1 1//1 5//1
f 4//1 5//1 6//1
f 6//1 5//1 7//1
f 6//1 7//1 8//1
f 8//1 7//1 9//1
f 8//1 9//1 10//1
f 8//1 10//1 11//1
f 11//1 10//1 12//1
f 11//1 12//1 13//1
f 13//1 12//1 14//1
f 13//1 14//1 15//1
f 15//1 14//1 16//1
f 15//1 16//1 17//1
f 17//1 16//1 18//1
f 17//1 18//1 19//1
f 19//1 18//1 20//1
f 19//1 20//1 21//1
f 21//1 20//1 22//1
f 21//1 22//1 23//1
f 23//1 22//1 24//1
