# SSTK version 0.8.0
# 6
mtllib original_6.mtl
o #ID96
v -0.06264149 0.89239288 0.01537246
v -0.05727859 0.88595175 0.02888506
v -0.06273211 0.88585415 0.01548775
v -0.05732449 0.89231500 0.02880482
v -0.04849451 0.88601509 0.04046528
v -0.04857986 0.89226962 0.04045915
v -0.02239188 0.88585425 -0.05212733
v 0.00620513 0.88585989 -0.05197228
v -0.00795507 0.88588144 -0.05403405
v -0.03596362 0.88582193 -0.04681242
v 0.01985950 0.88586997 -0.04603284
v -0.04770558 0.88595261 -0.03835247
v 0.03107993 0.88606832 -0.03720061
v -0.00845274 0.88600406 -0.03491425
v -0.01820267 0.88592069 -0.03379629
v -0.05662660 0.88598976 -0.02655849
v -0.02728322 0.88595483 -0.03036103
v -0.03500236 0.88576995 -0.02467629
v -0.06231364 0.88589016 -0.01336511
v -0.04112987 0.88586999 -0.01701044
v -0.04510614 0.88583822 -0.00805956
v -0.06437905 0.88578532 0.00092806
v -0.04652887 0.88583416 0.00151683
v -0.06258482 0.88588361 0.01549574
v -0.04534846 0.88576587 0.01117496
v -0.04193907 0.88575858 0.02021604
v -0.05717497 0.88596078 0.02872729
v -0.03605578 0.88596925 0.02787478
v -0.02846093 0.88599852 0.03395507
v -0.04854054 0.88579842 0.04056449
v -0.01980754 0.88589549 0.03791833
v -0.01005189 0.88582328 0.03931133
v 0.00101440 0.88598284 -0.03343219
v 0.03966791 0.88591047 -0.02562727
v 0.00997192 0.88589245 -0.02943238
v 0.01734618 0.88585426 -0.02361201
v 0.04527975 0.88606434 -0.01201806
v 0.02327076 0.88592635 -0.01580922
v 0.02669365 0.88587428 -0.00684563
v 0.04689286 0.88580224 0.00239297
v 0.02777455 0.88598059 0.00288195
v 0.04472598 0.88584140 0.01661152
v 0.02625592 0.88585211 0.01246930
v 0.02259918 0.88600665 0.02127675
v 0.03924764 0.88590285 0.03003103
v 0.01656992 0.88589371 0.02895923
v 0.00869586 0.88603618 0.03464675
v 0.03020405 0.88590005 0.04159338
v -0.00044150 0.88580617 0.03807152
v -0.03722924 0.88590277 0.04946759
v 0.01855438 0.88596306 0.05034238
v -0.02378202 0.88576607 0.05528514
v 0.00495980 0.88586751 0.05561308
v -0.00945608 0.88590610 0.05734736
v -0.06443041 0.89227656 0.00097325
v -0.06445567 0.88608376 0.00103835
v -0.03721384 0.89222274 0.04950977
v -0.03717514 0.88594552 0.04943132
v -0.02385243 0.89236739 0.05527383
v -0.02376675 0.88594017 0.05530794
v -0.00946814 0.89245950 0.05731361
v -0.00936924 0.88578463 0.05727899
v 0.00510702 0.89234068 0.05556259
v 0.00502043 0.88581115 0.05551346
v 0.01859043 0.89246546 0.05029162
v 0.01842637 0.88592067 0.05029935
v 0.03001883 0.89225556 0.04150161
v 0.03012527 0.88598894 0.04150219
v 0.03908694 0.88582734 0.03001002
v 0.03898404 0.89237893 0.03014670
v 0.04492290 0.88598156 0.01669375
v 0.04484215 0.89225356 0.01676247
v 0.04685984 0.88609425 0.00224561
v 0.04704029 0.89233738 0.00246422
v 0.04519054 0.88596851 -0.01215714
v 0.04527420 0.89224963 -0.01205068
v 0.03985089 0.88595634 -0.02569963
v 0.03978121 0.89235884 -0.02548983
v 0.03099439 0.88609491 -0.03710679
v 0.03117406 0.89233846 -0.03713499
v 0.01959120 0.89241787 -0.04620294
v 0.01956666 0.88592730 -0.04613466
v 0.00631649 0.89239435 -0.05184260
v 0.00647114 0.88600675 -0.05188840
v -0.00802299 0.89223686 -0.05400578
v -0.00801604 0.88602931 -0.05402252
v -0.02240424 0.89229470 -0.05227497
v -0.02236298 0.88586483 -0.05219919
v -0.03604002 0.89234869 -0.04674363
v -0.03588757 0.88576722 -0.04670322
v -0.04772347 0.89223838 -0.03822254
v -0.04765926 0.88602906 -0.03818989
v -0.05662046 0.88594935 -0.02664814
v -0.05661296 0.89242663 -0.02680234
v -0.06225184 0.88595949 -0.01332453
v -0.06226723 0.89237469 -0.01337587
vn 0.9690519956204228 0 -0.24685669888434472
vn 0.8721411147267265 0 -0.4892544082614106
vn 0.7157952832052489 0 -0.6983101836155029
vn 0 1 0
vn 0.9999235645671793 0 0.012363859561880094
vn 0.5106691904443761 0 -0.8597772839118776
vn 0.27074180062659947 0 -0.9626520022279427
vn 0.012363859561880094 0 -0.9999235645671793
vn -0.24685669888434472 0 -0.9690519956204228
vn -0.4892544082614106 0 -0.8721411147267265
vn -0.6983101836155029 0 -0.7157952832052489
vn -0.8597772839118776 0 -0.5106691904443761
vn -0.9626520022279427 0 -0.27074180062659947
vn -0.9999235645671793 0 -0.012363859561880094
vn -0.9690519956204228 0 0.24685669888434472
vn -0.8721411147267265 0 0.4892544082614106
vn -0.7157952832052489 0 0.6983101836155029
vn -0.5106691904443761 0 0.8597772839118776
vn -0.27074180062659947 0 0.9626520022279427
vn -0.012363859561880094 0 0.9999235645671793
vn 0.24685669888434472 0 0.9690519956204228
vn 0.4892544082614106 0 0.8721411147267265
vn 0.6983101836155029 0 0.7157952832052489
vn 0.8597772839118776 0 0.5106691904443761
vn 0.9626520022279427 0 0.27074180062659947
usemtl material_0_0
f 1//1 2//2 3//1
f 2//2 1//1 4//2
f 4//2 5//3 2//2
f 5//3 4//2 6//3
f 7//4 8//4 9//4
f 8//4 7//4 10//4
f 8//4 10//4 11//4
f 11//4 10//4 12//4
f 11//4 12//4 13//4
f 13//4 12//4 14//4
f 14//4 12//4 15//4
f 15//4 12//4 16//4
f 15//4 16//4 17//4
f 17//4 16//4 18//4
f 18//4 16//4 19//4
f 18//4 19//4 20//4
f 20//4 19//4 21//4
f 21//4 19//4 22//4
f 21//4 22//4 23//4
f 23//4 22//4 24//4
f 23//4 24//4 25//4
f 25//4 24//4 26//4
f 26//4 24//4 27//4
f 26//4 27//4 28//4
f 28//4 27//4 29//4
f 29//4 27//4 30//4
f 29//4 30//4 31//4
f 31//4 30//4 32//4
f 13//4 33//4 34//4
f 33//4 13//4 14//4
f 34//4 33//4 35//4
f 34//4 35//4 36//4
f 34//4 36//4 37//4
f 37//4 36//4 38//4
f 37//4 38//4 39//4
f 37//4 39//4 40//4
f 40//4 39//4 41//4
f 40//4 41//4 42//4
f 42//4 41//4 43//4
f 42//4 43//4 44//4
f 42//4 44//4 45//4
f 45//4 44//4 46//4
f 45//4 46//4 47//4
f 45//4 47//4 48//4
f 48//4 47//4 49//4
f 48//4 49//4 32//4
f 48//4 32//4 30//4
f 48//4 30//4 50//4
f 48//4 50//4 51//4
f 51//4 50//4 52//4
f 51//4 52//4 53//4
f 53//4 52//4 54//4
f 55//5 3//1 56//5
f 3//1 55//5 1//1
f 57//6 5//3 6//3
f 5//3 57//6 58//6
f 59//7 58//6 57//6
f 58//6 59//7 60//7
f 61//8 60//7 59//7
f 60//7 61//8 62//8
f 63//9 62//8 61//8
f 62//8 63//9 64//9
f 65//10 64//9 63//9
f 64//9 65//10 66//10
f 67//11 66//10 65//10
f 66//10 67//11 68//11
f 67//11 69//12 68//11
f 69//12 67//11 70//12
f 70//12 71//13 69//12
f 71//13 70//12 72//13
f 72//13 73//14 71//13
f 73//14 72//13 74//14
f 74//14 75//15 73//14
f 75//15 74//14 76//15
f 76//15 77//16 75//15
f 77//16 76//15 78//16
f 78//16 79//17 77//16
f 79//17 78//16 80//17
f 79//17 81//18 82//18
f 81//18 79//17 80//17
f 82//18 83//19 84//19
f 83//19 82//18 81//18
f 84//19 85//20 86//20
f 85//20 84//19 83//19
f 86//20 87//21 88//21
f 87//21 86//20 85//20
f 88//21 89//22 90//22
f 89//22 88//21 87//21
f 90//22 91//23 92//23
f 91//23 90//22 89//22
f 91//23 93//24 92//23
f 93//24 91//23 94//24
f 94//24 95//25 93//24
f 95//25 94//24 96//25
f 96//25 56//5 95//25
f 56//5 96//25 55//5
