# SSTK version 0.8.0
# 6
mtllib original_6.mtl
o group_3/ID46#ID46
v 0.00830422 0.74399764 0.04338612
v -0.00976439 0.74386913 0.04498116
v -0.00066269 0.74395780 0.04495049
v -0.01859619 0.74410630 0.04315396
v 0.01677716 0.74394932 0.03959975
v -0.02689532 0.74391212 0.03929610
v 0.02394386 0.74386471 0.03411258
v -0.03407011 0.74392289 0.03405648
v 0.03004850 0.74398916 0.02750160
v -0.04003317 0.74397671 0.02722842
v 0.03471629 0.74392569 0.01968346
v -0.04478223 0.74386257 0.01929603
v 0.03760951 0.74387851 0.01114478
v -0.04754364 0.74389515 0.01053843
v 0.03864336 0.74392767 0.00208614
v -0.04844346 0.74396036 0.00149857
v 0.03766279 0.74396249 -0.00699391
v -0.04731900 0.74384745 -0.00745629
v 0.03494241 0.74393993 -0.01572033
v -0.04447107 0.74402720 -0.01599224
v 0.03027548 0.74377817 -0.02353366
v -0.03994712 0.74404022 -0.02394813
v 0.02435555 0.74391005 -0.03017695
v -0.03387023 0.74386293 -0.03062172
v 0.01714679 0.74407610 -0.03580194
v -0.02654962 0.74388139 -0.03600863
v 0.00867962 0.74388353 -0.03954124
v -0.01807601 0.74391474 -0.03957294
v -0.00015028 0.74393284 -0.04154919
v -0.00928413 0.74405743 -0.04152956
v -0.00918354 0.74385710 -0.04146215
v -0.00019791 0.74384607 -0.04152396
v -0.01808529 0.74382607 -0.03965533
v 0.00868806 0.74380734 -0.03956783
v -0.02646509 0.74401783 -0.03597472
v 0.01712745 0.74389349 -0.03569825
v -0.03392307 0.74392193 -0.03067647
v 0.02433296 0.74391852 -0.03041071
v -0.03979875 0.74391695 -0.02400615
v 0.03030541 0.74409464 -0.02352633
v -0.04439234 0.74380643 -0.01596796
v 0.03485987 0.74407421 -0.01569876
v -0.04737856 0.74381063 -0.00739264
v 0.03765208 0.74388735 -0.00710850
v -0.04836789 0.74391936 0.00142886
v 0.03861423 0.74404707 0.00209685
v -0.04754532 0.74410551 0.01050584
v 0.03759425 0.74387081 0.01089576
v -0.04485698 0.74386070 0.01916178
v 0.03451463 0.74391449 0.01968346
v -0.04017818 0.74391218 0.02723303
v 0.03010350 0.74384061 0.02748308
v -0.03402737 0.74404839 0.03379739
v 0.02389053 0.74395150 0.03422312
v -0.02687284 0.74384122 0.03927766
v 0.01663906 0.74394718 0.03940760
v -0.01855928 0.74402212 0.04294813
v 0.00838672 0.74383971 0.04314998
v -0.00970804 0.74394227 0.04488971
v -0.00063648 0.74385369 0.04492366
v -0.04830649 0.74395442 0.00171031
v -0.04746412 0.66963101 -0.00743458
v -0.04849593 0.66971857 0.00168173
v -0.04738254 0.74388731 -0.00744782
v -0.04725756 0.74397304 -0.00740933
v -0.04837866 0.74400616 0.00156104
v -0.04721710 0.66977721 -0.00736245
v -0.04852937 0.66961418 0.00165176
v -0.04759452 0.74402861 0.01048368
v -0.04731808 0.66978567 0.01056524
v -0.04745399 0.74394266 0.01056002
v -0.04730631 0.66966589 0.01057722
v -0.04462028 0.74396577 0.01923820
v -0.04482957 0.66979078 0.01928565
v -0.04469972 0.74400311 0.01924565
v -0.04484895 0.66962248 0.01936737
v -0.04003866 0.74404949 0.02721008
v -0.04018486 0.66983954 0.02711797
v -0.04029354 0.74406473 0.02720953
v -0.04032995 0.66963220 0.02715233
v -0.03421025 0.74382724 0.03403406
v -0.03408664 0.66976220 0.03381090
v -0.03409601 0.74389832 0.03395448
v -0.03409129 0.66971471 0.03387203
v -0.02686853 0.66960641 0.03943572
v -0.02669499 0.74387605 0.03948524
v -0.02683584 0.66965164 0.03941750
v -0.02689839 0.74402252 0.03940110
v -0.01869387 0.66956668 0.04304455
v -0.01868075 0.74403567 0.04303706
v -0.01855884 0.66962365 0.04314886
v -0.01841828 0.74400378 0.04297325
v -0.00970075 0.66970269 0.04505664
v -0.00965228 0.74403776 0.04485024
v -0.00985330 0.66971522 0.04486145
v -0.00966459 0.74381877 0.04511125
v -0.00062281 0.66966011 0.04509544
v -0.00058375 0.74379969 0.04509963
v -0.00058039 0.66955456 0.04510014
v -0.00058086 0.74410160 0.04504519
v 0.00839984 0.66973041 0.04319394
v 0.00847426 0.74391509 0.04313440
v 0.00838869 0.66982780 0.04303666
v 0.00824855 0.74379400 0.04311263
v 0.01659943 0.66963095 0.03962569
v 0.01650864 0.74404193 0.03942271
v 0.01663171 0.66975859 0.03967242
v 0.01676470 0.74406191 0.03960135
v 0.02392464 0.66963860 0.03425243
v 0.02409239 0.74394236 0.03425444
v 0.02401542 0.66966044 0.03439028
v 0.02382971 0.74384792 0.03435967
v 0.03017149 0.74404366 0.02746978
v 0.03020804 0.66982366 0.02749568
v 0.02997496 0.74391294 0.02747924
v 0.03023983 0.66972719 0.02750931
v 0.03473817 0.74383318 0.01978727
v 0.03454851 0.66977063 0.01971284
v 0.03457405 0.74390458 0.01965008
v 0.03470210 0.66962363 0.01965094
v 0.03757980 0.74394730 0.01098418
v 0.03751243 0.66964314 0.01100335
v 0.03763110 0.74409528 0.01096825
v 0.03753041 0.66975755 0.01113170
v 0.03866732 0.74398257 0.00206434
v 0.03859390 0.66964004 0.00202754
v 0.03851297 0.74373958 0.00210118
v 0.03861263 0.66971598 0.00199715
v 0.03769536 0.74392167 -0.00695493
v 0.03780255 0.66965993 -0.00695691
v 0.03759926 0.74381736 -0.00697671
v 0.03768259 0.66976159 -0.00691204
v 0.03495345 0.74406346 -0.01561890
v 0.03491839 0.66970613 -0.01568518
v 0.03497222 0.74383515 -0.01562118
v 0.03497355 0.66959404 -0.01574596
v 0.03037642 0.74398265 -0.02346024
v 0.03038356 0.66976954 -0.02360978
v 0.03029242 0.74398859 -0.02366817
v 0.03051839 0.66972852 -0.02361590
v 0.02439463 0.74401408 -0.03050425
v 0.02448783 0.66980424 -0.03027418
v 0.02447914 0.74394806 -0.03031142
v 0.02426999 0.66964341 -0.03047682
v 0.01713298 0.66959178 -0.03590964
v 0.01707267 0.74405913 -0.03578595
v 0.01697724 0.74391905 -0.03579715
v 0.01686800 0.66954222 -0.03569777
v 0.00873431 0.66968286 -0.03952620
v 0.00879188 0.74391335 -0.03954379
v 0.00877485 0.74385081 -0.03943355
v 0.00865576 0.66973467 -0.03944518
v -0.00028168 0.66966287 -0.04149193
v -0.00008613 0.74397351 -0.04150894
v -0.00014449 0.74402078 -0.04144312
v -0.00003382 0.66976171 -0.04139323
v -0.00920923 0.66974297 -0.04146490
v -0.00916879 0.74385630 -0.04145089
v -0.00926095 0.74387649 -0.04153270
v -0.00912276 0.66985960 -0.04142217
v -0.01816260 0.66965219 -0.03968893
v -0.01814289 0.74400704 -0.03951182
v -0.01806891 0.74404003 -0.03967099
v -0.01799621 0.66957989 -0.03943971
v -0.02647969 0.66969901 -0.03588906
v -0.02648312 0.74394131 -0.03595504
v -0.02660470 0.74380464 -0.03593990
v -0.02648230 0.66972036 -0.03600246
v -0.03371042 0.66961324 -0.03071528
v -0.03373172 0.74398318 -0.03066240
v -0.03366836 0.74387647 -0.03064050
v -0.03388095 0.66974613 -0.03072561
v -0.03993927 0.74385032 -0.02402800
v -0.03996990 0.66961137 -0.02387169
v -0.03983595 0.74396310 -0.02399134
v -0.03998783 0.66978102 -0.02378667
v -0.04460703 0.74390515 -0.01607271
v -0.04468327 0.66975043 -0.01607619
v -0.04452236 0.74399991 -0.01621648
v -0.04442083 0.66975969 -0.01609789
vn 0 1 0
vn 0 -1 0
vn -0.9999862920847643 0 -0.005235994897271958
vn -0.9770455658713494 0 -0.21303042555263024
vn 0.9770455658713494 0 0.21303042555263024
vn 0.9999862920847643 0 0.005235994897271958
vn -0.9792228150693219 0 0.20278727388007553
vn 0.9792228150693219 0 -0.20278727388007553
vn -0.9156626285687869 0 0.40194769640153416
vn 0.9156626285687869 0 -0.40194769640153416
vn -0.812083524427163 0 0.5835412147860316
vn 0.812083524427163 0 -0.5835412147860316
vn -0.6730125456012049 0 0.7396310657776526
vn 0.6730125456012049 0 -0.7396310657776526
vn -0.5045276522712392 0 0.8633955339782987
vn 0.5045276522712392 0 -0.8633955339782987
vn -0.3139924953225155 0 0.9494254646264444
vn 0.3139924953225155 0 -0.9494254646264444
vn -0.10973437779899876 0 0.9939609480905509
vn 0.10973437779899876 0 -0.9939609480905509
vn 0.09931975469970927 0 0.9950555694665447
vn -0.09931975469970927 0 -0.9950555694665447
vn 0.30403304122344493 0 0.9526614875413109
vn -0.30403304122344493 0 -0.9526614875413109
vn 0.49545864309090043 0 0.8686315288927313
vn -0.49545864309090043 0 -0.8686315288927313
vn 0.6652303406592803 0 0.7466381947545532
vn -0.6652303406592803 0 -0.7466381947545532
vn 0.8059282429647961 0 0.5920132322775196
vn -0.8059282429647961 0 -0.5920132322775196
vn 0.9114032871347105 0 0.41151433535181287
vn -0.9114032871347105 0 -0.41151433535181287
usemtl material_0_0
f 1//1 2//1 3//1
f 2//1 1//1 4//1
f 4//1 1//1 5//1
f 4//1 5//1 6//1
f 6//1 5//1 7//1
f 6//1 7//1 8//1
f 8//1 7//1 9//1
f 8//1 9//1 10//1
f 10//1 9//1 11//1
f 10//1 11//1 12//1
f 12//1 11//1 13//1
f 12//1 13//1 14//1
f 14//1 13//1 15//1
f 14//1 15//1 16//1
f 16//1 15//1 17//1
f 16//1 17//1 18//1
f 18//1 17//1 19//1
f 18//1 19//1 20//1
f 20//1 19//1 21//1
f 20//1 21//1 22//1
f 22//1 21//1 23//1
f 22//1 23//1 24//1
f 24//1 23//1 25//1
f 24//1 25//1 26//1
f 26//1 25//1 27//1
f 26//1 27//1 28//1
f 28//1 27//1 29//1
f 28//1 29//1 30//1
f 31//2 32//2 33//2
f 32//2 34//2 33//2
f 33//2 34//2 35//2
f 34//2 36//2 35//2
f 35//2 36//2 37//2
f 36//2 38//2 37//2
f 37//2 38//2 39//2
f 38//2 40//2 39//2
f 39//2 40//2 41//2
f 40//2 42//2 41//2
f 41//2 42//2 43//2
f 42//2 44//2 43//2
f 43//2 44//2 45//2
f 44//2 46//2 45//2
f 45//2 46//2 47//2
f 46//2 48//2 47//2
f 47//2 48//2 49//2
f 48//2 50//2 49//2
f 49//2 50//2 51//2
f 50//2 52//2 51//2
f 51//2 52//2 53//2
f 52//2 54//2 53//2
f 53//2 54//2 55//2
f 54//2 56//2 55//2
f 55//2 56//2 57//2
f 56//2 58//2 57//2
f 57//2 58//2 59//2
f 60//2 59//2 58//2
f 61//3 62//4 63//3
f 62//4 61//3 64//4
f 65//5 66//6 67//5
f 68//6 67//5 66//6
f 69//7 63//3 70//7
f 63//3 69//7 61//3
f 66//6 71//8 68//6
f 72//8 68//6 71//8
f 73//9 70//7 74//9
f 70//7 73//9 69//7
f 71//8 75//10 72//8
f 76//10 72//8 75//10
f 77//11 74//9 78//11
f 74//9 77//11 73//9
f 75//10 79//12 76//10
f 80//12 76//10 79//12
f 81//13 78//11 82//13
f 78//11 81//13 77//11
f 79//12 83//14 80//12
f 84//14 80//12 83//14
f 81//13 85//15 86//15
f 85//15 81//13 82//13
f 84//14 83//14 87//16
f 88//16 87//16 83//14
f 86//15 89//17 90//17
f 89//17 86//15 85//15
f 87//16 88//16 91//18
f 92//18 91//18 88//16
f 90//17 93//19 94//19
f 93//19 90//17 89//17
f 91//18 92//18 95//20
f 96//20 95//20 92//18
f 94//19 97//21 98//21
f 97//21 94//19 93//19
f 95//20 96//20 99//22
f 100//22 99//22 96//20
f 98//21 101//23 102//23
f 101//23 98//21 97//21
f 99//22 100//22 103//24
f 104//24 103//24 100//22
f 102//23 105//25 106//25
f 105//25 102//23 101//23
f 103//24 104//24 107//26
f 108//26 107//26 104//24
f 106//25 109//27 110//27
f 109//27 106//25 105//25
f 107//26 108//26 111//28
f 112//28 111//28 108//26
f 113//29 109//27 114//29
f 109//27 113//29 110//27
f 112//28 115//30 111//28
f 116//30 111//28 115//30
f 117//31 114//29 118//31
f 114//29 117//31 113//29
f 115//30 119//32 116//30
f 120//32 116//30 119//32
f 121//5 118//31 122//5
f 118//31 121//5 117//31
f 119//32 123//4 120//32
f 124//4 120//32 123//4
f 125//6 122//5 126//6
f 122//5 125//6 121//5
f 123//4 127//3 124//4
f 128//3 124//4 127//3
f 129//8 126//6 130//8
f 126//6 129//8 125//6
f 127//3 131//7 128//3
f 132//7 128//3 131//7
f 133//10 130//8 134//10
f 130//8 133//10 129//8
f 131//7 135//9 132//7
f 136//9 132//7 135//9
f 137//12 134//10 138//12
f 134//10 137//12 133//10
f 135//9 139//11 136//9
f 140//11 136//9 139//11
f 141//14 138//12 142//14
f 138//12 141//14 137//12
f 139//11 143//13 140//11
f 144//13 140//11 143//13
f 145//16 141//14 142//14
f 141//14 145//16 146//16
f 147//15 148//15 143//13
f 144//13 143//13 148//15
f 149//18 146//16 145//16
f 146//16 149//18 150//18
f 151//17 152//17 147//15
f 148//15 147//15 152//17
f 153//20 150//18 149//18
f 150//18 153//20 154//20
f 155//19 156//19 151//17
f 152//17 151//17 156//19
f 157//22 154//20 153//20
f 154//20 157//22 158//22
f 159//21 160//21 155//19
f 156//19 155//19 160//21
f 161//24 158//22 157//22
f 158//22 161//24 162//24
f 163//23 164//23 159//21
f 160//21 159//21 164//23
f 165//26 162//24 161//24
f 162//24 165//26 166//26
f 167//25 168//25 163//23
f 164//23 163//23 168//25
f 169//28 166//26 165//26
f 166//26 169//28 170//28
f 171//27 172//27 167//25
f 168//25 167//25 172//27
f 173//30 169//28 174//30
f 169//28 173//30 170//28
f 171//27 175//29 172//27
f 176//29 172//27 175//29
f 177//32 174//30 178//32
f 174//30 177//32 173//30
f 175//29 179//31 176//29
f 180//31 176//29 179//31
f 64//4 178//32 62//4
f 178//32 64//4 177//32
f 179//31 65//5 180//31
f 67//5 180//31 65//5
