# SSTK version 0.8.0
# 8
mtllib original_8.mtl
o group_5/ID60#ID60
v -0.02513546 0.96675960 0.06333606
v 0.00141953 0.96665100 0.06635874
v -0.01199052 0.96677834 0.06616968
v 0.01479183 0.96660887 0.06357349
v -0.03763780 0.96661928 0.05768434
v 0.02720221 0.96670963 0.05810976
v -0.04856876 0.96676953 0.04966743
v 0.03834604 0.96657571 0.05023442
v -0.05772709 0.96672462 0.03977895
v 0.04726508 0.96665507 0.04009174
v -0.06428611 0.96667435 0.02790084
v 0.05406454 0.96672041 0.02860505
v -0.06844630 0.96668743 0.01491802
v 0.05835039 0.96667792 0.01570496
v -0.06983498 0.96663440 0.00147577
v 0.05984460 0.96668396 0.00206665
v -0.06818647 0.96667107 -0.01191187
v 0.05851728 0.96663605 -0.01145992
v -0.06402068 0.96667710 -0.02492226
v 0.05448881 0.96672293 -0.02412892
v -0.05715623 0.96674786 -0.03649015
v 0.04778624 0.96683442 -0.03609671
v -0.04813861 0.96666058 -0.04664144
v 0.03884034 0.96663036 -0.04626790
v -0.03701198 0.96668453 -0.05448201
v 0.02774850 0.96666368 -0.05427705
v -0.02461424 0.96658555 -0.06000058
v 0.01549865 0.96663018 -0.05976314
v -0.01139076 0.96681434 -0.06272545
v 0.00228234 0.96675185 -0.06275241
v 0.00221936 0.96656712 -0.06262549
v -0.01151332 0.96671561 -0.06271413
v 0.01541685 0.96667113 -0.05993503
v -0.02471507 0.96654897 -0.05998393
v 0.02777757 0.96679301 -0.05431024
v -0.03708255 0.96685090 -0.05459468
v 0.03873718 0.96672465 -0.04625772
v -0.04794785 0.96659626 -0.04654420
v 0.04780288 0.96655703 -0.03611831
v -0.05717866 0.96677666 -0.03667349
v 0.05439073 0.96675186 -0.02426658
v -0.06412344 0.96675159 -0.02497473
v 0.05863539 0.96665925 -0.01143636
v -0.06841308 0.96676380 -0.01204487
v 0.05983766 0.96654092 0.00211477
v -0.06977380 0.96681759 0.00142973
v 0.05837683 0.96672498 0.01572884
v -0.06855585 0.96667386 0.01479576
v 0.05421314 0.96669542 0.02844989
v -0.06429068 0.96683824 0.02795001
v 0.04752473 0.96684957 0.04026670
v -0.05763580 0.96664660 0.03956445
v 0.03818656 0.96667694 0.05024737
v -0.04854789 0.96675316 0.04979456
v 0.02706420 0.96676925 0.05800548
v -0.03762818 0.96675757 0.05790221
v 0.01477216 0.96670485 0.06369418
v -0.02533626 0.96662799 0.06330005
v 0.00153128 0.96656761 0.06640005
v -0.01204695 0.96656014 0.06626761
v -0.03704454 0.96668996 -0.05458733
v -0.02463529 0.97325174 -0.05999547
v -0.02476761 0.96656821 -0.05994624
v -0.03708667 0.97321323 -0.05452657
v -0.03716297 0.97327554 -0.05456253
v -0.03692724 0.96651549 -0.05448185
v -0.02452461 0.97321833 -0.05994282
v -0.02479675 0.96672971 -0.06009223
v -0.01128514 0.97317943 -0.06267414
v -0.01129784 0.96667403 -0.06281848
v -0.01135862 0.97315360 -0.06278576
v -0.01137759 0.96664118 -0.06280228
v 0.00229053 0.97327128 -0.06278955
v 0.00206184 0.96678787 -0.06264978
v 0.00225216 0.97316212 -0.06266270
v 0.00211245 0.96671470 -0.06287152
v 0.01556930 0.97317792 -0.05986853
v 0.01552566 0.96661577 -0.05975060
v 0.01548657 0.97329476 -0.05979595
v 0.01529695 0.96681776 -0.05993065
v 0.02772361 0.97311025 -0.05423061
v 0.02795246 0.96675621 -0.05427439
v 0.02775330 0.97310790 -0.05418363
v 0.02779086 0.96669029 -0.05407322
v 0.03884078 0.97336727 -0.04609488
v 0.03877413 0.96660236 -0.04616028
v 0.03872773 0.97329374 -0.04624492
v 0.03879792 0.96686169 -0.04629155
v 0.04764967 0.96677334 -0.03601614
v 0.04774606 0.97318303 -0.03594781
v 0.04778289 0.97306313 -0.03622772
v 0.04775791 0.96652492 -0.03610208
v 0.05455847 0.96663346 -0.02432591
v 0.05452644 0.97322665 -0.02433970
v 0.05450970 0.97322443 -0.02427744
v 0.05443569 0.96655735 -0.02438023
v 0.05857971 0.96669370 -0.01137968
v 0.05856804 0.97322983 -0.01125007
v 0.05863618 0.97309891 -0.01127746
v 0.05869274 0.96673417 -0.01141984
v 0.06000500 0.96665224 0.00200517
v 0.05981156 0.97326883 0.00220611
v 0.05992399 0.97317142 0.00214213
v 0.05996207 0.96678329 0.00216105
v 0.05840491 0.96679728 0.01564390
v 0.05847081 0.97338156 0.01559806
v 0.05846126 0.97314575 0.01560877
v 0.05863138 0.96679158 0.01576431
v 0.05437529 0.96666980 0.02839571
v 0.05423293 0.97320593 0.02848467
v 0.05406659 0.97311678 0.02844237
v 0.05406454 0.96670154 0.02861161
v 0.04726327 0.96675980 0.04016887
v 0.04732968 0.97316426 0.04011485
v 0.04744798 0.97327600 0.04019546
v 0.04750968 0.96667219 0.04022577
v 0.03829902 0.96668553 0.05012552
v 0.03813482 0.97313482 0.05011287
v 0.03813065 0.97321809 0.05027630
v 0.03823141 0.96658546 0.05026070
v 0.02735363 0.97321270 0.05817461
v 0.02739451 0.96678622 0.05806742
v 0.02706106 0.96652125 0.05830434
v 0.02727066 0.97311122 0.05826661
v 0.01474280 0.97317922 0.06377153
v 0.01474954 0.96670051 0.06349495
v 0.01479888 0.96655864 0.06351950
v 0.01487398 0.97314285 0.06356326
v 0.00158118 0.97313410 0.06644644
v 0.00151515 0.96672219 0.06622697
v 0.00153430 0.96676462 0.06638527
v 0.00146525 0.97333037 0.06637661
v -0.01210028 0.97313978 0.06626146
v -0.01187253 0.96658171 0.06636498
v -0.01208385 0.96671789 0.06634990
v -0.01203905 0.97305735 0.06634379
v -0.02535947 0.97318815 0.06353698
v -0.02531191 0.96672758 0.06350947
v -0.02523565 0.96674112 0.06343345
v -0.02533650 0.97315306 0.06336033
v -0.03749550 0.97309527 0.05781276
v -0.03759711 0.96660646 0.05773964
v -0.03773236 0.96678730 0.05770518
v -0.03774210 0.97314364 0.05780701
v -0.04857047 0.97324070 0.04964667
v -0.04844597 0.96687497 0.04968475
v -0.04858561 0.96661207 0.04967832
v -0.04863445 0.97327903 0.04983777
v -0.05747450 0.96672628 0.03953283
v -0.05752614 0.97325800 0.03980363
v -0.05767367 0.97309036 0.03965281
v -0.05756056 0.96662682 0.03954868
v -0.06436857 0.96678218 0.02801760
v -0.06440479 0.97327759 0.02788122
v -0.06448656 0.97312210 0.02778777
v -0.06430652 0.96660563 0.02784451
v -0.06847126 0.96669804 0.01484943
v -0.06863056 0.97307188 0.01496395
v -0.06847232 0.97325134 0.01486568
v -0.06842369 0.96677520 0.01483414
v -0.06976178 0.96652278 0.00158805
v -0.06983673 0.97326649 0.00155368
v -0.06975707 0.97324373 0.00147155
v -0.06977933 0.96668137 0.00136237
v -0.06833590 0.96662755 -0.01211624
v -0.06826740 0.97323646 -0.01193452
v -0.06833698 0.97336218 -0.01190556
v -0.06825458 0.96665846 -0.01196094
v -0.06411037 0.96677868 -0.02499484
v -0.06417715 0.97320435 -0.02495878
v -0.06413027 0.97315914 -0.02485839
v -0.06409504 0.96665300 -0.02481760
v -0.05706563 0.96660698 -0.03666439
v -0.05738222 0.97312486 -0.03662931
v -0.05736466 0.97337198 -0.03646097
v -0.05731151 0.96670423 -0.03655774
v -0.04810432 0.96673483 -0.04649811
v -0.04809850 0.97318122 -0.04662807
v -0.04807881 0.97315704 -0.04665799
v -0.04806156 0.96671516 -0.04682215
v 0.01483391 0.97318452 0.06360890
v -0.01205874 0.97303054 0.06645068
v 0.00141047 0.97333870 0.06633043
v -0.02529413 0.97319930 0.06348200
v -0.03754491 0.97313004 0.05780488
v 0.02715506 0.97318485 0.05818457
v 0.03821961 0.97312228 0.05037745
v -0.04859681 0.97321936 0.04980909
v -0.05754397 0.97327565 0.03963047
v 0.04745161 0.97321645 0.04021694
v 0.05416096 0.97335548 0.02851909
v -0.06432516 0.97311584 0.02800239
v 0.05835514 0.97310657 0.01570408
v -0.06829138 0.97335499 0.01496434
v 0.06013322 0.97321848 0.00200474
v -0.06974440 0.97320584 0.00148957
v 0.05867503 0.97325146 -0.01143534
v -0.06834632 0.97312579 -0.01198969
v 0.05435547 0.97333349 -0.02428469
v -0.06405616 0.97305936 -0.02501537
v 0.04792978 0.97310930 -0.03597180
v -0.05719318 0.97310487 -0.03659989
v 0.03880439 0.97313589 -0.04627336
v -0.04796864 0.97313175 -0.04675247
v -0.03704525 0.97315191 -0.05458224
v 0.02779792 0.97327222 -0.05423050
v 0.01554899 0.97318821 -0.05995242
v -0.02456988 0.97314147 -0.05996078
v -0.01136352 0.97324700 -0.06279458
v 0.00219016 0.97319093 -0.06286076
v 0.00218650 0.97328034 -0.06265323
v 0.01543012 0.97329091 -0.05994269
v -0.01137866 0.97314488 -0.06277361
v -0.02459717 0.97321434 -0.06006336
v -0.03722207 0.97305969 -0.05468712
v 0.02786925 0.97326173 -0.05414445
v 0.03874226 0.97312987 -0.04627262
v -0.04806151 0.97321871 -0.04654897
v -0.05737512 0.97319990 -0.03659444
v 0.04785849 0.97317108 -0.03591001
v -0.06402825 0.97318718 -0.02485782
v 0.05462397 0.97318829 -0.02440573
v -0.06834023 0.97323440 -0.01220672
v 0.05876364 0.97333747 -0.01120780
v -0.06974274 0.97327094 0.00148865
v 0.05999560 0.97318318 0.00205501
v -0.06860764 0.97336310 0.01506306
v 0.05856312 0.97307231 0.01570534
v -0.06446102 0.97330050 0.02787605
v 0.05429780 0.97317873 0.02858110
v -0.05767538 0.97316738 0.03957708
v 0.04734264 0.97305182 0.04003388
v 0.03833854 0.97315294 0.05021346
v -0.04856095 0.97326198 0.04964560
v -0.03766687 0.97316508 0.05781834
v 0.02711862 0.97327246 0.05819221
v 0.01499690 0.97314087 0.06363139
v -0.02523718 0.97332900 0.06337329
v -0.01218141 0.97317454 0.06616985
v 0.00163613 0.97323160 0.06637236
vn 0 -1 0
vn 0 1 0
vn -0.49545864309090043 0 -0.8686315288927313
vn -0.30403304122344493 0 -0.9526614875413109
vn 0.49545864309090043 0 0.8686315288927313
vn 0.30403304122344493 0 0.9526614875413109
vn -0.09931975469970927 0 -0.9950555694665447
vn 0.09931975469970927 0 0.9950555694665447
vn 0.10973437779899876 0 -0.9939609480905509
vn -0.10973437779899876 0 0.9939609480905509
vn 0.3139924953225155 0 -0.9494254646264444
vn -0.3139924953225155 0 0.9494254646264444
vn 0.5045276522712392 0 -0.8633955339782987
vn -0.5045276522712392 0 0.8633955339782987
vn 0.6730125456012049 0 -0.7396310657776526
vn -0.6730125456012049 0 0.7396310657776526
vn 0.812083524427163 0 -0.5835412147860316
vn -0.812083524427163 0 0.5835412147860316
vn 0.9156626285687869 0 -0.40194769640153416
vn -0.9156626285687869 0 0.40194769640153416
vn 0.9792228150693219 0 -0.20278727388007553
vn -0.9792228150693219 0 0.20278727388007553
vn 0.9999862920847643 0 0.005235994897271958
vn -0.9999862920847643 0 -0.005235994897271958
vn 0.9770455658713494 0 0.21303042555263024
vn -0.9770455658713494 0 -0.21303042555263024
vn 0.9114032871347105 0 0.41151433535181287
vn -0.9114032871347105 0 -0.41151433535181287
vn 0.8059282429647961 0 0.5920132322775196
vn -0.8059282429647961 0 -0.5920132322775196
vn 0.6652303406592803 0 0.7466381947545532
vn -0.6652303406592803 0 -0.7466381947545532
usemtl material_0_0
f 1//1 2//1 3//1
f 2//1 1//1 4//1
f 4//1 1//1 5//1
f 4//1 5//1 6//1
f 6//1 5//1 7//1
f 6//1 7//1 8//1
f 8//1 7//1 9//1
f 8//1 9//1 10//1
f 10//1 9//1 11//1
f 10//1 11//1 12//1
f 12//1 11//1 13//1
f 12//1 13//1 14//1
f 14//1 13//1 15//1
f 14//1 15//1 16//1
f 16//1 15//1 17//1
f 16//1 17//1 18//1
f 18//1 17//1 19//1
f 18//1 19//1 20//1
f 20//1 19//1 21//1
f 20//1 21//1 22//1
f 22//1 21//1 23//1
f 22//1 23//1 24//1
f 24//1 23//1 25//1
f 24//1 25//1 26//1
f 26//1 25//1 27//1
f 26//1 27//1 28//1
f 28//1 27//1 29//1
f 28//1 29//1 30//1
f 31//2 32//2 33//2
f 32//2 34//2 33//2
f 33//2 34//2 35//2
f 34//2 36//2 35//2
f 35//2 36//2 37//2
f 36//2 38//2 37//2
f 37//2 38//2 39//2
f 38//2 40//2 39//2
f 39//2 40//2 41//2
f 40//2 42//2 41//2
f 41//2 42//2 43//2
f 42//2 44//2 43//2
f 43//2 44//2 45//2
f 44//2 46//2 45//2
f 45//2 46//2 47//2
f 46//2 48//2 47//2
f 47//2 48//2 49//2
f 48//2 50//2 49//2
f 49//2 50//2 51//2
f 50//2 52//2 51//2
f 51//2 52//2 53//2
f 52//2 54//2 53//2
f 53//2 54//2 55//2
f 54//2 56//2 55//2
f 55//2 56//2 57//2
f 56//2 58//2 57//2
f 57//2 58//2 59//2
f 60//2 59//2 58//2
f 61//3 62//4 63//4
f 62//4 61//3 64//3
f 65//5 66//5 67//6
f 68//6 67//6 66//5
f 63//4 69//7 70//7
f 69//7 63//4 62//4
f 67//6 68//6 71//8
f 72//8 71//8 68//6
f 70//7 73//9 74//9
f 73//9 70//7 69//7
f 71//8 72//8 75//10
f 76//10 75//10 72//8
f 74//9 77//11 78//11
f 77//11 74//9 73//9
f 75//10 76//10 79//12
f 80//12 79//12 76//10
f 78//11 81//13 82//13
f 81//13 78//11 77//11
f 79//12 80//12 83//14
f 84//14 83//14 80//12
f 82//13 85//15 86//15
f 85//15 82//13 81//13
f 83//14 84//14 87//16
f 88//16 87//16 84//14
f 85//15 89//17 86//15
f 89//17 85//15 90//17
f 91//18 87//16 92//18
f 88//16 92//18 87//16
f 90//17 93//19 89//17
f 93//19 90//17 94//19
f 95//20 91//18 96//20
f 92//18 96//20 91//18
f 94//19 97//21 93//19
f 97//21 94//19 98//21
f 99//22 95//20 100//22
f 96//20 100//22 95//20
f 98//21 101//23 97//21
f 101//23 98//21 102//23
f 103//24 99//22 104//24
f 100//22 104//24 99//22
f 102//23 105//25 101//23
f 105//25 102//23 106//25
f 107//26 103//24 108//26
f 104//24 108//26 103//24
f 106//25 109//27 105//25
f 109//27 106//25 110//27
f 111//28 107//26 112//28
f 108//26 112//28 107//26
f 110//27 113//29 109//27
f 113//29 110//27 114//29
f 115//30 111//28 116//30
f 112//28 116//30 111//28
f 114//29 117//31 113//29
f 117//31 114//29 118//31
f 119//32 115//30 120//32
f 116//30 120//32 115//30
f 121//5 117//31 118//31
f 117//31 121//5 122//5
f 123//3 124//3 120//32
f 119//32 120//32 124//3
f 125//6 122//5 121//5
f 122//5 125//6 126//6
f 127//4 128//4 123//3
f 124//3 123//3 128//4
f 129//8 126//6 125//6
f 126//6 129//8 130//8
f 131//7 132//7 127//4
f 128//4 127//4 132//7
f 133//10 130//8 129//8
f 130//8 133//10 134//10
f 135//9 136//9 131//7
f 132//7 131//7 136//9
f 137//12 134//10 133//10
f 134//10 137//12 138//12
f 139//11 140//11 135//9
f 136//9 135//9 140//11
f 141//14 138//12 137//12
f 138//12 141//14 142//14
f 143//13 144//13 139//11
f 140//11 139//11 144//13
f 145//16 142//14 141//14
f 142//14 145//16 146//16
f 147//15 148//15 143//13
f 144//13 143//13 148//15
f 145//16 149//18 146//16
f 149//18 145//16 150//18
f 151//17 148//15 152//17
f 147//15 152//17 148//15
f 150//18 153//20 149//18
f 153//20 150//18 154//20
f 155//19 151//17 156//19
f 152//17 156//19 151//17
f 154//20 157//22 153//20
f 157//22 154//20 158//22
f 159//21 155//19 160//21
f 156//19 160//21 155//19
f 158//22 161//24 157//22
f 161//24 158//22 162//24
f 163//23 159//21 164//23
f 160//21 164//23 159//21
f 162//24 165//26 161//24
f 165//26 162//24 166//26
f 167//25 163//23 168//25
f 164//23 168//25 163//23
f 166//26 169//28 165//26
f 169//28 166//26 170//28
f 171//27 167//25 172//27
f 168//25 172//27 167//25
f 170//28 173//30 169//28
f 173//30 170//28 174//30
f 175//29 171//27 176//29
f 172//27 176//29 171//27
f 174//30 177//32 173//30
f 177//32 174//30 178//32
f 179//31 175//29 180//31
f 176//29 180//31 175//29
f 177//32 64//3 61//3
f 64//3 177//32 178//32
f 179//31 180//31 65//5
f 66//5 65//5 180//31
f 181//2 182//2 183//2
f 182//2 181//2 184//2
f 184//2 181//2 185//2
f 185//2 181//2 186//2
f 185//2 186//2 187//2
f 185//2 187//2 188//2
f 188//2 187//2 189//2
f 189//2 187//2 190//2
f 189//2 190//2 191//2
f 189//2 191//2 192//2
f 192//2 191//2 193//2
f 192//2 193//2 194//2
f 194//2 193//2 195//2
f 194//2 195//2 196//2
f 196//2 195//2 197//2
f 196//2 197//2 198//2
f 198//2 197//2 199//2
f 198//2 199//2 200//2
f 200//2 199//2 201//2
f 200//2 201//2 202//2
f 202//2 201//2 203//2
f 202//2 203//2 204//2
f 204//2 203//2 205//2
f 205//2 203//2 206//2
f 205//2 206//2 207//2
f 205//2 207//2 208//2
f 208//2 207//2 209//2
f 209//2 207//2 210//2
f 211//1 212//1 213//1
f 213//1 212//1 214//1
f 214//1 212//1 215//1
f 212//1 216//1 215//1
f 216//1 217//1 215//1
f 215//1 217//1 218//1
f 218//1 217//1 219//1
f 217//1 220//1 219//1
f 219//1 220//1 221//1
f 220//1 222//1 221//1
f 221//1 222//1 223//1
f 222//1 224//1 223//1
f 223//1 224//1 225//1
f 224//1 226//1 225//1
f 225//1 226//1 227//1
f 226//1 228//1 227//1
f 227//1 228//1 229//1
f 228//1 230//1 229//1
f 229//1 230//1 231//1
f 230//1 232//1 231//1
f 232//1 233//1 231//1
f 231//1 233//1 234//1
f 234//1 233//1 235//1
f 233//1 236//1 235//1
f 236//1 237//1 235//1
f 235//1 237//1 238//1
f 238//1 237//1 239//1
f 240//1 239//1 237//1
