# SSTK version 0.8.0
# 41
mtllib original-41.mtl
o group_19/ID279#ID279
v -0.16223383 0.32808199 -0.55619965
v -0.16016300 0.31444621 -0.55615206
v -0.16618574 0.31641140 -0.55623951
v -0.15645593 0.32631502 -0.55622247
v -0.15637618 0.32618770 -0.55614914
v -0.16230527 0.32807876 -0.55618977
v -0.16022134 0.31435315 -0.55615380
v -0.16614055 0.31639392 -0.55625630
v -0.16620501 0.31637172 -0.55042010
v -0.16220128 0.32824084 -0.55623977
v -0.16603789 0.31626918 -0.55619352
v -0.16227949 0.32825443 -0.55029938
v -0.16236061 0.32806195 -0.55031304
v -0.16608910 0.31634035 -0.55027095
v -0.16230012 0.32817946 -0.55625180
v -0.16620100 0.31637288 -0.55620047
v -0.16233681 0.32816826 -0.55624253
v -0.15631604 0.32625297 -0.55025948
v -0.15641104 0.32617921 -0.55625056
v -0.16225373 0.32814753 -0.55036369
v -0.16230233 0.32811865 -0.55040265
v -0.16234260 0.32820632 -0.55628603
v -0.15645016 0.32631467 -0.55028618
v -0.15635700 0.32614827 -0.55621314
v -0.15636259 0.32633606 -0.55026423
v -0.16029473 0.31441934 -0.55621516
v -0.15638469 0.32629593 -0.55623041
v -0.16024191 0.31451134 -0.55032723
v -0.16028893 0.31440759 -0.55029288
v -0.15637909 0.32629478 -0.55036047
v -0.16029181 0.31435782 -0.55614833
v -0.15639147 0.32625901 -0.55616959
v -0.16612674 0.31636093 -0.55022537
v -0.16021456 0.31441990 -0.55625837
v -0.16025608 0.31440142 -0.55023583
v -0.16608045 0.31636051 -0.55624856
v -0.16611111 0.31640670 -0.55629184
v -0.16607491 0.31637065 -0.55027976
v -0.16016898 0.31442581 -0.55616083
v -0.16019846 0.31451888 -0.55031601
v -0.15640704 0.32632886 -0.55025935
v -0.16604084 0.31641669 -0.55024499
v -0.16014452 0.31447641 -0.55025152
v -0.16230168 0.32807555 -0.55025120
v -0.16221015 0.32814548 -0.55030162
v -0.15640079 0.32627205 -0.55035251
v -0.16619263 0.31631023 -0.55031422
v -0.16012153 0.31452822 -0.55032444
vt -0.08431621 0.0421581
vt 0 0
vt 0 0.0421581
vt -0.08431621 0
vt 0 0.04249006
vt -0.08431621 0.04249006
vt 0.0421581 0
vt 0.0421581 0.04249006
vt 0.08431621 0.04249006
vt 0.08431621 0
vt -0.0421581 0.04249006
vt -0.0421581 0
vt 0.08431621 0.0421581
vn 0 -3.597456311981438e-8 -1
vn 0 3.597456311981438e-8 1
vn -0.9510565130859435 0.3090170042518802 -1.111674899279024e-8
vn 0.9510565130859435 -0.3090170042518802 1.111674899279024e-8
vn 0.3090170042518806 0.9510565130859426 -3.421384344812511e-8
vn -0.3090170042518806 -0.9510565130859426 3.421384344812511e-8
usemtl material_0_0
f 1/1/1 2/2/1 3/3/1
f 2/2/1 1/1/1 4/4/1
f 5/4/2 6/1/2 7/2/2
f 8/3/2 7/2/2 6/1/2
f 9/5/3 10/4/3 11/2/3
f 10/4/3 9/5/3 12/6/3
f 13/6/4 14/5/4 15/4/4
f 16/2/4 15/4/4 14/5/4
f 17/7/5 18/5/5 19/2/5
f 18/5/5 17/7/5 20/8/5
f 21/8/6 22/7/6 23/5/6
f 24/2/6 23/5/6 22/7/6
f 25/9/4 26/2/4 27/10/4
f 26/2/4 25/9/4 28/5/4
f 29/5/3 30/9/3 31/2/3
f 32/10/3 31/2/3 30/9/3
f 33/11/6 34/2/6 35/5/6
f 34/2/6 33/11/6 36/12/6
f 37/12/5 38/11/5 39/2/5
f 40/5/5 39/2/5 38/11/5
f 41/10/2 42/3/2 43/2/2
f 42/3/2 41/10/2 44/13/2
f 45/13/1 46/10/1 47/3/1
f 48/2/1 47/3/1 46/10/1
