# SSTK version 0.8.0
# 47
mtllib original-47.mtl
o group_21/ID325#ID325
v -0.11957169 0.68650584 0.09754280
v -0.11954566 0.68654163 0.02727150
v -0.12408515 0.68663508 0.06236047
v -0.10601387 0.68658481 0.13018297
v -0.10594080 0.68652666 -0.00542342
v -0.08432610 0.68663207 0.15831555
v -0.08434592 0.68654581 -0.03352898
v -0.05634573 0.68656213 0.17981493
v -0.05636508 0.68658153 -0.05492551
v -0.02371687 0.68648174 0.19338355
v -0.02360105 0.68653131 -0.06847792
v 0.01141656 0.68647898 0.19798077
v 0.01150307 0.68654492 -0.07318579
v 0.04657603 0.68654431 0.19329450
v 0.04653816 0.68656902 -0.06866470
v 0.07931571 0.68659419 0.17977340
v 0.07915475 0.68658740 -0.05500307
v 0.10734047 0.68651561 0.15831140
v 0.10733895 0.68665104 -0.03344809
v 0.12884603 0.68659608 0.13008852
v 0.12885528 0.68654667 -0.00541930
v 0.14242003 0.68663041 0.09755196
v 0.14234802 0.68664690 0.02734088
v 0.14694850 0.68655423 0.06240818
v 0.14702714 0.68662054 0.06241206
v 0.14231864 0.68654601 0.09742171
v 0.14246793 0.68649195 0.02739581
v 0.12882207 0.68652914 -0.00548547
v 0.12896490 0.68663156 0.13025475
v 0.10735604 0.68657798 -0.03355568
v 0.10729355 0.68664338 0.15817053
v 0.07920509 0.68658660 -0.05494846
v 0.07918147 0.68650143 0.17984505
v 0.04662575 0.68662569 -0.06847083
v 0.04658927 0.68657138 0.19344422
v 0.01144209 0.68650188 -0.07309349
v 0.01143899 0.68658031 0.19802845
v -0.02354490 0.68664636 -0.06851783
v -0.02357141 0.68649978 0.19340924
v -0.05633484 0.68646517 -0.05504532
v -0.05630033 0.68648358 0.17974462
v -0.08441788 0.68654040 -0.03340109
v -0.08433900 0.68665376 0.15824560
v -0.10601950 0.68664103 -0.00537699
v -0.10593441 0.68663787 0.13027340
v -0.11943933 0.68653243 0.02735001
v -0.11944268 0.68661510 0.09756538
v -0.12420345 0.68646313 0.06234213
v 0.14239798 0.62398844 0.09743674
v 0.12882499 0.68647194 0.13022365
v 0.12894134 0.62392322 0.13016889
v 0.14248883 0.68652547 0.09744144
v 0.14233518 0.68659595 0.09744110
v 0.14232112 0.62399178 0.09743316
v 0.12885142 0.68657113 0.13025864
v 0.12890466 0.62399414 0.13011787
v 0.14706061 0.62399427 0.06239306
v 0.14694524 0.68646482 0.06248065
v 0.14710380 0.68659658 0.06241661
v 0.14696020 0.62395051 0.06239894
v 0.14234639 0.62404553 0.02735148
v 0.14236258 0.68657903 0.02729044
v 0.14238926 0.68666214 0.02728206
v 0.14232008 0.62407685 0.02726644
v 0.12879578 0.62397524 -0.00547281
v 0.12884890 0.68648380 -0.00534143
v 0.12878528 0.68664405 -0.00531275
v 0.12896684 0.62389860 -0.00539802
v 0.10742156 0.62406887 -0.03344480
v 0.10736499 0.68650471 -0.03352266
v 0.10725442 0.68654801 -0.03347361
v 0.10722893 0.62396587 -0.03340206
v 0.07926989 0.68652692 -0.05500131
v 0.07933716 0.62395626 -0.05507939
v 0.07933278 0.68650242 -0.05496279
v 0.07925186 0.62408451 -0.05498446
v 0.04662478 0.68648396 -0.06860212
v 0.04651897 0.62396126 -0.06857006
v 0.04647603 0.68650929 -0.06847281
v 0.04648609 0.62398421 -0.06862808
v 0.01149808 0.68662468 -0.07320394
v 0.01141546 0.62399192 -0.07327674
v 0.01150047 0.68661943 -0.07320294
v 0.01154167 0.62393868 -0.07314049
v -0.02359264 0.68663765 -0.06851876
v -0.02373318 0.62396245 -0.06854215
v -0.02372941 0.68658705 -0.06864847
v -0.02362224 0.62393520 -0.06855204
v -0.05623932 0.68659748 -0.05505294
v -0.05633791 0.62402793 -0.05494394
v -0.05630221 0.68657367 -0.05503360
v -0.05631112 0.62396183 -0.05502472
v -0.08443890 0.68651839 -0.03339018
v -0.08441469 0.62392909 -0.03351242
v -0.08442454 0.68653884 -0.03340201
v -0.08449163 0.62395972 -0.03338809
v -0.10596463 0.62404052 -0.00546917
v -0.10595316 0.68656001 -0.00531365
v -0.10591022 0.62394414 -0.00537059
v -0.10603253 0.68659762 -0.00539319
v -0.11942703 0.62394762 0.02724808
v -0.11941108 0.68664229 0.02725087
v -0.11947066 0.62404995 0.02725471
v -0.11955721 0.68651103 0.02729149
v -0.12408286 0.62407025 0.06248649
v -0.12407850 0.68663965 0.06239533
v -0.12407352 0.62393474 0.06243330
v -0.12412976 0.68648461 0.06229505
v -0.11958094 0.62389417 0.09738767
v -0.11959440 0.68656485 0.09749282
v -0.11956025 0.62392109 0.09753710
v -0.11950314 0.68662481 0.09747500
v -0.10586683 0.62395086 0.13022319
v -0.10592234 0.68665593 0.13027263
v -0.10593035 0.62400940 0.13018882
v -0.10604987 0.68651409 0.13021926
v -0.08444012 0.62393097 0.15835195
v -0.08443637 0.68649007 0.15830212
v -0.08446404 0.62398013 0.15820078
v -0.08448904 0.68656707 0.15823048
v -0.05638972 0.68660756 0.17986932
v -0.05639036 0.62399884 0.17984704
v -0.05640259 0.68659912 0.17978394
v -0.05628568 0.62407658 0.17982366
v -0.02370221 0.68656066 0.19326499
v -0.02365316 0.62405242 0.19334063
v -0.02370865 0.68660593 0.19325684
v -0.02364232 0.62393439 0.19327586
v 0.01146793 0.68652930 0.19804499
v 0.01152494 0.62405792 0.19788967
v 0.01146651 0.68661679 0.19804830
v 0.01148915 0.62402023 0.19805912
v 0.04658334 0.68647920 0.19329215
v 0.04653159 0.62395600 0.19342177
v 0.04659886 0.68653816 0.19340985
v 0.04658688 0.62390116 0.19339915
v 0.07932912 0.68657453 0.17990640
v 0.07927305 0.62402759 0.17972929
v 0.07931056 0.68656795 0.17971172
v 0.07928516 0.62396522 0.17981777
v 0.10738965 0.68647715 0.15818468
v 0.10733219 0.62397864 0.15835159
v 0.10727980 0.68659189 0.15828912
v 0.10732860 0.62404624 0.15826236
v -0.11943211 0.62402353 0.02723712
v -0.11960148 0.62406623 0.09754220
v -0.12411219 0.62400635 0.06239159
v -0.10597564 0.62405399 0.13025506
v -0.10601785 0.62396940 -0.00539134
v -0.08443741 0.62400338 0.15833847
v -0.08436273 0.62403370 -0.03354114
v -0.05638453 0.62392733 0.17988380
v -0.05642669 0.62389047 -0.05506930
v -0.02372526 0.62399588 0.19337049
v -0.02369500 0.62389030 -0.06862342
v 0.01148852 0.62397550 0.19794957
v 0.01152591 0.62395957 -0.07311890
v 0.04645361 0.62400217 0.19342878
v 0.04662922 0.62403598 -0.06850243
v 0.07931654 0.62407714 0.17982956
v 0.07926545 0.62390962 -0.05511976
v 0.10726882 0.62404196 0.15830848
v 0.10738503 0.62394962 -0.03339103
v 0.12888334 0.62397125 0.13015731
v 0.12879997 0.62397202 -0.00549188
v 0.14234167 0.62402589 0.09757017
v 0.14245487 0.62389191 0.02725864
v 0.14704809 0.62389488 0.06248750
v 0.14697366 0.62397796 0.06237417
v 0.14245898 0.62400615 0.02724385
v 0.14245610 0.62395999 0.09758028
v 0.12896265 0.62403875 -0.00537552
v 0.12877868 0.62401084 0.13027433
v 0.10734025 0.62406750 -0.03337743
v 0.10727830 0.62393678 0.15830994
v 0.07927313 0.62397176 -0.05511161
v 0.07930006 0.62394472 0.17988166
v 0.04663509 0.62391895 -0.06866300
v 0.04657788 0.62403747 0.19343594
v 0.01136054 0.62397699 -0.07321036
v 0.01139429 0.62391879 0.19801466
v -0.02363219 0.62404207 -0.06862016
v -0.02362871 0.62396989 0.19333023
v -0.05635650 0.62406810 -0.05496678
v -0.05632410 0.62401825 0.17973923
v -0.08438445 0.62406507 -0.03356012
v -0.08438513 0.62399728 0.15824175
v -0.10589627 0.62399098 -0.00538638
v -0.10602980 0.62398218 0.13014028
v -0.11944822 0.62403971 0.02727285
v -0.11958006 0.62395271 0.09752440
v -0.12419220 0.62401957 0.06239086
vt -0.04491351 0.3456716
vt -0.04491351 0.6315997
vt -0.06373508 0.4886356
vt 0.01026856 0.2124503
vt 0.01026856 0.764821
vt 0.09805056 0.09805056
vt 0.09805056 0.8792207
vt 0.2124503 0.01026856
vt 0.2124503 0.9670027
vt 0.3456716 -0.04491351
vt 0.3456716 1.022185
vt 0.4886356 -0.06373508
vt 0.4886356 1.041006
vt 0.6315997 -0.04491351
vt 0.6315997 1.022185
vt 0.764821 0.01026856
vt 0.764821 0.9670027
vt 0.8792207 0.09805056
vt 0.8792207 0.8792207
vt 0.9670027 0.2124503
vt 0.9670027 0.764821
vt 1.022185 0.3456716
vt 1.022185 0.6315997
vt 1.041006 0.4886356
vt 0.7105321 9.585643e-16
vt 0.5663344 0.2549403
vt 0.5663344 9.585643e-16
vt 0.7105321 0.2549403
vt 0.6203339 9.585643e-16
vt 0.4761362 0.2549403
vt 0.4761362 9.585643e-16
vt 0.6203339 0.2549403
vt 0.4927744 9.585643e-16
vt 0.3485767 0.2549403
vt 0.3485767 9.585643e-16
vt 0.4927744 0.2549403
vt 0.3365466 9.585643e-16
vt 0.1923489 0.2549403
vt 0.1923489 9.585643e-16
vt 0.3365466 0.2549403
vt 0.162297 9.585643e-16
vt 0.01809934 0.2549403
vt 0.01809934 9.585643e-16
vt 0.162297 0.2549403
vt -0.01809934 0.2549403
vt -0.162297 9.585643e-16
vt -0.01809934 9.585643e-16
vt -0.162297 0.2549403
vt -0.1923489 0.2549403
vt -0.3365466 9.585643e-16
vt -0.1923489 9.585643e-16
vt -0.3365466 0.2549403
vt -0.3485767 0.2549403
vt -0.4927744 9.585643e-16
vt -0.3485767 9.585643e-16
vt -0.4927744 0.2549403
vt -0.4761362 0.2549403
vt -0.6203339 9.585643e-16
vt -0.4761362 9.585643e-16
vt -0.6203339 0.2549403
vt -0.5663344 0.2549403
vt -0.7105321 9.585643e-16
vt -0.5663344 9.585643e-16
vt -0.7105321 0.2549403
vt -0.6130244 0.2549403
vt -0.7572221 9.585643e-16
vt -0.6130244 9.585643e-16
vt -0.7572221 0.2549403
vt 0.7572221 0.2549403
vt 0.6130244 9.585643e-16
vt 0.7572221 9.585643e-16
vt 0.6130244 0.2549403
vt 0.04491351 0.6315997
vt 0.04491351 0.3456716
vt 0.06373508 0.4886356
vt -0.01026856 0.2124503
vt -0.01026856 0.764821
vt -0.09805056 0.09805056
vt -0.09805056 0.8792207
vt -0.2124503 0.01026856
vt -0.2124503 0.9670027
vt -0.3456716 -0.04491351
vt -0.3456716 1.022185
vt -0.4886356 -0.06373508
vt -0.4886356 1.041006
vt -0.6315997 -0.04491351
vt -0.6315997 1.022185
vt -0.764821 0.01026856
vt -0.764821 0.9670027
vt -0.8792207 0.09805056
vt -0.8792207 0.8792207
vt -0.9670027 0.2124503
vt -0.9670027 0.764821
vt -1.022185 0.3456716
vt -1.022185 0.6315997
vt -1.041006 0.4886356
vn 0 1 0
vn 0 -1 0
vn 0.9659258358036645 0 0.25881900959356163
vn 0.866025402838329 0 0.5000000016387101
vn -0.9659258358036645 0 -0.25881900959356163
vn -0.866025402838329 0 -0.5000000016387101
vn 1 0 0
vn -1 0 0
vn 0.9659258358036645 0 -0.25881900959356163
vn -0.9659258358036645 0 0.25881900959356163
vn 0.866025402838329 0 -0.5000000016387101
vn -0.866025402838329 0 0.5000000016387101
vn 0.7071067811865476 0 -0.7071067811865476
vn -0.7071067811865476 0 0.7071067811865476
vn 0.5000000016387101 0 -0.866025402838329
vn -0.5000000016387101 0 0.866025402838329
vn 0.25881900959356163 0 -0.9659258358036645
vn -0.25881900959356163 0 0.9659258358036645
vn 0 0 -1
vn 0 0 1
vn -0.25881900959356163 0 -0.9659258358036645
vn 0.25881900959356163 0 0.9659258358036645
vn -0.5000000016387101 0 -0.866025402838329
vn 0.5000000016387101 0 0.866025402838329
vn -0.7071067811865476 0 -0.7071067811865476
vn 0.7071067811865476 0 0.7071067811865476
usemtl material_0_0
f 1/1/1 2/2/1 3/3/1
f 2/2/1 1/1/1 4/4/1
f 2/2/1 4/4/1 5/5/1
f 5/5/1 4/4/1 6/6/1
f 5/5/1 6/6/1 7/7/1
f 7/7/1 6/6/1 8/8/1
f 7/7/1 8/8/1 9/9/1
f 9/9/1 8/8/1 10/10/1
f 9/9/1 10/10/1 11/11/1
f 11/11/1 10/10/1 12/12/1
f 11/11/1 12/12/1 13/13/1
f 13/13/1 12/12/1 14/14/1
f 13/13/1 14/14/1 15/15/1
f 15/15/1 14/14/1 16/16/1
f 15/15/1 16/16/1 17/17/1
f 17/17/1 16/16/1 18/18/1
f 17/17/1 18/18/1 19/19/1
f 19/19/1 18/18/1 20/20/1
f 19/19/1 20/20/1 21/21/1
f 21/21/1 20/20/1 22/22/1
f 21/21/1 22/22/1 23/23/1
f 23/23/1 22/22/1 24/24/1
f 25/24/2 26/22/2 27/23/2
f 27/23/2 26/22/2 28/21/2
f 26/22/2 29/20/2 28/21/2
f 28/21/2 29/20/2 30/19/2
f 29/20/2 31/18/2 30/19/2
f 30/19/2 31/18/2 32/17/2
f 31/18/2 33/16/2 32/17/2
f 32/17/2 33/16/2 34/15/2
f 33/16/2 35/14/2 34/15/2
f 34/15/2 35/14/2 36/13/2
f 35/14/2 37/12/2 36/13/2
f 36/13/2 37/12/2 38/11/2
f 37/12/2 39/10/2 38/11/2
f 38/11/2 39/10/2 40/9/2
f 39/10/2 41/8/2 40/9/2
f 40/9/2 41/8/2 42/7/2
f 41/8/2 43/6/2 42/7/2
f 42/7/2 43/6/2 44/5/2
f 43/6/2 45/4/2 44/5/2
f 44/5/2 45/4/2 46/2/2
f 45/4/2 47/1/2 46/2/2
f 48/3/2 46/2/2 47/1/2
f 49/25/3 50/26/4 51/27/4
f 50/26/4 49/25/3 52/28/3
f 53/28/5 54/25/5 55/26/6
f 56/27/6 55/26/6 54/25/5
f 57/29/7 52/30/3 49/31/3
f 52/30/3 57/29/7 58/32/7
f 59/32/8 60/29/8 53/30/5
f 54/31/5 53/30/5 60/29/8
f 61/33/9 58/34/7 57/35/7
f 58/34/7 61/33/9 62/36/9
f 63/36/10 64/33/10 59/34/8
f 60/35/8 59/34/8 64/33/10
f 65/37/11 62/38/9 61/39/9
f 62/38/9 65/37/11 66/40/11
f 67/40/12 68/37/12 63/38/10
f 64/39/10 63/38/10 68/37/12
f 69/41/13 66/42/11 65/43/11
f 66/42/11 69/41/13 70/44/13
f 71/44/14 72/41/14 67/42/12
f 68/43/12 67/42/12 72/41/14
f 73/45/15 69/46/13 74/47/15
f 69/46/13 73/45/15 70/48/13
f 71/48/14 75/45/16 72/46/14
f 76/47/16 72/46/14 75/45/16
f 77/49/17 74/50/15 78/51/17
f 74/50/15 77/49/17 73/52/15
f 75/52/16 79/49/18 76/50/16
f 80/51/18 76/50/16 79/49/18
f 81/53/19 78/54/17 82/55/19
f 78/54/17 81/53/19 77/56/17
f 79/56/18 83/53/20 80/54/18
f 84/55/20 80/54/18 83/53/20
f 85/57/21 82/58/19 86/59/21
f 82/58/19 85/57/21 81/60/19
f 83/60/20 87/57/22 84/58/20
f 88/59/22 84/58/20 87/57/22
f 89/61/23 86/62/21 90/63/23
f 86/62/21 89/61/23 85/64/21
f 87/64/22 91/61/24 88/62/22
f 92/63/24 88/62/22 91/61/24
f 93/65/25 90/66/23 94/67/25
f 90/66/23 93/65/25 89/68/23
f 91/68/24 95/65/26 92/66/24
f 96/67/26 92/66/24 95/65/26
f 93/68/25 97/67/6 98/65/6
f 97/67/6 93/68/25 94/66/25
f 96/66/26 95/68/26 99/67/4
f 100/65/4 99/67/4 95/68/26
f 98/64/6 101/63/5 102/61/5
f 101/63/5 98/64/6 97/62/6
f 99/62/4 100/64/4 103/63/3
f 104/61/3 103/63/3 100/64/4
f 102/60/5 105/59/8 106/57/8
f 105/59/8 102/60/5 101/58/5
f 103/58/3 104/60/3 107/59/7
f 108/57/7 107/59/7 104/60/3
f 106/56/8 109/55/10 110/53/10
f 109/55/10 106/56/8 105/54/8
f 107/54/7 108/56/7 111/55/9
f 112/53/9 111/55/9 108/56/7
f 110/52/10 113/51/12 114/49/12
f 113/51/12 110/52/10 109/50/10
f 111/50/9 112/52/9 115/51/11
f 116/49/11 115/51/11 112/52/9
f 114/48/12 117/47/14 118/45/14
f 117/47/14 114/48/12 113/46/12
f 115/46/11 116/48/11 119/47/13
f 120/45/13 119/47/13 116/48/11
f 121/44/16 117/43/14 122/41/16
f 117/43/14 121/44/16 118/42/14
f 120/42/13 123/44/15 119/43/13
f 124/41/15 119/43/13 123/44/15
f 125/40/18 122/39/16 126/37/18
f 122/39/16 125/40/18 121/38/16
f 123/38/15 127/40/17 124/39/15
f 128/37/17 124/39/15 127/40/17
f 129/36/20 126/35/18 130/33/20
f 126/35/18 129/36/20 125/34/18
f 127/34/17 131/36/19 128/35/17
f 132/33/19 128/35/17 131/36/19
f 133/32/22 130/31/20 134/29/22
f 130/31/20 133/32/22 129/30/20
f 131/30/19 135/32/21 132/31/19
f 136/29/21 132/31/19 135/32/21
f 137/28/24 134/27/22 138/25/24
f 134/27/22 137/28/24 133/26/22
f 135/26/21 139/28/23 136/27/21
f 140/25/23 136/27/21 139/28/23
f 141/69/26 138/70/24 142/71/26
f 138/70/24 141/69/26 137/72/24
f 139/72/23 143/69/25 140/70/23
f 144/71/25 140/70/23 143/69/25
f 51/71/4 141/72/26 142/70/26
f 141/72/26 51/71/4 50/69/4
f 55/69/6 56/71/6 143/72/25
f 144/70/25 143/72/25 56/71/6
f 145/73/2 146/74/2 147/75/2
f 146/74/2 145/73/2 148/76/2
f 148/76/2 145/73/2 149/77/2
f 148/76/2 149/77/2 150/78/2
f 150/78/2 149/77/2 151/79/2
f 150/78/2 151/79/2 152/80/2
f 152/80/2 151/79/2 153/81/2
f 152/80/2 153/81/2 154/82/2
f 154/82/2 153/81/2 155/83/2
f 154/82/2 155/83/2 156/84/2
f 156/84/2 155/83/2 157/85/2
f 156/84/2 157/85/2 158/86/2
f 158/86/2 157/85/2 159/87/2
f 158/86/2 159/87/2 160/88/2
f 160/88/2 159/87/2 161/89/2
f 160/88/2 161/89/2 162/90/2
f 162/90/2 161/89/2 163/91/2
f 162/90/2 163/91/2 164/92/2
f 164/92/2 163/91/2 165/93/2
f 164/92/2 165/93/2 166/94/2
f 166/94/2 165/93/2 167/95/2
f 166/94/2 167/95/2 168/96/2
f 169/96/1 170/95/1 171/94/1
f 170/95/1 172/93/1 171/94/1
f 171/94/1 172/93/1 173/92/1
f 172/93/1 174/91/1 173/92/1
f 173/92/1 174/91/1 175/90/1
f 174/91/1 176/89/1 175/90/1
f 175/90/1 176/89/1 177/88/1
f 176/89/1 178/87/1 177/88/1
f 177/88/1 178/87/1 179/86/1
f 178/87/1 180/85/1 179/86/1
f 179/86/1 180/85/1 181/84/1
f 180/85/1 182/83/1 181/84/1
f 181/84/1 182/83/1 183/82/1
f 182/83/1 184/81/1 183/82/1
f 183/82/1 184/81/1 185/80/1
f 184/81/1 186/79/1 185/80/1
f 185/80/1 186/79/1 187/78/1
f 186/79/1 188/77/1 187/78/1
f 187/78/1 188/77/1 189/76/1
f 188/77/1 190/73/1 189/76/1
f 189/76/1 190/73/1 191/74/1
f 192/75/1 191/74/1 190/73/1
