# SSTK version 0.8.0
# 6
mtllib original-6.mtl
o #ID37
v 0.23468104 0.29719412 -0.55615384
v 0.23088659 0.21905595 -0.55618299
v 0.23617966 0.25804088 -0.55622988
v 0.22643174 0.33546589 -0.55625507
v 0.21868902 0.18173140 -0.55627541
v 0.21163765 0.37178888 -0.55622810
v 0.20046386 0.14713771 -0.55627129
v 0.19071656 0.40500612 -0.55626928
v 0.17646153 0.11599073 -0.55620239
v 0.16440746 0.43425194 -0.55628097
v 0.14737023 0.08971047 -0.55611573
v 0.14208401 0.26269093 -0.55621885
v 0.14121040 0.28536870 -0.55626564
v 0.13341827 0.45814420 -0.55613958
v 0.13633522 0.30770340 -0.55622906
v 0.12790774 0.32885536 -0.55617013
v 0.09874495 0.47649449 -0.55610795
v 0.11558884 0.34826075 -0.55614476
v 0.10045220 0.36509574 -0.55619535
v 0.08225251 0.37916131 -0.55617151
v 0.06134425 0.48851165 -0.55622690
v 0.06220812 0.38980886 -0.55612181
v 0.04046312 0.39673085 -0.55627196
v 0.02245811 0.49387914 -0.55620073
v 0.01774444 0.39983463 -0.55625704
v -0.01672617 0.49238100 -0.55622215
v -0.00502473 0.39903930 -0.55624499
v -0.02734740 0.39411747 -0.55627042
v -0.05513806 0.48424994 -0.55613908
v -0.04831970 0.38567444 -0.55626989
v -0.06772483 0.37336183 -0.55613122
v -0.09128646 0.46934919 -0.55612377
v -0.08467070 0.35811007 -0.55613951
v -0.09855187 0.34003447 -0.55629072
v -0.12466576 0.44848778 -0.55625049
v -0.10929774 0.31997068 -0.55625798
v -0.11632043 0.29827257 -0.55621713
v -0.11943267 0.27557625 -0.55622083
v 0.13890088 0.24001533 -0.55618734
v 0.11400102 0.06875411 -0.55612312
v 0.13206292 0.21827720 -0.55628710
v 0.12138402 0.19804114 -0.55611271
v 0.10733652 0.18004218 -0.55626442
v 0.07773929 0.05394889 -0.55626561
v 0.09045956 0.16481937 -0.55613704
v 0.07100164 0.15259746 -0.55618125
v 0.03946557 0.04579067 -0.55626882
v 0.05000988 0.14395379 -0.55621549
v 0.02760908 0.13916401 -0.55622197
v 0.00017735 0.04436369 -0.55627351
v 0.00476661 0.13841605 -0.55629043
v -0.01785135 0.14142804 -0.55623487
v -0.03878137 0.04975157 -0.55622896
v -0.03942864 0.14842730 -0.55627485
v -0.07595167 0.06166801 -0.55621787
v -0.05956618 0.15906378 -0.55623248
v -0.07763840 0.17323594 -0.55628496
v -0.11068716 0.07995402 -0.55609548
v -0.09292990 0.19010423 -0.55621729
v -0.10511487 0.20927620 -0.55614822
v -0.11369032 0.23053284 -0.55626866
v -0.14176437 0.10408814 -0.55621417
v -0.11844646 0.25272139 -0.55611658
v -0.15377585 0.42217481 -0.55624419
v -0.16811983 0.13320528 -0.55629375
v -0.17783742 0.39120553 -0.55625998
v -0.18883793 0.16644784 -0.55625396
v -0.19607897 0.35641926 -0.55613430
v -0.20370708 0.20281444 -0.55628869
v -0.20809661 0.31917999 -0.55610578
v -0.21195204 0.24107386 -0.55616867
v -0.21342617 0.28021133 -0.55619028
v -0.21355732 0.28031515 -0.55620964
v -0.20804360 0.31909546 -0.55624564
v -0.21191043 0.24098721 -0.55623035
v -0.20372565 0.20266577 -0.55625464
v -0.19608348 0.35645789 -0.55613533
v -0.18895540 0.16640279 -0.55610309
v -0.17782427 0.39125352 -0.55624561
v -0.16813277 0.13309914 -0.55617578
v -0.15366426 0.42222630 -0.55612567
v -0.14175185 0.10407503 -0.55629137
v -0.12460112 0.44852285 -0.55611950
v -0.11943697 0.27567154 -0.55615366
v -0.11863101 0.25284765 -0.55610043
v -0.11372390 0.23043011 -0.55623383
v -0.11081041 0.07998895 -0.55622603
v -0.10519472 0.20931982 -0.55627169
v -0.09306854 0.18999608 -0.55610846
v -0.07761281 0.17322798 -0.55627300
v -0.07611020 0.06175292 -0.55627761
v -0.05957526 0.15917048 -0.55609558
v -0.03952701 0.14851817 -0.55625036
v -0.03866561 0.04956780 -0.55611491
v -0.01771568 0.14159029 -0.55626511
v 0.00021481 0.04430599 -0.55624143
v 0.00477060 0.13832419 -0.55622926
v 0.02773533 0.13918454 -0.55622267
v 0.03936250 0.04571533 -0.55612226
v 0.04999665 0.14406368 -0.55625160
v 0.07115034 0.15264508 -0.55615681
v 0.07765974 0.05412615 -0.55611486
v 0.09032470 0.16473899 -0.55620358
v 0.10732409 0.18012989 -0.55617576
v 0.11408354 0.06877087 -0.55623185
v 0.12141485 0.19815010 -0.55615332
v 0.13205467 0.21834063 -0.55626996
v 0.13892000 0.24004965 -0.55622644
v 0.14217243 0.26259913 -0.55613435
v 0.14729869 0.08963933 -0.55611172
v -0.11637936 0.29824129 -0.55625894
v -0.10932438 0.31994405 -0.55624428
v -0.09863616 0.34008309 -0.55628379
v -0.09138356 0.46938484 -0.55621214
v -0.08464558 0.35815471 -0.55617340
v -0.06769165 0.37340908 -0.55620491
v -0.05499103 0.48409543 -0.55621193
v -0.04831171 0.38566478 -0.55610641
v -0.02722537 0.39422849 -0.55617778
v -0.01664316 0.49248429 -0.55610759
v -0.00491353 0.39908278 -0.55625357
v 0.01778219 0.39984911 -0.55610903
v 0.02255392 0.49396608 -0.55610419
v 0.04048517 0.39679218 -0.55615472
v 0.06135565 0.48849793 -0.55619796
v 0.06222205 0.38978411 -0.55619806
v 0.08244151 0.37900638 -0.55627134
v 0.09881754 0.47663481 -0.55625127
v 0.10034168 0.36507855 -0.55614981
v 0.11565523 0.34823839 -0.55609976
v 0.12790687 0.32885984 -0.55625977
v 0.13334896 0.45818887 -0.55619072
v 0.13644368 0.30775324 -0.55619705
v 0.14117362 0.28535866 -0.55611448
v 0.16447654 0.43420932 -0.55623986
v 0.17638376 0.11606784 -0.55620787
v 0.19067131 0.40498342 -0.55623943
v 0.20048974 0.14696853 -0.55619724
v 0.21154876 0.37179526 -0.55621296
v 0.21878110 0.18180389 -0.55625839
v 0.22651138 0.33552744 -0.55623287
v 0.23077323 0.21899409 -0.55616168
v 0.23462887 0.29710331 -0.55614776
v 0.23610600 0.25795428 -0.55622700
v -0.15372634 0.42210478 -0.55621884
v -0.17770502 0.39114108 -0.55036121
v -0.17768001 0.39124442 -0.55624159
v -0.15369410 0.42211134 -0.55037378
v -0.15376416 0.42224423 -0.55036855
v -0.15367475 0.42226844 -0.55629156
v -0.17768439 0.39124197 -0.55042275
v -0.17776261 0.39122919 -0.55623433
v -0.19599141 0.35644561 -0.55027821
v -0.19602973 0.35659617 -0.55614852
v -0.19612057 0.35645961 -0.55036401
v -0.19599411 0.35644707 -0.55615212
v -0.20814992 0.31923574 -0.55613969
v -0.20806321 0.31919082 -0.55037205
v -0.20800944 0.31916722 -0.55623539
v -0.20809632 0.31911654 -0.55022569
v -0.21344943 0.28029872 -0.55040053
v -0.21355662 0.28029173 -0.55619712
v -0.21347342 0.28028897 -0.55040542
v -0.21345118 0.28033992 -0.55616128
v -0.21194702 0.24112676 -0.55029512
v -0.21199575 0.24113623 -0.55614784
v -0.21190369 0.24109101 -0.55037253
v -0.21190572 0.24106571 -0.55627295
v -0.20374066 0.20267257 -0.55030565
v -0.20378536 0.20280754 -0.55613938
v -0.20368631 0.20280096 -0.55038599
v -0.20366301 0.20277277 -0.55621193
v -0.18885996 0.16647853 -0.55023479
v -0.18900183 0.16640771 -0.55624717
v -0.18883830 0.16631128 -0.55036743
v -0.18891591 0.16642642 -0.55628570
v -0.16797471 0.13310912 -0.55037408
v -0.16802690 0.13321575 -0.55613188
v -0.16809834 0.13310687 -0.55037735
v -0.16804756 0.13319265 -0.55613514
v -0.14165177 0.10411370 -0.55033355
v -0.14176544 0.10401794 -0.55628494
v -0.14166004 0.10410132 -0.55027326
v -0.14174852 0.10398967 -0.55613194
v -0.11069020 0.07998427 -0.55610668
v -0.11065843 0.08004695 -0.55040503
v -0.11072709 0.08009973 -0.55627308
v -0.11077326 0.07996907 -0.55037406
v -0.07608993 0.06166315 -0.55034207
v -0.07603256 0.06164949 -0.55614386
v -0.07596859 0.06167952 -0.55622087
v -0.07594675 0.06176677 -0.55038659
v -0.03859475 0.04958143 -0.55611276
v -0.03871155 0.04958318 -0.55024555
v -0.03861251 0.04973938 -0.55613751
v -0.03860257 0.04970169 -0.55027740
v 0.00009315 0.04436051 -0.55619025
v 0.00019677 0.04421094 -0.55039060
v 0.00011628 0.04437053 -0.55623923
v 0.00010857 0.04434050 -0.55042274
v 0.03940451 0.04580856 -0.55028936
v 0.03940392 0.04581230 -0.55612364
v 0.03940101 0.04587263 -0.55626059
v 0.03930425 0.04577325 -0.55023850
v 0.07774615 0.05414362 -0.55028607
v 0.07771478 0.05406330 -0.55612959
v 0.07775568 0.05399510 -0.55621345
v 0.07778181 0.05414689 -0.55035680
v 0.11414226 0.06879060 -0.55041284
v 0.11408038 0.06885029 -0.55612915
v 0.11416767 0.06885129 -0.55628255
v 0.11414118 0.06881336 -0.55027468
v 0.14725665 0.08968154 -0.55616275
v 0.14723903 0.08966606 -0.55033561
v 0.14726734 0.08974925 -0.55613706
v 0.14730702 0.08978078 -0.55030875
v 0.17630263 0.11604509 -0.55023383
v 0.17633695 0.11597508 -0.55621846
v 0.17634226 0.11614332 -0.55614107
v 0.17636124 0.11608459 -0.55037233
v 0.20035610 0.14707550 -0.55038387
v 0.20035755 0.14712152 -0.55624506
v 0.20042251 0.14710813 -0.55615125
v 0.20037525 0.14713659 -0.55040332
v 0.21885309 0.18178201 -0.55609407
v 0.21885105 0.18182208 -0.55030137
v 0.21881711 0.18173100 -0.55027538
v 0.21884978 0.18175493 -0.55625581
v 0.23072369 0.21913086 -0.55040713
v 0.23076383 0.21913130 -0.55613638
v 0.23072591 0.21911841 -0.55621439
v 0.23076876 0.21901640 -0.55022699
v 0.23615414 0.25790072 -0.55616817
v 0.23612002 0.25793430 -0.55035220
v 0.23620003 0.25792509 -0.55024892
v 0.23610793 0.25804738 -0.55610843
v 0.23464096 0.29705793 -0.55023491
v 0.23473632 0.29716846 -0.55626581
v 0.23467612 0.29721006 -0.55617745
v 0.23466343 0.29719116 -0.55026886
v 0.22641298 0.33552847 -0.55617540
v 0.22646201 0.33558586 -0.55041034
v 0.22643388 0.33556005 -0.55023682
v 0.22638052 0.33557304 -0.55627903
v 0.21170883 0.37193298 -0.55619322
v 0.21164035 0.37179382 -0.55039079
v 0.21171552 0.37186610 -0.55026165
v 0.21155417 0.37184893 -0.55618405
v 0.19076738 0.40503681 -0.55610001
v 0.19082249 0.40508277 -0.55036023
v 0.19081440 0.40516145 -0.55028710
v 0.19083867 0.40511204 -0.55617661
v 0.16435900 0.43409238 -0.55030036
v 0.16433304 0.43419979 -0.55626211
v 0.16433776 0.43409417 -0.55622809
v 0.16435460 0.43412072 -0.55035368
v 0.13344655 0.45820138 -0.55030572
v 0.13335327 0.45816417 -0.55614556
v 0.13337607 0.45819134 -0.55613566
v 0.13351062 0.45819884 -0.55036262
v 0.09867408 0.47646205 -0.55627073
v 0.09881289 0.47654784 -0.55023045
v 0.09877221 0.47659773 -0.55619092
v 0.09864524 0.47655159 -0.55039290
v 0.06130922 0.48849715 -0.55609986
v 0.06129775 0.48849171 -0.55036117
v 0.06133168 0.48848784 -0.55622663
v 0.06131969 0.48854576 -0.55030151
v 0.02260867 0.49392741 -0.55626215
v 0.02248370 0.49388291 -0.55024663
v 0.02260984 0.49383736 -0.55614682
v 0.02252935 0.49390597 -0.55038770
v -0.01660561 0.49242966 -0.55611360
v -0.01672227 0.49238221 -0.55034714
v -0.01670948 0.49248643 -0.55618659
v -0.01659387 0.49239581 -0.55042076
v -0.05513496 0.48426156 -0.55024973
v -0.05504886 0.48411168 -0.55617937
v -0.05505860 0.48418224 -0.55626109
v -0.05507275 0.48428333 -0.55037083
v -0.09132968 0.46937002 -0.55622204
v -0.09144828 0.46933780 -0.55036509
v -0.09147895 0.46943166 -0.55611880
v -0.09134945 0.46934307 -0.55041242
v -0.12468727 0.44860072 -0.55615020
v -0.12462669 0.44861090 -0.55028667
v -0.12451284 0.44859843 -0.55628522
v -0.12451162 0.44859570 -0.55036206
vt 1.887959 0.1804227
vt 1.357599 0.2067761
vt 1.621626 0.1703992
vt 2.148504 0.2365421
vt 1.1039 0.2884482
vt 2.395347 0.3370521
vt 0.8682381 0.4129338
vt 2.620986 0.478899
vt 0.6577726 0.5764506
vt 2.818565 0.6577726
vt 0.478899 0.7740301
vt 1.653378 0.8093963
vt 1.808267 0.8152256
vt 2.982082 0.8682381
vt 1.959791 0.8478626
vt 2.103346 0.9063156
vt 3.106568 1.1039
vt 2.234569 0.9888086
vt 2.349475 1.092835
vt 2.44457 1.215234
vt 3.18824 1.357599
vt 2.516966 1.352287
vt 2.564464 1.499829
vt 3.224617 1.621626
vt 2.58562 1.653378
vt 3.214593 1.887959
vt 2.57979 1.808267
vt 2.547153 1.959791
vt 3.158474 2.148504
vt 2.4887 2.103346
vt 2.406207 2.234569
vt 3.057964 2.395347
vt 2.302181 2.349475
vt 2.179782 2.44457
vt 2.916117 2.620986
vt 2.042729 2.516966
vt 1.895187 2.564464
vt 1.741638 2.58562
vt 1.499829 0.8305518
vt 0.3370521 0.999669
vt 1.352287 0.8780493
vt 1.215234 0.9504457
vt 1.092835 1.045541
vt 0.2365421 1.246511
vt 0.9888086 1.160446
vt 0.9063156 1.29167
vt 0.1804227 1.507057
vt 0.8478626 1.435225
vt 0.8152256 1.586749
vt 0.1703992 1.77339
vt 0.8093963 1.741638
vt 0.8305518 1.895187
vt 0.2067761 2.037416
vt 0.8780493 2.042729
vt 0.2884482 2.291115
vt 0.9504457 2.179782
vt 1.045541 2.302181
vt 0.4129338 2.526778
vt 1.160446 2.406207
vt 1.29167 2.4887
vt 1.435225 2.547153
vt 0.5764506 2.737243
vt 1.586749 2.57979
vt 2.737243 2.818565
vt 0.7740301 2.916117
vt 2.526778 2.982082
vt 0.999669 3.057964
vt 2.291115 3.106568
vt 1.246511 3.158474
vt 2.037416 3.18824
vt 1.507057 3.214593
vt 1.77339 3.224617
vt 0.3824105 -0.4322831
vt 0.4249006 -0.1657621
vt 0.3824105 -0.1657621
vt 0.4249006 -0.4322831
vt 0.3824105 -0.8413603
vt 0.4249006 -0.5748393
vt 0.3824105 -0.5748393
vt 0.4249006 -0.8413603
vt 0.3824105 -0.9624013
vt 0.4249006 -1.228922
vt 0.4249006 -0.9624013
vt 0.3824105 -1.228922
vt 0.3824105 -1.583193
vt 0.4249006 -1.316672
vt 0.3824105 -1.316672
vt 0.4249006 -1.583193
vt -0.3824105 1.893408
vt -0.4249006 1.626887
vt -0.3824105 1.626887
vt -0.4249006 1.893408
vt -0.3824105 2.150143
vt -0.4249006 1.883622
vt -0.3824105 1.883622
vt -0.4249006 2.150143
vt -0.3824105 2.345595
vt -0.4249006 2.079074
vt -0.3824105 2.079074
vt -0.4249006 2.345595
vt -0.3824105 2.473826
vt -0.4249006 2.207305
vt -0.3824105 2.207305
vt -0.4249006 2.473826
vt -0.3824105 2.530941
vt -0.4249006 2.26442
vt -0.3824105 2.26442
vt -0.4249006 2.530941
vt -0.3824105 2.248682
vt -0.4249006 2.515203
vt -0.4249006 2.248682
vt -0.3824105 2.515203
vt -0.4249006 2.160571
vt -0.3824105 2.427092
vt -0.4249006 2.427092
vt -0.3824105 2.160571
vt -0.3824105 2.002762
vt -0.4249006 2.269283
vt -0.4249006 2.002762
vt -0.3824105 2.269283
vt -0.3824105 1.780051
vt -0.4249006 2.046572
vt -0.4249006 1.780051
vt -0.3824105 2.046572
vt -0.4249006 1.499206
vt -0.3824105 1.765727
vt -0.4249006 1.765727
vt -0.3824105 1.499206
vt -0.4249006 1.168758
vt -0.3824105 1.435279
vt -0.4249006 1.435279
vt -0.3824105 1.168758
vt -0.4249006 0.7987497
vt -0.3824105 1.065271
vt -0.4249006 1.065271
vt -0.3824105 0.7987497
vt -0.3824105 0.4004226
vt -0.4249006 0.6669436
vt -0.4249006 0.4004226
vt -0.3824105 0.6669436
vt -0.4249006 -0.01412026
vt -0.3824105 0.2524007
vt -0.4249006 0.2524007
vt -0.3824105 -0.01412026
vt -0.4249006 -0.4322831
vt -0.3824105 -0.1657621
vt -0.4249006 -0.1657621
vt -0.3824105 -0.4322831
vt -0.4249006 -0.5748393
vt -0.3824105 -0.8413603
vt -0.3824105 -0.5748393
vt -0.4249006 -0.8413603
vt -0.4249006 -1.228922
vt -0.3824105 -0.9624013
vt -0.4249006 -0.9624013
vt -0.3824105 -1.228922
vt -0.4249006 -1.316672
vt -0.3824105 -1.583193
vt -0.3824105 -1.316672
vt -0.4249006 -1.583193
vt 0.4249006 1.893408
vt 0.3824105 1.626887
vt 0.4249006 1.626887
vt 0.3824105 1.893408
vt 0.4249006 1.883622
vt 0.3824105 2.150143
vt 0.3824105 1.883622
vt 0.4249006 2.150143
vt 0.4249006 2.079074
vt 0.3824105 2.345595
vt 0.3824105 2.079074
vt 0.4249006 2.345595
vt 0.4249006 2.207305
vt 0.3824105 2.473826
vt 0.3824105 2.207305
vt 0.4249006 2.473826
vt 0.4249006 2.530941
vt 0.3824105 2.26442
vt 0.4249006 2.26442
vt 0.3824105 2.530941
vt 0.4249006 2.515203
vt 0.3824105 2.248682
vt 0.4249006 2.248682
vt 0.3824105 2.515203
vt 0.3824105 2.427092
vt 0.4249006 2.160571
vt 0.4249006 2.427092
vt 0.3824105 2.160571
vt 0.3824105 2.269283
vt 0.4249006 2.002762
vt 0.4249006 2.269283
vt 0.3824105 2.002762
vt 0.3824105 2.046572
vt 0.4249006 1.780051
vt 0.4249006 2.046572
vt 0.3824105 1.780051
vt 0.3824105 1.765727
vt 0.4249006 1.499206
vt 0.4249006 1.765727
vt 0.3824105 1.499206
vt 0.4249006 1.435279
vt 0.3824105 1.168758
vt 0.4249006 1.168758
vt 0.3824105 1.435279
vt 0.3824105 1.065271
vt 0.4249006 0.7987497
vt 0.4249006 1.065271
vt 0.3824105 0.7987497
vt 0.3824105 0.6669436
vt 0.4249006 0.4004226
vt 0.4249006 0.6669436
vt 0.3824105 0.4004226
vt 0.3824105 0.2524007
vt 0.4249006 -0.01412026
vt 0.4249006 0.2524007
vt 0.3824105 -0.01412026
vn 0 3.597456311981438e-8 1
vn 0 -3.597456311981438e-8 -1
vn 0.7331998833071471 -0.680013184518054 2.4463174949233208e-8
vn 0.8401439551076445 -0.5423634710192823 1.9511286310058297e-8
vn -0.7331998833071471 0.680013184518054 -2.4463174949233208e-8
vn -0.8401439551076445 0.5423634710192823 -1.9511286310058297e-8
vn 0.9215607020822759 -0.38823430087721855 1.3966556497053442e-8
vn -0.9215607020822759 0.38823430087721855 -1.3966556497053442e-8
vn 0.9749763057917834 -0.22230880132061026 7.997458973998459e-9
vn -0.9749763057917834 0.22230880132061026 -7.997458973998459e-9
vn 0.998767743680627 -0.04962856217048081 1.7853627371799326e-9
vn -0.998767743680627 0.04962856217048081 -1.7853627371799326e-9
vn 0.9922121271178672 0.12455960340430337 -4.480980399633417e-9
vn -0.9922121271178672 -0.12455960340430337 4.480980399633417e-9
vn 0.9555086405921243 0.29496311253068674 -1.0611172080427276e-8
vn -0.9555086405921243 -0.29496311253068674 1.0611172080427276e-8
vn 0.8897725058659407 0.45640430300890467 -1.6418948173050343e-8
vn -0.8897725058659407 -0.45640430300890467 1.6418948173050343e-8
vn 0.7970011253868572 0.6039778192384906 -2.1727840659038415e-8
vn -0.7970011253868572 -0.6039778192384906 2.1727840659038415e-8
vn 0.6800131845180549 0.7331998833071465 -2.637654759563363e-8
vn -0.6800131845180549 -0.7331998833071465 2.637654759563363e-8
vn 0.542363471019283 0.8401439551076435 -3.022381342895779e-8
vn -0.542363471019283 -0.8401439551076435 3.022381342895779e-8
vn 0.38823430087721905 0.9215607020822751 -3.315274485281923e-8
vn -0.38823430087721905 -0.9215607020822751 3.315274485281923e-8
vn 0.22230880132061062 0.974976305791783 -3.507434734418774e-8
vn -0.22230880132061062 -0.974976305791783 3.507434734418774e-8
vn 0.049628562170480894 0.9987677436806265 -3.5930233391368446e-8
vn -0.049628562170480894 -0.9987677436806265 3.5930233391368446e-8
vn -0.12455960340430355 0.9922121271178665 -3.569439740799134e-8
vn 0.12455960340430355 -0.9922121271178665 3.569439740799134e-8
vn -0.29496311253068713 0.9555086405921235 -3.4374004985469446e-8
vn 0.29496311253068713 -0.9555086405921235 3.4374004985469446e-8
vn -0.4564043030089053 0.8897725058659401 -3.200917575558929e-8
vn 0.4564043030089053 -0.8897725058659401 3.200917575558929e-8
vn -0.6039778192384913 0.7970011253868564 -2.867176541402629e-8
vn 0.6039778192384913 -0.7970011253868564 2.867176541402629e-8
vn -0.9215607020822759 0.38823430087721855 -1.3966556497053443e-8
vn 0.9215607020822759 -0.38823430087721855 1.3966556497053443e-8
vn -0.9749763057917834 0.22230880132061026 -7.997458973998462e-9
vn 0.9749763057917834 -0.22230880132061026 7.997458973998462e-9
vn -0.998767743680627 0.04962856217048081 -1.7853627371799324e-9
vn 0.998767743680627 -0.04962856217048081 1.7853627371799324e-9
vn -0.9922121271178672 -0.12455960340430337 4.480980399633416e-9
vn 0.9922121271178672 0.12455960340430337 -4.480980399633416e-9
vn -0.9555086405921243 -0.29496311253068674 1.0611172080427274e-8
vn 0.9555086405921243 0.29496311253068674 -1.0611172080427274e-8
vn -0.7970011253868572 -0.6039778192384906 2.1727840659038418e-8
vn 0.7970011253868572 0.6039778192384906 -2.1727840659038418e-8
vn -0.542363471019283 -0.8401439551076435 3.022381342895778e-8
vn 0.542363471019283 0.8401439551076435 -3.022381342895778e-8
vn -0.38823430087721905 -0.9215607020822751 3.3152744852819225e-8
vn 0.38823430087721905 0.9215607020822751 -3.3152744852819225e-8
vn -0.22230880132061062 -0.974976305791783 3.507434734418773e-8
vn 0.22230880132061062 0.974976305791783 -3.507434734418773e-8
vn 0.6039778192384913 -0.7970011253868564 2.8671765414026288e-8
vn -0.6039778192384913 0.7970011253868564 -2.8671765414026288e-8
usemtl material_0_0
f 1/1/1 2/2/1 3/3/1
f 2/2/1 1/1/1 4/4/1
f 2/2/1 4/4/1 5/5/1
f 5/5/1 4/4/1 6/6/1
f 5/5/1 6/6/1 7/7/1
f 7/7/1 6/6/1 8/8/1
f 7/7/1 8/8/1 9/9/1
f 9/9/1 8/8/1 10/10/1
f 9/9/1 10/10/1 11/11/1
f 11/11/1 10/10/1 12/12/1
f 12/12/1 10/10/1 13/13/1
f 13/13/1 10/10/1 14/14/1
f 13/13/1 14/14/1 15/15/1
f 15/15/1 14/14/1 16/16/1
f 16/16/1 14/14/1 17/17/1
f 16/16/1 17/17/1 18/18/1
f 18/18/1 17/17/1 19/19/1
f 19/19/1 17/17/1 20/20/1
f 20/20/1 17/17/1 21/21/1
f 20/20/1 21/21/1 22/22/1
f 22/22/1 21/21/1 23/23/1
f 23/23/1 21/21/1 24/24/1
f 23/23/1 24/24/1 25/25/1
f 25/25/1 24/24/1 26/26/1
f 25/25/1 26/26/1 27/27/1
f 27/27/1 26/26/1 28/28/1
f 28/28/1 26/26/1 29/29/1
f 28/28/1 29/29/1 30/30/1
f 30/30/1 29/29/1 31/31/1
f 31/31/1 29/29/1 32/32/1
f 31/31/1 32/32/1 33/33/1
f 33/33/1 32/32/1 34/34/1
f 34/34/1 32/32/1 35/35/1
f 34/34/1 35/35/1 36/36/1
f 36/36/1 35/35/1 37/37/1
f 37/37/1 35/35/1 38/38/1
f 11/11/1 39/39/1 40/40/1
f 39/39/1 11/11/1 12/12/1
f 40/40/1 39/39/1 41/41/1
f 40/40/1 41/41/1 42/42/1
f 40/40/1 42/42/1 43/43/1
f 40/40/1 43/43/1 44/44/1
f 44/44/1 43/43/1 45/45/1
f 44/44/1 45/45/1 46/46/1
f 44/44/1 46/46/1 47/47/1
f 47/47/1 46/46/1 48/48/1
f 47/47/1 48/48/1 49/49/1
f 47/47/1 49/49/1 50/50/1
f 50/50/1 49/49/1 51/51/1
f 50/50/1 51/51/1 52/52/1
f 50/50/1 52/52/1 53/53/1
f 53/53/1 52/52/1 54/54/1
f 53/53/1 54/54/1 55/55/1
f 55/55/1 54/54/1 56/56/1
f 55/55/1 56/56/1 57/57/1
f 55/55/1 57/57/1 58/58/1
f 58/58/1 57/57/1 59/59/1
f 58/58/1 59/59/1 60/60/1
f 58/58/1 60/60/1 61/61/1
f 58/58/1 61/61/1 62/62/1
f 62/62/1 61/61/1 63/63/1
f 62/62/1 63/63/1 38/38/1
f 62/62/1 38/38/1 35/35/1
f 62/62/1 35/35/1 64/64/1
f 62/62/1 64/64/1 65/65/1
f 65/65/1 64/64/1 66/66/1
f 65/65/1 66/66/1 67/67/1
f 67/67/1 66/66/1 68/68/1
f 67/67/1 68/68/1 69/69/1
f 69/69/1 68/68/1 70/70/1
f 69/69/1 70/70/1 71/71/1
f 71/71/1 70/70/1 72/72/1
f 73/72/2 74/70/2 75/71/2
f 75/71/2 74/70/2 76/69/2
f 74/70/2 77/68/2 76/69/2
f 76/69/2 77/68/2 78/67/2
f 77/68/2 79/66/2 78/67/2
f 78/67/2 79/66/2 80/65/2
f 79/66/2 81/64/2 80/65/2
f 80/65/2 81/64/2 82/62/2
f 81/64/2 83/35/2 82/62/2
f 83/35/2 84/38/2 82/62/2
f 84/38/2 85/63/2 82/62/2
f 85/63/2 86/61/2 82/62/2
f 82/62/2 86/61/2 87/58/2
f 86/61/2 88/60/2 87/58/2
f 88/60/2 89/59/2 87/58/2
f 89/59/2 90/57/2 87/58/2
f 87/58/2 90/57/2 91/55/2
f 90/57/2 92/56/2 91/55/2
f 92/56/2 93/54/2 91/55/2
f 91/55/2 93/54/2 94/53/2
f 93/54/2 95/52/2 94/53/2
f 94/53/2 95/52/2 96/50/2
f 95/52/2 97/51/2 96/50/2
f 97/51/2 98/49/2 96/50/2
f 96/50/2 98/49/2 99/47/2
f 98/49/2 100/48/2 99/47/2
f 100/48/2 101/46/2 99/47/2
f 99/47/2 101/46/2 102/44/2
f 101/46/2 103/45/2 102/44/2
f 103/45/2 104/43/2 102/44/2
f 102/44/2 104/43/2 105/40/2
f 104/43/2 106/42/2 105/40/2
f 106/42/2 107/41/2 105/40/2
f 107/41/2 108/39/2 105/40/2
f 109/12/2 110/11/2 108/39/2
f 105/40/2 108/39/2 110/11/2
f 84/38/2 83/35/2 111/37/2
f 111/37/2 83/35/2 112/36/2
f 112/36/2 83/35/2 113/34/2
f 83/35/2 114/32/2 113/34/2
f 113/34/2 114/32/2 115/33/2
f 115/33/2 114/32/2 116/31/2
f 114/32/2 117/29/2 116/31/2
f 116/31/2 117/29/2 118/30/2
f 118/30/2 117/29/2 119/28/2
f 117/29/2 120/26/2 119/28/2
f 119/28/2 120/26/2 121/27/2
f 121/27/2 120/26/2 122/25/2
f 120/26/2 123/24/2 122/25/2
f 122/25/2 123/24/2 124/23/2
f 123/24/2 125/21/2 124/23/2
f 124/23/2 125/21/2 126/22/2
f 126/22/2 125/21/2 127/20/2
f 125/21/2 128/17/2 127/20/2
f 127/20/2 128/17/2 129/19/2
f 129/19/2 128/17/2 130/18/2
f 130/18/2 128/17/2 131/16/2
f 128/17/2 132/14/2 131/16/2
f 131/16/2 132/14/2 133/15/2
f 133/15/2 132/14/2 134/13/2
f 132/14/2 135/10/2 134/13/2
f 134/13/2 135/10/2 109/12/2
f 109/12/2 135/10/2 110/11/2
f 110/11/2 135/10/2 136/9/2
f 135/10/2 137/8/2 136/9/2
f 136/9/2 137/8/2 138/7/2
f 137/8/2 139/6/2 138/7/2
f 138/7/2 139/6/2 140/5/2
f 139/6/2 141/4/2 140/5/2
f 140/5/2 141/4/2 142/2/2
f 141/4/2 143/1/2 142/2/2
f 144/3/2 142/2/2 143/1/2
f 145/73/3 146/74/4 147/75/4
f 146/74/4 145/73/3 148/76/3
f 149/76/5 150/73/5 151/74/6
f 152/75/6 151/74/6 150/73/5
f 147/77/4 153/78/7 154/79/7
f 153/78/7 147/77/4 146/80/4
f 151/80/6 152/77/6 155/78/8
f 156/79/8 155/78/8 152/77/6
f 157/81/9 153/82/7 158/83/9
f 153/82/7 157/81/9 154/84/7
f 156/84/8 159/81/10 155/82/8
f 160/83/10 155/82/8 159/81/10
f 157/85/9 161/86/11 162/87/11
f 161/86/11 157/85/9 158/88/9
f 160/88/10 159/85/10 163/86/12
f 164/87/12 163/86/12 159/85/10
f 162/89/11 165/90/13 166/91/13
f 165/90/13 162/89/11 161/92/11
f 163/92/12 164/89/12 167/90/14
f 168/91/14 167/90/14 164/89/12
f 166/93/13 169/94/15 170/95/15
f 169/94/15 166/93/13 165/96/13
f 167/96/14 168/93/14 171/94/16
f 172/95/16 171/94/16 168/93/14
f 170/97/15 173/98/17 174/99/17
f 173/98/17 170/97/15 169/100/15
f 171/100/16 172/97/16 175/98/18
f 176/99/18 175/98/18 172/97/16
f 174/101/17 177/102/19 178/103/19
f 177/102/19 174/101/17 173/104/17
f 175/104/18 176/101/18 179/102/20
f 180/103/20 179/102/20 176/101/18
f 178/105/19 181/106/21 182/107/21
f 181/106/21 178/105/19 177/108/19
f 179/108/20 180/105/20 183/106/22
f 184/107/22 183/106/22 180/105/20
f 185/109/23 181/110/21 186/111/23
f 181/110/21 185/109/23 182/112/21
f 184/112/22 187/109/24 183/110/22
f 188/111/24 183/110/22 187/109/24
f 189/113/25 185/114/23 186/115/23
f 185/114/23 189/113/25 190/116/25
f 191/116/26 192/113/26 187/114/24
f 188/115/24 187/114/24 192/113/26
f 193/117/27 189/118/25 194/119/27
f 189/118/25 193/117/27 190/120/25
f 191/120/26 195/117/28 192/118/26
f 196/119/28 192/118/26 195/117/28
f 197/121/29 194/122/27 198/123/29
f 194/122/27 197/121/29 193/124/27
f 195/124/28 199/121/30 196/122/28
f 200/123/30 196/122/28 199/121/30
f 201/125/31 197/126/29 198/127/29
f 197/126/29 201/125/31 202/128/31
f 203/128/32 204/125/32 199/126/30
f 200/127/30 199/126/30 204/125/32
f 205/129/33 202/130/31 201/131/31
f 202/130/31 205/129/33 206/132/33
f 207/132/34 208/129/34 203/130/32
f 204/131/32 203/130/32 208/129/34
f 209/133/35 206/134/33 205/135/33
f 206/134/33 209/133/35 210/136/35
f 211/136/36 212/133/36 207/134/34
f 208/135/34 207/134/34 212/133/36
f 213/137/37 209/138/35 214/139/37
f 209/138/35 213/137/37 210/140/35
f 211/140/36 215/137/38 212/138/36
f 216/139/38 212/138/36 215/137/38
f 217/141/5 213/142/37 214/143/37
f 213/142/37 217/141/5 218/144/5
f 219/144/3 220/141/3 215/142/38
f 216/143/38 215/142/38 220/141/3
f 221/145/6 218/146/5 217/147/5
f 218/146/5 221/145/6 222/148/6
f 223/148/4 224/145/4 219/146/3
f 220/147/3 219/146/3 224/145/4
f 221/149/6 225/150/39 222/151/6
f 225/150/39 221/149/6 226/152/39
f 227/152/40 224/149/4 228/150/40
f 223/151/4 228/150/40 224/149/4
f 229/153/41 225/154/39 226/155/39
f 225/154/39 229/153/41 230/156/41
f 231/156/42 232/153/42 228/154/40
f 227/155/40 228/154/40 232/153/42
f 229/157/41 233/158/43 230/159/41
f 233/158/43 229/157/41 234/160/43
f 235/160/44 232/157/42 236/158/44
f 231/159/42 236/158/44 232/157/42
f 237/161/45 233/162/43 234/163/43
f 233/162/43 237/161/45 238/164/45
f 239/164/46 240/161/46 236/162/44
f 235/163/44 236/162/44 240/161/46
f 237/165/45 241/166/47 238/167/45
f 241/166/47 237/165/45 242/168/47
f 243/168/48 240/165/46 244/166/48
f 239/167/46 244/166/48 240/165/46
f 242/169/47 245/170/18 241/171/47
f 245/170/18 242/169/47 246/172/18
f 247/172/17 243/169/48 248/170/17
f 244/171/48 248/170/17 243/169/48
f 246/173/18 249/174/49 245/175/18
f 249/174/49 246/173/18 250/176/49
f 251/176/50 247/173/17 252/174/50
f 248/175/17 252/174/50 247/173/17
f 253/177/22 249/178/49 250/179/49
f 249/178/49 253/177/22 254/180/22
f 255/180/21 256/177/21 252/178/50
f 251/179/50 252/178/50 256/177/21
f 257/181/51 254/182/22 253/183/22
f 254/182/22 257/181/51 258/184/51
f 259/184/52 260/181/52 255/182/21
f 256/183/21 255/182/21 260/181/52
f 261/185/53 257/186/51 262/187/53
f 257/186/51 261/185/53 258/188/51
f 259/188/52 263/185/54 260/186/52
f 264/187/54 260/186/52 263/185/54
f 265/189/55 262/190/53 266/191/55
f 262/190/53 265/189/55 261/192/53
f 263/192/54 267/189/56 264/190/54
f 268/191/56 264/190/54 267/189/56
f 269/193/30 266/194/55 270/195/30
f 266/194/55 269/193/30 265/196/55
f 267/196/56 271/193/29 268/194/56
f 272/195/29 268/194/56 271/193/29
f 273/197/32 270/198/30 274/199/32
f 270/198/30 273/197/32 269/200/30
f 271/200/29 275/197/31 272/198/29
f 276/199/31 272/198/29 275/197/31
f 277/201/34 273/202/32 274/203/32
f 273/202/32 277/201/34 278/204/34
f 279/204/33 280/201/33 275/202/31
f 276/203/31 275/202/31 280/201/33
f 281/205/36 277/206/34 282/207/36
f 277/206/34 281/205/36 278/208/34
f 279/208/33 283/205/35 280/206/33
f 284/207/35 280/206/33 283/205/35
f 285/209/57 282/210/36 286/211/57
f 282/210/36 285/209/57 281/212/36
f 283/212/35 287/209/58 284/210/35
f 288/211/58 284/210/35 287/209/58
f 145/213/3 286/214/57 148/215/3
f 286/214/57 145/213/3 285/216/57
f 287/216/58 150/213/5 288/214/58
f 149/215/5 288/214/58 150/213/5
