# SSTK version 0.8.0
# 8
mtllib original-8.mtl
o #ID53
v 0.21864398 0.22184826 -0.60903594
v 0.22218995 0.29561557 -0.60893927
v 0.22358857 0.25857839 -0.60901067
v 0.21437053 0.33177122 -0.60897408
v 0.20713241 0.18666517 -0.60904946
v 0.20046538 0.36607604 -0.60902382
v 0.18981294 0.15387338 -0.60896671
v 0.18067731 0.39757907 -0.60898093
v 0.16723067 0.12468053 -0.60902844
v 0.15591254 0.42498174 -0.60897287
v 0.13966232 0.09966351 -0.60906921
v 0.12656211 0.44765173 -0.60901936
v 0.10830385 0.07991982 -0.60905749
v 0.09394544 0.46506907 -0.60903147
v 0.07398913 0.06594918 -0.60909411
v 0.07930083 0.26583786 -0.60907172
v 0.07784615 0.25404937 -0.60899822
v 0.07413267 0.24273708 -0.60910051
v 0.06861526 0.23215174 -0.60907617
v 0.03777589 0.05824121 -0.60908390
v 0.06127925 0.22275084 -0.60904741
v 0.05250284 0.21484559 -0.60894547
v 0.04245382 0.20854902 -0.60894332
v 0.03140179 0.20408092 -0.60896524
v 0.00085441 0.05681324 -0.60905349
v 0.01991968 0.20150381 -0.60896920
v 0.00797220 0.20112380 -0.60910792
v -0.00388404 0.20267768 -0.60906948
v -0.03587203 0.06182270 -0.60892032
v -0.01501053 0.20639499 -0.60909457
v -0.02549842 0.21184352 -0.60897033
v -0.03494622 0.21912227 -0.60904893
v -0.04294165 0.22795581 -0.60892025
v -0.07115275 0.07325717 -0.60902661
v -0.04929533 0.23804151 -0.60896848
v -0.05365246 0.24904207 -0.60898629
v -0.05622576 0.26067018 -0.60893545
v -0.05669805 0.27253253 -0.60903035
v 0.07899839 0.27751883 -0.60892737
v 0.05865901 0.47634111 -0.60896835
v 0.07641067 0.28922698 -0.60910629
v 0.07194587 0.30011889 -0.60902097
v 0.06563857 0.31018218 -0.60895394
v 0.05770240 0.31907291 -0.60907341
v 0.02195293 0.48132881 -0.60895019
v 0.04834292 0.32640766 -0.60897716
v 0.03780508 0.33191051 -0.60902579
v 0.02642165 0.33560773 -0.60904412
v 0.01474891 0.33711791 -0.60910539
v -0.01508055 0.48003795 -0.60893166
v 0.00282836 0.33666163 -0.60892677
v -0.00867798 0.33417752 -0.60897381
v -0.01980528 0.32976777 -0.60900816
v -0.05137230 0.47216775 -0.60906616
v -0.02981518 0.32345441 -0.60898831
v -0.03863715 0.31552854 -0.60898874
v -0.04589494 0.30611143 -0.60891979
v -0.05139644 0.29559324 -0.60899898
v -0.08575172 0.45822821 -0.60904189
v -0.05510097 0.28429790 -0.60910634
v -0.10394164 0.09064971 -0.60906876
v -0.11704949 0.43853838 -0.60894108
v -0.13315450 0.11331602 -0.60893273
v -0.14453168 0.41354513 -0.60899717
v -0.15812453 0.14070919 -0.60905510
v -0.16711018 0.38430425 -0.60903164
v -0.17771640 0.17205118 -0.60907437
v -0.18450491 0.35171448 -0.60894598
v -0.19170817 0.20648130 -0.60905525
v -0.19576805 0.31639708 -0.60904991
v -0.19946244 0.24265401 -0.60899229
v -0.20086623 0.27963400 -0.60895801
v -0.20099547 0.27970513 -0.60896529
v -0.19945968 0.24265057 -0.60907506
v -0.19582141 0.31632415 -0.60906583
v -0.19164940 0.20633991 -0.60900262
v -0.18451026 0.35160575 -0.60902369
v -0.17770654 0.17209181 -0.60904678
v -0.16717787 0.38445131 -0.60908677
v -0.15803240 0.14072812 -0.60910222
v -0.14450311 0.41355974 -0.60905262
v -0.13327019 0.11324422 -0.60900464
v -0.11691757 0.43854514 -0.60895897
v -0.10401972 0.09048426 -0.60896147
v -0.08560002 0.45819880 -0.60895699
v -0.07125792 0.07324511 -0.60897629
v -0.05666957 0.27251074 -0.60893348
v -0.05508285 0.28416579 -0.60909221
v -0.05151655 0.29562309 -0.60893861
v -0.05133079 0.47219879 -0.60892863
v -0.04593078 0.30603361 -0.60899563
v -0.03865486 0.31534839 -0.60901473
v -0.02987762 0.32330592 -0.60906472
v -0.01972630 0.32973768 -0.60907583
v -0.01512744 0.47995938 -0.60905395
v -0.00870190 0.33411386 -0.60891539
v 0.00279522 0.33670110 -0.60904488
v 0.01481472 0.33711350 -0.60892509
v 0.02188538 0.48141285 -0.60906191
v 0.02642136 0.33554840 -0.60902526
v 0.03785740 0.33192742 -0.60902210
v 0.04827561 0.32642230 -0.60905640
v 0.05764315 0.31904572 -0.60899251
v 0.05850036 0.47639626 -0.60908881
v 0.06564852 0.31021223 -0.60907539
v 0.07203295 0.30010934 -0.60895379
v 0.07647100 0.28925499 -0.60899702
v 0.07894143 0.27761237 -0.60902687
v 0.07927416 0.26581277 -0.60909137
v 0.09393704 0.46503680 -0.60904848
v -0.05615157 0.26054023 -0.60895568
v -0.05376971 0.24910008 -0.60893275
v -0.04924452 0.23812691 -0.60896408
v -0.04293712 0.22798381 -0.60898812
v -0.03592637 0.06198193 -0.60897744
v -0.03494994 0.21912581 -0.60905369
v -0.02568566 0.21183104 -0.60901163
v -0.01509312 0.20633577 -0.60902636
v -0.00378361 0.20262207 -0.60908406
v 0.00080589 0.05680020 -0.60905631
v 0.00798854 0.20116689 -0.60898404
v 0.01992693 0.20163557 -0.60905201
v 0.03136591 0.20396688 -0.60900662
v 0.03788064 0.05833764 -0.60904578
v 0.04252136 0.20850721 -0.60907117
v 0.05241857 0.21492104 -0.60891920
v 0.06120003 0.22273324 -0.60901559
v 0.06853918 0.23227486 -0.60907528
v 0.07410182 0.06609110 -0.60894181
v 0.07404094 0.24274024 -0.60894587
v 0.07779337 0.25393030 -0.60900805
v 0.10834438 0.08006644 -0.60898008
v 0.12667329 0.44775534 -0.60900485
v 0.13974317 0.09980714 -0.60907840
v 0.15585191 0.42488108 -0.60895272
v 0.16716851 0.12453649 -0.60903658
v 0.18081693 0.39756481 -0.60905353
v 0.18989640 0.15393867 -0.60898622
v 0.20046882 0.36620079 -0.60898298
v 0.20719024 0.18654682 -0.60897145
v 0.21451106 0.33174616 -0.60895961
v 0.21845951 0.22178582 -0.60893044
v 0.22215064 0.29560487 -0.60908786
v 0.22353717 0.25857059 -0.60900566
v 0.07403927 0.06608167 -0.60906469
v 0.03775945 0.05815275 -0.65452724
v 0.03780400 0.05832616 -0.60897773
v 0.07407176 0.06609118 -0.65460163
v 0.07398079 0.06608665 -0.65467045
v 0.07397416 0.06612632 -0.60895395
v 0.03790117 0.05832908 -0.65456803
v 0.03772579 0.05828641 -0.60895244
v 0.00071559 0.05690784 -0.60893272
v 0.00082277 0.05679813 -0.65465823
v 0.00087991 0.05692658 -0.65469266
v 0.00077005 0.05686331 -0.60911176
v -0.03599645 0.06187565 -0.60902161
v -0.03597011 0.06194039 -0.65464327
v -0.03582784 0.06190906 -0.65454576
v -0.03581202 0.06184365 -0.60906991
v -0.07119435 0.07327621 -0.60905909
v -0.07107423 0.07335936 -0.65453690
v -0.07115540 0.07316185 -0.65467337
v -0.07116718 0.07334824 -0.60905355
v -0.10387600 0.09065639 -0.65459817
v -0.10401116 0.09055142 -0.60903111
v -0.10394429 0.09059628 -0.65461823
v -0.10387520 0.09047158 -0.60904673
v -0.13308082 0.11330540 -0.60904172
v -0.13317359 0.11331636 -0.65460273
v -0.13318407 0.11322184 -0.65454165
v -0.13309596 0.11330976 -0.60911123
v -0.15810528 0.14077291 -0.65469584
v -0.15797143 0.14067255 -0.60904821
v -0.15804699 0.14071632 -0.60901965
v -0.15813534 0.14082379 -0.65466154
v -0.17775634 0.17206365 -0.65469232
v -0.17775803 0.17216551 -0.60891766
v -0.17765896 0.17202487 -0.60901850
v -0.17772259 0.17220648 -0.65453679
v -0.19170238 0.20648439 -0.60899511
v -0.19164922 0.20648556 -0.65462537
v -0.19163589 0.20648199 -0.65463264
v -0.19179072 0.20645086 -0.60899477
v -0.19946544 0.24273807 -0.65467322
v -0.19950334 0.24272314 -0.60904878
v -0.19945056 0.24263457 -0.60910285
v -0.19957612 0.24272983 -0.65470616
v -0.20100402 0.27960001 -0.65470618
v -0.20085850 0.27957418 -0.60900936
v -0.20094447 0.27968407 -0.60908440
v -0.20083422 0.27974760 -0.65469613
v -0.19579335 0.31628472 -0.65466951
v -0.19589379 0.31631076 -0.60904315
v -0.19580419 0.31628678 -0.60903616
v -0.19589768 0.31641758 -0.65468345
v -0.18449151 0.35157942 -0.60910694
v -0.18453816 0.35171263 -0.65464806
v -0.18444409 0.35154399 -0.65455736
v -0.18456009 0.35172140 -0.60895400
v -0.16711967 0.38431499 -0.65465946
v -0.16711771 0.38436845 -0.60897222
v -0.16726926 0.38429184 -0.60895629
v -0.16723893 0.38439427 -0.65456086
v -0.14441205 0.41365904 -0.65464993
v -0.14441287 0.41357860 -0.60910828
v -0.14444123 0.41354358 -0.60893206
v -0.14444175 0.41355702 -0.65467353
v -0.11701732 0.43852679 -0.60906122
v -0.11709935 0.43852621 -0.65461628
v -0.11698252 0.43846053 -0.65468580
v -0.11708622 0.43843929 -0.60909398
v -0.08574022 0.45817972 -0.60893502
v -0.08565777 0.45823180 -0.65463562
v -0.08556748 0.45827305 -0.65466047
v -0.08561166 0.45827770 -0.60895763
v -0.05128904 0.47212925 -0.60907495
v -0.05130295 0.47215276 -0.65454960
v -0.05125724 0.47224390 -0.65463560
v -0.05127975 0.47215849 -0.60909223
v -0.01506976 0.48005418 -0.65453503
v -0.01502861 0.47995574 -0.60899587
v -0.01516984 0.48003119 -0.65458236
v -0.01522496 0.47993317 -0.60905236
v 0.02180765 0.48135822 -0.60909697
v 0.02196658 0.48146563 -0.65463017
v 0.02188779 0.48132013 -0.65463440
v 0.02191475 0.48136491 -0.60898721
v 0.05852447 0.47636519 -0.65466812
v 0.05854847 0.47633608 -0.60911125
v 0.05858753 0.47627540 -0.65456879
v 0.05861755 0.47624409 -0.60895144
v 0.09384297 0.46497397 -0.65465625
v 0.09380772 0.46501128 -0.60910877
v 0.09377688 0.46493058 -0.65460301
v 0.09376999 0.46496120 -0.60901505
v 0.12655341 0.44770619 -0.60895797
v 0.12663918 0.44776178 -0.65462676
v 0.12665779 0.44764821 -0.65452474
v 0.12663239 0.44774287 -0.60910360
v 0.15583498 0.42485139 -0.65468706
v 0.15580360 0.42490384 -0.60905316
v 0.15579458 0.42498466 -0.65460484
v 0.15588627 0.42487515 -0.60904571
v 0.18074448 0.39742429 -0.60899790
v 0.18075022 0.39743564 -0.65451971
v 0.18075913 0.39741322 -0.60905077
v 0.18065291 0.39752368 -0.65468772
v 0.20039484 0.36615728 -0.65457514
v 0.20046584 0.36606487 -0.60893281
v 0.20035640 0.36621302 -0.65458776
v 0.20040467 0.36614456 -0.60906420
v 0.21444728 0.33171144 -0.60893246
v 0.21433369 0.33177562 -0.65462052
v 0.21433106 0.33185123 -0.60906040
v 0.21434804 0.33173223 -0.65464190
v 0.22212965 0.29568601 -0.65466982
v 0.22212070 0.29556493 -0.60894481
v 0.22228766 0.29558092 -0.65459789
v 0.22223690 0.29557961 -0.60894586
v 0.22351948 0.25865267 -0.60900292
v 0.22361610 0.25855618 -0.65465504
v 0.22371061 0.25864364 -0.60903616
v 0.22366566 0.25858768 -0.65457450
v 0.21848662 0.22184109 -0.60899475
v 0.21861966 0.22196368 -0.65456803
v 0.21862599 0.22185013 -0.60893608
v 0.21855782 0.22184997 -0.65468408
v 0.20716166 0.18655279 -0.60907044
v 0.20722052 0.18657779 -0.65461890
v 0.20717210 0.18669901 -0.60899893
v 0.20730278 0.18658324 -0.65465173
v 0.18997800 0.15378382 -0.65463798
v 0.18995379 0.15390884 -0.60901471
v 0.18998577 0.15385399 -0.65466989
v 0.18988811 0.15381801 -0.60900336
v 0.16721535 0.12456667 -0.60892601
v 0.16723114 0.12452592 -0.65461077
v 0.16708139 0.12454349 -0.60904670
v 0.16717575 0.12452247 -0.65470292
v 0.13966269 0.09964965 -0.65452730
v 0.13980338 0.09982183 -0.60899798
v 0.13980308 0.09972064 -0.65458199
v 0.13975070 0.09967237 -0.60896342
v 0.10844142 0.08003383 -0.60894207
v 0.10831475 0.08001732 -0.65463517
v 0.10835916 0.08008564 -0.65452440
v 0.10825106 0.08007491 -0.60903536
vt -1.376563 0.2899462
vt -1.877333 0.2650631
vt -1.62586 0.2555988
vt -2.123343 0.3180515
vt -1.137019 0.3670617
vt -2.356413 0.4129539
vt -0.9145042 0.4846021
vt -2.569464 0.5468869
vt -0.7157809 0.638996
vt -2.75602 0.7157809
vt -0.5468869 0.8255523
vt -2.910414 0.9145042
vt -0.4129539 1.038602
vt -3.027954 1.137019
vt -0.3180515 1.271673
vt -1.674546 1.235394
vt -1.594649 1.246402
vt -1.517878 1.271117
vt -1.446565 1.308787
vt -0.2650631 1.517683
vt -1.382877 1.358268
vt -1.328748 1.418057
vt -1.285825 1.486337
vt -1.25541 1.561033
vt -0.2555988 1.769156
vt -1.238427 1.639876
vt -1.235394 1.72047
vt -1.246402 1.800367
vt -0.2899462 2.018452
vt -1.271117 1.877138
vt -1.308787 1.948451
vt -1.358268 2.012139
vt -1.418057 2.066267
vt -0.3670617 2.257997
vt -1.486337 2.109191
vt -1.561033 2.139606
vt -1.639876 2.156588
vt -1.72047 2.159622
vt -1.75514 1.238427
vt -3.10507 1.376563
vt -1.833983 1.25541
vt -1.908679 1.285825
vt -1.976959 1.328748
vt -2.036748 1.382877
vt -3.139417 1.62586
vt -2.086229 1.446565
vt -2.123899 1.517878
vt -2.148614 1.594649
vt -2.159622 1.674546
vt -3.129953 1.877333
vt -2.156588 1.75514
vt -2.139606 1.833983
vt -2.109191 1.908679
vt -3.076964 2.123343
vt -2.066267 1.976959
vt -2.012139 2.036748
vt -1.948451 2.086229
vt -1.877138 2.123899
vt -2.982062 2.356413
vt -1.800367 2.148614
vt -0.4846021 2.480512
vt -2.848129 2.569464
vt -0.638996 2.679235
vt -2.679235 2.75602
vt -0.8255523 2.848129
vt -2.480512 2.910414
vt -1.038602 2.982062
vt -2.257997 3.027954
vt -1.271673 3.076964
vt -2.018452 3.10507
vt -1.517683 3.129953
vt -1.769156 3.139417
vt 1.246134e-13 1.176193
vt 0.3301547 1.427844
vt 1.495823e-24 1.427844
vt 0.3301547 1.176193
vt 0.3301547 1.50664
vt 6.134811e-14 1.758292
vt 1.463323e-24 1.50664
vt 0.3301547 1.758292
vt 0.3301547 1.787486
vt 6.326524e-14 2.039137
vt 6.134811e-14 1.787486
vt 0.3301547 2.039137
vt 0.3301547 2.010197
vt 1.246134e-13 2.261848
vt 6.326524e-14 2.010197
vt 0.3301547 2.261848
vt 1.246134e-13 2.168005
vt 0.3301547 2.419657
vt -6.134811e-14 2.419657
vt 0.3301547 2.168005
vt 0.3301547 2.256117
vt 1.917129e-15 2.507769
vt -6.134811e-14 2.256117
vt 0.3301547 2.507769
vt 0.3301547 2.523506
vt 1.917129e-15 2.271855
vt 0.3301547 2.271855
vt 1.917129e-15 2.523506
vt 0.3301547 2.466392
vt 1.917129e-15 2.21474
vt 0.3301547 2.21474
vt 1.614864e-23 2.466392
vt 0.3301547 2.086509
vt -9.301457e-24 2.33816
vt -7.596697e-24 2.086509
vt 0.3301547 2.33816
vt 0.3301547 2.142708
vt 8.329479e-24 1.891056
vt 0.3301547 1.891056
vt 9.940845e-24 2.142708
vt 0.3301547 1.885974
vt 0 1.634322
vt 0.3301547 1.634322
vt -1.226962e-13 1.885974
vt -0.3301547 -1.575758
vt 1.226962e-13 -1.324107
vt -0.3301547 -1.324107
vt 5.943099e-14 -1.575758
vt -0.3301547 -0.9698361
vt -2.03252e-23 -1.221487
vt 5.943099e-14 -0.9698361
vt -0.3301547 -1.221487
vt -0.3301547 -0.8339255
vt 1.333488e-23 -0.5822741
vt -0.3301547 -0.5822741
vt 1.840443e-13 -0.8339255
vt -0.3301547 -0.4248483
vt 1.840443e-13 -0.1731969
vt -0.3301547 -0.1731969
vt 6.134811e-14 -0.4248483
vt -0.3301547 0.2449659
vt 6.134811e-14 -0.006685467
vt 6.134811e-14 0.2449659
vt -0.3301547 -0.006685467
vt -0.3301547 0.6595088
vt -6.134811e-14 0.4078574
vt 6.134811e-14 0.6595088
vt -0.3301547 0.4078574
vt -0.3301547 1.057836
vt -6.134811e-14 0.8061845
vt -6.134811e-14 1.057836
vt -0.3301547 0.8061845
vt -6.134811e-14 1.427844
vt -0.3301547 1.176193
vt -3.532636e-23 1.176193
vt -0.3301547 1.427844
vt -0.3301547 1.758292
vt -6.326524e-14 1.50664
vt -1.72794e-23 1.758292
vt -0.3301547 1.50664
vt -6.326524e-14 2.039137
vt -0.3301547 1.787486
vt -6.134811e-14 1.787486
vt -0.3301547 2.039137
vt -6.134811e-14 2.261848
vt -0.3301547 2.010197
vt -1.754873e-23 2.010197
vt -0.3301547 2.261848
vt -0.3301547 2.419657
vt -1.815848e-23 2.168005
vt -1.889183e-23 2.419657
vt -0.3301547 2.168005
vt 2.033241e-23 2.507769
vt -0.3301547 2.256117
vt 1.840443e-13 2.256117
vt -0.3301547 2.507769
vt 1.226962e-13 2.271855
vt -0.3301547 2.523506
vt -0.3301547 2.271855
vt 1.840443e-13 2.523506
vt 1.226962e-13 2.466392
vt -0.3301547 2.21474
vt 1.226962e-13 2.21474
vt -0.3301547 2.466392
vt 1.553086e-23 2.086509
vt -0.3301547 2.33816
vt -0.3301547 2.086509
vt 1.226962e-13 2.33816
vt -1.390793e-23 2.142708
vt -0.3301547 1.891056
vt 1.226962e-13 1.891056
vt -0.3301547 2.142708
vt -7.452965e-24 1.634322
vt -0.3301547 1.885974
vt -0.3301547 1.634322
vt 1.226962e-13 1.885974
vt 1.390994e-23 -1.324107
vt 0.3301547 -1.575758
vt 0.3301547 -1.324107
vt 1.642903e-23 -1.575758
vt 6.326524e-14 -0.9698361
vt 0.3301547 -1.221487
vt 0.3301547 -0.9698361
vt -1.239104e-23 -1.221487
vt 6.326524e-14 -0.8339255
vt 0.3301547 -0.5822741
vt -6.134811e-14 -0.5822741
vt 0.3301547 -0.8339255
vt 6.134811e-14 -0.1731969
vt 0.3301547 -0.4248483
vt 0.3301547 -0.1731969
vt -6.134811e-14 -0.4248483
vt 0.3301547 0.2449659
vt -6.134811e-14 0.2449659
vt 0.3301547 -0.006685467
vt 0.3301547 0.4078574
vt 0.3301547 0.6595088
vt 0.3301547 0.8061845
vt 1.246134e-13 1.057836
vt 6.134811e-14 0.8061845
vt 0.3301547 1.057836
vn 0 -3.597456311981438e-8 -1
vn 0 3.597456311981438e-8 1
vn -0.29496311253068713 0.9555086405921235 -3.437400498546944e-8
vn -0.12455960340430355 0.9922121271178665 -3.569439740799134e-8
vn 0.29496311253068713 -0.9555086405921235 3.437400498546944e-8
vn 0.12455960340430355 -0.9922121271178665 3.569439740799134e-8
vn 0.049628562170480894 0.9987677436806265 -3.5930233391368446e-8
vn -0.049628562170480894 -0.9987677436806265 3.5930233391368446e-8
vn 0.22230880132061062 0.974976305791783 -3.507434734418774e-8
vn -0.22230880132061062 -0.974976305791783 3.507434734418774e-8
vn 0.38823430087721905 0.9215607020822751 -3.3152744852819225e-8
vn -0.38823430087721905 -0.9215607020822751 3.3152744852819225e-8
vn 0.542363471019283 0.8401439551076435 -3.022381342895778e-8
vn -0.542363471019283 -0.8401439551076435 3.022381342895778e-8
vn 0.6800131845180549 0.7331998833071465 -2.637654759563363e-8
vn -0.6800131845180549 -0.7331998833071465 2.637654759563363e-8
vn 0.7970011253868572 0.6039778192384906 -2.1727840659038418e-8
vn -0.7970011253868572 -0.6039778192384906 2.1727840659038418e-8
vn 0.8897725058659407 0.45640430300890467 -1.641894817305034e-8
vn -0.8897725058659407 -0.45640430300890467 1.641894817305034e-8
vn 0.9555086405921243 0.29496311253068674 -1.061117208042727e-8
vn -0.9555086405921243 -0.29496311253068674 1.061117208042727e-8
vn 0.9922121271178672 0.12455960340430337 -4.480980399633416e-9
vn -0.9922121271178672 -0.12455960340430337 4.480980399633416e-9
vn 0.998767743680627 -0.04962856217048081 1.7853627371799334e-9
vn -0.998767743680627 0.04962856217048081 -1.7853627371799334e-9
vn 0.9749763057917834 -0.22230880132061026 7.99745897399846e-9
vn -0.9749763057917834 0.22230880132061026 -7.99745897399846e-9
vn 0.9215607020822759 -0.38823430087721855 1.3966556497053443e-8
vn -0.9215607020822759 0.38823430087721855 -1.3966556497053443e-8
vn 0.8401439551076445 -0.5423634710192823 1.95112863100583e-8
vn -0.8401439551076445 0.5423634710192823 -1.95112863100583e-8
vn 0.7331998833071471 -0.680013184518054 2.4463174949233218e-8
vn -0.7331998833071471 0.680013184518054 -2.4463174949233218e-8
vn 0.6039778192384913 -0.7970011253868564 2.8671765414026295e-8
vn -0.6039778192384913 0.7970011253868564 -2.8671765414026295e-8
vn 0.4564043030089053 -0.8897725058659401 3.200917575558929e-8
vn -0.4564043030089053 0.8897725058659401 -3.200917575558929e-8
vn 0.12455960340430355 -0.9922121271178665 3.569439740799133e-8
vn -0.12455960340430355 0.9922121271178665 -3.569439740799133e-8
vn -0.049628562170480894 -0.9987677436806265 3.593023339136844e-8
vn 0.049628562170480894 0.9987677436806265 -3.593023339136844e-8
vn -0.38823430087721905 -0.9215607020822751 3.315274485281923e-8
vn 0.38823430087721905 0.9215607020822751 -3.315274485281923e-8
vn -0.998767743680627 0.04962856217048081 -1.7853627371799324e-9
vn 0.998767743680627 -0.04962856217048081 1.7853627371799324e-9
vn -0.9749763057917834 0.22230880132061026 -7.997458973998462e-9
vn 0.9749763057917834 -0.22230880132061026 7.997458973998462e-9
vn -0.9215607020822759 0.38823430087721855 -1.3966556497053445e-8
vn 0.9215607020822759 -0.38823430087721855 1.3966556497053445e-8
vn -0.7331998833071471 0.680013184518054 -2.4463174949233208e-8
vn 0.7331998833071471 -0.680013184518054 2.4463174949233208e-8
vn -0.6039778192384913 0.7970011253868564 -2.867176541402628e-8
vn 0.6039778192384913 -0.7970011253868564 2.867176541402628e-8
vn -0.4564043030089053 0.8897725058659401 -3.2009175755589274e-8
vn 0.4564043030089053 -0.8897725058659401 3.2009175755589274e-8
usemtl material_0_0
f 1/1/1 2/2/1 3/3/1
f 2/2/1 1/1/1 4/4/1
f 4/4/1 1/1/1 5/5/1
f 4/4/1 5/5/1 6/6/1
f 6/6/1 5/5/1 7/7/1
f 6/6/1 7/7/1 8/8/1
f 8/8/1 7/7/1 9/9/1
f 8/8/1 9/9/1 10/10/1
f 10/10/1 9/9/1 11/11/1
f 10/10/1 11/11/1 12/12/1
f 12/12/1 11/11/1 13/13/1
f 12/12/1 13/13/1 14/14/1
f 14/14/1 13/13/1 15/15/1
f 14/14/1 15/15/1 16/16/1
f 16/16/1 15/15/1 17/17/1
f 17/17/1 15/15/1 18/18/1
f 18/18/1 15/15/1 19/19/1
f 19/19/1 15/15/1 20/20/1
f 19/19/1 20/20/1 21/21/1
f 21/21/1 20/20/1 22/22/1
f 22/22/1 20/20/1 23/23/1
f 23/23/1 20/20/1 24/24/1
f 24/24/1 20/20/1 25/25/1
f 24/24/1 25/25/1 26/26/1
f 26/26/1 25/25/1 27/27/1
f 27/27/1 25/25/1 28/28/1
f 28/28/1 25/25/1 29/29/1
f 28/28/1 29/29/1 30/30/1
f 30/30/1 29/29/1 31/31/1
f 31/31/1 29/29/1 32/32/1
f 32/32/1 29/29/1 33/33/1
f 33/33/1 29/29/1 34/34/1
f 33/33/1 34/34/1 35/35/1
f 35/35/1 34/34/1 36/36/1
f 36/36/1 34/34/1 37/37/1
f 37/37/1 34/34/1 38/38/1
f 14/14/1 39/39/1 40/40/1
f 39/39/1 14/14/1 16/16/1
f 40/40/1 39/39/1 41/41/1
f 40/40/1 41/41/1 42/42/1
f 40/40/1 42/42/1 43/43/1
f 40/40/1 43/43/1 44/44/1
f 40/40/1 44/44/1 45/45/1
f 45/45/1 44/44/1 46/46/1
f 45/45/1 46/46/1 47/47/1
f 45/45/1 47/47/1 48/48/1
f 45/45/1 48/48/1 49/49/1
f 45/45/1 49/49/1 50/50/1
f 50/50/1 49/49/1 51/51/1
f 50/50/1 51/51/1 52/52/1
f 50/50/1 52/52/1 53/53/1
f 50/50/1 53/53/1 54/54/1
f 54/54/1 53/53/1 55/55/1
f 54/54/1 55/55/1 56/56/1
f 54/54/1 56/56/1 57/57/1
f 54/54/1 57/57/1 58/58/1
f 54/54/1 58/58/1 59/59/1
f 59/59/1 58/58/1 60/60/1
f 59/59/1 60/60/1 38/38/1
f 59/59/1 38/38/1 34/34/1
f 59/59/1 34/34/1 61/61/1
f 59/59/1 61/61/1 62/62/1
f 62/62/1 61/61/1 63/63/1
f 62/62/1 63/63/1 64/64/1
f 64/64/1 63/63/1 65/65/1
f 64/64/1 65/65/1 66/66/1
f 66/66/1 65/65/1 67/67/1
f 66/66/1 67/67/1 68/68/1
f 68/68/1 67/67/1 69/69/1
f 68/68/1 69/69/1 70/70/1
f 70/70/1 69/69/1 71/71/1
f 70/70/1 71/71/1 72/72/1
f 73/72/2 74/71/2 75/70/2
f 74/71/2 76/69/2 75/70/2
f 75/70/2 76/69/2 77/68/2
f 76/69/2 78/67/2 77/68/2
f 77/68/2 78/67/2 79/66/2
f 78/67/2 80/65/2 79/66/2
f 79/66/2 80/65/2 81/64/2
f 80/65/2 82/63/2 81/64/2
f 81/64/2 82/63/2 83/62/2
f 82/63/2 84/61/2 83/62/2
f 83/62/2 84/61/2 85/59/2
f 84/61/2 86/34/2 85/59/2
f 86/34/2 87/38/2 85/59/2
f 87/38/2 88/60/2 85/59/2
f 88/60/2 89/58/2 85/59/2
f 85/59/2 89/58/2 90/54/2
f 89/58/2 91/57/2 90/54/2
f 91/57/2 92/56/2 90/54/2
f 92/56/2 93/55/2 90/54/2
f 93/55/2 94/53/2 90/54/2
f 90/54/2 94/53/2 95/50/2
f 94/53/2 96/52/2 95/50/2
f 96/52/2 97/51/2 95/50/2
f 97/51/2 98/49/2 95/50/2
f 95/50/2 98/49/2 99/45/2
f 98/49/2 100/48/2 99/45/2
f 100/48/2 101/47/2 99/45/2
f 101/47/2 102/46/2 99/45/2
f 102/46/2 103/44/2 99/45/2
f 99/45/2 103/44/2 104/40/2
f 103/44/2 105/43/2 104/40/2
f 105/43/2 106/42/2 104/40/2
f 106/42/2 107/41/2 104/40/2
f 107/41/2 108/39/2 104/40/2
f 109/16/2 110/14/2 108/39/2
f 104/40/2 108/39/2 110/14/2
f 87/38/2 86/34/2 111/37/2
f 111/37/2 86/34/2 112/36/2
f 112/36/2 86/34/2 113/35/2
f 113/35/2 86/34/2 114/33/2
f 86/34/2 115/29/2 114/33/2
f 114/33/2 115/29/2 116/32/2
f 116/32/2 115/29/2 117/31/2
f 117/31/2 115/29/2 118/30/2
f 118/30/2 115/29/2 119/28/2
f 115/29/2 120/25/2 119/28/2
f 119/28/2 120/25/2 121/27/2
f 121/27/2 120/25/2 122/26/2
f 122/26/2 120/25/2 123/24/2
f 120/25/2 124/20/2 123/24/2
f 123/24/2 124/20/2 125/23/2
f 125/23/2 124/20/2 126/22/2
f 126/22/2 124/20/2 127/21/2
f 127/21/2 124/20/2 128/19/2
f 124/20/2 129/15/2 128/19/2
f 128/19/2 129/15/2 130/18/2
f 130/18/2 129/15/2 131/17/2
f 131/17/2 129/15/2 109/16/2
f 109/16/2 129/15/2 110/14/2
f 129/15/2 132/13/2 110/14/2
f 110/14/2 132/13/2 133/12/2
f 132/13/2 134/11/2 133/12/2
f 133/12/2 134/11/2 135/10/2
f 134/11/2 136/9/2 135/10/2
f 135/10/2 136/9/2 137/8/2
f 136/9/2 138/7/2 137/8/2
f 137/8/2 138/7/2 139/6/2
f 138/7/2 140/5/2 139/6/2
f 139/6/2 140/5/2 141/4/2
f 140/5/2 142/1/2 141/4/2
f 141/4/2 142/1/2 143/2/2
f 144/3/2 143/2/2 142/1/2
f 145/73/3 146/74/4 147/75/4
f 146/74/4 145/73/3 148/76/3
f 149/76/5 150/73/5 151/74/6
f 152/75/6 151/74/6 150/73/5
f 146/77/4 153/78/7 147/79/4
f 153/78/7 146/77/4 154/80/7
f 155/80/8 151/77/6 156/78/8
f 152/79/6 156/78/8 151/77/6
f 154/81/7 157/82/9 153/83/7
f 157/82/9 154/81/7 158/84/9
f 159/84/10 155/81/8 160/82/10
f 156/83/8 160/82/10 155/81/8
f 158/85/9 161/86/11 157/87/9
f 161/86/11 158/85/9 162/88/11
f 163/88/12 159/85/10 164/86/12
f 160/87/10 164/86/12 159/85/10
f 161/89/11 165/90/13 166/91/13
f 165/90/13 161/89/11 162/92/11
f 163/92/12 164/89/12 167/90/14
f 168/91/14 167/90/14 164/89/12
f 165/93/13 169/94/15 166/95/13
f 169/94/15 165/93/13 170/96/15
f 171/96/16 167/93/14 172/94/16
f 168/95/14 172/94/16 167/93/14
f 173/97/17 169/98/15 170/99/15
f 169/98/15 173/97/17 174/100/17
f 175/100/18 176/97/18 172/98/16
f 171/99/16 172/98/16 176/97/18
f 177/101/19 174/102/17 173/103/17
f 174/102/17 177/101/19 178/104/19
f 179/104/20 180/101/20 175/102/18
f 176/103/18 175/102/18 180/101/20
f 177/105/19 181/106/21 178/107/19
f 181/106/21 177/105/19 182/108/21
f 183/108/22 180/105/20 184/106/22
f 179/107/20 184/106/22 180/105/20
f 185/109/23 181/110/21 182/111/21
f 181/110/21 185/109/23 186/112/23
f 187/112/24 188/109/24 184/110/22
f 183/111/22 184/110/22 188/109/24
f 189/113/25 186/114/23 185/115/23
f 186/114/23 189/113/25 190/116/25
f 191/116/26 192/113/26 187/114/24
f 188/115/24 187/114/24 192/113/26
f 193/117/27 190/118/25 189/119/25
f 190/118/25 193/117/27 194/120/27
f 195/120/28 196/117/28 191/118/26
f 192/119/26 191/118/26 196/117/28
f 193/121/27 197/122/29 194/123/27
f 197/122/29 193/121/27 198/124/29
f 199/124/30 196/121/28 200/122/30
f 195/123/28 200/122/30 196/121/28
f 201/125/31 197/126/29 198/127/29
f 197/126/29 201/125/31 202/128/31
f 203/128/32 204/125/32 200/126/30
f 199/127/30 200/126/30 204/125/32
f 205/129/33 202/130/31 201/131/31
f 202/130/31 205/129/33 206/132/33
f 207/132/34 208/129/34 203/130/32
f 204/131/32 203/130/32 208/129/34
f 205/133/33 209/134/35 206/135/33
f 209/134/35 205/133/33 210/136/35
f 211/136/36 208/133/34 212/134/36
f 207/135/34 212/134/36 208/133/34
f 210/137/35 213/138/37 209/139/35
f 213/138/37 210/137/35 214/140/37
f 215/140/38 211/137/36 216/138/38
f 212/139/36 216/138/38 211/137/36
f 214/141/37 217/142/5 213/143/37
f 217/142/5 214/141/37 218/144/5
f 219/144/3 215/141/38 220/142/3
f 216/143/38 220/142/3 215/141/38
f 217/145/5 221/146/39 222/147/39
f 221/146/39 217/145/5 218/148/5
f 219/148/3 220/145/3 223/146/40
f 224/147/40 223/146/40 220/145/3
f 221/149/39 225/150/41 222/151/39
f 225/150/41 221/149/39 226/152/41
f 227/152/42 223/149/40 228/150/42
f 224/151/40 228/150/42 223/149/40
f 225/153/41 229/154/10 230/155/10
f 229/154/10 225/153/41 226/156/41
f 227/156/42 228/153/42 231/154/9
f 232/155/9 231/154/9 228/153/42
f 230/157/10 233/158/43 234/159/43
f 233/158/43 230/157/10 229/160/10
f 231/160/9 232/157/9 235/158/44
f 236/159/44 235/158/44 232/157/9
f 233/161/43 237/162/14 234/163/43
f 237/162/14 233/161/43 238/164/14
f 239/164/13 235/161/44 240/162/13
f 236/163/44 240/162/13 235/161/44
f 237/165/14 241/166/16 242/167/16
f 241/166/16 237/165/14 238/168/14
f 239/168/13 240/165/13 243/166/15
f 244/167/15 243/166/15 240/165/13
f 245/169/18 241/170/16 246/171/18
f 241/170/16 245/169/18 242/172/16
f 244/172/15 247/169/17 243/170/15
f 248/171/17 243/170/15 247/169/17
f 245/173/18 249/174/20 250/175/20
f 249/174/20 245/173/18 246/176/18
f 248/176/17 247/173/17 251/174/19
f 252/175/19 251/174/19 247/173/17
f 253/177/22 249/178/20 254/179/22
f 249/178/20 253/177/22 250/180/20
f 252/180/19 255/177/21 251/178/19
f 256/179/21 251/178/19 255/177/21
f 253/181/22 257/182/24 258/183/24
f 257/182/24 253/181/22 254/184/22
f 256/184/21 255/181/21 259/182/23
f 260/183/23 259/182/23 255/181/21
f 261/185/45 257/186/24 262/187/45
f 257/186/24 261/185/45 258/188/24
f 260/188/23 263/185/46 259/186/23
f 264/187/46 259/186/23 263/185/46
f 265/189/47 262/190/45 266/191/47
f 262/190/45 265/189/47 261/192/45
f 263/192/46 267/189/48 264/190/46
f 268/191/48 264/190/46 267/189/48
f 269/193/49 266/194/47 270/195/49
f 266/194/47 269/193/49 265/196/47
f 267/196/48 271/193/50 268/194/48
f 272/195/50 268/194/48 271/193/50
f 269/197/49 273/198/32 274/199/32
f 273/198/32 269/197/49 270/200/49
f 272/200/50 271/197/50 275/198/31
f 276/199/31 275/198/31 271/197/50
f 277/201/51 273/202/32 278/203/51
f 273/202/32 277/201/51 274/204/32
f 276/204/31 279/201/52 275/202/31
f 280/203/52 275/202/31 279/201/52
f 277/134/51 281/205/53 282/206/53
f 281/205/53 277/134/51 278/207/51
f 280/207/52 279/134/52 283/205/54
f 284/206/54 283/205/54 279/134/52
f 281/208/53 285/139/55 282/138/53
f 285/139/55 281/208/53 286/209/55
f 287/209/56 283/208/54 288/139/56
f 284/138/54 288/139/56 283/208/54
f 286/210/55 145/211/3 285/212/55
f 145/211/3 286/210/55 148/213/3
f 149/213/5 287/210/56 150/211/5
f 288/212/56 150/211/5 287/210/56
