# SSTK version 0.8.0
# 53
mtllib original-53.mtl
o #ID359
v 0.18201089 0.61215960 0.03229210
v 0.18214254 0.61222937 0.09246688
v 0.18471296 0.61227294 0.06246838
v 0.17429515 0.61234706 0.00305397
v 0.17423901 0.61233691 0.12167520
v 0.16149264 0.61219314 -0.02416086
v 0.16709084 0.61216540 0.06248961
v 0.16482734 0.61234566 0.03537228
v 0.15771989 0.61218040 0.00910343
v 0.14418733 0.61215226 -0.04904034
v 0.14637788 0.61216612 -0.01553722
v 0.13081013 0.61217122 -0.03771842
v 0.12276444 0.61224573 -0.07038406
v 0.11157566 0.61228327 -0.05694460
v 0.09805394 0.61215700 -0.08760271
v 0.08927915 0.61221944 -0.07239919
v 0.07072264 0.61223223 -0.10049252
v 0.06465363 0.61229944 -0.08388315
v 0.04152916 0.61229830 -0.10827566
v 0.03857605 0.61226947 -0.09097769
v 0.01138863 0.61225757 -0.11087141
v 0.01136629 0.61229730 -0.09332743
v -0.01567625 0.61234593 -0.09090277
v -0.01856908 0.61224053 -0.10816104
v -0.04181129 0.61233580 -0.08386349
v -0.04771358 0.61224170 -0.10042140
v -0.06646567 0.61221551 -0.07237315
v -0.07526886 0.61222268 -0.08772160
v -0.08872689 0.61218850 -0.05686668
v -0.09985736 0.61232485 -0.07037363
v -0.10787956 0.61234518 -0.03762143
v -0.12137159 0.61230114 -0.04902090
v -0.12339207 0.61224316 -0.01552859
v -0.13860582 0.61233137 -0.02418443
v -0.13493844 0.61232476 0.00912064
v -0.14195394 0.61218011 0.03533676
v -0.15133203 0.61224649 0.00307795
v -0.14429418 0.61224017 0.06239921
v 0.16146993 0.61224738 0.14895961
v 0.16476737 0.61224186 0.08951069
v 0.15775818 0.61232968 0.11562249
v 0.14417261 0.61228760 0.17380175
v 0.14625962 0.61225804 0.14023921
v 0.13068722 0.61222300 0.16245857
v 0.12276467 0.61223670 0.19515658
v 0.11152263 0.61223773 0.18162801
v 0.09810242 0.61220064 0.21244905
v 0.08930323 0.61217232 0.19729737
v 0.07064214 0.61228311 0.22527219
v 0.06478661 0.61224433 0.20875302
v 0.04148815 0.61231803 0.23294409
v 0.03852805 0.61223489 0.21571003
v 0.01145550 0.61232139 0.23554380
v 0.01153102 0.61227685 0.21816555
v -0.01861930 0.61234593 0.23295264
v -0.01556324 0.61217379 0.21569685
v -0.04189704 0.61216077 0.20873346
v -0.04773966 0.61224505 0.22509414
v -0.06637834 0.61230143 0.19732674
v -0.07519966 0.61228753 0.21239957
v -0.08872138 0.61224864 0.18166153
v -0.09997314 0.61234876 0.19502423
v -0.10787468 0.61234793 0.16247199
v -0.12133404 0.61227689 0.17380020
v -0.12334707 0.61229276 0.14033234
v -0.13858724 0.61234626 0.14897837
v -0.13488008 0.61217725 0.11571262
v -0.14200661 0.61223299 0.08940338
v -0.15140893 0.61227799 0.12164556
v -0.15912609 0.61219935 0.03222727
v -0.15913884 0.61230299 0.09245699
v -0.16182428 0.61227456 0.06238569
v -0.16183963 0.61225779 0.06246802
v -0.15915212 0.61230447 0.03225769
v -0.15911951 0.61232701 0.09249961
v -0.15138660 0.61226821 0.12160023
v -0.15129500 0.61232056 0.00307890
v -0.14430058 0.61227668 0.06238454
v -0.14182444 0.61216855 0.08936739
v -0.13867144 0.61221039 0.14902586
v -0.13495178 0.61218487 0.11574475
v -0.12334158 0.61221869 0.14030166
v -0.12127545 0.61218266 0.17373416
v -0.10778424 0.61217395 0.16252692
v -0.09992868 0.61230875 0.19520564
v -0.08873250 0.61224548 0.18162791
v -0.07521300 0.61231706 0.21234832
v -0.06639133 0.61222807 0.19716650
v -0.04777886 0.61217356 0.22511483
v -0.04187832 0.61223256 0.20875272
v -0.01870761 0.61224137 0.23298286
v -0.01563247 0.61218861 0.21577763
v 0.01135218 0.61226019 0.21814422
v 0.01144423 0.61234580 0.23558582
v 0.03841445 0.61229155 0.21579709
v 0.04158505 0.61220318 0.23299754
v 0.06479107 0.61225604 0.20879574
v 0.07070675 0.61219929 0.22514075
v 0.08928115 0.61215373 0.19726230
v 0.09803153 0.61227381 0.21233645
v 0.11154177 0.61223669 0.18157323
v 0.12283188 0.61228112 0.19517456
v 0.13083820 0.61215347 0.16246508
v 0.14417451 0.61218735 0.17377647
v 0.14629941 0.61215527 0.14016415
v 0.15773009 0.61232387 0.11560690
v 0.16151842 0.61224232 0.14904263
v 0.16476363 0.61223559 0.08942703
v 0.16715653 0.61215808 0.06232381
v 0.17418598 0.61220891 0.12170259
v -0.14195031 0.61225662 0.03534985
v -0.13867800 0.61223672 -0.02418093
v -0.13492645 0.61216150 0.00907698
v -0.12339200 0.61229032 -0.01545484
v -0.12124674 0.61225542 -0.04904516
v -0.10778670 0.61224560 -0.03774815
v -0.09993078 0.61215191 -0.07023555
v -0.08859449 0.61218609 -0.05690993
v -0.07511005 0.61222459 -0.08753915
v -0.06631381 0.61227972 -0.07242544
v -0.04780766 0.61233264 -0.10042655
v -0.04184669 0.61231214 -0.08382681
v -0.01859108 0.61226188 -0.10827058
v -0.01550810 0.61218898 -0.09097258
v 0.01139210 0.61233537 -0.11087412
v 0.01142440 0.61230782 -0.09326384
v 0.03842339 0.61224866 -0.09091363
v 0.04154224 0.61224876 -0.10823659
v 0.06466250 0.61223743 -0.08386325
v 0.07065938 0.61220595 -0.10048588
v 0.08940476 0.61221375 -0.07252280
v 0.09815033 0.61230140 -0.08760271
v 0.11153028 0.61215107 -0.05680514
v 0.12281411 0.61220375 -0.07027275
v 0.13073376 0.61217843 -0.03766956
v 0.14413338 0.61234672 -0.04891757
v 0.14623968 0.61226120 -0.01553097
v 0.15786767 0.61227469 0.00907828
v 0.16157495 0.61225389 -0.02423192
v 0.16482831 0.61227473 0.03539889
v 0.17424576 0.61234191 0.00314612
v 0.18213559 0.61224352 0.09248174
v 0.18214237 0.61227862 0.03239169
v 0.18480162 0.61223275 0.06236270
v 0.12282124 0.61216078 0.19511836
v 0.09807738 0.61815279 0.21248829
v 0.12285101 0.61820663 0.19503222
v 0.09816183 0.61228988 0.21244480
v 0.09816335 0.61232558 0.21242937
v 0.12283185 0.61230881 0.19503646
v 0.09814099 0.61820116 0.21246261
v 0.12281995 0.61801885 0.19515335
v 0.14427545 0.61811968 0.17382100
v 0.14424840 0.61217128 0.17373063
v 0.14428750 0.61225443 0.17371269
v 0.14415101 0.61814608 0.17378432
v 0.16144539 0.61807459 0.14892246
v 0.16144770 0.61224592 0.14897871
v 0.16159138 0.61216005 0.14910672
v 0.16159797 0.61803465 0.14893496
v 0.17433508 0.61810191 0.12164209
v 0.17420193 0.61216330 0.12159151
v 0.17424114 0.61220018 0.12171300
v 0.17436399 0.61805009 0.12167120
v 0.18209982 0.61812114 0.09240097
v 0.18210922 0.61232455 0.09242485
v 0.18210925 0.61230900 0.09251674
v 0.18216130 0.61807717 0.09256058
v 0.18469954 0.61231079 0.06234567
v 0.18473748 0.61813991 0.06248466
v 0.18470938 0.61802775 0.06238502
v 0.18471707 0.61215366 0.06239529
v 0.18211969 0.61808644 0.03226947
v 0.18213911 0.61215278 0.03234881
v 0.18215377 0.61225495 0.03225076
v 0.18205754 0.61812235 0.03223763
v 0.17437075 0.61820932 0.00310020
v 0.17426256 0.61219745 0.00310688
v 0.17423268 0.61230906 0.00323216
v 0.17425536 0.61814179 0.00323902
v 0.16150112 0.61818134 -0.02412919
v 0.16160920 0.61229846 -0.02415815
v 0.16147693 0.61215014 -0.02418592
v 0.16148496 0.61820514 -0.02414422
v 0.14415558 0.61807098 -0.04886688
v 0.14419005 0.61233528 -0.04902806
v 0.14426106 0.61218081 -0.04896528
v 0.14409415 0.61805142 -0.04889890
v 0.12290800 0.61226728 -0.07023719
v 0.12289529 0.61810693 -0.07028562
v 0.12285680 0.61227019 -0.07026145
v 0.12284954 0.61806868 -0.07022898
v 0.09804378 0.61810921 -0.08761090
v 0.09815617 0.61229465 -0.08762914
v 0.09818022 0.61223093 -0.08771723
v 0.09816933 0.61820737 -0.08765015
v 0.07071024 0.61809083 -0.10031684
v 0.07071497 0.61219808 -0.10036394
v 0.07077971 0.61226841 -0.10031345
v 0.07067500 0.61810102 -0.10033428
v 0.04150076 0.61821378 -0.10817905
v 0.04155033 0.61215205 -0.10821385
v 0.04158116 0.61229916 -0.10824520
v 0.04163221 0.61813489 -0.10814105
v 0.01148351 0.61811699 -0.11086933
v 0.01137175 0.61227067 -0.11085148
v 0.01147799 0.61225706 -0.11084172
v 0.01151812 0.61805957 -0.11076648
v -0.01863778 0.61802499 -0.10814606
v -0.01864978 0.61234143 -0.10828731
v -0.01854737 0.61219377 -0.10815129
v -0.01870332 0.61803155 -0.10828636
v -0.04780943 0.61233224 -0.10041892
v -0.04788943 0.61817248 -0.10041934
v -0.04787527 0.61222606 -0.10030756
v -0.04784727 0.61801819 -0.10031829
v -0.07526560 0.61224512 -0.08767051
v -0.07525323 0.61806062 -0.08758258
v -0.07523852 0.61217132 -0.08771243
v -0.07516332 0.61813799 -0.08755063
v -0.09987508 0.61220633 -0.07040367
v -0.09990179 0.61805514 -0.07035974
v -0.10002778 0.61218387 -0.07038019
v -0.09997386 0.61820143 -0.07033276
v -0.12123844 0.61221791 -0.04900966
v -0.12123794 0.61802261 -0.04904406
v -0.12132455 0.61227848 -0.04899373
v -0.12133824 0.61808631 -0.04904705
v -0.13862362 0.61230023 -0.02415948
v -0.13854837 0.61819845 -0.02432365
v -0.13869628 0.61215331 -0.02430511
v -0.13868634 0.61805677 -0.02422555
v -0.15133775 0.61816872 0.00308684
v -0.15138942 0.61227868 0.00318052
v -0.15128919 0.61802890 0.00319939
v -0.15135258 0.61216517 0.00318141
v -0.15918245 0.61819566 0.03232576
v -0.15923285 0.61215119 0.03228863
v -0.15918948 0.61810644 0.03226699
v -0.15913499 0.61224454 0.03230569
v -0.16181726 0.61808785 0.06234706
v -0.16182470 0.61227789 0.06243388
v -0.16175548 0.61811701 0.06236130
v -0.16186971 0.61215927 0.06233204
v -0.15928402 0.61810548 0.09255032
v -0.15920645 0.61233661 0.09242942
v -0.15914134 0.61807804 0.09241496
v -0.15911796 0.61233899 0.09256216
v -0.15144785 0.61229450 0.12170732
v -0.15131772 0.61812810 0.12157648
v -0.15143979 0.61218652 0.12159691
v -0.15145364 0.61821347 0.12159487
v -0.13851405 0.61227037 0.14907700
v -0.13871357 0.61811139 0.14893669
v -0.13861048 0.61217646 0.14897163
v -0.13860321 0.61812777 0.14897872
v -0.12126123 0.61234476 0.17384803
v -0.12135477 0.61817098 0.17380093
v -0.12130883 0.61224611 0.17369002
v -0.12130585 0.61813412 0.17368127
v -0.10000828 0.61224241 0.19511015
v -0.10002600 0.61810993 0.19504188
v -0.09996227 0.61221374 0.19516006
v -0.10002295 0.61815507 0.19511029
v -0.07508970 0.61816971 0.21245658
v -0.07515533 0.61220011 0.21238264
v -0.07509215 0.61228017 0.21247058
v -0.07521982 0.61806557 0.21244382
v -0.04779873 0.61216105 0.22516907
v -0.04777551 0.61808155 0.22511368
v -0.04786735 0.61220710 0.22515561
v -0.04772978 0.61805274 0.22524507
v -0.01854780 0.61231081 0.23297263
v -0.01869496 0.61805635 0.23295488
v -0.01861474 0.61232218 0.23303720
v -0.01869519 0.61810791 0.23292033
v 0.01140124 0.61820344 0.23559817
v 0.01138743 0.61218997 0.23556512
v 0.01139723 0.61221694 0.23554994
v 0.01150729 0.61813490 0.23565862
v 0.04160680 0.61215865 0.23305883
v 0.04151444 0.61819457 0.23291743
v 0.04159709 0.61223927 0.23294298
v 0.04149283 0.61805231 0.23295315
v 0.07078270 0.61232131 0.22512579
v 0.07067392 0.61811968 0.22518992
v 0.07075164 0.61227710 0.22510495
v 0.07066775 0.61809362 0.22513046
vt 1.851917 0.8218096
vt 1.543099 0.8218096
vt 1.697508 0.8083005
vt 2.001635 0.8619263
vt 1.393381 0.8619263
vt 2.142112 0.9274317
vt 1.697508 0.8983606
vt 1.836278 0.9105015
vt 1.970832 0.9465551
vt 2.269079 1.016336
vt 2.097082 1.005426
vt 2.21119 1.085326
vt 2.37868 1.125936
vt 2.30969 1.183826
vt 2.467584 1.252904
vt 2.38959 1.297934
vt 2.53309 1.393381
vt 2.448461 1.424183
vt 2.573206 1.543099
vt 2.484514 1.558737
vt 2.586715 1.697508
vt 2.496655 1.697508
vt 2.484514 1.836278
vt 2.573206 1.851917
vt 2.448461 1.970832
vt 2.53309 2.001635
vt 2.38959 2.097082
vt 2.467584 2.142112
vt 2.30969 2.21119
vt 2.37868 2.269079
vt 2.21119 2.30969
vt 2.269079 2.37868
vt 2.097082 2.38959
vt 2.142112 2.467584
vt 1.970832 2.448461
vt 1.836278 2.484514
vt 2.001635 2.53309
vt 1.697508 2.496655
vt 1.252904 0.9274317
vt 1.558737 0.9105015
vt 1.424183 0.9465551
vt 1.125936 1.016336
vt 1.297934 1.005426
vt 1.183826 1.085326
vt 1.016336 1.125936
vt 1.085326 1.183826
vt 0.9274317 1.252904
vt 1.005426 1.297934
vt 0.8619263 1.393381
vt 0.9465551 1.424183
vt 0.8218096 1.543099
vt 0.9105015 1.558737
vt 0.8083005 1.697508
vt 0.8983606 1.697508
vt 0.8218096 1.851917
vt 0.9105015 1.836278
vt 0.9465551 1.970832
vt 0.8619263 2.001635
vt 1.005426 2.097082
vt 0.9274317 2.142112
vt 1.085326 2.21119
vt 1.016336 2.269079
vt 1.183826 2.30969
vt 1.125936 2.37868
vt 1.297934 2.38959
vt 1.252904 2.467584
vt 1.424183 2.448461
vt 1.558737 2.484514
vt 1.393381 2.53309
vt 1.851917 2.573206
vt 1.543099 2.573206
vt 1.697508 2.586715
vt -0.3399205 0.339367
vt -0.3824105 0.4943661
vt -0.3824105 0.339367
vt -0.3399205 0.4943661
vt -0.3824105 -0.07749953
vt -0.3399205 0.07749953
vt -0.3824105 0.07749953
vt -0.3399205 -0.07749953
vt -0.3824105 -0.4943661
vt -0.3399205 -0.339367
vt -0.3824105 -0.339367
vt -0.3399205 -0.4943661
vt -0.3824105 -0.8985663
vt -0.3399205 -0.7435673
vt -0.3824105 -0.7435673
vt -0.3399205 -0.8985663
vt -0.3824105 -1.277819
vt -0.3399205 -1.12282
vt -0.3824105 -1.12282
vt -0.3399205 -1.277819
vt -0.3824105 -1.465601
vt -0.3399205 -1.6206
vt -0.3399205 -1.465601
vt -0.3824105 -1.6206
vt 0.3824105 1.916495
vt 0.3399205 1.761496
vt 0.3824105 1.761496
vt 0.3399205 1.916495
vt 0.3824105 2.156514
vt 0.3399205 2.001515
vt 0.3824105 2.001515
vt 0.3399205 2.156514
vt 0.3824105 2.333362
vt 0.3399205 2.178363
vt 0.3824105 2.178363
vt 0.3399205 2.333362
vt 0.3824105 2.441667
vt 0.3399205 2.286668
vt 0.3824105 2.286668
vt 0.3399205 2.441667
vt 0.3399205 2.478138
vt 0.3824105 2.323139
vt 0.3824105 2.478138
vt 0.3399205 2.323139
vt 0.3824105 1.6206
vt 0.3399205 1.465601
vt 0.3824105 1.465601
vt 0.3399205 1.6206
vt 0.3399205 1.277819
vt 0.3824105 1.12282
vt 0.3824105 1.277819
vt 0.3399205 1.12282
vt 0.3399205 0.8985663
vt 0.3824105 0.7435673
vt 0.3824105 0.8985663
vt 0.3399205 0.7435673
vt 0.3399205 0.4943661
vt 0.3824105 0.339367
vt 0.3824105 0.4943661
vt 0.3399205 0.339367
vt 0.3399205 0.07749953
vt 0.3824105 -0.07749953
vt 0.3824105 0.07749953
vt 0.3399205 -0.07749953
vt 0.3399205 -0.339367
vt 0.3824105 -0.4943661
vt 0.3824105 -0.339367
vt 0.3399205 -0.4943661
vt 0.3399205 -0.8985663
vt 0.3824105 -0.7435673
vt 0.3399205 -0.7435673
vt 0.3824105 -0.8985663
vt 0.3399205 -1.277819
vt 0.3824105 -1.12282
vt 0.3399205 -1.12282
vt 0.3824105 -1.277819
vt 0.3399205 -1.6206
vt 0.3824105 -1.465601
vt 0.3399205 -1.465601
vt 0.3824105 -1.6206
vt -0.3399205 1.916495
vt -0.3824105 1.761496
vt -0.3399205 1.761496
vt -0.3824105 1.916495
vt -0.3399205 2.001515
vt -0.3824105 2.156514
vt -0.3824105 2.001515
vt -0.3399205 2.156514
vt -0.3399205 2.178363
vt -0.3824105 2.333362
vt -0.3824105 2.178363
vt -0.3399205 2.333362
vt -0.3399205 2.286668
vt -0.3824105 2.441667
vt -0.3824105 2.286668
vt -0.3399205 2.441667
vt -0.3399205 2.323139
vt -0.3824105 2.478138
vt -0.3824105 2.323139
vt -0.3399205 2.478138
vt -0.3399205 1.465601
vt -0.3824105 1.6206
vt -0.3824105 1.465601
vt -0.3399205 1.6206
vt -0.3399205 1.12282
vt -0.3824105 1.277819
vt -0.3824105 1.12282
vt -0.3399205 1.277819
vt -0.3824105 0.7435673
vt -0.3399205 0.8985663
vt -0.3824105 0.8985663
vt -0.3399205 0.7435673
vn 0 1 -3.597456166309494e-8
vn 0 -1 3.597456166309494e-8
vn -0.6427017134977455 -2.756070840943214e-8 -0.7661165103736254
vn -0.49991459647473363 -3.115666057415695e-8 -0.8660747059183193
vn 0.49991459647473363 3.115666057415695e-8 0.8660747059183193
vn 0.6427017134977455 2.756070840943214e-8 0.7661165103736254
vn -0.765972337286853 -2.312709631520452e-8 -0.6428735322840059
vn 0.765972337286853 2.312709631520452e-8 0.6428735322840059
vn -0.8659760857201488 -1.7990356201189104e-8 -0.5000854116656567
vn 0.8659760857201488 1.7990356201189104e-8 0.5000854116656567
vn -0.9396675921882846 -1.2306500839069567e-8 -0.3420889010053843
vn 0.9396675921882846 1.2306500839069567e-8 0.3420889010053843
vn -0.984800985861338 -6.24829991518947e-9 -0.1736865517146821
vn 0.984800985861338 6.24829991518947e-9 0.1736865517146821
vn -1 0 0
vn 1 0 0
vn -0.9848009858613376 6.248295869799214e-9 0.1736865517146833
vn 0.9848009858613376 -6.248295869799214e-9 -0.1736865517146833
vn -0.9396675921882843 1.230649697907939e-8 0.3420889010053851
vn 0.9396675921882843 -1.230649697907939e-8 -0.3420889010053851
vn -0.8659760857201486 1.7990352643910745e-8 0.500085411665657
vn 0.8659760857201486 -1.7990352643910745e-8 -0.500085411665657
vn -0.7659723372868533 2.312709316872405e-8 0.6428735322840057
vn 0.7659723372868533 -2.312709316872405e-8 -0.6428735322840057
vn -0.6427017134977463 2.756070576932579e-8 0.7661165103736246
vn 0.6427017134977463 -2.756070576932579e-8 -0.7661165103736246
vn -0.499914596474735 3.1156658520595094e-8 0.8660747059183184
vn 0.499914596474735 -3.1156658520595094e-8 -0.8660747059183184
vn -0.3419513326599958 3.380593208341644e-8 0.9397176629669423
vn 0.3419513326599958 -3.380593208341644e-8 -0.9397176629669423
vn -0.17360983881326442 3.5428271905636876e-8 0.9848145124170496
vn 0.17360983881326442 -3.5428271905636876e-8 -0.9848145124170496
vn 0 3.597456355031161e-8 1
vn 0 -3.597456355031161e-8 -1
vn 0.17360983881326192 3.54282726187958e-8 0.98481451241705
vn -0.17360983881326192 -3.54282726187958e-8 -0.98481451241705
vn 0.3419513326599937 3.38059334880928e-8 0.939717662966943
vn -0.3419513326599937 -3.38059334880928e-8 -0.939717662966943
vn 0.6427017134977455 2.7560708409432113e-8 0.7661165103736254
vn -0.6427017134977455 -2.7560708409432113e-8 -0.7661165103736254
vn 0.765972337286853 2.3127096315204518e-8 0.6428735322840059
vn -0.765972337286853 -2.3127096315204518e-8 -0.6428735322840059
vn 0.8659760857201488 1.799035620118912e-8 0.5000854116656567
vn -0.8659760857201488 -1.799035620118912e-8 -0.5000854116656567
vn 0.9396675921882846 1.2306500839069569e-8 0.3420889010053843
vn -0.9396675921882846 -1.2306500839069569e-8 -0.3420889010053843
vn 0.984800985861338 6.248299915189468e-9 0.1736865517146821
vn -0.984800985861338 -6.248299915189468e-9 -0.1736865517146821
vn 0.9848009858613376 -6.2482958697992156e-9 -0.1736865517146833
vn -0.9848009858613376 6.2482958697992156e-9 0.1736865517146833
vn 0.9396675921882843 -1.2306496979079392e-8 -0.3420889010053851
vn -0.9396675921882843 1.2306496979079392e-8 0.3420889010053851
vn 0.6427017134977463 -2.7560705769325774e-8 -0.7661165103736246
vn -0.6427017134977463 2.7560705769325774e-8 0.7661165103736246
vn 0.3419513326599958 -3.380593208341645e-8 -0.9397176629669423
vn -0.3419513326599958 3.380593208341645e-8 0.9397176629669423
vn 0.17360983881326442 -3.542827190563687e-8 -0.9848145124170496
vn -0.17360983881326442 3.542827190563687e-8 0.9848145124170496
vn 0 -3.5974563550311614e-8 -1
vn 0 3.5974563550311614e-8 1
vn -0.17360983881326192 -3.542827261879579e-8 -0.98481451241705
vn 0.17360983881326192 3.542827261879579e-8 0.98481451241705
vn -0.3419513326599937 -3.380593348809277e-8 -0.939717662966943
vn 0.3419513326599937 3.380593348809277e-8 0.939717662966943
usemtl material_0_0
f 1/1/1 2/2/1 3/3/1
f 2/2/1 1/1/1 4/4/1
f 2/2/1 4/4/1 5/5/1
f 5/5/1 4/4/1 6/6/1
f 5/5/1 6/6/1 7/7/1
f 7/7/1 6/6/1 8/8/1
f 8/8/1 6/6/1 9/9/1
f 9/9/1 6/6/1 10/10/1
f 9/9/1 10/10/1 11/11/1
f 11/11/1 10/10/1 12/12/1
f 12/12/1 10/10/1 13/13/1
f 12/12/1 13/13/1 14/14/1
f 14/14/1 13/13/1 15/15/1
f 14/14/1 15/15/1 16/16/1
f 16/16/1 15/15/1 17/17/1
f 16/16/1 17/17/1 18/18/1
f 18/18/1 17/17/1 19/19/1
f 18/18/1 19/19/1 20/20/1
f 20/20/1 19/19/1 21/21/1
f 20/20/1 21/21/1 22/22/1
f 22/22/1 21/21/1 23/23/1
f 23/23/1 21/21/1 24/24/1
f 23/23/1 24/24/1 25/25/1
f 25/25/1 24/24/1 26/26/1
f 25/25/1 26/26/1 27/27/1
f 27/27/1 26/26/1 28/28/1
f 27/27/1 28/28/1 29/29/1
f 29/29/1 28/28/1 30/30/1
f 29/29/1 30/30/1 31/31/1
f 31/31/1 30/30/1 32/32/1
f 31/31/1 32/32/1 33/33/1
f 33/33/1 32/32/1 34/34/1
f 33/33/1 34/34/1 35/35/1
f 35/35/1 34/34/1 36/36/1
f 36/36/1 34/34/1 37/37/1
f 36/36/1 37/37/1 38/38/1
f 7/7/1 39/39/1 5/5/1
f 39/39/1 7/7/1 40/40/1
f 39/39/1 40/40/1 41/41/1
f 39/39/1 41/41/1 42/42/1
f 42/42/1 41/41/1 43/43/1
f 42/42/1 43/43/1 44/44/1
f 42/42/1 44/44/1 45/45/1
f 45/45/1 44/44/1 46/46/1
f 45/45/1 46/46/1 47/47/1
f 47/47/1 46/46/1 48/48/1
f 47/47/1 48/48/1 49/49/1
f 49/49/1 48/48/1 50/50/1
f 49/49/1 50/50/1 51/51/1
f 51/51/1 50/50/1 52/52/1
f 51/51/1 52/52/1 53/53/1
f 53/53/1 52/52/1 54/54/1
f 53/53/1 54/54/1 55/55/1
f 55/55/1 54/54/1 56/56/1
f 55/55/1 56/56/1 57/57/1
f 55/55/1 57/57/1 58/58/1
f 58/58/1 57/57/1 59/59/1
f 58/58/1 59/59/1 60/60/1
f 60/60/1 59/59/1 61/61/1
f 60/60/1 61/61/1 62/62/1
f 62/62/1 61/61/1 63/63/1
f 62/62/1 63/63/1 64/64/1
f 64/64/1 63/63/1 65/65/1
f 64/64/1 65/65/1 66/66/1
f 66/66/1 65/65/1 67/67/1
f 66/66/1 67/67/1 68/68/1
f 66/66/1 68/68/1 69/69/1
f 69/69/1 68/68/1 38/38/1
f 69/69/1 38/38/1 37/37/1
f 69/69/1 37/37/1 70/70/1
f 69/69/1 70/70/1 71/71/1
f 71/71/1 70/70/1 72/72/1
f 73/72/2 74/70/2 75/71/2
f 75/71/2 74/70/2 76/69/2
f 74/70/2 77/37/2 76/69/2
f 77/37/2 78/38/2 76/69/2
f 78/38/2 79/68/2 76/69/2
f 76/69/2 79/68/2 80/66/2
f 79/68/2 81/67/2 80/66/2
f 81/67/2 82/65/2 80/66/2
f 80/66/2 82/65/2 83/64/2
f 82/65/2 84/63/2 83/64/2
f 83/64/2 84/63/2 85/62/2
f 84/63/2 86/61/2 85/62/2
f 85/62/2 86/61/2 87/60/2
f 86/61/2 88/59/2 87/60/2
f 87/60/2 88/59/2 89/58/2
f 88/59/2 90/57/2 89/58/2
f 89/58/2 90/57/2 91/55/2
f 90/57/2 92/56/2 91/55/2
f 92/56/2 93/54/2 91/55/2
f 91/55/2 93/54/2 94/53/2
f 93/54/2 95/52/2 94/53/2
f 94/53/2 95/52/2 96/51/2
f 95/52/2 97/50/2 96/51/2
f 96/51/2 97/50/2 98/49/2
f 97/50/2 99/48/2 98/49/2
f 98/49/2 99/48/2 100/47/2
f 99/48/2 101/46/2 100/47/2
f 100/47/2 101/46/2 102/45/2
f 101/46/2 103/44/2 102/45/2
f 102/45/2 103/44/2 104/42/2
f 103/44/2 105/43/2 104/42/2
f 105/43/2 106/41/2 104/42/2
f 104/42/2 106/41/2 107/39/2
f 106/41/2 108/40/2 107/39/2
f 108/40/2 109/7/2 107/39/2
f 110/5/2 107/39/2 109/7/2
f 78/38/2 77/37/2 111/36/2
f 77/37/2 112/34/2 111/36/2
f 111/36/2 112/34/2 113/35/2
f 113/35/2 112/34/2 114/33/2
f 112/34/2 115/32/2 114/33/2
f 114/33/2 115/32/2 116/31/2
f 115/32/2 117/30/2 116/31/2
f 116/31/2 117/30/2 118/29/2
f 117/30/2 119/28/2 118/29/2
f 118/29/2 119/28/2 120/27/2
f 119/28/2 121/26/2 120/27/2
f 120/27/2 121/26/2 122/25/2
f 121/26/2 123/24/2 122/25/2
f 122/25/2 123/24/2 124/23/2
f 123/24/2 125/21/2 124/23/2
f 124/23/2 125/21/2 126/22/2
f 126/22/2 125/21/2 127/20/2
f 125/21/2 128/19/2 127/20/2
f 127/20/2 128/19/2 129/18/2
f 128/19/2 130/17/2 129/18/2
f 129/18/2 130/17/2 131/16/2
f 130/17/2 132/15/2 131/16/2
f 131/16/2 132/15/2 133/14/2
f 132/15/2 134/13/2 133/14/2
f 133/14/2 134/13/2 135/12/2
f 134/13/2 136/10/2 135/12/2
f 135/12/2 136/10/2 137/11/2
f 137/11/2 136/10/2 138/9/2
f 136/10/2 139/6/2 138/9/2
f 138/9/2 139/6/2 140/8/2
f 140/8/2 139/6/2 109/7/2
f 109/7/2 139/6/2 110/5/2
f 139/6/2 141/4/2 110/5/2
f 110/5/2 141/4/2 142/2/2
f 141/4/2 143/1/2 142/2/2
f 144/3/2 142/2/2 143/1/2
f 145/73/3 146/74/4 147/75/3
f 146/74/4 145/73/3 148/76/4
f 149/76/5 150/73/6 151/74/5
f 152/75/6 151/74/5 150/73/6
f 153/77/7 145/78/3 147/79/3
f 145/78/3 153/77/7 154/80/7
f 155/80/8 156/77/8 150/78/6
f 152/79/6 150/78/6 156/77/8
f 157/81/9 154/82/7 153/83/7
f 154/82/7 157/81/9 158/84/9
f 159/84/10 160/81/10 155/82/8
f 156/83/8 155/82/8 160/81/10
f 161/85/11 158/86/9 157/87/9
f 158/86/9 161/85/11 162/88/11
f 163/88/12 164/85/12 159/86/10
f 160/87/10 159/86/10 164/85/12
f 165/89/13 162/90/11 161/91/11
f 162/90/11 165/89/13 166/92/13
f 167/92/14 168/89/14 163/90/12
f 164/91/12 163/90/12 168/89/14
f 165/93/13 169/94/15 166/95/13
f 169/94/15 165/93/13 170/96/15
f 171/96/16 168/93/14 172/94/16
f 167/95/14 172/94/16 168/93/14
f 173/97/17 169/98/15 170/99/15
f 169/98/15 173/97/17 174/100/17
f 175/100/18 176/97/18 172/98/16
f 171/99/16 172/98/16 176/97/18
f 177/101/19 174/102/17 173/103/17
f 174/102/17 177/101/19 178/104/19
f 179/104/20 180/101/20 175/102/18
f 176/103/18 175/102/18 180/101/20
f 181/105/21 178/106/19 177/107/19
f 178/106/19 181/105/21 182/108/21
f 183/108/22 184/105/22 179/106/20
f 180/107/20 179/106/20 184/105/22
f 185/109/23 182/110/21 181/111/21
f 182/110/21 185/109/23 186/112/23
f 187/112/24 188/109/24 183/110/22
f 184/111/22 183/110/22 188/109/24
f 189/113/25 185/114/23 190/115/25
f 185/114/23 189/113/25 186/116/23
f 187/116/24 191/113/26 188/114/24
f 192/115/26 188/114/24 191/113/26
f 193/109/27 189/110/25 190/111/25
f 189/110/25 193/109/27 194/112/27
f 195/112/28 196/109/28 191/110/26
f 192/111/26 191/110/26 196/109/28
f 197/105/29 194/106/27 193/107/27
f 194/106/27 197/105/29 198/108/29
f 199/108/30 200/105/30 195/106/28
f 196/107/28 195/106/28 200/105/30
f 201/101/31 198/102/29 197/103/29
f 198/102/29 201/101/31 202/104/31
f 203/104/32 204/101/32 199/102/30
f 200/103/30 199/102/30 204/101/32
f 205/97/33 202/98/31 201/99/31
f 202/98/31 205/97/33 206/100/33
f 207/100/34 208/97/34 203/98/32
f 204/99/32 203/98/32 208/97/34
f 209/117/35 206/118/33 205/119/33
f 206/118/33 209/117/35 210/120/35
f 211/120/36 212/117/36 207/118/34
f 208/119/34 207/118/34 212/117/36
f 213/121/37 209/122/35 214/123/37
f 209/122/35 213/121/37 210/124/35
f 211/124/36 215/121/38 212/122/36
f 216/123/38 212/122/36 215/121/38
f 217/125/5 214/126/37 218/127/5
f 214/126/37 217/125/5 213/128/37
f 215/128/38 219/125/4 216/126/38
f 220/127/4 216/126/38 219/125/4
f 221/129/39 218/130/5 222/131/39
f 218/130/5 221/129/39 217/132/5
f 219/132/4 223/129/40 220/130/4
f 224/131/40 220/130/4 223/129/40
f 225/133/41 222/134/39 226/135/41
f 222/134/39 225/133/41 221/136/39
f 223/136/40 227/133/42 224/134/40
f 228/135/42 224/134/40 227/133/42
f 229/137/43 226/138/41 230/139/43
f 226/138/41 229/137/43 225/140/41
f 227/140/42 231/137/44 228/138/42
f 232/139/44 228/138/42 231/137/44
f 229/141/43 233/142/45 234/143/45
f 233/142/45 229/141/43 230/144/43
f 232/144/44 231/141/44 235/142/46
f 236/143/46 235/142/46 231/141/44
f 234/145/45 237/146/47 238/147/47
f 237/146/47 234/145/45 233/148/45
f 235/148/46 236/145/46 239/146/48
f 240/147/48 239/146/48 236/145/46
f 238/149/47 241/150/16 242/151/16
f 241/150/16 238/149/47 237/152/47
f 239/152/48 240/149/48 243/150/15
f 244/151/15 243/150/15 240/149/48
f 242/153/16 245/154/49 246/155/49
f 245/154/49 242/153/16 241/156/16
f 243/156/15 244/153/15 247/154/50
f 248/155/50 247/154/50 244/153/15
f 249/157/51 245/158/49 250/159/51
f 245/158/49 249/157/51 246/160/49
f 248/160/50 251/157/52 247/158/50
f 252/159/52 247/158/50 251/157/52
f 253/161/22 250/162/51 254/163/22
f 250/162/51 253/161/22 249/164/51
f 251/164/52 255/161/21 252/162/52
f 256/163/21 252/162/52 255/161/21
f 257/165/24 254/166/22 258/167/24
f 254/166/22 257/165/24 253/168/22
f 255/168/21 259/165/23 256/166/21
f 260/167/23 256/166/21 259/165/23
f 261/169/53 258/170/24 262/171/53
f 258/170/24 261/169/53 257/172/24
f 259/172/23 263/169/54 260/170/23
f 264/171/54 260/170/23 263/169/54
f 265/167/28 261/168/53 262/166/53
f 261/168/53 265/167/28 266/165/28
f 267/165/27 268/167/27 263/168/54
f 264/166/54 263/168/54 268/167/27
f 269/161/55 265/162/28 270/163/55
f 265/162/28 269/161/55 266/164/28
f 267/164/27 271/161/56 268/162/27
f 272/163/56 268/162/27 271/161/56
f 273/157/57 270/158/55 274/159/57
f 270/158/55 273/157/57 269/160/55
f 271/160/56 275/157/58 272/158/56
f 276/159/58 272/158/56 275/157/58
f 277/154/59 273/153/57 274/156/57
f 273/153/57 277/154/59 278/155/59
f 279/155/60 280/154/60 275/153/58
f 276/156/58 275/153/58 280/154/60
f 281/173/61 277/174/59 282/175/61
f 277/174/59 281/173/61 278/176/59
f 279/176/60 283/173/62 280/174/60
f 284/175/62 280/174/60 283/173/62
f 285/177/63 282/178/61 286/179/63
f 282/178/61 285/177/63 281/180/61
f 283/180/62 287/177/64 284/178/62
f 288/179/64 284/178/62 287/177/64
f 146/181/4 285/182/63 286/183/63
f 285/182/63 146/181/4 148/184/4
f 149/184/5 151/181/5 287/182/64
f 288/183/64 287/182/64 151/181/5
