# SSTK version 0.8.0
# 97
mtllib original-97.mtl
o group_26/ID414#ID414
v -0.13962944 0.93688666 0.10292409
v -0.13964932 0.93695006 0.02191246
v -0.14489703 0.93677001 0.06248025
v -0.12404055 0.93681569 0.14068525
v -0.12401900 0.93694855 -0.01580539
v -0.09911521 0.93686742 0.17300071
v -0.09907252 0.93689088 -0.04813290
v -0.06671808 0.93687885 0.19781747
v -0.06670037 0.93685963 -0.07300906
v -0.02909286 0.93681509 0.21341505
v -0.02899965 0.93691536 -0.08880259
v 0.01151032 0.93686161 0.21876311
v 0.01136966 0.93677131 -0.09405858
v 0.05192061 0.93686151 0.21341057
v 0.05187123 0.93683741 -0.08881213
v 0.08965202 0.93690778 0.19797233
v 0.08958544 0.93681914 -0.07316403
v 0.12209957 0.93687170 0.17294735
v 0.12204271 0.93681854 -0.04823687
v 0.14703038 0.93676990 0.14071268
v 0.14699881 0.93688854 -0.01582590
v 0.16246621 0.93695828 0.10290615
v 0.16246140 0.93693211 0.02198121
v 0.16797571 0.93685080 0.06246373
v 0.16798713 0.93684099 0.06232181
v 0.16247016 0.93694611 0.10285687
v 0.16259798 0.93682431 0.02191837
v 0.14683702 0.93689553 -0.01591702
v 0.14693855 0.93690528 0.14059399
v 0.12211197 0.93678994 -0.04832276
v 0.12205938 0.93677983 0.17311200
v 0.08970100 0.93692370 -0.07304070
v 0.08965214 0.93676627 0.19796286
v 0.05185376 0.93681375 -0.08878363
v 0.05184985 0.93678883 0.21353712
v 0.01136994 0.93692800 -0.09400858
v 0.01151231 0.93693983 0.21881804
v -0.02895720 0.93688397 -0.08863744
v -0.02898209 0.93692716 0.21356797
v -0.06684040 0.93682825 -0.07301832
v -0.06679620 0.93692721 0.19781689
v -0.09909591 0.93684713 -0.04820801
v -0.09925235 0.93686106 0.17293336
v -0.12408481 0.93681813 -0.01577650
v -0.12393253 0.93676565 0.14054031
v -0.13957648 0.93680169 0.02181506
v -0.13962904 0.93690783 0.10284614
v -0.14502172 0.93686068 0.06237071
v 0.08976028 0.93694197 0.19794010
v 0.05204176 0.68660909 0.21354392
v 0.08960043 0.68651239 0.19781380
v 0.05184775 0.93684572 0.21354753
v 0.05202139 0.93681651 0.21343277
v 0.08959299 0.93677957 0.19779101
v 0.05192827 0.68651657 0.21358409
v 0.08961141 0.68654438 0.19796654
v 0.12198748 0.93683678 0.17298428
v 0.12199665 0.68651970 0.17293233
v 0.12212785 0.93689302 0.17298585
v 0.12199407 0.68648039 0.17301856
v 0.14691689 0.68661385 0.14066564
v 0.14696168 0.93689938 0.14052142
v 0.14700551 0.93680200 0.14061837
v 0.14695552 0.68664679 0.14061648
v 0.16261557 0.68664625 0.10294986
v 0.16260186 0.93692022 0.10281688
v 0.16256381 0.93689889 0.10284648
v 0.16249719 0.68654381 0.10279373
v 0.16793045 0.68648179 0.06245826
v 0.16789215 0.93696364 0.06243777
v 0.16789478 0.93678020 0.06248951
v 0.16793815 0.68661490 0.06238993
v 0.16254391 0.68649790 0.02183209
v 0.16259489 0.93687631 0.02194252
v 0.16253596 0.93682268 0.02192594
v 0.16251278 0.68657938 0.02181019
v 0.14684801 0.68646963 -0.01577636
v 0.14687736 0.93689416 -0.01589165
v 0.14703042 0.93683357 -0.01585571
v 0.14684148 0.68647013 -0.01580443
v 0.12204014 0.68658787 -0.04831610
v 0.12213248 0.93689636 -0.04832327
v 0.12201193 0.93679734 -0.04827111
v 0.12208162 0.68653030 -0.04828778
v 0.08960657 0.93690702 -0.07313972
v 0.08961142 0.68662961 -0.07301690
v 0.08959152 0.93689971 -0.07314883
v 0.08965134 0.68651011 -0.07311170
v 0.05198289 0.93689814 -0.08863773
v 0.05195950 0.68654205 -0.08881284
v 0.05194508 0.93689814 -0.08866750
v 0.05203105 0.68659110 -0.08880765
v 0.01153304 0.93695883 -0.09395525
v 0.01139151 0.68656184 -0.09395928
v 0.01149899 0.93684757 -0.09411806
v 0.01147917 0.68656176 -0.09396383
v -0.02900405 0.93694991 -0.08880948
v -0.02895600 0.68661429 -0.08868878
v -0.02902768 0.93689142 -0.08863132
v -0.02896430 0.68657547 -0.08863064
v -0.06684330 0.93687651 -0.07300295
v -0.06685696 0.68647837 -0.07308527
v -0.06666810 0.93692676 -0.07308004
v -0.06678302 0.68663972 -0.07318215
v -0.09917660 0.93694460 -0.04813837
v -0.09919862 0.68653847 -0.04816227
v -0.09914322 0.93686687 -0.04828376
v -0.09913581 0.68655702 -0.04818946
v -0.12394071 0.68646993 -0.01585480
v -0.12398843 0.93686754 -0.01581618
v -0.12395605 0.68652711 -0.01576880
v -0.12400535 0.93685682 -0.01579759
v -0.13967043 0.68648475 0.02190039
v -0.13969204 0.93686819 0.02200445
v -0.13962617 0.68664516 0.02182620
v -0.13955961 0.93695101 0.02197814
v -0.14507667 0.68647483 0.06242637
v -0.14502998 0.93696060 0.06249486
v -0.14508517 0.68661101 0.06231401
v -0.14499184 0.93681085 0.06234073
v -0.13956372 0.68655024 0.10280479
v -0.13975410 0.93684371 0.10292005
v -0.13969724 0.68658735 0.10283174
v -0.13969311 0.93676596 0.10282603
v -0.12408003 0.68658894 0.14060973
v -0.12406561 0.93678526 0.14064883
v -0.12401929 0.68654852 0.14070673
v -0.12393661 0.93684556 0.14068634
v -0.09922853 0.68661290 0.17291951
v -0.09926669 0.93691343 0.17294978
v -0.09908300 0.68662621 0.17305926
v -0.09914827 0.93687608 0.17295563
v -0.06672710 0.93691666 0.19780884
v -0.06678745 0.68648311 0.19796789
v -0.06674547 0.93685179 0.19785216
v -0.06684897 0.68656896 0.19784576
v -0.02905496 0.93681377 0.21344538
v -0.02900106 0.68648786 0.21340897
v -0.02897043 0.93677148 0.21356450
v -0.02907804 0.68660201 0.21342190
v 0.01136900 0.93694993 0.21891849
v 0.01135666 0.68646436 0.21892412
v 0.01144232 0.93687072 0.21885401
v 0.01140668 0.68659281 0.21880506
v -0.13969630 0.68659138 0.02185966
v -0.13973482 0.68659080 0.10287205
v -0.14498050 0.68656459 0.06235383
v -0.12393283 0.68661945 0.14067519
v -0.12410313 0.68662657 -0.01582104
v -0.09912606 0.68646337 0.17300707
v -0.09907911 0.68654659 -0.04813910
v -0.06668353 0.68656770 0.19791445
v -0.06679781 0.68654500 -0.07312649
v -0.02911261 0.68651091 0.21356472
v -0.02911759 0.68654625 -0.08871304
v 0.01150178 0.68663916 0.21882777
v 0.01140142 0.68648064 -0.09398584
v 0.05194753 0.68659537 0.21350084
v 0.05200316 0.68662704 -0.08875106
v 0.08967021 0.68651360 0.19780384
v 0.08975335 0.68646830 -0.07303775
v 0.12204641 0.68659978 0.17305102
v 0.12208616 0.68665711 -0.04826944
v 0.14690999 0.68646869 0.14067979
v 0.14702490 0.68658079 -0.01591862
v 0.16249300 0.68653745 0.10286365
v 0.16260221 0.68660742 0.02193489
v 0.16793636 0.68657295 0.06243700
v 0.16796510 0.68654749 0.06245758
v 0.16253520 0.68660322 0.02186579
v 0.16252635 0.68661191 0.10291005
v 0.14687814 0.68658990 -0.01576407
v 0.14689191 0.68647744 0.14059930
v 0.12209095 0.68658581 -0.04831618
v 0.12197225 0.68651987 0.17298456
v 0.08961700 0.68650437 -0.07307729
v 0.08966946 0.68655307 0.19785185
v 0.05203746 0.68648219 -0.08869671
v 0.05191047 0.68651265 0.21353393
v 0.01142822 0.68664031 -0.09410653
v 0.01139780 0.68652075 0.21882209
v -0.02897291 0.68649826 -0.08876951
v -0.02907738 0.68662786 0.21354034
v -0.06683818 0.68647327 -0.07305785
v -0.06667594 0.68652107 0.19794088
v -0.09922121 0.68665916 -0.04814818
v -0.09911485 0.68664868 0.17304713
v -0.12405885 0.68646724 -0.01580721
v -0.12403313 0.68653847 0.14052158
v -0.13961905 0.68663619 0.02190854
v -0.13956221 0.68659635 0.10295438
v -0.14500241 0.68662493 0.06240298
vt -0.126998 0.3236771
vt -0.126998 0.6535942
vt -0.1487152 0.4886356
vt -0.06332638 0.1699602
vt -0.06332638 0.8073111
vt 0.03796054 0.03796054
vt 0.03796054 0.9393108
vt 0.1699602 -0.06332638
vt 0.1699602 1.040598
vt 0.3236771 -0.126998
vt 0.3236771 1.104269
vt 0.4886356 -0.1487152
vt 0.4886356 1.125986
vt 0.6535942 -0.126998
vt 0.6535942 1.104269
vt 0.8073111 -0.06332638
vt 0.8073111 1.040598
vt 0.9393108 0.03796054
vt 0.9393108 0.9393108
vt 1.040598 0.1699602
vt 1.040598 0.8073111
vt 1.104269 0.3236771
vt 1.104269 0.6535942
vt 1.125986 0.4886356
vt 0.7216242 1.019761
vt 0.5552423 9.585643e-16
vt 0.7216242 9.585643e-16
vt 0.5552423 1.019761
vt 0.7683142 1.019761
vt 0.6019323 9.585643e-16
vt 0.7683142 9.585643e-16
vt 0.6019323 1.019761
vt 0.631426 9.585643e-16
vt 0.4650441 1.019761
vt 0.4650441 9.585643e-16
vt 0.631426 1.019761
vt 0.5038665 9.585643e-16
vt 0.3374846 1.019761
vt 0.3374846 9.585643e-16
vt 0.5038665 1.019761
vt 0.3476387 9.585643e-16
vt 0.1812567 1.019761
vt 0.1812567 9.585643e-16
vt 0.3476387 1.019761
vt 0.1733892 9.585643e-16
vt 0.007007209 1.019761
vt 0.007007209 9.585643e-16
vt 0.1733892 1.019761
vt -0.007007209 1.019761
vt -0.1733892 9.585643e-16
vt -0.007007209 9.585643e-16
vt -0.1733892 1.019761
vt -0.1812567 1.019761
vt -0.3476387 9.585643e-16
vt -0.1812567 9.585643e-16
vt -0.3476387 1.019761
vt -0.3374846 1.019761
vt -0.5038665 9.585643e-16
vt -0.3374846 9.585643e-16
vt -0.5038665 1.019761
vt -0.4650441 1.019761
vt -0.631426 9.585643e-16
vt -0.4650441 9.585643e-16
vt -0.631426 1.019761
vt -0.5552423 1.019761
vt -0.7216242 9.585643e-16
vt -0.5552423 9.585643e-16
vt -0.7216242 1.019761
vt -0.6019323 1.019761
vt -0.7683142 9.585643e-16
vt -0.6019323 9.585643e-16
vt -0.7683142 1.019761
vt 0.126998 0.6535942
vt 0.126998 0.3236771
vt 0.1487152 0.4886356
vt 0.06332638 0.1699602
vt 0.06332638 0.8073111
vt -0.03796054 0.03796054
vt -0.03796054 0.9393108
vt -0.1699602 -0.06332638
vt -0.1699602 1.040598
vt -0.3236771 -0.126998
vt -0.3236771 1.104269
vt -0.4886356 -0.1487152
vt -0.4886356 1.125986
vt -0.6535942 -0.126998
vt -0.6535942 1.104269
vt -0.8073111 -0.06332638
vt -0.8073111 1.040598
vt -0.9393108 0.03796054
vt -0.9393108 0.9393108
vt -1.040598 0.1699602
vt -1.040598 0.8073111
vt -1.104269 0.3236771
vt -1.104269 0.6535942
vt -1.125986 0.4886356
vn 0 1 0
vn 0 -1 0
vn 0.5000000016387101 0 0.866025402838329
vn 0.25881900959356163 0 0.9659258358036645
vn -0.25881900959356163 0 -0.9659258358036645
vn -0.5000000016387101 0 -0.866025402838329
vn 0.7071067811865476 0 0.7071067811865476
vn -0.7071067811865476 0 -0.7071067811865476
vn 0.866025402838329 0 0.5000000016387101
vn -0.866025402838329 0 -0.5000000016387101
vn 0.9659258358036645 0 0.25881900959356163
vn -0.9659258358036645 0 -0.25881900959356163
vn 1 0 0
vn -1 0 0
vn 0.9659258358036645 0 -0.25881900959356163
vn -0.9659258358036645 0 0.25881900959356163
vn 0.866025402838329 0 -0.5000000016387101
vn -0.866025402838329 0 0.5000000016387101
vn 0.7071067811865476 0 -0.7071067811865476
vn -0.7071067811865476 0 0.7071067811865476
vn 0.5000000016387101 0 -0.866025402838329
vn -0.5000000016387101 0 0.866025402838329
vn 0.25881900959356163 0 -0.9659258358036645
vn -0.25881900959356163 0 0.9659258358036645
vn 0 0 -1
vn 0 0 1
usemtl material_0_0
f 1/1/1 2/2/1 3/3/1
f 2/2/1 1/1/1 4/4/1
f 2/2/1 4/4/1 5/5/1
f 5/5/1 4/4/1 6/6/1
f 5/5/1 6/6/1 7/7/1
f 7/7/1 6/6/1 8/8/1
f 7/7/1 8/8/1 9/9/1
f 9/9/1 8/8/1 10/10/1
f 9/9/1 10/10/1 11/11/1
f 11/11/1 10/10/1 12/12/1
f 11/11/1 12/12/1 13/13/1
f 13/13/1 12/12/1 14/14/1
f 13/13/1 14/14/1 15/15/1
f 15/15/1 14/14/1 16/16/1
f 15/15/1 16/16/1 17/17/1
f 17/17/1 16/16/1 18/18/1
f 17/17/1 18/18/1 19/19/1
f 19/19/1 18/18/1 20/20/1
f 19/19/1 20/20/1 21/21/1
f 21/21/1 20/20/1 22/22/1
f 21/21/1 22/22/1 23/23/1
f 23/23/1 22/22/1 24/24/1
f 25/24/2 26/22/2 27/23/2
f 27/23/2 26/22/2 28/21/2
f 26/22/2 29/20/2 28/21/2
f 28/21/2 29/20/2 30/19/2
f 29/20/2 31/18/2 30/19/2
f 30/19/2 31/18/2 32/17/2
f 31/18/2 33/16/2 32/17/2
f 32/17/2 33/16/2 34/15/2
f 33/16/2 35/14/2 34/15/2
f 34/15/2 35/14/2 36/13/2
f 35/14/2 37/12/2 36/13/2
f 36/13/2 37/12/2 38/11/2
f 37/12/2 39/10/2 38/11/2
f 38/11/2 39/10/2 40/9/2
f 39/10/2 41/8/2 40/9/2
f 40/9/2 41/8/2 42/7/2
f 41/8/2 43/6/2 42/7/2
f 42/7/2 43/6/2 44/5/2
f 43/6/2 45/4/2 44/5/2
f 44/5/2 45/4/2 46/2/2
f 45/4/2 47/1/2 46/2/2
f 48/3/2 46/2/2 47/1/2
f 49/25/3 50/26/4 51/27/3
f 50/26/4 49/25/3 52/28/4
f 53/28/5 54/25/6 55/26/5
f 56/27/6 55/26/5 54/25/6
f 57/29/7 51/30/3 58/31/7
f 51/30/3 57/29/7 49/32/3
f 54/32/6 59/29/8 56/30/6
f 60/31/8 56/30/6 59/29/8
f 61/31/9 57/32/7 58/30/7
f 57/32/7 61/31/9 62/29/9
f 63/29/10 64/31/10 59/32/8
f 60/30/8 59/32/8 64/31/10
f 65/27/11 62/28/9 61/26/9
f 62/28/9 65/27/11 66/25/11
f 67/25/12 68/27/12 63/28/10
f 64/26/10 63/28/10 68/27/12
f 69/33/13 66/34/11 65/35/11
f 66/34/11 69/33/13 70/36/13
f 71/36/14 72/33/14 67/34/12
f 68/35/12 67/34/12 72/33/14
f 73/37/15 70/38/13 69/39/13
f 70/38/13 73/37/15 74/40/15
f 75/40/16 76/37/16 71/38/14
f 72/39/14 71/38/14 76/37/16
f 77/41/17 74/42/15 73/43/15
f 74/42/15 77/41/17 78/44/17
f 79/44/18 80/41/18 75/42/16
f 76/43/16 75/42/16 80/41/18
f 81/45/19 78/46/17 77/47/17
f 78/46/17 81/45/19 82/48/19
f 83/48/20 84/45/20 79/46/18
f 80/47/18 79/46/18 84/45/20
f 85/49/21 81/50/19 86/51/21
f 81/50/19 85/49/21 82/52/19
f 83/52/20 87/49/22 84/50/20
f 88/51/22 84/50/20 87/49/22
f 89/53/23 86/54/21 90/55/23
f 86/54/21 89/53/23 85/56/21
f 87/56/22 91/53/24 88/54/22
f 92/55/24 88/54/22 91/53/24
f 93/57/25 90/58/23 94/59/25
f 90/58/23 93/57/25 89/60/23
f 91/60/24 95/57/26 92/58/24
f 96/59/26 92/58/24 95/57/26
f 97/61/5 94/62/25 98/63/5
f 94/62/25 97/61/5 93/64/25
f 95/64/26 99/61/4 96/62/26
f 100/63/4 96/62/26 99/61/4
f 101/65/6 98/66/5 102/67/6
f 98/66/5 101/65/6 97/68/5
f 99/68/4 103/65/3 100/66/4
f 104/67/3 100/66/4 103/65/3
f 105/69/8 102/70/6 106/71/8
f 102/70/6 105/69/8 101/72/6
f 103/72/3 107/69/7 104/70/3
f 108/71/7 104/70/3 107/69/7
f 105/72/8 109/71/10 110/69/10
f 109/71/10 105/72/8 106/70/8
f 108/70/7 107/72/7 111/71/9
f 112/69/9 111/71/9 107/72/7
f 110/68/10 113/67/12 114/65/12
f 113/67/12 110/68/10 109/66/10
f 111/66/9 112/68/9 115/67/11
f 116/65/11 115/67/11 112/68/9
f 114/64/12 117/63/14 118/61/14
f 117/63/14 114/64/12 113/62/12
f 115/62/11 116/64/11 119/63/13
f 120/61/13 119/63/13 116/64/11
f 118/60/14 121/59/16 122/57/16
f 121/59/16 118/60/14 117/58/14
f 119/58/13 120/60/13 123/59/15
f 124/57/15 123/59/15 120/60/13
f 122/56/16 125/55/18 126/53/18
f 125/55/18 122/56/16 121/54/16
f 123/54/15 124/56/15 127/55/17
f 128/53/17 127/55/17 124/56/15
f 126/52/18 129/51/20 130/49/20
f 129/51/20 126/52/18 125/50/18
f 127/50/17 128/52/17 131/51/19
f 132/49/19 131/51/19 128/52/17
f 133/48/22 129/47/20 134/45/22
f 129/47/20 133/48/22 130/46/20
f 132/46/19 135/48/21 131/47/19
f 136/45/21 131/47/19 135/48/21
f 137/44/24 134/43/22 138/41/24
f 134/43/22 137/44/24 133/42/22
f 135/42/21 139/44/23 136/43/21
f 140/41/23 136/43/21 139/44/23
f 141/40/26 138/39/24 142/37/26
f 138/39/24 141/40/26 137/38/24
f 139/38/23 143/40/25 140/39/23
f 144/37/25 140/39/23 143/40/25
f 52/36/4 142/35/26 50/33/4
f 142/35/26 52/36/4 141/34/26
f 143/34/25 53/36/5 144/35/25
f 55/33/5 144/35/25 53/36/5
f 145/73/2 146/74/2 147/75/2
f 146/74/2 145/73/2 148/76/2
f 148/76/2 145/73/2 149/77/2
f 148/76/2 149/77/2 150/78/2
f 150/78/2 149/77/2 151/79/2
f 150/78/2 151/79/2 152/80/2
f 152/80/2 151/79/2 153/81/2
f 152/80/2 153/81/2 154/82/2
f 154/82/2 153/81/2 155/83/2
f 154/82/2 155/83/2 156/84/2
f 156/84/2 155/83/2 157/85/2
f 156/84/2 157/85/2 158/86/2
f 158/86/2 157/85/2 159/87/2
f 158/86/2 159/87/2 160/88/2
f 160/88/2 159/87/2 161/89/2
f 160/88/2 161/89/2 162/90/2
f 162/90/2 161/89/2 163/91/2
f 162/90/2 163/91/2 164/92/2
f 164/92/2 163/91/2 165/93/2
f 164/92/2 165/93/2 166/94/2
f 166/94/2 165/93/2 167/95/2
f 166/94/2 167/95/2 168/96/2
f 169/96/1 170/95/1 171/94/1
f 170/95/1 172/93/1 171/94/1
f 171/94/1 172/93/1 173/92/1
f 172/93/1 174/91/1 173/92/1
f 173/92/1 174/91/1 175/90/1
f 174/91/1 176/89/1 175/90/1
f 175/90/1 176/89/1 177/88/1
f 176/89/1 178/87/1 177/88/1
f 177/88/1 178/87/1 179/86/1
f 178/87/1 180/85/1 179/86/1
f 179/86/1 180/85/1 181/84/1
f 180/85/1 182/83/1 181/84/1
f 181/84/1 182/83/1 183/82/1
f 182/83/1 184/81/1 183/82/1
f 183/82/1 184/81/1 185/80/1
f 184/81/1 186/79/1 185/80/1
f 185/80/1 186/79/1 187/78/1
f 186/79/1 188/77/1 187/78/1
f 187/78/1 188/77/1 189/76/1
f 188/77/1 190/73/1 189/76/1
f 189/76/1 190/73/1 191/74/1
f 192/75/1 191/74/1 190/73/1
