# SSTK version 0.8.0
# 63
mtllib original-63.mtl
o #ID111
v 0.11823891 0.61812078 0.26103758
v 0.12169413 0.62397945 0.27654003
v 0.12181809 0.61818312 0.27658590
v 0.11827468 0.62396438 0.26113947
v 0.11831650 0.62401898 0.26113718
v 0.11835751 0.61817454 0.26106911
v 0.12186091 0.62400657 0.27653612
v 0.12178787 0.61809353 0.27658021
v 0.11828426 0.62395200 0.26116723
v 0.13120069 0.61818187 0.27004805
v 0.13132065 0.62390849 0.27008917
v 0.11821712 0.61803714 0.26119812
v 0.11828582 0.61810094 0.26121745
v 0.11831158 0.62391140 0.26121470
v 0.13123373 0.61802613 0.27015016
v 0.13132778 0.62404803 0.27002713
v 0.12178866 0.62406114 0.27651542
v 0.13136689 0.61819351 0.27016051
v 0.12180286 0.61817364 0.27647117
v 0.13131283 0.62398246 0.27013599
v 0.13122230 0.62391760 0.27018470
v 0.12172197 0.62396420 0.27656823
v 0.13117711 0.61818486 0.27021690
v 0.12185331 0.61810555 0.27644664
vt 0.1890611 0
vt 0.1080685 0.04249006
vt 0.1080685 0
vt 0.1890611 0.04249006
vt -0.1120587 0.04249006
vt -0.03112959 0
vt -0.03112959 0.04249006
vt -0.1120587 0
vt -0.07672718 0.04249006
vt -0.1355149 0
vt -0.07672718 0
vt -0.1355149 0.04249006
vn 0.9757003992036916 -7.882346456408214e-9 -0.21910894777200904
vn -0.9757003992036916 7.882346456408214e-9 0.21910894777200904
vn -0.5701865529268627 2.9553650975440275e-8 0.8215152432312994
vn 0.5701865529268627 -2.9553650975440275e-8 -0.8215152432312994
vn -0.5591053552757159 -2.982639029108208e-8 -0.8290966178329366
vn 0.5591053552757159 2.982639029108208e-8 0.8290966178329366
usemtl material_0_0
f 1/1/1 2/2/1 3/3/1
f 2/2/1 1/1/1 4/4/1
f 5/4/2 6/1/2 7/2/2
f 8/3/2 7/2/2 6/1/2
f 9/5/3 10/6/3 11/7/3
f 10/6/3 9/5/3 12/8/3
f 13/8/4 14/5/4 15/6/4
f 16/7/4 15/6/4 14/5/4
f 17/9/5 18/10/5 19/11/5
f 18/10/5 17/9/5 20/12/5
f 21/12/6 22/9/6 23/10/6
f 24/11/6 23/10/6 22/9/6
