# SSTK version 0.8.0
# 4
mtllib original-4.mtl
o #ID21
v 0.25528448 0.21341833 -0.65466192
v 0.25968802 0.30033926 -0.65453722
v 0.26120218 0.25679984 -0.65463553
v 0.25038032 0.34300597 -0.65455158
v 0.24195066 0.17197372 -0.65459808
v 0.23394589 0.38337500 -0.65467695
v 0.22158480 0.13342257 -0.65454113
v 0.22368405 0.25854590 -0.65470579
v 0.21850859 0.22189645 -0.65457136
v 0.19473655 0.09905171 -0.65455758
v 0.20721831 0.18665054 -0.65461521
v 0.18984551 0.15376942 -0.65462112
v 0.16251901 0.06973100 -0.65457715
v 0.16725811 0.12464909 -0.65457763
v 0.13964378 0.09975106 -0.65463556
v 0.12560303 0.04647395 -0.65466587
v 0.10827868 0.08008616 -0.65452539
v 0.08516442 0.03010051 -0.65461620
v 0.07410078 0.06598039 -0.65470590
v 0.04260234 0.02081589 -0.65461904
v 0.03780841 0.05815491 -0.65454944
v -0.00107699 0.01926123 -0.65468170
v 0.00079965 0.05675561 -0.65467905
v -0.03596418 0.06183987 -0.65458731
v -0.04425402 0.02515589 -0.65468686
v -0.07111379 0.07321936 -0.65470816
v -0.08584892 0.03858706 -0.65459018
v -0.10393033 0.09053676 -0.65468684
v -0.12444273 0.05885794 -0.65468841
v -0.13327262 0.11336643 -0.65452634
v -0.15876576 0.08561918 -0.65467658
v -0.15795236 0.14081285 -0.65465200
v -0.17770236 0.17211563 -0.65461635
v -0.18799770 0.11806975 -0.65458468
v -0.19178097 0.20646486 -0.65457916
v -0.21136124 0.15489344 -0.65468346
v -0.19957303 0.24269624 -0.65469018
v -0.20094195 0.27970976 -0.65466808
v 0.22221734 0.29563050 -0.65462459
v 0.21079408 0.42020095 -0.65453267
v 0.21444050 0.33183339 -0.65455035
v 0.20044310 0.36611064 -0.65464829
v 0.18142469 0.45258998 -0.65457056
v 0.18076850 0.39747131 -0.65461001
v 0.14701387 0.47940583 -0.65454131
v 0.15583729 0.42489643 -0.65461123
v 0.12653851 0.44765541 -0.65467074
v 0.10841089 0.49963209 -0.65462570
v 0.09392176 0.46495389 -0.65465043
v 0.06688970 0.51300707 -0.65468673
v 0.05859491 0.47626728 -0.65463284
v 0.02374659 0.51895601 -0.65463211
v 0.02184394 0.48131699 -0.65463144
v -0.01983947 0.51744002 -0.65465301
v -0.01509701 0.48004123 -0.65468981
v -0.05144091 0.47209399 -0.65462544
v -0.06241745 0.50824734 -0.65461875
v -0.08569174 0.45822480 -0.65459506
v -0.10275855 0.49180355 -0.65457922
v -0.11698409 0.43845382 -0.65456080
v -0.13975898 0.46843770 -0.65468978
v -0.14452139 0.41370080 -0.65462500
v -0.17215446 0.43918896 -0.65457320
v -0.16726544 0.38439173 -0.65466022
v -0.18455349 0.35156568 -0.65459452
v -0.19881310 0.40479969 -0.65470658
v -0.19589130 0.31629354 -0.65462801
v -0.21918641 0.36631685 -0.65455367
v -0.22770820 0.19532904 -0.65454972
v -0.23251156 0.32482451 -0.65466993
v -0.23685140 0.23798359 -0.65460682
v -0.23853732 0.28143977 -0.65457236
v -0.23859169 0.28150246 -0.65464557
v -0.23688272 0.23786278 -0.65464091
v -0.23256025 0.32466530 -0.65462478
v -0.22769508 0.19526224 -0.65467375
v -0.21920070 0.36632989 -0.65469978
v -0.21127988 0.15497923 -0.65462021
v -0.20096936 0.27957490 -0.65464427
v -0.19890676 0.40486037 -0.65458100
v -0.19594242 0.31640387 -0.65469413
v -0.18447266 0.35169096 -0.65452856
v -0.17202683 0.43929316 -0.65463616
v -0.16725360 0.38431015 -0.65467319
v -0.14451851 0.41357238 -0.65466293
v -0.13977538 0.46845608 -0.65461752
v -0.11692446 0.43858286 -0.65469297
v -0.10276621 0.49179999 -0.65461665
v -0.08567229 0.45815650 -0.65470407
v -0.06243196 0.50827457 -0.65466186
v -0.05127894 0.47227554 -0.65455899
v -0.01978113 0.51743175 -0.65466178
v -0.01516552 0.48001179 -0.65456970
v 0.02186138 0.48136698 -0.65470694
v 0.02385223 0.51905989 -0.65453264
v 0.05851133 0.47637172 -0.65451729
v 0.06688335 0.51298063 -0.65463701
v 0.09389368 0.46499910 -0.65465509
v 0.10858191 0.49968312 -0.65452835
v 0.12657579 0.44764626 -0.65470316
v 0.14696265 0.47924553 -0.65458867
v 0.15581473 0.42503512 -0.65463877
v 0.18077322 0.39752587 -0.65461920
v 0.18154981 0.45257002 -0.65465738
v 0.20048658 0.36608379 -0.65468771
v 0.21078247 0.42024133 -0.65464608
v 0.21450938 0.33189354 -0.65468640
v 0.22219021 0.29560175 -0.65452194
v 0.22366096 0.25852211 -0.65456115
v 0.23390308 0.38332547 -0.65464429
v -0.19962648 0.24258020 -0.65454905
v -0.19173278 0.20646253 -0.65469505
v -0.18807121 0.11797523 -0.65456748
v -0.17768917 0.17219421 -0.65468615
v -0.15889299 0.08573693 -0.65454448
v -0.15795636 0.14066881 -0.65466237
v -0.13320246 0.11339096 -0.65464630
v -0.12426974 0.05892539 -0.65458890
v -0.10401618 0.09054061 -0.65461068
v -0.08574477 0.03863480 -0.65466409
v -0.07125577 0.07334770 -0.65467435
v -0.04419237 0.02507892 -0.65466039
v -0.03591080 0.06186676 -0.65453064
v -0.00111523 0.01922544 -0.65455184
v 0.00087443 0.05685465 -0.65453938
v 0.03789687 0.05834285 -0.65466423
v 0.04260675 0.02087521 -0.65459322
v 0.07411369 0.06603992 -0.65452708
v 0.08506747 0.03000897 -0.65462040
v 0.10831042 0.08005539 -0.65468092
v 0.12561347 0.04652271 -0.65464042
v 0.13968976 0.09976928 -0.65467014
v 0.16243004 0.06969092 -0.65460359
v 0.16715748 0.12464173 -0.65451927
v 0.18990365 0.15387657 -0.65456583
v 0.19483351 0.09905367 -0.65452280
v 0.20710394 0.18669831 -0.65462906
v 0.21847131 0.22190126 -0.65461427
v 0.22164867 0.13345004 -0.65459691
v 0.24189225 0.17193819 -0.65452099
v 0.25051059 0.34282412 -0.65466223
v 0.25522410 0.21349236 -0.65461059
v 0.25964636 0.30026889 -0.65459166
v 0.26133484 0.25669941 -0.65469344
v -0.10290837 0.49169371 -0.65457494
v -0.13977758 0.46848968 -0.55023547
v -0.10277234 0.49180325 -0.55023609
v -0.13969282 0.46850799 -0.65471281
v -0.13984215 0.46853115 -0.65469097
v -0.10290889 0.49168895 -0.65463081
v -0.13978688 0.46856100 -0.55037409
v -0.10294777 0.49168356 -0.55027691
v -0.06244221 0.50821223 -0.65452065
v -0.06251478 0.50812255 -0.55034191
v -0.06237677 0.50820958 -0.65454345
v -0.06245724 0.50821968 -0.55028359
v -0.01981013 0.51733485 -0.55029895
v -0.01984343 0.51730011 -0.65465350
v -0.01986375 0.51740234 -0.65470280
v -0.01982774 0.51729000 -0.55024723
v 0.02370872 0.51893122 -0.65453348
v 0.02384034 0.51908312 -0.55041914
v 0.02370779 0.51904022 -0.65459589
v 0.02371761 0.51900496 -0.55040870
v 0.06702199 0.51303697 -0.55034850
v 0.06689195 0.51302622 -0.65455880
v 0.06701002 0.51303097 -0.65468038
v 0.06692842 0.51313844 -0.55038662
v 0.10851818 0.49977146 -0.55023399
v 0.10857134 0.49969671 -0.65459663
v 0.10845592 0.49967230 -0.65459803
v 0.10849884 0.49965779 -0.55025795
v 0.14694728 0.47925863 -0.55041066
v 0.14708938 0.47938804 -0.65455912
v 0.14699904 0.47938955 -0.65469877
v 0.14695121 0.47941062 -0.55035614
v 0.18138775 0.45254201 -0.65459951
v 0.18154039 0.45259261 -0.55023630
v 0.18144206 0.45249458 -0.65457116
v 0.18147438 0.45256096 -0.55038122
v 0.21078343 0.42027063 -0.65470506
v 0.21081149 0.42030941 -0.55034825
v 0.21072705 0.42023624 -0.65468544
v 0.21084839 0.42029816 -0.55041296
v 0.23405217 0.38325001 -0.65469586
v 0.23400599 0.38323447 -0.55024098
v 0.23401689 0.38322549 -0.65462900
v 0.23401950 0.38330610 -0.55024786
v 0.25043886 0.34290855 -0.65452535
v 0.25032240 0.34296098 -0.55031539
v 0.25032740 0.34296004 -0.65457886
v 0.25035526 0.34290169 -0.55031067
v 0.25951922 0.30020067 -0.55029068
v 0.25958662 0.30032499 -0.65453043
v 0.25968057 0.30026107 -0.55032983
v 0.25950152 0.30033297 -0.65453455
v 0.26133645 0.25676299 -0.55023796
v 0.26129108 0.25663826 -0.65467615
v 0.26131480 0.25678694 -0.55026940
v 0.26118884 0.25663736 -0.65464753
v 0.25535457 0.21354580 -0.55039537
v 0.25528346 0.21356350 -0.65462834
v 0.25536216 0.21354467 -0.55038993
v 0.25533061 0.21351140 -0.65468529
v 0.24200902 0.17197837 -0.55038164
v 0.24189820 0.17201480 -0.65463446
v 0.24201800 0.17200512 -0.55033776
v 0.24189582 0.17191619 -0.65462999
v 0.22160439 0.13335993 -0.55041404
v 0.22150255 0.13341520 -0.65471531
v 0.22159148 0.13351761 -0.55039127
v 0.22147854 0.13334418 -0.65458325
v 0.19469813 0.09891077 -0.55024490
v 0.19482229 0.09902406 -0.65452575
v 0.19477633 0.09891211 -0.55030172
v 0.19479676 0.09889177 -0.65464187
v 0.16239596 0.06973654 -0.55040948
v 0.16250780 0.06972354 -0.65465532
v 0.16248279 0.06973414 -0.65463827
v 0.16243157 0.06977798 -0.55031317
v 0.12546691 0.04645361 -0.55039751
v 0.12556711 0.04654556 -0.65469388
v 0.12549045 0.04653768 -0.65468223
v 0.12551311 0.04649544 -0.55038224
v 0.08524338 0.03011800 -0.65460617
v 0.08509660 0.03008032 -0.55024484
v 0.08508943 0.03002219 -0.65466155
v 0.08520766 0.03001910 -0.55039134
v 0.04254891 0.02089713 -0.65460999
v 0.04260149 0.02090864 -0.55039183
v 0.04249697 0.02089218 -0.65464584
v 0.04259915 0.02078336 -0.55040017
v -0.00099149 0.01914655 -0.55024638
v -0.00115895 0.01924891 -0.65451899
v -0.00109046 0.01929169 -0.65452962
v -0.00100605 0.01930416 -0.55041441
v -0.04437204 0.02522282 -0.65468810
v -0.04433638 0.02520832 -0.55040174
v -0.04425005 0.02511344 -0.65470791
v -0.04424675 0.02522188 -0.55033558
v -0.08581138 0.03855500 -0.55027799
v -0.08571542 0.03860477 -0.65453095
v -0.08583319 0.03863719 -0.65459138
v -0.08578235 0.03844620 -0.55038745
v -0.12425909 0.05898337 -0.55037964
v -0.12430096 0.05887486 -0.65465003
v -0.12437998 0.05891267 -0.65467629
v -0.12444183 0.05882816 -0.55026200
v -0.15872809 0.08574843 -0.65468242
v -0.15884735 0.08563628 -0.55035132
v -0.15889063 0.08560082 -0.65452511
v -0.15881195 0.08571752 -0.55035300
v -0.18800795 0.11805964 -0.55029640
v -0.18800800 0.11809809 -0.65467077
v -0.18810848 0.11805445 -0.65461659
v -0.18814160 0.11805544 -0.55034362
v -0.21131172 0.15496315 -0.65467707
v -0.21133315 0.15495989 -0.55033343
v -0.21134720 0.15493328 -0.55029831
v -0.21130429 0.15492541 -0.65452221
v -0.22765283 0.19525443 -0.55034486
v -0.22772412 0.19535988 -0.65464317
v -0.22773092 0.19525290 -0.65452342
v -0.22763241 0.19534401 -0.55034531
v -0.23694303 0.23788897 -0.65456208
v -0.23693833 0.23798557 -0.55023361
v -0.23698858 0.23786200 -0.55025005
v -0.23700732 0.23796812 -0.65463532
v -0.23856359 0.28149132 -0.55026507
v -0.23853134 0.28156192 -0.65467004
v -0.23863870 0.28144502 -0.65452133
v -0.23854619 0.28147445 -0.55027363
v -0.23255587 0.32474953 -0.55040455
v -0.23264964 0.32476225 -0.65468245
v -0.23268117 0.32478211 -0.65455834
v -0.23265185 0.32483661 -0.55033999
v -0.21915580 0.36618510 -0.65457138
v -0.21928552 0.36628325 -0.55024447
v -0.21928868 0.36633313 -0.55030053
v -0.21920868 0.36635124 -0.65461826
v -0.19894648 0.40475165 -0.65462632
v -0.19890939 0.40472679 -0.55035228
v -0.19882910 0.40473192 -0.55024640
v -0.19888056 0.40486308 -0.65470332
v -0.17207503 0.43925455 -0.65468884
v -0.17208983 0.43919291 -0.55029774
v -0.17218898 0.43917268 -0.55033172
v -0.17219045 0.43935050 -0.65457909
v 0.25954718 0.30018850 -0.55023404
v 0.25529465 0.21359391 -0.55022911
v 0.26128749 0.25663191 -0.55024037
v 0.25043986 0.34296947 -0.55031410
v 0.24195060 0.17200834 -0.55032127
v 0.23394678 0.38325637 -0.55040202
v 0.23605674 0.25802663 -0.55037000
v 0.23469358 0.29708562 -0.55024802
v 0.22643579 0.33553150 -0.55041775
v 0.21073226 0.42016778 -0.55034425
v 0.21161330 0.37188173 -0.55037850
v 0.19071504 0.40498584 -0.55034003
v 0.18150628 0.45254460 -0.55037846
v 0.16442554 0.43425114 -0.55031574
v 0.14706936 0.47927911 -0.55033167
v 0.13347740 0.45813312 -0.55027281
v 0.10839747 0.49973462 -0.55041606
v 0.09877241 0.47654515 -0.55027534
v 0.06686827 0.51306536 -0.55038304
v 0.06143226 0.48852436 -0.55041250
v 0.02384302 0.51899932 -0.55037115
v 0.02248403 0.49401134 -0.55034295
v -0.01975482 0.51743336 -0.55040590
v -0.01665942 0.49235687 -0.55033476
v -0.05497140 0.48425144 -0.55037522
v -0.06253718 0.50811188 -0.55029174
v -0.09144981 0.46943929 -0.55037266
v -0.10285556 0.49164941 -0.55033140
v -0.12469492 0.44845885 -0.55037122
v -0.13969230 0.46845751 -0.55023055
v -0.15371747 0.42209788 -0.55035970
v -0.17212565 0.43935649 -0.55039527
v -0.17767711 0.39121233 -0.55030577
v -0.19890805 0.40485670 -0.55026770
v -0.19618334 0.35655241 -0.55041846
v -0.20818565 0.31907178 -0.55032246
v -0.21923978 0.36626570 -0.55027495
v -0.21348543 0.28024716 -0.55026725
v 0.22152028 0.13343280 -0.55025700
v 0.23079004 0.21916177 -0.55024245
v 0.21880365 0.18169302 -0.55039914
v 0.19476772 0.09898023 -0.55033610
v 0.20044892 0.14710357 -0.55031978
v 0.17634670 0.11611464 -0.55032725
v 0.16239294 0.06961617 -0.55028211
v 0.14734465 0.08971233 -0.55034624
v 0.12552877 0.04641568 -0.55034375
v 0.11401331 0.06890506 -0.55039325
v 0.08518569 0.03004495 -0.55033438
v 0.07777068 0.05400005 -0.55035419
v 0.04255986 0.02084496 -0.55038934
v 0.03930371 0.04577358 -0.55033531
v -0.00112852 0.01912572 -0.55025082
v 0.00015442 0.04430676 -0.55040255
v -0.03871648 0.04961554 -0.55038612
v -0.04434383 0.02520179 -0.55032101
v -0.07603830 0.06166354 -0.55035931
v -0.08570517 0.03847210 -0.55023839
v -0.11065388 0.08009028 -0.55028104
v -0.12440954 0.05888785 -0.55030030
v -0.14162859 0.10402097 -0.55023578
v -0.15880352 0.08572688 -0.55038891
v -0.16797684 0.13309529 -0.55029105
v -0.18810517 0.11798684 -0.55029226
v -0.18897478 0.16643780 -0.55038129
v -0.21129631 0.15496898 -0.55037827
v -0.20382289 0.20280175 -0.55027810
v -0.21204056 0.24111061 -0.55026234
v -0.22767704 0.19526940 -0.55033608
v -0.23251841 0.32474738 -0.55034264
v -0.23681429 0.23796593 -0.55034741
v -0.23847100 0.28151430 -0.55027379
v -0.23851924 0.28152243 -0.55031680
v -0.23251457 0.32475433 -0.55039538
v -0.23690856 0.23795498 -0.55022744
v -0.22768955 0.19530300 -0.55029079
v -0.21921818 0.36619001 -0.55027445
v -0.21343901 0.28036491 -0.55041758
v -0.21190543 0.24100122 -0.55038505
v -0.21123649 0.15492056 -0.55023163
v -0.20369846 0.20279637 -0.55025953
v -0.18887333 0.16629063 -0.55030792
v -0.18814646 0.11797267 -0.55036180
v -0.16805999 0.13323541 -0.55031056
v -0.15873963 0.08563565 -0.55022977
v -0.14171644 0.10413095 -0.55040505
v -0.12431686 0.05888851 -0.55035019
v -0.11069237 0.08003268 -0.55033548
v -0.08582970 0.03849194 -0.55031779
v -0.07595335 0.06168603 -0.55026814
v -0.04426206 0.02510777 -0.55022537
v -0.03867738 0.04973577 -0.55023930
v -0.00104657 0.01915420 -0.55023071
v 0.00022470 0.04425486 -0.55031078
v 0.03928936 0.04577996 -0.55025093
v 0.04253570 0.02090378 -0.55032698
v 0.07780474 0.05414031 -0.55041724
v 0.08510341 0.03012716 -0.55025081
v 0.11399667 0.06892140 -0.55039488
v 0.12558142 0.04644065 -0.55041445
v 0.14732937 0.08977117 -0.55041759
v 0.16238767 0.06970238 -0.55040212
v 0.17630892 0.11598079 -0.55038090
v 0.19483163 0.09890468 -0.55027860
v 0.20044469 0.14712233 -0.55037649
v 0.21879414 0.18171813 -0.55027196
v 0.22155398 0.13338209 -0.55026120
v 0.23072969 0.21899717 -0.55035983
v 0.23611070 0.25796969 -0.55039914
v 0.24187714 0.17192362 -0.55038950
v -0.20815738 0.31908372 -0.55039316
v -0.19880935 0.40479018 -0.55026063
v -0.19608713 0.35659001 -0.55041039
v -0.17769699 0.39124056 -0.55029871
v -0.17219906 0.43932155 -0.55023870
v -0.15364922 0.42222318 -0.55022821
v -0.13968991 0.46844952 -0.55030062
v -0.12457601 0.44845933 -0.55039012
v -0.10281010 0.49182241 -0.55036924
v -0.09131511 0.46947710 -0.55025523
v -0.06254639 0.50819482 -0.55028388
v -0.05502045 0.48422699 -0.55035388
v -0.01982725 0.51743311 -0.55029113
v -0.01674814 0.49240485 -0.55028706
v 0.02252353 0.49392668 -0.55030027
v 0.02378924 0.51910557 -0.55023334
v 0.06133218 0.48858432 -0.55033104
v 0.06706368 0.51298596 -0.55034262
v 0.09868600 0.47653895 -0.55037027
v 0.10844367 0.49966859 -0.55028513
v 0.13337338 0.45815829 -0.55036864
v 0.14710068 0.47942487 -0.55041600
v 0.16446103 0.43409021 -0.55028717
v 0.18153644 0.45262313 -0.55025892
v 0.19077105 0.40497915 -0.55025347
v 0.21078953 0.42024452 -0.55036228
v 0.21166901 0.37192542 -0.55042489
v 0.22635419 0.33547760 -0.55033040
v 0.23388182 0.38332160 -0.55033159
v 0.23463460 0.29713622 -0.55037595
v 0.25046227 0.34286256 -0.55042404
v 0.25533341 0.21349656 -0.55025562
v 0.25965352 0.30027918 -0.55038230
v 0.26133819 0.25666000 -0.55036632
vt -1.319671 0.04043598
vt -1.90921 0.01114194
vt -1.613159 -1.4781e-15
vt -2.198828 0.07352326
vt -1.037664 0.1312212
vt -2.473214 0.1852485
vt -0.7757057 0.2695973
vt -1.62586 0.2555988
vt -1.376563 0.2899462
vt -0.5417559 0.4513598
vt -1.137019 0.3670617
vt -0.9145042 0.4846021
vt -0.342923 0.6709858
vt -0.7157809 0.638996
vt -0.5468869 0.8255523
vt -0.1852485 0.9218022
vt -0.4129539 1.038602
vt -0.07352326 1.196188
vt -0.3180515 1.271673
vt -0.01114194 1.485806
vt -0.2650631 1.517683
vt -4.944305e-15 1.781857
vt -0.2555988 1.769156
vt -0.2899462 2.018452
vt -0.04043598 2.075344
vt -0.3670617 2.257997
vt -0.1312212 2.357352
vt -0.4846021 2.480512
vt -0.2695973 2.61931
vt -0.638996 2.679235
vt -0.4513598 2.85326
vt -0.8255523 2.848129
vt -1.038602 2.982062
vt -0.6709858 3.052093
vt -1.271673 3.076964
vt -0.9218022 3.209767
vt -1.517683 3.129953
vt -1.769156 3.139417
vt -1.877333 0.2650631
vt -2.72403 0.342923
vt -2.123343 0.3180515
vt -2.356413 0.4129539
vt -2.943656 0.5417559
vt -2.569464 0.5468869
vt -3.125418 0.7757057
vt -2.75602 0.7157809
vt -2.910414 0.9145042
vt -3.263795 1.037664
vt -3.027954 1.137019
vt -3.35458 1.319671
vt -3.10507 1.376563
vt -3.395016 1.613159
vt -3.139417 1.62586
vt -3.383874 1.90921
vt -3.129953 1.877333
vt -3.076964 2.123343
vt -3.321493 2.198828
vt -2.982062 2.356413
vt -3.209767 2.473214
vt -2.848129 2.569464
vt -3.052093 2.72403
vt -2.679235 2.75602
vt -2.85326 2.943656
vt -2.480512 2.910414
vt -2.257997 3.027954
vt -2.61931 3.125418
vt -2.018452 3.10507
vt -2.357352 3.263795
vt -1.196188 3.321493
vt -2.075344 3.35458
vt -1.485806 3.383874
vt -1.781857 3.395016
vt 0.3301547 0.385553
vt -0.4249006 0.6818132
vt -0.4249006 0.385553
vt 0.3301547 0.6818132
vt 0.3301547 0.7838801
vt -0.4249006 1.08014
vt -0.4249006 0.7838801
vt 0.3301547 1.08014
vt -0.4249006 1.153889
vt 0.3301547 1.450149
vt -0.4249006 1.450149
vt 0.3301547 1.153889
vt 0.3301547 1.484336
vt -0.4249006 1.780596
vt -0.4249006 1.484336
vt 0.3301547 1.780596
vt -0.4249006 1.765182
vt 0.3301547 2.061442
vt -0.4249006 2.061442
vt 0.3301547 1.765182
vt -0.4249006 1.987892
vt 0.3301547 2.284152
vt -0.4249006 2.284152
vt 0.3301547 1.987892
vt -0.4249006 2.145701
vt 0.3301547 2.441961
vt -0.4249006 2.441961
vt 0.3301547 2.145701
vt 0.3301547 2.233813
vt -0.4249006 2.530073
vt -0.4249006 2.233813
vt 0.3301547 2.530073
vt 0.3301547 2.24955
vt -0.4249006 2.545811
vt -0.4249006 2.24955
vt 0.3301547 2.545811
vt 0.3301547 2.192436
vt -0.4249006 2.488696
vt -0.4249006 2.192436
vt 0.3301547 2.488696
vt 0.3301547 2.064204
vt -0.4249006 2.360464
vt -0.4249006 2.064204
vt 0.3301547 2.360464
vt 0.3301547 2.165012
vt -0.4249006 1.868752
vt 0.3301547 1.868752
vt -0.4249006 2.165012
vt 0.3301547 1.908278
vt -0.4249006 1.612018
vt 0.3301547 1.612018
vt -0.4249006 1.908278
vt -0.3301547 -1.598063
vt 0.4249006 -1.301803
vt -0.3301547 -1.301803
vt 0.4249006 -1.598063
vt -0.3301547 -1.243792
vt 0.4249006 -0.9475317
vt -0.3301547 -0.9475317
vt 0.4249006 -1.243792
vt -0.3301547 -0.8562299
vt 0.4249006 -0.5599697
vt -0.3301547 -0.5599697
vt 0.4249006 -0.8562299
vt -0.3301547 -0.4471527
vt 0.4249006 -0.1508925
vt -0.3301547 -0.1508925
vt 0.4249006 -0.4471527
vt 0.4249006 0.2672703
vt -0.3301547 -0.02898986
vt 0.4249006 -0.02898986
vt -0.3301547 0.2672703
vt 0.4249006 0.6818132
vt -0.3301547 0.385553
vt 0.4249006 0.385553
vt -0.3301547 0.6818132
vt -0.3301547 1.08014
vt 0.4249006 0.7838801
vt 0.4249006 1.08014
vt -0.3301547 0.7838801
vt -0.3301547 1.450149
vt 0.4249006 1.153889
vt 0.4249006 1.450149
vt -0.3301547 1.153889
vt 0.4249006 1.780596
vt -0.3301547 1.484336
vt 0.4249006 1.484336
vt -0.3301547 1.780596
vt -0.3301547 2.061442
vt 0.4249006 1.765182
vt 0.4249006 2.061442
vt -0.3301547 1.765182
vt 0.4249006 2.284152
vt -0.3301547 1.987892
vt 0.4249006 1.987892
vt -0.3301547 2.284152
vt 0.4249006 2.441961
vt -0.3301547 2.145701
vt 0.4249006 2.145701
vt -0.3301547 2.441961
vt -0.3301547 2.530073
vt 0.4249006 2.233813
vt 0.4249006 2.530073
vt -0.3301547 2.233813
vt 0.4249006 2.545811
vt -0.3301547 2.24955
vt 0.4249006 2.24955
vt -0.3301547 2.545811
vt 0.4249006 2.192436
vt -0.3301547 2.488696
vt -0.3301547 2.192436
vt 0.4249006 2.488696
vt 0.4249006 2.360464
vt -0.3301547 2.064204
vt 0.4249006 2.064204
vt -0.3301547 2.360464
vt 0.4249006 1.868752
vt -0.3301547 2.165012
vt -0.3301547 1.868752
vt 0.4249006 2.165012
vt 0.4249006 1.908278
vt -0.3301547 1.612018
vt 0.4249006 1.612018
vt -0.3301547 1.908278
vt -0.4249006 -1.598063
vt 0.3301547 -1.301803
vt -0.4249006 -1.301803
vt 0.3301547 -1.598063
vt -0.4249006 -0.9475317
vt 0.3301547 -1.243792
vt 0.3301547 -0.9475317
vt -0.4249006 -1.243792
vt -0.4249006 -0.5599697
vt 0.3301547 -0.8562299
vt 0.3301547 -0.5599697
vt -0.4249006 -0.8562299
vt -0.4249006 -0.1508925
vt 0.3301547 -0.4471527
vt 0.3301547 -0.1508925
vt -0.4249006 -0.4471527
vt -0.4249006 -0.02898986
vt 0.3301547 0.2672703
vt -0.4249006 0.2672703
vt 0.3301547 -0.02898986
vt 1.90921 0.01114194
vt 1.319671 0.04043598
vt 1.613159 4.792821e-16
vt 2.198828 0.07352326
vt 1.037664 0.1312212
vt 2.473214 0.1852485
vt 1.621626 0.1703992
vt 1.887959 0.1804227
vt 2.148504 0.2365421
vt 2.72403 0.342923
vt 2.395347 0.3370521
vt 2.620986 0.478899
vt 2.943656 0.5417559
vt 2.818565 0.6577726
vt 3.125418 0.7757057
vt 2.982082 0.8682381
vt 3.263795 1.037664
vt 3.106568 1.1039
vt 3.35458 1.319671
vt 3.18824 1.357599
vt 3.395016 1.613159
vt 3.224617 1.621626
vt 3.383874 1.90921
vt 3.214593 1.887959
vt 3.158474 2.148504
vt 3.321493 2.198828
vt 3.057964 2.395347
vt 3.209767 2.473214
vt 2.916117 2.620986
vt 3.052093 2.72403
vt 2.737243 2.818565
vt 2.85326 2.943656
vt 2.526778 2.982082
vt 2.61931 3.125418
vt 2.291115 3.106568
vt 2.037416 3.18824
vt 2.357352 3.263795
vt 1.77339 3.224617
vt 0.7757057 0.2695973
vt 1.357599 0.2067761
vt 1.1039 0.2884482
vt 0.5417559 0.4513598
vt 0.8682381 0.4129338
vt 0.6577726 0.5764506
vt 0.342923 0.6709858
vt 0.478899 0.7740301
vt 0.1852485 0.9218022
vt 0.3370521 0.999669
vt 0.07352326 1.196188
vt 0.2365421 1.246511
vt 0.01114194 1.485806
vt 0.1804227 1.507057
vt 0 1.781857
vt 0.1703992 1.77339
vt 0.2067761 2.037416
vt 0.04043598 2.075344
vt 0.2884482 2.291115
vt 0.1312212 2.357352
vt 0.4129338 2.526778
vt 0.2695973 2.61931
vt 0.5764506 2.737243
vt 0.4513598 2.85326
vt 0.7740301 2.916117
vt 0.6709858 3.052093
vt 0.999669 3.057964
vt 0.9218022 3.209767
vt 1.246511 3.158474
vt 1.507057 3.214593
vt 1.196188 3.321493
vt 2.075344 3.35458
vt 1.485806 3.383874
vt 1.781857 3.395016
vn 0 -3.5974577171211104e-8 -1
vn 0 3.5974577171211104e-8 1
vn -0.4564043030089053 0.8897725058659401 -3.200917575558929e-8
vn -0.6039778192384913 0.7970011253868564 -2.8671765414026288e-8
vn 0.6039778192384913 -0.7970011253868564 2.8671765414026288e-8
vn 0.4564043030089053 -0.8897725058659401 3.200917575558929e-8
vn -0.29496311253068713 0.9555086405921235 -3.4374004985469446e-8
vn 0.29496311253068713 -0.9555086405921235 3.4374004985469446e-8
vn -0.12455960340430355 0.9922121271178665 -3.569439740799134e-8
vn 0.12455960340430355 -0.9922121271178665 3.569439740799134e-8
vn 0.049628562170480894 0.9987677436806265 -3.5930233391368446e-8
vn -0.049628562170480894 -0.9987677436806265 3.5930233391368446e-8
vn 0.22230880132061062 0.974976305791783 -3.507434734418774e-8
vn -0.22230880132061062 -0.974976305791783 3.507434734418774e-8
vn 0.38823430087721905 0.9215607020822751 -3.315274485281923e-8
vn -0.38823430087721905 -0.9215607020822751 3.315274485281923e-8
vn 0.542363471019283 0.8401439551076435 -3.022381342895778e-8
vn -0.542363471019283 -0.8401439551076435 3.022381342895778e-8
vn 0.6800131845180549 0.7331998833071465 -2.6376547595633628e-8
vn -0.6800131845180549 -0.7331998833071465 2.6376547595633628e-8
vn 0.7970011253868572 0.6039778192384906 -2.172784065903842e-8
vn -0.7970011253868572 -0.6039778192384906 2.172784065903842e-8
vn 0.8897725058659407 0.45640430300890467 -1.641894817305034e-8
vn -0.8897725058659407 -0.45640430300890467 1.641894817305034e-8
vn 0.9555086405921243 0.29496311253068674 -1.0611172080427272e-8
vn -0.9555086405921243 -0.29496311253068674 1.0611172080427272e-8
vn 0.9922121271178672 0.12455960340430337 -4.480980399633418e-9
vn -0.9922121271178672 -0.12455960340430337 4.480980399633418e-9
vn 0.998767743680627 -0.04962856217048081 1.785362737179933e-9
vn -0.998767743680627 0.04962856217048081 -1.785362737179933e-9
vn 0.9749763057917834 -0.22230880132061026 7.997458973998459e-9
vn -0.9749763057917834 0.22230880132061026 -7.997458973998459e-9
vn 0.9215607020822759 -0.38823430087721855 1.3966556497053442e-8
vn -0.9215607020822759 0.38823430087721855 -1.3966556497053442e-8
vn 0.8401439551076445 -0.5423634710192823 1.95112863100583e-8
vn -0.8401439551076445 0.5423634710192823 -1.95112863100583e-8
vn 0.7331998833071471 -0.680013184518054 2.446317494923321e-8
vn -0.7331998833071471 0.680013184518054 -2.446317494923321e-8
vn 0.29496311253068713 -0.9555086405921235 3.437400498546944e-8
vn -0.29496311253068713 0.9555086405921235 -3.437400498546944e-8
vn -0.22230880132061062 -0.974976305791783 3.5074347344187744e-8
vn 0.22230880132061062 0.974976305791783 -3.5074347344187744e-8
vn -0.38823430087721905 -0.9215607020822751 3.315274485281924e-8
vn 0.38823430087721905 0.9215607020822751 -3.315274485281924e-8
vn -0.998767743680627 0.04962856217048081 -1.7853627371799336e-9
vn 0.998767743680627 -0.04962856217048081 1.7853627371799336e-9
vn -0.9749763057917834 0.22230880132061026 -7.99745897399846e-9
vn 0.9749763057917834 -0.22230880132061026 7.99745897399846e-9
vn -0.8401439551076445 0.5423634710192823 -1.9511286310058297e-8
vn 0.8401439551076445 -0.5423634710192823 1.9511286310058297e-8
vn -0.7331998833071471 0.680013184518054 -2.4463174949233208e-8
vn 0.7331998833071471 -0.680013184518054 2.4463174949233208e-8
vn 0 3.597456311981438e-8 1
vn 0 -3.597456311981438e-8 -1
usemtl material_0_0
f 1/1/1 2/2/1 3/3/1
f 2/2/1 1/1/1 4/4/1
f 4/4/1 1/1/1 5/5/1
f 4/4/1 5/5/1 6/6/1
f 6/6/1 5/5/1 7/7/1
f 6/6/1 7/7/1 8/8/1
f 8/8/1 7/7/1 9/9/1
f 9/9/1 7/7/1 10/10/1
f 9/9/1 10/10/1 11/11/1
f 11/11/1 10/10/1 12/12/1
f 12/12/1 10/10/1 13/13/1
f 12/12/1 13/13/1 14/14/1
f 14/14/1 13/13/1 15/15/1
f 15/15/1 13/13/1 16/16/1
f 15/15/1 16/16/1 17/17/1
f 17/17/1 16/16/1 18/18/1
f 17/17/1 18/18/1 19/19/1
f 19/19/1 18/18/1 20/20/1
f 19/19/1 20/20/1 21/21/1
f 21/21/1 20/20/1 22/22/1
f 21/21/1 22/22/1 23/23/1
f 23/23/1 22/22/1 24/24/1
f 24/24/1 22/22/1 25/25/1
f 24/24/1 25/25/1 26/26/1
f 26/26/1 25/25/1 27/27/1
f 26/26/1 27/27/1 28/28/1
f 28/28/1 27/27/1 29/29/1
f 28/28/1 29/29/1 30/30/1
f 30/30/1 29/29/1 31/31/1
f 30/30/1 31/31/1 32/32/1
f 32/32/1 31/31/1 33/33/1
f 33/33/1 31/31/1 34/34/1
f 33/33/1 34/34/1 35/35/1
f 35/35/1 34/34/1 36/36/1
f 35/35/1 36/36/1 37/37/1
f 37/37/1 36/36/1 38/38/1
f 6/6/1 39/39/1 40/40/1
f 39/39/1 6/6/1 8/8/1
f 40/40/1 39/39/1 41/41/1
f 40/40/1 41/41/1 42/42/1
f 40/40/1 42/42/1 43/43/1
f 43/43/1 42/42/1 44/44/1
f 43/43/1 44/44/1 45/45/1
f 45/45/1 44/44/1 46/46/1
f 45/45/1 46/46/1 47/47/1
f 45/45/1 47/47/1 48/48/1
f 48/48/1 47/47/1 49/49/1
f 48/48/1 49/49/1 50/50/1
f 50/50/1 49/49/1 51/51/1
f 50/50/1 51/51/1 52/52/1
f 52/52/1 51/51/1 53/53/1
f 52/52/1 53/53/1 54/54/1
f 54/54/1 53/53/1 55/55/1
f 54/54/1 55/55/1 56/56/1
f 54/54/1 56/56/1 57/57/1
f 57/57/1 56/56/1 58/58/1
f 57/57/1 58/58/1 59/59/1
f 59/59/1 58/58/1 60/60/1
f 59/59/1 60/60/1 61/61/1
f 61/61/1 60/60/1 62/62/1
f 61/61/1 62/62/1 63/63/1
f 63/63/1 62/62/1 64/64/1
f 63/63/1 64/64/1 65/65/1
f 63/63/1 65/65/1 66/66/1
f 66/66/1 65/65/1 67/67/1
f 66/66/1 67/67/1 38/38/1
f 66/66/1 38/38/1 68/68/1
f 68/68/1 38/38/1 36/36/1
f 68/68/1 36/36/1 69/69/1
f 68/68/1 69/69/1 70/70/1
f 70/70/1 69/69/1 71/71/1
f 70/70/1 71/71/1 72/72/1
f 73/72/2 74/71/2 75/70/2
f 74/71/2 76/69/2 75/70/2
f 75/70/2 76/69/2 77/68/2
f 76/69/2 78/36/2 77/68/2
f 78/36/2 79/38/2 77/68/2
f 77/68/2 79/38/2 80/66/2
f 79/38/2 81/67/2 80/66/2
f 81/67/2 82/65/2 80/66/2
f 80/66/2 82/65/2 83/63/2
f 82/65/2 84/64/2 83/63/2
f 84/64/2 85/62/2 83/63/2
f 83/63/2 85/62/2 86/61/2
f 85/62/2 87/60/2 86/61/2
f 86/61/2 87/60/2 88/59/2
f 87/60/2 89/58/2 88/59/2
f 88/59/2 89/58/2 90/57/2
f 89/58/2 91/56/2 90/57/2
f 90/57/2 91/56/2 92/54/2
f 91/56/2 93/55/2 92/54/2
f 93/55/2 94/53/2 92/54/2
f 92/54/2 94/53/2 95/52/2
f 94/53/2 96/51/2 95/52/2
f 95/52/2 96/51/2 97/50/2
f 96/51/2 98/49/2 97/50/2
f 97/50/2 98/49/2 99/48/2
f 98/49/2 100/47/2 99/48/2
f 99/48/2 100/47/2 101/45/2
f 100/47/2 102/46/2 101/45/2
f 102/46/2 103/44/2 101/45/2
f 101/45/2 103/44/2 104/43/2
f 103/44/2 105/42/2 104/43/2
f 104/43/2 105/42/2 106/40/2
f 105/42/2 107/41/2 106/40/2
f 107/41/2 108/39/2 106/40/2
f 109/8/2 110/6/2 108/39/2
f 106/40/2 108/39/2 110/6/2
f 79/38/2 78/36/2 111/37/2
f 111/37/2 78/36/2 112/35/2
f 78/36/2 113/34/2 112/35/2
f 112/35/2 113/34/2 114/33/2
f 113/34/2 115/31/2 114/33/2
f 114/33/2 115/31/2 116/32/2
f 116/32/2 115/31/2 117/30/2
f 115/31/2 118/29/2 117/30/2
f 117/30/2 118/29/2 119/28/2
f 118/29/2 120/27/2 119/28/2
f 119/28/2 120/27/2 121/26/2
f 120/27/2 122/25/2 121/26/2
f 121/26/2 122/25/2 123/24/2
f 122/25/2 124/22/2 123/24/2
f 123/24/2 124/22/2 125/23/2
f 125/23/2 124/22/2 126/21/2
f 124/22/2 127/20/2 126/21/2
f 126/21/2 127/20/2 128/19/2
f 127/20/2 129/18/2 128/19/2
f 128/19/2 129/18/2 130/17/2
f 129/18/2 131/16/2 130/17/2
f 130/17/2 131/16/2 132/15/2
f 131/16/2 133/13/2 132/15/2
f 132/15/2 133/13/2 134/14/2
f 134/14/2 133/13/2 135/12/2
f 133/13/2 136/10/2 135/12/2
f 135/12/2 136/10/2 137/11/2
f 137/11/2 136/10/2 138/9/2
f 136/10/2 139/7/2 138/9/2
f 138/9/2 139/7/2 109/8/2
f 109/8/2 139/7/2 110/6/2
f 139/7/2 140/5/2 110/6/2
f 110/6/2 140/5/2 141/4/2
f 140/5/2 142/1/2 141/4/2
f 141/4/2 142/1/2 143/2/2
f 144/3/2 143/2/2 142/1/2
f 145/73/3 146/74/4 147/75/3
f 146/74/4 145/73/3 148/76/4
f 149/76/5 150/73/6 151/74/5
f 152/75/6 151/74/5 150/73/6
f 153/77/7 147/78/3 154/79/7
f 147/78/3 153/77/7 145/80/3
f 150/80/6 155/77/8 152/78/6
f 156/79/8 152/78/6 155/77/8
f 157/81/9 153/82/7 154/83/7
f 153/82/7 157/81/9 158/84/9
f 159/84/10 160/81/10 155/82/8
f 156/83/8 155/82/8 160/81/10
f 161/85/11 157/86/9 162/87/11
f 157/86/9 161/85/11 158/88/9
f 159/88/10 163/85/12 160/86/10
f 164/87/12 160/86/10 163/85/12
f 165/89/13 161/90/11 162/91/11
f 161/90/11 165/89/13 166/92/13
f 167/92/14 168/89/14 163/90/12
f 164/91/12 163/90/12 168/89/14
f 169/93/15 166/94/13 165/95/13
f 166/94/13 169/93/15 170/96/15
f 171/96/16 172/93/16 167/94/14
f 168/95/14 167/94/14 172/93/16
f 173/97/17 170/98/15 169/99/15
f 170/98/15 173/97/17 174/100/17
f 175/100/18 176/97/18 171/98/16
f 172/99/16 171/98/16 176/97/18
f 177/101/19 173/102/17 178/103/19
f 173/102/17 177/101/19 174/104/17
f 175/104/18 179/101/20 176/102/18
f 180/103/20 176/102/18 179/101/20
f 181/105/21 178/106/19 182/107/21
f 178/106/19 181/105/21 177/108/19
f 179/108/20 183/105/22 180/106/20
f 184/107/22 180/106/20 183/105/22
f 185/109/23 182/110/21 186/111/23
f 182/110/21 185/109/23 181/112/21
f 183/112/22 187/109/24 184/110/22
f 188/111/24 184/110/22 187/109/24
f 189/113/25 186/114/23 190/115/25
f 186/114/23 189/113/25 185/116/23
f 187/116/24 191/113/26 188/114/24
f 192/115/26 188/114/24 191/113/26
f 189/117/25 193/118/27 194/119/27
f 193/118/27 189/117/25 190/120/25
f 192/120/26 191/117/26 195/118/28
f 196/119/28 195/118/28 191/117/26
f 194/121/27 197/122/29 198/123/29
f 197/122/29 194/121/27 193/124/27
f 195/124/28 196/121/28 199/122/30
f 200/123/30 199/122/30 196/121/28
f 198/125/29 201/126/31 202/127/31
f 201/126/31 198/125/29 197/128/29
f 199/128/30 200/125/30 203/126/32
f 204/127/32 203/126/32 200/125/30
f 202/129/31 205/130/33 206/131/33
f 205/130/33 202/129/31 201/132/31
f 203/132/32 204/129/32 207/130/34
f 208/131/34 207/130/34 204/129/32
f 206/133/33 209/134/35 210/135/35
f 209/134/35 206/133/33 205/136/33
f 207/136/34 208/133/34 211/134/36
f 212/135/36 211/134/36 208/133/34
f 210/137/35 213/138/37 214/139/37
f 213/138/37 210/137/35 209/140/35
f 211/140/36 212/137/36 215/138/38
f 216/139/38 215/138/38 212/137/36
f 217/141/5 214/142/37 213/143/37
f 214/142/37 217/141/5 218/144/5
f 219/144/4 220/141/4 216/142/38
f 215/143/38 216/142/38 220/141/4
f 221/145/6 218/146/5 217/147/5
f 218/146/5 221/145/6 222/148/6
f 223/148/3 224/145/3 219/146/4
f 220/147/4 219/146/4 224/145/3
f 225/149/39 221/150/6 226/151/39
f 221/150/6 225/149/39 222/152/6
f 223/152/3 227/149/40 224/150/3
f 228/151/40 224/150/3 227/149/40
f 229/153/10 226/154/39 230/155/10
f 226/154/39 229/153/10 225/156/39
f 227/156/40 231/153/9 228/154/40
f 232/155/9 228/154/40 231/153/9
f 233/157/12 229/158/10 230/159/10
f 229/158/10 233/157/12 234/160/12
f 235/160/11 236/157/11 231/158/9
f 232/159/9 231/158/9 236/157/11
f 237/161/41 233/162/12 238/163/41
f 233/162/12 237/161/41 234/164/12
f 235/164/11 239/161/42 236/162/11
f 240/163/42 236/162/11 239/161/42
f 241/165/43 237/166/41 238/167/41
f 237/166/41 241/165/43 242/168/43
f 243/168/44 244/165/44 239/166/42
f 240/167/42 239/166/42 244/165/44
f 245/169/18 242/170/43 241/171/43
f 242/170/43 245/169/18 246/172/18
f 247/172/17 248/169/17 243/170/44
f 244/171/44 243/170/44 248/169/17
f 249/173/20 245/174/18 250/175/20
f 245/174/18 249/173/20 246/176/18
f 247/176/17 251/173/19 248/174/17
f 252/175/19 248/174/17 251/173/19
f 253/177/22 249/178/20 250/179/20
f 249/178/20 253/177/22 254/180/22
f 255/180/21 256/177/21 251/178/19
f 252/179/19 251/178/19 256/177/21
f 253/181/22 257/182/24 254/183/22
f 257/182/24 253/181/22 258/184/24
f 259/184/23 256/181/21 260/182/23
f 255/183/21 260/182/23 256/181/21
f 261/185/26 257/186/24 258/187/24
f 257/186/24 261/185/26 262/188/26
f 263/188/25 264/185/25 260/186/23
f 259/187/23 260/186/23 264/185/25
f 261/189/26 265/190/28 262/191/26
f 265/190/28 261/189/26 266/192/28
f 267/192/27 264/189/25 268/190/27
f 263/191/25 268/190/27 264/189/25
f 269/193/45 265/194/28 266/195/28
f 265/194/28 269/193/45 270/196/45
f 271/196/46 272/193/46 268/194/27
f 267/195/27 268/194/27 272/193/46
f 273/197/47 270/198/45 269/199/45
f 270/198/45 273/197/47 274/200/47
f 275/200/48 276/197/48 271/198/46
f 272/199/46 271/198/46 276/197/48
f 273/201/47 277/202/34 274/203/47
f 277/202/34 273/201/47 278/204/34
f 279/204/33 276/201/48 280/202/33
f 275/203/48 280/202/33 276/201/48
f 278/205/34 281/206/49 277/207/34
f 281/206/49 278/205/34 282/208/49
f 283/208/50 279/205/33 284/206/50
f 280/207/33 284/206/50 279/205/33
f 282/209/49 285/210/51 281/211/49
f 285/210/51 282/209/49 286/212/51
f 287/212/52 283/209/50 288/210/52
f 284/211/50 288/210/52 283/209/50
f 146/213/4 285/214/51 286/215/51
f 285/214/51 146/213/4 148/216/4
f 149/216/5 151/213/5 288/214/52
f 287/215/52 288/214/52 151/213/5
f 289/217/53 290/218/53 291/219/53
f 290/218/53 289/217/53 292/220/53
f 290/218/53 292/220/53 293/221/53
f 293/221/53 292/220/53 294/222/53
f 293/221/53 294/222/53 295/223/53
f 295/223/53 294/222/53 296/224/53
f 296/224/53 294/222/53 297/225/53
f 297/225/53 294/222/53 298/226/53
f 297/225/53 298/226/53 299/227/53
f 299/227/53 298/226/53 300/228/53
f 300/228/53 298/226/53 301/229/53
f 300/228/53 301/229/53 302/230/53
f 302/230/53 301/229/53 303/231/53
f 302/230/53 303/231/53 304/232/53
f 304/232/53 303/231/53 305/233/53
f 304/232/53 305/233/53 306/234/53
f 306/234/53 305/233/53 307/235/53
f 306/234/53 307/235/53 308/236/53
f 308/236/53 307/235/53 309/237/53
f 308/236/53 309/237/53 310/238/53
f 310/238/53 309/237/53 311/239/53
f 310/238/53 311/239/53 312/240/53
f 312/240/53 311/239/53 313/241/53
f 313/241/53 311/239/53 314/242/53
f 313/241/53 314/242/53 315/243/53
f 315/243/53 314/242/53 316/244/53
f 315/243/53 316/244/53 317/245/53
f 317/245/53 316/244/53 318/246/53
f 317/245/53 318/246/53 319/247/53
f 319/247/53 318/246/53 320/248/53
f 319/247/53 320/248/53 321/249/53
f 321/249/53 320/248/53 322/250/53
f 321/249/53 322/250/53 323/251/53
f 323/251/53 322/250/53 324/252/53
f 324/252/53 322/250/53 325/253/53
f 324/252/53 325/253/53 326/254/53
f 295/223/53 327/255/53 293/221/53
f 327/255/53 295/223/53 328/256/53
f 327/255/53 328/256/53 329/257/53
f 327/255/53 329/257/53 330/258/53
f 330/258/53 329/257/53 331/259/53
f 330/258/53 331/259/53 332/260/53
f 330/258/53 332/260/53 333/261/53
f 333/261/53 332/260/53 334/262/53
f 333/261/53 334/262/53 335/263/53
f 335/263/53 334/262/53 336/264/53
f 335/263/53 336/264/53 337/265/53
f 337/265/53 336/264/53 338/266/53
f 337/265/53 338/266/53 339/267/53
f 339/267/53 338/266/53 340/268/53
f 339/267/53 340/268/53 341/269/53
f 341/269/53 340/268/53 342/270/53
f 341/269/53 342/270/53 343/271/53
f 341/269/53 343/271/53 344/272/53
f 344/272/53 343/271/53 345/273/53
f 344/272/53 345/273/53 346/274/53
f 346/274/53 345/273/53 347/275/53
f 346/274/53 347/275/53 348/276/53
f 348/276/53 347/275/53 349/277/53
f 348/276/53 349/277/53 350/278/53
f 350/278/53 349/277/53 351/279/53
f 350/278/53 351/279/53 352/280/53
f 352/280/53 351/279/53 353/281/53
f 352/280/53 353/281/53 354/282/53
f 354/282/53 353/281/53 355/283/53
f 354/282/53 355/283/53 356/284/53
f 354/282/53 356/284/53 357/285/53
f 357/285/53 356/284/53 326/254/53
f 357/285/53 326/254/53 325/253/53
f 357/285/53 325/253/53 358/286/53
f 357/285/53 358/286/53 359/287/53
f 359/287/53 358/286/53 360/288/53
f 361/288/54 362/286/54 363/287/54
f 363/287/54 362/286/54 364/285/54
f 362/286/54 365/253/54 364/285/54
f 365/253/54 366/254/54 364/285/54
f 366/254/54 367/284/54 364/285/54
f 364/285/54 367/284/54 368/282/54
f 367/284/54 369/283/54 368/282/54
f 369/283/54 370/281/54 368/282/54
f 368/282/54 370/281/54 371/280/54
f 370/281/54 372/279/54 371/280/54
f 371/280/54 372/279/54 373/278/54
f 372/279/54 374/277/54 373/278/54
f 373/278/54 374/277/54 375/276/54
f 374/277/54 376/275/54 375/276/54
f 375/276/54 376/275/54 377/274/54
f 376/275/54 378/273/54 377/274/54
f 377/274/54 378/273/54 379/272/54
f 378/273/54 380/271/54 379/272/54
f 379/272/54 380/271/54 381/269/54
f 380/271/54 382/270/54 381/269/54
f 382/270/54 383/268/54 381/269/54
f 381/269/54 383/268/54 384/267/54
f 383/268/54 385/266/54 384/267/54
f 384/267/54 385/266/54 386/265/54
f 385/266/54 387/264/54 386/265/54
f 386/265/54 387/264/54 388/263/54
f 387/264/54 389/262/54 388/263/54
f 388/263/54 389/262/54 390/261/54
f 389/262/54 391/260/54 390/261/54
f 390/261/54 391/260/54 392/258/54
f 391/260/54 393/259/54 392/258/54
f 393/259/54 394/257/54 392/258/54
f 392/258/54 394/257/54 395/255/54
f 394/257/54 396/256/54 395/255/54
f 396/256/54 397/223/54 395/255/54
f 398/221/54 395/255/54 397/223/54
f 366/254/54 365/253/54 399/252/54
f 365/253/54 400/250/54 399/252/54
f 399/252/54 400/250/54 401/251/54
f 401/251/54 400/250/54 402/249/54
f 400/250/54 403/248/54 402/249/54
f 402/249/54 403/248/54 404/247/54
f 403/248/54 405/246/54 404/247/54
f 404/247/54 405/246/54 406/245/54
f 405/246/54 407/244/54 406/245/54
f 406/245/54 407/244/54 408/243/54
f 407/244/54 409/242/54 408/243/54
f 408/243/54 409/242/54 410/241/54
f 409/242/54 411/239/54 410/241/54
f 410/241/54 411/239/54 412/240/54
f 412/240/54 411/239/54 413/238/54
f 411/239/54 414/237/54 413/238/54
f 413/238/54 414/237/54 415/236/54
f 414/237/54 416/235/54 415/236/54
f 415/236/54 416/235/54 417/234/54
f 416/235/54 418/233/54 417/234/54
f 417/234/54 418/233/54 419/232/54
f 418/233/54 420/231/54 419/232/54
f 419/232/54 420/231/54 421/230/54
f 420/231/54 422/229/54 421/230/54
f 421/230/54 422/229/54 423/228/54
f 422/229/54 424/226/54 423/228/54
f 423/228/54 424/226/54 425/227/54
f 425/227/54 424/226/54 426/225/54
f 424/226/54 427/222/54 426/225/54
f 426/225/54 427/222/54 428/224/54
f 428/224/54 427/222/54 397/223/54
f 397/223/54 427/222/54 398/221/54
f 427/222/54 429/220/54 398/221/54
f 398/221/54 429/220/54 430/218/54
f 429/220/54 431/217/54 430/218/54
f 432/219/54 430/218/54 431/217/54
