# SSTK version 0.8.0
# 92
mtllib original-92.mtl
o instance_8/Group_51/ID316#ID316
v -0.06452891 0.61816632 -0.16042914
v -0.06236307 0.61814276 -0.17252132
v -0.05804678 0.61821260 -0.16276903
v -0.06877130 0.61816570 -0.17021848
v -0.07095155 0.61814661 -0.15794100
v -0.07504199 0.61819740 -0.16783672
v -0.07722575 0.61805479 -0.15531454
v -0.08141280 0.61806222 -0.16520969
v -0.08342504 0.61802130 -0.15253266
v -0.08776092 0.61802821 -0.16244696
v -0.08963199 0.61810159 -0.14960693
v -0.09384654 0.61801937 -0.15948533
v -0.09579936 0.61815400 -0.14661387
v -0.10008714 0.61815254 -0.15634571
v -0.10182151 0.61811988 -0.14333727
v -0.10609119 0.61811334 -0.15323826
v -0.10779674 0.61810499 -0.14000965
v -0.11194729 0.61810354 -0.14995134
v -0.11366648 0.61818081 -0.13652175
v -0.11801062 0.61817658 -0.14642102
v -0.11945027 0.61804964 -0.13288148
v -0.12366208 0.61812921 -0.14292278
v -0.12526573 0.61802910 -0.12919968
v -0.12944386 0.61807333 -0.13904891
v -0.13089163 0.61812571 -0.12534557
v -0.13502970 0.61810208 -0.13513166
v -0.13506887 0.61819652 -0.13520387
v -0.13080391 0.61803897 -0.12537388
v -0.12950716 0.61804961 -0.13916202
v -0.12512261 0.61814288 -0.12918383
v -0.12384821 0.61816940 -0.14286106
v -0.11946549 0.61814331 -0.13286187
v -0.11799838 0.61807160 -0.14647563
v -0.11367607 0.61820965 -0.13653485
v -0.11200051 0.61814332 -0.14981859
v -0.10786931 0.61811334 -0.14001229
v -0.10616154 0.61814130 -0.15331507
v -0.10174031 0.61818967 -0.14337441
v -0.10005739 0.61814941 -0.15644902
v -0.09573999 0.61809736 -0.14659607
v -0.09399044 0.61821581 -0.15939525
v -0.08961895 0.61811255 -0.14968409
v -0.08766585 0.61821470 -0.16232381
v -0.08341594 0.61804646 -0.15243780
v -0.08154284 0.61813445 -0.16518807
v -0.07711445 0.61813275 -0.15536669
v -0.07521245 0.61813083 -0.16767061
v -0.07082461 0.61811655 -0.15785959
v -0.06870867 0.61816762 -0.17015307
v -0.06456114 0.61804528 -0.16036969
v -0.06223821 0.61815908 -0.17264416
v -0.05803149 0.61815175 -0.16268623
v -0.06235440 0.61813155 -0.17259494
v -0.05812043 0.62391970 -0.16276277
v -0.05804886 0.61807847 -0.16275699
v -0.06232284 0.62399955 -0.17257580
v -0.06240725 0.62392338 -0.17263364
v -0.06241045 0.61816092 -0.17265950
v -0.05808300 0.62392943 -0.16266844
v -0.05807429 0.61802809 -0.16271826
v -0.06455984 0.61814919 -0.16027685
v -0.05805885 0.62400730 -0.16268912
v -0.06455354 0.62395257 -0.16036805
v -0.05806024 0.61807514 -0.16270358
v -0.05795477 0.61817452 -0.16278672
v -0.06445162 0.61811602 -0.16026450
v -0.05797789 0.62397828 -0.16274830
v -0.06450058 0.62394439 -0.16037694
v -0.07083819 0.61818310 -0.15787787
v -0.07092891 0.62407317 -0.15797967
v -0.07090700 0.61808577 -0.15797932
v -0.07082731 0.62406739 -0.15791968
v -0.07707594 0.61814537 -0.15520739
v -0.07723936 0.62390233 -0.15519300
v -0.07723160 0.61819749 -0.15518120
v -0.07723270 0.62393857 -0.15533309
v -0.08339420 0.61815252 -0.15257698
v -0.08348908 0.62398994 -0.15243003
v -0.08337063 0.61806185 -0.15255882
v -0.08336129 0.62393588 -0.15252336
v -0.08968124 0.61803906 -0.14955545
v -0.08966542 0.62408017 -0.14955540
v -0.08964955 0.61808023 -0.14956873
v -0.08968488 0.62399743 -0.14964210
v -0.09575246 0.61811390 -0.14656413
v -0.09581378 0.62404595 -0.14659959
v -0.09568227 0.61814317 -0.14653076
v -0.09574772 0.62396288 -0.14659333
v -0.10169746 0.61809984 -0.14328691
v -0.10177559 0.62388847 -0.14341440
v -0.10178811 0.61807296 -0.14341683
v -0.10171207 0.62399109 -0.14335541
v -0.10770279 0.61803019 -0.14008175
v -0.10778661 0.62400727 -0.13995065
v -0.10777843 0.61811771 -0.14011740
v -0.10769925 0.62406496 -0.13995053
v -0.11375113 0.61809071 -0.13652181
v -0.11368546 0.62407103 -0.13646797
v -0.11360789 0.61809506 -0.13651672
v -0.11366500 0.62400718 -0.13646795
v -0.11947412 0.61806671 -0.13302899
v -0.11953611 0.62405914 -0.13303735
v -0.11942882 0.61806117 -0.13292537
v -0.11957789 0.62393157 -0.13287740
v -0.12524726 0.61803311 -0.12918099
v -0.12517484 0.62404450 -0.12913483
v -0.12522957 0.61817502 -0.12919176
v -0.12522973 0.62398464 -0.12915188
v -0.13079527 0.61809435 -0.12527182
v -0.13084785 0.62394153 -0.12531409
v -0.13086223 0.61808848 -0.12529353
v -0.13086063 0.62390339 -0.12537083
v -0.13516576 0.62406448 -0.13523691
v -0.13084594 0.61819938 -0.12536533
v -0.13093033 0.62402362 -0.12542662
v -0.13521720 0.61807797 -0.13528858
v -0.13506246 0.61812370 -0.13518605
v -0.13521597 0.62408506 -0.13531647
v -0.13091712 0.61815088 -0.12544870
v -0.13094591 0.62402984 -0.12527874
v -0.12947281 0.61806518 -0.13910509
v -0.13520046 0.62403563 -0.13529662
v -0.12947333 0.62392072 -0.13901761
v -0.13521708 0.61812054 -0.13519907
v -0.13513107 0.61811746 -0.13528785
v -0.12948801 0.61816504 -0.13899692
v -0.13519856 0.62408011 -0.13514762
v -0.12943728 0.62389299 -0.13902594
v -0.12376777 0.61816796 -0.14275414
v -0.12375666 0.62404566 -0.14282427
v -0.12374616 0.61813259 -0.14286807
v -0.12379008 0.62400860 -0.14273369
v -0.11791791 0.61817143 -0.14646673
v -0.11795506 0.62404238 -0.14651231
v -0.11797605 0.61802073 -0.14649662
v -0.11802306 0.62394710 -0.14652661
v -0.11205871 0.61818233 -0.14991628
v -0.11203030 0.62407354 -0.14988917
v -0.11202335 0.61805909 -0.14990331
v -0.11194936 0.62404230 -0.14993614
v -0.10610986 0.61805610 -0.15322044
v -0.10602402 0.62390703 -0.15325437
v -0.10613157 0.61821669 -0.15327230
v -0.10601221 0.62395210 -0.15313074
v -0.10001567 0.61806778 -0.15644765
v -0.10003330 0.62392696 -0.15649831
v -0.09998624 0.61818664 -0.15635818
v -0.10005559 0.62394057 -0.15640050
v -0.09385336 0.61814413 -0.15943492
v -0.09385293 0.62398564 -0.15943503
v -0.09385972 0.61812140 -0.15953937
v -0.09380554 0.62399202 -0.15942612
v -0.08763530 0.61804415 -0.16246317
v -0.08771087 0.62400227 -0.16231352
v -0.08761472 0.61813318 -0.16237786
v -0.08761015 0.62402676 -0.16244236
v -0.08135278 0.61808659 -0.16515642
v -0.08146572 0.62391874 -0.16505869
v -0.08145651 0.61819029 -0.16515842
v -0.08144823 0.62390960 -0.16510913
v -0.07507125 0.61817729 -0.16781822
v -0.07503164 0.62403502 -0.16780949
v -0.07507419 0.61821197 -0.16770484
v -0.07522296 0.62400434 -0.16767707
v -0.06879370 0.61813502 -0.17019537
v -0.06882585 0.62397874 -0.17015753
v -0.06874575 0.61815703 -0.17032605
v -0.06872292 0.62393633 -0.17020407
v -0.06227113 0.61804136 -0.17264681
v -0.06237186 0.62390803 -0.17254717
v -0.06238350 0.61808399 -0.17260205
v -0.06232441 0.62396926 -0.17261296
v -0.06226944 0.62395301 -0.17261041
v -0.06452600 0.62407249 -0.16033028
v -0.05803334 0.62391603 -0.16265726
v -0.06874269 0.62399931 -0.17021522
v -0.07090118 0.62406273 -0.15790160
v -0.07513494 0.62391300 -0.16774960
v -0.07722420 0.62400286 -0.15530781
v -0.08135552 0.62407377 -0.16521152
v -0.08339644 0.62389346 -0.15241650
v -0.08773353 0.62406027 -0.16228962
v -0.08972082 0.62390661 -0.14965828
v -0.09384189 0.62403337 -0.15953249
v -0.09570872 0.62405506 -0.14649191
v -0.10001953 0.62405353 -0.15651714
v -0.10173197 0.62389127 -0.14333731
v -0.10597087 0.62399879 -0.15323163
v -0.10782643 0.62389359 -0.13995996
v -0.11196979 0.62394661 -0.14983333
v -0.11363837 0.62397400 -0.13659190
v -0.11797931 0.62398753 -0.14649883
v -0.11941268 0.62397627 -0.13304551
v -0.12369523 0.62391688 -0.14278702
v -0.12511738 0.62389456 -0.12922082
v -0.12955954 0.62398605 -0.13914564
v -0.13079301 0.62407883 -0.12533134
v -0.13513900 0.62398212 -0.13527338
v -0.13504889 0.62388756 -0.13529677
v -0.12942947 0.62408393 -0.13906618
v -0.13082284 0.62393848 -0.12527610
v -0.12520446 0.62396407 -0.12924495
v -0.12366859 0.62392942 -0.14290936
v -0.11940993 0.62407222 -0.13288626
v -0.11786779 0.62402014 -0.14646581
v -0.11360132 0.62391798 -0.13663428
v -0.11211482 0.62393172 -0.14994355
v -0.10783019 0.62400555 -0.14007110
v -0.10610094 0.62391571 -0.15330984
v -0.10185822 0.62398033 -0.14325679
v -0.10000219 0.62398183 -0.15646422
v -0.09583128 0.62389126 -0.14661408
v -0.09395224 0.62402670 -0.15943494
v -0.08967516 0.62404648 -0.14966811
v -0.08771713 0.62404301 -0.16235922
v -0.08335655 0.62389023 -0.15242629
v -0.08145533 0.62390255 -0.16524370
v -0.07708824 0.62391086 -0.15529992
v -0.07511544 0.62406405 -0.16774335
v -0.07092214 0.62394220 -0.15786652
v -0.06880742 0.62391831 -0.17023704
v -0.06442688 0.62404567 -0.16030372
v -0.06228219 0.62389791 -0.17251357
v -0.05809798 0.62402938 -0.16272912
vt -0.1797078 0.03300974
vt -0.2423588 0.02190676
vt -0.1916515 0
vt -0.2304151 0.0549165
vt -0.1670065 0.06573542
vt -0.2177138 0.08764217
vt -0.1535542 0.09815964
vt -0.2042615 0.1200664
vt -0.1393582 0.1302652
vt -0.1900655 0.1521719
vt -0.1244259 0.162035
vt -0.1751332 0.1839418
vt -0.1087654 0.1934522
vt -0.1594726 0.215359
vt -0.09238479 0.2245001
vt -0.1430921 0.2464068
vt -0.07529295 0.2551621
vt -0.1260002 0.2770689
vt -0.05749891 0.2854221
vt -0.1082062 0.3073289
vt -0.03901213 0.3152639
vt -0.08971941 0.3371707
vt -0.01984243 0.3446717
vt -0.07054971 0.3665784
vt 0 0.3736298
vt -0.05070728 0.3955365
vt 0 0.2311719
vt -0.04249006 0.1759348
vt 0 0.1759348
vt -0.04249006 0.2311719
vt 0 -0.03010266
vt 0.04249006 -0.0652067
vt 0.04249006 -0.03010266
vt 0 -0.0652067
vt 0 0.0008554966
vt 0.04249006 -0.03424854
vt 0.04249006 0.0008554966
vt 0 -0.03424854
vt 0 0.03182252
vt 0.04249006 -0.003281516
vt 0.04249006 0.03182252
vt 0 -0.003281516
vt 0 0.06278197
vt 0.04249006 0.02767793
vt 0.04249006 0.06278197
vt 0 0.02767793
vt 0 0.09371738
vt 0.04249006 0.05861334
vt 0.04249006 0.09371738
vt 0 0.05861334
vt 0 0.1246123
vt 0.04249006 0.08950829
vt 0.04249006 0.1246123
vt 0 0.08950829
vt 0 0.1554504
vt 0.04249006 0.1203463
vt 0.04249006 0.1554504
vt 0 0.1203463
vt 0 0.1862152
vt 0.04249006 0.1511111
vt 0.04249006 0.1862152
vt 0 0.1511111
vt 0 0.2168903
vt 0.04249006 0.1817863
vt 0.04249006 0.2168903
vt 0 0.1817863
vt 0 0.2474596
vt 0.04249006 0.2123556
vt 0.04249006 0.2474596
vt 0 0.2123556
vt 0 0.2779067
vt 0.04249006 0.2428026
vt 0.04249006 0.2779067
vt 0 0.2428026
vt 0 0.3082154
vt 0.04249006 0.2731114
vt 0.04249006 0.3082154
vt 0 0.2731114
vt 0.04249006 0.2034169
vt 0 0.1481798
vt 0.04249006 0.1481798
vt 0 0.2034169
vt 0 0.2625207
vt -0.04249006 0.2976247
vt -0.04249006 0.2625207
vt 0 0.2976247
vt 0 0.2334643
vt -0.04249006 0.2685683
vt -0.04249006 0.2334643
vt 0 0.2685683
vt 0 0.2042745
vt -0.04249006 0.2393786
vt -0.04249006 0.2042745
vt 0 0.2393786
vt 0 0.1749669
vt -0.04249006 0.2100709
vt -0.04249006 0.1749669
vt 0 0.2100709
vt 0 0.145557
vt -0.04249006 0.180661
vt -0.04249006 0.145557
vt 0 0.180661
vt 0 0.1160604
vt -0.04249006 0.1511644
vt -0.04249006 0.1160604
vt 0 0.1511644
vt 0 0.08649278
vt -0.04249006 0.1215968
vt -0.04249006 0.08649278
vt 0 0.1215968
vt 0 0.05686991
vt -0.04249006 0.09197395
vt -0.04249006 0.05686991
vt 0 0.09197395
vt 0 0.0272075
vt -0.04249006 0.06231154
vt -0.04249006 0.0272075
vt 0 0.06231154
vt 0 -0.002478693
vt -0.04249006 0.03262535
vt -0.04249006 -0.002478693
vt 0 0.03262535
vt 0 -0.0321729
vt -0.04249006 0.002931146
vt -0.04249006 -0.0321729
vt 0 0.002931146
vt 0 -0.06185933
vt -0.04249006 -0.02675529
vt -0.04249006 -0.06185933
vt 0 -0.02675529
vt 0.2423588 0.02190676
vt 0.1797078 0.03300974
vt 0.1916515 0
vt 0.2304151 0.0549165
vt 0.1670065 0.06573542
vt 0.2177138 0.08764217
vt 0.1535542 0.09815964
vt 0.2042615 0.1200664
vt 0.1393582 0.1302652
vt 0.1900655 0.1521719
vt 0.1244259 0.162035
vt 0.1751332 0.1839418
vt 0.1087654 0.1934522
vt 0.1594726 0.215359
vt 0.09238479 0.2245001
vt 0.1430921 0.2464068
vt 0.07529295 0.2551621
vt 0.1260002 0.2770689
vt 0.05749891 0.2854221
vt 0.1082062 0.3073289
vt 0.03901213 0.3152639
vt 0.08971941 0.3371707
vt 0.01984243 0.3446717
vt 0.07054971 0.3665784
vt 0.05070728 0.3955365
vn 0 -1 3.597456166293249e-8
vn 0 1 -3.597456166293249e-8
vn 0.9179607080721952 -1.4270075829945693e-8 -0.39667132293070245
vn -0.9179607080721952 1.4270075829945693e-8 0.39667132293070245
vn 0.35098091820994204 3.368595648440958e-8 0.9363826114641947
vn 0.34016730188611566 3.3829218732021505e-8 0.9403649327402204
vn -0.34016730188611566 -3.3829218732021505e-8 -0.9403649327402204
vn -0.35098091820994204 -3.368595648440958e-8 -0.9363826114641947
vn 0.37246703166220146 3.338602987381251e-8 0.9280454247097755
vn -0.37246703166220146 -3.338602987381251e-8 -0.9280454247097755
vn 0.39375541366152395 3.306836820457323e-8 0.9192152491186387
vn -0.39375541366152395 -3.306836820457323e-8 -0.9192152491186387
vn 0.4148347705524277 3.273313965468753e-8 0.9098967596055684
vn -0.4148347705524277 -3.273313965468753e-8 -0.9098967596055684
vn 0.43569401282430403 3.238052004155301e-8 0.9000948434409866
vn -0.43569401282430403 -3.238052004155301e-8 -0.9000948434409866
vn 0.4563220116240445 3.201069684241e-8 0.8898147120088453
vn -0.4563220116240445 -3.201069684241e-8 -0.8898147120088453
vn 0.47670768344490566 3.162386835734395e-8 0.8790618775402507
vn -0.47670768344490566 -3.162386835734395e-8 -0.8790618775402507
vn 0.4968403939785644 3.122023583718733e-8 0.8678419342894328
vn -0.4968403939785644 -3.122023583718733e-8 -0.8678419342894328
vn 0.516709343343713 3.080001509138319e-8 0.856160881202422
vn -0.516709343343713 -3.080001509138319e-8 -0.856160881202422
vn 0.5363039876340809 3.036342852652014e-8 0.844024900608852
vn -0.5363039876340809 -3.036342852652014e-8 -0.844024900608852
vn 0.555613830705286 2.991070951310323e-8 0.8314404796069269
vn -0.555613830705286 -2.991070951310323e-8 -0.8314404796069269
vn 0.5651588056424663 2.9678373433336956e-8 0.8249821358094853
vn -0.5651588056424663 -2.9678373433336956e-8 -0.8249821358094853
usemtl material_0_0
f 1/1/1 2/2/1 3/3/1
f 2/2/1 1/1/1 4/4/1
f 4/4/1 1/1/1 5/5/1
f 4/4/1 5/5/1 6/6/1
f 6/6/1 5/5/1 7/7/1
f 6/6/1 7/7/1 8/8/1
f 8/8/1 7/7/1 9/9/1
f 8/8/1 9/9/1 10/10/1
f 10/10/1 9/9/1 11/11/1
f 10/10/1 11/11/1 12/12/1
f 12/12/1 11/11/1 13/13/1
f 12/12/1 13/13/1 14/14/1
f 14/14/1 13/13/1 15/15/1
f 14/14/1 15/15/1 16/16/1
f 16/16/1 15/15/1 17/17/1
f 16/16/1 17/17/1 18/18/1
f 18/18/1 17/17/1 19/19/1
f 18/18/1 19/19/1 20/20/1
f 20/20/1 19/19/1 21/21/1
f 20/20/1 21/21/1 22/22/1
f 22/22/1 21/21/1 23/23/1
f 22/22/1 23/23/1 24/24/1
f 24/24/1 23/23/1 25/25/1
f 24/24/1 25/25/1 26/26/1
f 27/26/2 28/25/2 29/24/2
f 28/25/2 30/23/2 29/24/2
f 29/24/2 30/23/2 31/22/2
f 30/23/2 32/21/2 31/22/2
f 31/22/2 32/21/2 33/20/2
f 32/21/2 34/19/2 33/20/2
f 33/20/2 34/19/2 35/18/2
f 34/19/2 36/17/2 35/18/2
f 35/18/2 36/17/2 37/16/2
f 36/17/2 38/15/2 37/16/2
f 37/16/2 38/15/2 39/14/2
f 38/15/2 40/13/2 39/14/2
f 39/14/2 40/13/2 41/12/2
f 40/13/2 42/11/2 41/12/2
f 41/12/2 42/11/2 43/10/2
f 42/11/2 44/9/2 43/10/2
f 43/10/2 44/9/2 45/8/2
f 44/9/2 46/7/2 45/8/2
f 45/8/2 46/7/2 47/6/2
f 46/7/2 48/5/2 47/6/2
f 47/6/2 48/5/2 49/4/2
f 48/5/2 50/1/2 49/4/2
f 49/4/2 50/1/2 51/2/2
f 52/3/2 51/2/2 50/1/2
f 53/27/3 54/28/3 55/29/3
f 54/28/3 53/27/3 56/30/3
f 57/30/4 58/27/4 59/28/4
f 60/29/4 59/28/4 58/27/4
f 61/31/5 62/32/6 63/33/5
f 62/32/6 61/31/5 64/34/6
f 65/34/7 66/31/8 67/32/7
f 68/33/8 67/32/7 66/31/8
f 69/35/9 63/36/5 70/37/9
f 63/36/5 69/35/9 61/38/5
f 66/38/8 71/35/10 68/36/8
f 72/37/10 68/36/8 71/35/10
f 73/39/11 70/40/9 74/41/11
f 70/40/9 73/39/11 69/42/9
f 71/42/10 75/39/12 72/40/10
f 76/41/12 72/40/10 75/39/12
f 77/43/13 74/44/11 78/45/13
f 74/44/11 77/43/13 73/46/11
f 75/46/12 79/43/14 76/44/12
f 80/45/14 76/44/12 79/43/14
f 81/47/15 78/48/13 82/49/15
f 78/48/13 81/47/15 77/50/13
f 79/50/14 83/47/16 80/48/14
f 84/49/16 80/48/14 83/47/16
f 85/51/17 82/52/15 86/53/17
f 82/52/15 85/51/17 81/54/15
f 83/54/16 87/51/18 84/52/16
f 88/53/18 84/52/16 87/51/18
f 89/55/19 86/56/17 90/57/19
f 86/56/17 89/55/19 85/58/17
f 87/58/18 91/55/20 88/56/18
f 92/57/20 88/56/18 91/55/20
f 93/59/21 90/60/19 94/61/21
f 90/60/19 93/59/21 89/62/19
f 91/62/20 95/59/22 92/60/20
f 96/61/22 92/60/20 95/59/22
f 97/63/23 94/64/21 98/65/23
f 94/64/21 97/63/23 93/66/21
f 95/66/22 99/63/24 96/64/22
f 100/65/24 96/64/22 99/63/24
f 101/67/25 98/68/23 102/69/25
f 98/68/23 101/67/25 97/70/23
f 99/70/24 103/67/26 100/68/24
f 104/69/26 100/68/24 103/67/26
f 105/71/27 102/72/25 106/73/27
f 102/72/25 105/71/27 101/74/25
f 103/74/26 107/71/28 104/72/26
f 108/73/28 104/72/26 107/71/28
f 109/75/29 106/76/27 110/77/29
f 106/76/27 109/75/29 105/78/27
f 107/78/28 111/75/30 108/76/28
f 112/77/30 108/76/28 111/75/30
f 113/79/4 114/80/4 115/81/4
f 114/80/4 113/79/4 116/82/4
f 117/82/3 118/79/3 119/80/3
f 120/81/3 119/80/3 118/79/3
f 121/83/28 122/84/30 123/85/28
f 122/84/30 121/83/28 124/86/30
f 125/86/29 126/83/27 127/84/29
f 128/85/27 127/84/29 126/83/27
f 129/87/26 123/88/28 130/89/26
f 123/88/28 129/87/26 121/90/28
f 126/90/27 131/87/25 128/88/27
f 132/89/25 128/88/27 131/87/25
f 133/91/24 130/92/26 134/93/24
f 130/92/26 133/91/24 129/94/26
f 131/94/25 135/91/23 132/92/25
f 136/93/23 132/92/25 135/91/23
f 137/95/22 134/96/24 138/97/22
f 134/96/24 137/95/22 133/98/24
f 135/98/23 139/95/21 136/96/23
f 140/97/21 136/96/23 139/95/21
f 141/99/20 138/100/22 142/101/20
f 138/100/22 141/99/20 137/102/22
f 139/102/21 143/99/19 140/100/21
f 144/101/19 140/100/21 143/99/19
f 145/103/18 142/104/20 146/105/18
f 142/104/20 145/103/18 141/106/20
f 143/106/19 147/103/17 144/104/19
f 148/105/17 144/104/19 147/103/17
f 149/107/16 146/108/18 150/109/16
f 146/108/18 149/107/16 145/110/18
f 147/110/17 151/107/15 148/108/17
f 152/109/15 148/108/17 151/107/15
f 153/111/14 150/112/16 154/113/14
f 150/112/16 153/111/14 149/114/16
f 151/114/15 155/111/13 152/112/15
f 156/113/13 152/112/15 155/111/13
f 157/115/12 154/116/14 158/117/12
f 154/116/14 157/115/12 153/118/14
f 155/118/13 159/115/11 156/116/13
f 160/117/11 156/116/13 159/115/11
f 161/119/10 158/120/12 162/121/10
f 158/120/12 161/119/10 157/122/12
f 159/122/11 163/119/9 160/120/11
f 164/121/9 160/120/11 163/119/9
f 165/123/8 162/124/10 166/125/8
f 162/124/10 165/123/8 161/126/10
f 163/126/9 167/123/5 164/124/9
f 168/125/5 164/124/9 167/123/5
f 169/127/7 166/128/8 170/129/7
f 166/128/8 169/127/7 165/130/8
f 167/130/5 171/127/6 168/128/5
f 172/129/6 168/128/5 171/127/6
f 173/131/2 174/132/2 175/133/2
f 174/132/2 173/131/2 176/134/2
f 174/132/2 176/134/2 177/135/2
f 177/135/2 176/134/2 178/136/2
f 177/135/2 178/136/2 179/137/2
f 179/137/2 178/136/2 180/138/2
f 179/137/2 180/138/2 181/139/2
f 181/139/2 180/138/2 182/140/2
f 181/139/2 182/140/2 183/141/2
f 183/141/2 182/140/2 184/142/2
f 183/141/2 184/142/2 185/143/2
f 185/143/2 184/142/2 186/144/2
f 185/143/2 186/144/2 187/145/2
f 187/145/2 186/144/2 188/146/2
f 187/145/2 188/146/2 189/147/2
f 189/147/2 188/146/2 190/148/2
f 189/147/2 190/148/2 191/149/2
f 191/149/2 190/148/2 192/150/2
f 191/149/2 192/150/2 193/151/2
f 193/151/2 192/150/2 194/152/2
f 193/151/2 194/152/2 195/153/2
f 195/153/2 194/152/2 196/154/2
f 195/153/2 196/154/2 197/25/2
f 197/25/2 196/154/2 198/155/2
f 199/155/1 200/154/1 201/25/1
f 201/25/1 200/154/1 202/153/1
f 200/154/1 203/152/1 202/153/1
f 202/153/1 203/152/1 204/151/1
f 203/152/1 205/150/1 204/151/1
f 204/151/1 205/150/1 206/149/1
f 205/150/1 207/148/1 206/149/1
f 206/149/1 207/148/1 208/147/1
f 207/148/1 209/146/1 208/147/1
f 208/147/1 209/146/1 210/145/1
f 209/146/1 211/144/1 210/145/1
f 210/145/1 211/144/1 212/143/1
f 211/144/1 213/142/1 212/143/1
f 212/143/1 213/142/1 214/141/1
f 213/142/1 215/140/1 214/141/1
f 214/141/1 215/140/1 216/139/1
f 215/140/1 217/138/1 216/139/1
f 216/139/1 217/138/1 218/137/1
f 217/138/1 219/136/1 218/137/1
f 218/137/1 219/136/1 220/135/1
f 219/136/1 221/134/1 220/135/1
f 220/135/1 221/134/1 222/132/1
f 221/134/1 223/131/1 222/132/1
f 224/133/1 222/132/1 223/131/1
