# SSTK version 0.8.0
# 44
mtllib original-44.mtl
o #ID296
v -0.14354727 0.38433414 -0.55027060
v -0.14431758 0.38300201 -0.55619780
v -0.14372764 0.38438553 -0.55610986
v -0.14428307 0.38299543 -0.55026290
v -0.14427809 0.38296089 -0.55025481
v -0.14367567 0.38449552 -0.55035315
v -0.14430340 0.38296070 -0.55619277
v -0.14371933 0.38447923 -0.55619021
v -0.14281312 0.38522067 -0.55023187
v -0.14372970 0.38435905 -0.55616952
v -0.14274995 0.38526048 -0.55619341
v -0.14372838 0.38431986 -0.55034180
v -0.14373012 0.38435135 -0.55029052
v -0.14275216 0.38525953 -0.55022597
v -0.14373193 0.38441644 -0.55618751
v -0.14281261 0.38529892 -0.55628273
v -0.14429841 0.38292889 -0.55036677
v -0.14446673 0.38128814 -0.55615863
v -0.14442125 0.38283149 -0.55611484
v -0.14453143 0.38120162 -0.55040061
v -0.14464043 0.38126220 -0.55042307
v -0.14446236 0.38295890 -0.55032469
v -0.14445776 0.38124093 -0.55613811
v -0.14442692 0.38298272 -0.55626279
v -0.14170987 0.38596065 -0.55041371
v -0.14277660 0.38528033 -0.55617971
v -0.14174114 0.38588762 -0.55623024
v -0.14287188 0.38523572 -0.55024997
v -0.14271500 0.38519470 -0.55025922
v -0.14172355 0.38595376 -0.55041786
v -0.14270163 0.38525491 -0.55622063
v -0.14172217 0.38585826 -0.55627691
v -0.14457346 0.38120503 -0.55620183
v -0.14410518 0.37933944 -0.55035513
v -0.14396769 0.37951844 -0.55611876
v -0.14459740 0.38128871 -0.55034714
v -0.14462298 0.38127224 -0.55038761
v -0.14449119 0.38127611 -0.55627821
v -0.14395728 0.37935909 -0.55032180
v -0.14408705 0.37946484 -0.55622761
v -0.14044036 0.38614097 -0.55038974
v -0.14178961 0.38593442 -0.55627231
v -0.14046366 0.38607667 -0.55623080
v -0.14170085 0.38589817 -0.55035441
v -0.14182797 0.38591105 -0.55030301
v -0.14039120 0.38624944 -0.55038803
v -0.14172565 0.38590557 -0.55620656
v -0.14052974 0.38607513 -0.55612602
v -0.14402483 0.37950381 -0.55610662
v -0.14262394 0.37742262 -0.55039357
v -0.14258207 0.37737699 -0.55628086
v -0.14392877 0.37940257 -0.55036236
v -0.14392439 0.37951325 -0.55030773
v -0.14401470 0.37948730 -0.55611382
v -0.14269602 0.37739109 -0.55025195
v -0.14259256 0.37734990 -0.55616553
v -0.14045912 0.38610435 -0.55029207
v -0.13905884 0.38616769 -0.55620079
v -0.13900526 0.38625403 -0.55036710
v -0.14053262 0.38616550 -0.55611683
v -0.14041680 0.38612644 -0.55620758
v -0.14040963 0.38607860 -0.55038001
v -0.13893452 0.38619853 -0.55619885
v -0.13909827 0.38610416 -0.55023648
v -0.14258707 0.37734273 -0.55620421
v -0.14034255 0.37490949 -0.55042488
v -0.14027761 0.37491821 -0.55623736
v -0.14269716 0.37727852 -0.55032625
v -0.14263091 0.37737290 -0.55031819
v -0.14266905 0.37743046 -0.55618804
v -0.14020711 0.37492862 -0.55038803
v -0.14028152 0.37493662 -0.55611380
v -0.13908938 0.38617673 -0.55040563
v -0.13740327 0.38586298 -0.55617326
v -0.13731283 0.38585247 -0.55024274
v -0.13907229 0.38622759 -0.55625040
v -0.13904929 0.38626477 -0.55626261
v -0.13911338 0.38621958 -0.55023553
v -0.13740064 0.38580906 -0.55628071
v -0.13736111 0.38575028 -0.55031479
v -0.14032113 0.37495074 -0.55619747
v -0.13667309 0.37214287 -0.55028689
v -0.13660525 0.37218254 -0.55627901
v -0.14021112 0.37492304 -0.55034316
v -0.14023602 0.37487430 -0.55023151
v -0.14018455 0.37495431 -0.55614953
v -0.13672056 0.37214362 -0.55031162
v -0.13666704 0.37204977 -0.55617157
v -0.13728350 0.38574510 -0.55041591
v -0.13520893 0.38489266 -0.55610054
v -0.13523333 0.38496996 -0.55038865
v -0.13728856 0.38569747 -0.55627144
v -0.13728389 0.38573831 -0.55619382
v -0.13732169 0.38585365 -0.55039909
v -0.13527236 0.38484215 -0.55621334
v -0.13518468 0.38482867 -0.55035045
v -0.13172207 0.36902339 -0.55034142
v -0.13164466 0.36912587 -0.55621776
v -0.13183240 0.36899377 -0.55029902
v -0.13164878 0.36911692 -0.55615047
v -0.13531298 0.38492696 -0.55028067
v -0.13020099 0.38176977 -0.55613304
v -0.13016087 0.38170857 -0.55029434
v -0.13521893 0.38483274 -0.55611836
v -0.13521613 0.38494956 -0.55623551
v -0.13534104 0.38494729 -0.55033281
v -0.13020245 0.38180891 -0.55610375
v -0.13026386 0.38168988 -0.55028875
v -0.13179106 0.36900874 -0.55614813
v -0.12975457 0.36824989 -0.55041180
v -0.12978493 0.36822460 -0.55610285
v -0.13177637 0.36909228 -0.55040654
v -0.13180441 0.36897095 -0.55034192
v -0.13166241 0.36900846 -0.55627376
v -0.12977622 0.36824531 -0.55039101
v -0.12967173 0.36834126 -0.55616555
v -0.12561710 0.37792567 -0.55617846
v -0.12562153 0.37793432 -0.55039608
v -0.12561588 0.37793570 -0.55627026
v -0.12556739 0.37780515 -0.55026756
v -0.12984129 0.36825134 -0.55624216
v -0.12799357 0.36792009 -0.55032785
v -0.12816193 0.36786540 -0.55622106
v -0.12968086 0.36823259 -0.55031918
v -0.12972110 0.36833940 -0.55041862
v -0.12975536 0.36827696 -0.55609431
v -0.12805602 0.36795141 -0.55036666
v -0.12808421 0.36799257 -0.55619619
v -0.12561659 0.37783809 -0.55037743
v -0.12405757 0.37599639 -0.55609753
v -0.12405105 0.37600997 -0.55025298
v -0.12554998 0.37788830 -0.55626739
v -0.12551620 0.37789561 -0.55610374
v -0.12553043 0.37784548 -0.55039034
v -0.12415051 0.37608006 -0.55621230
v -0.12406402 0.37613150 -0.55035588
v -0.12812239 0.36779816 -0.55621256
v -0.12666313 0.36802385 -0.55039885
v -0.12671198 0.36794845 -0.55628333
v -0.12810851 0.36798187 -0.55040847
v -0.12806603 0.36793441 -0.55035308
v -0.12798177 0.36796596 -0.55626523
v -0.12657080 0.36799586 -0.55025873
v -0.12655417 0.36791331 -0.55626777
v -0.12404040 0.37605956 -0.55031447
v -0.12324890 0.37446630 -0.55617100
v -0.12312761 0.37444850 -0.55038812
v -0.12418185 0.37597353 -0.55628368
v -0.12406602 0.37616494 -0.55628492
v -0.12409188 0.37606535 -0.55026815
v -0.12323161 0.37434506 -0.55619739
v -0.12325135 0.37433839 -0.55036429
v -0.12655447 0.36799782 -0.55037046
v -0.12545459 0.36820716 -0.55610264
v -0.12663634 0.36785929 -0.55614382
v -0.12538616 0.36832841 -0.55029235
v -0.12535995 0.36819251 -0.55028177
v -0.12654674 0.36788643 -0.55035387
v -0.12540134 0.36819316 -0.55626034
v -0.12658645 0.36798546 -0.55620328
v -0.12314281 0.37446729 -0.55028887
v -0.12277763 0.37322855 -0.55610748
v -0.12272737 0.37307850 -0.55036434
v -0.12322824 0.37441499 -0.55621818
v -0.12317214 0.37432135 -0.55625957
v -0.12310786 0.37438315 -0.55035074
v -0.12277469 0.37313728 -0.55613174
v -0.12277617 0.37323062 -0.55032150
v -0.12532651 0.36834053 -0.55033922
v -0.12438507 0.36886153 -0.55610424
v -0.12548218 0.36826517 -0.55612753
v -0.12437412 0.36890766 -0.55029257
v -0.12429449 0.36879255 -0.55023269
v -0.12537153 0.36834676 -0.55036991
v -0.12431525 0.36881579 -0.55619059
v -0.12534765 0.36817299 -0.55614268
v -0.12268233 0.37197556 -0.55026765
v -0.12281553 0.37305794 -0.55616997
v -0.12273622 0.37199153 -0.55609946
v -0.12276245 0.37311583 -0.55030777
v -0.12275054 0.37307325 -0.55039063
v -0.12277675 0.37199959 -0.55042301
v -0.12282897 0.37306669 -0.55615786
v -0.12275625 0.37187289 -0.55625619
v -0.12427183 0.36890862 -0.55030862
v -0.12354567 0.36970279 -0.55619108
v -0.12435988 0.36887436 -0.55621208
v -0.12356679 0.36976924 -0.55031924
v -0.12345710 0.36982829 -0.55041242
v -0.12430355 0.36886476 -0.55029494
v -0.12345024 0.36969252 -0.55614628
v -0.12443110 0.36884152 -0.55627134
v -0.12292505 0.37084054 -0.55034458
v -0.12264547 0.37187862 -0.55616757
v -0.12287757 0.37082299 -0.55617044
v -0.12269960 0.37188406 -0.55040349
v -0.12260467 0.37198706 -0.55033122
v -0.12284943 0.37077806 -0.55039711
v -0.12276607 0.37185956 -0.55617945
v -0.12297696 0.37081161 -0.55612673
v -0.12357217 0.36971773 -0.55030807
v -0.12289447 0.37077840 -0.55611886
v -0.12347544 0.36972293 -0.55617312
v -0.12287554 0.37077454 -0.55034120
v -0.12294027 0.37074904 -0.55031234
v -0.12354545 0.36978784 -0.55034462
v -0.12288994 0.37076115 -0.55625974
v -0.12344086 0.36981893 -0.55610227
vt 0.120442 0.04249006
vt 0.1091845 0
vt 0.120442 0
vt 0.1091845 0.04249006
vt 0.06432351 0.04249006
vt 0.05603056 0
vt 0.06432351 0
vt 0.05603056 0.04249006
vt 0.1703598 0.04249006
vt 0.1590648 0
vt 0.1703598 0
vt 0.1590648 0.04249006
vt 0.005281685 0.04249006
vt -0.002887131 0
vt 0.005281685 0
vt -0.002887131 0.04249006
vt 0.2014247 0
vt 0.1883865 0.04249006
vt 0.1883865 0
vt 0.2014247 0.04249006
vt -0.04984401 0.04249006
vt -0.05858321 0
vt -0.04984401 0
vt -0.05858321 0.04249006
vt 0.202158 0
vt 0.185388 0.04249006
vt 0.185388 0
vt 0.202158 0.04249006
vt -0.09944442 0.04249006
vt -0.08955982 0
vt -0.08955982 0.04249006
vt -0.09944442 0
vt 0.1845847 0
vt 0.1616033 0.04249006
vt 0.1616033 0
vt 0.1845847 0.04249006
vt -0.1329131 0.04249006
vt -0.1209367 0
vt -0.1209367 0.04249006
vt -0.1329131 0
vt 0.1577753 0
vt 0.1265071 0.04249006
vt 0.1265071 0
vt 0.1577753 0.04249006
vt -0.1517067 0.04249006
vt -0.1365912 0
vt -0.1365912 0.04249006
vt -0.1517067 0
vt 0.1212464 0
vt 0.08199991 0.04249006
vt 0.08199991 0
vt 0.1212464 0.04249006
vt -0.159791 0.04249006
vt -0.1190363 0
vt -0.1190363 0.04249006
vt -0.159791 0
vt 0.07166495 0
vt 0.05704738 0.04249006
vt 0.05704738 0
vt 0.07166495 0.04249006
vt -0.1365493 0.04249006
vt -0.0957728 0
vt -0.0957728 0.04249006
vt -0.1365493 0
vt 0.04333172 0
vt 0.03166263 0.04249006
vt 0.03166263 0
vt 0.04333172 0.04249006
vt -0.1137806 0.04249006
vt -0.09809052 0
vt -0.09809052 0.04249006
vt -0.1137806 0
vt 0.01338573 0
vt 0.003648903 0.04249006
vt 0.003648903 0
vt 0.01338573 0.04249006
vt -0.1137439 0.04249006
vt -0.100789 0
vt -0.100789 0.04249006
vt -0.1137439 0
vt -0.01534493 0.04249006
vt -0.02405463 0
vt -0.01534493 0
vt -0.02405463 0.04249006
vt -0.1152013 0.04249006
vt -0.1060915 0
vt -0.1060915 0.04249006
vt -0.1152013 0
vt -0.04510558 0.04249006
vt -0.05335266 0
vt -0.04510558 0
vt -0.05335266 0.04249006
vt -0.1080341 0.04249006
vt -0.1162069 0
vt -0.1080341 0
vt -0.1162069 0.04249006
vt -0.07122935 0.04249006
vt -0.07967162 0
vt -0.07122935 0
vt -0.07967162 0.04249006
vt -0.1039064 0.04249006
vt -0.1117099 0
vt -0.1039064 0
vt -0.1117099 0.04249006
vt -0.09092806 0.04249006
vt -0.09900822 0
vt -0.09092806 0
vt -0.09900822 0.04249006
vn 0.8961352872459123 -0.4437809673168578 1.5964823846100464e-8
vn -0.8961352872459123 0.4437809673168578 -1.5964823846100464e-8
vn 0.7204438627457537 -0.6935132591609023 2.4948834446746816e-8
vn -0.7204438627457537 0.6935132591609023 -2.4948834446746816e-8
vn 0.9946965682027743 -0.1028529883164474 3.7000884631371788e-9
vn -0.9946965682027743 0.1028529883164474 -3.7000884631371788e-9
vn 0.48823108979426744 -0.8727143879633824 3.1395517432989446e-8
vn -0.48823108979426744 0.8727143879633824 -3.1395517432989446e-8
vn 0.9614120883228012 0.2751123341960341 -9.897048793084489e-9
vn -0.9614120883228012 -0.2751123341960341 9.897048793084489e-9
vn 0.22907527210056525 -0.9734087115451816 3.501795247687551e-8
vn -0.22907527210056525 0.9734087115451816 -3.501795247687551e-8
vn 0.8341159699345146 0.5515891122023745 -1.984317972899778e-8
vn -0.8341159699345146 -0.5515891122023745 1.984317972899778e-8
vn 0.0015784024386765682 -0.9999987543220943 3.597451830256222e-8
vn -0.0015784024386765682 0.9999987543220943 -3.597451830256222e-8
vn 0.7073289563094892 0.706884536233555 -2.5429864398849438e-8
vn -0.7073289563094892 -0.706884536233555 2.5429864398849438e-8
vn -0.21906430322432524 -0.975710423769696 3.510075685579262e-8
vn 0.21906430322432524 0.975710423769696 -3.510075685579262e-8
vn 0.618419009166393 0.7858485408153761 -2.8270559710491194e-8
vn 0.5748453480191544 0.8182620765138371 -2.9436622371253134e-8
vn -0.618419009166393 -0.7858485408153761 2.8270559710491194e-8
vn -0.5748453480191544 -0.8182620765138371 2.9436622371253134e-8
vn -0.3913687589339966 -0.9202339346766464 3.310501489216732e-8
vn 0.3913687589339966 0.9202339346766464 -3.310501489216732e-8
vn 0.5295763051062466 0.8482623044023675 -3.0515867333009455e-8
vn -0.5295763051062466 -0.8482623044023675 3.0515867333009455e-8
vn -0.532646028474746 -0.8463381170372034 3.044664554200432e-8
vn -0.5908550110180875 -0.80677776119252 2.9023479190823882e-8
vn 0.532646028474746 0.8463381170372034 -3.044664554200432e-8
vn 0.5908550110180875 0.80677776119252 -2.9023479190823882e-8
vn 0.380764287527817 0.9246721350529782 -3.326467718128432e-8
vn -0.380764287527817 -0.9246721350529782 3.326467718128432e-8
vn -0.6461373075219049 -0.7632211867003842 2.7456550611263617e-8
vn 0.6461373075219049 0.7632211867003842 -2.7456550611263617e-8
vn 0.2012509422342814 0.9795397175458544 -3.5238513975281176e-8
vn -0.2012509422342814 -0.9795397175458544 3.5238513975281176e-8
vn -0.7653038968756001 -0.6436691272905829 2.3155717846209798e-8
vn 0.7653038968756001 0.6436691272905829 -2.3155717846209798e-8
vn -0.024702133279707304 0.9996948557492082 -3.596358561775051e-8
vn 0.024702133279707304 -0.9996948557492082 3.596358561775051e-8
vn -0.8668820509814561 -0.4985132994075322 1.793380064558985e-8
vn 0.8668820509814561 0.4985132994075322 -1.793380064558985e-8
vn -0.2527017372398788 0.9675442274107917 -3.480698015435432e-8
vn 0.2527017372398788 -0.9675442274107917 3.480698015435432e-8
vn -0.9530966553735464 -0.3026660957486966 1.0888283303364252e-8
vn 0.9530966553735464 0.3026660957486966 -1.0888283303364252e-8
vn -0.5045900901306067 0.8633590452077197 -3.1058963017529603e-8
vn 0.5045900901306067 -0.8633590452077197 3.1058963017529603e-8
vn -0.9977253810868624 -0.06740967241483589 2.425036380987719e-9
vn 0.9977253810868624 0.06740967241483589 -2.425036380987719e-9
vn -0.7251403137965982 0.688601136585593 -2.4772122969619236e-8
vn 0.7251403137965982 -0.688601136585593 2.4772122969619236e-8
vn -0.977241158887377 0.2121313682048378 -7.631330488201134e-9
vn 0.977241158887377 -0.2121313682048378 7.631330488201134e-9
vn -0.8784031857688329 0.47792033146871343 -1.7192972607584487e-8
vn 0.8784031857688329 -0.47792033146871343 1.7192972607584487e-8
usemtl material_0_0
f 1/1/1 2/2/1 3/3/1
f 2/2/1 1/1/1 4/4/1
f 5/4/2 6/1/2 7/2/2
f 8/3/2 7/2/2 6/1/2
f 9/5/3 10/6/3 11/7/3
f 10/6/3 9/5/3 12/8/3
f 13/8/4 14/5/4 15/6/4
f 16/7/4 15/6/4 14/5/4
f 17/9/5 18/10/5 19/11/5
f 18/10/5 17/9/5 20/12/5
f 21/12/6 22/9/6 23/10/6
f 24/11/6 23/10/6 22/9/6
f 25/13/7 26/14/7 27/15/7
f 26/14/7 25/13/7 28/16/7
f 29/16/8 30/13/8 31/14/8
f 32/15/8 31/14/8 30/13/8
f 33/17/9 34/18/9 35/19/9
f 34/18/9 33/17/9 36/20/9
f 37/20/10 38/17/10 39/18/10
f 40/19/10 39/18/10 38/17/10
f 41/21/11 42/22/11 43/23/11
f 42/22/11 41/21/11 44/24/11
f 45/24/12 46/21/12 47/22/12
f 48/23/12 47/22/12 46/21/12
f 49/25/13 50/26/13 51/27/13
f 50/26/13 49/25/13 52/28/13
f 53/28/14 54/25/14 55/26/14
f 56/27/14 55/26/14 54/25/14
f 57/29/15 58/30/15 59/31/15
f 58/30/15 57/29/15 60/32/15
f 61/32/16 62/29/16 63/30/16
f 64/31/16 63/30/16 62/29/16
f 65/33/17 66/34/17 67/35/17
f 66/34/17 65/33/17 68/36/17
f 69/36/18 70/33/18 71/34/18
f 72/35/18 71/34/18 70/33/18
f 73/37/19 74/38/19 75/39/19
f 74/38/19 73/37/19 76/40/19
f 77/40/20 78/37/20 79/38/20
f 80/39/20 79/38/20 78/37/20
f 81/41/21 82/42/22 83/43/22
f 82/42/22 81/41/21 84/44/21
f 85/44/23 86/41/23 87/42/24
f 88/43/24 87/42/24 86/41/23
f 89/45/25 90/46/25 91/47/25
f 90/46/25 89/45/25 92/48/25
f 93/48/26 94/45/26 95/46/26
f 96/47/26 95/46/26 94/45/26
f 83/49/22 97/50/27 98/51/27
f 97/50/27 83/49/22 82/52/22
f 87/52/24 88/49/24 99/50/28
f 100/51/28 99/50/28 88/49/24
f 101/53/29 102/54/30 103/55/30
f 102/54/30 101/53/29 104/56/29
f 105/56/31 106/53/31 107/54/32
f 108/55/32 107/54/32 106/53/31
f 109/57/33 110/58/33 111/59/33
f 110/58/33 109/57/33 112/60/33
f 113/60/34 114/57/34 115/58/34
f 116/59/34 115/58/34 114/57/34
f 103/61/30 117/62/35 118/63/35
f 117/62/35 103/61/30 102/64/30
f 107/64/32 108/61/32 119/62/36
f 120/63/36 119/62/36 108/61/32
f 121/65/37 122/66/37 123/67/37
f 122/66/37 121/65/37 124/68/37
f 125/68/38 126/65/38 127/66/38
f 128/67/38 127/66/38 126/65/38
f 129/69/39 130/70/39 131/71/39
f 130/70/39 129/69/39 132/72/39
f 133/72/40 134/69/40 135/70/40
f 136/71/40 135/70/40 134/69/40
f 137/73/41 138/74/41 139/75/41
f 138/74/41 137/73/41 140/76/41
f 141/76/42 142/73/42 143/74/42
f 144/75/42 143/74/42 142/73/42
f 145/77/43 146/78/43 147/79/43
f 146/78/43 145/77/43 148/80/43
f 149/80/44 150/77/44 151/78/44
f 152/79/44 151/78/44 150/77/44
f 153/81/45 154/82/45 155/83/45
f 154/82/45 153/81/45 156/84/45
f 157/84/46 158/81/46 159/82/46
f 160/83/46 159/82/46 158/81/46
f 161/85/47 162/86/47 163/87/47
f 162/86/47 161/85/47 164/88/47
f 165/88/48 166/85/48 167/86/48
f 168/87/48 167/86/48 166/85/48
f 169/89/49 170/90/49 171/91/49
f 170/90/49 169/89/49 172/92/49
f 173/92/50 174/89/50 175/90/50
f 176/91/50 175/90/50 174/89/50
f 177/93/51 178/94/51 179/95/51
f 178/94/51 177/93/51 180/96/51
f 181/96/52 182/93/52 183/94/52
f 184/95/52 183/94/52 182/93/52
f 185/97/53 186/98/53 187/99/53
f 186/98/53 185/97/53 188/100/53
f 189/100/54 190/97/54 191/98/54
f 192/99/54 191/98/54 190/97/54
f 193/101/55 194/102/55 195/103/55
f 194/102/55 193/101/55 196/104/55
f 197/104/56 198/101/56 199/102/56
f 200/103/56 199/102/56 198/101/56
f 201/105/57 202/106/57 203/107/57
f 202/106/57 201/105/57 204/108/57
f 205/108/58 206/105/58 207/106/58
f 208/107/58 207/106/58 206/105/58
