# SSTK version 0.8.0
# 16
mtllib original-16.mtl
o #ID103
v 0.10713248 0.10852992 -0.55030772
v 0.09459462 0.10728261 -0.55042061
v 0.09613269 0.10104817 -0.55037460
v 0.10182068 0.11212952 -0.55025018
v 0.09770306 0.09403960 -0.55034858
v 0.08465595 0.12430090 -0.55024452
v 0.09243607 0.09049750 -0.55040856
v 0.09204542 0.11901063 -0.55031815
v 0.08981489 0.12771328 -0.55040703
v 0.11827525 0.10788766 -0.55041476
v 0.11294365 0.10430378 -0.55034088
v 0.11292432 0.10427142 -0.55028675
v 0.10705693 0.10838239 -0.55041596
v 0.11830742 0.10794906 -0.55042432
v 0.10186999 0.11210918 -0.55038825
v 0.08984102 0.12774262 -0.55035165
v 0.09215597 0.11892605 -0.55034687
v 0.08470291 0.12429801 -0.55038645
v 0.09466650 0.10727398 -0.55032348
v 0.09623092 0.10109227 -0.55030564
v 0.09770867 0.09417754 -0.55039517
v 0.09239032 0.09052679 -0.55034604
v 0.08456687 0.12431376 -0.55031519
v 0.08976982 0.12782139 -0.55618997
v 0.08471316 0.12422513 -0.55621201
v 0.08976367 0.12771240 -0.55040037
v 0.08977607 0.12768671 -0.55038479
v 0.08474080 0.12433962 -0.55032477
v 0.08974016 0.12778713 -0.55612147
v 0.08465896 0.12425536 -0.55610292
v 0.08466821 0.12425044 -0.55027489
v 0.09242833 0.09057467 -0.55616555
v 0.09231815 0.09047105 -0.55040041
v 0.08461754 0.12438984 -0.55617580
v 0.08473517 0.12426325 -0.55613564
v 0.08457162 0.12421413 -0.55029105
v 0.09236393 0.09045195 -0.55610072
v 0.09249951 0.09041466 -0.55039564
v 0.09777064 0.09402080 -0.55030087
v 0.09236836 0.09052744 -0.55612355
v 0.09772851 0.09410299 -0.55617885
v 0.09247308 0.09053444 -0.55023407
v 0.09232914 0.09052451 -0.55029455
v 0.09777331 0.09417505 -0.55037446
v 0.09237099 0.09055832 -0.55614960
v 0.09763222 0.09401058 -0.55617951
v 0.09625120 0.10111474 -0.55627881
v 0.09769310 0.09410195 -0.55026345
v 0.09761491 0.09411069 -0.55625857
v 0.09615708 0.10108775 -0.55030315
v 0.09620508 0.10108687 -0.55033111
v 0.09610983 0.10106598 -0.55627378
v 0.09771697 0.09415298 -0.55038723
v 0.09780490 0.09415611 -0.55626001
v 0.10719387 0.10837368 -0.55025142
v 0.09617458 0.10104910 -0.55609443
v 0.10704332 0.10854440 -0.55617726
v 0.09617279 0.10109126 -0.55029049
v 0.09613138 0.10105765 -0.55040014
v 0.10704301 0.10855049 -0.55030123
v 0.09617487 0.10112860 -0.55615661
v 0.10718891 0.10840759 -0.55617354
v 0.10711927 0.10849748 -0.55024282
v 0.11283811 0.10426589 -0.55616245
v 0.11287589 0.10437745 -0.55027256
v 0.10717391 0.10852199 -0.55613601
v 0.10703878 0.10845379 -0.55626102
v 0.10711826 0.10838043 -0.55038353
v 0.11297526 0.10438492 -0.55613838
v 0.11288888 0.10442775 -0.55028018
v 0.11823301 0.10782659 -0.55027896
v 0.11299996 0.10427320 -0.55613765
v 0.11825232 0.10800649 -0.55626490
v 0.11289249 0.10436392 -0.55041268
v 0.11290003 0.10424796 -0.55030531
v 0.11822336 0.10787528 -0.55033454
v 0.11298126 0.10433070 -0.55626102
v 0.11819832 0.10801285 -0.55624548
v 0.08985935 0.12771071 -0.55620057
v 0.11816475 0.10791047 -0.55037644
v 0.11824039 0.10795847 -0.55627257
v 0.08981412 0.12770133 -0.55023574
v 0.08976153 0.12787589 -0.55026833
v 0.08981898 0.12786394 -0.55612789
v 0.11827748 0.10795340 -0.55031785
v 0.11817327 0.10789024 -0.55628027
v 0.08469166 0.12428206 -0.55610300
v 0.09776764 0.09415265 -0.55620107
v 0.09246420 0.09042055 -0.55623835
v 0.09622823 0.10100605 -0.55616227
v 0.09464452 0.10733612 -0.55622985
v 0.09206268 0.11889967 -0.55620549
v 0.08980405 0.12786189 -0.55622285
v 0.10180178 0.11214761 -0.55628201
v 0.11818576 0.10794162 -0.55609964
v 0.10706393 0.10841351 -0.55616922
v 0.11302806 0.10441578 -0.55629004
v 0.10192518 0.11206587 -0.55623906
v 0.09477089 0.10732355 -0.55623832
v 0.10706083 0.10847009 -0.55615323
v 0.09619482 0.10105360 -0.55628353
v 0.11283529 0.10436255 -0.55618102
v 0.11822747 0.10798311 -0.55626508
v 0.08983860 0.12783059 -0.55621099
v 0.09201825 0.11896919 -0.55614530
v 0.08458560 0.12426799 -0.55625838
v 0.09765624 0.09399296 -0.55615498
v 0.09248260 0.09046335 -0.55610390
vt 0.1510083 0.04526187
vt 0.07672718 0.08604236
vt 0.0613458 0.04526187
vt 0.1355149 0.08604236
vt 0.04346932 0
vt 0.08473763 0.2197367
vt 0 0
vt 0.1062085 0.1614788
vt 0.1271566 0.2197367
vt 0.2116702 0
vt 0.1682009 0
vt -0.08473763 0.04249006
vt -0.1271566 0
vt -0.08473763 0
vt -0.1271566 0.04249006
vt -0.2355094 0.04249006
vt 0 0.04249006
vt -0.2355094 0
vt 0.04346932 0.04249006
vt 0.06463238 0
vt 0.01596817 0.04249006
vt 0.01596817 0
vt 0.06463238 0.04249006
vt 0.1510083 0.04249006
vt 0.0613458 0
vt 0.1510083 0
vt 0.0613458 0.04249006
vt 0.01130979 0.04249006
vt 0.05972696 0
vt 0.05972696 0.04249006
vt 0.01130979 0
vt 0.2116702 0.04249006
vt 0.1682009 0.04249006
vt 0.1594441 0
vt -0.07598475 0.04249006
vt -0.07598475 0
vt 0.1594441 0.04249006
vt -0.08473763 0.2197367
vt -0.04346932 0
vt -0.0613458 0.04526187
vt -0.07672718 0.08604236
vt -0.1062085 0.1614788
vt -0.1271566 0.2197367
vt -0.1355149 0.08604236
vt -0.2116702 0
vt -0.1510083 0.04526187
vt -0.1682009 0
vn 0 3.5974563119814385e-8 1
vn 0 -3.5974563119814385e-8 -1
vn -0.5591928883620307 0.8290375827459987 -2.9824263242997875e-8
vn 0.5591928883620307 -0.8290375827459987 2.9824263242997875e-8
vn -0.9747154738652907 -0.2234496475888067 8.038506251005551e-9
vn 0.9747154738652907 0.2234496475888067 -8.038506251005551e-9
vn 0.9764915565134161 0.21555565420096537 -7.754523292708784e-9
vn -0.9764915565134161 -0.21555565420096537 7.754523292708784e-9
vn -0.5764444650957075 -0.8171363280753847 2.9396124067590215e-8
vn 0.5764444650957075 0.8171363280753847 -2.9396124067590215e-8
vn 0.5730417845190606 0.8195261516237354 -2.9482096915901897e-8
vn -0.5730417845190606 -0.8195261516237354 2.9482096915901897e-8
usemtl material_0_0
f 1/1/1 2/2/1 3/3/1
f 2/2/1 1/1/1 4/4/1
f 5/5/1 6/6/1 7/7/1
f 6/6/1 5/5/1 3/3/1
f 6/6/1 3/3/1 2/2/1
f 6/6/1 2/2/1 8/8/1
f 6/6/1 8/8/1 9/9/1
f 9/9/1 8/8/1 4/4/1
f 9/9/1 4/4/1 10/10/1
f 10/10/1 4/4/1 1/1/1
f 10/10/1 1/1/1 11/11/1
f 12/11/2 13/1/2 14/10/2
f 13/1/2 15/4/2 14/10/2
f 14/10/2 15/4/2 16/9/2
f 15/4/2 17/8/2 16/9/2
f 16/9/2 17/8/2 18/6/2
f 17/8/2 19/2/2 18/6/2
f 19/2/2 20/3/2 18/6/2
f 20/3/2 21/5/2 18/6/2
f 22/7/2 18/6/2 21/5/2
f 15/4/2 13/1/2 19/2/2
f 20/3/2 19/2/2 13/1/2
f 23/12/3 24/13/3 25/14/3
f 24/13/3 23/12/3 26/15/3
f 27/15/4 28/12/4 29/13/4
f 30/14/4 29/13/4 28/12/4
f 31/16/5 32/7/5 33/17/5
f 32/7/5 31/16/5 34/18/5
f 35/18/6 36/16/6 37/7/6
f 38/17/6 37/7/6 36/16/6
f 39/19/4 40/7/4 41/5/4
f 40/7/4 39/19/4 42/17/4
f 43/17/3 44/19/3 45/7/3
f 46/5/3 45/7/3 44/19/3
f 47/20/7 48/21/7 49/22/7
f 48/21/7 47/20/7 50/23/7
f 51/23/8 52/20/8 53/21/8
f 54/22/8 53/21/8 52/20/8
f 55/24/4 56/25/4 57/26/4
f 56/25/4 55/24/4 58/27/4
f 59/27/3 60/24/3 61/25/3
f 62/26/3 61/25/3 60/24/3
f 63/28/9 64/29/9 65/30/9
f 64/29/9 63/28/9 66/31/9
f 67/31/10 68/28/10 69/29/10
f 70/30/10 69/29/10 68/28/10
f 71/32/4 72/11/4 73/10/4
f 72/11/4 71/32/4 74/33/4
f 75/33/3 76/32/3 77/11/3
f 78/10/3 77/11/3 76/32/3
f 79/34/11 80/35/11 81/36/11
f 80/35/11 79/34/11 82/37/11
f 83/37/12 84/34/12 85/35/12
f 86/36/12 85/35/12 84/34/12
f 87/38/2 88/39/2 89/7/2
f 88/39/2 87/38/2 90/40/2
f 90/40/2 87/38/2 91/41/2
f 91/41/2 87/38/2 92/42/2
f 92/42/2 87/38/2 93/43/2
f 92/42/2 93/43/2 94/44/2
f 94/44/2 93/43/2 95/45/2
f 94/44/2 95/45/2 96/46/2
f 96/46/2 95/45/2 97/47/2
f 91/41/2 96/46/2 90/40/2
f 96/46/2 91/41/2 94/44/2
f 98/44/1 99/41/1 100/46/1
f 101/40/1 100/46/1 99/41/1
f 102/47/1 103/45/1 100/46/1
f 100/46/1 103/45/1 98/44/1
f 103/45/1 104/43/1 98/44/1
f 98/44/1 104/43/1 105/42/1
f 104/43/1 106/38/1 105/42/1
f 105/42/1 106/38/1 99/41/1
f 99/41/1 106/38/1 101/40/1
f 101/40/1 106/38/1 107/39/1
f 108/7/1 107/39/1 106/38/1
