# SSTK version 0.8.0
# 81
mtllib original-81.mtl
o #ID232
v 0.06928195 0.62403999 -0.15164258
v 0.07206039 0.61817062 -0.15096782
v 0.06916424 0.61809513 -0.15170762
v 0.07199671 0.62404156 -0.15095031
v 0.07204556 0.62405903 -0.15090297
v 0.06916966 0.62397263 -0.15166418
v 0.07210347 0.61810863 -0.15078621
v 0.06918836 0.61804511 -0.15158900
v 0.06665745 0.62401431 -0.15292738
v 0.06931840 0.61808073 -0.15165580
v 0.06675530 0.61809301 -0.15283878
v 0.06932403 0.62393301 -0.15170825
v 0.06931123 0.62405662 -0.15153894
v 0.06666507 0.62396870 -0.15283035
v 0.06918439 0.61807166 -0.15169884
v 0.06675535 0.61811046 -0.15290159
v 0.07190988 0.62389945 -0.15088957
v 0.07476634 0.61806154 -0.15072375
v 0.07193337 0.61818533 -0.15096867
v 0.07464371 0.62405009 -0.15064392
v 0.07464782 0.62405420 -0.15070917
v 0.07207784 0.62392862 -0.15096791
v 0.07479466 0.61812243 -0.15069784
v 0.07201157 0.61802921 -0.15096598
v 0.06456340 0.62392973 -0.15440730
v 0.06657341 0.61808214 -0.15286931
v 0.06438433 0.61821666 -0.15448643
v 0.06667873 0.62390144 -0.15274298
v 0.06673288 0.62391693 -0.15274852
v 0.06451506 0.62397195 -0.15449315
v 0.06675337 0.61813987 -0.15274400
v 0.06447342 0.61816214 -0.15452382
v 0.07463092 0.62403206 -0.15069660
v 0.07741134 0.61820071 -0.15108597
v 0.07472681 0.61810246 -0.15064630
v 0.07750561 0.62392931 -0.15104371
v 0.07745204 0.62394068 -0.15109712
v 0.07470974 0.62397722 -0.15072079
v 0.07735626 0.61809592 -0.15121261
v 0.07476674 0.61819384 -0.15064273
v 0.06264553 0.62407214 -0.15654105
v 0.06439054 0.61817025 -0.15440347
v 0.06268472 0.61805387 -0.15656258
v 0.06449839 0.62402918 -0.15438012
v 0.06440510 0.62399150 -0.15451210
v 0.06262866 0.62388820 -0.15657886
v 0.06439319 0.61814721 -0.15454635
v 0.06265133 0.61807646 -0.15653558
v 0.07742197 0.62393495 -0.15117538
v 0.08011752 0.61814073 -0.15205820
v 0.07744140 0.61813028 -0.15106450
v 0.08006155 0.62395979 -0.15201367
v 0.07998606 0.62389092 -0.15199356
v 0.07739465 0.62401131 -0.15103123
v 0.08004912 0.61805402 -0.15200929
v 0.07733731 0.61813479 -0.15105116
v 0.06135397 0.62391930 -0.15897459
v 0.06264169 0.61813691 -0.15653451
v 0.06121107 0.61811085 -0.15898234
v 0.06260109 0.62403651 -0.15650396
v 0.06276272 0.62398165 -0.15657761
v 0.06138803 0.62392438 -0.15909338
v 0.06263471 0.61811907 -0.15650503
v 0.06121736 0.61801954 -0.15892421
v 0.08007211 0.61809364 -0.15216942
v 0.08254700 0.62403460 -0.15349408
v 0.08246064 0.61820316 -0.15358657
v 0.07994956 0.62404223 -0.15208442
v 0.08013303 0.62403929 -0.15202795
v 0.07998158 0.61820962 -0.15198870
v 0.08253137 0.62391521 -0.15353446
v 0.08239884 0.61819175 -0.15351502
v 0.06131067 0.62394559 -0.15892197
v 0.06031519 0.61810215 -0.16167151
v 0.06035456 0.62397255 -0.16176354
v 0.06131503 0.61821126 -0.15900635
v 0.06125301 0.61810208 -0.15899964
v 0.06119677 0.62401030 -0.15895993
v 0.06044791 0.61809108 -0.16167242
v 0.06043743 0.62388889 -0.16179449
v 0.08243528 0.61811766 -0.15356792
v 0.08457328 0.62407401 -0.15538862
v 0.08449830 0.61820804 -0.15547443
v 0.08253949 0.62400195 -0.15361818
v 0.08237145 0.62394652 -0.15359884
v 0.08248807 0.61821490 -0.15354794
v 0.08448313 0.62394408 -0.15554299
v 0.08445405 0.61808104 -0.15553022
v 0.06035062 0.62391438 -0.16180995
v 0.06000289 0.61818156 -0.16458480
v 0.05993816 0.62405504 -0.16446415
v 0.06029980 0.61807004 -0.16170511
v 0.06028354 0.61815997 -0.16163909
v 0.06044923 0.62397991 -0.16163556
v 0.06004745 0.61815468 -0.16456998
v 0.05993820 0.62402947 -0.16439010
v 0.08448329 0.61812586 -0.15535227
v 0.08616640 0.62403511 -0.15778451
v 0.08617602 0.61813186 -0.15783998
v 0.08451601 0.62402663 -0.15554641
v 0.08449584 0.62393615 -0.15538536
v 0.08445640 0.61820649 -0.15546364
v 0.08607988 0.62389897 -0.15786523
v 0.08614936 0.61820664 -0.15782690
v 0.06005599 0.62395949 -0.16451283
v 0.06028237 0.61812642 -0.16718927
v 0.06012945 0.62391846 -0.16727905
v 0.05991103 0.61805213 -0.16442135
v 0.05992296 0.61803767 -0.16441257
v 0.06007728 0.62407828 -0.16442544
v 0.06012083 0.61817088 -0.16732292
v 0.06026719 0.62397104 -0.16733887
v 0.08607918 0.61819813 -0.15777328
v 0.08744627 0.62400545 -0.16063643
v 0.08743795 0.61802585 -0.16056222
v 0.08615065 0.62399934 -0.15786678
v 0.08610359 0.62404351 -0.15786547
v 0.08607325 0.61807005 -0.15783433
v 0.08753946 0.62390380 -0.16059524
v 0.08748667 0.61819271 -0.16051724
v 0.06021985 0.62391153 -0.16721786
v 0.06100870 0.61802527 -0.17012259
v 0.06098327 0.62388810 -0.17018912
v 0.06019184 0.61806254 -0.16738778
v 0.06011901 0.61817160 -0.16728051
v 0.06018565 0.62406551 -0.16724905
v 0.06095524 0.61805438 -0.17020806
v 0.06106304 0.62390000 -0.17017177
v 0.08751839 0.61807457 -0.16049193
v 0.08822767 0.62391684 -0.16384881
v 0.08832451 0.61803757 -0.16393618
v 0.08738740 0.62388977 -0.16064590
v 0.08743310 0.62391573 -0.16050050
v 0.08747660 0.61821597 -0.16058591
v 0.08834918 0.62404775 -0.16392863
v 0.08826814 0.61804607 -0.16382570
v 0.06104378 0.62393233 -0.17011499
v 0.06218457 0.61802783 -0.17280298
v 0.06230665 0.62401708 -0.17282753
v 0.06104805 0.61821524 -0.17022447
v 0.06097289 0.61815745 -0.17014010
v 0.06103359 0.62393680 -0.17018866
v 0.06228188 0.61819609 -0.17276486
v 0.06218363 0.62389103 -0.17277549
v 0.08823055 0.61814113 -0.16386340
v 0.08838009 0.62407261 -0.16697749
v 0.08842224 0.61819135 -0.16688922
v 0.08834122 0.62400437 -0.16381241
v 0.08838016 0.62403552 -0.16391966
v 0.08820564 0.61805349 -0.16384618
v 0.08843292 0.62390122 -0.16694195
v 0.08838714 0.61808352 -0.16690978
v 0.06231054 0.62401028 -0.17279412
v 0.06389848 0.61810894 -0.17514291
v 0.06392393 0.62388724 -0.17514096
v 0.06226347 0.61809135 -0.17279490
v 0.06216936 0.61806316 -0.17289010
v 0.06227138 0.62398575 -0.17287182
v 0.06389594 0.61806328 -0.17500271
v 0.06379543 0.62391490 -0.17506886
v 0.08840929 0.61818431 -0.16705901
v 0.08790499 0.62402141 -0.17006695
v 0.08777364 0.61816697 -0.17007505
v 0.08836023 0.62393246 -0.16693667
v 0.08834251 0.62397068 -0.16689406
v 0.08839649 0.61806162 -0.16697703
v 0.08787461 0.62389073 -0.17004311
v 0.08784648 0.61809159 -0.16993848
v 0.06394188 0.62389295 -0.17510368
v 0.06594864 0.61810183 -0.17704883
v 0.06582299 0.62404840 -0.17704605
v 0.06391954 0.61806685 -0.17508223
v 0.06394994 0.61814203 -0.17505471
v 0.06380904 0.62405705 -0.17505377
v 0.06588253 0.61809074 -0.17707530
v 0.06595376 0.62402299 -0.17707671
v 0.08777952 0.61816029 -0.16992113
v 0.08657001 0.62404139 -0.17286156
v 0.08643096 0.61820412 -0.17279285
v 0.08775458 0.62406684 -0.17001818
v 0.08781604 0.62401062 -0.17000238
v 0.08775886 0.61819195 -0.17008030
v 0.08649411 0.62389202 -0.17287118
v 0.08641125 0.61809088 -0.17296548
v 0.06580208 0.62400517 -0.17707589
v 0.06824465 0.61805085 -0.17841106
v 0.06827751 0.62393053 -0.17836917
v 0.06588642 0.61819808 -0.17692175
v 0.06596559 0.61802899 -0.17696983
v 0.06585357 0.62407041 -0.17701823
v 0.06829733 0.61806081 -0.17838892
v 0.06838137 0.62400302 -0.17835919
v 0.08642899 0.62405433 -0.17293821
v 0.08506957 0.61816121 -0.17496930
v 0.08642144 0.61818142 -0.17279766
v 0.08507590 0.62391953 -0.17499757
v 0.08510267 0.62403447 -0.17491011
v 0.08650898 0.62392990 -0.17281504
v 0.08507549 0.61818572 -0.17494995
v 0.08651044 0.61813859 -0.17277914
v 0.07099090 0.62399161 -0.17939910
v 0.06826029 0.61816388 -0.17846821
v 0.07090362 0.61807270 -0.17945135
v 0.06841062 0.62407766 -0.17847000
v 0.06834731 0.62403296 -0.17852395
v 0.07092078 0.62403701 -0.17949720
v 0.06841046 0.61804036 -0.17837927
v 0.07095602 0.61812183 -0.17944933
v 0.08504046 0.62401033 -0.17483510
v 0.08333642 0.61804782 -0.17658360
v 0.08501692 0.61805056 -0.17480666
v 0.08327329 0.62406413 -0.17659638
v 0.08323011 0.62405703 -0.17653702
v 0.08501095 0.62393262 -0.17480554
v 0.08327461 0.61810400 -0.17666669
v 0.08502712 0.61821388 -0.17494779
v 0.07372365 0.62396486 -0.17996306
v 0.07091290 0.61820408 -0.17936685
v 0.07372312 0.61817530 -0.17980693
v 0.07102683 0.62400290 -0.17946343
v 0.07105649 0.62399775 -0.17948182
v 0.07363402 0.62397834 -0.17993998
v 0.07091327 0.61817066 -0.17940803
v 0.07369066 0.61821125 -0.17984289
v 0.08330054 0.62402705 -0.17657479
v 0.08140278 0.61810684 -0.17805219
v 0.08329815 0.61805852 -0.17658933
v 0.08141169 0.62400698 -0.17789620
v 0.08133473 0.62402702 -0.17787938
v 0.08339098 0.62399485 -0.17660019
v 0.08126373 0.61815630 -0.17802679
v 0.08335711 0.61818147 -0.17662130
v 0.07637928 0.62401359 -0.17975135
v 0.07370417 0.61812709 -0.17993082
v 0.07630490 0.61820160 -0.17980757
v 0.07357377 0.62398453 -0.17984368
v 0.07358662 0.62395132 -0.17995215
v 0.07643123 0.62390181 -0.17971812
v 0.07355833 0.61803247 -0.17978833
v 0.07635709 0.61804747 -0.17973676
v 0.08137014 0.62404488 -0.17797711
v 0.07896274 0.61815608 -0.17891743
v 0.08123607 0.61802785 -0.17800161
v 0.07909487 0.62395854 -0.17893458
v 0.07912421 0.62401632 -0.17905378
v 0.08137100 0.62393550 -0.17789130
v 0.07900317 0.61814403 -0.17894013
v 0.08122790 0.61811693 -0.17794346
v 0.07899762 0.62407105 -0.17896465
v 0.07643934 0.61819907 -0.17973302
v 0.07898307 0.61811714 -0.17898041
v 0.07631480 0.62403022 -0.17962916
v 0.07635919 0.62389373 -0.17980086
v 0.07900444 0.62407726 -0.17891786
v 0.07629191 0.61819984 -0.17979101
v 0.07912558 0.61807665 -0.17897124
vt 0.130852 0.04249006
vt 0.1161467 0
vt 0.130852 0
vt 0.1161467 0.04249006
vt 0.1106303 0.04249006
vt 0.09603449 0
vt 0.1106303 0
vt 0.09603449 0.04249006
vt 0.1489916 0.04249006
vt 0.1349848 0
vt 0.1489916 0
vt 0.1349848 0.04249006
vt 0.08227976 0.04249006
vt 0.06828104 0
vt 0.08227976 0
vt 0.06828104 0.04249006
vt 0.163724 0.04249006
vt 0.1498262 0
vt 0.163724 0
vt 0.1498262 0.04249006
vt 0.04889551 0.04249006
vt 0.03488648 0
vt 0.04889551 0
vt 0.03488648 0.04249006
vt 0.171225 0.04249006
vt 0.1568334 0
vt 0.171225 0
vt 0.1568334 0.04249006
vt 0.01642899 0.04249006
vt 0.001803551 0
vt 0.01642899 0
vt 0.001803551 0.04249006
vt 0.1708906 0
vt 0.1563669 0.04249006
vt 0.1563669 0
vt 0.1708906 0.04249006
vt -0.02729581 0.04249006
vt -0.01257706 0
vt -0.01257706 0.04249006
vt -0.02729581 0
vt 0.1646201 0
vt 0.1502998 0.04249006
vt 0.1502998 0
vt 0.1646201 0.04249006
vt -0.05840426 0.04249006
vt -0.04411995 0
vt -0.04411995 0.04249006
vt -0.05840426 0
vt 0.1519308 0
vt 0.1372054 0.04249006
vt 0.1372054 0
vt 0.1519308 0.04249006
vt -0.08880385 0.04249006
vt -0.0743735 0
vt -0.0743735 0.04249006
vt -0.08880385 0
vt 0.1335086 0
vt 0.1178166 0.04249006
vt 0.1178166 0
vt 0.1335086 0.04249006
vt -0.1134861 0.04249006
vt -0.09834598 0
vt -0.09834598 0.04249006
vt -0.1134861 0
vt 0.1102409 0
vt 0.09289169 0.04249006
vt 0.09289169 0
vt 0.1102409 0.04249006
vt -0.1306653 0.04249006
vt -0.1154749 0
vt -0.1154749 0.04249006
vt -0.1306653 0
vt 0.07952326 0
vt 0.06339154 0.04249006
vt 0.06339154 0
vt 0.07952326 0.04249006
vt -0.1465269 0.04249006
vt -0.1320997 0
vt -0.1320997 0.04249006
vt -0.1465269 0
vt 0.04488832 0
vt 0.02913633 0.04249006
vt 0.02913633 0
vt 0.04488832 0.04249006
vt -0.159768 0.04249006
vt -0.1455425 0
vt -0.1455425 0.04249006
vt -0.159768 0
vt 0.008747454 0
vt -0.007521347 0.04249006
vt -0.007521347 0
vt 0.008747454 0.04249006
vt -0.166754 0.04249006
vt -0.1521453 0
vt -0.1521453 0.04249006
vt -0.166754 0
vt -0.02391327 0.04249006
vt -0.03671006 0
vt -0.02391327 0
vt -0.03671006 0.04249006
vt -0.1517238 0.04249006
vt -0.1662145 0
vt -0.1517238 0
vt -0.1662145 0.04249006
vt -0.05087294 0.04249006
vt -0.06329476 0
vt -0.05087294 0
vt -0.06329476 0.04249006
vt -0.1468598 0.04249006
vt -0.1607206 0
vt -0.1468598 0
vt -0.1607206 0.04249006
vt -0.07610195 0.04249006
vt -0.08853394 0
vt -0.07610195 0
vt -0.08853394 0.04249006
vt -0.1358528 0.04249006
vt -0.1496786 0
vt -0.1358528 0
vt -0.1496786 0.04249006
vt -0.09847428 0.04249006
vt -0.1113007 0
vt -0.09847428 0
vt -0.1113007 0.04249006
vt -0.1182265 0.04249006
vt -0.1326165 0
vt -0.1182265 0
vt -0.1326165 0.04249006
vn 0.2558560168102754 -3.4777146013938656e-8 -0.966714900403412
vn -0.2558560168102754 3.4777146013938656e-8 0.966714900403412
vn 0.4279122798661397 -3.251453873374019e-8 -0.9038202701531768
vn -0.4279122798661397 3.251453873374019e-8 0.9038202701531768
vn 0.06110339301440447 -3.590734284450371e-8 -0.9981314419264258
vn -0.06110339301440447 3.590734284450371e-8 0.9981314419264258
vn 0.6006784099710882 -2.876132911219443e-8 -0.7994907427823067
vn -0.6006784099710882 2.876132911219443e-8 0.7994907427823067
vn -0.147553998769127 -3.5580786373010715e-8 -0.9890540012796264
vn 0.147553998769127 3.5580786373010715e-8 0.9890540012796264
vn 0.7546553549859215 -2.3603679314763354e-8 -0.6561214027838692
vn -0.7546553549859215 2.3603679314763354e-8 0.6561214027838692
vn -0.34445759743988974 -3.377298858740762e-8 -0.9388018766310268
vn 0.34445759743988974 3.377298858740762e-8 0.9388018766310268
vn 0.8707703775573363 -1.7688327193592653e-8 -0.4916898916681668
vn -0.8707703775573363 1.7688327193592653e-8 0.4916898916681668
vn -0.5184945115369599 -3.0761165423695287e-8 -0.855080956112372
vn 0.5184945115369599 3.0761165423695287e-8 0.855080956112372
vn 0.9465790668363618 -1.1600780491890704e-8 -0.3224718130739527
vn -0.9465790668363618 1.1600780491890704e-8 0.3224718130739527
vn -0.6822628339487544 -2.6301256355655073e-8 -0.7311069862969534
vn 0.6822628339487544 2.6301256355655073e-8 0.7311069862969534
vn 0.9915110931920345 -4.677486725455808e-9 -0.13002212149144698
vn -0.9915110931920345 4.677486725455808e-9 0.13002212149144698
vn -0.815607496804171 -2.0815084950876617e-8 -0.5786055747716519
vn 0.815607496804171 2.0815084950876617e-8 0.5786055747716519
vn 0.9974398309963252 2.5725694197794065e-9 0.07151072326597119
vn -0.9974398309963252 -2.5725694197794065e-9 -0.07151072326597119
vn -0.908117143012785 -1.5063134628412933e-8 -0.4187161981178862
vn 0.908117143012785 1.5063134628412933e-8 0.4187161981178862
vn 0.965880946726399 9.316927864853038e-9 0.25898647986123763
vn -0.965880946726399 -9.316927864853038e-9 -0.25898647986123763
vn -0.9677371769643195 -9.064218624132378e-9 -0.2519618152044651
vn 0.9677371769643195 9.064218624132378e-9 0.2519618152044651
vn 0.9067028972928275 1.5172990537118018e-8 0.42176990888491794
vn -0.9067028972928275 -1.5172990537118018e-8 -0.42176990888491794
vn -0.9991997070588188 -1.4389603605508464e-9 -0.03999931766381254
vn 0.9991997070588188 1.4389603605508464e-9 0.03999931766381254
vn 0.8111220061271062 2.104069629658735e-8 0.5848769880721403
vn -0.8111220061271062 -2.104069629658735e-8 -0.5848769880721403
vn -0.9806866306961558 7.036104776155528e-9 0.1955856139234724
vn 0.9806866306961558 -7.036104776155528e-9 -0.1955856139234724
vn 0.6770439667270637 2.6475214375600044e-8 0.7359425705301209
vn -0.6770439667270637 -2.6475214375600044e-8 -0.7359425705301209
vn -0.9082656991882269 1.5051534252097537e-8 0.4183938571228326
vn 0.9082656991882269 -1.5051534252097537e-8 -0.4183938571228326
vn 0.5175411238156205 3.0781936351898915e-8 0.8556583343599615
vn -0.5175411238156205 -3.0781936351898915e-8 -0.8556583343599615
vn -0.8143854568694192 2.0876912550721037e-8 0.5803243296981326
vn 0.8143854568694192 -2.0876912550721037e-8 -0.5803243296981326
vn 0.350127286475659 3.369745118825763e-8 0.9367021315579412
vn -0.350127286475659 -3.369745118825763e-8 -0.9367021315579412
vn -0.7027415010555996 2.5593931679852713e-8 0.7114452773714378
vn 0.7027415010555996 -2.5593931679852713e-8 -0.7114452773714378
vn 0.15658126231067263 3.5530820521876776e-8 0.9876650790086662
vn -0.15658126231067263 -3.5530820521876776e-8 -0.9876650790086662
vn -0.5660604005296812 2.9656125441492893e-8 0.8243637685828846
vn 0.5660604005296812 -2.9656125441492893e-8 -0.8243637685828846
vn -0.053004551424270095 3.5923992927765684e-8 0.9985942707267605
vn 0.053004551424270095 -3.5923992927765684e-8 -0.9985942707267605
vn -0.41674663639236226 3.270169334808189e-8 0.9090226845660406
vn 0.41674663639236226 -3.270169334808189e-8 -0.9090226845660406
vn -0.2526777023085847 3.4807206514097914e-8 0.9675505044988881
vn 0.2526777023085847 -3.4807206514097914e-8 -0.9675505044988881
usemtl material_0_0
f 1/1/1 2/2/1 3/3/1
f 2/2/1 1/1/1 4/4/1
f 5/4/2 6/1/2 7/2/2
f 8/3/2 7/2/2 6/1/2
f 9/5/3 10/6/3 11/7/3
f 10/6/3 9/5/3 12/8/3
f 13/8/4 14/5/4 15/6/4
f 16/7/4 15/6/4 14/5/4
f 17/9/5 18/10/5 19/11/5
f 18/10/5 17/9/5 20/12/5
f 21/12/6 22/9/6 23/10/6
f 24/11/6 23/10/6 22/9/6
f 25/13/7 26/14/7 27/15/7
f 26/14/7 25/13/7 28/16/7
f 29/16/8 30/13/8 31/14/8
f 32/15/8 31/14/8 30/13/8
f 33/17/9 34/18/9 35/19/9
f 34/18/9 33/17/9 36/20/9
f 37/20/10 38/17/10 39/18/10
f 40/19/10 39/18/10 38/17/10
f 41/21/11 42/22/11 43/23/11
f 42/22/11 41/21/11 44/24/11
f 45/24/12 46/21/12 47/22/12
f 48/23/12 47/22/12 46/21/12
f 49/25/13 50/26/13 51/27/13
f 50/26/13 49/25/13 52/28/13
f 53/28/14 54/25/14 55/26/14
f 56/27/14 55/26/14 54/25/14
f 57/29/15 58/30/15 59/31/15
f 58/30/15 57/29/15 60/32/15
f 61/32/16 62/29/16 63/30/16
f 64/31/16 63/30/16 62/29/16
f 65/33/17 66/34/17 67/35/17
f 66/34/17 65/33/17 68/36/17
f 69/36/18 70/33/18 71/34/18
f 72/35/18 71/34/18 70/33/18
f 73/37/19 74/38/19 75/39/19
f 74/38/19 73/37/19 76/40/19
f 77/40/20 78/37/20 79/38/20
f 80/39/20 79/38/20 78/37/20
f 81/41/21 82/42/21 83/43/21
f 82/42/21 81/41/21 84/44/21
f 85/44/22 86/41/22 87/42/22
f 88/43/22 87/42/22 86/41/22
f 89/45/23 90/46/23 91/47/23
f 90/46/23 89/45/23 92/48/23
f 93/48/24 94/45/24 95/46/24
f 96/47/24 95/46/24 94/45/24
f 97/49/25 98/50/25 99/51/25
f 98/50/25 97/49/25 100/52/25
f 101/52/26 102/49/26 103/50/26
f 104/51/26 103/50/26 102/49/26
f 105/53/27 106/54/27 107/55/27
f 106/54/27 105/53/27 108/56/27
f 109/56/28 110/53/28 111/54/28
f 112/55/28 111/54/28 110/53/28
f 113/57/29 114/58/29 115/59/29
f 114/58/29 113/57/29 116/60/29
f 117/60/30 118/57/30 119/58/30
f 120/59/30 119/58/30 118/57/30
f 121/61/31 122/62/31 123/63/31
f 122/62/31 121/61/31 124/64/31
f 125/64/32 126/61/32 127/62/32
f 128/63/32 127/62/32 126/61/32
f 129/65/33 130/66/33 131/67/33
f 130/66/33 129/65/33 132/68/33
f 133/68/34 134/65/34 135/66/34
f 136/67/34 135/66/34 134/65/34
f 137/69/35 138/70/35 139/71/35
f 138/70/35 137/69/35 140/72/35
f 141/72/36 142/69/36 143/70/36
f 144/71/36 143/70/36 142/69/36
f 145/73/37 146/74/37 147/75/37
f 146/74/37 145/73/37 148/76/37
f 149/76/38 150/73/38 151/74/38
f 152/75/38 151/74/38 150/73/38
f 153/77/39 154/78/39 155/79/39
f 154/78/39 153/77/39 156/80/39
f 157/80/40 158/77/40 159/78/40
f 160/79/40 159/78/40 158/77/40
f 161/81/41 162/82/41 163/83/41
f 162/82/41 161/81/41 164/84/41
f 165/84/42 166/81/42 167/82/42
f 168/83/42 167/82/42 166/81/42
f 169/85/43 170/86/43 171/87/43
f 170/86/43 169/85/43 172/88/43
f 173/88/44 174/85/44 175/86/44
f 176/87/44 175/86/44 174/85/44
f 177/89/45 178/90/45 179/91/45
f 178/90/45 177/89/45 180/92/45
f 181/92/46 182/89/46 183/90/46
f 184/91/46 183/90/46 182/89/46
f 185/93/47 186/94/47 187/95/47
f 186/94/47 185/93/47 188/96/47
f 189/96/48 190/93/48 191/94/48
f 192/95/48 191/94/48 190/93/48
f 193/97/49 194/98/49 195/99/49
f 194/98/49 193/97/49 196/100/49
f 197/100/50 198/97/50 199/98/50
f 200/99/50 199/98/50 198/97/50
f 201/101/51 202/102/51 203/103/51
f 202/102/51 201/101/51 204/104/51
f 205/104/52 206/101/52 207/102/52
f 208/103/52 207/102/52 206/101/52
f 209/105/53 210/106/53 211/107/53
f 210/106/53 209/105/53 212/108/53
f 213/108/54 214/105/54 215/106/54
f 216/107/54 215/106/54 214/105/54
f 217/109/55 218/110/55 219/111/55
f 218/110/55 217/109/55 220/112/55
f 221/112/56 222/109/56 223/110/56
f 224/111/56 223/110/56 222/109/56
f 225/113/57 226/114/57 227/115/57
f 226/114/57 225/113/57 228/116/57
f 229/116/58 230/113/58 231/114/58
f 232/115/58 231/114/58 230/113/58
f 233/117/59 234/118/59 235/119/59
f 234/118/59 233/117/59 236/120/59
f 237/120/60 238/117/60 239/118/60
f 240/119/60 239/118/60 238/117/60
f 241/121/61 242/122/61 243/123/61
f 242/122/61 241/121/61 244/124/61
f 245/124/62 246/121/62 247/122/62
f 248/123/62 247/122/62 246/121/62
f 249/125/63 250/126/63 251/127/63
f 250/126/63 249/125/63 252/128/63
f 253/128/64 254/125/64 255/126/64
f 256/127/64 255/126/64 254/125/64
