# SSTK version 0.8.0
# 32
mtllib original-32.mtl
o group_13/ID215#ID215
v 0.09789091 0.40799026 -0.55036223
v 0.09942871 0.40867114 -0.55614884
v 0.09931105 0.40854750 -0.55037385
v 0.09798321 0.40790037 -0.55624577
v 0.09793359 0.40800470 -0.55625491
v 0.09791110 0.40788902 -0.55040299
v 0.09940743 0.40868844 -0.55613521
v 0.09945201 0.40867126 -0.55027578
v 0.09132323 0.40815180 -0.55615120
v 0.09646824 0.41418904 -0.55617809
v 0.09283634 0.40755857 -0.55622087
v 0.09603792 0.41348659 -0.55625048
v 0.09511155 0.41326092 -0.55623704
v 0.09414758 0.41351555 -0.55629248
v 0.08970197 0.40914731 -0.55616744
v 0.09316229 0.41393850 -0.55629311
v 0.09219226 0.41475413 -0.55619907
v 0.08796296 0.41064101 -0.55613612
v 0.09152403 0.41605111 -0.55628333
v 0.08647972 0.41257869 -0.55623074
v 0.09113311 0.41745622 -0.55622998
v 0.09080571 0.41941358 -0.55619273
v 0.08548261 0.41509565 -0.55610510
v 0.08481947 0.41856481 -0.55628966
v 0.10062176 0.40955420 -0.55611979
v 0.10261870 0.41311138 -0.55610718
v 0.10156695 0.41088106 -0.55625017
v 0.09945390 0.40865716 -0.55627237
v 0.10295148 0.41559125 -0.55614190
v 0.09788768 0.40793353 -0.55615668
v 0.09623157 0.40746880 -0.55619793
v 0.10251624 0.41925673 -0.55624587
v 0.09464996 0.40735320 -0.55611834
v 0.09682750 0.41477127 -0.55627463
v 0.10113430 0.42487742 -0.55611988
v 0.09688557 0.41564194 -0.55628033
v 0.09555339 0.42157880 -0.55627456
v 0.09999289 0.42982979 -0.55621409
v 0.09400694 0.42705864 -0.55618944
v 0.10004036 0.43097220 -0.55616746
v 0.10052235 0.43204422 -0.55626389
v 0.10511533 0.43889558 -0.55623429
v 0.10319339 0.43926817 -0.55626354
v 0.10130697 0.43916406 -0.55611003
v 0.09375965 0.42953647 -0.55610270
v 0.09958618 0.43863541 -0.55614692
v 0.09381055 0.43157141 -0.55620782
v 0.09795523 0.43771293 -0.55624029
v 0.09449225 0.43337416 -0.55617212
v 0.09653745 0.43671469 -0.55623694
v 0.09529209 0.43515847 -0.55614373
v 0.10739285 0.42599056 -0.55610721
v 0.11346132 0.42936140 -0.55617376
v 0.11350534 0.42555537 -0.55619472
v 0.11269806 0.43255793 -0.55627136
v 0.11107054 0.43510939 -0.55624615
v 0.10738454 0.42819357 -0.55612259
v 0.10699715 0.43004904 -0.55629293
v 0.10872206 0.43723405 -0.55625610
v 0.10640488 0.43145965 -0.55609405
v 0.10525840 0.43243037 -0.55616493
v 0.10678775 0.43820718 -0.55613142
v 0.10389762 0.43298610 -0.55609621
v 0.10257068 0.43321828 -0.55619514
v 0.10126307 0.43288693 -0.55615824
v 0.10046955 0.43207658 -0.55622449
v 0.10143919 0.43274731 -0.55626124
v 0.10501595 0.43897783 -0.55621130
v 0.10254766 0.43313121 -0.55610623
v 0.10677906 0.43831489 -0.55614193
v 0.10406715 0.43303856 -0.55615507
v 0.10535552 0.43240030 -0.55623116
v 0.10870800 0.43728235 -0.55624461
v 0.10645690 0.43135451 -0.55609596
v 0.10706445 0.43003213 -0.55622362
v 0.11116509 0.43510214 -0.55617626
v 0.10748246 0.42819862 -0.55620483
v 0.10745560 0.42593338 -0.55619313
v 0.11270610 0.43243457 -0.55620196
v 0.11355013 0.42941618 -0.55626122
v 0.11338093 0.42550548 -0.55627174
v 0.09530733 0.43515443 -0.55611357
v 0.09433749 0.43337278 -0.55621434
v 0.09660054 0.43674130 -0.55628431
v 0.09784924 0.43779005 -0.55627507
v 0.09393760 0.43160468 -0.55615789
v 0.09947949 0.43864563 -0.55611385
v 0.09373863 0.42950478 -0.55628864
v 0.10127384 0.43912069 -0.55612420
v 0.09410469 0.42706616 -0.55623298
v 0.10317292 0.43919468 -0.55620958
v 0.10000120 0.43105124 -0.55629061
v 0.10001452 0.42981777 -0.55614460
v 0.09546645 0.42159324 -0.55617536
v 0.10098365 0.42491819 -0.55624256
v 0.09696415 0.41569772 -0.55618770
v 0.09678611 0.41489926 -0.55620380
v 0.10243124 0.41927151 -0.55611828
v 0.09655723 0.41406140 -0.55624427
v 0.09288188 0.40762176 -0.55623365
v 0.09457074 0.40740973 -0.55610340
v 0.09626738 0.40755479 -0.55618909
v 0.10298852 0.41558036 -0.55624444
v 0.09788646 0.40789212 -0.55617607
v 0.09928498 0.40863253 -0.55622468
v 0.10254248 0.41297373 -0.55620445
v 0.10069665 0.40957115 -0.55614305
v 0.10164567 0.41090803 -0.55627133
v 0.08486163 0.41852198 -0.55614403
v 0.08544524 0.41518331 -0.55614797
v 0.09094092 0.41930936 -0.55628520
v 0.08653307 0.41250892 -0.55617300
v 0.09116904 0.41760925 -0.55623635
v 0.09153761 0.41595239 -0.55626424
v 0.08789472 0.41055545 -0.55610597
v 0.09222737 0.41476023 -0.55623794
v 0.08969313 0.40903765 -0.55628973
v 0.09311978 0.41398458 -0.55610840
v 0.09404818 0.41334131 -0.55620779
v 0.09134466 0.40810277 -0.55618670
v 0.09502973 0.41331752 -0.55628588
v 0.09590069 0.41359902 -0.55626995
v 0.09931361 0.40859147 -0.55041616
v 0.10068179 0.40960293 -0.55611506
v 0.10052502 0.40971226 -0.55026687
v 0.09928745 0.40873855 -0.55614149
v 0.09933007 0.40872129 -0.55618144
v 0.09941240 0.40864971 -0.55035222
v 0.10059356 0.40970763 -0.55627464
v 0.10056173 0.40956453 -0.55038467
v 0.11342175 0.42934194 -0.55038175
v 0.10741390 0.42596998 -0.55024250
v 0.11333094 0.42559954 -0.55040846
v 0.11278036 0.43241801 -0.55033529
v 0.11116187 0.43504232 -0.55042159
v 0.10743627 0.42804473 -0.55026564
v 0.10704499 0.43005149 -0.55025955
v 0.10877084 0.43724934 -0.55028485
v 0.10647106 0.43145126 -0.55026156
v 0.10527921 0.43240229 -0.55023994
v 0.10682016 0.43818754 -0.55023674
v 0.10390217 0.43312939 -0.55024242
v 0.10263070 0.43311898 -0.55035805
v 0.10503414 0.43891522 -0.55040758
v 0.10127549 0.43289552 -0.55041585
v 0.10053961 0.43202625 -0.55041585
v 0.10256855 0.41302983 -0.55041299
v 0.10055444 0.40964825 -0.55033618
v 0.10169794 0.41089475 -0.55035855
v 0.09934732 0.40869043 -0.55041833
v 0.10298892 0.41560100 -0.55042231
v 0.09797379 0.40797212 -0.55034804
v 0.09621136 0.40757400 -0.55040303
v 0.10253436 0.41925654 -0.55041008
v 0.09458754 0.40750434 -0.55023855
v 0.09292069 0.40771116 -0.55038527
v 0.09657976 0.41407526 -0.55024926
v 0.09681604 0.41488967 -0.55024082
v 0.10111161 0.42495308 -0.55037254
v 0.09693874 0.41562257 -0.55029618
v 0.09544577 0.42168627 -0.55024786
v 0.10004205 0.42968915 -0.55029896
v 0.09405703 0.42704536 -0.55027443
v 0.10015513 0.43095987 -0.55023856
v 0.10316893 0.43928147 -0.55033613
v 0.10139977 0.43900921 -0.55042045
v 0.09371321 0.42950434 -0.55040262
v 0.09952955 0.43854989 -0.55034354
v 0.09393613 0.43159768 -0.55031052
v 0.09789083 0.43773816 -0.55039383
v 0.09448010 0.43338470 -0.55025119
v 0.09658340 0.43660831 -0.55029604
v 0.09540717 0.43521046 -0.55038489
v 0.09133308 0.40816102 -0.55023002
v 0.09585203 0.41365737 -0.55023030
v 0.09514366 0.41331833 -0.55025056
v 0.09413447 0.41348916 -0.55028270
v 0.08962935 0.40905935 -0.55041105
v 0.09316386 0.41380897 -0.55026078
v 0.09206628 0.41481119 -0.55031901
v 0.08784540 0.41071795 -0.55024814
v 0.09159027 0.41606780 -0.55038737
v 0.08647041 0.41259774 -0.55038309
v 0.09114202 0.41748732 -0.55023713
v 0.09088618 0.41941946 -0.55030525
v 0.08544908 0.41522916 -0.55035740
v 0.08485420 0.41866511 -0.55036977
v 0.08488180 0.41854237 -0.55040142
v 0.09081676 0.41934302 -0.55040097
v 0.08546072 0.41518440 -0.55031610
v 0.08642771 0.41247418 -0.55025753
v 0.09103518 0.41743678 -0.55028243
v 0.09143957 0.41596451 -0.55029121
v 0.08782103 0.41060001 -0.55040553
v 0.09218988 0.41470065 -0.55030971
v 0.08970907 0.40906492 -0.55037953
v 0.09310533 0.41398022 -0.55039702
v 0.09406144 0.41336773 -0.55035837
v 0.09133886 0.40827731 -0.55034908
v 0.09517218 0.41338374 -0.55041726
v 0.09603404 0.41352705 -0.55039056
v 0.09660439 0.41407180 -0.55037356
v 0.09290078 0.40768876 -0.55034881
v 0.09536003 0.43523770 -0.55033648
v 0.09648891 0.43665430 -0.55030237
v 0.09434159 0.43345042 -0.55036557
v 0.09790883 0.43774649 -0.55024872
v 0.09380741 0.43168739 -0.55041826
v 0.09947897 0.43867492 -0.55025672
v 0.09377982 0.42949044 -0.55026002
v 0.10124104 0.43905932 -0.55023473
v 0.09413735 0.42704920 -0.55042235
v 0.10319916 0.43925447 -0.55025218
v 0.10505481 0.43888736 -0.55033072
v 0.10042601 0.43205015 -0.55039206
v 0.10009353 0.43096830 -0.55027804
v 0.10001166 0.42973930 -0.55038445
v 0.09560266 0.42157451 -0.55030715
v 0.10108942 0.42499797 -0.55025778
v 0.09692246 0.41569445 -0.55029934
v 0.09693744 0.41479805 -0.55030549
v 0.10248912 0.41940298 -0.55030012
v 0.09458117 0.40736617 -0.55031817
v 0.09637168 0.40752286 -0.55036629
v 0.10300238 0.41551395 -0.55039902
v 0.09794354 0.40785761 -0.55040721
v 0.09934319 0.40870657 -0.55025031
v 0.10255391 0.41310561 -0.55041459
v 0.10066200 0.40961734 -0.55031945
v 0.10170039 0.41079401 -0.55023239
v 0.10128226 0.43280467 -0.55035759
v 0.10260774 0.43308698 -0.55035965
v 0.10691631 0.43832260 -0.55024767
v 0.10407409 0.43307010 -0.55031070
v 0.10527274 0.43247508 -0.55024232
v 0.10861385 0.43732875 -0.55028170
v 0.10646116 0.43135743 -0.55041708
v 0.10712536 0.42990248 -0.55038798
v 0.11106665 0.43505508 -0.55039193
v 0.10742945 0.42818201 -0.55031375
v 0.10735832 0.42592658 -0.55041790
v 0.11273764 0.43247740 -0.55041539
v 0.11343061 0.42925066 -0.55029844
v 0.11337032 0.42550926 -0.55033617
v 0.09631871 0.40752750 -0.55034351
v 0.09799473 0.40789056 -0.55619795
v 0.09796430 0.40803671 -0.55040450
v 0.09629919 0.40745381 -0.55618802
v 0.09635575 0.40755771 -0.55627369
v 0.09625442 0.40742380 -0.55030596
v 0.09799012 0.40799422 -0.55618499
v 0.09799954 0.40785176 -0.55040672
v 0.08485220 0.41857200 -0.55030239
v 0.09099014 0.41940279 -0.55627719
v 0.08491637 0.41863306 -0.55628645
v 0.09081968 0.41944003 -0.55033943
v 0.09090921 0.41934414 -0.55038262
v 0.08487299 0.41871379 -0.55030969
v 0.09093066 0.41937489 -0.55618376
v 0.08479701 0.41864499 -0.55617944
v 0.09105448 0.41752740 -0.55029669
v 0.09080099 0.41944439 -0.55626427
v 0.09086858 0.41944790 -0.55033443
v 0.09110573 0.41758520 -0.55610596
v 0.09098626 0.41760994 -0.55620995
v 0.09110932 0.41757408 -0.55035055
v 0.09090177 0.41949938 -0.55617756
v 0.09097774 0.41945145 -0.55025227
v 0.09105157 0.41745884 -0.55024905
v 0.09148325 0.41588952 -0.55620331
v 0.09098725 0.41743197 -0.55614002
v 0.09140398 0.41603896 -0.55037233
v 0.09148319 0.41603233 -0.55029008
v 0.09099263 0.41754068 -0.55038209
v 0.09140307 0.41588097 -0.55614748
v 0.09114514 0.41757530 -0.55609595
v 0.09155531 0.41604990 -0.55031238
v 0.09218404 0.41473213 -0.55615843
v 0.09153831 0.41598295 -0.55621063
v 0.09223917 0.41478190 -0.55035380
v 0.09217936 0.41472657 -0.55024317
v 0.09154868 0.41605786 -0.55034487
v 0.09220199 0.41482032 -0.55622794
v 0.09153289 0.41599853 -0.55616068
v 0.09221826 0.41480684 -0.55039950
v 0.09299616 0.41382802 -0.55618290
v 0.09223740 0.41472980 -0.55614800
v 0.09299291 0.41383588 -0.55040607
v 0.09316828 0.41399711 -0.55027883
v 0.09206815 0.41476321 -0.55030113
v 0.09298882 0.41380688 -0.55616756
v 0.09212325 0.41470435 -0.55622529
v 0.09315817 0.41393993 -0.55040158
v 0.09410433 0.41331954 -0.55621360
v 0.09308399 0.41395830 -0.55621044
v 0.09400291 0.41333687 -0.55029875
v 0.09412437 0.41336181 -0.55040036
v 0.09304811 0.41394011 -0.55042121
v 0.09411441 0.41343956 -0.55614876
v 0.09310013 0.41384772 -0.55624953
v 0.09410146 0.41349491 -0.55033705
v 0.09510337 0.41340291 -0.55617077
v 0.09417288 0.41341209 -0.55619802
v 0.09506172 0.41340808 -0.55041349
v 0.09517607 0.41329412 -0.55025848
v 0.09417702 0.41351105 -0.55026205
v 0.09506174 0.41332044 -0.55621352
v 0.09400351 0.41333012 -0.55610541
v 0.09515234 0.41323423 -0.55612176
v 0.09586480 0.41352226 -0.55036588
v 0.09598568 0.41352407 -0.55619199
v 0.09515169 0.41333180 -0.55036820
v 0.09516726 0.41336040 -0.55025512
v 0.09499935 0.41327780 -0.55611254
v 0.09598769 0.41357731 -0.55026070
v 0.09599234 0.41363885 -0.55626245
v 0.09592378 0.41350013 -0.55614923
v 0.09652712 0.41406815 -0.55032214
v 0.09661100 0.41416077 -0.55612196
v 0.09587625 0.41353983 -0.55034123
v 0.09603908 0.41364008 -0.55040104
v 0.09604651 0.41347724 -0.55620883
v 0.09648926 0.41402981 -0.55036750
v 0.09659832 0.41415840 -0.55612023
v 0.09659256 0.41413038 -0.55612861
v 0.09692465 0.41474301 -0.55040764
v 0.09683664 0.41490824 -0.55621293
v 0.09646541 0.41416679 -0.55038785
v 0.09650381 0.41413994 -0.55033931
v 0.09658569 0.41407967 -0.55614793
v 0.09688628 0.41479792 -0.55023992
v 0.09693565 0.41480174 -0.55622768
v 0.09683585 0.41479429 -0.55612182
v 0.09692557 0.41578584 -0.55039338
v 0.09688953 0.41576249 -0.55619933
v 0.09687378 0.41482269 -0.55037855
v 0.09681652 0.41475149 -0.55022721
v 0.09687522 0.41480958 -0.55625847
v 0.09690293 0.41573309 -0.55032745
v 0.09694753 0.41564497 -0.55611823
v 0.09696087 0.41567715 -0.55034700
v 0.09548049 0.42174470 -0.55625430
v 0.09693495 0.41571397 -0.55628499
v 0.09552619 0.42169805 -0.55033506
v 0.09556683 0.42160370 -0.55022679
v 0.09687270 0.41571240 -0.55024871
v 0.09559974 0.42164385 -0.55617884
v 0.09691585 0.41577555 -0.55627711
v 0.09414091 0.42717772 -0.55625118
v 0.09413779 0.42708091 -0.55029813
v 0.09402690 0.42713661 -0.55027398
v 0.09412472 0.42704686 -0.55614570
v 0.09397543 0.42717496 -0.55610178
v 0.09368224 0.42950566 -0.55023162
v 0.09373147 0.42946792 -0.55624833
v 0.09402963 0.42706973 -0.55040353
v 0.09410483 0.42706510 -0.55031730
v 0.09413740 0.42718445 -0.55619036
v 0.09369051 0.42958804 -0.55029899
v 0.09383384 0.42966278 -0.55614498
v 0.09385103 0.42965954 -0.55617626
v 0.09388779 0.43166585 -0.55032221
v 0.09387442 0.43171059 -0.55617517
v 0.09379812 0.42965497 -0.55024340
v 0.09382834 0.42954099 -0.55028155
v 0.09380261 0.42966052 -0.55610617
v 0.09388758 0.43159794 -0.55030519
v 0.09392579 0.43161767 -0.55609435
v 0.09389757 0.43169747 -0.55611158
v 0.09438387 0.43346885 -0.55029593
v 0.09439533 0.43344321 -0.55610291
v 0.09381349 0.43151861 -0.55022616
v 0.09394302 0.43155824 -0.55027846
v 0.09395084 0.43154974 -0.55627311
v 0.09440618 0.43335378 -0.55035387
v 0.09436950 0.43348149 -0.55617981
v 0.09437873 0.43340532 -0.55628101
v 0.09525829 0.43523073 -0.55030959
v 0.09540442 0.43511546 -0.55622744
v 0.09436276 0.43343380 -0.55028872
v 0.09446521 0.43349474 -0.55038083
v 0.09447204 0.43338121 -0.55624677
v 0.09529641 0.43512810 -0.55039658
v 0.09540347 0.43514800 -0.55628816
v 0.09540590 0.43522021 -0.55618543
v 0.09647982 0.43673155 -0.55026122
v 0.09647043 0.43673439 -0.55618182
v 0.09531692 0.43524008 -0.55035583
v 0.09541248 0.43513255 -0.55035263
v 0.09531205 0.43527641 -0.55612660
v 0.09657481 0.43663596 -0.55025861
v 0.09651063 0.43657078 -0.55622153
v 0.09651500 0.43663848 -0.55615386
v 0.09802247 0.43777021 -0.55023366
v 0.09793095 0.43785159 -0.55612894
v 0.09645063 0.43668803 -0.55035060
v 0.09663667 0.43668509 -0.55037496
v 0.09652195 0.43676255 -0.55609591
v 0.09804435 0.43784121 -0.55039623
v 0.09795457 0.43779345 -0.55622615
v 0.09804032 0.43788152 -0.55624767
v 0.09956938 0.43871565 -0.55034428
v 0.09947063 0.43855939 -0.55627166
v 0.09800490 0.43780429 -0.55033786
v 0.09784600 0.43780160 -0.55039740
v 0.09797482 0.43782670 -0.55627119
v 0.09943610 0.43867836 -0.55028230
v 0.09959868 0.43857770 -0.55610355
v 0.09953569 0.43859832 -0.55629059
v 0.10121886 0.43899411 -0.55032214
v 0.10133710 0.43900780 -0.55612263
v 0.09961648 0.43863878 -0.55040311
v 0.09948860 0.43855644 -0.55041569
v 0.09948225 0.43858468 -0.55616570
v 0.10131749 0.43917780 -0.55024344
v 0.10133013 0.43905950 -0.55628697
v 0.10127437 0.43913965 -0.55031888
v 0.10319377 0.43929372 -0.55623083
v 0.10122563 0.43900443 -0.55628777
v 0.10308324 0.43913218 -0.55033081
v 0.10310893 0.43925030 -0.55036585
v 0.10136177 0.43912693 -0.55025544
v 0.10319938 0.43926335 -0.55612013
v 0.10134949 0.43915542 -0.55618183
v 0.10325412 0.43930108 -0.55024980
v 0.10498398 0.43892675 -0.55613578
v 0.10314698 0.43916306 -0.55618251
v 0.10502658 0.43886801 -0.55024317
v 0.10496219 0.43902645 -0.55031993
v 0.10317953 0.43923459 -0.55041596
v 0.10506811 0.43897729 -0.55609993
v 0.10316348 0.43918583 -0.55613443
v 0.10506782 0.43887434 -0.55028491
v 0.10687968 0.43819783 -0.55609583
v 0.10510113 0.43889812 -0.55625385
v 0.10686902 0.43823446 -0.55024954
v 0.10692991 0.43824326 -0.55022955
v 0.10506500 0.43886768 -0.55026969
v 0.10685163 0.43830512 -0.55627804
v 0.10504755 0.43886024 -0.55613080
v 0.10677814 0.43824194 -0.55042294
v 0.10860138 0.43714558 -0.55623484
v 0.10679702 0.43831934 -0.55619247
v 0.10876954 0.43713543 -0.55033660
v 0.10878092 0.43730336 -0.55023435
v 0.10691331 0.43830258 -0.55030351
v 0.10866146 0.43723478 -0.55616261
v 0.10693969 0.43829860 -0.55625079
v 0.10874042 0.43731992 -0.55037578
v 0.11116178 0.43498324 -0.55627217
v 0.10860957 0.43731830 -0.55621161
v 0.11106482 0.43499556 -0.55023641
v 0.11118113 0.43497989 -0.55031234
v 0.10860681 0.43723741 -0.55042145
v 0.11110350 0.43506222 -0.55610015
v 0.10876520 0.43727680 -0.55615381
v 0.11124342 0.43515031 -0.55027450
v 0.11282257 0.43238089 -0.55610218
v 0.11120285 0.43513225 -0.55611009
v 0.11281783 0.43248182 -0.55033498
v 0.11275268 0.43239931 -0.55027758
v 0.11111813 0.43516692 -0.55034779
v 0.11274425 0.43236337 -0.55615110
v 0.11109576 0.43500920 -0.55611999
v 0.11274596 0.43246482 -0.55026068
v 0.11352429 0.42931691 -0.55626524
v 0.11271295 0.43239384 -0.55614668
v 0.11355055 0.42937055 -0.55041429
v 0.11356635 0.42928305 -0.55041893
v 0.11267390 0.43238035 -0.55037709
v 0.11343456 0.42941548 -0.55620986
v 0.11279314 0.43251391 -0.55617694
v 0.11337900 0.42565726 -0.55035809
v 0.11347963 0.42938696 -0.55617549
v 0.11349813 0.42934118 -0.55026659
v 0.11339036 0.42564195 -0.55612622
v 0.11331186 0.42556397 -0.55627737
v 0.11331613 0.42561405 -0.55038835
v 0.11359866 0.42931237 -0.55627539
v 0.11352597 0.42927183 -0.55032782
v 0.11332432 0.42557201 -0.55022592
v 0.10746182 0.42597040 -0.55615269
v 0.11345998 0.42561332 -0.55621857
v 0.10733191 0.42595386 -0.55032697
v 0.10735577 0.42590385 -0.55028129
v 0.11345232 0.42563349 -0.55032587
v 0.10745363 0.42581134 -0.55617051
v 0.11339431 0.42559562 -0.55623288
v 0.10741304 0.42581337 -0.55619732
v 0.10734554 0.42819502 -0.55029273
v 0.10742585 0.42812076 -0.55622862
v 0.10730099 0.42586651 -0.55032302
v 0.10742194 0.42586337 -0.55041441
v 0.10746851 0.42582729 -0.55610628
v 0.10743189 0.42816103 -0.55028060
v 0.10733484 0.42810540 -0.55610715
v 0.10742623 0.42803877 -0.55615062
v 0.10699308 0.42997083 -0.55031536
v 0.10716901 0.42996497 -0.55609833
v 0.10734178 0.42805701 -0.55035621
v 0.10733379 0.42805860 -0.55031154
v 0.10750640 0.42805798 -0.55611696
v 0.10716198 0.42991622 -0.55034630
v 0.10704481 0.43005929 -0.55619566
v 0.10718218 0.42988913 -0.55036491
v 0.10639685 0.43132398 -0.55624985
v 0.10700354 0.42993659 -0.55629397
v 0.10645696 0.43131816 -0.55031884
v 0.10629916 0.43145032 -0.55032578
v 0.10711860 0.43005058 -0.55039254
v 0.10641949 0.43143016 -0.55628956
v 0.10711183 0.42997015 -0.55628125
v 0.10637363 0.43149398 -0.55028124
v 0.10523065 0.43246344 -0.55610645
v 0.10631082 0.43140951 -0.55624236
v 0.10536866 0.43236525 -0.55024008
v 0.10524447 0.43246126 -0.55024563
v 0.10633894 0.43144643 -0.55027215
v 0.10523372 0.43251125 -0.55624876
v 0.10644307 0.43135371 -0.55627525
v 0.10539107 0.43250321 -0.55039095
v 0.10392731 0.43305688 -0.55625159
v 0.10532929 0.43240243 -0.55610643
v 0.10389803 0.43308953 -0.55040719
v 0.10398958 0.43308908 -0.55028160
v 0.10532382 0.43254065 -0.55030481
v 0.10391592 0.43314080 -0.55619458
v 0.10539432 0.43252303 -0.55611644
v 0.10397229 0.43303127 -0.55036037
v 0.10249812 0.43312420 -0.55621378
v 0.10397806 0.43317312 -0.55627291
v 0.10262088 0.43324395 -0.55040205
v 0.10256572 0.43325280 -0.55029732
v 0.10389260 0.43299603 -0.55026560
v 0.10251845 0.43314226 -0.55623736
v 0.10400193 0.43306047 -0.55620707
v 0.10141079 0.43272816 -0.55040447
v 0.10256673 0.43311416 -0.55619019
v 0.10254336 0.43315727 -0.55033826
v 0.10138546 0.43273826 -0.55625218
v 0.10138379 0.43274985 -0.55615972
v 0.10140079 0.43285173 -0.55028367
v 0.10261674 0.43320244 -0.55611028
v 0.10250391 0.43319985 -0.55025992
v 0.10059534 0.43195398 -0.55027416
v 0.10140958 0.43279628 -0.55626297
v 0.10142441 0.43277824 -0.55027107
v 0.10043682 0.43195679 -0.55618150
v 0.10043134 0.43198808 -0.55611745
v 0.10042119 0.43196733 -0.55028870
v 0.10145489 0.43280295 -0.55627279
v 0.10143693 0.43277915 -0.55040218
v 0.10001979 0.43094335 -0.55026645
v 0.10046286 0.43195434 -0.55609876
v 0.10040542 0.43208834 -0.55030431
v 0.10013861 0.43103105 -0.55611383
v 0.10014525 0.43109050 -0.55618361
v 0.10011564 0.43099680 -0.55026103
v 0.10052557 0.43200608 -0.55610597
v 0.10054773 0.43198567 -0.55042452
v 0.09994119 0.42976255 -0.55026508
v 0.10012352 0.43102893 -0.55620199
v 0.10015203 0.43089975 -0.55033924
v 0.09994912 0.42964333 -0.55621711
v 0.09997662 0.42977237 -0.55624269
v 0.09994369 0.42980215 -0.55028760
v 0.10013292 0.43092626 -0.55610887
v 0.10007378 0.43103025 -0.55026297
v 0.09985536 0.42969744 -0.55028965
v 0.10096125 0.42494831 -0.55619603
v 0.09995791 0.42965486 -0.55619535
v 0.10097290 0.42496671 -0.55034246
v 0.10107206 0.42485979 -0.55033156
v 0.09994171 0.42982704 -0.55032880
v 0.10099587 0.42497232 -0.55621064
v 0.09988573 0.42972610 -0.55611459
v 0.10257723 0.41940529 -0.55609916
v 0.10253480 0.41943938 -0.55040194
v 0.10251638 0.41941584 -0.55038199
v 0.10256536 0.41928545 -0.55615487
v 0.10297199 0.41561108 -0.55024581
v 0.10245680 0.41926580 -0.55612428
v 0.10245399 0.41942571 -0.55038778
v 0.10298879 0.41568570 -0.55614357
v 0.10294928 0.41557683 -0.55616324
v 0.10291716 0.41570776 -0.55036898
v 0.10247722 0.41927875 -0.55610971
v 0.10244011 0.41941547 -0.55023567
v 0.10258282 0.41304990 -0.55037740
v 0.10297233 0.41557372 -0.55624060
v 0.10305300 0.41559453 -0.55037904
v 0.10270075 0.41305453 -0.55620709
v 0.10261576 0.41300982 -0.55622389
v 0.10269015 0.41311621 -0.55023247
v 0.10295525 0.41558924 -0.55614882
v 0.10308061 0.41562354 -0.55038662
v 0.10161144 0.41078236 -0.55029451
v 0.10265300 0.41309019 -0.55617625
v 0.10260793 0.41306940 -0.55042424
v 0.10166143 0.41084378 -0.55625976
v 0.10162155 0.41081485 -0.55623066
v 0.10158804 0.41078947 -0.55037329
v 0.10254369 0.41297029 -0.55617927
v 0.10255658 0.41292920 -0.55025922
v 0.10065496 0.40958277 -0.55034232
v 0.10160374 0.41089206 -0.55617499
v 0.10166863 0.41078714 -0.55040182
v 0.10063569 0.40966435 -0.55623493
v 0.10051677 0.40969580 -0.55624778
v 0.10053084 0.40964680 -0.55030574
v 0.10158245 0.41081388 -0.55628314
v 0.10175004 0.41089201 -0.55025824
v 0.09629280 0.40746519 -0.55025045
v 0.09450712 0.40745263 -0.55625830
v 0.09632452 0.40749702 -0.55624309
v 0.09455987 0.40740759 -0.55025157
v 0.09457220 0.40743148 -0.55040696
v 0.09627376 0.40756462 -0.55038975
v 0.09462678 0.40748608 -0.55612754
v 0.09631104 0.40745034 -0.55629265
v 0.09459030 0.40733074 -0.55022769
v 0.09297170 0.40762787 -0.55621556
v 0.09467552 0.40737957 -0.55613077
v 0.09286176 0.40768128 -0.55023267
v 0.09281544 0.40758943 -0.55027236
v 0.09452509 0.40748417 -0.55023791
v 0.09287797 0.40764229 -0.55620933
v 0.09459488 0.40736835 -0.55624439
v 0.09287806 0.40757088 -0.55034220
v 0.09122308 0.40822059 -0.55609667
v 0.09284009 0.40764512 -0.55626814
v 0.09123916 0.40818219 -0.55042059
v 0.09133038 0.40817361 -0.55041722
v 0.09294920 0.40758271 -0.55028288
v 0.09121679 0.40820566 -0.55627189
v 0.09284773 0.40757874 -0.55620911
v 0.09132786 0.40826255 -0.55042089
v 0.08966477 0.40912028 -0.55621367
v 0.09124141 0.40825595 -0.55617689
v 0.08962656 0.40899373 -0.55033157
v 0.08970344 0.40910256 -0.55032441
v 0.09131586 0.40818560 -0.55035726
v 0.08972119 0.40915676 -0.55616563
v 0.09132454 0.40822291 -0.55615792
v 0.08963395 0.40899998 -0.55041337
v 0.08796786 0.41063915 -0.55615327
v 0.08963574 0.40911364 -0.55614151
v 0.08793715 0.41058702 -0.55035014
v 0.08780603 0.41051917 -0.55024251
v 0.08964816 0.40915550 -0.55027312
v 0.08783952 0.41056083 -0.55623006
v 0.08976469 0.40899854 -0.55612144
v 0.08780463 0.41053514 -0.55041581
v 0.08644593 0.41257592 -0.55621724
v 0.08793784 0.41059466 -0.55616940
v 0.08650244 0.41252791 -0.55030733
v 0.08659176 0.41254132 -0.55033713
v 0.08791295 0.41063258 -0.55040884
v 0.08652625 0.41260766 -0.55622466
v 0.08792330 0.41067150 -0.55629157
v 0.08654168 0.41256902 -0.55042339
v 0.08554127 0.41520920 -0.55609912
v 0.08651059 0.41264830 -0.55627332
v 0.08557754 0.41519124 -0.55037251
v 0.08549925 0.41516803 -0.55038222
v 0.08649149 0.41253947 -0.55042041
v 0.08555052 0.41507957 -0.55627132
v 0.08656459 0.41266018 -0.55616415
v 0.08543071 0.41513234 -0.55628079
v 0.08486592 0.41863085 -0.55036211
v 0.08488287 0.41853663 -0.55621962
v 0.08545501 0.41514433 -0.55027624
v 0.08551553 0.41519229 -0.55029168
v 0.08558712 0.41524839 -0.55624129
v 0.08477631 0.41857538 -0.55036965
v 0.08495974 0.41864565 -0.55628132
vt -0.1881906 0.04249006
vt -0.1773302 0
vt -0.1773302 0.04249006
vt -0.1881906 0
vt -0.05845099 0.2297684
vt -0.05138641 0.1764167
vt -0.04719213 0.2267015
vt -0.05269581 0.1816637
vt -0.05662402 0.1863504
vt -0.06260968 0.1896554
vt -0.07072867 0.2307907
vt -0.07009148 0.1907571
vt -0.07850922 0.189338
vt -0.08678838 0.2288861
vt -0.08685228 0.1850807
vt -0.1020621 0.2231724
vt -0.09512065 0.1779852
vt -0.1033143 0.1680515
vt -0.1175599 0.2124171
vt -0.1342918 0.1953879
vt -0.01139614 0.1862431
vt -0.01292567 0.1593688
vt -0.01030716 0.1752217
vt -0.01466308 0.1964522
vt -0.0207812 0.1434786
vt -0.02010797 0.2058491
vt -0.02773083 0.2144337
vt -0.03761523 0.1242274
vt -0.03695207 0.2215899
vt -0.05232178 0.1710391
vt -0.06716925 0.09829145
vt -0.05512789 0.1659602
vt -0.08580196 0.1377275
vt -0.09156005 0.07543645
vt -0.1148329 0.1124825
vt -0.09571233 0.06796749
vt -0.09709642 0.06049854
vt -0.0979498 0.004406684
vt -0.109427 0.009915038
vt -0.1194834 0.01762673
vt -0.1256996 0.09991595
vt -0.1276613 0.02702828
vt -0.1328634 0.0879096
vt -0.1335026 0.03760619
vt -0.1368476 0.07564184
vt -0.1370074 0.04936046
vt -0.1381757 0.06229109
vt -0.03515777 0.06886377
vt -0.01366469 0.02629072
vt 0 0.04765193
vt -0.02983381 0.01150219
vt -0.04876936 0.002875548
vt -0.04338675 0.05611986
vt -0.05221383 0.04701707
vt -0.07073334 0
vt -0.06163901 0.0415554
vt -0.07166229 0.03973484
vt -0.08505193 0.001101671
vt -0.08157383 0.04130332
vt -0.08976517 0.04600876
vt -0.09526361 0.05276817
vt -0.1915747 0.04249006
vt -0.1808556 0
vt -0.1808556 0.04249006
vt -0.1915747 0
vt 0.01366469 0.02629072
vt 0.03515777 0.06886377
vt 0.02983381 0.01150219
vt 0.04876936 0.002875548
vt 0.04338675 0.05611986
vt 0.05221383 0.04701707
vt 0.07073334 0
vt 0.06163901 0.0415554
vt 0.07166229 0.03973484
vt 0.08505193 0.001101671
vt 0.08157383 0.04130332
vt 0.08976517 0.04600876
vt 0.0979498 0.004406684
vt 0.09526361 0.05276817
vt 0.09709642 0.06049854
vt 0.01292567 0.1593688
vt 0.01139614 0.1862431
vt 0.01030716 0.1752217
vt 0.01466308 0.1964522
vt 0.0207812 0.1434786
vt 0.02010797 0.2058491
vt 0.02773083 0.2144337
vt 0.03761523 0.1242274
vt 0.03695207 0.2215899
vt 0.04719213 0.2267015
vt 0.05138641 0.1764167
vt 0.05232178 0.1710391
vt 0.06716925 0.09829145
vt 0.05512789 0.1659602
vt 0.08580196 0.1377275
vt 0.09156005 0.07543645
vt 0.1148329 0.1124825
vt 0.09571233 0.06796749
vt 0.109427 0.009915038
vt 0.1194834 0.01762673
vt 0.1256996 0.09991595
vt 0.1276613 0.02702828
vt 0.1328634 0.0879096
vt 0.1335026 0.03760619
vt 0.1368476 0.07564184
vt 0.1370074 0.04936046
vt 0.1381757 0.06229109
vt 0.05845099 0.2297684
vt 0.05269581 0.1816637
vt 0.05662402 0.1863504
vt 0.06260968 0.1896554
vt 0.07072867 0.2307907
vt 0.07009148 0.1907571
vt 0.07850922 0.189338
vt 0.08678838 0.2288861
vt 0.08685228 0.1850807
vt 0.1020621 0.2231724
vt 0.09512065 0.1779852
vt 0.1033143 0.1680515
vt 0.1175599 0.2124171
vt 0.1342918 0.1953879
vt -0.1787559 0.04249006
vt -0.1672753 0
vt -0.1672753 0.04249006
vt -0.1787559 0
vt 0.2299734 0.04249006
vt 0.1886589 0
vt 0.2299734 0
vt 0.1886589 0.04249006
vt -0.07677814 0.04249006
vt -0.06390122 0
vt -0.06390122 0.04249006
vt -0.07677814 0
vt -0.04372471 0.04249006
vt -0.05462022 0
vt -0.04372471 0
vt -0.05462022 0.04249006
vt -0.006761491 0.04249006
vt -0.01612799 0
vt -0.006761491 0
vt -0.01612799 0.04249006
vt 0.0459415 0.04249006
vt 0.03740497 0
vt 0.0459415 0
vt 0.03740497 0.04249006
vt 0.09713252 0.04249006
vt 0.08957006 0
vt 0.09713252 0
vt 0.08957006 0.04249006
vt 0.1464827 0.04249006
vt 0.1396452 0
vt 0.1464827 0
vt 0.1396452 0.04249006
vt 0.1791926 0
vt 0.1730773 0.04249006
vt 0.1730773 0
vt 0.1791926 0.04249006
vt 0.1890173 0
vt 0.1836094 0.04249006
vt 0.1836094 0
vt 0.1890173 0.04249006
vt 0.1650014 0
vt 0.159543 0.04249006
vt 0.159543 0
vt 0.1650014 0.04249006
vt 0.1244057 0
vt 0.1186032 0.04249006
vt 0.1186032 0
vt 0.1244057 0.04249006
vt 0.07182932 0.04249006
vt 0.03014022 0
vt 0.07182932 0
vt 0.03014022 0.04249006
vt 0.0256298 0.04249006
vt -0.01284235 0
vt 0.0256298 0
vt -0.01284235 0.04249006
vt 0.009971097 0
vt -0.006642257 0.04249006
vt -0.006642257 0
vt 0.009971097 0.04249006
vt 0.02139607 0
vt 0.007414942 0.04249006
vt 0.007414942 0
vt 0.02139607 0.04249006
vt 0.04257051 0
vt 0.02967199 0.04249006
vt 0.02967199 0
vt 0.04257051 0.04249006
vt 0.06172422 0
vt 0.04830757 0.04249006
vt 0.04830757 0
vt 0.06172422 0.04249006
vt 0.07447173 0
vt 0.06148843 0.04249006
vt 0.06148843 0
vt 0.07447173 0.04249006
vt 0.08645101 0
vt 0.07418535 0.04249006
vt 0.07418535 0
vt 0.08645101 0.04249006
vt 0.09745666 0
vt 0.08537307 0.04249006
vt 0.08537307 0
vt 0.09745666 0.04249006
vt 0.1041766 0
vt 0.09171605 0.04249006
vt 0.09171605 0
vt 0.1041766 0.04249006
vt 0.1055411 0.04249006
vt 0.09286818 0
vt 0.1055411 0
vt 0.09286818 0.04249006
vt 0.1029434 0.04249006
vt 0.09021279 0
vt 0.1029434 0
vt 0.09021279 0.04249006
vt 0.09597806 0.04249006
vt 0.08266347 0
vt 0.09597806 0
vt 0.08266347 0.04249006
vt 0.08488581 0.04249006
vt 0.0705249 0
vt 0.08488581 0
vt 0.0705249 0.04249006
vt 0.07013483 0.04249006
vt 0.04798341 0
vt 0.07013483 0
vt 0.04798341 0.04249006
vt 0.04318854 0.04249006
vt 0.02238051 0
vt 0.04318854 0
vt 0.02238051 0.04249006
vt 0.01425174 0.04249006
vt -0.00766038 0
vt 0.01425174 0
vt -0.00766038 0.04249006
vt -0.0401414 0.04249006
vt -0.01478346 0
vt -0.01478346 0.04249006
vt -0.0401414 0
vt -0.02461663 0.04249006
vt -0.06567769 0
vt -0.02461663 0
vt -0.06567769 0.04249006
vt 0.03877969 0
vt 0.02360988 0.04249006
vt 0.02360988 0
vt 0.03877969 0.04249006
vt 0.01008444 0
vt -0.002595394 0.04249006
vt -0.002595394 0
vt 0.01008444 0.04249006
vt -0.02160346 0.04249006
vt -0.03249675 0
vt -0.02160346 0
vt -0.03249675 0.04249006
vt -0.05322042 0.04249006
vt -0.06340769 0
vt -0.05322042 0
vt -0.06340769 0.04249006
vt -0.07699218 0.04249006
vt -0.08702705 0
vt -0.07699218 0
vt -0.08702705 0.04249006
vt -0.09130741 0.04249006
vt -0.1007541 0
vt -0.09130741 0
vt -0.1007541 0.04249006
vt -0.1010499 0.04249006
vt -0.09233653 0
vt -0.09233653 0.04249006
vt -0.1010499 0
vt -0.08126648 0.04249006
vt -0.07332181 0
vt -0.07332181 0.04249006
vt -0.08126648 0
vt -0.04938992 0.04249006
vt -0.0417938 0
vt -0.0417938 0.04249006
vt -0.04938992 0
vt -0.02144378 0.04249006
vt -0.01289821 0
vt -0.01289821 0.04249006
vt -0.02144378 0
vt 0.0152316 0.04249006
vt -0.01819388 0
vt 0.0152316 0
vt -0.01819388 0.04249006
vt -0.0143477 0.04249006
vt -0.05366835 0
vt -0.0143477 0
vt -0.05366835 0.04249006
vt -0.09432913 0.04249006
vt -0.06875582 0
vt -0.06875582 0.04249006
vt -0.09432913 0
vt -0.1371363 0.04249006
vt -0.1194103 0
vt -0.1194103 0.04249006
vt -0.1371363 0
vt -0.1711995 0.04249006
vt -0.1551318 0
vt -0.1551318 0.04249006
vt -0.1711995 0
vt -0.1864611 0.04249006
vt -0.1753861 0
vt -0.1753861 0.04249006
vt -0.1864611 0
vt -0.1533753 0.04249006
vt -0.1650476 0
vt -0.1533753 0
vt -0.1650476 0.04249006
vt -0.1320288 0.04249006
vt -0.1434737 0
vt -0.1320288 0
vt -0.1434737 0.04249006
vt -0.1051159 0.04249006
vt -0.116785 0
vt -0.1051159 0
vt -0.116785 0.04249006
vt -0.07731533 0.04249006
vt -0.0896355 0
vt -0.07731533 0
vt -0.0896355 0.04249006
vt -0.04305658 0.04249006
vt -0.05922883 0
vt -0.04305658 0
vt -0.05922883 0.04249006
vt -0.001090501 0.04249006
vt -0.01739797 0
vt -0.001090501 0
vt -0.01739797 0.04249006
vt 0.04339161 0.04249006
vt 0.02452741 0
vt 0.04339161 0
vt 0.02452741 0.04249006
vt 0.06912617 0
vt 0.04525252 0.04249006
vt 0.04525252 0
vt 0.06912617 0.04249006
vn 0.43696538025917125 -0.8994783246165283 3.23583385087057e-8
vn -0.43696538025917125 0.8994783246165283 -3.23583385087057e-8
vn 0 -3.597456311981437e-8 -1
vn 0 3.597456311981437e-8 1
vn 0.6191657849942065 -0.7852602948656625 2.8249394264669427e-8
vn -0.6191657849942065 0.7852602948656625 -2.8249394264669427e-8
vn 0.24862268265728316 -0.9686004138282693 3.484497601101263e-8
vn -0.24862268265728316 0.9686004138282693 -3.484497601101263e-8
vn -0.12926451558184932 0.9916101476948431 -3.567274147720398e-8
vn 0.12926451558184932 -0.9916101476948431 3.567274147720398e-8
vn 0.995367674404619 0.09614152458922544 -3.4586522038123205e-9
vn -0.995367674404619 -0.09614152458922544 3.4586522038123205e-9
vn 0.9642554877650071 0.26497425217380627 -9.532335729629234e-9
vn -0.9642554877650071 -0.26497425217380627 9.532335729629234e-9
vn 0.8749103021939806 0.4842850019511624 -1.742194388371812e-8
vn -0.8749103021939806 -0.4842850019511624 1.742194388371812e-8
vn 0.6892301569451162 0.724542469947352 -2.606510079781589e-8
vn -0.6892301569451162 -0.724542469947352 2.606510079781589e-8
vn 0.43245664059404454 0.9016547310396104 -3.243663627622957e-8
vn -0.43245664059404454 -0.9016547310396104 3.243663627622957e-8
vn 0.08879902517138791 0.9960495635903918 -3.583244815090781e-8
vn -0.08879902517138791 -0.9960495635903918 3.583244815090781e-8
vn -0.2761747044830136 0.961107451122776 -3.457541987207046e-8
vn 0.2761747044830136 -0.961107451122776 3.457541987207046e-8
vn -0.6689716798543979 0.7432878927796313 -2.6739455293475418e-8
vn 0.6689716798543979 -0.7432878927796313 2.6739455293475418e-8
vn -0.9125996887523509 0.4088542626524908 -1.4708350857293594e-8
vn 0.9125996887523509 -0.4088542626524908 1.4708350857293594e-8
vn -0.9960733550271801 0.08853175365312349 -3.184888298833145e-9
vn 0.9960733550271801 -0.08853175365312349 3.184888298833145e-9
vn -0.9728837899467806 -0.2312944687163709 8.320720258561533e-9
vn -0.9695238770756752 -0.24499684034728136 8.813657082038036e-9
vn 0.9695238770756752 0.24499684034728136 -8.813657082038036e-9
vn 0.9728837899467806 0.2312944687163709 -8.320720258561533e-9
vn -0.9659709654010645 -0.25865052484411327 9.30484240658215e-9
vn 0.9659709654010645 0.25865052484411327 -9.30484240658215e-9
vn -0.9928592560382125 -0.11929164974652375 4.2914678353101065e-9
vn 0.9928592560382125 0.11929164974652375 -4.2914678353101065e-9
vn -0.9984631801949115 0.05541911037777236 -1.9936754163957205e-9
vn 0.9984631801949115 -0.05541911037777236 1.9936754163957205e-9
vn -0.9612247976287771 0.27576600302342613 -9.92055872109334e-9
vn 0.9612247976287771 -0.27576600302342613 9.92055872109334e-9
vn -0.8803187660568664 0.47438261996843417 -1.7065704976415784e-8
vn 0.8803187660568664 -0.47438261996843417 1.7065704976415784e-8
vn -0.7753571514708955 0.6315229906052022 -2.2718761460045474e-8
vn 0.7753571514708955 -0.6315229906052022 2.2718761460045474e-8
vn -0.6346886526534822 0.7727679562410094 -2.7799987795715678e-8
vn 0.6346886526534822 -0.7727679562410094 2.7799987795715678e-8
vn -0.45541575786745314 0.8902788818600677 -3.2027392521600386e-8
vn 0.45541575786745314 -0.8902788818600677 3.2027392521600386e-8
vn -0.2585143333554252 0.9660074220469523 -3.475169423609422e-8
vn 0.2585143333554252 -0.9660074220469523 3.475169423609422e-8
vn -0.06074223060358595 0.9981534859034955 -3.590813540742526e-8
vn 0.06074223060358595 -0.9981534859034955 3.590813540742526e-8
vn 0.14542323254776765 0.9893695383603422 -3.559213732427185e-8
vn -0.14542323254776765 -0.9893695383603422 3.559213732427185e-8
vn 0.33590382313945033 0.9418962902572129 -3.3884308511009696e-8
vn -0.33590382313945033 -0.9418962902572129 3.3884308511009696e-8
vn 0.49394693319079264 0.8694920512525744 -3.127959809874997e-8
vn -0.49394693319079264 -0.8694920512525744 3.127959809874997e-8
vn 0.6620813524370267 0.749431973400626 -2.6960489732835732e-8
vn -0.6620813524370267 -0.749431973400626 2.6960489732835732e-8
vn 0.8525764995009523 0.522602442109394 -1.8800396989129683e-8
vn -0.8525764995009523 -0.522602442109394 1.8800396989129683e-8
vn 0.9721516070766656 0.23435283838318718 -8.430743769081053e-9
vn -0.9721516070766656 -0.23435283838318718 8.430743769081053e-9
vn 0.9997044233491343 -0.024311847650364447 0
vn -0.9997044233491343 0.024311847650364447 0
vn -0.050523997180678654 -0.9987228472949268 3.592861825433458e-8
vn 0.050523997180678654 0.9987228472949268 -3.592861825433458e-8
vn -0.999798962234547 0.020050813318239658 0
vn 0.999798962234547 -0.020050813318239658 0
vn -0.9844448959044192 -0.17569361663912894 6.3205039292008444e-9
vn 0.9844448959044192 0.17569361663912894 -6.3205039292008444e-9
vn -0.8994914404295093 -0.4369383807747336 1.571866994230232e-8
vn 0.8994914404295093 0.4369383807747336 -1.571866994230232e-8
vn -0.6983474603635845 -0.7157589151409369 2.5749116277204236e-8
vn 0.6983474603635845 0.7157589151409369 -2.5749116277204236e-8
vn -0.4227388797579332 -0.90625153215926 3.2602004160344857e-8
vn 0.4227388797579332 0.90625153215926 -3.2602004160344857e-8
vn -0.0719358108048173 -0.9974092636043905 3.5881362716448404e-8
vn 0.0719358108048173 0.9974092636043905 -3.5881362716448404e-8
vn 0.29025776481929577 -0.9569484991169093 3.4425803350171686e-8
vn -0.29025776481929577 0.9569484991169093 -3.4425803350171686e-8
vn 0.6776706953372008 -0.735365506861176 2.6454450896205828e-8
vn -0.6776706953372008 0.735365506861176 -2.6454450896205828e-8
vn 0.9170498501604855 -0.3987725822077429 1.4345666794997803e-8
vn -0.9170498501604855 0.3987725822077429 -1.4345666794997803e-8
vn 0.9963024230769848 -0.08591555022770303 3.09077152291312e-9
vn -0.9963024230769848 0.08591555022770303 -3.09077152291312e-9
vn 0.9749096651436325 0.22260086435036586 -8.007971645377006e-9
vn 0.9711501485280922 0.23846884285764577 -8.578815228972367e-9
vn -0.9711501485280922 -0.23846884285764577 8.578815228972367e-9
vn -0.9749096651436325 -0.22260086435036586 8.007971645377006e-9
vn 0.9671324044078262 0.2542733024608299 -9.147373747001315e-9
vn -0.9671324044078262 -0.2542733024608299 9.147373747001315e-9
vn 0.9921851413488891 0.12477437752393238 -4.488706569870957e-9
vn -0.9921851413488891 -0.12477437752393238 4.488706569870957e-9
vn 0.9909974547028707 -0.13388071097970636 4.816297241175822e-9
vn -0.9909974547028707 0.13388071097970636 -4.816297241175822e-9
vn 0.9090849351171953 -0.41661082648313974 1.4987389862507738e-8
vn -0.9090849351171953 0.41661082648313974 -1.4987389862507738e-8
vn 0.7700362327760785 -0.6380001569059562 2.295177470325301e-8
vn -0.7700362327760785 0.6380001569059562 -2.295177470325301e-8
vn 0.06650785696009336 -0.9977859013649043 3.5894911697678956e-8
vn -0.06650785696009336 0.9977859013649043 -3.5894911697678956e-8
vn -0.13005606405410777 -0.9915066415323461 3.566901863308681e-8
vn 0.13005606405410777 0.9915066415323461 -3.566901863308681e-8
vn -0.32164143699593667 -0.9468615453207442 3.406293135173216e-8
vn 0.32164143699593667 0.9468615453207442 -3.406293135173216e-8
vn -0.48847181875760554 -0.8725796710212975 3.1390673855283456e-8
vn 0.48847181875760554 0.8725796710212975 -3.1390673855283456e-8
vn -0.652936093770224 -0.7574130032235256 2.7247603767692396e-8
vn 0.652936093770224 0.7574130032235256 -2.7247603767692396e-8
vn -0.8142202247961551 -0.5805561346957744 2.088525565093219e-8
vn 0.8142202247961551 0.5805561346957744 -2.088525565093219e-8
vn -0.9320725040115659 -0.36227178646095143 1.303257192580373e-8
vn 0.9320725040115659 0.36227178646095143 -1.303257192580373e-8
vn -0.9832693231389753 -0.18215772883361592 6.5530475379783255e-9
vn 0.9832693231389753 0.18215772883361592 -6.5530475379783255e-9
usemtl material_0_0
f 1/1/1 2/2/1 3/3/1
f 2/2/1 1/1/1 4/4/1
f 5/4/2 6/1/2 7/2/2
f 8/3/2 7/2/2 6/1/2
f 9/5/3 10/6/3 11/7/3
f 10/6/3 9/5/3 12/8/3
f 12/8/3 9/5/3 13/9/3
f 13/9/3 9/5/3 14/10/3
f 14/10/3 9/5/3 15/11/3
f 14/10/3 15/11/3 16/12/3
f 16/12/3 15/11/3 17/13/3
f 17/13/3 15/11/3 18/14/3
f 17/13/3 18/14/3 19/15/3
f 19/15/3 18/14/3 20/16/3
f 19/15/3 20/16/3 21/17/3
f 21/17/3 20/16/3 22/18/3
f 22/18/3 20/16/3 23/19/3
f 22/18/3 23/19/3 24/20/3
f 25/21/3 26/22/3 27/23/3
f 26/22/3 25/21/3 28/24/3
f 26/22/3 28/24/3 29/25/3
f 29/25/3 28/24/3 30/26/3
f 29/25/3 30/26/3 31/27/3
f 29/25/3 31/27/3 32/28/3
f 32/28/3 31/27/3 33/29/3
f 32/28/3 33/29/3 11/7/3
f 32/28/3 11/7/3 10/6/3
f 32/28/3 10/6/3 34/30/3
f 32/28/3 34/30/3 35/31/3
f 35/31/3 34/30/3 36/32/3
f 35/31/3 36/32/3 37/33/3
f 35/31/3 37/33/3 38/34/3
f 38/34/3 37/33/3 39/35/3
f 38/34/3 39/35/3 40/36/3
f 40/36/3 39/35/3 41/37/3
f 41/37/3 39/35/3 42/38/3
f 42/38/3 39/35/3 43/39/3
f 43/39/3 39/35/3 44/40/3
f 44/40/3 39/35/3 45/41/3
f 44/40/3 45/41/3 46/42/3
f 46/42/3 45/41/3 47/43/3
f 46/42/3 47/43/3 48/44/3
f 48/44/3 47/43/3 49/45/3
f 48/44/3 49/45/3 50/46/3
f 50/46/3 49/45/3 51/47/3
f 52/48/3 53/49/3 54/50/3
f 53/49/3 52/48/3 55/51/3
f 55/51/3 52/48/3 56/52/3
f 56/52/3 52/48/3 57/53/3
f 56/52/3 57/53/3 58/54/3
f 56/52/3 58/54/3 59/55/3
f 59/55/3 58/54/3 60/56/3
f 59/55/3 60/56/3 61/57/3
f 59/55/3 61/57/3 62/58/3
f 62/58/3 61/57/3 63/59/3
f 62/58/3 63/59/3 64/60/3
f 62/58/3 64/60/3 42/38/3
f 42/38/3 64/60/3 65/61/3
f 42/38/3 65/61/3 41/37/3
f 66/37/4 67/61/4 68/38/4
f 67/61/4 69/60/4 68/38/4
f 68/38/4 69/60/4 70/58/4
f 69/60/4 71/59/4 70/58/4
f 71/59/4 72/57/4 70/58/4
f 70/58/4 72/57/4 73/55/4
f 72/57/4 74/56/4 73/55/4
f 74/56/4 75/54/4 73/55/4
f 73/55/4 75/54/4 76/52/4
f 75/54/4 77/53/4 76/52/4
f 77/53/4 78/48/4 76/52/4
f 76/52/4 78/48/4 79/51/4
f 79/51/4 78/48/4 80/49/4
f 81/50/4 80/49/4 78/48/4
f 82/47/4 83/45/4 84/46/4
f 84/46/4 83/45/4 85/44/4
f 83/45/4 86/43/4 85/44/4
f 85/44/4 86/43/4 87/42/4
f 86/43/4 88/41/4 87/42/4
f 87/42/4 88/41/4 89/40/4
f 88/41/4 90/35/4 89/40/4
f 89/40/4 90/35/4 91/39/4
f 91/39/4 90/35/4 68/38/4
f 68/38/4 90/35/4 66/37/4
f 66/37/4 90/35/4 92/36/4
f 92/36/4 90/35/4 93/34/4
f 90/35/4 94/33/4 93/34/4
f 93/34/4 94/33/4 95/31/4
f 94/33/4 96/32/4 95/31/4
f 96/32/4 97/30/4 95/31/4
f 95/31/4 97/30/4 98/28/4
f 97/30/4 99/6/4 98/28/4
f 99/6/4 100/7/4 98/28/4
f 100/7/4 101/29/4 98/28/4
f 101/29/4 102/27/4 98/28/4
f 98/28/4 102/27/4 103/25/4
f 102/27/4 104/26/4 103/25/4
f 104/26/4 105/24/4 103/25/4
f 103/25/4 105/24/4 106/22/4
f 105/24/4 107/21/4 106/22/4
f 108/23/4 106/22/4 107/21/4
f 109/20/4 110/19/4 111/18/4
f 110/19/4 112/16/4 111/18/4
f 111/18/4 112/16/4 113/17/4
f 113/17/4 112/16/4 114/15/4
f 112/16/4 115/14/4 114/15/4
f 114/15/4 115/14/4 116/13/4
f 115/14/4 117/11/4 116/13/4
f 116/13/4 117/11/4 118/12/4
f 118/12/4 117/11/4 119/10/4
f 117/11/4 120/5/4 119/10/4
f 119/10/4 120/5/4 121/9/4
f 121/9/4 120/5/4 122/8/4
f 122/8/4 120/5/4 99/6/4
f 100/7/4 99/6/4 120/5/4
f 123/62/5 124/63/5 125/64/5
f 124/63/5 123/62/5 126/65/5
f 127/65/6 128/62/6 129/63/6
f 130/64/6 129/63/6 128/62/6
f 131/66/4 132/67/4 133/50/4
f 132/67/4 131/66/4 134/68/4
f 132/67/4 134/68/4 135/69/4
f 132/67/4 135/69/4 136/70/4
f 136/70/4 135/69/4 137/71/4
f 137/71/4 135/69/4 138/72/4
f 137/71/4 138/72/4 139/73/4
f 139/73/4 138/72/4 140/74/4
f 140/74/4 138/72/4 141/75/4
f 140/74/4 141/75/4 142/76/4
f 142/76/4 141/75/4 143/77/4
f 143/77/4 141/75/4 144/78/4
f 143/77/4 144/78/4 145/79/4
f 145/79/4 144/78/4 146/80/4
f 147/81/4 148/82/4 149/83/4
f 148/82/4 147/81/4 150/84/4
f 150/84/4 147/81/4 151/85/4
f 150/84/4 151/85/4 152/86/4
f 152/86/4 151/85/4 153/87/4
f 153/87/4 151/85/4 154/88/4
f 153/87/4 154/88/4 155/89/4
f 155/89/4 154/88/4 156/90/4
f 156/90/4 154/88/4 157/91/4
f 157/91/4 154/88/4 158/92/4
f 158/92/4 154/88/4 159/93/4
f 158/92/4 159/93/4 160/94/4
f 160/94/4 159/93/4 161/95/4
f 161/95/4 159/93/4 162/96/4
f 161/95/4 162/96/4 163/97/4
f 163/97/4 162/96/4 164/98/4
f 163/97/4 164/98/4 146/80/4
f 163/97/4 146/80/4 144/78/4
f 163/97/4 144/78/4 165/99/4
f 163/97/4 165/99/4 166/100/4
f 163/97/4 166/100/4 167/101/4
f 167/101/4 166/100/4 168/102/4
f 167/101/4 168/102/4 169/103/4
f 169/103/4 168/102/4 170/104/4
f 169/103/4 170/104/4 171/105/4
f 171/105/4 170/104/4 172/106/4
f 171/105/4 172/106/4 173/107/4
f 157/91/4 174/108/4 156/90/4
f 174/108/4 157/91/4 175/109/4
f 174/108/4 175/109/4 176/110/4
f 174/108/4 176/110/4 177/111/4
f 174/108/4 177/111/4 178/112/4
f 178/112/4 177/111/4 179/113/4
f 178/112/4 179/113/4 180/114/4
f 178/112/4 180/114/4 181/115/4
f 181/115/4 180/114/4 182/116/4
f 181/115/4 182/116/4 183/117/4
f 183/117/4 182/116/4 184/118/4
f 183/117/4 184/118/4 185/119/4
f 183/117/4 185/119/4 186/120/4
f 186/120/4 185/119/4 187/121/4
f 188/121/3 189/119/3 190/120/3
f 190/120/3 189/119/3 191/117/3
f 189/119/3 192/118/3 191/117/3
f 192/118/3 193/116/3 191/117/3
f 191/117/3 193/116/3 194/115/3
f 193/116/3 195/114/3 194/115/3
f 194/115/3 195/114/3 196/112/3
f 195/114/3 197/113/3 196/112/3
f 197/113/3 198/111/3 196/112/3
f 196/112/3 198/111/3 199/108/3
f 198/111/3 200/110/3 199/108/3
f 200/110/3 201/109/3 199/108/3
f 201/109/3 202/91/3 199/108/3
f 203/90/3 199/108/3 202/91/3
f 204/107/3 205/106/3 206/105/3
f 205/106/3 207/104/3 206/105/3
f 206/105/3 207/104/3 208/103/3
f 207/104/3 209/102/3 208/103/3
f 208/103/3 209/102/3 210/101/3
f 209/102/3 211/100/3 210/101/3
f 210/101/3 211/100/3 212/97/3
f 211/100/3 213/99/3 212/97/3
f 213/99/3 214/78/3 212/97/3
f 214/78/3 215/80/3 212/97/3
f 215/80/3 216/98/3 212/97/3
f 216/98/3 217/96/3 212/97/3
f 212/97/3 217/96/3 218/95/3
f 217/96/3 219/93/3 218/95/3
f 218/95/3 219/93/3 220/94/3
f 220/94/3 219/93/3 221/92/3
f 219/93/3 222/88/3 221/92/3
f 221/92/3 222/88/3 202/91/3
f 202/91/3 222/88/3 203/90/3
f 203/90/3 222/88/3 223/89/3
f 223/89/3 222/88/3 224/87/3
f 222/88/3 225/85/3 224/87/3
f 224/87/3 225/85/3 226/86/3
f 226/86/3 225/85/3 227/84/3
f 225/85/3 228/81/3 227/84/3
f 227/84/3 228/81/3 229/82/3
f 230/83/3 229/82/3 228/81/3
f 215/80/3 214/78/3 231/79/3
f 231/79/3 214/78/3 232/77/3
f 214/78/3 233/75/3 232/77/3
f 232/77/3 233/75/3 234/76/3
f 234/76/3 233/75/3 235/74/3
f 233/75/3 236/72/3 235/74/3
f 235/74/3 236/72/3 237/73/3
f 237/73/3 236/72/3 238/71/3
f 236/72/3 239/69/3 238/71/3
f 238/71/3 239/69/3 240/70/3
f 240/70/3 239/69/3 241/67/3
f 239/69/3 242/68/3 241/67/3
f 242/68/3 243/66/3 241/67/3
f 244/50/3 241/67/3 243/66/3
f 245/122/7 246/123/7 247/124/7
f 246/123/7 245/122/7 248/125/7
f 249/125/8 250/122/8 251/123/8
f 252/124/8 251/123/8 250/122/8
f 253/126/9 254/127/9 255/128/9
f 254/127/9 253/126/9 256/129/9
f 257/129/10 258/126/10 259/127/10
f 260/128/10 259/127/10 258/126/10
f 261/130/11 262/131/11 263/132/11
f 262/131/11 261/130/11 264/133/11
f 265/133/12 266/130/12 267/131/12
f 268/132/12 267/131/12 266/130/12
f 269/134/13 270/135/13 271/136/13
f 270/135/13 269/134/13 272/137/13
f 273/137/14 274/134/14 275/135/14
f 276/136/14 275/135/14 274/134/14
f 277/138/15 278/139/15 279/140/15
f 278/139/15 277/138/15 280/141/15
f 281/141/16 282/138/16 283/139/16
f 284/140/16 283/139/16 282/138/16
f 285/142/17 286/143/17 287/144/17
f 286/143/17 285/142/17 288/145/17
f 289/145/18 290/142/18 291/143/18
f 292/144/18 291/143/18 290/142/18
f 293/146/19 294/147/19 295/148/19
f 294/147/19 293/146/19 296/149/19
f 297/149/20 298/146/20 299/147/20
f 300/148/20 299/147/20 298/146/20
f 301/150/21 302/151/21 303/152/21
f 302/151/21 301/150/21 304/153/21
f 305/153/22 306/150/22 307/151/22
f 308/152/22 307/151/22 306/150/22
f 309/154/23 310/155/23 311/156/23
f 310/155/23 309/154/23 312/157/23
f 313/157/24 314/154/24 315/155/24
f 316/156/24 315/155/24 314/154/24
f 317/158/25 318/159/25 319/160/25
f 318/159/25 317/158/25 320/161/25
f 321/161/26 322/158/26 323/159/26
f 324/160/26 323/159/26 322/158/26
f 325/162/27 326/163/27 327/164/27
f 326/163/27 325/162/27 328/165/27
f 329/165/28 330/162/28 331/163/28
f 332/164/28 331/163/28 330/162/28
f 333/166/29 334/167/29 335/168/29
f 334/167/29 333/166/29 336/169/29
f 337/169/30 338/166/30 339/167/30
f 340/168/30 339/167/30 338/166/30
f 341/170/31 342/171/32 343/172/31
f 342/171/32 341/170/31 344/173/32
f 345/173/33 346/170/34 347/171/33
f 348/172/34 347/171/33 346/170/34
f 344/174/32 349/175/35 342/176/32
f 349/175/35 344/174/32 350/177/35
f 351/177/36 345/174/33 352/175/36
f 347/176/33 352/175/36 345/174/33
f 353/178/37 354/179/37 355/180/37
f 354/179/37 353/178/37 356/181/37
f 357/181/38 358/178/38 359/179/38
f 360/180/38 359/179/38 358/178/38
f 361/182/39 362/183/39 363/184/39
f 362/183/39 361/182/39 364/185/39
f 365/185/40 366/182/40 367/183/40
f 368/184/40 367/183/40 366/182/40
f 369/186/41 370/187/41 371/188/41
f 370/187/41 369/186/41 372/189/41
f 373/189/42 374/186/42 375/187/42
f 376/188/42 375/187/42 374/186/42
f 377/190/43 378/191/43 379/192/43
f 378/191/43 377/190/43 380/193/43
f 381/193/44 382/190/44 383/191/44
f 384/192/44 383/191/44 382/190/44
f 385/194/45 386/195/45 387/196/45
f 386/195/45 385/194/45 388/197/45
f 389/197/46 390/194/46 391/195/46
f 392/196/46 391/195/46 390/194/46
f 393/198/47 394/199/47 395/200/47
f 394/199/47 393/198/47 396/201/47
f 397/201/48 398/198/48 399/199/48
f 400/200/48 399/199/48 398/198/48
f 401/202/49 402/203/49 403/204/49
f 402/203/49 401/202/49 404/205/49
f 405/205/50 406/202/50 407/203/50
f 408/204/50 407/203/50 406/202/50
f 409/206/51 410/207/51 411/208/51
f 410/207/51 409/206/51 412/209/51
f 413/209/52 414/206/52 415/207/52
f 416/208/52 415/207/52 414/206/52
f 417/210/53 418/211/53 419/212/53
f 418/211/53 417/210/53 420/213/53
f 421/213/54 422/210/54 423/211/54
f 424/212/54 423/211/54 422/210/54
f 425/214/55 426/215/55 427/216/55
f 426/215/55 425/214/55 428/217/55
f 429/217/56 430/214/56 431/215/56
f 432/216/56 431/215/56 430/214/56
f 433/218/57 434/219/57 435/220/57
f 434/219/57 433/218/57 436/221/57
f 437/221/58 438/218/58 439/219/58
f 440/220/58 439/219/58 438/218/58
f 441/222/59 442/223/59 443/224/59
f 442/223/59 441/222/59 444/225/59
f 445/225/60 446/222/60 447/223/60
f 448/224/60 447/223/60 446/222/60
f 449/226/61 450/227/61 451/228/61
f 450/227/61 449/226/61 452/229/61
f 453/229/62 454/226/62 455/227/62
f 456/228/62 455/227/62 454/226/62
f 457/230/63 458/231/63 459/232/63
f 458/231/63 457/230/63 460/233/63
f 461/233/64 462/230/64 463/231/64
f 464/232/64 463/231/64 462/230/64
f 465/234/65 466/235/65 467/236/65
f 466/235/65 465/234/65 468/237/65
f 469/237/66 470/234/66 471/235/66
f 472/236/66 471/235/66 470/234/66
f 473/238/67 474/239/67 475/240/67
f 474/239/67 473/238/67 476/241/67
f 477/241/68 478/238/68 479/239/68
f 480/240/68 479/239/68 478/238/68
f 481/242/69 482/243/69 483/244/69
f 482/243/69 481/242/69 484/245/69
f 485/245/70 486/242/70 487/243/70
f 488/244/70 487/243/70 486/242/70
f 489/246/71 490/247/71 491/248/71
f 490/247/71 489/246/71 492/249/71
f 493/249/72 494/246/72 495/247/72
f 496/248/72 495/247/72 494/246/72
f 497/250/73 498/251/73 499/252/73
f 498/251/73 497/250/73 500/253/73
f 501/253/74 502/250/74 503/251/74
f 504/252/74 503/251/74 502/250/74
f 505/254/75 506/255/75 507/256/75
f 506/255/75 505/254/75 508/257/75
f 509/257/76 510/254/76 511/255/76
f 512/256/76 511/255/76 510/254/76
f 513/258/77 514/259/77 515/260/77
f 514/259/77 513/258/77 516/261/77
f 517/261/78 518/258/78 519/259/78
f 520/260/78 519/259/78 518/258/78
f 521/262/79 522/263/79 523/264/79
f 522/263/79 521/262/79 524/265/79
f 525/265/80 526/262/80 527/263/80
f 528/264/80 527/263/80 526/262/80
f 529/266/81 530/267/81 531/268/81
f 530/267/81 529/266/81 532/269/81
f 533/269/82 534/266/82 535/267/82
f 536/268/82 535/267/82 534/266/82
f 537/270/83 538/271/83 539/272/83
f 538/271/83 537/270/83 540/273/83
f 541/273/84 542/270/84 543/271/84
f 544/272/84 543/271/84 542/270/84
f 545/274/85 546/275/85 547/276/85
f 546/275/85 545/274/85 548/277/85
f 549/277/86 550/274/86 551/275/86
f 552/276/86 551/275/86 550/274/86
f 553/278/87 554/279/87 555/280/87
f 554/279/87 553/278/87 556/281/87
f 557/281/88 558/278/88 559/279/88
f 560/280/88 559/279/88 558/278/88
f 561/282/89 562/283/89 563/284/89
f 562/283/89 561/282/89 564/285/89
f 565/285/90 566/282/90 567/283/90
f 568/284/90 567/283/90 566/282/90
f 569/286/91 570/287/92 571/288/91
f 570/287/92 569/286/91 572/289/92
f 573/289/93 574/286/94 575/287/93
f 576/288/94 575/287/93 574/286/94
f 572/290/92 577/291/95 570/292/92
f 577/291/95 572/290/92 578/293/95
f 579/293/96 573/290/93 580/291/96
f 575/292/93 580/291/96 573/290/93
f 581/294/97 582/295/97 583/296/97
f 582/295/97 581/294/97 584/297/97
f 585/297/98 586/294/98 587/295/98
f 588/296/98 587/295/98 586/294/98
f 589/298/99 590/299/99 591/300/99
f 590/299/99 589/298/99 592/301/99
f 593/301/100 594/298/100 595/299/100
f 596/300/100 595/299/100 594/298/100
f 597/302/101 598/303/101 599/304/101
f 598/303/101 597/302/101 600/305/101
f 601/305/102 602/302/102 603/303/102
f 604/304/102 603/303/102 602/302/102
f 605/306/103 606/307/103 607/308/103
f 606/307/103 605/306/103 608/309/103
f 609/309/104 610/306/104 611/307/104
f 612/308/104 611/307/104 610/306/104
f 613/310/105 614/311/105 615/312/105
f 614/311/105 613/310/105 616/313/105
f 617/313/106 618/310/106 619/311/106
f 620/312/106 619/311/106 618/310/106
f 621/314/107 622/315/107 623/316/107
f 622/315/107 621/314/107 624/317/107
f 625/317/108 626/314/108 627/315/108
f 628/316/108 627/315/108 626/314/108
f 629/318/109 630/319/109 631/320/109
f 630/319/109 629/318/109 632/321/109
f 633/321/110 634/318/110 635/319/110
f 636/320/110 635/319/110 634/318/110
f 637/322/111 638/323/111 639/324/111
f 638/323/111 637/322/111 640/325/111
f 641/325/112 642/322/112 643/323/112
f 644/324/112 643/323/112 642/322/112
f 645/326/113 646/327/113 647/328/113
f 646/327/113 645/326/113 648/329/113
f 649/329/114 650/326/114 651/327/114
f 652/328/114 651/327/114 650/326/114
f 653/330/115 654/331/115 655/332/115
f 654/331/115 653/330/115 656/333/115
f 657/333/116 658/330/116 659/331/116
f 660/332/116 659/331/116 658/330/116
f 661/334/117 662/335/117 663/336/117
f 662/335/117 661/334/117 664/337/117
f 665/337/118 666/334/118 667/335/118
f 668/336/118 667/335/118 666/334/118
f 669/338/119 670/339/119 671/340/119
f 670/339/119 669/338/119 672/341/119
f 673/341/120 674/338/120 675/339/120
f 676/340/120 675/339/120 674/338/120
