# SSTK version 0.8.0
# 72
mtllib original-72.mtl
o group_9/ID171#ID171
v 0.26714344 0.62391995 0.07103713
v 0.25886849 0.62391535 0.06781328
v 0.26438033 0.62390906 0.07371735
v 0.26899194 0.62390002 0.06817107
v 0.27020889 0.62405961 0.06499109
v 0.26067029 0.62390665 0.06595742
v 0.26175659 0.62406167 0.06437942
v 0.27053542 0.62390017 0.06159312
v 0.26239889 0.62403259 0.06309474
v 0.26254850 0.62389230 0.06174022
v 0.26240111 0.62400082 0.06070710
v 0.27026078 0.62398677 0.05844913
v 0.26139405 0.62408626 0.05979403
v 0.25977121 0.62406019 0.05945552
v 0.25654548 0.62399108 0.05924827
v 0.22666494 0.62391150 0.05922682
v 0.22658589 0.62406766 0.05113010
v 0.26887509 0.62405468 0.05566781
v 0.26696239 0.62403739 0.05346895
v 0.26458399 0.62400327 0.05203266
v 0.26082133 0.62398768 0.05123595
v 0.25499509 0.62391580 0.05108312
v 0.25504753 0.62400013 0.05107198
v 0.26080528 0.62393826 0.05128762
v 0.22663535 0.62405645 0.05106153
v 0.26460152 0.62402100 0.05217338
v 0.26697748 0.62405818 0.05352688
v 0.26898470 0.62397047 0.05564218
v 0.27011966 0.62393497 0.05831772
v 0.22657615 0.62395313 0.05931149
v 0.25662651 0.62392597 0.05922235
v 0.25968219 0.62399477 0.05932039
v 0.26143301 0.62402554 0.05979473
v 0.26224595 0.62398245 0.06073507
v 0.27061002 0.62396479 0.06164026
v 0.26266840 0.62405294 0.06189979
v 0.26239976 0.62396836 0.06310620
v 0.26189830 0.62396656 0.06449731
v 0.27015878 0.62402620 0.06509980
v 0.26078468 0.62405762 0.06590369
v 0.25895390 0.62391635 0.06781463
v 0.26899338 0.62392667 0.06813012
v 0.26704817 0.62407917 0.07110252
v 0.26445006 0.62390892 0.07362714
v 0.22670391 0.62399523 0.05924186
v 0.22668795 0.61802028 0.05096614
v 0.22666987 0.61816718 0.05930177
v 0.22668603 0.62396623 0.05093957
v 0.22660464 0.62395166 0.05093672
v 0.22669216 0.62404765 0.05914676
v 0.22667164 0.61821238 0.05108052
v 0.22667070 0.61804934 0.05914075
v 0.22671655 0.62407594 0.05927775
v 0.25668304 0.61817857 0.05921529
v 0.25658223 0.62392048 0.05924439
v 0.22663699 0.61819085 0.05911965
v 0.22666166 0.61820265 0.05928968
v 0.22664436 0.62400459 0.05927584
v 0.25657775 0.61808785 0.05926985
v 0.25660438 0.62408238 0.05919026
v 0.25974860 0.61820909 0.05934317
v 0.25968758 0.62392633 0.05946294
v 0.25962169 0.61810837 0.05930659
v 0.25964045 0.62389986 0.05929643
v 0.25975190 0.62407306 0.05939152
v 0.26154173 0.61809344 0.05988353
v 0.26141945 0.62398554 0.05982720
v 0.25967269 0.61815627 0.05946466
v 0.25979229 0.61817063 0.05937610
v 0.25976916 0.62405615 0.05942765
v 0.26144350 0.61812485 0.05985823
v 0.26154159 0.62389943 0.05991244
v 0.26148230 0.62408431 0.05993273
v 0.26221787 0.61812349 0.06075141
v 0.26237772 0.62393881 0.06059873
v 0.26155264 0.61818604 0.05979981
v 0.26142714 0.61805408 0.05981746
v 0.26156462 0.62396232 0.05991941
v 0.26237860 0.61806743 0.06074658
v 0.26234186 0.62397822 0.06065364
v 0.26262152 0.62389116 0.06184479
v 0.26230990 0.61802957 0.06065723
v 0.26267234 0.61802925 0.06170581
v 0.26239194 0.62391627 0.06069435
v 0.26222589 0.62406330 0.06071464
v 0.26254099 0.62402333 0.06180109
v 0.26232631 0.61818506 0.06074923
v 0.26261523 0.61817644 0.06173114
v 0.26244388 0.62388971 0.06306062
v 0.26265913 0.61805955 0.06188768
v 0.26244996 0.61815835 0.06304213
v 0.26258173 0.62399173 0.06176000
v 0.26255287 0.62391102 0.06177836
v 0.26231558 0.62391551 0.06309039
v 0.26254826 0.61811379 0.06175420
v 0.26238301 0.61819942 0.06312717
v 0.26191354 0.62393189 0.06443096
v 0.26246914 0.61806543 0.06302910
v 0.26186747 0.61821019 0.06442744
v 0.26246419 0.62396610 0.06310872
v 0.26248680 0.62403599 0.06316962
v 0.26177181 0.62401249 0.06449192
v 0.26241452 0.61815741 0.06302839
v 0.26173616 0.61812572 0.06451180
v 0.26077924 0.62391731 0.06589784
v 0.26180743 0.61808815 0.06440945
v 0.26064327 0.61811932 0.06604772
v 0.26192190 0.62393558 0.06443193
v 0.26189825 0.62390703 0.06443301
v 0.26064756 0.62404751 0.06600602
v 0.26181194 0.61805869 0.06441333
v 0.26063976 0.61811179 0.06593915
v 0.25882507 0.61808324 0.06774335
v 0.26074920 0.62390219 0.06596690
v 0.26069857 0.61801949 0.06592392
v 0.25880552 0.62407780 0.06773955
v 0.25877606 0.62402020 0.06773098
v 0.25894383 0.61810265 0.06775045
v 0.26071269 0.62391099 0.06593503
v 0.26065687 0.61807670 0.06602515
v 0.26446611 0.62404169 0.07370289
v 0.25889472 0.61816558 0.06774952
v 0.26439194 0.61813995 0.07356537
v 0.25893140 0.62397188 0.06767907
v 0.25884159 0.62408310 0.06769525
v 0.26438892 0.62406839 0.07366707
v 0.25886039 0.61806253 0.06773189
v 0.26441661 0.61808400 0.07369976
v 0.26440268 0.62398780 0.07364105
v 0.26700341 0.61812593 0.07094523
v 0.26715340 0.62395849 0.07101374
v 0.26436589 0.61804514 0.07361689
v 0.26428758 0.61806690 0.07367487
v 0.26439123 0.62391531 0.07356584
v 0.26704425 0.61805094 0.07094955
v 0.26702587 0.62397930 0.07108311
v 0.26899390 0.62390257 0.06817233
v 0.26715108 0.61812722 0.07102458
v 0.26906894 0.61818947 0.06812771
v 0.26716331 0.62393063 0.07095435
v 0.26704239 0.62397275 0.07104045
v 0.26910184 0.62405424 0.06815550
v 0.26708567 0.61817020 0.07097219
v 0.26900074 0.61803927 0.06815378
v 0.27009467 0.62406418 0.06509879
v 0.26907384 0.61813500 0.06809913
v 0.27024605 0.61803141 0.06490775
v 0.26909991 0.62404714 0.06813475
v 0.26906588 0.62397949 0.06815048
v 0.27010396 0.62395314 0.06492171
v 0.26893486 0.61815236 0.06805195
v 0.27018675 0.61803085 0.06505747
v 0.27047666 0.62400377 0.06152053
v 0.27018965 0.61809324 0.06497648
v 0.27055948 0.61820218 0.06156350
v 0.27016806 0.62403691 0.06492280
v 0.27013747 0.62404933 0.06499705
v 0.27059282 0.62390313 0.06150443
v 0.27019473 0.61812179 0.06495072
v 0.27066430 0.61808751 0.06155801
v 0.27017050 0.62396755 0.05846793
v 0.27066044 0.61806202 0.06160433
v 0.27007408 0.61803058 0.05839164
v 0.27049886 0.62388748 0.06166104
v 0.27049624 0.62404252 0.06164879
v 0.27011663 0.62397158 0.05837163
v 0.27054779 0.61809839 0.06153940
v 0.27021187 0.61805692 0.05843064
v 0.26892999 0.62397544 0.05559846
v 0.27008742 0.61803712 0.05845976
v 0.26903327 0.61804071 0.05574135
v 0.27018597 0.62398337 0.05848155
v 0.27021300 0.62394302 0.05834290
v 0.26886970 0.62390986 0.05566360
v 0.27013803 0.61803782 0.05839418
v 0.26899464 0.61816402 0.05574224
v 0.26698158 0.62389215 0.05347204
v 0.26888547 0.61812998 0.05571631
v 0.26704181 0.61808589 0.05352010
v 0.26898413 0.62395680 0.05569755
v 0.26886700 0.62397968 0.05569368
v 0.26698671 0.62404225 0.05362473
v 0.26904045 0.61815267 0.05572949
v 0.26708219 0.61811531 0.05362395
v 0.26465379 0.61812483 0.05204605
v 0.26704097 0.62391009 0.05349109
v 0.26701803 0.61812956 0.05359316
v 0.26453510 0.62405911 0.05210838
v 0.26452038 0.62404797 0.05202906
v 0.26454023 0.61805175 0.05204662
v 0.26714786 0.62393447 0.05350996
v 0.26714378 0.61805618 0.05351127
v 0.26090138 0.61818552 0.05131948
v 0.26461030 0.62395493 0.05214853
v 0.26462625 0.61807472 0.05206863
v 0.26078512 0.62397798 0.05130965
v 0.26083095 0.62400720 0.05134557
v 0.26088504 0.61811674 0.05121327
v 0.26467688 0.62397804 0.05213190
v 0.26459666 0.61803090 0.05213795
v 0.25502201 0.61821311 0.05109997
v 0.26094957 0.62389444 0.05137457
v 0.26075547 0.61817772 0.05137869
v 0.25509260 0.62389846 0.05101185
v 0.25506486 0.62407812 0.05110623
v 0.25502616 0.61805799 0.05093667
v 0.26087080 0.62391550 0.05122599
v 0.26079631 0.61805390 0.05129978
v 0.22667957 0.61807700 0.05111155
v 0.22663052 0.62388727 0.05099282
v 0.22666815 0.62402947 0.05098043
v 0.22673626 0.61812469 0.05098475
v 0.22675002 0.61807615 0.05107096
v 0.25656008 0.61806159 0.05926651
v 0.22669300 0.61813168 0.05919338
v 0.27006707 0.61816282 0.05829588
v 0.26888142 0.61811165 0.05575069
v 0.26713421 0.61819264 0.05349041
v 0.26456278 0.61802290 0.05215719
v 0.26092554 0.61821066 0.05126098
v 0.25499818 0.61804115 0.05094598
v 0.25886399 0.61817439 0.06785446
v 0.26701661 0.61802165 0.07101017
v 0.26429563 0.61806323 0.07358084
v 0.26907473 0.61815542 0.06823396
v 0.27022439 0.61811946 0.06490901
v 0.26068243 0.61802401 0.06592811
v 0.26178089 0.61813828 0.06436787
v 0.27061944 0.61805977 0.06168361
v 0.26237607 0.61812258 0.06314278
v 0.26268248 0.61811277 0.06183123
v 0.26228549 0.61809660 0.06058379
v 0.26141883 0.61819283 0.05976953
v 0.25970974 0.61803542 0.05929895
v 0.25658642 0.61815444 0.05924498
v 0.25970960 0.61821734 0.05946339
v 0.27021142 0.61811810 0.05834105
v 0.26150967 0.61815626 0.05983075
v 0.26237008 0.61804773 0.06058013
v 0.27052924 0.61808832 0.06163028
v 0.26263559 0.61816118 0.06179341
v 0.26232028 0.61807576 0.06312684
v 0.26183711 0.61811501 0.06444188
v 0.27020052 0.61806700 0.06500776
v 0.26070249 0.61814291 0.06591627
v 0.25890266 0.61819650 0.06776153
v 0.26895229 0.61811403 0.06811529
v 0.26702280 0.61819611 0.07097353
v 0.26441830 0.61813042 0.07364047
v 0.25517599 0.61807780 0.05098215
v 0.22661351 0.61804274 0.05094360
v 0.26090686 0.61804638 0.05127320
v 0.26451936 0.61804298 0.05208261
v 0.26705228 0.61820471 0.05354326
v 0.26903369 0.61803167 0.05567706
v 0.22674759 0.61804793 0.05925298
vt 0.01344412 0.01789748
vt 0.03017458 0.0600504
vt 0 0.03181775
vt 0.02823265 0.007954437
vt 0.04436559 0.001988609
vt 0.03943608 0.05056483
vt 0.0472038 0.04481373
vt 0.06184295 0
vt 0.05411258 0.04190084
vt 0.0607973 0.04092987
vt 0.06666043 0.04234898
vt 0.07834934 0.002072635
vt 0.0708057 0.04660628
vt 0.07327045 0.05568106
vt 0.07409204 0.07155259
vt 0.07409204 0.2252637
vt 0.1160676 0.2252637
vt 0.09231629 0.00829054
vt 0.103221 0.01801885
vt 0.1105405 0.03062272
vt 0.1146858 0.04985528
vt 0.1160676 0.07946968
vt -0.07409204 0.04249006
vt -0.1160676 0
vt -0.07409204 0
vt -0.1160676 0.04249006
vt -0.2252637 0.04249006
vt -0.07155259 0
vt -0.07155259 0.04249006
vt -0.2252637 0
vt -0.07528714 0.04249006
vt -0.05939436 0
vt -0.05939436 0.04249006
vt -0.07528714 0
vt -0.07293921 0.04249006
vt -0.06353566 0
vt -0.06353566 0.04249006
vt -0.07293921 0
vt -0.08278729 0.04249006
vt -0.07684525 0
vt -0.07684525 0.04249006
vt -0.08278729 0
vt -0.06871965 0.04249006
vt -0.07475208 0
vt -0.06871965 0
vt -0.07475208 0.04249006
vt -0.04752767 0.04249006
vt -0.05428254 0
vt -0.04752767 0
vt -0.05428254 0.04249006
vt -0.0260856 0.04249006
vt -0.03358334 0
vt -0.0260856 0
vt -0.03358334 0.04249006
vt -0.001606314 0.04249006
vt -0.01127133 0
vt -0.001606314 0
vt -0.01127133 0.04249006
vt 0.02188637 0
vt 0.008629234 0.04249006
vt 0.008629234 0
vt 0.02188637 0.04249006
vt -0.0217385 0.04249006
vt -0.06306147 0
vt -0.0217385 0
vt -0.06306147 0.04249006
vt -0.02288656 0.04249006
vt -0.00353409 0
vt -0.00353409 0.04249006
vt -0.02288656 0
vt 0.0189911 0.04249006
vt 0.001170755 0
vt 0.0189911 0
vt 0.001170755 0.04249006
vt 0.0409219 0.04249006
vt 0.02372123 0
vt 0.0409219 0
vt 0.02372123 0.04249006
vt 0.06144647 0.04249006
vt 0.04385635 0
vt 0.06144647 0
vt 0.04385635 0.04249006
vt 0.07799712 0.04249006
vt 0.06136111 0
vt 0.07799712 0
vt 0.06136111 0.04249006
vt 0.08770823 0.04249006
vt 0.07241974 0
vt 0.08770823 0
vt 0.07241974 0.04249006
vt 0.08901983 0.04249006
vt 0.07440641 0
vt 0.08901983 0
vt 0.07440641 0.04249006
vt 0.08199425 0
vt 0.06741915 0.04249006
vt 0.06741915 0
vt 0.08199425 0.04249006
vt 0.07289991 0
vt 0.0532257 0.04249006
vt 0.0532257 0
vt 0.07289991 0.04249006
vt 0.08479295 0
vt 0.05514632 0.04249006
vt 0.05514632 0
vt 0.08479295 0.04249006
vt 0.2252637 0
vt 0.07946968 0.04249006
vt 0.07946968 0
vt 0.2252637 0.04249006
vt -0.1160676 0.2252637
vt -0.07409204 0.07155259
vt -0.07409204 0.2252637
vt -0.07834934 0.002072635
vt -0.09231629 0.00829054
vt -0.103221 0.01801885
vt -0.1105405 0.03062272
vt -0.1146858 0.04985528
vt -0.1160676 0.07946968
vt -0.03017458 0.0600504
vt -0.01344412 0.01789748
vt -0.02823265 0.007954437
vt -0.04436559 0.001988609
vt -0.03943608 0.05056483
vt -0.0472038 0.04481373
vt -0.06184295 0
vt -0.05411258 0.04190084
vt -0.0607973 0.04092987
vt -0.06666043 0.04234898
vt -0.0708057 0.04660628
vt -0.07327045 0.05568106
vn 0 1 -3.597456166293249e-8
vn 0 -1 3.597456166293249e-8
vn -1 0 0
vn 1 0 0
vn 0 3.597456355031163e-8 1
vn -0.02585050488440598 3.5962541504450556e-8 0.9996658198604271
vn 0 -3.597456355031163e-8 -1
vn 0.02585050488440598 -3.5962541504450556e-8 -0.9996658198604271
vn -0.051683748659846415 3.592648349388601e-8 0.9986635019487118
vn 0.051683748659846415 -3.592648349388601e-8 -0.9986635019487118
vn -0.262053615142141 3.471737122682681e-8 0.9650533160354061
vn 0.262053615142141 -3.471737122682681e-8 -0.9650533160354061
vn -0.6975351211470273 2.5777593254895104e-8 0.7165505947010309
vn 0.6975351211470273 -2.5777593254895104e-8 -0.7165505947010309
vn -0.9719237025498171 8.464676922112423e-9 0.23529623121047755
vn 0.9719237025498171 -8.464676922112423e-9 -0.23529623121047755
vn -0.9896103943875244 -5.172247305716006e-9 -0.14377505806004146
vn 0.9896103943875244 5.172247305716006e-9 0.14377505806004146
vn -0.9214160796786482 -1.3978905121913591e-8 -0.38857741585124433
vn 0.9214160796786482 1.3978905121913591e-8 0.38857741585124433
vn -0.8036292730326404 -2.140955220833041e-8 -0.5951302307268801
vn 0.8036292730326404 2.140955220833041e-8 0.5951302307268801
vn -0.6985239189917631 -2.5742921104206128e-8 -0.7155867065537119
vn 0.6985239189917631 2.5742921104206128e-8 0.7155867065537119
vn -0.7301355894907722 2.458149996521579e-8 0.6833022910535
vn 0.7301355894907722 -2.458149996521579e-8 -0.6833022910535
vn 0.6946159444243027 2.5879410809151587e-8 0.7193807682663844
vn -0.6946159444243027 -2.5879410809151587e-8 -0.7193807682663844
vn 0.8298088119943368 2.0075527637287408e-8 0.5580477896529533
vn -0.8298088119943368 -2.0075527637287408e-8 -0.5580477896529533
vn 0.9378997165943626 1.2479812247401643e-8 0.3469065026951989
vn -0.9378997165943626 -1.2479812247401643e-8 -0.3469065026951989
vn 0.9935861114500513 4.067934852371501e-9 0.11307802232779908
vn -0.9935861114500513 -4.067934852371501e-9 -0.11307802232779908
vn 0.9922051421235256 -4.4829762193577926e-9 -0.12461523158761122
vn -0.9922051421235256 4.4829762193577926e-9 0.12461523158761122
vn 0.9135251324757895 -1.46338132190678e-8 -0.4067822910785213
vn -0.9135251324757895 1.46338132190678e-8 0.4067822910785213
vn 0.7461343571002045 -2.3951697338001315e-8 -0.665795404876501
vn -0.7461343571002045 2.3951697338001315e-8 0.665795404876501
vn 0.5021117582381814 -3.111090000507387e-8 -0.8648027418081891
vn -0.5021117582381814 3.111090000507387e-8 0.8648027418081891
vn 0.2106497521012988 -3.5167351407568454e-8 -0.9775616000742153
vn -0.2106497521012988 3.5167351407568454e-8 0.9775616000742153
vn 0.023304804118257416 -3.5964793025680174e-8 -0.9997284061709002
vn 0.046596968156186865 -3.593548683779591e-8 -0.9989137713329664
vn -0.023304804118257416 3.5964793025680174e-8 0.9997284061709002
vn -0.046596968156186865 3.593548683779591e-8 0.9989137713329664
usemtl material_0_0
f 1/1/1 2/2/1 3/3/1
f 2/2/1 1/1/1 4/4/1
f 2/2/1 4/4/1 5/5/1
f 2/2/1 5/5/1 6/6/1
f 6/6/1 5/5/1 7/7/1
f 7/7/1 5/5/1 8/8/1
f 7/7/1 8/8/1 9/9/1
f 9/9/1 8/8/1 10/10/1
f 10/10/1 8/8/1 11/11/1
f 11/11/1 8/8/1 12/12/1
f 11/11/1 12/12/1 13/13/1
f 13/13/1 12/12/1 14/14/1
f 14/14/1 12/12/1 15/15/1
f 15/15/1 12/12/1 16/16/1
f 16/16/1 12/12/1 17/17/1
f 17/17/1 12/12/1 18/18/1
f 17/17/1 18/18/1 19/19/1
f 17/17/1 19/19/1 20/20/1
f 17/17/1 20/20/1 21/21/1
f 17/17/1 21/21/1 22/22/1
f 23/22/2 24/21/2 25/17/2
f 24/21/2 26/20/2 25/17/2
f 26/20/2 27/19/2 25/17/2
f 27/19/2 28/18/2 25/17/2
f 28/18/2 29/12/2 25/17/2
f 25/17/2 29/12/2 30/16/2
f 30/16/2 29/12/2 31/15/2
f 31/15/2 29/12/2 32/14/2
f 32/14/2 29/12/2 33/13/2
f 33/13/2 29/12/2 34/11/2
f 29/12/2 35/8/2 34/11/2
f 34/11/2 35/8/2 36/10/2
f 36/10/2 35/8/2 37/9/2
f 37/9/2 35/8/2 38/7/2
f 35/8/2 39/5/2 38/7/2
f 38/7/2 39/5/2 40/6/2
f 40/6/2 39/5/2 41/2/2
f 39/5/2 42/4/2 41/2/2
f 42/4/2 43/1/2 41/2/2
f 44/3/2 41/2/2 43/1/2
f 45/23/3 46/24/3 47/25/3
f 46/24/3 45/23/3 48/26/3
f 49/26/4 50/23/4 51/24/4
f 52/25/4 51/24/4 50/23/4
f 53/27/5 54/28/6 55/29/6
f 54/28/6 53/27/5 56/30/5
f 57/30/7 58/27/7 59/28/8
f 60/29/8 59/28/8 58/27/7
f 55/31/6 61/32/9 62/33/9
f 61/32/9 55/31/6 54/34/6
f 59/34/8 60/31/8 63/32/10
f 64/33/10 63/32/10 60/31/8
f 65/35/11 66/36/11 67/37/11
f 66/36/11 65/35/11 68/38/11
f 69/38/12 70/35/12 71/36/12
f 72/37/12 71/36/12 70/35/12
f 73/39/13 74/40/13 75/41/13
f 74/40/13 73/39/13 76/42/13
f 77/42/14 78/39/14 79/40/14
f 80/41/14 79/40/14 78/39/14
f 81/43/15 82/44/15 83/45/15
f 82/44/15 81/43/15 84/46/15
f 85/46/16 86/43/16 87/44/16
f 88/45/16 87/44/16 86/43/16
f 89/47/17 90/48/17 91/49/17
f 90/48/17 89/47/17 92/50/17
f 93/50/18 94/47/18 95/48/18
f 96/49/18 95/48/18 94/47/18
f 97/51/19 98/52/19 99/53/19
f 98/52/19 97/51/19 100/54/19
f 101/54/20 102/51/20 103/52/20
f 104/53/20 103/52/20 102/51/20
f 105/55/21 106/56/21 107/57/21
f 106/56/21 105/55/21 108/58/21
f 109/58/22 110/55/22 111/56/22
f 112/57/22 111/56/22 110/55/22
f 113/59/23 114/60/23 115/61/23
f 114/60/23 113/59/23 116/62/23
f 117/62/24 118/59/24 119/60/24
f 120/61/24 119/60/24 118/59/24
f 121/63/25 122/64/25 123/65/25
f 122/64/25 121/63/25 124/66/25
f 125/66/26 126/63/26 127/64/26
f 128/65/26 127/64/26 126/63/26
f 129/67/27 130/68/27 131/69/27
f 130/68/27 129/67/27 132/70/27
f 133/70/28 134/67/28 135/68/28
f 136/69/28 135/68/28 134/67/28
f 137/71/29 138/72/29 139/73/29
f 138/72/29 137/71/29 140/74/29
f 141/74/30 142/71/30 143/72/30
f 144/73/30 143/72/30 142/71/30
f 145/75/31 146/76/31 147/77/31
f 146/76/31 145/75/31 148/78/31
f 149/78/32 150/75/32 151/76/32
f 152/77/32 151/76/32 150/75/32
f 153/79/33 154/80/33 155/81/33
f 154/80/33 153/79/33 156/82/33
f 157/82/34 158/79/34 159/80/34
f 160/81/34 159/80/34 158/79/34
f 161/83/35 162/84/35 163/85/35
f 162/84/35 161/83/35 164/86/35
f 165/86/36 166/83/36 167/84/36
f 168/85/36 167/84/36 166/83/36
f 169/87/37 170/88/37 171/89/37
f 170/88/37 169/87/37 172/90/37
f 173/90/38 174/87/38 175/88/38
f 176/89/38 175/88/38 174/87/38
f 177/91/39 178/92/39 179/93/39
f 178/92/39 177/91/39 180/94/39
f 181/94/40 182/91/40 183/92/40
f 184/93/40 183/92/40 182/91/40
f 185/95/41 186/96/41 187/97/41
f 186/96/41 185/95/41 188/98/41
f 189/98/42 190/95/42 191/96/42
f 192/97/42 191/96/42 190/95/42
f 193/99/43 194/100/43 195/101/43
f 194/100/43 193/99/43 196/102/43
f 197/102/44 198/99/44 199/100/44
f 200/101/44 199/100/44 198/99/44
f 201/103/45 202/104/46 203/105/46
f 202/104/46 201/103/45 204/106/45
f 205/106/47 206/103/47 207/104/48
f 208/105/48 207/104/48 206/103/47
f 209/107/7 204/108/45 201/109/45
f 204/108/45 209/107/7 210/110/7
f 211/110/5 212/107/5 205/108/47
f 206/109/47 205/108/47 212/107/5
f 213/111/2 214/112/2 215/113/2
f 214/112/2 213/111/2 216/114/2
f 216/114/2 213/111/2 217/115/2
f 217/115/2 213/111/2 218/116/2
f 218/116/2 213/111/2 219/117/2
f 219/117/2 213/111/2 220/118/2
f 220/118/2 213/111/2 221/119/2
f 222/120/2 223/121/2 224/3/2
f 223/121/2 222/120/2 225/122/2
f 225/122/2 222/120/2 226/123/2
f 226/123/2 222/120/2 227/124/2
f 226/123/2 227/124/2 228/125/2
f 226/123/2 228/125/2 229/126/2
f 229/126/2 228/125/2 230/127/2
f 229/126/2 230/127/2 231/128/2
f 229/126/2 231/128/2 232/129/2
f 229/126/2 232/129/2 216/114/2
f 216/114/2 232/129/2 233/130/2
f 216/114/2 233/130/2 234/131/2
f 216/114/2 234/131/2 214/112/2
f 235/112/1 236/131/1 237/114/1
f 236/131/1 238/130/1 237/114/1
f 238/130/1 239/129/1 237/114/1
f 237/114/1 239/129/1 240/126/1
f 239/129/1 241/128/1 240/126/1
f 241/128/1 242/127/1 240/126/1
f 242/127/1 243/125/1 240/126/1
f 240/126/1 243/125/1 244/123/1
f 243/125/1 245/124/1 244/123/1
f 245/124/1 246/120/1 244/123/1
f 244/123/1 246/120/1 247/122/1
f 247/122/1 246/120/1 248/121/1
f 249/3/1 248/121/1 246/120/1
f 250/119/1 251/111/1 252/118/1
f 252/118/1 251/111/1 253/117/1
f 253/117/1 251/111/1 254/116/1
f 254/116/1 251/111/1 255/115/1
f 255/115/1 251/111/1 237/114/1
f 237/114/1 251/111/1 235/112/1
f 256/113/1 235/112/1 251/111/1
