# SSTK version 0.8.0
# 15
mtllib original-15.mtl
o #ID65
v -0.28556982 -0.53286044 0.16061640
v -0.24173331 -0.51508718 0.16082131
v -0.28574548 -0.51508331 0.16087773
v -0.24196889 -0.53286337 0.16064300
v -0.28574121 -0.51524340 0.16077094
v -0.28542155 -0.53287168 0.11706565
v -0.28547706 -0.53291909 0.16067094
v -0.28555809 -0.51515447 0.11694712
v -0.24205333 -0.53279486 0.16067771
v -0.28552709 -0.53282885 0.11715168
v -0.24189332 -0.53291388 0.11712959
v -0.28543755 -0.53287878 0.16059436
v -0.24178677 -0.51508703 0.11690754
v -0.24208102 -0.53292372 0.16062182
v -0.24200042 -0.53290958 0.11718796
v -0.24188942 -0.51510528 0.16076006
v -0.28572330 -0.51526982 0.16091946
v -0.24181317 -0.51511094 0.11696416
v -0.28561450 -0.51522052 0.11689291
v -0.24186445 -0.51524190 0.16075617
v -0.24189802 -0.51513862 0.11700911
v -0.28537675 -0.53283359 0.11712442
v -0.28555515 -0.51517887 0.11694115
v -0.24193496 -0.53283660 0.11706737
vn 0 -0.009894840443983354 0.9999510448679916
vn -0.9999510165560715 -0.009897701163875075 3.873097064126413e-7
vn 0 -1 0
vn 0.9999509976796654 -0.009899607977028472 -0.0000011588399973109718
vn 0 1 0
vn 0 -0.009898654070517954 -0.9999510071236453
usemtl material_0_0
f 1//1 2//1 3//1
f 2//1 1//1 4//1
f 5//2 6//2 7//2
f 6//2 5//2 8//2
f 9//3 10//3 11//3
f 10//3 9//3 12//3
f 13//4 14//4 15//4
f 14//4 13//4 16//4
f 17//5 18//5 19//5
f 18//5 17//5 20//5
f 21//6 22//6 23//6
f 22//6 21//6 24//6
