# SSTK version 0.8.0
# 14
mtllib original-14.mtl
o #ID57
v -0.29559316 -0.48313218 0.16725421
v -0.23972571 -0.48320539 0.10980774
v -0.29551388 -0.48315422 0.10981218
v -0.23967194 -0.48320372 0.16720356
v -0.23966859 -0.51553799 0.16725092
v -0.29551767 -0.48312861 0.16719297
v -0.29552371 -0.51559582 0.16719984
v -0.23965005 -0.48317585 0.16732560
v -0.23973066 -0.48325164 0.10991621
v -0.23970526 -0.51555476 0.16715812
v -0.23982617 -0.51561151 0.10990523
v -0.23979161 -0.48325193 0.16720986
v -0.23966636 -0.48310685 0.10989667
v -0.29552846 -0.51564685 0.10987437
v -0.29554014 -0.48312432 0.10994734
v -0.23978148 -0.51568866 0.10975052
v -0.29542557 -0.48320064 0.16734164
v -0.29556151 -0.51569429 0.10994278
v -0.29543491 -0.51554412 0.16716401
v -0.29542566 -0.48309058 0.10991675
v -0.23969991 -0.51559779 0.16730452
v -0.29559273 -0.51565490 0.10986741
v -0.23976463 -0.51568916 0.10993234
v -0.29546566 -0.51562320 0.16731026
vn 0 1 0
vn 0 0 1
vn 1 0 5.869735999998989e-7
vn 0 0 -1
vn -1 0 5.869735999998989e-7
vn 0 -1 0
usemtl material_0_0
f 1//1 2//1 3//1
f 2//1 1//1 4//1
f 5//2 6//2 7//2
f 6//2 5//2 8//2
f 9//3 10//3 11//3
f 10//3 9//3 12//3
f 13//4 14//4 15//4
f 14//4 13//4 16//4
f 17//5 18//5 19//5
f 18//5 17//5 20//5
f 21//6 22//6 23//6
f 22//6 21//6 24//6
