# SSTK version 0.8.0
# 7
mtllib original-7.mtl
o group_6/ID79#ID79
v 0.02238810 0.78576706 0.03776632
v 0.00612218 0.78577522 0.03961879
v 0.01443967 0.78566310 0.03961614
v -0.00212645 0.78576821 0.03808956
v 0.02994854 0.78566851 0.03419875
v -0.00959575 0.78565441 0.03479678
v -0.01643649 0.78579291 0.02990137
v 0.03654094 0.78582866 0.02934225
v -0.02194282 0.78578722 0.02392946
v 0.04214228 0.78580708 0.02319373
v 0.04605296 0.78578157 0.01578629
v -0.02621237 0.78576996 0.01675507
v -0.02891480 0.78581859 0.00894029
v 0.04862804 0.78573874 0.00786928
v -0.02984800 0.78579979 0.00072041
v 0.04942757 0.78568439 -0.00021428
v 0.04830616 0.78576757 -0.00855666
v -0.02902515 0.78566305 -0.00754558
v -0.02669588 0.78566541 -0.01538824
v 0.04570526 0.78566008 -0.01640201
v 0.04153742 0.78569414 -0.02347558
v -0.02263686 0.78573611 -0.02268974
v -0.01721247 0.78566312 -0.02901091
v 0.03583557 0.78565837 -0.02961689
v 0.02904551 0.78565972 -0.03436860
v -0.01051478 0.78577515 -0.03393622
v 0.02144293 0.78568591 -0.03756725
v -0.00296870 0.78577479 -0.03735979
v 0.00507790 0.78570175 -0.03909318
v 0.01348255 0.78581733 -0.03931681
v 0.01344589 0.78566321 -0.03917429
v 0.02162727 0.78574285 -0.03769555
v 0.00521369 0.78573188 -0.03911773
v -0.00298179 0.78570270 -0.03730975
v -0.01052072 0.78576670 -0.03386662
v 0.02921093 0.78580389 -0.03439531
v -0.01716667 0.78582245 -0.02894265
v 0.03596087 0.78576404 -0.02965237
v 0.04160727 0.78583257 -0.02340380
v -0.02248841 0.78563802 -0.02264013
v -0.02655280 0.78577180 -0.01546750
v 0.04578718 0.78579998 -0.01634424
v 0.04844904 0.78572452 -0.00854159
v -0.02910492 0.78571170 -0.00762773
v -0.02982233 0.78579577 0.00076957
v 0.04927730 0.78578012 -0.00019802
v 0.04870017 0.78572647 0.00788312
v -0.02891358 0.78565542 0.00886716
v 0.04618818 0.78579138 0.01589554
v -0.02624785 0.78567488 0.01683794
v -0.02204745 0.78570787 0.02395881
v 0.04209194 0.78568322 0.02310933
v 0.03653964 0.78581500 0.02924730
v -0.01634533 0.78579981 0.02994315
v 0.03000353 0.78577980 0.03423036
v -0.00969611 0.78574516 0.03477202
v -0.00193383 0.78565911 0.03807651
v 0.02243104 0.78577983 0.03774291
v 0.00600844 0.78579170 0.03965979
v 0.01436809 0.78577323 0.03956421
v -0.02983019 0.78574570 0.00073818
v -0.02904324 0.71799268 -0.00765505
v -0.02990258 0.71799761 0.00078272
v -0.02904994 0.78570231 -0.00761786
v -0.02913762 0.78566498 -0.00755274
v -0.02983857 0.78569295 0.00070886
v -0.02908622 0.71802321 -0.00754157
v -0.02980118 0.71799538 0.00061607
v -0.02884999 0.78571596 0.00883481
v -0.02888631 0.71802390 0.00895637
v -0.02887030 0.78568099 0.00897036
v -0.02891744 0.71803736 0.00891619
v -0.02628603 0.78564750 0.01669111
v -0.02615435 0.71805300 0.01669782
v -0.02628762 0.78576814 0.01669890
v -0.02625838 0.71810930 0.01671087
v -0.02196334 0.78566214 0.02391101
v -0.02194957 0.71802525 0.02378770
v -0.02203544 0.78565544 0.02383571
v -0.02211473 0.71808019 0.02377976
v -0.01647881 0.78574013 0.02992809
v -0.01649948 0.71797881 0.03001435
v -0.01647456 0.78576538 0.03002639
v -0.01642696 0.71797180 0.02999196
v -0.00954998 0.71798288 0.03468669
v -0.00969669 0.78576424 0.03477219
v -0.00961162 0.71798847 0.03471634
v -0.00965967 0.78583163 0.03469862
v -0.00206277 0.71814012 0.03796356
v -0.00209725 0.78570865 0.03807919
v -0.00205513 0.71806565 0.03799581
v -0.00209508 0.78566388 0.03801934
v 0.00599349 0.71815007 0.03971622
v 0.00605039 0.78582774 0.03974095
v 0.00615571 0.71797732 0.03965734
v 0.00605067 0.78576091 0.03962831
v 0.01432843 0.71797051 0.03956819
v 0.01429931 0.78568965 0.03956329
v 0.01428955 0.71808248 0.03964344
v 0.01439992 0.78572325 0.03947375
v 0.02252002 0.71799446 0.03776107
v 0.02243914 0.78580178 0.03780006
v 0.02255299 0.71815989 0.03778419
v 0.02252582 0.78574262 0.03769090
v 0.02996166 0.71797342 0.03422470
v 0.02996178 0.78577058 0.03420852
v 0.02992835 0.71798135 0.03422472
v 0.03003659 0.78569225 0.03432718
v 0.03664079 0.71800245 0.02923347
v 0.03657201 0.78579504 0.02934359
v 0.03670770 0.71805649 0.02930180
v 0.03653303 0.78579510 0.02930266
v 0.04212822 0.78581484 0.02304945
v 0.04203508 0.71811506 0.02302120
v 0.04205284 0.78580672 0.02313714
v 0.04201021 0.71807249 0.02310217
v 0.04615201 0.78583218 0.01594573
v 0.04616898 0.71810410 0.01583429
v 0.04616145 0.78572006 0.01583120
v 0.04613776 0.71804929 0.01577614
v 0.04853135 0.78582593 0.00797768
v 0.04861029 0.71802264 0.00794705
v 0.04861854 0.78575027 0.00787013
v 0.04863641 0.71812534 0.00800588
v 0.04935831 0.78583422 -0.00037840
v 0.04941059 0.71809649 -0.00036336
v 0.04946488 0.78568039 -0.00027754
v 0.04946271 0.71815620 -0.00026514
v 0.04844267 0.78583563 -0.00850391
v 0.04844639 0.71804291 -0.00845720
v 0.04832704 0.78572079 -0.00849422
v 0.04848841 0.71811915 -0.00854101
v 0.04569264 0.78578807 -0.01637594
v 0.04565778 0.71803035 -0.01626219
v 0.04570773 0.78581211 -0.01631155
v 0.04578161 0.71806303 -0.01642782
v 0.04151638 0.78564580 -0.02341042
v 0.04143733 0.71814435 -0.02347537
v 0.04142524 0.78566907 -0.02339548
v 0.04160591 0.71813361 -0.02345559
v 0.03594583 0.78564722 -0.02956126
v 0.03599902 0.71812184 -0.02955335
v 0.03581400 0.78578546 -0.02965452
v 0.03582561 0.71803484 -0.02966728
v 0.02919439 0.71811774 -0.03442775
v 0.02914238 0.78583245 -0.03440959
v 0.02917041 0.78568198 -0.03437790
v 0.02907231 0.71802700 -0.03433206
v 0.02145393 0.71801048 -0.03758773
v 0.02153159 0.78578040 -0.03756204
v 0.02158935 0.78573940 -0.03758026
v 0.02156745 0.71796840 -0.03759234
v 0.01345444 0.71807059 -0.03919842
v 0.01345537 0.78568915 -0.03920086
v 0.01335927 0.78571013 -0.03925720
v 0.01336399 0.71813376 -0.03926972
v 0.00513124 0.71804124 -0.03923805
v 0.00504342 0.78582535 -0.03907241
v 0.00519860 0.78568273 -0.03916434
v 0.00507131 0.71797183 -0.03913538
v -0.00290321 0.71808192 -0.03736191
v -0.00289289 0.78581421 -0.03729260
v -0.00294822 0.78566864 -0.03741893
v -0.00287344 0.71797274 -0.03727018
v -0.01038442 0.71811603 -0.03391873
v -0.01039753 0.78565917 -0.03381529
v -0.01053983 0.78577985 -0.03396826
v -0.01051805 0.71810836 -0.03382459
v -0.01719447 0.71802354 -0.02884392
v -0.01703365 0.78572331 -0.02882729
v -0.01702544 0.78570798 -0.02895143
v -0.01712755 0.71815496 -0.02887639
v -0.02249488 0.78581538 -0.02276688
v -0.02256386 0.71804952 -0.02268792
v -0.02255261 0.78582666 -0.02275085
v -0.02250182 0.71813282 -0.02270003
v -0.02655595 0.78578844 -0.01557005
v -0.02657536 0.71801941 -0.01551539
v -0.02667577 0.78580174 -0.01541982
v -0.02660967 0.71813809 -0.01550817
vn 0 1 0
vn 0 -1 0
vn -0.9999253696840582 0 0.012216998903152058
vn -0.9806146563781961 0 -0.19594615509438468
vn 0.9806146563781961 0 0.19594615509438468
vn 0.9999253696840582 0 -0.012216998903152058
vn -0.9755345423625431 0 0.21984621137855348
vn 0.9755345423625431 0 -0.21984621137855348
vn -0.9085082019770613 0 0.41786702064222203
vn 0.9085082019770613 0 -0.41786702064222203
vn -0.8017756243083911 0 0.5976251737208613
vn 0.8017756243083911 0 -0.5976251737208613
vn -0.6600016786697496 0 0.7512641240955891
vn 0.6600016786697496 0 -0.7512641240955891
vn -0.4893824550840392 0 0.8720692705604977
vn 0.4893824550840392 0 -0.8720692705604977
vn -0.2973748858380156 0 0.9547607958398937
vn 0.2973748858380156 0 -0.9547607958398937
vn -0.09237062526340357 0 0.995724694676419
vn 0.09237062526340357 0 -0.995724694676419
vn 0.1166707709810876 0 0.9931706455582942
vn -0.1166707709810876 0 -0.9931706455582942
vn 0.32061299859242864 0 0.9472102750358925
vn -0.32061299859242864 0 -0.9472102750358925
vn 0.5105429178771945 0 0.8598522716173054
vn -0.5105429178771945 0 -0.8598522716173054
vn 0.6781596775037689 0 0.7349145881039402
vn -0.6781596775037689 0 -0.7349145881039402
vn 0.8161375685710766 0 0.5778576547618723
vn -0.8161375685710766 0 -0.5778576547618723
vn 0.9184464029587645 0 0.3955454523719201
vn -0.9184464029587645 0 -0.3955454523719201
usemtl material_0_0
f 1//1 2//1 3//1
f 2//1 1//1 4//1
f 4//1 1//1 5//1
f 4//1 5//1 6//1
f 6//1 5//1 7//1
f 7//1 5//1 8//1
f 7//1 8//1 9//1
f 9//1 8//1 10//1
f 9//1 10//1 11//1
f 9//1 11//1 12//1
f 12//1 11//1 13//1
f 13//1 11//1 14//1
f 13//1 14//1 15//1
f 15//1 14//1 16//1
f 15//1 16//1 17//1
f 15//1 17//1 18//1
f 18//1 17//1 19//1
f 19//1 17//1 20//1
f 19//1 20//1 21//1
f 19//1 21//1 22//1
f 22//1 21//1 23//1
f 23//1 21//1 24//1
f 23//1 24//1 25//1
f 23//1 25//1 26//1
f 26//1 25//1 27//1
f 26//1 27//1 28//1
f 28//1 27//1 29//1
f 29//1 27//1 30//1
f 31//2 32//2 33//2
f 33//2 32//2 34//2
f 34//2 32//2 35//2
f 32//2 36//2 35//2
f 35//2 36//2 37//2
f 36//2 38//2 37//2
f 38//2 39//2 37//2
f 37//2 39//2 40//2
f 40//2 39//2 41//2
f 39//2 42//2 41//2
f 42//2 43//2 41//2
f 41//2 43//2 44//2
f 44//2 43//2 45//2
f 43//2 46//2 45//2
f 46//2 47//2 45//2
f 45//2 47//2 48//2
f 47//2 49//2 48//2
f 48//2 49//2 50//2
f 50//2 49//2 51//2
f 49//2 52//2 51//2
f 52//2 53//2 51//2
f 51//2 53//2 54//2
f 53//2 55//2 54//2
f 54//2 55//2 56//2
f 56//2 55//2 57//2
f 55//2 58//2 57//2
f 57//2 58//2 59//2
f 60//2 59//2 58//2
f 61//3 62//4 63//3
f 62//4 61//3 64//4
f 65//5 66//6 67//5
f 68//6 67//5 66//6
f 69//7 63//3 70//7
f 63//3 69//7 61//3
f 66//6 71//8 68//6
f 72//8 68//6 71//8
f 73//9 70//7 74//9
f 70//7 73//9 69//7
f 71//8 75//10 72//8
f 76//10 72//8 75//10
f 77//11 74//9 78//11
f 74//9 77//11 73//9
f 75//10 79//12 76//10
f 80//12 76//10 79//12
f 81//13 78//11 82//13
f 78//11 81//13 77//11
f 79//12 83//14 80//12
f 84//14 80//12 83//14
f 81//13 85//15 86//15
f 85//15 81//13 82//13
f 84//14 83//14 87//16
f 88//16 87//16 83//14
f 86//15 89//17 90//17
f 89//17 86//15 85//15
f 87//16 88//16 91//18
f 92//18 91//18 88//16
f 90//17 93//19 94//19
f 93//19 90//17 89//17
f 91//18 92//18 95//20
f 96//20 95//20 92//18
f 94//19 97//21 98//21
f 97//21 94//19 93//19
f 95//20 96//20 99//22
f 100//22 99//22 96//20
f 98//21 101//23 102//23
f 101//23 98//21 97//21
f 99//22 100//22 103//24
f 104//24 103//24 100//22
f 102//23 105//25 106//25
f 105//25 102//23 101//23
f 103//24 104//24 107//26
f 108//26 107//26 104//24
f 106//25 109//27 110//27
f 109//27 106//25 105//25
f 107//26 108//26 111//28
f 112//28 111//28 108//26
f 113//29 109//27 114//29
f 109//27 113//29 110//27
f 112//28 115//30 111//28
f 116//30 111//28 115//30
f 117//31 114//29 118//31
f 114//29 117//31 113//29
f 115//30 119//32 116//30
f 120//32 116//30 119//32
f 121//5 118//31 122//5
f 118//31 121//5 117//31
f 119//32 123//4 120//32
f 124//4 120//32 123//4
f 125//6 122//5 126//6
f 122//5 125//6 121//5
f 123//4 127//3 124//4
f 128//3 124//4 127//3
f 129//8 126//6 130//8
f 126//6 129//8 125//6
f 127//3 131//7 128//3
f 132//7 128//3 131//7
f 133//10 130//8 134//10
f 130//8 133//10 129//8
f 131//7 135//9 132//7
f 136//9 132//7 135//9
f 137//12 134//10 138//12
f 134//10 137//12 133//10
f 135//9 139//11 136//9
f 140//11 136//9 139//11
f 141//14 138//12 142//14
f 138//12 141//14 137//12
f 139//11 143//13 140//11
f 144//13 140//11 143//13
f 145//16 141//14 142//14
f 141//14 145//16 146//16
f 147//15 148//15 143//13
f 144//13 143//13 148//15
f 149//18 146//16 145//16
f 146//16 149//18 150//18
f 151//17 152//17 147//15
f 148//15 147//15 152//17
f 153//20 150//18 149//18
f 150//18 153//20 154//20
f 155//19 156//19 151//17
f 152//17 151//17 156//19
f 157//22 154//20 153//20
f 154//20 157//22 158//22
f 159//21 160//21 155//19
f 156//19 155//19 160//21
f 161//24 158//22 157//22
f 158//22 161//24 162//24
f 163//23 164//23 159//21
f 160//21 159//21 164//23
f 165//26 162//24 161//24
f 162//24 165//26 166//26
f 167//25 168//25 163//23
f 164//23 163//23 168//25
f 169//28 166//26 165//26
f 166//26 169//28 170//28
f 171//27 172//27 167//25
f 168//25 167//25 172//27
f 173//30 169//28 174//30
f 169//28 173//30 170//28
f 171//27 175//29 172//27
f 176//29 172//27 175//29
f 177//32 174//30 178//32
f 174//30 177//32 173//30
f 175//29 179//31 176//29
f 180//31 176//29 179//31
f 64//4 178//32 62//4
f 178//32 64//4 177//32
f 179//31 65//5 180//31
f 67//5 180//31 65//5
